<?xml version="1.0" encoding="UTF-8" standalone="no"?>
<!DOCTYPE svg PUBLIC "-//W3C//DTD SVG 1.1//EN"
 "http://www.w3.org/Graphics/SVG/1.1/DTD/svg11.dtd">
<!-- Generated by graphviz version 13.1.2 (20250808.2320)
 -->
<!-- Title: enter_parent_page_cb Pages: 1 -->
<svg width="695pt" height="396pt"
 viewBox="0.00 0.00 695.00 396.00" xmlns="http://www.w3.org/2000/svg" xmlns:xlink="http://www.w3.org/1999/xlink">
<g id="graph0" class="graph" transform="scale(1 1) rotate(0) translate(4 392.12)">
<title>enter_parent_page_cb</title>
<!-- Node1 -->
<g id="Node000001" class="node">
<title>Node1</title>
<g id="a_Node000001"><a xlink:title=" ">
<polygon fill="#999999" stroke="#666666" points="687.25,-158.75 563.25,-158.75 563.25,-138 687.25,-138 687.25,-158.75"/>
<text xml:space="preserve" text-anchor="middle" x="625.25" y="-145.25" font-family="Helvetica,sans-Serif" font-size="10.00">enter_parent_page_cb</text>
</a>
</g>
</g>
<!-- Node2 -->
<g id="Node000002" class="node">
<title>Node2</title>
<g id="a_Node000002"><a xlink:href="kest__ui_8c.html#a7aea2c8df77b1c144c35271c2ab8241f" target="_top" xlink:title=" ">
<polygon fill="white" stroke="#666666" points="522.75,-310.12 389,-310.12 389,-276.62 522.75,-276.62 522.75,-310.12"/>
<text xml:space="preserve" text-anchor="start" x="397" y="-296.62" font-family="Helvetica,sans-Serif" font-size="10.00">create_panel_with_back</text>
<text xml:space="preserve" text-anchor="middle" x="455.88" y="-283.88" font-family="Helvetica,sans-Serif" font-size="10.00">_button</text>
</a>
</g>
</g>
<!-- Node1&#45;&gt;Node2 -->
<g id="edge1_Node000001_Node000002" class="edge">
<title>Node1&#45;&gt;Node2</title>
<g id="a_edge1_Node000001_Node000002"><a xlink:title=" ">
<path fill="none" stroke="#63b8ff" d="M603.65,-166.22C571.23,-194.31 508.73,-248.45 476.76,-276.15"/>
<polygon fill="#63b8ff" stroke="#63b8ff" points="605.53,-169.22 610.8,-160.03 600.95,-163.93 605.53,-169.22"/>
</a>
</g>
</g>
<!-- Node20 -->
<g id="Node000020" class="node">
<title>Node20</title>
<g id="a_Node000020"><a xlink:href="kest__ui_8c.html#aea23235acc3b1a34113c2aff79e030e7" target="_top" xlink:title=" ">
<polygon fill="white" stroke="#666666" points="526.12,-188.12 385.62,-188.12 385.62,-154.62 526.12,-154.62 526.12,-188.12"/>
<text xml:space="preserve" text-anchor="start" x="393.62" y="-174.62" font-family="Helvetica,sans-Serif" font-size="10.00">create_panel_with_back</text>
<text xml:space="preserve" text-anchor="middle" x="455.88" y="-161.88" font-family="Helvetica,sans-Serif" font-size="10.00">_button_and_right_button</text>
</a>
</g>
</g>
<!-- Node1&#45;&gt;Node20 -->
<g id="edge7_Node000001_Node000020" class="edge">
<title>Node1&#45;&gt;Node20</title>
<g id="a_edge7_Node000001_Node000020"><a xlink:title=" ">
<path fill="none" stroke="#63b8ff" d="M551.61,-158.36C543.26,-159.5 534.76,-160.67 526.45,-161.81"/>
<polygon fill="#63b8ff" stroke="#63b8ff" points="551.95,-161.84 561.38,-157.01 550.99,-154.91 551.95,-161.84"/>
</a>
</g>
</g>
<!-- Node21 -->
<g id="Node000021" class="node">
<title>Node21</title>
<g id="a_Node000021"><a xlink:href="kest__ui_8c.html#a349acdb394f97d782e6b5828af856b05" target="_top" xlink:title=" ">
<polygon fill="white" stroke="#666666" points="527.25,-136.75 384.5,-136.75 384.5,-116 527.25,-116 527.25,-136.75"/>
<text xml:space="preserve" text-anchor="middle" x="455.88" y="-123.25" font-family="Helvetica,sans-Serif" font-size="10.00">ui_page_add_back_button</text>
</a>
</g>
</g>
<!-- Node1&#45;&gt;Node21 -->
<g id="edge8_Node000001_Node000021" class="edge">
<title>Node1&#45;&gt;Node21</title>
<g id="a_edge8_Node000001_Node000021"><a xlink:title=" ">
<path fill="none" stroke="#63b8ff" d="M551.69,-138.84C543.7,-137.79 535.56,-136.72 527.59,-135.67"/>
<polygon fill="#63b8ff" stroke="#63b8ff" points="551,-142.28 561.38,-140.11 551.92,-135.34 551,-142.28"/>
</a>
</g>
</g>
<!-- Node49 -->
<g id="Node000049" class="node">
<title>Node49</title>
<g id="a_Node000049"><a xlink:href="kest__ui_8c.html#af1279a2281df951462cffadc74e0a5f7" target="_top" xlink:title=" ">
<polygon fill="white" stroke="#666666" points="513,-63.12 398.75,-63.12 398.75,-29.62 513,-29.62 513,-63.12"/>
<text xml:space="preserve" text-anchor="start" x="406.75" y="-49.62" font-family="Helvetica,sans-Serif" font-size="10.00">ui_page_add_parent</text>
<text xml:space="preserve" text-anchor="middle" x="455.88" y="-36.88" font-family="Helvetica,sans-Serif" font-size="10.00">_button</text>
</a>
</g>
</g>
<!-- Node1&#45;&gt;Node49 -->
<g id="edge20_Node000001_Node000049" class="edge">
<title>Node1&#45;&gt;Node49</title>
<g id="a_edge20_Node000001_Node000049"><a xlink:title=" ">
<path fill="none" stroke="#63b8ff" d="M596.99,-131.76C566.17,-112.98 516.23,-82.55 485.04,-63.54"/>
<polygon fill="#63b8ff" stroke="#63b8ff" points="595,-134.65 605.36,-136.86 598.64,-128.67 595,-134.65"/>
</a>
</g>
</g>
<!-- Node3 -->
<g id="Node000003" class="node">
<title>Node3</title>
<g id="a_Node000003"><a xlink:href="kest__effect__select_8c.html#af5e1f2ec64c8c42ed66a3bc39c7411eb" target="_top" xlink:title=" ">
<polygon fill="white" stroke="#666666" points="325.25,-388.12 200.5,-388.12 200.5,-354.62 325.25,-354.62 325.25,-388.12"/>
<text xml:space="preserve" text-anchor="start" x="208.5" y="-374.62" font-family="Helvetica,sans-Serif" font-size="10.00">create_effect_selector</text>
<text xml:space="preserve" text-anchor="middle" x="262.88" y="-361.88" font-family="Helvetica,sans-Serif" font-size="10.00">_ui_eff</text>
</a>
</g>
</g>
<!-- Node2&#45;&gt;Node3 -->
<g id="edge2_Node000002_Node000003" class="edge">
<title>Node2&#45;&gt;Node3</title>
<g id="a_edge2_Node000002_Node000003"><a xlink:title=" ">
<path fill="none" stroke="#63b8ff" d="M413.33,-315.56C393.95,-325.42 370.38,-336.73 348.5,-345.38 340.64,-348.48 332.25,-351.45 323.92,-354.21"/>
<polygon fill="#63b8ff" stroke="#63b8ff" points="414.71,-318.79 422,-311.1 411.5,-312.57 414.71,-318.79"/>
</a>
</g>
</g>
<!-- Node17 -->
<g id="Node000017" class="node">
<title>Node17</title>
<g id="a_Node000017"><a xlink:href="kest__ui_8c.html#a91cbeba99527e75576d1690162018ef5" target="_top" xlink:title=" ">
<polygon fill="white" stroke="#666666" points="333.88,-336.12 191.88,-336.12 191.88,-302.62 333.88,-302.62 333.88,-336.12"/>
<text xml:space="preserve" text-anchor="start" x="199.88" y="-322.62" font-family="Helvetica,sans-Serif" font-size="10.00">create_panel_with_back</text>
<text xml:space="preserve" text-anchor="middle" x="262.88" y="-309.88" font-family="Helvetica,sans-Serif" font-size="10.00">_button_and_page_button</text>
</a>
</g>
</g>
<!-- Node2&#45;&gt;Node17 -->
<g id="edge4_Node000002_Node000017" class="edge">
<title>Node2&#45;&gt;Node17</title>
<g id="a_edge4_Node000002_Node000017"><a xlink:title=" ">
<path fill="none" stroke="#63b8ff" d="M377.33,-303.93C363.08,-305.87 348.28,-307.89 334.25,-309.79"/>
<polygon fill="#63b8ff" stroke="#63b8ff" points="377.67,-307.42 387.11,-302.6 376.73,-300.48 377.67,-307.42"/>
</a>
</g>
</g>
<!-- Node19 -->
<g id="Node000019" class="node">
<title>Node19</title>
<g id="a_Node000019"><a xlink:href="kest__ui_8c.html#a62156348a1dfc799541fc93d3dd20b6e" target="_top" xlink:title=" ">
<polygon fill="white" stroke="#666666" points="329.38,-284.12 196.38,-284.12 196.38,-250.62 329.38,-250.62 329.38,-284.12"/>
<text xml:space="preserve" text-anchor="start" x="204.38" y="-270.62" font-family="Helvetica,sans-Serif" font-size="10.00">create_panel_with_right</text>
<text xml:space="preserve" text-anchor="middle" x="262.88" y="-257.88" font-family="Helvetica,sans-Serif" font-size="10.00">_button</text>
</a>
</g>
</g>
<!-- Node2&#45;&gt;Node19 -->
<g id="edge6_Node000002_Node000019" class="edge">
<title>Node2&#45;&gt;Node19</title>
<g id="a_edge6_Node000002_Node000019"><a xlink:title=" ">
<path fill="none" stroke="#63b8ff" d="M377.26,-282.81C361.48,-280.66 345.03,-278.42 329.7,-276.34"/>
<polygon fill="#63b8ff" stroke="#63b8ff" points="376.73,-286.27 387.11,-284.15 377.67,-279.33 376.73,-286.27"/>
</a>
</g>
</g>
<!-- Node4 -->
<g id="Node000004" class="node">
<title>Node4</title>
<g id="a_Node000004"><a xlink:href="kest__effect__select_8c.html#a4f784340d1e1e332c60be5a095244ba1" target="_top" xlink:title=" ">
<polygon fill="#fff0f0" stroke="red" points="134.88,-381.75 6.38,-381.75 6.38,-361 134.88,-361 134.88,-381.75"/>
<text xml:space="preserve" text-anchor="middle" x="70.62" y="-368.25" font-family="Helvetica,sans-Serif" font-size="10.00">init_effect_selector_eff</text>
</a>
</g>
</g>
<!-- Node3&#45;&gt;Node4 -->
<g id="edge3_Node000003_Node000004" class="edge">
<title>Node3&#45;&gt;Node4</title>
<g id="a_edge3_Node000003_Node000004"><a xlink:title=" ">
<path fill="none" stroke="#63b8ff" d="M188.73,-371.38C171.14,-371.38 152.49,-371.38 135.37,-371.38"/>
<polygon fill="#63b8ff" stroke="#63b8ff" points="188.59,-374.88 198.59,-371.38 188.59,-367.88 188.59,-374.88"/>
</a>
</g>
</g>
<!-- Node18 -->
<g id="Node000018" class="node">
<title>Node18</title>
<g id="a_Node000018"><a xlink:href="kest__ui_8c.html#a56d00dcd05509dc9999a3c25122f4851" target="_top" xlink:title=" ">
<polygon fill="white" stroke="#666666" points="137.5,-336.12 3.75,-336.12 3.75,-302.62 137.5,-302.62 137.5,-336.12"/>
<text xml:space="preserve" text-anchor="start" x="11.75" y="-322.62" font-family="Helvetica,sans-Serif" font-size="10.00">create_panel_with_back</text>
<text xml:space="preserve" text-anchor="middle" x="70.62" y="-309.88" font-family="Helvetica,sans-Serif" font-size="10.00">_and_settings_buttons</text>
</a>
</g>
</g>
<!-- Node17&#45;&gt;Node18 -->
<g id="edge5_Node000017_Node000018" class="edge">
<title>Node17&#45;&gt;Node18</title>
<g id="a_edge5_Node000017_Node000018"><a xlink:title=" ">
<path fill="none" stroke="#63b8ff" d="M180.32,-319.38C166.14,-319.38 151.55,-319.38 137.85,-319.38"/>
<polygon fill="#63b8ff" stroke="#63b8ff" points="180.06,-322.88 190.06,-319.38 180.06,-315.88 180.06,-322.88"/>
</a>
</g>
</g>
<!-- Node22 -->
<g id="Node000022" class="node">
<title>Node22</title>
<g id="a_Node000022"><a xlink:href="kest__effect__settings_8c.html#ab738a7e4abecdaf8e9e7788ace97d8b5" target="_top" xlink:title=" ">
<polygon fill="white" stroke="#666666" points="347.38,-58.75 178.38,-58.75 178.38,-38 347.38,-38 347.38,-58.75"/>
<text xml:space="preserve" text-anchor="middle" x="262.88" y="-45.25" font-family="Helvetica,sans-Serif" font-size="10.00">configure_effect_settings_page</text>
</a>
</g>
</g>
<!-- Node21&#45;&gt;Node22 -->
<g id="edge9_Node000021_Node000022" class="edge">
<title>Node21&#45;&gt;Node22</title>
<g id="a_edge9_Node000021_Node000022"><a xlink:title=" ">
<path fill="none" stroke="#63b8ff" d="M428.84,-109.61C407.87,-96.74 377.24,-79.38 348.5,-68.38 339.19,-64.81 329.06,-61.76 319.15,-59.19"/>
<polygon fill="#63b8ff" stroke="#63b8ff" points="426.97,-112.57 437.31,-114.89 430.68,-106.63 426.97,-112.57"/>
</a>
</g>
</g>
<!-- Node27 -->
<g id="Node000027" class="node">
<title>Node27</title>
<g id="a_Node000027"><a xlink:href="kest__menu_8c.html#a264644eed0c454d882162f462ed24454" target="_top" xlink:title=" ">
<polygon fill="white" stroke="#666666" points="324.88,-214.75 200.88,-214.75 200.88,-194 324.88,-194 324.88,-214.75"/>
<text xml:space="preserve" text-anchor="middle" x="262.88" y="-201.25" font-family="Helvetica,sans-Serif" font-size="10.00">configure_menu_page</text>
</a>
</g>
</g>
<!-- Node21&#45;&gt;Node27 -->
<g id="edge12_Node000021_Node000027" class="edge">
<title>Node21&#45;&gt;Node27</title>
<g id="a_edge12_Node000021_Node000027"><a xlink:title=" ">
<path fill="none" stroke="#63b8ff" d="M391.62,-141.52C389.17,-142.71 386.78,-143.99 384.5,-145.38 364.32,-157.59 368.87,-172.48 348.5,-184.38 341.33,-188.56 333.34,-191.88 325.2,-194.49"/>
<polygon fill="#63b8ff" stroke="#63b8ff" points="392.78,-144.83 400.63,-137.71 390.05,-138.38 392.78,-144.83"/>
</a>
</g>
</g>
<!-- Node31 -->
<g id="Node000031" class="node">
<title>Node31</title>
<g id="a_Node000031"><a xlink:href="kest__preset__settings_8c.html#a4e21964ed69d6e526547b1f73d86f508" target="_top" xlink:title=" ">
<polygon fill="white" stroke="#666666" points="348.5,-175.75 177.25,-175.75 177.25,-155 348.5,-155 348.5,-175.75"/>
<text xml:space="preserve" text-anchor="middle" x="262.88" y="-162.25" font-family="Helvetica,sans-Serif" font-size="10.00">configure_preset_settings_page</text>
</a>
</g>
</g>
<!-- Node21&#45;&gt;Node31 -->
<g id="edge15_Node000021_Node000031" class="edge">
<title>Node21&#45;&gt;Node31</title>
<g id="a_edge15_Node000021_Node000031"><a xlink:title=" ">
<path fill="none" stroke="#63b8ff" d="M390.58,-139.5C366.7,-144.38 339.9,-149.85 317.12,-154.5"/>
<polygon fill="#63b8ff" stroke="#63b8ff" points="391.09,-142.97 400.19,-137.54 389.69,-136.11 391.09,-142.97"/>
</a>
</g>
</g>
<!-- Node44 -->
<g id="Node000044" class="node">
<title>Node44</title>
<g id="a_Node000044"><a xlink:href="kest__sequence__list_8c.html#ae60870bb862edfc5b0a45344c20b152f" target="_top" xlink:title=" ">
<polygon fill="#fff0f0" stroke="red" points="329.75,-136.75 196,-136.75 196,-116 329.75,-116 329.75,-136.75"/>
<text xml:space="preserve" text-anchor="middle" x="262.88" y="-123.25" font-family="Helvetica,sans-Serif" font-size="10.00">configure_sequence_list</text>
</a>
</g>
</g>
<!-- Node21&#45;&gt;Node44 -->
<g id="edge18_Node000021_Node000044" class="edge">
<title>Node21&#45;&gt;Node44</title>
<g id="a_edge18_Node000021_Node000044"><a xlink:title=" ">
<path fill="none" stroke="#63b8ff" d="M372.74,-126.38C358.52,-126.38 343.91,-126.38 330.18,-126.38"/>
<polygon fill="#63b8ff" stroke="#63b8ff" points="372.51,-129.88 382.51,-126.38 372.51,-122.88 372.51,-129.88"/>
</a>
</g>
</g>
<!-- Node37 -->
<g id="Node000037" class="node">
<title>Node37</title>
<g id="a_Node000037"><a xlink:href="kest__sequence__view_8c.html#ac871b24a7c875a7b6e707a3d2691a2a9" target="_top" xlink:title=" ">
<polygon fill="#fff0f0" stroke="red" points="333.88,-97.75 191.88,-97.75 191.88,-77 333.88,-77 333.88,-97.75"/>
<text xml:space="preserve" text-anchor="middle" x="262.88" y="-84.25" font-family="Helvetica,sans-Serif" font-size="10.00">configure_sequence_view</text>
</a>
</g>
</g>
<!-- Node21&#45;&gt;Node37 -->
<g id="edge19_Node000021_Node000037" class="edge">
<title>Node21&#45;&gt;Node37</title>
<g id="a_edge19_Node000021_Node000037"><a xlink:title=" ">
<path fill="none" stroke="#63b8ff" d="M390.58,-113.25C366.7,-108.37 339.9,-102.9 317.12,-98.25"/>
<polygon fill="#63b8ff" stroke="#63b8ff" points="389.69,-116.64 400.19,-115.21 391.09,-109.78 389.69,-116.64"/>
</a>
</g>
</g>
<!-- Node23 -->
<g id="Node000023" class="node">
<title>Node23</title>
<g id="a_Node000023"><a xlink:href="kest__effect__view_8c.html#ae392eef44a5a025bad43a7a8969ab5b0" target="_top" xlink:title=" ">
<polygon fill="#fff0f0" stroke="red" points="132.62,-20.75 8.62,-20.75 8.62,0 132.62,0 132.62,-20.75"/>
<text xml:space="preserve" text-anchor="middle" x="70.62" y="-7.25" font-family="Helvetica,sans-Serif" font-size="10.00">configure_effect_view</text>
</a>
</g>
</g>
<!-- Node22&#45;&gt;Node23 -->
<g id="edge10_Node000022_Node000023" class="edge">
<title>Node22&#45;&gt;Node23</title>
<g id="a_edge10_Node000022_Node000023"><a xlink:title=" ">
<path fill="none" stroke="#63b8ff" d="M196.55,-35.33C173.55,-30.73 147.96,-25.62 125.96,-21.23"/>
<polygon fill="#63b8ff" stroke="#63b8ff" points="195.64,-38.71 206.13,-37.24 197.01,-31.85 195.64,-38.71"/>
</a>
</g>
</g>
<!-- Node26 -->
<g id="Node000026" class="node">
<title>Node26</title>
<g id="a_Node000026"><a xlink:href="kest__effect__settings_8c.html#ab8bf2accabc08beecb97a54915abc488" target="_top" xlink:title=" ">
<polygon fill="#fff0f0" stroke="red" points="140.12,-59.75 1.12,-59.75 1.12,-39 140.12,-39 140.12,-59.75"/>
<text xml:space="preserve" text-anchor="middle" x="70.62" y="-46.25" font-family="Helvetica,sans-Serif" font-size="10.00">init_effect_settings_page</text>
</a>
</g>
</g>
<!-- Node22&#45;&gt;Node26 -->
<g id="edge11_Node000022_Node000026" class="edge">
<title>Node22&#45;&gt;Node26</title>
<g id="a_edge11_Node000022_Node000026"><a xlink:title=" ">
<path fill="none" stroke="#63b8ff" d="M166.92,-48.87C158.03,-48.92 149.14,-48.97 140.55,-49.01"/>
<polygon fill="#63b8ff" stroke="#63b8ff" points="166.66,-52.38 176.64,-48.82 166.62,-45.38 166.66,-52.38"/>
</a>
</g>
</g>
<!-- Node27&#45;&gt;Node27 -->
<g id="edge13_Node000027_Node000027" class="edge">
<title>Node27&#45;&gt;Node27</title>
<g id="a_edge13_Node000027_Node000027"><a xlink:title=" ">
<path fill="none" stroke="#63b8ff" d="M296.7,-226.24C292.22,-230.08 280.95,-232.75 262.88,-232.75 229.83,-232.75 219.51,-223.81 231.9,-215.15"/>
<polygon fill="#63b8ff" stroke="#63b8ff" points="300.11,-225.43 294.23,-216.61 293.33,-227.17 300.11,-225.43"/>
</a>
</g>
</g>
<!-- Node28 -->
<g id="Node000028" class="node">
<title>Node28</title>
<g id="a_Node000028"><a xlink:href="kest__menu_8c.html#a9a3dc2a29ebf6ace0a6b54a902530001" target="_top" xlink:title=" ">
<polygon fill="#fff0f0" stroke="red" points="117.62,-214.75 23.62,-214.75 23.62,-194 117.62,-194 117.62,-214.75"/>
<text xml:space="preserve" text-anchor="middle" x="70.62" y="-201.25" font-family="Helvetica,sans-Serif" font-size="10.00">init_menu_page</text>
</a>
</g>
</g>
<!-- Node27&#45;&gt;Node28 -->
<g id="edge14_Node000027_Node000028" class="edge">
<title>Node27&#45;&gt;Node28</title>
<g id="a_edge14_Node000027_Node000028"><a xlink:title=" ">
<path fill="none" stroke="#63b8ff" d="M189.42,-204.38C165.45,-204.38 139.43,-204.38 117.97,-204.38"/>
<polygon fill="#63b8ff" stroke="#63b8ff" points="189.12,-207.88 199.12,-204.38 189.12,-200.88 189.12,-207.88"/>
</a>
</g>
</g>
<!-- Node32 -->
<g id="Node000032" class="node">
<title>Node32</title>
<g id="a_Node000032"><a xlink:href="kest__preset__view_8c.html#ad8a171502fcb88f5b5a08657a6424752" target="_top" xlink:title=" ">
<polygon fill="#fff0f0" stroke="red" points="133.75,-136.75 7.5,-136.75 7.5,-116 133.75,-116 133.75,-136.75"/>
<text xml:space="preserve" text-anchor="middle" x="70.62" y="-123.25" font-family="Helvetica,sans-Serif" font-size="10.00">configure_preset_view</text>
</a>
</g>
</g>
<!-- Node31&#45;&gt;Node32 -->
<g id="edge16_Node000031_Node000032" class="edge">
<title>Node31&#45;&gt;Node32</title>
<g id="a_edge16_Node000031_Node000032"><a xlink:title=" ">
<path fill="none" stroke="#63b8ff" d="M197.83,-152.25C174.05,-147.37 147.36,-141.9 124.67,-137.25"/>
<polygon fill="#63b8ff" stroke="#63b8ff" points="196.9,-155.63 207.4,-154.21 198.3,-148.77 196.9,-155.63"/>
</a>
</g>
</g>
<!-- Node48 -->
<g id="Node000048" class="node">
<title>Node48</title>
<g id="a_Node000048"><a xlink:href="kest__preset__settings_8c.html#af8a7e7dad2d6e91426bed7a0ec9f4cd4" target="_top" xlink:title=" ">
<polygon fill="#fff0f0" stroke="red" points="141.25,-175.75 0,-175.75 0,-155 141.25,-155 141.25,-175.75"/>
<text xml:space="preserve" text-anchor="middle" x="70.62" y="-162.25" font-family="Helvetica,sans-Serif" font-size="10.00">init_preset_settings_page</text>
</a>
</g>
</g>
<!-- Node31&#45;&gt;Node48 -->
<g id="edge17_Node000031_Node000048" class="edge">
<title>Node31&#45;&gt;Node48</title>
<g id="a_edge17_Node000031_Node000048"><a xlink:title=" ">
<path fill="none" stroke="#63b8ff" d="M165.41,-165.38C157.37,-165.38 149.34,-165.38 141.56,-165.38"/>
<polygon fill="#63b8ff" stroke="#63b8ff" points="165.25,-168.88 175.25,-165.38 165.25,-161.88 165.25,-168.88"/>
</a>
</g>
</g>
<!-- Node49&#45;&gt;Node23 -->
<g id="edge21_Node000049_Node000023" class="edge">
<title>Node49&#45;&gt;Node23</title>
<g id="a_edge21_Node000049_Node000023"><a xlink:title=" ">
<path fill="none" stroke="#63b8ff" d="M387.29,-34.64C374.44,-32.67 361.08,-30.81 348.5,-29.38 274.66,-20.96 189.28,-15.79 133.08,-13"/>
<polygon fill="#63b8ff" stroke="#63b8ff" points="386.5,-38.06 396.92,-36.15 387.59,-31.14 386.5,-38.06"/>
</a>
</g>
</g>
</g>
</svg>
