<?xml version="1.0" encoding="UTF-8" standalone="no"?>
<!DOCTYPE svg PUBLIC "-//W3C//DTD SVG 1.1//EN"
 "http://www.w3.org/Graphics/SVG/1.1/DTD/svg11.dtd">
<!-- Generated by graphviz version 13.1.2 (20250808.2320)
 -->
<!-- Title: kest_expression_updated_in_scope Pages: 1 -->
<svg width="825pt" height="118pt"
 viewBox="0.00 0.00 825.00 118.00" xmlns="http://www.w3.org/2000/svg" xmlns:xlink="http://www.w3.org/1999/xlink">
<g id="graph0" class="graph" transform="scale(1 1) rotate(0) translate(4 114.25)">
<title>kest_expression_updated_in_scope</title>
<!-- Node1 -->
<g id="Node000001" class="node">
<title>Node1</title>
<g id="a_Node000001"><a xlink:title=" ">
<polygon fill="#999999" stroke="#666666" points="816.5,-72.88 676.75,-72.88 676.75,-39.38 816.5,-39.38 816.5,-72.88"/>
<text xml:space="preserve" text-anchor="start" x="684.75" y="-59.38" font-family="Helvetica,sans-Serif" font-size="10.00">kest_expression_updated</text>
<text xml:space="preserve" text-anchor="middle" x="746.62" y="-46.62" font-family="Helvetica,sans-Serif" font-size="10.00">_in_scope</text>
</a>
</g>
</g>
<!-- Node2 -->
<g id="Node000002" class="node">
<title>Node2</title>
<g id="a_Node000002"><a xlink:href="kest__fpga__encoding_8c.html#a671c5c9aca5f0e8197dbccbc0dd8291c" target="_top" xlink:title=" ">
<polygon fill="white" stroke="#666666" points="640.75,-101.88 504,-101.88 504,-68.38 640.75,-68.38 640.75,-101.88"/>
<text xml:space="preserve" text-anchor="start" x="512" y="-88.38" font-family="Helvetica,sans-Serif" font-size="10.00">kest_fpga_batch_append</text>
<text xml:space="preserve" text-anchor="middle" x="572.38" y="-75.62" font-family="Helvetica,sans-Serif" font-size="10.00">_block_register_updates</text>
</a>
</g>
</g>
<!-- Node1&#45;&gt;Node2 -->
<g id="edge1_Node000001_Node000002" class="edge">
<title>Node1&#45;&gt;Node2</title>
<g id="a_edge1_Node000001_Node000002"><a xlink:title=" ">
<path fill="none" stroke="#63b8ff" d="M665.21,-69.66C657.13,-71.02 648.98,-72.4 641.06,-73.73"/>
<polygon fill="#63b8ff" stroke="#63b8ff" points="665.78,-73.12 675.06,-68 664.62,-66.21 665.78,-73.12"/>
</a>
</g>
</g>
<!-- Node5 -->
<g id="Node000005" class="node">
<title>Node5</title>
<g id="a_Node000005"><a xlink:href="kest__fpga__encoding_8c.html#a64f5333c5ff60101795695bce0de75d5" target="_top" xlink:title=" ">
<polygon fill="white" stroke="#666666" points="640.75,-46.88 504,-46.88 504,-13.38 640.75,-13.38 640.75,-46.88"/>
<text xml:space="preserve" text-anchor="start" x="512" y="-33.38" font-family="Helvetica,sans-Serif" font-size="10.00">kest_fpga_batch_append</text>
<text xml:space="preserve" text-anchor="middle" x="572.38" y="-20.62" font-family="Helvetica,sans-Serif" font-size="10.00">_filter_updates</text>
</a>
</g>
</g>
<!-- Node1&#45;&gt;Node5 -->
<g id="edge4_Node000001_Node000005" class="edge">
<title>Node1&#45;&gt;Node5</title>
<g id="a_edge4_Node000001_Node000005"><a xlink:title=" ">
<path fill="none" stroke="#63b8ff" d="M665.21,-43.99C657.13,-42.77 648.98,-41.54 641.06,-40.34"/>
<polygon fill="#63b8ff" stroke="#63b8ff" points="664.65,-47.44 675.06,-45.47 665.69,-40.52 664.65,-47.44"/>
</a>
</g>
</g>
<!-- Node3 -->
<g id="Node000003" class="node">
<title>Node3</title>
<g id="a_Node000003"><a xlink:href="kest__fpga__encoding_8c.html#a2f82b2c396c41026c378670b04592a6b" target="_top" xlink:title=" ">
<polygon fill="white" stroke="#666666" points="295.25,-110.25 172,-110.25 172,-64 295.25,-64 295.25,-110.25"/>
<text xml:space="preserve" text-anchor="start" x="180" y="-96.75" font-family="Helvetica,sans-Serif" font-size="10.00">kest_fpga_transfer</text>
<text xml:space="preserve" text-anchor="start" x="180" y="-84" font-family="Helvetica,sans-Serif" font-size="10.00">_batch_append_effect</text>
<text xml:space="preserve" text-anchor="middle" x="233.62" y="-71.25" font-family="Helvetica,sans-Serif" font-size="10.00">_register_updates</text>
</a>
</g>
</g>
<!-- Node2&#45;&gt;Node3 -->
<g id="edge2_Node000002_Node000003" class="edge">
<title>Node2&#45;&gt;Node3</title>
<g id="a_edge2_Node000002_Node000003"><a xlink:title=" ">
<path fill="none" stroke="#63b8ff" d="M492.3,-85.59C432.25,-85.95 350.86,-86.43 295.75,-86.76"/>
<polygon fill="#63b8ff" stroke="#63b8ff" points="492.14,-89.1 502.12,-85.54 492.1,-82.1 492.14,-89.1"/>
</a>
</g>
</g>
<!-- Node4 -->
<g id="Node000004" class="node">
<title>Node4</title>
<g id="a_Node000004"><a xlink:href="kest__effect_8c.html#a490655823471fa9f081e6252b13da30e" target="_top" xlink:title=" ">
<polygon fill="white" stroke="#666666" points="136,-65.5 0,-65.5 0,-44.75 136,-44.75 136,-65.5"/>
<text xml:space="preserve" text-anchor="middle" x="68" y="-52" font-family="Helvetica,sans-Serif" font-size="10.00">kest_effect_update_fpga</text>
</a>
</g>
</g>
<!-- Node3&#45;&gt;Node4 -->
<g id="edge3_Node000003_Node000004" class="edge">
<title>Node3&#45;&gt;Node4</title>
<g id="a_edge3_Node000003_Node000004"><a xlink:title=" ">
<path fill="none" stroke="#63b8ff" d="M160.69,-73.06C148.59,-70.69 136.19,-68.26 124.57,-65.99"/>
<polygon fill="#63b8ff" stroke="#63b8ff" points="159.73,-76.43 170.21,-74.92 161.07,-69.56 159.73,-76.43"/>
</a>
</g>
</g>
<!-- Node6 -->
<g id="Node000006" class="node">
<title>Node6</title>
<g id="a_Node000006"><a xlink:href="kest__fpga__encoding_8c.html#ac394803c8e9221fd364038f343070fcb" target="_top" xlink:title=" ">
<polygon fill="white" stroke="#666666" points="468,-40.88 331.25,-40.88 331.25,-7.38 468,-7.38 468,-40.88"/>
<text xml:space="preserve" text-anchor="start" x="339.25" y="-27.38" font-family="Helvetica,sans-Serif" font-size="10.00">kest_fpga_batch_append</text>
<text xml:space="preserve" text-anchor="middle" x="399.62" y="-14.62" font-family="Helvetica,sans-Serif" font-size="10.00">_resource_updates</text>
</a>
</g>
</g>
<!-- Node5&#45;&gt;Node6 -->
<g id="edge5_Node000005_Node000006" class="edge">
<title>Node5&#45;&gt;Node6</title>
<g id="a_edge5_Node000005_Node000006"><a xlink:title=" ">
<path fill="none" stroke="#63b8ff" d="M492.58,-27.36C484.52,-27.07 476.38,-26.79 468.46,-26.51"/>
<polygon fill="#63b8ff" stroke="#63b8ff" points="492.26,-30.85 502.38,-27.7 492.51,-23.85 492.26,-30.85"/>
</a>
</g>
</g>
<!-- Node7 -->
<g id="Node000007" class="node">
<title>Node7</title>
<g id="a_Node000007"><a xlink:href="kest__fpga__encoding_8c.html#a815f4fb2e5a9d1e468df416e3385a638" target="_top" xlink:title=" ">
<polygon fill="white" stroke="#666666" points="295.25,-46.25 172,-46.25 172,0 295.25,0 295.25,-46.25"/>
<text xml:space="preserve" text-anchor="start" x="180" y="-32.75" font-family="Helvetica,sans-Serif" font-size="10.00">kest_fpga_transfer</text>
<text xml:space="preserve" text-anchor="start" x="180" y="-20" font-family="Helvetica,sans-Serif" font-size="10.00">_batch_append_effect</text>
<text xml:space="preserve" text-anchor="middle" x="233.62" y="-7.25" font-family="Helvetica,sans-Serif" font-size="10.00">_resource_updates</text>
</a>
</g>
</g>
<!-- Node6&#45;&gt;Node7 -->
<g id="edge6_Node000006_Node000007" class="edge">
<title>Node6&#45;&gt;Node7</title>
<g id="a_edge6_Node000006_Node000007"><a xlink:title=" ">
<path fill="none" stroke="#63b8ff" d="M319.6,-23.64C311.52,-23.59 303.4,-23.54 295.56,-23.5"/>
<polygon fill="#63b8ff" stroke="#63b8ff" points="319.44,-27.14 329.46,-23.7 319.48,-20.14 319.44,-27.14"/>
</a>
</g>
</g>
<!-- Node7&#45;&gt;Node4 -->
<g id="edge7_Node000007_Node000004" class="edge">
<title>Node7&#45;&gt;Node4</title>
<g id="a_edge7_Node000007_Node000004"><a xlink:title=" ">
<path fill="none" stroke="#63b8ff" d="M160.69,-37.19C148.59,-39.56 136.19,-41.99 124.57,-44.26"/>
<polygon fill="#63b8ff" stroke="#63b8ff" points="161.07,-40.69 170.21,-35.33 159.73,-33.82 161.07,-40.69"/>
</a>
</g>
</g>
</g>
</svg>
