<?xml version="1.0" encoding="UTF-8" standalone="no"?>
<!DOCTYPE svg PUBLIC "-//W3C//DTD SVG 1.1//EN"
 "http://www.w3.org/Graphics/SVG/1.1/DTD/svg11.dtd">
<!-- Generated by graphviz version 13.1.2 (20250808.2320)
 -->
<!-- Title: kest_expression_evaluate Pages: 1 -->
<svg width="1000pt" height="213pt"
 viewBox="0.00 0.00 1000.00 213.00" xmlns="http://www.w3.org/2000/svg" xmlns:xlink="http://www.w3.org/1999/xlink">
<g id="graph0" class="graph" transform="scale(1 1) rotate(0) translate(4 209.12)">
<title>kest_expression_evaluate</title>
<!-- Node1 -->
<g id="Node000001" class="node">
<title>Node1</title>
<g id="a_Node000001"><a xlink:title=" ">
<polygon fill="#999999" stroke="#666666" points="142.75,-90.75 0,-90.75 0,-70 142.75,-70 142.75,-90.75"/>
<text xml:space="preserve" text-anchor="middle" x="71.38" y="-77.25" font-family="Helvetica,sans-Serif" font-size="10.00">kest_expression_evaluate</text>
</a>
</g>
</g>
<!-- Node2 -->
<g id="Node000002" class="node">
<title>Node2</title>
<g id="a_Node000002"><a xlink:href="kest__expression_8c.html#aa4b7d57f1458bb40fc2d8fdab7c605fc" target="_top" xlink:title=" ">
<polygon fill="white" stroke="#666666" points="341.75,-90.75 178.75,-90.75 178.75,-70 341.75,-70 341.75,-90.75"/>
<text xml:space="preserve" text-anchor="middle" x="260.25" y="-77.25" font-family="Helvetica,sans-Serif" font-size="10.00">kest_expression_evaluate_rec</text>
</a>
</g>
</g>
<!-- Node1&#45;&gt;Node2 -->
<g id="edge1_Node000001_Node000002" class="edge">
<title>Node1&#45;&gt;Node2</title>
<g id="a_edge1_Node000001_Node000002"><a xlink:title=" ">
<path fill="none" stroke="#63b8ff" d="M143.02,-80.38C150.89,-80.38 158.99,-80.38 167.08,-80.38"/>
<polygon fill="#63b8ff" stroke="#63b8ff" points="166.96,-83.88 176.96,-80.38 166.96,-76.88 166.96,-83.88"/>
</a>
</g>
</g>
<!-- Node2&#45;&gt;Node2 -->
<g id="edge3_Node000002_Node000002" class="edge">
<title>Node2&#45;&gt;Node2</title>
<g id="a_edge3_Node000002_Node000002"><a xlink:title=" ">
<path fill="none" stroke="#63b8ff" d="M229.82,-91.15C217.64,-99.81 227.79,-108.75 260.25,-108.75 278,-108.75 289.08,-106.08 293.49,-102.24"/>
<polygon fill="#63b8ff" stroke="#63b8ff" points="296.9,-101.45 291.05,-92.61 290.11,-103.17 296.9,-101.45"/>
</a>
</g>
</g>
<!-- Node3 -->
<g id="Node000003" class="node">
<title>Node3</title>
<g id="a_Node000003"><a xlink:href="kest__error__codes_8c.html#a0f4c77127bc0b77264a21104979c576a" target="_top" xlink:title=" ">
<polygon fill="white" stroke="#666666" points="505.5,-205.12 397.25,-205.12 397.25,-171.62 505.5,-171.62 505.5,-205.12"/>
<text xml:space="preserve" text-anchor="start" x="405.25" y="-191.62" font-family="Helvetica,sans-Serif" font-size="10.00">kest_error_code_to</text>
<text xml:space="preserve" text-anchor="middle" x="451.38" y="-178.88" font-family="Helvetica,sans-Serif" font-size="10.00">_string</text>
</a>
</g>
</g>
<!-- Node2&#45;&gt;Node3 -->
<g id="edge2_Node000002_Node000003" class="edge">
<title>Node2&#45;&gt;Node3</title>
<g id="a_edge2_Node000002_Node000003"><a xlink:title=" ">
<path fill="none" stroke="#63b8ff" d="M275.8,-91.24C297.34,-107.03 339.32,-136.69 377.75,-157.38 383.77,-160.62 390.2,-163.77 396.66,-166.75"/>
<polygon fill="#63b8ff" stroke="#63b8ff" points="394.82,-169.76 405.38,-170.65 397.68,-163.37 394.82,-169.76"/>
</a>
</g>
</g>
<!-- Node4 -->
<g id="Node000004" class="node">
<title>Node4</title>
<g id="a_Node000004"><a xlink:href="kest__expression_8c.html#aadf2a6a074cb1ad7b45893704cbd71c3" target="_top" xlink:title=" ">
<polygon fill="white" stroke="#666666" points="670.75,-110.12 561,-110.12 561,-76.62 670.75,-76.62 670.75,-110.12"/>
<text xml:space="preserve" text-anchor="start" x="569" y="-96.62" font-family="Helvetica,sans-Serif" font-size="10.00">kest_expression_to</text>
<text xml:space="preserve" text-anchor="middle" x="615.88" y="-83.88" font-family="Helvetica,sans-Serif" font-size="10.00">_string</text>
</a>
</g>
</g>
<!-- Node2&#45;&gt;Node4 -->
<g id="edge4_Node000002_Node000004" class="edge">
<title>Node2&#45;&gt;Node4</title>
<g id="a_edge4_Node000002_Node000004"><a xlink:title=" ">
<path fill="none" stroke="#63b8ff" d="M341.94,-83.34C404.71,-85.65 490.72,-88.81 549.3,-90.96"/>
<polygon fill="#63b8ff" stroke="#63b8ff" points="549,-94.46 559.12,-91.33 549.26,-87.46 549,-94.46"/>
</a>
</g>
</g>
<!-- Node9 -->
<g id="Node000009" class="node">
<title>Node9</title>
<g id="a_Node000009"><a xlink:href="kest__expression_8c.html#a05276e5a18cc3b52dfc8a17bb101c832" target="_top" xlink:title=" ">
<polygon fill="white" stroke="#666666" points="991.5,-97.75 903.5,-97.75 903.5,-77 991.5,-77 991.5,-97.75"/>
<text xml:space="preserve" text-anchor="middle" x="947.5" y="-84.25" font-family="Helvetica,sans-Serif" font-size="10.00">max_depth_bp</text>
</a>
</g>
</g>
<!-- Node2&#45;&gt;Node9 -->
<g id="edge16_Node000002_Node000009" class="edge">
<title>Node2&#45;&gt;Node9</title>
<g id="a_edge16_Node000002_Node000009"><a xlink:title=" ">
<path fill="none" stroke="#63b8ff" d="M316.22,-91.22C335.61,-94.8 357.6,-98.57 377.75,-101.38 593.58,-131.38 654.8,-171.72 867.5,-124.38 885.7,-120.32 904.67,-111.61 919.45,-103.66"/>
<polygon fill="#63b8ff" stroke="#63b8ff" points="921.08,-106.76 928.09,-98.82 917.65,-100.65 921.08,-106.76"/>
</a>
</g>
</g>
<!-- Node10 -->
<g id="Node000010" class="node">
<title>Node10</title>
<g id="a_Node000010"><a xlink:href="kest__expr__scope_8c.html#ab4b2ce40beae39f7dc02743730a37ec7" target="_top" xlink:title=" ">
<polygon fill="white" stroke="#666666" points="525,-71.75 377.75,-71.75 377.75,-51 525,-51 525,-71.75"/>
<text xml:space="preserve" text-anchor="middle" x="451.38" y="-58.25" font-family="Helvetica,sans-Serif" font-size="10.00">kest_scope_entry_eval_rec</text>
</a>
</g>
</g>
<!-- Node2&#45;&gt;Node10 -->
<g id="edge9_Node000002_Node000010" class="edge">
<title>Node2&#45;&gt;Node10</title>
<g id="a_edge9_Node000002_Node000010"><a xlink:title=" ">
<path fill="none" stroke="#63b8ff" d="M309.46,-69.56C326.75,-67.19 346.79,-64.93 366.23,-63.11"/>
<polygon fill="#63b8ff" stroke="#63b8ff" points="366.43,-66.61 376.08,-62.23 365.81,-59.64 366.43,-66.61"/>
</a>
</g>
</g>
<!-- Node18 -->
<g id="Node000018" class="node">
<title>Node18</title>
<g id="a_Node000018"><a xlink:href="kest__expr__scope_8c.html#a8a0fbd22e0deccdaee632b2a95d4aee5" target="_top" xlink:title=" ">
<polygon fill="white" stroke="#666666" points="501.38,-32.75 401.38,-32.75 401.38,-12 501.38,-12 501.38,-32.75"/>
<text xml:space="preserve" text-anchor="middle" x="451.38" y="-19.25" font-family="Helvetica,sans-Serif" font-size="10.00">kest_scope_fetch</text>
</a>
</g>
</g>
<!-- Node2&#45;&gt;Node18 -->
<g id="edge15_Node000002_Node000018" class="edge">
<title>Node2&#45;&gt;Node18</title>
<g id="a_edge15_Node000002_Node000018"><a xlink:title=" ">
<path fill="none" stroke="#63b8ff" d="M292.77,-69.65C316.14,-61.81 348.82,-51.07 377.75,-42.38 384.57,-40.32 391.78,-38.24 398.9,-36.23"/>
<polygon fill="#63b8ff" stroke="#63b8ff" points="399.79,-39.61 408.49,-33.56 397.91,-32.87 399.79,-39.61"/>
</a>
</g>
</g>
<!-- Node5 -->
<g id="Node000005" class="node">
<title>Node5</title>
<g id="a_Node000005"><a xlink:href="kest__expression_8c.html#a767b50b7ddfa94dc61810dfdcc8feaf0" target="_top" xlink:title=" ">
<polygon fill="#fff0f0" stroke="red" points="858.5,-97.75 715.75,-97.75 715.75,-77 858.5,-77 858.5,-97.75"/>
<text xml:space="preserve" text-anchor="middle" x="787.12" y="-84.25" font-family="Helvetica,sans-Serif" font-size="10.00">kest_expression_print_rec</text>
</a>
</g>
</g>
<!-- Node4&#45;&gt;Node5 -->
<g id="edge5_Node000004_Node000005" class="edge">
<title>Node4&#45;&gt;Node5</title>
<g id="a_edge5_Node000004_Node000005"><a xlink:title=" ">
<path fill="none" stroke="#63b8ff" d="M670.89,-85.12C681.49,-84.45 692.82,-83.91 704.09,-83.54"/>
<polygon fill="#63b8ff" stroke="#63b8ff" points="703.9,-87.04 713.8,-83.26 703.7,-80.05 703.9,-87.04"/>
</a>
</g>
</g>
<!-- Node5&#45;&gt;Node4 -->
<g id="edge7_Node000005_Node000004" class="edge">
<title>Node5&#45;&gt;Node4</title>
<g id="a_edge7_Node000005_Node000004"><a xlink:title=" ">
<path fill="none" stroke="#63b8ff" d="M715.31,-96.55C704.4,-97.07 693.18,-97.44 682.39,-97.65"/>
<polygon fill="#63b8ff" stroke="#63b8ff" points="682.36,-94.15 672.41,-97.78 682.45,-101.15 682.36,-94.15"/>
</a>
</g>
</g>
<!-- Node5&#45;&gt;Node5 -->
<g id="edge6_Node000005_Node000005" class="edge">
<title>Node5&#45;&gt;Node5</title>
<g id="a_edge6_Node000005_Node000005"><a xlink:title=" ">
<path fill="none" stroke="#63b8ff" d="M761.28,-98.15C750.95,-106.81 759.56,-115.75 787.12,-115.75 802.2,-115.75 811.61,-113.08 815.35,-109.24"/>
<polygon fill="#63b8ff" stroke="#63b8ff" points="818.8,-108.67 813.28,-99.63 811.96,-110.14 818.8,-108.67"/>
</a>
</g>
</g>
<!-- Node5&#45;&gt;Node9 -->
<g id="edge8_Node000005_Node000009" class="edge">
<title>Node5&#45;&gt;Node9</title>
<g id="a_edge8_Node000005_Node000009"><a xlink:title=" ">
<path fill="none" stroke="#63b8ff" d="M858.97,-87.38C870.1,-87.38 881.45,-87.38 892.14,-87.38"/>
<polygon fill="#63b8ff" stroke="#63b8ff" points="891.91,-90.88 901.91,-87.38 891.91,-83.88 891.91,-90.88"/>
</a>
</g>
</g>
<!-- Node10&#45;&gt;Node2 -->
<g id="edge10_Node000010_Node000002" class="edge">
<title>Node10&#45;&gt;Node2</title>
<g id="a_edge10_Node000010_Node000002"><a xlink:title=" ">
<path fill="none" stroke="#63b8ff" d="M401.87,-72.23C386.92,-74.27 369.93,-76.24 353.05,-77.9"/>
<polygon fill="#63b8ff" stroke="#63b8ff" points="353.14,-74.38 343.51,-78.8 353.8,-81.34 353.14,-74.38"/>
</a>
</g>
</g>
<!-- Node10&#45;&gt;Node4 -->
<g id="edge11_Node000010_Node000004" class="edge">
<title>Node10&#45;&gt;Node4</title>
<g id="a_edge11_Node000010_Node000004"><a xlink:title=" ">
<path fill="none" stroke="#63b8ff" d="M507.39,-72.21C520.98,-74.88 535.66,-77.78 549.68,-80.54"/>
<polygon fill="#63b8ff" stroke="#63b8ff" points="548.77,-83.92 559.26,-82.42 550.12,-77.06 548.77,-83.92"/>
</a>
</g>
</g>
<!-- Node11 -->
<g id="Node000011" class="node">
<title>Node11</title>
<g id="a_Node000011"><a xlink:href="kest__resource_8c.html#a4607df4fd224fe134f30443caecf4713" target="_top" xlink:title=" ">
<polygon fill="#fff0f0" stroke="red" points="667,-20.75 564.75,-20.75 564.75,0 667,0 667,-20.75"/>
<text xml:space="preserve" text-anchor="middle" x="615.88" y="-7.25" font-family="Helvetica,sans-Serif" font-size="10.00">kest_lfo_evaluate</text>
</a>
</g>
</g>
<!-- Node10&#45;&gt;Node11 -->
<g id="edge12_Node000010_Node000011" class="edge">
<title>Node10&#45;&gt;Node11</title>
<g id="a_edge12_Node000010_Node000011"><a xlink:title=" ">
<path fill="none" stroke="#63b8ff" d="M493.6,-50.51C503.9,-47.66 514.88,-44.51 525,-41.38 541.24,-36.34 558.96,-30.34 574.34,-24.97"/>
<polygon fill="#63b8ff" stroke="#63b8ff" points="575.38,-28.31 583.65,-21.69 573.05,-21.71 575.38,-28.31"/>
</a>
</g>
</g>
<!-- Node14 -->
<g id="Node000014" class="node">
<title>Node14</title>
<g id="a_Node000014"><a xlink:href="kest__parameter_8c.html#a15e6143699061c919fa9882de5b5b7f7" target="_top" xlink:title=" ">
<polygon fill="#fff0f0" stroke="red" points="867.5,-58.75 706.75,-58.75 706.75,-38 867.5,-38 867.5,-58.75"/>
<text xml:space="preserve" text-anchor="middle" x="787.12" y="-45.25" font-family="Helvetica,sans-Serif" font-size="10.00">kest_parameter_evaluate_rec</text>
</a>
</g>
</g>
<!-- Node10&#45;&gt;Node14 -->
<g id="edge13_Node000010_Node000014" class="edge">
<title>Node10&#45;&gt;Node14</title>
<g id="a_edge13_Node000010_Node000014"><a xlink:title=" ">
<path fill="none" stroke="#63b8ff" d="M525.21,-58.54C575.16,-56.59 641.82,-54 695.26,-51.91"/>
<polygon fill="#63b8ff" stroke="#63b8ff" points="695.08,-55.42 704.93,-51.54 694.81,-48.43 695.08,-55.42"/>
</a>
</g>
</g>
<!-- Node14&#45;&gt;Node9 -->
<g id="edge14_Node000014_Node000009" class="edge">
<title>Node14&#45;&gt;Node9</title>
<g id="a_edge14_Node000014_Node000009"><a xlink:title=" ">
<path fill="none" stroke="#63b8ff" d="M832.24,-59.24C850.84,-63.82 872.68,-69.2 892.25,-74.02"/>
<polygon fill="#63b8ff" stroke="#63b8ff" points="891.15,-77.35 901.7,-76.34 892.83,-70.55 891.15,-77.35"/>
</a>
</g>
</g>
</g>
</svg>
