<?xml version="1.0" encoding="UTF-8" standalone="no"?>
<!DOCTYPE svg PUBLIC "-//W3C//DTD SVG 1.1//EN"
 "http://www.w3.org/Graphics/SVG/1.1/DTD/svg11.dtd">
<!-- Generated by graphviz version 13.1.2 (20250808.2320)
 -->
<!-- Title: init_parameter Pages: 1 -->
<svg width="592pt" height="261pt"
 viewBox="0.00 0.00 592.00 261.00" xmlns="http://www.w3.org/2000/svg" xmlns:xlink="http://www.w3.org/1999/xlink">
<g id="graph0" class="graph" transform="scale(1 1) rotate(0) translate(4 256.75)">
<title>init_parameter</title>
<!-- Node1 -->
<g id="Node000001" class="node">
<title>Node1</title>
<g id="a_Node000001"><a xlink:title=" ">
<polygon fill="#999999" stroke="#666666" points="583.75,-87.75 495.75,-87.75 495.75,-67 583.75,-67 583.75,-87.75"/>
<text xml:space="preserve" text-anchor="middle" x="539.75" y="-74.25" font-family="Helvetica,sans-Serif" font-size="10.00">init_parameter</text>
</a>
</g>
</g>
<!-- Node2 -->
<g id="Node000002" class="node">
<title>Node2</title>
<g id="a_Node000002"><a xlink:href="kest__effect_8c.html#a6d9927f6d82c964bd07bef5c77879010" target="_top" xlink:title=" ">
<polygon fill="white" stroke="#666666" points="437.25,-209.75 371.75,-209.75 371.75,-189 437.25,-189 437.25,-209.75"/>
<text xml:space="preserve" text-anchor="middle" x="404.5" y="-196.25" font-family="Helvetica,sans-Serif" font-size="10.00">init_effect</text>
</a>
</g>
</g>
<!-- Node1&#45;&gt;Node2 -->
<g id="edge1_Node000001_Node000002" class="edge">
<title>Node1&#45;&gt;Node2</title>
<g id="a_edge1_Node000001_Node000002"><a xlink:title=" ">
<path fill="none" stroke="#63b8ff" d="M518.59,-95.83C490.32,-121.72 439.81,-167.96 417.11,-188.75"/>
<polygon fill="#63b8ff" stroke="#63b8ff" points="520.8,-98.56 525.81,-89.22 516.07,-93.4 520.8,-98.56"/>
</a>
</g>
</g>
<!-- Node34 -->
<g id="Node000034" class="node">
<title>Node34</title>
<g id="a_Node000034"><a xlink:href="kest__preset_8c.html#a081f5bea4d9dff0740275c4608e75b80" target="_top" xlink:title=" ">
<polygon fill="white" stroke="#666666" points="445.88,-112.75 363.12,-112.75 363.12,-92 445.88,-92 445.88,-112.75"/>
<text xml:space="preserve" text-anchor="middle" x="404.5" y="-99.25" font-family="Helvetica,sans-Serif" font-size="10.00">init_m_preset</text>
</a>
</g>
</g>
<!-- Node1&#45;&gt;Node34 -->
<g id="edge6_Node000001_Node000034" class="edge">
<title>Node1&#45;&gt;Node34</title>
<g id="a_edge6_Node000001_Node000034"><a xlink:title=" ">
<path fill="none" stroke="#63b8ff" d="M484.48,-87.56C471.72,-89.95 458.34,-92.46 446.28,-94.72"/>
<polygon fill="#63b8ff" stroke="#63b8ff" points="484.82,-91.05 494,-85.77 483.53,-84.17 484.82,-91.05"/>
</a>
</g>
</g>
<!-- Node37 -->
<g id="Node000037" class="node">
<title>Node37</title>
<g id="a_Node000037"><a xlink:href="kest__parameter_8c.html#afcc9188cca32abf00e8c9d5028edbb68" target="_top" xlink:title=" ">
<polygon fill="white" stroke="#666666" points="459.75,-68.75 349.25,-68.75 349.25,-48 459.75,-48 459.75,-68.75"/>
<text xml:space="preserve" text-anchor="middle" x="404.5" y="-55.25" font-family="Helvetica,sans-Serif" font-size="10.00">init_parameter_wni</text>
</a>
</g>
</g>
<!-- Node1&#45;&gt;Node37 -->
<g id="edge11_Node000001_Node000037" class="edge">
<title>Node1&#45;&gt;Node37</title>
<g id="a_edge11_Node000001_Node000037"><a xlink:title=" ">
<path fill="none" stroke="#63b8ff" d="M484.14,-69.59C476.25,-68.46 468.12,-67.3 460.22,-66.18"/>
<polygon fill="#63b8ff" stroke="#63b8ff" points="483.6,-73.05 493.99,-70.99 484.58,-66.12 483.6,-73.05"/>
</a>
</g>
</g>
<!-- Node39 -->
<g id="Node000039" class="node">
<title>Node39</title>
<g id="a_Node000039"><a xlink:href="kest__context_8c.html#a8d785a89178c048ac11ee14f2a659993" target="_top" xlink:title=" ">
<polygon fill="white" stroke="#666666" points="454.12,-20.75 354.88,-20.75 354.88,0 454.12,0 454.12,-20.75"/>
<text xml:space="preserve" text-anchor="middle" x="404.5" y="-7.25" font-family="Helvetica,sans-Serif" font-size="10.00">kest_init_context</text>
</a>
</g>
</g>
<!-- Node1&#45;&gt;Node39 -->
<g id="edge13_Node000001_Node000039" class="edge">
<title>Node1&#45;&gt;Node39</title>
<g id="a_edge13_Node000001_Node000039"><a xlink:title=" ">
<path fill="none" stroke="#63b8ff" d="M507.33,-61.58C482.53,-49.11 448.59,-32.04 426.86,-21.11"/>
<polygon fill="#63b8ff" stroke="#63b8ff" points="505.48,-64.57 515.99,-65.93 508.63,-58.31 505.48,-64.57"/>
</a>
</g>
</g>
<!-- Node3 -->
<g id="Node000003" class="node">
<title>Node3</title>
<g id="a_Node000003"><a xlink:href="kest__effect_8c.html#a935977843051ad81db1a153f2956658e" target="_top" xlink:title=" ">
<polygon fill="white" stroke="#666666" points="273.5,-251.75 197.5,-251.75 197.5,-231 273.5,-231 273.5,-251.75"/>
<text xml:space="preserve" text-anchor="middle" x="235.5" y="-238.25" font-family="Helvetica,sans-Serif" font-size="10.00">clone_effect</text>
</a>
</g>
</g>
<!-- Node2&#45;&gt;Node3 -->
<g id="edge2_Node000002_Node000003" class="edge">
<title>Node2&#45;&gt;Node3</title>
<g id="a_edge2_Node000002_Node000003"><a xlink:title=" ">
<path fill="none" stroke="#63b8ff" d="M360.31,-210.24C333.53,-216.97 299.46,-225.54 273.85,-231.98"/>
<polygon fill="#63b8ff" stroke="#63b8ff" points="360.99,-213.68 369.83,-207.84 359.28,-206.89 360.99,-213.68"/>
</a>
</g>
</g>
<!-- Node6 -->
<g id="Node000006" class="node">
<title>Node6</title>
<g id="a_Node000006"><a xlink:href="kest__effect_8c.html#a85b25e44e2629962673634f965ffe304" target="_top" xlink:title=" ">
<polygon fill="white" stroke="#666666" points="313.25,-209.75 157.75,-209.75 157.75,-189 313.25,-189 313.25,-209.75"/>
<text xml:space="preserve" text-anchor="middle" x="235.5" y="-196.25" font-family="Helvetica,sans-Serif" font-size="10.00">init_effect_from_effect_desc</text>
</a>
</g>
</g>
<!-- Node2&#45;&gt;Node6 -->
<g id="edge4_Node000002_Node000006" class="edge">
<title>Node2&#45;&gt;Node6</title>
<g id="a_edge4_Node000002_Node000006"><a xlink:title=" ">
<path fill="none" stroke="#63b8ff" d="M359.9,-199.38C345.71,-199.38 329.51,-199.38 313.61,-199.38"/>
<polygon fill="#63b8ff" stroke="#63b8ff" points="359.79,-202.88 369.79,-199.38 359.79,-195.88 359.79,-202.88"/>
</a>
</g>
</g>
<!-- Node4 -->
<g id="Node000004" class="node">
<title>Node4</title>
<g id="a_Node000004"><a xlink:href="kest__pipeline_8c.html#af22e3efe71ee44cc8dcf5a46af1c05ec" target="_top" xlink:title=" ">
<polygon fill="#fff0f0" stroke="red" points="104.12,-252.75 17.62,-252.75 17.62,-232 104.12,-232 104.12,-252.75"/>
<text xml:space="preserve" text-anchor="middle" x="60.88" y="-239.25" font-family="Helvetica,sans-Serif" font-size="10.00">clone_pipeline</text>
</a>
</g>
</g>
<!-- Node3&#45;&gt;Node4 -->
<g id="edge3_Node000003_Node000004" class="edge">
<title>Node3&#45;&gt;Node4</title>
<g id="a_edge3_Node000003_Node000004"><a xlink:title=" ">
<path fill="none" stroke="#63b8ff" d="M185.71,-241.66C160.1,-241.81 129.03,-241.99 104.42,-242.13"/>
<polygon fill="#63b8ff" stroke="#63b8ff" points="185.55,-245.16 195.53,-241.6 185.51,-238.16 185.55,-245.16"/>
</a>
</g>
</g>
<!-- Node7 -->
<g id="Node000007" class="node">
<title>Node7</title>
<g id="a_Node000007"><a xlink:href="kest__pipeline_8c.html#a0eff55a4103a090993bbac228a981af6" target="_top" xlink:title=" ">
<polygon fill="#fff0f0" stroke="red" points="121.75,-214.12 0,-214.12 0,-180.62 121.75,-180.62 121.75,-214.12"/>
<text xml:space="preserve" text-anchor="start" x="8" y="-200.62" font-family="Helvetica,sans-Serif" font-size="10.00">kest_pipeline_append</text>
<text xml:space="preserve" text-anchor="middle" x="60.88" y="-187.88" font-family="Helvetica,sans-Serif" font-size="10.00">_effect_eff</text>
</a>
</g>
</g>
<!-- Node6&#45;&gt;Node7 -->
<g id="edge5_Node000006_Node000007" class="edge">
<title>Node6&#45;&gt;Node7</title>
<g id="a_edge5_Node000006_Node000007"><a xlink:title=" ">
<path fill="none" stroke="#63b8ff" d="M145.93,-198.35C137.9,-198.26 129.9,-198.16 122.2,-198.07"/>
<polygon fill="#63b8ff" stroke="#63b8ff" points="145.72,-201.85 155.76,-198.46 145.8,-194.85 145.72,-201.85"/>
</a>
</g>
</g>
<!-- Node35 -->
<g id="Node000035" class="node">
<title>Node35</title>
<g id="a_Node000035"><a xlink:href="kest__context_8c.html#af3a105be762be207e79056783ac06e79" target="_top" xlink:title=" ">
<polygon fill="white" stroke="#666666" points="304.25,-170.75 166.75,-170.75 166.75,-150 304.25,-150 304.25,-170.75"/>
<text xml:space="preserve" text-anchor="middle" x="235.5" y="-157.25" font-family="Helvetica,sans-Serif" font-size="10.00">kest_context_add_preset</text>
</a>
</g>
</g>
<!-- Node34&#45;&gt;Node35 -->
<g id="edge7_Node000034_Node000035" class="edge">
<title>Node34&#45;&gt;Node35</title>
<g id="a_edge7_Node000034_Node000035"><a xlink:title=" ">
<path fill="none" stroke="#63b8ff" d="M370.06,-117.81C353.24,-125.22 332.4,-133.89 313.25,-140.38 303.34,-143.73 292.55,-146.86 282.27,-149.6"/>
<polygon fill="#63b8ff" stroke="#63b8ff" points="371.4,-121.04 379.1,-113.77 368.54,-114.65 371.4,-121.04"/>
</a>
</g>
</g>
<!-- Node36 -->
<g id="Node000036" class="node">
<title>Node36</title>
<g id="a_Node000036"><a xlink:href="kest__context_8c.html#a786aa6bf350252b8605783134331a8e3" target="_top" xlink:title=" ">
<polygon fill="white" stroke="#666666" points="311.75,-131.75 159.25,-131.75 159.25,-111 311.75,-111 311.75,-131.75"/>
<text xml:space="preserve" text-anchor="middle" x="235.5" y="-118.25" font-family="Helvetica,sans-Serif" font-size="10.00">kest_context_add_preset_rp</text>
</a>
</g>
</g>
<!-- Node34&#45;&gt;Node36 -->
<g id="edge8_Node000034_Node000036" class="edge">
<title>Node34&#45;&gt;Node36</title>
<g id="a_edge8_Node000034_Node000036"><a xlink:title=" ">
<path fill="none" stroke="#63b8ff" d="M351.53,-108.29C339.05,-109.71 325.46,-111.25 312.14,-112.77"/>
<polygon fill="#63b8ff" stroke="#63b8ff" points="351.6,-111.8 361.14,-107.19 350.81,-104.85 351.6,-111.8"/>
</a>
</g>
</g>
<!-- Node33 -->
<g id="Node000033" class="node">
<title>Node33</title>
<g id="a_Node000033"><a xlink:href="kest__files_8c.html#a94b6bb72bca4b3c7f8f01ba6fa4f8200" target="_top" xlink:title=" ">
<polygon fill="white" stroke="#666666" points="291.88,-92.75 179.12,-92.75 179.12,-72 291.88,-72 291.88,-92.75"/>
<text xml:space="preserve" text-anchor="middle" x="235.5" y="-79.25" font-family="Helvetica,sans-Serif" font-size="10.00">load_saved_presets</text>
</a>
</g>
</g>
<!-- Node34&#45;&gt;Node33 -->
<g id="edge9_Node000034_Node000033" class="edge">
<title>Node34&#45;&gt;Node33</title>
<g id="a_edge9_Node000034_Node000033"><a xlink:title=" ">
<path fill="none" stroke="#63b8ff" d="M351.29,-96.12C332.47,-93.87 311.16,-91.32 292.06,-89.03"/>
<polygon fill="#63b8ff" stroke="#63b8ff" points="350.8,-99.59 361.14,-97.3 351.63,-92.64 350.8,-99.59"/>
</a>
</g>
</g>
<!-- Node13 -->
<g id="Node000013" class="node">
<title>Node13</title>
<g id="a_Node000013"><a xlink:href="kest__init_8c.html#ad1373cd24ac2876b2830d1ad2eb92721" target="_top" xlink:title=" ">
<polygon fill="#fff0f0" stroke="red" points="89.5,-54.75 32.25,-54.75 32.25,-34 89.5,-34 89.5,-54.75"/>
<text xml:space="preserve" text-anchor="middle" x="60.88" y="-41.25" font-family="Helvetica,sans-Serif" font-size="10.00">kest_init</text>
</a>
</g>
</g>
<!-- Node33&#45;&gt;Node13 -->
<g id="edge10_Node000033_Node000013" class="edge">
<title>Node33&#45;&gt;Node13</title>
<g id="a_edge10_Node000033_Node000013"><a xlink:title=" ">
<path fill="none" stroke="#63b8ff" d="M174.34,-69.13C145.68,-62.82 112.77,-55.58 89.99,-50.56"/>
<polygon fill="#63b8ff" stroke="#63b8ff" points="173.5,-72.53 184.02,-71.26 175,-65.69 173.5,-72.53"/>
</a>
</g>
</g>
<!-- Node38 -->
<g id="Node000038" class="node">
<title>Node38</title>
<g id="a_Node000038"><a xlink:href="kest__parameter_8c.html#ae4e1091e0702399354b9fe2b66aff7e5" target="_top" xlink:title=" ">
<polygon fill="white" stroke="#666666" points="300.5,-53.75 170.5,-53.75 170.5,-33 300.5,-33 300.5,-53.75"/>
<text xml:space="preserve" text-anchor="middle" x="235.5" y="-40.25" font-family="Helvetica,sans-Serif" font-size="10.00">new_m_parameter_wni</text>
</a>
</g>
</g>
<!-- Node37&#45;&gt;Node38 -->
<g id="edge12_Node000037_Node000038" class="edge">
<title>Node37&#45;&gt;Node38</title>
<g id="a_edge12_Node000037_Node000038"><a xlink:title=" ">
<path fill="none" stroke="#63b8ff" d="M337.47,-52.44C325.43,-51.36 312.88,-50.24 300.89,-49.16"/>
<polygon fill="#63b8ff" stroke="#63b8ff" points="337.04,-55.92 347.31,-53.33 337.66,-48.95 337.04,-55.92"/>
</a>
</g>
</g>
<!-- Node39&#45;&gt;Node13 -->
<g id="edge14_Node000039_Node000013" class="edge">
<title>Node39&#45;&gt;Node13</title>
<g id="a_edge14_Node000039_Node000013"><a xlink:title=" ">
<path fill="none" stroke="#63b8ff" d="M343.58,-11.3C293.67,-12.67 220.83,-16.05 157.75,-24.38 134.66,-27.42 108.82,-32.94 89.79,-37.4"/>
<polygon fill="#63b8ff" stroke="#63b8ff" points="343.38,-14.81 353.29,-11.06 343.21,-7.81 343.38,-14.81"/>
</a>
</g>
</g>
</g>
</svg>
