<?xml version="1.0" encoding="UTF-8" standalone="no"?>
<!DOCTYPE svg PUBLIC "-//W3C//DTD SVG 1.1//EN"
 "http://www.w3.org/Graphics/SVG/1.1/DTD/svg11.dtd">
<!-- Generated by graphviz version 13.1.2 (20250808.2320)
 -->
<!-- Title: kest_expression_get_references Pages: 1 -->
<!--zoomable 380 -->

<svg id="main" version="1.1" xmlns="http://www.w3.org/2000/svg" xmlns:xlink="http://www.w3.org/1999/xlink" xml:space="preserve" onload="init(evt)">

<style type="text/css"><![CDATA[
.node, .edge {opacity: 0.7;}
.node.selected, .edge.selected {opacity: 1;}
.edge:hover path { stroke: red; }
.edge:hover polygon { stroke: red; fill: red; }
]]></style>

<defs>
  <circle id="rim" cx="0" cy="0" r="7"/>
  <circle id="rim2" cx="0" cy="0" r="3.5"/>
  <g id="zoomPlus">
    <use xlink:href="#rim" fill="#404040"><set attributeName="fill" to="#808080" begin="zoomplus.mouseover" end="zoomplus.mouseout"/></use>
    <path d="M-4,0h8M0,-4v8" fill="none" stroke="white" stroke-width="1.5" pointer-events="none"/>
  </g>
  <g id="zoomMin">
    <use xlink:href="#rim" fill="#404040"><set attributeName="fill" to="#808080" begin="zoomminus.mouseover" end="zoomminus.mouseout"/></use>
    <path d="M-4,0h8" fill="none" stroke="white" stroke-width="1.5" pointer-events="none"/>
  </g>
  <g id="arrowUp" transform="translate(30 24)">
    <use xlink:href="#rim"/>
    <path pointer-events="none" fill="none" stroke="white" stroke-width="1.5" d="M0,-3.0v7 M-2.5,-0.5L0,-3.0L2.5,-0.5"/>
  </g>
  <g id="arrowRight" transform="rotate(90) translate(36 -43)">
    <use xlink:href="#rim"/>
    <path pointer-events="none" fill="none" stroke="white" stroke-width="1.5" d="M0,-3.0v7 M-2.5,-0.5L0,-3.0L2.5,-0.5"/>
  </g>
  <g id="arrowDown" transform="rotate(180) translate(-30 -48)">
    <use xlink:href="#rim"/>
    <path pointer-events="none" fill="none" stroke="white" stroke-width="1.5" d="M0,-3.0v7 M-2.5,-0.5L0,-3.0L2.5,-0.5"/>
  </g>
  <g id="arrowLeft" transform="rotate(270) translate(-36 17)">
    <use xlink:href="#rim"/>
    <path pointer-events="none" fill="none" stroke="white" stroke-width="1.5" d="M0,-3.0v7 M-2.5,-0.5L0,-3.0L2.5,-0.5"/>
  </g>
  <g id="resetDef">
    <use xlink:href="#rim2" fill="#404040"><set attributeName="fill" to="#808080" begin="reset.mouseover" end="reset.mouseout"/></use>
  </g>
</defs>
<script type="application/ecmascript">
var viewWidth = 875;
var viewHeight = 380;
var sectionId = 'dynsection-69';
</script>
<script type="application/ecmascript" xlink:href="svg.min.js"/>
<svg id="graph" class="graph">
<g id="viewport">
<title>kest_expression_get_references</title>
<!-- Node1 -->
<g id="Node000001" class="node">
<title>Node1</title>
<g id="a_Node000001"><a xlink:title=" ">
<polygon fill="#999999" stroke="#666666" points="866.75,-130.5 751,-130.5 751,-97 866.75,-97 866.75,-130.5"/>
<text xml:space="preserve" text-anchor="start" x="759" y="-117" font-family="Helvetica,sans-Serif" font-size="10.00">kest_expression_get</text>
<text xml:space="preserve" text-anchor="middle" x="808.88" y="-104.25" font-family="Helvetica,sans-Serif" font-size="10.00">_references</text>
</a>
</g>
</g>
<!-- Node2 -->
<g id="Node000002" class="node">
<title>Node2</title>
<g id="a_Node000002"><a xlink:href="kest__expression_8c.html#a06fc3d0394cad5e965de056f7af84b72" target="_top" xlink:title=" ">
<polygon fill="white" stroke="#666666" points="695.5,-197.5 555.75,-197.5 555.75,-164 695.5,-164 695.5,-197.5"/>
<text xml:space="preserve" text-anchor="start" x="563.75" y="-184" font-family="Helvetica,sans-Serif" font-size="10.00">kest_expression_updated</text>
<text xml:space="preserve" text-anchor="middle" x="625.62" y="-171.25" font-family="Helvetica,sans-Serif" font-size="10.00">_in_scope</text>
</a>
</g>
</g>
<!-- Node1&#45;&gt;Node2 -->
<g id="edge1_Node000001_Node000002" class="edge">
<title>Node1&#45;&gt;Node2</title>
<g id="a_edge1_Node000001_Node000002"><a xlink:title=" ">
<path fill="none" stroke="#63b8ff" d="M751.18,-134.71C726.05,-144 696.87,-154.79 673.06,-163.58"/>
<polygon fill="#63b8ff" stroke="#63b8ff" points="752.08,-138.11 760.25,-131.36 749.66,-131.54 752.08,-138.11"/>
</a>
</g>
</g>
<!-- Node74 -->
<g id="Node000074" class="node">
<title>Node74</title>
<g id="a_Node000074"><a xlink:href="kest__expr__scope_8c.html#a62815d9489a1f274ff62875d9c3e53e1" target="_top" xlink:title=" ">
<polygon fill="white" stroke="#666666" points="688,-130.5 563.25,-130.5 563.25,-97 688,-97 688,-130.5"/>
<text xml:space="preserve" text-anchor="start" x="571.25" y="-117" font-family="Helvetica,sans-Serif" font-size="10.00">kest_scope_add_block</text>
<text xml:space="preserve" text-anchor="middle" x="625.62" y="-104.25" font-family="Helvetica,sans-Serif" font-size="10.00">_reg_dependencies</text>
</a>
</g>
</g>
<!-- Node1&#45;&gt;Node74 -->
<g id="edge15_Node000001_Node000074" class="edge">
<title>Node1&#45;&gt;Node74</title>
<g id="a_edge15_Node000001_Node000074"><a xlink:title=" ">
<path fill="none" stroke="#63b8ff" d="M739.15,-113.75C722.44,-113.75 704.67,-113.75 688.3,-113.75"/>
<polygon fill="#63b8ff" stroke="#63b8ff" points="739.01,-117.25 749.01,-113.75 739.01,-110.25 739.01,-117.25"/>
</a>
</g>
</g>
<!-- Node79 -->
<g id="Node000079" class="node">
<title>Node79</title>
<g id="a_Node000079"><a xlink:href="kest__expr__scope_8c.html#ab954da49064df7635bd107423cd9ebf0" target="_top" xlink:title=" ">
<polygon fill="white" stroke="#666666" points="686.5,-78.5 564.75,-78.5 564.75,-45 686.5,-45 686.5,-78.5"/>
<text xml:space="preserve" text-anchor="start" x="572.75" y="-65" font-family="Helvetica,sans-Serif" font-size="10.00">kest_scope_add_filter</text>
<text xml:space="preserve" text-anchor="middle" x="625.62" y="-52.25" font-family="Helvetica,sans-Serif" font-size="10.00">_coef_dependencies</text>
</a>
</g>
</g>
<!-- Node1&#45;&gt;Node79 -->
<g id="edge18_Node000001_Node000079" class="edge">
<title>Node1&#45;&gt;Node79</title>
<g id="a_edge18_Node000001_Node000079"><a xlink:title=" ">
<path fill="none" stroke="#63b8ff" d="M739.84,-94.23C722.39,-89.22 703.75,-83.88 686.73,-78.99"/>
<polygon fill="#63b8ff" stroke="#63b8ff" points="738.49,-97.49 749.07,-96.88 740.42,-90.76 738.49,-97.49"/>
</a>
</g>
</g>
<!-- Node80 -->
<g id="Node000080" class="node">
<title>Node80</title>
<g id="a_Node000080"><a xlink:href="kest__expr__scope_8c.html#a8042b7711c05856ef5755963535b68f8" target="_top" xlink:title=" ">
<polygon fill="white" stroke="#666666" points="715,-27.12 536.25,-27.12 536.25,-6.38 715,-6.38 715,-27.12"/>
<text xml:space="preserve" text-anchor="middle" x="625.62" y="-13.62" font-family="Helvetica,sans-Serif" font-size="10.00">kest_scope_detect_dependencies</text>
</a>
</g>
</g>
<!-- Node1&#45;&gt;Node80 -->
<g id="edge20_Node000001_Node000080" class="edge">
<title>Node1&#45;&gt;Node80</title>
<g id="a_edge20_Node000001_Node000080"><a xlink:title=" ">
<path fill="none" stroke="#63b8ff" d="M784.61,-88.55C767.11,-71.12 741.65,-48.8 715,-35.75 708.38,-32.51 701.2,-29.82 693.91,-27.58"/>
<polygon fill="#63b8ff" stroke="#63b8ff" points="781.98,-90.87 791.47,-95.57 786.98,-85.97 781.98,-90.87"/>
</a>
</g>
</g>
<!-- Node82 -->
<g id="Node000082" class="node">
<title>Node82</title>
<g id="a_Node000082"><a xlink:href="kest__expr__scope_8c.html#a38b63c16b3979ad26c30a0dc0b73e96a" target="_top" xlink:title=" ">
<polygon fill="white" stroke="#666666" points="688,-282.5 563.25,-282.5 563.25,-249 688,-249 688,-282.5"/>
<text xml:space="preserve" text-anchor="start" x="571.25" y="-269" font-family="Helvetica,sans-Serif" font-size="10.00">kest_scope_propagate</text>
<text xml:space="preserve" text-anchor="middle" x="625.62" y="-256.25" font-family="Helvetica,sans-Serif" font-size="10.00">_updates</text>
</a>
</g>
</g>
<!-- Node1&#45;&gt;Node82 -->
<g id="edge23_Node000001_Node000082" class="edge">
<title>Node1&#45;&gt;Node82</title>
<g id="a_edge23_Node000001_Node000082"><a xlink:title=" ">
<path fill="none" stroke="#63b8ff" d="M784.99,-139.27C766.91,-158.78 740.54,-185.78 715,-206.75 696.18,-222.2 673.27,-237.4 655.49,-248.51"/>
<polygon fill="#63b8ff" stroke="#63b8ff" points="787.48,-141.74 791.66,-132 782.32,-137.01 787.48,-141.74"/>
</a>
</g>
</g>
<!-- Node3 -->
<g id="Node000003" class="node">
<title>Node3</title>
<g id="a_Node000003"><a xlink:href="kest__fpga__encoding_8c.html#a671c5c9aca5f0e8197dbccbc0dd8291c" target="_top" xlink:title=" ">
<polygon fill="white" stroke="#666666" points="500.25,-213.5 363.5,-213.5 363.5,-180 500.25,-180 500.25,-213.5"/>
<text xml:space="preserve" text-anchor="start" x="371.5" y="-200" font-family="Helvetica,sans-Serif" font-size="10.00">kest_fpga_batch_append</text>
<text xml:space="preserve" text-anchor="middle" x="431.88" y="-187.25" font-family="Helvetica,sans-Serif" font-size="10.00">_block_register_updates</text>
</a>
</g>
</g>
<!-- Node2&#45;&gt;Node3 -->
<g id="edge2_Node000002_Node000003" class="edge">
<title>Node2&#45;&gt;Node3</title>
<g id="a_edge2_Node000002_Node000003"><a xlink:title=" ">
<path fill="none" stroke="#63b8ff" d="M543.98,-187.48C529.58,-188.68 514.71,-189.92 500.71,-191.09"/>
<polygon fill="#63b8ff" stroke="#63b8ff" points="544.22,-190.97 553.89,-186.65 543.63,-184 544.22,-190.97"/>
</a>
</g>
</g>
<!-- Node68 -->
<g id="Node000068" class="node">
<title>Node68</title>
<g id="a_Node000068"><a xlink:href="kest__fpga__encoding_8c.html#a64f5333c5ff60101795695bce0de75d5" target="_top" xlink:title=" ">
<polygon fill="white" stroke="#666666" points="500.25,-272.5 363.5,-272.5 363.5,-239 500.25,-239 500.25,-272.5"/>
<text xml:space="preserve" text-anchor="start" x="371.5" y="-259" font-family="Helvetica,sans-Serif" font-size="10.00">kest_fpga_batch_append</text>
<text xml:space="preserve" text-anchor="middle" x="431.88" y="-246.25" font-family="Helvetica,sans-Serif" font-size="10.00">_filter_updates</text>
</a>
</g>
</g>
<!-- Node2&#45;&gt;Node68 -->
<g id="edge10_Node000002_Node000068" class="edge">
<title>Node2&#45;&gt;Node68</title>
<g id="a_edge10_Node000002_Node000068"><a xlink:title=" ">
<path fill="none" stroke="#63b8ff" d="M570.05,-202.09C540.47,-213.67 504.39,-227.78 476.66,-238.62"/>
<polygon fill="#63b8ff" stroke="#63b8ff" points="571.19,-205.41 579.22,-198.51 568.64,-198.89 571.19,-205.41"/>
</a>
</g>
</g>
<!-- Node72 -->
<g id="Node000072" class="node">
<title>Node72</title>
<g id="a_Node000072"><a xlink:href="kest__parameter_8c.html#a80e7c7340cbf7761079c74350fe8a98d" target="_top" xlink:title=" ">
<polygon fill="white" stroke="#666666" points="496.12,-161.5 367.62,-161.5 367.62,-128 496.12,-128 496.12,-161.5"/>
<text xml:space="preserve" text-anchor="start" x="375.62" y="-148" font-family="Helvetica,sans-Serif" font-size="10.00">kest_parameter_detect</text>
<text xml:space="preserve" text-anchor="middle" x="431.88" y="-135.25" font-family="Helvetica,sans-Serif" font-size="10.00">_bounds_updates</text>
</a>
</g>
</g>
<!-- Node2&#45;&gt;Node72 -->
<g id="edge12_Node000002_Node000072" class="edge">
<title>Node2&#45;&gt;Node72</title>
<g id="a_edge12_Node000002_Node000072"><a xlink:title=" ">
<path fill="none" stroke="#63b8ff" d="M544.46,-165.7C528.48,-162.7 511.91,-159.59 496.58,-156.71"/>
<polygon fill="#63b8ff" stroke="#63b8ff" points="543.44,-169.07 553.91,-167.47 544.73,-162.19 543.44,-169.07"/>
</a>
</g>
</g>
<!-- Node4 -->
<g id="Node000004" class="node">
<title>Node4</title>
<g id="a_Node000004"><a xlink:href="kest__fpga__encoding_8c.html#a2f82b2c396c41026c378670b04592a6b" target="_top" xlink:title=" ">
<polygon fill="white" stroke="#666666" points="311.38,-165.88 188.12,-165.88 188.12,-119.62 311.38,-119.62 311.38,-165.88"/>
<text xml:space="preserve" text-anchor="start" x="196.12" y="-152.38" font-family="Helvetica,sans-Serif" font-size="10.00">kest_fpga_transfer</text>
<text xml:space="preserve" text-anchor="start" x="196.12" y="-139.62" font-family="Helvetica,sans-Serif" font-size="10.00">_batch_append_effect</text>
<text xml:space="preserve" text-anchor="middle" x="249.75" y="-126.88" font-family="Helvetica,sans-Serif" font-size="10.00">_register_updates</text>
</a>
</g>
</g>
<!-- Node3&#45;&gt;Node4 -->
<g id="edge3_Node000003_Node000004" class="edge">
<title>Node3&#45;&gt;Node4</title>
<g id="a_edge3_Node000003_Node000004"><a xlink:title=" ">
<path fill="none" stroke="#63b8ff" d="M362.58,-176.28C345.86,-171.26 328.08,-165.93 311.73,-161.03"/>
<polygon fill="#63b8ff" stroke="#63b8ff" points="361.35,-179.56 371.94,-179.08 363.36,-172.86 361.35,-179.56"/>
</a>
</g>
</g>
<!-- Node5 -->
<g id="Node000005" class="node">
<title>Node5</title>
<g id="a_Node000005"><a xlink:href="kest__fpga__encoding_8c.html#aa84abb65bd141dfd5df4c221f024a3db" target="_top" xlink:title=" ">
<polygon fill="white" stroke="#666666" points="311.38,-229.88 188.12,-229.88 188.12,-183.62 311.38,-183.62 311.38,-229.88"/>
<text xml:space="preserve" text-anchor="start" x="196.12" y="-216.38" font-family="Helvetica,sans-Serif" font-size="10.00">kest_fpga_transfer</text>
<text xml:space="preserve" text-anchor="start" x="196.12" y="-203.62" font-family="Helvetica,sans-Serif" font-size="10.00">_batch_append_effect</text>
<text xml:space="preserve" text-anchor="middle" x="249.75" y="-190.88" font-family="Helvetica,sans-Serif" font-size="10.00">_register_updates_</text>
</a>
</g>
</g>
<!-- Node3&#45;&gt;Node5 -->
<g id="edge4_Node000003_Node000005" class="edge">
<title>Node3&#45;&gt;Node5</title>
<g id="a_edge4_Node000003_Node000005"><a xlink:title=" ">
<path fill="none" stroke="#63b8ff" d="M351.84,-201.14C338.39,-201.88 324.61,-202.65 311.72,-203.37"/>
<polygon fill="#63b8ff" stroke="#63b8ff" points="351.73,-204.65 361.52,-200.6 351.34,-197.66 351.73,-204.65"/>
</a>
</g>
</g>
<!-- Node6 -->
<g id="Node000006" class="node">
<title>Node6</title>
<g id="a_Node000006"><a xlink:href="kest__effect_8c.html#a288d2643ff7af914502102475595ed8f" target="_top" xlink:title=" ">
<polygon fill="#fff0f0" stroke="red" points="122.12,-371.5 13.88,-371.5 13.88,-338 122.12,-338 122.12,-371.5"/>
<text xml:space="preserve" text-anchor="start" x="21.88" y="-358" font-family="Helvetica,sans-Serif" font-size="10.00">kest_effect_handle</text>
<text xml:space="preserve" text-anchor="middle" x="68" y="-345.25" font-family="Helvetica,sans-Serif" font-size="10.00">_updates</text>
</a>
</g>
</g>
<!-- Node5&#45;&gt;Node6 -->
<g id="edge5_Node000005_Node000006" class="edge">
<title>Node5&#45;&gt;Node6</title>
<g id="a_edge5_Node000005_Node000006"><a xlink:title=" ">
<path fill="none" stroke="#63b8ff" d="M178.54,-232.92C176.23,-234.74 174.04,-236.68 172,-238.75 141.76,-269.43 166.62,-298.44 136,-328.75 132.01,-332.7 127.35,-336.06 122.38,-338.93"/>
<polygon fill="#63b8ff" stroke="#63b8ff" points="180.43,-235.87 186.71,-227.33 176.48,-230.09 180.43,-235.87"/>
</a>
</g>
</g>
<!-- Node10 -->
<g id="Node000010" class="node">
<title>Node10</title>
<g id="a_Node000010"><a xlink:href="kest__effect_8c.html#ad5745ec5888a0568782154fb4f8adfee" target="_top" xlink:title=" ">
<polygon fill="#fff0f0" stroke="red" points="122.12,-165.5 13.88,-165.5 13.88,-132 122.12,-132 122.12,-165.5"/>
<text xml:space="preserve" text-anchor="start" x="21.88" y="-152" font-family="Helvetica,sans-Serif" font-size="10.00">kest_effect_handle</text>
<text xml:space="preserve" text-anchor="middle" x="68" y="-139.25" font-family="Helvetica,sans-Serif" font-size="10.00">_updates_inc_ui</text>
</a>
</g>
</g>
<!-- Node5&#45;&gt;Node10 -->
<g id="edge6_Node000005_Node000010" class="edge">
<title>Node5&#45;&gt;Node10</title>
<g id="a_edge6_Node000005_Node000010"><a xlink:title=" ">
<path fill="none" stroke="#63b8ff" d="M176.8,-183.53C158.65,-177.68 139.48,-171.49 122.42,-165.99"/>
<polygon fill="#63b8ff" stroke="#63b8ff" points="175.61,-186.83 186.2,-186.57 177.76,-180.17 175.61,-186.83"/>
</a>
</g>
</g>
<!-- Node11 -->
<g id="Node000011" class="node">
<title>Node11</title>
<g id="a_Node000011"><a xlink:href="kest__effect_8c.html#a490655823471fa9f081e6252b13da30e" target="_top" xlink:title=" ">
<polygon fill="white" stroke="#666666" points="136,-320.12 0,-320.12 0,-299.38 136,-299.38 136,-320.12"/>
<text xml:space="preserve" text-anchor="middle" x="68" y="-306.62" font-family="Helvetica,sans-Serif" font-size="10.00">kest_effect_update_fpga</text>
</a>
</g>
</g>
<!-- Node5&#45;&gt;Node11 -->
<g id="edge7_Node000005_Node000011" class="edge">
<title>Node5&#45;&gt;Node11</title>
<g id="a_edge7_Node000005_Node000011"><a xlink:title=" ">
<path fill="none" stroke="#63b8ff" d="M178.13,-234.19C176.01,-235.65 173.96,-237.16 172,-238.75 150.15,-256.43 158.86,-274.4 136,-290.75 131.48,-293.99 126.41,-296.67 121.15,-298.9"/>
<polygon fill="#63b8ff" stroke="#63b8ff" points="179.83,-237.26 186.5,-229.03 176.15,-231.3 179.83,-237.26"/>
</a>
</g>
</g>
<!-- Node12 -->
<g id="Node000012" class="node">
<title>Node12</title>
<g id="a_Node000012"><a xlink:href="kest__effect_8c.html#acd72b0b8d69b207a12265887b06fc7f9" target="_top" xlink:title=" ">
<polygon fill="white" stroke="#666666" points="122.5,-281.5 13.5,-281.5 13.5,-248 122.5,-248 122.5,-281.5"/>
<text xml:space="preserve" text-anchor="start" x="21.5" y="-268" font-family="Helvetica,sans-Serif" font-size="10.00">kest_effect_update</text>
<text xml:space="preserve" text-anchor="middle" x="68" y="-255.25" font-family="Helvetica,sans-Serif" font-size="10.00">_sync_no_pw</text>
</a>
</g>
</g>
<!-- Node5&#45;&gt;Node12 -->
<g id="edge8_Node000005_Node000012" class="edge">
<title>Node5&#45;&gt;Node12</title>
<g id="a_edge8_Node000005_Node000012"><a xlink:title=" ">
<path fill="none" stroke="#63b8ff" d="M176.8,-229.97C158.65,-235.82 139.48,-242.01 122.42,-247.51"/>
<polygon fill="#63b8ff" stroke="#63b8ff" points="177.76,-233.33 186.2,-226.93 175.61,-226.67 177.76,-233.33"/>
</a>
</g>
</g>
<!-- Node13 -->
<g id="Node000013" class="node">
<title>Node13</title>
<g id="a_Node000013"><a xlink:href="kest__fpga__encoding_8c.html#a88e143203d90d22159a81888f02b3c11" target="_top" xlink:title=" ">
<polygon fill="#fff0f0" stroke="red" points="129.62,-229.88 6.38,-229.88 6.38,-183.62 129.62,-183.62 129.62,-229.88"/>
<text xml:space="preserve" text-anchor="start" x="14.38" y="-216.38" font-family="Helvetica,sans-Serif" font-size="10.00">kest_fpga_transfer</text>
<text xml:space="preserve" text-anchor="start" x="14.38" y="-203.62" font-family="Helvetica,sans-Serif" font-size="10.00">_batch_append_effect</text>
<text xml:space="preserve" text-anchor="middle" x="68" y="-190.88" font-family="Helvetica,sans-Serif" font-size="10.00">_updates</text>
</a>
</g>
</g>
<!-- Node5&#45;&gt;Node13 -->
<g id="edge9_Node000005_Node000013" class="edge">
<title>Node5&#45;&gt;Node13</title>
<g id="a_edge9_Node000005_Node000013"><a xlink:title=" ">
<path fill="none" stroke="#63b8ff" d="M176.55,-206.75C161.09,-206.75 144.92,-206.75 129.94,-206.75"/>
<polygon fill="#63b8ff" stroke="#63b8ff" points="176.13,-210.25 186.13,-206.75 176.13,-203.25 176.13,-210.25"/>
</a>
</g>
</g>
<!-- Node69 -->
<g id="Node000069" class="node">
<title>Node69</title>
<g id="a_Node000069"><a xlink:href="kest__fpga__encoding_8c.html#ac394803c8e9221fd364038f343070fcb" target="_top" xlink:title=" ">
<polygon fill="#fff0f0" stroke="red" points="318.12,-281.5 181.38,-281.5 181.38,-248 318.12,-248 318.12,-281.5"/>
<text xml:space="preserve" text-anchor="start" x="189.38" y="-268" font-family="Helvetica,sans-Serif" font-size="10.00">kest_fpga_batch_append</text>
<text xml:space="preserve" text-anchor="middle" x="249.75" y="-255.25" font-family="Helvetica,sans-Serif" font-size="10.00">_resource_updates</text>
</a>
</g>
</g>
<!-- Node68&#45;&gt;Node69 -->
<g id="edge11_Node000068_Node000069" class="edge">
<title>Node68&#45;&gt;Node69</title>
<g id="a_edge11_Node000068_Node000069"><a xlink:title=" ">
<path fill="none" stroke="#63b8ff" d="M351.64,-259.71C340.6,-260.26 329.33,-260.82 318.53,-261.36"/>
<polygon fill="#63b8ff" stroke="#63b8ff" points="351.71,-263.21 361.52,-259.22 351.36,-256.22 351.71,-263.21"/>
</a>
</g>
</g>
<!-- Node73 -->
<g id="Node000073" class="node">
<title>Node73</title>
<g id="a_Node000073"><a xlink:href="kest__effect_8c.html#aaa3210f4367cd577e69d0eccbf639fbf" target="_top" xlink:title=" ">
<polygon fill="white" stroke="#666666" points="316.62,-101.12 182.88,-101.12 182.88,-80.38 316.62,-80.38 316.62,-101.12"/>
<text xml:space="preserve" text-anchor="middle" x="249.75" y="-87.62" font-family="Helvetica,sans-Serif" font-size="10.00">kest_effect_update_pws</text>
</a>
</g>
</g>
<!-- Node72&#45;&gt;Node73 -->
<g id="edge13_Node000072_Node000073" class="edge">
<title>Node72&#45;&gt;Node73</title>
<g id="a_edge13_Node000072_Node000073"><a xlink:title=" ">
<path fill="none" stroke="#63b8ff" d="M369.72,-123.93C355.88,-119.42 341.23,-114.79 327.5,-110.75 316.8,-107.6 305.19,-104.44 294.31,-101.59"/>
<polygon fill="#63b8ff" stroke="#63b8ff" points="368.57,-127.24 379.16,-127.04 370.75,-120.59 368.57,-127.24"/>
</a>
</g>
</g>
<!-- Node73&#45;&gt;Node10 -->
<g id="edge14_Node000073_Node000010" class="edge">
<title>Node73&#45;&gt;Node10</title>
<g id="a_edge14_Node000073_Node000010"><a xlink:title=" ">
<path fill="none" stroke="#63b8ff" d="M193.42,-104.47C186.18,-106.47 178.89,-108.59 172,-110.75 152.36,-116.92 130.96,-124.64 112.78,-131.52"/>
<polygon fill="#63b8ff" stroke="#63b8ff" points="194.09,-107.91 202.84,-101.93 192.27,-101.16 194.09,-107.91"/>
</a>
</g>
</g>
<!-- Node75 -->
<g id="Node000075" class="node">
<title>Node75</title>
<g id="a_Node000075"><a xlink:href="kest__effect_8c.html#a85b25e44e2629962673634f965ffe304" target="_top" xlink:title=" ">
<polygon fill="white" stroke="#666666" points="327.5,-62.12 172,-62.12 172,-41.38 327.5,-41.38 327.5,-62.12"/>
<text xml:space="preserve" text-anchor="middle" x="249.75" y="-48.62" font-family="Helvetica,sans-Serif" font-size="10.00">init_effect_from_effect_desc</text>
</a>
</g>
</g>
<!-- Node74&#45;&gt;Node75 -->
<g id="edge16_Node000074_Node000075" class="edge">
<title>Node74&#45;&gt;Node75</title>
<g id="a_edge16_Node000074_Node000075"><a xlink:title=" ">
<path fill="none" stroke="#63b8ff" d="M551.69,-101.81C499.31,-93.23 427.04,-81.34 363.5,-70.75 347.74,-68.12 330.74,-65.27 314.84,-62.59"/>
<polygon fill="#63b8ff" stroke="#63b8ff" points="550.96,-105.24 561.39,-103.41 552.09,-98.33 550.96,-105.24"/>
</a>
</g>
</g>
<!-- Node76 -->
<g id="Node000076" class="node">
<title>Node76</title>
<g id="a_Node000076"><a xlink:href="kest__pipeline_8c.html#a0eff55a4103a090993bbac228a981af6" target="_top" xlink:title=" ">
<polygon fill="#fff0f0" stroke="red" points="128.88,-68.5 7.12,-68.5 7.12,-35 128.88,-35 128.88,-68.5"/>
<text xml:space="preserve" text-anchor="start" x="15.12" y="-55" font-family="Helvetica,sans-Serif" font-size="10.00">kest_pipeline_append</text>
<text xml:space="preserve" text-anchor="middle" x="68" y="-42.25" font-family="Helvetica,sans-Serif" font-size="10.00">_effect_eff</text>
</a>
</g>
</g>
<!-- Node75&#45;&gt;Node76 -->
<g id="edge17_Node000075_Node000076" class="edge">
<title>Node75&#45;&gt;Node76</title>
<g id="a_edge17_Node000075_Node000076"><a xlink:title=" ">
<path fill="none" stroke="#63b8ff" d="M160.36,-51.75C149.84,-51.75 139.29,-51.75 129.29,-51.75"/>
<polygon fill="#63b8ff" stroke="#63b8ff" points="160.22,-55.25 170.22,-51.75 160.22,-48.25 160.22,-55.25"/>
</a>
</g>
</g>
<!-- Node79&#45;&gt;Node75 -->
<g id="edge19_Node000079_Node000075" class="edge">
<title>Node79&#45;&gt;Node75</title>
<g id="a_edge19_Node000079_Node000075"><a xlink:title=" ">
<path fill="none" stroke="#63b8ff" d="M553.28,-59.84C488.78,-58.12 394.07,-55.58 327.85,-53.81"/>
<polygon fill="#63b8ff" stroke="#63b8ff" points="552.95,-63.33 563.04,-60.1 553.14,-56.34 552.95,-63.33"/>
</a>
</g>
</g>
<!-- Node81 -->
<g id="Node000081" class="node">
<title>Node81</title>
<g id="a_Node000081"><a xlink:href="kest__effect_8c.html#a487a10984ad42feea8c8e1e97f4cd3a3" target="_top" xlink:title=" ">
<polygon fill="white" stroke="#666666" points="484.88,-33.5 378.88,-33.5 378.88,0 484.88,0 484.88,-33.5"/>
<text xml:space="preserve" text-anchor="start" x="386.88" y="-20" font-family="Helvetica,sans-Serif" font-size="10.00">kest_effect_create</text>
<text xml:space="preserve" text-anchor="middle" x="431.88" y="-7.25" font-family="Helvetica,sans-Serif" font-size="10.00">_scope</text>
</a>
</g>
</g>
<!-- Node80&#45;&gt;Node81 -->
<g id="edge21_Node000080_Node000081" class="edge">
<title>Node80&#45;&gt;Node81</title>
<g id="a_edge21_Node000080_Node000081"><a xlink:title=" ">
<path fill="none" stroke="#63b8ff" d="M524.43,-16.75C510.94,-16.75 497.57,-16.75 485.37,-16.75"/>
<polygon fill="#63b8ff" stroke="#63b8ff" points="524.25,-20.25 534.25,-16.75 524.25,-13.25 524.25,-20.25"/>
</a>
</g>
</g>
<!-- Node81&#45;&gt;Node75 -->
<g id="edge22_Node000081_Node000075" class="edge">
<title>Node81&#45;&gt;Node75</title>
<g id="a_edge22_Node000081_Node000075"><a xlink:title=" ">
<path fill="none" stroke="#63b8ff" d="M367.62,-29.04C347.7,-32.91 325.86,-37.16 306.51,-40.92"/>
<polygon fill="#63b8ff" stroke="#63b8ff" points="368.14,-32.51 377.29,-27.16 366.81,-25.63 368.14,-32.51"/>
</a>
</g>
</g>
<!-- Node83 -->
<g id="Node000083" class="node">
<title>Node83</title>
<g id="a_Node000083"><a xlink:href="kest__effect_8c.html#a6d26be8c2a59f0c05ae876bf2dba43a1" target="_top" xlink:title=" ">
<polygon fill="white" stroke="#666666" points="314,-320.12 185.5,-320.12 185.5,-299.38 314,-299.38 314,-320.12"/>
<text xml:space="preserve" text-anchor="middle" x="249.75" y="-306.62" font-family="Helvetica,sans-Serif" font-size="10.00">kest_effect_is_updated</text>
</a>
</g>
</g>
<!-- Node82&#45;&gt;Node83 -->
<g id="edge24_Node000082_Node000083" class="edge">
<title>Node82&#45;&gt;Node83</title>
<g id="a_edge24_Node000082_Node000083"><a xlink:title=" ">
<path fill="none" stroke="#63b8ff" d="M551.99,-275.29C535.02,-277.47 517.01,-279.73 500.25,-281.75 437.07,-289.36 364.8,-297.4 314.36,-302.9"/>
<polygon fill="#63b8ff" stroke="#63b8ff" points="552,-278.82 561.47,-274.08 551.1,-271.88 552,-278.82"/>
</a>
</g>
</g>
<!-- Node83&#45;&gt;Node6 -->
<g id="edge25_Node000083_Node000006" class="edge">
<title>Node83&#45;&gt;Node6</title>
<g id="a_edge25_Node000083_Node000006"><a xlink:title=" ">
<path fill="none" stroke="#63b8ff" d="M194.77,-323.26C171.84,-329.01 145.17,-335.68 122.31,-341.4"/>
<polygon fill="#63b8ff" stroke="#63b8ff" points="195.38,-326.72 204.23,-320.9 193.68,-319.93 195.38,-326.72"/>
</a>
</g>
</g>
<!-- Node83&#45;&gt;Node10 -->
<g id="edge26_Node000083_Node000010" class="edge">
<title>Node83&#45;&gt;Node10</title>
<g id="a_edge26_Node000083_Node000010"><a xlink:title=" ">
<path fill="none" stroke="#63b8ff" d="M175.82,-294C174.49,-292.98 173.22,-291.9 172,-290.75 132.73,-253.71 172.83,-214.22 136,-174.75 132.08,-170.55 127.41,-167.03 122.38,-164.06"/>
<polygon fill="#63b8ff" stroke="#63b8ff" points="173.58,-296.73 183.91,-299.06 177.28,-290.79 173.58,-296.73"/>
</a>
</g>
</g>
<!-- Node83&#45;&gt;Node11 -->
<g id="edge27_Node000083_Node000011" class="edge">
<title>Node83&#45;&gt;Node11</title>
<g id="a_edge27_Node000083_Node000011"><a xlink:title=" ">
<path fill="none" stroke="#63b8ff" d="M173.81,-309.75C161.33,-309.75 148.46,-309.75 136.2,-309.75"/>
<polygon fill="#63b8ff" stroke="#63b8ff" points="173.61,-313.25 183.61,-309.75 173.61,-306.25 173.61,-313.25"/>
</a>
</g>
</g>
<!-- Node83&#45;&gt;Node12 -->
<g id="edge28_Node000083_Node000012" class="edge">
<title>Node83&#45;&gt;Node12</title>
<g id="a_edge28_Node000083_Node000012"><a xlink:title=" ">
<path fill="none" stroke="#63b8ff" d="M193.87,-296.2C186.52,-294.37 179.07,-292.52 172,-290.75 156.08,-286.77 138.77,-282.41 122.98,-278.43"/>
<polygon fill="#63b8ff" stroke="#63b8ff" points="192.89,-299.56 203.44,-298.57 194.57,-292.77 192.89,-299.56"/>
</a>
</g>
</g>
<!-- Node83&#45;&gt;Node13 -->
<g id="edge29_Node000083_Node000013" class="edge">
<title>Node83&#45;&gt;Node13</title>
<g id="a_edge29_Node000083_Node000013"><a xlink:title=" ">
<path fill="none" stroke="#63b8ff" d="M177.54,-294.2C175.63,-293.13 173.78,-291.98 172,-290.75 148.86,-274.79 157.4,-256.97 136,-238.75 132.47,-235.74 128.6,-232.95 124.57,-230.36"/>
<polygon fill="#63b8ff" stroke="#63b8ff" points="175.58,-297.14 186.1,-298.32 178.61,-290.83 175.58,-297.14"/>
</a>
</g>
</g>
</g>
</svg>

<g id="navigator" transform="translate(0 0)" fill="#404254">
  <rect fill="#f2f5e9" fill-opacity="0.5" stroke="#606060" stroke-width=".5" x="0" y="0" width="60" height="60"/>
  <use id="zoomplus" xlink:href="#zoomPlus" x="17" y="9" onmousedown="handleZoom(evt,'in')"/>
  <use id="zoomminus" xlink:href="#zoomMin" x="42" y="9" onmousedown="handleZoom(evt,'out')"/>
  <use id="reset" xlink:href="#resetDef" x="30" y="36" onmousedown="handleReset()"/>
   <use id="arrowup" xlink:href="#arrowUp" x="0" y="0" onmousedown="handlePan(0,-1)"/>
  <use id="arrowright" xlink:href="#arrowRight" x="0" y="0" onmousedown="handlePan(1,0)"/>
  <use id="arrowdown" xlink:href="#arrowDown" x="0" y="0" onmousedown="handlePan(0,1)"/>
  <use id="arrowleft" xlink:href="#arrowLeft" x="0" y="0" onmousedown="handlePan(-1,0)"/>
</g>
<svg viewBox="0 0 15 15" width="100%" height="30px" preserveAspectRatio="xMaxYMin meet">
 <g id="arrow_out" transform="scale(0.3 0.3)">
  <a xlink:href="kest__expression_8c_a4428080cc6a255e85501a259bdb4dc8a_icgraph_org.svg" target="_base">
   <rect id="button" ry="5" rx="5" y="6" x="6" height="38" width="38"
        fill="#f2f5e9" fill-opacity="0.5" stroke="#606060" stroke-width="1.0"/>
   <path id="arrow"
     d="M 11.500037,31.436501 C 11.940474,20.09759 22.043105,11.32322 32.158766,21.979434 L 37.068811,17.246167 C 37.068811,17.246167 37.088388,32 37.088388,32 L 22.160133,31.978069 C 22.160133,31.978069 26.997745,27.140456 26.997745,27.140456 C 18.528582,18.264221 13.291696,25.230495 11.500037,31.436501 z"
     style="fill:#404040;"/>
  </a>
 </g>
</svg>

<style type='text/css'>
<![CDATA[
[data-mouse-over-selected='false'] { opacity: 0.7; }
[data-mouse-over-selected='true']  { opacity: 1.0; }
]]>
</style>
<script type="application/ecmascript"><![CDATA[
document.addEventListener('DOMContentLoaded', (event) => {
  highlightEdges();
  highlightAdjacentNodes();
});
]]></script>
</svg>
