<?xml version="1.0" encoding="UTF-8" standalone="no"?>
<!DOCTYPE svg PUBLIC "-//W3C//DTD SVG 1.1//EN"
 "http://www.w3.org/Graphics/SVG/1.1/DTD/svg11.dtd">
<!-- Generated by graphviz version 13.1.2 (20250808.2320)
 -->
<!-- Title: kest_fpga_transfer_batch_append_effect_register_updates_ Pages: 1 -->
<svg width="965pt" height="341pt"
 viewBox="0.00 0.00 965.00 341.00" xmlns="http://www.w3.org/2000/svg" xmlns:xlink="http://www.w3.org/1999/xlink">
<g id="graph0" class="graph" transform="scale(1 1) rotate(0) translate(4 337.12)">
<title>kest_fpga_transfer_batch_append_effect_register_updates_</title>
<!-- Node1 -->
<g id="Node000001" class="node">
<title>Node1</title>
<g id="a_Node000001"><a xlink:title=" ">
<polygon fill="#999999" stroke="#666666" points="123.25,-160.88 0,-160.88 0,-114.62 123.25,-114.62 123.25,-160.88"/>
<text xml:space="preserve" text-anchor="start" x="8" y="-147.38" font-family="Helvetica,sans-Serif" font-size="10.00">kest_fpga_transfer</text>
<text xml:space="preserve" text-anchor="start" x="8" y="-134.62" font-family="Helvetica,sans-Serif" font-size="10.00">_batch_append_effect</text>
<text xml:space="preserve" text-anchor="middle" x="61.62" y="-121.88" font-family="Helvetica,sans-Serif" font-size="10.00">_register_updates_</text>
</a>
</g>
</g>
<!-- Node2 -->
<g id="Node000002" class="node">
<title>Node2</title>
<g id="a_Node000002"><a xlink:href="kest__fpga__encoding_8c.html#a671c5c9aca5f0e8197dbccbc0dd8291c" target="_top" xlink:title=" ">
<polygon fill="white" stroke="#666666" points="296,-154.5 159.25,-154.5 159.25,-121 296,-121 296,-154.5"/>
<text xml:space="preserve" text-anchor="start" x="167.25" y="-141" font-family="Helvetica,sans-Serif" font-size="10.00">kest_fpga_batch_append</text>
<text xml:space="preserve" text-anchor="middle" x="227.62" y="-128.25" font-family="Helvetica,sans-Serif" font-size="10.00">_block_register_updates</text>
</a>
</g>
</g>
<!-- Node1&#45;&gt;Node2 -->
<g id="edge1_Node000001_Node000002" class="edge">
<title>Node1&#45;&gt;Node2</title>
<g id="a_edge1_Node000001_Node000002"><a xlink:title=" ">
<path fill="none" stroke="#63b8ff" d="M123.69,-137.75C131.49,-137.75 139.56,-137.75 147.59,-137.75"/>
<polygon fill="#63b8ff" stroke="#63b8ff" points="147.38,-141.25 157.38,-137.75 147.38,-134.25 147.38,-141.25"/>
</a>
</g>
</g>
<!-- Node3 -->
<g id="Node000003" class="node">
<title>Node3</title>
<g id="a_Node000003"><a xlink:href="kest__fixed__point_8c.html#a1580bc2204b9b5083cfb04e1e883ea35" target="_top" xlink:title=" ">
<polygon fill="white" stroke="#666666" points="459.38,-255.12 347.38,-255.12 347.38,-234.38 459.38,-234.38 459.38,-255.12"/>
<text xml:space="preserve" text-anchor="middle" x="403.38" y="-241.62" font-family="Helvetica,sans-Serif" font-size="10.00">float_to_q_nminus1</text>
</a>
</g>
</g>
<!-- Node2&#45;&gt;Node3 -->
<g id="edge2_Node000002_Node000003" class="edge">
<title>Node2&#45;&gt;Node3</title>
<g id="a_edge2_Node000002_Node000003"><a xlink:title=" ">
<path fill="none" stroke="#63b8ff" d="M244.54,-154.97C263.55,-174.57 297.2,-206.26 332,-224.75 335.64,-226.68 339.48,-228.44 343.42,-230.05"/>
<polygon fill="#63b8ff" stroke="#63b8ff" points="341.98,-233.25 352.57,-233.42 344.4,-226.68 341.98,-233.25"/>
</a>
</g>
</g>
<!-- Node4 -->
<g id="Node000004" class="node">
<title>Node4</title>
<g id="a_Node000004"><a xlink:href="kest__expression_8c.html#a8df028c238f29a5c5e59bcff98e28157" target="_top" xlink:title=" ">
<polygon fill="white" stroke="#666666" points="474.75,-216.12 332,-216.12 332,-195.38 474.75,-195.38 474.75,-216.12"/>
<text xml:space="preserve" text-anchor="middle" x="403.38" y="-202.62" font-family="Helvetica,sans-Serif" font-size="10.00">kest_expression_evaluate</text>
</a>
</g>
</g>
<!-- Node2&#45;&gt;Node4 -->
<g id="edge3_Node000002_Node000004" class="edge">
<title>Node2&#45;&gt;Node4</title>
<g id="a_edge3_Node000002_Node000004"><a xlink:title=" ">
<path fill="none" stroke="#63b8ff" d="M261.03,-154.95C281.09,-165.13 307.59,-177.75 332,-186.75 336.67,-188.47 341.56,-190.11 346.5,-191.66"/>
<polygon fill="#63b8ff" stroke="#63b8ff" points="345.29,-194.95 355.87,-194.44 347.29,-188.24 345.29,-194.95"/>
</a>
</g>
</g>
<!-- Node22 -->
<g id="Node000022" class="node">
<title>Node22</title>
<g id="a_Node000022"><a xlink:href="kest__expression_8c.html#a06fc3d0394cad5e965de056f7af84b72" target="_top" xlink:title=" ">
<polygon fill="white" stroke="#666666" points="473.25,-177.5 333.5,-177.5 333.5,-144 473.25,-144 473.25,-177.5"/>
<text xml:space="preserve" text-anchor="start" x="341.5" y="-164" font-family="Helvetica,sans-Serif" font-size="10.00">kest_expression_updated</text>
<text xml:space="preserve" text-anchor="middle" x="403.38" y="-151.25" font-family="Helvetica,sans-Serif" font-size="10.00">_in_scope</text>
</a>
</g>
</g>
<!-- Node2&#45;&gt;Node22 -->
<g id="edge7_Node000002_Node000022" class="edge">
<title>Node2&#45;&gt;Node22</title>
<g id="a_edge7_Node000002_Node000022"><a xlink:title=" ">
<path fill="none" stroke="#63b8ff" d="M296.3,-146.71C304.71,-147.82 313.38,-148.97 321.96,-150.11"/>
<polygon fill="#63b8ff" stroke="#63b8ff" points="321.29,-153.55 331.67,-151.39 322.21,-146.61 321.29,-153.55"/>
</a>
</g>
</g>
<!-- Node27 -->
<g id="Node000027" class="node">
<title>Node27</title>
<g id="a_Node000027"><a xlink:href="kest__fpga__io_8c.html#a6900c9b759f1dccf1b3535cc76ad83e3" target="_top" xlink:title=" ">
<polygon fill="white" stroke="#666666" points="846.5,-110.12 709.75,-110.12 709.75,-89.38 846.5,-89.38 846.5,-110.12"/>
<text xml:space="preserve" text-anchor="middle" x="778.12" y="-96.62" font-family="Helvetica,sans-Serif" font-size="10.00">kest_fpga_batch_append</text>
</a>
</g>
</g>
<!-- Node2&#45;&gt;Node27 -->
<g id="edge12_Node000002_Node000027" class="edge">
<title>Node2&#45;&gt;Node27</title>
<g id="a_edge12_Node000002_Node000027"><a xlink:title=" ">
<path fill="none" stroke="#63b8ff" d="M296.43,-133.05C398.2,-126 589.99,-112.71 698.01,-105.23"/>
<polygon fill="#63b8ff" stroke="#63b8ff" points="698.23,-108.72 707.96,-104.54 697.74,-101.74 698.23,-108.72"/>
</a>
</g>
</g>
<!-- Node31 -->
<g id="Node000031" class="node">
<title>Node31</title>
<g id="a_Node000031"><a xlink:href="kest__fpga__io_8c.html#a1d6d30e20ceac79973b36fd12e790aa5" target="_top" xlink:title=" ">
<polygon fill="white" stroke="#666666" points="669.25,-65.12 515.25,-65.12 515.25,-44.38 669.25,-44.38 669.25,-65.12"/>
<text xml:space="preserve" text-anchor="middle" x="592.25" y="-51.62" font-family="Helvetica,sans-Serif" font-size="10.00">kest_fpga_batch_append_16</text>
</a>
</g>
</g>
<!-- Node2&#45;&gt;Node31 -->
<g id="edge14_Node000002_Node000031" class="edge">
<title>Node2&#45;&gt;Node31</title>
<g id="a_edge14_Node000002_Node000031"><a xlink:title=" ">
<path fill="none" stroke="#63b8ff" d="M256.05,-120.64C276.27,-108.86 304.88,-93.92 332,-85.75 387.69,-68.98 452.67,-61.23 503.65,-57.68"/>
<polygon fill="#63b8ff" stroke="#63b8ff" points="503.7,-61.18 513.45,-57.04 503.25,-54.19 503.7,-61.18"/>
</a>
</g>
</g>
<!-- Node33 -->
<g id="Node000033" class="node">
<title>Node33</title>
<g id="a_Node000033"><a xlink:href="kest__fpga__encoding_8c.html#a9b93bb2d500d5c9986515930a0f9ce47" target="_top" xlink:title=" ">
<polygon fill="white" stroke="#666666" points="471.75,-33.5 335,-33.5 335,0 471.75,0 471.75,-33.5"/>
<text xml:space="preserve" text-anchor="start" x="343" y="-20" font-family="Helvetica,sans-Serif" font-size="10.00">kest_fpga_batch_append</text>
<text xml:space="preserve" text-anchor="middle" x="403.38" y="-7.25" font-family="Helvetica,sans-Serif" font-size="10.00">_block_number</text>
</a>
</g>
</g>
<!-- Node2&#45;&gt;Node33 -->
<g id="edge17_Node000002_Node000033" class="edge">
<title>Node2&#45;&gt;Node33</title>
<g id="a_edge17_Node000002_Node000033"><a xlink:title=" ">
<path fill="none" stroke="#63b8ff" d="M244.91,-120.75C264.28,-101.24 298.25,-69.18 332,-47.75 336.88,-44.65 342.12,-41.72 347.45,-38.98"/>
<polygon fill="#63b8ff" stroke="#63b8ff" points="348.95,-42.14 356.41,-34.62 345.89,-35.85 348.95,-42.14"/>
</a>
</g>
</g>
<!-- Node5 -->
<g id="Node000005" class="node">
<title>Node5</title>
<g id="a_Node000005"><a xlink:href="kest__expression_8c.html#aa4b7d57f1458bb40fc2d8fdab7c605fc" target="_top" xlink:title=" ">
<polygon fill="#fff0f0" stroke="red" points="673.75,-315.12 510.75,-315.12 510.75,-294.38 673.75,-294.38 673.75,-315.12"/>
<text xml:space="preserve" text-anchor="middle" x="592.25" y="-301.62" font-family="Helvetica,sans-Serif" font-size="10.00">kest_expression_evaluate_rec</text>
</a>
</g>
</g>
<!-- Node4&#45;&gt;Node5 -->
<g id="edge4_Node000004_Node000005" class="edge">
<title>Node4&#45;&gt;Node5</title>
<g id="a_edge4_Node000004_Node000005"><a xlink:title=" ">
<path fill="none" stroke="#63b8ff" d="M458.17,-216.6C464.06,-219.05 469.74,-222.06 474.75,-225.75 498.29,-243.06 487.33,-263.29 510.75,-280.75 515.31,-284.15 520.35,-287.07 525.62,-289.58"/>
<polygon fill="#63b8ff" stroke="#63b8ff" points="523.99,-292.69 534.56,-293.33 526.69,-286.23 523.99,-292.69"/>
</a>
</g>
</g>
<!-- Node5&#45;&gt;Node5 -->
<g id="edge5_Node000005_Node000005" class="edge">
<title>Node5&#45;&gt;Node5</title>
<g id="a_edge5_Node000005_Node000005"><a xlink:title=" ">
<path fill="none" stroke="#63b8ff" d="M562.3,-315.52C550.32,-324.18 560.3,-333.12 592.25,-333.12 609.72,-333.12 620.62,-330.45 624.96,-326.61"/>
<polygon fill="#63b8ff" stroke="#63b8ff" points="628.37,-325.85 622.57,-316.99 621.58,-327.54 628.37,-325.85"/>
</a>
</g>
</g>
<!-- Node7 -->
<g id="Node000007" class="node">
<title>Node7</title>
<g id="a_Node000007"><a xlink:href="kest__expression_8c.html#aadf2a6a074cb1ad7b45893704cbd71c3" target="_top" xlink:title=" ">
<polygon fill="#fff0f0" stroke="red" points="833,-302.5 723.25,-302.5 723.25,-269 833,-269 833,-302.5"/>
<text xml:space="preserve" text-anchor="start" x="731.25" y="-289" font-family="Helvetica,sans-Serif" font-size="10.00">kest_expression_to</text>
<text xml:space="preserve" text-anchor="middle" x="778.12" y="-276.25" font-family="Helvetica,sans-Serif" font-size="10.00">_string</text>
</a>
</g>
</g>
<!-- Node5&#45;&gt;Node7 -->
<g id="edge6_Node000005_Node000007" class="edge">
<title>Node5&#45;&gt;Node7</title>
<g id="a_edge6_Node000005_Node000007"><a xlink:title=" ">
<path fill="none" stroke="#63b8ff" d="M674.17,-296.39C686.65,-295.1 699.41,-293.78 711.51,-292.53"/>
<polygon fill="#63b8ff" stroke="#63b8ff" points="711.78,-296.02 721.37,-291.51 711.06,-289.06 711.78,-296.02"/>
</a>
</g>
</g>
<!-- Node22&#45;&gt;Node7 -->
<g id="edge9_Node000022_Node000007" class="edge">
<title>Node22&#45;&gt;Node7</title>
<g id="a_edge9_Node000022_Node000007"><a xlink:title=" ">
<path fill="none" stroke="#63b8ff" d="M461.59,-177.91C466.28,-180.48 470.75,-183.41 474.75,-186.75 498.91,-206.93 484.59,-230.24 510.75,-247.75 542.68,-269.11 643.55,-278.71 711.58,-282.84"/>
<polygon fill="#63b8ff" stroke="#63b8ff" points="711.34,-286.34 721.53,-283.42 711.75,-279.35 711.34,-286.34"/>
</a>
</g>
</g>
<!-- Node23 -->
<g id="Node000023" class="node">
<title>Node23</title>
<g id="a_Node000023"><a xlink:href="kest__expression_8c.html#a4428080cc6a255e85501a259bdb4dc8a" target="_top" xlink:title=" ">
<polygon fill="#fff0f0" stroke="red" points="650.12,-238.5 534.38,-238.5 534.38,-205 650.12,-205 650.12,-238.5"/>
<text xml:space="preserve" text-anchor="start" x="542.38" y="-225" font-family="Helvetica,sans-Serif" font-size="10.00">kest_expression_get</text>
<text xml:space="preserve" text-anchor="middle" x="592.25" y="-212.25" font-family="Helvetica,sans-Serif" font-size="10.00">_references</text>
</a>
</g>
</g>
<!-- Node22&#45;&gt;Node23 -->
<g id="edge8_Node000022_Node000023" class="edge">
<title>Node22&#45;&gt;Node23</title>
<g id="a_edge8_Node000022_Node000023"><a xlink:title=" ">
<path fill="none" stroke="#63b8ff" d="M456.57,-177.99C473.81,-183.66 493.1,-190 510.75,-195.75 516.11,-197.5 521.67,-199.31 527.26,-201.12"/>
<polygon fill="#63b8ff" stroke="#63b8ff" points="525.94,-204.37 536.54,-204.12 528.1,-197.71 525.94,-204.37"/>
</a>
</g>
</g>
<!-- Node26 -->
<g id="Node000026" class="node">
<title>Node26</title>
<g id="a_Node000026"><a xlink:href="kest__expr__scope_8c.html#a4b961bc6e7b1010aacc02440ff92a605" target="_top" xlink:title=" ">
<polygon fill="white" stroke="#666666" points="643.38,-187.12 541.12,-187.12 541.12,-166.38 643.38,-166.38 643.38,-187.12"/>
<text xml:space="preserve" text-anchor="middle" x="592.25" y="-173.62" font-family="Helvetica,sans-Serif" font-size="10.00">kest_scope_count</text>
</a>
</g>
</g>
<!-- Node22&#45;&gt;Node26 -->
<g id="edge10_Node000022_Node000026" class="edge">
<title>Node22&#45;&gt;Node26</title>
<g id="a_edge10_Node000022_Node000026"><a xlink:title=" ">
<path fill="none" stroke="#63b8ff" d="M473.69,-166.69C491.93,-168.25 511.48,-169.92 529.3,-171.45"/>
<polygon fill="#63b8ff" stroke="#63b8ff" points="528.96,-174.93 539.22,-172.3 529.56,-167.95 528.96,-174.93"/>
</a>
</g>
</g>
<!-- Node20 -->
<g id="Node000020" class="node">
<title>Node20</title>
<g id="a_Node000020"><a xlink:href="kest__expr__scope_8c.html#a536647952c07049da59284b9f928bd67" target="_top" xlink:title=" ">
<polygon fill="white" stroke="#666666" points="646.38,-148.12 538.12,-148.12 538.12,-127.38 646.38,-127.38 646.38,-148.12"/>
<text xml:space="preserve" text-anchor="middle" x="592.25" y="-134.62" font-family="Helvetica,sans-Serif" font-size="10.00">kest_scope_lookup</text>
</a>
</g>
</g>
<!-- Node22&#45;&gt;Node20 -->
<g id="edge11_Node000022_Node000020" class="edge">
<title>Node22&#45;&gt;Node20</title>
<g id="a_edge11_Node000022_Node000020"><a xlink:title=" ">
<path fill="none" stroke="#63b8ff" d="M473.69,-152.22C491.08,-150.08 509.65,-147.79 526.79,-145.68"/>
<polygon fill="#63b8ff" stroke="#63b8ff" points="526.81,-149.21 536.31,-144.51 525.96,-142.26 526.81,-149.21"/>
</a>
</g>
</g>
<!-- Node28 -->
<g id="Node000028" class="node">
<title>Node28</title>
<g id="a_Node000028"><a xlink:href="kest__alloc_8c.html#ac3afebacd5118241e9f677df59a469b0" target="_top" xlink:title=" ">
<polygon fill="#fff0f0" stroke="red" points="957,-87.12 882.5,-87.12 882.5,-66.38 957,-66.38 957,-87.12"/>
<text xml:space="preserve" text-anchor="middle" x="919.75" y="-73.62" font-family="Helvetica,sans-Serif" font-size="10.00">kest_realloc</text>
</a>
</g>
</g>
<!-- Node27&#45;&gt;Node28 -->
<g id="edge13_Node000027_Node000028" class="edge">
<title>Node27&#45;&gt;Node28</title>
<g id="a_edge13_Node000027_Node000028"><a xlink:title=" ">
<path fill="none" stroke="#63b8ff" d="M844.85,-88.92C853.7,-87.47 862.64,-85.99 871.09,-84.6"/>
<polygon fill="#63b8ff" stroke="#63b8ff" points="871.48,-88.08 880.77,-83.01 870.34,-81.18 871.48,-88.08"/>
</a>
</g>
</g>
<!-- Node32 -->
<g id="Node000032" class="node">
<title>Node32</title>
<g id="a_Node000032"><a xlink:href="kest__fpga__io_8c.html#ac4570962996cb50a17f816b060c7df8e" target="_top" xlink:title=" ">
<polygon fill="white" stroke="#666666" points="846.5,-71.5 709.75,-71.5 709.75,-38 846.5,-38 846.5,-71.5"/>
<text xml:space="preserve" text-anchor="start" x="717.75" y="-58" font-family="Helvetica,sans-Serif" font-size="10.00">kest_fpga_batch_append</text>
<text xml:space="preserve" text-anchor="middle" x="778.12" y="-45.25" font-family="Helvetica,sans-Serif" font-size="10.00">_bytes</text>
</a>
</g>
</g>
<!-- Node31&#45;&gt;Node32 -->
<g id="edge15_Node000031_Node000032" class="edge">
<title>Node31&#45;&gt;Node32</title>
<g id="a_edge15_Node000031_Node000032"><a xlink:title=" ">
<path fill="none" stroke="#63b8ff" d="M669.63,-54.75C679.03,-54.75 688.66,-54.75 698.09,-54.75"/>
<polygon fill="#63b8ff" stroke="#63b8ff" points="697.97,-58.25 707.97,-54.75 697.97,-51.25 697.97,-58.25"/>
</a>
</g>
</g>
<!-- Node32&#45;&gt;Node28 -->
<g id="edge16_Node000032_Node000028" class="edge">
<title>Node32&#45;&gt;Node28</title>
<g id="a_edge16_Node000032_Node000028"><a xlink:title=" ">
<path fill="none" stroke="#63b8ff" d="M846.89,-65.43C855.11,-66.72 863.36,-68.02 871.2,-69.26"/>
<polygon fill="#63b8ff" stroke="#63b8ff" points="870.41,-72.68 880.83,-70.78 871.5,-65.76 870.41,-72.68"/>
</a>
</g>
</g>
<!-- Node33&#45;&gt;Node31 -->
<g id="edge18_Node000033_Node000031" class="edge">
<title>Node33&#45;&gt;Node31</title>
<g id="a_edge18_Node000033_Node000031"><a xlink:title=" ">
<path fill="none" stroke="#63b8ff" d="M472.11,-30.52C489.93,-34.15 509.1,-38.05 526.75,-41.63"/>
<polygon fill="#63b8ff" stroke="#63b8ff" points="525.82,-45.02 536.32,-43.58 527.22,-38.16 525.82,-45.02"/>
</a>
</g>
</g>
</g>
</svg>
