<?xml version="1.0" encoding="UTF-8" standalone="no"?>
<!DOCTYPE svg PUBLIC "-//W3C//DTD SVG 1.1//EN"
 "http://www.w3.org/Graphics/SVG/1.1/DTD/svg11.dtd">
<!-- Generated by graphviz version 13.1.2 (20250808.2320)
 -->
<!-- Title: save_preset Pages: 1 -->
<svg width="593pt" height="318pt"
 viewBox="0.00 0.00 593.00 318.00" xmlns="http://www.w3.org/2000/svg" xmlns:xlink="http://www.w3.org/1999/xlink">
<g id="graph0" class="graph" transform="scale(1 1) rotate(0) translate(4 314.12)">
<title>save_preset</title>
<!-- Node1 -->
<g id="Node000001" class="node">
<title>Node1</title>
<g id="a_Node000001"><a xlink:title=" ">
<polygon fill="#999999" stroke="#666666" points="585.25,-111.12 510,-111.12 510,-90.38 585.25,-90.38 585.25,-111.12"/>
<text xml:space="preserve" text-anchor="middle" x="547.62" y="-97.62" font-family="Helvetica,sans-Serif" font-size="10.00">save_preset</text>
</a>
</g>
</g>
<!-- Node2 -->
<g id="Node000002" class="node">
<title>Node2</title>
<g id="a_Node000002"><a xlink:href="kest__effect_8c.html#a2109a1d86293251c21166f2d243d1f84" target="_top" xlink:title=" ">
<polygon fill="white" stroke="#666666" points="462.75,-245.5 356.75,-245.5 356.75,-212 462.75,-212 462.75,-245.5"/>
<text xml:space="preserve" text-anchor="start" x="364.75" y="-232" font-family="Helvetica,sans-Serif" font-size="10.00">kest_effect_preset</text>
<text xml:space="preserve" text-anchor="middle" x="409.75" y="-219.25" font-family="Helvetica,sans-Serif" font-size="10.00">_rep_update</text>
</a>
</g>
</g>
<!-- Node1&#45;&gt;Node2 -->
<g id="edge1_Node000001_Node000002" class="edge">
<title>Node1&#45;&gt;Node2</title>
<g id="a_edge1_Node000001_Node000002"><a xlink:title=" ">
<path fill="none" stroke="#63b8ff" d="M528.15,-119.21C513.6,-133.67 492.7,-154.2 474,-171.75 459.45,-185.41 442.66,-200.51 430.03,-211.74"/>
<polygon fill="#63b8ff" stroke="#63b8ff" points="530.24,-122.08 534.86,-112.54 525.3,-117.12 530.24,-122.08"/>
</a>
</g>
</g>
<!-- Node29 -->
<g id="Node000029" class="node">
<title>Node29</title>
<g id="a_Node000029"><a xlink:href="kest__preset_8c.html#adafdde421c8a45460a73610143e238ec" target="_top" xlink:title=" ">
<polygon fill="white" stroke="#666666" points="466.88,-162.5 352.62,-162.5 352.62,-129 466.88,-129 466.88,-162.5"/>
<text xml:space="preserve" text-anchor="start" x="360.62" y="-149" font-family="Helvetica,sans-Serif" font-size="10.00">kest_preset_file_rep</text>
<text xml:space="preserve" text-anchor="middle" x="409.75" y="-136.25" font-family="Helvetica,sans-Serif" font-size="10.00">_update</text>
</a>
</g>
</g>
<!-- Node1&#45;&gt;Node29 -->
<g id="edge6_Node000001_Node000029" class="edge">
<title>Node1&#45;&gt;Node29</title>
<g id="a_edge6_Node000001_Node000029"><a xlink:title=" ">
<path fill="none" stroke="#63b8ff" d="M503.16,-115.15C490.27,-119.41 476.03,-124.13 462.66,-128.56"/>
<polygon fill="#63b8ff" stroke="#63b8ff" points="504.25,-118.47 512.64,-112 502.05,-111.83 504.25,-118.47"/>
</a>
</g>
</g>
<!-- Node34 -->
<g id="Node000034" class="node">
<title>Node34</title>
<g id="a_Node000034"><a xlink:href="kest__preset_8c.html#a6a24248737ac0b5a0379e63a2b48a9f8" target="_top" xlink:title=" ">
<polygon fill="white" stroke="#666666" points="460.12,-111.12 359.38,-111.12 359.38,-90.38 460.12,-90.38 460.12,-111.12"/>
<text xml:space="preserve" text-anchor="middle" x="409.75" y="-97.62" font-family="Helvetica,sans-Serif" font-size="10.00">kest_preset_save</text>
</a>
</g>
</g>
<!-- Node1&#45;&gt;Node34 -->
<g id="edge11_Node000001_Node000034" class="edge">
<title>Node1&#45;&gt;Node34</title>
<g id="a_edge11_Node000001_Node000034"><a xlink:title=" ">
<path fill="none" stroke="#63b8ff" d="M498.43,-100.75C486.15,-100.75 472.92,-100.75 460.56,-100.75"/>
<polygon fill="#63b8ff" stroke="#63b8ff" points="498.34,-104.25 508.34,-100.75 498.34,-97.25 498.34,-104.25"/>
</a>
</g>
</g>
<!-- Node50 -->
<g id="Node000050" class="node">
<title>Node50</title>
<g id="a_Node000050"><a xlink:href="kest__preset__settings_8c.html#aaa59e0b8910390c48668aeed99920b4b" target="_top" xlink:title=" ">
<polygon fill="white" stroke="#666666" points="469.5,-72.5 350,-72.5 350,-39 469.5,-39 469.5,-72.5"/>
<text xml:space="preserve" text-anchor="start" x="358" y="-59" font-family="Helvetica,sans-Serif" font-size="10.00">preset_settings_save</text>
<text xml:space="preserve" text-anchor="middle" x="409.75" y="-46.25" font-family="Helvetica,sans-Serif" font-size="10.00">_button_cb</text>
</a>
</g>
</g>
<!-- Node1&#45;&gt;Node50 -->
<g id="edge14_Node000001_Node000050" class="edge">
<title>Node1&#45;&gt;Node50</title>
<g id="a_edge14_Node000001_Node000050"><a xlink:title=" ">
<path fill="none" stroke="#63b8ff" d="M503.16,-86.35C490.27,-82.09 476.03,-77.37 462.66,-72.94"/>
<polygon fill="#63b8ff" stroke="#63b8ff" points="502.05,-89.67 512.64,-89.5 504.25,-83.03 502.05,-89.67"/>
</a>
</g>
</g>
<!-- Node51 -->
<g id="Node000051" class="node">
<title>Node51</title>
<g id="a_Node000051"><a xlink:href="kest__files_8c.html#a00c64a8e626a8a982c9a7ced88c5f90d" target="_top" xlink:title=" ">
<polygon fill="white" stroke="#666666" points="474,-21.12 345.5,-21.12 345.5,-0.38 474,-0.38 474,-21.12"/>
<text xml:space="preserve" text-anchor="middle" x="409.75" y="-7.62" font-family="Helvetica,sans-Serif" font-size="10.00">save_sequence_as_file</text>
</a>
</g>
</g>
<!-- Node1&#45;&gt;Node51 -->
<g id="edge15_Node000001_Node000051" class="edge">
<title>Node1&#45;&gt;Node51</title>
<g id="a_edge15_Node000001_Node000051"><a xlink:title=" ">
<path fill="none" stroke="#63b8ff" d="M531.43,-81.37C517.93,-65.39 496.85,-43.23 474,-29.75 468.57,-26.55 462.55,-23.84 456.45,-21.57"/>
<polygon fill="#63b8ff" stroke="#63b8ff" points="528.45,-83.26 537.49,-88.79 533.87,-78.83 528.45,-83.26"/>
</a>
</g>
</g>
<!-- Node3 -->
<g id="Node000003" class="node">
<title>Node3</title>
<g id="a_Node000003"><a xlink:href="kest__effect_8c.html#a6d9927f6d82c964bd07bef5c77879010" target="_top" xlink:title=" ">
<polygon fill="white" stroke="#666666" points="283.25,-251.12 217.75,-251.12 217.75,-230.38 283.25,-230.38 283.25,-251.12"/>
<text xml:space="preserve" text-anchor="middle" x="250.5" y="-237.62" font-family="Helvetica,sans-Serif" font-size="10.00">init_effect</text>
</a>
</g>
</g>
<!-- Node2&#45;&gt;Node3 -->
<g id="edge2_Node000002_Node000003" class="edge">
<title>Node2&#45;&gt;Node3</title>
<g id="a_edge2_Node000002_Node000003"><a xlink:title=" ">
<path fill="none" stroke="#63b8ff" d="M345.14,-233.6C323.94,-235.22 301.23,-236.96 283.48,-238.31"/>
<polygon fill="#63b8ff" stroke="#63b8ff" points="345.17,-237.11 354.88,-232.86 344.64,-230.13 345.17,-237.11"/>
</a>
</g>
</g>
<!-- Node4 -->
<g id="Node000004" class="node">
<title>Node4</title>
<g id="a_Node000004"><a xlink:href="kest__effect_8c.html#a935977843051ad81db1a153f2956658e" target="_top" xlink:title=" ">
<polygon fill="#fff0f0" stroke="red" points="115.75,-310.12 39.75,-310.12 39.75,-289.38 115.75,-289.38 115.75,-310.12"/>
<text xml:space="preserve" text-anchor="middle" x="77.75" y="-296.62" font-family="Helvetica,sans-Serif" font-size="10.00">clone_effect</text>
</a>
</g>
</g>
<!-- Node3&#45;&gt;Node4 -->
<g id="edge3_Node000003_Node000004" class="edge">
<title>Node3&#45;&gt;Node4</title>
<g id="a_edge3_Node000003_Node000004"><a xlink:title=" ">
<path fill="none" stroke="#63b8ff" d="M215.51,-256.19C197.84,-263.87 175.75,-272.95 155.5,-279.75 142.84,-284 128.75,-287.9 116.14,-291.11"/>
<polygon fill="#63b8ff" stroke="#63b8ff" points="216.77,-259.46 224.51,-252.22 213.95,-253.05 216.77,-259.46"/>
</a>
</g>
</g>
<!-- Node7 -->
<g id="Node000007" class="node">
<title>Node7</title>
<g id="a_Node000007"><a xlink:href="kest__effect_8c.html#a85b25e44e2629962673634f965ffe304" target="_top" xlink:title=" ">
<polygon fill="#fff0f0" stroke="red" points="155.5,-271.12 0,-271.12 0,-250.38 155.5,-250.38 155.5,-271.12"/>
<text xml:space="preserve" text-anchor="middle" x="77.75" y="-257.62" font-family="Helvetica,sans-Serif" font-size="10.00">init_effect_from_effect_desc</text>
</a>
</g>
</g>
<!-- Node3&#45;&gt;Node7 -->
<g id="edge4_Node000003_Node000007" class="edge">
<title>Node3&#45;&gt;Node7</title>
<g id="a_edge4_Node000003_Node000007"><a xlink:title=" ">
<path fill="none" stroke="#63b8ff" d="M206.16,-245.83C190.81,-247.62 173.04,-249.71 155.73,-251.73"/>
<polygon fill="#63b8ff" stroke="#63b8ff" points="206.36,-249.33 215.88,-244.69 205.54,-242.38 206.36,-249.33"/>
</a>
</g>
</g>
<!-- Node28 -->
<g id="Node000028" class="node">
<title>Node28</title>
<g id="a_Node000028"><a xlink:href="kest__effect__init_8c.html#a2e48b19e5588065e64b5003fe8f25f04" target="_top" xlink:title=" ">
<polygon fill="white" stroke="#666666" points="131.5,-232.12 24,-232.12 24,-211.38 131.5,-211.38 131.5,-232.12"/>
<text xml:space="preserve" text-anchor="middle" x="77.75" y="-218.62" font-family="Helvetica,sans-Serif" font-size="10.00">init_effect_of_type</text>
</a>
</g>
</g>
<!-- Node3&#45;&gt;Node28 -->
<g id="edge5_Node000003_Node000028" class="edge">
<title>Node3&#45;&gt;Node28</title>
<g id="a_edge5_Node000003_Node000028"><a xlink:title=" ">
<path fill="none" stroke="#63b8ff" d="M206.1,-235.92C183.52,-233.41 155.72,-230.32 131.87,-227.66"/>
<polygon fill="#63b8ff" stroke="#63b8ff" points="205.55,-239.38 215.88,-237.01 206.33,-232.42 205.55,-239.38"/>
</a>
</g>
</g>
<!-- Node30 -->
<g id="Node000030" class="node">
<title>Node30</title>
<g id="a_Node000030"><a xlink:href="kest__preset_8c.html#a081f5bea4d9dff0740275c4608e75b80" target="_top" xlink:title=" ">
<polygon fill="white" stroke="#666666" points="291.88,-155.12 209.12,-155.12 209.12,-134.38 291.88,-134.38 291.88,-155.12"/>
<text xml:space="preserve" text-anchor="middle" x="250.5" y="-141.62" font-family="Helvetica,sans-Serif" font-size="10.00">init_m_preset</text>
</a>
</g>
</g>
<!-- Node29&#45;&gt;Node30 -->
<g id="edge7_Node000029_Node000030" class="edge">
<title>Node29&#45;&gt;Node30</title>
<g id="a_edge7_Node000029_Node000030"><a xlink:title=" ">
<path fill="none" stroke="#63b8ff" d="M341.04,-145.32C324.39,-145.21 307.07,-145.1 292.15,-145.01"/>
<polygon fill="#63b8ff" stroke="#63b8ff" points="340.89,-148.82 350.91,-145.38 340.93,-141.82 340.89,-148.82"/>
</a>
</g>
</g>
<!-- Node31 -->
<g id="Node000031" class="node">
<title>Node31</title>
<g id="a_Node000031"><a xlink:href="kest__context_8c.html#af3a105be762be207e79056783ac06e79" target="_top" xlink:title=" ">
<polygon fill="white" stroke="#666666" points="146.5,-193.12 9,-193.12 9,-172.38 146.5,-172.38 146.5,-193.12"/>
<text xml:space="preserve" text-anchor="middle" x="77.75" y="-179.62" font-family="Helvetica,sans-Serif" font-size="10.00">kest_context_add_preset</text>
</a>
</g>
</g>
<!-- Node30&#45;&gt;Node31 -->
<g id="edge8_Node000030_Node000031" class="edge">
<title>Node30&#45;&gt;Node31</title>
<g id="a_edge8_Node000030_Node000031"><a xlink:title=" ">
<path fill="none" stroke="#63b8ff" d="M198.04,-156.2C175.64,-161.19 149.52,-167 127.44,-171.91"/>
<polygon fill="#63b8ff" stroke="#63b8ff" points="198.56,-159.67 207.56,-154.08 197.04,-152.84 198.56,-159.67"/>
</a>
</g>
</g>
<!-- Node32 -->
<g id="Node000032" class="node">
<title>Node32</title>
<g id="a_Node000032"><a xlink:href="kest__context_8c.html#a786aa6bf350252b8605783134331a8e3" target="_top" xlink:title=" ">
<polygon fill="#fff0f0" stroke="red" points="154,-154.12 1.5,-154.12 1.5,-133.38 154,-133.38 154,-154.12"/>
<text xml:space="preserve" text-anchor="middle" x="77.75" y="-140.62" font-family="Helvetica,sans-Serif" font-size="10.00">kest_context_add_preset_rp</text>
</a>
</g>
</g>
<!-- Node30&#45;&gt;Node32 -->
<g id="edge9_Node000030_Node000032" class="edge">
<title>Node30&#45;&gt;Node32</title>
<g id="a_edge9_Node000030_Node000032"><a xlink:title=" ">
<path fill="none" stroke="#63b8ff" d="M197.89,-144.45C184.18,-144.37 169.1,-144.28 154.4,-144.19"/>
<polygon fill="#63b8ff" stroke="#63b8ff" points="197.5,-147.95 207.52,-144.5 197.54,-140.95 197.5,-147.95"/>
</a>
</g>
</g>
<!-- Node27 -->
<g id="Node000027" class="node">
<title>Node27</title>
<g id="a_Node000027"><a xlink:href="kest__files_8c.html#a94b6bb72bca4b3c7f8f01ba6fa4f8200" target="_top" xlink:title=" ">
<polygon fill="#fff0f0" stroke="red" points="134.12,-115.12 21.38,-115.12 21.38,-94.38 134.12,-94.38 134.12,-115.12"/>
<text xml:space="preserve" text-anchor="middle" x="77.75" y="-101.62" font-family="Helvetica,sans-Serif" font-size="10.00">load_saved_presets</text>
</a>
</g>
</g>
<!-- Node30&#45;&gt;Node27 -->
<g id="edge10_Node000030_Node000027" class="edge">
<title>Node30&#45;&gt;Node27</title>
<g id="a_edge10_Node000030_Node000027"><a xlink:title=" ">
<path fill="none" stroke="#63b8ff" d="M197.99,-132.68C174.75,-127.24 147.52,-120.86 124.96,-115.57"/>
<polygon fill="#63b8ff" stroke="#63b8ff" points="197.03,-136.05 207.56,-134.93 198.62,-129.24 197.03,-136.05"/>
</a>
</g>
</g>
<!-- Node35 -->
<g id="Node000035" class="node">
<title>Node35</title>
<g id="a_Node000035"><a xlink:href="kest__context_8c.html#a6d720cf39977b4ec726901ce8b972c0d" target="_top" xlink:title=" ">
<polygon fill="white" stroke="#666666" points="309.5,-93.12 191.5,-93.12 191.5,-72.38 309.5,-72.38 309.5,-93.12"/>
<text xml:space="preserve" text-anchor="middle" x="250.5" y="-79.62" font-family="Helvetica,sans-Serif" font-size="10.00">cxt_save_all_presets</text>
</a>
</g>
</g>
<!-- Node34&#45;&gt;Node35 -->
<g id="edge12_Node000034_Node000035" class="edge">
<title>Node34&#45;&gt;Node35</title>
<g id="a_edge12_Node000034_Node000035"><a xlink:title=" ">
<path fill="none" stroke="#63b8ff" d="M347.8,-93.77C335.38,-92.35 322.33,-90.86 310,-89.45"/>
<polygon fill="#63b8ff" stroke="#63b8ff" points="347.16,-97.22 357.49,-94.88 347.95,-90.27 347.16,-97.22"/>
</a>
</g>
</g>
<!-- Node36 -->
<g id="Node000036" class="node">
<title>Node36</title>
<g id="a_Node000036"><a xlink:href="kest__sequence__view_8c.html#a48d14522bbc105d8b61111d5dc6a7c8f" target="_top" xlink:title=" ">
<polygon fill="#fff0f0" stroke="red" points="116.88,-75.12 38.62,-75.12 38.62,-54.38 116.88,-54.38 116.88,-75.12"/>
<text xml:space="preserve" text-anchor="middle" x="77.75" y="-61.62" font-family="Helvetica,sans-Serif" font-size="10.00">seq_save_cb</text>
</a>
</g>
</g>
<!-- Node35&#45;&gt;Node36 -->
<g id="edge13_Node000035_Node000036" class="edge">
<title>Node35&#45;&gt;Node36</title>
<g id="a_edge13_Node000035_Node000036"><a xlink:title=" ">
<path fill="none" stroke="#63b8ff" d="M179.85,-75.41C158.46,-73.15 135.7,-70.75 117.21,-68.8"/>
<polygon fill="#63b8ff" stroke="#63b8ff" points="179.4,-78.88 189.71,-76.45 180.13,-71.92 179.4,-78.88"/>
</a>
</g>
</g>
<!-- Node52 -->
<g id="Node000052" class="node">
<title>Node52</title>
<g id="a_Node000052"><a xlink:href="kest__files_8c.html#af53689e3600e69611b9c05f11971d23e" target="_top" xlink:title=" ">
<polygon fill="white" stroke="#666666" points="296,-27.12 205,-27.12 205,-6.38 296,-6.38 296,-27.12"/>
<text xml:space="preserve" text-anchor="middle" x="250.5" y="-13.62" font-family="Helvetica,sans-Serif" font-size="10.00">save_sequence</text>
</a>
</g>
</g>
<!-- Node51&#45;&gt;Node52 -->
<g id="edge16_Node000051_Node000052" class="edge">
<title>Node51&#45;&gt;Node52</title>
<g id="a_edge16_Node000051_Node000052"><a xlink:title=" ">
<path fill="none" stroke="#63b8ff" d="M334.01,-13.6C321.16,-14.09 308.16,-14.59 296.4,-15.04"/>
<polygon fill="#63b8ff" stroke="#63b8ff" points="333.87,-17.11 343.73,-13.23 333.61,-10.11 333.87,-17.11"/>
</a>
</g>
</g>
<!-- Node52&#45;&gt;Node36 -->
<g id="edge18_Node000052_Node000036" class="edge">
<title>Node52&#45;&gt;Node36</title>
<g id="a_edge18_Node000052_Node000036"><a xlink:title=" ">
<path fill="none" stroke="#63b8ff" d="M200.25,-30.6C173.85,-38.02 141.79,-47.03 117.24,-53.93"/>
<polygon fill="#63b8ff" stroke="#63b8ff" points="201.04,-34.01 209.72,-27.93 199.15,-27.27 201.04,-34.01"/>
</a>
</g>
</g>
<!-- Node53 -->
<g id="Node000053" class="node">
<title>Node53</title>
<g id="a_Node000053"><a xlink:href="kest__sequence_8c.html#aade8512fa274f7f5aba28d373fd2e6d9" target="_top" xlink:title=" ">
<polygon fill="#fff0f0" stroke="red" points="132.25,-33.5 23.25,-33.5 23.25,0 132.25,0 132.25,-33.5"/>
<text xml:space="preserve" text-anchor="start" x="31.25" y="-20" font-family="Helvetica,sans-Serif" font-size="10.00">kest_sequence_file</text>
<text xml:space="preserve" text-anchor="middle" x="77.75" y="-7.25" font-family="Helvetica,sans-Serif" font-size="10.00">_rep_update</text>
</a>
</g>
</g>
<!-- Node52&#45;&gt;Node53 -->
<g id="edge17_Node000052_Node000053" class="edge">
<title>Node52&#45;&gt;Node53</title>
<g id="a_edge17_Node000052_Node000053"><a xlink:title=" ">
<path fill="none" stroke="#63b8ff" d="M193.18,-16.75C173.73,-16.75 151.99,-16.75 132.74,-16.75"/>
<polygon fill="#63b8ff" stroke="#63b8ff" points="193.12,-20.25 203.12,-16.75 193.12,-13.25 193.12,-20.25"/>
</a>
</g>
</g>
</g>
</svg>
