<?xml version="1.0" encoding="UTF-8" standalone="no"?>
<!DOCTYPE svg PUBLIC "-//W3C//DTD SVG 1.1//EN"
 "http://www.w3.org/Graphics/SVG/1.1/DTD/svg11.dtd">
<!-- Generated by graphviz version 13.1.2 (20250808.2320)
 -->
<!-- Title: kest_block_opcode_to_name Pages: 1 -->
<svg width="495pt" height="171pt"
 viewBox="0.00 0.00 495.00 171.00" xmlns="http://www.w3.org/2000/svg" xmlns:xlink="http://www.w3.org/1999/xlink">

<svg id="main" version="1.1" xmlns="http://www.w3.org/2000/svg" xmlns:xlink="http://www.w3.org/1999/xlink" xml:space="preserve">

<style type="text/css"><![CDATA[
.node, .edge {opacity: 0.7;}
.node.selected, .edge.selected {opacity: 1;}
.edge:hover path { stroke: red; }
.edge:hover polygon { stroke: red; fill: red; }
]]></style>
<script type="application/ecmascript" xlink:href="svg.min.js"/>
<svg id="graph" class="graph">
<g id="graph0" class="graph" transform="scale(1 1) rotate(0) translate(4 167.12)">
<title>kest_block_opcode_to_name</title>
<!-- Node1 -->
<g id="Node000001" class="node">
<title>Node1</title>
<g id="a_Node000001"><a xlink:title=" ">
<polygon fill="#999999" stroke="#666666" points="486.75,-101.12 330.5,-101.12 330.5,-80.38 486.75,-80.38 486.75,-101.12"/>
<text xml:space="preserve" text-anchor="middle" x="408.62" y="-87.62" font-family="Helvetica,sans-Serif" font-size="10.00">kest_block_opcode_to_name</text>
</a>
</g>
</g>
<!-- Node2 -->
<g id="Node000002" class="node">
<title>Node2</title>
<g id="a_Node000002"><a xlink:href="kest__fpga__encoding_8c.html#a7ca2a1fbddc5d291e6f3196e060cd163" target="_top" xlink:title=" ">
<polygon fill="white" stroke="#666666" points="294.5,-163.12 149.5,-163.12 149.5,-142.38 294.5,-142.38 294.5,-163.12"/>
<text xml:space="preserve" text-anchor="middle" x="222" y="-149.62" font-family="Helvetica,sans-Serif" font-size="10.00">print_instruction_format_a</text>
</a>
</g>
</g>
<!-- Node1&#45;&gt;Node2 -->
<g id="edge1_Node000001_Node000002" class="edge">
<title>Node1&#45;&gt;Node2</title>
<g id="a_edge1_Node000001_Node000002"><a xlink:title=" ">
<path fill="none" stroke="#63b8ff" d="M369.91,-105.64C348.05,-114.05 319.9,-124.5 294.5,-132.75 284.69,-135.94 274.03,-139.08 264.01,-141.91"/>
<polygon fill="#63b8ff" stroke="#63b8ff" points="370.94,-109 379.01,-102.12 368.42,-102.47 370.94,-109"/>
</a>
</g>
</g>
<!-- Node4 -->
<g id="Node000004" class="node">
<title>Node4</title>
<g id="a_Node000004"><a xlink:href="kest__fpga__encoding_8c.html#a742d286efbcdfcfb04471fac4282b318" target="_top" xlink:title=" ">
<polygon fill="white" stroke="#666666" points="294.5,-124.12 149.5,-124.12 149.5,-103.38 294.5,-103.38 294.5,-124.12"/>
<text xml:space="preserve" text-anchor="middle" x="222" y="-110.62" font-family="Helvetica,sans-Serif" font-size="10.00">print_instruction_format_b</text>
</a>
</g>
</g>
<!-- Node1&#45;&gt;Node4 -->
<g id="edge3_Node000001_Node000004" class="edge">
<title>Node1&#45;&gt;Node4</title>
<g id="a_edge3_Node000001_Node000004"><a xlink:title=" ">
<path fill="none" stroke="#63b8ff" d="M318.87,-101.81C310.86,-102.8 302.83,-103.81 295,-104.78"/>
<polygon fill="#63b8ff" stroke="#63b8ff" points="319.14,-105.3 328.63,-100.59 318.27,-98.35 319.14,-105.3"/>
</a>
</g>
</g>
<!-- Node5 -->
<g id="Node000005" class="node">
<title>Node5</title>
<g id="a_Node000005"><a xlink:href="kest__fpga__encoding_8c.html#a58b05537bc03bf7034c7a16bff143186" target="_top" xlink:title=" ">
<polygon fill="white" stroke="#666666" points="278.75,-85.5 165.25,-85.5 165.25,-52 278.75,-52 278.75,-85.5"/>
<text xml:space="preserve" text-anchor="start" x="173.25" y="-72" font-family="Helvetica,sans-Serif" font-size="10.00">str_print_instruction</text>
<text xml:space="preserve" text-anchor="middle" x="222" y="-59.25" font-family="Helvetica,sans-Serif" font-size="10.00">_format_a</text>
</a>
</g>
</g>
<!-- Node1&#45;&gt;Node5 -->
<g id="edge5_Node000001_Node000005" class="edge">
<title>Node1&#45;&gt;Node5</title>
<g id="a_edge5_Node000001_Node000005"><a xlink:title=" ">
<path fill="none" stroke="#63b8ff" d="M318.79,-80.16C305.22,-78.55 291.56,-76.92 278.97,-75.42"/>
<polygon fill="#63b8ff" stroke="#63b8ff" points="318.28,-83.63 328.63,-81.34 319.11,-76.68 318.28,-83.63"/>
</a>
</g>
</g>
<!-- Node7 -->
<g id="Node000007" class="node">
<title>Node7</title>
<g id="a_Node000007"><a xlink:href="kest__fpga__encoding_8c.html#a6222c2f39b97c1de272be1508b1077a2" target="_top" xlink:title=" ">
<polygon fill="white" stroke="#666666" points="278.75,-33.5 165.25,-33.5 165.25,0 278.75,0 278.75,-33.5"/>
<text xml:space="preserve" text-anchor="start" x="173.25" y="-20" font-family="Helvetica,sans-Serif" font-size="10.00">str_print_instruction</text>
<text xml:space="preserve" text-anchor="middle" x="222" y="-7.25" font-family="Helvetica,sans-Serif" font-size="10.00">_format_b</text>
</a>
</g>
</g>
<!-- Node1&#45;&gt;Node7 -->
<g id="edge7_Node000001_Node000007" class="edge">
<title>Node1&#45;&gt;Node7</title>
<g id="a_edge7_Node000001_Node000007"><a xlink:title=" ">
<path fill="none" stroke="#63b8ff" d="M372.76,-75.4C350.5,-65.73 320.94,-53.16 294.5,-42.75 287,-39.8 279.02,-36.78 271.21,-33.89"/>
<polygon fill="#63b8ff" stroke="#63b8ff" points="371.11,-78.5 381.67,-79.28 373.91,-72.08 371.11,-78.5"/>
</a>
</g>
</g>
<!-- Node3 -->
<g id="Node000003" class="node">
<title>Node3</title>
<g id="a_Node000003"><a xlink:href="kest__fpga__encoding_8c.html#a9f3d76916b565e27599aebdb6c624499" target="_top" xlink:title=" ">
<polygon fill="white" stroke="#666666" points="104.5,-143.12 9,-143.12 9,-122.38 104.5,-122.38 104.5,-143.12"/>
<text xml:space="preserve" text-anchor="middle" x="56.75" y="-129.62" font-family="Helvetica,sans-Serif" font-size="10.00">print_instruction</text>
</a>
</g>
</g>
<!-- Node2&#45;&gt;Node3 -->
<g id="edge2_Node000002_Node000003" class="edge">
<title>Node2&#45;&gt;Node3</title>
<g id="a_edge2_Node000002_Node000003"><a xlink:title=" ">
<path fill="none" stroke="#63b8ff" d="M138.03,-142.59C126.65,-141.19 115.3,-139.8 104.87,-138.52"/>
<polygon fill="#63b8ff" stroke="#63b8ff" points="137.54,-146.05 147.89,-143.79 138.39,-139.1 137.54,-146.05"/>
</a>
</g>
</g>
<!-- Node4&#45;&gt;Node3 -->
<g id="edge4_Node000004_Node000003" class="edge">
<title>Node4&#45;&gt;Node3</title>
<g id="a_edge4_Node000004_Node000003"><a xlink:title=" ">
<path fill="none" stroke="#63b8ff" d="M138.03,-123.41C126.65,-124.73 115.3,-126.05 104.87,-127.27"/>
<polygon fill="#63b8ff" stroke="#63b8ff" points="138.36,-126.89 147.89,-122.26 137.56,-119.94 138.36,-126.89"/>
</a>
</g>
</g>
<!-- Node6 -->
<g id="Node000006" class="node">
<title>Node6</title>
<g id="a_Node000006"><a xlink:href="kest__fpga__encoding_8c.html#ac87d1a945faf6feee3bdaf5b10e4359b" target="_top" xlink:title=" ">
<polygon fill="white" stroke="#666666" points="113.5,-53.12 0,-53.12 0,-32.38 113.5,-32.38 113.5,-53.12"/>
<text xml:space="preserve" text-anchor="middle" x="56.75" y="-39.62" font-family="Helvetica,sans-Serif" font-size="10.00">str_print_instruction</text>
</a>
</g>
</g>
<!-- Node5&#45;&gt;Node6 -->
<g id="edge6_Node000005_Node000006" class="edge">
<title>Node5&#45;&gt;Node6</title>
<g id="a_edge6_Node000005_Node000006"><a xlink:title=" ">
<path fill="none" stroke="#63b8ff" d="M153.8,-58.05C140.49,-55.93 126.65,-53.72 113.76,-51.67"/>
<polygon fill="#63b8ff" stroke="#63b8ff" points="152.9,-61.45 163.32,-59.56 154,-54.53 152.9,-61.45"/>
</a>
</g>
</g>
<!-- Node7&#45;&gt;Node6 -->
<g id="edge8_Node000007_Node000006" class="edge">
<title>Node7&#45;&gt;Node6</title>
<g id="a_edge8_Node000007_Node000006"><a xlink:title=" ">
<path fill="none" stroke="#63b8ff" d="M153.8,-27.45C140.49,-29.57 126.65,-31.78 113.76,-33.83"/>
<polygon fill="#63b8ff" stroke="#63b8ff" points="154,-30.97 163.32,-25.94 152.9,-24.05 154,-30.97"/>
</a>
</g>
</g>
</g>
</svg>
</svg>

<style type='text/css'>
<![CDATA[
[data-mouse-over-selected='false'] { opacity: 0.7; }
[data-mouse-over-selected='true']  { opacity: 1.0; }
]]>
</style>
<script type="application/ecmascript"><![CDATA[
document.addEventListener('DOMContentLoaded', (event) => {
  highlightEdges();
  highlightAdjacentNodes();
});
]]></script>
</svg>
