<?xml version="1.0" encoding="UTF-8" standalone="no"?>
<!DOCTYPE svg PUBLIC "-//W3C//DTD SVG 1.1//EN"
 "http://www.w3.org/Graphics/SVG/1.1/DTD/svg11.dtd">
<!-- Generated by graphviz version 13.1.2 (20250808.2320)
 -->
<!-- Title: kest_fpga_batch_append_block_register_updates Pages: 1 -->
<!--zoomable 303 -->

<svg id="main" version="1.1" xmlns="http://www.w3.org/2000/svg" xmlns:xlink="http://www.w3.org/1999/xlink" xml:space="preserve" onload="init(evt)">

<style type="text/css"><![CDATA[
.node, .edge {opacity: 0.7;}
.node.selected, .edge.selected {opacity: 1;}
.edge:hover path { stroke: red; }
.edge:hover polygon { stroke: red; fill: red; }
]]></style>

<defs>
  <circle id="rim" cx="0" cy="0" r="7"/>
  <circle id="rim2" cx="0" cy="0" r="3.5"/>
  <g id="zoomPlus">
    <use xlink:href="#rim" fill="#404040"><set attributeName="fill" to="#808080" begin="zoomplus.mouseover" end="zoomplus.mouseout"/></use>
    <path d="M-4,0h8M0,-4v8" fill="none" stroke="white" stroke-width="1.5" pointer-events="none"/>
  </g>
  <g id="zoomMin">
    <use xlink:href="#rim" fill="#404040"><set attributeName="fill" to="#808080" begin="zoomminus.mouseover" end="zoomminus.mouseout"/></use>
    <path d="M-4,0h8" fill="none" stroke="white" stroke-width="1.5" pointer-events="none"/>
  </g>
  <g id="arrowUp" transform="translate(30 24)">
    <use xlink:href="#rim"/>
    <path pointer-events="none" fill="none" stroke="white" stroke-width="1.5" d="M0,-3.0v7 M-2.5,-0.5L0,-3.0L2.5,-0.5"/>
  </g>
  <g id="arrowRight" transform="rotate(90) translate(36 -43)">
    <use xlink:href="#rim"/>
    <path pointer-events="none" fill="none" stroke="white" stroke-width="1.5" d="M0,-3.0v7 M-2.5,-0.5L0,-3.0L2.5,-0.5"/>
  </g>
  <g id="arrowDown" transform="rotate(180) translate(-30 -48)">
    <use xlink:href="#rim"/>
    <path pointer-events="none" fill="none" stroke="white" stroke-width="1.5" d="M0,-3.0v7 M-2.5,-0.5L0,-3.0L2.5,-0.5"/>
  </g>
  <g id="arrowLeft" transform="rotate(270) translate(-36 17)">
    <use xlink:href="#rim"/>
    <path pointer-events="none" fill="none" stroke="white" stroke-width="1.5" d="M0,-3.0v7 M-2.5,-0.5L0,-3.0L2.5,-0.5"/>
  </g>
  <g id="resetDef">
    <use xlink:href="#rim2" fill="#404040"><set attributeName="fill" to="#808080" begin="reset.mouseover" end="reset.mouseout"/></use>
  </g>
</defs>
<script type="application/ecmascript">
var viewWidth = 933;
var viewHeight = 303;
var sectionId = 'dynsection-13';
</script>
<script type="application/ecmascript" xlink:href="svg.min.js"/>
<svg id="graph" class="graph">
<g id="viewport">
<title>kest_fpga_batch_append_block_register_updates</title>
<!-- Node1 -->
<g id="Node000001" class="node">
<title>Node1</title>
<g id="a_Node000001"><a xlink:title=" ">
<polygon fill="#999999" stroke="#666666" points="136.75,-138.5 0,-138.5 0,-105 136.75,-105 136.75,-138.5"/>
<text xml:space="preserve" text-anchor="start" x="8" y="-125" font-family="Helvetica,sans-Serif" font-size="10.00">kest_fpga_batch_append</text>
<text xml:space="preserve" text-anchor="middle" x="68.38" y="-112.25" font-family="Helvetica,sans-Serif" font-size="10.00">_block_register_updates</text>
</a>
</g>
</g>
<!-- Node2 -->
<g id="Node000002" class="node">
<title>Node2</title>
<g id="a_Node000002"><a xlink:href="kest__fixed__point_8c.html#a1580bc2204b9b5083cfb04e1e883ea35" target="_top" xlink:title=" ">
<polygon fill="white" stroke="#666666" points="300.12,-239.12 188.12,-239.12 188.12,-218.38 300.12,-218.38 300.12,-239.12"/>
<text xml:space="preserve" text-anchor="middle" x="244.12" y="-225.62" font-family="Helvetica,sans-Serif" font-size="10.00">float_to_q_nminus1</text>
</a>
</g>
</g>
<!-- Node1&#45;&gt;Node2 -->
<g id="edge1_Node000001_Node000002" class="edge">
<title>Node1&#45;&gt;Node2</title>
<g id="a_edge1_Node000001_Node000002"><a xlink:title=" ">
<path fill="none" stroke="#63b8ff" d="M85.29,-138.97C104.3,-158.57 137.95,-190.26 172.75,-208.75 176.39,-210.68 180.23,-212.44 184.17,-214.05"/>
<polygon fill="#63b8ff" stroke="#63b8ff" points="182.73,-217.25 193.32,-217.42 185.15,-210.68 182.73,-217.25"/>
</a>
</g>
</g>
<!-- Node3 -->
<g id="Node000003" class="node">
<title>Node3</title>
<g id="a_Node000003"><a xlink:href="kest__expression_8c.html#a8df028c238f29a5c5e59bcff98e28157" target="_top" xlink:title=" ">
<polygon fill="white" stroke="#666666" points="315.5,-200.12 172.75,-200.12 172.75,-179.38 315.5,-179.38 315.5,-200.12"/>
<text xml:space="preserve" text-anchor="middle" x="244.12" y="-186.62" font-family="Helvetica,sans-Serif" font-size="10.00">kest_expression_evaluate</text>
</a>
</g>
</g>
<!-- Node1&#45;&gt;Node3 -->
<g id="edge2_Node000001_Node000003" class="edge">
<title>Node1&#45;&gt;Node3</title>
<g id="a_edge2_Node000001_Node000003"><a xlink:title=" ">
<path fill="none" stroke="#63b8ff" d="M101.78,-138.95C121.84,-149.13 148.34,-161.75 172.75,-170.75 177.42,-172.47 182.31,-174.11 187.25,-175.66"/>
<polygon fill="#63b8ff" stroke="#63b8ff" points="186.04,-178.95 196.62,-178.44 188.04,-172.24 186.04,-178.95"/>
</a>
</g>
</g>
<!-- Node4 -->
<g id="Node000004" class="node">
<title>Node4</title>
<g id="a_Node000004"><a xlink:href="kest__expression_8c.html#a06fc3d0394cad5e965de056f7af84b72" target="_top" xlink:title=" ">
<polygon fill="white" stroke="#666666" points="314,-161.5 174.25,-161.5 174.25,-128 314,-128 314,-161.5"/>
<text xml:space="preserve" text-anchor="start" x="182.25" y="-148" font-family="Helvetica,sans-Serif" font-size="10.00">kest_expression_updated</text>
<text xml:space="preserve" text-anchor="middle" x="244.12" y="-135.25" font-family="Helvetica,sans-Serif" font-size="10.00">_in_scope</text>
</a>
</g>
</g>
<!-- Node1&#45;&gt;Node4 -->
<g id="edge3_Node000001_Node000004" class="edge">
<title>Node1&#45;&gt;Node4</title>
<g id="a_edge3_Node000001_Node000004"><a xlink:title=" ">
<path fill="none" stroke="#63b8ff" d="M137.05,-130.71C145.46,-131.82 154.13,-132.97 162.71,-134.11"/>
<polygon fill="#63b8ff" stroke="#63b8ff" points="162.04,-137.55 172.42,-135.39 162.96,-130.61 162.04,-137.55"/>
</a>
</g>
</g>
<!-- Node15 -->
<g id="Node000015" class="node">
<title>Node15</title>
<g id="a_Node000015"><a xlink:href="kest__fpga__io_8c.html#a6900c9b759f1dccf1b3535cc76ad83e3" target="_top" xlink:title=" ">
<polygon fill="white" stroke="#666666" points="678.25,-91.12 541.5,-91.12 541.5,-70.38 678.25,-70.38 678.25,-91.12"/>
<text xml:space="preserve" text-anchor="middle" x="609.88" y="-77.62" font-family="Helvetica,sans-Serif" font-size="10.00">kest_fpga_batch_append</text>
</a>
</g>
</g>
<!-- Node1&#45;&gt;Node15 -->
<g id="edge11_Node000001_Node000015" class="edge">
<title>Node1&#45;&gt;Node15</title>
<g id="a_edge11_Node000001_Node000015"><a xlink:title=" ">
<path fill="none" stroke="#63b8ff" d="M137.16,-116.6C237.23,-108.99 424.08,-94.79 530.11,-86.74"/>
<polygon fill="#63b8ff" stroke="#63b8ff" points="530.16,-90.24 539.86,-85.99 529.62,-83.26 530.16,-90.24"/>
</a>
</g>
</g>
<!-- Node19 -->
<g id="Node000019" class="node">
<title>Node19</title>
<g id="a_Node000019"><a xlink:href="kest__fpga__io_8c.html#a1d6d30e20ceac79973b36fd12e790aa5" target="_top" xlink:title=" ">
<polygon fill="white" stroke="#666666" points="505.5,-72.12 351.5,-72.12 351.5,-51.38 505.5,-51.38 505.5,-72.12"/>
<text xml:space="preserve" text-anchor="middle" x="428.5" y="-58.62" font-family="Helvetica,sans-Serif" font-size="10.00">kest_fpga_batch_append_16</text>
</a>
</g>
</g>
<!-- Node1&#45;&gt;Node19 -->
<g id="edge15_Node000001_Node000019" class="edge">
<title>Node1&#45;&gt;Node19</title>
<g id="a_edge15_Node000001_Node000019"><a xlink:title=" ">
<path fill="none" stroke="#63b8ff" d="M111.46,-104.51C129.97,-97.61 152.14,-90.24 172.75,-85.75 227.62,-73.8 290.41,-67.8 339.92,-64.78"/>
<polygon fill="#63b8ff" stroke="#63b8ff" points="339.95,-68.29 349.73,-64.22 339.55,-61.3 339.95,-68.29"/>
</a>
</g>
</g>
<!-- Node20 -->
<g id="Node000020" class="node">
<title>Node20</title>
<g id="a_Node000020"><a xlink:href="kest__fpga__encoding_8c.html#a9b93bb2d500d5c9986515930a0f9ce47" target="_top" xlink:title=" ">
<polygon fill="white" stroke="#666666" points="312.5,-33.5 175.75,-33.5 175.75,0 312.5,0 312.5,-33.5"/>
<text xml:space="preserve" text-anchor="start" x="183.75" y="-20" font-family="Helvetica,sans-Serif" font-size="10.00">kest_fpga_batch_append</text>
<text xml:space="preserve" text-anchor="middle" x="244.12" y="-7.25" font-family="Helvetica,sans-Serif" font-size="10.00">_block_number</text>
</a>
</g>
</g>
<!-- Node1&#45;&gt;Node20 -->
<g id="edge17_Node000001_Node000020" class="edge">
<title>Node1&#45;&gt;Node20</title>
<g id="a_edge17_Node000001_Node000020"><a xlink:title=" ">
<path fill="none" stroke="#63b8ff" d="M90.68,-104.5C110.99,-88.55 142.84,-64.8 172.75,-47.75 178.32,-44.57 184.28,-41.5 190.29,-38.6"/>
<polygon fill="#63b8ff" stroke="#63b8ff" points="191.42,-41.93 199.01,-34.53 188.46,-35.58 191.42,-41.93"/>
</a>
</g>
</g>
<!-- Node5 -->
<g id="Node000005" class="node">
<title>Node5</title>
<g id="a_Node000005"><a xlink:href="kest__expression_8c.html#a4428080cc6a255e85501a259bdb4dc8a" target="_top" xlink:title=" ">
<polygon fill="white" stroke="#666666" points="486.38,-276.5 370.62,-276.5 370.62,-243 486.38,-243 486.38,-276.5"/>
<text xml:space="preserve" text-anchor="start" x="378.62" y="-263" font-family="Helvetica,sans-Serif" font-size="10.00">kest_expression_get</text>
<text xml:space="preserve" text-anchor="middle" x="428.5" y="-250.25" font-family="Helvetica,sans-Serif" font-size="10.00">_references</text>
</a>
</g>
</g>
<!-- Node4&#45;&gt;Node5 -->
<g id="edge4_Node000004_Node000005" class="edge">
<title>Node4&#45;&gt;Node5</title>
<g id="a_edge4_Node000004_Node000005"><a xlink:title=" ">
<path fill="none" stroke="#63b8ff" d="M301.91,-161.82C306.75,-164.41 311.36,-167.37 315.5,-170.75 339,-189.94 328.32,-209.17 351.5,-228.75 355.11,-231.8 359.07,-234.58 363.21,-237.11"/>
<polygon fill="#63b8ff" stroke="#63b8ff" points="361.38,-240.1 371.83,-241.84 364.75,-233.96 361.38,-240.1"/>
</a>
</g>
</g>
<!-- Node8 -->
<g id="Node000008" class="node">
<title>Node8</title>
<g id="a_Node000008"><a xlink:href="kest__expression_8c.html#aadf2a6a074cb1ad7b45893704cbd71c3" target="_top" xlink:title=" ">
<polygon fill="#fff0f0" stroke="red" points="824,-253.5 714.25,-253.5 714.25,-220 824,-220 824,-253.5"/>
<text xml:space="preserve" text-anchor="start" x="722.25" y="-240" font-family="Helvetica,sans-Serif" font-size="10.00">kest_expression_to</text>
<text xml:space="preserve" text-anchor="middle" x="769.12" y="-227.25" font-family="Helvetica,sans-Serif" font-size="10.00">_string</text>
</a>
</g>
</g>
<!-- Node4&#45;&gt;Node8 -->
<g id="edge8_Node000004_Node000008" class="edge">
<title>Node4&#45;&gt;Node8</title>
<g id="a_edge8_Node000004_Node000008"><a xlink:title=" ">
<path fill="none" stroke="#63b8ff" d="M296.15,-161.85C302.77,-164.58 309.38,-167.56 315.5,-170.75 332.77,-179.75 333.22,-189.02 351.5,-195.75 414.22,-218.83 601.85,-229.91 702.54,-234.32"/>
<polygon fill="#63b8ff" stroke="#63b8ff" points="702.13,-237.8 712.27,-234.73 702.43,-230.81 702.13,-237.8"/>
</a>
</g>
</g>
<!-- Node13 -->
<g id="Node000013" class="node">
<title>Node13</title>
<g id="a_Node000013"><a xlink:href="kest__expr__scope_8c.html#a4b961bc6e7b1010aacc02440ff92a605" target="_top" xlink:title=" ">
<polygon fill="white" stroke="#666666" points="479.62,-187.12 377.38,-187.12 377.38,-166.38 479.62,-166.38 479.62,-187.12"/>
<text xml:space="preserve" text-anchor="middle" x="428.5" y="-173.62" font-family="Helvetica,sans-Serif" font-size="10.00">kest_scope_count</text>
</a>
</g>
</g>
<!-- Node4&#45;&gt;Node13 -->
<g id="edge9_Node000004_Node000013" class="edge">
<title>Node4&#45;&gt;Node13</title>
<g id="a_edge9_Node000004_Node000013"><a xlink:title=" ">
<path fill="none" stroke="#63b8ff" d="M314.33,-156.89C331.28,-159.87 349.31,-163.03 365.87,-165.94"/>
<polygon fill="#63b8ff" stroke="#63b8ff" points="365.13,-169.36 375.58,-167.64 366.34,-162.47 365.13,-169.36"/>
</a>
</g>
</g>
<!-- Node14 -->
<g id="Node000014" class="node">
<title>Node14</title>
<g id="a_Node000014"><a xlink:href="kest__expr__scope_8c.html#a536647952c07049da59284b9f928bd67" target="_top" xlink:title=" ">
<polygon fill="white" stroke="#666666" points="482.62,-148.12 374.38,-148.12 374.38,-127.38 482.62,-127.38 482.62,-148.12"/>
<text xml:space="preserve" text-anchor="middle" x="428.5" y="-134.62" font-family="Helvetica,sans-Serif" font-size="10.00">kest_scope_lookup</text>
</a>
</g>
</g>
<!-- Node4&#45;&gt;Node14 -->
<g id="edge10_Node000004_Node000014" class="edge">
<title>Node4&#45;&gt;Node14</title>
<g id="a_edge10_Node000004_Node000014"><a xlink:title=" ">
<path fill="none" stroke="#63b8ff" d="M314.33,-142.09C330.23,-141.48 347.07,-140.84 362.76,-140.23"/>
<polygon fill="#63b8ff" stroke="#63b8ff" points="362.59,-143.74 372.45,-139.86 362.32,-136.75 362.59,-143.74"/>
</a>
</g>
</g>
<!-- Node6 -->
<g id="Node000006" class="node">
<title>Node6</title>
<g id="a_Node000006"><a xlink:href="kest__expression_8c.html#ad94f03fbe1527e94e7f50f9d5fbda50b" target="_top" xlink:title=" ">
<polygon fill="#fff0f0" stroke="red" points="667.75,-276.5 552,-276.5 552,-243 667.75,-243 667.75,-276.5"/>
<text xml:space="preserve" text-anchor="start" x="560" y="-263" font-family="Helvetica,sans-Serif" font-size="10.00">kest_expression_get</text>
<text xml:space="preserve" text-anchor="middle" x="609.88" y="-250.25" font-family="Helvetica,sans-Serif" font-size="10.00">_references_rec</text>
</a>
</g>
</g>
<!-- Node5&#45;&gt;Node6 -->
<g id="edge5_Node000005_Node000006" class="edge">
<title>Node5&#45;&gt;Node6</title>
<g id="a_edge5_Node000005_Node000006"><a xlink:title=" ">
<path fill="none" stroke="#63b8ff" d="M486.75,-259.75C503.74,-259.75 522.52,-259.75 540.16,-259.75"/>
<polygon fill="#63b8ff" stroke="#63b8ff" points="540.04,-263.25 550.04,-259.75 540.04,-256.25 540.04,-263.25"/>
</a>
</g>
</g>
<!-- Node6&#45;&gt;Node6 -->
<g id="edge6_Node000006_Node000006" class="edge">
<title>Node6&#45;&gt;Node6</title>
<g id="a_edge6_Node000006_Node000006"><a xlink:title=" ">
<path fill="none" stroke="#63b8ff" d="M581.25,-276.91C576.38,-286.12 585.93,-294.5 609.88,-294.5 623.35,-294.5 632.26,-291.85 636.61,-287.89"/>
<polygon fill="#63b8ff" stroke="#63b8ff" points="640,-288.85 638.25,-278.41 633.1,-287.67 640,-288.85"/>
</a>
</g>
</g>
<!-- Node6&#45;&gt;Node8 -->
<g id="edge7_Node000006_Node000008" class="edge">
<title>Node6&#45;&gt;Node8</title>
<g id="a_edge7_Node000006_Node000008"><a xlink:title=" ">
<path fill="none" stroke="#63b8ff" d="M668.09,-251.38C679.29,-249.74 691.11,-248.01 702.55,-246.34"/>
<polygon fill="#63b8ff" stroke="#63b8ff" points="702.95,-249.82 712.34,-244.91 701.94,-242.89 702.95,-249.82"/>
</a>
</g>
</g>
<!-- Node16 -->
<g id="Node000016" class="node">
<title>Node16</title>
<g id="a_Node000016"><a xlink:href="kest__alloc_8c.html#ac3afebacd5118241e9f677df59a469b0" target="_top" xlink:title=" ">
<polygon fill="white" stroke="#666666" points="806.38,-91.12 731.88,-91.12 731.88,-70.38 806.38,-70.38 806.38,-91.12"/>
<text xml:space="preserve" text-anchor="middle" x="769.12" y="-77.62" font-family="Helvetica,sans-Serif" font-size="10.00">kest_realloc</text>
</a>
</g>
</g>
<!-- Node15&#45;&gt;Node16 -->
<g id="edge12_Node000015_Node000016" class="edge">
<title>Node15&#45;&gt;Node16</title>
<g id="a_edge12_Node000015_Node000016"><a xlink:title=" ">
<path fill="none" stroke="#63b8ff" d="M678.48,-80.75C692.64,-80.75 707.29,-80.75 720.54,-80.75"/>
<polygon fill="#63b8ff" stroke="#63b8ff" points="720.26,-84.25 730.26,-80.75 720.26,-77.25 720.26,-84.25"/>
</a>
</g>
</g>
<!-- Node17 -->
<g id="Node000017" class="node">
<title>Node17</title>
<g id="a_Node000017"><a xlink:href="kest__alloc_8c.html#a849755c5dc5b35e712ffcdb602e50fb4" target="_top" xlink:title=" ">
<polygon fill="white" stroke="#666666" points="924.75,-111.12 860,-111.12 860,-90.38 924.75,-90.38 924.75,-111.12"/>
<text xml:space="preserve" text-anchor="middle" x="892.38" y="-97.62" font-family="Helvetica,sans-Serif" font-size="10.00">kest_alloc</text>
</a>
</g>
</g>
<!-- Node16&#45;&gt;Node17 -->
<g id="edge13_Node000016_Node000017" class="edge">
<title>Node16&#45;&gt;Node17</title>
<g id="a_edge13_Node000016_Node000017"><a xlink:title=" ">
<path fill="none" stroke="#63b8ff" d="M806.83,-86.8C820.01,-88.98 834.98,-91.45 848.63,-93.7"/>
<polygon fill="#63b8ff" stroke="#63b8ff" points="847.78,-97.11 858.22,-95.28 848.92,-90.2 847.78,-97.11"/>
</a>
</g>
</g>
<!-- Node18 -->
<g id="Node000018" class="node">
<title>Node18</title>
<g id="a_Node000018"><a xlink:href="kest__alloc_8c.html#a294af5728a94aa316fcf65304d388d48" target="_top" xlink:title=" ">
<polygon fill="white" stroke="#666666" points="922.88,-72.12 861.88,-72.12 861.88,-51.38 922.88,-51.38 922.88,-72.12"/>
<text xml:space="preserve" text-anchor="middle" x="892.38" y="-58.62" font-family="Helvetica,sans-Serif" font-size="10.00">kest_free</text>
</a>
</g>
</g>
<!-- Node16&#45;&gt;Node18 -->
<g id="edge14_Node000016_Node000018" class="edge">
<title>Node16&#45;&gt;Node18</title>
<g id="a_edge14_Node000016_Node000018"><a xlink:title=" ">
<path fill="none" stroke="#63b8ff" d="M806.83,-75C820.69,-72.83 836.54,-70.34 850.74,-68.12"/>
<polygon fill="#63b8ff" stroke="#63b8ff" points="850.87,-71.64 860.21,-66.63 849.79,-64.72 850.87,-71.64"/>
</a>
</g>
</g>
<!-- Node19&#45;&gt;Node15 -->
<g id="edge16_Node000019_Node000015" class="edge">
<title>Node19&#45;&gt;Node15</title>
<g id="a_edge16_Node000019_Node000015"><a xlink:title=" ">
<path fill="none" stroke="#63b8ff" d="M505.83,-69.84C513.8,-70.68 521.92,-71.54 529.92,-72.39"/>
<polygon fill="#63b8ff" stroke="#63b8ff" points="529.31,-75.84 539.62,-73.41 530.04,-68.88 529.31,-75.84"/>
</a>
</g>
</g>
<!-- Node20&#45;&gt;Node19 -->
<g id="edge18_Node000020_Node000019" class="edge">
<title>Node20&#45;&gt;Node19</title>
<g id="a_edge18_Node000020_Node000019"><a xlink:title=" ">
<path fill="none" stroke="#63b8ff" d="M312.78,-33.44C332.43,-38.29 353.65,-43.53 372.43,-48.16"/>
<polygon fill="#63b8ff" stroke="#63b8ff" points="371.45,-51.53 382,-50.52 373.13,-44.73 371.45,-51.53"/>
</a>
</g>
</g>
</g>
</svg>

<g id="navigator" transform="translate(0 0)" fill="#404254">
  <rect fill="#f2f5e9" fill-opacity="0.5" stroke="#606060" stroke-width=".5" x="0" y="0" width="60" height="60"/>
  <use id="zoomplus" xlink:href="#zoomPlus" x="17" y="9" onmousedown="handleZoom(evt,'in')"/>
  <use id="zoomminus" xlink:href="#zoomMin" x="42" y="9" onmousedown="handleZoom(evt,'out')"/>
  <use id="reset" xlink:href="#resetDef" x="30" y="36" onmousedown="handleReset()"/>
   <use id="arrowup" xlink:href="#arrowUp" x="0" y="0" onmousedown="handlePan(0,-1)"/>
  <use id="arrowright" xlink:href="#arrowRight" x="0" y="0" onmousedown="handlePan(1,0)"/>
  <use id="arrowdown" xlink:href="#arrowDown" x="0" y="0" onmousedown="handlePan(0,1)"/>
  <use id="arrowleft" xlink:href="#arrowLeft" x="0" y="0" onmousedown="handlePan(-1,0)"/>
</g>
<svg viewBox="0 0 15 15" width="100%" height="30px" preserveAspectRatio="xMaxYMin meet">
 <g id="arrow_out" transform="scale(0.3 0.3)">
  <a xlink:href="kest__fpga__encoding_8c_a671c5c9aca5f0e8197dbccbc0dd8291c_cgraph_org.svg" target="_base">
   <rect id="button" ry="5" rx="5" y="6" x="6" height="38" width="38"
        fill="#f2f5e9" fill-opacity="0.5" stroke="#606060" stroke-width="1.0"/>
   <path id="arrow"
     d="M 11.500037,31.436501 C 11.940474,20.09759 22.043105,11.32322 32.158766,21.979434 L 37.068811,17.246167 C 37.068811,17.246167 37.088388,32 37.088388,32 L 22.160133,31.978069 C 22.160133,31.978069 26.997745,27.140456 26.997745,27.140456 C 18.528582,18.264221 13.291696,25.230495 11.500037,31.436501 z"
     style="fill:#404040;"/>
  </a>
 </g>
</svg>

<style type='text/css'>
<![CDATA[
[data-mouse-over-selected='false'] { opacity: 0.7; }
[data-mouse-over-selected='true']  { opacity: 1.0; }
]]>
</style>
<script type="application/ecmascript"><![CDATA[
document.addEventListener('DOMContentLoaded', (event) => {
  highlightEdges();
  highlightAdjacentNodes();
});
]]></script>
</svg>
