<?xml version="1.0" encoding="UTF-8" standalone="no"?>
<!DOCTYPE svg PUBLIC "-//W3C//DTD SVG 1.1//EN"
 "http://www.w3.org/Graphics/SVG/1.1/DTD/svg11.dtd">
<!-- Generated by graphviz version 13.1.2 (20250808.2320)
 -->
<!-- Title: kest_effect_deactivate_dma_async Pages: 1 -->
<svg width="618pt" height="129pt"
 viewBox="0.00 0.00 618.00 129.00" xmlns="http://www.w3.org/2000/svg" xmlns:xlink="http://www.w3.org/1999/xlink">
<g id="graph0" class="graph" transform="scale(1 1) rotate(0) translate(4 124.5)">
<title>kest_effect_deactivate_dma_async</title>
<!-- Node1 -->
<g id="Node000001" class="node">
<title>Node1</title>
<g id="a_Node000001"><a xlink:title=" ">
<polygon fill="#999999" stroke="#666666" points="127,-88.12 0,-88.12 0,-54.62 127,-54.62 127,-88.12"/>
<text xml:space="preserve" text-anchor="start" x="8" y="-74.62" font-family="Helvetica,sans-Serif" font-size="10.00">kest_effect_deactivate</text>
<text xml:space="preserve" text-anchor="middle" x="63.5" y="-61.88" font-family="Helvetica,sans-Serif" font-size="10.00">_dma_async</text>
</a>
</g>
</g>
<!-- Node2 -->
<g id="Node000002" class="node">
<title>Node2</title>
<g id="a_Node000002"><a xlink:href="kest__fpga__dma_8c.html#a4af427e853b9c72a314b649c0ecf003e" target="_top" xlink:title=" ">
<polygon fill="white" stroke="#666666" points="296.75,-88.12 163,-88.12 163,-54.62 296.75,-54.62 296.75,-88.12"/>
<text xml:space="preserve" text-anchor="start" x="171" y="-74.62" font-family="Helvetica,sans-Serif" font-size="10.00">kest_fpga_periodic</text>
<text xml:space="preserve" text-anchor="middle" x="229.88" y="-61.88" font-family="Helvetica,sans-Serif" font-size="10.00">_read_deactivate_async</text>
</a>
</g>
</g>
<!-- Node1&#45;&gt;Node2 -->
<g id="edge1_Node000001_Node000002" class="edge">
<title>Node1&#45;&gt;Node2</title>
<g id="a_edge1_Node000001_Node000002"><a xlink:title=" ">
<path fill="none" stroke="#63b8ff" d="M127.11,-71.38C135.01,-71.38 143.15,-71.38 151.24,-71.38"/>
<polygon fill="#63b8ff" stroke="#63b8ff" points="151.1,-74.88 161.1,-71.38 151.1,-67.88 151.1,-74.88"/>
</a>
</g>
</g>
<!-- Node3 -->
<g id="Node000003" class="node">
<title>Node3</title>
<g id="a_Node000003"><a xlink:href="kest__fpga__dma_8c.html#a5200af5bcaf64fa08b1a7e567e56060c" target="_top" xlink:title=" ">
<polygon fill="white" stroke="#666666" points="466.5,-120.5 332.75,-120.5 332.75,-74.25 466.5,-74.25 466.5,-120.5"/>
<text xml:space="preserve" text-anchor="start" x="340.75" y="-107" font-family="Helvetica,sans-Serif" font-size="10.00">kest_fpga_periodic</text>
<text xml:space="preserve" text-anchor="start" x="340.75" y="-94.25" font-family="Helvetica,sans-Serif" font-size="10.00">_read_deactivate_async</text>
<text xml:space="preserve" text-anchor="middle" x="399.62" y="-81.5" font-family="Helvetica,sans-Serif" font-size="10.00">_wrapper</text>
</a>
</g>
</g>
<!-- Node2&#45;&gt;Node3 -->
<g id="edge2_Node000002_Node000003" class="edge">
<title>Node2&#45;&gt;Node3</title>
<g id="a_edge2_Node000002_Node000003"><a xlink:title=" ">
<path fill="none" stroke="#63b8ff" d="M297.17,-81.65C305.02,-82.87 313.07,-84.12 321.06,-85.35"/>
<polygon fill="#63b8ff" stroke="#63b8ff" points="320.34,-88.78 330.76,-86.86 321.42,-81.87 320.34,-88.78"/>
</a>
</g>
</g>
<!-- Node5 -->
<g id="Node000005" class="node">
<title>Node5</title>
<g id="a_Node000005"><a xlink:href="kest__ui_8c.html#abb436cbf4403efe8fe122cdfbcaa3a76" target="_top" xlink:title=" ">
<polygon fill="white" stroke="#666666" points="453,-55.75 346.25,-55.75 346.25,-35 453,-35 453,-55.75"/>
<text xml:space="preserve" text-anchor="middle" x="399.62" y="-42.25" font-family="Helvetica,sans-Serif" font-size="10.00">kest_ui_async_call</text>
</a>
</g>
</g>
<!-- Node2&#45;&gt;Node5 -->
<g id="edge4_Node000002_Node000005" class="edge">
<title>Node2&#45;&gt;Node5</title>
<g id="a_edge4_Node000002_Node000005"><a xlink:title=" ">
<path fill="none" stroke="#63b8ff" d="M297.17,-61.1C309.58,-59.18 322.53,-57.17 334.86,-55.26"/>
<polygon fill="#63b8ff" stroke="#63b8ff" points="335.14,-58.76 344.49,-53.77 334.07,-51.84 335.14,-58.76"/>
</a>
</g>
</g>
<!-- Node4 -->
<g id="Node000004" class="node">
<title>Node4</title>
<g id="a_Node000004"><a xlink:href="kest__fpga__dma_8c.html#a01e8a435d07261ee581aec6d7c65ed81" target="_top" xlink:title=" ">
<polygon fill="white" stroke="#666666" points="610,-114.12 502.5,-114.12 502.5,-80.62 610,-80.62 610,-114.12"/>
<text xml:space="preserve" text-anchor="start" x="510.5" y="-100.62" font-family="Helvetica,sans-Serif" font-size="10.00">kest_fpga_periodic</text>
<text xml:space="preserve" text-anchor="middle" x="556.25" y="-87.88" font-family="Helvetica,sans-Serif" font-size="10.00">_read_deactivate</text>
</a>
</g>
</g>
<!-- Node3&#45;&gt;Node4 -->
<g id="edge3_Node000003_Node000004" class="edge">
<title>Node3&#45;&gt;Node4</title>
<g id="a_edge3_Node000003_Node000004"><a xlink:title=" ">
<path fill="none" stroke="#63b8ff" d="M466.65,-97.38C474.59,-97.38 482.69,-97.38 490.62,-97.38"/>
<polygon fill="#63b8ff" stroke="#63b8ff" points="490.54,-100.88 500.54,-97.38 490.54,-93.88 490.54,-100.88"/>
</a>
</g>
</g>
<!-- Node6 -->
<g id="Node000006" class="node">
<title>Node6</title>
<g id="a_Node000006"><a xlink:href="kest__ui_8c.html#aebba54d5d7fa842d060318e7305ab00a" target="_top" xlink:title=" ">
<polygon fill="white" stroke="#666666" points="594.25,-59.75 518.25,-59.75 518.25,-39 594.25,-39 594.25,-59.75"/>
<text xml:space="preserve" text-anchor="middle" x="556.25" y="-46.25" font-family="Helvetica,sans-Serif" font-size="10.00">kest_ui_lock</text>
</a>
</g>
</g>
<!-- Node5&#45;&gt;Node6 -->
<g id="edge5_Node000005_Node000006" class="edge">
<title>Node5&#45;&gt;Node6</title>
<g id="a_edge5_Node000005_Node000006"><a xlink:title=" ">
<path fill="none" stroke="#63b8ff" d="M453.41,-46.74C470.61,-47.19 489.62,-47.68 506.51,-48.11"/>
<polygon fill="#63b8ff" stroke="#63b8ff" points="506.22,-51.61 516.31,-48.37 506.4,-44.61 506.22,-51.61"/>
</a>
</g>
</g>
<!-- Node7 -->
<g id="Node000007" class="node">
<title>Node7</title>
<g id="a_Node000007"><a xlink:href="kest__ui_8c.html#a0057bcc95db9fe3c57986a61175de9b0" target="_top" xlink:title=" ">
<polygon fill="white" stroke="#666666" points="600.25,-20.75 512.25,-20.75 512.25,0 600.25,0 600.25,-20.75"/>
<text xml:space="preserve" text-anchor="middle" x="556.25" y="-7.25" font-family="Helvetica,sans-Serif" font-size="10.00">kest_ui_unlock</text>
</a>
</g>
</g>
<!-- Node5&#45;&gt;Node7 -->
<g id="edge6_Node000005_Node000007" class="edge">
<title>Node5&#45;&gt;Node7</title>
<g id="a_edge6_Node000005_Node000007"><a xlink:title=" ">
<path fill="none" stroke="#63b8ff" d="M448.28,-34.59C464.95,-30.82 483.79,-26.55 500.96,-22.66"/>
<polygon fill="#63b8ff" stroke="#63b8ff" points="501.5,-26.13 510.48,-20.51 499.96,-19.3 501.5,-26.13"/>
</a>
</g>
</g>
</g>
</svg>
