<?xml version="1.0" encoding="UTF-8" standalone="no"?>
<!DOCTYPE svg PUBLIC "-//W3C//DTD SVG 1.1//EN"
 "http://www.w3.org/Graphics/SVG/1.1/DTD/svg11.dtd">
<!-- Generated by graphviz version 13.1.2 (20250808.2320)
 -->
<!-- Title: kest_preset_if_active_update_fpga Pages: 1 -->
<!--zoomable 222 -->

<svg id="main" version="1.1" xmlns="http://www.w3.org/2000/svg" xmlns:xlink="http://www.w3.org/1999/xlink" xml:space="preserve" onload="init(evt)">

<style type="text/css"><![CDATA[
.node, .edge {opacity: 0.7;}
.node.selected, .edge.selected {opacity: 1;}
.edge:hover path { stroke: red; }
.edge:hover polygon { stroke: red; fill: red; }
]]></style>

<defs>
  <circle id="rim" cx="0" cy="0" r="7"/>
  <circle id="rim2" cx="0" cy="0" r="3.5"/>
  <g id="zoomPlus">
    <use xlink:href="#rim" fill="#404040"><set attributeName="fill" to="#808080" begin="zoomplus.mouseover" end="zoomplus.mouseout"/></use>
    <path d="M-4,0h8M0,-4v8" fill="none" stroke="white" stroke-width="1.5" pointer-events="none"/>
  </g>
  <g id="zoomMin">
    <use xlink:href="#rim" fill="#404040"><set attributeName="fill" to="#808080" begin="zoomminus.mouseover" end="zoomminus.mouseout"/></use>
    <path d="M-4,0h8" fill="none" stroke="white" stroke-width="1.5" pointer-events="none"/>
  </g>
  <g id="arrowUp" transform="translate(30 24)">
    <use xlink:href="#rim"/>
    <path pointer-events="none" fill="none" stroke="white" stroke-width="1.5" d="M0,-3.0v7 M-2.5,-0.5L0,-3.0L2.5,-0.5"/>
  </g>
  <g id="arrowRight" transform="rotate(90) translate(36 -43)">
    <use xlink:href="#rim"/>
    <path pointer-events="none" fill="none" stroke="white" stroke-width="1.5" d="M0,-3.0v7 M-2.5,-0.5L0,-3.0L2.5,-0.5"/>
  </g>
  <g id="arrowDown" transform="rotate(180) translate(-30 -48)">
    <use xlink:href="#rim"/>
    <path pointer-events="none" fill="none" stroke="white" stroke-width="1.5" d="M0,-3.0v7 M-2.5,-0.5L0,-3.0L2.5,-0.5"/>
  </g>
  <g id="arrowLeft" transform="rotate(270) translate(-36 17)">
    <use xlink:href="#rim"/>
    <path pointer-events="none" fill="none" stroke="white" stroke-width="1.5" d="M0,-3.0v7 M-2.5,-0.5L0,-3.0L2.5,-0.5"/>
  </g>
  <g id="resetDef">
    <use xlink:href="#rim2" fill="#404040"><set attributeName="fill" to="#808080" begin="reset.mouseover" end="reset.mouseout"/></use>
  </g>
</defs>
<script type="application/ecmascript">
var viewWidth = 647;
var viewHeight = 222;
var sectionId = 'dynsection-20';
</script>
<script type="application/ecmascript" xlink:href="svg.min.js"/>
<svg id="graph" class="graph">
<g id="viewport">
<title>kest_preset_if_active_update_fpga</title>
<!-- Node1 -->
<g id="Node000001" class="node">
<title>Node1</title>
<g id="a_Node000001"><a xlink:title=" ">
<polygon fill="#999999" stroke="#666666" points="638.5,-117.12 519,-117.12 519,-83.62 638.5,-83.62 638.5,-117.12"/>
<text xml:space="preserve" text-anchor="start" x="527" y="-103.62" font-family="Helvetica,sans-Serif" font-size="10.00">kest_preset_if_active</text>
<text xml:space="preserve" text-anchor="middle" x="578.75" y="-90.88" font-family="Helvetica,sans-Serif" font-size="10.00">_update_fpga</text>
</a>
</g>
</g>
<!-- Node2 -->
<g id="Node000002" class="node">
<title>Node2</title>
<g id="a_Node000002"><a xlink:href="kest__effect__select_8c.html#a0a0604d69c6fbeb09b31db2ebff0e901" target="_top" xlink:title=" ">
<polygon fill="white" stroke="#666666" points="483,-200.75 335,-200.75 335,-180 483,-180 483,-200.75"/>
<text xml:space="preserve" text-anchor="middle" x="409" y="-187.25" font-family="Helvetica,sans-Serif" font-size="10.00">add_effect_from_menu_eff</text>
</a>
</g>
</g>
<!-- Node1&#45;&gt;Node2 -->
<g id="edge1_Node000001_Node000002" class="edge">
<title>Node1&#45;&gt;Node2</title>
<g id="a_edge1_Node000001_Node000002"><a xlink:title=" ">
<path fill="none" stroke="#63b8ff" d="M546.91,-124.12C528.95,-137.19 505.48,-153.01 483,-164.38 471.35,-170.26 458.05,-175.42 446.02,-179.56"/>
<polygon fill="#63b8ff" stroke="#63b8ff" points="548.58,-127.23 554.55,-118.48 544.42,-121.61 548.58,-127.23"/>
</a>
</g>
</g>
<!-- Node18 -->
<g id="Node000018" class="node">
<title>Node18</title>
<g id="a_Node000018"><a xlink:href="kest__preset_8c.html#a6eb249403dffdd2c577d35e20b6bd545" target="_top" xlink:title=" ">
<polygon fill="white" stroke="#666666" points="478.5,-155.75 339.5,-155.75 339.5,-135 478.5,-135 478.5,-155.75"/>
<text xml:space="preserve" text-anchor="middle" x="409" y="-142.25" font-family="Helvetica,sans-Serif" font-size="10.00">kest_preset_move_effect</text>
</a>
</g>
</g>
<!-- Node1&#45;&gt;Node18 -->
<g id="edge4_Node000001_Node000018" class="edge">
<title>Node1&#45;&gt;Node18</title>
<g id="a_edge4_Node000001_Node000018"><a xlink:title=" ">
<path fill="none" stroke="#63b8ff" d="M507.75,-119.69C499.42,-121.96 491.02,-124.23 483,-126.38 473.01,-129.05 462.23,-131.88 452.1,-134.52"/>
<polygon fill="#63b8ff" stroke="#63b8ff" points="508.46,-123.13 517.19,-117.12 506.62,-116.38 508.46,-123.13"/>
</a>
</g>
</g>
<!-- Node38 -->
<g id="Node000038" class="node">
<title>Node38</title>
<g id="a_Node000038"><a xlink:href="kest__preset_8c.html#a89148926bbc9e9114ca4b187a3fc8336" target="_top" xlink:title=" ">
<polygon fill="white" stroke="#666666" points="466.5,-117.12 351.5,-117.12 351.5,-83.62 466.5,-83.62 466.5,-117.12"/>
<text xml:space="preserve" text-anchor="start" x="359.5" y="-103.62" font-family="Helvetica,sans-Serif" font-size="10.00">kest_preset_remove</text>
<text xml:space="preserve" text-anchor="middle" x="409" y="-90.88" font-family="Helvetica,sans-Serif" font-size="10.00">_effect</text>
</a>
</g>
</g>
<!-- Node1&#45;&gt;Node38 -->
<g id="edge7_Node000001_Node000038" class="edge">
<title>Node1&#45;&gt;Node38</title>
<g id="a_edge7_Node000001_Node000038"><a xlink:title=" ">
<path fill="none" stroke="#63b8ff" d="M507.41,-100.38C493.91,-100.38 479.93,-100.38 466.92,-100.38"/>
<polygon fill="#63b8ff" stroke="#63b8ff" points="507.09,-103.88 517.09,-100.38 507.09,-96.88 507.09,-103.88"/>
</a>
</g>
</g>
<!-- Node40 -->
<g id="Node000040" class="node">
<title>Node40</title>
<g id="a_Node000040"><a xlink:href="kest__preset__view_8c.html#ae342f0eada18cee3f3c03ae3252a2950" target="_top" xlink:title=" ">
<polygon fill="white" stroke="#666666" points="291.12,-72.12 182.12,-72.12 182.12,-38.62 291.12,-38.62 291.12,-72.12"/>
<text xml:space="preserve" text-anchor="start" x="190.12" y="-58.62" font-family="Helvetica,sans-Serif" font-size="10.00">preset_view_effect</text>
<text xml:space="preserve" text-anchor="middle" x="236.62" y="-45.88" font-family="Helvetica,sans-Serif" font-size="10.00">_delete_cb</text>
</a>
</g>
</g>
<!-- Node1&#45;&gt;Node40 -->
<g id="edge11_Node000001_Node000040" class="edge">
<title>Node1&#45;&gt;Node40</title>
<g id="a_edge11_Node000001_Node000040"><a xlink:title=" ">
<path fill="none" stroke="#63b8ff" d="M511.14,-80.39C501.76,-78.08 492.18,-75.97 483,-74.38 417.76,-63 341.57,-58.44 291.6,-56.6"/>
<polygon fill="#63b8ff" stroke="#63b8ff" points="510.01,-83.71 520.57,-82.81 511.76,-76.94 510.01,-83.71"/>
</a>
</g>
</g>
<!-- Node41 -->
<g id="Node000041" class="node">
<title>Node41</title>
<g id="a_Node000041"><a xlink:href="kest__parameter__widget_8c.html#a22b7fa4ae5f9628f2da2155f58c2635c" target="_top" xlink:title=" ">
<polygon fill="white" stroke="#666666" points="459.75,-24.75 358.25,-24.75 358.25,-4 459.75,-4 459.75,-24.75"/>
<text xml:space="preserve" text-anchor="middle" x="409" y="-11.25" font-family="Helvetica,sans-Serif" font-size="10.00">sw_field_save_cb</text>
</a>
</g>
</g>
<!-- Node1&#45;&gt;Node41 -->
<g id="edge12_Node000001_Node000041" class="edge">
<title>Node1&#45;&gt;Node41</title>
<g id="a_edge12_Node000001_Node000041"><a xlink:title=" ">
<path fill="none" stroke="#63b8ff" d="M543.91,-76.97C526.25,-65.36 504,-51.66 483,-41.38 470.5,-35.25 456.24,-29.68 443.66,-25.22"/>
<polygon fill="#63b8ff" stroke="#63b8ff" points="541.69,-79.69 551.95,-82.32 545.57,-73.87 541.69,-79.69"/>
</a>
</g>
</g>
<!-- Node3 -->
<g id="Node000003" class="node">
<title>Node3</title>
<g id="a_Node000003"><a xlink:href="kest__effect__select_8c.html#a46b6d3a353595e72c7a17e6352e5a7a0" target="_top" xlink:title=" ">
<polygon fill="white" stroke="#666666" points="299,-214.12 174.25,-214.12 174.25,-180.62 299,-180.62 299,-214.12"/>
<text xml:space="preserve" text-anchor="start" x="182.25" y="-200.62" font-family="Helvetica,sans-Serif" font-size="10.00">create_effect_selector</text>
<text xml:space="preserve" text-anchor="middle" x="236.62" y="-187.88" font-family="Helvetica,sans-Serif" font-size="10.00">_button_ui_eff</text>
</a>
</g>
</g>
<!-- Node2&#45;&gt;Node3 -->
<g id="edge2_Node000002_Node000003" class="edge">
<title>Node2&#45;&gt;Node3</title>
<g id="a_edge2_Node000002_Node000003"><a xlink:title=" ">
<path fill="none" stroke="#63b8ff" d="M323.34,-193.85C315.24,-194.19 307.13,-194.52 299.31,-194.84"/>
<polygon fill="#63b8ff" stroke="#63b8ff" points="323.4,-197.35 333.24,-193.45 323.11,-190.36 323.4,-197.35"/>
</a>
</g>
</g>
<!-- Node4 -->
<g id="Node000004" class="node">
<title>Node4</title>
<g id="a_Node000004"><a xlink:href="kest__effect__select_8c.html#af5e1f2ec64c8c42ed66a3bc39c7411eb" target="_top" xlink:title=" ">
<polygon fill="#fff0f0" stroke="red" points="131.5,-214.12 6.75,-214.12 6.75,-180.62 131.5,-180.62 131.5,-214.12"/>
<text xml:space="preserve" text-anchor="start" x="14.75" y="-200.62" font-family="Helvetica,sans-Serif" font-size="10.00">create_effect_selector</text>
<text xml:space="preserve" text-anchor="middle" x="69.12" y="-187.88" font-family="Helvetica,sans-Serif" font-size="10.00">_ui_eff</text>
</a>
</g>
</g>
<!-- Node3&#45;&gt;Node4 -->
<g id="edge3_Node000003_Node000004" class="edge">
<title>Node3&#45;&gt;Node4</title>
<g id="a_edge3_Node000003_Node000004"><a xlink:title=" ">
<path fill="none" stroke="#63b8ff" d="M162.54,-197.38C152.28,-197.38 141.82,-197.38 131.8,-197.38"/>
<polygon fill="#63b8ff" stroke="#63b8ff" points="162.49,-200.88 172.49,-197.38 162.49,-193.88 162.49,-200.88"/>
</a>
</g>
</g>
<!-- Node19 -->
<g id="Node000019" class="node">
<title>Node19</title>
<g id="a_Node000019"><a xlink:href="kest__preset__view_8c.html#a008a1eea3d0cdeafc0934391a6801fa8" target="_top" xlink:title=" ">
<polygon fill="white" stroke="#666666" points="291.12,-162.12 182.12,-162.12 182.12,-128.62 291.12,-128.62 291.12,-162.12"/>
<text xml:space="preserve" text-anchor="start" x="190.12" y="-148.62" font-family="Helvetica,sans-Serif" font-size="10.00">preset_view_effect</text>
<text xml:space="preserve" text-anchor="middle" x="236.62" y="-135.88" font-family="Helvetica,sans-Serif" font-size="10.00">_moved_cb</text>
</a>
</g>
</g>
<!-- Node18&#45;&gt;Node19 -->
<g id="edge5_Node000018_Node000019" class="edge">
<title>Node18&#45;&gt;Node19</title>
<g id="a_edge5_Node000018_Node000019"><a xlink:title=" ">
<path fill="none" stroke="#63b8ff" d="M327.92,-145.38C315.58,-145.38 303.08,-145.38 291.49,-145.38"/>
<polygon fill="#63b8ff" stroke="#63b8ff" points="327.68,-148.88 337.68,-145.38 327.68,-141.88 327.68,-148.88"/>
</a>
</g>
</g>
<!-- Node20 -->
<g id="Node000020" class="node">
<title>Node20</title>
<g id="a_Node000020"><a xlink:href="kest__preset__view_8c.html#a7aa469a400baf1fdf82d314a2ad5ddbb" target="_top" xlink:title=" ">
<polygon fill="#fff0f0" stroke="red" points="117.25,-110.75 21,-110.75 21,-90 117.25,-90 117.25,-110.75"/>
<text xml:space="preserve" text-anchor="middle" x="69.12" y="-97.25" font-family="Helvetica,sans-Serif" font-size="10.00">init_preset_view</text>
</a>
</g>
</g>
<!-- Node19&#45;&gt;Node20 -->
<g id="edge6_Node000019_Node000020" class="edge">
<title>Node19&#45;&gt;Node20</title>
<g id="a_edge6_Node000019_Node000020"><a xlink:title=" ">
<path fill="none" stroke="#63b8ff" d="M170.98,-127.8C150.4,-122.2 128.24,-116.18 109.96,-111.21"/>
<polygon fill="#63b8ff" stroke="#63b8ff" points="169.86,-131.12 180.43,-130.37 171.7,-124.37 169.86,-131.12"/>
</a>
</g>
</g>
<!-- Node39 -->
<g id="Node000039" class="node">
<title>Node39</title>
<g id="a_Node000039"><a xlink:href="kest__context_8c.html#a3dabfbe87edbacbacf5badc8db3fd629" target="_top" xlink:title=" ">
<polygon fill="white" stroke="#666666" points="290.38,-110.75 182.88,-110.75 182.88,-90 290.38,-90 290.38,-110.75"/>
<text xml:space="preserve" text-anchor="middle" x="236.62" y="-97.25" font-family="Helvetica,sans-Serif" font-size="10.00">cxt_remove_effect</text>
</a>
</g>
</g>
<!-- Node38&#45;&gt;Node39 -->
<g id="edge8_Node000038_Node000039" class="edge">
<title>Node38&#45;&gt;Node39</title>
<g id="a_edge8_Node000038_Node000039"><a xlink:title=" ">
<path fill="none" stroke="#63b8ff" d="M340.06,-100.38C323.62,-100.38 306.29,-100.38 290.65,-100.38"/>
<polygon fill="#63b8ff" stroke="#63b8ff" points="339.75,-103.88 349.75,-100.38 339.75,-96.88 339.75,-103.88"/>
</a>
</g>
</g>
<!-- Node38&#45;&gt;Node40 -->
<g id="edge9_Node000038_Node000040" class="edge">
<title>Node38&#45;&gt;Node40</title>
<g id="a_edge9_Node000038_Node000040"><a xlink:title=" ">
<path fill="none" stroke="#63b8ff" d="M340.23,-82.48C324.04,-78.2 306.98,-73.69 291.51,-69.61"/>
<polygon fill="#63b8ff" stroke="#63b8ff" points="339.24,-85.83 349.8,-85 341.03,-79.07 339.24,-85.83"/>
</a>
</g>
</g>
<!-- Node40&#45;&gt;Node20 -->
<g id="edge10_Node000040_Node000020" class="edge">
<title>Node40&#45;&gt;Node20</title>
<g id="a_edge10_Node000040_Node000020"><a xlink:title=" ">
<path fill="none" stroke="#63b8ff" d="M170.98,-72.95C150.4,-78.55 128.24,-84.57 109.96,-89.54"/>
<polygon fill="#63b8ff" stroke="#63b8ff" points="171.7,-76.38 180.43,-70.38 169.86,-69.63 171.7,-76.38"/>
</a>
</g>
</g>
<!-- Node42 -->
<g id="Node000042" class="node">
<title>Node42</title>
<g id="a_Node000042"><a xlink:href="kest__parameter__widget_8c.html#a5a6ebded10138ba55624e195ae4f4309" target="_top" xlink:title=" ">
<polygon fill="white" stroke="#666666" points="285.12,-20.75 188.12,-20.75 188.12,0 285.12,0 285.12,-20.75"/>
<text xml:space="preserve" text-anchor="middle" x="236.62" y="-7.25" font-family="Helvetica,sans-Serif" font-size="10.00">edit_sw_field_cb</text>
</a>
</g>
</g>
<!-- Node41&#45;&gt;Node42 -->
<g id="edge13_Node000041_Node000042" class="edge">
<title>Node41&#45;&gt;Node42</title>
<g id="a_edge13_Node000041_Node000042"><a xlink:title=" ">
<path fill="none" stroke="#63b8ff" d="M346.54,-12.93C326.41,-12.46 304.37,-11.94 285.42,-11.5"/>
<polygon fill="#63b8ff" stroke="#63b8ff" points="346.21,-16.43 356.29,-13.16 346.38,-9.43 346.21,-16.43"/>
</a>
</g>
</g>
<!-- Node43 -->
<g id="Node000043" class="node">
<title>Node43</title>
<g id="a_Node000043"><a xlink:href="kest__parameter__widget_8c.html#a2074107eca4e8e2b3832c9f9f2e5f9f2" target="_top" xlink:title=" ">
<polygon fill="#fff0f0" stroke="red" points="138.25,-20.75 0,-20.75 0,0 138.25,0 138.25,-20.75"/>
<text xml:space="preserve" text-anchor="middle" x="69.12" y="-7.25" font-family="Helvetica,sans-Serif" font-size="10.00">setting_widget_create_ui</text>
</a>
</g>
</g>
<!-- Node42&#45;&gt;Node43 -->
<g id="edge14_Node000042_Node000043" class="edge">
<title>Node42&#45;&gt;Node43</title>
<g id="a_edge14_Node000042_Node000043"><a xlink:title=" ">
<path fill="none" stroke="#63b8ff" d="M176.28,-10.38C164.04,-10.38 151.04,-10.38 138.51,-10.38"/>
<polygon fill="#63b8ff" stroke="#63b8ff" points="176.24,-13.88 186.24,-10.38 176.24,-6.88 176.24,-13.88"/>
</a>
</g>
</g>
</g>
</svg>

<g id="navigator" transform="translate(0 0)" fill="#404254">
  <rect fill="#f2f5e9" fill-opacity="0.5" stroke="#606060" stroke-width=".5" x="0" y="0" width="60" height="60"/>
  <use id="zoomplus" xlink:href="#zoomPlus" x="17" y="9" onmousedown="handleZoom(evt,'in')"/>
  <use id="zoomminus" xlink:href="#zoomMin" x="42" y="9" onmousedown="handleZoom(evt,'out')"/>
  <use id="reset" xlink:href="#resetDef" x="30" y="36" onmousedown="handleReset()"/>
   <use id="arrowup" xlink:href="#arrowUp" x="0" y="0" onmousedown="handlePan(0,-1)"/>
  <use id="arrowright" xlink:href="#arrowRight" x="0" y="0" onmousedown="handlePan(1,0)"/>
  <use id="arrowdown" xlink:href="#arrowDown" x="0" y="0" onmousedown="handlePan(0,1)"/>
  <use id="arrowleft" xlink:href="#arrowLeft" x="0" y="0" onmousedown="handlePan(-1,0)"/>
</g>
<svg viewBox="0 0 15 15" width="100%" height="30px" preserveAspectRatio="xMaxYMin meet">
 <g id="arrow_out" transform="scale(0.3 0.3)">
  <a xlink:href="kest__preset_8h_a4786192624da0baccb9bd169d357c794_icgraph_org.svg" target="_base">
   <rect id="button" ry="5" rx="5" y="6" x="6" height="38" width="38"
        fill="#f2f5e9" fill-opacity="0.5" stroke="#606060" stroke-width="1.0"/>
   <path id="arrow"
     d="M 11.500037,31.436501 C 11.940474,20.09759 22.043105,11.32322 32.158766,21.979434 L 37.068811,17.246167 C 37.068811,17.246167 37.088388,32 37.088388,32 L 22.160133,31.978069 C 22.160133,31.978069 26.997745,27.140456 26.997745,27.140456 C 18.528582,18.264221 13.291696,25.230495 11.500037,31.436501 z"
     style="fill:#404040;"/>
  </a>
 </g>
</svg>

<style type='text/css'>
<![CDATA[
[data-mouse-over-selected='false'] { opacity: 0.7; }
[data-mouse-over-selected='true']  { opacity: 1.0; }
]]>
</style>
<script type="application/ecmascript"><![CDATA[
document.addEventListener('DOMContentLoaded', (event) => {
  highlightEdges();
  highlightAdjacentNodes();
});
]]></script>
</svg>
