<?xml version="1.0" encoding="UTF-8" standalone="no"?>
<!DOCTYPE svg PUBLIC "-//W3C//DTD SVG 1.1//EN"
 "http://www.w3.org/Graphics/SVG/1.1/DTD/svg11.dtd">
<!-- Generated by graphviz version 13.1.2 (20250808.2320)
 -->
<!-- Title: kest_instr_print Pages: 1 -->
<!--zoomable 113 -->

<svg id="main" version="1.1" xmlns="http://www.w3.org/2000/svg" xmlns:xlink="http://www.w3.org/1999/xlink" xml:space="preserve" onload="init(evt)">

<style type="text/css"><![CDATA[
.node, .edge {opacity: 0.7;}
.node.selected, .edge.selected {opacity: 1;}
.edge:hover path { stroke: red; }
.edge:hover polygon { stroke: red; fill: red; }
]]></style>

<defs>
  <circle id="rim" cx="0" cy="0" r="7"/>
  <circle id="rim2" cx="0" cy="0" r="3.5"/>
  <g id="zoomPlus">
    <use xlink:href="#rim" fill="#404040"><set attributeName="fill" to="#808080" begin="zoomplus.mouseover" end="zoomplus.mouseout"/></use>
    <path d="M-4,0h8M0,-4v8" fill="none" stroke="white" stroke-width="1.5" pointer-events="none"/>
  </g>
  <g id="zoomMin">
    <use xlink:href="#rim" fill="#404040"><set attributeName="fill" to="#808080" begin="zoomminus.mouseover" end="zoomminus.mouseout"/></use>
    <path d="M-4,0h8" fill="none" stroke="white" stroke-width="1.5" pointer-events="none"/>
  </g>
  <g id="arrowUp" transform="translate(30 24)">
    <use xlink:href="#rim"/>
    <path pointer-events="none" fill="none" stroke="white" stroke-width="1.5" d="M0,-3.0v7 M-2.5,-0.5L0,-3.0L2.5,-0.5"/>
  </g>
  <g id="arrowRight" transform="rotate(90) translate(36 -43)">
    <use xlink:href="#rim"/>
    <path pointer-events="none" fill="none" stroke="white" stroke-width="1.5" d="M0,-3.0v7 M-2.5,-0.5L0,-3.0L2.5,-0.5"/>
  </g>
  <g id="arrowDown" transform="rotate(180) translate(-30 -48)">
    <use xlink:href="#rim"/>
    <path pointer-events="none" fill="none" stroke="white" stroke-width="1.5" d="M0,-3.0v7 M-2.5,-0.5L0,-3.0L2.5,-0.5"/>
  </g>
  <g id="arrowLeft" transform="rotate(270) translate(-36 17)">
    <use xlink:href="#rim"/>
    <path pointer-events="none" fill="none" stroke="white" stroke-width="1.5" d="M0,-3.0v7 M-2.5,-0.5L0,-3.0L2.5,-0.5"/>
  </g>
  <g id="resetDef">
    <use xlink:href="#rim2" fill="#404040"><set attributeName="fill" to="#808080" begin="reset.mouseover" end="reset.mouseout"/></use>
  </g>
</defs>
<script type="application/ecmascript">
var viewWidth = 720;
var viewHeight = 113;
var sectionId = 'dynsection-4';
</script>
<script type="application/ecmascript" xlink:href="svg.min.js"/>
<svg id="graph" class="graph">
<g id="viewport">
<title>kest_instr_print</title>
<!-- Node1 -->
<g id="Node000001" class="node">
<title>Node1</title>
<g id="a_Node000001"><a xlink:title=" ">
<polygon fill="#999999" stroke="#666666" points="711.5,-49.12 620.5,-49.12 620.5,-28.38 711.5,-28.38 711.5,-49.12"/>
<text xml:space="preserve" text-anchor="middle" x="666" y="-35.62" font-family="Helvetica,sans-Serif" font-size="10.00">kest_instr_print</text>
</a>
</g>
</g>
<!-- Node2 -->
<g id="Node000002" class="node">
<title>Node2</title>
<g id="a_Node000002"><a xlink:href="kest__fpga__encoding_8c.html#a846915834c09759d6445b5dffc45b723" target="_top" xlink:title=" ">
<polygon fill="white" stroke="#666666" points="580,-80.12 456.75,-80.12 456.75,-59.38 580,-59.38 580,-80.12"/>
<text xml:space="preserve" text-anchor="middle" x="518.38" y="-66.62" font-family="Helvetica,sans-Serif" font-size="10.00">kest_fpga_batch_print</text>
</a>
</g>
</g>
<!-- Node1&#45;&gt;Node2 -->
<g id="edge1_Node000001_Node000002" class="edge">
<title>Node1&#45;&gt;Node2</title>
<g id="a_edge1_Node000001_Node000002"><a xlink:title=" ">
<path fill="none" stroke="#63b8ff" d="M609.11,-50.65C596.31,-53.37 582.78,-56.25 570.21,-58.93"/>
<polygon fill="#63b8ff" stroke="#63b8ff" points="609.59,-54.12 618.64,-48.62 608.13,-47.28 609.59,-54.12"/>
</a>
</g>
</g>
<!-- Node18 -->
<g id="Node000018" class="node">
<title>Node18</title>
<g id="a_Node000018"><a xlink:href="kest__fpga__comms_8c.html#a0e24c965de231bcab602b5b43acb805d" target="_top" xlink:title=" ">
<polygon fill="white" stroke="#666666" points="584.5,-33.5 452.25,-33.5 452.25,0 584.5,0 584.5,-33.5"/>
<text xml:space="preserve" text-anchor="start" x="460.25" y="-20" font-family="Helvetica,sans-Serif" font-size="10.00">kest_fpga_comms_print</text>
<text xml:space="preserve" text-anchor="middle" x="518.38" y="-7.25" font-family="Helvetica,sans-Serif" font-size="10.00">_full_scan</text>
</a>
</g>
</g>
<!-- Node1&#45;&gt;Node18 -->
<g id="edge9_Node000001_Node000018" class="edge">
<title>Node1&#45;&gt;Node18</title>
<g id="a_edge9_Node000001_Node000018"><a xlink:title=" ">
<path fill="none" stroke="#63b8ff" d="M608.89,-30.27C601.07,-29.09 592.97,-27.87 584.99,-26.66"/>
<polygon fill="#63b8ff" stroke="#63b8ff" points="608.21,-33.71 618.62,-31.74 609.26,-26.79 608.21,-33.71"/>
</a>
</g>
</g>
<!-- Node3 -->
<g id="Node000003" class="node">
<title>Node3</title>
<g id="a_Node000003"><a xlink:href="kest__fpga__comms_8c.html#a8f850777494bb4c4d61df3efbf31ca7c" target="_top" xlink:title=" ">
<polygon fill="white" stroke="#666666" points="233.75,-68.12 103,-68.12 103,-47.38 233.75,-47.38 233.75,-68.12"/>
<text xml:space="preserve" text-anchor="middle" x="168.38" y="-54.62" font-family="Helvetica,sans-Serif" font-size="10.00">kest_fpga_comms_task</text>
</a>
</g>
</g>
<!-- Node2&#45;&gt;Node3 -->
<g id="edge2_Node000002_Node000003" class="edge">
<title>Node2&#45;&gt;Node3</title>
<g id="a_edge2_Node000002_Node000003"><a xlink:title=" ">
<path fill="none" stroke="#63b8ff" d="M474.56,-83.83C456.74,-89 435.7,-94.2 416.25,-96.75 351.69,-105.22 333.75,-108.75 269.75,-96.75 241.08,-91.38 210.08,-78.07 190.24,-68.49"/>
<polygon fill="#63b8ff" stroke="#63b8ff" points="475.45,-87.22 484.02,-81 473.44,-80.51 475.45,-87.22"/>
</a>
</g>
</g>
<!-- Node16 -->
<g id="Node000016" class="node">
<title>Node16</title>
<g id="a_Node000016"><a xlink:href="kest__fpga__io_8c.html#a0e6e4e058cfd8f3ec79208acb0f71aa6" target="_top" xlink:title=" ">
<polygon fill="white" stroke="#666666" points="412.88,-88.12 273.12,-88.12 273.12,-67.38 412.88,-67.38 412.88,-88.12"/>
<text xml:space="preserve" text-anchor="middle" x="343" y="-74.62" font-family="Helvetica,sans-Serif" font-size="10.00">kest_fpga_set_input_gain</text>
</a>
</g>
</g>
<!-- Node2&#45;&gt;Node16 -->
<g id="edge5_Node000002_Node000016" class="edge">
<title>Node2&#45;&gt;Node16</title>
<g id="a_edge5_Node000002_Node000016"><a xlink:title=" ">
<path fill="none" stroke="#63b8ff" d="M445.35,-73.07C434.72,-73.56 423.78,-74.07 413.21,-74.56"/>
<polygon fill="#63b8ff" stroke="#63b8ff" points="445.4,-76.58 455.22,-72.62 445.07,-69.58 445.4,-76.58"/>
</a>
</g>
</g>
<!-- Node17 -->
<g id="Node000017" class="node">
<title>Node17</title>
<g id="a_Node000017"><a xlink:href="kest__fpga__io_8c.html#a6569f6bf656d72080dd355179ac2c4e9" target="_top" xlink:title=" ">
<polygon fill="white" stroke="#666666" points="416.25,-49.12 269.75,-49.12 269.75,-28.38 416.25,-28.38 416.25,-49.12"/>
<text xml:space="preserve" text-anchor="middle" x="343" y="-35.62" font-family="Helvetica,sans-Serif" font-size="10.00">kest_fpga_set_output_gain</text>
</a>
</g>
</g>
<!-- Node2&#45;&gt;Node17 -->
<g id="edge7_Node000002_Node000017" class="edge">
<title>Node2&#45;&gt;Node17</title>
<g id="a_edge7_Node000002_Node000017"><a xlink:title=" ">
<path fill="none" stroke="#63b8ff" d="M445.47,-56.89C431.89,-54.46 417.8,-51.95 404.6,-49.59"/>
<polygon fill="#63b8ff" stroke="#63b8ff" points="444.79,-60.33 455.25,-58.64 446.02,-53.44 444.79,-60.33"/>
</a>
</g>
</g>
<!-- Node4 -->
<g id="Node000004" class="node">
<title>Node4</title>
<g id="a_Node000004"><a xlink:href="kest__int_8c.html#abce06be17fc37d675118a678a8100a36" target="_top" xlink:title=" ">
<polygon fill="white" stroke="#666666" points="65.5,-88.12 1.5,-88.12 1.5,-67.38 65.5,-67.38 65.5,-88.12"/>
<text xml:space="preserve" text-anchor="middle" x="33.5" y="-74.62" font-family="Helvetica,sans-Serif" font-size="10.00">app_main</text>
</a>
</g>
</g>
<!-- Node3&#45;&gt;Node4 -->
<g id="edge3_Node000003_Node000004" class="edge">
<title>Node3&#45;&gt;Node4</title>
<g id="a_edge3_Node000003_Node000004"><a xlink:title=" ">
<path fill="none" stroke="#63b8ff" d="M91.67,-69.15C82.53,-70.52 73.63,-71.86 65.68,-73.06"/>
<polygon fill="#63b8ff" stroke="#63b8ff" points="92.02,-72.63 101.39,-67.68 90.98,-65.71 92.02,-72.63"/>
</a>
</g>
</g>
<!-- Node5 -->
<g id="Node000005" class="node">
<title>Node5</title>
<g id="a_Node000005"><a xlink:href="kest__desktop_8c.html#ab499a4f71ef4cfc807b60d8739750c3e" target="_top" xlink:title=" ">
<polygon fill="#fff0f0" stroke="red" points="67,-49.12 0,-49.12 0,-28.38 67,-28.38 67,-49.12"/>
<text xml:space="preserve" text-anchor="middle" x="33.5" y="-35.62" font-family="Helvetica,sans-Serif" font-size="10.00">main_task</text>
</a>
</g>
</g>
<!-- Node3&#45;&gt;Node5 -->
<g id="edge4_Node000003_Node000005" class="edge">
<title>Node3&#45;&gt;Node5</title>
<g id="a_edge4_Node000003_Node000005"><a xlink:title=" ">
<path fill="none" stroke="#63b8ff" d="M91.66,-46.92C83.18,-45.71 74.91,-44.53 67.41,-43.46"/>
<polygon fill="#63b8ff" stroke="#63b8ff" points="90.99,-50.36 101.39,-48.31 91.98,-43.43 90.99,-50.36"/>
</a>
</g>
</g>
<!-- Node16&#45;&gt;Node3 -->
<g id="edge6_Node000016_Node000003" class="edge">
<title>Node16&#45;&gt;Node3</title>
<g id="a_edge6_Node000016_Node000003"><a xlink:title=" ">
<path fill="none" stroke="#63b8ff" d="M261.62,-68.44C252.4,-67.37 243.1,-66.29 234.13,-65.25"/>
<polygon fill="#63b8ff" stroke="#63b8ff" points="260.94,-71.88 271.28,-69.56 261.75,-64.93 260.94,-71.88"/>
</a>
</g>
</g>
<!-- Node17&#45;&gt;Node3 -->
<g id="edge8_Node000017_Node000003" class="edge">
<title>Node17&#45;&gt;Node3</title>
<g id="a_edge8_Node000017_Node000003"><a xlink:title=" ">
<path fill="none" stroke="#63b8ff" d="M257.97,-48C249.93,-48.88 241.86,-49.77 234.05,-50.63"/>
<polygon fill="#63b8ff" stroke="#63b8ff" points="258.23,-51.49 267.79,-46.92 257.46,-44.53 258.23,-51.49"/>
</a>
</g>
</g>
<!-- Node18&#45;&gt;Node3 -->
<g id="edge10_Node000018_Node000003" class="edge">
<title>Node18&#45;&gt;Node3</title>
<g id="a_edge10_Node000018_Node000003"><a xlink:title=" ">
<path fill="none" stroke="#63b8ff" d="M440.64,-10.84C391.38,-8.72 326.28,-9.05 269.75,-19.75 241.56,-25.09 210.96,-37.75 191.05,-47"/>
<polygon fill="#63b8ff" stroke="#63b8ff" points="440.18,-14.32 450.34,-11.3 440.52,-7.33 440.18,-14.32"/>
</a>
</g>
</g>
</g>
</svg>

<g id="navigator" transform="translate(0 0)" fill="#404254">
  <rect fill="#f2f5e9" fill-opacity="0.5" stroke="#606060" stroke-width=".5" x="0" y="0" width="60" height="60"/>
  <use id="zoomplus" xlink:href="#zoomPlus" x="17" y="9" onmousedown="handleZoom(evt,'in')"/>
  <use id="zoomminus" xlink:href="#zoomMin" x="42" y="9" onmousedown="handleZoom(evt,'out')"/>
  <use id="reset" xlink:href="#resetDef" x="30" y="36" onmousedown="handleReset()"/>
   <use id="arrowup" xlink:href="#arrowUp" x="0" y="0" onmousedown="handlePan(0,-1)"/>
  <use id="arrowright" xlink:href="#arrowRight" x="0" y="0" onmousedown="handlePan(1,0)"/>
  <use id="arrowdown" xlink:href="#arrowDown" x="0" y="0" onmousedown="handlePan(0,1)"/>
  <use id="arrowleft" xlink:href="#arrowLeft" x="0" y="0" onmousedown="handlePan(-1,0)"/>
</g>
<svg viewBox="0 0 15 15" width="100%" height="30px" preserveAspectRatio="xMaxYMin meet">
 <g id="arrow_out" transform="scale(0.3 0.3)">
  <a xlink:href="kest__fpga__instr_8h_a332dd47f4fc03bf2b8b10bfe7a55d6e3_icgraph_org.svg" target="_base">
   <rect id="button" ry="5" rx="5" y="6" x="6" height="38" width="38"
        fill="#f2f5e9" fill-opacity="0.5" stroke="#606060" stroke-width="1.0"/>
   <path id="arrow"
     d="M 11.500037,31.436501 C 11.940474,20.09759 22.043105,11.32322 32.158766,21.979434 L 37.068811,17.246167 C 37.068811,17.246167 37.088388,32 37.088388,32 L 22.160133,31.978069 C 22.160133,31.978069 26.997745,27.140456 26.997745,27.140456 C 18.528582,18.264221 13.291696,25.230495 11.500037,31.436501 z"
     style="fill:#404040;"/>
  </a>
 </g>
</svg>

<style type='text/css'>
<![CDATA[
[data-mouse-over-selected='false'] { opacity: 0.7; }
[data-mouse-over-selected='true']  { opacity: 1.0; }
]]>
</style>
<script type="application/ecmascript"><![CDATA[
document.addEventListener('DOMContentLoaded', (event) => {
  highlightEdges();
  highlightAdjacentNodes();
});
]]></script>
</svg>
