<?xml version="1.0" encoding="UTF-8" standalone="no"?>
<!DOCTYPE svg PUBLIC "-//W3C//DTD SVG 1.1//EN"
 "http://www.w3.org/Graphics/SVG/1.1/DTD/svg11.dtd">
<!-- Generated by graphviz version 13.1.2 (20250808.2320)
 -->
<!-- Title: kest_expr_init_sub Pages: 1 -->
<svg width="615pt" height="94pt"
 viewBox="0.00 0.00 615.00 94.00" xmlns="http://www.w3.org/2000/svg" xmlns:xlink="http://www.w3.org/1999/xlink">
<g id="graph0" class="graph" transform="scale(1 1) rotate(0) translate(4 89.5)">
<title>kest_expr_init_sub</title>
<!-- Node1 -->
<g id="Node000001" class="node">
<title>Node1</title>
<g id="a_Node000001"><a xlink:title=" ">
<polygon fill="#999999" stroke="#666666" points="607,-53.12 500.25,-53.12 500.25,-32.38 607,-32.38 607,-53.12"/>
<text xml:space="preserve" text-anchor="middle" x="553.62" y="-39.62" font-family="Helvetica,sans-Serif" font-size="10.00">kest_expr_init_sub</text>
</a>
</g>
</g>
<!-- Node2 -->
<g id="Node000002" class="node">
<title>Node2</title>
<g id="a_Node000002"><a xlink:href="kest__expression_8c.html#a91f074f7596d8adca0d0aa258e8af07b" target="_top" xlink:title=" ">
<polygon fill="white" stroke="#666666" points="464.25,-85.5 344,-85.5 344,-52 464.25,-52 464.25,-85.5"/>
<text xml:space="preserve" text-anchor="start" x="352" y="-72" font-family="Helvetica,sans-Serif" font-size="10.00">kest_expr_create_hpf</text>
<text xml:space="preserve" text-anchor="middle" x="404.12" y="-59.25" font-family="Helvetica,sans-Serif" font-size="10.00">_coefficients</text>
</a>
</g>
</g>
<!-- Node1&#45;&gt;Node2 -->
<g id="edge1_Node000001_Node000002" class="edge">
<title>Node1&#45;&gt;Node2</title>
<g id="a_edge1_Node000001_Node000002"><a xlink:title=" ">
<path fill="none" stroke="#63b8ff" d="M488.64,-54.03C480.66,-55.44 472.52,-56.87 464.61,-58.27"/>
<polygon fill="#63b8ff" stroke="#63b8ff" points="489.06,-57.51 498.3,-52.33 487.84,-50.62 489.06,-57.51"/>
</a>
</g>
</g>
<!-- Node12 -->
<g id="Node000012" class="node">
<title>Node12</title>
<g id="a_Node000012"><a xlink:href="kest__expression_8c.html#aea416c62dca448928915608d29bd2583" target="_top" xlink:title=" ">
<polygon fill="#fff0f0" stroke="red" points="462.75,-33.5 345.5,-33.5 345.5,0 462.75,0 462.75,-33.5"/>
<text xml:space="preserve" text-anchor="start" x="353.5" y="-20" font-family="Helvetica,sans-Serif" font-size="10.00">kest_expr_create_lpf</text>
<text xml:space="preserve" text-anchor="middle" x="404.12" y="-7.25" font-family="Helvetica,sans-Serif" font-size="10.00">_coefficients</text>
</a>
</g>
</g>
<!-- Node1&#45;&gt;Node12 -->
<g id="edge4_Node000001_Node000012" class="edge">
<title>Node1&#45;&gt;Node12</title>
<g id="a_edge4_Node000001_Node000012"><a xlink:title=" ">
<path fill="none" stroke="#63b8ff" d="M488.73,-31.49C480.21,-29.98 471.5,-28.45 463.09,-26.97"/>
<polygon fill="#63b8ff" stroke="#63b8ff" points="487.84,-34.88 498.3,-33.17 489.06,-27.99 487.84,-34.88"/>
</a>
</g>
</g>
<!-- Node3 -->
<g id="Node000003" class="node">
<title>Node3</title>
<g id="a_Node000003"><a xlink:href="kest__dict__extract_8c.html#acbfde8ff56b8c5bed262375de5a2fc76" target="_top" xlink:title=" ">
<polygon fill="white" stroke="#666666" points="308,-79.12 159.25,-79.12 159.25,-58.38 308,-58.38 308,-79.12"/>
<text xml:space="preserve" text-anchor="middle" x="233.62" y="-65.62" font-family="Helvetica,sans-Serif" font-size="10.00">kest_extract_hpf_from_dict</text>
</a>
</g>
</g>
<!-- Node2&#45;&gt;Node3 -->
<g id="edge2_Node000002_Node000003" class="edge">
<title>Node2&#45;&gt;Node3</title>
<g id="a_edge2_Node000002_Node000003"><a xlink:title=" ">
<path fill="none" stroke="#63b8ff" d="M332.25,-68.75C324.32,-68.75 316.22,-68.75 308.26,-68.75"/>
<polygon fill="#63b8ff" stroke="#63b8ff" points="332.2,-72.25 342.2,-68.75 332.2,-65.25 332.2,-72.25"/>
</a>
</g>
</g>
<!-- Node4 -->
<g id="Node000004" class="node">
<title>Node4</title>
<g id="a_Node000004"><a xlink:href="kest__dict__extract_8c.html#ad78dabb9f962180138c9dfc2bf1731e3" target="_top" xlink:title=" ">
<polygon fill="#fff0f0" stroke="red" points="123.25,-85.5 0,-85.5 0,-52 123.25,-52 123.25,-85.5"/>
<text xml:space="preserve" text-anchor="start" x="8" y="-72" font-family="Helvetica,sans-Serif" font-size="10.00">kest_extract_resource</text>
<text xml:space="preserve" text-anchor="middle" x="61.62" y="-59.25" font-family="Helvetica,sans-Serif" font-size="10.00">_from_dict</text>
</a>
</g>
</g>
<!-- Node3&#45;&gt;Node4 -->
<g id="edge3_Node000003_Node000004" class="edge">
<title>Node3&#45;&gt;Node4</title>
<g id="a_edge3_Node000003_Node000004"><a xlink:title=" ">
<path fill="none" stroke="#63b8ff" d="M147.61,-68.75C139.49,-68.75 131.37,-68.75 123.55,-68.75"/>
<polygon fill="#63b8ff" stroke="#63b8ff" points="147.54,-72.25 157.54,-68.75 147.54,-65.25 147.54,-72.25"/>
</a>
</g>
</g>
</g>
</svg>
