<?xml version="1.0" encoding="UTF-8" standalone="no"?>
<!DOCTYPE svg PUBLIC "-//W3C//DTD SVG 1.1//EN"
 "http://www.w3.org/Graphics/SVG/1.1/DTD/svg11.dtd">
<!-- Generated by graphviz version 13.1.2 (20250808.2320)
 -->
<!-- Title: kest_expr_init_div Pages: 1 -->
<svg width="613pt" height="161pt"
 viewBox="0.00 0.00 613.00 161.00" xmlns="http://www.w3.org/2000/svg" xmlns:xlink="http://www.w3.org/1999/xlink">
<g id="graph0" class="graph" transform="scale(1 1) rotate(0) translate(4 157.12)">
<title>kest_expr_init_div</title>
<!-- Node1 -->
<g id="Node000001" class="node">
<title>Node1</title>
<g id="a_Node000001"><a xlink:title=" ">
<polygon fill="#999999" stroke="#666666" points="604.75,-79.12 500.25,-79.12 500.25,-58.38 604.75,-58.38 604.75,-79.12"/>
<text xml:space="preserve" text-anchor="middle" x="552.5" y="-65.62" font-family="Helvetica,sans-Serif" font-size="10.00">kest_expr_init_div</text>
</a>
</g>
</g>
<!-- Node2 -->
<g id="Node000002" class="node">
<title>Node2</title>
<g id="a_Node000002"><a xlink:href="kest__expression_8c.html#ad9ad711a0e65fe11bd11bccd64d2114c" target="_top" xlink:title=" ">
<polygon fill="white" stroke="#666666" points="464.25,-137.5 344,-137.5 344,-104 464.25,-104 464.25,-137.5"/>
<text xml:space="preserve" text-anchor="start" x="352" y="-124" font-family="Helvetica,sans-Serif" font-size="10.00">kest_expr_create_bpf</text>
<text xml:space="preserve" text-anchor="middle" x="404.12" y="-111.25" font-family="Helvetica,sans-Serif" font-size="10.00">_coefficients</text>
</a>
</g>
</g>
<!-- Node1&#45;&gt;Node2 -->
<g id="edge1_Node000001_Node000002" class="edge">
<title>Node1&#45;&gt;Node2</title>
<g id="a_edge1_Node000001_Node000002"><a xlink:title=" ">
<path fill="none" stroke="#63b8ff" d="M510.35,-83.37C492.7,-89.64 471.95,-97.01 453.57,-103.54"/>
<polygon fill="#63b8ff" stroke="#63b8ff" points="511.49,-86.68 519.74,-80.03 509.15,-80.08 511.49,-86.68"/>
</a>
</g>
</g>
<!-- Node16 -->
<g id="Node000016" class="node">
<title>Node16</title>
<g id="a_Node000016"><a xlink:href="kest__expression_8c.html#a91f074f7596d8adca0d0aa258e8af07b" target="_top" xlink:title=" ">
<polygon fill="#fff0f0" stroke="red" points="464.25,-85.5 344,-85.5 344,-52 464.25,-52 464.25,-85.5"/>
<text xml:space="preserve" text-anchor="start" x="352" y="-72" font-family="Helvetica,sans-Serif" font-size="10.00">kest_expr_create_hpf</text>
<text xml:space="preserve" text-anchor="middle" x="404.12" y="-59.25" font-family="Helvetica,sans-Serif" font-size="10.00">_coefficients</text>
</a>
</g>
</g>
<!-- Node1&#45;&gt;Node16 -->
<g id="edge6_Node000001_Node000016" class="edge">
<title>Node1&#45;&gt;Node16</title>
<g id="a_edge6_Node000001_Node000016"><a xlink:title=" ">
<path fill="none" stroke="#63b8ff" d="M488.43,-68.75C480.49,-68.75 472.39,-68.75 464.52,-68.75"/>
<polygon fill="#63b8ff" stroke="#63b8ff" points="488.38,-72.25 498.38,-68.75 488.38,-65.25 488.38,-72.25"/>
</a>
</g>
</g>
<!-- Node20 -->
<g id="Node000020" class="node">
<title>Node20</title>
<g id="a_Node000020"><a xlink:href="kest__expression_8c.html#aea416c62dca448928915608d29bd2583" target="_top" xlink:title=" ">
<polygon fill="#fff0f0" stroke="red" points="462.75,-33.5 345.5,-33.5 345.5,0 462.75,0 462.75,-33.5"/>
<text xml:space="preserve" text-anchor="start" x="353.5" y="-20" font-family="Helvetica,sans-Serif" font-size="10.00">kest_expr_create_lpf</text>
<text xml:space="preserve" text-anchor="middle" x="404.12" y="-7.25" font-family="Helvetica,sans-Serif" font-size="10.00">_coefficients</text>
</a>
</g>
</g>
<!-- Node1&#45;&gt;Node20 -->
<g id="edge7_Node000001_Node000020" class="edge">
<title>Node1&#45;&gt;Node20</title>
<g id="a_edge7_Node000001_Node000020"><a xlink:title=" ">
<path fill="none" stroke="#63b8ff" d="M510.35,-54.13C492.7,-47.86 471.95,-40.49 453.57,-33.96"/>
<polygon fill="#63b8ff" stroke="#63b8ff" points="509.15,-57.42 519.74,-57.47 511.49,-50.82 509.15,-57.42"/>
</a>
</g>
</g>
<!-- Node3 -->
<g id="Node000003" class="node">
<title>Node3</title>
<g id="a_Node000003"><a xlink:href="kest__dict__extract_8c.html#a251ccf3251b5570a7c110e9da42163ff" target="_top" xlink:title=" ">
<polygon fill="white" stroke="#666666" points="282.12,-151.12 185.12,-151.12 185.12,-130.38 282.12,-130.38 282.12,-151.12"/>
<text xml:space="preserve" text-anchor="middle" x="233.62" y="-137.62" font-family="Helvetica,sans-Serif" font-size="10.00">kest_extract_bpf</text>
</a>
</g>
</g>
<!-- Node2&#45;&gt;Node3 -->
<g id="edge2_Node000002_Node000003" class="edge">
<title>Node2&#45;&gt;Node3</title>
<g id="a_edge2_Node000002_Node000003"><a xlink:title=" ">
<path fill="none" stroke="#63b8ff" d="M332.72,-129.11C315.77,-131.12 298.05,-133.22 282.41,-135.08"/>
<polygon fill="#63b8ff" stroke="#63b8ff" points="332.7,-132.63 342.22,-127.98 331.87,-125.68 332.7,-132.63"/>
</a>
</g>
</g>
<!-- Node23 -->
<g id="Node000023" class="node">
<title>Node23</title>
<g id="a_Node000023"><a xlink:href="kest__dict__extract_8c.html#a9d0ca06d0e5835047ff69fa37332abc1" target="_top" xlink:title=" ">
<polygon fill="white" stroke="#666666" points="308,-111.12 159.25,-111.12 159.25,-90.38 308,-90.38 308,-111.12"/>
<text xml:space="preserve" text-anchor="middle" x="233.62" y="-97.62" font-family="Helvetica,sans-Serif" font-size="10.00">kest_extract_bpf_from_dict</text>
</a>
</g>
</g>
<!-- Node2&#45;&gt;Node23 -->
<g id="edge4_Node000002_Node000023" class="edge">
<title>Node2&#45;&gt;Node23</title>
<g id="a_edge4_Node000002_Node000023"><a xlink:title=" ">
<path fill="none" stroke="#63b8ff" d="M332.53,-112.37C324.51,-111.42 316.32,-110.45 308.26,-109.49"/>
<polygon fill="#63b8ff" stroke="#63b8ff" points="331.87,-115.82 342.22,-113.52 332.7,-108.87 331.87,-115.82"/>
</a>
</g>
</g>
<!-- Node4 -->
<g id="Node000004" class="node">
<title>Node4</title>
<g id="a_Node000004"><a xlink:href="kest__dict__extract_8c.html#a380375dec37f2a914cd428342a6cbfe3" target="_top" xlink:title=" ">
<polygon fill="#fff0f0" stroke="red" points="123.25,-153.12 0,-153.12 0,-132.38 123.25,-132.38 123.25,-153.12"/>
<text xml:space="preserve" text-anchor="middle" x="61.62" y="-139.62" font-family="Helvetica,sans-Serif" font-size="10.00">kest_extract_resource</text>
</a>
</g>
</g>
<!-- Node3&#45;&gt;Node4 -->
<g id="edge3_Node000003_Node000004" class="edge">
<title>Node3&#45;&gt;Node4</title>
<g id="a_edge3_Node000003_Node000004"><a xlink:title=" ">
<path fill="none" stroke="#63b8ff" d="M173.4,-141.45C157.33,-141.64 139.91,-141.84 123.75,-142.03"/>
<polygon fill="#63b8ff" stroke="#63b8ff" points="173.35,-144.95 183.3,-141.33 173.26,-137.95 173.35,-144.95"/>
</a>
</g>
</g>
<!-- Node19 -->
<g id="Node000019" class="node">
<title>Node19</title>
<g id="a_Node000019"><a xlink:href="kest__dict__extract_8c.html#ad78dabb9f962180138c9dfc2bf1731e3" target="_top" xlink:title=" ">
<polygon fill="white" stroke="#666666" points="123.25,-114.5 0,-114.5 0,-81 123.25,-81 123.25,-114.5"/>
<text xml:space="preserve" text-anchor="start" x="8" y="-101" font-family="Helvetica,sans-Serif" font-size="10.00">kest_extract_resource</text>
<text xml:space="preserve" text-anchor="middle" x="61.62" y="-88.25" font-family="Helvetica,sans-Serif" font-size="10.00">_from_dict</text>
</a>
</g>
</g>
<!-- Node23&#45;&gt;Node19 -->
<g id="edge5_Node000023_Node000019" class="edge">
<title>Node23&#45;&gt;Node19</title>
<g id="a_edge5_Node000023_Node000019"><a xlink:title=" ">
<path fill="none" stroke="#63b8ff" d="M147.61,-99.25C139.49,-99.11 131.37,-98.96 123.55,-98.83"/>
<polygon fill="#63b8ff" stroke="#63b8ff" points="147.48,-102.75 157.54,-99.42 147.6,-95.75 147.48,-102.75"/>
</a>
</g>
</g>
</g>
</svg>
