<?xml version="1.0" encoding="UTF-8" standalone="no"?>
<!DOCTYPE svg PUBLIC "-//W3C//DTD SVG 1.1//EN"
 "http://www.w3.org/Graphics/SVG/1.1/DTD/svg11.dtd">
<!-- Generated by graphviz version 13.1.2 (20250808.2320)
 -->
<!-- Title: kest_parameter_free Pages: 1 -->
<svg width="367pt" height="68pt"
 viewBox="0.00 0.00 367.00 68.00" xmlns="http://www.w3.org/2000/svg" xmlns:xlink="http://www.w3.org/1999/xlink">
<g id="graph0" class="graph" transform="scale(1 1) rotate(0) translate(4 63.75)">
<title>kest_parameter_free</title>
<!-- Node1 -->
<g id="Node000001" class="node">
<title>Node1</title>
<g id="a_Node000001"><a xlink:title=" ">
<polygon fill="#999999" stroke="#666666" points="117.25,-39.75 0,-39.75 0,-19 117.25,-19 117.25,-39.75"/>
<text xml:space="preserve" text-anchor="middle" x="58.62" y="-26.25" font-family="Helvetica,sans-Serif" font-size="10.00">kest_parameter_free</text>
</a>
</g>
</g>
<!-- Node2 -->
<g id="Node000002" class="node">
<title>Node2</title>
<g id="a_Node000002"><a xlink:href="kest__parameter_8c.html#aba1de2a97c113a2fc9e06799c71dd5b5" target="_top" xlink:title=" ">
<polygon fill="white" stroke="#666666" points="251.75,-59.75 163.75,-59.75 163.75,-39 251.75,-39 251.75,-59.75"/>
<text xml:space="preserve" text-anchor="middle" x="207.75" y="-46.25" font-family="Helvetica,sans-Serif" font-size="10.00">gut_parameter</text>
</a>
</g>
</g>
<!-- Node1&#45;&gt;Node2 -->
<g id="edge1_Node000001_Node000002" class="edge">
<title>Node1&#45;&gt;Node2</title>
<g id="a_edge1_Node000001_Node000002"><a xlink:title=" ">
<path fill="none" stroke="#63b8ff" d="M117.35,-37.22C128.82,-38.78 140.83,-40.41 152.2,-41.96"/>
<polygon fill="#63b8ff" stroke="#63b8ff" points="151.42,-45.39 161.8,-43.26 152.36,-38.45 151.42,-45.39"/>
</a>
</g>
</g>
<!-- Node3 -->
<g id="Node000003" class="node">
<title>Node3</title>
<g id="a_Node000003"><a xlink:href="kest__alloc_8c.html#ac70a0464d391cefa33eb0f6d746ff7aa" target="_top" xlink:title=" ">
<polygon fill="white" stroke="#666666" points="262.25,-20.75 153.25,-20.75 153.25,0 262.25,0 262.25,-20.75"/>
<text xml:space="preserve" text-anchor="middle" x="207.75" y="-7.25" font-family="Helvetica,sans-Serif" font-size="10.00">kest_allocator_free</text>
</a>
</g>
</g>
<!-- Node1&#45;&gt;Node3 -->
<g id="edge2_Node000001_Node000003" class="edge">
<title>Node1&#45;&gt;Node3</title>
<g id="a_edge2_Node000001_Node000003"><a xlink:title=" ">
<path fill="none" stroke="#63b8ff" d="M117.35,-21.92C125.34,-20.89 133.59,-19.82 141.7,-18.78"/>
<polygon fill="#63b8ff" stroke="#63b8ff" points="142.06,-22.26 151.53,-17.51 141.16,-15.32 142.06,-22.26"/>
</a>
</g>
</g>
<!-- Node4 -->
<g id="Node000004" class="node">
<title>Node4</title>
<g id="a_Node000004"><a xlink:href="kest__alloc_8c.html#a294af5728a94aa316fcf65304d388d48" target="_top" xlink:title=" ">
<polygon fill="white" stroke="#666666" points="359.25,-20.75 298.25,-20.75 298.25,0 359.25,0 359.25,-20.75"/>
<text xml:space="preserve" text-anchor="middle" x="328.75" y="-7.25" font-family="Helvetica,sans-Serif" font-size="10.00">kest_free</text>
</a>
</g>
</g>
<!-- Node3&#45;&gt;Node4 -->
<g id="edge3_Node000003_Node000004" class="edge">
<title>Node3&#45;&gt;Node4</title>
<g id="a_edge3_Node000003_Node000004"><a xlink:title=" ">
<path fill="none" stroke="#63b8ff" d="M262.68,-10.38C270.68,-10.38 278.82,-10.38 286.51,-10.38"/>
<polygon fill="#63b8ff" stroke="#63b8ff" points="286.25,-13.88 296.25,-10.38 286.25,-6.88 286.25,-13.88"/>
</a>
</g>
</g>
</g>
</svg>
