<?xml version="1.0" encoding="UTF-8" standalone="no"?>
<!DOCTYPE svg PUBLIC "-//W3C//DTD SVG 1.1//EN"
 "http://www.w3.org/Graphics/SVG/1.1/DTD/svg11.dtd">
<!-- Generated by graphviz version 13.1.2 (20250808.2320)
 -->
<!-- Title: kest_parser_format_offending_section Pages: 1 -->
<!--zoomable 349 -->

<svg id="main" version="1.1" xmlns="http://www.w3.org/2000/svg" xmlns:xlink="http://www.w3.org/1999/xlink" xml:space="preserve" onload="init(evt)">

<style type="text/css"><![CDATA[
.node, .edge {opacity: 0.7;}
.node.selected, .edge.selected {opacity: 1;}
.edge:hover path { stroke: red; }
.edge:hover polygon { stroke: red; fill: red; }
]]></style>

<defs>
  <circle id="rim" cx="0" cy="0" r="7"/>
  <circle id="rim2" cx="0" cy="0" r="3.5"/>
  <g id="zoomPlus">
    <use xlink:href="#rim" fill="#404040"><set attributeName="fill" to="#808080" begin="zoomplus.mouseover" end="zoomplus.mouseout"/></use>
    <path d="M-4,0h8M0,-4v8" fill="none" stroke="white" stroke-width="1.5" pointer-events="none"/>
  </g>
  <g id="zoomMin">
    <use xlink:href="#rim" fill="#404040"><set attributeName="fill" to="#808080" begin="zoomminus.mouseover" end="zoomminus.mouseout"/></use>
    <path d="M-4,0h8" fill="none" stroke="white" stroke-width="1.5" pointer-events="none"/>
  </g>
  <g id="arrowUp" transform="translate(30 24)">
    <use xlink:href="#rim"/>
    <path pointer-events="none" fill="none" stroke="white" stroke-width="1.5" d="M0,-3.0v7 M-2.5,-0.5L0,-3.0L2.5,-0.5"/>
  </g>
  <g id="arrowRight" transform="rotate(90) translate(36 -43)">
    <use xlink:href="#rim"/>
    <path pointer-events="none" fill="none" stroke="white" stroke-width="1.5" d="M0,-3.0v7 M-2.5,-0.5L0,-3.0L2.5,-0.5"/>
  </g>
  <g id="arrowDown" transform="rotate(180) translate(-30 -48)">
    <use xlink:href="#rim"/>
    <path pointer-events="none" fill="none" stroke="white" stroke-width="1.5" d="M0,-3.0v7 M-2.5,-0.5L0,-3.0L2.5,-0.5"/>
  </g>
  <g id="arrowLeft" transform="rotate(270) translate(-36 17)">
    <use xlink:href="#rim"/>
    <path pointer-events="none" fill="none" stroke="white" stroke-width="1.5" d="M0,-3.0v7 M-2.5,-0.5L0,-3.0L2.5,-0.5"/>
  </g>
  <g id="resetDef">
    <use xlink:href="#rim2" fill="#404040"><set attributeName="fill" to="#808080" begin="reset.mouseover" end="reset.mouseout"/></use>
  </g>
</defs>
<script type="application/ecmascript">
var viewWidth = 1387;
var viewHeight = 349;
var sectionId = 'dynsection-20';
</script>
<script type="application/ecmascript" xlink:href="svg.min.js"/>
<svg id="graph" class="graph">
<g id="viewport">
<title>kest_parser_format_offending_section</title>
<!-- Node1 -->
<g id="Node000001" class="node">
<title>Node1</title>
<g id="a_Node000001"><a xlink:title=" ">
<polygon fill="#999999" stroke="#666666" points="1379.25,-172.45 1268.75,-172.45 1268.75,-138.95 1379.25,-138.95 1379.25,-172.45"/>
<text xml:space="preserve" text-anchor="start" x="1276.75" y="-158.95" font-family="Helvetica,sans-Serif" font-size="10.00">kest_parser_format</text>
<text xml:space="preserve" text-anchor="middle" x="1324" y="-146.2" font-family="Helvetica,sans-Serif" font-size="10.00">_offending_section</text>
</a>
</g>
</g>
<!-- Node2 -->
<g id="Node000002" class="node">
<title>Node2</title>
<g id="a_Node000002"><a xlink:href="kest__eff__parser_8c.html#aee5c1435aac9ead9b0c5c692c7c621ec" target="_top" xlink:title=" ">
<polygon fill="white" stroke="#666666" points="1221.12,-205.08 1105.38,-205.08 1105.38,-184.33 1221.12,-184.33 1221.12,-205.08"/>
<text xml:space="preserve" text-anchor="middle" x="1163.25" y="-191.58" font-family="Helvetica,sans-Serif" font-size="10.00">kest_parser_error_at</text>
</a>
</g>
</g>
<!-- Node1&#45;&gt;Node2 -->
<g id="edge1_Node000001_Node000002" class="edge">
<title>Node1&#45;&gt;Node2</title>
<g id="a_edge1_Node000001_Node000002"><a xlink:title=" ">
<path fill="none" stroke="#63b8ff" d="M1257.64,-171.76C1241.09,-175.83 1223.7,-180.1 1208.47,-183.84"/>
<polygon fill="#63b8ff" stroke="#63b8ff" points="1258.02,-175.27 1266.9,-169.49 1256.35,-168.47 1258.02,-175.27"/>
</a>
</g>
</g>
<!-- Node26 -->
<g id="Node000026" class="node">
<title>Node26</title>
<g id="a_Node000026"><a xlink:href="kest__eff__parser_8c.html#ae3bf3630f6be1ab1efa82e557fef2b2d" target="_top" xlink:title=" ">
<polygon fill="white" stroke="#666666" points="1232.75,-166.08 1093.75,-166.08 1093.75,-145.33 1232.75,-145.33 1232.75,-166.08"/>
<text xml:space="preserve" text-anchor="middle" x="1163.25" y="-152.58" font-family="Helvetica,sans-Serif" font-size="10.00">kest_parser_print_info_at</text>
</a>
</g>
</g>
<!-- Node1&#45;&gt;Node26 -->
<g id="edge23_Node000001_Node000026" class="edge">
<title>Node1&#45;&gt;Node26</title>
<g id="a_edge23_Node000001_Node000026"><a xlink:title=" ">
<path fill="none" stroke="#63b8ff" d="M1256.95,-155.7C1249.04,-155.7 1240.95,-155.7 1233.01,-155.7"/>
<polygon fill="#63b8ff" stroke="#63b8ff" points="1256.85,-159.21 1266.85,-155.7 1256.85,-152.21 1256.85,-159.21"/>
</a>
</g>
</g>
<!-- Node27 -->
<g id="Node000027" class="node">
<title>Node27</title>
<g id="a_Node000027"><a xlink:href="kest__eff__parser_8c.html#a7b4161eda3224734f3d411a7febc89ba" target="_top" xlink:title=" ">
<polygon fill="white" stroke="#666666" points="1221.5,-127.08 1105,-127.08 1105,-106.33 1221.5,-106.33 1221.5,-127.08"/>
<text xml:space="preserve" text-anchor="middle" x="1163.25" y="-113.58" font-family="Helvetica,sans-Serif" font-size="10.00">kest_parser_warn_at</text>
</a>
</g>
</g>
<!-- Node1&#45;&gt;Node27 -->
<g id="edge24_Node000001_Node000027" class="edge">
<title>Node1&#45;&gt;Node27</title>
<g id="a_edge24_Node000001_Node000027"><a xlink:title=" ">
<path fill="none" stroke="#63b8ff" d="M1257.64,-139.65C1241.09,-135.58 1223.7,-131.31 1208.47,-127.57"/>
<polygon fill="#63b8ff" stroke="#63b8ff" points="1256.35,-142.94 1266.9,-141.92 1258.02,-136.14 1256.35,-142.94"/>
</a>
</g>
</g>
<!-- Node3 -->
<g id="Node000003" class="node">
<title>Node3</title>
<g id="a_Node000003"><a xlink:href="kest__asm__parser_8c.html#a1b7e03dd7589f652dec13b4b2c6d0a5c" target="_top" xlink:title=" ">
<polygon fill="white" stroke="#666666" points="410.25,-313.08 315.5,-313.08 315.5,-292.33 410.25,-292.33 410.25,-313.08"/>
<text xml:space="preserve" text-anchor="middle" x="362.88" y="-299.58" font-family="Helvetica,sans-Serif" font-size="10.00">kest_parse_asm</text>
</a>
</g>
</g>
<!-- Node2&#45;&gt;Node3 -->
<g id="edge2_Node000002_Node000003" class="edge">
<title>Node2&#45;&gt;Node3</title>
<g id="a_edge2_Node000002_Node000003"><a xlink:title=" ">
<path fill="none" stroke="#63b8ff" d="M1134.8,-211.23C1114.2,-223.04 1084.97,-238.58 1057.75,-248.7 961.16,-284.62 935.31,-302.7 832.25,-302.7 832.25,-302.7 832.25,-302.7 667.25,-302.7 576.4,-302.7 470.24,-302.7 410.65,-302.7"/>
<polygon fill="#63b8ff" stroke="#63b8ff" points="1136.55,-214.26 1143.42,-206.2 1133.02,-208.21 1136.55,-214.26"/>
</a>
</g>
</g>
<!-- Node5 -->
<g id="Node000005" class="node">
<title>Node5</title>
<g id="a_Node000005"><a xlink:href="kest__eff__parser_8c.html#a73ef6962d1925857ec3e4b12d1aad834" target="_top" xlink:title=" ">
<polygon fill="#fff0f0" stroke="red" points="106,-332.08 0,-332.08 0,-311.33 106,-311.33 106,-332.08"/>
<text xml:space="preserve" text-anchor="middle" x="53" y="-318.58" font-family="Helvetica,sans-Serif" font-size="10.00">kest_parse_tokens</text>
</a>
</g>
</g>
<!-- Node2&#45;&gt;Node5 -->
<g id="edge22_Node000002_Node000005" class="edge">
<title>Node2&#45;&gt;Node5</title>
<g id="a_edge22_Node000002_Node000005"><a xlink:title=" ">
<path fill="none" stroke="#63b8ff" d="M1145.5,-213.67C1126.32,-234.22 1092.95,-266.5 1057.75,-284.7 966.02,-332.13 935.52,-340.7 832.25,-340.7 832.25,-340.7 832.25,-340.7 361.88,-340.7 271.91,-340.7 167.43,-332.52 106.24,-326.9"/>
<polygon fill="#63b8ff" stroke="#63b8ff" points="1147.87,-216.26 1152.03,-206.52 1142.7,-211.54 1147.87,-216.26"/>
</a>
</g>
</g>
<!-- Node17 -->
<g id="Node000017" class="node">
<title>Node17</title>
<g id="a_Node000017"><a xlink:href="kest__asm__parser_8c.html#a975cb5ec55968124f930a9a35fe564c5" target="_top" xlink:title=" ">
<polygon fill="white" stroke="#666666" points="726.12,-151.08 610.38,-151.08 610.38,-130.33 726.12,-130.33 726.12,-151.08"/>
<text xml:space="preserve" text-anchor="middle" x="668.25" y="-137.58" font-family="Helvetica,sans-Serif" font-size="10.00">kest_parse_asm_arg</text>
</a>
</g>
</g>
<!-- Node2&#45;&gt;Node17 -->
<g id="edge5_Node000002_Node000017" class="edge">
<title>Node2&#45;&gt;Node17</title>
<g id="a_edge5_Node000002_Node000017"><a xlink:title=" ">
<path fill="none" stroke="#63b8ff" d="M1102.97,-179.56C1099.78,-178.08 1096.68,-176.47 1093.75,-174.7 1074.09,-162.88 1078.89,-146.63 1057.75,-137.7 940.62,-88.25 785.35,-113.25 711.61,-129.87"/>
<polygon fill="#63b8ff" stroke="#63b8ff" points="1101.41,-182.71 1111.99,-183.26 1104.07,-176.23 1101.41,-182.71"/>
</a>
</g>
</g>
<!-- Node18 -->
<g id="Node000018" class="node">
<title>Node18</title>
<g id="a_Node000018"><a xlink:href="kest__asm__parser_8c.html#a93fe9789a6b0162607601862f5fa9c8c" target="_top" xlink:title=" ">
<polygon fill="white" stroke="#666666" points="731.75,-237.08 604.75,-237.08 604.75,-216.33 731.75,-216.33 731.75,-237.08"/>
<text xml:space="preserve" text-anchor="middle" x="668.25" y="-223.58" font-family="Helvetica,sans-Serif" font-size="10.00">kest_parse_asm_arg_2</text>
</a>
</g>
</g>
<!-- Node2&#45;&gt;Node18 -->
<g id="edge6_Node000002_Node000018" class="edge">
<title>Node2&#45;&gt;Node18</title>
<g id="a_edge6_Node000002_Node000018"><a xlink:title=" ">
<path fill="none" stroke="#63b8ff" d="M1093.77,-203.97C1081.78,-205.38 1069.41,-206.7 1057.75,-207.7 943.04,-217.63 808.8,-222.76 731.92,-225.08"/>
<polygon fill="#63b8ff" stroke="#63b8ff" points="1094.1,-207.45 1103.61,-202.78 1093.26,-200.51 1094.1,-207.45"/>
</a>
</g>
</g>
<!-- Node19 -->
<g id="Node000019" class="node">
<title>Node19</title>
<g id="a_Node000019"><a xlink:href="kest__asm__parser_8c.html#a8a0d633256a85b35706b7a9ef1add7f0" target="_top" xlink:title=" ">
<polygon fill="white" stroke="#666666" points="566.5,-275.08 448.5,-275.08 448.5,-254.33 566.5,-254.33 566.5,-275.08"/>
<text xml:space="preserve" text-anchor="middle" x="507.5" y="-261.58" font-family="Helvetica,sans-Serif" font-size="10.00">kest_parse_asm_line</text>
</a>
</g>
</g>
<!-- Node2&#45;&gt;Node19 -->
<g id="edge9_Node000002_Node000019" class="edge">
<title>Node2&#45;&gt;Node19</title>
<g id="a_edge9_Node000002_Node000019"><a xlink:title=" ">
<path fill="none" stroke="#63b8ff" d="M1121.32,-209.1C1102.23,-215.22 1079.07,-221.83 1057.75,-225.7 880.92,-257.82 667.6,-263.8 566.74,-264.71"/>
<polygon fill="#63b8ff" stroke="#63b8ff" points="1122.19,-212.49 1130.6,-206.04 1120.01,-205.84 1122.19,-212.49"/>
</a>
</g>
</g>
<!-- Node20 -->
<g id="Node000020" class="node">
<title>Node20</title>
<g id="a_Node000020"><a xlink:href="kest__dictionary_8c.html#af0aceaa93cba06fd44ad4bc50f2418e4" target="_top" xlink:title=" ">
<polygon fill="white" stroke="#666666" points="724.25,-92.08 612.25,-92.08 612.25,-71.33 724.25,-71.33 724.25,-92.08"/>
<text xml:space="preserve" text-anchor="middle" x="668.25" y="-78.58" font-family="Helvetica,sans-Serif" font-size="10.00">kest_parse_dict_val</text>
</a>
</g>
</g>
<!-- Node2&#45;&gt;Node20 -->
<g id="edge10_Node000002_Node000020" class="edge">
<title>Node2&#45;&gt;Node20</title>
<g id="a_edge10_Node000002_Node000020"><a xlink:title=" ">
<path fill="none" stroke="#63b8ff" d="M1099.07,-178.58C1097.22,-177.38 1095.44,-176.09 1093.75,-174.7 1067.01,-152.77 1086.76,-124.54 1057.75,-105.7 1004.26,-70.98 818.45,-74.41 724.52,-78.61"/>
<polygon fill="#63b8ff" stroke="#63b8ff" points="1097.04,-181.46 1107.5,-183.14 1100.37,-175.3 1097.04,-181.46"/>
</a>
</g>
</g>
<!-- Node22 -->
<g id="Node000022" class="node">
<title>Node22</title>
<g id="a_Node000022"><a xlink:href="kest__dictionary_8c.html#aae3fbdeba250be8f6dd3dfa686eb24a8" target="_top" xlink:title=" ">
<polygon fill="#fff0f0" stroke="red" points="568.75,-53.08 446.25,-53.08 446.25,-32.33 568.75,-32.33 568.75,-53.08"/>
<text xml:space="preserve" text-anchor="middle" x="507.5" y="-39.58" font-family="Helvetica,sans-Serif" font-size="10.00">kest_parse_dictionary</text>
</a>
</g>
</g>
<!-- Node2&#45;&gt;Node22 -->
<g id="edge15_Node000002_Node000022" class="edge">
<title>Node2&#45;&gt;Node22</title>
<g id="a_edge15_Node000002_Node000022"><a xlink:title=" ">
<path fill="none" stroke="#63b8ff" d="M1097.66,-178.01C1096.3,-176.97 1094.99,-175.87 1093.75,-174.7 1059.34,-142.35 1095.59,-102.98 1057.75,-74.7 901.27,42.22 644.3,-7.24 547.24,-31.87"/>
<polygon fill="#63b8ff" stroke="#63b8ff" points="1095.66,-180.89 1106.01,-183.16 1099.34,-174.93 1095.66,-180.89"/>
</a>
</g>
</g>
<!-- Node24 -->
<g id="Node000024" class="node">
<title>Node24</title>
<g id="a_Node000024"><a xlink:href="kest__expr__parser_8c.html#adf0188b23902aff2ddacb388e811412e" target="_top" xlink:title=" ">
<polygon fill="white" stroke="#666666" points="1057.75,-180.45 930.75,-180.45 930.75,-146.95 1057.75,-146.95 1057.75,-180.45"/>
<text xml:space="preserve" text-anchor="start" x="938.75" y="-166.95" font-family="Helvetica,sans-Serif" font-size="10.00">kest_parse_expression</text>
<text xml:space="preserve" text-anchor="middle" x="994.25" y="-154.2" font-family="Helvetica,sans-Serif" font-size="10.00">_rec_pratt</text>
</a>
</g>
</g>
<!-- Node2&#45;&gt;Node24 -->
<g id="edge16_Node000002_Node000024" class="edge">
<title>Node2&#45;&gt;Node24</title>
<g id="a_edge16_Node000002_Node000024"><a xlink:title=" ">
<path fill="none" stroke="#63b8ff" d="M1093.99,-182.03C1082.09,-179.82 1069.76,-177.54 1058.01,-175.35"/>
<polygon fill="#63b8ff" stroke="#63b8ff" points="1093.29,-185.46 1103.76,-183.85 1094.56,-178.58 1093.29,-185.46"/>
</a>
</g>
</g>
<!-- Node4 -->
<g id="Node000004" class="node">
<title>Node4</title>
<g id="a_Node000004"><a xlink:href="kest__eff__section_8c.html#a992e0c66572f5ffabca2203a018ea97c" target="_top" xlink:title=" ">
<polygon fill="white" stroke="#666666" points="279.5,-313.08 142,-313.08 142,-292.33 279.5,-292.33 279.5,-313.08"/>
<text xml:space="preserve" text-anchor="middle" x="210.75" y="-299.58" font-family="Helvetica,sans-Serif" font-size="10.00">kest_parse_code_section</text>
</a>
</g>
</g>
<!-- Node3&#45;&gt;Node4 -->
<g id="edge3_Node000003_Node000004" class="edge">
<title>Node3&#45;&gt;Node4</title>
<g id="a_edge3_Node000003_Node000004"><a xlink:title=" ">
<path fill="none" stroke="#63b8ff" d="M303.91,-302.7C296.04,-302.7 287.91,-302.7 279.89,-302.7"/>
<polygon fill="#63b8ff" stroke="#63b8ff" points="303.68,-306.21 313.68,-302.7 303.68,-299.21 303.68,-306.21"/>
</a>
</g>
</g>
<!-- Node4&#45;&gt;Node5 -->
<g id="edge4_Node000004_Node000005" class="edge">
<title>Node4&#45;&gt;Node5</title>
<g id="a_edge4_Node000004_Node000005"><a xlink:title=" ">
<path fill="none" stroke="#63b8ff" d="M130.61,-312.36C122.32,-313.37 114.05,-314.38 106.18,-315.34"/>
<polygon fill="#63b8ff" stroke="#63b8ff" points="130.88,-315.85 140.39,-311.17 130.04,-308.9 130.88,-315.85"/>
</a>
</g>
</g>
<!-- Node18&#45;&gt;Node19 -->
<g id="edge7_Node000018_Node000019" class="edge">
<title>Node18&#45;&gt;Node19</title>
<g id="a_edge7_Node000018_Node000019"><a xlink:title=" ">
<path fill="none" stroke="#63b8ff" d="M611.06,-240.15C592.25,-244.66 571.54,-249.62 553.68,-253.89"/>
<polygon fill="#63b8ff" stroke="#63b8ff" points="611.8,-243.58 620.71,-237.84 610.17,-236.77 611.8,-243.58"/>
</a>
</g>
</g>
<!-- Node19&#45;&gt;Node3 -->
<g id="edge8_Node000019_Node000003" class="edge">
<title>Node19&#45;&gt;Node3</title>
<g id="a_edge8_Node000019_Node000003"><a xlink:title=" ">
<path fill="none" stroke="#63b8ff" d="M455.31,-278.34C438.6,-282.8 420.28,-287.68 404.47,-291.89"/>
<polygon fill="#63b8ff" stroke="#63b8ff" points="455.79,-281.84 464.55,-275.88 453.98,-275.07 455.79,-281.84"/>
</a>
</g>
</g>
<!-- Node21 -->
<g id="Node000021" class="node">
<title>Node21</title>
<g id="a_Node000021"><a xlink:href="kest__dictionary_8c.html#a8db4f9c511b00d7240052135e9c1ed67" target="_top" xlink:title=" ">
<polygon fill="white" stroke="#666666" points="563.5,-92.08 451.5,-92.08 451.5,-71.33 563.5,-71.33 563.5,-92.08"/>
<text xml:space="preserve" text-anchor="middle" x="507.5" y="-78.58" font-family="Helvetica,sans-Serif" font-size="10.00">kest_parse_dict_list</text>
</a>
</g>
</g>
<!-- Node20&#45;&gt;Node21 -->
<g id="edge11_Node000020_Node000021" class="edge">
<title>Node20&#45;&gt;Node21</title>
<g id="a_edge11_Node000020_Node000021"><a xlink:title=" ">
<path fill="none" stroke="#63b8ff" d="M600.96,-75.04C588.58,-74.88 575.76,-74.95 563.75,-75.24"/>
<polygon fill="#63b8ff" stroke="#63b8ff" points="600.6,-78.53 610.66,-75.22 600.73,-71.53 600.6,-78.53"/>
</a>
</g>
</g>
<!-- Node20&#45;&gt;Node22 -->
<g id="edge13_Node000020_Node000022" class="edge">
<title>Node20&#45;&gt;Node22</title>
<g id="a_edge13_Node000020_Node000022"><a xlink:title=" ">
<path fill="none" stroke="#63b8ff" d="M632.61,-67.51C614.05,-61.96 590.63,-55.91 569.16,-51.03"/>
<polygon fill="#63b8ff" stroke="#63b8ff" points="631.45,-70.81 642.04,-70.43 633.53,-64.13 631.45,-70.81"/>
</a>
</g>
</g>
<!-- Node21&#45;&gt;Node20 -->
<g id="edge12_Node000021_Node000020" class="edge">
<title>Node21&#45;&gt;Node20</title>
<g id="a_edge12_Node000021_Node000020"><a xlink:title=" ">
<path fill="none" stroke="#63b8ff" d="M574.97,-88.38C587.36,-88.53 600.17,-88.46 612.17,-88.17"/>
<polygon fill="#63b8ff" stroke="#63b8ff" points="575.32,-84.88 565.26,-88.2 575.2,-91.88 575.32,-84.88"/>
</a>
</g>
</g>
<!-- Node22&#45;&gt;Node20 -->
<g id="edge14_Node000022_Node000020" class="edge">
<title>Node22&#45;&gt;Node20</title>
<g id="a_edge14_Node000022_Node000020"><a xlink:title=" ">
<path fill="none" stroke="#63b8ff" d="M542.91,-56.83C563.13,-62.89 589.16,-69.55 612.17,-74.63"/>
<polygon fill="#63b8ff" stroke="#63b8ff" points="544.07,-53.53 533.48,-53.9 541.99,-60.21 544.07,-53.53"/>
</a>
</g>
</g>
<!-- Node24&#45;&gt;Node24 -->
<g id="edge21_Node000024_Node000024" class="edge">
<title>Node24&#45;&gt;Node24</title>
<g id="a_edge21_Node000024_Node000024"><a xlink:title=" ">
<path fill="none" stroke="#63b8ff" d="M1021.62,-191.84C1017.16,-195.8 1008.04,-198.45 994.25,-198.45 969.74,-198.45 959.97,-190.07 964.95,-180.87"/>
<polygon fill="#63b8ff" stroke="#63b8ff" points="1025,-192.82 1023.29,-182.36 1018.11,-191.6 1025,-192.82"/>
</a>
</g>
</g>
<!-- Node25 -->
<g id="Node000025" class="node">
<title>Node25</title>
<g id="a_Node000025"><a xlink:href="kest__expr__parser_8c.html#a7caaee6c8b0c14b3ff08fba98d837ead" target="_top" xlink:title=" ">
<polygon fill="white" stroke="#666666" points="894.75,-171.08 767.75,-171.08 767.75,-150.33 894.75,-150.33 894.75,-171.08"/>
<text xml:space="preserve" text-anchor="middle" x="831.25" y="-157.58" font-family="Helvetica,sans-Serif" font-size="10.00">kest_parse_expression</text>
</a>
</g>
</g>
<!-- Node24&#45;&gt;Node25 -->
<g id="edge17_Node000024_Node000025" class="edge">
<title>Node24&#45;&gt;Node25</title>
<g id="a_edge17_Node000024_Node000025"><a xlink:title=" ">
<path fill="none" stroke="#63b8ff" d="M919.22,-162.33C911.14,-162.17 902.97,-162.02 895.05,-161.88"/>
<polygon fill="#63b8ff" stroke="#63b8ff" points="918.97,-165.82 929.03,-162.51 919.1,-158.82 918.97,-165.82"/>
</a>
</g>
</g>
<!-- Node25&#45;&gt;Node17 -->
<g id="edge18_Node000025_Node000017" class="edge">
<title>Node25&#45;&gt;Node17</title>
<g id="a_edge18_Node000025_Node000017"><a xlink:title=" ">
<path fill="none" stroke="#63b8ff" d="M756.34,-151.52C746.33,-150.28 736.19,-149.02 726.53,-147.82"/>
<polygon fill="#63b8ff" stroke="#63b8ff" points="755.68,-154.97 766.04,-152.73 756.55,-148.02 755.68,-154.97"/>
</a>
</g>
</g>
<!-- Node25&#45;&gt;Node18 -->
<g id="edge19_Node000025_Node000018" class="edge">
<title>Node25&#45;&gt;Node18</title>
<g id="a_edge19_Node000025_Node000018"><a xlink:title=" ">
<path fill="none" stroke="#63b8ff" d="M793.61,-175.73C763.79,-187.95 722.41,-204.91 695.73,-215.85"/>
<polygon fill="#63b8ff" stroke="#63b8ff" points="794.7,-179.06 802.62,-172.03 792.04,-172.58 794.7,-179.06"/>
</a>
</g>
</g>
<!-- Node25&#45;&gt;Node20 -->
<g id="edge20_Node000025_Node000020" class="edge">
<title>Node25&#45;&gt;Node20</title>
<g id="a_edge20_Node000025_Node000020"><a xlink:title=" ">
<path fill="none" stroke="#63b8ff" d="M798.12,-144.94C766.45,-129.4 718.91,-106.07 691.29,-92.52"/>
<polygon fill="#63b8ff" stroke="#63b8ff" points="796.32,-147.96 806.84,-149.22 799.41,-141.67 796.32,-147.96"/>
</a>
</g>
</g>
</g>
</svg>

<g id="navigator" transform="translate(0 0)" fill="#404254">
  <rect fill="#f2f5e9" fill-opacity="0.5" stroke="#606060" stroke-width=".5" x="0" y="0" width="60" height="60"/>
  <use id="zoomplus" xlink:href="#zoomPlus" x="17" y="9" onmousedown="handleZoom(evt,'in')"/>
  <use id="zoomminus" xlink:href="#zoomMin" x="42" y="9" onmousedown="handleZoom(evt,'out')"/>
  <use id="reset" xlink:href="#resetDef" x="30" y="36" onmousedown="handleReset()"/>
   <use id="arrowup" xlink:href="#arrowUp" x="0" y="0" onmousedown="handlePan(0,-1)"/>
  <use id="arrowright" xlink:href="#arrowRight" x="0" y="0" onmousedown="handlePan(1,0)"/>
  <use id="arrowdown" xlink:href="#arrowDown" x="0" y="0" onmousedown="handlePan(0,1)"/>
  <use id="arrowleft" xlink:href="#arrowLeft" x="0" y="0" onmousedown="handlePan(-1,0)"/>
</g>
<svg viewBox="0 0 15 15" width="100%" height="30px" preserveAspectRatio="xMaxYMin meet">
 <g id="arrow_out" transform="scale(0.3 0.3)">
  <a xlink:href="kest__eff__parser_8c_a9046583cea20796330921cd0e0692085_icgraph_org.svg" target="_base">
   <rect id="button" ry="5" rx="5" y="6" x="6" height="38" width="38"
        fill="#f2f5e9" fill-opacity="0.5" stroke="#606060" stroke-width="1.0"/>
   <path id="arrow"
     d="M 11.500037,31.436501 C 11.940474,20.09759 22.043105,11.32322 32.158766,21.979434 L 37.068811,17.246167 C 37.068811,17.246167 37.088388,32 37.088388,32 L 22.160133,31.978069 C 22.160133,31.978069 26.997745,27.140456 26.997745,27.140456 C 18.528582,18.264221 13.291696,25.230495 11.500037,31.436501 z"
     style="fill:#404040;"/>
  </a>
 </g>
</svg>

<style type='text/css'>
<![CDATA[
[data-mouse-over-selected='false'] { opacity: 0.7; }
[data-mouse-over-selected='true']  { opacity: 1.0; }
]]>
</style>
<script type="application/ecmascript"><![CDATA[
document.addEventListener('DOMContentLoaded', (event) => {
  highlightEdges();
  highlightAdjacentNodes();
});
]]></script>
</svg>
