<?xml version="1.0" encoding="UTF-8" standalone="no"?>
<!DOCTYPE svg PUBLIC "-//W3C//DTD SVG 1.1//EN"
 "http://www.w3.org/Graphics/SVG/1.1/DTD/svg11.dtd">
<!-- Generated by graphviz version 13.1.2 (20250808.2320)
 -->
<!-- Title: kest_fpga_req_data_p Pages: 1 -->
<svg width="638pt" height="392pt"
 viewBox="0.00 0.00 638.00 392.00" xmlns="http://www.w3.org/2000/svg" xmlns:xlink="http://www.w3.org/1999/xlink">
<g id="graph0" class="graph" transform="scale(1 1) rotate(0) translate(4 387.5)">
<title>kest_fpga_req_data_p</title>
<!-- Node1 -->
<g id="Node000001" class="node">
<title>Node1</title>
<g id="a_Node000001"><a xlink:title=" ">
<polygon fill="#999999" stroke="#666666" points="630.25,-209.12 507.75,-209.12 507.75,-188.38 630.25,-188.38 630.25,-209.12"/>
<text xml:space="preserve" text-anchor="middle" x="569" y="-195.62" font-family="Helvetica,sans-Serif" font-size="10.00">kest_fpga_req_data_p</text>
</a>
</g>
</g>
<!-- Node2 -->
<g id="Node000002" class="node">
<title>Node2</title>
<g id="a_Node000002"><a xlink:href="kest__fpga__io_8c.html#a571a86c4b7150cb02163c7f121280727" target="_top" xlink:title=" ">
<polygon fill="white" stroke="#666666" points="461.25,-383.5 345.5,-383.5 345.5,-350 461.25,-350 461.25,-383.5"/>
<text xml:space="preserve" text-anchor="start" x="353.5" y="-370" font-family="Helvetica,sans-Serif" font-size="10.00">kest_fpga_get_block</text>
<text xml:space="preserve" text-anchor="middle" x="403.38" y="-357.25" font-family="Helvetica,sans-Serif" font-size="10.00">_instr</text>
</a>
</g>
</g>
<!-- Node1&#45;&gt;Node2 -->
<g id="edge1_Node000001_Node000002" class="edge">
<title>Node1&#45;&gt;Node2</title>
<g id="a_edge1_Node000001_Node000002"><a xlink:title=" ">
<path fill="none" stroke="#63b8ff" d="M558.9,-219.59C544.55,-250.18 513.92,-307.22 471.75,-340.75 467.53,-344.11 462.83,-347.07 457.92,-349.67"/>
<polygon fill="#63b8ff" stroke="#63b8ff" points="562.01,-221.2 562.96,-210.64 555.64,-218.3 562.01,-221.2"/>
</a>
</g>
</g>
<!-- Node17 -->
<g id="Node000017" class="node">
<title>Node17</title>
<g id="a_Node000017"><a xlink:href="kest__fpga__io_8c.html#a2babe06c62b033671938c204a4d9b596" target="_top" xlink:title=" ">
<polygon fill="white" stroke="#666666" points="471.75,-332.12 335,-332.12 335,-311.38 471.75,-311.38 471.75,-332.12"/>
<text xml:space="preserve" text-anchor="middle" x="403.38" y="-318.62" font-family="Helvetica,sans-Serif" font-size="10.00">kest_fpga_get_block_reg</text>
</a>
</g>
</g>
<!-- Node1&#45;&gt;Node17 -->
<g id="edge4_Node000001_Node000017" class="edge">
<title>Node1&#45;&gt;Node17</title>
<g id="a_edge4_Node000001_Node000017"><a xlink:title=" ">
<path fill="none" stroke="#63b8ff" d="M554.75,-218.74C538.11,-242.28 507.39,-280.93 471.75,-302.75 466.46,-305.99 460.61,-308.69 454.62,-310.94"/>
<polygon fill="#63b8ff" stroke="#63b8ff" points="557.54,-220.85 560.32,-210.63 551.77,-216.89 557.54,-220.85"/>
</a>
</g>
</g>
<!-- Node18 -->
<g id="Node000018" class="node">
<title>Node18</title>
<g id="a_Node000018"><a xlink:href="kest__fpga__io_8c.html#a61cbd714b51619a08e508a5970def9af" target="_top" xlink:title=" ">
<polygon fill="white" stroke="#666666" points="461.62,-293.5 345.12,-293.5 345.12,-260 461.62,-260 461.62,-293.5"/>
<text xml:space="preserve" text-anchor="start" x="353.12" y="-280" font-family="Helvetica,sans-Serif" font-size="10.00">kest_fpga_get_delay</text>
<text xml:space="preserve" text-anchor="middle" x="403.38" y="-267.25" font-family="Helvetica,sans-Serif" font-size="10.00">_buffer_addr</text>
</a>
</g>
</g>
<!-- Node1&#45;&gt;Node18 -->
<g id="edge6_Node000001_Node000018" class="edge">
<title>Node1&#45;&gt;Node18</title>
<g id="a_edge6_Node000001_Node000018"><a xlink:title=" ">
<path fill="none" stroke="#63b8ff" d="M540.13,-215.03C521.17,-225.8 495.33,-239.88 471.75,-250.75 465.15,-253.79 458.08,-256.79 451.09,-259.61"/>
<polygon fill="#63b8ff" stroke="#63b8ff" points="541.65,-218.19 548.59,-210.18 538.17,-212.12 541.65,-218.19"/>
</a>
</g>
</g>
<!-- Node19 -->
<g id="Node000019" class="node">
<title>Node19</title>
<g id="a_Node000019"><a xlink:href="kest__fpga__io_8c.html#aec9b97cfd6352d1e0f3002d6ed4d4d3c" target="_top" xlink:title=" ">
<polygon fill="white" stroke="#666666" points="461.62,-241.5 345.12,-241.5 345.12,-208 461.62,-208 461.62,-241.5"/>
<text xml:space="preserve" text-anchor="start" x="353.12" y="-228" font-family="Helvetica,sans-Serif" font-size="10.00">kest_fpga_get_delay</text>
<text xml:space="preserve" text-anchor="middle" x="403.38" y="-215.25" font-family="Helvetica,sans-Serif" font-size="10.00">_buffer_delay</text>
</a>
</g>
</g>
<!-- Node1&#45;&gt;Node19 -->
<g id="edge8_Node000001_Node000019" class="edge">
<title>Node1&#45;&gt;Node19</title>
<g id="a_edge8_Node000001_Node000019"><a xlink:title=" ">
<path fill="none" stroke="#63b8ff" d="M496.18,-210.16C484.7,-211.99 472.96,-213.85 461.87,-215.61"/>
<polygon fill="#63b8ff" stroke="#63b8ff" points="496.72,-213.62 506.04,-208.6 495.62,-206.71 496.72,-213.62"/>
</a>
</g>
</g>
<!-- Node20 -->
<g id="Node000020" class="node">
<title>Node20</title>
<g id="a_Node000020"><a xlink:href="kest__fpga__io_8c.html#aeb66769bc41bdc3d66f4f5a196bed529" target="_top" xlink:title=" ">
<polygon fill="white" stroke="#666666" points="461.62,-189.5 345.12,-189.5 345.12,-156 461.62,-156 461.62,-189.5"/>
<text xml:space="preserve" text-anchor="start" x="353.12" y="-176" font-family="Helvetica,sans-Serif" font-size="10.00">kest_fpga_get_delay</text>
<text xml:space="preserve" text-anchor="middle" x="403.38" y="-163.25" font-family="Helvetica,sans-Serif" font-size="10.00">_buffer_gain</text>
</a>
</g>
</g>
<!-- Node1&#45;&gt;Node20 -->
<g id="edge10_Node000001_Node000020" class="edge">
<title>Node1&#45;&gt;Node20</title>
<g id="a_edge10_Node000001_Node000020"><a xlink:title=" ">
<path fill="none" stroke="#63b8ff" d="M496.18,-187.34C484.7,-185.51 472.96,-183.65 461.87,-181.89"/>
<polygon fill="#63b8ff" stroke="#63b8ff" points="495.62,-190.79 506.04,-188.9 496.72,-183.88 495.62,-190.79"/>
</a>
</g>
</g>
<!-- Node21 -->
<g id="Node000021" class="node">
<title>Node21</title>
<g id="a_Node000021"><a xlink:href="kest__fpga__io_8c.html#a2a8804e3f9b37c1933b7e5c871544e69" target="_top" xlink:title=" ">
<polygon fill="white" stroke="#666666" points="462.38,-137.5 344.38,-137.5 344.38,-104 462.38,-104 462.38,-137.5"/>
<text xml:space="preserve" text-anchor="start" x="352.38" y="-124" font-family="Helvetica,sans-Serif" font-size="10.00">kest_fpga_get_delay</text>
<text xml:space="preserve" text-anchor="middle" x="403.38" y="-111.25" font-family="Helvetica,sans-Serif" font-size="10.00">_buffer_last_rw_addr</text>
</a>
</g>
</g>
<!-- Node1&#45;&gt;Node21 -->
<g id="edge12_Node000001_Node000021" class="edge">
<title>Node1&#45;&gt;Node21</title>
<g id="a_edge12_Node000001_Node000021"><a xlink:title=" ">
<path fill="none" stroke="#63b8ff" d="M540.13,-182.47C521.17,-171.7 495.33,-157.62 471.75,-146.75 465.15,-143.71 458.08,-140.71 451.09,-137.89"/>
<polygon fill="#63b8ff" stroke="#63b8ff" points="538.17,-185.38 548.59,-187.32 541.65,-179.31 538.17,-185.38"/>
</a>
</g>
</g>
<!-- Node22 -->
<g id="Node000022" class="node">
<title>Node22</title>
<g id="a_Node000022"><a xlink:href="kest__fpga__io_8c.html#ab03b27fbb623cc160e3cbaab1593f61c" target="_top" xlink:title=" ">
<polygon fill="white" stroke="#666666" points="461.62,-85.5 345.12,-85.5 345.12,-52 461.62,-52 461.62,-85.5"/>
<text xml:space="preserve" text-anchor="start" x="353.12" y="-72" font-family="Helvetica,sans-Serif" font-size="10.00">kest_fpga_get_delay</text>
<text xml:space="preserve" text-anchor="middle" x="403.38" y="-59.25" font-family="Helvetica,sans-Serif" font-size="10.00">_buffer_pos</text>
</a>
</g>
</g>
<!-- Node1&#45;&gt;Node22 -->
<g id="edge14_Node000001_Node000022" class="edge">
<title>Node1&#45;&gt;Node22</title>
<g id="a_edge14_Node000001_Node000022"><a xlink:title=" ">
<path fill="none" stroke="#63b8ff" d="M554.12,-178.97C537.08,-155.94 506.15,-118.09 471.75,-94.75 466.98,-91.51 461.74,-88.6 456.37,-86"/>
<polygon fill="#63b8ff" stroke="#63b8ff" points="551.16,-180.84 559.86,-186.89 556.83,-176.74 551.16,-180.84"/>
</a>
</g>
</g>
<!-- Node23 -->
<g id="Node000023" class="node">
<title>Node23</title>
<g id="a_Node000023"><a xlink:href="kest__fpga__io_8c.html#ae4692d070ab3911252b8af3527b73bd4" target="_top" xlink:title=" ">
<polygon fill="white" stroke="#666666" points="461.62,-33.5 345.12,-33.5 345.12,0 461.62,0 461.62,-33.5"/>
<text xml:space="preserve" text-anchor="start" x="353.12" y="-20" font-family="Helvetica,sans-Serif" font-size="10.00">kest_fpga_get_delay</text>
<text xml:space="preserve" text-anchor="middle" x="403.38" y="-7.25" font-family="Helvetica,sans-Serif" font-size="10.00">_buffer_size</text>
</a>
</g>
</g>
<!-- Node1&#45;&gt;Node23 -->
<g id="edge16_Node000001_Node000023" class="edge">
<title>Node1&#45;&gt;Node23</title>
<g id="a_edge16_Node000001_Node000023"><a xlink:title=" ">
<path fill="none" stroke="#63b8ff" d="M560.19,-177.7C546.9,-144.58 516.86,-80.22 471.75,-42.75 467.7,-39.39 463.16,-36.42 458.41,-33.83"/>
<polygon fill="#63b8ff" stroke="#63b8ff" points="556.77,-178.55 563.64,-186.6 563.29,-176.02 556.77,-178.55"/>
</a>
</g>
</g>
<!-- Node3 -->
<g id="Node000003" class="node">
<title>Node3</title>
<g id="a_Node000003"><a xlink:href="kest__fpga__comms_8c.html#a0e24c965de231bcab602b5b43acb805d" target="_top" xlink:title=" ">
<polygon fill="white" stroke="#666666" points="299,-215.5 166.75,-215.5 166.75,-182 299,-182 299,-215.5"/>
<text xml:space="preserve" text-anchor="start" x="174.75" y="-202" font-family="Helvetica,sans-Serif" font-size="10.00">kest_fpga_comms_print</text>
<text xml:space="preserve" text-anchor="middle" x="232.88" y="-189.25" font-family="Helvetica,sans-Serif" font-size="10.00">_full_scan</text>
</a>
</g>
</g>
<!-- Node2&#45;&gt;Node3 -->
<g id="edge2_Node000002_Node000003" class="edge">
<title>Node2&#45;&gt;Node3</title>
<g id="a_edge2_Node000002_Node000003"><a xlink:title=" ">
<path fill="none" stroke="#63b8ff" d="M339.12,-343.74C337.71,-342.78 336.33,-341.78 335,-340.75 289.82,-305.67 256.23,-244.99 241.74,-215.63"/>
<polygon fill="#63b8ff" stroke="#63b8ff" points="337.23,-346.68 347.61,-348.8 340.81,-340.67 337.23,-346.68"/>
</a>
</g>
</g>
<!-- Node4 -->
<g id="Node000004" class="node">
<title>Node4</title>
<g id="a_Node000004"><a xlink:href="kest__fpga__comms_8c.html#a8f850777494bb4c4d61df3efbf31ca7c" target="_top" xlink:title=" ">
<polygon fill="#fff0f0" stroke="red" points="130.75,-209.12 0,-209.12 0,-188.38 130.75,-188.38 130.75,-209.12"/>
<text xml:space="preserve" text-anchor="middle" x="65.38" y="-195.62" font-family="Helvetica,sans-Serif" font-size="10.00">kest_fpga_comms_task</text>
</a>
</g>
</g>
<!-- Node3&#45;&gt;Node4 -->
<g id="edge3_Node000003_Node000004" class="edge">
<title>Node3&#45;&gt;Node4</title>
<g id="a_edge3_Node000003_Node000004"><a xlink:title=" ">
<path fill="none" stroke="#63b8ff" d="M155.15,-198.75C147.09,-198.75 138.95,-198.75 131.04,-198.75"/>
<polygon fill="#63b8ff" stroke="#63b8ff" points="154.95,-202.25 164.95,-198.75 154.95,-195.25 154.95,-202.25"/>
</a>
</g>
</g>
<!-- Node17&#45;&gt;Node3 -->
<g id="edge5_Node000017_Node000003" class="edge">
<title>Node17&#45;&gt;Node3</title>
<g id="a_edge5_Node000017_Node000003"><a xlink:title=" ">
<path fill="none" stroke="#63b8ff" d="M342.14,-306.57C339.68,-305.38 337.29,-304.11 335,-302.75 296.7,-279.94 263.02,-238.96 245.88,-215.83"/>
<polygon fill="#63b8ff" stroke="#63b8ff" points="340.58,-309.71 351.16,-310.36 343.3,-303.25 340.58,-309.71"/>
</a>
</g>
</g>
<!-- Node18&#45;&gt;Node3 -->
<g id="edge7_Node000018_Node000003" class="edge">
<title>Node18&#45;&gt;Node3</title>
<g id="a_edge7_Node000018_Node000003"><a xlink:title=" ">
<path fill="none" stroke="#63b8ff" d="M345.73,-255.4C342.08,-253.87 338.48,-252.31 335,-250.75 311.04,-240 284.68,-226.39 264.89,-215.79"/>
<polygon fill="#63b8ff" stroke="#63b8ff" points="344.1,-258.51 354.68,-259.06 346.75,-252.03 344.1,-258.51"/>
</a>
</g>
</g>
<!-- Node19&#45;&gt;Node3 -->
<g id="edge9_Node000019_Node000003" class="edge">
<title>Node19&#45;&gt;Node3</title>
<g id="a_edge9_Node000019_Node000003"><a xlink:title=" ">
<path fill="none" stroke="#63b8ff" d="M333.65,-214.15C322.28,-212.39 310.52,-210.58 299.24,-208.84"/>
<polygon fill="#63b8ff" stroke="#63b8ff" points="332.95,-217.58 343.36,-215.64 334.01,-210.66 332.95,-217.58"/>
</a>
</g>
</g>
<!-- Node20&#45;&gt;Node3 -->
<g id="edge11_Node000020_Node000003" class="edge">
<title>Node20&#45;&gt;Node3</title>
<g id="a_edge11_Node000020_Node000003"><a xlink:title=" ">
<path fill="none" stroke="#63b8ff" d="M333.65,-183.35C322.28,-185.11 310.52,-186.92 299.24,-188.66"/>
<polygon fill="#63b8ff" stroke="#63b8ff" points="334.01,-186.84 343.36,-181.86 332.95,-179.92 334.01,-186.84"/>
</a>
</g>
</g>
<!-- Node21&#45;&gt;Node3 -->
<g id="edge13_Node000021_Node000003" class="edge">
<title>Node21&#45;&gt;Node3</title>
<g id="a_edge13_Node000021_Node000003"><a xlink:title=" ">
<path fill="none" stroke="#63b8ff" d="M345.73,-142.1C342.08,-143.63 338.48,-145.19 335,-146.75 311.04,-157.5 284.68,-171.11 264.89,-181.71"/>
<polygon fill="#63b8ff" stroke="#63b8ff" points="346.75,-145.47 354.68,-138.44 344.1,-138.99 346.75,-145.47"/>
</a>
</g>
</g>
<!-- Node22&#45;&gt;Node3 -->
<g id="edge15_Node000022_Node000003" class="edge">
<title>Node22&#45;&gt;Node3</title>
<g id="a_edge15_Node000022_Node000003"><a xlink:title=" ">
<path fill="none" stroke="#63b8ff" d="M340.71,-91.23C338.75,-92.36 336.84,-93.53 335,-94.75 298.02,-119.18 264.09,-159.18 246.49,-181.79"/>
<polygon fill="#63b8ff" stroke="#63b8ff" points="342.23,-94.38 349.47,-86.65 338.99,-88.18 342.23,-94.38"/>
</a>
</g>
</g>
<!-- Node23&#45;&gt;Node3 -->
<g id="edge17_Node000023_Node000003" class="edge">
<title>Node23&#45;&gt;Node3</title>
<g id="a_edge17_Node000023_Node000003"><a xlink:title=" ">
<path fill="none" stroke="#63b8ff" d="M338.96,-39.75C337.6,-40.71 336.28,-41.71 335,-42.75 286.89,-81.81 254.06,-150.03 240.66,-181.7"/>
<polygon fill="#63b8ff" stroke="#63b8ff" points="340.45,-42.94 347.13,-34.72 336.78,-36.99 340.45,-42.94"/>
</a>
</g>
</g>
</g>
</svg>
