<?xml version="1.0" encoding="UTF-8" standalone="no"?>
<!DOCTYPE svg PUBLIC "-//W3C//DTD SVG 1.1//EN"
 "http://www.w3.org/Graphics/SVG/1.1/DTD/svg11.dtd">
<!-- Generated by graphviz version 13.1.2 (20250808.2320)
 -->
<!-- Title: float_to_q_nminus1_filter_width Pages: 1 -->
<svg width="661pt" height="274pt"
 viewBox="0.00 0.00 661.00 274.00" xmlns="http://www.w3.org/2000/svg" xmlns:xlink="http://www.w3.org/1999/xlink">
<g id="graph0" class="graph" transform="scale(1 1) rotate(0) translate(4 269.88)">
<title>float_to_q_nminus1_filter_width</title>
<!-- Node1 -->
<g id="Node000001" class="node">
<title>Node1</title>
<g id="a_Node000001"><a xlink:title=" ">
<polygon fill="#999999" stroke="#666666" points="652.75,-137.5 540.75,-137.5 540.75,-104 652.75,-104 652.75,-137.5"/>
<text xml:space="preserve" text-anchor="start" x="548.75" y="-124" font-family="Helvetica,sans-Serif" font-size="10.00">float_to_q_nminus1</text>
<text xml:space="preserve" text-anchor="middle" x="596.75" y="-111.25" font-family="Helvetica,sans-Serif" font-size="10.00">_filter_width</text>
</a>
</g>
</g>
<!-- Node2 -->
<g id="Node000002" class="node">
<title>Node2</title>
<g id="a_Node000002"><a xlink:href="kest__fpga__encoding_8c.html#a64f5333c5ff60101795695bce0de75d5" target="_top" xlink:title=" ">
<polygon fill="white" stroke="#666666" points="504.75,-192.5 368,-192.5 368,-159 504.75,-159 504.75,-192.5"/>
<text xml:space="preserve" text-anchor="start" x="376" y="-179" font-family="Helvetica,sans-Serif" font-size="10.00">kest_fpga_batch_append</text>
<text xml:space="preserve" text-anchor="middle" x="436.38" y="-166.25" font-family="Helvetica,sans-Serif" font-size="10.00">_filter_updates</text>
</a>
</g>
</g>
<!-- Node1&#45;&gt;Node2 -->
<g id="edge1_Node000001_Node000002" class="edge">
<title>Node1&#45;&gt;Node2</title>
<g id="a_edge1_Node000001_Node000002"><a xlink:title=" ">
<path fill="none" stroke="#63b8ff" d="M536.05,-141.48C519.83,-147.12 502.45,-153.15 486.86,-158.57"/>
<polygon fill="#63b8ff" stroke="#63b8ff" points="536.78,-144.93 545.08,-138.35 534.48,-138.32 536.78,-144.93"/>
</a>
</g>
</g>
<!-- Node68 -->
<g id="Node000068" class="node">
<title>Node68</title>
<g id="a_Node000068"><a xlink:href="kest__fpga__io_8c.html#a6159e987931bc8bd9f33ed3c6faf9e69" target="_top" xlink:title=" ">
<polygon fill="white" stroke="#666666" points="504.75,-137.5 368,-137.5 368,-104 504.75,-104 504.75,-137.5"/>
<text xml:space="preserve" text-anchor="start" x="376" y="-124" font-family="Helvetica,sans-Serif" font-size="10.00">kest_fpga_batch_append</text>
<text xml:space="preserve" text-anchor="middle" x="436.38" y="-111.25" font-family="Helvetica,sans-Serif" font-size="10.00">_float_filter_width</text>
</a>
</g>
</g>
<!-- Node1&#45;&gt;Node68 -->
<g id="edge5_Node000001_Node000068" class="edge">
<title>Node1&#45;&gt;Node68</title>
<g id="a_edge5_Node000001_Node000068"><a xlink:title=" ">
<path fill="none" stroke="#63b8ff" d="M528.92,-120.75C521.01,-120.75 512.92,-120.75 505,-120.75"/>
<polygon fill="#63b8ff" stroke="#63b8ff" points="528.84,-124.25 538.84,-120.75 528.84,-117.25 528.84,-124.25"/>
</a>
</g>
</g>
<!-- Node75 -->
<g id="Node000075" class="node">
<title>Node75</title>
<g id="a_Node000075"><a xlink:href="kest__fpga__encoding_8c.html#aa82f7b9cb7a332e38a8a810376eea489" target="_top" xlink:title=" ">
<polygon fill="white" stroke="#666666" points="504.75,-85.5 368,-85.5 368,-52 504.75,-52 504.75,-85.5"/>
<text xml:space="preserve" text-anchor="start" x="376" y="-72" font-family="Helvetica,sans-Serif" font-size="10.00">kest_fpga_batch_append</text>
<text xml:space="preserve" text-anchor="middle" x="436.38" y="-59.25" font-family="Helvetica,sans-Serif" font-size="10.00">_resource</text>
</a>
</g>
</g>
<!-- Node1&#45;&gt;Node75 -->
<g id="edge8_Node000001_Node000075" class="edge">
<title>Node1&#45;&gt;Node75</title>
<g id="a_edge8_Node000001_Node000075"><a xlink:title=" ">
<path fill="none" stroke="#63b8ff" d="M532.76,-100.07C518.55,-95.4 503.61,-90.5 489.89,-85.99"/>
<polygon fill="#63b8ff" stroke="#63b8ff" points="531.42,-103.31 542.02,-103.11 533.61,-96.66 531.42,-103.31"/>
</a>
</g>
</g>
<!-- Node3 -->
<g id="Node000003" class="node">
<title>Node3</title>
<g id="a_Node000003"><a xlink:href="kest__fpga__encoding_8c.html#ac394803c8e9221fd364038f343070fcb" target="_top" xlink:title=" ">
<polygon fill="white" stroke="#666666" points="321.12,-195.5 184.38,-195.5 184.38,-162 321.12,-162 321.12,-195.5"/>
<text xml:space="preserve" text-anchor="start" x="192.38" y="-182" font-family="Helvetica,sans-Serif" font-size="10.00">kest_fpga_batch_append</text>
<text xml:space="preserve" text-anchor="middle" x="252.75" y="-169.25" font-family="Helvetica,sans-Serif" font-size="10.00">_resource_updates</text>
</a>
</g>
</g>
<!-- Node2&#45;&gt;Node3 -->
<g id="edge2_Node000002_Node000003" class="edge">
<title>Node2&#45;&gt;Node3</title>
<g id="a_edge2_Node000002_Node000003"><a xlink:title=" ">
<path fill="none" stroke="#63b8ff" d="M356.25,-177.06C344.65,-177.25 332.79,-177.44 321.44,-177.63"/>
<polygon fill="#63b8ff" stroke="#63b8ff" points="356.29,-180.56 366.23,-176.89 356.17,-173.56 356.29,-180.56"/>
</a>
</g>
</g>
<!-- Node4 -->
<g id="Node000004" class="node">
<title>Node4</title>
<g id="a_Node000004"><a xlink:href="kest__fpga__encoding_8c.html#a815f4fb2e5a9d1e468df416e3385a638" target="_top" xlink:title=" ">
<polygon fill="white" stroke="#666666" points="130.38,-265.88 7.12,-265.88 7.12,-219.62 130.38,-219.62 130.38,-265.88"/>
<text xml:space="preserve" text-anchor="start" x="15.12" y="-252.38" font-family="Helvetica,sans-Serif" font-size="10.00">kest_fpga_transfer</text>
<text xml:space="preserve" text-anchor="start" x="15.12" y="-239.62" font-family="Helvetica,sans-Serif" font-size="10.00">_batch_append_effect</text>
<text xml:space="preserve" text-anchor="middle" x="68.75" y="-226.88" font-family="Helvetica,sans-Serif" font-size="10.00">_resource_updates</text>
</a>
</g>
</g>
<!-- Node3&#45;&gt;Node4 -->
<g id="edge3_Node000003_Node000004" class="edge">
<title>Node3&#45;&gt;Node4</title>
<g id="a_edge3_Node000003_Node000004"><a xlink:title=" ">
<path fill="none" stroke="#63b8ff" d="M192.28,-199.66C172.54,-206.6 150.55,-214.34 130.71,-221.31"/>
<polygon fill="#63b8ff" stroke="#63b8ff" points="193.28,-203.02 201.55,-196.4 190.95,-196.42 193.28,-203.02"/>
</a>
</g>
</g>
<!-- Node5 -->
<g id="Node000005" class="node">
<title>Node5</title>
<g id="a_Node000005"><a xlink:href="kest__fpga__encoding_8c.html#ade3fe9441d89d772781808237a764a94" target="_top" xlink:title=" ">
<polygon fill="#fff0f0" stroke="red" points="130.38,-201.88 7.12,-201.88 7.12,-155.62 130.38,-155.62 130.38,-201.88"/>
<text xml:space="preserve" text-anchor="start" x="15.12" y="-188.38" font-family="Helvetica,sans-Serif" font-size="10.00">kest_fpga_transfer</text>
<text xml:space="preserve" text-anchor="start" x="15.12" y="-175.62" font-family="Helvetica,sans-Serif" font-size="10.00">_batch_append_effect</text>
<text xml:space="preserve" text-anchor="middle" x="68.75" y="-162.88" font-family="Helvetica,sans-Serif" font-size="10.00">_resource_updates_</text>
</a>
</g>
</g>
<!-- Node3&#45;&gt;Node5 -->
<g id="edge4_Node000003_Node000005" class="edge">
<title>Node3&#45;&gt;Node5</title>
<g id="a_edge4_Node000003_Node000005"><a xlink:title=" ">
<path fill="none" stroke="#63b8ff" d="M172.78,-178.75C158.67,-178.75 144.18,-178.75 130.67,-178.75"/>
<polygon fill="#63b8ff" stroke="#63b8ff" points="172.47,-182.25 182.47,-178.75 172.47,-175.25 172.47,-182.25"/>
</a>
</g>
</g>
<!-- Node69 -->
<g id="Node000069" class="node">
<title>Node69</title>
<g id="a_Node000069"><a xlink:href="kest__fpga__cmd_8c.html#a31d78d4d199f0ae142fc70e32d0f5f16" target="_top" xlink:title=" ">
<polygon fill="white" stroke="#666666" points="332,-137.5 173.5,-137.5 173.5,-104 332,-104 332,-137.5"/>
<text xml:space="preserve" text-anchor="start" x="181.5" y="-124" font-family="Helvetica,sans-Serif" font-size="10.00">kest_fpga_command_append</text>
<text xml:space="preserve" text-anchor="middle" x="252.75" y="-111.25" font-family="Helvetica,sans-Serif" font-size="10.00">_encoded</text>
</a>
</g>
</g>
<!-- Node68&#45;&gt;Node69 -->
<g id="edge6_Node000068_Node000069" class="edge">
<title>Node68&#45;&gt;Node69</title>
<g id="a_edge6_Node000068_Node000069"><a xlink:title=" ">
<path fill="none" stroke="#63b8ff" d="M356.28,-120.75C348.38,-120.75 340.36,-120.75 332.46,-120.75"/>
<polygon fill="#63b8ff" stroke="#63b8ff" points="356.23,-124.25 366.23,-120.75 356.23,-117.25 356.23,-124.25"/>
</a>
</g>
</g>
<!-- Node70 -->
<g id="Node000070" class="node">
<title>Node70</title>
<g id="a_Node000070"><a xlink:href="kest__fpga__cmd_8c.html#a263cc37db306d9929feeffdb0b76396d" target="_top" xlink:title=" ">
<polygon fill="#fff0f0" stroke="red" points="137.5,-137.5 0,-137.5 0,-104 137.5,-104 137.5,-137.5"/>
<text xml:space="preserve" text-anchor="start" x="8" y="-124" font-family="Helvetica,sans-Serif" font-size="10.00">kest_fpga_command_list</text>
<text xml:space="preserve" text-anchor="middle" x="68.75" y="-111.25" font-family="Helvetica,sans-Serif" font-size="10.00">_append_encoded</text>
</a>
</g>
</g>
<!-- Node69&#45;&gt;Node70 -->
<g id="edge7_Node000069_Node000070" class="edge">
<title>Node69&#45;&gt;Node70</title>
<g id="a_edge7_Node000069_Node000070"><a xlink:title=" ">
<path fill="none" stroke="#63b8ff" d="M161.91,-120.75C153.86,-120.75 145.8,-120.75 137.99,-120.75"/>
<polygon fill="#63b8ff" stroke="#63b8ff" points="161.73,-124.25 171.73,-120.75 161.73,-117.25 161.73,-124.25"/>
</a>
</g>
</g>
<!-- Node76 -->
<g id="Node000076" class="node">
<title>Node76</title>
<g id="a_Node000076"><a xlink:href="kest__fpga__encoding_8c.html#ab08e3e7d0ceafbe256baf1541da45159" target="_top" xlink:title=" ">
<polygon fill="white" stroke="#666666" points="321.12,-85.5 184.38,-85.5 184.38,-52 321.12,-52 321.12,-85.5"/>
<text xml:space="preserve" text-anchor="start" x="192.38" y="-72" font-family="Helvetica,sans-Serif" font-size="10.00">kest_fpga_batch_append</text>
<text xml:space="preserve" text-anchor="middle" x="252.75" y="-59.25" font-family="Helvetica,sans-Serif" font-size="10.00">_resource_list</text>
</a>
</g>
</g>
<!-- Node75&#45;&gt;Node76 -->
<g id="edge9_Node000075_Node000076" class="edge">
<title>Node75&#45;&gt;Node76</title>
<g id="a_edge9_Node000075_Node000076"><a xlink:title=" ">
<path fill="none" stroke="#63b8ff" d="M356.25,-68.75C344.65,-68.75 332.79,-68.75 321.44,-68.75"/>
<polygon fill="#63b8ff" stroke="#63b8ff" points="356.23,-72.25 366.23,-68.75 356.23,-65.25 356.23,-72.25"/>
</a>
</g>
</g>
<!-- Node87 -->
<g id="Node000087" class="node">
<title>Node87</title>
<g id="a_Node000087"><a xlink:href="kest__fpga__encoding_8c.html#ac29c0fe9f8b2cfd9ca5df8aa2f65eb20" target="_top" xlink:title=" ">
<polygon fill="white" stroke="#666666" points="321.12,-33.5 184.38,-33.5 184.38,0 321.12,0 321.12,-33.5"/>
<text xml:space="preserve" text-anchor="start" x="192.38" y="-20" font-family="Helvetica,sans-Serif" font-size="10.00">kest_fpga_batch_append</text>
<text xml:space="preserve" text-anchor="middle" x="252.75" y="-7.25" font-family="Helvetica,sans-Serif" font-size="10.00">_resources</text>
</a>
</g>
</g>
<!-- Node75&#45;&gt;Node87 -->
<g id="edge11_Node000075_Node000087" class="edge">
<title>Node75&#45;&gt;Node87</title>
<g id="a_edge11_Node000075_Node000087"><a xlink:title=" ">
<path fill="none" stroke="#63b8ff" d="M364.33,-48.41C347.63,-43.63 329.98,-38.58 313.81,-33.95"/>
<polygon fill="#63b8ff" stroke="#63b8ff" points="363.12,-51.7 373.69,-51.09 365.04,-44.97 363.12,-51.7"/>
</a>
</g>
</g>
<!-- Node77 -->
<g id="Node000077" class="node">
<title>Node77</title>
<g id="a_Node000077"><a xlink:href="kest__fpga__encoding_8c.html#a1d36760e33c68c0a5b22c8920f3a5a2b" target="_top" xlink:title=" ">
<polygon fill="#fff0f0" stroke="red" points="137.12,-85.5 0.38,-85.5 0.38,-52 137.12,-52 137.12,-85.5"/>
<text xml:space="preserve" text-anchor="start" x="8.38" y="-72" font-family="Helvetica,sans-Serif" font-size="10.00">kest_fpga_batch_append</text>
<text xml:space="preserve" text-anchor="middle" x="68.75" y="-59.25" font-family="Helvetica,sans-Serif" font-size="10.00">_effect</text>
</a>
</g>
</g>
<!-- Node76&#45;&gt;Node77 -->
<g id="edge10_Node000076_Node000077" class="edge">
<title>Node76&#45;&gt;Node77</title>
<g id="a_edge10_Node000076_Node000077"><a xlink:title=" ">
<path fill="none" stroke="#63b8ff" d="M172.83,-68.75C161.08,-68.75 149.07,-68.75 137.58,-68.75"/>
<polygon fill="#63b8ff" stroke="#63b8ff" points="172.47,-72.25 182.47,-68.75 172.47,-65.25 172.47,-72.25"/>
</a>
</g>
</g>
<!-- Node88 -->
<g id="Node000088" class="node">
<title>Node88</title>
<g id="a_Node000088"><a xlink:href="kest__fpga__encoding_8c.html#a443f946c065dedfb5afd510d362a931a" target="_top" xlink:title=" ">
<polygon fill="white" stroke="#666666" points="137.12,-33.5 0.38,-33.5 0.38,0 137.12,0 137.12,-33.5"/>
<text xml:space="preserve" text-anchor="start" x="8.38" y="-20" font-family="Helvetica,sans-Serif" font-size="10.00">kest_fpga_batch_append</text>
<text xml:space="preserve" text-anchor="middle" x="68.75" y="-7.25" font-family="Helvetica,sans-Serif" font-size="10.00">_eff_desc</text>
</a>
</g>
</g>
<!-- Node87&#45;&gt;Node88 -->
<g id="edge12_Node000087_Node000088" class="edge">
<title>Node87&#45;&gt;Node88</title>
<g id="a_edge12_Node000087_Node000088"><a xlink:title=" ">
<path fill="none" stroke="#63b8ff" d="M172.83,-16.75C161.08,-16.75 149.07,-16.75 137.58,-16.75"/>
<polygon fill="#63b8ff" stroke="#63b8ff" points="172.47,-20.25 182.47,-16.75 172.47,-13.25 172.47,-20.25"/>
</a>
</g>
</g>
</g>
</svg>
