<?xml version="1.0" encoding="UTF-8" standalone="no"?>
<!DOCTYPE svg PUBLIC "-//W3C//DTD SVG 1.1//EN"
 "http://www.w3.org/Graphics/SVG/1.1/DTD/svg11.dtd">
<!-- Generated by graphviz version 13.1.2 (20250808.2320)
 -->
<!-- Title: set_active_preset Pages: 1 -->
<svg width="762pt" height="48pt"
 viewBox="0.00 0.00 762.00 48.00" xmlns="http://www.w3.org/2000/svg" xmlns:xlink="http://www.w3.org/1999/xlink">
<g id="graph0" class="graph" transform="scale(1 1) rotate(0) translate(4 43.75)">
<title>set_active_preset</title>
<!-- Node1 -->
<g id="Node000001" class="node">
<title>Node1</title>
<g id="a_Node000001"><a xlink:title=" ">
<polygon fill="#999999" stroke="#666666" points="753.5,-39.75 651.25,-39.75 651.25,-19 753.5,-19 753.5,-39.75"/>
<text xml:space="preserve" text-anchor="middle" x="702.38" y="-26.25" font-family="Helvetica,sans-Serif" font-size="10.00">set_active_preset</text>
</a>
</g>
</g>
<!-- Node2 -->
<g id="Node000002" class="node">
<title>Node2</title>
<g id="a_Node000002"><a xlink:href="kest__preset__view_8c.html#a94f5c88455763855196088379903825d" target="_top" xlink:title=" ">
<polygon fill="white" stroke="#666666" points="615.25,-39.75 460.5,-39.75 460.5,-19 615.25,-19 615.25,-39.75"/>
<text xml:space="preserve" text-anchor="middle" x="537.88" y="-26.25" font-family="Helvetica,sans-Serif" font-size="10.00">preset_view_play_button_cb</text>
</a>
</g>
</g>
<!-- Node1&#45;&gt;Node2 -->
<g id="edge1_Node000001_Node000002" class="edge">
<title>Node1&#45;&gt;Node2</title>
<g id="a_edge1_Node000001_Node000002"><a xlink:title=" ">
<path fill="none" stroke="#63b8ff" d="M639.59,-29.38C631.75,-29.38 623.65,-29.38 615.62,-29.38"/>
<polygon fill="#63b8ff" stroke="#63b8ff" points="639.34,-32.88 649.34,-29.38 639.34,-25.88 639.34,-32.88"/>
</a>
</g>
</g>
<!-- Node3 -->
<g id="Node000003" class="node">
<title>Node3</title>
<g id="a_Node000003"><a xlink:href="kest__preset__view_8c.html#ad8a171502fcb88f5b5a08657a6424752" target="_top" xlink:title=" ">
<polygon fill="white" stroke="#666666" points="424.5,-39.75 298.25,-39.75 298.25,-19 424.5,-19 424.5,-39.75"/>
<text xml:space="preserve" text-anchor="middle" x="361.38" y="-26.25" font-family="Helvetica,sans-Serif" font-size="10.00">configure_preset_view</text>
</a>
</g>
</g>
<!-- Node2&#45;&gt;Node3 -->
<g id="edge2_Node000002_Node000003" class="edge">
<title>Node2&#45;&gt;Node3</title>
<g id="a_edge2_Node000002_Node000003"><a xlink:title=" ">
<path fill="none" stroke="#63b8ff" d="M448.7,-29.38C440.63,-29.38 432.57,-29.38 424.8,-29.38"/>
<polygon fill="#63b8ff" stroke="#63b8ff" points="448.57,-32.88 458.57,-29.38 448.57,-25.88 448.57,-32.88"/>
</a>
</g>
</g>
<!-- Node4 -->
<g id="Node000004" class="node">
<title>Node4</title>
<g id="a_Node000004"><a xlink:href="kest__preset__view_8c.html#ae4f85ce684e856ba2d0dfc97c49528b2" target="_top" xlink:title=" ">
<polygon fill="#fff0f0" stroke="red" points="130,-39.75 0,-39.75 0,-19 130,-19 130,-39.75"/>
<text xml:space="preserve" text-anchor="middle" x="65" y="-26.25" font-family="Helvetica,sans-Serif" font-size="10.00">create_preset_view_for</text>
</a>
</g>
</g>
<!-- Node3&#45;&gt;Node4 -->
<g id="edge3_Node000003_Node000004" class="edge">
<title>Node3&#45;&gt;Node4</title>
<g id="a_edge3_Node000003_Node000004"><a xlink:title=" ">
<path fill="none" stroke="#63b8ff" d="M286.67,-29.38C238.6,-29.38 176.46,-29.38 130.37,-29.38"/>
<polygon fill="#63b8ff" stroke="#63b8ff" points="286.43,-32.88 296.43,-29.38 286.43,-25.88 286.43,-32.88"/>
</a>
</g>
</g>
<!-- Node33 -->
<g id="Node000033" class="node">
<title>Node33</title>
<g id="a_Node000033"><a xlink:href="kest__preset__view_8c.html#a7aa469a400baf1fdf82d314a2ad5ddbb" target="_top" xlink:title=" ">
<polygon fill="white" stroke="#666666" points="262.25,-20.75 166,-20.75 166,0 262.25,0 262.25,-20.75"/>
<text xml:space="preserve" text-anchor="middle" x="214.12" y="-7.25" font-family="Helvetica,sans-Serif" font-size="10.00">init_preset_view</text>
</a>
</g>
</g>
<!-- Node3&#45;&gt;Node33 -->
<g id="edge4_Node000003_Node000033" class="edge">
<title>Node3&#45;&gt;Node33</title>
<g id="a_edge4_Node000003_Node000033"><a xlink:title=" ">
<path fill="none" stroke="#63b8ff" d="M286.76,-19.75C278.55,-18.67 270.36,-17.6 262.6,-16.58"/>
<polygon fill="#63b8ff" stroke="#63b8ff" points="286.06,-23.18 296.43,-21.01 286.97,-16.24 286.06,-23.18"/>
</a>
</g>
</g>
<!-- Node33&#45;&gt;Node4 -->
<g id="edge5_Node000033_Node000004" class="edge">
<title>Node33&#45;&gt;Node4</title>
<g id="a_edge5_Node000033_Node000004"><a xlink:title=" ">
<path fill="none" stroke="#63b8ff" d="M154.42,-17.96C146.54,-18.97 138.41,-20.02 130.43,-21.05"/>
<polygon fill="#63b8ff" stroke="#63b8ff" points="154.79,-21.44 164.26,-16.69 153.9,-14.49 154.79,-21.44"/>
</a>
</g>
</g>
</g>
</svg>
