<?xml version="1.0" encoding="UTF-8" standalone="no"?>
<!DOCTYPE svg PUBLIC "-//W3C//DTD SVG 1.1//EN"
 "http://www.w3.org/Graphics/SVG/1.1/DTD/svg11.dtd">
<!-- Generated by graphviz version 13.1.2 (20250808.2320)
 -->
<!-- Title: binary_print_n Pages: 1 -->
<svg width="922pt" height="301pt"
 viewBox="0.00 0.00 922.00 301.00" xmlns="http://www.w3.org/2000/svg" xmlns:xlink="http://www.w3.org/1999/xlink">
<g id="graph0" class="graph" transform="scale(1 1) rotate(0) translate(4 297.12)">
<title>binary_print_n</title>
<!-- Node1 -->
<g id="Node000001" class="node">
<title>Node1</title>
<g id="a_Node000001"><a xlink:title=" ">
<polygon fill="#999999" stroke="#666666" points="913.5,-202.12 827.75,-202.12 827.75,-181.38 913.5,-181.38 913.5,-202.12"/>
<text xml:space="preserve" text-anchor="middle" x="870.62" y="-188.62" font-family="Helvetica,sans-Serif" font-size="10.00">binary_print_n</text>
</a>
</g>
</g>
<!-- Node2 -->
<g id="Node000002" class="node">
<title>Node2</title>
<g id="a_Node000002"><a xlink:href="kest__helper__fn_8c.html#a3e848609eabc8d2389b0a9f4517a0a13" target="_top" xlink:title=" ">
<polygon fill="white" stroke="#666666" points="791.75,-243.12 700,-243.12 700,-222.38 791.75,-222.38 791.75,-243.12"/>
<text xml:space="preserve" text-anchor="middle" x="745.88" y="-229.62" font-family="Helvetica,sans-Serif" font-size="10.00">binary_print_16</text>
</a>
</g>
</g>
<!-- Node1&#45;&gt;Node2 -->
<g id="edge1_Node000001_Node000002" class="edge">
<title>Node1&#45;&gt;Node2</title>
<g id="a_edge1_Node000001_Node000002"><a xlink:title=" ">
<path fill="none" stroke="#63b8ff" d="M826.46,-206.17C810.96,-211.34 793.77,-217.09 779.34,-221.91"/>
<polygon fill="#63b8ff" stroke="#63b8ff" points="827.56,-209.49 835.94,-203 825.34,-202.85 827.56,-209.49"/>
</a>
</g>
</g>
<!-- Node27 -->
<g id="Node000027" class="node">
<title>Node27</title>
<g id="a_Node000027"><a xlink:href="kest__helper__fn_8c.html#ad1ec0738e9eb4d206d93d895c18185fb" target="_top" xlink:title=" ">
<polygon fill="white" stroke="#666666" points="791.75,-293.12 700,-293.12 700,-272.38 791.75,-272.38 791.75,-293.12"/>
<text xml:space="preserve" text-anchor="middle" x="745.88" y="-279.62" font-family="Helvetica,sans-Serif" font-size="10.00">binary_print_24</text>
</a>
</g>
</g>
<!-- Node1&#45;&gt;Node27 -->
<g id="edge8_Node000001_Node000027" class="edge">
<title>Node1&#45;&gt;Node27</title>
<g id="a_edge8_Node000001_Node000027"><a xlink:title=" ">
<path fill="none" stroke="#63b8ff" d="M847.19,-209.53C831.76,-221.64 810.7,-237.92 791.75,-251.75 782.27,-258.67 771.44,-266.16 762.8,-272.04"/>
<polygon fill="#63b8ff" stroke="#63b8ff" points="849.12,-212.46 854.81,-203.53 844.79,-206.96 849.12,-212.46"/>
</a>
</g>
</g>
<!-- Node28 -->
<g id="Node000028" class="node">
<title>Node28</title>
<g id="a_Node000028"><a xlink:href="kest__helper__fn_8c.html#abfa0a62bfb1dd7da27bb3c1f08a3f738" target="_top" xlink:title=" ">
<polygon fill="white" stroke="#666666" points="791.75,-86.12 700,-86.12 700,-65.38 791.75,-65.38 791.75,-86.12"/>
<text xml:space="preserve" text-anchor="middle" x="745.88" y="-72.62" font-family="Helvetica,sans-Serif" font-size="10.00">binary_print_32</text>
</a>
</g>
</g>
<!-- Node1&#45;&gt;Node28 -->
<g id="edge10_Node000001_Node000028" class="edge">
<title>Node1&#45;&gt;Node28</title>
<g id="a_edge10_Node000001_Node000028"><a xlink:title=" ">
<path fill="none" stroke="#63b8ff" d="M849.97,-173.17C823.99,-148.62 779.07,-106.18 758.18,-86.43"/>
<polygon fill="#63b8ff" stroke="#63b8ff" points="847.52,-175.68 857.2,-180.01 852.33,-170.59 847.52,-175.68"/>
</a>
</g>
</g>
<!-- Node68 -->
<g id="Node000068" class="node">
<title>Node68</title>
<g id="a_Node000068"><a xlink:href="kest__helper__fn_8c.html#a71d0fe9c91ec0ef87fa75bb2a18a10ee" target="_top" xlink:title=" ">
<polygon fill="white" stroke="#666666" points="788.75,-183.12 703,-183.12 703,-162.38 788.75,-162.38 788.75,-183.12"/>
<text xml:space="preserve" text-anchor="middle" x="745.88" y="-169.62" font-family="Helvetica,sans-Serif" font-size="10.00">binary_print_8</text>
</a>
</g>
</g>
<!-- Node1&#45;&gt;Node68 -->
<g id="edge13_Node000001_Node000068" class="edge">
<title>Node1&#45;&gt;Node68</title>
<g id="a_edge13_Node000001_Node000068"><a xlink:title=" ">
<path fill="none" stroke="#63b8ff" d="M816.14,-183.47C807.13,-182.08 797.88,-180.64 789.2,-179.3"/>
<polygon fill="#63b8ff" stroke="#63b8ff" points="815.47,-186.91 825.89,-184.98 816.54,-179.99 815.47,-186.91"/>
</a>
</g>
</g>
<!-- Node3 -->
<g id="Node000003" class="node">
<title>Node3</title>
<g id="a_Node000003"><a xlink:href="kest__fpga__encoding_8c.html#a846915834c09759d6445b5dffc45b723" target="_top" xlink:title=" ">
<polygon fill="white" stroke="#666666" points="479.25,-266.12 356,-266.12 356,-245.38 479.25,-245.38 479.25,-266.12"/>
<text xml:space="preserve" text-anchor="middle" x="417.62" y="-252.62" font-family="Helvetica,sans-Serif" font-size="10.00">kest_fpga_batch_print</text>
</a>
</g>
</g>
<!-- Node2&#45;&gt;Node3 -->
<g id="edge2_Node000002_Node000003" class="edge">
<title>Node2&#45;&gt;Node3</title>
<g id="a_edge2_Node000002_Node000003"><a xlink:title=" ">
<path fill="none" stroke="#63b8ff" d="M688.31,-236.74C630.06,-240.84 539.57,-247.22 479.71,-251.44"/>
<polygon fill="#63b8ff" stroke="#63b8ff" points="688.27,-240.25 698,-236.05 687.78,-233.27 688.27,-240.25"/>
</a>
</g>
</g>
<!-- Node4 -->
<g id="Node000004" class="node">
<title>Node4</title>
<g id="a_Node000004"><a xlink:href="kest__fpga__comms_8c.html#a8f850777494bb4c4d61df3efbf31ca7c" target="_top" xlink:title=" ">
<polygon fill="#fff0f0" stroke="red" points="130.75,-224.12 0,-224.12 0,-203.38 130.75,-203.38 130.75,-224.12"/>
<text xml:space="preserve" text-anchor="middle" x="65.38" y="-210.62" font-family="Helvetica,sans-Serif" font-size="10.00">kest_fpga_comms_task</text>
</a>
</g>
</g>
<!-- Node3&#45;&gt;Node4 -->
<g id="edge3_Node000003_Node000004" class="edge">
<title>Node3&#45;&gt;Node4</title>
<g id="a_edge3_Node000003_Node000004"><a xlink:title=" ">
<path fill="none" stroke="#63b8ff" d="M344.27,-261.66C294,-264.12 225.73,-264.17 166.75,-252.75 138.3,-247.24 107.51,-234.11 87.63,-224.6"/>
<polygon fill="#63b8ff" stroke="#63b8ff" points="344.37,-265.16 354.16,-261.12 343.99,-258.17 344.37,-265.16"/>
</a>
</g>
</g>
<!-- Node25 -->
<g id="Node000025" class="node">
<title>Node25</title>
<g id="a_Node000025"><a xlink:href="kest__fpga__io_8c.html#a0e6e4e058cfd8f3ec79208acb0f71aa6" target="_top" xlink:title=" ">
<polygon fill="white" stroke="#666666" points="309.88,-244.12 170.12,-244.12 170.12,-223.38 309.88,-223.38 309.88,-244.12"/>
<text xml:space="preserve" text-anchor="middle" x="240" y="-230.62" font-family="Helvetica,sans-Serif" font-size="10.00">kest_fpga_set_input_gain</text>
</a>
</g>
</g>
<!-- Node3&#45;&gt;Node25 -->
<g id="edge4_Node000003_Node000025" class="edge">
<title>Node3&#45;&gt;Node25</title>
<g id="a_edge4_Node000003_Node000025"><a xlink:title=" ">
<path fill="none" stroke="#63b8ff" d="M344.52,-246.72C333.19,-245.3 321.51,-243.84 310.25,-242.42"/>
<polygon fill="#63b8ff" stroke="#63b8ff" points="343.83,-250.16 354.19,-247.93 344.7,-243.21 343.83,-250.16"/>
</a>
</g>
</g>
<!-- Node26 -->
<g id="Node000026" class="node">
<title>Node26</title>
<g id="a_Node000026"><a xlink:href="kest__fpga__io_8c.html#a6569f6bf656d72080dd355179ac2c4e9" target="_top" xlink:title=" ">
<polygon fill="white" stroke="#666666" points="313.25,-205.12 166.75,-205.12 166.75,-184.38 313.25,-184.38 313.25,-205.12"/>
<text xml:space="preserve" text-anchor="middle" x="240" y="-191.62" font-family="Helvetica,sans-Serif" font-size="10.00">kest_fpga_set_output_gain</text>
</a>
</g>
</g>
<!-- Node3&#45;&gt;Node26 -->
<g id="edge6_Node000003_Node000026" class="edge">
<title>Node3&#45;&gt;Node26</title>
<g id="a_edge6_Node000003_Node000026"><a xlink:title=" ">
<path fill="none" stroke="#63b8ff" d="M381.43,-240.7C361.6,-232.5 336.26,-222.47 313.25,-214.75 303.5,-211.48 292.89,-208.32 282.88,-205.52"/>
<polygon fill="#63b8ff" stroke="#63b8ff" points="379.86,-243.84 390.44,-244.46 382.56,-237.38 379.86,-243.84"/>
</a>
</g>
</g>
<!-- Node25&#45;&gt;Node4 -->
<g id="edge5_Node000025_Node000004" class="edge">
<title>Node25&#45;&gt;Node4</title>
<g id="a_edge5_Node000025_Node000004"><a xlink:title=" ">
<path fill="none" stroke="#63b8ff" d="M158.62,-224.44C149.4,-223.37 140.1,-222.29 131.13,-221.25"/>
<polygon fill="#63b8ff" stroke="#63b8ff" points="157.94,-227.88 168.28,-225.56 158.75,-220.93 157.94,-227.88"/>
</a>
</g>
</g>
<!-- Node26&#45;&gt;Node4 -->
<g id="edge7_Node000026_Node000004" class="edge">
<title>Node26&#45;&gt;Node4</title>
<g id="a_edge7_Node000026_Node000004"><a xlink:title=" ">
<path fill="none" stroke="#63b8ff" d="M154.97,-204C146.93,-204.88 138.86,-205.77 131.05,-206.63"/>
<polygon fill="#63b8ff" stroke="#63b8ff" points="155.23,-207.49 164.79,-202.92 154.46,-200.53 155.23,-207.49"/>
</a>
</g>
</g>
<!-- Node27&#45;&gt;Node3 -->
<g id="edge9_Node000027_Node000003" class="edge">
<title>Node27&#45;&gt;Node3</title>
<g id="a_edge9_Node000027_Node000003"><a xlink:title=" ">
<path fill="none" stroke="#63b8ff" d="M688.31,-278.07C630.06,-273.25 539.57,-265.76 479.71,-260.81"/>
<polygon fill="#63b8ff" stroke="#63b8ff" points="687.75,-281.53 698,-278.87 688.33,-274.56 687.75,-281.53"/>
</a>
</g>
</g>
<!-- Node29 -->
<g id="Node000029" class="node">
<title>Node29</title>
<g id="a_Node000029"><a xlink:href="kest__fpga__encoding_8c.html#a1e92fe0ff4b72e00fa5d840ec96508c7" target="_top" xlink:title=" ">
<polygon fill="white" stroke="#666666" points="661.38,-33.5 524.62,-33.5 524.62,0 661.38,0 661.38,-33.5"/>
<text xml:space="preserve" text-anchor="start" x="532.62" y="-20" font-family="Helvetica,sans-Serif" font-size="10.00">kest_fpga_batch_append</text>
<text xml:space="preserve" text-anchor="middle" x="593" y="-7.25" font-family="Helvetica,sans-Serif" font-size="10.00">_block_instr</text>
</a>
</g>
</g>
<!-- Node28&#45;&gt;Node29 -->
<g id="edge11_Node000028_Node000029" class="edge">
<title>Node28&#45;&gt;Node29</title>
<g id="a_edge11_Node000028_Node000029"><a xlink:title=" ">
<path fill="none" stroke="#63b8ff" d="M708.48,-60.61C694.6,-54.92 678.61,-48.44 664,-42.75 656.51,-39.83 648.54,-36.8 640.77,-33.89"/>
<polygon fill="#63b8ff" stroke="#63b8ff" points="707.12,-63.84 717.7,-64.41 709.79,-57.37 707.12,-63.84"/>
</a>
</g>
</g>
<!-- Node30 -->
<g id="Node000030" class="node">
<title>Node30</title>
<g id="a_Node000030"><a xlink:href="kest__fpga__encoding_8c.html#a24f2c777ab7078a8261d0fcee4aaf738" target="_top" xlink:title=" ">
<polygon fill="#fff0f0" stroke="red" points="486,-33.5 349.25,-33.5 349.25,0 486,0 486,-33.5"/>
<text xml:space="preserve" text-anchor="start" x="357.25" y="-20" font-family="Helvetica,sans-Serif" font-size="10.00">kest_fpga_batch_append</text>
<text xml:space="preserve" text-anchor="middle" x="417.62" y="-7.25" font-family="Helvetica,sans-Serif" font-size="10.00">_block</text>
</a>
</g>
</g>
<!-- Node29&#45;&gt;Node30 -->
<g id="edge12_Node000029_Node000030" class="edge">
<title>Node29&#45;&gt;Node30</title>
<g id="a_edge12_Node000029_Node000030"><a xlink:title=" ">
<path fill="none" stroke="#63b8ff" d="M513.17,-16.75C504.18,-16.75 495.08,-16.75 486.25,-16.75"/>
<polygon fill="#63b8ff" stroke="#63b8ff" points="512.96,-20.25 522.96,-16.75 512.96,-13.25 512.96,-20.25"/>
</a>
</g>
</g>
<!-- Node69 -->
<g id="Node000069" class="node">
<title>Node69</title>
<g id="a_Node000069"><a xlink:href="kest__fpga__comms_8c.html#a2a4b96757022b33679185649f7739d2c" target="_top" xlink:title=" ">
<polygon fill="white" stroke="#666666" points="651.62,-137.5 534.38,-137.5 534.38,-104 651.62,-104 651.62,-137.5"/>
<text xml:space="preserve" text-anchor="start" x="542.38" y="-124" font-family="Helvetica,sans-Serif" font-size="10.00">get_and_sprint_flags</text>
<text xml:space="preserve" text-anchor="middle" x="593" y="-111.25" font-family="Helvetica,sans-Serif" font-size="10.00">_compact</text>
</a>
</g>
</g>
<!-- Node68&#45;&gt;Node69 -->
<g id="edge14_Node000068_Node000069" class="edge">
<title>Node68&#45;&gt;Node69</title>
<g id="a_edge14_Node000068_Node000069"><a xlink:title=" ">
<path fill="none" stroke="#63b8ff" d="M702.98,-158.31C684.68,-152 663.06,-144.55 643.93,-137.96"/>
<polygon fill="#63b8ff" stroke="#63b8ff" points="701.59,-161.53 712.18,-161.48 703.87,-154.91 701.59,-161.53"/>
</a>
</g>
</g>
<!-- Node70 -->
<g id="Node000070" class="node">
<title>Node70</title>
<g id="a_Node000070"><a xlink:href="kest__fpga__io_8c.html#a38a89d268857557d083c5e4696d54669" target="_top" xlink:title=" ">
<polygon fill="white" stroke="#666666" points="664,-85.5 522,-85.5 522,-52 664,-52 664,-85.5"/>
<text xml:space="preserve" text-anchor="start" x="530" y="-72" font-family="Helvetica,sans-Serif" font-size="10.00">kest_fpga_program_batch</text>
<text xml:space="preserve" text-anchor="middle" x="593" y="-59.25" font-family="Helvetica,sans-Serif" font-size="10.00">_send_careful</text>
</a>
</g>
</g>
<!-- Node68&#45;&gt;Node70 -->
<g id="edge15_Node000068_Node000070" class="edge">
<title>Node68&#45;&gt;Node70</title>
<g id="a_edge15_Node000068_Node000070"><a xlink:title=" ">
<path fill="none" stroke="#63b8ff" d="M728.82,-153.22C713.66,-135.85 689.5,-110.79 664,-94.75 658.84,-91.51 653.22,-88.58 647.47,-85.96"/>
<polygon fill="#63b8ff" stroke="#63b8ff" points="726.14,-155.48 735.29,-160.82 731.47,-150.94 726.14,-155.48"/>
</a>
</g>
</g>
<!-- Node71 -->
<g id="Node000071" class="node">
<title>Node71</title>
<g id="a_Node000071"><a xlink:href="kest__fpga__io_8c.html#a705da035774b1be5ed1365126486649f" target="_top" xlink:title=" ">
<polygon fill="white" stroke="#666666" points="650.88,-189.5 535.12,-189.5 535.12,-156 650.88,-156 650.88,-189.5"/>
<text xml:space="preserve" text-anchor="start" x="543.12" y="-176" font-family="Helvetica,sans-Serif" font-size="10.00">kest_fpga_transfer</text>
<text xml:space="preserve" text-anchor="middle" x="593" y="-163.25" font-family="Helvetica,sans-Serif" font-size="10.00">_batch_send_careful</text>
</a>
</g>
</g>
<!-- Node68&#45;&gt;Node71 -->
<g id="edge16_Node000068_Node000071" class="edge">
<title>Node68&#45;&gt;Node71</title>
<g id="a_edge16_Node000068_Node000071"><a xlink:title=" ">
<path fill="none" stroke="#63b8ff" d="M691.66,-172.75C678.6,-172.75 664.56,-172.75 651.31,-172.75"/>
<polygon fill="#63b8ff" stroke="#63b8ff" points="691.33,-176.25 701.33,-172.75 691.33,-169.25 691.33,-176.25"/>
</a>
</g>
</g>
<!-- Node73 -->
<g id="Node000073" class="node">
<title>Node73</title>
<g id="a_Node000073"><a xlink:href="kest__fpga__comms_8c.html#aa25916f6ad541868a07b50f3bebfec8a" target="_top" xlink:title=" ">
<polygon fill="white" stroke="#666666" points="653.12,-228.12 532.88,-228.12 532.88,-207.38 653.12,-207.38 653.12,-228.12"/>
<text xml:space="preserve" text-anchor="middle" x="593" y="-214.62" font-family="Helvetica,sans-Serif" font-size="10.00">sprint_flags_compact</text>
</a>
</g>
</g>
<!-- Node68&#45;&gt;Node73 -->
<g id="edge21_Node000068_Node000073" class="edge">
<title>Node68&#45;&gt;Node73</title>
<g id="a_edge21_Node000068_Node000073"><a xlink:title=" ">
<path fill="none" stroke="#63b8ff" d="M701.55,-187.08C689.44,-190.98 676.23,-195.13 664,-198.75 654.7,-201.5 644.67,-204.32 635.18,-206.91"/>
<polygon fill="#63b8ff" stroke="#63b8ff" points="702.45,-190.47 710.88,-184.06 700.29,-183.81 702.45,-190.47"/>
</a>
</g>
</g>
<!-- Node72 -->
<g id="Node000072" class="node">
<title>Node72</title>
<g id="a_Node000072"><a xlink:href="kest__fpga__io_8c.html#ae911bef59743e59043a283dac1be0761" target="_top" xlink:title=" ">
<polygon fill="white" stroke="#666666" points="471,-200.5 364.25,-200.5 364.25,-167 471,-167 471,-200.5"/>
<text xml:space="preserve" text-anchor="start" x="372.25" y="-187" font-family="Helvetica,sans-Serif" font-size="10.00">kest_fpga_transfer</text>
<text xml:space="preserve" text-anchor="middle" x="417.62" y="-174.25" font-family="Helvetica,sans-Serif" font-size="10.00">_batch_send</text>
</a>
</g>
</g>
<!-- Node71&#45;&gt;Node72 -->
<g id="edge17_Node000071_Node000072" class="edge">
<title>Node71&#45;&gt;Node72</title>
<g id="a_edge17_Node000071_Node000072"><a xlink:title=" ">
<path fill="none" stroke="#63b8ff" d="M523.54,-177.09C506.2,-178.19 487.85,-179.36 471.42,-180.4"/>
<polygon fill="#63b8ff" stroke="#63b8ff" points="523.48,-180.6 533.24,-176.48 523.04,-173.62 523.48,-180.6"/>
</a>
</g>
</g>
<!-- Node72&#45;&gt;Node4 -->
<g id="edge18_Node000072_Node000004" class="edge">
<title>Node72&#45;&gt;Node4</title>
<g id="a_edge18_Node000072_Node000004"><a xlink:title=" ">
<path fill="none" stroke="#63b8ff" d="M352.84,-174.32C302.01,-168.58 229.27,-164.31 166.75,-175.75 138.52,-180.91 107.93,-193.62 88.04,-202.92"/>
<polygon fill="#63b8ff" stroke="#63b8ff" points="352.13,-177.76 362.48,-175.47 352.96,-170.81 352.13,-177.76"/>
</a>
</g>
</g>
<!-- Node72&#45;&gt;Node25 -->
<g id="edge19_Node000072_Node000025" class="edge">
<title>Node72&#45;&gt;Node25</title>
<g id="a_edge19_Node000072_Node000025"><a xlink:title=" ">
<path fill="none" stroke="#63b8ff" d="M352.96,-202.36C339.84,-206.16 326.1,-210.11 313.25,-213.75 302.61,-216.77 291.07,-219.99 280.4,-222.94"/>
<polygon fill="#63b8ff" stroke="#63b8ff" points="353.72,-205.78 362.35,-199.64 351.77,-199.06 353.72,-205.78"/>
</a>
</g>
</g>
<!-- Node72&#45;&gt;Node26 -->
<g id="edge20_Node000072_Node000026" class="edge">
<title>Node72&#45;&gt;Node26</title>
<g id="a_edge20_Node000072_Node000026"><a xlink:title=" ">
<path fill="none" stroke="#63b8ff" d="M352.51,-187.77C339.82,-188.56 326.41,-189.4 313.47,-190.21"/>
<polygon fill="#63b8ff" stroke="#63b8ff" points="352.66,-191.26 362.42,-187.14 352.22,-184.28 352.66,-191.26"/>
</a>
</g>
</g>
</g>
</svg>
