<?xml version="1.0" encoding="UTF-8" standalone="no"?>
<!DOCTYPE svg PUBLIC "-//W3C//DTD SVG 1.1//EN"
 "http://www.w3.org/Graphics/SVG/1.1/DTD/svg11.dtd">
<!-- Generated by graphviz version 13.1.2 (20250808.2320)
 -->
<!-- Title: kest_expression_get_references_rec Pages: 1 -->
<svg width="637pt" height="134pt"
 viewBox="0.00 0.00 637.00 134.00" xmlns="http://www.w3.org/2000/svg" xmlns:xlink="http://www.w3.org/1999/xlink">
<g id="graph0" class="graph" transform="scale(1 1) rotate(0) translate(4 129.5)">
<title>kest_expression_get_references_rec</title>
<!-- Node1 -->
<g id="Node000001" class="node">
<title>Node1</title>
<g id="a_Node000001"><a xlink:title=" ">
<polygon fill="#999999" stroke="#666666" points="115.75,-107.5 0,-107.5 0,-74 115.75,-74 115.75,-107.5"/>
<text xml:space="preserve" text-anchor="start" x="8" y="-94" font-family="Helvetica,sans-Serif" font-size="10.00">kest_expression_get</text>
<text xml:space="preserve" text-anchor="middle" x="57.88" y="-81.25" font-family="Helvetica,sans-Serif" font-size="10.00">_references_rec</text>
</a>
</g>
</g>
<!-- Node1&#45;&gt;Node1 -->
<g id="edge2_Node000001_Node000001" class="edge">
<title>Node1&#45;&gt;Node1</title>
<g id="a_edge2_Node000001_Node000001"><a xlink:title=" ">
<path fill="none" stroke="#63b8ff" d="M29.99,-107.91C25.25,-117.12 34.55,-125.5 57.88,-125.5 71,-125.5 79.68,-122.85 83.92,-118.89"/>
<polygon fill="#63b8ff" stroke="#63b8ff" points="87.31,-119.85 85.51,-109.41 80.41,-118.69 87.31,-119.85"/>
</a>
</g>
</g>
<!-- Node2 -->
<g id="Node000002" class="node">
<title>Node2</title>
<g id="a_Node000002"><a xlink:href="kest__expression_8c.html#a835e180e79c6b6d2e4377a528949d7a0" target="_top" xlink:title=" ">
<polygon fill="white" stroke="#666666" points="274.25,-124.12 151.75,-124.12 151.75,-103.38 274.25,-103.38 274.25,-124.12"/>
<text xml:space="preserve" text-anchor="middle" x="213" y="-110.62" font-family="Helvetica,sans-Serif" font-size="10.00">kest_expression_arity</text>
</a>
</g>
</g>
<!-- Node1&#45;&gt;Node2 -->
<g id="edge1_Node000001_Node000002" class="edge">
<title>Node1&#45;&gt;Node2</title>
<g id="a_edge1_Node000001_Node000002"><a xlink:title=" ">
<path fill="none" stroke="#63b8ff" d="M115.89,-99.31C123.75,-100.49 131.91,-101.72 139.99,-102.93"/>
<polygon fill="#63b8ff" stroke="#63b8ff" points="139.44,-106.39 149.85,-104.41 140.48,-99.47 139.44,-106.39"/>
</a>
</g>
</g>
<!-- Node3 -->
<g id="Node000003" class="node">
<title>Node3</title>
<g id="a_Node000003"><a xlink:href="kest__expression_8c.html#aadf2a6a074cb1ad7b45893704cbd71c3" target="_top" xlink:title=" ">
<polygon fill="white" stroke="#666666" points="267.88,-85.5 158.12,-85.5 158.12,-52 267.88,-52 267.88,-85.5"/>
<text xml:space="preserve" text-anchor="start" x="166.12" y="-72" font-family="Helvetica,sans-Serif" font-size="10.00">kest_expression_to</text>
<text xml:space="preserve" text-anchor="middle" x="213" y="-59.25" font-family="Helvetica,sans-Serif" font-size="10.00">_string</text>
</a>
</g>
</g>
<!-- Node1&#45;&gt;Node3 -->
<g id="edge3_Node000001_Node000003" class="edge">
<title>Node1&#45;&gt;Node3</title>
<g id="a_edge3_Node000001_Node000003"><a xlink:title=" ">
<path fill="none" stroke="#63b8ff" d="M115.89,-82.56C125.84,-81.13 136.26,-79.63 146.41,-78.17"/>
<polygon fill="#63b8ff" stroke="#63b8ff" points="146.83,-81.65 156.23,-76.76 145.83,-74.72 146.83,-81.65"/>
</a>
</g>
</g>
<!-- Node4 -->
<g id="Node000004" class="node">
<title>Node4</title>
<g id="a_Node000004"><a xlink:href="kest__expression_8c.html#a767b50b7ddfa94dc61810dfdcc8feaf0" target="_top" xlink:title=" ">
<polygon fill="white" stroke="#666666" points="453,-79.12 310.25,-79.12 310.25,-58.38 453,-58.38 453,-79.12"/>
<text xml:space="preserve" text-anchor="middle" x="381.62" y="-65.62" font-family="Helvetica,sans-Serif" font-size="10.00">kest_expression_print_rec</text>
</a>
</g>
</g>
<!-- Node3&#45;&gt;Node4 -->
<g id="edge4_Node000003_Node000004" class="edge">
<title>Node3&#45;&gt;Node4</title>
<g id="a_edge4_Node000003_Node000004"><a xlink:title=" ">
<path fill="none" stroke="#63b8ff" d="M268.1,-68.75C277.87,-68.75 288.25,-68.75 298.61,-68.75"/>
<polygon fill="#63b8ff" stroke="#63b8ff" points="298.29,-72.25 308.29,-68.75 298.29,-65.25 298.29,-72.25"/>
</a>
</g>
</g>
<!-- Node4&#45;&gt;Node4 -->
<g id="edge8_Node000004_Node000004" class="edge">
<title>Node4&#45;&gt;Node4</title>
<g id="a_edge8_Node000004_Node000004"><a xlink:title=" ">
<path fill="none" stroke="#63b8ff" d="M354.45,-79.52C343.59,-88.18 352.64,-97.12 381.62,-97.12 397.47,-97.12 407.37,-94.45 411.3,-90.61"/>
<polygon fill="#63b8ff" stroke="#63b8ff" points="414.74,-89.98 409.13,-81 407.91,-91.52 414.74,-89.98"/>
</a>
</g>
</g>
<!-- Node5 -->
<g id="Node000005" class="node">
<title>Node5</title>
<g id="a_Node000005"><a xlink:href="kest__expression_8c.html#a2f21e4932bce8c87ec0bfc508588b761" target="_top" xlink:title=" ">
<polygon fill="white" stroke="#666666" points="620.5,-124.12 497.25,-124.12 497.25,-103.38 620.5,-103.38 620.5,-124.12"/>
<text xml:space="preserve" text-anchor="middle" x="558.88" y="-110.62" font-family="Helvetica,sans-Serif" font-size="10.00">kest_expression_form</text>
</a>
</g>
</g>
<!-- Node4&#45;&gt;Node5 -->
<g id="edge5_Node000004_Node000005" class="edge">
<title>Node4&#45;&gt;Node5</title>
<g id="a_edge5_Node000004_Node000005"><a xlink:title=" ">
<path fill="none" stroke="#63b8ff" d="M424.6,-79.53C448.59,-85.69 478.92,-93.48 504.58,-100.07"/>
<polygon fill="#63b8ff" stroke="#63b8ff" points="503.61,-103.43 514.17,-102.53 505.35,-96.65 503.61,-103.43"/>
</a>
</g>
</g>
<!-- Node6 -->
<g id="Node000006" class="node">
<title>Node6</title>
<g id="a_Node000006"><a xlink:href="kest__expression_8c.html#a81b490a2837a170e18e8cdae730d0d9b" target="_top" xlink:title=" ">
<polygon fill="white" stroke="#666666" points="628.75,-85.5 489,-85.5 489,-52 628.75,-52 628.75,-85.5"/>
<text xml:space="preserve" text-anchor="start" x="497" y="-72" font-family="Helvetica,sans-Serif" font-size="10.00">kest_expression_function</text>
<text xml:space="preserve" text-anchor="middle" x="558.88" y="-59.25" font-family="Helvetica,sans-Serif" font-size="10.00">_string</text>
</a>
</g>
</g>
<!-- Node4&#45;&gt;Node6 -->
<g id="edge6_Node000004_Node000006" class="edge">
<title>Node4&#45;&gt;Node6</title>
<g id="a_edge6_Node000004_Node000006"><a xlink:title=" ">
<path fill="none" stroke="#63b8ff" d="M453.4,-68.75C461.19,-68.75 469.16,-68.75 477.06,-68.75"/>
<polygon fill="#63b8ff" stroke="#63b8ff" points="477.03,-72.25 487.03,-68.75 477.03,-65.25 477.03,-72.25"/>
</a>
</g>
</g>
<!-- Node7 -->
<g id="Node000007" class="node">
<title>Node7</title>
<g id="a_Node000007"><a xlink:href="kest__expression_8c.html#a1a3a0bc9ed6726fb24e6a40803741b43" target="_top" xlink:title=" ">
<polygon fill="white" stroke="#666666" points="619.75,-33.5 498,-33.5 498,0 619.75,0 619.75,-33.5"/>
<text xml:space="preserve" text-anchor="start" x="506" y="-20" font-family="Helvetica,sans-Serif" font-size="10.00">kest_expression_infix</text>
<text xml:space="preserve" text-anchor="middle" x="558.88" y="-7.25" font-family="Helvetica,sans-Serif" font-size="10.00">_operator_string</text>
</a>
</g>
</g>
<!-- Node4&#45;&gt;Node7 -->
<g id="edge7_Node000004_Node000007" class="edge">
<title>Node4&#45;&gt;Node7</title>
<g id="a_edge7_Node000004_Node000007"><a xlink:title=" ">
<path fill="none" stroke="#63b8ff" d="M418.94,-57.98C439.19,-51.96 465.1,-44.28 489.04,-37.17"/>
<polygon fill="#63b8ff" stroke="#63b8ff" points="489.84,-40.59 498.43,-34.39 487.85,-33.88 489.84,-40.59"/>
</a>
</g>
</g>
</g>
</svg>
