<?xml version="1.0" encoding="UTF-8" standalone="no"?>
<!DOCTYPE svg PUBLIC "-//W3C//DTD SVG 1.1//EN"
 "http://www.w3.org/Graphics/SVG/1.1/DTD/svg11.dtd">
<!-- Generated by graphviz version 13.1.2 (20250808.2320)
 -->
<!-- Title: kest_parser_compute_formats Pages: 1 -->
<svg width="676pt" height="440pt"
 viewBox="0.00 0.00 676.00 440.00" xmlns="http://www.w3.org/2000/svg" xmlns:xlink="http://www.w3.org/1999/xlink">
<g id="graph0" class="graph" transform="scale(1 1) rotate(0) translate(4 436.12)">
<title>kest_parser_compute_formats</title>
<!-- Node1 -->
<g id="Node000001" class="node">
<title>Node1</title>
<g id="a_Node000001"><a xlink:title=" ">
<polygon fill="#999999" stroke="#666666" points="120.25,-218.5 0,-218.5 0,-185 120.25,-185 120.25,-218.5"/>
<text xml:space="preserve" text-anchor="start" x="8" y="-205" font-family="Helvetica,sans-Serif" font-size="10.00">kest_parser_compute</text>
<text xml:space="preserve" text-anchor="middle" x="60.12" y="-192.25" font-family="Helvetica,sans-Serif" font-size="10.00">_formats</text>
</a>
</g>
</g>
<!-- Node2 -->
<g id="Node000002" class="node">
<title>Node2</title>
<g id="a_Node000002"><a xlink:href="kest__reg__format_8c.html#a29aa51e007e672b4a6d7b9a4b287754a" target="_top" xlink:title=" ">
<polygon fill="white" stroke="#666666" points="283.25,-192.5 156.25,-192.5 156.25,-159 283.25,-159 283.25,-192.5"/>
<text xml:space="preserve" text-anchor="start" x="164.25" y="-179" font-family="Helvetica,sans-Serif" font-size="10.00">kest_compute_register</text>
<text xml:space="preserve" text-anchor="middle" x="219.75" y="-166.25" font-family="Helvetica,sans-Serif" font-size="10.00">_formats</text>
</a>
</g>
</g>
<!-- Node1&#45;&gt;Node2 -->
<g id="edge1_Node000001_Node000002" class="edge">
<title>Node1&#45;&gt;Node2</title>
<g id="a_edge1_Node000001_Node000002"><a xlink:title=" ">
<path fill="none" stroke="#63b8ff" d="M120.72,-191.92C128.54,-190.63 136.63,-189.3 144.65,-187.97"/>
<polygon fill="#63b8ff" stroke="#63b8ff" points="145.13,-191.44 154.43,-186.36 143.99,-184.53 145.13,-191.44"/>
</a>
</g>
</g>
<!-- Node38 -->
<g id="Node000038" class="node">
<title>Node38</title>
<g id="a_Node000038"><a xlink:href="kest__fixed__point_8c.html#a152783a4a8b5bc4b35e20d1c53acdae4" target="_top" xlink:title=" ">
<polygon fill="white" stroke="#666666" points="276.12,-259.5 163.38,-259.5 163.38,-226 276.12,-226 276.12,-259.5"/>
<text xml:space="preserve" text-anchor="start" x="171.38" y="-246" font-family="Helvetica,sans-Serif" font-size="10.00">kest_filter_compute</text>
<text xml:space="preserve" text-anchor="middle" x="219.75" y="-233.25" font-family="Helvetica,sans-Serif" font-size="10.00">_format</text>
</a>
</g>
</g>
<!-- Node1&#45;&gt;Node38 -->
<g id="edge19_Node000001_Node000038" class="edge">
<title>Node1&#45;&gt;Node38</title>
<g id="a_edge19_Node000001_Node000038"><a xlink:title=" ">
<path fill="none" stroke="#63b8ff" d="M120.72,-217.25C130.9,-219.9 141.53,-222.66 151.89,-225.36"/>
<polygon fill="#63b8ff" stroke="#63b8ff" points="150.95,-228.73 161.51,-227.86 152.71,-221.96 150.95,-228.73"/>
</a>
</g>
</g>
<!-- Node3 -->
<g id="Node000003" class="node">
<title>Node3</title>
<g id="a_Node000003"><a xlink:href="kest__fixed__point_8c.html#aadbad80611ec55e1e488a3740c578c8b" target="_top" xlink:title=" ">
<polygon fill="white" stroke="#666666" points="462,-275.5 319.25,-275.5 319.25,-242 462,-242 462,-275.5"/>
<text xml:space="preserve" text-anchor="start" x="327.25" y="-262" font-family="Helvetica,sans-Serif" font-size="10.00">kest_expression_compute</text>
<text xml:space="preserve" text-anchor="middle" x="390.62" y="-249.25" font-family="Helvetica,sans-Serif" font-size="10.00">_format</text>
</a>
</g>
</g>
<!-- Node2&#45;&gt;Node3 -->
<g id="edge2_Node000002_Node000003" class="edge">
<title>Node2&#45;&gt;Node3</title>
<g id="a_edge2_Node000002_Node000003"><a xlink:title=" ">
<path fill="none" stroke="#63b8ff" d="M251.96,-192.95C271.19,-203.37 296.44,-216.72 319.25,-227.75 325.56,-230.8 332.24,-233.9 338.88,-236.91"/>
<polygon fill="#63b8ff" stroke="#63b8ff" points="337.27,-240.02 347.83,-240.91 340.13,-233.63 337.27,-240.02"/>
</a>
</g>
</g>
<!-- Node28 -->
<g id="Node000028" class="node">
<title>Node28</title>
<g id="a_Node000028"><a xlink:href="kest__alloc_8c.html#a294af5728a94aa316fcf65304d388d48" target="_top" xlink:title=" ">
<polygon fill="white" stroke="#666666" points="613.38,-432.12 552.38,-432.12 552.38,-411.38 613.38,-411.38 613.38,-432.12"/>
<text xml:space="preserve" text-anchor="middle" x="582.88" y="-418.62" font-family="Helvetica,sans-Serif" font-size="10.00">kest_free</text>
</a>
</g>
</g>
<!-- Node2&#45;&gt;Node28 -->
<g id="edge12_Node000002_Node000028" class="edge">
<title>Node2&#45;&gt;Node28</title>
<g id="a_edge12_Node000002_Node000028"><a xlink:title=" ">
<path fill="none" stroke="#63b8ff" d="M253.65,-192.98C263.98,-199.47 274.86,-207.54 283.25,-216.75 306.27,-242.04 296.22,-259.48 319.25,-284.75 383.21,-354.93 410.8,-364.18 498,-401.75 511.43,-407.53 526.81,-411.82 540.71,-414.9"/>
<polygon fill="#63b8ff" stroke="#63b8ff" points="539.98,-418.32 550.48,-416.91 541.39,-411.47 539.98,-418.32"/>
</a>
</g>
</g>
<!-- Node30 -->
<g id="Node000030" class="node">
<title>Node30</title>
<g id="a_Node000030"><a xlink:href="kest__string_8c.html#a5e8184b1f070fc74a7d1d2f08c4d9658" target="_top" xlink:title=" ">
<polygon fill="#fff0f0" stroke="red" points="640,-225.12 525.75,-225.12 525.75,-204.38 640,-204.38 640,-225.12"/>
<text xml:space="preserve" text-anchor="middle" x="582.88" y="-211.62" font-family="Helvetica,sans-Serif" font-size="10.00">kest_string_appendf</text>
</a>
</g>
</g>
<!-- Node2&#45;&gt;Node30 -->
<g id="edge13_Node000002_Node000030" class="edge">
<title>Node2&#45;&gt;Node30</title>
<g id="a_edge13_Node000002_Node000030"><a xlink:title=" ">
<path fill="none" stroke="#63b8ff" d="M283.75,-185.15C295.53,-186.78 307.76,-188.39 319.25,-189.75 385.35,-197.59 461.04,-204.59 514.13,-209.17"/>
<polygon fill="#63b8ff" stroke="#63b8ff" points="513.67,-212.64 523.93,-210.01 514.27,-205.67 513.67,-212.64"/>
</a>
</g>
</g>
<!-- Node32 -->
<g id="Node000032" class="node">
<title>Node32</title>
<g id="a_Node000032"><a xlink:href="kest__string_8c.html#ad346e7c1a0b506f7eca9423a05b47f11" target="_top" xlink:title=" ">
<polygon fill="white" stroke="#666666" points="638.5,-186.12 527.25,-186.12 527.25,-165.38 638.5,-165.38 638.5,-186.12"/>
<text xml:space="preserve" text-anchor="middle" x="582.88" y="-172.62" font-family="Helvetica,sans-Serif" font-size="10.00">kest_string_destroy</text>
</a>
</g>
</g>
<!-- Node2&#45;&gt;Node32 -->
<g id="edge14_Node000002_Node000032" class="edge">
<title>Node2&#45;&gt;Node32</title>
<g id="a_edge14_Node000002_Node000032"><a xlink:title=" ">
<path fill="none" stroke="#63b8ff" d="M283.65,-175.75C348.6,-175.75 449.53,-175.75 515.67,-175.75"/>
<polygon fill="#63b8ff" stroke="#63b8ff" points="515.27,-179.25 525.27,-175.75 515.27,-172.25 515.27,-179.25"/>
</a>
</g>
</g>
<!-- Node33 -->
<g id="Node000033" class="node">
<title>Node33</title>
<g id="a_Node000033"><a xlink:href="kest__string_8c.html#ab74edc9a2be32d899a92ef58edb16286" target="_top" xlink:title=" ">
<polygon fill="white" stroke="#666666" points="628,-147.12 537.75,-147.12 537.75,-126.38 628,-126.38 628,-147.12"/>
<text xml:space="preserve" text-anchor="middle" x="582.88" y="-133.62" font-family="Helvetica,sans-Serif" font-size="10.00">kest_string_init</text>
</a>
</g>
</g>
<!-- Node2&#45;&gt;Node33 -->
<g id="edge16_Node000002_Node000033" class="edge">
<title>Node2&#45;&gt;Node33</title>
<g id="a_edge16_Node000002_Node000033"><a xlink:title=" ">
<path fill="none" stroke="#63b8ff" d="M283.65,-168.96C352.09,-161.57 460.47,-149.86 526.01,-142.78"/>
<polygon fill="#63b8ff" stroke="#63b8ff" points="526.26,-146.28 535.83,-141.72 525.51,-139.32 526.26,-146.28"/>
</a>
</g>
</g>
<!-- Node34 -->
<g id="Node000034" class="node">
<title>Node34</title>
<g id="a_Node000034"><a xlink:href="kest__string_8c.html#a476a3ace857a6df4b94057b078a5bcb3" target="_top" xlink:title=" ">
<polygon fill="#fff0f0" stroke="red" points="643,-108.12 522.75,-108.12 522.75,-87.38 643,-87.38 643,-108.12"/>
<text xml:space="preserve" text-anchor="middle" x="582.88" y="-94.62" font-family="Helvetica,sans-Serif" font-size="10.00">kest_string_to_native</text>
</a>
</g>
</g>
<!-- Node2&#45;&gt;Node34 -->
<g id="edge17_Node000002_Node000034" class="edge">
<title>Node2&#45;&gt;Node34</title>
<g id="a_edge17_Node000002_Node000034"><a xlink:title=" ">
<path fill="none" stroke="#63b8ff" d="M275.45,-158.57C289.64,-154.41 304.95,-150.18 319.25,-146.75 383.64,-131.31 457.9,-117.85 510.99,-108.96"/>
<polygon fill="#63b8ff" stroke="#63b8ff" points="511.53,-112.42 520.83,-107.33 510.39,-105.52 511.53,-112.42"/>
</a>
</g>
</g>
<!-- Node36 -->
<g id="Node000036" class="node">
<title>Node36</title>
<g id="a_Node000036"><a xlink:href="kest__string_8c.html#afa021a4021225530db818f590a416606" target="_top" xlink:title=" ">
<polygon fill="white" stroke="#666666" points="440.25,-72.12 341,-72.12 341,-51.38 440.25,-51.38 440.25,-72.12"/>
<text xml:space="preserve" text-anchor="middle" x="390.62" y="-58.62" font-family="Helvetica,sans-Serif" font-size="10.00">kest_string_drain</text>
</a>
</g>
</g>
<!-- Node2&#45;&gt;Node36 -->
<g id="edge15_Node000002_Node000036" class="edge">
<title>Node2&#45;&gt;Node36</title>
<g id="a_edge15_Node000002_Node000036"><a xlink:title=" ">
<path fill="none" stroke="#63b8ff" d="M235.47,-158.54C253.43,-138.53 285.56,-105.69 319.25,-85.75 325.15,-82.25 331.64,-79.18 338.21,-76.49"/>
<polygon fill="#63b8ff" stroke="#63b8ff" points="339.01,-79.93 347.13,-73.13 336.53,-73.38 339.01,-79.93"/>
</a>
</g>
</g>
<!-- Node37 -->
<g id="Node000037" class="node">
<title>Node37</title>
<g id="a_Node000037"><a xlink:href="kest__reg__format_8c.html#a3a3510c5b7672d6004e930a61e5e5e62" target="_top" xlink:title=" ">
<polygon fill="white" stroke="#666666" points="454.5,-33.5 326.75,-33.5 326.75,0 454.5,0 454.5,-33.5"/>
<text xml:space="preserve" text-anchor="start" x="334.75" y="-20" font-family="Helvetica,sans-Serif" font-size="10.00">shift_policy_determine</text>
<text xml:space="preserve" text-anchor="middle" x="390.62" y="-7.25" font-family="Helvetica,sans-Serif" font-size="10.00">_shift</text>
</a>
</g>
</g>
<!-- Node2&#45;&gt;Node37 -->
<g id="edge18_Node000002_Node000037" class="edge">
<title>Node2&#45;&gt;Node37</title>
<g id="a_edge18_Node000002_Node000037"><a xlink:title=" ">
<path fill="none" stroke="#63b8ff" d="M229.23,-158.55C243.87,-130.5 276.5,-74.82 319.25,-42.75 320.75,-41.62 322.31,-40.54 323.91,-39.5"/>
<polygon fill="#63b8ff" stroke="#63b8ff" points="325.25,-42.77 332.17,-34.75 321.76,-36.7 325.25,-42.77"/>
</a>
</g>
</g>
<!-- Node4 -->
<g id="Node000004" class="node">
<title>Node4</title>
<g id="a_Node000004"><a xlink:href="kest__expression_8c.html#ac0d36327234ac552a23d07d118392e5a" target="_top" xlink:title=" ">
<polygon fill="#fff0f0" stroke="red" points="667.75,-393.12 498,-393.12 498,-372.38 667.75,-372.38 667.75,-393.12"/>
<text xml:space="preserve" text-anchor="middle" x="582.88" y="-379.62" font-family="Helvetica,sans-Serif" font-size="10.00">kest_expression_compute_max</text>
</a>
</g>
</g>
<!-- Node3&#45;&gt;Node4 -->
<g id="edge3_Node000003_Node000004" class="edge">
<title>Node3&#45;&gt;Node4</title>
<g id="a_edge3_Node000003_Node000004"><a xlink:title=" ">
<path fill="none" stroke="#63b8ff" d="M404.02,-275.65C422.04,-298.94 457.75,-340.54 498,-362.75 501.45,-364.65 505.07,-366.37 508.8,-367.93"/>
<polygon fill="#63b8ff" stroke="#63b8ff" points="507.51,-371.19 518.1,-371.38 509.94,-364.62 507.51,-371.19"/>
</a>
</g>
</g>
<!-- Node27 -->
<g id="Node000027" class="node">
<title>Node27</title>
<g id="a_Node000027"><a xlink:href="kest__expression_8c.html#a76a52d6b21899491c72f97961df20864" target="_top" xlink:title=" ">
<polygon fill="#fff0f0" stroke="red" points="666.25,-354.12 499.5,-354.12 499.5,-333.38 666.25,-333.38 666.25,-354.12"/>
<text xml:space="preserve" text-anchor="middle" x="582.88" y="-340.62" font-family="Helvetica,sans-Serif" font-size="10.00">kest_expression_compute_min</text>
</a>
</g>
</g>
<!-- Node3&#45;&gt;Node27 -->
<g id="edge4_Node000003_Node000027" class="edge">
<title>Node3&#45;&gt;Node27</title>
<g id="a_edge4_Node000003_Node000027"><a xlink:title=" ">
<path fill="none" stroke="#63b8ff" d="M414.08,-275.79C434.83,-290.75 467.03,-312.05 498,-324.75 502.35,-326.53 506.9,-328.17 511.54,-329.66"/>
<polygon fill="#63b8ff" stroke="#63b8ff" points="510.42,-332.98 521,-332.46 512.4,-326.26 510.42,-332.98"/>
</a>
</g>
</g>
<!-- Node11 -->
<g id="Node000011" class="node">
<title>Node11</title>
<g id="a_Node000011"><a xlink:href="kest__expression_8c.html#aadf2a6a074cb1ad7b45893704cbd71c3" target="_top" xlink:title=" ">
<polygon fill="#fff0f0" stroke="red" points="637.75,-315.5 528,-315.5 528,-282 637.75,-282 637.75,-315.5"/>
<text xml:space="preserve" text-anchor="start" x="536" y="-302" font-family="Helvetica,sans-Serif" font-size="10.00">kest_expression_to</text>
<text xml:space="preserve" text-anchor="middle" x="582.88" y="-289.25" font-family="Helvetica,sans-Serif" font-size="10.00">_string</text>
</a>
</g>
</g>
<!-- Node3&#45;&gt;Node11 -->
<g id="edge5_Node000003_Node000011" class="edge">
<title>Node3&#45;&gt;Node11</title>
<g id="a_edge5_Node000003_Node000011"><a xlink:title=" ">
<path fill="none" stroke="#63b8ff" d="M462.47,-273.64C480.15,-277.36 499.02,-281.33 516.43,-284.99"/>
<polygon fill="#63b8ff" stroke="#63b8ff" points="515.64,-288.4 526.15,-287.03 517.08,-281.55 515.64,-288.4"/>
</a>
</g>
</g>
<!-- Node3&#45;&gt;Node28 -->
<g id="edge6_Node000003_Node000028" class="edge">
<title>Node3&#45;&gt;Node28</title>
<g id="a_edge6_Node000003_Node000028"><a xlink:title=" ">
<path fill="none" stroke="#63b8ff" d="M405.46,-275.74C419.91,-293.64 443.07,-322.79 462,-348.75 478.78,-371.76 474.56,-385.58 498,-401.75 510.54,-410.41 526.37,-415.34 540.89,-418.14"/>
<polygon fill="#63b8ff" stroke="#63b8ff" points="540.24,-421.58 550.67,-419.72 541.36,-414.67 540.24,-421.58"/>
</a>
</g>
</g>
<!-- Node29 -->
<g id="Node000029" class="node">
<title>Node29</title>
<g id="a_Node000029"><a xlink:href="kest__expression_8c.html#ae162d4eb0d35fa2b80788054a533387e" target="_top" xlink:title=" ">
<polygon fill="white" stroke="#666666" points="631,-264.12 534.75,-264.12 534.75,-243.38 631,-243.38 631,-264.12"/>
<text xml:space="preserve" text-anchor="middle" x="582.88" y="-250.62" font-family="Helvetica,sans-Serif" font-size="10.00">kest_interval_ab</text>
</a>
</g>
</g>
<!-- Node3&#45;&gt;Node29 -->
<g id="edge7_Node000003_Node000029" class="edge">
<title>Node3&#45;&gt;Node29</title>
<g id="a_edge7_Node000003_Node000029"><a xlink:title=" ">
<path fill="none" stroke="#63b8ff" d="M462.47,-256.89C482.42,-256.36 503.9,-255.8 523.07,-255.3"/>
<polygon fill="#63b8ff" stroke="#63b8ff" points="522.94,-258.8 532.85,-255.04 522.76,-251.8 522.94,-258.8"/>
</a>
</g>
</g>
<!-- Node3&#45;&gt;Node30 -->
<g id="edge8_Node000003_Node000030" class="edge">
<title>Node3&#45;&gt;Node30</title>
<g id="a_edge8_Node000003_Node000030"><a xlink:title=" ">
<path fill="none" stroke="#63b8ff" d="M462.47,-242.37C482.69,-237.69 504.48,-232.65 523.85,-228.17"/>
<polygon fill="#63b8ff" stroke="#63b8ff" points="524.51,-231.61 533.46,-225.95 522.93,-224.79 524.51,-231.61"/>
</a>
</g>
</g>
<!-- Node3&#45;&gt;Node32 -->
<g id="edge9_Node000003_Node000032" class="edge">
<title>Node3&#45;&gt;Node32</title>
<g id="a_edge9_Node000003_Node000032"><a xlink:title=" ">
<path fill="none" stroke="#63b8ff" d="M415.88,-241.5C436.76,-227.38 468.15,-207.82 498,-195.75 503.72,-193.43 509.78,-191.35 515.92,-189.47"/>
<polygon fill="#63b8ff" stroke="#63b8ff" points="516.87,-192.84 525.53,-186.74 514.95,-186.11 516.87,-192.84"/>
</a>
</g>
</g>
<!-- Node3&#45;&gt;Node33 -->
<g id="edge10_Node000003_Node000033" class="edge">
<title>Node3&#45;&gt;Node33</title>
<g id="a_edge10_Node000003_Node000033"><a xlink:title=" ">
<path fill="none" stroke="#63b8ff" d="M404.4,-241.8C422.61,-218.89 458.24,-178.43 498,-156.75 506.79,-151.96 516.7,-148.31 526.56,-145.52"/>
<polygon fill="#63b8ff" stroke="#63b8ff" points="527.29,-148.95 536.13,-143.11 525.58,-142.16 527.29,-148.95"/>
</a>
</g>
</g>
<!-- Node3&#45;&gt;Node34 -->
<g id="edge11_Node000003_Node000034" class="edge">
<title>Node3&#45;&gt;Node34</title>
<g id="a_edge11_Node000003_Node000034"><a xlink:title=" ">
<path fill="none" stroke="#63b8ff" d="M399.47,-241.83C414.26,-211.86 449.24,-149.64 498,-117.75 502.27,-114.95 506.9,-112.55 511.7,-110.48"/>
<polygon fill="#63b8ff" stroke="#63b8ff" points="512.88,-113.77 521.03,-106.99 510.43,-107.22 512.88,-113.77"/>
</a>
</g>
</g>
<!-- Node38&#45;&gt;Node3 -->
<g id="edge20_Node000038_Node000003" class="edge">
<title>Node38&#45;&gt;Node3</title>
<g id="a_edge20_Node000038_Node000003"><a xlink:title=" ">
<path fill="none" stroke="#63b8ff" d="M276.51,-248.03C286.46,-248.98 297.01,-249.98 307.52,-250.97"/>
<polygon fill="#63b8ff" stroke="#63b8ff" points="307.07,-254.44 317.36,-251.9 307.73,-247.48 307.07,-254.44"/>
</a>
</g>
</g>
</g>
</svg>
