<?xml version="1.0" encoding="UTF-8" standalone="no"?>
<!DOCTYPE svg PUBLIC "-//W3C//DTD SVG 1.1//EN"
 "http://www.w3.org/Graphics/SVG/1.1/DTD/svg11.dtd">
<!-- Generated by graphviz version 13.1.2 (20250808.2320)
 -->
<!-- Title: kest_dsp_resource_clone Pages: 1 -->
<svg width="686pt" height="80pt"
 viewBox="0.00 0.00 686.00 80.00" xmlns="http://www.w3.org/2000/svg" xmlns:xlink="http://www.w3.org/1999/xlink">
<g id="graph0" class="graph" transform="scale(1 1) rotate(0) translate(4 76.12)">
<title>kest_dsp_resource_clone</title>
<!-- Node1 -->
<g id="Node000001" class="node">
<title>Node1</title>
<g id="a_Node000001"><a xlink:title=" ">
<polygon fill="#999999" stroke="#666666" points="677.5,-49.12 540,-49.12 540,-28.38 677.5,-28.38 677.5,-49.12"/>
<text xml:space="preserve" text-anchor="middle" x="608.75" y="-35.62" font-family="Helvetica,sans-Serif" font-size="10.00">kest_dsp_resource_clone</text>
</a>
</g>
</g>
<!-- Node2 -->
<g id="Node000002" class="node">
<title>Node2</title>
<g id="a_Node000002"><a xlink:href="kest__resource_8c.html#ac4e799ff7ba19e048f74acbf987eed07" target="_top" xlink:title=" ">
<polygon fill="white" stroke="#666666" points="504,-55.5 365.75,-55.5 365.75,-22 504,-22 504,-55.5"/>
<text xml:space="preserve" text-anchor="start" x="373.75" y="-42" font-family="Helvetica,sans-Serif" font-size="10.00">kest_dsp_resource_make</text>
<text xml:space="preserve" text-anchor="middle" x="434.88" y="-29.25" font-family="Helvetica,sans-Serif" font-size="10.00">_clone</text>
</a>
</g>
</g>
<!-- Node1&#45;&gt;Node2 -->
<g id="edge1_Node000001_Node000002" class="edge">
<title>Node1&#45;&gt;Node2</title>
<g id="a_edge1_Node000001_Node000002"><a xlink:title=" ">
<path fill="none" stroke="#63b8ff" d="M528.53,-38.75C520.48,-38.75 512.36,-38.75 504.44,-38.75"/>
<polygon fill="#63b8ff" stroke="#63b8ff" points="528.31,-42.25 538.31,-38.75 528.31,-35.25 528.31,-42.25"/>
</a>
</g>
</g>
<!-- Node3 -->
<g id="Node000003" class="node">
<title>Node3</title>
<g id="a_Node000003"><a xlink:href="kest__block_8c.html#a4c8583c46d84f07df6eb2c886dbfdb1b" target="_top" xlink:title=" ">
<polygon fill="white" stroke="#666666" points="310.25,-72.12 211,-72.12 211,-51.38 310.25,-51.38 310.25,-72.12"/>
<text xml:space="preserve" text-anchor="middle" x="260.62" y="-58.62" font-family="Helvetica,sans-Serif" font-size="10.00">kest_block_clone</text>
</a>
</g>
</g>
<!-- Node2&#45;&gt;Node3 -->
<g id="edge2_Node000002_Node000003" class="edge">
<title>Node2&#45;&gt;Node3</title>
<g id="a_edge2_Node000002_Node000003"><a xlink:title=" ">
<path fill="none" stroke="#63b8ff" d="M354.05,-49.41C339.23,-51.39 324.16,-53.4 310.6,-55.21"/>
<polygon fill="#63b8ff" stroke="#63b8ff" points="354.35,-52.9 363.8,-48.11 353.43,-45.96 354.35,-52.9"/>
</a>
</g>
</g>
<!-- Node4 -->
<g id="Node000004" class="node">
<title>Node4</title>
<g id="a_Node000004"><a xlink:href="kest__resource_8c.html#aae0c2105bbc588fd039daebe272cd5eb" target="_top" xlink:title=" ">
<polygon fill="white" stroke="#666666" points="329.75,-33.5 191.5,-33.5 191.5,0 329.75,0 329.75,-33.5"/>
<text xml:space="preserve" text-anchor="start" x="199.5" y="-20" font-family="Helvetica,sans-Serif" font-size="10.00">kest_dsp_resource_make</text>
<text xml:space="preserve" text-anchor="middle" x="260.62" y="-7.25" font-family="Helvetica,sans-Serif" font-size="10.00">_clone_for_effect</text>
</a>
</g>
</g>
<!-- Node2&#45;&gt;Node4 -->
<g id="edge3_Node000002_Node000004" class="edge">
<title>Node2&#45;&gt;Node4</title>
<g id="a_edge3_Node000002_Node000004"><a xlink:title=" ">
<path fill="none" stroke="#63b8ff" d="M354.11,-28.56C346.13,-27.54 338.09,-26.52 330.24,-25.51"/>
<polygon fill="#63b8ff" stroke="#63b8ff" points="353.44,-32 363.8,-29.8 354.32,-25.06 353.44,-32"/>
</a>
</g>
</g>
<!-- Node5 -->
<g id="Node000005" class="node">
<title>Node5</title>
<g id="a_Node000005"><a xlink:href="kest__effect_8c.html#a85b25e44e2629962673634f965ffe304" target="_top" xlink:title=" ">
<polygon fill="#fff0f0" stroke="red" points="155.5,-27.12 0,-27.12 0,-6.38 155.5,-6.38 155.5,-27.12"/>
<text xml:space="preserve" text-anchor="middle" x="77.75" y="-13.62" font-family="Helvetica,sans-Serif" font-size="10.00">init_effect_from_effect_desc</text>
</a>
</g>
</g>
<!-- Node4&#45;&gt;Node5 -->
<g id="edge4_Node000004_Node000005" class="edge">
<title>Node4&#45;&gt;Node5</title>
<g id="a_edge4_Node000004_Node000005"><a xlink:title=" ">
<path fill="none" stroke="#63b8ff" d="M179.96,-16.75C171.91,-16.75 163.74,-16.75 155.71,-16.75"/>
<polygon fill="#63b8ff" stroke="#63b8ff" points="179.73,-20.25 189.73,-16.75 179.73,-13.25 179.73,-20.25"/>
</a>
</g>
</g>
</g>
</svg>
