<?xml version="1.0" encoding="UTF-8" standalone="no"?>
<!DOCTYPE svg PUBLIC "-//W3C//DTD SVG 1.1//EN"
 "http://www.w3.org/Graphics/SVG/1.1/DTD/svg11.dtd">
<!-- Generated by graphviz version 13.1.2 (20250808.2320)
 -->
<!-- Title: load_saved_presets Pages: 1 -->
<!--zoomable 1272 -->

<svg id="main" version="1.1" xmlns="http://www.w3.org/2000/svg" xmlns:xlink="http://www.w3.org/1999/xlink" xml:space="preserve" onload="init(evt)">

<style type="text/css"><![CDATA[
.node, .edge {opacity: 0.7;}
.node.selected, .edge.selected {opacity: 1;}
.edge:hover path { stroke: red; }
.edge:hover polygon { stroke: red; fill: red; }
]]></style>

<defs>
  <circle id="rim" cx="0" cy="0" r="7"/>
  <circle id="rim2" cx="0" cy="0" r="3.5"/>
  <g id="zoomPlus">
    <use xlink:href="#rim" fill="#404040"><set attributeName="fill" to="#808080" begin="zoomplus.mouseover" end="zoomplus.mouseout"/></use>
    <path d="M-4,0h8M0,-4v8" fill="none" stroke="white" stroke-width="1.5" pointer-events="none"/>
  </g>
  <g id="zoomMin">
    <use xlink:href="#rim" fill="#404040"><set attributeName="fill" to="#808080" begin="zoomminus.mouseover" end="zoomminus.mouseout"/></use>
    <path d="M-4,0h8" fill="none" stroke="white" stroke-width="1.5" pointer-events="none"/>
  </g>
  <g id="arrowUp" transform="translate(30 24)">
    <use xlink:href="#rim"/>
    <path pointer-events="none" fill="none" stroke="white" stroke-width="1.5" d="M0,-3.0v7 M-2.5,-0.5L0,-3.0L2.5,-0.5"/>
  </g>
  <g id="arrowRight" transform="rotate(90) translate(36 -43)">
    <use xlink:href="#rim"/>
    <path pointer-events="none" fill="none" stroke="white" stroke-width="1.5" d="M0,-3.0v7 M-2.5,-0.5L0,-3.0L2.5,-0.5"/>
  </g>
  <g id="arrowDown" transform="rotate(180) translate(-30 -48)">
    <use xlink:href="#rim"/>
    <path pointer-events="none" fill="none" stroke="white" stroke-width="1.5" d="M0,-3.0v7 M-2.5,-0.5L0,-3.0L2.5,-0.5"/>
  </g>
  <g id="arrowLeft" transform="rotate(270) translate(-36 17)">
    <use xlink:href="#rim"/>
    <path pointer-events="none" fill="none" stroke="white" stroke-width="1.5" d="M0,-3.0v7 M-2.5,-0.5L0,-3.0L2.5,-0.5"/>
  </g>
  <g id="resetDef">
    <use xlink:href="#rim2" fill="#404040"><set attributeName="fill" to="#808080" begin="reset.mouseover" end="reset.mouseout"/></use>
  </g>
</defs>
<script type="application/ecmascript">
var viewWidth = 946;
var viewHeight = 1272;
var sectionId = 'dynsection-16';
</script>
<script type="application/ecmascript" xlink:href="svg.min.js"/>
<svg id="graph" class="graph">
<g id="viewport">
<title>load_saved_presets</title>
<!-- Node1 -->
<g id="Node000001" class="node">
<title>Node1</title>
<g id="a_Node000001"><a xlink:title=" ">
<polygon fill="#999999" stroke="#666666" points="112.75,-340.12 0,-340.12 0,-319.38 112.75,-319.38 112.75,-340.12"/>
<text xml:space="preserve" text-anchor="middle" x="56.38" y="-326.62" font-family="Helvetica,sans-Serif" font-size="10.00">load_saved_presets</text>
</a>
</g>
</g>
<!-- Node2 -->
<g id="Node000002" class="node">
<title>Node2</title>
<g id="a_Node000002"><a xlink:href="kest__preset__view_8c.html#ae4f85ce684e856ba2d0dfc97c49528b2" target="_top" xlink:title=" ">
<polygon fill="white" stroke="#666666" points="278.75,-694.12 148.75,-694.12 148.75,-673.38 278.75,-673.38 278.75,-694.12"/>
<text xml:space="preserve" text-anchor="middle" x="213.75" y="-680.62" font-family="Helvetica,sans-Serif" font-size="10.00">create_preset_view_for</text>
</a>
</g>
</g>
<!-- Node1&#45;&gt;Node2 -->
<g id="edge1_Node000001_Node000002" class="edge">
<title>Node1&#45;&gt;Node2</title>
<g id="a_edge1_Node000001_Node000002"><a xlink:title=" ">
<path fill="none" stroke="#63b8ff" d="M62.03,-340.34C83.6,-389.51 174.16,-595.83 203.52,-662.72"/>
<polygon fill="#63b8ff" stroke="#63b8ff" points="200.29,-664.06 207.51,-671.81 206.7,-661.25 200.29,-664.06"/>
</a>
</g>
</g>
<!-- Node242 -->
<g id="Node000242" class="node">
<title>Node242</title>
<g id="a_Node000242"><a xlink:href="kest__preset_8c.html#a4d502f8b682425208e39082cbac4a4a1" target="_top" xlink:title=" ">
<polygon fill="white" stroke="#666666" points="249.5,-340.12 178,-340.12 178,-319.38 249.5,-319.38 249.5,-340.12"/>
<text xml:space="preserve" text-anchor="middle" x="213.75" y="-326.62" font-family="Helvetica,sans-Serif" font-size="10.00">free_preset</text>
</a>
</g>
</g>
<!-- Node1&#45;&gt;Node242 -->
<g id="edge33_Node000001_Node000242" class="edge">
<title>Node1&#45;&gt;Node242</title>
<g id="a_edge33_Node000001_Node000242"><a xlink:title=" ">
<path fill="none" stroke="#63b8ff" d="M113.03,-329.75C130.58,-329.75 149.76,-329.75 166.57,-329.75"/>
<polygon fill="#63b8ff" stroke="#63b8ff" points="166.26,-333.25 176.26,-329.75 166.26,-326.25 166.26,-333.25"/>
</a>
</g>
</g>
<!-- Node245 -->
<g id="Node000245" class="node">
<title>Node245</title>
<g id="a_Node000245"><a xlink:href="kest__preset_8c.html#a081f5bea4d9dff0740275c4608e75b80" target="_top" xlink:title=" ">
<polygon fill="white" stroke="#666666" points="255.12,-272.12 172.38,-272.12 172.38,-251.38 255.12,-251.38 255.12,-272.12"/>
<text xml:space="preserve" text-anchor="middle" x="213.75" y="-258.62" font-family="Helvetica,sans-Serif" font-size="10.00">init_m_preset</text>
</a>
</g>
</g>
<!-- Node1&#45;&gt;Node245 -->
<g id="edge36_Node000001_Node000245" class="edge">
<title>Node1&#45;&gt;Node245</title>
<g id="a_edge36_Node000001_Node000245"><a xlink:title=" ">
<path fill="none" stroke="#63b8ff" d="M81.99,-318.98C107.83,-307.67 148.66,-289.8 177.82,-277.04"/>
<polygon fill="#63b8ff" stroke="#63b8ff" points="178.84,-280.41 186.6,-273.19 176.04,-274 178.84,-280.41"/>
</a>
</g>
</g>
<!-- Node257 -->
<g id="Node000257" class="node">
<title>Node257</title>
<g id="a_Node000257"><a xlink:href="kest__alloc_8c.html#a4bb52284828149d9a740bac0c9706ecd" target="_top" xlink:title=" ">
<polygon fill="white" stroke="#666666" points="614.5,-446.12 501.75,-446.12 501.75,-425.38 614.5,-425.38 614.5,-446.12"/>
<text xml:space="preserve" text-anchor="middle" x="558.12" y="-432.62" font-family="Helvetica,sans-Serif" font-size="10.00">kest_allocator_alloc</text>
</a>
</g>
</g>
<!-- Node1&#45;&gt;Node257 -->
<g id="edge40_Node000001_Node000257" class="edge">
<title>Node1&#45;&gt;Node257</title>
<g id="a_edge40_Node000001_Node000257"><a xlink:title=" ">
<path fill="none" stroke="#63b8ff" d="M67.7,-340.54C83.49,-356.25 115.33,-384.93 148.75,-397.75 262.72,-441.47 407.19,-443.67 490.19,-440.36"/>
<polygon fill="#63b8ff" stroke="#63b8ff" points="490.14,-443.87 499.98,-439.93 489.83,-436.87 490.14,-443.87"/>
</a>
</g>
</g>
<!-- Node258 -->
<g id="Node000258" class="node">
<title>Node258</title>
<g id="a_Node000258"><a xlink:href="kest__preset_8c.html#a382d6033d4dbd74c0a3d52a5f0de75fe" target="_top" xlink:title=" ">
<polygon fill="white" stroke="#666666" points="278,-208.12 149.5,-208.12 149.5,-187.38 278,-187.38 278,-208.12"/>
<text xml:space="preserve" text-anchor="middle" x="213.75" y="-194.62" font-family="Helvetica,sans-Serif" font-size="10.00">kest_preset_rectify_ids</text>
</a>
</g>
</g>
<!-- Node1&#45;&gt;Node258 -->
<g id="edge42_Node000001_Node000258" class="edge">
<title>Node1&#45;&gt;Node258</title>
<g id="a_edge42_Node000001_Node000258"><a xlink:title=" ">
<path fill="none" stroke="#63b8ff" d="M67.6,-319.04C84.02,-302.07 117.59,-268.31 148.75,-242.75 160.73,-232.93 174.74,-222.92 186.59,-214.85"/>
<polygon fill="#63b8ff" stroke="#63b8ff" points="188.34,-217.89 194.69,-209.41 184.44,-212.08 188.34,-217.89"/>
</a>
</g>
</g>
<!-- Node261 -->
<g id="Node000261" class="node">
<title>Node261</title>
<g id="a_Node000261"><a xlink:href="kest__files_8c.html#af2c9a5f230b9dd7908c5fbadd69e715e" target="_top" xlink:title=" ">
<polygon fill="white" stroke="#666666" points="273.88,-389.12 153.62,-389.12 153.62,-368.38 273.88,-368.38 273.88,-389.12"/>
<text xml:space="preserve" text-anchor="middle" x="213.75" y="-375.62" font-family="Helvetica,sans-Serif" font-size="10.00">list_files_in_directory</text>
</a>
</g>
</g>
<!-- Node1&#45;&gt;Node261 -->
<g id="edge44_Node000001_Node000261" class="edge">
<title>Node1&#45;&gt;Node261</title>
<g id="a_edge44_Node000001_Node000261"><a xlink:title=" ">
<path fill="none" stroke="#63b8ff" d="M91.86,-340.62C114.19,-347.67 143.5,-356.91 167.66,-364.53"/>
<polygon fill="#63b8ff" stroke="#63b8ff" points="166.33,-367.78 176.92,-367.45 168.44,-361.1 166.33,-367.78"/>
</a>
</g>
</g>
<!-- Node262 -->
<g id="Node000262" class="node">
<title>Node262</title>
<g id="a_Node000262"><a xlink:href="kest__files_8c.html#ac529af30283838508d0a748d1df82bc9" target="_top" xlink:title=" ">
<polygon fill="white" stroke="#666666" points="275.38,-102.12 152.12,-102.12 152.12,-81.38 275.38,-81.38 275.38,-102.12"/>
<text xml:space="preserve" text-anchor="middle" x="213.75" y="-88.62" font-family="Helvetica,sans-Serif" font-size="10.00">read_preset_from_file</text>
</a>
</g>
</g>
<!-- Node1&#45;&gt;Node262 -->
<g id="edge46_Node000001_Node000262" class="edge">
<title>Node1&#45;&gt;Node262</title>
<g id="a_edge46_Node000001_Node000262"><a xlink:title=" ">
<path fill="none" stroke="#63b8ff" d="M63.48,-318.93C77.71,-293.84 114.52,-229.95 148.75,-178.75 164.66,-154.94 184.37,-128.58 197.67,-111.18"/>
<polygon fill="#63b8ff" stroke="#63b8ff" points="200.1,-113.77 203.42,-103.71 194.55,-109.5 200.1,-113.77"/>
</a>
</g>
</g>
<!-- Node3 -->
<g id="Node000003" class="node">
<title>Node3</title>
<g id="a_Node000003"><a xlink:href="kest__preset__view_8c.html#ad8a171502fcb88f5b5a08657a6424752" target="_top" xlink:title=" ">
<polygon fill="white" stroke="#666666" points="621.25,-839.12 495,-839.12 495,-818.38 621.25,-818.38 621.25,-839.12"/>
<text xml:space="preserve" text-anchor="middle" x="558.12" y="-825.62" font-family="Helvetica,sans-Serif" font-size="10.00">configure_preset_view</text>
</a>
</g>
</g>
<!-- Node2&#45;&gt;Node3 -->
<g id="edge2_Node000002_Node000003" class="edge">
<title>Node2&#45;&gt;Node3</title>
<g id="a_edge2_Node000002_Node000003"><a xlink:title=" ">
<path fill="none" stroke="#63b8ff" d="M240.2,-694.53C300.37,-720.01 451.51,-784.02 521.07,-813.48"/>
<polygon fill="#63b8ff" stroke="#63b8ff" points="519.54,-816.63 530.11,-817.31 522.27,-810.19 519.54,-816.63"/>
</a>
</g>
</g>
<!-- Node6 -->
<g id="Node000006" class="node">
<title>Node6</title>
<g id="a_Node000006"><a xlink:href="kest__alloc_8c.html#a849755c5dc5b35e712ffcdb602e50fb4" target="_top" xlink:title=" ">
<polygon fill="white" stroke="#666666" points="937.5,-561.12 872.75,-561.12 872.75,-540.38 937.5,-540.38 937.5,-561.12"/>
<text xml:space="preserve" text-anchor="middle" x="905.12" y="-547.62" font-family="Helvetica,sans-Serif" font-size="10.00">kest_alloc</text>
</a>
</g>
</g>
<!-- Node2&#45;&gt;Node6 -->
<g id="edge32_Node000002_Node000006" class="edge">
<title>Node2&#45;&gt;Node6</title>
<g id="a_edge32_Node000002_Node000006"><a xlink:title=" ">
<path fill="none" stroke="#63b8ff" d="M219.68,-694.36C263.16,-786.61 585.4,-1443.95 836.75,-1216.75 885.68,-1172.52 900.81,-683.02 903.61,-572.73"/>
<polygon fill="#63b8ff" stroke="#63b8ff" points="907.1,-573.06 903.85,-562.98 900.11,-572.89 907.1,-573.06"/>
</a>
</g>
</g>
<!-- Node99 -->
<g id="Node000099" class="node">
<title>Node99</title>
<g id="a_Node000099"><a xlink:href="kest__preset__view_8c.html#a58eda1cec9e655ae816503dc7dd9616c" target="_top" xlink:title=" ">
<polygon fill="white" stroke="#666666" points="608.12,-714.12 508.12,-714.12 508.12,-693.38 608.12,-693.38 608.12,-714.12"/>
<text xml:space="preserve" text-anchor="middle" x="558.12" y="-700.62" font-family="Helvetica,sans-Serif" font-size="10.00">free_preset_view</text>
</a>
</g>
</g>
<!-- Node2&#45;&gt;Node99 -->
<g id="edge19_Node000002_Node000099" class="edge">
<title>Node2&#45;&gt;Node99</title>
<g id="a_edge19_Node000002_Node000099"><a xlink:title=" ">
<path fill="none" stroke="#63b8ff" d="M279.15,-687.51C341.48,-691.15 435.25,-696.63 496.33,-700.2"/>
<polygon fill="#63b8ff" stroke="#63b8ff" points="496.02,-703.69 506.2,-700.78 496.42,-696.7 496.02,-703.69"/>
</a>
</g>
</g>
<!-- Node100 -->
<g id="Node000100" class="node">
<title>Node100</title>
<g id="a_Node000100"><a xlink:href="kest__preset__view_8c.html#a7aa469a400baf1fdf82d314a2ad5ddbb" target="_top" xlink:title=" ">
<polygon fill="#fff0f0" stroke="red" points="431.25,-656.12 335,-656.12 335,-635.38 431.25,-635.38 431.25,-656.12"/>
<text xml:space="preserve" text-anchor="middle" x="383.12" y="-642.62" font-family="Helvetica,sans-Serif" font-size="10.00">init_preset_view</text>
</a>
</g>
</g>
<!-- Node2&#45;&gt;Node100 -->
<g id="edge20_Node000002_Node000100" class="edge">
<title>Node2&#45;&gt;Node100</title>
<g id="a_edge20_Node000002_Node000100"><a xlink:title=" ">
<path fill="none" stroke="#63b8ff" d="M262.27,-672.96C281.34,-668.63 303.52,-663.6 323.57,-659.04"/>
<polygon fill="#63b8ff" stroke="#63b8ff" points="324.33,-662.46 333.3,-656.83 322.78,-655.63 324.33,-662.46"/>
</a>
</g>
</g>
<!-- Node155 -->
<g id="Node000155" class="node">
<title>Node155</title>
<g id="a_Node000155"><a xlink:href="kest__ui_8c.html#aa35b25eb0a8f315343a7ea5190b0163b" target="_top" xlink:title=" ">
<polygon fill="white" stroke="#666666" points="788.38,-522.12 713.12,-522.12 713.12,-501.38 788.38,-501.38 788.38,-522.12"/>
<text xml:space="preserve" text-anchor="middle" x="750.75" y="-508.62" font-family="Helvetica,sans-Serif" font-size="10.00">init_ui_page</text>
</a>
</g>
</g>
<!-- Node2&#45;&gt;Node155 -->
<g id="edge31_Node000002_Node000155" class="edge">
<title>Node2&#45;&gt;Node155</title>
<g id="a_edge31_Node000002_Node000155"><a xlink:title=" ">
<path fill="none" stroke="#63b8ff" d="M224.9,-673.29C258.45,-639.59 370.3,-533.91 487.5,-497.75 559.55,-475.52 647.94,-487.85 701.5,-499.37"/>
<polygon fill="#63b8ff" stroke="#63b8ff" points="700.71,-502.78 711.23,-501.55 702.24,-495.95 700.71,-502.78"/>
</a>
</g>
</g>
<!-- Node4 -->
<g id="Node000004" class="node">
<title>Node4</title>
<g id="a_Node000004"><a xlink:href="kest__preset__settings_8c.html#a4e21964ed69d6e526547b1f73d86f508" target="_top" xlink:title=" ">
<polygon fill="#fff0f0" stroke="red" points="836.38,-599.12 665.12,-599.12 665.12,-578.38 836.38,-578.38 836.38,-599.12"/>
<text xml:space="preserve" text-anchor="middle" x="750.75" y="-585.62" font-family="Helvetica,sans-Serif" font-size="10.00">configure_preset_settings_page</text>
</a>
</g>
</g>
<!-- Node3&#45;&gt;Node4 -->
<g id="edge3_Node000003_Node000004" class="edge">
<title>Node3&#45;&gt;Node4</title>
<g id="a_edge3_Node000003_Node000004"><a xlink:title=" ">
<path fill="none" stroke="#63b8ff" d="M567.72,-817.9C582.07,-799.36 611.08,-759.94 628.75,-722.75 651.55,-674.76 625.8,-644.89 664.75,-608.75 666,-607.59 667.3,-606.49 668.66,-605.46"/>
<polygon fill="#63b8ff" stroke="#63b8ff" points="670.31,-608.55 676.9,-600.26 666.58,-602.63 670.31,-608.55"/>
</a>
</g>
</g>
<!-- Node21 -->
<g id="Node000021" class="node">
<title>Node21</title>
<g id="a_Node000021"><a xlink:href="kest__effect__select_8c.html#acd3eb99039d7b3531035a87718ae6948" target="_top" xlink:title=" ">
<polygon fill="#fff0f0" stroke="red" points="818.75,-794.12 682.75,-794.12 682.75,-773.38 818.75,-773.38 818.75,-794.12"/>
<text xml:space="preserve" text-anchor="middle" x="750.75" y="-780.62" font-family="Helvetica,sans-Serif" font-size="10.00">enter_effect_selector_cb</text>
</a>
</g>
</g>
<!-- Node3&#45;&gt;Node21 -->
<g id="edge4_Node000003_Node000021" class="edge">
<title>Node3&#45;&gt;Node21</title>
<g id="a_edge4_Node000003_Node000021"><a xlink:title=" ">
<path fill="none" stroke="#63b8ff" d="M602.24,-817.91C621.37,-813.17 644.16,-807.59 664.75,-802.75 672.64,-800.9 680.96,-798.99 689.18,-797.12"/>
<polygon fill="#63b8ff" stroke="#63b8ff" points="689.81,-800.57 698.79,-794.96 688.27,-793.74 689.81,-800.57"/>
</a>
</g>
</g>
<!-- Node23 -->
<g id="Node000023" class="node">
<title>Node23</title>
<g id="a_Node000023"><a xlink:href="kest__button_8c.html#a760fe364ce4f5be2c972ff685e2f9825" target="_top" xlink:title=" ">
<polygon fill="#fff0f0" stroke="red" points="807.5,-845.5 694,-845.5 694,-812 807.5,-812 807.5,-845.5"/>
<text xml:space="preserve" text-anchor="start" x="702" y="-832" font-family="Helvetica,sans-Serif" font-size="10.00">kest_active_button</text>
<text xml:space="preserve" text-anchor="middle" x="750.75" y="-819.25" font-family="Helvetica,sans-Serif" font-size="10.00">_array_append_new</text>
</a>
</g>
</g>
<!-- Node3&#45;&gt;Node23 -->
<g id="edge5_Node000003_Node000023" class="edge">
<title>Node3&#45;&gt;Node23</title>
<g id="a_edge5_Node000003_Node000023"><a xlink:title=" ">
<path fill="none" stroke="#63b8ff" d="M621.54,-828.75C640.97,-828.75 662.47,-828.75 682.23,-828.75"/>
<polygon fill="#63b8ff" stroke="#63b8ff" points="682.11,-832.25 692.11,-828.75 682.11,-825.25 682.11,-832.25"/>
</a>
</g>
</g>
<!-- Node61 -->
<g id="Node000061" class="node">
<title>Node61</title>
<g id="a_Node000061"><a xlink:href="kest__button_8c.html#a21a7b8dcd7ffa25a3e7d230fa6a7d985" target="_top" xlink:title=" ">
<polygon fill="white" stroke="#666666" points="807.5,-638.12 694,-638.12 694,-617.38 807.5,-617.38 807.5,-638.12"/>
<text xml:space="preserve" text-anchor="middle" x="750.75" y="-624.62" font-family="Helvetica,sans-Serif" font-size="10.00">kest_button_disable</text>
</a>
</g>
</g>
<!-- Node3&#45;&gt;Node61 -->
<g id="edge7_Node000003_Node000061" class="edge">
<title>Node3&#45;&gt;Node61</title>
<g id="a_edge7_Node000003_Node000061"><a xlink:title=" ">
<path fill="none" stroke="#63b8ff" d="M566.94,-817.91C580.38,-799.06 608.39,-758.79 628.75,-722.75 646.94,-690.56 635.93,-670.92 664.75,-647.75 670.25,-643.32 676.57,-639.85 683.22,-637.12"/>
<polygon fill="#63b8ff" stroke="#63b8ff" points="684.15,-640.5 692.45,-633.92 681.86,-633.89 684.15,-640.5"/>
</a>
</g>
</g>
<!-- Node62 -->
<g id="Node000062" class="node">
<title>Node62</title>
<g id="a_Node000062"><a xlink:href="kest__effect_8h.html#a262d6915b50a9a4daf4cd64e3b74b13f" target="_top" xlink:title=" ">
<polygon fill="white" stroke="#666666" points="825.12,-755.12 676.38,-755.12 676.38,-734.38 825.12,-734.38 825.12,-755.12"/>
<text xml:space="preserve" text-anchor="middle" x="750.75" y="-741.62" font-family="Helvetica,sans-Serif" font-size="10.00">kest_effect_init_view_page</text>
</a>
</g>
</g>
<!-- Node3&#45;&gt;Node62 -->
<g id="edge8_Node000003_Node000062" class="edge">
<title>Node3&#45;&gt;Node62</title>
<g id="a_edge8_Node000003_Node000062"><a xlink:title=" ">
<path fill="none" stroke="#63b8ff" d="M573.39,-818.09C592.99,-803.92 629.82,-779.02 664.75,-764.75 670.28,-762.49 676.11,-760.46 682.03,-758.63"/>
<polygon fill="#63b8ff" stroke="#63b8ff" points="682.63,-762.09 691.28,-755.97 680.7,-755.37 682.63,-762.09"/>
</a>
</g>
</g>
<!-- Node63 -->
<g id="Node000063" class="node">
<title>Node63</title>
<g id="a_Node000063"><a xlink:href="kest__effect_8c.html#a8f53e22436efdc0e494b297ea09db5eb" target="_top" xlink:title=" ">
<polygon fill="white" stroke="#666666" points="802.25,-716.12 699.25,-716.12 699.25,-695.38 802.25,-695.38 802.25,-716.12"/>
<text xml:space="preserve" text-anchor="middle" x="750.75" y="-702.62" font-family="Helvetica,sans-Serif" font-size="10.00">kest_effect_name</text>
</a>
</g>
</g>
<!-- Node3&#45;&gt;Node63 -->
<g id="edge9_Node000003_Node000063" class="edge">
<title>Node3&#45;&gt;Node63</title>
<g id="a_edge9_Node000003_Node000063"><a xlink:title=" ">
<path fill="none" stroke="#63b8ff" d="M566.8,-818.09C582.6,-796.96 620.97,-749.78 664.75,-725.75 671.97,-721.79 679.95,-718.61 688.05,-716.05"/>
<polygon fill="#63b8ff" stroke="#63b8ff" points="688.96,-719.43 697.64,-713.36 687.06,-712.69 688.96,-719.43"/>
</a>
</g>
</g>
<!-- Node64 -->
<g id="Node000064" class="node">
<title>Node64</title>
<g id="a_Node000064"><a xlink:href="kest__preset_8c.html#a8e83d82d4259482016e0639c7cef1a49" target="_top" xlink:title=" ">
<polygon fill="white" stroke="#666666" points="836.75,-677.12 664.75,-677.12 664.75,-656.38 836.75,-656.38 836.75,-677.12"/>
<text xml:space="preserve" text-anchor="middle" x="750.75" y="-663.62" font-family="Helvetica,sans-Serif" font-size="10.00">kest_preset_add_representation</text>
</a>
</g>
</g>
<!-- Node3&#45;&gt;Node64 -->
<g id="edge10_Node000003_Node000064" class="edge">
<title>Node3&#45;&gt;Node64</title>
<g id="a_edge10_Node000003_Node000064"><a xlink:title=" ">
<path fill="none" stroke="#63b8ff" d="M565.78,-817.93C584.49,-787.87 637.91,-704.38 664.75,-686.75 667.33,-685.05 670.05,-683.5 672.85,-682.08"/>
<polygon fill="#63b8ff" stroke="#63b8ff" points="674.19,-685.31 681.94,-678.09 671.38,-678.9 674.19,-685.31"/>
</a>
</g>
</g>
<!-- Node65 -->
<g id="Node000065" class="node">
<title>Node65</title>
<g id="a_Node000065"><a xlink:href="kest__preset__view_8c.html#a446ea527879a6182b34b5fc2185ebe00" target="_top" xlink:title=" ">
<polygon fill="#fff0f0" stroke="red" points="825.88,-1207.5 675.62,-1207.5 675.62,-1174 825.88,-1174 825.88,-1207.5"/>
<text xml:space="preserve" text-anchor="start" x="683.62" y="-1194" font-family="Helvetica,sans-Serif" font-size="10.00">preset_view_enter_settings</text>
<text xml:space="preserve" text-anchor="middle" x="750.75" y="-1181.25" font-family="Helvetica,sans-Serif" font-size="10.00">_page_cb</text>
</a>
</g>
</g>
<!-- Node3&#45;&gt;Node65 -->
<g id="edge11_Node000003_Node000065" class="edge">
<title>Node3&#45;&gt;Node65</title>
<g id="a_edge11_Node000003_Node000065"><a xlink:title=" ">
<path fill="none" stroke="#63b8ff" d="M559.12,-839.58C559.68,-885.85 568.17,-1068.92 664.75,-1164.75 665.49,-1165.49 666.26,-1166.2 667.04,-1166.9"/>
<polygon fill="#63b8ff" stroke="#63b8ff" points="664.73,-1169.55 674.84,-1172.71 668.91,-1163.93 664.73,-1169.55"/>
</a>
</g>
</g>
<!-- Node66 -->
<g id="Node000066" class="node">
<title>Node66</title>
<g id="a_Node000066"><a xlink:href="kest__preset__view_8c.html#a94f5c88455763855196088379903825d" target="_top" xlink:title=" ">
<polygon fill="#fff0f0" stroke="red" points="828.12,-1156.12 673.38,-1156.12 673.38,-1135.38 828.12,-1135.38 828.12,-1156.12"/>
<text xml:space="preserve" text-anchor="middle" x="750.75" y="-1142.62" font-family="Helvetica,sans-Serif" font-size="10.00">preset_view_play_button_cb</text>
</a>
</g>
</g>
<!-- Node3&#45;&gt;Node66 -->
<g id="edge12_Node000003_Node000066" class="edge">
<title>Node3&#45;&gt;Node66</title>
<g id="a_edge12_Node000003_Node000066"><a xlink:title=" ">
<path fill="none" stroke="#63b8ff" d="M559.45,-839.36C561.39,-882.35 574.63,-1045.09 664.75,-1125.75 666.02,-1126.89 667.34,-1127.96 668.71,-1128.98"/>
<polygon fill="#63b8ff" stroke="#63b8ff" points="666.69,-1131.84 677.04,-1134.1 670.35,-1125.88 666.69,-1131.84"/>
</a>
</g>
</g>
<!-- Node88 -->
<g id="Node000088" class="node">
<title>Node88</title>
<g id="a_Node000088"><a xlink:href="kest__preset__view_8c.html#a68d55cd59cd7fe88063634c16b27e623" target="_top" xlink:title=" ">
<polygon fill="#fff0f0" stroke="red" points="822.12,-1117.12 679.38,-1117.12 679.38,-1096.38 822.12,-1096.38 822.12,-1117.12"/>
<text xml:space="preserve" text-anchor="middle" x="750.75" y="-1103.62" font-family="Helvetica,sans-Serif" font-size="10.00">preset_view_revert_name</text>
</a>
</g>
</g>
<!-- Node3&#45;&gt;Node88 -->
<g id="edge13_Node000003_Node000088" class="edge">
<title>Node3&#45;&gt;Node88</title>
<g id="a_edge13_Node000003_Node000088"><a xlink:title=" ">
<path fill="none" stroke="#63b8ff" d="M560.11,-839.59C564.33,-879.32 584.5,-1018.24 664.75,-1086.75 666.22,-1088 667.75,-1089.18 669.33,-1090.29"/>
<polygon fill="#63b8ff" stroke="#63b8ff" points="667.22,-1093.11 677.62,-1095.12 670.74,-1087.06 667.22,-1093.11"/>
</a>
</g>
</g>
<!-- Node91 -->
<g id="Node000091" class="node">
<title>Node91</title>
<g id="a_Node000091"><a xlink:href="kest__preset__view_8c.html#a3ce8a1ef6a8ba6c46ae10f40394e1b14" target="_top" xlink:title=" ">
<polygon fill="#fff0f0" stroke="red" points="827.38,-1078.12 674.12,-1078.12 674.12,-1057.38 827.38,-1057.38 827.38,-1078.12"/>
<text xml:space="preserve" text-anchor="middle" x="750.75" y="-1064.62" font-family="Helvetica,sans-Serif" font-size="10.00">preset_view_save_name_cb</text>
</a>
</g>
</g>
<!-- Node3&#45;&gt;Node91 -->
<g id="edge14_Node000003_Node000091" class="edge">
<title>Node3&#45;&gt;Node91</title>
<g id="a_edge14_Node000003_Node000091"><a xlink:title=" ">
<path fill="none" stroke="#63b8ff" d="M560.9,-839.51C567.41,-875.42 593.44,-992.07 664.75,-1048.75 665.88,-1049.65 667.05,-1050.51 668.24,-1051.33"/>
<polygon fill="#63b8ff" stroke="#63b8ff" points="666.2,-1054.19 676.62,-1056.13 669.68,-1048.12 666.2,-1054.19"/>
</a>
</g>
</g>
<!-- Node95 -->
<g id="Node000095" class="node">
<title>Node95</title>
<g id="a_Node000095"><a xlink:href="kest__ui_8c.html#a446fd8da13243be96d2ce6a5ff1f1f7b" target="_top" xlink:title=" ">
<polygon fill="#fff0f0" stroke="red" points="809.75,-1039.5 691.75,-1039.5 691.75,-1006 809.75,-1006 809.75,-1039.5"/>
<text xml:space="preserve" text-anchor="start" x="699.75" y="-1026" font-family="Helvetica,sans-Serif" font-size="10.00">ui_page_add_bottom</text>
<text xml:space="preserve" text-anchor="middle" x="750.75" y="-1013.25" font-family="Helvetica,sans-Serif" font-size="10.00">_button</text>
</a>
</g>
</g>
<!-- Node3&#45;&gt;Node95 -->
<g id="edge15_Node000003_Node000095" class="edge">
<title>Node3&#45;&gt;Node95</title>
<g id="a_edge15_Node000003_Node000095"><a xlink:title=" ">
<path fill="none" stroke="#63b8ff" d="M562.72,-839.23C573.35,-868.71 607.57,-952.99 664.75,-996.75 669.65,-1000.5 675.1,-1003.72 680.8,-1006.47"/>
<polygon fill="#63b8ff" stroke="#63b8ff" points="679.3,-1009.64 689.88,-1010.35 682.05,-1003.2 679.3,-1009.64"/>
</a>
</g>
</g>
<!-- Node96 -->
<g id="Node000096" class="node">
<title>Node96</title>
<g id="a_Node000096"><a xlink:href="kest__ui_8c.html#a204baa82ce6693ec98b575b1f837158b" target="_top" xlink:title=" ">
<polygon fill="#fff0f0" stroke="red" points="816.5,-987.5 685,-987.5 685,-954 816.5,-954 816.5,-987.5"/>
<text xml:space="preserve" text-anchor="start" x="693" y="-974" font-family="Helvetica,sans-Serif" font-size="10.00">ui_page_add_left_panel</text>
<text xml:space="preserve" text-anchor="middle" x="750.75" y="-961.25" font-family="Helvetica,sans-Serif" font-size="10.00">_button</text>
</a>
</g>
</g>
<!-- Node3&#45;&gt;Node96 -->
<g id="edge16_Node000003_Node000096" class="edge">
<title>Node3&#45;&gt;Node96</title>
<g id="a_edge16_Node000003_Node000096"><a xlink:title=" ">
<path fill="none" stroke="#63b8ff" d="M565.92,-839.47C580.92,-862.28 619.19,-915.9 664.75,-944.75 667.81,-946.69 671.03,-948.49 674.35,-950.17"/>
<polygon fill="#63b8ff" stroke="#63b8ff" points="672.62,-953.23 683.17,-954.19 675.52,-946.86 672.62,-953.23"/>
</a>
</g>
</g>
<!-- Node97 -->
<g id="Node000097" class="node">
<title>Node97</title>
<g id="a_Node000097"><a xlink:href="kest__ui_8c.html#ac03024eff746f181b01136d6bfe4c7d5" target="_top" xlink:title=" ">
<polygon fill="#fff0f0" stroke="red" points="819.5,-935.5 682,-935.5 682,-902 819.5,-902 819.5,-935.5"/>
<text xml:space="preserve" text-anchor="start" x="690" y="-922" font-family="Helvetica,sans-Serif" font-size="10.00">ui_page_add_right_panel</text>
<text xml:space="preserve" text-anchor="middle" x="750.75" y="-909.25" font-family="Helvetica,sans-Serif" font-size="10.00">_button</text>
</a>
</g>
</g>
<!-- Node3&#45;&gt;Node97 -->
<g id="edge17_Node000003_Node000097" class="edge">
<title>Node3&#45;&gt;Node97</title>
<g id="a_edge17_Node000003_Node000097"><a xlink:title=" ">
<path fill="none" stroke="#63b8ff" d="M574.21,-839.55C594.14,-853.42 630.7,-877.51 664.75,-892.75 668.57,-894.46 672.53,-896.1 676.56,-897.66"/>
<polygon fill="#63b8ff" stroke="#63b8ff" points="675.33,-900.94 685.93,-901.1 677.74,-894.37 675.33,-900.94"/>
</a>
</g>
</g>
<!-- Node98 -->
<g id="Node000098" class="node">
<title>Node98</title>
<g id="a_Node000098"><a xlink:href="kest__ui_8c.html#a142d4ec0779ace260353dfeb5a572a93" target="_top" xlink:title=" ">
<polygon fill="white" stroke="#666666" points="809,-884.12 692.5,-884.12 692.5,-863.38 809,-863.38 809,-884.12"/>
<text xml:space="preserve" text-anchor="middle" x="750.75" y="-870.62" font-family="Helvetica,sans-Serif" font-size="10.00">ui_page_set_title_rw</text>
</a>
</g>
</g>
<!-- Node3&#45;&gt;Node98 -->
<g id="edge18_Node000003_Node000098" class="edge">
<title>Node3&#45;&gt;Node98</title>
<g id="a_edge18_Node000003_Node000098"><a xlink:title=" ">
<path fill="none" stroke="#63b8ff" d="M602.24,-839.59C621.37,-844.33 644.16,-849.91 664.75,-854.75 672.64,-856.6 680.96,-858.51 689.18,-860.38"/>
<polygon fill="#63b8ff" stroke="#63b8ff" points="688.27,-863.76 698.79,-862.54 689.81,-856.93 688.27,-863.76"/>
</a>
</g>
</g>
<!-- Node23&#45;&gt;Node6 -->
<g id="edge6_Node000023_Node000006" class="edge">
<title>Node23&#45;&gt;Node6</title>
<g id="a_edge6_Node000023_Node000006"><a xlink:title=" ">
<path fill="none" stroke="#63b8ff" d="M807.96,-820.31C818.65,-816.45 828.93,-810.86 836.75,-802.75 899.39,-737.84 905.34,-621.36 904.9,-572.88"/>
<polygon fill="#63b8ff" stroke="#63b8ff" points="908.4,-573.03 904.69,-563.1 901.4,-573.17 908.4,-573.03"/>
</a>
</g>
</g>
<!-- Node100&#45;&gt;Node3 -->
<g id="edge21_Node000100_Node000003" class="edge">
<title>Node100&#45;&gt;Node3</title>
<g id="a_edge21_Node000100_Node000003"><a xlink:title=" ">
<path fill="none" stroke="#63b8ff" d="M394.17,-656.38C422.48,-686.32 503.16,-771.67 539.27,-809.87"/>
<polygon fill="#63b8ff" stroke="#63b8ff" points="536.6,-812.13 546.01,-816.99 541.68,-807.32 536.6,-812.13"/>
</a>
</g>
</g>
<!-- Node100&#45;&gt;Node6 -->
<g id="edge30_Node000100_Node000006" class="edge">
<title>Node100&#45;&gt;Node6</title>
<g id="a_edge30_Node000100_Node000006"><a xlink:title=" ">
<path fill="none" stroke="#63b8ff" d="M431.55,-647.25C482.99,-646.92 566.15,-640.6 628.75,-607.75 649.35,-596.94 643.76,-579.78 664.75,-569.75 727.95,-539.55 811.31,-540.81 861.14,-545.24"/>
<polygon fill="#63b8ff" stroke="#63b8ff" points="860.65,-548.71 870.95,-546.2 861.34,-541.74 860.65,-548.71"/>
</a>
</g>
</g>
<!-- Node100&#45;&gt;Node99 -->
<g id="edge25_Node000100_Node000099" class="edge">
<title>Node100&#45;&gt;Node99</title>
<g id="a_edge25_Node000100_Node000099"><a xlink:title=" ">
<path fill="none" stroke="#63b8ff" d="M411.58,-656.46C432.3,-664.39 461.51,-675.25 487.5,-683.75 493.7,-685.78 500.25,-687.81 506.75,-689.75"/>
<polygon fill="#63b8ff" stroke="#63b8ff" points="505.54,-693.04 516.12,-692.5 507.51,-686.33 505.54,-693.04"/>
</a>
</g>
</g>
<!-- Node101 -->
<g id="Node000101" class="node">
<title>Node101</title>
<g id="a_Node000101"><a xlink:href="kest__preset__view_8c.html#abb59263b8c83df0ea6a555309660f0d1" target="_top" xlink:title=" ">
<polygon fill="#fff0f0" stroke="red" points="620.88,-675.12 495.38,-675.12 495.38,-654.38 620.88,-654.38 620.88,-675.12"/>
<text xml:space="preserve" text-anchor="middle" x="558.12" y="-661.62" font-family="Helvetica,sans-Serif" font-size="10.00">create_preset_view_ui</text>
</a>
</g>
</g>
<!-- Node100&#45;&gt;Node101 -->
<g id="edge22_Node000100_Node000101" class="edge">
<title>Node100&#45;&gt;Node101</title>
<g id="a_edge22_Node000100_Node000101"><a xlink:title=" ">
<path fill="none" stroke="#63b8ff" d="M431.4,-650.94C447.56,-652.72 466.04,-654.75 483.77,-656.69"/>
<polygon fill="#63b8ff" stroke="#63b8ff" points="483.15,-660.15 493.47,-657.76 483.91,-653.19 483.15,-660.15"/>
</a>
</g>
</g>
<!-- Node116 -->
<g id="Node000116" class="node">
<title>Node116</title>
<g id="a_Node000116"><a xlink:href="kest__preset__view_8c.html#a2e535477b53487a9f812010a9ef4679e" target="_top" xlink:title=" ">
<polygon fill="white" stroke="#666666" points="611.12,-560.12 505.12,-560.12 505.12,-539.38 611.12,-539.38 611.12,-560.12"/>
<text xml:space="preserve" text-anchor="middle" x="558.12" y="-546.62" font-family="Helvetica,sans-Serif" font-size="10.00">enter_preset_view</text>
</a>
</g>
</g>
<!-- Node100&#45;&gt;Node116 -->
<g id="edge24_Node000100_Node000116" class="edge">
<title>Node100&#45;&gt;Node116</title>
<g id="a_edge24_Node000100_Node000116"><a xlink:title=" ">
<path fill="none" stroke="#63b8ff" d="M395.62,-635.12C413.81,-618.84 450.92,-587.73 487.5,-569.75 491.51,-567.78 495.75,-565.97 500.08,-564.31"/>
<polygon fill="#63b8ff" stroke="#63b8ff" points="501.23,-567.62 509.51,-561.01 498.91,-561.01 501.23,-567.62"/>
</a>
</g>
</g>
<!-- Node117 -->
<g id="Node000117" class="node">
<title>Node117</title>
<g id="a_Node000117"><a xlink:href="kest__preset__settings_8c.html#af8a7e7dad2d6e91426bed7a0ec9f4cd4" target="_top" xlink:title=" ">
<polygon fill="#fff0f0" stroke="red" points="628.75,-599.12 487.5,-599.12 487.5,-578.38 628.75,-578.38 628.75,-599.12"/>
<text xml:space="preserve" text-anchor="middle" x="558.12" y="-585.62" font-family="Helvetica,sans-Serif" font-size="10.00">init_preset_settings_page</text>
</a>
</g>
</g>
<!-- Node100&#45;&gt;Node117 -->
<g id="edge26_Node000100_Node000117" class="edge">
<title>Node100&#45;&gt;Node117</title>
<g id="a_edge26_Node000100_Node000117"><a xlink:title=" ">
<path fill="none" stroke="#63b8ff" d="M417.07,-634.89C444.49,-625.86 483.74,-612.93 513.72,-603.05"/>
<polygon fill="#63b8ff" stroke="#63b8ff" points="514.46,-606.49 522.86,-600.04 512.27,-599.84 514.46,-606.49"/>
</a>
</g>
</g>
<!-- Node100&#45;&gt;Node155 -->
<g id="edge29_Node000100_Node000155" class="edge">
<title>Node100&#45;&gt;Node155</title>
<g id="a_edge29_Node000100_Node000155"><a xlink:title=" ">
<path fill="none" stroke="#63b8ff" d="M389.88,-635.04C403.31,-611.27 439.28,-554.37 487.5,-530.75 556.01,-497.19 646.83,-499.35 701.63,-504.9"/>
<polygon fill="#63b8ff" stroke="#63b8ff" points="700.94,-508.34 711.26,-505.95 701.7,-501.38 700.94,-508.34"/>
</a>
</g>
</g>
<!-- Node101&#45;&gt;Node61 -->
<g id="edge23_Node000101_Node000061" class="edge">
<title>Node101&#45;&gt;Node61</title>
<g id="a_edge23_Node000101_Node000061"><a xlink:title=" ">
<path fill="none" stroke="#63b8ff" d="M615.03,-653.9C636.27,-649.78 660.68,-645.04 682.83,-640.74"/>
<polygon fill="#63b8ff" stroke="#63b8ff" points="683.21,-644.23 692.36,-638.89 681.88,-637.36 683.21,-644.23"/>
</a>
</g>
</g>
<!-- Node117&#45;&gt;Node4 -->
<g id="edge27_Node000117_Node000004" class="edge">
<title>Node117&#45;&gt;Node4</title>
<g id="a_edge27_Node000117_Node000004"><a xlink:title=" ">
<path fill="none" stroke="#63b8ff" d="M629.02,-588.75C636.9,-588.75 645.02,-588.75 653.15,-588.75"/>
<polygon fill="#63b8ff" stroke="#63b8ff" points="653.12,-592.25 663.12,-588.75 653.12,-585.25 653.12,-592.25"/>
</a>
</g>
</g>
<!-- Node117&#45;&gt;Node155 -->
<g id="edge28_Node000117_Node000155" class="edge">
<title>Node117&#45;&gt;Node155</title>
<g id="a_edge28_Node000117_Node000155"><a xlink:title=" ">
<path fill="none" stroke="#63b8ff" d="M607.44,-577.93C614.8,-575.42 622.14,-572.39 628.75,-568.75 647.5,-558.43 646.03,-547.13 664.75,-536.75 676.19,-530.4 689.42,-525.51 701.98,-521.81"/>
<polygon fill="#63b8ff" stroke="#63b8ff" points="702.6,-525.27 711.32,-519.26 700.75,-518.52 702.6,-525.27"/>
</a>
</g>
</g>
<!-- Node243 -->
<g id="Node000243" class="node">
<title>Node243</title>
<g id="a_Node000243"><a xlink:href="kest__preset_8c.html#a5f4b58a8868ab9b0bc2340f1bb089ffb" target="_top" xlink:title=" ">
<polygon fill="#fff0f0" stroke="red" points="417,-370.12 349.25,-370.12 349.25,-349.38 417,-349.38 417,-370.12"/>
<text xml:space="preserve" text-anchor="middle" x="383.12" y="-356.62" font-family="Helvetica,sans-Serif" font-size="10.00">gut_preset</text>
</a>
</g>
</g>
<!-- Node242&#45;&gt;Node243 -->
<g id="edge34_Node000242_Node000243" class="edge">
<title>Node242&#45;&gt;Node243</title>
<g id="a_edge34_Node000242_Node000243"><a xlink:title=" ">
<path fill="none" stroke="#63b8ff" d="M249.84,-336.04C275.34,-340.61 310.05,-346.83 337.51,-351.75"/>
<polygon fill="#63b8ff" stroke="#63b8ff" points="336.84,-355.19 347.3,-353.51 338.08,-348.3 336.84,-355.19"/>
</a>
</g>
</g>
<!-- Node204 -->
<g id="Node000204" class="node">
<title>Node204</title>
<g id="a_Node000204"><a xlink:href="kest__alloc_8c.html#ac70a0464d391cefa33eb0f6d746ff7aa" target="_top" xlink:title=" ">
<polygon fill="#fff0f0" stroke="red" points="437.62,-331.12 328.62,-331.12 328.62,-310.38 437.62,-310.38 437.62,-331.12"/>
<text xml:space="preserve" text-anchor="middle" x="383.12" y="-317.62" font-family="Helvetica,sans-Serif" font-size="10.00">kest_allocator_free</text>
</a>
</g>
</g>
<!-- Node242&#45;&gt;Node204 -->
<g id="edge35_Node000242_Node000204" class="edge">
<title>Node242&#45;&gt;Node204</title>
<g id="a_edge35_Node000242_Node000204"><a xlink:title=" ">
<path fill="none" stroke="#63b8ff" d="M249.84,-327.86C269.27,-326.82 294.06,-325.49 316.91,-324.26"/>
<polygon fill="#63b8ff" stroke="#63b8ff" points="316.98,-327.76 326.78,-323.73 316.61,-320.77 316.98,-327.76"/>
</a>
</g>
</g>
<!-- Node246 -->
<g id="Node000246" class="node">
<title>Node246</title>
<g id="a_Node000246"><a xlink:href="kest__pipeline_8c.html#a5854d23849b879b4c5632bd23cac4ada" target="_top" xlink:title=" ">
<polygon fill="white" stroke="#666666" points="428.62,-292.12 337.62,-292.12 337.62,-271.38 428.62,-271.38 428.62,-292.12"/>
<text xml:space="preserve" text-anchor="middle" x="383.12" y="-278.62" font-family="Helvetica,sans-Serif" font-size="10.00">init_m_pipeline</text>
</a>
</g>
</g>
<!-- Node245&#45;&gt;Node246 -->
<g id="edge37_Node000245_Node000246" class="edge">
<title>Node245&#45;&gt;Node246</title>
<g id="a_edge37_Node000245_Node000246"><a xlink:title=" ">
<path fill="none" stroke="#63b8ff" d="M255.27,-266.59C276.45,-269.12 302.73,-272.26 325.86,-275.03"/>
<polygon fill="#63b8ff" stroke="#63b8ff" points="325.42,-278.5 335.77,-276.21 326.25,-271.55 325.42,-278.5"/>
</a>
</g>
</g>
<!-- Node247 -->
<g id="Node000247" class="node">
<title>Node247</title>
<g id="a_Node000247"><a xlink:href="kest__parameter_8c.html#a2b94ddb1588d1a5af4311970bb068122" target="_top" xlink:title=" ">
<polygon fill="#fff0f0" stroke="red" points="427.12,-253.12 339.12,-253.12 339.12,-232.38 427.12,-232.38 427.12,-253.12"/>
<text xml:space="preserve" text-anchor="middle" x="383.12" y="-239.62" font-family="Helvetica,sans-Serif" font-size="10.00">init_parameter</text>
</a>
</g>
</g>
<!-- Node245&#45;&gt;Node247 -->
<g id="edge38_Node000245_Node000247" class="edge">
<title>Node245&#45;&gt;Node247</title>
<g id="a_edge38_Node000245_Node000247"><a xlink:title=" ">
<path fill="none" stroke="#63b8ff" d="M255.27,-257.15C276.97,-254.69 304,-251.62 327.53,-248.95"/>
<polygon fill="#63b8ff" stroke="#63b8ff" points="327.71,-252.45 337.26,-247.84 326.92,-245.49 327.71,-252.45"/>
</a>
</g>
</g>
<!-- Node252 -->
<g id="Node000252" class="node">
<title>Node252</title>
<g id="a_Node000252"><a xlink:href="kest__preset_8c.html#adafdde421c8a45460a73610143e238ec" target="_top" xlink:title=" ">
<polygon fill="#fff0f0" stroke="red" points="440.25,-214.5 326,-214.5 326,-181 440.25,-181 440.25,-214.5"/>
<text xml:space="preserve" text-anchor="start" x="334" y="-201" font-family="Helvetica,sans-Serif" font-size="10.00">kest_preset_file_rep</text>
<text xml:space="preserve" text-anchor="middle" x="383.12" y="-188.25" font-family="Helvetica,sans-Serif" font-size="10.00">_update</text>
</a>
</g>
</g>
<!-- Node245&#45;&gt;Node252 -->
<g id="edge39_Node000245_Node000252" class="edge">
<title>Node245&#45;&gt;Node252</title>
<g id="a_edge39_Node000245_Node000252"><a xlink:title=" ">
<path fill="none" stroke="#63b8ff" d="M243.14,-250.89C265.97,-242.17 298.73,-229.64 326.71,-218.94"/>
<polygon fill="#63b8ff" stroke="#63b8ff" points="327.66,-222.32 335.75,-215.48 325.16,-215.78 327.66,-222.32"/>
</a>
</g>
</g>
<!-- Node257&#45;&gt;Node6 -->
<g id="edge41_Node000257_Node000006" class="edge">
<title>Node257&#45;&gt;Node6</title>
<g id="a_edge41_Node000257_Node000006"><a xlink:title=" ">
<path fill="none" stroke="#63b8ff" d="M614.99,-438.95C673.03,-444.11 765.21,-457.6 836.75,-492.75 856.11,-502.26 874.41,-518.67 887.04,-531.62"/>
<polygon fill="#63b8ff" stroke="#63b8ff" points="884.38,-533.9 893.78,-538.79 889.49,-529.11 884.38,-533.9"/>
</a>
</g>
</g>
<!-- Node259 -->
<g id="Node000259" class="node">
<title>Node259</title>
<g id="a_Node000259"><a xlink:href="kest__pipeline_8c.html#a565571872d9745fa48ef16c6b00d13fb" target="_top" xlink:title=" ">
<polygon fill="#fff0f0" stroke="red" points="451.5,-163.12 314.75,-163.12 314.75,-142.38 451.5,-142.38 451.5,-163.12"/>
<text xml:space="preserve" text-anchor="middle" x="383.12" y="-149.62" font-family="Helvetica,sans-Serif" font-size="10.00">kest_pipeline_rectify_ids</text>
</a>
</g>
</g>
<!-- Node258&#45;&gt;Node259 -->
<g id="edge43_Node000258_Node000259" class="edge">
<title>Node258&#45;&gt;Node259</title>
<g id="a_edge43_Node000258_Node000259"><a xlink:title=" ">
<path fill="none" stroke="#63b8ff" d="M254.84,-186.97C277.65,-180.84 306.46,-173.09 330.9,-166.52"/>
<polygon fill="#63b8ff" stroke="#63b8ff" points="331.57,-169.97 340.32,-163.99 329.75,-163.21 331.57,-169.97"/>
</a>
</g>
</g>
<!-- Node261&#45;&gt;Node6 -->
<g id="edge45_Node000261_Node000006" class="edge">
<title>Node261&#45;&gt;Node6</title>
<g id="a_edge45_Node000261_Node000006"><a xlink:title=" ">
<path fill="none" stroke="#63b8ff" d="M274.19,-381.73C420.57,-389.5 789.96,-411.86 836.75,-441.75 868.8,-462.22 888.09,-503.95 897.37,-529.42"/>
<polygon fill="#63b8ff" stroke="#63b8ff" points="894,-530.39 900.54,-538.72 900.62,-528.12 894,-530.39"/>
</a>
</g>
</g>
<!-- Node254 -->
<g id="Node000254" class="node">
<title>Node254</title>
<g id="a_Node000254"><a xlink:href="kest__files_8c.html#ab79d861306c25eab9284239e73d0cc07" target="_top" xlink:title=" ">
<polygon fill="white" stroke="#666666" points="439.12,-124.12 327.12,-124.12 327.12,-103.38 439.12,-103.38 439.12,-124.12"/>
<text xml:space="preserve" text-anchor="middle" x="383.12" y="-110.62" font-family="Helvetica,sans-Serif" font-size="10.00">dump_file_contents</text>
</a>
</g>
</g>
<!-- Node262&#45;&gt;Node254 -->
<g id="edge47_Node000262_Node000254" class="edge">
<title>Node262&#45;&gt;Node254</title>
<g id="a_edge47_Node000262_Node000254"><a xlink:title=" ">
<path fill="none" stroke="#63b8ff" d="M275.65,-99.75C288.59,-101.46 302.32,-103.26 315.46,-104.99"/>
<polygon fill="#63b8ff" stroke="#63b8ff" points="314.95,-108.45 325.32,-106.28 315.87,-101.51 314.95,-108.45"/>
</a>
</g>
</g>
<!-- Node263 -->
<g id="Node000263" class="node">
<title>Node263</title>
<g id="a_Node000263"><a xlink:href="kest__context_8c.html#a6e14c685fa54daae3472e4fdb9603e4e" target="_top" xlink:title=" ">
<polygon fill="white" stroke="#666666" points="438.75,-85.5 327.5,-85.5 327.5,-52 438.75,-52 438.75,-85.5"/>
<text xml:space="preserve" text-anchor="start" x="335.5" y="-72" font-family="Helvetica,sans-Serif" font-size="10.00">kest_cxt_get_effect</text>
<text xml:space="preserve" text-anchor="middle" x="383.12" y="-59.25" font-family="Helvetica,sans-Serif" font-size="10.00">_desc_from_cname</text>
</a>
</g>
</g>
<!-- Node262&#45;&gt;Node263 -->
<g id="edge48_Node000262_Node000263" class="edge">
<title>Node262&#45;&gt;Node263</title>
<g id="a_edge48_Node000262_Node000263"><a xlink:title=" ">
<path fill="none" stroke="#63b8ff" d="M275.65,-83.38C288.79,-81.58 302.75,-79.66 316.08,-77.83"/>
<polygon fill="#63b8ff" stroke="#63b8ff" points="316.17,-81.35 325.6,-76.52 315.22,-74.41 316.17,-81.35"/>
</a>
</g>
</g>
<!-- Node264 -->
<g id="Node000264" class="node">
<title>Node264</title>
<g id="a_Node000264"><a xlink:href="kest__preset_8c.html#a9a85dd1d443d85fb9a7b91bd439ba450" target="_top" xlink:title=" ">
<polygon fill="#fff0f0" stroke="red" points="439.88,-33.5 326.38,-33.5 326.38,0 439.88,0 439.88,-33.5"/>
<text xml:space="preserve" text-anchor="start" x="334.38" y="-20" font-family="Helvetica,sans-Serif" font-size="10.00">kest_preset_append</text>
<text xml:space="preserve" text-anchor="middle" x="383.12" y="-7.25" font-family="Helvetica,sans-Serif" font-size="10.00">_effect_eff</text>
</a>
</g>
</g>
<!-- Node262&#45;&gt;Node264 -->
<g id="edge49_Node000262_Node000264" class="edge">
<title>Node262&#45;&gt;Node264</title>
<g id="a_edge49_Node000262_Node000264"><a xlink:title=" ">
<path fill="none" stroke="#63b8ff" d="M235.57,-80.89C255.63,-70.58 286.94,-54.9 314.75,-42.75 318.25,-41.22 321.86,-39.69 325.52,-38.18"/>
<polygon fill="#63b8ff" stroke="#63b8ff" points="326.52,-41.55 334.48,-34.55 323.89,-35.06 326.52,-41.55"/>
</a>
</g>
</g>
</g>
</svg>

<g id="navigator" transform="translate(0 0)" fill="#404254">
  <rect fill="#f2f5e9" fill-opacity="0.5" stroke="#606060" stroke-width=".5" x="0" y="0" width="60" height="60"/>
  <use id="zoomplus" xlink:href="#zoomPlus" x="17" y="9" onmousedown="handleZoom(evt,'in')"/>
  <use id="zoomminus" xlink:href="#zoomMin" x="42" y="9" onmousedown="handleZoom(evt,'out')"/>
  <use id="reset" xlink:href="#resetDef" x="30" y="36" onmousedown="handleReset()"/>
   <use id="arrowup" xlink:href="#arrowUp" x="0" y="0" onmousedown="handlePan(0,-1)"/>
  <use id="arrowright" xlink:href="#arrowRight" x="0" y="0" onmousedown="handlePan(1,0)"/>
  <use id="arrowdown" xlink:href="#arrowDown" x="0" y="0" onmousedown="handlePan(0,1)"/>
  <use id="arrowleft" xlink:href="#arrowLeft" x="0" y="0" onmousedown="handlePan(-1,0)"/>
</g>
<svg viewBox="0 0 15 15" width="100%" height="30px" preserveAspectRatio="xMaxYMin meet">
 <g id="arrow_out" transform="scale(0.3 0.3)">
  <a xlink:href="kest__files_8c_a94b6bb72bca4b3c7f8f01ba6fa4f8200_cgraph_org.svg" target="_base">
   <rect id="button" ry="5" rx="5" y="6" x="6" height="38" width="38"
        fill="#f2f5e9" fill-opacity="0.5" stroke="#606060" stroke-width="1.0"/>
   <path id="arrow"
     d="M 11.500037,31.436501 C 11.940474,20.09759 22.043105,11.32322 32.158766,21.979434 L 37.068811,17.246167 C 37.068811,17.246167 37.088388,32 37.088388,32 L 22.160133,31.978069 C 22.160133,31.978069 26.997745,27.140456 26.997745,27.140456 C 18.528582,18.264221 13.291696,25.230495 11.500037,31.436501 z"
     style="fill:#404040;"/>
  </a>
 </g>
</svg>

<style type='text/css'>
<![CDATA[
[data-mouse-over-selected='false'] { opacity: 0.7; }
[data-mouse-over-selected='true']  { opacity: 1.0; }
]]>
</style>
<script type="application/ecmascript"><![CDATA[
document.addEventListener('DOMContentLoaded', (event) => {
  highlightEdges();
  highlightAdjacentNodes();
});
]]></script>
</svg>
