<?xml version="1.0" encoding="UTF-8" standalone="no"?>
<!DOCTYPE svg PUBLIC "-//W3C//DTD SVG 1.1//EN"
 "http://www.w3.org/Graphics/SVG/1.1/DTD/svg11.dtd">
<!-- Generated by graphviz version 13.1.2 (20250808.2320)
 -->
<!-- Title: kest_eff_entry_dict_insert Pages: 1 -->
<svg width="599pt" height="74pt"
 viewBox="0.00 0.00 599.00 74.00" xmlns="http://www.w3.org/2000/svg" xmlns:xlink="http://www.w3.org/1999/xlink">
<g id="graph0" class="graph" transform="scale(1 1) rotate(0) translate(4 70.12)">
<title>kest_eff_entry_dict_insert</title>
<!-- Node1 -->
<g id="Node000001" class="node">
<title>Node1</title>
<g id="a_Node000001"><a xlink:title=" ">
<polygon fill="#999999" stroke="#666666" points="590.5,-66.12 481.5,-66.12 481.5,-32.62 590.5,-32.62 590.5,-66.12"/>
<text xml:space="preserve" text-anchor="start" x="489.5" y="-52.62" font-family="Helvetica,sans-Serif" font-size="10.00">kest_eff_entry_dict</text>
<text xml:space="preserve" text-anchor="middle" x="536" y="-39.88" font-family="Helvetica,sans-Serif" font-size="10.00">_insert</text>
</a>
</g>
</g>
<!-- Node2 -->
<g id="Node000002" class="node">
<title>Node2</title>
<g id="a_Node000002"><a xlink:href="kest__dictionary_8c.html#ad65da740536ab47c17ff688051be0661" target="_top" xlink:title=" ">
<polygon fill="white" stroke="#666666" points="445.5,-59.75 319.25,-59.75 319.25,-39 445.5,-39 445.5,-59.75"/>
<text xml:space="preserve" text-anchor="middle" x="382.38" y="-46.25" font-family="Helvetica,sans-Serif" font-size="10.00">kest_parse_eff_entries</text>
</a>
</g>
</g>
<!-- Node1&#45;&gt;Node2 -->
<g id="edge1_Node000001_Node000002" class="edge">
<title>Node1&#45;&gt;Node2</title>
<g id="a_edge1_Node000001_Node000002"><a xlink:title=" ">
<path fill="none" stroke="#63b8ff" d="M469.69,-49.38C461.8,-49.38 453.74,-49.38 445.88,-49.38"/>
<polygon fill="#63b8ff" stroke="#63b8ff" points="469.6,-52.88 479.6,-49.38 469.6,-45.88 469.6,-52.88"/>
</a>
</g>
</g>
<!-- Node3 -->
<g id="Node000003" class="node">
<title>Node3</title>
<g id="a_Node000003"><a xlink:href="kest__dictionary_8c.html#a14917e2fe112ccf5a9d740cd2ce4f518" target="_top" xlink:title=" ">
<polygon fill="white" stroke="#666666" points="272.38,-59.75 154.38,-59.75 154.38,-39 272.38,-39 272.38,-59.75"/>
<text xml:space="preserve" text-anchor="middle" x="213.38" y="-46.25" font-family="Helvetica,sans-Serif" font-size="10.00">kest_parse_eff_entry</text>
</a>
</g>
</g>
<!-- Node2&#45;&gt;Node3 -->
<g id="edge2_Node000002_Node000003" class="edge">
<title>Node2&#45;&gt;Node3</title>
<g id="a_edge2_Node000002_Node000003"><a xlink:title=" ">
<path fill="none" stroke="#63b8ff" d="M307.99,-42.67C296.2,-42.57 284.12,-42.64 272.74,-42.9"/>
<polygon fill="#63b8ff" stroke="#63b8ff" points="307.63,-46.16 317.68,-42.8 307.73,-39.17 307.63,-46.16"/>
</a>
</g>
</g>
<!-- Node5 -->
<g id="Node000005" class="node">
<title>Node5</title>
<g id="a_Node000005"><a xlink:href="kest__eff__section_8c.html#ad4021e5516f9b19f0af658e1c5ee351f" target="_top" xlink:title=" ">
<polygon fill="white" stroke="#666666" points="283.25,-20.75 143.5,-20.75 143.5,0 283.25,0 283.25,-20.75"/>
<text xml:space="preserve" text-anchor="middle" x="213.38" y="-7.25" font-family="Helvetica,sans-Serif" font-size="10.00">kest_parse_entry_section</text>
</a>
</g>
</g>
<!-- Node2&#45;&gt;Node5 -->
<g id="edge6_Node000002_Node000005" class="edge">
<title>Node2&#45;&gt;Node5</title>
<g id="a_edge6_Node000002_Node000005"><a xlink:title=" ">
<path fill="none" stroke="#63b8ff" d="M323.73,-35.91C303.22,-31.12 280.4,-25.79 260.93,-21.25"/>
<polygon fill="#63b8ff" stroke="#63b8ff" points="322.85,-39.3 333.38,-38.17 324.44,-32.48 322.85,-39.3"/>
</a>
</g>
</g>
<!-- Node3&#45;&gt;Node2 -->
<g id="edge3_Node000003_Node000002" class="edge">
<title>Node3&#45;&gt;Node2</title>
<g id="a_edge3_Node000003_Node000002"><a xlink:title=" ">
<path fill="none" stroke="#63b8ff" d="M284.2,-56.04C295.81,-56.18 307.78,-56.14 319.19,-55.93"/>
<polygon fill="#63b8ff" stroke="#63b8ff" points="284.31,-52.55 274.25,-55.87 284.19,-59.54 284.31,-52.55"/>
</a>
</g>
</g>
<!-- Node4 -->
<g id="Node000004" class="node">
<title>Node4</title>
<g id="a_Node000004"><a xlink:href="kest__dictionary_8c.html#adbdc0847f0c5b25d81691833ad42a8f0" target="_top" xlink:title=" ">
<polygon fill="white" stroke="#666666" points="107.5,-59.75 0,-59.75 0,-39 107.5,-39 107.5,-59.75"/>
<text xml:space="preserve" text-anchor="middle" x="53.75" y="-46.25" font-family="Helvetica,sans-Serif" font-size="10.00">kest_parse_eff_list</text>
</a>
</g>
</g>
<!-- Node3&#45;&gt;Node4 -->
<g id="edge4_Node000003_Node000004" class="edge">
<title>Node3&#45;&gt;Node4</title>
<g id="a_edge4_Node000003_Node000004"><a xlink:title=" ">
<path fill="none" stroke="#63b8ff" d="M142.95,-42.67C131.16,-42.56 119.09,-42.66 107.8,-42.96"/>
<polygon fill="#63b8ff" stroke="#63b8ff" points="142.56,-46.16 152.62,-42.81 142.67,-39.16 142.56,-46.16"/>
</a>
</g>
</g>
<!-- Node4&#45;&gt;Node3 -->
<g id="edge5_Node000004_Node000003" class="edge">
<title>Node4&#45;&gt;Node3</title>
<g id="a_edge5_Node000004_Node000003"><a xlink:title=" ">
<path fill="none" stroke="#63b8ff" d="M119.19,-56.02C130.76,-56.19 142.75,-56.15 154.13,-55.92"/>
<polygon fill="#63b8ff" stroke="#63b8ff" points="119.39,-52.53 109.32,-55.82 119.25,-59.53 119.39,-52.53"/>
</a>
</g>
</g>
<!-- Node6 -->
<g id="Node000006" class="node">
<title>Node6</title>
<g id="a_Node000006"><a xlink:href="kest__eff__parser_8c.html#a73ef6962d1925857ec3e4b12d1aad834" target="_top" xlink:title=" ">
<polygon fill="#fff0f0" stroke="red" points="106.75,-20.75 0.75,-20.75 0.75,0 106.75,0 106.75,-20.75"/>
<text xml:space="preserve" text-anchor="middle" x="53.75" y="-7.25" font-family="Helvetica,sans-Serif" font-size="10.00">kest_parse_tokens</text>
</a>
</g>
</g>
<!-- Node5&#45;&gt;Node6 -->
<g id="edge7_Node000005_Node000006" class="edge">
<title>Node5&#45;&gt;Node6</title>
<g id="a_edge7_Node000005_Node000006"><a xlink:title=" ">
<path fill="none" stroke="#63b8ff" d="M131.86,-10.38C123.5,-10.38 115.17,-10.38 107.24,-10.38"/>
<polygon fill="#63b8ff" stroke="#63b8ff" points="131.72,-13.88 141.72,-10.38 131.72,-6.88 131.72,-13.88"/>
</a>
</g>
</g>
</g>
</svg>
