<?xml version="1.0" encoding="UTF-8" standalone="no"?>
<!DOCTYPE svg PUBLIC "-//W3C//DTD SVG 1.1//EN"
 "http://www.w3.org/Graphics/SVG/1.1/DTD/svg11.dtd">
<!-- Generated by graphviz version 13.1.2 (20250808.2320)
 -->
<!-- Title: menu_page_add_item Pages: 1 -->
<svg width="763pt" height="80pt"
 viewBox="0.00 0.00 763.00 80.00" xmlns="http://www.w3.org/2000/svg" xmlns:xlink="http://www.w3.org/1999/xlink">
<g id="graph0" class="graph" transform="scale(1 1) rotate(0) translate(4 76.12)">
<title>menu_page_add_item</title>
<!-- Node1 -->
<g id="Node000001" class="node">
<title>Node1</title>
<g id="a_Node000001"><a xlink:title=" ">
<polygon fill="#999999" stroke="#666666" points="755,-49.12 631,-49.12 631,-28.38 755,-28.38 755,-49.12"/>
<text xml:space="preserve" text-anchor="middle" x="693" y="-35.62" font-family="Helvetica,sans-Serif" font-size="10.00">menu_page_add_item</text>
</a>
</g>
</g>
<!-- Node2 -->
<g id="Node000002" class="node">
<title>Node2</title>
<g id="a_Node000002"><a xlink:href="kest__sequence__list_8c.html#ae60870bb862edfc5b0a45344c20b152f" target="_top" xlink:title=" ">
<polygon fill="white" stroke="#666666" points="436.5,-49.12 302.75,-49.12 302.75,-28.38 436.5,-28.38 436.5,-49.12"/>
<text xml:space="preserve" text-anchor="middle" x="369.62" y="-35.62" font-family="Helvetica,sans-Serif" font-size="10.00">configure_sequence_list</text>
</a>
</g>
</g>
<!-- Node1&#45;&gt;Node2 -->
<g id="edge1_Node000001_Node000002" class="edge">
<title>Node1&#45;&gt;Node2</title>
<g id="a_edge1_Node000001_Node000002"><a xlink:title=" ">
<path fill="none" stroke="#63b8ff" d="M619.42,-38.75C564.62,-38.75 490.04,-38.75 436.86,-38.75"/>
<polygon fill="#63b8ff" stroke="#63b8ff" points="619.28,-42.25 629.28,-38.75 619.28,-35.25 619.28,-42.25"/>
</a>
</g>
</g>
<!-- Node27 -->
<g id="Node000027" class="node">
<title>Node27</title>
<g id="a_Node000027"><a xlink:href="kest__sequence__list_8c.html#ac9d222d7405758d9f4edfeabe4c6200e" target="_top" xlink:title=" ">
<polygon fill="white" stroke="#666666" points="595,-30.12 472.5,-30.12 472.5,-9.38 595,-9.38 595,-30.12"/>
<text xml:space="preserve" text-anchor="middle" x="533.75" y="-16.62" font-family="Helvetica,sans-Serif" font-size="10.00">sequence_list_add_cb</text>
</a>
</g>
</g>
<!-- Node1&#45;&gt;Node27 -->
<g id="edge6_Node000001_Node000027" class="edge">
<title>Node1&#45;&gt;Node27</title>
<g id="a_edge6_Node000001_Node000027"><a xlink:title=" ">
<path fill="none" stroke="#63b8ff" d="M619.44,-29.98C611.37,-29.01 603.21,-28.02 595.31,-27.07"/>
<polygon fill="#63b8ff" stroke="#63b8ff" points="618.9,-33.44 629.25,-31.17 619.74,-26.49 618.9,-33.44"/>
</a>
</g>
</g>
<!-- Node3 -->
<g id="Node000003" class="node">
<title>Node3</title>
<g id="a_Node000003"><a xlink:href="kest__sequence__list_8c.html#a0e869118af43741e3d4db628d5c414fe" target="_top" xlink:title=" ">
<polygon fill="white" stroke="#666666" points="266.75,-70.12 163,-70.12 163,-49.38 266.75,-49.38 266.75,-70.12"/>
<text xml:space="preserve" text-anchor="middle" x="214.88" y="-56.62" font-family="Helvetica,sans-Serif" font-size="10.00">init_sequence_list</text>
</a>
</g>
</g>
<!-- Node2&#45;&gt;Node3 -->
<g id="edge2_Node000002_Node000003" class="edge">
<title>Node2&#45;&gt;Node3</title>
<g id="a_edge2_Node000002_Node000003"><a xlink:title=" ">
<path fill="none" stroke="#63b8ff" d="M291.26,-49.39C282.99,-50.52 274.74,-51.66 266.89,-52.74"/>
<polygon fill="#63b8ff" stroke="#63b8ff" points="291.59,-52.87 301.02,-48.04 290.63,-45.94 291.59,-52.87"/>
</a>
</g>
</g>
<!-- Node24 -->
<g id="Node000024" class="node">
<title>Node24</title>
<g id="a_Node000024"><a xlink:href="kest__ui_8c.html#ac4b49754b0a8d3df4343e742d6899872" target="_top" xlink:title=" ">
<polygon fill="white" stroke="#666666" points="258.12,-30.12 171.62,-30.12 171.62,-9.38 258.12,-9.38 258.12,-30.12"/>
<text xml:space="preserve" text-anchor="middle" x="214.88" y="-16.62" font-family="Helvetica,sans-Serif" font-size="10.00">kest_create_ui</text>
</a>
</g>
</g>
<!-- Node2&#45;&gt;Node24 -->
<g id="edge4_Node000002_Node000024" class="edge">
<title>Node2&#45;&gt;Node24</title>
<g id="a_edge4_Node000002_Node000024"><a xlink:title=" ">
<path fill="none" stroke="#63b8ff" d="M291.2,-29.12C279.86,-27.71 268.56,-26.3 258.28,-25.02"/>
<polygon fill="#63b8ff" stroke="#63b8ff" points="290.66,-32.58 301.01,-30.34 291.52,-25.63 290.66,-32.58"/>
</a>
</g>
</g>
<!-- Node4 -->
<g id="Node000004" class="node">
<title>Node4</title>
<g id="a_Node000004"><a xlink:href="kest__ui_8c.html#ab1be7d2981c922ebe8d714f9af0f600d" target="_top" xlink:title=" ">
<polygon fill="#fff0f0" stroke="red" points="127,-72.12 0,-72.12 0,-51.38 127,-51.38 127,-72.12"/>
<text xml:space="preserve" text-anchor="middle" x="63.5" y="-58.62" font-family="Helvetica,sans-Serif" font-size="10.00">kest_init_global_pages</text>
</a>
</g>
</g>
<!-- Node3&#45;&gt;Node4 -->
<g id="edge3_Node000003_Node000004" class="edge">
<title>Node3&#45;&gt;Node4</title>
<g id="a_edge3_Node000003_Node000004"><a xlink:title=" ">
<path fill="none" stroke="#63b8ff" d="M151.43,-60.59C143.49,-60.69 135.36,-60.8 127.41,-60.91"/>
<polygon fill="#63b8ff" stroke="#63b8ff" points="151.42,-64.09 161.37,-60.45 151.33,-57.09 151.42,-64.09"/>
</a>
</g>
</g>
<!-- Node25 -->
<g id="Node000025" class="node">
<title>Node25</title>
<g id="a_Node000025"><a xlink:href="kest__ui_8c.html#a09df56def87ef95102e4d8633df68a55" target="_top" xlink:title=" ">
<polygon fill="#fff0f0" stroke="red" points="123.62,-33.5 3.38,-33.5 3.38,0 123.62,0 123.62,-33.5"/>
<text xml:space="preserve" text-anchor="start" x="11.38" y="-20" font-family="Helvetica,sans-Serif" font-size="10.00">kest_create_ui_async</text>
<text xml:space="preserve" text-anchor="middle" x="63.5" y="-7.25" font-family="Helvetica,sans-Serif" font-size="10.00">_wrapper</text>
</a>
</g>
</g>
<!-- Node24&#45;&gt;Node25 -->
<g id="edge5_Node000024_Node000025" class="edge">
<title>Node24&#45;&gt;Node25</title>
<g id="a_edge5_Node000024_Node000025"><a xlink:title=" ">
<path fill="none" stroke="#63b8ff" d="M160.07,-18.67C148.37,-18.43 135.92,-18.18 124.02,-17.95"/>
<polygon fill="#63b8ff" stroke="#63b8ff" points="159.89,-22.17 169.96,-18.87 160.03,-15.17 159.89,-22.17"/>
</a>
</g>
</g>
<!-- Node27&#45;&gt;Node2 -->
<g id="edge7_Node000027_Node000002" class="edge">
<title>Node27&#45;&gt;Node2</title>
<g id="a_edge7_Node000027_Node000002"><a xlink:title=" ">
<path fill="none" stroke="#63b8ff" d="M461.07,-28.15C452.98,-29.1 444.77,-30.06 436.76,-31"/>
<polygon fill="#63b8ff" stroke="#63b8ff" points="461.35,-31.64 470.88,-27 460.54,-24.69 461.35,-31.64"/>
</a>
</g>
</g>
</g>
</svg>
