<?xml version="1.0" encoding="UTF-8" standalone="no"?>
<!DOCTYPE svg PUBLIC "-//W3C//DTD SVG 1.1//EN"
 "http://www.w3.org/Graphics/SVG/1.1/DTD/svg11.dtd">
<!-- Generated by graphviz version 13.1.2 (20250808.2320)
 -->
<!-- Title: kest_string_drain Pages: 1 -->
<!--zoomable 450 -->

<svg id="main" version="1.1" xmlns="http://www.w3.org/2000/svg" xmlns:xlink="http://www.w3.org/1999/xlink" xml:space="preserve" onload="init(evt)">

<style type="text/css"><![CDATA[
.node, .edge {opacity: 0.7;}
.node.selected, .edge.selected {opacity: 1;}
.edge:hover path { stroke: red; }
.edge:hover polygon { stroke: red; fill: red; }
]]></style>

<defs>
  <circle id="rim" cx="0" cy="0" r="7"/>
  <circle id="rim2" cx="0" cy="0" r="3.5"/>
  <g id="zoomPlus">
    <use xlink:href="#rim" fill="#404040"><set attributeName="fill" to="#808080" begin="zoomplus.mouseover" end="zoomplus.mouseout"/></use>
    <path d="M-4,0h8M0,-4v8" fill="none" stroke="white" stroke-width="1.5" pointer-events="none"/>
  </g>
  <g id="zoomMin">
    <use xlink:href="#rim" fill="#404040"><set attributeName="fill" to="#808080" begin="zoomminus.mouseover" end="zoomminus.mouseout"/></use>
    <path d="M-4,0h8" fill="none" stroke="white" stroke-width="1.5" pointer-events="none"/>
  </g>
  <g id="arrowUp" transform="translate(30 24)">
    <use xlink:href="#rim"/>
    <path pointer-events="none" fill="none" stroke="white" stroke-width="1.5" d="M0,-3.0v7 M-2.5,-0.5L0,-3.0L2.5,-0.5"/>
  </g>
  <g id="arrowRight" transform="rotate(90) translate(36 -43)">
    <use xlink:href="#rim"/>
    <path pointer-events="none" fill="none" stroke="white" stroke-width="1.5" d="M0,-3.0v7 M-2.5,-0.5L0,-3.0L2.5,-0.5"/>
  </g>
  <g id="arrowDown" transform="rotate(180) translate(-30 -48)">
    <use xlink:href="#rim"/>
    <path pointer-events="none" fill="none" stroke="white" stroke-width="1.5" d="M0,-3.0v7 M-2.5,-0.5L0,-3.0L2.5,-0.5"/>
  </g>
  <g id="arrowLeft" transform="rotate(270) translate(-36 17)">
    <use xlink:href="#rim"/>
    <path pointer-events="none" fill="none" stroke="white" stroke-width="1.5" d="M0,-3.0v7 M-2.5,-0.5L0,-3.0L2.5,-0.5"/>
  </g>
  <g id="resetDef">
    <use xlink:href="#rim2" fill="#404040"><set attributeName="fill" to="#808080" begin="reset.mouseover" end="reset.mouseout"/></use>
  </g>
</defs>
<script type="application/ecmascript">
var viewWidth = 822;
var viewHeight = 450;
var sectionId = 'dynsection-9';
</script>
<script type="application/ecmascript" xlink:href="svg.min.js"/>
<svg id="graph" class="graph">
<g id="viewport">
<title>kest_string_drain</title>
<!-- Node1 -->
<g id="Node000001" class="node">
<title>Node1</title>
<g id="a_Node000001"><a xlink:title=" ">
<polygon fill="#999999" stroke="#666666" points="814.25,-253.12 715,-253.12 715,-232.38 814.25,-232.38 814.25,-253.12"/>
<text xml:space="preserve" text-anchor="middle" x="764.62" y="-239.62" font-family="Helvetica,sans-Serif" font-size="10.00">kest_string_drain</text>
</a>
</g>
</g>
<!-- Node2 -->
<g id="Node000002" class="node">
<title>Node2</title>
<g id="a_Node000002"><a xlink:href="kest__fpga__comms_8c.html#af36ffb3bf1675bf1f10ea6fb9e39b5e7" target="_top" xlink:title=" ">
<polygon fill="white" stroke="#666666" points="661.38,-336.12 544.12,-336.12 544.12,-315.38 661.38,-315.38 661.38,-336.12"/>
<text xml:space="preserve" text-anchor="middle" x="602.75" y="-322.62" font-family="Helvetica,sans-Serif" font-size="10.00">get_and_sprint_flags</text>
</a>
</g>
</g>
<!-- Node1&#45;&gt;Node2 -->
<g id="edge1_Node000001_Node000002" class="edge">
<title>Node1&#45;&gt;Node2</title>
<g id="a_edge1_Node000001_Node000002"><a xlink:title=" ">
<path fill="none" stroke="#63b8ff" d="M742.12,-260.47C725.66,-273.34 701.95,-290.41 679,-301.75 668.43,-306.97 656.47,-311.39 645.24,-314.96"/>
<polygon fill="#63b8ff" stroke="#63b8ff" points="744.1,-263.37 749.73,-254.4 739.73,-257.9 744.1,-263.37"/>
</a>
</g>
</g>
<!-- Node3 -->
<g id="Node000003" class="node">
<title>Node3</title>
<g id="a_Node000003"><a xlink:href="kest__fpga__comms_8c.html#a0e24c965de231bcab602b5b43acb805d" target="_top" xlink:title=" ">
<polygon fill="white" stroke="#666666" points="490.5,-314.5 358.25,-314.5 358.25,-281 490.5,-281 490.5,-314.5"/>
<text xml:space="preserve" text-anchor="start" x="366.25" y="-301" font-family="Helvetica,sans-Serif" font-size="10.00">kest_fpga_comms_print</text>
<text xml:space="preserve" text-anchor="middle" x="424.38" y="-288.25" font-family="Helvetica,sans-Serif" font-size="10.00">_full_scan</text>
</a>
</g>
</g>
<!-- Node1&#45;&gt;Node3 -->
<g id="edge13_Node000001_Node000003" class="edge">
<title>Node1&#45;&gt;Node3</title>
<g id="a_edge13_Node000001_Node000003"><a xlink:title=" ">
<path fill="none" stroke="#63b8ff" d="M722.82,-256.95C709.04,-261.3 693.48,-265.72 679,-268.75 615.77,-281.96 542.33,-289.53 490.8,-293.6"/>
<polygon fill="#63b8ff" stroke="#63b8ff" points="723.55,-260.39 731.99,-253.98 721.39,-253.73 723.55,-260.39"/>
</a>
</g>
</g>
<!-- Node25 -->
<g id="Node000025" class="node">
<title>Node25</title>
<g id="a_Node000025"><a xlink:href="kest__reg__format_8c.html#a29aa51e007e672b4a6d7b9a4b287754a" target="_top" xlink:title=" ">
<polygon fill="white" stroke="#666666" points="666.25,-259.5 539.25,-259.5 539.25,-226 666.25,-226 666.25,-259.5"/>
<text xml:space="preserve" text-anchor="start" x="547.25" y="-246" font-family="Helvetica,sans-Serif" font-size="10.00">kest_compute_register</text>
<text xml:space="preserve" text-anchor="middle" x="602.75" y="-233.25" font-family="Helvetica,sans-Serif" font-size="10.00">_formats</text>
</a>
</g>
</g>
<!-- Node1&#45;&gt;Node25 -->
<g id="edge4_Node000001_Node000025" class="edge">
<title>Node1&#45;&gt;Node25</title>
<g id="a_edge4_Node000001_Node000025"><a xlink:title=" ">
<path fill="none" stroke="#63b8ff" d="M703.51,-242.75C691.5,-242.75 678.85,-242.75 666.75,-242.75"/>
<polygon fill="#63b8ff" stroke="#63b8ff" points="703.28,-246.25 713.27,-242.75 703.27,-239.25 703.28,-246.25"/>
</a>
</g>
</g>
<!-- Node27 -->
<g id="Node000027" class="node">
<title>Node27</title>
<g id="a_Node000027"><a xlink:href="kest__fpga__encoding_8c.html#a846915834c09759d6445b5dffc45b723" target="_top" xlink:title=" ">
<polygon fill="white" stroke="#666666" points="486,-426.12 362.75,-426.12 362.75,-405.38 486,-405.38 486,-426.12"/>
<text xml:space="preserve" text-anchor="middle" x="424.38" y="-412.62" font-family="Helvetica,sans-Serif" font-size="10.00">kest_fpga_batch_print</text>
</a>
</g>
</g>
<!-- Node1&#45;&gt;Node27 -->
<g id="edge7_Node000001_Node000027" class="edge">
<title>Node1&#45;&gt;Node27</title>
<g id="a_edge7_Node000001_Node000027"><a xlink:title=" ">
<path fill="none" stroke="#63b8ff" d="M758.82,-264.08C749.79,-298.62 726.74,-366.05 679,-396.75 621.62,-433.65 541.12,-432.93 486.31,-426.56"/>
<polygon fill="#63b8ff" stroke="#63b8ff" points="762.11,-265.36 761.08,-254.81 755.31,-263.69 762.11,-265.36"/>
</a>
</g>
</g>
<!-- Node30 -->
<g id="Node000030" class="node">
<title>Node30</title>
<g id="a_Node000030"><a xlink:href="kest__fpga__io_8c.html#a38a89d268857557d083c5e4696d54669" target="_top" xlink:title=" ">
<polygon fill="white" stroke="#666666" points="673.75,-207.5 531.75,-207.5 531.75,-174 673.75,-174 673.75,-207.5"/>
<text xml:space="preserve" text-anchor="start" x="539.75" y="-194" font-family="Helvetica,sans-Serif" font-size="10.00">kest_fpga_program_batch</text>
<text xml:space="preserve" text-anchor="middle" x="602.75" y="-181.25" font-family="Helvetica,sans-Serif" font-size="10.00">_send_careful</text>
</a>
</g>
</g>
<!-- Node1&#45;&gt;Node30 -->
<g id="edge14_Node000001_Node000030" class="edge">
<title>Node1&#45;&gt;Node30</title>
<g id="a_edge14_Node000001_Node000030"><a xlink:title=" ">
<path fill="none" stroke="#63b8ff" d="M719.78,-228.49C700.26,-222.14 677.12,-214.61 656.66,-207.96"/>
<polygon fill="#63b8ff" stroke="#63b8ff" points="718.47,-231.74 729.06,-231.51 720.63,-225.09 718.47,-231.74"/>
</a>
</g>
</g>
<!-- Node31 -->
<g id="Node000031" class="node">
<title>Node31</title>
<g id="a_Node000031"><a xlink:href="kest__fpga__io_8c.html#a705da035774b1be5ed1365126486649f" target="_top" xlink:title=" ">
<polygon fill="white" stroke="#666666" points="660.62,-387.5 544.88,-387.5 544.88,-354 660.62,-354 660.62,-387.5"/>
<text xml:space="preserve" text-anchor="start" x="552.88" y="-374" font-family="Helvetica,sans-Serif" font-size="10.00">kest_fpga_transfer</text>
<text xml:space="preserve" text-anchor="middle" x="602.75" y="-361.25" font-family="Helvetica,sans-Serif" font-size="10.00">_batch_send_careful</text>
</a>
</g>
</g>
<!-- Node1&#45;&gt;Node31 -->
<g id="edge15_Node000001_Node000031" class="edge">
<title>Node1&#45;&gt;Node31</title>
<g id="a_edge15_Node000001_Node000031"><a xlink:title=" ">
<path fill="none" stroke="#63b8ff" d="M751.63,-263.04C737.13,-285.93 710.69,-322.82 679,-344.75 673.43,-348.6 667.24,-351.94 660.86,-354.8"/>
<polygon fill="#63b8ff" stroke="#63b8ff" points="754.55,-264.97 756.8,-254.62 748.59,-261.31 754.55,-264.97"/>
</a>
</g>
</g>
<!-- Node33 -->
<g id="Node000033" class="node">
<title>Node33</title>
<g id="a_Node000033"><a xlink:href="kest__expr__scope_8c.html#ac44f26a1dd7c685a7a3d5423a6c1ff54" target="_top" xlink:title=" ">
<polygon fill="white" stroke="#666666" points="679,-137.5 526.5,-137.5 526.5,-104 679,-104 679,-137.5"/>
<text xml:space="preserve" text-anchor="start" x="534.5" y="-124" font-family="Helvetica,sans-Serif" font-size="10.00">kest_scope_transitivize</text>
<text xml:space="preserve" text-anchor="middle" x="602.75" y="-111.25" font-family="Helvetica,sans-Serif" font-size="10.00">_updatable_dependents_rec</text>
</a>
</g>
</g>
<!-- Node1&#45;&gt;Node33 -->
<g id="edge20_Node000001_Node000033" class="edge">
<title>Node1&#45;&gt;Node33</title>
<g id="a_edge20_Node000001_Node000033"><a xlink:title=" ">
<path fill="none" stroke="#63b8ff" d="M745.85,-224.23C729.38,-207.6 703.76,-183.06 679,-164.75 665.74,-154.94 650.13,-145.51 636.57,-137.91"/>
<polygon fill="#63b8ff" stroke="#63b8ff" points="743.02,-226.34 752.52,-231.04 748.03,-221.45 743.02,-226.34"/>
</a>
</g>
</g>
<!-- Node44 -->
<g id="Node000044" class="node">
<title>Node44</title>
<g id="a_Node000044"><a xlink:href="kest__update_8c.html#a8f65010d84004b5af5631ec324017e65" target="_top" xlink:title=" ">
<polygon fill="white" stroke="#666666" points="661.38,-33.5 544.12,-33.5 544.12,0 661.38,0 661.38,-33.5"/>
<text xml:space="preserve" text-anchor="start" x="552.12" y="-20" font-family="Helvetica,sans-Serif" font-size="10.00">kest_updater_handle</text>
<text xml:space="preserve" text-anchor="middle" x="602.75" y="-7.25" font-family="Helvetica,sans-Serif" font-size="10.00">_update</text>
</a>
</g>
</g>
<!-- Node1&#45;&gt;Node44 -->
<g id="edge24_Node000001_Node000044" class="edge">
<title>Node1&#45;&gt;Node44</title>
<g id="a_edge24_Node000001_Node000044"><a xlink:title=" ">
<path fill="none" stroke="#63b8ff" d="M760.29,-220.58C752.98,-179.7 731.81,-92.1 679,-42.75 673.95,-38.03 668,-34.16 661.7,-31"/>
<polygon fill="#63b8ff" stroke="#63b8ff" points="756.82,-221.11 761.91,-230.4 763.73,-219.96 756.82,-221.11"/>
</a>
</g>
</g>
<!-- Node47 -->
<g id="Node000047" class="node">
<title>Node47</title>
<g id="a_Node000047"><a xlink:href="kest__update_8c.html#abbdab64ee10309f1d032de20c5088114" target="_top" xlink:title=" ">
<polygon fill="white" stroke="#666666" points="656.12,-85.5 549.38,-85.5 549.38,-52 656.12,-52 656.12,-85.5"/>
<text xml:space="preserve" text-anchor="start" x="557.38" y="-72" font-family="Helvetica,sans-Serif" font-size="10.00">kest_updater_print</text>
<text xml:space="preserve" text-anchor="middle" x="602.75" y="-59.25" font-family="Helvetica,sans-Serif" font-size="10.00">_command_list</text>
</a>
</g>
</g>
<!-- Node1&#45;&gt;Node47 -->
<g id="edge27_Node000001_Node000047" class="edge">
<title>Node1&#45;&gt;Node47</title>
<g id="a_edge27_Node000001_Node000047"><a xlink:title=" ">
<path fill="none" stroke="#63b8ff" d="M756.86,-221.3C745.69,-189.28 720.43,-129.08 679,-94.75 672.4,-89.28 664.59,-84.94 656.53,-81.49"/>
<polygon fill="#63b8ff" stroke="#63b8ff" points="753.49,-222.26 759.97,-230.64 760.13,-220.05 753.49,-222.26"/>
</a>
</g>
</g>
<!-- Node2&#45;&gt;Node3 -->
<g id="edge2_Node000002_Node000003" class="edge">
<title>Node2&#45;&gt;Node3</title>
<g id="a_edge2_Node000002_Node000003"><a xlink:title=" ">
<path fill="none" stroke="#63b8ff" d="M532.64,-314.78C518.9,-312.6 504.51,-310.31 490.9,-308.15"/>
<polygon fill="#63b8ff" stroke="#63b8ff" points="532.08,-318.23 542.5,-316.34 533.18,-311.32 532.08,-318.23"/>
</a>
</g>
</g>
<!-- Node4 -->
<g id="Node000004" class="node">
<title>Node4</title>
<g id="a_Node000004"><a xlink:href="kest__fpga__comms_8c.html#a8f850777494bb4c4d61df3efbf31ca7c" target="_top" xlink:title=" ">
<polygon fill="#fff0f0" stroke="red" points="130.75,-384.12 0,-384.12 0,-363.38 130.75,-363.38 130.75,-384.12"/>
<text xml:space="preserve" text-anchor="middle" x="65.38" y="-370.62" font-family="Helvetica,sans-Serif" font-size="10.00">kest_fpga_comms_task</text>
</a>
</g>
</g>
<!-- Node3&#45;&gt;Node4 -->
<g id="edge3_Node000003_Node000004" class="edge">
<title>Node3&#45;&gt;Node4</title>
<g id="a_edge3_Node000003_Node000004"><a xlink:title=" ">
<path fill="none" stroke="#63b8ff" d="M346.67,-310.86C295.51,-319.98 226.86,-332.95 166.75,-346.75 145.82,-351.56 122.66,-357.73 103.86,-362.96"/>
<polygon fill="#63b8ff" stroke="#63b8ff" points="347.24,-314.32 356.48,-309.12 346.02,-307.42 347.24,-314.32"/>
</a>
</g>
</g>
<!-- Node26 -->
<g id="Node000026" class="node">
<title>Node26</title>
<g id="a_Node000026"><a xlink:href="kest__eff__parser_8c.html#a745050bced3ccd568a1223c9f6a416e0" target="_top" xlink:title=" ">
<polygon fill="white" stroke="#666666" points="484.5,-259.5 364.25,-259.5 364.25,-226 484.5,-226 484.5,-259.5"/>
<text xml:space="preserve" text-anchor="start" x="372.25" y="-246" font-family="Helvetica,sans-Serif" font-size="10.00">kest_parser_compute</text>
<text xml:space="preserve" text-anchor="middle" x="424.38" y="-233.25" font-family="Helvetica,sans-Serif" font-size="10.00">_formats</text>
</a>
</g>
</g>
<!-- Node25&#45;&gt;Node26 -->
<g id="edge5_Node000025_Node000026" class="edge">
<title>Node25&#45;&gt;Node26</title>
<g id="a_edge5_Node000025_Node000026"><a xlink:title=" ">
<path fill="none" stroke="#63b8ff" d="M527.75,-242.75C513.46,-242.75 498.66,-242.75 484.9,-242.75"/>
<polygon fill="#63b8ff" stroke="#63b8ff" points="527.56,-246.25 537.56,-242.75 527.56,-239.25 527.56,-246.25"/>
</a>
</g>
</g>
<!-- Node18 -->
<g id="Node000018" class="node">
<title>Node18</title>
<g id="a_Node000018"><a xlink:href="kest__eff__parser_8c.html#ae4618958c44389928c260fdb0e170761" target="_top" xlink:title=" ">
<polygon fill="#fff0f0" stroke="red" points="299.38,-259.5 189.62,-259.5 189.62,-226 299.38,-226 299.38,-259.5"/>
<text xml:space="preserve" text-anchor="start" x="197.62" y="-246" font-family="Helvetica,sans-Serif" font-size="10.00">kest_read_eff_desc</text>
<text xml:space="preserve" text-anchor="middle" x="244.5" y="-233.25" font-family="Helvetica,sans-Serif" font-size="10.00">_from_file</text>
</a>
</g>
</g>
<!-- Node26&#45;&gt;Node18 -->
<g id="edge6_Node000026_Node000018" class="edge">
<title>Node26&#45;&gt;Node18</title>
<g id="a_edge6_Node000026_Node000018"><a xlink:title=" ">
<path fill="none" stroke="#63b8ff" d="M352.72,-242.75C335.06,-242.75 316.39,-242.75 299.67,-242.75"/>
<polygon fill="#63b8ff" stroke="#63b8ff" points="352.63,-246.25 362.63,-242.75 352.63,-239.25 352.63,-246.25"/>
</a>
</g>
</g>
<!-- Node27&#45;&gt;Node4 -->
<g id="edge8_Node000027_Node000004" class="edge">
<title>Node27&#45;&gt;Node4</title>
<g id="a_edge8_Node000027_Node000004"><a xlink:title=" ">
<path fill="none" stroke="#63b8ff" d="M369.67,-428.94C317.05,-439.59 235.04,-450.06 166.75,-431.75 132.54,-422.58 97.92,-398.6 79.63,-384.51"/>
<polygon fill="#63b8ff" stroke="#63b8ff" points="370.22,-432.41 379.28,-426.92 368.78,-425.56 370.22,-432.41"/>
</a>
</g>
</g>
<!-- Node28 -->
<g id="Node000028" class="node">
<title>Node28</title>
<g id="a_Node000028"><a xlink:href="kest__fpga__io_8c.html#a0e6e4e058cfd8f3ec79208acb0f71aa6" target="_top" xlink:title=" ">
<polygon fill="white" stroke="#666666" points="314.38,-423.12 174.62,-423.12 174.62,-402.38 314.38,-402.38 314.38,-423.12"/>
<text xml:space="preserve" text-anchor="middle" x="244.5" y="-409.62" font-family="Helvetica,sans-Serif" font-size="10.00">kest_fpga_set_input_gain</text>
</a>
</g>
</g>
<!-- Node27&#45;&gt;Node28 -->
<g id="edge9_Node000027_Node000028" class="edge">
<title>Node27&#45;&gt;Node28</title>
<g id="a_edge9_Node000027_Node000028"><a xlink:title=" ">
<path fill="none" stroke="#63b8ff" d="M351.28,-414.53C339.24,-414.33 326.78,-414.12 314.81,-413.92"/>
<polygon fill="#63b8ff" stroke="#63b8ff" points="351.09,-418.03 361.14,-414.7 351.21,-411.03 351.09,-418.03"/>
</a>
</g>
</g>
<!-- Node29 -->
<g id="Node000029" class="node">
<title>Node29</title>
<g id="a_Node000029"><a xlink:href="kest__fpga__io_8c.html#a6569f6bf656d72080dd355179ac2c4e9" target="_top" xlink:title=" ">
<polygon fill="white" stroke="#666666" points="317.75,-384.12 171.25,-384.12 171.25,-363.38 317.75,-363.38 317.75,-384.12"/>
<text xml:space="preserve" text-anchor="middle" x="244.5" y="-370.62" font-family="Helvetica,sans-Serif" font-size="10.00">kest_fpga_set_output_gain</text>
</a>
</g>
</g>
<!-- Node27&#45;&gt;Node29 -->
<g id="edge11_Node000027_Node000029" class="edge">
<title>Node27&#45;&gt;Node29</title>
<g id="a_edge11_Node000027_Node000029"><a xlink:title=" ">
<path fill="none" stroke="#63b8ff" d="M366.37,-402.29C342.17,-396.58 314.32,-390 291.46,-384.6"/>
<polygon fill="#63b8ff" stroke="#63b8ff" points="365.56,-405.69 376.09,-404.59 367.17,-398.88 365.56,-405.69"/>
</a>
</g>
</g>
<!-- Node28&#45;&gt;Node4 -->
<g id="edge10_Node000028_Node000004" class="edge">
<title>Node28&#45;&gt;Node4</title>
<g id="a_edge10_Node000028_Node000004"><a xlink:title=" ">
<path fill="none" stroke="#63b8ff" d="M182.97,-399.42C161.06,-394.6 136.59,-389.21 115.76,-384.62"/>
<polygon fill="#63b8ff" stroke="#63b8ff" points="182.16,-402.83 192.68,-401.56 183.67,-395.99 182.16,-402.83"/>
</a>
</g>
</g>
<!-- Node29&#45;&gt;Node4 -->
<g id="edge12_Node000029_Node000004" class="edge">
<title>Node29&#45;&gt;Node4</title>
<g id="a_edge12_Node000029_Node000004"><a xlink:title=" ">
<path fill="none" stroke="#63b8ff" d="M159.73,-373.75C150.13,-373.75 140.45,-373.75 131.15,-373.75"/>
<polygon fill="#63b8ff" stroke="#63b8ff" points="159.43,-377.25 169.43,-373.75 159.43,-370.25 159.43,-377.25"/>
</a>
</g>
</g>
<!-- Node32 -->
<g id="Node000032" class="node">
<title>Node32</title>
<g id="a_Node000032"><a xlink:href="kest__fpga__io_8c.html#ae911bef59743e59043a283dac1be0761" target="_top" xlink:title=" ">
<polygon fill="white" stroke="#666666" points="477.75,-387.5 371,-387.5 371,-354 477.75,-354 477.75,-387.5"/>
<text xml:space="preserve" text-anchor="start" x="379" y="-374" font-family="Helvetica,sans-Serif" font-size="10.00">kest_fpga_transfer</text>
<text xml:space="preserve" text-anchor="middle" x="424.38" y="-361.25" font-family="Helvetica,sans-Serif" font-size="10.00">_batch_send</text>
</a>
</g>
</g>
<!-- Node31&#45;&gt;Node32 -->
<g id="edge16_Node000031_Node000032" class="edge">
<title>Node31&#45;&gt;Node32</title>
<g id="a_edge16_Node000031_Node000032"><a xlink:title=" ">
<path fill="none" stroke="#63b8ff" d="M533.02,-370.75C514.79,-370.75 495.4,-370.75 478.17,-370.75"/>
<polygon fill="#63b8ff" stroke="#63b8ff" points="532.97,-374.25 542.97,-370.75 532.97,-367.25 532.97,-374.25"/>
</a>
</g>
</g>
<!-- Node32&#45;&gt;Node4 -->
<g id="edge17_Node000032_Node000004" class="edge">
<title>Node32&#45;&gt;Node4</title>
<g id="a_edge17_Node000032_Node000004"><a xlink:title=" ">
<path fill="none" stroke="#63b8ff" d="M359.44,-359.08C347.14,-357.28 334.32,-355.7 322.25,-354.75 253.35,-349.33 235.56,-348.29 166.75,-354.75 149.36,-356.38 130.49,-359.57 113.85,-362.88"/>
<polygon fill="#63b8ff" stroke="#63b8ff" points="358.64,-362.5 369.06,-360.56 359.7,-355.58 358.64,-362.5"/>
</a>
</g>
</g>
<!-- Node32&#45;&gt;Node28 -->
<g id="edge18_Node000032_Node000028" class="edge">
<title>Node32&#45;&gt;Node28</title>
<g id="a_edge18_Node000032_Node000028"><a xlink:title=" ">
<path fill="none" stroke="#63b8ff" d="M359.77,-385.77C337.22,-391.09 312.3,-396.98 291.5,-401.89"/>
<polygon fill="#63b8ff" stroke="#63b8ff" points="360.57,-389.18 369.5,-383.47 358.96,-382.36 360.57,-389.18"/>
</a>
</g>
</g>
<!-- Node32&#45;&gt;Node29 -->
<g id="edge19_Node000032_Node000029" class="edge">
<title>Node32&#45;&gt;Node29</title>
<g id="a_edge19_Node000032_Node000029"><a xlink:title=" ">
<path fill="none" stroke="#63b8ff" d="M359.81,-371.82C346.25,-372.05 331.83,-372.29 317.96,-372.53"/>
<polygon fill="#63b8ff" stroke="#63b8ff" points="359.52,-375.33 369.46,-371.66 359.4,-368.33 359.52,-375.33"/>
</a>
</g>
</g>
<!-- Node33&#45;&gt;Node33 -->
<g id="edge23_Node000033_Node000033" class="edge">
<title>Node33&#45;&gt;Node33</title>
<g id="a_edge23_Node000033_Node000033"><a xlink:title=" ">
<path fill="none" stroke="#63b8ff" d="M629.93,-148.89C625.5,-152.85 616.44,-155.5 602.75,-155.5 578.41,-155.5 568.71,-147.12 573.65,-137.91"/>
<polygon fill="#63b8ff" stroke="#63b8ff" points="633.31,-149.86 631.59,-139.41 626.42,-148.65 633.31,-149.86"/>
</a>
</g>
</g>
<!-- Node34 -->
<g id="Node000034" class="node">
<title>Node34</title>
<g id="a_Node000034"><a xlink:href="kest__expr__scope_8c.html#a22d04780c6f58fc94a907b3969a819cc" target="_top" xlink:title=" ">
<polygon fill="white" stroke="#666666" points="490.5,-137.5 358.25,-137.5 358.25,-104 490.5,-104 490.5,-137.5"/>
<text xml:space="preserve" text-anchor="start" x="366.25" y="-124" font-family="Helvetica,sans-Serif" font-size="10.00">kest_scope_transitivize</text>
<text xml:space="preserve" text-anchor="middle" x="424.38" y="-111.25" font-family="Helvetica,sans-Serif" font-size="10.00">_updatable_dependents</text>
</a>
</g>
</g>
<!-- Node33&#45;&gt;Node34 -->
<g id="edge21_Node000033_Node000034" class="edge">
<title>Node33&#45;&gt;Node34</title>
<g id="a_edge21_Node000033_Node000034"><a xlink:title=" ">
<path fill="none" stroke="#63b8ff" d="M514.8,-120.75C506.72,-120.75 498.62,-120.75 490.79,-120.75"/>
<polygon fill="#63b8ff" stroke="#63b8ff" points="514.67,-124.25 524.67,-120.75 514.67,-117.25 514.67,-124.25"/>
</a>
</g>
</g>
<!-- Node35 -->
<g id="Node000035" class="node">
<title>Node35</title>
<g id="a_Node000035"><a xlink:href="kest__effect_8c.html#a85b25e44e2629962673634f965ffe304" target="_top" xlink:title=" ">
<polygon fill="#fff0f0" stroke="red" points="322.25,-131.12 166.75,-131.12 166.75,-110.38 322.25,-110.38 322.25,-131.12"/>
<text xml:space="preserve" text-anchor="middle" x="244.5" y="-117.62" font-family="Helvetica,sans-Serif" font-size="10.00">init_effect_from_effect_desc</text>
</a>
</g>
</g>
<!-- Node34&#45;&gt;Node35 -->
<g id="edge22_Node000034_Node000035" class="edge">
<title>Node34&#45;&gt;Node35</title>
<g id="a_edge22_Node000034_Node000035"><a xlink:title=" ">
<path fill="none" stroke="#63b8ff" d="M346.44,-120.75C338.53,-120.75 330.49,-120.75 322.58,-120.75"/>
<polygon fill="#63b8ff" stroke="#63b8ff" points="346.39,-124.25 356.39,-120.75 346.39,-117.25 346.39,-124.25"/>
</a>
</g>
</g>
<!-- Node45 -->
<g id="Node000045" class="node">
<title>Node45</title>
<g id="a_Node000045"><a xlink:href="kest__update_8c.html#a5f1849c909f1dbde00900ad089f46d8f" target="_top" xlink:title=" ">
<polygon fill="white" stroke="#666666" points="475.12,-53.12 373.62,-53.12 373.62,-32.38 475.12,-32.38 475.12,-53.12"/>
<text xml:space="preserve" text-anchor="middle" x="424.38" y="-39.62" font-family="Helvetica,sans-Serif" font-size="10.00">kest_update_task</text>
</a>
</g>
</g>
<!-- Node44&#45;&gt;Node45 -->
<g id="edge25_Node000044_Node000045" class="edge">
<title>Node44&#45;&gt;Node45</title>
<g id="a_edge25_Node000044_Node000045"><a xlink:title=" ">
<path fill="none" stroke="#63b8ff" d="M532.65,-26.94C513.6,-29.74 493.3,-32.74 475.55,-35.35"/>
<polygon fill="#63b8ff" stroke="#63b8ff" points="533.12,-30.41 542.5,-25.48 532.1,-23.48 533.12,-30.41"/>
</a>
</g>
</g>
<!-- Node46 -->
<g id="Node000046" class="node">
<title>Node46</title>
<g id="a_Node000046"><a xlink:href="kest__update_8c.html#a144a1e0bedaf2dbf6788825228333e63" target="_top" xlink:title=" ">
<polygon fill="#fff0f0" stroke="red" points="309.12,-53.12 179.88,-53.12 179.88,-32.38 309.12,-32.38 309.12,-53.12"/>
<text xml:space="preserve" text-anchor="middle" x="244.5" y="-39.62" font-family="Helvetica,sans-Serif" font-size="10.00">kest_update_task_start</text>
</a>
</g>
</g>
<!-- Node45&#45;&gt;Node46 -->
<g id="edge26_Node000045_Node000046" class="edge">
<title>Node45&#45;&gt;Node46</title>
<g id="a_edge26_Node000045_Node000046"><a xlink:title=" ">
<path fill="none" stroke="#63b8ff" d="M361.89,-42.75C344.95,-42.75 326.53,-42.75 309.45,-42.75"/>
<polygon fill="#63b8ff" stroke="#63b8ff" points="361.84,-46.25 371.84,-42.75 361.84,-39.25 361.84,-46.25"/>
</a>
</g>
</g>
<!-- Node47&#45;&gt;Node45 -->
<g id="edge28_Node000047_Node000045" class="edge">
<title>Node47&#45;&gt;Node45</title>
<g id="a_edge28_Node000047_Node000045"><a xlink:title=" ">
<path fill="none" stroke="#63b8ff" d="M538.1,-59.37C517.5,-56.33 494.97,-53.01 475.49,-50.14"/>
<polygon fill="#63b8ff" stroke="#63b8ff" points="537.41,-62.8 547.81,-60.8 538.43,-55.88 537.41,-62.8"/>
</a>
</g>
</g>
</g>
</svg>

<g id="navigator" transform="translate(0 0)" fill="#404254">
  <rect fill="#f2f5e9" fill-opacity="0.5" stroke="#606060" stroke-width=".5" x="0" y="0" width="60" height="60"/>
  <use id="zoomplus" xlink:href="#zoomPlus" x="17" y="9" onmousedown="handleZoom(evt,'in')"/>
  <use id="zoomminus" xlink:href="#zoomMin" x="42" y="9" onmousedown="handleZoom(evt,'out')"/>
  <use id="reset" xlink:href="#resetDef" x="30" y="36" onmousedown="handleReset()"/>
   <use id="arrowup" xlink:href="#arrowUp" x="0" y="0" onmousedown="handlePan(0,-1)"/>
  <use id="arrowright" xlink:href="#arrowRight" x="0" y="0" onmousedown="handlePan(1,0)"/>
  <use id="arrowdown" xlink:href="#arrowDown" x="0" y="0" onmousedown="handlePan(0,1)"/>
  <use id="arrowleft" xlink:href="#arrowLeft" x="0" y="0" onmousedown="handlePan(-1,0)"/>
</g>
<svg viewBox="0 0 15 15" width="100%" height="30px" preserveAspectRatio="xMaxYMin meet">
 <g id="arrow_out" transform="scale(0.3 0.3)">
  <a xlink:href="kest__string_8h_afa021a4021225530db818f590a416606_icgraph_org.svg" target="_base">
   <rect id="button" ry="5" rx="5" y="6" x="6" height="38" width="38"
        fill="#f2f5e9" fill-opacity="0.5" stroke="#606060" stroke-width="1.0"/>
   <path id="arrow"
     d="M 11.500037,31.436501 C 11.940474,20.09759 22.043105,11.32322 32.158766,21.979434 L 37.068811,17.246167 C 37.068811,17.246167 37.088388,32 37.088388,32 L 22.160133,31.978069 C 22.160133,31.978069 26.997745,27.140456 26.997745,27.140456 C 18.528582,18.264221 13.291696,25.230495 11.500037,31.436501 z"
     style="fill:#404040;"/>
  </a>
 </g>
</svg>

<style type='text/css'>
<![CDATA[
[data-mouse-over-selected='false'] { opacity: 0.7; }
[data-mouse-over-selected='true']  { opacity: 1.0; }
]]>
</style>
<script type="application/ecmascript"><![CDATA[
document.addEventListener('DOMContentLoaded', (event) => {
  highlightEdges();
  highlightAdjacentNodes();
});
]]></script>
</svg>
