<?xml version="1.0" encoding="UTF-8" standalone="no"?>
<!DOCTYPE svg PUBLIC "-//W3C//DTD SVG 1.1//EN"
 "http://www.w3.org/Graphics/SVG/1.1/DTD/svg11.dtd">
<!-- Generated by graphviz version 13.1.2 (20250808.2320)
 -->
<!-- Title: kest_interval_ab Pages: 1 -->
<svg width="618pt" height="155pt"
 viewBox="0.00 0.00 618.00 155.00" xmlns="http://www.w3.org/2000/svg" xmlns:xlink="http://www.w3.org/1999/xlink">
<g id="graph0" class="graph" transform="scale(1 1) rotate(0) translate(4 150.5)">
<title>kest_interval_ab</title>
<!-- Node1 -->
<g id="Node000001" class="node">
<title>Node1</title>
<g id="a_Node000001"><a xlink:title=" ">
<polygon fill="#999999" stroke="#666666" points="610,-62.12 513.75,-62.12 513.75,-41.38 610,-41.38 610,-62.12"/>
<text xml:space="preserve" text-anchor="middle" x="561.88" y="-48.62" font-family="Helvetica,sans-Serif" font-size="10.00">kest_interval_ab</text>
</a>
</g>
</g>
<!-- Node2 -->
<g id="Node000002" class="node">
<title>Node2</title>
<g id="a_Node000002"><a xlink:href="kest__fixed__point_8c.html#aadbad80611ec55e1e488a3740c578c8b" target="_top" xlink:title=" ">
<polygon fill="white" stroke="#666666" points="477.75,-103.5 335,-103.5 335,-70 477.75,-70 477.75,-103.5"/>
<text xml:space="preserve" text-anchor="start" x="343" y="-90" font-family="Helvetica,sans-Serif" font-size="10.00">kest_expression_compute</text>
<text xml:space="preserve" text-anchor="middle" x="406.38" y="-77.25" font-family="Helvetica,sans-Serif" font-size="10.00">_format</text>
</a>
</g>
</g>
<!-- Node1&#45;&gt;Node2 -->
<g id="edge1_Node000001_Node000002" class="edge">
<title>Node1&#45;&gt;Node2</title>
<g id="a_edge1_Node000001_Node000002"><a xlink:title=" ">
<path fill="none" stroke="#63b8ff" d="M502.55,-65.05C494.6,-66.86 486.37,-68.74 478.23,-70.59"/>
<polygon fill="#63b8ff" stroke="#63b8ff" points="503.12,-68.51 512.09,-62.87 501.56,-61.68 503.12,-68.51"/>
</a>
</g>
</g>
<!-- Node25 -->
<g id="Node000025" class="node">
<title>Node25</title>
<g id="a_Node000025"><a xlink:href="kest__expression_8c.html#a146f5c5c8ecc02be0e5e695cbbc10f10" target="_top" xlink:title=" ">
<polygon fill="white" stroke="#666666" points="477.75,-33.5 335,-33.5 335,0 477.75,0 477.75,-33.5"/>
<text xml:space="preserve" text-anchor="start" x="343" y="-20" font-family="Helvetica,sans-Serif" font-size="10.00">kest_expression_compute</text>
<text xml:space="preserve" text-anchor="middle" x="406.38" y="-7.25" font-family="Helvetica,sans-Serif" font-size="10.00">_range_rec</text>
</a>
</g>
</g>
<!-- Node1&#45;&gt;Node25 -->
<g id="edge6_Node000001_Node000025" class="edge">
<title>Node1&#45;&gt;Node25</title>
<g id="a_edge6_Node000001_Node000025"><a xlink:title=" ">
<path fill="none" stroke="#63b8ff" d="M502.55,-38.45C494.6,-36.64 486.37,-34.76 478.23,-32.91"/>
<polygon fill="#63b8ff" stroke="#63b8ff" points="501.56,-41.82 512.09,-40.63 503.12,-34.99 501.56,-41.82"/>
</a>
</g>
</g>
<!-- Node3 -->
<g id="Node000003" class="node">
<title>Node3</title>
<g id="a_Node000003"><a xlink:href="kest__reg__format_8c.html#a29aa51e007e672b4a6d7b9a4b287754a" target="_top" xlink:title=" ">
<polygon fill="white" stroke="#666666" points="291.12,-146.5 164.12,-146.5 164.12,-113 291.12,-113 291.12,-146.5"/>
<text xml:space="preserve" text-anchor="start" x="172.12" y="-133" font-family="Helvetica,sans-Serif" font-size="10.00">kest_compute_register</text>
<text xml:space="preserve" text-anchor="middle" x="227.62" y="-120.25" font-family="Helvetica,sans-Serif" font-size="10.00">_formats</text>
</a>
</g>
</g>
<!-- Node2&#45;&gt;Node3 -->
<g id="edge2_Node000002_Node000003" class="edge">
<title>Node2&#45;&gt;Node3</title>
<g id="a_edge2_Node000002_Node000003"><a xlink:title=" ">
<path fill="none" stroke="#63b8ff" d="M323.41,-106.69C312.7,-109.3 301.86,-111.93 291.52,-114.45"/>
<polygon fill="#63b8ff" stroke="#63b8ff" points="324.14,-110.11 333.03,-104.35 322.49,-103.31 324.14,-110.11"/>
</a>
</g>
</g>
<!-- Node24 -->
<g id="Node000024" class="node">
<title>Node24</title>
<g id="a_Node000024"><a xlink:href="kest__fixed__point_8c.html#a152783a4a8b5bc4b35e20d1c53acdae4" target="_top" xlink:title=" ">
<polygon fill="white" stroke="#666666" points="284,-94.5 171.25,-94.5 171.25,-61 284,-61 284,-94.5"/>
<text xml:space="preserve" text-anchor="start" x="179.25" y="-81" font-family="Helvetica,sans-Serif" font-size="10.00">kest_filter_compute</text>
<text xml:space="preserve" text-anchor="middle" x="227.62" y="-68.25" font-family="Helvetica,sans-Serif" font-size="10.00">_format</text>
</a>
</g>
</g>
<!-- Node2&#45;&gt;Node24 -->
<g id="edge4_Node000002_Node000024" class="edge">
<title>Node2&#45;&gt;Node24</title>
<g id="a_edge4_Node000002_Node000024"><a xlink:title=" ">
<path fill="none" stroke="#63b8ff" d="M323.04,-82.56C309.91,-81.89 296.6,-81.21 284.28,-80.58"/>
<polygon fill="#63b8ff" stroke="#63b8ff" points="322.83,-86.05 332.99,-83.06 323.18,-79.06 322.83,-86.05"/>
</a>
</g>
</g>
<!-- Node4 -->
<g id="Node000004" class="node">
<title>Node4</title>
<g id="a_Node000004"><a xlink:href="kest__eff__parser_8c.html#a745050bced3ccd568a1223c9f6a416e0" target="_top" xlink:title=" ">
<polygon fill="#fff0f0" stroke="red" points="120.25,-120.5 0,-120.5 0,-87 120.25,-87 120.25,-120.5"/>
<text xml:space="preserve" text-anchor="start" x="8" y="-107" font-family="Helvetica,sans-Serif" font-size="10.00">kest_parser_compute</text>
<text xml:space="preserve" text-anchor="middle" x="60.12" y="-94.25" font-family="Helvetica,sans-Serif" font-size="10.00">_formats</text>
</a>
</g>
</g>
<!-- Node3&#45;&gt;Node4 -->
<g id="edge3_Node000003_Node000004" class="edge">
<title>Node3&#45;&gt;Node4</title>
<g id="a_edge3_Node000003_Node000004"><a xlink:title=" ">
<path fill="none" stroke="#63b8ff" d="M152.87,-118.16C142.04,-116.46 131,-114.73 120.5,-113.08"/>
<polygon fill="#63b8ff" stroke="#63b8ff" points="152.14,-121.59 162.56,-119.69 153.23,-114.68 152.14,-121.59"/>
</a>
</g>
</g>
<!-- Node24&#45;&gt;Node4 -->
<g id="edge5_Node000024_Node000004" class="edge">
<title>Node24&#45;&gt;Node4</title>
<g id="a_edge5_Node000024_Node000004"><a xlink:title=" ">
<path fill="none" stroke="#63b8ff" d="M159.81,-88.25C146.81,-90.29 133.26,-92.42 120.52,-94.42"/>
<polygon fill="#63b8ff" stroke="#63b8ff" points="160.22,-91.72 169.56,-86.71 159.14,-84.81 160.22,-91.72"/>
</a>
</g>
</g>
<!-- Node25&#45;&gt;Node25 -->
<g id="edge8_Node000025_Node000025" class="edge">
<title>Node25&#45;&gt;Node25</title>
<g id="a_edge8_Node000025_Node000025"><a xlink:title=" ">
<path fill="none" stroke="#63b8ff" d="M432.48,-44.89C428.23,-48.85 419.53,-51.5 406.38,-51.5 382.99,-51.5 373.67,-43.12 378.42,-33.91"/>
<polygon fill="#63b8ff" stroke="#63b8ff" points="435.87,-45.85 434.08,-35.41 428.97,-44.69 435.87,-45.85"/>
</a>
</g>
</g>
<!-- Node26 -->
<g id="Node000026" class="node">
<title>Node26</title>
<g id="a_Node000026"><a xlink:href="kest__expression_8c.html#a619ffc9c55b8a65d5681d740b8738598" target="_top" xlink:title=" ">
<polygon fill="white" stroke="#666666" points="299,-33.5 156.25,-33.5 156.25,0 299,0 299,-33.5"/>
<text xml:space="preserve" text-anchor="start" x="164.25" y="-20" font-family="Helvetica,sans-Serif" font-size="10.00">kest_expression_compute</text>
<text xml:space="preserve" text-anchor="middle" x="227.62" y="-7.25" font-family="Helvetica,sans-Serif" font-size="10.00">_range</text>
</a>
</g>
</g>
<!-- Node25&#45;&gt;Node26 -->
<g id="edge7_Node000025_Node000026" class="edge">
<title>Node25&#45;&gt;Node26</title>
<g id="a_edge7_Node000025_Node000026"><a xlink:title=" ">
<path fill="none" stroke="#63b8ff" d="M323.23,-16.75C315.21,-16.75 307.12,-16.75 299.23,-16.75"/>
<polygon fill="#63b8ff" stroke="#63b8ff" points="322.99,-20.25 332.99,-16.75 322.99,-13.25 322.99,-20.25"/>
</a>
</g>
</g>
</g>
</svg>
