<?xml version="1.0" encoding="UTF-8" standalone="no"?>
<!DOCTYPE svg PUBLIC "-//W3C//DTD SVG 1.1//EN"
 "http://www.w3.org/Graphics/SVG/1.1/DTD/svg11.dtd">
<!-- Generated by graphviz version 13.1.2 (20250808.2320)
 -->
<!-- Title: kest_expression_get_references_rec Pages: 1 -->
<svg width="624pt" height="142pt"
 viewBox="0.00 0.00 624.00 142.00" xmlns="http://www.w3.org/2000/svg" xmlns:xlink="http://www.w3.org/1999/xlink">
<g id="graph0" class="graph" transform="scale(1 1) rotate(0) translate(4 137.5)">
<title>kest_expression_get_references_rec</title>
<!-- Node1 -->
<g id="Node000001" class="node">
<title>Node1</title>
<g id="a_Node000001"><a xlink:title=" ">
<polygon fill="#999999" stroke="#666666" points="616,-59.5 500.25,-59.5 500.25,-26 616,-26 616,-59.5"/>
<text xml:space="preserve" text-anchor="start" x="508.25" y="-46" font-family="Helvetica,sans-Serif" font-size="10.00">kest_expression_get</text>
<text xml:space="preserve" text-anchor="middle" x="558.12" y="-33.25" font-family="Helvetica,sans-Serif" font-size="10.00">_references_rec</text>
</a>
</g>
</g>
<!-- Node1&#45;&gt;Node1 -->
<g id="edge7_Node000001_Node000001" class="edge">
<title>Node1&#45;&gt;Node1</title>
<g id="a_edge7_Node000001_Node000001"><a xlink:title=" ">
<path fill="none" stroke="#63b8ff" d="M583.25,-71.22C578.98,-74.99 570.61,-77.5 558.12,-77.5 535.3,-77.5 526.21,-69.12 530.85,-59.91"/>
<polygon fill="#63b8ff" stroke="#63b8ff" points="586.69,-71.88 585.12,-61.4 579.81,-70.57 586.69,-71.88"/>
</a>
</g>
</g>
<!-- Node2 -->
<g id="Node000002" class="node">
<title>Node2</title>
<g id="a_Node000002"><a xlink:href="kest__expression_8c.html#a4428080cc6a255e85501a259bdb4dc8a" target="_top" xlink:title=" ">
<polygon fill="white" stroke="#666666" points="464.25,-59.5 348.5,-59.5 348.5,-26 464.25,-26 464.25,-59.5"/>
<text xml:space="preserve" text-anchor="start" x="356.5" y="-46" font-family="Helvetica,sans-Serif" font-size="10.00">kest_expression_get</text>
<text xml:space="preserve" text-anchor="middle" x="406.38" y="-33.25" font-family="Helvetica,sans-Serif" font-size="10.00">_references</text>
</a>
</g>
</g>
<!-- Node1&#45;&gt;Node2 -->
<g id="edge1_Node000001_Node000002" class="edge">
<title>Node1&#45;&gt;Node2</title>
<g id="a_edge1_Node000001_Node000002"><a xlink:title=" ">
<path fill="none" stroke="#63b8ff" d="M488.66,-42.75C480.49,-42.75 472.23,-42.75 464.26,-42.75"/>
<polygon fill="#63b8ff" stroke="#63b8ff" points="488.57,-46.25 498.57,-42.75 488.57,-39.25 488.57,-46.25"/>
</a>
</g>
</g>
<!-- Node3 -->
<g id="Node000003" class="node">
<title>Node3</title>
<g id="a_Node000003"><a xlink:href="kest__expression_8c.html#a06fc3d0394cad5e965de056f7af84b72" target="_top" xlink:title=" ">
<polygon fill="white" stroke="#666666" points="312.5,-85.5 172.75,-85.5 172.75,-52 312.5,-52 312.5,-85.5"/>
<text xml:space="preserve" text-anchor="start" x="180.75" y="-72" font-family="Helvetica,sans-Serif" font-size="10.00">kest_expression_updated</text>
<text xml:space="preserve" text-anchor="middle" x="242.62" y="-59.25" font-family="Helvetica,sans-Serif" font-size="10.00">_in_scope</text>
</a>
</g>
</g>
<!-- Node2&#45;&gt;Node3 -->
<g id="edge2_Node000002_Node000003" class="edge">
<title>Node2&#45;&gt;Node3</title>
<g id="a_edge2_Node000002_Node000003"><a xlink:title=" ">
<path fill="none" stroke="#63b8ff" d="M337.15,-53.72C329.13,-55.01 320.94,-56.32 312.9,-57.61"/>
<polygon fill="#63b8ff" stroke="#63b8ff" points="337.54,-57.2 346.85,-52.16 336.42,-50.29 337.54,-57.2"/>
</a>
</g>
</g>
<!-- Node10 -->
<g id="Node000010" class="node">
<title>Node10</title>
<g id="a_Node000010"><a xlink:href="kest__expr__scope_8c.html#a38b63c16b3979ad26c30a0dc0b73e96a" target="_top" xlink:title=" ">
<polygon fill="white" stroke="#666666" points="305,-33.5 180.25,-33.5 180.25,0 305,0 305,-33.5"/>
<text xml:space="preserve" text-anchor="start" x="188.25" y="-20" font-family="Helvetica,sans-Serif" font-size="10.00">kest_scope_propagate</text>
<text xml:space="preserve" text-anchor="middle" x="242.62" y="-7.25" font-family="Helvetica,sans-Serif" font-size="10.00">_updates</text>
</a>
</g>
</g>
<!-- Node2&#45;&gt;Node10 -->
<g id="edge5_Node000002_Node000010" class="edge">
<title>Node2&#45;&gt;Node10</title>
<g id="a_edge5_Node000002_Node000010"><a xlink:title=" ">
<path fill="none" stroke="#63b8ff" d="M337.07,-31.77C326.55,-30.08 315.73,-28.34 305.36,-26.67"/>
<polygon fill="#63b8ff" stroke="#63b8ff" points="336.42,-35.21 346.85,-33.34 337.54,-28.3 336.42,-35.21"/>
</a>
</g>
</g>
<!-- Node4 -->
<g id="Node000004" class="node">
<title>Node4</title>
<g id="a_Node000004"><a xlink:href="kest__fpga__encoding_8c.html#a671c5c9aca5f0e8197dbccbc0dd8291c" target="_top" xlink:title=" ">
<polygon fill="#fff0f0" stroke="red" points="136.75,-133.5 0,-133.5 0,-100 136.75,-100 136.75,-133.5"/>
<text xml:space="preserve" text-anchor="start" x="8" y="-120" font-family="Helvetica,sans-Serif" font-size="10.00">kest_fpga_batch_append</text>
<text xml:space="preserve" text-anchor="middle" x="68.38" y="-107.25" font-family="Helvetica,sans-Serif" font-size="10.00">_block_register_updates</text>
</a>
</g>
</g>
<!-- Node3&#45;&gt;Node4 -->
<g id="edge3_Node000003_Node000004" class="edge">
<title>Node3&#45;&gt;Node4</title>
<g id="a_edge3_Node000003_Node000004"><a xlink:title=" ">
<path fill="none" stroke="#63b8ff" d="M169.01,-88.99C156.44,-92.49 143.47,-96.1 131.22,-99.52"/>
<polygon fill="#63b8ff" stroke="#63b8ff" points="169.77,-92.41 178.47,-86.35 167.89,-85.66 169.77,-92.41"/>
</a>
</g>
</g>
<!-- Node7 -->
<g id="Node000007" class="node">
<title>Node7</title>
<g id="a_Node000007"><a xlink:href="kest__fpga__encoding_8c.html#a64f5333c5ff60101795695bce0de75d5" target="_top" xlink:title=" ">
<polygon fill="#fff0f0" stroke="red" points="136.75,-81.5 0,-81.5 0,-48 136.75,-48 136.75,-81.5"/>
<text xml:space="preserve" text-anchor="start" x="8" y="-68" font-family="Helvetica,sans-Serif" font-size="10.00">kest_fpga_batch_append</text>
<text xml:space="preserve" text-anchor="middle" x="68.38" y="-55.25" font-family="Helvetica,sans-Serif" font-size="10.00">_filter_updates</text>
</a>
</g>
</g>
<!-- Node3&#45;&gt;Node7 -->
<g id="edge4_Node000003_Node000007" class="edge">
<title>Node3&#45;&gt;Node7</title>
<g id="a_edge4_Node000003_Node000007"><a xlink:title=" ">
<path fill="none" stroke="#63b8ff" d="M161.21,-66.88C153.13,-66.69 144.98,-66.51 137.06,-66.32"/>
<polygon fill="#63b8ff" stroke="#63b8ff" points="160.97,-70.38 171.04,-67.11 161.13,-63.38 160.97,-70.38"/>
</a>
</g>
</g>
<!-- Node6 -->
<g id="Node000006" class="node">
<title>Node6</title>
<g id="a_Node000006"><a xlink:href="kest__effect_8c.html#a490655823471fa9f081e6252b13da30e" target="_top" xlink:title=" ">
<polygon fill="white" stroke="#666666" points="136.38,-27.12 0.38,-27.12 0.38,-6.38 136.38,-6.38 136.38,-27.12"/>
<text xml:space="preserve" text-anchor="middle" x="68.38" y="-13.62" font-family="Helvetica,sans-Serif" font-size="10.00">kest_effect_update_fpga</text>
</a>
</g>
</g>
<!-- Node10&#45;&gt;Node6 -->
<g id="edge6_Node000010_Node000006" class="edge">
<title>Node10&#45;&gt;Node6</title>
<g id="a_edge6_Node000010_Node000006"><a xlink:title=" ">
<path fill="none" stroke="#63b8ff" d="M168.6,-16.75C158.04,-16.75 147.21,-16.75 136.77,-16.75"/>
<polygon fill="#63b8ff" stroke="#63b8ff" points="168.41,-20.25 178.41,-16.75 168.41,-13.25 168.41,-20.25"/>
</a>
</g>
</g>
</g>
</svg>
