<?xml version="1.0" encoding="UTF-8" standalone="no"?>
<!DOCTYPE svg PUBLIC "-//W3C//DTD SVG 1.1//EN"
 "http://www.w3.org/Graphics/SVG/1.1/DTD/svg11.dtd">
<!-- Generated by graphviz version 13.1.2 (20250808.2320)
 -->
<!-- Title: kest_parse_dictionary Pages: 1 -->
<!--zoomable 1019 -->

<svg id="main" version="1.1" xmlns="http://www.w3.org/2000/svg" xmlns:xlink="http://www.w3.org/1999/xlink" xml:space="preserve" onload="init(evt)">

<style type="text/css"><![CDATA[
.node, .edge {opacity: 0.7;}
.node.selected, .edge.selected {opacity: 1;}
.edge:hover path { stroke: red; }
.edge:hover polygon { stroke: red; fill: red; }
]]></style>

<defs>
  <circle id="rim" cx="0" cy="0" r="7"/>
  <circle id="rim2" cx="0" cy="0" r="3.5"/>
  <g id="zoomPlus">
    <use xlink:href="#rim" fill="#404040"><set attributeName="fill" to="#808080" begin="zoomplus.mouseover" end="zoomplus.mouseout"/></use>
    <path d="M-4,0h8M0,-4v8" fill="none" stroke="white" stroke-width="1.5" pointer-events="none"/>
  </g>
  <g id="zoomMin">
    <use xlink:href="#rim" fill="#404040"><set attributeName="fill" to="#808080" begin="zoomminus.mouseover" end="zoomminus.mouseout"/></use>
    <path d="M-4,0h8" fill="none" stroke="white" stroke-width="1.5" pointer-events="none"/>
  </g>
  <g id="arrowUp" transform="translate(30 24)">
    <use xlink:href="#rim"/>
    <path pointer-events="none" fill="none" stroke="white" stroke-width="1.5" d="M0,-3.0v7 M-2.5,-0.5L0,-3.0L2.5,-0.5"/>
  </g>
  <g id="arrowRight" transform="rotate(90) translate(36 -43)">
    <use xlink:href="#rim"/>
    <path pointer-events="none" fill="none" stroke="white" stroke-width="1.5" d="M0,-3.0v7 M-2.5,-0.5L0,-3.0L2.5,-0.5"/>
  </g>
  <g id="arrowDown" transform="rotate(180) translate(-30 -48)">
    <use xlink:href="#rim"/>
    <path pointer-events="none" fill="none" stroke="white" stroke-width="1.5" d="M0,-3.0v7 M-2.5,-0.5L0,-3.0L2.5,-0.5"/>
  </g>
  <g id="arrowLeft" transform="rotate(270) translate(-36 17)">
    <use xlink:href="#rim"/>
    <path pointer-events="none" fill="none" stroke="white" stroke-width="1.5" d="M0,-3.0v7 M-2.5,-0.5L0,-3.0L2.5,-0.5"/>
  </g>
  <g id="resetDef">
    <use xlink:href="#rim2" fill="#404040"><set attributeName="fill" to="#808080" begin="reset.mouseover" end="reset.mouseout"/></use>
  </g>
</defs>
<script type="application/ecmascript">
var viewWidth = 1099;
var viewHeight = 1019;
var sectionId = 'dynsection-7';
</script>
<script type="application/ecmascript" xlink:href="svg.min.js"/>
<svg id="graph" class="graph">
<g id="viewport">
<title>kest_parse_dictionary</title>
<!-- Node1 -->
<g id="Node000001" class="node">
<title>Node1</title>
<g id="a_Node000001"><a xlink:title=" ">
<polygon fill="#999999" stroke="#666666" points="122.5,-441.56 0,-441.56 0,-420.81 122.5,-420.81 122.5,-441.56"/>
<text xml:space="preserve" text-anchor="middle" x="61.25" y="-428.06" font-family="Helvetica,sans-Serif" font-size="10.00">kest_parse_dictionary</text>
</a>
</g>
</g>
<!-- Node2 -->
<g id="Node000002" class="node">
<title>Node2</title>
<g id="a_Node000002"><a xlink:href="kest__dictionary_8c.html#acc0b5644c510feefba50797abb9f3d87" target="_top" xlink:title=" ">
<polygon fill="white" stroke="#666666" points="617.12,-881.93 503.62,-881.93 503.62,-848.43 617.12,-848.43 617.12,-881.93"/>
<text xml:space="preserve" text-anchor="start" x="511.62" y="-868.43" font-family="Helvetica,sans-Serif" font-size="10.00">kest_dictionary_add</text>
<text xml:space="preserve" text-anchor="middle" x="560.38" y="-855.68" font-family="Helvetica,sans-Serif" font-size="10.00">_entry</text>
</a>
</g>
</g>
<!-- Node1&#45;&gt;Node2 -->
<g id="edge1_Node000001_Node000002" class="edge">
<title>Node1&#45;&gt;Node2</title>
<g id="a_edge1_Node000001_Node000002"><a xlink:title=" ">
<path fill="none" stroke="#63b8ff" d="M79.35,-441.95C118.72,-466.35 219.38,-526.48 310.25,-562.18 373.97,-587.21 413.38,-551.14 459,-602.18 530,-681.62 428.94,-755.6 495,-839.18 495.34,-839.61 495.68,-840.03 496.03,-840.44"/>
<polygon fill="#63b8ff" stroke="#63b8ff" points="493.57,-842.93 503.31,-847.1 498.3,-837.76 493.57,-842.93"/>
</a>
</g>
</g>
<!-- Node8 -->
<g id="Node000008" class="node">
<title>Node8</title>
<g id="a_Node000008"><a xlink:href="kest__error__codes_8c.html#a0f4c77127bc0b77264a21104979c576a" target="_top" xlink:title=" ">
<polygon fill="white" stroke="#666666" points="270.5,-682.93 162.25,-682.93 162.25,-649.43 270.5,-649.43 270.5,-682.93"/>
<text xml:space="preserve" text-anchor="start" x="170.25" y="-669.43" font-family="Helvetica,sans-Serif" font-size="10.00">kest_error_code_to</text>
<text xml:space="preserve" text-anchor="middle" x="216.38" y="-656.68" font-family="Helvetica,sans-Serif" font-size="10.00">_string</text>
</a>
</g>
</g>
<!-- Node1&#45;&gt;Node8 -->
<g id="edge7_Node000001_Node000008" class="edge">
<title>Node1&#45;&gt;Node8</title>
<g id="a_edge7_Node000001_Node000008"><a xlink:title=" ">
<path fill="none" stroke="#63b8ff" d="M64.75,-441.84C72.91,-474.52 101.53,-574.79 158.5,-635.18 161.01,-637.84 163.8,-640.32 166.75,-642.63"/>
<polygon fill="#63b8ff" stroke="#63b8ff" points="164.56,-645.37 174.77,-648.18 168.54,-639.61 164.56,-645.37"/>
</a>
</g>
</g>
<!-- Node9 -->
<g id="Node000009" class="node">
<title>Node9</title>
<g id="a_Node000009"><a xlink:href="kest__dictionary_8c.html#aa3d79179f434138316e0d3a4c7315ace" target="_top" xlink:title=" ">
<polygon fill="white" stroke="#666666" points="274.25,-972.56 158.5,-972.56 158.5,-951.81 274.25,-951.81 274.25,-972.56"/>
<text xml:space="preserve" text-anchor="middle" x="216.38" y="-959.06" font-family="Helvetica,sans-Serif" font-size="10.00">kest_new_dictionary</text>
</a>
</g>
</g>
<!-- Node1&#45;&gt;Node9 -->
<g id="edge8_Node000001_Node000009" class="edge">
<title>Node1&#45;&gt;Node9</title>
<g id="a_edge8_Node000001_Node000009"><a xlink:title=" ">
<path fill="none" stroke="#63b8ff" d="M65.31,-441.79C84.03,-506.71 183.18,-850.54 209.15,-940.58"/>
<polygon fill="#63b8ff" stroke="#63b8ff" points="205.76,-941.46 211.89,-950.1 212.48,-939.52 205.76,-941.46"/>
</a>
</g>
</g>
<!-- Node11 -->
<g id="Node000011" class="node">
<title>Node11</title>
<g id="a_Node000011"><a xlink:href="kest__dictionary_8c.html#af0aceaa93cba06fd44ad4bc50f2418e4" target="_top" xlink:title=" ">
<polygon fill="white" stroke="#666666" points="272.38,-441.56 160.38,-441.56 160.38,-420.81 272.38,-420.81 272.38,-441.56"/>
<text xml:space="preserve" text-anchor="middle" x="216.38" y="-428.06" font-family="Helvetica,sans-Serif" font-size="10.00">kest_parse_dict_val</text>
</a>
</g>
</g>
<!-- Node1&#45;&gt;Node11 -->
<g id="edge11_Node000001_Node000011" class="edge">
<title>Node1&#45;&gt;Node11</title>
<g id="a_edge11_Node000001_Node000011"><a xlink:title=" ">
<path fill="none" stroke="#63b8ff" d="M122.77,-424.57C131.37,-424.42 140.26,-424.39 148.96,-424.49"/>
<polygon fill="#63b8ff" stroke="#63b8ff" points="148.7,-427.98 158.76,-424.65 148.82,-420.98 148.7,-427.98"/>
</a>
</g>
</g>
<!-- Node33 -->
<g id="Node000033" class="node">
<title>Node33</title>
<g id="a_Node000033"><a xlink:href="kest__tokenizer_8c.html#a80f42a6d7dc2f3a8c6d90aa277211d1d" target="_top" xlink:title=" ">
<polygon fill="white" stroke="#666666" points="623.5,-313.56 497.25,-313.56 497.25,-292.81 623.5,-292.81 623.5,-313.56"/>
<text xml:space="preserve" text-anchor="middle" x="560.38" y="-300.06" font-family="Helvetica,sans-Serif" font-size="10.00">kest_token_ll_advance</text>
</a>
</g>
</g>
<!-- Node1&#45;&gt;Node33 -->
<g id="edge57_Node000001_Node000033" class="edge">
<title>Node1&#45;&gt;Node33</title>
<g id="a_edge57_Node000001_Node000033"><a xlink:title=" ">
<path fill="none" stroke="#63b8ff" d="M79.77,-420.43C119.21,-396.87 218.65,-340.97 310.25,-318.18 367.98,-303.82 435.45,-300.55 485.6,-300.6"/>
<polygon fill="#63b8ff" stroke="#63b8ff" points="485.46,-304.1 495.48,-300.66 485.5,-297.1 485.46,-304.1"/>
</a>
</g>
</g>
<!-- Node34 -->
<g id="Node000034" class="node">
<title>Node34</title>
<g id="a_Node000034"><a xlink:href="kest__tokenizer_8c.html#ac5a6cd7c57f40df38ad2abd938b8b200" target="_top" xlink:title=" ">
<polygon fill="white" stroke="#666666" points="622.38,-199.56 498.38,-199.56 498.38,-178.81 622.38,-178.81 622.38,-199.56"/>
<text xml:space="preserve" text-anchor="middle" x="560.38" y="-186.06" font-family="Helvetica,sans-Serif" font-size="10.00">kest_token_ll_skip_ws</text>
</a>
</g>
</g>
<!-- Node1&#45;&gt;Node34 -->
<g id="edge58_Node000001_Node000034" class="edge">
<title>Node1&#45;&gt;Node34</title>
<g id="a_edge58_Node000001_Node000034"><a xlink:title=" ">
<path fill="none" stroke="#63b8ff" d="M69.87,-420.4C97.14,-382.88 194.45,-257.84 310.25,-213.18 366.79,-191.38 435.65,-186.21 486.64,-186.02"/>
<polygon fill="#63b8ff" stroke="#63b8ff" points="486.36,-189.52 496.37,-186.05 486.39,-182.52 486.36,-189.52"/>
</a>
</g>
</g>
<!-- Node51 -->
<g id="Node000051" class="node">
<title>Node51</title>
<g id="a_Node000051"><a xlink:href="kest__eff__parser_8c.html#aee5c1435aac9ead9b0c5c692c7c621ec" target="_top" xlink:title=" ">
<polygon fill="#fff0f0" stroke="red" points="783.5,-84.56 667.75,-84.56 667.75,-63.81 783.5,-63.81 783.5,-84.56"/>
<text xml:space="preserve" text-anchor="middle" x="725.62" y="-71.06" font-family="Helvetica,sans-Serif" font-size="10.00">kest_parser_error_at</text>
</a>
</g>
</g>
<!-- Node1&#45;&gt;Node51 -->
<g id="edge55_Node000001_Node000051" class="edge">
<title>Node1&#45;&gt;Node51</title>
<g id="a_edge55_Node000001_Node000051"><a xlink:title=" ">
<path fill="none" stroke="#63b8ff" d="M65.16,-420.36C74.28,-388.06 104.94,-290.67 158.5,-228.18 211.55,-166.29 238.54,-163.95 310.25,-125.18 437.22,-56.54 482.6,-29.68 625.75,-48.18 644.23,-50.57 664.19,-55.38 681.3,-60.21"/>
<polygon fill="#63b8ff" stroke="#63b8ff" points="680.05,-63.49 690.63,-62.94 682.02,-56.77 680.05,-63.49"/>
</a>
</g>
</g>
<!-- Node53 -->
<g id="Node000053" class="node">
<title>Node53</title>
<g id="a_Node000053"><a xlink:href="kest__tokenizer_8c.html#a713c477a645ef8a6abfd4cb4e257b53c" target="_top" xlink:title=" ">
<polygon fill="#fff0f0" stroke="red" points="770.38,-23.56 680.88,-23.56 680.88,-2.81 770.38,-2.81 770.38,-23.56"/>
<text xml:space="preserve" text-anchor="middle" x="725.62" y="-10.06" font-family="Helvetica,sans-Serif" font-size="10.00">token_is_name</text>
</a>
</g>
</g>
<!-- Node1&#45;&gt;Node53 -->
<g id="edge59_Node000001_Node000053" class="edge">
<title>Node1&#45;&gt;Node53</title>
<g id="a_edge59_Node000001_Node000053"><a xlink:title=" ">
<path fill="none" stroke="#63b8ff" d="M63.11,-420.38C66.88,-379.34 85.23,-230.8 158.5,-140.18 283.56,14.49 552.53,6.11 668.99,-5.81"/>
<polygon fill="#63b8ff" stroke="#63b8ff" points="668.61,-9.29 678.93,-6.88 669.36,-2.33 668.61,-9.29"/>
</a>
</g>
</g>
<!-- Node60 -->
<g id="Node000060" class="node">
<title>Node60</title>
<g id="a_Node000060"><a xlink:href="kest__eff__parser_8c.html#a06afc65a973778a4d6bd160064e72253" target="_top" xlink:title=" ">
<polygon fill="white" stroke="#666666" points="441.75,-631.56 327.5,-631.56 327.5,-610.81 441.75,-610.81 441.75,-631.56"/>
<text xml:space="preserve" text-anchor="middle" x="384.62" y="-618.06" font-family="Helvetica,sans-Serif" font-size="10.00">kest_parser_strndup</text>
</a>
</g>
</g>
<!-- Node1&#45;&gt;Node60 -->
<g id="edge56_Node000001_Node000060" class="edge">
<title>Node1&#45;&gt;Node60</title>
<g id="a_edge56_Node000001_Node000060"><a xlink:title=" ">
<path fill="none" stroke="#63b8ff" d="M64.77,-441.65C72.64,-471.79 99.82,-559.09 158.5,-597.18 204.79,-627.23 268.04,-631.54 315.71,-629.3"/>
<polygon fill="#63b8ff" stroke="#63b8ff" points="315.87,-632.8 325.65,-628.71 315.46,-625.81 315.87,-632.8"/>
</a>
</g>
</g>
<!-- Node3 -->
<g id="Node000003" class="node">
<title>Node3</title>
<g id="a_Node000003"><a xlink:href="kest__dictionary_8c.html#a674edf8d06b6583a366c336ec755c20e" target="_top" xlink:title=" ">
<polygon fill="white" stroke="#666666" points="789.5,-845.93 661.75,-845.93 661.75,-812.43 789.5,-812.43 789.5,-845.93"/>
<text xml:space="preserve" text-anchor="start" x="669.75" y="-832.43" font-family="Helvetica,sans-Serif" font-size="10.00">kest_dictionary_bucket</text>
<text xml:space="preserve" text-anchor="middle" x="725.62" y="-819.68" font-family="Helvetica,sans-Serif" font-size="10.00">_add_entry</text>
</a>
</g>
</g>
<!-- Node2&#45;&gt;Node3 -->
<g id="edge2_Node000002_Node000003" class="edge">
<title>Node2&#45;&gt;Node3</title>
<g id="a_edge2_Node000002_Node000003"><a xlink:title=" ">
<path fill="none" stroke="#63b8ff" d="M617.56,-852.79C628.14,-850.46 639.36,-847.99 650.39,-845.55"/>
<polygon fill="#63b8ff" stroke="#63b8ff" points="650.85,-849.04 659.86,-843.46 649.34,-842.2 650.85,-849.04"/>
</a>
</g>
</g>
<!-- Node7 -->
<g id="Node000007" class="node">
<title>Node7</title>
<g id="a_Node000007"><a xlink:href="kest__dictionary_8c.html#ab04009ad2902fc35ca82579760556eb5" target="_top" xlink:title=" ">
<polygon fill="white" stroke="#666666" points="954,-895.93 825.5,-895.93 825.5,-862.43 954,-862.43 954,-895.93"/>
<text xml:space="preserve" text-anchor="start" x="833.5" y="-882.43" font-family="Helvetica,sans-Serif" font-size="10.00">kest_dictionary_ensure</text>
<text xml:space="preserve" text-anchor="middle" x="889.75" y="-869.68" font-family="Helvetica,sans-Serif" font-size="10.00">_capacity</text>
</a>
</g>
</g>
<!-- Node2&#45;&gt;Node7 -->
<g id="edge5_Node000002_Node000007" class="edge">
<title>Node2&#45;&gt;Node7</title>
<g id="a_edge5_Node000002_Node000007"><a xlink:title=" ">
<path fill="none" stroke="#63b8ff" d="M617.28,-867.57C671.5,-869.89 754.11,-873.42 813.96,-875.98"/>
<polygon fill="#63b8ff" stroke="#63b8ff" points="813.58,-879.47 823.72,-876.4 813.88,-872.48 813.58,-879.47"/>
</a>
</g>
</g>
<!-- Node4 -->
<g id="Node000004" class="node">
<title>Node4</title>
<g id="a_Node000004"><a xlink:href="kest__dictionary_8c.html#acd9014ad851b1e82c27acf4d4b4bd13e" target="_top" xlink:title=" ">
<polygon fill="white" stroke="#666666" points="953.62,-843.93 825.88,-843.93 825.88,-810.43 953.62,-810.43 953.62,-843.93"/>
<text xml:space="preserve" text-anchor="start" x="833.88" y="-830.43" font-family="Helvetica,sans-Serif" font-size="10.00">kest_dictionary_bucket</text>
<text xml:space="preserve" text-anchor="middle" x="889.75" y="-817.68" font-family="Helvetica,sans-Serif" font-size="10.00">_ensure_capacity</text>
</a>
</g>
</g>
<!-- Node3&#45;&gt;Node4 -->
<g id="edge3_Node000003_Node000004" class="edge">
<title>Node3&#45;&gt;Node4</title>
<g id="a_edge3_Node000003_Node000004"><a xlink:title=" ">
<path fill="none" stroke="#63b8ff" d="M789.77,-828.4C797.75,-828.3 805.97,-828.2 814.1,-828.1"/>
<polygon fill="#63b8ff" stroke="#63b8ff" points="814.04,-831.6 824,-827.98 813.95,-824.6 814.04,-831.6"/>
</a>
</g>
</g>
<!-- Node5 -->
<g id="Node000005" class="node">
<title>Node5</title>
<g id="a_Node000005"><a xlink:href="kest__eff__parser_8c.html#ae0a87c76dcbf2248bb57755c7e76c08d" target="_top" xlink:title=" ">
<polygon fill="#fff0f0" stroke="red" points="1090.75,-889.56 990,-889.56 990,-868.81 1090.75,-868.81 1090.75,-889.56"/>
<text xml:space="preserve" text-anchor="middle" x="1040.38" y="-876.06" font-family="Helvetica,sans-Serif" font-size="10.00">kest_parser_alloc</text>
</a>
</g>
</g>
<!-- Node4&#45;&gt;Node5 -->
<g id="edge4_Node000004_Node000005" class="edge">
<title>Node4&#45;&gt;Node5</title>
<g id="a_edge4_Node000004_Node000005"><a xlink:title=" ">
<path fill="none" stroke="#63b8ff" d="M939.83,-844.35C958.59,-850.92 979.79,-858.34 997.79,-864.63"/>
<polygon fill="#63b8ff" stroke="#63b8ff" points="996.51,-867.89 1007.11,-867.89 998.83,-861.29 996.51,-867.89"/>
</a>
</g>
</g>
<!-- Node7&#45;&gt;Node5 -->
<g id="edge6_Node000007_Node000005" class="edge">
<title>Node7&#45;&gt;Node5</title>
<g id="a_edge6_Node000007_Node000005"><a xlink:title=" ">
<path fill="none" stroke="#63b8ff" d="M954.21,-879.18C962.16,-879.18 970.28,-879.18 978.2,-879.18"/>
<polygon fill="#63b8ff" stroke="#63b8ff" points="978.09,-882.68 988.09,-879.18 978.09,-875.68 978.09,-882.68"/>
</a>
</g>
</g>
<!-- Node9&#45;&gt;Node5 -->
<g id="edge10_Node000009_Node000005" class="edge">
<title>Node9&#45;&gt;Node5</title>
<g id="a_edge10_Node000009_Node000005"><a xlink:title=" ">
<path fill="none" stroke="#63b8ff" d="M274.56,-962.18C342.47,-962.18 459.18,-962.18 559.38,-962.18 559.38,-962.18 559.38,-962.18 726.62,-962.18 828.94,-962.18 857.21,-959.35 954,-926.18 975.47,-918.82 997.89,-906.27 1014.36,-895.99"/>
<polygon fill="#63b8ff" stroke="#63b8ff" points="1015.98,-899.11 1022.51,-890.76 1012.2,-893.21 1015.98,-899.11"/>
</a>
</g>
</g>
<!-- Node10 -->
<g id="Node000010" class="node">
<title>Node10</title>
<g id="a_Node000010"><a xlink:href="kest__dictionary_8c.html#ac839aed3efe7ed86374a081ccb6263ad" target="_top" xlink:title=" ">
<polygon fill="white" stroke="#666666" points="459,-1010.56 310.25,-1010.56 310.25,-989.81 459,-989.81 459,-1010.56"/>
<text xml:space="preserve" text-anchor="middle" x="384.62" y="-997.06" font-family="Helvetica,sans-Serif" font-size="10.00">kest_dictionary_bucket_init</text>
</a>
</g>
</g>
<!-- Node9&#45;&gt;Node10 -->
<g id="edge9_Node000009_Node000010" class="edge">
<title>Node9&#45;&gt;Node10</title>
<g id="a_edge9_Node000009_Node000010"><a xlink:title=" ">
<path fill="none" stroke="#63b8ff" d="M264.57,-972.97C283.44,-977.28 305.36,-982.29 325.21,-986.83"/>
<polygon fill="#63b8ff" stroke="#63b8ff" points="324.31,-990.21 334.84,-989.03 325.87,-983.39 324.31,-990.21"/>
</a>
</g>
</g>
<!-- Node11&#45;&gt;Node1 -->
<g id="edge41_Node000011_Node000001" class="edge">
<title>Node11&#45;&gt;Node1</title>
<g id="a_edge41_Node000011_Node000001"><a xlink:title=" ">
<path fill="none" stroke="#63b8ff" d="M160.27,-437.69C151.81,-437.89 142.96,-437.96 134.2,-437.92"/>
<polygon fill="#63b8ff" stroke="#63b8ff" points="134.32,-434.42 124.28,-437.82 134.24,-441.42 134.32,-434.42"/>
</a>
</g>
</g>
<!-- Node12 -->
<g id="Node000012" class="node">
<title>Node12</title>
<g id="a_Node000012"><a xlink:href="kest__dictionary_8c.html#a298bc3ea15bffee0e485de36aea099c2" target="_top" xlink:title=" ">
<polygon fill="white" stroke="#666666" points="613,-441.93 507.75,-441.93 507.75,-408.43 613,-408.43 613,-441.93"/>
<text xml:space="preserve" text-anchor="start" x="515.75" y="-428.43" font-family="Helvetica,sans-Serif" font-size="10.00">kest_dict_entry_to</text>
<text xml:space="preserve" text-anchor="middle" x="560.38" y="-415.68" font-family="Helvetica,sans-Serif" font-size="10.00">_string</text>
</a>
</g>
</g>
<!-- Node11&#45;&gt;Node12 -->
<g id="edge12_Node000011_Node000012" class="edge">
<title>Node11&#45;&gt;Node12</title>
<g id="a_edge12_Node000011_Node000012"><a xlink:title=" ">
<path fill="none" stroke="#63b8ff" d="M272.72,-440.91C285.03,-442.69 298.05,-444.27 310.25,-445.18 376.18,-450.12 393.21,-451.67 459,-445.18 471.12,-443.99 483.94,-442 496.22,-439.73"/>
<polygon fill="#63b8ff" stroke="#63b8ff" points="496.67,-443.2 505.83,-437.86 495.34,-436.33 496.67,-443.2"/>
</a>
</g>
</g>
<!-- Node24 -->
<g id="Node000024" class="node">
<title>Node24</title>
<g id="a_Node000024"><a xlink:href="kest__string_8c.html#ad346e7c1a0b506f7eca9423a05b47f11" target="_top" xlink:title=" ">
<polygon fill="white" stroke="#666666" points="781.25,-366.56 670,-366.56 670,-345.81 781.25,-345.81 781.25,-366.56"/>
<text xml:space="preserve" text-anchor="middle" x="725.62" y="-353.06" font-family="Helvetica,sans-Serif" font-size="10.00">kest_string_destroy</text>
</a>
</g>
</g>
<!-- Node11&#45;&gt;Node24 -->
<g id="edge51_Node000011_Node000024" class="edge">
<title>Node11&#45;&gt;Node24</title>
<g id="a_edge51_Node000011_Node000024"><a xlink:title=" ">
<path fill="none" stroke="#63b8ff" d="M222.85,-420.34C235.06,-397.34 266.93,-343.71 310.25,-318.18 382.18,-275.8 411.86,-291.77 495,-284.18 552.87,-278.9 570.49,-266.2 625.75,-284.18 657.85,-294.63 688.22,-319.87 706.62,-337.5"/>
<polygon fill="#63b8ff" stroke="#63b8ff" points="704,-339.83 713.57,-344.38 708.93,-334.86 704,-339.83"/>
</a>
</g>
</g>
<!-- Node26 -->
<g id="Node000026" class="node">
<title>Node26</title>
<g id="a_Node000026"><a xlink:href="kest__alloc_8c.html#a294af5728a94aa316fcf65304d388d48" target="_top" xlink:title=" ">
<polygon fill="white" stroke="#666666" points="590.88,-830.56 529.88,-830.56 529.88,-809.81 590.88,-809.81 590.88,-830.56"/>
<text xml:space="preserve" text-anchor="middle" x="560.38" y="-817.06" font-family="Helvetica,sans-Serif" font-size="10.00">kest_free</text>
</a>
</g>
</g>
<!-- Node11&#45;&gt;Node26 -->
<g id="edge22_Node000011_Node000026" class="edge">
<title>Node11&#45;&gt;Node26</title>
<g id="a_edge22_Node000011_Node000026"><a xlink:title=" ">
<path fill="none" stroke="#63b8ff" d="M224.76,-441.76C239.01,-461.38 272.24,-503.45 310.25,-526.18 369.31,-561.51 413.45,-517.6 459,-569.18 526.61,-645.75 430.32,-717.12 495,-796.18 501.07,-803.6 509.67,-808.72 518.61,-812.27"/>
<polygon fill="#63b8ff" stroke="#63b8ff" points="517.51,-815.59 528.11,-815.38 519.69,-808.94 517.51,-815.59"/>
</a>
</g>
</g>
<!-- Node27 -->
<g id="Node000027" class="node">
<title>Node27</title>
<g id="a_Node000027"><a xlink:href="kest__dictionary_8c.html#a8db4f9c511b00d7240052135e9c1ed67" target="_top" xlink:title=" ">
<polygon fill="white" stroke="#666666" points="440.62,-517.56 328.62,-517.56 328.62,-496.81 440.62,-496.81 440.62,-517.56"/>
<text xml:space="preserve" text-anchor="middle" x="384.62" y="-504.06" font-family="Helvetica,sans-Serif" font-size="10.00">kest_parse_dict_list</text>
</a>
</g>
</g>
<!-- Node11&#45;&gt;Node27 -->
<g id="edge23_Node000011_Node000027" class="edge">
<title>Node11&#45;&gt;Node27</title>
<g id="a_edge23_Node000011_Node000027"><a xlink:title=" ">
<path fill="none" stroke="#63b8ff" d="M247.15,-441.96C265.01,-451.48 288.42,-464.61 310.25,-474.18 325.75,-480.98 343.8,-486.91 358.13,-492.25"/>
<polygon fill="#63b8ff" stroke="#63b8ff" points="356.7,-495.45 367.29,-495.86 359.27,-488.94 356.7,-495.45"/>
</a>
</g>
</g>
<!-- Node31 -->
<g id="Node000031" class="node">
<title>Node31</title>
<g id="a_Node000031"><a xlink:href="kest__string_8c.html#a476a3ace857a6df4b94057b078a5bcb3" target="_top" xlink:title=" ">
<polygon fill="#fff0f0" stroke="red" points="620.5,-352.56 500.25,-352.56 500.25,-331.81 620.5,-331.81 620.5,-352.56"/>
<text xml:space="preserve" text-anchor="middle" x="560.38" y="-339.06" font-family="Helvetica,sans-Serif" font-size="10.00">kest_string_to_native</text>
</a>
</g>
</g>
<!-- Node11&#45;&gt;Node31 -->
<g id="edge52_Node000011_Node000031" class="edge">
<title>Node11&#45;&gt;Node31</title>
<g id="a_edge52_Node000011_Node000031"><a xlink:title=" ">
<path fill="none" stroke="#63b8ff" d="M272.7,-438.96C324.09,-443.49 401.16,-443.23 459,-412.18 481.87,-399.9 474.05,-381.51 495,-366.18 499.4,-362.96 504.28,-360.13 509.33,-357.64"/>
<polygon fill="#63b8ff" stroke="#63b8ff" points="510.71,-360.86 518.45,-353.63 507.89,-354.45 510.71,-360.86"/>
</a>
</g>
</g>
<!-- Node11&#45;&gt;Node33 -->
<g id="edge53_Node000011_Node000033" class="edge">
<title>Node11&#45;&gt;Node33</title>
<g id="a_edge53_Node000011_Node000033"><a xlink:title=" ">
<path fill="none" stroke="#63b8ff" d="M228.06,-420.49C244.34,-404.82 276.99,-375.79 310.25,-360.18 341.21,-345.65 425.22,-327.95 487.16,-316.17"/>
<polygon fill="#63b8ff" stroke="#63b8ff" points="487.79,-319.61 496.96,-314.32 486.49,-312.73 487.79,-319.61"/>
</a>
</g>
</g>
<!-- Node35 -->
<g id="Node000035" class="node">
<title>Node35</title>
<g id="a_Node000035"><a xlink:href="kest__expr__parser_8c.html#a7caaee6c8b0c14b3ff08fba98d837ead" target="_top" xlink:title=" ">
<polygon fill="white" stroke="#666666" points="448.12,-154.56 321.12,-154.56 321.12,-133.81 448.12,-133.81 448.12,-154.56"/>
<text xml:space="preserve" text-anchor="middle" x="384.62" y="-141.06" font-family="Helvetica,sans-Serif" font-size="10.00">kest_parse_expression</text>
</a>
</g>
</g>
<!-- Node11&#45;&gt;Node35 -->
<g id="edge42_Node000011_Node000035" class="edge">
<title>Node11&#45;&gt;Node35</title>
<g id="a_edge42_Node000011_Node000035"><a xlink:title=" ">
<path fill="none" stroke="#63b8ff" d="M220.24,-420.41C229.4,-387.27 260.33,-284.7 310.25,-213.18 324.14,-193.29 344.53,-174.69 360.29,-161.82"/>
<polygon fill="#63b8ff" stroke="#63b8ff" points="362.11,-164.85 367.77,-155.89 357.76,-159.36 362.11,-164.85"/>
</a>
</g>
</g>
<!-- Node11&#45;&gt;Node51 -->
<g id="edge48_Node000011_Node000051" class="edge">
<title>Node11&#45;&gt;Node51</title>
<g id="a_edge48_Node000011_Node000051"><a xlink:title=" ">
<path fill="none" stroke="#63b8ff" d="M220.78,-420.54C230.18,-392.95 259.21,-318.76 310.25,-282.18 427.31,-198.28 505.49,-287.44 625.75,-208.18 669.2,-179.54 700.43,-124.93 715.15,-95.03"/>
<polygon fill="#63b8ff" stroke="#63b8ff" points="718.19,-96.78 719.32,-86.25 711.86,-93.78 718.19,-96.78"/>
</a>
</g>
</g>
<!-- Node11&#45;&gt;Node60 -->
<g id="edge49_Node000011_Node000060" class="edge">
<title>Node11&#45;&gt;Node60</title>
<g id="a_edge49_Node000011_Node000060"><a xlink:title=" ">
<path fill="none" stroke="#63b8ff" d="M223.82,-441.78C237.93,-464.56 273.26,-519.35 310.25,-559.18 325.57,-575.68 345.13,-592.02 360.21,-603.78"/>
<polygon fill="#63b8ff" stroke="#63b8ff" points="357.67,-606.24 367.73,-609.55 361.93,-600.68 357.67,-606.24"/>
</a>
</g>
</g>
<!-- Node61 -->
<g id="Node000061" class="node">
<title>Node61</title>
<g id="a_Node000061"><a xlink:href="kest__tokenizer_8c.html#a771250b5b92e15569b913f03fecc1fb2" target="_top" xlink:title=" ">
<polygon fill="white" stroke="#666666" points="439.88,-402.93 329.38,-402.93 329.38,-369.43 439.88,-369.43 439.88,-402.93"/>
<text xml:space="preserve" text-anchor="start" x="337.38" y="-389.43" font-family="Helvetica,sans-Serif" font-size="10.00">token_is_dict_entry</text>
<text xml:space="preserve" text-anchor="middle" x="384.62" y="-376.68" font-family="Helvetica,sans-Serif" font-size="10.00">_seperator</text>
</a>
</g>
</g>
<!-- Node11&#45;&gt;Node61 -->
<g id="edge54_Node000011_Node000061" class="edge">
<title>Node11&#45;&gt;Node61</title>
<g id="a_edge54_Node000011_Node000061"><a xlink:title=" ">
<path fill="none" stroke="#63b8ff" d="M257.2,-420.4C275.44,-415.47 297.53,-409.48 318.12,-403.91"/>
<polygon fill="#63b8ff" stroke="#63b8ff" points="318.85,-407.34 327.58,-401.35 317.02,-400.59 318.85,-407.34"/>
</a>
</g>
</g>
<!-- Node12&#45;&gt;Node12 -->
<g id="edge14_Node000012_Node000012" class="edge">
<title>Node12&#45;&gt;Node12</title>
<g id="a_edge14_Node000012_Node000012"><a xlink:title=" ">
<path fill="none" stroke="#63b8ff" d="M530.67,-442.35C525.62,-451.55 535.52,-459.93 560.38,-459.93 574.35,-459.93 583.6,-457.28 588.12,-453.32"/>
<polygon fill="#63b8ff" stroke="#63b8ff" points="591.5,-454.3 589.81,-443.84 584.61,-453.07 591.5,-454.3"/>
</a>
</g>
</g>
<!-- Node13 -->
<g id="Node000013" class="node">
<title>Node13</title>
<g id="a_Node000013"><a xlink:href="kest__alloc_8c.html#a4bb52284828149d9a740bac0c9706ecd" target="_top" xlink:title=" ">
<polygon fill="#fff0f0" stroke="red" points="782,-623.56 669.25,-623.56 669.25,-602.81 782,-602.81 782,-623.56"/>
<text xml:space="preserve" text-anchor="middle" x="725.62" y="-610.06" font-family="Helvetica,sans-Serif" font-size="10.00">kest_allocator_alloc</text>
</a>
</g>
</g>
<!-- Node12&#45;&gt;Node13 -->
<g id="edge13_Node000012_Node000013" class="edge">
<title>Node12&#45;&gt;Node13</title>
<g id="a_edge13_Node000012_Node000013"><a xlink:title=" ">
<path fill="none" stroke="#63b8ff" d="M594.82,-442.29C605.93,-449.34 617.55,-458.41 625.75,-469.18 655.64,-508.43 631,-535.6 661.75,-574.18 669.08,-583.37 679.2,-590.98 689.18,-596.95"/>
<polygon fill="#63b8ff" stroke="#63b8ff" points="687.24,-599.88 697.68,-601.65 690.62,-593.75 687.24,-599.88"/>
</a>
</g>
</g>
<!-- Node15 -->
<g id="Node000015" class="node">
<title>Node15</title>
<g id="a_Node000015"><a xlink:href="kest__expression_8c.html#aadf2a6a074cb1ad7b45893704cbd71c3" target="_top" xlink:title=" ">
<polygon fill="#fff0f0" stroke="red" points="780.5,-495.93 670.75,-495.93 670.75,-462.43 780.5,-462.43 780.5,-495.93"/>
<text xml:space="preserve" text-anchor="start" x="678.75" y="-482.43" font-family="Helvetica,sans-Serif" font-size="10.00">kest_expression_to</text>
<text xml:space="preserve" text-anchor="middle" x="725.62" y="-469.68" font-family="Helvetica,sans-Serif" font-size="10.00">_string</text>
</a>
</g>
</g>
<!-- Node12&#45;&gt;Node15 -->
<g id="edge15_Node000012_Node000015" class="edge">
<title>Node12&#45;&gt;Node15</title>
<g id="a_edge15_Node000012_Node000015"><a xlink:title=" ">
<path fill="none" stroke="#63b8ff" d="M613.48,-442.42C628.87,-447.51 645.88,-453.13 661.86,-458.42"/>
<polygon fill="#63b8ff" stroke="#63b8ff" points="660.71,-461.73 671.3,-461.54 662.91,-455.08 660.71,-461.73"/>
</a>
</g>
</g>
<!-- Node20 -->
<g id="Node000020" class="node">
<title>Node20</title>
<g id="a_Node000020"><a xlink:href="kest__string_8c.html#a2f2e64515d872efab6ae1974554b5d5c" target="_top" xlink:title=" ">
<polygon fill="white" stroke="#666666" points="780.88,-565.56 670.38,-565.56 670.38,-544.81 780.88,-544.81 780.88,-565.56"/>
<text xml:space="preserve" text-anchor="middle" x="725.62" y="-552.06" font-family="Helvetica,sans-Serif" font-size="10.00">kest_string_append</text>
</a>
</g>
</g>
<!-- Node12&#45;&gt;Node20 -->
<g id="edge16_Node000012_Node000020" class="edge">
<title>Node12&#45;&gt;Node20</title>
<g id="a_edge16_Node000012_Node000020"><a xlink:title=" ">
<path fill="none" stroke="#63b8ff" d="M588.81,-442.31C600.55,-450.04 614.18,-459.59 625.75,-469.18 643.17,-483.63 644.87,-490.12 661.75,-505.18 674.31,-516.39 689.01,-528.15 701.03,-537.44"/>
<polygon fill="#63b8ff" stroke="#63b8ff" points="698.74,-540.1 708.81,-543.39 702.99,-534.54 698.74,-540.1"/>
</a>
</g>
</g>
<!-- Node21 -->
<g id="Node000021" class="node">
<title>Node21</title>
<g id="a_Node000021"><a xlink:href="kest__string_8c.html#a5e8184b1f070fc74a7d1d2f08c4d9658" target="_top" xlink:title=" ">
<polygon fill="white" stroke="#666666" points="782.75,-678.56 668.5,-678.56 668.5,-657.81 782.75,-657.81 782.75,-678.56"/>
<text xml:space="preserve" text-anchor="middle" x="725.62" y="-665.06" font-family="Helvetica,sans-Serif" font-size="10.00">kest_string_appendf</text>
</a>
</g>
</g>
<!-- Node12&#45;&gt;Node21 -->
<g id="edge17_Node000012_Node000021" class="edge">
<title>Node12&#45;&gt;Node21</title>
<g id="a_edge17_Node000012_Node000021"><a xlink:title=" ">
<path fill="none" stroke="#63b8ff" d="M596.52,-442.43C607.37,-449.35 618.4,-458.3 625.75,-469.18 667.29,-530.65 617.8,-572.41 661.75,-632.18 667.76,-640.35 676.22,-646.95 685,-652.15"/>
<polygon fill="#63b8ff" stroke="#63b8ff" points="683.12,-655.12 693.59,-656.73 686.41,-648.94 683.12,-655.12"/>
</a>
</g>
</g>
<!-- Node23 -->
<g id="Node000023" class="node">
<title>Node23</title>
<g id="a_Node000023"><a xlink:href="kest__string_8c.html#a0b1566bbaac339c306b950a97f9e81fc" target="_top" xlink:title=" ">
<polygon fill="white" stroke="#666666" points="779,-444.56 672.25,-444.56 672.25,-423.81 779,-423.81 779,-444.56"/>
<text xml:space="preserve" text-anchor="middle" x="725.62" y="-431.06" font-family="Helvetica,sans-Serif" font-size="10.00">kest_string_concat</text>
</a>
</g>
</g>
<!-- Node12&#45;&gt;Node23 -->
<g id="edge19_Node000012_Node000023" class="edge">
<title>Node12&#45;&gt;Node23</title>
<g id="a_edge19_Node000012_Node000023"><a xlink:title=" ">
<path fill="none" stroke="#63b8ff" d="M613.48,-428.05C628.49,-428.88 645.05,-429.8 660.7,-430.66"/>
<polygon fill="#63b8ff" stroke="#63b8ff" points="660.21,-434.14 670.39,-431.19 660.59,-427.15 660.21,-434.14"/>
</a>
</g>
</g>
<!-- Node12&#45;&gt;Node24 -->
<g id="edge20_Node000012_Node000024" class="edge">
<title>Node12&#45;&gt;Node24</title>
<g id="a_edge20_Node000012_Node000024"><a xlink:title=" ">
<path fill="none" stroke="#63b8ff" d="M597.17,-408.06C606.49,-403.57 616.51,-398.72 625.75,-394.18 641.81,-386.3 645.18,-382.91 661.75,-376.18 666.6,-374.21 671.73,-372.31 676.87,-370.51"/>
<polygon fill="#63b8ff" stroke="#63b8ff" points="677.58,-373.96 685.94,-367.46 675.35,-367.33 677.58,-373.96"/>
</a>
</g>
</g>
<!-- Node25 -->
<g id="Node000025" class="node">
<title>Node25</title>
<g id="a_Node000025"><a xlink:href="kest__string_8c.html#ab74edc9a2be32d899a92ef58edb16286" target="_top" xlink:title=" ">
<polygon fill="white" stroke="#666666" points="770.75,-405.56 680.5,-405.56 680.5,-384.81 770.75,-384.81 770.75,-405.56"/>
<text xml:space="preserve" text-anchor="middle" x="725.62" y="-392.06" font-family="Helvetica,sans-Serif" font-size="10.00">kest_string_init</text>
</a>
</g>
</g>
<!-- Node12&#45;&gt;Node25 -->
<g id="edge21_Node000012_Node000025" class="edge">
<title>Node12&#45;&gt;Node25</title>
<g id="a_edge21_Node000012_Node000025"><a xlink:title=" ">
<path fill="none" stroke="#63b8ff" d="M613.48,-415.61C631.17,-412.36 650.99,-408.71 668.95,-405.41"/>
<polygon fill="#63b8ff" stroke="#63b8ff" points="669.45,-408.88 678.66,-403.63 668.19,-401.99 669.45,-408.88"/>
</a>
</g>
</g>
<!-- Node22 -->
<g id="Node000022" class="node">
<title>Node22</title>
<g id="a_Node000022"><a xlink:href="kest__string_8c.html#ab38fd4531ec8be3f9c32f467f6808951" target="_top" xlink:title=" ">
<polygon fill="white" stroke="#666666" points="954,-697.56 825.5,-697.56 825.5,-676.81 954,-676.81 954,-697.56"/>
<text xml:space="preserve" text-anchor="middle" x="889.75" y="-684.06" font-family="Helvetica,sans-Serif" font-size="10.00">kest_string_append_str</text>
</a>
</g>
</g>
<!-- Node21&#45;&gt;Node22 -->
<g id="edge18_Node000021_Node000022" class="edge">
<title>Node21&#45;&gt;Node22</title>
<g id="a_edge18_Node000021_Node000022"><a xlink:title=" ">
<path fill="none" stroke="#63b8ff" d="M782.87,-674.77C792.88,-675.95 803.45,-677.19 813.87,-678.41"/>
<polygon fill="#63b8ff" stroke="#63b8ff" points="813.26,-681.86 823.6,-679.55 814.08,-674.91 813.26,-681.86"/>
</a>
</g>
</g>
<!-- Node27&#45;&gt;Node2 -->
<g id="edge25_Node000027_Node000002" class="edge">
<title>Node27&#45;&gt;Node2</title>
<g id="a_edge25_Node000027_Node000002"><a xlink:title=" ">
<path fill="none" stroke="#63b8ff" d="M405.08,-517.93C422.31,-528.56 446.59,-546.51 459,-569.18 517.13,-675.37 420.8,-743.53 495,-839.18 495.24,-839.49 495.49,-839.8 495.74,-840.11"/>
<polygon fill="#63b8ff" stroke="#63b8ff" points="493.29,-842.6 502.96,-846.92 498.09,-837.51 493.29,-842.6"/>
</a>
</g>
</g>
<!-- Node27&#45;&gt;Node5 -->
<g id="edge28_Node000027_Node000005" class="edge">
<title>Node27&#45;&gt;Node5</title>
<g id="a_edge28_Node000027_Node000005"><a xlink:title=" ">
<path fill="none" stroke="#63b8ff" d="M440.83,-510.67C447.66,-513.21 453.99,-516.9 459,-522.18 533.51,-600.78 415.95,-689.16 495,-763.18 569.71,-833.14 860.19,-760.25 954,-801.18 983.3,-813.97 1009.18,-841.03 1024.56,-859.66"/>
<polygon fill="#63b8ff" stroke="#63b8ff" points="1021.7,-861.68 1030.67,-867.33 1027.18,-857.32 1021.7,-861.68"/>
</a>
</g>
</g>
<!-- Node27&#45;&gt;Node11 -->
<g id="edge27_Node000027_Node000011" class="edge">
<title>Node27&#45;&gt;Node11</title>
<g id="a_edge27_Node000027_Node000011"><a xlink:title=" ">
<path fill="none" stroke="#63b8ff" d="M328.3,-499.31C322.14,-497.12 316.02,-494.71 310.25,-492.18 282.83,-480.16 252.92,-462.53 234.66,-448.92"/>
<polygon fill="#63b8ff" stroke="#63b8ff" points="236.97,-446.29 226.98,-442.78 232.6,-451.76 236.97,-446.29"/>
</a>
</g>
</g>
<!-- Node27&#45;&gt;Node12 -->
<g id="edge24_Node000027_Node000012" class="edge">
<title>Node27&#45;&gt;Node12</title>
<g id="a_edge24_Node000027_Node000012"><a xlink:title=" ">
<path fill="none" stroke="#63b8ff" d="M423.9,-496.32C435.37,-492.63 447.86,-488.16 459,-483.18 481.28,-473.23 504.96,-459.7 523.73,-448.21"/>
<polygon fill="#63b8ff" stroke="#63b8ff" points="525.4,-451.3 532.04,-443.05 521.7,-445.35 525.4,-451.3"/>
</a>
</g>
</g>
<!-- Node27&#45;&gt;Node20 -->
<g id="edge29_Node000027_Node000020" class="edge">
<title>Node27&#45;&gt;Node20</title>
<g id="a_edge29_Node000027_Node000020"><a xlink:title=" ">
<path fill="none" stroke="#63b8ff" d="M427.02,-517.97C437.74,-521.5 449.06,-525.9 459,-531.18 476.9,-540.7 475.83,-552.6 495,-559.18 548.83,-577.65 614.01,-574.28 661.16,-567.69"/>
<polygon fill="#63b8ff" stroke="#63b8ff" points="661.57,-571.16 670.94,-566.22 660.53,-564.24 661.57,-571.16"/>
</a>
</g>
</g>
<!-- Node27&#45;&gt;Node21 -->
<g id="edge31_Node000027_Node000021" class="edge">
<title>Node27&#45;&gt;Node21</title>
<g id="a_edge31_Node000027_Node000021"><a xlink:title=" ">
<path fill="none" stroke="#63b8ff" d="M439.27,-517.91C446.58,-521.22 453.46,-525.54 459,-531.18 497.38,-570.34 452.32,-614.76 495,-649.18 541.46,-686.65 611.78,-686.89 662.35,-680.58"/>
<polygon fill="#63b8ff" stroke="#63b8ff" points="662.54,-684.09 671.97,-679.25 661.58,-677.15 662.54,-684.09"/>
</a>
</g>
</g>
<!-- Node27&#45;&gt;Node22 -->
<g id="edge30_Node000027_Node000022" class="edge">
<title>Node27&#45;&gt;Node22</title>
<g id="a_edge30_Node000027_Node000022"><a xlink:title=" ">
<path fill="none" stroke="#63b8ff" d="M440.84,-511.16C447.58,-513.64 453.89,-517.18 459,-522.18 510.49,-572.54 439.65,-634.1 495,-680.18 541.67,-719.04 713.19,-707.34 813.8,-696.54"/>
<polygon fill="#63b8ff" stroke="#63b8ff" points="814.04,-700.03 823.6,-695.46 813.28,-693.07 814.04,-700.03"/>
</a>
</g>
</g>
<!-- Node27&#45;&gt;Node24 -->
<g id="edge32_Node000027_Node000024" class="edge">
<title>Node27&#45;&gt;Node24</title>
<g id="a_edge32_Node000027_Node000024"><a xlink:title=" ">
<path fill="none" stroke="#63b8ff" d="M398.22,-496.44C413.15,-483.53 438.59,-461 459,-440.18 475.98,-422.87 473.93,-411.18 495,-399.18 522.34,-383.61 600.89,-371.12 658.53,-363.69"/>
<polygon fill="#63b8ff" stroke="#63b8ff" points="658.77,-367.19 668.26,-362.47 657.9,-360.25 658.77,-367.19"/>
</a>
</g>
</g>
<!-- Node27&#45;&gt;Node26 -->
<g id="edge26_Node000027_Node000026" class="edge">
<title>Node27&#45;&gt;Node26</title>
<g id="a_edge26_Node000027_Node000026"><a xlink:title=" ">
<path fill="none" stroke="#63b8ff" d="M440.84,-517.5C447.76,-520.87 454.11,-525.31 459,-531.18 535.1,-622.48 420.77,-703.35 495,-796.18 500.98,-803.67 509.55,-808.82 518.49,-812.36"/>
<polygon fill="#63b8ff" stroke="#63b8ff" points="517.4,-815.69 528,-815.47 519.58,-809.03 517.4,-815.69"/>
</a>
</g>
</g>
<!-- Node28 -->
<g id="Node000028" class="node">
<title>Node28</title>
<g id="a_Node000028"><a xlink:href="kest__string_8c.html#a4cfc4758ca7994c7a5ec40f101681c6b" target="_top" xlink:title=" ">
<polygon fill="white" stroke="#666666" points="618.62,-549.93 502.12,-549.93 502.12,-516.43 618.62,-516.43 618.62,-549.93"/>
<text xml:space="preserve" text-anchor="start" x="510.12" y="-536.43" font-family="Helvetica,sans-Serif" font-size="10.00">kest_string_init_with</text>
<text xml:space="preserve" text-anchor="middle" x="560.38" y="-523.68" font-family="Helvetica,sans-Serif" font-size="10.00">_allocator</text>
</a>
</g>
</g>
<!-- Node27&#45;&gt;Node28 -->
<g id="edge33_Node000027_Node000028" class="edge">
<title>Node27&#45;&gt;Node28</title>
<g id="a_edge33_Node000027_Node000028"><a xlink:title=" ">
<path fill="none" stroke="#63b8ff" d="M441.08,-515.48C456.81,-517.83 474.14,-520.43 490.56,-522.89"/>
<polygon fill="#63b8ff" stroke="#63b8ff" points="489.85,-526.32 500.26,-524.34 490.89,-519.39 489.85,-526.32"/>
</a>
</g>
</g>
<!-- Node29 -->
<g id="Node000029" class="node">
<title>Node29</title>
<g id="a_Node000029"><a xlink:href="kest__string_8c.html#aae2aec32d8a54aec5b2cce31fa7e45d1" target="_top" xlink:title=" ">
<polygon fill="white" stroke="#666666" points="605.12,-498.56 515.62,-498.56 515.62,-477.81 605.12,-477.81 605.12,-498.56"/>
<text xml:space="preserve" text-anchor="middle" x="560.38" y="-485.06" font-family="Helvetica,sans-Serif" font-size="10.00">kest_string_len</text>
</a>
</g>
</g>
<!-- Node27&#45;&gt;Node29 -->
<g id="edge34_Node000027_Node000029" class="edge">
<title>Node27&#45;&gt;Node29</title>
<g id="a_edge34_Node000027_Node000029"><a xlink:title=" ">
<path fill="none" stroke="#63b8ff" d="M441.08,-501.12C461.18,-498.92 483.88,-496.44 503.97,-494.24"/>
<polygon fill="#63b8ff" stroke="#63b8ff" points="504.09,-497.75 513.65,-493.18 503.32,-490.79 504.09,-497.75"/>
</a>
</g>
</g>
<!-- Node30 -->
<g id="Node000030" class="node">
<title>Node30</title>
<g id="a_Node000030"><a xlink:href="kest__string_8c.html#a1b14525a2f5fe1a6090a72ea2e9bb541" target="_top" xlink:title=" ">
<polygon fill="white" stroke="#666666" points="617.12,-754.56 503.62,-754.56 503.62,-733.81 617.12,-733.81 617.12,-754.56"/>
<text xml:space="preserve" text-anchor="middle" x="560.38" y="-741.06" font-family="Helvetica,sans-Serif" font-size="10.00">kest_string_pop_tail</text>
</a>
</g>
</g>
<!-- Node27&#45;&gt;Node30 -->
<g id="edge35_Node000027_Node000030" class="edge">
<title>Node27&#45;&gt;Node30</title>
<g id="a_edge35_Node000027_Node000030"><a xlink:title=" ">
<path fill="none" stroke="#63b8ff" d="M440.93,-517.92C447.74,-521.23 454.04,-525.55 459,-531.18 515.48,-595.39 439.84,-654.84 495,-720.18 497.39,-723.01 500.14,-725.5 503.13,-727.7"/>
<polygon fill="#63b8ff" stroke="#63b8ff" points="501.05,-730.53 511.42,-732.68 504.65,-724.53 501.05,-730.53"/>
</a>
</g>
</g>
<!-- Node27&#45;&gt;Node31 -->
<g id="edge36_Node000027_Node000031" class="edge">
<title>Node27&#45;&gt;Node31</title>
<g id="a_edge36_Node000027_Node000031"><a xlink:title=" ">
<path fill="none" stroke="#63b8ff" d="M402.35,-496.33C418.56,-485.12 442.99,-466.32 459,-445.18 482.3,-414.43 466.77,-392.48 495,-366.18 498.25,-363.16 501.91,-360.51 505.79,-358.18"/>
<polygon fill="#63b8ff" stroke="#63b8ff" points="507.16,-361.42 514.47,-353.75 503.97,-355.18 507.16,-361.42"/>
</a>
</g>
</g>
<!-- Node32 -->
<g id="Node000032" class="node">
<title>Node32</title>
<g id="a_Node000032"><a xlink:href="kest__string_8c.html#a7538f892d9e722fe9e9e1cfcb0ac1b40" target="_top" xlink:title=" ">
<polygon fill="white" stroke="#666666" points="620.5,-639.93 500.25,-639.93 500.25,-606.43 620.5,-606.43 620.5,-639.93"/>
<text xml:space="preserve" text-anchor="start" x="508.25" y="-626.43" font-family="Helvetica,sans-Serif" font-size="10.00">kest_string_to_native</text>
<text xml:space="preserve" text-anchor="middle" x="560.38" y="-613.68" font-family="Helvetica,sans-Serif" font-size="10.00">_with_allocator</text>
</a>
</g>
</g>
<!-- Node27&#45;&gt;Node32 -->
<g id="edge37_Node000027_Node000032" class="edge">
<title>Node27&#45;&gt;Node32</title>
<g id="a_edge37_Node000027_Node000032"><a xlink:title=" ">
<path fill="none" stroke="#63b8ff" d="M435.11,-517.91C443.64,-521.23 452,-525.56 459,-531.18 483.54,-550.9 471.82,-570.88 495,-592.18 498.11,-595.04 501.52,-597.68 505.11,-600.12"/>
<polygon fill="#63b8ff" stroke="#63b8ff" points="503.27,-603.09 513.63,-605.3 506.91,-597.11 503.27,-603.09"/>
</a>
</g>
</g>
<!-- Node27&#45;&gt;Node33 -->
<g id="edge39_Node000027_Node000033" class="edge">
<title>Node27&#45;&gt;Node33</title>
<g id="a_edge39_Node000027_Node000033"><a xlink:title=" ">
<path fill="none" stroke="#63b8ff" d="M395.49,-496.48C410.68,-479.59 440.02,-445.26 459,-412.18 480.24,-375.17 463.6,-352.07 495,-323.18 496.26,-322.02 497.6,-320.92 498.98,-319.89"/>
<polygon fill="#63b8ff" stroke="#63b8ff" points="500.76,-322.91 507.51,-314.74 497.14,-316.91 500.76,-322.91"/>
</a>
</g>
</g>
<!-- Node27&#45;&gt;Node34 -->
<g id="edge40_Node000027_Node000034" class="edge">
<title>Node27&#45;&gt;Node34</title>
<g id="a_edge40_Node000027_Node000034"><a xlink:title=" ">
<path fill="none" stroke="#63b8ff" d="M396.2,-496.45C412.06,-479.79 441.96,-446.07 459,-412.18 485.55,-359.39 470.1,-337.78 495,-284.18 508.02,-256.15 528.9,-227.21 543.33,-208.75"/>
<polygon fill="#63b8ff" stroke="#63b8ff" points="545.96,-211.07 549.46,-201.07 540.49,-206.7 545.96,-211.07"/>
</a>
</g>
</g>
<!-- Node32&#45;&gt;Node13 -->
<g id="edge38_Node000032_Node000013" class="edge">
<title>Node32&#45;&gt;Node13</title>
<g id="a_edge38_Node000032_Node000013"><a xlink:title=" ">
<path fill="none" stroke="#63b8ff" d="M620.77,-619.54C632.66,-618.82 645.22,-618.05 657.35,-617.3"/>
<polygon fill="#63b8ff" stroke="#63b8ff" points="657.53,-620.8 667.29,-616.69 657.1,-613.81 657.53,-620.8"/>
</a>
</g>
</g>
<!-- Node36 -->
<g id="Node000036" class="node">
<title>Node36</title>
<g id="a_Node000036"><a xlink:href="kest__expression_8c.html#a10e88ee8970dd7501341b9d5ea0c3cba" target="_top" xlink:title=" ">
<polygon fill="#fff0f0" stroke="red" points="625.75,-160.93 495,-160.93 495,-127.43 625.75,-127.43 625.75,-160.93"/>
<text xml:space="preserve" text-anchor="start" x="503" y="-147.43" font-family="Helvetica,sans-Serif" font-size="10.00">kest_expression_detect</text>
<text xml:space="preserve" text-anchor="middle" x="560.38" y="-134.68" font-family="Helvetica,sans-Serif" font-size="10.00">_constants</text>
</a>
</g>
</g>
<!-- Node35&#45;&gt;Node36 -->
<g id="edge43_Node000035_Node000036" class="edge">
<title>Node35&#45;&gt;Node36</title>
<g id="a_edge43_Node000035_Node000036"><a xlink:title=" ">
<path fill="none" stroke="#63b8ff" d="M448.35,-144.18C459.77,-144.18 471.79,-144.18 483.54,-144.18"/>
<polygon fill="#63b8ff" stroke="#63b8ff" points="483.18,-147.68 493.18,-144.18 483.18,-140.68 483.18,-147.68"/>
</a>
</g>
</g>
<!-- Node40 -->
<g id="Node000040" class="node">
<title>Node40</title>
<g id="a_Node000040"><a xlink:href="kest__expr__parser_8c.html#adf0188b23902aff2ddacb388e811412e" target="_top" xlink:title=" ">
<polygon fill="#fff0f0" stroke="red" points="623.88,-90.93 496.88,-90.93 496.88,-57.43 623.88,-57.43 623.88,-90.93"/>
<text xml:space="preserve" text-anchor="start" x="504.88" y="-77.43" font-family="Helvetica,sans-Serif" font-size="10.00">kest_parse_expression</text>
<text xml:space="preserve" text-anchor="middle" x="560.38" y="-64.68" font-family="Helvetica,sans-Serif" font-size="10.00">_rec_pratt</text>
</a>
</g>
</g>
<!-- Node35&#45;&gt;Node40 -->
<g id="edge44_Node000035_Node000040" class="edge">
<title>Node35&#45;&gt;Node40</title>
<g id="a_edge44_Node000035_Node000040"><a xlink:title=" ">
<path fill="none" stroke="#63b8ff" d="M412.39,-133.4C437.26,-123.38 475.01,-108.17 506.02,-95.68"/>
<polygon fill="#63b8ff" stroke="#63b8ff" points="507.31,-98.93 515.28,-91.95 504.69,-92.44 507.31,-98.93"/>
</a>
</g>
</g>
<!-- Node40&#45;&gt;Node40 -->
<g id="edge45_Node000040_Node000040" class="edge">
<title>Node40&#45;&gt;Node40</title>
<g id="a_edge45_Node000040_Node000040"><a xlink:title=" ">
<path fill="none" stroke="#63b8ff" d="M530.67,-91.35C525.62,-100.55 535.52,-108.93 560.38,-108.93 574.35,-108.93 583.6,-106.28 588.12,-102.32"/>
<polygon fill="#63b8ff" stroke="#63b8ff" points="591.5,-103.3 589.81,-92.84 584.61,-102.07 591.5,-103.3"/>
</a>
</g>
</g>
<!-- Node40&#45;&gt;Node51 -->
<g id="edge46_Node000040_Node000051" class="edge">
<title>Node40&#45;&gt;Node51</title>
<g id="a_edge46_Node000040_Node000051"><a xlink:title=" ">
<path fill="none" stroke="#63b8ff" d="M624.02,-74.18C634.52,-74.18 645.47,-74.18 656.1,-74.18"/>
<polygon fill="#63b8ff" stroke="#63b8ff" points="655.98,-77.68 665.98,-74.18 655.98,-70.68 655.98,-77.68"/>
</a>
</g>
</g>
<!-- Node40&#45;&gt;Node53 -->
<g id="edge47_Node000040_Node000053" class="edge">
<title>Node40&#45;&gt;Node53</title>
<g id="a_edge47_Node000040_Node000053"><a xlink:title=" ">
<path fill="none" stroke="#63b8ff" d="M607.28,-57.03C631.87,-47.84 661.84,-36.64 685.34,-27.86"/>
<polygon fill="#63b8ff" stroke="#63b8ff" points="686.41,-31.2 694.55,-24.42 683.96,-24.64 686.41,-31.2"/>
</a>
</g>
</g>
<!-- Node60&#45;&gt;Node5 -->
<g id="edge50_Node000060_Node000005" class="edge">
<title>Node60&#45;&gt;Node5</title>
<g id="a_edge50_Node000060_Node000005"><a xlink:title=" ">
<path fill="none" stroke="#63b8ff" d="M386.11,-631.89C388.65,-673.75 404.07,-827.07 495,-891.18 578.4,-949.99 853.07,-920.21 954,-905.18 969.63,-902.85 986.36,-898.25 1000.83,-893.56"/>
<polygon fill="#63b8ff" stroke="#63b8ff" points="1001.61,-896.99 1009.97,-890.48 999.37,-890.36 1001.61,-896.99"/>
</a>
</g>
</g>
</g>
</svg>

<g id="navigator" transform="translate(0 0)" fill="#404254">
  <rect fill="#f2f5e9" fill-opacity="0.5" stroke="#606060" stroke-width=".5" x="0" y="0" width="60" height="60"/>
  <use id="zoomplus" xlink:href="#zoomPlus" x="17" y="9" onmousedown="handleZoom(evt,'in')"/>
  <use id="zoomminus" xlink:href="#zoomMin" x="42" y="9" onmousedown="handleZoom(evt,'out')"/>
  <use id="reset" xlink:href="#resetDef" x="30" y="36" onmousedown="handleReset()"/>
   <use id="arrowup" xlink:href="#arrowUp" x="0" y="0" onmousedown="handlePan(0,-1)"/>
  <use id="arrowright" xlink:href="#arrowRight" x="0" y="0" onmousedown="handlePan(1,0)"/>
  <use id="arrowdown" xlink:href="#arrowDown" x="0" y="0" onmousedown="handlePan(0,1)"/>
  <use id="arrowleft" xlink:href="#arrowLeft" x="0" y="0" onmousedown="handlePan(-1,0)"/>
</g>
<svg viewBox="0 0 15 15" width="100%" height="30px" preserveAspectRatio="xMaxYMin meet">
 <g id="arrow_out" transform="scale(0.3 0.3)">
  <a xlink:href="kest__eff__parser_8h_aae3fbdeba250be8f6dd3dfa686eb24a8_cgraph_org.svg" target="_base">
   <rect id="button" ry="5" rx="5" y="6" x="6" height="38" width="38"
        fill="#f2f5e9" fill-opacity="0.5" stroke="#606060" stroke-width="1.0"/>
   <path id="arrow"
     d="M 11.500037,31.436501 C 11.940474,20.09759 22.043105,11.32322 32.158766,21.979434 L 37.068811,17.246167 C 37.068811,17.246167 37.088388,32 37.088388,32 L 22.160133,31.978069 C 22.160133,31.978069 26.997745,27.140456 26.997745,27.140456 C 18.528582,18.264221 13.291696,25.230495 11.500037,31.436501 z"
     style="fill:#404040;"/>
  </a>
 </g>
</svg>

<style type='text/css'>
<![CDATA[
[data-mouse-over-selected='false'] { opacity: 0.7; }
[data-mouse-over-selected='true']  { opacity: 1.0; }
]]>
</style>
<script type="application/ecmascript"><![CDATA[
document.addEventListener('DOMContentLoaded', (event) => {
  highlightEdges();
  highlightAdjacentNodes();
});
]]></script>
</svg>
