<?xml version="1.0" encoding="UTF-8" standalone="no"?>
<!DOCTYPE svg PUBLIC "-//W3C//DTD SVG 1.1//EN"
 "http://www.w3.org/Graphics/SVG/1.1/DTD/svg11.dtd">
<!-- Generated by graphviz version 13.1.2 (20250808.2320)
 -->
<!-- Title: kest_dsp_resource_make_clone_for_effect Pages: 1 -->
<!--zoomable 269 -->

<svg id="main" version="1.1" xmlns="http://www.w3.org/2000/svg" xmlns:xlink="http://www.w3.org/1999/xlink" xml:space="preserve" onload="init(evt)">

<style type="text/css"><![CDATA[
.node, .edge {opacity: 0.7;}
.node.selected, .edge.selected {opacity: 1;}
.edge:hover path { stroke: red; }
.edge:hover polygon { stroke: red; fill: red; }
]]></style>

<defs>
  <circle id="rim" cx="0" cy="0" r="7"/>
  <circle id="rim2" cx="0" cy="0" r="3.5"/>
  <g id="zoomPlus">
    <use xlink:href="#rim" fill="#404040"><set attributeName="fill" to="#808080" begin="zoomplus.mouseover" end="zoomplus.mouseout"/></use>
    <path d="M-4,0h8M0,-4v8" fill="none" stroke="white" stroke-width="1.5" pointer-events="none"/>
  </g>
  <g id="zoomMin">
    <use xlink:href="#rim" fill="#404040"><set attributeName="fill" to="#808080" begin="zoomminus.mouseover" end="zoomminus.mouseout"/></use>
    <path d="M-4,0h8" fill="none" stroke="white" stroke-width="1.5" pointer-events="none"/>
  </g>
  <g id="arrowUp" transform="translate(30 24)">
    <use xlink:href="#rim"/>
    <path pointer-events="none" fill="none" stroke="white" stroke-width="1.5" d="M0,-3.0v7 M-2.5,-0.5L0,-3.0L2.5,-0.5"/>
  </g>
  <g id="arrowRight" transform="rotate(90) translate(36 -43)">
    <use xlink:href="#rim"/>
    <path pointer-events="none" fill="none" stroke="white" stroke-width="1.5" d="M0,-3.0v7 M-2.5,-0.5L0,-3.0L2.5,-0.5"/>
  </g>
  <g id="arrowDown" transform="rotate(180) translate(-30 -48)">
    <use xlink:href="#rim"/>
    <path pointer-events="none" fill="none" stroke="white" stroke-width="1.5" d="M0,-3.0v7 M-2.5,-0.5L0,-3.0L2.5,-0.5"/>
  </g>
  <g id="arrowLeft" transform="rotate(270) translate(-36 17)">
    <use xlink:href="#rim"/>
    <path pointer-events="none" fill="none" stroke="white" stroke-width="1.5" d="M0,-3.0v7 M-2.5,-0.5L0,-3.0L2.5,-0.5"/>
  </g>
  <g id="resetDef">
    <use xlink:href="#rim2" fill="#404040"><set attributeName="fill" to="#808080" begin="reset.mouseover" end="reset.mouseout"/></use>
  </g>
</defs>
<script type="application/ecmascript">
var viewWidth = 770;
var viewHeight = 269;
var sectionId = 'dynsection-9';
</script>
<script type="application/ecmascript" xlink:href="svg.min.js"/>
<svg id="graph" class="graph">
<g id="viewport">
<title>kest_dsp_resource_make_clone_for_effect</title>
<!-- Node1 -->
<g id="Node000001" class="node">
<title>Node1</title>
<g id="a_Node000001"><a xlink:title=" ">
<polygon fill="#999999" stroke="#666666" points="138.25,-258.12 0,-258.12 0,-224.62 138.25,-224.62 138.25,-258.12"/>
<text xml:space="preserve" text-anchor="start" x="8" y="-244.62" font-family="Helvetica,sans-Serif" font-size="10.00">kest_dsp_resource_make</text>
<text xml:space="preserve" text-anchor="middle" x="69.12" y="-231.88" font-family="Helvetica,sans-Serif" font-size="10.00">_clone_for_effect</text>
</a>
</g>
</g>
<!-- Node2 -->
<g id="Node000002" class="node">
<title>Node2</title>
<g id="a_Node000002"><a xlink:href="kest__resource_8c.html#ac4e799ff7ba19e048f74acbf987eed07" target="_top" xlink:title=" ">
<polygon fill="white" stroke="#666666" points="312.5,-258.12 174.25,-258.12 174.25,-224.62 312.5,-224.62 312.5,-258.12"/>
<text xml:space="preserve" text-anchor="start" x="182.25" y="-244.62" font-family="Helvetica,sans-Serif" font-size="10.00">kest_dsp_resource_make</text>
<text xml:space="preserve" text-anchor="middle" x="243.38" y="-231.88" font-family="Helvetica,sans-Serif" font-size="10.00">_clone</text>
</a>
</g>
</g>
<!-- Node1&#45;&gt;Node2 -->
<g id="edge1_Node000001_Node000002" class="edge">
<title>Node1&#45;&gt;Node2</title>
<g id="a_edge1_Node000001_Node000002"><a xlink:title=" ">
<path fill="none" stroke="#63b8ff" d="M138.7,-241.38C146.45,-241.38 154.4,-241.38 162.29,-241.38"/>
<polygon fill="#63b8ff" stroke="#63b8ff" points="162.24,-244.88 172.24,-241.38 162.24,-237.88 162.24,-244.88"/>
</a>
</g>
</g>
<!-- Node3 -->
<g id="Node000003" class="node">
<title>Node3</title>
<g id="a_Node000003"><a xlink:href="kest__alloc_8c.html#a849755c5dc5b35e712ffcdb602e50fb4" target="_top" xlink:title=" ">
<polygon fill="white" stroke="#666666" points="756.5,-260.75 691.75,-260.75 691.75,-240 756.5,-240 756.5,-260.75"/>
<text xml:space="preserve" text-anchor="middle" x="724.12" y="-247.25" font-family="Helvetica,sans-Serif" font-size="10.00">kest_alloc</text>
</a>
</g>
</g>
<!-- Node2&#45;&gt;Node3 -->
<g id="edge2_Node000002_Node000003" class="edge">
<title>Node2&#45;&gt;Node3</title>
<g id="a_edge2_Node000002_Node000003"><a xlink:title=" ">
<path fill="none" stroke="#63b8ff" d="M312.86,-251.91C324.71,-253.35 336.94,-254.6 348.5,-255.38 482.42,-264.34 516.36,-259.99 650.5,-255.38 660.02,-255.05 670.23,-254.48 679.89,-253.84"/>
<polygon fill="#63b8ff" stroke="#63b8ff" points="680.09,-257.34 689.82,-253.14 679.6,-250.35 680.09,-257.34"/>
</a>
</g>
</g>
<!-- Node4 -->
<g id="Node000004" class="node">
<title>Node4</title>
<g id="a_Node000004"><a xlink:href="kest__resource_8c.html#a964d3c690e48fc3c388e56c36c37deca" target="_top" xlink:title=" ">
<polygon fill="white" stroke="#666666" points="486,-135.75 348.5,-135.75 348.5,-115 486,-115 486,-135.75"/>
<text xml:space="preserve" text-anchor="middle" x="417.25" y="-122.25" font-family="Helvetica,sans-Serif" font-size="10.00">kest_dsp_resource_clone</text>
</a>
</g>
</g>
<!-- Node2&#45;&gt;Node4 -->
<g id="edge3_Node000002_Node000004" class="edge">
<title>Node2&#45;&gt;Node4</title>
<g id="a_edge3_Node000002_Node000004"><a xlink:title=" ">
<path fill="none" stroke="#63b8ff" d="M269.74,-224.26C302.4,-202.21 358.82,-164.13 391.29,-142.22"/>
<polygon fill="#63b8ff" stroke="#63b8ff" points="392.96,-145.32 399.29,-136.82 389.04,-139.51 392.96,-145.32"/>
</a>
</g>
</g>
<!-- Node10 -->
<g id="Node000010" class="node">
<title>Node10</title>
<g id="a_Node000010"><a xlink:href="kest__alloc_8c.html#a294af5728a94aa316fcf65304d388d48" target="_top" xlink:title=" ">
<polygon fill="white" stroke="#666666" points="754.62,-164.75 693.62,-164.75 693.62,-144 754.62,-144 754.62,-164.75"/>
<text xml:space="preserve" text-anchor="middle" x="724.12" y="-151.25" font-family="Helvetica,sans-Serif" font-size="10.00">kest_free</text>
</a>
</g>
</g>
<!-- Node2&#45;&gt;Node10 -->
<g id="edge13_Node000002_Node000010" class="edge">
<title>Node2&#45;&gt;Node10</title>
<g id="a_edge13_Node000002_Node000010"><a xlink:title=" ">
<path fill="none" stroke="#63b8ff" d="M312.96,-243.83C412.51,-246.43 591.57,-247.26 650.5,-222.38 674.71,-212.15 695.79,-190.06 708.92,-173.82"/>
<polygon fill="#63b8ff" stroke="#63b8ff" points="711.41,-176.32 714.76,-166.27 705.87,-172.03 711.41,-176.32"/>
</a>
</g>
</g>
<!-- Node5 -->
<g id="Node000005" class="node">
<title>Node5</title>
<g id="a_Node000005"><a xlink:href="kest__resource_8c.html#a3737458cca8c37da58e9675dc9d56a61" target="_top" xlink:title=" ">
<polygon fill="#fff0f0" stroke="red" points="638.5,-174.75 534,-174.75 534,-154 638.5,-154 638.5,-174.75"/>
<text xml:space="preserve" text-anchor="middle" x="586.25" y="-161.25" font-family="Helvetica,sans-Serif" font-size="10.00">kest_delay_create</text>
</a>
</g>
</g>
<!-- Node4&#45;&gt;Node5 -->
<g id="edge4_Node000004_Node000005" class="edge">
<title>Node4&#45;&gt;Node5</title>
<g id="a_edge4_Node000004_Node000005"><a xlink:title=" ">
<path fill="none" stroke="#63b8ff" d="M464.77,-136.24C484.23,-140.78 507.05,-146.11 527.57,-150.9"/>
<polygon fill="#63b8ff" stroke="#63b8ff" points="526.68,-154.29 537.22,-153.16 528.28,-147.48 526.68,-154.29"/>
</a>
</g>
</g>
<!-- Node7 -->
<g id="Node000007" class="node">
<title>Node7</title>
<g id="a_Node000007"><a xlink:href="kest__resource_8c.html#ab188efe5a3e1b1e1937c4b234d3cfad1" target="_top" xlink:title=" ">
<polygon fill="white" stroke="#666666" points="631,-96.75 541.5,-96.75 541.5,-76 631,-76 631,-96.75"/>
<text xml:space="preserve" text-anchor="middle" x="586.25" y="-83.25" font-family="Helvetica,sans-Serif" font-size="10.00">kest_delay_init</text>
</a>
</g>
</g>
<!-- Node4&#45;&gt;Node7 -->
<g id="edge5_Node000004_Node000007" class="edge">
<title>Node4&#45;&gt;Node7</title>
<g id="a_edge5_Node000004_Node000007"><a xlink:title=" ">
<path fill="none" stroke="#63b8ff" d="M464.77,-114.51C485.06,-109.77 509,-104.18 530.17,-99.24"/>
<polygon fill="#63b8ff" stroke="#63b8ff" points="530.86,-102.67 539.8,-96.99 529.27,-95.85 530.86,-102.67"/>
</a>
</g>
</g>
<!-- Node8 -->
<g id="Node000008" class="node">
<title>Node8</title>
<g id="a_Node000008"><a xlink:href="kest__resource_8c.html#a7efa25c557982ba6fe2419b433c683d6" target="_top" xlink:title=" ">
<polygon fill="#fff0f0" stroke="red" points="650.5,-135.75 522,-135.75 522,-115 650.5,-115 650.5,-135.75"/>
<text xml:space="preserve" text-anchor="middle" x="586.25" y="-122.25" font-family="Helvetica,sans-Serif" font-size="10.00">kest_filter_make_clone</text>
</a>
</g>
</g>
<!-- Node4&#45;&gt;Node8 -->
<g id="edge6_Node000004_Node000008" class="edge">
<title>Node4&#45;&gt;Node8</title>
<g id="a_edge6_Node000004_Node000008"><a xlink:title=" ">
<path fill="none" stroke="#63b8ff" d="M486.18,-125.38C494.15,-125.38 502.33,-125.38 510.4,-125.38"/>
<polygon fill="#63b8ff" stroke="#63b8ff" points="510.18,-128.88 520.18,-125.38 510.18,-121.88 510.18,-128.88"/>
</a>
</g>
</g>
<!-- Node11 -->
<g id="Node000011" class="node">
<title>Node11</title>
<g id="a_Node000011"><a xlink:href="kest__resource_8c.html#ae704479b326a28e40d50c7244866d78c" target="_top" xlink:title=" ">
<polygon fill="#fff0f0" stroke="red" points="631.38,-20.75 541.12,-20.75 541.12,0 631.38,0 631.38,-20.75"/>
<text xml:space="preserve" text-anchor="middle" x="586.25" y="-7.25" font-family="Helvetica,sans-Serif" font-size="10.00">kest_lfo_create</text>
</a>
</g>
</g>
<!-- Node4&#45;&gt;Node11 -->
<g id="edge9_Node000004_Node000011" class="edge">
<title>Node4&#45;&gt;Node11</title>
<g id="a_edge9_Node000004_Node000011"><a xlink:title=" ">
<path fill="none" stroke="#63b8ff" d="M427.88,-114.73C445.14,-96.19 483.19,-57.71 522,-34.38 527.55,-31.04 533.63,-28.03 539.77,-25.36"/>
<polygon fill="#63b8ff" stroke="#63b8ff" points="540.72,-28.75 548.67,-21.75 538.08,-22.27 540.72,-28.75"/>
</a>
</g>
</g>
<!-- Node12 -->
<g id="Node000012" class="node">
<title>Node12</title>
<g id="a_Node000012"><a xlink:href="kest__resource_8c.html#ad1e0aca64b431741181af16c65a97574" target="_top" xlink:title=" ">
<polygon fill="white" stroke="#666666" points="761.75,-39.75 686.5,-39.75 686.5,-19 761.75,-19 761.75,-39.75"/>
<text xml:space="preserve" text-anchor="middle" x="724.12" y="-26.25" font-family="Helvetica,sans-Serif" font-size="10.00">kest_lfo_init</text>
</a>
</g>
</g>
<!-- Node4&#45;&gt;Node12 -->
<g id="edge11_Node000004_Node000012" class="edge">
<title>Node4&#45;&gt;Node12</title>
<g id="a_edge11_Node000004_Node000012"><a xlink:title=" ">
<path fill="none" stroke="#63b8ff" d="M433.65,-114.65C453.27,-101.51 488.64,-79.49 522,-67.38 572.42,-49.07 633.31,-39.14 674.79,-34.07"/>
<polygon fill="#63b8ff" stroke="#63b8ff" points="675.19,-37.55 684.71,-32.92 674.37,-30.6 675.19,-37.55"/>
</a>
</g>
</g>
<!-- Node13 -->
<g id="Node000013" class="node">
<title>Node13</title>
<g id="a_Node000013"><a xlink:href="kest__resource_8c.html#a249461ae0f82c7ba693e07d4d53dd96a" target="_top" xlink:title=" ">
<polygon fill="#fff0f0" stroke="red" points="649.38,-213.75 523.12,-213.75 523.12,-193 649.38,-193 649.38,-213.75"/>
<text xml:space="preserve" text-anchor="middle" x="586.25" y="-200.25" font-family="Helvetica,sans-Serif" font-size="10.00">kest_mem_slot_create</text>
</a>
</g>
</g>
<!-- Node4&#45;&gt;Node13 -->
<g id="edge12_Node000004_Node000013" class="edge">
<title>Node4&#45;&gt;Node13</title>
<g id="a_edge12_Node000004_Node000013"><a xlink:title=" ">
<path fill="none" stroke="#63b8ff" d="M434.96,-136.12C455.03,-148.69 489.99,-169.54 522,-183.38 526.52,-185.33 531.3,-187.19 536.12,-188.93"/>
<polygon fill="#63b8ff" stroke="#63b8ff" points="534.64,-192.12 545.23,-192.06 536.91,-185.5 534.64,-192.12"/>
</a>
</g>
</g>
<!-- Node8&#45;&gt;Node3 -->
<g id="edge7_Node000008_Node000003" class="edge">
<title>Node8&#45;&gt;Node3</title>
<g id="a_edge7_Node000008_Node000003"><a xlink:title=" ">
<path fill="none" stroke="#63b8ff" d="M633.9,-136.18C639.79,-138.66 645.5,-141.68 650.5,-145.38 680.38,-167.44 702.26,-205.61 713.81,-229.34"/>
<polygon fill="#63b8ff" stroke="#63b8ff" points="710.6,-230.75 718,-238.33 716.95,-227.79 710.6,-230.75"/>
</a>
</g>
</g>
<!-- Node8&#45;&gt;Node10 -->
<g id="edge8_Node000008_Node000010" class="edge">
<title>Node8&#45;&gt;Node10</title>
<g id="a_edge8_Node000008_Node000010"><a xlink:title=" ">
<path fill="none" stroke="#63b8ff" d="M637.84,-136.17C652.46,-139.29 668.23,-142.66 682.18,-145.64"/>
<polygon fill="#63b8ff" stroke="#63b8ff" points="681.42,-149.05 691.93,-147.72 682.88,-142.21 681.42,-149.05"/>
</a>
</g>
</g>
<!-- Node11&#45;&gt;Node12 -->
<g id="edge10_Node000011_Node000012" class="edge">
<title>Node11&#45;&gt;Node12</title>
<g id="a_edge10_Node000011_Node000012"><a xlink:title=" ">
<path fill="none" stroke="#63b8ff" d="M631.74,-16.6C645.66,-18.54 661.09,-20.7 675.23,-22.68"/>
<polygon fill="#63b8ff" stroke="#63b8ff" points="674.37,-26.09 684.76,-24.01 675.34,-19.16 674.37,-26.09"/>
</a>
</g>
</g>
</g>
</svg>

<g id="navigator" transform="translate(0 0)" fill="#404254">
  <rect fill="#f2f5e9" fill-opacity="0.5" stroke="#606060" stroke-width=".5" x="0" y="0" width="60" height="60"/>
  <use id="zoomplus" xlink:href="#zoomPlus" x="17" y="9" onmousedown="handleZoom(evt,'in')"/>
  <use id="zoomminus" xlink:href="#zoomMin" x="42" y="9" onmousedown="handleZoom(evt,'out')"/>
  <use id="reset" xlink:href="#resetDef" x="30" y="36" onmousedown="handleReset()"/>
   <use id="arrowup" xlink:href="#arrowUp" x="0" y="0" onmousedown="handlePan(0,-1)"/>
  <use id="arrowright" xlink:href="#arrowRight" x="0" y="0" onmousedown="handlePan(1,0)"/>
  <use id="arrowdown" xlink:href="#arrowDown" x="0" y="0" onmousedown="handlePan(0,1)"/>
  <use id="arrowleft" xlink:href="#arrowLeft" x="0" y="0" onmousedown="handlePan(-1,0)"/>
</g>
<svg viewBox="0 0 15 15" width="100%" height="30px" preserveAspectRatio="xMaxYMin meet">
 <g id="arrow_out" transform="scale(0.3 0.3)">
  <a xlink:href="kest__resource_8c_aae0c2105bbc588fd039daebe272cd5eb_cgraph_org.svg" target="_base">
   <rect id="button" ry="5" rx="5" y="6" x="6" height="38" width="38"
        fill="#f2f5e9" fill-opacity="0.5" stroke="#606060" stroke-width="1.0"/>
   <path id="arrow"
     d="M 11.500037,31.436501 C 11.940474,20.09759 22.043105,11.32322 32.158766,21.979434 L 37.068811,17.246167 C 37.068811,17.246167 37.088388,32 37.088388,32 L 22.160133,31.978069 C 22.160133,31.978069 26.997745,27.140456 26.997745,27.140456 C 18.528582,18.264221 13.291696,25.230495 11.500037,31.436501 z"
     style="fill:#404040;"/>
  </a>
 </g>
</svg>

<style type='text/css'>
<![CDATA[
[data-mouse-over-selected='false'] { opacity: 0.7; }
[data-mouse-over-selected='true']  { opacity: 1.0; }
]]>
</style>
<script type="application/ecmascript"><![CDATA[
document.addEventListener('DOMContentLoaded', (event) => {
  highlightEdges();
  highlightAdjacentNodes();
});
]]></script>
</svg>
