<?xml version="1.0" encoding="UTF-8" standalone="no"?>
<!DOCTYPE svg PUBLIC "-//W3C//DTD SVG 1.1//EN"
 "http://www.w3.org/Graphics/SVG/1.1/DTD/svg11.dtd">
<!-- Generated by graphviz version 13.1.2 (20250808.2320)
 -->
<!-- Title: kest_preset_if_active_reprogram_fpga Pages: 1 -->
<!--zoomable 333 -->

<svg id="main" version="1.1" xmlns="http://www.w3.org/2000/svg" xmlns:xlink="http://www.w3.org/1999/xlink" xml:space="preserve" onload="init(evt)">

<style type="text/css"><![CDATA[
.node, .edge {opacity: 0.7;}
.node.selected, .edge.selected {opacity: 1;}
.edge:hover path { stroke: red; }
.edge:hover polygon { stroke: red; fill: red; }
]]></style>

<defs>
  <circle id="rim" cx="0" cy="0" r="7"/>
  <circle id="rim2" cx="0" cy="0" r="3.5"/>
  <g id="zoomPlus">
    <use xlink:href="#rim" fill="#404040"><set attributeName="fill" to="#808080" begin="zoomplus.mouseover" end="zoomplus.mouseout"/></use>
    <path d="M-4,0h8M0,-4v8" fill="none" stroke="white" stroke-width="1.5" pointer-events="none"/>
  </g>
  <g id="zoomMin">
    <use xlink:href="#rim" fill="#404040"><set attributeName="fill" to="#808080" begin="zoomminus.mouseover" end="zoomminus.mouseout"/></use>
    <path d="M-4,0h8" fill="none" stroke="white" stroke-width="1.5" pointer-events="none"/>
  </g>
  <g id="arrowUp" transform="translate(30 24)">
    <use xlink:href="#rim"/>
    <path pointer-events="none" fill="none" stroke="white" stroke-width="1.5" d="M0,-3.0v7 M-2.5,-0.5L0,-3.0L2.5,-0.5"/>
  </g>
  <g id="arrowRight" transform="rotate(90) translate(36 -43)">
    <use xlink:href="#rim"/>
    <path pointer-events="none" fill="none" stroke="white" stroke-width="1.5" d="M0,-3.0v7 M-2.5,-0.5L0,-3.0L2.5,-0.5"/>
  </g>
  <g id="arrowDown" transform="rotate(180) translate(-30 -48)">
    <use xlink:href="#rim"/>
    <path pointer-events="none" fill="none" stroke="white" stroke-width="1.5" d="M0,-3.0v7 M-2.5,-0.5L0,-3.0L2.5,-0.5"/>
  </g>
  <g id="arrowLeft" transform="rotate(270) translate(-36 17)">
    <use xlink:href="#rim"/>
    <path pointer-events="none" fill="none" stroke="white" stroke-width="1.5" d="M0,-3.0v7 M-2.5,-0.5L0,-3.0L2.5,-0.5"/>
  </g>
  <g id="resetDef">
    <use xlink:href="#rim2" fill="#404040"><set attributeName="fill" to="#808080" begin="reset.mouseover" end="reset.mouseout"/></use>
  </g>
</defs>
<script type="application/ecmascript">
var viewWidth = 663;
var viewHeight = 333;
var sectionId = 'dynsection-25';
</script>
<script type="application/ecmascript" xlink:href="svg.min.js"/>
<svg id="graph" class="graph">
<g id="viewport">
<title>kest_preset_if_active_reprogram_fpga</title>
<!-- Node1 -->
<g id="Node000001" class="node">
<title>Node1</title>
<g id="a_Node000001"><a xlink:title=" ">
<polygon fill="#999999" stroke="#666666" points="119.5,-279.5 0,-279.5 0,-246 119.5,-246 119.5,-279.5"/>
<text xml:space="preserve" text-anchor="start" x="8" y="-266" font-family="Helvetica,sans-Serif" font-size="10.00">kest_preset_if_active</text>
<text xml:space="preserve" text-anchor="middle" x="59.75" y="-253.25" font-family="Helvetica,sans-Serif" font-size="10.00">_reprogram_fpga</text>
</a>
</g>
</g>
<!-- Node2 -->
<g id="Node000002" class="node">
<title>Node2</title>
<g id="a_Node000002"><a xlink:href="kest__preset_8c.html#a5a3e12c26912d571e86fd2b5f54a2d8d" target="_top" xlink:title=" ">
<polygon fill="white" stroke="#666666" points="301.25,-273.12 155.5,-273.12 155.5,-252.38 301.25,-252.38 301.25,-273.12"/>
<text xml:space="preserve" text-anchor="middle" x="228.38" y="-259.62" font-family="Helvetica,sans-Serif" font-size="10.00">kest_preset_program_fpga</text>
</a>
</g>
</g>
<!-- Node1&#45;&gt;Node2 -->
<g id="edge1_Node000001_Node000002" class="edge">
<title>Node1&#45;&gt;Node2</title>
<g id="a_edge1_Node000001_Node000002"><a xlink:title=" ">
<path fill="none" stroke="#63b8ff" d="M119.96,-262.75C127.72,-262.75 135.78,-262.75 143.85,-262.75"/>
<polygon fill="#63b8ff" stroke="#63b8ff" points="143.7,-266.25 153.7,-262.75 143.7,-259.25 143.7,-266.25"/>
</a>
</g>
</g>
<!-- Node3 -->
<g id="Node000003" class="node">
<title>Node3</title>
<g id="a_Node000003"><a xlink:href="kest__error__codes_8c.html#a0f4c77127bc0b77264a21104979c576a" target="_top" xlink:title=" ">
<polygon fill="white" stroke="#666666" points="640.75,-279.5 532.5,-279.5 532.5,-246 640.75,-246 640.75,-279.5"/>
<text xml:space="preserve" text-anchor="start" x="540.5" y="-266" font-family="Helvetica,sans-Serif" font-size="10.00">kest_error_code_to</text>
<text xml:space="preserve" text-anchor="middle" x="586.62" y="-253.25" font-family="Helvetica,sans-Serif" font-size="10.00">_string</text>
</a>
</g>
</g>
<!-- Node2&#45;&gt;Node3 -->
<g id="edge2_Node000002_Node000003" class="edge">
<title>Node2&#45;&gt;Node3</title>
<g id="a_edge2_Node000002_Node000003"><a xlink:title=" ">
<path fill="none" stroke="#63b8ff" d="M301.47,-262.75C365.78,-262.75 459.08,-262.75 521.01,-262.75"/>
<polygon fill="#63b8ff" stroke="#63b8ff" points="520.68,-266.25 530.68,-262.75 520.68,-259.25 520.68,-266.25"/>
</a>
</g>
</g>
<!-- Node4 -->
<g id="Node000004" class="node">
<title>Node4</title>
<g id="a_Node000004"><a xlink:href="kest__fpga__comms_8c.html#aa3f94ee1fcafa0fcdc27ce70021c0f8b" target="_top" xlink:title=" ">
<polygon fill="white" stroke="#666666" points="482.25,-324.5 337.25,-324.5 337.25,-291 482.25,-291 482.25,-324.5"/>
<text xml:space="preserve" text-anchor="start" x="345.25" y="-311" font-family="Helvetica,sans-Serif" font-size="10.00">kest_fpga_queue_program</text>
<text xml:space="preserve" text-anchor="middle" x="409.75" y="-298.25" font-family="Helvetica,sans-Serif" font-size="10.00">_batch</text>
</a>
</g>
</g>
<!-- Node2&#45;&gt;Node4 -->
<g id="edge3_Node000002_Node000004" class="edge">
<title>Node2&#45;&gt;Node4</title>
<g id="a_edge3_Node000002_Node000004"><a xlink:title=" ">
<path fill="none" stroke="#63b8ff" d="M272.34,-273.53C289.4,-277.81 309.59,-282.87 329.14,-287.78"/>
<polygon fill="#63b8ff" stroke="#63b8ff" points="328.2,-291.15 338.75,-290.19 329.9,-284.36 328.2,-291.15"/>
</a>
</g>
</g>
<!-- Node6 -->
<g id="Node000006" class="node">
<title>Node6</title>
<g id="a_Node000006"><a xlink:href="kest__pipeline_8c.html#a7bb8f92d379766cce5cdc4b68d11818f" target="_top" xlink:title=" ">
<polygon fill="white" stroke="#666666" points="469.12,-175.5 350.38,-175.5 350.38,-142 469.12,-142 469.12,-175.5"/>
<text xml:space="preserve" text-anchor="start" x="358.38" y="-162" font-family="Helvetica,sans-Serif" font-size="10.00">kest_pipeline_create</text>
<text xml:space="preserve" text-anchor="middle" x="409.75" y="-149.25" font-family="Helvetica,sans-Serif" font-size="10.00">_fpga_transfer_batch</text>
</a>
</g>
</g>
<!-- Node2&#45;&gt;Node6 -->
<g id="edge5_Node000002_Node000006" class="edge">
<title>Node2&#45;&gt;Node6</title>
<g id="a_edge5_Node000002_Node000006"><a xlink:title=" ">
<path fill="none" stroke="#63b8ff" d="M247.9,-252.01C276.41,-235.48 331.7,-203.42 369.42,-181.55"/>
<polygon fill="#63b8ff" stroke="#63b8ff" points="370.87,-184.76 377.77,-176.71 367.36,-178.7 370.87,-184.76"/>
</a>
</g>
</g>
<!-- Node5 -->
<g id="Node000005" class="node">
<title>Node5</title>
<g id="a_Node000005"><a xlink:href="kest__fpga__comms_8c.html#a2e1d94033e2a8da2da990d9d370138c0" target="_top" xlink:title=" ">
<polygon fill="white" stroke="#666666" points="649,-318.12 524.25,-318.12 524.25,-297.38 649,-297.38 649,-318.12"/>
<text xml:space="preserve" text-anchor="middle" x="586.62" y="-304.62" font-family="Helvetica,sans-Serif" font-size="10.00">kest_fpga_queue_msg</text>
</a>
</g>
</g>
<!-- Node4&#45;&gt;Node5 -->
<g id="edge4_Node000004_Node000005" class="edge">
<title>Node4&#45;&gt;Node5</title>
<g id="a_edge4_Node000004_Node000005"><a xlink:title=" ">
<path fill="none" stroke="#63b8ff" d="M482.64,-307.75C492.45,-307.75 502.54,-307.75 512.38,-307.75"/>
<polygon fill="#63b8ff" stroke="#63b8ff" points="512.28,-311.25 522.28,-307.75 512.28,-304.25 512.28,-311.25"/>
</a>
</g>
</g>
<!-- Node6&#45;&gt;Node3 -->
<g id="edge7_Node000006_Node000003" class="edge">
<title>Node6&#45;&gt;Node3</title>
<g id="a_edge7_Node000006_Node000003"><a xlink:title=" ">
<path fill="none" stroke="#63b8ff" d="M431.09,-176C451.95,-193.06 485.84,-219.13 518.25,-236.75 520.9,-238.19 523.64,-239.59 526.43,-240.94"/>
<polygon fill="#63b8ff" stroke="#63b8ff" points="524.8,-244.04 535.35,-244.99 527.7,-237.67 524.8,-244.04"/>
</a>
</g>
</g>
<!-- Node7 -->
<g id="Node000007" class="node">
<title>Node7</title>
<g id="a_Node000007"><a xlink:href="kest__resource_8c.html#a0dbd38376633e45652b4da3a7249c4b7" target="_top" xlink:title=" ">
<polygon fill="white" stroke="#666666" points="650.88,-123.5 522.38,-123.5 522.38,-90 650.88,-90 650.88,-123.5"/>
<text xml:space="preserve" text-anchor="start" x="530.38" y="-110" font-family="Helvetica,sans-Serif" font-size="10.00">empty_m_eff_resource</text>
<text xml:space="preserve" text-anchor="middle" x="586.62" y="-97.25" font-family="Helvetica,sans-Serif" font-size="10.00">_report</text>
</a>
</g>
</g>
<!-- Node6&#45;&gt;Node7 -->
<g id="edge6_Node000006_Node000007" class="edge">
<title>Node6&#45;&gt;Node7</title>
<g id="a_edge6_Node000006_Node000007"><a xlink:title=" ">
<path fill="none" stroke="#63b8ff" d="M468.5,-141.58C483.93,-136.99 500.77,-131.98 516.75,-127.23"/>
<polygon fill="#63b8ff" stroke="#63b8ff" points="517.6,-130.63 526.19,-124.42 515.61,-123.92 517.6,-130.63"/>
</a>
</g>
</g>
<!-- Node8 -->
<g id="Node000008" class="node">
<title>Node8</title>
<g id="a_Node000008"><a xlink:href="kest__fpga__io_8c.html#a6900c9b759f1dccf1b3535cc76ad83e3" target="_top" xlink:title=" ">
<polygon fill="#fff0f0" stroke="red" points="655,-72.12 518.25,-72.12 518.25,-51.38 655,-51.38 655,-72.12"/>
<text xml:space="preserve" text-anchor="middle" x="586.62" y="-58.62" font-family="Helvetica,sans-Serif" font-size="10.00">kest_fpga_batch_append</text>
</a>
</g>
</g>
<!-- Node6&#45;&gt;Node8 -->
<g id="edge8_Node000006_Node000008" class="edge">
<title>Node6&#45;&gt;Node8</title>
<g id="a_edge8_Node000006_Node000008"><a xlink:title=" ">
<path fill="none" stroke="#63b8ff" d="M429.99,-141.51C450.52,-123.95 484.63,-97.04 518.25,-80.75 521.53,-79.16 524.97,-77.68 528.48,-76.31"/>
<polygon fill="#63b8ff" stroke="#63b8ff" points="529.48,-79.67 537.73,-73.02 527.14,-73.07 529.48,-79.67"/>
</a>
</g>
</g>
<!-- Node12 -->
<g id="Node000012" class="node">
<title>Node12</title>
<g id="a_Node000012"><a xlink:href="kest__fpga__encoding_8c.html#ad4ae765e4a682cbd9a71e3acceabf81d" target="_top" xlink:title=" ">
<polygon fill="#fff0f0" stroke="red" points="655,-33.5 518.25,-33.5 518.25,0 655,0 655,-33.5"/>
<text xml:space="preserve" text-anchor="start" x="526.25" y="-20" font-family="Helvetica,sans-Serif" font-size="10.00">kest_fpga_batch_append</text>
<text xml:space="preserve" text-anchor="middle" x="586.62" y="-7.25" font-family="Helvetica,sans-Serif" font-size="10.00">_effects</text>
</a>
</g>
</g>
<!-- Node6&#45;&gt;Node12 -->
<g id="edge9_Node000006_Node000012" class="edge">
<title>Node6&#45;&gt;Node12</title>
<g id="a_edge9_Node000006_Node000012"><a xlink:title=" ">
<path fill="none" stroke="#63b8ff" d="M422.43,-141.9C440.41,-117.08 477.12,-70.64 518.25,-42.75 520.04,-41.54 521.89,-40.37 523.8,-39.24"/>
<polygon fill="#63b8ff" stroke="#63b8ff" points="525.12,-42.51 532.3,-34.71 521.82,-36.33 525.12,-42.51"/>
</a>
</g>
</g>
<!-- Node56 -->
<g id="Node000056" class="node">
<title>Node56</title>
<g id="a_Node000056"><a xlink:href="kest__fpga__io_8c.html#aa1e89a33f9427932bc0d8e62bbfed3cb" target="_top" xlink:title=" ">
<polygon fill="#fff0f0" stroke="red" points="652.38,-227.5 520.88,-227.5 520.88,-194 652.38,-194 652.38,-227.5"/>
<text xml:space="preserve" text-anchor="start" x="528.88" y="-214" font-family="Helvetica,sans-Serif" font-size="10.00">kest_free_fpga_transfer</text>
<text xml:space="preserve" text-anchor="middle" x="586.62" y="-201.25" font-family="Helvetica,sans-Serif" font-size="10.00">_batch</text>
</a>
</g>
</g>
<!-- Node6&#45;&gt;Node56 -->
<g id="edge10_Node000006_Node000056" class="edge">
<title>Node6&#45;&gt;Node56</title>
<g id="a_edge10_Node000006_Node000056"><a xlink:title=" ">
<path fill="none" stroke="#63b8ff" d="M468.5,-175.92C483.93,-180.51 500.77,-185.52 516.75,-190.27"/>
<polygon fill="#63b8ff" stroke="#63b8ff" points="515.61,-193.58 526.19,-193.08 517.6,-186.87 515.61,-193.58"/>
</a>
</g>
</g>
<!-- Node57 -->
<g id="Node000057" class="node">
<title>Node57</title>
<g id="a_Node000057"><a xlink:href="kest__fpga__io_8c.html#adb086d525d9f47a4c077d7377110500b" target="_top" xlink:title=" ">
<polygon fill="#fff0f0" stroke="red" points="652.75,-175.5 520.5,-175.5 520.5,-142 652.75,-142 652.75,-175.5"/>
<text xml:space="preserve" text-anchor="start" x="528.5" y="-162" font-family="Helvetica,sans-Serif" font-size="10.00">kest_new_fpga_transfer</text>
<text xml:space="preserve" text-anchor="middle" x="586.62" y="-149.25" font-family="Helvetica,sans-Serif" font-size="10.00">_batch</text>
</a>
</g>
</g>
<!-- Node6&#45;&gt;Node57 -->
<g id="edge11_Node000006_Node000057" class="edge">
<title>Node6&#45;&gt;Node57</title>
<g id="a_edge11_Node000006_Node000057"><a xlink:title=" ">
<path fill="none" stroke="#63b8ff" d="M469.47,-158.75C482.05,-158.75 495.53,-158.75 508.69,-158.75"/>
<polygon fill="#63b8ff" stroke="#63b8ff" points="508.63,-162.25 518.63,-158.75 508.63,-155.25 508.63,-162.25"/>
</a>
</g>
</g>
</g>
</svg>

<g id="navigator" transform="translate(0 0)" fill="#404254">
  <rect fill="#f2f5e9" fill-opacity="0.5" stroke="#606060" stroke-width=".5" x="0" y="0" width="60" height="60"/>
  <use id="zoomplus" xlink:href="#zoomPlus" x="17" y="9" onmousedown="handleZoom(evt,'in')"/>
  <use id="zoomminus" xlink:href="#zoomMin" x="42" y="9" onmousedown="handleZoom(evt,'out')"/>
  <use id="reset" xlink:href="#resetDef" x="30" y="36" onmousedown="handleReset()"/>
   <use id="arrowup" xlink:href="#arrowUp" x="0" y="0" onmousedown="handlePan(0,-1)"/>
  <use id="arrowright" xlink:href="#arrowRight" x="0" y="0" onmousedown="handlePan(1,0)"/>
  <use id="arrowdown" xlink:href="#arrowDown" x="0" y="0" onmousedown="handlePan(0,1)"/>
  <use id="arrowleft" xlink:href="#arrowLeft" x="0" y="0" onmousedown="handlePan(-1,0)"/>
</g>
<svg viewBox="0 0 15 15" width="100%" height="30px" preserveAspectRatio="xMaxYMin meet">
 <g id="arrow_out" transform="scale(0.3 0.3)">
  <a xlink:href="kest__preset_8c_a93371f602b25d9f4667a78815c431496_cgraph_org.svg" target="_base">
   <rect id="button" ry="5" rx="5" y="6" x="6" height="38" width="38"
        fill="#f2f5e9" fill-opacity="0.5" stroke="#606060" stroke-width="1.0"/>
   <path id="arrow"
     d="M 11.500037,31.436501 C 11.940474,20.09759 22.043105,11.32322 32.158766,21.979434 L 37.068811,17.246167 C 37.068811,17.246167 37.088388,32 37.088388,32 L 22.160133,31.978069 C 22.160133,31.978069 26.997745,27.140456 26.997745,27.140456 C 18.528582,18.264221 13.291696,25.230495 11.500037,31.436501 z"
     style="fill:#404040;"/>
  </a>
 </g>
</svg>

<style type='text/css'>
<![CDATA[
[data-mouse-over-selected='false'] { opacity: 0.7; }
[data-mouse-over-selected='true']  { opacity: 1.0; }
]]>
</style>
<script type="application/ecmascript"><![CDATA[
document.addEventListener('DOMContentLoaded', (event) => {
  highlightEdges();
  highlightAdjacentNodes();
});
]]></script>
</svg>
