<?xml version="1.0" encoding="UTF-8" standalone="no"?>
<!DOCTYPE svg PUBLIC "-//W3C//DTD SVG 1.1//EN"
 "http://www.w3.org/Graphics/SVG/1.1/DTD/svg11.dtd">
<!-- Generated by graphviz version 13.1.2 (20250808.2320)
 -->
<!-- Title: kest_active_button_array_append_new Pages: 1 -->
<svg width="982pt" height="285pt"
 viewBox="0.00 0.00 982.00 285.00" xmlns="http://www.w3.org/2000/svg" xmlns:xlink="http://www.w3.org/1999/xlink">
<g id="graph0" class="graph" transform="scale(1 1) rotate(0) translate(4 281.12)">
<title>kest_active_button_array_append_new</title>
<!-- Node1 -->
<g id="Node000001" class="node">
<title>Node1</title>
<g id="a_Node000001"><a xlink:title=" ">
<polygon fill="#999999" stroke="#666666" points="974.25,-117.12 860.75,-117.12 860.75,-83.62 974.25,-83.62 974.25,-117.12"/>
<text xml:space="preserve" text-anchor="start" x="868.75" y="-103.62" font-family="Helvetica,sans-Serif" font-size="10.00">kest_active_button</text>
<text xml:space="preserve" text-anchor="middle" x="917.5" y="-90.88" font-family="Helvetica,sans-Serif" font-size="10.00">_array_append_new</text>
</a>
</g>
</g>
<!-- Node2 -->
<g id="Node000002" class="node">
<title>Node2</title>
<g id="a_Node000002"><a xlink:href="kest__preset__view_8c.html#ad8a171502fcb88f5b5a08657a6424752" target="_top" xlink:title=" ">
<polygon fill="white" stroke="#666666" points="824.75,-187.75 698.5,-187.75 698.5,-167 824.75,-167 824.75,-187.75"/>
<text xml:space="preserve" text-anchor="middle" x="761.62" y="-174.25" font-family="Helvetica,sans-Serif" font-size="10.00">configure_preset_view</text>
</a>
</g>
</g>
<!-- Node1&#45;&gt;Node2 -->
<g id="edge1_Node000001_Node000002" class="edge">
<title>Node1&#45;&gt;Node2</title>
<g id="a_edge1_Node000001_Node000002"><a xlink:title=" ">
<path fill="none" stroke="#63b8ff" d="M878.78,-123.25C862.43,-132.77 842.92,-143.62 824.75,-152.38 814.17,-157.47 802.27,-162.44 791.74,-166.59"/>
<polygon fill="#63b8ff" stroke="#63b8ff" points="880.36,-126.39 887.2,-118.3 876.81,-120.35 880.36,-126.39"/>
</a>
</g>
</g>
<!-- Node19 -->
<g id="Node000019" class="node">
<title>Node19</title>
<g id="a_Node000019"><a xlink:href="kest__sequence__view_8c.html#ac871b24a7c875a7b6e707a3d2691a2a9" target="_top" xlink:title=" ">
<polygon fill="#fff0f0" stroke="red" points="142,-148.75 0,-148.75 0,-128 142,-128 142,-148.75"/>
<text xml:space="preserve" text-anchor="middle" x="71" y="-135.25" font-family="Helvetica,sans-Serif" font-size="10.00">configure_sequence_view</text>
</a>
</g>
</g>
<!-- Node1&#45;&gt;Node19 -->
<g id="edge9_Node000001_Node000019" class="edge">
<title>Node1&#45;&gt;Node19</title>
<g id="a_edge9_Node000001_Node000019"><a xlink:title=" ">
<path fill="none" stroke="#63b8ff" d="M849.27,-115.29C841.04,-116.82 832.72,-118.23 824.75,-119.38 720.92,-134.26 694.4,-138.38 589.5,-138.38 589.5,-138.38 589.5,-138.38 412.5,-138.38 319.1,-138.38 211.29,-138.38 142.43,-138.38"/>
<polygon fill="#63b8ff" stroke="#63b8ff" points="849.77,-118.76 858.92,-113.42 848.44,-111.88 849.77,-118.76"/>
</a>
</g>
</g>
<!-- Node33 -->
<g id="Node000033" class="node">
<title>Node33</title>
<g id="a_Node000033"><a xlink:href="kest__ui_8c.html#a54f79f277b7d97da20f192e3bec8f3ec" target="_top" xlink:title=" ">
<polygon fill="white" stroke="#666666" points="804.12,-110.75 719.12,-110.75 719.12,-90 804.12,-90 804.12,-110.75"/>
<text xml:space="preserve" text-anchor="middle" x="761.62" y="-97.25" font-family="Helvetica,sans-Serif" font-size="10.00">init_test_page</text>
</a>
</g>
</g>
<!-- Node1&#45;&gt;Node33 -->
<g id="edge10_Node000001_Node000033" class="edge">
<title>Node1&#45;&gt;Node33</title>
<g id="a_edge10_Node000001_Node000033"><a xlink:title=" ">
<path fill="none" stroke="#63b8ff" d="M849.02,-100.38C833.82,-100.38 818.12,-100.38 804.34,-100.38"/>
<polygon fill="#63b8ff" stroke="#63b8ff" points="849,-103.88 859,-100.38 849,-96.88 849,-103.88"/>
</a>
</g>
</g>
<!-- Node34 -->
<g id="Node000034" class="node">
<title>Node34</title>
<g id="a_Node000034"><a xlink:href="kest__preset__view_8c.html#aed5789e6285a903942736fef4408ce40" target="_top" xlink:title=" ">
<polygon fill="white" stroke="#666666" points="819.88,-72.12 703.38,-72.12 703.38,-38.62 819.88,-38.62 819.88,-72.12"/>
<text xml:space="preserve" text-anchor="start" x="711.38" y="-58.62" font-family="Helvetica,sans-Serif" font-size="10.00">preset_view_append</text>
<text xml:space="preserve" text-anchor="middle" x="761.62" y="-45.88" font-family="Helvetica,sans-Serif" font-size="10.00">_effect</text>
</a>
</g>
</g>
<!-- Node1&#45;&gt;Node34 -->
<g id="edge11_Node000001_Node000034" class="edge">
<title>Node1&#45;&gt;Node34</title>
<g id="a_edge11_Node000001_Node000034"><a xlink:title=" ">
<path fill="none" stroke="#63b8ff" d="M849.56,-80.8C839.75,-77.93 829.72,-75 820.12,-72.19"/>
<polygon fill="#63b8ff" stroke="#63b8ff" points="848.48,-84.13 859.06,-83.58 850.44,-77.41 848.48,-84.13"/>
</a>
</g>
</g>
<!-- Node39 -->
<g id="Node000039" class="node">
<title>Node39</title>
<g id="a_Node000039"><a xlink:href="kest__sequence__view_8c.html#a83d1a352af6a3932ce4d08e01f7d8d8a" target="_top" xlink:title=" ">
<polygon fill="white" stroke="#666666" points="626.12,-20.75 550.88,-20.75 550.88,0 626.12,0 626.12,-20.75"/>
<text xml:space="preserve" text-anchor="middle" x="588.5" y="-7.25" font-family="Helvetica,sans-Serif" font-size="10.00">seq_plus_cb</text>
</a>
</g>
</g>
<!-- Node1&#45;&gt;Node39 -->
<g id="edge14_Node000001_Node000039" class="edge">
<title>Node1&#45;&gt;Node39</title>
<g id="a_edge14_Node000001_Node000039"><a xlink:title=" ">
<path fill="none" stroke="#63b8ff" d="M892.64,-75.55C875.43,-59.37 850.74,-39.44 824.75,-29.38 758.46,-3.69 673.97,-4.1 626.39,-7.02"/>
<polygon fill="#63b8ff" stroke="#63b8ff" points="889.76,-77.63 899.38,-82.08 894.64,-72.61 889.76,-77.63"/>
</a>
</g>
</g>
<!-- Node3 -->
<g id="Node000003" class="node">
<title>Node3</title>
<g id="a_Node000003"><a xlink:href="kest__preset__view_8c.html#ae4f85ce684e856ba2d0dfc97c49528b2" target="_top" xlink:title=" ">
<polygon fill="white" stroke="#666666" points="478.5,-225.75 348.5,-225.75 348.5,-205 478.5,-205 478.5,-225.75"/>
<text xml:space="preserve" text-anchor="middle" x="413.5" y="-212.25" font-family="Helvetica,sans-Serif" font-size="10.00">create_preset_view_for</text>
</a>
</g>
</g>
<!-- Node2&#45;&gt;Node3 -->
<g id="edge2_Node000002_Node000003" class="edge">
<title>Node2&#45;&gt;Node3</title>
<g id="a_edge2_Node000002_Node000003"><a xlink:title=" ">
<path fill="none" stroke="#63b8ff" d="M699.59,-190.32C687.35,-192.6 674.55,-194.75 662.5,-196.38 600.45,-204.73 529.13,-209.72 478.94,-212.47"/>
<polygon fill="#63b8ff" stroke="#63b8ff" points="699.99,-193.81 709.15,-188.49 698.67,-186.93 699.99,-193.81"/>
</a>
</g>
</g>
<!-- Node32 -->
<g id="Node000032" class="node">
<title>Node32</title>
<g id="a_Node000032"><a xlink:href="kest__preset__view_8c.html#a7aa469a400baf1fdf82d314a2ad5ddbb" target="_top" xlink:title=" ">
<polygon fill="white" stroke="#666666" points="636.62,-187.75 540.38,-187.75 540.38,-167 636.62,-167 636.62,-187.75"/>
<text xml:space="preserve" text-anchor="middle" x="588.5" y="-174.25" font-family="Helvetica,sans-Serif" font-size="10.00">init_preset_view</text>
</a>
</g>
</g>
<!-- Node2&#45;&gt;Node32 -->
<g id="edge7_Node000002_Node000032" class="edge">
<title>Node2&#45;&gt;Node32</title>
<g id="a_edge7_Node000002_Node000032"><a xlink:title=" ">
<path fill="none" stroke="#63b8ff" d="M687.29,-177.38C670.24,-177.38 652.54,-177.38 636.96,-177.38"/>
<polygon fill="#63b8ff" stroke="#63b8ff" points="686.85,-180.88 696.85,-177.38 686.85,-173.88 686.85,-180.88"/>
</a>
</g>
</g>
<!-- Node4 -->
<g id="Node000004" class="node">
<title>Node4</title>
<g id="a_Node000004"><a xlink:href="kest__preset_8c.html#ab5a769f87c6c0b82fca93ca28ff6ddb4" target="_top" xlink:title=" ">
<polygon fill="white" stroke="#666666" points="312.5,-277.12 178,-277.12 178,-243.62 312.5,-243.62 312.5,-277.12"/>
<text xml:space="preserve" text-anchor="start" x="186" y="-263.62" font-family="Helvetica,sans-Serif" font-size="10.00">create_new_preset_with</text>
<text xml:space="preserve" text-anchor="middle" x="245.25" y="-250.88" font-family="Helvetica,sans-Serif" font-size="10.00">_teensy</text>
</a>
</g>
</g>
<!-- Node3&#45;&gt;Node4 -->
<g id="edge3_Node000003_Node000004" class="edge">
<title>Node3&#45;&gt;Node4</title>
<g id="a_edge3_Node000003_Node000004"><a xlink:title=" ">
<path fill="none" stroke="#63b8ff" d="M361.69,-229.13C345.31,-233.56 326.95,-238.53 309.77,-243.18"/>
<polygon fill="#63b8ff" stroke="#63b8ff" points="362.48,-232.54 371.22,-226.55 360.65,-225.78 362.48,-232.54"/>
</a>
</g>
</g>
<!-- Node5 -->
<g id="Node000005" class="node">
<title>Node5</title>
<g id="a_Node000005"><a xlink:href="kest__files_8c.html#a94b6bb72bca4b3c7f8f01ba6fa4f8200" target="_top" xlink:title=" ">
<polygon fill="#fff0f0" stroke="red" points="301.62,-225.75 188.88,-225.75 188.88,-205 301.62,-205 301.62,-225.75"/>
<text xml:space="preserve" text-anchor="middle" x="245.25" y="-212.25" font-family="Helvetica,sans-Serif" font-size="10.00">load_saved_presets</text>
</a>
</g>
</g>
<!-- Node3&#45;&gt;Node5 -->
<g id="edge4_Node000003_Node000005" class="edge">
<title>Node3&#45;&gt;Node5</title>
<g id="a_edge4_Node000003_Node000005"><a xlink:title=" ">
<path fill="none" stroke="#63b8ff" d="M337.01,-215.38C325.22,-215.38 313.22,-215.38 301.97,-215.38"/>
<polygon fill="#63b8ff" stroke="#63b8ff" points="336.71,-218.88 346.71,-215.38 336.71,-211.88 336.71,-218.88"/>
</a>
</g>
</g>
<!-- Node18 -->
<g id="Node000018" class="node">
<title>Node18</title>
<g id="a_Node000018"><a xlink:href="kest__sequence__view_8c.html#abc9a54120c4bc7c4fe6a4632764e5e91" target="_top" xlink:title=" ">
<polygon fill="#fff0f0" stroke="red" points="303.88,-186.75 186.62,-186.75 186.62,-166 303.88,-166 303.88,-186.75"/>
<text xml:space="preserve" text-anchor="middle" x="245.25" y="-173.25" font-family="Helvetica,sans-Serif" font-size="10.00">seq_view_clicked_cb</text>
</a>
</g>
</g>
<!-- Node3&#45;&gt;Node18 -->
<g id="edge5_Node000003_Node000018" class="edge">
<title>Node3&#45;&gt;Node18</title>
<g id="a_edge5_Node000003_Node000018"><a xlink:title=" ">
<path fill="none" stroke="#63b8ff" d="M355.12,-201.91C334.7,-197.12 311.98,-191.79 292.6,-187.25"/>
<polygon fill="#63b8ff" stroke="#63b8ff" points="354.18,-205.29 364.72,-204.17 355.78,-198.47 354.18,-205.29"/>
</a>
</g>
</g>
<!-- Node18&#45;&gt;Node19 -->
<g id="edge6_Node000018_Node000019" class="edge">
<title>Node18&#45;&gt;Node19</title>
<g id="a_edge6_Node000018_Node000019"><a xlink:title=" ">
<path fill="none" stroke="#63b8ff" d="M184.15,-163.12C163.51,-158.56 140.67,-153.52 121.02,-149.19"/>
<polygon fill="#63b8ff" stroke="#63b8ff" points="183.35,-166.52 193.87,-165.26 184.86,-159.69 183.35,-166.52"/>
</a>
</g>
</g>
<!-- Node32&#45;&gt;Node3 -->
<g id="edge8_Node000032_Node000003" class="edge">
<title>Node32&#45;&gt;Node3</title>
<g id="a_edge8_Node000032_Node000003"><a xlink:title=" ">
<path fill="none" stroke="#63b8ff" d="M529.08,-190.21C507.88,-194.86 484.16,-200.07 463.83,-204.54"/>
<polygon fill="#63b8ff" stroke="#63b8ff" points="529.73,-193.65 538.75,-188.08 528.23,-186.81 529.73,-193.65"/>
</a>
</g>
</g>
<!-- Node35 -->
<g id="Node000035" class="node">
<title>Node35</title>
<g id="a_Node000035"><a xlink:href="kest__effect__select_8c.html#a0a0604d69c6fbeb09b31db2ebff0e901" target="_top" xlink:title=" ">
<polygon fill="white" stroke="#666666" points="662.5,-65.75 514.5,-65.75 514.5,-45 662.5,-45 662.5,-65.75"/>
<text xml:space="preserve" text-anchor="middle" x="588.5" y="-52.25" font-family="Helvetica,sans-Serif" font-size="10.00">add_effect_from_menu_eff</text>
</a>
</g>
</g>
<!-- Node34&#45;&gt;Node35 -->
<g id="edge12_Node000034_Node000035" class="edge">
<title>Node34&#45;&gt;Node35</title>
<g id="a_edge12_Node000034_Node000035"><a xlink:title=" ">
<path fill="none" stroke="#63b8ff" d="M691.76,-55.38C682.27,-55.38 672.49,-55.38 662.91,-55.38"/>
<polygon fill="#63b8ff" stroke="#63b8ff" points="691.65,-58.88 701.65,-55.38 691.65,-51.88 691.65,-58.88"/>
</a>
</g>
</g>
<!-- Node36 -->
<g id="Node000036" class="node">
<title>Node36</title>
<g id="a_Node000036"><a xlink:href="kest__effect__select_8c.html#a46b6d3a353595e72c7a17e6352e5a7a0" target="_top" xlink:title=" ">
<polygon fill="#fff0f0" stroke="red" points="475.88,-72.12 351.12,-72.12 351.12,-38.62 475.88,-38.62 475.88,-72.12"/>
<text xml:space="preserve" text-anchor="start" x="359.12" y="-58.62" font-family="Helvetica,sans-Serif" font-size="10.00">create_effect_selector</text>
<text xml:space="preserve" text-anchor="middle" x="413.5" y="-45.88" font-family="Helvetica,sans-Serif" font-size="10.00">_button_ui_eff</text>
</a>
</g>
</g>
<!-- Node35&#45;&gt;Node36 -->
<g id="edge13_Node000035_Node000036" class="edge">
<title>Node35&#45;&gt;Node36</title>
<g id="a_edge13_Node000035_Node000036"><a xlink:title=" ">
<path fill="none" stroke="#63b8ff" d="M502.82,-55.38C493.86,-55.38 484.87,-55.38 476.25,-55.38"/>
<polygon fill="#63b8ff" stroke="#63b8ff" points="502.62,-58.88 512.62,-55.38 502.62,-51.88 502.62,-58.88"/>
</a>
</g>
</g>
<!-- Node39&#45;&gt;Node19 -->
<g id="edge15_Node000039_Node000019" class="edge">
<title>Node39&#45;&gt;Node19</title>
<g id="a_edge15_Node000039_Node000019"><a xlink:title=" ">
<path fill="none" stroke="#63b8ff" d="M539.09,-10.05C490.35,-10.7 413.31,-14.38 348.5,-29.38 249.22,-52.35 138.55,-104.75 93.16,-127.5"/>
<polygon fill="#63b8ff" stroke="#63b8ff" points="539.06,-13.55 549.03,-9.97 539,-6.55 539.06,-13.55"/>
</a>
</g>
</g>
</g>
</svg>
