<?xml version="1.0" encoding="UTF-8" standalone="no"?>
<!DOCTYPE svg PUBLIC "-//W3C//DTD SVG 1.1//EN"
 "http://www.w3.org/Graphics/SVG/1.1/DTD/svg11.dtd">
<!-- Generated by graphviz version 13.1.2 (20250808.2320)
 -->
<!-- Title: kest_effect_update_fpga Pages: 1 -->
<svg width="1030pt" height="412pt"
 viewBox="0.00 0.00 1030.00 412.00" xmlns="http://www.w3.org/2000/svg" xmlns:xlink="http://www.w3.org/1999/xlink">
<g id="graph0" class="graph" transform="scale(1 1) rotate(0) translate(4 408.12)">
<title>kest_effect_update_fpga</title>
<!-- Node1 -->
<g id="Node000001" class="node">
<title>Node1</title>
<g id="a_Node000001"><a xlink:title=" ">
<polygon fill="#999999" stroke="#666666" points="136,-135.12 0,-135.12 0,-114.38 136,-114.38 136,-135.12"/>
<text xml:space="preserve" text-anchor="middle" x="68" y="-121.62" font-family="Helvetica,sans-Serif" font-size="10.00">kest_effect_update_fpga</text>
</a>
</g>
</g>
<!-- Node2 -->
<g id="Node000002" class="node">
<title>Node2</title>
<g id="a_Node000002"><a xlink:href="kest__fpga__comms_8c.html#a3489962eaa9ab553d254921b6dc9647d" target="_top" xlink:title=" ">
<polygon fill="white" stroke="#666666" points="314,-289.5 172,-289.5 172,-256 314,-256 314,-289.5"/>
<text xml:space="preserve" text-anchor="start" x="180" y="-276" font-family="Helvetica,sans-Serif" font-size="10.00">kest_fpga_queue_transfer</text>
<text xml:space="preserve" text-anchor="middle" x="243" y="-263.25" font-family="Helvetica,sans-Serif" font-size="10.00">_batch</text>
</a>
</g>
</g>
<!-- Node1&#45;&gt;Node2 -->
<g id="edge1_Node000001_Node000002" class="edge">
<title>Node1&#45;&gt;Node2</title>
<g id="a_edge1_Node000001_Node000002"><a xlink:title=" ">
<path fill="none" stroke="#63b8ff" d="M75.33,-135.48C89.66,-158.9 126.87,-215.03 172,-246.75 173.75,-247.98 175.57,-249.16 177.43,-250.29"/>
<polygon fill="#63b8ff" stroke="#63b8ff" points="175.31,-253.12 185.76,-254.82 178.65,-246.97 175.31,-253.12"/>
</a>
</g>
</g>
<!-- Node3 -->
<g id="Node000003" class="node">
<title>Node3</title>
<g id="a_Node000003"><a xlink:href="kest__fpga__encoding_8c.html#a2f82b2c396c41026c378670b04592a6b" target="_top" xlink:title=" ">
<polygon fill="white" stroke="#666666" points="304.62,-237.88 181.38,-237.88 181.38,-191.62 304.62,-191.62 304.62,-237.88"/>
<text xml:space="preserve" text-anchor="start" x="189.38" y="-224.38" font-family="Helvetica,sans-Serif" font-size="10.00">kest_fpga_transfer</text>
<text xml:space="preserve" text-anchor="start" x="189.38" y="-211.62" font-family="Helvetica,sans-Serif" font-size="10.00">_batch_append_effect</text>
<text xml:space="preserve" text-anchor="middle" x="243" y="-198.88" font-family="Helvetica,sans-Serif" font-size="10.00">_register_updates</text>
</a>
</g>
</g>
<!-- Node1&#45;&gt;Node3 -->
<g id="edge2_Node000001_Node000003" class="edge">
<title>Node1&#45;&gt;Node3</title>
<g id="a_edge2_Node000001_Node000003"><a xlink:title=" ">
<path fill="none" stroke="#63b8ff" d="M86.98,-135.49C107.34,-147.5 141.64,-167.3 172,-182.75 174.36,-183.95 176.78,-185.16 179.22,-186.36"/>
<polygon fill="#63b8ff" stroke="#63b8ff" points="177.51,-189.43 188.04,-190.63 180.56,-183.12 177.51,-189.43"/>
</a>
</g>
</g>
<!-- Node24 -->
<g id="Node000024" class="node">
<title>Node24</title>
<g id="a_Node000024"><a xlink:href="kest__fpga__encoding_8c.html#a815f4fb2e5a9d1e468df416e3385a638" target="_top" xlink:title=" ">
<polygon fill="white" stroke="#666666" points="304.62,-173.88 181.38,-173.88 181.38,-127.62 304.62,-127.62 304.62,-173.88"/>
<text xml:space="preserve" text-anchor="start" x="189.38" y="-160.38" font-family="Helvetica,sans-Serif" font-size="10.00">kest_fpga_transfer</text>
<text xml:space="preserve" text-anchor="start" x="189.38" y="-147.62" font-family="Helvetica,sans-Serif" font-size="10.00">_batch_append_effect</text>
<text xml:space="preserve" text-anchor="middle" x="243" y="-134.88" font-family="Helvetica,sans-Serif" font-size="10.00">_resource_updates</text>
</a>
</g>
</g>
<!-- Node1&#45;&gt;Node24 -->
<g id="edge15_Node000001_Node000024" class="edge">
<title>Node1&#45;&gt;Node24</title>
<g id="a_edge15_Node000001_Node000024"><a xlink:title=" ">
<path fill="none" stroke="#63b8ff" d="M136.38,-134.88C147.3,-136.52 158.64,-138.22 169.66,-139.88"/>
<polygon fill="#63b8ff" stroke="#63b8ff" points="169.1,-143.33 179.51,-141.36 170.14,-136.41 169.1,-143.33"/>
</a>
</g>
</g>
<!-- Node29 -->
<g id="Node000029" class="node">
<title>Node29</title>
<g id="a_Node000029"><a xlink:href="kest__fpga__io_8c.html#adb086d525d9f47a4c077d7377110500b" target="_top" xlink:title=" ">
<polygon fill="white" stroke="#666666" points="309.12,-33.5 176.88,-33.5 176.88,0 309.12,0 309.12,-33.5"/>
<text xml:space="preserve" text-anchor="start" x="184.88" y="-20" font-family="Helvetica,sans-Serif" font-size="10.00">kest_new_fpga_transfer</text>
<text xml:space="preserve" text-anchor="middle" x="243" y="-7.25" font-family="Helvetica,sans-Serif" font-size="10.00">_batch</text>
</a>
</g>
</g>
<!-- Node1&#45;&gt;Node29 -->
<g id="edge22_Node000001_Node000029" class="edge">
<title>Node1&#45;&gt;Node29</title>
<g id="a_edge22_Node000001_Node000029"><a xlink:title=" ">
<path fill="none" stroke="#63b8ff" d="M81.36,-114.05C100.07,-98.2 137.12,-68.16 172,-47.75 177.31,-44.65 182.98,-41.65 188.71,-38.83"/>
<polygon fill="#63b8ff" stroke="#63b8ff" points="190.13,-42.03 197.67,-34.59 187.13,-35.7 190.13,-42.03"/>
</a>
</g>
</g>
<!-- Node30 -->
<g id="Node000030" class="node">
<title>Node30</title>
<g id="a_Node000030"><a xlink:href="kest__expr__scope_8c.html#a6329eee07be244ac7c7dd045f6aaa0ac" target="_top" xlink:title=" ">
<polygon fill="white" stroke="#666666" points="844.25,-65.12 700.75,-65.12 700.75,-44.38 844.25,-44.38 844.25,-65.12"/>
<text xml:space="preserve" text-anchor="middle" x="772.5" y="-51.62" font-family="Helvetica,sans-Serif" font-size="10.00">kest_scope_clear_updates</text>
</a>
</g>
</g>
<!-- Node1&#45;&gt;Node30 -->
<g id="edge24_Node000001_Node000030" class="edge">
<title>Node1&#45;&gt;Node30</title>
<g id="a_edge24_Node000001_Node000030"><a xlink:title=" ">
<path fill="none" stroke="#63b8ff" d="M134.85,-113.88C147.18,-112.02 159.97,-110.23 172,-108.75 356.2,-86.17 573.33,-68.93 689.06,-60.49"/>
<polygon fill="#63b8ff" stroke="#63b8ff" points="689.05,-64 698.77,-59.79 688.55,-57.02 689.05,-64"/>
</a>
</g>
</g>
<!-- Node32 -->
<g id="Node000032" class="node">
<title>Node32</title>
<g id="a_Node000032"><a xlink:href="kest__expr__scope_8c.html#a38b63c16b3979ad26c30a0dc0b73e96a" target="_top" xlink:title=" ">
<polygon fill="white" stroke="#666666" points="834.88,-116.5 710.12,-116.5 710.12,-83 834.88,-83 834.88,-116.5"/>
<text xml:space="preserve" text-anchor="start" x="718.12" y="-103" font-family="Helvetica,sans-Serif" font-size="10.00">kest_scope_propagate</text>
<text xml:space="preserve" text-anchor="middle" x="772.5" y="-90.25" font-family="Helvetica,sans-Serif" font-size="10.00">_updates</text>
</a>
</g>
</g>
<!-- Node1&#45;&gt;Node32 -->
<g id="edge27_Node000001_Node000032" class="edge">
<title>Node1&#45;&gt;Node32</title>
<g id="a_edge27_Node000001_Node000032"><a xlink:title=" ">
<path fill="none" stroke="#63b8ff" d="M136.3,-120.57C148.19,-119.91 160.46,-119.27 172,-118.75 361.83,-110.21 585.65,-104.19 698.54,-101.44"/>
<polygon fill="#63b8ff" stroke="#63b8ff" points="698.35,-104.94 708.26,-101.2 698.18,-97.95 698.35,-104.94"/>
</a>
</g>
</g>
<!-- Node4 -->
<g id="Node000004" class="node">
<title>Node4</title>
<g id="a_Node000004"><a xlink:href="kest__fpga__encoding_8c.html#a671c5c9aca5f0e8197dbccbc0dd8291c" target="_top" xlink:title=" ">
<polygon fill="white" stroke="#666666" points="486.75,-289.5 350,-289.5 350,-256 486.75,-256 486.75,-289.5"/>
<text xml:space="preserve" text-anchor="start" x="358" y="-276" font-family="Helvetica,sans-Serif" font-size="10.00">kest_fpga_batch_append</text>
<text xml:space="preserve" text-anchor="middle" x="418.38" y="-263.25" font-family="Helvetica,sans-Serif" font-size="10.00">_block_register_updates</text>
</a>
</g>
</g>
<!-- Node3&#45;&gt;Node4 -->
<g id="edge3_Node000003_Node000004" class="edge">
<title>Node3&#45;&gt;Node4</title>
<g id="a_edge3_Node000003_Node000004"><a xlink:title=" ">
<path fill="none" stroke="#63b8ff" d="M304.64,-235.04C321.06,-240.53 338.86,-246.48 355.35,-252"/>
<polygon fill="#63b8ff" stroke="#63b8ff" points="353.95,-255.22 364.54,-255.08 356.17,-248.58 353.95,-255.22"/>
</a>
</g>
</g>
<!-- Node5 -->
<g id="Node000005" class="node">
<title>Node5</title>
<g id="a_Node000005"><a xlink:href="kest__fixed__point_8c.html#a1580bc2204b9b5083cfb04e1e883ea35" target="_top" xlink:title=" ">
<polygon fill="white" stroke="#666666" points="647.12,-404.12 535.12,-404.12 535.12,-383.38 647.12,-383.38 647.12,-404.12"/>
<text xml:space="preserve" text-anchor="middle" x="591.12" y="-390.62" font-family="Helvetica,sans-Serif" font-size="10.00">float_to_q_nminus1</text>
</a>
</g>
</g>
<!-- Node4&#45;&gt;Node5 -->
<g id="edge4_Node000004_Node000005" class="edge">
<title>Node4&#45;&gt;Node5</title>
<g id="a_edge4_Node000004_Node000005"><a xlink:title=" ">
<path fill="none" stroke="#63b8ff" d="M433.47,-289.73C451.97,-311.07 486.41,-347.57 522.75,-369.75 528.32,-373.15 534.44,-376.16 540.65,-378.81"/>
<polygon fill="#63b8ff" stroke="#63b8ff" points="539.11,-381.96 549.7,-382.36 541.67,-375.45 539.11,-381.96"/>
</a>
</g>
</g>
<!-- Node6 -->
<g id="Node000006" class="node">
<title>Node6</title>
<g id="a_Node000006"><a xlink:href="kest__expression_8c.html#a8df028c238f29a5c5e59bcff98e28157" target="_top" xlink:title=" ">
<polygon fill="white" stroke="#666666" points="843.88,-306.12 701.12,-306.12 701.12,-285.38 843.88,-285.38 843.88,-306.12"/>
<text xml:space="preserve" text-anchor="middle" x="772.5" y="-292.62" font-family="Helvetica,sans-Serif" font-size="10.00">kest_expression_evaluate</text>
</a>
</g>
</g>
<!-- Node4&#45;&gt;Node6 -->
<g id="edge5_Node000004_Node000006" class="edge">
<title>Node4&#45;&gt;Node6</title>
<g id="a_edge5_Node000004_Node000006"><a xlink:title=" ">
<path fill="none" stroke="#63b8ff" d="M477.13,-289.94C491.87,-293.59 507.78,-296.9 522.75,-298.75 578,-305.59 640.69,-304.78 689.31,-302.29"/>
<polygon fill="#63b8ff" stroke="#63b8ff" points="689.42,-305.79 699.21,-301.75 689.03,-298.8 689.42,-305.79"/>
</a>
</g>
</g>
<!-- Node7 -->
<g id="Node000007" class="node">
<title>Node7</title>
<g id="a_Node000007"><a xlink:href="kest__expression_8c.html#a06fc3d0394cad5e965de056f7af84b72" target="_top" xlink:title=" ">
<polygon fill="#fff0f0" stroke="red" points="842.38,-168.5 702.62,-168.5 702.62,-135 842.38,-135 842.38,-168.5"/>
<text xml:space="preserve" text-anchor="start" x="710.62" y="-155" font-family="Helvetica,sans-Serif" font-size="10.00">kest_expression_updated</text>
<text xml:space="preserve" text-anchor="middle" x="772.5" y="-142.25" font-family="Helvetica,sans-Serif" font-size="10.00">_in_scope</text>
</a>
</g>
</g>
<!-- Node4&#45;&gt;Node7 -->
<g id="edge6_Node000004_Node000007" class="edge">
<title>Node4&#45;&gt;Node7</title>
<g id="a_edge6_Node000004_Node000007"><a xlink:title=" ">
<path fill="none" stroke="#63b8ff" d="M434,-255.63C461.08,-224.02 516.84,-159.47 522.75,-156.75 575.09,-132.65 640.44,-132.31 691.02,-137.51"/>
<polygon fill="#63b8ff" stroke="#63b8ff" points="690.39,-140.96 700.72,-138.61 691.18,-134.01 690.39,-140.96"/>
</a>
</g>
</g>
<!-- Node18 -->
<g id="Node000018" class="node">
<title>Node18</title>
<g id="a_Node000018"><a xlink:href="kest__fpga__io_8c.html#a6900c9b759f1dccf1b3535cc76ad83e3" target="_top" xlink:title=" ">
<polygon fill="#fff0f0" stroke="red" points="1022.25,-245.12 885.5,-245.12 885.5,-224.38 1022.25,-224.38 1022.25,-245.12"/>
<text xml:space="preserve" text-anchor="middle" x="953.88" y="-231.62" font-family="Helvetica,sans-Serif" font-size="10.00">kest_fpga_batch_append</text>
</a>
</g>
</g>
<!-- Node4&#45;&gt;Node18 -->
<g id="edge10_Node000004_Node000018" class="edge">
<title>Node4&#45;&gt;Node18</title>
<g id="a_edge10_Node000004_Node000018"><a xlink:title=" ">
<path fill="none" stroke="#63b8ff" d="M451.39,-289.93C471.3,-299.62 497.78,-310.76 522.75,-315.75 550.71,-321.33 831.79,-320.85 849.5,-314.75 884.66,-302.63 917.17,-273.24 936.02,-253.66"/>
<polygon fill="#63b8ff" stroke="#63b8ff" points="938.38,-256.26 942.64,-246.56 933.26,-251.48 938.38,-256.26"/>
</a>
</g>
</g>
<!-- Node22 -->
<g id="Node000022" class="node">
<title>Node22</title>
<g id="a_Node000022"><a xlink:href="kest__fpga__io_8c.html#a1d6d30e20ceac79973b36fd12e790aa5" target="_top" xlink:title=" ">
<polygon fill="white" stroke="#666666" points="849.5,-245.12 695.5,-245.12 695.5,-224.38 849.5,-224.38 849.5,-245.12"/>
<text xml:space="preserve" text-anchor="middle" x="772.5" y="-231.62" font-family="Helvetica,sans-Serif" font-size="10.00">kest_fpga_batch_append_16</text>
</a>
</g>
</g>
<!-- Node4&#45;&gt;Node22 -->
<g id="edge11_Node000004_Node000022" class="edge">
<title>Node4&#45;&gt;Node22</title>
<g id="a_edge11_Node000004_Node000022"><a xlink:title=" ">
<path fill="none" stroke="#63b8ff" d="M479.37,-255.53C493.49,-252.07 508.56,-248.85 522.75,-246.75 575.9,-238.86 636.08,-235.81 683.93,-234.75"/>
<polygon fill="#63b8ff" stroke="#63b8ff" points="683.74,-238.25 693.67,-234.56 683.61,-231.25 683.74,-238.25"/>
</a>
</g>
</g>
<!-- Node23 -->
<g id="Node000023" class="node">
<title>Node23</title>
<g id="a_Node000023"><a xlink:href="kest__fpga__encoding_8c.html#a9b93bb2d500d5c9986515930a0f9ce47" target="_top" xlink:title=" ">
<polygon fill="white" stroke="#666666" points="659.5,-289.5 522.75,-289.5 522.75,-256 659.5,-256 659.5,-289.5"/>
<text xml:space="preserve" text-anchor="start" x="530.75" y="-276" font-family="Helvetica,sans-Serif" font-size="10.00">kest_fpga_batch_append</text>
<text xml:space="preserve" text-anchor="middle" x="591.12" y="-263.25" font-family="Helvetica,sans-Serif" font-size="10.00">_block_number</text>
</a>
</g>
</g>
<!-- Node4&#45;&gt;Node23 -->
<g id="edge13_Node000004_Node000023" class="edge">
<title>Node4&#45;&gt;Node23</title>
<g id="a_edge13_Node000004_Node000023"><a xlink:title=" ">
<path fill="none" stroke="#63b8ff" d="M486.86,-272.75C494.78,-272.75 502.91,-272.75 510.98,-272.75"/>
<polygon fill="#63b8ff" stroke="#63b8ff" points="510.78,-276.25 520.78,-272.75 510.78,-269.25 510.78,-276.25"/>
</a>
</g>
</g>
<!-- Node8 -->
<g id="Node000008" class="node">
<title>Node8</title>
<g id="a_Node000008"><a xlink:href="kest__expression_8c.html#a4428080cc6a255e85501a259bdb4dc8a" target="_top" xlink:title=" ">
<polygon fill="#fff0f0" stroke="red" points="1011.75,-155.5 896,-155.5 896,-122 1011.75,-122 1011.75,-155.5"/>
<text xml:space="preserve" text-anchor="start" x="904" y="-142" font-family="Helvetica,sans-Serif" font-size="10.00">kest_expression_get</text>
<text xml:space="preserve" text-anchor="middle" x="953.88" y="-129.25" font-family="Helvetica,sans-Serif" font-size="10.00">_references</text>
</a>
</g>
</g>
<!-- Node7&#45;&gt;Node8 -->
<g id="edge7_Node000007_Node000008" class="edge">
<title>Node7&#45;&gt;Node8</title>
<g id="a_edge7_Node000007_Node000008"><a xlink:title=" ">
<path fill="none" stroke="#63b8ff" d="M842.85,-146.72C856.48,-145.74 870.78,-144.7 884.38,-143.71"/>
<polygon fill="#63b8ff" stroke="#63b8ff" points="884.39,-147.22 894.11,-143.01 883.88,-140.24 884.39,-147.22"/>
</a>
</g>
</g>
<!-- Node16 -->
<g id="Node000016" class="node">
<title>Node16</title>
<g id="a_Node000016"><a xlink:href="kest__expr__scope_8c.html#a4b961bc6e7b1010aacc02440ff92a605" target="_top" xlink:title=" ">
<polygon fill="white" stroke="#666666" points="1005,-104.12 902.75,-104.12 902.75,-83.38 1005,-83.38 1005,-104.12"/>
<text xml:space="preserve" text-anchor="middle" x="953.88" y="-90.62" font-family="Helvetica,sans-Serif" font-size="10.00">kest_scope_count</text>
</a>
</g>
</g>
<!-- Node7&#45;&gt;Node16 -->
<g id="edge8_Node000007_Node000016" class="edge">
<title>Node7&#45;&gt;Node16</title>
<g id="a_edge8_Node000007_Node000016"><a xlink:title=" ">
<path fill="none" stroke="#63b8ff" d="M824.23,-134.53C832.68,-131.62 841.34,-128.62 849.5,-125.75 865.55,-120.11 869.3,-117.95 885.5,-112.75 890.86,-111.03 896.48,-109.31 902.1,-107.65"/>
<polygon fill="#63b8ff" stroke="#63b8ff" points="902.75,-111.1 911.38,-104.95 900.8,-104.38 902.75,-111.1"/>
</a>
</g>
</g>
<!-- Node17 -->
<g id="Node000017" class="node">
<title>Node17</title>
<g id="a_Node000017"><a xlink:href="kest__expr__scope_8c.html#a536647952c07049da59284b9f928bd67" target="_top" xlink:title=" ">
<polygon fill="white" stroke="#666666" points="1008,-194.12 899.75,-194.12 899.75,-173.38 1008,-173.38 1008,-194.12"/>
<text xml:space="preserve" text-anchor="middle" x="953.88" y="-180.62" font-family="Helvetica,sans-Serif" font-size="10.00">kest_scope_lookup</text>
</a>
</g>
</g>
<!-- Node7&#45;&gt;Node17 -->
<g id="edge9_Node000007_Node000017" class="edge">
<title>Node7&#45;&gt;Node17</title>
<g id="a_edge9_Node000007_Node000017"><a xlink:title=" ">
<path fill="none" stroke="#63b8ff" d="M842.85,-164.12C857.78,-166.78 873.5,-169.59 888.24,-172.22"/>
<polygon fill="#63b8ff" stroke="#63b8ff" points="887.34,-175.61 897.8,-173.92 888.57,-168.72 887.34,-175.61"/>
</a>
</g>
</g>
<!-- Node22&#45;&gt;Node18 -->
<g id="edge12_Node000022_Node000018" class="edge">
<title>Node22&#45;&gt;Node18</title>
<g id="a_edge12_Node000022_Node000018"><a xlink:title=" ">
<path fill="none" stroke="#63b8ff" d="M849.83,-234.75C857.71,-234.75 865.73,-234.75 873.64,-234.75"/>
<polygon fill="#63b8ff" stroke="#63b8ff" points="873.61,-238.25 883.61,-234.75 873.61,-231.25 873.61,-238.25"/>
</a>
</g>
</g>
<!-- Node23&#45;&gt;Node22 -->
<g id="edge14_Node000023_Node000022" class="edge">
<title>Node23&#45;&gt;Node22</title>
<g id="a_edge14_Node000023_Node000022"><a xlink:title=" ">
<path fill="none" stroke="#63b8ff" d="M659.94,-258.38C676.22,-254.93 693.53,-251.27 709.53,-247.88"/>
<polygon fill="#63b8ff" stroke="#63b8ff" points="709.83,-251.39 718.89,-245.89 708.38,-244.54 709.83,-251.39"/>
</a>
</g>
</g>
<!-- Node25 -->
<g id="Node000025" class="node">
<title>Node25</title>
<g id="a_Node000025"><a xlink:href="kest__fpga__encoding_8c.html#ac394803c8e9221fd364038f343070fcb" target="_top" xlink:title=" ">
<polygon fill="white" stroke="#666666" points="486.75,-183.5 350,-183.5 350,-150 486.75,-150 486.75,-183.5"/>
<text xml:space="preserve" text-anchor="start" x="358" y="-170" font-family="Helvetica,sans-Serif" font-size="10.00">kest_fpga_batch_append</text>
<text xml:space="preserve" text-anchor="middle" x="418.38" y="-157.25" font-family="Helvetica,sans-Serif" font-size="10.00">_resource_updates</text>
</a>
</g>
</g>
<!-- Node24&#45;&gt;Node25 -->
<g id="edge16_Node000024_Node000025" class="edge">
<title>Node24&#45;&gt;Node25</title>
<g id="a_edge16_Node000024_Node000025"><a xlink:title=" ">
<path fill="none" stroke="#63b8ff" d="M304.64,-156.35C315.55,-157.35 327.07,-158.42 338.41,-159.46"/>
<polygon fill="#63b8ff" stroke="#63b8ff" points="337.88,-162.93 348.16,-160.36 338.52,-155.96 337.88,-162.93"/>
</a>
</g>
</g>
<!-- Node26 -->
<g id="Node000026" class="node">
<title>Node26</title>
<g id="a_Node000026"><a xlink:href="kest__fpga__encoding_8c.html#a64f5333c5ff60101795695bce0de75d5" target="_top" xlink:title=" ">
<polygon fill="#fff0f0" stroke="red" points="659.5,-199.5 522.75,-199.5 522.75,-166 659.5,-166 659.5,-199.5"/>
<text xml:space="preserve" text-anchor="start" x="530.75" y="-186" font-family="Helvetica,sans-Serif" font-size="10.00">kest_fpga_batch_append</text>
<text xml:space="preserve" text-anchor="middle" x="591.12" y="-173.25" font-family="Helvetica,sans-Serif" font-size="10.00">_filter_updates</text>
</a>
</g>
</g>
<!-- Node25&#45;&gt;Node26 -->
<g id="edge17_Node000025_Node000026" class="edge">
<title>Node25&#45;&gt;Node26</title>
<g id="a_edge17_Node000025_Node000026"><a xlink:title=" ">
<path fill="none" stroke="#63b8ff" d="M486.86,-173.07C494.78,-173.82 502.91,-174.58 510.98,-175.33"/>
<polygon fill="#63b8ff" stroke="#63b8ff" points="510.5,-178.8 520.78,-176.25 511.15,-171.83 510.5,-178.8"/>
</a>
</g>
</g>
<!-- Node26&#45;&gt;Node6 -->
<g id="edge18_Node000026_Node000006" class="edge">
<title>Node26&#45;&gt;Node6</title>
<g id="a_edge18_Node000026_Node000006"><a xlink:title=" ">
<path fill="none" stroke="#63b8ff" d="M615.51,-199.77C636.18,-214.59 667.34,-236.36 695.5,-253.75 710.12,-262.78 726.78,-272.09 740.77,-279.65"/>
<polygon fill="#63b8ff" stroke="#63b8ff" points="739.07,-282.7 749.53,-284.33 742.37,-276.53 739.07,-282.7"/>
</a>
</g>
</g>
<!-- Node26&#45;&gt;Node7 -->
<g id="edge19_Node000026_Node000007" class="edge">
<title>Node26&#45;&gt;Node7</title>
<g id="a_edge19_Node000026_Node000007"><a xlink:title=" ">
<path fill="none" stroke="#63b8ff" d="M659.94,-171.03C670.14,-169.27 680.74,-167.44 691.17,-165.63"/>
<polygon fill="#63b8ff" stroke="#63b8ff" points="691.65,-169.1 700.91,-163.95 690.46,-162.2 691.65,-169.1"/>
</a>
</g>
</g>
<!-- Node26&#45;&gt;Node18 -->
<g id="edge20_Node000026_Node000018" class="edge">
<title>Node26&#45;&gt;Node18</title>
<g id="a_edge20_Node000026_Node000018"><a xlink:title=" ">
<path fill="none" stroke="#63b8ff" d="M659.73,-190.4C711.73,-196.53 785.29,-205.74 849.5,-215.75 861.3,-217.59 873.83,-219.73 885.94,-221.9"/>
<polygon fill="#63b8ff" stroke="#63b8ff" points="884.95,-225.28 895.42,-223.62 886.2,-218.39 884.95,-225.28"/>
</a>
</g>
</g>
<!-- Node26&#45;&gt;Node22 -->
<g id="edge21_Node000026_Node000022" class="edge">
<title>Node26&#45;&gt;Node22</title>
<g id="a_edge21_Node000026_Node000022"><a xlink:title=" ">
<path fill="none" stroke="#63b8ff" d="M651.36,-199.92C674.66,-206.68 701.09,-214.34 723.21,-220.75"/>
<polygon fill="#63b8ff" stroke="#63b8ff" points="721.98,-224.04 732.56,-223.46 723.93,-217.32 721.98,-224.04"/>
</a>
</g>
</g>
<!-- Node20 -->
<g id="Node000020" class="node">
<title>Node20</title>
<g id="a_Node000020"><a xlink:href="kest__alloc_8c.html#a849755c5dc5b35e712ffcdb602e50fb4" target="_top" xlink:title=" ">
<polygon fill="white" stroke="#666666" points="450.75,-27.12 386,-27.12 386,-6.38 450.75,-6.38 450.75,-27.12"/>
<text xml:space="preserve" text-anchor="middle" x="418.38" y="-13.62" font-family="Helvetica,sans-Serif" font-size="10.00">kest_alloc</text>
</a>
</g>
</g>
<!-- Node29&#45;&gt;Node20 -->
<g id="edge23_Node000029_Node000020" class="edge">
<title>Node29&#45;&gt;Node20</title>
<g id="a_edge23_Node000029_Node000020"><a xlink:title=" ">
<path fill="none" stroke="#63b8ff" d="M309.55,-16.75C331.25,-16.75 354.83,-16.75 374.39,-16.75"/>
<polygon fill="#63b8ff" stroke="#63b8ff" points="374.19,-20.25 384.19,-16.75 374.19,-13.25 374.19,-20.25"/>
</a>
</g>
</g>
<!-- Node30&#45;&gt;Node16 -->
<g id="edge25_Node000030_Node000016" class="edge">
<title>Node30&#45;&gt;Node16</title>
<g id="a_edge25_Node000030_Node000016"><a xlink:title=" ">
<path fill="none" stroke="#63b8ff" d="M823.47,-65.61C844.66,-70.22 869.56,-75.64 891.83,-80.48"/>
<polygon fill="#63b8ff" stroke="#63b8ff" points="890.87,-83.85 901.39,-82.56 892.36,-77.01 890.87,-83.85"/>
</a>
</g>
</g>
<!-- Node31 -->
<g id="Node000031" class="node">
<title>Node31</title>
<g id="a_Node000031"><a xlink:href="kest__expr__scope_8c.html#a003d0a831a549dab0e93c2ad5c82d14e" target="_top" xlink:title=" ">
<polygon fill="white" stroke="#666666" points="1005,-65.12 902.75,-65.12 902.75,-44.38 1005,-44.38 1005,-65.12"/>
<text xml:space="preserve" text-anchor="middle" x="953.88" y="-51.62" font-family="Helvetica,sans-Serif" font-size="10.00">kest_scope_index</text>
</a>
</g>
</g>
<!-- Node30&#45;&gt;Node31 -->
<g id="edge26_Node000030_Node000031" class="edge">
<title>Node30&#45;&gt;Node31</title>
<g id="a_edge26_Node000030_Node000031"><a xlink:title=" ">
<path fill="none" stroke="#63b8ff" d="M844.65,-54.75C860.01,-54.75 876.12,-54.75 891.08,-54.75"/>
<polygon fill="#63b8ff" stroke="#63b8ff" points="890.76,-58.25 900.76,-54.75 890.76,-51.25 890.76,-58.25"/>
</a>
</g>
</g>
<!-- Node32&#45;&gt;Node8 -->
<g id="edge28_Node000032_Node000008" class="edge">
<title>Node32&#45;&gt;Node8</title>
<g id="a_edge28_Node000032_Node000008"><a xlink:title=" ">
<path fill="none" stroke="#63b8ff" d="M835.23,-113.17C851.12,-116.63 868.32,-120.36 884.52,-123.89"/>
<polygon fill="#63b8ff" stroke="#63b8ff" points="883.56,-127.26 894.08,-125.97 885.05,-120.42 883.56,-127.26"/>
</a>
</g>
</g>
<!-- Node32&#45;&gt;Node16 -->
<g id="edge29_Node000032_Node000016" class="edge">
<title>Node32&#45;&gt;Node16</title>
<g id="a_edge29_Node000032_Node000016"><a xlink:title=" ">
<path fill="none" stroke="#63b8ff" d="M835.23,-97.69C853.27,-97.08 872.99,-96.42 891.04,-95.82"/>
<polygon fill="#63b8ff" stroke="#63b8ff" points="890.94,-99.32 900.81,-95.49 890.7,-92.33 890.94,-99.32"/>
</a>
</g>
</g>
<!-- Node32&#45;&gt;Node17 -->
<g id="edge31_Node000032_Node000017" class="edge">
<title>Node32&#45;&gt;Node17</title>
<g id="a_edge31_Node000032_Node000017"><a xlink:title=" ">
<path fill="none" stroke="#63b8ff" d="M833.35,-117C839,-119.57 844.48,-122.48 849.5,-125.75 869.26,-138.63 865.39,-152.42 885.5,-164.75 887.65,-166.07 889.89,-167.29 892.19,-168.44"/>
<polygon fill="#63b8ff" stroke="#63b8ff" points="890.66,-171.59 901.23,-172.35 893.44,-165.17 890.66,-171.59"/>
</a>
</g>
</g>
<!-- Node32&#45;&gt;Node31 -->
<g id="edge30_Node000032_Node000031" class="edge">
<title>Node32&#45;&gt;Node31</title>
<g id="a_edge30_Node000032_Node000031"><a xlink:title=" ">
<path fill="none" stroke="#63b8ff" d="M835.23,-84.26C855.83,-79.1 878.61,-73.38 898.6,-68.37"/>
<polygon fill="#63b8ff" stroke="#63b8ff" points="899.38,-71.78 908.22,-65.95 897.67,-64.99 899.38,-71.78"/>
</a>
</g>
</g>
</g>
</svg>
