<?xml version="1.0" encoding="UTF-8" standalone="no"?>
<!DOCTYPE svg PUBLIC "-//W3C//DTD SVG 1.1//EN"
 "http://www.w3.org/Graphics/SVG/1.1/DTD/svg11.dtd">
<!-- Generated by graphviz version 13.1.2 (20250808.2320)
 -->
<!-- Title: kest_scope_detect_dependencies Pages: 1 -->
<!--zoomable 300 -->

<svg id="main" version="1.1" xmlns="http://www.w3.org/2000/svg" xmlns:xlink="http://www.w3.org/1999/xlink" xml:space="preserve" onload="init(evt)">

<style type="text/css"><![CDATA[
.node, .edge {opacity: 0.7;}
.node.selected, .edge.selected {opacity: 1;}
.edge:hover path { stroke: red; }
.edge:hover polygon { stroke: red; fill: red; }
]]></style>

<defs>
  <circle id="rim" cx="0" cy="0" r="7"/>
  <circle id="rim2" cx="0" cy="0" r="3.5"/>
  <g id="zoomPlus">
    <use xlink:href="#rim" fill="#404040"><set attributeName="fill" to="#808080" begin="zoomplus.mouseover" end="zoomplus.mouseout"/></use>
    <path d="M-4,0h8M0,-4v8" fill="none" stroke="white" stroke-width="1.5" pointer-events="none"/>
  </g>
  <g id="zoomMin">
    <use xlink:href="#rim" fill="#404040"><set attributeName="fill" to="#808080" begin="zoomminus.mouseover" end="zoomminus.mouseout"/></use>
    <path d="M-4,0h8" fill="none" stroke="white" stroke-width="1.5" pointer-events="none"/>
  </g>
  <g id="arrowUp" transform="translate(30 24)">
    <use xlink:href="#rim"/>
    <path pointer-events="none" fill="none" stroke="white" stroke-width="1.5" d="M0,-3.0v7 M-2.5,-0.5L0,-3.0L2.5,-0.5"/>
  </g>
  <g id="arrowRight" transform="rotate(90) translate(36 -43)">
    <use xlink:href="#rim"/>
    <path pointer-events="none" fill="none" stroke="white" stroke-width="1.5" d="M0,-3.0v7 M-2.5,-0.5L0,-3.0L2.5,-0.5"/>
  </g>
  <g id="arrowDown" transform="rotate(180) translate(-30 -48)">
    <use xlink:href="#rim"/>
    <path pointer-events="none" fill="none" stroke="white" stroke-width="1.5" d="M0,-3.0v7 M-2.5,-0.5L0,-3.0L2.5,-0.5"/>
  </g>
  <g id="arrowLeft" transform="rotate(270) translate(-36 17)">
    <use xlink:href="#rim"/>
    <path pointer-events="none" fill="none" stroke="white" stroke-width="1.5" d="M0,-3.0v7 M-2.5,-0.5L0,-3.0L2.5,-0.5"/>
  </g>
  <g id="resetDef">
    <use xlink:href="#rim2" fill="#404040"><set attributeName="fill" to="#808080" begin="reset.mouseover" end="reset.mouseout"/></use>
  </g>
</defs>
<script type="application/ecmascript">
var viewWidth = 682;
var viewHeight = 300;
var sectionId = 'dynsection-28';
</script>
<script type="application/ecmascript" xlink:href="svg.min.js"/>
<svg id="graph" class="graph">
<g id="viewport">
<title>kest_scope_detect_dependencies</title>
<!-- Node1 -->
<g id="Node000001" class="node">
<title>Node1</title>
<g id="a_Node000001"><a xlink:title=" ">
<polygon fill="#999999" stroke="#666666" points="178.75,-143.75 0,-143.75 0,-123 178.75,-123 178.75,-143.75"/>
<text xml:space="preserve" text-anchor="middle" x="89.38" y="-130.25" font-family="Helvetica,sans-Serif" font-size="10.00">kest_scope_detect_dependencies</text>
</a>
</g>
</g>
<!-- Node2 -->
<g id="Node000002" class="node">
<title>Node2</title>
<g id="a_Node000002"><a xlink:href="kest__error__codes_8c.html#a0f4c77127bc0b77264a21104979c576a" target="_top" xlink:title=" ">
<polygon fill="white" stroke="#666666" points="337.62,-292.12 229.38,-292.12 229.38,-258.62 337.62,-258.62 337.62,-292.12"/>
<text xml:space="preserve" text-anchor="start" x="237.38" y="-278.62" font-family="Helvetica,sans-Serif" font-size="10.00">kest_error_code_to</text>
<text xml:space="preserve" text-anchor="middle" x="283.5" y="-265.88" font-family="Helvetica,sans-Serif" font-size="10.00">_string</text>
</a>
</g>
</g>
<!-- Node1&#45;&gt;Node2 -->
<g id="edge1_Node000001_Node000002" class="edge">
<title>Node1&#45;&gt;Node2</title>
<g id="a_edge1_Node000001_Node000002"><a xlink:title=" ">
<path fill="none" stroke="#63b8ff" d="M99.29,-144.11C118.36,-166.47 165.42,-218.55 214.75,-249.38 216.88,-250.7 219.08,-251.98 221.34,-253.21"/>
<polygon fill="#63b8ff" stroke="#63b8ff" points="219.65,-256.28 230.16,-257.61 222.77,-250.02 219.65,-256.28"/>
</a>
</g>
</g>
<!-- Node3 -->
<g id="Node000003" class="node">
<title>Node3</title>
<g id="a_Node000003"><a xlink:href="kest__expression_8c.html#a4428080cc6a255e85501a259bdb4dc8a" target="_top" xlink:title=" ">
<polygon fill="white" stroke="#666666" points="341.38,-240.12 225.62,-240.12 225.62,-206.62 341.38,-206.62 341.38,-240.12"/>
<text xml:space="preserve" text-anchor="start" x="233.62" y="-226.62" font-family="Helvetica,sans-Serif" font-size="10.00">kest_expression_get</text>
<text xml:space="preserve" text-anchor="middle" x="283.5" y="-213.88" font-family="Helvetica,sans-Serif" font-size="10.00">_references</text>
</a>
</g>
</g>
<!-- Node1&#45;&gt;Node3 -->
<g id="edge2_Node000001_Node000003" class="edge">
<title>Node1&#45;&gt;Node3</title>
<g id="a_edge2_Node000001_Node000003"><a xlink:title=" ">
<path fill="none" stroke="#63b8ff" d="M112.8,-144.13C137.67,-156.02 179.01,-175.72 214.75,-192.38 221.14,-195.35 227.87,-198.46 234.52,-201.52"/>
<polygon fill="#63b8ff" stroke="#63b8ff" points="232.91,-204.63 243.45,-205.62 235.82,-198.27 232.91,-204.63"/>
</a>
</g>
</g>
<!-- Node6 -->
<g id="Node000006" class="node">
<title>Node6</title>
<g id="a_Node000006"><a xlink:href="kest__expression_8c.html#aadf2a6a074cb1ad7b45893704cbd71c3" target="_top" xlink:title=" ">
<polygon fill="#fff0f0" stroke="red" points="667.38,-195.12 557.62,-195.12 557.62,-161.62 667.38,-161.62 667.38,-195.12"/>
<text xml:space="preserve" text-anchor="start" x="565.62" y="-181.62" font-family="Helvetica,sans-Serif" font-size="10.00">kest_expression_to</text>
<text xml:space="preserve" text-anchor="middle" x="612.5" y="-168.88" font-family="Helvetica,sans-Serif" font-size="10.00">_string</text>
</a>
</g>
</g>
<!-- Node1&#45;&gt;Node6 -->
<g id="edge8_Node000001_Node000006" class="edge">
<title>Node1&#45;&gt;Node6</title>
<g id="a_edge8_Node000001_Node000006"><a xlink:title=" ">
<path fill="none" stroke="#63b8ff" d="M133.83,-144.22C157.59,-149.7 187.62,-155.91 214.75,-159.38 330.8,-174.19 467.29,-177.71 546.15,-178.4"/>
<polygon fill="#63b8ff" stroke="#63b8ff" points="545.82,-181.9 555.85,-178.48 545.87,-174.9 545.82,-181.9"/>
</a>
</g>
</g>
<!-- Node12 -->
<g id="Node000012" class="node">
<title>Node12</title>
<g id="a_Node000012"><a xlink:href="kest__expr__scope_8c.html#ab2df2425a9dcbf7ca7f0c3cca1d78c1d" target="_top" xlink:title=" ">
<polygon fill="white" stroke="#666666" points="352.25,-150.12 214.75,-150.12 214.75,-116.62 352.25,-116.62 352.25,-150.12"/>
<text xml:space="preserve" text-anchor="start" x="222.75" y="-136.62" font-family="Helvetica,sans-Serif" font-size="10.00">kest_scope_entry_add</text>
<text xml:space="preserve" text-anchor="middle" x="283.5" y="-123.88" font-family="Helvetica,sans-Serif" font-size="10.00">_dependent_scope_entry</text>
</a>
</g>
</g>
<!-- Node1&#45;&gt;Node12 -->
<g id="edge9_Node000001_Node000012" class="edge">
<title>Node1&#45;&gt;Node12</title>
<g id="a_edge9_Node000001_Node000012"><a xlink:title=" ">
<path fill="none" stroke="#63b8ff" d="M179.13,-133.38C187.12,-133.38 195.18,-133.38 203.09,-133.38"/>
<polygon fill="#63b8ff" stroke="#63b8ff" points="203.02,-136.88 213.02,-133.38 203.02,-129.88 203.02,-136.88"/>
</a>
</g>
</g>
<!-- Node14 -->
<g id="Node000014" class="node">
<title>Node14</title>
<g id="a_Node000014"><a xlink:href="kest__expr__scope_8c.html#a003d0a831a549dab0e93c2ad5c82d14e" target="_top" xlink:title=" ">
<polygon fill="white" stroke="#666666" points="334.62,-98.75 232.38,-98.75 232.38,-78 334.62,-78 334.62,-98.75"/>
<text xml:space="preserve" text-anchor="middle" x="283.5" y="-85.25" font-family="Helvetica,sans-Serif" font-size="10.00">kest_scope_index</text>
</a>
</g>
</g>
<!-- Node1&#45;&gt;Node14 -->
<g id="edge11_Node000001_Node000014" class="edge">
<title>Node1&#45;&gt;Node14</title>
<g id="a_edge11_Node000001_Node000014"><a xlink:title=" ">
<path fill="none" stroke="#63b8ff" d="M136.39,-122.6C163.05,-116.35 196.84,-108.44 225.21,-101.79"/>
<polygon fill="#63b8ff" stroke="#63b8ff" points="225.78,-105.26 234.72,-99.57 224.18,-98.44 225.78,-105.26"/>
</a>
</g>
</g>
<!-- Node15 -->
<g id="Node000015" class="node">
<title>Node15</title>
<g id="a_Node000015"><a xlink:href="kest__expr__scope_8c.html#afd7862a7cb331b3576d5da3ba80d5e4a" target="_top" xlink:title=" ">
<polygon fill="white" stroke="#666666" points="345.88,-59.75 221.12,-59.75 221.12,-39 345.88,-39 345.88,-59.75"/>
<text xml:space="preserve" text-anchor="middle" x="283.5" y="-46.25" font-family="Helvetica,sans-Serif" font-size="10.00">kest_scope_index_key</text>
</a>
</g>
</g>
<!-- Node1&#45;&gt;Node15 -->
<g id="edge12_Node000001_Node000015" class="edge">
<title>Node1&#45;&gt;Node15</title>
<g id="a_edge12_Node000001_Node000015"><a xlink:title=" ">
<path fill="none" stroke="#63b8ff" d="M108.41,-122.72C132.17,-109.01 175.53,-85.09 214.75,-69.38 219.75,-67.37 225.03,-65.47 230.35,-63.68"/>
<polygon fill="#63b8ff" stroke="#63b8ff" points="231.33,-67.04 239.79,-60.67 229.2,-60.38 231.33,-67.04"/>
</a>
</g>
</g>
<!-- Node16 -->
<g id="Node000016" class="node">
<title>Node16</title>
<g id="a_Node000016"><a xlink:href="kest__expr__scope_8c.html#a536647952c07049da59284b9f928bd67" target="_top" xlink:title=" ">
<polygon fill="white" stroke="#666666" points="337.62,-20.75 229.38,-20.75 229.38,0 337.62,0 337.62,-20.75"/>
<text xml:space="preserve" text-anchor="middle" x="283.5" y="-7.25" font-family="Helvetica,sans-Serif" font-size="10.00">kest_scope_lookup</text>
</a>
</g>
</g>
<!-- Node1&#45;&gt;Node16 -->
<g id="edge13_Node000001_Node000016" class="edge">
<title>Node1&#45;&gt;Node16</title>
<g id="a_edge13_Node000001_Node000016"><a xlink:title=" ">
<path fill="none" stroke="#63b8ff" d="M100.28,-122.68C120.07,-101.91 166.74,-55.94 214.75,-30.38 218.37,-28.45 222.21,-26.68 226.13,-25.07"/>
<polygon fill="#63b8ff" stroke="#63b8ff" points="227.1,-28.44 235.25,-21.67 224.66,-21.88 227.1,-28.44"/>
</a>
</g>
</g>
<!-- Node4 -->
<g id="Node000004" class="node">
<title>Node4</title>
<g id="a_Node000004"><a xlink:href="kest__expression_8c.html#ad94f03fbe1527e94e7f50f9d5fbda50b" target="_top" xlink:title=" ">
<polygon fill="white" stroke="#666666" points="509.62,-240.12 393.88,-240.12 393.88,-206.62 509.62,-206.62 509.62,-240.12"/>
<text xml:space="preserve" text-anchor="start" x="401.88" y="-226.62" font-family="Helvetica,sans-Serif" font-size="10.00">kest_expression_get</text>
<text xml:space="preserve" text-anchor="middle" x="451.75" y="-213.88" font-family="Helvetica,sans-Serif" font-size="10.00">_references_rec</text>
</a>
</g>
</g>
<!-- Node3&#45;&gt;Node4 -->
<g id="edge3_Node000003_Node000004" class="edge">
<title>Node3&#45;&gt;Node4</title>
<g id="a_edge3_Node000003_Node000004"><a xlink:title=" ">
<path fill="none" stroke="#63b8ff" d="M341.71,-223.38C354.78,-223.38 368.79,-223.38 382.27,-223.38"/>
<polygon fill="#63b8ff" stroke="#63b8ff" points="381.92,-226.88 391.92,-223.38 381.92,-219.88 381.92,-226.88"/>
</a>
</g>
</g>
<!-- Node4&#45;&gt;Node4 -->
<g id="edge5_Node000004_Node000004" class="edge">
<title>Node4&#45;&gt;Node4</title>
<g id="a_edge5_Node000004_Node000004"><a xlink:title=" ">
<path fill="none" stroke="#63b8ff" d="M422.85,-240.54C417.94,-249.74 427.57,-258.12 451.75,-258.12 465.35,-258.12 474.35,-255.47 478.74,-251.51"/>
<polygon fill="#63b8ff" stroke="#63b8ff" points="482.13,-252.48 480.39,-242.03 475.23,-251.28 482.13,-252.48"/>
</a>
</g>
</g>
<!-- Node5 -->
<g id="Node000005" class="node">
<title>Node5</title>
<g id="a_Node000005"><a xlink:href="kest__expression_8c.html#a835e180e79c6b6d2e4377a528949d7a0" target="_top" xlink:title=" ">
<polygon fill="white" stroke="#666666" points="673.75,-272.75 551.25,-272.75 551.25,-252 673.75,-252 673.75,-272.75"/>
<text xml:space="preserve" text-anchor="middle" x="612.5" y="-259.25" font-family="Helvetica,sans-Serif" font-size="10.00">kest_expression_arity</text>
</a>
</g>
</g>
<!-- Node4&#45;&gt;Node5 -->
<g id="edge4_Node000004_Node000005" class="edge">
<title>Node4&#45;&gt;Node5</title>
<g id="a_edge4_Node000004_Node000005"><a xlink:title=" ">
<path fill="none" stroke="#63b8ff" d="M510.06,-237.45C525.14,-241.16 541.36,-245.14 556.32,-248.82"/>
<polygon fill="#63b8ff" stroke="#63b8ff" points="555.46,-252.21 566.01,-251.2 557.13,-245.41 555.46,-252.21"/>
</a>
</g>
</g>
<!-- Node4&#45;&gt;Node6 -->
<g id="edge6_Node000004_Node000006" class="edge">
<title>Node4&#45;&gt;Node6</title>
<g id="a_edge6_Node000004_Node000006"><a xlink:title=" ">
<path fill="none" stroke="#63b8ff" d="M510.06,-207.13C521.83,-203.79 534.29,-200.26 546.31,-196.85"/>
<polygon fill="#63b8ff" stroke="#63b8ff" points="547.06,-200.28 555.73,-194.18 545.15,-193.54 547.06,-200.28"/>
</a>
</g>
</g>
<!-- Node11 -->
<g id="Node000011" class="node">
<title>Node11</title>
<g id="a_Node000011"><a xlink:href="kest__expression_8c.html#a05276e5a18cc3b52dfc8a17bb101c832" target="_top" xlink:title=" ">
<polygon fill="white" stroke="#666666" points="656.5,-233.75 568.5,-233.75 568.5,-213 656.5,-213 656.5,-233.75"/>
<text xml:space="preserve" text-anchor="middle" x="612.5" y="-220.25" font-family="Helvetica,sans-Serif" font-size="10.00">max_depth_bp</text>
</a>
</g>
</g>
<!-- Node4&#45;&gt;Node11 -->
<g id="edge7_Node000004_Node000011" class="edge">
<title>Node4&#45;&gt;Node11</title>
<g id="a_edge7_Node000004_Node000011"><a xlink:title=" ">
<path fill="none" stroke="#63b8ff" d="M510.06,-223.38C525.35,-223.38 541.82,-223.38 556.96,-223.38"/>
<polygon fill="#63b8ff" stroke="#63b8ff" points="556.71,-226.88 566.71,-223.38 556.71,-219.88 556.71,-226.88"/>
</a>
</g>
</g>
<!-- Node13 -->
<g id="Node000013" class="node">
<title>Node13</title>
<g id="a_Node000013"><a xlink:href="kest__dependent_8c.html#a2818d9a438a3e6969fc0210828ca4a6d" target="_top" xlink:title=" ">
<polygon fill="white" stroke="#666666" points="515.25,-150.12 388.25,-150.12 388.25,-116.62 515.25,-116.62 515.25,-150.12"/>
<text xml:space="preserve" text-anchor="start" x="396.25" y="-136.62" font-family="Helvetica,sans-Serif" font-size="10.00">kest_dependent_scope</text>
<text xml:space="preserve" text-anchor="middle" x="451.75" y="-123.88" font-family="Helvetica,sans-Serif" font-size="10.00">_entry</text>
</a>
</g>
</g>
<!-- Node12&#45;&gt;Node13 -->
<g id="edge10_Node000012_Node000013" class="edge">
<title>Node12&#45;&gt;Node13</title>
<g id="a_edge10_Node000012_Node000013"><a xlink:title=" ">
<path fill="none" stroke="#63b8ff" d="M352.6,-133.38C360.43,-133.38 368.45,-133.38 376.36,-133.38"/>
<polygon fill="#63b8ff" stroke="#63b8ff" points="376.32,-136.88 386.32,-133.38 376.32,-129.88 376.32,-136.88"/>
</a>
</g>
</g>
</g>
</svg>

<g id="navigator" transform="translate(0 0)" fill="#404254">
  <rect fill="#f2f5e9" fill-opacity="0.5" stroke="#606060" stroke-width=".5" x="0" y="0" width="60" height="60"/>
  <use id="zoomplus" xlink:href="#zoomPlus" x="17" y="9" onmousedown="handleZoom(evt,'in')"/>
  <use id="zoomminus" xlink:href="#zoomMin" x="42" y="9" onmousedown="handleZoom(evt,'out')"/>
  <use id="reset" xlink:href="#resetDef" x="30" y="36" onmousedown="handleReset()"/>
   <use id="arrowup" xlink:href="#arrowUp" x="0" y="0" onmousedown="handlePan(0,-1)"/>
  <use id="arrowright" xlink:href="#arrowRight" x="0" y="0" onmousedown="handlePan(1,0)"/>
  <use id="arrowdown" xlink:href="#arrowDown" x="0" y="0" onmousedown="handlePan(0,1)"/>
  <use id="arrowleft" xlink:href="#arrowLeft" x="0" y="0" onmousedown="handlePan(-1,0)"/>
</g>
<svg viewBox="0 0 15 15" width="100%" height="30px" preserveAspectRatio="xMaxYMin meet">
 <g id="arrow_out" transform="scale(0.3 0.3)">
  <a xlink:href="kest__expr__scope_8c_a8042b7711c05856ef5755963535b68f8_cgraph_org.svg" target="_base">
   <rect id="button" ry="5" rx="5" y="6" x="6" height="38" width="38"
        fill="#f2f5e9" fill-opacity="0.5" stroke="#606060" stroke-width="1.0"/>
   <path id="arrow"
     d="M 11.500037,31.436501 C 11.940474,20.09759 22.043105,11.32322 32.158766,21.979434 L 37.068811,17.246167 C 37.068811,17.246167 37.088388,32 37.088388,32 L 22.160133,31.978069 C 22.160133,31.978069 26.997745,27.140456 26.997745,27.140456 C 18.528582,18.264221 13.291696,25.230495 11.500037,31.436501 z"
     style="fill:#404040;"/>
  </a>
 </g>
</svg>

<style type='text/css'>
<![CDATA[
[data-mouse-over-selected='false'] { opacity: 0.7; }
[data-mouse-over-selected='true']  { opacity: 1.0; }
]]>
</style>
<script type="application/ecmascript"><![CDATA[
document.addEventListener('DOMContentLoaded', (event) => {
  highlightEdges();
  highlightAdjacentNodes();
});
]]></script>
</svg>
