<?xml version="1.0" encoding="UTF-8" standalone="no"?>
<!DOCTYPE svg PUBLIC "-//W3C//DTD SVG 1.1//EN"
 "http://www.w3.org/Graphics/SVG/1.1/DTD/svg11.dtd">
<!-- Generated by graphviz version 13.1.2 (20250808.2320)
 -->
<!-- Title: kest_fpga_req_data Pages: 1 -->
<!--zoomable 288 -->

<svg id="main" version="1.1" xmlns="http://www.w3.org/2000/svg" xmlns:xlink="http://www.w3.org/1999/xlink" xml:space="preserve" onload="init(evt)">

<style type="text/css"><![CDATA[
.node, .edge {opacity: 0.7;}
.node.selected, .edge.selected {opacity: 1;}
.edge:hover path { stroke: red; }
.edge:hover polygon { stroke: red; fill: red; }
]]></style>

<defs>
  <circle id="rim" cx="0" cy="0" r="7"/>
  <circle id="rim2" cx="0" cy="0" r="3.5"/>
  <g id="zoomPlus">
    <use xlink:href="#rim" fill="#404040"><set attributeName="fill" to="#808080" begin="zoomplus.mouseover" end="zoomplus.mouseout"/></use>
    <path d="M-4,0h8M0,-4v8" fill="none" stroke="white" stroke-width="1.5" pointer-events="none"/>
  </g>
  <g id="zoomMin">
    <use xlink:href="#rim" fill="#404040"><set attributeName="fill" to="#808080" begin="zoomminus.mouseover" end="zoomminus.mouseout"/></use>
    <path d="M-4,0h8" fill="none" stroke="white" stroke-width="1.5" pointer-events="none"/>
  </g>
  <g id="arrowUp" transform="translate(30 24)">
    <use xlink:href="#rim"/>
    <path pointer-events="none" fill="none" stroke="white" stroke-width="1.5" d="M0,-3.0v7 M-2.5,-0.5L0,-3.0L2.5,-0.5"/>
  </g>
  <g id="arrowRight" transform="rotate(90) translate(36 -43)">
    <use xlink:href="#rim"/>
    <path pointer-events="none" fill="none" stroke="white" stroke-width="1.5" d="M0,-3.0v7 M-2.5,-0.5L0,-3.0L2.5,-0.5"/>
  </g>
  <g id="arrowDown" transform="rotate(180) translate(-30 -48)">
    <use xlink:href="#rim"/>
    <path pointer-events="none" fill="none" stroke="white" stroke-width="1.5" d="M0,-3.0v7 M-2.5,-0.5L0,-3.0L2.5,-0.5"/>
  </g>
  <g id="arrowLeft" transform="rotate(270) translate(-36 17)">
    <use xlink:href="#rim"/>
    <path pointer-events="none" fill="none" stroke="white" stroke-width="1.5" d="M0,-3.0v7 M-2.5,-0.5L0,-3.0L2.5,-0.5"/>
  </g>
  <g id="resetDef">
    <use xlink:href="#rim2" fill="#404040"><set attributeName="fill" to="#808080" begin="reset.mouseover" end="reset.mouseout"/></use>
  </g>
</defs>
<script type="application/ecmascript">
var viewWidth = 623;
var viewHeight = 288;
var sectionId = 'dynsection-51';
</script>
<script type="application/ecmascript" xlink:href="svg.min.js"/>
<svg id="graph" class="graph">
<g id="viewport">
<title>kest_fpga_req_data</title>
<!-- Node1 -->
<g id="Node000001" class="node">
<title>Node1</title>
<g id="a_Node000001"><a xlink:title=" ">
<polygon fill="#999999" stroke="#666666" points="614.5,-157.12 503.25,-157.12 503.25,-136.38 614.5,-136.38 614.5,-157.12"/>
<text xml:space="preserve" text-anchor="middle" x="558.88" y="-143.62" font-family="Helvetica,sans-Serif" font-size="10.00">kest_fpga_req_data</text>
</a>
</g>
</g>
<!-- Node2 -->
<g id="Node000002" class="node">
<title>Node2</title>
<g id="a_Node000002"><a xlink:href="kest__fpga__io_8c.html#a8c6d370bdb122da708c13afb62b98ce5" target="_top" xlink:title=" ">
<polygon fill="white" stroke="#666666" points="467.25,-280.12 335,-280.12 335,-259.38 467.25,-259.38 467.25,-280.12"/>
<text xml:space="preserve" text-anchor="middle" x="401.12" y="-266.62" font-family="Helvetica,sans-Serif" font-size="10.00">kest_fpga_get_n_blocks</text>
</a>
</g>
</g>
<!-- Node1&#45;&gt;Node2 -->
<g id="edge1_Node000001_Node000002" class="edge">
<title>Node1&#45;&gt;Node2</title>
<g id="a_edge1_Node000001_Node000002"><a xlink:title=" ">
<path fill="none" stroke="#63b8ff" d="M545.43,-167.02C529.96,-190.56 501.37,-228.93 467.25,-250.75 462.19,-253.99 456.56,-256.69 450.79,-258.94"/>
<polygon fill="#63b8ff" stroke="#63b8ff" points="548.35,-168.95 550.78,-158.64 542.45,-165.19 548.35,-168.95"/>
</a>
</g>
</g>
<!-- Node17 -->
<g id="Node000017" class="node">
<title>Node17</title>
<g id="a_Node000017"><a xlink:href="kest__fpga__io_8c.html#abafaa63950c4a86e9b1e1e71cc88b1eb" target="_top" xlink:title=" ">
<polygon fill="white" stroke="#666666" points="465,-241.5 337.25,-241.5 337.25,-208 465,-208 465,-241.5"/>
<text xml:space="preserve" text-anchor="start" x="345.25" y="-228" font-family="Helvetica,sans-Serif" font-size="10.00">kest_fpga_get_n_delay</text>
<text xml:space="preserve" text-anchor="middle" x="401.12" y="-215.25" font-family="Helvetica,sans-Serif" font-size="10.00">_buffers</text>
</a>
</g>
</g>
<!-- Node1&#45;&gt;Node17 -->
<g id="edge4_Node000001_Node000017" class="edge">
<title>Node1&#45;&gt;Node17</title>
<g id="a_edge4_Node000001_Node000017"><a xlink:title=" ">
<path fill="none" stroke="#63b8ff" d="M531.22,-163.37C513.44,-174.13 489.37,-188.06 467.25,-198.75 461,-201.77 454.31,-204.74 447.68,-207.52"/>
<polygon fill="#63b8ff" stroke="#63b8ff" points="532.89,-166.45 539.6,-158.25 529.24,-160.48 532.89,-166.45"/>
</a>
</g>
</g>
<!-- Node18 -->
<g id="Node000018" class="node">
<title>Node18</title>
<g id="a_Node000018"><a xlink:href="kest__fpga__io_8c.html#a91cd511ba05451b24c4dd357011d8119" target="_top" xlink:title=" ">
<polygon fill="white" stroke="#666666" points="463.88,-189.5 338.38,-189.5 338.38,-156 463.88,-156 463.88,-189.5"/>
<text xml:space="preserve" text-anchor="start" x="346.38" y="-176" font-family="Helvetica,sans-Serif" font-size="10.00">kest_fpga_get_sample</text>
<text xml:space="preserve" text-anchor="middle" x="401.12" y="-163.25" font-family="Helvetica,sans-Serif" font-size="10.00">_count</text>
</a>
</g>
</g>
<!-- Node1&#45;&gt;Node18 -->
<g id="edge6_Node000001_Node000018" class="edge">
<title>Node1&#45;&gt;Node18</title>
<g id="a_edge6_Node000001_Node000018"><a xlink:title=" ">
<path fill="none" stroke="#63b8ff" d="M491.62,-157.81C482.54,-159.33 473.24,-160.88 464.24,-162.38"/>
<polygon fill="#63b8ff" stroke="#63b8ff" points="492.18,-161.26 501.47,-156.17 491.03,-154.36 492.18,-161.26"/>
</a>
</g>
</g>
<!-- Node19 -->
<g id="Node000019" class="node">
<title>Node19</title>
<g id="a_Node000019"><a xlink:href="kest__fpga__io_8c.html#abfb6117132f7f136c55f8869b95b79d6" target="_top" xlink:title=" ">
<polygon fill="white" stroke="#666666" points="461.25,-137.5 341,-137.5 341,-104 461.25,-104 461.25,-137.5"/>
<text xml:space="preserve" text-anchor="start" x="349" y="-124" font-family="Helvetica,sans-Serif" font-size="10.00">kest_fpga_get_sdram</text>
<text xml:space="preserve" text-anchor="middle" x="401.12" y="-111.25" font-family="Helvetica,sans-Serif" font-size="10.00">_read_count</text>
</a>
</g>
</g>
<!-- Node1&#45;&gt;Node19 -->
<g id="edge8_Node000001_Node000019" class="edge">
<title>Node1&#45;&gt;Node19</title>
<g id="a_edge8_Node000001_Node000019"><a xlink:title=" ">
<path fill="none" stroke="#63b8ff" d="M491.78,-135.72C481.75,-134.04 471.45,-132.32 461.57,-130.67"/>
<polygon fill="#63b8ff" stroke="#63b8ff" points="491.03,-139.14 501.47,-137.33 492.18,-132.24 491.03,-139.14"/>
</a>
</g>
</g>
<!-- Node20 -->
<g id="Node000020" class="node">
<title>Node20</title>
<g id="a_Node000020"><a xlink:href="kest__fpga__io_8c.html#af06aacf356a45c64705a79fea40fd07e" target="_top" xlink:title=" ">
<polygon fill="white" stroke="#666666" points="461.25,-85.5 341,-85.5 341,-52 461.25,-52 461.25,-85.5"/>
<text xml:space="preserve" text-anchor="start" x="349" y="-72" font-family="Helvetica,sans-Serif" font-size="10.00">kest_fpga_get_sdram</text>
<text xml:space="preserve" text-anchor="middle" x="401.12" y="-59.25" font-family="Helvetica,sans-Serif" font-size="10.00">_write_count</text>
</a>
</g>
</g>
<!-- Node1&#45;&gt;Node20 -->
<g id="edge10_Node000001_Node000020" class="edge">
<title>Node1&#45;&gt;Node20</title>
<g id="a_edge10_Node000001_Node000020"><a xlink:title=" ">
<path fill="none" stroke="#63b8ff" d="M531.22,-130.13C513.44,-119.37 489.37,-105.44 467.25,-94.75 461,-91.73 454.31,-88.76 447.68,-85.98"/>
<polygon fill="#63b8ff" stroke="#63b8ff" points="529.24,-133.02 539.6,-135.25 532.89,-127.05 529.24,-133.02"/>
</a>
</g>
</g>
<!-- Node21 -->
<g id="Node000021" class="node">
<title>Node21</title>
<g id="a_Node000021"><a xlink:href="kest__fpga__io_8c.html#abf50b97e03268742ffed54243f18f396" target="_top" xlink:title=" ">
<polygon fill="white" stroke="#666666" points="459,-33.5 343.25,-33.5 343.25,0 459,0 459,-33.5"/>
<text xml:space="preserve" text-anchor="start" x="351.25" y="-20" font-family="Helvetica,sans-Serif" font-size="10.00">kest_fpga_get_stuck</text>
<text xml:space="preserve" text-anchor="middle" x="401.12" y="-7.25" font-family="Helvetica,sans-Serif" font-size="10.00">_flags</text>
</a>
</g>
</g>
<!-- Node1&#45;&gt;Node21 -->
<g id="edge12_Node000001_Node000021" class="edge">
<title>Node1&#45;&gt;Node21</title>
<g id="a_edge12_Node000001_Node000021"><a xlink:title=" ">
<path fill="none" stroke="#63b8ff" d="M544.81,-126.68C528.92,-103.65 500.11,-66.06 467.25,-42.75 462.68,-39.51 457.65,-36.6 452.48,-33.99"/>
<polygon fill="#63b8ff" stroke="#63b8ff" points="541.84,-128.53 550.33,-134.88 547.65,-124.63 541.84,-128.53"/>
</a>
</g>
</g>
<!-- Node3 -->
<g id="Node000003" class="node">
<title>Node3</title>
<g id="a_Node000003"><a xlink:href="kest__fpga__comms_8c.html#a0e24c965de231bcab602b5b43acb805d" target="_top" xlink:title=" ">
<polygon fill="white" stroke="#666666" points="299,-189.5 166.75,-189.5 166.75,-156 299,-156 299,-189.5"/>
<text xml:space="preserve" text-anchor="start" x="174.75" y="-176" font-family="Helvetica,sans-Serif" font-size="10.00">kest_fpga_comms_print</text>
<text xml:space="preserve" text-anchor="middle" x="232.88" y="-163.25" font-family="Helvetica,sans-Serif" font-size="10.00">_full_scan</text>
</a>
</g>
</g>
<!-- Node2&#45;&gt;Node3 -->
<g id="edge2_Node000002_Node000003" class="edge">
<title>Node2&#45;&gt;Node3</title>
<g id="a_edge2_Node000002_Node000003"><a xlink:title=" ">
<path fill="none" stroke="#63b8ff" d="M344.05,-254.89C340.94,-253.61 337.9,-252.23 335,-250.75 302.98,-234.47 270.99,-207.56 251.82,-189.99"/>
<polygon fill="#63b8ff" stroke="#63b8ff" points="342.78,-258.15 353.37,-258.38 345.23,-251.6 342.78,-258.15"/>
</a>
</g>
</g>
<!-- Node4 -->
<g id="Node000004" class="node">
<title>Node4</title>
<g id="a_Node000004"><a xlink:href="kest__fpga__comms_8c.html#a8f850777494bb4c4d61df3efbf31ca7c" target="_top" xlink:title=" ">
<polygon fill="#fff0f0" stroke="red" points="130.75,-183.12 0,-183.12 0,-162.38 130.75,-162.38 130.75,-183.12"/>
<text xml:space="preserve" text-anchor="middle" x="65.38" y="-169.62" font-family="Helvetica,sans-Serif" font-size="10.00">kest_fpga_comms_task</text>
</a>
</g>
</g>
<!-- Node3&#45;&gt;Node4 -->
<g id="edge3_Node000003_Node000004" class="edge">
<title>Node3&#45;&gt;Node4</title>
<g id="a_edge3_Node000003_Node000004"><a xlink:title=" ">
<path fill="none" stroke="#63b8ff" d="M155.15,-172.75C147.09,-172.75 138.95,-172.75 131.04,-172.75"/>
<polygon fill="#63b8ff" stroke="#63b8ff" points="154.95,-176.25 164.95,-172.75 154.95,-169.25 154.95,-176.25"/>
</a>
</g>
</g>
<!-- Node17&#45;&gt;Node3 -->
<g id="edge5_Node000017_Node000003" class="edge">
<title>Node17&#45;&gt;Node3</title>
<g id="a_edge5_Node000017_Node000003"><a xlink:title=" ">
<path fill="none" stroke="#63b8ff" d="M334.44,-204.21C319.39,-199.5 303.55,-194.54 289,-189.99"/>
<polygon fill="#63b8ff" stroke="#63b8ff" points="333.19,-207.48 343.78,-207.13 335.28,-200.8 333.19,-207.48"/>
</a>
</g>
</g>
<!-- Node18&#45;&gt;Node3 -->
<g id="edge7_Node000018_Node000003" class="edge">
<title>Node18&#45;&gt;Node3</title>
<g id="a_edge7_Node000018_Node000003"><a xlink:title=" ">
<path fill="none" stroke="#63b8ff" d="M326.8,-172.75C317.7,-172.75 308.43,-172.75 299.45,-172.75"/>
<polygon fill="#63b8ff" stroke="#63b8ff" points="326.71,-176.25 336.71,-172.75 326.71,-169.25 326.71,-176.25"/>
</a>
</g>
</g>
<!-- Node19&#45;&gt;Node3 -->
<g id="edge9_Node000019_Node000003" class="edge">
<title>Node19&#45;&gt;Node3</title>
<g id="a_edge9_Node000019_Node000003"><a xlink:title=" ">
<path fill="none" stroke="#63b8ff" d="M334.44,-141.29C319.39,-146 303.55,-150.96 289,-155.51"/>
<polygon fill="#63b8ff" stroke="#63b8ff" points="335.28,-144.7 343.78,-138.37 333.19,-138.02 335.28,-144.7"/>
</a>
</g>
</g>
<!-- Node20&#45;&gt;Node3 -->
<g id="edge11_Node000020_Node000003" class="edge">
<title>Node20&#45;&gt;Node3</title>
<g id="a_edge11_Node000020_Node000003"><a xlink:title=" ">
<path fill="none" stroke="#63b8ff" d="M342.17,-90.89C339.72,-92.14 337.32,-93.43 335,-94.75 303.99,-112.44 271.99,-138.73 252.51,-155.81"/>
<polygon fill="#63b8ff" stroke="#63b8ff" points="343.56,-94.11 351.08,-86.64 340.55,-87.79 343.56,-94.11"/>
</a>
</g>
</g>
</g>
</svg>

<g id="navigator" transform="translate(0 0)" fill="#404254">
  <rect fill="#f2f5e9" fill-opacity="0.5" stroke="#606060" stroke-width=".5" x="0" y="0" width="60" height="60"/>
  <use id="zoomplus" xlink:href="#zoomPlus" x="17" y="9" onmousedown="handleZoom(evt,'in')"/>
  <use id="zoomminus" xlink:href="#zoomMin" x="42" y="9" onmousedown="handleZoom(evt,'out')"/>
  <use id="reset" xlink:href="#resetDef" x="30" y="36" onmousedown="handleReset()"/>
   <use id="arrowup" xlink:href="#arrowUp" x="0" y="0" onmousedown="handlePan(0,-1)"/>
  <use id="arrowright" xlink:href="#arrowRight" x="0" y="0" onmousedown="handlePan(1,0)"/>
  <use id="arrowdown" xlink:href="#arrowDown" x="0" y="0" onmousedown="handlePan(0,1)"/>
  <use id="arrowleft" xlink:href="#arrowLeft" x="0" y="0" onmousedown="handlePan(-1,0)"/>
</g>
<svg viewBox="0 0 15 15" width="100%" height="30px" preserveAspectRatio="xMaxYMin meet">
 <g id="arrow_out" transform="scale(0.3 0.3)">
  <a xlink:href="kest__fpga__io_8c_a131d7d384293966d74eb5768dfba4428_icgraph_org.svg" target="_base">
   <rect id="button" ry="5" rx="5" y="6" x="6" height="38" width="38"
        fill="#f2f5e9" fill-opacity="0.5" stroke="#606060" stroke-width="1.0"/>
   <path id="arrow"
     d="M 11.500037,31.436501 C 11.940474,20.09759 22.043105,11.32322 32.158766,21.979434 L 37.068811,17.246167 C 37.068811,17.246167 37.088388,32 37.088388,32 L 22.160133,31.978069 C 22.160133,31.978069 26.997745,27.140456 26.997745,27.140456 C 18.528582,18.264221 13.291696,25.230495 11.500037,31.436501 z"
     style="fill:#404040;"/>
  </a>
 </g>
</svg>

<style type='text/css'>
<![CDATA[
[data-mouse-over-selected='false'] { opacity: 0.7; }
[data-mouse-over-selected='true']  { opacity: 1.0; }
]]>
</style>
<script type="application/ecmascript"><![CDATA[
document.addEventListener('DOMContentLoaded', (event) => {
  highlightEdges();
  highlightAdjacentNodes();
});
]]></script>
</svg>
