<?xml version="1.0" encoding="UTF-8" standalone="no"?>
<!DOCTYPE svg PUBLIC "-//W3C//DTD SVG 1.1//EN"
 "http://www.w3.org/Graphics/SVG/1.1/DTD/svg11.dtd">
<!-- Generated by graphviz version 13.1.2 (20250808.2320)
 -->
<!-- Title: kest_parse_expression_rec_pratt Pages: 1 -->
<!--zoomable 548 -->

<svg id="main" version="1.1" xmlns="http://www.w3.org/2000/svg" xmlns:xlink="http://www.w3.org/1999/xlink" xml:space="preserve" onload="init(evt)">

<style type="text/css"><![CDATA[
.node, .edge {opacity: 0.7;}
.node.selected, .edge.selected {opacity: 1;}
.edge:hover path { stroke: red; }
.edge:hover polygon { stroke: red; fill: red; }
]]></style>

<defs>
  <circle id="rim" cx="0" cy="0" r="7"/>
  <circle id="rim2" cx="0" cy="0" r="3.5"/>
  <g id="zoomPlus">
    <use xlink:href="#rim" fill="#404040"><set attributeName="fill" to="#808080" begin="zoomplus.mouseover" end="zoomplus.mouseout"/></use>
    <path d="M-4,0h8M0,-4v8" fill="none" stroke="white" stroke-width="1.5" pointer-events="none"/>
  </g>
  <g id="zoomMin">
    <use xlink:href="#rim" fill="#404040"><set attributeName="fill" to="#808080" begin="zoomminus.mouseover" end="zoomminus.mouseout"/></use>
    <path d="M-4,0h8" fill="none" stroke="white" stroke-width="1.5" pointer-events="none"/>
  </g>
  <g id="arrowUp" transform="translate(30 24)">
    <use xlink:href="#rim"/>
    <path pointer-events="none" fill="none" stroke="white" stroke-width="1.5" d="M0,-3.0v7 M-2.5,-0.5L0,-3.0L2.5,-0.5"/>
  </g>
  <g id="arrowRight" transform="rotate(90) translate(36 -43)">
    <use xlink:href="#rim"/>
    <path pointer-events="none" fill="none" stroke="white" stroke-width="1.5" d="M0,-3.0v7 M-2.5,-0.5L0,-3.0L2.5,-0.5"/>
  </g>
  <g id="arrowDown" transform="rotate(180) translate(-30 -48)">
    <use xlink:href="#rim"/>
    <path pointer-events="none" fill="none" stroke="white" stroke-width="1.5" d="M0,-3.0v7 M-2.5,-0.5L0,-3.0L2.5,-0.5"/>
  </g>
  <g id="arrowLeft" transform="rotate(270) translate(-36 17)">
    <use xlink:href="#rim"/>
    <path pointer-events="none" fill="none" stroke="white" stroke-width="1.5" d="M0,-3.0v7 M-2.5,-0.5L0,-3.0L2.5,-0.5"/>
  </g>
  <g id="resetDef">
    <use xlink:href="#rim2" fill="#404040"><set attributeName="fill" to="#808080" begin="reset.mouseover" end="reset.mouseout"/></use>
  </g>
</defs>
<script type="application/ecmascript">
var viewWidth = 575;
var viewHeight = 548;
var sectionId = 'dynsection-6';
</script>
<script type="application/ecmascript" xlink:href="svg.min.js"/>
<svg id="graph" class="graph">
<g id="viewport">
<title>kest_parse_expression_rec_pratt</title>
<!-- Node1 -->
<g id="Node000001" class="node">
<title>Node1</title>
<g id="a_Node000001"><a xlink:title=" ">
<polygon fill="#999999" stroke="#666666" points="127,-280.12 0,-280.12 0,-246.62 127,-246.62 127,-280.12"/>
<text xml:space="preserve" text-anchor="start" x="8" y="-266.62" font-family="Helvetica,sans-Serif" font-size="10.00">kest_parse_expression</text>
<text xml:space="preserve" text-anchor="middle" x="63.5" y="-253.88" font-family="Helvetica,sans-Serif" font-size="10.00">_rec_pratt</text>
</a>
</g>
</g>
<!-- Node1&#45;&gt;Node1 -->
<g id="edge19_Node000001_Node000001" class="edge">
<title>Node1&#45;&gt;Node1</title>
<g id="a_edge19_Node000001_Node000001"><a xlink:title=" ">
<path fill="none" stroke="#63b8ff" d="M32.99,-280.54C27.8,-289.74 37.97,-298.12 63.5,-298.12 77.86,-298.12 87.36,-295.47 92,-291.51"/>
<polygon fill="#63b8ff" stroke="#63b8ff" points="95.38,-292.5 93.74,-282.03 88.5,-291.23 95.38,-292.5"/>
</a>
</g>
</g>
<!-- Node2 -->
<g id="Node000002" class="node">
<title>Node2</title>
<g id="a_Node000002"><a xlink:href="kest__expression_8c.html#aa2439b0c9165093897b77c5cb04e29ac" target="_top" xlink:title=" ">
<polygon fill="white" stroke="#666666" points="295.62,-500.75 170.88,-500.75 170.88,-480 295.62,-480 295.62,-500.75"/>
<text xml:space="preserve" text-anchor="middle" x="233.25" y="-487.25" font-family="Helvetica,sans-Serif" font-size="10.00">kest_expr_new_binary</text>
</a>
</g>
</g>
<!-- Node1&#45;&gt;Node2 -->
<g id="edge1_Node000001_Node000002" class="edge">
<title>Node1&#45;&gt;Node2</title>
<g id="a_edge1_Node000001_Node000002"><a xlink:title=" ">
<path fill="none" stroke="#63b8ff" d="M67.68,-280.47C75.95,-320.03 101.87,-418.47 163,-470.38 164.51,-471.66 166.09,-472.85 167.74,-473.98"/>
<polygon fill="#63b8ff" stroke="#63b8ff" points="166.01,-477.02 176.44,-478.86 169.44,-470.91 166.01,-477.02"/>
</a>
</g>
</g>
<!-- Node5 -->
<g id="Node000005" class="node">
<title>Node5</title>
<g id="a_Node000005"><a xlink:href="kest__expression_8c.html#a0f3694a5f7f31352f194dda5a8068f5e" target="_top" xlink:title=" ">
<polygon fill="white" stroke="#666666" points="293.38,-539.75 173.12,-539.75 173.12,-519 293.38,-519 293.38,-539.75"/>
<text xml:space="preserve" text-anchor="middle" x="233.25" y="-526.25" font-family="Helvetica,sans-Serif" font-size="10.00">kest_expr_new_const</text>
</a>
</g>
</g>
<!-- Node1&#45;&gt;Node5 -->
<g id="edge4_Node000001_Node000005" class="edge">
<title>Node1&#45;&gt;Node5</title>
<g id="a_edge4_Node000001_Node000005"><a xlink:title=" ">
<path fill="none" stroke="#63b8ff" d="M66.26,-280.58C71.77,-325.24 92.73,-445.79 163,-509.38 164.28,-510.53 165.61,-511.62 167.01,-512.64"/>
<polygon fill="#63b8ff" stroke="#63b8ff" points="165.16,-515.62 175.54,-517.77 168.76,-509.62 165.16,-515.62"/>
</a>
</g>
</g>
<!-- Node7 -->
<g id="Node000007" class="node">
<title>Node7</title>
<g id="a_Node000007"><a xlink:href="kest__expression_8c.html#a9175b15bdd4597fc2774256deebd1e30" target="_top" xlink:title=" ">
<polygon fill="white" stroke="#666666" points="303.5,-422.75 163,-422.75 163,-402 303.5,-402 303.5,-422.75"/>
<text xml:space="preserve" text-anchor="middle" x="233.25" y="-409.25" font-family="Helvetica,sans-Serif" font-size="10.00">kest_expr_new_reference</text>
</a>
</g>
</g>
<!-- Node1&#45;&gt;Node7 -->
<g id="edge7_Node000001_Node000007" class="edge">
<title>Node1&#45;&gt;Node7</title>
<g id="a_edge7_Node000001_Node000007"><a xlink:title=" ">
<path fill="none" stroke="#63b8ff" d="M72.78,-280.6C87.15,-308.6 119.39,-363.85 163,-393.38 164.82,-394.61 166.72,-395.76 168.67,-396.84"/>
<polygon fill="#63b8ff" stroke="#63b8ff" points="166.94,-399.89 177.48,-400.98 169.92,-393.56 166.94,-399.89"/>
</a>
</g>
</g>
<!-- Node11 -->
<g id="Node000011" class="node">
<title>Node11</title>
<g id="a_Node000011"><a xlink:href="kest__expression_8c.html#af90cd652f5e2164734e85bf1228dd8cd" target="_top" xlink:title=" ">
<polygon fill="white" stroke="#666666" points="294.12,-461.75 172.38,-461.75 172.38,-441 294.12,-441 294.12,-461.75"/>
<text xml:space="preserve" text-anchor="middle" x="233.25" y="-448.25" font-family="Helvetica,sans-Serif" font-size="10.00">kest_expr_new_unary</text>
</a>
</g>
</g>
<!-- Node1&#45;&gt;Node11 -->
<g id="edge13_Node000001_Node000011" class="edge">
<title>Node1&#45;&gt;Node11</title>
<g id="a_edge13_Node000001_Node000011"><a xlink:title=" ">
<path fill="none" stroke="#63b8ff" d="M69.75,-280.55C81.04,-314.61 110.95,-390.91 163,-431.38 164.78,-432.76 166.65,-434.04 168.59,-435.24"/>
<polygon fill="#63b8ff" stroke="#63b8ff" points="166.95,-438.33 177.44,-439.83 170.17,-432.12 166.95,-438.33"/>
</a>
</g>
</g>
<!-- Node12 -->
<g id="Node000012" class="node">
<title>Node12</title>
<g id="a_Node000012"><a xlink:href="kest__expr__parser_8c.html#ab535c878cfc1e73f9615ac670313aebd" target="_top" xlink:title=" ">
<polygon fill="white" stroke="#666666" points="294.12,-384.12 172.38,-384.12 172.38,-350.62 294.12,-350.62 294.12,-384.12"/>
<text xml:space="preserve" text-anchor="start" x="180.38" y="-370.62" font-family="Helvetica,sans-Serif" font-size="10.00">kest_expression_infix</text>
<text xml:space="preserve" text-anchor="middle" x="233.25" y="-357.88" font-family="Helvetica,sans-Serif" font-size="10.00">_associativity</text>
</a>
</g>
</g>
<!-- Node1&#45;&gt;Node12 -->
<g id="edge15_Node000001_Node000012" class="edge">
<title>Node1&#45;&gt;Node12</title>
<g id="a_edge15_Node000001_Node000012"><a xlink:title=" ">
<path fill="none" stroke="#63b8ff" d="M82.5,-280.49C101.35,-297.7 132.43,-324.09 163,-341.38 165.49,-342.78 168.08,-344.15 170.72,-345.46"/>
<polygon fill="#63b8ff" stroke="#63b8ff" points="169.2,-348.61 179.74,-349.62 172.13,-342.25 169.2,-348.61"/>
</a>
</g>
</g>
<!-- Node13 -->
<g id="Node000013" class="node">
<title>Node13</title>
<g id="a_Node000013"><a xlink:href="kest__expr__parser_8c.html#a1ea0c22b3110ab309e28a6822c721abc" target="_top" xlink:title=" ">
<polygon fill="white" stroke="#666666" points="295.25,-332.12 171.25,-332.12 171.25,-298.62 295.25,-298.62 295.25,-332.12"/>
<text xml:space="preserve" text-anchor="start" x="179.25" y="-318.62" font-family="Helvetica,sans-Serif" font-size="10.00">kest_expression_infix</text>
<text xml:space="preserve" text-anchor="middle" x="233.25" y="-305.88" font-family="Helvetica,sans-Serif" font-size="10.00">_operator_precedence</text>
</a>
</g>
</g>
<!-- Node1&#45;&gt;Node13 -->
<g id="edge16_Node000001_Node000013" class="edge">
<title>Node1&#45;&gt;Node13</title>
<g id="a_edge16_Node000001_Node000013"><a xlink:title=" ">
<path fill="none" stroke="#63b8ff" d="M119.89,-280.55C134.56,-285.09 150.55,-290.05 165.74,-294.76"/>
<polygon fill="#63b8ff" stroke="#63b8ff" points="164.6,-298.07 175.18,-297.69 166.67,-291.38 164.6,-298.07"/>
</a>
</g>
</g>
<!-- Node14 -->
<g id="Node000014" class="node">
<title>Node14</title>
<g id="a_Node000014"><a xlink:href="kest__expr__parser_8c.html#a6dd9bd174bfd939ea5cc471b67f36630" target="_top" xlink:title=" ">
<polygon fill="white" stroke="#666666" points="296.75,-280.12 169.75,-280.12 169.75,-246.62 296.75,-246.62 296.75,-280.12"/>
<text xml:space="preserve" text-anchor="start" x="177.75" y="-266.62" font-family="Helvetica,sans-Serif" font-size="10.00">kest_expression_token</text>
<text xml:space="preserve" text-anchor="middle" x="233.25" y="-253.88" font-family="Helvetica,sans-Serif" font-size="10.00">_infix_type</text>
</a>
</g>
</g>
<!-- Node1&#45;&gt;Node14 -->
<g id="edge17_Node000001_Node000014" class="edge">
<title>Node1&#45;&gt;Node14</title>
<g id="a_edge17_Node000001_Node000014"><a xlink:title=" ">
<path fill="none" stroke="#63b8ff" d="M127.44,-263.38C137.44,-263.38 147.86,-263.38 158.08,-263.38"/>
<polygon fill="#63b8ff" stroke="#63b8ff" points="158,-266.88 168,-263.38 158,-259.88 158,-266.88"/>
</a>
</g>
</g>
<!-- Node15 -->
<g id="Node000015" class="node">
<title>Node15</title>
<g id="a_Node000015"><a xlink:href="kest__expr__parser_8c.html#ac63b8facb2693c7c035f05fa4419f4b0" target="_top" xlink:title=" ">
<polygon fill="white" stroke="#666666" points="296.75,-228.12 169.75,-228.12 169.75,-194.62 296.75,-194.62 296.75,-228.12"/>
<text xml:space="preserve" text-anchor="start" x="177.75" y="-214.62" font-family="Helvetica,sans-Serif" font-size="10.00">kest_expression_token</text>
<text xml:space="preserve" text-anchor="middle" x="233.25" y="-201.88" font-family="Helvetica,sans-Serif" font-size="10.00">_unary_type</text>
</a>
</g>
</g>
<!-- Node1&#45;&gt;Node15 -->
<g id="edge18_Node000001_Node000015" class="edge">
<title>Node1&#45;&gt;Node15</title>
<g id="a_edge18_Node000001_Node000015"><a xlink:title=" ">
<path fill="none" stroke="#63b8ff" d="M119.89,-246.2C134.56,-241.66 150.55,-236.7 165.74,-231.99"/>
<polygon fill="#63b8ff" stroke="#63b8ff" points="166.67,-235.37 175.18,-229.06 164.6,-228.68 166.67,-235.37"/>
</a>
</g>
</g>
<!-- Node16 -->
<g id="Node000016" class="node">
<title>Node16</title>
<g id="a_Node000016"><a xlink:href="kest__eff__parser_8c.html#aee5c1435aac9ead9b0c5c692c7c621ec" target="_top" xlink:title=" ">
<polygon fill="white" stroke="#666666" points="291.12,-176.75 175.38,-176.75 175.38,-156 291.12,-156 291.12,-176.75"/>
<text xml:space="preserve" text-anchor="middle" x="233.25" y="-163.25" font-family="Helvetica,sans-Serif" font-size="10.00">kest_parser_error_at</text>
</a>
</g>
</g>
<!-- Node1&#45;&gt;Node16 -->
<g id="edge20_Node000001_Node000016" class="edge">
<title>Node1&#45;&gt;Node16</title>
<g id="a_edge20_Node000001_Node000016"><a xlink:title=" ">
<path fill="none" stroke="#63b8ff" d="M81.49,-246.33C100.02,-228.67 131.28,-201.44 163,-185.38 166.07,-183.82 169.28,-182.38 172.57,-181.05"/>
<polygon fill="#63b8ff" stroke="#63b8ff" points="173.65,-184.38 181.84,-177.67 171.25,-177.81 173.65,-184.38"/>
</a>
</g>
</g>
<!-- Node18 -->
<g id="Node000018" class="node">
<title>Node18</title>
<g id="a_Node000018"><a xlink:href="kest__expression_8c.html#a05276e5a18cc3b52dfc8a17bb101c832" target="_top" xlink:title=" ">
<polygon fill="white" stroke="#666666" points="277.25,-137.75 189.25,-137.75 189.25,-117 277.25,-117 277.25,-137.75"/>
<text xml:space="preserve" text-anchor="middle" x="233.25" y="-124.25" font-family="Helvetica,sans-Serif" font-size="10.00">max_depth_bp</text>
</a>
</g>
</g>
<!-- Node1&#45;&gt;Node18 -->
<g id="edge22_Node000001_Node000018" class="edge">
<title>Node1&#45;&gt;Node18</title>
<g id="a_edge22_Node000001_Node000018"><a xlink:title=" ">
<path fill="none" stroke="#63b8ff" d="M74.31,-246.45C89.87,-221.1 122.62,-173.48 163,-147.38 167.74,-144.31 172.96,-141.71 178.34,-139.49"/>
<polygon fill="#63b8ff" stroke="#63b8ff" points="179.17,-142.91 187.38,-136.22 176.79,-136.33 179.17,-142.91"/>
</a>
</g>
</g>
<!-- Node19 -->
<g id="Node000019" class="node">
<title>Node19</title>
<g id="a_Node000019"><a xlink:href="kest__tokenizer_8c.html#a713c477a645ef8a6abfd4cb4e257b53c" target="_top" xlink:title=" ">
<polygon fill="white" stroke="#666666" points="278,-98.75 188.5,-98.75 188.5,-78 278,-78 278,-98.75"/>
<text xml:space="preserve" text-anchor="middle" x="233.25" y="-85.25" font-family="Helvetica,sans-Serif" font-size="10.00">token_is_name</text>
</a>
</g>
</g>
<!-- Node1&#45;&gt;Node19 -->
<g id="edge23_Node000001_Node000019" class="edge">
<title>Node1&#45;&gt;Node19</title>
<g id="a_edge23_Node000001_Node000019"><a xlink:title=" ">
<path fill="none" stroke="#63b8ff" d="M70.51,-246.54C82.78,-214.63 113.75,-145.27 163,-108.38 167.52,-104.99 172.59,-102.18 177.89,-99.84"/>
<polygon fill="#63b8ff" stroke="#63b8ff" points="178.73,-103.27 186.84,-96.45 176.25,-96.72 178.73,-103.27"/>
</a>
</g>
</g>
<!-- Node22 -->
<g id="Node000022" class="node">
<title>Node22</title>
<g id="a_Node000022"><a xlink:href="kest__tokenizer_8c.html#ae684335931207bb714fdc1b6588aad14" target="_top" xlink:title=" ">
<polygon fill="white" stroke="#666666" points="282.88,-59.75 183.62,-59.75 183.62,-39 282.88,-39 282.88,-59.75"/>
<text xml:space="preserve" text-anchor="middle" x="233.25" y="-46.25" font-family="Helvetica,sans-Serif" font-size="10.00">token_is_number</text>
</a>
</g>
</g>
<!-- Node1&#45;&gt;Node22 -->
<g id="edge26_Node000001_Node000022" class="edge">
<title>Node1&#45;&gt;Node22</title>
<g id="a_edge26_Node000001_Node000022"><a xlink:title=" ">
<path fill="none" stroke="#63b8ff" d="M68.29,-246.22C77.55,-208.39 104.93,-117.41 163,-69.38 166.03,-66.87 169.37,-64.67 172.88,-62.75"/>
<polygon fill="#63b8ff" stroke="#63b8ff" points="174.15,-66.02 181.78,-58.67 171.24,-59.66 174.15,-66.02"/>
</a>
</g>
</g>
<!-- Node24 -->
<g id="Node000024" class="node">
<title>Node24</title>
<g id="a_Node000024"><a xlink:href="kest__tokenizer_8c.html#a6ca78d248f8970c62c3a5cfc32ee0bb6" target="_top" xlink:title=" ">
<polygon fill="white" stroke="#666666" points="276.12,-20.75 190.38,-20.75 190.38,0 276.12,0 276.12,-20.75"/>
<text xml:space="preserve" text-anchor="middle" x="233.25" y="-7.25" font-family="Helvetica,sans-Serif" font-size="10.00">token_to_float</text>
</a>
</g>
</g>
<!-- Node1&#45;&gt;Node24 -->
<g id="edge28_Node000001_Node000024" class="edge">
<title>Node1&#45;&gt;Node24</title>
<g id="a_edge28_Node000001_Node000024"><a xlink:title=" ">
<path fill="none" stroke="#63b8ff" d="M66.65,-246.43C73.01,-203.6 95.67,-90.14 163,-30.38 167.86,-26.06 173.59,-22.68 179.64,-20.02"/>
<polygon fill="#63b8ff" stroke="#63b8ff" points="180.44,-23.46 188.62,-16.72 178.02,-16.89 180.44,-23.46"/>
</a>
</g>
</g>
<!-- Node3 -->
<g id="Node000003" class="node">
<title>Node3</title>
<g id="a_Node000003"><a xlink:href="kest__alloc_8c.html#a4bb52284828149d9a740bac0c9706ecd" target="_top" xlink:title=" ">
<polygon fill="white" stroke="#666666" points="459,-480.75 346.25,-480.75 346.25,-460 459,-460 459,-480.75"/>
<text xml:space="preserve" text-anchor="middle" x="402.62" y="-467.25" font-family="Helvetica,sans-Serif" font-size="10.00">kest_allocator_alloc</text>
</a>
</g>
</g>
<!-- Node2&#45;&gt;Node3 -->
<g id="edge2_Node000002_Node000003" class="edge">
<title>Node2&#45;&gt;Node3</title>
<g id="a_edge2_Node000002_Node000003"><a xlink:title=" ">
<path fill="none" stroke="#63b8ff" d="M296.1,-482.98C308.7,-481.48 322.02,-479.89 334.79,-478.36"/>
<polygon fill="#63b8ff" stroke="#63b8ff" points="334.82,-481.88 344.33,-477.22 333.99,-474.93 334.82,-481.88"/>
</a>
</g>
</g>
<!-- Node4 -->
<g id="Node000004" class="node">
<title>Node4</title>
<g id="a_Node000004"><a xlink:href="kest__alloc_8c.html#a849755c5dc5b35e712ffcdb602e50fb4" target="_top" xlink:title=" ">
<polygon fill="white" stroke="#666666" points="566.5,-460.75 501.75,-460.75 501.75,-440 566.5,-440 566.5,-460.75"/>
<text xml:space="preserve" text-anchor="middle" x="534.12" y="-447.25" font-family="Helvetica,sans-Serif" font-size="10.00">kest_alloc</text>
</a>
</g>
</g>
<!-- Node3&#45;&gt;Node4 -->
<g id="edge3_Node000003_Node000004" class="edge">
<title>Node3&#45;&gt;Node4</title>
<g id="a_edge3_Node000003_Node000004"><a xlink:title=" ">
<path fill="none" stroke="#63b8ff" d="M459.3,-461.78C469.64,-460.18 480.31,-458.53 490.2,-457"/>
<polygon fill="#63b8ff" stroke="#63b8ff" points="490.55,-460.49 499.9,-455.51 489.48,-453.57 490.55,-460.49"/>
</a>
</g>
</g>
<!-- Node5&#45;&gt;Node3 -->
<g id="edge5_Node000005_Node000003" class="edge">
<title>Node5&#45;&gt;Node3</title>
<g id="a_edge5_Node000005_Node000003"><a xlink:title=" ">
<path fill="none" stroke="#63b8ff" d="M274.37,-518.5C283.97,-515.71 294.15,-512.58 303.5,-509.38 324.42,-502.21 347.42,-493.14 365.89,-485.55"/>
<polygon fill="#63b8ff" stroke="#63b8ff" points="367.17,-488.8 375.07,-481.74 364.49,-482.34 367.17,-488.8"/>
</a>
</g>
</g>
<!-- Node6 -->
<g id="Node000006" class="node">
<title>Node6</title>
<g id="a_Node000006"><a xlink:href="kest__expression_8c.html#ae6f52fade51b75af749874a7664095b0" target="_top" xlink:title=" ">
<polygon fill="white" stroke="#666666" points="465.75,-539.75 339.5,-539.75 339.5,-519 465.75,-519 465.75,-539.75"/>
<text xml:space="preserve" text-anchor="middle" x="402.62" y="-526.25" font-family="Helvetica,sans-Serif" font-size="10.00">kest_expression_const</text>
</a>
</g>
</g>
<!-- Node5&#45;&gt;Node6 -->
<g id="edge6_Node000005_Node000006" class="edge">
<title>Node5&#45;&gt;Node6</title>
<g id="a_edge6_Node000005_Node000006"><a xlink:title=" ">
<path fill="none" stroke="#63b8ff" d="M293.73,-529.38C304.8,-529.38 316.48,-529.38 327.91,-529.38"/>
<polygon fill="#63b8ff" stroke="#63b8ff" points="327.71,-532.88 337.71,-529.38 327.71,-525.88 327.71,-532.88"/>
</a>
</g>
</g>
<!-- Node7&#45;&gt;Node3 -->
<g id="edge8_Node000007_Node000003" class="edge">
<title>Node7&#45;&gt;Node3</title>
<g id="a_edge8_Node000007_Node000003"><a xlink:title=" ">
<path fill="none" stroke="#63b8ff" d="M276.41,-423.22C285.45,-425.91 294.87,-429.01 303.5,-432.38 320.16,-438.88 322.94,-443.61 339.5,-450.38 344.17,-452.28 349.09,-454.13 354.04,-455.88"/>
<polygon fill="#63b8ff" stroke="#63b8ff" points="352.8,-459.16 363.39,-459.06 355.06,-452.53 352.8,-459.16"/>
</a>
</g>
</g>
<!-- Node8 -->
<g id="Node000008" class="node">
<title>Node8</title>
<g id="a_Node000008"><a xlink:href="kest__alloc_8c.html#ac70a0464d391cefa33eb0f6d746ff7aa" target="_top" xlink:title=" ">
<polygon fill="white" stroke="#666666" points="457.12,-402.75 348.12,-402.75 348.12,-382 457.12,-382 457.12,-402.75"/>
<text xml:space="preserve" text-anchor="middle" x="402.62" y="-389.25" font-family="Helvetica,sans-Serif" font-size="10.00">kest_allocator_free</text>
</a>
</g>
</g>
<!-- Node7&#45;&gt;Node8 -->
<g id="edge9_Node000007_Node000008" class="edge">
<title>Node7&#45;&gt;Node8</title>
<g id="a_edge9_Node000007_Node000008"><a xlink:title=" ">
<path fill="none" stroke="#63b8ff" d="M303.78,-404.07C314.6,-402.77 325.74,-401.44 336.45,-400.16"/>
<polygon fill="#63b8ff" stroke="#63b8ff" points="336.86,-403.64 346.38,-398.98 336.03,-396.69 336.86,-403.64"/>
</a>
</g>
</g>
<!-- Node10 -->
<g id="Node000010" class="node">
<title>Node10</title>
<g id="a_Node000010"><a xlink:href="kest__alloc_8c.html#aed9ede1276c1ab3b4042c264ce64a3d2" target="_top" xlink:title=" ">
<polygon fill="white" stroke="#666666" points="441.75,-441.75 363.5,-441.75 363.5,-421 441.75,-421 441.75,-441.75"/>
<text xml:space="preserve" text-anchor="middle" x="402.62" y="-428.25" font-family="Helvetica,sans-Serif" font-size="10.00">kest_strndup</text>
</a>
</g>
</g>
<!-- Node7&#45;&gt;Node10 -->
<g id="edge11_Node000007_Node000010" class="edge">
<title>Node7&#45;&gt;Node10</title>
<g id="a_edge11_Node000007_Node000010"><a xlink:title=" ">
<path fill="none" stroke="#63b8ff" d="M303.78,-420.27C319.95,-422.1 336.86,-424.02 351.97,-425.74"/>
<polygon fill="#63b8ff" stroke="#63b8ff" points="351.31,-429.19 361.64,-426.84 352.1,-422.23 351.31,-429.19"/>
</a>
</g>
</g>
<!-- Node9 -->
<g id="Node000009" class="node">
<title>Node9</title>
<g id="a_Node000009"><a xlink:href="kest__alloc_8c.html#a294af5728a94aa316fcf65304d388d48" target="_top" xlink:title=" ">
<polygon fill="white" stroke="#666666" points="564.62,-402.75 503.62,-402.75 503.62,-382 564.62,-382 564.62,-402.75"/>
<text xml:space="preserve" text-anchor="middle" x="534.12" y="-389.25" font-family="Helvetica,sans-Serif" font-size="10.00">kest_free</text>
</a>
</g>
</g>
<!-- Node8&#45;&gt;Node9 -->
<g id="edge10_Node000008_Node000009" class="edge">
<title>Node8&#45;&gt;Node9</title>
<g id="a_edge10_Node000008_Node000009"><a xlink:title=" ">
<path fill="none" stroke="#63b8ff" d="M457.42,-392.38C468.95,-392.38 480.96,-392.38 491.93,-392.38"/>
<polygon fill="#63b8ff" stroke="#63b8ff" points="491.84,-395.88 501.84,-392.38 491.84,-388.88 491.84,-395.88"/>
</a>
</g>
</g>
<!-- Node10&#45;&gt;Node4 -->
<g id="edge12_Node000010_Node000004" class="edge">
<title>Node10&#45;&gt;Node4</title>
<g id="a_edge12_Node000010_Node000004"><a xlink:title=" ">
<path fill="none" stroke="#63b8ff" d="M442.13,-437.02C457.37,-439.26 474.94,-441.84 490.56,-444.13"/>
<polygon fill="#63b8ff" stroke="#63b8ff" points="489.62,-447.53 500.02,-445.52 490.64,-440.6 489.62,-447.53"/>
</a>
</g>
</g>
<!-- Node11&#45;&gt;Node3 -->
<g id="edge14_Node000011_Node000003" class="edge">
<title>Node11&#45;&gt;Node3</title>
<g id="a_edge14_Node000011_Node000003"><a xlink:title=" ">
<path fill="none" stroke="#63b8ff" d="M294.2,-458.18C307.39,-459.68 321.44,-461.27 334.88,-462.8"/>
<polygon fill="#63b8ff" stroke="#63b8ff" points="334.16,-466.24 344.49,-463.89 334.95,-459.28 334.16,-466.24"/>
</a>
</g>
</g>
<!-- Node17 -->
<g id="Node000017" class="node">
<title>Node17</title>
<g id="a_Node000017"><a xlink:href="kest__eff__parser_8c.html#ad9a274453b84664c274f1a208e7c91b2" target="_top" xlink:title=" ">
<polygon fill="white" stroke="#666666" points="457.88,-189.12 347.38,-189.12 347.38,-155.62 457.88,-155.62 457.88,-189.12"/>
<text xml:space="preserve" text-anchor="start" x="355.38" y="-175.62" font-family="Helvetica,sans-Serif" font-size="10.00">kest_parser_format</text>
<text xml:space="preserve" text-anchor="middle" x="402.62" y="-162.88" font-family="Helvetica,sans-Serif" font-size="10.00">_offending_section</text>
</a>
</g>
</g>
<!-- Node16&#45;&gt;Node17 -->
<g id="edge21_Node000016_Node000017" class="edge">
<title>Node16&#45;&gt;Node17</title>
<g id="a_edge21_Node000016_Node000017"><a xlink:title=" ">
<path fill="none" stroke="#63b8ff" d="M291.38,-168.42C305.58,-168.93 320.92,-169.48 335.51,-170"/>
<polygon fill="#63b8ff" stroke="#63b8ff" points="335.38,-173.5 345.5,-170.36 335.63,-166.51 335.38,-173.5"/>
</a>
</g>
</g>
<!-- Node20 -->
<g id="Node000020" class="node">
<title>Node20</title>
<g id="a_Node000020"><a xlink:href="kest__tokenizer_8c.html#ae3e094675b7f6c398787acd25603e724" target="_top" xlink:title=" ">
<polygon fill="white" stroke="#666666" points="443.62,-98.75 361.62,-98.75 361.62,-78 443.62,-78 443.62,-98.75"/>
<text xml:space="preserve" text-anchor="middle" x="402.62" y="-85.25" font-family="Helvetica,sans-Serif" font-size="10.00">char_is_letter</text>
</a>
</g>
</g>
<!-- Node19&#45;&gt;Node20 -->
<g id="edge24_Node000019_Node000020" class="edge">
<title>Node19&#45;&gt;Node20</title>
<g id="a_edge24_Node000019_Node000020"><a xlink:title=" ">
<path fill="none" stroke="#63b8ff" d="M278.23,-88.38C300.27,-88.38 327.09,-88.38 350.09,-88.38"/>
<polygon fill="#63b8ff" stroke="#63b8ff" points="349.87,-91.88 359.87,-88.38 349.87,-84.88 349.87,-91.88"/>
</a>
</g>
</g>
<!-- Node21 -->
<g id="Node000021" class="node">
<title>Node21</title>
<g id="a_Node000021"><a xlink:href="kest__tokenizer_8c.html#a69053f707d3b257c2a4fbbab04855ce4" target="_top" xlink:title=" ">
<polygon fill="white" stroke="#666666" points="449.25,-137.75 356,-137.75 356,-117 449.25,-117 449.25,-137.75"/>
<text xml:space="preserve" text-anchor="middle" x="402.62" y="-124.25" font-family="Helvetica,sans-Serif" font-size="10.00">char_is_number</text>
</a>
</g>
</g>
<!-- Node19&#45;&gt;Node21 -->
<g id="edge25_Node000019_Node000021" class="edge">
<title>Node19&#45;&gt;Node21</title>
<g id="a_edge25_Node000019_Node000021"><a xlink:title=" ">
<path fill="none" stroke="#63b8ff" d="M278.23,-98.62C298.52,-103.35 322.86,-109.02 344.54,-114.07"/>
<polygon fill="#63b8ff" stroke="#63b8ff" points="343.6,-117.45 354.13,-116.31 345.19,-110.63 343.6,-117.45"/>
</a>
</g>
</g>
<!-- Node23 -->
<g id="Node000023" class="node">
<title>Node23</title>
<g id="a_Node000023"><a xlink:href="kest__tokenizer_8c.html#a197e3a6f3bdb468b3baecf25f4ebd76b" target="_top" xlink:title=" ">
<polygon fill="white" stroke="#666666" points="451.5,-59.75 353.75,-59.75 353.75,-39 451.5,-39 451.5,-59.75"/>
<text xml:space="preserve" text-anchor="middle" x="402.62" y="-46.25" font-family="Helvetica,sans-Serif" font-size="10.00">char_is_in_string</text>
</a>
</g>
</g>
<!-- Node22&#45;&gt;Node23 -->
<g id="edge27_Node000022_Node000023" class="edge">
<title>Node22&#45;&gt;Node23</title>
<g id="a_edge27_Node000022_Node000023"><a xlink:title=" ">
<path fill="none" stroke="#63b8ff" d="M283.11,-49.38C301.5,-49.38 322.61,-49.38 341.88,-49.38"/>
<polygon fill="#63b8ff" stroke="#63b8ff" points="341.77,-52.88 351.77,-49.38 341.77,-45.88 341.77,-52.88"/>
</a>
</g>
</g>
<!-- Node25 -->
<g id="Node000025" class="node">
<title>Node25</title>
<g id="a_Node000025"><a xlink:href="kest__tokenizer_8c.html#a626ca31bbb3f56b9863d6fa45f44d1ac" target="_top" xlink:title=" ">
<polygon fill="white" stroke="#666666" points="442.88,-20.75 362.38,-20.75 362.38,0 442.88,0 442.88,-20.75"/>
<text xml:space="preserve" text-anchor="middle" x="402.62" y="-7.25" font-family="Helvetica,sans-Serif" font-size="10.00">digit_to_float</text>
</a>
</g>
</g>
<!-- Node24&#45;&gt;Node25 -->
<g id="edge29_Node000024_Node000025" class="edge">
<title>Node24&#45;&gt;Node25</title>
<g id="a_edge29_Node000024_Node000025"><a xlink:title=" ">
<path fill="none" stroke="#63b8ff" d="M276.49,-10.38C299.04,-10.38 326.97,-10.38 350.71,-10.38"/>
<polygon fill="#63b8ff" stroke="#63b8ff" points="350.48,-13.88 360.48,-10.38 350.48,-6.88 350.48,-13.88"/>
</a>
</g>
</g>
</g>
</svg>

<g id="navigator" transform="translate(0 0)" fill="#404254">
  <rect fill="#f2f5e9" fill-opacity="0.5" stroke="#606060" stroke-width=".5" x="0" y="0" width="60" height="60"/>
  <use id="zoomplus" xlink:href="#zoomPlus" x="17" y="9" onmousedown="handleZoom(evt,'in')"/>
  <use id="zoomminus" xlink:href="#zoomMin" x="42" y="9" onmousedown="handleZoom(evt,'out')"/>
  <use id="reset" xlink:href="#resetDef" x="30" y="36" onmousedown="handleReset()"/>
   <use id="arrowup" xlink:href="#arrowUp" x="0" y="0" onmousedown="handlePan(0,-1)"/>
  <use id="arrowright" xlink:href="#arrowRight" x="0" y="0" onmousedown="handlePan(1,0)"/>
  <use id="arrowdown" xlink:href="#arrowDown" x="0" y="0" onmousedown="handlePan(0,1)"/>
  <use id="arrowleft" xlink:href="#arrowLeft" x="0" y="0" onmousedown="handlePan(-1,0)"/>
</g>
<svg viewBox="0 0 15 15" width="100%" height="30px" preserveAspectRatio="xMaxYMin meet">
 <g id="arrow_out" transform="scale(0.3 0.3)">
  <a xlink:href="kest__expr__parser_8c_adf0188b23902aff2ddacb388e811412e_cgraph_org.svg" target="_base">
   <rect id="button" ry="5" rx="5" y="6" x="6" height="38" width="38"
        fill="#f2f5e9" fill-opacity="0.5" stroke="#606060" stroke-width="1.0"/>
   <path id="arrow"
     d="M 11.500037,31.436501 C 11.940474,20.09759 22.043105,11.32322 32.158766,21.979434 L 37.068811,17.246167 C 37.068811,17.246167 37.088388,32 37.088388,32 L 22.160133,31.978069 C 22.160133,31.978069 26.997745,27.140456 26.997745,27.140456 C 18.528582,18.264221 13.291696,25.230495 11.500037,31.436501 z"
     style="fill:#404040;"/>
  </a>
 </g>
</svg>

<style type='text/css'>
<![CDATA[
[data-mouse-over-selected='false'] { opacity: 0.7; }
[data-mouse-over-selected='true']  { opacity: 1.0; }
]]>
</style>
<script type="application/ecmascript"><![CDATA[
document.addEventListener('DOMContentLoaded', (event) => {
  highlightEdges();
  highlightAdjacentNodes();
});
]]></script>
</svg>
