<?xml version="1.0" encoding="UTF-8" standalone="no"?>
<!DOCTYPE svg PUBLIC "-//W3C//DTD SVG 1.1//EN"
 "http://www.w3.org/Graphics/SVG/1.1/DTD/svg11.dtd">
<!-- Generated by graphviz version 13.1.2 (20250808.2320)
 -->
<!-- Title: kest_defs_section_extract Pages: 1 -->
<!--zoomable 235 -->

<svg id="main" version="1.1" xmlns="http://www.w3.org/2000/svg" xmlns:xlink="http://www.w3.org/1999/xlink" xml:space="preserve" onload="init(evt)">

<style type="text/css"><![CDATA[
.node, .edge {opacity: 0.7;}
.node.selected, .edge.selected {opacity: 1;}
.edge:hover path { stroke: red; }
.edge:hover polygon { stroke: red; fill: red; }
]]></style>

<defs>
  <circle id="rim" cx="0" cy="0" r="7"/>
  <circle id="rim2" cx="0" cy="0" r="3.5"/>
  <g id="zoomPlus">
    <use xlink:href="#rim" fill="#404040"><set attributeName="fill" to="#808080" begin="zoomplus.mouseover" end="zoomplus.mouseout"/></use>
    <path d="M-4,0h8M0,-4v8" fill="none" stroke="white" stroke-width="1.5" pointer-events="none"/>
  </g>
  <g id="zoomMin">
    <use xlink:href="#rim" fill="#404040"><set attributeName="fill" to="#808080" begin="zoomminus.mouseover" end="zoomminus.mouseout"/></use>
    <path d="M-4,0h8" fill="none" stroke="white" stroke-width="1.5" pointer-events="none"/>
  </g>
  <g id="arrowUp" transform="translate(30 24)">
    <use xlink:href="#rim"/>
    <path pointer-events="none" fill="none" stroke="white" stroke-width="1.5" d="M0,-3.0v7 M-2.5,-0.5L0,-3.0L2.5,-0.5"/>
  </g>
  <g id="arrowRight" transform="rotate(90) translate(36 -43)">
    <use xlink:href="#rim"/>
    <path pointer-events="none" fill="none" stroke="white" stroke-width="1.5" d="M0,-3.0v7 M-2.5,-0.5L0,-3.0L2.5,-0.5"/>
  </g>
  <g id="arrowDown" transform="rotate(180) translate(-30 -48)">
    <use xlink:href="#rim"/>
    <path pointer-events="none" fill="none" stroke="white" stroke-width="1.5" d="M0,-3.0v7 M-2.5,-0.5L0,-3.0L2.5,-0.5"/>
  </g>
  <g id="arrowLeft" transform="rotate(270) translate(-36 17)">
    <use xlink:href="#rim"/>
    <path pointer-events="none" fill="none" stroke="white" stroke-width="1.5" d="M0,-3.0v7 M-2.5,-0.5L0,-3.0L2.5,-0.5"/>
  </g>
  <g id="resetDef">
    <use xlink:href="#rim2" fill="#404040"><set attributeName="fill" to="#808080" begin="reset.mouseover" end="reset.mouseout"/></use>
  </g>
</defs>
<script type="application/ecmascript">
var viewWidth = 511;
var viewHeight = 235;
var sectionId = 'dynsection-3';
</script>
<script type="application/ecmascript" xlink:href="svg.min.js"/>
<svg id="graph" class="graph">
<g id="viewport">
<title>kest_defs_section_extract</title>
<!-- Node1 -->
<g id="Node000001" class="node">
<title>Node1</title>
<g id="a_Node000001"><a xlink:title=" ">
<polygon fill="#999999" stroke="#666666" points="142.75,-120.75 0,-120.75 0,-100 142.75,-100 142.75,-120.75"/>
<text xml:space="preserve" text-anchor="middle" x="71.38" y="-107.25" font-family="Helvetica,sans-Serif" font-size="10.00">kest_defs_section_extract</text>
</a>
</g>
</g>
<!-- Node2 -->
<g id="Node000002" class="node">
<title>Node2</title>
<g id="a_Node000002"><a xlink:href="kest__alloc_8c.html#a849755c5dc5b35e712ffcdb602e50fb4" target="_top" xlink:title=" ">
<polygon fill="white" stroke="#666666" points="460.5,-149.75 395.75,-149.75 395.75,-129 460.5,-129 460.5,-149.75"/>
<text xml:space="preserve" text-anchor="middle" x="428.12" y="-136.25" font-family="Helvetica,sans-Serif" font-size="10.00">kest_alloc</text>
</a>
</g>
</g>
<!-- Node1&#45;&gt;Node2 -->
<g id="edge1_Node000001_Node000002" class="edge">
<title>Node1&#45;&gt;Node2</title>
<g id="a_edge1_Node000001_Node000002"><a xlink:title=" ">
<path fill="none" stroke="#63b8ff" d="M79.3,-121.03C94.28,-142.99 132.16,-192.78 178.75,-211.38 236.13,-234.27 258.57,-229.1 317.75,-211.38 352.69,-200.91 386.79,-175.28 407.38,-157.61"/>
<polygon fill="#63b8ff" stroke="#63b8ff" points="409.54,-160.38 414.71,-151.13 404.9,-155.13 409.54,-160.38"/>
</a>
</g>
</g>
<!-- Node3 -->
<g id="Node000003" class="node">
<title>Node3</title>
<g id="a_Node000003"><a xlink:href="kest__dictionary_8c.html#a93ca6804bc9251acc646566a9c5a942f" target="_top" xlink:title=" ">
<polygon fill="white" stroke="#666666" points="306.88,-202.12 189.62,-202.12 189.62,-168.62 306.88,-168.62 306.88,-202.12"/>
<text xml:space="preserve" text-anchor="start" x="197.62" y="-188.62" font-family="Helvetica,sans-Serif" font-size="10.00">kest_dict_entry_type</text>
<text xml:space="preserve" text-anchor="middle" x="248.25" y="-175.88" font-family="Helvetica,sans-Serif" font-size="10.00">_to_string</text>
</a>
</g>
</g>
<!-- Node1&#45;&gt;Node3 -->
<g id="edge2_Node000001_Node000003" class="edge">
<title>Node1&#45;&gt;Node3</title>
<g id="a_edge2_Node000001_Node000003"><a xlink:title=" ">
<path fill="none" stroke="#63b8ff" d="M94.59,-121.15C115.97,-131.39 149.31,-147.03 178.75,-159.38 182.49,-160.94 186.36,-162.52 190.27,-164.09"/>
<polygon fill="#63b8ff" stroke="#63b8ff" points="188.66,-167.22 199.24,-167.63 191.22,-160.7 188.66,-167.22"/>
</a>
</g>
</g>
<!-- Node4 -->
<g id="Node000004" class="node">
<title>Node4</title>
<g id="a_Node000004"><a xlink:href="kest__error__codes_8c.html#a0f4c77127bc0b77264a21104979c576a" target="_top" xlink:title=" ">
<polygon fill="white" stroke="#666666" points="302.38,-150.12 194.12,-150.12 194.12,-116.62 302.38,-116.62 302.38,-150.12"/>
<text xml:space="preserve" text-anchor="start" x="202.12" y="-136.62" font-family="Helvetica,sans-Serif" font-size="10.00">kest_error_code_to</text>
<text xml:space="preserve" text-anchor="middle" x="248.25" y="-123.88" font-family="Helvetica,sans-Serif" font-size="10.00">_string</text>
</a>
</g>
</g>
<!-- Node1&#45;&gt;Node4 -->
<g id="edge3_Node000001_Node000004" class="edge">
<title>Node1&#45;&gt;Node4</title>
<g id="a_edge3_Node000001_Node000004"><a xlink:title=" ">
<path fill="none" stroke="#63b8ff" d="M143,-119.66C156.12,-121.39 169.77,-123.18 182.7,-124.89"/>
<polygon fill="#63b8ff" stroke="#63b8ff" points="181.98,-128.32 192.35,-126.15 182.89,-121.38 181.98,-128.32"/>
</a>
</g>
</g>
<!-- Node5 -->
<g id="Node000005" class="node">
<title>Node5</title>
<g id="a_Node000005"><a xlink:href="kest__eff__parser_8c.html#ae6d7da9a3cb36eed2884143a7b5ac7f2" target="_top" xlink:title=" ">
<polygon fill="white" stroke="#666666" points="317.75,-98.75 178.75,-98.75 178.75,-78 317.75,-78 317.75,-98.75"/>
<text xml:space="preserve" text-anchor="middle" x="248.25" y="-85.25" font-family="Helvetica,sans-Serif" font-size="10.00">kest_parser_error_at_line</text>
</a>
</g>
</g>
<!-- Node1&#45;&gt;Node5 -->
<g id="edge4_Node000001_Node000005" class="edge">
<title>Node1&#45;&gt;Node5</title>
<g id="a_edge4_Node000001_Node000005"><a xlink:title=" ">
<path fill="none" stroke="#63b8ff" d="M143,-101.49C150.92,-100.49 159.04,-99.47 167.07,-98.46"/>
<polygon fill="#63b8ff" stroke="#63b8ff" points="167.36,-101.95 176.85,-97.23 166.49,-95.01 167.36,-101.95"/>
</a>
</g>
</g>
<!-- Node6 -->
<g id="Node000006" class="node">
<title>Node6</title>
<g id="a_Node000006"><a xlink:href="kest__expr__scope_8c.html#a0587a5203aa19a14ee56456e508f884c" target="_top" xlink:title=" ">
<polygon fill="white" stroke="#666666" points="308.38,-20.75 188.12,-20.75 188.12,0 308.38,0 308.38,-20.75"/>
<text xml:space="preserve" text-anchor="middle" x="248.25" y="-7.25" font-family="Helvetica,sans-Serif" font-size="10.00">kest_scope_add_expr</text>
</a>
</g>
</g>
<!-- Node1&#45;&gt;Node6 -->
<g id="edge5_Node000001_Node000006" class="edge">
<title>Node1&#45;&gt;Node6</title>
<g id="a_edge5_Node000001_Node000006"><a xlink:title=" ">
<path fill="none" stroke="#63b8ff" d="M83.56,-99.75C102,-82.77 140.53,-49.52 178.75,-30.38 182.69,-28.4 186.85,-26.59 191.1,-24.94"/>
<polygon fill="#63b8ff" stroke="#63b8ff" points="192.11,-28.3 200.35,-21.65 189.76,-21.7 192.11,-28.3"/>
</a>
</g>
</g>
<!-- Node8 -->
<g id="Node000008" class="node">
<title>Node8</title>
<g id="a_Node000008"><a xlink:href="kest__alloc_8c.html#aed9ede1276c1ab3b4042c264ce64a3d2" target="_top" xlink:title=" ">
<polygon fill="white" stroke="#666666" points="287.38,-59.75 209.12,-59.75 209.12,-39 287.38,-39 287.38,-59.75"/>
<text xml:space="preserve" text-anchor="middle" x="248.25" y="-46.25" font-family="Helvetica,sans-Serif" font-size="10.00">kest_strndup</text>
</a>
</g>
</g>
<!-- Node1&#45;&gt;Node8 -->
<g id="edge7_Node000001_Node000008" class="edge">
<title>Node1&#45;&gt;Node8</title>
<g id="a_edge7_Node000001_Node000008"><a xlink:title=" ">
<path fill="none" stroke="#63b8ff" d="M98.38,-99.65C119.78,-90.99 151,-78.76 178.75,-69.38 184.92,-67.29 191.43,-65.22 197.9,-63.24"/>
<polygon fill="#63b8ff" stroke="#63b8ff" points="198.64,-66.68 207.22,-60.46 196.64,-59.97 198.64,-66.68"/>
</a>
</g>
</g>
<!-- Node7 -->
<g id="Node000007" class="node">
<title>Node7</title>
<g id="a_Node000007"><a xlink:href="kest__expr__scope_8c.html#a9fd428577752ce3323954bb75bbb3cf8" target="_top" xlink:title=" ">
<polygon fill="white" stroke="#666666" points="502.5,-20.75 353.75,-20.75 353.75,0 502.5,0 502.5,-20.75"/>
<text xml:space="preserve" text-anchor="middle" x="428.12" y="-7.25" font-family="Helvetica,sans-Serif" font-size="10.00">kest_scope_entry_init_expr</text>
</a>
</g>
</g>
<!-- Node6&#45;&gt;Node7 -->
<g id="edge6_Node000006_Node000007" class="edge">
<title>Node6&#45;&gt;Node7</title>
<g id="a_edge6_Node000006_Node000007"><a xlink:title=" ">
<path fill="none" stroke="#63b8ff" d="M308.48,-10.38C319.24,-10.38 330.66,-10.38 342,-10.38"/>
<polygon fill="#63b8ff" stroke="#63b8ff" points="341.77,-13.88 351.77,-10.38 341.77,-6.88 341.77,-13.88"/>
</a>
</g>
</g>
<!-- Node8&#45;&gt;Node2 -->
<g id="edge8_Node000008_Node000002" class="edge">
<title>Node8&#45;&gt;Node2</title>
<g id="a_edge8_Node000008_Node000002"><a xlink:title=" ">
<path fill="none" stroke="#63b8ff" d="M287.63,-58.5C297.64,-61.43 308.28,-65.07 317.75,-69.38 349.46,-83.79 382.74,-106.31 404.14,-121.9"/>
<polygon fill="#63b8ff" stroke="#63b8ff" points="402.03,-124.68 412.15,-127.82 406.19,-119.06 402.03,-124.68"/>
</a>
</g>
</g>
</g>
</svg>

<g id="navigator" transform="translate(0 0)" fill="#404254">
  <rect fill="#f2f5e9" fill-opacity="0.5" stroke="#606060" stroke-width=".5" x="0" y="0" width="60" height="60"/>
  <use id="zoomplus" xlink:href="#zoomPlus" x="17" y="9" onmousedown="handleZoom(evt,'in')"/>
  <use id="zoomminus" xlink:href="#zoomMin" x="42" y="9" onmousedown="handleZoom(evt,'out')"/>
  <use id="reset" xlink:href="#resetDef" x="30" y="36" onmousedown="handleReset()"/>
   <use id="arrowup" xlink:href="#arrowUp" x="0" y="0" onmousedown="handlePan(0,-1)"/>
  <use id="arrowright" xlink:href="#arrowRight" x="0" y="0" onmousedown="handlePan(1,0)"/>
  <use id="arrowdown" xlink:href="#arrowDown" x="0" y="0" onmousedown="handlePan(0,1)"/>
  <use id="arrowleft" xlink:href="#arrowLeft" x="0" y="0" onmousedown="handlePan(-1,0)"/>
</g>
<svg viewBox="0 0 15 15" width="100%" height="30px" preserveAspectRatio="xMaxYMin meet">
 <g id="arrow_out" transform="scale(0.3 0.3)">
  <a xlink:href="kest__eff__section_8h_ac80cd23aae3ae32a7ea8002211c6c259_cgraph_org.svg" target="_base">
   <rect id="button" ry="5" rx="5" y="6" x="6" height="38" width="38"
        fill="#f2f5e9" fill-opacity="0.5" stroke="#606060" stroke-width="1.0"/>
   <path id="arrow"
     d="M 11.500037,31.436501 C 11.940474,20.09759 22.043105,11.32322 32.158766,21.979434 L 37.068811,17.246167 C 37.068811,17.246167 37.088388,32 37.088388,32 L 22.160133,31.978069 C 22.160133,31.978069 26.997745,27.140456 26.997745,27.140456 C 18.528582,18.264221 13.291696,25.230495 11.500037,31.436501 z"
     style="fill:#404040;"/>
  </a>
 </g>
</svg>

<style type='text/css'>
<![CDATA[
[data-mouse-over-selected='false'] { opacity: 0.7; }
[data-mouse-over-selected='true']  { opacity: 1.0; }
]]>
</style>
<script type="application/ecmascript"><![CDATA[
document.addEventListener('DOMContentLoaded', (event) => {
  highlightEdges();
  highlightAdjacentNodes();
});
]]></script>
</svg>
