<?xml version="1.0" encoding="UTF-8" standalone="no"?>
<!DOCTYPE svg PUBLIC "-//W3C//DTD SVG 1.1//EN"
 "http://www.w3.org/Graphics/SVG/1.1/DTD/svg11.dtd">
<!-- Generated by graphviz version 13.1.2 (20250808.2320)
 -->
<!-- Title: read_sequence_from_file Pages: 1 -->
<svg width="631pt" height="165pt"
 viewBox="0.00 0.00 631.00 165.00" xmlns="http://www.w3.org/2000/svg" xmlns:xlink="http://www.w3.org/1999/xlink">
<g id="graph0" class="graph" transform="scale(1 1) rotate(0) translate(4 160.75)">
<title>read_sequence_from_file</title>
<!-- Node1 -->
<g id="Node000001" class="node">
<title>Node1</title>
<g id="a_Node000001"><a xlink:title=" ">
<polygon fill="#999999" stroke="#666666" points="139,-97.75 0,-97.75 0,-77 139,-77 139,-97.75"/>
<text xml:space="preserve" text-anchor="middle" x="69.5" y="-84.25" font-family="Helvetica,sans-Serif" font-size="10.00">read_sequence_from_file</text>
</a>
</g>
</g>
<!-- Node2 -->
<g id="Node000002" class="node">
<title>Node2</title>
<g id="a_Node000002"><a xlink:href="kest__context_8c.html#a27d5ba2e580d6779a546998085484da0" target="_top" xlink:title=" ">
<polygon fill="white" stroke="#666666" points="317,-156.75 175,-156.75 175,-136 317,-136 317,-156.75"/>
<text xml:space="preserve" text-anchor="middle" x="246" y="-143.25" font-family="Helvetica,sans-Serif" font-size="10.00">cxt_get_preset_by_fname</text>
</a>
</g>
</g>
<!-- Node1&#45;&gt;Node2 -->
<g id="edge1_Node000001_Node000002" class="edge">
<title>Node1&#45;&gt;Node2</title>
<g id="a_edge1_Node000001_Node000002"><a xlink:title=" ">
<path fill="none" stroke="#63b8ff" d="M97.79,-98.24C118.76,-106.41 148.51,-117.66 175,-126.38 181.23,-128.42 187.81,-130.46 194.34,-132.41"/>
<polygon fill="#63b8ff" stroke="#63b8ff" points="193.19,-135.72 203.77,-135.17 195.16,-129.01 193.19,-135.72"/>
</a>
</g>
</g>
<!-- Node5 -->
<g id="Node000005" class="node">
<title>Node5</title>
<g id="a_Node000005"><a xlink:href="kest__files_8c.html#ab79d861306c25eab9284239e73d0cc07" target="_top" xlink:title=" ">
<polygon fill="white" stroke="#666666" points="302,-117.75 190,-117.75 190,-97 302,-97 302,-117.75"/>
<text xml:space="preserve" text-anchor="middle" x="246" y="-104.25" font-family="Helvetica,sans-Serif" font-size="10.00">dump_file_contents</text>
</a>
</g>
</g>
<!-- Node1&#45;&gt;Node5 -->
<g id="edge4_Node000001_Node000005" class="edge">
<title>Node1&#45;&gt;Node5</title>
<g id="a_edge4_Node000001_Node000005"><a xlink:title=" ">
<path fill="none" stroke="#63b8ff" d="M139.47,-95.28C152.36,-96.76 165.81,-98.3 178.63,-99.77"/>
<polygon fill="#63b8ff" stroke="#63b8ff" points="177.86,-103.2 188.19,-100.86 178.65,-96.25 177.86,-103.2"/>
</a>
</g>
</g>
<!-- Node6 -->
<g id="Node000006" class="node">
<title>Node6</title>
<g id="a_Node000006"><a xlink:href="kest__files_8c.html#a1c61761f471d960139312c0441c424ea" target="_top" xlink:title=" ">
<polygon fill="white" stroke="#666666" points="299.75,-78.75 192.25,-78.75 192.25,-58 299.75,-58 299.75,-78.75"/>
<text xml:space="preserve" text-anchor="middle" x="246" y="-65.25" font-family="Helvetica,sans-Serif" font-size="10.00">file_validity_check</text>
</a>
</g>
</g>
<!-- Node1&#45;&gt;Node6 -->
<g id="edge5_Node000001_Node000006" class="edge">
<title>Node1&#45;&gt;Node6</title>
<g id="a_edge5_Node000001_Node000006"><a xlink:title=" ">
<path fill="none" stroke="#63b8ff" d="M139.47,-79.87C153.09,-78.38 167.33,-76.83 180.78,-75.37"/>
<polygon fill="#63b8ff" stroke="#63b8ff" points="180.8,-78.89 190.37,-74.32 180.05,-71.93 180.8,-78.89"/>
</a>
</g>
</g>
<!-- Node7 -->
<g id="Node000007" class="node">
<title>Node7</title>
<g id="a_Node000007"><a xlink:href="kest__sequence_8c.html#a6f29702a863d4845047fbe7e1da411a1" target="_top" xlink:title=" ">
<polygon fill="white" stroke="#666666" points="315.88,-39.75 176.12,-39.75 176.12,-19 315.88,-19 315.88,-39.75"/>
<text xml:space="preserve" text-anchor="middle" x="246" y="-26.25" font-family="Helvetica,sans-Serif" font-size="10.00">sequence_append_preset</text>
</a>
</g>
</g>
<!-- Node1&#45;&gt;Node7 -->
<g id="edge6_Node000001_Node000007" class="edge">
<title>Node1&#45;&gt;Node7</title>
<g id="a_edge6_Node000001_Node000007"><a xlink:title=" ">
<path fill="none" stroke="#63b8ff" d="M98.7,-76.51C119.62,-68.6 148.92,-57.83 175,-49.38 181.24,-47.35 187.82,-45.33 194.36,-43.39"/>
<polygon fill="#63b8ff" stroke="#63b8ff" points="195.17,-46.79 203.79,-40.63 193.21,-40.08 195.17,-46.79"/>
</a>
</g>
</g>
<!-- Node3 -->
<g id="Node000003" class="node">
<title>Node3</title>
<g id="a_Node000003"><a xlink:href="kest__files_8c.html#a8bcff3a826c8132661386cd8098594a2" target="_top" xlink:title=" ">
<polygon fill="white" stroke="#666666" points="471.75,-156.75 386,-156.75 386,-136 471.75,-136 471.75,-156.75"/>
<text xml:space="preserve" text-anchor="middle" x="428.88" y="-143.25" font-family="Helvetica,sans-Serif" font-size="10.00">fnames_agree</text>
</a>
</g>
</g>
<!-- Node2&#45;&gt;Node3 -->
<g id="edge2_Node000002_Node000003" class="edge">
<title>Node2&#45;&gt;Node3</title>
<g id="a_edge2_Node000002_Node000003"><a xlink:title=" ">
<path fill="none" stroke="#63b8ff" d="M317.45,-146.38C336.33,-146.38 356.43,-146.38 374.23,-146.38"/>
<polygon fill="#63b8ff" stroke="#63b8ff" points="374.05,-149.88 384.05,-146.38 374.05,-142.88 374.05,-149.88"/>
</a>
</g>
</g>
<!-- Node4 -->
<g id="Node000004" class="node">
<title>Node4</title>
<g id="a_Node000004"><a xlink:href="kest__tokenizer_8c.html#ae3e094675b7f6c398787acd25603e724" target="_top" xlink:title=" ">
<polygon fill="white" stroke="#666666" points="622.75,-156.75 540.75,-156.75 540.75,-136 622.75,-136 622.75,-156.75"/>
<text xml:space="preserve" text-anchor="middle" x="581.75" y="-143.25" font-family="Helvetica,sans-Serif" font-size="10.00">char_is_letter</text>
</a>
</g>
</g>
<!-- Node3&#45;&gt;Node4 -->
<g id="edge3_Node000003_Node000004" class="edge">
<title>Node3&#45;&gt;Node4</title>
<g id="a_edge3_Node000003_Node000004"><a xlink:title=" ">
<path fill="none" stroke="#63b8ff" d="M471.9,-146.38C489.66,-146.38 510.52,-146.38 529.2,-146.38"/>
<polygon fill="#63b8ff" stroke="#63b8ff" points="528.99,-149.88 538.99,-146.38 528.99,-142.88 528.99,-149.88"/>
</a>
</g>
</g>
<!-- Node8 -->
<g id="Node000008" class="node">
<title>Node8</title>
<g id="a_Node000008"><a xlink:href="kest__alloc_8c.html#a849755c5dc5b35e712ffcdb602e50fb4" target="_top" xlink:title=" ">
<polygon fill="white" stroke="#666666" points="461.25,-59.75 396.5,-59.75 396.5,-39 461.25,-39 461.25,-59.75"/>
<text xml:space="preserve" text-anchor="middle" x="428.88" y="-46.25" font-family="Helvetica,sans-Serif" font-size="10.00">kest_alloc</text>
</a>
</g>
</g>
<!-- Node7&#45;&gt;Node8 -->
<g id="edge7_Node000007_Node000008" class="edge">
<title>Node7&#45;&gt;Node8</title>
<g id="a_edge7_Node000007_Node000008"><a xlink:title=" ">
<path fill="none" stroke="#63b8ff" d="M316.16,-37.02C339.27,-39.58 364.36,-42.35 384.89,-44.62"/>
<polygon fill="#63b8ff" stroke="#63b8ff" points="384.26,-48.07 394.59,-45.69 385.03,-41.12 384.26,-48.07"/>
</a>
</g>
</g>
<!-- Node9 -->
<g id="Node000009" class="node">
<title>Node9</title>
<g id="a_Node000009"><a xlink:href="kest__file__task_8c.html#a7f1f6a897d2842e801c0452565bdc44c" target="_top" xlink:title=" ">
<polygon fill="white" stroke="#666666" points="504.75,-20.75 353,-20.75 353,0 504.75,0 504.75,-20.75"/>
<text xml:space="preserve" text-anchor="middle" x="428.88" y="-7.25" font-family="Helvetica,sans-Serif" font-size="10.00">kest_queue_sequence_save</text>
</a>
</g>
</g>
<!-- Node7&#45;&gt;Node9 -->
<g id="edge8_Node000007_Node000009" class="edge">
<title>Node7&#45;&gt;Node9</title>
<g id="a_edge8_Node000007_Node000009"><a xlink:title=" ">
<path fill="none" stroke="#63b8ff" d="M316.16,-22.11C324.38,-21.25 332.86,-20.36 341.29,-19.47"/>
<polygon fill="#63b8ff" stroke="#63b8ff" points="341.65,-22.95 351.23,-18.43 340.92,-15.99 341.65,-22.95"/>
</a>
</g>
</g>
</g>
</svg>
