<?xml version="1.0" encoding="UTF-8" standalone="no"?>
<!DOCTYPE svg PUBLIC "-//W3C//DTD SVG 1.1//EN"
 "http://www.w3.org/Graphics/SVG/1.1/DTD/svg11.dtd">
<!-- Generated by graphviz version 13.1.2 (20250808.2320)
 -->
<!-- Title: kest_expression_compute_range_rec Pages: 1 -->
<!--zoomable 440 -->

<svg id="main" version="1.1" xmlns="http://www.w3.org/2000/svg" xmlns:xlink="http://www.w3.org/1999/xlink" xml:space="preserve" onload="init(evt)">

<style type="text/css"><![CDATA[
.node, .edge {opacity: 0.7;}
.node.selected, .edge.selected {opacity: 1;}
.edge:hover path { stroke: red; }
.edge:hover polygon { stroke: red; fill: red; }
]]></style>

<defs>
  <circle id="rim" cx="0" cy="0" r="7"/>
  <circle id="rim2" cx="0" cy="0" r="3.5"/>
  <g id="zoomPlus">
    <use xlink:href="#rim" fill="#404040"><set attributeName="fill" to="#808080" begin="zoomplus.mouseover" end="zoomplus.mouseout"/></use>
    <path d="M-4,0h8M0,-4v8" fill="none" stroke="white" stroke-width="1.5" pointer-events="none"/>
  </g>
  <g id="zoomMin">
    <use xlink:href="#rim" fill="#404040"><set attributeName="fill" to="#808080" begin="zoomminus.mouseover" end="zoomminus.mouseout"/></use>
    <path d="M-4,0h8" fill="none" stroke="white" stroke-width="1.5" pointer-events="none"/>
  </g>
  <g id="arrowUp" transform="translate(30 24)">
    <use xlink:href="#rim"/>
    <path pointer-events="none" fill="none" stroke="white" stroke-width="1.5" d="M0,-3.0v7 M-2.5,-0.5L0,-3.0L2.5,-0.5"/>
  </g>
  <g id="arrowRight" transform="rotate(90) translate(36 -43)">
    <use xlink:href="#rim"/>
    <path pointer-events="none" fill="none" stroke="white" stroke-width="1.5" d="M0,-3.0v7 M-2.5,-0.5L0,-3.0L2.5,-0.5"/>
  </g>
  <g id="arrowDown" transform="rotate(180) translate(-30 -48)">
    <use xlink:href="#rim"/>
    <path pointer-events="none" fill="none" stroke="white" stroke-width="1.5" d="M0,-3.0v7 M-2.5,-0.5L0,-3.0L2.5,-0.5"/>
  </g>
  <g id="arrowLeft" transform="rotate(270) translate(-36 17)">
    <use xlink:href="#rim"/>
    <path pointer-events="none" fill="none" stroke="white" stroke-width="1.5" d="M0,-3.0v7 M-2.5,-0.5L0,-3.0L2.5,-0.5"/>
  </g>
  <g id="resetDef">
    <use xlink:href="#rim2" fill="#404040"><set attributeName="fill" to="#808080" begin="reset.mouseover" end="reset.mouseout"/></use>
  </g>
</defs>
<script type="application/ecmascript">
var viewWidth = 858;
var viewHeight = 440;
var sectionId = 'dynsection-55';
</script>
<script type="application/ecmascript" xlink:href="svg.min.js"/>
<svg id="graph" class="graph">
<g id="viewport">
<title>kest_expression_compute_range_rec</title>
<!-- Node1 -->
<g id="Node000001" class="node">
<title>Node1</title>
<g id="a_Node000001"><a xlink:title=" ">
<polygon fill="#999999" stroke="#666666" points="142.75,-214.12 0,-214.12 0,-180.62 142.75,-180.62 142.75,-214.12"/>
<text xml:space="preserve" text-anchor="start" x="8" y="-200.62" font-family="Helvetica,sans-Serif" font-size="10.00">kest_expression_compute</text>
<text xml:space="preserve" text-anchor="middle" x="71.38" y="-187.88" font-family="Helvetica,sans-Serif" font-size="10.00">_range_rec</text>
</a>
</g>
</g>
<!-- Node1&#45;&gt;Node1 -->
<g id="edge2_Node000001_Node000001" class="edge">
<title>Node1&#45;&gt;Node1</title>
<g id="a_edge2_Node000001_Node000001"><a xlink:title=" ">
<path fill="none" stroke="#63b8ff" d="M39.24,-214.54C33.78,-223.74 44.49,-232.12 71.38,-232.12 86.5,-232.12 96.5,-229.47 101.39,-225.51"/>
<polygon fill="#63b8ff" stroke="#63b8ff" points="104.76,-226.51 103.22,-216.03 97.89,-225.18 104.76,-226.51"/>
</a>
</g>
</g>
<!-- Node2 -->
<g id="Node000002" class="node">
<title>Node2</title>
<g id="a_Node000002"><a xlink:href="kest__expression_8c.html#a835e180e79c6b6d2e4377a528949d7a0" target="_top" xlink:title=" ">
<polygon fill="white" stroke="#666666" points="311.38,-431.75 188.88,-431.75 188.88,-411 311.38,-411 311.38,-431.75"/>
<text xml:space="preserve" text-anchor="middle" x="250.12" y="-418.25" font-family="Helvetica,sans-Serif" font-size="10.00">kest_expression_arity</text>
</a>
</g>
</g>
<!-- Node1&#45;&gt;Node2 -->
<g id="edge1_Node000001_Node000002" class="edge">
<title>Node1&#45;&gt;Node2</title>
<g id="a_edge1_Node000001_Node000002"><a xlink:title=" ">
<path fill="none" stroke="#63b8ff" d="M76.82,-214.58C87.62,-253 118.86,-346.38 178.75,-397.38 182.56,-400.62 186.82,-403.43 191.32,-405.86"/>
<polygon fill="#63b8ff" stroke="#63b8ff" points="189.55,-408.89 200.09,-409.97 192.52,-402.56 189.55,-408.89"/>
</a>
</g>
</g>
<!-- Node3 -->
<g id="Node000003" class="node">
<title>Node3</title>
<g id="a_Node000003"><a xlink:href="kest__expression_8c.html#a8df028c238f29a5c5e59bcff98e28157" target="_top" xlink:title=" ">
<polygon fill="white" stroke="#666666" points="321.5,-264.75 178.75,-264.75 178.75,-244 321.5,-244 321.5,-264.75"/>
<text xml:space="preserve" text-anchor="middle" x="250.12" y="-251.25" font-family="Helvetica,sans-Serif" font-size="10.00">kest_expression_evaluate</text>
</a>
</g>
</g>
<!-- Node1&#45;&gt;Node3 -->
<g id="edge3_Node000001_Node000003" class="edge">
<title>Node1&#45;&gt;Node3</title>
<g id="a_edge3_Node000001_Node000003"><a xlink:title=" ">
<path fill="none" stroke="#63b8ff" d="M125.41,-214.48C150.69,-222.63 180.59,-232.27 204.66,-240.04"/>
<polygon fill="#63b8ff" stroke="#63b8ff" points="203.59,-243.37 214.18,-243.11 205.74,-236.71 203.59,-243.37"/>
</a>
</g>
</g>
<!-- Node4 -->
<g id="Node000004" class="node">
<title>Node4</title>
<g id="a_Node000004"><a xlink:href="kest__expression_8c.html#aa4b7d57f1458bb40fc2d8fdab7c605fc" target="_top" xlink:title=" ">
<polygon fill="white" stroke="#666666" points="520.5,-265.75 357.5,-265.75 357.5,-245 520.5,-245 520.5,-265.75"/>
<text xml:space="preserve" text-anchor="middle" x="439" y="-252.25" font-family="Helvetica,sans-Serif" font-size="10.00">kest_expression_evaluate_rec</text>
</a>
</g>
</g>
<!-- Node1&#45;&gt;Node4 -->
<g id="edge13_Node000001_Node000004" class="edge">
<title>Node1&#45;&gt;Node4</title>
<g id="a_edge13_Node000001_Node000004"><a xlink:title=" ">
<path fill="none" stroke="#63b8ff" d="M88.92,-214.35C108.38,-232.99 142.65,-261.81 178.75,-273.38 250,-296.21 337.73,-281.91 390.69,-269"/>
<polygon fill="#63b8ff" stroke="#63b8ff" points="391.46,-272.42 400.3,-266.57 389.74,-265.63 391.46,-272.42"/>
</a>
</g>
</g>
<!-- Node6 -->
<g id="Node000006" class="node">
<title>Node6</title>
<g id="a_Node000006"><a xlink:href="kest__expression_8c.html#aadf2a6a074cb1ad7b45893704cbd71c3" target="_top" xlink:title=" ">
<polygon fill="#fff0f0" stroke="red" points="849.5,-310.12 739.75,-310.12 739.75,-276.62 849.5,-276.62 849.5,-310.12"/>
<text xml:space="preserve" text-anchor="start" x="747.75" y="-296.62" font-family="Helvetica,sans-Serif" font-size="10.00">kest_expression_to</text>
<text xml:space="preserve" text-anchor="middle" x="794.62" y="-283.88" font-family="Helvetica,sans-Serif" font-size="10.00">_string</text>
</a>
</g>
</g>
<!-- Node1&#45;&gt;Node6 -->
<g id="edge15_Node000001_Node000006" class="edge">
<title>Node1&#45;&gt;Node6</title>
<g id="a_edge15_Node000001_Node000006"><a xlink:title=" ">
<path fill="none" stroke="#63b8ff" d="M85.87,-214.32C104.36,-236.28 139.74,-274.05 178.75,-293.38 331.82,-369.21 386.41,-348.53 556.5,-364.38 621.66,-370.45 641.93,-385.85 703.75,-364.38 729.82,-355.32 754.04,-335.21 770.76,-318.7"/>
<polygon fill="#63b8ff" stroke="#63b8ff" points="773.25,-321.15 777.73,-311.55 768.24,-316.27 773.25,-321.15"/>
</a>
</g>
</g>
<!-- Node20 -->
<g id="Node000020" class="node">
<title>Node20</title>
<g id="a_Node000020"><a xlink:href="kest__expr__scope_8c.html#a8a0fbd22e0deccdaee632b2a95d4aee5" target="_top" xlink:title=" ">
<polygon fill="white" stroke="#666666" points="680.12,-226.75 580.12,-226.75 580.12,-206 680.12,-206 680.12,-226.75"/>
<text xml:space="preserve" text-anchor="middle" x="630.12" y="-213.25" font-family="Helvetica,sans-Serif" font-size="10.00">kest_scope_fetch</text>
</a>
</g>
</g>
<!-- Node1&#45;&gt;Node20 -->
<g id="edge19_Node000001_Node000020" class="edge">
<title>Node1&#45;&gt;Node20</title>
<g id="a_edge19_Node000001_Node000020"><a xlink:title=" ">
<path fill="none" stroke="#63b8ff" d="M143.17,-199.79C253.55,-203.56 464.73,-210.76 568.51,-214.31"/>
<polygon fill="#63b8ff" stroke="#63b8ff" points="568.09,-217.79 578.2,-214.64 568.33,-210.8 568.09,-217.79"/>
</a>
</g>
</g>
<!-- Node11 -->
<g id="Node000011" class="node">
<title>Node11</title>
<g id="a_Node000011"><a xlink:href="kest__expression_8c.html#a05276e5a18cc3b52dfc8a17bb101c832" target="_top" xlink:title=" ">
<polygon fill="white" stroke="#666666" points="674.12,-187.75 586.12,-187.75 586.12,-167 674.12,-167 674.12,-187.75"/>
<text xml:space="preserve" text-anchor="middle" x="630.12" y="-174.25" font-family="Helvetica,sans-Serif" font-size="10.00">max_depth_bp</text>
</a>
</g>
</g>
<!-- Node1&#45;&gt;Node11 -->
<g id="edge20_Node000001_Node000011" class="edge">
<title>Node1&#45;&gt;Node11</title>
<g id="a_edge20_Node000001_Node000011"><a xlink:title=" ">
<path fill="none" stroke="#63b8ff" d="M143.17,-194.83C255.69,-190.79 472.97,-182.98 574.44,-179.34"/>
<polygon fill="#63b8ff" stroke="#63b8ff" points="574.26,-182.85 584.12,-178.99 574.01,-175.85 574.26,-182.85"/>
</a>
</g>
</g>
<!-- Node21 -->
<g id="Node000021" class="node">
<title>Node21</title>
<g id="a_Node000021"><a xlink:href="kest__expression_8c.html#a9f7a466a9bc6d2622e7d36f2bec6df7e" target="_top" xlink:title=" ">
<polygon fill="white" stroke="#666666" points="307.62,-150.12 192.62,-150.12 192.62,-116.62 307.62,-116.62 307.62,-150.12"/>
<text xml:space="preserve" text-anchor="start" x="200.62" y="-136.62" font-family="Helvetica,sans-Serif" font-size="10.00">kest_expression_is</text>
<text xml:space="preserve" text-anchor="middle" x="250.12" y="-123.88" font-family="Helvetica,sans-Serif" font-size="10.00">_constant_reference</text>
</a>
</g>
</g>
<!-- Node1&#45;&gt;Node21 -->
<g id="edge14_Node000001_Node000021" class="edge">
<title>Node1&#45;&gt;Node21</title>
<g id="a_edge14_Node000001_Node000021"><a xlink:title=" ">
<path fill="none" stroke="#63b8ff" d="M119.74,-180.22C141.63,-172.3 167.84,-162.81 190.92,-154.45"/>
<polygon fill="#63b8ff" stroke="#63b8ff" points="191.99,-157.78 200.21,-151.09 189.61,-151.2 191.99,-157.78"/>
</a>
</g>
</g>
<!-- Node22 -->
<g id="Node000022" class="node">
<title>Node22</title>
<g id="a_Node000022"><a xlink:href="kest__expression_8c.html#ae162d4eb0d35fa2b80788054a533387e" target="_top" xlink:title=" ">
<polygon fill="white" stroke="#666666" points="298.25,-98.75 202,-98.75 202,-78 298.25,-78 298.25,-98.75"/>
<text xml:space="preserve" text-anchor="middle" x="250.12" y="-85.25" font-family="Helvetica,sans-Serif" font-size="10.00">kest_interval_ab</text>
</a>
</g>
</g>
<!-- Node1&#45;&gt;Node22 -->
<g id="edge16_Node000001_Node000022" class="edge">
<title>Node1&#45;&gt;Node22</title>
<g id="a_edge16_Node000001_Node000022"><a xlink:title=" ">
<path fill="none" stroke="#63b8ff" d="M87.99,-180.19C107.37,-159.89 142.33,-126.47 178.75,-107.38 182.67,-105.32 186.84,-103.47 191.11,-101.81"/>
<polygon fill="#63b8ff" stroke="#63b8ff" points="192.13,-105.16 200.42,-98.56 189.83,-98.55 192.13,-105.16"/>
</a>
</g>
</g>
<!-- Node23 -->
<g id="Node000023" class="node">
<title>Node23</title>
<g id="a_Node000023"><a xlink:href="kest__expression_8c.html#a8831b010403eeba4bddedca70a446ce1" target="_top" xlink:title=" ">
<polygon fill="white" stroke="#666666" points="313.25,-59.75 187,-59.75 187,-39 313.25,-39 313.25,-59.75"/>
<text xml:space="preserve" text-anchor="middle" x="250.12" y="-46.25" font-family="Helvetica,sans-Serif" font-size="10.00">kest_interval_real_line</text>
</a>
</g>
</g>
<!-- Node1&#45;&gt;Node23 -->
<g id="edge17_Node000001_Node000023" class="edge">
<title>Node1&#45;&gt;Node23</title>
<g id="a_edge17_Node000001_Node000023"><a xlink:title=" ">
<path fill="none" stroke="#63b8ff" d="M81.78,-180.48C97.96,-152.98 133.71,-98.7 178.75,-69.38 181.31,-67.71 184,-66.18 186.79,-64.78"/>
<polygon fill="#63b8ff" stroke="#63b8ff" points="188.05,-68.05 195.81,-60.84 185.24,-61.64 188.05,-68.05"/>
</a>
</g>
</g>
<!-- Node24 -->
<g id="Node000024" class="node">
<title>Node24</title>
<g id="a_Node000024"><a xlink:href="kest__expression_8c.html#ade33a48e7785ee7d93728cdf56474be7" target="_top" xlink:title=" ">
<polygon fill="white" stroke="#666666" points="314.75,-20.75 185.5,-20.75 185.5,0 314.75,0 314.75,-20.75"/>
<text xml:space="preserve" text-anchor="middle" x="250.12" y="-7.25" font-family="Helvetica,sans-Serif" font-size="10.00">kest_interval_singleton</text>
</a>
</g>
</g>
<!-- Node1&#45;&gt;Node24 -->
<g id="edge18_Node000001_Node000024" class="edge">
<title>Node1&#45;&gt;Node24</title>
<g id="a_edge18_Node000001_Node000024"><a xlink:title=" ">
<path fill="none" stroke="#63b8ff" d="M78.46,-180.27C91.41,-146.35 124.99,-70.42 178.75,-30.38 180.78,-28.86 182.92,-27.47 185.13,-26.18"/>
<polygon fill="#63b8ff" stroke="#63b8ff" points="186.51,-29.4 193.93,-21.83 183.41,-23.12 186.51,-29.4"/>
</a>
</g>
</g>
<!-- Node3&#45;&gt;Node4 -->
<g id="edge4_Node000003_Node000004" class="edge">
<title>Node3&#45;&gt;Node4</title>
<g id="a_edge4_Node000003_Node000004"><a xlink:title=" ">
<path fill="none" stroke="#63b8ff" d="M321.77,-254.75C329.64,-254.8 337.74,-254.84 345.83,-254.88"/>
<polygon fill="#63b8ff" stroke="#63b8ff" points="345.69,-258.38 355.71,-254.93 345.73,-251.38 345.69,-258.38"/>
</a>
</g>
</g>
<!-- Node4&#45;&gt;Node4 -->
<g id="edge6_Node000004_Node000004" class="edge">
<title>Node4&#45;&gt;Node4</title>
<g id="a_edge6_Node000004_Node000004"><a xlink:title=" ">
<path fill="none" stroke="#63b8ff" d="M408.57,-266.15C396.39,-274.81 406.54,-283.75 439,-283.75 456.75,-283.75 467.83,-281.08 472.24,-277.24"/>
<polygon fill="#63b8ff" stroke="#63b8ff" points="475.65,-276.45 469.8,-267.61 468.86,-278.17 475.65,-276.45"/>
</a>
</g>
</g>
<!-- Node5 -->
<g id="Node000005" class="node">
<title>Node5</title>
<g id="a_Node000005"><a xlink:href="kest__error__codes_8c.html#a0f4c77127bc0b77264a21104979c576a" target="_top" xlink:title=" ">
<polygon fill="white" stroke="#666666" points="684.25,-355.12 576,-355.12 576,-321.62 684.25,-321.62 684.25,-355.12"/>
<text xml:space="preserve" text-anchor="start" x="584" y="-341.62" font-family="Helvetica,sans-Serif" font-size="10.00">kest_error_code_to</text>
<text xml:space="preserve" text-anchor="middle" x="630.12" y="-328.88" font-family="Helvetica,sans-Serif" font-size="10.00">_string</text>
</a>
</g>
</g>
<!-- Node4&#45;&gt;Node5 -->
<g id="edge5_Node000004_Node000005" class="edge">
<title>Node4&#45;&gt;Node5</title>
<g id="a_edge5_Node000004_Node000005"><a xlink:title=" ">
<path fill="none" stroke="#63b8ff" d="M464.05,-266.25C487.57,-276.85 524.43,-293.37 556.5,-307.38 563.51,-310.43 570.91,-313.63 578.2,-316.76"/>
<polygon fill="#63b8ff" stroke="#63b8ff" points="576.78,-319.96 587.35,-320.68 579.53,-313.53 576.78,-319.96"/>
</a>
</g>
</g>
<!-- Node4&#45;&gt;Node6 -->
<g id="edge7_Node000004_Node000006" class="edge">
<title>Node4&#45;&gt;Node6</title>
<g id="a_edge7_Node000004_Node000006"><a xlink:title=" ">
<path fill="none" stroke="#63b8ff" d="M500.63,-266.23C518.58,-269.18 538.29,-272.16 556.5,-274.38 614.26,-281.39 680.26,-286.44 727.94,-289.56"/>
<polygon fill="#63b8ff" stroke="#63b8ff" points="727.63,-293.05 737.84,-290.19 728.08,-286.06 727.63,-293.05"/>
</a>
</g>
</g>
<!-- Node12 -->
<g id="Node000012" class="node">
<title>Node12</title>
<g id="a_Node000012"><a xlink:href="kest__expr__scope_8c.html#ab4b2ce40beae39f7dc02743730a37ec7" target="_top" xlink:title=" ">
<polygon fill="#fff0f0" stroke="red" points="703.75,-265.75 556.5,-265.75 556.5,-245 703.75,-245 703.75,-265.75"/>
<text xml:space="preserve" text-anchor="middle" x="630.12" y="-252.25" font-family="Helvetica,sans-Serif" font-size="10.00">kest_scope_entry_eval_rec</text>
</a>
</g>
</g>
<!-- Node4&#45;&gt;Node12 -->
<g id="edge8_Node000004_Node000012" class="edge">
<title>Node4&#45;&gt;Node12</title>
<g id="a_edge8_Node000004_Node000012"><a xlink:title=" ">
<path fill="none" stroke="#63b8ff" d="M520.75,-248.69C528.74,-248.61 536.86,-248.6 544.87,-248.66"/>
<polygon fill="#63b8ff" stroke="#63b8ff" points="544.57,-252.16 554.61,-248.77 544.64,-245.16 544.57,-252.16"/>
</a>
</g>
</g>
<!-- Node4&#45;&gt;Node20 -->
<g id="edge11_Node000004_Node000020" class="edge">
<title>Node4&#45;&gt;Node20</title>
<g id="a_edge11_Node000004_Node000020"><a xlink:title=" ">
<path fill="none" stroke="#63b8ff" d="M492.68,-244.51C516.28,-239.64 544.24,-233.88 568.69,-228.84"/>
<polygon fill="#63b8ff" stroke="#63b8ff" points="569.08,-232.33 578.17,-226.88 567.67,-225.48 569.08,-232.33"/>
</a>
</g>
</g>
<!-- Node4&#45;&gt;Node11 -->
<g id="edge12_Node000004_Node000011" class="edge">
<title>Node4&#45;&gt;Node11</title>
<g id="a_edge12_Node000004_Node000011"><a xlink:title=" ">
<path fill="none" stroke="#63b8ff" d="M458.86,-244.56C481.49,-231.92 520.84,-211.02 556.5,-197.38 562.45,-195.1 568.76,-192.97 575.08,-191"/>
<polygon fill="#63b8ff" stroke="#63b8ff" points="575.63,-194.49 584.22,-188.3 573.64,-187.78 575.63,-194.49"/>
</a>
</g>
</g>
<!-- Node12&#45;&gt;Node4 -->
<g id="edge9_Node000012_Node000004" class="edge">
<title>Node12&#45;&gt;Node4</title>
<g id="a_edge9_Node000012_Node000004"><a xlink:title=" ">
<path fill="none" stroke="#63b8ff" d="M556.12,-261.97C548.25,-262.08 540.17,-262.14 532.11,-262.12"/>
<polygon fill="#63b8ff" stroke="#63b8ff" points="532.29,-258.62 522.27,-262.07 532.25,-265.62 532.29,-258.62"/>
</a>
</g>
</g>
<!-- Node12&#45;&gt;Node6 -->
<g id="edge10_Node000012_Node000006" class="edge">
<title>Node12&#45;&gt;Node6</title>
<g id="a_edge10_Node000012_Node000006"><a xlink:title=" ">
<path fill="none" stroke="#63b8ff" d="M677.26,-266.16C693.11,-269.87 711.18,-274.1 728.27,-278.09"/>
<polygon fill="#63b8ff" stroke="#63b8ff" points="727.32,-281.46 737.85,-280.33 728.91,-274.65 727.32,-281.46"/>
</a>
</g>
</g>
</g>
</svg>

<g id="navigator" transform="translate(0 0)" fill="#404254">
  <rect fill="#f2f5e9" fill-opacity="0.5" stroke="#606060" stroke-width=".5" x="0" y="0" width="60" height="60"/>
  <use id="zoomplus" xlink:href="#zoomPlus" x="17" y="9" onmousedown="handleZoom(evt,'in')"/>
  <use id="zoomminus" xlink:href="#zoomMin" x="42" y="9" onmousedown="handleZoom(evt,'out')"/>
  <use id="reset" xlink:href="#resetDef" x="30" y="36" onmousedown="handleReset()"/>
   <use id="arrowup" xlink:href="#arrowUp" x="0" y="0" onmousedown="handlePan(0,-1)"/>
  <use id="arrowright" xlink:href="#arrowRight" x="0" y="0" onmousedown="handlePan(1,0)"/>
  <use id="arrowdown" xlink:href="#arrowDown" x="0" y="0" onmousedown="handlePan(0,1)"/>
  <use id="arrowleft" xlink:href="#arrowLeft" x="0" y="0" onmousedown="handlePan(-1,0)"/>
</g>
<svg viewBox="0 0 15 15" width="100%" height="30px" preserveAspectRatio="xMaxYMin meet">
 <g id="arrow_out" transform="scale(0.3 0.3)">
  <a xlink:href="kest__expression_8c_a146f5c5c8ecc02be0e5e695cbbc10f10_cgraph_org.svg" target="_base">
   <rect id="button" ry="5" rx="5" y="6" x="6" height="38" width="38"
        fill="#f2f5e9" fill-opacity="0.5" stroke="#606060" stroke-width="1.0"/>
   <path id="arrow"
     d="M 11.500037,31.436501 C 11.940474,20.09759 22.043105,11.32322 32.158766,21.979434 L 37.068811,17.246167 C 37.068811,17.246167 37.088388,32 37.088388,32 L 22.160133,31.978069 C 22.160133,31.978069 26.997745,27.140456 26.997745,27.140456 C 18.528582,18.264221 13.291696,25.230495 11.500037,31.436501 z"
     style="fill:#404040;"/>
  </a>
 </g>
</svg>

<style type='text/css'>
<![CDATA[
[data-mouse-over-selected='false'] { opacity: 0.7; }
[data-mouse-over-selected='true']  { opacity: 1.0; }
]]>
</style>
<script type="application/ecmascript"><![CDATA[
document.addEventListener('DOMContentLoaded', (event) => {
  highlightEdges();
  highlightAdjacentNodes();
});
]]></script>
</svg>
