<?xml version="1.0" encoding="UTF-8" standalone="no"?>
<!DOCTYPE svg PUBLIC "-//W3C//DTD SVG 1.1//EN"
 "http://www.w3.org/Graphics/SVG/1.1/DTD/svg11.dtd">
<!-- Generated by graphviz version 13.1.2 (20250808.2320)
 -->
<!-- Title: init_setting_str Pages: 1 -->
<svg width="614pt" height="171pt"
 viewBox="0.00 0.00 614.00 171.00" xmlns="http://www.w3.org/2000/svg" xmlns:xlink="http://www.w3.org/1999/xlink">
<g id="graph0" class="graph" transform="scale(1 1) rotate(0) translate(4 167.12)">
<title>init_setting_str</title>
<!-- Node1 -->
<g id="Node000001" class="node">
<title>Node1</title>
<g id="a_Node000001"><a xlink:title=" ">
<polygon fill="#999999" stroke="#666666" points="606.25,-104.12 517.5,-104.12 517.5,-83.38 606.25,-83.38 606.25,-104.12"/>
<text xml:space="preserve" text-anchor="middle" x="561.88" y="-90.62" font-family="Helvetica,sans-Serif" font-size="10.00">init_setting_str</text>
</a>
</g>
</g>
<!-- Node2 -->
<g id="Node000002" class="node">
<title>Node2</title>
<g id="a_Node000002"><a xlink:href="kest__parameter_8c.html#a0557624c9a1b47f1ae42049322650a6e" target="_top" xlink:title=" ">
<polygon fill="white" stroke="#666666" points="464.62,-124.12 383.38,-124.12 383.38,-103.38 464.62,-103.38 464.62,-124.12"/>
<text xml:space="preserve" text-anchor="middle" x="424" y="-110.62" font-family="Helvetica,sans-Serif" font-size="10.00">clone_setting</text>
</a>
</g>
</g>
<!-- Node1&#45;&gt;Node2 -->
<g id="edge1_Node000001_Node000002" class="edge">
<title>Node1&#45;&gt;Node2</title>
<g id="a_edge1_Node000001_Node000002"><a xlink:title=" ">
<path fill="none" stroke="#63b8ff" d="M505.87,-101.85C492.18,-103.86 477.78,-105.98 464.97,-107.87"/>
<polygon fill="#63b8ff" stroke="#63b8ff" points="506.25,-105.33 515.64,-100.41 505.23,-98.4 506.25,-105.33"/>
</a>
</g>
</g>
<!-- Node36 -->
<g id="Node000036" class="node">
<title>Node36</title>
<g id="a_Node000036"><a xlink:href="kest__effect_8c.html#abf12c30daf8ca1ac113eca5f22723cf7" target="_top" xlink:title=" ">
<polygon fill="white" stroke="#666666" points="477.38,-163.12 370.62,-163.12 370.62,-142.38 477.38,-142.38 477.38,-163.12"/>
<text xml:space="preserve" text-anchor="middle" x="424" y="-149.62" font-family="Helvetica,sans-Serif" font-size="10.00">effect_add_setting</text>
</a>
</g>
</g>
<!-- Node1&#45;&gt;Node36 -->
<g id="edge7_Node000001_Node000036" class="edge">
<title>Node1&#45;&gt;Node36</title>
<g id="a_edge7_Node000001_Node000036"><a xlink:title=" ">
<path fill="none" stroke="#63b8ff" d="M530.61,-109.65C515.96,-117.08 498.01,-125.8 481.5,-132.75 473.83,-135.98 465.43,-139.14 457.52,-141.97"/>
<polygon fill="#63b8ff" stroke="#63b8ff" points="531.97,-112.89 539.27,-105.21 528.78,-106.66 531.97,-112.89"/>
</a>
</g>
</g>
<!-- Node37 -->
<g id="Node000037" class="node">
<title>Node37</title>
<g id="a_Node000037"><a xlink:href="kest__dict__extract_8c.html#a257515513f657f6132b3b0e9a86c537c" target="_top" xlink:title=" ">
<polygon fill="white" stroke="#666666" points="481.5,-85.12 366.5,-85.12 366.5,-64.38 481.5,-64.38 481.5,-85.12"/>
<text xml:space="preserve" text-anchor="middle" x="424" y="-71.62" font-family="Helvetica,sans-Serif" font-size="10.00">kest_extract_setting</text>
</a>
</g>
</g>
<!-- Node1&#45;&gt;Node37 -->
<g id="edge9_Node000001_Node000037" class="edge">
<title>Node1&#45;&gt;Node37</title>
<g id="a_edge9_Node000001_Node000037"><a xlink:title=" ">
<path fill="none" stroke="#63b8ff" d="M505.98,-86.07C497.94,-84.95 489.64,-83.79 481.57,-82.66"/>
<polygon fill="#63b8ff" stroke="#63b8ff" points="505.25,-89.51 515.64,-87.42 506.22,-82.57 505.25,-89.51"/>
</a>
</g>
</g>
<!-- Node39 -->
<g id="Node000039" class="node">
<title>Node39</title>
<g id="a_Node000039"><a xlink:href="kest__dict__extract_8c.html#a0225c4392c944b41b1db66787be35243" target="_top" xlink:title=" ">
<polygon fill="white" stroke="#666666" points="481.5,-46.5 366.5,-46.5 366.5,-13 481.5,-13 481.5,-46.5"/>
<text xml:space="preserve" text-anchor="start" x="374.5" y="-33" font-family="Helvetica,sans-Serif" font-size="10.00">kest_extract_setting</text>
<text xml:space="preserve" text-anchor="middle" x="424" y="-20.25" font-family="Helvetica,sans-Serif" font-size="10.00">_from_dict</text>
</a>
</g>
</g>
<!-- Node1&#45;&gt;Node39 -->
<g id="edge12_Node000001_Node000039" class="edge">
<title>Node1&#45;&gt;Node39</title>
<g id="a_edge12_Node000001_Node000039"><a xlink:title=" ">
<path fill="none" stroke="#63b8ff" d="M528.32,-78.03C513.99,-71.14 496.93,-62.99 481.5,-55.75 475.34,-52.86 468.79,-49.82 462.42,-46.87"/>
<polygon fill="#63b8ff" stroke="#63b8ff" points="526.79,-81.17 537.31,-82.36 529.82,-74.87 526.79,-81.17"/>
</a>
</g>
</g>
<!-- Node3 -->
<g id="Node000003" class="node">
<title>Node3</title>
<g id="a_Node000003"><a xlink:href="kest__effect_8c.html#a935977843051ad81db1a153f2956658e" target="_top" xlink:title=" ">
<polygon fill="white" stroke="#666666" points="299,-163.12 223,-163.12 223,-142.38 299,-142.38 299,-163.12"/>
<text xml:space="preserve" text-anchor="middle" x="261" y="-149.62" font-family="Helvetica,sans-Serif" font-size="10.00">clone_effect</text>
</a>
</g>
</g>
<!-- Node2&#45;&gt;Node3 -->
<g id="edge2_Node000002_Node000003" class="edge">
<title>Node2&#45;&gt;Node3</title>
<g id="a_edge2_Node000002_Node000003"><a xlink:title=" ">
<path fill="none" stroke="#63b8ff" d="M372.32,-126.03C348.7,-131.75 321.1,-138.44 299.41,-143.69"/>
<polygon fill="#63b8ff" stroke="#63b8ff" points="372.84,-129.5 381.73,-123.75 371.19,-122.7 372.84,-129.5"/>
</a>
</g>
</g>
<!-- Node6 -->
<g id="Node000006" class="node">
<title>Node6</title>
<g id="a_Node000006"><a xlink:href="kest__parameter_8c.html#a46ef8692282a2cacfa7d46e61d77d82a" target="_top" xlink:title=" ">
<polygon fill="white" stroke="#666666" points="330.5,-124.12 191.5,-124.12 191.5,-103.38 330.5,-103.38 330.5,-124.12"/>
<text xml:space="preserve" text-anchor="middle" x="261" y="-110.62" font-family="Helvetica,sans-Serif" font-size="10.00">kest_setting_make_clone</text>
</a>
</g>
</g>
<!-- Node2&#45;&gt;Node6 -->
<g id="edge4_Node000002_Node000006" class="edge">
<title>Node2&#45;&gt;Node6</title>
<g id="a_edge4_Node000002_Node000006"><a xlink:title=" ">
<path fill="none" stroke="#63b8ff" d="M372.05,-113.75C358.95,-113.75 344.64,-113.75 330.8,-113.75"/>
<polygon fill="#63b8ff" stroke="#63b8ff" points="371.69,-117.25 381.69,-113.75 371.69,-110.25 371.69,-117.25"/>
</a>
</g>
</g>
<!-- Node7 -->
<g id="Node000007" class="node">
<title>Node7</title>
<g id="a_Node000007"><a xlink:href="kest__parameter_8c.html#a93c254fa0bc2933e67e92e4b2acb2aac" target="_top" xlink:title=" ">
<polygon fill="white" stroke="#666666" points="330.5,-85.5 191.5,-85.5 191.5,-52 330.5,-52 330.5,-85.5"/>
<text xml:space="preserve" text-anchor="start" x="199.5" y="-72" font-family="Helvetica,sans-Serif" font-size="10.00">kest_setting_make_clone</text>
<text xml:space="preserve" text-anchor="middle" x="261" y="-59.25" font-family="Helvetica,sans-Serif" font-size="10.00">_for_effect</text>
</a>
</g>
</g>
<!-- Node2&#45;&gt;Node7 -->
<g id="edge5_Node000002_Node000007" class="edge">
<title>Node2&#45;&gt;Node7</title>
<g id="a_edge5_Node000002_Node000007"><a xlink:title=" ">
<path fill="none" stroke="#63b8ff" d="M373.8,-100C357.93,-95.56 340.15,-90.59 323.51,-85.94"/>
<polygon fill="#63b8ff" stroke="#63b8ff" points="372.41,-103.24 382.98,-102.56 374.29,-96.5 372.41,-103.24"/>
</a>
</g>
</g>
<!-- Node4 -->
<g id="Node000004" class="node">
<title>Node4</title>
<g id="a_Node000004"><a xlink:href="kest__pipeline_8c.html#af22e3efe71ee44cc8dcf5a46af1c05ec" target="_top" xlink:title=" ">
<polygon fill="#fff0f0" stroke="red" points="121,-163.12 34.5,-163.12 34.5,-142.38 121,-142.38 121,-163.12"/>
<text xml:space="preserve" text-anchor="middle" x="77.75" y="-149.62" font-family="Helvetica,sans-Serif" font-size="10.00">clone_pipeline</text>
</a>
</g>
</g>
<!-- Node3&#45;&gt;Node4 -->
<g id="edge3_Node000003_Node000004" class="edge">
<title>Node3&#45;&gt;Node4</title>
<g id="a_edge3_Node000003_Node000004"><a xlink:title=" ">
<path fill="none" stroke="#63b8ff" d="M211.68,-152.75C183.51,-152.75 148.32,-152.75 121.22,-152.75"/>
<polygon fill="#63b8ff" stroke="#63b8ff" points="211.37,-156.25 221.37,-152.75 211.37,-149.25 211.37,-156.25"/>
</a>
</g>
</g>
<!-- Node8 -->
<g id="Node000008" class="node">
<title>Node8</title>
<g id="a_Node000008"><a xlink:href="kest__effect_8c.html#a85b25e44e2629962673634f965ffe304" target="_top" xlink:title=" ">
<polygon fill="#fff0f0" stroke="red" points="155.5,-79.12 0,-79.12 0,-58.38 155.5,-58.38 155.5,-79.12"/>
<text xml:space="preserve" text-anchor="middle" x="77.75" y="-65.62" font-family="Helvetica,sans-Serif" font-size="10.00">init_effect_from_effect_desc</text>
</a>
</g>
</g>
<!-- Node7&#45;&gt;Node8 -->
<g id="edge6_Node000007_Node000008" class="edge">
<title>Node7&#45;&gt;Node8</title>
<g id="a_edge6_Node000007_Node000008"><a xlink:title=" ">
<path fill="none" stroke="#63b8ff" d="M179.75,-68.75C171.85,-68.75 163.84,-68.75 155.97,-68.75"/>
<polygon fill="#63b8ff" stroke="#63b8ff" points="179.71,-72.25 189.71,-68.75 179.71,-65.25 179.71,-72.25"/>
</a>
</g>
</g>
<!-- Node36&#45;&gt;Node3 -->
<g id="edge8_Node000036_Node000003" class="edge">
<title>Node36&#45;&gt;Node3</title>
<g id="a_edge8_Node000036_Node000003"><a xlink:title=" ">
<path fill="none" stroke="#63b8ff" d="M358.9,-152.75C338.67,-152.75 316.99,-152.75 299.28,-152.75"/>
<polygon fill="#63b8ff" stroke="#63b8ff" points="358.77,-156.25 368.77,-152.75 358.77,-149.25 358.77,-156.25"/>
</a>
</g>
</g>
<!-- Node38 -->
<g id="Node000038" class="node">
<title>Node38</title>
<g id="a_Node000038"><a xlink:href="kest__eff__section_8c.html#ac86840256c51c90c1c1066da9b88e7af" target="_top" xlink:title=" ">
<polygon fill="white" stroke="#666666" points="321.5,-33.5 200.5,-33.5 200.5,0 321.5,0 321.5,-33.5"/>
<text xml:space="preserve" text-anchor="start" x="208.5" y="-20" font-family="Helvetica,sans-Serif" font-size="10.00">kest_settings_section</text>
<text xml:space="preserve" text-anchor="middle" x="261" y="-7.25" font-family="Helvetica,sans-Serif" font-size="10.00">_extract</text>
</a>
</g>
</g>
<!-- Node37&#45;&gt;Node38 -->
<g id="edge10_Node000037_Node000038" class="edge">
<title>Node37&#45;&gt;Node38</title>
<g id="a_edge10_Node000037_Node000038"><a xlink:title=" ">
<path fill="none" stroke="#63b8ff" d="M379.35,-60.23C375,-58.74 370.66,-57.23 366.5,-55.75 346.97,-48.82 325.51,-40.88 307.15,-33.97"/>
<polygon fill="#63b8ff" stroke="#63b8ff" points="378.05,-63.48 388.64,-63.39 380.3,-56.86 378.05,-63.48"/>
</a>
</g>
</g>
<!-- Node26 -->
<g id="Node000026" class="node">
<title>Node26</title>
<g id="a_Node000026"><a xlink:href="kest__eff__parser_8c.html#a73ef6962d1925857ec3e4b12d1aad834" target="_top" xlink:title=" ">
<polygon fill="#fff0f0" stroke="red" points="130.75,-27.12 24.75,-27.12 24.75,-6.38 130.75,-6.38 130.75,-27.12"/>
<text xml:space="preserve" text-anchor="middle" x="77.75" y="-13.62" font-family="Helvetica,sans-Serif" font-size="10.00">kest_parse_tokens</text>
</a>
</g>
</g>
<!-- Node38&#45;&gt;Node26 -->
<g id="edge11_Node000038_Node000026" class="edge">
<title>Node38&#45;&gt;Node26</title>
<g id="a_edge11_Node000038_Node000026"><a xlink:title=" ">
<path fill="none" stroke="#63b8ff" d="M188.72,-16.75C169.55,-16.75 149.17,-16.75 131.23,-16.75"/>
<polygon fill="#63b8ff" stroke="#63b8ff" points="188.64,-20.25 198.64,-16.75 188.64,-13.25 188.64,-20.25"/>
</a>
</g>
</g>
</g>
</svg>
