<?xml version="1.0" encoding="UTF-8" standalone="no"?>
<!DOCTYPE svg PUBLIC "-//W3C//DTD SVG 1.1//EN"
 "http://www.w3.org/Graphics/SVG/1.1/DTD/svg11.dtd">
<!-- Generated by graphviz version 13.1.2 (20250808.2320)
 -->
<!-- Title: kest_extract_setting Pages: 1 -->
<svg width="830pt" height="379pt"
 viewBox="0.00 0.00 830.00 379.00" xmlns="http://www.w3.org/2000/svg" xmlns:xlink="http://www.w3.org/1999/xlink">
<g id="graph0" class="graph" transform="scale(1 1) rotate(0) translate(4 375.34)">
<title>kest_extract_setting</title>
<!-- Node1 -->
<g id="Node000001" class="node">
<title>Node1</title>
<g id="a_Node000001"><a xlink:title=" ">
<polygon fill="#999999" stroke="#666666" points="115,-145.34 0,-145.34 0,-124.59 115,-124.59 115,-145.34"/>
<text xml:space="preserve" text-anchor="middle" x="57.5" y="-131.84" font-family="Helvetica,sans-Serif" font-size="10.00">kest_extract_setting</text>
</a>
</g>
</g>
<!-- Node2 -->
<g id="Node000002" class="node">
<title>Node2</title>
<g id="a_Node000002"><a xlink:href="kest__parameter_8c.html#a7c270a293ab879d0d3e757625c7c7dda" target="_top" xlink:title=" ">
<polygon fill="white" stroke="#666666" points="266.75,-316.34 178,-316.34 178,-295.59 266.75,-295.59 266.75,-316.34"/>
<text xml:space="preserve" text-anchor="middle" x="222.38" y="-302.84" font-family="Helvetica,sans-Serif" font-size="10.00">init_setting_str</text>
</a>
</g>
</g>
<!-- Node1&#45;&gt;Node2 -->
<g id="edge1_Node000001_Node000002" class="edge">
<title>Node1&#45;&gt;Node2</title>
<g id="a_edge1_Node000001_Node000002"><a xlink:title=" ">
<path fill="none" stroke="#63b8ff" d="M62.99,-145.47C74.28,-170.77 106.19,-235.83 151,-273.97 158.8,-280.61 168.2,-286.13 177.55,-290.61"/>
<polygon fill="#63b8ff" stroke="#63b8ff" points="176.06,-293.78 186.62,-294.63 178.89,-287.38 176.06,-293.78"/>
</a>
</g>
</g>
<!-- Node6 -->
<g id="Node000006" class="node">
<title>Node6</title>
<g id="a_Node000006"><a xlink:href="kest__alloc_8c.html#a849755c5dc5b35e712ffcdb602e50fb4" target="_top" xlink:title=" ">
<polygon fill="white" stroke="#666666" points="443.62,-65.34 378.88,-65.34 378.88,-44.59 443.62,-44.59 443.62,-65.34"/>
<text xml:space="preserve" text-anchor="middle" x="411.25" y="-51.84" font-family="Helvetica,sans-Serif" font-size="10.00">kest_alloc</text>
</a>
</g>
</g>
<!-- Node1&#45;&gt;Node6 -->
<g id="edge4_Node000001_Node000006" class="edge">
<title>Node1&#45;&gt;Node6</title>
<g id="a_edge4_Node000001_Node000006"><a xlink:title=" ">
<path fill="none" stroke="#63b8ff" d="M62.77,-124.42C73.38,-99.86 103.52,-39.2 151,-15.97 226.8,21.12 328.78,-15.97 379.27,-39.24"/>
<polygon fill="#63b8ff" stroke="#63b8ff" points="377.61,-42.33 388.15,-43.46 380.62,-36.01 377.61,-42.33"/>
</a>
</g>
</g>
<!-- Node7 -->
<g id="Node000007" class="node">
<title>Node7</title>
<g id="a_Node000007"><a xlink:href="kest__dictionary_8c.html#ac279369f5a4c3b4a0bc0625041f410f2" target="_top" xlink:title=" ">
<polygon fill="white" stroke="#666666" points="276.88,-226.72 167.88,-226.72 167.88,-193.22 276.88,-193.22 276.88,-226.72"/>
<text xml:space="preserve" text-anchor="start" x="175.88" y="-213.22" font-family="Helvetica,sans-Serif" font-size="10.00">kest_eff_entry_dict</text>
<text xml:space="preserve" text-anchor="middle" x="222.38" y="-200.47" font-family="Helvetica,sans-Serif" font-size="10.00">_count</text>
</a>
</g>
</g>
<!-- Node1&#45;&gt;Node7 -->
<g id="edge5_Node000001_Node000007" class="edge">
<title>Node1&#45;&gt;Node7</title>
<g id="a_edge5_Node000001_Node000007"><a xlink:title=" ">
<path fill="none" stroke="#63b8ff" d="M76.92,-145.66C95.33,-156.13 124.62,-172.17 151,-183.97 154.49,-185.53 158.11,-187.08 161.78,-188.59"/>
<polygon fill="#63b8ff" stroke="#63b8ff" points="160.21,-191.73 170.79,-192.19 162.81,-185.23 160.21,-191.73"/>
</a>
</g>
</g>
<!-- Node8 -->
<g id="Node000008" class="node">
<title>Node8</title>
<g id="a_Node000008"><a xlink:href="kest__dictionary_8c.html#a25171775543290a8e7a5ef33d3b9c3d3" target="_top" xlink:title=" ">
<polygon fill="white" stroke="#666666" points="276.88,-174.72 167.88,-174.72 167.88,-141.22 276.88,-141.22 276.88,-174.72"/>
<text xml:space="preserve" text-anchor="start" x="175.88" y="-161.22" font-family="Helvetica,sans-Serif" font-size="10.00">kest_eff_entry_dict</text>
<text xml:space="preserve" text-anchor="middle" x="222.38" y="-148.47" font-family="Helvetica,sans-Serif" font-size="10.00">_index</text>
</a>
</g>
</g>
<!-- Node1&#45;&gt;Node8 -->
<g id="edge6_Node000001_Node000008" class="edge">
<title>Node1&#45;&gt;Node8</title>
<g id="a_edge6_Node000001_Node000008"><a xlink:title=" ">
<path fill="none" stroke="#63b8ff" d="M115.47,-143.01C128.65,-144.88 142.78,-146.87 156.29,-148.78"/>
<polygon fill="#63b8ff" stroke="#63b8ff" points="155.56,-152.21 165.95,-150.14 156.54,-145.28 155.56,-152.21"/>
</a>
</g>
</g>
<!-- Node9 -->
<g id="Node000009" class="node">
<title>Node9</title>
<g id="a_Node000009"><a xlink:href="kest__expression_8c.html#a8df028c238f29a5c5e59bcff98e28157" target="_top" xlink:title=" ">
<polygon fill="white" stroke="#666666" points="293.75,-265.34 151,-265.34 151,-244.59 293.75,-244.59 293.75,-265.34"/>
<text xml:space="preserve" text-anchor="middle" x="222.38" y="-251.84" font-family="Helvetica,sans-Serif" font-size="10.00">kest_expression_evaluate</text>
</a>
</g>
</g>
<!-- Node1&#45;&gt;Node9 -->
<g id="edge7_Node000001_Node000009" class="edge">
<title>Node1&#45;&gt;Node9</title>
<g id="a_edge7_Node000001_Node000009"><a xlink:title=" ">
<path fill="none" stroke="#63b8ff" d="M65.21,-145.65C78.79,-166.36 111.59,-212 151,-235.97 153.15,-237.28 155.4,-238.5 157.7,-239.64"/>
<polygon fill="#63b8ff" stroke="#63b8ff" points="156.18,-242.79 166.75,-243.52 158.94,-236.36 156.18,-242.79"/>
</a>
</g>
</g>
<!-- Node27 -->
<g id="Node000027" class="node">
<title>Node27</title>
<g id="a_Node000027"><a xlink:href="kest__alloc_8c.html#a294af5728a94aa316fcf65304d388d48" target="_top" xlink:title=" ">
<polygon fill="white" stroke="#666666" points="252.88,-84.34 191.88,-84.34 191.88,-63.59 252.88,-63.59 252.88,-84.34"/>
<text xml:space="preserve" text-anchor="middle" x="222.38" y="-70.84" font-family="Helvetica,sans-Serif" font-size="10.00">kest_free</text>
</a>
</g>
</g>
<!-- Node1&#45;&gt;Node27 -->
<g id="edge17_Node000001_Node000027" class="edge">
<title>Node1&#45;&gt;Node27</title>
<g id="a_edge17_Node000001_Node000027"><a xlink:title=" ">
<path fill="none" stroke="#63b8ff" d="M80.57,-124.13C99.09,-115.3 126.39,-102.87 151,-93.97 160.55,-90.52 170.99,-87.27 180.84,-84.44"/>
<polygon fill="#63b8ff" stroke="#63b8ff" points="181.48,-87.89 190.18,-81.83 179.6,-81.15 181.48,-87.89"/>
</a>
</g>
</g>
<!-- Node28 -->
<g id="Node000028" class="node">
<title>Node28</title>
<g id="a_Node000028"><a xlink:href="kest__eff__parser_8c.html#abf2c14dab3ed7e069ad5083b160b16da" target="_top" xlink:title=" ">
<polygon fill="white" stroke="#666666" points="272.75,-45.34 172,-45.34 172,-24.59 272.75,-24.59 272.75,-45.34"/>
<text xml:space="preserve" text-anchor="middle" x="222.38" y="-31.84" font-family="Helvetica,sans-Serif" font-size="10.00">kest_parser_error</text>
</a>
</g>
</g>
<!-- Node1&#45;&gt;Node28 -->
<g id="edge18_Node000001_Node000028" class="edge">
<title>Node1&#45;&gt;Node28</title>
<g id="a_edge18_Node000001_Node000028"><a xlink:title=" ">
<path fill="none" stroke="#63b8ff" d="M67.92,-124.23C83.52,-107.1 116.44,-73.63 151,-54.97 154.46,-53.1 158.11,-51.4 161.85,-49.84"/>
<polygon fill="#63b8ff" stroke="#63b8ff" points="163.02,-53.14 171.16,-46.35 160.57,-46.58 163.02,-53.14"/>
</a>
</g>
</g>
<!-- Node29 -->
<g id="Node000029" class="node">
<title>Node29</title>
<g id="a_Node000029"><a xlink:href="kest__alloc_8c.html#aed9ede1276c1ab3b4042c264ce64a3d2" target="_top" xlink:title=" ">
<polygon fill="white" stroke="#666666" points="261.5,-123.34 183.25,-123.34 183.25,-102.59 261.5,-102.59 261.5,-123.34"/>
<text xml:space="preserve" text-anchor="middle" x="222.38" y="-109.84" font-family="Helvetica,sans-Serif" font-size="10.00">kest_strndup</text>
</a>
</g>
</g>
<!-- Node1&#45;&gt;Node29 -->
<g id="edge19_Node000001_Node000029" class="edge">
<title>Node1&#45;&gt;Node29</title>
<g id="a_edge19_Node000001_Node000029"><a xlink:title=" ">
<path fill="none" stroke="#63b8ff" d="M115.47,-127.27C133.83,-124.79 154.02,-122.07 171.8,-119.67"/>
<polygon fill="#63b8ff" stroke="#63b8ff" points="172.16,-123.15 181.6,-118.34 171.22,-116.21 172.16,-123.15"/>
</a>
</g>
</g>
<!-- Node3 -->
<g id="Node000003" class="node">
<title>Node3</title>
<g id="a_Node000003"><a xlink:href="kest__parameter_8c.html#a3c9f839cffc5f0a9b0630682ce8e9b9c" target="_top" xlink:title=" ">
<polygon fill="white" stroke="#666666" points="465.75,-344.72 356.75,-344.72 356.75,-311.22 465.75,-311.22 465.75,-344.72"/>
<text xml:space="preserve" text-anchor="start" x="364.75" y="-331.22" font-family="Helvetica,sans-Serif" font-size="10.00">kest_setting_effect</text>
<text xml:space="preserve" text-anchor="middle" x="411.25" y="-318.47" font-family="Helvetica,sans-Serif" font-size="10.00">_rep_update</text>
</a>
</g>
</g>
<!-- Node2&#45;&gt;Node3 -->
<g id="edge2_Node000002_Node000003" class="edge">
<title>Node2&#45;&gt;Node3</title>
<g id="a_edge2_Node000002_Node000003"><a xlink:title=" ">
<path fill="none" stroke="#63b8ff" d="M267.19,-311.13C290.4,-313.86 319.37,-317.27 345.15,-320.31"/>
<polygon fill="#63b8ff" stroke="#63b8ff" points="344.52,-323.76 354.86,-321.45 345.34,-316.8 344.52,-323.76"/>
</a>
</g>
</g>
<!-- Node4 -->
<g id="Node000004" class="node">
<title>Node4</title>
<g id="a_Node000004"><a xlink:href="kest__effect_8c.html#afdbf79f9f27eac4959dfcf7bbcb324d4" target="_top" xlink:title=" ">
<polygon fill="#fff0f0" stroke="red" points="670,-371.34 534.75,-371.34 534.75,-350.59 670,-350.59 670,-371.34"/>
<text xml:space="preserve" text-anchor="middle" x="602.38" y="-357.84" font-family="Helvetica,sans-Serif" font-size="10.00">kest_effect_update_reps</text>
</a>
</g>
</g>
<!-- Node3&#45;&gt;Node4 -->
<g id="edge3_Node000003_Node000004" class="edge">
<title>Node3&#45;&gt;Node4</title>
<g id="a_edge3_Node000003_Node000004"><a xlink:title=" ">
<path fill="none" stroke="#63b8ff" d="M466.19,-337.38C485.45,-340.74 507.47,-344.58 528.08,-348.18"/>
<polygon fill="#63b8ff" stroke="#63b8ff" points="527.41,-351.62 537.86,-349.89 528.61,-344.72 527.41,-351.62"/>
</a>
</g>
</g>
<!-- Node10 -->
<g id="Node000010" class="node">
<title>Node10</title>
<g id="a_Node000010"><a xlink:href="kest__expression_8c.html#aa4b7d57f1458bb40fc2d8fdab7c605fc" target="_top" xlink:title=" ">
<polygon fill="white" stroke="#666666" points="492.75,-242.34 329.75,-242.34 329.75,-221.59 492.75,-221.59 492.75,-242.34"/>
<text xml:space="preserve" text-anchor="middle" x="411.25" y="-228.84" font-family="Helvetica,sans-Serif" font-size="10.00">kest_expression_evaluate_rec</text>
</a>
</g>
</g>
<!-- Node9&#45;&gt;Node10 -->
<g id="edge8_Node000009_Node000010" class="edge">
<title>Node9&#45;&gt;Node10</title>
<g id="a_edge8_Node000009_Node000010"><a xlink:title=" ">
<path fill="none" stroke="#63b8ff" d="M294.02,-246.27C301.89,-245.31 309.99,-244.31 318.08,-243.31"/>
<polygon fill="#63b8ff" stroke="#63b8ff" points="318.47,-246.79 327.97,-242.1 317.62,-239.84 318.47,-246.79"/>
</a>
</g>
</g>
<!-- Node10&#45;&gt;Node10 -->
<g id="edge10_Node000010_Node000010" class="edge">
<title>Node10&#45;&gt;Node10</title>
<g id="a_edge10_Node000010_Node000010"><a xlink:title=" ">
<path fill="none" stroke="#63b8ff" d="M380.82,-242.74C368.64,-251.4 378.79,-260.34 411.25,-260.34 429,-260.34 440.08,-257.67 444.49,-253.83"/>
<polygon fill="#63b8ff" stroke="#63b8ff" points="447.9,-253.05 442.05,-244.21 441.11,-254.76 447.9,-253.05"/>
</a>
</g>
</g>
<!-- Node11 -->
<g id="Node000011" class="node">
<title>Node11</title>
<g id="a_Node000011"><a xlink:href="kest__error__codes_8c.html#a0f4c77127bc0b77264a21104979c576a" target="_top" xlink:title=" ">
<polygon fill="white" stroke="#666666" points="656.5,-293.72 548.25,-293.72 548.25,-260.22 656.5,-260.22 656.5,-293.72"/>
<text xml:space="preserve" text-anchor="start" x="556.25" y="-280.22" font-family="Helvetica,sans-Serif" font-size="10.00">kest_error_code_to</text>
<text xml:space="preserve" text-anchor="middle" x="602.38" y="-267.47" font-family="Helvetica,sans-Serif" font-size="10.00">_string</text>
</a>
</g>
</g>
<!-- Node10&#45;&gt;Node11 -->
<g id="edge9_Node000010_Node000011" class="edge">
<title>Node10&#45;&gt;Node11</title>
<g id="a_edge9_Node000010_Node000011"><a xlink:title=" ">
<path fill="none" stroke="#63b8ff" d="M457.55,-242.75C481.36,-248.41 510.95,-255.45 537.09,-261.67"/>
<polygon fill="#63b8ff" stroke="#63b8ff" points="536.04,-265.02 546.58,-263.93 537.66,-258.21 536.04,-265.02"/>
</a>
</g>
</g>
<!-- Node12 -->
<g id="Node000012" class="node">
<title>Node12</title>
<g id="a_Node000012"><a xlink:href="kest__expression_8c.html#aadf2a6a074cb1ad7b45893704cbd71c3" target="_top" xlink:title=" ">
<polygon fill="#fff0f0" stroke="red" points="821.75,-229.72 712,-229.72 712,-196.22 821.75,-196.22 821.75,-229.72"/>
<text xml:space="preserve" text-anchor="start" x="720" y="-216.22" font-family="Helvetica,sans-Serif" font-size="10.00">kest_expression_to</text>
<text xml:space="preserve" text-anchor="middle" x="766.88" y="-203.47" font-family="Helvetica,sans-Serif" font-size="10.00">_string</text>
</a>
</g>
</g>
<!-- Node10&#45;&gt;Node12 -->
<g id="edge11_Node000010_Node000012" class="edge">
<title>Node10&#45;&gt;Node12</title>
<g id="a_edge11_Node000010_Node000012"><a xlink:title=" ">
<path fill="none" stroke="#63b8ff" d="M492.94,-227.63C555.71,-224.26 641.72,-219.64 700.3,-216.49"/>
<polygon fill="#63b8ff" stroke="#63b8ff" points="700.32,-220 710.12,-215.96 699.95,-213.01 700.32,-220"/>
</a>
</g>
</g>
<!-- Node18 -->
<g id="Node000018" class="node">
<title>Node18</title>
<g id="a_Node000018"><a xlink:href="kest__expr__scope_8c.html#ab4b2ce40beae39f7dc02743730a37ec7" target="_top" xlink:title=" ">
<polygon fill="#fff0f0" stroke="red" points="676,-204.34 528.75,-204.34 528.75,-183.59 676,-183.59 676,-204.34"/>
<text xml:space="preserve" text-anchor="middle" x="602.38" y="-190.84" font-family="Helvetica,sans-Serif" font-size="10.00">kest_scope_entry_eval_rec</text>
</a>
</g>
</g>
<!-- Node10&#45;&gt;Node18 -->
<g id="edge12_Node000010_Node000018" class="edge">
<title>Node10&#45;&gt;Node18</title>
<g id="a_edge12_Node000010_Node000018"><a xlink:title=" ">
<path fill="none" stroke="#63b8ff" d="M440.97,-221.19C461.41,-215.75 489.99,-209.44 517.37,-204.14"/>
<polygon fill="#63b8ff" stroke="#63b8ff" points="517.94,-207.59 527.11,-202.29 516.63,-200.71 517.94,-207.59"/>
</a>
</g>
</g>
<!-- Node26 -->
<g id="Node000026" class="node">
<title>Node26</title>
<g id="a_Node000026"><a xlink:href="kest__expr__scope_8c.html#a8a0fbd22e0deccdaee632b2a95d4aee5" target="_top" xlink:title=" ">
<polygon fill="white" stroke="#666666" points="652.38,-165.34 552.38,-165.34 552.38,-144.59 652.38,-144.59 652.38,-165.34"/>
<text xml:space="preserve" text-anchor="middle" x="602.38" y="-151.84" font-family="Helvetica,sans-Serif" font-size="10.00">kest_scope_fetch</text>
</a>
</g>
</g>
<!-- Node10&#45;&gt;Node26 -->
<g id="edge15_Node000010_Node000026" class="edge">
<title>Node10&#45;&gt;Node26</title>
<g id="a_edge15_Node000010_Node000026"><a xlink:title=" ">
<path fill="none" stroke="#63b8ff" d="M431.54,-221.14C454.26,-208.72 493.37,-188.36 528.75,-174.97 534.33,-172.86 540.23,-170.86 546.15,-169.01"/>
<polygon fill="#63b8ff" stroke="#63b8ff" points="546.75,-172.48 555.34,-166.27 544.75,-165.78 546.75,-172.48"/>
</a>
</g>
</g>
<!-- Node17 -->
<g id="Node000017" class="node">
<title>Node17</title>
<g id="a_Node000017"><a xlink:href="kest__expression_8c.html#a05276e5a18cc3b52dfc8a17bb101c832" target="_top" xlink:title=" ">
<polygon fill="white" stroke="#666666" points="646.38,-332.34 558.38,-332.34 558.38,-311.59 646.38,-311.59 646.38,-332.34"/>
<text xml:space="preserve" text-anchor="middle" x="602.38" y="-318.84" font-family="Helvetica,sans-Serif" font-size="10.00">max_depth_bp</text>
</a>
</g>
</g>
<!-- Node10&#45;&gt;Node17 -->
<g id="edge16_Node000010_Node000017" class="edge">
<title>Node10&#45;&gt;Node17</title>
<g id="a_edge16_Node000010_Node000017"><a xlink:title=" ">
<path fill="none" stroke="#63b8ff" d="M426.58,-242.62C447.85,-257.97 489.51,-286.3 528.75,-302.97 534.67,-305.48 541,-307.73 547.37,-309.73"/>
<polygon fill="#63b8ff" stroke="#63b8ff" points="546.02,-312.98 556.6,-312.42 547.98,-306.26 546.02,-312.98"/>
</a>
</g>
</g>
<!-- Node18&#45;&gt;Node10 -->
<g id="edge13_Node000018_Node000010" class="edge">
<title>Node18&#45;&gt;Node10</title>
<g id="a_edge13_Node000018_Node000010"><a xlink:title=" ">
<path fill="none" stroke="#63b8ff" d="M572.56,-204.78C554.05,-209.69 528.91,-215.32 504.02,-220.28"/>
<polygon fill="#63b8ff" stroke="#63b8ff" points="503.63,-216.79 494.49,-222.14 504.98,-223.66 503.63,-216.79"/>
</a>
</g>
</g>
<!-- Node18&#45;&gt;Node12 -->
<g id="edge14_Node000018_Node000012" class="edge">
<title>Node18&#45;&gt;Node12</title>
<g id="a_edge14_Node000018_Node000012"><a xlink:title=" ">
<path fill="none" stroke="#63b8ff" d="M676.07,-202.47C684.23,-203.42 692.5,-204.39 700.55,-205.33"/>
<polygon fill="#63b8ff" stroke="#63b8ff" points="699.92,-208.78 710.26,-206.47 700.73,-201.83 699.92,-208.78"/>
</a>
</g>
</g>
<!-- Node29&#45;&gt;Node6 -->
<g id="edge20_Node000029_Node000006" class="edge">
<title>Node29&#45;&gt;Node6</title>
<g id="a_edge20_Node000029_Node000006"><a xlink:title=" ">
<path fill="none" stroke="#63b8ff" d="M261.8,-102.34C272.2,-99.38 283.42,-96.12 293.75,-92.97 318.47,-85.43 345.96,-76.49 368.03,-69.17"/>
<polygon fill="#63b8ff" stroke="#63b8ff" points="368.89,-72.58 377.27,-66.1 366.68,-65.93 368.89,-72.58"/>
</a>
</g>
</g>
</g>
</svg>
