<?xml version="1.0" encoding="UTF-8" standalone="no"?>
<!DOCTYPE svg PUBLIC "-//W3C//DTD SVG 1.1//EN"
 "http://www.w3.org/Graphics/SVG/1.1/DTD/svg11.dtd">
<!-- Generated by graphviz version 13.1.2 (20250808.2320)
 -->
<!-- Title: ui_page_add_back_button Pages: 1 -->
<!--zoomable 261 -->

<svg id="main" version="1.1" xmlns="http://www.w3.org/2000/svg" xmlns:xlink="http://www.w3.org/1999/xlink" xml:space="preserve" onload="init(evt)">

<style type="text/css"><![CDATA[
.node, .edge {opacity: 0.7;}
.node.selected, .edge.selected {opacity: 1;}
.edge:hover path { stroke: red; }
.edge:hover polygon { stroke: red; fill: red; }
]]></style>

<defs>
  <circle id="rim" cx="0" cy="0" r="7"/>
  <circle id="rim2" cx="0" cy="0" r="3.5"/>
  <g id="zoomPlus">
    <use xlink:href="#rim" fill="#404040"><set attributeName="fill" to="#808080" begin="zoomplus.mouseover" end="zoomplus.mouseout"/></use>
    <path d="M-4,0h8M0,-4v8" fill="none" stroke="white" stroke-width="1.5" pointer-events="none"/>
  </g>
  <g id="zoomMin">
    <use xlink:href="#rim" fill="#404040"><set attributeName="fill" to="#808080" begin="zoomminus.mouseover" end="zoomminus.mouseout"/></use>
    <path d="M-4,0h8" fill="none" stroke="white" stroke-width="1.5" pointer-events="none"/>
  </g>
  <g id="arrowUp" transform="translate(30 24)">
    <use xlink:href="#rim"/>
    <path pointer-events="none" fill="none" stroke="white" stroke-width="1.5" d="M0,-3.0v7 M-2.5,-0.5L0,-3.0L2.5,-0.5"/>
  </g>
  <g id="arrowRight" transform="rotate(90) translate(36 -43)">
    <use xlink:href="#rim"/>
    <path pointer-events="none" fill="none" stroke="white" stroke-width="1.5" d="M0,-3.0v7 M-2.5,-0.5L0,-3.0L2.5,-0.5"/>
  </g>
  <g id="arrowDown" transform="rotate(180) translate(-30 -48)">
    <use xlink:href="#rim"/>
    <path pointer-events="none" fill="none" stroke="white" stroke-width="1.5" d="M0,-3.0v7 M-2.5,-0.5L0,-3.0L2.5,-0.5"/>
  </g>
  <g id="arrowLeft" transform="rotate(270) translate(-36 17)">
    <use xlink:href="#rim"/>
    <path pointer-events="none" fill="none" stroke="white" stroke-width="1.5" d="M0,-3.0v7 M-2.5,-0.5L0,-3.0L2.5,-0.5"/>
  </g>
  <g id="resetDef">
    <use xlink:href="#rim2" fill="#404040"><set attributeName="fill" to="#808080" begin="reset.mouseover" end="reset.mouseout"/></use>
  </g>
</defs>
<script type="application/ecmascript">
var viewWidth = 841;
var viewHeight = 261;
var sectionId = 'dynsection-60';
</script>
<script type="application/ecmascript" xlink:href="svg.min.js"/>
<svg id="graph" class="graph">
<g id="viewport">
<title>ui_page_add_back_button</title>
<!-- Node1 -->
<g id="Node000001" class="node">
<title>Node1</title>
<g id="a_Node000001"><a xlink:title=" ">
<polygon fill="#999999" stroke="#666666" points="833,-116.75 690.25,-116.75 690.25,-96 833,-96 833,-116.75"/>
<text xml:space="preserve" text-anchor="middle" x="761.62" y="-103.25" font-family="Helvetica,sans-Serif" font-size="10.00">ui_page_add_back_button</text>
</a>
</g>
</g>
<!-- Node2 -->
<g id="Node000002" class="node">
<title>Node2</title>
<g id="a_Node000002"><a xlink:href="kest__effect__settings_8c.html#ab738a7e4abecdaf8e9e7788ace97d8b5" target="_top" xlink:title=" ">
<polygon fill="white" stroke="#666666" points="653.12,-213.75 484.12,-213.75 484.12,-193 653.12,-193 653.12,-213.75"/>
<text xml:space="preserve" text-anchor="middle" x="568.62" y="-200.25" font-family="Helvetica,sans-Serif" font-size="10.00">configure_effect_settings_page</text>
</a>
</g>
</g>
<!-- Node1&#45;&gt;Node2 -->
<g id="edge1_Node000001_Node000002" class="edge">
<title>Node1&#45;&gt;Node2</title>
<g id="a_edge1_Node000001_Node000002"><a xlink:title=" ">
<path fill="none" stroke="#63b8ff" d="M731.63,-122.87C710.4,-134.78 680.78,-151.05 654.25,-164.38 634.3,-174.4 611.27,-184.95 594.27,-192.54"/>
<polygon fill="#63b8ff" stroke="#63b8ff" points="733.3,-125.95 740.29,-117.99 729.86,-119.85 733.3,-125.95"/>
</a>
</g>
</g>
<!-- Node7 -->
<g id="Node000007" class="node">
<title>Node7</title>
<g id="a_Node000007"><a xlink:href="kest__menu_8c.html#a264644eed0c454d882162f462ed24454" target="_top" xlink:title=" ">
<polygon fill="white" stroke="#666666" points="630.62,-59.75 506.62,-59.75 506.62,-39 630.62,-39 630.62,-59.75"/>
<text xml:space="preserve" text-anchor="middle" x="568.62" y="-46.25" font-family="Helvetica,sans-Serif" font-size="10.00">configure_menu_page</text>
</a>
</g>
</g>
<!-- Node1&#45;&gt;Node7 -->
<g id="edge8_Node000001_Node000007" class="edge">
<title>Node1&#45;&gt;Node7</title>
<g id="a_edge8_Node000001_Node000007"><a xlink:title=" ">
<path fill="none" stroke="#63b8ff" d="M713.42,-92.29C680.18,-82.37 636.36,-69.29 605.86,-60.19"/>
<polygon fill="#63b8ff" stroke="#63b8ff" points="712.22,-95.58 722.8,-95.09 714.22,-88.87 712.22,-95.58"/>
</a>
</g>
</g>
<!-- Node23 -->
<g id="Node000023" class="node">
<title>Node23</title>
<g id="a_Node000023"><a xlink:href="kest__preset__settings_8c.html#a4e21964ed69d6e526547b1f73d86f508" target="_top" xlink:title=" ">
<polygon fill="white" stroke="#666666" points="654.25,-155.75 483,-155.75 483,-135 654.25,-135 654.25,-155.75"/>
<text xml:space="preserve" text-anchor="middle" x="568.62" y="-142.25" font-family="Helvetica,sans-Serif" font-size="10.00">configure_preset_settings_page</text>
</a>
</g>
</g>
<!-- Node1&#45;&gt;Node23 -->
<g id="edge12_Node000001_Node000023" class="edge">
<title>Node1&#45;&gt;Node23</title>
<g id="a_edge12_Node000001_Node000023"><a xlink:title=" ">
<path fill="none" stroke="#63b8ff" d="M696.33,-119.5C672.45,-124.38 645.65,-129.85 622.87,-134.5"/>
<polygon fill="#63b8ff" stroke="#63b8ff" points="696.84,-122.97 705.94,-117.54 695.44,-116.11 696.84,-122.97"/>
</a>
</g>
</g>
<!-- Node36 -->
<g id="Node000036" class="node">
<title>Node36</title>
<g id="a_Node000036"><a xlink:href="kest__sequence__list_8c.html#ae60870bb862edfc5b0a45344c20b152f" target="_top" xlink:title=" ">
<polygon fill="#fff0f0" stroke="red" points="635.5,-116.75 501.75,-116.75 501.75,-96 635.5,-96 635.5,-116.75"/>
<text xml:space="preserve" text-anchor="middle" x="568.62" y="-103.25" font-family="Helvetica,sans-Serif" font-size="10.00">configure_sequence_list</text>
</a>
</g>
</g>
<!-- Node1&#45;&gt;Node36 -->
<g id="edge19_Node000001_Node000036" class="edge">
<title>Node1&#45;&gt;Node36</title>
<g id="a_edge19_Node000001_Node000036"><a xlink:title=" ">
<path fill="none" stroke="#63b8ff" d="M678.49,-106.38C664.27,-106.38 649.66,-106.38 635.93,-106.38"/>
<polygon fill="#63b8ff" stroke="#63b8ff" points="678.26,-109.88 688.26,-106.38 678.26,-102.88 678.26,-109.88"/>
</a>
</g>
</g>
<!-- Node29 -->
<g id="Node000029" class="node">
<title>Node29</title>
<g id="a_Node000029"><a xlink:href="kest__sequence__view_8c.html#ac871b24a7c875a7b6e707a3d2691a2a9" target="_top" xlink:title=" ">
<polygon fill="#fff0f0" stroke="red" points="639.62,-20.75 497.62,-20.75 497.62,0 639.62,0 639.62,-20.75"/>
<text xml:space="preserve" text-anchor="middle" x="568.62" y="-7.25" font-family="Helvetica,sans-Serif" font-size="10.00">configure_sequence_view</text>
</a>
</g>
</g>
<!-- Node1&#45;&gt;Node29 -->
<g id="edge21_Node000001_Node000029" class="edge">
<title>Node1&#45;&gt;Node29</title>
<g id="a_edge21_Node000001_Node000029"><a xlink:title=" ">
<path fill="none" stroke="#63b8ff" d="M740.14,-88C719.76,-70.67 686.9,-45.2 654.25,-30.38 646.14,-26.69 637.27,-23.65 628.43,-21.14"/>
<polygon fill="#63b8ff" stroke="#63b8ff" points="737.85,-90.64 747.69,-94.56 742.44,-85.36 737.85,-90.64"/>
</a>
</g>
</g>
<!-- Node3 -->
<g id="Node000003" class="node">
<title>Node3</title>
<g id="a_Node000003"><a xlink:href="kest__effect__view_8c.html#ae392eef44a5a025bad43a7a8969ab5b0" target="_top" xlink:title=" ">
<polygon fill="white" stroke="#666666" points="438.38,-213.75 314.38,-213.75 314.38,-193 438.38,-193 438.38,-213.75"/>
<text xml:space="preserve" text-anchor="middle" x="376.38" y="-200.25" font-family="Helvetica,sans-Serif" font-size="10.00">configure_effect_view</text>
</a>
</g>
</g>
<!-- Node2&#45;&gt;Node3 -->
<g id="edge2_Node000002_Node000003" class="edge">
<title>Node2&#45;&gt;Node3</title>
<g id="a_edge2_Node000002_Node000003"><a xlink:title=" ">
<path fill="none" stroke="#63b8ff" d="M472.49,-203.38C461.05,-203.38 449.61,-203.38 438.84,-203.38"/>
<polygon fill="#63b8ff" stroke="#63b8ff" points="472.39,-206.88 482.39,-203.38 472.39,-199.88 472.39,-206.88"/>
</a>
</g>
</g>
<!-- Node6 -->
<g id="Node000006" class="node">
<title>Node6</title>
<g id="a_Node000006"><a xlink:href="kest__effect__settings_8c.html#ab8bf2accabc08beecb97a54915abc488" target="_top" xlink:title=" ">
<polygon fill="white" stroke="#666666" points="445.88,-252.75 306.88,-252.75 306.88,-232 445.88,-232 445.88,-252.75"/>
<text xml:space="preserve" text-anchor="middle" x="376.38" y="-239.25" font-family="Helvetica,sans-Serif" font-size="10.00">init_effect_settings_page</text>
</a>
</g>
</g>
<!-- Node2&#45;&gt;Node6 -->
<g id="edge6_Node000002_Node000006" class="edge">
<title>Node2&#45;&gt;Node6</title>
<g id="a_edge6_Node000002_Node000006"><a xlink:title=" ">
<path fill="none" stroke="#63b8ff" d="M503.58,-216.5C479.8,-221.38 453.11,-226.85 430.42,-231.5"/>
<polygon fill="#63b8ff" stroke="#63b8ff" points="504.05,-219.98 513.15,-214.54 502.65,-213.12 504.05,-219.98"/>
</a>
</g>
</g>
<!-- Node4 -->
<g id="Node000004" class="node">
<title>Node4</title>
<g id="a_Node000004"><a xlink:href="kest__effect__view_8c.html#abb65b28dc293fd68d3b384f48210130e" target="_top" xlink:title=" ">
<polygon fill="white" stroke="#666666" points="128.88,-232.75 1.12,-232.75 1.12,-212 128.88,-212 128.88,-232.75"/>
<text xml:space="preserve" text-anchor="middle" x="65" y="-219.25" font-family="Helvetica,sans-Serif" font-size="10.00">create_effect_view_for</text>
</a>
</g>
</g>
<!-- Node3&#45;&gt;Node4 -->
<g id="edge3_Node000003_Node000004" class="edge">
<title>Node3&#45;&gt;Node4</title>
<g id="a_edge3_Node000003_Node000004"><a xlink:title=" ">
<path fill="none" stroke="#63b8ff" d="M302.6,-207.84C249.96,-211.08 179.53,-215.4 129.23,-218.49"/>
<polygon fill="#63b8ff" stroke="#63b8ff" points="302.61,-211.35 312.37,-207.24 302.18,-204.36 302.61,-211.35"/>
</a>
</g>
</g>
<!-- Node5 -->
<g id="Node000005" class="node">
<title>Node5</title>
<g id="a_Node000005"><a xlink:href="kest__effect__view_8c.html#a7b9803e86d71b10b167f0babf088fe08" target="_top" xlink:title=" ">
<polygon fill="white" stroke="#666666" points="264.88,-251.75 170.88,-251.75 170.88,-231 264.88,-231 264.88,-251.75"/>
<text xml:space="preserve" text-anchor="middle" x="217.88" y="-238.25" font-family="Helvetica,sans-Serif" font-size="10.00">init_effect_view</text>
</a>
</g>
</g>
<!-- Node3&#45;&gt;Node5 -->
<g id="edge4_Node000003_Node000005" class="edge">
<title>Node3&#45;&gt;Node5</title>
<g id="a_edge4_Node000003_Node000005"><a xlink:title=" ">
<path fill="none" stroke="#63b8ff" d="M319.98,-216.82C301.44,-221.33 281.02,-226.29 263.41,-230.56"/>
<polygon fill="#63b8ff" stroke="#63b8ff" points="320.58,-220.28 329.48,-214.52 318.93,-213.48 320.58,-220.28"/>
</a>
</g>
</g>
<!-- Node5&#45;&gt;Node4 -->
<g id="edge5_Node000005_Node000004" class="edge">
<title>Node5&#45;&gt;Node4</title>
<g id="a_edge5_Node000005_Node000004"><a xlink:title=" ">
<path fill="none" stroke="#63b8ff" d="M159.14,-234.1C149.37,-232.87 139.18,-231.59 129.27,-230.34"/>
<polygon fill="#63b8ff" stroke="#63b8ff" points="158.52,-237.55 168.87,-235.33 159.39,-230.61 158.52,-237.55"/>
</a>
</g>
</g>
<!-- Node6&#45;&gt;Node5 -->
<g id="edge7_Node000006_Node000005" class="edge">
<title>Node6&#45;&gt;Node5</title>
<g id="a_edge7_Node000006_Node000005"><a xlink:title=" ">
<path fill="none" stroke="#63b8ff" d="M295.42,-241.86C284.98,-241.8 274.58,-241.73 264.96,-241.67"/>
<polygon fill="#63b8ff" stroke="#63b8ff" points="295.2,-245.36 305.22,-241.93 295.24,-238.36 295.2,-245.36"/>
</a>
</g>
</g>
<!-- Node7&#45;&gt;Node7 -->
<g id="edge9_Node000007_Node000007" class="edge">
<title>Node7&#45;&gt;Node7</title>
<g id="a_edge9_Node000007_Node000007"><a xlink:title=" ">
<path fill="none" stroke="#63b8ff" d="M602.45,-71.24C597.97,-75.08 586.7,-77.75 568.62,-77.75 535.58,-77.75 525.26,-68.81 537.65,-60.15"/>
<polygon fill="#63b8ff" stroke="#63b8ff" points="605.86,-70.43 599.98,-61.61 599.08,-72.17 605.86,-70.43"/>
</a>
</g>
</g>
<!-- Node8 -->
<g id="Node000008" class="node">
<title>Node8</title>
<g id="a_Node000008"><a xlink:href="kest__menu_8c.html#a9a3dc2a29ebf6ace0a6b54a902530001" target="_top" xlink:title=" ">
<polygon fill="white" stroke="#666666" points="423.38,-59.75 329.38,-59.75 329.38,-39 423.38,-39 423.38,-59.75"/>
<text xml:space="preserve" text-anchor="middle" x="376.38" y="-46.25" font-family="Helvetica,sans-Serif" font-size="10.00">init_menu_page</text>
</a>
</g>
</g>
<!-- Node7&#45;&gt;Node8 -->
<g id="edge10_Node000007_Node000008" class="edge">
<title>Node7&#45;&gt;Node8</title>
<g id="a_edge10_Node000007_Node000008"><a xlink:title=" ">
<path fill="none" stroke="#63b8ff" d="M495.17,-49.38C471.2,-49.38 445.18,-49.38 423.72,-49.38"/>
<polygon fill="#63b8ff" stroke="#63b8ff" points="494.87,-52.88 504.87,-49.38 494.87,-45.88 494.87,-52.88"/>
</a>
</g>
</g>
<!-- Node9 -->
<g id="Node000009" class="node">
<title>Node9</title>
<g id="a_Node000009"><a xlink:href="kest__sequence__list_8c.html#a0e869118af43741e3d4db628d5c414fe" target="_top" xlink:title=" ">
<polygon fill="#fff0f0" stroke="red" points="269.75,-78.75 166,-78.75 166,-58 269.75,-58 269.75,-78.75"/>
<text xml:space="preserve" text-anchor="middle" x="217.88" y="-65.25" font-family="Helvetica,sans-Serif" font-size="10.00">init_sequence_list</text>
</a>
</g>
</g>
<!-- Node8&#45;&gt;Node9 -->
<g id="edge11_Node000008_Node000009" class="edge">
<title>Node8&#45;&gt;Node9</title>
<g id="a_edge11_Node000008_Node000009"><a xlink:title=" ">
<path fill="none" stroke="#63b8ff" d="M318.09,-56.33C302.39,-58.24 285.47,-60.29 270.13,-62.15"/>
<polygon fill="#63b8ff" stroke="#63b8ff" points="318.26,-59.84 327.76,-55.16 317.41,-52.89 318.26,-59.84"/>
</a>
</g>
</g>
<!-- Node24 -->
<g id="Node000024" class="node">
<title>Node24</title>
<g id="a_Node000024"><a xlink:href="kest__preset__view_8c.html#ad8a171502fcb88f5b5a08657a6424752" target="_top" xlink:title=" ">
<polygon fill="white" stroke="#666666" points="439.5,-135.75 313.25,-135.75 313.25,-115 439.5,-115 439.5,-135.75"/>
<text xml:space="preserve" text-anchor="middle" x="376.38" y="-122.25" font-family="Helvetica,sans-Serif" font-size="10.00">configure_preset_view</text>
</a>
</g>
</g>
<!-- Node23&#45;&gt;Node24 -->
<g id="edge13_Node000023_Node000024" class="edge">
<title>Node23&#45;&gt;Node24</title>
<g id="a_edge13_Node000023_Node000024"><a xlink:title=" ">
<path fill="none" stroke="#63b8ff" d="M471.38,-135.26C460.68,-134.13 450,-133.01 439.88,-131.95"/>
<polygon fill="#63b8ff" stroke="#63b8ff" points="470.7,-138.7 481.01,-136.27 471.43,-131.74 470.7,-138.7"/>
</a>
</g>
</g>
<!-- Node40 -->
<g id="Node000040" class="node">
<title>Node40</title>
<g id="a_Node000040"><a xlink:href="kest__preset__settings_8c.html#af8a7e7dad2d6e91426bed7a0ec9f4cd4" target="_top" xlink:title=" ">
<polygon fill="white" stroke="#666666" points="447,-174.75 305.75,-174.75 305.75,-154 447,-154 447,-174.75"/>
<text xml:space="preserve" text-anchor="middle" x="376.38" y="-161.25" font-family="Helvetica,sans-Serif" font-size="10.00">init_preset_settings_page</text>
</a>
</g>
</g>
<!-- Node23&#45;&gt;Node40 -->
<g id="edge17_Node000023_Node000040" class="edge">
<title>Node23&#45;&gt;Node40</title>
<g id="a_edge17_Node000023_Node000040"><a xlink:title=" ">
<path fill="none" stroke="#63b8ff" d="M471.16,-155.01C463.12,-155.81 455.09,-156.61 447.31,-157.39"/>
<polygon fill="#63b8ff" stroke="#63b8ff" points="471.41,-158.5 481.01,-154.03 470.71,-151.54 471.41,-158.5"/>
</a>
</g>
</g>
<!-- Node25 -->
<g id="Node000025" class="node">
<title>Node25</title>
<g id="a_Node000025"><a xlink:href="kest__preset__view_8c.html#ae4f85ce684e856ba2d0dfc97c49528b2" target="_top" xlink:title=" ">
<polygon fill="#fff0f0" stroke="red" points="130,-154.75 0,-154.75 0,-134 130,-134 130,-154.75"/>
<text xml:space="preserve" text-anchor="middle" x="65" y="-141.25" font-family="Helvetica,sans-Serif" font-size="10.00">create_preset_view_for</text>
</a>
</g>
</g>
<!-- Node24&#45;&gt;Node25 -->
<g id="edge14_Node000024_Node000025" class="edge">
<title>Node24&#45;&gt;Node25</title>
<g id="a_edge14_Node000024_Node000025"><a xlink:title=" ">
<path fill="none" stroke="#63b8ff" d="M301.58,-129.91C249.45,-133.11 180.27,-137.36 130.38,-140.42"/>
<polygon fill="#63b8ff" stroke="#63b8ff" points="301.49,-133.42 311.26,-129.31 301.06,-126.43 301.49,-133.42"/>
</a>
</g>
</g>
<!-- Node39 -->
<g id="Node000039" class="node">
<title>Node39</title>
<g id="a_Node000039"><a xlink:href="kest__preset__view_8c.html#a7aa469a400baf1fdf82d314a2ad5ddbb" target="_top" xlink:title=" ">
<polygon fill="white" stroke="#666666" points="266,-173.75 169.75,-173.75 169.75,-153 266,-153 266,-173.75"/>
<text xml:space="preserve" text-anchor="middle" x="217.88" y="-160.25" font-family="Helvetica,sans-Serif" font-size="10.00">init_preset_view</text>
</a>
</g>
</g>
<!-- Node24&#45;&gt;Node39 -->
<g id="edge15_Node000024_Node000039" class="edge">
<title>Node24&#45;&gt;Node39</title>
<g id="a_edge15_Node000024_Node000039"><a xlink:title=" ">
<path fill="none" stroke="#63b8ff" d="M319.98,-138.82C301.44,-143.33 281.02,-148.29 263.41,-152.56"/>
<polygon fill="#63b8ff" stroke="#63b8ff" points="320.58,-142.28 329.48,-136.52 318.93,-135.48 320.58,-142.28"/>
</a>
</g>
</g>
<!-- Node39&#45;&gt;Node25 -->
<g id="edge16_Node000039_Node000025" class="edge">
<title>Node39&#45;&gt;Node25</title>
<g id="a_edge16_Node000039_Node000025"><a xlink:title=" ">
<path fill="none" stroke="#63b8ff" d="M158.2,-155.99C149.05,-154.83 139.56,-153.64 130.3,-152.47"/>
<polygon fill="#63b8ff" stroke="#63b8ff" points="157.69,-159.45 168.05,-157.23 158.57,-152.5 157.69,-159.45"/>
</a>
</g>
</g>
<!-- Node40&#45;&gt;Node39 -->
<g id="edge18_Node000040_Node000039" class="edge">
<title>Node40&#45;&gt;Node39</title>
<g id="a_edge18_Node000040_Node000039"><a xlink:title=" ">
<path fill="none" stroke="#63b8ff" d="M293.89,-163.85C284.48,-163.79 275.13,-163.73 266.38,-163.68"/>
<polygon fill="#63b8ff" stroke="#63b8ff" points="293.83,-167.35 303.85,-163.92 293.87,-160.35 293.83,-167.35"/>
</a>
</g>
</g>
<!-- Node36&#45;&gt;Node9 -->
<g id="edge20_Node000036_Node000009" class="edge">
<title>Node36&#45;&gt;Node9</title>
<g id="a_edge20_Node000036_Node000009"><a xlink:title=" ">
<path fill="none" stroke="#63b8ff" d="M490.28,-97.95C423.25,-90.64 328.17,-80.28 270.16,-73.96"/>
<polygon fill="#63b8ff" stroke="#63b8ff" points="489.79,-101.41 500.11,-99.02 490.55,-94.46 489.79,-101.41"/>
</a>
</g>
</g>
</g>
</svg>

<g id="navigator" transform="translate(0 0)" fill="#404254">
  <rect fill="#f2f5e9" fill-opacity="0.5" stroke="#606060" stroke-width=".5" x="0" y="0" width="60" height="60"/>
  <use id="zoomplus" xlink:href="#zoomPlus" x="17" y="9" onmousedown="handleZoom(evt,'in')"/>
  <use id="zoomminus" xlink:href="#zoomMin" x="42" y="9" onmousedown="handleZoom(evt,'out')"/>
  <use id="reset" xlink:href="#resetDef" x="30" y="36" onmousedown="handleReset()"/>
   <use id="arrowup" xlink:href="#arrowUp" x="0" y="0" onmousedown="handlePan(0,-1)"/>
  <use id="arrowright" xlink:href="#arrowRight" x="0" y="0" onmousedown="handlePan(1,0)"/>
  <use id="arrowdown" xlink:href="#arrowDown" x="0" y="0" onmousedown="handlePan(0,1)"/>
  <use id="arrowleft" xlink:href="#arrowLeft" x="0" y="0" onmousedown="handlePan(-1,0)"/>
</g>
<svg viewBox="0 0 15 15" width="100%" height="30px" preserveAspectRatio="xMaxYMin meet">
 <g id="arrow_out" transform="scale(0.3 0.3)">
  <a xlink:href="kest__ui_8h_a349acdb394f97d782e6b5828af856b05_icgraph_org.svg" target="_base">
   <rect id="button" ry="5" rx="5" y="6" x="6" height="38" width="38"
        fill="#f2f5e9" fill-opacity="0.5" stroke="#606060" stroke-width="1.0"/>
   <path id="arrow"
     d="M 11.500037,31.436501 C 11.940474,20.09759 22.043105,11.32322 32.158766,21.979434 L 37.068811,17.246167 C 37.068811,17.246167 37.088388,32 37.088388,32 L 22.160133,31.978069 C 22.160133,31.978069 26.997745,27.140456 26.997745,27.140456 C 18.528582,18.264221 13.291696,25.230495 11.500037,31.436501 z"
     style="fill:#404040;"/>
  </a>
 </g>
</svg>

<style type='text/css'>
<![CDATA[
[data-mouse-over-selected='false'] { opacity: 0.7; }
[data-mouse-over-selected='true']  { opacity: 1.0; }
]]>
</style>
<script type="application/ecmascript"><![CDATA[
document.addEventListener('DOMContentLoaded', (event) => {
  highlightEdges();
  highlightAdjacentNodes();
});
]]></script>
</svg>
