<?xml version="1.0" encoding="UTF-8" standalone="no"?>
<!DOCTYPE svg PUBLIC "-//W3C//DTD SVG 1.1//EN"
 "http://www.w3.org/Graphics/SVG/1.1/DTD/svg11.dtd">
<!-- Generated by graphviz version 13.1.2 (20250808.2320)
 -->
<!-- Title: preset_view_save_name Pages: 1 -->
<!--zoomable 197 -->

<svg id="main" version="1.1" xmlns="http://www.w3.org/2000/svg" xmlns:xlink="http://www.w3.org/1999/xlink" xml:space="preserve" onload="init(evt)">

<style type="text/css"><![CDATA[
.node, .edge {opacity: 0.7;}
.node.selected, .edge.selected {opacity: 1;}
.edge:hover path { stroke: red; }
.edge:hover polygon { stroke: red; fill: red; }
]]></style>

<defs>
  <circle id="rim" cx="0" cy="0" r="7"/>
  <circle id="rim2" cx="0" cy="0" r="3.5"/>
  <g id="zoomPlus">
    <use xlink:href="#rim" fill="#404040"><set attributeName="fill" to="#808080" begin="zoomplus.mouseover" end="zoomplus.mouseout"/></use>
    <path d="M-4,0h8M0,-4v8" fill="none" stroke="white" stroke-width="1.5" pointer-events="none"/>
  </g>
  <g id="zoomMin">
    <use xlink:href="#rim" fill="#404040"><set attributeName="fill" to="#808080" begin="zoomminus.mouseover" end="zoomminus.mouseout"/></use>
    <path d="M-4,0h8" fill="none" stroke="white" stroke-width="1.5" pointer-events="none"/>
  </g>
  <g id="arrowUp" transform="translate(30 24)">
    <use xlink:href="#rim"/>
    <path pointer-events="none" fill="none" stroke="white" stroke-width="1.5" d="M0,-3.0v7 M-2.5,-0.5L0,-3.0L2.5,-0.5"/>
  </g>
  <g id="arrowRight" transform="rotate(90) translate(36 -43)">
    <use xlink:href="#rim"/>
    <path pointer-events="none" fill="none" stroke="white" stroke-width="1.5" d="M0,-3.0v7 M-2.5,-0.5L0,-3.0L2.5,-0.5"/>
  </g>
  <g id="arrowDown" transform="rotate(180) translate(-30 -48)">
    <use xlink:href="#rim"/>
    <path pointer-events="none" fill="none" stroke="white" stroke-width="1.5" d="M0,-3.0v7 M-2.5,-0.5L0,-3.0L2.5,-0.5"/>
  </g>
  <g id="arrowLeft" transform="rotate(270) translate(-36 17)">
    <use xlink:href="#rim"/>
    <path pointer-events="none" fill="none" stroke="white" stroke-width="1.5" d="M0,-3.0v7 M-2.5,-0.5L0,-3.0L2.5,-0.5"/>
  </g>
  <g id="resetDef">
    <use xlink:href="#rim2" fill="#404040"><set attributeName="fill" to="#808080" begin="reset.mouseover" end="reset.mouseout"/></use>
  </g>
</defs>
<script type="application/ecmascript">
var viewWidth = 620;
var viewHeight = 197;
var sectionId = 'dynsection-27';
</script>
<script type="application/ecmascript" xlink:href="svg.min.js"/>
<svg id="graph" class="graph">
<g id="viewport">
<title>preset_view_save_name</title>
<!-- Node1 -->
<g id="Node000001" class="node">
<title>Node1</title>
<g id="a_Node000001"><a xlink:title=" ">
<polygon fill="#999999" stroke="#666666" points="136.75,-98.75 0,-98.75 0,-78 136.75,-78 136.75,-98.75"/>
<text xml:space="preserve" text-anchor="middle" x="68.38" y="-85.25" font-family="Helvetica,sans-Serif" font-size="10.00">preset_view_save_name</text>
</a>
</g>
</g>
<!-- Node2 -->
<g id="Node000002" class="node">
<title>Node2</title>
<g id="a_Node000002"><a xlink:href="kest__ui_8c.html#a449db99602c8ef93fb805362fec7fb1d" target="_top" xlink:title=" ">
<polygon fill="white" stroke="#666666" points="284.38,-188.75 197.12,-188.75 197.12,-168 284.38,-168 284.38,-188.75"/>
<text xml:space="preserve" text-anchor="middle" x="240.75" y="-175.25" font-family="Helvetica,sans-Serif" font-size="10.00">hide_keyboard</text>
</a>
</g>
</g>
<!-- Node1&#45;&gt;Node2 -->
<g id="edge1_Node000001_Node000002" class="edge">
<title>Node1&#45;&gt;Node2</title>
<g id="a_edge1_Node000001_Node000002"><a xlink:title=" ">
<path fill="none" stroke="#63b8ff" d="M81.92,-99.03C100.58,-114.38 137.28,-142.72 172.75,-159.38 177,-161.37 181.5,-163.2 186.07,-164.86"/>
<polygon fill="#63b8ff" stroke="#63b8ff" points="184.79,-168.12 195.38,-167.97 187,-161.48 184.79,-168.12"/>
</a>
</g>
</g>
<!-- Node4 -->
<g id="Node000004" class="node">
<title>Node4</title>
<g id="a_Node000004"><a xlink:href="kest__button_8c.html#a9899cf8789d635db3bb8b1d4c514e140" target="_top" xlink:title=" ">
<polygon fill="white" stroke="#666666" points="294.88,-150.12 186.62,-150.12 186.62,-116.62 294.88,-116.62 294.88,-150.12"/>
<text xml:space="preserve" text-anchor="start" x="194.62" y="-136.62" font-family="Helvetica,sans-Serif" font-size="10.00">kest_active_button</text>
<text xml:space="preserve" text-anchor="middle" x="240.75" y="-123.88" font-family="Helvetica,sans-Serif" font-size="10.00">_change_label</text>
</a>
</g>
</g>
<!-- Node1&#45;&gt;Node4 -->
<g id="edge3_Node000001_Node000004" class="edge">
<title>Node1&#45;&gt;Node4</title>
<g id="a_edge3_Node000001_Node000004"><a xlink:title=" ">
<path fill="none" stroke="#63b8ff" d="M110.18,-99.15C129.72,-104.31 153.58,-110.62 175.48,-116.4"/>
<polygon fill="#63b8ff" stroke="#63b8ff" points="174.35,-119.72 184.91,-118.89 176.14,-112.95 174.35,-119.72"/>
</a>
</g>
</g>
<!-- Node7 -->
<g id="Node000007" class="node">
<title>Node7</title>
<g id="a_Node000007"><a xlink:href="kest__alloc_8c.html#a294af5728a94aa316fcf65304d388d48" target="_top" xlink:title=" ">
<polygon fill="white" stroke="#666666" points="271.25,-98.75 210.25,-98.75 210.25,-78 271.25,-78 271.25,-98.75"/>
<text xml:space="preserve" text-anchor="middle" x="240.75" y="-85.25" font-family="Helvetica,sans-Serif" font-size="10.00">kest_free</text>
</a>
</g>
</g>
<!-- Node1&#45;&gt;Node7 -->
<g id="edge6_Node000001_Node000007" class="edge">
<title>Node1&#45;&gt;Node7</title>
<g id="a_edge6_Node000001_Node000007"><a xlink:title=" ">
<path fill="none" stroke="#63b8ff" d="M137.2,-88.38C157.91,-88.38 180.04,-88.38 198.43,-88.38"/>
<polygon fill="#63b8ff" stroke="#63b8ff" points="198.4,-91.88 208.4,-88.38 198.4,-84.88 198.4,-91.88"/>
</a>
</g>
</g>
<!-- Node8 -->
<g id="Node000008" class="node">
<title>Node8</title>
<g id="a_Node000008"><a xlink:href="kest__file__task_8c.html#ac3b15345565620ef82e718bed7688b36" target="_top" xlink:title=" ">
<polygon fill="white" stroke="#666666" points="308.75,-59.75 172.75,-59.75 172.75,-39 308.75,-39 308.75,-59.75"/>
<text xml:space="preserve" text-anchor="middle" x="240.75" y="-46.25" font-family="Helvetica,sans-Serif" font-size="10.00">kest_queue_preset_save</text>
</a>
</g>
</g>
<!-- Node1&#45;&gt;Node8 -->
<g id="edge7_Node000001_Node000008" class="edge">
<title>Node1&#45;&gt;Node8</title>
<g id="a_edge7_Node000001_Node000008"><a xlink:title=" ">
<path fill="none" stroke="#63b8ff" d="M116.83,-77.51C136.78,-72.95 160.19,-67.59 181.19,-62.78"/>
<polygon fill="#63b8ff" stroke="#63b8ff" points="181.81,-66.23 190.77,-60.59 180.25,-59.41 181.81,-66.23"/>
</a>
</g>
</g>
<!-- Node9 -->
<g id="Node000009" class="node">
<title>Node9</title>
<g id="a_Node000009"><a xlink:href="kest__alloc_8c.html#aed9ede1276c1ab3b4042c264ce64a3d2" target="_top" xlink:title=" ">
<polygon fill="white" stroke="#666666" points="279.88,-20.75 201.62,-20.75 201.62,0 279.88,0 279.88,-20.75"/>
<text xml:space="preserve" text-anchor="middle" x="240.75" y="-7.25" font-family="Helvetica,sans-Serif" font-size="10.00">kest_strndup</text>
</a>
</g>
</g>
<!-- Node1&#45;&gt;Node9 -->
<g id="edge8_Node000001_Node000009" class="edge">
<title>Node1&#45;&gt;Node9</title>
<g id="a_edge8_Node000001_Node000009"><a xlink:title=" ">
<path fill="none" stroke="#63b8ff" d="M85.98,-77.53C105.93,-64.87 140.73,-43.94 172.75,-30.38 178.41,-27.98 184.45,-25.75 190.5,-23.71"/>
<polygon fill="#63b8ff" stroke="#63b8ff" points="191.42,-27.09 199.88,-20.72 189.29,-20.42 191.42,-27.09"/>
</a>
</g>
</g>
<!-- Node3 -->
<g id="Node000003" class="node">
<title>Node3</title>
<g id="a_Node000003"><a xlink:href="kest__ui_8c.html#a96fe008303dd9cb0c877ce05cba93952" target="_top" xlink:title=" ">
<polygon fill="white" stroke="#666666" points="454.5,-188.75 357.5,-188.75 357.5,-168 454.5,-168 454.5,-188.75"/>
<text xml:space="preserve" text-anchor="middle" x="406" y="-175.25" font-family="Helvetica,sans-Serif" font-size="10.00">delete_keyboard</text>
</a>
</g>
</g>
<!-- Node2&#45;&gt;Node3 -->
<g id="edge2_Node000002_Node000003" class="edge">
<title>Node2&#45;&gt;Node3</title>
<g id="a_edge2_Node000002_Node000003"><a xlink:title=" ">
<path fill="none" stroke="#63b8ff" d="M284.64,-178.38C303.37,-178.38 325.63,-178.38 345.89,-178.38"/>
<polygon fill="#63b8ff" stroke="#63b8ff" points="345.71,-181.88 355.71,-178.38 345.71,-174.88 345.71,-181.88"/>
</a>
</g>
</g>
<!-- Node5 -->
<g id="Node000005" class="node">
<title>Node5</title>
<g id="a_Node000005"><a xlink:href="kest__button_8c.html#ac24f7930db96a5006a81ec8255ad0e6c" target="_top" xlink:title=" ">
<polygon fill="white" stroke="#666666" points="467.25,-143.75 344.75,-143.75 344.75,-123 467.25,-123 467.25,-143.75"/>
<text xml:space="preserve" text-anchor="middle" x="406" y="-130.25" font-family="Helvetica,sans-Serif" font-size="10.00">kest_button_set_label</text>
</a>
</g>
</g>
<!-- Node4&#45;&gt;Node5 -->
<g id="edge4_Node000004_Node000005" class="edge">
<title>Node4&#45;&gt;Node5</title>
<g id="a_edge4_Node000004_Node000005"><a xlink:title=" ">
<path fill="none" stroke="#63b8ff" d="M295.2,-133.38C307.24,-133.38 320.2,-133.38 332.85,-133.38"/>
<polygon fill="#63b8ff" stroke="#63b8ff" points="332.84,-136.88 342.84,-133.38 332.84,-129.88 332.84,-136.88"/>
</a>
</g>
</g>
<!-- Node6 -->
<g id="Node000006" class="node">
<title>Node6</title>
<g id="a_Node000006"><a xlink:href="kest__button_8c.html#a56b5c7012f627d4d3f454029e26f1bef" target="_top" xlink:title=" ">
<polygon fill="white" stroke="#666666" points="612.25,-150.12 503.25,-150.12 503.25,-116.62 612.25,-116.62 612.25,-150.12"/>
<text xml:space="preserve" text-anchor="start" x="511.25" y="-136.62" font-family="Helvetica,sans-Serif" font-size="10.00">kest_button_create</text>
<text xml:space="preserve" text-anchor="middle" x="557.75" y="-123.88" font-family="Helvetica,sans-Serif" font-size="10.00">_label_ui</text>
</a>
</g>
</g>
<!-- Node5&#45;&gt;Node6 -->
<g id="edge5_Node000005_Node000006" class="edge">
<title>Node5&#45;&gt;Node6</title>
<g id="a_edge5_Node000005_Node000006"><a xlink:title=" ">
<path fill="none" stroke="#63b8ff" d="M467.48,-133.38C475.33,-133.38 483.4,-133.38 491.33,-133.38"/>
<polygon fill="#63b8ff" stroke="#63b8ff" points="491.29,-136.88 501.29,-133.38 491.29,-129.88 491.29,-136.88"/>
</a>
</g>
</g>
<!-- Node10 -->
<g id="Node000010" class="node">
<title>Node10</title>
<g id="a_Node000010"><a xlink:href="kest__alloc_8c.html#a849755c5dc5b35e712ffcdb602e50fb4" target="_top" xlink:title=" ">
<polygon fill="white" stroke="#666666" points="438.38,-20.75 373.62,-20.75 373.62,0 438.38,0 438.38,-20.75"/>
<text xml:space="preserve" text-anchor="middle" x="406" y="-7.25" font-family="Helvetica,sans-Serif" font-size="10.00">kest_alloc</text>
</a>
</g>
</g>
<!-- Node9&#45;&gt;Node10 -->
<g id="edge9_Node000009_Node000010" class="edge">
<title>Node9&#45;&gt;Node10</title>
<g id="a_edge9_Node000009_Node000010"><a xlink:title=" ">
<path fill="none" stroke="#63b8ff" d="M280.02,-10.38C304.62,-10.38 336.62,-10.38 362.08,-10.38"/>
<polygon fill="#63b8ff" stroke="#63b8ff" points="361.76,-13.88 371.76,-10.38 361.76,-6.88 361.76,-13.88"/>
</a>
</g>
</g>
</g>
</svg>

<g id="navigator" transform="translate(0 0)" fill="#404254">
  <rect fill="#f2f5e9" fill-opacity="0.5" stroke="#606060" stroke-width=".5" x="0" y="0" width="60" height="60"/>
  <use id="zoomplus" xlink:href="#zoomPlus" x="17" y="9" onmousedown="handleZoom(evt,'in')"/>
  <use id="zoomminus" xlink:href="#zoomMin" x="42" y="9" onmousedown="handleZoom(evt,'out')"/>
  <use id="reset" xlink:href="#resetDef" x="30" y="36" onmousedown="handleReset()"/>
   <use id="arrowup" xlink:href="#arrowUp" x="0" y="0" onmousedown="handlePan(0,-1)"/>
  <use id="arrowright" xlink:href="#arrowRight" x="0" y="0" onmousedown="handlePan(1,0)"/>
  <use id="arrowdown" xlink:href="#arrowDown" x="0" y="0" onmousedown="handlePan(0,1)"/>
  <use id="arrowleft" xlink:href="#arrowLeft" x="0" y="0" onmousedown="handlePan(-1,0)"/>
</g>
<svg viewBox="0 0 15 15" width="100%" height="30px" preserveAspectRatio="xMaxYMin meet">
 <g id="arrow_out" transform="scale(0.3 0.3)">
  <a xlink:href="kest__preset__view_8c_ade89bd7d1c6c48f2a18f8ae54a703029_cgraph_org.svg" target="_base">
   <rect id="button" ry="5" rx="5" y="6" x="6" height="38" width="38"
        fill="#f2f5e9" fill-opacity="0.5" stroke="#606060" stroke-width="1.0"/>
   <path id="arrow"
     d="M 11.500037,31.436501 C 11.940474,20.09759 22.043105,11.32322 32.158766,21.979434 L 37.068811,17.246167 C 37.068811,17.246167 37.088388,32 37.088388,32 L 22.160133,31.978069 C 22.160133,31.978069 26.997745,27.140456 26.997745,27.140456 C 18.528582,18.264221 13.291696,25.230495 11.500037,31.436501 z"
     style="fill:#404040;"/>
  </a>
 </g>
</svg>

<style type='text/css'>
<![CDATA[
[data-mouse-over-selected='false'] { opacity: 0.7; }
[data-mouse-over-selected='true']  { opacity: 1.0; }
]]>
</style>
<script type="application/ecmascript"><![CDATA[
document.addEventListener('DOMContentLoaded', (event) => {
  highlightEdges();
  highlightAdjacentNodes();
});
]]></script>
</svg>
