<?xml version="1.0" encoding="UTF-8" standalone="no"?>
<!DOCTYPE svg PUBLIC "-//W3C//DTD SVG 1.1//EN"
 "http://www.w3.org/Graphics/SVG/1.1/DTD/svg11.dtd">
<!-- Generated by graphviz version 13.1.2 (20250808.2320)
 -->
<!-- Title: kest_interval_real_line Pages: 1 -->
<!--zoomable 138 -->

<svg id="main" version="1.1" xmlns="http://www.w3.org/2000/svg" xmlns:xlink="http://www.w3.org/1999/xlink" xml:space="preserve" onload="init(evt)">

<style type="text/css"><![CDATA[
.node, .edge {opacity: 0.7;}
.node.selected, .edge.selected {opacity: 1;}
.edge:hover path { stroke: red; }
.edge:hover polygon { stroke: red; fill: red; }
]]></style>

<defs>
  <circle id="rim" cx="0" cy="0" r="7"/>
  <circle id="rim2" cx="0" cy="0" r="3.5"/>
  <g id="zoomPlus">
    <use xlink:href="#rim" fill="#404040"><set attributeName="fill" to="#808080" begin="zoomplus.mouseover" end="zoomplus.mouseout"/></use>
    <path d="M-4,0h8M0,-4v8" fill="none" stroke="white" stroke-width="1.5" pointer-events="none"/>
  </g>
  <g id="zoomMin">
    <use xlink:href="#rim" fill="#404040"><set attributeName="fill" to="#808080" begin="zoomminus.mouseover" end="zoomminus.mouseout"/></use>
    <path d="M-4,0h8" fill="none" stroke="white" stroke-width="1.5" pointer-events="none"/>
  </g>
  <g id="arrowUp" transform="translate(30 24)">
    <use xlink:href="#rim"/>
    <path pointer-events="none" fill="none" stroke="white" stroke-width="1.5" d="M0,-3.0v7 M-2.5,-0.5L0,-3.0L2.5,-0.5"/>
  </g>
  <g id="arrowRight" transform="rotate(90) translate(36 -43)">
    <use xlink:href="#rim"/>
    <path pointer-events="none" fill="none" stroke="white" stroke-width="1.5" d="M0,-3.0v7 M-2.5,-0.5L0,-3.0L2.5,-0.5"/>
  </g>
  <g id="arrowDown" transform="rotate(180) translate(-30 -48)">
    <use xlink:href="#rim"/>
    <path pointer-events="none" fill="none" stroke="white" stroke-width="1.5" d="M0,-3.0v7 M-2.5,-0.5L0,-3.0L2.5,-0.5"/>
  </g>
  <g id="arrowLeft" transform="rotate(270) translate(-36 17)">
    <use xlink:href="#rim"/>
    <path pointer-events="none" fill="none" stroke="white" stroke-width="1.5" d="M0,-3.0v7 M-2.5,-0.5L0,-3.0L2.5,-0.5"/>
  </g>
  <g id="resetDef">
    <use xlink:href="#rim2" fill="#404040"><set attributeName="fill" to="#808080" begin="reset.mouseover" end="reset.mouseout"/></use>
  </g>
</defs>
<script type="application/ecmascript">
var viewWidth = 674;
var viewHeight = 138;
var sectionId = 'dynsection-40';
</script>
<script type="application/ecmascript" xlink:href="svg.min.js"/>
<svg id="graph" class="graph">
<g id="viewport">
<title>kest_interval_real_line</title>
<!-- Node1 -->
<g id="Node000001" class="node">
<title>Node1</title>
<g id="a_Node000001"><a xlink:title=" ">
<polygon fill="#999999" stroke="#666666" points="665.5,-79.12 539.25,-79.12 539.25,-58.38 665.5,-58.38 665.5,-79.12"/>
<text xml:space="preserve" text-anchor="middle" x="602.38" y="-65.62" font-family="Helvetica,sans-Serif" font-size="10.00">kest_interval_real_line</text>
</a>
</g>
</g>
<!-- Node2 -->
<g id="Node000002" class="node">
<title>Node2</title>
<g id="a_Node000002"><a xlink:href="kest__expression_8c.html#a146f5c5c8ecc02be0e5e695cbbc10f10" target="_top" xlink:title=" ">
<polygon fill="white" stroke="#666666" points="503.25,-111.5 360.5,-111.5 360.5,-78 503.25,-78 503.25,-111.5"/>
<text xml:space="preserve" text-anchor="start" x="368.5" y="-98" font-family="Helvetica,sans-Serif" font-size="10.00">kest_expression_compute</text>
<text xml:space="preserve" text-anchor="middle" x="431.88" y="-85.25" font-family="Helvetica,sans-Serif" font-size="10.00">_range_rec</text>
</a>
</g>
</g>
<!-- Node1&#45;&gt;Node2 -->
<g id="edge1_Node000001_Node000002" class="edge">
<title>Node1&#45;&gt;Node2</title>
<g id="a_edge1_Node000001_Node000002"><a xlink:title=" ">
<path fill="none" stroke="#63b8ff" d="M527.88,-80.09C519.85,-81.33 511.69,-82.59 503.69,-83.82"/>
<polygon fill="#63b8ff" stroke="#63b8ff" points="528.27,-83.57 537.61,-78.59 527.2,-76.65 528.27,-83.57"/>
</a>
</g>
</g>
<!-- Node4 -->
<g id="Node000004" class="node">
<title>Node4</title>
<g id="a_Node000004"><a xlink:href="kest__parameter_8c.html#a7cf51c19ac7f4f01c97a788a7365c889" target="_top" xlink:title=" ">
<polygon fill="white" stroke="#666666" points="488.62,-59.5 375.12,-59.5 375.12,-26 488.62,-26 488.62,-59.5"/>
<text xml:space="preserve" text-anchor="start" x="383.12" y="-46" font-family="Helvetica,sans-Serif" font-size="10.00">kest_parameter_get</text>
<text xml:space="preserve" text-anchor="middle" x="431.88" y="-33.25" font-family="Helvetica,sans-Serif" font-size="10.00">_range_rec</text>
</a>
</g>
</g>
<!-- Node1&#45;&gt;Node4 -->
<g id="edge4_Node000001_Node000004" class="edge">
<title>Node1&#45;&gt;Node4</title>
<g id="a_edge4_Node000001_Node000004"><a xlink:title=" ">
<path fill="none" stroke="#63b8ff" d="M527.81,-57.4C514.81,-55.39 501.46,-53.33 489.04,-51.42"/>
<polygon fill="#63b8ff" stroke="#63b8ff" points="527.2,-60.85 537.61,-58.91 528.27,-53.93 527.2,-60.85"/>
</a>
</g>
</g>
<!-- Node2&#45;&gt;Node2 -->
<g id="edge3_Node000002_Node000002" class="edge">
<title>Node2&#45;&gt;Node2</title>
<g id="a_edge3_Node000002_Node000002"><a xlink:title=" ">
<path fill="none" stroke="#63b8ff" d="M460.5,-122.89C455.84,-126.85 446.3,-129.5 431.88,-129.5 406.23,-129.5 396.02,-121.12 401.23,-111.91"/>
<polygon fill="#63b8ff" stroke="#63b8ff" points="463.88,-123.87 462.25,-113.4 457,-122.6 463.88,-123.87"/>
</a>
</g>
</g>
<!-- Node3 -->
<g id="Node000003" class="node">
<title>Node3</title>
<g id="a_Node000003"><a xlink:href="kest__expression_8c.html#a619ffc9c55b8a65d5681d740b8738598" target="_top" xlink:title=" ">
<polygon fill="white" stroke="#666666" points="324.5,-111.5 181.75,-111.5 181.75,-78 324.5,-78 324.5,-111.5"/>
<text xml:space="preserve" text-anchor="start" x="189.75" y="-98" font-family="Helvetica,sans-Serif" font-size="10.00">kest_expression_compute</text>
<text xml:space="preserve" text-anchor="middle" x="253.12" y="-85.25" font-family="Helvetica,sans-Serif" font-size="10.00">_range</text>
</a>
</g>
</g>
<!-- Node2&#45;&gt;Node3 -->
<g id="edge2_Node000002_Node000003" class="edge">
<title>Node2&#45;&gt;Node3</title>
<g id="a_edge2_Node000002_Node000003"><a xlink:title=" ">
<path fill="none" stroke="#63b8ff" d="M348.73,-94.75C340.71,-94.75 332.62,-94.75 324.73,-94.75"/>
<polygon fill="#63b8ff" stroke="#63b8ff" points="348.49,-98.25 358.49,-94.75 348.49,-91.25 348.49,-98.25"/>
</a>
</g>
</g>
<!-- Node5 -->
<g id="Node000005" class="node">
<title>Node5</title>
<g id="a_Node000005"><a xlink:href="kest__parameter_8c.html#aed9bf2d04b704f1d4119124999a692e0" target="_top" xlink:title=" ">
<polygon fill="white" stroke="#666666" points="309.88,-59.5 196.38,-59.5 196.38,-26 309.88,-26 309.88,-59.5"/>
<text xml:space="preserve" text-anchor="start" x="204.38" y="-46" font-family="Helvetica,sans-Serif" font-size="10.00">kest_parameter_get</text>
<text xml:space="preserve" text-anchor="middle" x="253.12" y="-33.25" font-family="Helvetica,sans-Serif" font-size="10.00">_range</text>
</a>
</g>
</g>
<!-- Node4&#45;&gt;Node5 -->
<g id="edge5_Node000004_Node000005" class="edge">
<title>Node4&#45;&gt;Node5</title>
<g id="a_edge5_Node000004_Node000005"><a xlink:title=" ">
<path fill="none" stroke="#63b8ff" d="M363.59,-42.75C346.01,-42.75 327.23,-42.75 310.29,-42.75"/>
<polygon fill="#63b8ff" stroke="#63b8ff" points="363.44,-46.25 373.44,-42.75 363.44,-39.25 363.44,-46.25"/>
</a>
</g>
</g>
<!-- Node6 -->
<g id="Node000006" class="node">
<title>Node6</title>
<g id="a_Node000006"><a xlink:href="kest__parameter__widget_8c.html#af94dfc8bbb394e3264533d794d147e95" target="_top" xlink:title=" ">
<polygon fill="#fff0f0" stroke="red" points="145.75,-85.5 0,-85.5 0,-52 145.75,-52 145.75,-85.5"/>
<text xml:space="preserve" text-anchor="start" x="8" y="-72" font-family="Helvetica,sans-Serif" font-size="10.00">parameter_widget_change</text>
<text xml:space="preserve" text-anchor="middle" x="72.88" y="-59.25" font-family="Helvetica,sans-Serif" font-size="10.00">_cb_inner</text>
</a>
</g>
</g>
<!-- Node5&#45;&gt;Node6 -->
<g id="edge6_Node000005_Node000006" class="edge">
<title>Node5&#45;&gt;Node6</title>
<g id="a_edge6_Node000005_Node000006"><a xlink:title=" ">
<path fill="none" stroke="#63b8ff" d="M185.16,-52.52C172.36,-54.38 158.91,-56.35 145.96,-58.24"/>
<polygon fill="#63b8ff" stroke="#63b8ff" points="185.33,-56.03 194.72,-51.12 184.32,-49.1 185.33,-56.03"/>
</a>
</g>
</g>
<!-- Node61 -->
<g id="Node000061" class="node">
<title>Node61</title>
<g id="a_Node000061"><a xlink:href="kest__parameter__widget_8c.html#abad910124e9bf706a008ab86f8bf70e6" target="_top" xlink:title=" ">
<polygon fill="#fff0f0" stroke="red" points="145,-33.5 0.75,-33.5 0.75,0 145,0 145,-33.5"/>
<text xml:space="preserve" text-anchor="start" x="8.75" y="-20" font-family="Helvetica,sans-Serif" font-size="10.00">parameter_widget_update</text>
<text xml:space="preserve" text-anchor="middle" x="72.88" y="-7.25" font-family="Helvetica,sans-Serif" font-size="10.00">_value</text>
</a>
</g>
</g>
<!-- Node5&#45;&gt;Node61 -->
<g id="edge7_Node000005_Node000061" class="edge">
<title>Node5&#45;&gt;Node61</title>
<g id="a_edge7_Node000005_Node000061"><a xlink:title=" ">
<path fill="none" stroke="#63b8ff" d="M185.02,-32.96C172.05,-31.07 158.42,-29.08 145.32,-27.17"/>
<polygon fill="#63b8ff" stroke="#63b8ff" points="184.32,-36.4 194.72,-34.38 185.33,-29.47 184.32,-36.4"/>
</a>
</g>
</g>
</g>
</svg>

<g id="navigator" transform="translate(0 0)" fill="#404254">
  <rect fill="#f2f5e9" fill-opacity="0.5" stroke="#606060" stroke-width=".5" x="0" y="0" width="60" height="60"/>
  <use id="zoomplus" xlink:href="#zoomPlus" x="17" y="9" onmousedown="handleZoom(evt,'in')"/>
  <use id="zoomminus" xlink:href="#zoomMin" x="42" y="9" onmousedown="handleZoom(evt,'out')"/>
  <use id="reset" xlink:href="#resetDef" x="30" y="36" onmousedown="handleReset()"/>
   <use id="arrowup" xlink:href="#arrowUp" x="0" y="0" onmousedown="handlePan(0,-1)"/>
  <use id="arrowright" xlink:href="#arrowRight" x="0" y="0" onmousedown="handlePan(1,0)"/>
  <use id="arrowdown" xlink:href="#arrowDown" x="0" y="0" onmousedown="handlePan(0,1)"/>
  <use id="arrowleft" xlink:href="#arrowLeft" x="0" y="0" onmousedown="handlePan(-1,0)"/>
</g>
<svg viewBox="0 0 15 15" width="100%" height="30px" preserveAspectRatio="xMaxYMin meet">
 <g id="arrow_out" transform="scale(0.3 0.3)">
  <a xlink:href="kest__expression_8h_a8831b010403eeba4bddedca70a446ce1_icgraph_org.svg" target="_base">
   <rect id="button" ry="5" rx="5" y="6" x="6" height="38" width="38"
        fill="#f2f5e9" fill-opacity="0.5" stroke="#606060" stroke-width="1.0"/>
   <path id="arrow"
     d="M 11.500037,31.436501 C 11.940474,20.09759 22.043105,11.32322 32.158766,21.979434 L 37.068811,17.246167 C 37.068811,17.246167 37.088388,32 37.088388,32 L 22.160133,31.978069 C 22.160133,31.978069 26.997745,27.140456 26.997745,27.140456 C 18.528582,18.264221 13.291696,25.230495 11.500037,31.436501 z"
     style="fill:#404040;"/>
  </a>
 </g>
</svg>

<style type='text/css'>
<![CDATA[
[data-mouse-over-selected='false'] { opacity: 0.7; }
[data-mouse-over-selected='true']  { opacity: 1.0; }
]]>
</style>
<script type="application/ecmascript"><![CDATA[
document.addEventListener('DOMContentLoaded', (event) => {
  highlightEdges();
  highlightAdjacentNodes();
});
]]></script>
</svg>
