<?xml version="1.0" encoding="UTF-8" standalone="no"?>
<!DOCTYPE svg PUBLIC "-//W3C//DTD SVG 1.1//EN"
 "http://www.w3.org/Graphics/SVG/1.1/DTD/svg11.dtd">
<!-- Generated by graphviz version 13.1.2 (20250808.2320)
 -->
<!-- Title: kest_fpga_get_block_reg Pages: 1 -->
<svg width="758pt" height="142pt"
 viewBox="0.00 0.00 758.00 142.00" xmlns="http://www.w3.org/2000/svg" xmlns:xlink="http://www.w3.org/1999/xlink">
<g id="graph0" class="graph" transform="scale(1 1) rotate(0) translate(4 138.35)">
<title>kest_fpga_get_block_reg</title>
<!-- Node1 -->
<g id="Node000001" class="node">
<title>Node1</title>
<g id="a_Node000001"><a xlink:title=" ">
<polygon fill="#999999" stroke="#666666" points="136.75,-65.75 0,-65.75 0,-45 136.75,-45 136.75,-65.75"/>
<text xml:space="preserve" text-anchor="middle" x="68.38" y="-52.25" font-family="Helvetica,sans-Serif" font-size="10.00">kest_fpga_get_block_reg</text>
</a>
</g>
</g>
<!-- Node2 -->
<g id="Node000002" class="node">
<title>Node2</title>
<g id="a_Node000002"><a xlink:href="kest__fpga__io_8c.html#a719a57c264d7a923dfbaa6b1fa44d633" target="_top" xlink:title=" ">
<polygon fill="white" stroke="#666666" points="295.25,-65.75 172.75,-65.75 172.75,-45 295.25,-45 295.25,-65.75"/>
<text xml:space="preserve" text-anchor="middle" x="234" y="-52.25" font-family="Helvetica,sans-Serif" font-size="10.00">kest_fpga_req_data_p</text>
</a>
</g>
</g>
<!-- Node1&#45;&gt;Node2 -->
<g id="edge1_Node000001_Node000002" class="edge">
<title>Node1&#45;&gt;Node2</title>
<g id="a_edge1_Node000001_Node000002"><a xlink:title=" ">
<path fill="none" stroke="#63b8ff" d="M136.87,-55.38C144.89,-55.38 153.1,-55.38 161.17,-55.38"/>
<polygon fill="#63b8ff" stroke="#63b8ff" points="160.95,-58.88 170.95,-55.38 160.95,-51.88 160.95,-58.88"/>
</a>
</g>
</g>
<!-- Node3 -->
<g id="Node000003" class="node">
<title>Node3</title>
<g id="a_Node000003"><a xlink:href="kest__fpga__io_8c.html#abe57698adf89b8e9d87f4beca9077c9a" target="_top" xlink:title=" ">
<polygon fill="white" stroke="#666666" points="450.75,-72.12 331.25,-72.12 331.25,-38.62 450.75,-38.62 450.75,-72.12"/>
<text xml:space="preserve" text-anchor="start" x="339.25" y="-58.62" font-family="Helvetica,sans-Serif" font-size="10.00">kest_fpga_get_status</text>
<text xml:space="preserve" text-anchor="middle" x="391" y="-45.88" font-family="Helvetica,sans-Serif" font-size="10.00">_flags</text>
</a>
</g>
</g>
<!-- Node2&#45;&gt;Node3 -->
<g id="edge2_Node000002_Node000003" class="edge">
<title>Node2&#45;&gt;Node3</title>
<g id="a_edge2_Node000002_Node000003"><a xlink:title=" ">
<path fill="none" stroke="#63b8ff" d="M295.37,-55.38C303.29,-55.38 311.45,-55.38 319.52,-55.38"/>
<polygon fill="#63b8ff" stroke="#63b8ff" points="319.3,-58.88 329.3,-55.38 319.3,-51.88 319.3,-58.88"/>
</a>
</g>
</g>
<!-- Node7 -->
<g id="Node000007" class="node">
<title>Node7</title>
<g id="a_Node000007"><a xlink:href="kest__fpga__io_8c.html#ab14e474da760b9f53277d51557a0a9d3" target="_top" xlink:title=" ">
<polygon fill="white" stroke="#666666" points="609.25,-20.75 503.25,-20.75 503.25,0 609.25,0 609.25,-20.75"/>
<text xml:space="preserve" text-anchor="middle" x="556.25" y="-7.25" font-family="Helvetica,sans-Serif" font-size="10.00">kest_fpga_readout</text>
</a>
</g>
</g>
<!-- Node2&#45;&gt;Node7 -->
<g id="edge6_Node000002_Node000007" class="edge">
<title>Node2&#45;&gt;Node7</title>
<g id="a_edge6_Node000002_Node000007"><a xlink:title=" ">
<path fill="none" stroke="#63b8ff" d="M268.96,-44.6C287.24,-39.21 310.28,-33.07 331.25,-29.38 384.82,-19.95 446.45,-15.15 491.49,-12.74"/>
<polygon fill="#63b8ff" stroke="#63b8ff" points="491.54,-16.24 501.35,-12.24 491.18,-9.25 491.54,-16.24"/>
</a>
</g>
</g>
<!-- Node8 -->
<g id="Node000008" class="node">
<title>Node8</title>
<g id="a_Node000008"><a xlink:href="kest__fpga__io_8c.html#a00a4bbec92692e8a9a447b375616efa1" target="_top" xlink:title=" ">
<polygon fill="white" stroke="#666666" points="450.38,-124.12 331.62,-124.12 331.62,-90.62 450.38,-90.62 450.38,-124.12"/>
<text xml:space="preserve" text-anchor="start" x="339.62" y="-110.62" font-family="Helvetica,sans-Serif" font-size="10.00">kest_fpga_send_byte</text>
<text xml:space="preserve" text-anchor="middle" x="391" y="-97.88" font-family="Helvetica,sans-Serif" font-size="10.00">_get_flags</text>
</a>
</g>
</g>
<!-- Node2&#45;&gt;Node8 -->
<g id="edge8_Node000002_Node000008" class="edge">
<title>Node2&#45;&gt;Node8</title>
<g id="a_edge8_Node000002_Node000008"><a xlink:title=" ">
<path fill="none" stroke="#63b8ff" d="M267.12,-66.15C284.71,-72.05 307.12,-79.57 327.98,-86.57"/>
<polygon fill="#63b8ff" stroke="#63b8ff" points="326.68,-89.82 337.27,-89.68 328.9,-83.19 326.68,-89.82"/>
</a>
</g>
</g>
<!-- Node4 -->
<g id="Node000004" class="node">
<title>Node4</title>
<g id="a_Node000004"><a xlink:href="kest__fpga__io_8c.html#a688987fc53c1295119933650d3a19776" target="_top" xlink:title=" ">
<polygon fill="white" stroke="#666666" points="625.75,-111.12 486.75,-111.12 486.75,-77.62 625.75,-77.62 625.75,-111.12"/>
<text xml:space="preserve" text-anchor="start" x="494.75" y="-97.62" font-family="Helvetica,sans-Serif" font-size="10.00">kest_fpga_decode_status</text>
<text xml:space="preserve" text-anchor="middle" x="556.25" y="-84.88" font-family="Helvetica,sans-Serif" font-size="10.00">_flags</text>
</a>
</g>
</g>
<!-- Node3&#45;&gt;Node4 -->
<g id="edge3_Node000003_Node000004" class="edge">
<title>Node3&#45;&gt;Node4</title>
<g id="a_edge3_Node000003_Node000004"><a xlink:title=" ">
<path fill="none" stroke="#63b8ff" d="M450.94,-69.45C458.85,-71.34 467.07,-73.31 475.27,-75.27"/>
<polygon fill="#63b8ff" stroke="#63b8ff" points="474.39,-78.66 484.93,-77.58 476.02,-71.85 474.39,-78.66"/>
</a>
</g>
</g>
<!-- Node5 -->
<g id="Node000005" class="node">
<title>Node5</title>
<g id="a_Node000005"><a xlink:href="kest__fpga__io_8c.html#ab908dedc52b0ca9107f52f74ab7860c6" target="_top" xlink:title=" ">
<polygon fill="white" stroke="#666666" points="614.88,-59.75 497.62,-59.75 497.62,-39 614.88,-39 614.88,-59.75"/>
<text xml:space="preserve" text-anchor="middle" x="556.25" y="-46.25" font-family="Helvetica,sans-Serif" font-size="10.00">kest_fpga_read_byte</text>
</a>
</g>
</g>
<!-- Node3&#45;&gt;Node5 -->
<g id="edge4_Node000003_Node000005" class="edge">
<title>Node3&#45;&gt;Node5</title>
<g id="a_edge4_Node000003_Node000005"><a xlink:title=" ">
<path fill="none" stroke="#63b8ff" d="M450.94,-53.21C462.24,-52.79 474.17,-52.35 485.77,-51.93"/>
<polygon fill="#63b8ff" stroke="#63b8ff" points="485.84,-55.43 495.71,-51.56 485.59,-48.43 485.84,-55.43"/>
</a>
</g>
</g>
<!-- Node6 -->
<g id="Node000006" class="node">
<title>Node6</title>
<g id="a_Node000006"><a xlink:href="kest__fpga__io_8c.html#a2fe46577ece371a5fc9834bc59390913" target="_top" xlink:title=" ">
<polygon fill="white" stroke="#666666" points="749.75,-59.75 661.75,-59.75 661.75,-39 749.75,-39 749.75,-59.75"/>
<text xml:space="preserve" text-anchor="middle" x="705.75" y="-46.25" font-family="Helvetica,sans-Serif" font-size="10.00">kest_fpga_txrx</text>
</a>
</g>
</g>
<!-- Node5&#45;&gt;Node6 -->
<g id="edge5_Node000005_Node000006" class="edge">
<title>Node5&#45;&gt;Node6</title>
<g id="a_edge5_Node000005_Node000006"><a xlink:title=" ">
<path fill="none" stroke="#63b8ff" d="M615.12,-49.38C626.74,-49.38 638.92,-49.38 650.42,-49.38"/>
<polygon fill="#63b8ff" stroke="#63b8ff" points="650.13,-52.88 660.13,-49.38 650.13,-45.88 650.13,-52.88"/>
</a>
</g>
</g>
<!-- Node7&#45;&gt;Node6 -->
<g id="edge7_Node000007_Node000006" class="edge">
<title>Node7&#45;&gt;Node6</title>
<g id="a_edge7_Node000007_Node000006"><a xlink:title=" ">
<path fill="none" stroke="#63b8ff" d="M598.34,-21.24C615.13,-25.68 634.75,-30.87 652.54,-35.57"/>
<polygon fill="#63b8ff" stroke="#63b8ff" points="651.6,-38.94 662.16,-38.12 653.39,-32.18 651.6,-38.94"/>
</a>
</g>
</g>
<!-- Node8&#45;&gt;Node4 -->
<g id="edge9_Node000008_Node000004" class="edge">
<title>Node8&#45;&gt;Node4</title>
<g id="a_edge9_Node000008_Node000004"><a xlink:title=" ">
<path fill="none" stroke="#63b8ff" d="M450.48,-102.72C458.46,-102.08 466.77,-101.42 475.07,-100.76"/>
<polygon fill="#63b8ff" stroke="#63b8ff" points="475.13,-104.27 484.82,-99.98 474.57,-97.29 475.13,-104.27"/>
</a>
</g>
</g>
<!-- Node8&#45;&gt;Node6 -->
<g id="edge10_Node000008_Node000006" class="edge">
<title>Node8&#45;&gt;Node6</title>
<g id="a_edge10_Node000008_Node000006"><a xlink:title=" ">
<path fill="none" stroke="#63b8ff" d="M450.73,-123.65C499.29,-134.09 569.2,-142.05 625.75,-120.38 652.48,-110.13 675.85,-86.2 690.09,-68.95"/>
<polygon fill="#63b8ff" stroke="#63b8ff" points="692.63,-71.38 696.1,-61.37 687.14,-67.04 692.63,-71.38"/>
</a>
</g>
</g>
</g>
</svg>
