<?xml version="1.0" encoding="UTF-8" standalone="no"?>
<!DOCTYPE svg PUBLIC "-//W3C//DTD SVG 1.1//EN"
 "http://www.w3.org/Graphics/SVG/1.1/DTD/svg11.dtd">
<!-- Generated by graphviz version 13.1.2 (20250808.2320)
 -->
<!-- Title: kest_scope_entry_add_dependent_scope_entry Pages: 1 -->
<!--zoomable 102 -->

<svg id="main" version="1.1" xmlns="http://www.w3.org/2000/svg" xmlns:xlink="http://www.w3.org/1999/xlink" xml:space="preserve" onload="init(evt)">

<style type="text/css"><![CDATA[
.node, .edge {opacity: 0.7;}
.node.selected, .edge.selected {opacity: 1;}
.edge:hover path { stroke: red; }
.edge:hover polygon { stroke: red; fill: red; }
]]></style>

<defs>
  <circle id="rim" cx="0" cy="0" r="7"/>
  <circle id="rim2" cx="0" cy="0" r="3.5"/>
  <g id="zoomPlus">
    <use xlink:href="#rim" fill="#404040"><set attributeName="fill" to="#808080" begin="zoomplus.mouseover" end="zoomplus.mouseout"/></use>
    <path d="M-4,0h8M0,-4v8" fill="none" stroke="white" stroke-width="1.5" pointer-events="none"/>
  </g>
  <g id="zoomMin">
    <use xlink:href="#rim" fill="#404040"><set attributeName="fill" to="#808080" begin="zoomminus.mouseover" end="zoomminus.mouseout"/></use>
    <path d="M-4,0h8" fill="none" stroke="white" stroke-width="1.5" pointer-events="none"/>
  </g>
  <g id="arrowUp" transform="translate(30 24)">
    <use xlink:href="#rim"/>
    <path pointer-events="none" fill="none" stroke="white" stroke-width="1.5" d="M0,-3.0v7 M-2.5,-0.5L0,-3.0L2.5,-0.5"/>
  </g>
  <g id="arrowRight" transform="rotate(90) translate(36 -43)">
    <use xlink:href="#rim"/>
    <path pointer-events="none" fill="none" stroke="white" stroke-width="1.5" d="M0,-3.0v7 M-2.5,-0.5L0,-3.0L2.5,-0.5"/>
  </g>
  <g id="arrowDown" transform="rotate(180) translate(-30 -48)">
    <use xlink:href="#rim"/>
    <path pointer-events="none" fill="none" stroke="white" stroke-width="1.5" d="M0,-3.0v7 M-2.5,-0.5L0,-3.0L2.5,-0.5"/>
  </g>
  <g id="arrowLeft" transform="rotate(270) translate(-36 17)">
    <use xlink:href="#rim"/>
    <path pointer-events="none" fill="none" stroke="white" stroke-width="1.5" d="M0,-3.0v7 M-2.5,-0.5L0,-3.0L2.5,-0.5"/>
  </g>
  <g id="resetDef">
    <use xlink:href="#rim2" fill="#404040"><set attributeName="fill" to="#808080" begin="reset.mouseover" end="reset.mouseout"/></use>
  </g>
</defs>
<script type="application/ecmascript">
var viewWidth = 909;
var viewHeight = 102;
var sectionId = 'dynsection-36';
</script>
<script type="application/ecmascript" xlink:href="svg.min.js"/>
<svg id="graph" class="graph">
<g id="viewport">
<title>kest_scope_entry_add_dependent_scope_entry</title>
<!-- Node1 -->
<g id="Node000001" class="node">
<title>Node1</title>
<g id="a_Node000001"><a xlink:title=" ">
<polygon fill="#999999" stroke="#666666" points="900.5,-64.5 763,-64.5 763,-31 900.5,-31 900.5,-64.5"/>
<text xml:space="preserve" text-anchor="start" x="771" y="-51" font-family="Helvetica,sans-Serif" font-size="10.00">kest_scope_entry_add</text>
<text xml:space="preserve" text-anchor="middle" x="831.75" y="-38.25" font-family="Helvetica,sans-Serif" font-size="10.00">_dependent_scope_entry</text>
</a>
</g>
</g>
<!-- Node2 -->
<g id="Node000002" class="node">
<title>Node2</title>
<g id="a_Node000002"><a xlink:href="kest__expr__scope_8c.html#a8042b7711c05856ef5755963535b68f8" target="_top" xlink:title=" ">
<polygon fill="white" stroke="#666666" points="727,-85.12 548.25,-85.12 548.25,-64.38 727,-64.38 727,-85.12"/>
<text xml:space="preserve" text-anchor="middle" x="637.62" y="-71.62" font-family="Helvetica,sans-Serif" font-size="10.00">kest_scope_detect_dependencies</text>
</a>
</g>
</g>
<!-- Node1&#45;&gt;Node2 -->
<g id="edge1_Node000001_Node000002" class="edge">
<title>Node1&#45;&gt;Node2</title>
<g id="a_edge1_Node000001_Node000002"><a xlink:title=" ">
<path fill="none" stroke="#63b8ff" d="M751.53,-58.88C739.69,-60.55 727.5,-62.26 715.71,-63.92"/>
<polygon fill="#63b8ff" stroke="#63b8ff" points="751.83,-62.38 761.24,-57.52 750.85,-55.44 751.83,-62.38"/>
</a>
</g>
</g>
<!-- Node32 -->
<g id="Node000032" class="node">
<title>Node32</title>
<g id="a_Node000032"><a xlink:href="kest__expr__scope_8c.html#a8599558aef23a41dd9b43bfa790c35ef" target="_top" xlink:title=" ">
<polygon fill="white" stroke="#666666" points="699.62,-42.5 575.62,-42.5 575.62,-9 699.62,-9 699.62,-42.5"/>
<text xml:space="preserve" text-anchor="start" x="583.62" y="-29" font-family="Helvetica,sans-Serif" font-size="10.00">kest_scope_entry_add</text>
<text xml:space="preserve" text-anchor="middle" x="637.62" y="-16.25" font-family="Helvetica,sans-Serif" font-size="10.00">_dependent</text>
</a>
</g>
</g>
<!-- Node1&#45;&gt;Node32 -->
<g id="edge4_Node000001_Node000032" class="edge">
<title>Node1&#45;&gt;Node32</title>
<g id="a_edge4_Node000001_Node000032"><a xlink:title=" ">
<path fill="none" stroke="#63b8ff" d="M751.53,-38.68C734.27,-36.7 716.25,-34.64 699.82,-32.76"/>
<polygon fill="#63b8ff" stroke="#63b8ff" points="750.91,-42.13 761.24,-39.79 751.7,-35.18 750.91,-42.13"/>
</a>
</g>
</g>
<!-- Node3 -->
<g id="Node000003" class="node">
<title>Node3</title>
<g id="a_Node000003"><a xlink:href="kest__effect_8c.html#a487a10984ad42feea8c8e1e97f4cd3a3" target="_top" xlink:title=" ">
<polygon fill="white" stroke="#666666" points="310.62,-93.5 204.62,-93.5 204.62,-60 310.62,-60 310.62,-93.5"/>
<text xml:space="preserve" text-anchor="start" x="212.62" y="-80" font-family="Helvetica,sans-Serif" font-size="10.00">kest_effect_create</text>
<text xml:space="preserve" text-anchor="middle" x="257.62" y="-67.25" font-family="Helvetica,sans-Serif" font-size="10.00">_scope</text>
</a>
</g>
</g>
<!-- Node2&#45;&gt;Node3 -->
<g id="edge2_Node000002_Node000003" class="edge">
<title>Node2&#45;&gt;Node3</title>
<g id="a_edge2_Node000002_Node000003"><a xlink:title=" ">
<path fill="none" stroke="#63b8ff" d="M536.57,-75.28C464.07,-75.66 368.95,-76.17 310.89,-76.47"/>
<polygon fill="#63b8ff" stroke="#63b8ff" points="536.51,-78.78 546.49,-75.23 536.47,-71.78 536.51,-78.78"/>
</a>
</g>
</g>
<!-- Node4 -->
<g id="Node000004" class="node">
<title>Node4</title>
<g id="a_Node000004"><a xlink:href="kest__effect_8c.html#a85b25e44e2629962673634f965ffe304" target="_top" xlink:title=" ">
<polygon fill="#fff0f0" stroke="red" points="155.5,-58.12 0,-58.12 0,-37.38 155.5,-37.38 155.5,-58.12"/>
<text xml:space="preserve" text-anchor="middle" x="77.75" y="-44.62" font-family="Helvetica,sans-Serif" font-size="10.00">init_effect_from_effect_desc</text>
</a>
</g>
</g>
<!-- Node3&#45;&gt;Node4 -->
<g id="edge3_Node000003_Node000004" class="edge">
<title>Node3&#45;&gt;Node4</title>
<g id="a_edge3_Node000003_Node000004"><a xlink:title=" ">
<path fill="none" stroke="#63b8ff" d="M193.15,-66.4C177.63,-63.87 160.99,-61.16 145.33,-58.61"/>
<polygon fill="#63b8ff" stroke="#63b8ff" points="192.29,-69.81 202.72,-67.96 193.42,-62.9 192.29,-69.81"/>
</a>
</g>
</g>
<!-- Node33 -->
<g id="Node000033" class="node">
<title>Node33</title>
<g id="a_Node000033"><a xlink:href="kest__expr__scope_8c.html#ac44f26a1dd7c685a7a3d5423a6c1ff54" target="_top" xlink:title=" ">
<polygon fill="white" stroke="#666666" points="512.25,-33.5 359.75,-33.5 359.75,0 512.25,0 512.25,-33.5"/>
<text xml:space="preserve" text-anchor="start" x="367.75" y="-20" font-family="Helvetica,sans-Serif" font-size="10.00">kest_scope_transitivize</text>
<text xml:space="preserve" text-anchor="middle" x="436" y="-7.25" font-family="Helvetica,sans-Serif" font-size="10.00">_updatable_dependents_rec</text>
</a>
</g>
</g>
<!-- Node32&#45;&gt;Node33 -->
<g id="edge5_Node000032_Node000033" class="edge">
<title>Node32&#45;&gt;Node33</title>
<g id="a_edge5_Node000032_Node000033"><a xlink:title=" ">
<path fill="none" stroke="#63b8ff" d="M563.99,-22.48C547.26,-21.72 529.43,-20.92 512.58,-20.16"/>
<polygon fill="#63b8ff" stroke="#63b8ff" points="563.71,-25.97 573.86,-22.92 564.03,-18.97 563.71,-25.97"/>
</a>
</g>
</g>
<!-- Node33&#45;&gt;Node33 -->
<g id="edge8_Node000033_Node000033" class="edge">
<title>Node33&#45;&gt;Node33</title>
<g id="a_edge8_Node000033_Node000033"><a xlink:title=" ">
<path fill="none" stroke="#63b8ff" d="M465.95,-44.89C461.07,-48.85 451.09,-51.5 436,-51.5 409.17,-51.5 398.49,-43.12 403.93,-33.91"/>
<polygon fill="#63b8ff" stroke="#63b8ff" points="469.32,-45.88 467.78,-35.4 462.45,-44.56 469.32,-45.88"/>
</a>
</g>
</g>
<!-- Node34 -->
<g id="Node000034" class="node">
<title>Node34</title>
<g id="a_Node000034"><a xlink:href="kest__expr__scope_8c.html#a22d04780c6f58fc94a907b3969a819cc" target="_top" xlink:title=" ">
<polygon fill="white" stroke="#666666" points="323.75,-38.5 191.5,-38.5 191.5,-5 323.75,-5 323.75,-38.5"/>
<text xml:space="preserve" text-anchor="start" x="199.5" y="-25" font-family="Helvetica,sans-Serif" font-size="10.00">kest_scope_transitivize</text>
<text xml:space="preserve" text-anchor="middle" x="257.62" y="-12.25" font-family="Helvetica,sans-Serif" font-size="10.00">_updatable_dependents</text>
</a>
</g>
</g>
<!-- Node33&#45;&gt;Node34 -->
<g id="edge6_Node000033_Node000034" class="edge">
<title>Node33&#45;&gt;Node34</title>
<g id="a_edge6_Node000033_Node000034"><a xlink:title=" ">
<path fill="none" stroke="#63b8ff" d="M348.05,-19.22C339.97,-19.44 331.87,-19.67 324.04,-19.9"/>
<polygon fill="#63b8ff" stroke="#63b8ff" points="348.02,-22.72 357.92,-18.94 347.83,-15.72 348.02,-22.72"/>
</a>
</g>
</g>
<!-- Node34&#45;&gt;Node4 -->
<g id="edge7_Node000034_Node000004" class="edge">
<title>Node34&#45;&gt;Node4</title>
<g id="a_edge7_Node000034_Node000004"><a xlink:title=" ">
<path fill="none" stroke="#63b8ff" d="M179.98,-32.95C171.06,-34.26 161.98,-35.58 153.1,-36.88"/>
<polygon fill="#63b8ff" stroke="#63b8ff" points="180.26,-36.45 189.65,-31.54 179.25,-29.52 180.26,-36.45"/>
</a>
</g>
</g>
</g>
</svg>

<g id="navigator" transform="translate(0 0)" fill="#404254">
  <rect fill="#f2f5e9" fill-opacity="0.5" stroke="#606060" stroke-width=".5" x="0" y="0" width="60" height="60"/>
  <use id="zoomplus" xlink:href="#zoomPlus" x="17" y="9" onmousedown="handleZoom(evt,'in')"/>
  <use id="zoomminus" xlink:href="#zoomMin" x="42" y="9" onmousedown="handleZoom(evt,'out')"/>
  <use id="reset" xlink:href="#resetDef" x="30" y="36" onmousedown="handleReset()"/>
   <use id="arrowup" xlink:href="#arrowUp" x="0" y="0" onmousedown="handlePan(0,-1)"/>
  <use id="arrowright" xlink:href="#arrowRight" x="0" y="0" onmousedown="handlePan(1,0)"/>
  <use id="arrowdown" xlink:href="#arrowDown" x="0" y="0" onmousedown="handlePan(0,1)"/>
  <use id="arrowleft" xlink:href="#arrowLeft" x="0" y="0" onmousedown="handlePan(-1,0)"/>
</g>
<svg viewBox="0 0 15 15" width="100%" height="30px" preserveAspectRatio="xMaxYMin meet">
 <g id="arrow_out" transform="scale(0.3 0.3)">
  <a xlink:href="kest__expr__scope_8h_ab2df2425a9dcbf7ca7f0c3cca1d78c1d_icgraph_org.svg" target="_base">
   <rect id="button" ry="5" rx="5" y="6" x="6" height="38" width="38"
        fill="#f2f5e9" fill-opacity="0.5" stroke="#606060" stroke-width="1.0"/>
   <path id="arrow"
     d="M 11.500037,31.436501 C 11.940474,20.09759 22.043105,11.32322 32.158766,21.979434 L 37.068811,17.246167 C 37.068811,17.246167 37.088388,32 37.088388,32 L 22.160133,31.978069 C 22.160133,31.978069 26.997745,27.140456 26.997745,27.140456 C 18.528582,18.264221 13.291696,25.230495 11.500037,31.436501 z"
     style="fill:#404040;"/>
  </a>
 </g>
</svg>

<style type='text/css'>
<![CDATA[
[data-mouse-over-selected='false'] { opacity: 0.7; }
[data-mouse-over-selected='true']  { opacity: 1.0; }
]]>
</style>
<script type="application/ecmascript"><![CDATA[
document.addEventListener('DOMContentLoaded', (event) => {
  highlightEdges();
  highlightAdjacentNodes();
});
]]></script>
</svg>
