<?xml version="1.0" encoding="UTF-8" standalone="no"?>
<!DOCTYPE svg PUBLIC "-//W3C//DTD SVG 1.1//EN"
 "http://www.w3.org/Graphics/SVG/1.1/DTD/svg11.dtd">
<!-- Generated by graphviz version 13.1.2 (20250808.2320)
 -->
<!-- Title: kest_parser_error_at_line Pages: 1 -->
<svg width="967pt" height="172pt"
 viewBox="0.00 0.00 967.00 172.00" xmlns="http://www.w3.org/2000/svg" xmlns:xlink="http://www.w3.org/1999/xlink">
<g id="graph0" class="graph" transform="scale(1 1) rotate(0) translate(4 167.75)">
<title>kest_parser_error_at_line</title>
<!-- Node1 -->
<g id="Node000001" class="node">
<title>Node1</title>
<g id="a_Node000001"><a xlink:title=" ">
<polygon fill="#999999" stroke="#666666" points="958.5,-86.75 819.5,-86.75 819.5,-66 958.5,-66 958.5,-86.75"/>
<text xml:space="preserve" text-anchor="middle" x="889" y="-73.25" font-family="Helvetica,sans-Serif" font-size="10.00">kest_parser_error_at_line</text>
</a>
</g>
</g>
<!-- Node2 -->
<g id="Node000002" class="node">
<title>Node2</title>
<g id="a_Node000002"><a xlink:href="kest__eff__section_8c.html#ac80cd23aae3ae32a7ea8002211c6c259" target="_top" xlink:title=" ">
<polygon fill="white" stroke="#666666" points="449.25,-163.75 306.5,-163.75 306.5,-143 449.25,-143 449.25,-163.75"/>
<text xml:space="preserve" text-anchor="middle" x="377.88" y="-150.25" font-family="Helvetica,sans-Serif" font-size="10.00">kest_defs_section_extract</text>
</a>
</g>
</g>
<!-- Node1&#45;&gt;Node2 -->
<g id="edge1_Node000001_Node000002" class="edge">
<title>Node1&#45;&gt;Node2</title>
<g id="a_edge1_Node000001_Node000002"><a xlink:title=" ">
<path fill="none" stroke="#63b8ff" d="M864.37,-93.68C844.05,-107.49 813.38,-125.89 783.5,-134.38 670.02,-166.61 531.52,-164.76 449.52,-159.65"/>
<polygon fill="#63b8ff" stroke="#63b8ff" points="866.29,-96.6 872.48,-88.01 862.28,-90.87 866.29,-96.6"/>
</a>
</g>
</g>
<!-- Node15 -->
<g id="Node000015" class="node">
<title>Node15</title>
<g id="a_Node000015"><a xlink:href="kest__asm__parser_8c.html#a8a0d633256a85b35706b7a9ef1add7f0" target="_top" xlink:title=" ">
<polygon fill="white" stroke="#666666" points="778.25,-125.75 660.25,-125.75 660.25,-105 778.25,-105 778.25,-125.75"/>
<text xml:space="preserve" text-anchor="middle" x="719.25" y="-112.25" font-family="Helvetica,sans-Serif" font-size="10.00">kest_parse_asm_line</text>
</a>
</g>
</g>
<!-- Node1&#45;&gt;Node15 -->
<g id="edge4_Node000001_Node000015" class="edge">
<title>Node1&#45;&gt;Node15</title>
<g id="a_edge4_Node000001_Node000015"><a xlink:title=" ">
<path fill="none" stroke="#63b8ff" d="M830.1,-89.84C809.5,-94.63 786.57,-99.96 767.02,-104.5"/>
<polygon fill="#63b8ff" stroke="#63b8ff" points="830.85,-93.26 839.8,-87.58 829.27,-86.44 830.85,-93.26"/>
</a>
</g>
</g>
<!-- Node18 -->
<g id="Node000018" class="node">
<title>Node18</title>
<g id="a_Node000018"><a xlink:href="kest__asm__parser_8c.html#a2631a3bf92814826b04c07694026a878" target="_top" xlink:title=" ">
<polygon fill="white" stroke="#666666" points="783.5,-86.75 655,-86.75 655,-66 783.5,-66 783.5,-86.75"/>
<text xml:space="preserve" text-anchor="middle" x="719.25" y="-73.25" font-family="Helvetica,sans-Serif" font-size="10.00">kest_process_asm_line</text>
</a>
</g>
</g>
<!-- Node1&#45;&gt;Node18 -->
<g id="edge8_Node000001_Node000018" class="edge">
<title>Node1&#45;&gt;Node18</title>
<g id="a_edge8_Node000001_Node000018"><a xlink:title=" ">
<path fill="none" stroke="#63b8ff" d="M807.98,-76.38C799.93,-76.38 791.84,-76.38 784,-76.38"/>
<polygon fill="#63b8ff" stroke="#63b8ff" points="807.77,-79.88 817.77,-76.38 807.77,-72.88 807.77,-79.88"/>
</a>
</g>
</g>
<!-- Node19 -->
<g id="Node000019" class="node">
<title>Node19</title>
<g id="a_Node000019"><a xlink:href="kest__asm__parser_8c.html#ae59ff30494de598aa24df2c421eff7f7" target="_top" xlink:title=" ">
<polygon fill="white" stroke="#666666" points="619,-67.75 485.25,-67.75 485.25,-47 619,-47 619,-67.75"/>
<text xml:space="preserve" text-anchor="middle" x="552.12" y="-54.25" font-family="Helvetica,sans-Serif" font-size="10.00">kest_process_asm_lines</text>
</a>
</g>
</g>
<!-- Node1&#45;&gt;Node19 -->
<g id="edge11_Node000001_Node000019" class="edge">
<title>Node1&#45;&gt;Node19</title>
<g id="a_edge11_Node000001_Node000019"><a xlink:title=" ">
<path fill="none" stroke="#63b8ff" d="M827.32,-63.44C813.01,-60.92 797.77,-58.66 783.5,-57.38 728.33,-52.4 665.43,-52.81 619.3,-54.23"/>
<polygon fill="#63b8ff" stroke="#63b8ff" points="826.59,-66.86 837.06,-65.23 827.86,-59.98 826.59,-66.86"/>
</a>
</g>
</g>
<!-- Node20 -->
<g id="Node000020" class="node">
<title>Node20</title>
<g id="a_Node000020"><a xlink:href="kest__tokenizer_8c.html#abfb9dd70524b2bf471b98caa15f1d764" target="_top" xlink:title=" ">
<polygon fill="white" stroke="#666666" points="270.5,-20.75 145.75,-20.75 145.75,0 270.5,0 270.5,-20.75"/>
<text xml:space="preserve" text-anchor="middle" x="208.12" y="-7.25" font-family="Helvetica,sans-Serif" font-size="10.00">kest_tokenize_content</text>
</a>
</g>
</g>
<!-- Node1&#45;&gt;Node20 -->
<g id="edge12_Node000001_Node000020" class="edge">
<title>Node1&#45;&gt;Node20</title>
<g id="a_edge12_Node000001_Node000020"><a xlink:title=" ">
<path fill="none" stroke="#63b8ff" d="M842.18,-62.58C824.06,-57.64 802.95,-52.52 783.5,-49.38 598.5,-19.46 376.38,-12.44 270.75,-10.83"/>
<polygon fill="#63b8ff" stroke="#63b8ff" points="841,-65.88 851.58,-65.2 842.89,-59.14 841,-65.88"/>
</a>
</g>
</g>
<!-- Node3 -->
<g id="Node000003" class="node">
<title>Node3</title>
<g id="a_Node000003"><a xlink:href="kest__eff__parser_8c.html#a73ef6962d1925857ec3e4b12d1aad834" target="_top" xlink:title=" ">
<polygon fill="white" stroke="#666666" points="261.12,-124.75 155.12,-124.75 155.12,-104 261.12,-104 261.12,-124.75"/>
<text xml:space="preserve" text-anchor="middle" x="208.12" y="-111.25" font-family="Helvetica,sans-Serif" font-size="10.00">kest_parse_tokens</text>
</a>
</g>
</g>
<!-- Node2&#45;&gt;Node3 -->
<g id="edge2_Node000002_Node000003" class="edge">
<title>Node2&#45;&gt;Node3</title>
<g id="a_edge2_Node000002_Node000003"><a xlink:title=" ">
<path fill="none" stroke="#63b8ff" d="M318.98,-139.91C298.37,-135.12 275.45,-129.79 255.89,-125.25"/>
<polygon fill="#63b8ff" stroke="#63b8ff" points="318.14,-143.31 328.67,-142.17 319.73,-136.49 318.14,-143.31"/>
</a>
</g>
</g>
<!-- Node4 -->
<g id="Node000004" class="node">
<title>Node4</title>
<g id="a_Node000004"><a xlink:href="kest__eff__parser_8c.html#ae4618958c44389928c260fdb0e170761" target="_top" xlink:title=" ">
<polygon fill="#fff0f0" stroke="red" points="109.75,-74.12 0,-74.12 0,-40.62 109.75,-40.62 109.75,-74.12"/>
<text xml:space="preserve" text-anchor="start" x="8" y="-60.62" font-family="Helvetica,sans-Serif" font-size="10.00">kest_read_eff_desc</text>
<text xml:space="preserve" text-anchor="middle" x="54.88" y="-47.88" font-family="Helvetica,sans-Serif" font-size="10.00">_from_file</text>
</a>
</g>
</g>
<!-- Node3&#45;&gt;Node4 -->
<g id="edge3_Node000003_Node000004" class="edge">
<title>Node3&#45;&gt;Node4</title>
<g id="a_edge3_Node000003_Node000004"><a xlink:title=" ">
<path fill="none" stroke="#63b8ff" d="M167.59,-99.47C147.34,-91.84 122.58,-82.51 101.53,-74.58"/>
<polygon fill="#63b8ff" stroke="#63b8ff" points="166.31,-102.73 176.9,-102.99 168.78,-96.18 166.31,-102.73"/>
</a>
</g>
</g>
<!-- Node16 -->
<g id="Node000016" class="node">
<title>Node16</title>
<g id="a_Node000016"><a xlink:href="kest__asm__parser_8c.html#a1b7e03dd7589f652dec13b4b2c6d0a5c" target="_top" xlink:title=" ">
<polygon fill="white" stroke="#666666" points="599.5,-125.75 504.75,-125.75 504.75,-105 599.5,-105 599.5,-125.75"/>
<text xml:space="preserve" text-anchor="middle" x="552.12" y="-112.25" font-family="Helvetica,sans-Serif" font-size="10.00">kest_parse_asm</text>
</a>
</g>
</g>
<!-- Node15&#45;&gt;Node16 -->
<g id="edge5_Node000015_Node000016" class="edge">
<title>Node15&#45;&gt;Node16</title>
<g id="a_edge5_Node000015_Node000016"><a xlink:title=" ">
<path fill="none" stroke="#63b8ff" d="M648.78,-115.38C632.31,-115.38 615.13,-115.38 599.95,-115.38"/>
<polygon fill="#63b8ff" stroke="#63b8ff" points="648.52,-118.88 658.52,-115.38 648.52,-111.88 648.52,-118.88"/>
</a>
</g>
</g>
<!-- Node17 -->
<g id="Node000017" class="node">
<title>Node17</title>
<g id="a_Node000017"><a xlink:href="kest__eff__section_8c.html#a992e0c66572f5ffabca2203a018ea97c" target="_top" xlink:title=" ">
<polygon fill="white" stroke="#666666" points="446.62,-124.75 309.12,-124.75 309.12,-104 446.62,-104 446.62,-124.75"/>
<text xml:space="preserve" text-anchor="middle" x="377.88" y="-111.25" font-family="Helvetica,sans-Serif" font-size="10.00">kest_parse_code_section</text>
</a>
</g>
</g>
<!-- Node16&#45;&gt;Node17 -->
<g id="edge6_Node000016_Node000017" class="edge">
<title>Node16&#45;&gt;Node17</title>
<g id="a_edge6_Node000016_Node000017"><a xlink:title=" ">
<path fill="none" stroke="#63b8ff" d="M493.39,-115.04C478.47,-114.95 462.26,-114.86 446.87,-114.77"/>
<polygon fill="#63b8ff" stroke="#63b8ff" points="492.98,-118.54 503,-115.1 493.02,-111.54 492.98,-118.54"/>
</a>
</g>
</g>
<!-- Node17&#45;&gt;Node3 -->
<g id="edge7_Node000017_Node000003" class="edge">
<title>Node17&#45;&gt;Node3</title>
<g id="a_edge7_Node000017_Node000003"><a xlink:title=" ">
<path fill="none" stroke="#63b8ff" d="M297.14,-114.38C285.07,-114.38 272.89,-114.38 261.6,-114.38"/>
<polygon fill="#63b8ff" stroke="#63b8ff" points="297.13,-117.88 307.13,-114.38 297.13,-110.88 297.13,-117.88"/>
</a>
</g>
</g>
<!-- Node18&#45;&gt;Node19 -->
<g id="edge9_Node000018_Node000019" class="edge">
<title>Node18&#45;&gt;Node19</title>
<g id="a_edge9_Node000018_Node000019"><a xlink:title=" ">
<path fill="none" stroke="#63b8ff" d="M643.56,-67.78C635.48,-66.85 627.3,-65.91 619.34,-64.99"/>
<polygon fill="#63b8ff" stroke="#63b8ff" points="643.04,-71.24 653.38,-68.91 643.84,-64.29 643.04,-71.24"/>
</a>
</g>
</g>
<!-- Node19&#45;&gt;Node4 -->
<g id="edge10_Node000019_Node000004" class="edge">
<title>Node19&#45;&gt;Node4</title>
<g id="a_edge10_Node000019_Node000004"><a xlink:title=" ">
<path fill="none" stroke="#63b8ff" d="M473.48,-57.38C372.31,-57.38 197.95,-57.38 109.98,-57.38"/>
<polygon fill="#63b8ff" stroke="#63b8ff" points="473.33,-60.88 483.33,-57.38 473.33,-53.88 473.33,-60.88"/>
</a>
</g>
</g>
<!-- Node20&#45;&gt;Node4 -->
<g id="edge13_Node000020_Node000004" class="edge">
<title>Node20&#45;&gt;Node4</title>
<g id="a_edge13_Node000020_Node000004"><a xlink:title=" ">
<path fill="none" stroke="#63b8ff" d="M161.58,-24.53C145.33,-29.58 126.88,-35.31 109.98,-40.56"/>
<polygon fill="#63b8ff" stroke="#63b8ff" points="162.47,-27.92 170.98,-21.61 160.39,-21.23 162.47,-27.92"/>
</a>
</g>
</g>
</g>
</svg>
