<?xml version="1.0" encoding="UTF-8" standalone="no"?>
<!DOCTYPE svg PUBLIC "-//W3C//DTD SVG 1.1//EN"
 "http://www.w3.org/Graphics/SVG/1.1/DTD/svg11.dtd">
<!-- Generated by graphviz version 13.1.2 (20250808.2320)
 -->
<!-- Title: kest_expression_print_rec Pages: 1 -->
<svg width="1015pt" height="721pt"
 viewBox="0.00 0.00 1015.00 721.00" xmlns="http://www.w3.org/2000/svg" xmlns:xlink="http://www.w3.org/1999/xlink">
<g id="graph0" class="graph" transform="scale(1 1) rotate(0) translate(4 717.22)">
<title>kest_expression_print_rec</title>
<!-- Node1 -->
<g id="Node000001" class="node">
<title>Node1</title>
<g id="a_Node000001"><a xlink:title=" ">
<polygon fill="#999999" stroke="#666666" points="1006.5,-324.75 863.75,-324.75 863.75,-304 1006.5,-304 1006.5,-324.75"/>
<text xml:space="preserve" text-anchor="middle" x="935.12" y="-311.25" font-family="Helvetica,sans-Serif" font-size="10.00">kest_expression_print_rec</text>
</a>
</g>
</g>
<!-- Node1&#45;&gt;Node1 -->
<g id="edge2_Node000001_Node000001" class="edge">
<title>Node1&#45;&gt;Node1</title>
<g id="a_edge2_Node000001_Node000001"><a xlink:title=" ">
<path fill="none" stroke="#63b8ff" d="M964.8,-336.24C960.87,-340.08 950.97,-342.75 935.12,-342.75 906.14,-342.75 897.09,-333.81 907.95,-325.15"/>
<polygon fill="#63b8ff" stroke="#63b8ff" points="968.24,-335.61 962.63,-326.62 961.41,-337.15 968.24,-335.61"/>
</a>
</g>
</g>
<!-- Node2 -->
<g id="Node000002" class="node">
<title>Node2</title>
<g id="a_Node000002"><a xlink:href="kest__expression_8c.html#a868cfac797d448a959e3a57b96fcc6bd" target="_top" xlink:title=" ">
<polygon fill="white" stroke="#666666" points="827.75,-347.75 705.25,-347.75 705.25,-327 827.75,-327 827.75,-347.75"/>
<text xml:space="preserve" text-anchor="middle" x="766.5" y="-334.25" font-family="Helvetica,sans-Serif" font-size="10.00">kest_expression_print</text>
</a>
</g>
</g>
<!-- Node1&#45;&gt;Node2 -->
<g id="edge1_Node000001_Node000002" class="edge">
<title>Node1&#45;&gt;Node2</title>
<g id="a_edge1_Node000001_Node000002"><a xlink:title=" ">
<path fill="none" stroke="#63b8ff" d="M852.33,-325.67C844.14,-326.8 835.92,-327.93 828.01,-329.02"/>
<polygon fill="#63b8ff" stroke="#63b8ff" points="852.53,-329.17 861.96,-324.34 851.58,-322.24 852.53,-329.17"/>
</a>
</g>
</g>
<!-- Node3 -->
<g id="Node000003" class="node">
<title>Node3</title>
<g id="a_Node000003"><a xlink:href="kest__expression_8c.html#aadf2a6a074cb1ad7b45893704cbd71c3" target="_top" xlink:title=" ">
<polygon fill="white" stroke="#666666" points="821.38,-309.12 711.62,-309.12 711.62,-275.62 821.38,-275.62 821.38,-309.12"/>
<text xml:space="preserve" text-anchor="start" x="719.62" y="-295.62" font-family="Helvetica,sans-Serif" font-size="10.00">kest_expression_to</text>
<text xml:space="preserve" text-anchor="middle" x="766.5" y="-282.88" font-family="Helvetica,sans-Serif" font-size="10.00">_string</text>
</a>
</g>
</g>
<!-- Node1&#45;&gt;Node3 -->
<g id="edge3_Node000001_Node000003" class="edge">
<title>Node1&#45;&gt;Node3</title>
<g id="a_edge3_Node000001_Node000003"><a xlink:title=" ">
<path fill="none" stroke="#63b8ff" d="M852.29,-303.57C841.96,-302.21 831.6,-300.84 821.84,-299.55"/>
<polygon fill="#63b8ff" stroke="#63b8ff" points="851.59,-307.01 861.96,-304.85 852.5,-300.07 851.59,-307.01"/>
</a>
</g>
</g>
<!-- Node4 -->
<g id="Node000004" class="node">
<title>Node4</title>
<g id="a_Node000004"><a xlink:href="kest__dictionary_8c.html#a298bc3ea15bffee0e485de36aea099c2" target="_top" xlink:title=" ">
<polygon fill="white" stroke="#666666" points="647.5,-508.12 542.25,-508.12 542.25,-474.62 647.5,-474.62 647.5,-508.12"/>
<text xml:space="preserve" text-anchor="start" x="550.25" y="-494.62" font-family="Helvetica,sans-Serif" font-size="10.00">kest_dict_entry_to</text>
<text xml:space="preserve" text-anchor="middle" x="594.88" y="-481.88" font-family="Helvetica,sans-Serif" font-size="10.00">_string</text>
</a>
</g>
</g>
<!-- Node3&#45;&gt;Node4 -->
<g id="edge4_Node000003_Node000004" class="edge">
<title>Node3&#45;&gt;Node4</title>
<g id="a_edge4_Node000003_Node000004"><a xlink:title=" ">
<path fill="none" stroke="#63b8ff" d="M706.66,-316.84C706.18,-317.34 705.71,-317.85 705.25,-318.38 666.34,-362.85 704.89,-399.24 669.25,-446.38 660.51,-457.94 647.86,-467.2 635.51,-474.24"/>
<polygon fill="#63b8ff" stroke="#63b8ff" points="708.77,-319.63 714.17,-310.52 704.26,-314.28 708.77,-319.63"/>
</a>
</g>
</g>
<!-- Node6 -->
<g id="Node000006" class="node">
<title>Node6</title>
<g id="a_Node000006"><a xlink:href="kest__dict__extract_8c.html#ab7acbd0287c39e5bbb08575fa2a61291" target="_top" xlink:title=" ">
<polygon fill="#fff0f0" stroke="red" points="291.5,-709.12 177.25,-709.12 177.25,-675.62 291.5,-675.62 291.5,-709.12"/>
<text xml:space="preserve" text-anchor="start" x="185.25" y="-695.62" font-family="Helvetica,sans-Serif" font-size="10.00">kest_extract_biquad</text>
<text xml:space="preserve" text-anchor="middle" x="234.38" y="-682.88" font-family="Helvetica,sans-Serif" font-size="10.00">_from_dict</text>
</a>
</g>
</g>
<!-- Node3&#45;&gt;Node6 -->
<g id="edge27_Node000003_Node000006" class="edge">
<title>Node3&#45;&gt;Node6</title>
<g id="a_edge27_Node000003_Node000006"><a xlink:title=" ">
<path fill="none" stroke="#63b8ff" d="M705.97,-317.44C705.73,-317.75 705.49,-318.06 705.25,-318.38 623.69,-427.82 759.21,-520.72 669.25,-623.38 575,-730.93 386.06,-717.95 291.7,-703.3"/>
<polygon fill="#63b8ff" stroke="#63b8ff" points="708.35,-320 713.1,-310.53 703.48,-314.97 708.35,-320"/>
</a>
</g>
</g>
<!-- Node19 -->
<g id="Node000019" class="node">
<title>Node19</title>
<g id="a_Node000019"><a xlink:href="kest__dict__extract_8c.html#a449de50461a34d20bba301a90a39ec05" target="_top" xlink:title=" ">
<polygon fill="#fff0f0" stroke="red" points="286.62,-651.12 182.12,-651.12 182.12,-617.62 286.62,-617.62 286.62,-651.12"/>
<text xml:space="preserve" text-anchor="start" x="190.12" y="-637.62" font-family="Helvetica,sans-Serif" font-size="10.00">kest_extract_filter</text>
<text xml:space="preserve" text-anchor="middle" x="234.38" y="-624.88" font-family="Helvetica,sans-Serif" font-size="10.00">_from_dict</text>
</a>
</g>
</g>
<!-- Node3&#45;&gt;Node19 -->
<g id="edge28_Node000003_Node000019" class="edge">
<title>Node3&#45;&gt;Node19</title>
<g id="a_edge28_Node000003_Node000019"><a xlink:title=" ">
<path fill="none" stroke="#63b8ff" d="M705.98,-317.44C705.73,-317.75 705.49,-318.06 705.25,-318.38 637.03,-407.52 739.47,-480.79 669.25,-568.38 578.1,-682.06 380.99,-662.72 287.11,-645.66"/>
<polygon fill="#63b8ff" stroke="#63b8ff" points="708.35,-320.02 713.19,-310.6 703.53,-314.95 708.35,-320.02"/>
</a>
</g>
</g>
<!-- Node20 -->
<g id="Node000020" class="node">
<title>Node20</title>
<g id="a_Node000020"><a xlink:href="kest__dict__extract_8c.html#a5cdad622cac403efa9954b47c588ce90" target="_top" xlink:title=" ">
<polygon fill="#fff0f0" stroke="red" points="302.38,-587.12 166.38,-587.12 166.38,-553.62 302.38,-553.62 302.38,-587.12"/>
<text xml:space="preserve" text-anchor="start" x="174.38" y="-573.62" font-family="Helvetica,sans-Serif" font-size="10.00">kest_extract_polynomial</text>
<text xml:space="preserve" text-anchor="middle" x="234.38" y="-560.88" font-family="Helvetica,sans-Serif" font-size="10.00">_from_dict</text>
</a>
</g>
</g>
<!-- Node3&#45;&gt;Node20 -->
<g id="edge33_Node000003_Node000020" class="edge">
<title>Node3&#45;&gt;Node20</title>
<g id="a_edge33_Node000003_Node000020"><a xlink:title=" ">
<path fill="none" stroke="#63b8ff" d="M705.99,-317.45C705.74,-317.76 705.49,-318.06 705.25,-318.38 645.01,-395.37 741.22,-469.21 669.25,-535.38 617.37,-583.07 410.81,-579.85 302.48,-574.58"/>
<polygon fill="#63b8ff" stroke="#63b8ff" points="708.35,-320.04 713.26,-310.65 703.57,-314.93 708.35,-320.04"/>
</a>
</g>
</g>
<!-- Node26 -->
<g id="Node000026" class="node">
<title>Node26</title>
<g id="a_Node000026"><a xlink:href="kest__fixed__point_8c.html#aadbad80611ec55e1e488a3740c578c8b" target="_top" xlink:title=" ">
<polygon fill="white" stroke="#666666" points="305.75,-403.12 163,-403.12 163,-369.62 305.75,-369.62 305.75,-403.12"/>
<text xml:space="preserve" text-anchor="start" x="171" y="-389.62" font-family="Helvetica,sans-Serif" font-size="10.00">kest_expression_compute</text>
<text xml:space="preserve" text-anchor="middle" x="234.38" y="-376.88" font-family="Helvetica,sans-Serif" font-size="10.00">_format</text>
</a>
</g>
</g>
<!-- Node3&#45;&gt;Node26 -->
<g id="edge15_Node000003_Node000026" class="edge">
<title>Node3&#45;&gt;Node26</title>
<g id="a_edge15_Node000003_Node000026"><a xlink:title=" ">
<path fill="none" stroke="#63b8ff" d="M707.44,-316.22C706.69,-316.92 705.96,-317.64 705.25,-318.38 674.05,-351.02 706.41,-387.72 669.25,-413.38 612.19,-452.77 413.51,-421.7 305.91,-401.03"/>
<polygon fill="#63b8ff" stroke="#63b8ff" points="709.24,-319.25 715.02,-310.37 704.97,-313.7 709.24,-319.25"/>
</a>
</g>
</g>
<!-- Node30 -->
<g id="Node000030" class="node">
<title>Node30</title>
<g id="a_Node000030"><a xlink:href="kest__expression_8c.html#a146f5c5c8ecc02be0e5e695cbbc10f10" target="_top" xlink:title=" ">
<polygon fill="white" stroke="#666666" points="666.25,-386.12 523.5,-386.12 523.5,-352.62 666.25,-352.62 666.25,-386.12"/>
<text xml:space="preserve" text-anchor="start" x="531.5" y="-372.62" font-family="Helvetica,sans-Serif" font-size="10.00">kest_expression_compute</text>
<text xml:space="preserve" text-anchor="middle" x="594.88" y="-359.88" font-family="Helvetica,sans-Serif" font-size="10.00">_range_rec</text>
</a>
</g>
</g>
<!-- Node3&#45;&gt;Node30 -->
<g id="edge18_Node000003_Node000030" class="edge">
<title>Node3&#45;&gt;Node30</title>
<g id="a_edge18_Node000003_Node000030"><a xlink:title=" ">
<path fill="none" stroke="#63b8ff" d="M713.66,-314.35C710.8,-315.68 707.98,-317.03 705.25,-318.38 688.83,-326.46 685.7,-330.36 669.25,-338.38 659.43,-343.16 648.68,-347.94 638.52,-352.27"/>
<polygon fill="#63b8ff" stroke="#63b8ff" points="715.06,-317.55 722.71,-310.22 712.16,-311.18 715.06,-317.55"/>
</a>
</g>
</g>
<!-- Node32 -->
<g id="Node000032" class="node">
<title>Node32</title>
<g id="a_Node000032"><a xlink:href="kest__expression_8c.html#ad94f03fbe1527e94e7f50f9d5fbda50b" target="_top" xlink:title=" ">
<polygon fill="white" stroke="#666666" points="652.75,-278.12 537,-278.12 537,-244.62 652.75,-244.62 652.75,-278.12"/>
<text xml:space="preserve" text-anchor="start" x="545" y="-264.62" font-family="Helvetica,sans-Serif" font-size="10.00">kest_expression_get</text>
<text xml:space="preserve" text-anchor="middle" x="594.88" y="-251.88" font-family="Helvetica,sans-Serif" font-size="10.00">_references_rec</text>
</a>
</g>
</g>
<!-- Node3&#45;&gt;Node32 -->
<g id="edge22_Node000003_Node000032" class="edge">
<title>Node3&#45;&gt;Node32</title>
<g id="a_edge22_Node000003_Node000032"><a xlink:title=" ">
<path fill="none" stroke="#63b8ff" d="M700.23,-280.45C684.66,-277.6 668.17,-274.59 653.01,-271.82"/>
<polygon fill="#63b8ff" stroke="#63b8ff" points="699.41,-283.85 709.87,-282.21 700.67,-276.97 699.41,-283.85"/>
</a>
</g>
</g>
<!-- Node34 -->
<g id="Node000034" class="node">
<title>Node34</title>
<g id="a_Node000034"><a xlink:href="kest__expression_8c.html#a06fc3d0394cad5e965de056f7af84b72" target="_top" xlink:title=" ">
<polygon fill="#fff0f0" stroke="red" points="304.25,-323.12 164.5,-323.12 164.5,-289.62 304.25,-289.62 304.25,-323.12"/>
<text xml:space="preserve" text-anchor="start" x="172.5" y="-309.62" font-family="Helvetica,sans-Serif" font-size="10.00">kest_expression_updated</text>
<text xml:space="preserve" text-anchor="middle" x="234.38" y="-296.88" font-family="Helvetica,sans-Serif" font-size="10.00">_in_scope</text>
</a>
</g>
</g>
<!-- Node3&#45;&gt;Node34 -->
<g id="edge26_Node000003_Node000034" class="edge">
<title>Node3&#45;&gt;Node34</title>
<g id="a_edge26_Node000003_Node000034"><a xlink:title=" ">
<path fill="none" stroke="#63b8ff" d="M699.79,-302.43C689.59,-303.65 679.15,-304.7 669.25,-305.38 540.74,-314.16 390.33,-311.66 304.61,-309.02"/>
<polygon fill="#63b8ff" stroke="#63b8ff" points="700.18,-305.9 709.66,-301.18 699.3,-298.96 700.18,-305.9"/>
</a>
</g>
</g>
<!-- Node16 -->
<g id="Node000016" class="node">
<title>Node16</title>
<g id="a_Node000016"><a xlink:href="kest__dict__extract_8c.html#acbfde8ff56b8c5bed262375de5a2fc76" target="_top" xlink:title=" ">
<polygon fill="#fff0f0" stroke="red" points="669.25,-226.75 520.5,-226.75 520.5,-206 669.25,-206 669.25,-226.75"/>
<text xml:space="preserve" text-anchor="middle" x="594.88" y="-213.25" font-family="Helvetica,sans-Serif" font-size="10.00">kest_extract_hpf_from_dict</text>
</a>
</g>
</g>
<!-- Node3&#45;&gt;Node16 -->
<g id="edge29_Node000003_Node000016" class="edge">
<title>Node3&#45;&gt;Node16</title>
<g id="a_edge29_Node000003_Node000016"><a xlink:title=" ">
<path fill="none" stroke="#63b8ff" d="M731.75,-269.21C713.82,-257.73 691.04,-244.43 669.25,-235.38 661.72,-232.24 653.53,-229.51 645.44,-227.18"/>
<polygon fill="#63b8ff" stroke="#63b8ff" points="729.62,-272 739.91,-274.53 733.45,-266.13 729.62,-272"/>
</a>
</g>
</g>
<!-- Node18 -->
<g id="Node000018" class="node">
<title>Node18</title>
<g id="a_Node000018"><a xlink:href="kest__dict__extract_8c.html#ab3a10359fda7bd744b54f0c72f1f497d" target="_top" xlink:title=" ">
<polygon fill="#fff0f0" stroke="red" points="667.75,-187.75 522,-187.75 522,-167 667.75,-167 667.75,-187.75"/>
<text xml:space="preserve" text-anchor="middle" x="594.88" y="-174.25" font-family="Helvetica,sans-Serif" font-size="10.00">kest_extract_lpf_from_dict</text>
</a>
</g>
</g>
<!-- Node3&#45;&gt;Node18 -->
<g id="edge30_Node000003_Node000018" class="edge">
<title>Node3&#45;&gt;Node18</title>
<g id="a_edge30_Node000003_Node000018"><a xlink:title=" ">
<path fill="none" stroke="#63b8ff" d="M745.61,-266.34C727.83,-244.82 699.91,-215.03 669.25,-197.38 662.84,-193.69 655.73,-190.65 648.52,-188.17"/>
<polygon fill="#63b8ff" stroke="#63b8ff" points="742.86,-268.51 751.86,-274.11 748.31,-264.12 742.86,-268.51"/>
</a>
</g>
</g>
<!-- Node42 -->
<g id="Node000042" class="node">
<title>Node42</title>
<g id="a_Node000042"><a xlink:href="kest__dict__extract_8c.html#aaf0af9bba0940d4cfe5a8286222f14be" target="_top" xlink:title=" ">
<polygon fill="white" stroke="#666666" points="661,-149.12 528.75,-149.12 528.75,-115.62 661,-115.62 661,-149.12"/>
<text xml:space="preserve" text-anchor="start" x="536.75" y="-135.62" font-family="Helvetica,sans-Serif" font-size="10.00">kest_extract_parameter</text>
<text xml:space="preserve" text-anchor="middle" x="594.88" y="-122.88" font-family="Helvetica,sans-Serif" font-size="10.00">_from_dict</text>
</a>
</g>
</g>
<!-- Node3&#45;&gt;Node42 -->
<g id="edge31_Node000003_Node000042" class="edge">
<title>Node3&#45;&gt;Node42</title>
<g id="a_edge31_Node000003_Node000042"><a xlink:title=" ">
<path fill="none" stroke="#63b8ff" d="M752.43,-265.22C736.64,-235.11 707.39,-187.03 669.25,-158.38 664.82,-155.05 659.93,-152.12 654.83,-149.55"/>
<polygon fill="#63b8ff" stroke="#63b8ff" points="749.28,-266.76 756.94,-274.08 755.52,-263.58 749.28,-266.76"/>
</a>
</g>
</g>
<!-- Node44 -->
<g id="Node000044" class="node">
<title>Node44</title>
<g id="a_Node000044"><a xlink:href="kest__asm__parser_8c.html#a93fe9789a6b0162607601862f5fa9c8c" target="_top" xlink:title=" ">
<polygon fill="white" stroke="#666666" points="658.38,-59.75 531.38,-59.75 531.38,-39 658.38,-39 658.38,-59.75"/>
<text xml:space="preserve" text-anchor="middle" x="594.88" y="-46.25" font-family="Helvetica,sans-Serif" font-size="10.00">kest_parse_asm_arg_2</text>
</a>
</g>
</g>
<!-- Node3&#45;&gt;Node44 -->
<g id="edge34_Node000003_Node000044" class="edge">
<title>Node3&#45;&gt;Node44</title>
<g id="a_edge34_Node000003_Node000044"><a xlink:title=" ">
<path fill="none" stroke="#63b8ff" d="M760.74,-264.1C751.45,-217.7 726.59,-125.35 669.25,-73.38 663.09,-67.79 655.62,-63.51 647.82,-60.22"/>
<polygon fill="#63b8ff" stroke="#63b8ff" points="757.29,-264.72 762.58,-273.9 764.17,-263.42 757.29,-264.72"/>
</a>
</g>
</g>
<!-- Node45 -->
<g id="Node000045" class="node">
<title>Node45</title>
<g id="a_Node000045"><a xlink:href="kest__asm__parser_8c.html#a8a0d633256a85b35706b7a9ef1add7f0" target="_top" xlink:title=" ">
<polygon fill="#fff0f0" stroke="red" points="472.12,-78.75 354.12,-78.75 354.12,-58 472.12,-58 472.12,-78.75"/>
<text xml:space="preserve" text-anchor="middle" x="413.12" y="-65.25" font-family="Helvetica,sans-Serif" font-size="10.00">kest_parse_asm_line</text>
</a>
</g>
</g>
<!-- Node3&#45;&gt;Node45 -->
<g id="edge36_Node000003_Node000045" class="edge">
<title>Node3&#45;&gt;Node45</title>
<g id="a_edge36_Node000003_Node000045"><a xlink:title=" ">
<path fill="none" stroke="#63b8ff" d="M759.51,-264.36C749.01,-222.6 723.08,-144.85 669.25,-106.38 638.56,-84.44 537.74,-74.92 472.41,-70.97"/>
<polygon fill="#63b8ff" stroke="#63b8ff" points="756.06,-264.97 761.78,-273.89 762.87,-263.35 756.06,-264.97"/>
</a>
</g>
</g>
<!-- Node48 -->
<g id="Node000048" class="node">
<title>Node48</title>
<g id="a_Node000048"><a xlink:href="kest__asm__parser_8c.html#a2631a3bf92814826b04c07694026a878" target="_top" xlink:title=" ">
<polygon fill="white" stroke="#666666" points="659.12,-20.75 530.62,-20.75 530.62,0 659.12,0 659.12,-20.75"/>
<text xml:space="preserve" text-anchor="middle" x="594.88" y="-7.25" font-family="Helvetica,sans-Serif" font-size="10.00">kest_process_asm_line</text>
</a>
</g>
</g>
<!-- Node3&#45;&gt;Node48 -->
<g id="edge37_Node000003_Node000048" class="edge">
<title>Node3&#45;&gt;Node48</title>
<g id="a_edge37_Node000003_Node000048"><a xlink:title=" ">
<path fill="none" stroke="#63b8ff" d="M763.4,-264.04C757.87,-210.37 738.15,-93.59 669.25,-30.38 665.16,-26.63 660.44,-23.57 655.41,-21.08"/>
<polygon fill="#63b8ff" stroke="#63b8ff" points="759.9,-264.24 764.31,-273.88 766.87,-263.6 759.9,-264.24"/>
</a>
</g>
</g>
<!-- Node4&#45;&gt;Node4 -->
<g id="edge5_Node000004_Node000004" class="edge">
<title>Node4&#45;&gt;Node4</title>
<g id="a_edge5_Node000004_Node000004"><a xlink:title=" ">
<path fill="none" stroke="#63b8ff" d="M623.69,-519.51C619,-523.47 609.39,-526.12 594.88,-526.12 569.06,-526.12 558.78,-517.74 564.02,-508.54"/>
<polygon fill="#63b8ff" stroke="#63b8ff" points="627.07,-520.5 625.45,-510.03 620.19,-519.22 627.07,-520.5"/>
</a>
</g>
</g>
<!-- Node5 -->
<g id="Node000005" class="node">
<title>Node5</title>
<g id="a_Node000005"><a xlink:href="kest__dict__extract_8c.html#ac9cee86a595df863e15b7693b86635b7" target="_top" xlink:title=" ">
<polygon fill="white" stroke="#666666" points="465.38,-629.12 360.88,-629.12 360.88,-595.62 465.38,-595.62 465.38,-629.12"/>
<text xml:space="preserve" text-anchor="start" x="368.88" y="-615.62" font-family="Helvetica,sans-Serif" font-size="10.00">kest_extract_filter</text>
<text xml:space="preserve" text-anchor="middle" x="413.12" y="-602.88" font-family="Helvetica,sans-Serif" font-size="10.00">_coefs_from_dict</text>
</a>
</g>
</g>
<!-- Node4&#45;&gt;Node5 -->
<g id="edge6_Node000004_Node000005" class="edge">
<title>Node4&#45;&gt;Node5</title>
<g id="a_edge6_Node000004_Node000005"><a xlink:title=" ">
<path fill="none" stroke="#63b8ff" d="M559.15,-514.75C524.15,-538.31 470.96,-574.12 439.66,-595.19"/>
<polygon fill="#63b8ff" stroke="#63b8ff" points="560.91,-517.79 567.25,-509.3 557,-511.98 560.91,-517.79"/>
</a>
</g>
</g>
<!-- Node21 -->
<g id="Node000021" class="node">
<title>Node21</title>
<g id="a_Node000021"><a xlink:href="kest__dictionary_8c.html#a8db4f9c511b00d7240052135e9c1ed67" target="_top" xlink:title=" ">
<polygon fill="white" stroke="#666666" points="469.12,-501.75 357.12,-501.75 357.12,-481 469.12,-481 469.12,-501.75"/>
<text xml:space="preserve" text-anchor="middle" x="413.12" y="-488.25" font-family="Helvetica,sans-Serif" font-size="10.00">kest_parse_dict_list</text>
</a>
</g>
</g>
<!-- Node4&#45;&gt;Node21 -->
<g id="edge10_Node000004_Node000021" class="edge">
<title>Node4&#45;&gt;Node21</title>
<g id="a_edge10_Node000004_Node000021"><a xlink:title=" ">
<path fill="none" stroke="#63b8ff" d="M530.42,-491.38C510.53,-491.38 488.74,-491.38 469.45,-491.38"/>
<polygon fill="#63b8ff" stroke="#63b8ff" points="530.37,-494.88 540.37,-491.38 530.37,-487.88 530.37,-494.88"/>
</a>
</g>
</g>
<!-- Node22 -->
<g id="Node000022" class="node">
<title>Node22</title>
<g id="a_Node000022"><a xlink:href="kest__dictionary_8c.html#af0aceaa93cba06fd44ad4bc50f2418e4" target="_top" xlink:title=" ">
<polygon fill="#fff0f0" stroke="red" points="290.38,-501.75 178.38,-501.75 178.38,-481 290.38,-481 290.38,-501.75"/>
<text xml:space="preserve" text-anchor="middle" x="234.38" y="-488.25" font-family="Helvetica,sans-Serif" font-size="10.00">kest_parse_dict_val</text>
</a>
</g>
</g>
<!-- Node4&#45;&gt;Node22 -->
<g id="edge13_Node000004_Node000022" class="edge">
<title>Node4&#45;&gt;Node22</title>
<g id="a_edge13_Node000004_Node000022"><a xlink:title=" ">
<path fill="none" stroke="#63b8ff" d="M530.55,-504.28C515.52,-506.81 499.5,-509.08 484.5,-510.38 421.29,-515.82 404.95,-515.97 341.75,-510.38 323.34,-508.74 303.35,-505.56 285.72,-502.25"/>
<polygon fill="#63b8ff" stroke="#63b8ff" points="531.08,-507.74 540.33,-502.56 529.87,-500.84 531.08,-507.74"/>
</a>
</g>
</g>
<!-- Node25 -->
<g id="Node000025" class="node">
<title>Node25</title>
<g id="a_Node000025"><a xlink:href="kest__dictionary_8c.html#a2a60847422026db5eab8103cd8ea1dc5" target="_top" xlink:title=" ">
<polygon fill="#fff0f0" stroke="red" points="444,-462.75 382.25,-462.75 382.25,-442 444,-442 444,-462.75"/>
<text xml:space="preserve" text-anchor="middle" x="413.12" y="-449.25" font-family="Helvetica,sans-Serif" font-size="10.00">print_dict</text>
</a>
</g>
</g>
<!-- Node4&#45;&gt;Node25 -->
<g id="edge14_Node000004_Node000025" class="edge">
<title>Node4&#45;&gt;Node25</title>
<g id="a_edge14_Node000004_Node000025"><a xlink:title=" ">
<path fill="none" stroke="#63b8ff" d="M530.87,-477.71C501.52,-471.34 467.96,-464.06 444.38,-458.94"/>
<polygon fill="#63b8ff" stroke="#63b8ff" points="529.89,-481.07 540.4,-479.77 531.37,-474.23 529.89,-481.07"/>
</a>
</g>
</g>
<!-- Node5&#45;&gt;Node6 -->
<g id="edge7_Node000005_Node000006" class="edge">
<title>Node5&#45;&gt;Node6</title>
<g id="a_edge7_Node000005_Node000006"><a xlink:title=" ">
<path fill="none" stroke="#63b8ff" d="M364.04,-634.14C335.48,-647.07 299.78,-663.23 273.23,-675.24"/>
<polygon fill="#63b8ff" stroke="#63b8ff" points="365.16,-637.47 372.83,-630.16 362.28,-631.1 365.16,-637.47"/>
</a>
</g>
</g>
<!-- Node5&#45;&gt;Node19 -->
<g id="edge8_Node000005_Node000019" class="edge">
<title>Node5&#45;&gt;Node19</title>
<g id="a_edge8_Node000005_Node000019"><a xlink:title=" ">
<path fill="none" stroke="#63b8ff" d="M349.13,-620.22C328.78,-622.75 306.47,-625.53 287.04,-627.94"/>
<polygon fill="#63b8ff" stroke="#63b8ff" points="349.53,-623.69 359.02,-618.98 348.67,-616.75 349.53,-623.69"/>
</a>
</g>
</g>
<!-- Node5&#45;&gt;Node20 -->
<g id="edge9_Node000005_Node000020" class="edge">
<title>Node5&#45;&gt;Node20</title>
<g id="a_edge9_Node000005_Node000020"><a xlink:title=" ">
<path fill="none" stroke="#63b8ff" d="M349.7,-597.54C334.53,-593.94 318.23,-590.06 302.83,-586.4"/>
<polygon fill="#63b8ff" stroke="#63b8ff" points="348.52,-600.86 359.05,-599.76 350.13,-594.05 348.52,-600.86"/>
</a>
</g>
</g>
<!-- Node21&#45;&gt;Node22 -->
<g id="edge11_Node000021_Node000022" class="edge">
<title>Node21&#45;&gt;Node22</title>
<g id="a_edge11_Node000021_Node000022"><a xlink:title=" ">
<path fill="none" stroke="#63b8ff" d="M345.34,-484.81C327.29,-484.5 307.96,-484.58 290.62,-485.07"/>
<polygon fill="#63b8ff" stroke="#63b8ff" points="345.1,-488.3 355.17,-485.03 345.25,-481.3 345.1,-488.3"/>
</a>
</g>
</g>
<!-- Node22&#45;&gt;Node21 -->
<g id="edge12_Node000022_Node000021" class="edge">
<title>Node22&#45;&gt;Node21</title>
<g id="a_edge12_Node000022_Node000021"><a xlink:title=" ">
<path fill="none" stroke="#63b8ff" d="M301.95,-497.94C319.99,-498.25 339.33,-498.17 356.69,-497.69"/>
<polygon fill="#63b8ff" stroke="#63b8ff" points="302.21,-494.44 292.13,-497.72 302.05,-501.44 302.21,-494.44"/>
</a>
</g>
</g>
<!-- Node27 -->
<g id="Node000027" class="node">
<title>Node27</title>
<g id="a_Node000027"><a xlink:href="kest__reg__format_8c.html#a29aa51e007e672b4a6d7b9a4b287754a" target="_top" xlink:title=" ">
<polygon fill="#fff0f0" stroke="red" points="127,-429.12 0,-429.12 0,-395.62 127,-395.62 127,-429.12"/>
<text xml:space="preserve" text-anchor="start" x="8" y="-415.62" font-family="Helvetica,sans-Serif" font-size="10.00">kest_compute_register</text>
<text xml:space="preserve" text-anchor="middle" x="63.5" y="-402.88" font-family="Helvetica,sans-Serif" font-size="10.00">_formats</text>
</a>
</g>
</g>
<!-- Node26&#45;&gt;Node27 -->
<g id="edge16_Node000026_Node000027" class="edge">
<title>Node26&#45;&gt;Node27</title>
<g id="a_edge16_Node000026_Node000027"><a xlink:title=" ">
<path fill="none" stroke="#63b8ff" d="M151.36,-399C143.28,-400.25 135.17,-401.49 127.33,-402.7"/>
<polygon fill="#63b8ff" stroke="#63b8ff" points="151.89,-402.46 161.24,-397.48 150.82,-395.54 151.89,-402.46"/>
</a>
</g>
</g>
<!-- Node29 -->
<g id="Node000029" class="node">
<title>Node29</title>
<g id="a_Node000029"><a xlink:href="kest__fixed__point_8c.html#a152783a4a8b5bc4b35e20d1c53acdae4" target="_top" xlink:title=" ">
<polygon fill="#fff0f0" stroke="red" points="119.88,-377.12 7.13,-377.12 7.13,-343.62 119.88,-343.62 119.88,-377.12"/>
<text xml:space="preserve" text-anchor="start" x="15.13" y="-363.62" font-family="Helvetica,sans-Serif" font-size="10.00">kest_filter_compute</text>
<text xml:space="preserve" text-anchor="middle" x="63.5" y="-350.88" font-family="Helvetica,sans-Serif" font-size="10.00">_format</text>
</a>
</g>
</g>
<!-- Node26&#45;&gt;Node29 -->
<g id="edge17_Node000026_Node000029" class="edge">
<title>Node26&#45;&gt;Node29</title>
<g id="a_edge17_Node000026_Node000029"><a xlink:title=" ">
<path fill="none" stroke="#63b8ff" d="M151.68,-373.8C141.03,-372.16 130.32,-370.51 120.22,-368.95"/>
<polygon fill="#63b8ff" stroke="#63b8ff" points="150.82,-377.21 161.24,-375.27 151.89,-370.29 150.82,-377.21"/>
</a>
</g>
</g>
<!-- Node30&#45;&gt;Node30 -->
<g id="edge21_Node000030_Node000030" class="edge">
<title>Node30&#45;&gt;Node30</title>
<g id="a_edge21_Node000030_Node000030"><a xlink:title=" ">
<path fill="none" stroke="#63b8ff" d="M623.69,-397.51C619,-401.47 609.39,-404.12 594.88,-404.12 569.06,-404.12 558.78,-395.74 564.02,-386.54"/>
<polygon fill="#63b8ff" stroke="#63b8ff" points="627.07,-398.5 625.45,-388.03 620.19,-397.22 627.07,-398.5"/>
</a>
</g>
</g>
<!-- Node31 -->
<g id="Node000031" class="node">
<title>Node31</title>
<g id="a_Node000031"><a xlink:href="kest__expression_8c.html#a619ffc9c55b8a65d5681d740b8738598" target="_top" xlink:title=" ">
<polygon fill="white" stroke="#666666" points="484.5,-386.12 341.75,-386.12 341.75,-352.62 484.5,-352.62 484.5,-386.12"/>
<text xml:space="preserve" text-anchor="start" x="349.75" y="-372.62" font-family="Helvetica,sans-Serif" font-size="10.00">kest_expression_compute</text>
<text xml:space="preserve" text-anchor="middle" x="413.12" y="-359.88" font-family="Helvetica,sans-Serif" font-size="10.00">_range</text>
</a>
</g>
</g>
<!-- Node30&#45;&gt;Node31 -->
<g id="edge19_Node000030_Node000031" class="edge">
<title>Node30&#45;&gt;Node31</title>
<g id="a_edge19_Node000030_Node000031"><a xlink:title=" ">
<path fill="none" stroke="#63b8ff" d="M511.78,-369.38C502.79,-369.38 493.69,-369.38 484.84,-369.38"/>
<polygon fill="#63b8ff" stroke="#63b8ff" points="511.58,-372.88 521.58,-369.38 511.58,-365.88 511.58,-372.88"/>
</a>
</g>
</g>
<!-- Node31&#45;&gt;Node26 -->
<g id="edge20_Node000031_Node000026" class="edge">
<title>Node31&#45;&gt;Node26</title>
<g id="a_edge20_Node000031_Node000026"><a xlink:title=" ">
<path fill="none" stroke="#63b8ff" d="M329.98,-377.28C321.96,-378.05 313.87,-378.83 305.98,-379.58"/>
<polygon fill="#63b8ff" stroke="#63b8ff" points="330.13,-380.78 339.75,-376.34 329.46,-373.81 330.13,-380.78"/>
</a>
</g>
</g>
<!-- Node32&#45;&gt;Node32 -->
<g id="edge25_Node000032_Node000032" class="edge">
<title>Node32&#45;&gt;Node32</title>
<g id="a_edge25_Node000032_Node000032"><a xlink:title=" ">
<path fill="none" stroke="#63b8ff" d="M623.69,-289.51C619,-293.47 609.39,-296.12 594.88,-296.12 569.06,-296.12 558.78,-287.74 564.02,-278.54"/>
<polygon fill="#63b8ff" stroke="#63b8ff" points="627.07,-290.5 625.45,-280.03 620.19,-289.22 627.07,-290.5"/>
</a>
</g>
</g>
<!-- Node33 -->
<g id="Node000033" class="node">
<title>Node33</title>
<g id="a_Node000033"><a xlink:href="kest__expression_8c.html#a4428080cc6a255e85501a259bdb4dc8a" target="_top" xlink:title=" ">
<polygon fill="#fff0f0" stroke="red" points="471,-287.12 355.25,-287.12 355.25,-253.62 471,-253.62 471,-287.12"/>
<text xml:space="preserve" text-anchor="start" x="363.25" y="-273.62" font-family="Helvetica,sans-Serif" font-size="10.00">kest_expression_get</text>
<text xml:space="preserve" text-anchor="middle" x="413.12" y="-260.88" font-family="Helvetica,sans-Serif" font-size="10.00">_references</text>
</a>
</g>
</g>
<!-- Node32&#45;&gt;Node33 -->
<g id="edge23_Node000032_Node000033" class="edge">
<title>Node32&#45;&gt;Node33</title>
<g id="a_edge23_Node000032_Node000033"><a xlink:title=" ">
<path fill="none" stroke="#63b8ff" d="M525.03,-264.82C507.27,-265.71 488.35,-266.66 471.26,-267.51"/>
<polygon fill="#63b8ff" stroke="#63b8ff" points="525.18,-268.32 535,-264.32 524.83,-261.33 525.18,-268.32"/>
</a>
</g>
</g>
<!-- Node33&#45;&gt;Node34 -->
<g id="edge24_Node000033_Node000034" class="edge">
<title>Node33&#45;&gt;Node34</title>
<g id="a_edge24_Node000033_Node000034"><a xlink:title=" ">
<path fill="none" stroke="#63b8ff" d="M344.03,-284.24C331.08,-286.88 317.52,-289.64 304.53,-292.29"/>
<polygon fill="#63b8ff" stroke="#63b8ff" points="344.64,-287.69 353.74,-282.27 343.25,-280.83 344.64,-287.69"/>
</a>
</g>
</g>
<!-- Node43 -->
<g id="Node000043" class="node">
<title>Node43</title>
<g id="a_Node000043"><a xlink:href="kest__eff__section_8c.html#a5fe6d5cd354aa8f4322524ecc9b6af63" target="_top" xlink:title=" ">
<polygon fill="#fff0f0" stroke="red" points="482.25,-149.12 344,-149.12 344,-115.62 482.25,-115.62 482.25,-149.12"/>
<text xml:space="preserve" text-anchor="start" x="352" y="-135.62" font-family="Helvetica,sans-Serif" font-size="10.00">kest_parameters_section</text>
<text xml:space="preserve" text-anchor="middle" x="413.12" y="-122.88" font-family="Helvetica,sans-Serif" font-size="10.00">_extract</text>
</a>
</g>
</g>
<!-- Node42&#45;&gt;Node43 -->
<g id="edge32_Node000042_Node000043" class="edge">
<title>Node42&#45;&gt;Node43</title>
<g id="a_edge32_Node000042_Node000043"><a xlink:title=" ">
<path fill="none" stroke="#63b8ff" d="M517.1,-132.38C505.6,-132.38 493.81,-132.38 482.5,-132.38"/>
<polygon fill="#63b8ff" stroke="#63b8ff" points="516.96,-135.88 526.96,-132.38 516.96,-128.88 516.96,-135.88"/>
</a>
</g>
</g>
<!-- Node44&#45;&gt;Node45 -->
<g id="edge35_Node000044_Node000045" class="edge">
<title>Node44&#45;&gt;Node45</title>
<g id="a_edge35_Node000044_Node000045"><a xlink:title=" ">
<path fill="none" stroke="#63b8ff" d="M519.68,-57.22C503.92,-58.88 487.5,-60.62 472.44,-62.21"/>
<polygon fill="#63b8ff" stroke="#63b8ff" points="519.93,-60.71 529.5,-56.18 519.19,-53.75 519.93,-60.71"/>
</a>
</g>
</g>
<!-- Node49 -->
<g id="Node000049" class="node">
<title>Node49</title>
<g id="a_Node000049"><a xlink:href="kest__asm__parser_8c.html#ae59ff30494de598aa24df2c421eff7f7" target="_top" xlink:title=" ">
<polygon fill="#fff0f0" stroke="red" points="480,-20.75 346.25,-20.75 346.25,0 480,0 480,-20.75"/>
<text xml:space="preserve" text-anchor="middle" x="413.12" y="-7.25" font-family="Helvetica,sans-Serif" font-size="10.00">kest_process_asm_lines</text>
</a>
</g>
</g>
<!-- Node48&#45;&gt;Node49 -->
<g id="edge38_Node000048_Node000049" class="edge">
<title>Node48&#45;&gt;Node49</title>
<g id="a_edge38_Node000048_Node000049"><a xlink:title=" ">
<path fill="none" stroke="#63b8ff" d="M519.1,-10.38C506.26,-10.38 493,-10.38 480.4,-10.38"/>
<polygon fill="#63b8ff" stroke="#63b8ff" points="518.74,-13.88 528.74,-10.38 518.74,-6.88 518.74,-13.88"/>
</a>
</g>
</g>
</g>
</svg>
