<?xml version="1.0" encoding="UTF-8" standalone="no"?>
<!DOCTYPE svg PUBLIC "-//W3C//DTD SVG 1.1//EN"
 "http://www.w3.org/Graphics/SVG/1.1/DTD/svg11.dtd">
<!-- Generated by graphviz version 13.1.2 (20250808.2320)
 -->
<!-- Title: init_m_preset Pages: 1 -->
<svg width="589pt" height="248pt"
 viewBox="0.00 0.00 589.00 248.00" xmlns="http://www.w3.org/2000/svg" xmlns:xlink="http://www.w3.org/1999/xlink">
<g id="graph0" class="graph" transform="scale(1 1) rotate(0) translate(4 244.12)">
<title>init_m_preset</title>
<!-- Node1 -->
<g id="Node000001" class="node">
<title>Node1</title>
<g id="a_Node000001"><a xlink:title=" ">
<polygon fill="#999999" stroke="#666666" points="82.75,-181.75 0,-181.75 0,-161 82.75,-161 82.75,-181.75"/>
<text xml:space="preserve" text-anchor="middle" x="41.38" y="-168.25" font-family="Helvetica,sans-Serif" font-size="10.00">init_m_preset</text>
</a>
</g>
</g>
<!-- Node2 -->
<g id="Node000002" class="node">
<title>Node2</title>
<g id="a_Node000002"><a xlink:href="kest__pipeline_8c.html#a5854d23849b879b4c5632bd23cac4ada" target="_top" xlink:title=" ">
<polygon fill="white" stroke="#666666" points="221.38,-220.75 130.38,-220.75 130.38,-200 221.38,-200 221.38,-220.75"/>
<text xml:space="preserve" text-anchor="middle" x="175.88" y="-207.25" font-family="Helvetica,sans-Serif" font-size="10.00">init_m_pipeline</text>
</a>
</g>
</g>
<!-- Node1&#45;&gt;Node2 -->
<g id="edge1_Node000001_Node000002" class="edge">
<title>Node1&#45;&gt;Node2</title>
<g id="a_edge1_Node000001_Node000002"><a xlink:title=" ">
<path fill="none" stroke="#63b8ff" d="M79.28,-182.24C94.22,-186.63 111.64,-191.76 127.49,-196.43"/>
<polygon fill="#63b8ff" stroke="#63b8ff" points="126.13,-199.68 136.71,-199.14 128.11,-192.96 126.13,-199.68"/>
</a>
</g>
</g>
<!-- Node3 -->
<g id="Node000003" class="node">
<title>Node3</title>
<g id="a_Node000003"><a xlink:href="kest__parameter_8c.html#a2b94ddb1588d1a5af4311970bb068122" target="_top" xlink:title=" ">
<polygon fill="white" stroke="#666666" points="219.88,-181.75 131.88,-181.75 131.88,-161 219.88,-161 219.88,-181.75"/>
<text xml:space="preserve" text-anchor="middle" x="175.88" y="-168.25" font-family="Helvetica,sans-Serif" font-size="10.00">init_parameter</text>
</a>
</g>
</g>
<!-- Node1&#45;&gt;Node3 -->
<g id="edge2_Node000001_Node000003" class="edge">
<title>Node1&#45;&gt;Node3</title>
<g id="a_edge2_Node000001_Node000003"><a xlink:title=" ">
<path fill="none" stroke="#63b8ff" d="M83.21,-171.38C94.97,-171.38 107.99,-171.38 120.43,-171.38"/>
<polygon fill="#63b8ff" stroke="#63b8ff" points="120.14,-174.88 130.14,-171.38 120.13,-167.88 120.14,-174.88"/>
</a>
</g>
</g>
<!-- Node36 -->
<g id="Node000036" class="node">
<title>Node36</title>
<g id="a_Node000036"><a xlink:href="kest__preset_8c.html#adafdde421c8a45460a73610143e238ec" target="_top" xlink:title=" ">
<polygon fill="white" stroke="#666666" points="233,-133.12 118.75,-133.12 118.75,-99.62 233,-99.62 233,-133.12"/>
<text xml:space="preserve" text-anchor="start" x="126.75" y="-119.62" font-family="Helvetica,sans-Serif" font-size="10.00">kest_preset_file_rep</text>
<text xml:space="preserve" text-anchor="middle" x="175.88" y="-106.88" font-family="Helvetica,sans-Serif" font-size="10.00">_update</text>
</a>
</g>
</g>
<!-- Node1&#45;&gt;Node36 -->
<g id="edge7_Node000001_Node000036" class="edge">
<title>Node1&#45;&gt;Node36</title>
<g id="a_edge7_Node000001_Node000036"><a xlink:title=" ">
<path fill="none" stroke="#63b8ff" d="M68.55,-160.51C84.07,-154.07 104.29,-145.68 122.92,-137.94"/>
<polygon fill="#63b8ff" stroke="#63b8ff" points="124.07,-141.25 131.97,-134.19 121.39,-134.79 124.07,-141.25"/>
</a>
</g>
</g>
<!-- Node4 -->
<g id="Node000004" class="node">
<title>Node4</title>
<g id="a_Node000004"><a xlink:href="kest__parameter_8c.html#abff5b0dd3ed907207191aa6079c514eb" target="_top" xlink:title=" ">
<polygon fill="white" stroke="#666666" points="397.5,-240.12 271.25,-240.12 271.25,-206.62 397.5,-206.62 397.5,-240.12"/>
<text xml:space="preserve" text-anchor="start" x="279.25" y="-226.62" font-family="Helvetica,sans-Serif" font-size="10.00">kest_parameter_effect</text>
<text xml:space="preserve" text-anchor="middle" x="334.38" y="-213.88" font-family="Helvetica,sans-Serif" font-size="10.00">_rep_update</text>
</a>
</g>
</g>
<!-- Node3&#45;&gt;Node4 -->
<g id="edge3_Node000003_Node000004" class="edge">
<title>Node3&#45;&gt;Node4</title>
<g id="a_edge3_Node000003_Node000004"><a xlink:title=" ">
<path fill="none" stroke="#63b8ff" d="M209.3,-182.15C227.07,-188.05 249.7,-195.57 270.75,-202.57"/>
<polygon fill="#63b8ff" stroke="#63b8ff" points="269.55,-205.86 280.15,-205.69 271.76,-199.21 269.55,-205.86"/>
</a>
</g>
</g>
<!-- Node7 -->
<g id="Node000007" class="node">
<title>Node7</title>
<g id="a_Node000007"><a xlink:href="kest__parameter_8c.html#a548a0b985f671572b9293afa1a1b5d79" target="_top" xlink:title=" ">
<polygon fill="white" stroke="#666666" points="399.75,-188.12 269,-188.12 269,-154.62 399.75,-154.62 399.75,-188.12"/>
<text xml:space="preserve" text-anchor="start" x="277" y="-174.62" font-family="Helvetica,sans-Serif" font-size="10.00">kest_parameter_widget</text>
<text xml:space="preserve" text-anchor="middle" x="334.38" y="-161.88" font-family="Helvetica,sans-Serif" font-size="10.00">_rep_update</text>
</a>
</g>
</g>
<!-- Node3&#45;&gt;Node7 -->
<g id="edge5_Node000003_Node000007" class="edge">
<title>Node3&#45;&gt;Node7</title>
<g id="a_edge5_Node000003_Node000007"><a xlink:title=" ">
<path fill="none" stroke="#63b8ff" d="M220.05,-171.38C231.67,-171.38 244.59,-171.38 257.42,-171.38"/>
<polygon fill="#63b8ff" stroke="#63b8ff" points="257.13,-174.88 267.13,-171.38 257.13,-167.88 257.13,-174.88"/>
</a>
</g>
</g>
<!-- Node5 -->
<g id="Node000005" class="node">
<title>Node5</title>
<g id="a_Node000005"><a xlink:href="kest__effect_8c.html#afdbf79f9f27eac4959dfcf7bbcb324d4" target="_top" xlink:title=" ">
<polygon fill="#fff0f0" stroke="red" points="575.88,-233.75 440.62,-233.75 440.62,-213 575.88,-213 575.88,-233.75"/>
<text xml:space="preserve" text-anchor="middle" x="508.25" y="-220.25" font-family="Helvetica,sans-Serif" font-size="10.00">kest_effect_update_reps</text>
</a>
</g>
</g>
<!-- Node4&#45;&gt;Node5 -->
<g id="edge4_Node000004_Node000005" class="edge">
<title>Node4&#45;&gt;Node5</title>
<g id="a_edge4_Node000004_Node000005"><a xlink:title=" ">
<path fill="none" stroke="#63b8ff" d="M397.91,-223.38C408.06,-223.38 418.68,-223.38 429.15,-223.38"/>
<polygon fill="#63b8ff" stroke="#63b8ff" points="428.9,-226.88 438.9,-223.38 428.9,-219.88 428.9,-226.88"/>
</a>
</g>
</g>
<!-- Node8 -->
<g id="Node000008" class="node">
<title>Node8</title>
<g id="a_Node000008"><a xlink:href="kest__parameter__widget_8c.html#a58d879b4e143133b22d67e3b1306a951" target="_top" xlink:title=" ">
<polygon fill="#fff0f0" stroke="red" points="580.75,-188.75 435.75,-188.75 435.75,-168 580.75,-168 580.75,-188.75"/>
<text xml:space="preserve" text-anchor="middle" x="508.25" y="-175.25" font-family="Helvetica,sans-Serif" font-size="10.00">parameter_widget_refresh</text>
</a>
</g>
</g>
<!-- Node7&#45;&gt;Node8 -->
<g id="edge6_Node000007_Node000008" class="edge">
<title>Node7&#45;&gt;Node8</title>
<g id="a_edge6_Node000007_Node000008"><a xlink:title=" ">
<path fill="none" stroke="#63b8ff" d="M399.86,-174C407.76,-174.32 415.92,-174.66 424.04,-174.99"/>
<polygon fill="#63b8ff" stroke="#63b8ff" points="423.83,-178.48 433.97,-175.39 424.12,-171.49 423.83,-178.48"/>
</a>
</g>
</g>
<!-- Node37 -->
<g id="Node000037" class="node">
<title>Node37</title>
<g id="a_Node000037"><a xlink:href="kest__files_8c.html#a930754405483621f50f94833b02cdd3c" target="_top" xlink:title=" ">
<polygon fill="white" stroke="#666666" points="372,-110.75 296.75,-110.75 296.75,-90 372,-90 372,-110.75"/>
<text xml:space="preserve" text-anchor="middle" x="334.38" y="-97.25" font-family="Helvetica,sans-Serif" font-size="10.00">save_preset</text>
</a>
</g>
</g>
<!-- Node36&#45;&gt;Node37 -->
<g id="edge8_Node000036_Node000037" class="edge">
<title>Node36&#45;&gt;Node37</title>
<g id="a_edge8_Node000036_Node000037"><a xlink:title=" ">
<path fill="none" stroke="#63b8ff" d="M233.38,-110.6C250.45,-108.85 269.02,-106.95 285.48,-105.27"/>
<polygon fill="#63b8ff" stroke="#63b8ff" points="285.39,-108.8 294.98,-104.3 284.68,-101.84 285.39,-108.8"/>
</a>
</g>
</g>
<!-- Node38 -->
<g id="Node000038" class="node">
<title>Node38</title>
<g id="a_Node000038"><a xlink:href="kest__files_8c.html#ab79d861306c25eab9284239e73d0cc07" target="_top" xlink:title=" ">
<polygon fill="white" stroke="#666666" points="564.25,-149.75 452.25,-149.75 452.25,-129 564.25,-129 564.25,-149.75"/>
<text xml:space="preserve" text-anchor="middle" x="508.25" y="-136.25" font-family="Helvetica,sans-Serif" font-size="10.00">dump_file_contents</text>
</a>
</g>
</g>
<!-- Node37&#45;&gt;Node38 -->
<g id="edge9_Node000037_Node000038" class="edge">
<title>Node37&#45;&gt;Node38</title>
<g id="a_edge9_Node000037_Node000038"><a xlink:title=" ">
<path fill="none" stroke="#63b8ff" d="M372.25,-108.74C394.41,-113.77 423.13,-120.29 448.38,-126.02"/>
<polygon fill="#63b8ff" stroke="#63b8ff" points="447.33,-129.37 457.85,-128.17 448.88,-122.54 447.33,-129.37"/>
</a>
</g>
</g>
<!-- Node39 -->
<g id="Node000039" class="node">
<title>Node39</title>
<g id="a_Node000039"><a xlink:href="kest__files_8c.html#aa81649890323b78baf99fbbad53ab5ff" target="_top" xlink:title=" ">
<polygon fill="white" stroke="#666666" points="562.38,-110.75 454.12,-110.75 454.12,-90 562.38,-90 562.38,-110.75"/>
<text xml:space="preserve" text-anchor="middle" x="508.25" y="-97.25" font-family="Helvetica,sans-Serif" font-size="10.00">generate_filename</text>
</a>
</g>
</g>
<!-- Node37&#45;&gt;Node39 -->
<g id="edge10_Node000037_Node000039" class="edge">
<title>Node37&#45;&gt;Node39</title>
<g id="a_edge10_Node000037_Node000039"><a xlink:title=" ">
<path fill="none" stroke="#63b8ff" d="M372.25,-100.38C392.68,-100.38 418.67,-100.38 442.38,-100.38"/>
<polygon fill="#63b8ff" stroke="#63b8ff" points="442.29,-103.88 452.29,-100.38 442.29,-96.88 442.29,-103.88"/>
</a>
</g>
</g>
<!-- Node13 -->
<g id="Node000013" class="node">
<title>Node13</title>
<g id="a_Node000013"><a xlink:href="kest__error__codes_8c.html#a0f4c77127bc0b77264a21104979c576a" target="_top" xlink:title=" ">
<polygon fill="white" stroke="#666666" points="562.38,-72.12 454.12,-72.12 454.12,-38.62 562.38,-38.62 562.38,-72.12"/>
<text xml:space="preserve" text-anchor="start" x="462.12" y="-58.62" font-family="Helvetica,sans-Serif" font-size="10.00">kest_error_code_to</text>
<text xml:space="preserve" text-anchor="middle" x="508.25" y="-45.88" font-family="Helvetica,sans-Serif" font-size="10.00">_string</text>
</a>
</g>
</g>
<!-- Node37&#45;&gt;Node13 -->
<g id="edge11_Node000037_Node000013" class="edge">
<title>Node37&#45;&gt;Node13</title>
<g id="a_edge11_Node000037_Node000013"><a xlink:title=" ">
<path fill="none" stroke="#63b8ff" d="M372.25,-90.72C392.77,-85.35 418.9,-78.51 442.7,-72.27"/>
<polygon fill="#63b8ff" stroke="#63b8ff" points="443.55,-75.67 452.34,-69.75 441.78,-68.9 443.55,-75.67"/>
</a>
</g>
</g>
<!-- Node40 -->
<g id="Node000040" class="node">
<title>Node40</title>
<g id="a_Node000040"><a xlink:href="kest__files_8c.html#aa542ea8d9ebd98457dad581876d72af6" target="_top" xlink:title=" ">
<polygon fill="white" stroke="#666666" points="564.62,-20.75 451.88,-20.75 451.88,0 564.62,0 564.62,-20.75"/>
<text xml:space="preserve" text-anchor="middle" x="508.25" y="-7.25" font-family="Helvetica,sans-Serif" font-size="10.00">save_preset_as_file</text>
</a>
</g>
</g>
<!-- Node37&#45;&gt;Node40 -->
<g id="edge12_Node000037_Node000040" class="edge">
<title>Node37&#45;&gt;Node40</title>
<g id="a_edge12_Node000037_Node000040"><a xlink:title=" ">
<path fill="none" stroke="#63b8ff" d="M347.46,-89.62C365.46,-74.15 400.95,-45.66 435.75,-29.38 439.23,-27.75 442.87,-26.24 446.59,-24.85"/>
<polygon fill="#63b8ff" stroke="#63b8ff" points="447.44,-28.26 455.77,-21.71 445.18,-21.63 447.44,-28.26"/>
</a>
</g>
</g>
</g>
</svg>
