<?xml version="1.0" encoding="UTF-8" standalone="no"?>
<!DOCTYPE svg PUBLIC "-//W3C//DTD SVG 1.1//EN"
 "http://www.w3.org/Graphics/SVG/1.1/DTD/svg11.dtd">
<!-- Generated by graphviz version 13.1.2 (20250808.2320)
 -->
<!-- Title: enter_ui_page_async_wrapper Pages: 1 -->
<svg width="575pt" height="68pt"
 viewBox="0.00 0.00 575.00 68.00" xmlns="http://www.w3.org/2000/svg" xmlns:xlink="http://www.w3.org/1999/xlink">
<g id="graph0" class="graph" transform="scale(1 1) rotate(0) translate(4 63.75)">
<title>enter_ui_page_async_wrapper</title>
<!-- Node1 -->
<g id="Node000001" class="node">
<title>Node1</title>
<g id="a_Node000001"><a xlink:title=" ">
<polygon fill="#999999" stroke="#666666" points="118.75,-46.12 0,-46.12 0,-12.62 118.75,-12.62 118.75,-46.12"/>
<text xml:space="preserve" text-anchor="start" x="8" y="-32.62" font-family="Helvetica,sans-Serif" font-size="10.00">enter_ui_page_async</text>
<text xml:space="preserve" text-anchor="middle" x="59.38" y="-19.88" font-family="Helvetica,sans-Serif" font-size="10.00">_wrapper</text>
</a>
</g>
</g>
<!-- Node2 -->
<g id="Node000002" class="node">
<title>Node2</title>
<g id="a_Node000002"><a xlink:href="kest__ui_8c.html#aab9f2e82d67858edd53fd09370687007" target="_top" xlink:title=" ">
<polygon fill="white" stroke="#666666" points="239.75,-39.75 154.75,-39.75 154.75,-19 239.75,-19 239.75,-39.75"/>
<text xml:space="preserve" text-anchor="middle" x="197.25" y="-26.25" font-family="Helvetica,sans-Serif" font-size="10.00">enter_ui_page</text>
</a>
</g>
</g>
<!-- Node1&#45;&gt;Node2 -->
<g id="edge1_Node000001_Node000002" class="edge">
<title>Node1&#45;&gt;Node2</title>
<g id="a_edge1_Node000001_Node000002"><a xlink:title=" ">
<path fill="none" stroke="#63b8ff" d="M119.18,-29.38C127.18,-29.38 135.35,-29.38 143.24,-29.38"/>
<polygon fill="#63b8ff" stroke="#63b8ff" points="143.03,-32.88 153.03,-29.38 143.03,-25.88 143.03,-32.88"/>
</a>
</g>
</g>
<!-- Node3 -->
<g id="Node000003" class="node">
<title>Node3</title>
<g id="a_Node000003"><a xlink:href="kest__file__task_8c.html#adfaf58014af5199e2822cba19b1d778c" target="_top" xlink:title=" ">
<polygon fill="white" stroke="#666666" points="405.75,-39.75 275.75,-39.75 275.75,-19 405.75,-19 405.75,-39.75"/>
<text xml:space="preserve" text-anchor="middle" x="340.75" y="-26.25" font-family="Helvetica,sans-Serif" font-size="10.00">kest_queue_state_save</text>
</a>
</g>
</g>
<!-- Node2&#45;&gt;Node3 -->
<g id="edge2_Node000002_Node000003" class="edge">
<title>Node2&#45;&gt;Node3</title>
<g id="a_edge2_Node000002_Node000003"><a xlink:title=" ">
<path fill="none" stroke="#63b8ff" d="M239.94,-29.38C247.56,-29.38 255.73,-29.38 263.99,-29.38"/>
<polygon fill="#63b8ff" stroke="#63b8ff" points="263.75,-32.88 273.75,-29.38 263.75,-25.88 263.75,-32.88"/>
</a>
</g>
</g>
<!-- Node4 -->
<g id="Node000004" class="node">
<title>Node4</title>
<g id="a_Node000004"><a xlink:href="kest__state_8c.html#a816d674320b40283e9c91ed95b9282a1" target="_top" xlink:title=" ">
<polygon fill="#fff0f0" stroke="red" points="563.5,-59.75 445.5,-59.75 445.5,-39 563.5,-39 563.5,-59.75"/>
<text xml:space="preserve" text-anchor="middle" x="504.5" y="-46.25" font-family="Helvetica,sans-Serif" font-size="10.00">kest_cxt_clone_state</text>
</a>
</g>
</g>
<!-- Node3&#45;&gt;Node4 -->
<g id="edge3_Node000003_Node000004" class="edge">
<title>Node3&#45;&gt;Node4</title>
<g id="a_edge3_Node000003_Node000004"><a xlink:title=" ">
<path fill="none" stroke="#63b8ff" d="M406.14,-37.34C415.29,-38.47 424.73,-39.63 433.96,-40.78"/>
<polygon fill="#63b8ff" stroke="#63b8ff" points="433.24,-44.21 443.59,-41.97 434.1,-37.27 433.24,-44.21"/>
</a>
</g>
</g>
<!-- Node8 -->
<g id="Node000008" class="node">
<title>Node8</title>
<g id="a_Node000008"><a xlink:href="kest__global_8c.html#a8fac0ce734ee513c822edfd74bb2d69d" target="_top" xlink:title=" ">
<polygon fill="white" stroke="#666666" points="567.25,-20.75 441.75,-20.75 441.75,0 567.25,0 567.25,-20.75"/>
<text xml:space="preserve" text-anchor="middle" x="504.5" y="-7.25" font-family="Helvetica,sans-Serif" font-size="10.00">kest_system_time_ms</text>
</a>
</g>
</g>
<!-- Node3&#45;&gt;Node8 -->
<g id="edge4_Node000003_Node000008" class="edge">
<title>Node3&#45;&gt;Node8</title>
<g id="a_edge4_Node000003_Node000008"><a xlink:title=" ">
<path fill="none" stroke="#63b8ff" d="M406.14,-21.81C414.05,-20.88 422.17,-19.93 430.19,-18.99"/>
<polygon fill="#63b8ff" stroke="#63b8ff" points="430.41,-22.48 439.93,-17.84 429.59,-15.53 430.41,-22.48"/>
</a>
</g>
</g>
</g>
</svg>
