<?xml version="1.0" encoding="UTF-8" standalone="no"?>
<!DOCTYPE svg PUBLIC "-//W3C//DTD SVG 1.1//EN"
 "http://www.w3.org/Graphics/SVG/1.1/DTD/svg11.dtd">
<!-- Generated by graphviz version 13.1.2 (20250808.2320)
 -->
<!-- Title: init_menu_page Pages: 1 -->
<!--zoomable 1016 -->

<svg id="main" version="1.1" xmlns="http://www.w3.org/2000/svg" xmlns:xlink="http://www.w3.org/1999/xlink" xml:space="preserve" onload="init(evt)">

<style type="text/css"><![CDATA[
.node, .edge {opacity: 0.7;}
.node.selected, .edge.selected {opacity: 1;}
.edge:hover path { stroke: red; }
.edge:hover polygon { stroke: red; fill: red; }
]]></style>

<defs>
  <circle id="rim" cx="0" cy="0" r="7"/>
  <circle id="rim2" cx="0" cy="0" r="3.5"/>
  <g id="zoomPlus">
    <use xlink:href="#rim" fill="#404040"><set attributeName="fill" to="#808080" begin="zoomplus.mouseover" end="zoomplus.mouseout"/></use>
    <path d="M-4,0h8M0,-4v8" fill="none" stroke="white" stroke-width="1.5" pointer-events="none"/>
  </g>
  <g id="zoomMin">
    <use xlink:href="#rim" fill="#404040"><set attributeName="fill" to="#808080" begin="zoomminus.mouseover" end="zoomminus.mouseout"/></use>
    <path d="M-4,0h8" fill="none" stroke="white" stroke-width="1.5" pointer-events="none"/>
  </g>
  <g id="arrowUp" transform="translate(30 24)">
    <use xlink:href="#rim"/>
    <path pointer-events="none" fill="none" stroke="white" stroke-width="1.5" d="M0,-3.0v7 M-2.5,-0.5L0,-3.0L2.5,-0.5"/>
  </g>
  <g id="arrowRight" transform="rotate(90) translate(36 -43)">
    <use xlink:href="#rim"/>
    <path pointer-events="none" fill="none" stroke="white" stroke-width="1.5" d="M0,-3.0v7 M-2.5,-0.5L0,-3.0L2.5,-0.5"/>
  </g>
  <g id="arrowDown" transform="rotate(180) translate(-30 -48)">
    <use xlink:href="#rim"/>
    <path pointer-events="none" fill="none" stroke="white" stroke-width="1.5" d="M0,-3.0v7 M-2.5,-0.5L0,-3.0L2.5,-0.5"/>
  </g>
  <g id="arrowLeft" transform="rotate(270) translate(-36 17)">
    <use xlink:href="#rim"/>
    <path pointer-events="none" fill="none" stroke="white" stroke-width="1.5" d="M0,-3.0v7 M-2.5,-0.5L0,-3.0L2.5,-0.5"/>
  </g>
  <g id="resetDef">
    <use xlink:href="#rim2" fill="#404040"><set attributeName="fill" to="#808080" begin="reset.mouseover" end="reset.mouseout"/></use>
  </g>
</defs>
<script type="application/ecmascript">
var viewWidth = 809;
var viewHeight = 1016;
var sectionId = 'dynsection-32';
</script>
<script type="application/ecmascript" xlink:href="svg.min.js"/>
<svg id="graph" class="graph">
<g id="viewport">
<title>init_menu_page</title>
<!-- Node1 -->
<g id="Node000001" class="node">
<title>Node1</title>
<g id="a_Node000001"><a xlink:title=" ">
<polygon fill="#999999" stroke="#666666" points="94,-568.75 0,-568.75 0,-548 94,-548 94,-568.75"/>
<text xml:space="preserve" text-anchor="middle" x="47" y="-555.25" font-family="Helvetica,sans-Serif" font-size="10.00">init_menu_page</text>
</a>
</g>
</g>
<!-- Node2 -->
<g id="Node000002" class="node">
<title>Node2</title>
<g id="a_Node000002"><a xlink:href="kest__menu_8c.html#a264644eed0c454d882162f462ed24454" target="_top" xlink:title=" ">
<polygon fill="white" stroke="#666666" points="254,-816.75 130,-816.75 130,-796 254,-796 254,-816.75"/>
<text xml:space="preserve" text-anchor="middle" x="192" y="-803.25" font-family="Helvetica,sans-Serif" font-size="10.00">configure_menu_page</text>
</a>
</g>
</g>
<!-- Node1&#45;&gt;Node2 -->
<g id="edge1_Node000001_Node000002" class="edge">
<title>Node1&#45;&gt;Node2</title>
<g id="a_edge1_Node000001_Node000002"><a xlink:title=" ">
<path fill="none" stroke="#63b8ff" d="M54.14,-569.03C76.01,-606.95 150.27,-735.74 179.27,-786.02"/>
<polygon fill="#63b8ff" stroke="#63b8ff" points="176.09,-787.53 184.12,-794.45 182.16,-784.04 176.09,-787.53"/>
</a>
</g>
</g>
<!-- Node7 -->
<g id="Node000007" class="node">
<title>Node7</title>
<g id="a_Node000007"><a xlink:href="kest__alloc_8c.html#a849755c5dc5b35e712ffcdb602e50fb4" target="_top" xlink:title=" ">
<polygon fill="white" stroke="#666666" points="761,-855.75 696.25,-855.75 696.25,-835 761,-835 761,-855.75"/>
<text xml:space="preserve" text-anchor="middle" x="728.62" y="-842.25" font-family="Helvetica,sans-Serif" font-size="10.00">kest_alloc</text>
</a>
</g>
</g>
<!-- Node1&#45;&gt;Node7 -->
<g id="edge41_Node000001_Node000007" class="edge">
<title>Node1&#45;&gt;Node7</title>
<g id="a_edge41_Node000001_Node000007"><a xlink:title=" ">
<path fill="none" stroke="#63b8ff" d="M47.83,-569.06C47.78,-610.25 53.06,-760.6 130,-843.38 282.65,-1007.61 415.09,-1051.28 620.5,-961.38 665.06,-941.87 699.32,-893.67 716.14,-865.93"/>
<polygon fill="#63b8ff" stroke="#63b8ff" points="719.11,-867.78 721.14,-857.38 713.07,-864.25 719.11,-867.78"/>
</a>
</g>
</g>
<!-- Node20 -->
<g id="Node000020" class="node">
<title>Node20</title>
<g id="a_Node000020"><a xlink:href="kest__menu_8c.html#a6775c89241a45f6fa04a6d8111139cb5" target="_top" xlink:title=" ">
<polygon fill="white" stroke="#666666" points="253.62,-606.75 130.38,-606.75 130.38,-586 253.62,-586 253.62,-606.75"/>
<text xml:space="preserve" text-anchor="middle" x="192" y="-593.25" font-family="Helvetica,sans-Serif" font-size="10.00">create_menu_page_ui</text>
</a>
</g>
</g>
<!-- Node1&#45;&gt;Node20 -->
<g id="edge13_Node000001_Node000020" class="edge">
<title>Node1&#45;&gt;Node20</title>
<g id="a_edge13_Node000001_Node000020"><a xlink:title=" ">
<path fill="none" stroke="#63b8ff" d="M88.6,-569.16C104.45,-573.37 122.8,-578.25 139.56,-582.71"/>
<polygon fill="#63b8ff" stroke="#63b8ff" points="138.28,-585.99 148.84,-585.17 140.07,-579.22 138.28,-585.99"/>
</a>
</g>
</g>
<!-- Node307 -->
<g id="Node000307" class="node">
<title>Node307</title>
<g id="a_Node000307"><a xlink:href="kest__menu_8c.html#af46174a3713bd90a7920a15efac58b46" target="_top" xlink:title=" ">
<polygon fill="white" stroke="#666666" points="413.25,-65.75 309.5,-65.75 309.5,-45 413.25,-45 413.25,-65.75"/>
<text xml:space="preserve" text-anchor="middle" x="361.38" y="-52.25" font-family="Helvetica,sans-Serif" font-size="10.00">enter_menu_page</text>
</a>
</g>
</g>
<!-- Node1&#45;&gt;Node307 -->
<g id="edge32_Node000001_Node000307" class="edge">
<title>Node1&#45;&gt;Node307</title>
<g id="a_edge32_Node000001_Node000307"><a xlink:title=" ">
<path fill="none" stroke="#63b8ff" d="M94.14,-568.28C140.35,-575.29 210.65,-577.64 254,-539.38 271.94,-523.54 339.07,-169.51 356.32,-77.22"/>
<polygon fill="#63b8ff" stroke="#63b8ff" points="359.74,-77.95 358.13,-67.48 352.86,-76.67 359.74,-77.95"/>
</a>
</g>
</g>
<!-- Node311 -->
<g id="Node000311" class="node">
<title>Node311</title>
<g id="a_Node000311"><a xlink:href="kest__menu_8c.html#a2a0663e2aaf8fcb135cdf12feb40dfdb" target="_top" xlink:title=" ">
<polygon fill="white" stroke="#666666" points="248,-530.75 136,-530.75 136,-510 248,-510 248,-530.75"/>
<text xml:space="preserve" text-anchor="middle" x="192" y="-517.25" font-family="Helvetica,sans-Serif" font-size="10.00">free_menu_page_ui</text>
</a>
</g>
</g>
<!-- Node1&#45;&gt;Node311 -->
<g id="edge38_Node000001_Node000311" class="edge">
<title>Node1&#45;&gt;Node311</title>
<g id="a_edge38_Node000001_Node000311"><a xlink:title=" ">
<path fill="none" stroke="#63b8ff" d="M88.6,-547.59C104.45,-543.38 122.8,-538.5 139.56,-534.04"/>
<polygon fill="#63b8ff" stroke="#63b8ff" points="140.07,-537.53 148.84,-531.58 138.28,-530.76 140.07,-537.53"/>
</a>
</g>
</g>
<!-- Node312 -->
<g id="Node000312" class="node">
<title>Node312</title>
<g id="a_Node000312"><a xlink:href="kest__menu_8c.html#afb490f7eb37e93e314d988561c52c615" target="_top" xlink:title=" ">
<polygon fill="white" stroke="#666666" points="248,-491.75 136,-491.75 136,-471 248,-471 248,-491.75"/>
<text xml:space="preserve" text-anchor="middle" x="192" y="-478.25" font-family="Helvetica,sans-Serif" font-size="10.00">init_menu_page_str</text>
</a>
</g>
</g>
<!-- Node1&#45;&gt;Node312 -->
<g id="edge39_Node000001_Node000312" class="edge">
<title>Node1&#45;&gt;Node312</title>
<g id="a_edge39_Node000001_Node000312"><a xlink:title=" ">
<path fill="none" stroke="#63b8ff" d="M60.89,-547.63C76.44,-535.1 103.77,-514.44 130,-501.38 133.71,-499.53 137.63,-497.79 141.62,-496.18"/>
<polygon fill="#63b8ff" stroke="#63b8ff" points="142.69,-499.52 150.83,-492.73 140.24,-492.96 142.69,-499.52"/>
</a>
</g>
</g>
<!-- Node172 -->
<g id="Node000172" class="node">
<title>Node172</title>
<g id="a_Node000172"><a xlink:href="kest__ui_8c.html#aa35b25eb0a8f315343a7ea5190b0163b" target="_top" xlink:title=" ">
<polygon fill="white" stroke="#666666" points="229.62,-452.75 154.38,-452.75 154.38,-432 229.62,-432 229.62,-452.75"/>
<text xml:space="preserve" text-anchor="middle" x="192" y="-439.25" font-family="Helvetica,sans-Serif" font-size="10.00">init_ui_page</text>
</a>
</g>
</g>
<!-- Node1&#45;&gt;Node172 -->
<g id="edge40_Node000001_Node000172" class="edge">
<title>Node1&#45;&gt;Node172</title>
<g id="a_edge40_Node000001_Node000172"><a xlink:title=" ">
<path fill="none" stroke="#63b8ff" d="M54.26,-547.77C66.39,-528.09 95.04,-485.8 130,-462.38 134.18,-459.58 138.77,-457.14 143.51,-455.04"/>
<polygon fill="#63b8ff" stroke="#63b8ff" points="144.57,-458.38 152.6,-451.47 142.02,-451.86 144.57,-458.38"/>
</a>
</g>
</g>
<!-- Node2&#45;&gt;Node2 -->
<g id="edge4_Node000002_Node000002" class="edge">
<title>Node2&#45;&gt;Node2</title>
<g id="a_edge4_Node000002_Node000002"><a xlink:title=" ">
<path fill="none" stroke="#63b8ff" d="M168.64,-817.15C159.29,-825.81 167.08,-834.75 192,-834.75 205.63,-834.75 214.13,-832.08 217.51,-828.24"/>
<polygon fill="#63b8ff" stroke="#63b8ff" points="220.99,-827.78 215.65,-818.63 214.12,-829.12 220.99,-827.78"/>
</a>
</g>
</g>
<!-- Node3 -->
<g id="Node000003" class="node">
<title>Node3</title>
<g id="a_Node000003"><a xlink:href="kest__menu_8c.html#a242ae4b29a8fb8fa0de44cdd5d0ed32d" target="_top" xlink:title=" ">
<polygon fill="white" stroke="#666666" points="422.62,-835.75 300.12,-835.75 300.12,-815 422.62,-815 422.62,-835.75"/>
<text xml:space="preserve" text-anchor="middle" x="361.38" y="-822.25" font-family="Helvetica,sans-Serif" font-size="10.00">configure_menu_item</text>
</a>
</g>
</g>
<!-- Node2&#45;&gt;Node3 -->
<g id="edge2_Node000002_Node000003" class="edge">
<title>Node2&#45;&gt;Node3</title>
<g id="a_edge2_Node000002_Node000003"><a xlink:title=" ">
<path fill="none" stroke="#63b8ff" d="M254.37,-813.34C265.5,-814.6 277.19,-815.93 288.59,-817.23"/>
<polygon fill="#63b8ff" stroke="#63b8ff" points="288.01,-820.68 298.34,-818.33 288.8,-813.73 288.01,-820.68"/>
</a>
</g>
</g>
<!-- Node5 -->
<g id="Node000005" class="node">
<title>Node5</title>
<g id="a_Node000005"><a xlink:href="kest__ui_8c.html#a01360963fabe989a816b58c78cbc041b" target="_top" xlink:title=" ">
<polygon fill="white" stroke="#666666" points="395.62,-796.75 327.12,-796.75 327.12,-776 395.62,-776 395.62,-796.75"/>
<text xml:space="preserve" text-anchor="middle" x="361.38" y="-783.25" font-family="Helvetica,sans-Serif" font-size="10.00">new_panel</text>
</a>
</g>
</g>
<!-- Node2&#45;&gt;Node5 -->
<g id="edge5_Node000002_Node000005" class="edge">
<title>Node2&#45;&gt;Node5</title>
<g id="a_edge5_Node000002_Node000005"><a xlink:title=" ">
<path fill="none" stroke="#63b8ff" d="M254.37,-799.04C274.62,-796.62 296.74,-793.98 315.51,-791.74"/>
<polygon fill="#63b8ff" stroke="#63b8ff" points="315.7,-795.24 325.22,-790.58 314.87,-788.29 315.7,-795.24"/>
</a>
</g>
</g>
<!-- Node8 -->
<g id="Node000008" class="node">
<title>Node8</title>
<g id="a_Node000008"><a xlink:href="kest__ui_8c.html#a349acdb394f97d782e6b5828af856b05" target="_top" xlink:title=" ">
<polygon fill="white" stroke="#666666" points="432.75,-893.75 290,-893.75 290,-873 432.75,-873 432.75,-893.75"/>
<text xml:space="preserve" text-anchor="middle" x="361.38" y="-880.25" font-family="Helvetica,sans-Serif" font-size="10.00">ui_page_add_back_button</text>
</a>
</g>
</g>
<!-- Node2&#45;&gt;Node8 -->
<g id="edge8_Node000002_Node000008" class="edge">
<title>Node2&#45;&gt;Node8</title>
<g id="a_edge8_Node000002_Node000008"><a xlink:title=" ">
<path fill="none" stroke="#63b8ff" d="M216.63,-817.24C245.29,-830.43 293.81,-852.75 326.46,-867.77"/>
<polygon fill="#63b8ff" stroke="#63b8ff" points="324.95,-870.93 335.49,-871.93 327.87,-864.57 324.95,-870.93"/>
</a>
</g>
</g>
<!-- Node4 -->
<g id="Node000004" class="node">
<title>Node4</title>
<g id="a_Node000004"><a xlink:href="kest__ui_8c.html#afbe4096c7ee75eb4368161945403d399" target="_top" xlink:title=" ">
<polygon fill="white" stroke="#666666" points="597.25,-835.75 492,-835.75 492,-815 597.25,-815 597.25,-835.75"/>
<text xml:space="preserve" text-anchor="middle" x="544.62" y="-822.25" font-family="Helvetica,sans-Serif" font-size="10.00">configure_ui_page</text>
</a>
</g>
</g>
<!-- Node3&#45;&gt;Node4 -->
<g id="edge3_Node000003_Node000004" class="edge">
<title>Node3&#45;&gt;Node4</title>
<g id="a_edge3_Node000003_Node000004"><a xlink:title=" ">
<path fill="none" stroke="#63b8ff" d="M422.98,-825.38C441.39,-825.38 461.66,-825.38 480.25,-825.38"/>
<polygon fill="#63b8ff" stroke="#63b8ff" points="480.05,-828.88 490.05,-825.38 480.05,-821.88 480.05,-828.88"/>
</a>
</g>
</g>
<!-- Node6 -->
<g id="Node000006" class="node">
<title>Node6</title>
<g id="a_Node000006"><a xlink:href="kest__ui_8c.html#a574d886c7fb2ce9bcf04b4a1e94576ac" target="_top" xlink:title=" ">
<polygon fill="white" stroke="#666666" points="576.62,-796.75 512.62,-796.75 512.62,-776 576.62,-776 576.62,-796.75"/>
<text xml:space="preserve" text-anchor="middle" x="544.62" y="-783.25" font-family="Helvetica,sans-Serif" font-size="10.00">init_panel</text>
</a>
</g>
</g>
<!-- Node5&#45;&gt;Node6 -->
<g id="edge6_Node000005_Node000006" class="edge">
<title>Node5&#45;&gt;Node6</title>
<g id="a_edge6_Node000005_Node000006"><a xlink:title=" ">
<path fill="none" stroke="#63b8ff" d="M396.04,-786.38C425.67,-786.38 468.97,-786.38 501.01,-786.38"/>
<polygon fill="#63b8ff" stroke="#63b8ff" points="500.75,-789.88 510.75,-786.38 500.75,-782.88 500.75,-789.88"/>
</a>
</g>
</g>
<!-- Node5&#45;&gt;Node7 -->
<g id="edge7_Node000005_Node000007" class="edge">
<title>Node5&#45;&gt;Node7</title>
<g id="a_edge7_Node000005_Node000007"><a xlink:title=" ">
<path fill="none" stroke="#63b8ff" d="M395.94,-775.96C446.15,-762.12 543.16,-742.2 620.5,-767.38 656.16,-778.98 689.85,-807.44 709.61,-826.58"/>
<polygon fill="#63b8ff" stroke="#63b8ff" points="707.05,-828.96 716.6,-833.55 711.99,-824.01 707.05,-828.96"/>
</a>
</g>
</g>
<!-- Node9 -->
<g id="Node000009" class="node">
<title>Node9</title>
<g id="a_Node000009"><a xlink:href="kest__button_8c.html#aa59f296fa9f9744c9753f81484085a15" target="_top" xlink:title=" ">
<polygon fill="white" stroke="#666666" points="606.25,-913.75 483,-913.75 483,-893 606.25,-893 606.25,-913.75"/>
<text xml:space="preserve" text-anchor="middle" x="544.62" y="-900.25" font-family="Helvetica,sans-Serif" font-size="10.00">button_set_clicked_cb</text>
</a>
</g>
</g>
<!-- Node8&#45;&gt;Node9 -->
<g id="edge9_Node000008_Node000009" class="edge">
<title>Node8&#45;&gt;Node9</title>
<g id="a_edge9_Node000008_Node000009"><a xlink:title=" ">
<path fill="none" stroke="#63b8ff" d="M433.23,-891.19C445.7,-892.57 458.69,-894 471.2,-895.38"/>
<polygon fill="#63b8ff" stroke="#63b8ff" points="470.69,-898.85 481.02,-896.47 471.46,-891.89 470.69,-898.85"/>
</a>
</g>
</g>
<!-- Node10 -->
<g id="Node000010" class="node">
<title>Node10</title>
<g id="a_Node000010"><a xlink:href="kest__ui_8c.html#af17d8912a520f607796e85d96467cc5a" target="_top" xlink:title=" ">
<polygon fill="#fff0f0" stroke="red" points="606.62,-874.75 482.62,-874.75 482.62,-854 606.62,-854 606.62,-874.75"/>
<text xml:space="preserve" text-anchor="middle" x="544.62" y="-861.25" font-family="Helvetica,sans-Serif" font-size="10.00">enter_parent_page_cb</text>
</a>
</g>
</g>
<!-- Node8&#45;&gt;Node10 -->
<g id="edge10_Node000008_Node000010" class="edge">
<title>Node8&#45;&gt;Node10</title>
<g id="a_edge10_Node000008_Node000010"><a xlink:title=" ">
<path fill="none" stroke="#63b8ff" d="M433.23,-875.95C445.62,-874.65 458.53,-873.3 470.97,-871.99"/>
<polygon fill="#63b8ff" stroke="#63b8ff" points="471.15,-875.49 480.73,-870.97 470.42,-868.53 471.15,-875.49"/>
</a>
</g>
</g>
<!-- Node18 -->
<g id="Node000018" class="node">
<title>Node18</title>
<g id="a_Node000018"><a xlink:href="kest__button_8c.html#afd8846ca469218a65279da29ad72e29b" target="_top" xlink:title=" ">
<polygon fill="#fff0f0" stroke="red" points="581.12,-952.75 508.12,-952.75 508.12,-932 581.12,-932 581.12,-952.75"/>
<text xml:space="preserve" text-anchor="middle" x="544.62" y="-939.25" font-family="Helvetica,sans-Serif" font-size="10.00">new_button</text>
</a>
</g>
</g>
<!-- Node8&#45;&gt;Node18 -->
<g id="edge11_Node000008_Node000018" class="edge">
<title>Node8&#45;&gt;Node18</title>
<g id="a_edge11_Node000008_Node000018"><a xlink:title=" ">
<path fill="none" stroke="#63b8ff" d="M389.69,-894.16C411.04,-902.41 441.56,-913.78 468.75,-922.38 477.69,-925.2 487.31,-927.97 496.57,-930.5"/>
<polygon fill="#63b8ff" stroke="#63b8ff" points="495.61,-933.87 506.17,-933.07 497.42,-927.11 495.61,-933.87"/>
</a>
</g>
</g>
<!-- Node18&#45;&gt;Node7 -->
<g id="edge12_Node000018_Node000007" class="edge">
<title>Node18&#45;&gt;Node7</title>
<g id="a_edge12_Node000018_Node000007"><a xlink:title=" ">
<path fill="none" stroke="#63b8ff" d="M581.6,-935.56C594.25,-932.44 608.34,-928.13 620.5,-922.38 653.35,-906.82 686.64,-880.96 707.2,-863.55"/>
<polygon fill="#63b8ff" stroke="#63b8ff" points="709.27,-866.39 714.56,-857.2 704.7,-861.09 709.27,-866.39"/>
</a>
</g>
</g>
<!-- Node20&#45;&gt;Node20 -->
<g id="edge30_Node000020_Node000020" class="edge">
<title>Node20&#45;&gt;Node20</title>
<g id="a_edge30_Node000020_Node000020"><a xlink:title=" ">
<path fill="none" stroke="#63b8ff" d="M168.64,-607.15C159.29,-615.81 167.08,-624.75 192,-624.75 205.63,-624.75 214.13,-622.08 217.51,-618.24"/>
<polygon fill="#63b8ff" stroke="#63b8ff" points="220.99,-617.78 215.65,-608.63 214.12,-619.12 220.99,-617.78"/>
</a>
</g>
</g>
<!-- Node21 -->
<g id="Node000021" class="node">
<title>Node21</title>
<g id="a_Node000021"><a xlink:href="kest__menu_8c.html#aa44b42640611d3ca75f6b55206ebd08e" target="_top" xlink:title=" ">
<polygon fill="white" stroke="#666666" points="422.25,-441.75 300.5,-441.75 300.5,-421 422.25,-421 422.25,-441.75"/>
<text xml:space="preserve" text-anchor="middle" x="361.38" y="-428.25" font-family="Helvetica,sans-Serif" font-size="10.00">create_menu_item_ui</text>
</a>
</g>
</g>
<!-- Node20&#45;&gt;Node21 -->
<g id="edge14_Node000020_Node000021" class="edge">
<title>Node20&#45;&gt;Node21</title>
<g id="a_edge14_Node000020_Node000021"><a xlink:title=" ">
<path fill="none" stroke="#63b8ff" d="M229.89,-585.62C238.29,-582.18 246.84,-577.81 254,-572.38 298.15,-538.84 332.99,-482.34 349.66,-452.05"/>
<polygon fill="#63b8ff" stroke="#63b8ff" points="352.6,-453.96 354.24,-443.5 346.43,-450.65 352.6,-453.96"/>
</a>
</g>
</g>
<!-- Node122 -->
<g id="Node000122" class="node">
<title>Node122</title>
<g id="a_Node000122"><a xlink:href="kest__ui_8c.html#a58a68a436917a32cc3daab2e0d4b3245" target="_top" xlink:title=" ">
<polygon fill="#fff0f0" stroke="red" points="427.88,-606.75 294.88,-606.75 294.88,-586 427.88,-586 427.88,-606.75"/>
<text xml:space="preserve" text-anchor="middle" x="361.38" y="-593.25" font-family="Helvetica,sans-Serif" font-size="10.00">ui_page_create_base_ui</text>
</a>
</g>
</g>
<!-- Node20&#45;&gt;Node122 -->
<g id="edge31_Node000020_Node000122" class="edge">
<title>Node20&#45;&gt;Node122</title>
<g id="a_edge31_Node000020_Node000122"><a xlink:title=" ">
<path fill="none" stroke="#63b8ff" d="M253.9,-596.38C263.37,-596.38 273.27,-596.38 283.04,-596.38"/>
<polygon fill="#63b8ff" stroke="#63b8ff" points="282.92,-599.88 292.92,-596.38 282.92,-592.88 282.92,-599.88"/>
</a>
</g>
</g>
<!-- Node21&#45;&gt;Node7 -->
<g id="edge18_Node000021_Node000007" class="edge">
<title>Node21&#45;&gt;Node7</title>
<g id="a_edge18_Node000021_Node000007"><a xlink:title=" ">
<path fill="none" stroke="#63b8ff" d="M368.22,-442.12C381.03,-465.97 412.11,-525.32 432.75,-577.38 452.34,-626.77 432.53,-652.5 468.75,-691.38 518.19,-744.44 558.61,-713.57 620.5,-751.38 655.45,-772.72 689.98,-805.76 710.03,-826.44"/>
<polygon fill="#63b8ff" stroke="#63b8ff" points="707.46,-828.82 716.89,-833.64 712.53,-823.99 707.46,-828.82"/>
</a>
</g>
</g>
<!-- Node22 -->
<g id="Node000022" class="node">
<title>Node22</title>
<g id="a_Node000022"><a xlink:href="kest__ui_8c.html#aa1f5b3566872ce5240f8f4459efe1c23" target="_top" xlink:title=" ">
<polygon fill="white" stroke="#666666" points="610.38,-578.12 478.88,-578.12 478.88,-544.62 610.38,-544.62 610.38,-578.12"/>
<text xml:space="preserve" text-anchor="start" x="486.88" y="-564.62" font-family="Helvetica,sans-Serif" font-size="10.00">create_standard_button</text>
<text xml:space="preserve" text-anchor="middle" x="544.62" y="-551.88" font-family="Helvetica,sans-Serif" font-size="10.00">_click</text>
</a>
</g>
</g>
<!-- Node21&#45;&gt;Node22 -->
<g id="edge15_Node000021_Node000022" class="edge">
<title>Node21&#45;&gt;Node22</title>
<g id="a_edge15_Node000021_Node000022"><a xlink:title=" ">
<path fill="none" stroke="#63b8ff" d="M370.57,-442.08C387.02,-462.88 426.14,-509.01 468.75,-535.38 470.89,-536.7 473.1,-537.97 475.37,-539.18"/>
<polygon fill="#63b8ff" stroke="#63b8ff" points="473.72,-542.27 484.25,-543.48 476.78,-535.97 473.72,-542.27"/>
</a>
</g>
</g>
<!-- Node23 -->
<g id="Node000023" class="node">
<title>Node23</title>
<g id="a_Node000023"><a xlink:href="kest__ui_8c.html#ad374de505b9d51719f6aea221a650f0d" target="_top" xlink:title=" ">
<polygon fill="white" stroke="#666666" points="610.38,-526.12 478.88,-526.12 478.88,-492.62 610.38,-492.62 610.38,-526.12"/>
<text xml:space="preserve" text-anchor="start" x="486.88" y="-512.62" font-family="Helvetica,sans-Serif" font-size="10.00">create_standard_button</text>
<text xml:space="preserve" text-anchor="middle" x="544.62" y="-499.88" font-family="Helvetica,sans-Serif" font-size="10.00">_long_press_release</text>
</a>
</g>
</g>
<!-- Node21&#45;&gt;Node23 -->
<g id="edge16_Node000021_Node000023" class="edge">
<title>Node21&#45;&gt;Node23</title>
<g id="a_edge16_Node000021_Node000023"><a xlink:title=" ">
<path fill="none" stroke="#63b8ff" d="M382.43,-442.08C403.57,-453.15 438.01,-470.58 468.75,-483.38 472.6,-484.98 476.58,-486.56 480.62,-488.11"/>
<polygon fill="#63b8ff" stroke="#63b8ff" points="479.35,-491.38 489.94,-491.6 481.8,-484.82 479.35,-491.38"/>
</a>
</g>
</g>
<!-- Node24 -->
<g id="Node000024" class="node">
<title>Node24</title>
<g id="a_Node000024"><a xlink:href="kest__menu_8c.html#a15d832a992bd6837b88d98ee4ccce214" target="_top" xlink:title=" ">
<polygon fill="white" stroke="#666666" points="610.38,-474.12 478.88,-474.12 478.88,-440.62 610.38,-440.62 610.38,-474.12"/>
<text xml:space="preserve" text-anchor="start" x="486.88" y="-460.62" font-family="Helvetica,sans-Serif" font-size="10.00">danger_button_activate</text>
<text xml:space="preserve" text-anchor="middle" x="544.62" y="-447.88" font-family="Helvetica,sans-Serif" font-size="10.00">_popup_cb</text>
</a>
</g>
</g>
<!-- Node21&#45;&gt;Node24 -->
<g id="edge17_Node000021_Node000024" class="edge">
<title>Node21&#45;&gt;Node24</title>
<g id="a_edge17_Node000021_Node000024"><a xlink:title=" ">
<path fill="none" stroke="#63b8ff" d="M422.73,-440.03C437.01,-442.08 452.42,-444.29 467.3,-446.43"/>
<polygon fill="#63b8ff" stroke="#63b8ff" points="466.66,-449.87 477.06,-447.83 467.65,-442.94 466.66,-449.87"/>
</a>
</g>
</g>
<!-- Node25 -->
<g id="Node000025" class="node">
<title>Node25</title>
<g id="a_Node000025"><a xlink:href="kest__menu_8c.html#a2245813a7c38321e63de9d86150d61d3" target="_top" xlink:title=" ">
<polygon fill="white" stroke="#666666" points="616,-422.12 473.25,-422.12 473.25,-388.62 616,-388.62 616,-422.12"/>
<text xml:space="preserve" text-anchor="start" x="481.25" y="-408.62" font-family="Helvetica,sans-Serif" font-size="10.00">menu_item_preset_listing</text>
<text xml:space="preserve" text-anchor="middle" x="544.62" y="-395.88" font-family="Helvetica,sans-Serif" font-size="10.00">_long_pressed_cb</text>
</a>
</g>
</g>
<!-- Node21&#45;&gt;Node25 -->
<g id="edge19_Node000021_Node000025" class="edge">
<title>Node21&#45;&gt;Node25</title>
<g id="a_edge19_Node000021_Node000025"><a xlink:title=" ">
<path fill="none" stroke="#63b8ff" d="M422.73,-422.72C435.15,-420.94 448.44,-419.03 461.48,-417.16"/>
<polygon fill="#63b8ff" stroke="#63b8ff" points="461.96,-420.63 471.36,-415.74 460.97,-413.7 461.96,-420.63"/>
</a>
</g>
</g>
<!-- Node26 -->
<g id="Node000026" class="node">
<title>Node26</title>
<g id="a_Node000026"><a xlink:href="kest__menu_8c.html#a30f08e153f427548f6d0f9458dd45a20" target="_top" xlink:title=" ">
<polygon fill="#fff0f0" stroke="red" points="616,-370.12 473.25,-370.12 473.25,-336.62 616,-336.62 616,-370.12"/>
<text xml:space="preserve" text-anchor="start" x="481.25" y="-356.62" font-family="Helvetica,sans-Serif" font-size="10.00">menu_item_preset_listing</text>
<text xml:space="preserve" text-anchor="middle" x="544.62" y="-343.88" font-family="Helvetica,sans-Serif" font-size="10.00">_released_cb</text>
</a>
</g>
</g>
<!-- Node21&#45;&gt;Node26 -->
<g id="edge20_Node000021_Node000026" class="edge">
<title>Node21&#45;&gt;Node26</title>
<g id="a_edge20_Node000021_Node000026"><a xlink:title=" ">
<path fill="none" stroke="#63b8ff" d="M382.43,-420.67C403.57,-409.6 438.01,-392.17 468.75,-379.38 472.6,-377.77 476.58,-376.19 480.62,-374.64"/>
<polygon fill="#63b8ff" stroke="#63b8ff" points="481.8,-377.93 489.94,-371.15 479.35,-371.37 481.8,-377.93"/>
</a>
</g>
</g>
<!-- Node29 -->
<g id="Node000029" class="node">
<title>Node29</title>
<g id="a_Node000029"><a xlink:href="kest__sequence__list_8c.html#a4f60ae08975fdffa716fbd1b4ea3452c" target="_top" xlink:title=" ">
<polygon fill="white" stroke="#666666" points="613.38,-318.12 475.88,-318.12 475.88,-284.62 613.38,-284.62 613.38,-318.12"/>
<text xml:space="preserve" text-anchor="start" x="483.88" y="-304.62" font-family="Helvetica,sans-Serif" font-size="10.00">menu_item_sequence</text>
<text xml:space="preserve" text-anchor="middle" x="544.62" y="-291.88" font-family="Helvetica,sans-Serif" font-size="10.00">_listing_long_pressed_cb</text>
</a>
</g>
</g>
<!-- Node21&#45;&gt;Node29 -->
<g id="edge21_Node000021_Node000029" class="edge">
<title>Node21&#45;&gt;Node29</title>
<g id="a_edge21_Node000021_Node000029"><a xlink:title=" ">
<path fill="none" stroke="#63b8ff" d="M370.57,-420.67C387.02,-399.87 426.14,-353.74 468.75,-327.38 470.89,-326.05 473.1,-324.78 475.37,-323.57"/>
<polygon fill="#63b8ff" stroke="#63b8ff" points="476.78,-326.78 484.25,-319.27 473.72,-320.48 476.78,-326.78"/>
</a>
</g>
</g>
<!-- Node30 -->
<g id="Node000030" class="node">
<title>Node30</title>
<g id="a_Node000030"><a xlink:href="kest__sequence__list_8c.html#a0788bbcb1aa9c85a904e084c2abd48ad" target="_top" xlink:title=" ">
<polygon fill="#fff0f0" stroke="red" points="606.25,-266.12 483,-266.12 483,-232.62 606.25,-232.62 606.25,-266.12"/>
<text xml:space="preserve" text-anchor="start" x="491" y="-252.62" font-family="Helvetica,sans-Serif" font-size="10.00">menu_item_sequence</text>
<text xml:space="preserve" text-anchor="middle" x="544.62" y="-239.88" font-family="Helvetica,sans-Serif" font-size="10.00">_listing_released_cb</text>
</a>
</g>
</g>
<!-- Node21&#45;&gt;Node30 -->
<g id="edge22_Node000021_Node000030" class="edge">
<title>Node21&#45;&gt;Node30</title>
<g id="a_edge22_Node000021_Node000030"><a xlink:title=" ">
<path fill="none" stroke="#63b8ff" d="M366.83,-420.54C378.92,-392.42 415.13,-316.42 468.75,-275.38 470.25,-274.23 471.81,-273.12 473.41,-272.07"/>
<polygon fill="#63b8ff" stroke="#63b8ff" points="474.78,-275.32 481.69,-267.28 471.28,-269.26 474.78,-275.32"/>
</a>
</g>
</g>
<!-- Node296 -->
<g id="Node000296" class="node">
<title>Node296</title>
<g id="a_Node000296"><a xlink:href="kest__menu_8c.html#a7b561ce007bc70c05d37e79e0354d4ab" target="_top" xlink:title=" ">
<polygon fill="#fff0f0" stroke="red" points="620.5,-214.75 468.75,-214.75 468.75,-194 620.5,-194 620.5,-214.75"/>
<text xml:space="preserve" text-anchor="middle" x="544.62" y="-201.25" font-family="Helvetica,sans-Serif" font-size="10.00">menu_page_link_clicked_cb</text>
</a>
</g>
</g>
<!-- Node21&#45;&gt;Node296 -->
<g id="edge23_Node000021_Node000296" class="edge">
<title>Node21&#45;&gt;Node296</title>
<g id="a_edge23_Node000021_Node000296"><a xlink:title=" ">
<path fill="none" stroke="#63b8ff" d="M364.55,-420.79C372.15,-386.48 400.89,-277.5 468.75,-223.38 469.9,-222.46 471.09,-221.58 472.31,-220.75"/>
<polygon fill="#63b8ff" stroke="#63b8ff" points="473.93,-223.86 480.93,-215.9 470.5,-217.76 473.93,-223.86"/>
</a>
</g>
</g>
<!-- Node298 -->
<g id="Node000298" class="node">
<title>Node298</title>
<g id="a_Node000298"><a xlink:href="kest__menu_8c.html#a8edfbaa412cfceaa47690ee035de622c" target="_top" xlink:title=" ">
<polygon fill="#fff0f0" stroke="red" points="617.5,-176.12 471.75,-176.12 471.75,-142.62 617.5,-142.62 617.5,-176.12"/>
<text xml:space="preserve" text-anchor="start" x="479.75" y="-162.62" font-family="Helvetica,sans-Serif" font-size="10.00">parameter_widget_change</text>
<text xml:space="preserve" text-anchor="middle" x="544.62" y="-149.88" font-family="Helvetica,sans-Serif" font-size="10.00">_cb_settings_wrapper</text>
</a>
</g>
</g>
<!-- Node21&#45;&gt;Node298 -->
<g id="edge24_Node000021_Node000298" class="edge">
<title>Node21&#45;&gt;Node298</title>
<g id="a_edge24_Node000021_Node000298"><a xlink:title=" ">
<path fill="none" stroke="#63b8ff" d="M363.92,-420.51C369.89,-382.47 394.93,-253.93 468.75,-185.38 469.66,-184.53 470.59,-183.72 471.56,-182.93"/>
<polygon fill="#63b8ff" stroke="#63b8ff" points="473.35,-185.94 479.57,-177.37 469.36,-180.19 473.35,-185.94"/>
</a>
</g>
</g>
<!-- Node164 -->
<g id="Node000164" class="node">
<title>Node164</title>
<g id="a_Node000164"><a xlink:href="kest__parameter__widget_8c.html#a275a44ab81e73412a3c3da5597906fcc" target="_top" xlink:title=" ">
<polygon fill="white" stroke="#666666" points="615.25,-124.12 474,-124.12 474,-90.62 615.25,-90.62 615.25,-124.12"/>
<text xml:space="preserve" text-anchor="start" x="482" y="-110.62" font-family="Helvetica,sans-Serif" font-size="10.00">parameter_widget_create</text>
<text xml:space="preserve" text-anchor="middle" x="544.62" y="-97.88" font-family="Helvetica,sans-Serif" font-size="10.00">_ui_no_callback</text>
</a>
</g>
</g>
<!-- Node21&#45;&gt;Node164 -->
<g id="edge25_Node000021_Node000164" class="edge">
<title>Node21&#45;&gt;Node164</title>
<g id="a_edge25_Node000021_Node000164"><a xlink:title=" ">
<path fill="none" stroke="#63b8ff" d="M362.98,-420.69C365.97,-378.11 382.73,-218.65 468.75,-133.38 469.5,-132.63 470.27,-131.91 471.06,-131.21"/>
<polygon fill="#63b8ff" stroke="#63b8ff" points="473.02,-134.12 478.99,-125.37 468.87,-128.48 473.02,-134.12"/>
</a>
</g>
</g>
<!-- Node299 -->
<g id="Node000299" class="node">
<title>Node299</title>
<g id="a_Node000299"><a xlink:href="kest__menu_8c.html#a161cb9c488f1f9a05e2b9788696700f8" target="_top" xlink:title=" ">
<polygon fill="#fff0f0" stroke="red" points="603.62,-682.12 485.62,-682.12 485.62,-648.62 603.62,-648.62 603.62,-682.12"/>
<text xml:space="preserve" text-anchor="start" x="493.62" y="-668.62" font-family="Helvetica,sans-Serif" font-size="10.00">preset_listing_delete</text>
<text xml:space="preserve" text-anchor="middle" x="544.62" y="-655.88" font-family="Helvetica,sans-Serif" font-size="10.00">_button_cb</text>
</a>
</g>
</g>
<!-- Node21&#45;&gt;Node299 -->
<g id="edge28_Node000021_Node000299" class="edge">
<title>Node21&#45;&gt;Node299</title>
<g id="a_edge28_Node000021_Node000299"><a xlink:title=" ">
<path fill="none" stroke="#63b8ff" d="M367.6,-442.12C387.82,-483.7 460.34,-632.05 468.75,-639.38 470.81,-641.17 473,-642.84 475.28,-644.39"/>
<polygon fill="#63b8ff" stroke="#63b8ff" points="473.45,-647.37 483.84,-649.41 476.98,-641.33 473.45,-647.37"/>
</a>
</g>
</g>
<!-- Node304 -->
<g id="Node000304" class="node">
<title>Node304</title>
<g id="a_Node000304"><a xlink:href="kest__sequence__list_8c.html#a1982fe2baa22bbb76b3da523cfdda6da" target="_top" xlink:title=" ">
<polygon fill="#fff0f0" stroke="red" points="611.5,-630.12 477.75,-630.12 477.75,-596.62 611.5,-596.62 611.5,-630.12"/>
<text xml:space="preserve" text-anchor="start" x="485.75" y="-616.62" font-family="Helvetica,sans-Serif" font-size="10.00">sequence_listing_delete</text>
<text xml:space="preserve" text-anchor="middle" x="544.62" y="-603.88" font-family="Helvetica,sans-Serif" font-size="10.00">_button_cb</text>
</a>
</g>
</g>
<!-- Node21&#45;&gt;Node304 -->
<g id="edge29_Node000021_Node000304" class="edge">
<title>Node21&#45;&gt;Node304</title>
<g id="a_edge29_Node000021_Node000304"><a xlink:title=" ">
<path fill="none" stroke="#63b8ff" d="M366.83,-442.21C378.92,-470.33 415.13,-546.33 468.75,-587.38 470.25,-588.52 471.81,-589.63 473.41,-590.68"/>
<polygon fill="#63b8ff" stroke="#63b8ff" points="471.28,-593.49 481.69,-595.47 474.78,-587.43 471.28,-593.49"/>
</a>
</g>
</g>
<!-- Node165 -->
<g id="Node000165" class="node">
<title>Node165</title>
<g id="a_Node000165"><a xlink:href="kest__parameter__widget_8c.html#abad910124e9bf706a008ab86f8bf70e6" target="_top" xlink:title=" ">
<polygon fill="#fff0f0" stroke="red" points="800.75,-124.12 656.5,-124.12 656.5,-90.62 800.75,-90.62 800.75,-124.12"/>
<text xml:space="preserve" text-anchor="start" x="664.5" y="-110.62" font-family="Helvetica,sans-Serif" font-size="10.00">parameter_widget_update</text>
<text xml:space="preserve" text-anchor="middle" x="728.62" y="-97.88" font-family="Helvetica,sans-Serif" font-size="10.00">_value</text>
</a>
</g>
</g>
<!-- Node164&#45;&gt;Node165 -->
<g id="edge26_Node000164_Node000165" class="edge">
<title>Node164&#45;&gt;Node165</title>
<g id="a_edge26_Node000164_Node000165"><a xlink:title=" ">
<path fill="none" stroke="#63b8ff" d="M615.73,-107.38C625.23,-107.38 635.05,-107.38 644.75,-107.38"/>
<polygon fill="#63b8ff" stroke="#63b8ff" points="644.54,-110.88 654.54,-107.38 644.54,-103.88 644.54,-110.88"/>
</a>
</g>
</g>
<!-- Node167 -->
<g id="Node000167" class="node">
<title>Node167</title>
<g id="a_Node000167"><a xlink:href="kest__parameter__widget_8c.html#af345b51066bd1985326c50809d992fab" target="_top" xlink:title=" ">
<polygon fill="#fff0f0" stroke="red" points="800.75,-72.12 656.5,-72.12 656.5,-38.62 800.75,-38.62 800.75,-72.12"/>
<text xml:space="preserve" text-anchor="start" x="664.5" y="-58.62" font-family="Helvetica,sans-Serif" font-size="10.00">parameter_widget_update</text>
<text xml:space="preserve" text-anchor="middle" x="728.62" y="-45.88" font-family="Helvetica,sans-Serif" font-size="10.00">_value_label</text>
</a>
</g>
</g>
<!-- Node164&#45;&gt;Node167 -->
<g id="edge27_Node000164_Node000167" class="edge">
<title>Node164&#45;&gt;Node167</title>
<g id="a_edge27_Node000164_Node000167"><a xlink:title=" ">
<path fill="none" stroke="#63b8ff" d="M605.98,-90.13C622.19,-85.5 639.87,-80.45 656.6,-75.67"/>
<polygon fill="#63b8ff" stroke="#63b8ff" points="657.33,-79.1 665.98,-72.99 655.41,-72.37 657.33,-79.1"/>
</a>
</g>
</g>
<!-- Node308 -->
<g id="Node000308" class="node">
<title>Node308</title>
<g id="a_Node000308"><a xlink:href="kest__parameter__widget_8c.html#a627573f8fb113b0b0beb013cb04ed61c" target="_top" xlink:title=" ">
<polygon fill="white" stroke="#666666" points="610,-72.12 479.25,-72.12 479.25,-38.62 610,-38.62 610,-72.12"/>
<text xml:space="preserve" text-anchor="start" x="487.25" y="-58.62" font-family="Helvetica,sans-Serif" font-size="10.00">kest_parameter_widget</text>
<text xml:space="preserve" text-anchor="middle" x="544.62" y="-45.88" font-family="Helvetica,sans-Serif" font-size="10.00">_refresh</text>
</a>
</g>
</g>
<!-- Node307&#45;&gt;Node308 -->
<g id="edge33_Node000307_Node000308" class="edge">
<title>Node307&#45;&gt;Node308</title>
<g id="a_edge33_Node000307_Node000308"><a xlink:title=" ">
<path fill="none" stroke="#63b8ff" d="M413.35,-55.38C430.09,-55.38 449.08,-55.38 467.28,-55.38"/>
<polygon fill="#63b8ff" stroke="#63b8ff" points="467.28,-58.88 477.28,-55.38 467.28,-51.88 467.28,-58.88"/>
</a>
</g>
</g>
<!-- Node309 -->
<g id="Node000309" class="node">
<title>Node309</title>
<g id="a_Node000309"><a xlink:href="kest__menu_8c.html#a87951b94f1041ed0f61ae67d3f196694" target="_top" xlink:title=" ">
<polygon fill="white" stroke="#666666" points="601,-20.75 488.25,-20.75 488.25,0 601,0 601,-20.75"/>
<text xml:space="preserve" text-anchor="middle" x="544.62" y="-7.25" font-family="Helvetica,sans-Serif" font-size="10.00">refresh_menu_page</text>
</a>
</g>
</g>
<!-- Node307&#45;&gt;Node309 -->
<g id="edge36_Node000307_Node000309" class="edge">
<title>Node307&#45;&gt;Node309</title>
<g id="a_edge36_Node000307_Node000309"><a xlink:title=" ">
<path fill="none" stroke="#63b8ff" d="M405.79,-44.6C430.71,-38.41 462.25,-30.58 488.87,-23.97"/>
<polygon fill="#63b8ff" stroke="#63b8ff" points="489.61,-27.39 498.47,-21.59 487.92,-20.6 489.61,-27.39"/>
</a>
</g>
</g>
<!-- Node308&#45;&gt;Node165 -->
<g id="edge34_Node000308_Node000165" class="edge">
<title>Node308&#45;&gt;Node165</title>
<g id="a_edge34_Node000308_Node000165"><a xlink:title=" ">
<path fill="none" stroke="#63b8ff" d="M605.98,-72.62C622.19,-77.25 639.87,-82.3 656.6,-87.08"/>
<polygon fill="#63b8ff" stroke="#63b8ff" points="655.41,-90.38 665.98,-89.76 657.33,-83.65 655.41,-90.38"/>
</a>
</g>
</g>
<!-- Node308&#45;&gt;Node167 -->
<g id="edge35_Node000308_Node000167" class="edge">
<title>Node308&#45;&gt;Node167</title>
<g id="a_edge35_Node000308_Node000167"><a xlink:title=" ">
<path fill="none" stroke="#63b8ff" d="M610.3,-55.38C621.42,-55.38 633.1,-55.38 644.61,-55.38"/>
<polygon fill="#63b8ff" stroke="#63b8ff" points="644.53,-58.88 654.53,-55.38 644.53,-51.88 644.53,-58.88"/>
</a>
</g>
</g>
<!-- Node310 -->
<g id="Node000310" class="node">
<title>Node310</title>
<g id="a_Node000310"><a xlink:href="kest__menu_8c.html#a4277d471346a6104448702ed536224bf" target="_top" xlink:title=" ">
<polygon fill="white" stroke="#666666" points="784.25,-20.75 673,-20.75 673,0 784.25,0 784.25,-20.75"/>
<text xml:space="preserve" text-anchor="middle" x="728.62" y="-7.25" font-family="Helvetica,sans-Serif" font-size="10.00">refresh_menu_item</text>
</a>
</g>
</g>
<!-- Node309&#45;&gt;Node310 -->
<g id="edge37_Node000309_Node000310" class="edge">
<title>Node309&#45;&gt;Node310</title>
<g id="a_edge37_Node000309_Node000310"><a xlink:title=" ">
<path fill="none" stroke="#63b8ff" d="M601.22,-10.38C620.18,-10.38 641.58,-10.38 661.3,-10.38"/>
<polygon fill="#63b8ff" stroke="#63b8ff" points="661.17,-13.88 671.17,-10.38 661.17,-6.88 661.17,-13.88"/>
</a>
</g>
</g>
</g>
</svg>

<g id="navigator" transform="translate(0 0)" fill="#404254">
  <rect fill="#f2f5e9" fill-opacity="0.5" stroke="#606060" stroke-width=".5" x="0" y="0" width="60" height="60"/>
  <use id="zoomplus" xlink:href="#zoomPlus" x="17" y="9" onmousedown="handleZoom(evt,'in')"/>
  <use id="zoomminus" xlink:href="#zoomMin" x="42" y="9" onmousedown="handleZoom(evt,'out')"/>
  <use id="reset" xlink:href="#resetDef" x="30" y="36" onmousedown="handleReset()"/>
   <use id="arrowup" xlink:href="#arrowUp" x="0" y="0" onmousedown="handlePan(0,-1)"/>
  <use id="arrowright" xlink:href="#arrowRight" x="0" y="0" onmousedown="handlePan(1,0)"/>
  <use id="arrowdown" xlink:href="#arrowDown" x="0" y="0" onmousedown="handlePan(0,1)"/>
  <use id="arrowleft" xlink:href="#arrowLeft" x="0" y="0" onmousedown="handlePan(-1,0)"/>
</g>
<svg viewBox="0 0 15 15" width="100%" height="30px" preserveAspectRatio="xMaxYMin meet">
 <g id="arrow_out" transform="scale(0.3 0.3)">
  <a xlink:href="kest__menu_8c_a9a3dc2a29ebf6ace0a6b54a902530001_cgraph_org.svg" target="_base">
   <rect id="button" ry="5" rx="5" y="6" x="6" height="38" width="38"
        fill="#f2f5e9" fill-opacity="0.5" stroke="#606060" stroke-width="1.0"/>
   <path id="arrow"
     d="M 11.500037,31.436501 C 11.940474,20.09759 22.043105,11.32322 32.158766,21.979434 L 37.068811,17.246167 C 37.068811,17.246167 37.088388,32 37.088388,32 L 22.160133,31.978069 C 22.160133,31.978069 26.997745,27.140456 26.997745,27.140456 C 18.528582,18.264221 13.291696,25.230495 11.500037,31.436501 z"
     style="fill:#404040;"/>
  </a>
 </g>
</svg>

<style type='text/css'>
<![CDATA[
[data-mouse-over-selected='false'] { opacity: 0.7; }
[data-mouse-over-selected='true']  { opacity: 1.0; }
]]>
</style>
<script type="application/ecmascript"><![CDATA[
document.addEventListener('DOMContentLoaded', (event) => {
  highlightEdges();
  highlightAdjacentNodes();
});
]]></script>
</svg>
