<?xml version="1.0" encoding="UTF-8" standalone="no"?>
<!DOCTYPE svg PUBLIC "-//W3C//DTD SVG 1.1//EN"
 "http://www.w3.org/Graphics/SVG/1.1/DTD/svg11.dtd">
<!-- Generated by graphviz version 13.1.2 (20250808.2320)
 -->
<!-- Title: kest_preset_remove_effect Pages: 1 -->
<!--zoomable 364 -->

<svg id="main" version="1.1" xmlns="http://www.w3.org/2000/svg" xmlns:xlink="http://www.w3.org/1999/xlink" xml:space="preserve" onload="init(evt)">

<style type="text/css"><![CDATA[
.node, .edge {opacity: 0.7;}
.node.selected, .edge.selected {opacity: 1;}
.edge:hover path { stroke: red; }
.edge:hover polygon { stroke: red; fill: red; }
]]></style>

<defs>
  <circle id="rim" cx="0" cy="0" r="7"/>
  <circle id="rim2" cx="0" cy="0" r="3.5"/>
  <g id="zoomPlus">
    <use xlink:href="#rim" fill="#404040"><set attributeName="fill" to="#808080" begin="zoomplus.mouseover" end="zoomplus.mouseout"/></use>
    <path d="M-4,0h8M0,-4v8" fill="none" stroke="white" stroke-width="1.5" pointer-events="none"/>
  </g>
  <g id="zoomMin">
    <use xlink:href="#rim" fill="#404040"><set attributeName="fill" to="#808080" begin="zoomminus.mouseover" end="zoomminus.mouseout"/></use>
    <path d="M-4,0h8" fill="none" stroke="white" stroke-width="1.5" pointer-events="none"/>
  </g>
  <g id="arrowUp" transform="translate(30 24)">
    <use xlink:href="#rim"/>
    <path pointer-events="none" fill="none" stroke="white" stroke-width="1.5" d="M0,-3.0v7 M-2.5,-0.5L0,-3.0L2.5,-0.5"/>
  </g>
  <g id="arrowRight" transform="rotate(90) translate(36 -43)">
    <use xlink:href="#rim"/>
    <path pointer-events="none" fill="none" stroke="white" stroke-width="1.5" d="M0,-3.0v7 M-2.5,-0.5L0,-3.0L2.5,-0.5"/>
  </g>
  <g id="arrowDown" transform="rotate(180) translate(-30 -48)">
    <use xlink:href="#rim"/>
    <path pointer-events="none" fill="none" stroke="white" stroke-width="1.5" d="M0,-3.0v7 M-2.5,-0.5L0,-3.0L2.5,-0.5"/>
  </g>
  <g id="arrowLeft" transform="rotate(270) translate(-36 17)">
    <use xlink:href="#rim"/>
    <path pointer-events="none" fill="none" stroke="white" stroke-width="1.5" d="M0,-3.0v7 M-2.5,-0.5L0,-3.0L2.5,-0.5"/>
  </g>
  <g id="resetDef">
    <use xlink:href="#rim2" fill="#404040"><set attributeName="fill" to="#808080" begin="reset.mouseover" end="reset.mouseout"/></use>
  </g>
</defs>
<script type="application/ecmascript">
var viewWidth = 789;
var viewHeight = 364;
var sectionId = 'dynsection-27';
</script>
<script type="application/ecmascript" xlink:href="svg.min.js"/>
<svg id="graph" class="graph">
<g id="viewport">
<title>kest_preset_remove_effect</title>
<!-- Node1 -->
<g id="Node000001" class="node">
<title>Node1</title>
<g id="a_Node000001"><a xlink:title=" ">
<polygon fill="#999999" stroke="#666666" points="115,-168.5 0,-168.5 0,-135 115,-135 115,-168.5"/>
<text xml:space="preserve" text-anchor="start" x="8" y="-155" font-family="Helvetica,sans-Serif" font-size="10.00">kest_preset_remove</text>
<text xml:space="preserve" text-anchor="middle" x="57.5" y="-142.25" font-family="Helvetica,sans-Serif" font-size="10.00">_effect</text>
</a>
</g>
</g>
<!-- Node2 -->
<g id="Node000002" class="node">
<title>Node2</title>
<g id="a_Node000002"><a xlink:href="kest__error__codes_8c.html#a0f4c77127bc0b77264a21104979c576a" target="_top" xlink:title=" ">
<polygon fill="white" stroke="#666666" points="781.25,-130.5 673,-130.5 673,-97 781.25,-97 781.25,-130.5"/>
<text xml:space="preserve" text-anchor="start" x="681" y="-117" font-family="Helvetica,sans-Serif" font-size="10.00">kest_error_code_to</text>
<text xml:space="preserve" text-anchor="middle" x="727.12" y="-104.25" font-family="Helvetica,sans-Serif" font-size="10.00">_string</text>
</a>
</g>
</g>
<!-- Node1&#45;&gt;Node2 -->
<g id="edge1_Node000001_Node000002" class="edge">
<title>Node1&#45;&gt;Node2</title>
<g id="a_edge1_Node000001_Node000002"><a xlink:title=" ">
<path fill="none" stroke="#63b8ff" d="M115.42,-148.51C238.93,-141.48 530.87,-124.86 661.26,-117.44"/>
<polygon fill="#63b8ff" stroke="#63b8ff" points="661.32,-120.94 671.1,-116.88 660.92,-113.96 661.32,-120.94"/>
</a>
</g>
</g>
<!-- Node3 -->
<g id="Node000003" class="node">
<title>Node3</title>
<g id="a_Node000003"><a xlink:href="kest__pipeline_8c.html#a73cdb3a338dc34668b63859d87ba81b9" target="_top" xlink:title=" ">
<polygon fill="white" stroke="#666666" points="274.25,-213.5 151,-213.5 151,-180 274.25,-180 274.25,-213.5"/>
<text xml:space="preserve" text-anchor="start" x="159" y="-200" font-family="Helvetica,sans-Serif" font-size="10.00">kest_pipeline_remove</text>
<text xml:space="preserve" text-anchor="middle" x="212.62" y="-187.25" font-family="Helvetica,sans-Serif" font-size="10.00">_effect</text>
</a>
</g>
</g>
<!-- Node1&#45;&gt;Node3 -->
<g id="edge2_Node000001_Node000003" class="edge">
<title>Node1&#45;&gt;Node3</title>
<g id="a_edge2_Node000001_Node000003"><a xlink:title=" ">
<path fill="none" stroke="#63b8ff" d="M115.08,-168.38C123.87,-170.96 133.02,-173.65 142.05,-176.3"/>
<polygon fill="#63b8ff" stroke="#63b8ff" points="140.93,-179.62 151.52,-179.09 142.91,-172.91 140.93,-179.62"/>
</a>
</g>
</g>
<!-- Node12 -->
<g id="Node000012" class="node">
<title>Node12</title>
<g id="a_Node000012"><a xlink:href="kest__preset_8c.html#a4786192624da0baccb9bd169d357c794" target="_top" xlink:title=" ">
<polygon fill="white" stroke="#666666" points="272.38,-104.5 152.88,-104.5 152.88,-71 272.38,-71 272.38,-104.5"/>
<text xml:space="preserve" text-anchor="start" x="160.88" y="-91" font-family="Helvetica,sans-Serif" font-size="10.00">kest_preset_if_active</text>
<text xml:space="preserve" text-anchor="middle" x="212.62" y="-78.25" font-family="Helvetica,sans-Serif" font-size="10.00">_update_fpga</text>
</a>
</g>
</g>
<!-- Node1&#45;&gt;Node12 -->
<g id="edge12_Node000001_Node000012" class="edge">
<title>Node1&#45;&gt;Node12</title>
<g id="a_edge12_Node000001_Node000012"><a xlink:title=" ">
<path fill="none" stroke="#63b8ff" d="M99.53,-134.6C118.16,-126.82 140.38,-117.53 160.12,-109.28"/>
<polygon fill="#63b8ff" stroke="#63b8ff" points="161.2,-112.62 169.08,-105.53 158.5,-106.16 161.2,-112.62"/>
</a>
</g>
</g>
<!-- Node4 -->
<g id="Node000004" class="node">
<title>Node4</title>
<g id="a_Node000004"><a xlink:href="kest__effect_8c.html#a09f04708e6ffd20ecaba2c10460cb1eb" target="_top" xlink:title=" ">
<polygon fill="white" stroke="#666666" points="417.75,-280.12 348.5,-280.12 348.5,-259.38 417.75,-259.38 417.75,-280.12"/>
<text xml:space="preserve" text-anchor="middle" x="383.12" y="-266.62" font-family="Helvetica,sans-Serif" font-size="10.00">free_effect</text>
</a>
</g>
</g>
<!-- Node3&#45;&gt;Node4 -->
<g id="edge3_Node000003_Node000004" class="edge">
<title>Node3&#45;&gt;Node4</title>
<g id="a_edge3_Node000003_Node000004"><a xlink:title=" ">
<path fill="none" stroke="#63b8ff" d="M253.13,-213.87C281.64,-226.22 319.78,-242.74 347.18,-254.61"/>
<polygon fill="#63b8ff" stroke="#63b8ff" points="345.52,-257.71 356.09,-258.47 348.31,-251.28 345.52,-257.71"/>
</a>
</g>
</g>
<!-- Node7 -->
<g id="Node000007" class="node">
<title>Node7</title>
<g id="a_Node000007"><a xlink:href="kest__alloc_8c.html#a294af5728a94aa316fcf65304d388d48" target="_top" xlink:title=" ">
<polygon fill="white" stroke="#666666" points="757.62,-280.12 696.62,-280.12 696.62,-259.38 757.62,-259.38 757.62,-280.12"/>
<text xml:space="preserve" text-anchor="middle" x="727.12" y="-266.62" font-family="Helvetica,sans-Serif" font-size="10.00">kest_free</text>
</a>
</g>
</g>
<!-- Node3&#45;&gt;Node7 -->
<g id="edge11_Node000003_Node000007" class="edge">
<title>Node3&#45;&gt;Node7</title>
<g id="a_edge11_Node000003_Node000007"><a xlink:title=" ">
<path fill="none" stroke="#63b8ff" d="M274.59,-188.91C358.44,-180.34 513.05,-172.57 637,-211.75 662.99,-219.97 688.65,-238 705.71,-251.79"/>
<polygon fill="#63b8ff" stroke="#63b8ff" points="703.18,-254.23 713.09,-257.96 707.66,-248.86 703.18,-254.23"/>
</a>
</g>
</g>
<!-- Node5 -->
<g id="Node000005" class="node">
<title>Node5</title>
<g id="a_Node000005"><a xlink:href="kest__effect__view_8c.html#ac64b0341f8283e6aabdd27c42e9a55b0" target="_top" xlink:title=" ">
<polygon fill="#fff0f0" stroke="red" points="613.38,-356.12 515.62,-356.12 515.62,-335.38 613.38,-335.38 613.38,-356.12"/>
<text xml:space="preserve" text-anchor="middle" x="564.5" y="-342.62" font-family="Helvetica,sans-Serif" font-size="10.00">free_effect_view</text>
</a>
</g>
</g>
<!-- Node4&#45;&gt;Node5 -->
<g id="edge4_Node000004_Node000005" class="edge">
<title>Node4&#45;&gt;Node5</title>
<g id="a_edge4_Node000004_Node000005"><a xlink:title=" ">
<path fill="none" stroke="#63b8ff" d="M404.46,-280.5C425.89,-291.6 460.8,-309.05 492,-321.75 500.19,-325.08 509.03,-328.32 517.61,-331.29"/>
<polygon fill="#63b8ff" stroke="#63b8ff" points="516.24,-334.53 526.83,-334.41 518.48,-327.9 516.24,-334.53"/>
</a>
</g>
</g>
<!-- Node4&#45;&gt;Node7 -->
<g id="edge6_Node000004_Node000007" class="edge">
<title>Node4&#45;&gt;Node7</title>
<g id="a_edge6_Node000004_Node000007"><a xlink:title=" ">
<path fill="none" stroke="#63b8ff" d="M417.93,-277.27C439.09,-281.58 466.99,-286.56 492,-288.75 556.2,-294.36 572.91,-295.51 637,-288.75 652.92,-287.07 670.18,-283.75 685.24,-280.35"/>
<polygon fill="#63b8ff" stroke="#63b8ff" points="685.85,-283.8 694.79,-278.1 684.25,-276.99 685.85,-283.8"/>
</a>
</g>
</g>
<!-- Node8 -->
<g id="Node000008" class="node">
<title>Node8</title>
<g id="a_Node000008"><a xlink:href="kest__parameter_8c.html#a8232528422c7dd2a19b2f3cc4c1a25c0" target="_top" xlink:title=" ">
<polygon fill="#fff0f0" stroke="red" points="623.12,-280.12 505.88,-280.12 505.88,-259.38 623.12,-259.38 623.12,-280.12"/>
<text xml:space="preserve" text-anchor="middle" x="564.5" y="-266.62" font-family="Helvetica,sans-Serif" font-size="10.00">kest_parameter_free</text>
</a>
</g>
</g>
<!-- Node4&#45;&gt;Node8 -->
<g id="edge7_Node000004_Node000008" class="edge">
<title>Node4&#45;&gt;Node8</title>
<g id="a_edge7_Node000004_Node000008"><a xlink:title=" ">
<path fill="none" stroke="#63b8ff" d="M417.86,-269.75C439.35,-269.75 467.96,-269.75 494.13,-269.75"/>
<polygon fill="#63b8ff" stroke="#63b8ff" points="494.05,-273.25 504.05,-269.75 494.05,-266.25 494.05,-273.25"/>
</a>
</g>
</g>
<!-- Node10 -->
<g id="Node000010" class="node">
<title>Node10</title>
<g id="a_Node000010"><a xlink:href="kest__parameter_8c.html#a6426ab9815dd11cad99a9dd9283423b0" target="_top" xlink:title=" ">
<polygon fill="#fff0f0" stroke="red" points="614.5,-241.12 514.5,-241.12 514.5,-220.38 614.5,-220.38 614.5,-241.12"/>
<text xml:space="preserve" text-anchor="middle" x="564.5" y="-227.62" font-family="Helvetica,sans-Serif" font-size="10.00">kest_setting_free</text>
</a>
</g>
</g>
<!-- Node4&#45;&gt;Node10 -->
<g id="edge9_Node000004_Node000010" class="edge">
<title>Node4&#45;&gt;Node10</title>
<g id="a_edge9_Node000004_Node000010"><a xlink:title=" ">
<path fill="none" stroke="#63b8ff" d="M417.86,-262.41C441.87,-257.19 474.79,-250.04 503.26,-243.85"/>
<polygon fill="#63b8ff" stroke="#63b8ff" points="503.82,-247.31 512.85,-241.76 502.34,-240.47 503.82,-247.31"/>
</a>
</g>
</g>
<!-- Node5&#45;&gt;Node7 -->
<g id="edge5_Node000005_Node000007" class="edge">
<title>Node5&#45;&gt;Node7</title>
<g id="a_edge5_Node000005_Node000007"><a xlink:title=" ">
<path fill="none" stroke="#63b8ff" d="M602.43,-334.95C613.71,-331.23 626.03,-326.73 637,-321.75 659.23,-311.66 683.04,-297.58 700.46,-286.62"/>
<polygon fill="#63b8ff" stroke="#63b8ff" points="702.1,-289.72 708.64,-281.39 698.33,-283.83 702.1,-289.72"/>
</a>
</g>
</g>
<!-- Node8&#45;&gt;Node7 -->
<g id="edge8_Node000008_Node000007" class="edge">
<title>Node8&#45;&gt;Node7</title>
<g id="a_edge8_Node000008_Node000007"><a xlink:title=" ">
<path fill="none" stroke="#63b8ff" d="M623.49,-269.75C643.78,-269.75 666.14,-269.75 684.8,-269.75"/>
<polygon fill="#63b8ff" stroke="#63b8ff" points="684.66,-273.25 694.66,-269.75 684.66,-266.25 684.66,-273.25"/>
</a>
</g>
</g>
<!-- Node10&#45;&gt;Node7 -->
<g id="edge10_Node000010_Node000007" class="edge">
<title>Node10&#45;&gt;Node7</title>
<g id="a_edge10_Node000010_Node000007"><a xlink:title=" ">
<path fill="none" stroke="#63b8ff" d="M610.24,-241.61C633.75,-247.32 662.35,-254.26 685.25,-259.83"/>
<polygon fill="#63b8ff" stroke="#63b8ff" points="684.31,-263.2 694.85,-262.16 685.96,-256.4 684.31,-263.2"/>
</a>
</g>
</g>
<!-- Node13 -->
<g id="Node000013" class="node">
<title>Node13</title>
<g id="a_Node000013"><a xlink:href="kest__preset_8c.html#a5a3e12c26912d571e86fd2b5f54a2d8d" target="_top" xlink:title=" ">
<polygon fill="white" stroke="#666666" points="456,-88.12 310.25,-88.12 310.25,-67.38 456,-67.38 456,-88.12"/>
<text xml:space="preserve" text-anchor="middle" x="383.12" y="-74.62" font-family="Helvetica,sans-Serif" font-size="10.00">kest_preset_program_fpga</text>
</a>
</g>
</g>
<!-- Node12&#45;&gt;Node13 -->
<g id="edge13_Node000012_Node000013" class="edge">
<title>Node12&#45;&gt;Node13</title>
<g id="a_edge13_Node000012_Node000013"><a xlink:title=" ">
<path fill="none" stroke="#63b8ff" d="M272.56,-84.25C280.94,-83.76 289.69,-83.24 298.43,-82.72"/>
<polygon fill="#63b8ff" stroke="#63b8ff" points="298.6,-86.21 308.37,-82.13 298.18,-79.23 298.6,-86.21"/>
</a>
</g>
</g>
<!-- Node13&#45;&gt;Node2 -->
<g id="edge14_Node000013_Node000002" class="edge">
<title>Node13&#45;&gt;Node2</title>
<g id="a_edge14_Node000013_Node000002"><a xlink:title=" ">
<path fill="none" stroke="#63b8ff" d="M447.9,-88.62C462.37,-90.85 477.69,-93.04 492,-94.75 549.05,-101.55 614.21,-106.62 661.28,-109.8"/>
<polygon fill="#63b8ff" stroke="#63b8ff" points="660.82,-113.28 671.03,-110.45 661.29,-106.3 660.82,-113.28"/>
</a>
</g>
</g>
<!-- Node14 -->
<g id="Node000014" class="node">
<title>Node14</title>
<g id="a_Node000014"><a xlink:href="kest__fpga__comms_8c.html#aa3f94ee1fcafa0fcdc27ce70021c0f8b" target="_top" xlink:title=" ">
<polygon fill="white" stroke="#666666" points="637,-85.5 492,-85.5 492,-52 637,-52 637,-85.5"/>
<text xml:space="preserve" text-anchor="start" x="500" y="-72" font-family="Helvetica,sans-Serif" font-size="10.00">kest_fpga_queue_program</text>
<text xml:space="preserve" text-anchor="middle" x="564.5" y="-59.25" font-family="Helvetica,sans-Serif" font-size="10.00">_batch</text>
</a>
</g>
</g>
<!-- Node13&#45;&gt;Node14 -->
<g id="edge15_Node000013_Node000014" class="edge">
<title>Node13&#45;&gt;Node14</title>
<g id="a_edge15_Node000013_Node000014"><a xlink:title=" ">
<path fill="none" stroke="#63b8ff" d="M456.31,-74.13C464.25,-73.73 472.38,-73.32 480.44,-72.92"/>
<polygon fill="#63b8ff" stroke="#63b8ff" points="480.43,-76.42 490.24,-72.43 480.08,-69.43 480.43,-76.42"/>
</a>
</g>
</g>
<!-- Node15 -->
<g id="Node000015" class="node">
<title>Node15</title>
<g id="a_Node000015"><a xlink:href="kest__pipeline_8c.html#a7bb8f92d379766cce5cdc4b68d11818f" target="_top" xlink:title=" ">
<polygon fill="#fff0f0" stroke="red" points="623.88,-33.5 505.12,-33.5 505.12,0 623.88,0 623.88,-33.5"/>
<text xml:space="preserve" text-anchor="start" x="513.12" y="-20" font-family="Helvetica,sans-Serif" font-size="10.00">kest_pipeline_create</text>
<text xml:space="preserve" text-anchor="middle" x="564.5" y="-7.25" font-family="Helvetica,sans-Serif" font-size="10.00">_fpga_transfer_batch</text>
</a>
</g>
</g>
<!-- Node13&#45;&gt;Node15 -->
<g id="edge16_Node000013_Node000015" class="edge">
<title>Node13&#45;&gt;Node15</title>
<g id="a_edge16_Node000013_Node000015"><a xlink:title=" ">
<path fill="none" stroke="#63b8ff" d="M415.78,-66.98C439.59,-58.89 472.97,-47.54 501.97,-37.67"/>
<polygon fill="#63b8ff" stroke="#63b8ff" points="503.07,-41 511.41,-34.46 500.82,-34.37 503.07,-41"/>
</a>
</g>
</g>
<!-- Node15&#45;&gt;Node2 -->
<g id="edge17_Node000015_Node000002" class="edge">
<title>Node15&#45;&gt;Node2</title>
<g id="a_edge17_Node000015_Node000002"><a xlink:title=" ">
<path fill="none" stroke="#63b8ff" d="M618.69,-33.89C625,-36.56 631.24,-39.52 637,-42.75 659.93,-55.6 683.06,-74.23 700.01,-89.18"/>
<polygon fill="#63b8ff" stroke="#63b8ff" points="697.37,-91.52 707.15,-95.61 702.06,-86.32 697.37,-91.52"/>
</a>
</g>
</g>
</g>
</svg>

<g id="navigator" transform="translate(0 0)" fill="#404254">
  <rect fill="#f2f5e9" fill-opacity="0.5" stroke="#606060" stroke-width=".5" x="0" y="0" width="60" height="60"/>
  <use id="zoomplus" xlink:href="#zoomPlus" x="17" y="9" onmousedown="handleZoom(evt,'in')"/>
  <use id="zoomminus" xlink:href="#zoomMin" x="42" y="9" onmousedown="handleZoom(evt,'out')"/>
  <use id="reset" xlink:href="#resetDef" x="30" y="36" onmousedown="handleReset()"/>
   <use id="arrowup" xlink:href="#arrowUp" x="0" y="0" onmousedown="handlePan(0,-1)"/>
  <use id="arrowright" xlink:href="#arrowRight" x="0" y="0" onmousedown="handlePan(1,0)"/>
  <use id="arrowdown" xlink:href="#arrowDown" x="0" y="0" onmousedown="handlePan(0,1)"/>
  <use id="arrowleft" xlink:href="#arrowLeft" x="0" y="0" onmousedown="handlePan(-1,0)"/>
</g>
<svg viewBox="0 0 15 15" width="100%" height="30px" preserveAspectRatio="xMaxYMin meet">
 <g id="arrow_out" transform="scale(0.3 0.3)">
  <a xlink:href="kest__preset_8h_a89148926bbc9e9114ca4b187a3fc8336_cgraph_org.svg" target="_base">
   <rect id="button" ry="5" rx="5" y="6" x="6" height="38" width="38"
        fill="#f2f5e9" fill-opacity="0.5" stroke="#606060" stroke-width="1.0"/>
   <path id="arrow"
     d="M 11.500037,31.436501 C 11.940474,20.09759 22.043105,11.32322 32.158766,21.979434 L 37.068811,17.246167 C 37.068811,17.246167 37.088388,32 37.088388,32 L 22.160133,31.978069 C 22.160133,31.978069 26.997745,27.140456 26.997745,27.140456 C 18.528582,18.264221 13.291696,25.230495 11.500037,31.436501 z"
     style="fill:#404040;"/>
  </a>
 </g>
</svg>

<style type='text/css'>
<![CDATA[
[data-mouse-over-selected='false'] { opacity: 0.7; }
[data-mouse-over-selected='true']  { opacity: 1.0; }
]]>
</style>
<script type="application/ecmascript"><![CDATA[
document.addEventListener('DOMContentLoaded', (event) => {
  highlightEdges();
  highlightAdjacentNodes();
});
]]></script>
</svg>
