<?xml version="1.0" encoding="UTF-8" standalone="no"?>
<!DOCTYPE svg PUBLIC "-//W3C//DTD SVG 1.1//EN"
 "http://www.w3.org/Graphics/SVG/1.1/DTD/svg11.dtd">
<!-- Generated by graphviz version 13.1.2 (20250808.2320)
 -->
<!-- Title: kest_error_code_to_string Pages: 1 -->
<svg width="1046pt" height="842pt"
 viewBox="0.00 0.00 1046.00 842.00" xmlns="http://www.w3.org/2000/svg" xmlns:xlink="http://www.w3.org/1999/xlink">
<g id="graph0" class="graph" transform="scale(1 1) rotate(0) translate(4 837.7)">
<title>kest_error_code_to_string</title>
<!-- Node1 -->
<g id="Node000001" class="node">
<title>Node1</title>
<g id="a_Node000001"><a xlink:title=" ">
<polygon fill="#999999" stroke="#666666" points="1037.5,-514.5 929.25,-514.5 929.25,-481 1037.5,-481 1037.5,-514.5"/>
<text xml:space="preserve" text-anchor="start" x="937.25" y="-501" font-family="Helvetica,sans-Serif" font-size="10.00">kest_error_code_to</text>
<text xml:space="preserve" text-anchor="middle" x="983.38" y="-488.25" font-family="Helvetica,sans-Serif" font-size="10.00">_string</text>
</a>
</g>
</g>
<!-- Node2 -->
<g id="Node000002" class="node">
<title>Node2</title>
<g id="a_Node000002"><a xlink:href="kest__int_8c.html#abce06be17fc37d675118a678a8100a36" target="_top" xlink:title=" ">
<polygon fill="white" stroke="#666666" points="65.5,-791.12 1.5,-791.12 1.5,-770.38 65.5,-770.38 65.5,-791.12"/>
<text xml:space="preserve" text-anchor="middle" x="33.5" y="-777.62" font-family="Helvetica,sans-Serif" font-size="10.00">app_main</text>
</a>
</g>
</g>
<!-- Node1&#45;&gt;Node2 -->
<g id="edge1_Node000001_Node000002" class="edge">
<title>Node1&#45;&gt;Node2</title>
<g id="a_edge1_Node000001_Node000002"><a xlink:title=" ">
<path fill="none" stroke="#63b8ff" d="M983.36,-526.17C983.72,-586.26 975.23,-726.25 893.25,-793.75 806.84,-864.91 754.57,-818.75 642.62,-818.75 642.62,-818.75 642.62,-818.75 300,-818.75 212.04,-818.75 189.49,-815.79 103,-799.75 90.74,-797.48 77.5,-794.04 65.95,-790.71"/>
<polygon fill="#63b8ff" stroke="#63b8ff" points="986.86,-526.39 983.2,-516.45 979.86,-526.5 986.86,-526.39"/>
</a>
</g>
</g>
<!-- Node3 -->
<g id="Node000003" class="node">
<title>Node3</title>
<g id="a_Node000003"><a xlink:href="kest__eff__section_8c.html#ac80cd23aae3ae32a7ea8002211c6c259" target="_top" xlink:title=" ">
<polygon fill="white" stroke="#666666" points="893.25,-671.12 750.5,-671.12 750.5,-650.38 893.25,-650.38 893.25,-671.12"/>
<text xml:space="preserve" text-anchor="middle" x="821.88" y="-657.62" font-family="Helvetica,sans-Serif" font-size="10.00">kest_defs_section_extract</text>
</a>
</g>
</g>
<!-- Node1&#45;&gt;Node3 -->
<g id="edge2_Node000001_Node000003" class="edge">
<title>Node1&#45;&gt;Node3</title>
<g id="a_edge2_Node000001_Node000003"><a xlink:title=" ">
<path fill="none" stroke="#63b8ff" d="M971.84,-524.89C958.26,-556.41 931.74,-607.89 893.25,-637.75 886.65,-642.87 878.86,-646.88 870.92,-650"/>
<polygon fill="#63b8ff" stroke="#63b8ff" points="974.91,-526.61 975.52,-516.04 968.45,-523.93 974.91,-526.61"/>
</a>
</g>
</g>
<!-- Node5 -->
<g id="Node000005" class="node">
<title>Node5</title>
<g id="a_Node000005"><a xlink:href="kest__eff__parser_8c.html#ae4618958c44389928c260fdb0e170761" target="_top" xlink:title=" ">
<polygon fill="white" stroke="#666666" points="355.88,-683.5 246.12,-683.5 246.12,-650 355.88,-650 355.88,-683.5"/>
<text xml:space="preserve" text-anchor="start" x="254.12" y="-670" font-family="Helvetica,sans-Serif" font-size="10.00">kest_read_eff_desc</text>
<text xml:space="preserve" text-anchor="middle" x="301" y="-657.25" font-family="Helvetica,sans-Serif" font-size="10.00">_from_file</text>
</a>
</g>
</g>
<!-- Node1&#45;&gt;Node5 -->
<g id="edge29_Node000001_Node000005" class="edge">
<title>Node1&#45;&gt;Node5</title>
<g id="a_edge29_Node000001_Node000005"><a xlink:title=" ">
<path fill="none" stroke="#63b8ff" d="M978.02,-525.79C969.81,-567.81 947.71,-645.78 893.25,-679.75 804.83,-734.9 484.86,-694.41 356.16,-675.28"/>
<polygon fill="#63b8ff" stroke="#63b8ff" points="981.41,-526.67 979.75,-516.21 974.52,-525.43 981.41,-526.67"/>
</a>
</g>
</g>
<!-- Node6 -->
<g id="Node000006" class="node">
<title>Node6</title>
<g id="a_Node000006"><a xlink:href="kest__files_8c.html#abd963628acfd524509956fff3c5f498c" target="_top" xlink:title=" ">
<polygon fill="white" stroke="#666666" points="193.25,-585.12 117.25,-585.12 117.25,-564.38 193.25,-564.38 193.25,-585.12"/>
<text xml:space="preserve" text-anchor="middle" x="155.25" y="-571.62" font-family="Helvetica,sans-Serif" font-size="10.00">load_effects</text>
</a>
</g>
</g>
<!-- Node1&#45;&gt;Node6 -->
<g id="edge32_Node000001_Node000006" class="edge">
<title>Node1&#45;&gt;Node6</title>
<g id="a_edge32_Node000001_Node000006"><a xlink:title=" ">
<path fill="none" stroke="#63b8ff" d="M917.73,-499.48C775.73,-503.37 445.14,-513.02 394.5,-519.75 322.12,-529.37 239.45,-550.89 192.99,-563.98"/>
<polygon fill="#63b8ff" stroke="#63b8ff" points="917.43,-502.99 927.33,-499.21 917.24,-495.99 917.43,-502.99"/>
</a>
</g>
</g>
<!-- Node7 -->
<g id="Node000007" class="node">
<title>Node7</title>
<g id="a_Node000007"><a xlink:href="kest__desktop_8c.html#ab499a4f71ef4cfc807b60d8739750c3e" target="_top" xlink:title=" ">
<polygon fill="#fff0f0" stroke="red" points="67,-400.12 0,-400.12 0,-379.38 67,-379.38 67,-400.12"/>
<text xml:space="preserve" text-anchor="middle" x="33.5" y="-386.62" font-family="Helvetica,sans-Serif" font-size="10.00">main_task</text>
</a>
</g>
</g>
<!-- Node1&#45;&gt;Node7 -->
<g id="edge33_Node000001_Node000007" class="edge">
<title>Node1&#45;&gt;Node7</title>
<g id="a_edge33_Node000001_Node000007"><a xlink:title=" ">
<path fill="none" stroke="#63b8ff" d="M973.67,-470.05C961.52,-436.47 936.02,-381.12 893.25,-354.75 798.03,-296.05 754.48,-331.75 642.62,-331.75 642.62,-331.75 642.62,-331.75 300,-331.75 212.48,-331.75 112.39,-362.2 63.9,-378.98"/>
<polygon fill="#63b8ff" stroke="#63b8ff" points="970.36,-471.19 976.92,-479.5 976.98,-468.91 970.36,-471.19"/>
</a>
</g>
</g>
<!-- Node15 -->
<g id="Node000015" class="node">
<title>Node15</title>
<g id="a_Node000015"><a xlink:href="kest__asm__parser_8c.html#a1b7e03dd7589f652dec13b4b2c6d0a5c" target="_top" xlink:title=" ">
<polygon fill="white" stroke="#666666" points="869.25,-629.12 774.5,-629.12 774.5,-608.38 869.25,-608.38 869.25,-629.12"/>
<text xml:space="preserve" text-anchor="middle" x="821.88" y="-615.62" font-family="Helvetica,sans-Serif" font-size="10.00">kest_parse_asm</text>
</a>
</g>
</g>
<!-- Node1&#45;&gt;Node15 -->
<g id="edge8_Node000001_Node000015" class="edge">
<title>Node1&#45;&gt;Node15</title>
<g id="a_edge8_Node000001_Node000015"><a xlink:title=" ">
<path fill="none" stroke="#63b8ff" d="M963.45,-523.84C946.97,-544.94 921.36,-574.11 893.25,-592.75 883.81,-599.01 872.65,-604.02 862.04,-607.91"/>
<polygon fill="#63b8ff" stroke="#63b8ff" points="966.16,-526.06 969.44,-515.98 960.59,-521.81 966.16,-526.06"/>
</a>
</g>
</g>
<!-- Node17 -->
<g id="Node000017" class="node">
<title>Node17</title>
<g id="a_Node000017"><a xlink:href="kest__dictionary_8c.html#aae3fbdeba250be8f6dd3dfa686eb24a8" target="_top" xlink:title=" ">
<polygon fill="white" stroke="#666666" points="883.12,-584.12 760.62,-584.12 760.62,-563.38 883.12,-563.38 883.12,-584.12"/>
<text xml:space="preserve" text-anchor="middle" x="821.88" y="-570.62" font-family="Helvetica,sans-Serif" font-size="10.00">kest_parse_dictionary</text>
</a>
</g>
</g>
<!-- Node1&#45;&gt;Node17 -->
<g id="edge11_Node000001_Node000017" class="edge">
<title>Node1&#45;&gt;Node17</title>
<g id="a_edge11_Node000001_Node000017"><a xlink:title=" ">
<path fill="none" stroke="#63b8ff" d="M946.74,-520.74C930.77,-530.46 911.47,-541.43 893.25,-549.75 882.45,-554.68 870.32,-559.17 859.22,-562.9"/>
<polygon fill="#63b8ff" stroke="#63b8ff" points="948.26,-523.92 954.92,-515.68 944.57,-517.96 948.26,-523.92"/>
</a>
</g>
</g>
<!-- Node21 -->
<g id="Node000021" class="node">
<title>Node21</title>
<g id="a_Node000021"><a xlink:href="kest__pipeline_8c.html#a7bb8f92d379766cce5cdc4b68d11818f" target="_top" xlink:title=" ">
<polygon fill="white" stroke="#666666" points="881.25,-469.5 762.5,-469.5 762.5,-436 881.25,-436 881.25,-469.5"/>
<text xml:space="preserve" text-anchor="start" x="770.5" y="-456" font-family="Helvetica,sans-Serif" font-size="10.00">kest_pipeline_create</text>
<text xml:space="preserve" text-anchor="middle" x="821.88" y="-443.25" font-family="Helvetica,sans-Serif" font-size="10.00">_fpga_transfer_batch</text>
</a>
</g>
</g>
<!-- Node1&#45;&gt;Node21 -->
<g id="edge18_Node000001_Node000021" class="edge">
<title>Node1&#45;&gt;Node21</title>
<g id="a_edge18_Node000001_Node000021"><a xlink:title=" ">
<path fill="none" stroke="#63b8ff" d="M917.93,-479.57C905.88,-476.17 893.35,-472.63 881.5,-469.29"/>
<polygon fill="#63b8ff" stroke="#63b8ff" points="916.79,-482.88 927.36,-482.23 918.69,-476.15 916.79,-482.88"/>
</a>
</g>
</g>
<!-- Node22 -->
<g id="Node000022" class="node">
<title>Node22</title>
<g id="a_Node000022"><a xlink:href="kest__preset_8c.html#acb2473aaab6ccd3d458028d560edb9bc" target="_top" xlink:title=" ">
<polygon fill="white" stroke="#666666" points="701,-472.5 582.25,-472.5 582.25,-439 701,-439 701,-472.5"/>
<text xml:space="preserve" text-anchor="start" x="590.25" y="-459" font-family="Helvetica,sans-Serif" font-size="10.00">kest_preset_create</text>
<text xml:space="preserve" text-anchor="middle" x="641.62" y="-446.25" font-family="Helvetica,sans-Serif" font-size="10.00">_fpga_transfer_batch</text>
</a>
</g>
</g>
<!-- Node1&#45;&gt;Node22 -->
<g id="edge24_Node000001_Node000022" class="edge">
<title>Node1&#45;&gt;Node22</title>
<g id="a_edge24_Node000001_Node000022"><a xlink:title=" ">
<path fill="none" stroke="#63b8ff" d="M917.74,-494.68C871.09,-491.92 806.68,-487.01 750.5,-478.75 734.49,-476.4 717.3,-473.09 701.44,-469.72"/>
<polygon fill="#63b8ff" stroke="#63b8ff" points="917.51,-498.17 927.69,-495.25 917.91,-491.18 917.51,-498.17"/>
</a>
</g>
</g>
<!-- Node23 -->
<g id="Node000023" class="node">
<title>Node23</title>
<g id="a_Node000023"><a xlink:href="kest__preset_8c.html#a5a3e12c26912d571e86fd2b5f54a2d8d" target="_top" xlink:title=" ">
<polygon fill="white" stroke="#666666" points="714.5,-421.12 568.75,-421.12 568.75,-400.38 714.5,-400.38 714.5,-421.12"/>
<text xml:space="preserve" text-anchor="middle" x="641.62" y="-407.62" font-family="Helvetica,sans-Serif" font-size="10.00">kest_preset_program_fpga</text>
</a>
</g>
</g>
<!-- Node1&#45;&gt;Node23 -->
<g id="edge25_Node000001_Node000023" class="edge">
<title>Node1&#45;&gt;Node23</title>
<g id="a_edge25_Node000001_Node000023"><a xlink:title=" ">
<path fill="none" stroke="#63b8ff" d="M959.24,-472.65C942.61,-456.43 918.71,-436.57 893.25,-426.75 836.1,-404.7 766.19,-402.03 714.74,-404.12"/>
<polygon fill="#63b8ff" stroke="#63b8ff" points="956.66,-475.01 966.18,-479.65 961.63,-470.08 956.66,-475.01"/>
</a>
</g>
</g>
<!-- Node49 -->
<g id="Node000049" class="node">
<title>Node49</title>
<g id="a_Node000049"><a xlink:href="kest__preset_8c.html#a89148926bbc9e9114ca4b187a3fc8336" target="_top" xlink:title=" ">
<polygon fill="#fff0f0" stroke="red" points="358.5,-412.5 243.5,-412.5 243.5,-379 358.5,-379 358.5,-412.5"/>
<text xml:space="preserve" text-anchor="start" x="251.5" y="-399" font-family="Helvetica,sans-Serif" font-size="10.00">kest_preset_remove</text>
<text xml:space="preserve" text-anchor="middle" x="301" y="-386.25" font-family="Helvetica,sans-Serif" font-size="10.00">_effect</text>
</a>
</g>
</g>
<!-- Node1&#45;&gt;Node49 -->
<g id="edge26_Node000001_Node000049" class="edge">
<title>Node1&#45;&gt;Node49</title>
<g id="a_edge26_Node000001_Node000049"><a xlink:title=" ">
<path fill="none" stroke="#63b8ff" d="M966.79,-471.12C951.4,-447.65 925.53,-414.9 893.25,-399.75 713.67,-315.48 468.29,-356.16 358.79,-381.16"/>
<polygon fill="#63b8ff" stroke="#63b8ff" points="963.82,-472.97 972.11,-479.56 969.74,-469.24 963.82,-472.97"/>
</a>
</g>
</g>
<!-- Node73 -->
<g id="Node000073" class="node">
<title>Node73</title>
<g id="a_Node000073"><a xlink:href="kest__asm__parser_8c.html#ae59ff30494de598aa24df2c421eff7f7" target="_top" xlink:title=" ">
<polygon fill="white" stroke="#666666" points="888.75,-753.12 755,-753.12 755,-732.38 888.75,-732.38 888.75,-753.12"/>
<text xml:space="preserve" text-anchor="middle" x="821.88" y="-739.62" font-family="Helvetica,sans-Serif" font-size="10.00">kest_process_asm_lines</text>
</a>
</g>
</g>
<!-- Node1&#45;&gt;Node73 -->
<g id="edge27_Node000001_Node000073" class="edge">
<title>Node1&#45;&gt;Node73</title>
<g id="a_edge27_Node000001_Node000073"><a xlink:title=" ">
<path fill="none" stroke="#63b8ff" d="M978.6,-526.16C970.94,-572.81 949.23,-665.75 893.25,-718.75 887.34,-724.34 880.08,-728.63 872.49,-731.93"/>
<polygon fill="#63b8ff" stroke="#63b8ff" points="982.06,-526.73 980.11,-516.32 975.14,-525.67 982.06,-526.73"/>
</a>
</g>
</g>
<!-- Node74 -->
<g id="Node000074" class="node">
<title>Node74</title>
<g id="a_Node000074"><a xlink:href="kest__sgtl5000_8c.html#ab1fee6b32d3be05247ada395bd60915b" target="_top" xlink:title=" ">
<polygon fill="white" stroke="#666666" points="207.5,-791.12 103,-791.12 103,-770.38 207.5,-770.38 207.5,-791.12"/>
<text xml:space="preserve" text-anchor="middle" x="155.25" y="-777.62" font-family="Helvetica,sans-Serif" font-size="10.00">kest_sgtl5000_init</text>
</a>
</g>
</g>
<!-- Node1&#45;&gt;Node74 -->
<g id="edge30_Node000001_Node000074" class="edge">
<title>Node1&#45;&gt;Node74</title>
<g id="a_edge30_Node000001_Node000074"><a xlink:title=" ">
<path fill="none" stroke="#63b8ff" d="M982.27,-526.31C980.37,-581.87 967.48,-704.09 893.25,-761.75 805.03,-830.28 754.33,-780.75 642.62,-780.75 642.62,-780.75 642.62,-780.75 462.62,-780.75 373,-780.75 268.63,-780.75 207.75,-780.75"/>
<polygon fill="#63b8ff" stroke="#63b8ff" points="985.77,-526.5 982.5,-516.42 978.77,-526.34 985.77,-526.5"/>
</a>
</g>
</g>
<!-- Node39 -->
<g id="Node000039" class="node">
<title>Node39</title>
<g id="a_Node000039"><a xlink:href="kest__sequence__list_8c.html#a0788bbcb1aa9c85a904e084c2abd48ad" target="_top" xlink:title=" ">
<polygon fill="#fff0f0" stroke="red" points="883.5,-303.5 760.25,-303.5 760.25,-270 883.5,-270 883.5,-303.5"/>
<text xml:space="preserve" text-anchor="start" x="768.25" y="-290" font-family="Helvetica,sans-Serif" font-size="10.00">menu_item_sequence</text>
<text xml:space="preserve" text-anchor="middle" x="821.88" y="-277.25" font-family="Helvetica,sans-Serif" font-size="10.00">_listing_released_cb</text>
</a>
</g>
</g>
<!-- Node1&#45;&gt;Node39 -->
<g id="edge34_Node000001_Node000039" class="edge">
<title>Node1&#45;&gt;Node39</title>
<g id="a_edge34_Node000001_Node000039"><a xlink:title=" ">
<path fill="none" stroke="#63b8ff" d="M975.02,-469.5C963.57,-430.62 938.02,-360.56 893.25,-317.75 887.56,-312.31 880.75,-307.73 873.64,-303.9"/>
<polygon fill="#63b8ff" stroke="#63b8ff" points="971.63,-470.38 977.71,-479.05 978.36,-468.47 971.63,-470.38"/>
</a>
</g>
</g>
<!-- Node75 -->
<g id="Node000075" class="node">
<title>Node75</title>
<g id="a_Node000075"><a xlink:href="kest__files_8c.html#a930754405483621f50f94833b02cdd3c" target="_top" xlink:title=" ">
<polygon fill="white" stroke="#666666" points="859.5,-222.12 784.25,-222.12 784.25,-201.38 859.5,-201.38 859.5,-222.12"/>
<text xml:space="preserve" text-anchor="middle" x="821.88" y="-208.62" font-family="Helvetica,sans-Serif" font-size="10.00">save_preset</text>
</a>
</g>
</g>
<!-- Node1&#45;&gt;Node75 -->
<g id="edge35_Node000001_Node000075" class="edge">
<title>Node1&#45;&gt;Node75</title>
<g id="a_edge35_Node000001_Node000075"><a xlink:title=" ">
<path fill="none" stroke="#63b8ff" d="M977.4,-469.33C967.95,-421.92 943.65,-325.54 893.25,-260.75 880.36,-244.18 860.32,-231 844.92,-222.5"/>
<polygon fill="#63b8ff" stroke="#63b8ff" points="973.95,-469.88 979.26,-479.05 980.82,-468.57 973.95,-469.88"/>
</a>
</g>
</g>
<!-- Node95 -->
<g id="Node000095" class="node">
<title>Node95</title>
<g id="a_Node000095"><a xlink:href="kest__files_8c.html#af53689e3600e69611b9c05f11971d23e" target="_top" xlink:title=" ">
<polygon fill="#fff0f0" stroke="red" points="509.12,-91.12 418.12,-91.12 418.12,-70.38 509.12,-70.38 509.12,-91.12"/>
<text xml:space="preserve" text-anchor="middle" x="463.62" y="-77.62" font-family="Helvetica,sans-Serif" font-size="10.00">save_sequence</text>
</a>
</g>
</g>
<!-- Node1&#45;&gt;Node95 -->
<g id="edge45_Node000001_Node000095" class="edge">
<title>Node1&#45;&gt;Node95</title>
<g id="a_edge45_Node000001_Node000095"><a xlink:title=" ">
<path fill="none" stroke="#63b8ff" d="M980.71,-469.24C976.01,-411.47 958.37,-278.82 893.25,-192.75 836.69,-117.99 804.6,-106.65 714.5,-80.75 645.08,-60.8 560.26,-66.8 509.44,-73.43"/>
<polygon fill="#63b8ff" stroke="#63b8ff" points="977.22,-469.47 981.44,-479.19 984.2,-468.96 977.22,-469.47"/>
</a>
</g>
</g>
<!-- Node101 -->
<g id="Node000101" class="node">
<title>Node101</title>
<g id="a_Node000101"><a xlink:href="kest__parameter__widget_8c.html#a9f3fb39848be08aec8f4f317aa8487b0" target="_top" xlink:title=" ">
<polygon fill="white" stroke="#666666" points="886.12,-33.5 757.62,-33.5 757.62,0 886.12,0 886.12,-33.5"/>
<text xml:space="preserve" text-anchor="start" x="765.62" y="-20" font-family="Helvetica,sans-Serif" font-size="10.00">setting_widget_change</text>
<text xml:space="preserve" text-anchor="middle" x="821.88" y="-7.25" font-family="Helvetica,sans-Serif" font-size="10.00">_cb_inner</text>
</a>
</g>
</g>
<!-- Node1&#45;&gt;Node101 -->
<g id="edge46_Node000001_Node000101" class="edge">
<title>Node1&#45;&gt;Node101</title>
<g id="a_edge46_Node000001_Node000101"><a xlink:title=" ">
<path fill="none" stroke="#63b8ff" d="M980.14,-469.24C972.71,-380.92 946.24,-113.86 893.25,-47.75 888.82,-42.23 883.21,-37.67 877.1,-33.9"/>
<polygon fill="#63b8ff" stroke="#63b8ff" points="976.65,-469.51 980.96,-479.19 983.63,-468.94 976.65,-469.51"/>
</a>
</g>
</g>
<!-- Node4 -->
<g id="Node000004" class="node">
<title>Node4</title>
<g id="a_Node000004"><a xlink:href="kest__eff__parser_8c.html#a73ef6962d1925857ec3e4b12d1aad834" target="_top" xlink:title=" ">
<polygon fill="white" stroke="#666666" points="516.62,-658.12 410.62,-658.12 410.62,-637.38 516.62,-637.38 516.62,-658.12"/>
<text xml:space="preserve" text-anchor="middle" x="463.62" y="-644.62" font-family="Helvetica,sans-Serif" font-size="10.00">kest_parse_tokens</text>
</a>
</g>
</g>
<!-- Node3&#45;&gt;Node4 -->
<g id="edge3_Node000003_Node000004" class="edge">
<title>Node3&#45;&gt;Node4</title>
<g id="a_edge3_Node000003_Node000004"><a xlink:title=" ">
<path fill="none" stroke="#63b8ff" d="M738.93,-657.76C670.67,-655.27 575.5,-651.8 517.08,-649.66"/>
<polygon fill="#63b8ff" stroke="#63b8ff" points="738.43,-661.24 748.55,-658.11 738.69,-654.25 738.43,-661.24"/>
</a>
</g>
</g>
<!-- Node4&#45;&gt;Node5 -->
<g id="edge4_Node000004_Node000005" class="edge">
<title>Node4&#45;&gt;Node5</title>
<g id="a_edge4_Node000004_Node000005"><a xlink:title=" ">
<path fill="none" stroke="#63b8ff" d="M399.29,-655.24C385.1,-656.92 370.16,-658.69 356.37,-660.32"/>
<polygon fill="#63b8ff" stroke="#63b8ff" points="399.45,-658.75 408.97,-654.1 398.63,-651.8 399.45,-658.75"/>
</a>
</g>
</g>
<!-- Node5&#45;&gt;Node6 -->
<g id="edge5_Node000005_Node000006" class="edge">
<title>Node5&#45;&gt;Node6</title>
<g id="a_edge5_Node000005_Node000006"><a xlink:title=" ">
<path fill="none" stroke="#63b8ff" d="M263.86,-643.62C234.72,-624.97 195.06,-599.59 172.93,-585.43"/>
<polygon fill="#63b8ff" stroke="#63b8ff" points="261.71,-646.4 272.02,-648.85 265.49,-640.51 261.71,-646.4"/>
</a>
</g>
</g>
<!-- Node6&#45;&gt;Node2 -->
<g id="edge6_Node000006_Node000002" class="edge">
<title>Node6&#45;&gt;Node2</title>
<g id="a_edge6_Node000006_Node000002"><a xlink:title=" ">
<path fill="none" stroke="#63b8ff" d="M142.34,-595.23C117.26,-638.39 59.7,-737.4 40.71,-770.07"/>
<polygon fill="#63b8ff" stroke="#63b8ff" points="145.22,-597.25 147.22,-586.84 139.17,-593.73 145.22,-597.25"/>
</a>
</g>
</g>
<!-- Node6&#45;&gt;Node7 -->
<g id="edge7_Node000006_Node000007" class="edge">
<title>Node6&#45;&gt;Node7</title>
<g id="a_edge7_Node000006_Node000007"><a xlink:title=" ">
<path fill="none" stroke="#63b8ff" d="M141.12,-554.46C115.77,-515.3 60.89,-430.51 41.48,-400.53"/>
<polygon fill="#63b8ff" stroke="#63b8ff" points="138.1,-556.24 146.47,-562.73 143.98,-552.44 138.1,-556.24"/>
</a>
</g>
</g>
<!-- Node16 -->
<g id="Node000016" class="node">
<title>Node16</title>
<g id="a_Node000016"><a xlink:href="kest__eff__section_8c.html#a992e0c66572f5ffabca2203a018ea97c" target="_top" xlink:title=" ">
<polygon fill="white" stroke="#666666" points="710.38,-639.12 572.88,-639.12 572.88,-618.38 710.38,-618.38 710.38,-639.12"/>
<text xml:space="preserve" text-anchor="middle" x="641.62" y="-625.62" font-family="Helvetica,sans-Serif" font-size="10.00">kest_parse_code_section</text>
</a>
</g>
</g>
<!-- Node15&#45;&gt;Node16 -->
<g id="edge9_Node000015_Node000016" class="edge">
<title>Node15&#45;&gt;Node16</title>
<g id="a_edge9_Node000015_Node000016"><a xlink:title=" ">
<path fill="none" stroke="#63b8ff" d="M762.8,-622.01C746.13,-622.94 727.81,-623.97 710.6,-624.94"/>
<polygon fill="#63b8ff" stroke="#63b8ff" points="762.74,-625.52 772.53,-621.46 762.35,-618.53 762.74,-625.52"/>
</a>
</g>
</g>
<!-- Node16&#45;&gt;Node4 -->
<g id="edge10_Node000016_Node000004" class="edge">
<title>Node16&#45;&gt;Node4</title>
<g id="a_edge10_Node000016_Node000004"><a xlink:title=" ">
<path fill="none" stroke="#63b8ff" d="M561.2,-637.32C546.19,-638.94 530.84,-640.6 516.93,-642.1"/>
<polygon fill="#63b8ff" stroke="#63b8ff" points="561.51,-640.81 571.07,-636.26 560.76,-633.85 561.51,-640.81"/>
</a>
</g>
</g>
<!-- Node18 -->
<g id="Node000018" class="node">
<title>Node18</title>
<g id="a_Node000018"><a xlink:href="kest__dictionary_8c.html#af0aceaa93cba06fd44ad4bc50f2418e4" target="_top" xlink:title=" ">
<polygon fill="white" stroke="#666666" points="697.62,-549.12 585.62,-549.12 585.62,-528.38 697.62,-528.38 697.62,-549.12"/>
<text xml:space="preserve" text-anchor="middle" x="641.62" y="-535.62" font-family="Helvetica,sans-Serif" font-size="10.00">kest_parse_dict_val</text>
</a>
</g>
</g>
<!-- Node17&#45;&gt;Node18 -->
<g id="edge12_Node000017_Node000018" class="edge">
<title>Node17&#45;&gt;Node18</title>
<g id="a_edge12_Node000017_Node000018"><a xlink:title=" ">
<path fill="none" stroke="#63b8ff" d="M780.81,-560.14C756.35,-554.22 724.74,-547.83 697.93,-543.31"/>
<polygon fill="#63b8ff" stroke="#63b8ff" points="779.82,-563.5 790.37,-562.54 781.52,-556.71 779.82,-563.5"/>
</a>
</g>
</g>
<!-- Node20 -->
<g id="Node000020" class="node">
<title>Node20</title>
<g id="a_Node000020"><a xlink:href="kest__eff__section_8c.html#a4de28fb64398c9194136a2ced71e2795" target="_top" xlink:title=" ">
<polygon fill="white" stroke="#666666" points="702.88,-600.5 580.38,-600.5 580.38,-567 702.88,-567 702.88,-600.5"/>
<text xml:space="preserve" text-anchor="start" x="588.38" y="-587" font-family="Helvetica,sans-Serif" font-size="10.00">kest_parse_dictionary</text>
<text xml:space="preserve" text-anchor="middle" x="641.62" y="-574.25" font-family="Helvetica,sans-Serif" font-size="10.00">_section</text>
</a>
</g>
</g>
<!-- Node17&#45;&gt;Node20 -->
<g id="edge16_Node000017_Node000020" class="edge">
<title>Node17&#45;&gt;Node20</title>
<g id="a_edge16_Node000017_Node000020"><a xlink:title=" ">
<path fill="none" stroke="#63b8ff" d="M749.07,-577.78C733.86,-578.63 717.95,-579.52 703.21,-580.35"/>
<polygon fill="#63b8ff" stroke="#63b8ff" points="749.23,-581.28 759.02,-577.22 748.84,-574.29 749.23,-581.28"/>
</a>
</g>
</g>
<!-- Node18&#45;&gt;Node17 -->
<g id="edge15_Node000018_Node000017" class="edge">
<title>Node18&#45;&gt;Node17</title>
<g id="a_edge15_Node000018_Node000017"><a xlink:title=" ">
<path fill="none" stroke="#63b8ff" d="M682.47,-552.31C705.44,-557.88 734.78,-563.87 760.53,-568.33"/>
<polygon fill="#63b8ff" stroke="#63b8ff" points="683.44,-548.94 672.89,-549.9 681.74,-555.73 683.44,-548.94"/>
</a>
</g>
</g>
<!-- Node19 -->
<g id="Node000019" class="node">
<title>Node19</title>
<g id="a_Node000019"><a xlink:href="kest__dictionary_8c.html#a8db4f9c511b00d7240052135e9c1ed67" target="_top" xlink:title=" ">
<polygon fill="white" stroke="#666666" points="519.62,-549.12 407.62,-549.12 407.62,-528.38 519.62,-528.38 519.62,-549.12"/>
<text xml:space="preserve" text-anchor="middle" x="463.62" y="-535.62" font-family="Helvetica,sans-Serif" font-size="10.00">kest_parse_dict_list</text>
</a>
</g>
</g>
<!-- Node18&#45;&gt;Node19 -->
<g id="edge13_Node000018_Node000019" class="edge">
<title>Node18&#45;&gt;Node19</title>
<g id="a_edge13_Node000018_Node000019"><a xlink:title=" ">
<path fill="none" stroke="#63b8ff" d="M573.93,-532.18C556.11,-531.87 537.06,-531.96 519.94,-532.43"/>
<polygon fill="#63b8ff" stroke="#63b8ff" points="573.83,-535.68 583.91,-532.4 573.99,-528.68 573.83,-535.68"/>
</a>
</g>
</g>
<!-- Node19&#45;&gt;Node18 -->
<g id="edge14_Node000019_Node000018" class="edge">
<title>Node19&#45;&gt;Node18</title>
<g id="a_edge14_Node000019_Node000018"><a xlink:title=" ">
<path fill="none" stroke="#63b8ff" d="M531.43,-545.32C549.25,-545.63 568.3,-545.54 585.42,-545.06"/>
<polygon fill="#63b8ff" stroke="#63b8ff" points="531.52,-541.82 521.45,-545.1 531.37,-548.82 531.52,-541.82"/>
</a>
</g>
</g>
<!-- Node20&#45;&gt;Node4 -->
<g id="edge17_Node000020_Node000004" class="edge">
<title>Node20&#45;&gt;Node4</title>
<g id="a_edge17_Node000020_Node000004"><a xlink:title=" ">
<path fill="none" stroke="#63b8ff" d="M582.34,-604.82C577.74,-606.48 573.17,-608.14 568.75,-609.75 543.61,-618.88 515.07,-629.3 494.24,-636.92"/>
<polygon fill="#63b8ff" stroke="#63b8ff" points="583.43,-608.15 591.64,-601.45 581.05,-601.56 583.43,-608.15"/>
</a>
</g>
</g>
<!-- Node21&#45;&gt;Node22 -->
<g id="edge19_Node000021_Node000022" class="edge">
<title>Node21&#45;&gt;Node22</title>
<g id="a_edge19_Node000021_Node000022"><a xlink:title=" ">
<path fill="none" stroke="#63b8ff" d="M750.86,-453.93C734.5,-454.2 717.24,-454.49 701.42,-454.76"/>
<polygon fill="#63b8ff" stroke="#63b8ff" points="750.56,-457.43 760.5,-453.77 750.44,-450.43 750.56,-457.43"/>
</a>
</g>
</g>
<!-- Node21&#45;&gt;Node23 -->
<g id="edge20_Node000021_Node000023" class="edge">
<title>Node21&#45;&gt;Node23</title>
<g id="a_edge20_Node000021_Node000023"><a xlink:title=" ">
<path fill="none" stroke="#63b8ff" d="M750.92,-436.27C730.04,-431.35 707.67,-426.08 688.72,-421.61"/>
<polygon fill="#63b8ff" stroke="#63b8ff" points="750.01,-439.65 760.54,-438.53 751.61,-432.83 750.01,-439.65"/>
</a>
</g>
</g>
<!-- Node24 -->
<g id="Node000024" class="node">
<title>Node24</title>
<g id="a_Node000024"><a xlink:href="kest__preset_8c.html#a4786192624da0baccb9bd169d357c794" target="_top" xlink:title=" ">
<polygon fill="#fff0f0" stroke="red" points="523.38,-431.5 403.88,-431.5 403.88,-398 523.38,-398 523.38,-431.5"/>
<text xml:space="preserve" text-anchor="start" x="411.88" y="-418" font-family="Helvetica,sans-Serif" font-size="10.00">kest_preset_if_active</text>
<text xml:space="preserve" text-anchor="middle" x="463.62" y="-405.25" font-family="Helvetica,sans-Serif" font-size="10.00">_update_fpga</text>
</a>
</g>
</g>
<!-- Node23&#45;&gt;Node24 -->
<g id="edge21_Node000023_Node000024" class="edge">
<title>Node23&#45;&gt;Node24</title>
<g id="a_edge21_Node000023_Node000024"><a xlink:title=" ">
<path fill="none" stroke="#63b8ff" d="M557.1,-412.65C545.86,-412.9 534.52,-413.16 523.82,-413.4"/>
<polygon fill="#63b8ff" stroke="#63b8ff" points="556.85,-416.16 566.76,-412.43 556.69,-409.16 556.85,-416.16"/>
</a>
</g>
</g>
<!-- Node58 -->
<g id="Node000058" class="node">
<title>Node58</title>
<g id="a_Node000058"><a xlink:href="kest__preset_8c.html#acb2b0cbb6743bad53092fa87d22051c0" target="_top" xlink:title=" ">
<polygon fill="#fff0f0" stroke="red" points="527.5,-470.12 399.75,-470.12 399.75,-449.38 527.5,-449.38 527.5,-470.12"/>
<text xml:space="preserve" text-anchor="middle" x="463.62" y="-456.62" font-family="Helvetica,sans-Serif" font-size="10.00">kest_preset_set_active</text>
</a>
</g>
</g>
<!-- Node23&#45;&gt;Node58 -->
<g id="edge23_Node000023_Node000058" class="edge">
<title>Node23&#45;&gt;Node58</title>
<g id="a_edge23_Node000023_Node000058"><a xlink:title=" ">
<path fill="none" stroke="#63b8ff" d="M587.95,-424.43C581.47,-426.18 574.95,-427.98 568.75,-429.75 552.66,-434.33 548.81,-436.06 532.75,-440.75 523.44,-443.47 513.39,-446.32 503.94,-448.96"/>
<polygon fill="#63b8ff" stroke="#63b8ff" points="588.53,-427.9 597.28,-421.93 586.72,-421.13 588.53,-427.9"/>
</a>
</g>
</g>
<!-- Node24&#45;&gt;Node49 -->
<g id="edge22_Node000024_Node000049" class="edge">
<title>Node24&#45;&gt;Node49</title>
<g id="a_edge22_Node000024_Node000049"><a xlink:title=" ">
<path fill="none" stroke="#63b8ff" d="M392.55,-406.46C381.26,-405.13 369.68,-403.76 358.75,-402.46"/>
<polygon fill="#63b8ff" stroke="#63b8ff" points="391.88,-409.91 402.22,-407.61 392.7,-402.95 391.88,-409.91"/>
</a>
</g>
</g>
<!-- Node73&#45;&gt;Node5 -->
<g id="edge28_Node000073_Node000005" class="edge">
<title>Node73&#45;&gt;Node5</title>
<g id="a_edge28_Node000073_Node000005"><a xlink:title=" ">
<path fill="none" stroke="#63b8ff" d="M743.33,-748.75C656.51,-753.1 512.5,-753.22 394.5,-718.75 369.21,-711.36 343.31,-696 325.38,-683.88"/>
<polygon fill="#63b8ff" stroke="#63b8ff" points="743.37,-752.25 753.16,-748.22 742.99,-745.26 743.37,-752.25"/>
</a>
</g>
</g>
<!-- Node74&#45;&gt;Node2 -->
<g id="edge31_Node000074_Node000002" class="edge">
<title>Node74&#45;&gt;Node2</title>
<g id="a_edge31_Node000074_Node000002"><a xlink:title=" ">
<path fill="none" stroke="#63b8ff" d="M91.52,-780.75C82.62,-780.75 73.81,-780.75 65.87,-780.75"/>
<polygon fill="#63b8ff" stroke="#63b8ff" points="91.26,-784.25 101.26,-780.75 91.26,-777.25 91.26,-784.25"/>
</a>
</g>
</g>
<!-- Node76 -->
<g id="Node000076" class="node">
<title>Node76</title>
<g id="a_Node000076"><a xlink:href="kest__effect_8c.html#a2109a1d86293251c21166f2d243d1f84" target="_top" xlink:title=" ">
<polygon fill="white" stroke="#666666" points="694.62,-303.5 588.62,-303.5 588.62,-270 694.62,-270 694.62,-303.5"/>
<text xml:space="preserve" text-anchor="start" x="596.62" y="-290" font-family="Helvetica,sans-Serif" font-size="10.00">kest_effect_preset</text>
<text xml:space="preserve" text-anchor="middle" x="641.62" y="-277.25" font-family="Helvetica,sans-Serif" font-size="10.00">_rep_update</text>
</a>
</g>
</g>
<!-- Node75&#45;&gt;Node76 -->
<g id="edge36_Node000075_Node000076" class="edge">
<title>Node75&#45;&gt;Node76</title>
<g id="a_edge36_Node000075_Node000076"><a xlink:title=" ">
<path fill="none" stroke="#63b8ff" d="M788.85,-227.36C767.9,-237.36 739.81,-250.36 714.5,-260.75 707.26,-263.72 699.53,-266.71 691.94,-269.54"/>
<polygon fill="#63b8ff" stroke="#63b8ff" points="790.25,-230.57 797.75,-223.09 787.22,-224.26 790.25,-230.57"/>
</a>
</g>
</g>
<!-- Node86 -->
<g id="Node000086" class="node">
<title>Node86</title>
<g id="a_Node000086"><a xlink:href="kest__preset_8c.html#adafdde421c8a45460a73610143e238ec" target="_top" xlink:title=" ">
<polygon fill="white" stroke="#666666" points="698.75,-251.5 584.5,-251.5 584.5,-218 698.75,-218 698.75,-251.5"/>
<text xml:space="preserve" text-anchor="start" x="592.5" y="-238" font-family="Helvetica,sans-Serif" font-size="10.00">kest_preset_file_rep</text>
<text xml:space="preserve" text-anchor="middle" x="641.62" y="-225.25" font-family="Helvetica,sans-Serif" font-size="10.00">_update</text>
</a>
</g>
</g>
<!-- Node75&#45;&gt;Node86 -->
<g id="edge38_Node000075_Node000086" class="edge">
<title>Node75&#45;&gt;Node86</title>
<g id="a_edge38_Node000075_Node000086"><a xlink:title=" ">
<path fill="none" stroke="#63b8ff" d="M772.55,-217.99C749.9,-220.91 722.77,-224.41 699.18,-227.45"/>
<polygon fill="#63b8ff" stroke="#63b8ff" points="772.97,-221.46 782.44,-216.71 772.07,-214.52 772.97,-221.46"/>
</a>
</g>
</g>
<!-- Node90 -->
<g id="Node000090" class="node">
<title>Node90</title>
<g id="a_Node000090"><a xlink:href="kest__preset_8c.html#a6a24248737ac0b5a0379e63a2b48a9f8" target="_top" xlink:title=" ">
<polygon fill="white" stroke="#666666" points="692,-200.12 591.25,-200.12 591.25,-179.38 692,-179.38 692,-200.12"/>
<text xml:space="preserve" text-anchor="middle" x="641.62" y="-186.62" font-family="Helvetica,sans-Serif" font-size="10.00">kest_preset_save</text>
</a>
</g>
</g>
<!-- Node75&#45;&gt;Node90 -->
<g id="edge40_Node000075_Node000090" class="edge">
<title>Node75&#45;&gt;Node90</title>
<g id="a_edge40_Node000075_Node000090"><a xlink:title=" ">
<path fill="none" stroke="#63b8ff" d="M772.58,-205.79C747.71,-202.72 717.43,-198.98 692.36,-195.89"/>
<polygon fill="#63b8ff" stroke="#63b8ff" points="772.09,-209.25 782.44,-207.01 772.94,-202.31 772.09,-209.25"/>
</a>
</g>
</g>
<!-- Node93 -->
<g id="Node000093" class="node">
<title>Node93</title>
<g id="a_Node000093"><a xlink:href="kest__preset__settings_8c.html#aaa59e0b8910390c48668aeed99920b4b" target="_top" xlink:title=" ">
<polygon fill="white" stroke="#666666" points="701.38,-161.5 581.88,-161.5 581.88,-128 701.38,-128 701.38,-161.5"/>
<text xml:space="preserve" text-anchor="start" x="589.88" y="-148" font-family="Helvetica,sans-Serif" font-size="10.00">preset_settings_save</text>
<text xml:space="preserve" text-anchor="middle" x="641.62" y="-135.25" font-family="Helvetica,sans-Serif" font-size="10.00">_button_cb</text>
</a>
</g>
</g>
<!-- Node75&#45;&gt;Node93 -->
<g id="edge42_Node000075_Node000093" class="edge">
<title>Node75&#45;&gt;Node93</title>
<g id="a_edge42_Node000075_Node000093"><a xlink:title=" ">
<path fill="none" stroke="#63b8ff" d="M782.71,-196.82C762.48,-188.96 737.18,-179.22 714.5,-170.75 706.79,-167.87 698.6,-164.86 690.62,-161.95"/>
<polygon fill="#63b8ff" stroke="#63b8ff" points="781.39,-200.06 791.97,-200.42 783.92,-193.54 781.39,-200.06"/>
</a>
</g>
</g>
<!-- Node94 -->
<g id="Node000094" class="node">
<title>Node94</title>
<g id="a_Node000094"><a xlink:href="kest__files_8c.html#a00c64a8e626a8a982c9a7ced88c5f90d" target="_top" xlink:title=" ">
<polygon fill="white" stroke="#666666" points="705.88,-110.12 577.38,-110.12 577.38,-89.38 705.88,-89.38 705.88,-110.12"/>
<text xml:space="preserve" text-anchor="middle" x="641.62" y="-96.62" font-family="Helvetica,sans-Serif" font-size="10.00">save_sequence_as_file</text>
</a>
</g>
</g>
<!-- Node75&#45;&gt;Node94 -->
<g id="edge43_Node000075_Node000094" class="edge">
<title>Node75&#45;&gt;Node94</title>
<g id="a_edge43_Node000075_Node000094"><a xlink:title=" ">
<path fill="none" stroke="#63b8ff" d="M804.14,-192.58C784.67,-171.44 750.54,-137.9 714.5,-118.75 708.46,-115.54 701.84,-112.84 695.14,-110.59"/>
<polygon fill="#63b8ff" stroke="#63b8ff" points="801.48,-194.85 810.77,-199.94 806.68,-190.16 801.48,-194.85"/>
</a>
</g>
</g>
<!-- Node77 -->
<g id="Node000077" class="node">
<title>Node77</title>
<g id="a_Node000077"><a xlink:href="kest__effect_8c.html#a6d9927f6d82c964bd07bef5c77879010" target="_top" xlink:title=" ">
<polygon fill="#fff0f0" stroke="red" points="496.38,-297.12 430.88,-297.12 430.88,-276.38 496.38,-276.38 496.38,-297.12"/>
<text xml:space="preserve" text-anchor="middle" x="463.62" y="-283.62" font-family="Helvetica,sans-Serif" font-size="10.00">init_effect</text>
</a>
</g>
</g>
<!-- Node76&#45;&gt;Node77 -->
<g id="edge37_Node000076_Node000077" class="edge">
<title>Node76&#45;&gt;Node77</title>
<g id="a_edge37_Node000076_Node000077"><a xlink:title=" ">
<path fill="none" stroke="#63b8ff" d="M576.89,-286.75C549.72,-286.75 519.2,-286.75 496.85,-286.75"/>
<polygon fill="#63b8ff" stroke="#63b8ff" points="576.78,-290.25 586.78,-286.75 576.78,-283.25 576.78,-290.25"/>
</a>
</g>
</g>
<!-- Node87 -->
<g id="Node000087" class="node">
<title>Node87</title>
<g id="a_Node000087"><a xlink:href="kest__preset_8c.html#a081f5bea4d9dff0740275c4608e75b80" target="_top" xlink:title=" ">
<polygon fill="#fff0f0" stroke="red" points="505,-245.12 422.25,-245.12 422.25,-224.38 505,-224.38 505,-245.12"/>
<text xml:space="preserve" text-anchor="middle" x="463.62" y="-231.62" font-family="Helvetica,sans-Serif" font-size="10.00">init_m_preset</text>
</a>
</g>
</g>
<!-- Node86&#45;&gt;Node87 -->
<g id="edge39_Node000086_Node000087" class="edge">
<title>Node86&#45;&gt;Node87</title>
<g id="a_edge39_Node000086_Node000087"><a xlink:title=" ">
<path fill="none" stroke="#63b8ff" d="M573.1,-234.75C550.31,-234.75 525.58,-234.75 505.5,-234.75"/>
<polygon fill="#63b8ff" stroke="#63b8ff" points="572.94,-238.25 582.94,-234.75 572.94,-231.25 572.94,-238.25"/>
</a>
</g>
</g>
<!-- Node91 -->
<g id="Node000091" class="node">
<title>Node91</title>
<g id="a_Node000091"><a xlink:href="kest__context_8c.html#a6d720cf39977b4ec726901ce8b972c0d" target="_top" xlink:title=" ">
<polygon fill="#fff0f0" stroke="red" points="522.62,-200.12 404.62,-200.12 404.62,-179.38 522.62,-179.38 522.62,-200.12"/>
<text xml:space="preserve" text-anchor="middle" x="463.62" y="-186.62" font-family="Helvetica,sans-Serif" font-size="10.00">cxt_save_all_presets</text>
</a>
</g>
</g>
<!-- Node90&#45;&gt;Node91 -->
<g id="edge41_Node000090_Node000091" class="edge">
<title>Node90&#45;&gt;Node91</title>
<g id="a_edge41_Node000090_Node000091"><a xlink:title=" ">
<path fill="none" stroke="#63b8ff" d="M579.67,-189.75C561.34,-189.75 541.26,-189.75 523.09,-189.75"/>
<polygon fill="#63b8ff" stroke="#63b8ff" points="579.62,-193.25 589.62,-189.75 579.62,-186.25 579.62,-193.25"/>
</a>
</g>
</g>
<!-- Node94&#45;&gt;Node95 -->
<g id="edge44_Node000094_Node000095" class="edge">
<title>Node94&#45;&gt;Node95</title>
<g id="a_edge44_Node000094_Node000095"><a xlink:title=" ">
<path fill="none" stroke="#63b8ff" d="M565.66,-91.66C546.57,-89.6 526.65,-87.45 509.59,-85.6"/>
<polygon fill="#63b8ff" stroke="#63b8ff" points="565.26,-95.13 575.58,-92.73 566.01,-88.17 565.26,-95.13"/>
</a>
</g>
</g>
<!-- Node102 -->
<g id="Node000102" class="node">
<title>Node102</title>
<g id="a_Node000102"><a xlink:href="kest__parameter__widget_8c.html#afd6c5489cb7579ee98a57340a3abcb80" target="_top" xlink:title=" ">
<polygon fill="white" stroke="#666666" points="714.12,-27.12 569.12,-27.12 569.12,-6.38 714.12,-6.38 714.12,-27.12"/>
<text xml:space="preserve" text-anchor="middle" x="641.62" y="-13.62" font-family="Helvetica,sans-Serif" font-size="10.00">setting_widget_change_cb</text>
</a>
</g>
</g>
<!-- Node101&#45;&gt;Node102 -->
<g id="edge47_Node000101_Node000102" class="edge">
<title>Node101&#45;&gt;Node102</title>
<g id="a_edge47_Node000101_Node000102"><a xlink:title=" ">
<path fill="none" stroke="#63b8ff" d="M746.04,-16.75C735.56,-16.75 724.81,-16.75 714.39,-16.75"/>
<polygon fill="#63b8ff" stroke="#63b8ff" points="745.76,-20.25 755.76,-16.75 745.76,-13.25 745.76,-20.25"/>
</a>
</g>
</g>
<!-- Node54 -->
<g id="Node000054" class="node">
<title>Node54</title>
<g id="a_Node000054"><a xlink:href="kest__parameter__widget_8c.html#a2074107eca4e8e2b3832c9f9f2e5f9f2" target="_top" xlink:title=" ">
<polygon fill="#fff0f0" stroke="red" points="532.75,-27.12 394.5,-27.12 394.5,-6.38 532.75,-6.38 532.75,-27.12"/>
<text xml:space="preserve" text-anchor="middle" x="463.62" y="-13.62" font-family="Helvetica,sans-Serif" font-size="10.00">setting_widget_create_ui</text>
</a>
</g>
</g>
<!-- Node102&#45;&gt;Node54 -->
<g id="edge48_Node000102_Node000054" class="edge">
<title>Node102&#45;&gt;Node54</title>
<g id="a_edge48_Node000102_Node000054"><a xlink:title=" ">
<path fill="none" stroke="#63b8ff" d="M557.37,-16.75C549.24,-16.75 541.06,-16.75 533.11,-16.75"/>
<polygon fill="#63b8ff" stroke="#63b8ff" points="557.27,-20.25 567.27,-16.75 557.27,-13.25 557.27,-20.25"/>
</a>
</g>
</g>
</g>
</svg>
