<?xml version="1.0" encoding="UTF-8" standalone="no"?>
<!DOCTYPE svg PUBLIC "-//W3C//DTD SVG 1.1//EN"
 "http://www.w3.org/Graphics/SVG/1.1/DTD/svg11.dtd">
<!-- Generated by graphviz version 13.1.2 (20250808.2320)
 -->
<!-- Title: kest_updater_generate_command_list Pages: 1 -->
<svg width="575pt" height="80pt"
 viewBox="0.00 0.00 575.00 80.00" xmlns="http://www.w3.org/2000/svg" xmlns:xlink="http://www.w3.org/1999/xlink">
<g id="graph0" class="graph" transform="scale(1 1) rotate(0) translate(4 76.12)">
<title>kest_updater_generate_command_list</title>
<!-- Node1 -->
<g id="Node000001" class="node">
<title>Node1</title>
<g id="a_Node000001"><a xlink:title=" ">
<polygon fill="#999999" stroke="#666666" points="566.5,-49.12 438.75,-49.12 438.75,-15.62 566.5,-15.62 566.5,-49.12"/>
<text xml:space="preserve" text-anchor="start" x="446.75" y="-35.62" font-family="Helvetica,sans-Serif" font-size="10.00">kest_updater_generate</text>
<text xml:space="preserve" text-anchor="middle" x="502.62" y="-22.88" font-family="Helvetica,sans-Serif" font-size="10.00">_command_list</text>
</a>
</g>
</g>
<!-- Node2 -->
<g id="Node000002" class="node">
<title>Node2</title>
<g id="a_Node000002"><a xlink:href="kest__update_8c.html#a4f1604e33014c73e389e8a28b96941e0" target="_top" xlink:title=" ">
<polygon fill="white" stroke="#666666" points="402.75,-72.12 258.5,-72.12 258.5,-38.62 402.75,-38.62 402.75,-72.12"/>
<text xml:space="preserve" text-anchor="start" x="266.5" y="-58.62" font-family="Helvetica,sans-Serif" font-size="10.00">kest_standalone_generate</text>
<text xml:space="preserve" text-anchor="middle" x="330.62" y="-45.88" font-family="Helvetica,sans-Serif" font-size="10.00">_program_batch</text>
</a>
</g>
</g>
<!-- Node1&#45;&gt;Node2 -->
<g id="edge1_Node000001_Node000002" class="edge">
<title>Node1&#45;&gt;Node2</title>
<g id="a_edge1_Node000001_Node000002"><a xlink:title=" ">
<path fill="none" stroke="#63b8ff" d="M427.11,-42.46C419.1,-43.54 410.96,-44.64 402.99,-45.72"/>
<polygon fill="#63b8ff" stroke="#63b8ff" points="427.38,-45.95 436.82,-41.14 426.44,-39.01 427.38,-45.95"/>
</a>
</g>
</g>
<!-- Node3 -->
<g id="Node000003" class="node">
<title>Node3</title>
<g id="a_Node000003"><a xlink:href="kest__update_8c.html#a5f1849c909f1dbde00900ad089f46d8f" target="_top" xlink:title=" ">
<polygon fill="white" stroke="#666666" points="381.38,-20.75 279.88,-20.75 279.88,0 381.38,0 381.38,-20.75"/>
<text xml:space="preserve" text-anchor="middle" x="330.62" y="-7.25" font-family="Helvetica,sans-Serif" font-size="10.00">kest_update_task</text>
</a>
</g>
</g>
<!-- Node1&#45;&gt;Node3 -->
<g id="edge2_Node000001_Node000003" class="edge">
<title>Node1&#45;&gt;Node3</title>
<g id="a_edge2_Node000001_Node000003"><a xlink:title=" ">
<path fill="none" stroke="#63b8ff" d="M427.23,-22.75C411.84,-20.76 395.98,-18.7 381.7,-16.86"/>
<polygon fill="#63b8ff" stroke="#63b8ff" points="426.46,-26.18 436.82,-23.99 427.35,-19.23 426.46,-26.18"/>
</a>
</g>
</g>
<!-- Node4 -->
<g id="Node000004" class="node">
<title>Node4</title>
<g id="a_Node000004"><a xlink:href="kest__update_8c.html#a144a1e0bedaf2dbf6788825228333e63" target="_top" xlink:title=" ">
<polygon fill="white" stroke="#666666" points="222.5,-20.75 93.25,-20.75 93.25,0 222.5,0 222.5,-20.75"/>
<text xml:space="preserve" text-anchor="middle" x="157.88" y="-7.25" font-family="Helvetica,sans-Serif" font-size="10.00">kest_update_task_start</text>
</a>
</g>
</g>
<!-- Node3&#45;&gt;Node4 -->
<g id="edge3_Node000003_Node000004" class="edge">
<title>Node3&#45;&gt;Node4</title>
<g id="a_edge3_Node000003_Node000004"><a xlink:title=" ">
<path fill="none" stroke="#63b8ff" d="M268.64,-10.38C253.76,-10.38 237.81,-10.38 222.79,-10.38"/>
<polygon fill="#63b8ff" stroke="#63b8ff" points="268.26,-13.88 278.26,-10.38 268.26,-6.88 268.26,-13.88"/>
</a>
</g>
</g>
<!-- Node5 -->
<g id="Node000005" class="node">
<title>Node5</title>
<g id="a_Node000005"><a xlink:href="kest__init_8c.html#ad1373cd24ac2876b2830d1ad2eb92721" target="_top" xlink:title=" ">
<polygon fill="#fff0f0" stroke="red" points="57.25,-20.75 0,-20.75 0,0 57.25,0 57.25,-20.75"/>
<text xml:space="preserve" text-anchor="middle" x="28.63" y="-7.25" font-family="Helvetica,sans-Serif" font-size="10.00">kest_init</text>
</a>
</g>
</g>
<!-- Node4&#45;&gt;Node5 -->
<g id="edge4_Node000004_Node000005" class="edge">
<title>Node4&#45;&gt;Node5</title>
<g id="a_edge4_Node000004_Node000005"><a xlink:title=" ">
<path fill="none" stroke="#63b8ff" d="M81.62,-10.38C73.14,-10.38 64.95,-10.38 57.67,-10.38"/>
<polygon fill="#63b8ff" stroke="#63b8ff" points="81.36,-13.88 91.36,-10.38 81.36,-6.88 81.36,-13.88"/>
</a>
</g>
</g>
</g>
</svg>
