<?xml version="1.0" encoding="UTF-8" standalone="no"?>
<!DOCTYPE svg PUBLIC "-//W3C//DTD SVG 1.1//EN"
 "http://www.w3.org/Graphics/SVG/1.1/DTD/svg11.dtd">
<!-- Generated by graphviz version 13.1.2 (20250808.2320)
 -->
<!-- Title: parameter_widget_change_cb Pages: 1 -->
<!--zoomable 167 -->

<svg id="main" version="1.1" xmlns="http://www.w3.org/2000/svg" xmlns:xlink="http://www.w3.org/1999/xlink" xml:space="preserve" onload="init(evt)">

<style type="text/css"><![CDATA[
.node, .edge {opacity: 0.7;}
.node.selected, .edge.selected {opacity: 1;}
.edge:hover path { stroke: red; }
.edge:hover polygon { stroke: red; fill: red; }
]]></style>

<defs>
  <circle id="rim" cx="0" cy="0" r="7"/>
  <circle id="rim2" cx="0" cy="0" r="3.5"/>
  <g id="zoomPlus">
    <use xlink:href="#rim" fill="#404040"><set attributeName="fill" to="#808080" begin="zoomplus.mouseover" end="zoomplus.mouseout"/></use>
    <path d="M-4,0h8M0,-4v8" fill="none" stroke="white" stroke-width="1.5" pointer-events="none"/>
  </g>
  <g id="zoomMin">
    <use xlink:href="#rim" fill="#404040"><set attributeName="fill" to="#808080" begin="zoomminus.mouseover" end="zoomminus.mouseout"/></use>
    <path d="M-4,0h8" fill="none" stroke="white" stroke-width="1.5" pointer-events="none"/>
  </g>
  <g id="arrowUp" transform="translate(30 24)">
    <use xlink:href="#rim"/>
    <path pointer-events="none" fill="none" stroke="white" stroke-width="1.5" d="M0,-3.0v7 M-2.5,-0.5L0,-3.0L2.5,-0.5"/>
  </g>
  <g id="arrowRight" transform="rotate(90) translate(36 -43)">
    <use xlink:href="#rim"/>
    <path pointer-events="none" fill="none" stroke="white" stroke-width="1.5" d="M0,-3.0v7 M-2.5,-0.5L0,-3.0L2.5,-0.5"/>
  </g>
  <g id="arrowDown" transform="rotate(180) translate(-30 -48)">
    <use xlink:href="#rim"/>
    <path pointer-events="none" fill="none" stroke="white" stroke-width="1.5" d="M0,-3.0v7 M-2.5,-0.5L0,-3.0L2.5,-0.5"/>
  </g>
  <g id="arrowLeft" transform="rotate(270) translate(-36 17)">
    <use xlink:href="#rim"/>
    <path pointer-events="none" fill="none" stroke="white" stroke-width="1.5" d="M0,-3.0v7 M-2.5,-0.5L0,-3.0L2.5,-0.5"/>
  </g>
  <g id="resetDef">
    <use xlink:href="#rim2" fill="#404040"><set attributeName="fill" to="#808080" begin="reset.mouseover" end="reset.mouseout"/></use>
  </g>
</defs>
<script type="application/ecmascript">
var viewWidth = 702;
var viewHeight = 167;
var sectionId = 'dynsection-19';
</script>
<script type="application/ecmascript" xlink:href="svg.min.js"/>
<svg id="graph" class="graph">
<g id="viewport">
<title>parameter_widget_change_cb</title>
<!-- Node1 -->
<g id="Node000001" class="node">
<title>Node1</title>
<g id="a_Node000001"><a xlink:title=" ">
<polygon fill="#999999" stroke="#666666" points="694,-94.12 531.75,-94.12 531.75,-73.38 694,-73.38 694,-94.12"/>
<text xml:space="preserve" text-anchor="middle" x="612.88" y="-80.62" font-family="Helvetica,sans-Serif" font-size="10.00">parameter_widget_change_cb</text>
</a>
</g>
</g>
<!-- Node2 -->
<g id="Node000002" class="node">
<title>Node2</title>
<g id="a_Node000002"><a xlink:href="kest__parameter__widget_8c.html#adbadb9573fa4f9b812f8d270c78053e4" target="_top" xlink:title=" ">
<polygon fill="white" stroke="#666666" points="495.75,-94.12 340.25,-94.12 340.25,-73.38 495.75,-73.38 495.75,-94.12"/>
<text xml:space="preserve" text-anchor="middle" x="418" y="-80.62" font-family="Helvetica,sans-Serif" font-size="10.00">parameter_widget_create_ui</text>
</a>
</g>
</g>
<!-- Node1&#45;&gt;Node2 -->
<g id="edge1_Node000001_Node000002" class="edge">
<title>Node1&#45;&gt;Node2</title>
<g id="a_edge1_Node000001_Node000002"><a xlink:title=" ">
<path fill="none" stroke="#63b8ff" d="M520.18,-83.75C512.15,-83.75 504.07,-83.75 496.18,-83.75"/>
<polygon fill="#63b8ff" stroke="#63b8ff" points="519.96,-87.25 529.96,-83.75 519.96,-80.25 519.96,-87.25"/>
</a>
</g>
</g>
<!-- Node3 -->
<g id="Node000003" class="node">
<title>Node3</title>
<g id="a_Node000003"><a xlink:href="kest__effect__settings_8c.html#ad39e071d5cf7cd7e4fc67d41f14d48e8" target="_top" xlink:title=" ">
<polygon fill="white" stroke="#666666" points="303.12,-123.5 178.38,-123.5 178.38,-90 303.12,-90 303.12,-123.5"/>
<text xml:space="preserve" text-anchor="start" x="186.38" y="-110" font-family="Helvetica,sans-Serif" font-size="10.00">create_effect_settings</text>
<text xml:space="preserve" text-anchor="middle" x="240.75" y="-97.25" font-family="Helvetica,sans-Serif" font-size="10.00">_page_ui</text>
</a>
</g>
</g>
<!-- Node2&#45;&gt;Node3 -->
<g id="edge2_Node000002_Node000003" class="edge">
<title>Node2&#45;&gt;Node3</title>
<g id="a_edge2_Node000002_Node000003"><a xlink:title=" ">
<path fill="none" stroke="#63b8ff" d="M328.66,-95.34C320.12,-96.46 311.58,-97.59 303.38,-98.66"/>
<polygon fill="#63b8ff" stroke="#63b8ff" points="328.92,-98.84 338.38,-94.07 328.01,-91.9 328.92,-98.84"/>
</a>
</g>
</g>
<!-- Node4 -->
<g id="Node000004" class="node">
<title>Node4</title>
<g id="a_Node000004"><a xlink:href="kest__effect__view_8c.html#a7d15ffb969bcf677cf4a1622e2666f8e" target="_top" xlink:title=" ">
<polygon fill="#fff0f0" stroke="red" points="132.25,-159.12 9,-159.12 9,-138.38 132.25,-138.38 132.25,-159.12"/>
<text xml:space="preserve" text-anchor="middle" x="70.62" y="-145.62" font-family="Helvetica,sans-Serif" font-size="10.00">create_effect_view_ui</text>
</a>
</g>
</g>
<!-- Node2&#45;&gt;Node4 -->
<g id="edge5_Node000002_Node000004" class="edge">
<title>Node2&#45;&gt;Node4</title>
<g id="a_edge5_Node000002_Node000004"><a xlink:title=" ">
<path fill="none" stroke="#63b8ff" d="M387.66,-99.82C365.45,-111.14 333.83,-125.53 304.25,-132.75 247.22,-146.66 180.17,-149.95 132.74,-150.18"/>
<polygon fill="#63b8ff" stroke="#63b8ff" points="389.17,-102.98 396.41,-95.25 385.93,-96.77 389.17,-102.98"/>
</a>
</g>
</g>
<!-- Node24 -->
<g id="Node000024" class="node">
<title>Node24</title>
<g id="a_Node000024"><a xlink:href="kest__menu_8c.html#ad08fcb7356b59af639c394da31d8f446" target="_top" xlink:title=" ">
<polygon fill="white" stroke="#666666" points="302.75,-72.12 178.75,-72.12 178.75,-51.38 302.75,-51.38 302.75,-72.12"/>
<text xml:space="preserve" text-anchor="middle" x="240.75" y="-58.62" font-family="Helvetica,sans-Serif" font-size="10.00">create_main_menu_ui</text>
</a>
</g>
</g>
<!-- Node2&#45;&gt;Node24 -->
<g id="edge6_Node000002_Node000024" class="edge">
<title>Node2&#45;&gt;Node24</title>
<g id="a_edge6_Node000002_Node000024"><a xlink:title=" ">
<path fill="none" stroke="#63b8ff" d="M328.58,-72.65C319.97,-71.57 311.37,-70.49 303.11,-69.45"/>
<polygon fill="#63b8ff" stroke="#63b8ff" points="328.02,-76.11 338.38,-73.88 328.89,-69.16 328.02,-76.11"/>
</a>
</g>
</g>
<!-- Node27 -->
<g id="Node000027" class="node">
<title>Node27</title>
<g id="a_Node000027"><a xlink:href="kest__preset__settings_8c.html#ae0550a5a2930cfad9c5b98db4e4a85d1" target="_top" xlink:title=" ">
<polygon fill="white" stroke="#666666" points="304.25,-33.5 177.25,-33.5 177.25,0 304.25,0 304.25,-33.5"/>
<text xml:space="preserve" text-anchor="start" x="185.25" y="-20" font-family="Helvetica,sans-Serif" font-size="10.00">create_preset_settings</text>
<text xml:space="preserve" text-anchor="middle" x="240.75" y="-7.25" font-family="Helvetica,sans-Serif" font-size="10.00">_page_ui</text>
</a>
</g>
</g>
<!-- Node2&#45;&gt;Node27 -->
<g id="edge8_Node000002_Node000027" class="edge">
<title>Node2&#45;&gt;Node27</title>
<g id="a_edge8_Node000002_Node000027"><a xlink:title=" ">
<path fill="none" stroke="#63b8ff" d="M378.22,-68.92C351.14,-58.57 314.91,-44.72 286.59,-33.89"/>
<polygon fill="#63b8ff" stroke="#63b8ff" points="376.84,-72.14 387.43,-72.44 379.34,-65.6 376.84,-72.14"/>
</a>
</g>
</g>
<!-- Node3&#45;&gt;Node4 -->
<g id="edge3_Node000003_Node000004" class="edge">
<title>Node3&#45;&gt;Node4</title>
<g id="a_edge3_Node000003_Node000004"><a xlink:title=" ">
<path fill="none" stroke="#63b8ff" d="M167.18,-124.88C149.44,-129.31 131.01,-133.91 115.12,-137.88"/>
<polygon fill="#63b8ff" stroke="#63b8ff" points="167.78,-128.34 176.63,-122.52 166.08,-121.55 167.78,-128.34"/>
</a>
</g>
</g>
<!-- Node23 -->
<g id="Node000023" class="node">
<title>Node23</title>
<g id="a_Node000023"><a xlink:href="kest__effect__settings_8c.html#ab8bf2accabc08beecb97a54915abc488" target="_top" xlink:title=" ">
<polygon fill="#fff0f0" stroke="red" points="140.12,-117.12 1.12,-117.12 1.12,-96.38 140.12,-96.38 140.12,-117.12"/>
<text xml:space="preserve" text-anchor="middle" x="70.62" y="-103.62" font-family="Helvetica,sans-Serif" font-size="10.00">init_effect_settings_page</text>
</a>
</g>
</g>
<!-- Node3&#45;&gt;Node23 -->
<g id="edge4_Node000003_Node000023" class="edge">
<title>Node3&#45;&gt;Node23</title>
<g id="a_edge4_Node000003_Node000023"><a xlink:title=" ">
<path fill="none" stroke="#63b8ff" d="M166.72,-106.75C157.97,-106.75 149.05,-106.75 140.36,-106.75"/>
<polygon fill="#63b8ff" stroke="#63b8ff" points="166.59,-110.25 176.59,-106.75 166.59,-103.25 166.59,-110.25"/>
</a>
</g>
</g>
<!-- Node25 -->
<g id="Node000025" class="node">
<title>Node25</title>
<g id="a_Node000025"><a xlink:href="kest__menu_8c.html#a6aa16fb3d12f098f021ae677605e683e" target="_top" xlink:title=" ">
<polygon fill="#fff0f0" stroke="red" points="118,-72.12 23.25,-72.12 23.25,-51.38 118,-51.38 118,-72.12"/>
<text xml:space="preserve" text-anchor="middle" x="70.62" y="-58.62" font-family="Helvetica,sans-Serif" font-size="10.00">init_main_menu</text>
</a>
</g>
</g>
<!-- Node24&#45;&gt;Node25 -->
<g id="edge7_Node000024_Node000025" class="edge">
<title>Node24&#45;&gt;Node25</title>
<g id="a_edge7_Node000024_Node000025"><a xlink:title=" ">
<path fill="none" stroke="#63b8ff" d="M167.22,-61.75C150.62,-61.75 133.42,-61.75 118.25,-61.75"/>
<polygon fill="#63b8ff" stroke="#63b8ff" points="167.06,-65.25 177.06,-61.75 167.06,-58.25 167.06,-65.25"/>
</a>
</g>
</g>
<!-- Node28 -->
<g id="Node000028" class="node">
<title>Node28</title>
<g id="a_Node000028"><a xlink:href="kest__preset__settings_8c.html#af8a7e7dad2d6e91426bed7a0ec9f4cd4" target="_top" xlink:title=" ">
<polygon fill="#fff0f0" stroke="red" points="141.25,-27.12 0,-27.12 0,-6.38 141.25,-6.38 141.25,-27.12"/>
<text xml:space="preserve" text-anchor="middle" x="70.62" y="-13.62" font-family="Helvetica,sans-Serif" font-size="10.00">init_preset_settings_page</text>
</a>
</g>
</g>
<!-- Node27&#45;&gt;Node28 -->
<g id="edge9_Node000027_Node000028" class="edge">
<title>Node27&#45;&gt;Node28</title>
<g id="a_edge9_Node000027_Node000028"><a xlink:title=" ">
<path fill="none" stroke="#63b8ff" d="M165.87,-16.75C157.82,-16.75 149.64,-16.75 141.63,-16.75"/>
<polygon fill="#63b8ff" stroke="#63b8ff" points="165.63,-20.25 175.63,-16.75 165.63,-13.25 165.63,-20.25"/>
</a>
</g>
</g>
</g>
</svg>

<g id="navigator" transform="translate(0 0)" fill="#404254">
  <rect fill="#f2f5e9" fill-opacity="0.5" stroke="#606060" stroke-width=".5" x="0" y="0" width="60" height="60"/>
  <use id="zoomplus" xlink:href="#zoomPlus" x="17" y="9" onmousedown="handleZoom(evt,'in')"/>
  <use id="zoomminus" xlink:href="#zoomMin" x="42" y="9" onmousedown="handleZoom(evt,'out')"/>
  <use id="reset" xlink:href="#resetDef" x="30" y="36" onmousedown="handleReset()"/>
   <use id="arrowup" xlink:href="#arrowUp" x="0" y="0" onmousedown="handlePan(0,-1)"/>
  <use id="arrowright" xlink:href="#arrowRight" x="0" y="0" onmousedown="handlePan(1,0)"/>
  <use id="arrowdown" xlink:href="#arrowDown" x="0" y="0" onmousedown="handlePan(0,1)"/>
  <use id="arrowleft" xlink:href="#arrowLeft" x="0" y="0" onmousedown="handlePan(-1,0)"/>
</g>
<svg viewBox="0 0 15 15" width="100%" height="30px" preserveAspectRatio="xMaxYMin meet">
 <g id="arrow_out" transform="scale(0.3 0.3)">
  <a xlink:href="kest__parameter__widget_8c_aacedf3a01b62f8fba28c7521a2b64735_icgraph_org.svg" target="_base">
   <rect id="button" ry="5" rx="5" y="6" x="6" height="38" width="38"
        fill="#f2f5e9" fill-opacity="0.5" stroke="#606060" stroke-width="1.0"/>
   <path id="arrow"
     d="M 11.500037,31.436501 C 11.940474,20.09759 22.043105,11.32322 32.158766,21.979434 L 37.068811,17.246167 C 37.068811,17.246167 37.088388,32 37.088388,32 L 22.160133,31.978069 C 22.160133,31.978069 26.997745,27.140456 26.997745,27.140456 C 18.528582,18.264221 13.291696,25.230495 11.500037,31.436501 z"
     style="fill:#404040;"/>
  </a>
 </g>
</svg>

<style type='text/css'>
<![CDATA[
[data-mouse-over-selected='false'] { opacity: 0.7; }
[data-mouse-over-selected='true']  { opacity: 1.0; }
]]>
</style>
<script type="application/ecmascript"><![CDATA[
document.addEventListener('DOMContentLoaded', (event) => {
  highlightEdges();
  highlightAdjacentNodes();
});
]]></script>
</svg>
