<?xml version="1.0" encoding="UTF-8" standalone="no"?>
<!DOCTYPE svg PUBLIC "-//W3C//DTD SVG 1.1//EN"
 "http://www.w3.org/Graphics/SVG/1.1/DTD/svg11.dtd">
<!-- Generated by graphviz version 13.1.2 (20250808.2320)
 -->
<!-- Title: create_main_menu_ui Pages: 1 -->
<svg width="519pt" height="29pt"
 viewBox="0.00 0.00 519.00 29.00" xmlns="http://www.w3.org/2000/svg" xmlns:xlink="http://www.w3.org/1999/xlink">
<g id="graph0" class="graph" transform="scale(1 1) rotate(0) translate(4 24.75)">
<title>create_main_menu_ui</title>
<!-- Node1 -->
<g id="Node000001" class="node">
<title>Node1</title>
<g id="a_Node000001"><a xlink:title=" ">
<polygon fill="#999999" stroke="#666666" points="511,-20.75 387,-20.75 387,0 511,0 511,-20.75"/>
<text xml:space="preserve" text-anchor="middle" x="449" y="-7.25" font-family="Helvetica,sans-Serif" font-size="10.00">create_main_menu_ui</text>
</a>
</g>
</g>
<!-- Node2 -->
<g id="Node000002" class="node">
<title>Node2</title>
<g id="a_Node000002"><a xlink:href="kest__menu_8c.html#a6aa16fb3d12f098f021ae677605e683e" target="_top" xlink:title=" ">
<polygon fill="white" stroke="#666666" points="351,-20.75 256.25,-20.75 256.25,0 351,0 351,-20.75"/>
<text xml:space="preserve" text-anchor="middle" x="303.62" y="-7.25" font-family="Helvetica,sans-Serif" font-size="10.00">init_main_menu</text>
</a>
</g>
</g>
<!-- Node1&#45;&gt;Node2 -->
<g id="edge1_Node000001_Node000002" class="edge">
<title>Node1&#45;&gt;Node2</title>
<g id="a_edge1_Node000001_Node000002"><a xlink:title=" ">
<path fill="none" stroke="#63b8ff" d="M375.29,-10.38C367.15,-10.38 359.02,-10.38 351.33,-10.38"/>
<polygon fill="#63b8ff" stroke="#63b8ff" points="375.27,-13.88 385.27,-10.38 375.27,-6.88 375.27,-13.88"/>
</a>
</g>
</g>
<!-- Node3 -->
<g id="Node000003" class="node">
<title>Node3</title>
<g id="a_Node000003"><a xlink:href="kest__ui_8c.html#ab1be7d2981c922ebe8d714f9af0f600d" target="_top" xlink:title=" ">
<polygon fill="white" stroke="#666666" points="220.25,-20.75 93.25,-20.75 93.25,0 220.25,0 220.25,-20.75"/>
<text xml:space="preserve" text-anchor="middle" x="156.75" y="-7.25" font-family="Helvetica,sans-Serif" font-size="10.00">kest_init_global_pages</text>
</a>
</g>
</g>
<!-- Node2&#45;&gt;Node3 -->
<g id="edge2_Node000002_Node000003" class="edge">
<title>Node2&#45;&gt;Node3</title>
<g id="a_edge2_Node000002_Node000003"><a xlink:title=" ">
<path fill="none" stroke="#63b8ff" d="M244.65,-10.38C236.77,-10.38 228.64,-10.38 220.68,-10.38"/>
<polygon fill="#63b8ff" stroke="#63b8ff" points="244.47,-13.88 254.47,-10.38 244.47,-6.88 244.47,-13.88"/>
</a>
</g>
</g>
<!-- Node4 -->
<g id="Node000004" class="node">
<title>Node4</title>
<g id="a_Node000004"><a xlink:href="kest__init_8c.html#ad1373cd24ac2876b2830d1ad2eb92721" target="_top" xlink:title=" ">
<polygon fill="#fff0f0" stroke="red" points="57.25,-20.75 0,-20.75 0,0 57.25,0 57.25,-20.75"/>
<text xml:space="preserve" text-anchor="middle" x="28.63" y="-7.25" font-family="Helvetica,sans-Serif" font-size="10.00">kest_init</text>
</a>
</g>
</g>
<!-- Node3&#45;&gt;Node4 -->
<g id="edge3_Node000003_Node000004" class="edge">
<title>Node3&#45;&gt;Node4</title>
<g id="a_edge3_Node000003_Node000004"><a xlink:title=" ">
<path fill="none" stroke="#63b8ff" d="M81.69,-10.38C73.13,-10.38 64.84,-10.38 57.49,-10.38"/>
<polygon fill="#63b8ff" stroke="#63b8ff" points="81.54,-13.88 91.54,-10.38 81.54,-6.88 81.54,-13.88"/>
</a>
</g>
</g>
</g>
</svg>
