<?xml version="1.0" encoding="UTF-8" standalone="no"?>
<!DOCTYPE svg PUBLIC "-//W3C//DTD SVG 1.1//EN"
 "http://www.w3.org/Graphics/SVG/1.1/DTD/svg11.dtd">
<!-- Generated by graphviz version 13.1.2 (20250808.2320)
 -->
<!-- Title: get_and_sprint_flags Pages: 1 -->
<svg width="629pt" height="209pt"
 viewBox="0.00 0.00 629.00 209.00" xmlns="http://www.w3.org/2000/svg" xmlns:xlink="http://www.w3.org/1999/xlink">
<g id="graph0" class="graph" transform="scale(1 1) rotate(0) translate(4 205.12)">
<title>get_and_sprint_flags</title>
<!-- Node1 -->
<g id="Node000001" class="node">
<title>Node1</title>
<g id="a_Node000001"><a xlink:title=" ">
<polygon fill="#999999" stroke="#666666" points="117.25,-81.75 0,-81.75 0,-61 117.25,-61 117.25,-81.75"/>
<text xml:space="preserve" text-anchor="middle" x="58.62" y="-68.25" font-family="Helvetica,sans-Serif" font-size="10.00">get_and_sprint_flags</text>
</a>
</g>
</g>
<!-- Node2 -->
<g id="Node000002" class="node">
<title>Node2</title>
<g id="a_Node000002"><a xlink:href="kest__fpga__io_8c.html#abe57698adf89b8e9d87f4beca9077c9a" target="_top" xlink:title=" ">
<polygon fill="white" stroke="#666666" points="276.88,-163.12 157.38,-163.12 157.38,-129.62 276.88,-129.62 276.88,-163.12"/>
<text xml:space="preserve" text-anchor="start" x="165.38" y="-149.62" font-family="Helvetica,sans-Serif" font-size="10.00">kest_fpga_get_status</text>
<text xml:space="preserve" text-anchor="middle" x="217.12" y="-136.88" font-family="Helvetica,sans-Serif" font-size="10.00">_flags</text>
</a>
</g>
</g>
<!-- Node1&#45;&gt;Node2 -->
<g id="edge1_Node000001_Node000002" class="edge">
<title>Node1&#45;&gt;Node2</title>
<g id="a_edge1_Node000001_Node000002"><a xlink:title=" ">
<path fill="none" stroke="#63b8ff" d="M79.09,-82.22C97.85,-92.51 127.16,-108.18 153.25,-120.38 156.36,-121.83 159.57,-123.29 162.83,-124.73"/>
<polygon fill="#63b8ff" stroke="#63b8ff" points="161.33,-127.89 171.9,-128.66 164.11,-121.47 161.33,-127.89"/>
</a>
</g>
</g>
<!-- Node6 -->
<g id="Node000006" class="node">
<title>Node6</title>
<g id="a_Node000006"><a xlink:href="kest__fpga__io_8c.html#a3d92c05c5bb464da9e6f27d0a4924a7e" target="_top" xlink:title=" ">
<polygon fill="white" stroke="#666666" points="281,-111.12 153.25,-111.12 153.25,-77.62 281,-77.62 281,-111.12"/>
<text xml:space="preserve" text-anchor="start" x="161.25" y="-97.62" font-family="Helvetica,sans-Serif" font-size="10.00">kest_fpga_status_flags</text>
<text xml:space="preserve" text-anchor="middle" x="217.12" y="-84.88" font-family="Helvetica,sans-Serif" font-size="10.00">_sprint</text>
</a>
</g>
</g>
<!-- Node1&#45;&gt;Node6 -->
<g id="edge5_Node000001_Node000006" class="edge">
<title>Node1&#45;&gt;Node6</title>
<g id="a_edge5_Node000001_Node000006"><a xlink:title=" ">
<path fill="none" stroke="#63b8ff" d="M117.46,-79.87C125.42,-81.04 133.68,-82.26 141.89,-83.46"/>
<polygon fill="#63b8ff" stroke="#63b8ff" points="141.11,-86.89 151.51,-84.88 142.12,-79.96 141.11,-86.89"/>
</a>
</g>
</g>
<!-- Node9 -->
<g id="Node000009" class="node">
<title>Node9</title>
<g id="a_Node000009"><a xlink:href="kest__printf_8c.html#a258f845ff2725772e9a7b5b0a5efd522" target="_top" xlink:title=" ">
<polygon fill="white" stroke="#666666" points="248.38,-59.75 185.88,-59.75 185.88,-39 248.38,-39 248.38,-59.75"/>
<text xml:space="preserve" text-anchor="middle" x="217.12" y="-46.25" font-family="Helvetica,sans-Serif" font-size="10.00">kest_puts</text>
</a>
</g>
</g>
<!-- Node1&#45;&gt;Node9 -->
<g id="edge8_Node000001_Node000009" class="edge">
<title>Node1&#45;&gt;Node9</title>
<g id="a_edge8_Node000001_Node000009"><a xlink:title=" ">
<path fill="none" stroke="#63b8ff" d="M117.46,-63.25C136.45,-60.57 157.18,-57.66 174.71,-55.2"/>
<polygon fill="#63b8ff" stroke="#63b8ff" points="174.81,-58.72 184.22,-53.86 173.83,-51.79 174.81,-58.72"/>
</a>
</g>
</g>
<!-- Node10 -->
<g id="Node000010" class="node">
<title>Node10</title>
<g id="a_Node000010"><a xlink:href="kest__string_8c.html#afa021a4021225530db818f590a416606" target="_top" xlink:title=" ">
<polygon fill="white" stroke="#666666" points="266.75,-20.75 167.5,-20.75 167.5,0 266.75,0 266.75,-20.75"/>
<text xml:space="preserve" text-anchor="middle" x="217.12" y="-7.25" font-family="Helvetica,sans-Serif" font-size="10.00">kest_string_drain</text>
</a>
</g>
</g>
<!-- Node1&#45;&gt;Node10 -->
<g id="edge9_Node000001_Node000010" class="edge">
<title>Node1&#45;&gt;Node10</title>
<g id="a_edge9_Node000001_Node000010"><a xlink:title=" ">
<path fill="none" stroke="#63b8ff" d="M82.43,-60.59C101.22,-51.89 128.67,-39.64 153.25,-30.38 158.34,-28.46 163.71,-26.56 169.07,-24.75"/>
<polygon fill="#63b8ff" stroke="#63b8ff" points="170.15,-28.08 178.55,-21.63 167.96,-21.43 170.15,-28.08"/>
</a>
</g>
</g>
<!-- Node3 -->
<g id="Node000003" class="node">
<title>Node3</title>
<g id="a_Node000003"><a xlink:href="kest__fpga__io_8c.html#a688987fc53c1295119933650d3a19776" target="_top" xlink:title=" ">
<polygon fill="white" stroke="#666666" points="456,-201.12 317,-201.12 317,-167.62 456,-167.62 456,-201.12"/>
<text xml:space="preserve" text-anchor="start" x="325" y="-187.62" font-family="Helvetica,sans-Serif" font-size="10.00">kest_fpga_decode_status</text>
<text xml:space="preserve" text-anchor="middle" x="386.5" y="-174.88" font-family="Helvetica,sans-Serif" font-size="10.00">_flags</text>
</a>
</g>
</g>
<!-- Node2&#45;&gt;Node3 -->
<g id="edge2_Node000002_Node000003" class="edge">
<title>Node2&#45;&gt;Node3</title>
<g id="a_edge2_Node000002_Node000003"><a xlink:title=" ">
<path fill="none" stroke="#63b8ff" d="M277.14,-159.77C286.34,-161.86 295.97,-164.05 305.54,-166.22"/>
<polygon fill="#63b8ff" stroke="#63b8ff" points="304.72,-169.62 315.24,-168.42 306.27,-162.8 304.72,-169.62"/>
</a>
</g>
</g>
<!-- Node4 -->
<g id="Node000004" class="node">
<title>Node4</title>
<g id="a_Node000004"><a xlink:href="kest__fpga__io_8c.html#ab908dedc52b0ca9107f52f74ab7860c6" target="_top" xlink:title=" ">
<polygon fill="white" stroke="#666666" points="445.12,-149.75 327.88,-149.75 327.88,-129 445.12,-129 445.12,-149.75"/>
<text xml:space="preserve" text-anchor="middle" x="386.5" y="-136.25" font-family="Helvetica,sans-Serif" font-size="10.00">kest_fpga_read_byte</text>
</a>
</g>
</g>
<!-- Node2&#45;&gt;Node4 -->
<g id="edge3_Node000002_Node000004" class="edge">
<title>Node2&#45;&gt;Node4</title>
<g id="a_edge3_Node000002_Node000004"><a xlink:title=" ">
<path fill="none" stroke="#63b8ff" d="M277.14,-143.91C289.8,-143.38 303.3,-142.81 316.31,-142.27"/>
<polygon fill="#63b8ff" stroke="#63b8ff" points="316.23,-145.78 326.07,-141.86 315.94,-138.78 316.23,-145.78"/>
</a>
</g>
</g>
<!-- Node5 -->
<g id="Node000005" class="node">
<title>Node5</title>
<g id="a_Node000005"><a xlink:href="kest__fpga__io_8c.html#a2fe46577ece371a5fc9834bc59390913" target="_top" xlink:title=" ">
<polygon fill="white" stroke="#666666" points="600.25,-149.75 512.25,-149.75 512.25,-129 600.25,-129 600.25,-149.75"/>
<text xml:space="preserve" text-anchor="middle" x="556.25" y="-136.25" font-family="Helvetica,sans-Serif" font-size="10.00">kest_fpga_txrx</text>
</a>
</g>
</g>
<!-- Node4&#45;&gt;Node5 -->
<g id="edge4_Node000004_Node000005" class="edge">
<title>Node4&#45;&gt;Node5</title>
<g id="a_edge4_Node000004_Node000005"><a xlink:title=" ">
<path fill="none" stroke="#63b8ff" d="M445.23,-139.38C463.19,-139.38 482.92,-139.38 500.66,-139.38"/>
<polygon fill="#63b8ff" stroke="#63b8ff" points="500.48,-142.88 510.48,-139.38 500.48,-135.88 500.48,-142.88"/>
</a>
</g>
</g>
<!-- Node7 -->
<g id="Node000007" class="node">
<title>Node7</title>
<g id="a_Node000007"><a xlink:href="kest__string_8c.html#a5e8184b1f070fc74a7d1d2f08c4d9658" target="_top" xlink:title=" ">
<polygon fill="white" stroke="#666666" points="443.62,-104.75 329.38,-104.75 329.38,-84 443.62,-84 443.62,-104.75"/>
<text xml:space="preserve" text-anchor="middle" x="386.5" y="-91.25" font-family="Helvetica,sans-Serif" font-size="10.00">kest_string_appendf</text>
</a>
</g>
</g>
<!-- Node6&#45;&gt;Node7 -->
<g id="edge6_Node000006_Node000007" class="edge">
<title>Node6&#45;&gt;Node7</title>
<g id="a_edge6_Node000006_Node000007"><a xlink:title=" ">
<path fill="none" stroke="#63b8ff" d="M281.4,-94.38C293.26,-94.38 305.7,-94.38 317.68,-94.38"/>
<polygon fill="#63b8ff" stroke="#63b8ff" points="317.49,-97.88 327.49,-94.38 317.49,-90.88 317.49,-97.88"/>
</a>
</g>
</g>
<!-- Node8 -->
<g id="Node000008" class="node">
<title>Node8</title>
<g id="a_Node000008"><a xlink:href="kest__string_8c.html#ab38fd4531ec8be3f9c32f467f6808951" target="_top" xlink:title=" ">
<polygon fill="white" stroke="#666666" points="620.5,-104.75 492,-104.75 492,-84 620.5,-84 620.5,-104.75"/>
<text xml:space="preserve" text-anchor="middle" x="556.25" y="-91.25" font-family="Helvetica,sans-Serif" font-size="10.00">kest_string_append_str</text>
</a>
</g>
</g>
<!-- Node7&#45;&gt;Node8 -->
<g id="edge7_Node000007_Node000008" class="edge">
<title>Node7&#45;&gt;Node8</title>
<g id="a_edge7_Node000007_Node000008"><a xlink:title=" ">
<path fill="none" stroke="#63b8ff" d="M443.82,-94.38C455.56,-94.38 468.1,-94.38 480.38,-94.38"/>
<polygon fill="#63b8ff" stroke="#63b8ff" points="480.04,-97.88 490.04,-94.38 480.04,-90.88 480.04,-97.88"/>
</a>
</g>
</g>
</g>
</svg>
