<?xml version="1.0" encoding="UTF-8" standalone="no"?>
<!DOCTYPE svg PUBLIC "-//W3C//DTD SVG 1.1//EN"
 "http://www.w3.org/Graphics/SVG/1.1/DTD/svg11.dtd">
<!-- Generated by graphviz version 13.1.2 (20250808.2320)
 -->
<!-- Title: kest_fpga_batch_append_resource_list Pages: 1 -->
<svg width="852pt" height="233pt"
 viewBox="0.00 0.00 852.00 233.00" xmlns="http://www.w3.org/2000/svg" xmlns:xlink="http://www.w3.org/1999/xlink">
<g id="graph0" class="graph" transform="scale(1 1) rotate(0) translate(4 229.12)">
<title>kest_fpga_batch_append_resource_list</title>
<!-- Node1 -->
<g id="Node000001" class="node">
<title>Node1</title>
<g id="a_Node000001"><a xlink:title=" ">
<polygon fill="#999999" stroke="#666666" points="136.75,-123.12 0,-123.12 0,-89.62 136.75,-89.62 136.75,-123.12"/>
<text xml:space="preserve" text-anchor="start" x="8" y="-109.62" font-family="Helvetica,sans-Serif" font-size="10.00">kest_fpga_batch_append</text>
<text xml:space="preserve" text-anchor="middle" x="68.38" y="-96.88" font-family="Helvetica,sans-Serif" font-size="10.00">_resource_list</text>
</a>
</g>
</g>
<!-- Node2 -->
<g id="Node000002" class="node">
<title>Node2</title>
<g id="a_Node000002"><a xlink:href="kest__fpga__encoding_8c.html#aa82f7b9cb7a332e38a8a810376eea489" target="_top" xlink:title=" ">
<polygon fill="white" stroke="#666666" points="309.5,-123.12 172.75,-123.12 172.75,-89.62 309.5,-89.62 309.5,-123.12"/>
<text xml:space="preserve" text-anchor="start" x="180.75" y="-109.62" font-family="Helvetica,sans-Serif" font-size="10.00">kest_fpga_batch_append</text>
<text xml:space="preserve" text-anchor="middle" x="241.12" y="-96.88" font-family="Helvetica,sans-Serif" font-size="10.00">_resource</text>
</a>
</g>
</g>
<!-- Node1&#45;&gt;Node2 -->
<g id="edge1_Node000001_Node000002" class="edge">
<title>Node1&#45;&gt;Node2</title>
<g id="a_edge1_Node000001_Node000002"><a xlink:title=" ">
<path fill="none" stroke="#63b8ff" d="M136.86,-106.38C144.78,-106.38 152.91,-106.38 160.98,-106.38"/>
<polygon fill="#63b8ff" stroke="#63b8ff" points="160.78,-109.88 170.78,-106.38 160.78,-102.88 160.78,-109.88"/>
</a>
</g>
</g>
<!-- Node3 -->
<g id="Node000003" class="node">
<title>Node3</title>
<g id="a_Node000003"><a xlink:href="kest__fixed__point_8c.html#ab60dcd5f367e44e5fa94179f5b7bc4d6" target="_top" xlink:title=" ">
<polygon fill="white" stroke="#666666" points="478.5,-225.12 366.5,-225.12 366.5,-191.62 478.5,-191.62 478.5,-225.12"/>
<text xml:space="preserve" text-anchor="start" x="374.5" y="-211.62" font-family="Helvetica,sans-Serif" font-size="10.00">float_to_q_nminus1</text>
<text xml:space="preserve" text-anchor="middle" x="422.5" y="-198.88" font-family="Helvetica,sans-Serif" font-size="10.00">_filter_width</text>
</a>
</g>
</g>
<!-- Node2&#45;&gt;Node3 -->
<g id="edge2_Node000002_Node000003" class="edge">
<title>Node2&#45;&gt;Node3</title>
<g id="a_edge2_Node000002_Node000003"><a xlink:title=" ">
<path fill="none" stroke="#63b8ff" d="M261.51,-123.45C281.43,-140.3 313.92,-165.86 345.5,-182.38 348.77,-184.09 352.19,-185.72 355.67,-187.28"/>
<polygon fill="#63b8ff" stroke="#63b8ff" points="354.31,-190.5 364.88,-191.13 357.01,-184.05 354.31,-190.5"/>
</a>
</g>
</g>
<!-- Node4 -->
<g id="Node000004" class="node">
<title>Node4</title>
<g id="a_Node000004"><a xlink:href="kest__expression_8c.html#a8df028c238f29a5c5e59bcff98e28157" target="_top" xlink:title=" ">
<polygon fill="white" stroke="#666666" points="493.88,-173.75 351.12,-173.75 351.12,-153 493.88,-153 493.88,-173.75"/>
<text xml:space="preserve" text-anchor="middle" x="422.5" y="-160.25" font-family="Helvetica,sans-Serif" font-size="10.00">kest_expression_evaluate</text>
</a>
</g>
</g>
<!-- Node2&#45;&gt;Node4 -->
<g id="edge3_Node000002_Node000004" class="edge">
<title>Node2&#45;&gt;Node4</title>
<g id="a_edge3_Node000002_Node000004"><a xlink:title=" ">
<path fill="none" stroke="#63b8ff" d="M296.04,-123.62C311.96,-128.7 329.43,-134.27 345.5,-139.38 355.48,-142.54 366.19,-145.93 376.34,-149.14"/>
<polygon fill="#63b8ff" stroke="#63b8ff" points="375.03,-152.4 385.62,-152.07 377.14,-145.72 375.03,-152.4"/>
</a>
</g>
</g>
<!-- Node7 -->
<g id="Node000007" class="node">
<title>Node7</title>
<g id="a_Node000007"><a xlink:href="kest__expression_8c.html#aadf2a6a074cb1ad7b45893704cbd71c3" target="_top" xlink:title=" ">
<polygon fill="#fff0f0" stroke="red" points="844.25,-155.12 734.5,-155.12 734.5,-121.62 844.25,-121.62 844.25,-155.12"/>
<text xml:space="preserve" text-anchor="start" x="742.5" y="-141.62" font-family="Helvetica,sans-Serif" font-size="10.00">kest_expression_to</text>
<text xml:space="preserve" text-anchor="middle" x="789.38" y="-128.88" font-family="Helvetica,sans-Serif" font-size="10.00">_string</text>
</a>
</g>
</g>
<!-- Node2&#45;&gt;Node7 -->
<g id="edge7_Node000002_Node000007" class="edge">
<title>Node2&#45;&gt;Node7</title>
<g id="a_edge7_Node000002_Node000007"><a xlink:title=" ">
<path fill="none" stroke="#63b8ff" d="M309.93,-110.35C415.68,-116.54 618.57,-128.43 722.88,-134.54"/>
<polygon fill="#63b8ff" stroke="#63b8ff" points="722.49,-138.02 732.68,-135.11 722.9,-131.03 722.49,-138.02"/>
</a>
</g>
</g>
<!-- Node22 -->
<g id="Node000022" class="node">
<title>Node22</title>
<g id="a_Node000022"><a xlink:href="kest__fpga__io_8c.html#a6900c9b759f1dccf1b3535cc76ad83e3" target="_top" xlink:title=" ">
<polygon fill="white" stroke="#666666" points="685.38,-97.75 548.62,-97.75 548.62,-77 685.38,-77 685.38,-97.75"/>
<text xml:space="preserve" text-anchor="middle" x="617" y="-84.25" font-family="Helvetica,sans-Serif" font-size="10.00">kest_fpga_batch_append</text>
</a>
</g>
</g>
<!-- Node2&#45;&gt;Node22 -->
<g id="edge8_Node000002_Node000022" class="edge">
<title>Node2&#45;&gt;Node22</title>
<g id="a_edge8_Node000002_Node000022"><a xlink:title=" ">
<path fill="none" stroke="#63b8ff" d="M309.83,-102.93C373.69,-99.69 469.39,-94.83 536.77,-91.4"/>
<polygon fill="#63b8ff" stroke="#63b8ff" points="536.85,-94.9 546.66,-90.9 536.49,-87.91 536.85,-94.9"/>
</a>
</g>
</g>
<!-- Node26 -->
<g id="Node000026" class="node">
<title>Node26</title>
<g id="a_Node000026"><a xlink:href="kest__fpga__io_8c.html#a1d6d30e20ceac79973b36fd12e790aa5" target="_top" xlink:title=" ">
<polygon fill="white" stroke="#666666" points="499.5,-59.75 345.5,-59.75 345.5,-39 499.5,-39 499.5,-59.75"/>
<text xml:space="preserve" text-anchor="middle" x="422.5" y="-46.25" font-family="Helvetica,sans-Serif" font-size="10.00">kest_fpga_batch_append_16</text>
</a>
</g>
</g>
<!-- Node2&#45;&gt;Node26 -->
<g id="edge10_Node000002_Node000026" class="edge">
<title>Node2&#45;&gt;Node26</title>
<g id="a_edge10_Node000002_Node000026"><a xlink:title=" ">
<path fill="none" stroke="#63b8ff" d="M296.04,-89.13C311.96,-84.05 329.43,-78.48 345.5,-73.38 355.48,-70.21 366.19,-66.82 376.34,-63.61"/>
<polygon fill="#63b8ff" stroke="#63b8ff" points="377.14,-67.03 385.62,-60.68 375.03,-60.35 377.14,-67.03"/>
</a>
</g>
</g>
<!-- Node28 -->
<g id="Node000028" class="node">
<title>Node28</title>
<g id="a_Node000028"><a xlink:href="kest__fpga__io_8c.html#aa00adf9f96658a5c00b3d93dfa8c00de" target="_top" xlink:title=" ">
<polygon fill="white" stroke="#666666" points="499.5,-20.75 345.5,-20.75 345.5,0 499.5,0 499.5,-20.75"/>
<text xml:space="preserve" text-anchor="middle" x="422.5" y="-7.25" font-family="Helvetica,sans-Serif" font-size="10.00">kest_fpga_batch_append_24</text>
</a>
</g>
</g>
<!-- Node2&#45;&gt;Node28 -->
<g id="edge13_Node000002_Node000028" class="edge">
<title>Node2&#45;&gt;Node28</title>
<g id="a_edge13_Node000002_Node000028"><a xlink:title=" ">
<path fill="none" stroke="#63b8ff" d="M260.9,-89.13C280.6,-71.91 313.14,-45.83 345.5,-30.38 349.79,-28.32 354.33,-26.46 358.96,-24.77"/>
<polygon fill="#63b8ff" stroke="#63b8ff" points="360.05,-28.1 368.43,-21.62 357.83,-21.46 360.05,-28.1"/>
</a>
</g>
</g>
<!-- Node5 -->
<g id="Node000005" class="node">
<title>Node5</title>
<g id="a_Node000005"><a xlink:href="kest__expression_8c.html#aa4b7d57f1458bb40fc2d8fdab7c605fc" target="_top" xlink:title=" ">
<polygon fill="#fff0f0" stroke="red" points="698.5,-173.75 535.5,-173.75 535.5,-153 698.5,-153 698.5,-173.75"/>
<text xml:space="preserve" text-anchor="middle" x="617" y="-160.25" font-family="Helvetica,sans-Serif" font-size="10.00">kest_expression_evaluate_rec</text>
</a>
</g>
</g>
<!-- Node4&#45;&gt;Node5 -->
<g id="edge4_Node000004_Node000005" class="edge">
<title>Node4&#45;&gt;Node5</title>
<g id="a_edge4_Node000004_Node000005"><a xlink:title=" ">
<path fill="none" stroke="#63b8ff" d="M494.36,-163.38C504.02,-163.38 514.04,-163.38 524.01,-163.38"/>
<polygon fill="#63b8ff" stroke="#63b8ff" points="523.7,-166.88 533.7,-163.38 523.7,-159.88 523.7,-166.88"/>
</a>
</g>
</g>
<!-- Node5&#45;&gt;Node5 -->
<g id="edge5_Node000005_Node000005" class="edge">
<title>Node5&#45;&gt;Node5</title>
<g id="a_edge5_Node000005_Node000005"><a xlink:title=" ">
<path fill="none" stroke="#63b8ff" d="M589.22,-174.15C578.11,-182.81 587.37,-191.75 617,-191.75 633.2,-191.75 643.31,-189.08 647.33,-185.24"/>
<polygon fill="#63b8ff" stroke="#63b8ff" points="650.77,-184.58 645.12,-175.62 643.95,-186.15 650.77,-184.58"/>
</a>
</g>
</g>
<!-- Node5&#45;&gt;Node7 -->
<g id="edge6_Node000005_Node000007" class="edge">
<title>Node5&#45;&gt;Node7</title>
<g id="a_edge6_Node000005_Node000007"><a xlink:title=" ">
<path fill="none" stroke="#63b8ff" d="M691.74,-152.56C702.06,-151.04 712.61,-149.49 722.77,-148"/>
<polygon fill="#63b8ff" stroke="#63b8ff" points="723.16,-151.48 732.55,-146.57 722.14,-144.56 723.16,-151.48"/>
</a>
</g>
</g>
<!-- Node23 -->
<g id="Node000023" class="node">
<title>Node23</title>
<g id="a_Node000023"><a xlink:href="kest__alloc_8c.html#ac3afebacd5118241e9f677df59a469b0" target="_top" xlink:title=" ">
<polygon fill="#fff0f0" stroke="red" points="826.62,-84.75 752.12,-84.75 752.12,-64 826.62,-64 826.62,-84.75"/>
<text xml:space="preserve" text-anchor="middle" x="789.38" y="-71.25" font-family="Helvetica,sans-Serif" font-size="10.00">kest_realloc</text>
</a>
</g>
</g>
<!-- Node22&#45;&gt;Node23 -->
<g id="edge9_Node000022_Node000023" class="edge">
<title>Node22&#45;&gt;Node23</title>
<g id="a_edge9_Node000022_Node000023"><a xlink:title=" ">
<path fill="none" stroke="#63b8ff" d="M685.83,-82.2C704.07,-80.81 723.43,-79.33 740.35,-78.04"/>
<polygon fill="#63b8ff" stroke="#63b8ff" points="740.42,-81.54 750.12,-77.29 739.89,-74.56 740.42,-81.54"/>
</a>
</g>
</g>
<!-- Node27 -->
<g id="Node000027" class="node">
<title>Node27</title>
<g id="a_Node000027"><a xlink:href="kest__fpga__io_8c.html#ac4570962996cb50a17f816b060c7df8e" target="_top" xlink:title=" ">
<polygon fill="white" stroke="#666666" points="685.38,-59.12 548.62,-59.12 548.62,-25.62 685.38,-25.62 685.38,-59.12"/>
<text xml:space="preserve" text-anchor="start" x="556.62" y="-45.62" font-family="Helvetica,sans-Serif" font-size="10.00">kest_fpga_batch_append</text>
<text xml:space="preserve" text-anchor="middle" x="617" y="-32.88" font-family="Helvetica,sans-Serif" font-size="10.00">_bytes</text>
</a>
</g>
</g>
<!-- Node26&#45;&gt;Node27 -->
<g id="edge11_Node000026_Node000027" class="edge">
<title>Node26&#45;&gt;Node27</title>
<g id="a_edge11_Node000026_Node000027"><a xlink:title=" ">
<path fill="none" stroke="#63b8ff" d="M499.86,-46.6C512.07,-46.15 524.74,-45.69 537.01,-45.25"/>
<polygon fill="#63b8ff" stroke="#63b8ff" points="536.77,-48.76 546.64,-44.9 536.52,-41.76 536.77,-48.76"/>
</a>
</g>
</g>
<!-- Node27&#45;&gt;Node23 -->
<g id="edge12_Node000027_Node000023" class="edge">
<title>Node27&#45;&gt;Node23</title>
<g id="a_edge12_Node000027_Node000023"><a xlink:title=" ">
<path fill="none" stroke="#63b8ff" d="M685.83,-55.11C704.07,-58.54 723.43,-62.18 740.35,-65.36"/>
<polygon fill="#63b8ff" stroke="#63b8ff" points="739.67,-68.79 750.15,-67.19 740.96,-61.91 739.67,-68.79"/>
</a>
</g>
</g>
<!-- Node28&#45;&gt;Node27 -->
<g id="edge14_Node000028_Node000027" class="edge">
<title>Node28&#45;&gt;Node27</title>
<g id="a_edge14_Node000028_Node000027"><a xlink:title=" ">
<path fill="none" stroke="#63b8ff" d="M488.67,-21.21C504.27,-23.8 521.09,-26.6 537.23,-29.28"/>
<polygon fill="#63b8ff" stroke="#63b8ff" points="536.34,-32.68 546.77,-30.87 537.48,-25.77 536.34,-32.68"/>
</a>
</g>
</g>
</g>
</svg>
