<?xml version="1.0" encoding="UTF-8" standalone="no"?>
<!DOCTYPE svg PUBLIC "-//W3C//DTD SVG 1.1//EN"
 "http://www.w3.org/Graphics/SVG/1.1/DTD/svg11.dtd">
<!-- Generated by graphviz version 13.1.2 (20250808.2320)
 -->
<!-- Title: kest_fpga_batch_append_block_number Pages: 1 -->
<svg width="686pt" height="404pt"
 viewBox="0.00 0.00 686.00 404.00" xmlns="http://www.w3.org/2000/svg" xmlns:xlink="http://www.w3.org/1999/xlink">
<g id="graph0" class="graph" transform="scale(1 1) rotate(0) translate(4 399.5)">
<title>kest_fpga_batch_append_block_number</title>
<!-- Node1 -->
<g id="Node000001" class="node">
<title>Node1</title>
<g id="a_Node000001"><a xlink:title=" ">
<polygon fill="#999999" stroke="#666666" points="677.5,-265.5 540.75,-265.5 540.75,-232 677.5,-232 677.5,-265.5"/>
<text xml:space="preserve" text-anchor="start" x="548.75" y="-252" font-family="Helvetica,sans-Serif" font-size="10.00">kest_fpga_batch_append</text>
<text xml:space="preserve" text-anchor="middle" x="609.12" y="-239.25" font-family="Helvetica,sans-Serif" font-size="10.00">_block_number</text>
</a>
</g>
</g>
<!-- Node2 -->
<g id="Node000002" class="node">
<title>Node2</title>
<g id="a_Node000002"><a xlink:href="kest__fpga__encoding_8c.html#a1e92fe0ff4b72e00fa5d840ec96508c7" target="_top" xlink:title=" ">
<polygon fill="white" stroke="#666666" points="493.88,-343.5 357.12,-343.5 357.12,-310 493.88,-310 493.88,-343.5"/>
<text xml:space="preserve" text-anchor="start" x="365.12" y="-330" font-family="Helvetica,sans-Serif" font-size="10.00">kest_fpga_batch_append</text>
<text xml:space="preserve" text-anchor="middle" x="425.5" y="-317.25" font-family="Helvetica,sans-Serif" font-size="10.00">_block_instr</text>
</a>
</g>
</g>
<!-- Node1&#45;&gt;Node2 -->
<g id="edge1_Node000001_Node000002" class="edge">
<title>Node1&#45;&gt;Node2</title>
<g id="a_edge1_Node000001_Node000002"><a xlink:title=" ">
<path fill="none" stroke="#63b8ff" d="M567.05,-271.14C548.34,-280.88 525.73,-292.04 504.75,-300.75 497.35,-303.82 489.44,-306.8 481.6,-309.57"/>
<polygon fill="#63b8ff" stroke="#63b8ff" points="568.45,-274.35 575.67,-266.6 565.19,-268.16 568.45,-274.35"/>
</a>
</g>
</g>
<!-- Node60 -->
<g id="Node000060" class="node">
<title>Node60</title>
<g id="a_Node000060"><a xlink:href="kest__fpga__encoding_8c.html#a671c5c9aca5f0e8197dbccbc0dd8291c" target="_top" xlink:title=" ">
<polygon fill="white" stroke="#666666" points="493.88,-239.5 357.12,-239.5 357.12,-206 493.88,-206 493.88,-239.5"/>
<text xml:space="preserve" text-anchor="start" x="365.12" y="-226" font-family="Helvetica,sans-Serif" font-size="10.00">kest_fpga_batch_append</text>
<text xml:space="preserve" text-anchor="middle" x="425.5" y="-213.25" font-family="Helvetica,sans-Serif" font-size="10.00">_block_register_updates</text>
</a>
</g>
</g>
<!-- Node1&#45;&gt;Node60 -->
<g id="edge5_Node000001_Node000060" class="edge">
<title>Node1&#45;&gt;Node60</title>
<g id="a_edge5_Node000001_Node000060"><a xlink:title=" ">
<path fill="none" stroke="#63b8ff" d="M529.37,-237.48C517.65,-235.8 505.65,-234.08 494.19,-232.44"/>
<polygon fill="#63b8ff" stroke="#63b8ff" points="528.6,-240.9 539,-238.85 529.59,-233.97 528.6,-240.9"/>
</a>
</g>
</g>
<!-- Node82 -->
<g id="Node000082" class="node">
<title>Node82</title>
<g id="a_Node000082"><a xlink:href="kest__fpga__encoding_8c.html#a48ab2470c45981ea279dd588b37c36df" target="_top" xlink:title=" ">
<polygon fill="white" stroke="#666666" points="493.88,-291.5 357.12,-291.5 357.12,-258 493.88,-258 493.88,-291.5"/>
<text xml:space="preserve" text-anchor="start" x="365.12" y="-278" font-family="Helvetica,sans-Serif" font-size="10.00">kest_fpga_batch_append</text>
<text xml:space="preserve" text-anchor="middle" x="425.5" y="-265.25" font-family="Helvetica,sans-Serif" font-size="10.00">_block_regs</text>
</a>
</g>
</g>
<!-- Node1&#45;&gt;Node82 -->
<g id="edge13_Node000001_Node000082" class="edge">
<title>Node1&#45;&gt;Node82</title>
<g id="a_edge13_Node000001_Node000082"><a xlink:title=" ">
<path fill="none" stroke="#63b8ff" d="M529.37,-260.02C517.65,-261.7 505.65,-263.42 494.19,-265.06"/>
<polygon fill="#63b8ff" stroke="#63b8ff" points="529.59,-263.53 539,-258.65 528.6,-256.6 529.59,-263.53"/>
</a>
</g>
</g>
<!-- Node83 -->
<g id="Node000083" class="node">
<title>Node83</title>
<g id="a_Node000083"><a xlink:href="kest__fpga__cmd_8c.html#a31d78d4d199f0ae142fc70e32d0f5f16" target="_top" xlink:title=" ">
<polygon fill="white" stroke="#666666" points="504.75,-162.5 346.25,-162.5 346.25,-129 504.75,-129 504.75,-162.5"/>
<text xml:space="preserve" text-anchor="start" x="354.25" y="-149" font-family="Helvetica,sans-Serif" font-size="10.00">kest_fpga_command_append</text>
<text xml:space="preserve" text-anchor="middle" x="425.5" y="-136.25" font-family="Helvetica,sans-Serif" font-size="10.00">_encoded</text>
</a>
</g>
</g>
<!-- Node1&#45;&gt;Node83 -->
<g id="edge15_Node000001_Node000083" class="edge">
<title>Node1&#45;&gt;Node83</title>
<g id="a_edge15_Node000001_Node000083"><a xlink:title=" ">
<path fill="none" stroke="#63b8ff" d="M567.77,-225.86C534.18,-206.81 487.1,-180.11 456.7,-162.87"/>
<polygon fill="#63b8ff" stroke="#63b8ff" points="565.98,-228.87 576.41,-230.76 569.44,-222.79 565.98,-228.87"/>
</a>
</g>
</g>
<!-- Node3 -->
<g id="Node000003" class="node">
<title>Node3</title>
<g id="a_Node000003"><a xlink:href="kest__fpga__encoding_8c.html#a24f2c777ab7078a8261d0fcee4aaf738" target="_top" xlink:title=" ">
<polygon fill="white" stroke="#666666" points="309.88,-343.5 173.12,-343.5 173.12,-310 309.88,-310 309.88,-343.5"/>
<text xml:space="preserve" text-anchor="start" x="181.12" y="-330" font-family="Helvetica,sans-Serif" font-size="10.00">kest_fpga_batch_append</text>
<text xml:space="preserve" text-anchor="middle" x="241.5" y="-317.25" font-family="Helvetica,sans-Serif" font-size="10.00">_block</text>
</a>
</g>
</g>
<!-- Node2&#45;&gt;Node3 -->
<g id="edge2_Node000002_Node000003" class="edge">
<title>Node2&#45;&gt;Node3</title>
<g id="a_edge2_Node000002_Node000003"><a xlink:title=" ">
<path fill="none" stroke="#63b8ff" d="M345.58,-326.75C333.83,-326.75 321.82,-326.75 310.33,-326.75"/>
<polygon fill="#63b8ff" stroke="#63b8ff" points="345.22,-330.25 355.22,-326.75 345.22,-323.25 345.22,-330.25"/>
</a>
</g>
</g>
<!-- Node4 -->
<g id="Node000004" class="node">
<title>Node4</title>
<g id="a_Node000004"><a xlink:href="kest__fpga__encoding_8c.html#ab25e66c3a6824f0d7213996ba244f105" target="_top" xlink:title=" ">
<polygon fill="#fff0f0" stroke="red" points="136.75,-395.5 0,-395.5 0,-362 136.75,-362 136.75,-395.5"/>
<text xml:space="preserve" text-anchor="start" x="8" y="-382" font-family="Helvetica,sans-Serif" font-size="10.00">kest_fpga_batch_append</text>
<text xml:space="preserve" text-anchor="middle" x="68.38" y="-369.25" font-family="Helvetica,sans-Serif" font-size="10.00">_block_list</text>
</a>
</g>
</g>
<!-- Node3&#45;&gt;Node4 -->
<g id="edge3_Node000003_Node000004" class="edge">
<title>Node3&#45;&gt;Node4</title>
<g id="a_edge3_Node000003_Node000004"><a xlink:title=" ">
<path fill="none" stroke="#63b8ff" d="M173.34,-347.16C157.72,-351.9 141.24,-356.91 126.11,-361.51"/>
<polygon fill="#63b8ff" stroke="#63b8ff" points="173.99,-350.62 182.54,-344.36 171.96,-343.92 173.99,-350.62"/>
</a>
</g>
</g>
<!-- Node58 -->
<g id="Node000058" class="node">
<title>Node58</title>
<g id="a_Node000058"><a xlink:href="kest__fpga__encoding_8c.html#aaa459b3fe0bc706c415180f6ac35d7c3" target="_top" xlink:title=" ">
<polygon fill="#fff0f0" stroke="red" points="136.75,-343.5 0,-343.5 0,-310 136.75,-310 136.75,-343.5"/>
<text xml:space="preserve" text-anchor="start" x="8" y="-330" font-family="Helvetica,sans-Serif" font-size="10.00">kest_fpga_batch_append</text>
<text xml:space="preserve" text-anchor="middle" x="68.38" y="-317.25" font-family="Helvetica,sans-Serif" font-size="10.00">_blocks</text>
</a>
</g>
</g>
<!-- Node3&#45;&gt;Node58 -->
<g id="edge4_Node000003_Node000058" class="edge">
<title>Node3&#45;&gt;Node58</title>
<g id="a_edge4_Node000003_Node000058"><a xlink:title=" ">
<path fill="none" stroke="#63b8ff" d="M161.44,-326.75C153.3,-326.75 145.08,-326.75 137.08,-326.75"/>
<polygon fill="#63b8ff" stroke="#63b8ff" points="161.35,-330.25 171.35,-326.75 161.35,-323.25 161.35,-330.25"/>
</a>
</g>
</g>
<!-- Node61 -->
<g id="Node000061" class="node">
<title>Node61</title>
<g id="a_Node000061"><a xlink:href="kest__fpga__encoding_8c.html#a2f82b2c396c41026c378670b04592a6b" target="_top" xlink:title=" ">
<polygon fill="white" stroke="#666666" points="303.12,-264.88 179.88,-264.88 179.88,-218.62 303.12,-218.62 303.12,-264.88"/>
<text xml:space="preserve" text-anchor="start" x="187.88" y="-251.38" font-family="Helvetica,sans-Serif" font-size="10.00">kest_fpga_transfer</text>
<text xml:space="preserve" text-anchor="start" x="187.88" y="-238.62" font-family="Helvetica,sans-Serif" font-size="10.00">_batch_append_effect</text>
<text xml:space="preserve" text-anchor="middle" x="241.5" y="-225.88" font-family="Helvetica,sans-Serif" font-size="10.00">_register_updates</text>
</a>
</g>
</g>
<!-- Node60&#45;&gt;Node61 -->
<g id="edge6_Node000060_Node000061" class="edge">
<title>Node60&#45;&gt;Node61</title>
<g id="a_edge6_Node000060_Node000061"><a xlink:title=" ">
<path fill="none" stroke="#63b8ff" d="M345.53,-230.99C331.42,-232.47 316.93,-233.98 303.42,-235.39"/>
<polygon fill="#63b8ff" stroke="#63b8ff" points="345.64,-234.5 355.22,-229.98 344.92,-227.54 345.64,-234.5"/>
</a>
</g>
</g>
<!-- Node62 -->
<g id="Node000062" class="node">
<title>Node62</title>
<g id="a_Node000062"><a xlink:href="kest__fpga__encoding_8c.html#aa84abb65bd141dfd5df4c221f024a3db" target="_top" xlink:title=" ">
<polygon fill="white" stroke="#666666" points="303.12,-200.88 179.88,-200.88 179.88,-154.62 303.12,-154.62 303.12,-200.88"/>
<text xml:space="preserve" text-anchor="start" x="187.88" y="-187.38" font-family="Helvetica,sans-Serif" font-size="10.00">kest_fpga_transfer</text>
<text xml:space="preserve" text-anchor="start" x="187.88" y="-174.62" font-family="Helvetica,sans-Serif" font-size="10.00">_batch_append_effect</text>
<text xml:space="preserve" text-anchor="middle" x="241.5" y="-161.88" font-family="Helvetica,sans-Serif" font-size="10.00">_register_updates_</text>
</a>
</g>
</g>
<!-- Node60&#45;&gt;Node62 -->
<g id="edge7_Node000060_Node000062" class="edge">
<title>Node60&#45;&gt;Node62</title>
<g id="a_edge7_Node000060_Node000062"><a xlink:title=" ">
<path fill="none" stroke="#63b8ff" d="M345.95,-203.33C331.71,-199.81 317.06,-196.19 303.42,-192.81"/>
<polygon fill="#63b8ff" stroke="#63b8ff" points="344.71,-206.63 355.26,-205.63 346.39,-199.83 344.71,-206.63"/>
</a>
</g>
</g>
<!-- Node63 -->
<g id="Node000063" class="node">
<title>Node63</title>
<g id="a_Node000063"><a xlink:href="kest__effect_8c.html#a288d2643ff7af914502102475595ed8f" target="_top" xlink:title=" ">
<polygon fill="#fff0f0" stroke="red" points="122.5,-291.5 14.25,-291.5 14.25,-258 122.5,-258 122.5,-291.5"/>
<text xml:space="preserve" text-anchor="start" x="22.25" y="-278" font-family="Helvetica,sans-Serif" font-size="10.00">kest_effect_handle</text>
<text xml:space="preserve" text-anchor="middle" x="68.38" y="-265.25" font-family="Helvetica,sans-Serif" font-size="10.00">_updates</text>
</a>
</g>
</g>
<!-- Node62&#45;&gt;Node63 -->
<g id="edge8_Node000062_Node000063" class="edge">
<title>Node62&#45;&gt;Node63</title>
<g id="a_edge8_Node000062_Node000063"><a xlink:title=" ">
<path fill="none" stroke="#63b8ff" d="M176.27,-207.26C175.08,-208.07 173.9,-208.91 172.75,-209.75 153.74,-223.71 156.26,-235.49 136.75,-248.75 131.98,-251.99 126.75,-254.91 121.38,-257.51"/>
<polygon fill="#63b8ff" stroke="#63b8ff" points="177.91,-210.36 184.52,-202.08 174.19,-204.43 177.91,-210.36"/>
</a>
</g>
</g>
<!-- Node67 -->
<g id="Node000067" class="node">
<title>Node67</title>
<g id="a_Node000067"><a xlink:href="kest__effect_8c.html#ad5745ec5888a0568782154fb4f8adfee" target="_top" xlink:title=" ">
<polygon fill="#fff0f0" stroke="red" points="122.5,-239.5 14.25,-239.5 14.25,-206 122.5,-206 122.5,-239.5"/>
<text xml:space="preserve" text-anchor="start" x="22.25" y="-226" font-family="Helvetica,sans-Serif" font-size="10.00">kest_effect_handle</text>
<text xml:space="preserve" text-anchor="middle" x="68.38" y="-213.25" font-family="Helvetica,sans-Serif" font-size="10.00">_updates_inc_ui</text>
</a>
</g>
</g>
<!-- Node62&#45;&gt;Node67 -->
<g id="edge9_Node000062_Node000067" class="edge">
<title>Node62&#45;&gt;Node67</title>
<g id="a_edge9_Node000062_Node000067"><a xlink:title=" ">
<path fill="none" stroke="#63b8ff" d="M168.66,-196.64C153.32,-200.67 137.39,-204.86 122.89,-208.68"/>
<polygon fill="#63b8ff" stroke="#63b8ff" points="169.44,-200.06 178.22,-194.13 167.66,-193.29 169.44,-200.06"/>
</a>
</g>
</g>
<!-- Node68 -->
<g id="Node000068" class="node">
<title>Node68</title>
<g id="a_Node000068"><a xlink:href="kest__effect_8c.html#a490655823471fa9f081e6252b13da30e" target="_top" xlink:title=" ">
<polygon fill="white" stroke="#666666" points="136.38,-188.12 0.38,-188.12 0.38,-167.38 136.38,-167.38 136.38,-188.12"/>
<text xml:space="preserve" text-anchor="middle" x="68.38" y="-174.62" font-family="Helvetica,sans-Serif" font-size="10.00">kest_effect_update_fpga</text>
</a>
</g>
</g>
<!-- Node62&#45;&gt;Node68 -->
<g id="edge10_Node000062_Node000068" class="edge">
<title>Node62&#45;&gt;Node68</title>
<g id="a_edge10_Node000062_Node000068"><a xlink:title=" ">
<path fill="none" stroke="#63b8ff" d="M168.41,-177.75C157.9,-177.75 147.1,-177.75 136.68,-177.75"/>
<polygon fill="#63b8ff" stroke="#63b8ff" points="168.17,-181.25 178.17,-177.75 168.17,-174.25 168.17,-181.25"/>
</a>
</g>
</g>
<!-- Node69 -->
<g id="Node000069" class="node">
<title>Node69</title>
<g id="a_Node000069"><a xlink:href="kest__effect_8c.html#acd72b0b8d69b207a12265887b06fc7f9" target="_top" xlink:title=" ">
<polygon fill="white" stroke="#666666" points="122.88,-149.5 13.88,-149.5 13.88,-116 122.88,-116 122.88,-149.5"/>
<text xml:space="preserve" text-anchor="start" x="21.88" y="-136" font-family="Helvetica,sans-Serif" font-size="10.00">kest_effect_update</text>
<text xml:space="preserve" text-anchor="middle" x="68.38" y="-123.25" font-family="Helvetica,sans-Serif" font-size="10.00">_sync_no_pw</text>
</a>
</g>
</g>
<!-- Node62&#45;&gt;Node69 -->
<g id="edge11_Node000062_Node000069" class="edge">
<title>Node62&#45;&gt;Node69</title>
<g id="a_edge11_Node000062_Node000069"><a xlink:title=" ">
<path fill="none" stroke="#63b8ff" d="M168.71,-158.87C153.46,-154.86 137.61,-150.69 123.17,-146.9"/>
<polygon fill="#63b8ff" stroke="#63b8ff" points="167.66,-162.21 178.22,-161.37 169.44,-155.44 167.66,-162.21"/>
</a>
</g>
</g>
<!-- Node70 -->
<g id="Node000070" class="node">
<title>Node70</title>
<g id="a_Node000070"><a xlink:href="kest__fpga__encoding_8c.html#a88e143203d90d22159a81888f02b3c11" target="_top" xlink:title=" ">
<polygon fill="#fff0f0" stroke="red" points="130,-97.88 6.75,-97.88 6.75,-51.62 130,-51.62 130,-97.88"/>
<text xml:space="preserve" text-anchor="start" x="14.75" y="-84.38" font-family="Helvetica,sans-Serif" font-size="10.00">kest_fpga_transfer</text>
<text xml:space="preserve" text-anchor="start" x="14.75" y="-71.62" font-family="Helvetica,sans-Serif" font-size="10.00">_batch_append_effect</text>
<text xml:space="preserve" text-anchor="middle" x="68.38" y="-58.88" font-family="Helvetica,sans-Serif" font-size="10.00">_updates</text>
</a>
</g>
</g>
<!-- Node62&#45;&gt;Node70 -->
<g id="edge12_Node000062_Node000070" class="edge">
<title>Node62&#45;&gt;Node70</title>
<g id="a_edge12_Node000062_Node000070"><a xlink:title=" ">
<path fill="none" stroke="#63b8ff" d="M199.95,-147.82C181.16,-134.53 158.28,-119.13 136.75,-106.75 131.7,-103.85 126.34,-100.97 120.94,-98.21"/>
<polygon fill="#63b8ff" stroke="#63b8ff" points="197.69,-150.5 207.86,-153.47 201.76,-144.81 197.69,-150.5"/>
</a>
</g>
</g>
<!-- Node82&#45;&gt;Node3 -->
<g id="edge14_Node000082_Node000003" class="edge">
<title>Node82&#45;&gt;Node3</title>
<g id="a_edge14_Node000082_Node000003"><a xlink:title=" ">
<path fill="none" stroke="#63b8ff" d="M353.31,-295.09C336.57,-299.87 318.89,-304.92 302.69,-309.55"/>
<polygon fill="#63b8ff" stroke="#63b8ff" points="354.04,-298.52 362.69,-292.41 352.12,-291.79 354.04,-298.52"/>
</a>
</g>
</g>
<!-- Node84 -->
<g id="Node000084" class="node">
<title>Node84</title>
<g id="a_Node000084"><a xlink:href="kest__fpga__cmd_8c.html#a263cc37db306d9929feeffdb0b76396d" target="_top" xlink:title=" ">
<polygon fill="white" stroke="#666666" points="310.25,-85.5 172.75,-85.5 172.75,-52 310.25,-52 310.25,-85.5"/>
<text xml:space="preserve" text-anchor="start" x="180.75" y="-72" font-family="Helvetica,sans-Serif" font-size="10.00">kest_fpga_command_list</text>
<text xml:space="preserve" text-anchor="middle" x="241.5" y="-59.25" font-family="Helvetica,sans-Serif" font-size="10.00">_append_encoded</text>
</a>
</g>
</g>
<!-- Node83&#45;&gt;Node84 -->
<g id="edge16_Node000083_Node000084" class="edge">
<title>Node83&#45;&gt;Node84</title>
<g id="a_edge16_Node000083_Node000084"><a xlink:title=" ">
<path fill="none" stroke="#63b8ff" d="M373.51,-124.18C344.93,-112.09 309.79,-97.22 283.09,-85.92"/>
<polygon fill="#63b8ff" stroke="#63b8ff" points="372.14,-127.4 382.71,-128.07 374.87,-120.95 372.14,-127.4"/>
</a>
</g>
</g>
<!-- Node85 -->
<g id="Node000085" class="node">
<title>Node85</title>
<g id="a_Node000085"><a xlink:href="kest__update_8c.html#a683b2e516019ed6c0ea61600b739f1a8" target="_top" xlink:title=" ">
<polygon fill="#fff0f0" stroke="red" points="132.25,-33.5 4.5,-33.5 4.5,0 132.25,0 132.25,-33.5"/>
<text xml:space="preserve" text-anchor="start" x="12.5" y="-20" font-family="Helvetica,sans-Serif" font-size="10.00">kest_updater_generate</text>
<text xml:space="preserve" text-anchor="middle" x="68.38" y="-7.25" font-family="Helvetica,sans-Serif" font-size="10.00">_tx_batch</text>
</a>
</g>
</g>
<!-- Node84&#45;&gt;Node85 -->
<g id="edge17_Node000084_Node000085" class="edge">
<title>Node84&#45;&gt;Node85</title>
<g id="a_edge17_Node000084_Node000085"><a xlink:title=" ">
<path fill="none" stroke="#63b8ff" d="M173.34,-48.34C157.72,-43.6 141.24,-38.59 126.11,-33.99"/>
<polygon fill="#63b8ff" stroke="#63b8ff" points="171.96,-51.58 182.54,-51.14 173.99,-44.88 171.96,-51.58"/>
</a>
</g>
</g>
</g>
</svg>
