<?xml version="1.0" encoding="UTF-8" standalone="no"?>
<!DOCTYPE svg PUBLIC "-//W3C//DTD SVG 1.1//EN"
 "http://www.w3.org/Graphics/SVG/1.1/DTD/svg11.dtd">
<!-- Generated by graphviz version 13.1.2 (20250808.2320)
 -->
<!-- Title: kest_preset_set_default_name_from_id Pages: 1 -->
<!--zoomable 106 -->

<svg id="main" version="1.1" xmlns="http://www.w3.org/2000/svg" xmlns:xlink="http://www.w3.org/1999/xlink" xml:space="preserve" onload="init(evt)">

<style type="text/css"><![CDATA[
.node, .edge {opacity: 0.7;}
.node.selected, .edge.selected {opacity: 1;}
.edge:hover path { stroke: red; }
.edge:hover polygon { stroke: red; fill: red; }
]]></style>

<defs>
  <circle id="rim" cx="0" cy="0" r="7"/>
  <circle id="rim2" cx="0" cy="0" r="3.5"/>
  <g id="zoomPlus">
    <use xlink:href="#rim" fill="#404040"><set attributeName="fill" to="#808080" begin="zoomplus.mouseover" end="zoomplus.mouseout"/></use>
    <path d="M-4,0h8M0,-4v8" fill="none" stroke="white" stroke-width="1.5" pointer-events="none"/>
  </g>
  <g id="zoomMin">
    <use xlink:href="#rim" fill="#404040"><set attributeName="fill" to="#808080" begin="zoomminus.mouseover" end="zoomminus.mouseout"/></use>
    <path d="M-4,0h8" fill="none" stroke="white" stroke-width="1.5" pointer-events="none"/>
  </g>
  <g id="arrowUp" transform="translate(30 24)">
    <use xlink:href="#rim"/>
    <path pointer-events="none" fill="none" stroke="white" stroke-width="1.5" d="M0,-3.0v7 M-2.5,-0.5L0,-3.0L2.5,-0.5"/>
  </g>
  <g id="arrowRight" transform="rotate(90) translate(36 -43)">
    <use xlink:href="#rim"/>
    <path pointer-events="none" fill="none" stroke="white" stroke-width="1.5" d="M0,-3.0v7 M-2.5,-0.5L0,-3.0L2.5,-0.5"/>
  </g>
  <g id="arrowDown" transform="rotate(180) translate(-30 -48)">
    <use xlink:href="#rim"/>
    <path pointer-events="none" fill="none" stroke="white" stroke-width="1.5" d="M0,-3.0v7 M-2.5,-0.5L0,-3.0L2.5,-0.5"/>
  </g>
  <g id="arrowLeft" transform="rotate(270) translate(-36 17)">
    <use xlink:href="#rim"/>
    <path pointer-events="none" fill="none" stroke="white" stroke-width="1.5" d="M0,-3.0v7 M-2.5,-0.5L0,-3.0L2.5,-0.5"/>
  </g>
  <g id="resetDef">
    <use xlink:href="#rim2" fill="#404040"><set attributeName="fill" to="#808080" begin="reset.mouseover" end="reset.mouseout"/></use>
  </g>
</defs>
<script type="application/ecmascript">
var viewWidth = 823;
var viewHeight = 106;
var sectionId = 'dynsection-34';
</script>
<script type="application/ecmascript" xlink:href="svg.min.js"/>
<svg id="graph" class="graph">
<g id="viewport">
<title>kest_preset_set_default_name_from_id</title>
<!-- Node1 -->
<g id="Node000001" class="node">
<title>Node1</title>
<g id="a_Node000001"><a xlink:title=" ">
<polygon fill="#999999" stroke="#666666" points="815,-46.12 682.75,-46.12 682.75,-12.62 815,-12.62 815,-46.12"/>
<text xml:space="preserve" text-anchor="start" x="690.75" y="-32.62" font-family="Helvetica,sans-Serif" font-size="10.00">kest_preset_set_default</text>
<text xml:space="preserve" text-anchor="middle" x="748.88" y="-19.88" font-family="Helvetica,sans-Serif" font-size="10.00">_name_from_id</text>
</a>
</g>
</g>
<!-- Node2 -->
<g id="Node000002" class="node">
<title>Node2</title>
<g id="a_Node000002"><a xlink:href="kest__preset__settings_8c.html#a4e21964ed69d6e526547b1f73d86f508" target="_top" xlink:title=" ">
<polygon fill="white" stroke="#666666" points="646.75,-59.75 475.5,-59.75 475.5,-39 646.75,-39 646.75,-59.75"/>
<text xml:space="preserve" text-anchor="middle" x="561.12" y="-46.25" font-family="Helvetica,sans-Serif" font-size="10.00">configure_preset_settings_page</text>
</a>
</g>
</g>
<!-- Node1&#45;&gt;Node2 -->
<g id="edge1_Node000001_Node000002" class="edge">
<title>Node1&#45;&gt;Node2</title>
<g id="a_edge1_Node000001_Node000002"><a xlink:title=" ">
<path fill="none" stroke="#63b8ff" d="M671.01,-37.65C663.15,-38.5 655.14,-39.36 647.2,-40.22"/>
<polygon fill="#63b8ff" stroke="#63b8ff" points="671.31,-41.14 680.88,-36.59 670.56,-34.18 671.31,-41.14"/>
</a>
</g>
</g>
<!-- Node35 -->
<g id="Node000035" class="node">
<title>Node35</title>
<g id="a_Node000035"><a xlink:href="kest__preset__view_8c.html#abb59263b8c83df0ea6a555309660f0d1" target="_top" xlink:title=" ">
<polygon fill="white" stroke="#666666" points="623.88,-20.75 498.38,-20.75 498.38,0 623.88,0 623.88,-20.75"/>
<text xml:space="preserve" text-anchor="middle" x="561.12" y="-7.25" font-family="Helvetica,sans-Serif" font-size="10.00">create_preset_view_ui</text>
</a>
</g>
</g>
<!-- Node1&#45;&gt;Node35 -->
<g id="edge8_Node000001_Node000035" class="edge">
<title>Node1&#45;&gt;Node35</title>
<g id="a_edge8_Node000001_Node000035"><a xlink:title=" ">
<path fill="none" stroke="#63b8ff" d="M671.15,-21.53C655.52,-19.93 639.26,-18.27 624.22,-16.73"/>
<polygon fill="#63b8ff" stroke="#63b8ff" points="670.58,-24.99 680.88,-22.52 671.29,-18.02 670.58,-24.99"/>
</a>
</g>
</g>
<!-- Node3 -->
<g id="Node000003" class="node">
<title>Node3</title>
<g id="a_Node000003"><a xlink:href="kest__preset__view_8c.html#ad8a171502fcb88f5b5a08657a6424752" target="_top" xlink:title=" ">
<polygon fill="white" stroke="#666666" points="432,-97.75 305.75,-97.75 305.75,-77 432,-77 432,-97.75"/>
<text xml:space="preserve" text-anchor="middle" x="368.88" y="-84.25" font-family="Helvetica,sans-Serif" font-size="10.00">configure_preset_view</text>
</a>
</g>
</g>
<!-- Node2&#45;&gt;Node3 -->
<g id="edge2_Node000002_Node000003" class="edge">
<title>Node2&#45;&gt;Node3</title>
<g id="a_edge2_Node000002_Node000003"><a xlink:title=" ">
<path fill="none" stroke="#63b8ff" d="M494.8,-62.42C471.8,-67.02 446.21,-72.13 424.21,-76.52"/>
<polygon fill="#63b8ff" stroke="#63b8ff" points="495.26,-65.9 504.38,-60.51 493.89,-59.04 495.26,-65.9"/>
</a>
</g>
</g>
<!-- Node34 -->
<g id="Node000034" class="node">
<title>Node34</title>
<g id="a_Node000034"><a xlink:href="kest__preset__settings_8c.html#af8a7e7dad2d6e91426bed7a0ec9f4cd4" target="_top" xlink:title=" ">
<polygon fill="white" stroke="#666666" points="439.5,-58.75 298.25,-58.75 298.25,-38 439.5,-38 439.5,-58.75"/>
<text xml:space="preserve" text-anchor="middle" x="368.88" y="-45.25" font-family="Helvetica,sans-Serif" font-size="10.00">init_preset_settings_page</text>
</a>
</g>
</g>
<!-- Node2&#45;&gt;Node34 -->
<g id="edge6_Node000002_Node000034" class="edge">
<title>Node2&#45;&gt;Node34</title>
<g id="a_edge6_Node000002_Node000034"><a xlink:title=" ">
<path fill="none" stroke="#63b8ff" d="M463.66,-48.87C455.62,-48.83 447.59,-48.78 439.81,-48.74"/>
<polygon fill="#63b8ff" stroke="#63b8ff" points="463.48,-52.37 473.5,-48.92 463.52,-45.37 463.48,-52.37"/>
</a>
</g>
</g>
<!-- Node4 -->
<g id="Node000004" class="node">
<title>Node4</title>
<g id="a_Node000004"><a xlink:href="kest__preset__view_8c.html#ae4f85ce684e856ba2d0dfc97c49528b2" target="_top" xlink:title=" ">
<polygon fill="#fff0f0" stroke="red" points="130,-77.75 0,-77.75 0,-57 130,-57 130,-77.75"/>
<text xml:space="preserve" text-anchor="middle" x="65" y="-64.25" font-family="Helvetica,sans-Serif" font-size="10.00">create_preset_view_for</text>
</a>
</g>
</g>
<!-- Node3&#45;&gt;Node4 -->
<g id="edge3_Node000003_Node000004" class="edge">
<title>Node3&#45;&gt;Node4</title>
<g id="a_edge3_Node000003_Node000004"><a xlink:title=" ">
<path fill="none" stroke="#63b8ff" d="M293.91,-82.47C243.8,-79.15 178.23,-74.81 130.29,-71.63"/>
<polygon fill="#63b8ff" stroke="#63b8ff" points="293.61,-85.96 303.82,-83.13 294.07,-78.98 293.61,-85.96"/>
</a>
</g>
</g>
<!-- Node33 -->
<g id="Node000033" class="node">
<title>Node33</title>
<g id="a_Node000033"><a xlink:href="kest__preset__view_8c.html#a7aa469a400baf1fdf82d314a2ad5ddbb" target="_top" xlink:title=" ">
<polygon fill="white" stroke="#666666" points="262.25,-58.75 166,-58.75 166,-38 262.25,-38 262.25,-58.75"/>
<text xml:space="preserve" text-anchor="middle" x="214.12" y="-45.25" font-family="Helvetica,sans-Serif" font-size="10.00">init_preset_view</text>
</a>
</g>
</g>
<!-- Node3&#45;&gt;Node33 -->
<g id="edge4_Node000003_Node000033" class="edge">
<title>Node3&#45;&gt;Node33</title>
<g id="a_edge4_Node000003_Node000033"><a xlink:title=" ">
<path fill="none" stroke="#63b8ff" d="M314.37,-73.71C295.81,-68.98 275.27,-63.73 257.71,-59.25"/>
<polygon fill="#63b8ff" stroke="#63b8ff" points="313.3,-77.05 323.86,-76.14 315.04,-70.27 313.3,-77.05"/>
</a>
</g>
</g>
<!-- Node33&#45;&gt;Node4 -->
<g id="edge5_Node000033_Node000004" class="edge">
<title>Node33&#45;&gt;Node4</title>
<g id="a_edge5_Node000033_Node000004"><a xlink:title=" ">
<path fill="none" stroke="#63b8ff" d="M154.42,-55.96C146.54,-56.97 138.41,-58.02 130.43,-59.05"/>
<polygon fill="#63b8ff" stroke="#63b8ff" points="154.79,-59.44 164.26,-54.69 153.9,-52.49 154.79,-59.44"/>
</a>
</g>
</g>
<!-- Node34&#45;&gt;Node33 -->
<g id="edge7_Node000034_Node000033" class="edge">
<title>Node34&#45;&gt;Node33</title>
<g id="a_edge7_Node000034_Node000033"><a xlink:title=" ">
<path fill="none" stroke="#63b8ff" d="M286.28,-48.38C278.17,-48.38 270.14,-48.38 262.55,-48.38"/>
<polygon fill="#63b8ff" stroke="#63b8ff" points="286.25,-51.88 296.25,-48.38 286.25,-44.88 286.25,-51.88"/>
</a>
</g>
</g>
<!-- Node35&#45;&gt;Node33 -->
<g id="edge9_Node000035_Node000033" class="edge">
<title>Node35&#45;&gt;Node33</title>
<g id="a_edge9_Node000035_Node000033"><a xlink:title=" ">
<path fill="none" stroke="#63b8ff" d="M486.66,-12.71C433.99,-15.12 361.46,-19.91 298.25,-29.38 284.63,-31.41 269.94,-34.48 256.75,-37.55"/>
<polygon fill="#63b8ff" stroke="#63b8ff" points="486.58,-16.22 496.41,-12.29 486.27,-9.23 486.58,-16.22"/>
</a>
</g>
</g>
</g>
</svg>

<g id="navigator" transform="translate(0 0)" fill="#404254">
  <rect fill="#f2f5e9" fill-opacity="0.5" stroke="#606060" stroke-width=".5" x="0" y="0" width="60" height="60"/>
  <use id="zoomplus" xlink:href="#zoomPlus" x="17" y="9" onmousedown="handleZoom(evt,'in')"/>
  <use id="zoomminus" xlink:href="#zoomMin" x="42" y="9" onmousedown="handleZoom(evt,'out')"/>
  <use id="reset" xlink:href="#resetDef" x="30" y="36" onmousedown="handleReset()"/>
   <use id="arrowup" xlink:href="#arrowUp" x="0" y="0" onmousedown="handlePan(0,-1)"/>
  <use id="arrowright" xlink:href="#arrowRight" x="0" y="0" onmousedown="handlePan(1,0)"/>
  <use id="arrowdown" xlink:href="#arrowDown" x="0" y="0" onmousedown="handlePan(0,1)"/>
  <use id="arrowleft" xlink:href="#arrowLeft" x="0" y="0" onmousedown="handlePan(-1,0)"/>
</g>
<svg viewBox="0 0 15 15" width="100%" height="30px" preserveAspectRatio="xMaxYMin meet">
 <g id="arrow_out" transform="scale(0.3 0.3)">
  <a xlink:href="kest__preset_8c_a01b707a9537b9bede0a4c2065aea7c60_icgraph_org.svg" target="_base">
   <rect id="button" ry="5" rx="5" y="6" x="6" height="38" width="38"
        fill="#f2f5e9" fill-opacity="0.5" stroke="#606060" stroke-width="1.0"/>
   <path id="arrow"
     d="M 11.500037,31.436501 C 11.940474,20.09759 22.043105,11.32322 32.158766,21.979434 L 37.068811,17.246167 C 37.068811,17.246167 37.088388,32 37.088388,32 L 22.160133,31.978069 C 22.160133,31.978069 26.997745,27.140456 26.997745,27.140456 C 18.528582,18.264221 13.291696,25.230495 11.500037,31.436501 z"
     style="fill:#404040;"/>
  </a>
 </g>
</svg>

<style type='text/css'>
<![CDATA[
[data-mouse-over-selected='false'] { opacity: 0.7; }
[data-mouse-over-selected='true']  { opacity: 1.0; }
]]>
</style>
<script type="application/ecmascript"><![CDATA[
document.addEventListener('DOMContentLoaded', (event) => {
  highlightEdges();
  highlightAdjacentNodes();
});
]]></script>
</svg>
