<?xml version="1.0" encoding="UTF-8" standalone="no"?>
<!DOCTYPE svg PUBLIC "-//W3C//DTD SVG 1.1//EN"
 "http://www.w3.org/Graphics/SVG/1.1/DTD/svg11.dtd">
<!-- Generated by graphviz version 13.1.2 (20250808.2320)
 -->
<!-- Title: init_sequence_view Pages: 1 -->
<!--zoomable 1000 -->

<svg id="main" version="1.1" xmlns="http://www.w3.org/2000/svg" xmlns:xlink="http://www.w3.org/1999/xlink" xml:space="preserve" onload="init(evt)">

<style type="text/css"><![CDATA[
.node, .edge {opacity: 0.7;}
.node.selected, .edge.selected {opacity: 1;}
.edge:hover path { stroke: red; }
.edge:hover polygon { stroke: red; fill: red; }
]]></style>

<defs>
  <circle id="rim" cx="0" cy="0" r="7"/>
  <circle id="rim2" cx="0" cy="0" r="3.5"/>
  <g id="zoomPlus">
    <use xlink:href="#rim" fill="#404040"><set attributeName="fill" to="#808080" begin="zoomplus.mouseover" end="zoomplus.mouseout"/></use>
    <path d="M-4,0h8M0,-4v8" fill="none" stroke="white" stroke-width="1.5" pointer-events="none"/>
  </g>
  <g id="zoomMin">
    <use xlink:href="#rim" fill="#404040"><set attributeName="fill" to="#808080" begin="zoomminus.mouseover" end="zoomminus.mouseout"/></use>
    <path d="M-4,0h8" fill="none" stroke="white" stroke-width="1.5" pointer-events="none"/>
  </g>
  <g id="arrowUp" transform="translate(30 24)">
    <use xlink:href="#rim"/>
    <path pointer-events="none" fill="none" stroke="white" stroke-width="1.5" d="M0,-3.0v7 M-2.5,-0.5L0,-3.0L2.5,-0.5"/>
  </g>
  <g id="arrowRight" transform="rotate(90) translate(36 -43)">
    <use xlink:href="#rim"/>
    <path pointer-events="none" fill="none" stroke="white" stroke-width="1.5" d="M0,-3.0v7 M-2.5,-0.5L0,-3.0L2.5,-0.5"/>
  </g>
  <g id="arrowDown" transform="rotate(180) translate(-30 -48)">
    <use xlink:href="#rim"/>
    <path pointer-events="none" fill="none" stroke="white" stroke-width="1.5" d="M0,-3.0v7 M-2.5,-0.5L0,-3.0L2.5,-0.5"/>
  </g>
  <g id="arrowLeft" transform="rotate(270) translate(-36 17)">
    <use xlink:href="#rim"/>
    <path pointer-events="none" fill="none" stroke="white" stroke-width="1.5" d="M0,-3.0v7 M-2.5,-0.5L0,-3.0L2.5,-0.5"/>
  </g>
  <g id="resetDef">
    <use xlink:href="#rim2" fill="#404040"><set attributeName="fill" to="#808080" begin="reset.mouseover" end="reset.mouseout"/></use>
  </g>
</defs>
<script type="application/ecmascript">
var viewWidth = 904;
var viewHeight = 1000;
var sectionId = 'dynsection-6';
</script>
<script type="application/ecmascript" xlink:href="svg.min.js"/>
<svg id="graph" class="graph">
<g id="viewport">
<title>init_sequence_view</title>
<!-- Node1 -->
<g id="Node000001" class="node">
<title>Node1</title>
<g id="a_Node000001"><a xlink:title=" ">
<polygon fill="#999999" stroke="#666666" points="112,-259.15 0,-259.15 0,-238.4 112,-238.4 112,-259.15"/>
<text xml:space="preserve" text-anchor="middle" x="56" y="-245.65" font-family="Helvetica,sans-Serif" font-size="10.00">init_sequence_view</text>
</a>
</g>
</g>
<!-- Node2 -->
<g id="Node000002" class="node">
<title>Node2</title>
<g id="a_Node000002"><a xlink:href="kest__sequence__view_8c.html#ac871b24a7c875a7b6e707a3d2691a2a9" target="_top" xlink:title=" ">
<polygon fill="white" stroke="#666666" points="294.5,-672.15 152.5,-672.15 152.5,-651.4 294.5,-651.4 294.5,-672.15"/>
<text xml:space="preserve" text-anchor="middle" x="223.5" y="-658.65" font-family="Helvetica,sans-Serif" font-size="10.00">configure_sequence_view</text>
</a>
</g>
</g>
<!-- Node1&#45;&gt;Node2 -->
<g id="edge1_Node000001_Node000002" class="edge">
<title>Node1&#45;&gt;Node2</title>
<g id="a_edge1_Node000001_Node000002"><a xlink:title=" ">
<path fill="none" stroke="#63b8ff" d="M61.26,-259.4C83.25,-314.29 184.15,-566.07 214.1,-640.81"/>
<polygon fill="#63b8ff" stroke="#63b8ff" points="210.74,-641.84 217.71,-649.82 217.24,-639.23 210.74,-641.84"/>
</a>
</g>
</g>
<!-- Node27 -->
<g id="Node000027" class="node">
<title>Node27</title>
<g id="a_Node000027"><a xlink:href="kest__alloc_8c.html#a849755c5dc5b35e712ffcdb602e50fb4" target="_top" xlink:title=" ">
<polygon fill="white" stroke="#666666" points="863.75,-291.15 799,-291.15 799,-270.4 863.75,-270.4 863.75,-291.15"/>
<text xml:space="preserve" text-anchor="middle" x="831.38" y="-277.65" font-family="Helvetica,sans-Serif" font-size="10.00">kest_alloc</text>
</a>
</g>
</g>
<!-- Node1&#45;&gt;Node27 -->
<g id="edge48_Node000001_Node000027" class="edge">
<title>Node1&#45;&gt;Node27</title>
<g id="a_edge48_Node000001_Node000027"><a xlink:title=" ">
<path fill="none" stroke="#63b8ff" d="M67.79,-238.13C83.91,-222.81 115.83,-194.66 148,-178.78 298.68,-104.41 359.12,-90.56 522.75,-128.78 635.9,-155.21 755.22,-229.61 805.62,-263.53"/>
<polygon fill="#63b8ff" stroke="#63b8ff" points="803.54,-266.35 813.77,-269.09 807.48,-260.57 803.54,-266.35"/>
</a>
</g>
</g>
<!-- Node110 -->
<g id="Node000110" class="node">
<title>Node110</title>
<g id="a_Node000110"><a xlink:href="kest__sequence__view_8c.html#abc9a54120c4bc7c4fe6a4632764e5e91" target="_top" xlink:title=" ">
<polygon fill="white" stroke="#666666" points="487.5,-349.15 370.25,-349.15 370.25,-328.4 487.5,-328.4 487.5,-349.15"/>
<text xml:space="preserve" text-anchor="middle" x="428.88" y="-335.65" font-family="Helvetica,sans-Serif" font-size="10.00">seq_view_clicked_cb</text>
</a>
</g>
</g>
<!-- Node1&#45;&gt;Node110 -->
<g id="edge49_Node000001_Node000110" class="edge">
<title>Node1&#45;&gt;Node110</title>
<g id="a_edge49_Node000001_Node000110"><a xlink:title=" ">
<path fill="none" stroke="#63b8ff" d="M66.62,-259.61C81.96,-276.03 113.75,-306.68 148,-319.78 216.13,-345.82 300.33,-347.9 358.48,-345.13"/>
<polygon fill="#63b8ff" stroke="#63b8ff" points="358.45,-348.64 368.24,-344.6 358.07,-341.65 358.45,-348.64"/>
</a>
</g>
</g>
<!-- Node170 -->
<g id="Node000170" class="node">
<title>Node170</title>
<g id="a_Node000170"><a xlink:href="kest__ui_8c.html#aa35b25eb0a8f315343a7ea5190b0163b" target="_top" xlink:title=" ">
<polygon fill="white" stroke="#666666" points="869,-135.15 793.75,-135.15 793.75,-114.4 869,-114.4 869,-135.15"/>
<text xml:space="preserve" text-anchor="middle" x="831.38" y="-121.65" font-family="Helvetica,sans-Serif" font-size="10.00">init_ui_page</text>
</a>
</g>
</g>
<!-- Node1&#45;&gt;Node170 -->
<g id="edge43_Node000001_Node000170" class="edge">
<title>Node1&#45;&gt;Node170</title>
<g id="a_edge43_Node000001_Node000170"><a xlink:title=" ">
<path fill="none" stroke="#63b8ff" d="M57.89,-238.3C61.49,-203.42 78.3,-90.91 148,-45.78 210.5,-5.3 427.2,37.66 730.75,-58.78 761.37,-68.5 791.39,-90.61 810.34,-106.56"/>
<polygon fill="#63b8ff" stroke="#63b8ff" points="807.96,-109.13 817.81,-113.04 812.55,-103.84 807.96,-109.13"/>
</a>
</g>
</g>
<!-- Node200 -->
<g id="Node000200" class="node">
<title>Node200</title>
<g id="a_Node000200"><a xlink:href="kest__sequence__view_8c.html#a781781f2f55b9caaa4c9a9db94b566f5" target="_top" xlink:title=" ">
<polygon fill="white" stroke="#666666" points="487.5,-388.15 370.25,-388.15 370.25,-367.4 487.5,-367.4 487.5,-388.15"/>
<text xml:space="preserve" text-anchor="middle" x="428.88" y="-374.65" font-family="Helvetica,sans-Serif" font-size="10.00">seq_view_moved_cb</text>
</a>
</g>
</g>
<!-- Node1&#45;&gt;Node200 -->
<g id="edge50_Node000001_Node000200" class="edge">
<title>Node1&#45;&gt;Node200</title>
<g id="a_edge50_Node000001_Node000200"><a xlink:title=" ">
<path fill="none" stroke="#63b8ff" d="M63.15,-259.35C75.93,-280.21 107.56,-326.42 148,-346.78 213.91,-379.96 299.39,-384.79 358.45,-383.16"/>
<polygon fill="#63b8ff" stroke="#63b8ff" points="358.52,-386.66 368.39,-382.81 358.27,-379.67 358.52,-386.66"/>
</a>
</g>
</g>
<!-- Node204 -->
<g id="Node000204" class="node">
<title>Node204</title>
<g id="a_Node000204"><a xlink:href="kest__sequence__view_8c.html#a96499d9c3b8dc1327fa9141c44bafe2d" target="_top" xlink:title=" ">
<polygon fill="white" stroke="#666666" points="294.12,-259.15 152.88,-259.15 152.88,-238.4 294.12,-238.4 294.12,-259.15"/>
<text xml:space="preserve" text-anchor="middle" x="223.5" y="-245.65" font-family="Helvetica,sans-Serif" font-size="10.00">create_sequence_view_ui</text>
</a>
</g>
</g>
<!-- Node1&#45;&gt;Node204 -->
<g id="edge38_Node000001_Node000204" class="edge">
<title>Node1&#45;&gt;Node204</title>
<g id="a_edge38_Node000001_Node000204"><a xlink:title=" ">
<path fill="none" stroke="#63b8ff" d="M112.11,-248.78C121.44,-248.78 131.29,-248.78 141.12,-248.78"/>
<polygon fill="#63b8ff" stroke="#63b8ff" points="141.1,-252.28 151.1,-248.78 141.1,-245.28 141.1,-252.28"/>
</a>
</g>
</g>
<!-- Node173 -->
<g id="Node000173" class="node">
<title>Node173</title>
<g id="a_Node000173"><a xlink:href="kest__button_8c.html#aa8b7e33df0eaac17a63df490fcdadc60" target="_top" xlink:title=" ">
<polygon fill="#fff0f0" stroke="red" points="277.62,-88.53 169.38,-88.53 169.38,-55.03 277.62,-55.03 277.62,-88.53"/>
<text xml:space="preserve" text-anchor="start" x="177.38" y="-75.03" font-family="Helvetica,sans-Serif" font-size="10.00">kest_active_button</text>
<text xml:space="preserve" text-anchor="middle" x="223.5" y="-62.28" font-family="Helvetica,sans-Serif" font-size="10.00">_array_new</text>
</a>
</g>
</g>
<!-- Node1&#45;&gt;Node173 -->
<g id="edge44_Node000001_Node000173" class="edge">
<title>Node1&#45;&gt;Node173</title>
<g id="a_edge44_Node000001_Node000173"><a xlink:title=" ">
<path fill="none" stroke="#63b8ff" d="M60.99,-238.03C71.34,-211.51 101.55,-142.21 148,-102.78 151.6,-99.72 155.55,-96.93 159.69,-94.38"/>
<polygon fill="#63b8ff" stroke="#63b8ff" points="161.24,-97.53 168.3,-89.63 157.86,-91.4 161.24,-97.53"/>
</a>
</g>
</g>
<!-- Node175 -->
<g id="Node000175" class="node">
<title>Node175</title>
<g id="a_Node000175"><a xlink:href="kest__button_8c.html#a95418b04a55bd08c5da1f31e035bec0b" target="_top" xlink:title=" ">
<polygon fill="white" stroke="#666666" points="277.62,-310.53 169.38,-310.53 169.38,-277.03 277.62,-277.03 277.62,-310.53"/>
<text xml:space="preserve" text-anchor="start" x="177.38" y="-297.03" font-family="Helvetica,sans-Serif" font-size="10.00">kest_active_button</text>
<text xml:space="preserve" text-anchor="middle" x="223.5" y="-284.28" font-family="Helvetica,sans-Serif" font-size="10.00">_array_set_length</text>
</a>
</g>
</g>
<!-- Node1&#45;&gt;Node175 -->
<g id="edge46_Node000001_Node000175" class="edge">
<title>Node1&#45;&gt;Node175</title>
<g id="a_edge46_Node000001_Node000175"><a xlink:title=" ">
<path fill="none" stroke="#63b8ff" d="M96.64,-259.56C115.04,-264.56 137.39,-270.63 158.12,-276.27"/>
<polygon fill="#63b8ff" stroke="#63b8ff" points="157.07,-279.61 167.64,-278.86 158.91,-272.86 157.07,-279.61"/>
</a>
</g>
</g>
<!-- Node205 -->
<g id="Node000205" class="node">
<title>Node205</title>
<g id="a_Node000205"><a xlink:href="kest__sequence__view_8c.html#a18341f03445e1f2f63bf07b4a97715aa" target="_top" xlink:title=" ">
<polygon fill="white" stroke="#666666" points="299,-208.15 148,-208.15 148,-187.4 299,-187.4 299,-208.15"/>
<text xml:space="preserve" text-anchor="middle" x="223.5" y="-194.65" font-family="Helvetica,sans-Serif" font-size="10.00">sequence_view_rep_update</text>
</a>
</g>
</g>
<!-- Node1&#45;&gt;Node205 -->
<g id="edge51_Node000001_Node000205" class="edge">
<title>Node1&#45;&gt;Node205</title>
<g id="a_edge51_Node000001_Node000205"><a xlink:title=" ">
<path fill="none" stroke="#63b8ff" d="M92.1,-237.96C116.78,-230.35 150.05,-220.1 176.8,-211.86"/>
<polygon fill="#63b8ff" stroke="#63b8ff" points="177.48,-215.31 186.01,-209.02 175.42,-208.62 177.48,-215.31"/>
</a>
</g>
</g>
<!-- Node3 -->
<g id="Node000003" class="node">
<title>Node3</title>
<g id="a_Node000003"><a xlink:href="kest__button_8c.html#a760fe364ce4f5be2c972ff685e2f9825" target="_top" xlink:title=" ">
<polygon fill="white" stroke="#666666" points="701.5,-838.53 588,-838.53 588,-805.03 701.5,-805.03 701.5,-838.53"/>
<text xml:space="preserve" text-anchor="start" x="596" y="-825.03" font-family="Helvetica,sans-Serif" font-size="10.00">kest_active_button</text>
<text xml:space="preserve" text-anchor="middle" x="644.75" y="-812.28" font-family="Helvetica,sans-Serif" font-size="10.00">_array_append_new</text>
</a>
</g>
</g>
<!-- Node2&#45;&gt;Node3 -->
<g id="edge2_Node000002_Node000003" class="edge">
<title>Node2&#45;&gt;Node3</title>
<g id="a_edge2_Node000002_Node000003"><a xlink:title=" ">
<path fill="none" stroke="#63b8ff" d="M225.08,-672.62C227.95,-714.27 244.46,-864.61 335,-924.78 404.5,-970.96 444.44,-953.59 522.75,-924.78 564.49,-909.42 601.64,-872.56 623.43,-847.37"/>
<polygon fill="#63b8ff" stroke="#63b8ff" points="626.01,-849.74 629.77,-839.84 620.65,-845.23 626.01,-849.74"/>
</a>
</g>
</g>
<!-- Node46 -->
<g id="Node000046" class="node">
<title>Node46</title>
<g id="a_Node000046"><a xlink:href="kest__button_8c.html#a9d42d7845b1fcdaa4ee416ae86f6bc7e" target="_top" xlink:title=" ">
<polygon fill="white" stroke="#666666" points="701.12,-696.53 588.38,-696.53 588.38,-663.03 701.12,-663.03 701.12,-696.53"/>
<text xml:space="preserve" text-anchor="start" x="596.38" y="-683.03" font-family="Helvetica,sans-Serif" font-size="10.00">kest_active_button</text>
<text xml:space="preserve" text-anchor="middle" x="644.75" y="-670.28" font-family="Helvetica,sans-Serif" font-size="10.00">_set_representation</text>
</a>
</g>
</g>
<!-- Node2&#45;&gt;Node46 -->
<g id="edge8_Node000002_Node000046" class="edge">
<title>Node2&#45;&gt;Node46</title>
<g id="a_edge8_Node000002_Node000046"><a xlink:title=" ">
<path fill="none" stroke="#63b8ff" d="M294.67,-664.79C373.16,-668.16 499.39,-673.58 576.62,-676.9"/>
<polygon fill="#63b8ff" stroke="#63b8ff" points="576.46,-680.39 586.6,-677.32 576.76,-673.4 576.46,-680.39"/>
</a>
</g>
</g>
<!-- Node47 -->
<g id="Node000047" class="node">
<title>Node47</title>
<g id="a_Node000047"><a xlink:href="kest__sequence_8c.html#a60f24feb1fb98af80a63a812fcee06fe" target="_top" xlink:title=" ">
<polygon fill="white" stroke="#666666" points="522.75,-748.15 335,-748.15 335,-727.4 522.75,-727.4 522.75,-748.15"/>
<text xml:space="preserve" text-anchor="middle" x="428.88" y="-734.65" font-family="Helvetica,sans-Serif" font-size="10.00">kest_sequence_add_representation</text>
</a>
</g>
</g>
<!-- Node2&#45;&gt;Node47 -->
<g id="edge9_Node000002_Node000047" class="edge">
<title>Node2&#45;&gt;Node47</title>
<g id="a_edge9_Node000002_Node000047"><a xlink:title=" ">
<path fill="none" stroke="#63b8ff" d="M244.38,-672.52C266.14,-683.95 302.29,-701.97 335,-713.78 345.57,-717.59 357.03,-721.07 368.16,-724.11"/>
<polygon fill="#63b8ff" stroke="#63b8ff" points="367.12,-727.46 377.69,-726.62 368.91,-720.69 367.12,-727.46"/>
</a>
</g>
</g>
<!-- Node48 -->
<g id="Node000048" class="node">
<title>Node48</title>
<g id="a_Node000048"><a xlink:href="kest__ui_8c.html#a01360963fabe989a816b58c78cbc041b" target="_top" xlink:title=" ">
<polygon fill="white" stroke="#666666" points="463.12,-544.15 394.62,-544.15 394.62,-523.4 463.12,-523.4 463.12,-544.15"/>
<text xml:space="preserve" text-anchor="middle" x="428.88" y="-530.65" font-family="Helvetica,sans-Serif" font-size="10.00">new_panel</text>
</a>
</g>
</g>
<!-- Node2&#45;&gt;Node48 -->
<g id="edge10_Node000002_Node000048" class="edge">
<title>Node2&#45;&gt;Node48</title>
<g id="a_edge10_Node000002_Node000048"><a xlink:title=" ">
<path fill="none" stroke="#63b8ff" d="M231.94,-651.06C247.98,-628.84 288.17,-577.77 335,-552.78 349.72,-544.92 367.35,-540.31 383.28,-537.6"/>
<polygon fill="#63b8ff" stroke="#63b8ff" points="383.62,-541.09 393.01,-536.17 382.6,-534.16 383.62,-541.09"/>
</a>
</g>
</g>
<!-- Node50 -->
<g id="Node000050" class="node">
<title>Node50</title>
<g id="a_Node000050"><a xlink:href="kest__sequence__view_8c.html#a4d67fe5ecc44c7b1bff00ec58e369dad" target="_top" xlink:title=" ">
<polygon fill="white" stroke="#666666" points="466.88,-634.15 390.88,-634.15 390.88,-613.4 466.88,-613.4 466.88,-634.15"/>
<text xml:space="preserve" text-anchor="middle" x="428.88" y="-620.65" font-family="Helvetica,sans-Serif" font-size="10.00">seq_play_cb</text>
</a>
</g>
</g>
<!-- Node2&#45;&gt;Node50 -->
<g id="edge13_Node000002_Node000050" class="edge">
<title>Node2&#45;&gt;Node50</title>
<g id="a_edge13_Node000002_Node000050"><a xlink:title=" ">
<path fill="none" stroke="#63b8ff" d="M282.51,-650.94C313.19,-645.21 350.42,-638.25 379.52,-632.81"/>
<polygon fill="#63b8ff" stroke="#63b8ff" points="379.97,-636.29 389.16,-631.01 378.68,-629.41 379.97,-636.29"/>
</a>
</g>
</g>
<!-- Node89 -->
<g id="Node000089" class="node">
<title>Node89</title>
<g id="a_Node000089"><a xlink:href="kest__sequence__view_8c.html#a83d1a352af6a3932ce4d08e01f7d8d8a" target="_top" xlink:title=" ">
<polygon fill="#fff0f0" stroke="red" points="466.5,-787.15 391.25,-787.15 391.25,-766.4 466.5,-766.4 466.5,-787.15"/>
<text xml:space="preserve" text-anchor="middle" x="428.88" y="-773.65" font-family="Helvetica,sans-Serif" font-size="10.00">seq_plus_cb</text>
</a>
</g>
</g>
<!-- Node2&#45;&gt;Node89 -->
<g id="edge15_Node000002_Node000089" class="edge">
<title>Node2&#45;&gt;Node89</title>
<g id="a_edge15_Node000002_Node000089"><a xlink:title=" ">
<path fill="none" stroke="#63b8ff" d="M233.61,-672.57C251.09,-692.53 291.5,-735.16 335,-756.78 348.77,-763.62 364.83,-768.13 379.69,-771.1"/>
<polygon fill="#63b8ff" stroke="#63b8ff" points="378.8,-774.5 389.26,-772.82 380.04,-767.61 378.8,-774.5"/>
</a>
</g>
</g>
<!-- Node94 -->
<g id="Node000094" class="node">
<title>Node94</title>
<g id="a_Node000094"><a xlink:href="kest__sequence__view_8c.html#a08de2e10fc1c406742820cb4edd78cc3" target="_top" xlink:title=" ">
<polygon fill="#fff0f0" stroke="red" points="708.25,-748.53 581.25,-748.53 581.25,-715.03 708.25,-715.03 708.25,-748.53"/>
<text xml:space="preserve" text-anchor="start" x="589.25" y="-735.03" font-family="Helvetica,sans-Serif" font-size="10.00">sequence_view_preset</text>
<text xml:space="preserve" text-anchor="middle" x="644.75" y="-722.28" font-family="Helvetica,sans-Serif" font-size="10.00">_button_rep_update</text>
</a>
</g>
</g>
<!-- Node2&#45;&gt;Node94 -->
<g id="edge30_Node000002_Node000094" class="edge">
<title>Node2&#45;&gt;Node94</title>
<g id="a_edge30_Node000002_Node000094"><a xlink:title=" ">
<path fill="none" stroke="#63b8ff" d="M273.62,-672.6C292.73,-676.65 314.85,-681.15 335,-684.78 414.87,-699.16 506.9,-712.79 569.56,-721.63"/>
<polygon fill="#63b8ff" stroke="#63b8ff" points="569.02,-725.09 579.4,-723.02 569.99,-718.16 569.02,-725.09"/>
</a>
</g>
</g>
<!-- Node101 -->
<g id="Node000101" class="node">
<title>Node101</title>
<g id="a_Node000101"><a xlink:href="kest__sequence__view_8c.html#a48d14522bbc105d8b61111d5dc6a7c8f" target="_top" xlink:title=" ">
<polygon fill="#fff0f0" stroke="red" points="468,-505.15 389.75,-505.15 389.75,-484.4 468,-484.4 468,-505.15"/>
<text xml:space="preserve" text-anchor="middle" x="428.88" y="-491.65" font-family="Helvetica,sans-Serif" font-size="10.00">seq_save_cb</text>
</a>
</g>
</g>
<!-- Node2&#45;&gt;Node101 -->
<g id="edge21_Node000002_Node000101" class="edge">
<title>Node2&#45;&gt;Node101</title>
<g id="a_edge21_Node000002_Node000101"><a xlink:title=" ">
<path fill="none" stroke="#63b8ff" d="M229.16,-651.2C241.81,-623.81 279.6,-550.22 335,-514.78 347.84,-506.56 363.52,-501.67 378.31,-498.77"/>
<polygon fill="#63b8ff" stroke="#63b8ff" points="378.61,-502.27 387.89,-497.18 377.45,-495.37 378.61,-502.27"/>
</a>
</g>
</g>
<!-- Node2&#45;&gt;Node110 -->
<g id="edge22_Node000002_Node000110" class="edge">
<title>Node2&#45;&gt;Node110</title>
<g id="a_edge22_Node000002_Node000110"><a xlink:title=" ">
<path fill="none" stroke="#63b8ff" d="M224.88,-651.19C227.07,-607.57 241.48,-440.24 335,-358.78 341.99,-352.69 350.38,-348.32 359.22,-345.19"/>
<polygon fill="#63b8ff" stroke="#63b8ff" points="360.11,-348.57 368.71,-342.39 358.13,-341.86 360.11,-348.57"/>
</a>
</g>
</g>
<!-- Node193 -->
<g id="Node000193" class="node">
<title>Node193</title>
<g id="a_Node000193"><a xlink:href="kest__sequence__view_8c.html#aa3f0ce5b257c2a9a76df997c35718cbd" target="_top" xlink:title=" ">
<polygon fill="#fff0f0" stroke="red" points="486,-466.15 371.75,-466.15 371.75,-445.4 486,-445.4 486,-466.15"/>
<text xml:space="preserve" text-anchor="middle" x="428.88" y="-452.65" font-family="Helvetica,sans-Serif" font-size="10.00">seq_view_delete_cb</text>
</a>
</g>
</g>
<!-- Node2&#45;&gt;Node193 -->
<g id="edge27_Node000002_Node000193" class="edge">
<title>Node2&#45;&gt;Node193</title>
<g id="a_edge27_Node000002_Node000193"><a xlink:title=" ">
<path fill="none" stroke="#63b8ff" d="M227.44,-651.3C237,-619.31 270.35,-522.27 335,-475.78 342.7,-470.24 351.63,-466.18 360.84,-463.22"/>
<polygon fill="#63b8ff" stroke="#63b8ff" points="361.56,-466.65 370.27,-460.62 359.7,-459.9 361.56,-466.65"/>
</a>
</g>
</g>
<!-- Node2&#45;&gt;Node200 -->
<g id="edge28_Node000002_Node000200" class="edge">
<title>Node2&#45;&gt;Node200</title>
<g id="a_edge28_Node000002_Node000200"><a xlink:title=" ">
<path fill="none" stroke="#63b8ff" d="M225.54,-650.91C230.04,-610.42 251.5,-467.15 335,-397.78 342.04,-391.93 350.38,-387.68 359.14,-384.61"/>
<polygon fill="#63b8ff" stroke="#63b8ff" points="359.91,-388.03 368.51,-381.84 357.93,-381.31 359.91,-388.03"/>
</a>
</g>
</g>
<!-- Node202 -->
<g id="Node000202" class="node">
<title>Node202</title>
<g id="a_Node000202"><a xlink:href="kest__sequence__view_8c.html#a5da73a414e449a9425efa9c9d008323d" target="_top" xlink:title=" ">
<polygon fill="#fff0f0" stroke="red" points="508.12,-992.15 349.62,-992.15 349.62,-971.4 508.12,-971.4 508.12,-992.15"/>
<text xml:space="preserve" text-anchor="middle" x="428.88" y="-978.65" font-family="Helvetica,sans-Serif" font-size="10.00">sequence_view_revert_name</text>
</a>
</g>
</g>
<!-- Node2&#45;&gt;Node202 -->
<g id="edge31_Node000002_Node000202" class="edge">
<title>Node2&#45;&gt;Node202</title>
<g id="a_edge31_Node000002_Node000202"><a xlink:title=" ">
<path fill="none" stroke="#63b8ff" d="M225.1,-672.6C228.1,-715.73 245.13,-876.83 335,-957.78 338.38,-960.82 342.1,-963.5 346.05,-965.83"/>
<polygon fill="#63b8ff" stroke="#63b8ff" points="344.41,-968.93 354.91,-970.31 347.56,-962.68 344.41,-968.93"/>
</a>
</g>
</g>
<!-- Node203 -->
<g id="Node000203" class="node">
<title>Node203</title>
<g id="a_Node000203"><a xlink:href="kest__sequence__view_8c.html#a9a770d265f15421aca3cec3f9d758e30" target="_top" xlink:title=" ">
<polygon fill="#fff0f0" stroke="red" points="501,-427.15 356.75,-427.15 356.75,-406.4 501,-406.4 501,-427.15"/>
<text xml:space="preserve" text-anchor="middle" x="428.88" y="-413.65" font-family="Helvetica,sans-Serif" font-size="10.00">sequence_view_set_name</text>
</a>
</g>
</g>
<!-- Node2&#45;&gt;Node203 -->
<g id="edge32_Node000002_Node000203" class="edge">
<title>Node2&#45;&gt;Node203</title>
<g id="a_edge32_Node000002_Node000203"><a xlink:title=" ">
<path fill="none" stroke="#63b8ff" d="M226.37,-651C233.31,-614.49 261.1,-494.51 335,-436.78 338.48,-434.06 342.25,-431.69 346.22,-429.62"/>
<polygon fill="#63b8ff" stroke="#63b8ff" points="347.3,-432.97 355.01,-425.71 344.45,-426.57 347.3,-432.97"/>
</a>
</g>
</g>
<!-- Node116 -->
<g id="Node000116" class="node">
<title>Node116</title>
<g id="a_Node000116"><a xlink:href="kest__ui_8c.html#a349acdb394f97d782e6b5828af856b05" target="_top" xlink:title=" ">
<polygon fill="#fff0f0" stroke="red" points="500.25,-916.15 357.5,-916.15 357.5,-895.4 500.25,-895.4 500.25,-916.15"/>
<text xml:space="preserve" text-anchor="middle" x="428.88" y="-902.65" font-family="Helvetica,sans-Serif" font-size="10.00">ui_page_add_back_button</text>
</a>
</g>
</g>
<!-- Node2&#45;&gt;Node116 -->
<g id="edge35_Node000002_Node000116" class="edge">
<title>Node2&#45;&gt;Node116</title>
<g id="a_edge35_Node000002_Node000116"><a xlink:title=" ">
<path fill="none" stroke="#63b8ff" d="M226.35,-672.58C233.22,-709.19 260.8,-829.42 335,-886.78 338.74,-889.66 342.8,-892.14 347.07,-894.27"/>
<polygon fill="#63b8ff" stroke="#63b8ff" points="345.4,-897.36 355.97,-898.03 348.12,-890.91 345.4,-897.36"/>
</a>
</g>
</g>
<!-- Node136 -->
<g id="Node000136" class="node">
<title>Node136</title>
<g id="a_Node000136"><a xlink:href="kest__ui_8c.html#a446fd8da13243be96d2ce6a5ff1f1f7b" target="_top" xlink:title=" ">
<polygon fill="#fff0f0" stroke="red" points="487.88,-877.53 369.88,-877.53 369.88,-844.03 487.88,-844.03 487.88,-877.53"/>
<text xml:space="preserve" text-anchor="start" x="377.88" y="-864.03" font-family="Helvetica,sans-Serif" font-size="10.00">ui_page_add_bottom</text>
<text xml:space="preserve" text-anchor="middle" x="428.88" y="-851.28" font-family="Helvetica,sans-Serif" font-size="10.00">_button</text>
</a>
</g>
</g>
<!-- Node2&#45;&gt;Node136 -->
<g id="edge36_Node000002_Node000136" class="edge">
<title>Node2&#45;&gt;Node136</title>
<g id="a_edge36_Node000002_Node000136"><a xlink:title=" ">
<path fill="none" stroke="#63b8ff" d="M228.25,-672.65C239.37,-703.19 275.15,-790.43 335,-834.78 342.09,-840.03 350.21,-844.23 358.62,-847.57"/>
<polygon fill="#63b8ff" stroke="#63b8ff" points="357.35,-850.84 367.95,-850.87 359.69,-844.24 357.35,-850.84"/>
</a>
</g>
</g>
<!-- Node139 -->
<g id="Node000139" class="node">
<title>Node139</title>
<g id="a_Node000139"><a xlink:href="kest__ui_8c.html#a142d4ec0779ace260353dfeb5a572a93" target="_top" xlink:title=" ">
<polygon fill="white" stroke="#666666" points="487.12,-826.15 370.62,-826.15 370.62,-805.4 487.12,-805.4 487.12,-826.15"/>
<text xml:space="preserve" text-anchor="middle" x="428.88" y="-812.65" font-family="Helvetica,sans-Serif" font-size="10.00">ui_page_set_title_rw</text>
</a>
</g>
</g>
<!-- Node2&#45;&gt;Node139 -->
<g id="edge37_Node000002_Node000139" class="edge">
<title>Node2&#45;&gt;Node139</title>
<g id="a_edge37_Node000002_Node000139"><a xlink:title=" ">
<path fill="none" stroke="#63b8ff" d="M230.02,-672.54C243.87,-698.34 282.71,-763.96 335,-795.78 342.53,-800.36 350.96,-803.9 359.59,-806.63"/>
<polygon fill="#63b8ff" stroke="#63b8ff" points="358.55,-809.98 369.12,-809.28 360.42,-803.23 358.55,-809.98"/>
</a>
</g>
</g>
<!-- Node4 -->
<g id="Node000004" class="node">
<title>Node4</title>
<g id="a_Node000004"><a xlink:href="kest__button_8c.html#a209511305dd2db40751857097e1e82c1" target="_top" xlink:title=" ">
<polygon fill="#fff0f0" stroke="red" points="885.5,-890.53 777.25,-890.53 777.25,-857.03 885.5,-857.03 885.5,-890.53"/>
<text xml:space="preserve" text-anchor="start" x="785.25" y="-877.03" font-family="Helvetica,sans-Serif" font-size="10.00">kest_active_button</text>
<text xml:space="preserve" text-anchor="middle" x="831.38" y="-864.28" font-family="Helvetica,sans-Serif" font-size="10.00">_add_del_button</text>
</a>
</g>
</g>
<!-- Node3&#45;&gt;Node4 -->
<g id="edge3_Node000003_Node000004" class="edge">
<title>Node3&#45;&gt;Node4</title>
<g id="a_edge3_Node000003_Node000004"><a xlink:title=" ">
<path fill="none" stroke="#63b8ff" d="M701.9,-837.59C722.13,-843.29 745.12,-849.76 766,-855.65"/>
<polygon fill="#63b8ff" stroke="#63b8ff" points="764.99,-859 775.57,-858.34 766.89,-852.26 764.99,-859"/>
</a>
</g>
</g>
<!-- Node28 -->
<g id="Node000028" class="node">
<title>Node28</title>
<g id="a_Node000028"><a xlink:href="kest__button_8c.html#a591c84573c4b4dfefa4c6b1445fc290e" target="_top" xlink:title=" ">
<polygon fill="#fff0f0" stroke="red" points="885.5,-838.53 777.25,-838.53 777.25,-805.03 885.5,-805.03 885.5,-838.53"/>
<text xml:space="preserve" text-anchor="start" x="785.25" y="-825.03" font-family="Helvetica,sans-Serif" font-size="10.00">kest_active_button</text>
<text xml:space="preserve" text-anchor="middle" x="831.38" y="-812.28" font-family="Helvetica,sans-Serif" font-size="10.00">_array_append</text>
</a>
</g>
</g>
<!-- Node3&#45;&gt;Node28 -->
<g id="edge4_Node000003_Node000028" class="edge">
<title>Node3&#45;&gt;Node28</title>
<g id="a_edge4_Node000003_Node000028"><a xlink:title=" ">
<path fill="none" stroke="#63b8ff" d="M701.9,-821.78C722.04,-821.78 744.9,-821.78 765.71,-821.78"/>
<polygon fill="#63b8ff" stroke="#63b8ff" points="765.51,-825.28 775.51,-821.78 765.51,-818.28 765.51,-825.28"/>
</a>
</g>
</g>
<!-- Node29 -->
<g id="Node000029" class="node">
<title>Node29</title>
<g id="a_Node000029"><a xlink:href="kest__button_8c.html#a9cc8b0c8114bbffc12e858af8589ff86" target="_top" xlink:title=" ">
<polygon fill="#fff0f0" stroke="red" points="896,-787.15 766.75,-787.15 766.75,-766.4 896,-766.4 896,-787.15"/>
<text xml:space="preserve" text-anchor="middle" x="831.38" y="-773.65" font-family="Helvetica,sans-Serif" font-size="10.00">kest_active_button_init</text>
</a>
</g>
</g>
<!-- Node3&#45;&gt;Node29 -->
<g id="edge5_Node000003_Node000029" class="edge">
<title>Node3&#45;&gt;Node29</title>
<g id="a_edge5_Node000003_Node000029"><a xlink:title=" ">
<path fill="none" stroke="#63b8ff" d="M701.9,-808.09C725.05,-802.45 751.82,-795.92 774.9,-790.3"/>
<polygon fill="#63b8ff" stroke="#63b8ff" points="775.55,-793.74 784.44,-787.97 773.89,-786.94 775.55,-793.74"/>
</a>
</g>
</g>
<!-- Node3&#45;&gt;Node27 -->
<g id="edge6_Node000003_Node000027" class="edge">
<title>Node3&#45;&gt;Node27</title>
<g id="a_edge6_Node000003_Node000027"><a xlink:title=" ">
<path fill="none" stroke="#63b8ff" d="M701.57,-814.11C712.55,-810.21 723.04,-804.41 730.75,-795.78 788.89,-730.71 750.29,-688.47 766.75,-602.78 788.44,-489.82 815.48,-354.8 825.95,-302.74"/>
<polygon fill="#63b8ff" stroke="#63b8ff" points="829.35,-303.59 827.89,-293.09 822.49,-302.21 829.35,-303.59"/>
</a>
</g>
</g>
<!-- Node19 -->
<g id="Node000019" class="node">
<title>Node19</title>
<g id="a_Node000019"><a xlink:href="kest__alloc_8c.html#a294af5728a94aa316fcf65304d388d48" target="_top" xlink:title=" ">
<polygon fill="white" stroke="#666666" points="861.88,-632.15 800.88,-632.15 800.88,-611.4 861.88,-611.4 861.88,-632.15"/>
<text xml:space="preserve" text-anchor="middle" x="831.38" y="-618.65" font-family="Helvetica,sans-Serif" font-size="10.00">kest_free</text>
</a>
</g>
</g>
<!-- Node3&#45;&gt;Node19 -->
<g id="edge7_Node000003_Node000019" class="edge">
<title>Node3&#45;&gt;Node19</title>
<g id="a_edge7_Node000003_Node000019"><a xlink:title=" ">
<path fill="none" stroke="#63b8ff" d="M701.79,-811.22C712.13,-807.52 722.31,-802.52 730.75,-795.78 757.35,-774.53 801.47,-684.16 820.8,-642.71"/>
<polygon fill="#63b8ff" stroke="#63b8ff" points="823.91,-644.33 824.93,-633.79 817.55,-641.4 823.91,-644.33"/>
</a>
</g>
</g>
<!-- Node48&#45;&gt;Node27 -->
<g id="edge12_Node000048_Node000027" class="edge">
<title>Node48&#45;&gt;Node27</title>
<g id="a_edge12_Node000048_Node000027"><a xlink:title=" ">
<path fill="none" stroke="#63b8ff" d="M463.43,-532.5C523.31,-528.59 649.86,-512.76 730.75,-448.78 780.69,-409.28 810.97,-337.34 823.56,-301.8"/>
<polygon fill="#63b8ff" stroke="#63b8ff" points="826.76,-303.27 826.67,-292.67 820.13,-301.01 826.76,-303.27"/>
</a>
</g>
</g>
<!-- Node49 -->
<g id="Node000049" class="node">
<title>Node49</title>
<g id="a_Node000049"><a xlink:href="kest__ui_8c.html#a574d886c7fb2ce9bcf04b4a1e94576ac" target="_top" xlink:title=" ">
<polygon fill="white" stroke="#666666" points="676.75,-554.15 612.75,-554.15 612.75,-533.4 676.75,-533.4 676.75,-554.15"/>
<text xml:space="preserve" text-anchor="middle" x="644.75" y="-540.65" font-family="Helvetica,sans-Serif" font-size="10.00">init_panel</text>
</a>
</g>
</g>
<!-- Node48&#45;&gt;Node49 -->
<g id="edge11_Node000048_Node000049" class="edge">
<title>Node48&#45;&gt;Node49</title>
<g id="a_edge11_Node000048_Node000049"><a xlink:title=" ">
<path fill="none" stroke="#63b8ff" d="M463.29,-535.34C500.4,-537.07 560.39,-539.88 600.92,-541.77"/>
<polygon fill="#63b8ff" stroke="#63b8ff" points="600.64,-545.27 610.8,-542.24 600.97,-538.27 600.64,-545.27"/>
</a>
</g>
</g>
<!-- Node51 -->
<g id="Node000051" class="node">
<title>Node51</title>
<g id="a_Node000051"><a xlink:href="kest__sequence_8c.html#adf2bc7c26b0bead2b6bd85fcd9bc6248" target="_top" xlink:title=" ">
<polygon fill="#fff0f0" stroke="red" points="704.88,-593.15 584.62,-593.15 584.62,-572.4 704.88,-572.4 704.88,-593.15"/>
<text xml:space="preserve" text-anchor="middle" x="644.75" y="-579.65" font-family="Helvetica,sans-Serif" font-size="10.00">kest_sequence_begin</text>
</a>
</g>
</g>
<!-- Node50&#45;&gt;Node51 -->
<g id="edge14_Node000050_Node000051" class="edge">
<title>Node50&#45;&gt;Node51</title>
<g id="a_edge14_Node000050_Node000051"><a xlink:title=" ">
<path fill="none" stroke="#63b8ff" d="M467.13,-616.64C497.17,-610.88 540.21,-602.63 576.28,-595.71"/>
<polygon fill="#63b8ff" stroke="#63b8ff" points="576.58,-599.22 585.75,-593.9 575.27,-592.34 576.58,-599.22"/>
</a>
</g>
</g>
<!-- Node89&#45;&gt;Node3 -->
<g id="edge16_Node000089_Node000003" class="edge">
<title>Node89&#45;&gt;Node3</title>
<g id="a_edge16_Node000089_Node000003"><a xlink:title=" ">
<path fill="none" stroke="#63b8ff" d="M466.64,-784.51C496.84,-790.87 540.4,-800.03 576.77,-807.68"/>
<polygon fill="#63b8ff" stroke="#63b8ff" points="575.81,-811.06 586.32,-809.69 577.25,-804.21 575.81,-811.06"/>
</a>
</g>
</g>
<!-- Node89&#45;&gt;Node46 -->
<g id="edge18_Node000089_Node000046" class="edge">
<title>Node89&#45;&gt;Node46</title>
<g id="a_edge18_Node000089_Node000046"><a xlink:title=" ">
<path fill="none" stroke="#63b8ff" d="M466.68,-775.08C484.8,-772.77 506.24,-767.69 522.75,-756.78 545.89,-741.48 536.27,-722.04 558.75,-705.78 564.49,-701.62 570.91,-698.12 577.58,-695.17"/>
<polygon fill="#63b8ff" stroke="#63b8ff" points="578.77,-698.46 586.79,-691.53 576.2,-691.95 578.77,-698.46"/>
</a>
</g>
</g>
<!-- Node90 -->
<g id="Node000090" class="node">
<title>Node90</title>
<g id="a_Node000090"><a xlink:href="kest__button_8c.html#a5fdea311fb351ff8f9d27116813f35a8" target="_top" xlink:title=" ">
<polygon fill="#fff0f0" stroke="red" points="698.88,-644.53 590.62,-644.53 590.62,-611.03 698.88,-611.03 698.88,-644.53"/>
<text xml:space="preserve" text-anchor="start" x="598.62" y="-631.03" font-family="Helvetica,sans-Serif" font-size="10.00">kest_active_button</text>
<text xml:space="preserve" text-anchor="middle" x="644.75" y="-618.28" font-family="Helvetica,sans-Serif" font-size="10.00">_create_ui</text>
</a>
</g>
</g>
<!-- Node89&#45;&gt;Node90 -->
<g id="edge17_Node000089_Node000090" class="edge">
<title>Node89&#45;&gt;Node90</title>
<g id="a_edge17_Node000089_Node000090"><a xlink:title=" ">
<path fill="none" stroke="#63b8ff" d="M466.72,-777.06C485.51,-775.35 507.54,-770.2 522.75,-756.78 559.1,-724.68 523.79,-687.39 558.75,-653.78 564.72,-648.04 571.91,-643.57 579.56,-640.08"/>
<polygon fill="#63b8ff" stroke="#63b8ff" points="580.76,-643.37 588.79,-636.46 578.2,-636.85 580.76,-643.37"/>
</a>
</g>
</g>
<!-- Node92 -->
<g id="Node000092" class="node">
<title>Node92</title>
<g id="a_Node000092"><a xlink:href="kest__preset_8c.html#a8e83d82d4259482016e0639c7cef1a49" target="_top" xlink:title=" ">
<polygon fill="white" stroke="#666666" points="730.75,-787.15 558.75,-787.15 558.75,-766.4 730.75,-766.4 730.75,-787.15"/>
<text xml:space="preserve" text-anchor="middle" x="644.75" y="-773.65" font-family="Helvetica,sans-Serif" font-size="10.00">kest_preset_add_representation</text>
</a>
</g>
</g>
<!-- Node89&#45;&gt;Node92 -->
<g id="edge19_Node000089_Node000092" class="edge">
<title>Node89&#45;&gt;Node92</title>
<g id="a_edge19_Node000089_Node000092"><a xlink:title=" ">
<path fill="none" stroke="#63b8ff" d="M466.64,-776.78C488.99,-776.78 518.67,-776.78 547.33,-776.78"/>
<polygon fill="#63b8ff" stroke="#63b8ff" points="547.16,-780.28 557.16,-776.78 547.16,-773.28 547.16,-780.28"/>
</a>
</g>
</g>
<!-- Node89&#45;&gt;Node94 -->
<g id="edge20_Node000089_Node000094" class="edge">
<title>Node89&#45;&gt;Node94</title>
<g id="a_edge20_Node000089_Node000094"><a xlink:title=" ">
<path fill="none" stroke="#63b8ff" d="M466.64,-769.04C494.98,-763.08 535.1,-754.64 569.99,-747.3"/>
<polygon fill="#63b8ff" stroke="#63b8ff" points="570.57,-750.75 579.63,-745.27 569.13,-743.9 570.57,-750.75"/>
</a>
</g>
</g>
<!-- Node111 -->
<g id="Node000111" class="node">
<title>Node111</title>
<g id="a_Node000111"><a xlink:href="kest__preset__view_8c.html#ae4f85ce684e856ba2d0dfc97c49528b2" target="_top" xlink:title=" ">
<polygon fill="#fff0f0" stroke="red" points="709.75,-310.15 579.75,-310.15 579.75,-289.4 709.75,-289.4 709.75,-310.15"/>
<text xml:space="preserve" text-anchor="middle" x="644.75" y="-296.65" font-family="Helvetica,sans-Serif" font-size="10.00">create_preset_view_for</text>
</a>
</g>
</g>
<!-- Node110&#45;&gt;Node111 -->
<g id="edge23_Node000110_Node000111" class="edge">
<title>Node110&#45;&gt;Node111</title>
<g id="a_edge23_Node000110_Node000111"><a xlink:title=" ">
<path fill="none" stroke="#63b8ff" d="M487.75,-328.22C514.07,-323.43 545.44,-317.7 573.12,-312.66"/>
<polygon fill="#63b8ff" stroke="#63b8ff" points="573.64,-316.12 582.85,-310.88 572.38,-309.23 573.64,-316.12"/>
</a>
</g>
</g>
<!-- Node121 -->
<g id="Node000121" class="node">
<title>Node121</title>
<g id="a_Node000121"><a xlink:href="kest__ui_8c.html#a2063cd4687cffa16c46c43deaa27642f" target="_top" xlink:title=" ">
<polygon fill="#fff0f0" stroke="red" points="711.25,-388.15 578.25,-388.15 578.25,-367.4 711.25,-367.4 711.25,-388.15"/>
<text xml:space="preserve" text-anchor="middle" x="644.75" y="-374.65" font-family="Helvetica,sans-Serif" font-size="10.00">enter_ui_page_forwards</text>
</a>
</g>
</g>
<!-- Node110&#45;&gt;Node121 -->
<g id="edge26_Node000110_Node000121" class="edge">
<title>Node110&#45;&gt;Node121</title>
<g id="a_edge26_Node000110_Node000121"><a xlink:title=" ">
<path fill="none" stroke="#63b8ff" d="M487.75,-349.33C514.07,-354.13 545.44,-359.85 573.12,-364.9"/>
<polygon fill="#63b8ff" stroke="#63b8ff" points="572.38,-368.32 582.85,-366.67 573.64,-361.43 572.38,-368.32"/>
</a>
</g>
</g>
<!-- Node111&#45;&gt;Node27 -->
<g id="edge25_Node000111_Node000027" class="edge">
<title>Node111&#45;&gt;Node27</title>
<g id="a_edge25_Node000111_Node000027"><a xlink:title=" ">
<path fill="none" stroke="#63b8ff" d="M710.06,-293.16C735.59,-290.53 764.26,-287.58 787.22,-285.22"/>
<polygon fill="#63b8ff" stroke="#63b8ff" points="787.56,-288.7 797.14,-284.2 786.84,-281.74 787.56,-288.7"/>
</a>
</g>
</g>
<!-- Node111&#45;&gt;Node170 -->
<g id="edge24_Node000111_Node000170" class="edge">
<title>Node111&#45;&gt;Node170</title>
<g id="a_edge24_Node000111_Node000170"><a xlink:title=" ">
<path fill="none" stroke="#63b8ff" d="M657.02,-289.09C687.61,-260.1 772.45,-179.68 810.94,-143.2"/>
<polygon fill="#63b8ff" stroke="#63b8ff" points="813.3,-145.78 818.15,-136.36 808.49,-140.7 813.3,-145.78"/>
</a>
</g>
</g>
<!-- Node201 -->
<g id="Node000201" class="node">
<title>Node201</title>
<g id="a_Node000201"><a xlink:href="kest__sequence_8c.html#a49e4dd6f907ea29abeffe53f2c2357f9" target="_top" xlink:title=" ">
<polygon fill="#fff0f0" stroke="red" points="705.25,-439.53 584.25,-439.53 584.25,-406.03 705.25,-406.03 705.25,-439.53"/>
<text xml:space="preserve" text-anchor="start" x="592.25" y="-426.03" font-family="Helvetica,sans-Serif" font-size="10.00">kest_sequence_move</text>
<text xml:space="preserve" text-anchor="middle" x="644.75" y="-413.28" font-family="Helvetica,sans-Serif" font-size="10.00">_preset</text>
</a>
</g>
</g>
<!-- Node200&#45;&gt;Node201 -->
<g id="edge29_Node000200_Node000201" class="edge">
<title>Node200&#45;&gt;Node201</title>
<g id="a_edge29_Node000200_Node000201"><a xlink:title=" ">
<path fill="none" stroke="#63b8ff" d="M481.38,-388.61C508.78,-394.38 542.89,-401.56 572.76,-407.84"/>
<polygon fill="#63b8ff" stroke="#63b8ff" points="572,-411.26 582.5,-409.89 573.44,-404.41 572,-411.26"/>
</a>
</g>
</g>
<!-- Node203&#45;&gt;Node19 -->
<g id="edge34_Node000203_Node000019" class="edge">
<title>Node203&#45;&gt;Node19</title>
<g id="a_edge34_Node000203_Node000019"><a xlink:title=" ">
<path fill="none" stroke="#63b8ff" d="M488.28,-427.6C499.81,-430.22 511.74,-433.3 522.75,-436.78 570.6,-451.9 688.94,-497.02 730.75,-524.78 764.21,-546.99 796.26,-581.3 814.6,-602.61"/>
<polygon fill="#63b8ff" stroke="#63b8ff" points="811.69,-604.59 820.82,-609.97 817.04,-600.07 811.69,-604.59"/>
</a>
</g>
</g>
<!-- Node135 -->
<g id="Node000135" class="node">
<title>Node135</title>
<g id="a_Node000135"><a xlink:href="kest__button_8c.html#a8d5acc76176bf3f5ec7fdd6b31139830" target="_top" xlink:title=" ">
<polygon fill="white" stroke="#666666" points="700.38,-349.15 589.12,-349.15 589.12,-328.4 700.38,-328.4 700.38,-349.15"/>
<text xml:space="preserve" text-anchor="middle" x="644.75" y="-335.65" font-family="Helvetica,sans-Serif" font-size="10.00">kest_button_enable</text>
</a>
</g>
</g>
<!-- Node203&#45;&gt;Node135 -->
<g id="edge33_Node000203_Node000135" class="edge">
<title>Node203&#45;&gt;Node135</title>
<g id="a_edge33_Node000203_Node000135"><a xlink:title=" ">
<path fill="none" stroke="#63b8ff" d="M501.48,-405.99C508.9,-403.52 516.14,-400.5 522.75,-396.78 543.03,-385.37 538.58,-370.37 558.75,-358.78 564.79,-355.31 571.4,-352.44 578.17,-350.07"/>
<polygon fill="#63b8ff" stroke="#63b8ff" points="578.95,-353.49 587.46,-347.18 576.88,-346.8 578.95,-353.49"/>
</a>
</g>
</g>
<!-- Node143 -->
<g id="Node000143" class="node">
<title>Node143</title>
<g id="a_Node000143"><a xlink:href="kest__button_8c.html#a8b6854cbb240ab5cdc4babc281322278" target="_top" xlink:title=" ">
<polygon fill="white" stroke="#666666" points="483,-595.53 374.75,-595.53 374.75,-562.03 483,-562.03 483,-595.53"/>
<text xml:space="preserve" text-anchor="start" x="382.75" y="-582.03" font-family="Helvetica,sans-Serif" font-size="10.00">kest_active_button</text>
<text xml:space="preserve" text-anchor="middle" x="428.88" y="-569.28" font-family="Helvetica,sans-Serif" font-size="10.00">_array_create_ui</text>
</a>
</g>
</g>
<!-- Node204&#45;&gt;Node143 -->
<g id="edge39_Node000204_Node000143" class="edge">
<title>Node204&#45;&gt;Node143</title>
<g id="a_edge39_Node000204_Node000143"><a xlink:title=" ">
<path fill="none" stroke="#63b8ff" d="M289.3,-259.61C292.89,-261.88 296.17,-264.58 299,-267.78 383.51,-363.48 251.61,-456.1 335,-552.78 342.46,-561.43 352.55,-567.32 363.33,-571.3"/>
<polygon fill="#63b8ff" stroke="#63b8ff" points="362.23,-574.62 372.82,-574.23 364.3,-567.94 362.23,-574.62"/>
</a>
</g>
</g>
<!-- Node122 -->
<g id="Node000122" class="node">
<title>Node122</title>
<g id="a_Node000122"><a xlink:href="kest__button_8c.html#a21a7b8dcd7ffa25a3e7d230fa6a7d985" target="_top" xlink:title=" ">
<polygon fill="white" stroke="#666666" points="485.62,-234.15 372.12,-234.15 372.12,-213.4 485.62,-213.4 485.62,-234.15"/>
<text xml:space="preserve" text-anchor="middle" x="428.88" y="-220.65" font-family="Helvetica,sans-Serif" font-size="10.00">kest_button_disable</text>
</a>
</g>
</g>
<!-- Node204&#45;&gt;Node122 -->
<g id="edge41_Node000204_Node000122" class="edge">
<title>Node204&#45;&gt;Node122</title>
<g id="a_edge41_Node000204_Node000122"><a xlink:title=" ">
<path fill="none" stroke="#63b8ff" d="M294.49,-240.17C315.92,-237.54 339.43,-234.65 360.67,-232.04"/>
<polygon fill="#63b8ff" stroke="#63b8ff" points="360.87,-235.54 370.37,-230.85 360.02,-228.59 360.87,-235.54"/>
</a>
</g>
</g>
<!-- Node144 -->
<g id="Node000144" class="node">
<title>Node144</title>
<g id="a_Node000144"><a xlink:href="kest__ui_8c.html#a58a68a436917a32cc3daab2e0d4b3245" target="_top" xlink:title=" ">
<polygon fill="#fff0f0" stroke="red" points="495.38,-273.15 362.38,-273.15 362.38,-252.4 495.38,-252.4 495.38,-273.15"/>
<text xml:space="preserve" text-anchor="middle" x="428.88" y="-259.65" font-family="Helvetica,sans-Serif" font-size="10.00">ui_page_create_base_ui</text>
</a>
</g>
</g>
<!-- Node204&#45;&gt;Node144 -->
<g id="edge42_Node000204_Node000144" class="edge">
<title>Node204&#45;&gt;Node144</title>
<g id="a_edge42_Node000204_Node000144"><a xlink:title=" ">
<path fill="none" stroke="#63b8ff" d="M294.49,-253.6C312.66,-254.85 332.34,-256.2 350.85,-257.48"/>
<polygon fill="#63b8ff" stroke="#63b8ff" points="350.48,-260.96 360.7,-258.15 350.96,-253.97 350.48,-260.96"/>
</a>
</g>
</g>
<!-- Node143&#45;&gt;Node90 -->
<g id="edge40_Node000143_Node000090" class="edge">
<title>Node143&#45;&gt;Node90</title>
<g id="a_edge40_Node000143_Node000090"><a xlink:title=" ">
<path fill="none" stroke="#63b8ff" d="M483.29,-591.02C512.38,-597.68 548.6,-605.98 579.25,-613"/>
<polygon fill="#63b8ff" stroke="#63b8ff" points="578.27,-616.37 588.8,-615.19 579.83,-609.54 578.27,-616.37"/>
</a>
</g>
</g>
<!-- Node173&#45;&gt;Node27 -->
<g id="edge45_Node000173_Node000027" class="edge">
<title>Node173&#45;&gt;Node27</title>
<g id="a_edge45_Node000173_Node000027"><a xlink:title=" ">
<path fill="none" stroke="#63b8ff" d="M278.03,-67.85C392.52,-60.47 656.76,-49.18 730.75,-95.78 746.22,-105.52 798.55,-213.45 820.53,-259.82"/>
<polygon fill="#63b8ff" stroke="#63b8ff" points="817.23,-261.02 824.66,-268.57 823.56,-258.03 817.23,-261.02"/>
</a>
</g>
</g>
<!-- Node175&#45;&gt;Node27 -->
<g id="edge47_Node000175_Node000027" class="edge">
<title>Node175&#45;&gt;Node27</title>
<g id="a_edge47_Node000175_Node000027"><a xlink:title=" ">
<path fill="none" stroke="#63b8ff" d="M277.99,-291.58C365.32,-288.02 531.57,-281.31 558.75,-280.78 639.4,-279.21 733.55,-279.74 787.15,-280.26"/>
<polygon fill="#63b8ff" stroke="#63b8ff" points="787.04,-283.76 797.08,-280.36 787.11,-276.76 787.04,-283.76"/>
</a>
</g>
</g>
<!-- Node205&#45;&gt;Node135 -->
<g id="edge53_Node000205_Node000135" class="edge">
<title>Node205&#45;&gt;Node135</title>
<g id="a_edge53_Node000205_Node000135"><a xlink:title=" ">
<path fill="none" stroke="#63b8ff" d="M258.53,-187.02C318.55,-170.32 444.27,-145.83 522.75,-204.78 565.23,-236.69 519.8,-282.64 558.75,-318.78 564.35,-323.97 571.04,-327.9 578.17,-330.85"/>
<polygon fill="#63b8ff" stroke="#63b8ff" points="576.84,-334.09 587.43,-334.03 579.11,-327.47 576.84,-334.09"/>
</a>
</g>
</g>
<!-- Node205&#45;&gt;Node122 -->
<g id="edge52_Node000205_Node000122" class="edge">
<title>Node205&#45;&gt;Node122</title>
<g id="a_edge52_Node000205_Node000122"><a xlink:title=" ">
<path fill="none" stroke="#63b8ff" d="M299.36,-207.35C319.34,-209.9 340.8,-212.65 360.36,-215.15"/>
<polygon fill="#63b8ff" stroke="#63b8ff" points="359.76,-218.6 370.13,-216.39 360.65,-211.65 359.76,-218.6"/>
</a>
</g>
</g>
<!-- Node192 -->
<g id="Node000192" class="node">
<title>Node192</title>
<g id="a_Node000192"><a xlink:href="kest__ui_8c.html#a53f3a14124f0f781b327ac1effdea2ad" target="_top" xlink:title=" ">
<polygon fill="#fff0f0" stroke="red" points="478.5,-158.15 379.25,-158.15 379.25,-137.4 478.5,-137.4 478.5,-158.15"/>
<text xml:space="preserve" text-anchor="middle" x="428.88" y="-144.65" font-family="Helvetica,sans-Serif" font-size="10.00">ui_page_set_title</text>
</a>
</g>
</g>
<!-- Node205&#45;&gt;Node192 -->
<g id="edge54_Node000205_Node000192" class="edge">
<title>Node205&#45;&gt;Node192</title>
<g id="a_edge54_Node000205_Node000192"><a xlink:title=" ">
<path fill="none" stroke="#63b8ff" d="M268.63,-186.93C299.28,-179.39 340.33,-169.3 373.07,-161.25"/>
<polygon fill="#63b8ff" stroke="#63b8ff" points="373.49,-164.75 382.36,-158.97 371.82,-157.96 373.49,-164.75"/>
</a>
</g>
</g>
</g>
</svg>

<g id="navigator" transform="translate(0 0)" fill="#404254">
  <rect fill="#f2f5e9" fill-opacity="0.5" stroke="#606060" stroke-width=".5" x="0" y="0" width="60" height="60"/>
  <use id="zoomplus" xlink:href="#zoomPlus" x="17" y="9" onmousedown="handleZoom(evt,'in')"/>
  <use id="zoomminus" xlink:href="#zoomMin" x="42" y="9" onmousedown="handleZoom(evt,'out')"/>
  <use id="reset" xlink:href="#resetDef" x="30" y="36" onmousedown="handleReset()"/>
   <use id="arrowup" xlink:href="#arrowUp" x="0" y="0" onmousedown="handlePan(0,-1)"/>
  <use id="arrowright" xlink:href="#arrowRight" x="0" y="0" onmousedown="handlePan(1,0)"/>
  <use id="arrowdown" xlink:href="#arrowDown" x="0" y="0" onmousedown="handlePan(0,1)"/>
  <use id="arrowleft" xlink:href="#arrowLeft" x="0" y="0" onmousedown="handlePan(-1,0)"/>
</g>
<svg viewBox="0 0 15 15" width="100%" height="30px" preserveAspectRatio="xMaxYMin meet">
 <g id="arrow_out" transform="scale(0.3 0.3)">
  <a xlink:href="kest__sequence__view_8c_aca115eba822b7486dc289cc9150562a7_cgraph_org.svg" target="_base">
   <rect id="button" ry="5" rx="5" y="6" x="6" height="38" width="38"
        fill="#f2f5e9" fill-opacity="0.5" stroke="#606060" stroke-width="1.0"/>
   <path id="arrow"
     d="M 11.500037,31.436501 C 11.940474,20.09759 22.043105,11.32322 32.158766,21.979434 L 37.068811,17.246167 C 37.068811,17.246167 37.088388,32 37.088388,32 L 22.160133,31.978069 C 22.160133,31.978069 26.997745,27.140456 26.997745,27.140456 C 18.528582,18.264221 13.291696,25.230495 11.500037,31.436501 z"
     style="fill:#404040;"/>
  </a>
 </g>
</svg>

<style type='text/css'>
<![CDATA[
[data-mouse-over-selected='false'] { opacity: 0.7; }
[data-mouse-over-selected='true']  { opacity: 1.0; }
]]>
</style>
<script type="application/ecmascript"><![CDATA[
document.addEventListener('DOMContentLoaded', (event) => {
  highlightEdges();
  highlightAdjacentNodes();
});
]]></script>
</svg>
