<?xml version="1.0" encoding="UTF-8" standalone="no"?>
<!DOCTYPE svg PUBLIC "-//W3C//DTD SVG 1.1//EN"
 "http://www.w3.org/Graphics/SVG/1.1/DTD/svg11.dtd">
<!-- Generated by graphviz version 13.1.2 (20250808.2320)
 -->
<!-- Title: kest_button_reset_state Pages: 1 -->
<svg width="582pt" height="106pt"
 viewBox="0.00 0.00 582.00 106.00" xmlns="http://www.w3.org/2000/svg" xmlns:xlink="http://www.w3.org/1999/xlink">
<g id="graph0" class="graph" transform="scale(1 1) rotate(0) translate(4 101.88)">
<title>kest_button_reset_state</title>
<!-- Node1 -->
<g id="Node000001" class="node">
<title>Node1</title>
<g id="a_Node000001"><a xlink:title=" ">
<polygon fill="#999999" stroke="#666666" points="574,-62.5 441,-62.5 441,-41.75 574,-41.75 574,-62.5"/>
<text xml:space="preserve" text-anchor="middle" x="507.5" y="-49" font-family="Helvetica,sans-Serif" font-size="10.00">kest_button_reset_state</text>
</a>
</g>
</g>
<!-- Node2 -->
<g id="Node000002" class="node">
<title>Node2</title>
<g id="a_Node000002"><a xlink:href="kest__button_8c.html#ab3d484ae52f7d01018eba300e3fe4e1f" target="_top" xlink:title=" ">
<polygon fill="white" stroke="#666666" points="393.75,-97.88 285.5,-97.88 285.5,-64.38 393.75,-64.38 393.75,-97.88"/>
<text xml:space="preserve" text-anchor="start" x="293.5" y="-84.38" font-family="Helvetica,sans-Serif" font-size="10.00">kest_active_button</text>
<text xml:space="preserve" text-anchor="middle" x="339.62" y="-71.62" font-family="Helvetica,sans-Serif" font-size="10.00">_reset_del_button</text>
</a>
</g>
</g>
<!-- Node1&#45;&gt;Node2 -->
<g id="edge1_Node000001_Node000002" class="edge">
<title>Node1&#45;&gt;Node2</title>
<g id="a_edge1_Node000001_Node000002"><a xlink:title=" ">
<path fill="none" stroke="#63b8ff" d="M433.65,-64.86C420.32,-67.19 406.63,-69.59 394,-71.79"/>
<polygon fill="#63b8ff" stroke="#63b8ff" points="434,-68.35 443.24,-63.18 432.79,-61.46 434,-68.35"/>
</a>
</g>
</g>
<!-- Node39 -->
<g id="Node000039" class="node">
<title>Node39</title>
<g id="a_Node000039"><a xlink:href="kest__button_8c.html#ab59ebaba4ff87ed51677e73ba4aac2ef" target="_top" xlink:title=" ">
<polygon fill="white" stroke="#666666" points="405,-46.25 274.25,-46.25 274.25,0 405,0 405,-46.25"/>
<text xml:space="preserve" text-anchor="start" x="282.25" y="-32.75" font-family="Helvetica,sans-Serif" font-size="10.00">kest_active_button</text>
<text xml:space="preserve" text-anchor="start" x="282.25" y="-20" font-family="Helvetica,sans-Serif" font-size="10.00">_swap_del_button_for</text>
<text xml:space="preserve" text-anchor="middle" x="339.62" y="-7.25" font-family="Helvetica,sans-Serif" font-size="10.00">_persistent_unclickable</text>
</a>
</g>
</g>
<!-- Node1&#45;&gt;Node39 -->
<g id="edge4_Node000001_Node000039" class="edge">
<title>Node1&#45;&gt;Node39</title>
<g id="a_edge4_Node000001_Node000039"><a xlink:title=" ">
<path fill="none" stroke="#63b8ff" d="M433.48,-39.36C424.16,-37.73 414.67,-36.07 405.5,-34.47"/>
<polygon fill="#63b8ff" stroke="#63b8ff" points="432.79,-42.79 443.24,-41.07 434,-35.9 432.79,-42.79"/>
</a>
</g>
</g>
<!-- Node3 -->
<g id="Node000003" class="node">
<title>Node3</title>
<g id="a_Node000003"><a xlink:href="kest__sequence__view_8c.html#a08de2e10fc1c406742820cb4edd78cc3" target="_top" xlink:title=" ">
<polygon fill="white" stroke="#666666" points="238.25,-68.88 111.25,-68.88 111.25,-35.38 238.25,-35.38 238.25,-68.88"/>
<text xml:space="preserve" text-anchor="start" x="119.25" y="-55.38" font-family="Helvetica,sans-Serif" font-size="10.00">sequence_view_preset</text>
<text xml:space="preserve" text-anchor="middle" x="174.75" y="-42.62" font-family="Helvetica,sans-Serif" font-size="10.00">_button_rep_update</text>
</a>
</g>
</g>
<!-- Node2&#45;&gt;Node3 -->
<g id="edge2_Node000002_Node000003" class="edge">
<title>Node2&#45;&gt;Node3</title>
<g id="a_edge2_Node000002_Node000003"><a xlink:title=" ">
<path fill="none" stroke="#63b8ff" d="M274.22,-69.66C262.48,-67.57 250.24,-65.39 238.55,-63.31"/>
<polygon fill="#63b8ff" stroke="#63b8ff" points="273.34,-73.06 283.8,-71.36 274.57,-66.17 273.34,-73.06"/>
</a>
</g>
</g>
<!-- Node4 -->
<g id="Node000004" class="node">
<title>Node4</title>
<g id="a_Node000004"><a xlink:href="kest__sequence__view_8c.html#a83d1a352af6a3932ce4d08e01f7d8d8a" target="_top" xlink:title=" ">
<polygon fill="#fff0f0" stroke="red" points="75.25,-62.5 0,-62.5 0,-41.75 75.25,-41.75 75.25,-62.5"/>
<text xml:space="preserve" text-anchor="middle" x="37.62" y="-49" font-family="Helvetica,sans-Serif" font-size="10.00">seq_plus_cb</text>
</a>
</g>
</g>
<!-- Node3&#45;&gt;Node4 -->
<g id="edge3_Node000003_Node000004" class="edge">
<title>Node3&#45;&gt;Node4</title>
<g id="a_edge3_Node000003_Node000004"><a xlink:title=" ">
<path fill="none" stroke="#63b8ff" d="M99.55,-52.12C91.23,-52.12 83.04,-52.12 75.5,-52.12"/>
<polygon fill="#63b8ff" stroke="#63b8ff" points="99.42,-55.63 109.42,-52.13 99.42,-48.63 99.42,-55.63"/>
</a>
</g>
</g>
<!-- Node39&#45;&gt;Node3 -->
<g id="edge5_Node000039_Node000003" class="edge">
<title>Node39&#45;&gt;Node3</title>
<g id="a_edge5_Node000039_Node000003"><a xlink:title=" ">
<path fill="none" stroke="#63b8ff" d="M262.51,-36.68C254.47,-38.11 246.37,-39.55 238.51,-40.95"/>
<polygon fill="#63b8ff" stroke="#63b8ff" points="263.06,-40.13 272.29,-34.94 261.84,-33.24 263.06,-40.13"/>
</a>
</g>
</g>
</g>
</svg>
