<?xml version="1.0" encoding="UTF-8" standalone="no"?>
<!DOCTYPE svg PUBLIC "-//W3C//DTD SVG 1.1//EN"
 "http://www.w3.org/Graphics/SVG/1.1/DTD/svg11.dtd">
<!-- Generated by graphviz version 13.1.2 (20250808.2320)
 -->
<!-- Title: dump_file_contents Pages: 1 -->
<svg width="972pt" height="442pt"
 viewBox="0.00 0.00 972.00 442.00" xmlns="http://www.w3.org/2000/svg" xmlns:xlink="http://www.w3.org/1999/xlink">
<g id="graph0" class="graph" transform="scale(1 1) rotate(0) translate(4 438.47)">
<title>dump_file_contents</title>
<!-- Node1 -->
<g id="Node000001" class="node">
<title>Node1</title>
<g id="a_Node000001"><a xlink:title=" ">
<polygon fill="#999999" stroke="#666666" points="964,-190.88 852,-190.88 852,-170.13 964,-170.13 964,-190.88"/>
<text xml:space="preserve" text-anchor="middle" x="908" y="-177.38" font-family="Helvetica,sans-Serif" font-size="10.00">dump_file_contents</text>
</a>
</g>
</g>
<!-- Node2 -->
<g id="Node000002" class="node">
<title>Node2</title>
<g id="a_Node000002"><a xlink:href="kest__files_8c.html#a70d3333ed52be1c6b2967d18b2c09bfa" target="_top" xlink:title=" ">
<polygon fill="white" stroke="#666666" points="302.25,-410.88 185.75,-410.88 185.75,-390.13 302.25,-390.13 302.25,-410.88"/>
<text xml:space="preserve" text-anchor="middle" x="244" y="-397.38" font-family="Helvetica,sans-Serif" font-size="10.00">load_state_from_file</text>
</a>
</g>
</g>
<!-- Node1&#45;&gt;Node2 -->
<g id="edge1_Node000001_Node000002" class="edge">
<title>Node1&#45;&gt;Node2</title>
<g id="a_edge1_Node000001_Node000002"><a xlink:title=" ">
<path fill="none" stroke="#63b8ff" d="M902.98,-202.39C894.56,-241.32 871.06,-321.97 816,-358.51 650.97,-468.01 396.93,-432.5 292.41,-411.37"/>
<polygon fill="#63b8ff" stroke="#63b8ff" points="906.37,-203.3 904.91,-192.8 899.51,-201.92 906.37,-203.3"/>
</a>
</g>
</g>
<!-- Node15 -->
<g id="Node000015" class="node">
<title>Node15</title>
<g id="a_Node000015"><a xlink:href="kest__files_8c.html#ac529af30283838508d0a748d1df82bc9" target="_top" xlink:title=" ">
<polygon fill="white" stroke="#666666" points="808.12,-122.88 684.88,-122.88 684.88,-102.13 808.12,-102.13 808.12,-122.88"/>
<text xml:space="preserve" text-anchor="middle" x="746.5" y="-109.38" font-family="Helvetica,sans-Serif" font-size="10.00">read_preset_from_file</text>
</a>
</g>
</g>
<!-- Node1&#45;&gt;Node15 -->
<g id="edge5_Node000001_Node000015" class="edge">
<title>Node1&#45;&gt;Node15</title>
<g id="a_edge5_Node000001_Node000015"><a xlink:title=" ">
<path fill="none" stroke="#63b8ff" d="M871.31,-165.29C841.42,-152.55 799.5,-134.67 772.92,-123.34"/>
<polygon fill="#63b8ff" stroke="#63b8ff" points="869.76,-168.44 880.33,-169.14 872.51,-162 869.76,-168.44"/>
</a>
</g>
</g>
<!-- Node17 -->
<g id="Node000017" class="node">
<title>Node17</title>
<g id="a_Node000017"><a xlink:href="kest__files_8c.html#adecfc697f2f60941218706b2cd77f00c" target="_top" xlink:title=" ">
<polygon fill="white" stroke="#666666" points="816,-349.88 677,-349.88 677,-329.13 816,-329.13 816,-349.88"/>
<text xml:space="preserve" text-anchor="middle" x="746.5" y="-336.38" font-family="Helvetica,sans-Serif" font-size="10.00">read_sequence_from_file</text>
</a>
</g>
</g>
<!-- Node1&#45;&gt;Node17 -->
<g id="edge9_Node000001_Node000017" class="edge">
<title>Node1&#45;&gt;Node17</title>
<g id="a_edge9_Node000001_Node000017"><a xlink:title=" ">
<path fill="none" stroke="#63b8ff" d="M892.97,-200.45C876.17,-223.56 846.48,-262.09 816,-290.51 800.06,-305.36 779.47,-319.52 765.04,-328.77"/>
<polygon fill="#63b8ff" stroke="#63b8ff" points="895.67,-202.68 898.65,-192.52 889.98,-198.6 895.67,-202.68"/>
</a>
</g>
</g>
<!-- Node19 -->
<g id="Node000019" class="node">
<title>Node19</title>
<g id="a_Node000019"><a xlink:href="kest__files_8c.html#a930754405483621f50f94833b02cdd3c" target="_top" xlink:title=" ">
<polygon fill="white" stroke="#666666" points="784.12,-190.88 708.88,-190.88 708.88,-170.13 784.12,-170.13 784.12,-190.88"/>
<text xml:space="preserve" text-anchor="middle" x="746.5" y="-177.38" font-family="Helvetica,sans-Serif" font-size="10.00">save_preset</text>
</a>
</g>
</g>
<!-- Node1&#45;&gt;Node19 -->
<g id="edge13_Node000001_Node000019" class="edge">
<title>Node1&#45;&gt;Node19</title>
<g id="a_edge13_Node000001_Node000019"><a xlink:title=" ">
<path fill="none" stroke="#63b8ff" d="M840.22,-180.51C821.05,-180.51 800.86,-180.51 784.22,-180.51"/>
<polygon fill="#63b8ff" stroke="#63b8ff" points="840.15,-184.01 850.15,-180.51 840.15,-177.01 840.15,-184.01"/>
</a>
</g>
</g>
<!-- Node54 -->
<g id="Node000054" class="node">
<title>Node54</title>
<g id="a_Node000054"><a xlink:href="kest__files_8c.html#a00c64a8e626a8a982c9a7ced88c5f90d" target="_top" xlink:title=" ">
<polygon fill="white" stroke="#666666" points="633.88,-55.88 505.38,-55.88 505.38,-35.13 633.88,-35.13 633.88,-55.88"/>
<text xml:space="preserve" text-anchor="middle" x="569.62" y="-42.38" font-family="Helvetica,sans-Serif" font-size="10.00">save_sequence_as_file</text>
</a>
</g>
</g>
<!-- Node1&#45;&gt;Node54 -->
<g id="edge25_Node000001_Node000054" class="edge">
<title>Node1&#45;&gt;Node54</title>
<g id="a_edge25_Node000001_Node000054"><a xlink:title=" ">
<path fill="none" stroke="#63b8ff" d="M892.05,-160.68C875.68,-140.47 847.52,-109.84 816,-93.51 758.96,-63.95 685.86,-52.53 634.34,-48.15"/>
<polygon fill="#63b8ff" stroke="#63b8ff" points="889.23,-162.76 898.17,-168.46 894.74,-158.44 889.23,-162.76"/>
</a>
</g>
</g>
<!-- Node55 -->
<g id="Node000055" class="node">
<title>Node55</title>
<g id="a_Node000055"><a xlink:href="kest__files_8c.html#af53689e3600e69611b9c05f11971d23e" target="_top" xlink:title=" ">
<polygon fill="#fff0f0" stroke="red" points="448.75,-36.88 357.75,-36.88 357.75,-16.13 448.75,-16.13 448.75,-36.88"/>
<text xml:space="preserve" text-anchor="middle" x="403.25" y="-23.38" font-family="Helvetica,sans-Serif" font-size="10.00">save_sequence</text>
</a>
</g>
</g>
<!-- Node1&#45;&gt;Node55 -->
<g id="edge24_Node000001_Node000055" class="edge">
<title>Node1&#45;&gt;Node55</title>
<g id="a_edge24_Node000001_Node000055"><a xlink:title=" ">
<path fill="none" stroke="#63b8ff" d="M898.79,-159.19C886.02,-129.19 858.38,-75.33 816,-49.51 699.83,21.27 529.29,-0.34 449.08,-16.19"/>
<polygon fill="#63b8ff" stroke="#63b8ff" points="895.5,-160.4 902.52,-168.35 901.99,-157.76 895.5,-160.4"/>
</a>
</g>
</g>
<!-- Node61 -->
<g id="Node000061" class="node">
<title>Node61</title>
<g id="a_Node000061"><a xlink:href="kest__files_8c.html#adff3f8e8048a03abec562e090408c69d" target="_top" xlink:title=" ">
<polygon fill="white" stroke="#666666" points="799.12,-281.88 693.88,-281.88 693.88,-261.13 799.12,-261.13 799.12,-281.88"/>
<text xml:space="preserve" text-anchor="middle" x="746.5" y="-268.38" font-family="Helvetica,sans-Serif" font-size="10.00">save_state_to_file</text>
</a>
</g>
</g>
<!-- Node1&#45;&gt;Node61 -->
<g id="edge26_Node000001_Node000061" class="edge">
<title>Node1&#45;&gt;Node61</title>
<g id="a_edge26_Node000001_Node000061"><a xlink:title=" ">
<path fill="none" stroke="#63b8ff" d="M878.29,-196.89C845.88,-215.37 794.08,-244.93 766.4,-260.72"/>
<polygon fill="#63b8ff" stroke="#63b8ff" points="879.81,-200.05 886.76,-192.05 876.34,-193.97 879.81,-200.05"/>
</a>
</g>
</g>
<!-- Node3 -->
<g id="Node000003" class="node">
<title>Node3</title>
<g id="a_Node000003"><a xlink:href="kest__int_8c.html#abce06be17fc37d675118a678a8100a36" target="_top" xlink:title=" ">
<polygon fill="white" stroke="#666666" points="142.25,-371.88 78.25,-371.88 78.25,-351.13 142.25,-351.13 142.25,-371.88"/>
<text xml:space="preserve" text-anchor="middle" x="110.25" y="-358.38" font-family="Helvetica,sans-Serif" font-size="10.00">app_main</text>
</a>
</g>
</g>
<!-- Node2&#45;&gt;Node3 -->
<g id="edge2_Node000002_Node000003" class="edge">
<title>Node2&#45;&gt;Node3</title>
<g id="a_edge2_Node000002_Node000003"><a xlink:title=" ">
<path fill="none" stroke="#63b8ff" d="M195.33,-386.4C177.71,-381.18 158.19,-375.4 142.4,-370.73"/>
<polygon fill="#63b8ff" stroke="#63b8ff" points="194.27,-389.73 204.85,-389.21 196.25,-383.02 194.27,-389.73"/>
</a>
</g>
</g>
<!-- Node4 -->
<g id="Node000004" class="node">
<title>Node4</title>
<g id="a_Node000004"><a xlink:href="kest__desktop_8c.html#ab499a4f71ef4cfc807b60d8739750c3e" target="_top" xlink:title=" ">
<polygon fill="white" stroke="#666666" points="143.75,-332.88 76.75,-332.88 76.75,-312.13 143.75,-312.13 143.75,-332.88"/>
<text xml:space="preserve" text-anchor="middle" x="110.25" y="-319.38" font-family="Helvetica,sans-Serif" font-size="10.00">main_task</text>
</a>
</g>
</g>
<!-- Node2&#45;&gt;Node4 -->
<g id="edge3_Node000002_Node000004" class="edge">
<title>Node2&#45;&gt;Node4</title>
<g id="a_edge3_Node000002_Node000004"><a xlink:title=" ">
<path fill="none" stroke="#63b8ff" d="M188.4,-385.26C185.4,-383.81 182.5,-382.22 179.75,-380.51 160.03,-368.16 161.81,-357.17 143.75,-342.51 139.74,-339.25 135.15,-336.12 130.72,-333.34"/>
<polygon fill="#63b8ff" stroke="#63b8ff" points="186.88,-388.42 197.45,-389.14 189.64,-381.99 186.88,-388.42"/>
</a>
</g>
</g>
<!-- Node5 -->
<g id="Node000005" class="node">
<title>Node5</title>
<g id="a_Node000005"><a xlink:href="kest__desktop_8c.html#a3c04138a5bfe5d72780bb7e82a18e627" target="_top" xlink:title=" ">
<polygon fill="#fff0f0" stroke="red" points="40.75,-332.88 0,-332.88 0,-312.13 40.75,-312.13 40.75,-332.88"/>
<text xml:space="preserve" text-anchor="middle" x="20.38" y="-319.38" font-family="Helvetica,sans-Serif" font-size="10.00">main</text>
</a>
</g>
</g>
<!-- Node4&#45;&gt;Node5 -->
<g id="edge4_Node000004_Node000005" class="edge">
<title>Node4&#45;&gt;Node5</title>
<g id="a_edge4_Node000004_Node000005"><a xlink:title=" ">
<path fill="none" stroke="#63b8ff" d="M65.01,-322.51C56.68,-322.51 48.35,-322.51 41.24,-322.51"/>
<polygon fill="#63b8ff" stroke="#63b8ff" points="64.77,-326.01 74.77,-322.51 64.77,-319.01 64.77,-326.01"/>
</a>
</g>
</g>
<!-- Node16 -->
<g id="Node000016" class="node">
<title>Node16</title>
<g id="a_Node000016"><a xlink:href="kest__files_8c.html#a94b6bb72bca4b3c7f8f01ba6fa4f8200" target="_top" xlink:title=" ">
<polygon fill="white" stroke="#666666" points="300.38,-242.88 187.62,-242.88 187.62,-222.13 300.38,-222.13 300.38,-242.88"/>
<text xml:space="preserve" text-anchor="middle" x="244" y="-229.38" font-family="Helvetica,sans-Serif" font-size="10.00">load_saved_presets</text>
</a>
</g>
</g>
<!-- Node15&#45;&gt;Node16 -->
<g id="edge6_Node000015_Node000016" class="edge">
<title>Node15&#45;&gt;Node16</title>
<g id="a_edge6_Node000015_Node000016"><a xlink:title=" ">
<path fill="none" stroke="#63b8ff" d="M673.18,-100.87C623.53,-95 556.36,-91.25 498.25,-102.51 425.81,-116.54 409.29,-129.67 344.25,-164.51 311.84,-181.86 277.09,-207.49 258.53,-221.82"/>
<polygon fill="#63b8ff" stroke="#63b8ff" points="672.59,-104.33 682.95,-102.09 673.46,-97.38 672.59,-104.33"/>
</a>
</g>
</g>
<!-- Node16&#45;&gt;Node3 -->
<g id="edge7_Node000016_Node000003" class="edge">
<title>Node16&#45;&gt;Node3</title>
<g id="a_edge7_Node000016_Node000003"><a xlink:title=" ">
<path fill="none" stroke="#63b8ff" d="M226.05,-251.7C200.16,-280.93 152.82,-333.99 143.75,-341.51 139.77,-344.8 135.2,-347.95 130.77,-350.73"/>
<polygon fill="#63b8ff" stroke="#63b8ff" points="228.62,-254.08 232.62,-244.27 223.37,-249.44 228.62,-254.08"/>
</a>
</g>
</g>
<!-- Node16&#45;&gt;Node4 -->
<g id="edge8_Node000016_Node000004" class="edge">
<title>Node16&#45;&gt;Node4</title>
<g id="a_edge8_Node000016_Node000004"><a xlink:title=" ">
<path fill="none" stroke="#63b8ff" d="M217.95,-249.62C191.08,-267.97 149.26,-296.54 126.79,-311.89"/>
<polygon fill="#63b8ff" stroke="#63b8ff" points="219.58,-252.75 225.86,-244.22 215.63,-246.97 219.58,-252.75"/>
</a>
</g>
</g>
<!-- Node18 -->
<g id="Node000018" class="node">
<title>Node18</title>
<g id="a_Node000018"><a xlink:href="kest__files_8c.html#a2b0f0df900e064b3a42198050e150084" target="_top" xlink:title=" ">
<polygon fill="white" stroke="#666666" points="308.25,-371.88 179.75,-371.88 179.75,-351.13 308.25,-351.13 308.25,-371.88"/>
<text xml:space="preserve" text-anchor="middle" x="244" y="-358.38" font-family="Helvetica,sans-Serif" font-size="10.00">load_saved_sequences</text>
</a>
</g>
</g>
<!-- Node17&#45;&gt;Node18 -->
<g id="edge10_Node000017_Node000018" class="edge">
<title>Node17&#45;&gt;Node18</title>
<g id="a_edge10_Node000017_Node000018"><a xlink:title=" ">
<path fill="none" stroke="#63b8ff" d="M665.46,-346.84C657.2,-347.46 648.94,-348.03 641,-348.51 523.75,-355.47 386.74,-358.93 308.49,-360.46"/>
<polygon fill="#63b8ff" stroke="#63b8ff" points="665.47,-350.35 675.17,-346.07 664.93,-343.37 665.47,-350.35"/>
</a>
</g>
</g>
<!-- Node18&#45;&gt;Node3 -->
<g id="edge11_Node000018_Node000003" class="edge">
<title>Node18&#45;&gt;Node3</title>
<g id="a_edge11_Node000018_Node000003"><a xlink:title=" ">
<path fill="none" stroke="#63b8ff" d="M168.09,-361.51C159.19,-361.51 150.5,-361.51 142.72,-361.51"/>
<polygon fill="#63b8ff" stroke="#63b8ff" points="167.93,-365.01 177.93,-361.51 167.93,-358.01 167.93,-365.01"/>
</a>
</g>
</g>
<!-- Node18&#45;&gt;Node4 -->
<g id="edge12_Node000018_Node000004" class="edge">
<title>Node18&#45;&gt;Node4</title>
<g id="a_edge12_Node000018_Node000004"><a xlink:title=" ">
<path fill="none" stroke="#63b8ff" d="M195.43,-347.43C178.43,-342.39 159.65,-336.83 144.16,-332.25"/>
<polygon fill="#63b8ff" stroke="#63b8ff" points="194.27,-350.73 204.85,-350.21 196.25,-344.02 194.27,-350.73"/>
</a>
</g>
</g>
<!-- Node20 -->
<g id="Node000020" class="node">
<title>Node20</title>
<g id="a_Node000020"><a xlink:href="kest__effect_8c.html#a2109a1d86293251c21166f2d243d1f84" target="_top" xlink:title=" ">
<polygon fill="white" stroke="#666666" points="622.62,-287.26 516.62,-287.26 516.62,-253.76 622.62,-253.76 622.62,-287.26"/>
<text xml:space="preserve" text-anchor="start" x="524.62" y="-273.76" font-family="Helvetica,sans-Serif" font-size="10.00">kest_effect_preset</text>
<text xml:space="preserve" text-anchor="middle" x="569.62" y="-261.01" font-family="Helvetica,sans-Serif" font-size="10.00">_rep_update</text>
</a>
</g>
</g>
<!-- Node19&#45;&gt;Node20 -->
<g id="edge14_Node000019_Node000020" class="edge">
<title>Node19&#45;&gt;Node20</title>
<g id="a_edge14_Node000019_Node000020"><a xlink:title=" ">
<path fill="none" stroke="#63b8ff" d="M720.8,-197.54C700.11,-211.34 669.46,-230.7 641,-244.51 634.55,-247.63 627.63,-250.62 620.73,-253.37"/>
<polygon fill="#63b8ff" stroke="#63b8ff" points="722.53,-200.6 728.86,-192.11 718.61,-194.8 722.53,-200.6"/>
</a>
</g>
</g>
<!-- Node33 -->
<g id="Node000033" class="node">
<title>Node33</title>
<g id="a_Node000033"><a xlink:href="kest__preset_8c.html#adafdde421c8a45460a73610143e238ec" target="_top" xlink:title=" ">
<polygon fill="white" stroke="#666666" points="626.75,-197.26 512.5,-197.26 512.5,-163.76 626.75,-163.76 626.75,-197.26"/>
<text xml:space="preserve" text-anchor="start" x="520.5" y="-183.76" font-family="Helvetica,sans-Serif" font-size="10.00">kest_preset_file_rep</text>
<text xml:space="preserve" text-anchor="middle" x="569.62" y="-171.01" font-family="Helvetica,sans-Serif" font-size="10.00">_update</text>
</a>
</g>
</g>
<!-- Node19&#45;&gt;Node33 -->
<g id="edge16_Node000019_Node000033" class="edge">
<title>Node19&#45;&gt;Node33</title>
<g id="a_edge16_Node000019_Node000033"><a xlink:title=" ">
<path fill="none" stroke="#63b8ff" d="M697.12,-180.51C675.37,-180.51 649.56,-180.51 626.95,-180.51"/>
<polygon fill="#63b8ff" stroke="#63b8ff" points="696.9,-184.01 706.9,-180.51 696.9,-177.01 696.9,-184.01"/>
</a>
</g>
</g>
<!-- Node38 -->
<g id="Node000038" class="node">
<title>Node38</title>
<g id="a_Node000038"><a xlink:href="kest__preset_8c.html#a6a24248737ac0b5a0379e63a2b48a9f8" target="_top" xlink:title=" ">
<polygon fill="white" stroke="#666666" points="620,-235.88 519.25,-235.88 519.25,-215.13 620,-215.13 620,-235.88"/>
<text xml:space="preserve" text-anchor="middle" x="569.62" y="-222.38" font-family="Helvetica,sans-Serif" font-size="10.00">kest_preset_save</text>
</a>
</g>
</g>
<!-- Node19&#45;&gt;Node38 -->
<g id="edge19_Node000019_Node000038" class="edge">
<title>Node19&#45;&gt;Node38</title>
<g id="a_edge19_Node000019_Node000038"><a xlink:title=" ">
<path fill="none" stroke="#63b8ff" d="M697.47,-192.86C670.99,-199.68 638.39,-208.07 612.88,-214.63"/>
<polygon fill="#63b8ff" stroke="#63b8ff" points="698.14,-196.31 706.95,-190.43 696.39,-189.53 698.14,-196.31"/>
</a>
</g>
</g>
<!-- Node53 -->
<g id="Node000053" class="node">
<title>Node53</title>
<g id="a_Node000053"><a xlink:href="kest__preset__settings_8c.html#aaa59e0b8910390c48668aeed99920b4b" target="_top" xlink:title=" ">
<polygon fill="white" stroke="#666666" points="629.38,-145.26 509.88,-145.26 509.88,-111.76 629.38,-111.76 629.38,-145.26"/>
<text xml:space="preserve" text-anchor="start" x="517.88" y="-131.76" font-family="Helvetica,sans-Serif" font-size="10.00">preset_settings_save</text>
<text xml:space="preserve" text-anchor="middle" x="569.62" y="-119.01" font-family="Helvetica,sans-Serif" font-size="10.00">_button_cb</text>
</a>
</g>
</g>
<!-- Node19&#45;&gt;Node53 -->
<g id="edge21_Node000019_Node000053" class="edge">
<title>Node19&#45;&gt;Node53</title>
<g id="a_edge21_Node000019_Node000053"><a xlink:title=" ">
<path fill="none" stroke="#63b8ff" d="M698.43,-166.51C676.9,-160.11 651.19,-152.46 628.5,-145.71"/>
<polygon fill="#63b8ff" stroke="#63b8ff" points="697.23,-169.8 707.82,-169.3 699.23,-163.1 697.23,-169.8"/>
</a>
</g>
</g>
<!-- Node19&#45;&gt;Node54 -->
<g id="edge22_Node000019_Node000054" class="edge">
<title>Node19&#45;&gt;Node54</title>
<g id="a_edge22_Node000019_Node000054"><a xlink:title=" ">
<path fill="none" stroke="#63b8ff" d="M720.49,-163.15C707.4,-153.93 691.19,-142.3 677,-131.51 672.32,-127.95 611.25,-78.45 583.81,-56.2"/>
<polygon fill="#63b8ff" stroke="#63b8ff" points="718.36,-165.93 728.56,-168.8 722.38,-160.2 718.36,-165.93"/>
</a>
</g>
</g>
<!-- Node21 -->
<g id="Node000021" class="node">
<title>Node21</title>
<g id="a_Node000021"><a xlink:href="kest__effect_8c.html#a6d9927f6d82c964bd07bef5c77879010" target="_top" xlink:title=" ">
<polygon fill="#fff0f0" stroke="red" points="436,-280.88 370.5,-280.88 370.5,-260.13 436,-260.13 436,-280.88"/>
<text xml:space="preserve" text-anchor="middle" x="403.25" y="-267.38" font-family="Helvetica,sans-Serif" font-size="10.00">init_effect</text>
</a>
</g>
</g>
<!-- Node20&#45;&gt;Node21 -->
<g id="edge15_Node000020_Node000021" class="edge">
<title>Node20&#45;&gt;Node21</title>
<g id="a_edge15_Node000020_Node000021"><a xlink:title=" ">
<path fill="none" stroke="#63b8ff" d="M504.82,-270.51C481.3,-270.51 455.66,-270.51 436.16,-270.51"/>
<polygon fill="#63b8ff" stroke="#63b8ff" points="504.65,-274.01 514.65,-270.51 504.65,-267.01 504.65,-274.01"/>
</a>
</g>
</g>
<!-- Node34 -->
<g id="Node000034" class="node">
<title>Node34</title>
<g id="a_Node000034"><a xlink:href="kest__preset_8c.html#a081f5bea4d9dff0740275c4608e75b80" target="_top" xlink:title=" ">
<polygon fill="#fff0f0" stroke="red" points="444.62,-193.88 361.88,-193.88 361.88,-173.13 444.62,-173.13 444.62,-193.88"/>
<text xml:space="preserve" text-anchor="middle" x="403.25" y="-180.38" font-family="Helvetica,sans-Serif" font-size="10.00">init_m_preset</text>
</a>
</g>
</g>
<!-- Node33&#45;&gt;Node34 -->
<g id="edge17_Node000033_Node000034" class="edge">
<title>Node33&#45;&gt;Node34</title>
<g id="a_edge17_Node000033_Node000034"><a xlink:title=" ">
<path fill="none" stroke="#63b8ff" d="M500.77,-181.74C481.87,-182.09 461.92,-182.45 445.09,-182.76"/>
<polygon fill="#63b8ff" stroke="#63b8ff" points="500.61,-185.25 510.54,-181.57 500.48,-178.25 500.61,-185.25"/>
</a>
</g>
</g>
<!-- Node34&#45;&gt;Node16 -->
<g id="edge18_Node000034_Node000016" class="edge">
<title>Node34&#45;&gt;Node16</title>
<g id="a_edge18_Node000034_Node000016"><a xlink:title=" ">
<path fill="none" stroke="#63b8ff" d="M356.52,-197.76C332.04,-205.38 302.38,-214.63 279.8,-221.66"/>
<polygon fill="#63b8ff" stroke="#63b8ff" points="357.4,-201.15 365.91,-194.83 355.32,-194.46 357.4,-201.15"/>
</a>
</g>
</g>
<!-- Node39 -->
<g id="Node000039" class="node">
<title>Node39</title>
<g id="a_Node000039"><a xlink:href="kest__context_8c.html#a6d720cf39977b4ec726901ce8b972c0d" target="_top" xlink:title=" ">
<polygon fill="#fff0f0" stroke="red" points="462.25,-235.88 344.25,-235.88 344.25,-215.13 462.25,-215.13 462.25,-235.88"/>
<text xml:space="preserve" text-anchor="middle" x="403.25" y="-222.38" font-family="Helvetica,sans-Serif" font-size="10.00">cxt_save_all_presets</text>
</a>
</g>
</g>
<!-- Node38&#45;&gt;Node39 -->
<g id="edge20_Node000038_Node000039" class="edge">
<title>Node38&#45;&gt;Node39</title>
<g id="a_edge20_Node000038_Node000039"><a xlink:title=" ">
<path fill="none" stroke="#63b8ff" d="M507.77,-225.51C492.97,-225.51 477.18,-225.51 462.51,-225.51"/>
<polygon fill="#63b8ff" stroke="#63b8ff" points="507.35,-229.01 517.35,-225.51 507.35,-222.01 507.35,-229.01"/>
</a>
</g>
</g>
<!-- Node54&#45;&gt;Node55 -->
<g id="edge23_Node000054_Node000055" class="edge">
<title>Node54&#45;&gt;Node55</title>
<g id="a_edge23_Node000054_Node000055"><a xlink:title=" ">
<path fill="none" stroke="#63b8ff" d="M493.99,-36.88C478.64,-35.11 462.94,-33.29 449.05,-31.68"/>
<polygon fill="#63b8ff" stroke="#63b8ff" points="493.23,-40.31 503.57,-37.99 494.04,-33.36 493.23,-40.31"/>
</a>
</g>
</g>
<!-- Node62 -->
<g id="Node000062" class="node">
<title>Node62</title>
<g id="a_Node000062"><a xlink:href="kest__state_8c.html#a2c43a0057886626aaebb61a5d017da31" target="_top" xlink:title=" ">
<polygon fill="white" stroke="#666666" points="641,-339.26 498.25,-339.26 498.25,-305.76 641,-305.76 641,-339.26"/>
<text xml:space="preserve" text-anchor="start" x="506.25" y="-325.76" font-family="Helvetica,sans-Serif" font-size="10.00">kest_state_representation</text>
<text xml:space="preserve" text-anchor="middle" x="569.62" y="-313.01" font-family="Helvetica,sans-Serif" font-size="10.00">_update</text>
</a>
</g>
</g>
<!-- Node61&#45;&gt;Node62 -->
<g id="edge27_Node000061_Node000062" class="edge">
<title>Node61&#45;&gt;Node62</title>
<g id="a_edge27_Node000061_Node000062"><a xlink:title=" ">
<path fill="none" stroke="#63b8ff" d="M697.52,-285.5C676.55,-291.61 651.76,-298.84 629.68,-305.28"/>
<polygon fill="#63b8ff" stroke="#63b8ff" points="698.34,-288.91 706.96,-282.75 696.38,-282.19 698.34,-288.91"/>
</a>
</g>
</g>
<!-- Node60 -->
<g id="Node000060" class="node">
<title>Node60</title>
<g id="a_Node000060"><a xlink:href="kest__context_8c.html#a8d785a89178c048ac11ee14f2a659993" target="_top" xlink:title=" ">
<polygon fill="white" stroke="#666666" points="293.62,-332.88 194.38,-332.88 194.38,-312.13 293.62,-312.13 293.62,-332.88"/>
<text xml:space="preserve" text-anchor="middle" x="244" y="-319.38" font-family="Helvetica,sans-Serif" font-size="10.00">kest_init_context</text>
</a>
</g>
</g>
<!-- Node62&#45;&gt;Node60 -->
<g id="edge28_Node000062_Node000060" class="edge">
<title>Node62&#45;&gt;Node60</title>
<g id="a_edge28_Node000062_Node000060"><a xlink:title=" ">
<path fill="none" stroke="#63b8ff" d="M486.51,-322.51C425.72,-322.51 344.92,-322.51 293.93,-322.51"/>
<polygon fill="#63b8ff" stroke="#63b8ff" points="486.49,-326.01 496.49,-322.51 486.49,-319.01 486.49,-326.01"/>
</a>
</g>
</g>
<!-- Node60&#45;&gt;Node3 -->
<g id="edge29_Node000060_Node000003" class="edge">
<title>Node60&#45;&gt;Node3</title>
<g id="a_edge29_Node000060_Node000003"><a xlink:title=" ">
<path fill="none" stroke="#63b8ff" d="M195.33,-336.62C177.71,-341.83 158.19,-347.61 142.4,-352.29"/>
<polygon fill="#63b8ff" stroke="#63b8ff" points="196.25,-339.99 204.85,-333.8 194.27,-333.28 196.25,-339.99"/>
</a>
</g>
</g>
<!-- Node60&#45;&gt;Node4 -->
<g id="edge30_Node000060_Node000004" class="edge">
<title>Node60&#45;&gt;Node4</title>
<g id="a_edge30_Node000060_Node000004"><a xlink:title=" ">
<path fill="none" stroke="#63b8ff" d="M182.82,-322.51C169.44,-322.51 155.74,-322.51 143.95,-322.51"/>
<polygon fill="#63b8ff" stroke="#63b8ff" points="182.43,-326.01 192.43,-322.51 182.43,-319.01 182.43,-326.01"/>
</a>
</g>
</g>
</g>
</svg>
