<?xml version="1.0" encoding="UTF-8" standalone="no"?>
<!DOCTYPE svg PUBLIC "-//W3C//DTD SVG 1.1//EN"
 "http://www.w3.org/Graphics/SVG/1.1/DTD/svg11.dtd">
<!-- Generated by graphviz version 13.1.2 (20250808.2320)
 -->
<!-- Title: kest_lfo_deactivate_sync Pages: 1 -->
<svg width="654pt" height="42pt"
 viewBox="0.00 0.00 654.00 42.00" xmlns="http://www.w3.org/2000/svg" xmlns:xlink="http://www.w3.org/1999/xlink">
<g id="graph0" class="graph" transform="scale(1 1) rotate(0) translate(4 37.5)">
<title>kest_lfo_deactivate_sync</title>
<!-- Node1 -->
<g id="Node000001" class="node">
<title>Node1</title>
<g id="a_Node000001"><a xlink:title=" ">
<polygon fill="#999999" stroke="#666666" points="646,-27.12 507,-27.12 507,-6.38 646,-6.38 646,-27.12"/>
<text xml:space="preserve" text-anchor="middle" x="576.5" y="-13.62" font-family="Helvetica,sans-Serif" font-size="10.00">kest_lfo_deactivate_sync</text>
</a>
</g>
</g>
<!-- Node2 -->
<g id="Node000002" class="node">
<title>Node2</title>
<g id="a_Node000002"><a xlink:href="kest__resource_8c.html#a08d29d765469496d2dc0c31b4bdbea3f" target="_top" xlink:title=" ">
<polygon fill="white" stroke="#666666" points="471,-33.5 359.75,-33.5 359.75,0 471,0 471,-33.5"/>
<text xml:space="preserve" text-anchor="start" x="367.75" y="-20" font-family="Helvetica,sans-Serif" font-size="10.00">kest_lfo_deactivate</text>
<text xml:space="preserve" text-anchor="middle" x="415.38" y="-7.25" font-family="Helvetica,sans-Serif" font-size="10.00">_async</text>
</a>
</g>
</g>
<!-- Node1&#45;&gt;Node2 -->
<g id="edge1_Node000001_Node000002" class="edge">
<title>Node1&#45;&gt;Node2</title>
<g id="a_edge1_Node000001_Node000002"><a xlink:title=" ">
<path fill="none" stroke="#63b8ff" d="M495.27,-16.75C487.21,-16.75 479.16,-16.75 471.45,-16.75"/>
<polygon fill="#63b8ff" stroke="#63b8ff" points="495.12,-20.25 505.12,-16.75 495.12,-13.25 495.12,-20.25"/>
</a>
</g>
</g>
<!-- Node3 -->
<g id="Node000003" class="node">
<title>Node3</title>
<g id="a_Node000003"><a xlink:href="kest__effect_8c.html#a71654206f5ac9ebe3d9a9d7e1975a2bd" target="_top" xlink:title=" ">
<polygon fill="white" stroke="#666666" points="323.75,-33.5 196.75,-33.5 196.75,0 323.75,0 323.75,-33.5"/>
<text xml:space="preserve" text-anchor="start" x="204.75" y="-20" font-family="Helvetica,sans-Serif" font-size="10.00">kest_effect_deactivate</text>
<text xml:space="preserve" text-anchor="middle" x="260.25" y="-7.25" font-family="Helvetica,sans-Serif" font-size="10.00">_lfos_async</text>
</a>
</g>
</g>
<!-- Node2&#45;&gt;Node3 -->
<g id="edge2_Node000002_Node000003" class="edge">
<title>Node2&#45;&gt;Node3</title>
<g id="a_edge2_Node000002_Node000003"><a xlink:title=" ">
<path fill="none" stroke="#63b8ff" d="M348.02,-16.75C340.06,-16.75 331.95,-16.75 324.05,-16.75"/>
<polygon fill="#63b8ff" stroke="#63b8ff" points="348.01,-20.25 358.01,-16.75 348.01,-13.25 348.01,-20.25"/>
</a>
</g>
</g>
<!-- Node4 -->
<g id="Node000004" class="node">
<title>Node4</title>
<g id="a_Node000004"><a xlink:href="kest__pipeline_8c.html#a1cab1ccd3a74d785a339adb1143fde31" target="_top" xlink:title=" ">
<polygon fill="#fff0f0" stroke="red" points="160.75,-27.12 0,-27.12 0,-6.38 160.75,-6.38 160.75,-27.12"/>
<text xml:space="preserve" text-anchor="middle" x="80.38" y="-13.62" font-family="Helvetica,sans-Serif" font-size="10.00">kest_pipeline_deactivate_lfos</text>
</a>
</g>
</g>
<!-- Node3&#45;&gt;Node4 -->
<g id="edge3_Node000003_Node000004" class="edge">
<title>Node3&#45;&gt;Node4</title>
<g id="a_edge3_Node000003_Node000004"><a xlink:title=" ">
<path fill="none" stroke="#63b8ff" d="M184.9,-16.75C177.03,-16.75 169.01,-16.75 161.08,-16.75"/>
<polygon fill="#63b8ff" stroke="#63b8ff" points="184.77,-20.25 194.77,-16.75 184.77,-13.25 184.77,-20.25"/>
</a>
</g>
</g>
</g>
</svg>
