<?xml version="1.0" encoding="UTF-8" standalone="no"?>
<!DOCTYPE svg PUBLIC "-//W3C//DTD SVG 1.1//EN"
 "http://www.w3.org/Graphics/SVG/1.1/DTD/svg11.dtd">
<!-- Generated by graphviz version 13.1.2 (20250808.2320)
 -->
<!-- Title: kest_fpga_periodic_read_deactivate_async_wrapper Pages: 1 -->
<svg width="675pt" height="54pt"
 viewBox="0.00 0.00 675.00 54.00" xmlns="http://www.w3.org/2000/svg" xmlns:xlink="http://www.w3.org/1999/xlink">
<g id="graph0" class="graph" transform="scale(1 1) rotate(0) translate(4 50.25)">
<title>kest_fpga_periodic_read_deactivate_async_wrapper</title>
<!-- Node1 -->
<g id="Node000001" class="node">
<title>Node1</title>
<g id="a_Node000001"><a xlink:title=" ">
<polygon fill="#999999" stroke="#666666" points="667,-46.25 533.25,-46.25 533.25,0 667,0 667,-46.25"/>
<text xml:space="preserve" text-anchor="start" x="541.25" y="-32.75" font-family="Helvetica,sans-Serif" font-size="10.00">kest_fpga_periodic</text>
<text xml:space="preserve" text-anchor="start" x="541.25" y="-20" font-family="Helvetica,sans-Serif" font-size="10.00">_read_deactivate_async</text>
<text xml:space="preserve" text-anchor="middle" x="600.12" y="-7.25" font-family="Helvetica,sans-Serif" font-size="10.00">_wrapper</text>
</a>
</g>
</g>
<!-- Node2 -->
<g id="Node000002" class="node">
<title>Node2</title>
<g id="a_Node000002"><a xlink:href="kest__fpga__dma_8c.html#a4af427e853b9c72a314b649c0ecf003e" target="_top" xlink:title=" ">
<polygon fill="white" stroke="#666666" points="497.25,-39.88 363.5,-39.88 363.5,-6.38 497.25,-6.38 497.25,-39.88"/>
<text xml:space="preserve" text-anchor="start" x="371.5" y="-26.38" font-family="Helvetica,sans-Serif" font-size="10.00">kest_fpga_periodic</text>
<text xml:space="preserve" text-anchor="middle" x="430.38" y="-13.62" font-family="Helvetica,sans-Serif" font-size="10.00">_read_deactivate_async</text>
</a>
</g>
</g>
<!-- Node1&#45;&gt;Node2 -->
<g id="edge1_Node000001_Node000002" class="edge">
<title>Node1&#45;&gt;Node2</title>
<g id="a_edge1_Node000001_Node000002"><a xlink:title=" ">
<path fill="none" stroke="#63b8ff" d="M521.35,-23.12C513.46,-23.12 505.5,-23.12 497.74,-23.12"/>
<polygon fill="#63b8ff" stroke="#63b8ff" points="521.31,-26.63 531.31,-23.13 521.31,-19.63 521.31,-26.63"/>
</a>
</g>
</g>
<!-- Node3 -->
<g id="Node000003" class="node">
<title>Node3</title>
<g id="a_Node000003"><a xlink:href="kest__effect_8c.html#a92c1c9ee6b6724c5b3546aa2eb9549d6" target="_top" xlink:title=" ">
<polygon fill="white" stroke="#666666" points="327.5,-39.88 200.5,-39.88 200.5,-6.38 327.5,-6.38 327.5,-39.88"/>
<text xml:space="preserve" text-anchor="start" x="208.5" y="-26.38" font-family="Helvetica,sans-Serif" font-size="10.00">kest_effect_deactivate</text>
<text xml:space="preserve" text-anchor="middle" x="264" y="-13.62" font-family="Helvetica,sans-Serif" font-size="10.00">_dma_async</text>
</a>
</g>
</g>
<!-- Node2&#45;&gt;Node3 -->
<g id="edge2_Node000002_Node000003" class="edge">
<title>Node2&#45;&gt;Node3</title>
<g id="a_edge2_Node000002_Node000003"><a xlink:title=" ">
<path fill="none" stroke="#63b8ff" d="M352.11,-23.12C344.03,-23.12 335.88,-23.12 327.99,-23.12"/>
<polygon fill="#63b8ff" stroke="#63b8ff" points="351.95,-26.63 361.95,-23.13 351.95,-19.63 351.95,-26.63"/>
</a>
</g>
</g>
<!-- Node4 -->
<g id="Node000004" class="node">
<title>Node4</title>
<g id="a_Node000004"><a xlink:href="kest__pipeline_8c.html#aafa017bd89738e92e5c00f1b491e949e" target="_top" xlink:title=" ">
<polygon fill="#fff0f0" stroke="red" points="164.5,-33.5 0,-33.5 0,-12.75 164.5,-12.75 164.5,-33.5"/>
<text xml:space="preserve" text-anchor="middle" x="82.25" y="-20" font-family="Helvetica,sans-Serif" font-size="10.00">kest_pipeline_deactivate_dma</text>
</a>
</g>
</g>
<!-- Node3&#45;&gt;Node4 -->
<g id="edge3_Node000003_Node000004" class="edge">
<title>Node3&#45;&gt;Node4</title>
<g id="a_edge3_Node000003_Node000004"><a xlink:title=" ">
<path fill="none" stroke="#63b8ff" d="M188.69,-23.12C180.78,-23.12 172.71,-23.12 164.72,-23.12"/>
<polygon fill="#63b8ff" stroke="#63b8ff" points="188.62,-26.63 198.62,-23.13 188.62,-19.63 188.62,-26.63"/>
</a>
</g>
</g>
</g>
</svg>
