<?xml version="1.0" encoding="UTF-8" standalone="no"?>
<!DOCTYPE svg PUBLIC "-//W3C//DTD SVG 1.1//EN"
 "http://www.w3.org/Graphics/SVG/1.1/DTD/svg11.dtd">
<!-- Generated by graphviz version 13.1.2 (20250808.2320)
 -->
<!-- Title: kest_button_create_label_ui Pages: 1 -->
<!--zoomable 249 -->

<svg id="main" version="1.1" xmlns="http://www.w3.org/2000/svg" xmlns:xlink="http://www.w3.org/1999/xlink" xml:space="preserve" onload="init(evt)">

<style type="text/css"><![CDATA[
.node, .edge {opacity: 0.7;}
.node.selected, .edge.selected {opacity: 1;}
.edge:hover path { stroke: red; }
.edge:hover polygon { stroke: red; fill: red; }
]]></style>

<defs>
  <circle id="rim" cx="0" cy="0" r="7"/>
  <circle id="rim2" cx="0" cy="0" r="3.5"/>
  <g id="zoomPlus">
    <use xlink:href="#rim" fill="#404040"><set attributeName="fill" to="#808080" begin="zoomplus.mouseover" end="zoomplus.mouseout"/></use>
    <path d="M-4,0h8M0,-4v8" fill="none" stroke="white" stroke-width="1.5" pointer-events="none"/>
  </g>
  <g id="zoomMin">
    <use xlink:href="#rim" fill="#404040"><set attributeName="fill" to="#808080" begin="zoomminus.mouseover" end="zoomminus.mouseout"/></use>
    <path d="M-4,0h8" fill="none" stroke="white" stroke-width="1.5" pointer-events="none"/>
  </g>
  <g id="arrowUp" transform="translate(30 24)">
    <use xlink:href="#rim"/>
    <path pointer-events="none" fill="none" stroke="white" stroke-width="1.5" d="M0,-3.0v7 M-2.5,-0.5L0,-3.0L2.5,-0.5"/>
  </g>
  <g id="arrowRight" transform="rotate(90) translate(36 -43)">
    <use xlink:href="#rim"/>
    <path pointer-events="none" fill="none" stroke="white" stroke-width="1.5" d="M0,-3.0v7 M-2.5,-0.5L0,-3.0L2.5,-0.5"/>
  </g>
  <g id="arrowDown" transform="rotate(180) translate(-30 -48)">
    <use xlink:href="#rim"/>
    <path pointer-events="none" fill="none" stroke="white" stroke-width="1.5" d="M0,-3.0v7 M-2.5,-0.5L0,-3.0L2.5,-0.5"/>
  </g>
  <g id="arrowLeft" transform="rotate(270) translate(-36 17)">
    <use xlink:href="#rim"/>
    <path pointer-events="none" fill="none" stroke="white" stroke-width="1.5" d="M0,-3.0v7 M-2.5,-0.5L0,-3.0L2.5,-0.5"/>
  </g>
  <g id="resetDef">
    <use xlink:href="#rim2" fill="#404040"><set attributeName="fill" to="#808080" begin="reset.mouseover" end="reset.mouseout"/></use>
  </g>
</defs>
<script type="application/ecmascript">
var viewWidth = 726;
var viewHeight = 249;
var sectionId = 'dynsection-77';
</script>
<script type="application/ecmascript" xlink:href="svg.min.js"/>
<svg id="graph" class="graph">
<g id="viewport">
<title>kest_button_create_label_ui</title>
<!-- Node1 -->
<g id="Node000001" class="node">
<title>Node1</title>
<g id="a_Node000001"><a xlink:title=" ">
<polygon fill="#999999" stroke="#666666" points="718.25,-176.12 609.25,-176.12 609.25,-142.62 718.25,-142.62 718.25,-176.12"/>
<text xml:space="preserve" text-anchor="start" x="617.25" y="-162.62" font-family="Helvetica,sans-Serif" font-size="10.00">kest_button_create</text>
<text xml:space="preserve" text-anchor="middle" x="663.75" y="-149.88" font-family="Helvetica,sans-Serif" font-size="10.00">_label_ui</text>
</a>
</g>
</g>
<!-- Node2 -->
<g id="Node000002" class="node">
<title>Node2</title>
<g id="a_Node000002"><a xlink:href="kest__button_8c.html#ab3d484ae52f7d01018eba300e3fe4e1f" target="_top" xlink:title=" ">
<polygon fill="white" stroke="#666666" points="403.5,-176.12 295.25,-176.12 295.25,-142.62 403.5,-142.62 403.5,-176.12"/>
<text xml:space="preserve" text-anchor="start" x="303.25" y="-162.62" font-family="Helvetica,sans-Serif" font-size="10.00">kest_active_button</text>
<text xml:space="preserve" text-anchor="middle" x="349.38" y="-149.88" font-family="Helvetica,sans-Serif" font-size="10.00">_reset_del_button</text>
</a>
</g>
</g>
<!-- Node1&#45;&gt;Node2 -->
<g id="edge1_Node000001_Node000002" class="edge">
<title>Node1&#45;&gt;Node2</title>
<g id="a_edge1_Node000001_Node000002"><a xlink:title=" ">
<path fill="none" stroke="#63b8ff" d="M597.56,-159.38C540.14,-159.38 457.52,-159.38 403.9,-159.38"/>
<polygon fill="#63b8ff" stroke="#63b8ff" points="597.54,-162.88 607.54,-159.38 597.54,-155.88 597.54,-162.88"/>
</a>
</g>
</g>
<!-- Node39 -->
<g id="Node000039" class="node">
<title>Node39</title>
<g id="a_Node000039"><a xlink:href="kest__button_8c.html#ab59ebaba4ff87ed51677e73ba4aac2ef" target="_top" xlink:title=" ">
<polygon fill="white" stroke="#666666" points="414.75,-240.5 284,-240.5 284,-194.25 414.75,-194.25 414.75,-240.5"/>
<text xml:space="preserve" text-anchor="start" x="292" y="-227" font-family="Helvetica,sans-Serif" font-size="10.00">kest_active_button</text>
<text xml:space="preserve" text-anchor="start" x="292" y="-214.25" font-family="Helvetica,sans-Serif" font-size="10.00">_swap_del_button_for</text>
<text xml:space="preserve" text-anchor="middle" x="349.38" y="-201.5" font-family="Helvetica,sans-Serif" font-size="10.00">_persistent_unclickable</text>
</a>
</g>
</g>
<!-- Node1&#45;&gt;Node39 -->
<g id="edge4_Node000001_Node000039" class="edge">
<title>Node1&#45;&gt;Node39</title>
<g id="a_edge4_Node000001_Node000039"><a xlink:title=" ">
<path fill="none" stroke="#63b8ff" d="M597.96,-171.4C544.34,-181.36 468.55,-195.43 414.98,-205.38"/>
<polygon fill="#63b8ff" stroke="#63b8ff" points="598.37,-174.89 607.56,-169.62 597.09,-168.01 598.37,-174.89"/>
</a>
</g>
</g>
<!-- Node40 -->
<g id="Node000040" class="node">
<title>Node40</title>
<g id="a_Node000040"><a xlink:href="kest__button_8c.html#ac24f7930db96a5006a81ec8255ad0e6c" target="_top" xlink:title=" ">
<polygon fill="white" stroke="#666666" points="573.25,-124.75 450.75,-124.75 450.75,-104 573.25,-104 573.25,-124.75"/>
<text xml:space="preserve" text-anchor="middle" x="512" y="-111.25" font-family="Helvetica,sans-Serif" font-size="10.00">kest_button_set_label</text>
</a>
</g>
</g>
<!-- Node1&#45;&gt;Node40 -->
<g id="edge6_Node000001_Node000040" class="edge">
<title>Node1&#45;&gt;Node40</title>
<g id="a_edge6_Node000001_Node000040"><a xlink:title=" ">
<path fill="none" stroke="#63b8ff" d="M598.17,-139.97C581.3,-134.9 563.73,-129.62 548.95,-125.18"/>
<polygon fill="#63b8ff" stroke="#63b8ff" points="597.08,-143.29 607.66,-142.82 599.09,-136.59 597.08,-143.29"/>
</a>
</g>
</g>
<!-- Node3 -->
<g id="Node000003" class="node">
<title>Node3</title>
<g id="a_Node000003"><a xlink:href="kest__sequence__view_8c.html#a08de2e10fc1c406742820cb4edd78cc3" target="_top" xlink:title=" ">
<polygon fill="white" stroke="#666666" points="243.12,-172.12 116.12,-172.12 116.12,-138.62 243.12,-138.62 243.12,-172.12"/>
<text xml:space="preserve" text-anchor="start" x="124.12" y="-158.62" font-family="Helvetica,sans-Serif" font-size="10.00">sequence_view_preset</text>
<text xml:space="preserve" text-anchor="middle" x="179.62" y="-145.88" font-family="Helvetica,sans-Serif" font-size="10.00">_button_rep_update</text>
</a>
</g>
</g>
<!-- Node2&#45;&gt;Node3 -->
<g id="edge2_Node000002_Node000003" class="edge">
<title>Node2&#45;&gt;Node3</title>
<g id="a_edge2_Node000002_Node000003"><a xlink:title=" ">
<path fill="none" stroke="#63b8ff" d="M283.52,-157.83C270.41,-157.52 256.65,-157.19 243.61,-156.88"/>
<polygon fill="#63b8ff" stroke="#63b8ff" points="283.24,-161.32 293.32,-158.06 283.41,-154.32 283.24,-161.32"/>
</a>
</g>
</g>
<!-- Node4 -->
<g id="Node000004" class="node">
<title>Node4</title>
<g id="a_Node000004"><a xlink:href="kest__sequence__view_8c.html#a83d1a352af6a3932ce4d08e01f7d8d8a" target="_top" xlink:title=" ">
<polygon fill="#fff0f0" stroke="red" points="75.25,-117.75 0,-117.75 0,-97 75.25,-97 75.25,-117.75"/>
<text xml:space="preserve" text-anchor="middle" x="37.62" y="-104.25" font-family="Helvetica,sans-Serif" font-size="10.00">seq_plus_cb</text>
</a>
</g>
</g>
<!-- Node3&#45;&gt;Node4 -->
<g id="edge3_Node000003_Node000004" class="edge">
<title>Node3&#45;&gt;Node4</title>
<g id="a_edge3_Node000003_Node000004"><a xlink:title=" ">
<path fill="none" stroke="#63b8ff" d="M117.81,-134.52C101.37,-128.89 84.24,-123.01 70.14,-118.18"/>
<polygon fill="#63b8ff" stroke="#63b8ff" points="116.45,-137.76 127.05,-137.69 118.72,-131.14 116.45,-137.76"/>
</a>
</g>
</g>
<!-- Node39&#45;&gt;Node3 -->
<g id="edge5_Node000039_Node000003" class="edge">
<title>Node39&#45;&gt;Node3</title>
<g id="a_edge5_Node000039_Node000003"><a xlink:title=" ">
<path fill="none" stroke="#63b8ff" d="M274.08,-189.92C258.11,-184.01 241.68,-177.94 227.13,-172.56"/>
<polygon fill="#63b8ff" stroke="#63b8ff" points="272.46,-193.05 283.06,-193.23 274.89,-186.48 272.46,-193.05"/>
</a>
</g>
</g>
<!-- Node40&#45;&gt;Node2 -->
<g id="edge15_Node000040_Node000002" class="edge">
<title>Node40&#45;&gt;Node2</title>
<g id="a_edge15_Node000040_Node000002"><a xlink:title=" ">
<path fill="none" stroke="#63b8ff" d="M461.49,-128.24C443.18,-133.37 422.35,-139.21 403.72,-144.43"/>
<polygon fill="#63b8ff" stroke="#63b8ff" points="462.38,-131.63 471.07,-125.56 460.5,-124.89 462.38,-131.63"/>
</a>
</g>
</g>
<!-- Node40&#45;&gt;Node39 -->
<g id="edge16_Node000040_Node000039" class="edge">
<title>Node40&#45;&gt;Node39</title>
<g id="a_edge16_Node000040_Node000039"><a xlink:title=" ">
<path fill="none" stroke="#63b8ff" d="M489.37,-132.03C470.34,-147.14 441.58,-168.98 414.75,-185.38 410.06,-188.24 405.09,-191.06 400.06,-193.78"/>
<polygon fill="#63b8ff" stroke="#63b8ff" points="491.33,-134.95 496.94,-125.96 486.95,-129.49 491.33,-134.95"/>
</a>
</g>
</g>
<!-- Node41 -->
<g id="Node000041" class="node">
<title>Node41</title>
<g id="a_Node000041"><a xlink:href="kest__menu_8c.html#a86c6c0acd2dfb8a62bd96bbfd739e687" target="_top" xlink:title=" ">
<polygon fill="white" stroke="#666666" points="411.75,-20.75 287,-20.75 287,0 411.75,0 411.75,-20.75"/>
<text xml:space="preserve" text-anchor="middle" x="349.38" y="-7.25" font-family="Helvetica,sans-Serif" font-size="10.00">configure_main_menu</text>
</a>
</g>
</g>
<!-- Node40&#45;&gt;Node41 -->
<g id="edge7_Node000040_Node000041" class="edge">
<title>Node40&#45;&gt;Node41</title>
<g id="a_edge7_Node000040_Node000041"><a xlink:title=" ">
<path fill="none" stroke="#63b8ff" d="M494.19,-95.28C476.29,-76.04 446.24,-46.79 414.75,-29.38 408.94,-26.16 402.52,-23.44 396.06,-21.14"/>
<polygon fill="#63b8ff" stroke="#63b8ff" points="491.41,-97.41 500.72,-102.46 496.58,-92.7 491.41,-97.41"/>
</a>
</g>
</g>
<!-- Node43 -->
<g id="Node000043" class="node">
<title>Node43</title>
<g id="a_Node000043"><a xlink:href="kest__button_8c.html#a209511305dd2db40751857097e1e82c1" target="_top" xlink:title=" ">
<polygon fill="white" stroke="#666666" points="403.5,-72.12 295.25,-72.12 295.25,-38.62 403.5,-38.62 403.5,-72.12"/>
<text xml:space="preserve" text-anchor="start" x="303.25" y="-58.62" font-family="Helvetica,sans-Serif" font-size="10.00">kest_active_button</text>
<text xml:space="preserve" text-anchor="middle" x="349.38" y="-45.88" font-family="Helvetica,sans-Serif" font-size="10.00">_add_del_button</text>
</a>
</g>
</g>
<!-- Node40&#45;&gt;Node43 -->
<g id="edge9_Node000040_Node000043" class="edge">
<title>Node40&#45;&gt;Node43</title>
<g id="a_edge9_Node000040_Node000043"><a xlink:title=" ">
<path fill="none" stroke="#63b8ff" d="M470.76,-99.59C448.45,-91.4 420.6,-81.17 397.31,-72.61"/>
<polygon fill="#63b8ff" stroke="#63b8ff" points="469.52,-102.87 480.12,-103.03 471.94,-96.3 469.52,-102.87"/>
</a>
</g>
</g>
<!-- Node56 -->
<g id="Node000056" class="node">
<title>Node56</title>
<g id="a_Node000056"><a xlink:href="kest__button_8c.html#a9899cf8789d635db3bb8b1d4c514e140" target="_top" xlink:title=" ">
<polygon fill="white" stroke="#666666" points="403.5,-124.12 295.25,-124.12 295.25,-90.62 403.5,-90.62 403.5,-124.12"/>
<text xml:space="preserve" text-anchor="start" x="303.25" y="-110.62" font-family="Helvetica,sans-Serif" font-size="10.00">kest_active_button</text>
<text xml:space="preserve" text-anchor="middle" x="349.38" y="-97.88" font-family="Helvetica,sans-Serif" font-size="10.00">_change_label</text>
</a>
</g>
</g>
<!-- Node40&#45;&gt;Node56 -->
<g id="edge12_Node000040_Node000056" class="edge">
<title>Node40&#45;&gt;Node56</title>
<g id="a_edge12_Node000040_Node000056"><a xlink:title=" ">
<path fill="none" stroke="#63b8ff" d="M439.03,-111.24C427.19,-110.72 415.1,-110.2 403.81,-109.7"/>
<polygon fill="#63b8ff" stroke="#63b8ff" points="438.62,-114.72 448.76,-111.66 438.92,-107.73 438.62,-114.72"/>
</a>
</g>
</g>
<!-- Node42 -->
<g id="Node000042" class="node">
<title>Node42</title>
<g id="a_Node000042"><a xlink:href="kest__menu_8c.html#a6aa16fb3d12f098f021ae677605e683e" target="_top" xlink:title=" ">
<polygon fill="#fff0f0" stroke="red" points="227,-20.75 132.25,-20.75 132.25,0 227,0 227,-20.75"/>
<text xml:space="preserve" text-anchor="middle" x="179.62" y="-7.25" font-family="Helvetica,sans-Serif" font-size="10.00">init_main_menu</text>
</a>
</g>
</g>
<!-- Node41&#45;&gt;Node42 -->
<g id="edge8_Node000041_Node000042" class="edge">
<title>Node41&#45;&gt;Node42</title>
<g id="a_edge8_Node000041_Node000042"><a xlink:title=" ">
<path fill="none" stroke="#63b8ff" d="M275.66,-10.38C259.31,-10.38 242.37,-10.38 227.41,-10.38"/>
<polygon fill="#63b8ff" stroke="#63b8ff" points="275.35,-13.88 285.35,-10.38 275.35,-6.88 275.35,-13.88"/>
</a>
</g>
</g>
<!-- Node44 -->
<g id="Node000044" class="node">
<title>Node44</title>
<g id="a_Node000044"><a xlink:href="kest__button_8c.html#a760fe364ce4f5be2c972ff685e2f9825" target="_top" xlink:title=" ">
<polygon fill="#fff0f0" stroke="red" points="236.38,-76.12 122.88,-76.12 122.88,-42.62 236.38,-42.62 236.38,-76.12"/>
<text xml:space="preserve" text-anchor="start" x="130.88" y="-62.62" font-family="Helvetica,sans-Serif" font-size="10.00">kest_active_button</text>
<text xml:space="preserve" text-anchor="middle" x="179.62" y="-49.88" font-family="Helvetica,sans-Serif" font-size="10.00">_array_append_new</text>
</a>
</g>
</g>
<!-- Node43&#45;&gt;Node44 -->
<g id="edge10_Node000043_Node000044" class="edge">
<title>Node43&#45;&gt;Node44</title>
<g id="a_edge10_Node000043_Node000044"><a xlink:title=" ">
<path fill="none" stroke="#63b8ff" d="M283.77,-56.92C268.29,-57.28 251.89,-57.68 236.83,-58.03"/>
<polygon fill="#63b8ff" stroke="#63b8ff" points="283.41,-60.43 293.32,-56.69 283.24,-53.43 283.41,-60.43"/>
</a>
</g>
</g>
<!-- Node44&#45;&gt;Node4 -->
<g id="edge11_Node000044_Node000004" class="edge">
<title>Node44&#45;&gt;Node4</title>
<g id="a_edge11_Node000044_Node000004"><a xlink:title=" ">
<path fill="none" stroke="#63b8ff" d="M117.81,-80.23C101.37,-85.86 84.24,-91.74 70.14,-96.57"/>
<polygon fill="#63b8ff" stroke="#63b8ff" points="118.72,-83.61 127.05,-77.06 116.45,-76.99 118.72,-83.61"/>
</a>
</g>
</g>
<!-- Node56&#45;&gt;Node3 -->
<g id="edge14_Node000056_Node000003" class="edge">
<title>Node56&#45;&gt;Node3</title>
<g id="a_edge14_Node000056_Node000003"><a xlink:title=" ">
<path fill="none" stroke="#63b8ff" d="M284.1,-125.77C269.82,-129.85 254.74,-134.17 240.64,-138.2"/>
<polygon fill="#63b8ff" stroke="#63b8ff" points="284.73,-129.23 293.38,-123.11 282.8,-122.5 284.73,-129.23"/>
</a>
</g>
</g>
<!-- Node57 -->
<g id="Node000057" class="node">
<title>Node57</title>
<g id="a_Node000057"><a xlink:href="kest__preset__view_8c.html#ade89bd7d1c6c48f2a18f8ae54a703029" target="_top" xlink:title=" ">
<polygon fill="#fff0f0" stroke="red" points="248,-117.75 111.25,-117.75 111.25,-97 248,-97 248,-117.75"/>
<text xml:space="preserve" text-anchor="middle" x="179.62" y="-104.25" font-family="Helvetica,sans-Serif" font-size="10.00">preset_view_save_name</text>
</a>
</g>
</g>
<!-- Node56&#45;&gt;Node57 -->
<g id="edge13_Node000056_Node000057" class="edge">
<title>Node56&#45;&gt;Node57</title>
<g id="a_edge13_Node000056_Node000057"><a xlink:title=" ">
<path fill="none" stroke="#63b8ff" d="M283.52,-107.38C272.01,-107.38 259.99,-107.38 248.4,-107.38"/>
<polygon fill="#63b8ff" stroke="#63b8ff" points="283.32,-110.88 293.32,-107.38 283.32,-103.88 283.32,-110.88"/>
</a>
</g>
</g>
</g>
</svg>

<g id="navigator" transform="translate(0 0)" fill="#404254">
  <rect fill="#f2f5e9" fill-opacity="0.5" stroke="#606060" stroke-width=".5" x="0" y="0" width="60" height="60"/>
  <use id="zoomplus" xlink:href="#zoomPlus" x="17" y="9" onmousedown="handleZoom(evt,'in')"/>
  <use id="zoomminus" xlink:href="#zoomMin" x="42" y="9" onmousedown="handleZoom(evt,'out')"/>
  <use id="reset" xlink:href="#resetDef" x="30" y="36" onmousedown="handleReset()"/>
   <use id="arrowup" xlink:href="#arrowUp" x="0" y="0" onmousedown="handlePan(0,-1)"/>
  <use id="arrowright" xlink:href="#arrowRight" x="0" y="0" onmousedown="handlePan(1,0)"/>
  <use id="arrowdown" xlink:href="#arrowDown" x="0" y="0" onmousedown="handlePan(0,1)"/>
  <use id="arrowleft" xlink:href="#arrowLeft" x="0" y="0" onmousedown="handlePan(-1,0)"/>
</g>
<svg viewBox="0 0 15 15" width="100%" height="30px" preserveAspectRatio="xMaxYMin meet">
 <g id="arrow_out" transform="scale(0.3 0.3)">
  <a xlink:href="kest__button_8c_a56b5c7012f627d4d3f454029e26f1bef_icgraph_org.svg" target="_base">
   <rect id="button" ry="5" rx="5" y="6" x="6" height="38" width="38"
        fill="#f2f5e9" fill-opacity="0.5" stroke="#606060" stroke-width="1.0"/>
   <path id="arrow"
     d="M 11.500037,31.436501 C 11.940474,20.09759 22.043105,11.32322 32.158766,21.979434 L 37.068811,17.246167 C 37.068811,17.246167 37.088388,32 37.088388,32 L 22.160133,31.978069 C 22.160133,31.978069 26.997745,27.140456 26.997745,27.140456 C 18.528582,18.264221 13.291696,25.230495 11.500037,31.436501 z"
     style="fill:#404040;"/>
  </a>
 </g>
</svg>

<style type='text/css'>
<![CDATA[
[data-mouse-over-selected='false'] { opacity: 0.7; }
[data-mouse-over-selected='true']  { opacity: 1.0; }
]]>
</style>
<script type="application/ecmascript"><![CDATA[
document.addEventListener('DOMContentLoaded', (event) => {
  highlightEdges();
  highlightAdjacentNodes();
});
]]></script>
</svg>
