<?xml version="1.0" encoding="UTF-8" standalone="no"?>
<!DOCTYPE svg PUBLIC "-//W3C//DTD SVG 1.1//EN"
 "http://www.w3.org/Graphics/SVG/1.1/DTD/svg11.dtd">
<!-- Generated by graphviz version 13.1.2 (20250808.2320)
 -->
<!-- Title: kest_expression_is_constant Pages: 1 -->
<svg width="662pt" height="210pt"
 viewBox="0.00 0.00 662.00 210.00" xmlns="http://www.w3.org/2000/svg" xmlns:xlink="http://www.w3.org/1999/xlink">
<g id="graph0" class="graph" transform="scale(1 1) rotate(0) translate(4 205.5)">
<title>kest_expression_is_constant</title>
<!-- Node1 -->
<g id="Node000001" class="node">
<title>Node1</title>
<g id="a_Node000001"><a xlink:title=" ">
<polygon fill="#999999" stroke="#666666" points="653.5,-126.5 545.25,-126.5 545.25,-93 653.5,-93 653.5,-126.5"/>
<text xml:space="preserve" text-anchor="start" x="553.25" y="-113" font-family="Helvetica,sans-Serif" font-size="10.00">kest_expression_is</text>
<text xml:space="preserve" text-anchor="middle" x="599.38" y="-100.25" font-family="Helvetica,sans-Serif" font-size="10.00">_constant</text>
</a>
</g>
</g>
<!-- Node2 -->
<g id="Node000002" class="node">
<title>Node2</title>
<g id="a_Node000002"><a xlink:href="kest__dictionary_8c.html#abce7305c0db3c25c5d569189f9f60280" target="_top" xlink:title=" ">
<polygon fill="white" stroke="#666666" points="503.25,-201.5 382.25,-201.5 382.25,-168 503.25,-168 503.25,-201.5"/>
<text xml:space="preserve" text-anchor="start" x="390.25" y="-188" font-family="Helvetica,sans-Serif" font-size="10.00">kest_dictionary_entry</text>
<text xml:space="preserve" text-anchor="middle" x="442.75" y="-175.25" font-family="Helvetica,sans-Serif" font-size="10.00">_is_constant_number</text>
</a>
</g>
</g>
<!-- Node1&#45;&gt;Node2 -->
<g id="edge1_Node000001_Node000002" class="edge">
<title>Node1&#45;&gt;Node2</title>
<g id="a_edge1_Node000001_Node000002"><a xlink:title=" ">
<path fill="none" stroke="#63b8ff" d="M559.8,-132.33C544.31,-141.03 526.15,-150.79 509.25,-158.75 502.83,-161.77 495.96,-164.76 489.17,-167.58"/>
<polygon fill="#63b8ff" stroke="#63b8ff" points="561.26,-135.52 568.23,-127.54 557.81,-129.44 561.26,-135.52"/>
</a>
</g>
</g>
<!-- Node5 -->
<g id="Node000005" class="node">
<title>Node5</title>
<g id="a_Node000005"><a xlink:href="kest__dict__extract_8c.html#aaef489a5ae1caa02a5e5a3ce26034d48" target="_top" xlink:title=" ">
<polygon fill="white" stroke="#666666" points="509.25,-149.5 376.25,-149.5 376.25,-116 509.25,-116 509.25,-149.5"/>
<text xml:space="preserve" text-anchor="start" x="384.25" y="-136" font-family="Helvetica,sans-Serif" font-size="10.00">kest_extract_int_setting</text>
<text xml:space="preserve" text-anchor="middle" x="442.75" y="-123.25" font-family="Helvetica,sans-Serif" font-size="10.00">_from_dict</text>
</a>
</g>
</g>
<!-- Node1&#45;&gt;Node5 -->
<g id="edge4_Node000001_Node000005" class="edge">
<title>Node1&#45;&gt;Node5</title>
<g id="a_edge4_Node000001_Node000005"><a xlink:title=" ">
<path fill="none" stroke="#63b8ff" d="M533.96,-119.33C525.92,-120.53 517.69,-121.75 509.63,-122.95"/>
<polygon fill="#63b8ff" stroke="#63b8ff" points="534.29,-122.82 543.66,-117.89 533.26,-115.9 534.29,-122.82"/>
</a>
</g>
</g>
<!-- Node6 -->
<g id="Node000006" class="node">
<title>Node6</title>
<g id="a_Node000006"><a xlink:href="kest__dict__extract_8c.html#a0225c4392c944b41b1db66787be35243" target="_top" xlink:title=" ">
<polygon fill="white" stroke="#666666" points="318.5,-130.5 203.5,-130.5 203.5,-97 318.5,-97 318.5,-130.5"/>
<text xml:space="preserve" text-anchor="start" x="211.5" y="-117" font-family="Helvetica,sans-Serif" font-size="10.00">kest_extract_setting</text>
<text xml:space="preserve" text-anchor="middle" x="261" y="-104.25" font-family="Helvetica,sans-Serif" font-size="10.00">_from_dict</text>
</a>
</g>
</g>
<!-- Node1&#45;&gt;Node6 -->
<g id="edge6_Node000001_Node000006" class="edge">
<title>Node1&#45;&gt;Node6</title>
<g id="a_edge6_Node000001_Node000006"><a xlink:title=" ">
<path fill="none" stroke="#63b8ff" d="M533.63,-107.31C525.42,-107.08 517.14,-106.88 509.25,-106.75 450.15,-105.76 435.33,-104.94 376.25,-106.75 357.58,-107.32 337.22,-108.42 318.92,-109.57"/>
<polygon fill="#63b8ff" stroke="#63b8ff" points="533.51,-110.81 543.61,-107.62 533.73,-103.82 533.51,-110.81"/>
</a>
</g>
</g>
<!-- Node7 -->
<g id="Node000007" class="node">
<title>Node7</title>
<g id="a_Node000007"><a xlink:href="kest__parameter_8c.html#a7cf51c19ac7f4f01c97a788a7365c889" target="_top" xlink:title=" ">
<polygon fill="white" stroke="#666666" points="499.5,-59.5 386,-59.5 386,-26 499.5,-26 499.5,-59.5"/>
<text xml:space="preserve" text-anchor="start" x="394" y="-46" font-family="Helvetica,sans-Serif" font-size="10.00">kest_parameter_get</text>
<text xml:space="preserve" text-anchor="middle" x="442.75" y="-33.25" font-family="Helvetica,sans-Serif" font-size="10.00">_range_rec</text>
</a>
</g>
</g>
<!-- Node1&#45;&gt;Node7 -->
<g id="edge7_Node000001_Node000007" class="edge">
<title>Node1&#45;&gt;Node7</title>
<g id="a_edge7_Node000001_Node000007"><a xlink:title=" ">
<path fill="none" stroke="#63b8ff" d="M548.57,-88.17C527.46,-79.02 503.22,-68.52 483.37,-59.92"/>
<polygon fill="#63b8ff" stroke="#63b8ff" points="547,-91.3 557.57,-92.07 549.78,-84.88 547,-91.3"/>
</a>
</g>
</g>
<!-- Node3 -->
<g id="Node000003" class="node">
<title>Node3</title>
<g id="a_Node000003"><a xlink:href="kest__dict__extract_8c.html#ab9eb2913c5cfcd0dd01128a9b0d3be9a" target="_top" xlink:title=" ">
<polygon fill="white" stroke="#666666" points="340.25,-195.12 181.75,-195.12 181.75,-174.38 340.25,-174.38 340.25,-195.12"/>
<text xml:space="preserve" text-anchor="middle" x="261" y="-181.62" font-family="Helvetica,sans-Serif" font-size="10.00">kest_extract_mem_from_dict</text>
</a>
</g>
</g>
<!-- Node2&#45;&gt;Node3 -->
<g id="edge2_Node000002_Node000003" class="edge">
<title>Node2&#45;&gt;Node3</title>
<g id="a_edge2_Node000002_Node000003"><a xlink:title=" ">
<path fill="none" stroke="#63b8ff" d="M370.49,-184.75C360.62,-184.75 350.45,-184.75 340.46,-184.75"/>
<polygon fill="#63b8ff" stroke="#63b8ff" points="370.38,-188.25 380.38,-184.75 370.38,-181.25 370.38,-188.25"/>
</a>
</g>
</g>
<!-- Node4 -->
<g id="Node000004" class="node">
<title>Node4</title>
<g id="a_Node000004"><a xlink:href="kest__dict__extract_8c.html#ad78dabb9f962180138c9dfc2bf1731e3" target="_top" xlink:title=" ">
<polygon fill="white" stroke="#666666" points="134.5,-201.5 11.25,-201.5 11.25,-168 134.5,-168 134.5,-201.5"/>
<text xml:space="preserve" text-anchor="start" x="19.25" y="-188" font-family="Helvetica,sans-Serif" font-size="10.00">kest_extract_resource</text>
<text xml:space="preserve" text-anchor="middle" x="72.88" y="-175.25" font-family="Helvetica,sans-Serif" font-size="10.00">_from_dict</text>
</a>
</g>
</g>
<!-- Node3&#45;&gt;Node4 -->
<g id="edge3_Node000003_Node000004" class="edge">
<title>Node3&#45;&gt;Node4</title>
<g id="a_edge3_Node000003_Node000004"><a xlink:title=" ">
<path fill="none" stroke="#63b8ff" d="M169.95,-184.75C158.02,-184.75 146.03,-184.75 134.75,-184.75"/>
<polygon fill="#63b8ff" stroke="#63b8ff" points="169.82,-188.25 179.82,-184.75 169.82,-181.25 169.82,-188.25"/>
</a>
</g>
</g>
<!-- Node5&#45;&gt;Node6 -->
<g id="edge5_Node000005_Node000006" class="edge">
<title>Node5&#45;&gt;Node6</title>
<g id="a_edge5_Node000005_Node000006"><a xlink:title=" ">
<path fill="none" stroke="#63b8ff" d="M364.72,-124.61C349.28,-122.98 333.32,-121.29 318.73,-119.75"/>
<polygon fill="#63b8ff" stroke="#63b8ff" points="364.02,-128.05 374.33,-125.62 364.76,-121.09 364.02,-128.05"/>
</a>
</g>
</g>
<!-- Node8 -->
<g id="Node000008" class="node">
<title>Node8</title>
<g id="a_Node000008"><a xlink:href="kest__parameter_8c.html#aed9bf2d04b704f1d4119124999a692e0" target="_top" xlink:title=" ">
<polygon fill="white" stroke="#666666" points="317.75,-59.5 204.25,-59.5 204.25,-26 317.75,-26 317.75,-59.5"/>
<text xml:space="preserve" text-anchor="start" x="212.25" y="-46" font-family="Helvetica,sans-Serif" font-size="10.00">kest_parameter_get</text>
<text xml:space="preserve" text-anchor="middle" x="261" y="-33.25" font-family="Helvetica,sans-Serif" font-size="10.00">_range</text>
</a>
</g>
</g>
<!-- Node7&#45;&gt;Node8 -->
<g id="edge8_Node000007_Node000008" class="edge">
<title>Node7&#45;&gt;Node8</title>
<g id="a_edge8_Node000007_Node000008"><a xlink:title=" ">
<path fill="none" stroke="#63b8ff" d="M374.52,-42.75C355.96,-42.75 336.02,-42.75 318.16,-42.75"/>
<polygon fill="#63b8ff" stroke="#63b8ff" points="374.35,-46.25 384.35,-42.75 374.35,-39.25 374.35,-46.25"/>
</a>
</g>
</g>
<!-- Node9 -->
<g id="Node000009" class="node">
<title>Node9</title>
<g id="a_Node000009"><a xlink:href="kest__parameter__widget_8c.html#af94dfc8bbb394e3264533d794d147e95" target="_top" xlink:title=" ">
<polygon fill="#fff0f0" stroke="red" points="145.75,-85.5 0,-85.5 0,-52 145.75,-52 145.75,-85.5"/>
<text xml:space="preserve" text-anchor="start" x="8" y="-72" font-family="Helvetica,sans-Serif" font-size="10.00">parameter_widget_change</text>
<text xml:space="preserve" text-anchor="middle" x="72.88" y="-59.25" font-family="Helvetica,sans-Serif" font-size="10.00">_cb_inner</text>
</a>
</g>
</g>
<!-- Node8&#45;&gt;Node9 -->
<g id="edge9_Node000008_Node000009" class="edge">
<title>Node8&#45;&gt;Node9</title>
<g id="a_edge9_Node000008_Node000009"><a xlink:title=" ">
<path fill="none" stroke="#63b8ff" d="M192.57,-52.17C177.45,-54.28 161.36,-56.53 146.06,-58.67"/>
<polygon fill="#63b8ff" stroke="#63b8ff" points="192.99,-55.65 202.4,-50.8 192.02,-48.71 192.99,-55.65"/>
</a>
</g>
</g>
<!-- Node63 -->
<g id="Node000063" class="node">
<title>Node63</title>
<g id="a_Node000063"><a xlink:href="kest__parameter__widget_8c.html#abad910124e9bf706a008ab86f8bf70e6" target="_top" xlink:title=" ">
<polygon fill="#fff0f0" stroke="red" points="145,-33.5 0.75,-33.5 0.75,0 145,0 145,-33.5"/>
<text xml:space="preserve" text-anchor="start" x="8.75" y="-20" font-family="Helvetica,sans-Serif" font-size="10.00">parameter_widget_update</text>
<text xml:space="preserve" text-anchor="middle" x="72.88" y="-7.25" font-family="Helvetica,sans-Serif" font-size="10.00">_value</text>
</a>
</g>
</g>
<!-- Node8&#45;&gt;Node63 -->
<g id="edge10_Node000008_Node000063" class="edge">
<title>Node8&#45;&gt;Node63</title>
<g id="a_edge10_Node000008_Node000063"><a xlink:title=" ">
<path fill="none" stroke="#63b8ff" d="M192.88,-33.37C177.45,-31.22 160.99,-28.92 145.38,-26.74"/>
<polygon fill="#63b8ff" stroke="#63b8ff" points="192.02,-36.79 202.4,-34.7 192.99,-29.85 192.02,-36.79"/>
</a>
</g>
</g>
</g>
</svg>
