<?xml version="1.0" encoding="UTF-8" standalone="no"?>
<!DOCTYPE svg PUBLIC "-//W3C//DTD SVG 1.1//EN"
 "http://www.w3.org/Graphics/SVG/1.1/DTD/svg11.dtd">
<!-- Generated by graphviz version 13.1.2 (20250808.2320)
 -->
<!-- Title: set_active_preset_from_sequence Pages: 1 -->
<!--zoomable 253 -->

<svg id="main" version="1.1" xmlns="http://www.w3.org/2000/svg" xmlns:xlink="http://www.w3.org/1999/xlink" xml:space="preserve" onload="init(evt)">

<style type="text/css"><![CDATA[
.node, .edge {opacity: 0.7;}
.node.selected, .edge.selected {opacity: 1;}
.edge:hover path { stroke: red; }
.edge:hover polygon { stroke: red; fill: red; }
]]></style>

<defs>
  <circle id="rim" cx="0" cy="0" r="7"/>
  <circle id="rim2" cx="0" cy="0" r="3.5"/>
  <g id="zoomPlus">
    <use xlink:href="#rim" fill="#404040"><set attributeName="fill" to="#808080" begin="zoomplus.mouseover" end="zoomplus.mouseout"/></use>
    <path d="M-4,0h8M0,-4v8" fill="none" stroke="white" stroke-width="1.5" pointer-events="none"/>
  </g>
  <g id="zoomMin">
    <use xlink:href="#rim" fill="#404040"><set attributeName="fill" to="#808080" begin="zoomminus.mouseover" end="zoomminus.mouseout"/></use>
    <path d="M-4,0h8" fill="none" stroke="white" stroke-width="1.5" pointer-events="none"/>
  </g>
  <g id="arrowUp" transform="translate(30 24)">
    <use xlink:href="#rim"/>
    <path pointer-events="none" fill="none" stroke="white" stroke-width="1.5" d="M0,-3.0v7 M-2.5,-0.5L0,-3.0L2.5,-0.5"/>
  </g>
  <g id="arrowRight" transform="rotate(90) translate(36 -43)">
    <use xlink:href="#rim"/>
    <path pointer-events="none" fill="none" stroke="white" stroke-width="1.5" d="M0,-3.0v7 M-2.5,-0.5L0,-3.0L2.5,-0.5"/>
  </g>
  <g id="arrowDown" transform="rotate(180) translate(-30 -48)">
    <use xlink:href="#rim"/>
    <path pointer-events="none" fill="none" stroke="white" stroke-width="1.5" d="M0,-3.0v7 M-2.5,-0.5L0,-3.0L2.5,-0.5"/>
  </g>
  <g id="arrowLeft" transform="rotate(270) translate(-36 17)">
    <use xlink:href="#rim"/>
    <path pointer-events="none" fill="none" stroke="white" stroke-width="1.5" d="M0,-3.0v7 M-2.5,-0.5L0,-3.0L2.5,-0.5"/>
  </g>
  <g id="resetDef">
    <use xlink:href="#rim2" fill="#404040"><set attributeName="fill" to="#808080" begin="reset.mouseover" end="reset.mouseout"/></use>
  </g>
</defs>
<script type="application/ecmascript">
var viewWidth = 679;
var viewHeight = 253;
var sectionId = 'dynsection-44';
</script>
<script type="application/ecmascript" xlink:href="svg.min.js"/>
<svg id="graph" class="graph">
<g id="viewport">
<title>set_active_preset_from_sequence</title>
<!-- Node1 -->
<g id="Node000001" class="node">
<title>Node1</title>
<g id="a_Node000001"><a xlink:title=" ">
<polygon fill="#999999" stroke="#666666" points="670.75,-124.12 540,-124.12 540,-90.62 670.75,-90.62 670.75,-124.12"/>
<text xml:space="preserve" text-anchor="start" x="548" y="-110.62" font-family="Helvetica,sans-Serif" font-size="10.00">set_active_preset_from</text>
<text xml:space="preserve" text-anchor="middle" x="605.38" y="-97.88" font-family="Helvetica,sans-Serif" font-size="10.00">_sequence</text>
</a>
</g>
</g>
<!-- Node2 -->
<g id="Node000002" class="node">
<title>Node2</title>
<g id="a_Node000002"><a xlink:href="kest__state_8c.html#ab26da214ed0f9d143d63e80a7012796b" target="_top" xlink:title=" ">
<polygon fill="white" stroke="#666666" points="499.5,-215.75 373.25,-215.75 373.25,-195 499.5,-195 499.5,-215.75"/>
<text xml:space="preserve" text-anchor="middle" x="436.38" y="-202.25" font-family="Helvetica,sans-Serif" font-size="10.00">kest_cxt_restore_state</text>
</a>
</g>
</g>
<!-- Node1&#45;&gt;Node2 -->
<g id="edge1_Node000001_Node000002" class="edge">
<title>Node1&#45;&gt;Node2</title>
<g id="a_edge1_Node000001_Node000002"><a xlink:title=" ">
<path fill="none" stroke="#63b8ff" d="M578.08,-132.24C558.85,-149.26 531.43,-171.23 504,-185.38 497.02,-188.97 489.29,-192.03 481.64,-194.6"/>
<polygon fill="#63b8ff" stroke="#63b8ff" points="580.37,-134.89 585.44,-125.59 575.68,-129.69 580.37,-134.89"/>
</a>
</g>
</g>
<!-- Node15 -->
<g id="Node000015" class="node">
<title>Node15</title>
<g id="a_Node000015"><a xlink:href="kest__sequence_8c.html#a85f3248c9d10338f835e998245e44b30" target="_top" xlink:title=" ">
<polygon fill="white" stroke="#666666" points="503.62,-176.75 369.12,-176.75 369.12,-156 503.62,-156 503.62,-176.75"/>
<text xml:space="preserve" text-anchor="middle" x="436.38" y="-163.25" font-family="Helvetica,sans-Serif" font-size="10.00">kest_sequence_advance</text>
</a>
</g>
</g>
<!-- Node1&#45;&gt;Node15 -->
<g id="edge5_Node000001_Node000015" class="edge">
<title>Node1&#45;&gt;Node15</title>
<g id="a_edge5_Node000001_Node000015"><a xlink:title=" ">
<path fill="none" stroke="#63b8ff" d="M552.24,-128.53C536.8,-134.55 519.8,-140.94 504,-146.38 494.75,-149.56 484.68,-152.73 475.24,-155.57"/>
<polygon fill="#63b8ff" stroke="#63b8ff" points="553.21,-131.91 561.24,-124.99 550.65,-125.39 553.21,-131.91"/>
</a>
</g>
</g>
<!-- Node19 -->
<g id="Node000019" class="node">
<title>Node19</title>
<g id="a_Node000019"><a xlink:href="kest__sequence_8c.html#adf2bc7c26b0bead2b6bd85fcd9bc6248" target="_top" xlink:title=" ">
<polygon fill="white" stroke="#666666" points="496.5,-98.75 376.25,-98.75 376.25,-78 496.5,-78 496.5,-98.75"/>
<text xml:space="preserve" text-anchor="middle" x="436.38" y="-85.25" font-family="Helvetica,sans-Serif" font-size="10.00">kest_sequence_begin</text>
</a>
</g>
</g>
<!-- Node1&#45;&gt;Node19 -->
<g id="edge8_Node000001_Node000019" class="edge">
<title>Node1&#45;&gt;Node19</title>
<g id="a_edge8_Node000001_Node000019"><a xlink:title=" ">
<path fill="none" stroke="#63b8ff" d="M528.42,-98.73C517.83,-97.53 507.08,-96.31 496.85,-95.14"/>
<polygon fill="#63b8ff" stroke="#63b8ff" points="527.97,-102.21 538.3,-99.86 528.76,-95.25 527.97,-102.21"/>
</a>
</g>
</g>
<!-- Node34 -->
<g id="Node000034" class="node">
<title>Node34</title>
<g id="a_Node000034"><a xlink:href="kest__sequence_8c.html#a97e4f82b9caaf6a25f606d1f7f4bad5d" target="_top" xlink:title=" ">
<polygon fill="white" stroke="#666666" points="504,-59.75 368.75,-59.75 368.75,-39 504,-39 504,-59.75"/>
<text xml:space="preserve" text-anchor="middle" x="436.38" y="-46.25" font-family="Helvetica,sans-Serif" font-size="10.00">kest_sequence_begin_at</text>
</a>
</g>
</g>
<!-- Node1&#45;&gt;Node34 -->
<g id="edge11_Node000001_Node000034" class="edge">
<title>Node1&#45;&gt;Node34</title>
<g id="a_edge11_Node000001_Node000034"><a xlink:title=" ">
<path fill="none" stroke="#63b8ff" d="M550.5,-86.18C535.52,-80.51 519.19,-74.52 504,-69.38 494.74,-66.24 484.66,-63.08 475.22,-60.23"/>
<polygon fill="#63b8ff" stroke="#63b8ff" points="549.13,-89.41 559.72,-89.7 551.63,-82.87 549.13,-89.41"/>
</a>
</g>
</g>
<!-- Node42 -->
<g id="Node000042" class="node">
<title>Node42</title>
<g id="a_Node000042"><a xlink:href="kest__sequence_8c.html#a0076ab743ce384590dc02431edb343c3" target="_top" xlink:title=" ">
<polygon fill="white" stroke="#666666" points="501,-137.75 371.75,-137.75 371.75,-117 501,-117 501,-137.75"/>
<text xml:space="preserve" text-anchor="middle" x="436.38" y="-124.25" font-family="Helvetica,sans-Serif" font-size="10.00">kest_sequence_regress</text>
</a>
</g>
</g>
<!-- Node1&#45;&gt;Node42 -->
<g id="edge14_Node000001_Node000042" class="edge">
<title>Node1&#45;&gt;Node42</title>
<g id="a_edge14_Node000001_Node000042"><a xlink:title=" ">
<path fill="none" stroke="#63b8ff" d="M528.48,-116.46C519.46,-117.54 510.33,-118.64 501.49,-119.7"/>
<polygon fill="#63b8ff" stroke="#63b8ff" points="528.79,-119.95 538.31,-115.29 527.96,-113 528.79,-119.95"/>
</a>
</g>
</g>
<!-- Node43 -->
<g id="Node000043" class="node">
<title>Node43</title>
<g id="a_Node000043"><a xlink:href="kest__sequence_8c.html#a3b2993ed35376e7c9a4fb0f4496b2757" target="_top" xlink:title=" ">
<polygon fill="white" stroke="#666666" points="493.5,-20.75 379.25,-20.75 379.25,0 493.5,0 493.5,-20.75"/>
<text xml:space="preserve" text-anchor="middle" x="436.38" y="-7.25" font-family="Helvetica,sans-Serif" font-size="10.00">kest_sequence_stop</text>
</a>
</g>
</g>
<!-- Node1&#45;&gt;Node43 -->
<g id="edge16_Node000001_Node000043" class="edge">
<title>Node1&#45;&gt;Node43</title>
<g id="a_edge16_Node000001_Node000043"><a xlink:title=" ">
<path fill="none" stroke="#63b8ff" d="M578.02,-82.85C558.77,-66.05 531.34,-44.37 504,-30.38 497.01,-26.8 489.28,-23.75 481.63,-21.19"/>
<polygon fill="#63b8ff" stroke="#63b8ff" points="575.6,-85.37 585.39,-89.4 580.25,-80.14 575.6,-85.37"/>
</a>
</g>
</g>
<!-- Node3 -->
<g id="Node000003" class="node">
<title>Node3</title>
<g id="a_Node000003"><a xlink:href="kest__int_8c.html#abce06be17fc37d675118a678a8100a36" target="_top" xlink:title=" ">
<polygon fill="white" stroke="#666666" points="287.38,-244.75 223.38,-244.75 223.38,-224 287.38,-224 287.38,-244.75"/>
<text xml:space="preserve" text-anchor="middle" x="255.38" y="-231.25" font-family="Helvetica,sans-Serif" font-size="10.00">app_main</text>
</a>
</g>
</g>
<!-- Node2&#45;&gt;Node3 -->
<g id="edge2_Node000002_Node000003" class="edge">
<title>Node2&#45;&gt;Node3</title>
<g id="a_edge2_Node000002_Node000003"><a xlink:title=" ">
<path fill="none" stroke="#63b8ff" d="M361.44,-217.35C335.6,-221.54 307.97,-226.02 287.54,-229.33"/>
<polygon fill="#63b8ff" stroke="#63b8ff" points="361.96,-220.81 371.28,-215.76 360.84,-213.9 361.96,-220.81"/>
</a>
</g>
</g>
<!-- Node4 -->
<g id="Node000004" class="node">
<title>Node4</title>
<g id="a_Node000004"><a xlink:href="kest__desktop_8c.html#ab499a4f71ef4cfc807b60d8739750c3e" target="_top" xlink:title=" ">
<polygon fill="white" stroke="#666666" points="288.88,-205.75 221.88,-205.75 221.88,-185 288.88,-185 288.88,-205.75"/>
<text xml:space="preserve" text-anchor="middle" x="255.38" y="-192.25" font-family="Helvetica,sans-Serif" font-size="10.00">main_task</text>
</a>
</g>
</g>
<!-- Node2&#45;&gt;Node4 -->
<g id="edge3_Node000002_Node000004" class="edge">
<title>Node2&#45;&gt;Node4</title>
<g id="a_edge3_Node000002_Node000004"><a xlink:title=" ">
<path fill="none" stroke="#63b8ff" d="M361.39,-201.24C336.29,-199.84 309.51,-198.34 289.27,-197.21"/>
<polygon fill="#63b8ff" stroke="#63b8ff" points="361.08,-204.73 371.26,-201.79 361.47,-197.74 361.08,-204.73"/>
</a>
</g>
</g>
<!-- Node5 -->
<g id="Node000005" class="node">
<title>Node5</title>
<g id="a_Node000005"><a xlink:href="kest__desktop_8c.html#a3c04138a5bfe5d72780bb7e82a18e627" target="_top" xlink:title=" ">
<polygon fill="#fff0f0" stroke="red" points="91.38,-205.75 50.62,-205.75 50.62,-185 91.38,-185 91.38,-205.75"/>
<text xml:space="preserve" text-anchor="middle" x="71" y="-192.25" font-family="Helvetica,sans-Serif" font-size="10.00">main</text>
</a>
</g>
</g>
<!-- Node4&#45;&gt;Node5 -->
<g id="edge4_Node000004_Node000005" class="edge">
<title>Node4&#45;&gt;Node5</title>
<g id="a_edge4_Node000004_Node000005"><a xlink:title=" ">
<path fill="none" stroke="#63b8ff" d="M210.57,-195.38C172.77,-195.38 119.94,-195.38 91.68,-195.38"/>
<polygon fill="#63b8ff" stroke="#63b8ff" points="210.26,-198.88 220.26,-195.38 210.26,-191.88 210.26,-198.88"/>
</a>
</g>
</g>
<!-- Node16 -->
<g id="Node000016" class="node">
<title>Node16</title>
<g id="a_Node000016"><a xlink:href="kest__context_8c.html#a92d3aa6e51991a8969ec021b9d1e0f33" target="_top" xlink:title=" ">
<polygon fill="white" stroke="#666666" points="318.12,-156.75 192.62,-156.75 192.62,-136 318.12,-136 318.12,-156.75"/>
<text xml:space="preserve" text-anchor="middle" x="255.38" y="-143.25" font-family="Helvetica,sans-Serif" font-size="10.00">cxt_handle_hw_switch</text>
</a>
</g>
</g>
<!-- Node15&#45;&gt;Node16 -->
<g id="edge6_Node000015_Node000016" class="edge">
<title>Node15&#45;&gt;Node16</title>
<g id="a_edge6_Node000015_Node000016"><a xlink:title=" ">
<path fill="none" stroke="#63b8ff" d="M357.36,-157.66C344.31,-156.2 330.93,-154.7 318.34,-153.3"/>
<polygon fill="#63b8ff" stroke="#63b8ff" points="356.89,-161.13 367.22,-158.76 357.67,-154.17 356.89,-161.13"/>
</a>
</g>
</g>
<!-- Node17 -->
<g id="Node000017" class="node">
<title>Node17</title>
<g id="a_Node000017"><a xlink:href="kest__footswitch_8c.html#af755237c2b87b3ade3fa580c3e468641" target="_top" xlink:title=" ">
<polygon fill="#fff0f0" stroke="red" points="117.62,-156.75 24.38,-156.75 24.38,-136 117.62,-136 117.62,-156.75"/>
<text xml:space="preserve" text-anchor="middle" x="71" y="-143.25" font-family="Helvetica,sans-Serif" font-size="10.00">footswitch_task</text>
</a>
</g>
</g>
<!-- Node16&#45;&gt;Node17 -->
<g id="edge7_Node000016_Node000017" class="edge">
<title>Node16&#45;&gt;Node17</title>
<g id="a_edge7_Node000016_Node000017"><a xlink:title=" ">
<path fill="none" stroke="#63b8ff" d="M181.05,-146.38C159.75,-146.38 137.09,-146.38 117.98,-146.38"/>
<polygon fill="#63b8ff" stroke="#63b8ff" points="180.86,-149.88 190.86,-146.38 180.86,-142.88 180.86,-149.88"/>
</a>
</g>
</g>
<!-- Node20 -->
<g id="Node000020" class="node">
<title>Node20</title>
<g id="a_Node000020"><a xlink:href="kest__sequence__view_8c.html#a4d67fe5ecc44c7b1bff00ec58e369dad" target="_top" xlink:title=" ">
<polygon fill="white" stroke="#666666" points="293.38,-98.75 217.38,-98.75 217.38,-78 293.38,-78 293.38,-98.75"/>
<text xml:space="preserve" text-anchor="middle" x="255.38" y="-85.25" font-family="Helvetica,sans-Serif" font-size="10.00">seq_play_cb</text>
</a>
</g>
</g>
<!-- Node19&#45;&gt;Node20 -->
<g id="edge9_Node000019_Node000020" class="edge">
<title>Node19&#45;&gt;Node20</title>
<g id="a_edge9_Node000019_Node000020"><a xlink:title=" ">
<path fill="none" stroke="#63b8ff" d="M364.47,-88.38C340.33,-88.38 314.31,-88.38 293.84,-88.38"/>
<polygon fill="#63b8ff" stroke="#63b8ff" points="364.26,-91.88 374.26,-88.38 364.26,-84.88 364.26,-91.88"/>
</a>
</g>
</g>
<!-- Node21 -->
<g id="Node000021" class="node">
<title>Node21</title>
<g id="a_Node000021"><a xlink:href="kest__sequence__view_8c.html#ac871b24a7c875a7b6e707a3d2691a2a9" target="_top" xlink:title=" ">
<polygon fill="#fff0f0" stroke="red" points="142,-98.75 0,-98.75 0,-78 142,-78 142,-98.75"/>
<text xml:space="preserve" text-anchor="middle" x="71" y="-85.25" font-family="Helvetica,sans-Serif" font-size="10.00">configure_sequence_view</text>
</a>
</g>
</g>
<!-- Node20&#45;&gt;Node21 -->
<g id="edge10_Node000020_Node000021" class="edge">
<title>Node20&#45;&gt;Node21</title>
<g id="a_edge10_Node000020_Node000021"><a xlink:title=" ">
<path fill="none" stroke="#63b8ff" d="M205.73,-88.38C186.33,-88.38 163.62,-88.38 142.48,-88.38"/>
<polygon fill="#63b8ff" stroke="#63b8ff" points="205.52,-91.88 215.52,-88.38 205.52,-84.88 205.52,-91.88"/>
</a>
</g>
</g>
<!-- Node35 -->
<g id="Node000035" class="node">
<title>Node35</title>
<g id="a_Node000035"><a xlink:href="kest__preset__view_8c.html#a94f5c88455763855196088379903825d" target="_top" xlink:title=" ">
<polygon fill="white" stroke="#666666" points="332.75,-59.75 178,-59.75 178,-39 332.75,-39 332.75,-59.75"/>
<text xml:space="preserve" text-anchor="middle" x="255.38" y="-46.25" font-family="Helvetica,sans-Serif" font-size="10.00">preset_view_play_button_cb</text>
</a>
</g>
</g>
<!-- Node34&#45;&gt;Node35 -->
<g id="edge12_Node000034_Node000035" class="edge">
<title>Node34&#45;&gt;Node35</title>
<g id="a_edge12_Node000034_Node000035"><a xlink:title=" ">
<path fill="none" stroke="#63b8ff" d="M356.99,-49.38C349.07,-49.38 341.04,-49.38 333.14,-49.38"/>
<polygon fill="#63b8ff" stroke="#63b8ff" points="356.95,-52.88 366.95,-49.38 356.95,-45.88 356.95,-52.88"/>
</a>
</g>
</g>
<!-- Node36 -->
<g id="Node000036" class="node">
<title>Node36</title>
<g id="a_Node000036"><a xlink:href="kest__preset__view_8c.html#ad8a171502fcb88f5b5a08657a6424752" target="_top" xlink:title=" ">
<polygon fill="#fff0f0" stroke="red" points="134.12,-59.75 7.88,-59.75 7.88,-39 134.12,-39 134.12,-59.75"/>
<text xml:space="preserve" text-anchor="middle" x="71" y="-46.25" font-family="Helvetica,sans-Serif" font-size="10.00">configure_preset_view</text>
</a>
</g>
</g>
<!-- Node35&#45;&gt;Node36 -->
<g id="edge13_Node000035_Node000036" class="edge">
<title>Node35&#45;&gt;Node36</title>
<g id="a_edge13_Node000035_Node000036"><a xlink:title=" ">
<path fill="none" stroke="#63b8ff" d="M166.34,-49.38C155.54,-49.38 144.67,-49.38 134.35,-49.38"/>
<polygon fill="#63b8ff" stroke="#63b8ff" points="166.05,-52.88 176.05,-49.38 166.05,-45.88 166.05,-52.88"/>
</a>
</g>
</g>
<!-- Node42&#45;&gt;Node16 -->
<g id="edge15_Node000042_Node000016" class="edge">
<title>Node42&#45;&gt;Node16</title>
<g id="a_edge15_Node000042_Node000016"><a xlink:title=" ">
<path fill="none" stroke="#63b8ff" d="M359.83,-135.39C346.08,-136.85 331.86,-138.36 318.55,-139.78"/>
<polygon fill="#63b8ff" stroke="#63b8ff" points="360.18,-138.88 369.75,-134.34 359.44,-131.92 360.18,-138.88"/>
</a>
</g>
</g>
</g>
</svg>

<g id="navigator" transform="translate(0 0)" fill="#404254">
  <rect fill="#f2f5e9" fill-opacity="0.5" stroke="#606060" stroke-width=".5" x="0" y="0" width="60" height="60"/>
  <use id="zoomplus" xlink:href="#zoomPlus" x="17" y="9" onmousedown="handleZoom(evt,'in')"/>
  <use id="zoomminus" xlink:href="#zoomMin" x="42" y="9" onmousedown="handleZoom(evt,'out')"/>
  <use id="reset" xlink:href="#resetDef" x="30" y="36" onmousedown="handleReset()"/>
   <use id="arrowup" xlink:href="#arrowUp" x="0" y="0" onmousedown="handlePan(0,-1)"/>
  <use id="arrowright" xlink:href="#arrowRight" x="0" y="0" onmousedown="handlePan(1,0)"/>
  <use id="arrowdown" xlink:href="#arrowDown" x="0" y="0" onmousedown="handlePan(0,1)"/>
  <use id="arrowleft" xlink:href="#arrowLeft" x="0" y="0" onmousedown="handlePan(-1,0)"/>
</g>
<svg viewBox="0 0 15 15" width="100%" height="30px" preserveAspectRatio="xMaxYMin meet">
 <g id="arrow_out" transform="scale(0.3 0.3)">
  <a xlink:href="kest__context_8c_a5d13232e1dbd01fdd19c8acbbcccc6ad_icgraph_org.svg" target="_base">
   <rect id="button" ry="5" rx="5" y="6" x="6" height="38" width="38"
        fill="#f2f5e9" fill-opacity="0.5" stroke="#606060" stroke-width="1.0"/>
   <path id="arrow"
     d="M 11.500037,31.436501 C 11.940474,20.09759 22.043105,11.32322 32.158766,21.979434 L 37.068811,17.246167 C 37.068811,17.246167 37.088388,32 37.088388,32 L 22.160133,31.978069 C 22.160133,31.978069 26.997745,27.140456 26.997745,27.140456 C 18.528582,18.264221 13.291696,25.230495 11.500037,31.436501 z"
     style="fill:#404040;"/>
  </a>
 </g>
</svg>

<style type='text/css'>
<![CDATA[
[data-mouse-over-selected='false'] { opacity: 0.7; }
[data-mouse-over-selected='true']  { opacity: 1.0; }
]]>
</style>
<script type="application/ecmascript"><![CDATA[
document.addEventListener('DOMContentLoaded', (event) => {
  highlightEdges();
  highlightAdjacentNodes();
});
]]></script>
</svg>
