<?xml version="1.0" encoding="UTF-8" standalone="no"?>
<!DOCTYPE svg PUBLIC "-//W3C//DTD SVG 1.1//EN"
 "http://www.w3.org/Graphics/SVG/1.1/DTD/svg11.dtd">
<!-- Generated by graphviz version 13.1.2 (20250808.2320)
 -->
<!-- Title: kest_expression_compute_format Pages: 1 -->
<svg width="1262pt" height="512pt"
 viewBox="0.00 0.00 1262.00 512.00" xmlns="http://www.w3.org/2000/svg" xmlns:xlink="http://www.w3.org/1999/xlink">
<g id="graph0" class="graph" transform="scale(1 1) rotate(0) translate(4 507.76)">
<title>kest_expression_compute_format</title>
<!-- Node1 -->
<g id="Node000001" class="node">
<title>Node1</title>
<g id="a_Node000001"><a xlink:title=" ">
<polygon fill="#999999" stroke="#666666" points="142.75,-214.51 0,-214.51 0,-181.01 142.75,-181.01 142.75,-214.51"/>
<text xml:space="preserve" text-anchor="start" x="8" y="-201.01" font-family="Helvetica,sans-Serif" font-size="10.00">kest_expression_compute</text>
<text xml:space="preserve" text-anchor="middle" x="71.38" y="-188.26" font-family="Helvetica,sans-Serif" font-size="10.00">_format</text>
</a>
</g>
</g>
<!-- Node2 -->
<g id="Node000002" class="node">
<title>Node2</title>
<g id="a_Node000002"><a xlink:href="kest__expression_8c.html#ac0d36327234ac552a23d07d118392e5a" target="_top" xlink:title=" ">
<polygon fill="white" stroke="#666666" points="348.5,-286.13 178.75,-286.13 178.75,-265.38 348.5,-265.38 348.5,-286.13"/>
<text xml:space="preserve" text-anchor="middle" x="263.62" y="-272.63" font-family="Helvetica,sans-Serif" font-size="10.00">kest_expression_compute_max</text>
</a>
</g>
</g>
<!-- Node1&#45;&gt;Node2 -->
<g id="edge1_Node000001_Node000002" class="edge">
<title>Node1&#45;&gt;Node2</title>
<g id="a_edge1_Node000001_Node000002"><a xlink:title=" ">
<path fill="none" stroke="#63b8ff" d="M98.97,-214.85C119.93,-227.67 150.28,-244.83 178.75,-255.76 184.66,-258.03 190.9,-260.09 197.21,-261.96"/>
<polygon fill="#63b8ff" stroke="#63b8ff" points="195.81,-265.2 206.38,-264.51 197.69,-258.46 195.81,-265.2"/>
</a>
</g>
</g>
<!-- Node9 -->
<g id="Node000009" class="node">
<title>Node9</title>
<g id="a_Node000009"><a xlink:href="kest__expression_8c.html#aadf2a6a074cb1ad7b45893704cbd71c3" target="_top" xlink:title=" ">
<polygon fill="#fff0f0" stroke="red" points="1253.5,-463.51 1143.75,-463.51 1143.75,-430.01 1253.5,-430.01 1253.5,-463.51"/>
<text xml:space="preserve" text-anchor="start" x="1151.75" y="-450.01" font-family="Helvetica,sans-Serif" font-size="10.00">kest_expression_to</text>
<text xml:space="preserve" text-anchor="middle" x="1198.62" y="-437.26" font-family="Helvetica,sans-Serif" font-size="10.00">_string</text>
</a>
</g>
</g>
<!-- Node1&#45;&gt;Node9 -->
<g id="edge28_Node000001_Node000009" class="edge">
<title>Node1&#45;&gt;Node9</title>
<g id="a_edge28_Node000001_Node000009"><a xlink:title=" ">
<path fill="none" stroke="#63b8ff" d="M82.54,-214.65C122.6,-278.8 276.62,-503.76 466.88,-503.76 466.88,-503.76 466.88,-503.76 838.38,-503.76 958.7,-503.76 990.1,-501.96 1107.75,-476.76 1119.09,-474.33 1130.99,-470.97 1142.29,-467.36"/>
<polygon fill="#63b8ff" stroke="#63b8ff" points="1143.07,-470.79 1151.47,-464.33 1140.88,-464.15 1143.07,-470.79"/>
</a>
</g>
</g>
<!-- Node25 -->
<g id="Node000025" class="node">
<title>Node25</title>
<g id="a_Node000025"><a xlink:href="kest__expression_8c.html#a76a52d6b21899491c72f97961df20864" target="_top" xlink:title=" ">
<polygon fill="white" stroke="#666666" points="551.25,-324.13 384.5,-324.13 384.5,-303.38 551.25,-303.38 551.25,-324.13"/>
<text xml:space="preserve" text-anchor="middle" x="467.88" y="-310.63" font-family="Helvetica,sans-Serif" font-size="10.00">kest_expression_compute_min</text>
</a>
</g>
</g>
<!-- Node1&#45;&gt;Node25 -->
<g id="edge26_Node000001_Node000025" class="edge">
<title>Node1&#45;&gt;Node25</title>
<g id="a_edge26_Node000001_Node000025"><a xlink:title=" ">
<path fill="none" stroke="#63b8ff" d="M84.89,-214.82C102.78,-237.69 138.05,-277.43 178.75,-294.76 239.72,-320.72 314.54,-324.94 372.66,-322.94"/>
<polygon fill="#63b8ff" stroke="#63b8ff" points="372.7,-326.45 382.54,-322.53 372.4,-319.45 372.7,-326.45"/>
</a>
</g>
</g>
<!-- Node26 -->
<g id="Node000026" class="node">
<title>Node26</title>
<g id="a_Node000026"><a xlink:href="kest__alloc_8c.html#a294af5728a94aa316fcf65304d388d48" target="_top" xlink:title=" ">
<polygon fill="white" stroke="#666666" points="294.12,-247.13 233.12,-247.13 233.12,-226.38 294.12,-226.38 294.12,-247.13"/>
<text xml:space="preserve" text-anchor="middle" x="263.62" y="-233.63" font-family="Helvetica,sans-Serif" font-size="10.00">kest_free</text>
</a>
</g>
</g>
<!-- Node1&#45;&gt;Node26 -->
<g id="edge29_Node000001_Node000026" class="edge">
<title>Node1&#45;&gt;Node26</title>
<g id="a_edge29_Node000001_Node000026"><a xlink:title=" ">
<path fill="none" stroke="#63b8ff" d="M143.22,-212.28C169.79,-217.73 199.07,-223.73 221.98,-228.43"/>
<polygon fill="#63b8ff" stroke="#63b8ff" points="221.03,-231.8 231.53,-230.38 222.43,-224.95 221.03,-231.8"/>
</a>
</g>
</g>
<!-- Node27 -->
<g id="Node000027" class="node">
<title>Node27</title>
<g id="a_Node000027"><a xlink:href="kest__expression_8c.html#ae162d4eb0d35fa2b80788054a533387e" target="_top" xlink:title=" ">
<polygon fill="white" stroke="#666666" points="311.75,-208.13 215.5,-208.13 215.5,-187.38 311.75,-187.38 311.75,-208.13"/>
<text xml:space="preserve" text-anchor="middle" x="263.62" y="-194.63" font-family="Helvetica,sans-Serif" font-size="10.00">kest_interval_ab</text>
</a>
</g>
</g>
<!-- Node1&#45;&gt;Node27 -->
<g id="edge30_Node000001_Node000027" class="edge">
<title>Node1&#45;&gt;Node27</title>
<g id="a_edge30_Node000001_Node000027"><a xlink:title=" ">
<path fill="none" stroke="#63b8ff" d="M143.22,-197.76C163.17,-197.76 184.65,-197.76 203.82,-197.76"/>
<polygon fill="#63b8ff" stroke="#63b8ff" points="203.6,-201.26 213.6,-197.76 203.6,-194.26 203.6,-201.26"/>
</a>
</g>
</g>
<!-- Node28 -->
<g id="Node000028" class="node">
<title>Node28</title>
<g id="a_Node000028"><a xlink:href="kest__string_8c.html#a5e8184b1f070fc74a7d1d2f08c4d9658" target="_top" xlink:title=" ">
<polygon fill="white" stroke="#666666" points="320.75,-169.13 206.5,-169.13 206.5,-148.38 320.75,-148.38 320.75,-169.13"/>
<text xml:space="preserve" text-anchor="middle" x="263.62" y="-155.63" font-family="Helvetica,sans-Serif" font-size="10.00">kest_string_appendf</text>
</a>
</g>
</g>
<!-- Node1&#45;&gt;Node28 -->
<g id="edge31_Node000001_Node000028" class="edge">
<title>Node1&#45;&gt;Node28</title>
<g id="a_edge31_Node000001_Node000028"><a xlink:title=" ">
<path fill="none" stroke="#63b8ff" d="M143.22,-183.24C161.42,-179.51 180.89,-175.51 198.71,-171.86"/>
<polygon fill="#63b8ff" stroke="#63b8ff" points="199.29,-175.32 208.38,-169.88 197.88,-168.46 199.29,-175.32"/>
</a>
</g>
</g>
<!-- Node30 -->
<g id="Node000030" class="node">
<title>Node30</title>
<g id="a_Node000030"><a xlink:href="kest__string_8c.html#ad346e7c1a0b506f7eca9423a05b47f11" target="_top" xlink:title=" ">
<polygon fill="white" stroke="#666666" points="319.25,-130.13 208,-130.13 208,-109.38 319.25,-109.38 319.25,-130.13"/>
<text xml:space="preserve" text-anchor="middle" x="263.62" y="-116.63" font-family="Helvetica,sans-Serif" font-size="10.00">kest_string_destroy</text>
</a>
</g>
</g>
<!-- Node1&#45;&gt;Node30 -->
<g id="edge33_Node000001_Node000030" class="edge">
<title>Node1&#45;&gt;Node30</title>
<g id="a_edge33_Node000001_Node000030"><a xlink:title=" ">
<path fill="none" stroke="#63b8ff" d="M98.97,-180.67C119.93,-167.85 150.28,-150.69 178.75,-139.76 184.66,-137.49 190.9,-135.42 197.21,-133.56"/>
<polygon fill="#63b8ff" stroke="#63b8ff" points="197.69,-137.06 206.38,-131.01 195.81,-130.31 197.69,-137.06"/>
</a>
</g>
</g>
<!-- Node31 -->
<g id="Node000031" class="node">
<title>Node31</title>
<g id="a_Node000031"><a xlink:href="kest__string_8c.html#ab74edc9a2be32d899a92ef58edb16286" target="_top" xlink:title=" ">
<polygon fill="white" stroke="#666666" points="308.75,-91.13 218.5,-91.13 218.5,-70.38 308.75,-70.38 308.75,-91.13"/>
<text xml:space="preserve" text-anchor="middle" x="263.62" y="-77.63" font-family="Helvetica,sans-Serif" font-size="10.00">kest_string_init</text>
</a>
</g>
</g>
<!-- Node1&#45;&gt;Node31 -->
<g id="edge34_Node000001_Node000031" class="edge">
<title>Node1&#45;&gt;Node31</title>
<g id="a_edge34_Node000001_Node000031"><a xlink:title=" ">
<path fill="none" stroke="#63b8ff" d="M86.29,-180.54C104.98,-158.6 140.31,-121.1 178.75,-100.76 187.5,-96.13 197.32,-92.56 207.08,-89.8"/>
<polygon fill="#63b8ff" stroke="#63b8ff" points="207.72,-93.26 216.55,-87.41 206,-86.47 207.72,-93.26"/>
</a>
</g>
</g>
<!-- Node32 -->
<g id="Node000032" class="node">
<title>Node32</title>
<g id="a_Node000032"><a xlink:href="kest__string_8c.html#a476a3ace857a6df4b94057b078a5bcb3" target="_top" xlink:title=" ">
<polygon fill="white" stroke="#666666" points="323.75,-52.13 203.5,-52.13 203.5,-31.38 323.75,-31.38 323.75,-52.13"/>
<text xml:space="preserve" text-anchor="middle" x="263.62" y="-38.63" font-family="Helvetica,sans-Serif" font-size="10.00">kest_string_to_native</text>
</a>
</g>
</g>
<!-- Node1&#45;&gt;Node32 -->
<g id="edge35_Node000001_Node000032" class="edge">
<title>Node1&#45;&gt;Node32</title>
<g id="a_edge35_Node000001_Node000032"><a xlink:title=" ">
<path fill="none" stroke="#63b8ff" d="M80.87,-180.51C96.19,-151.27 131.32,-92.2 178.75,-61.76 183.05,-59 187.69,-56.62 192.51,-54.57"/>
<polygon fill="#63b8ff" stroke="#63b8ff" points="193.69,-57.87 201.85,-51.11 191.25,-51.3 193.69,-57.87"/>
</a>
</g>
</g>
<!-- Node3 -->
<g id="Node000003" class="node">
<title>Node3</title>
<g id="a_Node000003"><a xlink:href="kest__expression_8c.html#a9ea46b77b43cb7f43cfe7091f44e2e2d" target="_top" xlink:title=" ">
<polygon fill="white" stroke="#666666" points="539.25,-257.51 396.5,-257.51 396.5,-224.01 539.25,-224.01 539.25,-257.51"/>
<text xml:space="preserve" text-anchor="start" x="404.5" y="-244.01" font-family="Helvetica,sans-Serif" font-size="10.00">kest_expression_compute</text>
<text xml:space="preserve" text-anchor="middle" x="467.88" y="-231.26" font-family="Helvetica,sans-Serif" font-size="10.00">_max_rec</text>
</a>
</g>
</g>
<!-- Node2&#45;&gt;Node3 -->
<g id="edge2_Node000002_Node000003" class="edge">
<title>Node2&#45;&gt;Node3</title>
<g id="a_edge2_Node000002_Node000003"><a xlink:title=" ">
<path fill="none" stroke="#63b8ff" d="M327.23,-264.92C345.47,-261.77 365.66,-258.27 384.9,-254.95"/>
<polygon fill="#63b8ff" stroke="#63b8ff" points="385.34,-258.42 394.6,-253.27 384.15,-251.52 385.34,-258.42"/>
</a>
</g>
</g>
<!-- Node3&#45;&gt;Node3 -->
<g id="edge4_Node000003_Node000003" class="edge">
<title>Node3&#45;&gt;Node3</title>
<g id="a_edge4_Node000003_Node000003"><a xlink:title=" ">
<path fill="none" stroke="#63b8ff" d="M433.59,-257.92C427.76,-267.13 439.19,-275.51 467.88,-275.51 484.01,-275.51 494.69,-272.86 499.9,-268.9"/>
<polygon fill="#63b8ff" stroke="#63b8ff" points="503.27,-269.91 501.86,-259.41 496.41,-268.49 503.27,-269.91"/>
</a>
</g>
</g>
<!-- Node4 -->
<g id="Node000004" class="node">
<title>Node4</title>
<g id="a_Node000004"><a xlink:href="kest__expression_8c.html#a835e180e79c6b6d2e4377a528949d7a0" target="_top" xlink:title=" ">
<polygon fill="white" stroke="#666666" points="898.62,-247.13 776.12,-247.13 776.12,-226.38 898.62,-226.38 898.62,-247.13"/>
<text xml:space="preserve" text-anchor="middle" x="837.38" y="-233.63" font-family="Helvetica,sans-Serif" font-size="10.00">kest_expression_arity</text>
</a>
</g>
</g>
<!-- Node3&#45;&gt;Node4 -->
<g id="edge3_Node000003_Node000004" class="edge">
<title>Node3&#45;&gt;Node4</title>
<g id="a_edge3_Node000003_Node000004"><a xlink:title=" ">
<path fill="none" stroke="#63b8ff" d="M539.73,-239.99C604.37,-239.28 699.43,-238.25 764.41,-237.54"/>
<polygon fill="#63b8ff" stroke="#63b8ff" points="764.31,-241.04 774.27,-237.43 764.23,-234.04 764.31,-241.04"/>
</a>
</g>
</g>
<!-- Node5 -->
<g id="Node000005" class="node">
<title>Node5</title>
<g id="a_Node000005"><a xlink:href="kest__expression_8c.html#a314111382b96c56e6f648658c7125e2b" target="_top" xlink:title=" ">
<polygon fill="white" stroke="#666666" points="730,-330.51 587.25,-330.51 587.25,-297.01 730,-297.01 730,-330.51"/>
<text xml:space="preserve" text-anchor="start" x="595.25" y="-317.01" font-family="Helvetica,sans-Serif" font-size="10.00">kest_expression_compute</text>
<text xml:space="preserve" text-anchor="middle" x="658.62" y="-304.26" font-family="Helvetica,sans-Serif" font-size="10.00">_min_rec</text>
</a>
</g>
</g>
<!-- Node3&#45;&gt;Node5 -->
<g id="edge5_Node000003_Node000005" class="edge">
<title>Node3&#45;&gt;Node5</title>
<g id="a_edge5_Node000003_Node000005"><a xlink:title=" ">
<path fill="none" stroke="#63b8ff" d="M529.9,-258C558.07,-268.21 590.81,-281.09 616.08,-291.99"/>
<polygon fill="#63b8ff" stroke="#63b8ff" points="614.47,-295.1 625.03,-295.91 617.28,-288.69 614.47,-295.1"/>
</a>
</g>
</g>
<!-- Node6 -->
<g id="Node000006" class="node">
<title>Node6</title>
<g id="a_Node000006"><a xlink:href="kest__expression_8c.html#a8df028c238f29a5c5e59bcff98e28157" target="_top" xlink:title=" ">
<polygon fill="white" stroke="#666666" points="908.75,-286.13 766,-286.13 766,-265.38 908.75,-265.38 908.75,-286.13"/>
<text xml:space="preserve" text-anchor="middle" x="837.38" y="-272.63" font-family="Helvetica,sans-Serif" font-size="10.00">kest_expression_evaluate</text>
</a>
</g>
</g>
<!-- Node3&#45;&gt;Node6 -->
<g id="edge20_Node000003_Node000006" class="edge">
<title>Node3&#45;&gt;Node6</title>
<g id="a_edge20_Node000003_Node000006"><a xlink:title=" ">
<path fill="none" stroke="#63b8ff" d="M539.6,-248.03C555.28,-249.62 571.83,-251.27 587.25,-252.76 642.98,-258.16 705.76,-263.95 754.35,-268.37"/>
<polygon fill="#63b8ff" stroke="#63b8ff" points="753.97,-271.85 764.25,-269.27 754.61,-264.88 753.97,-271.85"/>
</a>
</g>
</g>
<!-- Node7 -->
<g id="Node000007" class="node">
<title>Node7</title>
<g id="a_Node000007"><a xlink:href="kest__expression_8c.html#aa4b7d57f1458bb40fc2d8fdab7c605fc" target="_top" xlink:title=" ">
<polygon fill="#fff0f0" stroke="red" points="1107.75,-344.13 944.75,-344.13 944.75,-323.38 1107.75,-323.38 1107.75,-344.13"/>
<text xml:space="preserve" text-anchor="middle" x="1026.25" y="-330.63" font-family="Helvetica,sans-Serif" font-size="10.00">kest_expression_evaluate_rec</text>
</a>
</g>
</g>
<!-- Node3&#45;&gt;Node7 -->
<g id="edge21_Node000003_Node000007" class="edge">
<title>Node3&#45;&gt;Node7</title>
<g id="a_edge21_Node000003_Node000007"><a xlink:title=" ">
<path fill="none" stroke="#63b8ff" d="M498.89,-223.51C573.02,-183.39 768.91,-92.56 908.75,-165.76 968.62,-197.1 1003.88,-274.75 1018.01,-312.49"/>
<polygon fill="#63b8ff" stroke="#63b8ff" points="1014.69,-313.57 1021.36,-321.81 1021.27,-311.21 1014.69,-313.57"/>
</a>
</g>
</g>
<!-- Node3&#45;&gt;Node9 -->
<g id="edge23_Node000003_Node000009" class="edge">
<title>Node3&#45;&gt;Node9</title>
<g id="a_edge23_Node000003_Node000009"><a xlink:title=" ">
<path fill="none" stroke="#63b8ff" d="M502.42,-257.87C518.53,-267.23 537.31,-279.94 551.25,-294.76 573.35,-318.25 561.77,-338 587.25,-357.76 749.57,-483.63 1011.31,-470.85 1132.36,-456.52"/>
<polygon fill="#63b8ff" stroke="#63b8ff" points="1132.63,-460.01 1142.13,-455.32 1131.78,-453.07 1132.63,-460.01"/>
</a>
</g>
</g>
<!-- Node23 -->
<g id="Node000023" class="node">
<title>Node23</title>
<g id="a_Node000023"><a xlink:href="kest__expr__scope_8c.html#a8a0fbd22e0deccdaee632b2a95d4aee5" target="_top" xlink:title=" ">
<polygon fill="white" stroke="#666666" points="1248.62,-344.13 1148.62,-344.13 1148.62,-323.38 1248.62,-323.38 1248.62,-344.13"/>
<text xml:space="preserve" text-anchor="middle" x="1198.62" y="-330.63" font-family="Helvetica,sans-Serif" font-size="10.00">kest_scope_fetch</text>
</a>
</g>
</g>
<!-- Node3&#45;&gt;Node23 -->
<g id="edge24_Node000003_Node000023" class="edge">
<title>Node3&#45;&gt;Node23</title>
<g id="a_edge24_Node000003_Node000023"><a xlink:title=" ">
<path fill="none" stroke="#63b8ff" d="M493.54,-223.61C510.39,-211.5 532.89,-194.5 551.25,-177.76 568.68,-161.87 565.78,-148.52 587.25,-138.76 717.34,-79.62 773.41,-87.88 908.75,-133.76 1033.35,-175.99 1028.58,-250.16 1143.75,-313.76 1146.75,-315.42 1149.92,-316.99 1153.16,-318.47"/>
<polygon fill="#63b8ff" stroke="#63b8ff" points="1151.63,-321.63 1162.2,-322.3 1154.36,-315.18 1151.63,-321.63"/>
</a>
</g>
</g>
<!-- Node14 -->
<g id="Node000014" class="node">
<title>Node14</title>
<g id="a_Node000014"><a xlink:href="kest__expression_8c.html#a05276e5a18cc3b52dfc8a17bb101c832" target="_top" xlink:title=" ">
<polygon fill="white" stroke="#666666" points="1242.62,-305.13 1154.62,-305.13 1154.62,-284.38 1242.62,-284.38 1242.62,-305.13"/>
<text xml:space="preserve" text-anchor="middle" x="1198.62" y="-291.63" font-family="Helvetica,sans-Serif" font-size="10.00">max_depth_bp</text>
</a>
</g>
</g>
<!-- Node3&#45;&gt;Node14 -->
<g id="edge25_Node000003_Node000014" class="edge">
<title>Node3&#45;&gt;Node14</title>
<g id="a_edge25_Node000003_Node000014"><a xlink:title=" ">
<path fill="none" stroke="#63b8ff" d="M498.22,-223.66C515.49,-212.4 536.72,-196.34 551.25,-177.76 576.02,-146.08 553.63,-116.82 587.25,-94.76 780.65,32.17 913.52,30.9 1107.75,-94.76 1169.87,-134.95 1189.47,-229.39 1195.31,-272.54"/>
<polygon fill="#63b8ff" stroke="#63b8ff" points="1191.83,-272.94 1196.5,-282.45 1198.78,-272.1 1191.83,-272.94"/>
</a>
</g>
</g>
<!-- Node24 -->
<g id="Node000024" class="node">
<title>Node24</title>
<g id="a_Node000024"><a xlink:href="kest__expression_8c.html#a9f7a466a9bc6d2622e7d36f2bec6df7e" target="_top" xlink:title=" ">
<polygon fill="white" stroke="#666666" points="894.88,-208.51 779.88,-208.51 779.88,-175.01 894.88,-175.01 894.88,-208.51"/>
<text xml:space="preserve" text-anchor="start" x="787.88" y="-195.01" font-family="Helvetica,sans-Serif" font-size="10.00">kest_expression_is</text>
<text xml:space="preserve" text-anchor="middle" x="837.38" y="-182.26" font-family="Helvetica,sans-Serif" font-size="10.00">_constant_reference</text>
</a>
</g>
</g>
<!-- Node3&#45;&gt;Node24 -->
<g id="edge22_Node000003_Node000024" class="edge">
<title>Node3&#45;&gt;Node24</title>
<g id="a_edge22_Node000003_Node000024"><a xlink:title=" ">
<path fill="none" stroke="#63b8ff" d="M539.73,-231.31C605.65,-222.52 703.21,-209.51 768.24,-200.84"/>
<polygon fill="#63b8ff" stroke="#63b8ff" points="768.63,-204.32 778.08,-199.53 767.71,-197.38 768.63,-204.32"/>
</a>
</g>
</g>
<!-- Node5&#45;&gt;Node3 -->
<g id="edge7_Node000005_Node000003" class="edge">
<title>Node5&#45;&gt;Node3</title>
<g id="a_edge7_Node000005_Node000003"><a xlink:title=" ">
<path fill="none" stroke="#63b8ff" d="M596.63,-296.53C568.43,-286.31 535.67,-273.42 510.39,-262.52"/>
<polygon fill="#63b8ff" stroke="#63b8ff" points="511.99,-259.4 501.43,-258.59 509.18,-265.81 511.99,-259.4"/>
</a>
</g>
</g>
<!-- Node5&#45;&gt;Node4 -->
<g id="edge6_Node000005_Node000004" class="edge">
<title>Node5&#45;&gt;Node4</title>
<g id="a_edge6_Node000005_Node000004"><a xlink:title=" ">
<path fill="none" stroke="#63b8ff" d="M687.71,-296.55C708.71,-284.23 738.42,-267.92 766,-256.76 771.17,-254.67 776.63,-252.71 782.13,-250.89"/>
<polygon fill="#63b8ff" stroke="#63b8ff" points="782.76,-254.36 791.26,-248.04 780.67,-247.68 782.76,-254.36"/>
</a>
</g>
</g>
<!-- Node5&#45;&gt;Node5 -->
<g id="edge8_Node000005_Node000005" class="edge">
<title>Node5&#45;&gt;Node5</title>
<g id="a_edge8_Node000005_Node000005"><a xlink:title=" ">
<path fill="none" stroke="#63b8ff" d="M626.49,-330.92C621.03,-340.13 631.74,-348.51 658.62,-348.51 673.75,-348.51 683.75,-345.86 688.64,-341.9"/>
<polygon fill="#63b8ff" stroke="#63b8ff" points="692.01,-342.89 690.47,-332.41 685.14,-341.56 692.01,-342.89"/>
</a>
</g>
</g>
<!-- Node5&#45;&gt;Node6 -->
<g id="edge9_Node000005_Node000006" class="edge">
<title>Node5&#45;&gt;Node6</title>
<g id="a_edge9_Node000005_Node000006"><a xlink:title=" ">
<path fill="none" stroke="#63b8ff" d="M730.5,-298.52C745.12,-295.38 760.42,-292.09 774.68,-289.02"/>
<polygon fill="#63b8ff" stroke="#63b8ff" points="775.35,-292.46 784.4,-286.93 773.88,-285.61 775.35,-292.46"/>
</a>
</g>
</g>
<!-- Node5&#45;&gt;Node7 -->
<g id="edge15_Node000005_Node000007" class="edge">
<title>Node5&#45;&gt;Node7</title>
<g id="a_edge15_Node000005_Node000007"><a xlink:title=" ">
<path fill="none" stroke="#63b8ff" d="M730.47,-324.16C742.31,-325.59 754.49,-326.87 766,-327.76 821.28,-332.02 883.37,-333.57 932.93,-334.03"/>
<polygon fill="#63b8ff" stroke="#63b8ff" points="932.73,-337.53 942.76,-334.11 932.79,-330.53 932.73,-337.53"/>
</a>
</g>
</g>
<!-- Node5&#45;&gt;Node9 -->
<g id="edge17_Node000005_Node000009" class="edge">
<title>Node5&#45;&gt;Node9</title>
<g id="a_edge17_Node000005_Node000009"><a xlink:title=" ">
<path fill="none" stroke="#63b8ff" d="M684.23,-330.91C705.07,-344.61 736.22,-363.21 766,-373.76 890.82,-417.99 1045.68,-435.83 1131.86,-442.71"/>
<polygon fill="#63b8ff" stroke="#63b8ff" points="1131.56,-446.2 1141.79,-443.48 1132.09,-439.22 1131.56,-446.2"/>
</a>
</g>
</g>
<!-- Node5&#45;&gt;Node23 -->
<g id="edge18_Node000005_Node000023" class="edge">
<title>Node5&#45;&gt;Node23</title>
<g id="a_edge18_Node000005_Node000023"><a xlink:title=" ">
<path fill="none" stroke="#63b8ff" d="M711.07,-330.98C794.78,-356.61 965.42,-398.91 1107.75,-370.76 1128.72,-366.61 1150.95,-357.5 1168.05,-349.37"/>
<polygon fill="#63b8ff" stroke="#63b8ff" points="1169.2,-352.7 1176.63,-345.14 1166.11,-346.42 1169.2,-352.7"/>
</a>
</g>
</g>
<!-- Node5&#45;&gt;Node14 -->
<g id="edge19_Node000005_Node000014" class="edge">
<title>Node5&#45;&gt;Node14</title>
<g id="a_edge19_Node000005_Node000014"><a xlink:title=" ">
<path fill="none" stroke="#63b8ff" d="M730.24,-311.26C838.85,-307.43 1044.64,-300.16 1142.83,-296.69"/>
<polygon fill="#63b8ff" stroke="#63b8ff" points="1142.87,-300.19 1152.75,-296.34 1142.63,-293.2 1142.87,-300.19"/>
</a>
</g>
</g>
<!-- Node5&#45;&gt;Node24 -->
<g id="edge16_Node000005_Node000024" class="edge">
<title>Node5&#45;&gt;Node24</title>
<g id="a_edge16_Node000005_Node000024"><a xlink:title=" ">
<path fill="none" stroke="#63b8ff" d="M674.64,-296.69C693.96,-275.63 729.39,-239.91 766,-217.76 768.17,-216.44 770.42,-215.18 772.73,-213.96"/>
<polygon fill="#63b8ff" stroke="#63b8ff" points="774.25,-217.12 781.73,-209.61 771.2,-210.81 774.25,-217.12"/>
</a>
</g>
</g>
<!-- Node6&#45;&gt;Node7 -->
<g id="edge10_Node000006_Node000007" class="edge">
<title>Node6&#45;&gt;Node7</title>
<g id="a_edge10_Node000006_Node000007"><a xlink:title=" ">
<path fill="none" stroke="#63b8ff" d="M873.09,-286.53C903.15,-295.86 946.85,-309.43 979.71,-319.63"/>
<polygon fill="#63b8ff" stroke="#63b8ff" points="978.37,-322.87 988.96,-322.5 980.45,-316.19 978.37,-322.87"/>
</a>
</g>
</g>
<!-- Node7&#45;&gt;Node7 -->
<g id="edge11_Node000007_Node000007" class="edge">
<title>Node7&#45;&gt;Node7</title>
<g id="a_edge11_Node000007_Node000007"><a xlink:title=" ">
<path fill="none" stroke="#63b8ff" d="M998.47,-344.53C987.36,-353.19 996.62,-362.13 1026.25,-362.13 1042.45,-362.13 1052.56,-359.46 1056.58,-355.62"/>
<polygon fill="#63b8ff" stroke="#63b8ff" points="1060.02,-354.96 1054.37,-346.01 1053.2,-356.54 1060.02,-354.96"/>
</a>
</g>
</g>
<!-- Node7&#45;&gt;Node9 -->
<g id="edge12_Node000007_Node000009" class="edge">
<title>Node7&#45;&gt;Node9</title>
<g id="a_edge12_Node000007_Node000009"><a xlink:title=" ">
<path fill="none" stroke="#63b8ff" d="M1043.59,-344.59C1070.8,-362.65 1126.03,-399.28 1162.42,-423.41"/>
<polygon fill="#63b8ff" stroke="#63b8ff" points="1160.17,-426.11 1170.44,-428.73 1164.04,-420.28 1160.17,-426.11"/>
</a>
</g>
</g>
<!-- Node7&#45;&gt;Node23 -->
<g id="edge13_Node000007_Node000023" class="edge">
<title>Node7&#45;&gt;Node23</title>
<g id="a_edge13_Node000007_Node000023"><a xlink:title=" ">
<path fill="none" stroke="#63b8ff" d="M1107.95,-333.76C1117.73,-333.76 1127.59,-333.76 1137.02,-333.76"/>
<polygon fill="#63b8ff" stroke="#63b8ff" points="1136.75,-337.26 1146.75,-333.76 1136.75,-330.26 1136.75,-337.26"/>
</a>
</g>
</g>
<!-- Node7&#45;&gt;Node14 -->
<g id="edge14_Node000007_Node000014" class="edge">
<title>Node7&#45;&gt;Node14</title>
<g id="a_edge14_Node000007_Node000014"><a xlink:title=" ">
<path fill="none" stroke="#63b8ff" d="M1074.71,-322.89C1095.92,-318.04 1121.05,-312.29 1143.04,-307.25"/>
<polygon fill="#63b8ff" stroke="#63b8ff" points="1143.77,-310.68 1152.73,-305.03 1142.21,-303.85 1143.77,-310.68"/>
</a>
</g>
</g>
<!-- Node25&#45;&gt;Node5 -->
<g id="edge27_Node000025_Node000005" class="edge">
<title>Node25&#45;&gt;Node5</title>
<g id="a_edge27_Node000025_Node000005"><a xlink:title=" ">
<path fill="none" stroke="#63b8ff" d="M551.66,-313.76C559.58,-313.76 567.61,-313.76 575.53,-313.76"/>
<polygon fill="#63b8ff" stroke="#63b8ff" points="575.5,-317.26 585.5,-313.76 575.5,-310.26 575.5,-317.26"/>
</a>
</g>
</g>
<!-- Node29 -->
<g id="Node000029" class="node">
<title>Node29</title>
<g id="a_Node000029"><a xlink:href="kest__string_8c.html#ab38fd4531ec8be3f9c32f467f6808951" target="_top" xlink:title=" ">
<polygon fill="white" stroke="#666666" points="532.12,-169.13 403.62,-169.13 403.62,-148.38 532.12,-148.38 532.12,-169.13"/>
<text xml:space="preserve" text-anchor="middle" x="467.88" y="-155.63" font-family="Helvetica,sans-Serif" font-size="10.00">kest_string_append_str</text>
</a>
</g>
</g>
<!-- Node28&#45;&gt;Node29 -->
<g id="edge32_Node000028_Node000029" class="edge">
<title>Node28&#45;&gt;Node29</title>
<g id="a_edge32_Node000028_Node000029"><a xlink:title=" ">
<path fill="none" stroke="#63b8ff" d="M321.23,-158.76C343.12,-158.76 368.5,-158.76 391.87,-158.76"/>
<polygon fill="#63b8ff" stroke="#63b8ff" points="391.64,-162.26 401.64,-158.76 391.64,-155.26 391.64,-162.26"/>
</a>
</g>
</g>
<!-- Node33 -->
<g id="Node000033" class="node">
<title>Node33</title>
<g id="a_Node000033"><a xlink:href="kest__alloc_8c.html#a849755c5dc5b35e712ffcdb602e50fb4" target="_top" xlink:title=" ">
<polygon fill="white" stroke="#666666" points="500.25,-52.13 435.5,-52.13 435.5,-31.38 500.25,-31.38 500.25,-52.13"/>
<text xml:space="preserve" text-anchor="middle" x="467.88" y="-38.63" font-family="Helvetica,sans-Serif" font-size="10.00">kest_alloc</text>
</a>
</g>
</g>
<!-- Node32&#45;&gt;Node33 -->
<g id="edge36_Node000032_Node000033" class="edge">
<title>Node32&#45;&gt;Node33</title>
<g id="a_edge36_Node000032_Node000033"><a xlink:title=" ">
<path fill="none" stroke="#63b8ff" d="M324.21,-41.76C356.17,-41.76 394.81,-41.76 423.82,-41.76"/>
<polygon fill="#63b8ff" stroke="#63b8ff" points="423.7,-45.26 433.7,-41.76 423.7,-38.26 423.7,-45.26"/>
</a>
</g>
</g>
</g>
</svg>
