<?xml version="1.0" encoding="UTF-8" standalone="no"?>
<!DOCTYPE svg PUBLIC "-//W3C//DTD SVG 1.1//EN"
 "http://www.w3.org/Graphics/SVG/1.1/DTD/svg11.dtd">
<!-- Generated by graphviz version 13.1.2 (20250808.2320)
 -->
<!-- Title: kest_button_enable Pages: 1 -->
<!--zoomable 145 -->

<svg id="main" version="1.1" xmlns="http://www.w3.org/2000/svg" xmlns:xlink="http://www.w3.org/1999/xlink" xml:space="preserve" onload="init(evt)">

<style type="text/css"><![CDATA[
.node, .edge {opacity: 0.7;}
.node.selected, .edge.selected {opacity: 1;}
.edge:hover path { stroke: red; }
.edge:hover polygon { stroke: red; fill: red; }
]]></style>

<defs>
  <circle id="rim" cx="0" cy="0" r="7"/>
  <circle id="rim2" cx="0" cy="0" r="3.5"/>
  <g id="zoomPlus">
    <use xlink:href="#rim" fill="#404040"><set attributeName="fill" to="#808080" begin="zoomplus.mouseover" end="zoomplus.mouseout"/></use>
    <path d="M-4,0h8M0,-4v8" fill="none" stroke="white" stroke-width="1.5" pointer-events="none"/>
  </g>
  <g id="zoomMin">
    <use xlink:href="#rim" fill="#404040"><set attributeName="fill" to="#808080" begin="zoomminus.mouseover" end="zoomminus.mouseout"/></use>
    <path d="M-4,0h8" fill="none" stroke="white" stroke-width="1.5" pointer-events="none"/>
  </g>
  <g id="arrowUp" transform="translate(30 24)">
    <use xlink:href="#rim"/>
    <path pointer-events="none" fill="none" stroke="white" stroke-width="1.5" d="M0,-3.0v7 M-2.5,-0.5L0,-3.0L2.5,-0.5"/>
  </g>
  <g id="arrowRight" transform="rotate(90) translate(36 -43)">
    <use xlink:href="#rim"/>
    <path pointer-events="none" fill="none" stroke="white" stroke-width="1.5" d="M0,-3.0v7 M-2.5,-0.5L0,-3.0L2.5,-0.5"/>
  </g>
  <g id="arrowDown" transform="rotate(180) translate(-30 -48)">
    <use xlink:href="#rim"/>
    <path pointer-events="none" fill="none" stroke="white" stroke-width="1.5" d="M0,-3.0v7 M-2.5,-0.5L0,-3.0L2.5,-0.5"/>
  </g>
  <g id="arrowLeft" transform="rotate(270) translate(-36 17)">
    <use xlink:href="#rim"/>
    <path pointer-events="none" fill="none" stroke="white" stroke-width="1.5" d="M0,-3.0v7 M-2.5,-0.5L0,-3.0L2.5,-0.5"/>
  </g>
  <g id="resetDef">
    <use xlink:href="#rim2" fill="#404040"><set attributeName="fill" to="#808080" begin="reset.mouseover" end="reset.mouseout"/></use>
  </g>
</defs>
<script type="application/ecmascript">
var viewWidth = 956;
var viewHeight = 145;
var sectionId = 'dynsection-82';
</script>
<script type="application/ecmascript" xlink:href="svg.min.js"/>
<svg id="graph" class="graph">
<g id="viewport">
<title>kest_button_enable</title>
<!-- Node1 -->
<g id="Node000001" class="node">
<title>Node1</title>
<g id="a_Node000001"><a xlink:title=" ">
<polygon fill="#999999" stroke="#666666" points="948,-78.75 836.75,-78.75 836.75,-58 948,-58 948,-78.75"/>
<text xml:space="preserve" text-anchor="middle" x="892.38" y="-65.25" font-family="Helvetica,sans-Serif" font-size="10.00">kest_button_enable</text>
</a>
</g>
</g>
<!-- Node2 -->
<g id="Node000002" class="node">
<title>Node2</title>
<g id="a_Node000002"><a xlink:href="kest__preset__view_8c.html#a4cb6e56c566d285dd8be9688d2c847b7" target="_top" xlink:title=" ">
<polygon fill="white" stroke="#666666" points="604.75,-136.75 469.5,-136.75 469.5,-116 604.75,-116 604.75,-136.75"/>
<text xml:space="preserve" text-anchor="middle" x="537.12" y="-123.25" font-family="Helvetica,sans-Serif" font-size="10.00">preset_view_rep_update</text>
</a>
</g>
</g>
<!-- Node1&#45;&gt;Node2 -->
<g id="edge1_Node000001_Node000002" class="edge">
<title>Node1&#45;&gt;Node2</title>
<g id="a_edge1_Node000001_Node000002"><a xlink:title=" ">
<path fill="none" stroke="#63b8ff" d="M861.51,-84.23C844.25,-92.63 821.83,-102.23 800.75,-107.38 735.58,-123.28 658.82,-127.19 605.18,-127.64"/>
<polygon fill="#63b8ff" stroke="#63b8ff" points="862.8,-87.5 870.18,-79.9 859.67,-81.24 862.8,-87.5"/>
</a>
</g>
</g>
<!-- Node33 -->
<g id="Node000033" class="node">
<title>Node33</title>
<g id="a_Node000033"><a xlink:href="kest__preset__view_8c.html#ade89bd7d1c6c48f2a18f8ae54a703029" target="_top" xlink:title=" ">
<polygon fill="white" stroke="#666666" points="793.62,-98.75 656.88,-98.75 656.88,-78 793.62,-78 793.62,-98.75"/>
<text xml:space="preserve" text-anchor="middle" x="725.25" y="-85.25" font-family="Helvetica,sans-Serif" font-size="10.00">preset_view_save_name</text>
</a>
</g>
</g>
<!-- Node1&#45;&gt;Node33 -->
<g id="edge4_Node000001_Node000033" class="edge">
<title>Node1&#45;&gt;Node33</title>
<g id="a_edge4_Node000001_Node000033"><a xlink:title=" ">
<path fill="none" stroke="#63b8ff" d="M825.01,-76.41C814.78,-77.65 804.19,-78.93 793.92,-80.18"/>
<polygon fill="#63b8ff" stroke="#63b8ff" points="825.38,-79.89 834.89,-75.22 824.54,-72.94 825.38,-79.89"/>
</a>
</g>
</g>
<!-- Node36 -->
<g id="Node000036" class="node">
<title>Node36</title>
<g id="a_Node000036"><a xlink:href="kest__sequence__view_8c.html#a18341f03445e1f2f63bf07b4a97715aa" target="_top" xlink:title=" ">
<polygon fill="white" stroke="#666666" points="800.75,-59.75 649.75,-59.75 649.75,-39 800.75,-39 800.75,-59.75"/>
<text xml:space="preserve" text-anchor="middle" x="725.25" y="-46.25" font-family="Helvetica,sans-Serif" font-size="10.00">sequence_view_rep_update</text>
</a>
</g>
</g>
<!-- Node1&#45;&gt;Node36 -->
<g id="edge9_Node000001_Node000036" class="edge">
<title>Node1&#45;&gt;Node36</title>
<g id="a_edge9_Node000001_Node000036"><a xlink:title=" ">
<path fill="none" stroke="#63b8ff" d="M825,-60.74C817.1,-59.83 808.99,-58.9 800.98,-57.97"/>
<polygon fill="#63b8ff" stroke="#63b8ff" points="824.55,-64.21 834.89,-61.88 825.35,-57.26 824.55,-64.21"/>
</a>
</g>
</g>
<!-- Node37 -->
<g id="Node000037" class="node">
<title>Node37</title>
<g id="a_Node000037"><a xlink:href="kest__sequence__view_8c.html#a9a770d265f15421aca3cec3f9d758e30" target="_top" xlink:title=" ">
<polygon fill="white" stroke="#666666" points="797.38,-20.75 653.12,-20.75 653.12,0 797.38,0 797.38,-20.75"/>
<text xml:space="preserve" text-anchor="middle" x="725.25" y="-7.25" font-family="Helvetica,sans-Serif" font-size="10.00">sequence_view_set_name</text>
</a>
</g>
</g>
<!-- Node1&#45;&gt;Node37 -->
<g id="edge11_Node000001_Node000037" class="edge">
<title>Node1&#45;&gt;Node37</title>
<g id="a_edge11_Node000001_Node000037"><a xlink:title=" ">
<path fill="none" stroke="#63b8ff" d="M857.77,-53.01C840.87,-45.61 819.95,-36.94 800.75,-30.38 791.12,-27.08 780.64,-23.98 770.67,-21.25"/>
<polygon fill="#63b8ff" stroke="#63b8ff" points="856.29,-56.18 866.85,-57.04 859.13,-49.79 856.29,-56.18"/>
</a>
</g>
</g>
<!-- Node3 -->
<g id="Node000003" class="node">
<title>Node3</title>
<g id="a_Node000003"><a xlink:href="kest__preset__view_8c.html#a7aa469a400baf1fdf82d314a2ad5ddbb" target="_top" xlink:title=" ">
<polygon fill="white" stroke="#666666" points="262.25,-135.75 166,-135.75 166,-115 262.25,-115 262.25,-135.75"/>
<text xml:space="preserve" text-anchor="middle" x="214.12" y="-122.25" font-family="Helvetica,sans-Serif" font-size="10.00">init_preset_view</text>
</a>
</g>
</g>
<!-- Node2&#45;&gt;Node3 -->
<g id="edge2_Node000002_Node000003" class="edge">
<title>Node2&#45;&gt;Node3</title>
<g id="a_edge2_Node000002_Node000003"><a xlink:title=" ">
<path fill="none" stroke="#63b8ff" d="M457.71,-126.13C396.7,-125.94 314.04,-125.68 262.67,-125.52"/>
<polygon fill="#63b8ff" stroke="#63b8ff" points="457.7,-129.63 467.71,-126.16 457.72,-122.63 457.7,-129.63"/>
</a>
</g>
</g>
<!-- Node4 -->
<g id="Node000004" class="node">
<title>Node4</title>
<g id="a_Node000004"><a xlink:href="kest__preset__view_8c.html#ae4f85ce684e856ba2d0dfc97c49528b2" target="_top" xlink:title=" ">
<polygon fill="#fff0f0" stroke="red" points="130,-116.75 0,-116.75 0,-96 130,-96 130,-116.75"/>
<text xml:space="preserve" text-anchor="middle" x="65" y="-103.25" font-family="Helvetica,sans-Serif" font-size="10.00">create_preset_view_for</text>
</a>
</g>
</g>
<!-- Node3&#45;&gt;Node4 -->
<g id="edge3_Node000003_Node000004" class="edge">
<title>Node3&#45;&gt;Node4</title>
<g id="a_edge3_Node000003_Node000004"><a xlink:title=" ">
<path fill="none" stroke="#63b8ff" d="M154.42,-117.79C146.54,-116.78 138.41,-115.73 130.43,-114.7"/>
<polygon fill="#63b8ff" stroke="#63b8ff" points="153.9,-121.26 164.26,-119.06 154.79,-114.31 153.9,-121.26"/>
</a>
</g>
</g>
<!-- Node34 -->
<g id="Node000034" class="node">
<title>Node34</title>
<g id="a_Node000034"><a xlink:href="kest__preset__view_8c.html#a3ce8a1ef6a8ba6c46ae10f40394e1b14" target="_top" xlink:title=" ">
<polygon fill="white" stroke="#666666" points="613.75,-97.75 460.5,-97.75 460.5,-77 613.75,-77 613.75,-97.75"/>
<text xml:space="preserve" text-anchor="middle" x="537.12" y="-84.25" font-family="Helvetica,sans-Serif" font-size="10.00">preset_view_save_name_cb</text>
</a>
</g>
</g>
<!-- Node33&#45;&gt;Node34 -->
<g id="edge5_Node000033_Node000034" class="edge">
<title>Node33&#45;&gt;Node34</title>
<g id="a_edge5_Node000033_Node000034"><a xlink:title=" ">
<path fill="none" stroke="#63b8ff" d="M645.03,-87.95C634.74,-87.89 624.22,-87.84 613.99,-87.78"/>
<polygon fill="#63b8ff" stroke="#63b8ff" points="645,-91.45 655.01,-88 645.03,-84.45 645,-91.45"/>
</a>
</g>
</g>
<!-- Node35 -->
<g id="Node000035" class="node">
<title>Node35</title>
<g id="a_Node000035"><a xlink:href="kest__preset__view_8c.html#ad8a171502fcb88f5b5a08657a6424752" target="_top" xlink:title=" ">
<polygon fill="white" stroke="#666666" points="424.5,-97.75 298.25,-97.75 298.25,-77 424.5,-77 424.5,-97.75"/>
<text xml:space="preserve" text-anchor="middle" x="361.38" y="-84.25" font-family="Helvetica,sans-Serif" font-size="10.00">configure_preset_view</text>
</a>
</g>
</g>
<!-- Node34&#45;&gt;Node35 -->
<g id="edge6_Node000034_Node000035" class="edge">
<title>Node34&#45;&gt;Node35</title>
<g id="a_edge6_Node000034_Node000035"><a xlink:title=" ">
<path fill="none" stroke="#63b8ff" d="M448.79,-87.38C440.73,-87.38 432.67,-87.38 424.9,-87.38"/>
<polygon fill="#63b8ff" stroke="#63b8ff" points="448.65,-90.88 458.65,-87.38 448.65,-83.88 448.65,-90.88"/>
</a>
</g>
</g>
<!-- Node35&#45;&gt;Node3 -->
<g id="edge8_Node000035_Node000003" class="edge">
<title>Node35&#45;&gt;Node3</title>
<g id="a_edge8_Node000035_Node000003"><a xlink:title=" ">
<path fill="none" stroke="#63b8ff" d="M308.24,-101.01C291.22,-105.47 272.57,-110.35 256.46,-114.56"/>
<polygon fill="#63b8ff" stroke="#63b8ff" points="308.89,-104.46 317.68,-98.55 307.12,-97.69 308.89,-104.46"/>
</a>
</g>
</g>
<!-- Node35&#45;&gt;Node4 -->
<g id="edge7_Node000035_Node000004" class="edge">
<title>Node35&#45;&gt;Node4</title>
<g id="a_edge7_Node000035_Node000004"><a xlink:title=" ">
<path fill="none" stroke="#63b8ff" d="M286.67,-92.13C238.6,-95.23 176.46,-99.25 130.37,-102.22"/>
<polygon fill="#63b8ff" stroke="#63b8ff" points="286.68,-95.64 296.44,-91.5 286.23,-88.65 286.68,-95.64"/>
</a>
</g>
</g>
<!-- Node32 -->
<g id="Node000032" class="node">
<title>Node32</title>
<g id="a_Node000032"><a xlink:href="kest__sequence__view_8c.html#aca115eba822b7486dc289cc9150562a7" target="_top" xlink:title=" ">
<polygon fill="#fff0f0" stroke="red" points="417.38,-40.75 305.38,-40.75 305.38,-20 417.38,-20 417.38,-40.75"/>
<text xml:space="preserve" text-anchor="middle" x="361.38" y="-27.25" font-family="Helvetica,sans-Serif" font-size="10.00">init_sequence_view</text>
</a>
</g>
</g>
<!-- Node36&#45;&gt;Node32 -->
<g id="edge10_Node000036_Node000032" class="edge">
<title>Node36&#45;&gt;Node32</title>
<g id="a_edge10_Node000036_Node000032"><a xlink:title=" ">
<path fill="none" stroke="#63b8ff" d="M638.11,-44.85C569.83,-41.27 476.44,-36.36 417.78,-33.28"/>
<polygon fill="#63b8ff" stroke="#63b8ff" points="637.59,-48.33 647.76,-45.36 637.96,-41.34 637.59,-48.33"/>
</a>
</g>
</g>
<!-- Node20 -->
<g id="Node000020" class="node">
<title>Node20</title>
<g id="a_Node000020"><a xlink:href="kest__sequence__view_8c.html#ac871b24a7c875a7b6e707a3d2691a2a9" target="_top" xlink:title=" ">
<polygon fill="#fff0f0" stroke="red" points="608.12,-21.75 466.12,-21.75 466.12,-1 608.12,-1 608.12,-21.75"/>
<text xml:space="preserve" text-anchor="middle" x="537.12" y="-8.25" font-family="Helvetica,sans-Serif" font-size="10.00">configure_sequence_view</text>
</a>
</g>
</g>
<!-- Node37&#45;&gt;Node20 -->
<g id="edge12_Node000037_Node000020" class="edge">
<title>Node37&#45;&gt;Node20</title>
<g id="a_edge12_Node000037_Node000020"><a xlink:title=" ">
<path fill="none" stroke="#63b8ff" d="M641.44,-10.82C630.42,-10.88 619.22,-10.94 608.44,-11"/>
<polygon fill="#63b8ff" stroke="#63b8ff" points="641.33,-14.32 651.31,-10.77 641.29,-7.32 641.33,-14.32"/>
</a>
</g>
</g>
<!-- Node20&#45;&gt;Node32 -->
<g id="edge13_Node000020_Node000032" class="edge">
<title>Node20&#45;&gt;Node32</title>
<g id="a_edge13_Node000020_Node000032"><a xlink:title=" ">
<path fill="none" stroke="#63b8ff" d="M454.36,-20.32C441.94,-21.67 429.37,-23.05 417.69,-24.33"/>
<polygon fill="#63b8ff" stroke="#63b8ff" points="454.64,-23.81 464.2,-19.24 453.88,-16.85 454.64,-23.81"/>
</a>
</g>
</g>
</g>
</svg>

<g id="navigator" transform="translate(0 0)" fill="#404254">
  <rect fill="#f2f5e9" fill-opacity="0.5" stroke="#606060" stroke-width=".5" x="0" y="0" width="60" height="60"/>
  <use id="zoomplus" xlink:href="#zoomPlus" x="17" y="9" onmousedown="handleZoom(evt,'in')"/>
  <use id="zoomminus" xlink:href="#zoomMin" x="42" y="9" onmousedown="handleZoom(evt,'out')"/>
  <use id="reset" xlink:href="#resetDef" x="30" y="36" onmousedown="handleReset()"/>
   <use id="arrowup" xlink:href="#arrowUp" x="0" y="0" onmousedown="handlePan(0,-1)"/>
  <use id="arrowright" xlink:href="#arrowRight" x="0" y="0" onmousedown="handlePan(1,0)"/>
  <use id="arrowdown" xlink:href="#arrowDown" x="0" y="0" onmousedown="handlePan(0,1)"/>
  <use id="arrowleft" xlink:href="#arrowLeft" x="0" y="0" onmousedown="handlePan(-1,0)"/>
</g>
<svg viewBox="0 0 15 15" width="100%" height="30px" preserveAspectRatio="xMaxYMin meet">
 <g id="arrow_out" transform="scale(0.3 0.3)">
  <a xlink:href="kest__button_8c_a8d5acc76176bf3f5ec7fdd6b31139830_icgraph_org.svg" target="_base">
   <rect id="button" ry="5" rx="5" y="6" x="6" height="38" width="38"
        fill="#f2f5e9" fill-opacity="0.5" stroke="#606060" stroke-width="1.0"/>
   <path id="arrow"
     d="M 11.500037,31.436501 C 11.940474,20.09759 22.043105,11.32322 32.158766,21.979434 L 37.068811,17.246167 C 37.068811,17.246167 37.088388,32 37.088388,32 L 22.160133,31.978069 C 22.160133,31.978069 26.997745,27.140456 26.997745,27.140456 C 18.528582,18.264221 13.291696,25.230495 11.500037,31.436501 z"
     style="fill:#404040;"/>
  </a>
 </g>
</svg>

<style type='text/css'>
<![CDATA[
[data-mouse-over-selected='false'] { opacity: 0.7; }
[data-mouse-over-selected='true']  { opacity: 1.0; }
]]>
</style>
<script type="application/ecmascript"><![CDATA[
document.addEventListener('DOMContentLoaded', (event) => {
  highlightEdges();
  highlightAdjacentNodes();
});
]]></script>
</svg>
