<?xml version="1.0" encoding="UTF-8" standalone="no"?>
<!DOCTYPE svg PUBLIC "-//W3C//DTD SVG 1.1//EN"
 "http://www.w3.org/Graphics/SVG/1.1/DTD/svg11.dtd">
<!-- Generated by graphviz version 13.1.2 (20250808.2320)
 -->
<!-- Title: kest_sgtl5000.h Pages: 1 -->
<svg width="4285pt" height="142pt"
 viewBox="0.00 0.00 4285.00 142.00" xmlns="http://www.w3.org/2000/svg" xmlns:xlink="http://www.w3.org/1999/xlink">
<g id="graph0" class="graph" transform="scale(1 1) rotate(0) translate(4 138.25)">
<title>kest_sgtl5000.h</title>
<!-- Node1 -->
<g id="Node000001" class="node">
<title>Node1</title>
<g id="a_Node000001"><a xlink:title=" ">
<polygon fill="#999999" stroke="#666666" points="2185.75,-134.25 2093.25,-134.25 2093.25,-113.5 2185.75,-113.5 2185.75,-134.25"/>
<text xml:space="preserve" text-anchor="middle" x="2139.5" y="-120.75" font-family="Helvetica,sans-Serif" font-size="10.00">kest_sgtl5000.h</text>
</a>
</g>
</g>
<!-- Node2 -->
<g id="Node000002" class="node">
<title>Node2</title>
<g id="a_Node000002"><a xlink:href="kest__int_8h.html" target="_top" xlink:title=" ">
<polygon fill="#fff0f0" stroke="red" points="2171.12,-77.5 2107.88,-77.5 2107.88,-56.75 2171.12,-56.75 2171.12,-77.5"/>
<text xml:space="preserve" text-anchor="middle" x="2139.5" y="-64" font-family="Helvetica,sans-Serif" font-size="10.00">kest_int.h</text>
</a>
</g>
</g>
<!-- Node1&#45;&gt;Node2 -->
<g id="edge1_Node000001_Node000002" class="edge">
<title>Node1&#45;&gt;Node2</title>
<g id="a_edge1_Node000001_Node000002"><a xlink:title=" ">
<path fill="none" stroke="#63b8ff" d="M2139.5,-101.63C2139.5,-93.41 2139.5,-84.43 2139.5,-77.83"/>
<polygon fill="#63b8ff" stroke="#63b8ff" points="2136,-101.57 2139.5,-111.57 2143,-101.57 2136,-101.57"/>
</a>
</g>
</g>
<!-- Node3 -->
<g id="Node000003" class="node">
<title>Node3</title>
<g id="a_Node000003"><a xlink:href="kest__alloc_8c.html" target="_top" xlink:title=" ">
<polygon fill="white" stroke="#666666" points="73,-20.75 0,-20.75 0,0 73,0 73,-20.75"/>
<text xml:space="preserve" text-anchor="middle" x="36.5" y="-7.25" font-family="Helvetica,sans-Serif" font-size="10.00">kest_alloc.c</text>
</a>
</g>
</g>
<!-- Node2&#45;&gt;Node3 -->
<g id="edge2_Node000002_Node000003" class="edge">
<title>Node2&#45;&gt;Node3</title>
<g id="a_edge2_Node000002_Node000003"><a xlink:title=" ">
<path fill="none" stroke="#63b8ff" d="M2096.07,-66.23C1836.96,-66.67 492.43,-66.67 82.5,-20.75 79.5,-20.41 76.41,-19.98 73.32,-19.48"/>
<polygon fill="#63b8ff" stroke="#63b8ff" points="2096.08,-69.73 2106.07,-66.21 2096.06,-62.73 2096.08,-69.73"/>
</a>
</g>
</g>
<!-- Node4 -->
<g id="Node000004" class="node">
<title>Node4</title>
<g id="a_Node000004"><a xlink:href="kest__asm__parser_8c.html" target="_top" xlink:title=" ">
<polygon fill="white" stroke="#666666" points="197.88,-20.75 91.12,-20.75 91.12,0 197.88,0 197.88,-20.75"/>
<text xml:space="preserve" text-anchor="middle" x="144.5" y="-7.25" font-family="Helvetica,sans-Serif" font-size="10.00">kest_asm_parser.c</text>
</a>
</g>
</g>
<!-- Node2&#45;&gt;Node4 -->
<g id="edge3_Node000002_Node000004" class="edge">
<title>Node2&#45;&gt;Node4</title>
<g id="a_edge3_Node000002_Node000004"><a xlink:title=" ">
<path fill="none" stroke="#63b8ff" d="M2095.98,-65.85C1846.08,-64.18 591.26,-54.22 206.5,-20.75 203.79,-20.51 201.02,-20.23 198.22,-19.92"/>
<polygon fill="#63b8ff" stroke="#63b8ff" points="2095.91,-69.35 2105.93,-65.92 2095.95,-62.35 2095.91,-69.35"/>
</a>
</g>
</g>
<!-- Node5 -->
<g id="Node000005" class="node">
<title>Node5</title>
<g id="a_Node000005"><a xlink:href="kest__block_8c.html" target="_top" xlink:title=" ">
<polygon fill="white" stroke="#666666" points="291.5,-20.75 215.5,-20.75 215.5,0 291.5,0 291.5,-20.75"/>
<text xml:space="preserve" text-anchor="middle" x="253.5" y="-7.25" font-family="Helvetica,sans-Serif" font-size="10.00">kest_block.c</text>
</a>
</g>
</g>
<!-- Node2&#45;&gt;Node5 -->
<g id="edge4_Node000002_Node000005" class="edge">
<title>Node2&#45;&gt;Node5</title>
<g id="a_edge4_Node000002_Node000005"><a xlink:title=" ">
<path fill="none" stroke="#63b8ff" d="M2096.17,-66.07C1853.89,-65.6 664.73,-61.26 300.5,-20.75 297.69,-20.44 294.79,-20.04 291.89,-19.59"/>
<polygon fill="#63b8ff" stroke="#63b8ff" points="2096.11,-69.57 2106.11,-66.09 2096.12,-62.57 2096.11,-69.57"/>
</a>
</g>
</g>
<!-- Node6 -->
<g id="Node000006" class="node">
<title>Node6</title>
<g id="a_Node000006"><a xlink:href="kest__bump__arena_8c.html" target="_top" xlink:title=" ">
<polygon fill="white" stroke="#666666" points="419.75,-20.75 309.25,-20.75 309.25,0 419.75,0 419.75,-20.75"/>
<text xml:space="preserve" text-anchor="middle" x="364.5" y="-7.25" font-family="Helvetica,sans-Serif" font-size="10.00">kest_bump_arena.c</text>
</a>
</g>
</g>
<!-- Node2&#45;&gt;Node6 -->
<g id="edge5_Node000002_Node000006" class="edge">
<title>Node2&#45;&gt;Node6</title>
<g id="a_edge5_Node000002_Node000006"><a xlink:title=" ">
<path fill="none" stroke="#63b8ff" d="M2096.3,-65.68C1864.57,-63.17 766.78,-49.91 428.5,-20.75 425.7,-20.51 422.84,-20.23 419.96,-19.91"/>
<polygon fill="#63b8ff" stroke="#63b8ff" points="2096.04,-69.17 2106.08,-65.78 2096.12,-62.17 2096.04,-69.17"/>
</a>
</g>
</g>
<!-- Node7 -->
<g id="Node000007" class="node">
<title>Node7</title>
<g id="a_Node000007"><a xlink:href="kest__button_8c.html" target="_top" xlink:title=" ">
<polygon fill="white" stroke="#666666" points="519.12,-20.75 437.88,-20.75 437.88,0 519.12,0 519.12,-20.75"/>
<text xml:space="preserve" text-anchor="middle" x="478.5" y="-7.25" font-family="Helvetica,sans-Serif" font-size="10.00">kest_button.c</text>
</a>
</g>
</g>
<!-- Node2&#45;&gt;Node7 -->
<g id="edge6_Node000002_Node000007" class="edge">
<title>Node2&#45;&gt;Node7</title>
<g id="a_edge6_Node000002_Node000007"><a xlink:title=" ">
<path fill="none" stroke="#63b8ff" d="M2096.33,-65.83C1872.82,-64.15 845.2,-54.69 528.5,-20.75 525.6,-20.44 522.62,-20.05 519.62,-19.62"/>
<polygon fill="#63b8ff" stroke="#63b8ff" points="2096.01,-69.33 2106.04,-65.9 2096.06,-62.33 2096.01,-69.33"/>
</a>
</g>
</g>
<!-- Node8 -->
<g id="Node000008" class="node">
<title>Node8</title>
<g id="a_Node000008"><a xlink:href="kest__context_8c.html" target="_top" xlink:title=" ">
<polygon fill="white" stroke="#666666" points="623.75,-20.75 537.25,-20.75 537.25,0 623.75,0 623.75,-20.75"/>
<text xml:space="preserve" text-anchor="middle" x="580.5" y="-7.25" font-family="Helvetica,sans-Serif" font-size="10.00">kest_context.c</text>
</a>
</g>
</g>
<!-- Node2&#45;&gt;Node8 -->
<g id="edge7_Node000002_Node000008" class="edge">
<title>Node2&#45;&gt;Node8</title>
<g id="a_edge7_Node000002_Node000008"><a xlink:title=" ">
<path fill="none" stroke="#63b8ff" d="M2096.08,-65.69C1880.91,-63.39 927.44,-51.61 632.5,-20.75 629.76,-20.46 626.95,-20.12 624.13,-19.72"/>
<polygon fill="#63b8ff" stroke="#63b8ff" points="2095.94,-69.19 2105.97,-65.79 2096.01,-62.19 2095.94,-69.19"/>
</a>
</g>
</g>
<!-- Node9 -->
<g id="Node000009" class="node">
<title>Node9</title>
<g id="a_Node000009"><a xlink:href="kest__dependent_8c.html" target="_top" xlink:title=" ">
<polygon fill="white" stroke="#666666" points="743.25,-20.75 641.75,-20.75 641.75,0 743.25,0 743.25,-20.75"/>
<text xml:space="preserve" text-anchor="middle" x="692.5" y="-7.25" font-family="Helvetica,sans-Serif" font-size="10.00">kest_dependent.c</text>
</a>
</g>
</g>
<!-- Node2&#45;&gt;Node9 -->
<g id="edge8_Node000002_Node000009" class="edge">
<title>Node2&#45;&gt;Node9</title>
<g id="a_edge8_Node000002_Node000009"><a xlink:title=" ">
<path fill="none" stroke="#63b8ff" d="M2096,-65.42C1891.3,-61.99 1022.67,-46.18 752.5,-20.75 749.56,-20.47 746.55,-20.15 743.51,-19.78"/>
<polygon fill="#63b8ff" stroke="#63b8ff" points="2095.86,-68.92 2105.92,-65.58 2095.98,-61.92 2095.86,-68.92"/>
</a>
</g>
</g>
<!-- Node10 -->
<g id="Node000010" class="node">
<title>Node10</title>
<g id="a_Node000010"><a xlink:href="kest__desktop_8c.html" target="_top" xlink:title=" ">
<polygon fill="white" stroke="#666666" points="849.88,-20.75 761.12,-20.75 761.12,0 849.88,0 849.88,-20.75"/>
<text xml:space="preserve" text-anchor="middle" x="805.5" y="-7.25" font-family="Helvetica,sans-Serif" font-size="10.00">kest_desktop.c</text>
</a>
</g>
</g>
<!-- Node2&#45;&gt;Node10 -->
<g id="edge9_Node000002_Node000010" class="edge">
<title>Node2&#45;&gt;Node10</title>
<g id="a_edge9_Node000002_Node000010"><a xlink:title=" ">
<path fill="none" stroke="#63b8ff" d="M2096.23,-65.41C1901.65,-62.04 1106.43,-46.94 858.5,-20.75 855.81,-20.47 853.04,-20.12 850.26,-19.74"/>
<polygon fill="#63b8ff" stroke="#63b8ff" points="2096.08,-68.9 2106.14,-65.57 2096.2,-61.9 2096.08,-68.9"/>
</a>
</g>
</g>
<!-- Node11 -->
<g id="Node000011" class="node">
<title>Node11</title>
<g id="a_Node000011"><a xlink:href="kest__dict__extract_8c.html" target="_top" xlink:title=" ">
<polygon fill="white" stroke="#666666" points="975.25,-20.75 867.75,-20.75 867.75,0 975.25,0 975.25,-20.75"/>
<text xml:space="preserve" text-anchor="middle" x="921.5" y="-7.25" font-family="Helvetica,sans-Serif" font-size="10.00">kest_dict_extract.c</text>
</a>
</g>
</g>
<!-- Node2&#45;&gt;Node11 -->
<g id="edge10_Node000002_Node000011" class="edge">
<title>Node2&#45;&gt;Node11</title>
<g id="a_edge10_Node000002_Node000011"><a xlink:title=" ">
<path fill="none" stroke="#63b8ff" d="M2096.57,-66.15C1944.4,-65.89 1416.61,-61.87 983.5,-20.75 980.9,-20.5 978.24,-20.22 975.56,-19.91"/>
<polygon fill="#63b8ff" stroke="#63b8ff" points="2096.17,-69.65 2106.18,-66.16 2096.18,-62.65 2096.17,-69.65"/>
</a>
</g>
</g>
<!-- Node12 -->
<g id="Node000012" class="node">
<title>Node12</title>
<g id="a_Node000012"><a xlink:href="kest__dictionary_8c.html" target="_top" xlink:title=" ">
<polygon fill="white" stroke="#666666" points="1090,-20.75 993,-20.75 993,0 1090,0 1090,-20.75"/>
<text xml:space="preserve" text-anchor="middle" x="1041.5" y="-7.25" font-family="Helvetica,sans-Serif" font-size="10.00">kest_dictionary.c</text>
</a>
</g>
</g>
<!-- Node2&#45;&gt;Node12 -->
<g id="edge11_Node000002_Node000012" class="edge">
<title>Node2&#45;&gt;Node12</title>
<g id="a_edge11_Node000002_Node000012"><a xlink:title=" ">
<path fill="none" stroke="#63b8ff" d="M2096.23,-66.04C1953.48,-65.38 1484.66,-60.14 1099.5,-20.75 1096.56,-20.45 1093.54,-20.1 1090.49,-19.71"/>
<polygon fill="#63b8ff" stroke="#63b8ff" points="2095.96,-69.54 2105.97,-66.08 2095.99,-62.54 2095.96,-69.54"/>
</a>
</g>
</g>
<!-- Node13 -->
<g id="Node000013" class="node">
<title>Node13</title>
<g id="a_Node000013"><a xlink:href="kest__driver_8c.html" target="_top" xlink:title=" ">
<polygon fill="white" stroke="#666666" points="1186.62,-20.75 1108.38,-20.75 1108.38,0 1186.62,0 1186.62,-20.75"/>
<text xml:space="preserve" text-anchor="middle" x="1147.5" y="-7.25" font-family="Helvetica,sans-Serif" font-size="10.00">kest_driver.c</text>
</a>
</g>
</g>
<!-- Node2&#45;&gt;Node13 -->
<g id="edge12_Node000002_Node000013" class="edge">
<title>Node2&#45;&gt;Node13</title>
<g id="a_edge12_Node000002_Node000013"><a xlink:title=" ">
<path fill="none" stroke="#63b8ff" d="M2096.22,-66.27C1961.98,-66.24 1540.99,-62.57 1195.5,-20.75 1192.72,-20.41 1189.86,-20.01 1186.98,-19.56"/>
<polygon fill="#63b8ff" stroke="#63b8ff" points="2096.07,-69.77 2106.06,-66.26 2096.06,-62.77 2096.07,-69.77"/>
</a>
</g>
</g>
<!-- Node14 -->
<g id="Node000014" class="node">
<title>Node14</title>
<g id="a_Node000014"><a xlink:href="kest__eff__desc_8c.html" target="_top" xlink:title=" ">
<polygon fill="white" stroke="#666666" points="1296,-20.75 1205,-20.75 1205,0 1296,0 1296,-20.75"/>
<text xml:space="preserve" text-anchor="middle" x="1250.5" y="-7.25" font-family="Helvetica,sans-Serif" font-size="10.00">kest_eff_desc.c</text>
</a>
</g>
</g>
<!-- Node2&#45;&gt;Node14 -->
<g id="edge13_Node000002_Node000014" class="edge">
<title>Node2&#45;&gt;Node14</title>
<g id="a_edge13_Node000002_Node000014"><a xlink:title=" ">
<path fill="none" stroke="#63b8ff" d="M2096.33,-65.57C1972.62,-63.59 1606.35,-55.03 1304.5,-20.75 1301.85,-20.45 1299.14,-20.1 1296.4,-19.72"/>
<polygon fill="#63b8ff" stroke="#63b8ff" points="2095.97,-69.06 2106.02,-65.72 2096.08,-62.06 2095.97,-69.06"/>
</a>
</g>
</g>
<!-- Node15 -->
<g id="Node000015" class="node">
<title>Node15</title>
<g id="a_Node000015"><a xlink:href="kest__eff__parser_8c.html" target="_top" xlink:title=" ">
<polygon fill="white" stroke="#666666" points="1413.12,-20.75 1313.88,-20.75 1313.88,0 1413.12,0 1413.12,-20.75"/>
<text xml:space="preserve" text-anchor="middle" x="1363.5" y="-7.25" font-family="Helvetica,sans-Serif" font-size="10.00">kest_eff_parser.c</text>
</a>
</g>
</g>
<!-- Node2&#45;&gt;Node15 -->
<g id="edge14_Node000002_Node000015" class="edge">
<title>Node2&#45;&gt;Node15</title>
<g id="a_edge14_Node000002_Node000015"><a xlink:title=" ">
<path fill="none" stroke="#63b8ff" d="M2096.17,-64.81C1984.34,-61.1 1676.97,-48.96 1422.5,-20.75 1419.51,-20.42 1416.44,-20.04 1413.35,-19.63"/>
<polygon fill="#63b8ff" stroke="#63b8ff" points="2095.98,-68.3 2106.09,-65.13 2096.21,-61.31 2095.98,-68.3"/>
</a>
</g>
</g>
<!-- Node16 -->
<g id="Node000016" class="node">
<title>Node16</title>
<g id="a_Node000016"><a xlink:href="kest__eff__section_8c.html" target="_top" xlink:title=" ">
<polygon fill="white" stroke="#666666" points="1535.38,-20.75 1431.62,-20.75 1431.62,0 1535.38,0 1535.38,-20.75"/>
<text xml:space="preserve" text-anchor="middle" x="1483.5" y="-7.25" font-family="Helvetica,sans-Serif" font-size="10.00">kest_eff_section.c</text>
</a>
</g>
</g>
<!-- Node2&#45;&gt;Node16 -->
<g id="edge15_Node000002_Node000016" class="edge">
<title>Node2&#45;&gt;Node16</title>
<g id="a_edge15_Node000002_Node000016"><a xlink:title=" ">
<path fill="none" stroke="#63b8ff" d="M2096.26,-63.96C1998,-58.8 1750.46,-44.4 1544.5,-20.75 1541.63,-20.42 1538.68,-20.06 1535.71,-19.67"/>
<polygon fill="#63b8ff" stroke="#63b8ff" points="2095.81,-67.44 2105.98,-64.47 2096.17,-60.45 2095.81,-67.44"/>
</a>
</g>
</g>
<!-- Node17 -->
<g id="Node000017" class="node">
<title>Node17</title>
<g id="a_Node000017"><a xlink:href="kest__effect_8c.html" target="_top" xlink:title=" ">
<polygon fill="white" stroke="#666666" points="1631.62,-20.75 1553.38,-20.75 1553.38,0 1631.62,0 1631.62,-20.75"/>
<text xml:space="preserve" text-anchor="middle" x="1592.5" y="-7.25" font-family="Helvetica,sans-Serif" font-size="10.00">kest_effect.c</text>
</a>
</g>
</g>
<!-- Node2&#45;&gt;Node17 -->
<g id="edge16_Node000002_Node000017" class="edge">
<title>Node2&#45;&gt;Node17</title>
<g id="a_edge16_Node000002_Node000017"><a xlink:title=" ">
<path fill="none" stroke="#63b8ff" d="M2096.17,-63.61C2009.51,-58.27 1808.79,-44.32 1641.5,-20.75 1638.41,-20.32 1635.22,-19.82 1632.02,-19.28"/>
<polygon fill="#63b8ff" stroke="#63b8ff" points="2095.92,-67.1 2106.11,-64.22 2096.34,-60.12 2095.92,-67.1"/>
</a>
</g>
</g>
<!-- Node18 -->
<g id="Node000018" class="node">
<title>Node18</title>
<g id="a_Node000018"><a xlink:href="kest__effect__select_8c.html" target="_top" xlink:title=" ">
<polygon fill="white" stroke="#666666" points="1762.88,-20.75 1650.12,-20.75 1650.12,0 1762.88,0 1762.88,-20.75"/>
<text xml:space="preserve" text-anchor="middle" x="1706.5" y="-7.25" font-family="Helvetica,sans-Serif" font-size="10.00">kest_effect_select.c</text>
</a>
</g>
</g>
<!-- Node2&#45;&gt;Node18 -->
<g id="edge17_Node000002_Node000018" class="edge">
<title>Node2&#45;&gt;Node18</title>
<g id="a_edge17_Node000002_Node000018"><a xlink:title=" ">
<path fill="none" stroke="#63b8ff" d="M2096.37,-61.05C2027.76,-52.92 1889.51,-36.29 1772.5,-20.75 1769.52,-20.35 1766.46,-19.94 1763.37,-19.52"/>
<polygon fill="#63b8ff" stroke="#63b8ff" points="2095.72,-64.5 2106.06,-62.2 2096.54,-57.54 2095.72,-64.5"/>
</a>
</g>
</g>
<!-- Node19 -->
<g id="Node000019" class="node">
<title>Node19</title>
<g id="a_Node000019"><a xlink:href="kest__effect__settings_8c.html" target="_top" xlink:title=" ">
<polygon fill="white" stroke="#666666" points="1903.75,-20.75 1781.25,-20.75 1781.25,0 1903.75,0 1903.75,-20.75"/>
<text xml:space="preserve" text-anchor="middle" x="1842.5" y="-7.25" font-family="Helvetica,sans-Serif" font-size="10.00">kest_effect_settings.c</text>
</a>
</g>
</g>
<!-- Node2&#45;&gt;Node19 -->
<g id="edge18_Node000002_Node000019" class="edge">
<title>Node2&#45;&gt;Node19</title>
<g id="a_edge18_Node000002_Node000019"><a xlink:title=" ">
<path fill="none" stroke="#63b8ff" d="M2096.38,-58.18C2043.35,-48.4 1953.3,-31.8 1895.93,-21.22"/>
<polygon fill="#63b8ff" stroke="#63b8ff" points="2095.48,-61.57 2105.95,-59.94 2096.75,-54.68 2095.48,-61.57"/>
</a>
</g>
</g>
<!-- Node20 -->
<g id="Node000020" class="node">
<title>Node20</title>
<g id="a_Node000020"><a xlink:href="kest__effect__view_8c.html" target="_top" xlink:title=" ">
<polygon fill="white" stroke="#666666" points="2027.5,-20.75 1921.5,-20.75 1921.5,0 2027.5,0 2027.5,-20.75"/>
<text xml:space="preserve" text-anchor="middle" x="1974.5" y="-7.25" font-family="Helvetica,sans-Serif" font-size="10.00">kest_effect_view.c</text>
</a>
</g>
</g>
<!-- Node2&#45;&gt;Node20 -->
<g id="edge19_Node000002_Node000020" class="edge">
<title>Node2&#45;&gt;Node20</title>
<g id="a_edge19_Node000002_Node000020"><a xlink:title=" ">
<path fill="none" stroke="#63b8ff" d="M2099.25,-52.77C2069.83,-43.01 2030.58,-29.98 2004.02,-21.17"/>
<polygon fill="#63b8ff" stroke="#63b8ff" points="2097.97,-56.03 2108.56,-55.86 2100.18,-49.39 2097.97,-56.03"/>
</a>
</g>
</g>
<!-- Node21 -->
<g id="Node000021" class="node">
<title>Node21</title>
<g id="a_Node000021"><a xlink:href="kest__event_8c.html" target="_top" xlink:title=" ">
<polygon fill="white" stroke="#666666" points="2123.25,-20.75 2045.75,-20.75 2045.75,0 2123.25,0 2123.25,-20.75"/>
<text xml:space="preserve" text-anchor="middle" x="2084.5" y="-7.25" font-family="Helvetica,sans-Serif" font-size="10.00">kest_event.c</text>
</a>
</g>
</g>
<!-- Node2&#45;&gt;Node21 -->
<g id="edge20_Node000002_Node000021" class="edge">
<title>Node2&#45;&gt;Node21</title>
<g id="a_edge20_Node000002_Node000021"><a xlink:title=" ">
<path fill="none" stroke="#63b8ff" d="M2121.59,-48.3C2112.5,-39.25 2101.81,-28.61 2094.25,-21.08"/>
<polygon fill="#63b8ff" stroke="#63b8ff" points="2119.04,-50.69 2128.59,-55.27 2123.98,-45.73 2119.04,-50.69"/>
</a>
</g>
</g>
<!-- Node22 -->
<g id="Node000022" class="node">
<title>Node22</title>
<g id="a_Node000022"><a xlink:href="kest__expr__parser_8c.html" target="_top" xlink:title=" ">
<polygon fill="white" stroke="#666666" points="2249.25,-20.75 2141.75,-20.75 2141.75,0 2249.25,0 2249.25,-20.75"/>
<text xml:space="preserve" text-anchor="middle" x="2195.5" y="-7.25" font-family="Helvetica,sans-Serif" font-size="10.00">kest_expr_parser.c</text>
</a>
</g>
</g>
<!-- Node2&#45;&gt;Node22 -->
<g id="edge21_Node000002_Node000022" class="edge">
<title>Node2&#45;&gt;Node22</title>
<g id="a_edge21_Node000002_Node000022"><a xlink:title=" ">
<path fill="none" stroke="#63b8ff" d="M2157.73,-48.3C2166.99,-39.25 2177.87,-28.61 2185.57,-21.08"/>
<polygon fill="#63b8ff" stroke="#63b8ff" points="2155.3,-45.79 2150.59,-55.28 2160.19,-50.79 2155.3,-45.79"/>
</a>
</g>
</g>
<!-- Node23 -->
<g id="Node000023" class="node">
<title>Node23</title>
<g id="a_Node000023"><a xlink:href="kest__expr__scope_8c.html" target="_top" xlink:title=" ">
<polygon fill="white" stroke="#666666" points="2372.12,-20.75 2266.88,-20.75 2266.88,0 2372.12,0 2372.12,-20.75"/>
<text xml:space="preserve" text-anchor="middle" x="2319.5" y="-7.25" font-family="Helvetica,sans-Serif" font-size="10.00">kest_expr_scope.c</text>
</a>
</g>
</g>
<!-- Node2&#45;&gt;Node23 -->
<g id="edge22_Node000002_Node000023" class="edge">
<title>Node2&#45;&gt;Node23</title>
<g id="a_edge22_Node000002_Node000023"><a xlink:title=" ">
<path fill="none" stroke="#63b8ff" d="M2182.14,-53.16C2214.31,-43.37 2257.79,-30.15 2287.14,-21.22"/>
<polygon fill="#63b8ff" stroke="#63b8ff" points="2181.26,-49.76 2172.71,-56.02 2183.3,-56.46 2181.26,-49.76"/>
</a>
</g>
</g>
<!-- Node24 -->
<g id="Node000024" class="node">
<title>Node24</title>
<g id="a_Node000024"><a xlink:href="kest__expression_8c.html" target="_top" xlink:title=" ">
<polygon fill="white" stroke="#666666" points="2493,-20.75 2390,-20.75 2390,0 2493,0 2493,-20.75"/>
<text xml:space="preserve" text-anchor="middle" x="2441.5" y="-7.25" font-family="Helvetica,sans-Serif" font-size="10.00">kest_expression.c</text>
</a>
</g>
</g>
<!-- Node2&#45;&gt;Node24 -->
<g id="edge23_Node000002_Node000024" class="edge">
<title>Node2&#45;&gt;Node24</title>
<g id="a_edge23_Node000002_Node000024"><a xlink:title=" ">
<path fill="none" stroke="#63b8ff" d="M2182.56,-58.32C2237.16,-48.42 2331.23,-31.37 2389.7,-20.77"/>
<polygon fill="#63b8ff" stroke="#63b8ff" points="2182.24,-54.82 2173.02,-60.05 2183.49,-61.71 2182.24,-54.82"/>
</a>
</g>
</g>
<!-- Node25 -->
<g id="Node000025" class="node">
<title>Node25</title>
<g id="a_Node000025"><a xlink:href="kest__file__task_8c.html" target="_top" xlink:title=" ">
<polygon fill="white" stroke="#666666" points="2602.38,-20.75 2510.62,-20.75 2510.62,0 2602.38,0 2602.38,-20.75"/>
<text xml:space="preserve" text-anchor="middle" x="2556.5" y="-7.25" font-family="Helvetica,sans-Serif" font-size="10.00">kest_file_task.c</text>
</a>
</g>
</g>
<!-- Node2&#45;&gt;Node25 -->
<g id="edge24_Node000002_Node000025" class="edge">
<title>Node2&#45;&gt;Node25</title>
<g id="a_edge24_Node000002_Node000025"><a xlink:title=" ">
<path fill="none" stroke="#63b8ff" d="M2182.74,-61.39C2250.87,-53.79 2387.3,-37.94 2502.5,-20.75 2505.04,-20.37 2507.65,-19.97 2510.28,-19.55"/>
<polygon fill="#63b8ff" stroke="#63b8ff" points="2182.67,-57.88 2173.12,-62.46 2183.45,-64.84 2182.67,-57.88"/>
</a>
</g>
</g>
<!-- Node26 -->
<g id="Node000026" class="node">
<title>Node26</title>
<g id="a_Node000026"><a xlink:href="kest__files_8c.html" target="_top" xlink:title=" ">
<polygon fill="white" stroke="#666666" points="2690.88,-20.75 2620.12,-20.75 2620.12,0 2690.88,0 2690.88,-20.75"/>
<text xml:space="preserve" text-anchor="middle" x="2655.5" y="-7.25" font-family="Helvetica,sans-Serif" font-size="10.00">kest_files.c</text>
</a>
</g>
</g>
<!-- Node2&#45;&gt;Node26 -->
<g id="edge25_Node000002_Node000026" class="edge">
<title>Node2&#45;&gt;Node26</title>
<g id="a_edge25_Node000002_Node000026"><a xlink:title=" ">
<path fill="none" stroke="#63b8ff" d="M2182.7,-63.63C2266,-58.44 2454.5,-44.94 2611.5,-20.75 2614.28,-20.32 2617.15,-19.83 2620.02,-19.3"/>
<polygon fill="#63b8ff" stroke="#63b8ff" points="2182.7,-60.12 2172.93,-64.22 2183.13,-67.11 2182.7,-60.12"/>
</a>
</g>
</g>
<!-- Node27 -->
<g id="Node000027" class="node">
<title>Node27</title>
<g id="a_Node000027"><a xlink:href="kest__fixed__point_8c.html" target="_top" xlink:title=" ">
<polygon fill="white" stroke="#666666" points="2813.75,-20.75 2709.25,-20.75 2709.25,0 2813.75,0 2813.75,-20.75"/>
<text xml:space="preserve" text-anchor="middle" x="2761.5" y="-7.25" font-family="Helvetica,sans-Serif" font-size="10.00">kest_fixed_point.c</text>
</a>
</g>
</g>
<!-- Node2&#45;&gt;Node27 -->
<g id="edge26_Node000002_Node000027" class="edge">
<title>Node2&#45;&gt;Node27</title>
<g id="a_edge26_Node000002_Node000027"><a xlink:title=" ">
<path fill="none" stroke="#63b8ff" d="M2182.78,-63.64C2276.95,-58.02 2507.39,-43.03 2699.5,-20.75 2702.53,-20.4 2705.64,-20.01 2708.77,-19.6"/>
<polygon fill="#63b8ff" stroke="#63b8ff" points="2182.75,-60.14 2172.97,-64.22 2183.16,-67.13 2182.75,-60.14"/>
</a>
</g>
</g>
<!-- Node28 -->
<g id="Node000028" class="node">
<title>Node28</title>
<g id="a_Node000028"><a xlink:href="kest__footswitch_8c.html" target="_top" xlink:title=" ">
<polygon fill="white" stroke="#666666" points="2932.88,-20.75 2832.12,-20.75 2832.12,0 2932.88,0 2932.88,-20.75"/>
<text xml:space="preserve" text-anchor="middle" x="2882.5" y="-7.25" font-family="Helvetica,sans-Serif" font-size="10.00">kest_footswitch.c</text>
</a>
</g>
</g>
<!-- Node2&#45;&gt;Node28 -->
<g id="edge27_Node000002_Node000028" class="edge">
<title>Node2&#45;&gt;Node28</title>
<g id="a_edge27_Node000002_Node000028"><a xlink:title=" ">
<path fill="none" stroke="#63b8ff" d="M2183,-64.57C2291.31,-60.42 2581.72,-47.51 2822.5,-20.75 2825.54,-20.41 2828.66,-20.03 2831.8,-19.62"/>
<polygon fill="#63b8ff" stroke="#63b8ff" points="2182.97,-61.07 2173.11,-64.95 2183.23,-68.07 2182.97,-61.07"/>
</a>
</g>
</g>
<!-- Node29 -->
<g id="Node000029" class="node">
<title>Node29</title>
<g id="a_Node000029"><a xlink:href="kest__fpga__cmd_8c.html" target="_top" xlink:title=" ">
<polygon fill="white" stroke="#666666" points="3048.38,-20.75 2950.62,-20.75 2950.62,0 3048.38,0 3048.38,-20.75"/>
<text xml:space="preserve" text-anchor="middle" x="2999.5" y="-7.25" font-family="Helvetica,sans-Serif" font-size="10.00">kest_fpga_cmd.c</text>
</a>
</g>
</g>
<!-- Node2&#45;&gt;Node29 -->
<g id="edge28_Node000002_Node000029" class="edge">
<title>Node2&#45;&gt;Node29</title>
<g id="a_edge28_Node000002_Node000029"><a xlink:title=" ">
<path fill="none" stroke="#63b8ff" d="M2182.55,-65.26C2302.86,-62.5 2652.69,-52.18 2941.5,-20.75 2944.34,-20.44 2947.25,-20.09 2950.19,-19.7"/>
<polygon fill="#63b8ff" stroke="#63b8ff" points="2182.74,-61.75 2172.82,-65.48 2182.9,-68.75 2182.74,-61.75"/>
</a>
</g>
</g>
<!-- Node30 -->
<g id="Node000030" class="node">
<title>Node30</title>
<g id="a_Node000030"><a xlink:href="kest__fpga__comms_8c.html" target="_top" xlink:title=" ">
<polygon fill="white" stroke="#666666" points="3178.88,-20.75 3066.12,-20.75 3066.12,0 3178.88,0 3178.88,-20.75"/>
<text xml:space="preserve" text-anchor="middle" x="3122.5" y="-7.25" font-family="Helvetica,sans-Serif" font-size="10.00">kest_fpga_comms.c</text>
</a>
</g>
</g>
<!-- Node2&#45;&gt;Node30 -->
<g id="edge29_Node000002_Node000030" class="edge">
<title>Node2&#45;&gt;Node30</title>
<g id="a_edge29_Node000002_Node000030"><a xlink:title=" ">
<path fill="none" stroke="#63b8ff" d="M2182.41,-65.43C2313.69,-63.01 2721.39,-53.22 3057.5,-20.75 3060.22,-20.49 3063.01,-20.19 3065.82,-19.87"/>
<polygon fill="#63b8ff" stroke="#63b8ff" points="2182.74,-61.93 2172.8,-65.61 2182.86,-68.93 2182.74,-61.93"/>
</a>
</g>
</g>
<!-- Node31 -->
<g id="Node000031" class="node">
<title>Node31</title>
<g id="a_Node000031"><a xlink:href="kest__fpga__dma_8c.html" target="_top" xlink:title=" ">
<polygon fill="white" stroke="#666666" points="3295.75,-20.75 3197.25,-20.75 3197.25,0 3295.75,0 3295.75,-20.75"/>
<text xml:space="preserve" text-anchor="middle" x="3246.5" y="-7.25" font-family="Helvetica,sans-Serif" font-size="10.00">kest_fpga_dma.c</text>
</a>
</g>
</g>
<!-- Node2&#45;&gt;Node31 -->
<g id="edge30_Node000002_Node000031" class="edge">
<title>Node2&#45;&gt;Node31</title>
<g id="a_edge30_Node000002_Node000031"><a xlink:title=" ">
<path fill="none" stroke="#63b8ff" d="M2182.61,-66.02C2325.86,-65.3 2798.88,-59.91 3187.5,-20.75 3190.6,-20.44 3193.78,-20.07 3196.98,-19.66"/>
<polygon fill="#63b8ff" stroke="#63b8ff" points="2182.82,-62.52 2172.83,-66.07 2182.85,-69.52 2182.82,-62.52"/>
</a>
</g>
</g>
<!-- Node32 -->
<g id="Node000032" class="node">
<title>Node32</title>
<g id="a_Node000032"><a xlink:href="kest__fpga__encoding_8c.html" target="_top" xlink:title=" ">
<polygon fill="white" stroke="#666666" points="3435,-20.75 3314,-20.75 3314,0 3435,0 3435,-20.75"/>
<text xml:space="preserve" text-anchor="middle" x="3374.5" y="-7.25" font-family="Helvetica,sans-Serif" font-size="10.00">kest_fpga_encoding.c</text>
</a>
</g>
</g>
<!-- Node2&#45;&gt;Node32 -->
<g id="edge31_Node000002_Node000032" class="edge">
<title>Node2&#45;&gt;Node32</title>
<g id="a_edge31_Node000002_Node000032"><a xlink:title=" ">
<path fill="none" stroke="#63b8ff" d="M2182.74,-65.91C2336.02,-64.83 2867.69,-58.42 3304.5,-20.75 3307.55,-20.49 3310.68,-20.19 3313.83,-19.86"/>
<polygon fill="#63b8ff" stroke="#63b8ff" points="2183.03,-62.41 2173.05,-65.97 2183.07,-69.41 2183.03,-62.41"/>
</a>
</g>
</g>
<!-- Node33 -->
<g id="Node000033" class="node">
<title>Node33</title>
<g id="a_Node000033"><a xlink:href="kest__fpga__instr_8c.html" target="_top" xlink:title=" ">
<polygon fill="white" stroke="#666666" points="3551.75,-20.75 3453.25,-20.75 3453.25,0 3551.75,0 3551.75,-20.75"/>
<text xml:space="preserve" text-anchor="middle" x="3502.5" y="-7.25" font-family="Helvetica,sans-Serif" font-size="10.00">kest_fpga_instr.c</text>
</a>
</g>
</g>
<!-- Node2&#45;&gt;Node33 -->
<g id="edge32_Node000002_Node000033" class="edge">
<title>Node2&#45;&gt;Node33</title>
<g id="a_edge32_Node000002_Node000033"><a xlink:title=" ">
<path fill="none" stroke="#63b8ff" d="M2182.45,-66.58C2346.67,-67.93 2950.4,-69.08 3444.5,-20.75 3447.24,-20.48 3450.05,-20.17 3452.88,-19.82"/>
<polygon fill="#63b8ff" stroke="#63b8ff" points="2182.94,-63.09 2172.91,-66.5 2182.88,-70.09 2182.94,-63.09"/>
</a>
</g>
</g>
<!-- Node34 -->
<g id="Node000034" class="node">
<title>Node34</title>
<g id="a_Node000034"><a xlink:href="kest__fpga__io_8c.html" target="_top" xlink:title=" ">
<polygon fill="white" stroke="#666666" points="3655.38,-20.75 3569.62,-20.75 3569.62,0 3655.38,0 3655.38,-20.75"/>
<text xml:space="preserve" text-anchor="middle" x="3612.5" y="-7.25" font-family="Helvetica,sans-Serif" font-size="10.00">kest_fpga_io.c</text>
</a>
</g>
</g>
<!-- Node2&#45;&gt;Node34 -->
<g id="edge33_Node000002_Node000034" class="edge">
<title>Node2&#45;&gt;Node34</title>
<g id="a_edge33_Node000002_Node000034"><a xlink:title=" ">
<path fill="none" stroke="#63b8ff" d="M2182.75,-65.6C2390.06,-62.94 3283.44,-49.99 3560.5,-20.75 3563.33,-20.45 3566.23,-20.09 3569.16,-19.68"/>
<polygon fill="#63b8ff" stroke="#63b8ff" points="2182.93,-62.1 2172.97,-65.72 2183.02,-69.1 2182.93,-62.1"/>
</a>
</g>
</g>
<!-- Node35 -->
<g id="Node000035" class="node">
<title>Node35</title>
<g id="a_Node000035"><a xlink:href="kest__fpga__position_8c.html" target="_top" xlink:title=" ">
<polygon fill="white" stroke="#666666" points="3789.38,-20.75 3673.62,-20.75 3673.62,0 3789.38,0 3789.38,-20.75"/>
<text xml:space="preserve" text-anchor="middle" x="3731.5" y="-7.25" font-family="Helvetica,sans-Serif" font-size="10.00">kest_fpga_position.c</text>
</a>
</g>
</g>
<!-- Node2&#45;&gt;Node35 -->
<g id="edge34_Node000002_Node000035" class="edge">
<title>Node2&#45;&gt;Node35</title>
<g id="a_edge34_Node000002_Node000035"><a xlink:title=" ">
<path fill="none" stroke="#63b8ff" d="M2183.06,-65.47C2400.01,-62.13 3365.32,-46.06 3664.5,-20.75 3667.43,-20.5 3670.42,-20.21 3673.44,-19.89"/>
<polygon fill="#63b8ff" stroke="#63b8ff" points="2183.03,-61.97 2173.08,-65.63 2183.13,-68.97 2183.03,-61.97"/>
</a>
</g>
</g>
<!-- Node36 -->
<g id="Node000036" class="node">
<title>Node36</title>
<g id="a_Node000036"><a xlink:href="kest__fpga__update_8c.html" target="_top" xlink:title=" ">
<polygon fill="white" stroke="#666666" points="3917.75,-20.75 3807.25,-20.75 3807.25,0 3917.75,0 3917.75,-20.75"/>
<text xml:space="preserve" text-anchor="middle" x="3862.5" y="-7.25" font-family="Helvetica,sans-Serif" font-size="10.00">kest_fpga_update.c</text>
</a>
</g>
</g>
<!-- Node2&#45;&gt;Node36 -->
<g id="edge35_Node000002_Node000036" class="edge">
<title>Node2&#45;&gt;Node36</title>
<g id="a_edge35_Node000002_Node000036"><a xlink:title=" ">
<path fill="none" stroke="#63b8ff" d="M2182.82,-65.63C2410.56,-62.95 3471.19,-49.1 3798.5,-20.75 3801.3,-20.51 3804.16,-20.22 3807.04,-19.91"/>
<polygon fill="#63b8ff" stroke="#63b8ff" points="2182.88,-62.13 2172.92,-65.75 2182.96,-69.13 2182.88,-62.13"/>
</a>
</g>
</g>
<!-- Node37 -->
<g id="Node000037" class="node">
<title>Node37</title>
<g id="a_Node000037"><a xlink:href="kest__global_8c.html" target="_top" xlink:title=" ">
<polygon fill="white" stroke="#666666" points="4015.38,-20.75 3935.62,-20.75 3935.62,0 4015.38,0 4015.38,-20.75"/>
<text xml:space="preserve" text-anchor="middle" x="3975.5" y="-7.25" font-family="Helvetica,sans-Serif" font-size="10.00">kest_global.c</text>
</a>
</g>
</g>
<!-- Node2&#45;&gt;Node37 -->
<g id="edge36_Node000002_Node000037" class="edge">
<title>Node2&#45;&gt;Node37</title>
<g id="a_edge36_Node000002_Node000037"><a xlink:title=" ">
<path fill="none" stroke="#63b8ff" d="M2182.74,-65.99C2420.72,-65.09 3572.99,-58.8 3926.5,-20.75 3929.34,-20.44 3932.27,-20.06 3935.2,-19.63"/>
<polygon fill="#63b8ff" stroke="#63b8ff" points="2182.98,-62.49 2172.99,-66.02 2183,-69.49 2182.98,-62.49"/>
</a>
</g>
</g>
<!-- Node38 -->
<g id="Node000038" class="node">
<title>Node38</title>
<g id="a_Node000038"><a xlink:href="kest__init_8c.html" target="_top" xlink:title=" ">
<polygon fill="white" stroke="#666666" points="4099.25,-20.75 4033.75,-20.75 4033.75,0 4099.25,0 4099.25,-20.75"/>
<text xml:space="preserve" text-anchor="middle" x="4066.5" y="-7.25" font-family="Helvetica,sans-Serif" font-size="10.00">kest_init.c</text>
</a>
</g>
</g>
<!-- Node2&#45;&gt;Node38 -->
<g id="edge37_Node000002_Node000038" class="edge">
<title>Node2&#45;&gt;Node38</title>
<g id="a_edge37_Node000002_Node000038"><a xlink:title=" ">
<path fill="none" stroke="#63b8ff" d="M2182.76,-66.23C2428.53,-66.67 3651.06,-66.48 4024.5,-20.75 4027.47,-20.39 4030.53,-19.91 4033.59,-19.36"/>
<polygon fill="#63b8ff" stroke="#63b8ff" points="2183,-62.73 2173,-66.21 2182.99,-69.73 2183,-62.73"/>
</a>
</g>
</g>
<!-- Node39 -->
<g id="Node000039" class="node">
<title>Node39</title>
<g id="a_Node000039"><a xlink:href="kest__int_8c.html" target="_top" xlink:title=" ">
<polygon fill="white" stroke="#666666" points="4179.75,-20.75 4117.25,-20.75 4117.25,0 4179.75,0 4179.75,-20.75"/>
<text xml:space="preserve" text-anchor="middle" x="4148.5" y="-7.25" font-family="Helvetica,sans-Serif" font-size="10.00">kest_int.c</text>
</a>
</g>
</g>
<!-- Node2&#45;&gt;Node39 -->
<g id="edge38_Node000002_Node000039" class="edge">
<title>Node2&#45;&gt;Node39</title>
<g id="a_edge38_Node000002_Node000039"><a xlink:title=" ">
<path fill="none" stroke="#63b8ff" d="M2182.69,-66.35C2434.72,-67.45 3717.64,-70.51 4108.5,-20.75 4111.33,-20.39 4114.25,-19.91 4117.17,-19.37"/>
<polygon fill="#63b8ff" stroke="#63b8ff" points="2183.01,-62.85 2172.99,-66.3 2182.97,-69.85 2183.01,-62.85"/>
</a>
</g>
</g>
<!-- Node40 -->
<g id="Node000040" class="node">
<title>Node40</title>
<g id="a_Node000040"><a xlink:href="kest__lv__log_8c.html" target="_top" xlink:title=" ">
<polygon fill="white" stroke="#666666" points="4277,-20.75 4198,-20.75 4198,0 4277,0 4277,-20.75"/>
<text xml:space="preserve" text-anchor="middle" x="4237.5" y="-7.25" font-family="Helvetica,sans-Serif" font-size="10.00">kest_lv_log.c</text>
</a>
</g>
</g>
<!-- Node2&#45;&gt;Node40 -->
<g id="edge39_Node000002_Node000040" class="edge">
<title>Node2&#45;&gt;Node40</title>
<g id="a_edge39_Node000002_Node000040"><a xlink:title=" ">
<path fill="none" stroke="#63b8ff" d="M2182.75,-66.15C2440.81,-66.15 3779.89,-64.06 4188.5,-20.75 4191.51,-20.43 4194.62,-20.02 4197.74,-19.56"/>
<polygon fill="#63b8ff" stroke="#63b8ff" points="2182.8,-62.65 2172.8,-66.15 2182.8,-69.65 2182.8,-62.65"/>
</a>
</g>
</g>
</g>
</svg>
