<?xml version="1.0" encoding="UTF-8" standalone="no"?>
<!DOCTYPE svg PUBLIC "-//W3C//DTD SVG 1.1//EN"
 "http://www.w3.org/Graphics/SVG/1.1/DTD/svg11.dtd">
<!-- Generated by graphviz version 13.1.2 (20250808.2320)
 -->
<!-- Title: kest_cxt_enter_previous_current_page Pages: 1 -->
<svg width="661pt" height="223pt"
 viewBox="0.00 0.00 661.00 223.00" xmlns="http://www.w3.org/2000/svg" xmlns:xlink="http://www.w3.org/1999/xlink">
<g id="graph0" class="graph" transform="scale(1 1) rotate(0) translate(4 218.5)">
<title>kest_cxt_enter_previous_current_page</title>
<!-- Node1 -->
<g id="Node000001" class="node">
<title>Node1</title>
<g id="a_Node000001"><a xlink:title=" ">
<polygon fill="#999999" stroke="#666666" points="134.5,-127.5 0,-127.5 0,-94 134.5,-94 134.5,-127.5"/>
<text xml:space="preserve" text-anchor="start" x="8" y="-114" font-family="Helvetica,sans-Serif" font-size="10.00">kest_cxt_enter_previous</text>
<text xml:space="preserve" text-anchor="middle" x="67.25" y="-101.25" font-family="Helvetica,sans-Serif" font-size="10.00">_current_page</text>
</a>
</g>
</g>
<!-- Node2 -->
<g id="Node000002" class="node">
<title>Node2</title>
<g id="a_Node000002"><a xlink:href="kest__ui_8c.html#aa2d3723586ce4773041fc708fe0c5a49" target="_top" xlink:title=" ">
<polygon fill="white" stroke="#666666" points="296.38,-163.12 177.62,-163.12 177.62,-142.38 296.38,-142.38 296.38,-163.12"/>
<text xml:space="preserve" text-anchor="middle" x="237" y="-149.62" font-family="Helvetica,sans-Serif" font-size="10.00">enter_ui_page_async</text>
</a>
</g>
</g>
<!-- Node1&#45;&gt;Node2 -->
<g id="edge1_Node000001_Node000002" class="edge">
<title>Node1&#45;&gt;Node2</title>
<g id="a_edge1_Node000001_Node000002"><a xlink:title=" ">
<path fill="none" stroke="#63b8ff" d="M134.55,-127.35C150.17,-131.26 166.63,-135.38 181.66,-139.14"/>
<polygon fill="#63b8ff" stroke="#63b8ff" points="180.8,-142.54 191.35,-141.57 182.5,-135.75 180.8,-142.54"/>
</a>
</g>
</g>
<!-- Node14 -->
<g id="Node000014" class="node">
<title>Node14</title>
<g id="a_Node000014"><a xlink:href="kest__page__id_8c.html#a63b55de25f16c715b468429c78e79af0" target="_top" xlink:title=" ">
<polygon fill="white" stroke="#666666" points="303.5,-102.12 170.5,-102.12 170.5,-81.38 303.5,-81.38 303.5,-102.12"/>
<text xml:space="preserve" text-anchor="middle" x="237" y="-88.62" font-family="Helvetica,sans-Serif" font-size="10.00">kest_page_id_find_page</text>
</a>
</g>
</g>
<!-- Node1&#45;&gt;Node14 -->
<g id="edge7_Node000001_Node000014" class="edge">
<title>Node1&#45;&gt;Node14</title>
<g id="a_edge7_Node000001_Node000014"><a xlink:title=" ">
<path fill="none" stroke="#63b8ff" d="M134.55,-103.24C142.52,-102.34 150.71,-101.41 158.81,-100.49"/>
<polygon fill="#63b8ff" stroke="#63b8ff" points="159.14,-103.98 168.68,-99.38 158.35,-97.02 159.14,-103.98"/>
</a>
</g>
</g>
<!-- Node3 -->
<g id="Node000003" class="node">
<title>Node3</title>
<g id="a_Node000003"><a xlink:href="kest__ui_8c.html#ac76f52136fa064f940377b1cdaaac507" target="_top" xlink:title=" ">
<polygon fill="white" stroke="#666666" points="469.88,-214.5 351.12,-214.5 351.12,-181 469.88,-181 469.88,-214.5"/>
<text xml:space="preserve" text-anchor="start" x="359.12" y="-201" font-family="Helvetica,sans-Serif" font-size="10.00">enter_ui_page_async</text>
<text xml:space="preserve" text-anchor="middle" x="410.5" y="-188.25" font-family="Helvetica,sans-Serif" font-size="10.00">_wrapper</text>
</a>
</g>
</g>
<!-- Node2&#45;&gt;Node3 -->
<g id="edge2_Node000002_Node000003" class="edge">
<title>Node2&#45;&gt;Node3</title>
<g id="a_edge2_Node000002_Node000003"><a xlink:title=" ">
<path fill="none" stroke="#63b8ff" d="M279.08,-163.53C297.31,-168.31 319.27,-174.07 339.93,-179.5"/>
<polygon fill="#63b8ff" stroke="#63b8ff" points="338.89,-182.84 349.45,-181.99 340.67,-176.07 338.89,-182.84"/>
</a>
</g>
</g>
<!-- Node11 -->
<g id="Node000011" class="node">
<title>Node11</title>
<g id="a_Node000011"><a xlink:href="kest__ui_8c.html#abb436cbf4403efe8fe122cdfbcaa3a76" target="_top" xlink:title=" ">
<polygon fill="white" stroke="#666666" points="463.88,-163.12 357.12,-163.12 357.12,-142.38 463.88,-142.38 463.88,-163.12"/>
<text xml:space="preserve" text-anchor="middle" x="410.5" y="-149.62" font-family="Helvetica,sans-Serif" font-size="10.00">kest_ui_async_call</text>
</a>
</g>
</g>
<!-- Node2&#45;&gt;Node11 -->
<g id="edge4_Node000002_Node000011" class="edge">
<title>Node2&#45;&gt;Node11</title>
<g id="a_edge4_Node000002_Node000011"><a xlink:title=" ">
<path fill="none" stroke="#63b8ff" d="M296.54,-152.75C312.24,-152.75 329.29,-152.75 345.27,-152.75"/>
<polygon fill="#63b8ff" stroke="#63b8ff" points="345.17,-156.25 355.17,-152.75 345.17,-149.25 345.17,-156.25"/>
</a>
</g>
</g>
<!-- Node4 -->
<g id="Node000004" class="node">
<title>Node4</title>
<g id="a_Node000004"><a xlink:href="kest__ui_8c.html#aab9f2e82d67858edd53fd09370687007" target="_top" xlink:title=" ">
<polygon fill="#fff0f0" stroke="red" points="627.62,-208.12 542.62,-208.12 542.62,-187.38 627.62,-187.38 627.62,-208.12"/>
<text xml:space="preserve" text-anchor="middle" x="585.12" y="-194.62" font-family="Helvetica,sans-Serif" font-size="10.00">enter_ui_page</text>
</a>
</g>
</g>
<!-- Node3&#45;&gt;Node4 -->
<g id="edge3_Node000003_Node000004" class="edge">
<title>Node3&#45;&gt;Node4</title>
<g id="a_edge3_Node000003_Node000004"><a xlink:title=" ">
<path fill="none" stroke="#63b8ff" d="M469.94,-197.75C489.72,-197.75 511.68,-197.75 531.02,-197.75"/>
<polygon fill="#63b8ff" stroke="#63b8ff" points="530.86,-201.25 540.86,-197.75 530.86,-194.25 530.86,-201.25"/>
</a>
</g>
</g>
<!-- Node12 -->
<g id="Node000012" class="node">
<title>Node12</title>
<g id="a_Node000012"><a xlink:href="kest__ui_8c.html#aebba54d5d7fa842d060318e7305ab00a" target="_top" xlink:title=" ">
<polygon fill="white" stroke="#666666" points="623.12,-166.12 547.12,-166.12 547.12,-145.38 623.12,-145.38 623.12,-166.12"/>
<text xml:space="preserve" text-anchor="middle" x="585.12" y="-152.62" font-family="Helvetica,sans-Serif" font-size="10.00">kest_ui_lock</text>
</a>
</g>
</g>
<!-- Node11&#45;&gt;Node12 -->
<g id="edge5_Node000011_Node000012" class="edge">
<title>Node11&#45;&gt;Node12</title>
<g id="a_edge5_Node000011_Node000012"><a xlink:title=" ">
<path fill="none" stroke="#63b8ff" d="M464.23,-153.67C486.84,-154.06 513.09,-154.52 535.25,-154.9"/>
<polygon fill="#63b8ff" stroke="#63b8ff" points="535.19,-158.4 545.25,-155.07 535.31,-151.4 535.19,-158.4"/>
</a>
</g>
</g>
<!-- Node13 -->
<g id="Node000013" class="node">
<title>Node13</title>
<g id="a_Node000013"><a xlink:href="kest__ui_8c.html#a0057bcc95db9fe3c57986a61175de9b0" target="_top" xlink:title=" ">
<polygon fill="white" stroke="#666666" points="629.12,-127.12 541.12,-127.12 541.12,-106.38 629.12,-106.38 629.12,-127.12"/>
<text xml:space="preserve" text-anchor="middle" x="585.12" y="-113.62" font-family="Helvetica,sans-Serif" font-size="10.00">kest_ui_unlock</text>
</a>
</g>
</g>
<!-- Node11&#45;&gt;Node13 -->
<g id="edge6_Node000011_Node000013" class="edge">
<title>Node11&#45;&gt;Node13</title>
<g id="a_edge6_Node000011_Node000013"><a xlink:title=" ">
<path fill="none" stroke="#63b8ff" d="M463.29,-141.95C484.25,-137.58 508.47,-132.53 529.69,-128.1"/>
<polygon fill="#63b8ff" stroke="#63b8ff" points="530.25,-131.56 539.32,-126.09 528.82,-124.71 530.25,-131.56"/>
</a>
</g>
</g>
<!-- Node15 -->
<g id="Node000015" class="node">
<title>Node15</title>
<g id="a_Node000015"><a xlink:href="kest__context_8c.html#a27d5ba2e580d6779a546998085484da0" target="_top" xlink:title=" ">
<polygon fill="white" stroke="#666666" points="481.5,-124.12 339.5,-124.12 339.5,-103.38 481.5,-103.38 481.5,-124.12"/>
<text xml:space="preserve" text-anchor="middle" x="410.5" y="-110.62" font-family="Helvetica,sans-Serif" font-size="10.00">cxt_get_preset_by_fname</text>
</a>
</g>
</g>
<!-- Node14&#45;&gt;Node15 -->
<g id="edge8_Node000014_Node000015" class="edge">
<title>Node14&#45;&gt;Node15</title>
<g id="a_edge8_Node000014_Node000015"><a xlink:title=" ">
<path fill="none" stroke="#63b8ff" d="M303.82,-100.19C311.65,-101.2 319.72,-102.23 327.74,-103.26"/>
<polygon fill="#63b8ff" stroke="#63b8ff" points="327.15,-106.72 337.52,-104.52 328.04,-99.77 327.15,-106.72"/>
</a>
</g>
</g>
<!-- Node18 -->
<g id="Node000018" class="node">
<title>Node18</title>
<g id="a_Node000018"><a xlink:href="kest__context_8c.html#a4474b9a7ebb9f0c2bd9fd3773bc81d7f" target="_top" xlink:title=" ">
<polygon fill="white" stroke="#666666" points="471,-85.5 350,-85.5 350,-52 471,-52 471,-85.5"/>
<text xml:space="preserve" text-anchor="start" x="358" y="-72" font-family="Helvetica,sans-Serif" font-size="10.00">cxt_get_sequence_by</text>
<text xml:space="preserve" text-anchor="middle" x="410.5" y="-59.25" font-family="Helvetica,sans-Serif" font-size="10.00">_fname</text>
</a>
</g>
</g>
<!-- Node14&#45;&gt;Node18 -->
<g id="edge10_Node000014_Node000018" class="edge">
<title>Node14&#45;&gt;Node18</title>
<g id="a_edge10_Node000014_Node000018"><a xlink:title=" ">
<path fill="none" stroke="#63b8ff" d="M303.82,-82.92C315.15,-81.4 326.98,-79.82 338.44,-78.28"/>
<polygon fill="#63b8ff" stroke="#63b8ff" points="338.81,-81.76 348.26,-76.96 337.88,-74.82 338.81,-81.76"/>
</a>
</g>
</g>
<!-- Node19 -->
<g id="Node000019" class="node">
<title>Node19</title>
<g id="a_Node000019"><a xlink:href="kest__preset_8c.html#a58e14bf946d89414715a6f2480b13587" target="_top" xlink:title=" ">
<polygon fill="white" stroke="#666666" points="474,-33.5 347,-33.5 347,0 474,0 474,-33.5"/>
<text xml:space="preserve" text-anchor="start" x="355" y="-20" font-family="Helvetica,sans-Serif" font-size="10.00">kest_preset_get_effect</text>
<text xml:space="preserve" text-anchor="middle" x="410.5" y="-7.25" font-family="Helvetica,sans-Serif" font-size="10.00">_by_id</text>
</a>
</g>
</g>
<!-- Node14&#45;&gt;Node19 -->
<g id="edge12_Node000014_Node000019" class="edge">
<title>Node14&#45;&gt;Node19</title>
<g id="a_edge12_Node000014_Node000019"><a xlink:title=" ">
<path fill="none" stroke="#63b8ff" d="M258.73,-81.03C279.06,-70.69 311.06,-54.87 339.5,-42.75 343.24,-41.16 347.11,-39.57 351.03,-38"/>
<polygon fill="#63b8ff" stroke="#63b8ff" points="352,-41.38 360.03,-34.47 349.44,-34.86 352,-41.38"/>
</a>
</g>
</g>
<!-- Node16 -->
<g id="Node000016" class="node">
<title>Node16</title>
<g id="a_Node000016"><a xlink:href="kest__files_8c.html#a8bcff3a826c8132661386cd8098594a2" target="_top" xlink:title=" ">
<polygon fill="#fff0f0" stroke="red" points="628,-82.12 542.25,-82.12 542.25,-61.38 628,-61.38 628,-82.12"/>
<text xml:space="preserve" text-anchor="middle" x="585.12" y="-68.62" font-family="Helvetica,sans-Serif" font-size="10.00">fnames_agree</text>
</a>
</g>
</g>
<!-- Node15&#45;&gt;Node16 -->
<g id="edge9_Node000015_Node000016" class="edge">
<title>Node15&#45;&gt;Node16</title>
<g id="a_edge9_Node000015_Node000016"><a xlink:title=" ">
<path fill="none" stroke="#63b8ff" d="M455.96,-102.93C478.81,-97.37 506.83,-90.56 530.83,-84.72"/>
<polygon fill="#63b8ff" stroke="#63b8ff" points="531.54,-88.15 540.43,-82.38 529.89,-81.34 531.54,-88.15"/>
</a>
</g>
</g>
<!-- Node18&#45;&gt;Node16 -->
<g id="edge11_Node000018_Node000016" class="edge">
<title>Node18&#45;&gt;Node16</title>
<g id="a_edge11_Node000018_Node000016"><a xlink:title=" ">
<path fill="none" stroke="#63b8ff" d="M471.39,-69.79C490.66,-70.13 511.88,-70.49 530.66,-70.82"/>
<polygon fill="#63b8ff" stroke="#63b8ff" points="530.43,-74.32 540.49,-70.99 530.55,-67.32 530.43,-74.32"/>
</a>
</g>
</g>
<!-- Node20 -->
<g id="Node000020" class="node">
<title>Node20</title>
<g id="a_Node000020"><a xlink:href="kest__pipeline_8c.html#a19fe1c3c33a4a564d9c722b7cd94037d" target="_top" xlink:title=" ">
<polygon fill="white" stroke="#666666" points="652.75,-33.5 517.5,-33.5 517.5,0 652.75,0 652.75,-33.5"/>
<text xml:space="preserve" text-anchor="start" x="525.5" y="-20" font-family="Helvetica,sans-Serif" font-size="10.00">kest_pipeline_get_effect</text>
<text xml:space="preserve" text-anchor="middle" x="585.12" y="-7.25" font-family="Helvetica,sans-Serif" font-size="10.00">_by_id</text>
</a>
</g>
</g>
<!-- Node19&#45;&gt;Node20 -->
<g id="edge13_Node000019_Node000020" class="edge">
<title>Node19&#45;&gt;Node20</title>
<g id="a_edge13_Node000019_Node000020"><a xlink:title=" ">
<path fill="none" stroke="#63b8ff" d="M474.31,-16.75C484.58,-16.75 495.32,-16.75 505.9,-16.75"/>
<polygon fill="#63b8ff" stroke="#63b8ff" points="505.78,-20.25 515.78,-16.75 505.78,-13.25 505.78,-20.25"/>
</a>
</g>
</g>
</g>
</svg>
