<?xml version="1.0" encoding="UTF-8" standalone="no"?>
<!DOCTYPE svg PUBLIC "-//W3C//DTD SVG 1.1//EN"
 "http://www.w3.org/Graphics/SVG/1.1/DTD/svg11.dtd">
<!-- Generated by graphviz version 13.1.2 (20250808.2320)
 -->
<!-- Title: kest_dependent_filter_coef Pages: 1 -->
<!--zoomable 102 -->

<svg id="main" version="1.1" xmlns="http://www.w3.org/2000/svg" xmlns:xlink="http://www.w3.org/1999/xlink" xml:space="preserve" onload="init(evt)">

<style type="text/css"><![CDATA[
.node, .edge {opacity: 0.7;}
.node.selected, .edge.selected {opacity: 1;}
.edge:hover path { stroke: red; }
.edge:hover polygon { stroke: red; fill: red; }
]]></style>

<defs>
  <circle id="rim" cx="0" cy="0" r="7"/>
  <circle id="rim2" cx="0" cy="0" r="3.5"/>
  <g id="zoomPlus">
    <use xlink:href="#rim" fill="#404040"><set attributeName="fill" to="#808080" begin="zoomplus.mouseover" end="zoomplus.mouseout"/></use>
    <path d="M-4,0h8M0,-4v8" fill="none" stroke="white" stroke-width="1.5" pointer-events="none"/>
  </g>
  <g id="zoomMin">
    <use xlink:href="#rim" fill="#404040"><set attributeName="fill" to="#808080" begin="zoomminus.mouseover" end="zoomminus.mouseout"/></use>
    <path d="M-4,0h8" fill="none" stroke="white" stroke-width="1.5" pointer-events="none"/>
  </g>
  <g id="arrowUp" transform="translate(30 24)">
    <use xlink:href="#rim"/>
    <path pointer-events="none" fill="none" stroke="white" stroke-width="1.5" d="M0,-3.0v7 M-2.5,-0.5L0,-3.0L2.5,-0.5"/>
  </g>
  <g id="arrowRight" transform="rotate(90) translate(36 -43)">
    <use xlink:href="#rim"/>
    <path pointer-events="none" fill="none" stroke="white" stroke-width="1.5" d="M0,-3.0v7 M-2.5,-0.5L0,-3.0L2.5,-0.5"/>
  </g>
  <g id="arrowDown" transform="rotate(180) translate(-30 -48)">
    <use xlink:href="#rim"/>
    <path pointer-events="none" fill="none" stroke="white" stroke-width="1.5" d="M0,-3.0v7 M-2.5,-0.5L0,-3.0L2.5,-0.5"/>
  </g>
  <g id="arrowLeft" transform="rotate(270) translate(-36 17)">
    <use xlink:href="#rim"/>
    <path pointer-events="none" fill="none" stroke="white" stroke-width="1.5" d="M0,-3.0v7 M-2.5,-0.5L0,-3.0L2.5,-0.5"/>
  </g>
  <g id="resetDef">
    <use xlink:href="#rim2" fill="#404040"><set attributeName="fill" to="#808080" begin="reset.mouseover" end="reset.mouseout"/></use>
  </g>
</defs>
<script type="application/ecmascript">
var viewWidth = 671;
var viewHeight = 102;
var sectionId = 'dynsection-2';
</script>
<script type="application/ecmascript" xlink:href="svg.min.js"/>
<svg id="graph" class="graph">
<g id="viewport">
<title>kest_dependent_filter_coef</title>
<!-- Node1 -->
<g id="Node000001" class="node">
<title>Node1</title>
<g id="a_Node000001"><a xlink:title=" ">
<polygon fill="#999999" stroke="#666666" points="663.25,-58.12 515.25,-58.12 515.25,-37.38 663.25,-37.38 663.25,-58.12"/>
<text xml:space="preserve" text-anchor="middle" x="589.25" y="-44.62" font-family="Helvetica,sans-Serif" font-size="10.00">kest_dependent_filter_coef</text>
</a>
</g>
</g>
<!-- Node2 -->
<g id="Node000002" class="node">
<title>Node2</title>
<g id="a_Node000002"><a xlink:href="kest__expr__scope_8c.html#a44be4cdc6bcfdaf52ae97b5b6344a703" target="_top" xlink:title=" ">
<polygon fill="white" stroke="#666666" points="479.25,-64.5 351.5,-64.5 351.5,-31 479.25,-31 479.25,-64.5"/>
<text xml:space="preserve" text-anchor="start" x="359.5" y="-51" font-family="Helvetica,sans-Serif" font-size="10.00">kest_scope_entry_add</text>
<text xml:space="preserve" text-anchor="middle" x="415.38" y="-38.25" font-family="Helvetica,sans-Serif" font-size="10.00">_dependent_filter_coef</text>
</a>
</g>
</g>
<!-- Node1&#45;&gt;Node2 -->
<g id="edge1_Node000001_Node000002" class="edge">
<title>Node1&#45;&gt;Node2</title>
<g id="a_edge1_Node000001_Node000002"><a xlink:title=" ">
<path fill="none" stroke="#63b8ff" d="M503.48,-47.75C495.41,-47.75 487.32,-47.75 479.5,-47.75"/>
<polygon fill="#63b8ff" stroke="#63b8ff" points="503.35,-51.25 513.35,-47.75 503.35,-44.25 503.35,-51.25"/>
</a>
</g>
</g>
<!-- Node3 -->
<g id="Node000003" class="node">
<title>Node3</title>
<g id="a_Node000003"><a xlink:href="kest__expr__scope_8c.html#ab954da49064df7635bd107423cd9ebf0" target="_top" xlink:title=" ">
<polygon fill="white" stroke="#666666" points="314.38,-93.5 192.62,-93.5 192.62,-60 314.38,-60 314.38,-93.5"/>
<text xml:space="preserve" text-anchor="start" x="200.62" y="-80" font-family="Helvetica,sans-Serif" font-size="10.00">kest_scope_add_filter</text>
<text xml:space="preserve" text-anchor="middle" x="253.5" y="-67.25" font-family="Helvetica,sans-Serif" font-size="10.00">_coef_dependencies</text>
</a>
</g>
</g>
<!-- Node2&#45;&gt;Node3 -->
<g id="edge2_Node000002_Node000003" class="edge">
<title>Node2&#45;&gt;Node3</title>
<g id="a_edge2_Node000002_Node000003"><a xlink:title=" ">
<path fill="none" stroke="#63b8ff" d="M340.06,-61.23C331.54,-62.78 322.93,-64.34 314.62,-65.84"/>
<polygon fill="#63b8ff" stroke="#63b8ff" points="340.48,-64.71 349.7,-59.48 339.23,-57.82 340.48,-64.71"/>
</a>
</g>
</g>
<!-- Node32 -->
<g id="Node000032" class="node">
<title>Node32</title>
<g id="a_Node000032"><a xlink:href="kest__expr__scope_8c.html#a8599558aef23a41dd9b43bfa790c35ef" target="_top" xlink:title=" ">
<polygon fill="white" stroke="#666666" points="315.5,-38.5 191.5,-38.5 191.5,-5 315.5,-5 315.5,-38.5"/>
<text xml:space="preserve" text-anchor="start" x="199.5" y="-25" font-family="Helvetica,sans-Serif" font-size="10.00">kest_scope_entry_add</text>
<text xml:space="preserve" text-anchor="middle" x="253.5" y="-12.25" font-family="Helvetica,sans-Serif" font-size="10.00">_dependent</text>
</a>
</g>
</g>
<!-- Node2&#45;&gt;Node32 -->
<g id="edge4_Node000002_Node000032" class="edge">
<title>Node2&#45;&gt;Node32</title>
<g id="a_edge4_Node000002_Node000032"><a xlink:title=" ">
<path fill="none" stroke="#63b8ff" d="M339.92,-35.64C331.88,-34.33 323.78,-33.02 315.92,-31.74"/>
<polygon fill="#63b8ff" stroke="#63b8ff" points="339.26,-39.08 349.69,-37.23 340.39,-32.17 339.26,-39.08"/>
</a>
</g>
</g>
<!-- Node4 -->
<g id="Node000004" class="node">
<title>Node4</title>
<g id="a_Node000004"><a xlink:href="kest__effect_8c.html#a85b25e44e2629962673634f965ffe304" target="_top" xlink:title=" ">
<polygon fill="#fff0f0" stroke="red" points="155.5,-90.12 0,-90.12 0,-69.38 155.5,-69.38 155.5,-90.12"/>
<text xml:space="preserve" text-anchor="middle" x="77.75" y="-76.62" font-family="Helvetica,sans-Serif" font-size="10.00">init_effect_from_effect_desc</text>
</a>
</g>
</g>
<!-- Node3&#45;&gt;Node4 -->
<g id="edge3_Node000003_Node000004" class="edge">
<title>Node3&#45;&gt;Node4</title>
<g id="a_edge3_Node000003_Node000004"><a xlink:title=" ">
<path fill="none" stroke="#63b8ff" d="M180.73,-77.99C172.49,-78.13 164.06,-78.28 155.76,-78.42"/>
<polygon fill="#63b8ff" stroke="#63b8ff" points="180.77,-81.49 190.7,-77.82 180.65,-74.49 180.77,-81.49"/>
</a>
</g>
</g>
<!-- Node33 -->
<g id="Node000033" class="node">
<title>Node33</title>
<g id="a_Node000033"><a xlink:href="kest__expr__scope_8c.html#ac44f26a1dd7c685a7a3d5423a6c1ff54" target="_top" xlink:title=" ">
<polygon fill="#fff0f0" stroke="red" points="154,-33.5 1.5,-33.5 1.5,0 154,0 154,-33.5"/>
<text xml:space="preserve" text-anchor="start" x="9.5" y="-20" font-family="Helvetica,sans-Serif" font-size="10.00">kest_scope_transitivize</text>
<text xml:space="preserve" text-anchor="middle" x="77.75" y="-7.25" font-family="Helvetica,sans-Serif" font-size="10.00">_updatable_dependents_rec</text>
</a>
</g>
</g>
<!-- Node32&#45;&gt;Node33 -->
<g id="edge5_Node000032_Node000033" class="edge">
<title>Node32&#45;&gt;Node33</title>
<g id="a_edge5_Node000032_Node000033"><a xlink:title=" ">
<path fill="none" stroke="#63b8ff" d="M179.89,-19.66C171.46,-19.42 162.85,-19.17 154.38,-18.93"/>
<polygon fill="#63b8ff" stroke="#63b8ff" points="179.63,-23.15 189.73,-19.94 179.83,-16.16 179.63,-23.15"/>
</a>
</g>
</g>
<!-- Node33&#45;&gt;Node33 -->
<g id="edge6_Node000033_Node000033" class="edge">
<title>Node33&#45;&gt;Node33</title>
<g id="a_edge6_Node000033_Node000033"><a xlink:title=" ">
<path fill="none" stroke="#63b8ff" d="M107.26,-44.89C102.45,-48.85 92.62,-51.5 77.75,-51.5 51.32,-51.5 40.79,-43.12 46.16,-33.91"/>
<polygon fill="#63b8ff" stroke="#63b8ff" points="110.63,-45.88 109.06,-35.4 103.76,-44.57 110.63,-45.88"/>
</a>
</g>
</g>
</g>
</svg>

<g id="navigator" transform="translate(0 0)" fill="#404254">
  <rect fill="#f2f5e9" fill-opacity="0.5" stroke="#606060" stroke-width=".5" x="0" y="0" width="60" height="60"/>
  <use id="zoomplus" xlink:href="#zoomPlus" x="17" y="9" onmousedown="handleZoom(evt,'in')"/>
  <use id="zoomminus" xlink:href="#zoomMin" x="42" y="9" onmousedown="handleZoom(evt,'out')"/>
  <use id="reset" xlink:href="#resetDef" x="30" y="36" onmousedown="handleReset()"/>
   <use id="arrowup" xlink:href="#arrowUp" x="0" y="0" onmousedown="handlePan(0,-1)"/>
  <use id="arrowright" xlink:href="#arrowRight" x="0" y="0" onmousedown="handlePan(1,0)"/>
  <use id="arrowdown" xlink:href="#arrowDown" x="0" y="0" onmousedown="handlePan(0,1)"/>
  <use id="arrowleft" xlink:href="#arrowLeft" x="0" y="0" onmousedown="handlePan(-1,0)"/>
</g>
<svg viewBox="0 0 15 15" width="100%" height="30px" preserveAspectRatio="xMaxYMin meet">
 <g id="arrow_out" transform="scale(0.3 0.3)">
  <a xlink:href="kest__dependent_8h_ab42304510a84327717a70032aa0fd027_icgraph_org.svg" target="_base">
   <rect id="button" ry="5" rx="5" y="6" x="6" height="38" width="38"
        fill="#f2f5e9" fill-opacity="0.5" stroke="#606060" stroke-width="1.0"/>
   <path id="arrow"
     d="M 11.500037,31.436501 C 11.940474,20.09759 22.043105,11.32322 32.158766,21.979434 L 37.068811,17.246167 C 37.068811,17.246167 37.088388,32 37.088388,32 L 22.160133,31.978069 C 22.160133,31.978069 26.997745,27.140456 26.997745,27.140456 C 18.528582,18.264221 13.291696,25.230495 11.500037,31.436501 z"
     style="fill:#404040;"/>
  </a>
 </g>
</svg>

<style type='text/css'>
<![CDATA[
[data-mouse-over-selected='false'] { opacity: 0.7; }
[data-mouse-over-selected='true']  { opacity: 1.0; }
]]>
</style>
<script type="application/ecmascript"><![CDATA[
document.addEventListener('DOMContentLoaded', (event) => {
  highlightEdges();
  highlightAdjacentNodes();
});
]]></script>
</svg>
