<?xml version="1.0" encoding="UTF-8" standalone="no"?>
<!DOCTYPE svg PUBLIC "-//W3C//DTD SVG 1.1//EN"
 "http://www.w3.org/Graphics/SVG/1.1/DTD/svg11.dtd">
<!-- Generated by graphviz version 13.1.2 (20250808.2320)
 -->
<!-- Title: kest_parser_error Pages: 1 -->
<svg width="536pt" height="105pt"
 viewBox="0.00 0.00 536.00 105.00" xmlns="http://www.w3.org/2000/svg" xmlns:xlink="http://www.w3.org/1999/xlink">
<g id="graph0" class="graph" transform="scale(1 1) rotate(0) translate(4 100.75)">
<title>kest_parser_error</title>
<!-- Node1 -->
<g id="Node000001" class="node">
<title>Node1</title>
<g id="a_Node000001"><a xlink:title=" ">
<polygon fill="#999999" stroke="#666666" points="528.25,-58.75 427.5,-58.75 427.5,-38 528.25,-38 528.25,-58.75"/>
<text xml:space="preserve" text-anchor="middle" x="477.88" y="-45.25" font-family="Helvetica,sans-Serif" font-size="10.00">kest_parser_error</text>
</a>
</g>
</g>
<!-- Node2 -->
<g id="Node000002" class="node">
<title>Node2</title>
<g id="a_Node000002"><a xlink:href="kest__eff__parser_8c.html#a73ef6962d1925857ec3e4b12d1aad834" target="_top" xlink:title=" ">
<polygon fill="white" stroke="#666666" points="377.62,-96.75 271.62,-96.75 271.62,-76 377.62,-76 377.62,-96.75"/>
<text xml:space="preserve" text-anchor="middle" x="324.62" y="-83.25" font-family="Helvetica,sans-Serif" font-size="10.00">kest_parse_tokens</text>
</a>
</g>
</g>
<!-- Node1&#45;&gt;Node2 -->
<g id="edge1_Node000001_Node000002" class="edge">
<title>Node1&#45;&gt;Node2</title>
<g id="a_edge1_Node000001_Node000002"><a xlink:title=" ">
<path fill="none" stroke="#63b8ff" d="M422.84,-61.95C405.05,-66.42 385.53,-71.33 368.67,-75.56"/>
<polygon fill="#63b8ff" stroke="#63b8ff" points="423.62,-65.36 432.47,-59.53 421.92,-58.57 423.62,-65.36"/>
</a>
</g>
</g>
<!-- Node3 -->
<g id="Node000003" class="node">
<title>Node3</title>
<g id="a_Node000003"><a xlink:href="kest__eff__parser_8c.html#ae4618958c44389928c260fdb0e170761" target="_top" xlink:title=" ">
<polygon fill="white" stroke="#666666" points="221.75,-65.12 112,-65.12 112,-31.62 221.75,-31.62 221.75,-65.12"/>
<text xml:space="preserve" text-anchor="start" x="120" y="-51.62" font-family="Helvetica,sans-Serif" font-size="10.00">kest_read_eff_desc</text>
<text xml:space="preserve" text-anchor="middle" x="166.88" y="-38.88" font-family="Helvetica,sans-Serif" font-size="10.00">_from_file</text>
</a>
</g>
</g>
<!-- Node1&#45;&gt;Node3 -->
<g id="edge6_Node000001_Node000003" class="edge">
<title>Node1&#45;&gt;Node3</title>
<g id="a_edge6_Node000001_Node000003"><a xlink:title=" ">
<path fill="none" stroke="#63b8ff" d="M415.96,-48.38C359.5,-48.38 276.28,-48.38 222.08,-48.38"/>
<polygon fill="#63b8ff" stroke="#63b8ff" points="415.72,-51.88 425.72,-48.38 415.72,-44.88 415.72,-51.88"/>
</a>
</g>
</g>
<!-- Node14 -->
<g id="Node000014" class="node">
<title>Node14</title>
<g id="a_Node000014"><a xlink:href="kest__asm__parser_8c.html#ae59ff30494de598aa24df2c421eff7f7" target="_top" xlink:title=" ">
<polygon fill="white" stroke="#666666" points="391.5,-20.75 257.75,-20.75 257.75,0 391.5,0 391.5,-20.75"/>
<text xml:space="preserve" text-anchor="middle" x="324.62" y="-7.25" font-family="Helvetica,sans-Serif" font-size="10.00">kest_process_asm_lines</text>
</a>
</g>
</g>
<!-- Node1&#45;&gt;Node14 -->
<g id="edge4_Node000001_Node000014" class="edge">
<title>Node1&#45;&gt;Node14</title>
<g id="a_edge4_Node000001_Node000014"><a xlink:title=" ">
<path fill="none" stroke="#63b8ff" d="M422.84,-34.8C405.05,-30.33 385.53,-25.42 368.67,-21.19"/>
<polygon fill="#63b8ff" stroke="#63b8ff" points="421.92,-38.18 432.47,-37.22 423.62,-31.39 421.92,-38.18"/>
</a>
</g>
</g>
<!-- Node2&#45;&gt;Node3 -->
<g id="edge2_Node000002_Node000003" class="edge">
<title>Node2&#45;&gt;Node3</title>
<g id="a_edge2_Node000002_Node000003"><a xlink:title=" ">
<path fill="none" stroke="#63b8ff" d="M268.24,-72.86C253.27,-69.21 237.09,-65.26 222.18,-61.62"/>
<polygon fill="#63b8ff" stroke="#63b8ff" points="267.39,-76.26 277.94,-75.23 269.05,-69.46 267.39,-76.26"/>
</a>
</g>
</g>
<!-- Node4 -->
<g id="Node000004" class="node">
<title>Node4</title>
<g id="a_Node000004"><a xlink:href="kest__files_8c.html#abd963628acfd524509956fff3c5f498c" target="_top" xlink:title=" ">
<polygon fill="#fff0f0" stroke="red" points="76,-58.75 0,-58.75 0,-38 76,-38 76,-58.75"/>
<text xml:space="preserve" text-anchor="middle" x="38" y="-45.25" font-family="Helvetica,sans-Serif" font-size="10.00">load_effects</text>
</a>
</g>
</g>
<!-- Node3&#45;&gt;Node4 -->
<g id="edge3_Node000003_Node000004" class="edge">
<title>Node3&#45;&gt;Node4</title>
<g id="a_edge3_Node000003_Node000004"><a xlink:title=" ">
<path fill="none" stroke="#63b8ff" d="M100.38,-48.38C92.07,-48.38 83.79,-48.38 76.14,-48.38"/>
<polygon fill="#63b8ff" stroke="#63b8ff" points="100.19,-51.88 110.19,-48.38 100.19,-44.88 100.19,-51.88"/>
</a>
</g>
</g>
<!-- Node14&#45;&gt;Node3 -->
<g id="edge5_Node000014_Node000003" class="edge">
<title>Node14&#45;&gt;Node3</title>
<g id="a_edge5_Node000014_Node000003"><a xlink:title=" ">
<path fill="none" stroke="#63b8ff" d="M268.24,-23.89C253.27,-27.54 237.09,-31.49 222.18,-35.13"/>
<polygon fill="#63b8ff" stroke="#63b8ff" points="269.05,-27.29 277.94,-21.52 267.39,-20.49 269.05,-27.29"/>
</a>
</g>
</g>
</g>
</svg>
