<?xml version="1.0" encoding="UTF-8" standalone="no"?>
<!DOCTYPE svg PUBLIC "-//W3C//DTD SVG 1.1//EN"
 "http://www.w3.org/Graphics/SVG/1.1/DTD/svg11.dtd">
<!-- Generated by graphviz version 13.1.2 (20250808.2320)
 -->
<!-- Title: kest_updater_generate_tx_batch Pages: 1 -->
<svg width="884pt" height="286pt"
 viewBox="0.00 0.00 884.00 286.00" xmlns="http://www.w3.org/2000/svg" xmlns:xlink="http://www.w3.org/1999/xlink">
<g id="graph0" class="graph" transform="scale(1 1) rotate(0) translate(4 281.5)">
<title>kest_updater_generate_tx_batch</title>
<!-- Node1 -->
<g id="Node000001" class="node">
<title>Node1</title>
<g id="a_Node000001"><a xlink:title=" ">
<polygon fill="#999999" stroke="#666666" points="127.75,-177.88 0,-177.88 0,-144.38 127.75,-144.38 127.75,-177.88"/>
<text xml:space="preserve" text-anchor="start" x="8" y="-164.38" font-family="Helvetica,sans-Serif" font-size="10.00">kest_updater_generate</text>
<text xml:space="preserve" text-anchor="middle" x="63.88" y="-151.63" font-family="Helvetica,sans-Serif" font-size="10.00">_tx_batch</text>
</a>
</g>
</g>
<!-- Node2 -->
<g id="Node000002" class="node">
<title>Node2</title>
<g id="a_Node000002"><a xlink:href="kest__fpga__io_8c.html#a4f621e3f92dd7cb3e44bddd26d557f06" target="_top" xlink:title=" ">
<polygon fill="white" stroke="#666666" points="295.25,-194.5 169.75,-194.5 169.75,-173.75 295.25,-173.75 295.25,-194.5"/>
<text xml:space="preserve" text-anchor="middle" x="232.5" y="-181" font-family="Helvetica,sans-Serif" font-size="10.00">kest_fpga_batch_drain</text>
</a>
</g>
</g>
<!-- Node1&#45;&gt;Node2 -->
<g id="edge1_Node000001_Node000002" class="edge">
<title>Node1&#45;&gt;Node2</title>
<g id="a_edge1_Node000001_Node000002"><a xlink:title=" ">
<path fill="none" stroke="#63b8ff" d="M127.87,-169.83C137.78,-171.19 148.1,-172.62 158.22,-174.01"/>
<polygon fill="#63b8ff" stroke="#63b8ff" points="157.64,-177.47 168.02,-175.37 158.59,-170.53 157.64,-177.47"/>
</a>
</g>
</g>
<!-- Node3 -->
<g id="Node000003" class="node">
<title>Node3</title>
<g id="a_Node000003"><a xlink:href="kest__fpga__cmd_8c.html#a263cc37db306d9929feeffdb0b76396d" target="_top" xlink:title=" ">
<polygon fill="white" stroke="#666666" points="301.25,-155.88 163.75,-155.88 163.75,-122.38 301.25,-122.38 301.25,-155.88"/>
<text xml:space="preserve" text-anchor="start" x="171.75" y="-142.38" font-family="Helvetica,sans-Serif" font-size="10.00">kest_fpga_command_list</text>
<text xml:space="preserve" text-anchor="middle" x="232.5" y="-129.63" font-family="Helvetica,sans-Serif" font-size="10.00">_append_encoded</text>
</a>
</g>
</g>
<!-- Node1&#45;&gt;Node3 -->
<g id="edge2_Node000001_Node000003" class="edge">
<title>Node1&#45;&gt;Node3</title>
<g id="a_edge2_Node000001_Node000003"><a xlink:title=" ">
<path fill="none" stroke="#63b8ff" d="M127.87,-152.81C135.76,-151.77 143.91,-150.69 152.02,-149.62"/>
<polygon fill="#63b8ff" stroke="#63b8ff" points="152.45,-153.1 161.91,-148.32 151.54,-146.16 152.45,-153.1"/>
</a>
</g>
</g>
<!-- Node4 -->
<g id="Node000004" class="node">
<title>Node4</title>
<g id="a_Node000004"><a xlink:href="kest__fpga__cmd_8c.html#a31d78d4d199f0ae142fc70e32d0f5f16" target="_top" xlink:title=" ">
<polygon fill="white" stroke="#666666" points="495.75,-155.88 337.25,-155.88 337.25,-122.38 495.75,-122.38 495.75,-155.88"/>
<text xml:space="preserve" text-anchor="start" x="345.25" y="-142.38" font-family="Helvetica,sans-Serif" font-size="10.00">kest_fpga_command_append</text>
<text xml:space="preserve" text-anchor="middle" x="416.5" y="-129.63" font-family="Helvetica,sans-Serif" font-size="10.00">_encoded</text>
</a>
</g>
</g>
<!-- Node3&#45;&gt;Node4 -->
<g id="edge3_Node000003_Node000004" class="edge">
<title>Node3&#45;&gt;Node4</title>
<g id="a_edge3_Node000003_Node000004"><a xlink:title=" ">
<path fill="none" stroke="#63b8ff" d="M301.53,-139.13C309.35,-139.13 317.42,-139.13 325.47,-139.13"/>
<polygon fill="#63b8ff" stroke="#63b8ff" points="325.32,-142.63 335.32,-139.13 325.32,-135.63 325.32,-142.63"/>
</a>
</g>
</g>
<!-- Node5 -->
<g id="Node000005" class="node">
<title>Node5</title>
<g id="a_Node000005"><a xlink:href="kest__fpga__io_8c.html#a6900c9b759f1dccf1b3535cc76ad83e3" target="_top" xlink:title=" ">
<polygon fill="#fff0f0" stroke="red" points="677.12,-277.5 540.38,-277.5 540.38,-256.75 677.12,-256.75 677.12,-277.5"/>
<text xml:space="preserve" text-anchor="middle" x="608.75" y="-264" font-family="Helvetica,sans-Serif" font-size="10.00">kest_fpga_batch_append</text>
</a>
</g>
</g>
<!-- Node4&#45;&gt;Node5 -->
<g id="edge4_Node000004_Node000005" class="edge">
<title>Node4&#45;&gt;Node5</title>
<g id="a_edge4_Node000004_Node000005"><a xlink:title=" ">
<path fill="none" stroke="#63b8ff" d="M430.62,-156.36C450.04,-180.6 488.77,-224.46 531.75,-248.13 534.4,-249.59 537.15,-250.93 539.98,-252.18"/>
<polygon fill="#63b8ff" stroke="#63b8ff" points="538.49,-255.35 549.08,-255.71 541.02,-248.83 538.49,-255.35"/>
</a>
</g>
</g>
<!-- Node9 -->
<g id="Node000009" class="node">
<title>Node9</title>
<g id="a_Node000009"><a xlink:href="kest__fpga__io_8c.html#a1d6d30e20ceac79973b36fd12e790aa5" target="_top" xlink:title=" ">
<polygon fill="#fff0f0" stroke="red" points="875.75,-187.5 721.75,-187.5 721.75,-166.75 875.75,-166.75 875.75,-187.5"/>
<text xml:space="preserve" text-anchor="middle" x="798.75" y="-174" font-family="Helvetica,sans-Serif" font-size="10.00">kest_fpga_batch_append_16</text>
</a>
</g>
</g>
<!-- Node4&#45;&gt;Node9 -->
<g id="edge5_Node000004_Node000009" class="edge">
<title>Node4&#45;&gt;Node9</title>
<g id="a_edge5_Node000004_Node000009"><a xlink:title=" ">
<path fill="none" stroke="#63b8ff" d="M496.03,-153.18C507.97,-155.03 520.17,-156.76 531.75,-158.13 591.07,-165.17 658.17,-169.94 710.14,-172.94"/>
<polygon fill="#63b8ff" stroke="#63b8ff" points="709.63,-176.41 719.81,-173.48 710.02,-169.42 709.63,-176.41"/>
</a>
</g>
</g>
<!-- Node11 -->
<g id="Node000011" class="node">
<title>Node11</title>
<g id="a_Node000011"><a xlink:href="kest__fpga__io_8c.html#aa00adf9f96658a5c00b3d93dfa8c00de" target="_top" xlink:title=" ">
<polygon fill="#fff0f0" stroke="red" points="875.75,-52.5 721.75,-52.5 721.75,-31.75 875.75,-31.75 875.75,-52.5"/>
<text xml:space="preserve" text-anchor="middle" x="798.75" y="-39" font-family="Helvetica,sans-Serif" font-size="10.00">kest_fpga_batch_append_24</text>
</a>
</g>
</g>
<!-- Node4&#45;&gt;Node11 -->
<g id="edge6_Node000004_Node000011" class="edge">
<title>Node4&#45;&gt;Node11</title>
<g id="a_edge6_Node000004_Node000011"><a xlink:title=" ">
<path fill="none" stroke="#63b8ff" d="M427.04,-121.89C443.86,-93.5 481.79,-37.91 531.75,-16.13 607.99,17.11 707.88,-8.95 760.92,-27.56"/>
<polygon fill="#63b8ff" stroke="#63b8ff" points="759.48,-30.76 770.08,-30.88 761.87,-24.18 759.48,-30.76"/>
</a>
</g>
</g>
<!-- Node12 -->
<g id="Node000012" class="node">
<title>Node12</title>
<g id="a_Node000012"><a xlink:href="kest__fpga__io_8c.html#ac7679b9a1a77f12aa23affb51346e3d4" target="_top" xlink:title=" ">
<polygon fill="#fff0f0" stroke="red" points="685.75,-149.5 531.75,-149.5 531.75,-128.75 685.75,-128.75 685.75,-149.5"/>
<text xml:space="preserve" text-anchor="middle" x="608.75" y="-136" font-family="Helvetica,sans-Serif" font-size="10.00">kest_fpga_batch_append_32</text>
</a>
</g>
</g>
<!-- Node4&#45;&gt;Node12 -->
<g id="edge7_Node000004_Node000012" class="edge">
<title>Node4&#45;&gt;Node12</title>
<g id="a_edge7_Node000004_Node000012"><a xlink:title=" ">
<path fill="none" stroke="#63b8ff" d="M495.98,-139.13C503.91,-139.13 512,-139.13 520.02,-139.13"/>
<polygon fill="#63b8ff" stroke="#63b8ff" points="519.78,-142.63 529.78,-139.13 519.78,-135.63 519.78,-142.63"/>
</a>
</g>
</g>
<!-- Node13 -->
<g id="Node000013" class="node">
<title>Node13</title>
<g id="a_Node000013"><a xlink:href="kest__fpga__encoding_8c.html#a9b93bb2d500d5c9986515930a0f9ce47" target="_top" xlink:title=" ">
<polygon fill="white" stroke="#666666" points="677.12,-238.88 540.38,-238.88 540.38,-205.38 677.12,-205.38 677.12,-238.88"/>
<text xml:space="preserve" text-anchor="start" x="548.38" y="-225.38" font-family="Helvetica,sans-Serif" font-size="10.00">kest_fpga_batch_append</text>
<text xml:space="preserve" text-anchor="middle" x="608.75" y="-212.63" font-family="Helvetica,sans-Serif" font-size="10.00">_block_number</text>
</a>
</g>
</g>
<!-- Node4&#45;&gt;Node13 -->
<g id="edge8_Node000004_Node000013" class="edge">
<title>Node4&#45;&gt;Node13</title>
<g id="a_edge8_Node000004_Node000013"><a xlink:title=" ">
<path fill="none" stroke="#63b8ff" d="M454.38,-156.37C476.68,-166.68 505.74,-179.91 531.75,-191.13 538.95,-194.24 546.57,-197.44 554.1,-200.56"/>
<polygon fill="#63b8ff" stroke="#63b8ff" points="552.64,-203.74 563.22,-204.31 555.3,-197.27 552.64,-203.74"/>
</a>
</g>
</g>
<!-- Node14 -->
<g id="Node000014" class="node">
<title>Node14</title>
<g id="a_Node000014"><a xlink:href="kest__fpga__io_8c.html#abd045732fd87b6a5a21bb9f6a529fc97" target="_top" xlink:title=" ">
<polygon fill="#fff0f0" stroke="red" points="677.12,-110.88 540.38,-110.88 540.38,-77.38 677.12,-77.38 677.12,-110.88"/>
<text xml:space="preserve" text-anchor="start" x="548.38" y="-97.38" font-family="Helvetica,sans-Serif" font-size="10.00">kest_fpga_batch_append</text>
<text xml:space="preserve" text-anchor="middle" x="608.75" y="-84.63" font-family="Helvetica,sans-Serif" font-size="10.00">_float</text>
</a>
</g>
</g>
<!-- Node4&#45;&gt;Node14 -->
<g id="edge10_Node000004_Node000014" class="edge">
<title>Node4&#45;&gt;Node14</title>
<g id="a_edge10_Node000004_Node000014"><a xlink:title=" ">
<path fill="none" stroke="#63b8ff" d="M490.24,-121.92C502.9,-118.93 516.11,-115.8 528.92,-112.77"/>
<polygon fill="#63b8ff" stroke="#63b8ff" points="529.65,-116.2 538.58,-110.49 528.04,-109.39 529.65,-116.2"/>
</a>
</g>
</g>
<!-- Node16 -->
<g id="Node000016" class="node">
<title>Node16</title>
<g id="a_Node000016"><a xlink:href="kest__fpga__io_8c.html#a6159e987931bc8bd9f33ed3c6faf9e69" target="_top" xlink:title=" ">
<polygon fill="#fff0f0" stroke="red" points="677.12,-58.88 540.38,-58.88 540.38,-25.38 677.12,-25.38 677.12,-58.88"/>
<text xml:space="preserve" text-anchor="start" x="548.38" y="-45.38" font-family="Helvetica,sans-Serif" font-size="10.00">kest_fpga_batch_append</text>
<text xml:space="preserve" text-anchor="middle" x="608.75" y="-32.63" font-family="Helvetica,sans-Serif" font-size="10.00">_float_filter_width</text>
</a>
</g>
</g>
<!-- Node4&#45;&gt;Node16 -->
<g id="edge13_Node000004_Node000016" class="edge">
<title>Node4&#45;&gt;Node16</title>
<g id="a_edge13_Node000004_Node000016"><a xlink:title=" ">
<path fill="none" stroke="#63b8ff" d="M441.55,-121.94C464.06,-106.4 499.04,-83.64 531.75,-68.13 535.09,-66.55 538.55,-65.01 542.08,-63.53"/>
<polygon fill="#63b8ff" stroke="#63b8ff" points="543.37,-66.79 551.37,-59.83 540.78,-60.28 543.37,-66.79"/>
</a>
</g>
</g>
<!-- Node13&#45;&gt;Node9 -->
<g id="edge9_Node000013_Node000009" class="edge">
<title>Node13&#45;&gt;Node9</title>
<g id="a_edge9_Node000013_Node000009"><a xlink:title=" ">
<path fill="none" stroke="#63b8ff" d="M677.62,-205.88C698.56,-200.87 721.37,-195.41 741.44,-190.61"/>
<polygon fill="#63b8ff" stroke="#63b8ff" points="742.2,-194.02 751.11,-188.29 740.57,-187.22 742.2,-194.02"/>
</a>
</g>
</g>
<!-- Node14&#45;&gt;Node9 -->
<g id="edge11_Node000014_Node000009" class="edge">
<title>Node14&#45;&gt;Node9</title>
<g id="a_edge11_Node000014_Node000009"><a xlink:title=" ">
<path fill="none" stroke="#63b8ff" d="M663.26,-111.37C670.88,-114.13 678.56,-117.09 685.75,-120.13 714.72,-132.38 746.58,-148.91 768.89,-161.02"/>
<polygon fill="#63b8ff" stroke="#63b8ff" points="766.94,-163.94 777.39,-165.67 770.3,-157.8 766.94,-163.94"/>
</a>
</g>
</g>
<!-- Node14&#45;&gt;Node11 -->
<g id="edge12_Node000014_Node000011" class="edge">
<title>Node14&#45;&gt;Node11</title>
<g id="a_edge12_Node000014_Node000011"><a xlink:title=" ">
<path fill="none" stroke="#63b8ff" d="M672.09,-76.89C696.62,-70.1 724.4,-62.42 747.59,-56"/>
<polygon fill="#63b8ff" stroke="#63b8ff" points="748.41,-59.41 757.11,-53.37 746.54,-52.66 748.41,-59.41"/>
</a>
</g>
</g>
<!-- Node16&#45;&gt;Node11 -->
<g id="edge14_Node000016_Node000011" class="edge">
<title>Node16&#45;&gt;Node11</title>
<g id="a_edge14_Node000016_Node000011"><a xlink:title=" ">
<path fill="none" stroke="#63b8ff" d="M677.62,-42.13C688.16,-42.13 699.17,-42.13 710.07,-42.13"/>
<polygon fill="#63b8ff" stroke="#63b8ff" points="709.85,-45.63 719.85,-42.13 709.85,-38.63 709.85,-45.63"/>
</a>
</g>
</g>
</g>
</svg>
