<?xml version="1.0" encoding="UTF-8" standalone="no"?>
<!DOCTYPE svg PUBLIC "-//W3C//DTD SVG 1.1//EN"
 "http://www.w3.org/Graphics/SVG/1.1/DTD/svg11.dtd">
<!-- Generated by graphviz version 13.1.2 (20250808.2320)
 -->
<!-- Title: kest_effect_disable Pages: 1 -->
<svg width="574pt" height="80pt"
 viewBox="0.00 0.00 574.00 80.00" xmlns="http://www.w3.org/2000/svg" xmlns:xlink="http://www.w3.org/1999/xlink">
<g id="graph0" class="graph" transform="scale(1 1) rotate(0) translate(4 76.12)">
<title>kest_effect_disable</title>
<!-- Node1 -->
<g id="Node000001" class="node">
<title>Node1</title>
<g id="a_Node000001"><a xlink:title=" ">
<polygon fill="#999999" stroke="#666666" points="565.75,-49.12 455.25,-49.12 455.25,-28.38 565.75,-28.38 565.75,-49.12"/>
<text xml:space="preserve" text-anchor="middle" x="510.5" y="-35.62" font-family="Helvetica,sans-Serif" font-size="10.00">kest_effect_disable</text>
</a>
</g>
</g>
<!-- Node2 -->
<g id="Node000002" class="node">
<title>Node2</title>
<g id="a_Node000002"><a xlink:href="kest__pipeline_8c.html#a73cdb3a338dc34668b63859d87ba81b9" target="_top" xlink:title=" ">
<polygon fill="white" stroke="#666666" points="419.25,-55.5 296,-55.5 296,-22 419.25,-22 419.25,-55.5"/>
<text xml:space="preserve" text-anchor="start" x="304" y="-42" font-family="Helvetica,sans-Serif" font-size="10.00">kest_pipeline_remove</text>
<text xml:space="preserve" text-anchor="middle" x="357.62" y="-29.25" font-family="Helvetica,sans-Serif" font-size="10.00">_effect</text>
</a>
</g>
</g>
<!-- Node1&#45;&gt;Node2 -->
<g id="edge1_Node000001_Node000002" class="edge">
<title>Node1&#45;&gt;Node2</title>
<g id="a_edge1_Node000001_Node000002"><a xlink:title=" ">
<path fill="none" stroke="#63b8ff" d="M443.55,-38.75C435.61,-38.75 427.53,-38.75 419.67,-38.75"/>
<polygon fill="#63b8ff" stroke="#63b8ff" points="443.52,-42.25 453.52,-38.75 443.52,-35.25 443.52,-42.25"/>
</a>
</g>
</g>
<!-- Node3 -->
<g id="Node000003" class="node">
<title>Node3</title>
<g id="a_Node000003"><a xlink:href="kest__preset_8c.html#a89148926bbc9e9114ca4b187a3fc8336" target="_top" xlink:title=" ">
<polygon fill="white" stroke="#666666" points="260,-55.5 145,-55.5 145,-22 260,-22 260,-55.5"/>
<text xml:space="preserve" text-anchor="start" x="153" y="-42" font-family="Helvetica,sans-Serif" font-size="10.00">kest_preset_remove</text>
<text xml:space="preserve" text-anchor="middle" x="202.5" y="-29.25" font-family="Helvetica,sans-Serif" font-size="10.00">_effect</text>
</a>
</g>
</g>
<!-- Node2&#45;&gt;Node3 -->
<g id="edge2_Node000002_Node000003" class="edge">
<title>Node2&#45;&gt;Node3</title>
<g id="a_edge2_Node000002_Node000003"><a xlink:title=" ">
<path fill="none" stroke="#63b8ff" d="M284.33,-38.75C276.25,-38.75 268.11,-38.75 260.27,-38.75"/>
<polygon fill="#63b8ff" stroke="#63b8ff" points="284.15,-42.25 294.15,-38.75 284.15,-35.25 284.15,-42.25"/>
</a>
</g>
</g>
<!-- Node4 -->
<g id="Node000004" class="node">
<title>Node4</title>
<g id="a_Node000004"><a xlink:href="kest__context_8c.html#a3dabfbe87edbacbacf5badc8db3fd629" target="_top" xlink:title=" ">
<polygon fill="white" stroke="#666666" points="108.25,-72.12 0.75,-72.12 0.75,-51.38 108.25,-51.38 108.25,-72.12"/>
<text xml:space="preserve" text-anchor="middle" x="54.5" y="-58.62" font-family="Helvetica,sans-Serif" font-size="10.00">cxt_remove_effect</text>
</a>
</g>
</g>
<!-- Node3&#45;&gt;Node4 -->
<g id="edge3_Node000003_Node000004" class="edge">
<title>Node3&#45;&gt;Node4</title>
<g id="a_edge3_Node000003_Node000004"><a xlink:title=" ">
<path fill="none" stroke="#63b8ff" d="M133.39,-49.48C125.08,-50.79 116.68,-52.11 108.63,-53.38"/>
<polygon fill="#63b8ff" stroke="#63b8ff" points="133.81,-52.96 143.14,-47.94 132.72,-46.04 133.81,-52.96"/>
</a>
</g>
</g>
<!-- Node5 -->
<g id="Node000005" class="node">
<title>Node5</title>
<g id="a_Node000005"><a xlink:href="kest__preset__view_8c.html#ae342f0eada18cee3f3c03ae3252a2950" target="_top" xlink:title=" ">
<polygon fill="#fff0f0" stroke="red" points="109,-33.5 0,-33.5 0,0 109,0 109,-33.5"/>
<text xml:space="preserve" text-anchor="start" x="8" y="-20" font-family="Helvetica,sans-Serif" font-size="10.00">preset_view_effect</text>
<text xml:space="preserve" text-anchor="middle" x="54.5" y="-7.25" font-family="Helvetica,sans-Serif" font-size="10.00">_delete_cb</text>
</a>
</g>
</g>
<!-- Node3&#45;&gt;Node5 -->
<g id="edge4_Node000003_Node000005" class="edge">
<title>Node3&#45;&gt;Node5</title>
<g id="a_edge4_Node000003_Node000005"><a xlink:title=" ">
<path fill="none" stroke="#63b8ff" d="M133.26,-28.47C125.16,-27.25 116.97,-26.01 109.1,-24.83"/>
<polygon fill="#63b8ff" stroke="#63b8ff" points="132.73,-31.93 143.14,-29.96 133.77,-25 132.73,-31.93"/>
</a>
</g>
</g>
</g>
</svg>
