<?xml version="1.0" encoding="UTF-8" standalone="no"?>
<!DOCTYPE svg PUBLIC "-//W3C//DTD SVG 1.1//EN"
 "http://www.w3.org/Graphics/SVG/1.1/DTD/svg11.dtd">
<!-- Generated by graphviz version 13.1.2 (20250808.2320)
 -->
<!-- Title: init_effect_of_type Pages: 1 -->
<!--zoomable 666 -->

<svg id="main" version="1.1" xmlns="http://www.w3.org/2000/svg" xmlns:xlink="http://www.w3.org/1999/xlink" xml:space="preserve" onload="init(evt)">

<style type="text/css"><![CDATA[
.node, .edge {opacity: 0.7;}
.node.selected, .edge.selected {opacity: 1;}
.edge:hover path { stroke: red; }
.edge:hover polygon { stroke: red; fill: red; }
]]></style>

<defs>
  <circle id="rim" cx="0" cy="0" r="7"/>
  <circle id="rim2" cx="0" cy="0" r="3.5"/>
  <g id="zoomPlus">
    <use xlink:href="#rim" fill="#404040"><set attributeName="fill" to="#808080" begin="zoomplus.mouseover" end="zoomplus.mouseout"/></use>
    <path d="M-4,0h8M0,-4v8" fill="none" stroke="white" stroke-width="1.5" pointer-events="none"/>
  </g>
  <g id="zoomMin">
    <use xlink:href="#rim" fill="#404040"><set attributeName="fill" to="#808080" begin="zoomminus.mouseover" end="zoomminus.mouseout"/></use>
    <path d="M-4,0h8" fill="none" stroke="white" stroke-width="1.5" pointer-events="none"/>
  </g>
  <g id="arrowUp" transform="translate(30 24)">
    <use xlink:href="#rim"/>
    <path pointer-events="none" fill="none" stroke="white" stroke-width="1.5" d="M0,-3.0v7 M-2.5,-0.5L0,-3.0L2.5,-0.5"/>
  </g>
  <g id="arrowRight" transform="rotate(90) translate(36 -43)">
    <use xlink:href="#rim"/>
    <path pointer-events="none" fill="none" stroke="white" stroke-width="1.5" d="M0,-3.0v7 M-2.5,-0.5L0,-3.0L2.5,-0.5"/>
  </g>
  <g id="arrowDown" transform="rotate(180) translate(-30 -48)">
    <use xlink:href="#rim"/>
    <path pointer-events="none" fill="none" stroke="white" stroke-width="1.5" d="M0,-3.0v7 M-2.5,-0.5L0,-3.0L2.5,-0.5"/>
  </g>
  <g id="arrowLeft" transform="rotate(270) translate(-36 17)">
    <use xlink:href="#rim"/>
    <path pointer-events="none" fill="none" stroke="white" stroke-width="1.5" d="M0,-3.0v7 M-2.5,-0.5L0,-3.0L2.5,-0.5"/>
  </g>
  <g id="resetDef">
    <use xlink:href="#rim2" fill="#404040"><set attributeName="fill" to="#808080" begin="reset.mouseover" end="reset.mouseout"/></use>
  </g>
</defs>
<script type="application/ecmascript">
var viewWidth = 812;
var viewHeight = 666;
var sectionId = 'dynsection-1';
</script>
<script type="application/ecmascript" xlink:href="svg.min.js"/>
<svg id="graph" class="graph">
<g id="viewport">
<title>init_effect_of_type</title>
<!-- Node1 -->
<g id="Node000001" class="node">
<title>Node1</title>
<g id="a_Node000001"><a xlink:title=" ">
<polygon fill="#999999" stroke="#666666" points="107.5,-365.12 0,-365.12 0,-344.38 107.5,-344.38 107.5,-365.12"/>
<text xml:space="preserve" text-anchor="middle" x="53.75" y="-351.62" font-family="Helvetica,sans-Serif" font-size="10.00">init_effect_of_type</text>
</a>
</g>
</g>
<!-- Node2 -->
<g id="Node000002" class="node">
<title>Node2</title>
<g id="a_Node000002"><a xlink:href="kest__effect__init_8c.html#a6ec7581722ba67d98a196d571d7dbdab" target="_top" xlink:title=" ">
<polygon fill="white" stroke="#666666" points="258.12,-502.12 168.62,-502.12 168.62,-481.38 258.12,-481.38 258.12,-502.12"/>
<text xml:space="preserve" text-anchor="middle" x="213.38" y="-488.62" font-family="Helvetica,sans-Serif" font-size="10.00">init_3_band_eq</text>
</a>
</g>
</g>
<!-- Node1&#45;&gt;Node2 -->
<g id="edge1_Node000001_Node000002" class="edge">
<title>Node1&#45;&gt;Node2</title>
<g id="a_edge1_Node000001_Node000002"><a xlink:title=" ">
<path fill="none" stroke="#63b8ff" d="M59.77,-365.29C71.25,-388.25 101.69,-443.01 143.5,-471.75 147.89,-474.77 152.73,-477.33 157.75,-479.51"/>
<polygon fill="#63b8ff" stroke="#63b8ff" points="156.22,-482.68 166.81,-482.94 158.7,-476.13 156.22,-482.68"/>
</a>
</g>
</g>
<!-- Node10 -->
<g id="Node000010" class="node">
<title>Node10</title>
<g id="a_Node000010"><a xlink:href="kest__effect__init_8c.html#a0fb53f43d75e37beaeaabe164a11fa3e" target="_top" xlink:title=" ">
<polygon fill="white" stroke="#666666" points="254,-190.12 172.75,-190.12 172.75,-169.38 254,-169.38 254,-190.12"/>
<text xml:space="preserve" text-anchor="middle" x="213.38" y="-176.62" font-family="Helvetica,sans-Serif" font-size="10.00">init_amplifier</text>
</a>
</g>
</g>
<!-- Node1&#45;&gt;Node10 -->
<g id="edge7_Node000001_Node000010" class="edge">
<title>Node1&#45;&gt;Node10</title>
<g id="a_edge7_Node000001_Node000010"><a xlink:title=" ">
<path fill="none" stroke="#63b8ff" d="M57.72,-344.25C66.16,-316.29 93.06,-239.44 143.5,-199.75 148.96,-195.45 155.31,-192.08 161.9,-189.43"/>
<polygon fill="#63b8ff" stroke="#63b8ff" points="162.62,-192.89 170.94,-186.33 160.34,-186.27 162.62,-192.89"/>
</a>
</g>
</g>
<!-- Node14 -->
<g id="Node000014" class="node">
<title>Node14</title>
<g id="a_Node000014"><a xlink:href="kest__effect__init_8c.html#a0dda870168bea415bf35738aebf642be" target="_top" xlink:title=" ">
<polygon fill="white" stroke="#666666" points="272,-463.12 154.75,-463.12 154.75,-442.38 272,-442.38 272,-463.12"/>
<text xml:space="preserve" text-anchor="middle" x="213.38" y="-449.62" font-family="Helvetica,sans-Serif" font-size="10.00">init_band_pass_filter</text>
</a>
</g>
</g>
<!-- Node1&#45;&gt;Node14 -->
<g id="edge15_Node000001_Node000014" class="edge">
<title>Node1&#45;&gt;Node14</title>
<g id="a_edge15_Node000001_Node000014"><a xlink:title=" ">
<path fill="none" stroke="#63b8ff" d="M64.01,-365.48C79.04,-382.24 110.41,-414.59 143.5,-432.75 146.93,-434.63 150.56,-436.36 154.29,-437.93"/>
<polygon fill="#63b8ff" stroke="#63b8ff" points="152.95,-441.17 163.54,-441.44 155.43,-434.62 152.95,-441.17"/>
</a>
</g>
</g>
<!-- Node15 -->
<g id="Node000015" class="node">
<title>Node15</title>
<g id="a_Node000015"><a xlink:href="kest__effect__init_8c.html#a395e253149e6d2b355ce9162aebf264a" target="_top" xlink:title=" ">
<polygon fill="white" stroke="#666666" points="260.38,-424.12 166.38,-424.12 166.38,-403.38 260.38,-403.38 260.38,-424.12"/>
<text xml:space="preserve" text-anchor="middle" x="213.38" y="-410.62" font-family="Helvetica,sans-Serif" font-size="10.00">init_compressor</text>
</a>
</g>
</g>
<!-- Node1&#45;&gt;Node15 -->
<g id="edge17_Node000001_Node000015" class="edge">
<title>Node1&#45;&gt;Node15</title>
<g id="a_edge17_Node000001_Node000015"><a xlink:title=" ">
<path fill="none" stroke="#63b8ff" d="M77.03,-365.52C94.79,-373.86 120.4,-385.36 143.5,-393.75 149.13,-395.8 155.08,-397.78 161.03,-399.65"/>
<polygon fill="#63b8ff" stroke="#63b8ff" points="159.63,-402.88 170.21,-402.45 161.67,-396.19 159.63,-402.88"/>
</a>
</g>
</g>
<!-- Node16 -->
<g id="Node000016" class="node">
<title>Node16</title>
<g id="a_Node000016"><a xlink:href="kest__effect__init_8c.html#a08cfcb6ac12153a5aab9bd650c9df920" target="_top" xlink:title=" ">
<polygon fill="white" stroke="#666666" points="245.38,-112.12 181.38,-112.12 181.38,-91.38 245.38,-91.38 245.38,-112.12"/>
<text xml:space="preserve" text-anchor="middle" x="213.38" y="-98.62" font-family="Helvetica,sans-Serif" font-size="10.00">init_delay</text>
</a>
</g>
</g>
<!-- Node1&#45;&gt;Node16 -->
<g id="edge19_Node000001_Node000016" class="edge">
<title>Node1&#45;&gt;Node16</title>
<g id="a_edge19_Node000001_Node000016"><a xlink:title=" ">
<path fill="none" stroke="#63b8ff" d="M55.54,-344.1C58.83,-307.43 74.75,-185.12 143.5,-121.75 150.8,-115.02 160.24,-110.54 169.78,-107.56"/>
<polygon fill="#63b8ff" stroke="#63b8ff" points="170.61,-110.96 179.43,-105.09 168.88,-104.18 170.61,-110.96"/>
</a>
</g>
</g>
<!-- Node17 -->
<g id="Node000017" class="node">
<title>Node17</title>
<g id="a_Node000017"><a xlink:href="kest__effect__init_8c.html#a3b0e0ed52e9cd3619e277c0fc5f4a2a3" target="_top" xlink:title=" ">
<polygon fill="white" stroke="#666666" points="262.25,-385.12 164.5,-385.12 164.5,-364.38 262.25,-364.38 262.25,-385.12"/>
<text xml:space="preserve" text-anchor="middle" x="213.38" y="-371.62" font-family="Helvetica,sans-Serif" font-size="10.00">init_dirty_octave</text>
</a>
</g>
</g>
<!-- Node1&#45;&gt;Node17 -->
<g id="edge23_Node000001_Node000017" class="edge">
<title>Node1&#45;&gt;Node17</title>
<g id="a_edge23_Node000001_Node000017"><a xlink:title=" ">
<path fill="none" stroke="#63b8ff" d="M107.68,-361.47C122.21,-363.31 138.08,-365.32 152.95,-367.21"/>
<polygon fill="#63b8ff" stroke="#63b8ff" points="152.24,-370.65 162.6,-368.43 153.12,-363.7 152.24,-370.65"/>
</a>
</g>
</g>
<!-- Node18 -->
<g id="Node000018" class="node">
<title>Node18</title>
<g id="a_Node000018"><a xlink:href="kest__effect__init_8c.html#a0f451be3cf3928f3611cdcc17c4f2623" target="_top" xlink:title=" ">
<polygon fill="white" stroke="#666666" points="255.12,-229.12 171.62,-229.12 171.62,-208.38 255.12,-208.38 255.12,-229.12"/>
<text xml:space="preserve" text-anchor="middle" x="213.38" y="-215.62" font-family="Helvetica,sans-Serif" font-size="10.00">init_distortion</text>
</a>
</g>
</g>
<!-- Node1&#45;&gt;Node18 -->
<g id="edge25_Node000001_Node000018" class="edge">
<title>Node1&#45;&gt;Node18</title>
<g id="a_edge25_Node000001_Node000018"><a xlink:title=" ">
<path fill="none" stroke="#63b8ff" d="M59.97,-343.95C71.63,-320.99 102.07,-267.11 143.5,-238.75 148.64,-235.23 154.4,-232.33 160.34,-229.93"/>
<polygon fill="#63b8ff" stroke="#63b8ff" points="161.43,-233.25 169.7,-226.64 159.11,-226.65 161.43,-233.25"/>
</a>
</g>
</g>
<!-- Node19 -->
<g id="Node000019" class="node">
<title>Node19</title>
<g id="a_Node000019"><a xlink:href="kest__effect_8c.html#a6d9927f6d82c964bd07bef5c77879010" target="_top" xlink:title=" ">
<polygon fill="white" stroke="#666666" points="414,-74.12 348.5,-74.12 348.5,-53.38 414,-53.38 414,-74.12"/>
<text xml:space="preserve" text-anchor="middle" x="381.25" y="-60.62" font-family="Helvetica,sans-Serif" font-size="10.00">init_effect</text>
</a>
</g>
</g>
<!-- Node1&#45;&gt;Node19 -->
<g id="edge29_Node000001_Node000019" class="edge">
<title>Node1&#45;&gt;Node19</title>
<g id="a_edge29_Node000001_Node000019"><a xlink:title=" ">
<path fill="none" stroke="#63b8ff" d="M54.43,-344.14C53.82,-302.66 57.69,-150.42 143.5,-82.75 198.74,-39.19 285.49,-45.25 337.23,-54.14"/>
<polygon fill="#63b8ff" stroke="#63b8ff" points="336.38,-57.54 346.85,-55.91 337.65,-50.66 336.38,-57.54"/>
</a>
</g>
</g>
<!-- Node29 -->
<g id="Node000029" class="node">
<title>Node29</title>
<g id="a_Node000029"><a xlink:href="kest__effect__init_8c.html#aae0191942adf39a67921e169a5a75143" target="_top" xlink:title=" ">
<polygon fill="white" stroke="#666666" points="254.38,-346.12 172.38,-346.12 172.38,-325.38 254.38,-325.38 254.38,-346.12"/>
<text xml:space="preserve" text-anchor="middle" x="213.38" y="-332.62" font-family="Helvetica,sans-Serif" font-size="10.00">init_envelope</text>
</a>
</g>
</g>
<!-- Node1&#45;&gt;Node29 -->
<g id="edge38_Node000001_Node000029" class="edge">
<title>Node1&#45;&gt;Node29</title>
<g id="a_edge38_Node000001_Node000029"><a xlink:title=" ">
<path fill="none" stroke="#63b8ff" d="M107.68,-348.37C124.99,-346.28 144.18,-343.97 161.35,-341.9"/>
<polygon fill="#63b8ff" stroke="#63b8ff" points="161.29,-345.43 170.8,-340.76 160.45,-338.48 161.29,-345.43"/>
</a>
</g>
</g>
<!-- Node30 -->
<g id="Node000030" class="node">
<title>Node30</title>
<g id="a_Node000030"><a xlink:href="kest__effect__init_8c.html#ab186fba3be5ddd2c1412e49a210e16ef" target="_top" xlink:title=" ">
<polygon fill="white" stroke="#666666" points="249.12,-151.12 177.62,-151.12 177.62,-130.38 249.12,-130.38 249.12,-151.12"/>
<text xml:space="preserve" text-anchor="middle" x="213.38" y="-137.62" font-family="Helvetica,sans-Serif" font-size="10.00">init_flanger</text>
</a>
</g>
</g>
<!-- Node1&#45;&gt;Node30 -->
<g id="edge40_Node000001_Node000030" class="edge">
<title>Node1&#45;&gt;Node30</title>
<g id="a_edge40_Node000001_Node000030"><a xlink:title=" ">
<path fill="none" stroke="#63b8ff" d="M56.45,-344.07C62.21,-311.43 84.07,-212.06 143.5,-160.75 150.05,-155.09 158.13,-151.03 166.41,-148.12"/>
<polygon fill="#63b8ff" stroke="#63b8ff" points="167.26,-151.52 175.87,-145.34 165.28,-144.8 167.26,-151.52"/>
</a>
</g>
</g>
<!-- Node31 -->
<g id="Node000031" class="node">
<title>Node31</title>
<g id="a_Node000031"><a xlink:href="kest__effect__init_8c.html#a5c5250eaa98ddf2693130c2d7b80d551" target="_top" xlink:title=" ">
<polygon fill="white" stroke="#666666" points="270.5,-307.12 156.25,-307.12 156.25,-286.38 270.5,-286.38 270.5,-307.12"/>
<text xml:space="preserve" text-anchor="middle" x="213.38" y="-293.62" font-family="Helvetica,sans-Serif" font-size="10.00">init_high_pass_filter</text>
</a>
</g>
</g>
<!-- Node1&#45;&gt;Node31 -->
<g id="edge44_Node000001_Node000031" class="edge">
<title>Node1&#45;&gt;Node31</title>
<g id="a_edge44_Node000001_Node000031"><a xlink:title=" ">
<path fill="none" stroke="#63b8ff" d="M77.8,-343.96C95.53,-335.89 120.77,-324.88 143.5,-316.75 149.22,-314.71 155.25,-312.71 161.28,-310.83"/>
<polygon fill="#63b8ff" stroke="#63b8ff" points="162.04,-314.26 170.6,-308.01 160.01,-307.56 162.04,-314.26"/>
</a>
</g>
</g>
<!-- Node32 -->
<g id="Node000032" class="node">
<title>Node32</title>
<g id="a_Node000032"><a xlink:href="kest__effect__init_8c.html#a4284be17d10938167d4002d3da5e7d3f" target="_top" xlink:title=" ">
<polygon fill="white" stroke="#666666" points="283.25,-268.12 143.5,-268.12 143.5,-247.38 283.25,-247.38 283.25,-268.12"/>
<text xml:space="preserve" text-anchor="middle" x="213.38" y="-254.62" font-family="Helvetica,sans-Serif" font-size="10.00">init_low_end_compressor</text>
</a>
</g>
</g>
<!-- Node1&#45;&gt;Node32 -->
<g id="edge46_Node000001_Node000032" class="edge">
<title>Node1&#45;&gt;Node32</title>
<g id="a_edge46_Node000001_Node000032"><a xlink:title=" ">
<path fill="none" stroke="#63b8ff" d="M64.29,-343.89C79.45,-327.28 110.72,-295.6 143.5,-277.75 146.94,-275.88 150.57,-274.16 154.3,-272.6"/>
<polygon fill="#63b8ff" stroke="#63b8ff" points="155.45,-275.91 163.56,-269.1 152.97,-269.36 155.45,-275.91"/>
</a>
</g>
</g>
<!-- Node33 -->
<g id="Node000033" class="node">
<title>Node33</title>
<g id="a_Node000033"><a xlink:href="kest__effect__init_8c.html#a487eabdfed31b5ea102c3425adb1af32" target="_top" xlink:title=" ">
<polygon fill="white" stroke="#666666" points="268.62,-658.12 158.12,-658.12 158.12,-637.38 268.62,-637.38 268.62,-658.12"/>
<text xml:space="preserve" text-anchor="middle" x="213.38" y="-644.62" font-family="Helvetica,sans-Serif" font-size="10.00">init_low_pass_filter</text>
</a>
</g>
</g>
<!-- Node1&#45;&gt;Node33 -->
<g id="edge48_Node000001_Node000033" class="edge">
<title>Node1&#45;&gt;Node33</title>
<g id="a_edge48_Node000001_Node000033"><a xlink:title=" ">
<path fill="none" stroke="#63b8ff" d="M54.86,-365.45C55.89,-406.01 65.11,-551.81 143.5,-627.75 144.91,-629.12 146.42,-630.4 147.99,-631.59"/>
<polygon fill="#63b8ff" stroke="#63b8ff" points="146.03,-634.49 156.38,-636.71 149.67,-628.51 146.03,-634.49"/>
</a>
</g>
</g>
<!-- Node34 -->
<g id="Node000034" class="node">
<title>Node34</title>
<g id="a_Node000034"><a xlink:href="kest__effect__init_8c.html#a7c3498ccae6af579e8c1445c4db5df31" target="_top" xlink:title=" ">
<polygon fill="white" stroke="#666666" points="274.25,-619.12 152.5,-619.12 152.5,-598.38 274.25,-598.38 274.25,-619.12"/>
<text xml:space="preserve" text-anchor="middle" x="213.38" y="-605.62" font-family="Helvetica,sans-Serif" font-size="10.00">init_noise_suppressor</text>
</a>
</g>
</g>
<!-- Node1&#45;&gt;Node34 -->
<g id="edge50_Node000001_Node000034" class="edge">
<title>Node1&#45;&gt;Node34</title>
<g id="a_edge50_Node000001_Node000034"><a xlink:title=" ">
<path fill="none" stroke="#63b8ff" d="M55.52,-365.44C58.77,-402.27 74.54,-525.09 143.5,-588.75 144.76,-589.91 146.08,-591.01 147.45,-592.04"/>
<polygon fill="#63b8ff" stroke="#63b8ff" points="145.53,-594.96 155.89,-597.18 149.17,-588.99 145.53,-594.96"/>
</a>
</g>
</g>
<!-- Node35 -->
<g id="Node000035" class="node">
<title>Node35</title>
<g id="a_Node000035"><a xlink:href="kest__effect__init_8c.html#a75b1d7a13f8c6453884492e568d0c392" target="_top" xlink:title=" ">
<polygon fill="white" stroke="#666666" points="260.38,-580.12 166.38,-580.12 166.38,-559.38 260.38,-559.38 260.38,-580.12"/>
<text xml:space="preserve" text-anchor="middle" x="213.38" y="-566.62" font-family="Helvetica,sans-Serif" font-size="10.00">init_percussifier</text>
</a>
</g>
</g>
<!-- Node1&#45;&gt;Node35 -->
<g id="edge52_Node000001_Node000035" class="edge">
<title>Node1&#45;&gt;Node35</title>
<g id="a_edge52_Node000001_Node000035"><a xlink:title=" ">
<path fill="none" stroke="#63b8ff" d="M56.43,-365.48C62.14,-398.29 83.86,-498.16 143.5,-549.75 147.16,-552.91 151.28,-555.57 155.66,-557.82"/>
<polygon fill="#63b8ff" stroke="#63b8ff" points="154.25,-561.02 164.82,-561.73 157,-554.58 154.25,-561.02"/>
</a>
</g>
</g>
<!-- Node36 -->
<g id="Node000036" class="node">
<title>Node36</title>
<g id="a_Node000036"><a xlink:href="kest__effect__init_8c.html#aeee5b285453be5b21027685b349e5eb5" target="_top" xlink:title=" ">
<polygon fill="white" stroke="#666666" points="250.25,-541.12 176.5,-541.12 176.5,-520.38 250.25,-520.38 250.25,-541.12"/>
<text xml:space="preserve" text-anchor="middle" x="213.38" y="-527.62" font-family="Helvetica,sans-Serif" font-size="10.00">init_warbler</text>
</a>
</g>
</g>
<!-- Node1&#45;&gt;Node36 -->
<g id="edge54_Node000001_Node000036" class="edge">
<title>Node1&#45;&gt;Node36</title>
<g id="a_edge54_Node000001_Node000036"><a xlink:title=" ">
<path fill="none" stroke="#63b8ff" d="M57.69,-365.32C66.09,-393.46 92.87,-470.79 143.5,-510.75 149.95,-515.84 157.65,-519.64 165.53,-522.47"/>
<polygon fill="#63b8ff" stroke="#63b8ff" points="164.26,-525.73 174.84,-525.31 166.3,-519.04 164.26,-525.73"/>
</a>
</g>
</g>
<!-- Node3 -->
<g id="Node000003" class="node">
<title>Node3</title>
<g id="a_Node000003"><a xlink:href="kest__effect_8c.html#a8dc8fceab7f835d960ea95e4f21fe327" target="_top" xlink:title=" ">
<polygon fill="white" stroke="#666666" points="443.25,-326.12 319.25,-326.12 319.25,-305.38 443.25,-305.38 443.25,-326.12"/>
<text xml:space="preserve" text-anchor="middle" x="381.25" y="-312.62" font-family="Helvetica,sans-Serif" font-size="10.00">effect_add_parameter</text>
</a>
</g>
</g>
<!-- Node2&#45;&gt;Node3 -->
<g id="edge2_Node000002_Node000003" class="edge">
<title>Node2&#45;&gt;Node3</title>
<g id="a_edge2_Node000002_Node000003"><a xlink:title=" ">
<path fill="none" stroke="#63b8ff" d="M258.54,-484.12C267.29,-481.23 276.01,-477.24 283.25,-471.75 330.31,-436.08 360.04,-370.39 372.89,-336.78"/>
<polygon fill="#63b8ff" stroke="#63b8ff" points="376.05,-338.34 376.21,-327.75 369.47,-335.92 376.05,-338.34"/>
</a>
</g>
</g>
<!-- Node4 -->
<g id="Node000004" class="node">
<title>Node4</title>
<g id="a_Node000004"><a xlink:href="kest__parameter_8c.html#a41fafa04c21a8ab5916a8ceb5442d99a" target="_top" xlink:title=" ">
<polygon fill="white" stroke="#666666" points="613.38,-326.12 507.38,-326.12 507.38,-305.38 613.38,-305.38 613.38,-326.12"/>
<text xml:space="preserve" text-anchor="middle" x="560.38" y="-312.62" font-family="Helvetica,sans-Serif" font-size="10.00">init_parameter_str</text>
</a>
</g>
</g>
<!-- Node3&#45;&gt;Node4 -->
<g id="edge3_Node000003_Node000004" class="edge">
<title>Node3&#45;&gt;Node4</title>
<g id="a_edge3_Node000003_Node000004"><a xlink:title=" ">
<path fill="none" stroke="#63b8ff" d="M443.7,-315.75C460.51,-315.75 478.75,-315.75 495.68,-315.75"/>
<polygon fill="#63b8ff" stroke="#63b8ff" points="495.64,-319.25 505.64,-315.75 495.64,-312.25 495.64,-319.25"/>
</a>
</g>
</g>
<!-- Node8 -->
<g id="Node000008" class="node">
<title>Node8</title>
<g id="a_Node000008"><a xlink:href="kest__alloc_8c.html#a849755c5dc5b35e712ffcdb602e50fb4" target="_top" xlink:title=" ">
<polygon fill="white" stroke="#666666" points="592.75,-189.12 528,-189.12 528,-168.38 592.75,-168.38 592.75,-189.12"/>
<text xml:space="preserve" text-anchor="middle" x="560.38" y="-175.62" font-family="Helvetica,sans-Serif" font-size="10.00">kest_alloc</text>
</a>
</g>
</g>
<!-- Node3&#45;&gt;Node8 -->
<g id="edge5_Node000003_Node000008" class="edge">
<title>Node3&#45;&gt;Node8</title>
<g id="a_edge5_Node000003_Node000008"><a xlink:title=" ">
<path fill="none" stroke="#63b8ff" d="M400.26,-304.95C413.41,-296.38 431.01,-283.44 443.25,-268.75 465.64,-241.87 451.83,-220.48 479.25,-198.75 489.85,-190.35 503.52,-185.42 516.56,-182.55"/>
<polygon fill="#63b8ff" stroke="#63b8ff" points="517.06,-186.02 526.28,-180.79 515.81,-179.13 517.06,-186.02"/>
</a>
</g>
</g>
<!-- Node9 -->
<g id="Node000009" class="node">
<title>Node9</title>
<g id="a_Node000009"><a xlink:href="kest__alloc_8c.html#a294af5728a94aa316fcf65304d388d48" target="_top" xlink:title=" ">
<polygon fill="white" stroke="#666666" points="590.88,-287.12 529.88,-287.12 529.88,-266.38 590.88,-266.38 590.88,-287.12"/>
<text xml:space="preserve" text-anchor="middle" x="560.38" y="-273.62" font-family="Helvetica,sans-Serif" font-size="10.00">kest_free</text>
</a>
</g>
</g>
<!-- Node3&#45;&gt;Node9 -->
<g id="edge6_Node000003_Node000009" class="edge">
<title>Node3&#45;&gt;Node9</title>
<g id="a_edge6_Node000003_Node000009"><a xlink:title=" ">
<path fill="none" stroke="#63b8ff" d="M431.59,-304.89C458.96,-298.86 492.6,-291.45 518.5,-285.75"/>
<polygon fill="#63b8ff" stroke="#63b8ff" points="518.94,-289.24 527.96,-283.67 517.44,-282.4 518.94,-289.24"/>
</a>
</g>
</g>
<!-- Node5 -->
<g id="Node000005" class="node">
<title>Node5</title>
<g id="a_Node000005"><a xlink:href="kest__parameter_8c.html#abff5b0dd3ed907207191aa6079c514eb" target="_top" xlink:title=" ">
<polygon fill="#fff0f0" stroke="red" points="803.75,-277.5 677.5,-277.5 677.5,-244 803.75,-244 803.75,-277.5"/>
<text xml:space="preserve" text-anchor="start" x="685.5" y="-264" font-family="Helvetica,sans-Serif" font-size="10.00">kest_parameter_effect</text>
<text xml:space="preserve" text-anchor="middle" x="740.62" y="-251.25" font-family="Helvetica,sans-Serif" font-size="10.00">_rep_update</text>
</a>
</g>
</g>
<!-- Node4&#45;&gt;Node5 -->
<g id="edge4_Node000004_Node000005" class="edge">
<title>Node4&#45;&gt;Node5</title>
<g id="a_edge4_Node000004_Node000005"><a xlink:title=" ">
<path fill="none" stroke="#63b8ff" d="M608.19,-304.88C619.18,-302.11 630.8,-298.99 641.5,-295.75 655.3,-291.58 670.01,-286.61 683.74,-281.75"/>
<polygon fill="#63b8ff" stroke="#63b8ff" points="684.84,-285.07 693.08,-278.4 682.48,-278.48 684.84,-285.07"/>
</a>
</g>
</g>
<!-- Node10&#45;&gt;Node3 -->
<g id="edge8_Node000010_Node000003" class="edge">
<title>Node10&#45;&gt;Node3</title>
<g id="a_edge8_Node000010_Node000003"><a xlink:title=" ">
<path fill="none" stroke="#63b8ff" d="M254.37,-187.06C264.31,-190.01 274.6,-194.1 283.25,-199.75 303.39,-212.9 344.41,-266.68 366.09,-296.17"/>
<polygon fill="#63b8ff" stroke="#63b8ff" points="363.03,-297.91 371.75,-303.93 368.68,-293.79 363.03,-297.91"/>
</a>
</g>
</g>
<!-- Node10&#45;&gt;Node8 -->
<g id="edge14_Node000010_Node000008" class="edge">
<title>Node10&#45;&gt;Node8</title>
<g id="a_edge14_Node000010_Node000008"><a xlink:title=" ">
<path fill="none" stroke="#63b8ff" d="M254.29,-179.63C319.71,-179.44 449.21,-179.07 516.51,-178.87"/>
<polygon fill="#63b8ff" stroke="#63b8ff" points="516.43,-182.37 526.42,-178.85 516.41,-175.37 516.43,-182.37"/>
</a>
</g>
</g>
<!-- Node11 -->
<g id="Node000011" class="node">
<title>Node11</title>
<g id="a_Node000011"><a xlink:href="kest__effect_8c.html#abf12c30daf8ca1ac113eca5f22723cf7" target="_top" xlink:title=" ">
<polygon fill="white" stroke="#666666" points="434.62,-227.12 327.88,-227.12 327.88,-206.38 434.62,-206.38 434.62,-227.12"/>
<text xml:space="preserve" text-anchor="middle" x="381.25" y="-213.62" font-family="Helvetica,sans-Serif" font-size="10.00">effect_add_setting</text>
</a>
</g>
</g>
<!-- Node10&#45;&gt;Node11 -->
<g id="edge9_Node000010_Node000011" class="edge">
<title>Node10&#45;&gt;Node11</title>
<g id="a_edge9_Node000010_Node000011"><a xlink:title=" ">
<path fill="none" stroke="#63b8ff" d="M254.11,-188.61C274.03,-193.06 298.57,-198.53 320.69,-203.47"/>
<polygon fill="#63b8ff" stroke="#63b8ff" points="319.67,-206.82 330.19,-205.58 321.19,-199.99 319.67,-206.82"/>
</a>
</g>
</g>
<!-- Node11&#45;&gt;Node8 -->
<g id="edge12_Node000011_Node000008" class="edge">
<title>Node11&#45;&gt;Node8</title>
<g id="a_edge12_Node000011_Node000008"><a xlink:title=" ">
<path fill="none" stroke="#63b8ff" d="M432.53,-205.96C459.05,-200.27 491.24,-193.37 516.56,-187.94"/>
<polygon fill="#63b8ff" stroke="#63b8ff" points="517.14,-191.39 526.18,-185.87 515.67,-184.55 517.14,-191.39"/>
</a>
</g>
</g>
<!-- Node11&#45;&gt;Node9 -->
<g id="edge13_Node000011_Node000009" class="edge">
<title>Node11&#45;&gt;Node9</title>
<g id="a_edge13_Node000011_Node000009"><a xlink:title=" ">
<path fill="none" stroke="#63b8ff" d="M414.33,-227.62C443.67,-237.55 487.2,-252.3 518.92,-263.05"/>
<polygon fill="#63b8ff" stroke="#63b8ff" points="517.57,-266.29 528.17,-266.18 519.82,-259.66 517.57,-266.29"/>
</a>
</g>
</g>
<!-- Node12 -->
<g id="Node000012" class="node">
<title>Node12</title>
<g id="a_Node000012"><a xlink:href="kest__parameter_8c.html#a7c270a293ab879d0d3e757625c7c7dda" target="_top" xlink:title=" ">
<polygon fill="white" stroke="#666666" points="604.75,-228.12 516,-228.12 516,-207.38 604.75,-207.38 604.75,-228.12"/>
<text xml:space="preserve" text-anchor="middle" x="560.38" y="-214.62" font-family="Helvetica,sans-Serif" font-size="10.00">init_setting_str</text>
</a>
</g>
</g>
<!-- Node11&#45;&gt;Node12 -->
<g id="edge10_Node000011_Node000012" class="edge">
<title>Node11&#45;&gt;Node12</title>
<g id="a_edge10_Node000011_Node000012"><a xlink:title=" ">
<path fill="none" stroke="#63b8ff" d="M434.91,-217.05C456.8,-217.17 482.2,-217.31 504.33,-217.44"/>
<polygon fill="#63b8ff" stroke="#63b8ff" points="504.03,-220.94 514.05,-217.49 504.07,-213.94 504.03,-220.94"/>
</a>
</g>
</g>
<!-- Node13 -->
<g id="Node000013" class="node">
<title>Node13</title>
<g id="a_Node000013"><a xlink:href="kest__parameter_8c.html#a3c9f839cffc5f0a9b0630682ce8e9b9c" target="_top" xlink:title=" ">
<polygon fill="#fff0f0" stroke="red" points="795.12,-153.5 686.12,-153.5 686.12,-120 795.12,-120 795.12,-153.5"/>
<text xml:space="preserve" text-anchor="start" x="694.12" y="-140" font-family="Helvetica,sans-Serif" font-size="10.00">kest_setting_effect</text>
<text xml:space="preserve" text-anchor="middle" x="740.62" y="-127.25" font-family="Helvetica,sans-Serif" font-size="10.00">_rep_update</text>
</a>
</g>
</g>
<!-- Node12&#45;&gt;Node13 -->
<g id="edge11_Node000012_Node000013" class="edge">
<title>Node12&#45;&gt;Node13</title>
<g id="a_edge11_Node000012_Node000013"><a xlink:title=" ">
<path fill="none" stroke="#63b8ff" d="M605.01,-209.47C617.08,-206.48 630.01,-202.61 641.5,-197.75 664.67,-187.94 688.7,-173.1 707.18,-160.51"/>
<polygon fill="#63b8ff" stroke="#63b8ff" points="709.11,-163.43 715.32,-154.85 705.11,-157.68 709.11,-163.43"/>
</a>
</g>
</g>
<!-- Node14&#45;&gt;Node3 -->
<g id="edge16_Node000014_Node000003" class="edge">
<title>Node14&#45;&gt;Node3</title>
<g id="a_edge16_Node000014_Node000003"><a xlink:title=" ">
<path fill="none" stroke="#63b8ff" d="M264.85,-441.93C271.31,-439.46 277.63,-436.44 283.25,-432.75 321.84,-407.44 352.98,-362.1 368.83,-335.91"/>
<polygon fill="#63b8ff" stroke="#63b8ff" points="371.67,-337.98 373.73,-327.59 365.64,-334.43 371.67,-337.98"/>
</a>
</g>
</g>
<!-- Node15&#45;&gt;Node3 -->
<g id="edge18_Node000015_Node000003" class="edge">
<title>Node15&#45;&gt;Node3</title>
<g id="a_edge18_Node000015_Node000003"><a xlink:title=" ">
<path fill="none" stroke="#63b8ff" d="M260.56,-403.08C268.34,-400.52 276.18,-397.43 283.25,-393.75 313.56,-377.97 343.43,-351.93 361.85,-334.32"/>
<polygon fill="#63b8ff" stroke="#63b8ff" points="364.13,-336.98 368.83,-327.49 359.24,-331.98 364.13,-336.98"/>
</a>
</g>
</g>
<!-- Node16&#45;&gt;Node3 -->
<g id="edge20_Node000016_Node000003" class="edge">
<title>Node16&#45;&gt;Node3</title>
<g id="a_edge20_Node000016_Node000003"><a xlink:title=" ">
<path fill="none" stroke="#63b8ff" d="M245.77,-104.36C258.84,-106.96 273.27,-112 283.25,-121.75 321.26,-158.88 294.78,-188.59 319.25,-235.75 331.02,-258.43 349.26,-281.31 362.73,-296.76"/>
<polygon fill="#63b8ff" stroke="#63b8ff" points="359.75,-298.68 369.01,-303.81 364.97,-294.02 359.75,-298.68"/>
</a>
</g>
</g>
<!-- Node16&#45;&gt;Node8 -->
<g id="edge22_Node000016_Node000008" class="edge">
<title>Node16&#45;&gt;Node8</title>
<g id="a_edge22_Node000016_Node000008"><a xlink:title=" ">
<path fill="none" stroke="#63b8ff" d="M245.62,-107.46C289.83,-115.71 373.06,-131.82 443.25,-148.75 459.39,-152.64 463.19,-154.52 479.25,-158.75 491.46,-161.97 504.74,-165.34 516.93,-168.38"/>
<polygon fill="#63b8ff" stroke="#63b8ff" points="515.72,-171.68 526.27,-170.69 517.41,-164.89 515.72,-171.68"/>
</a>
</g>
</g>
<!-- Node16&#45;&gt;Node11 -->
<g id="edge21_Node000016_Node000011" class="edge">
<title>Node16&#45;&gt;Node11</title>
<g id="a_edge21_Node000016_Node000011"><a xlink:title=" ">
<path fill="none" stroke="#63b8ff" d="M245.87,-107.44C258.09,-110.52 271.85,-115.09 283.25,-121.75 316.96,-141.45 347.65,-175.42 365.12,-196.96"/>
<polygon fill="#63b8ff" stroke="#63b8ff" points="362.29,-199.02 371.24,-204.69 367.78,-194.68 362.29,-199.02"/>
</a>
</g>
</g>
<!-- Node17&#45;&gt;Node3 -->
<g id="edge24_Node000017_Node000003" class="edge">
<title>Node17&#45;&gt;Node3</title>
<g id="a_edge24_Node000017_Node000003"><a xlink:title=" ">
<path fill="none" stroke="#63b8ff" d="M254.29,-363.89C263.83,-361.09 273.95,-357.96 283.25,-354.75 303.95,-347.6 326.68,-338.53 344.93,-330.94"/>
<polygon fill="#63b8ff" stroke="#63b8ff" points="346.13,-334.23 353.99,-327.13 343.42,-327.78 346.13,-334.23"/>
</a>
</g>
</g>
<!-- Node18&#45;&gt;Node3 -->
<g id="edge26_Node000018_Node000003" class="edge">
<title>Node18&#45;&gt;Node3</title>
<g id="a_edge26_Node000018_Node000003"><a xlink:title=" ">
<path fill="none" stroke="#63b8ff" d="M255.53,-227.7C264.93,-230.55 274.67,-234.19 283.25,-238.75 301.64,-248.53 303,-255.73 319.25,-268.75 331.56,-278.61 345.47,-289.37 356.91,-298.1"/>
<polygon fill="#63b8ff" stroke="#63b8ff" points="354.55,-300.7 364.63,-303.97 358.79,-295.13 354.55,-300.7"/>
</a>
</g>
</g>
<!-- Node18&#45;&gt;Node8 -->
<g id="edge28_Node000018_Node000008" class="edge">
<title>Node18&#45;&gt;Node8</title>
<g id="a_edge28_Node000018_Node000008"><a xlink:title=" ">
<path fill="none" stroke="#63b8ff" d="M255.53,-226.99C274.8,-230.44 298.11,-234.05 319.25,-235.75 374.18,-240.17 392.48,-257.19 443.25,-235.75 464.39,-226.82 459.36,-210.19 479.25,-198.75 490.57,-192.24 503.99,-187.83 516.57,-184.85"/>
<polygon fill="#63b8ff" stroke="#63b8ff" points="517.25,-188.28 526.32,-182.81 515.82,-181.43 517.25,-188.28"/>
</a>
</g>
</g>
<!-- Node18&#45;&gt;Node11 -->
<g id="edge27_Node000018_Node000011" class="edge">
<title>Node18&#45;&gt;Node11</title>
<g id="a_edge27_Node000018_Node000011"><a xlink:title=" ">
<path fill="none" stroke="#63b8ff" d="M255.38,-218.26C273.67,-218.04 295.65,-217.77 316.04,-217.52"/>
<polygon fill="#63b8ff" stroke="#63b8ff" points="316.02,-221.02 325.98,-217.4 315.94,-214.03 316.02,-221.02"/>
</a>
</g>
</g>
<!-- Node19&#45;&gt;Node8 -->
<g id="edge34_Node000019_Node000008" class="edge">
<title>Node19&#45;&gt;Node8</title>
<g id="a_edge34_Node000019_Node000008"><a xlink:title=" ">
<path fill="none" stroke="#63b8ff" d="M414.46,-72.14C424.55,-75.95 435.15,-81.32 443.25,-88.75 469.03,-112.4 451.83,-137.02 479.25,-158.75 489.85,-167.15 503.52,-172.08 516.56,-174.95"/>
<polygon fill="#63b8ff" stroke="#63b8ff" points="515.81,-178.37 526.28,-176.71 517.06,-171.48 515.81,-178.37"/>
</a>
</g>
</g>
<!-- Node20 -->
<g id="Node000020" class="node">
<title>Node20</title>
<g id="a_Node000020"><a xlink:href="kest__parameter_8c.html#a2b94ddb1588d1a5af4311970bb068122" target="_top" xlink:title=" ">
<polygon fill="white" stroke="#666666" points="604.38,-150.12 516.38,-150.12 516.38,-129.38 604.38,-129.38 604.38,-150.12"/>
<text xml:space="preserve" text-anchor="middle" x="560.38" y="-136.62" font-family="Helvetica,sans-Serif" font-size="10.00">init_parameter</text>
</a>
</g>
</g>
<!-- Node19&#45;&gt;Node20 -->
<g id="edge30_Node000019_Node000020" class="edge">
<title>Node19&#45;&gt;Node20</title>
<g id="a_edge30_Node000019_Node000020"><a xlink:title=" ">
<path fill="none" stroke="#63b8ff" d="M414.23,-74.61C423.87,-78.47 434.27,-83.25 443.25,-88.75 461.25,-99.79 460.5,-110.04 479.25,-119.75 487.31,-123.92 496.27,-127.25 505.21,-129.9"/>
<polygon fill="#63b8ff" stroke="#63b8ff" points="504.01,-133.2 514.57,-132.42 505.82,-126.44 504.01,-133.2"/>
</a>
</g>
</g>
<!-- Node21 -->
<g id="Node000021" class="node">
<title>Node21</title>
<g id="a_Node000021"><a xlink:href="kest__parameter_8c.html#a62dd23a17e3d4ca94ec6a8ff311e8b94" target="_top" xlink:title=" ">
<polygon fill="white" stroke="#666666" points="595.75,-111.12 525,-111.12 525,-90.38 595.75,-90.38 595.75,-111.12"/>
<text xml:space="preserve" text-anchor="middle" x="560.38" y="-97.62" font-family="Helvetica,sans-Serif" font-size="10.00">init_setting</text>
</a>
</g>
</g>
<!-- Node19&#45;&gt;Node21 -->
<g id="edge32_Node000019_Node000021" class="edge">
<title>Node19&#45;&gt;Node21</title>
<g id="a_edge32_Node000019_Node000021"><a xlink:title=" ">
<path fill="none" stroke="#63b8ff" d="M414.33,-70.45C442.03,-76.24 482.39,-84.67 513.5,-91.17"/>
<polygon fill="#63b8ff" stroke="#63b8ff" points="512.52,-94.54 523.02,-93.16 513.95,-87.69 512.52,-94.54"/>
</a>
</g>
</g>
<!-- Node22 -->
<g id="Node000022" class="node">
<title>Node22</title>
<g id="a_Node000022"><a xlink:href="kest__fpga__position_8c.html#aedf87d214193b5e04bc8f87ad24fca83" target="_top" xlink:title=" ">
<polygon fill="white" stroke="#666666" points="641.5,-72.12 479.25,-72.12 479.25,-51.38 641.5,-51.38 641.5,-72.12"/>
<text xml:space="preserve" text-anchor="middle" x="560.38" y="-58.62" font-family="Helvetica,sans-Serif" font-size="10.00">kest_effect_fpga_position_init</text>
</a>
</g>
</g>
<!-- Node19&#45;&gt;Node22 -->
<g id="edge35_Node000019_Node000022" class="edge">
<title>Node19&#45;&gt;Node22</title>
<g id="a_edge35_Node000019_Node000022"><a xlink:title=" ">
<path fill="none" stroke="#63b8ff" d="M414.33,-63.39C429.49,-63.22 448.45,-63 467.61,-62.79"/>
<polygon fill="#63b8ff" stroke="#63b8ff" points="467.42,-66.29 477.38,-62.68 467.34,-59.29 467.42,-66.29"/>
</a>
</g>
</g>
<!-- Node23 -->
<g id="Node000023" class="node">
<title>Node23</title>
<g id="a_Node000023"><a xlink:href="kest__effect_8c.html#a2109a1d86293251c21166f2d243d1f84" target="_top" xlink:title=" ">
<polygon fill="white" stroke="#666666" points="613.38,-33.5 507.38,-33.5 507.38,0 613.38,0 613.38,-33.5"/>
<text xml:space="preserve" text-anchor="start" x="515.38" y="-20" font-family="Helvetica,sans-Serif" font-size="10.00">kest_effect_preset</text>
<text xml:space="preserve" text-anchor="middle" x="560.38" y="-7.25" font-family="Helvetica,sans-Serif" font-size="10.00">_rep_update</text>
</a>
</g>
</g>
<!-- Node19&#45;&gt;Node23 -->
<g id="edge36_Node000019_Node000023" class="edge">
<title>Node19&#45;&gt;Node23</title>
<g id="a_edge36_Node000019_Node000023"><a xlink:title=" ">
<path fill="none" stroke="#63b8ff" d="M414.33,-55.24C437.12,-49.19 468.48,-40.87 496.22,-33.51"/>
<polygon fill="#63b8ff" stroke="#63b8ff" points="496.81,-36.97 505.58,-31.03 495.01,-30.21 496.81,-36.97"/>
</a>
</g>
</g>
<!-- Node20&#45;&gt;Node5 -->
<g id="edge31_Node000020_Node000005" class="edge">
<title>Node20&#45;&gt;Node5</title>
<g id="a_edge31_Node000020_Node000005"><a xlink:title=" ">
<path fill="none" stroke="#63b8ff" d="M604.65,-145.95C617.09,-148.93 630.32,-153.31 641.5,-159.75 674.28,-178.61 703.27,-211.56 721.08,-234.68"/>
<polygon fill="#63b8ff" stroke="#63b8ff" points="718.08,-236.51 726.88,-242.4 723.68,-232.3 718.08,-236.51"/>
</a>
</g>
</g>
<!-- Node21&#45;&gt;Node13 -->
<g id="edge33_Node000021_Node000013" class="edge">
<title>Node21&#45;&gt;Node13</title>
<g id="a_edge33_Node000021_Node000013"><a xlink:title=" ">
<path fill="none" stroke="#63b8ff" d="M596.17,-107.78C618.51,-112.29 648.21,-118.29 674.8,-123.66"/>
<polygon fill="#63b8ff" stroke="#63b8ff" points="673.99,-127.06 684.48,-125.61 675.37,-120.2 673.99,-127.06"/>
</a>
</g>
</g>
<!-- Node24 -->
<g id="Node000024" class="node">
<title>Node24</title>
<g id="a_Node000024"><a xlink:href="kest__files_8c.html#a930754405483621f50f94833b02cdd3c" target="_top" xlink:title=" ">
<polygon fill="#fff0f0" stroke="red" points="778.25,-27.12 703,-27.12 703,-6.38 778.25,-6.38 778.25,-27.12"/>
<text xml:space="preserve" text-anchor="middle" x="740.62" y="-13.62" font-family="Helvetica,sans-Serif" font-size="10.00">save_preset</text>
</a>
</g>
</g>
<!-- Node23&#45;&gt;Node24 -->
<g id="edge37_Node000023_Node000024" class="edge">
<title>Node23&#45;&gt;Node24</title>
<g id="a_edge37_Node000023_Node000024"><a xlink:title=" ">
<path fill="none" stroke="#63b8ff" d="M613.41,-16.75C637.96,-16.75 667.08,-16.75 691.16,-16.75"/>
<polygon fill="#63b8ff" stroke="#63b8ff" points="691.02,-20.25 701.02,-16.75 691.02,-13.25 691.02,-20.25"/>
</a>
</g>
</g>
<!-- Node29&#45;&gt;Node3 -->
<g id="edge39_Node000029_Node000003" class="edge">
<title>Node29&#45;&gt;Node3</title>
<g id="a_edge39_Node000029_Node000003"><a xlink:title=" ">
<path fill="none" stroke="#63b8ff" d="M254.53,-330.91C270.49,-328.98 289.36,-326.71 307.56,-324.51"/>
<polygon fill="#63b8ff" stroke="#63b8ff" points="307.76,-328.02 317.27,-323.34 306.93,-321.07 307.76,-328.02"/>
</a>
</g>
</g>
<!-- Node30&#45;&gt;Node3 -->
<g id="edge41_Node000030_Node000003" class="edge">
<title>Node30&#45;&gt;Node3</title>
<g id="a_edge41_Node000030_Node000003"><a xlink:title=" ">
<path fill="none" stroke="#63b8ff" d="M249.35,-145.01C261.16,-147.89 273.75,-152.7 283.25,-160.75 311.46,-184.65 299.94,-204.22 319.25,-235.75 332.54,-257.46 350.47,-280.38 363.45,-296.1"/>
<polygon fill="#63b8ff" stroke="#63b8ff" points="360.73,-298.3 369.83,-303.72 366.09,-293.8 360.73,-298.3"/>
</a>
</g>
</g>
<!-- Node30&#45;&gt;Node8 -->
<g id="edge43_Node000030_Node000008" class="edge">
<title>Node30&#45;&gt;Node8</title>
<g id="a_edge43_Node000030_Node000008"><a xlink:title=" ">
<path fill="none" stroke="#63b8ff" d="M249.35,-144.6C313,-151.61 447.51,-166.43 516.53,-174.03"/>
<polygon fill="#63b8ff" stroke="#63b8ff" points="516,-177.49 526.32,-175.11 516.77,-170.54 516,-177.49"/>
</a>
</g>
</g>
<!-- Node30&#45;&gt;Node11 -->
<g id="edge42_Node000030_Node000011" class="edge">
<title>Node30&#45;&gt;Node11</title>
<g id="a_edge42_Node000030_Node000011"><a xlink:title=" ">
<path fill="none" stroke="#63b8ff" d="M249.28,-149.13C260.34,-152.24 272.48,-156.16 283.25,-160.75 308.72,-171.61 335.87,-187.72 354.95,-199.87"/>
<polygon fill="#63b8ff" stroke="#63b8ff" points="352.83,-202.67 363.13,-205.17 356.63,-196.79 352.83,-202.67"/>
</a>
</g>
</g>
<!-- Node31&#45;&gt;Node3 -->
<g id="edge45_Node000031_Node000003" class="edge">
<title>Node31&#45;&gt;Node3</title>
<g id="a_edge45_Node000031_Node000003"><a xlink:title=" ">
<path fill="none" stroke="#63b8ff" d="M271,-303.24C282.78,-304.59 295.36,-306.03 307.62,-307.43"/>
<polygon fill="#63b8ff" stroke="#63b8ff" points="306.94,-310.88 317.27,-308.54 307.73,-303.92 306.94,-310.88"/>
</a>
</g>
</g>
<!-- Node32&#45;&gt;Node3 -->
<g id="edge47_Node000032_Node000003" class="edge">
<title>Node32&#45;&gt;Node3</title>
<g id="a_edge47_Node000032_Node000003"><a xlink:title=" ">
<path fill="none" stroke="#63b8ff" d="M253.9,-268.56C263.56,-271.38 273.82,-274.54 283.25,-277.75 303.62,-284.68 326.01,-293.38 344.14,-300.7"/>
<polygon fill="#63b8ff" stroke="#63b8ff" points="342.57,-303.84 353.15,-304.37 345.21,-297.36 342.57,-303.84"/>
</a>
</g>
</g>
<!-- Node33&#45;&gt;Node3 -->
<g id="edge49_Node000033_Node000003" class="edge">
<title>Node33&#45;&gt;Node3</title>
<g id="a_edge49_Node000033_Node000003"><a xlink:title=" ">
<path fill="none" stroke="#63b8ff" d="M268.79,-637.72C274.11,-635.12 279.07,-631.85 283.25,-627.75 366.45,-546.11 378.58,-394.5 380.13,-337.86"/>
<polygon fill="#63b8ff" stroke="#63b8ff" points="383.63,-338 380.3,-327.94 376.63,-337.88 383.63,-338"/>
</a>
</g>
</g>
<!-- Node34&#45;&gt;Node3 -->
<g id="edge51_Node000034_Node000003" class="edge">
<title>Node34&#45;&gt;Node3</title>
<g id="a_edge51_Node000034_Node000003"><a xlink:title=" ">
<path fill="none" stroke="#63b8ff" d="M269.98,-597.88C274.82,-595.43 279.35,-592.42 283.25,-588.75 357.13,-519.09 374.81,-389.51 378.98,-337.85"/>
<polygon fill="#63b8ff" stroke="#63b8ff" points="382.47,-338.2 379.67,-327.98 375.48,-337.72 382.47,-338.2"/>
</a>
</g>
</g>
<!-- Node35&#45;&gt;Node3 -->
<g id="edge53_Node000035_Node000003" class="edge">
<title>Node35&#45;&gt;Node3</title>
<g id="a_edge53_Node000035_Node000003"><a xlink:title=" ">
<path fill="none" stroke="#63b8ff" d="M260.69,-562.5C268.9,-559.58 276.85,-555.48 283.25,-549.75 347.94,-491.83 370.54,-384.07 377.5,-337.79"/>
<polygon fill="#63b8ff" stroke="#63b8ff" points="380.96,-338.35 378.86,-327.96 374.02,-337.39 380.96,-338.35"/>
</a>
</g>
</g>
<!-- Node36&#45;&gt;Node3 -->
<g id="edge55_Node000036_Node000003" class="edge">
<title>Node36&#45;&gt;Node3</title>
<g id="a_edge55_Node000036_Node000003"><a xlink:title=" ">
<path fill="none" stroke="#63b8ff" d="M250.71,-526.06C262.1,-523.14 274.08,-518.41 283.25,-510.75 338.88,-464.28 365.59,-378.05 375.5,-337.67"/>
<polygon fill="#63b8ff" stroke="#63b8ff" points="378.9,-338.5 377.75,-327.97 372.08,-336.92 378.9,-338.5"/>
</a>
</g>
</g>
</g>
</svg>

<g id="navigator" transform="translate(0 0)" fill="#404254">
  <rect fill="#f2f5e9" fill-opacity="0.5" stroke="#606060" stroke-width=".5" x="0" y="0" width="60" height="60"/>
  <use id="zoomplus" xlink:href="#zoomPlus" x="17" y="9" onmousedown="handleZoom(evt,'in')"/>
  <use id="zoomminus" xlink:href="#zoomMin" x="42" y="9" onmousedown="handleZoom(evt,'out')"/>
  <use id="reset" xlink:href="#resetDef" x="30" y="36" onmousedown="handleReset()"/>
   <use id="arrowup" xlink:href="#arrowUp" x="0" y="0" onmousedown="handlePan(0,-1)"/>
  <use id="arrowright" xlink:href="#arrowRight" x="0" y="0" onmousedown="handlePan(1,0)"/>
  <use id="arrowdown" xlink:href="#arrowDown" x="0" y="0" onmousedown="handlePan(0,1)"/>
  <use id="arrowleft" xlink:href="#arrowLeft" x="0" y="0" onmousedown="handlePan(-1,0)"/>
</g>
<svg viewBox="0 0 15 15" width="100%" height="30px" preserveAspectRatio="xMaxYMin meet">
 <g id="arrow_out" transform="scale(0.3 0.3)">
  <a xlink:href="kest__effect__init_8h_a2e48b19e5588065e64b5003fe8f25f04_cgraph_org.svg" target="_base">
   <rect id="button" ry="5" rx="5" y="6" x="6" height="38" width="38"
        fill="#f2f5e9" fill-opacity="0.5" stroke="#606060" stroke-width="1.0"/>
   <path id="arrow"
     d="M 11.500037,31.436501 C 11.940474,20.09759 22.043105,11.32322 32.158766,21.979434 L 37.068811,17.246167 C 37.068811,17.246167 37.088388,32 37.088388,32 L 22.160133,31.978069 C 22.160133,31.978069 26.997745,27.140456 26.997745,27.140456 C 18.528582,18.264221 13.291696,25.230495 11.500037,31.436501 z"
     style="fill:#404040;"/>
  </a>
 </g>
</svg>

<style type='text/css'>
<![CDATA[
[data-mouse-over-selected='false'] { opacity: 0.7; }
[data-mouse-over-selected='true']  { opacity: 1.0; }
]]>
</style>
<script type="application/ecmascript"><![CDATA[
document.addEventListener('DOMContentLoaded', (event) => {
  highlightEdges();
  highlightAdjacentNodes();
});
]]></script>
</svg>
