<?xml version="1.0" encoding="UTF-8" standalone="no"?>
<!DOCTYPE svg PUBLIC "-//W3C//DTD SVG 1.1//EN"
 "http://www.w3.org/Graphics/SVG/1.1/DTD/svg11.dtd">
<!-- Generated by graphviz version 13.1.2 (20250808.2320)
 -->
<!-- Title: kest_sequence_stop Pages: 1 -->
<!--zoomable 125 -->

<svg id="main" version="1.1" xmlns="http://www.w3.org/2000/svg" xmlns:xlink="http://www.w3.org/1999/xlink" xml:space="preserve" onload="init(evt)">

<style type="text/css"><![CDATA[
.node, .edge {opacity: 0.7;}
.node.selected, .edge.selected {opacity: 1;}
.edge:hover path { stroke: red; }
.edge:hover polygon { stroke: red; fill: red; }
]]></style>

<defs>
  <circle id="rim" cx="0" cy="0" r="7"/>
  <circle id="rim2" cx="0" cy="0" r="3.5"/>
  <g id="zoomPlus">
    <use xlink:href="#rim" fill="#404040"><set attributeName="fill" to="#808080" begin="zoomplus.mouseover" end="zoomplus.mouseout"/></use>
    <path d="M-4,0h8M0,-4v8" fill="none" stroke="white" stroke-width="1.5" pointer-events="none"/>
  </g>
  <g id="zoomMin">
    <use xlink:href="#rim" fill="#404040"><set attributeName="fill" to="#808080" begin="zoomminus.mouseover" end="zoomminus.mouseout"/></use>
    <path d="M-4,0h8" fill="none" stroke="white" stroke-width="1.5" pointer-events="none"/>
  </g>
  <g id="arrowUp" transform="translate(30 24)">
    <use xlink:href="#rim"/>
    <path pointer-events="none" fill="none" stroke="white" stroke-width="1.5" d="M0,-3.0v7 M-2.5,-0.5L0,-3.0L2.5,-0.5"/>
  </g>
  <g id="arrowRight" transform="rotate(90) translate(36 -43)">
    <use xlink:href="#rim"/>
    <path pointer-events="none" fill="none" stroke="white" stroke-width="1.5" d="M0,-3.0v7 M-2.5,-0.5L0,-3.0L2.5,-0.5"/>
  </g>
  <g id="arrowDown" transform="rotate(180) translate(-30 -48)">
    <use xlink:href="#rim"/>
    <path pointer-events="none" fill="none" stroke="white" stroke-width="1.5" d="M0,-3.0v7 M-2.5,-0.5L0,-3.0L2.5,-0.5"/>
  </g>
  <g id="arrowLeft" transform="rotate(270) translate(-36 17)">
    <use xlink:href="#rim"/>
    <path pointer-events="none" fill="none" stroke="white" stroke-width="1.5" d="M0,-3.0v7 M-2.5,-0.5L0,-3.0L2.5,-0.5"/>
  </g>
  <g id="resetDef">
    <use xlink:href="#rim2" fill="#404040"><set attributeName="fill" to="#808080" begin="reset.mouseover" end="reset.mouseout"/></use>
  </g>
</defs>
<script type="application/ecmascript">
var viewWidth = 802;
var viewHeight = 125;
var sectionId = 'dynsection-23';
</script>
<script type="application/ecmascript" xlink:href="svg.min.js"/>
<svg id="graph" class="graph">
<g id="viewport">
<title>kest_sequence_stop</title>
<!-- Node1 -->
<g id="Node000001" class="node">
<title>Node1</title>
<g id="a_Node000001"><a xlink:title=" ">
<polygon fill="#999999" stroke="#666666" points="114.25,-84.12 0,-84.12 0,-63.38 114.25,-63.38 114.25,-84.12"/>
<text xml:space="preserve" text-anchor="middle" x="57.12" y="-70.62" font-family="Helvetica,sans-Serif" font-size="10.00">kest_sequence_stop</text>
</a>
</g>
</g>
<!-- Node2 -->
<g id="Node000002" class="node">
<title>Node2</title>
<g id="a_Node000002"><a xlink:href="kest__sequence_8c.html#abb62e308c5b4830b09a802084718cb2d" target="_top" xlink:title=" ">
<polygon fill="white" stroke="#666666" points="279.12,-116.5 152.12,-116.5 152.12,-83 279.12,-83 279.12,-116.5"/>
<text xml:space="preserve" text-anchor="start" x="160.12" y="-103" font-family="Helvetica,sans-Serif" font-size="10.00">kest_sequence_update</text>
<text xml:space="preserve" text-anchor="middle" x="215.62" y="-90.25" font-family="Helvetica,sans-Serif" font-size="10.00">_representations</text>
</a>
</g>
</g>
<!-- Node1&#45;&gt;Node2 -->
<g id="edge1_Node000001_Node000002" class="edge">
<title>Node1&#45;&gt;Node2</title>
<g id="a_edge1_Node000001_Node000002"><a xlink:title=" ">
<path fill="none" stroke="#63b8ff" d="M114.63,-83.14C123.03,-84.53 131.79,-85.99 140.49,-87.43"/>
<polygon fill="#63b8ff" stroke="#63b8ff" points="139.91,-90.89 150.35,-89.07 141.06,-83.98 139.91,-90.89"/>
</a>
</g>
</g>
<!-- Node4 -->
<g id="Node000004" class="node">
<title>Node4</title>
<g id="a_Node000004"><a xlink:href="kest__context_8c.html#a5d13232e1dbd01fdd19c8acbbcccc6ad" target="_top" xlink:title=" ">
<polygon fill="white" stroke="#666666" points="281,-64.5 150.25,-64.5 150.25,-31 281,-31 281,-64.5"/>
<text xml:space="preserve" text-anchor="start" x="158.25" y="-51" font-family="Helvetica,sans-Serif" font-size="10.00">set_active_preset_from</text>
<text xml:space="preserve" text-anchor="middle" x="215.62" y="-38.25" font-family="Helvetica,sans-Serif" font-size="10.00">_sequence</text>
</a>
</g>
</g>
<!-- Node1&#45;&gt;Node4 -->
<g id="edge3_Node000001_Node000004" class="edge">
<title>Node1&#45;&gt;Node4</title>
<g id="a_edge3_Node000001_Node000004"><a xlink:title=" ">
<path fill="none" stroke="#63b8ff" d="M114.63,-64.36C122.51,-63.05 130.72,-61.69 138.88,-60.33"/>
<polygon fill="#63b8ff" stroke="#63b8ff" points="139.18,-63.83 148.47,-58.74 138.04,-56.93 139.18,-63.83"/>
</a>
</g>
</g>
<!-- Node3 -->
<g id="Node000003" class="node">
<title>Node3</title>
<g id="a_Node000003"><a xlink:href="kest__representation_8c.html#a7a4a0f32b72f47d90e3d0f5932fbe58f" target="_top" xlink:title=" ">
<polygon fill="white" stroke="#666666" points="794,-74.5 671.5,-74.5 671.5,-41 794,-41 794,-74.5"/>
<text xml:space="preserve" text-anchor="start" x="679.5" y="-61" font-family="Helvetica,sans-Serif" font-size="10.00">queue_representation</text>
<text xml:space="preserve" text-anchor="middle" x="732.75" y="-48.25" font-family="Helvetica,sans-Serif" font-size="10.00">_list_update</text>
</a>
</g>
</g>
<!-- Node2&#45;&gt;Node3 -->
<g id="edge2_Node000002_Node000003" class="edge">
<title>Node2&#45;&gt;Node3</title>
<g id="a_edge2_Node000002_Node000003"><a xlink:title=" ">
<path fill="none" stroke="#63b8ff" d="M279.42,-100.59C361.64,-100.85 510.07,-98.42 635.5,-80.75 643.51,-79.62 651.83,-78.13 660.08,-76.45"/>
<polygon fill="#63b8ff" stroke="#63b8ff" points="660.72,-79.89 669.76,-74.37 659.25,-73.05 660.72,-79.89"/>
</a>
</g>
</g>
<!-- Node5 -->
<g id="Node000005" class="node">
<title>Node5</title>
<g id="a_Node000005"><a xlink:href="kest__preset_8c.html#acb2b0cbb6743bad53092fa87d22051c0" target="_top" xlink:title=" ">
<polygon fill="white" stroke="#666666" points="449.25,-66.12 321.5,-66.12 321.5,-45.38 449.25,-45.38 449.25,-66.12"/>
<text xml:space="preserve" text-anchor="middle" x="385.38" y="-52.62" font-family="Helvetica,sans-Serif" font-size="10.00">kest_preset_set_active</text>
</a>
</g>
</g>
<!-- Node4&#45;&gt;Node5 -->
<g id="edge4_Node000004_Node000005" class="edge">
<title>Node4&#45;&gt;Node5</title>
<g id="a_edge4_Node000004_Node000005"><a xlink:title=" ">
<path fill="none" stroke="#63b8ff" d="M281.48,-50.84C290.72,-51.28 300.29,-51.74 309.7,-52.19"/>
<polygon fill="#63b8ff" stroke="#63b8ff" points="309.4,-55.68 319.56,-52.66 309.74,-48.69 309.4,-55.68"/>
</a>
</g>
</g>
<!-- Node40 -->
<g id="Node000040" class="node">
<title>Node40</title>
<g id="a_Node000040"><a xlink:href="kest__preset_8c.html#ad45c84072c3ef9c904f7a6d7de7412d4" target="_top" xlink:title=" ">
<polygon fill="white" stroke="#666666" points="453.75,-27.12 317,-27.12 317,-6.38 453.75,-6.38 453.75,-27.12"/>
<text xml:space="preserve" text-anchor="middle" x="385.38" y="-13.62" font-family="Helvetica,sans-Serif" font-size="10.00">kest_preset_set_inactive</text>
</a>
</g>
</g>
<!-- Node4&#45;&gt;Node40 -->
<g id="edge8_Node000004_Node000040" class="edge">
<title>Node4&#45;&gt;Node40</title>
<g id="a_edge8_Node000004_Node000040"><a xlink:title=" ">
<path fill="none" stroke="#63b8ff" d="M281.48,-35.76C292.29,-33.77 303.55,-31.69 314.48,-29.67"/>
<polygon fill="#63b8ff" stroke="#63b8ff" points="315.03,-33.12 324.23,-27.86 313.76,-26.24 315.03,-33.12"/>
</a>
</g>
</g>
<!-- Node6 -->
<g id="Node000006" class="node">
<title>Node6</title>
<g id="a_Node000006"><a xlink:href="kest__preset_8c.html#a5a3e12c26912d571e86fd2b5f54a2d8d" target="_top" xlink:title=" ">
<polygon fill="#fff0f0" stroke="red" points="635.5,-72.12 489.75,-72.12 489.75,-51.38 635.5,-51.38 635.5,-72.12"/>
<text xml:space="preserve" text-anchor="middle" x="562.62" y="-58.62" font-family="Helvetica,sans-Serif" font-size="10.00">kest_preset_program_fpga</text>
</a>
</g>
</g>
<!-- Node5&#45;&gt;Node6 -->
<g id="edge5_Node000005_Node000006" class="edge">
<title>Node5&#45;&gt;Node6</title>
<g id="a_edge5_Node000005_Node000006"><a xlink:title=" ">
<path fill="none" stroke="#63b8ff" d="M449.64,-57.92C458.95,-58.23 468.65,-58.57 478.28,-58.9"/>
<polygon fill="#63b8ff" stroke="#63b8ff" points="477.9,-62.39 488.01,-59.23 478.14,-55.39 477.9,-62.39"/>
</a>
</g>
</g>
<!-- Node39 -->
<g id="Node000039" class="node">
<title>Node39</title>
<g id="a_Node000039"><a xlink:href="kest__preset_8c.html#a2f2d0b650b705f48ccccc66831d60308" target="_top" xlink:title=" ">
<polygon fill="white" stroke="#666666" points="618.25,-33.5 507,-33.5 507,0 618.25,0 618.25,-33.5"/>
<text xml:space="preserve" text-anchor="start" x="515" y="-20" font-family="Helvetica,sans-Serif" font-size="10.00">kest_preset_update</text>
<text xml:space="preserve" text-anchor="middle" x="562.62" y="-7.25" font-family="Helvetica,sans-Serif" font-size="10.00">_representations</text>
</a>
</g>
</g>
<!-- Node5&#45;&gt;Node39 -->
<g id="edge6_Node000005_Node000039" class="edge">
<title>Node5&#45;&gt;Node39</title>
<g id="a_edge6_Node000005_Node000039"><a xlink:title=" ">
<path fill="none" stroke="#63b8ff" d="M435.19,-44.89C453.82,-40.74 475.38,-35.94 495.36,-31.5"/>
<polygon fill="#63b8ff" stroke="#63b8ff" points="496.11,-34.91 505.11,-29.33 494.59,-28.08 496.11,-34.91"/>
</a>
</g>
</g>
<!-- Node39&#45;&gt;Node3 -->
<g id="edge7_Node000039_Node000003" class="edge">
<title>Node39&#45;&gt;Node3</title>
<g id="a_edge7_Node000039_Node000003"><a xlink:title=" ">
<path fill="none" stroke="#63b8ff" d="M618.68,-30.17C631.9,-33.4 646.22,-36.89 660.07,-40.27"/>
<polygon fill="#63b8ff" stroke="#63b8ff" points="659.04,-43.62 669.59,-42.59 660.7,-36.82 659.04,-43.62"/>
</a>
</g>
</g>
<!-- Node40&#45;&gt;Node39 -->
<g id="edge9_Node000040_Node000039" class="edge">
<title>Node40&#45;&gt;Node39</title>
<g id="a_edge9_Node000040_Node000039"><a xlink:title=" ">
<path fill="none" stroke="#63b8ff" d="M454.13,-16.75C467.68,-16.75 481.89,-16.75 495.38,-16.75"/>
<polygon fill="#63b8ff" stroke="#63b8ff" points="495,-20.25 505,-16.75 495,-13.25 495,-20.25"/>
</a>
</g>
</g>
</g>
</svg>

<g id="navigator" transform="translate(0 0)" fill="#404254">
  <rect fill="#f2f5e9" fill-opacity="0.5" stroke="#606060" stroke-width=".5" x="0" y="0" width="60" height="60"/>
  <use id="zoomplus" xlink:href="#zoomPlus" x="17" y="9" onmousedown="handleZoom(evt,'in')"/>
  <use id="zoomminus" xlink:href="#zoomMin" x="42" y="9" onmousedown="handleZoom(evt,'out')"/>
  <use id="reset" xlink:href="#resetDef" x="30" y="36" onmousedown="handleReset()"/>
   <use id="arrowup" xlink:href="#arrowUp" x="0" y="0" onmousedown="handlePan(0,-1)"/>
  <use id="arrowright" xlink:href="#arrowRight" x="0" y="0" onmousedown="handlePan(1,0)"/>
  <use id="arrowdown" xlink:href="#arrowDown" x="0" y="0" onmousedown="handlePan(0,1)"/>
  <use id="arrowleft" xlink:href="#arrowLeft" x="0" y="0" onmousedown="handlePan(-1,0)"/>
</g>
<svg viewBox="0 0 15 15" width="100%" height="30px" preserveAspectRatio="xMaxYMin meet">
 <g id="arrow_out" transform="scale(0.3 0.3)">
  <a xlink:href="kest__sequence_8c_a3b2993ed35376e7c9a4fb0f4496b2757_cgraph_org.svg" target="_base">
   <rect id="button" ry="5" rx="5" y="6" x="6" height="38" width="38"
        fill="#f2f5e9" fill-opacity="0.5" stroke="#606060" stroke-width="1.0"/>
   <path id="arrow"
     d="M 11.500037,31.436501 C 11.940474,20.09759 22.043105,11.32322 32.158766,21.979434 L 37.068811,17.246167 C 37.068811,17.246167 37.088388,32 37.088388,32 L 22.160133,31.978069 C 22.160133,31.978069 26.997745,27.140456 26.997745,27.140456 C 18.528582,18.264221 13.291696,25.230495 11.500037,31.436501 z"
     style="fill:#404040;"/>
  </a>
 </g>
</svg>

<style type='text/css'>
<![CDATA[
[data-mouse-over-selected='false'] { opacity: 0.7; }
[data-mouse-over-selected='true']  { opacity: 1.0; }
]]>
</style>
<script type="application/ecmascript"><![CDATA[
document.addEventListener('DOMContentLoaded', (event) => {
  highlightEdges();
  highlightAdjacentNodes();
});
]]></script>
</svg>
