<?xml version="1.0" encoding="UTF-8" standalone="no"?>
<!DOCTYPE svg PUBLIC "-//W3C//DTD SVG 1.1//EN"
 "http://www.w3.org/Graphics/SVG/1.1/DTD/svg11.dtd">
<!-- Generated by graphviz version 13.1.2 (20250808.2320)
 -->
<!-- Title: preset_view_effect_click_cb Pages: 1 -->
<svg width="601pt" height="42pt"
 viewBox="0.00 0.00 601.00 42.00" xmlns="http://www.w3.org/2000/svg" xmlns:xlink="http://www.w3.org/1999/xlink">
<g id="graph0" class="graph" transform="scale(1 1) rotate(0) translate(4 37.5)">
<title>preset_view_effect_click_cb</title>
<!-- Node1 -->
<g id="Node000001" class="node">
<title>Node1</title>
<g id="a_Node000001"><a xlink:title=" ">
<polygon fill="#999999" stroke="#666666" points="109,-33.5 0,-33.5 0,0 109,0 109,-33.5"/>
<text xml:space="preserve" text-anchor="start" x="8" y="-20" font-family="Helvetica,sans-Serif" font-size="10.00">preset_view_effect</text>
<text xml:space="preserve" text-anchor="middle" x="54.5" y="-7.25" font-family="Helvetica,sans-Serif" font-size="10.00">_click_cb</text>
</a>
</g>
</g>
<!-- Node2 -->
<g id="Node000002" class="node">
<title>Node2</title>
<g id="a_Node000002"><a xlink:href="kest__ui_8c.html#a2063cd4687cffa16c46c43deaa27642f" target="_top" xlink:title=" ">
<polygon fill="white" stroke="#666666" points="278,-27.12 145,-27.12 145,-6.38 278,-6.38 278,-27.12"/>
<text xml:space="preserve" text-anchor="middle" x="211.5" y="-13.62" font-family="Helvetica,sans-Serif" font-size="10.00">enter_ui_page_forwards</text>
</a>
</g>
</g>
<!-- Node1&#45;&gt;Node2 -->
<g id="edge1_Node000001_Node000002" class="edge">
<title>Node1&#45;&gt;Node2</title>
<g id="a_edge1_Node000001_Node000002"><a xlink:title=" ">
<path fill="none" stroke="#63b8ff" d="M109.28,-16.75C117,-16.75 125.08,-16.75 133.15,-16.75"/>
<polygon fill="#63b8ff" stroke="#63b8ff" points="133.01,-20.25 143.01,-16.75 133.01,-13.25 133.01,-20.25"/>
</a>
</g>
</g>
<!-- Node3 -->
<g id="Node000003" class="node">
<title>Node3</title>
<g id="a_Node000003"><a xlink:href="kest__context_8c.html#a6292c7a2d7f0502ea5a59bbe9b552791" target="_top" xlink:title=" ">
<polygon fill="white" stroke="#666666" points="434.25,-33.5 314,-33.5 314,0 434.25,0 434.25,-33.5"/>
<text xml:space="preserve" text-anchor="start" x="322" y="-20" font-family="Helvetica,sans-Serif" font-size="10.00">kest_cxt_queue_save</text>
<text xml:space="preserve" text-anchor="middle" x="374.12" y="-7.25" font-family="Helvetica,sans-Serif" font-size="10.00">_state</text>
</a>
</g>
</g>
<!-- Node2&#45;&gt;Node3 -->
<g id="edge2_Node000002_Node000003" class="edge">
<title>Node2&#45;&gt;Node3</title>
<g id="a_edge2_Node000002_Node000003"><a xlink:title=" ">
<path fill="none" stroke="#63b8ff" d="M278.3,-16.75C286.15,-16.75 294.2,-16.75 302.13,-16.75"/>
<polygon fill="#63b8ff" stroke="#63b8ff" points="302.11,-20.25 312.11,-16.75 302.11,-13.25 302.11,-20.25"/>
</a>
</g>
</g>
<!-- Node4 -->
<g id="Node000004" class="node">
<title>Node4</title>
<g id="a_Node000004"><a xlink:href="kest__representation_8c.html#a7a4a0f32b72f47d90e3d0f5932fbe58f" target="_top" xlink:title=" ">
<polygon fill="white" stroke="#666666" points="592.75,-33.5 470.25,-33.5 470.25,0 592.75,0 592.75,-33.5"/>
<text xml:space="preserve" text-anchor="start" x="478.25" y="-20" font-family="Helvetica,sans-Serif" font-size="10.00">queue_representation</text>
<text xml:space="preserve" text-anchor="middle" x="531.5" y="-7.25" font-family="Helvetica,sans-Serif" font-size="10.00">_list_update</text>
</a>
</g>
</g>
<!-- Node3&#45;&gt;Node4 -->
<g id="edge3_Node000003_Node000004" class="edge">
<title>Node3&#45;&gt;Node4</title>
<g id="a_edge3_Node000003_Node000004"><a xlink:title=" ">
<path fill="none" stroke="#63b8ff" d="M434.31,-16.75C442.24,-16.75 450.44,-16.75 458.55,-16.75"/>
<polygon fill="#63b8ff" stroke="#63b8ff" points="458.42,-20.25 468.42,-16.75 458.42,-13.25 458.42,-20.25"/>
</a>
</g>
</g>
</g>
</svg>
