<?xml version="1.0" encoding="UTF-8" standalone="no"?>
<!DOCTYPE svg PUBLIC "-//W3C//DTD SVG 1.1//EN"
 "http://www.w3.org/Graphics/SVG/1.1/DTD/svg11.dtd">
<!-- Generated by graphviz version 13.1.2 (20250808.2320)
 -->
<!-- Title: free_sequence Pages: 1 -->
<!--zoomable 118 -->

<svg id="main" version="1.1" xmlns="http://www.w3.org/2000/svg" xmlns:xlink="http://www.w3.org/1999/xlink" xml:space="preserve" onload="init(evt)">

<style type="text/css"><![CDATA[
.node, .edge {opacity: 0.7;}
.node.selected, .edge.selected {opacity: 1;}
.edge:hover path { stroke: red; }
.edge:hover polygon { stroke: red; fill: red; }
]]></style>

<defs>
  <circle id="rim" cx="0" cy="0" r="7"/>
  <circle id="rim2" cx="0" cy="0" r="3.5"/>
  <g id="zoomPlus">
    <use xlink:href="#rim" fill="#404040"><set attributeName="fill" to="#808080" begin="zoomplus.mouseover" end="zoomplus.mouseout"/></use>
    <path d="M-4,0h8M0,-4v8" fill="none" stroke="white" stroke-width="1.5" pointer-events="none"/>
  </g>
  <g id="zoomMin">
    <use xlink:href="#rim" fill="#404040"><set attributeName="fill" to="#808080" begin="zoomminus.mouseover" end="zoomminus.mouseout"/></use>
    <path d="M-4,0h8" fill="none" stroke="white" stroke-width="1.5" pointer-events="none"/>
  </g>
  <g id="arrowUp" transform="translate(30 24)">
    <use xlink:href="#rim"/>
    <path pointer-events="none" fill="none" stroke="white" stroke-width="1.5" d="M0,-3.0v7 M-2.5,-0.5L0,-3.0L2.5,-0.5"/>
  </g>
  <g id="arrowRight" transform="rotate(90) translate(36 -43)">
    <use xlink:href="#rim"/>
    <path pointer-events="none" fill="none" stroke="white" stroke-width="1.5" d="M0,-3.0v7 M-2.5,-0.5L0,-3.0L2.5,-0.5"/>
  </g>
  <g id="arrowDown" transform="rotate(180) translate(-30 -48)">
    <use xlink:href="#rim"/>
    <path pointer-events="none" fill="none" stroke="white" stroke-width="1.5" d="M0,-3.0v7 M-2.5,-0.5L0,-3.0L2.5,-0.5"/>
  </g>
  <g id="arrowLeft" transform="rotate(270) translate(-36 17)">
    <use xlink:href="#rim"/>
    <path pointer-events="none" fill="none" stroke="white" stroke-width="1.5" d="M0,-3.0v7 M-2.5,-0.5L0,-3.0L2.5,-0.5"/>
  </g>
  <g id="resetDef">
    <use xlink:href="#rim2" fill="#404040"><set attributeName="fill" to="#808080" begin="reset.mouseover" end="reset.mouseout"/></use>
  </g>
</defs>
<script type="application/ecmascript">
var viewWidth = 792;
var viewHeight = 118;
var sectionId = 'dynsection-1';
</script>
<script type="application/ecmascript" xlink:href="svg.min.js"/>
<svg id="graph" class="graph">
<g id="viewport">
<title>free_sequence</title>
<!-- Node1 -->
<g id="Node000001" class="node">
<title>Node1</title>
<g id="a_Node000001"><a xlink:title=" ">
<polygon fill="#999999" stroke="#666666" points="784.25,-58.75 697,-58.75 697,-38 784.25,-38 784.25,-58.75"/>
<text xml:space="preserve" text-anchor="middle" x="740.62" y="-45.25" font-family="Helvetica,sans-Serif" font-size="10.00">free_sequence</text>
</a>
</g>
</g>
<!-- Node2 -->
<g id="Node000002" class="node">
<title>Node2</title>
<g id="a_Node000002"><a xlink:href="kest__context_8c.html#a89a9a7d285986c386193190edd9a5e00" target="_top" xlink:title=" ">
<polygon fill="white" stroke="#666666" points="659.5,-99.75 534,-99.75 534,-79 659.5,-79 659.5,-99.75"/>
<text xml:space="preserve" text-anchor="middle" x="596.75" y="-86.25" font-family="Helvetica,sans-Serif" font-size="10.00">cxt_remove_sequence</text>
</a>
</g>
</g>
<!-- Node1&#45;&gt;Node2 -->
<g id="edge1_Node000001_Node000002" class="edge">
<title>Node1&#45;&gt;Node2</title>
<g id="a_edge1_Node000001_Node000002"><a xlink:title=" ">
<path fill="none" stroke="#63b8ff" d="M691.29,-62.34C672.98,-67.63 652.44,-73.57 635.27,-78.53"/>
<polygon fill="#63b8ff" stroke="#63b8ff" points="692.26,-65.71 700.89,-59.57 690.32,-58.98 692.26,-65.71"/>
</a>
</g>
</g>
<!-- Node33 -->
<g id="Node000033" class="node">
<title>Node33</title>
<g id="a_Node000033"><a xlink:href="kest__context_8c.html#ab67ff484aaa334c1425d4a580d645027" target="_top" xlink:title=" ">
<polygon fill="white" stroke="#666666" points="326.75,-61.75 158.5,-61.75 158.5,-41 326.75,-41 326.75,-61.75"/>
<text xml:space="preserve" text-anchor="middle" x="242.62" y="-48.25" font-family="Helvetica,sans-Serif" font-size="10.00">kest_context_add_sequence_rp</text>
</a>
</g>
</g>
<!-- Node1&#45;&gt;Node33 -->
<g id="edge5_Node000001_Node000033" class="edge">
<title>Node1&#45;&gt;Node33</title>
<g id="a_edge5_Node000001_Node000033"><a xlink:title=" ">
<path fill="none" stroke="#63b8ff" d="M685.52,-48.7C599,-49.23 428.87,-50.25 326.8,-50.87"/>
<polygon fill="#63b8ff" stroke="#63b8ff" points="685.41,-52.2 695.39,-48.64 685.37,-45.2 685.41,-52.2"/>
</a>
</g>
</g>
<!-- Node34 -->
<g id="Node000034" class="node">
<title>Node34</title>
<g id="a_Node000034"><a xlink:href="kest__files_8c.html#a2b0f0df900e064b3a42198050e150084" target="_top" xlink:title=" ">
<polygon fill="white" stroke="#666666" points="661,-20.75 532.5,-20.75 532.5,0 661,0 661,-20.75"/>
<text xml:space="preserve" text-anchor="middle" x="596.75" y="-7.25" font-family="Helvetica,sans-Serif" font-size="10.00">load_saved_sequences</text>
</a>
</g>
</g>
<!-- Node1&#45;&gt;Node34 -->
<g id="edge7_Node000001_Node000034" class="edge">
<title>Node1&#45;&gt;Node34</title>
<g id="a_edge7_Node000001_Node000034"><a xlink:title=" ">
<path fill="none" stroke="#63b8ff" d="M688.7,-34.74C672.08,-30.28 653.86,-25.4 638.13,-21.19"/>
<polygon fill="#63b8ff" stroke="#63b8ff" points="687.32,-37.99 697.89,-37.2 689.13,-31.23 687.32,-37.99"/>
</a>
</g>
</g>
<!-- Node3 -->
<g id="Node000003" class="node">
<title>Node3</title>
<g id="a_Node000003"><a xlink:href="kest__sequence__list_8c.html#a1982fe2baa22bbb76b3da523cfdda6da" target="_top" xlink:title=" ">
<polygon fill="white" stroke="#666666" points="496.5,-110.12 362.75,-110.12 362.75,-76.62 496.5,-76.62 496.5,-110.12"/>
<text xml:space="preserve" text-anchor="start" x="370.75" y="-96.62" font-family="Helvetica,sans-Serif" font-size="10.00">sequence_listing_delete</text>
<text xml:space="preserve" text-anchor="middle" x="429.62" y="-83.88" font-family="Helvetica,sans-Serif" font-size="10.00">_button_cb</text>
</a>
</g>
</g>
<!-- Node2&#45;&gt;Node3 -->
<g id="edge2_Node000002_Node000003" class="edge">
<title>Node2&#45;&gt;Node3</title>
<g id="a_edge2_Node000002_Node000003"><a xlink:title=" ">
<path fill="none" stroke="#63b8ff" d="M522.32,-91.15C513.82,-91.36 505.19,-91.57 496.8,-91.77"/>
<polygon fill="#63b8ff" stroke="#63b8ff" points="522.37,-94.65 532.28,-90.91 522.2,-87.66 522.37,-94.65"/>
</a>
</g>
</g>
<!-- Node4 -->
<g id="Node000004" class="node">
<title>Node4</title>
<g id="a_Node000004"><a xlink:href="kest__menu_8c.html#aa44b42640611d3ca75f6b55206ebd08e" target="_top" xlink:title=" ">
<polygon fill="#fff0f0" stroke="red" points="303.5,-101.75 181.75,-101.75 181.75,-81 303.5,-81 303.5,-101.75"/>
<text xml:space="preserve" text-anchor="middle" x="242.62" y="-88.25" font-family="Helvetica,sans-Serif" font-size="10.00">create_menu_item_ui</text>
</a>
</g>
</g>
<!-- Node3&#45;&gt;Node4 -->
<g id="edge3_Node000003_Node000004" class="edge">
<title>Node3&#45;&gt;Node4</title>
<g id="a_edge3_Node000003_Node000004"><a xlink:title=" ">
<path fill="none" stroke="#63b8ff" d="M351.02,-92.54C335.27,-92.37 318.93,-92.19 303.89,-92.03"/>
<polygon fill="#63b8ff" stroke="#63b8ff" points="350.81,-96.03 360.84,-92.64 350.88,-89.03 350.81,-96.03"/>
</a>
</g>
</g>
<!-- Node28 -->
<g id="Node000028" class="node">
<title>Node28</title>
<g id="a_Node000028"><a xlink:href="kest__sequence__list_8c.html#ac9d222d7405758d9f4edfeabe4c6200e" target="_top" xlink:title=" ">
<polygon fill="#fff0f0" stroke="red" points="122.5,-80.75 0,-80.75 0,-60 122.5,-60 122.5,-80.75"/>
<text xml:space="preserve" text-anchor="middle" x="61.25" y="-67.25" font-family="Helvetica,sans-Serif" font-size="10.00">sequence_list_add_cb</text>
</a>
</g>
</g>
<!-- Node4&#45;&gt;Node28 -->
<g id="edge4_Node000004_Node000028" class="edge">
<title>Node4&#45;&gt;Node28</title>
<g id="a_edge4_Node000004_Node000028"><a xlink:title=" ">
<path fill="none" stroke="#63b8ff" d="M170.17,-83.01C154.52,-81.18 138.11,-79.26 122.93,-77.48"/>
<polygon fill="#63b8ff" stroke="#63b8ff" points="169.55,-86.46 179.89,-84.15 170.37,-79.51 169.55,-86.46"/>
</a>
</g>
</g>
<!-- Node33&#45;&gt;Node28 -->
<g id="edge6_Node000033_Node000028" class="edge">
<title>Node33&#45;&gt;Node28</title>
<g id="a_edge6_Node000033_Node000028"><a xlink:title=" ">
<path fill="none" stroke="#63b8ff" d="M146.79,-61.42C138.7,-62.28 130.67,-63.13 122.95,-63.94"/>
<polygon fill="#63b8ff" stroke="#63b8ff" points="147.16,-64.9 156.73,-60.37 146.42,-57.94 147.16,-64.9"/>
</a>
</g>
</g>
<!-- Node9 -->
<g id="Node000009" class="node">
<title>Node9</title>
<g id="a_Node000009"><a xlink:href="kest__init_8c.html#ad1373cd24ac2876b2830d1ad2eb92721" target="_top" xlink:title=" ">
<polygon fill="#fff0f0" stroke="red" points="458.25,-20.75 401,-20.75 401,0 458.25,0 458.25,-20.75"/>
<text xml:space="preserve" text-anchor="middle" x="429.62" y="-7.25" font-family="Helvetica,sans-Serif" font-size="10.00">kest_init</text>
</a>
</g>
</g>
<!-- Node34&#45;&gt;Node9 -->
<g id="edge8_Node000034_Node000009" class="edge">
<title>Node34&#45;&gt;Node9</title>
<g id="a_edge8_Node000034_Node000009"><a xlink:title=" ">
<path fill="none" stroke="#63b8ff" d="M520.9,-10.38C498.76,-10.38 475.87,-10.38 458.68,-10.38"/>
<polygon fill="#63b8ff" stroke="#63b8ff" points="520.87,-13.88 530.87,-10.38 520.87,-6.88 520.87,-13.88"/>
</a>
</g>
</g>
</g>
</svg>

<g id="navigator" transform="translate(0 0)" fill="#404254">
  <rect fill="#f2f5e9" fill-opacity="0.5" stroke="#606060" stroke-width=".5" x="0" y="0" width="60" height="60"/>
  <use id="zoomplus" xlink:href="#zoomPlus" x="17" y="9" onmousedown="handleZoom(evt,'in')"/>
  <use id="zoomminus" xlink:href="#zoomMin" x="42" y="9" onmousedown="handleZoom(evt,'out')"/>
  <use id="reset" xlink:href="#resetDef" x="30" y="36" onmousedown="handleReset()"/>
   <use id="arrowup" xlink:href="#arrowUp" x="0" y="0" onmousedown="handlePan(0,-1)"/>
  <use id="arrowright" xlink:href="#arrowRight" x="0" y="0" onmousedown="handlePan(1,0)"/>
  <use id="arrowdown" xlink:href="#arrowDown" x="0" y="0" onmousedown="handlePan(0,1)"/>
  <use id="arrowleft" xlink:href="#arrowLeft" x="0" y="0" onmousedown="handlePan(-1,0)"/>
</g>
<svg viewBox="0 0 15 15" width="100%" height="30px" preserveAspectRatio="xMaxYMin meet">
 <g id="arrow_out" transform="scale(0.3 0.3)">
  <a xlink:href="kest__sequence_8c_a6ff162921ceb28cfb5cb208e746ccea2_icgraph_org.svg" target="_base">
   <rect id="button" ry="5" rx="5" y="6" x="6" height="38" width="38"
        fill="#f2f5e9" fill-opacity="0.5" stroke="#606060" stroke-width="1.0"/>
   <path id="arrow"
     d="M 11.500037,31.436501 C 11.940474,20.09759 22.043105,11.32322 32.158766,21.979434 L 37.068811,17.246167 C 37.068811,17.246167 37.088388,32 37.088388,32 L 22.160133,31.978069 C 22.160133,31.978069 26.997745,27.140456 26.997745,27.140456 C 18.528582,18.264221 13.291696,25.230495 11.500037,31.436501 z"
     style="fill:#404040;"/>
  </a>
 </g>
</svg>

<style type='text/css'>
<![CDATA[
[data-mouse-over-selected='false'] { opacity: 0.7; }
[data-mouse-over-selected='true']  { opacity: 1.0; }
]]>
</style>
<script type="application/ecmascript"><![CDATA[
document.addEventListener('DOMContentLoaded', (event) => {
  highlightEdges();
  highlightAdjacentNodes();
});
]]></script>
</svg>
