<?xml version="1.0" encoding="UTF-8" standalone="no"?>
<!DOCTYPE svg PUBLIC "-//W3C//DTD SVG 1.1//EN"
 "http://www.w3.org/Graphics/SVG/1.1/DTD/svg11.dtd">
<!-- Generated by graphviz version 13.1.2 (20250808.2320)
 -->
<!-- Title: kest_fpga_batch_append_block_register_updates Pages: 1 -->
<!--zoomable 403 -->

<svg id="main" version="1.1" xmlns="http://www.w3.org/2000/svg" xmlns:xlink="http://www.w3.org/1999/xlink" xml:space="preserve" onload="init(evt)">

<style type="text/css"><![CDATA[
.node, .edge {opacity: 0.7;}
.node.selected, .edge.selected {opacity: 1;}
.edge:hover path { stroke: red; }
.edge:hover polygon { stroke: red; fill: red; }
]]></style>

<defs>
  <circle id="rim" cx="0" cy="0" r="7"/>
  <circle id="rim2" cx="0" cy="0" r="3.5"/>
  <g id="zoomPlus">
    <use xlink:href="#rim" fill="#404040"><set attributeName="fill" to="#808080" begin="zoomplus.mouseover" end="zoomplus.mouseout"/></use>
    <path d="M-4,0h8M0,-4v8" fill="none" stroke="white" stroke-width="1.5" pointer-events="none"/>
  </g>
  <g id="zoomMin">
    <use xlink:href="#rim" fill="#404040"><set attributeName="fill" to="#808080" begin="zoomminus.mouseover" end="zoomminus.mouseout"/></use>
    <path d="M-4,0h8" fill="none" stroke="white" stroke-width="1.5" pointer-events="none"/>
  </g>
  <g id="arrowUp" transform="translate(30 24)">
    <use xlink:href="#rim"/>
    <path pointer-events="none" fill="none" stroke="white" stroke-width="1.5" d="M0,-3.0v7 M-2.5,-0.5L0,-3.0L2.5,-0.5"/>
  </g>
  <g id="arrowRight" transform="rotate(90) translate(36 -43)">
    <use xlink:href="#rim"/>
    <path pointer-events="none" fill="none" stroke="white" stroke-width="1.5" d="M0,-3.0v7 M-2.5,-0.5L0,-3.0L2.5,-0.5"/>
  </g>
  <g id="arrowDown" transform="rotate(180) translate(-30 -48)">
    <use xlink:href="#rim"/>
    <path pointer-events="none" fill="none" stroke="white" stroke-width="1.5" d="M0,-3.0v7 M-2.5,-0.5L0,-3.0L2.5,-0.5"/>
  </g>
  <g id="arrowLeft" transform="rotate(270) translate(-36 17)">
    <use xlink:href="#rim"/>
    <path pointer-events="none" fill="none" stroke="white" stroke-width="1.5" d="M0,-3.0v7 M-2.5,-0.5L0,-3.0L2.5,-0.5"/>
  </g>
  <g id="resetDef">
    <use xlink:href="#rim2" fill="#404040"><set attributeName="fill" to="#808080" begin="reset.mouseover" end="reset.mouseout"/></use>
  </g>
</defs>
<script type="application/ecmascript">
var viewWidth = 952;
var viewHeight = 403;
var sectionId = 'dynsection-17';
</script>
<script type="application/ecmascript" xlink:href="svg.min.js"/>
<svg id="graph" class="graph">
<g id="viewport">
<title>kest_fpga_batch_append_block_register_updates</title>
<!-- Node1 -->
<g id="Node000001" class="node">
<title>Node1</title>
<g id="a_Node000001"><a xlink:title=" ">
<polygon fill="#999999" stroke="#666666" points="136.75,-136.12 0,-136.12 0,-102.62 136.75,-102.62 136.75,-136.12"/>
<text xml:space="preserve" text-anchor="start" x="8" y="-122.62" font-family="Helvetica,sans-Serif" font-size="10.00">kest_fpga_batch_append</text>
<text xml:space="preserve" text-anchor="middle" x="68.38" y="-109.88" font-family="Helvetica,sans-Serif" font-size="10.00">_block_register_updates</text>
</a>
</g>
</g>
<!-- Node2 -->
<g id="Node000002" class="node">
<title>Node2</title>
<g id="a_Node000002"><a xlink:href="kest__fixed__point_8c.html#a1580bc2204b9b5083cfb04e1e883ea35" target="_top" xlink:title=" ">
<polygon fill="white" stroke="#666666" points="300.12,-239.75 188.12,-239.75 188.12,-219 300.12,-219 300.12,-239.75"/>
<text xml:space="preserve" text-anchor="middle" x="244.12" y="-226.25" font-family="Helvetica,sans-Serif" font-size="10.00">float_to_q_nminus1</text>
</a>
</g>
</g>
<!-- Node1&#45;&gt;Node2 -->
<g id="edge1_Node000001_Node000002" class="edge">
<title>Node1&#45;&gt;Node2</title>
<g id="a_edge1_Node000001_Node000002"><a xlink:title=" ">
<path fill="none" stroke="#63b8ff" d="M84.49,-136.5C103.27,-156.74 137.18,-190.1 172.75,-209.38 176.2,-211.25 179.85,-212.96 183.6,-214.52"/>
<polygon fill="#63b8ff" stroke="#63b8ff" points="182.31,-217.78 192.9,-218.01 184.77,-211.22 182.31,-217.78"/>
</a>
</g>
</g>
<!-- Node3 -->
<g id="Node000003" class="node">
<title>Node3</title>
<g id="a_Node000003"><a xlink:href="kest__expression_8c.html#a8df028c238f29a5c5e59bcff98e28157" target="_top" xlink:title=" ">
<polygon fill="white" stroke="#666666" points="315.5,-200.75 172.75,-200.75 172.75,-180 315.5,-180 315.5,-200.75"/>
<text xml:space="preserve" text-anchor="middle" x="244.12" y="-187.25" font-family="Helvetica,sans-Serif" font-size="10.00">kest_expression_evaluate</text>
</a>
</g>
</g>
<!-- Node1&#45;&gt;Node3 -->
<g id="edge2_Node000001_Node000003" class="edge">
<title>Node1&#45;&gt;Node3</title>
<g id="a_edge2_Node000001_Node000003"><a xlink:title=" ">
<path fill="none" stroke="#63b8ff" d="M99.4,-136.51C119.65,-147.56 147.23,-161.63 172.75,-171.38 177.33,-173.12 182.13,-174.78 186.99,-176.33"/>
<polygon fill="#63b8ff" stroke="#63b8ff" points="185.61,-179.57 196.19,-179.11 187.63,-172.87 185.61,-179.57"/>
</a>
</g>
</g>
<!-- Node21 -->
<g id="Node000021" class="node">
<title>Node21</title>
<g id="a_Node000021"><a xlink:href="kest__expression_8c.html#a06fc3d0394cad5e965de056f7af84b72" target="_top" xlink:title=" ">
<polygon fill="white" stroke="#666666" points="314,-162.12 174.25,-162.12 174.25,-128.62 314,-128.62 314,-162.12"/>
<text xml:space="preserve" text-anchor="start" x="182.25" y="-148.62" font-family="Helvetica,sans-Serif" font-size="10.00">kest_expression_updated</text>
<text xml:space="preserve" text-anchor="middle" x="244.12" y="-135.88" font-family="Helvetica,sans-Serif" font-size="10.00">_in_scope</text>
</a>
</g>
</g>
<!-- Node1&#45;&gt;Node21 -->
<g id="edge12_Node000001_Node000021" class="edge">
<title>Node1&#45;&gt;Node21</title>
<g id="a_edge12_Node000001_Node000021"><a xlink:title=" ">
<path fill="none" stroke="#63b8ff" d="M137.05,-129.5C145.46,-130.76 154.13,-132.06 162.71,-133.34"/>
<polygon fill="#63b8ff" stroke="#63b8ff" points="162.01,-136.78 172.42,-134.79 163.05,-129.85 162.01,-136.78"/>
</a>
</g>
</g>
<!-- Node26 -->
<g id="Node000026" class="node">
<title>Node26</title>
<g id="a_Node000026"><a xlink:href="kest__fpga__io_8c.html#a6900c9b759f1dccf1b3535cc76ad83e3" target="_top" xlink:title=" ">
<polygon fill="white" stroke="#666666" points="312.5,-20.75 175.75,-20.75 175.75,0 312.5,0 312.5,-20.75"/>
<text xml:space="preserve" text-anchor="middle" x="244.12" y="-7.25" font-family="Helvetica,sans-Serif" font-size="10.00">kest_fpga_batch_append</text>
</a>
</g>
</g>
<!-- Node1&#45;&gt;Node26 -->
<g id="edge21_Node000001_Node000026" class="edge">
<title>Node1&#45;&gt;Node26</title>
<g id="a_edge21_Node000001_Node000026"><a xlink:title=" ">
<path fill="none" stroke="#63b8ff" d="M86.23,-102.21C105.59,-83.32 139.06,-53.15 172.75,-34.38 178.97,-30.91 185.77,-27.83 192.62,-25.12"/>
<polygon fill="#63b8ff" stroke="#63b8ff" points="193.74,-28.43 201.92,-21.69 191.32,-21.86 193.74,-28.43"/>
</a>
</g>
</g>
<!-- Node30 -->
<g id="Node000030" class="node">
<title>Node30</title>
<g id="a_Node000030"><a xlink:href="kest__fpga__io_8c.html#a1d6d30e20ceac79973b36fd12e790aa5" target="_top" xlink:title=" ">
<polygon fill="white" stroke="#666666" points="510,-61.75 356,-61.75 356,-41 510,-41 510,-61.75"/>
<text xml:space="preserve" text-anchor="middle" x="433" y="-48.25" font-family="Helvetica,sans-Serif" font-size="10.00">kest_fpga_batch_append_16</text>
</a>
</g>
</g>
<!-- Node1&#45;&gt;Node30 -->
<g id="edge25_Node000001_Node000030" class="edge">
<title>Node1&#45;&gt;Node30</title>
<g id="a_edge25_Node000001_Node000030"><a xlink:title=" ">
<path fill="none" stroke="#63b8ff" d="M95.81,-102.3C116.01,-90.21 145.02,-74.87 172.75,-67.38 228.5,-52.31 293.35,-48.32 344.24,-48.08"/>
<polygon fill="#63b8ff" stroke="#63b8ff" points="344.03,-51.58 354.03,-48.09 344.03,-44.58 344.03,-51.58"/>
</a>
</g>
</g>
<!-- Node32 -->
<g id="Node000032" class="node">
<title>Node32</title>
<g id="a_Node000032"><a xlink:href="kest__fpga__encoding_8c.html#a9b93bb2d500d5c9986515930a0f9ce47" target="_top" xlink:title=" ">
<polygon fill="white" stroke="#666666" points="312.5,-110.12 175.75,-110.12 175.75,-76.62 312.5,-76.62 312.5,-110.12"/>
<text xml:space="preserve" text-anchor="start" x="183.75" y="-96.62" font-family="Helvetica,sans-Serif" font-size="10.00">kest_fpga_batch_append</text>
<text xml:space="preserve" text-anchor="middle" x="244.12" y="-83.88" font-family="Helvetica,sans-Serif" font-size="10.00">_block_number</text>
</a>
</g>
</g>
<!-- Node1&#45;&gt;Node32 -->
<g id="edge28_Node000001_Node000032" class="edge">
<title>Node1&#45;&gt;Node32</title>
<g id="a_edge28_Node000001_Node000032"><a xlink:title=" ">
<path fill="none" stroke="#63b8ff" d="M137.05,-109.25C145.89,-107.92 155.02,-106.56 164.03,-105.21"/>
<polygon fill="#63b8ff" stroke="#63b8ff" points="164.48,-108.68 173.85,-103.74 163.45,-101.76 164.48,-108.68"/>
</a>
</g>
</g>
<!-- Node4 -->
<g id="Node000004" class="node">
<title>Node4</title>
<g id="a_Node000004"><a xlink:href="kest__expression_8c.html#aa4b7d57f1458bb40fc2d8fdab7c605fc" target="_top" xlink:title=" ">
<polygon fill="white" stroke="#666666" points="514.5,-267.75 351.5,-267.75 351.5,-247 514.5,-247 514.5,-267.75"/>
<text xml:space="preserve" text-anchor="middle" x="433" y="-254.25" font-family="Helvetica,sans-Serif" font-size="10.00">kest_expression_evaluate_rec</text>
</a>
</g>
</g>
<!-- Node3&#45;&gt;Node4 -->
<g id="edge3_Node000003_Node000004" class="edge">
<title>Node3&#45;&gt;Node4</title>
<g id="a_edge3_Node000003_Node000004"><a xlink:title=" ">
<path fill="none" stroke="#63b8ff" d="M292.21,-201.16C300.18,-203.71 308.22,-206.76 315.5,-210.38 333.42,-219.26 333.43,-228.79 351.5,-237.38 355.94,-239.48 360.62,-241.38 365.41,-243.1"/>
<polygon fill="#63b8ff" stroke="#63b8ff" points="363.96,-246.31 374.55,-246.08 366.13,-239.65 363.96,-246.31"/>
</a>
</g>
</g>
<!-- Node4&#45;&gt;Node4 -->
<g id="edge5_Node000004_Node000004" class="edge">
<title>Node4&#45;&gt;Node4</title>
<g id="a_edge5_Node000004_Node000004"><a xlink:title=" ">
<path fill="none" stroke="#63b8ff" d="M402.57,-268.15C390.39,-276.81 400.54,-285.75 433,-285.75 450.75,-285.75 461.83,-283.08 466.24,-279.24"/>
<polygon fill="#63b8ff" stroke="#63b8ff" points="469.65,-278.45 463.8,-269.61 462.86,-280.17 469.65,-278.45"/>
</a>
</g>
</g>
<!-- Node5 -->
<g id="Node000005" class="node">
<title>Node5</title>
<g id="a_Node000005"><a xlink:href="kest__error__codes_8c.html#a0f4c77127bc0b77264a21104979c576a" target="_top" xlink:title=" ">
<polygon fill="white" stroke="#666666" points="678.25,-356.12 570,-356.12 570,-322.62 678.25,-322.62 678.25,-356.12"/>
<text xml:space="preserve" text-anchor="start" x="578" y="-342.62" font-family="Helvetica,sans-Serif" font-size="10.00">kest_error_code_to</text>
<text xml:space="preserve" text-anchor="middle" x="624.12" y="-329.88" font-family="Helvetica,sans-Serif" font-size="10.00">_string</text>
</a>
</g>
</g>
<!-- Node4&#45;&gt;Node5 -->
<g id="edge4_Node000004_Node000005" class="edge">
<title>Node4&#45;&gt;Node5</title>
<g id="a_edge4_Node000004_Node000005"><a xlink:title=" ">
<path fill="none" stroke="#63b8ff" d="M458.52,-268.19C482.07,-278.55 518.68,-294.62 550.5,-308.38 557.52,-311.41 564.92,-314.59 572.22,-317.71"/>
<polygon fill="#63b8ff" stroke="#63b8ff" points="570.8,-320.92 581.37,-321.63 573.55,-314.48 570.8,-320.92"/>
</a>
</g>
</g>
<!-- Node6 -->
<g id="Node000006" class="node">
<title>Node6</title>
<g id="a_Node000006"><a xlink:href="kest__expression_8c.html#aadf2a6a074cb1ad7b45893704cbd71c3" target="_top" xlink:title=" ">
<polygon fill="#fff0f0" stroke="red" points="843.5,-235.12 733.75,-235.12 733.75,-201.62 843.5,-201.62 843.5,-235.12"/>
<text xml:space="preserve" text-anchor="start" x="741.75" y="-221.62" font-family="Helvetica,sans-Serif" font-size="10.00">kest_expression_to</text>
<text xml:space="preserve" text-anchor="middle" x="788.62" y="-208.88" font-family="Helvetica,sans-Serif" font-size="10.00">_string</text>
</a>
</g>
</g>
<!-- Node4&#45;&gt;Node6 -->
<g id="edge6_Node000004_Node000006" class="edge">
<title>Node4&#45;&gt;Node6</title>
<g id="a_edge6_Node000004_Node000006"><a xlink:title=" ">
<path fill="none" stroke="#63b8ff" d="M472.45,-268.15C524.6,-280.95 620.18,-297.9 697.75,-275.38 720.21,-268.85 742.43,-254.85 759.15,-242.35"/>
<polygon fill="#63b8ff" stroke="#63b8ff" points="760.89,-245.44 766.65,-236.55 756.6,-239.9 760.89,-245.44"/>
</a>
</g>
</g>
<!-- Node12 -->
<g id="Node000012" class="node">
<title>Node12</title>
<g id="a_Node000012"><a xlink:href="kest__expr__scope_8c.html#ab4b2ce40beae39f7dc02743730a37ec7" target="_top" xlink:title=" ">
<polygon fill="#fff0f0" stroke="red" points="697.75,-266.75 550.5,-266.75 550.5,-246 697.75,-246 697.75,-266.75"/>
<text xml:space="preserve" text-anchor="middle" x="624.12" y="-253.25" font-family="Helvetica,sans-Serif" font-size="10.00">kest_scope_entry_eval_rec</text>
</a>
</g>
</g>
<!-- Node4&#45;&gt;Node12 -->
<g id="edge7_Node000004_Node000012" class="edge">
<title>Node4&#45;&gt;Node12</title>
<g id="a_edge7_Node000004_Node000012"><a xlink:title=" ">
<path fill="none" stroke="#63b8ff" d="M514.75,-250.26C522.74,-250.15 530.86,-250.09 538.87,-250.11"/>
<polygon fill="#63b8ff" stroke="#63b8ff" points="538.59,-253.6 548.61,-250.16 538.63,-246.6 538.59,-253.6"/>
</a>
</g>
</g>
<!-- Node20 -->
<g id="Node000020" class="node">
<title>Node20</title>
<g id="a_Node000020"><a xlink:href="kest__expr__scope_8c.html#a8a0fbd22e0deccdaee632b2a95d4aee5" target="_top" xlink:title=" ">
<polygon fill="white" stroke="#666666" points="674.12,-394.75 574.12,-394.75 574.12,-374 674.12,-374 674.12,-394.75"/>
<text xml:space="preserve" text-anchor="middle" x="624.12" y="-381.25" font-family="Helvetica,sans-Serif" font-size="10.00">kest_scope_fetch</text>
</a>
</g>
</g>
<!-- Node4&#45;&gt;Node20 -->
<g id="edge10_Node000004_Node000020" class="edge">
<title>Node4&#45;&gt;Node20</title>
<g id="a_edge10_Node000004_Node000020"><a xlink:title=" ">
<path fill="none" stroke="#63b8ff" d="M442.39,-268.11C459.99,-289.88 503.11,-339.38 550.5,-365.38 554.55,-367.6 558.87,-369.57 563.31,-371.31"/>
<polygon fill="#63b8ff" stroke="#63b8ff" points="561.78,-374.49 572.38,-374.49 564.1,-367.88 561.78,-374.49"/>
</a>
</g>
</g>
<!-- Node11 -->
<g id="Node000011" class="node">
<title>Node11</title>
<g id="a_Node000011"><a xlink:href="kest__expression_8c.html#a05276e5a18cc3b52dfc8a17bb101c832" target="_top" xlink:title=" ">
<polygon fill="white" stroke="#666666" points="832.62,-155.75 744.62,-155.75 744.62,-135 832.62,-135 832.62,-155.75"/>
<text xml:space="preserve" text-anchor="middle" x="788.62" y="-142.25" font-family="Helvetica,sans-Serif" font-size="10.00">max_depth_bp</text>
</a>
</g>
</g>
<!-- Node4&#45;&gt;Node11 -->
<g id="edge11_Node000004_Node000011" class="edge">
<title>Node4&#45;&gt;Node11</title>
<g id="a_edge11_Node000004_Node000011"><a xlink:title=" ">
<path fill="none" stroke="#63b8ff" d="M480.15,-246.59C491.43,-243.77 503.44,-240.61 514.5,-237.38 598.12,-212.95 694.34,-179.19 747.34,-160.09"/>
<polygon fill="#63b8ff" stroke="#63b8ff" points="748.33,-163.46 756.55,-156.76 745.95,-156.87 748.33,-163.46"/>
</a>
</g>
</g>
<!-- Node12&#45;&gt;Node4 -->
<g id="edge8_Node000012_Node000004" class="edge">
<title>Node12&#45;&gt;Node4</title>
<g id="a_edge8_Node000012_Node000004"><a xlink:title=" ">
<path fill="none" stroke="#63b8ff" d="M550.12,-263.35C542.25,-263.51 534.17,-263.61 526.11,-263.64"/>
<polygon fill="#63b8ff" stroke="#63b8ff" points="526.27,-260.14 516.27,-263.63 526.27,-267.14 526.27,-260.14"/>
</a>
</g>
</g>
<!-- Node12&#45;&gt;Node6 -->
<g id="edge9_Node000012_Node000006" class="edge">
<title>Node12&#45;&gt;Node6</title>
<g id="a_edge9_Node000012_Node000006"><a xlink:title=" ">
<path fill="none" stroke="#63b8ff" d="M671.26,-245.59C687.11,-241.88 705.18,-237.65 722.27,-233.66"/>
<polygon fill="#63b8ff" stroke="#63b8ff" points="722.91,-237.1 731.85,-231.42 721.32,-230.29 722.91,-237.1"/>
</a>
</g>
</g>
<!-- Node21&#45;&gt;Node6 -->
<g id="edge18_Node000021_Node000006" class="edge">
<title>Node21&#45;&gt;Node6</title>
<g id="a_edge18_Node000021_Node000006"><a xlink:title=" ">
<path fill="none" stroke="#63b8ff" d="M314.33,-155.98C326.7,-157.82 339.48,-159.69 351.5,-161.38 482.89,-179.84 636.85,-199.5 722.2,-210.22"/>
<polygon fill="#63b8ff" stroke="#63b8ff" points="721.67,-213.69 732.03,-211.46 722.54,-206.74 721.67,-213.69"/>
</a>
</g>
</g>
<!-- Node22 -->
<g id="Node000022" class="node">
<title>Node22</title>
<g id="a_Node000022"><a xlink:href="kest__expression_8c.html#a4428080cc6a255e85501a259bdb4dc8a" target="_top" xlink:title=" ">
<polygon fill="white" stroke="#666666" points="490.88,-152.12 375.12,-152.12 375.12,-118.62 490.88,-118.62 490.88,-152.12"/>
<text xml:space="preserve" text-anchor="start" x="383.12" y="-138.62" font-family="Helvetica,sans-Serif" font-size="10.00">kest_expression_get</text>
<text xml:space="preserve" text-anchor="middle" x="433" y="-125.88" font-family="Helvetica,sans-Serif" font-size="10.00">_references</text>
</a>
</g>
</g>
<!-- Node21&#45;&gt;Node22 -->
<g id="edge13_Node000021_Node000022" class="edge">
<title>Node21&#45;&gt;Node22</title>
<g id="a_edge13_Node000021_Node000022"><a xlink:title=" ">
<path fill="none" stroke="#63b8ff" d="M314.44,-141.67C330.41,-140.81 347.38,-139.9 363.32,-139.05"/>
<polygon fill="#63b8ff" stroke="#63b8ff" points="363.4,-142.55 373.2,-138.52 363.03,-135.56 363.4,-142.55"/>
</a>
</g>
</g>
<!-- Node25 -->
<g id="Node000025" class="node">
<title>Node25</title>
<g id="a_Node000025"><a xlink:href="kest__expr__scope_8c.html#a4b961bc6e7b1010aacc02440ff92a605" target="_top" xlink:title=" ">
<polygon fill="white" stroke="#666666" points="484.12,-100.75 381.88,-100.75 381.88,-80 484.12,-80 484.12,-100.75"/>
<text xml:space="preserve" text-anchor="middle" x="433" y="-87.25" font-family="Helvetica,sans-Serif" font-size="10.00">kest_scope_count</text>
</a>
</g>
</g>
<!-- Node21&#45;&gt;Node25 -->
<g id="edge19_Node000021_Node000025" class="edge">
<title>Node21&#45;&gt;Node25</title>
<g id="a_edge19_Node000021_Node000025"><a xlink:title=" ">
<path fill="none" stroke="#63b8ff" d="M292.75,-128.19C311,-121.88 332.1,-114.93 351.5,-109.38 358.11,-107.48 365.07,-105.63 372.01,-103.87"/>
<polygon fill="#63b8ff" stroke="#63b8ff" points="372.51,-107.35 381.38,-101.56 370.84,-100.56 372.51,-107.35"/>
</a>
</g>
</g>
<!-- Node19 -->
<g id="Node000019" class="node">
<title>Node19</title>
<g id="a_Node000019"><a xlink:href="kest__expr__scope_8c.html#a536647952c07049da59284b9f928bd67" target="_top" xlink:title=" ">
<polygon fill="white" stroke="#666666" points="487.12,-228.75 378.88,-228.75 378.88,-208 487.12,-208 487.12,-228.75"/>
<text xml:space="preserve" text-anchor="middle" x="433" y="-215.25" font-family="Helvetica,sans-Serif" font-size="10.00">kest_scope_lookup</text>
</a>
</g>
</g>
<!-- Node21&#45;&gt;Node19 -->
<g id="edge20_Node000021_Node000019" class="edge">
<title>Node21&#45;&gt;Node19</title>
<g id="a_edge20_Node000021_Node000019"><a xlink:title=" ">
<path fill="none" stroke="#63b8ff" d="M295.66,-162.55C302.43,-165.28 309.2,-168.24 315.5,-171.38 332.5,-179.82 334.23,-186.47 351.5,-194.38 359.52,-198.04 368.24,-201.32 376.89,-204.18"/>
<polygon fill="#63b8ff" stroke="#63b8ff" points="375.7,-207.48 386.29,-207.13 377.8,-200.8 375.7,-207.48"/>
</a>
</g>
</g>
<!-- Node23 -->
<g id="Node000023" class="node">
<title>Node23</title>
<g id="a_Node000023"><a xlink:href="kest__expression_8c.html#ad94f03fbe1527e94e7f50f9d5fbda50b" target="_top" xlink:title=" ">
<polygon fill="#fff0f0" stroke="red" points="682,-134.12 566.25,-134.12 566.25,-100.62 682,-100.62 682,-134.12"/>
<text xml:space="preserve" text-anchor="start" x="574.25" y="-120.62" font-family="Helvetica,sans-Serif" font-size="10.00">kest_expression_get</text>
<text xml:space="preserve" text-anchor="middle" x="624.12" y="-107.88" font-family="Helvetica,sans-Serif" font-size="10.00">_references_rec</text>
</a>
</g>
</g>
<!-- Node22&#45;&gt;Node23 -->
<g id="edge14_Node000022_Node000023" class="edge">
<title>Node22&#45;&gt;Node23</title>
<g id="a_edge14_Node000022_Node000023"><a xlink:title=" ">
<path fill="none" stroke="#63b8ff" d="M491.26,-129.93C511.25,-128.02 533.9,-125.87 554.72,-123.89"/>
<polygon fill="#63b8ff" stroke="#63b8ff" points="554.93,-127.38 564.56,-122.95 554.27,-120.41 554.93,-127.38"/>
</a>
</g>
</g>
<!-- Node23&#45;&gt;Node6 -->
<g id="edge16_Node000023_Node000006" class="edge">
<title>Node23&#45;&gt;Node6</title>
<g id="a_edge16_Node000023_Node000006"><a xlink:title=" ">
<path fill="none" stroke="#63b8ff" d="M652.69,-134.51C679.54,-151.19 720.54,-176.68 750.3,-195.18"/>
<polygon fill="#63b8ff" stroke="#63b8ff" points="748.3,-198.05 758.64,-200.36 751.99,-192.11 748.3,-198.05"/>
</a>
</g>
</g>
<!-- Node23&#45;&gt;Node11 -->
<g id="edge17_Node000023_Node000011" class="edge">
<title>Node23&#45;&gt;Node11</title>
<g id="a_edge17_Node000023_Node000011"><a xlink:title=" ">
<path fill="none" stroke="#63b8ff" d="M682.42,-127.25C698.9,-130.09 716.83,-133.18 733.13,-135.99"/>
<polygon fill="#63b8ff" stroke="#63b8ff" points="732.19,-139.37 742.63,-137.62 733.37,-132.48 732.19,-139.37"/>
</a>
</g>
</g>
<!-- Node23&#45;&gt;Node23 -->
<g id="edge15_Node000023_Node000023" class="edge">
<title>Node23&#45;&gt;Node23</title>
<g id="a_edge15_Node000023_Node000023"><a xlink:title=" ">
<path fill="none" stroke="#63b8ff" d="M594.55,-134.54C589.53,-143.74 599.39,-152.12 624.12,-152.12 638.04,-152.12 647.25,-149.47 651.75,-145.51"/>
<polygon fill="#63b8ff" stroke="#63b8ff" points="655.13,-146.49 653.43,-136.03 648.24,-145.26 655.13,-146.49"/>
</a>
</g>
</g>
<!-- Node27 -->
<g id="Node000027" class="node">
<title>Node27</title>
<g id="a_Node000027"><a xlink:href="kest__alloc_8c.html#ac3afebacd5118241e9f677df59a469b0" target="_top" xlink:title=" ">
<polygon fill="white" stroke="#666666" points="825.88,-43.75 751.38,-43.75 751.38,-23 825.88,-23 825.88,-43.75"/>
<text xml:space="preserve" text-anchor="middle" x="788.62" y="-30.25" font-family="Helvetica,sans-Serif" font-size="10.00">kest_realloc</text>
</a>
</g>
</g>
<!-- Node26&#45;&gt;Node27 -->
<g id="edge22_Node000026_Node000027" class="edge">
<title>Node26&#45;&gt;Node27</title>
<g id="a_edge22_Node000026_Node000027"><a xlink:title=" ">
<path fill="none" stroke="#63b8ff" d="M312.99,-13.17C401.52,-16.83 561.22,-23.47 697.75,-29.38 711.27,-29.96 725.93,-30.61 739.41,-31.21"/>
<polygon fill="#63b8ff" stroke="#63b8ff" points="739.24,-34.7 749.38,-31.65 739.55,-27.71 739.24,-34.7"/>
</a>
</g>
</g>
<!-- Node28 -->
<g id="Node000028" class="node">
<title>Node28</title>
<g id="a_Node000028"><a xlink:href="kest__alloc_8c.html#a849755c5dc5b35e712ffcdb602e50fb4" target="_top" xlink:title=" ">
<polygon fill="white" stroke="#666666" points="944.25,-63.75 879.5,-63.75 879.5,-43 944.25,-43 944.25,-63.75"/>
<text xml:space="preserve" text-anchor="middle" x="911.88" y="-50.25" font-family="Helvetica,sans-Serif" font-size="10.00">kest_alloc</text>
</a>
</g>
</g>
<!-- Node27&#45;&gt;Node28 -->
<g id="edge23_Node000027_Node000028" class="edge">
<title>Node27&#45;&gt;Node28</title>
<g id="a_edge23_Node000027_Node000028"><a xlink:title=" ">
<path fill="none" stroke="#63b8ff" d="M826.33,-39.43C839.51,-41.6 854.48,-44.07 868.13,-46.32"/>
<polygon fill="#63b8ff" stroke="#63b8ff" points="867.28,-49.73 877.72,-47.91 868.42,-42.83 867.28,-49.73"/>
</a>
</g>
</g>
<!-- Node29 -->
<g id="Node000029" class="node">
<title>Node29</title>
<g id="a_Node000029"><a xlink:href="kest__alloc_8c.html#a294af5728a94aa316fcf65304d388d48" target="_top" xlink:title=" ">
<polygon fill="white" stroke="#666666" points="942.38,-24.75 881.38,-24.75 881.38,-4 942.38,-4 942.38,-24.75"/>
<text xml:space="preserve" text-anchor="middle" x="911.88" y="-11.25" font-family="Helvetica,sans-Serif" font-size="10.00">kest_free</text>
</a>
</g>
</g>
<!-- Node27&#45;&gt;Node29 -->
<g id="edge24_Node000027_Node000029" class="edge">
<title>Node27&#45;&gt;Node29</title>
<g id="a_edge24_Node000027_Node000029"><a xlink:title=" ">
<path fill="none" stroke="#63b8ff" d="M826.33,-27.62C840.19,-25.45 856.04,-22.97 870.24,-20.74"/>
<polygon fill="#63b8ff" stroke="#63b8ff" points="870.37,-24.27 879.71,-19.26 869.29,-17.35 870.37,-24.27"/>
</a>
</g>
</g>
<!-- Node31 -->
<g id="Node000031" class="node">
<title>Node31</title>
<g id="a_Node000031"><a xlink:href="kest__fpga__io_8c.html#ac4570962996cb50a17f816b060c7df8e" target="_top" xlink:title=" ">
<polygon fill="white" stroke="#666666" points="692.5,-72.12 555.75,-72.12 555.75,-38.62 692.5,-38.62 692.5,-72.12"/>
<text xml:space="preserve" text-anchor="start" x="563.75" y="-58.62" font-family="Helvetica,sans-Serif" font-size="10.00">kest_fpga_batch_append</text>
<text xml:space="preserve" text-anchor="middle" x="624.12" y="-45.88" font-family="Helvetica,sans-Serif" font-size="10.00">_bytes</text>
</a>
</g>
</g>
<!-- Node30&#45;&gt;Node31 -->
<g id="edge26_Node000030_Node000031" class="edge">
<title>Node30&#45;&gt;Node31</title>
<g id="a_edge26_Node000030_Node000031"><a xlink:title=" ">
<path fill="none" stroke="#63b8ff" d="M510.38,-52.99C521.41,-53.22 532.79,-53.46 543.88,-53.7"/>
<polygon fill="#63b8ff" stroke="#63b8ff" points="543.71,-57.2 553.79,-53.91 543.86,-50.2 543.71,-57.2"/>
</a>
</g>
</g>
<!-- Node31&#45;&gt;Node27 -->
<g id="edge27_Node000031_Node000027" class="edge">
<title>Node31&#45;&gt;Node27</title>
<g id="a_edge27_Node000031_Node000027"><a xlink:title=" ">
<path fill="none" stroke="#63b8ff" d="M692.63,-46.24C708.61,-44.07 725.32,-41.81 740.2,-39.8"/>
<polygon fill="#63b8ff" stroke="#63b8ff" points="740.23,-43.32 749.67,-38.51 739.29,-36.39 740.23,-43.32"/>
</a>
</g>
</g>
<!-- Node32&#45;&gt;Node30 -->
<g id="edge29_Node000032_Node000030" class="edge">
<title>Node32&#45;&gt;Node30</title>
<g id="a_edge29_Node000032_Node000030"><a xlink:title=" ">
<path fill="none" stroke="#63b8ff" d="M312.86,-78.15C332.41,-73.76 353.59,-69 372.6,-64.73"/>
<polygon fill="#63b8ff" stroke="#63b8ff" points="373.35,-68.14 382.34,-62.54 371.81,-61.31 373.35,-68.14"/>
</a>
</g>
</g>
</g>
</svg>

<g id="navigator" transform="translate(0 0)" fill="#404254">
  <rect fill="#f2f5e9" fill-opacity="0.5" stroke="#606060" stroke-width=".5" x="0" y="0" width="60" height="60"/>
  <use id="zoomplus" xlink:href="#zoomPlus" x="17" y="9" onmousedown="handleZoom(evt,'in')"/>
  <use id="zoomminus" xlink:href="#zoomMin" x="42" y="9" onmousedown="handleZoom(evt,'out')"/>
  <use id="reset" xlink:href="#resetDef" x="30" y="36" onmousedown="handleReset()"/>
   <use id="arrowup" xlink:href="#arrowUp" x="0" y="0" onmousedown="handlePan(0,-1)"/>
  <use id="arrowright" xlink:href="#arrowRight" x="0" y="0" onmousedown="handlePan(1,0)"/>
  <use id="arrowdown" xlink:href="#arrowDown" x="0" y="0" onmousedown="handlePan(0,1)"/>
  <use id="arrowleft" xlink:href="#arrowLeft" x="0" y="0" onmousedown="handlePan(-1,0)"/>
</g>
<svg viewBox="0 0 15 15" width="100%" height="30px" preserveAspectRatio="xMaxYMin meet">
 <g id="arrow_out" transform="scale(0.3 0.3)">
  <a xlink:href="kest__fpga__encoding_8c_a671c5c9aca5f0e8197dbccbc0dd8291c_cgraph_org.svg" target="_base">
   <rect id="button" ry="5" rx="5" y="6" x="6" height="38" width="38"
        fill="#f2f5e9" fill-opacity="0.5" stroke="#606060" stroke-width="1.0"/>
   <path id="arrow"
     d="M 11.500037,31.436501 C 11.940474,20.09759 22.043105,11.32322 32.158766,21.979434 L 37.068811,17.246167 C 37.068811,17.246167 37.088388,32 37.088388,32 L 22.160133,31.978069 C 22.160133,31.978069 26.997745,27.140456 26.997745,27.140456 C 18.528582,18.264221 13.291696,25.230495 11.500037,31.436501 z"
     style="fill:#404040;"/>
  </a>
 </g>
</svg>

<style type='text/css'>
<![CDATA[
[data-mouse-over-selected='false'] { opacity: 0.7; }
[data-mouse-over-selected='true']  { opacity: 1.0; }
]]>
</style>
<script type="application/ecmascript"><![CDATA[
document.addEventListener('DOMContentLoaded', (event) => {
  highlightEdges();
  highlightAdjacentNodes();
});
]]></script>
</svg>
