<?xml version="1.0" encoding="UTF-8" standalone="no"?>
<!DOCTYPE svg PUBLIC "-//W3C//DTD SVG 1.1//EN"
 "http://www.w3.org/Graphics/SVG/1.1/DTD/svg11.dtd">
<!-- Generated by graphviz version 13.1.2 (20250808.2320)
 -->
<!-- Title: kest_preset_move_effect Pages: 1 -->
<svg width="826pt" height="146pt"
 viewBox="0.00 0.00 826.00 146.00" xmlns="http://www.w3.org/2000/svg" xmlns:xlink="http://www.w3.org/1999/xlink">
<g id="graph0" class="graph" transform="scale(1 1) rotate(0) translate(4 141.5)">
<title>kest_preset_move_effect</title>
<!-- Node1 -->
<g id="Node000001" class="node">
<title>Node1</title>
<g id="a_Node000001"><a xlink:title=" ">
<polygon fill="#999999" stroke="#666666" points="139,-79.12 0,-79.12 0,-58.38 139,-58.38 139,-79.12"/>
<text xml:space="preserve" text-anchor="middle" x="69.5" y="-65.62" font-family="Helvetica,sans-Serif" font-size="10.00">kest_preset_move_effect</text>
</a>
</g>
</g>
<!-- Node2 -->
<g id="Node000002" class="node">
<title>Node2</title>
<g id="a_Node000002"><a xlink:href="kest__pipeline_8c.html#a09211c4b8e4f028689abc9c8a753f6e5" target="_top" xlink:title=" ">
<polygon fill="white" stroke="#666666" points="299.75,-137.5 186.25,-137.5 186.25,-104 299.75,-104 299.75,-137.5"/>
<text xml:space="preserve" text-anchor="start" x="194.25" y="-124" font-family="Helvetica,sans-Serif" font-size="10.00">kest_pipeline_move</text>
<text xml:space="preserve" text-anchor="middle" x="243" y="-111.25" font-family="Helvetica,sans-Serif" font-size="10.00">_effect</text>
</a>
</g>
</g>
<!-- Node1&#45;&gt;Node2 -->
<g id="edge1_Node000001_Node000002" class="edge">
<title>Node1&#45;&gt;Node2</title>
<g id="a_edge1_Node000001_Node000002"><a xlink:title=" ">
<path fill="none" stroke="#63b8ff" d="M106.03,-79.52C125.94,-85.56 151.42,-93.28 174.93,-100.41"/>
<polygon fill="#63b8ff" stroke="#63b8ff" points="173.88,-103.75 184.47,-103.31 175.91,-97.05 173.88,-103.75"/>
</a>
</g>
</g>
<!-- Node3 -->
<g id="Node000003" class="node">
<title>Node3</title>
<g id="a_Node000003"><a xlink:href="kest__preset_8c.html#a93371f602b25d9f4667a78815c431496" target="_top" xlink:title=" ">
<polygon fill="white" stroke="#666666" points="302.75,-85.5 183.25,-85.5 183.25,-52 302.75,-52 302.75,-85.5"/>
<text xml:space="preserve" text-anchor="start" x="191.25" y="-72" font-family="Helvetica,sans-Serif" font-size="10.00">kest_preset_if_active</text>
<text xml:space="preserve" text-anchor="middle" x="243" y="-59.25" font-family="Helvetica,sans-Serif" font-size="10.00">_reprogram_fpga</text>
</a>
</g>
</g>
<!-- Node1&#45;&gt;Node3 -->
<g id="edge2_Node000001_Node000003" class="edge">
<title>Node1&#45;&gt;Node3</title>
<g id="a_edge2_Node000001_Node000003"><a xlink:title=" ">
<path fill="none" stroke="#63b8ff" d="M139.27,-68.75C149.87,-68.75 160.84,-68.75 171.49,-68.75"/>
<polygon fill="#63b8ff" stroke="#63b8ff" points="171.37,-72.25 181.37,-68.75 171.37,-65.25 171.37,-72.25"/>
</a>
</g>
</g>
<!-- Node61 -->
<g id="Node000061" class="node">
<title>Node61</title>
<g id="a_Node000061"><a xlink:href="kest__file__task_8c.html#ac3b15345565620ef82e718bed7688b36" target="_top" xlink:title=" ">
<polygon fill="white" stroke="#666666" points="311,-34.12 175,-34.12 175,-13.38 311,-13.38 311,-34.12"/>
<text xml:space="preserve" text-anchor="middle" x="243" y="-20.62" font-family="Helvetica,sans-Serif" font-size="10.00">kest_queue_preset_save</text>
</a>
</g>
</g>
<!-- Node1&#45;&gt;Node61 -->
<g id="edge8_Node000001_Node000061" class="edge">
<title>Node1&#45;&gt;Node61</title>
<g id="a_edge8_Node000001_Node000061"><a xlink:title=" ">
<path fill="none" stroke="#63b8ff" d="M111.58,-57.97C135.06,-51.81 164.74,-44.02 189.85,-37.43"/>
<polygon fill="#63b8ff" stroke="#63b8ff" points="190.41,-40.9 199.2,-34.98 188.64,-34.13 190.41,-40.9"/>
</a>
</g>
</g>
<!-- Node4 -->
<g id="Node000004" class="node">
<title>Node4</title>
<g id="a_Node000004"><a xlink:href="kest__preset_8c.html#a5a3e12c26912d571e86fd2b5f54a2d8d" target="_top" xlink:title=" ">
<polygon fill="white" stroke="#666666" points="492.75,-79.12 347,-79.12 347,-58.38 492.75,-58.38 492.75,-79.12"/>
<text xml:space="preserve" text-anchor="middle" x="419.88" y="-65.62" font-family="Helvetica,sans-Serif" font-size="10.00">kest_preset_program_fpga</text>
</a>
</g>
</g>
<!-- Node3&#45;&gt;Node4 -->
<g id="edge3_Node000003_Node000004" class="edge">
<title>Node3&#45;&gt;Node4</title>
<g id="a_edge3_Node000003_Node000004"><a xlink:title=" ">
<path fill="none" stroke="#63b8ff" d="M303.2,-68.75C313.57,-68.75 324.54,-68.75 335.42,-68.75"/>
<polygon fill="#63b8ff" stroke="#63b8ff" points="335.18,-72.25 345.18,-68.75 335.18,-65.25 335.18,-72.25"/>
</a>
</g>
</g>
<!-- Node5 -->
<g id="Node000005" class="node">
<title>Node5</title>
<g id="a_Node000005"><a xlink:href="kest__error__codes_8c.html#a0f4c77127bc0b77264a21104979c576a" target="_top" xlink:title=" ">
<polygon fill="white" stroke="#666666" points="818,-81.5 709.75,-81.5 709.75,-48 818,-48 818,-81.5"/>
<text xml:space="preserve" text-anchor="start" x="717.75" y="-68" font-family="Helvetica,sans-Serif" font-size="10.00">kest_error_code_to</text>
<text xml:space="preserve" text-anchor="middle" x="763.88" y="-55.25" font-family="Helvetica,sans-Serif" font-size="10.00">_string</text>
</a>
</g>
</g>
<!-- Node4&#45;&gt;Node5 -->
<g id="edge4_Node000004_Node000005" class="edge">
<title>Node4&#45;&gt;Node5</title>
<g id="a_edge4_Node000004_Node000005"><a xlink:title=" ">
<path fill="none" stroke="#63b8ff" d="M456.45,-79.57C477.29,-85.34 504.26,-91.84 528.75,-94.75 592.74,-102.35 610.15,-105.17 673.75,-94.75 685.84,-92.77 698.5,-89.37 710.35,-85.56"/>
<polygon fill="#63b8ff" stroke="#63b8ff" points="711.19,-88.97 719.54,-82.46 708.95,-82.34 711.19,-88.97"/>
</a>
</g>
</g>
<!-- Node6 -->
<g id="Node000006" class="node">
<title>Node6</title>
<g id="a_Node000006"><a xlink:href="kest__fpga__comms_8c.html#aa3f94ee1fcafa0fcdc27ce70021c0f8b" target="_top" xlink:title=" ">
<polygon fill="#fff0f0" stroke="red" points="673.75,-85.5 528.75,-85.5 528.75,-52 673.75,-52 673.75,-85.5"/>
<text xml:space="preserve" text-anchor="start" x="536.75" y="-72" font-family="Helvetica,sans-Serif" font-size="10.00">kest_fpga_queue_program</text>
<text xml:space="preserve" text-anchor="middle" x="601.25" y="-59.25" font-family="Helvetica,sans-Serif" font-size="10.00">_batch</text>
</a>
</g>
</g>
<!-- Node4&#45;&gt;Node6 -->
<g id="edge5_Node000004_Node000006" class="edge">
<title>Node4&#45;&gt;Node6</title>
<g id="a_edge5_Node000004_Node000006"><a xlink:title=" ">
<path fill="none" stroke="#63b8ff" d="M493.06,-68.75C501,-68.75 509.13,-68.75 517.19,-68.75"/>
<polygon fill="#63b8ff" stroke="#63b8ff" points="516.99,-72.25 526.99,-68.75 516.99,-65.25 516.99,-72.25"/>
</a>
</g>
</g>
<!-- Node8 -->
<g id="Node000008" class="node">
<title>Node8</title>
<g id="a_Node000008"><a xlink:href="kest__pipeline_8c.html#a7bb8f92d379766cce5cdc4b68d11818f" target="_top" xlink:title=" ">
<polygon fill="#fff0f0" stroke="red" points="660.62,-33.5 541.88,-33.5 541.88,0 660.62,0 660.62,-33.5"/>
<text xml:space="preserve" text-anchor="start" x="549.88" y="-20" font-family="Helvetica,sans-Serif" font-size="10.00">kest_pipeline_create</text>
<text xml:space="preserve" text-anchor="middle" x="601.25" y="-7.25" font-family="Helvetica,sans-Serif" font-size="10.00">_fpga_transfer_batch</text>
</a>
</g>
</g>
<!-- Node4&#45;&gt;Node8 -->
<g id="edge6_Node000004_Node000008" class="edge">
<title>Node4&#45;&gt;Node8</title>
<g id="a_edge6_Node000004_Node000008"><a xlink:title=" ">
<path fill="none" stroke="#63b8ff" d="M458.04,-57.98C479.05,-51.89 505.99,-44.08 530.76,-36.89"/>
<polygon fill="#63b8ff" stroke="#63b8ff" points="531.51,-40.32 540.14,-34.18 529.56,-33.6 531.51,-40.32"/>
</a>
</g>
</g>
<!-- Node8&#45;&gt;Node5 -->
<g id="edge7_Node000008_Node000005" class="edge">
<title>Node8&#45;&gt;Node5</title>
<g id="a_edge7_Node000008_Node000005"><a xlink:title=" ">
<path fill="none" stroke="#63b8ff" d="M659.79,-33.94C672.44,-37.73 685.93,-41.76 698.82,-45.61"/>
<polygon fill="#63b8ff" stroke="#63b8ff" points="697.46,-48.85 708.04,-48.36 699.46,-42.15 697.46,-48.85"/>
</a>
</g>
</g>
</g>
</svg>
