<?xml version="1.0" encoding="UTF-8" standalone="no"?>
<!DOCTYPE svg PUBLIC "-//W3C//DTD SVG 1.1//EN"
 "http://www.w3.org/Graphics/SVG/1.1/DTD/svg11.dtd">
<!-- Generated by graphviz version 13.1.2 (20250808.2320)
 -->
<!-- Title: kest_parser_strndup Pages: 1 -->
<!--zoomable 248 -->

<svg id="main" version="1.1" xmlns="http://www.w3.org/2000/svg" xmlns:xlink="http://www.w3.org/1999/xlink" xml:space="preserve" onload="init(evt)">

<style type="text/css"><![CDATA[
.node, .edge {opacity: 0.7;}
.node.selected, .edge.selected {opacity: 1;}
.edge:hover path { stroke: red; }
.edge:hover polygon { stroke: red; fill: red; }
]]></style>

<defs>
  <circle id="rim" cx="0" cy="0" r="7"/>
  <circle id="rim2" cx="0" cy="0" r="3.5"/>
  <g id="zoomPlus">
    <use xlink:href="#rim" fill="#404040"><set attributeName="fill" to="#808080" begin="zoomplus.mouseover" end="zoomplus.mouseout"/></use>
    <path d="M-4,0h8M0,-4v8" fill="none" stroke="white" stroke-width="1.5" pointer-events="none"/>
  </g>
  <g id="zoomMin">
    <use xlink:href="#rim" fill="#404040"><set attributeName="fill" to="#808080" begin="zoomminus.mouseover" end="zoomminus.mouseout"/></use>
    <path d="M-4,0h8" fill="none" stroke="white" stroke-width="1.5" pointer-events="none"/>
  </g>
  <g id="arrowUp" transform="translate(30 24)">
    <use xlink:href="#rim"/>
    <path pointer-events="none" fill="none" stroke="white" stroke-width="1.5" d="M0,-3.0v7 M-2.5,-0.5L0,-3.0L2.5,-0.5"/>
  </g>
  <g id="arrowRight" transform="rotate(90) translate(36 -43)">
    <use xlink:href="#rim"/>
    <path pointer-events="none" fill="none" stroke="white" stroke-width="1.5" d="M0,-3.0v7 M-2.5,-0.5L0,-3.0L2.5,-0.5"/>
  </g>
  <g id="arrowDown" transform="rotate(180) translate(-30 -48)">
    <use xlink:href="#rim"/>
    <path pointer-events="none" fill="none" stroke="white" stroke-width="1.5" d="M0,-3.0v7 M-2.5,-0.5L0,-3.0L2.5,-0.5"/>
  </g>
  <g id="arrowLeft" transform="rotate(270) translate(-36 17)">
    <use xlink:href="#rim"/>
    <path pointer-events="none" fill="none" stroke="white" stroke-width="1.5" d="M0,-3.0v7 M-2.5,-0.5L0,-3.0L2.5,-0.5"/>
  </g>
  <g id="resetDef">
    <use xlink:href="#rim2" fill="#404040"><set attributeName="fill" to="#808080" begin="reset.mouseover" end="reset.mouseout"/></use>
  </g>
</defs>
<script type="application/ecmascript">
var viewWidth = 915;
var viewHeight = 248;
var sectionId = 'dynsection-18';
</script>
<script type="application/ecmascript" xlink:href="svg.min.js"/>
<svg id="graph" class="graph">
<g id="viewport">
<title>kest_parser_strndup</title>
<!-- Node1 -->
<g id="Node000001" class="node">
<title>Node1</title>
<g id="a_Node000001"><a xlink:title=" ">
<polygon fill="#999999" stroke="#666666" points="906.75,-129.46 792.5,-129.46 792.5,-108.71 906.75,-108.71 906.75,-129.46"/>
<text xml:space="preserve" text-anchor="middle" x="849.62" y="-115.96" font-family="Helvetica,sans-Serif" font-size="10.00">kest_parser_strndup</text>
</a>
</g>
</g>
<!-- Node2 -->
<g id="Node000002" class="node">
<title>Node2</title>
<g id="a_Node000002"><a xlink:href="kest__eff__parser_8c.html#a71133103b11438de3e2c438b280a9163" target="_top" xlink:title=" ">
<polygon fill="white" stroke="#666666" points="443.25,-167.46 307.25,-167.46 307.25,-146.71 443.25,-146.71 443.25,-167.46"/>
<text xml:space="preserve" text-anchor="middle" x="375.25" y="-153.96" font-family="Helvetica,sans-Serif" font-size="10.00">kest_cname_from_name</text>
</a>
</g>
</g>
<!-- Node1&#45;&gt;Node2 -->
<g id="edge1_Node000001_Node000002" class="edge">
<title>Node1&#45;&gt;Node2</title>
<g id="a_edge1_Node000001_Node000002"><a xlink:title=" ">
<path fill="none" stroke="#63b8ff" d="M781.04,-130.05C772.79,-131.18 764.46,-132.23 756.5,-133.09 647.32,-144.8 519.85,-151.42 443.72,-154.62"/>
<polygon fill="#63b8ff" stroke="#63b8ff" points="781.31,-133.55 790.71,-128.67 780.32,-126.62 781.31,-133.55"/>
</a>
</g>
</g>
<!-- Node3 -->
<g id="Node000003" class="node">
<title>Node3</title>
<g id="a_Node000003"><a xlink:href="kest__eff__parser_8c.html#a73ef6962d1925857ec3e4b12d1aad834" target="_top" xlink:title=" ">
<polygon fill="white" stroke="#666666" points="261.12,-148.46 155.12,-148.46 155.12,-127.71 261.12,-127.71 261.12,-148.46"/>
<text xml:space="preserve" text-anchor="middle" x="208.12" y="-134.96" font-family="Helvetica,sans-Serif" font-size="10.00">kest_parse_tokens</text>
</a>
</g>
</g>
<!-- Node1&#45;&gt;Node3 -->
<g id="edge16_Node000001_Node000003" class="edge">
<title>Node1&#45;&gt;Node3</title>
<g id="a_edge16_Node000001_Node000003"><a xlink:title=" ">
<path fill="none" stroke="#63b8ff" d="M780.95,-121.1C652.64,-124.91 376.53,-133.11 261.3,-136.54"/>
<polygon fill="#63b8ff" stroke="#63b8ff" points="780.75,-124.61 790.64,-120.81 780.54,-117.61 780.75,-124.61"/>
</a>
</g>
</g>
<!-- Node4 -->
<g id="Node000004" class="node">
<title>Node4</title>
<g id="a_Node000004"><a xlink:href="kest__eff__parser_8c.html#ae4618958c44389928c260fdb0e170761" target="_top" xlink:title=" ">
<polygon fill="#fff0f0" stroke="red" points="109.75,-154.84 0,-154.84 0,-121.34 109.75,-121.34 109.75,-154.84"/>
<text xml:space="preserve" text-anchor="start" x="8" y="-141.34" font-family="Helvetica,sans-Serif" font-size="10.00">kest_read_eff_desc</text>
<text xml:space="preserve" text-anchor="middle" x="54.88" y="-128.59" font-family="Helvetica,sans-Serif" font-size="10.00">_from_file</text>
</a>
</g>
</g>
<!-- Node1&#45;&gt;Node4 -->
<g id="edge17_Node000001_Node000004" class="edge">
<title>Node1&#45;&gt;Node4</title>
<g id="a_edge17_Node000001_Node000004"><a xlink:title=" ">
<path fill="none" stroke="#63b8ff" d="M835.92,-139.27C820.31,-162.1 791.54,-198.28 756.5,-215.09 670.31,-256.43 637.85,-234.09 542.25,-234.09 542.25,-234.09 542.25,-234.09 374.25,-234.09 266.29,-234.09 146.17,-182.86 89.27,-155.25"/>
<polygon fill="#63b8ff" stroke="#63b8ff" points="838.72,-141.38 841.31,-131.11 832.88,-137.53 838.72,-141.38"/>
</a>
</g>
</g>
<!-- Node15 -->
<g id="Node000015" class="node">
<title>Node15</title>
<g id="a_Node000015"><a xlink:href="kest__asm__parser_8c.html#a8a0d633256a85b35706b7a9ef1add7f0" target="_top" xlink:title=" ">
<polygon fill="white" stroke="#666666" points="756.5,-206.46 638.5,-206.46 638.5,-185.71 756.5,-185.71 756.5,-206.46"/>
<text xml:space="preserve" text-anchor="middle" x="697.5" y="-192.96" font-family="Helvetica,sans-Serif" font-size="10.00">kest_parse_asm_line</text>
</a>
</g>
</g>
<!-- Node1&#45;&gt;Node15 -->
<g id="edge4_Node000001_Node000015" class="edge">
<title>Node1&#45;&gt;Node15</title>
<g id="a_edge4_Node000001_Node000015"><a xlink:title=" ">
<path fill="none" stroke="#63b8ff" d="M821.06,-135.67C802.97,-146.3 778.64,-160.1 756.5,-171.09 746.48,-176.06 735.24,-181.03 725.34,-185.23"/>
<polygon fill="#63b8ff" stroke="#63b8ff" points="822.8,-138.71 829.62,-130.6 819.23,-132.68 822.8,-138.71"/>
</a>
</g>
</g>
<!-- Node18 -->
<g id="Node000018" class="node">
<title>Node18</title>
<g id="a_Node000018"><a xlink:href="kest__dictionary_8c.html#af0aceaa93cba06fd44ad4bc50f2418e4" target="_top" xlink:title=" ">
<polygon fill="white" stroke="#666666" points="753.5,-91.46 641.5,-91.46 641.5,-70.71 753.5,-70.71 753.5,-91.46"/>
<text xml:space="preserve" text-anchor="middle" x="697.5" y="-77.96" font-family="Helvetica,sans-Serif" font-size="10.00">kest_parse_dict_val</text>
</a>
</g>
</g>
<!-- Node1&#45;&gt;Node18 -->
<g id="edge8_Node000001_Node000018" class="edge">
<title>Node1&#45;&gt;Node18</title>
<g id="a_edge8_Node000001_Node000018"><a xlink:title=" ">
<path fill="none" stroke="#63b8ff" d="M794.99,-105.51C777.34,-101.04 757.96,-96.14 741.22,-91.9"/>
<polygon fill="#63b8ff" stroke="#63b8ff" points="793.99,-108.87 804.54,-107.93 795.7,-102.08 793.99,-108.87"/>
</a>
</g>
</g>
<!-- Node20 -->
<g id="Node000020" class="node">
<title>Node20</title>
<g id="a_Node000020"><a xlink:href="kest__dictionary_8c.html#aae3fbdeba250be8f6dd3dfa686eb24a8" target="_top" xlink:title=" ">
<polygon fill="white" stroke="#666666" points="602.5,-52.46 480,-52.46 480,-31.71 602.5,-31.71 602.5,-52.46"/>
<text xml:space="preserve" text-anchor="middle" x="541.25" y="-38.96" font-family="Helvetica,sans-Serif" font-size="10.00">kest_parse_dictionary</text>
</a>
</g>
</g>
<!-- Node1&#45;&gt;Node20 -->
<g id="edge15_Node000001_Node000020" class="edge">
<title>Node1&#45;&gt;Node20</title>
<g id="a_edge15_Node000001_Node000020"><a xlink:title=" ">
<path fill="none" stroke="#63b8ff" d="M826.62,-101.39C808.83,-88.12 782.53,-70.82 756.5,-62.09 706.56,-45.34 646.64,-40.97 602.88,-40.43"/>
<polygon fill="#63b8ff" stroke="#63b8ff" points="824.32,-104.03 834.38,-107.34 828.58,-98.47 824.32,-104.03"/>
</a>
</g>
</g>
<!-- Node22 -->
<g id="Node000022" class="node">
<title>Node22</title>
<g id="a_Node000022"><a xlink:href="kest__tokenizer_8c.html#abfb9dd70524b2bf471b98caa15f1d764" target="_top" xlink:title=" ">
<polygon fill="white" stroke="#666666" points="270.5,-71.46 145.75,-71.46 145.75,-50.71 270.5,-50.71 270.5,-71.46"/>
<text xml:space="preserve" text-anchor="middle" x="208.12" y="-57.96" font-family="Helvetica,sans-Serif" font-size="10.00">kest_tokenize_content</text>
</a>
</g>
</g>
<!-- Node1&#45;&gt;Node22 -->
<g id="edge18_Node000001_Node000022" class="edge">
<title>Node1&#45;&gt;Node22</title>
<g id="a_edge18_Node000001_Node000022"><a xlink:title=" ">
<path fill="none" stroke="#63b8ff" d="M833.15,-99.74C816.48,-80.45 788.07,-51.78 756.5,-38.09 575.87,40.24 329.46,-23.14 241.76,-50.27"/>
<polygon fill="#63b8ff" stroke="#63b8ff" points="830.28,-101.76 839.38,-107.19 835.65,-97.27 830.28,-101.76"/>
</a>
</g>
</g>
<!-- Node2&#45;&gt;Node3 -->
<g id="edge2_Node000002_Node000003" class="edge">
<title>Node2&#45;&gt;Node3</title>
<g id="a_edge2_Node000002_Node000003"><a xlink:title=" ">
<path fill="none" stroke="#63b8ff" d="M295.96,-148.08C284.29,-146.74 272.51,-145.38 261.54,-144.12"/>
<polygon fill="#63b8ff" stroke="#63b8ff" points="295.25,-151.52 305.58,-149.19 296.05,-144.57 295.25,-151.52"/>
</a>
</g>
</g>
<!-- Node3&#45;&gt;Node4 -->
<g id="edge3_Node000003_Node000004" class="edge">
<title>Node3&#45;&gt;Node4</title>
<g id="a_edge3_Node000003_Node000004"><a xlink:title=" ">
<path fill="none" stroke="#63b8ff" d="M143.29,-138.09C132.23,-138.09 120.83,-138.09 110.06,-138.09"/>
<polygon fill="#63b8ff" stroke="#63b8ff" points="143.14,-141.59 153.14,-138.09 143.14,-134.59 143.14,-141.59"/>
</a>
</g>
</g>
<!-- Node16 -->
<g id="Node000016" class="node">
<title>Node16</title>
<g id="a_Node000016"><a xlink:href="kest__asm__parser_8c.html#a1b7e03dd7589f652dec13b4b2c6d0a5c" target="_top" xlink:title=" ">
<polygon fill="white" stroke="#666666" points="588.62,-206.46 493.88,-206.46 493.88,-185.71 588.62,-185.71 588.62,-206.46"/>
<text xml:space="preserve" text-anchor="middle" x="541.25" y="-192.96" font-family="Helvetica,sans-Serif" font-size="10.00">kest_parse_asm</text>
</a>
</g>
</g>
<!-- Node15&#45;&gt;Node16 -->
<g id="edge5_Node000015_Node000016" class="edge">
<title>Node15&#45;&gt;Node16</title>
<g id="a_edge5_Node000015_Node000016"><a xlink:title=" ">
<path fill="none" stroke="#63b8ff" d="M627.02,-196.09C614.19,-196.09 601.08,-196.09 589.12,-196.09"/>
<polygon fill="#63b8ff" stroke="#63b8ff" points="626.67,-199.59 636.67,-196.09 626.67,-192.59 626.67,-199.59"/>
</a>
</g>
</g>
<!-- Node17 -->
<g id="Node000017" class="node">
<title>Node17</title>
<g id="a_Node000017"><a xlink:href="kest__eff__section_8c.html#a992e0c66572f5ffabca2203a018ea97c" target="_top" xlink:title=" ">
<polygon fill="white" stroke="#666666" points="444,-206.46 306.5,-206.46 306.5,-185.71 444,-185.71 444,-206.46"/>
<text xml:space="preserve" text-anchor="middle" x="375.25" y="-192.96" font-family="Helvetica,sans-Serif" font-size="10.00">kest_parse_code_section</text>
</a>
</g>
</g>
<!-- Node16&#45;&gt;Node17 -->
<g id="edge6_Node000016_Node000017" class="edge">
<title>Node16&#45;&gt;Node17</title>
<g id="a_edge6_Node000016_Node000017"><a xlink:title=" ">
<path fill="none" stroke="#63b8ff" d="M482.23,-196.09C469.97,-196.09 456.94,-196.09 444.35,-196.09"/>
<polygon fill="#63b8ff" stroke="#63b8ff" points="482.18,-199.59 492.18,-196.09 482.18,-192.59 482.18,-199.59"/>
</a>
</g>
</g>
<!-- Node17&#45;&gt;Node3 -->
<g id="edge7_Node000017_Node000003" class="edge">
<title>Node17&#45;&gt;Node3</title>
<g id="a_edge7_Node000017_Node000003"><a xlink:title=" ">
<path fill="none" stroke="#63b8ff" d="M324.51,-181.93C318.42,-180.04 312.3,-178.07 306.5,-176.09 281.95,-167.69 254.44,-156.82 234.94,-148.85"/>
<polygon fill="#63b8ff" stroke="#63b8ff" points="323.34,-185.23 333.93,-184.79 325.38,-178.54 323.34,-185.23"/>
</a>
</g>
</g>
<!-- Node19 -->
<g id="Node000019" class="node">
<title>Node19</title>
<g id="a_Node000019"><a xlink:href="kest__dictionary_8c.html#a8db4f9c511b00d7240052135e9c1ed67" target="_top" xlink:title=" ">
<polygon fill="white" stroke="#666666" points="597.25,-91.46 485.25,-91.46 485.25,-70.71 597.25,-70.71 597.25,-91.46"/>
<text xml:space="preserve" text-anchor="middle" x="541.25" y="-77.96" font-family="Helvetica,sans-Serif" font-size="10.00">kest_parse_dict_list</text>
</a>
</g>
</g>
<!-- Node18&#45;&gt;Node19 -->
<g id="edge9_Node000018_Node000019" class="edge">
<title>Node18&#45;&gt;Node19</title>
<g id="a_edge9_Node000018_Node000019"><a xlink:title=" ">
<path fill="none" stroke="#63b8ff" d="M629.76,-74.39C619.04,-74.28 608.05,-74.34 597.63,-74.58"/>
<polygon fill="#63b8ff" stroke="#63b8ff" points="629.68,-77.89 639.73,-74.56 629.79,-70.89 629.68,-77.89"/>
</a>
</g>
</g>
<!-- Node18&#45;&gt;Node20 -->
<g id="edge11_Node000018_Node000020" class="edge">
<title>Node18&#45;&gt;Node20</title>
<g id="a_edge11_Node000018_Node000020"><a xlink:title=" ">
<path fill="none" stroke="#63b8ff" d="M662.59,-66.81C645.07,-61.43 623.17,-55.59 602.86,-50.8"/>
<polygon fill="#63b8ff" stroke="#63b8ff" points="661.37,-70.1 671.97,-69.81 663.5,-63.43 661.37,-70.1"/>
</a>
</g>
</g>
<!-- Node19&#45;&gt;Node18 -->
<g id="edge10_Node000019_Node000018" class="edge">
<title>Node19&#45;&gt;Node18</title>
<g id="a_edge10_Node000019_Node000018"><a xlink:title=" ">
<path fill="none" stroke="#63b8ff" d="M609.12,-87.78C619.85,-87.9 630.84,-87.83 641.25,-87.59"/>
<polygon fill="#63b8ff" stroke="#63b8ff" points="609.2,-84.28 599.15,-87.62 609.09,-91.28 609.2,-84.28"/>
</a>
</g>
</g>
<!-- Node20&#45;&gt;Node18 -->
<g id="edge12_Node000020_Node000018" class="edge">
<title>Node20&#45;&gt;Node18</title>
<g id="a_edge12_Node000020_Node000018"><a xlink:title=" ">
<path fill="none" stroke="#63b8ff" d="M576.22,-56.38C595.28,-62.24 619.53,-68.63 641.25,-73.62"/>
<polygon fill="#63b8ff" stroke="#63b8ff" points="577.41,-53.09 566.82,-53.38 575.28,-59.76 577.41,-53.09"/>
</a>
</g>
</g>
<!-- Node21 -->
<g id="Node000021" class="node">
<title>Node21</title>
<g id="a_Node000021"><a xlink:href="kest__eff__section_8c.html#a4de28fb64398c9194136a2ced71e2795" target="_top" xlink:title=" ">
<polygon fill="white" stroke="#666666" points="436.5,-78.84 314,-78.84 314,-45.34 436.5,-45.34 436.5,-78.84"/>
<text xml:space="preserve" text-anchor="start" x="322" y="-65.34" font-family="Helvetica,sans-Serif" font-size="10.00">kest_parse_dictionary</text>
<text xml:space="preserve" text-anchor="middle" x="375.25" y="-52.59" font-family="Helvetica,sans-Serif" font-size="10.00">_section</text>
</a>
</g>
</g>
<!-- Node20&#45;&gt;Node21 -->
<g id="edge13_Node000020_Node000021" class="edge">
<title>Node20&#45;&gt;Node21</title>
<g id="a_edge13_Node000020_Node000021"><a xlink:title=" ">
<path fill="none" stroke="#63b8ff" d="M468.37,-50.85C457.86,-52.13 447.13,-53.44 436.88,-54.69"/>
<polygon fill="#63b8ff" stroke="#63b8ff" points="468.64,-54.35 478.15,-49.66 467.8,-47.4 468.64,-54.35"/>
</a>
</g>
</g>
<!-- Node21&#45;&gt;Node3 -->
<g id="edge14_Node000021_Node000003" class="edge">
<title>Node21&#45;&gt;Node3</title>
<g id="a_edge14_Node000021_Node000003"><a xlink:title=" ">
<path fill="none" stroke="#63b8ff" d="M326.67,-83.99C295.86,-98.17 257.07,-116.02 232.67,-127.25"/>
<polygon fill="#63b8ff" stroke="#63b8ff" points="327.79,-87.33 335.41,-79.97 324.86,-80.97 327.79,-87.33"/>
</a>
</g>
</g>
<!-- Node22&#45;&gt;Node4 -->
<g id="edge19_Node000022_Node000004" class="edge">
<title>Node22&#45;&gt;Node4</title>
<g id="a_edge19_Node000022_Node000004"><a xlink:title=" ">
<path fill="none" stroke="#63b8ff" d="M175.67,-77.1C150.54,-89.89 115.38,-107.79 89.65,-120.89"/>
<polygon fill="#63b8ff" stroke="#63b8ff" points="177.1,-80.3 184.43,-72.64 173.93,-74.06 177.1,-80.3"/>
</a>
</g>
</g>
</g>
</svg>

<g id="navigator" transform="translate(0 0)" fill="#404254">
  <rect fill="#f2f5e9" fill-opacity="0.5" stroke="#606060" stroke-width=".5" x="0" y="0" width="60" height="60"/>
  <use id="zoomplus" xlink:href="#zoomPlus" x="17" y="9" onmousedown="handleZoom(evt,'in')"/>
  <use id="zoomminus" xlink:href="#zoomMin" x="42" y="9" onmousedown="handleZoom(evt,'out')"/>
  <use id="reset" xlink:href="#resetDef" x="30" y="36" onmousedown="handleReset()"/>
   <use id="arrowup" xlink:href="#arrowUp" x="0" y="0" onmousedown="handlePan(0,-1)"/>
  <use id="arrowright" xlink:href="#arrowRight" x="0" y="0" onmousedown="handlePan(1,0)"/>
  <use id="arrowdown" xlink:href="#arrowDown" x="0" y="0" onmousedown="handlePan(0,1)"/>
  <use id="arrowleft" xlink:href="#arrowLeft" x="0" y="0" onmousedown="handlePan(-1,0)"/>
</g>
<svg viewBox="0 0 15 15" width="100%" height="30px" preserveAspectRatio="xMaxYMin meet">
 <g id="arrow_out" transform="scale(0.3 0.3)">
  <a xlink:href="kest__eff__parser_8h_a06afc65a973778a4d6bd160064e72253_icgraph_org.svg" target="_base">
   <rect id="button" ry="5" rx="5" y="6" x="6" height="38" width="38"
        fill="#f2f5e9" fill-opacity="0.5" stroke="#606060" stroke-width="1.0"/>
   <path id="arrow"
     d="M 11.500037,31.436501 C 11.940474,20.09759 22.043105,11.32322 32.158766,21.979434 L 37.068811,17.246167 C 37.068811,17.246167 37.088388,32 37.088388,32 L 22.160133,31.978069 C 22.160133,31.978069 26.997745,27.140456 26.997745,27.140456 C 18.528582,18.264221 13.291696,25.230495 11.500037,31.436501 z"
     style="fill:#404040;"/>
  </a>
 </g>
</svg>

<style type='text/css'>
<![CDATA[
[data-mouse-over-selected='false'] { opacity: 0.7; }
[data-mouse-over-selected='true']  { opacity: 1.0; }
]]>
</style>
<script type="application/ecmascript"><![CDATA[
document.addEventListener('DOMContentLoaded', (event) => {
  highlightEdges();
  highlightAdjacentNodes();
});
]]></script>
</svg>
