<?xml version="1.0" encoding="UTF-8" standalone="no"?>
<!DOCTYPE svg PUBLIC "-//W3C//DTD SVG 1.1//EN"
 "http://www.w3.org/Graphics/SVG/1.1/DTD/svg11.dtd">
<!-- Generated by graphviz version 13.1.2 (20250808.2320)
 -->
<!-- Title: preset_view_effect_click_cb Pages: 1 -->
<svg width="614pt" height="68pt"
 viewBox="0.00 0.00 614.00 68.00" xmlns="http://www.w3.org/2000/svg" xmlns:xlink="http://www.w3.org/1999/xlink">
<g id="graph0" class="graph" transform="scale(1 1) rotate(0) translate(4 63.75)">
<title>preset_view_effect_click_cb</title>
<!-- Node1 -->
<g id="Node000001" class="node">
<title>Node1</title>
<g id="a_Node000001"><a xlink:title=" ">
<polygon fill="#999999" stroke="#666666" points="109,-46.12 0,-46.12 0,-12.62 109,-12.62 109,-46.12"/>
<text xml:space="preserve" text-anchor="start" x="8" y="-32.62" font-family="Helvetica,sans-Serif" font-size="10.00">preset_view_effect</text>
<text xml:space="preserve" text-anchor="middle" x="54.5" y="-19.88" font-family="Helvetica,sans-Serif" font-size="10.00">_click_cb</text>
</a>
</g>
</g>
<!-- Node2 -->
<g id="Node000002" class="node">
<title>Node2</title>
<g id="a_Node000002"><a xlink:href="kest__ui_8c.html#a2063cd4687cffa16c46c43deaa27642f" target="_top" xlink:title=" ">
<polygon fill="white" stroke="#666666" points="278,-39.75 145,-39.75 145,-19 278,-19 278,-39.75"/>
<text xml:space="preserve" text-anchor="middle" x="211.5" y="-26.25" font-family="Helvetica,sans-Serif" font-size="10.00">enter_ui_page_forwards</text>
</a>
</g>
</g>
<!-- Node1&#45;&gt;Node2 -->
<g id="edge1_Node000001_Node000002" class="edge">
<title>Node1&#45;&gt;Node2</title>
<g id="a_edge1_Node000001_Node000002"><a xlink:title=" ">
<path fill="none" stroke="#63b8ff" d="M109.28,-29.38C117,-29.38 125.08,-29.38 133.15,-29.38"/>
<polygon fill="#63b8ff" stroke="#63b8ff" points="133.01,-32.88 143.01,-29.38 133.01,-25.88 133.01,-32.88"/>
</a>
</g>
</g>
<!-- Node3 -->
<g id="Node000003" class="node">
<title>Node3</title>
<g id="a_Node000003"><a xlink:href="kest__file__task_8c.html#adfaf58014af5199e2822cba19b1d778c" target="_top" xlink:title=" ">
<polygon fill="white" stroke="#666666" points="444,-39.75 314,-39.75 314,-19 444,-19 444,-39.75"/>
<text xml:space="preserve" text-anchor="middle" x="379" y="-26.25" font-family="Helvetica,sans-Serif" font-size="10.00">kest_queue_state_save</text>
</a>
</g>
</g>
<!-- Node2&#45;&gt;Node3 -->
<g id="edge2_Node000002_Node000003" class="edge">
<title>Node2&#45;&gt;Node3</title>
<g id="a_edge2_Node000002_Node000003"><a xlink:title=" ">
<path fill="none" stroke="#63b8ff" d="M278.39,-29.38C286.29,-29.38 294.41,-29.38 302.43,-29.38"/>
<polygon fill="#63b8ff" stroke="#63b8ff" points="302.18,-32.88 312.18,-29.38 302.18,-25.88 302.18,-32.88"/>
</a>
</g>
</g>
<!-- Node4 -->
<g id="Node000004" class="node">
<title>Node4</title>
<g id="a_Node000004"><a xlink:href="kest__state_8c.html#a816d674320b40283e9c91ed95b9282a1" target="_top" xlink:title=" ">
<polygon fill="#fff0f0" stroke="red" points="601.75,-59.75 483.75,-59.75 483.75,-39 601.75,-39 601.75,-59.75"/>
<text xml:space="preserve" text-anchor="middle" x="542.75" y="-46.25" font-family="Helvetica,sans-Serif" font-size="10.00">kest_cxt_clone_state</text>
</a>
</g>
</g>
<!-- Node3&#45;&gt;Node4 -->
<g id="edge3_Node000003_Node000004" class="edge">
<title>Node3&#45;&gt;Node4</title>
<g id="a_edge3_Node000003_Node000004"><a xlink:title=" ">
<path fill="none" stroke="#63b8ff" d="M444.39,-37.34C453.54,-38.47 462.98,-39.63 472.21,-40.78"/>
<polygon fill="#63b8ff" stroke="#63b8ff" points="471.49,-44.21 481.84,-41.97 472.35,-37.27 471.49,-44.21"/>
</a>
</g>
</g>
<!-- Node8 -->
<g id="Node000008" class="node">
<title>Node8</title>
<g id="a_Node000008"><a xlink:href="kest__global_8c.html#a8fac0ce734ee513c822edfd74bb2d69d" target="_top" xlink:title=" ">
<polygon fill="white" stroke="#666666" points="605.5,-20.75 480,-20.75 480,0 605.5,0 605.5,-20.75"/>
<text xml:space="preserve" text-anchor="middle" x="542.75" y="-7.25" font-family="Helvetica,sans-Serif" font-size="10.00">kest_system_time_ms</text>
</a>
</g>
</g>
<!-- Node3&#45;&gt;Node8 -->
<g id="edge4_Node000003_Node000008" class="edge">
<title>Node3&#45;&gt;Node8</title>
<g id="a_edge4_Node000003_Node000008"><a xlink:title=" ">
<path fill="none" stroke="#63b8ff" d="M444.39,-21.81C452.3,-20.88 460.42,-19.93 468.44,-18.99"/>
<polygon fill="#63b8ff" stroke="#63b8ff" points="468.66,-22.48 478.18,-17.84 467.84,-15.53 468.66,-22.48"/>
</a>
</g>
</g>
</g>
</svg>
