<?xml version="1.0" encoding="UTF-8" standalone="no"?>
<!DOCTYPE svg PUBLIC "-//W3C//DTD SVG 1.1//EN"
 "http://www.w3.org/Graphics/SVG/1.1/DTD/svg11.dtd">
<!-- Generated by graphviz version 13.1.2 (20250808.2320)
 -->
<!-- Title: kest_expression_evaluate Pages: 1 -->
<!--zoomable 538 -->

<svg id="main" version="1.1" xmlns="http://www.w3.org/2000/svg" xmlns:xlink="http://www.w3.org/1999/xlink" xml:space="preserve" onload="init(evt)">

<style type="text/css"><![CDATA[
.node, .edge {opacity: 0.7;}
.node.selected, .edge.selected {opacity: 1;}
.edge:hover path { stroke: red; }
.edge:hover polygon { stroke: red; fill: red; }
]]></style>

<defs>
  <circle id="rim" cx="0" cy="0" r="7"/>
  <circle id="rim2" cx="0" cy="0" r="3.5"/>
  <g id="zoomPlus">
    <use xlink:href="#rim" fill="#404040"><set attributeName="fill" to="#808080" begin="zoomplus.mouseover" end="zoomplus.mouseout"/></use>
    <path d="M-4,0h8M0,-4v8" fill="none" stroke="white" stroke-width="1.5" pointer-events="none"/>
  </g>
  <g id="zoomMin">
    <use xlink:href="#rim" fill="#404040"><set attributeName="fill" to="#808080" begin="zoomminus.mouseover" end="zoomminus.mouseout"/></use>
    <path d="M-4,0h8" fill="none" stroke="white" stroke-width="1.5" pointer-events="none"/>
  </g>
  <g id="arrowUp" transform="translate(30 24)">
    <use xlink:href="#rim"/>
    <path pointer-events="none" fill="none" stroke="white" stroke-width="1.5" d="M0,-3.0v7 M-2.5,-0.5L0,-3.0L2.5,-0.5"/>
  </g>
  <g id="arrowRight" transform="rotate(90) translate(36 -43)">
    <use xlink:href="#rim"/>
    <path pointer-events="none" fill="none" stroke="white" stroke-width="1.5" d="M0,-3.0v7 M-2.5,-0.5L0,-3.0L2.5,-0.5"/>
  </g>
  <g id="arrowDown" transform="rotate(180) translate(-30 -48)">
    <use xlink:href="#rim"/>
    <path pointer-events="none" fill="none" stroke="white" stroke-width="1.5" d="M0,-3.0v7 M-2.5,-0.5L0,-3.0L2.5,-0.5"/>
  </g>
  <g id="arrowLeft" transform="rotate(270) translate(-36 17)">
    <use xlink:href="#rim"/>
    <path pointer-events="none" fill="none" stroke="white" stroke-width="1.5" d="M0,-3.0v7 M-2.5,-0.5L0,-3.0L2.5,-0.5"/>
  </g>
  <g id="resetDef">
    <use xlink:href="#rim2" fill="#404040"><set attributeName="fill" to="#808080" begin="reset.mouseover" end="reset.mouseout"/></use>
  </g>
</defs>
<script type="application/ecmascript">
var viewWidth = 1021;
var viewHeight = 538;
var sectionId = 'dynsection-18';
</script>
<script type="application/ecmascript" xlink:href="svg.min.js"/>
<svg id="graph" class="graph">
<g id="viewport">
<title>kest_expression_evaluate</title>
<!-- Node1 -->
<g id="Node000001" class="node">
<title>Node1</title>
<g id="a_Node000001"><a xlink:title=" ">
<polygon fill="#999999" stroke="#666666" points="1013.25,-273.75 870.5,-273.75 870.5,-253 1013.25,-253 1013.25,-273.75"/>
<text xml:space="preserve" text-anchor="middle" x="941.88" y="-260.25" font-family="Helvetica,sans-Serif" font-size="10.00">kest_expression_evaluate</text>
</a>
</g>
</g>
<!-- Node2 -->
<g id="Node000002" class="node">
<title>Node2</title>
<g id="a_Node000002"><a xlink:href="kest__expression_8c.html#a146f5c5c8ecc02be0e5e695cbbc10f10" target="_top" xlink:title=" ">
<polygon fill="white" stroke="#666666" points="826.62,-512.12 683.88,-512.12 683.88,-478.62 826.62,-478.62 826.62,-512.12"/>
<text xml:space="preserve" text-anchor="start" x="691.88" y="-498.62" font-family="Helvetica,sans-Serif" font-size="10.00">kest_expression_compute</text>
<text xml:space="preserve" text-anchor="middle" x="755.25" y="-485.88" font-family="Helvetica,sans-Serif" font-size="10.00">_range_rec</text>
</a>
</g>
</g>
<!-- Node1&#45;&gt;Node2 -->
<g id="edge1_Node000001_Node000002" class="edge">
<title>Node1&#45;&gt;Node2</title>
<g id="a_edge1_Node000001_Node000002"><a xlink:title=" ">
<path fill="none" stroke="#63b8ff" d="M935.52,-285.2C924.16,-327.02 893.68,-418.77 834.5,-469.38 830.58,-472.72 826.22,-475.65 821.62,-478.19"/>
<polygon fill="#63b8ff" stroke="#63b8ff" points="938.89,-286.17 938.01,-275.61 932.11,-284.41 938.89,-286.17"/>
</a>
</g>
</g>
<!-- Node20 -->
<g id="Node000020" class="node">
<title>Node20</title>
<g id="a_Node000020"><a xlink:href="kest__dict__extract_8c.html#a449de50461a34d20bba301a90a39ec05" target="_top" xlink:title=" ">
<polygon fill="white" stroke="#666666" points="807.5,-422.12 703,-422.12 703,-388.62 807.5,-388.62 807.5,-422.12"/>
<text xml:space="preserve" text-anchor="start" x="711" y="-408.62" font-family="Helvetica,sans-Serif" font-size="10.00">kest_extract_filter</text>
<text xml:space="preserve" text-anchor="middle" x="755.25" y="-395.88" font-family="Helvetica,sans-Serif" font-size="10.00">_from_dict</text>
</a>
</g>
</g>
<!-- Node1&#45;&gt;Node20 -->
<g id="edge5_Node000001_Node000020" class="edge">
<title>Node1&#45;&gt;Node20</title>
<g id="a_edge5_Node000001_Node000020"><a xlink:title=" ">
<path fill="none" stroke="#63b8ff" d="M926.42,-283C907.63,-307.33 872.66,-348.72 834.5,-374.38 826.38,-379.84 817.14,-384.56 807.94,-388.57"/>
<polygon fill="#63b8ff" stroke="#63b8ff" points="929.08,-285.29 932.32,-275.21 923.5,-281.07 929.08,-285.29"/>
</a>
</g>
</g>
<!-- Node21 -->
<g id="Node000021" class="node">
<title>Node21</title>
<g id="a_Node000021"><a xlink:href="kest__dict__extract_8c.html#aaef489a5ae1caa02a5e5a3ce26034d48" target="_top" xlink:title=" ">
<polygon fill="white" stroke="#666666" points="821.75,-332.12 688.75,-332.12 688.75,-298.62 821.75,-298.62 821.75,-332.12"/>
<text xml:space="preserve" text-anchor="start" x="696.75" y="-318.62" font-family="Helvetica,sans-Serif" font-size="10.00">kest_extract_int_setting</text>
<text xml:space="preserve" text-anchor="middle" x="755.25" y="-305.88" font-family="Helvetica,sans-Serif" font-size="10.00">_from_dict</text>
</a>
</g>
</g>
<!-- Node1&#45;&gt;Node21 -->
<g id="edge7_Node000001_Node000021" class="edge">
<title>Node1&#45;&gt;Node21</title>
<g id="a_edge7_Node000001_Node000021"><a xlink:title=" ">
<path fill="none" stroke="#63b8ff" d="M891.8,-277.2C868.95,-283.63 841.53,-291.36 817.35,-298.17"/>
<polygon fill="#63b8ff" stroke="#63b8ff" points="892.49,-280.64 901.16,-274.56 890.59,-273.9 892.49,-280.64"/>
</a>
</g>
</g>
<!-- Node22 -->
<g id="Node000022" class="node">
<title>Node22</title>
<g id="a_Node000022"><a xlink:href="kest__dict__extract_8c.html#a0225c4392c944b41b1db66787be35243" target="_top" xlink:title=" ">
<polygon fill="white" stroke="#666666" points="626.12,-342.12 511.12,-342.12 511.12,-308.62 626.12,-308.62 626.12,-342.12"/>
<text xml:space="preserve" text-anchor="start" x="519.12" y="-328.62" font-family="Helvetica,sans-Serif" font-size="10.00">kest_extract_setting</text>
<text xml:space="preserve" text-anchor="middle" x="568.62" y="-315.88" font-family="Helvetica,sans-Serif" font-size="10.00">_from_dict</text>
</a>
</g>
</g>
<!-- Node1&#45;&gt;Node22 -->
<g id="edge17_Node000001_Node000022" class="edge">
<title>Node1&#45;&gt;Node22</title>
<g id="a_edge17_Node000001_Node000022"><a xlink:title=" ">
<path fill="none" stroke="#63b8ff" d="M923.02,-282.17C903.41,-301.3 869.98,-329.76 834.5,-341.38 765.54,-363.95 681.18,-352.69 626.46,-340.68"/>
<polygon fill="#63b8ff" stroke="#63b8ff" points="925.37,-284.76 929.94,-275.2 920.41,-279.83 925.37,-284.76"/>
</a>
</g>
</g>
<!-- Node24 -->
<g id="Node000024" class="node">
<title>Node24</title>
<g id="a_Node000024"><a xlink:href="kest__dict__extract_8c.html#ab9eb2913c5cfcd0dd01128a9b0d3be9a" target="_top" xlink:title=" ">
<polygon fill="white" stroke="#666666" points="834.5,-460.75 676,-460.75 676,-440 834.5,-440 834.5,-460.75"/>
<text xml:space="preserve" text-anchor="middle" x="755.25" y="-447.25" font-family="Helvetica,sans-Serif" font-size="10.00">kest_extract_mem_from_dict</text>
</a>
</g>
</g>
<!-- Node1&#45;&gt;Node24 -->
<g id="edge12_Node000001_Node000024" class="edge">
<title>Node1&#45;&gt;Node24</title>
<g id="a_edge12_Node000001_Node000024"><a xlink:title=" ">
<path fill="none" stroke="#63b8ff" d="M933.46,-284.76C919.81,-320.85 887.17,-393.59 834.5,-431.38 829.96,-434.63 824.92,-437.34 819.66,-439.58"/>
<polygon fill="#63b8ff" stroke="#63b8ff" points="936.72,-286.05 936.85,-275.45 930.14,-283.65 936.72,-286.05"/>
</a>
</g>
</g>
<!-- Node25 -->
<g id="Node000025" class="node">
<title>Node25</title>
<g id="a_Node000025"><a xlink:href="kest__dict__extract_8c.html#aaf0af9bba0940d4cfe5a8286222f14be" target="_top" xlink:title=" ">
<polygon fill="white" stroke="#666666" points="821.38,-280.12 689.12,-280.12 689.12,-246.62 821.38,-246.62 821.38,-280.12"/>
<text xml:space="preserve" text-anchor="start" x="697.12" y="-266.62" font-family="Helvetica,sans-Serif" font-size="10.00">kest_extract_parameter</text>
<text xml:space="preserve" text-anchor="middle" x="755.25" y="-253.88" font-family="Helvetica,sans-Serif" font-size="10.00">_from_dict</text>
</a>
</g>
</g>
<!-- Node1&#45;&gt;Node25 -->
<g id="edge14_Node000001_Node000025" class="edge">
<title>Node1&#45;&gt;Node25</title>
<g id="a_edge14_Node000001_Node000025"><a xlink:title=" ">
<path fill="none" stroke="#63b8ff" d="M858.75,-263.38C846.36,-263.38 833.74,-263.38 821.76,-263.38"/>
<polygon fill="#63b8ff" stroke="#63b8ff" points="858.51,-266.88 868.51,-263.38 858.51,-259.88 858.51,-266.88"/>
</a>
</g>
</g>
<!-- Node27 -->
<g id="Node000027" class="node">
<title>Node27</title>
<g id="a_Node000027"><a xlink:href="kest__fpga__encoding_8c.html#a671c5c9aca5f0e8197dbccbc0dd8291c" target="_top" xlink:title=" ">
<polygon fill="white" stroke="#666666" points="823.62,-228.12 686.88,-228.12 686.88,-194.62 823.62,-194.62 823.62,-228.12"/>
<text xml:space="preserve" text-anchor="start" x="694.88" y="-214.62" font-family="Helvetica,sans-Serif" font-size="10.00">kest_fpga_batch_append</text>
<text xml:space="preserve" text-anchor="middle" x="755.25" y="-201.88" font-family="Helvetica,sans-Serif" font-size="10.00">_block_register_updates</text>
</a>
</g>
</g>
<!-- Node1&#45;&gt;Node27 -->
<g id="edge18_Node000001_Node000027" class="edge">
<title>Node1&#45;&gt;Node27</title>
<g id="a_edge18_Node000001_Node000027"><a xlink:title=" ">
<path fill="none" stroke="#63b8ff" d="M891.8,-249.55C868.95,-243.12 841.53,-235.39 817.35,-228.58"/>
<polygon fill="#63b8ff" stroke="#63b8ff" points="890.59,-252.85 901.16,-252.19 892.49,-246.11 890.59,-252.85"/>
</a>
</g>
</g>
<!-- Node30 -->
<g id="Node000030" class="node">
<title>Node30</title>
<g id="a_Node000030"><a xlink:href="kest__fpga__encoding_8c.html#a48ab2470c45981ea279dd588b37c36df" target="_top" xlink:title=" ">
<polygon fill="white" stroke="#666666" points="823.62,-72.12 686.88,-72.12 686.88,-38.62 823.62,-38.62 823.62,-72.12"/>
<text xml:space="preserve" text-anchor="start" x="694.88" y="-58.62" font-family="Helvetica,sans-Serif" font-size="10.00">kest_fpga_batch_append</text>
<text xml:space="preserve" text-anchor="middle" x="755.25" y="-45.88" font-family="Helvetica,sans-Serif" font-size="10.00">_block_regs</text>
</a>
</g>
</g>
<!-- Node1&#45;&gt;Node30 -->
<g id="edge21_Node000001_Node000030" class="edge">
<title>Node1&#45;&gt;Node30</title>
<g id="a_edge21_Node000001_Node000030"><a xlink:title=" ">
<path fill="none" stroke="#63b8ff" d="M933.97,-241.75C920.77,-203.79 888.37,-125.05 834.5,-81.38 830.39,-78.04 825.83,-75.12 821.04,-72.58"/>
<polygon fill="#63b8ff" stroke="#63b8ff" points="930.61,-242.74 937.11,-251.11 937.25,-240.52 930.61,-242.74"/>
</a>
</g>
</g>
<!-- Node88 -->
<g id="Node000088" class="node">
<title>Node88</title>
<g id="a_Node000088"><a xlink:href="kest__fpga__encoding_8c.html#a64f5333c5ff60101795695bce0de75d5" target="_top" xlink:title=" ">
<polygon fill="white" stroke="#666666" points="823.62,-176.12 686.88,-176.12 686.88,-142.62 823.62,-142.62 823.62,-176.12"/>
<text xml:space="preserve" text-anchor="start" x="694.88" y="-162.62" font-family="Helvetica,sans-Serif" font-size="10.00">kest_fpga_batch_append</text>
<text xml:space="preserve" text-anchor="middle" x="755.25" y="-149.88" font-family="Helvetica,sans-Serif" font-size="10.00">_filter_updates</text>
</a>
</g>
</g>
<!-- Node1&#45;&gt;Node88 -->
<g id="edge25_Node000001_Node000088" class="edge">
<title>Node1&#45;&gt;Node88</title>
<g id="a_edge25_Node000001_Node000088"><a xlink:title=" ">
<path fill="none" stroke="#63b8ff" d="M920.45,-245.36C899.92,-228.03 866.79,-202.05 834.5,-185.38 828.27,-182.16 821.55,-179.22 814.77,-176.57"/>
<polygon fill="#63b8ff" stroke="#63b8ff" points="917.93,-247.81 927.79,-251.67 922.49,-242.5 917.93,-247.81"/>
</a>
</g>
</g>
<!-- Node91 -->
<g id="Node000091" class="node">
<title>Node91</title>
<g id="a_Node000091"><a xlink:href="kest__fpga__encoding_8c.html#aa82f7b9cb7a332e38a8a810376eea489" target="_top" xlink:title=" ">
<polygon fill="white" stroke="#666666" points="823.62,-124.12 686.88,-124.12 686.88,-90.62 823.62,-90.62 823.62,-124.12"/>
<text xml:space="preserve" text-anchor="start" x="694.88" y="-110.62" font-family="Helvetica,sans-Serif" font-size="10.00">kest_fpga_batch_append</text>
<text xml:space="preserve" text-anchor="middle" x="755.25" y="-97.88" font-family="Helvetica,sans-Serif" font-size="10.00">_resource</text>
</a>
</g>
</g>
<!-- Node1&#45;&gt;Node91 -->
<g id="edge29_Node000001_Node000091" class="edge">
<title>Node1&#45;&gt;Node91</title>
<g id="a_edge29_Node000001_Node000091"><a xlink:title=" ">
<path fill="none" stroke="#63b8ff" d="M929.24,-242.83C912.07,-214.29 877.31,-162.85 834.5,-133.38 829.67,-130.05 824.37,-127.12 818.89,-124.55"/>
<polygon fill="#63b8ff" stroke="#63b8ff" points="926.1,-244.39 934.18,-251.25 932.14,-240.85 926.1,-244.39"/>
</a>
</g>
</g>
<!-- Node93 -->
<g id="Node000093" class="node">
<title>Node93</title>
<g id="a_Node000093"><a xlink:href="kest__asm__parser_8c.html#a2631a3bf92814826b04c07694026a878" target="_top" xlink:title=" ">
<polygon fill="white" stroke="#666666" points="819.5,-20.75 691,-20.75 691,0 819.5,0 819.5,-20.75"/>
<text xml:space="preserve" text-anchor="middle" x="755.25" y="-7.25" font-family="Helvetica,sans-Serif" font-size="10.00">kest_process_asm_line</text>
</a>
</g>
</g>
<!-- Node1&#45;&gt;Node93 -->
<g id="edge32_Node000001_Node000093" class="edge">
<title>Node1&#45;&gt;Node93</title>
<g id="a_edge32_Node000001_Node000093"><a xlink:title=" ">
<path fill="none" stroke="#63b8ff" d="M937.43,-241.36C928.95,-194.72 902.53,-85.66 834.5,-29.38 830.08,-25.72 825.07,-22.75 819.78,-20.34"/>
<polygon fill="#63b8ff" stroke="#63b8ff" points="933.95,-241.76 939.08,-251.03 940.85,-240.58 933.95,-241.76"/>
</a>
</g>
</g>
<!-- Node2&#45;&gt;Node2 -->
<g id="edge4_Node000002_Node000002" class="edge">
<title>Node2&#45;&gt;Node2</title>
<g id="a_edge4_Node000002_Node000002"><a xlink:title=" ">
<path fill="none" stroke="#63b8ff" d="M786.59,-523.51C781.48,-527.47 771.04,-530.12 755.25,-530.12 727.18,-530.12 716,-521.74 721.7,-512.54"/>
<polygon fill="#63b8ff" stroke="#63b8ff" points="789.95,-524.52 788.5,-514.02 783.09,-523.13 789.95,-524.52"/>
</a>
</g>
</g>
<!-- Node3 -->
<g id="Node000003" class="node">
<title>Node3</title>
<g id="a_Node000003"><a xlink:href="kest__expression_8c.html#a619ffc9c55b8a65d5681d740b8738598" target="_top" xlink:title=" ">
<polygon fill="white" stroke="#666666" points="640,-512.12 497.25,-512.12 497.25,-478.62 640,-478.62 640,-512.12"/>
<text xml:space="preserve" text-anchor="start" x="505.25" y="-498.62" font-family="Helvetica,sans-Serif" font-size="10.00">kest_expression_compute</text>
<text xml:space="preserve" text-anchor="middle" x="568.62" y="-485.88" font-family="Helvetica,sans-Serif" font-size="10.00">_range</text>
</a>
</g>
</g>
<!-- Node2&#45;&gt;Node3 -->
<g id="edge2_Node000002_Node000003" class="edge">
<title>Node2&#45;&gt;Node3</title>
<g id="a_edge2_Node000002_Node000003"><a xlink:title=" ">
<path fill="none" stroke="#63b8ff" d="M672.01,-495.38C661.43,-495.38 650.66,-495.38 640.29,-495.38"/>
<polygon fill="#63b8ff" stroke="#63b8ff" points="671.88,-498.88 681.88,-495.38 671.88,-491.88 671.88,-498.88"/>
</a>
</g>
</g>
<!-- Node4 -->
<g id="Node000004" class="node">
<title>Node4</title>
<g id="a_Node000004"><a xlink:href="kest__fixed__point_8c.html#aadbad80611ec55e1e488a3740c578c8b" target="_top" xlink:title=" ">
<polygon fill="#fff0f0" stroke="red" points="461.25,-512.12 318.5,-512.12 318.5,-478.62 461.25,-478.62 461.25,-512.12"/>
<text xml:space="preserve" text-anchor="start" x="326.5" y="-498.62" font-family="Helvetica,sans-Serif" font-size="10.00">kest_expression_compute</text>
<text xml:space="preserve" text-anchor="middle" x="389.88" y="-485.88" font-family="Helvetica,sans-Serif" font-size="10.00">_format</text>
</a>
</g>
</g>
<!-- Node3&#45;&gt;Node4 -->
<g id="edge3_Node000003_Node000004" class="edge">
<title>Node3&#45;&gt;Node4</title>
<g id="a_edge3_Node000003_Node000004"><a xlink:title=" ">
<path fill="none" stroke="#63b8ff" d="M485.48,-495.38C477.46,-495.38 469.37,-495.38 461.48,-495.38"/>
<polygon fill="#63b8ff" stroke="#63b8ff" points="485.24,-498.88 495.24,-495.38 485.24,-491.88 485.24,-498.88"/>
</a>
</g>
</g>
<!-- Node14 -->
<g id="Node000014" class="node">
<title>Node14</title>
<g id="a_Node000014"><a xlink:href="kest__dict__extract_8c.html#ad78dabb9f962180138c9dfc2bf1731e3" target="_top" xlink:title=" ">
<polygon fill="#fff0f0" stroke="red" points="630.25,-441.12 507,-441.12 507,-407.62 630.25,-407.62 630.25,-441.12"/>
<text xml:space="preserve" text-anchor="start" x="515" y="-427.62" font-family="Helvetica,sans-Serif" font-size="10.00">kest_extract_resource</text>
<text xml:space="preserve" text-anchor="middle" x="568.62" y="-414.88" font-family="Helvetica,sans-Serif" font-size="10.00">_from_dict</text>
</a>
</g>
</g>
<!-- Node20&#45;&gt;Node14 -->
<g id="edge6_Node000020_Node000014" class="edge">
<title>Node20&#45;&gt;Node14</title>
<g id="a_edge6_Node000020_Node000014"><a xlink:title=" ">
<path fill="none" stroke="#63b8ff" d="M691.5,-411.83C671.82,-413.86 650.14,-416.09 630.59,-418.1"/>
<polygon fill="#63b8ff" stroke="#63b8ff" points="691.73,-415.33 701.32,-410.82 691.01,-408.36 691.73,-415.33"/>
</a>
</g>
</g>
<!-- Node21&#45;&gt;Node22 -->
<g id="edge8_Node000021_Node000022" class="edge">
<title>Node21&#45;&gt;Node22</title>
<g id="a_edge8_Node000021_Node000022"><a xlink:title=" ">
<path fill="none" stroke="#63b8ff" d="M677.34,-319.54C660.34,-320.46 642.63,-321.42 626.6,-322.29"/>
<polygon fill="#63b8ff" stroke="#63b8ff" points="677.07,-323.06 686.87,-319.02 676.69,-316.07 677.07,-323.06"/>
</a>
</g>
</g>
<!-- Node23 -->
<g id="Node000023" class="node">
<title>Node23</title>
<g id="a_Node000023"><a xlink:href="kest__eff__section_8c.html#ac86840256c51c90c1c1066da9b88e7af" target="_top" xlink:title=" ">
<polygon fill="white" stroke="#666666" points="450.38,-342.12 329.38,-342.12 329.38,-308.62 450.38,-308.62 450.38,-342.12"/>
<text xml:space="preserve" text-anchor="start" x="337.38" y="-328.62" font-family="Helvetica,sans-Serif" font-size="10.00">kest_settings_section</text>
<text xml:space="preserve" text-anchor="middle" x="389.88" y="-315.88" font-family="Helvetica,sans-Serif" font-size="10.00">_extract</text>
</a>
</g>
</g>
<!-- Node22&#45;&gt;Node23 -->
<g id="edge9_Node000022_Node000023" class="edge">
<title>Node22&#45;&gt;Node23</title>
<g id="a_edge9_Node000022_Node000023"><a xlink:title=" ">
<path fill="none" stroke="#63b8ff" d="M499.26,-325.38C483.25,-325.38 466.32,-325.38 450.71,-325.38"/>
<polygon fill="#63b8ff" stroke="#63b8ff" points="499.21,-328.88 509.21,-325.38 499.21,-321.88 499.21,-328.88"/>
</a>
</g>
</g>
<!-- Node16 -->
<g id="Node000016" class="node">
<title>Node16</title>
<g id="a_Node000016"><a xlink:href="kest__eff__parser_8c.html#a73ef6962d1925857ec3e4b12d1aad834" target="_top" xlink:title=" ">
<polygon fill="white" stroke="#666666" points="267.12,-283.75 161.12,-283.75 161.12,-263 267.12,-263 267.12,-283.75"/>
<text xml:space="preserve" text-anchor="middle" x="214.12" y="-270.25" font-family="Helvetica,sans-Serif" font-size="10.00">kest_parse_tokens</text>
</a>
</g>
</g>
<!-- Node23&#45;&gt;Node16 -->
<g id="edge10_Node000023_Node000016" class="edge">
<title>Node23&#45;&gt;Node16</title>
<g id="a_edge10_Node000023_Node000016"><a xlink:title=" ">
<path fill="none" stroke="#63b8ff" d="M320.47,-304.9C296.9,-297.85 271.43,-290.23 251.44,-284.24"/>
<polygon fill="#63b8ff" stroke="#63b8ff" points="319.47,-308.26 330.05,-307.77 321.47,-301.55 319.47,-308.26"/>
</a>
</g>
</g>
<!-- Node7 -->
<g id="Node000007" class="node">
<title>Node7</title>
<g id="a_Node000007"><a xlink:href="kest__eff__parser_8c.html#ae4618958c44389928c260fdb0e170761" target="_top" xlink:title=" ">
<polygon fill="#fff0f0" stroke="red" points="109.75,-159.12 0,-159.12 0,-125.62 109.75,-125.62 109.75,-159.12"/>
<text xml:space="preserve" text-anchor="start" x="8" y="-145.62" font-family="Helvetica,sans-Serif" font-size="10.00">kest_read_eff_desc</text>
<text xml:space="preserve" text-anchor="middle" x="54.88" y="-132.88" font-family="Helvetica,sans-Serif" font-size="10.00">_from_file</text>
</a>
</g>
</g>
<!-- Node16&#45;&gt;Node7 -->
<g id="edge11_Node000016_Node000007" class="edge">
<title>Node16&#45;&gt;Node7</title>
<g id="a_edge11_Node000016_Node000007"><a xlink:title=" ">
<path fill="none" stroke="#63b8ff" d="M191.7,-255.53C161.39,-230.28 106.37,-184.44 76.5,-159.56"/>
<polygon fill="#63b8ff" stroke="#63b8ff" points="189.17,-257.97 199.09,-261.69 193.65,-252.6 189.17,-257.97"/>
</a>
</g>
</g>
<!-- Node24&#45;&gt;Node14 -->
<g id="edge13_Node000024_Node000014" class="edge">
<title>Node24&#45;&gt;Node14</title>
<g id="a_edge13_Node000024_Node000014"><a xlink:title=" ">
<path fill="none" stroke="#63b8ff" d="M665.92,-437.94C654.01,-436.26 642.02,-434.57 630.72,-432.98"/>
<polygon fill="#63b8ff" stroke="#63b8ff" points="665.4,-441.4 675.79,-439.33 666.38,-434.47 665.4,-441.4"/>
</a>
</g>
</g>
<!-- Node26 -->
<g id="Node000026" class="node">
<title>Node26</title>
<g id="a_Node000026"><a xlink:href="kest__eff__section_8c.html#a5fe6d5cd354aa8f4322524ecc9b6af63" target="_top" xlink:title=" ">
<polygon fill="white" stroke="#666666" points="459,-290.12 320.75,-290.12 320.75,-256.62 459,-256.62 459,-290.12"/>
<text xml:space="preserve" text-anchor="start" x="328.75" y="-276.62" font-family="Helvetica,sans-Serif" font-size="10.00">kest_parameters_section</text>
<text xml:space="preserve" text-anchor="middle" x="389.88" y="-263.88" font-family="Helvetica,sans-Serif" font-size="10.00">_extract</text>
</a>
</g>
</g>
<!-- Node25&#45;&gt;Node26 -->
<g id="edge15_Node000025_Node000026" class="edge">
<title>Node25&#45;&gt;Node26</title>
<g id="a_edge15_Node000025_Node000026"><a xlink:title=" ">
<path fill="none" stroke="#63b8ff" d="M677.54,-265.49C613.01,-267.26 521.57,-269.78 459.44,-271.49"/>
<polygon fill="#63b8ff" stroke="#63b8ff" points="677.45,-268.99 687.35,-265.22 677.26,-261.99 677.45,-268.99"/>
</a>
</g>
</g>
<!-- Node26&#45;&gt;Node16 -->
<g id="edge16_Node000026_Node000016" class="edge">
<title>Node26&#45;&gt;Node16</title>
<g id="a_edge16_Node000026_Node000016"><a xlink:title=" ">
<path fill="none" stroke="#63b8ff" d="M309.4,-273.38C295.19,-273.38 280.72,-273.38 267.52,-273.38"/>
<polygon fill="#63b8ff" stroke="#63b8ff" points="309.19,-276.88 319.19,-273.38 309.19,-269.88 309.19,-276.88"/>
</a>
</g>
</g>
<!-- Node28 -->
<g id="Node000028" class="node">
<title>Node28</title>
<g id="a_Node000028"><a xlink:href="kest__fpga__encoding_8c.html#a2f82b2c396c41026c378670b04592a6b" target="_top" xlink:title=" ">
<polygon fill="white" stroke="#666666" points="451.5,-238.5 328.25,-238.5 328.25,-192.25 451.5,-192.25 451.5,-238.5"/>
<text xml:space="preserve" text-anchor="start" x="336.25" y="-225" font-family="Helvetica,sans-Serif" font-size="10.00">kest_fpga_transfer</text>
<text xml:space="preserve" text-anchor="start" x="336.25" y="-212.25" font-family="Helvetica,sans-Serif" font-size="10.00">_batch_append_effect</text>
<text xml:space="preserve" text-anchor="middle" x="389.88" y="-199.5" font-family="Helvetica,sans-Serif" font-size="10.00">_register_updates</text>
</a>
</g>
</g>
<!-- Node27&#45;&gt;Node28 -->
<g id="edge19_Node000027_Node000028" class="edge">
<title>Node27&#45;&gt;Node28</title>
<g id="a_edge19_Node000027_Node000028"><a xlink:title=" ">
<path fill="none" stroke="#63b8ff" d="M675.41,-212.24C608.34,-212.98 513.39,-214.03 451.96,-214.7"/>
<polygon fill="#63b8ff" stroke="#63b8ff" points="675.28,-215.74 685.24,-212.13 675.2,-208.75 675.28,-215.74"/>
</a>
</g>
</g>
<!-- Node29 -->
<g id="Node000029" class="node">
<title>Node29</title>
<g id="a_Node000029"><a xlink:href="kest__effect_8c.html#a490655823471fa9f081e6252b13da30e" target="_top" xlink:title=" ">
<polygon fill="white" stroke="#666666" points="282.12,-193.75 146.12,-193.75 146.12,-173 282.12,-173 282.12,-193.75"/>
<text xml:space="preserve" text-anchor="middle" x="214.12" y="-180.25" font-family="Helvetica,sans-Serif" font-size="10.00">kest_effect_update_fpga</text>
</a>
</g>
</g>
<!-- Node28&#45;&gt;Node29 -->
<g id="edge20_Node000028_Node000029" class="edge">
<title>Node28&#45;&gt;Node29</title>
<g id="a_edge20_Node000028_Node000029"><a xlink:title=" ">
<path fill="none" stroke="#63b8ff" d="M316.84,-202.11C302.61,-199.49 287.84,-196.77 274.1,-194.24"/>
<polygon fill="#63b8ff" stroke="#63b8ff" points="316.15,-205.54 326.62,-203.91 317.42,-198.66 316.15,-205.54"/>
</a>
</g>
</g>
<!-- Node31 -->
<g id="Node000031" class="node">
<title>Node31</title>
<g id="a_Node000031"><a xlink:href="kest__fpga__encoding_8c.html#a24f2c777ab7078a8261d0fcee4aaf738" target="_top" xlink:title=" ">
<polygon fill="white" stroke="#666666" points="637,-72.12 500.25,-72.12 500.25,-38.62 637,-38.62 637,-72.12"/>
<text xml:space="preserve" text-anchor="start" x="508.25" y="-58.62" font-family="Helvetica,sans-Serif" font-size="10.00">kest_fpga_batch_append</text>
<text xml:space="preserve" text-anchor="middle" x="568.62" y="-45.88" font-family="Helvetica,sans-Serif" font-size="10.00">_block</text>
</a>
</g>
</g>
<!-- Node30&#45;&gt;Node31 -->
<g id="edge22_Node000030_Node000031" class="edge">
<title>Node30&#45;&gt;Node31</title>
<g id="a_edge22_Node000030_Node000031"><a xlink:title=" ">
<path fill="none" stroke="#63b8ff" d="M675.11,-55.38C662.53,-55.38 649.61,-55.38 637.32,-55.38"/>
<polygon fill="#63b8ff" stroke="#63b8ff" points="675.04,-58.88 685.04,-55.38 675.04,-51.88 675.04,-58.88"/>
</a>
</g>
</g>
<!-- Node32 -->
<g id="Node000032" class="node">
<title>Node32</title>
<g id="a_Node000032"><a xlink:href="kest__fpga__encoding_8c.html#aaa459b3fe0bc706c415180f6ac35d7c3" target="_top" xlink:title=" ">
<polygon fill="white" stroke="#666666" points="458.25,-72.12 321.5,-72.12 321.5,-38.62 458.25,-38.62 458.25,-72.12"/>
<text xml:space="preserve" text-anchor="start" x="329.5" y="-58.62" font-family="Helvetica,sans-Serif" font-size="10.00">kest_fpga_batch_append</text>
<text xml:space="preserve" text-anchor="middle" x="389.88" y="-45.88" font-family="Helvetica,sans-Serif" font-size="10.00">_blocks</text>
</a>
</g>
</g>
<!-- Node31&#45;&gt;Node32 -->
<g id="edge23_Node000031_Node000032" class="edge">
<title>Node31&#45;&gt;Node32</title>
<g id="a_edge23_Node000031_Node000032"><a xlink:title=" ">
<path fill="none" stroke="#63b8ff" d="M488.57,-55.38C478.54,-55.38 468.35,-55.38 458.52,-55.38"/>
<polygon fill="#63b8ff" stroke="#63b8ff" points="488.28,-58.88 498.28,-55.38 488.28,-51.88 488.28,-58.88"/>
</a>
</g>
</g>
<!-- Node33 -->
<g id="Node000033" class="node">
<title>Node33</title>
<g id="a_Node000033"><a xlink:href="kest__fpga__encoding_8c.html#a443f946c065dedfb5afd510d362a931a" target="_top" xlink:title=" ">
<polygon fill="#fff0f0" stroke="red" points="282.5,-95.12 145.75,-95.12 145.75,-61.62 282.5,-61.62 282.5,-95.12"/>
<text xml:space="preserve" text-anchor="start" x="153.75" y="-81.62" font-family="Helvetica,sans-Serif" font-size="10.00">kest_fpga_batch_append</text>
<text xml:space="preserve" text-anchor="middle" x="214.12" y="-68.88" font-family="Helvetica,sans-Serif" font-size="10.00">_eff_desc</text>
</a>
</g>
</g>
<!-- Node32&#45;&gt;Node33 -->
<g id="edge24_Node000032_Node000033" class="edge">
<title>Node32&#45;&gt;Node33</title>
<g id="a_edge24_Node000032_Node000033"><a xlink:title=" ">
<path fill="none" stroke="#63b8ff" d="M309.88,-65.83C300.87,-67.02 291.75,-68.23 282.9,-69.4"/>
<polygon fill="#63b8ff" stroke="#63b8ff" points="310.25,-69.31 319.7,-64.53 309.33,-62.37 310.25,-69.31"/>
</a>
</g>
</g>
<!-- Node89 -->
<g id="Node000089" class="node">
<title>Node89</title>
<g id="a_Node000089"><a xlink:href="kest__fpga__encoding_8c.html#ac394803c8e9221fd364038f343070fcb" target="_top" xlink:title=" ">
<polygon fill="white" stroke="#666666" points="637,-176.12 500.25,-176.12 500.25,-142.62 637,-142.62 637,-176.12"/>
<text xml:space="preserve" text-anchor="start" x="508.25" y="-162.62" font-family="Helvetica,sans-Serif" font-size="10.00">kest_fpga_batch_append</text>
<text xml:space="preserve" text-anchor="middle" x="568.62" y="-149.88" font-family="Helvetica,sans-Serif" font-size="10.00">_resource_updates</text>
</a>
</g>
</g>
<!-- Node88&#45;&gt;Node89 -->
<g id="edge26_Node000088_Node000089" class="edge">
<title>Node88&#45;&gt;Node89</title>
<g id="a_edge26_Node000088_Node000089"><a xlink:title=" ">
<path fill="none" stroke="#63b8ff" d="M675.11,-159.38C662.53,-159.38 649.61,-159.38 637.32,-159.38"/>
<polygon fill="#63b8ff" stroke="#63b8ff" points="675.04,-162.88 685.04,-159.38 675.04,-155.88 675.04,-162.88"/>
</a>
</g>
</g>
<!-- Node90 -->
<g id="Node000090" class="node">
<title>Node90</title>
<g id="a_Node000090"><a xlink:href="kest__fpga__encoding_8c.html#a815f4fb2e5a9d1e468df416e3385a638" target="_top" xlink:title=" ">
<polygon fill="white" stroke="#666666" points="451.5,-174.5 328.25,-174.5 328.25,-128.25 451.5,-128.25 451.5,-174.5"/>
<text xml:space="preserve" text-anchor="start" x="336.25" y="-161" font-family="Helvetica,sans-Serif" font-size="10.00">kest_fpga_transfer</text>
<text xml:space="preserve" text-anchor="start" x="336.25" y="-148.25" font-family="Helvetica,sans-Serif" font-size="10.00">_batch_append_effect</text>
<text xml:space="preserve" text-anchor="middle" x="389.88" y="-135.5" font-family="Helvetica,sans-Serif" font-size="10.00">_resource_updates</text>
</a>
</g>
</g>
<!-- Node89&#45;&gt;Node90 -->
<g id="edge27_Node000089_Node000090" class="edge">
<title>Node89&#45;&gt;Node90</title>
<g id="a_edge27_Node000089_Node000090"><a xlink:title=" ">
<path fill="none" stroke="#63b8ff" d="M488.58,-155.8C476.27,-155.24 463.71,-154.67 451.87,-154.14"/>
<polygon fill="#63b8ff" stroke="#63b8ff" points="488.13,-159.28 498.28,-156.24 488.45,-152.29 488.13,-159.28"/>
</a>
</g>
</g>
<!-- Node90&#45;&gt;Node29 -->
<g id="edge28_Node000090_Node000029" class="edge">
<title>Node90&#45;&gt;Node29</title>
<g id="a_edge28_Node000090_Node000029"><a xlink:title=" ">
<path fill="none" stroke="#63b8ff" d="M316.84,-164.64C302.61,-167.26 287.84,-169.98 274.1,-172.51"/>
<polygon fill="#63b8ff" stroke="#63b8ff" points="317.42,-168.09 326.62,-162.84 316.15,-161.21 317.42,-168.09"/>
</a>
</g>
</g>
<!-- Node92 -->
<g id="Node000092" class="node">
<title>Node92</title>
<g id="a_Node000092"><a xlink:href="kest__fpga__encoding_8c.html#ac29c0fe9f8b2cfd9ca5df8aa2f65eb20" target="_top" xlink:title=" ">
<polygon fill="white" stroke="#666666" points="637,-124.12 500.25,-124.12 500.25,-90.62 637,-90.62 637,-124.12"/>
<text xml:space="preserve" text-anchor="start" x="508.25" y="-110.62" font-family="Helvetica,sans-Serif" font-size="10.00">kest_fpga_batch_append</text>
<text xml:space="preserve" text-anchor="middle" x="568.62" y="-97.88" font-family="Helvetica,sans-Serif" font-size="10.00">_resources</text>
</a>
</g>
</g>
<!-- Node91&#45;&gt;Node92 -->
<g id="edge30_Node000091_Node000092" class="edge">
<title>Node91&#45;&gt;Node92</title>
<g id="a_edge30_Node000091_Node000092"><a xlink:title=" ">
<path fill="none" stroke="#63b8ff" d="M675.11,-107.38C662.53,-107.38 649.61,-107.38 637.32,-107.38"/>
<polygon fill="#63b8ff" stroke="#63b8ff" points="675.04,-110.88 685.04,-107.38 675.04,-103.88 675.04,-110.88"/>
</a>
</g>
</g>
<!-- Node92&#45;&gt;Node33 -->
<g id="edge31_Node000092_Node000033" class="edge">
<title>Node92&#45;&gt;Node33</title>
<g id="a_edge31_Node000092_Node000033"><a xlink:title=" ">
<path fill="none" stroke="#63b8ff" d="M488.8,-100.89C426.88,-95.8 341.58,-88.78 282.74,-83.94"/>
<polygon fill="#63b8ff" stroke="#63b8ff" points="488.31,-104.36 498.57,-101.69 488.89,-97.39 488.31,-104.36"/>
</a>
</g>
</g>
<!-- Node94 -->
<g id="Node000094" class="node">
<title>Node94</title>
<g id="a_Node000094"><a xlink:href="kest__asm__parser_8c.html#ae59ff30494de598aa24df2c421eff7f7" target="_top" xlink:title=" ">
<polygon fill="white" stroke="#666666" points="281,-32.75 147.25,-32.75 147.25,-12 281,-12 281,-32.75"/>
<text xml:space="preserve" text-anchor="middle" x="214.12" y="-19.25" font-family="Helvetica,sans-Serif" font-size="10.00">kest_process_asm_lines</text>
</a>
</g>
</g>
<!-- Node93&#45;&gt;Node94 -->
<g id="edge33_Node000093_Node000094" class="edge">
<title>Node93&#45;&gt;Node94</title>
<g id="a_edge33_Node000093_Node000094"><a xlink:title=" ">
<path fill="none" stroke="#63b8ff" d="M679.34,-12.04C573.52,-14.4 381.96,-18.66 281.18,-20.9"/>
<polygon fill="#63b8ff" stroke="#63b8ff" points="679.12,-15.55 689.04,-11.83 678.97,-8.55 679.12,-15.55"/>
</a>
</g>
</g>
<!-- Node94&#45;&gt;Node7 -->
<g id="edge34_Node000094_Node000007" class="edge">
<title>Node94&#45;&gt;Node7</title>
<g id="a_edge34_Node000094_Node000007"><a xlink:title=" ">
<path fill="none" stroke="#63b8ff" d="M172.25,-37.69C163.18,-41.86 153.86,-46.79 145.75,-52.38 115.18,-73.4 86.03,-105.59 69.6,-125.23"/>
<polygon fill="#63b8ff" stroke="#63b8ff" points="173.53,-40.95 181.31,-33.75 170.74,-34.53 173.53,-40.95"/>
</a>
</g>
</g>
</g>
</svg>

<g id="navigator" transform="translate(0 0)" fill="#404254">
  <rect fill="#f2f5e9" fill-opacity="0.5" stroke="#606060" stroke-width=".5" x="0" y="0" width="60" height="60"/>
  <use id="zoomplus" xlink:href="#zoomPlus" x="17" y="9" onmousedown="handleZoom(evt,'in')"/>
  <use id="zoomminus" xlink:href="#zoomMin" x="42" y="9" onmousedown="handleZoom(evt,'out')"/>
  <use id="reset" xlink:href="#resetDef" x="30" y="36" onmousedown="handleReset()"/>
   <use id="arrowup" xlink:href="#arrowUp" x="0" y="0" onmousedown="handlePan(0,-1)"/>
  <use id="arrowright" xlink:href="#arrowRight" x="0" y="0" onmousedown="handlePan(1,0)"/>
  <use id="arrowdown" xlink:href="#arrowDown" x="0" y="0" onmousedown="handlePan(0,1)"/>
  <use id="arrowleft" xlink:href="#arrowLeft" x="0" y="0" onmousedown="handlePan(-1,0)"/>
</g>
<svg viewBox="0 0 15 15" width="100%" height="30px" preserveAspectRatio="xMaxYMin meet">
 <g id="arrow_out" transform="scale(0.3 0.3)">
  <a xlink:href="kest__expression_8h_a8df028c238f29a5c5e59bcff98e28157_icgraph_org.svg" target="_base">
   <rect id="button" ry="5" rx="5" y="6" x="6" height="38" width="38"
        fill="#f2f5e9" fill-opacity="0.5" stroke="#606060" stroke-width="1.0"/>
   <path id="arrow"
     d="M 11.500037,31.436501 C 11.940474,20.09759 22.043105,11.32322 32.158766,21.979434 L 37.068811,17.246167 C 37.068811,17.246167 37.088388,32 37.088388,32 L 22.160133,31.978069 C 22.160133,31.978069 26.997745,27.140456 26.997745,27.140456 C 18.528582,18.264221 13.291696,25.230495 11.500037,31.436501 z"
     style="fill:#404040;"/>
  </a>
 </g>
</svg>

<style type='text/css'>
<![CDATA[
[data-mouse-over-selected='false'] { opacity: 0.7; }
[data-mouse-over-selected='true']  { opacity: 1.0; }
]]>
</style>
<script type="application/ecmascript"><![CDATA[
document.addEventListener('DOMContentLoaded', (event) => {
  highlightEdges();
  highlightAdjacentNodes();
});
]]></script>
</svg>
