<?xml version="1.0" encoding="UTF-8" standalone="no"?>
<!DOCTYPE svg PUBLIC "-//W3C//DTD SVG 1.1//EN"
 "http://www.w3.org/Graphics/SVG/1.1/DTD/svg11.dtd">
<!-- Generated by graphviz version 13.1.2 (20250808.2320)
 -->
<!-- Title: kest_button_hide Pages: 1 -->
<!--zoomable 259 -->

<svg id="main" version="1.1" xmlns="http://www.w3.org/2000/svg" xmlns:xlink="http://www.w3.org/1999/xlink" xml:space="preserve" onload="init(evt)">

<style type="text/css"><![CDATA[
.node, .edge {opacity: 0.7;}
.node.selected, .edge.selected {opacity: 1;}
.edge:hover path { stroke: red; }
.edge:hover polygon { stroke: red; fill: red; }
]]></style>

<defs>
  <circle id="rim" cx="0" cy="0" r="7"/>
  <circle id="rim2" cx="0" cy="0" r="3.5"/>
  <g id="zoomPlus">
    <use xlink:href="#rim" fill="#404040"><set attributeName="fill" to="#808080" begin="zoomplus.mouseover" end="zoomplus.mouseout"/></use>
    <path d="M-4,0h8M0,-4v8" fill="none" stroke="white" stroke-width="1.5" pointer-events="none"/>
  </g>
  <g id="zoomMin">
    <use xlink:href="#rim" fill="#404040"><set attributeName="fill" to="#808080" begin="zoomminus.mouseover" end="zoomminus.mouseout"/></use>
    <path d="M-4,0h8" fill="none" stroke="white" stroke-width="1.5" pointer-events="none"/>
  </g>
  <g id="arrowUp" transform="translate(30 24)">
    <use xlink:href="#rim"/>
    <path pointer-events="none" fill="none" stroke="white" stroke-width="1.5" d="M0,-3.0v7 M-2.5,-0.5L0,-3.0L2.5,-0.5"/>
  </g>
  <g id="arrowRight" transform="rotate(90) translate(36 -43)">
    <use xlink:href="#rim"/>
    <path pointer-events="none" fill="none" stroke="white" stroke-width="1.5" d="M0,-3.0v7 M-2.5,-0.5L0,-3.0L2.5,-0.5"/>
  </g>
  <g id="arrowDown" transform="rotate(180) translate(-30 -48)">
    <use xlink:href="#rim"/>
    <path pointer-events="none" fill="none" stroke="white" stroke-width="1.5" d="M0,-3.0v7 M-2.5,-0.5L0,-3.0L2.5,-0.5"/>
  </g>
  <g id="arrowLeft" transform="rotate(270) translate(-36 17)">
    <use xlink:href="#rim"/>
    <path pointer-events="none" fill="none" stroke="white" stroke-width="1.5" d="M0,-3.0v7 M-2.5,-0.5L0,-3.0L2.5,-0.5"/>
  </g>
  <g id="resetDef">
    <use xlink:href="#rim2" fill="#404040"><set attributeName="fill" to="#808080" begin="reset.mouseover" end="reset.mouseout"/></use>
  </g>
</defs>
<script type="application/ecmascript">
var viewWidth = 825;
var viewHeight = 259;
var sectionId = 'dynsection-83';
</script>
<script type="application/ecmascript" xlink:href="svg.min.js"/>
<svg id="graph" class="graph">
<g id="viewport">
<title>kest_button_hide</title>
<!-- Node1 -->
<g id="Node000001" class="node">
<title>Node1</title>
<g id="a_Node000001"><a xlink:title=" ">
<polygon fill="#999999" stroke="#666666" points="816.5,-91.5 717.25,-91.5 717.25,-70.75 816.5,-70.75 816.5,-91.5"/>
<text xml:space="preserve" text-anchor="middle" x="766.88" y="-78" font-family="Helvetica,sans-Serif" font-size="10.00">kest_button_hide</text>
</a>
</g>
</g>
<!-- Node2 -->
<g id="Node000002" class="node">
<title>Node2</title>
<g id="a_Node000002"><a xlink:href="kest__button_8c.html#a209511305dd2db40751857097e1e82c1" target="_top" xlink:title=" ">
<polygon fill="white" stroke="#666666" points="663.62,-149.88 555.38,-149.88 555.38,-116.38 663.62,-116.38 663.62,-149.88"/>
<text xml:space="preserve" text-anchor="start" x="563.38" y="-136.38" font-family="Helvetica,sans-Serif" font-size="10.00">kest_active_button</text>
<text xml:space="preserve" text-anchor="middle" x="609.5" y="-123.62" font-family="Helvetica,sans-Serif" font-size="10.00">_add_del_button</text>
</a>
</g>
</g>
<!-- Node1&#45;&gt;Node2 -->
<g id="edge1_Node000001_Node000002" class="edge">
<title>Node1&#45;&gt;Node2</title>
<g id="a_edge1_Node000001_Node000002"><a xlink:title=" ">
<path fill="none" stroke="#63b8ff" d="M723,-95.48C704.09,-101.8 681.71,-109.29 661.92,-115.92"/>
<polygon fill="#63b8ff" stroke="#63b8ff" points="723.87,-98.87 732.25,-92.38 721.65,-92.23 723.87,-98.87"/>
</a>
</g>
</g>
<!-- Node50 -->
<g id="Node000050" class="node">
<title>Node50</title>
<g id="a_Node000050"><a xlink:href="kest__button_8c.html#aa7f216d53ef827ad4e53ac5253310976" target="_top" xlink:title=" ">
<polygon fill="white" stroke="#666666" points="681.25,-42.88 537.75,-42.88 537.75,-9.38 681.25,-9.38 681.25,-42.88"/>
<text xml:space="preserve" text-anchor="start" x="545.75" y="-29.38" font-family="Helvetica,sans-Serif" font-size="10.00">kest_active_button</text>
<text xml:space="preserve" text-anchor="middle" x="609.5" y="-16.62" font-family="Helvetica,sans-Serif" font-size="10.00">_del_button_faded_out_cb</text>
</a>
</g>
</g>
<!-- Node1&#45;&gt;Node50 -->
<g id="edge9_Node000001_Node000050" class="edge">
<title>Node1&#45;&gt;Node50</title>
<g id="a_edge9_Node000001_Node000050"><a xlink:title=" ">
<path fill="none" stroke="#63b8ff" d="M724.5,-66.48C704.41,-59.37 680.15,-50.78 659.18,-43.36"/>
<polygon fill="#63b8ff" stroke="#63b8ff" points="723.16,-69.72 733.75,-69.75 725.49,-63.12 723.16,-69.72"/>
</a>
</g>
</g>
<!-- Node55 -->
<g id="Node000055" class="node">
<title>Node55</title>
<g id="a_Node000055"><a xlink:href="kest__button_8c.html#ab3d484ae52f7d01018eba300e3fe4e1f" target="_top" xlink:title=" ">
<polygon fill="white" stroke="#666666" points="663.62,-97.88 555.38,-97.88 555.38,-64.38 663.62,-64.38 663.62,-97.88"/>
<text xml:space="preserve" text-anchor="start" x="563.38" y="-84.38" font-family="Helvetica,sans-Serif" font-size="10.00">kest_active_button</text>
<text xml:space="preserve" text-anchor="middle" x="609.5" y="-71.62" font-family="Helvetica,sans-Serif" font-size="10.00">_reset_del_button</text>
</a>
</g>
</g>
<!-- Node1&#45;&gt;Node55 -->
<g id="edge12_Node000001_Node000055" class="edge">
<title>Node1&#45;&gt;Node55</title>
<g id="a_edge12_Node000001_Node000055"><a xlink:title=" ">
<path fill="none" stroke="#63b8ff" d="M705.78,-81.12C691.98,-81.12 677.41,-81.12 663.92,-81.12"/>
<polygon fill="#63b8ff" stroke="#63b8ff" points="705.63,-84.63 715.63,-81.13 705.63,-77.63 705.63,-84.63"/>
</a>
</g>
</g>
<!-- Node3 -->
<g id="Node000003" class="node">
<title>Node3</title>
<g id="a_Node000003"><a xlink:href="kest__button_8c.html#a760fe364ce4f5be2c972ff685e2f9825" target="_top" xlink:title=" ">
<polygon fill="white" stroke="#666666" points="495,-154.88 381.5,-154.88 381.5,-121.38 495,-121.38 495,-154.88"/>
<text xml:space="preserve" text-anchor="start" x="389.5" y="-141.38" font-family="Helvetica,sans-Serif" font-size="10.00">kest_active_button</text>
<text xml:space="preserve" text-anchor="middle" x="438.25" y="-128.62" font-family="Helvetica,sans-Serif" font-size="10.00">_array_append_new</text>
</a>
</g>
</g>
<!-- Node2&#45;&gt;Node3 -->
<g id="edge2_Node000002_Node000003" class="edge">
<title>Node2&#45;&gt;Node3</title>
<g id="a_edge2_Node000002_Node000003"><a xlink:title=" ">
<path fill="none" stroke="#63b8ff" d="M543.58,-135.04C527.69,-135.51 510.81,-136.01 495.37,-136.47"/>
<polygon fill="#63b8ff" stroke="#63b8ff" points="543.54,-138.55 553.44,-134.75 543.34,-131.55 543.54,-138.55"/>
</a>
</g>
</g>
<!-- Node4 -->
<g id="Node000004" class="node">
<title>Node4</title>
<g id="a_Node000004"><a xlink:href="kest__preset__view_8c.html#ad8a171502fcb88f5b5a08657a6424752" target="_top" xlink:title=" ">
<polygon fill="#fff0f0" stroke="red" points="321.5,-160.5 195.25,-160.5 195.25,-139.75 321.5,-139.75 321.5,-160.5"/>
<text xml:space="preserve" text-anchor="middle" x="258.38" y="-147" font-family="Helvetica,sans-Serif" font-size="10.00">configure_preset_view</text>
</a>
</g>
</g>
<!-- Node3&#45;&gt;Node4 -->
<g id="edge3_Node000003_Node000004" class="edge">
<title>Node3&#45;&gt;Node4</title>
<g id="a_edge3_Node000003_Node000004"><a xlink:title=" ">
<path fill="none" stroke="#63b8ff" d="M370.12,-142.65C354.26,-143.72 337.42,-144.86 321.78,-145.91"/>
<polygon fill="#63b8ff" stroke="#63b8ff" points="370.21,-146.16 379.95,-141.99 369.73,-139.17 370.21,-146.16"/>
</a>
</g>
</g>
<!-- Node6 -->
<g id="Node000006" class="node">
<title>Node6</title>
<g id="a_Node000006"><a xlink:href="kest__sequence__view_8c.html#ac871b24a7c875a7b6e707a3d2691a2a9" target="_top" xlink:title=" ">
<polygon fill="#fff0f0" stroke="red" points="142,-103.5 0,-103.5 0,-82.75 142,-82.75 142,-103.5"/>
<text xml:space="preserve" text-anchor="middle" x="71" y="-90" font-family="Helvetica,sans-Serif" font-size="10.00">configure_sequence_view</text>
</a>
</g>
</g>
<!-- Node3&#45;&gt;Node6 -->
<g id="edge4_Node000003_Node000006" class="edge">
<title>Node3&#45;&gt;Node6</title>
<g id="a_edge4_Node000003_Node000006"><a xlink:title=" ">
<path fill="none" stroke="#63b8ff" d="M370.1,-129.85C305.41,-121.88 207.97,-109.88 142.26,-101.78"/>
<polygon fill="#63b8ff" stroke="#63b8ff" points="369.52,-133.31 379.88,-131.06 370.38,-126.36 369.52,-133.31"/>
</a>
</g>
</g>
<!-- Node43 -->
<g id="Node000043" class="node">
<title>Node43</title>
<g id="a_Node000043"><a xlink:href="kest__ui_8c.html#a54f79f277b7d97da20f192e3bec8f3ec" target="_top" xlink:title=" ">
<polygon fill="white" stroke="#666666" points="300.88,-250.5 215.88,-250.5 215.88,-229.75 300.88,-229.75 300.88,-250.5"/>
<text xml:space="preserve" text-anchor="middle" x="258.38" y="-237" font-family="Helvetica,sans-Serif" font-size="10.00">init_test_page</text>
</a>
</g>
</g>
<!-- Node3&#45;&gt;Node43 -->
<g id="edge5_Node000003_Node000043" class="edge">
<title>Node3&#45;&gt;Node43</title>
<g id="a_edge5_Node000003_Node000043"><a xlink:title=" ">
<path fill="none" stroke="#63b8ff" d="M414.01,-163.23C395.38,-181.88 367.66,-206.53 338.75,-221.12 327.11,-227 313.59,-231.11 301.04,-233.96"/>
<polygon fill="#63b8ff" stroke="#63b8ff" points="416.37,-165.83 420.84,-156.23 411.36,-160.94 416.37,-165.83"/>
</a>
</g>
</g>
<!-- Node44 -->
<g id="Node000044" class="node">
<title>Node44</title>
<g id="a_Node000044"><a xlink:href="kest__preset__view_8c.html#aed5789e6285a903942736fef4408ce40" target="_top" xlink:title=" ">
<polygon fill="#fff0f0" stroke="red" points="316.62,-211.88 200.12,-211.88 200.12,-178.38 316.62,-178.38 316.62,-211.88"/>
<text xml:space="preserve" text-anchor="start" x="208.12" y="-198.38" font-family="Helvetica,sans-Serif" font-size="10.00">preset_view_append</text>
<text xml:space="preserve" text-anchor="middle" x="258.38" y="-185.62" font-family="Helvetica,sans-Serif" font-size="10.00">_effect</text>
</a>
</g>
</g>
<!-- Node3&#45;&gt;Node44 -->
<g id="edge6_Node000003_Node000044" class="edge">
<title>Node3&#45;&gt;Node44</title>
<g id="a_edge6_Node000003_Node000044"><a xlink:title=" ">
<path fill="none" stroke="#63b8ff" d="M373.14,-158.67C353.43,-164.99 331.95,-171.87 313.01,-177.94"/>
<polygon fill="#63b8ff" stroke="#63b8ff" points="373.99,-162.07 382.44,-155.69 371.85,-155.41 373.99,-162.07"/>
</a>
</g>
</g>
<!-- Node49 -->
<g id="Node000049" class="node">
<title>Node49</title>
<g id="a_Node000049"><a xlink:href="kest__sequence__view_8c.html#a83d1a352af6a3932ce4d08e01f7d8d8a" target="_top" xlink:title=" ">
<polygon fill="white" stroke="#666666" points="296,-84.5 220.75,-84.5 220.75,-63.75 296,-63.75 296,-84.5"/>
<text xml:space="preserve" text-anchor="middle" x="258.38" y="-71" font-family="Helvetica,sans-Serif" font-size="10.00">seq_plus_cb</text>
</a>
</g>
</g>
<!-- Node3&#45;&gt;Node49 -->
<g id="edge7_Node000003_Node000049" class="edge">
<title>Node3&#45;&gt;Node49</title>
<g id="a_edge7_Node000003_Node000049"><a xlink:title=" ">
<path fill="none" stroke="#63b8ff" d="M386.98,-116.67C371.61,-110.39 354.59,-103.72 338.75,-98.12 325.04,-93.28 309.79,-88.52 296.36,-84.54"/>
<polygon fill="#63b8ff" stroke="#63b8ff" points="385.34,-119.78 395.92,-120.36 388,-113.31 385.34,-119.78"/>
</a>
</g>
</g>
<!-- Node49&#45;&gt;Node6 -->
<g id="edge8_Node000049_Node000006" class="edge">
<title>Node49&#45;&gt;Node6</title>
<g id="a_edge8_Node000049_Node000006"><a xlink:title=" ">
<path fill="none" stroke="#63b8ff" d="M209.11,-79.07C188.76,-81.16 164.66,-83.63 142.39,-85.91"/>
<polygon fill="#63b8ff" stroke="#63b8ff" points="209.21,-82.58 218.8,-78.08 208.5,-75.62 209.21,-82.58"/>
</a>
</g>
</g>
<!-- Node51 -->
<g id="Node000051" class="node">
<title>Node51</title>
<g id="a_Node000051"><a xlink:href="kest__button_8c.html#ad35b12aa3e8c0b17baaa2cffa7083fcc" target="_top" xlink:title=" ">
<polygon fill="white" stroke="#666666" points="493.5,-46.25 383,-46.25 383,0 493.5,0 493.5,-46.25"/>
<text xml:space="preserve" text-anchor="start" x="391" y="-32.75" font-family="Helvetica,sans-Serif" font-size="10.00">kest_active_button</text>
<text xml:space="preserve" text-anchor="start" x="391" y="-20" font-family="Helvetica,sans-Serif" font-size="10.00">_trigger_del_button</text>
<text xml:space="preserve" text-anchor="middle" x="438.25" y="-7.25" font-family="Helvetica,sans-Serif" font-size="10.00">_fade_out</text>
</a>
</g>
</g>
<!-- Node50&#45;&gt;Node51 -->
<g id="edge10_Node000050_Node000051" class="edge">
<title>Node50&#45;&gt;Node51</title>
<g id="a_edge10_Node000050_Node000051"><a xlink:title=" ">
<path fill="none" stroke="#63b8ff" d="M526.27,-24.67C515.25,-24.47 504.18,-24.28 493.8,-24.09"/>
<polygon fill="#63b8ff" stroke="#63b8ff" points="526.13,-28.17 536.19,-24.84 526.25,-21.17 526.13,-28.17"/>
</a>
</g>
</g>
<!-- Node52 -->
<g id="Node000052" class="node">
<title>Node52</title>
<g id="a_Node000052"><a xlink:href="kest__button_8c.html#a3477b16331ef3ee2eb1369f85977a523" target="_top" xlink:title=" ">
<polygon fill="#fff0f0" stroke="red" points="338.75,-39.88 178,-39.88 178,-6.38 338.75,-6.38 338.75,-39.88"/>
<text xml:space="preserve" text-anchor="start" x="186" y="-26.38" font-family="Helvetica,sans-Serif" font-size="10.00">kest_active_button</text>
<text xml:space="preserve" text-anchor="middle" x="258.38" y="-13.62" font-family="Helvetica,sans-Serif" font-size="10.00">_del_button_remain_timer_cb</text>
</a>
</g>
</g>
<!-- Node51&#45;&gt;Node52 -->
<g id="edge11_Node000051_Node000052" class="edge">
<title>Node51&#45;&gt;Node52</title>
<g id="a_edge11_Node000051_Node000052"><a xlink:title=" ">
<path fill="none" stroke="#63b8ff" d="M371.68,-23.12C361.12,-23.12 350.09,-23.12 339.24,-23.12"/>
<polygon fill="#63b8ff" stroke="#63b8ff" points="371.4,-26.63 381.4,-23.13 371.4,-19.63 371.4,-26.63"/>
</a>
</g>
</g>
<!-- Node56 -->
<g id="Node000056" class="node">
<title>Node56</title>
<g id="a_Node000056"><a xlink:href="kest__sequence__view_8c.html#a08de2e10fc1c406742820cb4edd78cc3" target="_top" xlink:title=" ">
<polygon fill="white" stroke="#666666" points="501.75,-97.88 374.75,-97.88 374.75,-64.38 501.75,-64.38 501.75,-97.88"/>
<text xml:space="preserve" text-anchor="start" x="382.75" y="-84.38" font-family="Helvetica,sans-Serif" font-size="10.00">sequence_view_preset</text>
<text xml:space="preserve" text-anchor="middle" x="438.25" y="-71.62" font-family="Helvetica,sans-Serif" font-size="10.00">_button_rep_update</text>
</a>
</g>
</g>
<!-- Node55&#45;&gt;Node56 -->
<g id="edge13_Node000055_Node000056" class="edge">
<title>Node55&#45;&gt;Node56</title>
<g id="a_edge13_Node000055_Node000056"><a xlink:title=" ">
<path fill="none" stroke="#63b8ff" d="M543.72,-81.12C530.1,-81.12 515.76,-81.12 502.21,-81.12"/>
<polygon fill="#63b8ff" stroke="#63b8ff" points="543.43,-84.63 553.43,-81.13 543.43,-77.63 543.43,-84.63"/>
</a>
</g>
</g>
<!-- Node56&#45;&gt;Node49 -->
<g id="edge14_Node000056_Node000049" class="edge">
<title>Node56&#45;&gt;Node49</title>
<g id="a_edge14_Node000056_Node000049"><a xlink:title=" ">
<path fill="none" stroke="#63b8ff" d="M362.8,-78.2C339.86,-77.29 315.6,-76.34 296.34,-75.58"/>
<polygon fill="#63b8ff" stroke="#63b8ff" points="362.65,-81.69 372.78,-78.59 362.92,-74.7 362.65,-81.69"/>
</a>
</g>
</g>
</g>
</svg>

<g id="navigator" transform="translate(0 0)" fill="#404254">
  <rect fill="#f2f5e9" fill-opacity="0.5" stroke="#606060" stroke-width=".5" x="0" y="0" width="60" height="60"/>
  <use id="zoomplus" xlink:href="#zoomPlus" x="17" y="9" onmousedown="handleZoom(evt,'in')"/>
  <use id="zoomminus" xlink:href="#zoomMin" x="42" y="9" onmousedown="handleZoom(evt,'out')"/>
  <use id="reset" xlink:href="#resetDef" x="30" y="36" onmousedown="handleReset()"/>
   <use id="arrowup" xlink:href="#arrowUp" x="0" y="0" onmousedown="handlePan(0,-1)"/>
  <use id="arrowright" xlink:href="#arrowRight" x="0" y="0" onmousedown="handlePan(1,0)"/>
  <use id="arrowdown" xlink:href="#arrowDown" x="0" y="0" onmousedown="handlePan(0,1)"/>
  <use id="arrowleft" xlink:href="#arrowLeft" x="0" y="0" onmousedown="handlePan(-1,0)"/>
</g>
<svg viewBox="0 0 15 15" width="100%" height="30px" preserveAspectRatio="xMaxYMin meet">
 <g id="arrow_out" transform="scale(0.3 0.3)">
  <a xlink:href="kest__button_8c_a247699a53218b0986f4149b42ecd3ae4_icgraph_org.svg" target="_base">
   <rect id="button" ry="5" rx="5" y="6" x="6" height="38" width="38"
        fill="#f2f5e9" fill-opacity="0.5" stroke="#606060" stroke-width="1.0"/>
   <path id="arrow"
     d="M 11.500037,31.436501 C 11.940474,20.09759 22.043105,11.32322 32.158766,21.979434 L 37.068811,17.246167 C 37.068811,17.246167 37.088388,32 37.088388,32 L 22.160133,31.978069 C 22.160133,31.978069 26.997745,27.140456 26.997745,27.140456 C 18.528582,18.264221 13.291696,25.230495 11.500037,31.436501 z"
     style="fill:#404040;"/>
  </a>
 </g>
</svg>

<style type='text/css'>
<![CDATA[
[data-mouse-over-selected='false'] { opacity: 0.7; }
[data-mouse-over-selected='true']  { opacity: 1.0; }
]]>
</style>
<script type="application/ecmascript"><![CDATA[
document.addEventListener('DOMContentLoaded', (event) => {
  highlightEdges();
  highlightAdjacentNodes();
});
]]></script>
</svg>
