<?xml version="1.0" encoding="UTF-8" standalone="no"?>
<!DOCTYPE svg PUBLIC "-//W3C//DTD SVG 1.1//EN"
 "http://www.w3.org/Graphics/SVG/1.1/DTD/svg11.dtd">
<!-- Generated by graphviz version 13.1.2 (20250808.2320)
 -->
<!-- Title: main_task Pages: 1 -->
<!--zoomable 146 -->

<svg id="main" version="1.1" xmlns="http://www.w3.org/2000/svg" xmlns:xlink="http://www.w3.org/1999/xlink" xml:space="preserve" onload="init(evt)">

<style type="text/css"><![CDATA[
.node, .edge {opacity: 0.7;}
.node.selected, .edge.selected {opacity: 1;}
.edge:hover path { stroke: red; }
.edge:hover polygon { stroke: red; fill: red; }
]]></style>

<defs>
  <circle id="rim" cx="0" cy="0" r="7"/>
  <circle id="rim2" cx="0" cy="0" r="3.5"/>
  <g id="zoomPlus">
    <use xlink:href="#rim" fill="#404040"><set attributeName="fill" to="#808080" begin="zoomplus.mouseover" end="zoomplus.mouseout"/></use>
    <path d="M-4,0h8M0,-4v8" fill="none" stroke="white" stroke-width="1.5" pointer-events="none"/>
  </g>
  <g id="zoomMin">
    <use xlink:href="#rim" fill="#404040"><set attributeName="fill" to="#808080" begin="zoomminus.mouseover" end="zoomminus.mouseout"/></use>
    <path d="M-4,0h8" fill="none" stroke="white" stroke-width="1.5" pointer-events="none"/>
  </g>
  <g id="arrowUp" transform="translate(30 24)">
    <use xlink:href="#rim"/>
    <path pointer-events="none" fill="none" stroke="white" stroke-width="1.5" d="M0,-3.0v7 M-2.5,-0.5L0,-3.0L2.5,-0.5"/>
  </g>
  <g id="arrowRight" transform="rotate(90) translate(36 -43)">
    <use xlink:href="#rim"/>
    <path pointer-events="none" fill="none" stroke="white" stroke-width="1.5" d="M0,-3.0v7 M-2.5,-0.5L0,-3.0L2.5,-0.5"/>
  </g>
  <g id="arrowDown" transform="rotate(180) translate(-30 -48)">
    <use xlink:href="#rim"/>
    <path pointer-events="none" fill="none" stroke="white" stroke-width="1.5" d="M0,-3.0v7 M-2.5,-0.5L0,-3.0L2.5,-0.5"/>
  </g>
  <g id="arrowLeft" transform="rotate(270) translate(-36 17)">
    <use xlink:href="#rim"/>
    <path pointer-events="none" fill="none" stroke="white" stroke-width="1.5" d="M0,-3.0v7 M-2.5,-0.5L0,-3.0L2.5,-0.5"/>
  </g>
  <g id="resetDef">
    <use xlink:href="#rim2" fill="#404040"><set attributeName="fill" to="#808080" begin="reset.mouseover" end="reset.mouseout"/></use>
  </g>
</defs>
<script type="application/ecmascript">
var viewWidth = 509;
var viewHeight = 146;
var sectionId = 'dynsection-3';
</script>
<script type="application/ecmascript" xlink:href="svg.min.js"/>
<svg id="graph" class="graph">
<g id="viewport">
<title>main_task</title>
<!-- Node1 -->
<g id="Node000001" class="node">
<title>Node1</title>
<g id="a_Node000001"><a xlink:title=" ">
<polygon fill="#999999" stroke="#666666" points="67,-78.75 0,-78.75 0,-58 67,-58 67,-78.75"/>
<text xml:space="preserve" text-anchor="middle" x="33.5" y="-65.25" font-family="Helvetica,sans-Serif" font-size="10.00">main_task</text>
</a>
</g>
</g>
<!-- Node2 -->
<g id="Node000002" class="node">
<title>Node2</title>
<g id="a_Node000002"><a xlink:href="kest__desktop_8c.html#a665ba15e91f6099738bc8b63cd42f940" target="_top" xlink:title=" ">
<polygon fill="white" stroke="#666666" points="225.12,-137.75 104.12,-137.75 104.12,-117 225.12,-117 225.12,-137.75"/>
<text xml:space="preserve" text-anchor="middle" x="164.62" y="-124.25" font-family="Helvetica,sans-Serif" font-size="10.00">kest_desktop_init_sdl</text>
</a>
</g>
</g>
<!-- Node1&#45;&gt;Node2 -->
<g id="edge1_Node000001_Node000002" class="edge">
<title>Node1&#45;&gt;Node2</title>
<g id="a_edge1_Node000001_Node000002"><a xlink:title=" ">
<path fill="none" stroke="#63b8ff" d="M51.18,-79.12C64.76,-87.56 84.62,-99.21 103,-107.38 107.27,-109.27 111.78,-111.09 116.34,-112.8"/>
<polygon fill="#63b8ff" stroke="#63b8ff" points="114.93,-116.01 125.53,-116.07 117.28,-109.42 114.93,-116.01"/>
</a>
</g>
</g>
<!-- Node3 -->
<g id="Node000003" class="node">
<title>Node3</title>
<g id="a_Node000003"><a xlink:href="kest__event_8c.html#a7ece6ead0b06ac132ab3a7f0b3483d56" target="_top" xlink:title=" ">
<polygon fill="white" stroke="#666666" points="209.38,-98.75 119.88,-98.75 119.88,-78 209.38,-78 209.38,-98.75"/>
<text xml:space="preserve" text-anchor="middle" x="164.62" y="-85.25" font-family="Helvetica,sans-Serif" font-size="10.00">kest_event_log</text>
</a>
</g>
</g>
<!-- Node1&#45;&gt;Node3 -->
<g id="edge2_Node000001_Node000003" class="edge">
<title>Node1&#45;&gt;Node3</title>
<g id="a_edge2_Node000001_Node000003"><a xlink:title=" ">
<path fill="none" stroke="#63b8ff" d="M67.42,-73.47C79.92,-75.41 94.52,-77.67 108.51,-79.84"/>
<polygon fill="#63b8ff" stroke="#63b8ff" points="107.64,-83.25 118.06,-81.32 108.71,-76.33 107.64,-83.25"/>
</a>
</g>
</g>
<!-- Node4 -->
<g id="Node000004" class="node">
<title>Node4</title>
<g id="a_Node000004"><a xlink:href="kest__event_8c.html#a6f8393279f59cc9f01caf200f778f743" target="_top" xlink:title=" ">
<polygon fill="white" stroke="#666666" points="226.25,-59.75 103,-59.75 103,-39 226.25,-39 226.25,-59.75"/>
<text xml:space="preserve" text-anchor="middle" x="164.62" y="-46.25" font-family="Helvetica,sans-Serif" font-size="10.00">kest_event_task_start</text>
</a>
</g>
</g>
<!-- Node1&#45;&gt;Node4 -->
<g id="edge3_Node000001_Node000004" class="edge">
<title>Node1&#45;&gt;Node4</title>
<g id="a_edge3_Node000001_Node000004"><a xlink:title=" ">
<path fill="none" stroke="#63b8ff" d="M67.42,-63.53C74.82,-62.44 82.95,-61.25 91.26,-60.02"/>
<polygon fill="#63b8ff" stroke="#63b8ff" points="91.76,-63.49 101.15,-58.57 90.74,-56.56 91.76,-63.49"/>
</a>
</g>
</g>
<!-- Node750 -->
<g id="Node000750" class="node">
<title>Node750</title>
<g id="a_Node000750"><a xlink:href="kest__printf_8c.html#a745e9edc5a495f2fbd52a34a86d71c1b" target="_top" xlink:title=" ">
<polygon fill="white" stroke="#666666" points="209,-20.75 120.25,-20.75 120.25,0 209,0 209,-20.75"/>
<text xml:space="preserve" text-anchor="middle" x="164.62" y="-7.25" font-family="Helvetica,sans-Serif" font-size="10.00">kest_printf_init</text>
</a>
</g>
</g>
<!-- Node1&#45;&gt;Node750 -->
<g id="edge6_Node000001_Node000750" class="edge">
<title>Node1&#45;&gt;Node750</title>
<g id="a_edge6_Node000001_Node000750"><a xlink:title=" ">
<path fill="none" stroke="#63b8ff" d="M51.78,-57.6C65.36,-49.42 84.94,-38.28 103,-30.38 107.28,-28.5 111.8,-26.7 116.36,-25"/>
<polygon fill="#63b8ff" stroke="#63b8ff" points="117.3,-28.38 125.56,-21.74 114.96,-21.78 117.3,-28.38"/>
</a>
</g>
</g>
<!-- Node5 -->
<g id="Node000005" class="node">
<title>Node5</title>
<g id="a_Node000005"><a xlink:href="kest__event_8c.html#a9d5568cee97907b4c6e6b41c9be5f20d" target="_top" xlink:title=" ">
<polygon fill="white" stroke="#666666" points="357.75,-59.75 262.25,-59.75 262.25,-39 357.75,-39 357.75,-59.75"/>
<text xml:space="preserve" text-anchor="middle" x="310" y="-46.25" font-family="Helvetica,sans-Serif" font-size="10.00">kest_event_task</text>
</a>
</g>
</g>
<!-- Node4&#45;&gt;Node5 -->
<g id="edge4_Node000004_Node000005" class="edge">
<title>Node4&#45;&gt;Node5</title>
<g id="a_edge4_Node000004_Node000005"><a xlink:title=" ">
<path fill="none" stroke="#63b8ff" d="M226.43,-49.38C234.43,-49.38 242.61,-49.38 250.57,-49.38"/>
<polygon fill="#63b8ff" stroke="#63b8ff" points="250.51,-52.88 260.51,-49.38 250.51,-45.88 250.51,-52.88"/>
</a>
</g>
</g>
<!-- Node6 -->
<g id="Node000006" class="node">
<title>Node6</title>
<g id="a_Node000006"><a xlink:href="kest__event_8c.html#ad7148b990af9fe15dae1b2093872732b" target="_top" xlink:title=" ">
<polygon fill="#fff0f0" stroke="red" points="501.25,-59.75 393.75,-59.75 393.75,-39 501.25,-39 501.25,-59.75"/>
<text xml:space="preserve" text-anchor="middle" x="447.5" y="-46.25" font-family="Helvetica,sans-Serif" font-size="10.00">kest_event_handle</text>
</a>
</g>
</g>
<!-- Node5&#45;&gt;Node6 -->
<g id="edge5_Node000005_Node000006" class="edge">
<title>Node5&#45;&gt;Node6</title>
<g id="a_edge5_Node000005_Node000006"><a xlink:title=" ">
<path fill="none" stroke="#63b8ff" d="M358.01,-49.38C365.8,-49.38 374,-49.38 382.14,-49.38"/>
<polygon fill="#63b8ff" stroke="#63b8ff" points="382.03,-52.88 392.03,-49.38 382.03,-45.88 382.03,-52.88"/>
</a>
</g>
</g>
</g>
</svg>

<g id="navigator" transform="translate(0 0)" fill="#404254">
  <rect fill="#f2f5e9" fill-opacity="0.5" stroke="#606060" stroke-width=".5" x="0" y="0" width="60" height="60"/>
  <use id="zoomplus" xlink:href="#zoomPlus" x="17" y="9" onmousedown="handleZoom(evt,'in')"/>
  <use id="zoomminus" xlink:href="#zoomMin" x="42" y="9" onmousedown="handleZoom(evt,'out')"/>
  <use id="reset" xlink:href="#resetDef" x="30" y="36" onmousedown="handleReset()"/>
   <use id="arrowup" xlink:href="#arrowUp" x="0" y="0" onmousedown="handlePan(0,-1)"/>
  <use id="arrowright" xlink:href="#arrowRight" x="0" y="0" onmousedown="handlePan(1,0)"/>
  <use id="arrowdown" xlink:href="#arrowDown" x="0" y="0" onmousedown="handlePan(0,1)"/>
  <use id="arrowleft" xlink:href="#arrowLeft" x="0" y="0" onmousedown="handlePan(-1,0)"/>
</g>
<svg viewBox="0 0 15 15" width="100%" height="30px" preserveAspectRatio="xMaxYMin meet">
 <g id="arrow_out" transform="scale(0.3 0.3)">
  <a xlink:href="kest__desktop_8c_ab499a4f71ef4cfc807b60d8739750c3e_cgraph_org.svg" target="_base">
   <rect id="button" ry="5" rx="5" y="6" x="6" height="38" width="38"
        fill="#f2f5e9" fill-opacity="0.5" stroke="#606060" stroke-width="1.0"/>
   <path id="arrow"
     d="M 11.500037,31.436501 C 11.940474,20.09759 22.043105,11.32322 32.158766,21.979434 L 37.068811,17.246167 C 37.068811,17.246167 37.088388,32 37.088388,32 L 22.160133,31.978069 C 22.160133,31.978069 26.997745,27.140456 26.997745,27.140456 C 18.528582,18.264221 13.291696,25.230495 11.500037,31.436501 z"
     style="fill:#404040;"/>
  </a>
 </g>
</svg>

<style type='text/css'>
<![CDATA[
[data-mouse-over-selected='false'] { opacity: 0.7; }
[data-mouse-over-selected='true']  { opacity: 1.0; }
]]>
</style>
<script type="application/ecmascript"><![CDATA[
document.addEventListener('DOMContentLoaded', (event) => {
  highlightEdges();
  highlightAdjacentNodes();
});
]]></script>
</svg>
