<?xml version="1.0" encoding="UTF-8" standalone="no"?>
<!DOCTYPE svg PUBLIC "-//W3C//DTD SVG 1.1//EN"
 "http://www.w3.org/Graphics/SVG/1.1/DTD/svg11.dtd">
<!-- Generated by graphviz version 13.1.2 (20250808.2320)
 -->
<!-- Title: kest_fpga_get_delay_buffer_addr Pages: 1 -->
<!--zoomable 142 -->

<svg id="main" version="1.1" xmlns="http://www.w3.org/2000/svg" xmlns:xlink="http://www.w3.org/1999/xlink" xml:space="preserve" onload="init(evt)">

<style type="text/css"><![CDATA[
.node, .edge {opacity: 0.7;}
.node.selected, .edge.selected {opacity: 1;}
.edge:hover path { stroke: red; }
.edge:hover polygon { stroke: red; fill: red; }
]]></style>

<defs>
  <circle id="rim" cx="0" cy="0" r="7"/>
  <circle id="rim2" cx="0" cy="0" r="3.5"/>
  <g id="zoomPlus">
    <use xlink:href="#rim" fill="#404040"><set attributeName="fill" to="#808080" begin="zoomplus.mouseover" end="zoomplus.mouseout"/></use>
    <path d="M-4,0h8M0,-4v8" fill="none" stroke="white" stroke-width="1.5" pointer-events="none"/>
  </g>
  <g id="zoomMin">
    <use xlink:href="#rim" fill="#404040"><set attributeName="fill" to="#808080" begin="zoomminus.mouseover" end="zoomminus.mouseout"/></use>
    <path d="M-4,0h8" fill="none" stroke="white" stroke-width="1.5" pointer-events="none"/>
  </g>
  <g id="arrowUp" transform="translate(30 24)">
    <use xlink:href="#rim"/>
    <path pointer-events="none" fill="none" stroke="white" stroke-width="1.5" d="M0,-3.0v7 M-2.5,-0.5L0,-3.0L2.5,-0.5"/>
  </g>
  <g id="arrowRight" transform="rotate(90) translate(36 -43)">
    <use xlink:href="#rim"/>
    <path pointer-events="none" fill="none" stroke="white" stroke-width="1.5" d="M0,-3.0v7 M-2.5,-0.5L0,-3.0L2.5,-0.5"/>
  </g>
  <g id="arrowDown" transform="rotate(180) translate(-30 -48)">
    <use xlink:href="#rim"/>
    <path pointer-events="none" fill="none" stroke="white" stroke-width="1.5" d="M0,-3.0v7 M-2.5,-0.5L0,-3.0L2.5,-0.5"/>
  </g>
  <g id="arrowLeft" transform="rotate(270) translate(-36 17)">
    <use xlink:href="#rim"/>
    <path pointer-events="none" fill="none" stroke="white" stroke-width="1.5" d="M0,-3.0v7 M-2.5,-0.5L0,-3.0L2.5,-0.5"/>
  </g>
  <g id="resetDef">
    <use xlink:href="#rim2" fill="#404040"><set attributeName="fill" to="#808080" begin="reset.mouseover" end="reset.mouseout"/></use>
  </g>
</defs>
<script type="application/ecmascript">
var viewWidth = 738;
var viewHeight = 142;
var sectionId = 'dynsection-16';
</script>
<script type="application/ecmascript" xlink:href="svg.min.js"/>
<svg id="graph" class="graph">
<g id="viewport">
<title>kest_fpga_get_delay_buffer_addr</title>
<!-- Node1 -->
<g id="Node000001" class="node">
<title>Node1</title>
<g id="a_Node000001"><a xlink:title=" ">
<polygon fill="#999999" stroke="#666666" points="116.5,-72.12 0,-72.12 0,-38.62 116.5,-38.62 116.5,-72.12"/>
<text xml:space="preserve" text-anchor="start" x="8" y="-58.62" font-family="Helvetica,sans-Serif" font-size="10.00">kest_fpga_get_delay</text>
<text xml:space="preserve" text-anchor="middle" x="58.25" y="-45.88" font-family="Helvetica,sans-Serif" font-size="10.00">_buffer_addr</text>
</a>
</g>
</g>
<!-- Node2 -->
<g id="Node000002" class="node">
<title>Node2</title>
<g id="a_Node000002"><a xlink:href="kest__fpga__io_8c.html#a719a57c264d7a923dfbaa6b1fa44d633" target="_top" xlink:title=" ">
<polygon fill="white" stroke="#666666" points="275,-65.75 152.5,-65.75 152.5,-45 275,-45 275,-65.75"/>
<text xml:space="preserve" text-anchor="middle" x="213.75" y="-52.25" font-family="Helvetica,sans-Serif" font-size="10.00">kest_fpga_req_data_p</text>
</a>
</g>
</g>
<!-- Node1&#45;&gt;Node2 -->
<g id="edge1_Node000001_Node000002" class="edge">
<title>Node1&#45;&gt;Node2</title>
<g id="a_edge1_Node000001_Node000002"><a xlink:title=" ">
<path fill="none" stroke="#63b8ff" d="M116.84,-55.38C124.65,-55.38 132.74,-55.38 140.76,-55.38"/>
<polygon fill="#63b8ff" stroke="#63b8ff" points="140.5,-58.88 150.5,-55.38 140.5,-51.88 140.5,-58.88"/>
</a>
</g>
</g>
<!-- Node3 -->
<g id="Node000003" class="node">
<title>Node3</title>
<g id="a_Node000003"><a xlink:href="kest__fpga__io_8c.html#abe57698adf89b8e9d87f4beca9077c9a" target="_top" xlink:title=" ">
<polygon fill="white" stroke="#666666" points="430.5,-72.12 311,-72.12 311,-38.62 430.5,-38.62 430.5,-72.12"/>
<text xml:space="preserve" text-anchor="start" x="319" y="-58.62" font-family="Helvetica,sans-Serif" font-size="10.00">kest_fpga_get_status</text>
<text xml:space="preserve" text-anchor="middle" x="370.75" y="-45.88" font-family="Helvetica,sans-Serif" font-size="10.00">_flags</text>
</a>
</g>
</g>
<!-- Node2&#45;&gt;Node3 -->
<g id="edge2_Node000002_Node000003" class="edge">
<title>Node2&#45;&gt;Node3</title>
<g id="a_edge2_Node000002_Node000003"><a xlink:title=" ">
<path fill="none" stroke="#63b8ff" d="M275.12,-55.38C283.04,-55.38 291.2,-55.38 299.27,-55.38"/>
<polygon fill="#63b8ff" stroke="#63b8ff" points="299.05,-58.88 309.05,-55.38 299.05,-51.88 299.05,-58.88"/>
</a>
</g>
</g>
<!-- Node7 -->
<g id="Node000007" class="node">
<title>Node7</title>
<g id="a_Node000007"><a xlink:href="kest__fpga__io_8c.html#ab14e474da760b9f53277d51557a0a9d3" target="_top" xlink:title=" ">
<polygon fill="white" stroke="#666666" points="589,-20.75 483,-20.75 483,0 589,0 589,-20.75"/>
<text xml:space="preserve" text-anchor="middle" x="536" y="-7.25" font-family="Helvetica,sans-Serif" font-size="10.00">kest_fpga_readout</text>
</a>
</g>
</g>
<!-- Node2&#45;&gt;Node7 -->
<g id="edge6_Node000002_Node000007" class="edge">
<title>Node2&#45;&gt;Node7</title>
<g id="a_edge6_Node000002_Node000007"><a xlink:title=" ">
<path fill="none" stroke="#63b8ff" d="M248.71,-44.6C266.99,-39.21 290.03,-33.07 311,-29.38 364.57,-19.95 426.2,-15.15 471.24,-12.74"/>
<polygon fill="#63b8ff" stroke="#63b8ff" points="471.29,-16.24 481.1,-12.24 470.93,-9.25 471.29,-16.24"/>
</a>
</g>
</g>
<!-- Node8 -->
<g id="Node000008" class="node">
<title>Node8</title>
<g id="a_Node000008"><a xlink:href="kest__fpga__io_8c.html#a00a4bbec92692e8a9a447b375616efa1" target="_top" xlink:title=" ">
<polygon fill="white" stroke="#666666" points="430.12,-124.12 311.38,-124.12 311.38,-90.62 430.12,-90.62 430.12,-124.12"/>
<text xml:space="preserve" text-anchor="start" x="319.38" y="-110.62" font-family="Helvetica,sans-Serif" font-size="10.00">kest_fpga_send_byte</text>
<text xml:space="preserve" text-anchor="middle" x="370.75" y="-97.88" font-family="Helvetica,sans-Serif" font-size="10.00">_get_flags</text>
</a>
</g>
</g>
<!-- Node2&#45;&gt;Node8 -->
<g id="edge8_Node000002_Node000008" class="edge">
<title>Node2&#45;&gt;Node8</title>
<g id="a_edge8_Node000002_Node000008"><a xlink:title=" ">
<path fill="none" stroke="#63b8ff" d="M246.87,-66.15C264.46,-72.05 286.87,-79.57 307.73,-86.57"/>
<polygon fill="#63b8ff" stroke="#63b8ff" points="306.43,-89.82 317.02,-89.68 308.65,-83.19 306.43,-89.82"/>
</a>
</g>
</g>
<!-- Node4 -->
<g id="Node000004" class="node">
<title>Node4</title>
<g id="a_Node000004"><a xlink:href="kest__fpga__io_8c.html#a688987fc53c1295119933650d3a19776" target="_top" xlink:title=" ">
<polygon fill="white" stroke="#666666" points="605.5,-111.12 466.5,-111.12 466.5,-77.62 605.5,-77.62 605.5,-111.12"/>
<text xml:space="preserve" text-anchor="start" x="474.5" y="-97.62" font-family="Helvetica,sans-Serif" font-size="10.00">kest_fpga_decode_status</text>
<text xml:space="preserve" text-anchor="middle" x="536" y="-84.88" font-family="Helvetica,sans-Serif" font-size="10.00">_flags</text>
</a>
</g>
</g>
<!-- Node3&#45;&gt;Node4 -->
<g id="edge3_Node000003_Node000004" class="edge">
<title>Node3&#45;&gt;Node4</title>
<g id="a_edge3_Node000003_Node000004"><a xlink:title=" ">
<path fill="none" stroke="#63b8ff" d="M430.69,-69.45C438.6,-71.34 446.82,-73.31 455.02,-75.27"/>
<polygon fill="#63b8ff" stroke="#63b8ff" points="454.14,-78.66 464.68,-77.58 455.77,-71.85 454.14,-78.66"/>
</a>
</g>
</g>
<!-- Node5 -->
<g id="Node000005" class="node">
<title>Node5</title>
<g id="a_Node000005"><a xlink:href="kest__fpga__io_8c.html#ab908dedc52b0ca9107f52f74ab7860c6" target="_top" xlink:title=" ">
<polygon fill="white" stroke="#666666" points="594.62,-59.75 477.38,-59.75 477.38,-39 594.62,-39 594.62,-59.75"/>
<text xml:space="preserve" text-anchor="middle" x="536" y="-46.25" font-family="Helvetica,sans-Serif" font-size="10.00">kest_fpga_read_byte</text>
</a>
</g>
</g>
<!-- Node3&#45;&gt;Node5 -->
<g id="edge4_Node000003_Node000005" class="edge">
<title>Node3&#45;&gt;Node5</title>
<g id="a_edge4_Node000003_Node000005"><a xlink:title=" ">
<path fill="none" stroke="#63b8ff" d="M430.69,-53.21C441.99,-52.79 453.92,-52.35 465.52,-51.93"/>
<polygon fill="#63b8ff" stroke="#63b8ff" points="465.59,-55.43 475.46,-51.56 465.34,-48.43 465.59,-55.43"/>
</a>
</g>
</g>
<!-- Node6 -->
<g id="Node000006" class="node">
<title>Node6</title>
<g id="a_Node000006"><a xlink:href="kest__fpga__io_8c.html#a2fe46577ece371a5fc9834bc59390913" target="_top" xlink:title=" ">
<polygon fill="white" stroke="#666666" points="729.5,-59.75 641.5,-59.75 641.5,-39 729.5,-39 729.5,-59.75"/>
<text xml:space="preserve" text-anchor="middle" x="685.5" y="-46.25" font-family="Helvetica,sans-Serif" font-size="10.00">kest_fpga_txrx</text>
</a>
</g>
</g>
<!-- Node5&#45;&gt;Node6 -->
<g id="edge5_Node000005_Node000006" class="edge">
<title>Node5&#45;&gt;Node6</title>
<g id="a_edge5_Node000005_Node000006"><a xlink:title=" ">
<path fill="none" stroke="#63b8ff" d="M594.87,-49.38C606.49,-49.38 618.67,-49.38 630.17,-49.38"/>
<polygon fill="#63b8ff" stroke="#63b8ff" points="629.88,-52.88 639.88,-49.38 629.88,-45.88 629.88,-52.88"/>
</a>
</g>
</g>
<!-- Node7&#45;&gt;Node6 -->
<g id="edge7_Node000007_Node000006" class="edge">
<title>Node7&#45;&gt;Node6</title>
<g id="a_edge7_Node000007_Node000006"><a xlink:title=" ">
<path fill="none" stroke="#63b8ff" d="M578.09,-21.24C594.88,-25.68 614.5,-30.87 632.29,-35.57"/>
<polygon fill="#63b8ff" stroke="#63b8ff" points="631.35,-38.94 641.91,-38.12 633.14,-32.18 631.35,-38.94"/>
</a>
</g>
</g>
<!-- Node8&#45;&gt;Node4 -->
<g id="edge9_Node000008_Node000004" class="edge">
<title>Node8&#45;&gt;Node4</title>
<g id="a_edge9_Node000008_Node000004"><a xlink:title=" ">
<path fill="none" stroke="#63b8ff" d="M430.23,-102.72C438.21,-102.08 446.52,-101.42 454.82,-100.76"/>
<polygon fill="#63b8ff" stroke="#63b8ff" points="454.88,-104.27 464.57,-99.98 454.32,-97.29 454.88,-104.27"/>
</a>
</g>
</g>
<!-- Node8&#45;&gt;Node6 -->
<g id="edge10_Node000008_Node000006" class="edge">
<title>Node8&#45;&gt;Node6</title>
<g id="a_edge10_Node000008_Node000006"><a xlink:title=" ">
<path fill="none" stroke="#63b8ff" d="M430.48,-123.65C479.04,-134.09 548.95,-142.05 605.5,-120.38 632.23,-110.13 655.6,-86.2 669.84,-68.95"/>
<polygon fill="#63b8ff" stroke="#63b8ff" points="672.38,-71.38 675.85,-61.37 666.89,-67.04 672.38,-71.38"/>
</a>
</g>
</g>
</g>
</svg>

<g id="navigator" transform="translate(0 0)" fill="#404254">
  <rect fill="#f2f5e9" fill-opacity="0.5" stroke="#606060" stroke-width=".5" x="0" y="0" width="60" height="60"/>
  <use id="zoomplus" xlink:href="#zoomPlus" x="17" y="9" onmousedown="handleZoom(evt,'in')"/>
  <use id="zoomminus" xlink:href="#zoomMin" x="42" y="9" onmousedown="handleZoom(evt,'out')"/>
  <use id="reset" xlink:href="#resetDef" x="30" y="36" onmousedown="handleReset()"/>
   <use id="arrowup" xlink:href="#arrowUp" x="0" y="0" onmousedown="handlePan(0,-1)"/>
  <use id="arrowright" xlink:href="#arrowRight" x="0" y="0" onmousedown="handlePan(1,0)"/>
  <use id="arrowdown" xlink:href="#arrowDown" x="0" y="0" onmousedown="handlePan(0,1)"/>
  <use id="arrowleft" xlink:href="#arrowLeft" x="0" y="0" onmousedown="handlePan(-1,0)"/>
</g>
<svg viewBox="0 0 15 15" width="100%" height="30px" preserveAspectRatio="xMaxYMin meet">
 <g id="arrow_out" transform="scale(0.3 0.3)">
  <a xlink:href="kest__fpga__io_8h_a61cbd714b51619a08e508a5970def9af_cgraph_org.svg" target="_base">
   <rect id="button" ry="5" rx="5" y="6" x="6" height="38" width="38"
        fill="#f2f5e9" fill-opacity="0.5" stroke="#606060" stroke-width="1.0"/>
   <path id="arrow"
     d="M 11.500037,31.436501 C 11.940474,20.09759 22.043105,11.32322 32.158766,21.979434 L 37.068811,17.246167 C 37.068811,17.246167 37.088388,32 37.088388,32 L 22.160133,31.978069 C 22.160133,31.978069 26.997745,27.140456 26.997745,27.140456 C 18.528582,18.264221 13.291696,25.230495 11.500037,31.436501 z"
     style="fill:#404040;"/>
  </a>
 </g>
</svg>

<style type='text/css'>
<![CDATA[
[data-mouse-over-selected='false'] { opacity: 0.7; }
[data-mouse-over-selected='true']  { opacity: 1.0; }
]]>
</style>
<script type="application/ecmascript"><![CDATA[
document.addEventListener('DOMContentLoaded', (event) => {
  highlightEdges();
  highlightAdjacentNodes();
});
]]></script>
</svg>
