<?xml version="1.0" encoding="UTF-8" standalone="no"?>
<!DOCTYPE svg PUBLIC "-//W3C//DTD SVG 1.1//EN"
 "http://www.w3.org/Graphics/SVG/1.1/DTD/svg11.dtd">
<!-- Generated by graphviz version 13.1.2 (20250808.2320)
 -->
<!-- Title: kest_preset_append_effect_eff Pages: 1 -->
<!--zoomable 552 -->

<svg id="main" version="1.1" xmlns="http://www.w3.org/2000/svg" xmlns:xlink="http://www.w3.org/1999/xlink" xml:space="preserve" onload="init(evt)">

<style type="text/css"><![CDATA[
.node, .edge {opacity: 0.7;}
.node.selected, .edge.selected {opacity: 1;}
.edge:hover path { stroke: red; }
.edge:hover polygon { stroke: red; fill: red; }
]]></style>

<defs>
  <circle id="rim" cx="0" cy="0" r="7"/>
  <circle id="rim2" cx="0" cy="0" r="3.5"/>
  <g id="zoomPlus">
    <use xlink:href="#rim" fill="#404040"><set attributeName="fill" to="#808080" begin="zoomplus.mouseover" end="zoomplus.mouseout"/></use>
    <path d="M-4,0h8M0,-4v8" fill="none" stroke="white" stroke-width="1.5" pointer-events="none"/>
  </g>
  <g id="zoomMin">
    <use xlink:href="#rim" fill="#404040"><set attributeName="fill" to="#808080" begin="zoomminus.mouseover" end="zoomminus.mouseout"/></use>
    <path d="M-4,0h8" fill="none" stroke="white" stroke-width="1.5" pointer-events="none"/>
  </g>
  <g id="arrowUp" transform="translate(30 24)">
    <use xlink:href="#rim"/>
    <path pointer-events="none" fill="none" stroke="white" stroke-width="1.5" d="M0,-3.0v7 M-2.5,-0.5L0,-3.0L2.5,-0.5"/>
  </g>
  <g id="arrowRight" transform="rotate(90) translate(36 -43)">
    <use xlink:href="#rim"/>
    <path pointer-events="none" fill="none" stroke="white" stroke-width="1.5" d="M0,-3.0v7 M-2.5,-0.5L0,-3.0L2.5,-0.5"/>
  </g>
  <g id="arrowDown" transform="rotate(180) translate(-30 -48)">
    <use xlink:href="#rim"/>
    <path pointer-events="none" fill="none" stroke="white" stroke-width="1.5" d="M0,-3.0v7 M-2.5,-0.5L0,-3.0L2.5,-0.5"/>
  </g>
  <g id="arrowLeft" transform="rotate(270) translate(-36 17)">
    <use xlink:href="#rim"/>
    <path pointer-events="none" fill="none" stroke="white" stroke-width="1.5" d="M0,-3.0v7 M-2.5,-0.5L0,-3.0L2.5,-0.5"/>
  </g>
  <g id="resetDef">
    <use xlink:href="#rim2" fill="#404040"><set attributeName="fill" to="#808080" begin="reset.mouseover" end="reset.mouseout"/></use>
  </g>
</defs>
<script type="application/ecmascript">
var viewWidth = 911;
var viewHeight = 552;
var sectionId = 'dynsection-16';
</script>
<script type="application/ecmascript" xlink:href="svg.min.js"/>
<svg id="graph" class="graph">
<g id="viewport">
<title>kest_preset_append_effect_eff</title>
<!-- Node1 -->
<g id="Node000001" class="node">
<title>Node1</title>
<g id="a_Node000001"><a xlink:title=" ">
<polygon fill="#999999" stroke="#666666" points="113.5,-72.12 0,-72.12 0,-38.62 113.5,-38.62 113.5,-72.12"/>
<text xml:space="preserve" text-anchor="start" x="8" y="-58.62" font-family="Helvetica,sans-Serif" font-size="10.00">kest_preset_append</text>
<text xml:space="preserve" text-anchor="middle" x="56.75" y="-45.88" font-family="Helvetica,sans-Serif" font-size="10.00">_effect_eff</text>
</a>
</g>
</g>
<!-- Node2 -->
<g id="Node000002" class="node">
<title>Node2</title>
<g id="a_Node000002"><a xlink:href="kest__effect_8c.html#a45969080cfeedba828e766c3fe6670ab" target="_top" xlink:title=" ">
<polygon fill="white" stroke="#666666" points="287,-110.75 149.5,-110.75 149.5,-90 287,-90 287,-110.75"/>
<text xml:space="preserve" text-anchor="middle" x="218.25" y="-97.25" font-family="Helvetica,sans-Serif" font-size="10.00">effect_rectify_param_ids</text>
</a>
</g>
</g>
<!-- Node1&#45;&gt;Node2 -->
<g id="edge1_Node000001_Node000002" class="edge">
<title>Node1&#45;&gt;Node2</title>
<g id="a_edge1_Node000001_Node000002"><a xlink:title=" ">
<path fill="none" stroke="#63b8ff" d="M113.54,-71.21C125.41,-74.57 137.87,-78.1 149.5,-81.38 155.38,-83.03 161.55,-84.77 167.66,-86.49"/>
<polygon fill="#63b8ff" stroke="#63b8ff" points="166.52,-89.8 177.09,-89.13 168.41,-83.06 166.52,-89.8"/>
</a>
</g>
</g>
<!-- Node3 -->
<g id="Node000003" class="node">
<title>Node3</title>
<g id="a_Node000003"><a xlink:href="kest__pipeline_8c.html#a0eff55a4103a090993bbac228a981af6" target="_top" xlink:title=" ">
<polygon fill="white" stroke="#666666" points="279.12,-72.12 157.38,-72.12 157.38,-38.62 279.12,-38.62 279.12,-72.12"/>
<text xml:space="preserve" text-anchor="start" x="165.38" y="-58.62" font-family="Helvetica,sans-Serif" font-size="10.00">kest_pipeline_append</text>
<text xml:space="preserve" text-anchor="middle" x="218.25" y="-45.88" font-family="Helvetica,sans-Serif" font-size="10.00">_effect_eff</text>
</a>
</g>
</g>
<!-- Node1&#45;&gt;Node3 -->
<g id="edge2_Node000001_Node000003" class="edge">
<title>Node1&#45;&gt;Node3</title>
<g id="a_edge2_Node000001_Node000003"><a xlink:title=" ">
<path fill="none" stroke="#63b8ff" d="M113.98,-55.38C124.19,-55.38 134.97,-55.38 145.55,-55.38"/>
<polygon fill="#63b8ff" stroke="#63b8ff" points="145.41,-58.88 155.41,-55.38 145.41,-51.88 145.41,-58.88"/>
</a>
</g>
</g>
<!-- Node115 -->
<g id="Node000115" class="node">
<title>Node115</title>
<g id="a_Node000115"><a xlink:href="kest__file__task_8c.html#ac3b15345565620ef82e718bed7688b36" target="_top" xlink:title=" ">
<polygon fill="white" stroke="#666666" points="286.25,-20.75 150.25,-20.75 150.25,0 286.25,0 286.25,-20.75"/>
<text xml:space="preserve" text-anchor="middle" x="218.25" y="-7.25" font-family="Helvetica,sans-Serif" font-size="10.00">kest_queue_preset_save</text>
</a>
</g>
</g>
<!-- Node1&#45;&gt;Node115 -->
<g id="edge20_Node000001_Node000115" class="edge">
<title>Node1&#45;&gt;Node115</title>
<g id="a_edge20_Node000001_Node000115"><a xlink:title=" ">
<path fill="none" stroke="#63b8ff" d="M113.54,-39.54C125.41,-36.18 137.87,-32.65 149.5,-29.38 155.38,-27.72 161.55,-25.98 167.66,-24.26"/>
<polygon fill="#63b8ff" stroke="#63b8ff" points="168.41,-27.69 177.09,-21.62 166.52,-20.95 168.41,-27.69"/>
</a>
</g>
</g>
<!-- Node4 -->
<g id="Node000004" class="node">
<title>Node4</title>
<g id="a_Node000004"><a xlink:href="kest__effect_8c.html#a85b25e44e2629962673634f965ffe304" target="_top" xlink:title=" ">
<polygon fill="white" stroke="#666666" points="478.5,-318.75 323,-318.75 323,-298 478.5,-298 478.5,-318.75"/>
<text xml:space="preserve" text-anchor="middle" x="400.75" y="-305.25" font-family="Helvetica,sans-Serif" font-size="10.00">init_effect_from_effect_desc</text>
</a>
</g>
</g>
<!-- Node3&#45;&gt;Node4 -->
<g id="edge3_Node000003_Node000004" class="edge">
<title>Node3&#45;&gt;Node4</title>
<g id="a_edge3_Node000003_Node000004"><a xlink:title=" ">
<path fill="none" stroke="#63b8ff" d="M274.93,-72.62C279.27,-75.17 283.37,-78.07 287,-81.38 350.97,-139.56 383.17,-242.19 394.68,-286.73"/>
<polygon fill="#63b8ff" stroke="#63b8ff" points="391.22,-287.34 397.02,-296.2 398.02,-285.65 391.22,-287.34"/>
</a>
</g>
</g>
<!-- Node41 -->
<g id="Node000041" class="node">
<title>Node41</title>
<g id="a_Node000041"><a xlink:href="kest__alloc_8c.html#a849755c5dc5b35e712ffcdb602e50fb4" target="_top" xlink:title=" ">
<polygon fill="white" stroke="#666666" points="903,-214.75 838.25,-214.75 838.25,-194 903,-194 903,-214.75"/>
<text xml:space="preserve" text-anchor="middle" x="870.62" y="-201.25" font-family="Helvetica,sans-Serif" font-size="10.00">kest_alloc</text>
</a>
</g>
</g>
<!-- Node3&#45;&gt;Node41 -->
<g id="edge18_Node000003_Node000041" class="edge">
<title>Node3&#45;&gt;Node41</title>
<g id="a_edge18_Node000003_Node000041"><a xlink:title=" ">
<path fill="none" stroke="#63b8ff" d="M279.45,-41.44C365.09,-24.38 525.85,-2.67 653.5,-45.38 739.02,-73.99 818.79,-150.25 852.6,-185.74"/>
<polygon fill="#63b8ff" stroke="#63b8ff" points="849.76,-187.82 859.15,-192.72 854.86,-183.03 849.76,-187.82"/>
</a>
</g>
</g>
<!-- Node57 -->
<g id="Node000057" class="node">
<title>Node57</title>
<g id="a_Node000057"><a xlink:href="kest__alloc_8c.html#a4bb52284828149d9a740bac0c9706ecd" target="_top" xlink:title=" ">
<polygon fill="white" stroke="#666666" points="802.25,-214.75 689.5,-214.75 689.5,-194 802.25,-194 802.25,-214.75"/>
<text xml:space="preserve" text-anchor="middle" x="745.88" y="-201.25" font-family="Helvetica,sans-Serif" font-size="10.00">kest_allocator_alloc</text>
</a>
</g>
</g>
<!-- Node3&#45;&gt;Node57 -->
<g id="edge19_Node000003_Node000057" class="edge">
<title>Node3&#45;&gt;Node57</title>
<g id="a_edge19_Node000003_Node000057"><a xlink:title=" ">
<path fill="none" stroke="#63b8ff" d="M279.24,-51.6C382.97,-46.12 590.78,-40.04 653.5,-74.38 697.08,-98.23 724.56,-152.86 737.03,-183.16"/>
<polygon fill="#63b8ff" stroke="#63b8ff" points="733.75,-184.37 740.65,-192.4 740.26,-181.81 733.75,-184.37"/>
</a>
</g>
</g>
<!-- Node5 -->
<g id="Node000005" class="node">
<title>Node5</title>
<g id="a_Node000005"><a xlink:href="kest__effect_8c.html#a6d9927f6d82c964bd07bef5c77879010" target="_top" xlink:title=" ">
<polygon fill="#fff0f0" stroke="red" points="778.62,-372.75 713.12,-372.75 713.12,-352 778.62,-352 778.62,-372.75"/>
<text xml:space="preserve" text-anchor="middle" x="745.88" y="-359.25" font-family="Helvetica,sans-Serif" font-size="10.00">init_effect</text>
</a>
</g>
</g>
<!-- Node4&#45;&gt;Node5 -->
<g id="edge4_Node000004_Node000005" class="edge">
<title>Node4&#45;&gt;Node5</title>
<g id="a_edge4_Node000004_Node000005"><a xlink:title=" ">
<path fill="none" stroke="#63b8ff" d="M405.49,-318.94C416.59,-348.48 452.52,-431.82 514.5,-463.38 569.55,-491.41 597.03,-488.44 653.5,-463.38 690.59,-446.91 719.01,-407.14 733.72,-382.7"/>
<polygon fill="#63b8ff" stroke="#63b8ff" points="736.61,-384.71 738.58,-374.3 730.55,-381.2 736.61,-384.71"/>
</a>
</g>
</g>
<!-- Node50 -->
<g id="Node000050" class="node">
<title>Node50</title>
<g id="a_Node000050"><a xlink:href="kest__block_8c.html#a4216638d56b112fb88e9728298780e3f" target="_top" xlink:title=" ">
<polygon fill="white" stroke="#666666" points="652.38,-402.75 515.62,-402.75 515.62,-382 652.38,-382 652.38,-402.75"/>
<text xml:space="preserve" text-anchor="middle" x="584" y="-389.25" font-family="Helvetica,sans-Serif" font-size="10.00">kest_block_clone_no_res</text>
</a>
</g>
</g>
<!-- Node4&#45;&gt;Node50 -->
<g id="edge6_Node000004_Node000050" class="edge">
<title>Node4&#45;&gt;Node50</title>
<g id="a_edge6_Node000004_Node000050"><a xlink:title=" ">
<path fill="none" stroke="#63b8ff" d="M417.94,-319.17C439.3,-333.03 478.43,-357.12 514.5,-372.38 519.31,-374.41 524.39,-376.32 529.53,-378.08"/>
<polygon fill="#63b8ff" stroke="#63b8ff" points="528.04,-381.28 538.64,-381.04 530.21,-374.62 528.04,-381.28"/>
</a>
</g>
</g>
<!-- Node51 -->
<g id="Node000051" class="node">
<title>Node51</title>
<g id="a_Node000051"><a xlink:href="kest__driver_8c.html#a9ec3724c2ca2c8320b1eb76c6c8c3eca" target="_top" xlink:title=" ">
<polygon fill="#fff0f0" stroke="red" points="644.12,-363.75 523.88,-363.75 523.88,-343 644.12,-343 644.12,-363.75"/>
<text xml:space="preserve" text-anchor="middle" x="584" y="-350.25" font-family="Helvetica,sans-Serif" font-size="10.00">kest_driver_clone_for</text>
</a>
</g>
</g>
<!-- Node4&#45;&gt;Node51 -->
<g id="edge7_Node000004_Node000051" class="edge">
<title>Node4&#45;&gt;Node51</title>
<g id="a_edge7_Node000004_Node000051"><a xlink:title=" ">
<path fill="none" stroke="#63b8ff" d="M445.16,-319.15C470.09,-325.34 501.63,-333.17 528.24,-339.78"/>
<polygon fill="#63b8ff" stroke="#63b8ff" points="527.29,-343.15 537.84,-342.16 528.98,-336.36 527.29,-343.15"/>
</a>
</g>
</g>
<!-- Node53 -->
<g id="Node000053" class="node">
<title>Node53</title>
<g id="a_Node000053"><a xlink:href="kest__resource_8c.html#aae0c2105bbc588fd039daebe272cd5eb" target="_top" xlink:title=" ">
<polygon fill="#fff0f0" stroke="red" points="653.12,-325.12 514.88,-325.12 514.88,-291.62 653.12,-291.62 653.12,-325.12"/>
<text xml:space="preserve" text-anchor="start" x="522.88" y="-311.62" font-family="Helvetica,sans-Serif" font-size="10.00">kest_dsp_resource_make</text>
<text xml:space="preserve" text-anchor="middle" x="584" y="-298.88" font-family="Helvetica,sans-Serif" font-size="10.00">_clone_for_effect</text>
</a>
</g>
</g>
<!-- Node4&#45;&gt;Node53 -->
<g id="edge8_Node000004_Node000053" class="edge">
<title>Node4&#45;&gt;Node53</title>
<g id="a_edge8_Node000004_Node000053"><a xlink:title=" ">
<path fill="none" stroke="#63b8ff" d="M478.88,-308.38C486.93,-308.38 495.13,-308.38 503.22,-308.38"/>
<polygon fill="#63b8ff" stroke="#63b8ff" points="503.03,-311.88 513.03,-308.38 503.03,-304.88 503.03,-311.88"/>
</a>
</g>
</g>
<!-- Node68 -->
<g id="Node000068" class="node">
<title>Node68</title>
<g id="a_Node000068"><a xlink:href="kest__effect_8c.html#a487a10984ad42feea8c8e1e97f4cd3a3" target="_top" xlink:title=" ">
<polygon fill="#fff0f0" stroke="red" points="637,-273.12 531,-273.12 531,-239.62 637,-239.62 637,-273.12"/>
<text xml:space="preserve" text-anchor="start" x="539" y="-259.62" font-family="Helvetica,sans-Serif" font-size="10.00">kest_effect_create</text>
<text xml:space="preserve" text-anchor="middle" x="584" y="-246.88" font-family="Helvetica,sans-Serif" font-size="10.00">_scope</text>
</a>
</g>
</g>
<!-- Node4&#45;&gt;Node68 -->
<g id="edge9_Node000004_Node000068" class="edge">
<title>Node4&#45;&gt;Node68</title>
<g id="a_edge9_Node000004_Node000068"><a xlink:title=" ">
<path fill="none" stroke="#63b8ff" d="M439.31,-297.6C462.54,-290.93 492.97,-282.2 519.84,-274.49"/>
<polygon fill="#63b8ff" stroke="#63b8ff" points="520.62,-277.91 529.26,-271.79 518.69,-271.19 520.62,-277.91"/>
</a>
</g>
</g>
<!-- Node92 -->
<g id="Node000092" class="node">
<title>Node92</title>
<g id="a_Node000092"><a xlink:href="kest__parameter_8c.html#ae948a40b754ee638db216e685c38cc61" target="_top" xlink:title=" ">
<polygon fill="#fff0f0" stroke="red" points="646.38,-221.12 521.62,-221.12 521.62,-187.62 646.38,-187.62 646.38,-221.12"/>
<text xml:space="preserve" text-anchor="start" x="529.62" y="-207.62" font-family="Helvetica,sans-Serif" font-size="10.00">kest_parameter_make</text>
<text xml:space="preserve" text-anchor="middle" x="584" y="-194.88" font-family="Helvetica,sans-Serif" font-size="10.00">_clone_for_effect</text>
</a>
</g>
</g>
<!-- Node4&#45;&gt;Node92 -->
<g id="edge10_Node000004_Node000092" class="edge">
<title>Node4&#45;&gt;Node92</title>
<g id="a_edge10_Node000004_Node000092"><a xlink:title=" ">
<path fill="none" stroke="#63b8ff" d="M414.95,-297.64C435.34,-281.45 476.16,-250.53 514.5,-230.38 517.2,-228.95 520,-227.57 522.86,-226.23"/>
<polygon fill="#63b8ff" stroke="#63b8ff" points="524.24,-229.44 531.97,-222.19 521.41,-223.04 524.24,-229.44"/>
</a>
</g>
</g>
<!-- Node95 -->
<g id="Node000095" class="node">
<title>Node95</title>
<g id="a_Node000095"><a xlink:href="kest__expr__scope_8c.html#a62815d9489a1f274ff62875d9c3e53e1" target="_top" xlink:title=" ">
<polygon fill="#fff0f0" stroke="red" points="646.38,-169.12 521.62,-169.12 521.62,-135.62 646.38,-135.62 646.38,-169.12"/>
<text xml:space="preserve" text-anchor="start" x="529.62" y="-155.62" font-family="Helvetica,sans-Serif" font-size="10.00">kest_scope_add_block</text>
<text xml:space="preserve" text-anchor="middle" x="584" y="-142.88" font-family="Helvetica,sans-Serif" font-size="10.00">_reg_dependencies</text>
</a>
</g>
</g>
<!-- Node4&#45;&gt;Node95 -->
<g id="edge13_Node000004_Node000095" class="edge">
<title>Node4&#45;&gt;Node95</title>
<g id="a_edge13_Node000004_Node000095"><a xlink:title=" ">
<path fill="none" stroke="#63b8ff" d="M408.31,-297.71C423.84,-273.29 465.26,-212.75 514.5,-178.38 516.26,-177.15 518.09,-175.97 519.96,-174.83"/>
<polygon fill="#63b8ff" stroke="#63b8ff" points="521.22,-178.13 528.34,-170.29 517.88,-171.98 521.22,-178.13"/>
</a>
</g>
</g>
<!-- Node98 -->
<g id="Node000098" class="node">
<title>Node98</title>
<g id="a_Node000098"><a xlink:href="kest__expr__scope_8c.html#ab954da49064df7635bd107423cd9ebf0" target="_top" xlink:title=" ">
<polygon fill="#fff0f0" stroke="red" points="644.88,-117.12 523.12,-117.12 523.12,-83.62 644.88,-83.62 644.88,-117.12"/>
<text xml:space="preserve" text-anchor="start" x="531.12" y="-103.62" font-family="Helvetica,sans-Serif" font-size="10.00">kest_scope_add_filter</text>
<text xml:space="preserve" text-anchor="middle" x="584" y="-90.88" font-family="Helvetica,sans-Serif" font-size="10.00">_coef_dependencies</text>
</a>
</g>
</g>
<!-- Node4&#45;&gt;Node98 -->
<g id="edge14_Node000004_Node000098" class="edge">
<title>Node4&#45;&gt;Node98</title>
<g id="a_edge14_Node000004_Node000098"><a xlink:title=" ">
<path fill="none" stroke="#63b8ff" d="M405.53,-297.67C416.99,-266.69 454.27,-176.03 514.5,-126.38 515.63,-125.44 516.8,-124.54 518,-123.67"/>
<polygon fill="#63b8ff" stroke="#63b8ff" points="519.83,-126.65 526.44,-118.37 516.11,-120.72 519.83,-126.65"/>
</a>
</g>
</g>
<!-- Node101 -->
<g id="Node000101" class="node">
<title>Node101</title>
<g id="a_Node000101"><a xlink:href="kest__expr__scope_8c.html#a22d04780c6f58fc94a907b3969a819cc" target="_top" xlink:title=" ">
<polygon fill="#fff0f0" stroke="red" points="650.12,-544.12 517.88,-544.12 517.88,-510.62 650.12,-510.62 650.12,-544.12"/>
<text xml:space="preserve" text-anchor="start" x="525.88" y="-530.62" font-family="Helvetica,sans-Serif" font-size="10.00">kest_scope_transitivize</text>
<text xml:space="preserve" text-anchor="middle" x="584" y="-517.88" font-family="Helvetica,sans-Serif" font-size="10.00">_updatable_dependents</text>
</a>
</g>
</g>
<!-- Node4&#45;&gt;Node101 -->
<g id="edge15_Node000004_Node000101" class="edge">
<title>Node4&#45;&gt;Node101</title>
<g id="a_edge15_Node000004_Node000101"><a xlink:title=" ">
<path fill="none" stroke="#63b8ff" d="M405.42,-318.81C416.83,-349.88 454.54,-442.96 514.5,-496.38 517.8,-499.32 521.44,-502.03 525.25,-504.51"/>
<polygon fill="#63b8ff" stroke="#63b8ff" points="523.31,-507.43 533.71,-509.46 526.85,-501.39 523.31,-507.43"/>
</a>
</g>
</g>
<!-- Node112 -->
<g id="Node000112" class="node">
<title>Node112</title>
<g id="a_Node000112"><a xlink:href="kest__parameter_8c.html#a93c254fa0bc2933e67e92e4b2acb2aac" target="_top" xlink:title=" ">
<polygon fill="#fff0f0" stroke="red" points="653.5,-454.12 514.5,-454.12 514.5,-420.62 653.5,-420.62 653.5,-454.12"/>
<text xml:space="preserve" text-anchor="start" x="522.5" y="-440.62" font-family="Helvetica,sans-Serif" font-size="10.00">kest_setting_make_clone</text>
<text xml:space="preserve" text-anchor="middle" x="584" y="-427.88" font-family="Helvetica,sans-Serif" font-size="10.00">_for_effect</text>
</a>
</g>
</g>
<!-- Node4&#45;&gt;Node112 -->
<g id="edge16_Node000004_Node000112" class="edge">
<title>Node4&#45;&gt;Node112</title>
<g id="a_edge16_Node000004_Node000112"><a xlink:title=" ">
<path fill="none" stroke="#63b8ff" d="M410.96,-319.15C428.96,-339.64 470.92,-384.56 514.5,-411.38 516.66,-412.7 518.89,-413.98 521.18,-415.21"/>
<polygon fill="#63b8ff" stroke="#63b8ff" points="519.6,-418.33 530.12,-419.61 522.69,-412.05 519.6,-418.33"/>
</a>
</g>
</g>
<!-- Node5&#45;&gt;Node41 -->
<g id="edge5_Node000005_Node000041" class="edge">
<title>Node5&#45;&gt;Node41</title>
<g id="a_edge5_Node000005_Node000041"><a xlink:title=" ">
<path fill="none" stroke="#63b8ff" d="M755.31,-351.52C775.82,-325.12 828.51,-257.3 854.57,-223.75"/>
<polygon fill="#63b8ff" stroke="#63b8ff" points="857.15,-226.13 860.52,-216.09 851.62,-221.84 857.15,-226.13"/>
</a>
</g>
</g>
<!-- Node92&#45;&gt;Node57 -->
<g id="edge11_Node000092_Node000057" class="edge">
<title>Node92&#45;&gt;Node57</title>
<g id="a_edge11_Node000092_Node000057"><a xlink:title=" ">
<path fill="none" stroke="#63b8ff" d="M646.81,-204.38C656.96,-204.38 667.53,-204.38 677.8,-204.38"/>
<polygon fill="#63b8ff" stroke="#63b8ff" points="677.72,-207.88 687.72,-204.38 677.72,-200.88 677.72,-207.88"/>
</a>
</g>
</g>
<!-- Node57&#45;&gt;Node41 -->
<g id="edge12_Node000057_Node000041" class="edge">
<title>Node57&#45;&gt;Node41</title>
<g id="a_edge12_Node000057_Node000041"><a xlink:title=" ">
<path fill="none" stroke="#63b8ff" d="M802.5,-204.38C810.59,-204.38 818.81,-204.38 826.6,-204.38"/>
<polygon fill="#63b8ff" stroke="#63b8ff" points="826.5,-207.88 836.5,-204.38 826.5,-200.88 826.5,-207.88"/>
</a>
</g>
</g>
<!-- Node112&#45;&gt;Node57 -->
<g id="edge17_Node000112_Node000057" class="edge">
<title>Node112&#45;&gt;Node57</title>
<g id="a_edge17_Node000112_Node000057"><a xlink:title=" ">
<path fill="none" stroke="#63b8ff" d="M641.79,-420.16C646.02,-417.61 649.99,-414.7 653.5,-411.38 667.95,-397.67 716.82,-275.84 736.53,-225.74"/>
<polygon fill="#63b8ff" stroke="#63b8ff" points="739.73,-227.17 740.13,-216.58 733.22,-224.61 739.73,-227.17"/>
</a>
</g>
</g>
</g>
</svg>

<g id="navigator" transform="translate(0 0)" fill="#404254">
  <rect fill="#f2f5e9" fill-opacity="0.5" stroke="#606060" stroke-width=".5" x="0" y="0" width="60" height="60"/>
  <use id="zoomplus" xlink:href="#zoomPlus" x="17" y="9" onmousedown="handleZoom(evt,'in')"/>
  <use id="zoomminus" xlink:href="#zoomMin" x="42" y="9" onmousedown="handleZoom(evt,'out')"/>
  <use id="reset" xlink:href="#resetDef" x="30" y="36" onmousedown="handleReset()"/>
   <use id="arrowup" xlink:href="#arrowUp" x="0" y="0" onmousedown="handlePan(0,-1)"/>
  <use id="arrowright" xlink:href="#arrowRight" x="0" y="0" onmousedown="handlePan(1,0)"/>
  <use id="arrowdown" xlink:href="#arrowDown" x="0" y="0" onmousedown="handlePan(0,1)"/>
  <use id="arrowleft" xlink:href="#arrowLeft" x="0" y="0" onmousedown="handlePan(-1,0)"/>
</g>
<svg viewBox="0 0 15 15" width="100%" height="30px" preserveAspectRatio="xMaxYMin meet">
 <g id="arrow_out" transform="scale(0.3 0.3)">
  <a xlink:href="kest__preset_8h_a9a85dd1d443d85fb9a7b91bd439ba450_cgraph_org.svg" target="_base">
   <rect id="button" ry="5" rx="5" y="6" x="6" height="38" width="38"
        fill="#f2f5e9" fill-opacity="0.5" stroke="#606060" stroke-width="1.0"/>
   <path id="arrow"
     d="M 11.500037,31.436501 C 11.940474,20.09759 22.043105,11.32322 32.158766,21.979434 L 37.068811,17.246167 C 37.068811,17.246167 37.088388,32 37.088388,32 L 22.160133,31.978069 C 22.160133,31.978069 26.997745,27.140456 26.997745,27.140456 C 18.528582,18.264221 13.291696,25.230495 11.500037,31.436501 z"
     style="fill:#404040;"/>
  </a>
 </g>
</svg>

<style type='text/css'>
<![CDATA[
[data-mouse-over-selected='false'] { opacity: 0.7; }
[data-mouse-over-selected='true']  { opacity: 1.0; }
]]>
</style>
<script type="application/ecmascript"><![CDATA[
document.addEventListener('DOMContentLoaded', (event) => {
  highlightEdges();
  highlightAdjacentNodes();
});
]]></script>
</svg>
