<?xml version="1.0" encoding="UTF-8" standalone="no"?>
<!DOCTYPE svg PUBLIC "-//W3C//DTD SVG 1.1//EN"
 "http://www.w3.org/Graphics/SVG/1.1/DTD/svg11.dtd">
<!-- Generated by graphviz version 13.1.2 (20250808.2320)
 -->
<!-- Title: kest_free_preset Pages: 1 -->
<svg width="470pt" height="68pt"
 viewBox="0.00 0.00 470.00 68.00" xmlns="http://www.w3.org/2000/svg" xmlns:xlink="http://www.w3.org/1999/xlink">
<g id="graph0" class="graph" transform="scale(1 1) rotate(0) translate(4 63.75)">
<title>kest_free_preset</title>
<!-- Node1 -->
<g id="Node000001" class="node">
<title>Node1</title>
<g id="a_Node000001"><a xlink:title=" ">
<polygon fill="#999999" stroke="#666666" points="97,-39.75 0,-39.75 0,-19 97,-19 97,-39.75"/>
<text xml:space="preserve" text-anchor="middle" x="48.5" y="-26.25" font-family="Helvetica,sans-Serif" font-size="10.00">kest_free_preset</text>
</a>
</g>
</g>
<!-- Node2 -->
<g id="Node000002" class="node">
<title>Node2</title>
<g id="a_Node000002"><a xlink:href="kest__preset_8c.html#a4d502f8b682425208e39082cbac4a4a1" target="_top" xlink:title=" ">
<polygon fill="white" stroke="#666666" points="204.5,-39.75 133,-39.75 133,-19 204.5,-19 204.5,-39.75"/>
<text xml:space="preserve" text-anchor="middle" x="168.75" y="-26.25" font-family="Helvetica,sans-Serif" font-size="10.00">free_preset</text>
</a>
</g>
</g>
<!-- Node1&#45;&gt;Node2 -->
<g id="edge1_Node000001_Node000002" class="edge">
<title>Node1&#45;&gt;Node2</title>
<g id="a_edge1_Node000001_Node000002"><a xlink:title=" ">
<path fill="none" stroke="#63b8ff" d="M97.26,-29.38C105.18,-29.38 113.39,-29.38 121.28,-29.38"/>
<polygon fill="#63b8ff" stroke="#63b8ff" points="121.03,-32.88 131.03,-29.38 121.03,-25.88 121.03,-32.88"/>
</a>
</g>
</g>
<!-- Node3 -->
<g id="Node000003" class="node">
<title>Node3</title>
<g id="a_Node000003"><a xlink:href="kest__preset_8c.html#a5f4b58a8868ab9b0bc2340f1bb089ffb" target="_top" xlink:title=" ">
<polygon fill="white" stroke="#666666" points="328.88,-59.75 261.12,-59.75 261.12,-39 328.88,-39 328.88,-59.75"/>
<text xml:space="preserve" text-anchor="middle" x="295" y="-46.25" font-family="Helvetica,sans-Serif" font-size="10.00">gut_preset</text>
</a>
</g>
</g>
<!-- Node2&#45;&gt;Node3 -->
<g id="edge2_Node000002_Node000003" class="edge">
<title>Node2&#45;&gt;Node3</title>
<g id="a_edge2_Node000002_Node000003"><a xlink:title=" ">
<path fill="none" stroke="#63b8ff" d="M204.69,-35C218.76,-37.26 235.15,-39.9 250.02,-42.3"/>
<polygon fill="#63b8ff" stroke="#63b8ff" points="249.1,-45.69 259.53,-43.83 250.22,-38.78 249.1,-45.69"/>
</a>
</g>
</g>
<!-- Node9 -->
<g id="Node000009" class="node">
<title>Node9</title>
<g id="a_Node000009"><a xlink:href="kest__alloc_8c.html#ac70a0464d391cefa33eb0f6d746ff7aa" target="_top" xlink:title=" ">
<polygon fill="white" stroke="#666666" points="349.5,-20.75 240.5,-20.75 240.5,0 349.5,0 349.5,-20.75"/>
<text xml:space="preserve" text-anchor="middle" x="295" y="-7.25" font-family="Helvetica,sans-Serif" font-size="10.00">kest_allocator_free</text>
</a>
</g>
</g>
<!-- Node2&#45;&gt;Node9 -->
<g id="edge5_Node000002_Node000009" class="edge">
<title>Node2&#45;&gt;Node9</title>
<g id="a_edge5_Node000002_Node000009"><a xlink:title=" ">
<path fill="none" stroke="#63b8ff" d="M204.69,-24.03C212.29,-22.87 220.57,-21.6 228.91,-20.33"/>
<polygon fill="#63b8ff" stroke="#63b8ff" points="229.43,-23.79 238.79,-18.82 228.37,-16.87 229.43,-23.79"/>
</a>
</g>
</g>
<!-- Node4 -->
<g id="Node000004" class="node">
<title>Node4</title>
<g id="a_Node000004"><a xlink:href="kest__pipeline_8c.html#a840a0f31f2703ff6040d47245cc56c7a" target="_top" xlink:title=" ">
<polygon fill="#fff0f0" stroke="red" points="461.5,-59.75 385.5,-59.75 385.5,-39 461.5,-39 461.5,-59.75"/>
<text xml:space="preserve" text-anchor="middle" x="423.5" y="-46.25" font-family="Helvetica,sans-Serif" font-size="10.00">gut_pipeline</text>
</a>
</g>
</g>
<!-- Node3&#45;&gt;Node4 -->
<g id="edge3_Node000003_Node000004" class="edge">
<title>Node3&#45;&gt;Node4</title>
<g id="a_edge3_Node000003_Node000004"><a xlink:title=" ">
<path fill="none" stroke="#63b8ff" d="M329.24,-49.38C342.89,-49.38 358.96,-49.38 373.89,-49.38"/>
<polygon fill="#63b8ff" stroke="#63b8ff" points="373.51,-52.88 383.51,-49.38 373.51,-45.88 373.51,-52.88"/>
</a>
</g>
</g>
<!-- Node8 -->
<g id="Node000008" class="node">
<title>Node8</title>
<g id="a_Node000008"><a xlink:href="kest__alloc_8c.html#a294af5728a94aa316fcf65304d388d48" target="_top" xlink:title=" ">
<polygon fill="white" stroke="#666666" points="454,-20.75 393,-20.75 393,0 454,0 454,-20.75"/>
<text xml:space="preserve" text-anchor="middle" x="423.5" y="-7.25" font-family="Helvetica,sans-Serif" font-size="10.00">kest_free</text>
</a>
</g>
</g>
<!-- Node3&#45;&gt;Node8 -->
<g id="edge4_Node000003_Node000008" class="edge">
<title>Node3&#45;&gt;Node8</title>
<g id="a_edge4_Node000003_Node000008"><a xlink:title=" ">
<path fill="none" stroke="#63b8ff" d="M329.24,-39.13C345.33,-34.17 364.8,-28.16 381.77,-22.93"/>
<polygon fill="#63b8ff" stroke="#63b8ff" points="382.54,-26.36 391.06,-20.07 380.48,-19.67 382.54,-26.36"/>
</a>
</g>
</g>
<!-- Node9&#45;&gt;Node8 -->
<g id="edge6_Node000009_Node000008" class="edge">
<title>Node9&#45;&gt;Node8</title>
<g id="a_edge6_Node000009_Node000008"><a xlink:title=" ">
<path fill="none" stroke="#63b8ff" d="M349.65,-10.38C360.2,-10.38 371.11,-10.38 381.18,-10.38"/>
<polygon fill="#63b8ff" stroke="#63b8ff" points="381.03,-13.88 391.03,-10.38 381.03,-6.88 381.03,-13.88"/>
</a>
</g>
</g>
</g>
</svg>
