<?xml version="1.0" encoding="UTF-8" standalone="no"?>
<!DOCTYPE svg PUBLIC "-//W3C//DTD SVG 1.1//EN"
 "http://www.w3.org/Graphics/SVG/1.1/DTD/svg11.dtd">
<!-- Generated by graphviz version 13.1.2 (20250808.2320)
 -->
<!-- Title: kest_effect_activate_lfos Pages: 1 -->
<svg width="471pt" height="29pt"
 viewBox="0.00 0.00 471.00 29.00" xmlns="http://www.w3.org/2000/svg" xmlns:xlink="http://www.w3.org/1999/xlink">
<g id="graph0" class="graph" transform="scale(1 1) rotate(0) translate(4 24.75)">
<title>kest_effect_activate_lfos</title>
<!-- Node1 -->
<g id="Node000001" class="node">
<title>Node1</title>
<g id="a_Node000001"><a xlink:title=" ">
<polygon fill="#999999" stroke="#666666" points="138.25,-20.75 0,-20.75 0,0 138.25,0 138.25,-20.75"/>
<text xml:space="preserve" text-anchor="middle" x="69.12" y="-7.25" font-family="Helvetica,sans-Serif" font-size="10.00">kest_effect_activate_lfos</text>
</a>
</g>
</g>
<!-- Node2 -->
<g id="Node000002" class="node">
<title>Node2</title>
<g id="a_Node000002"><a xlink:href="kest__resource_8c.html#a9b9a6eab636edda3d8bbc1b61ccd3fd7" target="_top" xlink:title=" ">
<polygon fill="white" stroke="#666666" points="301.25,-20.75 174.25,-20.75 174.25,0 301.25,0 301.25,-20.75"/>
<text xml:space="preserve" text-anchor="middle" x="237.75" y="-7.25" font-family="Helvetica,sans-Serif" font-size="10.00">kest_lfo_activate_sync</text>
</a>
</g>
</g>
<!-- Node1&#45;&gt;Node2 -->
<g id="edge1_Node000001_Node000002" class="edge">
<title>Node1&#45;&gt;Node2</title>
<g id="a_edge1_Node000001_Node000002"><a xlink:title=" ">
<path fill="none" stroke="#63b8ff" d="M138.38,-10.38C146.38,-10.38 154.57,-10.38 162.65,-10.38"/>
<polygon fill="#63b8ff" stroke="#63b8ff" points="162.45,-13.88 172.45,-10.38 162.45,-6.88 162.45,-13.88"/>
</a>
</g>
</g>
<!-- Node3 -->
<g id="Node000003" class="node">
<title>Node3</title>
<g id="a_Node000003"><a xlink:href="kest__global_8c.html#a8fac0ce734ee513c822edfd74bb2d69d" target="_top" xlink:title=" ">
<polygon fill="white" stroke="#666666" points="462.75,-20.75 337.25,-20.75 337.25,0 462.75,0 462.75,-20.75"/>
<text xml:space="preserve" text-anchor="middle" x="400" y="-7.25" font-family="Helvetica,sans-Serif" font-size="10.00">kest_system_time_ms</text>
</a>
</g>
</g>
<!-- Node2&#45;&gt;Node3 -->
<g id="edge2_Node000002_Node000003" class="edge">
<title>Node2&#45;&gt;Node3</title>
<g id="a_edge2_Node000002_Node000003"><a xlink:title=" ">
<path fill="none" stroke="#63b8ff" d="M301.63,-10.38C309.4,-10.38 317.41,-10.38 325.33,-10.38"/>
<polygon fill="#63b8ff" stroke="#63b8ff" points="325.32,-13.88 335.32,-10.38 325.32,-6.88 325.32,-13.88"/>
</a>
</g>
</g>
</g>
</svg>
