<?xml version="1.0" encoding="UTF-8" standalone="no"?>
<!DOCTYPE svg PUBLIC "-//W3C//DTD SVG 1.1//EN"
 "http://www.w3.org/Graphics/SVG/1.1/DTD/svg11.dtd">
<!-- Generated by graphviz version 13.1.2 (20250808.2320)
 -->
<!-- Title: preset_settings_save_button_cb Pages: 1 -->
<svg width="388pt" height="158pt"
 viewBox="0.00 0.00 388.00 158.00" xmlns="http://www.w3.org/2000/svg" xmlns:xlink="http://www.w3.org/1999/xlink">

<svg id="main" version="1.1" xmlns="http://www.w3.org/2000/svg" xmlns:xlink="http://www.w3.org/1999/xlink" xml:space="preserve">

<style type="text/css"><![CDATA[
.node, .edge {opacity: 0.7;}
.node.selected, .edge.selected {opacity: 1;}
.edge:hover path { stroke: red; }
.edge:hover polygon { stroke: red; fill: red; }
]]></style>
<script type="application/ecmascript" xlink:href="svg.min.js"/>
<svg id="graph" class="graph">
<g id="graph0" class="graph" transform="scale(1 1) rotate(0) translate(4 153.75)">
<title>preset_settings_save_button_cb</title>
<!-- Node1 -->
<g id="Node000001" class="node">
<title>Node1</title>
<g id="a_Node000001"><a xlink:title=" ">
<polygon fill="#999999" stroke="#666666" points="119.5,-94.12 0,-94.12 0,-60.62 119.5,-60.62 119.5,-94.12"/>
<text xml:space="preserve" text-anchor="start" x="8" y="-80.62" font-family="Helvetica,sans-Serif" font-size="10.00">preset_settings_save</text>
<text xml:space="preserve" text-anchor="middle" x="59.75" y="-67.88" font-family="Helvetica,sans-Serif" font-size="10.00">_button_cb</text>
</a>
</g>
</g>
<!-- Node2 -->
<g id="Node000002" class="node">
<title>Node2</title>
<g id="a_Node000002"><a xlink:href="kest__files_8c.html#a930754405483621f50f94833b02cdd3c" target="_top" xlink:title=" ">
<polygon fill="white" stroke="#666666" points="230.75,-87.75 155.5,-87.75 155.5,-67 230.75,-67 230.75,-87.75"/>
<text xml:space="preserve" text-anchor="middle" x="193.12" y="-74.25" font-family="Helvetica,sans-Serif" font-size="10.00">save_preset</text>
</a>
</g>
</g>
<!-- Node1&#45;&gt;Node2 -->
<g id="edge1_Node000001_Node000002" class="edge">
<title>Node1&#45;&gt;Node2</title>
<g id="a_edge1_Node000001_Node000002"><a xlink:title=" ">
<path fill="none" stroke="#63b8ff" d="M119.9,-77.38C127.86,-77.38 135.95,-77.38 143.7,-77.38"/>
<polygon fill="#63b8ff" stroke="#63b8ff" points="143.61,-80.88 153.61,-77.38 143.61,-73.88 143.61,-80.88"/>
</a>
</g>
</g>
<!-- Node3 -->
<g id="Node000003" class="node">
<title>Node3</title>
<g id="a_Node000003"><a xlink:href="kest__files_8c.html#ab79d861306c25eab9284239e73d0cc07" target="_top" xlink:title=" ">
<polygon fill="white" stroke="#666666" points="379.12,-149.75 267.12,-149.75 267.12,-129 379.12,-129 379.12,-149.75"/>
<text xml:space="preserve" text-anchor="middle" x="323.12" y="-136.25" font-family="Helvetica,sans-Serif" font-size="10.00">dump_file_contents</text>
</a>
</g>
</g>
<!-- Node2&#45;&gt;Node3 -->
<g id="edge2_Node000002_Node000003" class="edge">
<title>Node2&#45;&gt;Node3</title>
<g id="a_edge2_Node000002_Node000003"><a xlink:title=" ">
<path fill="none" stroke="#63b8ff" d="M210.69,-88.09C225.12,-97.15 246.81,-110.1 266.75,-119.38 270.54,-121.14 274.53,-122.85 278.57,-124.48"/>
<polygon fill="#63b8ff" stroke="#63b8ff" points="277.23,-127.71 287.82,-128.04 279.74,-121.18 277.23,-127.71"/>
</a>
</g>
</g>
<!-- Node4 -->
<g id="Node000004" class="node">
<title>Node4</title>
<g id="a_Node000004"><a xlink:href="kest__files_8c.html#aa81649890323b78baf99fbbad53ab5ff" target="_top" xlink:title=" ">
<polygon fill="white" stroke="#666666" points="377.25,-110.75 269,-110.75 269,-90 377.25,-90 377.25,-110.75"/>
<text xml:space="preserve" text-anchor="middle" x="323.12" y="-97.25" font-family="Helvetica,sans-Serif" font-size="10.00">generate_filename</text>
</a>
</g>
</g>
<!-- Node2&#45;&gt;Node4 -->
<g id="edge3_Node000002_Node000004" class="edge">
<title>Node2&#45;&gt;Node4</title>
<g id="a_edge3_Node000002_Node000004"><a xlink:title=" ">
<path fill="none" stroke="#63b8ff" d="M231.15,-84.03C239.35,-85.5 248.28,-87.11 257.23,-88.71"/>
<polygon fill="#63b8ff" stroke="#63b8ff" points="256.57,-92.15 267.03,-90.48 257.81,-85.26 256.57,-92.15"/>
</a>
</g>
</g>
<!-- Node5 -->
<g id="Node000005" class="node">
<title>Node5</title>
<g id="a_Node000005"><a xlink:href="kest__error__codes_8c.html#a0f4c77127bc0b77264a21104979c576a" target="_top" xlink:title=" ">
<polygon fill="white" stroke="#666666" points="377.25,-72.12 269,-72.12 269,-38.62 377.25,-38.62 377.25,-72.12"/>
<text xml:space="preserve" text-anchor="start" x="277" y="-58.62" font-family="Helvetica,sans-Serif" font-size="10.00">kest_error_code_to</text>
<text xml:space="preserve" text-anchor="middle" x="323.12" y="-45.88" font-family="Helvetica,sans-Serif" font-size="10.00">_string</text>
</a>
</g>
</g>
<!-- Node2&#45;&gt;Node5 -->
<g id="edge4_Node000002_Node000005" class="edge">
<title>Node2&#45;&gt;Node5</title>
<g id="a_edge4_Node000002_Node000005"><a xlink:title=" ">
<path fill="none" stroke="#63b8ff" d="M231.15,-71.01C239.35,-69.6 248.28,-68.07 257.23,-66.53"/>
<polygon fill="#63b8ff" stroke="#63b8ff" points="257.77,-69.99 267.03,-64.84 256.58,-63.09 257.77,-69.99"/>
</a>
</g>
</g>
<!-- Node6 -->
<g id="Node000006" class="node">
<title>Node6</title>
<g id="a_Node000006"><a xlink:href="kest__files_8c.html#aa542ea8d9ebd98457dad581876d72af6" target="_top" xlink:title=" ">
<polygon fill="white" stroke="#666666" points="379.5,-20.75 266.75,-20.75 266.75,0 379.5,0 379.5,-20.75"/>
<text xml:space="preserve" text-anchor="middle" x="323.12" y="-7.25" font-family="Helvetica,sans-Serif" font-size="10.00">save_preset_as_file</text>
</a>
</g>
</g>
<!-- Node2&#45;&gt;Node6 -->
<g id="edge5_Node000002_Node000006" class="edge">
<title>Node2&#45;&gt;Node6</title>
<g id="a_edge5_Node000002_Node000006"><a xlink:title=" ">
<path fill="none" stroke="#63b8ff" d="M207.95,-66.69C222.11,-56.13 245.05,-40.05 266.75,-29.38 269.61,-27.97 272.61,-26.62 275.66,-25.33"/>
<polygon fill="#63b8ff" stroke="#63b8ff" points="276.69,-28.69 284.73,-21.79 274.14,-22.17 276.69,-28.69"/>
</a>
</g>
</g>
</g>
</svg>
</svg>

<style type='text/css'>
<![CDATA[
[data-mouse-over-selected='false'] { opacity: 0.7; }
[data-mouse-over-selected='true']  { opacity: 1.0; }
]]>
</style>
<script type="application/ecmascript"><![CDATA[
document.addEventListener('DOMContentLoaded', (event) => {
  highlightEdges();
  highlightAdjacentNodes();
});
]]></script>
</svg>
