<?xml version="1.0" encoding="UTF-8" standalone="no"?>
<!DOCTYPE svg PUBLIC "-//W3C//DTD SVG 1.1//EN"
 "http://www.w3.org/Graphics/SVG/1.1/DTD/svg11.dtd">
<!-- Generated by graphviz version 13.1.2 (20250808.2320)
 -->
<!-- Title: kest_parameter_if_driven_refresh Pages: 1 -->
<svg width="649pt" height="119pt"
 viewBox="0.00 0.00 649.00 119.00" xmlns="http://www.w3.org/2000/svg" xmlns:xlink="http://www.w3.org/1999/xlink">
<g id="graph0" class="graph" transform="scale(1 1) rotate(0) translate(4 115.12)">
<title>kest_parameter_if_driven_refresh</title>
<!-- Node1 -->
<g id="Node000001" class="node">
<title>Node1</title>
<g id="a_Node000001"><a xlink:title=" ">
<polygon fill="#999999" stroke="#666666" points="140.5,-66.12 0,-66.12 0,-32.62 140.5,-32.62 140.5,-66.12"/>
<text xml:space="preserve" text-anchor="start" x="8" y="-52.62" font-family="Helvetica,sans-Serif" font-size="10.00">kest_parameter_if_driven</text>
<text xml:space="preserve" text-anchor="middle" x="70.25" y="-39.88" font-family="Helvetica,sans-Serif" font-size="10.00">_refresh</text>
</a>
</g>
</g>
<!-- Node2 -->
<g id="Node000002" class="node">
<title>Node2</title>
<g id="a_Node000002"><a xlink:href="kest__driver_8c.html#ad7d539e70589854e314a464d5dfddcb5" target="_top" xlink:title=" ">
<polygon fill="white" stroke="#666666" points="294.5,-59.75 176.5,-59.75 176.5,-39 294.5,-39 294.5,-59.75"/>
<text xml:space="preserve" text-anchor="middle" x="235.5" y="-46.25" font-family="Helvetica,sans-Serif" font-size="10.00">kest_driver_evaluate</text>
</a>
</g>
</g>
<!-- Node1&#45;&gt;Node2 -->
<g id="edge1_Node000001_Node000002" class="edge">
<title>Node1&#45;&gt;Node2</title>
<g id="a_edge1_Node000001_Node000002"><a xlink:title=" ">
<path fill="none" stroke="#63b8ff" d="M140.96,-49.38C148.82,-49.38 156.83,-49.38 164.69,-49.38"/>
<polygon fill="#63b8ff" stroke="#63b8ff" points="164.55,-52.88 174.55,-49.38 164.55,-45.88 164.55,-52.88"/>
</a>
</g>
</g>
<!-- Node3 -->
<g id="Node000003" class="node">
<title>Node3</title>
<g id="a_Node000003"><a xlink:href="kest__error__codes_8c.html#a0f4c77127bc0b77264a21104979c576a" target="_top" xlink:title=" ">
<polygon fill="white" stroke="#666666" points="448.12,-111.12 339.88,-111.12 339.88,-77.62 448.12,-77.62 448.12,-111.12"/>
<text xml:space="preserve" text-anchor="start" x="347.88" y="-97.62" font-family="Helvetica,sans-Serif" font-size="10.00">kest_error_code_to</text>
<text xml:space="preserve" text-anchor="middle" x="394" y="-84.88" font-family="Helvetica,sans-Serif" font-size="10.00">_string</text>
</a>
</g>
</g>
<!-- Node2&#45;&gt;Node3 -->
<g id="edge2_Node000002_Node000003" class="edge">
<title>Node2&#45;&gt;Node3</title>
<g id="a_edge2_Node000002_Node000003"><a xlink:title=" ">
<path fill="none" stroke="#63b8ff" d="M273.99,-60.15C290.39,-64.87 310.11,-70.54 328.74,-75.9"/>
<polygon fill="#63b8ff" stroke="#63b8ff" points="327.51,-79.19 338.09,-78.59 329.44,-72.46 327.51,-79.19"/>
</a>
</g>
</g>
<!-- Node4 -->
<g id="Node000004" class="node">
<title>Node4</title>
<g id="a_Node000004"><a xlink:href="kest__expr__scope_8c.html#af2fc1f056676d41afa396a8b86be24e6" target="_top" xlink:title=" ">
<polygon fill="white" stroke="#666666" points="457.5,-59.75 330.5,-59.75 330.5,-39 457.5,-39 457.5,-59.75"/>
<text xml:space="preserve" text-anchor="middle" x="394" y="-46.25" font-family="Helvetica,sans-Serif" font-size="10.00">kest_scope_entry_eval</text>
</a>
</g>
</g>
<!-- Node2&#45;&gt;Node4 -->
<g id="edge3_Node000002_Node000004" class="edge">
<title>Node2&#45;&gt;Node4</title>
<g id="a_edge3_Node000002_Node000004"><a xlink:title=" ">
<path fill="none" stroke="#63b8ff" d="M294.77,-49.38C302.63,-49.38 310.77,-49.38 318.86,-49.38"/>
<polygon fill="#63b8ff" stroke="#63b8ff" points="318.7,-52.88 328.7,-49.38 318.7,-45.88 318.7,-52.88"/>
</a>
</g>
</g>
<!-- Node18 -->
<g id="Node000018" class="node">
<title>Node18</title>
<g id="a_Node000018"><a xlink:href="kest__expr__scope_8c.html#a536647952c07049da59284b9f928bd67" target="_top" xlink:title=" ">
<polygon fill="white" stroke="#666666" points="448.12,-20.75 339.88,-20.75 339.88,0 448.12,0 448.12,-20.75"/>
<text xml:space="preserve" text-anchor="middle" x="394" y="-7.25" font-family="Helvetica,sans-Serif" font-size="10.00">kest_scope_lookup</text>
</a>
</g>
</g>
<!-- Node2&#45;&gt;Node18 -->
<g id="edge5_Node000002_Node000018" class="edge">
<title>Node2&#45;&gt;Node18</title>
<g id="a_edge5_Node000002_Node000018"><a xlink:title=" ">
<path fill="none" stroke="#63b8ff" d="M280.09,-38.51C298.16,-34.01 319.32,-28.74 338.41,-23.98"/>
<polygon fill="#63b8ff" stroke="#63b8ff" points="339.04,-27.43 347.9,-21.61 337.35,-20.64 339.04,-27.43"/>
</a>
</g>
</g>
<!-- Node5 -->
<g id="Node000005" class="node">
<title>Node5</title>
<g id="a_Node000005"><a xlink:href="kest__expr__scope_8c.html#ab4b2ce40beae39f7dc02743730a37ec7" target="_top" xlink:title=" ">
<polygon fill="#fff0f0" stroke="red" points="640.75,-59.75 493.5,-59.75 493.5,-39 640.75,-39 640.75,-59.75"/>
<text xml:space="preserve" text-anchor="middle" x="567.12" y="-46.25" font-family="Helvetica,sans-Serif" font-size="10.00">kest_scope_entry_eval_rec</text>
</a>
</g>
</g>
<!-- Node4&#45;&gt;Node5 -->
<g id="edge4_Node000004_Node000005" class="edge">
<title>Node4&#45;&gt;Node5</title>
<g id="a_edge4_Node000004_Node000005"><a xlink:title=" ">
<path fill="none" stroke="#63b8ff" d="M457.75,-49.38C465.59,-49.38 473.71,-49.38 481.82,-49.38"/>
<polygon fill="#63b8ff" stroke="#63b8ff" points="481.73,-52.88 491.73,-49.38 481.73,-45.88 481.73,-52.88"/>
</a>
</g>
</g>
</g>
</svg>
