<?xml version="1.0" encoding="UTF-8" standalone="no"?>
<!DOCTYPE svg PUBLIC "-//W3C//DTD SVG 1.1//EN"
 "http://www.w3.org/Graphics/SVG/1.1/DTD/svg11.dtd">
<!-- Generated by graphviz version 13.1.2 (20250808.2320)
 -->
<!-- Title: seq_view_delete_cb Pages: 1 -->
<!--zoomable 118 -->

<svg id="main" version="1.1" xmlns="http://www.w3.org/2000/svg" xmlns:xlink="http://www.w3.org/1999/xlink" xml:space="preserve" onload="init(evt)">

<style type="text/css"><![CDATA[
.node, .edge {opacity: 0.7;}
.node.selected, .edge.selected {opacity: 1;}
.edge:hover path { stroke: red; }
.edge:hover polygon { stroke: red; fill: red; }
]]></style>

<defs>
  <circle id="rim" cx="0" cy="0" r="7"/>
  <circle id="rim2" cx="0" cy="0" r="3.5"/>
  <g id="zoomPlus">
    <use xlink:href="#rim" fill="#404040"><set attributeName="fill" to="#808080" begin="zoomplus.mouseover" end="zoomplus.mouseout"/></use>
    <path d="M-4,0h8M0,-4v8" fill="none" stroke="white" stroke-width="1.5" pointer-events="none"/>
  </g>
  <g id="zoomMin">
    <use xlink:href="#rim" fill="#404040"><set attributeName="fill" to="#808080" begin="zoomminus.mouseover" end="zoomminus.mouseout"/></use>
    <path d="M-4,0h8" fill="none" stroke="white" stroke-width="1.5" pointer-events="none"/>
  </g>
  <g id="arrowUp" transform="translate(30 24)">
    <use xlink:href="#rim"/>
    <path pointer-events="none" fill="none" stroke="white" stroke-width="1.5" d="M0,-3.0v7 M-2.5,-0.5L0,-3.0L2.5,-0.5"/>
  </g>
  <g id="arrowRight" transform="rotate(90) translate(36 -43)">
    <use xlink:href="#rim"/>
    <path pointer-events="none" fill="none" stroke="white" stroke-width="1.5" d="M0,-3.0v7 M-2.5,-0.5L0,-3.0L2.5,-0.5"/>
  </g>
  <g id="arrowDown" transform="rotate(180) translate(-30 -48)">
    <use xlink:href="#rim"/>
    <path pointer-events="none" fill="none" stroke="white" stroke-width="1.5" d="M0,-3.0v7 M-2.5,-0.5L0,-3.0L2.5,-0.5"/>
  </g>
  <g id="arrowLeft" transform="rotate(270) translate(-36 17)">
    <use xlink:href="#rim"/>
    <path pointer-events="none" fill="none" stroke="white" stroke-width="1.5" d="M0,-3.0v7 M-2.5,-0.5L0,-3.0L2.5,-0.5"/>
  </g>
  <g id="resetDef">
    <use xlink:href="#rim2" fill="#404040"><set attributeName="fill" to="#808080" begin="reset.mouseover" end="reset.mouseout"/></use>
  </g>
</defs>
<script type="application/ecmascript">
var viewWidth = 637;
var viewHeight = 118;
var sectionId = 'dynsection-16';
</script>
<script type="application/ecmascript" xlink:href="svg.min.js"/>
<svg id="graph" class="graph">
<g id="viewport">
<title>seq_view_delete_cb</title>
<!-- Node1 -->
<g id="Node000001" class="node">
<title>Node1</title>
<g id="a_Node000001"><a xlink:title=" ">
<polygon fill="#999999" stroke="#666666" points="114.25,-72.12 0,-72.12 0,-51.38 114.25,-51.38 114.25,-72.12"/>
<text xml:space="preserve" text-anchor="middle" x="57.12" y="-58.62" font-family="Helvetica,sans-Serif" font-size="10.00">seq_view_delete_cb</text>
</a>
</g>
</g>
<!-- Node2 -->
<g id="Node000002" class="node">
<title>Node2</title>
<g id="a_Node000002"><a xlink:href="kest__sequence_8c.html#ac444165dd2b3797ce4271616e29d47a2" target="_top" xlink:title=" ">
<polygon fill="white" stroke="#666666" points="274.25,-78.5 150.25,-78.5 150.25,-45 274.25,-45 274.25,-78.5"/>
<text xml:space="preserve" text-anchor="start" x="158.25" y="-65" font-family="Helvetica,sans-Serif" font-size="10.00">kest_sequence_delete</text>
<text xml:space="preserve" text-anchor="middle" x="212.25" y="-52.25" font-family="Helvetica,sans-Serif" font-size="10.00">_preset</text>
</a>
</g>
</g>
<!-- Node1&#45;&gt;Node2 -->
<g id="edge1_Node000001_Node000002" class="edge">
<title>Node1&#45;&gt;Node2</title>
<g id="a_edge1_Node000001_Node000002"><a xlink:title=" ">
<path fill="none" stroke="#63b8ff" d="M114.71,-61.75C122.38,-61.75 130.34,-61.75 138.24,-61.75"/>
<polygon fill="#63b8ff" stroke="#63b8ff" points="138.24,-65.25 148.24,-61.75 138.24,-58.25 138.24,-65.25"/>
</a>
</g>
</g>
<!-- Node3 -->
<g id="Node000003" class="node">
<title>Node3</title>
<g id="a_Node000003"><a xlink:href="kest__preset_8c.html#a1ad22cf21312d08097e999e8d83b3682" target="_top" xlink:title=" ">
<polygon fill="white" stroke="#666666" points="424.12,-110.12 327.12,-110.12 327.12,-89.38 424.12,-89.38 424.12,-110.12"/>
<text xml:space="preserve" text-anchor="middle" x="375.62" y="-96.62" font-family="Helvetica,sans-Serif" font-size="10.00">kest_free_preset</text>
</a>
</g>
</g>
<!-- Node2&#45;&gt;Node3 -->
<g id="edge2_Node000002_Node000003" class="edge">
<title>Node2&#45;&gt;Node3</title>
<g id="a_edge2_Node000002_Node000003"><a xlink:title=" ">
<path fill="none" stroke="#63b8ff" d="M274.72,-76.22C288.92,-79.57 303.96,-83.11 317.94,-86.4"/>
<polygon fill="#63b8ff" stroke="#63b8ff" points="316.88,-89.75 327.42,-88.63 318.48,-82.93 316.88,-89.75"/>
</a>
</g>
</g>
<!-- Node16 -->
<g id="Node000016" class="node">
<title>Node16</title>
<g id="a_Node000016"><a xlink:href="kest__file__task_8c.html#a7f1f6a897d2842e801c0452565bdc44c" target="_top" xlink:title=" ">
<polygon fill="white" stroke="#666666" points="628.75,-69.12 477,-69.12 477,-48.38 628.75,-48.38 628.75,-69.12"/>
<text xml:space="preserve" text-anchor="middle" x="552.88" y="-55.62" font-family="Helvetica,sans-Serif" font-size="10.00">kest_queue_sequence_save</text>
</a>
</g>
</g>
<!-- Node2&#45;&gt;Node16 -->
<g id="edge4_Node000002_Node000016" class="edge">
<title>Node2&#45;&gt;Node16</title>
<g id="a_edge4_Node000002_Node000016"><a xlink:title=" ">
<path fill="none" stroke="#63b8ff" d="M274.57,-61.21C327.93,-60.73 405.84,-60.04 465.51,-59.52"/>
<polygon fill="#63b8ff" stroke="#63b8ff" points="465.32,-63.02 475.29,-59.43 465.26,-56.02 465.32,-63.02"/>
</a>
</g>
</g>
<!-- Node17 -->
<g id="Node000017" class="node">
<title>Node17</title>
<g id="a_Node000017"><a xlink:href="kest__sequence_8c.html#aeb00f5680e32ec797dc50fec38737eec" target="_top" xlink:title=" ">
<polygon fill="white" stroke="#666666" points="441,-33.5 310.25,-33.5 310.25,0 441,0 441,-33.5"/>
<text xml:space="preserve" text-anchor="start" x="318.25" y="-20" font-family="Helvetica,sans-Serif" font-size="10.00">kest_sequence_remove</text>
<text xml:space="preserve" text-anchor="middle" x="375.62" y="-7.25" font-family="Helvetica,sans-Serif" font-size="10.00">_preset</text>
</a>
</g>
</g>
<!-- Node2&#45;&gt;Node17 -->
<g id="edge5_Node000002_Node000017" class="edge">
<title>Node2&#45;&gt;Node17</title>
<g id="a_edge5_Node000002_Node000017"><a xlink:title=" ">
<path fill="none" stroke="#63b8ff" d="M274.72,-44.61C283.58,-42.14 292.78,-39.57 301.84,-37.05"/>
<polygon fill="#63b8ff" stroke="#63b8ff" points="302.64,-40.46 311.33,-34.4 300.76,-33.71 302.64,-40.46"/>
</a>
</g>
</g>
<!-- Node4 -->
<g id="Node000004" class="node">
<title>Node4</title>
<g id="a_Node000004"><a xlink:href="kest__preset_8c.html#a4d502f8b682425208e39082cbac4a4a1" target="_top" xlink:title=" ">
<polygon fill="#fff0f0" stroke="red" points="588.62,-110.12 517.12,-110.12 517.12,-89.38 588.62,-89.38 588.62,-110.12"/>
<text xml:space="preserve" text-anchor="middle" x="552.88" y="-96.62" font-family="Helvetica,sans-Serif" font-size="10.00">free_preset</text>
</a>
</g>
</g>
<!-- Node3&#45;&gt;Node4 -->
<g id="edge3_Node000003_Node000004" class="edge">
<title>Node3&#45;&gt;Node4</title>
<g id="a_edge3_Node000003_Node000004"><a xlink:title=" ">
<path fill="none" stroke="#63b8ff" d="M424.51,-99.75C449.71,-99.75 480.47,-99.75 505.44,-99.75"/>
<polygon fill="#63b8ff" stroke="#63b8ff" points="505.32,-103.25 515.32,-99.75 505.32,-96.25 505.32,-103.25"/>
</a>
</g>
</g>
<!-- Node17&#45;&gt;Node16 -->
<g id="edge7_Node000017_Node000016" class="edge">
<title>Node17&#45;&gt;Node16</title>
<g id="a_edge7_Node000017_Node000016"><a xlink:title=" ">
<path fill="none" stroke="#63b8ff" d="M441.38,-32.27C459.14,-36.53 478.24,-41.1 495.49,-45.24"/>
<polygon fill="#63b8ff" stroke="#63b8ff" points="494.51,-48.6 505.05,-47.53 496.14,-41.79 494.51,-48.6"/>
</a>
</g>
</g>
<!-- Node10 -->
<g id="Node000010" class="node">
<title>Node10</title>
<g id="a_Node000010"><a xlink:href="kest__alloc_8c.html#a294af5728a94aa316fcf65304d388d48" target="_top" xlink:title=" ">
<polygon fill="white" stroke="#666666" points="583.38,-27.12 522.38,-27.12 522.38,-6.38 583.38,-6.38 583.38,-27.12"/>
<text xml:space="preserve" text-anchor="middle" x="552.88" y="-13.62" font-family="Helvetica,sans-Serif" font-size="10.00">kest_free</text>
</a>
</g>
</g>
<!-- Node17&#45;&gt;Node10 -->
<g id="edge6_Node000017_Node000010" class="edge">
<title>Node17&#45;&gt;Node10</title>
<g id="a_edge6_Node000017_Node000010"><a xlink:title=" ">
<path fill="none" stroke="#63b8ff" d="M441.38,-16.75C464.64,-16.75 490.21,-16.75 510.88,-16.75"/>
<polygon fill="#63b8ff" stroke="#63b8ff" points="510.62,-20.25 520.62,-16.75 510.62,-13.25 510.62,-20.25"/>
</a>
</g>
</g>
</g>
</svg>

<g id="navigator" transform="translate(0 0)" fill="#404254">
  <rect fill="#f2f5e9" fill-opacity="0.5" stroke="#606060" stroke-width=".5" x="0" y="0" width="60" height="60"/>
  <use id="zoomplus" xlink:href="#zoomPlus" x="17" y="9" onmousedown="handleZoom(evt,'in')"/>
  <use id="zoomminus" xlink:href="#zoomMin" x="42" y="9" onmousedown="handleZoom(evt,'out')"/>
  <use id="reset" xlink:href="#resetDef" x="30" y="36" onmousedown="handleReset()"/>
   <use id="arrowup" xlink:href="#arrowUp" x="0" y="0" onmousedown="handlePan(0,-1)"/>
  <use id="arrowright" xlink:href="#arrowRight" x="0" y="0" onmousedown="handlePan(1,0)"/>
  <use id="arrowdown" xlink:href="#arrowDown" x="0" y="0" onmousedown="handlePan(0,1)"/>
  <use id="arrowleft" xlink:href="#arrowLeft" x="0" y="0" onmousedown="handlePan(-1,0)"/>
</g>
<svg viewBox="0 0 15 15" width="100%" height="30px" preserveAspectRatio="xMaxYMin meet">
 <g id="arrow_out" transform="scale(0.3 0.3)">
  <a xlink:href="kest__sequence__view_8c_aa3f0ce5b257c2a9a76df997c35718cbd_cgraph_org.svg" target="_base">
   <rect id="button" ry="5" rx="5" y="6" x="6" height="38" width="38"
        fill="#f2f5e9" fill-opacity="0.5" stroke="#606060" stroke-width="1.0"/>
   <path id="arrow"
     d="M 11.500037,31.436501 C 11.940474,20.09759 22.043105,11.32322 32.158766,21.979434 L 37.068811,17.246167 C 37.068811,17.246167 37.088388,32 37.088388,32 L 22.160133,31.978069 C 22.160133,31.978069 26.997745,27.140456 26.997745,27.140456 C 18.528582,18.264221 13.291696,25.230495 11.500037,31.436501 z"
     style="fill:#404040;"/>
  </a>
 </g>
</svg>

<style type='text/css'>
<![CDATA[
[data-mouse-over-selected='false'] { opacity: 0.7; }
[data-mouse-over-selected='true']  { opacity: 1.0; }
]]>
</style>
<script type="application/ecmascript"><![CDATA[
document.addEventListener('DOMContentLoaded', (event) => {
  highlightEdges();
  highlightAdjacentNodes();
});
]]></script>
</svg>
