<?xml version="1.0" encoding="UTF-8" standalone="no"?>
<!DOCTYPE svg PUBLIC "-//W3C//DTD SVG 1.1//EN"
 "http://www.w3.org/Graphics/SVG/1.1/DTD/svg11.dtd">
<!-- Generated by graphviz version 13.1.2 (20250808.2320)
 -->
<!-- Title: kest_eff_entry_dict_index_key Pages: 1 -->
<svg width="932pt" height="224pt"
 viewBox="0.00 0.00 932.00 224.00" xmlns="http://www.w3.org/2000/svg" xmlns:xlink="http://www.w3.org/1999/xlink">
<g id="graph0" class="graph" transform="scale(1 1) rotate(0) translate(4 219.5)">
<title>kest_eff_entry_dict_index_key</title>
<!-- Node1 -->
<g id="Node000001" class="node">
<title>Node1</title>
<g id="a_Node000001"><a xlink:title=" ">
<polygon fill="#999999" stroke="#666666" points="924,-121.5 815,-121.5 815,-88 924,-88 924,-121.5"/>
<text xml:space="preserve" text-anchor="start" x="823" y="-108" font-family="Helvetica,sans-Serif" font-size="10.00">kest_eff_entry_dict</text>
<text xml:space="preserve" text-anchor="middle" x="869.5" y="-95.25" font-family="Helvetica,sans-Serif" font-size="10.00">_index_key</text>
</a>
</g>
</g>
<!-- Node2 -->
<g id="Node000002" class="node">
<title>Node2</title>
<g id="a_Node000002"><a xlink:href="kest__dictionary_8c.html#a5ce582ea788731db26f2c3625d8da175" target="_top" xlink:title=" ">
<polygon fill="white" stroke="#666666" points="599.12,-215.5 490.12,-215.5 490.12,-182 599.12,-182 599.12,-215.5"/>
<text xml:space="preserve" text-anchor="start" x="498.12" y="-202" font-family="Helvetica,sans-Serif" font-size="10.00">kest_eff_entry_dict</text>
<text xml:space="preserve" text-anchor="middle" x="544.62" y="-189.25" font-family="Helvetica,sans-Serif" font-size="10.00">_print</text>
</a>
</g>
</g>
<!-- Node1&#45;&gt;Node2 -->
<g id="edge1_Node000001_Node000002" class="edge">
<title>Node1&#45;&gt;Node2</title>
<g id="a_edge1_Node000001_Node000002"><a xlink:title=" ">
<path fill="none" stroke="#63b8ff" d="M846.53,-130.01C829.89,-147.27 805.43,-168.9 779,-179.75 720.9,-203.59 647.92,-205.58 599.19,-203.4"/>
<polygon fill="#63b8ff" stroke="#63b8ff" points="848.75,-132.76 853.02,-123.06 843.63,-127.99 848.75,-132.76"/>
</a>
</g>
</g>
<!-- Node23 -->
<g id="Node000023" class="node">
<title>Node23</title>
<g id="a_Node000023"><a xlink:href="kest__dictionary_8c.html#a8728d44497a76103a6efaf25ca021e9e" target="_top" xlink:title=" ">
<polygon fill="white" stroke="#666666" points="779,-153.12 645.25,-153.12 645.25,-132.38 779,-132.38 779,-153.12"/>
<text xml:space="preserve" text-anchor="middle" x="712.12" y="-139.62" font-family="Helvetica,sans-Serif" font-size="10.00">kest_eff_entry_to_string</text>
</a>
</g>
</g>
<!-- Node1&#45;&gt;Node23 -->
<g id="edge4_Node000001_Node000023" class="edge">
<title>Node1&#45;&gt;Node23</title>
<g id="a_edge4_Node000001_Node000023"><a xlink:title=" ">
<path fill="none" stroke="#63b8ff" d="M803.46,-120.66C787.95,-124.45 771.75,-128.41 757.42,-131.92"/>
<polygon fill="#63b8ff" stroke="#63b8ff" points="804.24,-124.07 813.12,-118.29 802.58,-117.27 804.24,-124.07"/>
</a>
</g>
</g>
<!-- Node27 -->
<g id="Node000027" class="node">
<title>Node27</title>
<g id="a_Node000027"><a xlink:href="kest__eff__section_8c.html#a5fe6d5cd354aa8f4322524ecc9b6af63" target="_top" xlink:title=" ">
<polygon fill="white" stroke="#666666" points="281,-121.5 142.75,-121.5 142.75,-88 281,-88 281,-121.5"/>
<text xml:space="preserve" text-anchor="start" x="150.75" y="-108" font-family="Helvetica,sans-Serif" font-size="10.00">kest_parameters_section</text>
<text xml:space="preserve" text-anchor="middle" x="211.88" y="-95.25" font-family="Helvetica,sans-Serif" font-size="10.00">_extract</text>
</a>
</g>
</g>
<!-- Node1&#45;&gt;Node27 -->
<g id="edge13_Node000001_Node000027" class="edge">
<title>Node1&#45;&gt;Node27</title>
<g id="a_edge13_Node000001_Node000027"><a xlink:title=" ">
<path fill="none" stroke="#63b8ff" d="M803.34,-104.75C678.84,-104.75 408.23,-104.75 281.25,-104.75"/>
<polygon fill="#63b8ff" stroke="#63b8ff" points="803.06,-108.25 813.06,-104.75 803.06,-101.25 803.06,-108.25"/>
</a>
</g>
</g>
<!-- Node17 -->
<g id="Node000017" class="node">
<title>Node17</title>
<g id="a_Node000017"><a xlink:href="kest__eff__section_8c.html#a55e76cf45dd01c8cc35bf2323f67b931" target="_top" xlink:title=" ">
<polygon fill="white" stroke="#666666" points="609.25,-76.5 480,-76.5 480,-43 609.25,-43 609.25,-76.5"/>
<text xml:space="preserve" text-anchor="start" x="488" y="-63" font-family="Helvetica,sans-Serif" font-size="10.00">kest_resources_section</text>
<text xml:space="preserve" text-anchor="middle" x="544.62" y="-50.25" font-family="Helvetica,sans-Serif" font-size="10.00">_extract</text>
</a>
</g>
</g>
<!-- Node1&#45;&gt;Node17 -->
<g id="edge15_Node000001_Node000017" class="edge">
<title>Node1&#45;&gt;Node17</title>
<g id="a_edge15_Node000001_Node000017"><a xlink:title=" ">
<path fill="none" stroke="#63b8ff" d="M803.45,-94.39C795.22,-93.14 786.92,-91.9 779,-90.75 721.76,-82.47 656.5,-73.87 609.57,-67.84"/>
<polygon fill="#63b8ff" stroke="#63b8ff" points="802.66,-97.81 813.08,-95.88 803.73,-90.9 802.66,-97.81"/>
</a>
</g>
</g>
<!-- Node28 -->
<g id="Node000028" class="node">
<title>Node28</title>
<g id="a_Node000028"><a xlink:href="kest__eff__section_8c.html#ac86840256c51c90c1c1066da9b88e7af" target="_top" xlink:title=" ">
<polygon fill="white" stroke="#666666" points="772.62,-33.5 651.62,-33.5 651.62,0 772.62,0 772.62,-33.5"/>
<text xml:space="preserve" text-anchor="start" x="659.62" y="-20" font-family="Helvetica,sans-Serif" font-size="10.00">kest_settings_section</text>
<text xml:space="preserve" text-anchor="middle" x="712.12" y="-7.25" font-family="Helvetica,sans-Serif" font-size="10.00">_extract</text>
</a>
</g>
</g>
<!-- Node1&#45;&gt;Node28 -->
<g id="edge17_Node000001_Node000028" class="edge">
<title>Node1&#45;&gt;Node28</title>
<g id="a_edge17_Node000001_Node000028"><a xlink:title=" ">
<path fill="none" stroke="#63b8ff" d="M831.8,-81.85C815.73,-72.03 796.58,-60.58 779,-50.75 768.89,-45.1 757.75,-39.22 747.55,-33.97"/>
<polygon fill="#63b8ff" stroke="#63b8ff" points="829.72,-84.68 840.07,-86.94 833.38,-78.72 829.72,-84.68"/>
</a>
</g>
</g>
<!-- Node3 -->
<g id="Node000003" class="node">
<title>Node3</title>
<g id="a_Node000003"><a xlink:href="kest__eff__section_8c.html#ad4021e5516f9b19f0af658e1c5ee351f" target="_top" xlink:title=" ">
<polygon fill="white" stroke="#666666" points="281.75,-192.12 142,-192.12 142,-171.38 281.75,-171.38 281.75,-192.12"/>
<text xml:space="preserve" text-anchor="middle" x="211.88" y="-178.62" font-family="Helvetica,sans-Serif" font-size="10.00">kest_parse_entry_section</text>
</a>
</g>
</g>
<!-- Node2&#45;&gt;Node3 -->
<g id="edge2_Node000002_Node000003" class="edge">
<title>Node2&#45;&gt;Node3</title>
<g id="a_edge2_Node000002_Node000003"><a xlink:title=" ">
<path fill="none" stroke="#63b8ff" d="M478.52,-200.25C467.02,-200.46 455.16,-200.64 444,-200.75 387.89,-201.31 373.64,-205.77 317.75,-200.75 299.6,-199.12 279.89,-195.93 262.51,-192.62"/>
<polygon fill="#63b8ff" stroke="#63b8ff" points="478.41,-203.75 488.34,-200.06 478.28,-196.75 478.41,-203.75"/>
</a>
</g>
</g>
<!-- Node4 -->
<g id="Node000004" class="node">
<title>Node4</title>
<g id="a_Node000004"><a xlink:href="kest__eff__parser_8c.html#a73ef6962d1925857ec3e4b12d1aad834" target="_top" xlink:title=" ">
<polygon fill="#fff0f0" stroke="red" points="106,-92.12 0,-92.12 0,-71.38 106,-71.38 106,-92.12"/>
<text xml:space="preserve" text-anchor="middle" x="53" y="-78.62" font-family="Helvetica,sans-Serif" font-size="10.00">kest_parse_tokens</text>
</a>
</g>
</g>
<!-- Node3&#45;&gt;Node4 -->
<g id="edge3_Node000003_Node000004" class="edge">
<title>Node3&#45;&gt;Node4</title>
<g id="a_edge3_Node000003_Node000004"><a xlink:title=" ">
<path fill="none" stroke="#63b8ff" d="M184.78,-165.12C152.35,-144.44 97.95,-109.77 70.67,-92.37"/>
<polygon fill="#63b8ff" stroke="#63b8ff" points="182.5,-167.81 192.81,-170.23 186.26,-161.91 182.5,-167.81"/>
</a>
</g>
</g>
<!-- Node23&#45;&gt;Node2 -->
<g id="edge5_Node000023_Node000002" class="edge">
<title>Node23&#45;&gt;Node2</title>
<g id="a_edge5_Node000023_Node000002"><a xlink:title=" ">
<path fill="none" stroke="#63b8ff" d="M668.52,-157.17C646.48,-164.62 619.43,-173.78 596.32,-181.6"/>
<polygon fill="#63b8ff" stroke="#63b8ff" points="669.43,-160.55 677.78,-154.03 667.19,-153.92 669.43,-160.55"/>
</a>
</g>
</g>
<!-- Node23&#45;&gt;Node23 -->
<g id="edge6_Node000023_Node000023" class="edge">
<title>Node23&#45;&gt;Node23</title>
<g id="a_edge6_Node000023_Node000023"><a xlink:title=" ">
<path fill="none" stroke="#63b8ff" d="M739.82,-164.61C736.15,-168.45 726.92,-171.12 712.12,-171.12 685.08,-171.12 676.62,-162.18 686.77,-153.52"/>
<polygon fill="#63b8ff" stroke="#63b8ff" points="743.28,-164.07 737.8,-155 736.43,-165.51 743.28,-164.07"/>
</a>
</g>
</g>
<!-- Node24 -->
<g id="Node000024" class="node">
<title>Node24</title>
<g id="a_Node000024"><a xlink:href="kest__dictionary_8c.html#a14917e2fe112ccf5a9d740cd2ce4f518" target="_top" xlink:title=" ">
<polygon fill="white" stroke="#666666" points="603.62,-153.12 485.62,-153.12 485.62,-132.38 603.62,-132.38 603.62,-153.12"/>
<text xml:space="preserve" text-anchor="middle" x="544.62" y="-139.62" font-family="Helvetica,sans-Serif" font-size="10.00">kest_parse_eff_entry</text>
</a>
</g>
</g>
<!-- Node23&#45;&gt;Node24 -->
<g id="edge7_Node000023_Node000024" class="edge">
<title>Node23&#45;&gt;Node24</title>
<g id="a_edge7_Node000023_Node000024"><a xlink:title=" ">
<path fill="none" stroke="#63b8ff" d="M633.27,-142.75C623.42,-142.75 613.47,-142.75 603.99,-142.75"/>
<polygon fill="#63b8ff" stroke="#63b8ff" points="633.25,-146.25 643.25,-142.75 633.25,-139.25 633.25,-146.25"/>
</a>
</g>
</g>
<!-- Node25 -->
<g id="Node000025" class="node">
<title>Node25</title>
<g id="a_Node000025"><a xlink:href="kest__dictionary_8c.html#ad65da740536ab47c17ff688051be0661" target="_top" xlink:title=" ">
<polygon fill="white" stroke="#666666" points="444,-192.12 317.75,-192.12 317.75,-171.38 444,-171.38 444,-192.12"/>
<text xml:space="preserve" text-anchor="middle" x="380.88" y="-178.62" font-family="Helvetica,sans-Serif" font-size="10.00">kest_parse_eff_entries</text>
</a>
</g>
</g>
<!-- Node24&#45;&gt;Node25 -->
<g id="edge8_Node000024_Node000025" class="edge">
<title>Node24&#45;&gt;Node25</title>
<g id="a_edge8_Node000024_Node000025"><a xlink:title=" ">
<path fill="none" stroke="#63b8ff" d="M474.18,-152.81C449.83,-158.42 424.08,-165.2 405.98,-170.96"/>
<polygon fill="#63b8ff" stroke="#63b8ff" points="474.77,-156.26 483.75,-150.65 473.23,-149.43 474.77,-156.26"/>
</a>
</g>
</g>
<!-- Node26 -->
<g id="Node000026" class="node">
<title>Node26</title>
<g id="a_Node000026"><a xlink:href="kest__dictionary_8c.html#adbdc0847f0c5b25d81691833ad42a8f0" target="_top" xlink:title=" ">
<polygon fill="white" stroke="#666666" points="434.62,-153.12 327.12,-153.12 327.12,-132.38 434.62,-132.38 434.62,-153.12"/>
<text xml:space="preserve" text-anchor="middle" x="380.88" y="-139.62" font-family="Helvetica,sans-Serif" font-size="10.00">kest_parse_eff_list</text>
</a>
</g>
</g>
<!-- Node24&#45;&gt;Node26 -->
<g id="edge11_Node000024_Node000026" class="edge">
<title>Node24&#45;&gt;Node26</title>
<g id="a_edge11_Node000024_Node000026"><a xlink:title=" ">
<path fill="none" stroke="#63b8ff" d="M473.93,-136.06C460.91,-135.92 447.5,-136.02 435.08,-136.36"/>
<polygon fill="#63b8ff" stroke="#63b8ff" points="473.66,-139.55 483.72,-136.21 473.77,-132.55 473.66,-139.55"/>
</a>
</g>
</g>
<!-- Node25&#45;&gt;Node3 -->
<g id="edge10_Node000025_Node000003" class="edge">
<title>Node25&#45;&gt;Node3</title>
<g id="a_edge10_Node000025_Node000003"><a xlink:title=" ">
<path fill="none" stroke="#63b8ff" d="M306.4,-181.75C298.34,-181.75 290.14,-181.75 282.13,-181.75"/>
<polygon fill="#63b8ff" stroke="#63b8ff" points="306.18,-185.25 316.18,-181.75 306.18,-178.25 306.18,-185.25"/>
</a>
</g>
</g>
<!-- Node25&#45;&gt;Node24 -->
<g id="edge9_Node000025_Node000024" class="edge">
<title>Node25&#45;&gt;Node24</title>
<g id="a_edge9_Node000025_Node000024"><a xlink:title=" ">
<path fill="none" stroke="#63b8ff" d="M455.58,-170.71C478.58,-165.31 502.37,-158.99 519.41,-153.57"/>
<polygon fill="#63b8ff" stroke="#63b8ff" points="454.82,-167.29 445.86,-172.93 456.38,-174.11 454.82,-167.29"/>
</a>
</g>
</g>
<!-- Node26&#45;&gt;Node24 -->
<g id="edge12_Node000026_Node000024" class="edge">
<title>Node26&#45;&gt;Node24</title>
<g id="a_edge12_Node000026_Node000024"><a xlink:title=" ">
<path fill="none" stroke="#63b8ff" d="M446.21,-149.37C459.09,-149.57 472.56,-149.54 485.23,-149.26"/>
<polygon fill="#63b8ff" stroke="#63b8ff" points="446.66,-145.88 436.59,-149.17 446.51,-152.88 446.66,-145.88"/>
</a>
</g>
</g>
<!-- Node27&#45;&gt;Node4 -->
<g id="edge14_Node000027_Node000004" class="edge">
<title>Node27&#45;&gt;Node4</title>
<g id="a_edge14_Node000027_Node000004"><a xlink:title=" ">
<path fill="none" stroke="#63b8ff" d="M131.3,-93.08C122.74,-91.83 114.2,-90.58 106.08,-89.39"/>
<polygon fill="#63b8ff" stroke="#63b8ff" points="130.62,-96.52 141.03,-94.51 131.64,-89.6 130.62,-96.52"/>
</a>
</g>
</g>
<!-- Node17&#45;&gt;Node4 -->
<g id="edge16_Node000017_Node000004" class="edge">
<title>Node17&#45;&gt;Node4</title>
<g id="a_edge16_Node000017_Node000004"><a xlink:title=" ">
<path fill="none" stroke="#63b8ff" d="M468.37,-63.13C368.17,-67.63 193.48,-75.48 106.42,-79.39"/>
<polygon fill="#63b8ff" stroke="#63b8ff" points="468.27,-66.64 478.1,-62.69 467.96,-59.65 468.27,-66.64"/>
</a>
</g>
</g>
<!-- Node28&#45;&gt;Node4 -->
<g id="edge18_Node000028_Node000004" class="edge">
<title>Node28&#45;&gt;Node4</title>
<g id="a_edge18_Node000028_Node000004"><a xlink:title=" ">
<path fill="none" stroke="#63b8ff" d="M639.75,-21.32C531.75,-28.65 320.45,-44.6 142,-67.75 130.34,-69.26 117.85,-71.11 106.04,-72.96"/>
<polygon fill="#63b8ff" stroke="#63b8ff" points="639.89,-24.82 649.63,-20.66 639.42,-17.84 639.89,-24.82"/>
</a>
</g>
</g>
</g>
</svg>
