<?xml version="1.0" encoding="UTF-8" standalone="no"?>
<!DOCTYPE svg PUBLIC "-//W3C//DTD SVG 1.1//EN"
 "http://www.w3.org/Graphics/SVG/1.1/DTD/svg11.dtd">
<!-- Generated by graphviz version 13.1.2 (20250808.2320)
 -->
<!-- Title: kest_fpga_comms_task Pages: 1 -->
<svg width="475pt" height="100pt"
 viewBox="0.00 0.00 475.00 100.00" xmlns="http://www.w3.org/2000/svg" xmlns:xlink="http://www.w3.org/1999/xlink">

<svg id="main" version="1.1" xmlns="http://www.w3.org/2000/svg" xmlns:xlink="http://www.w3.org/1999/xlink" xml:space="preserve">

<style type="text/css"><![CDATA[
.node, .edge {opacity: 0.7;}
.node.selected, .edge.selected {opacity: 1;}
.edge:hover path { stroke: red; }
.edge:hover polygon { stroke: red; fill: red; }
]]></style>
<script type="application/ecmascript" xlink:href="svg.min.js"/>
<svg id="graph" class="graph">
<g id="graph0" class="graph" transform="scale(1 1) rotate(0) translate(4 96.12)">
<title>kest_fpga_comms_task</title>
<!-- Node1 -->
<g id="Node000001" class="node">
<title>Node1</title>
<g id="a_Node000001"><a xlink:title=" ">
<polygon fill="#999999" stroke="#666666" points="466.75,-72.12 336,-72.12 336,-51.38 466.75,-51.38 466.75,-72.12"/>
<text xml:space="preserve" text-anchor="middle" x="401.38" y="-58.62" font-family="Helvetica,sans-Serif" font-size="10.00">kest_fpga_comms_task</text>
</a>
</g>
</g>
<!-- Node2 -->
<g id="Node000002" class="node">
<title>Node2</title>
<g id="a_Node000002"><a xlink:href="kest__int_8c.html#abce06be17fc37d675118a678a8100a36" target="_top" xlink:title=" ">
<polygon fill="white" stroke="#666666" points="298.5,-92.12 234.5,-92.12 234.5,-71.38 298.5,-71.38 298.5,-92.12"/>
<text xml:space="preserve" text-anchor="middle" x="266.5" y="-78.62" font-family="Helvetica,sans-Serif" font-size="10.00">app_main</text>
</a>
</g>
</g>
<!-- Node1&#45;&gt;Node2 -->
<g id="edge1_Node000001_Node000002" class="edge">
<title>Node1&#45;&gt;Node2</title>
<g id="a_edge1_Node000001_Node000002"><a xlink:title=" ">
<path fill="none" stroke="#63b8ff" d="M324.67,-73.15C315.53,-74.52 306.63,-75.86 298.68,-77.06"/>
<polygon fill="#63b8ff" stroke="#63b8ff" points="325.02,-76.63 334.39,-71.68 323.98,-69.71 325.02,-76.63"/>
</a>
</g>
</g>
<!-- Node3 -->
<g id="Node000003" class="node">
<title>Node3</title>
<g id="a_Node000003"><a xlink:href="kest__desktop_8c.html#ab499a4f71ef4cfc807b60d8739750c3e" target="_top" xlink:title=" ">
<polygon fill="white" stroke="#666666" points="300,-53.12 233,-53.12 233,-32.38 300,-32.38 300,-53.12"/>
<text xml:space="preserve" text-anchor="middle" x="266.5" y="-39.62" font-family="Helvetica,sans-Serif" font-size="10.00">main_task</text>
</a>
</g>
</g>
<!-- Node1&#45;&gt;Node3 -->
<g id="edge2_Node000001_Node000003" class="edge">
<title>Node1&#45;&gt;Node3</title>
<g id="a_edge2_Node000001_Node000003"><a xlink:title=" ">
<path fill="none" stroke="#63b8ff" d="M324.66,-50.92C316.18,-49.71 307.91,-48.53 300.41,-47.46"/>
<polygon fill="#63b8ff" stroke="#63b8ff" points="323.99,-54.36 334.39,-52.31 324.98,-47.43 323.99,-54.36"/>
</a>
</g>
</g>
<!-- Node4 -->
<g id="Node000004" class="node">
<title>Node4</title>
<g id="a_Node000004"><a xlink:href="kest__desktop_8c.html#a3c04138a5bfe5d72780bb7e82a18e627" target="_top" xlink:title=" ">
<polygon fill="white" stroke="#666666" points="197,-53.12 156.25,-53.12 156.25,-32.38 197,-32.38 197,-53.12"/>
<text xml:space="preserve" text-anchor="middle" x="176.62" y="-39.62" font-family="Helvetica,sans-Serif" font-size="10.00">main</text>
</a>
</g>
</g>
<!-- Node3&#45;&gt;Node4 -->
<g id="edge3_Node000003_Node000004" class="edge">
<title>Node3&#45;&gt;Node4</title>
<g id="a_edge3_Node000003_Node000004"><a xlink:title=" ">
<path fill="none" stroke="#63b8ff" d="M221.26,-42.75C212.93,-42.75 204.6,-42.75 197.49,-42.75"/>
<polygon fill="#63b8ff" stroke="#63b8ff" points="221.02,-46.25 231.02,-42.75 221.02,-39.25 221.02,-46.25"/>
</a>
</g>
</g>
<!-- Node5 -->
<g id="Node000005" class="node">
<title>Node5</title>
<g id="a_Node000005"><a xlink:href="kest__expression_8c.html#a91f074f7596d8adca0d0aa258e8af07b" target="_top" xlink:title=" ">
<polygon fill="#fff0f0" stroke="red" points="120.25,-85.5 0,-85.5 0,-52 120.25,-52 120.25,-85.5"/>
<text xml:space="preserve" text-anchor="start" x="8" y="-72" font-family="Helvetica,sans-Serif" font-size="10.00">kest_expr_create_hpf</text>
<text xml:space="preserve" text-anchor="middle" x="60.12" y="-59.25" font-family="Helvetica,sans-Serif" font-size="10.00">_coefficients</text>
</a>
</g>
</g>
<!-- Node4&#45;&gt;Node5 -->
<g id="edge4_Node000004_Node000005" class="edge">
<title>Node4&#45;&gt;Node5</title>
<g id="a_edge4_Node000004_Node000005"><a xlink:title=" ">
<path fill="none" stroke="#63b8ff" d="M144.79,-49.75C137.22,-51.47 128.86,-53.37 120.43,-55.28"/>
<polygon fill="#63b8ff" stroke="#63b8ff" points="145.49,-53.18 154.47,-47.55 143.94,-46.36 145.49,-53.18"/>
</a>
</g>
</g>
<!-- Node12 -->
<g id="Node000012" class="node">
<title>Node12</title>
<g id="a_Node000012"><a xlink:href="kest__expression_8c.html#aea416c62dca448928915608d29bd2583" target="_top" xlink:title=" ">
<polygon fill="#fff0f0" stroke="red" points="118.75,-33.5 1.5,-33.5 1.5,0 118.75,0 118.75,-33.5"/>
<text xml:space="preserve" text-anchor="start" x="9.5" y="-20" font-family="Helvetica,sans-Serif" font-size="10.00">kest_expr_create_lpf</text>
<text xml:space="preserve" text-anchor="middle" x="60.12" y="-7.25" font-family="Helvetica,sans-Serif" font-size="10.00">_coefficients</text>
</a>
</g>
</g>
<!-- Node4&#45;&gt;Node12 -->
<g id="edge5_Node000004_Node000012" class="edge">
<title>Node4&#45;&gt;Node12</title>
<g id="a_edge5_Node000004_Node000012"><a xlink:title=" ">
<path fill="none" stroke="#63b8ff" d="M144.9,-35.77C136.85,-33.95 127.91,-31.92 118.95,-29.88"/>
<polygon fill="#63b8ff" stroke="#63b8ff" points="143.94,-39.14 154.47,-37.95 145.49,-32.32 143.94,-39.14"/>
</a>
</g>
</g>
</g>
</svg>
</svg>

<style type='text/css'>
<![CDATA[
[data-mouse-over-selected='false'] { opacity: 0.7; }
[data-mouse-over-selected='true']  { opacity: 1.0; }
]]>
</style>
<script type="application/ecmascript"><![CDATA[
document.addEventListener('DOMContentLoaded', (event) => {
  highlightEdges();
  highlightAdjacentNodes();
});
]]></script>
</svg>
