<?xml version="1.0" encoding="UTF-8" standalone="no"?>
<!DOCTYPE svg PUBLIC "-//W3C//DTD SVG 1.1//EN"
 "http://www.w3.org/Graphics/SVG/1.1/DTD/svg11.dtd">
<!-- Generated by graphviz version 13.1.2 (20250808.2320)
 -->
<!-- Title: kest_lfo_deactivate_async Pages: 1 -->
<svg width="418pt" height="87pt"
 viewBox="0.00 0.00 418.00 87.00" xmlns="http://www.w3.org/2000/svg" xmlns:xlink="http://www.w3.org/1999/xlink">
<g id="graph0" class="graph" transform="scale(1 1) rotate(0) translate(4 82.75)">
<title>kest_lfo_deactivate_async</title>
<!-- Node1 -->
<g id="Node000001" class="node">
<title>Node1</title>
<g id="a_Node000001"><a xlink:title=" ">
<polygon fill="#999999" stroke="#666666" points="111.25,-65.12 0,-65.12 0,-31.62 111.25,-31.62 111.25,-65.12"/>
<text xml:space="preserve" text-anchor="start" x="8" y="-51.62" font-family="Helvetica,sans-Serif" font-size="10.00">kest_lfo_deactivate</text>
<text xml:space="preserve" text-anchor="middle" x="55.62" y="-38.88" font-family="Helvetica,sans-Serif" font-size="10.00">_async</text>
</a>
</g>
</g>
<!-- Node2 -->
<g id="Node000002" class="node">
<title>Node2</title>
<g id="a_Node000002"><a xlink:href="kest__resource_8c.html#afea4e0e289a5274b34d6676dcdf912ab" target="_top" xlink:title=" ">
<polygon fill="white" stroke="#666666" points="286.25,-78.75 147.25,-78.75 147.25,-58 286.25,-58 286.25,-78.75"/>
<text xml:space="preserve" text-anchor="middle" x="216.75" y="-65.25" font-family="Helvetica,sans-Serif" font-size="10.00">kest_lfo_deactivate_sync</text>
</a>
</g>
</g>
<!-- Node1&#45;&gt;Node2 -->
<g id="edge1_Node000001_Node000002" class="edge">
<title>Node1&#45;&gt;Node2</title>
<g id="a_edge1_Node000001_Node000002"><a xlink:title=" ">
<path fill="none" stroke="#63b8ff" d="M111.39,-55.26C119.24,-56.24 127.44,-57.28 135.66,-58.31"/>
<polygon fill="#63b8ff" stroke="#63b8ff" points="134.97,-61.75 145.33,-59.52 135.85,-54.8 134.97,-61.75"/>
</a>
</g>
</g>
<!-- Node3 -->
<g id="Node000003" class="node">
<title>Node3</title>
<g id="a_Node000003"><a xlink:href="kest__ui_8c.html#abb436cbf4403efe8fe122cdfbcaa3a76" target="_top" xlink:title=" ">
<polygon fill="white" stroke="#666666" points="270.12,-39.75 163.38,-39.75 163.38,-19 270.12,-19 270.12,-39.75"/>
<text xml:space="preserve" text-anchor="middle" x="216.75" y="-26.25" font-family="Helvetica,sans-Serif" font-size="10.00">kest_ui_async_call</text>
</a>
</g>
</g>
<!-- Node1&#45;&gt;Node3 -->
<g id="edge2_Node000001_Node000003" class="edge">
<title>Node1&#45;&gt;Node3</title>
<g id="a_edge2_Node000001_Node000003"><a xlink:title=" ">
<path fill="none" stroke="#63b8ff" d="M111.39,-41.84C124.45,-40.28 138.51,-38.6 151.94,-36.99"/>
<polygon fill="#63b8ff" stroke="#63b8ff" points="152.02,-40.51 161.53,-35.85 151.19,-33.56 152.02,-40.51"/>
</a>
</g>
</g>
<!-- Node4 -->
<g id="Node000004" class="node">
<title>Node4</title>
<g id="a_Node000004"><a xlink:href="kest__ui_8c.html#aebba54d5d7fa842d060318e7305ab00a" target="_top" xlink:title=" ">
<polygon fill="white" stroke="#666666" points="404.25,-59.75 328.25,-59.75 328.25,-39 404.25,-39 404.25,-59.75"/>
<text xml:space="preserve" text-anchor="middle" x="366.25" y="-46.25" font-family="Helvetica,sans-Serif" font-size="10.00">kest_ui_lock</text>
</a>
</g>
</g>
<!-- Node3&#45;&gt;Node4 -->
<g id="edge3_Node000003_Node000004" class="edge">
<title>Node3&#45;&gt;Node4</title>
<g id="a_edge3_Node000003_Node000004"><a xlink:title=" ">
<path fill="none" stroke="#63b8ff" d="M270.58,-36.54C285.73,-38.59 302.17,-40.82 317.03,-42.84"/>
<polygon fill="#63b8ff" stroke="#63b8ff" points="316.15,-46.25 326.53,-44.13 317.1,-39.31 316.15,-46.25"/>
</a>
</g>
</g>
<!-- Node5 -->
<g id="Node000005" class="node">
<title>Node5</title>
<g id="a_Node000005"><a xlink:href="kest__ui_8c.html#a0057bcc95db9fe3c57986a61175de9b0" target="_top" xlink:title=" ">
<polygon fill="white" stroke="#666666" points="410.25,-20.75 322.25,-20.75 322.25,0 410.25,0 410.25,-20.75"/>
<text xml:space="preserve" text-anchor="middle" x="366.25" y="-7.25" font-family="Helvetica,sans-Serif" font-size="10.00">kest_ui_unlock</text>
</a>
</g>
</g>
<!-- Node3&#45;&gt;Node5 -->
<g id="edge4_Node000003_Node000005" class="edge">
<title>Node3&#45;&gt;Node5</title>
<g id="a_edge4_Node000003_Node000005"><a xlink:title=" ">
<path fill="none" stroke="#63b8ff" d="M270.58,-22.57C283.63,-20.89 297.62,-19.09 310.74,-17.4"/>
<polygon fill="#63b8ff" stroke="#63b8ff" points="311.03,-20.89 320.5,-16.14 310.13,-13.95 311.03,-20.89"/>
</a>
</g>
</g>
</g>
</svg>
