<?xml version="1.0" encoding="UTF-8" standalone="no"?>
<!DOCTYPE svg PUBLIC "-//W3C//DTD SVG 1.1//EN"
 "http://www.w3.org/Graphics/SVG/1.1/DTD/svg11.dtd">
<!-- Generated by graphviz version 13.1.2 (20250808.2320)
 -->
<!-- Title: kest_init_global_pages Pages: 1 -->
<svg width="964pt" height="1040pt"
 viewBox="0.00 0.00 964.00 1040.00" xmlns="http://www.w3.org/2000/svg" xmlns:xlink="http://www.w3.org/1999/xlink">
<g id="graph0" class="graph" transform="scale(1 1) rotate(0) translate(4 1035.86)">
<title>kest_init_global_pages</title>
<!-- Node1 -->
<g id="Node000001" class="node">
<title>Node1</title>
<g id="a_Node000001"><a xlink:title=" ">
<polygon fill="#999999" stroke="#666666" points="127,-434.48 0,-434.48 0,-413.73 127,-413.73 127,-434.48"/>
<text xml:space="preserve" text-anchor="middle" x="63.5" y="-420.98" font-family="Helvetica,sans-Serif" font-size="10.00">kest_init_global_pages</text>
</a>
</g>
</g>
<!-- Node2 -->
<g id="Node000002" class="node">
<title>Node2</title>
<g id="a_Node000002"><a xlink:href="kest__menu_8c.html#a6aa16fb3d12f098f021ae677605e683e" target="_top" xlink:title=" ">
<polygon fill="white" stroke="#666666" points="417,-516.48 322.25,-516.48 322.25,-495.73 417,-495.73 417,-516.48"/>
<text xml:space="preserve" text-anchor="middle" x="369.62" y="-502.98" font-family="Helvetica,sans-Serif" font-size="10.00">init_main_menu</text>
</a>
</g>
</g>
<!-- Node1&#45;&gt;Node2 -->
<g id="edge1_Node000001_Node000002" class="edge">
<title>Node1&#45;&gt;Node2</title>
<g id="a_edge1_Node000001_Node000002"><a xlink:title=" ">
<path fill="none" stroke="#63b8ff" d="M104.57,-434.91C159.27,-449.66 257.36,-476.11 317.36,-492.29"/>
<polygon fill="#63b8ff" stroke="#63b8ff" points="316.44,-495.66 327,-494.89 318.26,-488.9 316.44,-495.66"/>
</a>
</g>
</g>
<!-- Node92 -->
<g id="Node000092" class="node">
<title>Node92</title>
<g id="a_Node000092"><a xlink:href="kest__sequence__list_8c.html#a0e869118af43741e3d4db628d5c414fe" target="_top" xlink:title=" ">
<polygon fill="white" stroke="#666666" points="266.75,-434.48 163,-434.48 163,-413.73 266.75,-413.73 266.75,-434.48"/>
<text xml:space="preserve" text-anchor="middle" x="214.88" y="-420.98" font-family="Helvetica,sans-Serif" font-size="10.00">init_sequence_list</text>
</a>
</g>
</g>
<!-- Node1&#45;&gt;Node92 -->
<g id="edge31_Node000001_Node000092" class="edge">
<title>Node1&#45;&gt;Node92</title>
<g id="a_edge31_Node000001_Node000092"><a xlink:title=" ">
<path fill="none" stroke="#63b8ff" d="M127.42,-424.11C135.34,-424.11 143.45,-424.11 151.38,-424.11"/>
<polygon fill="#63b8ff" stroke="#63b8ff" points="151.29,-427.61 161.29,-424.11 151.29,-420.61 151.29,-427.61"/>
</a>
</g>
</g>
<!-- Node322 -->
<g id="Node000322" class="node">
<title>Node322</title>
<g id="a_Node000322"><a xlink:href="kest__sequence__view_8c.html#aca115eba822b7486dc289cc9150562a7" target="_top" xlink:title=" ">
<polygon fill="#fff0f0" stroke="red" points="425.62,-396.48 313.62,-396.48 313.62,-375.73 425.62,-375.73 425.62,-396.48"/>
<text xml:space="preserve" text-anchor="middle" x="369.62" y="-382.98" font-family="Helvetica,sans-Serif" font-size="10.00">init_sequence_view</text>
</a>
</g>
</g>
<!-- Node1&#45;&gt;Node322 -->
<g id="edge57_Node000001_Node000322" class="edge">
<title>Node1&#45;&gt;Node322</title>
<g id="a_edge57_Node000001_Node000322"><a xlink:title=" ">
<path fill="none" stroke="#63b8ff" d="M115.72,-413.24C130.89,-410.29 147.57,-407.3 163,-405.11 209.29,-398.52 261.79,-393.71 302.16,-390.58"/>
<polygon fill="#63b8ff" stroke="#63b8ff" points="302.25,-394.09 311.96,-389.84 301.72,-387.11 302.25,-394.09"/>
</a>
</g>
</g>
<!-- Node3 -->
<g id="Node000003" class="node">
<title>Node3</title>
<g id="a_Node000003"><a xlink:href="kest__menu_8c.html#a86c6c0acd2dfb8a62bd96bbfd739e687" target="_top" xlink:title=" ">
<polygon fill="white" stroke="#666666" points="597.25,-516.48 472.5,-516.48 472.5,-495.73 597.25,-495.73 597.25,-516.48"/>
<text xml:space="preserve" text-anchor="middle" x="534.88" y="-502.98" font-family="Helvetica,sans-Serif" font-size="10.00">configure_main_menu</text>
</a>
</g>
</g>
<!-- Node2&#45;&gt;Node3 -->
<g id="edge2_Node000002_Node000003" class="edge">
<title>Node2&#45;&gt;Node3</title>
<g id="a_edge2_Node000002_Node000003"><a xlink:title=" ">
<path fill="none" stroke="#63b8ff" d="M417.41,-506.11C431,-506.11 446.17,-506.11 460.96,-506.11"/>
<polygon fill="#63b8ff" stroke="#63b8ff" points="460.65,-509.61 470.65,-506.11 460.65,-502.61 460.65,-509.61"/>
</a>
</g>
</g>
<!-- Node62 -->
<g id="Node000062" class="node">
<title>Node62</title>
<g id="a_Node000062"><a xlink:href="kest__menu_8c.html#ad08fcb7356b59af639c394da31d8f446" target="_top" xlink:title=" ">
<polygon fill="white" stroke="#666666" points="596.88,-942.48 472.88,-942.48 472.88,-921.73 596.88,-921.73 596.88,-942.48"/>
<text xml:space="preserve" text-anchor="middle" x="534.88" y="-928.98" font-family="Helvetica,sans-Serif" font-size="10.00">create_main_menu_ui</text>
</a>
</g>
</g>
<!-- Node2&#45;&gt;Node62 -->
<g id="edge18_Node000002_Node000062" class="edge">
<title>Node2&#45;&gt;Node62</title>
<g id="a_edge18_Node000002_Node000062"><a xlink:title=" ">
<path fill="none" stroke="#63b8ff" d="M371.36,-516.7C374.99,-562.93 394.13,-750.44 472.5,-877.11 481.62,-891.85 495.85,-904.95 508.31,-914.67"/>
<polygon fill="#63b8ff" stroke="#63b8ff" points="506.05,-917.35 516.17,-920.51 510.23,-911.73 506.05,-917.35"/>
</a>
</g>
</g>
<!-- Node85 -->
<g id="Node000085" class="node">
<title>Node85</title>
<g id="a_Node000085"><a xlink:href="kest__menu_8c.html#ad39524fe8d62cff7c8e4c1d041b0dd61" target="_top" xlink:title=" ">
<polygon fill="white" stroke="#666666" points="587.12,-793.48 482.62,-793.48 482.62,-772.73 587.12,-772.73 587.12,-793.48"/>
<text xml:space="preserve" text-anchor="middle" x="534.88" y="-779.98" font-family="Helvetica,sans-Serif" font-size="10.00">enter_main_menu</text>
</a>
</g>
</g>
<!-- Node2&#45;&gt;Node85 -->
<g id="edge25_Node000002_Node000085" class="edge">
<title>Node2&#45;&gt;Node85</title>
<g id="a_edge25_Node000002_Node000085"><a xlink:title=" ">
<path fill="none" stroke="#63b8ff" d="M377.02,-516.97C401.51,-558.51 489.48,-707.77 521.83,-762.66"/>
<polygon fill="#63b8ff" stroke="#63b8ff" points="518.66,-764.18 526.75,-771.02 524.69,-760.63 518.66,-764.18"/>
</a>
</g>
</g>
<!-- Node91 -->
<g id="Node000091" class="node">
<title>Node91</title>
<g id="a_Node000091"><a xlink:href="kest__ui_8c.html#aa35b25eb0a8f315343a7ea5190b0163b" target="_top" xlink:title=" ">
<polygon fill="white" stroke="#666666" points="572.5,-435.48 497.25,-435.48 497.25,-414.73 572.5,-414.73 572.5,-435.48"/>
<text xml:space="preserve" text-anchor="middle" x="534.88" y="-421.98" font-family="Helvetica,sans-Serif" font-size="10.00">init_ui_page</text>
</a>
</g>
</g>
<!-- Node2&#45;&gt;Node91 -->
<g id="edge30_Node000002_Node000091" class="edge">
<title>Node2&#45;&gt;Node91</title>
<g id="a_edge30_Node000002_Node000091"><a xlink:title=" ">
<path fill="none" stroke="#63b8ff" d="M385.91,-495.46C405.33,-482.29 440.23,-459.8 472.5,-445.11 476.98,-443.07 481.73,-441.14 486.53,-439.34"/>
<polygon fill="#63b8ff" stroke="#63b8ff" points="487.33,-442.77 495.59,-436.14 484.99,-436.17 487.33,-442.77"/>
</a>
</g>
</g>
<!-- Node4 -->
<g id="Node000004" class="node">
<title>Node4</title>
<g id="a_Node000004"><a xlink:href="kest__button_8c.html#aa59f296fa9f9744c9753f81484085a15" target="_top" xlink:title=" ">
<polygon fill="white" stroke="#666666" points="951.75,-336.48 828.5,-336.48 828.5,-315.73 951.75,-315.73 951.75,-336.48"/>
<text xml:space="preserve" text-anchor="middle" x="890.12" y="-322.98" font-family="Helvetica,sans-Serif" font-size="10.00">button_set_clicked_cb</text>
</a>
</g>
</g>
<!-- Node3&#45;&gt;Node4 -->
<g id="edge3_Node000003_Node000004" class="edge">
<title>Node3&#45;&gt;Node4</title>
<g id="a_edge3_Node000003_Node000004"><a xlink:title=" ">
<path fill="none" stroke="#63b8ff" d="M579.77,-495.26C586.24,-492.17 592.36,-488.19 597.25,-483.11 632.6,-446.33 594.85,-407.7 633.25,-374.11 660.1,-350.62 751.14,-337.85 816.99,-331.51"/>
<polygon fill="#63b8ff" stroke="#63b8ff" points="817.01,-335.02 826.64,-330.61 816.36,-328.05 817.01,-335.02"/>
</a>
</g>
</g>
<!-- Node5 -->
<g id="Node000005" class="node">
<title>Node5</title>
<g id="a_Node000005"><a xlink:href="kest__parameter__widget_8c.html#a18645c953c82858daf73b274b6fd99f2" target="_top" xlink:title=" ">
<polygon fill="#fff0f0" stroke="red" points="770,-737.86 652,-737.86 652,-704.36 770,-704.36 770,-737.86"/>
<text xml:space="preserve" text-anchor="start" x="660" y="-724.36" font-family="Helvetica,sans-Serif" font-size="10.00">configure_parameter</text>
<text xml:space="preserve" text-anchor="middle" x="711" y="-711.61" font-family="Helvetica,sans-Serif" font-size="10.00">_widget</text>
</a>
</g>
</g>
<!-- Node3&#45;&gt;Node5 -->
<g id="edge4_Node000003_Node000005" class="edge">
<title>Node3&#45;&gt;Node5</title>
<g id="a_edge4_Node000003_Node000005"><a xlink:title=" ">
<path fill="none" stroke="#63b8ff" d="M540.79,-516.76C558.39,-554.74 618.04,-682.01 633.25,-695.11 635.88,-697.38 638.72,-699.45 641.71,-701.34"/>
<polygon fill="#63b8ff" stroke="#63b8ff" points="639.86,-704.32 650.31,-706.07 643.23,-698.18 639.86,-704.32"/>
</a>
</g>
</g>
<!-- Node25 -->
<g id="Node000025" class="node">
<title>Node25</title>
<g id="a_Node000025"><a xlink:href="kest__ui_8c.html#a8c61274edfd5c1adb98471432976c3b6" target="_top" xlink:title=" ">
<polygon fill="#fff0f0" stroke="red" points="785.75,-686.48 636.25,-686.48 636.25,-665.73 785.75,-665.73 785.75,-686.48"/>
<text xml:space="preserve" text-anchor="middle" x="711" y="-672.98" font-family="Helvetica,sans-Serif" font-size="10.00">enter_ui_page_forwards_cb</text>
</a>
</g>
</g>
<!-- Node3&#45;&gt;Node25 -->
<g id="edge5_Node000003_Node000025" class="edge">
<title>Node3&#45;&gt;Node25</title>
<g id="a_edge5_Node000003_Node000025"><a xlink:title=" ">
<path fill="none" stroke="#63b8ff" d="M539.98,-516.72C550.89,-543.57 583.26,-614.67 633.25,-652.11 637.81,-655.52 642.87,-658.46 648.15,-660.99"/>
<polygon fill="#63b8ff" stroke="#63b8ff" points="646.54,-664.11 657.12,-664.76 649.26,-657.65 646.54,-664.11"/>
</a>
</g>
</g>
<!-- Node32 -->
<g id="Node000032" class="node">
<title>Node32</title>
<g id="a_Node000032"><a xlink:href="kest__files_8c.html#a88e5ec05cd213e80c50f0279cdb3ca9c" target="_top" xlink:title=" ">
<polygon fill="#fff0f0" stroke="red" points="775.25,-610.48 646.75,-610.48 646.75,-589.73 775.25,-589.73 775.25,-610.48"/>
<text xml:space="preserve" text-anchor="middle" x="711" y="-596.98" font-family="Helvetica,sans-Serif" font-size="10.00">erase_sd_card_void_cb</text>
</a>
</g>
</g>
<!-- Node3&#45;&gt;Node32 -->
<g id="edge6_Node000003_Node000032" class="edge">
<title>Node3&#45;&gt;Node32</title>
<g id="a_edge6_Node000003_Node000032"><a xlink:title=" ">
<path fill="none" stroke="#63b8ff" d="M546.53,-516.79C563.43,-533.11 598.08,-564.14 633.25,-581.11 636.59,-582.72 640.08,-584.2 643.64,-585.56"/>
<polygon fill="#63b8ff" stroke="#63b8ff" points="642.5,-588.87 653.09,-588.81 644.77,-582.25 642.5,-588.87"/>
</a>
</g>
</g>
<!-- Node37 -->
<g id="Node000037" class="node">
<title>Node37</title>
<g id="a_Node000037"><a xlink:href="kest__button_8c.html#a20604a0eb74819a9747753ccfdb24e6c" target="_top" xlink:title=" ">
<polygon fill="white" stroke="#666666" points="924.38,-431.48 855.88,-431.48 855.88,-410.73 924.38,-410.73 924.38,-431.48"/>
<text xml:space="preserve" text-anchor="middle" x="890.12" y="-417.98" font-family="Helvetica,sans-Serif" font-size="10.00">init_button</text>
</a>
</g>
</g>
<!-- Node3&#45;&gt;Node37 -->
<g id="edge7_Node000003_Node000037" class="edge">
<title>Node3&#45;&gt;Node37</title>
<g id="a_edge7_Node000003_Node000037"><a xlink:title=" ">
<path fill="none" stroke="#63b8ff" d="M541.06,-516.87C553.22,-540.7 586.17,-597.53 633.25,-619.11 696.08,-647.9 729.86,-655.28 788.75,-619.11 852.71,-579.82 877.45,-485.7 885.62,-442.93"/>
<polygon fill="#63b8ff" stroke="#63b8ff" points="889.02,-443.81 887.32,-433.35 882.13,-442.59 889.02,-443.81"/>
</a>
</g>
</g>
<!-- Node38 -->
<g id="Node000038" class="node">
<title>Node38</title>
<g id="a_Node000038"><a xlink:href="kest__button_8c.html#a382c34bb14e1a864798fce1072a1e876" target="_top" xlink:title=" ">
<polygon fill="#fff0f0" stroke="red" points="764.75,-403.48 657.25,-403.48 657.25,-382.73 764.75,-382.73 764.75,-403.48"/>
<text xml:space="preserve" text-anchor="middle" x="711" y="-389.98" font-family="Helvetica,sans-Serif" font-size="10.00">init_danger_button</text>
</a>
</g>
</g>
<!-- Node3&#45;&gt;Node38 -->
<g id="edge8_Node000003_Node000038" class="edge">
<title>Node3&#45;&gt;Node38</title>
<g id="a_edge8_Node000003_Node000038"><a xlink:title=" ">
<path fill="none" stroke="#63b8ff" d="M577.53,-495.3C584.64,-492.17 591.55,-488.18 597.25,-483.11 623.39,-459.85 605.95,-434.98 633.25,-413.11 637.23,-409.92 641.66,-407.24 646.33,-404.98"/>
<polygon fill="#63b8ff" stroke="#63b8ff" points="647.51,-408.28 655.45,-401.26 644.87,-401.8 647.51,-408.28"/>
</a>
</g>
</g>
<!-- Node35 -->
<g id="Node000035" class="node">
<title>Node35</title>
<g id="a_Node000035"><a xlink:href="kest__alloc_8c.html#a849755c5dc5b35e712ffcdb602e50fb4" target="_top" xlink:title=" ">
<polygon fill="white" stroke="#666666" points="922.5,-212.48 857.75,-212.48 857.75,-191.73 922.5,-191.73 922.5,-212.48"/>
<text xml:space="preserve" text-anchor="middle" x="890.12" y="-198.98" font-family="Helvetica,sans-Serif" font-size="10.00">kest_alloc</text>
</a>
</g>
</g>
<!-- Node3&#45;&gt;Node35 -->
<g id="edge11_Node000003_Node000035" class="edge">
<title>Node3&#45;&gt;Node35</title>
<g id="a_edge11_Node000003_Node000035"><a xlink:title=" ">
<path fill="none" stroke="#63b8ff" d="M580.78,-495.31C586.97,-492.21 592.74,-488.23 597.25,-483.11 643.15,-431.02 583.59,-379.62 633.25,-331.11 683.79,-281.74 726.28,-331.12 788.75,-298.11 824.59,-279.17 856.65,-243.7 874.43,-221.58"/>
<polygon fill="#63b8ff" stroke="#63b8ff" points="877.02,-223.96 880.42,-213.93 871.5,-219.65 877.02,-223.96"/>
</a>
</g>
</g>
<!-- Node42 -->
<g id="Node000042" class="node">
<title>Node42</title>
<g id="a_Node000042"><a xlink:href="kest__button_8c.html#ab0abd81c81d95b73284ecfadc708b8ce" target="_top" xlink:title=" ">
<polygon fill="white" stroke="#666666" points="767.75,-571.86 654.25,-571.86 654.25,-538.36 767.75,-538.36 767.75,-571.86"/>
<text xml:space="preserve" text-anchor="start" x="662.25" y="-558.36" font-family="Helvetica,sans-Serif" font-size="10.00">kest_button_disable</text>
<text xml:space="preserve" text-anchor="middle" x="711" y="-545.61" font-family="Helvetica,sans-Serif" font-size="10.00">_alignment</text>
</a>
</g>
</g>
<!-- Node3&#45;&gt;Node42 -->
<g id="edge12_Node000003_Node000042" class="edge">
<title>Node3&#45;&gt;Node42</title>
<g id="a_edge12_Node000003_Node000042"><a xlink:title=" ">
<path fill="none" stroke="#63b8ff" d="M574.52,-516.98C594.67,-522.65 619.9,-529.75 643.11,-536.28"/>
<polygon fill="#63b8ff" stroke="#63b8ff" points="641.92,-539.59 652.49,-538.93 643.82,-532.85 641.92,-539.59"/>
</a>
</g>
</g>
<!-- Node43 -->
<g id="Node000043" class="node">
<title>Node43</title>
<g id="a_Node000043"><a xlink:href="kest__button_8c.html#ac24f7930db96a5006a81ec8255ad0e6c" target="_top" xlink:title=" ">
<polygon fill="#fff0f0" stroke="red" points="772.25,-520.48 649.75,-520.48 649.75,-499.73 772.25,-499.73 772.25,-520.48"/>
<text xml:space="preserve" text-anchor="middle" x="711" y="-506.98" font-family="Helvetica,sans-Serif" font-size="10.00">kest_button_set_label</text>
</a>
</g>
</g>
<!-- Node3&#45;&gt;Node43 -->
<g id="edge13_Node000003_Node000043" class="edge">
<title>Node3&#45;&gt;Node43</title>
<g id="a_edge13_Node000003_Node000043"><a xlink:title=" ">
<path fill="none" stroke="#63b8ff" d="M597.26,-507.52C610.5,-507.82 624.6,-508.15 638.19,-508.46"/>
<polygon fill="#63b8ff" stroke="#63b8ff" points="637.87,-511.95 647.94,-508.68 638.03,-504.95 637.87,-511.95"/>
</a>
</g>
</g>
<!-- Node45 -->
<g id="Node000045" class="node">
<title>Node45</title>
<g id="a_Node000045"><a xlink:href="kest__menu_8c.html#a3eb9105417c06419b54fee6e3f79b39a" target="_top" xlink:title=" ">
<polygon fill="#fff0f0" stroke="red" points="768.5,-481.48 653.5,-481.48 653.5,-460.73 768.5,-460.73 768.5,-481.48"/>
<text xml:space="preserve" text-anchor="middle" x="711" y="-467.98" font-family="Helvetica,sans-Serif" font-size="10.00">kest_msc_button_cb</text>
</a>
</g>
</g>
<!-- Node3&#45;&gt;Node45 -->
<g id="edge14_Node000003_Node000045" class="edge">
<title>Node3&#45;&gt;Node45</title>
<g id="a_edge14_Node000003_Node000045"><a xlink:title=" ">
<path fill="none" stroke="#63b8ff" d="M589.54,-495.32C607,-491.81 626.57,-487.88 644.78,-484.22"/>
<polygon fill="#63b8ff" stroke="#63b8ff" points="645.32,-487.68 654.43,-482.28 643.94,-480.82 645.32,-487.68"/>
</a>
</g>
</g>
<!-- Node50 -->
<g id="Node000050" class="node">
<title>Node50</title>
<g id="a_Node000050"><a xlink:href="kest__ui_8c.html#a01360963fabe989a816b58c78cbc041b" target="_top" xlink:title=" ">
<polygon fill="#fff0f0" stroke="red" points="745.25,-289.48 676.75,-289.48 676.75,-268.73 745.25,-268.73 745.25,-289.48"/>
<text xml:space="preserve" text-anchor="middle" x="711" y="-275.98" font-family="Helvetica,sans-Serif" font-size="10.00">new_panel</text>
</a>
</g>
</g>
<!-- Node3&#45;&gt;Node50 -->
<g id="edge15_Node000003_Node000050" class="edge">
<title>Node3&#45;&gt;Node50</title>
<g id="a_edge15_Node000003_Node000050"><a xlink:title=" ">
<path fill="none" stroke="#63b8ff" d="M581.25,-495.29C587.3,-492.2 592.9,-488.22 597.25,-483.11 650.11,-420.96 578.69,-363.76 633.25,-303.11 641.61,-293.81 653.52,-288.08 665.47,-284.56"/>
<polygon fill="#63b8ff" stroke="#63b8ff" points="665.99,-288.04 674.88,-282.27 664.34,-281.23 665.99,-288.04"/>
</a>
</g>
</g>
<!-- Node52 -->
<g id="Node000052" class="node">
<title>Node52</title>
<g id="a_Node000052"><a xlink:href="kest__parameter__widget_8c.html#a89863fab24827de020d29878a86c1b60" target="_top" xlink:title=" ">
<polygon fill="#fff0f0" stroke="red" points="781.62,-442.48 640.38,-442.48 640.38,-421.73 781.62,-421.73 781.62,-442.48"/>
<text xml:space="preserve" text-anchor="middle" x="711" y="-428.98" font-family="Helvetica,sans-Serif" font-size="10.00">nullify_parameter_widget</text>
</a>
</g>
</g>
<!-- Node3&#45;&gt;Node52 -->
<g id="edge17_Node000003_Node000052" class="edge">
<title>Node3&#45;&gt;Node52</title>
<g id="a_edge17_Node000003_Node000052"><a xlink:title=" ">
<path fill="none" stroke="#63b8ff" d="M571.27,-495.27C580.04,-491.93 589.22,-487.86 597.25,-483.11 615.42,-472.35 614.55,-461.91 633.25,-452.11 636.94,-450.17 640.84,-448.41 644.83,-446.82"/>
<polygon fill="#63b8ff" stroke="#63b8ff" points="645.91,-450.15 654.15,-443.48 643.55,-443.56 645.91,-450.15"/>
</a>
</g>
</g>
<!-- Node38&#45;&gt;Node4 -->
<g id="edge9_Node000038_Node000004" class="edge">
<title>Node38&#45;&gt;Node4</title>
<g id="a_edge9_Node000038_Node000004"><a xlink:title=" ">
<path fill="none" stroke="#63b8ff" d="M749.34,-382.26C761.95,-378.38 776.05,-373.8 788.75,-369.11 811.3,-360.78 836.14,-350.15 855.47,-341.54"/>
<polygon fill="#63b8ff" stroke="#63b8ff" points="856.8,-344.78 864.49,-337.49 853.93,-338.39 856.8,-344.78"/>
</a>
</g>
</g>
<!-- Node38&#45;&gt;Node37 -->
<g id="edge10_Node000038_Node000037" class="edge">
<title>Node38&#45;&gt;Node37</title>
<g id="a_edge10_Node000038_Node000037"><a xlink:title=" ">
<path fill="none" stroke="#63b8ff" d="M765.14,-401.51C790.36,-405.5 820.17,-410.21 844.24,-414.01"/>
<polygon fill="#63b8ff" stroke="#63b8ff" points="843.63,-417.46 854.05,-415.56 844.72,-410.55 843.63,-417.46"/>
</a>
</g>
</g>
<!-- Node50&#45;&gt;Node35 -->
<g id="edge16_Node000050_Node000035" class="edge">
<title>Node50&#45;&gt;Node35</title>
<g id="a_edge16_Node000050_Node000035"><a xlink:title=" ">
<path fill="none" stroke="#63b8ff" d="M745.48,-272.39C759.16,-269.14 774.97,-264.7 788.75,-259.11 815.47,-248.26 843.87,-231.59 863.62,-219.08"/>
<polygon fill="#63b8ff" stroke="#63b8ff" points="865.32,-222.15 871.83,-213.79 861.53,-216.26 865.32,-222.15"/>
</a>
</g>
</g>
<!-- Node63 -->
<g id="Node000063" class="node">
<title>Node63</title>
<g id="a_Node000063"><a xlink:href="kest__button_8c.html#a42c4bb920da57000dbde4fa1fa26868c" target="_top" xlink:title=" ">
<polygon fill="white" stroke="#666666" points="939,-983.48 841.25,-983.48 841.25,-962.73 939,-962.73 939,-983.48"/>
<text xml:space="preserve" text-anchor="middle" x="890.12" y="-969.98" font-family="Helvetica,sans-Serif" font-size="10.00">create_button_ui</text>
</a>
</g>
</g>
<!-- Node62&#45;&gt;Node63 -->
<g id="edge19_Node000062_Node000063" class="edge">
<title>Node62&#45;&gt;Node63</title>
<g id="a_edge19_Node000062_Node000063"><a xlink:title=" ">
<path fill="none" stroke="#63b8ff" d="M597.2,-934.3C648.58,-936.71 723.73,-941.59 788.75,-951.11 803.8,-953.31 819.96,-956.49 834.82,-959.74"/>
<polygon fill="#63b8ff" stroke="#63b8ff" points="833.89,-963.12 844.42,-961.9 835.43,-956.29 833.89,-963.12"/>
</a>
</g>
</g>
<!-- Node64 -->
<g id="Node000064" class="node">
<title>Node64</title>
<g id="a_Node000064"><a xlink:href="kest__button_8c.html#ae6551220e84fc3c185f77c594bf7b3ca" target="_top" xlink:title=" ">
<polygon fill="white" stroke="#666666" points="767,-1031.86 655,-1031.86 655,-998.36 767,-998.36 767,-1031.86"/>
<text xml:space="preserve" text-anchor="start" x="663" y="-1018.36" font-family="Helvetica,sans-Serif" font-size="10.00">kest_danger_button</text>
<text xml:space="preserve" text-anchor="middle" x="711" y="-1005.61" font-family="Helvetica,sans-Serif" font-size="10.00">_create_ui</text>
</a>
</g>
</g>
<!-- Node62&#45;&gt;Node64 -->
<g id="edge21_Node000062_Node000064" class="edge">
<title>Node62&#45;&gt;Node64</title>
<g id="a_edge21_Node000062_Node000064"><a xlink:title=" ">
<path fill="none" stroke="#63b8ff" d="M551.87,-942.84C570.73,-955.17 603.31,-975.45 633.25,-989.11 636.81,-990.73 640.51,-992.31 644.27,-993.84"/>
<polygon fill="#63b8ff" stroke="#63b8ff" points="642.96,-997.09 653.55,-997.43 645.49,-990.56 642.96,-997.09"/>
</a>
</g>
</g>
<!-- Node65 -->
<g id="Node000065" class="node">
<title>Node65</title>
<g id="a_Node000065"><a xlink:href="kest__parameter__widget_8c.html#adbadb9573fa4f9b812f8d270c78053e4" target="_top" xlink:title=" ">
<polygon fill="#fff0f0" stroke="red" points="788.75,-980.48 633.25,-980.48 633.25,-959.73 788.75,-959.73 788.75,-980.48"/>
<text xml:space="preserve" text-anchor="middle" x="711" y="-966.98" font-family="Helvetica,sans-Serif" font-size="10.00">parameter_widget_create_ui</text>
</a>
</g>
</g>
<!-- Node62&#45;&gt;Node65 -->
<g id="edge23_Node000062_Node000065" class="edge">
<title>Node62&#45;&gt;Node65</title>
<g id="a_edge23_Node000062_Node000065"><a xlink:title=" ">
<path fill="none" stroke="#63b8ff" d="M585.31,-942.9C605.25,-947.25 628.46,-952.31 649.4,-956.88"/>
<polygon fill="#63b8ff" stroke="#63b8ff" points="648.45,-960.26 658.97,-958.97 649.94,-953.42 648.45,-960.26"/>
</a>
</g>
</g>
<!-- Node74 -->
<g id="Node000074" class="node">
<title>Node74</title>
<g id="a_Node000074"><a xlink:href="kest__ui_8c.html#a58a68a436917a32cc3daab2e0d4b3245" target="_top" xlink:title=" ">
<polygon fill="#fff0f0" stroke="red" points="777.5,-904.48 644.5,-904.48 644.5,-883.73 777.5,-883.73 777.5,-904.48"/>
<text xml:space="preserve" text-anchor="middle" x="711" y="-890.98" font-family="Helvetica,sans-Serif" font-size="10.00">ui_page_create_base_ui</text>
</a>
</g>
</g>
<!-- Node62&#45;&gt;Node74 -->
<g id="edge24_Node000062_Node000074" class="edge">
<title>Node62&#45;&gt;Node74</title>
<g id="a_edge24_Node000062_Node000074"><a xlink:title=" ">
<path fill="none" stroke="#63b8ff" d="M585.31,-921.32C605.25,-916.97 628.46,-911.9 649.4,-907.33"/>
<polygon fill="#63b8ff" stroke="#63b8ff" points="649.94,-910.8 658.97,-905.25 648.45,-903.96 649.94,-910.8"/>
</a>
</g>
</g>
<!-- Node63&#45;&gt;Node63 -->
<g id="edge20_Node000063_Node000063" class="edge">
<title>Node63&#45;&gt;Node63</title>
<g id="a_edge20_Node000063_Node000063"><a xlink:title=" ">
<path fill="none" stroke="#63b8ff" d="M861.26,-983.88C849.72,-992.54 859.34,-1001.48 890.12,-1001.48 906.96,-1001.48 917.47,-998.81 921.64,-994.97"/>
<polygon fill="#63b8ff" stroke="#63b8ff" points="925.07,-994.26 919.34,-985.35 918.27,-995.89 925.07,-994.26"/>
</a>
</g>
</g>
<!-- Node64&#45;&gt;Node63 -->
<g id="edge22_Node000064_Node000063" class="edge">
<title>Node64&#45;&gt;Node63</title>
<g id="a_edge22_Node000064_Node000063"><a xlink:title=" ">
<path fill="none" stroke="#63b8ff" d="M767.07,-1002.05C787.82,-997.13 811.44,-991.53 832.34,-986.57"/>
<polygon fill="#63b8ff" stroke="#63b8ff" points="832.92,-990.03 841.84,-984.32 831.3,-983.22 832.92,-990.03"/>
</a>
</g>
</g>
<!-- Node86 -->
<g id="Node000086" class="node">
<title>Node86</title>
<g id="a_Node000086"><a xlink:href="kest__menu_8c.html#af46174a3713bd90a7920a15efac58b46" target="_top" xlink:title=" ">
<polygon fill="#fff0f0" stroke="red" points="762.88,-776.48 659.12,-776.48 659.12,-755.73 762.88,-755.73 762.88,-776.48"/>
<text xml:space="preserve" text-anchor="middle" x="711" y="-762.98" font-family="Helvetica,sans-Serif" font-size="10.00">enter_menu_page</text>
</a>
</g>
</g>
<!-- Node85&#45;&gt;Node86 -->
<g id="edge26_Node000085_Node000086" class="edge">
<title>Node85&#45;&gt;Node86</title>
<g id="a_edge26_Node000085_Node000086"><a xlink:title=" ">
<path fill="none" stroke="#63b8ff" d="M587.18,-778.1C606.04,-776.26 627.63,-774.15 647.38,-772.22"/>
<polygon fill="#63b8ff" stroke="#63b8ff" points="647.65,-775.71 657.26,-771.26 646.97,-768.75 647.65,-775.71"/>
</a>
</g>
</g>
<!-- Node87 -->
<g id="Node000087" class="node">
<title>Node87</title>
<g id="a_Node000087"><a xlink:href="kest__parameter__widget_8c.html#a627573f8fb113b0b0beb013cb04ed61c" target="_top" xlink:title=" ">
<polygon fill="#fff0f0" stroke="red" points="955.5,-801.86 824.75,-801.86 824.75,-768.36 955.5,-768.36 955.5,-801.86"/>
<text xml:space="preserve" text-anchor="start" x="832.75" y="-788.36" font-family="Helvetica,sans-Serif" font-size="10.00">kest_parameter_widget</text>
<text xml:space="preserve" text-anchor="middle" x="890.12" y="-775.61" font-family="Helvetica,sans-Serif" font-size="10.00">_refresh</text>
</a>
</g>
</g>
<!-- Node85&#45;&gt;Node87 -->
<g id="edge29_Node000085_Node000087" class="edge">
<title>Node85&#45;&gt;Node87</title>
<g id="a_edge29_Node000085_Node000087"><a xlink:title=" ">
<path fill="none" stroke="#63b8ff" d="M587.42,-784.36C602.21,-784.67 618.37,-784.95 633.25,-785.11 693.75,-785.73 762.3,-785.69 813.21,-785.52"/>
<polygon fill="#63b8ff" stroke="#63b8ff" points="812.95,-789.02 822.94,-785.48 812.92,-782.02 812.95,-789.02"/>
</a>
</g>
</g>
<!-- Node90 -->
<g id="Node000090" class="node">
<title>Node90</title>
<g id="a_Node000090"><a xlink:href="kest__parameter__widget_8c.html#a4535590c98acfdcf20115dfa544dba34" target="_top" xlink:title=" ">
<polygon fill="#fff0f0" stroke="red" points="776.38,-865.86 645.62,-865.86 645.62,-832.36 776.38,-832.36 776.38,-865.86"/>
<text xml:space="preserve" text-anchor="start" x="653.62" y="-852.36" font-family="Helvetica,sans-Serif" font-size="10.00">kest_parameter_widget</text>
<text xml:space="preserve" text-anchor="middle" x="711" y="-839.61" font-family="Helvetica,sans-Serif" font-size="10.00">_align_nominal_value</text>
</a>
</g>
</g>
<!-- Node85&#45;&gt;Node90 -->
<g id="edge28_Node000085_Node000090" class="edge">
<title>Node85&#45;&gt;Node90</title>
<g id="a_edge28_Node000085_Node000090"><a xlink:title=" ">
<path fill="none" stroke="#63b8ff" d="M564.24,-793.86C588.44,-803.03 623.97,-816.5 653.9,-827.84"/>
<polygon fill="#63b8ff" stroke="#63b8ff" points="652.63,-831.11 663.22,-831.38 655.11,-824.56 652.63,-831.11"/>
</a>
</g>
</g>
<!-- Node86&#45;&gt;Node87 -->
<g id="edge27_Node000086_Node000087" class="edge">
<title>Node86&#45;&gt;Node87</title>
<g id="a_edge27_Node000086_Node000087"><a xlink:title=" ">
<path fill="none" stroke="#63b8ff" d="M763.23,-771.6C778.9,-773.28 796.49,-775.17 813.43,-776.99"/>
<polygon fill="#63b8ff" stroke="#63b8ff" points="812.62,-780.42 822.94,-778.01 813.37,-773.46 812.62,-780.42"/>
</a>
</g>
</g>
<!-- Node93 -->
<g id="Node000093" class="node">
<title>Node93</title>
<g id="a_Node000093"><a xlink:href="kest__sequence__list_8c.html#ae60870bb862edfc5b0a45344c20b152f" target="_top" xlink:title=" ">
<polygon fill="white" stroke="#666666" points="436.5,-174.48 302.75,-174.48 302.75,-153.73 436.5,-153.73 436.5,-174.48"/>
<text xml:space="preserve" text-anchor="middle" x="369.62" y="-160.98" font-family="Helvetica,sans-Serif" font-size="10.00">configure_sequence_list</text>
</a>
</g>
</g>
<!-- Node92&#45;&gt;Node93 -->
<g id="edge32_Node000092_Node000093" class="edge">
<title>Node92&#45;&gt;Node93</title>
<g id="a_edge32_Node000092_Node000093"><a xlink:title=" ">
<path fill="none" stroke="#63b8ff" d="M222.24,-413.27C245.49,-373.7 326,-236.65 356.65,-184.49"/>
<polygon fill="#63b8ff" stroke="#63b8ff" points="359.58,-186.41 361.63,-176.01 353.55,-182.86 359.58,-186.41"/>
</a>
</g>
</g>
<!-- Node343 -->
<g id="Node000343" class="node">
<title>Node343</title>
<g id="a_Node000343"><a xlink:href="kest__menu_8c.html#a9a3dc2a29ebf6ace0a6b54a902530001" target="_top" xlink:title=" ">
<polygon fill="white" stroke="#666666" points="416.62,-435.48 322.62,-435.48 322.62,-414.73 416.62,-414.73 416.62,-435.48"/>
<text xml:space="preserve" text-anchor="middle" x="369.62" y="-421.98" font-family="Helvetica,sans-Serif" font-size="10.00">init_menu_page</text>
</a>
</g>
</g>
<!-- Node92&#45;&gt;Node343 -->
<g id="edge44_Node000092_Node000343" class="edge">
<title>Node92&#45;&gt;Node343</title>
<g id="a_edge44_Node000092_Node000343"><a xlink:title=" ">
<path fill="none" stroke="#63b8ff" d="M267.16,-424.44C281.25,-424.54 296.62,-424.64 311.04,-424.73"/>
<polygon fill="#63b8ff" stroke="#63b8ff" points="310.82,-428.23 320.84,-424.79 310.86,-421.23 310.82,-428.23"/>
</a>
</g>
</g>
<!-- Node93&#45;&gt;Node50 -->
<g id="edge36_Node000093_Node000050" class="edge">
<title>Node93&#45;&gt;Node50</title>
<g id="a_edge36_Node000093_Node000050"><a xlink:title=" ">
<path fill="none" stroke="#63b8ff" d="M397.94,-174.94C445.37,-193.52 546.19,-232.08 633.25,-259.11 643.69,-262.35 655.04,-265.5 665.73,-268.32"/>
<polygon fill="#63b8ff" stroke="#63b8ff" points="664.54,-271.62 675.1,-270.73 666.29,-264.84 664.54,-271.62"/>
</a>
</g>
</g>
<!-- Node94 -->
<g id="Node000094" class="node">
<title>Node94</title>
<g id="a_Node000094"><a xlink:href="kest__sequence__list_8c.html#a0350526aca07d7cc68e8325cf0b1f02c" target="_top" xlink:title=" ">
<polygon fill="#fff0f0" stroke="red" points="777.88,-90.86 644.12,-90.86 644.12,-57.36 777.88,-57.36 777.88,-90.86"/>
<text xml:space="preserve" text-anchor="start" x="652.12" y="-77.36" font-family="Helvetica,sans-Serif" font-size="10.00">create_sequence_listing</text>
<text xml:space="preserve" text-anchor="middle" x="711" y="-64.61" font-family="Helvetica,sans-Serif" font-size="10.00">_menu_item</text>
</a>
</g>
</g>
<!-- Node93&#45;&gt;Node94 -->
<g id="edge33_Node000093_Node000094" class="edge">
<title>Node93&#45;&gt;Node94</title>
<g id="a_edge33_Node000093_Node000094"><a xlink:title=" ">
<path fill="none" stroke="#63b8ff" d="M384.92,-153.35C403.86,-139.69 438.83,-116.54 472.5,-105.11 524.06,-87.6 585.02,-79.89 632.27,-76.54"/>
<polygon fill="#63b8ff" stroke="#63b8ff" points="632.4,-80.04 642.15,-75.89 631.94,-73.05 632.4,-80.04"/>
</a>
</g>
</g>
<!-- Node98 -->
<g id="Node000098" class="node">
<title>Node98</title>
<g id="a_Node000098"><a xlink:href="kest__menu_8c.html#a32a51795f1b204927f10b268fc1e9ce2" target="_top" xlink:title=" ">
<polygon fill="white" stroke="#666666" points="773,-27.48 649,-27.48 649,-6.73 773,-6.73 773,-27.48"/>
<text xml:space="preserve" text-anchor="middle" x="711" y="-13.98" font-family="Helvetica,sans-Serif" font-size="10.00">menu_page_add_item</text>
</a>
</g>
</g>
<!-- Node93&#45;&gt;Node98 -->
<g id="edge35_Node000093_Node000098" class="edge">
<title>Node93&#45;&gt;Node98</title>
<g id="a_edge35_Node000093_Node000098"><a xlink:title=" ">
<path fill="none" stroke="#63b8ff" d="M374.5,-153.48C385.14,-126.05 417.74,-53.01 472.5,-24.11 526.48,4.38 597.41,2.28 647.66,-4.58"/>
<polygon fill="#63b8ff" stroke="#63b8ff" points="647.1,-8.03 657.51,-6.03 648.13,-1.11 647.1,-8.03"/>
</a>
</g>
</g>
<!-- Node99 -->
<g id="Node000099" class="node">
<title>Node99</title>
<g id="a_Node000099"><a xlink:href="kest__sequence__list_8c.html#ac9d222d7405758d9f4edfeabe4c6200e" target="_top" xlink:title=" ">
<polygon fill="#fff0f0" stroke="red" points="596.12,-53.48 473.62,-53.48 473.62,-32.73 596.12,-32.73 596.12,-53.48"/>
<text xml:space="preserve" text-anchor="middle" x="534.88" y="-39.98" font-family="Helvetica,sans-Serif" font-size="10.00">sequence_list_add_cb</text>
</a>
</g>
</g>
<!-- Node93&#45;&gt;Node99 -->
<g id="edge37_Node000093_Node000099" class="edge">
<title>Node93&#45;&gt;Node99</title>
<g id="a_edge37_Node000093_Node000099"><a xlink:title=" ">
<path fill="none" stroke="#63b8ff" d="M379.38,-153.37C395.81,-133.82 433.15,-92.15 472.5,-67.11 477.63,-63.84 483.27,-60.9 488.99,-58.29"/>
<polygon fill="#63b8ff" stroke="#63b8ff" points="490.04,-61.64 497.89,-54.53 487.32,-55.19 490.04,-61.64"/>
</a>
</g>
</g>
<!-- Node115 -->
<g id="Node000115" class="node">
<title>Node115</title>
<g id="a_Node000115"><a xlink:href="kest__ui_8c.html#a349acdb394f97d782e6b5828af856b05" target="_top" xlink:title=" ">
<polygon fill="#fff0f0" stroke="red" points="782.38,-250.48 639.62,-250.48 639.62,-229.73 782.38,-229.73 782.38,-250.48"/>
<text xml:space="preserve" text-anchor="middle" x="711" y="-236.98" font-family="Helvetica,sans-Serif" font-size="10.00">ui_page_add_back_button</text>
</a>
</g>
</g>
<!-- Node93&#45;&gt;Node115 -->
<g id="edge40_Node000093_Node000115" class="edge">
<title>Node93&#45;&gt;Node115</title>
<g id="a_edge40_Node000093_Node000115"><a xlink:title=" ">
<path fill="none" stroke="#63b8ff" d="M411.18,-174.88C429.81,-179.72 452.23,-185.39 472.5,-190.11 530.25,-203.55 596.27,-217.32 644.02,-227"/>
<polygon fill="#63b8ff" stroke="#63b8ff" points="643.16,-230.4 653.66,-228.95 644.55,-223.53 643.16,-230.4"/>
</a>
</g>
</g>
<!-- Node190 -->
<g id="Node000190" class="node">
<title>Node190</title>
<g id="a_Node000190"><a xlink:href="kest__ui_8c.html#a446fd8da13243be96d2ce6a5ff1f1f7b" target="_top" xlink:title=" ">
<polygon fill="#fff0f0" stroke="red" points="593.88,-180.86 475.88,-180.86 475.88,-147.36 593.88,-147.36 593.88,-180.86"/>
<text xml:space="preserve" text-anchor="start" x="483.88" y="-167.36" font-family="Helvetica,sans-Serif" font-size="10.00">ui_page_add_bottom</text>
<text xml:space="preserve" text-anchor="middle" x="534.88" y="-154.61" font-family="Helvetica,sans-Serif" font-size="10.00">_button</text>
</a>
</g>
</g>
<!-- Node93&#45;&gt;Node190 -->
<g id="edge42_Node000093_Node000190" class="edge">
<title>Node93&#45;&gt;Node190</title>
<g id="a_edge42_Node000093_Node000190"><a xlink:title=" ">
<path fill="none" stroke="#63b8ff" d="M436.55,-164.11C445.64,-164.11 454.99,-164.11 464.14,-164.11"/>
<polygon fill="#63b8ff" stroke="#63b8ff" points="464.07,-167.61 474.07,-164.11 464.07,-160.61 464.07,-167.61"/>
</a>
</g>
</g>
<!-- Node94&#45;&gt;Node35 -->
<g id="edge34_Node000094_Node000035" class="edge">
<title>Node94&#45;&gt;Node35</title>
<g id="a_edge34_Node000094_Node000035"><a xlink:title=" ">
<path fill="none" stroke="#63b8ff" d="M762.53,-91.27C771.57,-95.24 780.68,-99.86 788.75,-105.11 822.56,-127.07 854.82,-161.46 873.26,-182.84"/>
<polygon fill="#63b8ff" stroke="#63b8ff" points="870.4,-184.87 879.53,-190.24 875.74,-180.35 870.4,-184.87"/>
</a>
</g>
</g>
<!-- Node99&#45;&gt;Node94 -->
<g id="edge38_Node000099_Node000094" class="edge">
<title>Node99&#45;&gt;Node94</title>
<g id="a_edge38_Node000099_Node000094"><a xlink:title=" ">
<path fill="none" stroke="#63b8ff" d="M596.29,-53.86C608.02,-55.95 620.46,-58.17 632.65,-60.34"/>
<polygon fill="#63b8ff" stroke="#63b8ff" points="631.8,-63.74 642.26,-62.05 633.03,-56.85 631.8,-63.74"/>
</a>
</g>
</g>
<!-- Node99&#45;&gt;Node98 -->
<g id="edge39_Node000099_Node000098" class="edge">
<title>Node99&#45;&gt;Node98</title>
<g id="a_edge39_Node000099_Node000098"><a xlink:title=" ">
<path fill="none" stroke="#63b8ff" d="M596.29,-34.09C609.49,-32.12 623.59,-30.01 637.21,-27.98"/>
<polygon fill="#63b8ff" stroke="#63b8ff" points="637.64,-31.45 647.02,-26.51 636.61,-24.53 637.64,-31.45"/>
</a>
</g>
</g>
<!-- Node115&#45;&gt;Node4 -->
<g id="edge41_Node000115_Node000004" class="edge">
<title>Node115&#45;&gt;Node4</title>
<g id="a_edge41_Node000115_Node000004"><a xlink:title=" ">
<path fill="none" stroke="#63b8ff" d="M763.17,-250.94C771.87,-253.49 780.7,-256.53 788.75,-260.11 817.61,-272.94 847.44,-293.68 867,-308.49"/>
<polygon fill="#63b8ff" stroke="#63b8ff" points="864.73,-311.15 874.79,-314.49 869.01,-305.61 864.73,-311.15"/>
</a>
</g>
</g>
<!-- Node190&#45;&gt;Node4 -->
<g id="edge43_Node000190_Node000004" class="edge">
<title>Node190&#45;&gt;Node4</title>
<g id="a_edge43_Node000190_Node000004"><a xlink:title=" ">
<path fill="none" stroke="#63b8ff" d="M594.29,-167.66C647.88,-173.07 727.94,-186.71 788.75,-221.11 826.39,-242.4 858.65,-282.29 875.84,-306.3"/>
<polygon fill="#63b8ff" stroke="#63b8ff" points="872.81,-308.07 881.39,-314.28 878.55,-304.07 872.81,-308.07"/>
</a>
</g>
</g>
<!-- Node343&#45;&gt;Node35 -->
<g id="edge56_Node000343_Node000035" class="edge">
<title>Node343&#45;&gt;Node35</title>
<g id="a_edge56_Node000343_Node000035"><a xlink:title=" ">
<path fill="none" stroke="#63b8ff" d="M416.86,-417.14C424.08,-414.28 430.96,-410.39 436.5,-405.11 470.99,-372.22 441.14,-339.99 472.5,-304.11 525.41,-243.57 555.87,-242.97 633.25,-221.11 705.83,-200.6 794.33,-198.91 845.94,-200.11"/>
<polygon fill="#63b8ff" stroke="#63b8ff" points="845.7,-203.61 855.79,-200.4 845.9,-196.61 845.7,-203.61"/>
</a>
</g>
</g>
<!-- Node343&#45;&gt;Node86 -->
<g id="edge52_Node000343_Node000086" class="edge">
<title>Node343&#45;&gt;Node86</title>
<g id="a_edge52_Node000343_Node000086"><a xlink:title=" ">
<path fill="none" stroke="#63b8ff" d="M383.37,-435.95C397.1,-447.89 419.29,-467.94 436.5,-487.11 533.33,-594.92 512.26,-667.35 633.25,-747.11 637.81,-750.11 642.8,-752.64 647.99,-754.77"/>
<polygon fill="#63b8ff" stroke="#63b8ff" points="646.8,-758.07 657.4,-758.1 649.14,-751.47 646.8,-758.07"/>
</a>
</g>
</g>
<!-- Node343&#45;&gt;Node91 -->
<g id="edge55_Node000343_Node000091" class="edge">
<title>Node343&#45;&gt;Node91</title>
<g id="a_edge55_Node000343_Node000091"><a xlink:title=" ">
<path fill="none" stroke="#63b8ff" d="M416.97,-425.11C438.46,-425.11 464,-425.11 485.71,-425.11"/>
<polygon fill="#63b8ff" stroke="#63b8ff" points="485.49,-428.61 495.49,-425.11 485.49,-421.61 485.49,-428.61"/>
</a>
</g>
</g>
<!-- Node344 -->
<g id="Node000344" class="node">
<title>Node344</title>
<g id="a_Node000344"><a xlink:href="kest__menu_8c.html#a264644eed0c454d882162f462ed24454" target="_top" xlink:title=" ">
<polygon fill="#fff0f0" stroke="red" points="596.88,-333.48 472.88,-333.48 472.88,-312.73 596.88,-312.73 596.88,-333.48"/>
<text xml:space="preserve" text-anchor="middle" x="534.88" y="-319.98" font-family="Helvetica,sans-Serif" font-size="10.00">configure_menu_page</text>
</a>
</g>
</g>
<!-- Node343&#45;&gt;Node344 -->
<g id="edge45_Node000343_Node000344" class="edge">
<title>Node343&#45;&gt;Node344</title>
<g id="a_edge45_Node000343_Node000344"><a xlink:title=" ">
<path fill="none" stroke="#63b8ff" d="M416.96,-414.39C423.77,-411.88 430.5,-408.82 436.5,-405.11 456.29,-392.88 454.97,-382.4 472.5,-367.11 483.5,-357.51 496.55,-347.94 507.78,-340.18"/>
<polygon fill="#63b8ff" stroke="#63b8ff" points="509.51,-343.23 515.83,-334.73 505.59,-337.44 509.51,-343.23"/>
</a>
</g>
</g>
<!-- Node347 -->
<g id="Node000347" class="node">
<title>Node347</title>
<g id="a_Node000347"><a xlink:href="kest__menu_8c.html#a6775c89241a45f6fa04a6d8111139cb5" target="_top" xlink:title=" ">
<polygon fill="#fff0f0" stroke="red" points="596.5,-850.48 473.25,-850.48 473.25,-829.73 596.5,-829.73 596.5,-850.48"/>
<text xml:space="preserve" text-anchor="middle" x="534.88" y="-836.98" font-family="Helvetica,sans-Serif" font-size="10.00">create_menu_page_ui</text>
</a>
</g>
</g>
<!-- Node343&#45;&gt;Node347 -->
<g id="edge49_Node000343_Node000347" class="edge">
<title>Node343&#45;&gt;Node347</title>
<g id="a_edge49_Node000343_Node000347"><a xlink:title=" ">
<path fill="none" stroke="#63b8ff" d="M387.6,-435.86C403.18,-446.74 425.45,-465.07 436.5,-487.11 499.66,-613.07 397.04,-683.1 472.5,-802.11 478.17,-811.05 486.78,-818.22 495.77,-823.83"/>
<polygon fill="#63b8ff" stroke="#63b8ff" points="493.8,-826.73 504.23,-828.56 497.21,-820.63 493.8,-826.73"/>
</a>
</g>
</g>
<!-- Node348 -->
<g id="Node000348" class="node">
<title>Node348</title>
<g id="a_Node000348"><a xlink:href="kest__menu_8c.html#a2a0663e2aaf8fcb135cdf12feb40dfdb" target="_top" xlink:title=" ">
<polygon fill="white" stroke="#666666" points="590.88,-396.48 478.88,-396.48 478.88,-375.73 590.88,-375.73 590.88,-396.48"/>
<text xml:space="preserve" text-anchor="middle" x="534.88" y="-382.98" font-family="Helvetica,sans-Serif" font-size="10.00">free_menu_page_ui</text>
</a>
</g>
</g>
<!-- Node343&#45;&gt;Node348 -->
<g id="edge53_Node000343_Node000348" class="edge">
<title>Node343&#45;&gt;Node348</title>
<g id="a_edge53_Node000343_Node000348"><a xlink:title=" ">
<path fill="none" stroke="#63b8ff" d="M416.1,-414.24C435.04,-409.72 457.23,-404.42 477.21,-399.65"/>
<polygon fill="#63b8ff" stroke="#63b8ff" points="477.98,-403.06 486.89,-397.33 476.35,-396.25 477.98,-403.06"/>
</a>
</g>
</g>
<!-- Node349 -->
<g id="Node000349" class="node">
<title>Node349</title>
<g id="a_Node000349"><a xlink:href="kest__menu_8c.html#afb490f7eb37e93e314d988561c52c615" target="_top" xlink:title=" ">
<polygon fill="white" stroke="#666666" points="590.88,-474.48 478.88,-474.48 478.88,-453.73 590.88,-453.73 590.88,-474.48"/>
<text xml:space="preserve" text-anchor="middle" x="534.88" y="-460.98" font-family="Helvetica,sans-Serif" font-size="10.00">init_menu_page_str</text>
</a>
</g>
</g>
<!-- Node343&#45;&gt;Node349 -->
<g id="edge54_Node000343_Node000349" class="edge">
<title>Node343&#45;&gt;Node349</title>
<g id="a_edge54_Node000343_Node000349"><a xlink:title=" ">
<path fill="none" stroke="#63b8ff" d="M416.1,-435.97C435.04,-440.5 457.23,-445.8 477.21,-450.57"/>
<polygon fill="#63b8ff" stroke="#63b8ff" points="476.35,-453.96 486.89,-452.88 477.98,-447.16 476.35,-453.96"/>
</a>
</g>
</g>
<!-- Node344&#45;&gt;Node50 -->
<g id="edge47_Node000344_Node000050" class="edge">
<title>Node344&#45;&gt;Node50</title>
<g id="a_edge47_Node000344_Node000050"><a xlink:title=" ">
<path fill="none" stroke="#63b8ff" d="M578.47,-312.34C604.81,-305.69 638.58,-297.16 665.3,-290.4"/>
<polygon fill="#63b8ff" stroke="#63b8ff" points="665.97,-293.84 674.81,-288 664.26,-287.06 665.97,-293.84"/>
</a>
</g>
</g>
<!-- Node344&#45;&gt;Node115 -->
<g id="edge48_Node000344_Node000115" class="edge">
<title>Node344&#45;&gt;Node115</title>
<g id="a_edge48_Node000344_Node000115"><a xlink:title=" ">
<path fill="none" stroke="#63b8ff" d="M571.65,-312.25C580.42,-308.76 589.5,-304.4 597.25,-299.11 616.73,-285.81 613.02,-272.24 633.25,-260.11 636.22,-258.32 639.36,-256.7 642.59,-255.22"/>
<polygon fill="#63b8ff" stroke="#63b8ff" points="643.79,-258.5 651.76,-251.52 641.17,-252.01 643.79,-258.5"/>
</a>
</g>
</g>
<!-- Node344&#45;&gt;Node344 -->
<g id="edge46_Node000344_Node000344" class="edge">
<title>Node344&#45;&gt;Node344</title>
<g id="a_edge46_Node000344_Node000344"><a xlink:title=" ">
<path fill="none" stroke="#63b8ff" d="M508.25,-333.88C497.6,-342.54 506.47,-351.48 534.88,-351.48 550.41,-351.48 560.1,-348.81 563.95,-344.97"/>
<polygon fill="#63b8ff" stroke="#63b8ff" points="567.4,-344.37 561.83,-335.36 560.57,-345.88 567.4,-344.37"/>
</a>
</g>
</g>
<!-- Node347&#45;&gt;Node74 -->
<g id="edge51_Node000347_Node000074" class="edge">
<title>Node347&#45;&gt;Node74</title>
<g id="a_edge51_Node000347_Node000074"><a xlink:title=" ">
<path fill="none" stroke="#63b8ff" d="M563.33,-850.83C582.7,-858.18 609.35,-867.87 633.25,-875.11 639.39,-876.97 645.85,-878.78 652.31,-880.5"/>
<polygon fill="#63b8ff" stroke="#63b8ff" points="651.09,-883.8 661.65,-882.93 652.85,-877.03 651.09,-883.8"/>
</a>
</g>
</g>
<!-- Node347&#45;&gt;Node347 -->
<g id="edge50_Node000347_Node000347" class="edge">
<title>Node347&#45;&gt;Node347</title>
<g id="a_edge50_Node000347_Node000347"><a xlink:title=" ">
<path fill="none" stroke="#63b8ff" d="M508.25,-850.88C497.6,-859.54 506.47,-868.48 534.88,-868.48 550.41,-868.48 560.1,-865.81 563.95,-861.97"/>
<polygon fill="#63b8ff" stroke="#63b8ff" points="567.4,-861.37 561.83,-852.36 560.57,-862.88 567.4,-861.37"/>
</a>
</g>
</g>
<!-- Node322&#45;&gt;Node35 -->
<g id="edge59_Node000322_Node000035" class="edge">
<title>Node322&#45;&gt;Node35</title>
<g id="a_edge59_Node000322_Node000035"><a xlink:title=" ">
<path fill="none" stroke="#63b8ff" d="M373.34,-375.37C384.69,-331.5 429.68,-166.81 472.5,-138.11 521.99,-104.94 783.04,-167.72 788.75,-169.11 809.12,-174.07 831.3,-181.18 849.63,-187.53"/>
<polygon fill="#63b8ff" stroke="#63b8ff" points="848.46,-190.83 859.06,-190.85 850.79,-184.23 848.46,-190.83"/>
</a>
</g>
</g>
<!-- Node322&#45;&gt;Node91 -->
<g id="edge58_Node000322_Node000091" class="edge">
<title>Node322&#45;&gt;Node91</title>
<g id="a_edge58_Node000322_Node000091"><a xlink:title=" ">
<path fill="none" stroke="#63b8ff" d="M416.1,-396.97C437.79,-402.15 463.75,-408.36 485.77,-413.62"/>
<polygon fill="#63b8ff" stroke="#63b8ff" points="484.87,-417 495.41,-415.92 486.5,-410.19 484.87,-417"/>
</a>
</g>
</g>
</g>
</svg>
