<?xml version="1.0" encoding="UTF-8" standalone="no"?>
<!DOCTYPE svg PUBLIC "-//W3C//DTD SVG 1.1//EN"
 "http://www.w3.org/Graphics/SVG/1.1/DTD/svg11.dtd">
<!-- Generated by graphviz version 13.1.2 (20250808.2320)
 -->
<!-- Title: kest_cxt_set_output_gain Pages: 1 -->
<svg width="547pt" height="29pt"
 viewBox="0.00 0.00 547.00 29.00" xmlns="http://www.w3.org/2000/svg" xmlns:xlink="http://www.w3.org/1999/xlink">
<g id="graph0" class="graph" transform="scale(1 1) rotate(0) translate(4 24.75)">
<title>kest_cxt_set_output_gain</title>
<!-- Node1 -->
<g id="Node000001" class="node">
<title>Node1</title>
<g id="a_Node000001"><a xlink:title=" ">
<polygon fill="#999999" stroke="#666666" points="538.75,-20.75 399,-20.75 399,0 538.75,0 538.75,-20.75"/>
<text xml:space="preserve" text-anchor="middle" x="468.88" y="-7.25" font-family="Helvetica,sans-Serif" font-size="10.00">kest_cxt_set_output_gain</text>
</a>
</g>
</g>
<!-- Node2 -->
<g id="Node000002" class="node">
<title>Node2</title>
<g id="a_Node000002"><a xlink:href="kest__state_8c.html#ab26da214ed0f9d143d63e80a7012796b" target="_top" xlink:title=" ">
<polygon fill="white" stroke="#666666" points="363,-20.75 236.75,-20.75 236.75,0 363,0 363,-20.75"/>
<text xml:space="preserve" text-anchor="middle" x="299.88" y="-7.25" font-family="Helvetica,sans-Serif" font-size="10.00">kest_cxt_restore_state</text>
</a>
</g>
</g>
<!-- Node1&#45;&gt;Node2 -->
<g id="edge1_Node000001_Node000002" class="edge">
<title>Node1&#45;&gt;Node2</title>
<g id="a_edge1_Node000001_Node000002"><a xlink:title=" ">
<path fill="none" stroke="#63b8ff" d="M387.22,-10.38C379.21,-10.38 371.15,-10.38 363.36,-10.38"/>
<polygon fill="#63b8ff" stroke="#63b8ff" points="386.99,-13.88 396.99,-10.38 386.99,-6.88 386.99,-13.88"/>
</a>
</g>
</g>
<!-- Node3 -->
<g id="Node000003" class="node">
<title>Node3</title>
<g id="a_Node000003"><a xlink:href="kest__init_8c.html#ad1373cd24ac2876b2830d1ad2eb92721" target="_top" xlink:title=" ">
<polygon fill="white" stroke="#666666" points="200.75,-20.75 143.5,-20.75 143.5,0 200.75,0 200.75,-20.75"/>
<text xml:space="preserve" text-anchor="middle" x="172.12" y="-7.25" font-family="Helvetica,sans-Serif" font-size="10.00">kest_init</text>
</a>
</g>
</g>
<!-- Node2&#45;&gt;Node3 -->
<g id="edge2_Node000002_Node000003" class="edge">
<title>Node2&#45;&gt;Node3</title>
<g id="a_edge2_Node000002_Node000003"><a xlink:title=" ">
<path fill="none" stroke="#63b8ff" d="M224.86,-10.38C216.51,-10.38 208.42,-10.38 201.22,-10.38"/>
<polygon fill="#63b8ff" stroke="#63b8ff" points="224.85,-13.88 234.85,-10.38 224.85,-6.88 224.85,-13.88"/>
</a>
</g>
</g>
<!-- Node4 -->
<g id="Node000004" class="node">
<title>Node4</title>
<g id="a_Node000004"><a xlink:href="kest__event_8c.html#ad7148b990af9fe15dae1b2093872732b" target="_top" xlink:title=" ">
<polygon fill="#fff0f0" stroke="red" points="107.5,-20.75 0,-20.75 0,0 107.5,0 107.5,-20.75"/>
<text xml:space="preserve" text-anchor="middle" x="53.75" y="-7.25" font-family="Helvetica,sans-Serif" font-size="10.00">kest_event_handle</text>
</a>
</g>
</g>
<!-- Node3&#45;&gt;Node4 -->
<g id="edge3_Node000003_Node000004" class="edge">
<title>Node3&#45;&gt;Node4</title>
<g id="a_edge3_Node000003_Node000004"><a xlink:title=" ">
<path fill="none" stroke="#63b8ff" d="M131.99,-10.38C124.26,-10.38 116.03,-10.38 107.93,-10.38"/>
<polygon fill="#63b8ff" stroke="#63b8ff" points="131.74,-13.88 141.74,-10.38 131.74,-6.88 131.74,-13.88"/>
</a>
</g>
</g>
</g>
</svg>
