<?xml version="1.0" encoding="UTF-8" standalone="no"?>
<!DOCTYPE svg PUBLIC "-//W3C//DTD SVG 1.1//EN"
 "http://www.w3.org/Graphics/SVG/1.1/DTD/svg11.dtd">
<!-- Generated by graphviz version 13.1.2 (20250808.2320)
 -->
<!-- Title: kest_string_init Pages: 1 -->
<!--zoomable 766 -->

<svg id="main" version="1.1" xmlns="http://www.w3.org/2000/svg" xmlns:xlink="http://www.w3.org/1999/xlink" xml:space="preserve" onload="init(evt)">

<style type="text/css"><![CDATA[
.node, .edge {opacity: 0.7;}
.node.selected, .edge.selected {opacity: 1;}
.edge:hover path { stroke: red; }
.edge:hover polygon { stroke: red; fill: red; }
]]></style>

<defs>
  <circle id="rim" cx="0" cy="0" r="7"/>
  <circle id="rim2" cx="0" cy="0" r="3.5"/>
  <g id="zoomPlus">
    <use xlink:href="#rim" fill="#404040"><set attributeName="fill" to="#808080" begin="zoomplus.mouseover" end="zoomplus.mouseout"/></use>
    <path d="M-4,0h8M0,-4v8" fill="none" stroke="white" stroke-width="1.5" pointer-events="none"/>
  </g>
  <g id="zoomMin">
    <use xlink:href="#rim" fill="#404040"><set attributeName="fill" to="#808080" begin="zoomminus.mouseover" end="zoomminus.mouseout"/></use>
    <path d="M-4,0h8" fill="none" stroke="white" stroke-width="1.5" pointer-events="none"/>
  </g>
  <g id="arrowUp" transform="translate(30 24)">
    <use xlink:href="#rim"/>
    <path pointer-events="none" fill="none" stroke="white" stroke-width="1.5" d="M0,-3.0v7 M-2.5,-0.5L0,-3.0L2.5,-0.5"/>
  </g>
  <g id="arrowRight" transform="rotate(90) translate(36 -43)">
    <use xlink:href="#rim"/>
    <path pointer-events="none" fill="none" stroke="white" stroke-width="1.5" d="M0,-3.0v7 M-2.5,-0.5L0,-3.0L2.5,-0.5"/>
  </g>
  <g id="arrowDown" transform="rotate(180) translate(-30 -48)">
    <use xlink:href="#rim"/>
    <path pointer-events="none" fill="none" stroke="white" stroke-width="1.5" d="M0,-3.0v7 M-2.5,-0.5L0,-3.0L2.5,-0.5"/>
  </g>
  <g id="arrowLeft" transform="rotate(270) translate(-36 17)">
    <use xlink:href="#rim"/>
    <path pointer-events="none" fill="none" stroke="white" stroke-width="1.5" d="M0,-3.0v7 M-2.5,-0.5L0,-3.0L2.5,-0.5"/>
  </g>
  <g id="resetDef">
    <use xlink:href="#rim2" fill="#404040"><set attributeName="fill" to="#808080" begin="reset.mouseover" end="reset.mouseout"/></use>
  </g>
</defs>
<script type="application/ecmascript">
var viewWidth = 1165;
var viewHeight = 766;
var sectionId = 'dynsection-11';
</script>
<script type="application/ecmascript" xlink:href="svg.min.js"/>
<svg id="graph" class="graph">
<g id="viewport">
<title>kest_string_init</title>
<!-- Node1 -->
<g id="Node000001" class="node">
<title>Node1</title>
<g id="a_Node000001"><a xlink:title=" ">
<polygon fill="#999999" stroke="#666666" points="1156.75,-323.12 1066.5,-323.12 1066.5,-302.38 1156.75,-302.38 1156.75,-323.12"/>
<text xml:space="preserve" text-anchor="middle" x="1111.62" y="-309.62" font-family="Helvetica,sans-Serif" font-size="10.00">kest_string_init</text>
</a>
</g>
</g>
<!-- Node2 -->
<g id="Node000002" class="node">
<title>Node2</title>
<g id="a_Node000002"><a xlink:href="kest__reg__format_8c.html#a29aa51e007e672b4a6d7b9a4b287754a" target="_top" xlink:title=" ">
<polygon fill="white" stroke="#666666" points="805.62,-524.5 678.62,-524.5 678.62,-491 805.62,-491 805.62,-524.5"/>
<text xml:space="preserve" text-anchor="start" x="686.62" y="-511" font-family="Helvetica,sans-Serif" font-size="10.00">kest_compute_register</text>
<text xml:space="preserve" text-anchor="middle" x="742.12" y="-498.25" font-family="Helvetica,sans-Serif" font-size="10.00">_formats</text>
</a>
</g>
</g>
<!-- Node1&#45;&gt;Node2 -->
<g id="edge1_Node000001_Node000002" class="edge">
<title>Node1&#45;&gt;Node2</title>
<g id="a_edge1_Node000001_Node000002"><a xlink:title=" ">
<path fill="none" stroke="#63b8ff" d="M1107.34,-334.4C1100.45,-371.52 1080.74,-446.7 1030.5,-481.75 964.66,-527.68 868.64,-526.3 806.03,-518.84"/>
<polygon fill="#63b8ff" stroke="#63b8ff" points="1110.73,-335.32 1108.96,-324.87 1103.83,-334.14 1110.73,-335.32"/>
</a>
</g>
</g>
<!-- Node23 -->
<g id="Node000023" class="node">
<title>Node23</title>
<g id="a_Node000023"><a xlink:href="kest__dictionary_8c.html#a298bc3ea15bffee0e485de36aea099c2" target="_top" xlink:title=" ">
<polygon fill="white" stroke="#666666" points="1000.5,-608.5 895.25,-608.5 895.25,-575 1000.5,-575 1000.5,-608.5"/>
<text xml:space="preserve" text-anchor="start" x="903.25" y="-595" font-family="Helvetica,sans-Serif" font-size="10.00">kest_dict_entry_to</text>
<text xml:space="preserve" text-anchor="middle" x="947.88" y="-582.25" font-family="Helvetica,sans-Serif" font-size="10.00">_string</text>
</a>
</g>
</g>
<!-- Node1&#45;&gt;Node23 -->
<g id="edge4_Node000001_Node000023" class="edge">
<title>Node1&#45;&gt;Node23</title>
<g id="a_edge4_Node000001_Node000023"><a xlink:title=" ">
<path fill="none" stroke="#63b8ff" d="M1109.67,-334.94C1106.45,-382.61 1092.33,-495.72 1030.5,-560.75 1022.46,-569.21 1011.87,-575.38 1000.99,-579.88"/>
<polygon fill="#63b8ff" stroke="#63b8ff" points="1113.16,-335.26 1110.23,-325.08 1106.17,-334.87 1113.16,-335.26"/>
</a>
</g>
</g>
<!-- Node32 -->
<g id="Node000032" class="node">
<title>Node32</title>
<g id="a_Node000032"><a xlink:href="kest__dictionary_8c.html#a2a60847422026db5eab8103cd8ea1dc5" target="_top" xlink:title=" ">
<polygon fill="white" stroke="#666666" points="773,-563.12 711.25,-563.12 711.25,-542.38 773,-542.38 773,-563.12"/>
<text xml:space="preserve" text-anchor="middle" x="742.12" y="-549.62" font-family="Helvetica,sans-Serif" font-size="10.00">print_dict</text>
</a>
</g>
</g>
<!-- Node1&#45;&gt;Node32 -->
<g id="edge56_Node000001_Node000032" class="edge">
<title>Node1&#45;&gt;Node32</title>
<g id="a_edge56_Node000001_Node000032"><a xlink:title=" ">
<path fill="none" stroke="#63b8ff" d="M1109.08,-334.65C1104.81,-377.31 1088.9,-471.37 1030.5,-516.75 954.07,-576.14 830.09,-566.57 773.29,-558.17"/>
<polygon fill="#63b8ff" stroke="#63b8ff" points="1112.55,-335.16 1109.92,-324.89 1105.58,-334.56 1112.55,-335.16"/>
</a>
</g>
</g>
<!-- Node33 -->
<g id="Node000033" class="node">
<title>Node33</title>
<g id="a_Node000033"><a xlink:href="kest__dictionary_8c.html#a5ce582ea788731db26f2c3625d8da175" target="_top" xlink:title=" ">
<polygon fill="white" stroke="#666666" points="796.62,-420.5 687.62,-420.5 687.62,-387 796.62,-387 796.62,-420.5"/>
<text xml:space="preserve" text-anchor="start" x="695.62" y="-407" font-family="Helvetica,sans-Serif" font-size="10.00">kest_eff_entry_dict</text>
<text xml:space="preserve" text-anchor="middle" x="742.12" y="-394.25" font-family="Helvetica,sans-Serif" font-size="10.00">_print</text>
</a>
</g>
</g>
<!-- Node1&#45;&gt;Node33 -->
<g id="edge16_Node000001_Node000033" class="edge">
<title>Node1&#45;&gt;Node33</title>
<g id="a_edge16_Node000001_Node000033"><a xlink:title=" ">
<path fill="none" stroke="#63b8ff" d="M1096.54,-332.5C1082.23,-350.76 1058.28,-376.82 1030.5,-388.75 954.52,-421.37 856.68,-418.08 796.99,-411.68"/>
<polygon fill="#63b8ff" stroke="#63b8ff" points="1099.15,-334.84 1102.37,-324.74 1093.56,-330.63 1099.15,-334.84"/>
</a>
</g>
</g>
<!-- Node35 -->
<g id="Node000035" class="node">
<title>Node35</title>
<g id="a_Node000035"><a xlink:href="kest__dictionary_8c.html#a8728d44497a76103a6efaf25ca021e9e" target="_top" xlink:title=" ">
<polygon fill="white" stroke="#666666" points="1014.75,-362.12 881,-362.12 881,-341.38 1014.75,-341.38 1014.75,-362.12"/>
<text xml:space="preserve" text-anchor="middle" x="947.88" y="-348.62" font-family="Helvetica,sans-Serif" font-size="10.00">kest_eff_entry_to_string</text>
</a>
</g>
</g>
<!-- Node1&#45;&gt;Node35 -->
<g id="edge20_Node000001_Node000035" class="edge">
<title>Node1&#45;&gt;Node35</title>
<g id="a_edge20_Node000001_Node000035"><a xlink:title=" ">
<path fill="none" stroke="#63b8ff" d="M1055.26,-326.1C1035.24,-330.93 1012.89,-336.32 993.86,-340.9"/>
<polygon fill="#63b8ff" stroke="#63b8ff" points="1056.05,-329.51 1064.95,-323.76 1054.41,-322.7 1056.05,-329.51"/>
</a>
</g>
</g>
<!-- Node39 -->
<g id="Node000039" class="node">
<title>Node39</title>
<g id="a_Node000039"><a xlink:href="kest__fixed__point_8c.html#aadbad80611ec55e1e488a3740c578c8b" target="_top" xlink:title=" ">
<polygon fill="white" stroke="#666666" points="1019.25,-472.5 876.5,-472.5 876.5,-439 1019.25,-439 1019.25,-472.5"/>
<text xml:space="preserve" text-anchor="start" x="884.5" y="-459" font-family="Helvetica,sans-Serif" font-size="10.00">kest_expression_compute</text>
<text xml:space="preserve" text-anchor="middle" x="947.88" y="-446.25" font-family="Helvetica,sans-Serif" font-size="10.00">_format</text>
</a>
</g>
</g>
<!-- Node1&#45;&gt;Node39 -->
<g id="edge29_Node000001_Node000039" class="edge">
<title>Node1&#45;&gt;Node39</title>
<g id="a_edge29_Node000001_Node000039"><a xlink:title=" ">
<path fill="none" stroke="#63b8ff" d="M1099.99,-333.42C1086.67,-357.54 1061.73,-397.22 1030.5,-421.75 1021.93,-428.48 1011.83,-434.1 1001.72,-438.69"/>
<polygon fill="#63b8ff" stroke="#63b8ff" points="1102.93,-335.35 1104.57,-324.88 1096.76,-332.05 1102.93,-335.35"/>
</a>
</g>
</g>
<!-- Node41 -->
<g id="Node000041" class="node">
<title>Node41</title>
<g id="a_Node000041"><a xlink:href="kest__fpga__encoding_8c.html#a846915834c09759d6445b5dffc45b723" target="_top" xlink:title=" ">
<polygon fill="white" stroke="#666666" points="1009.5,-323.12 886.25,-323.12 886.25,-302.38 1009.5,-302.38 1009.5,-323.12"/>
<text xml:space="preserve" text-anchor="middle" x="947.88" y="-309.62" font-family="Helvetica,sans-Serif" font-size="10.00">kest_fpga_batch_print</text>
</a>
</g>
</g>
<!-- Node1&#45;&gt;Node41 -->
<g id="edge33_Node000001_Node000041" class="edge">
<title>Node1&#45;&gt;Node41</title>
<g id="a_edge33_Node000001_Node000041"><a xlink:title=" ">
<path fill="none" stroke="#63b8ff" d="M1055.07,-312.75C1040.54,-312.75 1024.8,-312.75 1010,-312.75"/>
<polygon fill="#63b8ff" stroke="#63b8ff" points="1054.91,-316.25 1064.91,-312.75 1054.91,-309.25 1054.91,-316.25"/>
</a>
</g>
</g>
<!-- Node46 -->
<g id="Node000046" class="node">
<title>Node46</title>
<g id="a_Node000046"><a xlink:href="kest__fpga__comms_8c.html#ad4528074bfb87a4810b6f01a9df53605" target="_top" xlink:title=" ">
<polygon fill="white" stroke="#666666" points="1030.5,-284.12 865.25,-284.12 865.25,-263.38 1030.5,-263.38 1030.5,-284.12"/>
<text xml:space="preserve" text-anchor="middle" x="947.88" y="-270.62" font-family="Helvetica,sans-Serif" font-size="10.00">kest_fpga_print_command_log</text>
</a>
</g>
</g>
<!-- Node1&#45;&gt;Node46 -->
<g id="edge40_Node000001_Node000046" class="edge">
<title>Node1&#45;&gt;Node46</title>
<g id="a_edge40_Node000001_Node000046"><a xlink:title=" ">
<path fill="none" stroke="#63b8ff" d="M1055.26,-299.4C1035.24,-294.57 1012.89,-289.18 993.86,-284.6"/>
<polygon fill="#63b8ff" stroke="#63b8ff" points="1054.41,-302.8 1064.95,-301.74 1056.05,-295.99 1054.41,-302.8"/>
</a>
</g>
</g>
<!-- Node49 -->
<g id="Node000049" class="node">
<title>Node49</title>
<g id="a_Node000049"><a xlink:href="kest__fpga__io_8c.html#afff0ef19687a88fbb1505151ad4b041d" target="_top" xlink:title=" ">
<polygon fill="white" stroke="#666666" points="1011.75,-245.5 884,-245.5 884,-212 1011.75,-212 1011.75,-245.5"/>
<text xml:space="preserve" text-anchor="start" x="892" y="-232" font-family="Helvetica,sans-Serif" font-size="10.00">kest_fpga_status_flags</text>
<text xml:space="preserve" text-anchor="middle" x="947.88" y="-219.25" font-family="Helvetica,sans-Serif" font-size="10.00">_print</text>
</a>
</g>
</g>
<!-- Node1&#45;&gt;Node49 -->
<g id="edge44_Node000001_Node000049" class="edge">
<title>Node1&#45;&gt;Node49</title>
<g id="a_edge44_Node000001_Node000049"><a xlink:title=" ">
<path fill="none" stroke="#63b8ff" d="M1089.66,-294.7C1074.16,-282.1 1052.08,-265.64 1030.5,-254.75 1024.13,-251.53 1017.27,-248.61 1010.35,-245.98"/>
<polygon fill="#63b8ff" stroke="#63b8ff" points="1087.31,-297.3 1097.23,-301 1091.78,-291.91 1087.31,-297.3"/>
</a>
</g>
</g>
<!-- Node50 -->
<g id="Node000050" class="node">
<title>Node50</title>
<g id="a_Node000050"><a xlink:href="kest__expr__scope_8c.html#ac44f26a1dd7c685a7a3d5423a6c1ff54" target="_top" xlink:title=" ">
<polygon fill="white" stroke="#666666" points="1024.12,-175.5 871.62,-175.5 871.62,-142 1024.12,-142 1024.12,-175.5"/>
<text xml:space="preserve" text-anchor="start" x="879.62" y="-162" font-family="Helvetica,sans-Serif" font-size="10.00">kest_scope_transitivize</text>
<text xml:space="preserve" text-anchor="middle" x="947.88" y="-149.25" font-family="Helvetica,sans-Serif" font-size="10.00">_updatable_dependents_rec</text>
</a>
</g>
</g>
<!-- Node1&#45;&gt;Node50 -->
<g id="edge46_Node000001_Node000050" class="edge">
<title>Node1&#45;&gt;Node50</title>
<g id="a_edge46_Node000001_Node000050"><a xlink:title=" ">
<path fill="none" stroke="#63b8ff" d="M1099.6,-292.41C1085.89,-268.59 1060.59,-229.03 1030.5,-202.75 1018.25,-192.06 1002.96,-182.95 988.94,-175.85"/>
<polygon fill="#63b8ff" stroke="#63b8ff" points="1096.37,-293.82 1104.32,-300.83 1102.48,-290.4 1096.37,-293.82"/>
</a>
</g>
</g>
<!-- Node61 -->
<g id="Node000061" class="node">
<title>Node61</title>
<g id="a_Node000061"><a xlink:href="kest__string_8c.html#a1e3414d3bea5e036ae3764f8a90748ea" target="_top" xlink:title=" ">
<polygon fill="white" stroke="#666666" points="1016.25,-124.12 879.5,-124.12 879.5,-103.38 1016.25,-103.38 1016.25,-124.12"/>
<text xml:space="preserve" text-anchor="middle" x="947.88" y="-110.62" font-family="Helvetica,sans-Serif" font-size="10.00">kest_string_init_from_str</text>
</a>
</g>
</g>
<!-- Node1&#45;&gt;Node61 -->
<g id="edge50_Node000001_Node000061" class="edge">
<title>Node1&#45;&gt;Node61</title>
<g id="a_edge50_Node000001_Node000061"><a xlink:title=" ">
<path fill="none" stroke="#63b8ff" d="M1107.34,-291.02C1100.38,-252.88 1080.5,-174.04 1030.5,-132.75 1026.24,-129.23 1021.44,-126.33 1016.36,-123.96"/>
<polygon fill="#63b8ff" stroke="#63b8ff" points="1103.87,-291.5 1108.98,-300.79 1110.77,-290.35 1103.87,-291.5"/>
</a>
</g>
</g>
<!-- Node62 -->
<g id="Node000062" class="node">
<title>Node62</title>
<g id="a_Node000062"><a xlink:href="kest__update_8c.html#a8f65010d84004b5af5631ec324017e65" target="_top" xlink:title=" ">
<polygon fill="white" stroke="#666666" points="1006.5,-85.5 889.25,-85.5 889.25,-52 1006.5,-52 1006.5,-85.5"/>
<text xml:space="preserve" text-anchor="start" x="897.25" y="-72" font-family="Helvetica,sans-Serif" font-size="10.00">kest_updater_handle</text>
<text xml:space="preserve" text-anchor="middle" x="947.88" y="-59.25" font-family="Helvetica,sans-Serif" font-size="10.00">_update</text>
</a>
</g>
</g>
<!-- Node1&#45;&gt;Node62 -->
<g id="edge51_Node000001_Node000062" class="edge">
<title>Node1&#45;&gt;Node62</title>
<g id="a_edge51_Node000001_Node000062"><a xlink:title=" ">
<path fill="none" stroke="#63b8ff" d="M1108.8,-290.62C1104.02,-246.92 1087.24,-149.05 1030.5,-94.75 1023.84,-88.37 1015.62,-83.56 1006.98,-79.93"/>
<polygon fill="#63b8ff" stroke="#63b8ff" points="1105.3,-290.77 1109.75,-300.38 1112.27,-290.09 1105.3,-290.77"/>
</a>
</g>
</g>
<!-- Node65 -->
<g id="Node000065" class="node">
<title>Node65</title>
<g id="a_Node000065"><a xlink:href="kest__update_8c.html#abbdab64ee10309f1d032de20c5088114" target="_top" xlink:title=" ">
<polygon fill="white" stroke="#666666" points="1001.25,-33.5 894.5,-33.5 894.5,0 1001.25,0 1001.25,-33.5"/>
<text xml:space="preserve" text-anchor="start" x="902.5" y="-20" font-family="Helvetica,sans-Serif" font-size="10.00">kest_updater_print</text>
<text xml:space="preserve" text-anchor="middle" x="947.88" y="-7.25" font-family="Helvetica,sans-Serif" font-size="10.00">_command_list</text>
</a>
</g>
</g>
<!-- Node1&#45;&gt;Node65 -->
<g id="edge54_Node000001_Node000065" class="edge">
<title>Node1&#45;&gt;Node65</title>
<g id="a_edge54_Node000001_Node000065"><a xlink:title=" ">
<path fill="none" stroke="#63b8ff" d="M1110.65,-290.76C1109.5,-239.89 1099.45,-113.08 1030.5,-42.75 1022.59,-34.68 1012.18,-29.11 1001.45,-25.26"/>
<polygon fill="#63b8ff" stroke="#63b8ff" points="1107.15,-290.51 1110.77,-300.46 1114.15,-290.42 1107.15,-290.51"/>
</a>
</g>
</g>
<!-- Node3 -->
<g id="Node000003" class="node">
<title>Node3</title>
<g id="a_Node000003"><a xlink:href="kest__eff__parser_8c.html#a745050bced3ccd568a1223c9f6a416e0" target="_top" xlink:title=" ">
<polygon fill="white" stroke="#666666" points="601.38,-472.5 481.12,-472.5 481.12,-439 601.38,-439 601.38,-472.5"/>
<text xml:space="preserve" text-anchor="start" x="489.12" y="-459" font-family="Helvetica,sans-Serif" font-size="10.00">kest_parser_compute</text>
<text xml:space="preserve" text-anchor="middle" x="541.25" y="-446.25" font-family="Helvetica,sans-Serif" font-size="10.00">_formats</text>
</a>
</g>
</g>
<!-- Node2&#45;&gt;Node3 -->
<g id="edge2_Node000002_Node000003" class="edge">
<title>Node2&#45;&gt;Node3</title>
<g id="a_edge2_Node000002_Node000003"><a xlink:title=" ">
<path fill="none" stroke="#63b8ff" d="M667.1,-488.4C645.54,-482.76 622.26,-476.67 601.72,-471.3"/>
<polygon fill="#63b8ff" stroke="#63b8ff" points="666.18,-491.77 676.74,-490.91 667.95,-485 666.18,-491.77"/>
</a>
</g>
</g>
<!-- Node4 -->
<g id="Node000004" class="node">
<title>Node4</title>
<g id="a_Node000004"><a xlink:href="kest__eff__parser_8c.html#ae4618958c44389928c260fdb0e170761" target="_top" xlink:title=" ">
<polygon fill="#fff0f0" stroke="red" points="109.75,-446.5 0,-446.5 0,-413 109.75,-413 109.75,-446.5"/>
<text xml:space="preserve" text-anchor="start" x="8" y="-433" font-family="Helvetica,sans-Serif" font-size="10.00">kest_read_eff_desc</text>
<text xml:space="preserve" text-anchor="middle" x="54.88" y="-420.25" font-family="Helvetica,sans-Serif" font-size="10.00">_from_file</text>
</a>
</g>
</g>
<!-- Node3&#45;&gt;Node4 -->
<g id="edge3_Node000003_Node000004" class="edge">
<title>Node3&#45;&gt;Node4</title>
<g id="a_edge3_Node000003_Node000004"><a xlink:title=" ">
<path fill="none" stroke="#63b8ff" d="M469.64,-451.96C372.09,-446.72 198.2,-437.39 110.16,-432.66"/>
<polygon fill="#63b8ff" stroke="#63b8ff" points="469.17,-455.44 479.34,-452.48 469.55,-448.45 469.17,-455.44"/>
</a>
</g>
</g>
<!-- Node23&#45;&gt;Node23 -->
<g id="edge5_Node000023_Node000023" class="edge">
<title>Node23&#45;&gt;Node23</title>
<g id="a_edge5_Node000023_Node000023"><a xlink:title=" ">
<path fill="none" stroke="#63b8ff" d="M975.37,-619.89C970.89,-623.85 961.73,-626.5 947.88,-626.5 923.25,-626.5 913.44,-618.12 918.44,-608.91"/>
<polygon fill="#63b8ff" stroke="#63b8ff" points="978.75,-620.86 977.05,-610.4 971.86,-619.64 978.75,-620.86"/>
</a>
</g>
</g>
<!-- Node24 -->
<g id="Node000024" class="node">
<title>Node24</title>
<g id="a_Node000024"><a xlink:href="kest__dict__extract_8c.html#ac9cee86a595df863e15b7693b86635b7" target="_top" xlink:title=" ">
<polygon fill="white" stroke="#666666" points="794.38,-698.5 689.88,-698.5 689.88,-665 794.38,-665 794.38,-698.5"/>
<text xml:space="preserve" text-anchor="start" x="697.88" y="-685" font-family="Helvetica,sans-Serif" font-size="10.00">kest_extract_filter</text>
<text xml:space="preserve" text-anchor="middle" x="742.12" y="-672.25" font-family="Helvetica,sans-Serif" font-size="10.00">_coefs_from_dict</text>
</a>
</g>
</g>
<!-- Node23&#45;&gt;Node24 -->
<g id="edge6_Node000023_Node000024" class="edge">
<title>Node23&#45;&gt;Node24</title>
<g id="a_edge6_Node000023_Node000024"><a xlink:title=" ">
<path fill="none" stroke="#63b8ff" d="M897.62,-613.53C876.56,-622.85 851.7,-633.83 829.25,-643.75 813.85,-650.55 796.9,-658.03 782.14,-664.54"/>
<polygon fill="#63b8ff" stroke="#63b8ff" points="898.82,-616.83 906.55,-609.58 895.99,-610.43 898.82,-616.83"/>
</a>
</g>
</g>
<!-- Node28 -->
<g id="Node000028" class="node">
<title>Node28</title>
<g id="a_Node000028"><a xlink:href="kest__dictionary_8c.html#a8db4f9c511b00d7240052135e9c1ed67" target="_top" xlink:title=" ">
<polygon fill="white" stroke="#666666" points="798.12,-602.12 686.12,-602.12 686.12,-581.38 798.12,-581.38 798.12,-602.12"/>
<text xml:space="preserve" text-anchor="middle" x="742.12" y="-588.62" font-family="Helvetica,sans-Serif" font-size="10.00">kest_parse_dict_list</text>
</a>
</g>
</g>
<!-- Node23&#45;&gt;Node28 -->
<g id="edge10_Node000023_Node000028" class="edge">
<title>Node23&#45;&gt;Node28</title>
<g id="a_edge10_Node000023_Node000028"><a xlink:title=" ">
<path fill="none" stroke="#63b8ff" d="M883.56,-591.75C856.34,-591.75 824.82,-591.75 798.54,-591.75"/>
<polygon fill="#63b8ff" stroke="#63b8ff" points="883.42,-595.25 893.42,-591.75 883.42,-588.25 883.42,-595.25"/>
</a>
</g>
</g>
<!-- Node29 -->
<g id="Node000029" class="node">
<title>Node29</title>
<g id="a_Node000029"><a xlink:href="kest__dictionary_8c.html#af0aceaa93cba06fd44ad4bc50f2418e4" target="_top" xlink:title=" ">
<polygon fill="#fff0f0" stroke="red" points="597.25,-602.12 485.25,-602.12 485.25,-581.38 597.25,-581.38 597.25,-602.12"/>
<text xml:space="preserve" text-anchor="middle" x="541.25" y="-588.62" font-family="Helvetica,sans-Serif" font-size="10.00">kest_parse_dict_val</text>
</a>
</g>
</g>
<!-- Node23&#45;&gt;Node29 -->
<g id="edge13_Node000023_Node000029" class="edge">
<title>Node23&#45;&gt;Node29</title>
<g id="a_edge13_Node000023_Node000029"><a xlink:title=" ">
<path fill="none" stroke="#63b8ff" d="M883.7,-603.86C866.13,-606.71 847.01,-609.32 829.25,-610.75 752.05,-616.94 732.17,-617.21 655,-610.75 635.52,-609.12 614.33,-605.93 595.64,-602.62"/>
<polygon fill="#63b8ff" stroke="#63b8ff" points="884.2,-607.33 893.49,-602.22 883.04,-600.42 884.2,-607.33"/>
</a>
</g>
</g>
<!-- Node23&#45;&gt;Node32 -->
<g id="edge14_Node000023_Node000032" class="edge">
<title>Node23&#45;&gt;Node32</title>
<g id="a_edge14_Node000023_Node000032"><a xlink:title=" ">
<path fill="none" stroke="#63b8ff" d="M883.82,-579.68C847.1,-572.65 802.46,-564.11 773.45,-558.56"/>
<polygon fill="#63b8ff" stroke="#63b8ff" points="882.97,-583.08 893.45,-581.52 884.28,-576.21 882.97,-583.08"/>
</a>
</g>
</g>
<!-- Node25 -->
<g id="Node000025" class="node">
<title>Node25</title>
<g id="a_Node000025"><a xlink:href="kest__dict__extract_8c.html#ab7acbd0287c39e5bbb08575fa2a61291" target="_top" xlink:title=" ">
<polygon fill="#fff0f0" stroke="red" points="598.38,-757.5 484.12,-757.5 484.12,-724 598.38,-724 598.38,-757.5"/>
<text xml:space="preserve" text-anchor="start" x="492.12" y="-744" font-family="Helvetica,sans-Serif" font-size="10.00">kest_extract_biquad</text>
<text xml:space="preserve" text-anchor="middle" x="541.25" y="-731.25" font-family="Helvetica,sans-Serif" font-size="10.00">_from_dict</text>
</a>
</g>
</g>
<!-- Node24&#45;&gt;Node25 -->
<g id="edge7_Node000024_Node000025" class="edge">
<title>Node24&#45;&gt;Node25</title>
<g id="a_edge7_Node000024_Node000025"><a xlink:title=" ">
<path fill="none" stroke="#63b8ff" d="M678.67,-700.28C653.03,-707.88 623.58,-716.62 598.61,-724.03"/>
<polygon fill="#63b8ff" stroke="#63b8ff" points="679.35,-703.73 687.94,-697.53 677.36,-697.02 679.35,-703.73"/>
</a>
</g>
</g>
<!-- Node26 -->
<g id="Node000026" class="node">
<title>Node26</title>
<g id="a_Node000026"><a xlink:href="kest__dict__extract_8c.html#a449de50461a34d20bba301a90a39ec05" target="_top" xlink:title=" ">
<polygon fill="#fff0f0" stroke="red" points="593.5,-705.5 489,-705.5 489,-672 593.5,-672 593.5,-705.5"/>
<text xml:space="preserve" text-anchor="start" x="497" y="-692" font-family="Helvetica,sans-Serif" font-size="10.00">kest_extract_filter</text>
<text xml:space="preserve" text-anchor="middle" x="541.25" y="-679.25" font-family="Helvetica,sans-Serif" font-size="10.00">_from_dict</text>
</a>
</g>
</g>
<!-- Node24&#45;&gt;Node26 -->
<g id="edge8_Node000024_Node000026" class="edge">
<title>Node24&#45;&gt;Node26</title>
<g id="a_edge8_Node000024_Node000026"><a xlink:title=" ">
<path fill="none" stroke="#63b8ff" d="M678.03,-683.97C650.85,-684.93 619.47,-686.03 593.72,-686.94"/>
<polygon fill="#63b8ff" stroke="#63b8ff" points="678.01,-687.47 687.88,-683.62 677.76,-680.48 678.01,-687.47"/>
</a>
</g>
</g>
<!-- Node27 -->
<g id="Node000027" class="node">
<title>Node27</title>
<g id="a_Node000027"><a xlink:href="kest__dict__extract_8c.html#a5cdad622cac403efa9954b47c588ce90" target="_top" xlink:title=" ">
<polygon fill="#fff0f0" stroke="red" points="609.25,-653.5 473.25,-653.5 473.25,-620 609.25,-620 609.25,-653.5"/>
<text xml:space="preserve" text-anchor="start" x="481.25" y="-640" font-family="Helvetica,sans-Serif" font-size="10.00">kest_extract_polynomial</text>
<text xml:space="preserve" text-anchor="middle" x="541.25" y="-627.25" font-family="Helvetica,sans-Serif" font-size="10.00">_from_dict</text>
</a>
</g>
</g>
<!-- Node24&#45;&gt;Node27 -->
<g id="edge9_Node000024_Node000027" class="edge">
<title>Node24&#45;&gt;Node27</title>
<g id="a_edge9_Node000024_Node000027"><a xlink:title=" ">
<path fill="none" stroke="#63b8ff" d="M678.22,-667.52C656.33,-662.56 631.7,-656.99 609.47,-651.96"/>
<polygon fill="#63b8ff" stroke="#63b8ff" points="677.39,-670.92 687.92,-669.71 678.93,-664.09 677.39,-670.92"/>
</a>
</g>
</g>
<!-- Node28&#45;&gt;Node29 -->
<g id="edge11_Node000028_Node000029" class="edge">
<title>Node28&#45;&gt;Node29</title>
<g id="a_edge11_Node000028_Node000029"><a xlink:title=" ">
<path fill="none" stroke="#63b8ff" d="M674.51,-585.34C649.57,-584.81 621.52,-584.9 597.7,-585.63"/>
<polygon fill="#63b8ff" stroke="#63b8ff" points="674.13,-588.83 684.21,-585.59 674.31,-581.83 674.13,-588.83"/>
</a>
</g>
</g>
<!-- Node29&#45;&gt;Node28 -->
<g id="edge12_Node000029_Node000028" class="edge">
<title>Node29&#45;&gt;Node28</title>
<g id="a_edge12_Node000029_Node000028"><a xlink:title=" ">
<path fill="none" stroke="#63b8ff" d="M608.91,-598.16C633.86,-598.69 661.91,-598.6 685.73,-597.87"/>
<polygon fill="#63b8ff" stroke="#63b8ff" points="609.29,-594.67 599.21,-597.91 609.12,-601.67 609.29,-594.67"/>
</a>
</g>
</g>
<!-- Node31 -->
<g id="Node000031" class="node">
<title>Node31</title>
<g id="a_Node000031"><a xlink:href="kest__eff__section_8c.html#a4de28fb64398c9194136a2ced71e2795" target="_top" xlink:title=" ">
<polygon fill="white" stroke="#666666" points="602.5,-563.5 480,-563.5 480,-530 602.5,-530 602.5,-563.5"/>
<text xml:space="preserve" text-anchor="start" x="488" y="-550" font-family="Helvetica,sans-Serif" font-size="10.00">kest_parse_dictionary</text>
<text xml:space="preserve" text-anchor="middle" x="541.25" y="-537.25" font-family="Helvetica,sans-Serif" font-size="10.00">_section</text>
</a>
</g>
</g>
<!-- Node32&#45;&gt;Node31 -->
<g id="edge15_Node000032_Node000031" class="edge">
<title>Node32&#45;&gt;Node31</title>
<g id="a_edge15_Node000032_Node000031"><a xlink:title=" ">
<path fill="none" stroke="#63b8ff" d="M699.54,-551.5C671.54,-550.65 634.15,-549.52 602.85,-548.58"/>
<polygon fill="#63b8ff" stroke="#63b8ff" points="699.31,-554.99 709.41,-551.79 699.52,-547.99 699.31,-554.99"/>
</a>
</g>
</g>
<!-- Node34 -->
<g id="Node000034" class="node">
<title>Node34</title>
<g id="a_Node000034"><a xlink:href="kest__eff__section_8c.html#ad4021e5516f9b19f0af658e1c5ee351f" target="_top" xlink:title=" ">
<polygon fill="white" stroke="#666666" points="427.5,-417.12 287.75,-417.12 287.75,-396.38 427.5,-396.38 427.5,-417.12"/>
<text xml:space="preserve" text-anchor="middle" x="357.62" y="-403.62" font-family="Helvetica,sans-Serif" font-size="10.00">kest_parse_entry_section</text>
</a>
</g>
</g>
<!-- Node33&#45;&gt;Node34 -->
<g id="edge17_Node000033_Node000034" class="edge">
<title>Node33&#45;&gt;Node34</title>
<g id="a_edge17_Node000033_Node000034"><a xlink:title=" ">
<path fill="none" stroke="#63b8ff" d="M675.99,-404.26C606.97,-404.8 498.42,-405.65 427.88,-406.21"/>
<polygon fill="#63b8ff" stroke="#63b8ff" points="675.65,-407.76 685.62,-404.19 675.59,-400.76 675.65,-407.76"/>
</a>
</g>
</g>
<!-- Node17 -->
<g id="Node000017" class="node">
<title>Node17</title>
<g id="a_Node000017"><a xlink:href="kest__eff__parser_8c.html#a73ef6962d1925857ec3e4b12d1aad834" target="_top" xlink:title=" ">
<polygon fill="white" stroke="#666666" points="251.75,-421.12 145.75,-421.12 145.75,-400.38 251.75,-400.38 251.75,-421.12"/>
<text xml:space="preserve" text-anchor="middle" x="198.75" y="-407.62" font-family="Helvetica,sans-Serif" font-size="10.00">kest_parse_tokens</text>
</a>
</g>
</g>
<!-- Node34&#45;&gt;Node17 -->
<g id="edge18_Node000034_Node000017" class="edge">
<title>Node34&#45;&gt;Node17</title>
<g id="a_edge18_Node000034_Node000017"><a xlink:title=" ">
<path fill="none" stroke="#63b8ff" d="M275.95,-408.81C267.87,-409.01 259.82,-409.22 252.15,-409.41"/>
<polygon fill="#63b8ff" stroke="#63b8ff" points="275.94,-412.31 285.85,-408.55 275.76,-405.31 275.94,-412.31"/>
</a>
</g>
</g>
<!-- Node17&#45;&gt;Node4 -->
<g id="edge19_Node000017_Node000004" class="edge">
<title>Node17&#45;&gt;Node4</title>
<g id="a_edge19_Node000017_Node000004"><a xlink:title=" ">
<path fill="none" stroke="#63b8ff" d="M134.08,-419.28C126.03,-420.35 117.86,-421.45 109.98,-422.5"/>
<polygon fill="#63b8ff" stroke="#63b8ff" points="134.38,-422.77 143.82,-417.97 133.45,-415.83 134.38,-422.77"/>
</a>
</g>
</g>
<!-- Node35&#45;&gt;Node33 -->
<g id="edge21_Node000035_Node000033" class="edge">
<title>Node35&#45;&gt;Node33</title>
<g id="a_edge21_Node000035_Node000033"><a xlink:title=" ">
<path fill="none" stroke="#63b8ff" d="M893.63,-365.34C863.84,-372.94 826.81,-382.39 796.93,-390.02"/>
<polygon fill="#63b8ff" stroke="#63b8ff" points="894.37,-368.76 903.19,-362.9 892.64,-361.98 894.37,-368.76"/>
</a>
</g>
</g>
<!-- Node35&#45;&gt;Node35 -->
<g id="edge22_Node000035_Node000035" class="edge">
<title>Node35&#45;&gt;Node35</title>
<g id="a_edge22_Node000035_Node000035"><a xlink:title=" ">
<path fill="none" stroke="#63b8ff" d="M976.69,-373.61C972.87,-377.45 963.27,-380.12 947.88,-380.12 919.73,-380.12 910.94,-371.18 921.49,-362.52"/>
<polygon fill="#63b8ff" stroke="#63b8ff" points="980.14,-373.02 974.58,-364 973.3,-374.52 980.14,-373.02"/>
</a>
</g>
</g>
<!-- Node36 -->
<g id="Node000036" class="node">
<title>Node36</title>
<g id="a_Node000036"><a xlink:href="kest__dictionary_8c.html#a14917e2fe112ccf5a9d740cd2ce4f518" target="_top" xlink:title=" ">
<polygon fill="white" stroke="#666666" points="801.12,-369.12 683.12,-369.12 683.12,-348.38 801.12,-348.38 801.12,-369.12"/>
<text xml:space="preserve" text-anchor="middle" x="742.12" y="-355.62" font-family="Helvetica,sans-Serif" font-size="10.00">kest_parse_eff_entry</text>
</a>
</g>
</g>
<!-- Node35&#45;&gt;Node36 -->
<g id="edge23_Node000035_Node000036" class="edge">
<title>Node35&#45;&gt;Node36</title>
<g id="a_edge23_Node000035_Node000036"><a xlink:title=" ">
<path fill="none" stroke="#63b8ff" d="M869.45,-354.41C846.87,-355.19 822.58,-356.02 801.4,-356.75"/>
<polygon fill="#63b8ff" stroke="#63b8ff" points="869.34,-357.92 879.21,-354.07 869.1,-350.92 869.34,-357.92"/>
</a>
</g>
</g>
<!-- Node37 -->
<g id="Node000037" class="node">
<title>Node37</title>
<g id="a_Node000037"><a xlink:href="kest__dictionary_8c.html#ad65da740536ab47c17ff688051be0661" target="_top" xlink:title=" ">
<polygon fill="white" stroke="#666666" points="604.38,-379.12 478.12,-379.12 478.12,-358.38 604.38,-358.38 604.38,-379.12"/>
<text xml:space="preserve" text-anchor="middle" x="541.25" y="-365.62" font-family="Helvetica,sans-Serif" font-size="10.00">kest_parse_eff_entries</text>
</a>
</g>
</g>
<!-- Node36&#45;&gt;Node37 -->
<g id="edge24_Node000036_Node000037" class="edge">
<title>Node36&#45;&gt;Node37</title>
<g id="a_edge24_Node000036_Node000037"><a xlink:title=" ">
<path fill="none" stroke="#63b8ff" d="M671.34,-355.78C649.65,-356.46 625.89,-357.71 604.74,-359.29"/>
<polygon fill="#63b8ff" stroke="#63b8ff" points="671.38,-359.28 681.29,-355.51 671.2,-352.29 671.38,-359.28"/>
</a>
</g>
</g>
<!-- Node38 -->
<g id="Node000038" class="node">
<title>Node38</title>
<g id="a_Node000038"><a xlink:href="kest__dictionary_8c.html#adbdc0847f0c5b25d81691833ad42a8f0" target="_top" xlink:title=" ">
<polygon fill="white" stroke="#666666" points="595,-340.12 487.5,-340.12 487.5,-319.38 595,-319.38 595,-340.12"/>
<text xml:space="preserve" text-anchor="middle" x="541.25" y="-326.62" font-family="Helvetica,sans-Serif" font-size="10.00">kest_parse_eff_list</text>
</a>
</g>
</g>
<!-- Node36&#45;&gt;Node38 -->
<g id="edge27_Node000036_Node000038" class="edge">
<title>Node36&#45;&gt;Node38</title>
<g id="a_edge27_Node000036_Node000038"><a xlink:title=" ">
<path fill="none" stroke="#63b8ff" d="M692.46,-345.76C663.01,-340.38 625.45,-334.85 595.25,-331.43"/>
<polygon fill="#63b8ff" stroke="#63b8ff" points="691.75,-349.18 702.23,-347.6 693.05,-342.31 691.75,-349.18"/>
</a>
</g>
</g>
<!-- Node37&#45;&gt;Node34 -->
<g id="edge26_Node000037_Node000034" class="edge">
<title>Node37&#45;&gt;Node34</title>
<g id="a_edge26_Node000037_Node000034"><a xlink:title=" ">
<path fill="none" stroke="#63b8ff" d="M477.48,-381.88C455.56,-386.47 431.23,-391.56 410.31,-395.94"/>
<polygon fill="#63b8ff" stroke="#63b8ff" points="478.14,-385.32 487.21,-379.85 476.7,-378.47 478.14,-385.32"/>
</a>
</g>
</g>
<!-- Node37&#45;&gt;Node36 -->
<g id="edge25_Node000037_Node000036" class="edge">
<title>Node37&#45;&gt;Node36</title>
<g id="a_edge25_Node000037_Node000036"><a xlink:title=" ">
<path fill="none" stroke="#63b8ff" d="M616.07,-371.59C638.09,-370.83 661.91,-369.52 682.8,-367.89"/>
<polygon fill="#63b8ff" stroke="#63b8ff" points="616.14,-368.08 606.25,-371.88 616.35,-375.08 616.14,-368.08"/>
</a>
</g>
</g>
<!-- Node38&#45;&gt;Node36 -->
<g id="edge28_Node000038_Node000036" class="edge">
<title>Node38&#45;&gt;Node36</title>
<g id="a_edge28_Node000038_Node000036"><a xlink:title=" ">
<path fill="none" stroke="#63b8ff" d="M590.6,-342.69C618.39,-347.77 653.49,-353 682.8,-356.45"/>
<polygon fill="#63b8ff" stroke="#63b8ff" points="591.52,-339.3 581.05,-340.88 590.22,-346.18 591.52,-339.3"/>
</a>
</g>
</g>
<!-- Node39&#45;&gt;Node2 -->
<g id="edge30_Node000039_Node000002" class="edge">
<title>Node39&#45;&gt;Node2</title>
<g id="a_edge30_Node000039_Node000002"><a xlink:title=" ">
<path fill="none" stroke="#63b8ff" d="M868.34,-475.79C847.71,-481.06 825.72,-486.67 806.03,-491.7"/>
<polygon fill="#63b8ff" stroke="#63b8ff" points="869.02,-479.23 877.85,-473.37 867.29,-472.45 869.02,-479.23"/>
</a>
</g>
</g>
<!-- Node40 -->
<g id="Node000040" class="node">
<title>Node40</title>
<g id="a_Node000040"><a xlink:href="kest__fixed__point_8c.html#a152783a4a8b5bc4b35e20d1c53acdae4" target="_top" xlink:title=" ">
<polygon fill="white" stroke="#666666" points="798.5,-472.5 685.75,-472.5 685.75,-439 798.5,-439 798.5,-472.5"/>
<text xml:space="preserve" text-anchor="start" x="693.75" y="-459" font-family="Helvetica,sans-Serif" font-size="10.00">kest_filter_compute</text>
<text xml:space="preserve" text-anchor="middle" x="742.12" y="-446.25" font-family="Helvetica,sans-Serif" font-size="10.00">_format</text>
</a>
</g>
</g>
<!-- Node39&#45;&gt;Node40 -->
<g id="edge31_Node000039_Node000040" class="edge">
<title>Node39&#45;&gt;Node40</title>
<g id="a_edge31_Node000039_Node000040"><a xlink:title=" ">
<path fill="none" stroke="#63b8ff" d="M864.76,-455.75C842.64,-455.75 819.24,-455.75 798.92,-455.75"/>
<polygon fill="#63b8ff" stroke="#63b8ff" points="864.67,-459.25 874.67,-455.75 864.67,-452.25 864.67,-459.25"/>
</a>
</g>
</g>
<!-- Node40&#45;&gt;Node3 -->
<g id="edge32_Node000040_Node000003" class="edge">
<title>Node40&#45;&gt;Node3</title>
<g id="a_edge32_Node000040_Node000003"><a xlink:title=" ">
<path fill="none" stroke="#63b8ff" d="M674.19,-455.75C650.72,-455.75 624.54,-455.75 601.72,-455.75"/>
<polygon fill="#63b8ff" stroke="#63b8ff" points="673.95,-459.25 683.95,-455.75 673.95,-452.25 673.95,-459.25"/>
</a>
</g>
</g>
<!-- Node42 -->
<g id="Node000042" class="node">
<title>Node42</title>
<g id="a_Node000042"><a xlink:href="kest__fpga__comms_8c.html#a8f850777494bb4c4d61df3efbf31ca7c" target="_top" xlink:title=" ">
<polygon fill="white" stroke="#666666" points="606.62,-254.12 475.88,-254.12 475.88,-233.38 606.62,-233.38 606.62,-254.12"/>
<text xml:space="preserve" text-anchor="middle" x="541.25" y="-240.62" font-family="Helvetica,sans-Serif" font-size="10.00">kest_fpga_comms_task</text>
</a>
</g>
</g>
<!-- Node41&#45;&gt;Node42 -->
<g id="edge34_Node000041_Node000042" class="edge">
<title>Node41&#45;&gt;Node42</title>
<g id="a_edge34_Node000041_Node000042"><a xlink:title=" ">
<path fill="none" stroke="#63b8ff" d="M874.91,-300.48C798.47,-287.44 678.82,-267.04 605.77,-254.58"/>
<polygon fill="#63b8ff" stroke="#63b8ff" points="873.92,-303.86 884.37,-302.09 875.1,-296.96 873.92,-303.86"/>
</a>
</g>
</g>
<!-- Node44 -->
<g id="Node000044" class="node">
<title>Node44</title>
<g id="a_Node000044"><a xlink:href="kest__fpga__io_8c.html#a0e6e4e058cfd8f3ec79208acb0f71aa6" target="_top" xlink:title=" ">
<polygon fill="white" stroke="#666666" points="812,-254.12 672.25,-254.12 672.25,-233.38 812,-233.38 812,-254.12"/>
<text xml:space="preserve" text-anchor="middle" x="742.12" y="-240.62" font-family="Helvetica,sans-Serif" font-size="10.00">kest_fpga_set_input_gain</text>
</a>
</g>
</g>
<!-- Node41&#45;&gt;Node44 -->
<g id="edge36_Node000041_Node000044" class="edge">
<title>Node41&#45;&gt;Node44</title>
<g id="a_edge36_Node000041_Node000044"><a xlink:title=" ">
<path fill="none" stroke="#63b8ff" d="M880.34,-298.64C875.16,-296.88 870.07,-294.92 865.25,-292.75 847.49,-284.74 846.88,-276.04 829.25,-267.75 817.87,-262.4 805.07,-258.04 792.89,-254.56"/>
<polygon fill="#63b8ff" stroke="#63b8ff" points="879.03,-301.9 889.62,-301.53 881.12,-295.22 879.03,-301.9"/>
</a>
</g>
</g>
<!-- Node45 -->
<g id="Node000045" class="node">
<title>Node45</title>
<g id="a_Node000045"><a xlink:href="kest__fpga__io_8c.html#a6569f6bf656d72080dd355179ac2c4e9" target="_top" xlink:title=" ">
<polygon fill="white" stroke="#666666" points="815.38,-330.12 668.88,-330.12 668.88,-309.38 815.38,-309.38 815.38,-330.12"/>
<text xml:space="preserve" text-anchor="middle" x="742.12" y="-316.62" font-family="Helvetica,sans-Serif" font-size="10.00">kest_fpga_set_output_gain</text>
</a>
</g>
</g>
<!-- Node41&#45;&gt;Node45 -->
<g id="edge38_Node000041_Node000045" class="edge">
<title>Node41&#45;&gt;Node45</title>
<g id="a_edge38_Node000041_Node000045"><a xlink:title=" ">
<path fill="none" stroke="#63b8ff" d="M874.61,-315.23C855.43,-315.89 834.71,-316.6 815.52,-317.26"/>
<polygon fill="#63b8ff" stroke="#63b8ff" points="874.63,-318.73 884.51,-314.89 874.39,-311.74 874.63,-318.73"/>
</a>
</g>
</g>
<!-- Node43 -->
<g id="Node000043" class="node">
<title>Node43</title>
<g id="a_Node000043"><a xlink:href="kest__fpga__comms_8c.html#a3e7c6b831b7f97dfc640df13557640be" target="_top" xlink:title=" ">
<polygon fill="#fff0f0" stroke="red" points="420.38,-254.12 294.88,-254.12 294.88,-233.38 420.38,-233.38 420.38,-254.12"/>
<text xml:space="preserve" text-anchor="middle" x="357.62" y="-240.62" font-family="Helvetica,sans-Serif" font-size="10.00">kest_init_fpga_comms</text>
</a>
</g>
</g>
<!-- Node42&#45;&gt;Node43 -->
<g id="edge35_Node000042_Node000043" class="edge">
<title>Node42&#45;&gt;Node43</title>
<g id="a_edge35_Node000042_Node000043"><a xlink:title=" ">
<path fill="none" stroke="#63b8ff" d="M464,-243.75C449.55,-243.75 434.6,-243.75 420.66,-243.75"/>
<polygon fill="#63b8ff" stroke="#63b8ff" points="463.93,-247.25 473.93,-243.75 463.93,-240.25 463.93,-247.25"/>
</a>
</g>
</g>
<!-- Node44&#45;&gt;Node42 -->
<g id="edge37_Node000044_Node000042" class="edge">
<title>Node44&#45;&gt;Node42</title>
<g id="a_edge37_Node000044_Node000042"><a xlink:title=" ">
<path fill="none" stroke="#63b8ff" d="M660.57,-243.75C642.73,-243.75 624.05,-243.75 606.94,-243.75"/>
<polygon fill="#63b8ff" stroke="#63b8ff" points="660.33,-247.25 670.33,-243.75 660.33,-240.25 660.33,-247.25"/>
</a>
</g>
</g>
<!-- Node45&#45;&gt;Node42 -->
<g id="edge39_Node000045_Node000042" class="edge">
<title>Node45&#45;&gt;Node42</title>
<g id="a_edge39_Node000045_Node000042"><a xlink:title=" ">
<path fill="none" stroke="#63b8ff" d="M685.83,-305.76C675.49,-302.74 664.84,-299.37 655,-295.75 622.02,-283.64 585.33,-265.87 563.02,-254.56"/>
<polygon fill="#63b8ff" stroke="#63b8ff" points="684.85,-309.12 695.42,-308.47 686.75,-302.38 684.85,-309.12"/>
</a>
</g>
</g>
<!-- Node47 -->
<g id="Node000047" class="node">
<title>Node47</title>
<g id="a_Node000047"><a xlink:href="kest__fpga__comms_8c.html#afb1a50f3f2d17cff2514ceb31fc6c75e" target="_top" xlink:title=" ">
<polygon fill="white" stroke="#666666" points="809.38,-215.12 674.88,-215.12 674.88,-194.38 809.38,-194.38 809.38,-215.12"/>
<text xml:space="preserve" text-anchor="middle" x="742.12" y="-201.62" font-family="Helvetica,sans-Serif" font-size="10.00">kest_command_log_test</text>
</a>
</g>
</g>
<!-- Node46&#45;&gt;Node47 -->
<g id="edge41_Node000046_Node000047" class="edge">
<title>Node46&#45;&gt;Node47</title>
<g id="a_edge41_Node000046_Node000047"><a xlink:title=" ">
<path fill="none" stroke="#63b8ff" d="M875.39,-259.22C871.91,-257.86 868.51,-256.37 865.25,-254.75 846.6,-245.47 847.9,-234.02 829.25,-224.75 821.83,-221.06 813.7,-218.04 805.51,-215.56"/>
<polygon fill="#63b8ff" stroke="#63b8ff" points="874,-262.44 884.6,-262.44 876.31,-255.83 874,-262.44"/>
</a>
</g>
</g>
<!-- Node48 -->
<g id="Node000048" class="node">
<title>Node48</title>
<g id="a_Node000048"><a xlink:href="kest__fpga__comms_8c.html#a3e920a831491fd407195cf3a0cf727c8" target="_top" xlink:title=" ">
<polygon fill="white" stroke="#666666" points="829.25,-176.12 655,-176.12 655,-155.38 829.25,-155.38 829.25,-176.12"/>
<text xml:space="preserve" text-anchor="middle" x="742.12" y="-162.62" font-family="Helvetica,sans-Serif" font-size="10.00">kest_fpga_handle_misalignment</text>
</a>
</g>
</g>
<!-- Node46&#45;&gt;Node48 -->
<g id="edge42_Node000046_Node000048" class="edge">
<title>Node46&#45;&gt;Node48</title>
<g id="a_edge42_Node000046_Node000048"><a xlink:title=" ">
<path fill="none" stroke="#63b8ff" d="M868.85,-257.33C867.61,-256.51 866.41,-255.65 865.25,-254.75 837.91,-233.56 856.6,-206.93 829.25,-185.75 824.52,-182.08 819.23,-179.07 813.66,-176.6"/>
<polygon fill="#63b8ff" stroke="#63b8ff" points="867.05,-260.34 877.49,-262.14 870.45,-254.22 867.05,-260.34"/>
</a>
</g>
</g>
<!-- Node48&#45;&gt;Node42 -->
<g id="edge43_Node000048_Node000042" class="edge">
<title>Node48&#45;&gt;Node42</title>
<g id="a_edge43_Node000048_Node000042"><a xlink:title=" ">
<path fill="none" stroke="#63b8ff" d="M674.31,-179.54C667.72,-181.41 661.19,-183.48 655,-185.75 619.87,-198.64 581.68,-219.99 559.98,-232.88"/>
<polygon fill="#63b8ff" stroke="#63b8ff" points="675.18,-182.92 683.94,-176.96 673.37,-176.16 675.18,-182.92"/>
</a>
</g>
</g>
<!-- Node49&#45;&gt;Node42 -->
<g id="edge45_Node000049_Node000042" class="edge">
<title>Node49&#45;&gt;Node42</title>
<g id="a_edge45_Node000049_Node000042"><a xlink:title=" ">
<path fill="none" stroke="#63b8ff" d="M873.48,-208.29C870.61,-206.59 867.85,-204.74 865.25,-202.75 841.77,-184.75 855.22,-160.93 829.25,-146.75 761.28,-109.64 727.61,-119.81 655,-146.75 607.55,-164.35 566.67,-211.86 550.11,-233.16"/>
<polygon fill="#63b8ff" stroke="#63b8ff" points="871.76,-211.34 882.25,-212.86 875,-205.13 871.76,-211.34"/>
</a>
</g>
</g>
<!-- Node50&#45;&gt;Node50 -->
<g id="edge49_Node000050_Node000050" class="edge">
<title>Node50&#45;&gt;Node50</title>
<g id="a_edge49_Node000050_Node000050"><a xlink:title=" ">
<path fill="none" stroke="#63b8ff" d="M975.37,-186.89C970.89,-190.85 961.73,-193.5 947.88,-193.5 923.25,-193.5 913.44,-185.12 918.44,-175.91"/>
<polygon fill="#63b8ff" stroke="#63b8ff" points="978.75,-187.86 977.05,-177.4 971.86,-186.64 978.75,-187.86"/>
</a>
</g>
</g>
<!-- Node51 -->
<g id="Node000051" class="node">
<title>Node51</title>
<g id="a_Node000051"><a xlink:href="kest__expr__scope_8c.html#a22d04780c6f58fc94a907b3969a819cc" target="_top" xlink:title=" ">
<polygon fill="white" stroke="#666666" points="808.25,-99.5 676,-99.5 676,-66 808.25,-66 808.25,-99.5"/>
<text xml:space="preserve" text-anchor="start" x="684" y="-86" font-family="Helvetica,sans-Serif" font-size="10.00">kest_scope_transitivize</text>
<text xml:space="preserve" text-anchor="middle" x="742.12" y="-73.25" font-family="Helvetica,sans-Serif" font-size="10.00">_updatable_dependents</text>
</a>
</g>
</g>
<!-- Node50&#45;&gt;Node51 -->
<g id="edge47_Node000050_Node000051" class="edge">
<title>Node50&#45;&gt;Node51</title>
<g id="a_edge47_Node000050_Node000051"><a xlink:title=" ">
<path fill="none" stroke="#63b8ff" d="M877.77,-137.7C873.5,-136.1 869.3,-134.45 865.25,-132.75 848.57,-125.75 845.8,-121.05 829.25,-113.75 818.2,-108.87 806.12,-104.16 794.6,-99.94"/>
<polygon fill="#63b8ff" stroke="#63b8ff" points="876.43,-140.93 887.02,-141.02 878.8,-134.35 876.43,-140.93"/>
</a>
</g>
</g>
<!-- Node52 -->
<g id="Node000052" class="node">
<title>Node52</title>
<g id="a_Node000052"><a xlink:href="kest__effect_8c.html#a85b25e44e2629962673634f965ffe304" target="_top" xlink:title=" ">
<polygon fill="#fff0f0" stroke="red" points="619,-93.12 463.5,-93.12 463.5,-72.38 619,-72.38 619,-93.12"/>
<text xml:space="preserve" text-anchor="middle" x="541.25" y="-79.62" font-family="Helvetica,sans-Serif" font-size="10.00">init_effect_from_effect_desc</text>
</a>
</g>
</g>
<!-- Node51&#45;&gt;Node52 -->
<g id="edge48_Node000051_Node000052" class="edge">
<title>Node51&#45;&gt;Node52</title>
<g id="a_edge48_Node000051_Node000052"><a xlink:title=" ">
<path fill="none" stroke="#63b8ff" d="M664.58,-82.75C649.77,-82.75 634.26,-82.75 619.44,-82.75"/>
<polygon fill="#63b8ff" stroke="#63b8ff" points="664.22,-86.25 674.22,-82.75 664.22,-79.25 664.22,-86.25"/>
</a>
</g>
</g>
<!-- Node63 -->
<g id="Node000063" class="node">
<title>Node63</title>
<g id="a_Node000063"><a xlink:href="kest__update_8c.html#a5f1849c909f1dbde00900ad089f46d8f" target="_top" xlink:title=" ">
<polygon fill="white" stroke="#666666" points="792.88,-38.12 691.38,-38.12 691.38,-17.38 792.88,-17.38 792.88,-38.12"/>
<text xml:space="preserve" text-anchor="middle" x="742.12" y="-24.62" font-family="Helvetica,sans-Serif" font-size="10.00">kest_update_task</text>
</a>
</g>
</g>
<!-- Node62&#45;&gt;Node63 -->
<g id="edge52_Node000062_Node000063" class="edge">
<title>Node62&#45;&gt;Node63</title>
<g id="a_edge52_Node000062_Node000063"><a xlink:title=" ">
<path fill="none" stroke="#63b8ff" d="M877.57,-54.8C849.94,-49.24 818.74,-42.97 793.36,-37.86"/>
<polygon fill="#63b8ff" stroke="#63b8ff" points="876.78,-58.22 887.28,-56.76 878.16,-51.35 876.78,-58.22"/>
</a>
</g>
</g>
<!-- Node64 -->
<g id="Node000064" class="node">
<title>Node64</title>
<g id="a_Node000064"><a xlink:href="kest__update_8c.html#a144a1e0bedaf2dbf6788825228333e63" target="_top" xlink:title=" ">
<polygon fill="#fff0f0" stroke="red" points="605.88,-38.12 476.62,-38.12 476.62,-17.38 605.88,-17.38 605.88,-38.12"/>
<text xml:space="preserve" text-anchor="middle" x="541.25" y="-24.62" font-family="Helvetica,sans-Serif" font-size="10.00">kest_update_task_start</text>
</a>
</g>
</g>
<!-- Node63&#45;&gt;Node64 -->
<g id="edge53_Node000063_Node000064" class="edge">
<title>Node63&#45;&gt;Node64</title>
<g id="a_edge53_Node000063_Node000064"><a xlink:title=" ">
<path fill="none" stroke="#63b8ff" d="M679.48,-27.75C656.26,-27.75 629.81,-27.75 606.36,-27.75"/>
<polygon fill="#63b8ff" stroke="#63b8ff" points="679.43,-31.25 689.43,-27.75 679.43,-24.25 679.43,-31.25"/>
</a>
</g>
</g>
<!-- Node65&#45;&gt;Node63 -->
<g id="edge55_Node000065_Node000063" class="edge">
<title>Node65&#45;&gt;Node63</title>
<g id="a_edge55_Node000065_Node000063"><a xlink:title=" ">
<path fill="none" stroke="#63b8ff" d="M882.89,-20.2C853.95,-21.77 820.24,-23.59 793.18,-25.05"/>
<polygon fill="#63b8ff" stroke="#63b8ff" points="882.83,-23.71 892.63,-19.68 882.45,-16.72 882.83,-23.71"/>
</a>
</g>
</g>
</g>
</svg>

<g id="navigator" transform="translate(0 0)" fill="#404254">
  <rect fill="#f2f5e9" fill-opacity="0.5" stroke="#606060" stroke-width=".5" x="0" y="0" width="60" height="60"/>
  <use id="zoomplus" xlink:href="#zoomPlus" x="17" y="9" onmousedown="handleZoom(evt,'in')"/>
  <use id="zoomminus" xlink:href="#zoomMin" x="42" y="9" onmousedown="handleZoom(evt,'out')"/>
  <use id="reset" xlink:href="#resetDef" x="30" y="36" onmousedown="handleReset()"/>
   <use id="arrowup" xlink:href="#arrowUp" x="0" y="0" onmousedown="handlePan(0,-1)"/>
  <use id="arrowright" xlink:href="#arrowRight" x="0" y="0" onmousedown="handlePan(1,0)"/>
  <use id="arrowdown" xlink:href="#arrowDown" x="0" y="0" onmousedown="handlePan(0,1)"/>
  <use id="arrowleft" xlink:href="#arrowLeft" x="0" y="0" onmousedown="handlePan(-1,0)"/>
</g>
<svg viewBox="0 0 15 15" width="100%" height="30px" preserveAspectRatio="xMaxYMin meet">
 <g id="arrow_out" transform="scale(0.3 0.3)">
  <a xlink:href="kest__string_8c_ab74edc9a2be32d899a92ef58edb16286_icgraph_org.svg" target="_base">
   <rect id="button" ry="5" rx="5" y="6" x="6" height="38" width="38"
        fill="#f2f5e9" fill-opacity="0.5" stroke="#606060" stroke-width="1.0"/>
   <path id="arrow"
     d="M 11.500037,31.436501 C 11.940474,20.09759 22.043105,11.32322 32.158766,21.979434 L 37.068811,17.246167 C 37.068811,17.246167 37.088388,32 37.088388,32 L 22.160133,31.978069 C 22.160133,31.978069 26.997745,27.140456 26.997745,27.140456 C 18.528582,18.264221 13.291696,25.230495 11.500037,31.436501 z"
     style="fill:#404040;"/>
  </a>
 </g>
</svg>

<style type='text/css'>
<![CDATA[
[data-mouse-over-selected='false'] { opacity: 0.7; }
[data-mouse-over-selected='true']  { opacity: 1.0; }
]]>
</style>
<script type="application/ecmascript"><![CDATA[
document.addEventListener('DOMContentLoaded', (event) => {
  highlightEdges();
  highlightAdjacentNodes();
});
]]></script>
</svg>
