<?xml version="1.0" encoding="UTF-8" standalone="no"?>
<!DOCTYPE svg PUBLIC "-//W3C//DTD SVG 1.1//EN"
 "http://www.w3.org/Graphics/SVG/1.1/DTD/svg11.dtd">
<!-- Generated by graphviz version 13.1.2 (20250808.2320)
 -->
<!-- Title: kest_scope_propagate_updates Pages: 1 -->
<!--zoomable 248 -->

<svg id="main" version="1.1" xmlns="http://www.w3.org/2000/svg" xmlns:xlink="http://www.w3.org/1999/xlink" xml:space="preserve" onload="init(evt)">

<style type="text/css"><![CDATA[
.node, .edge {opacity: 0.7;}
.node.selected, .edge.selected {opacity: 1;}
.edge:hover path { stroke: red; }
.edge:hover polygon { stroke: red; fill: red; }
]]></style>

<defs>
  <circle id="rim" cx="0" cy="0" r="7"/>
  <circle id="rim2" cx="0" cy="0" r="3.5"/>
  <g id="zoomPlus">
    <use xlink:href="#rim" fill="#404040"><set attributeName="fill" to="#808080" begin="zoomplus.mouseover" end="zoomplus.mouseout"/></use>
    <path d="M-4,0h8M0,-4v8" fill="none" stroke="white" stroke-width="1.5" pointer-events="none"/>
  </g>
  <g id="zoomMin">
    <use xlink:href="#rim" fill="#404040"><set attributeName="fill" to="#808080" begin="zoomminus.mouseover" end="zoomminus.mouseout"/></use>
    <path d="M-4,0h8" fill="none" stroke="white" stroke-width="1.5" pointer-events="none"/>
  </g>
  <g id="arrowUp" transform="translate(30 24)">
    <use xlink:href="#rim"/>
    <path pointer-events="none" fill="none" stroke="white" stroke-width="1.5" d="M0,-3.0v7 M-2.5,-0.5L0,-3.0L2.5,-0.5"/>
  </g>
  <g id="arrowRight" transform="rotate(90) translate(36 -43)">
    <use xlink:href="#rim"/>
    <path pointer-events="none" fill="none" stroke="white" stroke-width="1.5" d="M0,-3.0v7 M-2.5,-0.5L0,-3.0L2.5,-0.5"/>
  </g>
  <g id="arrowDown" transform="rotate(180) translate(-30 -48)">
    <use xlink:href="#rim"/>
    <path pointer-events="none" fill="none" stroke="white" stroke-width="1.5" d="M0,-3.0v7 M-2.5,-0.5L0,-3.0L2.5,-0.5"/>
  </g>
  <g id="arrowLeft" transform="rotate(270) translate(-36 17)">
    <use xlink:href="#rim"/>
    <path pointer-events="none" fill="none" stroke="white" stroke-width="1.5" d="M0,-3.0v7 M-2.5,-0.5L0,-3.0L2.5,-0.5"/>
  </g>
  <g id="resetDef">
    <use xlink:href="#rim2" fill="#404040"><set attributeName="fill" to="#808080" begin="reset.mouseover" end="reset.mouseout"/></use>
  </g>
</defs>
<script type="application/ecmascript">
var viewWidth = 652;
var viewHeight = 248;
var sectionId = 'dynsection-66';
</script>
<script type="application/ecmascript" xlink:href="svg.min.js"/>
<svg id="graph" class="graph">
<g id="viewport">
<title>kest_scope_propagate_updates</title>
<!-- Node1 -->
<g id="Node000001" class="node">
<title>Node1</title>
<g id="a_Node000001"><a xlink:title=" ">
<polygon fill="#999999" stroke="#666666" points="643.75,-142.88 519,-142.88 519,-109.38 643.75,-109.38 643.75,-142.88"/>
<text xml:space="preserve" text-anchor="start" x="527" y="-129.38" font-family="Helvetica,sans-Serif" font-size="10.00">kest_scope_propagate</text>
<text xml:space="preserve" text-anchor="middle" x="581.38" y="-116.62" font-family="Helvetica,sans-Serif" font-size="10.00">_updates</text>
</a>
</g>
</g>
<!-- Node2 -->
<g id="Node000002" class="node">
<title>Node2</title>
<g id="a_Node000002"><a xlink:href="kest__effect_8c.html#a6d26be8c2a59f0c05ae876bf2dba43a1" target="_top" xlink:title=" ">
<polygon fill="white" stroke="#666666" points="483,-136.5 354.5,-136.5 354.5,-115.75 483,-115.75 483,-136.5"/>
<text xml:space="preserve" text-anchor="middle" x="418.75" y="-123" font-family="Helvetica,sans-Serif" font-size="10.00">kest_effect_is_updated</text>
</a>
</g>
</g>
<!-- Node1&#45;&gt;Node2 -->
<g id="edge1_Node000001_Node000002" class="edge">
<title>Node1&#45;&gt;Node2</title>
<g id="a_edge1_Node000001_Node000002"><a xlink:title=" ">
<path fill="none" stroke="#63b8ff" d="M507.46,-126.12C499.42,-126.12 491.27,-126.12 483.36,-126.12"/>
<polygon fill="#63b8ff" stroke="#63b8ff" points="507.22,-129.63 517.22,-126.13 507.22,-122.63 507.22,-129.63"/>
</a>
</g>
</g>
<!-- Node3 -->
<g id="Node000003" class="node">
<title>Node3</title>
<g id="a_Node000003"><a xlink:href="kest__effect_8c.html#a288d2643ff7af914502102475595ed8f" target="_top" xlink:title=" ">
<polygon fill="white" stroke="#666666" points="304.62,-187.88 196.38,-187.88 196.38,-154.38 304.62,-154.38 304.62,-187.88"/>
<text xml:space="preserve" text-anchor="start" x="204.38" y="-174.38" font-family="Helvetica,sans-Serif" font-size="10.00">kest_effect_handle</text>
<text xml:space="preserve" text-anchor="middle" x="250.5" y="-161.62" font-family="Helvetica,sans-Serif" font-size="10.00">_updates</text>
</a>
</g>
</g>
<!-- Node2&#45;&gt;Node3 -->
<g id="edge2_Node000002_Node000003" class="edge">
<title>Node2&#45;&gt;Node3</title>
<g id="a_edge2_Node000002_Node000003"><a xlink:title=" ">
<path fill="none" stroke="#63b8ff" d="M367.02,-139.86C347.32,-145.19 324.76,-151.3 304.83,-156.69"/>
<polygon fill="#63b8ff" stroke="#63b8ff" points="367.73,-143.29 376.47,-137.3 365.9,-136.53 367.73,-143.29"/>
</a>
</g>
</g>
<!-- Node7 -->
<g id="Node000007" class="node">
<title>Node7</title>
<g id="a_Node000007"><a xlink:href="kest__effect_8c.html#ad5745ec5888a0568782154fb4f8adfee" target="_top" xlink:title=" ">
<polygon fill="white" stroke="#666666" points="304.62,-239.88 196.38,-239.88 196.38,-206.38 304.62,-206.38 304.62,-239.88"/>
<text xml:space="preserve" text-anchor="start" x="204.38" y="-226.38" font-family="Helvetica,sans-Serif" font-size="10.00">kest_effect_handle</text>
<text xml:space="preserve" text-anchor="middle" x="250.5" y="-213.62" font-family="Helvetica,sans-Serif" font-size="10.00">_updates_inc_ui</text>
</a>
</g>
</g>
<!-- Node2&#45;&gt;Node7 -->
<g id="edge5_Node000002_Node000007" class="edge">
<title>Node2&#45;&gt;Node7</title>
<g id="a_edge5_Node000002_Node000007"><a xlink:title=" ">
<path fill="none" stroke="#63b8ff" d="M396.05,-144.09C376.61,-159.57 346.88,-181.78 318.5,-197.12 312.68,-200.27 306.4,-203.23 300.1,-205.94"/>
<polygon fill="#63b8ff" stroke="#63b8ff" points="398.21,-146.85 403.79,-137.84 393.81,-141.4 398.21,-146.85"/>
</a>
</g>
</g>
<!-- Node8 -->
<g id="Node000008" class="node">
<title>Node8</title>
<g id="a_Node000008"><a xlink:href="kest__effect_8c.html#a490655823471fa9f081e6252b13da30e" target="_top" xlink:title=" ">
<polygon fill="white" stroke="#666666" points="318.5,-136.5 182.5,-136.5 182.5,-115.75 318.5,-115.75 318.5,-136.5"/>
<text xml:space="preserve" text-anchor="middle" x="250.5" y="-123" font-family="Helvetica,sans-Serif" font-size="10.00">kest_effect_update_fpga</text>
</a>
</g>
</g>
<!-- Node2&#45;&gt;Node8 -->
<g id="edge7_Node000002_Node000008" class="edge">
<title>Node2&#45;&gt;Node8</title>
<g id="a_edge7_Node000002_Node000008"><a xlink:title=" ">
<path fill="none" stroke="#63b8ff" d="M343.09,-126.12C335,-126.12 326.8,-126.12 318.8,-126.12"/>
<polygon fill="#63b8ff" stroke="#63b8ff" points="342.91,-129.63 352.91,-126.13 342.91,-122.63 342.91,-129.63"/>
</a>
</g>
</g>
<!-- Node9 -->
<g id="Node000009" class="node">
<title>Node9</title>
<g id="a_Node000009"><a xlink:href="kest__effect_8c.html#acd72b0b8d69b207a12265887b06fc7f9" target="_top" xlink:title=" ">
<polygon fill="white" stroke="#666666" points="305,-97.88 196,-97.88 196,-64.38 305,-64.38 305,-97.88"/>
<text xml:space="preserve" text-anchor="start" x="204" y="-84.38" font-family="Helvetica,sans-Serif" font-size="10.00">kest_effect_update</text>
<text xml:space="preserve" text-anchor="middle" x="250.5" y="-71.62" font-family="Helvetica,sans-Serif" font-size="10.00">_sync_no_pw</text>
</a>
</g>
</g>
<!-- Node2&#45;&gt;Node9 -->
<g id="edge8_Node000002_Node000009" class="edge">
<title>Node2&#45;&gt;Node9</title>
<g id="a_edge8_Node000002_Node000009"><a xlink:title=" ">
<path fill="none" stroke="#63b8ff" d="M366.84,-112.35C347.4,-107.08 325.17,-101.07 305.45,-95.73"/>
<polygon fill="#63b8ff" stroke="#63b8ff" points="365.9,-115.72 376.47,-114.95 367.73,-108.96 365.9,-115.72"/>
</a>
</g>
</g>
<!-- Node10 -->
<g id="Node000010" class="node">
<title>Node10</title>
<g id="a_Node000010"><a xlink:href="kest__fpga__encoding_8c.html#a88e143203d90d22159a81888f02b3c11" target="_top" xlink:title=" ">
<polygon fill="white" stroke="#666666" points="312.12,-46.25 188.88,-46.25 188.88,0 312.12,0 312.12,-46.25"/>
<text xml:space="preserve" text-anchor="start" x="196.88" y="-32.75" font-family="Helvetica,sans-Serif" font-size="10.00">kest_fpga_transfer</text>
<text xml:space="preserve" text-anchor="start" x="196.88" y="-20" font-family="Helvetica,sans-Serif" font-size="10.00">_batch_append_effect</text>
<text xml:space="preserve" text-anchor="middle" x="250.5" y="-7.25" font-family="Helvetica,sans-Serif" font-size="10.00">_updates</text>
</a>
</g>
</g>
<!-- Node2&#45;&gt;Node10 -->
<g id="edge9_Node000002_Node000010" class="edge">
<title>Node2&#45;&gt;Node10</title>
<g id="a_edge9_Node000002_Node000010"><a xlink:title=" ">
<path fill="none" stroke="#63b8ff" d="M395.42,-108.42C375.79,-93.29 346.13,-71.43 318.5,-55.12 313.62,-52.24 308.43,-49.4 303.19,-46.68"/>
<polygon fill="#63b8ff" stroke="#63b8ff" points="393.22,-111.14 403.26,-114.53 397.52,-105.62 393.22,-111.14"/>
</a>
</g>
</g>
<!-- Node4 -->
<g id="Node000004" class="node">
<title>Node4</title>
<g id="a_Node000004"><a xlink:href="kest__update_8c.html#a5e0d89e23eaabecddff58a4612bc5c71" target="_top" xlink:title=" ">
<polygon fill="#fff0f0" stroke="red" points="127,-235.88 19.5,-235.88 19.5,-202.38 127,-202.38 127,-235.88"/>
<text xml:space="preserve" text-anchor="start" x="27.5" y="-222.38" font-family="Helvetica,sans-Serif" font-size="10.00">kest_active_preset</text>
<text xml:space="preserve" text-anchor="middle" x="73.25" y="-209.62" font-family="Helvetica,sans-Serif" font-size="10.00">_updater_task</text>
</a>
</g>
</g>
<!-- Node3&#45;&gt;Node4 -->
<g id="edge3_Node000003_Node000004" class="edge">
<title>Node3&#45;&gt;Node4</title>
<g id="a_edge3_Node000003_Node000004"><a xlink:title=" ">
<path fill="none" stroke="#63b8ff" d="M185.03,-188.78C166.09,-193.97 145.6,-199.58 127.46,-204.55"/>
<polygon fill="#63b8ff" stroke="#63b8ff" points="185.79,-192.2 194.51,-186.19 183.94,-185.45 185.79,-192.2"/>
</a>
</g>
</g>
<!-- Node6 -->
<g id="Node000006" class="node">
<title>Node6</title>
<g id="a_Node000006"><a xlink:href="kest__effect_8c.html#a6388818d6f91e8be07c0bf562b4db182" target="_top" xlink:title=" ">
<polygon fill="white" stroke="#666666" points="141.62,-181.5 4.88,-181.5 4.88,-160.75 141.62,-160.75 141.62,-181.5"/>
<text xml:space="preserve" text-anchor="middle" x="73.25" y="-168" font-family="Helvetica,sans-Serif" font-size="10.00">kest_effect_update_sync</text>
</a>
</g>
</g>
<!-- Node3&#45;&gt;Node6 -->
<g id="edge4_Node000003_Node000006" class="edge">
<title>Node3&#45;&gt;Node6</title>
<g id="a_edge4_Node000003_Node000006"><a xlink:title=" ">
<path fill="none" stroke="#63b8ff" d="M184.55,-171.12C170.68,-171.12 156,-171.12 142.03,-171.12"/>
<polygon fill="#63b8ff" stroke="#63b8ff" points="184.45,-174.63 194.45,-171.13 184.45,-167.63 184.45,-174.63"/>
</a>
</g>
</g>
<!-- Node7&#45;&gt;Node4 -->
<g id="edge6_Node000007_Node000004" class="edge">
<title>Node7&#45;&gt;Node4</title>
<g id="a_edge6_Node000007_Node000004"><a xlink:title=" ">
<path fill="none" stroke="#63b8ff" d="M184.5,-221.64C165.71,-221.21 145.43,-220.75 127.46,-220.34"/>
<polygon fill="#63b8ff" stroke="#63b8ff" points="184.38,-225.14 194.45,-221.87 184.54,-218.14 184.38,-225.14"/>
</a>
</g>
</g>
<!-- Node11 -->
<g id="Node000011" class="node">
<title>Node11</title>
<g id="a_Node000011"><a xlink:href="kest__pipeline_8c.html#ab8999b49f257e50e63cc3294b8212daf" target="_top" xlink:title=" ">
<polygon fill="#fff0f0" stroke="red" points="146.5,-33.5 0,-33.5 0,-12.75 146.5,-12.75 146.5,-33.5"/>
<text xml:space="preserve" text-anchor="middle" x="73.25" y="-20" font-family="Helvetica,sans-Serif" font-size="10.00">kest_pipeline_update_fpga</text>
</a>
</g>
</g>
<!-- Node10&#45;&gt;Node11 -->
<g id="edge10_Node000010_Node000011" class="edge">
<title>Node10&#45;&gt;Node11</title>
<g id="a_edge10_Node000010_Node000011"><a xlink:title=" ">
<path fill="none" stroke="#63b8ff" d="M177.41,-23.12C167.27,-23.12 156.85,-23.12 146.7,-23.12"/>
<polygon fill="#63b8ff" stroke="#63b8ff" points="177.18,-26.63 187.18,-23.13 177.18,-19.63 177.18,-26.63"/>
</a>
</g>
</g>
</g>
</svg>

<g id="navigator" transform="translate(0 0)" fill="#404254">
  <rect fill="#f2f5e9" fill-opacity="0.5" stroke="#606060" stroke-width=".5" x="0" y="0" width="60" height="60"/>
  <use id="zoomplus" xlink:href="#zoomPlus" x="17" y="9" onmousedown="handleZoom(evt,'in')"/>
  <use id="zoomminus" xlink:href="#zoomMin" x="42" y="9" onmousedown="handleZoom(evt,'out')"/>
  <use id="reset" xlink:href="#resetDef" x="30" y="36" onmousedown="handleReset()"/>
   <use id="arrowup" xlink:href="#arrowUp" x="0" y="0" onmousedown="handlePan(0,-1)"/>
  <use id="arrowright" xlink:href="#arrowRight" x="0" y="0" onmousedown="handlePan(1,0)"/>
  <use id="arrowdown" xlink:href="#arrowDown" x="0" y="0" onmousedown="handlePan(0,1)"/>
  <use id="arrowleft" xlink:href="#arrowLeft" x="0" y="0" onmousedown="handlePan(-1,0)"/>
</g>
<svg viewBox="0 0 15 15" width="100%" height="30px" preserveAspectRatio="xMaxYMin meet">
 <g id="arrow_out" transform="scale(0.3 0.3)">
  <a xlink:href="kest__expr__scope_8c_a38b63c16b3979ad26c30a0dc0b73e96a_icgraph_org.svg" target="_base">
   <rect id="button" ry="5" rx="5" y="6" x="6" height="38" width="38"
        fill="#f2f5e9" fill-opacity="0.5" stroke="#606060" stroke-width="1.0"/>
   <path id="arrow"
     d="M 11.500037,31.436501 C 11.940474,20.09759 22.043105,11.32322 32.158766,21.979434 L 37.068811,17.246167 C 37.068811,17.246167 37.088388,32 37.088388,32 L 22.160133,31.978069 C 22.160133,31.978069 26.997745,27.140456 26.997745,27.140456 C 18.528582,18.264221 13.291696,25.230495 11.500037,31.436501 z"
     style="fill:#404040;"/>
  </a>
 </g>
</svg>

<style type='text/css'>
<![CDATA[
[data-mouse-over-selected='false'] { opacity: 0.7; }
[data-mouse-over-selected='true']  { opacity: 1.0; }
]]>
</style>
<script type="application/ecmascript"><![CDATA[
document.addEventListener('DOMContentLoaded', (event) => {
  highlightEdges();
  highlightAdjacentNodes();
});
]]></script>
</svg>
