<?xml version="1.0" encoding="UTF-8" standalone="no"?>
<!DOCTYPE svg PUBLIC "-//W3C//DTD SVG 1.1//EN"
 "http://www.w3.org/Graphics/SVG/1.1/DTD/svg11.dtd">
<!-- Generated by graphviz version 13.1.2 (20250808.2320)
 -->
<!-- Title: kest_create_ui Pages: 1 -->
<!--zoomable 482 -->

<svg id="main" version="1.1" xmlns="http://www.w3.org/2000/svg" xmlns:xlink="http://www.w3.org/1999/xlink" xml:space="preserve" onload="init(evt)">

<style type="text/css"><![CDATA[
.node, .edge {opacity: 0.7;}
.node.selected, .edge.selected {opacity: 1;}
.edge:hover path { stroke: red; }
.edge:hover polygon { stroke: red; fill: red; }
]]></style>

<defs>
  <circle id="rim" cx="0" cy="0" r="7"/>
  <circle id="rim2" cx="0" cy="0" r="3.5"/>
  <g id="zoomPlus">
    <use xlink:href="#rim" fill="#404040"><set attributeName="fill" to="#808080" begin="zoomplus.mouseover" end="zoomplus.mouseout"/></use>
    <path d="M-4,0h8M0,-4v8" fill="none" stroke="white" stroke-width="1.5" pointer-events="none"/>
  </g>
  <g id="zoomMin">
    <use xlink:href="#rim" fill="#404040"><set attributeName="fill" to="#808080" begin="zoomminus.mouseover" end="zoomminus.mouseout"/></use>
    <path d="M-4,0h8" fill="none" stroke="white" stroke-width="1.5" pointer-events="none"/>
  </g>
  <g id="arrowUp" transform="translate(30 24)">
    <use xlink:href="#rim"/>
    <path pointer-events="none" fill="none" stroke="white" stroke-width="1.5" d="M0,-3.0v7 M-2.5,-0.5L0,-3.0L2.5,-0.5"/>
  </g>
  <g id="arrowRight" transform="rotate(90) translate(36 -43)">
    <use xlink:href="#rim"/>
    <path pointer-events="none" fill="none" stroke="white" stroke-width="1.5" d="M0,-3.0v7 M-2.5,-0.5L0,-3.0L2.5,-0.5"/>
  </g>
  <g id="arrowDown" transform="rotate(180) translate(-30 -48)">
    <use xlink:href="#rim"/>
    <path pointer-events="none" fill="none" stroke="white" stroke-width="1.5" d="M0,-3.0v7 M-2.5,-0.5L0,-3.0L2.5,-0.5"/>
  </g>
  <g id="arrowLeft" transform="rotate(270) translate(-36 17)">
    <use xlink:href="#rim"/>
    <path pointer-events="none" fill="none" stroke="white" stroke-width="1.5" d="M0,-3.0v7 M-2.5,-0.5L0,-3.0L2.5,-0.5"/>
  </g>
  <g id="resetDef">
    <use xlink:href="#rim2" fill="#404040"><set attributeName="fill" to="#808080" begin="reset.mouseover" end="reset.mouseout"/></use>
  </g>
</defs>
<script type="application/ecmascript">
var viewWidth = 949;
var viewHeight = 482;
var sectionId = 'dynsection-48';
</script>
<script type="application/ecmascript" xlink:href="svg.min.js"/>
<svg id="graph" class="graph">
<g id="viewport">
<title>kest_create_ui</title>
<!-- Node1 -->
<g id="Node000001" class="node">
<title>Node1</title>
<g id="a_Node000001"><a xlink:title=" ">
<polygon fill="#999999" stroke="#666666" points="86.5,-228.51 0,-228.51 0,-207.76 86.5,-207.76 86.5,-228.51"/>
<text xml:space="preserve" text-anchor="middle" x="43.25" y="-215.01" font-family="Helvetica,sans-Serif" font-size="10.00">kest_create_ui</text>
</a>
</g>
</g>
<!-- Node2 -->
<g id="Node000002" class="node">
<title>Node2</title>
<g id="a_Node000002"><a xlink:href="kest__sequence__list_8c.html#ae60870bb862edfc5b0a45344c20b152f" target="_top" xlink:title=" ">
<polygon fill="white" stroke="#666666" points="256.25,-276.51 122.5,-276.51 122.5,-255.76 256.25,-255.76 256.25,-276.51"/>
<text xml:space="preserve" text-anchor="middle" x="189.38" y="-263.01" font-family="Helvetica,sans-Serif" font-size="10.00">configure_sequence_list</text>
</a>
</g>
</g>
<!-- Node1&#45;&gt;Node2 -->
<g id="edge1_Node000001_Node000002" class="edge">
<title>Node1&#45;&gt;Node2</title>
<g id="a_edge1_Node000001_Node000002"><a xlink:title=" ">
<path fill="none" stroke="#63b8ff" d="M76.59,-228.91C96.9,-235.67 123.32,-244.47 145.38,-251.82"/>
<polygon fill="#63b8ff" stroke="#63b8ff" points="144.11,-255.08 154.7,-254.92 146.32,-248.44 144.11,-255.08"/>
</a>
</g>
</g>
<!-- Node315 -->
<g id="Node000315" class="node">
<title>Node315</title>
<g id="a_Node000315"><a xlink:href="kest__ui_8c.html#afbe4096c7ee75eb4368161945403d399" target="_top" xlink:title=" ">
<polygon fill="white" stroke="#666666" points="242,-228.51 136.75,-228.51 136.75,-207.76 242,-207.76 242,-228.51"/>
<text xml:space="preserve" text-anchor="middle" x="189.38" y="-215.01" font-family="Helvetica,sans-Serif" font-size="10.00">configure_ui_page</text>
</a>
</g>
</g>
<!-- Node1&#45;&gt;Node315 -->
<g id="edge28_Node000001_Node000315" class="edge">
<title>Node1&#45;&gt;Node315</title>
<g id="a_edge28_Node000001_Node000315"><a xlink:title=" ">
<path fill="none" stroke="#63b8ff" d="M86.71,-218.13C98.72,-218.13 112.06,-218.13 125.02,-218.13"/>
<polygon fill="#63b8ff" stroke="#63b8ff" points="124.75,-221.63 134.75,-218.13 124.75,-214.63 124.75,-221.63"/>
</a>
</g>
</g>
<!-- Node316 -->
<g id="Node000316" class="node">
<title>Node316</title>
<g id="a_Node000316"><a xlink:href="kest__ui_8c.html#aab9f2e82d67858edd53fd09370687007" target="_top" xlink:title=" ">
<polygon fill="white" stroke="#666666" points="231.88,-171.51 146.88,-171.51 146.88,-150.76 231.88,-150.76 231.88,-171.51"/>
<text xml:space="preserve" text-anchor="middle" x="189.38" y="-158.01" font-family="Helvetica,sans-Serif" font-size="10.00">enter_ui_page</text>
</a>
</g>
</g>
<!-- Node1&#45;&gt;Node316 -->
<g id="edge29_Node000001_Node000316" class="edge">
<title>Node1&#45;&gt;Node316</title>
<g id="a_edge29_Node000001_Node000316"><a xlink:title=" ">
<path fill="none" stroke="#63b8ff" d="M71.7,-207.28C94.04,-198.44 125.81,-185.88 150.56,-176.09"/>
<polygon fill="#63b8ff" stroke="#63b8ff" points="151.61,-179.44 159.62,-172.51 149.04,-172.93 151.61,-179.44"/>
</a>
</g>
</g>
<!-- Node3 -->
<g id="Node000003" class="node">
<title>Node3</title>
<g id="a_Node000003"><a xlink:href="kest__sequence__list_8c.html#a0350526aca07d7cc68e8325cf0b1f02c" target="_top" xlink:title=" ">
<polygon fill="white" stroke="#666666" points="613.75,-64.88 480,-64.88 480,-31.38 613.75,-31.38 613.75,-64.88"/>
<text xml:space="preserve" text-anchor="start" x="488" y="-51.38" font-family="Helvetica,sans-Serif" font-size="10.00">create_sequence_listing</text>
<text xml:space="preserve" text-anchor="middle" x="546.88" y="-38.63" font-family="Helvetica,sans-Serif" font-size="10.00">_menu_item</text>
</a>
</g>
</g>
<!-- Node2&#45;&gt;Node3 -->
<g id="edge2_Node000002_Node000003" class="edge">
<title>Node2&#45;&gt;Node3</title>
<g id="a_edge2_Node000002_Node000003"><a xlink:title=" ">
<path fill="none" stroke="#63b8ff" d="M242.98,-255.27C312.73,-240.65 427.91,-215.74 435,-209.13 474.79,-172.03 437.26,-134.81 471,-92.13 477.46,-83.97 485.87,-77.01 494.73,-71.2"/>
<polygon fill="#63b8ff" stroke="#63b8ff" points="496.38,-74.28 503.14,-66.12 492.77,-68.29 496.38,-74.28"/>
</a>
</g>
</g>
<!-- Node8 -->
<g id="Node000008" class="node">
<title>Node8</title>
<g id="a_Node000008"><a xlink:href="kest__menu_8c.html#a32a51795f1b204927f10b268fc1e9ce2" target="_top" xlink:title=" ">
<polygon fill="white" stroke="#666666" points="608.88,-397.51 484.88,-397.51 484.88,-376.76 608.88,-376.76 608.88,-397.51"/>
<text xml:space="preserve" text-anchor="middle" x="546.88" y="-384.01" font-family="Helvetica,sans-Serif" font-size="10.00">menu_page_add_item</text>
</a>
</g>
</g>
<!-- Node2&#45;&gt;Node8 -->
<g id="edge8_Node000002_Node000008" class="edge">
<title>Node2&#45;&gt;Node8</title>
<g id="a_edge8_Node000002_Node000008"><a xlink:title=" ">
<path fill="none" stroke="#63b8ff" d="M222.24,-276.98C286.43,-298.83 431.33,-348.15 503.45,-372.69"/>
<polygon fill="#63b8ff" stroke="#63b8ff" points="501.93,-375.87 512.52,-375.78 504.19,-369.25 501.93,-375.87"/>
</a>
</g>
</g>
<!-- Node9 -->
<g id="Node000009" class="node">
<title>Node9</title>
<g id="a_Node000009"><a xlink:href="kest__ui_8c.html#a01360963fabe989a816b58c78cbc041b" target="_top" xlink:title=" ">
<polygon fill="white" stroke="#666666" points="397.88,-414.51 329.38,-414.51 329.38,-393.76 397.88,-393.76 397.88,-414.51"/>
<text xml:space="preserve" text-anchor="middle" x="363.62" y="-401.01" font-family="Helvetica,sans-Serif" font-size="10.00">new_panel</text>
</a>
</g>
</g>
<!-- Node2&#45;&gt;Node9 -->
<g id="edge9_Node000002_Node000009" class="edge">
<title>Node2&#45;&gt;Node9</title>
<g id="a_edge9_Node000002_Node000009"><a xlink:title=" ">
<path fill="none" stroke="#63b8ff" d="M200.84,-276.82C218.74,-294.82 256.72,-331.88 292.25,-359.13 305.55,-369.33 321.18,-379.49 334.32,-387.57"/>
<polygon fill="#63b8ff" stroke="#63b8ff" points="332.15,-390.35 342.52,-392.53 335.77,-384.36 332.15,-390.35"/>
</a>
</g>
</g>
<!-- Node11 -->
<g id="Node000011" class="node">
<title>Node11</title>
<g id="a_Node000011"><a xlink:href="kest__sequence__list_8c.html#ac9d222d7405758d9f4edfeabe4c6200e" target="_top" xlink:title=" ">
<polygon fill="white" stroke="#666666" points="424.88,-276.51 302.38,-276.51 302.38,-255.76 424.88,-255.76 424.88,-276.51"/>
<text xml:space="preserve" text-anchor="middle" x="363.62" y="-263.01" font-family="Helvetica,sans-Serif" font-size="10.00">sequence_list_add_cb</text>
</a>
</g>
</g>
<!-- Node2&#45;&gt;Node11 -->
<g id="edge12_Node000002_Node000011" class="edge">
<title>Node2&#45;&gt;Node11</title>
<g id="a_edge12_Node000002_Node000011"><a xlink:title=" ">
<path fill="none" stroke="#63b8ff" d="M256.48,-266.13C267.72,-266.13 279.45,-266.13 290.83,-266.13"/>
<polygon fill="#63b8ff" stroke="#63b8ff" points="290.55,-269.63 300.55,-266.13 290.55,-262.63 290.55,-269.63"/>
</a>
</g>
</g>
<!-- Node35 -->
<g id="Node000035" class="node">
<title>Node35</title>
<g id="a_Node000035"><a xlink:href="kest__ui_8c.html#a349acdb394f97d782e6b5828af856b05" target="_top" xlink:title=" ">
<polygon fill="#fff0f0" stroke="red" points="435,-200.51 292.25,-200.51 292.25,-179.76 435,-179.76 435,-200.51"/>
<text xml:space="preserve" text-anchor="middle" x="363.62" y="-187.01" font-family="Helvetica,sans-Serif" font-size="10.00">ui_page_add_back_button</text>
</a>
</g>
</g>
<!-- Node2&#45;&gt;Node35 -->
<g id="edge26_Node000002_Node000035" class="edge">
<title>Node2&#45;&gt;Node35</title>
<g id="a_edge26_Node000002_Node000035"><a xlink:title=" ">
<path fill="none" stroke="#63b8ff" d="M217.42,-255.34C229.51,-250.23 243.8,-243.8 256.25,-237.13 272.99,-228.17 275.14,-222.37 292.25,-214.13 299.37,-210.71 307.1,-207.55 314.75,-204.73"/>
<polygon fill="#63b8ff" stroke="#63b8ff" points="315.74,-208.09 324.01,-201.47 313.41,-201.49 315.74,-208.09"/>
</a>
</g>
</g>
<!-- Node114 -->
<g id="Node000114" class="node">
<title>Node114</title>
<g id="a_Node000114"><a xlink:href="kest__ui_8c.html#a446fd8da13243be96d2ce6a5ff1f1f7b" target="_top" xlink:title=" ">
<polygon fill="#fff0f0" stroke="red" points="422.62,-465.88 304.62,-465.88 304.62,-432.38 422.62,-432.38 422.62,-465.88"/>
<text xml:space="preserve" text-anchor="start" x="312.62" y="-452.38" font-family="Helvetica,sans-Serif" font-size="10.00">ui_page_add_bottom</text>
<text xml:space="preserve" text-anchor="middle" x="363.62" y="-439.63" font-family="Helvetica,sans-Serif" font-size="10.00">_button</text>
</a>
</g>
</g>
<!-- Node2&#45;&gt;Node114 -->
<g id="edge27_Node000002_Node000114" class="edge">
<title>Node2&#45;&gt;Node114</title>
<g id="a_edge27_Node000002_Node000114"><a xlink:title=" ">
<path fill="none" stroke="#63b8ff" d="M194.53,-276.98C205.86,-305.14 239.98,-381.33 292.25,-423.13 293.55,-424.18 294.9,-425.18 296.29,-426.15"/>
<polygon fill="#63b8ff" stroke="#63b8ff" points="294.25,-429 304.62,-431.19 297.88,-423.02 294.25,-429"/>
</a>
</g>
</g>
<!-- Node4 -->
<g id="Node000004" class="node">
<title>Node4</title>
<g id="a_Node000004"><a xlink:href="kest__menu_8c.html#a1449503a7d3ba86031fa4c9f7b70649e" target="_top" xlink:title=" ">
<polygon fill="white" stroke="#666666" points="795.5,-148.51 703,-148.51 703,-127.76 795.5,-127.76 795.5,-148.51"/>
<text xml:space="preserve" text-anchor="middle" x="749.25" y="-135.01" font-family="Helvetica,sans-Serif" font-size="10.00">init_menu_item</text>
</a>
</g>
</g>
<!-- Node3&#45;&gt;Node4 -->
<g id="edge3_Node000003_Node000004" class="edge">
<title>Node3&#45;&gt;Node4</title>
<g id="a_edge3_Node000003_Node000004"><a xlink:title=" ">
<path fill="none" stroke="#63b8ff" d="M598.25,-65.34C606.78,-69.26 615.28,-73.86 622.75,-79.13 642.28,-92.94 638.04,-107.18 658.75,-119.13 668.65,-124.85 680.07,-128.86 691.36,-131.66"/>
<polygon fill="#63b8ff" stroke="#63b8ff" points="690.55,-135.07 701.07,-133.76 692.03,-128.23 690.55,-135.07"/>
</a>
</g>
</g>
<!-- Node5 -->
<g id="Node000005" class="node">
<title>Node5</title>
<g id="a_Node000005"><a xlink:href="kest__alloc_8c.html#a849755c5dc5b35e712ffcdb602e50fb4" target="_top" xlink:title=" ">
<polygon fill="white" stroke="#666666" points="940.5,-226.51 875.75,-226.51 875.75,-205.76 940.5,-205.76 940.5,-226.51"/>
<text xml:space="preserve" text-anchor="middle" x="908.12" y="-213.01" font-family="Helvetica,sans-Serif" font-size="10.00">kest_alloc</text>
</a>
</g>
</g>
<!-- Node3&#45;&gt;Node5 -->
<g id="edge4_Node000003_Node000005" class="edge">
<title>Node3&#45;&gt;Node5</title>
<g id="a_edge4_Node000003_Node000005"><a xlink:title=" ">
<path fill="none" stroke="#63b8ff" d="M587.98,-30.97C648.51,-8.02 764.13,24 839.75,-29.13 894.02,-67.26 904.78,-153.55 906.77,-194.18"/>
<polygon fill="#63b8ff" stroke="#63b8ff" points="903.27,-194.27 907.1,-204.14 910.27,-194.03 903.27,-194.27"/>
</a>
</g>
</g>
<!-- Node6 -->
<g id="Node000006" class="node">
<title>Node6</title>
<g id="a_Node000006"><a xlink:href="kest__sequence_8c.html#ad26e9912e9cca6e9a6e9c34f58eb5200" target="_top" xlink:title=" ">
<polygon fill="white" stroke="#666666" points="821.38,-109.88 677.12,-109.88 677.12,-76.38 821.38,-76.38 821.38,-109.88"/>
<text xml:space="preserve" text-anchor="start" x="685.12" y="-96.38" font-family="Helvetica,sans-Serif" font-size="10.00">kest_sequence_add_menu</text>
<text xml:space="preserve" text-anchor="middle" x="749.25" y="-83.63" font-family="Helvetica,sans-Serif" font-size="10.00">_listing</text>
</a>
</g>
</g>
<!-- Node3&#45;&gt;Node6 -->
<g id="edge5_Node000003_Node000006" class="edge">
<title>Node3&#45;&gt;Node6</title>
<g id="a_edge5_Node000003_Node000006"><a xlink:title=" ">
<path fill="none" stroke="#63b8ff" d="M614.04,-62.99C630.5,-66.69 648.35,-70.7 665.49,-74.55"/>
<polygon fill="#63b8ff" stroke="#63b8ff" points="664.63,-77.94 675.16,-76.72 666.17,-71.11 664.63,-77.94"/>
</a>
</g>
</g>
<!-- Node7 -->
<g id="Node000007" class="node">
<title>Node7</title>
<g id="a_Node000007"><a xlink:href="kest__alloc_8c.html#aed9ede1276c1ab3b4042c264ce64a3d2" target="_top" xlink:title=" ">
<polygon fill="white" stroke="#666666" points="788.38,-58.51 710.12,-58.51 710.12,-37.76 788.38,-37.76 788.38,-58.51"/>
<text xml:space="preserve" text-anchor="middle" x="749.25" y="-45.01" font-family="Helvetica,sans-Serif" font-size="10.00">kest_strndup</text>
</a>
</g>
</g>
<!-- Node3&#45;&gt;Node7 -->
<g id="edge6_Node000003_Node000007" class="edge">
<title>Node3&#45;&gt;Node7</title>
<g id="a_edge6_Node000003_Node000007"><a xlink:title=" ">
<path fill="none" stroke="#63b8ff" d="M614.04,-48.13C641.52,-48.13 672.88,-48.13 698.37,-48.13"/>
<polygon fill="#63b8ff" stroke="#63b8ff" points="698.12,-51.63 708.12,-48.13 698.12,-44.63 698.12,-51.63"/>
</a>
</g>
</g>
<!-- Node7&#45;&gt;Node5 -->
<g id="edge7_Node000007_Node000005" class="edge">
<title>Node7&#45;&gt;Node5</title>
<g id="a_edge7_Node000007_Node000005"><a xlink:title=" ">
<path fill="none" stroke="#63b8ff" d="M788.84,-48.65C806.01,-50.68 825.52,-55.68 839.75,-67.13 880.15,-99.65 897.2,-161.62 903.65,-194.46"/>
<polygon fill="#63b8ff" stroke="#63b8ff" points="900.15,-194.79 905.37,-204.01 907.04,-193.55 900.15,-194.79"/>
</a>
</g>
</g>
<!-- Node9&#45;&gt;Node5 -->
<g id="edge11_Node000009_Node000005" class="edge">
<title>Node9&#45;&gt;Node5</title>
<g id="a_edge11_Node000009_Node000005"><a xlink:title=" ">
<path fill="none" stroke="#63b8ff" d="M398.25,-410.51C482.94,-424.53 707.68,-448.76 839.75,-341.13 873.05,-314 892.23,-265.91 901.08,-237.95"/>
<polygon fill="#63b8ff" stroke="#63b8ff" points="904.42,-239.02 903.92,-228.44 897.71,-237.02 904.42,-239.02"/>
</a>
</g>
</g>
<!-- Node10 -->
<g id="Node000010" class="node">
<title>Node10</title>
<g id="a_Node000010"><a xlink:href="kest__ui_8c.html#a574d886c7fb2ce9bcf04b4a1e94576ac" target="_top" xlink:title=" ">
<polygon fill="white" stroke="#666666" points="578.88,-473.51 514.88,-473.51 514.88,-452.76 578.88,-452.76 578.88,-473.51"/>
<text xml:space="preserve" text-anchor="middle" x="546.88" y="-460.01" font-family="Helvetica,sans-Serif" font-size="10.00">init_panel</text>
</a>
</g>
</g>
<!-- Node9&#45;&gt;Node10 -->
<g id="edge10_Node000009_Node000010" class="edge">
<title>Node9&#45;&gt;Node10</title>
<g id="a_edge10_Node000009_Node000010"><a xlink:title=" ">
<path fill="none" stroke="#63b8ff" d="M398.24,-412.08C409.99,-415.15 423.19,-418.95 435,-423.13 451.5,-428.99 454.64,-432.9 471,-439.13 481.51,-443.14 493.01,-447.05 503.77,-450.52"/>
<polygon fill="#63b8ff" stroke="#63b8ff" points="502.62,-453.82 513.21,-453.5 504.72,-447.15 502.62,-453.82"/>
</a>
</g>
</g>
<!-- Node11&#45;&gt;Node3 -->
<g id="edge15_Node000011_Node000003" class="edge">
<title>Node11&#45;&gt;Node3</title>
<g id="a_edge15_Node000011_Node000003"><a xlink:title=" ">
<path fill="none" stroke="#63b8ff" d="M416.84,-255.29C423.67,-252 430.01,-247.71 435,-242.13 484.46,-186.84 423.33,-135.98 471,-79.13 473.23,-76.47 475.73,-74.03 478.43,-71.8"/>
<polygon fill="#63b8ff" stroke="#63b8ff" points="480.19,-74.84 486.36,-66.23 476.17,-69.11 480.19,-74.84"/>
</a>
</g>
</g>
<!-- Node11&#45;&gt;Node8 -->
<g id="edge24_Node000011_Node000008" class="edge">
<title>Node11&#45;&gt;Node8</title>
<g id="a_edge24_Node000011_Node000008"><a xlink:title=" ">
<path fill="none" stroke="#63b8ff" d="M376.06,-276.68C402.98,-301.48 468.26,-361.55 471,-363.13 477.12,-366.68 483.84,-369.77 490.65,-372.45"/>
<polygon fill="#63b8ff" stroke="#63b8ff" points="489.36,-375.71 499.95,-375.81 491.74,-369.12 489.36,-375.71"/>
</a>
</g>
</g>
<!-- Node12 -->
<g id="Node000012" class="node">
<title>Node12</title>
<g id="a_Node000012"><a xlink:href="kest__menu_8c.html#aa44b42640611d3ca75f6b55206ebd08e" target="_top" xlink:title=" ">
<polygon fill="#fff0f0" stroke="red" points="810.12,-187.51 688.38,-187.51 688.38,-166.76 810.12,-166.76 810.12,-187.51"/>
<text xml:space="preserve" text-anchor="middle" x="749.25" y="-174.01" font-family="Helvetica,sans-Serif" font-size="10.00">create_menu_item_ui</text>
</a>
</g>
</g>
<!-- Node11&#45;&gt;Node12 -->
<g id="edge13_Node000011_Node000012" class="edge">
<title>Node11&#45;&gt;Node12</title>
<g id="a_edge13_Node000011_Node000012"><a xlink:title=" ">
<path fill="none" stroke="#63b8ff" d="M415.78,-255.29C422.92,-252 429.63,-247.72 435,-242.13 473.88,-201.69 426.02,-154.68 471,-121.13 525.06,-80.81 560.44,-95.32 622.75,-121.13 643.66,-129.79 638.92,-146.23 658.75,-157.13 664.56,-160.33 670.85,-163.01 677.3,-165.27"/>
<polygon fill="#63b8ff" stroke="#63b8ff" points="676.24,-168.6 686.83,-168.22 678.32,-161.92 676.24,-168.6"/>
</a>
</g>
</g>
<!-- Node28 -->
<g id="Node000028" class="node">
<title>Node28</title>
<g id="a_Node000028"><a xlink:href="kest__sequence__view_8c.html#a6dd883651c2a7ff92c5ad28755953e91" target="_top" xlink:title=" ">
<polygon fill="#fff0f0" stroke="red" points="822.12,-332.51 676.38,-332.51 676.38,-311.76 822.12,-311.76 822.12,-332.51"/>
<text xml:space="preserve" text-anchor="middle" x="749.25" y="-319.01" font-family="Helvetica,sans-Serif" font-size="10.00">create_sequence_view_for</text>
</a>
</g>
</g>
<!-- Node11&#45;&gt;Node28 -->
<g id="edge16_Node000011_Node000028" class="edge">
<title>Node11&#45;&gt;Node28</title>
<g id="a_edge16_Node000011_Node000028"><a xlink:title=" ">
<path fill="none" stroke="#63b8ff" d="M385.15,-276.86C406.1,-287.23 439.87,-302.32 471,-309.13 535.08,-323.16 609.4,-325.95 664.95,-325.48"/>
<polygon fill="#63b8ff" stroke="#63b8ff" points="664.69,-328.98 674.65,-325.36 664.6,-321.98 664.69,-328.98"/>
</a>
</g>
</g>
<!-- Node309 -->
<g id="Node000309" class="node">
<title>Node309</title>
<g id="a_Node000309"><a xlink:href="kest__context_8c.html#ab67ff484aaa334c1425d4a580d645027" target="_top" xlink:title=" ">
<polygon fill="#fff0f0" stroke="red" points="833.38,-279.51 665.12,-279.51 665.12,-258.76 833.38,-258.76 833.38,-279.51"/>
<text xml:space="preserve" text-anchor="middle" x="749.25" y="-266.01" font-family="Helvetica,sans-Serif" font-size="10.00">kest_context_add_sequence_rp</text>
</a>
</g>
</g>
<!-- Node11&#45;&gt;Node309 -->
<g id="edge18_Node000011_Node000309" class="edge">
<title>Node11&#45;&gt;Node309</title>
<g id="a_edge18_Node000011_Node000309"><a xlink:title=" ">
<path fill="none" stroke="#63b8ff" d="M399.69,-276.95C420.25,-282.72 446.84,-289.22 471,-292.13 537.96,-300.2 555.58,-298.24 622.75,-292.13 644.62,-290.15 668.37,-286.25 689.27,-282.22"/>
<polygon fill="#63b8ff" stroke="#63b8ff" points="689.95,-285.65 699.07,-280.27 688.58,-278.79 689.95,-285.65"/>
</a>
</g>
</g>
<!-- Node312 -->
<g id="Node000312" class="node">
<title>Node312</title>
<g id="a_Node000312"><a xlink:href="kest__context_8c.html#afeccb4dd20b458f755bcdcb268a25dc9" target="_top" xlink:title=" ">
<polygon fill="white" stroke="#666666" points="611.5,-282.88 482.25,-282.88 482.25,-249.38 611.5,-249.38 611.5,-282.88"/>
<text xml:space="preserve" text-anchor="start" x="490.25" y="-269.38" font-family="Helvetica,sans-Serif" font-size="10.00">kest_cxt_get_sequence</text>
<text xml:space="preserve" text-anchor="middle" x="546.88" y="-256.63" font-family="Helvetica,sans-Serif" font-size="10.00">_count</text>
</a>
</g>
</g>
<!-- Node11&#45;&gt;Node312 -->
<g id="edge20_Node000011_Node000312" class="edge">
<title>Node11&#45;&gt;Node312</title>
<g id="a_edge20_Node000011_Node000312"><a xlink:title=" ">
<path fill="none" stroke="#63b8ff" d="M425.23,-266.13C439.75,-266.13 455.42,-266.13 470.51,-266.13"/>
<polygon fill="#63b8ff" stroke="#63b8ff" points="470.4,-269.63 480.4,-266.13 470.4,-262.63 470.4,-269.63"/>
</a>
</g>
</g>
<!-- Node265 -->
<g id="Node000265" class="node">
<title>Node265</title>
<g id="a_Node000265"><a xlink:href="kest__file__task_8c.html#a7f1f6a897d2842e801c0452565bdc44c" target="_top" xlink:title=" ">
<polygon fill="white" stroke="#666666" points="622.75,-231.51 471,-231.51 471,-210.76 622.75,-210.76 622.75,-231.51"/>
<text xml:space="preserve" text-anchor="middle" x="546.88" y="-218.01" font-family="Helvetica,sans-Serif" font-size="10.00">kest_queue_sequence_save</text>
</a>
</g>
</g>
<!-- Node11&#45;&gt;Node265 -->
<g id="edge21_Node000011_Node000265" class="edge">
<title>Node11&#45;&gt;Node265</title>
<g id="a_edge21_Node000011_Node000265"><a xlink:title=" ">
<path fill="none" stroke="#63b8ff" d="M408.04,-255.36C432.96,-249.17 464.5,-241.34 491.12,-234.73"/>
<polygon fill="#63b8ff" stroke="#63b8ff" points="491.86,-238.15 500.72,-232.35 490.17,-231.36 491.86,-238.15"/>
</a>
</g>
</g>
<!-- Node313 -->
<g id="Node000313" class="node">
<title>Node313</title>
<g id="a_Node000313"><a xlink:href="kest__sequence_8c.html#a3028547146c1c4782fe84abcc36ebb03" target="_top" xlink:title=" ">
<polygon fill="white" stroke="#666666" points="839.75,-226.51 658.75,-226.51 658.75,-205.76 839.75,-205.76 839.75,-226.51"/>
<text xml:space="preserve" text-anchor="middle" x="749.25" y="-213.01" font-family="Helvetica,sans-Serif" font-size="10.00">kest_sequence_set_default_name</text>
</a>
</g>
</g>
<!-- Node11&#45;&gt;Node313 -->
<g id="edge22_Node000011_Node000313" class="edge">
<title>Node11&#45;&gt;Node313</title>
<g id="a_edge22_Node000011_Node000313"><a xlink:title=" ">
<path fill="none" stroke="#63b8ff" d="M414.29,-255.37C421.88,-252.06 429.12,-247.76 435,-242.13 466.73,-211.78 434.73,-174.89 471,-150.13 526.71,-112.11 562.12,-120.59 622.75,-150.13 646.09,-161.51 636.8,-182.27 658.75,-196.13 661.53,-197.89 664.44,-199.49 667.44,-200.95"/>
<polygon fill="#63b8ff" stroke="#63b8ff" points="665.99,-204.14 676.56,-204.81 668.72,-197.69 665.99,-204.14"/>
</a>
</g>
</g>
<!-- Node314 -->
<g id="Node000314" class="node">
<title>Node314</title>
<g id="a_Node000314"><a xlink:href="kest__sequence__list_8c.html#adf2cd426c7b7f2402c75e3a93cee4105" target="_top" xlink:title=" ">
<polygon fill="white" stroke="#666666" points="612.25,-192.88 481.5,-192.88 481.5,-159.38 612.25,-159.38 612.25,-192.88"/>
<text xml:space="preserve" text-anchor="start" x="489.5" y="-179.38" font-family="Helvetica,sans-Serif" font-size="10.00">sequence_listing_menu</text>
<text xml:space="preserve" text-anchor="middle" x="546.88" y="-166.63" font-family="Helvetica,sans-Serif" font-size="10.00">_item_refresh_active</text>
</a>
</g>
</g>
<!-- Node11&#45;&gt;Node314 -->
<g id="edge25_Node000011_Node000314" class="edge">
<title>Node11&#45;&gt;Node314</title>
<g id="a_edge25_Node000011_Node000314"><a xlink:title=" ">
<path fill="none" stroke="#63b8ff" d="M407.56,-255.37C417.03,-251.96 426.7,-247.61 435,-242.13 454.96,-228.96 451.07,-215.36 471,-202.13 472.85,-200.91 474.76,-199.73 476.72,-198.61"/>
<polygon fill="#63b8ff" stroke="#63b8ff" points="478.23,-201.77 485.52,-194.08 475.03,-195.54 478.23,-201.77"/>
</a>
</g>
</g>
<!-- Node12&#45;&gt;Node5 -->
<g id="edge14_Node000012_Node000005" class="edge">
<title>Node12&#45;&gt;Node5</title>
<g id="a_edge14_Node000012_Node000005"><a xlink:title=" ">
<path fill="none" stroke="#63b8ff" d="M801.01,-187.97C813.69,-190.82 827.25,-193.98 839.75,-197.13 847.77,-199.16 856.29,-201.45 864.47,-203.72"/>
<polygon fill="#63b8ff" stroke="#63b8ff" points="863.32,-207.03 873.89,-206.38 865.21,-200.3 863.32,-207.03"/>
</a>
</g>
</g>
<!-- Node28&#45;&gt;Node5 -->
<g id="edge17_Node000028_Node000005" class="edge">
<title>Node28&#45;&gt;Node5</title>
<g id="a_edge17_Node000028_Node000005"><a xlink:title=" ">
<path fill="none" stroke="#63b8ff" d="M790.01,-311.36C806.24,-305.89 824.7,-298.23 839.75,-288.13 860.94,-273.92 880.3,-251.85 892.77,-235.89"/>
<polygon fill="#63b8ff" stroke="#63b8ff" points="895.44,-238.16 898.69,-228.07 889.86,-233.93 895.44,-238.16"/>
</a>
</g>
</g>
<!-- Node309&#45;&gt;Node5 -->
<g id="edge19_Node000309_Node000005" class="edge">
<title>Node309&#45;&gt;Node5</title>
<g id="a_edge19_Node000309_Node000005"><a xlink:title=" ">
<path fill="none" stroke="#63b8ff" d="M782.37,-258.28C806.14,-250.25 838.74,-239.24 864.66,-230.48"/>
<polygon fill="#63b8ff" stroke="#63b8ff" points="865.52,-233.88 873.88,-227.37 863.28,-227.25 865.52,-233.88"/>
</a>
</g>
</g>
<!-- Node313&#45;&gt;Node5 -->
<g id="edge23_Node000313_Node000005" class="edge">
<title>Node313&#45;&gt;Node5</title>
<g id="a_edge23_Node000313_Node000005"><a xlink:title=" ">
<path fill="none" stroke="#63b8ff" d="M840.14,-216.13C848.41,-216.13 856.5,-216.13 864.04,-216.13"/>
<polygon fill="#63b8ff" stroke="#63b8ff" points="863.87,-219.63 873.87,-216.13 863.87,-212.63 863.87,-219.63"/>
</a>
</g>
</g>
<!-- Node20 -->
<g id="Node000020" class="node">
<title>Node20</title>
<g id="a_Node000020"><a xlink:href="kest__file__task_8c.html#adfaf58014af5199e2822cba19b1d778c" target="_top" xlink:title=" ">
<polygon fill="#fff0f0" stroke="red" points="428.62,-161.51 298.62,-161.51 298.62,-140.76 428.62,-140.76 428.62,-161.51"/>
<text xml:space="preserve" text-anchor="middle" x="363.62" y="-148.01" font-family="Helvetica,sans-Serif" font-size="10.00">kest_queue_state_save</text>
</a>
</g>
</g>
<!-- Node316&#45;&gt;Node20 -->
<g id="edge30_Node000316_Node000020" class="edge">
<title>Node316&#45;&gt;Node20</title>
<g id="a_edge30_Node000316_Node000020"><a xlink:title=" ">
<path fill="none" stroke="#63b8ff" d="M232.07,-158.71C248.64,-157.75 268.23,-156.61 287.13,-155.52"/>
<polygon fill="#63b8ff" stroke="#63b8ff" points="287.16,-159.02 296.94,-154.95 286.76,-152.03 287.16,-159.02"/>
</a>
</g>
</g>
</g>
</svg>

<g id="navigator" transform="translate(0 0)" fill="#404254">
  <rect fill="#f2f5e9" fill-opacity="0.5" stroke="#606060" stroke-width=".5" x="0" y="0" width="60" height="60"/>
  <use id="zoomplus" xlink:href="#zoomPlus" x="17" y="9" onmousedown="handleZoom(evt,'in')"/>
  <use id="zoomminus" xlink:href="#zoomMin" x="42" y="9" onmousedown="handleZoom(evt,'out')"/>
  <use id="reset" xlink:href="#resetDef" x="30" y="36" onmousedown="handleReset()"/>
   <use id="arrowup" xlink:href="#arrowUp" x="0" y="0" onmousedown="handlePan(0,-1)"/>
  <use id="arrowright" xlink:href="#arrowRight" x="0" y="0" onmousedown="handlePan(1,0)"/>
  <use id="arrowdown" xlink:href="#arrowDown" x="0" y="0" onmousedown="handlePan(0,1)"/>
  <use id="arrowleft" xlink:href="#arrowLeft" x="0" y="0" onmousedown="handlePan(-1,0)"/>
</g>
<svg viewBox="0 0 15 15" width="100%" height="30px" preserveAspectRatio="xMaxYMin meet">
 <g id="arrow_out" transform="scale(0.3 0.3)">
  <a xlink:href="kest__ui_8h_ac4b49754b0a8d3df4343e742d6899872_cgraph_org.svg" target="_base">
   <rect id="button" ry="5" rx="5" y="6" x="6" height="38" width="38"
        fill="#f2f5e9" fill-opacity="0.5" stroke="#606060" stroke-width="1.0"/>
   <path id="arrow"
     d="M 11.500037,31.436501 C 11.940474,20.09759 22.043105,11.32322 32.158766,21.979434 L 37.068811,17.246167 C 37.068811,17.246167 37.088388,32 37.088388,32 L 22.160133,31.978069 C 22.160133,31.978069 26.997745,27.140456 26.997745,27.140456 C 18.528582,18.264221 13.291696,25.230495 11.500037,31.436501 z"
     style="fill:#404040;"/>
  </a>
 </g>
</svg>

<style type='text/css'>
<![CDATA[
[data-mouse-over-selected='false'] { opacity: 0.7; }
[data-mouse-over-selected='true']  { opacity: 1.0; }
]]>
</style>
<script type="application/ecmascript"><![CDATA[
document.addEventListener('DOMContentLoaded', (event) => {
  highlightEdges();
  highlightAdjacentNodes();
});
]]></script>
</svg>
