<?xml version="1.0" encoding="UTF-8" standalone="no"?>
<!DOCTYPE svg PUBLIC "-//W3C//DTD SVG 1.1//EN"
 "http://www.w3.org/Graphics/SVG/1.1/DTD/svg11.dtd">
<!-- Generated by graphviz version 13.1.2 (20250808.2320)
 -->
<!-- Title: kest_effect_clear_updates Pages: 1 -->
<svg width="469pt" height="68pt"
 viewBox="0.00 0.00 469.00 68.00" xmlns="http://www.w3.org/2000/svg" xmlns:xlink="http://www.w3.org/1999/xlink">
<g id="graph0" class="graph" transform="scale(1 1) rotate(0) translate(4 63.75)">
<title>kest_effect_clear_updates</title>
<!-- Node1 -->
<g id="Node000001" class="node">
<title>Node1</title>
<g id="a_Node000001"><a xlink:title=" ">
<polygon fill="#999999" stroke="#666666" points="143.5,-39.75 0,-39.75 0,-19 143.5,-19 143.5,-39.75"/>
<text xml:space="preserve" text-anchor="middle" x="71.75" y="-26.25" font-family="Helvetica,sans-Serif" font-size="10.00">kest_effect_clear_updates</text>
</a>
</g>
</g>
<!-- Node2 -->
<g id="Node000002" class="node">
<title>Node2</title>
<g id="a_Node000002"><a xlink:href="kest__expr__scope_8c.html#a6329eee07be244ac7c7dd045f6aaa0ac" target="_top" xlink:title=" ">
<polygon fill="white" stroke="#666666" points="323,-39.75 179.5,-39.75 179.5,-19 323,-19 323,-39.75"/>
<text xml:space="preserve" text-anchor="middle" x="251.25" y="-26.25" font-family="Helvetica,sans-Serif" font-size="10.00">kest_scope_clear_updates</text>
</a>
</g>
</g>
<!-- Node1&#45;&gt;Node2 -->
<g id="edge1_Node000001_Node000002" class="edge">
<title>Node1&#45;&gt;Node2</title>
<g id="a_edge1_Node000001_Node000002"><a xlink:title=" ">
<path fill="none" stroke="#63b8ff" d="M143.92,-29.38C151.7,-29.38 159.66,-29.38 167.56,-29.38"/>
<polygon fill="#63b8ff" stroke="#63b8ff" points="167.55,-32.88 177.55,-29.38 167.55,-25.88 167.55,-32.88"/>
</a>
</g>
</g>
<!-- Node3 -->
<g id="Node000003" class="node">
<title>Node3</title>
<g id="a_Node000003"><a xlink:href="kest__expr__scope_8c.html#a4b961bc6e7b1010aacc02440ff92a605" target="_top" xlink:title=" ">
<polygon fill="white" stroke="#666666" points="461.25,-59.75 359,-59.75 359,-39 461.25,-39 461.25,-59.75"/>
<text xml:space="preserve" text-anchor="middle" x="410.12" y="-46.25" font-family="Helvetica,sans-Serif" font-size="10.00">kest_scope_count</text>
</a>
</g>
</g>
<!-- Node2&#45;&gt;Node3 -->
<g id="edge2_Node000002_Node000003" class="edge">
<title>Node2&#45;&gt;Node3</title>
<g id="a_edge2_Node000002_Node000003"><a xlink:title=" ">
<path fill="none" stroke="#63b8ff" d="M323.34,-38.44C331.4,-39.47 339.57,-40.51 347.5,-41.52"/>
<polygon fill="#63b8ff" stroke="#63b8ff" points="347.03,-44.99 357.39,-42.78 347.92,-38.04 347.03,-44.99"/>
</a>
</g>
</g>
<!-- Node4 -->
<g id="Node000004" class="node">
<title>Node4</title>
<g id="a_Node000004"><a xlink:href="kest__expr__scope_8c.html#a003d0a831a549dab0e93c2ad5c82d14e" target="_top" xlink:title=" ">
<polygon fill="white" stroke="#666666" points="461.25,-20.75 359,-20.75 359,0 461.25,0 461.25,-20.75"/>
<text xml:space="preserve" text-anchor="middle" x="410.12" y="-7.25" font-family="Helvetica,sans-Serif" font-size="10.00">kest_scope_index</text>
</a>
</g>
</g>
<!-- Node2&#45;&gt;Node4 -->
<g id="edge3_Node000002_Node000004" class="edge">
<title>Node2&#45;&gt;Node4</title>
<g id="a_edge3_Node000002_Node000004"><a xlink:title=" ">
<path fill="none" stroke="#63b8ff" d="M323.34,-20.76C331.4,-19.79 339.57,-18.8 347.5,-17.84"/>
<polygon fill="#63b8ff" stroke="#63b8ff" points="347.89,-21.32 357.39,-16.64 347.04,-14.37 347.89,-21.32"/>
</a>
</g>
</g>
</g>
</svg>
