<?xml version="1.0" encoding="UTF-8" standalone="no"?>
<!DOCTYPE svg PUBLIC "-//W3C//DTD SVG 1.1//EN"
 "http://www.w3.org/Graphics/SVG/1.1/DTD/svg11.dtd">
<!-- Generated by graphviz version 13.1.2 (20250808.2320)
 -->
<!-- Title: kest_lfo_create Pages: 1 -->
<!--zoomable 96 -->

<svg id="main" version="1.1" xmlns="http://www.w3.org/2000/svg" xmlns:xlink="http://www.w3.org/1999/xlink" xml:space="preserve" onload="init(evt)">

<style type="text/css"><![CDATA[
.node, .edge {opacity: 0.7;}
.node.selected, .edge.selected {opacity: 1;}
.edge:hover path { stroke: red; }
.edge:hover polygon { stroke: red; fill: red; }
]]></style>

<defs>
  <circle id="rim" cx="0" cy="0" r="7"/>
  <circle id="rim2" cx="0" cy="0" r="3.5"/>
  <g id="zoomPlus">
    <use xlink:href="#rim" fill="#404040"><set attributeName="fill" to="#808080" begin="zoomplus.mouseover" end="zoomplus.mouseout"/></use>
    <path d="M-4,0h8M0,-4v8" fill="none" stroke="white" stroke-width="1.5" pointer-events="none"/>
  </g>
  <g id="zoomMin">
    <use xlink:href="#rim" fill="#404040"><set attributeName="fill" to="#808080" begin="zoomminus.mouseover" end="zoomminus.mouseout"/></use>
    <path d="M-4,0h8" fill="none" stroke="white" stroke-width="1.5" pointer-events="none"/>
  </g>
  <g id="arrowUp" transform="translate(30 24)">
    <use xlink:href="#rim"/>
    <path pointer-events="none" fill="none" stroke="white" stroke-width="1.5" d="M0,-3.0v7 M-2.5,-0.5L0,-3.0L2.5,-0.5"/>
  </g>
  <g id="arrowRight" transform="rotate(90) translate(36 -43)">
    <use xlink:href="#rim"/>
    <path pointer-events="none" fill="none" stroke="white" stroke-width="1.5" d="M0,-3.0v7 M-2.5,-0.5L0,-3.0L2.5,-0.5"/>
  </g>
  <g id="arrowDown" transform="rotate(180) translate(-30 -48)">
    <use xlink:href="#rim"/>
    <path pointer-events="none" fill="none" stroke="white" stroke-width="1.5" d="M0,-3.0v7 M-2.5,-0.5L0,-3.0L2.5,-0.5"/>
  </g>
  <g id="arrowLeft" transform="rotate(270) translate(-36 17)">
    <use xlink:href="#rim"/>
    <path pointer-events="none" fill="none" stroke="white" stroke-width="1.5" d="M0,-3.0v7 M-2.5,-0.5L0,-3.0L2.5,-0.5"/>
  </g>
  <g id="resetDef">
    <use xlink:href="#rim2" fill="#404040"><set attributeName="fill" to="#808080" begin="reset.mouseover" end="reset.mouseout"/></use>
  </g>
</defs>
<script type="application/ecmascript">
var viewWidth = 620;
var viewHeight = 96;
var sectionId = 'dynsection-23';
</script>
<script type="application/ecmascript" xlink:href="svg.min.js"/>
<svg id="graph" class="graph">
<g id="viewport">
<title>kest_lfo_create</title>
<!-- Node1 -->
<g id="Node000001" class="node">
<title>Node1</title>
<g id="a_Node000001"><a xlink:title=" ">
<polygon fill="#999999" stroke="#666666" points="612.25,-42.75 522,-42.75 522,-22 612.25,-22 612.25,-42.75"/>
<text xml:space="preserve" text-anchor="middle" x="567.12" y="-29.25" font-family="Helvetica,sans-Serif" font-size="10.00">kest_lfo_create</text>
</a>
</g>
</g>
<!-- Node2 -->
<g id="Node000002" class="node">
<title>Node2</title>
<g id="a_Node000002"><a xlink:href="kest__resource_8c.html#a964d3c690e48fc3c388e56c36c37deca" target="_top" xlink:title=" ">
<polygon fill="white" stroke="#666666" points="486,-63.75 348.5,-63.75 348.5,-43 486,-43 486,-63.75"/>
<text xml:space="preserve" text-anchor="middle" x="417.25" y="-50.25" font-family="Helvetica,sans-Serif" font-size="10.00">kest_dsp_resource_clone</text>
</a>
</g>
</g>
<!-- Node1&#45;&gt;Node2 -->
<g id="edge1_Node000001_Node000002" class="edge">
<title>Node1&#45;&gt;Node2</title>
<g id="a_edge1_Node000001_Node000002"><a xlink:title=" ">
<path fill="none" stroke="#63b8ff" d="M510.49,-40.28C502.62,-41.39 494.45,-42.55 486.38,-43.7"/>
<polygon fill="#63b8ff" stroke="#63b8ff" points="510.85,-43.76 520.26,-38.89 509.87,-36.83 510.85,-43.76"/>
</a>
</g>
</g>
<!-- Node34 -->
<g id="Node000034" class="node">
<title>Node34</title>
<g id="a_Node000034"><a xlink:href="kest__dict__extract_8c.html#a3836d6c45b8868ac642ef43a0c1e89d5" target="_top" xlink:title=" ">
<polygon fill="white" stroke="#666666" points="464.25,-23.75 370.25,-23.75 370.25,-3 464.25,-3 464.25,-23.75"/>
<text xml:space="preserve" text-anchor="middle" x="417.25" y="-10.25" font-family="Helvetica,sans-Serif" font-size="10.00">kest_extract_lfo</text>
</a>
</g>
</g>
<!-- Node1&#45;&gt;Node34 -->
<g id="edge5_Node000001_Node000034" class="edge">
<title>Node1&#45;&gt;Node34</title>
<g id="a_edge5_Node000001_Node000034"><a xlink:title=" ">
<path fill="none" stroke="#63b8ff" d="M510.46,-25.22C495.36,-23.28 479.17,-21.2 464.64,-19.34"/>
<polygon fill="#63b8ff" stroke="#63b8ff" points="509.89,-28.68 520.26,-26.48 510.78,-21.74 509.89,-28.68"/>
</a>
</g>
</g>
<!-- Node3 -->
<g id="Node000003" class="node">
<title>Node3</title>
<g id="a_Node000003"><a xlink:href="kest__resource_8c.html#ac4e799ff7ba19e048f74acbf987eed07" target="_top" xlink:title=" ">
<polygon fill="white" stroke="#666666" points="312.5,-72.12 174.25,-72.12 174.25,-38.62 312.5,-38.62 312.5,-72.12"/>
<text xml:space="preserve" text-anchor="start" x="182.25" y="-58.62" font-family="Helvetica,sans-Serif" font-size="10.00">kest_dsp_resource_make</text>
<text xml:space="preserve" text-anchor="middle" x="243.38" y="-45.88" font-family="Helvetica,sans-Serif" font-size="10.00">_clone</text>
</a>
</g>
</g>
<!-- Node2&#45;&gt;Node3 -->
<g id="edge2_Node000002_Node000003" class="edge">
<title>Node2&#45;&gt;Node3</title>
<g id="a_edge2_Node000002_Node000003"><a xlink:title=" ">
<path fill="none" stroke="#63b8ff" d="M337.03,-54.3C328.98,-54.39 320.86,-54.49 312.94,-54.58"/>
<polygon fill="#63b8ff" stroke="#63b8ff" points="336.85,-57.8 346.81,-54.18 336.77,-50.8 336.85,-57.8"/>
</a>
</g>
</g>
<!-- Node4 -->
<g id="Node000004" class="node">
<title>Node4</title>
<g id="a_Node000004"><a xlink:href="kest__block_8c.html#a4c8583c46d84f07df6eb2c886dbfdb1b" target="_top" xlink:title=" ">
<polygon fill="white" stroke="#666666" points="118.75,-87.75 19.5,-87.75 19.5,-67 118.75,-67 118.75,-87.75"/>
<text xml:space="preserve" text-anchor="middle" x="69.12" y="-74.25" font-family="Helvetica,sans-Serif" font-size="10.00">kest_block_clone</text>
</a>
</g>
</g>
<!-- Node3&#45;&gt;Node4 -->
<g id="edge3_Node000003_Node000004" class="edge">
<title>Node3&#45;&gt;Node4</title>
<g id="a_edge3_Node000003_Node000004"><a xlink:title=" ">
<path fill="none" stroke="#63b8ff" d="M162.55,-65.57C147.73,-67.46 132.66,-69.39 119.1,-71.12"/>
<polygon fill="#63b8ff" stroke="#63b8ff" points="162.82,-69.06 172.3,-64.32 161.94,-62.12 162.82,-69.06"/>
</a>
</g>
</g>
<!-- Node5 -->
<g id="Node000005" class="node">
<title>Node5</title>
<g id="a_Node000005"><a xlink:href="kest__resource_8c.html#aae0c2105bbc588fd039daebe272cd5eb" target="_top" xlink:title=" ">
<polygon fill="#fff0f0" stroke="red" points="138.25,-49.12 0,-49.12 0,-15.62 138.25,-15.62 138.25,-49.12"/>
<text xml:space="preserve" text-anchor="start" x="8" y="-35.62" font-family="Helvetica,sans-Serif" font-size="10.00">kest_dsp_resource_make</text>
<text xml:space="preserve" text-anchor="middle" x="69.12" y="-22.88" font-family="Helvetica,sans-Serif" font-size="10.00">_clone_for_effect</text>
</a>
</g>
</g>
<!-- Node3&#45;&gt;Node5 -->
<g id="edge4_Node000003_Node000005" class="edge">
<title>Node3&#45;&gt;Node5</title>
<g id="a_edge4_Node000003_Node000005"><a xlink:title=" ">
<path fill="none" stroke="#63b8ff" d="M162.61,-44.72C154.63,-43.66 146.59,-42.58 138.74,-41.54"/>
<polygon fill="#63b8ff" stroke="#63b8ff" points="161.93,-48.16 172.3,-46.02 162.85,-41.23 161.93,-48.16"/>
</a>
</g>
</g>
<!-- Node22 -->
<g id="Node000022" class="node">
<title>Node22</title>
<g id="a_Node000022"><a xlink:href="kest__dict__extract_8c.html#a380375dec37f2a914cd428342a6cbfe3" target="_top" xlink:title=" ">
<polygon fill="#fff0f0" stroke="red" points="305,-20.75 181.75,-20.75 181.75,0 305,0 305,-20.75"/>
<text xml:space="preserve" text-anchor="middle" x="243.38" y="-7.25" font-family="Helvetica,sans-Serif" font-size="10.00">kest_extract_resource</text>
</a>
</g>
</g>
<!-- Node34&#45;&gt;Node22 -->
<g id="edge6_Node000034_Node000022" class="edge">
<title>Node34&#45;&gt;Node22</title>
<g id="a_edge6_Node000034_Node000022"><a xlink:title=" ">
<path fill="none" stroke="#63b8ff" d="M359.15,-12.38C341.91,-12.08 322.93,-11.75 305.44,-11.44"/>
<polygon fill="#63b8ff" stroke="#63b8ff" points="358.62,-15.87 368.68,-12.54 358.74,-8.87 358.62,-15.87"/>
</a>
</g>
</g>
</g>
</svg>

<g id="navigator" transform="translate(0 0)" fill="#404254">
  <rect fill="#f2f5e9" fill-opacity="0.5" stroke="#606060" stroke-width=".5" x="0" y="0" width="60" height="60"/>
  <use id="zoomplus" xlink:href="#zoomPlus" x="17" y="9" onmousedown="handleZoom(evt,'in')"/>
  <use id="zoomminus" xlink:href="#zoomMin" x="42" y="9" onmousedown="handleZoom(evt,'out')"/>
  <use id="reset" xlink:href="#resetDef" x="30" y="36" onmousedown="handleReset()"/>
   <use id="arrowup" xlink:href="#arrowUp" x="0" y="0" onmousedown="handlePan(0,-1)"/>
  <use id="arrowright" xlink:href="#arrowRight" x="0" y="0" onmousedown="handlePan(1,0)"/>
  <use id="arrowdown" xlink:href="#arrowDown" x="0" y="0" onmousedown="handlePan(0,1)"/>
  <use id="arrowleft" xlink:href="#arrowLeft" x="0" y="0" onmousedown="handlePan(-1,0)"/>
</g>
<svg viewBox="0 0 15 15" width="100%" height="30px" preserveAspectRatio="xMaxYMin meet">
 <g id="arrow_out" transform="scale(0.3 0.3)">
  <a xlink:href="kest__resource_8c_ae704479b326a28e40d50c7244866d78c_icgraph_org.svg" target="_base">
   <rect id="button" ry="5" rx="5" y="6" x="6" height="38" width="38"
        fill="#f2f5e9" fill-opacity="0.5" stroke="#606060" stroke-width="1.0"/>
   <path id="arrow"
     d="M 11.500037,31.436501 C 11.940474,20.09759 22.043105,11.32322 32.158766,21.979434 L 37.068811,17.246167 C 37.068811,17.246167 37.088388,32 37.088388,32 L 22.160133,31.978069 C 22.160133,31.978069 26.997745,27.140456 26.997745,27.140456 C 18.528582,18.264221 13.291696,25.230495 11.500037,31.436501 z"
     style="fill:#404040;"/>
  </a>
 </g>
</svg>

<style type='text/css'>
<![CDATA[
[data-mouse-over-selected='false'] { opacity: 0.7; }
[data-mouse-over-selected='true']  { opacity: 1.0; }
]]>
</style>
<script type="application/ecmascript"><![CDATA[
document.addEventListener('DOMContentLoaded', (event) => {
  highlightEdges();
  highlightAdjacentNodes();
});
]]></script>
</svg>
