<?xml version="1.0" encoding="UTF-8" standalone="no"?>
<!DOCTYPE svg PUBLIC "-//W3C//DTD SVG 1.1//EN"
 "http://www.w3.org/Graphics/SVG/1.1/DTD/svg11.dtd">
<!-- Generated by graphviz version 13.1.2 (20250808.2320)
 -->
<!-- Title: kest_sequence_update_representations Pages: 1 -->
<svg width="1018pt" height="435pt"
 viewBox="0.00 0.00 1018.00 435.00" xmlns="http://www.w3.org/2000/svg" xmlns:xlink="http://www.w3.org/1999/xlink">
<g id="graph0" class="graph" transform="scale(1 1) rotate(0) translate(4 431.29)">
<title>kest_sequence_update_representations</title>
<!-- Node1 -->
<g id="Node000001" class="node">
<title>Node1</title>
<g id="a_Node000001"><a xlink:title=" ">
<polygon fill="#999999" stroke="#666666" points="1009.5,-234.29 882.5,-234.29 882.5,-200.79 1009.5,-200.79 1009.5,-234.29"/>
<text xml:space="preserve" text-anchor="start" x="890.5" y="-220.79" font-family="Helvetica,sans-Serif" font-size="10.00">kest_sequence_update</text>
<text xml:space="preserve" text-anchor="middle" x="946" y="-208.04" font-family="Helvetica,sans-Serif" font-size="10.00">_representations</text>
</a>
</g>
</g>
<!-- Node2 -->
<g id="Node000002" class="node">
<title>Node2</title>
<g id="a_Node000002"><a xlink:href="kest__sequence_8c.html#ace0fc67b2aadb7bbf73fb1e25daebb4f" target="_top" xlink:title=" ">
<polygon fill="white" stroke="#666666" points="843.12,-337.91 695.12,-337.91 695.12,-317.16 843.12,-317.16 843.12,-337.91"/>
<text xml:space="preserve" text-anchor="middle" x="769.12" y="-324.41" font-family="Helvetica,sans-Serif" font-size="10.00">kest_sequence_activate_at</text>
</a>
</g>
</g>
<!-- Node1&#45;&gt;Node2 -->
<g id="edge1_Node000001_Node000002" class="edge">
<title>Node1&#45;&gt;Node2</title>
<g id="a_edge1_Node000001_Node000002"><a xlink:title=" ">
<path fill="none" stroke="#63b8ff" d="M923.75,-243.32C905.37,-263.95 877.02,-292.07 846.5,-308.54 840.49,-311.78 833.91,-314.48 827.22,-316.73"/>
<polygon fill="#63b8ff" stroke="#63b8ff" points="926.31,-245.7 930.23,-235.86 921.03,-241.11 926.31,-245.7"/>
</a>
</g>
</g>
<!-- Node36 -->
<g id="Node000036" class="node">
<title>Node36</title>
<g id="a_Node000036"><a xlink:href="kest__sequence_8c.html#adf2bc7c26b0bead2b6bd85fcd9bc6248" target="_top" xlink:title=" ">
<polygon fill="white" stroke="#666666" points="829.25,-79.91 709,-79.91 709,-59.16 829.25,-59.16 829.25,-79.91"/>
<text xml:space="preserve" text-anchor="middle" x="769.12" y="-66.41" font-family="Helvetica,sans-Serif" font-size="10.00">kest_sequence_begin</text>
</a>
</g>
</g>
<!-- Node1&#45;&gt;Node36 -->
<g id="edge4_Node000001_Node000036" class="edge">
<title>Node1&#45;&gt;Node36</title>
<g id="a_edge4_Node000001_Node000036"><a xlink:title=" ">
<path fill="none" stroke="#63b8ff" d="M931.32,-190.55C915.07,-161.25 885.21,-115.21 846.5,-89.54 840.9,-85.82 834.65,-82.8 828.2,-80.34"/>
<polygon fill="#63b8ff" stroke="#63b8ff" points="928.15,-192.04 935.97,-199.19 934.31,-188.73 928.15,-192.04"/>
</a>
</g>
</g>
<!-- Node38 -->
<g id="Node000038" class="node">
<title>Node38</title>
<g id="a_Node000038"><a xlink:href="kest__sequence_8c.html#a97e4f82b9caaf6a25f606d1f7f4bad5d" target="_top" xlink:title=" ">
<polygon fill="white" stroke="#666666" points="653.88,-375.91 518.62,-375.91 518.62,-355.16 653.88,-355.16 653.88,-375.91"/>
<text xml:space="preserve" text-anchor="middle" x="586.25" y="-362.41" font-family="Helvetica,sans-Serif" font-size="10.00">kest_sequence_begin_at</text>
</a>
</g>
</g>
<!-- Node1&#45;&gt;Node38 -->
<g id="edge8_Node000001_Node000038" class="edge">
<title>Node1&#45;&gt;Node38</title>
<g id="a_edge8_Node000001_Node000038"><a xlink:title=" ">
<path fill="none" stroke="#63b8ff" d="M932.89,-244.71C917.61,-275.39 888.18,-323.99 846.5,-346.54 787.36,-378.53 709.24,-379.72 654.27,-375.12"/>
<polygon fill="#63b8ff" stroke="#63b8ff" points="935.88,-246.57 937.05,-236.04 929.57,-243.54 935.88,-246.57"/>
</a>
</g>
</g>
<!-- Node39 -->
<g id="Node000039" class="node">
<title>Node39</title>
<g id="a_Node000039"><a xlink:href="kest__sequence_8c.html#a49e4dd6f907ea29abeffe53f2c2357f9" target="_top" xlink:title=" ">
<polygon fill="white" stroke="#666666" points="646.75,-427.29 525.75,-427.29 525.75,-393.79 646.75,-393.79 646.75,-427.29"/>
<text xml:space="preserve" text-anchor="start" x="533.75" y="-413.79" font-family="Helvetica,sans-Serif" font-size="10.00">kest_sequence_move</text>
<text xml:space="preserve" text-anchor="middle" x="586.25" y="-401.04" font-family="Helvetica,sans-Serif" font-size="10.00">_preset</text>
</a>
</g>
</g>
<!-- Node1&#45;&gt;Node39 -->
<g id="edge10_Node000001_Node000039" class="edge">
<title>Node1&#45;&gt;Node39</title>
<g id="a_edge10_Node000001_Node000039"><a xlink:title=" ">
<path fill="none" stroke="#63b8ff" d="M936.04,-245.44C922.76,-281.91 894.15,-344.74 846.5,-375.54 786.8,-414.12 703.21,-418.61 647.24,-416.27"/>
<polygon fill="#63b8ff" stroke="#63b8ff" points="939.33,-246.63 939.32,-236.03 932.72,-244.32 939.33,-246.63"/>
</a>
</g>
</g>
<!-- Node41 -->
<g id="Node000041" class="node">
<title>Node41</title>
<g id="a_Node000041"><a xlink:href="kest__sequence_8c.html#aeb00f5680e32ec797dc50fec38737eec" target="_top" xlink:title=" ">
<polygon fill="white" stroke="#666666" points="834.5,-299.29 703.75,-299.29 703.75,-265.79 834.5,-265.79 834.5,-299.29"/>
<text xml:space="preserve" text-anchor="start" x="711.75" y="-285.79" font-family="Helvetica,sans-Serif" font-size="10.00">kest_sequence_remove</text>
<text xml:space="preserve" text-anchor="middle" x="769.12" y="-273.04" font-family="Helvetica,sans-Serif" font-size="10.00">_preset</text>
</a>
</g>
</g>
<!-- Node1&#45;&gt;Node41 -->
<g id="edge14_Node000001_Node000041" class="edge">
<title>Node1&#45;&gt;Node41</title>
<g id="a_edge14_Node000001_Node000041"><a xlink:title=" ">
<path fill="none" stroke="#63b8ff" d="M892.48,-238.88C877.67,-244.75 861.5,-251.02 846.5,-256.54 838.48,-259.49 829.95,-262.51 821.6,-265.4"/>
<polygon fill="#63b8ff" stroke="#63b8ff" points="893.59,-242.2 901.59,-235.25 891,-235.7 893.59,-242.2"/>
</a>
</g>
</g>
<!-- Node44 -->
<g id="Node000044" class="node">
<title>Node44</title>
<g id="a_Node000044"><a xlink:href="kest__sequence_8c.html#a3b2993ed35376e7c9a4fb0f4496b2757" target="_top" xlink:title=" ">
<polygon fill="white" stroke="#666666" points="826.25,-208.91 712,-208.91 712,-188.16 826.25,-188.16 826.25,-208.91"/>
<text xml:space="preserve" text-anchor="middle" x="769.12" y="-195.41" font-family="Helvetica,sans-Serif" font-size="10.00">kest_sequence_stop</text>
</a>
</g>
</g>
<!-- Node1&#45;&gt;Node44 -->
<g id="edge18_Node000001_Node000044" class="edge">
<title>Node1&#45;&gt;Node44</title>
<g id="a_edge18_Node000001_Node000044"><a xlink:title=" ">
<path fill="none" stroke="#63b8ff" d="M871.09,-209.51C856.17,-207.88 840.72,-206.21 826.52,-204.66"/>
<polygon fill="#63b8ff" stroke="#63b8ff" points="870.54,-212.97 880.86,-210.57 871.29,-206.01 870.54,-212.97"/>
</a>
</g>
</g>
<!-- Node45 -->
<g id="Node000045" class="node">
<title>Node45</title>
<g id="a_Node000045"><a xlink:href="kest__sequence_8c.html#aa5bd7e87e8092fb6f3ddb55771ed97e0" target="_top" xlink:title=" ">
<polygon fill="white" stroke="#666666" points="826.25,-170.29 712,-170.29 712,-136.79 826.25,-136.79 826.25,-170.29"/>
<text xml:space="preserve" text-anchor="start" x="720" y="-156.79" font-family="Helvetica,sans-Serif" font-size="10.00">kest_sequence_stop</text>
<text xml:space="preserve" text-anchor="middle" x="769.12" y="-144.04" font-family="Helvetica,sans-Serif" font-size="10.00">_from_preset</text>
</a>
</g>
</g>
<!-- Node1&#45;&gt;Node45 -->
<g id="edge19_Node000001_Node000045" class="edge">
<title>Node1&#45;&gt;Node45</title>
<g id="a_edge19_Node000001_Node000045"><a xlink:title=" ">
<path fill="none" stroke="#63b8ff" d="M890.79,-196.17C876.43,-190.64 860.92,-184.77 846.5,-179.54 838.47,-176.62 829.93,-173.62 821.58,-170.74"/>
<polygon fill="#63b8ff" stroke="#63b8ff" points="889.5,-199.43 900.09,-199.78 892.03,-192.9 889.5,-199.43"/>
</a>
</g>
</g>
<!-- Node46 -->
<g id="Node000046" class="node">
<title>Node46</title>
<g id="a_Node000046"><a xlink:href="kest__sequence_8c.html#a6f29702a863d4845047fbe7e1da411a1" target="_top" xlink:title=" ">
<polygon fill="white" stroke="#666666" points="839,-118.91 699.25,-118.91 699.25,-98.16 839,-98.16 839,-118.91"/>
<text xml:space="preserve" text-anchor="middle" x="769.12" y="-105.41" font-family="Helvetica,sans-Serif" font-size="10.00">sequence_append_preset</text>
</a>
</g>
</g>
<!-- Node1&#45;&gt;Node46 -->
<g id="edge20_Node000001_Node000046" class="edge">
<title>Node1&#45;&gt;Node46</title>
<g id="a_edge20_Node000001_Node000046"><a xlink:title=" ">
<path fill="none" stroke="#63b8ff" d="M923.69,-192.04C905.28,-171.64 876.91,-143.84 846.5,-127.54 840.48,-124.31 833.9,-121.62 827.2,-119.37"/>
<polygon fill="#63b8ff" stroke="#63b8ff" points="920.94,-194.22 930.18,-199.41 926.2,-189.59 920.94,-194.22"/>
</a>
</g>
</g>
<!-- Node48 -->
<g id="Node000048" class="node">
<title>Node48</title>
<g id="a_Node000048"><a xlink:href="kest__sequence_8c.html#a379c32e926336d9f37795375fc61029a" target="_top" xlink:title=" ">
<polygon fill="white" stroke="#666666" points="846.5,-247.91 691.75,-247.91 691.75,-227.16 846.5,-227.16 846.5,-247.91"/>
<text xml:space="preserve" text-anchor="middle" x="769.12" y="-234.41" font-family="Helvetica,sans-Serif" font-size="10.00">sequence_append_preset_rp</text>
</a>
</g>
</g>
<!-- Node1&#45;&gt;Node48 -->
<g id="edge23_Node000001_Node000048" class="edge">
<title>Node1&#45;&gt;Node48</title>
<g id="a_edge23_Node000001_Node000048"><a xlink:title=" ">
<path fill="none" stroke="#63b8ff" d="M871.18,-225.98C863.18,-226.89 855.02,-227.83 846.98,-228.75"/>
<polygon fill="#63b8ff" stroke="#63b8ff" points="871.32,-229.49 880.86,-224.87 870.52,-222.53 871.32,-229.49"/>
</a>
</g>
</g>
<!-- Node50 -->
<g id="Node000050" class="node">
<title>Node50</title>
<g id="a_Node000050"><a xlink:href="kest__sequence__view_8c.html#a9a770d265f15421aca3cec3f9d758e30" target="_top" xlink:title=" ">
<polygon fill="white" stroke="#666666" points="475.5,-41.91 331.25,-41.91 331.25,-21.16 475.5,-21.16 475.5,-41.91"/>
<text xml:space="preserve" text-anchor="middle" x="403.38" y="-28.41" font-family="Helvetica,sans-Serif" font-size="10.00">sequence_view_set_name</text>
</a>
</g>
</g>
<!-- Node1&#45;&gt;Node50 -->
<g id="edge26_Node000001_Node000050" class="edge">
<title>Node1&#45;&gt;Node50</title>
<g id="a_edge26_Node000001_Node000050"><a xlink:title=" ">
<path fill="none" stroke="#63b8ff" d="M937.56,-189.41C925.59,-150.47 898.03,-81.45 846.5,-50.54 719.02,25.95 531.66,-2.33 447.77,-20.7"/>
<polygon fill="#63b8ff" stroke="#63b8ff" points="934.19,-190.38 940.35,-199 940.91,-188.42 934.19,-190.38"/>
</a>
</g>
</g>
<!-- Node3 -->
<g id="Node000003" class="node">
<title>Node3</title>
<g id="a_Node000003"><a xlink:href="kest__context_8c.html#a68b84bed2c423769deb9e359709d92aa" target="_top" xlink:title=" ">
<polygon fill="white" stroke="#666666" points="637.38,-336.91 535.12,-336.91 535.12,-316.16 637.38,-316.16 637.38,-336.91"/>
<text xml:space="preserve" text-anchor="middle" x="586.25" y="-323.41" font-family="Helvetica,sans-Serif" font-size="10.00">set_active_preset</text>
</a>
</g>
</g>
<!-- Node2&#45;&gt;Node3 -->
<g id="edge2_Node000002_Node000003" class="edge">
<title>Node2&#45;&gt;Node3</title>
<g id="a_edge2_Node000002_Node000003"><a xlink:title=" ">
<path fill="none" stroke="#63b8ff" d="M683.48,-327.07C667.81,-326.98 651.9,-326.89 637.66,-326.81"/>
<polygon fill="#63b8ff" stroke="#63b8ff" points="683.28,-330.57 693.3,-327.12 683.32,-323.57 683.28,-330.57"/>
</a>
</g>
</g>
<!-- Node4 -->
<g id="Node000004" class="node">
<title>Node4</title>
<g id="a_Node000004"><a xlink:href="kest__preset__view_8c.html#a94f5c88455763855196088379903825d" target="_top" xlink:title=" ">
<polygon fill="#fff0f0" stroke="red" points="480.75,-336.91 326,-336.91 326,-316.16 480.75,-316.16 480.75,-336.91"/>
<text xml:space="preserve" text-anchor="middle" x="403.38" y="-323.41" font-family="Helvetica,sans-Serif" font-size="10.00">preset_view_play_button_cb</text>
</a>
</g>
</g>
<!-- Node3&#45;&gt;Node4 -->
<g id="edge3_Node000003_Node000004" class="edge">
<title>Node3&#45;&gt;Node4</title>
<g id="a_edge3_Node000003_Node000004"><a xlink:title=" ">
<path fill="none" stroke="#63b8ff" d="M523.67,-326.54C510.02,-326.54 495.4,-326.54 481.23,-326.54"/>
<polygon fill="#63b8ff" stroke="#63b8ff" points="523.35,-330.04 533.35,-326.54 523.35,-323.04 523.35,-330.04"/>
</a>
</g>
</g>
<!-- Node37 -->
<g id="Node000037" class="node">
<title>Node37</title>
<g id="a_Node000037"><a xlink:href="kest__sequence__view_8c.html#a4d67fe5ecc44c7b1bff00ec58e369dad" target="_top" xlink:title=" ">
<polygon fill="white" stroke="#666666" points="441.38,-80.91 365.38,-80.91 365.38,-60.16 441.38,-60.16 441.38,-80.91"/>
<text xml:space="preserve" text-anchor="middle" x="403.38" y="-67.41" font-family="Helvetica,sans-Serif" font-size="10.00">seq_play_cb</text>
</a>
</g>
</g>
<!-- Node36&#45;&gt;Node37 -->
<g id="edge5_Node000036_Node000037" class="edge">
<title>Node36&#45;&gt;Node37</title>
<g id="a_edge5_Node000036_Node000037"><a xlink:title=" ">
<path fill="none" stroke="#63b8ff" d="M697.43,-69.73C620.89,-69.94 501.7,-70.27 441.64,-70.43"/>
<polygon fill="#63b8ff" stroke="#63b8ff" points="697.37,-73.23 707.36,-69.7 697.35,-66.23 697.37,-73.23"/>
</a>
</g>
</g>
<!-- Node22 -->
<g id="Node000022" class="node">
<title>Node22</title>
<g id="a_Node000022"><a xlink:href="kest__sequence__view_8c.html#ac871b24a7c875a7b6e707a3d2691a2a9" target="_top" xlink:title=" ">
<polygon fill="#fff0f0" stroke="red" points="290,-270.91 148,-270.91 148,-250.16 290,-250.16 290,-270.91"/>
<text xml:space="preserve" text-anchor="middle" x="219" y="-257.41" font-family="Helvetica,sans-Serif" font-size="10.00">configure_sequence_view</text>
</a>
</g>
</g>
<!-- Node37&#45;&gt;Node22 -->
<g id="edge6_Node000037_Node000022" class="edge">
<title>Node37&#45;&gt;Node22</title>
<g id="a_edge6_Node000037_Node000022"><a xlink:title=" ">
<path fill="none" stroke="#63b8ff" d="M353.88,-77.36C344.02,-80.3 334.18,-84.51 326,-90.54 267.46,-133.64 233.86,-219.67 223.49,-249.81"/>
<polygon fill="#63b8ff" stroke="#63b8ff" points="354.64,-80.78 363.47,-74.92 352.91,-73.99 354.64,-80.78"/>
</a>
</g>
</g>
<!-- Node34 -->
<g id="Node000034" class="node">
<title>Node34</title>
<g id="a_Node000034"><a xlink:href="kest__sequence__view_8c.html#aca115eba822b7486dc289cc9150562a7" target="_top" xlink:title=" ">
<polygon fill="#fff0f0" stroke="red" points="112,-289.91 0,-289.91 0,-269.16 112,-269.16 112,-289.91"/>
<text xml:space="preserve" text-anchor="middle" x="56" y="-276.41" font-family="Helvetica,sans-Serif" font-size="10.00">init_sequence_view</text>
</a>
</g>
</g>
<!-- Node22&#45;&gt;Node34 -->
<g id="edge7_Node000022_Node000034" class="edge">
<title>Node22&#45;&gt;Node34</title>
<g id="a_edge7_Node000022_Node000034"><a xlink:title=" ">
<path fill="none" stroke="#63b8ff" d="M136.67,-270.13C128.46,-271.1 120.25,-272.07 112.4,-273"/>
<polygon fill="#63b8ff" stroke="#63b8ff" points="136.83,-273.64 146.35,-268.99 136.01,-266.69 136.83,-273.64"/>
</a>
</g>
</g>
<!-- Node38&#45;&gt;Node4 -->
<g id="edge9_Node000038_Node000004" class="edge">
<title>Node38&#45;&gt;Node4</title>
<g id="a_edge9_Node000038_Node000004"><a xlink:title=" ">
<path fill="none" stroke="#63b8ff" d="M523.74,-352.27C501.29,-347.43 476.18,-342.02 454.8,-337.41"/>
<polygon fill="#63b8ff" stroke="#63b8ff" points="522.87,-355.67 533.39,-354.35 524.35,-348.82 522.87,-355.67"/>
</a>
</g>
</g>
<!-- Node40 -->
<g id="Node000040" class="node">
<title>Node40</title>
<g id="a_Node000040"><a xlink:href="kest__sequence__view_8c.html#a781781f2f55b9caaa4c9a9db94b566f5" target="_top" xlink:title=" ">
<polygon fill="white" stroke="#666666" points="462,-375.91 344.75,-375.91 344.75,-355.16 462,-355.16 462,-375.91"/>
<text xml:space="preserve" text-anchor="middle" x="403.38" y="-362.41" font-family="Helvetica,sans-Serif" font-size="10.00">seq_view_moved_cb</text>
</a>
</g>
</g>
<!-- Node39&#45;&gt;Node40 -->
<g id="edge11_Node000039_Node000040" class="edge">
<title>Node39&#45;&gt;Node40</title>
<g id="a_edge11_Node000039_Node000040"><a xlink:title=" ">
<path fill="none" stroke="#63b8ff" d="M514.11,-392.84C491.74,-387.27 467.73,-381.3 447.88,-376.36"/>
<polygon fill="#63b8ff" stroke="#63b8ff" points="513.25,-396.23 523.8,-395.25 514.94,-389.44 513.25,-396.23"/>
</a>
</g>
</g>
<!-- Node40&#45;&gt;Node22 -->
<g id="edge12_Node000040_Node000022" class="edge">
<title>Node40&#45;&gt;Node22</title>
<g id="a_edge12_Node000040_Node000022"><a xlink:title=" ">
<path fill="none" stroke="#63b8ff" d="M338.39,-350.96C334.12,-349.33 329.95,-347.52 326,-345.54 315.62,-340.32 258.45,-292.79 232.64,-271.17"/>
<polygon fill="#63b8ff" stroke="#63b8ff" points="337.11,-354.22 347.71,-354.19 339.4,-347.61 337.11,-354.22"/>
</a>
</g>
</g>
<!-- Node40&#45;&gt;Node34 -->
<g id="edge13_Node000040_Node000034" class="edge">
<title>Node40&#45;&gt;Node34</title>
<g id="a_edge13_Node000040_Node000034"><a xlink:title=" ">
<path fill="none" stroke="#63b8ff" d="M348.01,-352C279.57,-334.96 163.35,-306.02 100.49,-290.36"/>
<polygon fill="#63b8ff" stroke="#63b8ff" points="346.96,-355.35 357.51,-354.37 348.66,-348.55 346.96,-355.35"/>
</a>
</g>
</g>
<!-- Node42 -->
<g id="Node000042" class="node">
<title>Node42</title>
<g id="a_Node000042"><a xlink:href="kest__sequence_8c.html#ac444165dd2b3797ce4271616e29d47a2" target="_top" xlink:title=" ">
<polygon fill="white" stroke="#666666" points="648.25,-298.29 524.25,-298.29 524.25,-264.79 648.25,-264.79 648.25,-298.29"/>
<text xml:space="preserve" text-anchor="start" x="532.25" y="-284.79" font-family="Helvetica,sans-Serif" font-size="10.00">kest_sequence_delete</text>
<text xml:space="preserve" text-anchor="middle" x="586.25" y="-272.04" font-family="Helvetica,sans-Serif" font-size="10.00">_preset</text>
</a>
</g>
</g>
<!-- Node41&#45;&gt;Node42 -->
<g id="edge15_Node000041_Node000042" class="edge">
<title>Node41&#45;&gt;Node42</title>
<g id="a_edge15_Node000041_Node000042"><a xlink:title=" ">
<path fill="none" stroke="#63b8ff" d="M691.88,-282.11C677.43,-282.03 662.48,-281.95 648.56,-281.87"/>
<polygon fill="#63b8ff" stroke="#63b8ff" points="691.8,-285.61 701.82,-282.17 691.84,-278.61 691.8,-285.61"/>
</a>
</g>
</g>
<!-- Node43 -->
<g id="Node000043" class="node">
<title>Node43</title>
<g id="a_Node000043"><a xlink:href="kest__sequence__view_8c.html#aa3f0ce5b257c2a9a76df997c35718cbd" target="_top" xlink:title=" ">
<polygon fill="white" stroke="#666666" points="460.5,-288.91 346.25,-288.91 346.25,-268.16 460.5,-268.16 460.5,-288.91"/>
<text xml:space="preserve" text-anchor="middle" x="403.38" y="-275.41" font-family="Helvetica,sans-Serif" font-size="10.00">seq_view_delete_cb</text>
</a>
</g>
</g>
<!-- Node42&#45;&gt;Node43 -->
<g id="edge16_Node000042_Node000043" class="edge">
<title>Node42&#45;&gt;Node43</title>
<g id="a_edge16_Node000042_Node000043"><a xlink:title=" ">
<path fill="none" stroke="#63b8ff" d="M512.59,-280.33C495.35,-280.04 477.22,-279.74 460.83,-279.47"/>
<polygon fill="#63b8ff" stroke="#63b8ff" points="512.19,-283.82 522.25,-280.49 512.31,-276.83 512.19,-283.82"/>
</a>
</g>
</g>
<!-- Node43&#45;&gt;Node22 -->
<g id="edge17_Node000043_Node000022" class="edge">
<title>Node43&#45;&gt;Node22</title>
<g id="a_edge17_Node000043_Node000022"><a xlink:title=" ">
<path fill="none" stroke="#63b8ff" d="M334.73,-271.86C320.2,-270.43 304.81,-268.91 290.19,-267.46"/>
<polygon fill="#63b8ff" stroke="#63b8ff" points="334.37,-275.34 344.66,-272.84 335.05,-268.37 334.37,-275.34"/>
</a>
</g>
</g>
<!-- Node47 -->
<g id="Node000047" class="node">
<title>Node47</title>
<g id="a_Node000047"><a xlink:href="kest__files_8c.html#adecfc697f2f60941218706b2cd77f00c" target="_top" xlink:title=" ">
<polygon fill="white" stroke="#666666" points="655.75,-118.91 516.75,-118.91 516.75,-98.16 655.75,-98.16 655.75,-118.91"/>
<text xml:space="preserve" text-anchor="middle" x="586.25" y="-105.41" font-family="Helvetica,sans-Serif" font-size="10.00">read_sequence_from_file</text>
</a>
</g>
</g>
<!-- Node46&#45;&gt;Node47 -->
<g id="edge21_Node000046_Node000047" class="edge">
<title>Node46&#45;&gt;Node47</title>
<g id="a_edge21_Node000046_Node000047"><a xlink:title=" ">
<path fill="none" stroke="#63b8ff" d="M687.64,-108.54C677.1,-108.54 666.39,-108.54 656.07,-108.54"/>
<polygon fill="#63b8ff" stroke="#63b8ff" points="687.46,-112.04 697.46,-108.54 687.46,-105.04 687.46,-112.04"/>
</a>
</g>
</g>
<!-- Node24 -->
<g id="Node000024" class="node">
<title>Node24</title>
<g id="a_Node000024"><a xlink:href="kest__files_8c.html#a2b0f0df900e064b3a42198050e150084" target="_top" xlink:title=" ">
<polygon fill="#fff0f0" stroke="red" points="467.62,-119.91 339.12,-119.91 339.12,-99.16 467.62,-99.16 467.62,-119.91"/>
<text xml:space="preserve" text-anchor="middle" x="403.38" y="-106.41" font-family="Helvetica,sans-Serif" font-size="10.00">load_saved_sequences</text>
</a>
</g>
</g>
<!-- Node47&#45;&gt;Node24 -->
<g id="edge22_Node000047_Node000024" class="edge">
<title>Node47&#45;&gt;Node24</title>
<g id="a_edge22_Node000047_Node000024"><a xlink:title=" ">
<path fill="none" stroke="#63b8ff" d="M505.06,-108.98C492.66,-109.05 480,-109.12 468.03,-109.18"/>
<polygon fill="#63b8ff" stroke="#63b8ff" points="504.86,-112.48 514.84,-108.93 504.82,-105.48 504.86,-112.48"/>
</a>
</g>
</g>
<!-- Node49 -->
<g id="Node000049" class="node">
<title>Node49</title>
<g id="a_Node000049"><a xlink:href="kest__sequence__view_8c.html#a83d1a352af6a3932ce4d08e01f7d8d8a" target="_top" xlink:title=" ">
<polygon fill="white" stroke="#666666" points="623.88,-246.91 548.62,-246.91 548.62,-226.16 623.88,-226.16 623.88,-246.91"/>
<text xml:space="preserve" text-anchor="middle" x="586.25" y="-233.41" font-family="Helvetica,sans-Serif" font-size="10.00">seq_plus_cb</text>
</a>
</g>
</g>
<!-- Node48&#45;&gt;Node49 -->
<g id="edge24_Node000048_Node000049" class="edge">
<title>Node48&#45;&gt;Node49</title>
<g id="a_edge24_Node000048_Node000049"><a xlink:title=" ">
<path fill="none" stroke="#63b8ff" d="M680.15,-237.05C660.39,-236.94 640.46,-236.83 624.16,-236.74"/>
<polygon fill="#63b8ff" stroke="#63b8ff" points="679.88,-240.55 689.9,-237.1 679.92,-233.55 679.88,-240.55"/>
</a>
</g>
</g>
<!-- Node49&#45;&gt;Node22 -->
<g id="edge25_Node000049_Node000022" class="edge">
<title>Node49&#45;&gt;Node22</title>
<g id="a_edge25_Node000049_Node000022"><a xlink:title=" ">
<path fill="none" stroke="#63b8ff" d="M537,-239.71C473.83,-243.86 362.64,-251.16 290.16,-255.93"/>
<polygon fill="#63b8ff" stroke="#63b8ff" points="536.96,-243.22 546.71,-239.07 536.5,-236.23 536.96,-243.22"/>
</a>
</g>
</g>
<!-- Node50&#45;&gt;Node22 -->
<g id="edge27_Node000050_Node000022" class="edge">
<title>Node50&#45;&gt;Node22</title>
<g id="a_edge27_Node000050_Node000022"><a xlink:title=" ">
<path fill="none" stroke="#63b8ff" d="M331.4,-47.65C329.53,-48.86 327.72,-50.15 326,-51.54 258.23,-106.2 229.69,-215.52 222.15,-249.92"/>
<polygon fill="#63b8ff" stroke="#63b8ff" points="332.79,-50.88 339.93,-43.06 329.47,-44.72 332.79,-50.88"/>
</a>
</g>
</g>
</g>
</svg>
