<?xml version="1.0" encoding="UTF-8" standalone="no"?>
<!DOCTYPE svg PUBLIC "-//W3C//DTD SVG 1.1//EN"
 "http://www.w3.org/Graphics/SVG/1.1/DTD/svg11.dtd">
<!-- Generated by graphviz version 13.1.2 (20250808.2320)
 -->
<!-- Title: button_set_pressing_cb Pages: 1 -->
<!--zoomable 195 -->

<svg id="main" version="1.1" xmlns="http://www.w3.org/2000/svg" xmlns:xlink="http://www.w3.org/1999/xlink" xml:space="preserve" onload="init(evt)">

<style type="text/css"><![CDATA[
.node, .edge {opacity: 0.7;}
.node.selected, .edge.selected {opacity: 1;}
.edge:hover path { stroke: red; }
.edge:hover polygon { stroke: red; fill: red; }
]]></style>

<defs>
  <circle id="rim" cx="0" cy="0" r="7"/>
  <circle id="rim2" cx="0" cy="0" r="3.5"/>
  <g id="zoomPlus">
    <use xlink:href="#rim" fill="#404040"><set attributeName="fill" to="#808080" begin="zoomplus.mouseover" end="zoomplus.mouseout"/></use>
    <path d="M-4,0h8M0,-4v8" fill="none" stroke="white" stroke-width="1.5" pointer-events="none"/>
  </g>
  <g id="zoomMin">
    <use xlink:href="#rim" fill="#404040"><set attributeName="fill" to="#808080" begin="zoomminus.mouseover" end="zoomminus.mouseout"/></use>
    <path d="M-4,0h8" fill="none" stroke="white" stroke-width="1.5" pointer-events="none"/>
  </g>
  <g id="arrowUp" transform="translate(30 24)">
    <use xlink:href="#rim"/>
    <path pointer-events="none" fill="none" stroke="white" stroke-width="1.5" d="M0,-3.0v7 M-2.5,-0.5L0,-3.0L2.5,-0.5"/>
  </g>
  <g id="arrowRight" transform="rotate(90) translate(36 -43)">
    <use xlink:href="#rim"/>
    <path pointer-events="none" fill="none" stroke="white" stroke-width="1.5" d="M0,-3.0v7 M-2.5,-0.5L0,-3.0L2.5,-0.5"/>
  </g>
  <g id="arrowDown" transform="rotate(180) translate(-30 -48)">
    <use xlink:href="#rim"/>
    <path pointer-events="none" fill="none" stroke="white" stroke-width="1.5" d="M0,-3.0v7 M-2.5,-0.5L0,-3.0L2.5,-0.5"/>
  </g>
  <g id="arrowLeft" transform="rotate(270) translate(-36 17)">
    <use xlink:href="#rim"/>
    <path pointer-events="none" fill="none" stroke="white" stroke-width="1.5" d="M0,-3.0v7 M-2.5,-0.5L0,-3.0L2.5,-0.5"/>
  </g>
  <g id="resetDef">
    <use xlink:href="#rim2" fill="#404040"><set attributeName="fill" to="#808080" begin="reset.mouseover" end="reset.mouseout"/></use>
  </g>
</defs>
<script type="application/ecmascript">
var viewWidth = 794;
var viewHeight = 195;
var sectionId = 'dynsection-3';
</script>
<script type="application/ecmascript" xlink:href="svg.min.js"/>
<svg id="graph" class="graph">
<g id="viewport">
<title>button_set_pressing_cb</title>
<!-- Node1 -->
<g id="Node000001" class="node">
<title>Node1</title>
<g id="a_Node000001"><a xlink:title=" ">
<polygon fill="#999999" stroke="#666666" points="785.75,-110.75 655,-110.75 655,-90 785.75,-90 785.75,-110.75"/>
<text xml:space="preserve" text-anchor="middle" x="720.38" y="-97.25" font-family="Helvetica,sans-Serif" font-size="10.00">button_set_pressing_cb</text>
</a>
</g>
</g>
<!-- Node2 -->
<g id="Node000002" class="node">
<title>Node2</title>
<g id="a_Node000002"><a xlink:href="kest__button_8c.html#a9cc8b0c8114bbffc12e858af8589ff86" target="_top" xlink:title=" ">
<polygon fill="white" stroke="#666666" points="619,-110.75 489.75,-110.75 489.75,-90 619,-90 619,-110.75"/>
<text xml:space="preserve" text-anchor="middle" x="554.38" y="-97.25" font-family="Helvetica,sans-Serif" font-size="10.00">kest_active_button_init</text>
</a>
</g>
</g>
<!-- Node1&#45;&gt;Node2 -->
<g id="edge1_Node000001_Node000002" class="edge">
<title>Node1&#45;&gt;Node2</title>
<g id="a_edge1_Node000001_Node000002"><a xlink:title=" ">
<path fill="none" stroke="#63b8ff" d="M643.07,-100.38C635.17,-100.38 627.2,-100.38 619.45,-100.38"/>
<polygon fill="#63b8ff" stroke="#63b8ff" points="643.04,-103.88 653.04,-100.38 643.04,-96.88 643.04,-103.88"/>
</a>
</g>
</g>
<!-- Node3 -->
<g id="Node000003" class="node">
<title>Node3</title>
<g id="a_Node000003"><a xlink:href="kest__button_8c.html#a760fe364ce4f5be2c972ff685e2f9825" target="_top" xlink:title=" ">
<polygon fill="white" stroke="#666666" points="453.75,-117.12 340.25,-117.12 340.25,-83.62 453.75,-83.62 453.75,-117.12"/>
<text xml:space="preserve" text-anchor="start" x="348.25" y="-103.62" font-family="Helvetica,sans-Serif" font-size="10.00">kest_active_button</text>
<text xml:space="preserve" text-anchor="middle" x="397" y="-90.88" font-family="Helvetica,sans-Serif" font-size="10.00">_array_append_new</text>
</a>
</g>
</g>
<!-- Node2&#45;&gt;Node3 -->
<g id="edge2_Node000002_Node000003" class="edge">
<title>Node2&#45;&gt;Node3</title>
<g id="a_edge2_Node000002_Node000003"><a xlink:title=" ">
<path fill="none" stroke="#63b8ff" d="M477.94,-100.38C469.88,-100.38 461.78,-100.38 454,-100.38"/>
<polygon fill="#63b8ff" stroke="#63b8ff" points="477.77,-103.88 487.77,-100.38 477.77,-96.88 477.77,-103.88"/>
</a>
</g>
</g>
<!-- Node4 -->
<g id="Node000004" class="node">
<title>Node4</title>
<g id="a_Node000004"><a xlink:href="kest__preset__view_8c.html#ad8a171502fcb88f5b5a08657a6424752" target="_top" xlink:title=" ">
<polygon fill="#fff0f0" stroke="red" points="304.25,-186.75 178,-186.75 178,-166 304.25,-166 304.25,-186.75"/>
<text xml:space="preserve" text-anchor="middle" x="241.12" y="-173.25" font-family="Helvetica,sans-Serif" font-size="10.00">configure_preset_view</text>
</a>
</g>
</g>
<!-- Node3&#45;&gt;Node4 -->
<g id="edge3_Node000003_Node000004" class="edge">
<title>Node3&#45;&gt;Node4</title>
<g id="a_edge3_Node000003_Node000004"><a xlink:title=" ">
<path fill="none" stroke="#63b8ff" d="M358.7,-123.16C342.3,-132.75 322.61,-143.68 304.25,-152.38 294.22,-157.12 282.97,-161.69 272.84,-165.53"/>
<polygon fill="#63b8ff" stroke="#63b8ff" points="360.33,-126.27 367.15,-118.17 356.77,-120.24 360.33,-126.27"/>
</a>
</g>
</g>
<!-- Node21 -->
<g id="Node000021" class="node">
<title>Node21</title>
<g id="a_Node000021"><a xlink:href="kest__sequence__view_8c.html#ac871b24a7c875a7b6e707a3d2691a2a9" target="_top" xlink:title=" ">
<polygon fill="#fff0f0" stroke="red" points="142,-84.75 0,-84.75 0,-64 142,-64 142,-84.75"/>
<text xml:space="preserve" text-anchor="middle" x="71" y="-71.25" font-family="Helvetica,sans-Serif" font-size="10.00">configure_sequence_view</text>
</a>
</g>
</g>
<!-- Node3&#45;&gt;Node21 -->
<g id="edge4_Node000003_Node000021" class="edge">
<title>Node3&#45;&gt;Node21</title>
<g id="a_edge4_Node000003_Node000021"><a xlink:title=" ">
<path fill="none" stroke="#63b8ff" d="M328.67,-116.12C285.3,-123.84 227.89,-129.53 178,-119.38 145.87,-112.84 111.4,-96.21 90.78,-85.1"/>
<polygon fill="#63b8ff" stroke="#63b8ff" points="329.27,-119.57 338.46,-114.29 327.99,-112.69 329.27,-119.57"/>
</a>
</g>
</g>
<!-- Node35 -->
<g id="Node000035" class="node">
<title>Node35</title>
<g id="a_Node000035"><a xlink:href="kest__ui_8c.html#a54f79f277b7d97da20f192e3bec8f3ec" target="_top" xlink:title=" ">
<polygon fill="white" stroke="#666666" points="283.62,-110.75 198.62,-110.75 198.62,-90 283.62,-90 283.62,-110.75"/>
<text xml:space="preserve" text-anchor="middle" x="241.12" y="-97.25" font-family="Helvetica,sans-Serif" font-size="10.00">init_test_page</text>
</a>
</g>
</g>
<!-- Node3&#45;&gt;Node35 -->
<g id="edge5_Node000003_Node000035" class="edge">
<title>Node3&#45;&gt;Node35</title>
<g id="a_edge5_Node000003_Node000035"><a xlink:title=" ">
<path fill="none" stroke="#63b8ff" d="M328.52,-100.38C313.32,-100.38 297.62,-100.38 283.84,-100.38"/>
<polygon fill="#63b8ff" stroke="#63b8ff" points="328.5,-103.88 338.5,-100.38 328.5,-96.88 328.5,-103.88"/>
</a>
</g>
</g>
<!-- Node36 -->
<g id="Node000036" class="node">
<title>Node36</title>
<g id="a_Node000036"><a xlink:href="kest__preset__view_8c.html#aed5789e6285a903942736fef4408ce40" target="_top" xlink:title=" ">
<polygon fill="#fff0f0" stroke="red" points="299.38,-72.12 182.88,-72.12 182.88,-38.62 299.38,-38.62 299.38,-72.12"/>
<text xml:space="preserve" text-anchor="start" x="190.88" y="-58.62" font-family="Helvetica,sans-Serif" font-size="10.00">preset_view_append</text>
<text xml:space="preserve" text-anchor="middle" x="241.12" y="-45.88" font-family="Helvetica,sans-Serif" font-size="10.00">_effect</text>
</a>
</g>
</g>
<!-- Node3&#45;&gt;Node36 -->
<g id="edge6_Node000003_Node000036" class="edge">
<title>Node3&#45;&gt;Node36</title>
<g id="a_edge6_Node000003_Node000036"><a xlink:title=" ">
<path fill="none" stroke="#63b8ff" d="M329.06,-80.8C319.25,-77.93 309.22,-75 299.62,-72.19"/>
<polygon fill="#63b8ff" stroke="#63b8ff" points="327.98,-84.13 338.56,-83.58 329.94,-77.41 327.98,-84.13"/>
</a>
</g>
</g>
<!-- Node41 -->
<g id="Node000041" class="node">
<title>Node41</title>
<g id="a_Node000041"><a xlink:href="kest__sequence__view_8c.html#a83d1a352af6a3932ce4d08e01f7d8d8a" target="_top" xlink:title=" ">
<polygon fill="white" stroke="#666666" points="278.75,-20.75 203.5,-20.75 203.5,0 278.75,0 278.75,-20.75"/>
<text xml:space="preserve" text-anchor="middle" x="241.12" y="-7.25" font-family="Helvetica,sans-Serif" font-size="10.00">seq_plus_cb</text>
</a>
</g>
</g>
<!-- Node3&#45;&gt;Node41 -->
<g id="edge7_Node000003_Node000041" class="edge">
<title>Node3&#45;&gt;Node41</title>
<g id="a_edge7_Node000003_Node000041"><a xlink:title=" ">
<path fill="none" stroke="#63b8ff" d="M369.56,-75.72C352.12,-60.57 328.16,-41.75 304.25,-29.38 296.44,-25.33 287.62,-21.99 279.13,-19.29"/>
<polygon fill="#63b8ff" stroke="#63b8ff" points="367.11,-78.23 376.92,-82.25 371.76,-72.99 367.11,-78.23"/>
</a>
</g>
</g>
<!-- Node41&#45;&gt;Node21 -->
<g id="edge8_Node000041_Node000021" class="edge">
<title>Node41&#45;&gt;Node21</title>
<g id="a_edge8_Node000041_Node000021"><a xlink:title=" ">
<path fill="none" stroke="#63b8ff" d="M192.45,-24.4C187.54,-26.01 182.66,-27.68 178,-29.38 149.07,-39.91 116.59,-54.05 95.3,-63.65"/>
<polygon fill="#63b8ff" stroke="#63b8ff" points="193.21,-27.83 201.68,-21.46 191.09,-21.16 193.21,-27.83"/>
</a>
</g>
</g>
</g>
</svg>

<g id="navigator" transform="translate(0 0)" fill="#404254">
  <rect fill="#f2f5e9" fill-opacity="0.5" stroke="#606060" stroke-width=".5" x="0" y="0" width="60" height="60"/>
  <use id="zoomplus" xlink:href="#zoomPlus" x="17" y="9" onmousedown="handleZoom(evt,'in')"/>
  <use id="zoomminus" xlink:href="#zoomMin" x="42" y="9" onmousedown="handleZoom(evt,'out')"/>
  <use id="reset" xlink:href="#resetDef" x="30" y="36" onmousedown="handleReset()"/>
   <use id="arrowup" xlink:href="#arrowUp" x="0" y="0" onmousedown="handlePan(0,-1)"/>
  <use id="arrowright" xlink:href="#arrowRight" x="0" y="0" onmousedown="handlePan(1,0)"/>
  <use id="arrowdown" xlink:href="#arrowDown" x="0" y="0" onmousedown="handlePan(0,1)"/>
  <use id="arrowleft" xlink:href="#arrowLeft" x="0" y="0" onmousedown="handlePan(-1,0)"/>
</g>
<svg viewBox="0 0 15 15" width="100%" height="30px" preserveAspectRatio="xMaxYMin meet">
 <g id="arrow_out" transform="scale(0.3 0.3)">
  <a xlink:href="kest__button_8h_af00d79cf42f9b296fbb6027daacc8fb9_icgraph_org.svg" target="_base">
   <rect id="button" ry="5" rx="5" y="6" x="6" height="38" width="38"
        fill="#f2f5e9" fill-opacity="0.5" stroke="#606060" stroke-width="1.0"/>
   <path id="arrow"
     d="M 11.500037,31.436501 C 11.940474,20.09759 22.043105,11.32322 32.158766,21.979434 L 37.068811,17.246167 C 37.068811,17.246167 37.088388,32 37.088388,32 L 22.160133,31.978069 C 22.160133,31.978069 26.997745,27.140456 26.997745,27.140456 C 18.528582,18.264221 13.291696,25.230495 11.500037,31.436501 z"
     style="fill:#404040;"/>
  </a>
 </g>
</svg>

<style type='text/css'>
<![CDATA[
[data-mouse-over-selected='false'] { opacity: 0.7; }
[data-mouse-over-selected='true']  { opacity: 1.0; }
]]>
</style>
<script type="application/ecmascript"><![CDATA[
document.addEventListener('DOMContentLoaded', (event) => {
  highlightEdges();
  highlightAdjacentNodes();
});
]]></script>
</svg>
