<?xml version="1.0" encoding="UTF-8" standalone="no"?>
<!DOCTYPE svg PUBLIC "-//W3C//DTD SVG 1.1//EN"
 "http://www.w3.org/Graphics/SVG/1.1/DTD/svg11.dtd">
<!-- Generated by graphviz version 13.1.2 (20250808.2320)
 -->
<!-- Title: create_effect_selector_button_ui_eff Pages: 1 -->
<svg width="551pt" height="42pt"
 viewBox="0.00 0.00 551.00 42.00" xmlns="http://www.w3.org/2000/svg" xmlns:xlink="http://www.w3.org/1999/xlink">
<g id="graph0" class="graph" transform="scale(1 1) rotate(0) translate(4 37.5)">
<title>create_effect_selector_button_ui_eff</title>
<!-- Node1 -->
<g id="Node000001" class="node">
<title>Node1</title>
<g id="a_Node000001"><a xlink:title=" ">
<polygon fill="#999999" stroke="#666666" points="543.25,-33.5 418.5,-33.5 418.5,0 543.25,0 543.25,-33.5"/>
<text xml:space="preserve" text-anchor="start" x="426.5" y="-20" font-family="Helvetica,sans-Serif" font-size="10.00">create_effect_selector</text>
<text xml:space="preserve" text-anchor="middle" x="480.88" y="-7.25" font-family="Helvetica,sans-Serif" font-size="10.00">_button_ui_eff</text>
</a>
</g>
</g>
<!-- Node2 -->
<g id="Node000002" class="node">
<title>Node2</title>
<g id="a_Node000002"><a xlink:href="kest__effect__select_8c.html#af5e1f2ec64c8c42ed66a3bc39c7411eb" target="_top" xlink:title=" ">
<polygon fill="white" stroke="#666666" points="382.5,-33.5 257.75,-33.5 257.75,0 382.5,0 382.5,-33.5"/>
<text xml:space="preserve" text-anchor="start" x="265.75" y="-20" font-family="Helvetica,sans-Serif" font-size="10.00">create_effect_selector</text>
<text xml:space="preserve" text-anchor="middle" x="320.12" y="-7.25" font-family="Helvetica,sans-Serif" font-size="10.00">_ui_eff</text>
</a>
</g>
</g>
<!-- Node1&#45;&gt;Node2 -->
<g id="edge1_Node000001_Node000002" class="edge">
<title>Node1&#45;&gt;Node2</title>
<g id="a_edge1_Node000001_Node000002"><a xlink:title=" ">
<path fill="none" stroke="#63b8ff" d="M406.79,-16.75C398.77,-16.75 390.65,-16.75 382.79,-16.75"/>
<polygon fill="#63b8ff" stroke="#63b8ff" points="406.53,-20.25 416.53,-16.75 406.53,-13.25 406.53,-20.25"/>
</a>
</g>
</g>
<!-- Node3 -->
<g id="Node000003" class="node">
<title>Node3</title>
<g id="a_Node000003"><a xlink:href="kest__effect__select_8c.html#a4f784340d1e1e332c60be5a095244ba1" target="_top" xlink:title=" ">
<polygon fill="white" stroke="#666666" points="221.75,-27.12 93.25,-27.12 93.25,-6.38 221.75,-6.38 221.75,-27.12"/>
<text xml:space="preserve" text-anchor="middle" x="157.5" y="-13.62" font-family="Helvetica,sans-Serif" font-size="10.00">init_effect_selector_eff</text>
</a>
</g>
</g>
<!-- Node2&#45;&gt;Node3 -->
<g id="edge2_Node000002_Node000003" class="edge">
<title>Node2&#45;&gt;Node3</title>
<g id="a_edge2_Node000002_Node000003"><a xlink:title=" ">
<path fill="none" stroke="#63b8ff" d="M246.21,-16.75C238.17,-16.75 230.02,-16.75 222.11,-16.75"/>
<polygon fill="#63b8ff" stroke="#63b8ff" points="245.97,-20.25 255.97,-16.75 245.97,-13.25 245.97,-20.25"/>
</a>
</g>
</g>
<!-- Node4 -->
<g id="Node000004" class="node">
<title>Node4</title>
<g id="a_Node000004"><a xlink:href="kest__init_8c.html#ad1373cd24ac2876b2830d1ad2eb92721" target="_top" xlink:title=" ">
<polygon fill="#fff0f0" stroke="red" points="57.25,-27.12 0,-27.12 0,-6.38 57.25,-6.38 57.25,-27.12"/>
<text xml:space="preserve" text-anchor="middle" x="28.63" y="-13.62" font-family="Helvetica,sans-Serif" font-size="10.00">kest_init</text>
</a>
</g>
</g>
<!-- Node3&#45;&gt;Node4 -->
<g id="edge3_Node000003_Node000004" class="edge">
<title>Node3&#45;&gt;Node4</title>
<g id="a_edge3_Node000003_Node000004"><a xlink:title=" ">
<path fill="none" stroke="#63b8ff" d="M81.68,-16.75C73.1,-16.75 64.82,-16.75 57.47,-16.75"/>
<polygon fill="#63b8ff" stroke="#63b8ff" points="81.55,-20.25 91.55,-16.75 81.55,-13.25 81.55,-20.25"/>
</a>
</g>
</g>
</g>
</svg>
