<?xml version="1.0" encoding="UTF-8" standalone="no"?>
<!DOCTYPE svg PUBLIC "-//W3C//DTD SVG 1.1//EN"
 "http://www.w3.org/Graphics/SVG/1.1/DTD/svg11.dtd">
<!-- Generated by graphviz version 13.1.2 (20250808.2320)
 -->
<!-- Title: kest_expression_get_references_rec Pages: 1 -->
<svg width="637pt" height="171pt"
 viewBox="0.00 0.00 637.00 171.00" xmlns="http://www.w3.org/2000/svg" xmlns:xlink="http://www.w3.org/1999/xlink">
<g id="graph0" class="graph" transform="scale(1 1) rotate(0) translate(4 166.75)">
<title>kest_expression_get_references_rec</title>
<!-- Node1 -->
<g id="Node000001" class="node">
<title>Node1</title>
<g id="a_Node000001"><a xlink:title=" ">
<polygon fill="#999999" stroke="#666666" points="115.75,-72.12 0,-72.12 0,-38.62 115.75,-38.62 115.75,-72.12"/>
<text xml:space="preserve" text-anchor="start" x="8" y="-58.62" font-family="Helvetica,sans-Serif" font-size="10.00">kest_expression_get</text>
<text xml:space="preserve" text-anchor="middle" x="57.88" y="-45.88" font-family="Helvetica,sans-Serif" font-size="10.00">_references_rec</text>
</a>
</g>
</g>
<!-- Node1&#45;&gt;Node1 -->
<g id="edge2_Node000001_Node000001" class="edge">
<title>Node1&#45;&gt;Node1</title>
<g id="a_edge2_Node000001_Node000001"><a xlink:title=" ">
<path fill="none" stroke="#63b8ff" d="M29.99,-72.54C25.25,-81.74 34.55,-90.12 57.88,-90.12 71,-90.12 79.68,-87.47 83.92,-83.51"/>
<polygon fill="#63b8ff" stroke="#63b8ff" points="87.31,-84.47 85.51,-74.03 80.41,-83.32 87.31,-84.47"/>
</a>
</g>
</g>
<!-- Node2 -->
<g id="Node000002" class="node">
<title>Node2</title>
<g id="a_Node000002"><a xlink:href="kest__expression_8c.html#a835e180e79c6b6d2e4377a528949d7a0" target="_top" xlink:title=" ">
<polygon fill="white" stroke="#666666" points="274.25,-110.75 151.75,-110.75 151.75,-90 274.25,-90 274.25,-110.75"/>
<text xml:space="preserve" text-anchor="middle" x="213" y="-97.25" font-family="Helvetica,sans-Serif" font-size="10.00">kest_expression_arity</text>
</a>
</g>
</g>
<!-- Node1&#45;&gt;Node2 -->
<g id="edge1_Node000001_Node000002" class="edge">
<title>Node1&#45;&gt;Node2</title>
<g id="a_edge1_Node000001_Node000002"><a xlink:title=" ">
<path fill="none" stroke="#63b8ff" d="M115.89,-72.13C131.9,-76.84 149.14,-81.9 164.53,-86.42"/>
<polygon fill="#63b8ff" stroke="#63b8ff" points="163.33,-89.72 173.91,-89.18 165.31,-83 163.33,-89.72"/>
</a>
</g>
</g>
<!-- Node3 -->
<g id="Node000003" class="node">
<title>Node3</title>
<g id="a_Node000003"><a xlink:href="kest__expression_8c.html#aadf2a6a074cb1ad7b45893704cbd71c3" target="_top" xlink:title=" ">
<polygon fill="white" stroke="#666666" points="267.88,-72.12 158.12,-72.12 158.12,-38.62 267.88,-38.62 267.88,-72.12"/>
<text xml:space="preserve" text-anchor="start" x="166.12" y="-58.62" font-family="Helvetica,sans-Serif" font-size="10.00">kest_expression_to</text>
<text xml:space="preserve" text-anchor="middle" x="213" y="-45.88" font-family="Helvetica,sans-Serif" font-size="10.00">_string</text>
</a>
</g>
</g>
<!-- Node1&#45;&gt;Node3 -->
<g id="edge3_Node000001_Node000003" class="edge">
<title>Node1&#45;&gt;Node3</title>
<g id="a_edge3_Node000001_Node000003"><a xlink:title=" ">
<path fill="none" stroke="#63b8ff" d="M115.89,-55.38C125.84,-55.38 136.26,-55.38 146.41,-55.38"/>
<polygon fill="#63b8ff" stroke="#63b8ff" points="146.21,-58.88 156.21,-55.38 146.21,-51.88 146.21,-58.88"/>
</a>
</g>
</g>
<!-- Node8 -->
<g id="Node000008" class="node">
<title>Node8</title>
<g id="a_Node000008"><a xlink:href="kest__expression_8c.html#a05276e5a18cc3b52dfc8a17bb101c832" target="_top" xlink:title=" ">
<polygon fill="white" stroke="#666666" points="602.88,-20.75 514.88,-20.75 514.88,0 602.88,0 602.88,-20.75"/>
<text xml:space="preserve" text-anchor="middle" x="558.88" y="-7.25" font-family="Helvetica,sans-Serif" font-size="10.00">max_depth_bp</text>
</a>
</g>
</g>
<!-- Node1&#45;&gt;Node8 -->
<g id="edge11_Node000001_Node000008" class="edge">
<title>Node1&#45;&gt;Node8</title>
<g id="a_edge11_Node000001_Node000008"><a xlink:title=" ">
<path fill="none" stroke="#63b8ff" d="M112.44,-38.16C125.2,-34.68 138.86,-31.45 151.75,-29.38 276.2,-9.31 424.65,-7.99 503.06,-9.03"/>
<polygon fill="#63b8ff" stroke="#63b8ff" points="503,-12.53 513.05,-9.19 503.11,-5.53 503,-12.53"/>
</a>
</g>
</g>
<!-- Node4 -->
<g id="Node000004" class="node">
<title>Node4</title>
<g id="a_Node000004"><a xlink:href="kest__expression_8c.html#a767b50b7ddfa94dc61810dfdcc8feaf0" target="_top" xlink:title=" ">
<polygon fill="white" stroke="#666666" points="453,-65.75 310.25,-65.75 310.25,-45 453,-45 453,-65.75"/>
<text xml:space="preserve" text-anchor="middle" x="381.62" y="-52.25" font-family="Helvetica,sans-Serif" font-size="10.00">kest_expression_print_rec</text>
</a>
</g>
</g>
<!-- Node3&#45;&gt;Node4 -->
<g id="edge4_Node000003_Node000004" class="edge">
<title>Node3&#45;&gt;Node4</title>
<g id="a_edge4_Node000003_Node000004"><a xlink:title=" ">
<path fill="none" stroke="#63b8ff" d="M268.1,-49.01C277.87,-48.74 288.25,-48.61 298.61,-48.63"/>
<polygon fill="#63b8ff" stroke="#63b8ff" points="298.27,-52.12 308.29,-48.68 298.31,-45.12 298.27,-52.12"/>
</a>
</g>
</g>
<!-- Node4&#45;&gt;Node3 -->
<g id="edge9_Node000004_Node000003" class="edge">
<title>Node4&#45;&gt;Node3</title>
<g id="a_edge9_Node000004_Node000003"><a xlink:title=" ">
<path fill="none" stroke="#63b8ff" d="M309.81,-62.06C299.77,-62.17 289.49,-62.14 279.56,-61.99"/>
<polygon fill="#63b8ff" stroke="#63b8ff" points="279.68,-58.49 269.61,-61.77 279.53,-65.49 279.68,-58.49"/>
</a>
</g>
</g>
<!-- Node4&#45;&gt;Node4 -->
<g id="edge8_Node000004_Node000004" class="edge">
<title>Node4&#45;&gt;Node4</title>
<g id="a_edge8_Node000004_Node000004"><a xlink:title=" ">
<path fill="none" stroke="#63b8ff" d="M354.45,-66.15C343.59,-74.81 352.64,-83.75 381.62,-83.75 397.47,-83.75 407.37,-81.08 411.3,-77.24"/>
<polygon fill="#63b8ff" stroke="#63b8ff" points="414.74,-76.61 409.13,-67.62 407.91,-78.15 414.74,-76.61"/>
</a>
</g>
</g>
<!-- Node5 -->
<g id="Node000005" class="node">
<title>Node5</title>
<g id="a_Node000005"><a xlink:href="kest__expression_8c.html#a2f21e4932bce8c87ec0bfc508588b761" target="_top" xlink:title=" ">
<polygon fill="white" stroke="#666666" points="620.5,-162.75 497.25,-162.75 497.25,-142 620.5,-142 620.5,-162.75"/>
<text xml:space="preserve" text-anchor="middle" x="558.88" y="-149.25" font-family="Helvetica,sans-Serif" font-size="10.00">kest_expression_form</text>
</a>
</g>
</g>
<!-- Node4&#45;&gt;Node5 -->
<g id="edge5_Node000004_Node000005" class="edge">
<title>Node4&#45;&gt;Node5</title>
<g id="a_edge5_Node000004_Node000005"><a xlink:title=" ">
<path fill="none" stroke="#63b8ff" d="M394.14,-66.06C412.71,-82.75 451.07,-115.01 489,-133.38 492.29,-134.97 495.74,-136.45 499.27,-137.82"/>
<polygon fill="#63b8ff" stroke="#63b8ff" points="497.97,-141.07 508.56,-141.1 500.3,-134.47 497.97,-141.07"/>
</a>
</g>
</g>
<!-- Node6 -->
<g id="Node000006" class="node">
<title>Node6</title>
<g id="a_Node000006"><a xlink:href="kest__expression_8c.html#a81b490a2837a170e18e8cdae730d0d9b" target="_top" xlink:title=" ">
<polygon fill="white" stroke="#666666" points="628.75,-124.12 489,-124.12 489,-90.62 628.75,-90.62 628.75,-124.12"/>
<text xml:space="preserve" text-anchor="start" x="497" y="-110.62" font-family="Helvetica,sans-Serif" font-size="10.00">kest_expression_function</text>
<text xml:space="preserve" text-anchor="middle" x="558.88" y="-97.88" font-family="Helvetica,sans-Serif" font-size="10.00">_string</text>
</a>
</g>
</g>
<!-- Node4&#45;&gt;Node6 -->
<g id="edge6_Node000004_Node000006" class="edge">
<title>Node4&#45;&gt;Node6</title>
<g id="a_edge6_Node000004_Node000006"><a xlink:title=" ">
<path fill="none" stroke="#63b8ff" d="M418.94,-66.15C439.19,-72.16 465.1,-79.85 489.04,-86.95"/>
<polygon fill="#63b8ff" stroke="#63b8ff" points="487.85,-90.25 498.43,-89.74 489.84,-83.54 487.85,-90.25"/>
</a>
</g>
</g>
<!-- Node7 -->
<g id="Node000007" class="node">
<title>Node7</title>
<g id="a_Node000007"><a xlink:href="kest__expression_8c.html#a1a3a0bc9ed6726fb24e6a40803741b43" target="_top" xlink:title=" ">
<polygon fill="white" stroke="#666666" points="619.75,-72.12 498,-72.12 498,-38.62 619.75,-38.62 619.75,-72.12"/>
<text xml:space="preserve" text-anchor="start" x="506" y="-58.62" font-family="Helvetica,sans-Serif" font-size="10.00">kest_expression_infix</text>
<text xml:space="preserve" text-anchor="middle" x="558.88" y="-45.88" font-family="Helvetica,sans-Serif" font-size="10.00">_operator_string</text>
</a>
</g>
</g>
<!-- Node4&#45;&gt;Node7 -->
<g id="edge7_Node000004_Node000007" class="edge">
<title>Node4&#45;&gt;Node7</title>
<g id="a_edge7_Node000004_Node000007"><a xlink:title=" ">
<path fill="none" stroke="#63b8ff" d="M453.4,-55.38C464.26,-55.38 475.48,-55.38 486.35,-55.38"/>
<polygon fill="#63b8ff" stroke="#63b8ff" points="486.01,-58.88 496.01,-55.38 486.01,-51.88 486.01,-58.88"/>
</a>
</g>
</g>
<!-- Node4&#45;&gt;Node8 -->
<g id="edge10_Node000004_Node000008" class="edge">
<title>Node4&#45;&gt;Node8</title>
<g id="a_edge10_Node000004_Node000008"><a xlink:title=" ">
<path fill="none" stroke="#63b8ff" d="M424.6,-44.6C448.59,-38.44 478.92,-30.65 504.58,-24.06"/>
<polygon fill="#63b8ff" stroke="#63b8ff" points="505.35,-27.48 514.17,-21.6 503.61,-20.7 505.35,-27.48"/>
</a>
</g>
</g>
</g>
</svg>
