<?xml version="1.0" encoding="UTF-8" standalone="no"?>
<!DOCTYPE svg PUBLIC "-//W3C//DTD SVG 1.1//EN"
 "http://www.w3.org/Graphics/SVG/1.1/DTD/svg11.dtd">
<!-- Generated by graphviz version 13.1.2 (20250808.2320)
 -->
<!-- Title: kest_extract_filter_coefs_from_dict Pages: 1 -->
<svg width="609pt" height="146pt"
 viewBox="0.00 0.00 609.00 146.00" xmlns="http://www.w3.org/2000/svg" xmlns:xlink="http://www.w3.org/1999/xlink">
<g id="graph0" class="graph" transform="scale(1 1) rotate(0) translate(4 141.5)">
<title>kest_extract_filter_coefs_from_dict</title>
<!-- Node1 -->
<g id="Node000001" class="node">
<title>Node1</title>
<g id="a_Node000001"><a xlink:title=" ">
<polygon fill="#999999" stroke="#666666" points="601,-85.5 496.5,-85.5 496.5,-52 601,-52 601,-85.5"/>
<text xml:space="preserve" text-anchor="start" x="504.5" y="-72" font-family="Helvetica,sans-Serif" font-size="10.00">kest_extract_filter</text>
<text xml:space="preserve" text-anchor="middle" x="548.75" y="-59.25" font-family="Helvetica,sans-Serif" font-size="10.00">_coefs_from_dict</text>
</a>
</g>
</g>
<!-- Node2 -->
<g id="Node000002" class="node">
<title>Node2</title>
<g id="a_Node000002"><a xlink:href="kest__dict__extract_8c.html#ab7acbd0287c39e5bbb08575fa2a61291" target="_top" xlink:title=" ">
<polygon fill="white" stroke="#666666" points="449.62,-137.5 335.38,-137.5 335.38,-104 449.62,-104 449.62,-137.5"/>
<text xml:space="preserve" text-anchor="start" x="343.38" y="-124" font-family="Helvetica,sans-Serif" font-size="10.00">kest_extract_biquad</text>
<text xml:space="preserve" text-anchor="middle" x="392.5" y="-111.25" font-family="Helvetica,sans-Serif" font-size="10.00">_from_dict</text>
</a>
</g>
</g>
<!-- Node1&#45;&gt;Node2 -->
<g id="edge1_Node000001_Node000002" class="edge">
<title>Node1&#45;&gt;Node2</title>
<g id="a_edge1_Node000001_Node000002"><a xlink:title=" ">
<path fill="none" stroke="#63b8ff" d="M485.99,-89.57C472.28,-94.19 457.88,-99.05 444.64,-103.51"/>
<polygon fill="#63b8ff" stroke="#63b8ff" points="487.02,-92.92 495.38,-86.4 484.79,-86.28 487.02,-92.92"/>
</a>
</g>
</g>
<!-- Node15 -->
<g id="Node000015" class="node">
<title>Node15</title>
<g id="a_Node000015"><a xlink:href="kest__dict__extract_8c.html#a449de50461a34d20bba301a90a39ec05" target="_top" xlink:title=" ">
<polygon fill="white" stroke="#666666" points="444.75,-85.5 340.25,-85.5 340.25,-52 444.75,-52 444.75,-85.5"/>
<text xml:space="preserve" text-anchor="start" x="348.25" y="-72" font-family="Helvetica,sans-Serif" font-size="10.00">kest_extract_filter</text>
<text xml:space="preserve" text-anchor="middle" x="392.5" y="-59.25" font-family="Helvetica,sans-Serif" font-size="10.00">_from_dict</text>
</a>
</g>
</g>
<!-- Node1&#45;&gt;Node15 -->
<g id="edge4_Node000001_Node000015" class="edge">
<title>Node1&#45;&gt;Node15</title>
<g id="a_edge4_Node000001_Node000015"><a xlink:title=" ">
<path fill="none" stroke="#63b8ff" d="M484.96,-68.75C471.73,-68.75 457.92,-68.75 445.16,-68.75"/>
<polygon fill="#63b8ff" stroke="#63b8ff" points="484.87,-72.25 494.87,-68.75 484.87,-65.25 484.87,-72.25"/>
</a>
</g>
</g>
<!-- Node16 -->
<g id="Node000016" class="node">
<title>Node16</title>
<g id="a_Node000016"><a xlink:href="kest__dict__extract_8c.html#a5cdad622cac403efa9954b47c588ce90" target="_top" xlink:title=" ">
<polygon fill="white" stroke="#666666" points="460.5,-33.5 324.5,-33.5 324.5,0 460.5,0 460.5,-33.5"/>
<text xml:space="preserve" text-anchor="start" x="332.5" y="-20" font-family="Helvetica,sans-Serif" font-size="10.00">kest_extract_polynomial</text>
<text xml:space="preserve" text-anchor="middle" x="392.5" y="-7.25" font-family="Helvetica,sans-Serif" font-size="10.00">_from_dict</text>
</a>
</g>
</g>
<!-- Node1&#45;&gt;Node16 -->
<g id="edge6_Node000001_Node000016" class="edge">
<title>Node1&#45;&gt;Node16</title>
<g id="a_edge6_Node000001_Node000016"><a xlink:title=" ">
<path fill="none" stroke="#63b8ff" d="M485.99,-47.93C472.28,-43.31 457.88,-38.45 444.64,-33.99"/>
<polygon fill="#63b8ff" stroke="#63b8ff" points="484.79,-51.22 495.38,-51.1 487.02,-44.58 484.79,-51.22"/>
</a>
</g>
</g>
<!-- Node3 -->
<g id="Node000003" class="node">
<title>Node3</title>
<g id="a_Node000003"><a xlink:href="kest__dict__extract_8c.html#ad78dabb9f962180138c9dfc2bf1731e3" target="_top" xlink:title=" ">
<polygon fill="white" stroke="#666666" points="288.5,-85.5 165.25,-85.5 165.25,-52 288.5,-52 288.5,-85.5"/>
<text xml:space="preserve" text-anchor="start" x="173.25" y="-72" font-family="Helvetica,sans-Serif" font-size="10.00">kest_extract_resource</text>
<text xml:space="preserve" text-anchor="middle" x="226.88" y="-59.25" font-family="Helvetica,sans-Serif" font-size="10.00">_from_dict</text>
</a>
</g>
</g>
<!-- Node2&#45;&gt;Node3 -->
<g id="edge2_Node000002_Node000003" class="edge">
<title>Node2&#45;&gt;Node3</title>
<g id="a_edge2_Node000002_Node000003"><a xlink:title=" ">
<path fill="none" stroke="#63b8ff" d="M326.85,-100.21C312.04,-95.5 296.45,-90.54 282.13,-85.99"/>
<polygon fill="#63b8ff" stroke="#63b8ff" points="325.44,-103.43 336.03,-103.12 327.56,-96.76 325.44,-103.43"/>
</a>
</g>
</g>
<!-- Node4 -->
<g id="Node000004" class="node">
<title>Node4</title>
<g id="a_Node000004"><a xlink:href="kest__eff__section_8c.html#a55e76cf45dd01c8cc35bf2323f67b931" target="_top" xlink:title=" ">
<polygon fill="#fff0f0" stroke="red" points="129.25,-85.5 0,-85.5 0,-52 129.25,-52 129.25,-85.5"/>
<text xml:space="preserve" text-anchor="start" x="8" y="-72" font-family="Helvetica,sans-Serif" font-size="10.00">kest_resources_section</text>
<text xml:space="preserve" text-anchor="middle" x="64.62" y="-59.25" font-family="Helvetica,sans-Serif" font-size="10.00">_extract</text>
</a>
</g>
</g>
<!-- Node3&#45;&gt;Node4 -->
<g id="edge3_Node000003_Node000004" class="edge">
<title>Node3&#45;&gt;Node4</title>
<g id="a_edge3_Node000003_Node000004"><a xlink:title=" ">
<path fill="none" stroke="#63b8ff" d="M153.37,-68.75C145.47,-68.75 137.48,-68.75 129.69,-68.75"/>
<polygon fill="#63b8ff" stroke="#63b8ff" points="153.32,-72.25 163.32,-68.75 153.32,-65.25 153.32,-72.25"/>
</a>
</g>
</g>
<!-- Node15&#45;&gt;Node3 -->
<g id="edge5_Node000015_Node000003" class="edge">
<title>Node15&#45;&gt;Node3</title>
<g id="a_edge5_Node000015_Node000003"><a xlink:title=" ">
<path fill="none" stroke="#63b8ff" d="M328.84,-68.75C315.69,-68.75 301.84,-68.75 288.76,-68.75"/>
<polygon fill="#63b8ff" stroke="#63b8ff" points="328.66,-72.25 338.66,-68.75 328.66,-65.25 328.66,-72.25"/>
</a>
</g>
</g>
<!-- Node16&#45;&gt;Node3 -->
<g id="edge7_Node000016_Node000003" class="edge">
<title>Node16&#45;&gt;Node3</title>
<g id="a_edge7_Node000016_Node000003"><a xlink:title=" ">
<path fill="none" stroke="#63b8ff" d="M326.85,-37.29C312.04,-42 296.45,-46.96 282.13,-51.51"/>
<polygon fill="#63b8ff" stroke="#63b8ff" points="327.56,-40.74 336.03,-34.38 325.44,-34.07 327.56,-40.74"/>
</a>
</g>
</g>
</g>
</svg>
