<?xml version="1.0" encoding="UTF-8" standalone="no"?>
<!DOCTYPE svg PUBLIC "-//W3C//DTD SVG 1.1//EN"
 "http://www.w3.org/Graphics/SVG/1.1/DTD/svg11.dtd">
<!-- Generated by graphviz version 13.1.2 (20250808.2320)
 -->
<!-- Title: kest_expression_is_constant_reference Pages: 1 -->
<!--zoomable 433 -->

<svg id="main" version="1.1" xmlns="http://www.w3.org/2000/svg" xmlns:xlink="http://www.w3.org/1999/xlink" xml:space="preserve" onload="init(evt)">

<style type="text/css"><![CDATA[
.node, .edge {opacity: 0.7;}
.node.selected, .edge.selected {opacity: 1;}
.edge:hover path { stroke: red; }
.edge:hover polygon { stroke: red; fill: red; }
]]></style>

<defs>
  <circle id="rim" cx="0" cy="0" r="7"/>
  <circle id="rim2" cx="0" cy="0" r="3.5"/>
  <g id="zoomPlus">
    <use xlink:href="#rim" fill="#404040"><set attributeName="fill" to="#808080" begin="zoomplus.mouseover" end="zoomplus.mouseout"/></use>
    <path d="M-4,0h8M0,-4v8" fill="none" stroke="white" stroke-width="1.5" pointer-events="none"/>
  </g>
  <g id="zoomMin">
    <use xlink:href="#rim" fill="#404040"><set attributeName="fill" to="#808080" begin="zoomminus.mouseover" end="zoomminus.mouseout"/></use>
    <path d="M-4,0h8" fill="none" stroke="white" stroke-width="1.5" pointer-events="none"/>
  </g>
  <g id="arrowUp" transform="translate(30 24)">
    <use xlink:href="#rim"/>
    <path pointer-events="none" fill="none" stroke="white" stroke-width="1.5" d="M0,-3.0v7 M-2.5,-0.5L0,-3.0L2.5,-0.5"/>
  </g>
  <g id="arrowRight" transform="rotate(90) translate(36 -43)">
    <use xlink:href="#rim"/>
    <path pointer-events="none" fill="none" stroke="white" stroke-width="1.5" d="M0,-3.0v7 M-2.5,-0.5L0,-3.0L2.5,-0.5"/>
  </g>
  <g id="arrowDown" transform="rotate(180) translate(-30 -48)">
    <use xlink:href="#rim"/>
    <path pointer-events="none" fill="none" stroke="white" stroke-width="1.5" d="M0,-3.0v7 M-2.5,-0.5L0,-3.0L2.5,-0.5"/>
  </g>
  <g id="arrowLeft" transform="rotate(270) translate(-36 17)">
    <use xlink:href="#rim"/>
    <path pointer-events="none" fill="none" stroke="white" stroke-width="1.5" d="M0,-3.0v7 M-2.5,-0.5L0,-3.0L2.5,-0.5"/>
  </g>
  <g id="resetDef">
    <use xlink:href="#rim2" fill="#404040"><set attributeName="fill" to="#808080" begin="reset.mouseover" end="reset.mouseout"/></use>
  </g>
</defs>
<script type="application/ecmascript">
var viewWidth = 865;
var viewHeight = 433;
var sectionId = 'dynsection-75';
</script>
<script type="application/ecmascript" xlink:href="svg.min.js"/>
<svg id="graph" class="graph">
<g id="viewport">
<title>kest_expression_is_constant_reference</title>
<!-- Node1 -->
<g id="Node000001" class="node">
<title>Node1</title>
<g id="a_Node000001"><a xlink:title=" ">
<polygon fill="#999999" stroke="#666666" points="857,-288.5 742,-288.5 742,-255 857,-255 857,-288.5"/>
<text xml:space="preserve" text-anchor="start" x="750" y="-275" font-family="Helvetica,sans-Serif" font-size="10.00">kest_expression_is</text>
<text xml:space="preserve" text-anchor="middle" x="799.5" y="-262.25" font-family="Helvetica,sans-Serif" font-size="10.00">_constant_reference</text>
</a>
</g>
</g>
<!-- Node2 -->
<g id="Node000002" class="node">
<title>Node2</title>
<g id="a_Node000002"><a xlink:href="kest__expression_8c.html#a9ea46b77b43cb7f43cfe7091f44e2e2d" target="_top" xlink:title=" ">
<polygon fill="white" stroke="#666666" points="706,-396.5 563.25,-396.5 563.25,-363 706,-363 706,-396.5"/>
<text xml:space="preserve" text-anchor="start" x="571.25" y="-383" font-family="Helvetica,sans-Serif" font-size="10.00">kest_expression_compute</text>
<text xml:space="preserve" text-anchor="middle" x="634.62" y="-370.25" font-family="Helvetica,sans-Serif" font-size="10.00">_max_rec</text>
</a>
</g>
</g>
<!-- Node1&#45;&gt;Node2 -->
<g id="edge1_Node000001_Node000002" class="edge">
<title>Node1&#45;&gt;Node2</title>
<g id="a_edge1_Node000001_Node000002"><a xlink:title=" ">
<path fill="none" stroke="#63b8ff" d="M773.09,-296.25C755.3,-312.53 730.42,-333.62 706,-348.75 697.83,-353.81 688.69,-358.48 679.77,-362.57"/>
<polygon fill="#63b8ff" stroke="#63b8ff" points="775.17,-299.09 780.11,-289.72 770.41,-293.96 775.17,-299.09"/>
</a>
</g>
</g>
<!-- Node27 -->
<g id="Node000027" class="node">
<title>Node27</title>
<g id="a_Node000027"><a xlink:href="kest__expression_8c.html#a314111382b96c56e6f648658c7125e2b" target="_top" xlink:title=" ">
<polygon fill="white" stroke="#666666" points="527.25,-374.5 384.5,-374.5 384.5,-341 527.25,-341 527.25,-374.5"/>
<text xml:space="preserve" text-anchor="start" x="392.5" y="-361" font-family="Helvetica,sans-Serif" font-size="10.00">kest_expression_compute</text>
<text xml:space="preserve" text-anchor="middle" x="455.88" y="-348.25" font-family="Helvetica,sans-Serif" font-size="10.00">_min_rec</text>
</a>
</g>
</g>
<!-- Node1&#45;&gt;Node27 -->
<g id="edge10_Node000001_Node000027" class="edge">
<title>Node1&#45;&gt;Node27</title>
<g id="a_edge10_Node000001_Node000027"><a xlink:title=" ">
<path fill="none" stroke="#63b8ff" d="M758.13,-293.94C742.28,-301.85 723.67,-310.18 706,-315.75 647.33,-334.25 578.18,-345.09 527.63,-351.1"/>
<polygon fill="#63b8ff" stroke="#63b8ff" points="759.46,-297.19 766.77,-289.52 756.27,-290.96 759.46,-297.19"/>
</a>
</g>
</g>
<!-- Node29 -->
<g id="Node000029" class="node">
<title>Node29</title>
<g id="a_Node000029"><a xlink:href="kest__expression_8c.html#a146f5c5c8ecc02be0e5e695cbbc10f10" target="_top" xlink:title=" ">
<polygon fill="white" stroke="#666666" points="706,-288.5 563.25,-288.5 563.25,-255 706,-255 706,-288.5"/>
<text xml:space="preserve" text-anchor="start" x="571.25" y="-275" font-family="Helvetica,sans-Serif" font-size="10.00">kest_expression_compute</text>
<text xml:space="preserve" text-anchor="middle" x="634.62" y="-262.25" font-family="Helvetica,sans-Serif" font-size="10.00">_range_rec</text>
</a>
</g>
</g>
<!-- Node1&#45;&gt;Node29 -->
<g id="edge11_Node000001_Node000029" class="edge">
<title>Node1&#45;&gt;Node29</title>
<g id="a_edge11_Node000001_Node000029"><a xlink:title=" ">
<path fill="none" stroke="#63b8ff" d="M730.15,-271.75C722.27,-271.75 714.22,-271.75 706.31,-271.75"/>
<polygon fill="#63b8ff" stroke="#63b8ff" points="730.02,-275.25 740.02,-271.75 730.02,-268.25 730.02,-275.25"/>
</a>
</g>
</g>
<!-- Node31 -->
<g id="Node000031" class="node">
<title>Node31</title>
<g id="a_Node000031"><a xlink:href="kest__expression_8c.html#a620430bdb724fe4055dd713964c5be27" target="_top" xlink:title=" ">
<polygon fill="white" stroke="#666666" points="700,-218.5 569.25,-218.5 569.25,-185 700,-185 700,-218.5"/>
<text xml:space="preserve" text-anchor="start" x="577.25" y="-205" font-family="Helvetica,sans-Serif" font-size="10.00">kest_expression_detect</text>
<text xml:space="preserve" text-anchor="middle" x="634.62" y="-192.25" font-family="Helvetica,sans-Serif" font-size="10.00">_constants_rec</text>
</a>
</g>
</g>
<!-- Node1&#45;&gt;Node31 -->
<g id="edge14_Node000001_Node000031" class="edge">
<title>Node1&#45;&gt;Node31</title>
<g id="a_edge14_Node000001_Node000031"><a xlink:title=" ">
<path fill="none" stroke="#63b8ff" d="M748.25,-250.15C724.91,-240.12 697.53,-228.36 675.62,-218.94"/>
<polygon fill="#63b8ff" stroke="#63b8ff" points="746.7,-253.3 757.27,-254.03 749.46,-246.86 746.7,-253.3"/>
</a>
</g>
</g>
<!-- Node47 -->
<g id="Node000047" class="node">
<title>Node47</title>
<g id="a_Node000047"><a xlink:href="kest__expression_8c.html#a5f426c56ff63e0e740b12dbb629b89db" target="_top" xlink:title=" ">
<polygon fill="white" stroke="#666666" points="688.75,-123.5 580.5,-123.5 580.5,-90 688.75,-90 688.75,-123.5"/>
<text xml:space="preserve" text-anchor="start" x="588.5" y="-110" font-family="Helvetica,sans-Serif" font-size="10.00">kest_expression_is</text>
<text xml:space="preserve" text-anchor="middle" x="634.62" y="-97.25" font-family="Helvetica,sans-Serif" font-size="10.00">_constant</text>
</a>
</g>
</g>
<!-- Node1&#45;&gt;Node47 -->
<g id="edge18_Node000001_Node000047" class="edge">
<title>Node1&#45;&gt;Node47</title>
<g id="a_edge18_Node000001_Node000047"><a xlink:title=" ">
<path fill="none" stroke="#63b8ff" d="M774.33,-246.28C755.78,-226.82 729.46,-199.41 706,-175.75 688.29,-157.89 667.72,-137.79 653.4,-123.91"/>
<polygon fill="#63b8ff" stroke="#63b8ff" points="771.8,-248.69 781.23,-253.52 776.87,-243.86 771.8,-248.69"/>
</a>
</g>
</g>
<!-- Node2&#45;&gt;Node2 -->
<g id="edge4_Node000002_Node000002" class="edge">
<title>Node2&#45;&gt;Node2</title>
<g id="a_edge4_Node000002_Node000002"><a xlink:title=" ">
<path fill="none" stroke="#63b8ff" d="M662.31,-407.89C657.8,-411.85 648.57,-414.5 634.62,-414.5 609.83,-414.5 599.95,-406.12 604.99,-396.91"/>
<polygon fill="#63b8ff" stroke="#63b8ff" points="665.69,-408.86 664,-398.4 658.8,-407.64 665.69,-408.86"/>
</a>
</g>
</g>
<!-- Node3 -->
<g id="Node000003" class="node">
<title>Node3</title>
<g id="a_Node000003"><a xlink:href="kest__expression_8c.html#ac0d36327234ac552a23d07d118392e5a" target="_top" xlink:title=" ">
<polygon fill="white" stroke="#666666" points="348.5,-425.12 178.75,-425.12 178.75,-404.38 348.5,-404.38 348.5,-425.12"/>
<text xml:space="preserve" text-anchor="middle" x="263.62" y="-411.62" font-family="Helvetica,sans-Serif" font-size="10.00">kest_expression_compute_max</text>
</a>
</g>
</g>
<!-- Node2&#45;&gt;Node3 -->
<g id="edge2_Node000002_Node000003" class="edge">
<title>Node2&#45;&gt;Node3</title>
<g id="a_edge2_Node000002_Node000003"><a xlink:title=" ">
<path fill="none" stroke="#63b8ff" d="M551.73,-398.01C543.49,-399.45 535.22,-400.73 527.25,-401.75 467.93,-409.31 400.55,-412.53 348.89,-413.88"/>
<polygon fill="#63b8ff" stroke="#63b8ff" points="552.23,-401.47 561.44,-396.23 550.97,-394.59 552.23,-401.47"/>
</a>
</g>
</g>
<!-- Node2&#45;&gt;Node27 -->
<g id="edge5_Node000002_Node000027" class="edge">
<title>Node2&#45;&gt;Node27</title>
<g id="a_edge5_Node000002_Node000027"><a xlink:title=" ">
<path fill="none" stroke="#63b8ff" d="M551.48,-362.79C543.46,-361.75 535.37,-360.78 527.48,-359.91"/>
<polygon fill="#63b8ff" stroke="#63b8ff" points="550.88,-366.24 561.25,-364.1 551.8,-359.3 550.88,-366.24"/>
</a>
</g>
</g>
<!-- Node4 -->
<g id="Node000004" class="node">
<title>Node4</title>
<g id="a_Node000004"><a xlink:href="kest__fixed__point_8c.html#aadbad80611ec55e1e488a3740c578c8b" target="_top" xlink:title=" ">
<polygon fill="#fff0f0" stroke="red" points="142.75,-405.5 0,-405.5 0,-372 142.75,-372 142.75,-405.5"/>
<text xml:space="preserve" text-anchor="start" x="8" y="-392" font-family="Helvetica,sans-Serif" font-size="10.00">kest_expression_compute</text>
<text xml:space="preserve" text-anchor="middle" x="71.38" y="-379.25" font-family="Helvetica,sans-Serif" font-size="10.00">_format</text>
</a>
</g>
</g>
<!-- Node3&#45;&gt;Node4 -->
<g id="edge3_Node000003_Node000004" class="edge">
<title>Node3&#45;&gt;Node4</title>
<g id="a_edge3_Node000003_Node000004"><a xlink:title=" ">
<path fill="none" stroke="#63b8ff" d="M171.97,-402.36C162.26,-401.03 152.49,-399.7 143.06,-398.41"/>
<polygon fill="#63b8ff" stroke="#63b8ff" points="171.44,-405.82 181.82,-403.71 172.39,-398.89 171.44,-405.82"/>
</a>
</g>
</g>
<!-- Node27&#45;&gt;Node2 -->
<g id="edge6_Node000027_Node000002" class="edge">
<title>Node27&#45;&gt;Node2</title>
<g id="a_edge6_Node000027_Node000002"><a xlink:title=" ">
<path fill="none" stroke="#63b8ff" d="M538.74,-374.67C546.76,-375.71 554.85,-376.69 562.75,-377.56"/>
<polygon fill="#63b8ff" stroke="#63b8ff" points="539.35,-371.22 528.98,-373.37 538.42,-378.16 539.35,-371.22"/>
</a>
</g>
</g>
<!-- Node27&#45;&gt;Node27 -->
<g id="edge9_Node000027_Node000027" class="edge">
<title>Node27&#45;&gt;Node27</title>
<g id="a_edge9_Node000027_Node000027"><a xlink:title=" ">
<path fill="none" stroke="#63b8ff" d="M485.89,-385.89C481,-389.85 471,-392.5 455.88,-392.5 428.99,-392.5 418.28,-384.12 423.74,-374.91"/>
<polygon fill="#63b8ff" stroke="#63b8ff" points="489.26,-386.88 487.72,-376.4 482.39,-385.56 489.26,-386.88"/>
</a>
</g>
</g>
<!-- Node28 -->
<g id="Node000028" class="node">
<title>Node28</title>
<g id="a_Node000028"><a xlink:href="kest__expression_8c.html#a76a52d6b21899491c72f97961df20864" target="_top" xlink:title=" ">
<polygon fill="white" stroke="#666666" points="347,-374.12 180.25,-374.12 180.25,-353.38 347,-353.38 347,-374.12"/>
<text xml:space="preserve" text-anchor="middle" x="263.62" y="-360.62" font-family="Helvetica,sans-Serif" font-size="10.00">kest_expression_compute_min</text>
</a>
</g>
</g>
<!-- Node27&#45;&gt;Node28 -->
<g id="edge7_Node000027_Node000028" class="edge">
<title>Node27&#45;&gt;Node28</title>
<g id="a_edge7_Node000027_Node000028"><a xlink:title=" ">
<path fill="none" stroke="#63b8ff" d="M372.71,-360.34C364.32,-360.61 355.79,-360.87 347.4,-361.14"/>
<polygon fill="#63b8ff" stroke="#63b8ff" points="372.64,-363.85 382.52,-360.03 372.41,-356.85 372.64,-363.85"/>
</a>
</g>
</g>
<!-- Node28&#45;&gt;Node4 -->
<g id="edge8_Node000028_Node000004" class="edge">
<title>Node28&#45;&gt;Node4</title>
<g id="a_edge8_Node000028_Node000004"><a xlink:title=" ">
<path fill="none" stroke="#63b8ff" d="M168.68,-376.1C160.04,-377.23 151.38,-378.37 143,-379.47"/>
<polygon fill="#63b8ff" stroke="#63b8ff" points="169.05,-379.58 178.51,-374.8 168.14,-372.64 169.05,-379.58"/>
</a>
</g>
</g>
<!-- Node29&#45;&gt;Node29 -->
<g id="edge13_Node000029_Node000029" class="edge">
<title>Node29&#45;&gt;Node29</title>
<g id="a_edge13_Node000029_Node000029"><a xlink:title=" ">
<path fill="none" stroke="#63b8ff" d="M662.31,-299.89C657.8,-303.85 648.57,-306.5 634.62,-306.5 609.83,-306.5 599.95,-298.12 604.99,-288.91"/>
<polygon fill="#63b8ff" stroke="#63b8ff" points="665.69,-300.86 664,-290.4 658.8,-299.64 665.69,-300.86"/>
</a>
</g>
</g>
<!-- Node30 -->
<g id="Node000030" class="node">
<title>Node30</title>
<g id="a_Node000030"><a xlink:href="kest__expression_8c.html#a619ffc9c55b8a65d5681d740b8738598" target="_top" xlink:title=" ">
<polygon fill="white" stroke="#666666" points="527.25,-288.5 384.5,-288.5 384.5,-255 527.25,-255 527.25,-288.5"/>
<text xml:space="preserve" text-anchor="start" x="392.5" y="-275" font-family="Helvetica,sans-Serif" font-size="10.00">kest_expression_compute</text>
<text xml:space="preserve" text-anchor="middle" x="455.88" y="-262.25" font-family="Helvetica,sans-Serif" font-size="10.00">_range</text>
</a>
</g>
</g>
<!-- Node29&#45;&gt;Node30 -->
<g id="edge12_Node000029_Node000030" class="edge">
<title>Node29&#45;&gt;Node30</title>
<g id="a_edge12_Node000029_Node000030"><a xlink:title=" ">
<path fill="none" stroke="#63b8ff" d="M551.48,-271.75C543.46,-271.75 535.37,-271.75 527.48,-271.75"/>
<polygon fill="#63b8ff" stroke="#63b8ff" points="551.24,-275.25 561.24,-271.75 551.24,-268.25 551.24,-275.25"/>
</a>
</g>
</g>
<!-- Node31&#45;&gt;Node31 -->
<g id="edge17_Node000031_Node000031" class="edge">
<title>Node31&#45;&gt;Node31</title>
<g id="a_edge17_Node000031_Node000031"><a xlink:title=" ">
<path fill="none" stroke="#63b8ff" d="M662.31,-229.89C657.8,-233.85 648.57,-236.5 634.62,-236.5 609.83,-236.5 599.95,-228.12 604.99,-218.91"/>
<polygon fill="#63b8ff" stroke="#63b8ff" points="665.69,-230.86 664,-220.4 658.8,-229.64 665.69,-230.86"/>
</a>
</g>
</g>
<!-- Node32 -->
<g id="Node000032" class="node">
<title>Node32</title>
<g id="a_Node000032"><a xlink:href="kest__expression_8c.html#a10e88ee8970dd7501341b9d5ea0c3cba" target="_top" xlink:title=" ">
<polygon fill="white" stroke="#666666" points="521.25,-227.5 390.5,-227.5 390.5,-194 521.25,-194 521.25,-227.5"/>
<text xml:space="preserve" text-anchor="start" x="398.5" y="-214" font-family="Helvetica,sans-Serif" font-size="10.00">kest_expression_detect</text>
<text xml:space="preserve" text-anchor="middle" x="455.88" y="-201.25" font-family="Helvetica,sans-Serif" font-size="10.00">_constants</text>
</a>
</g>
</g>
<!-- Node31&#45;&gt;Node32 -->
<g id="edge15_Node000031_Node000032" class="edge">
<title>Node31&#45;&gt;Node32</title>
<g id="a_edge15_Node000031_Node000032"><a xlink:title=" ">
<path fill="none" stroke="#63b8ff" d="M557.5,-205.63C545.56,-206.23 533.33,-206.86 521.68,-207.45"/>
<polygon fill="#63b8ff" stroke="#63b8ff" points="557.49,-209.13 567.3,-205.13 557.14,-202.14 557.49,-209.13"/>
</a>
</g>
</g>
<!-- Node33 -->
<g id="Node000033" class="node">
<title>Node33</title>
<g id="a_Node000033"><a xlink:href="kest__expr__parser_8c.html#a7caaee6c8b0c14b3ff08fba98d837ead" target="_top" xlink:title=" ">
<polygon fill="#fff0f0" stroke="red" points="327.12,-221.12 200.12,-221.12 200.12,-200.38 327.12,-200.38 327.12,-221.12"/>
<text xml:space="preserve" text-anchor="middle" x="263.62" y="-207.62" font-family="Helvetica,sans-Serif" font-size="10.00">kest_parse_expression</text>
</a>
</g>
</g>
<!-- Node32&#45;&gt;Node33 -->
<g id="edge16_Node000032_Node000033" class="edge">
<title>Node32&#45;&gt;Node33</title>
<g id="a_edge16_Node000032_Node000033"><a xlink:title=" ">
<path fill="none" stroke="#63b8ff" d="M379.11,-210.75C362,-210.75 344.02,-210.75 327.51,-210.75"/>
<polygon fill="#63b8ff" stroke="#63b8ff" points="378.69,-214.25 388.69,-210.75 378.69,-207.25 378.69,-214.25"/>
</a>
</g>
</g>
<!-- Node48 -->
<g id="Node000048" class="node">
<title>Node48</title>
<g id="a_Node000048"><a xlink:href="kest__dictionary_8c.html#abce7305c0db3c25c5d569189f9f60280" target="_top" xlink:title=" ">
<polygon fill="white" stroke="#666666" points="516.38,-175.5 395.38,-175.5 395.38,-142 516.38,-142 516.38,-175.5"/>
<text xml:space="preserve" text-anchor="start" x="403.38" y="-162" font-family="Helvetica,sans-Serif" font-size="10.00">kest_dictionary_entry</text>
<text xml:space="preserve" text-anchor="middle" x="455.88" y="-149.25" font-family="Helvetica,sans-Serif" font-size="10.00">_is_constant_number</text>
</a>
</g>
</g>
<!-- Node47&#45;&gt;Node48 -->
<g id="edge19_Node000047_Node000048" class="edge">
<title>Node47&#45;&gt;Node48</title>
<g id="a_edge19_Node000047_Node000048"><a xlink:title=" ">
<path fill="none" stroke="#63b8ff" d="M569.35,-125.66C551.73,-130.84 532.72,-136.44 515.44,-141.52"/>
<polygon fill="#63b8ff" stroke="#63b8ff" points="570.06,-129.1 578.66,-122.92 568.08,-122.38 570.06,-129.1"/>
</a>
</g>
</g>
<!-- Node50 -->
<g id="Node000050" class="node">
<title>Node50</title>
<g id="a_Node000050"><a xlink:href="kest__dict__extract_8c.html#aaef489a5ae1caa02a5e5a3ce26034d48" target="_top" xlink:title=" ">
<polygon fill="white" stroke="#666666" points="522.38,-123.5 389.38,-123.5 389.38,-90 522.38,-90 522.38,-123.5"/>
<text xml:space="preserve" text-anchor="start" x="397.38" y="-110" font-family="Helvetica,sans-Serif" font-size="10.00">kest_extract_int_setting</text>
<text xml:space="preserve" text-anchor="middle" x="455.88" y="-97.25" font-family="Helvetica,sans-Serif" font-size="10.00">_from_dict</text>
</a>
</g>
</g>
<!-- Node47&#45;&gt;Node50 -->
<g id="edge21_Node000047_Node000050" class="edge">
<title>Node47&#45;&gt;Node50</title>
<g id="a_edge21_Node000047_Node000050"><a xlink:title=" ">
<path fill="none" stroke="#63b8ff" d="M568.84,-106.75C553.8,-106.75 537.78,-106.75 522.7,-106.75"/>
<polygon fill="#63b8ff" stroke="#63b8ff" points="568.6,-110.25 578.6,-106.75 568.6,-103.25 568.6,-110.25"/>
</a>
</g>
</g>
<!-- Node51 -->
<g id="Node000051" class="node">
<title>Node51</title>
<g id="a_Node000051"><a xlink:href="kest__dict__extract_8c.html#a0225c4392c944b41b1db66787be35243" target="_top" xlink:title=" ">
<polygon fill="white" stroke="#666666" points="321.12,-104.5 206.12,-104.5 206.12,-71 321.12,-71 321.12,-104.5"/>
<text xml:space="preserve" text-anchor="start" x="214.12" y="-91" font-family="Helvetica,sans-Serif" font-size="10.00">kest_extract_setting</text>
<text xml:space="preserve" text-anchor="middle" x="263.62" y="-78.25" font-family="Helvetica,sans-Serif" font-size="10.00">_from_dict</text>
</a>
</g>
</g>
<!-- Node47&#45;&gt;Node51 -->
<g id="edge23_Node000047_Node000051" class="edge">
<title>Node47&#45;&gt;Node51</title>
<g id="a_edge23_Node000047_Node000051"><a xlink:title=" ">
<path fill="none" stroke="#63b8ff" d="M569.38,-88.43C555.59,-85.24 541.03,-82.41 527.25,-80.75 456.72,-72.26 374.8,-76.69 321.46,-81.46"/>
<polygon fill="#63b8ff" stroke="#63b8ff" points="568.23,-91.75 578.77,-90.7 569.87,-84.95 568.23,-91.75"/>
</a>
</g>
</g>
<!-- Node52 -->
<g id="Node000052" class="node">
<title>Node52</title>
<g id="a_Node000052"><a xlink:href="kest__parameter_8c.html#a7cf51c19ac7f4f01c97a788a7365c889" target="_top" xlink:title=" ">
<polygon fill="white" stroke="#666666" points="512.62,-33.5 399.12,-33.5 399.12,0 512.62,0 512.62,-33.5"/>
<text xml:space="preserve" text-anchor="start" x="407.12" y="-20" font-family="Helvetica,sans-Serif" font-size="10.00">kest_parameter_get</text>
<text xml:space="preserve" text-anchor="middle" x="455.88" y="-7.25" font-family="Helvetica,sans-Serif" font-size="10.00">_range_rec</text>
</a>
</g>
</g>
<!-- Node47&#45;&gt;Node52 -->
<g id="edge24_Node000047_Node000052" class="edge">
<title>Node47&#45;&gt;Node52</title>
<g id="a_edge24_Node000047_Node000052"><a xlink:title=" ">
<path fill="none" stroke="#63b8ff" d="M594.71,-84.05C574.77,-72.7 549.96,-59.02 527.25,-47.75 517.8,-43.06 507.48,-38.31 497.73,-33.99"/>
<polygon fill="#63b8ff" stroke="#63b8ff" points="592.93,-87.06 603.35,-88.99 596.41,-80.98 592.93,-87.06"/>
</a>
</g>
</g>
<!-- Node49 -->
<g id="Node000049" class="node">
<title>Node49</title>
<g id="a_Node000049"><a xlink:href="kest__dict__extract_8c.html#ab9eb2913c5cfcd0dd01128a9b0d3be9a" target="_top" xlink:title=" ">
<polygon fill="#fff0f0" stroke="red" points="342.88,-169.12 184.38,-169.12 184.38,-148.38 342.88,-148.38 342.88,-169.12"/>
<text xml:space="preserve" text-anchor="middle" x="263.62" y="-155.62" font-family="Helvetica,sans-Serif" font-size="10.00">kest_extract_mem_from_dict</text>
</a>
</g>
</g>
<!-- Node48&#45;&gt;Node49 -->
<g id="edge20_Node000048_Node000049" class="edge">
<title>Node48&#45;&gt;Node49</title>
<g id="a_edge20_Node000048_Node000049"><a xlink:title=" ">
<path fill="none" stroke="#63b8ff" d="M383.54,-158.75C370.34,-158.75 356.49,-158.75 343.09,-158.75"/>
<polygon fill="#63b8ff" stroke="#63b8ff" points="383.43,-162.25 393.43,-158.75 383.43,-155.25 383.43,-162.25"/>
</a>
</g>
</g>
<!-- Node50&#45;&gt;Node51 -->
<g id="edge22_Node000050_Node000051" class="edge">
<title>Node50&#45;&gt;Node51</title>
<g id="a_edge22_Node000050_Node000051"><a xlink:title=" ">
<path fill="none" stroke="#63b8ff" d="M377.87,-99.06C359.02,-97.18 339.2,-95.2 321.49,-93.43"/>
<polygon fill="#63b8ff" stroke="#63b8ff" points="377.33,-102.52 387.63,-100.03 378.03,-95.56 377.33,-102.52"/>
</a>
</g>
</g>
<!-- Node53 -->
<g id="Node000053" class="node">
<title>Node53</title>
<g id="a_Node000053"><a xlink:href="kest__parameter_8c.html#aed9bf2d04b704f1d4119124999a692e0" target="_top" xlink:title=" ">
<polygon fill="#fff0f0" stroke="red" points="320.38,-33.5 206.88,-33.5 206.88,0 320.38,0 320.38,-33.5"/>
<text xml:space="preserve" text-anchor="start" x="214.88" y="-20" font-family="Helvetica,sans-Serif" font-size="10.00">kest_parameter_get</text>
<text xml:space="preserve" text-anchor="middle" x="263.62" y="-7.25" font-family="Helvetica,sans-Serif" font-size="10.00">_range</text>
</a>
</g>
</g>
<!-- Node52&#45;&gt;Node53 -->
<g id="edge25_Node000052_Node000053" class="edge">
<title>Node52&#45;&gt;Node53</title>
<g id="a_edge25_Node000052_Node000053"><a xlink:title=" ">
<path fill="none" stroke="#63b8ff" d="M387.59,-16.75C365.67,-16.75 341.6,-16.75 320.61,-16.75"/>
<polygon fill="#63b8ff" stroke="#63b8ff" points="387.31,-20.25 397.31,-16.75 387.31,-13.25 387.31,-20.25"/>
</a>
</g>
</g>
</g>
</svg>

<g id="navigator" transform="translate(0 0)" fill="#404254">
  <rect fill="#f2f5e9" fill-opacity="0.5" stroke="#606060" stroke-width=".5" x="0" y="0" width="60" height="60"/>
  <use id="zoomplus" xlink:href="#zoomPlus" x="17" y="9" onmousedown="handleZoom(evt,'in')"/>
  <use id="zoomminus" xlink:href="#zoomMin" x="42" y="9" onmousedown="handleZoom(evt,'out')"/>
  <use id="reset" xlink:href="#resetDef" x="30" y="36" onmousedown="handleReset()"/>
   <use id="arrowup" xlink:href="#arrowUp" x="0" y="0" onmousedown="handlePan(0,-1)"/>
  <use id="arrowright" xlink:href="#arrowRight" x="0" y="0" onmousedown="handlePan(1,0)"/>
  <use id="arrowdown" xlink:href="#arrowDown" x="0" y="0" onmousedown="handlePan(0,1)"/>
  <use id="arrowleft" xlink:href="#arrowLeft" x="0" y="0" onmousedown="handlePan(-1,0)"/>
</g>
<svg viewBox="0 0 15 15" width="100%" height="30px" preserveAspectRatio="xMaxYMin meet">
 <g id="arrow_out" transform="scale(0.3 0.3)">
  <a xlink:href="kest__expression_8c_a9f7a466a9bc6d2622e7d36f2bec6df7e_icgraph_org.svg" target="_base">
   <rect id="button" ry="5" rx="5" y="6" x="6" height="38" width="38"
        fill="#f2f5e9" fill-opacity="0.5" stroke="#606060" stroke-width="1.0"/>
   <path id="arrow"
     d="M 11.500037,31.436501 C 11.940474,20.09759 22.043105,11.32322 32.158766,21.979434 L 37.068811,17.246167 C 37.068811,17.246167 37.088388,32 37.088388,32 L 22.160133,31.978069 C 22.160133,31.978069 26.997745,27.140456 26.997745,27.140456 C 18.528582,18.264221 13.291696,25.230495 11.500037,31.436501 z"
     style="fill:#404040;"/>
  </a>
 </g>
</svg>

<style type='text/css'>
<![CDATA[
[data-mouse-over-selected='false'] { opacity: 0.7; }
[data-mouse-over-selected='true']  { opacity: 1.0; }
]]>
</style>
<script type="application/ecmascript"><![CDATA[
document.addEventListener('DOMContentLoaded', (event) => {
  highlightEdges();
  highlightAdjacentNodes();
});
]]></script>
</svg>
