<?xml version="1.0" encoding="UTF-8" standalone="no"?>
<!DOCTYPE svg PUBLIC "-//W3C//DTD SVG 1.1//EN"
 "http://www.w3.org/Graphics/SVG/1.1/DTD/svg11.dtd">
<!-- Generated by graphviz version 13.1.2 (20250808.2320)
 -->
<!-- Title: kest_fpga_command_list_append_encoded Pages: 1 -->
<svg width="655pt" height="80pt"
 viewBox="0.00 0.00 655.00 80.00" xmlns="http://www.w3.org/2000/svg" xmlns:xlink="http://www.w3.org/1999/xlink">
<g id="graph0" class="graph" transform="scale(1 1) rotate(0) translate(4 76.12)">
<title>kest_fpga_command_list_append_encoded</title>
<!-- Node1 -->
<g id="Node000001" class="node">
<title>Node1</title>
<g id="a_Node000001"><a xlink:title=" ">
<polygon fill="#999999" stroke="#666666" points="646.75,-49.12 509.25,-49.12 509.25,-15.62 646.75,-15.62 646.75,-49.12"/>
<text xml:space="preserve" text-anchor="start" x="517.25" y="-35.62" font-family="Helvetica,sans-Serif" font-size="10.00">kest_fpga_command_list</text>
<text xml:space="preserve" text-anchor="middle" x="578" y="-22.88" font-family="Helvetica,sans-Serif" font-size="10.00">_append_encoded</text>
</a>
</g>
</g>
<!-- Node2 -->
<g id="Node000002" class="node">
<title>Node2</title>
<g id="a_Node000002"><a xlink:href="kest__update_8c.html#a683b2e516019ed6c0ea61600b739f1a8" target="_top" xlink:title=" ">
<polygon fill="white" stroke="#666666" points="473.25,-49.12 345.5,-49.12 345.5,-15.62 473.25,-15.62 473.25,-49.12"/>
<text xml:space="preserve" text-anchor="start" x="353.5" y="-35.62" font-family="Helvetica,sans-Serif" font-size="10.00">kest_updater_generate</text>
<text xml:space="preserve" text-anchor="middle" x="409.38" y="-22.88" font-family="Helvetica,sans-Serif" font-size="10.00">_tx_batch</text>
</a>
</g>
</g>
<!-- Node1&#45;&gt;Node2 -->
<g id="edge1_Node000001_Node000002" class="edge">
<title>Node1&#45;&gt;Node2</title>
<g id="a_edge1_Node000001_Node000002"><a xlink:title=" ">
<path fill="none" stroke="#63b8ff" d="M497.79,-32.38C489.64,-32.38 481.45,-32.38 473.52,-32.38"/>
<polygon fill="#63b8ff" stroke="#63b8ff" points="497.71,-35.88 507.71,-32.38 497.71,-28.88 497.71,-35.88"/>
</a>
</g>
</g>
<!-- Node3 -->
<g id="Node000003" class="node">
<title>Node3</title>
<g id="a_Node000003"><a xlink:href="kest__update_8c.html#a4f1604e33014c73e389e8a28b96941e0" target="_top" xlink:title=" ">
<polygon fill="white" stroke="#666666" points="309.5,-72.12 165.25,-72.12 165.25,-38.62 309.5,-38.62 309.5,-72.12"/>
<text xml:space="preserve" text-anchor="start" x="173.25" y="-58.62" font-family="Helvetica,sans-Serif" font-size="10.00">kest_standalone_generate</text>
<text xml:space="preserve" text-anchor="middle" x="237.38" y="-45.88" font-family="Helvetica,sans-Serif" font-size="10.00">_program_batch</text>
</a>
</g>
</g>
<!-- Node2&#45;&gt;Node3 -->
<g id="edge2_Node000002_Node000003" class="edge">
<title>Node2&#45;&gt;Node3</title>
<g id="a_edge2_Node000002_Node000003"><a xlink:title=" ">
<path fill="none" stroke="#63b8ff" d="M333.86,-42.46C325.85,-43.54 317.71,-44.64 309.74,-45.72"/>
<polygon fill="#63b8ff" stroke="#63b8ff" points="334.13,-45.95 343.57,-41.14 333.19,-39.01 334.13,-45.95"/>
</a>
</g>
</g>
<!-- Node4 -->
<g id="Node000004" class="node">
<title>Node4</title>
<g id="a_Node000004"><a xlink:href="kest__update_8c.html#a5f1849c909f1dbde00900ad089f46d8f" target="_top" xlink:title=" ">
<polygon fill="white" stroke="#666666" points="288.12,-20.75 186.62,-20.75 186.62,0 288.12,0 288.12,-20.75"/>
<text xml:space="preserve" text-anchor="middle" x="237.38" y="-7.25" font-family="Helvetica,sans-Serif" font-size="10.00">kest_update_task</text>
</a>
</g>
</g>
<!-- Node2&#45;&gt;Node4 -->
<g id="edge3_Node000002_Node000004" class="edge">
<title>Node2&#45;&gt;Node4</title>
<g id="a_edge3_Node000002_Node000004"><a xlink:title=" ">
<path fill="none" stroke="#63b8ff" d="M333.98,-22.75C318.59,-20.76 302.73,-18.7 288.45,-16.86"/>
<polygon fill="#63b8ff" stroke="#63b8ff" points="333.21,-26.18 343.57,-23.99 334.1,-19.23 333.21,-26.18"/>
</a>
</g>
</g>
<!-- Node5 -->
<g id="Node000005" class="node">
<title>Node5</title>
<g id="a_Node000005"><a xlink:href="kest__update_8c.html#a144a1e0bedaf2dbf6788825228333e63" target="_top" xlink:title=" ">
<polygon fill="#fff0f0" stroke="red" points="129.25,-20.75 0,-20.75 0,0 129.25,0 129.25,-20.75"/>
<text xml:space="preserve" text-anchor="middle" x="64.62" y="-7.25" font-family="Helvetica,sans-Serif" font-size="10.00">kest_update_task_start</text>
</a>
</g>
</g>
<!-- Node4&#45;&gt;Node5 -->
<g id="edge4_Node000004_Node000005" class="edge">
<title>Node4&#45;&gt;Node5</title>
<g id="a_edge4_Node000004_Node000005"><a xlink:title=" ">
<path fill="none" stroke="#63b8ff" d="M175.39,-10.38C160.51,-10.38 144.56,-10.38 129.54,-10.38"/>
<polygon fill="#63b8ff" stroke="#63b8ff" points="175.01,-13.88 185.01,-10.38 175.01,-6.88 175.01,-13.88"/>
</a>
</g>
</g>
</g>
</svg>
