<?xml version="1.0" encoding="UTF-8" standalone="no"?>
<!DOCTYPE svg PUBLIC "-//W3C//DTD SVG 1.1//EN"
 "http://www.w3.org/Graphics/SVG/1.1/DTD/svg11.dtd">
<!-- Generated by graphviz version 13.1.2 (20250808.2320)
 -->
<!-- Title: kest_bump_arena_destroy Pages: 1 -->
<svg width="518pt" height="42pt"
 viewBox="0.00 0.00 518.00 42.00" xmlns="http://www.w3.org/2000/svg" xmlns:xlink="http://www.w3.org/1999/xlink">
<g id="graph0" class="graph" transform="scale(1 1) rotate(0) translate(4 37.5)">
<title>kest_bump_arena_destroy</title>
<!-- Node1 -->
<g id="Node000001" class="node">
<title>Node1</title>
<g id="a_Node000001"><a xlink:title=" ">
<polygon fill="#999999" stroke="#666666" points="509.5,-27.12 365.25,-27.12 365.25,-6.38 509.5,-6.38 509.5,-27.12"/>
<text xml:space="preserve" text-anchor="middle" x="437.38" y="-13.62" font-family="Helvetica,sans-Serif" font-size="10.00">kest_bump_arena_destroy</text>
</a>
</g>
</g>
<!-- Node2 -->
<g id="Node000002" class="node">
<title>Node2</title>
<g id="a_Node000002"><a xlink:href="kest__eff__parser_8c.html#ae47117fea783da5ed3185ed8e914519d" target="_top" xlink:title=" ">
<polygon fill="white" stroke="#666666" points="329.25,-33.5 205.25,-33.5 205.25,0 329.25,0 329.25,-33.5"/>
<text xml:space="preserve" text-anchor="start" x="213.25" y="-20" font-family="Helvetica,sans-Serif" font-size="10.00">kest_eff_parser_deinit</text>
<text xml:space="preserve" text-anchor="middle" x="267.25" y="-7.25" font-family="Helvetica,sans-Serif" font-size="10.00">_mempool</text>
</a>
</g>
</g>
<!-- Node1&#45;&gt;Node2 -->
<g id="edge1_Node000001_Node000002" class="edge">
<title>Node1&#45;&gt;Node2</title>
<g id="a_edge1_Node000001_Node000002"><a xlink:title=" ">
<path fill="none" stroke="#63b8ff" d="M353.65,-16.75C345.54,-16.75 337.41,-16.75 329.56,-16.75"/>
<polygon fill="#63b8ff" stroke="#63b8ff" points="353.56,-20.25 363.56,-16.75 353.56,-13.25 353.56,-20.25"/>
</a>
</g>
</g>
<!-- Node3 -->
<g id="Node000003" class="node">
<title>Node3</title>
<g id="a_Node000003"><a xlink:href="kest__files_8c.html#abd963628acfd524509956fff3c5f498c" target="_top" xlink:title=" ">
<polygon fill="white" stroke="#666666" points="169.25,-27.12 93.25,-27.12 93.25,-6.38 169.25,-6.38 169.25,-27.12"/>
<text xml:space="preserve" text-anchor="middle" x="131.25" y="-13.62" font-family="Helvetica,sans-Serif" font-size="10.00">load_effects</text>
</a>
</g>
</g>
<!-- Node2&#45;&gt;Node3 -->
<g id="edge2_Node000002_Node000003" class="edge">
<title>Node2&#45;&gt;Node3</title>
<g id="a_edge2_Node000002_Node000003"><a xlink:title=" ">
<path fill="none" stroke="#63b8ff" d="M193.72,-16.75C185.36,-16.75 177.12,-16.75 169.52,-16.75"/>
<polygon fill="#63b8ff" stroke="#63b8ff" points="193.62,-20.25 203.62,-16.75 193.62,-13.25 193.62,-20.25"/>
</a>
</g>
</g>
<!-- Node4 -->
<g id="Node000004" class="node">
<title>Node4</title>
<g id="a_Node000004"><a xlink:href="kest__init_8c.html#ad1373cd24ac2876b2830d1ad2eb92721" target="_top" xlink:title=" ">
<polygon fill="#fff0f0" stroke="red" points="57.25,-27.12 0,-27.12 0,-6.38 57.25,-6.38 57.25,-27.12"/>
<text xml:space="preserve" text-anchor="middle" x="28.63" y="-13.62" font-family="Helvetica,sans-Serif" font-size="10.00">kest_init</text>
</a>
</g>
</g>
<!-- Node3&#45;&gt;Node4 -->
<g id="edge3_Node000003_Node000004" class="edge">
<title>Node3&#45;&gt;Node4</title>
<g id="a_edge3_Node000003_Node000004"><a xlink:title=" ">
<path fill="none" stroke="#63b8ff" d="M81.4,-16.75C73.26,-16.75 65.07,-16.75 57.69,-16.75"/>
<polygon fill="#63b8ff" stroke="#63b8ff" points="81.27,-20.25 91.27,-16.75 81.27,-13.25 81.27,-20.25"/>
</a>
</g>
</g>
</g>
</svg>
