<?xml version="1.0" encoding="UTF-8" standalone="no"?>
<!DOCTYPE svg PUBLIC "-//W3C//DTD SVG 1.1//EN"
 "http://www.w3.org/Graphics/SVG/1.1/DTD/svg11.dtd">
<!-- Generated by graphviz version 13.1.2 (20250808.2320)
 -->
<!-- Title: save_sequence Pages: 1 -->
<svg width="524pt" height="187pt"
 viewBox="0.00 0.00 524.00 187.00" xmlns="http://www.w3.org/2000/svg" xmlns:xlink="http://www.w3.org/1999/xlink">
<g id="graph0" class="graph" transform="scale(1 1) rotate(0) translate(4 182.75)">
<title>save_sequence</title>
<!-- Node1 -->
<g id="Node000001" class="node">
<title>Node1</title>
<g id="a_Node000001"><a xlink:title=" ">
<polygon fill="#999999" stroke="#666666" points="91,-96.75 0,-96.75 0,-76 91,-76 91,-96.75"/>
<text xml:space="preserve" text-anchor="middle" x="45.5" y="-83.25" font-family="Helvetica,sans-Serif" font-size="10.00">save_sequence</text>
</a>
</g>
</g>
<!-- Node2 -->
<g id="Node000002" class="node">
<title>Node2</title>
<g id="a_Node000002"><a xlink:href="kest__files_8c.html#ab79d861306c25eab9284239e73d0cc07" target="_top" xlink:title=" ">
<polygon fill="white" stroke="#666666" points="515.12,-178.75 403.12,-178.75 403.12,-158 515.12,-158 515.12,-178.75"/>
<text xml:space="preserve" text-anchor="middle" x="459.12" y="-165.25" font-family="Helvetica,sans-Serif" font-size="10.00">dump_file_contents</text>
</a>
</g>
</g>
<!-- Node1&#45;&gt;Node2 -->
<g id="edge1_Node000001_Node000002" class="edge">
<title>Node1&#45;&gt;Node2</title>
<g id="a_edge1_Node000001_Node000002"><a xlink:title=" ">
<path fill="none" stroke="#63b8ff" d="M57.68,-97.1C72.32,-110.42 99.36,-132.7 127,-143.38 213.86,-176.92 322.92,-178.09 391.59,-174.38"/>
<polygon fill="#63b8ff" stroke="#63b8ff" points="391.39,-177.9 401.16,-173.81 390.97,-170.91 391.39,-177.9"/>
</a>
</g>
</g>
<!-- Node3 -->
<g id="Node000003" class="node">
<title>Node3</title>
<g id="a_Node000003"><a xlink:href="kest__files_8c.html#aa81649890323b78baf99fbbad53ab5ff" target="_top" xlink:title=" ">
<polygon fill="white" stroke="#666666" points="513.25,-100.75 405,-100.75 405,-80 513.25,-80 513.25,-100.75"/>
<text xml:space="preserve" text-anchor="middle" x="459.12" y="-87.25" font-family="Helvetica,sans-Serif" font-size="10.00">generate_filename</text>
</a>
</g>
</g>
<!-- Node1&#45;&gt;Node3 -->
<g id="edge2_Node000001_Node000003" class="edge">
<title>Node1&#45;&gt;Node3</title>
<g id="a_edge2_Node000001_Node000003"><a xlink:title=" ">
<path fill="none" stroke="#63b8ff" d="M91.33,-86.81C164.27,-87.52 308.92,-88.93 393.13,-89.74"/>
<polygon fill="#63b8ff" stroke="#63b8ff" points="393.05,-93.24 403.08,-89.84 393.12,-86.24 393.05,-93.24"/>
</a>
</g>
</g>
<!-- Node4 -->
<g id="Node000004" class="node">
<title>Node4</title>
<g id="a_Node000004"><a xlink:href="kest__error__codes_8c.html#a0f4c77127bc0b77264a21104979c576a" target="_top" xlink:title=" ">
<polygon fill="white" stroke="#666666" points="513.25,-62.12 405,-62.12 405,-28.62 513.25,-28.62 513.25,-62.12"/>
<text xml:space="preserve" text-anchor="start" x="413" y="-48.62" font-family="Helvetica,sans-Serif" font-size="10.00">kest_error_code_to</text>
<text xml:space="preserve" text-anchor="middle" x="459.12" y="-35.88" font-family="Helvetica,sans-Serif" font-size="10.00">_string</text>
</a>
</g>
</g>
<!-- Node1&#45;&gt;Node4 -->
<g id="edge3_Node000001_Node000004" class="edge">
<title>Node1&#45;&gt;Node4</title>
<g id="a_edge3_Node000001_Node000004"><a xlink:title=" ">
<path fill="none" stroke="#63b8ff" d="M91.33,-81.91C164.35,-74.64 309.21,-60.21 393.39,-51.82"/>
<polygon fill="#63b8ff" stroke="#63b8ff" points="393.49,-55.33 403.09,-50.86 392.79,-48.37 393.49,-55.33"/>
</a>
</g>
</g>
<!-- Node5 -->
<g id="Node000005" class="node">
<title>Node5</title>
<g id="a_Node000005"><a xlink:href="kest__alloc_8c.html#a294af5728a94aa316fcf65304d388d48" target="_top" xlink:title=" ">
<polygon fill="white" stroke="#666666" points="221.75,-20.75 160.75,-20.75 160.75,0 221.75,0 221.75,-20.75"/>
<text xml:space="preserve" text-anchor="middle" x="191.25" y="-7.25" font-family="Helvetica,sans-Serif" font-size="10.00">kest_free</text>
</a>
</g>
</g>
<!-- Node1&#45;&gt;Node5 -->
<g id="edge4_Node000001_Node000005" class="edge">
<title>Node1&#45;&gt;Node5</title>
<g id="a_edge4_Node000001_Node000005"><a xlink:title=" ">
<path fill="none" stroke="#63b8ff" d="M61.07,-75.62C76.78,-64.35 102.8,-46.61 127,-34.38 134.2,-30.74 142.08,-27.32 149.77,-24.28"/>
<polygon fill="#63b8ff" stroke="#63b8ff" points="150.89,-27.59 158.99,-20.77 148.4,-21.05 150.89,-27.59"/>
</a>
</g>
</g>
<!-- Node6 -->
<g id="Node000006" class="node">
<title>Node6</title>
<g id="a_Node000006"><a xlink:href="kest__files_8c.html#a00c64a8e626a8a982c9a7ced88c5f90d" target="_top" xlink:title=" ">
<polygon fill="white" stroke="#666666" points="255.5,-134.75 127,-134.75 127,-114 255.5,-114 255.5,-134.75"/>
<text xml:space="preserve" text-anchor="middle" x="191.25" y="-121.25" font-family="Helvetica,sans-Serif" font-size="10.00">save_sequence_as_file</text>
</a>
</g>
</g>
<!-- Node1&#45;&gt;Node6 -->
<g id="edge5_Node000001_Node000006" class="edge">
<title>Node1&#45;&gt;Node6</title>
<g id="a_edge5_Node000001_Node000006"><a xlink:title=" ">
<path fill="none" stroke="#63b8ff" d="M87.31,-97.16C103.24,-101.37 121.7,-106.25 138.54,-110.71"/>
<polygon fill="#63b8ff" stroke="#63b8ff" points="137.31,-114 147.88,-113.17 139.1,-107.23 137.31,-114"/>
</a>
</g>
</g>
<!-- Node6&#45;&gt;Node2 -->
<g id="edge6_Node000006_Node000002" class="edge">
<title>Node6&#45;&gt;Node2</title>
<g id="a_edge6_Node000006_Node000002"><a xlink:title=" ">
<path fill="none" stroke="#63b8ff" d="M246.78,-135.22C261.29,-138 276.97,-140.9 291.5,-143.38 324.36,-148.98 360.97,-154.55 391.49,-159"/>
<polygon fill="#63b8ff" stroke="#63b8ff" points="390.98,-162.47 401.38,-160.44 391.98,-155.54 390.98,-162.47"/>
</a>
</g>
</g>
<!-- Node7 -->
<g id="Node000007" class="node">
<title>Node7</title>
<g id="a_Node000007"><a xlink:href="kest__files_8c.html#a930754405483621f50f94833b02cdd3c" target="_top" xlink:title=" ">
<polygon fill="white" stroke="#666666" points="366.75,-134.75 291.5,-134.75 291.5,-114 366.75,-114 366.75,-134.75"/>
<text xml:space="preserve" text-anchor="middle" x="329.12" y="-121.25" font-family="Helvetica,sans-Serif" font-size="10.00">save_preset</text>
</a>
</g>
</g>
<!-- Node6&#45;&gt;Node7 -->
<g id="edge7_Node000006_Node000007" class="edge">
<title>Node6&#45;&gt;Node7</title>
<g id="a_edge7_Node000006_Node000007"><a xlink:title=" ">
<path fill="none" stroke="#63b8ff" d="M255.81,-124.38C263.88,-124.38 272.04,-124.38 279.82,-124.38"/>
<polygon fill="#63b8ff" stroke="#63b8ff" points="279.76,-127.88 289.76,-124.38 279.76,-120.88 279.76,-127.88"/>
</a>
</g>
</g>
<!-- Node7&#45;&gt;Node2 -->
<g id="edge8_Node000007_Node000002" class="edge">
<title>Node7&#45;&gt;Node2</title>
<g id="a_edge8_Node000007_Node000002"><a xlink:title=" ">
<path fill="none" stroke="#63b8ff" d="M361.44,-135.14C377.86,-140.79 398.22,-147.78 416.01,-153.9"/>
<polygon fill="#63b8ff" stroke="#63b8ff" points="414.67,-157.14 425.26,-157.08 416.94,-150.52 414.67,-157.14"/>
</a>
</g>
</g>
<!-- Node7&#45;&gt;Node3 -->
<g id="edge9_Node000007_Node000003" class="edge">
<title>Node7&#45;&gt;Node3</title>
<g id="a_edge9_Node000007_Node000003"><a xlink:title=" ">
<path fill="none" stroke="#63b8ff" d="M367.15,-114.54C379.49,-111.26 393.48,-107.55 406.71,-104.03"/>
<polygon fill="#63b8ff" stroke="#63b8ff" points="407.37,-107.48 416.14,-101.53 405.57,-100.71 407.37,-107.48"/>
</a>
</g>
</g>
<!-- Node7&#45;&gt;Node4 -->
<g id="edge10_Node000007_Node000004" class="edge">
<title>Node7&#45;&gt;Node4</title>
<g id="a_edge10_Node000007_Node000004"><a xlink:title=" ">
<path fill="none" stroke="#63b8ff" d="M343.25,-113.61C357.4,-102.28 380.86,-84.34 402.75,-71.38 404.78,-70.17 406.88,-68.98 409.02,-67.81"/>
<polygon fill="#63b8ff" stroke="#63b8ff" points="410.62,-70.92 417.86,-63.19 407.38,-64.71 410.62,-70.92"/>
</a>
</g>
</g>
<!-- Node8 -->
<g id="Node000008" class="node">
<title>Node8</title>
<g id="a_Node000008"><a xlink:href="kest__files_8c.html#aa542ea8d9ebd98457dad581876d72af6" target="_top" xlink:title=" ">
<polygon fill="white" stroke="#666666" points="515.5,-139.75 402.75,-139.75 402.75,-119 515.5,-119 515.5,-139.75"/>
<text xml:space="preserve" text-anchor="middle" x="459.12" y="-126.25" font-family="Helvetica,sans-Serif" font-size="10.00">save_preset_as_file</text>
</a>
</g>
</g>
<!-- Node7&#45;&gt;Node8 -->
<g id="edge11_Node000007_Node000008" class="edge">
<title>Node7&#45;&gt;Node8</title>
<g id="a_edge11_Node000007_Node000008"><a xlink:title=" ">
<path fill="none" stroke="#63b8ff" d="M367.15,-125.82C374.76,-126.12 383,-126.44 391.3,-126.76"/>
<polygon fill="#63b8ff" stroke="#63b8ff" points="390.97,-130.25 401.1,-127.15 391.24,-123.26 390.97,-130.25"/>
</a>
</g>
</g>
</g>
</svg>
