<?xml version="1.0" encoding="UTF-8" standalone="no"?>
<!DOCTYPE svg PUBLIC "-//W3C//DTD SVG 1.1//EN"
 "http://www.w3.org/Graphics/SVG/1.1/DTD/svg11.dtd">
<!-- Generated by graphviz version 13.1.2 (20250808.2320)
 -->
<!-- Title: kest_scope_add_mem_return_entry Pages: 1 -->
<svg width="478pt" height="80pt"
 viewBox="0.00 0.00 478.00 80.00" xmlns="http://www.w3.org/2000/svg" xmlns:xlink="http://www.w3.org/1999/xlink">
<g id="graph0" class="graph" transform="scale(1 1) rotate(0) translate(4 76.12)">
<title>kest_scope_add_mem_return_entry</title>
<!-- Node1 -->
<g id="Node000001" class="node">
<title>Node1</title>
<g id="a_Node000001"><a xlink:title=" ">
<polygon fill="#999999" stroke="#666666" points="124,-49.12 0,-49.12 0,-15.62 124,-15.62 124,-49.12"/>
<text xml:space="preserve" text-anchor="start" x="8" y="-35.62" font-family="Helvetica,sans-Serif" font-size="10.00">kest_scope_add_mem</text>
<text xml:space="preserve" text-anchor="middle" x="62" y="-22.88" font-family="Helvetica,sans-Serif" font-size="10.00">_return_entry</text>
</a>
</g>
</g>
<!-- Node2 -->
<g id="Node000002" class="node">
<title>Node2</title>
<g id="a_Node000002"><a xlink:href="kest__expr__scope_8c.html#a4c353c08be7a621fa59a7ec0146dc71c" target="_top" xlink:title=" ">
<polygon fill="white" stroke="#666666" points="298.25,-72.12 174.25,-72.12 174.25,-38.62 298.25,-38.62 298.25,-72.12"/>
<text xml:space="preserve" text-anchor="start" x="182.25" y="-58.62" font-family="Helvetica,sans-Serif" font-size="10.00">kest_scope_add_entry</text>
<text xml:space="preserve" text-anchor="middle" x="236.25" y="-45.88" font-family="Helvetica,sans-Serif" font-size="10.00">_return_ptr</text>
</a>
</g>
</g>
<!-- Node1&#45;&gt;Node2 -->
<g id="edge1_Node000001_Node000002" class="edge">
<title>Node1&#45;&gt;Node2</title>
<g id="a_edge1_Node000001_Node000002"><a xlink:title=" ">
<path fill="none" stroke="#63b8ff" d="M124.21,-40.55C136.7,-42.22 149.96,-43.99 162.8,-45.7"/>
<polygon fill="#63b8ff" stroke="#63b8ff" points="162.07,-49.13 172.44,-46.99 162.99,-42.2 162.07,-49.13"/>
</a>
</g>
</g>
<!-- Node3 -->
<g id="Node000003" class="node">
<title>Node3</title>
<g id="a_Node000003"><a xlink:href="kest__expr__scope_8c.html#a3e2965d49b9f1cacc6bc4790987f19dd" target="_top" xlink:title=" ">
<polygon fill="white" stroke="#666666" points="312.5,-20.75 160,-20.75 160,0 312.5,0 312.5,-20.75"/>
<text xml:space="preserve" text-anchor="middle" x="236.25" y="-7.25" font-family="Helvetica,sans-Serif" font-size="10.00">kest_scope_entry_init_mem</text>
</a>
</g>
</g>
<!-- Node1&#45;&gt;Node3 -->
<g id="edge2_Node000001_Node000003" class="edge">
<title>Node1&#45;&gt;Node3</title>
<g id="a_edge2_Node000001_Node000003"><a xlink:title=" ">
<path fill="none" stroke="#63b8ff" d="M124.21,-24.56C132.13,-23.55 140.34,-22.5 148.57,-21.45"/>
<polygon fill="#63b8ff" stroke="#63b8ff" points="148.78,-24.95 158.26,-20.21 147.9,-18 148.78,-24.95"/>
</a>
</g>
</g>
<!-- Node4 -->
<g id="Node000004" class="node">
<title>Node4</title>
<g id="a_Node000004"><a xlink:href="kest__expr__scope_8c.html#af1ccd42dfd1a087c4b82e153bc29e043" target="_top" xlink:title=" ">
<polygon fill="white" stroke="#666666" points="470.25,-20.75 348.5,-20.75 348.5,0 470.25,0 470.25,-20.75"/>
<text xml:space="preserve" text-anchor="middle" x="409.38" y="-7.25" font-family="Helvetica,sans-Serif" font-size="10.00">kest_scope_entry_init</text>
</a>
</g>
</g>
<!-- Node3&#45;&gt;Node4 -->
<g id="edge3_Node000003_Node000004" class="edge">
<title>Node3&#45;&gt;Node4</title>
<g id="a_edge3_Node000003_Node000004"><a xlink:title=" ">
<path fill="none" stroke="#63b8ff" d="M312.81,-10.38C320.75,-10.38 328.8,-10.38 336.7,-10.38"/>
<polygon fill="#63b8ff" stroke="#63b8ff" points="336.6,-13.88 346.6,-10.38 336.6,-6.88 336.6,-13.88"/>
</a>
</g>
</g>
</g>
</svg>
