<?xml version="1.0" encoding="UTF-8" standalone="no"?>
<!DOCTYPE svg PUBLIC "-//W3C//DTD SVG 1.1//EN"
 "http://www.w3.org/Graphics/SVG/1.1/DTD/svg11.dtd">
<!-- Generated by graphviz version 13.1.2 (20250808.2320)
 -->
<!-- Title: kest_scope_entry_init_expr Pages: 1 -->
<svg width="967pt" height="99pt"
 viewBox="0.00 0.00 967.00 99.00" xmlns="http://www.w3.org/2000/svg" xmlns:xlink="http://www.w3.org/1999/xlink">
<g id="graph0" class="graph" transform="scale(1 1) rotate(0) translate(4 94.82)">
<title>kest_scope_entry_init_expr</title>
<!-- Node1 -->
<g id="Node000001" class="node">
<title>Node1</title>
<g id="a_Node000001"><a xlink:title=" ">
<polygon fill="#999999" stroke="#666666" points="959.25,-49.12 810.5,-49.12 810.5,-28.38 959.25,-28.38 959.25,-49.12"/>
<text xml:space="preserve" text-anchor="middle" x="884.88" y="-35.62" font-family="Helvetica,sans-Serif" font-size="10.00">kest_scope_entry_init_expr</text>
</a>
</g>
</g>
<!-- Node2 -->
<g id="Node000002" class="node">
<title>Node2</title>
<g id="a_Node000002"><a xlink:href="kest__expr__scope_8c.html#a0587a5203aa19a14ee56456e508f884c" target="_top" xlink:title=" ">
<polygon fill="white" stroke="#666666" points="774.5,-72.12 654.25,-72.12 654.25,-51.38 774.5,-51.38 774.5,-72.12"/>
<text xml:space="preserve" text-anchor="middle" x="714.38" y="-58.62" font-family="Helvetica,sans-Serif" font-size="10.00">kest_scope_add_expr</text>
</a>
</g>
</g>
<!-- Node1&#45;&gt;Node2 -->
<g id="edge1_Node000001_Node000002" class="edge">
<title>Node1&#45;&gt;Node2</title>
<g id="a_edge1_Node000001_Node000002"><a xlink:title=" ">
<path fill="none" stroke="#63b8ff" d="M799.26,-50.3C791.03,-51.42 782.8,-52.55 774.9,-53.63"/>
<polygon fill="#63b8ff" stroke="#63b8ff" points="799.52,-53.8 808.96,-48.98 798.58,-46.86 799.52,-53.8"/>
</a>
</g>
</g>
<!-- Node36 -->
<g id="Node000036" class="node">
<title>Node36</title>
<g id="a_Node000036"><a xlink:href="kest__expr__scope_8c.html#a90ffcb119d2b4719aa91059a7f270505" target="_top" xlink:title=" ">
<polygon fill="white" stroke="#666666" points="774.5,-33.5 654.25,-33.5 654.25,0 774.5,0 774.5,-33.5"/>
<text xml:space="preserve" text-anchor="start" x="662.25" y="-20" font-family="Helvetica,sans-Serif" font-size="10.00">kest_scope_add_expr</text>
<text xml:space="preserve" text-anchor="middle" x="714.38" y="-7.25" font-family="Helvetica,sans-Serif" font-size="10.00">_return_entry</text>
</a>
</g>
</g>
<!-- Node1&#45;&gt;Node36 -->
<g id="edge10_Node000001_Node000036" class="edge">
<title>Node1&#45;&gt;Node36</title>
<g id="a_edge10_Node000001_Node000036"><a xlink:title=" ">
<path fill="none" stroke="#63b8ff" d="M799.26,-27.7C791.03,-26.63 782.8,-25.55 774.9,-24.52"/>
<polygon fill="#63b8ff" stroke="#63b8ff" points="798.59,-31.14 808.96,-28.97 799.5,-24.2 798.59,-31.14"/>
</a>
</g>
</g>
<!-- Node3 -->
<g id="Node000003" class="node">
<title>Node3</title>
<g id="a_Node000003"><a xlink:href="kest__eff__section_8c.html#ac80cd23aae3ae32a7ea8002211c6c259" target="_top" xlink:title=" ">
<polygon fill="white" stroke="#666666" points="618.25,-72.12 475.5,-72.12 475.5,-51.38 618.25,-51.38 618.25,-72.12"/>
<text xml:space="preserve" text-anchor="middle" x="546.88" y="-58.62" font-family="Helvetica,sans-Serif" font-size="10.00">kest_defs_section_extract</text>
</a>
</g>
</g>
<!-- Node2&#45;&gt;Node3 -->
<g id="edge2_Node000002_Node000003" class="edge">
<title>Node2&#45;&gt;Node3</title>
<g id="a_edge2_Node000002_Node000003"><a xlink:title=" ">
<path fill="none" stroke="#63b8ff" d="M642.59,-61.75C634.65,-61.75 626.55,-61.75 618.61,-61.75"/>
<polygon fill="#63b8ff" stroke="#63b8ff" points="642.58,-65.25 652.58,-61.75 642.58,-58.25 642.58,-65.25"/>
</a>
</g>
</g>
<!-- Node23 -->
<g id="Node000023" class="node">
<title>Node23</title>
<g id="a_Node000023"><a xlink:href="kest__effect_8c.html#a487a10984ad42feea8c8e1e97f4cd3a3" target="_top" xlink:title=" ">
<polygon fill="white" stroke="#666666" points="297.5,-77.5 191.5,-77.5 191.5,-44 297.5,-44 297.5,-77.5"/>
<text xml:space="preserve" text-anchor="start" x="199.5" y="-64" font-family="Helvetica,sans-Serif" font-size="10.00">kest_effect_create</text>
<text xml:space="preserve" text-anchor="middle" x="244.5" y="-51.25" font-family="Helvetica,sans-Serif" font-size="10.00">_scope</text>
</a>
</g>
</g>
<!-- Node2&#45;&gt;Node23 -->
<g id="edge4_Node000002_Node000023" class="edge">
<title>Node2&#45;&gt;Node23</title>
<g id="a_edge4_Node000002_Node000023"><a xlink:title=" ">
<path fill="none" stroke="#63b8ff" d="M657.6,-74.8C644.75,-77.27 631.08,-79.48 618.25,-80.75 492.31,-93.2 459.27,-94.86 333.5,-80.75 321.82,-79.44 309.43,-77.18 297.75,-74.64"/>
<polygon fill="#63b8ff" stroke="#63b8ff" points="658.05,-78.28 667.16,-72.87 656.67,-71.42 658.05,-78.28"/>
</a>
</g>
</g>
<!-- Node33 -->
<g id="Node000033" class="node">
<title>Node33</title>
<g id="a_Node000033"><a xlink:href="kest__expr__scope_8c.html#a43b6bb1cf362758abfd82e8b4c305938" target="_top" xlink:title=" ">
<polygon fill="white" stroke="#666666" points="592.38,-33.12 501.38,-33.12 501.38,-12.38 592.38,-12.38 592.38,-33.12"/>
<text xml:space="preserve" text-anchor="middle" x="546.88" y="-19.62" font-family="Helvetica,sans-Serif" font-size="10.00">kest_scope_init</text>
</a>
</g>
</g>
<!-- Node2&#45;&gt;Node33 -->
<g id="edge6_Node000002_Node000033" class="edge">
<title>Node2&#45;&gt;Node33</title>
<g id="a_edge6_Node000002_Node000033"><a xlink:title=" ">
<path fill="none" stroke="#63b8ff" d="M656.35,-48.31C635.59,-43.42 612.44,-37.96 592.87,-33.35"/>
<polygon fill="#63b8ff" stroke="#63b8ff" points="655.26,-51.65 665.8,-50.54 656.87,-44.84 655.26,-51.65"/>
</a>
</g>
</g>
<!-- Node4 -->
<g id="Node000004" class="node">
<title>Node4</title>
<g id="a_Node000004"><a xlink:href="kest__eff__parser_8c.html#a73ef6962d1925857ec3e4b12d1aad834" target="_top" xlink:title=" ">
<polygon fill="#fff0f0" stroke="red" points="439.5,-72.12 333.5,-72.12 333.5,-51.38 439.5,-51.38 439.5,-72.12"/>
<text xml:space="preserve" text-anchor="middle" x="386.5" y="-58.62" font-family="Helvetica,sans-Serif" font-size="10.00">kest_parse_tokens</text>
</a>
</g>
</g>
<!-- Node3&#45;&gt;Node4 -->
<g id="edge3_Node000003_Node000004" class="edge">
<title>Node3&#45;&gt;Node4</title>
<g id="a_edge3_Node000003_Node000004"><a xlink:title=" ">
<path fill="none" stroke="#63b8ff" d="M463.59,-61.75C455.49,-61.75 447.44,-61.75 439.77,-61.75"/>
<polygon fill="#63b8ff" stroke="#63b8ff" points="463.51,-65.25 473.51,-61.75 463.51,-58.25 463.51,-65.25"/>
</a>
</g>
</g>
<!-- Node24 -->
<g id="Node000024" class="node">
<title>Node24</title>
<g id="a_Node000024"><a xlink:href="kest__effect_8c.html#a85b25e44e2629962673634f965ffe304" target="_top" xlink:title=" ">
<polygon fill="#fff0f0" stroke="red" points="155.5,-71.12 0,-71.12 0,-50.38 155.5,-50.38 155.5,-71.12"/>
<text xml:space="preserve" text-anchor="middle" x="77.75" y="-57.62" font-family="Helvetica,sans-Serif" font-size="10.00">init_effect_from_effect_desc</text>
</a>
</g>
</g>
<!-- Node23&#45;&gt;Node24 -->
<g id="edge5_Node000023_Node000024" class="edge">
<title>Node23&#45;&gt;Node24</title>
<g id="a_edge5_Node000023_Node000024"><a xlink:title=" ">
<path fill="none" stroke="#63b8ff" d="M179.99,-60.75C172.07,-60.75 163.91,-60.75 155.82,-60.75"/>
<polygon fill="#63b8ff" stroke="#63b8ff" points="179.86,-64.25 189.86,-60.75 179.86,-57.25 179.86,-64.25"/>
</a>
</g>
</g>
<!-- Node33&#45;&gt;Node4 -->
<g id="edge7_Node000033_Node000004" class="edge">
<title>Node33&#45;&gt;Node4</title>
<g id="a_edge7_Node000033_Node000004"><a xlink:title=" ">
<path fill="none" stroke="#63b8ff" d="M490.67,-36.34C471.36,-41.1 449.94,-46.37 431.65,-50.88"/>
<polygon fill="#63b8ff" stroke="#63b8ff" points="491.42,-39.77 500.29,-33.98 489.74,-32.97 491.42,-39.77"/>
</a>
</g>
</g>
<!-- Node34 -->
<g id="Node000034" class="node">
<title>Node34</title>
<g id="a_Node000034"><a xlink:href="kest__expr__scope_8c.html#ad5a50e098f07b8e6c9bfd941a9682f98" target="_top" xlink:title=" ">
<polygon fill="#fff0f0" stroke="red" points="434.25,-33.12 338.75,-33.12 338.75,-12.38 434.25,-12.38 434.25,-33.12"/>
<text xml:space="preserve" text-anchor="middle" x="386.5" y="-19.62" font-family="Helvetica,sans-Serif" font-size="10.00">kest_scope_new</text>
</a>
</g>
</g>
<!-- Node33&#45;&gt;Node34 -->
<g id="edge8_Node000033_Node000034" class="edge">
<title>Node33&#45;&gt;Node34</title>
<g id="a_edge8_Node000033_Node000034"><a xlink:title=" ">
<path fill="none" stroke="#63b8ff" d="M489.65,-22.75C471.6,-22.75 451.82,-22.75 434.51,-22.75"/>
<polygon fill="#63b8ff" stroke="#63b8ff" points="489.4,-26.25 499.4,-22.75 489.4,-19.25 489.4,-26.25"/>
</a>
</g>
</g>
<!-- Node34&#45;&gt;Node23 -->
<g id="edge9_Node000034_Node000023" class="edge">
<title>Node34&#45;&gt;Node23</title>
<g id="a_edge9_Node000034_Node000023"><a xlink:title=" ">
<path fill="none" stroke="#63b8ff" d="M334.97,-36.46C322.92,-39.74 310.04,-43.23 297.9,-46.53"/>
<polygon fill="#63b8ff" stroke="#63b8ff" points="335.56,-39.93 344.3,-33.93 333.73,-33.18 335.56,-39.93"/>
</a>
</g>
</g>
</g>
</svg>
