<?xml version="1.0" encoding="UTF-8" standalone="no"?>
<!DOCTYPE svg PUBLIC "-//W3C//DTD SVG 1.1//EN"
 "http://www.w3.org/Graphics/SVG/1.1/DTD/svg11.dtd">
<!-- Generated by graphviz version 13.1.2 (20250808.2320)
 -->
<!-- Title: kest_delay_create Pages: 1 -->
<svg width="635pt" height="96pt"
 viewBox="0.00 0.00 635.00 96.00" xmlns="http://www.w3.org/2000/svg" xmlns:xlink="http://www.w3.org/1999/xlink">
<g id="graph0" class="graph" transform="scale(1 1) rotate(0) translate(4 91.75)">
<title>kest_delay_create</title>
<!-- Node1 -->
<g id="Node000001" class="node">
<title>Node1</title>
<g id="a_Node000001"><a xlink:title=" ">
<polygon fill="#999999" stroke="#666666" points="626.5,-42.75 522,-42.75 522,-22 626.5,-22 626.5,-42.75"/>
<text xml:space="preserve" text-anchor="middle" x="574.25" y="-29.25" font-family="Helvetica,sans-Serif" font-size="10.00">kest_delay_create</text>
</a>
</g>
</g>
<!-- Node2 -->
<g id="Node000002" class="node">
<title>Node2</title>
<g id="a_Node000002"><a xlink:href="kest__resource_8c.html#a964d3c690e48fc3c388e56c36c37deca" target="_top" xlink:title=" ">
<polygon fill="white" stroke="#666666" points="486,-63.75 348.5,-63.75 348.5,-43 486,-43 486,-63.75"/>
<text xml:space="preserve" text-anchor="middle" x="417.25" y="-50.25" font-family="Helvetica,sans-Serif" font-size="10.00">kest_dsp_resource_clone</text>
</a>
</g>
</g>
<!-- Node1&#45;&gt;Node2 -->
<g id="edge1_Node000001_Node000002" class="edge">
<title>Node1&#45;&gt;Node2</title>
<g id="a_edge1_Node000001_Node000002"><a xlink:title=" ">
<path fill="none" stroke="#63b8ff" d="M510.31,-40.9C502.46,-41.97 494.39,-43.06 486.46,-44.13"/>
<polygon fill="#63b8ff" stroke="#63b8ff" points="510.7,-44.38 520.14,-39.57 509.76,-37.45 510.7,-44.38"/>
</a>
</g>
</g>
<!-- Node34 -->
<g id="Node000034" class="node">
<title>Node34</title>
<g id="a_Node000034"><a xlink:href="kest__dict__extract_8c.html#a2f5c7e8352941d6606205bfac2666a44" target="_top" xlink:title=" ">
<polygon fill="white" stroke="#666666" points="471.38,-23.75 363.12,-23.75 363.12,-3 471.38,-3 471.38,-23.75"/>
<text xml:space="preserve" text-anchor="middle" x="417.25" y="-10.25" font-family="Helvetica,sans-Serif" font-size="10.00">kest_extract_delay</text>
</a>
</g>
</g>
<!-- Node1&#45;&gt;Node34 -->
<g id="edge5_Node000001_Node000034" class="edge">
<title>Node1&#45;&gt;Node34</title>
<g id="a_edge5_Node000001_Node000034"><a xlink:title=" ">
<path fill="none" stroke="#63b8ff" d="M510.52,-24.69C497.67,-23.11 484.25,-21.47 471.76,-19.93"/>
<polygon fill="#63b8ff" stroke="#63b8ff" points="509.78,-28.12 520.13,-25.86 510.64,-21.17 509.78,-28.12"/>
</a>
</g>
</g>
<!-- Node3 -->
<g id="Node000003" class="node">
<title>Node3</title>
<g id="a_Node000003"><a xlink:href="kest__resource_8c.html#ac4e799ff7ba19e048f74acbf987eed07" target="_top" xlink:title=" ">
<polygon fill="white" stroke="#666666" points="312.5,-72.12 174.25,-72.12 174.25,-38.62 312.5,-38.62 312.5,-72.12"/>
<text xml:space="preserve" text-anchor="start" x="182.25" y="-58.62" font-family="Helvetica,sans-Serif" font-size="10.00">kest_dsp_resource_make</text>
<text xml:space="preserve" text-anchor="middle" x="243.38" y="-45.88" font-family="Helvetica,sans-Serif" font-size="10.00">_clone</text>
</a>
</g>
</g>
<!-- Node2&#45;&gt;Node3 -->
<g id="edge2_Node000002_Node000003" class="edge">
<title>Node2&#45;&gt;Node3</title>
<g id="a_edge2_Node000002_Node000003"><a xlink:title=" ">
<path fill="none" stroke="#63b8ff" d="M337.03,-54.3C328.98,-54.39 320.86,-54.49 312.94,-54.58"/>
<polygon fill="#63b8ff" stroke="#63b8ff" points="336.85,-57.8 346.81,-54.18 336.77,-50.8 336.85,-57.8"/>
</a>
</g>
</g>
<!-- Node4 -->
<g id="Node000004" class="node">
<title>Node4</title>
<g id="a_Node000004"><a xlink:href="kest__block_8c.html#a4c8583c46d84f07df6eb2c886dbfdb1b" target="_top" xlink:title=" ">
<polygon fill="white" stroke="#666666" points="118.75,-87.75 19.5,-87.75 19.5,-67 118.75,-67 118.75,-87.75"/>
<text xml:space="preserve" text-anchor="middle" x="69.12" y="-74.25" font-family="Helvetica,sans-Serif" font-size="10.00">kest_block_clone</text>
</a>
</g>
</g>
<!-- Node3&#45;&gt;Node4 -->
<g id="edge3_Node000003_Node000004" class="edge">
<title>Node3&#45;&gt;Node4</title>
<g id="a_edge3_Node000003_Node000004"><a xlink:title=" ">
<path fill="none" stroke="#63b8ff" d="M162.55,-65.57C147.73,-67.46 132.66,-69.39 119.1,-71.12"/>
<polygon fill="#63b8ff" stroke="#63b8ff" points="162.82,-69.06 172.3,-64.32 161.94,-62.12 162.82,-69.06"/>
</a>
</g>
</g>
<!-- Node5 -->
<g id="Node000005" class="node">
<title>Node5</title>
<g id="a_Node000005"><a xlink:href="kest__resource_8c.html#aae0c2105bbc588fd039daebe272cd5eb" target="_top" xlink:title=" ">
<polygon fill="#fff0f0" stroke="red" points="138.25,-49.12 0,-49.12 0,-15.62 138.25,-15.62 138.25,-49.12"/>
<text xml:space="preserve" text-anchor="start" x="8" y="-35.62" font-family="Helvetica,sans-Serif" font-size="10.00">kest_dsp_resource_make</text>
<text xml:space="preserve" text-anchor="middle" x="69.12" y="-22.88" font-family="Helvetica,sans-Serif" font-size="10.00">_clone_for_effect</text>
</a>
</g>
</g>
<!-- Node3&#45;&gt;Node5 -->
<g id="edge4_Node000003_Node000005" class="edge">
<title>Node3&#45;&gt;Node5</title>
<g id="a_edge4_Node000003_Node000005"><a xlink:title=" ">
<path fill="none" stroke="#63b8ff" d="M162.61,-44.72C154.63,-43.66 146.59,-42.58 138.74,-41.54"/>
<polygon fill="#63b8ff" stroke="#63b8ff" points="161.93,-48.16 172.3,-46.02 162.85,-41.23 161.93,-48.16"/>
</a>
</g>
</g>
<!-- Node22 -->
<g id="Node000022" class="node">
<title>Node22</title>
<g id="a_Node000022"><a xlink:href="kest__dict__extract_8c.html#a380375dec37f2a914cd428342a6cbfe3" target="_top" xlink:title=" ">
<polygon fill="#fff0f0" stroke="red" points="305,-20.75 181.75,-20.75 181.75,0 305,0 305,-20.75"/>
<text xml:space="preserve" text-anchor="middle" x="243.38" y="-7.25" font-family="Helvetica,sans-Serif" font-size="10.00">kest_extract_resource</text>
</a>
</g>
</g>
<!-- Node34&#45;&gt;Node22 -->
<g id="edge6_Node000034_Node000022" class="edge">
<title>Node34&#45;&gt;Node22</title>
<g id="a_edge6_Node000034_Node000022"><a xlink:title=" ">
<path fill="none" stroke="#63b8ff" d="M351.45,-12.24C336.32,-11.98 320.25,-11.7 305.29,-11.44"/>
<polygon fill="#63b8ff" stroke="#63b8ff" points="351.24,-15.74 361.3,-12.42 351.36,-8.74 351.24,-15.74"/>
</a>
</g>
</g>
</g>
</svg>
