<?xml version="1.0" encoding="UTF-8" standalone="no"?>
<!DOCTYPE svg PUBLIC "-//W3C//DTD SVG 1.1//EN"
 "http://www.w3.org/Graphics/SVG/1.1/DTD/svg11.dtd">
<!-- Generated by graphviz version 13.1.2 (20250808.2320)
 -->
<!-- Title: kest_parameter_get_range_rec Pages: 1 -->
<svg width="651pt" height="300pt"
 viewBox="0.00 0.00 651.00 300.00" xmlns="http://www.w3.org/2000/svg" xmlns:xlink="http://www.w3.org/1999/xlink">
<g id="graph0" class="graph" transform="scale(1 1) rotate(0) translate(4 295.75)">
<title>kest_parameter_get_range_rec</title>
<!-- Node1 -->
<g id="Node000001" class="node">
<title>Node1</title>
<g id="a_Node000001"><a xlink:title=" ">
<polygon fill="#999999" stroke="#666666" points="643,-182.12 529.5,-182.12 529.5,-148.62 643,-148.62 643,-182.12"/>
<text xml:space="preserve" text-anchor="start" x="537.5" y="-168.62" font-family="Helvetica,sans-Serif" font-size="10.00">kest_parameter_get</text>
<text xml:space="preserve" text-anchor="middle" x="586.25" y="-155.88" font-family="Helvetica,sans-Serif" font-size="10.00">_range_rec</text>
</a>
</g>
</g>
<!-- Node2 -->
<g id="Node000002" class="node">
<title>Node2</title>
<g id="a_Node000002"><a xlink:href="kest__parameter_8c.html#aed9bf2d04b704f1d4119124999a692e0" target="_top" xlink:title=" ">
<polygon fill="white" stroke="#666666" points="493.5,-182.12 380,-182.12 380,-148.62 493.5,-148.62 493.5,-182.12"/>
<text xml:space="preserve" text-anchor="start" x="388" y="-168.62" font-family="Helvetica,sans-Serif" font-size="10.00">kest_parameter_get</text>
<text xml:space="preserve" text-anchor="middle" x="436.75" y="-155.88" font-family="Helvetica,sans-Serif" font-size="10.00">_range</text>
</a>
</g>
</g>
<!-- Node1&#45;&gt;Node2 -->
<g id="edge1_Node000001_Node000002" class="edge">
<title>Node1&#45;&gt;Node2</title>
<g id="a_edge1_Node000001_Node000002"><a xlink:title=" ">
<path fill="none" stroke="#63b8ff" d="M517.81,-165.38C509.77,-165.38 501.63,-165.38 493.78,-165.38"/>
<polygon fill="#63b8ff" stroke="#63b8ff" points="517.55,-168.88 527.55,-165.38 517.55,-161.88 517.55,-168.88"/>
</a>
</g>
</g>
<!-- Node3 -->
<g id="Node000003" class="node">
<title>Node3</title>
<g id="a_Node000003"><a xlink:href="kest__parameter__widget_8c.html#af94dfc8bbb394e3264533d794d147e95" target="_top" xlink:title=" ">
<polygon fill="white" stroke="#666666" points="344,-253.12 198.25,-253.12 198.25,-219.62 344,-219.62 344,-253.12"/>
<text xml:space="preserve" text-anchor="start" x="206.25" y="-239.62" font-family="Helvetica,sans-Serif" font-size="10.00">parameter_widget_change</text>
<text xml:space="preserve" text-anchor="middle" x="271.12" y="-226.88" font-family="Helvetica,sans-Serif" font-size="10.00">_cb_inner</text>
</a>
</g>
</g>
<!-- Node2&#45;&gt;Node3 -->
<g id="edge2_Node000002_Node000003" class="edge">
<title>Node2&#45;&gt;Node3</title>
<g id="a_edge2_Node000002_Node000003"><a xlink:title=" ">
<path fill="none" stroke="#63b8ff" d="M385.88,-187.01C362.07,-197.35 333.97,-209.54 311.65,-219.22"/>
<polygon fill="#63b8ff" stroke="#63b8ff" points="386.97,-190.36 394.75,-183.16 384.19,-183.93 386.97,-190.36"/>
</a>
</g>
</g>
<!-- Node58 -->
<g id="Node000058" class="node">
<title>Node58</title>
<g id="a_Node000058"><a xlink:href="kest__parameter__widget_8c.html#abad910124e9bf706a008ab86f8bf70e6" target="_top" xlink:title=" ">
<polygon fill="white" stroke="#666666" points="343.25,-134.12 199,-134.12 199,-100.62 343.25,-100.62 343.25,-134.12"/>
<text xml:space="preserve" text-anchor="start" x="207" y="-120.62" font-family="Helvetica,sans-Serif" font-size="10.00">parameter_widget_update</text>
<text xml:space="preserve" text-anchor="middle" x="271.12" y="-107.88" font-family="Helvetica,sans-Serif" font-size="10.00">_value</text>
</a>
</g>
</g>
<!-- Node2&#45;&gt;Node58 -->
<g id="edge5_Node000002_Node000058" class="edge">
<title>Node2&#45;&gt;Node58</title>
<g id="a_edge5_Node000002_Node000058"><a xlink:title=" ">
<path fill="none" stroke="#63b8ff" d="M368.95,-145.78C356.3,-142.07 343.16,-138.21 330.8,-134.59"/>
<polygon fill="#63b8ff" stroke="#63b8ff" points="367.86,-149.11 378.44,-148.56 369.83,-142.39 367.86,-149.11"/>
</a>
</g>
</g>
<!-- Node4 -->
<g id="Node000004" class="node">
<title>Node4</title>
<g id="a_Node000004"><a xlink:href="kest__parameter__widget_8c.html#aacedf3a01b62f8fba28c7521a2b64735" target="_top" xlink:title=" ">
<polygon fill="#fff0f0" stroke="red" points="162.25,-291.75 0,-291.75 0,-271 162.25,-271 162.25,-291.75"/>
<text xml:space="preserve" text-anchor="middle" x="81.12" y="-278.25" font-family="Helvetica,sans-Serif" font-size="10.00">parameter_widget_change_cb</text>
</a>
</g>
</g>
<!-- Node3&#45;&gt;Node4 -->
<g id="edge3_Node000003_Node000004" class="edge">
<title>Node3&#45;&gt;Node4</title>
<g id="a_edge3_Node000003_Node000004"><a xlink:title=" ">
<path fill="none" stroke="#63b8ff" d="M187.85,-256.24C179.21,-258.31 170.55,-260.39 162.25,-262.38 151.13,-265.03 139.13,-267.89 127.89,-270.55"/>
<polygon fill="#63b8ff" stroke="#63b8ff" points="188.39,-259.71 197.29,-253.97 186.75,-252.9 188.39,-259.71"/>
</a>
</g>
</g>
<!-- Node57 -->
<g id="Node000057" class="node">
<title>Node57</title>
<g id="a_Node000057"><a xlink:href="kest__menu_8c.html#a8edfbaa412cfceaa47690ee035de622c" target="_top" xlink:title=" ">
<polygon fill="#fff0f0" stroke="red" points="154,-253.12 8.25,-253.12 8.25,-219.62 154,-219.62 154,-253.12"/>
<text xml:space="preserve" text-anchor="start" x="16.25" y="-239.62" font-family="Helvetica,sans-Serif" font-size="10.00">parameter_widget_change</text>
<text xml:space="preserve" text-anchor="middle" x="81.12" y="-226.88" font-family="Helvetica,sans-Serif" font-size="10.00">_cb_settings_wrapper</text>
</a>
</g>
</g>
<!-- Node3&#45;&gt;Node57 -->
<g id="edge4_Node000003_Node000057" class="edge">
<title>Node3&#45;&gt;Node57</title>
<g id="a_edge4_Node000003_Node000057"><a xlink:title=" ">
<path fill="none" stroke="#63b8ff" d="M186.47,-236.38C175.77,-236.38 164.89,-236.38 154.39,-236.38"/>
<polygon fill="#63b8ff" stroke="#63b8ff" points="186.46,-239.88 196.46,-236.38 186.46,-232.88 186.46,-239.88"/>
</a>
</g>
</g>
<!-- Node59 -->
<g id="Node000059" class="node">
<title>Node59</title>
<g id="a_Node000059"><a xlink:href="kest__parameter__widget_8c.html#a627573f8fb113b0b0beb013cb04ed61c" target="_top" xlink:title=" ">
<polygon fill="#fff0f0" stroke="red" points="146.5,-201.12 15.75,-201.12 15.75,-167.62 146.5,-167.62 146.5,-201.12"/>
<text xml:space="preserve" text-anchor="start" x="23.75" y="-187.62" font-family="Helvetica,sans-Serif" font-size="10.00">kest_parameter_widget</text>
<text xml:space="preserve" text-anchor="middle" x="81.12" y="-174.88" font-family="Helvetica,sans-Serif" font-size="10.00">_refresh</text>
</a>
</g>
</g>
<!-- Node58&#45;&gt;Node59 -->
<g id="edge6_Node000058_Node000059" class="edge">
<title>Node58&#45;&gt;Node59</title>
<g id="a_edge6_Node000058_Node000059"><a xlink:title=" ">
<path fill="none" stroke="#63b8ff" d="M216.08,-138.51C198.94,-145.06 179.86,-152.18 162.25,-158.38 153.84,-161.34 144.88,-164.36 136.12,-167.26"/>
<polygon fill="#63b8ff" stroke="#63b8ff" points="216.98,-141.92 225.07,-135.07 214.48,-135.38 216.98,-141.92"/>
</a>
</g>
</g>
<!-- Node70 -->
<g id="Node000070" class="node">
<title>Node70</title>
<g id="a_Node000070"><a xlink:href="kest__parameter__widget_8c.html#a1590cd4e080ed869e0372fef1a233085" target="_top" xlink:title=" ">
<polygon fill="#fff0f0" stroke="red" points="154,-149.75 8.25,-149.75 8.25,-129 154,-129 154,-149.75"/>
<text xml:space="preserve" text-anchor="middle" x="81.12" y="-136.25" font-family="Helvetica,sans-Serif" font-size="10.00">param_widget_rep_update</text>
</a>
</g>
</g>
<!-- Node58&#45;&gt;Node70 -->
<g id="edge7_Node000058_Node000070" class="edge">
<title>Node58&#45;&gt;Node70</title>
<g id="a_edge7_Node000058_Node000070"><a xlink:title=" ">
<path fill="none" stroke="#63b8ff" d="M187.23,-127.07C176.32,-128.35 165.19,-129.65 154.47,-130.91"/>
<polygon fill="#63b8ff" stroke="#63b8ff" points="187.49,-130.57 197.01,-125.93 186.67,-123.62 187.49,-130.57"/>
</a>
</g>
</g>
<!-- Node75 -->
<g id="Node000075" class="node">
<title>Node75</title>
<g id="a_Node000075"><a xlink:href="kest__parameter__widget_8c.html#a275a44ab81e73412a3c3da5597906fcc" target="_top" xlink:title=" ">
<polygon fill="#fff0f0" stroke="red" points="151.75,-111.12 10.5,-111.12 10.5,-77.62 151.75,-77.62 151.75,-111.12"/>
<text xml:space="preserve" text-anchor="start" x="18.5" y="-97.62" font-family="Helvetica,sans-Serif" font-size="10.00">parameter_widget_create</text>
<text xml:space="preserve" text-anchor="middle" x="81.12" y="-84.88" font-family="Helvetica,sans-Serif" font-size="10.00">_ui_no_callback</text>
</a>
</g>
</g>
<!-- Node58&#45;&gt;Node75 -->
<g id="edge8_Node000058_Node000075" class="edge">
<title>Node58&#45;&gt;Node75</title>
<g id="a_edge8_Node000058_Node000075"><a xlink:title=" ">
<path fill="none" stroke="#63b8ff" d="M187.31,-107.24C175.52,-105.8 163.49,-104.33 151.98,-102.92"/>
<polygon fill="#63b8ff" stroke="#63b8ff" points="186.66,-110.69 197.01,-108.43 187.51,-103.74 186.66,-110.69"/>
</a>
</g>
</g>
<!-- Node76 -->
<g id="Node000076" class="node">
<title>Node76</title>
<g id="a_Node000076"><a xlink:href="kest__parameter__widget_8c.html#a58d879b4e143133b22d67e3b1306a951" target="_top" xlink:title=" ">
<polygon fill="#fff0f0" stroke="red" points="153.62,-59.75 8.62,-59.75 8.62,-39 153.62,-39 153.62,-59.75"/>
<text xml:space="preserve" text-anchor="middle" x="81.12" y="-46.25" font-family="Helvetica,sans-Serif" font-size="10.00">parameter_widget_refresh</text>
</a>
</g>
</g>
<!-- Node58&#45;&gt;Node76 -->
<g id="edge9_Node000058_Node000076" class="edge">
<title>Node58&#45;&gt;Node76</title>
<g id="a_edge9_Node000058_Node000076"><a xlink:title=" ">
<path fill="none" stroke="#63b8ff" d="M226.49,-95.23C207.16,-86.03 183.93,-75.79 162.25,-68.38 153.32,-65.32 143.67,-62.58 134.27,-60.19"/>
<polygon fill="#63b8ff" stroke="#63b8ff" points="224.91,-98.35 235.43,-99.55 227.95,-92.05 224.91,-98.35"/>
</a>
</g>
</g>
<!-- Node93 -->
<g id="Node000093" class="node">
<title>Node93</title>
<g id="a_Node000093"><a xlink:href="kest__parameter__widget_8c.html#ac55937f74509696b892e16cd9148a0c4" target="_top" xlink:title=" ">
<polygon fill="white" stroke="#666666" points="161.88,-20.75 0.38,-20.75 0.38,0 161.88,0 161.88,-20.75"/>
<text xml:space="preserve" text-anchor="middle" x="81.12" y="-7.25" font-family="Helvetica,sans-Serif" font-size="10.00">parameter_widget_refresh_cb</text>
</a>
</g>
</g>
<!-- Node58&#45;&gt;Node93 -->
<g id="edge10_Node000058_Node000093" class="edge">
<title>Node58&#45;&gt;Node93</title>
<g id="a_edge10_Node000058_Node000093"><a xlink:title=" ">
<path fill="none" stroke="#63b8ff" d="M245.7,-92.41C225.15,-72.79 194.1,-46.22 162.25,-30.38 154.93,-26.73 146.9,-23.72 138.84,-21.24"/>
<polygon fill="#63b8ff" stroke="#63b8ff" points="243.14,-94.8 252.75,-99.28 248.03,-89.79 243.14,-94.8"/>
</a>
</g>
</g>
</g>
</svg>
