<?xml version="1.0" encoding="UTF-8" standalone="no"?>
<!DOCTYPE svg PUBLIC "-//W3C//DTD SVG 1.1//EN"
 "http://www.w3.org/Graphics/SVG/1.1/DTD/svg11.dtd">
<!-- Generated by graphviz version 13.1.2 (20250808.2320)
 -->
<!-- Title: kest_expression_references_param Pages: 1 -->
<svg width="809pt" height="97pt"
 viewBox="0.00 0.00 809.00 97.00" xmlns="http://www.w3.org/2000/svg" xmlns:xlink="http://www.w3.org/1999/xlink">
<g id="graph0" class="graph" transform="scale(1 1) rotate(0) translate(4 93.48)">
<title>kest_expression_references_param</title>
<!-- Node1 -->
<g id="Node000001" class="node">
<title>Node1</title>
<g id="a_Node000001"><a xlink:title=" ">
<polygon fill="#999999" stroke="#666666" points="151.75,-50.86 0,-50.86 0,-17.36 151.75,-17.36 151.75,-50.86"/>
<text xml:space="preserve" text-anchor="start" x="8" y="-37.36" font-family="Helvetica,sans-Serif" font-size="10.00">kest_expression_references</text>
<text xml:space="preserve" text-anchor="middle" x="75.88" y="-24.61" font-family="Helvetica,sans-Serif" font-size="10.00">_param</text>
</a>
</g>
</g>
<!-- Node2 -->
<g id="Node000002" class="node">
<title>Node2</title>
<g id="a_Node000002"><a xlink:href="kest__expression_8c.html#a9f5cf2a19a6f42c62e3b6e0bde414314" target="_top" xlink:title=" ">
<polygon fill="white" stroke="#666666" points="339.5,-50.86 187.75,-50.86 187.75,-17.36 339.5,-17.36 339.5,-50.86"/>
<text xml:space="preserve" text-anchor="start" x="195.75" y="-37.36" font-family="Helvetica,sans-Serif" font-size="10.00">kest_expression_references</text>
<text xml:space="preserve" text-anchor="middle" x="263.62" y="-24.61" font-family="Helvetica,sans-Serif" font-size="10.00">_param_rec</text>
</a>
</g>
</g>
<!-- Node1&#45;&gt;Node2 -->
<g id="edge1_Node000001_Node000002" class="edge">
<title>Node1&#45;&gt;Node2</title>
<g id="a_edge1_Node000001_Node000002"><a xlink:title=" ">
<path fill="none" stroke="#63b8ff" d="M152.16,-34.11C160.09,-34.11 168.19,-34.11 176.24,-34.11"/>
<polygon fill="#63b8ff" stroke="#63b8ff" points="176.02,-37.61 186.02,-34.11 176.02,-30.61 176.02,-37.61"/>
</a>
</g>
</g>
<!-- Node2&#45;&gt;Node2 -->
<g id="edge3_Node000002_Node000002" class="edge">
<title>Node2&#45;&gt;Node2</title>
<g id="a_edge3_Node000002_Node000002"><a xlink:title=" ">
<path fill="none" stroke="#63b8ff" d="M232.5,-51.27C227.21,-60.47 237.59,-68.86 263.62,-68.86 278.27,-68.86 287.96,-66.2 292.69,-62.24"/>
<polygon fill="#63b8ff" stroke="#63b8ff" points="296.07,-63.23 294.47,-52.76 289.19,-61.94 296.07,-63.23"/>
</a>
</g>
</g>
<!-- Node3 -->
<g id="Node000003" class="node">
<title>Node3</title>
<g id="a_Node000003"><a xlink:href="kest__expression_8c.html#a835e180e79c6b6d2e4377a528949d7a0" target="_top" xlink:title=" ">
<polygon fill="white" stroke="#666666" points="498,-89.48 375.5,-89.48 375.5,-68.73 498,-68.73 498,-89.48"/>
<text xml:space="preserve" text-anchor="middle" x="436.75" y="-75.98" font-family="Helvetica,sans-Serif" font-size="10.00">kest_expression_arity</text>
</a>
</g>
</g>
<!-- Node2&#45;&gt;Node3 -->
<g id="edge2_Node000002_Node000003" class="edge">
<title>Node2&#45;&gt;Node3</title>
<g id="a_edge2_Node000002_Node000003"><a xlink:title=" ">
<path fill="none" stroke="#63b8ff" d="M329.81,-51.25C347.63,-55.93 366.7,-60.95 383.68,-65.41"/>
<polygon fill="#63b8ff" stroke="#63b8ff" points="382.48,-68.72 393.04,-67.88 384.26,-61.95 382.48,-68.72"/>
</a>
</g>
</g>
<!-- Node4 -->
<g id="Node000004" class="node">
<title>Node4</title>
<g id="a_Node000004"><a xlink:href="kest__expression_8c.html#aadf2a6a074cb1ad7b45893704cbd71c3" target="_top" xlink:title=" ">
<polygon fill="white" stroke="#666666" points="491.62,-50.86 381.88,-50.86 381.88,-17.36 491.62,-17.36 491.62,-50.86"/>
<text xml:space="preserve" text-anchor="start" x="389.88" y="-37.36" font-family="Helvetica,sans-Serif" font-size="10.00">kest_expression_to</text>
<text xml:space="preserve" text-anchor="middle" x="436.75" y="-24.61" font-family="Helvetica,sans-Serif" font-size="10.00">_string</text>
</a>
</g>
</g>
<!-- Node2&#45;&gt;Node4 -->
<g id="edge4_Node000002_Node000004" class="edge">
<title>Node2&#45;&gt;Node4</title>
<g id="a_edge4_Node000002_Node000004"><a xlink:title=" ">
<path fill="none" stroke="#63b8ff" d="M339.68,-34.11C349.82,-34.11 360.15,-34.11 370.1,-34.11"/>
<polygon fill="#63b8ff" stroke="#63b8ff" points="370.06,-37.61 380.06,-34.11 370.06,-30.61 370.06,-37.61"/>
</a>
</g>
</g>
<!-- Node9 -->
<g id="Node000009" class="node">
<title>Node9</title>
<g id="a_Node000009"><a xlink:href="kest__expression_8c.html#a05276e5a18cc3b52dfc8a17bb101c832" target="_top" xlink:title=" ">
<polygon fill="white" stroke="#666666" points="800.75,-21.48 712.75,-21.48 712.75,-0.73 800.75,-0.73 800.75,-21.48"/>
<text xml:space="preserve" text-anchor="middle" x="756.75" y="-7.98" font-family="Helvetica,sans-Serif" font-size="10.00">max_depth_bp</text>
</a>
</g>
</g>
<!-- Node2&#45;&gt;Node9 -->
<g id="edge9_Node000002_Node000009" class="edge">
<title>Node2&#45;&gt;Node9</title>
<g id="a_edge9_Node000002_Node000009"><a xlink:title=" ">
<path fill="none" stroke="#63b8ff" d="M326.63,-16.91C342.44,-13.27 359.49,-9.96 375.5,-8.11 490.82,5.23 627.12,-1.17 701.17,-6.48"/>
<polygon fill="#63b8ff" stroke="#63b8ff" points="700.77,-9.96 711,-7.21 701.29,-2.98 700.77,-9.96"/>
</a>
</g>
</g>
<!-- Node5 -->
<g id="Node000005" class="node">
<title>Node5</title>
<g id="a_Node000005"><a xlink:href="kest__expression_8c.html#a767b50b7ddfa94dc61810dfdcc8feaf0" target="_top" xlink:title=" ">
<polygon fill="#fff0f0" stroke="red" points="676.75,-44.48 534,-44.48 534,-23.73 676.75,-23.73 676.75,-44.48"/>
<text xml:space="preserve" text-anchor="middle" x="605.38" y="-30.98" font-family="Helvetica,sans-Serif" font-size="10.00">kest_expression_print_rec</text>
</a>
</g>
</g>
<!-- Node4&#45;&gt;Node5 -->
<g id="edge5_Node000004_Node000005" class="edge">
<title>Node4&#45;&gt;Node5</title>
<g id="a_edge5_Node000004_Node000005"><a xlink:title=" ">
<path fill="none" stroke="#63b8ff" d="M491.85,-27.74C501.62,-27.47 512,-27.35 522.36,-27.36"/>
<polygon fill="#63b8ff" stroke="#63b8ff" points="522.02,-30.85 532.04,-27.41 522.06,-23.85 522.02,-30.85"/>
</a>
</g>
</g>
<!-- Node5&#45;&gt;Node4 -->
<g id="edge7_Node000005_Node000004" class="edge">
<title>Node5&#45;&gt;Node4</title>
<g id="a_edge7_Node000005_Node000004"><a xlink:title=" ">
<path fill="none" stroke="#63b8ff" d="M533.56,-40.79C523.52,-40.9 513.24,-40.87 503.31,-40.72"/>
<polygon fill="#63b8ff" stroke="#63b8ff" points="503.43,-37.22 493.36,-40.51 503.28,-44.22 503.43,-37.22"/>
</a>
</g>
</g>
<!-- Node5&#45;&gt;Node5 -->
<g id="edge6_Node000005_Node000005" class="edge">
<title>Node5&#45;&gt;Node5</title>
<g id="a_edge6_Node000005_Node000005"><a xlink:title=" ">
<path fill="none" stroke="#63b8ff" d="M580.98,-44.88C571.23,-53.54 579.36,-62.48 605.38,-62.48 619.6,-62.48 628.48,-59.81 632.01,-55.97"/>
<polygon fill="#63b8ff" stroke="#63b8ff" points="635.48,-55.47 630.07,-46.36 628.62,-56.86 635.48,-55.47"/>
</a>
</g>
</g>
<!-- Node5&#45;&gt;Node9 -->
<g id="edge8_Node000005_Node000009" class="edge">
<title>Node5&#45;&gt;Node9</title>
<g id="a_edge8_Node000005_Node000009"><a xlink:title=" ">
<path fill="none" stroke="#63b8ff" d="M676.69,-23.28C685.02,-22 693.43,-20.7 701.49,-19.46"/>
<polygon fill="#63b8ff" stroke="#63b8ff" points="701.76,-22.96 711.11,-17.98 700.7,-16.04 701.76,-22.96"/>
</a>
</g>
</g>
</g>
</svg>
