<?xml version="1.0" encoding="UTF-8" standalone="no"?>
<!DOCTYPE svg PUBLIC "-//W3C//DTD SVG 1.1//EN"
 "http://www.w3.org/Graphics/SVG/1.1/DTD/svg11.dtd">
<!-- Generated by graphviz version 13.1.2 (20250808.2320)
 -->
<!-- Title: kest_create_ui_async Pages: 1 -->
<svg width="577pt" height="113pt"
 viewBox="0.00 0.00 577.00 113.00" xmlns="http://www.w3.org/2000/svg" xmlns:xlink="http://www.w3.org/1999/xlink">
<g id="graph0" class="graph" transform="scale(1 1) rotate(0) translate(4 108.75)">
<title>kest_create_ui_async</title>
<!-- Node1 -->
<g id="Node000001" class="node">
<title>Node1</title>
<g id="a_Node000001"><a xlink:title=" ">
<polygon fill="#999999" stroke="#666666" points="120.25,-42.75 0,-42.75 0,-22 120.25,-22 120.25,-42.75"/>
<text xml:space="preserve" text-anchor="middle" x="60.12" y="-29.25" font-family="Helvetica,sans-Serif" font-size="10.00">kest_create_ui_async</text>
</a>
</g>
</g>
<!-- Node2 -->
<g id="Node000002" class="node">
<title>Node2</title>
<g id="a_Node000002"><a xlink:href="kest__ui_8c.html#a09df56def87ef95102e4d8633df68a55" target="_top" xlink:title=" ">
<polygon fill="white" stroke="#666666" points="276.5,-72.12 156.25,-72.12 156.25,-38.62 276.5,-38.62 276.5,-72.12"/>
<text xml:space="preserve" text-anchor="start" x="164.25" y="-58.62" font-family="Helvetica,sans-Serif" font-size="10.00">kest_create_ui_async</text>
<text xml:space="preserve" text-anchor="middle" x="216.38" y="-45.88" font-family="Helvetica,sans-Serif" font-size="10.00">_wrapper</text>
</a>
</g>
</g>
<!-- Node1&#45;&gt;Node2 -->
<g id="edge1_Node000001_Node000002" class="edge">
<title>Node1&#45;&gt;Node2</title>
<g id="a_edge1_Node000001_Node000002"><a xlink:title=" ">
<path fill="none" stroke="#63b8ff" d="M120.32,-41.2C128.23,-42.38 136.41,-43.6 144.5,-44.81"/>
<polygon fill="#63b8ff" stroke="#63b8ff" points="143.92,-48.26 154.33,-46.27 144.96,-41.34 143.92,-48.26"/>
</a>
</g>
</g>
<!-- Node103 -->
<g id="Node000103" class="node">
<title>Node103</title>
<g id="a_Node000103"><a xlink:href="kest__ui_8c.html#abb436cbf4403efe8fe122cdfbcaa3a76" target="_top" xlink:title=" ">
<polygon fill="#fff0f0" stroke="red" points="269.75,-20.75 163,-20.75 163,0 269.75,0 269.75,-20.75"/>
<text xml:space="preserve" text-anchor="middle" x="216.38" y="-7.25" font-family="Helvetica,sans-Serif" font-size="10.00">kest_ui_async_call</text>
</a>
</g>
</g>
<!-- Node1&#45;&gt;Node103 -->
<g id="edge6_Node000001_Node000103" class="edge">
<title>Node1&#45;&gt;Node103</title>
<g id="a_edge6_Node000001_Node000103"><a xlink:title=" ">
<path fill="none" stroke="#63b8ff" d="M120.32,-23.93C130.44,-22.49 141,-20.98 151.25,-19.52"/>
<polygon fill="#63b8ff" stroke="#63b8ff" points="151.74,-22.99 161.14,-18.11 150.75,-16.06 151.74,-22.99"/>
</a>
</g>
</g>
<!-- Node3 -->
<g id="Node000003" class="node">
<title>Node3</title>
<g id="a_Node000003"><a xlink:href="kest__ui_8c.html#ac4b49754b0a8d3df4343e742d6899872" target="_top" xlink:title=" ">
<polygon fill="white" stroke="#666666" points="399,-65.75 312.5,-65.75 312.5,-45 399,-45 399,-65.75"/>
<text xml:space="preserve" text-anchor="middle" x="355.75" y="-52.25" font-family="Helvetica,sans-Serif" font-size="10.00">kest_create_ui</text>
</a>
</g>
</g>
<!-- Node2&#45;&gt;Node3 -->
<g id="edge2_Node000002_Node000003" class="edge">
<title>Node2&#45;&gt;Node3</title>
<g id="a_edge2_Node000002_Node000003"><a xlink:title=" ">
<path fill="none" stroke="#63b8ff" d="M276.83,-55.38C284.82,-55.38 292.98,-55.38 300.87,-55.38"/>
<polygon fill="#63b8ff" stroke="#63b8ff" points="300.66,-58.88 310.66,-55.38 300.66,-51.88 300.66,-58.88"/>
</a>
</g>
</g>
<!-- Node4 -->
<g id="Node000004" class="node">
<title>Node4</title>
<g id="a_Node000004"><a xlink:href="kest__sequence__list_8c.html#ae60870bb862edfc5b0a45344c20b152f" target="_top" xlink:title=" ">
<polygon fill="#fff0f0" stroke="red" points="568.75,-104.75 435,-104.75 435,-84 568.75,-84 568.75,-104.75"/>
<text xml:space="preserve" text-anchor="middle" x="501.88" y="-91.25" font-family="Helvetica,sans-Serif" font-size="10.00">configure_sequence_list</text>
</a>
</g>
</g>
<!-- Node3&#45;&gt;Node4 -->
<g id="edge3_Node000003_Node000004" class="edge">
<title>Node3&#45;&gt;Node4</title>
<g id="a_edge3_Node000003_Node000004"><a xlink:title=" ">
<path fill="none" stroke="#63b8ff" d="M396.9,-66.24C413.23,-70.66 432.3,-75.82 449.61,-80.5"/>
<polygon fill="#63b8ff" stroke="#63b8ff" points="448.67,-83.87 459.23,-83.11 450.49,-77.12 448.67,-83.87"/>
</a>
</g>
</g>
<!-- Node317 -->
<g id="Node000317" class="node">
<title>Node317</title>
<g id="a_Node000317"><a xlink:href="kest__ui_8c.html#afbe4096c7ee75eb4368161945403d399" target="_top" xlink:title=" ">
<polygon fill="white" stroke="#666666" points="554.5,-65.75 449.25,-65.75 449.25,-45 554.5,-45 554.5,-65.75"/>
<text xml:space="preserve" text-anchor="middle" x="501.88" y="-52.25" font-family="Helvetica,sans-Serif" font-size="10.00">configure_ui_page</text>
</a>
</g>
</g>
<!-- Node3&#45;&gt;Node317 -->
<g id="edge4_Node000003_Node000317" class="edge">
<title>Node3&#45;&gt;Node317</title>
<g id="a_edge4_Node000003_Node000317"><a xlink:title=" ">
<path fill="none" stroke="#63b8ff" d="M399.21,-55.38C411.22,-55.38 424.56,-55.38 437.52,-55.38"/>
<polygon fill="#63b8ff" stroke="#63b8ff" points="437.25,-58.88 447.25,-55.38 437.25,-51.88 437.25,-58.88"/>
</a>
</g>
</g>
<!-- Node318 -->
<g id="Node000318" class="node">
<title>Node318</title>
<g id="a_Node000318"><a xlink:href="kest__ui_8c.html#aab9f2e82d67858edd53fd09370687007" target="_top" xlink:title=" ">
<polygon fill="#fff0f0" stroke="red" points="544.38,-26.75 459.38,-26.75 459.38,-6 544.38,-6 544.38,-26.75"/>
<text xml:space="preserve" text-anchor="middle" x="501.88" y="-13.25" font-family="Helvetica,sans-Serif" font-size="10.00">enter_ui_page</text>
</a>
</g>
</g>
<!-- Node3&#45;&gt;Node318 -->
<g id="edge5_Node000003_Node000318" class="edge">
<title>Node3&#45;&gt;Node318</title>
<g id="a_edge5_Node000003_Node000318"><a xlink:title=" ">
<path fill="none" stroke="#63b8ff" d="M396.9,-44.51C413.23,-40.09 432.3,-34.93 449.61,-30.25"/>
<polygon fill="#63b8ff" stroke="#63b8ff" points="450.49,-33.63 459.23,-27.64 448.67,-26.88 450.49,-33.63"/>
</a>
</g>
</g>
</g>
</svg>
