<?xml version="1.0" encoding="UTF-8" standalone="no"?>
<!DOCTYPE svg PUBLIC "-//W3C//DTD SVG 1.1//EN"
 "http://www.w3.org/Graphics/SVG/1.1/DTD/svg11.dtd">
<!-- Generated by graphviz version 13.1.2 (20250808.2320)
 -->
<!-- Title: kest_resources_section_extract Pages: 1 -->
<!--zoomable 899 -->

<svg id="main" version="1.1" xmlns="http://www.w3.org/2000/svg" xmlns:xlink="http://www.w3.org/1999/xlink" xml:space="preserve" onload="init(evt)">

<style type="text/css"><![CDATA[
.node, .edge {opacity: 0.7;}
.node.selected, .edge.selected {opacity: 1;}
.edge:hover path { stroke: red; }
.edge:hover polygon { stroke: red; fill: red; }
]]></style>

<defs>
  <circle id="rim" cx="0" cy="0" r="7"/>
  <circle id="rim2" cx="0" cy="0" r="3.5"/>
  <g id="zoomPlus">
    <use xlink:href="#rim" fill="#404040"><set attributeName="fill" to="#808080" begin="zoomplus.mouseover" end="zoomplus.mouseout"/></use>
    <path d="M-4,0h8M0,-4v8" fill="none" stroke="white" stroke-width="1.5" pointer-events="none"/>
  </g>
  <g id="zoomMin">
    <use xlink:href="#rim" fill="#404040"><set attributeName="fill" to="#808080" begin="zoomminus.mouseover" end="zoomminus.mouseout"/></use>
    <path d="M-4,0h8" fill="none" stroke="white" stroke-width="1.5" pointer-events="none"/>
  </g>
  <g id="arrowUp" transform="translate(30 24)">
    <use xlink:href="#rim"/>
    <path pointer-events="none" fill="none" stroke="white" stroke-width="1.5" d="M0,-3.0v7 M-2.5,-0.5L0,-3.0L2.5,-0.5"/>
  </g>
  <g id="arrowRight" transform="rotate(90) translate(36 -43)">
    <use xlink:href="#rim"/>
    <path pointer-events="none" fill="none" stroke="white" stroke-width="1.5" d="M0,-3.0v7 M-2.5,-0.5L0,-3.0L2.5,-0.5"/>
  </g>
  <g id="arrowDown" transform="rotate(180) translate(-30 -48)">
    <use xlink:href="#rim"/>
    <path pointer-events="none" fill="none" stroke="white" stroke-width="1.5" d="M0,-3.0v7 M-2.5,-0.5L0,-3.0L2.5,-0.5"/>
  </g>
  <g id="arrowLeft" transform="rotate(270) translate(-36 17)">
    <use xlink:href="#rim"/>
    <path pointer-events="none" fill="none" stroke="white" stroke-width="1.5" d="M0,-3.0v7 M-2.5,-0.5L0,-3.0L2.5,-0.5"/>
  </g>
  <g id="resetDef">
    <use xlink:href="#rim2" fill="#404040"><set attributeName="fill" to="#808080" begin="reset.mouseover" end="reset.mouseout"/></use>
  </g>
</defs>
<script type="application/ecmascript">
var viewWidth = 864;
var viewHeight = 899;
var sectionId = 'dynsection-16';
</script>
<script type="application/ecmascript" xlink:href="svg.min.js"/>
<svg id="graph" class="graph">
<g id="viewport">
<title>kest_resources_section_extract</title>
<!-- Node1 -->
<g id="Node000001" class="node">
<title>Node1</title>
<g id="a_Node000001"><a xlink:title=" ">
<polygon fill="#999999" stroke="#666666" points="129.25,-215.12 0,-215.12 0,-181.62 129.25,-181.62 129.25,-215.12"/>
<text xml:space="preserve" text-anchor="start" x="8" y="-201.62" font-family="Helvetica,sans-Serif" font-size="10.00">kest_resources_section</text>
<text xml:space="preserve" text-anchor="middle" x="64.62" y="-188.88" font-family="Helvetica,sans-Serif" font-size="10.00">_extract</text>
</a>
</g>
</g>
<!-- Node2 -->
<g id="Node000002" class="node">
<title>Node2</title>
<g id="a_Node000002"><a xlink:href="kest__dict__extract_8c.html#ad78dabb9f962180138c9dfc2bf1731e3" target="_top" xlink:title=" ">
<polygon fill="white" stroke="#666666" points="288.5,-388.12 165.25,-388.12 165.25,-354.62 288.5,-354.62 288.5,-388.12"/>
<text xml:space="preserve" text-anchor="start" x="173.25" y="-374.62" font-family="Helvetica,sans-Serif" font-size="10.00">kest_extract_resource</text>
<text xml:space="preserve" text-anchor="middle" x="226.88" y="-361.88" font-family="Helvetica,sans-Serif" font-size="10.00">_from_dict</text>
</a>
</g>
</g>
<!-- Node1&#45;&gt;Node2 -->
<g id="edge1_Node000001_Node000002" class="edge">
<title>Node1&#45;&gt;Node2</title>
<g id="a_edge1_Node000001_Node000002"><a xlink:title=" ">
<path fill="none" stroke="#63b8ff" d="M81.58,-215.6C109.89,-246.17 169.07,-310.05 202.17,-345.78"/>
<polygon fill="#63b8ff" stroke="#63b8ff" points="199.6,-348.16 208.96,-353.11 204.73,-343.4 199.6,-348.16"/>
</a>
</g>
</g>
<!-- Node25 -->
<g id="Node000025" class="node">
<title>Node25</title>
<g id="a_Node000025"><a xlink:href="kest__eff__parser_8c.html#a9c89af02214b349048ed0f85274af710" target="_top" xlink:title=" ">
<polygon fill="white" stroke="#666666" points="855.5,-310.75 710.5,-310.75 710.5,-290 855.5,-290 855.5,-310.75"/>
<text xml:space="preserve" text-anchor="middle" x="783" y="-297.25" font-family="Helvetica,sans-Serif" font-size="10.00">kest_parser_error_at_node</text>
</a>
</g>
</g>
<!-- Node1&#45;&gt;Node25 -->
<g id="edge55_Node000001_Node000025" class="edge">
<title>Node1&#45;&gt;Node25</title>
<g id="a_edge55_Node000001_Node000025"><a xlink:title=" ">
<path fill="none" stroke="#63b8ff" d="M100.99,-181.22C149.87,-158.57 241.46,-119.84 324.5,-105.38 393.9,-93.29 413.02,-97.26 483,-105.38 569.85,-115.44 601.85,-101.74 674.5,-150.38 723.56,-183.22 757.69,-246.5 772.97,-279.38"/>
<polygon fill="#63b8ff" stroke="#63b8ff" points="769.67,-280.58 776.96,-288.26 776.05,-277.71 769.67,-280.58"/>
</a>
</g>
</g>
<!-- Node3 -->
<g id="Node000003" class="node">
<title>Node3</title>
<g id="a_Node000003"><a xlink:href="kest__alloc_8c.html#a849755c5dc5b35e712ffcdb602e50fb4" target="_top" xlink:title=" ">
<polygon fill="white" stroke="#666666" points="815.38,-731.75 750.62,-731.75 750.62,-711 815.38,-711 815.38,-731.75"/>
<text xml:space="preserve" text-anchor="middle" x="783" y="-718.25" font-family="Helvetica,sans-Serif" font-size="10.00">kest_alloc</text>
</a>
</g>
</g>
<!-- Node2&#45;&gt;Node3 -->
<g id="edge2_Node000002_Node000003" class="edge">
<title>Node2&#45;&gt;Node3</title>
<g id="a_edge2_Node000002_Node000003"><a xlink:title=" ">
<path fill="none" stroke="#63b8ff" d="M228.9,-388.53C233.77,-463.22 257.08,-758.73 324.5,-815.38 384.06,-865.42 602.24,-852.2 674.5,-823.38 715.87,-806.87 750.46,-766.03 768.51,-741.33"/>
<polygon fill="#63b8ff" stroke="#63b8ff" points="771.22,-743.56 774.13,-733.37 765.5,-739.52 771.22,-743.56"/>
</a>
</g>
</g>
<!-- Node4 -->
<g id="Node000004" class="node">
<title>Node4</title>
<g id="a_Node000004"><a xlink:href="kest__dictionary_8c.html#a76d1d160cee6b666deb63f52a8f04d94" target="_top" xlink:title=" ">
<polygon fill="white" stroke="#666666" points="670,-20.75 523.5,-20.75 523.5,0 670,0 670,-20.75"/>
<text xml:space="preserve" text-anchor="middle" x="596.75" y="-7.25" font-family="Helvetica,sans-Serif" font-size="10.00">kest_dictionary_lookup_str</text>
</a>
</g>
</g>
<!-- Node2&#45;&gt;Node4 -->
<g id="edge3_Node000002_Node000004" class="edge">
<title>Node2&#45;&gt;Node4</title>
<g id="a_edge3_Node000002_Node000004"><a xlink:title=" ">
<path fill="none" stroke="#63b8ff" d="M229.13,-354.4C233.46,-307.92 251.82,-177.22 324.5,-105.38 374.76,-55.7 452.42,-31.91 511.79,-20.57"/>
<polygon fill="#63b8ff" stroke="#63b8ff" points="512.33,-24.03 521.54,-18.8 511.07,-17.14 512.33,-24.03"/>
</a>
</g>
</g>
<!-- Node7 -->
<g id="Node000007" class="node">
<title>Node7</title>
<g id="a_Node000007"><a xlink:href="kest__dict__extract_8c.html#ab7acbd0287c39e5bbb08575fa2a61291" target="_top" xlink:title=" ">
<polygon fill="white" stroke="#666666" points="460.88,-456.12 346.62,-456.12 346.62,-422.62 460.88,-422.62 460.88,-456.12"/>
<text xml:space="preserve" text-anchor="start" x="354.62" y="-442.62" font-family="Helvetica,sans-Serif" font-size="10.00">kest_extract_biquad</text>
<text xml:space="preserve" text-anchor="middle" x="403.75" y="-429.88" font-family="Helvetica,sans-Serif" font-size="10.00">_from_dict</text>
</a>
</g>
</g>
<!-- Node2&#45;&gt;Node7 -->
<g id="edge5_Node000002_Node000007" class="edge">
<title>Node2&#45;&gt;Node7</title>
<g id="a_edge5_Node000002_Node000007"><a xlink:title=" ">
<path fill="none" stroke="#63b8ff" d="M265.18,-388.52C282.99,-396.46 304.68,-405.79 324.5,-413.38 329.06,-415.12 333.79,-416.86 338.58,-418.57"/>
<polygon fill="#63b8ff" stroke="#63b8ff" points="337.04,-421.74 347.64,-421.74 339.36,-415.13 337.04,-421.74"/>
</a>
</g>
</g>
<!-- Node24 -->
<g id="Node000024" class="node">
<title>Node24</title>
<g id="a_Node000024"><a xlink:href="kest__alloc_8c.html#a294af5728a94aa316fcf65304d388d48" target="_top" xlink:title=" ">
<polygon fill="white" stroke="#666666" points="813.5,-512.75 752.5,-512.75 752.5,-492 813.5,-492 813.5,-512.75"/>
<text xml:space="preserve" text-anchor="middle" x="783" y="-499.25" font-family="Helvetica,sans-Serif" font-size="10.00">kest_free</text>
</a>
</g>
</g>
<!-- Node2&#45;&gt;Node24 -->
<g id="edge49_Node000002_Node000024" class="edge">
<title>Node2&#45;&gt;Node24</title>
<g id="a_edge49_Node000002_Node000024"><a xlink:title=" ">
<path fill="none" stroke="#63b8ff" d="M231.57,-388.59C241.06,-429.71 269.52,-535.39 324.5,-605.38 390.62,-689.54 417.25,-714.18 519,-747.38 584.7,-768.81 616.64,-785.17 674.5,-747.38 714.54,-721.22 759.72,-578.61 775.87,-523.83"/>
<polygon fill="#63b8ff" stroke="#63b8ff" points="779.16,-525.02 778.59,-514.45 772.44,-523.07 779.16,-525.02"/>
</a>
</g>
</g>
<!-- Node2&#45;&gt;Node25 -->
<g id="edge51_Node000002_Node000025" class="edge">
<title>Node2&#45;&gt;Node25</title>
<g id="a_edge51_Node000002_Node000025"><a xlink:title=" ">
<path fill="none" stroke="#63b8ff" d="M230.9,-354.38C238.7,-316.13 263.32,-223.36 324.5,-181.38 356.62,-159.34 639.53,-144.21 674.5,-161.38 724.97,-186.14 758.48,-247.28 773.3,-279.59"/>
<polygon fill="#63b8ff" stroke="#63b8ff" points="769.91,-280.58 777.15,-288.32 776.32,-277.76 769.91,-280.58"/>
</a>
</g>
</g>
<!-- Node28 -->
<g id="Node000028" class="node">
<title>Node28</title>
<g id="a_Node000028"><a xlink:href="kest__dict__extract_8c.html#a9d0ca06d0e5835047ff69fa37332abc1" target="_top" xlink:title=" ">
<polygon fill="white" stroke="#666666" points="478.12,-134.75 329.38,-134.75 329.38,-114 478.12,-114 478.12,-134.75"/>
<text xml:space="preserve" text-anchor="middle" x="403.75" y="-121.25" font-family="Helvetica,sans-Serif" font-size="10.00">kest_extract_bpf_from_dict</text>
</a>
</g>
</g>
<!-- Node2&#45;&gt;Node28 -->
<g id="edge12_Node000002_Node000028" class="edge">
<title>Node2&#45;&gt;Node28</title>
<g id="a_edge12_Node000002_Node000028"><a xlink:title=" ">
<path fill="none" stroke="#63b8ff" d="M230.32,-354.31C237.19,-312.77 260.5,-205.62 324.5,-148.38 328.01,-145.23 331.93,-142.5 336.09,-140.12"/>
<polygon fill="#63b8ff" stroke="#63b8ff" points="337.35,-143.41 344.79,-135.87 334.27,-137.12 337.35,-143.41"/>
</a>
</g>
</g>
<!-- Node29 -->
<g id="Node000029" class="node">
<title>Node29</title>
<g id="a_Node000029"><a xlink:href="kest__dict__extract_8c.html#a192768d0d5febcb6cda91f7135f2cebb" target="_top" xlink:title=" ">
<polygon fill="white" stroke="#666666" points="457.88,-224.12 349.62,-224.12 349.62,-190.62 457.88,-190.62 457.88,-224.12"/>
<text xml:space="preserve" text-anchor="start" x="357.62" y="-210.62" font-family="Helvetica,sans-Serif" font-size="10.00">kest_extract_delay</text>
<text xml:space="preserve" text-anchor="middle" x="403.75" y="-197.88" font-family="Helvetica,sans-Serif" font-size="10.00">_buffer_from_dict</text>
</a>
</g>
</g>
<!-- Node2&#45;&gt;Node29 -->
<g id="edge13_Node000002_Node000029" class="edge">
<title>Node2&#45;&gt;Node29</title>
<g id="a_edge13_Node000002_Node000029"><a xlink:title=" ">
<path fill="none" stroke="#63b8ff" d="M235.37,-354.29C248.97,-325.25 280.41,-266.23 324.5,-233.38 329.05,-229.99 334.06,-227.03 339.29,-224.44"/>
<polygon fill="#63b8ff" stroke="#63b8ff" points="340.41,-227.77 348.15,-220.52 337.59,-221.36 340.41,-227.77"/>
</a>
</g>
</g>
<!-- Node31 -->
<g id="Node000031" class="node">
<title>Node31</title>
<g id="a_Node000031"><a xlink:href="kest__dict__extract_8c.html#a449de50461a34d20bba301a90a39ec05" target="_top" xlink:title=" ">
<polygon fill="white" stroke="#666666" points="456,-314.12 351.5,-314.12 351.5,-280.62 456,-280.62 456,-314.12"/>
<text xml:space="preserve" text-anchor="start" x="359.5" y="-300.62" font-family="Helvetica,sans-Serif" font-size="10.00">kest_extract_filter</text>
<text xml:space="preserve" text-anchor="middle" x="403.75" y="-287.88" font-family="Helvetica,sans-Serif" font-size="10.00">_from_dict</text>
</a>
</g>
</g>
<!-- Node2&#45;&gt;Node31 -->
<g id="edge17_Node000002_Node000031" class="edge">
<title>Node2&#45;&gt;Node31</title>
<g id="a_edge17_Node000002_Node000031"><a xlink:title=" ">
<path fill="none" stroke="#63b8ff" d="M259.56,-354.23C278.18,-344.51 302.33,-332.51 324.5,-323.38 329.66,-321.25 335.07,-319.17 340.52,-317.16"/>
<polygon fill="#63b8ff" stroke="#63b8ff" points="341.35,-320.58 349.6,-313.93 339,-313.99 341.35,-320.58"/>
</a>
</g>
</g>
<!-- Node33 -->
<g id="Node000033" class="node">
<title>Node33</title>
<g id="a_Node000033"><a xlink:href="kest__dict__extract_8c.html#acbfde8ff56b8c5bed262375de5a2fc76" target="_top" xlink:title=" ">
<polygon fill="white" stroke="#666666" points="478.12,-506.75 329.38,-506.75 329.38,-486 478.12,-486 478.12,-506.75"/>
<text xml:space="preserve" text-anchor="middle" x="403.75" y="-493.25" font-family="Helvetica,sans-Serif" font-size="10.00">kest_extract_hpf_from_dict</text>
</a>
</g>
</g>
<!-- Node2&#45;&gt;Node33 -->
<g id="edge24_Node000002_Node000033" class="edge">
<title>Node2&#45;&gt;Node33</title>
<g id="a_edge24_Node000002_Node000033"><a xlink:title=" ">
<path fill="none" stroke="#63b8ff" d="M241.65,-388.39C259.08,-408.99 290.9,-443.63 324.5,-465.38 334.25,-471.69 345.49,-477.07 356.36,-481.49"/>
<polygon fill="#63b8ff" stroke="#63b8ff" points="355.03,-484.73 365.62,-485.04 357.54,-478.19 355.03,-484.73"/>
</a>
</g>
</g>
<!-- Node575 -->
<g id="Node000575" class="node">
<title>Node575</title>
<g id="a_Node000575"><a xlink:href="kest__dict__extract_8c.html#ab3a10359fda7bd744b54f0c72f1f497d" target="_top" xlink:title=" ">
<polygon fill="white" stroke="#666666" points="476.62,-596.75 330.88,-596.75 330.88,-576 476.62,-576 476.62,-596.75"/>
<text xml:space="preserve" text-anchor="middle" x="403.75" y="-583.25" font-family="Helvetica,sans-Serif" font-size="10.00">kest_extract_lpf_from_dict</text>
</a>
</g>
</g>
<!-- Node2&#45;&gt;Node575 -->
<g id="edge33_Node000002_Node000575" class="edge">
<title>Node2&#45;&gt;Node575</title>
<g id="a_edge33_Node000002_Node000575"><a xlink:title=" ">
<path fill="none" stroke="#63b8ff" d="M237.39,-388.28C253.47,-416.18 287.89,-473 324.5,-515.38 341.54,-535.1 363.78,-554.81 380.19,-568.43"/>
<polygon fill="#63b8ff" stroke="#63b8ff" points="377.96,-571.14 387.92,-574.75 382.39,-565.72 377.96,-571.14"/>
</a>
</g>
</g>
<!-- Node577 -->
<g id="Node000577" class="node">
<title>Node577</title>
<g id="a_Node000577"><a xlink:href="kest__dict__extract_8c.html#ab9eb2913c5cfcd0dd01128a9b0d3be9a" target="_top" xlink:title=" ">
<polygon fill="white" stroke="#666666" points="483,-262.75 324.5,-262.75 324.5,-242 483,-242 483,-262.75"/>
<text xml:space="preserve" text-anchor="middle" x="403.75" y="-249.25" font-family="Helvetica,sans-Serif" font-size="10.00">kest_extract_mem_from_dict</text>
</a>
</g>
</g>
<!-- Node2&#45;&gt;Node577 -->
<g id="edge41_Node000002_Node000577" class="edge">
<title>Node2&#45;&gt;Node577</title>
<g id="a_edge41_Node000002_Node000577"><a xlink:title=" ">
<path fill="none" stroke="#63b8ff" d="M239.49,-354.37C255.79,-331.84 287.64,-292.5 324.5,-271.38 326.99,-269.95 329.59,-268.62 332.26,-267.4"/>
<polygon fill="#63b8ff" stroke="#63b8ff" points="333.46,-270.69 341.44,-263.72 330.85,-264.19 333.46,-270.69"/>
</a>
</g>
</g>
<!-- Node578 -->
<g id="Node000578" class="node">
<title>Node578</title>
<g id="a_Node000578"><a xlink:href="kest__dict__extract_8c.html#a5cdad622cac403efa9954b47c588ce90" target="_top" xlink:title=" ">
<polygon fill="white" stroke="#666666" points="471.75,-366.12 335.75,-366.12 335.75,-332.62 471.75,-332.62 471.75,-366.12"/>
<text xml:space="preserve" text-anchor="start" x="343.75" y="-352.62" font-family="Helvetica,sans-Serif" font-size="10.00">kest_extract_polynomial</text>
<text xml:space="preserve" text-anchor="middle" x="403.75" y="-339.88" font-family="Helvetica,sans-Serif" font-size="10.00">_from_dict</text>
</a>
</g>
</g>
<!-- Node2&#45;&gt;Node578 -->
<g id="edge44_Node000002_Node000578" class="edge">
<title>Node2&#45;&gt;Node578</title>
<g id="a_edge44_Node000002_Node000578"><a xlink:title=" ">
<path fill="none" stroke="#63b8ff" d="M288.55,-363.74C299.98,-362.3 312.1,-360.78 324,-359.28"/>
<polygon fill="#63b8ff" stroke="#63b8ff" points="324.32,-362.77 333.81,-358.05 323.45,-355.82 324.32,-362.77"/>
</a>
</g>
</g>
<!-- Node579 -->
<g id="Node000579" class="node">
<title>Node579</title>
<g id="a_Node000579"><a xlink:href="kest__resource_8c.html#a7427cffa33a06a92cfe8a18ec7b5eb3b" target="_top" xlink:title=" ">
<polygon fill="white" stroke="#666666" points="467.25,-890.75 340.25,-890.75 340.25,-870 467.25,-870 467.25,-890.75"/>
<text xml:space="preserve" text-anchor="middle" x="403.75" y="-877.25" font-family="Helvetica,sans-Serif" font-size="10.00">kest_init_dsp_resource</text>
</a>
</g>
</g>
<!-- Node2&#45;&gt;Node579 -->
<g id="edge50_Node000002_Node000579" class="edge">
<title>Node2&#45;&gt;Node579</title>
<g id="a_edge50_Node000002_Node000579"><a xlink:title=" ">
<path fill="none" stroke="#63b8ff" d="M228.99,-388.61C234.34,-466.5 259.95,-784.96 324.5,-856.38 327.02,-859.17 329.87,-861.64 332.93,-863.83"/>
<polygon fill="#63b8ff" stroke="#63b8ff" points="331,-866.75 341.39,-868.81 334.55,-860.72 331,-866.75"/>
</a>
</g>
</g>
<!-- Node87 -->
<g id="Node000087" class="node">
<title>Node87</title>
<g id="a_Node000087"><a xlink:href="kest__alloc_8c.html#aed9ede1276c1ab3b4042c264ce64a3d2" target="_top" xlink:title=" ">
<polygon fill="white" stroke="#666666" points="635.88,-814.75 557.62,-814.75 557.62,-794 635.88,-794 635.88,-814.75"/>
<text xml:space="preserve" text-anchor="middle" x="596.75" y="-801.25" font-family="Helvetica,sans-Serif" font-size="10.00">kest_strndup</text>
</a>
</g>
</g>
<!-- Node2&#45;&gt;Node87 -->
<g id="edge52_Node000002_Node000087" class="edge">
<title>Node2&#45;&gt;Node87</title>
<g id="a_edge52_Node000002_Node000087"><a xlink:title=" ">
<path fill="none" stroke="#63b8ff" d="M229.3,-388.3C235.57,-458.72 263.27,-727.37 324.5,-780.38 385.61,-833.28 486.09,-826.22 546.09,-815.7"/>
<polygon fill="#63b8ff" stroke="#63b8ff" points="546.49,-819.18 555.68,-813.91 545.21,-812.3 546.49,-819.18"/>
</a>
</g>
</g>
<!-- Node580 -->
<g id="Node000580" class="node">
<title>Node580</title>
<g id="a_Node000580"><a xlink:href="kest__resource_8c.html#ae7de09edd1ed9c136ce0ecec5880390c" target="_top" xlink:title=" ">
<polygon fill="white" stroke="#666666" points="470.25,-404.75 337.25,-404.75 337.25,-384 470.25,-384 470.25,-404.75"/>
<text xml:space="preserve" text-anchor="middle" x="403.75" y="-391.25" font-family="Helvetica,sans-Serif" font-size="10.00">string_to_resource_type</text>
</a>
</g>
</g>
<!-- Node2&#45;&gt;Node580 -->
<g id="edge54_Node000002_Node000580" class="edge">
<title>Node2&#45;&gt;Node580</title>
<g id="a_edge54_Node000002_Node000580"><a xlink:title=" ">
<path fill="none" stroke="#63b8ff" d="M288.55,-379.35C300.48,-380.92 313.15,-382.59 325.54,-384.22"/>
<polygon fill="#63b8ff" stroke="#63b8ff" points="324.94,-387.67 335.31,-385.51 325.86,-380.73 324.94,-387.67"/>
</a>
</g>
</g>
<!-- Node5 -->
<g id="Node000005" class="node">
<title>Node5</title>
<g id="a_Node000005"><a xlink:href="kest__dictionary_8c.html#ac32514fb9876c48a7b489fa4686fbdbd" target="_top" xlink:title=" ">
<polygon fill="#fff0f0" stroke="red" points="847.25,-163.75 718.75,-163.75 718.75,-143 847.25,-143 847.25,-163.75"/>
<text xml:space="preserve" text-anchor="middle" x="783" y="-150.25" font-family="Helvetica,sans-Serif" font-size="10.00">kest_dictionary_lookup</text>
</a>
</g>
</g>
<!-- Node4&#45;&gt;Node5 -->
<g id="edge4_Node000004_Node000005" class="edge">
<title>Node4&#45;&gt;Node5</title>
<g id="a_edge4_Node000004_Node000005"><a xlink:title=" ">
<path fill="none" stroke="#63b8ff" d="M646.18,-21.21C655.99,-24.57 665.92,-28.88 674.5,-34.38 715.69,-60.75 750.97,-106.97 769.06,-133.37"/>
<polygon fill="#63b8ff" stroke="#63b8ff" points="766.02,-135.12 774.48,-141.49 771.84,-131.23 766.02,-135.12"/>
</a>
</g>
</g>
<!-- Node8 -->
<g id="Node000008" class="node">
<title>Node8</title>
<g id="a_Node000008"><a xlink:href="kest__expression_8c.html#aadf2a6a074cb1ad7b45893704cbd71c3" target="_top" xlink:title=" ">
<polygon fill="#fff0f0" stroke="red" points="651.62,-468.12 541.88,-468.12 541.88,-434.62 651.62,-434.62 651.62,-468.12"/>
<text xml:space="preserve" text-anchor="start" x="549.88" y="-454.62" font-family="Helvetica,sans-Serif" font-size="10.00">kest_expression_to</text>
<text xml:space="preserve" text-anchor="middle" x="596.75" y="-441.88" font-family="Helvetica,sans-Serif" font-size="10.00">_string</text>
</a>
</g>
</g>
<!-- Node7&#45;&gt;Node8 -->
<g id="edge6_Node000007_Node000008" class="edge">
<title>Node7&#45;&gt;Node8</title>
<g id="a_edge6_Node000007_Node000008"><a xlink:title=" ">
<path fill="none" stroke="#63b8ff" d="M461.28,-442.93C482.92,-444.29 507.78,-445.85 530.19,-447.26"/>
<polygon fill="#63b8ff" stroke="#63b8ff" points="529.95,-450.75 540.15,-447.88 530.39,-443.76 529.95,-450.75"/>
</a>
</g>
</g>
<!-- Node13 -->
<g id="Node000013" class="node">
<title>Node13</title>
<g id="a_Node000013"><a xlink:href="kest__dict__extract_8c.html#ac9cee86a595df863e15b7693b86635b7" target="_top" xlink:title=" ">
<polygon fill="#fff0f0" stroke="red" points="649,-340.12 544.5,-340.12 544.5,-306.62 649,-306.62 649,-340.12"/>
<text xml:space="preserve" text-anchor="start" x="552.5" y="-326.62" font-family="Helvetica,sans-Serif" font-size="10.00">kest_extract_filter</text>
<text xml:space="preserve" text-anchor="middle" x="596.75" y="-313.88" font-family="Helvetica,sans-Serif" font-size="10.00">_coefs_from_dict</text>
</a>
</g>
</g>
<!-- Node7&#45;&gt;Node13 -->
<g id="edge7_Node000007_Node000013" class="edge">
<title>Node7&#45;&gt;Node13</title>
<g id="a_edge7_Node000007_Node000013"><a xlink:title=" ">
<path fill="none" stroke="#63b8ff" d="M461.27,-426.25C469.07,-422.88 476.59,-418.66 483,-413.38 508.18,-392.61 493.88,-370.21 519,-349.38 523.49,-345.65 528.53,-342.45 533.84,-339.71"/>
<polygon fill="#63b8ff" stroke="#63b8ff" points="535.25,-342.91 542.9,-335.59 532.35,-336.54 535.25,-342.91"/>
</a>
</g>
</g>
<!-- Node7&#45;&gt;Node25 -->
<g id="edge11_Node000007_Node000025" class="edge">
<title>Node7&#45;&gt;Node25</title>
<g id="a_edge11_Node000007_Node000025"><a xlink:title=" ">
<path fill="none" stroke="#63b8ff" d="M461.1,-431.8C528.64,-422.15 637.36,-404.65 674.5,-387.38 710.34,-370.7 744.54,-339.49 764.39,-319.34"/>
<polygon fill="#63b8ff" stroke="#63b8ff" points="766.76,-321.92 771.17,-312.29 761.71,-317.07 766.76,-321.92"/>
</a>
</g>
</g>
<!-- Node27 -->
<g id="Node000027" class="node">
<title>Node27</title>
<g id="a_Node000027"><a xlink:href="kest__resource_8c.html#adb005fd5423242a5fb393a1ec10feb9d" target="_top" xlink:title=" ">
<polygon fill="#fff0f0" stroke="red" points="647.12,-378.75 546.38,-378.75 546.38,-358 647.12,-358 647.12,-378.75"/>
<text xml:space="preserve" text-anchor="middle" x="596.75" y="-365.25" font-family="Helvetica,sans-Serif" font-size="10.00">kest_filter_create</text>
</a>
</g>
</g>
<!-- Node7&#45;&gt;Node27 -->
<g id="edge10_Node000007_Node000027" class="edge">
<title>Node7&#45;&gt;Node27</title>
<g id="a_edge10_Node000007_Node000027"><a xlink:title=" ">
<path fill="none" stroke="#63b8ff" d="M461.28,-422.15C468.68,-419.44 476.09,-416.5 483,-413.38 499.88,-405.75 502.05,-399.85 519,-392.38 527.08,-388.81 535.86,-385.54 544.49,-382.64"/>
<polygon fill="#63b8ff" stroke="#63b8ff" points="545.4,-386.02 553.85,-379.63 543.26,-379.36 545.4,-386.02"/>
</a>
</g>
</g>
<!-- Node13&#45;&gt;Node24 -->
<g id="edge8_Node000013_Node000024" class="edge">
<title>Node13&#45;&gt;Node24</title>
<g id="a_edge8_Node000013_Node000024"><a xlink:title=" ">
<path fill="none" stroke="#63b8ff" d="M649.14,-335.73C658.1,-339.25 666.95,-343.73 674.5,-349.38 722.39,-385.22 757.04,-448.74 772.69,-481.51"/>
<polygon fill="#63b8ff" stroke="#63b8ff" points="769.41,-482.76 776.79,-490.36 775.76,-479.81 769.41,-482.76"/>
</a>
</g>
</g>
<!-- Node13&#45;&gt;Node25 -->
<g id="edge9_Node000013_Node000025" class="edge">
<title>Node13&#45;&gt;Node25</title>
<g id="a_edge9_Node000013_Node000025"><a xlink:title=" ">
<path fill="none" stroke="#63b8ff" d="M649.07,-316.97C664.62,-315.03 682.11,-312.84 699.17,-310.71"/>
<polygon fill="#63b8ff" stroke="#63b8ff" points="699.31,-314.22 708.8,-309.51 698.44,-307.28 699.31,-314.22"/>
</a>
</g>
</g>
<!-- Node29&#45;&gt;Node25 -->
<g id="edge16_Node000029_Node000025" class="edge">
<title>Node29&#45;&gt;Node25</title>
<g id="a_edge16_Node000029_Node000025"><a xlink:title=" ">
<path fill="none" stroke="#63b8ff" d="M449.89,-190.19C505.29,-171.95 600.93,-149.88 674.5,-182.38 719.71,-202.34 754.09,-251.75 770.8,-279.89"/>
<polygon fill="#63b8ff" stroke="#63b8ff" points="767.75,-281.6 775.75,-288.54 773.82,-278.13 767.75,-281.6"/>
</a>
</g>
</g>
<!-- Node30 -->
<g id="Node000030" class="node">
<title>Node30</title>
<g id="a_Node000030"><a xlink:href="kest__dictionary_8c.html#aa5e01745c3975da2999b57cc7f51fba7" target="_top" xlink:title=" ">
<polygon fill="white" stroke="#666666" points="674.5,-250.75 519,-250.75 519,-230 674.5,-230 674.5,-250.75"/>
<text xml:space="preserve" text-anchor="middle" x="596.75" y="-237.25" font-family="Helvetica,sans-Serif" font-size="10.00">kest_dictionary_lookup_expr</text>
</a>
</g>
</g>
<!-- Node29&#45;&gt;Node30 -->
<g id="edge14_Node000029_Node000030" class="edge">
<title>Node29&#45;&gt;Node30</title>
<g id="a_edge14_Node000029_Node000030"><a xlink:title=" ">
<path fill="none" stroke="#63b8ff" d="M458.21,-216.61C477.85,-220.01 500.46,-223.91 521.6,-227.56"/>
<polygon fill="#63b8ff" stroke="#63b8ff" points="520.89,-230.99 531.34,-229.25 522.08,-224.1 520.89,-230.99"/>
</a>
</g>
</g>
<!-- Node30&#45;&gt;Node5 -->
<g id="edge15_Node000030_Node000005" class="edge">
<title>Node30&#45;&gt;Node5</title>
<g id="a_edge15_Node000030_Node000005"><a xlink:title=" ">
<path fill="none" stroke="#63b8ff" d="M648.03,-229.61C657.01,-227.03 666.15,-223.97 674.5,-220.38 705.37,-207.1 737.69,-185.8 758.73,-170.79"/>
<polygon fill="#63b8ff" stroke="#63b8ff" points="760.56,-173.78 766.6,-165.07 756.45,-168.12 760.56,-173.78"/>
</a>
</g>
</g>
<!-- Node31&#45;&gt;Node8 -->
<g id="edge20_Node000031_Node000008" class="edge">
<title>Node31&#45;&gt;Node8</title>
<g id="a_edge20_Node000031_Node000008"><a xlink:title=" ">
<path fill="none" stroke="#63b8ff" d="M456.4,-308.51C465.92,-312.17 475.27,-317 483,-323.38 508.18,-344.14 498.12,-362.29 519,-387.38 531.38,-402.25 547.55,-416.32 561.85,-427.45"/>
<polygon fill="#63b8ff" stroke="#63b8ff" points="559.63,-430.16 569.71,-433.41 563.85,-424.58 559.63,-430.16"/>
</a>
</g>
</g>
<!-- Node31&#45;&gt;Node13 -->
<g id="edge21_Node000031_Node000013" class="edge">
<title>Node31&#45;&gt;Node13</title>
<g id="a_edge21_Node000031_Node000013"><a xlink:title=" ">
<path fill="none" stroke="#63b8ff" d="M456.44,-304.41C480.01,-307.62 508.12,-311.45 532.9,-314.82"/>
<polygon fill="#63b8ff" stroke="#63b8ff" points="532.14,-318.25 542.52,-316.13 533.09,-311.31 532.14,-318.25"/>
</a>
</g>
</g>
<!-- Node31&#45;&gt;Node25 -->
<g id="edge23_Node000031_Node000025" class="edge">
<title>Node31&#45;&gt;Node25</title>
<g id="a_edge23_Node000031_Node000025"><a xlink:title=" ">
<path fill="none" stroke="#63b8ff" d="M456.47,-296.95C510.77,-296.6 598.64,-296.32 674.5,-297.38 682.3,-297.48 690.42,-297.64 698.55,-297.82"/>
<polygon fill="#63b8ff" stroke="#63b8ff" points="698.42,-301.32 708.5,-298.05 698.59,-294.32 698.42,-301.32"/>
</a>
</g>
</g>
<!-- Node31&#45;&gt;Node27 -->
<g id="edge22_Node000031_Node000027" class="edge">
<title>Node31&#45;&gt;Node27</title>
<g id="a_edge22_Node000031_Node000027"><a xlink:title=" ">
<path fill="none" stroke="#63b8ff" d="M456.18,-311.97C465.32,-315.26 474.59,-319.07 483,-323.38 500.57,-332.37 501.09,-341.07 519,-349.38 524.16,-351.77 529.66,-353.88 535.26,-355.75"/>
<polygon fill="#63b8ff" stroke="#63b8ff" points="534.04,-359.04 544.62,-358.6 536.07,-352.34 534.04,-359.04"/>
</a>
</g>
</g>
<!-- Node31&#45;&gt;Node30 -->
<g id="edge18_Node000031_Node000030" class="edge">
<title>Node31&#45;&gt;Node30</title>
<g id="a_edge18_Node000031_Node000030"><a xlink:title=" ">
<path fill="none" stroke="#63b8ff" d="M456.44,-281.95C485.21,-273.36 520.76,-262.76 548.74,-254.4"/>
<polygon fill="#63b8ff" stroke="#63b8ff" points="549.42,-257.85 558,-251.64 547.42,-251.15 549.42,-257.85"/>
</a>
</g>
</g>
<!-- Node32 -->
<g id="Node000032" class="node">
<title>Node32</title>
<g id="a_Node000032"><a xlink:href="kest__expression_8c.html#a8df028c238f29a5c5e59bcff98e28157" target="_top" xlink:title=" ">
<polygon fill="white" stroke="#666666" points="668.12,-211.75 525.38,-211.75 525.38,-191 668.12,-191 668.12,-211.75"/>
<text xml:space="preserve" text-anchor="middle" x="596.75" y="-198.25" font-family="Helvetica,sans-Serif" font-size="10.00">kest_expression_evaluate</text>
</a>
</g>
</g>
<!-- Node31&#45;&gt;Node32 -->
<g id="edge19_Node000031_Node000032" class="edge">
<title>Node31&#45;&gt;Node32</title>
<g id="a_edge19_Node000031_Node000032"><a xlink:title=" ">
<path fill="none" stroke="#63b8ff" d="M456.27,-285.39C465.69,-281.81 475.04,-277.22 483,-271.38 505.07,-255.16 496.41,-236.86 519,-221.38 521.39,-219.74 523.9,-218.24 526.49,-216.86"/>
<polygon fill="#63b8ff" stroke="#63b8ff" points="527.85,-220.09 535.5,-212.76 524.95,-213.72 527.85,-220.09"/>
</a>
</g>
</g>
<!-- Node33&#45;&gt;Node8 -->
<g id="edge30_Node000033_Node000008" class="edge">
<title>Node33&#45;&gt;Node8</title>
<g id="a_edge30_Node000033_Node000008"><a xlink:title=" ">
<path fill="none" stroke="#63b8ff" d="M450.5,-485.6C474.45,-479.95 504.19,-472.95 530.51,-466.75"/>
<polygon fill="#63b8ff" stroke="#63b8ff" points="531.15,-470.19 540.08,-464.49 529.54,-463.38 531.15,-470.19"/>
</a>
</g>
</g>
<!-- Node33&#45;&gt;Node25 -->
<g id="edge32_Node000033_Node000025" class="edge">
<title>Node33&#45;&gt;Node25</title>
<g id="a_edge32_Node000033_Node000025"><a xlink:title=" ">
<path fill="none" stroke="#63b8ff" d="M466.06,-507.23C524.09,-514.2 611.47,-515.81 674.5,-477.38 733.07,-441.66 764.05,-360.85 776.03,-322.02"/>
<polygon fill="#63b8ff" stroke="#63b8ff" points="779.32,-323.23 778.78,-312.65 772.6,-321.26 779.32,-323.23"/>
</a>
</g>
</g>
<!-- Node33&#45;&gt;Node27 -->
<g id="edge31_Node000033_Node000027" class="edge">
<title>Node33&#45;&gt;Node27</title>
<g id="a_edge31_Node000033_Node000027"><a xlink:title=" ">
<path fill="none" stroke="#63b8ff" d="M441.95,-485.6C455.56,-480.66 470.64,-473.97 483,-465.38 502.64,-451.72 501.31,-441.47 519,-425.38 535.01,-410.8 554.63,-396.28 570.02,-385.55"/>
<polygon fill="#63b8ff" stroke="#63b8ff" points="571.94,-388.48 578.2,-379.93 567.98,-382.71 571.94,-388.48"/>
</a>
</g>
</g>
<!-- Node34 -->
<g id="Node000034" class="node">
<title>Node34</title>
<g id="a_Node000034"><a xlink:href="kest__dictionary_8c.html#a2f56ef592103d8646e8f1787338bc2c6" target="_top" xlink:title=" ">
<polygon fill="#fff0f0" stroke="red" points="661,-648.12 532.5,-648.12 532.5,-614.62 661,-614.62 661,-648.12"/>
<text xml:space="preserve" text-anchor="start" x="540.5" y="-634.62" font-family="Helvetica,sans-Serif" font-size="10.00">kest_dictionary_lookup</text>
<text xml:space="preserve" text-anchor="middle" x="596.75" y="-621.88" font-family="Helvetica,sans-Serif" font-size="10.00">_entry</text>
</a>
</g>
</g>
<!-- Node33&#45;&gt;Node34 -->
<g id="edge25_Node000033_Node000034" class="edge">
<title>Node33&#45;&gt;Node34</title>
<g id="a_edge25_Node000033_Node000034"><a xlink:title=" ">
<path fill="none" stroke="#63b8ff" d="M417.21,-507.16C432.88,-520.84 460.45,-545.31 483,-567.38 499.63,-583.65 499.41,-592.83 519,-605.38 521.12,-606.73 523.31,-608.02 525.57,-609.26"/>
<polygon fill="#63b8ff" stroke="#63b8ff" points="523.87,-612.32 534.39,-613.61 526.97,-606.05 523.87,-612.32"/>
</a>
</g>
</g>
<!-- Node36 -->
<g id="Node000036" class="node">
<title>Node36</title>
<g id="a_Node000036"><a xlink:href="kest__expression_8c.html#a91f074f7596d8adca0d0aa258e8af07b" target="_top" xlink:title=" ">
<polygon fill="#fff0f0" stroke="red" points="656.88,-558.12 536.62,-558.12 536.62,-524.62 656.88,-524.62 656.88,-558.12"/>
<text xml:space="preserve" text-anchor="start" x="544.62" y="-544.62" font-family="Helvetica,sans-Serif" font-size="10.00">kest_expr_create_hpf</text>
<text xml:space="preserve" text-anchor="middle" x="596.75" y="-531.88" font-family="Helvetica,sans-Serif" font-size="10.00">_coefficients</text>
</a>
</g>
</g>
<!-- Node33&#45;&gt;Node36 -->
<g id="edge26_Node000033_Node000036" class="edge">
<title>Node33&#45;&gt;Node36</title>
<g id="a_edge26_Node000033_Node000036"><a xlink:title=" ">
<path fill="none" stroke="#63b8ff" d="M450.5,-507.15C472.9,-512.43 500.36,-518.9 525.36,-524.79"/>
<polygon fill="#63b8ff" stroke="#63b8ff" points="524.26,-528.13 534.8,-527.01 525.87,-521.31 524.26,-528.13"/>
</a>
</g>
</g>
<!-- Node482 -->
<g id="Node000482" class="node">
<title>Node482</title>
<g id="a_Node000482"><a xlink:href="kest__expression_8c.html#a0f3694a5f7f31352f194dda5a8068f5e" target="_top" xlink:title=" ">
<polygon fill="#fff0f0" stroke="red" points="656.88,-596.75 536.62,-596.75 536.62,-576 656.88,-576 656.88,-596.75"/>
<text xml:space="preserve" text-anchor="middle" x="596.75" y="-583.25" font-family="Helvetica,sans-Serif" font-size="10.00">kest_expr_new_const</text>
</a>
</g>
</g>
<!-- Node33&#45;&gt;Node482 -->
<g id="edge28_Node000033_Node000482" class="edge">
<title>Node33&#45;&gt;Node482</title>
<g id="a_edge28_Node000033_Node000482"><a xlink:title=" ">
<path fill="none" stroke="#63b8ff" d="M418.74,-507.11C439.52,-522.57 480.27,-551.03 519,-567.38 523.08,-569.1 527.35,-570.69 531.7,-572.15"/>
<polygon fill="#63b8ff" stroke="#63b8ff" points="530.57,-575.47 541.16,-575.08 532.65,-568.78 530.57,-575.47"/>
</a>
</g>
</g>
<!-- Node36&#45;&gt;Node3 -->
<g id="edge27_Node000036_Node000003" class="edge">
<title>Node36&#45;&gt;Node3</title>
<g id="a_edge27_Node000036_Node000003"><a xlink:title=" ">
<path fill="none" stroke="#63b8ff" d="M657.12,-557.13C663.28,-560.02 669.21,-563.41 674.5,-567.38 722.55,-603.45 757.12,-667.38 772.73,-700.38"/>
<polygon fill="#63b8ff" stroke="#63b8ff" points="769.46,-701.66 776.82,-709.29 775.83,-698.74 769.46,-701.66"/>
</a>
</g>
</g>
<!-- Node482&#45;&gt;Node3 -->
<g id="edge29_Node000482_Node000003" class="edge">
<title>Node482&#45;&gt;Node3</title>
<g id="a_edge29_Node000482_Node000003"><a xlink:title=" ">
<path fill="none" stroke="#63b8ff" d="M656.58,-597.13C662.84,-599.38 668.94,-602.1 674.5,-605.38 716.04,-629.89 751.19,-675.38 769.16,-701.52"/>
<polygon fill="#63b8ff" stroke="#63b8ff" points="766.07,-703.19 774.54,-709.56 771.89,-699.3 766.07,-703.19"/>
</a>
</g>
</g>
<!-- Node575&#45;&gt;Node8 -->
<g id="edge38_Node000575_Node000008" class="edge">
<title>Node575&#45;&gt;Node8</title>
<g id="a_edge38_Node000575_Node000008"><a xlink:title=" ">
<path fill="none" stroke="#63b8ff" d="M420.06,-575.56C450.77,-553.85 520.54,-504.53 562.33,-475"/>
<polygon fill="#63b8ff" stroke="#63b8ff" points="564.17,-477.98 570.32,-469.35 560.13,-472.26 564.17,-477.98"/>
</a>
</g>
</g>
<!-- Node575&#45;&gt;Node25 -->
<g id="edge40_Node000575_Node000025" class="edge">
<title>Node575&#45;&gt;Node25</title>
<g id="a_edge40_Node000575_Node000025"><a xlink:title=" ">
<path fill="none" stroke="#63b8ff" d="M418.26,-597.22C460.89,-630.1 594.51,-722.51 674.5,-657.38 735.74,-607.51 688.05,-559.09 710.5,-483.38 728.37,-423.11 757.56,-354.79 772.51,-321.23"/>
<polygon fill="#63b8ff" stroke="#63b8ff" points="775.64,-322.82 776.55,-312.26 769.25,-319.95 775.64,-322.82"/>
</a>
</g>
</g>
<!-- Node575&#45;&gt;Node27 -->
<g id="edge39_Node000575_Node000027" class="edge">
<title>Node575&#45;&gt;Node27</title>
<g id="a_edge39_Node000575_Node000027"><a xlink:title=" ">
<path fill="none" stroke="#63b8ff" d="M420.21,-575.72C437.55,-563.08 465.52,-540.53 483,-515.38 507.58,-480 492.71,-459.51 519,-425.38 531.63,-408.98 550.16,-395.03 565.85,-385.04"/>
<polygon fill="#63b8ff" stroke="#63b8ff" points="567.65,-388.04 574.37,-379.85 564.01,-382.06 567.65,-388.04"/>
</a>
</g>
</g>
<!-- Node575&#45;&gt;Node34 -->
<g id="edge34_Node000575_Node000034" class="edge">
<title>Node575&#45;&gt;Node34</title>
<g id="a_edge34_Node000575_Node000034"><a xlink:title=" ">
<path fill="none" stroke="#63b8ff" d="M450.5,-597.15C471.65,-602.14 497.32,-608.18 521.16,-613.8"/>
<polygon fill="#63b8ff" stroke="#63b8ff" points="520.31,-617.2 530.85,-616.08 521.92,-610.38 520.31,-617.2"/>
</a>
</g>
</g>
<!-- Node575&#45;&gt;Node482 -->
<g id="edge37_Node000575_Node000482" class="edge">
<title>Node575&#45;&gt;Node482</title>
<g id="a_edge37_Node000575_Node000482"><a xlink:title=" ">
<path fill="none" stroke="#63b8ff" d="M476.96,-586.38C492.69,-586.38 509.31,-586.38 524.98,-586.38"/>
<polygon fill="#63b8ff" stroke="#63b8ff" points="524.68,-589.88 534.68,-586.38 524.68,-582.88 524.68,-589.88"/>
</a>
</g>
</g>
<!-- Node576 -->
<g id="Node000576" class="node">
<title>Node576</title>
<g id="a_Node000576"><a xlink:href="kest__expression_8c.html#aea416c62dca448928915608d29bd2583" target="_top" xlink:title=" ">
<polygon fill="#fff0f0" stroke="red" points="655.38,-738.12 538.12,-738.12 538.12,-704.62 655.38,-704.62 655.38,-738.12"/>
<text xml:space="preserve" text-anchor="start" x="546.12" y="-724.62" font-family="Helvetica,sans-Serif" font-size="10.00">kest_expr_create_lpf</text>
<text xml:space="preserve" text-anchor="middle" x="596.75" y="-711.88" font-family="Helvetica,sans-Serif" font-size="10.00">_coefficients</text>
</a>
</g>
</g>
<!-- Node575&#45;&gt;Node576 -->
<g id="edge35_Node000575_Node000576" class="edge">
<title>Node575&#45;&gt;Node576</title>
<g id="a_edge35_Node000575_Node000576"><a xlink:title=" ">
<path fill="none" stroke="#63b8ff" d="M414.14,-597.17C432.49,-617.7 475.17,-662.83 519,-690.38 524.17,-693.63 529.74,-696.65 535.43,-699.44"/>
<polygon fill="#63b8ff" stroke="#63b8ff" points="533.83,-702.55 544.38,-703.56 536.76,-696.19 533.83,-702.55"/>
</a>
</g>
</g>
<!-- Node576&#45;&gt;Node3 -->
<g id="edge36_Node000576_Node000003" class="edge">
<title>Node576&#45;&gt;Node3</title>
<g id="a_edge36_Node000576_Node000003"><a xlink:title=" ">
<path fill="none" stroke="#63b8ff" d="M655.79,-721.38C682.75,-721.38 714.23,-721.38 739.01,-721.38"/>
<polygon fill="#63b8ff" stroke="#63b8ff" points="738.72,-724.88 748.72,-721.38 738.72,-717.88 738.72,-724.88"/>
</a>
</g>
</g>
<!-- Node577&#45;&gt;Node30 -->
<g id="edge42_Node000577_Node000030" class="edge">
<title>Node577&#45;&gt;Node30</title>
<g id="a_edge42_Node000577_Node000030"><a xlink:title=" ">
<path fill="none" stroke="#63b8ff" d="M483.26,-247.44C491.24,-246.94 499.37,-246.43 507.44,-245.92"/>
<polygon fill="#63b8ff" stroke="#63b8ff" points="507.5,-249.43 517.26,-245.31 507.06,-242.44 507.5,-249.43"/>
</a>
</g>
</g>
<!-- Node577&#45;&gt;Node32 -->
<g id="edge43_Node000577_Node000032" class="edge">
<title>Node577&#45;&gt;Node32</title>
<g id="a_edge43_Node000577_Node000032"><a xlink:title=" ">
<path fill="none" stroke="#63b8ff" d="M452.09,-241.55C462.33,-239.03 473.06,-236.23 483,-233.38 499.21,-228.71 502.83,-226.17 519,-221.38 526.18,-219.24 533.78,-217.12 541.29,-215.08"/>
<polygon fill="#63b8ff" stroke="#63b8ff" points="541.95,-218.53 550.72,-212.58 540.15,-211.77 541.95,-218.53"/>
</a>
</g>
</g>
<!-- Node578&#45;&gt;Node8 -->
<g id="edge46_Node000578_Node000008" class="edge">
<title>Node578&#45;&gt;Node8</title>
<g id="a_edge46_Node000578_Node000008"><a xlink:title=" ">
<path fill="none" stroke="#63b8ff" d="M462.32,-366.49C469.4,-369.18 476.45,-372.15 483,-375.38 512.53,-389.89 543.32,-411.13 565.25,-427.47"/>
<polygon fill="#63b8ff" stroke="#63b8ff" points="563.08,-430.21 573.17,-433.45 567.3,-424.62 563.08,-430.21"/>
</a>
</g>
</g>
<!-- Node578&#45;&gt;Node13 -->
<g id="edge47_Node000578_Node000013" class="edge">
<title>Node578&#45;&gt;Node13</title>
<g id="a_edge47_Node000578_Node000013"><a xlink:title=" ">
<path fill="none" stroke="#63b8ff" d="M472.09,-340.21C491.84,-337.52 513.36,-334.59 532.82,-331.94"/>
<polygon fill="#63b8ff" stroke="#63b8ff" points="533.08,-335.44 542.52,-330.62 532.14,-328.5 533.08,-335.44"/>
</a>
</g>
</g>
<!-- Node578&#45;&gt;Node27 -->
<g id="edge48_Node000578_Node000027" class="edge">
<title>Node578&#45;&gt;Node27</title>
<g id="a_edge48_Node000578_Node000027"><a xlink:title=" ">
<path fill="none" stroke="#63b8ff" d="M472.09,-356.07C492.47,-358.1 514.73,-360.32 534.68,-362.3"/>
<polygon fill="#63b8ff" stroke="#63b8ff" points="534.32,-365.78 544.61,-363.29 535.01,-358.82 534.32,-365.78"/>
</a>
</g>
</g>
<!-- Node578&#45;&gt;Node30 -->
<g id="edge45_Node000578_Node000030" class="edge">
<title>Node578&#45;&gt;Node30</title>
<g id="a_edge45_Node000578_Node000030"><a xlink:title=" ">
<path fill="none" stroke="#63b8ff" d="M463.28,-332.19C470.06,-329.54 476.77,-326.6 483,-323.38 485.42,-322.12 539.84,-281.85 572.18,-257.87"/>
<polygon fill="#63b8ff" stroke="#63b8ff" points="574.26,-260.68 580.21,-251.91 570.09,-255.06 574.26,-260.68"/>
</a>
</g>
</g>
<!-- Node87&#45;&gt;Node3 -->
<g id="edge53_Node000087_Node000003" class="edge">
<title>Node87&#45;&gt;Node3</title>
<g id="a_edge53_Node000087_Node000003"><a xlink:title=" ">
<path fill="none" stroke="#63b8ff" d="M636.16,-794C648.58,-790.21 662.3,-785.57 674.5,-780.38 703.12,-768.19 734.08,-750.7 755.39,-737.92"/>
<polygon fill="#63b8ff" stroke="#63b8ff" points="757,-741.04 763.74,-732.86 753.37,-735.06 757,-741.04"/>
</a>
</g>
</g>
</g>
</svg>

<g id="navigator" transform="translate(0 0)" fill="#404254">
  <rect fill="#f2f5e9" fill-opacity="0.5" stroke="#606060" stroke-width=".5" x="0" y="0" width="60" height="60"/>
  <use id="zoomplus" xlink:href="#zoomPlus" x="17" y="9" onmousedown="handleZoom(evt,'in')"/>
  <use id="zoomminus" xlink:href="#zoomMin" x="42" y="9" onmousedown="handleZoom(evt,'out')"/>
  <use id="reset" xlink:href="#resetDef" x="30" y="36" onmousedown="handleReset()"/>
   <use id="arrowup" xlink:href="#arrowUp" x="0" y="0" onmousedown="handlePan(0,-1)"/>
  <use id="arrowright" xlink:href="#arrowRight" x="0" y="0" onmousedown="handlePan(1,0)"/>
  <use id="arrowdown" xlink:href="#arrowDown" x="0" y="0" onmousedown="handlePan(0,1)"/>
  <use id="arrowleft" xlink:href="#arrowLeft" x="0" y="0" onmousedown="handlePan(-1,0)"/>
</g>
<svg viewBox="0 0 15 15" width="100%" height="30px" preserveAspectRatio="xMaxYMin meet">
 <g id="arrow_out" transform="scale(0.3 0.3)">
  <a xlink:href="kest__eff__section_8c_a55e76cf45dd01c8cc35bf2323f67b931_cgraph_org.svg" target="_base">
   <rect id="button" ry="5" rx="5" y="6" x="6" height="38" width="38"
        fill="#f2f5e9" fill-opacity="0.5" stroke="#606060" stroke-width="1.0"/>
   <path id="arrow"
     d="M 11.500037,31.436501 C 11.940474,20.09759 22.043105,11.32322 32.158766,21.979434 L 37.068811,17.246167 C 37.068811,17.246167 37.088388,32 37.088388,32 L 22.160133,31.978069 C 22.160133,31.978069 26.997745,27.140456 26.997745,27.140456 C 18.528582,18.264221 13.291696,25.230495 11.500037,31.436501 z"
     style="fill:#404040;"/>
  </a>
 </g>
</svg>

<style type='text/css'>
<![CDATA[
[data-mouse-over-selected='false'] { opacity: 0.7; }
[data-mouse-over-selected='true']  { opacity: 1.0; }
]]>
</style>
<script type="application/ecmascript"><![CDATA[
document.addEventListener('DOMContentLoaded', (event) => {
  highlightEdges();
  highlightAdjacentNodes();
});
]]></script>
</svg>
