<?xml version="1.0" encoding="UTF-8" standalone="no"?>
<!DOCTYPE svg PUBLIC "-//W3C//DTD SVG 1.1//EN"
 "http://www.w3.org/Graphics/SVG/1.1/DTD/svg11.dtd">
<!-- Generated by graphviz version 13.1.2 (20250808.2320)
 -->
<!-- Title: kest_fpga_queue_transfer_batch Pages: 1 -->
<!--zoomable 266 -->

<svg id="main" version="1.1" xmlns="http://www.w3.org/2000/svg" xmlns:xlink="http://www.w3.org/1999/xlink" xml:space="preserve" onload="init(evt)">

<style type="text/css"><![CDATA[
.node, .edge {opacity: 0.7;}
.node.selected, .edge.selected {opacity: 1;}
.edge:hover path { stroke: red; }
.edge:hover polygon { stroke: red; fill: red; }
]]></style>

<defs>
  <circle id="rim" cx="0" cy="0" r="7"/>
  <circle id="rim2" cx="0" cy="0" r="3.5"/>
  <g id="zoomPlus">
    <use xlink:href="#rim" fill="#404040"><set attributeName="fill" to="#808080" begin="zoomplus.mouseover" end="zoomplus.mouseout"/></use>
    <path d="M-4,0h8M0,-4v8" fill="none" stroke="white" stroke-width="1.5" pointer-events="none"/>
  </g>
  <g id="zoomMin">
    <use xlink:href="#rim" fill="#404040"><set attributeName="fill" to="#808080" begin="zoomminus.mouseover" end="zoomminus.mouseout"/></use>
    <path d="M-4,0h8" fill="none" stroke="white" stroke-width="1.5" pointer-events="none"/>
  </g>
  <g id="arrowUp" transform="translate(30 24)">
    <use xlink:href="#rim"/>
    <path pointer-events="none" fill="none" stroke="white" stroke-width="1.5" d="M0,-3.0v7 M-2.5,-0.5L0,-3.0L2.5,-0.5"/>
  </g>
  <g id="arrowRight" transform="rotate(90) translate(36 -43)">
    <use xlink:href="#rim"/>
    <path pointer-events="none" fill="none" stroke="white" stroke-width="1.5" d="M0,-3.0v7 M-2.5,-0.5L0,-3.0L2.5,-0.5"/>
  </g>
  <g id="arrowDown" transform="rotate(180) translate(-30 -48)">
    <use xlink:href="#rim"/>
    <path pointer-events="none" fill="none" stroke="white" stroke-width="1.5" d="M0,-3.0v7 M-2.5,-0.5L0,-3.0L2.5,-0.5"/>
  </g>
  <g id="arrowLeft" transform="rotate(270) translate(-36 17)">
    <use xlink:href="#rim"/>
    <path pointer-events="none" fill="none" stroke="white" stroke-width="1.5" d="M0,-3.0v7 M-2.5,-0.5L0,-3.0L2.5,-0.5"/>
  </g>
  <g id="resetDef">
    <use xlink:href="#rim2" fill="#404040"><set attributeName="fill" to="#808080" begin="reset.mouseover" end="reset.mouseout"/></use>
  </g>
</defs>
<script type="application/ecmascript">
var viewWidth = 672;
var viewHeight = 266;
var sectionId = 'dynsection-11';
</script>
<script type="application/ecmascript" xlink:href="svg.min.js"/>
<svg id="graph" class="graph">
<g id="viewport">
<title>kest_fpga_queue_transfer_batch</title>
<!-- Node1 -->
<g id="Node000001" class="node">
<title>Node1</title>
<g id="a_Node000001"><a xlink:title=" ">
<polygon fill="#999999" stroke="#666666" points="664,-138.12 522,-138.12 522,-104.62 664,-104.62 664,-138.12"/>
<text xml:space="preserve" text-anchor="start" x="530" y="-124.62" font-family="Helvetica,sans-Serif" font-size="10.00">kest_fpga_queue_transfer</text>
<text xml:space="preserve" text-anchor="middle" x="593" y="-111.88" font-family="Helvetica,sans-Serif" font-size="10.00">_batch</text>
</a>
</g>
</g>
<!-- Node2 -->
<g id="Node000002" class="node">
<title>Node2</title>
<g id="a_Node000002"><a xlink:href="kest__effect_8c.html#a288d2643ff7af914502102475595ed8f" target="_top" xlink:title=" ">
<polygon fill="white" stroke="#666666" points="466.88,-206.12 358.62,-206.12 358.62,-172.62 466.88,-172.62 466.88,-206.12"/>
<text xml:space="preserve" text-anchor="start" x="366.62" y="-192.62" font-family="Helvetica,sans-Serif" font-size="10.00">kest_effect_handle</text>
<text xml:space="preserve" text-anchor="middle" x="412.75" y="-179.88" font-family="Helvetica,sans-Serif" font-size="10.00">_updates</text>
</a>
</g>
</g>
<!-- Node1&#45;&gt;Node2 -->
<g id="edge1_Node000001_Node000002" class="edge">
<title>Node1&#45;&gt;Node2</title>
<g id="a_edge1_Node000001_Node000002"><a xlink:title=" ">
<path fill="none" stroke="#63b8ff" d="M539.29,-142.64C522.32,-149.39 503.4,-156.8 486,-163.38 478.27,-166.3 470.04,-169.33 462.02,-172.25"/>
<polygon fill="#63b8ff" stroke="#63b8ff" points="540.17,-146.06 548.16,-139.11 537.58,-139.56 540.17,-146.06"/>
</a>
</g>
</g>
<!-- Node6 -->
<g id="Node000006" class="node">
<title>Node6</title>
<g id="a_Node000006"><a xlink:href="kest__effect_8c.html#ad5745ec5888a0568782154fb4f8adfee" target="_top" xlink:title=" ">
<polygon fill="white" stroke="#666666" points="466.88,-258.12 358.62,-258.12 358.62,-224.62 466.88,-224.62 466.88,-258.12"/>
<text xml:space="preserve" text-anchor="start" x="366.62" y="-244.62" font-family="Helvetica,sans-Serif" font-size="10.00">kest_effect_handle</text>
<text xml:space="preserve" text-anchor="middle" x="412.75" y="-231.88" font-family="Helvetica,sans-Serif" font-size="10.00">_updates_inc_ui</text>
</a>
</g>
</g>
<!-- Node1&#45;&gt;Node6 -->
<g id="edge5_Node000001_Node000006" class="edge">
<title>Node1&#45;&gt;Node6</title>
<g id="a_edge5_Node000001_Node000006"><a xlink:title=" ">
<path fill="none" stroke="#63b8ff" d="M568.97,-146.57C548.79,-167.4 517.79,-196.51 486,-215.38 480.15,-218.84 473.77,-221.96 467.29,-224.73"/>
<polygon fill="#63b8ff" stroke="#63b8ff" points="571.26,-149.24 575.62,-139.58 566.19,-144.41 571.26,-149.24"/>
</a>
</g>
</g>
<!-- Node7 -->
<g id="Node000007" class="node">
<title>Node7</title>
<g id="a_Node000007"><a xlink:href="kest__effect_8c.html#a490655823471fa9f081e6252b13da30e" target="_top" xlink:title=" ">
<polygon fill="white" stroke="#666666" points="480.75,-154.75 344.75,-154.75 344.75,-134 480.75,-134 480.75,-154.75"/>
<text xml:space="preserve" text-anchor="middle" x="412.75" y="-141.25" font-family="Helvetica,sans-Serif" font-size="10.00">kest_effect_update_fpga</text>
</a>
</g>
</g>
<!-- Node1&#45;&gt;Node7 -->
<g id="edge7_Node000001_Node000007" class="edge">
<title>Node1&#45;&gt;Node7</title>
<g id="a_edge7_Node000001_Node000007"><a xlink:title=" ">
<path fill="none" stroke="#63b8ff" d="M510.19,-131.93C500.45,-133.19 490.58,-134.46 481.07,-135.69"/>
<polygon fill="#63b8ff" stroke="#63b8ff" points="510.58,-135.41 520.05,-130.66 509.68,-128.47 510.58,-135.41"/>
</a>
</g>
</g>
<!-- Node8 -->
<g id="Node000008" class="node">
<title>Node8</title>
<g id="a_Node000008"><a xlink:href="kest__effect_8c.html#acd72b0b8d69b207a12265887b06fc7f9" target="_top" xlink:title=" ">
<polygon fill="white" stroke="#666666" points="467.25,-116.12 358.25,-116.12 358.25,-82.62 467.25,-82.62 467.25,-116.12"/>
<text xml:space="preserve" text-anchor="start" x="366.25" y="-102.62" font-family="Helvetica,sans-Serif" font-size="10.00">kest_effect_update</text>
<text xml:space="preserve" text-anchor="middle" x="412.75" y="-89.88" font-family="Helvetica,sans-Serif" font-size="10.00">_sync_no_pw</text>
</a>
</g>
</g>
<!-- Node1&#45;&gt;Node8 -->
<g id="edge8_Node000001_Node000008" class="edge">
<title>Node1&#45;&gt;Node8</title>
<g id="a_edge8_Node000001_Node000008"><a xlink:title=" ">
<path fill="none" stroke="#63b8ff" d="M510.54,-111.32C496.03,-109.53 481.25,-107.71 467.74,-106.04"/>
<polygon fill="#63b8ff" stroke="#63b8ff" points="509.7,-114.74 520.05,-112.49 510.55,-107.8 509.7,-114.74"/>
</a>
</g>
</g>
<!-- Node9 -->
<g id="Node000009" class="node">
<title>Node9</title>
<g id="a_Node000009"><a xlink:href="kest__pipeline_8c.html#ab8999b49f257e50e63cc3294b8212daf" target="_top" xlink:title=" ">
<polygon fill="white" stroke="#666666" points="486,-64.75 339.5,-64.75 339.5,-44 486,-44 486,-64.75"/>
<text xml:space="preserve" text-anchor="middle" x="412.75" y="-51.25" font-family="Helvetica,sans-Serif" font-size="10.00">kest_pipeline_update_fpga</text>
</a>
</g>
</g>
<!-- Node1&#45;&gt;Node9 -->
<g id="edge9_Node000001_Node000009" class="edge">
<title>Node1&#45;&gt;Node9</title>
<g id="a_edge9_Node000001_Node000009"><a xlink:title=" ">
<path fill="none" stroke="#63b8ff" d="M547.9,-99.4C529.12,-90.57 506.78,-80.75 486,-73.38 477.57,-70.38 468.43,-67.62 459.58,-65.18"/>
<polygon fill="#63b8ff" stroke="#63b8ff" points="546.33,-102.53 556.86,-103.67 549.34,-96.21 546.33,-102.53"/>
</a>
</g>
</g>
<!-- Node63 -->
<g id="Node000063" class="node">
<title>Node63</title>
<g id="a_Node000063"><a xlink:href="kest__update_8c.html#a457bbd02b4b76425d10929f7f7c223ee" target="_top" xlink:title=" ">
<polygon fill="white" stroke="#666666" points="466.5,-24.75 359,-24.75 359,-4 466.5,-4 466.5,-24.75"/>
<text xml:space="preserve" text-anchor="middle" x="412.75" y="-11.25" font-family="Helvetica,sans-Serif" font-size="10.00">kest_updater_send</text>
</a>
</g>
</g>
<!-- Node1&#45;&gt;Node63 -->
<g id="edge12_Node000001_Node000063" class="edge">
<title>Node1&#45;&gt;Node63</title>
<g id="a_edge12_Node000001_Node000063"><a xlink:title=" ">
<path fill="none" stroke="#63b8ff" d="M567.5,-96.67C547.23,-77.49 516.86,-51.53 486,-35.38 478.25,-31.32 469.6,-27.94 461.06,-25.18"/>
<polygon fill="#63b8ff" stroke="#63b8ff" points="564.82,-98.95 574.45,-103.37 569.68,-93.91 564.82,-98.95"/>
</a>
</g>
</g>
<!-- Node3 -->
<g id="Node000003" class="node">
<title>Node3</title>
<g id="a_Node000003"><a xlink:href="kest__update_8c.html#a5e0d89e23eaabecddff58a4612bc5c71" target="_top" xlink:title=" ">
<polygon fill="white" stroke="#666666" points="288.12,-254.12 180.62,-254.12 180.62,-220.62 288.12,-220.62 288.12,-254.12"/>
<text xml:space="preserve" text-anchor="start" x="188.62" y="-240.62" font-family="Helvetica,sans-Serif" font-size="10.00">kest_active_preset</text>
<text xml:space="preserve" text-anchor="middle" x="234.38" y="-227.88" font-family="Helvetica,sans-Serif" font-size="10.00">_updater_task</text>
</a>
</g>
</g>
<!-- Node2&#45;&gt;Node3 -->
<g id="edge2_Node000002_Node000003" class="edge">
<title>Node2&#45;&gt;Node3</title>
<g id="a_edge2_Node000002_Node000003"><a xlink:title=" ">
<path fill="none" stroke="#63b8ff" d="M347.49,-206.86C328.15,-212.13 307.14,-217.85 288.59,-222.89"/>
<polygon fill="#63b8ff" stroke="#63b8ff" points="348.16,-210.31 356.89,-204.3 346.32,-203.55 348.16,-210.31"/>
</a>
</g>
</g>
<!-- Node5 -->
<g id="Node000005" class="node">
<title>Node5</title>
<g id="a_Node000005"><a xlink:href="kest__effect_8c.html#a6388818d6f91e8be07c0bf562b4db182" target="_top" xlink:title=" ">
<polygon fill="white" stroke="#666666" points="302.75,-199.75 166,-199.75 166,-179 302.75,-179 302.75,-199.75"/>
<text xml:space="preserve" text-anchor="middle" x="234.38" y="-186.25" font-family="Helvetica,sans-Serif" font-size="10.00">kest_effect_update_sync</text>
</a>
</g>
</g>
<!-- Node2&#45;&gt;Node5 -->
<g id="edge4_Node000002_Node000005" class="edge">
<title>Node2&#45;&gt;Node5</title>
<g id="a_edge4_Node000002_Node000005"><a xlink:title=" ">
<path fill="none" stroke="#63b8ff" d="M347.06,-189.38C332.7,-189.38 317.44,-189.38 302.97,-189.38"/>
<polygon fill="#63b8ff" stroke="#63b8ff" points="346.84,-192.88 356.84,-189.38 346.84,-185.88 346.84,-192.88"/>
</a>
</g>
</g>
<!-- Node4 -->
<g id="Node000004" class="node">
<title>Node4</title>
<g id="a_Node000004"><a xlink:href="kest__update_8c.html#aef4f7ed8ef5adaa01ca80fe1ab8f18e8" target="_top" xlink:title=" ">
<polygon fill="white" stroke="#666666" points="118.38,-254.12 10.88,-254.12 10.88,-220.62 118.38,-220.62 118.38,-254.12"/>
<text xml:space="preserve" text-anchor="start" x="18.88" y="-240.62" font-family="Helvetica,sans-Serif" font-size="10.00">kest_active_preset</text>
<text xml:space="preserve" text-anchor="middle" x="64.62" y="-227.88" font-family="Helvetica,sans-Serif" font-size="10.00">_updater_start</text>
</a>
</g>
</g>
<!-- Node3&#45;&gt;Node4 -->
<g id="edge3_Node000003_Node000004" class="edge">
<title>Node3&#45;&gt;Node4</title>
<g id="a_edge3_Node000003_Node000004"><a xlink:title=" ">
<path fill="none" stroke="#63b8ff" d="M168.99,-237.38C152.35,-237.38 134.63,-237.38 118.64,-237.38"/>
<polygon fill="#63b8ff" stroke="#63b8ff" points="168.78,-240.88 178.78,-237.38 168.78,-233.88 168.78,-240.88"/>
</a>
</g>
</g>
<!-- Node6&#45;&gt;Node3 -->
<g id="edge6_Node000006_Node000003" class="edge">
<title>Node6&#45;&gt;Node3</title>
<g id="a_edge6_Node000006_Node000003"><a xlink:title=" ">
<path fill="none" stroke="#63b8ff" d="M346.95,-239.91C327.76,-239.47 306.97,-239 288.59,-238.58"/>
<polygon fill="#63b8ff" stroke="#63b8ff" points="346.76,-243.4 356.84,-240.13 346.92,-236.4 346.76,-243.4"/>
</a>
</g>
</g>
<!-- Node10 -->
<g id="Node000010" class="node">
<title>Node10</title>
<g id="a_Node000010"><a xlink:href="kest__preset_8c.html#ab64bc66e9927debdfdf9552920c69fcf" target="_top" xlink:title=" ">
<polygon fill="white" stroke="#666666" points="303.5,-65.75 165.25,-65.75 165.25,-45 303.5,-45 303.5,-65.75"/>
<text xml:space="preserve" text-anchor="middle" x="234.38" y="-52.25" font-family="Helvetica,sans-Serif" font-size="10.00">kest_preset_update_fpga</text>
</a>
</g>
</g>
<!-- Node9&#45;&gt;Node10 -->
<g id="edge10_Node000009_Node000010" class="edge">
<title>Node9&#45;&gt;Node10</title>
<g id="a_edge10_Node000009_Node000010"><a xlink:title=" ">
<path fill="none" stroke="#63b8ff" d="M327.93,-54.85C319.88,-54.9 311.78,-54.94 303.91,-54.99"/>
<polygon fill="#63b8ff" stroke="#63b8ff" points="327.75,-58.35 337.73,-54.79 327.71,-51.35 327.75,-58.35"/>
</a>
</g>
</g>
<!-- Node11 -->
<g id="Node000011" class="node">
<title>Node11</title>
<g id="a_Node000011"><a xlink:href="kest__preset_8c.html#a4786192624da0baccb9bd169d357c794" target="_top" xlink:title=" ">
<polygon fill="#fff0f0" stroke="red" points="124.38,-72.12 4.87,-72.12 4.87,-38.62 124.38,-38.62 124.38,-72.12"/>
<text xml:space="preserve" text-anchor="start" x="12.88" y="-58.62" font-family="Helvetica,sans-Serif" font-size="10.00">kest_preset_if_active</text>
<text xml:space="preserve" text-anchor="middle" x="64.62" y="-45.88" font-family="Helvetica,sans-Serif" font-size="10.00">_update_fpga</text>
</a>
</g>
</g>
<!-- Node10&#45;&gt;Node11 -->
<g id="edge11_Node000010_Node000011" class="edge">
<title>Node10&#45;&gt;Node11</title>
<g id="a_edge11_Node000010_Node000011"><a xlink:title=" ">
<path fill="none" stroke="#63b8ff" d="M153.72,-55.38C143.93,-55.38 134.06,-55.38 124.65,-55.38"/>
<polygon fill="#63b8ff" stroke="#63b8ff" points="153.63,-58.88 163.63,-55.38 153.63,-51.88 153.63,-58.88"/>
</a>
</g>
</g>
<!-- Node64 -->
<g id="Node000064" class="node">
<title>Node64</title>
<g id="a_Node000064"><a xlink:href="kest__update_8c.html#a5f1849c909f1dbde00900ad089f46d8f" target="_top" xlink:title=" ">
<polygon fill="white" stroke="#666666" points="285.12,-23.75 183.62,-23.75 183.62,-3 285.12,-3 285.12,-23.75"/>
<text xml:space="preserve" text-anchor="middle" x="234.38" y="-10.25" font-family="Helvetica,sans-Serif" font-size="10.00">kest_update_task</text>
</a>
</g>
</g>
<!-- Node63&#45;&gt;Node64 -->
<g id="edge13_Node000063_Node000064" class="edge">
<title>Node63&#45;&gt;Node64</title>
<g id="a_edge13_Node000063_Node000064"><a xlink:title=" ">
<path fill="none" stroke="#63b8ff" d="M347.4,-14.01C327.01,-13.89 304.78,-13.77 285.54,-13.66"/>
<polygon fill="#63b8ff" stroke="#63b8ff" points="347.3,-17.51 357.32,-14.07 347.34,-10.51 347.3,-17.51"/>
</a>
</g>
</g>
<!-- Node65 -->
<g id="Node000065" class="node">
<title>Node65</title>
<g id="a_Node000065"><a xlink:href="kest__update_8c.html#a144a1e0bedaf2dbf6788825228333e63" target="_top" xlink:title=" ">
<polygon fill="#fff0f0" stroke="red" points="129.25,-20.75 0,-20.75 0,0 129.25,0 129.25,-20.75"/>
<text xml:space="preserve" text-anchor="middle" x="64.62" y="-7.25" font-family="Helvetica,sans-Serif" font-size="10.00">kest_update_task_start</text>
</a>
</g>
</g>
<!-- Node64&#45;&gt;Node65 -->
<g id="edge14_Node000064_Node000065" class="edge">
<title>Node64&#45;&gt;Node65</title>
<g id="a_edge14_Node000064_Node000065"><a xlink:title=" ">
<path fill="none" stroke="#63b8ff" d="M172.13,-12.28C158.29,-12.03 143.58,-11.77 129.63,-11.52"/>
<polygon fill="#63b8ff" stroke="#63b8ff" points="171.92,-15.78 181.99,-12.46 172.05,-8.78 171.92,-15.78"/>
</a>
</g>
</g>
</g>
</svg>

<g id="navigator" transform="translate(0 0)" fill="#404254">
  <rect fill="#f2f5e9" fill-opacity="0.5" stroke="#606060" stroke-width=".5" x="0" y="0" width="60" height="60"/>
  <use id="zoomplus" xlink:href="#zoomPlus" x="17" y="9" onmousedown="handleZoom(evt,'in')"/>
  <use id="zoomminus" xlink:href="#zoomMin" x="42" y="9" onmousedown="handleZoom(evt,'out')"/>
  <use id="reset" xlink:href="#resetDef" x="30" y="36" onmousedown="handleReset()"/>
   <use id="arrowup" xlink:href="#arrowUp" x="0" y="0" onmousedown="handlePan(0,-1)"/>
  <use id="arrowright" xlink:href="#arrowRight" x="0" y="0" onmousedown="handlePan(1,0)"/>
  <use id="arrowdown" xlink:href="#arrowDown" x="0" y="0" onmousedown="handlePan(0,1)"/>
  <use id="arrowleft" xlink:href="#arrowLeft" x="0" y="0" onmousedown="handlePan(-1,0)"/>
</g>
<svg viewBox="0 0 15 15" width="100%" height="30px" preserveAspectRatio="xMaxYMin meet">
 <g id="arrow_out" transform="scale(0.3 0.3)">
  <a xlink:href="kest__fpga__comms_8h_a3489962eaa9ab553d254921b6dc9647d_icgraph_org.svg" target="_base">
   <rect id="button" ry="5" rx="5" y="6" x="6" height="38" width="38"
        fill="#f2f5e9" fill-opacity="0.5" stroke="#606060" stroke-width="1.0"/>
   <path id="arrow"
     d="M 11.500037,31.436501 C 11.940474,20.09759 22.043105,11.32322 32.158766,21.979434 L 37.068811,17.246167 C 37.068811,17.246167 37.088388,32 37.088388,32 L 22.160133,31.978069 C 22.160133,31.978069 26.997745,27.140456 26.997745,27.140456 C 18.528582,18.264221 13.291696,25.230495 11.500037,31.436501 z"
     style="fill:#404040;"/>
  </a>
 </g>
</svg>

<style type='text/css'>
<![CDATA[
[data-mouse-over-selected='false'] { opacity: 0.7; }
[data-mouse-over-selected='true']  { opacity: 1.0; }
]]>
</style>
<script type="application/ecmascript"><![CDATA[
document.addEventListener('DOMContentLoaded', (event) => {
  highlightEdges();
  highlightAdjacentNodes();
});
]]></script>
</svg>
