<?xml version="1.0" encoding="UTF-8" standalone="no"?>
<!DOCTYPE svg PUBLIC "-//W3C//DTD SVG 1.1//EN"
 "http://www.w3.org/Graphics/SVG/1.1/DTD/svg11.dtd">
<!-- Generated by graphviz version 13.1.2 (20250808.2320)
 -->
<!-- Title: kest_parameters_section_extract Pages: 1 -->
<svg width="667pt" height="442pt"
 viewBox="0.00 0.00 667.00 442.00" xmlns="http://www.w3.org/2000/svg" xmlns:xlink="http://www.w3.org/1999/xlink">
<g id="graph0" class="graph" transform="scale(1 1) rotate(0) translate(4 437.5)">
<title>kest_parameters_section_extract</title>
<!-- Node1 -->
<g id="Node000001" class="node">
<title>Node1</title>
<g id="a_Node000001"><a xlink:title=" ">
<polygon fill="#999999" stroke="#666666" points="138.25,-255.5 0,-255.5 0,-222 138.25,-222 138.25,-255.5"/>
<text xml:space="preserve" text-anchor="start" x="8" y="-242" font-family="Helvetica,sans-Serif" font-size="10.00">kest_parameters_section</text>
<text xml:space="preserve" text-anchor="middle" x="69.12" y="-229.25" font-family="Helvetica,sans-Serif" font-size="10.00">_extract</text>
</a>
</g>
</g>
<!-- Node2 -->
<g id="Node000002" class="node">
<title>Node2</title>
<g id="a_Node000002"><a xlink:href="kest__dictionary_8c.html#ac279369f5a4c3b4a0bc0625041f410f2" target="_top" xlink:title=" ">
<polygon fill="white" stroke="#666666" points="472.12,-433.5 363.12,-433.5 363.12,-400 472.12,-400 472.12,-433.5"/>
<text xml:space="preserve" text-anchor="start" x="371.12" y="-420" font-family="Helvetica,sans-Serif" font-size="10.00">kest_eff_entry_dict</text>
<text xml:space="preserve" text-anchor="middle" x="417.62" y="-407.25" font-family="Helvetica,sans-Serif" font-size="10.00">_count</text>
</a>
</g>
</g>
<!-- Node1&#45;&gt;Node2 -->
<g id="edge1_Node000001_Node000002" class="edge">
<title>Node1&#45;&gt;Node2</title>
<g id="a_edge1_Node000001_Node000002"><a xlink:title=" ">
<path fill="none" stroke="#63b8ff" d="M89.39,-255.83C109.51,-273.07 142.52,-299.65 174.25,-317.75 232,-350.69 302.88,-378.31 353.04,-395.93"/>
<polygon fill="#63b8ff" stroke="#63b8ff" points="351.7,-399.18 362.3,-399.15 354,-392.56 351.7,-399.18"/>
</a>
</g>
</g>
<!-- Node3 -->
<g id="Node000003" class="node">
<title>Node3</title>
<g id="a_Node000003"><a xlink:href="kest__dictionary_8c.html#a25171775543290a8e7a5ef33d3b9c3d3" target="_top" xlink:title=" ">
<polygon fill="white" stroke="#666666" points="472.12,-381.5 363.12,-381.5 363.12,-348 472.12,-348 472.12,-381.5"/>
<text xml:space="preserve" text-anchor="start" x="371.12" y="-368" font-family="Helvetica,sans-Serif" font-size="10.00">kest_eff_entry_dict</text>
<text xml:space="preserve" text-anchor="middle" x="417.62" y="-355.25" font-family="Helvetica,sans-Serif" font-size="10.00">_index</text>
</a>
</g>
</g>
<!-- Node1&#45;&gt;Node3 -->
<g id="edge2_Node000001_Node000003" class="edge">
<title>Node1&#45;&gt;Node3</title>
<g id="a_edge2_Node000001_Node000003"><a xlink:title=" ">
<path fill="none" stroke="#63b8ff" d="M117.22,-255.87C180.01,-278.71 291.09,-319.1 358.87,-343.75"/>
<polygon fill="#63b8ff" stroke="#63b8ff" points="357.34,-346.92 367.94,-347.05 359.73,-340.34 357.34,-346.92"/>
</a>
</g>
</g>
<!-- Node4 -->
<g id="Node000004" class="node">
<title>Node4</title>
<g id="a_Node000004"><a xlink:href="kest__dictionary_8c.html#a833b9c5bd55ab0c0731d51c3b5bbf064" target="_top" xlink:title=" ">
<polygon fill="white" stroke="#666666" points="301.25,-210.5 192.25,-210.5 192.25,-177 301.25,-177 301.25,-210.5"/>
<text xml:space="preserve" text-anchor="start" x="200.25" y="-197" font-family="Helvetica,sans-Serif" font-size="10.00">kest_eff_entry_dict</text>
<text xml:space="preserve" text-anchor="middle" x="246.75" y="-184.25" font-family="Helvetica,sans-Serif" font-size="10.00">_index_key</text>
</a>
</g>
</g>
<!-- Node1&#45;&gt;Node4 -->
<g id="edge3_Node000001_Node000004" class="edge">
<title>Node1&#45;&gt;Node4</title>
<g id="a_edge3_Node000001_Node000004"><a xlink:title=" ">
<path fill="none" stroke="#63b8ff" d="M137.27,-221.54C151.7,-217.85 166.92,-213.95 181.25,-210.28"/>
<polygon fill="#63b8ff" stroke="#63b8ff" points="181.72,-213.77 190.54,-207.9 179.98,-206.99 181.72,-213.77"/>
</a>
</g>
</g>
<!-- Node5 -->
<g id="Node000005" class="node">
<title>Node5</title>
<g id="a_Node000005"><a xlink:href="kest__dict__extract_8c.html#ab3d43df083681484e72ddca6d935e64f" target="_top" xlink:title=" ">
<polygon fill="white" stroke="#666666" points="312.88,-249.12 180.62,-249.12 180.62,-228.38 312.88,-228.38 312.88,-249.12"/>
<text xml:space="preserve" text-anchor="middle" x="246.75" y="-235.62" font-family="Helvetica,sans-Serif" font-size="10.00">kest_extract_parameter</text>
</a>
</g>
</g>
<!-- Node1&#45;&gt;Node5 -->
<g id="edge4_Node000001_Node000005" class="edge">
<title>Node1&#45;&gt;Node5</title>
<g id="a_edge4_Node000001_Node000005"><a xlink:title=" ">
<path fill="none" stroke="#63b8ff" d="M138.53,-238.75C148.54,-238.75 158.9,-238.75 169.06,-238.75"/>
<polygon fill="#63b8ff" stroke="#63b8ff" points="168.9,-242.25 178.9,-238.75 168.9,-235.25 168.9,-242.25"/>
</a>
</g>
</g>
<!-- Node19 -->
<g id="Node000019" class="node">
<title>Node19</title>
<g id="a_Node000019"><a xlink:href="kest__eff__parser_8c.html#a9c89af02214b349048ed0f85274af710" target="_top" xlink:title=" ">
<polygon fill="white" stroke="#666666" points="319.25,-159.12 174.25,-159.12 174.25,-138.38 319.25,-138.38 319.25,-159.12"/>
<text xml:space="preserve" text-anchor="middle" x="246.75" y="-145.62" font-family="Helvetica,sans-Serif" font-size="10.00">kest_parser_error_at_node</text>
</a>
</g>
</g>
<!-- Node1&#45;&gt;Node19 -->
<g id="edge20_Node000001_Node000019" class="edge">
<title>Node1&#45;&gt;Node19</title>
<g id="a_edge20_Node000001_Node000019"><a xlink:title=" ">
<path fill="none" stroke="#63b8ff" d="M90.78,-221.52C110.93,-205.51 143.01,-182.04 174.25,-167.75 177.8,-166.12 181.52,-164.62 185.32,-163.22"/>
<polygon fill="#63b8ff" stroke="#63b8ff" points="186.34,-166.57 194.7,-160.07 184.11,-159.94 186.34,-166.57"/>
</a>
</g>
</g>
<!-- Node5&#45;&gt;Node2 -->
<g id="edge9_Node000005_Node000002" class="edge">
<title>Node5&#45;&gt;Node2</title>
<g id="a_edge9_Node000005_Node000002"><a xlink:title=" ">
<path fill="none" stroke="#63b8ff" d="M252.71,-249.5C265.75,-276.72 303.64,-349.19 355.25,-390.75 356.52,-391.77 357.83,-392.76 359.18,-393.71"/>
<polygon fill="#63b8ff" stroke="#63b8ff" points="356.91,-396.42 367.25,-398.73 360.61,-390.48 356.91,-396.42"/>
</a>
</g>
</g>
<!-- Node5&#45;&gt;Node3 -->
<g id="edge10_Node000005_Node000003" class="edge">
<title>Node5&#45;&gt;Node3</title>
<g id="a_edge10_Node000005_Node000003"><a xlink:title=" ">
<path fill="none" stroke="#63b8ff" d="M256.85,-249.38C274.25,-269.19 314.18,-312.14 355.25,-338.75 357.11,-339.95 359.03,-341.12 361,-342.26"/>
<polygon fill="#63b8ff" stroke="#63b8ff" points="359.3,-345.32 369.78,-346.9 362.58,-339.13 359.3,-345.32"/>
</a>
</g>
</g>
<!-- Node6 -->
<g id="Node000006" class="node">
<title>Node6</title>
<g id="a_Node000006"><a xlink:href="kest__parameter_8c.html#a41fafa04c21a8ab5916a8ceb5442d99a" target="_top" xlink:title=" ">
<polygon fill="white" stroke="#666666" points="470.62,-72.12 364.62,-72.12 364.62,-51.38 470.62,-51.38 470.62,-72.12"/>
<text xml:space="preserve" text-anchor="middle" x="417.62" y="-58.62" font-family="Helvetica,sans-Serif" font-size="10.00">init_parameter_str</text>
</a>
</g>
</g>
<!-- Node5&#45;&gt;Node6 -->
<g id="edge5_Node000005_Node000006" class="edge">
<title>Node5&#45;&gt;Node6</title>
<g id="a_edge5_Node000005_Node000006"><a xlink:title=" ">
<path fill="none" stroke="#63b8ff" d="M308.18,-228.03C312.23,-225.76 315.99,-223.03 319.25,-219.75 363.97,-174.83 311.79,-127.89 355.25,-81.75 356.24,-80.69 357.29,-79.69 358.39,-78.75"/>
<polygon fill="#63b8ff" stroke="#63b8ff" points="360.07,-81.84 366.37,-73.32 356.13,-76.05 360.07,-81.84"/>
</a>
</g>
</g>
<!-- Node7 -->
<g id="Node000007" class="node">
<title>Node7</title>
<g id="a_Node000007"><a xlink:href="kest__alloc_8c.html#a849755c5dc5b35e712ffcdb602e50fb4" target="_top" xlink:title=" ">
<polygon fill="white" stroke="#666666" points="619.75,-278.12 555,-278.12 555,-257.38 619.75,-257.38 619.75,-278.12"/>
<text xml:space="preserve" text-anchor="middle" x="587.38" y="-264.62" font-family="Helvetica,sans-Serif" font-size="10.00">kest_alloc</text>
</a>
</g>
</g>
<!-- Node5&#45;&gt;Node7 -->
<g id="edge6_Node000005_Node000007" class="edge">
<title>Node5&#45;&gt;Node7</title>
<g id="a_edge6_Node000005_Node000007"><a xlink:title=" ">
<path fill="none" stroke="#63b8ff" d="M296.52,-227.96C304.26,-225.63 312.08,-222.9 319.25,-219.75 336.63,-212.11 337.03,-202.07 355.25,-196.75 408.47,-181.2 426.94,-180.67 480,-196.75 513.94,-207.04 546.93,-232.12 566.95,-249.54"/>
<polygon fill="#63b8ff" stroke="#63b8ff" points="564.53,-252.07 574.31,-256.13 569.2,-246.85 564.53,-252.07"/>
</a>
</g>
</g>
<!-- Node8 -->
<g id="Node000008" class="node">
<title>Node8</title>
<g id="a_Node000008"><a xlink:href="kest__driver_8c.html#aee6be0d2280b3ce74cc8f4c1ffe272e6" target="_top" xlink:title=" ">
<polygon fill="white" stroke="#666666" points="480,-329.5 355.25,-329.5 355.25,-296 480,-296 480,-329.5"/>
<text xml:space="preserve" text-anchor="start" x="363.25" y="-316" font-family="Helvetica,sans-Serif" font-size="10.00">kest_driver_init_scope</text>
<text xml:space="preserve" text-anchor="middle" x="417.62" y="-303.25" font-family="Helvetica,sans-Serif" font-size="10.00">_entry</text>
</a>
</g>
</g>
<!-- Node5&#45;&gt;Node8 -->
<g id="edge7_Node000005_Node000008" class="edge">
<title>Node5&#45;&gt;Node8</title>
<g id="a_edge7_Node000005_Node000008"><a xlink:title=" ">
<path fill="none" stroke="#63b8ff" d="M271.6,-249.56C293.35,-259.37 326.39,-274.19 355.25,-286.75 358.54,-288.18 361.93,-289.65 365.36,-291.12"/>
<polygon fill="#63b8ff" stroke="#63b8ff" points="363.68,-294.21 374.25,-294.92 366.43,-287.77 363.68,-294.21"/>
</a>
</g>
</g>
<!-- Node9 -->
<g id="Node000009" class="node">
<title>Node9</title>
<g id="a_Node000009"><a xlink:href="kest__dictionary_8c.html#a4ef126d75eeec6fd1f0c91109686e5a2" target="_top" xlink:title=" ">
<polygon fill="white" stroke="#666666" points="474,-239.5 361.25,-239.5 361.25,-206 474,-206 474,-239.5"/>
<text xml:space="preserve" text-anchor="start" x="369.25" y="-226" font-family="Helvetica,sans-Serif" font-size="10.00">kest_eff_entry_type</text>
<text xml:space="preserve" text-anchor="middle" x="417.62" y="-213.25" font-family="Helvetica,sans-Serif" font-size="10.00">_to_string_nice</text>
</a>
</g>
</g>
<!-- Node5&#45;&gt;Node9 -->
<g id="edge11_Node000005_Node000009" class="edge">
<title>Node5&#45;&gt;Node9</title>
<g id="a_edge11_Node000005_Node000009"><a xlink:title=" ">
<path fill="none" stroke="#63b8ff" d="M313.04,-232.56C325,-231.43 337.5,-230.25 349.51,-229.11"/>
<polygon fill="#63b8ff" stroke="#63b8ff" points="349.71,-232.61 359.33,-228.18 349.04,-225.64 349.71,-232.61"/>
</a>
</g>
</g>
<!-- Node10 -->
<g id="Node000010" class="node">
<title>Node10</title>
<g id="a_Node000010"><a xlink:href="kest__expression_8c.html#aadf2a6a074cb1ad7b45893704cbd71c3" target="_top" xlink:title=" ">
<polygon fill="white" stroke="#666666" points="472.5,-33.5 362.75,-33.5 362.75,0 472.5,0 472.5,-33.5"/>
<text xml:space="preserve" text-anchor="start" x="370.75" y="-20" font-family="Helvetica,sans-Serif" font-size="10.00">kest_expression_to</text>
<text xml:space="preserve" text-anchor="middle" x="417.62" y="-7.25" font-family="Helvetica,sans-Serif" font-size="10.00">_string</text>
</a>
</g>
</g>
<!-- Node5&#45;&gt;Node10 -->
<g id="edge12_Node000005_Node000010" class="edge">
<title>Node5&#45;&gt;Node10</title>
<g id="a_edge12_Node000005_Node000010"><a xlink:title=" ">
<path fill="none" stroke="#63b8ff" d="M308.71,-228.03C312.59,-225.75 316.17,-223.02 319.25,-219.75 374.31,-161.33 304.44,-104.9 355.25,-42.75 355.68,-42.22 356.13,-41.7 356.59,-41.19"/>
<polygon fill="#63b8ff" stroke="#63b8ff" points="358.65,-44.04 363.83,-34.8 354.01,-38.79 358.65,-44.04"/>
</a>
</g>
</g>
<!-- Node16 -->
<g id="Node000016" class="node">
<title>Node16</title>
<g id="a_Node000016"><a xlink:href="kest__alloc_8c.html#a294af5728a94aa316fcf65304d388d48" target="_top" xlink:title=" ">
<polygon fill="white" stroke="#666666" points="448.12,-150.12 387.12,-150.12 387.12,-129.38 448.12,-129.38 448.12,-150.12"/>
<text xml:space="preserve" text-anchor="middle" x="417.62" y="-136.62" font-family="Helvetica,sans-Serif" font-size="10.00">kest_free</text>
</a>
</g>
</g>
<!-- Node5&#45;&gt;Node16 -->
<g id="edge16_Node000005_Node000016" class="edge">
<title>Node5&#45;&gt;Node16</title>
<g id="a_edge16_Node000005_Node000016"><a xlink:title=" ">
<path fill="none" stroke="#63b8ff" d="M304.6,-227.93C309.8,-225.7 314.79,-223 319.25,-219.75 343.17,-202.33 332.36,-182.49 355.25,-163.75 361.45,-158.68 368.84,-154.58 376.32,-151.31"/>
<polygon fill="#63b8ff" stroke="#63b8ff" points="377.37,-154.66 385.42,-147.77 374.83,-148.14 377.37,-154.66"/>
</a>
</g>
</g>
<!-- Node17 -->
<g id="Node000017" class="node">
<title>Node17</title>
<g id="a_Node000017"><a xlink:href="kest__eff__parser_8c.html#abf2c14dab3ed7e069ad5083b160b16da" target="_top" xlink:title=" ">
<polygon fill="white" stroke="#666666" points="468,-111.12 367.25,-111.12 367.25,-90.38 468,-90.38 468,-111.12"/>
<text xml:space="preserve" text-anchor="middle" x="417.62" y="-97.62" font-family="Helvetica,sans-Serif" font-size="10.00">kest_parser_error</text>
</a>
</g>
</g>
<!-- Node5&#45;&gt;Node17 -->
<g id="edge17_Node000005_Node000017" class="edge">
<title>Node5&#45;&gt;Node17</title>
<g id="a_edge17_Node000005_Node000017"><a xlink:title=" ">
<path fill="none" stroke="#63b8ff" d="M307.16,-228.05C311.54,-225.78 315.65,-223.04 319.25,-219.75 353.8,-188.15 321.59,-153.29 355.25,-120.75 356.46,-119.58 357.74,-118.48 359.07,-117.45"/>
<polygon fill="#63b8ff" stroke="#63b8ff" points="360.67,-120.57 367.29,-112.3 356.96,-114.64 360.67,-120.57"/>
</a>
</g>
</g>
<!-- Node18 -->
<g id="Node000018" class="node">
<title>Node18</title>
<g id="a_Node000018"><a xlink:href="kest__alloc_8c.html#aed9ede1276c1ab3b4042c264ce64a3d2" target="_top" xlink:title=" ">
<polygon fill="white" stroke="#666666" points="456.75,-278.12 378.5,-278.12 378.5,-257.38 456.75,-257.38 456.75,-278.12"/>
<text xml:space="preserve" text-anchor="middle" x="417.62" y="-264.62" font-family="Helvetica,sans-Serif" font-size="10.00">kest_strndup</text>
</a>
</g>
</g>
<!-- Node5&#45;&gt;Node18 -->
<g id="edge18_Node000005_Node000018" class="edge">
<title>Node5&#45;&gt;Node18</title>
<g id="a_edge18_Node000005_Node000018"><a xlink:title=" ">
<path fill="none" stroke="#63b8ff" d="M310.63,-249.55C329.25,-252.75 349.36,-256.2 367.02,-259.23"/>
<polygon fill="#63b8ff" stroke="#63b8ff" points="366.28,-262.66 376.73,-260.9 367.46,-255.76 366.28,-262.66"/>
</a>
</g>
</g>
<!-- Node8&#45;&gt;Node7 -->
<g id="edge8_Node000008_Node000007" class="edge">
<title>Node8&#45;&gt;Node7</title>
<g id="a_edge8_Node000008_Node000007"><a xlink:title=" ">
<path fill="none" stroke="#63b8ff" d="M480.14,-296.25C501.24,-290.59 524.38,-284.38 543.67,-279.21"/>
<polygon fill="#63b8ff" stroke="#63b8ff" points="544.32,-282.66 553.07,-276.68 542.5,-275.9 544.32,-282.66"/>
</a>
</g>
</g>
<!-- Node11 -->
<g id="Node000011" class="node">
<title>Node11</title>
<g id="a_Node000011"><a xlink:href="kest__expression_8c.html#a767b50b7ddfa94dc61810dfdcc8feaf0" target="_top" xlink:title=" ">
<polygon fill="#fff0f0" stroke="red" points="658.75,-27.12 516,-27.12 516,-6.38 658.75,-6.38 658.75,-27.12"/>
<text xml:space="preserve" text-anchor="middle" x="587.38" y="-13.62" font-family="Helvetica,sans-Serif" font-size="10.00">kest_expression_print_rec</text>
</a>
</g>
</g>
<!-- Node10&#45;&gt;Node11 -->
<g id="edge13_Node000010_Node000011" class="edge">
<title>Node10&#45;&gt;Node11</title>
<g id="a_edge13_Node000010_Node000011"><a xlink:title=" ">
<path fill="none" stroke="#63b8ff" d="M472.63,-10.4C482.79,-10.12 493.63,-9.98 504.43,-10"/>
<polygon fill="#63b8ff" stroke="#63b8ff" points="504.09,-13.5 514.12,-10.06 504.14,-6.5 504.09,-13.5"/>
</a>
</g>
</g>
<!-- Node11&#45;&gt;Node10 -->
<g id="edge15_Node000011_Node000010" class="edge">
<title>Node11&#45;&gt;Node10</title>
<g id="a_edge15_Node000011_Node000010"><a xlink:title=" ">
<path fill="none" stroke="#63b8ff" d="M515.63,-23.43C505.18,-23.54 494.44,-23.52 484.1,-23.35"/>
<polygon fill="#63b8ff" stroke="#63b8ff" points="484.21,-19.86 474.14,-23.14 484.06,-26.85 484.21,-19.86"/>
</a>
</g>
</g>
<!-- Node11&#45;&gt;Node11 -->
<g id="edge14_Node000011_Node000011" class="edge">
<title>Node11&#45;&gt;Node11</title>
<g id="a_edge14_Node000011_Node000011"><a xlink:title=" ">
<path fill="none" stroke="#63b8ff" d="M560.02,-27.52C549.08,-36.18 558.2,-45.12 587.38,-45.12 603.33,-45.12 613.29,-42.45 617.24,-38.61"/>
<polygon fill="#63b8ff" stroke="#63b8ff" points="620.69,-37.98 615.06,-29 613.86,-39.52 620.69,-37.98"/>
</a>
</g>
</g>
<!-- Node18&#45;&gt;Node7 -->
<g id="edge19_Node000018_Node000007" class="edge">
<title>Node18&#45;&gt;Node7</title>
<g id="a_edge19_Node000018_Node000007"><a xlink:title=" ">
<path fill="none" stroke="#63b8ff" d="M457.11,-267.75C482.81,-267.75 516.64,-267.75 543.25,-267.75"/>
<polygon fill="#63b8ff" stroke="#63b8ff" points="543.03,-271.25 553.03,-267.75 543.03,-264.25 543.03,-271.25"/>
</a>
</g>
</g>
</g>
</svg>
