<?xml version="1.0" encoding="UTF-8" standalone="no"?>
<!DOCTYPE svg PUBLIC "-//W3C//DTD SVG 1.1//EN"
 "http://www.w3.org/Graphics/SVG/1.1/DTD/svg11.dtd">
<!-- Generated by graphviz version 13.1.2 (20250808.2320)
 -->
<!-- Title: cxt_remove_effect Pages: 1 -->
<svg width="769pt" height="196pt"
 viewBox="0.00 0.00 769.00 196.00" xmlns="http://www.w3.org/2000/svg" xmlns:xlink="http://www.w3.org/1999/xlink">
<g id="graph0" class="graph" transform="scale(1 1) rotate(0) translate(4 191.98)">
<title>cxt_remove_effect</title>
<!-- Node1 -->
<g id="Node000001" class="node">
<title>Node1</title>
<g id="a_Node000001"><a xlink:title=" ">
<polygon fill="#999999" stroke="#666666" points="107.5,-113.75 0,-113.75 0,-93 107.5,-93 107.5,-113.75"/>
<text xml:space="preserve" text-anchor="middle" x="53.75" y="-100.25" font-family="Helvetica,sans-Serif" font-size="10.00">cxt_remove_effect</text>
</a>
</g>
</g>
<!-- Node2 -->
<g id="Node000002" class="node">
<title>Node2</title>
<g id="a_Node000002"><a xlink:href="kest__context_8c.html#a24c85a34dcd67c64fe9bd14c0c206328" target="_top" xlink:title=" ">
<polygon fill="white" stroke="#666666" points="263,-136.75 143.5,-136.75 143.5,-116 263,-116 263,-136.75"/>
<text xml:space="preserve" text-anchor="middle" x="203.25" y="-123.25" font-family="Helvetica,sans-Serif" font-size="10.00">cxt_get_preset_by_id</text>
</a>
</g>
</g>
<!-- Node1&#45;&gt;Node2 -->
<g id="edge1_Node000001_Node000002" class="edge">
<title>Node1&#45;&gt;Node2</title>
<g id="a_edge1_Node000001_Node000002"><a xlink:title=" ">
<path fill="none" stroke="#63b8ff" d="M107.58,-111.61C115.48,-112.85 123.73,-114.13 131.92,-115.41"/>
<polygon fill="#63b8ff" stroke="#63b8ff" points="131.11,-118.82 141.53,-116.91 132.19,-111.91 131.11,-118.82"/>
</a>
</g>
</g>
<!-- Node3 -->
<g id="Node000003" class="node">
<title>Node3</title>
<g id="a_Node000003"><a xlink:href="kest__preset_8c.html#a89148926bbc9e9114ca4b187a3fc8336" target="_top" xlink:title=" ">
<polygon fill="white" stroke="#666666" points="260.75,-98.12 145.75,-98.12 145.75,-64.62 260.75,-64.62 260.75,-98.12"/>
<text xml:space="preserve" text-anchor="start" x="153.75" y="-84.62" font-family="Helvetica,sans-Serif" font-size="10.00">kest_preset_remove</text>
<text xml:space="preserve" text-anchor="middle" x="203.25" y="-71.88" font-family="Helvetica,sans-Serif" font-size="10.00">_effect</text>
</a>
</g>
</g>
<!-- Node1&#45;&gt;Node3 -->
<g id="edge2_Node000001_Node000003" class="edge">
<title>Node1&#45;&gt;Node3</title>
<g id="a_edge2_Node000001_Node000003"><a xlink:title=" ">
<path fill="none" stroke="#63b8ff" d="M107.58,-95.49C116.19,-94.21 125.2,-92.87 134.11,-91.54"/>
<polygon fill="#63b8ff" stroke="#63b8ff" points="134.42,-95.03 143.79,-90.09 133.39,-88.11 134.42,-95.03"/>
</a>
</g>
</g>
<!-- Node4 -->
<g id="Node000004" class="node">
<title>Node4</title>
<g id="a_Node000004"><a xlink:href="kest__error__codes_8c.html#a0f4c77127bc0b77264a21104979c576a" target="_top" xlink:title=" ">
<polygon fill="white" stroke="#666666" points="761,-123.12 652.75,-123.12 652.75,-89.62 761,-89.62 761,-123.12"/>
<text xml:space="preserve" text-anchor="start" x="660.75" y="-109.62" font-family="Helvetica,sans-Serif" font-size="10.00">kest_error_code_to</text>
<text xml:space="preserve" text-anchor="middle" x="706.88" y="-96.88" font-family="Helvetica,sans-Serif" font-size="10.00">_string</text>
</a>
</g>
</g>
<!-- Node3&#45;&gt;Node4 -->
<g id="edge3_Node000003_Node000004" class="edge">
<title>Node3&#45;&gt;Node4</title>
<g id="a_edge3_Node000003_Node000004"><a xlink:title=" ">
<path fill="none" stroke="#63b8ff" d="M245.88,-98.49C251.72,-101.27 257.58,-104.27 263,-107.38 280.12,-117.2 280.86,-125.6 299,-133.38 429.47,-189.26 480.84,-206.29 616.75,-165.38 639.69,-158.47 662.16,-143.53 678.79,-130.41"/>
<polygon fill="#63b8ff" stroke="#63b8ff" points="680.71,-133.37 686.23,-124.33 676.28,-127.95 680.71,-133.37"/>
</a>
</g>
</g>
<!-- Node5 -->
<g id="Node000005" class="node">
<title>Node5</title>
<g id="a_Node000005"><a xlink:href="kest__pipeline_8c.html#a73cdb3a338dc34668b63859d87ba81b9" target="_top" xlink:title=" ">
<polygon fill="white" stroke="#666666" points="428.62,-124.12 305.38,-124.12 305.38,-90.62 428.62,-90.62 428.62,-124.12"/>
<text xml:space="preserve" text-anchor="start" x="313.38" y="-110.62" font-family="Helvetica,sans-Serif" font-size="10.00">kest_pipeline_remove</text>
<text xml:space="preserve" text-anchor="middle" x="367" y="-97.88" font-family="Helvetica,sans-Serif" font-size="10.00">_effect</text>
</a>
</g>
</g>
<!-- Node3&#45;&gt;Node5 -->
<g id="edge4_Node000003_Node000005" class="edge">
<title>Node3&#45;&gt;Node5</title>
<g id="a_edge4_Node000003_Node000005"><a xlink:title=" ">
<path fill="none" stroke="#63b8ff" d="M260.82,-90.47C271.55,-92.19 282.91,-94.02 294.03,-95.81"/>
<polygon fill="#63b8ff" stroke="#63b8ff" points="293.13,-99.21 303.56,-97.34 294.24,-92.3 293.13,-99.21"/>
</a>
</g>
</g>
<!-- Node16 -->
<g id="Node000016" class="node">
<title>Node16</title>
<g id="a_Node000016"><a xlink:href="kest__preset_8c.html#a93371f602b25d9f4667a78815c431496" target="_top" xlink:title=" ">
<polygon fill="white" stroke="#666666" points="426.75,-72.12 307.25,-72.12 307.25,-38.62 426.75,-38.62 426.75,-72.12"/>
<text xml:space="preserve" text-anchor="start" x="315.25" y="-58.62" font-family="Helvetica,sans-Serif" font-size="10.00">kest_preset_if_active</text>
<text xml:space="preserve" text-anchor="middle" x="367" y="-45.88" font-family="Helvetica,sans-Serif" font-size="10.00">_reprogram_fpga</text>
</a>
</g>
</g>
<!-- Node3&#45;&gt;Node16 -->
<g id="edge8_Node000003_Node000016" class="edge">
<title>Node3&#45;&gt;Node16</title>
<g id="a_edge8_Node000003_Node000016"><a xlink:title=" ">
<path fill="none" stroke="#63b8ff" d="M260.82,-72.28C272.14,-70.46 284.17,-68.53 295.88,-66.65"/>
<polygon fill="#63b8ff" stroke="#63b8ff" points="296.18,-70.14 305.5,-65.1 295.07,-63.23 296.18,-70.14"/>
</a>
</g>
</g>
<!-- Node72 -->
<g id="Node000072" class="node">
<title>Node72</title>
<g id="a_Node000072"><a xlink:href="kest__file__task_8c.html#ac3b15345565620ef82e718bed7688b36" target="_top" xlink:title=" ">
<polygon fill="white" stroke="#666666" points="435,-20.75 299,-20.75 299,0 435,0 435,-20.75"/>
<text xml:space="preserve" text-anchor="middle" x="367" y="-7.25" font-family="Helvetica,sans-Serif" font-size="10.00">kest_queue_preset_save</text>
</a>
</g>
</g>
<!-- Node3&#45;&gt;Node72 -->
<g id="edge11_Node000003_Node000072" class="edge">
<title>Node3&#45;&gt;Node72</title>
<g id="a_edge11_Node000003_Node000072"><a xlink:title=" ">
<path fill="none" stroke="#63b8ff" d="M231.63,-64.19C250.12,-53.13 275.39,-39.06 299,-29.38 303.04,-27.72 307.27,-26.15 311.56,-24.68"/>
<polygon fill="#63b8ff" stroke="#63b8ff" points="312.38,-28.1 320.82,-21.7 310.23,-21.43 312.38,-28.1"/>
</a>
</g>
</g>
<!-- Node6 -->
<g id="Node000006" class="node">
<title>Node6</title>
<g id="a_Node000006"><a xlink:href="kest__effect_8c.html#a09f04708e6ffd20ecaba2c10460cb1eb" target="_top" xlink:title=" ">
<polygon fill="#fff0f0" stroke="red" points="578.5,-156.75 509.25,-156.75 509.25,-136 578.5,-136 578.5,-156.75"/>
<text xml:space="preserve" text-anchor="middle" x="543.88" y="-143.25" font-family="Helvetica,sans-Serif" font-size="10.00">free_effect</text>
</a>
</g>
</g>
<!-- Node5&#45;&gt;Node6 -->
<g id="edge5_Node000005_Node000006" class="edge">
<title>Node5&#45;&gt;Node6</title>
<g id="a_edge5_Node000005_Node000006"><a xlink:title=" ">
<path fill="none" stroke="#63b8ff" d="M428.67,-120.91C451.31,-125.95 476.6,-131.59 497.62,-136.28"/>
<polygon fill="#63b8ff" stroke="#63b8ff" points="496.81,-139.69 507.33,-138.45 498.33,-132.86 496.81,-139.69"/>
</a>
</g>
</g>
<!-- Node15 -->
<g id="Node000015" class="node">
<title>Node15</title>
<g id="a_Node000015"><a xlink:href="kest__effect_8c.html#ae20b1647d7d9023fbfe6b7caa50c00a0" target="_top" xlink:title=" ">
<polygon fill="white" stroke="#666666" points="599.12,-117.75 488.62,-117.75 488.62,-97 599.12,-97 599.12,-117.75"/>
<text xml:space="preserve" text-anchor="middle" x="543.88" y="-104.25" font-family="Helvetica,sans-Serif" font-size="10.00">kest_effect_disable</text>
</a>
</g>
</g>
<!-- Node5&#45;&gt;Node15 -->
<g id="edge6_Node000005_Node000015" class="edge">
<title>Node5&#45;&gt;Node15</title>
<g id="a_edge6_Node000005_Node000015"><a xlink:title=" ">
<path fill="none" stroke="#63b8ff" d="M428.67,-107.38C444.23,-107.38 461.04,-107.38 476.85,-107.38"/>
<polygon fill="#63b8ff" stroke="#63b8ff" points="476.65,-110.88 486.65,-107.38 476.65,-103.88 476.65,-110.88"/>
</a>
</g>
</g>
<!-- Node9 -->
<g id="Node000009" class="node">
<title>Node9</title>
<g id="a_Node000009"><a xlink:href="kest__alloc_8c.html#a294af5728a94aa316fcf65304d388d48" target="_top" xlink:title=" ">
<polygon fill="white" stroke="#666666" points="574.38,-78.75 513.38,-78.75 513.38,-58 574.38,-58 574.38,-78.75"/>
<text xml:space="preserve" text-anchor="middle" x="543.88" y="-65.25" font-family="Helvetica,sans-Serif" font-size="10.00">kest_free</text>
</a>
</g>
</g>
<!-- Node5&#45;&gt;Node9 -->
<g id="edge7_Node000005_Node000009" class="edge">
<title>Node5&#45;&gt;Node9</title>
<g id="a_edge7_Node000005_Node000009"><a xlink:title=" ">
<path fill="none" stroke="#63b8ff" d="M428.67,-93.84C452.92,-88.44 480.21,-82.35 502.03,-77.48"/>
<polygon fill="#63b8ff" stroke="#63b8ff" points="502.74,-80.91 511.74,-75.32 501.22,-74.08 502.74,-80.91"/>
</a>
</g>
</g>
<!-- Node17 -->
<g id="Node000017" class="node">
<title>Node17</title>
<g id="a_Node000017"><a xlink:href="kest__preset_8c.html#a5a3e12c26912d571e86fd2b5f54a2d8d" target="_top" xlink:title=" ">
<polygon fill="#fff0f0" stroke="red" points="616.75,-39.75 471,-39.75 471,-19 616.75,-19 616.75,-39.75"/>
<text xml:space="preserve" text-anchor="middle" x="543.88" y="-26.25" font-family="Helvetica,sans-Serif" font-size="10.00">kest_preset_program_fpga</text>
</a>
</g>
</g>
<!-- Node16&#45;&gt;Node17 -->
<g id="edge9_Node000016_Node000017" class="edge">
<title>Node16&#45;&gt;Node17</title>
<g id="a_edge9_Node000016_Node000017"><a xlink:title=" ">
<path fill="none" stroke="#63b8ff" d="M427.2,-46.57C437.57,-45.03 448.54,-43.4 459.42,-41.78"/>
<polygon fill="#63b8ff" stroke="#63b8ff" points="459.82,-45.26 469.2,-40.33 458.79,-38.34 459.82,-45.26"/>
</a>
</g>
</g>
<!-- Node17&#45;&gt;Node4 -->
<g id="edge10_Node000017_Node000004" class="edge">
<title>Node17&#45;&gt;Node4</title>
<g id="a_edge10_Node000017_Node000004"><a xlink:title=" ">
<path fill="none" stroke="#63b8ff" d="M591.6,-40.19C600.13,-42.78 608.83,-45.83 616.75,-49.38 636.94,-58.39 657.84,-71.53 674.33,-82.93"/>
<polygon fill="#63b8ff" stroke="#63b8ff" points="672.06,-85.61 682.25,-88.51 676.1,-79.89 672.06,-85.61"/>
</a>
</g>
</g>
</g>
</svg>
