<?xml version="1.0" encoding="UTF-8" standalone="no"?>
<!DOCTYPE svg PUBLIC "-//W3C//DTD SVG 1.1//EN"
 "http://www.w3.org/Graphics/SVG/1.1/DTD/svg11.dtd">
<!-- Generated by graphviz version 13.1.2 (20250808.2320)
 -->
<!-- Title: enter_main_menu_cb Pages: 1 -->
<svg width="578pt" height="68pt"
 viewBox="0.00 0.00 578.00 68.00" xmlns="http://www.w3.org/2000/svg" xmlns:xlink="http://www.w3.org/1999/xlink">
<g id="graph0" class="graph" transform="scale(1 1) rotate(0) translate(4 63.75)">
<title>enter_main_menu_cb</title>
<!-- Node1 -->
<g id="Node000001" class="node">
<title>Node1</title>
<g id="a_Node000001"><a xlink:title=" ">
<polygon fill="#999999" stroke="#666666" points="121,-39.75 0,-39.75 0,-19 121,-19 121,-39.75"/>
<text xml:space="preserve" text-anchor="middle" x="60.5" y="-26.25" font-family="Helvetica,sans-Serif" font-size="10.00">enter_main_menu_cb</text>
</a>
</g>
</g>
<!-- Node2 -->
<g id="Node000002" class="node">
<title>Node2</title>
<g id="a_Node000002"><a xlink:href="kest__ui_8c.html#aab9f2e82d67858edd53fd09370687007" target="_top" xlink:title=" ">
<polygon fill="white" stroke="#666666" points="242,-39.75 157,-39.75 157,-19 242,-19 242,-39.75"/>
<text xml:space="preserve" text-anchor="middle" x="199.5" y="-26.25" font-family="Helvetica,sans-Serif" font-size="10.00">enter_ui_page</text>
</a>
</g>
</g>
<!-- Node1&#45;&gt;Node2 -->
<g id="edge1_Node000001_Node000002" class="edge">
<title>Node1&#45;&gt;Node2</title>
<g id="a_edge1_Node000001_Node000002"><a xlink:title=" ">
<path fill="none" stroke="#63b8ff" d="M121.19,-29.38C129.23,-29.38 137.44,-29.38 145.36,-29.38"/>
<polygon fill="#63b8ff" stroke="#63b8ff" points="145.19,-32.88 155.19,-29.38 145.19,-25.88 145.19,-32.88"/>
</a>
</g>
</g>
<!-- Node3 -->
<g id="Node000003" class="node">
<title>Node3</title>
<g id="a_Node000003"><a xlink:href="kest__file__task_8c.html#adfaf58014af5199e2822cba19b1d778c" target="_top" xlink:title=" ">
<polygon fill="white" stroke="#666666" points="408,-39.75 278,-39.75 278,-19 408,-19 408,-39.75"/>
<text xml:space="preserve" text-anchor="middle" x="343" y="-26.25" font-family="Helvetica,sans-Serif" font-size="10.00">kest_queue_state_save</text>
</a>
</g>
</g>
<!-- Node2&#45;&gt;Node3 -->
<g id="edge2_Node000002_Node000003" class="edge">
<title>Node2&#45;&gt;Node3</title>
<g id="a_edge2_Node000002_Node000003"><a xlink:title=" ">
<path fill="none" stroke="#63b8ff" d="M242.19,-29.38C249.81,-29.38 257.98,-29.38 266.24,-29.38"/>
<polygon fill="#63b8ff" stroke="#63b8ff" points="266,-32.88 276,-29.38 266,-25.88 266,-32.88"/>
</a>
</g>
</g>
<!-- Node4 -->
<g id="Node000004" class="node">
<title>Node4</title>
<g id="a_Node000004"><a xlink:href="kest__state_8c.html#a816d674320b40283e9c91ed95b9282a1" target="_top" xlink:title=" ">
<polygon fill="#fff0f0" stroke="red" points="565.75,-59.75 447.75,-59.75 447.75,-39 565.75,-39 565.75,-59.75"/>
<text xml:space="preserve" text-anchor="middle" x="506.75" y="-46.25" font-family="Helvetica,sans-Serif" font-size="10.00">kest_cxt_clone_state</text>
</a>
</g>
</g>
<!-- Node3&#45;&gt;Node4 -->
<g id="edge3_Node000003_Node000004" class="edge">
<title>Node3&#45;&gt;Node4</title>
<g id="a_edge3_Node000003_Node000004"><a xlink:title=" ">
<path fill="none" stroke="#63b8ff" d="M408.39,-37.34C417.54,-38.47 426.98,-39.63 436.21,-40.78"/>
<polygon fill="#63b8ff" stroke="#63b8ff" points="435.49,-44.21 445.84,-41.97 436.35,-37.27 435.49,-44.21"/>
</a>
</g>
</g>
<!-- Node8 -->
<g id="Node000008" class="node">
<title>Node8</title>
<g id="a_Node000008"><a xlink:href="kest__global_8c.html#a8fac0ce734ee513c822edfd74bb2d69d" target="_top" xlink:title=" ">
<polygon fill="white" stroke="#666666" points="569.5,-20.75 444,-20.75 444,0 569.5,0 569.5,-20.75"/>
<text xml:space="preserve" text-anchor="middle" x="506.75" y="-7.25" font-family="Helvetica,sans-Serif" font-size="10.00">kest_system_time_ms</text>
</a>
</g>
</g>
<!-- Node3&#45;&gt;Node8 -->
<g id="edge4_Node000003_Node000008" class="edge">
<title>Node3&#45;&gt;Node8</title>
<g id="a_edge4_Node000003_Node000008"><a xlink:title=" ">
<path fill="none" stroke="#63b8ff" d="M408.39,-21.81C416.3,-20.88 424.42,-19.93 432.44,-18.99"/>
<polygon fill="#63b8ff" stroke="#63b8ff" points="432.66,-22.48 442.18,-17.84 431.84,-15.53 432.66,-22.48"/>
</a>
</g>
</g>
</g>
</svg>
