<?xml version="1.0" encoding="UTF-8" standalone="no"?>
<!DOCTYPE svg PUBLIC "-//W3C//DTD SVG 1.1//EN"
 "http://www.w3.org/Graphics/SVG/1.1/DTD/svg11.dtd">
<!-- Generated by graphviz version 13.1.2 (20250808.2320)
 -->
<!-- Title: kest_sequence_regress Pages: 1 -->
<!--zoomable 261 -->

<svg id="main" version="1.1" xmlns="http://www.w3.org/2000/svg" xmlns:xlink="http://www.w3.org/1999/xlink" xml:space="preserve" onload="init(evt)">

<style type="text/css"><![CDATA[
.node, .edge {opacity: 0.7;}
.node.selected, .edge.selected {opacity: 1;}
.edge:hover path { stroke: red; }
.edge:hover polygon { stroke: red; fill: red; }
]]></style>

<defs>
  <circle id="rim" cx="0" cy="0" r="7"/>
  <circle id="rim2" cx="0" cy="0" r="3.5"/>
  <g id="zoomPlus">
    <use xlink:href="#rim" fill="#404040"><set attributeName="fill" to="#808080" begin="zoomplus.mouseover" end="zoomplus.mouseout"/></use>
    <path d="M-4,0h8M0,-4v8" fill="none" stroke="white" stroke-width="1.5" pointer-events="none"/>
  </g>
  <g id="zoomMin">
    <use xlink:href="#rim" fill="#404040"><set attributeName="fill" to="#808080" begin="zoomminus.mouseover" end="zoomminus.mouseout"/></use>
    <path d="M-4,0h8" fill="none" stroke="white" stroke-width="1.5" pointer-events="none"/>
  </g>
  <g id="arrowUp" transform="translate(30 24)">
    <use xlink:href="#rim"/>
    <path pointer-events="none" fill="none" stroke="white" stroke-width="1.5" d="M0,-3.0v7 M-2.5,-0.5L0,-3.0L2.5,-0.5"/>
  </g>
  <g id="arrowRight" transform="rotate(90) translate(36 -43)">
    <use xlink:href="#rim"/>
    <path pointer-events="none" fill="none" stroke="white" stroke-width="1.5" d="M0,-3.0v7 M-2.5,-0.5L0,-3.0L2.5,-0.5"/>
  </g>
  <g id="arrowDown" transform="rotate(180) translate(-30 -48)">
    <use xlink:href="#rim"/>
    <path pointer-events="none" fill="none" stroke="white" stroke-width="1.5" d="M0,-3.0v7 M-2.5,-0.5L0,-3.0L2.5,-0.5"/>
  </g>
  <g id="arrowLeft" transform="rotate(270) translate(-36 17)">
    <use xlink:href="#rim"/>
    <path pointer-events="none" fill="none" stroke="white" stroke-width="1.5" d="M0,-3.0v7 M-2.5,-0.5L0,-3.0L2.5,-0.5"/>
  </g>
  <g id="resetDef">
    <use xlink:href="#rim2" fill="#404040"><set attributeName="fill" to="#808080" begin="reset.mouseover" end="reset.mouseout"/></use>
  </g>
</defs>
<script type="application/ecmascript">
var viewWidth = 669;
var viewHeight = 261;
var sectionId = 'dynsection-20';
</script>
<script type="application/ecmascript" xlink:href="svg.min.js"/>
<svg id="graph" class="graph">
<g id="viewport">
<title>kest_sequence_regress</title>
<!-- Node1 -->
<g id="Node000001" class="node">
<title>Node1</title>
<g id="a_Node000001"><a xlink:title=" ">
<polygon fill="#999999" stroke="#666666" points="129.25,-126.75 0,-126.75 0,-106 129.25,-106 129.25,-126.75"/>
<text xml:space="preserve" text-anchor="middle" x="64.62" y="-113.25" font-family="Helvetica,sans-Serif" font-size="10.00">kest_sequence_regress</text>
</a>
</g>
</g>
<!-- Node2 -->
<g id="Node000002" class="node">
<title>Node2</title>
<g id="a_Node000002"><a xlink:href="kest__context_8c.html#a5d13232e1dbd01fdd19c8acbbcccc6ad" target="_top" xlink:title=" ">
<polygon fill="white" stroke="#666666" points="296,-133.12 165.25,-133.12 165.25,-99.62 296,-99.62 296,-133.12"/>
<text xml:space="preserve" text-anchor="start" x="173.25" y="-119.62" font-family="Helvetica,sans-Serif" font-size="10.00">set_active_preset_from</text>
<text xml:space="preserve" text-anchor="middle" x="230.62" y="-106.88" font-family="Helvetica,sans-Serif" font-size="10.00">_sequence</text>
</a>
</g>
</g>
<!-- Node1&#45;&gt;Node2 -->
<g id="edge1_Node000001_Node000002" class="edge">
<title>Node1&#45;&gt;Node2</title>
<g id="a_edge1_Node000001_Node000002"><a xlink:title=" ">
<path fill="none" stroke="#63b8ff" d="M129.5,-116.38C137.39,-116.38 145.51,-116.38 153.55,-116.38"/>
<polygon fill="#63b8ff" stroke="#63b8ff" points="153.33,-119.88 163.33,-116.38 153.33,-112.88 153.33,-119.88"/>
</a>
</g>
</g>
<!-- Node3 -->
<g id="Node000003" class="node">
<title>Node3</title>
<g id="a_Node000003"><a xlink:href="kest__preset_8c.html#acb2b0cbb6743bad53092fa87d22051c0" target="_top" xlink:title=" ">
<polygon fill="white" stroke="#666666" points="464.25,-194.75 336.5,-194.75 336.5,-174 464.25,-174 464.25,-194.75"/>
<text xml:space="preserve" text-anchor="middle" x="400.38" y="-181.25" font-family="Helvetica,sans-Serif" font-size="10.00">kest_preset_set_active</text>
</a>
</g>
</g>
<!-- Node2&#45;&gt;Node3 -->
<g id="edge2_Node000002_Node000003" class="edge">
<title>Node2&#45;&gt;Node3</title>
<g id="a_edge2_Node000002_Node000003"><a xlink:title=" ">
<path fill="none" stroke="#63b8ff" d="M273.96,-133.53C301.13,-144.55 336.09,-158.72 362.2,-169.3"/>
<polygon fill="#63b8ff" stroke="#63b8ff" points="360.81,-172.52 371.39,-173.03 363.44,-166.03 360.81,-172.52"/>
</a>
</g>
</g>
<!-- Node7 -->
<g id="Node000007" class="node">
<title>Node7</title>
<g id="a_Node000007"><a xlink:href="kest__preset_8c.html#ad45c84072c3ef9c904f7a6d7de7412d4" target="_top" xlink:title=" ">
<polygon fill="white" stroke="#666666" points="468.75,-126.75 332,-126.75 332,-106 468.75,-106 468.75,-126.75"/>
<text xml:space="preserve" text-anchor="middle" x="400.38" y="-113.25" font-family="Helvetica,sans-Serif" font-size="10.00">kest_preset_set_inactive</text>
</a>
</g>
</g>
<!-- Node2&#45;&gt;Node7 -->
<g id="edge5_Node000002_Node000007" class="edge">
<title>Node2&#45;&gt;Node7</title>
<g id="a_edge5_Node000002_Node000007"><a xlink:title=" ">
<path fill="none" stroke="#63b8ff" d="M296.48,-116.38C304.31,-116.38 312.38,-116.38 320.39,-116.38"/>
<polygon fill="#63b8ff" stroke="#63b8ff" points="320.13,-119.88 330.13,-116.38 320.12,-112.88 320.13,-119.88"/>
</a>
</g>
</g>
<!-- Node19 -->
<g id="Node000019" class="node">
<title>Node19</title>
<g id="a_Node000019"><a xlink:href="kest__file__task_8c.html#adfaf58014af5199e2822cba19b1d778c" target="_top" xlink:title=" ">
<polygon fill="white" stroke="#666666" points="465.38,-59.75 335.38,-59.75 335.38,-39 465.38,-39 465.38,-59.75"/>
<text xml:space="preserve" text-anchor="middle" x="400.38" y="-46.25" font-family="Helvetica,sans-Serif" font-size="10.00">kest_queue_state_save</text>
</a>
</g>
</g>
<!-- Node2&#45;&gt;Node19 -->
<g id="edge8_Node000002_Node000019" class="edge">
<title>Node2&#45;&gt;Node19</title>
<g id="a_edge8_Node000002_Node000019"><a xlink:title=" ">
<path fill="none" stroke="#63b8ff" d="M274.39,-99.29C301.31,-88.54 335.75,-74.79 361.65,-64.44"/>
<polygon fill="#63b8ff" stroke="#63b8ff" points="362.79,-67.76 370.78,-60.8 360.2,-61.25 362.79,-67.76"/>
</a>
</g>
</g>
<!-- Node4 -->
<g id="Node000004" class="node">
<title>Node4</title>
<g id="a_Node000004"><a xlink:href="kest__pipeline_8c.html#a9f66a5a5c4874c2be13b0d64e55bb13c" target="_top" xlink:title=" ">
<polygon fill="#fff0f0" stroke="red" points="642.62,-253.12 523.12,-253.12 523.12,-219.62 642.62,-219.62 642.62,-253.12"/>
<text xml:space="preserve" text-anchor="start" x="531.12" y="-239.62" font-family="Helvetica,sans-Serif" font-size="10.00">kest_pipeline_update</text>
<text xml:space="preserve" text-anchor="middle" x="582.88" y="-226.88" font-family="Helvetica,sans-Serif" font-size="10.00">_positions</text>
</a>
</g>
</g>
<!-- Node3&#45;&gt;Node4 -->
<g id="edge3_Node000003_Node000004" class="edge">
<title>Node3&#45;&gt;Node4</title>
<g id="a_edge3_Node000003_Node000004"><a xlink:title=" ">
<path fill="none" stroke="#63b8ff" d="M438.77,-195.15C459.91,-201.24 487.02,-209.05 511.95,-216.23"/>
<polygon fill="#63b8ff" stroke="#63b8ff" points="510.82,-219.55 521.39,-218.95 512.75,-212.82 510.82,-219.55"/>
</a>
</g>
</g>
<!-- Node6 -->
<g id="Node000006" class="node">
<title>Node6</title>
<g id="a_Node000006"><a xlink:href="kest__update_8c.html#a7b324260d2fc8d7c13cf79c6bc689f57" target="_top" xlink:title=" ">
<polygon fill="white" stroke="#666666" points="639.25,-201.12 526.5,-201.12 526.5,-167.62 639.25,-167.62 639.25,-201.12"/>
<text xml:space="preserve" text-anchor="start" x="534.5" y="-187.62" font-family="Helvetica,sans-Serif" font-size="10.00">kest_updater_notify</text>
<text xml:space="preserve" text-anchor="middle" x="582.88" y="-174.88" font-family="Helvetica,sans-Serif" font-size="10.00">_preset</text>
</a>
</g>
</g>
<!-- Node3&#45;&gt;Node6 -->
<g id="edge4_Node000003_Node000006" class="edge">
<title>Node3&#45;&gt;Node6</title>
<g id="a_edge4_Node000003_Node000006"><a xlink:title=" ">
<path fill="none" stroke="#63b8ff" d="M464.51,-184.38C480.78,-184.38 498.35,-184.38 514.81,-184.38"/>
<polygon fill="#63b8ff" stroke="#63b8ff" points="514.49,-187.88 524.49,-184.38 514.49,-180.88 514.49,-187.88"/>
</a>
</g>
</g>
<!-- Node8 -->
<g id="Node000008" class="node">
<title>Node8</title>
<g id="a_Node000008"><a xlink:href="kest__preset_8c.html#a97dde6e3824ce305cec8880634cdf6ae" target="_top" xlink:title=" ">
<polygon fill="#fff0f0" stroke="red" points="661,-149.75 504.75,-149.75 504.75,-129 661,-129 661,-149.75"/>
<text xml:space="preserve" text-anchor="middle" x="582.88" y="-136.25" font-family="Helvetica,sans-Serif" font-size="10.00">kest_preset_deactivate_dma</text>
</a>
</g>
</g>
<!-- Node7&#45;&gt;Node8 -->
<g id="edge6_Node000007_Node000008" class="edge">
<title>Node7&#45;&gt;Node8</title>
<g id="a_edge6_Node000007_Node000008"><a xlink:title=" ">
<path fill="none" stroke="#63b8ff" d="M469.1,-125C476.92,-126 484.98,-127.03 493.02,-128.05"/>
<polygon fill="#63b8ff" stroke="#63b8ff" points="492.5,-131.51 502.86,-129.31 493.38,-124.57 492.5,-131.51"/>
</a>
</g>
</g>
<!-- Node17 -->
<g id="Node000017" class="node">
<title>Node17</title>
<g id="a_Node000017"><a xlink:href="kest__preset_8c.html#a2f2d0b650b705f48ccccc66831d60308" target="_top" xlink:title=" ">
<polygon fill="#fff0f0" stroke="red" points="638.5,-111.12 527.25,-111.12 527.25,-77.62 638.5,-77.62 638.5,-111.12"/>
<text xml:space="preserve" text-anchor="start" x="535.25" y="-97.62" font-family="Helvetica,sans-Serif" font-size="10.00">kest_preset_update</text>
<text xml:space="preserve" text-anchor="middle" x="582.88" y="-84.88" font-family="Helvetica,sans-Serif" font-size="10.00">_representations</text>
</a>
</g>
</g>
<!-- Node7&#45;&gt;Node17 -->
<g id="edge7_Node000007_Node000017" class="edge">
<title>Node7&#45;&gt;Node17</title>
<g id="a_edge7_Node000007_Node000017"><a xlink:title=" ">
<path fill="none" stroke="#63b8ff" d="M469.1,-108.12C484.33,-106.26 500.46,-104.3 515.63,-102.45"/>
<polygon fill="#63b8ff" stroke="#63b8ff" points="516,-105.93 525.5,-101.25 515.15,-98.98 516,-105.93"/>
</a>
</g>
</g>
<!-- Node20 -->
<g id="Node000020" class="node">
<title>Node20</title>
<g id="a_Node000020"><a xlink:href="kest__state_8c.html#a816d674320b40283e9c91ed95b9282a1" target="_top" xlink:title=" ">
<polygon fill="#fff0f0" stroke="red" points="641.88,-59.75 523.88,-59.75 523.88,-39 641.88,-39 641.88,-59.75"/>
<text xml:space="preserve" text-anchor="middle" x="582.88" y="-46.25" font-family="Helvetica,sans-Serif" font-size="10.00">kest_cxt_clone_state</text>
</a>
</g>
</g>
<!-- Node19&#45;&gt;Node20 -->
<g id="edge9_Node000019_Node000020" class="edge">
<title>Node19&#45;&gt;Node20</title>
<g id="a_edge9_Node000019_Node000020"><a xlink:title=" ">
<path fill="none" stroke="#63b8ff" d="M465.78,-49.38C480.78,-49.38 496.83,-49.38 512.06,-49.38"/>
<polygon fill="#63b8ff" stroke="#63b8ff" points="512,-52.88 522,-49.38 512,-45.88 512,-52.88"/>
</a>
</g>
</g>
<!-- Node24 -->
<g id="Node000024" class="node">
<title>Node24</title>
<g id="a_Node000024"><a xlink:href="kest__global_8c.html#a8fac0ce734ee513c822edfd74bb2d69d" target="_top" xlink:title=" ">
<polygon fill="white" stroke="#666666" points="645.62,-20.75 520.12,-20.75 520.12,0 645.62,0 645.62,-20.75"/>
<text xml:space="preserve" text-anchor="middle" x="582.88" y="-7.25" font-family="Helvetica,sans-Serif" font-size="10.00">kest_system_time_ms</text>
</a>
</g>
</g>
<!-- Node19&#45;&gt;Node24 -->
<g id="edge10_Node000019_Node000024" class="edge">
<title>Node19&#45;&gt;Node24</title>
<g id="a_edge10_Node000019_Node000024"><a xlink:title=" ">
<path fill="none" stroke="#63b8ff" d="M451.65,-38.51C472.98,-33.9 498.04,-28.49 520.45,-23.65"/>
<polygon fill="#63b8ff" stroke="#63b8ff" points="521.04,-27.1 530.07,-21.57 519.56,-20.26 521.04,-27.1"/>
</a>
</g>
</g>
</g>
</svg>

<g id="navigator" transform="translate(0 0)" fill="#404254">
  <rect fill="#f2f5e9" fill-opacity="0.5" stroke="#606060" stroke-width=".5" x="0" y="0" width="60" height="60"/>
  <use id="zoomplus" xlink:href="#zoomPlus" x="17" y="9" onmousedown="handleZoom(evt,'in')"/>
  <use id="zoomminus" xlink:href="#zoomMin" x="42" y="9" onmousedown="handleZoom(evt,'out')"/>
  <use id="reset" xlink:href="#resetDef" x="30" y="36" onmousedown="handleReset()"/>
   <use id="arrowup" xlink:href="#arrowUp" x="0" y="0" onmousedown="handlePan(0,-1)"/>
  <use id="arrowright" xlink:href="#arrowRight" x="0" y="0" onmousedown="handlePan(1,0)"/>
  <use id="arrowdown" xlink:href="#arrowDown" x="0" y="0" onmousedown="handlePan(0,1)"/>
  <use id="arrowleft" xlink:href="#arrowLeft" x="0" y="0" onmousedown="handlePan(-1,0)"/>
</g>
<svg viewBox="0 0 15 15" width="100%" height="30px" preserveAspectRatio="xMaxYMin meet">
 <g id="arrow_out" transform="scale(0.3 0.3)">
  <a xlink:href="kest__sequence_8c_a0076ab743ce384590dc02431edb343c3_cgraph_org.svg" target="_base">
   <rect id="button" ry="5" rx="5" y="6" x="6" height="38" width="38"
        fill="#f2f5e9" fill-opacity="0.5" stroke="#606060" stroke-width="1.0"/>
   <path id="arrow"
     d="M 11.500037,31.436501 C 11.940474,20.09759 22.043105,11.32322 32.158766,21.979434 L 37.068811,17.246167 C 37.068811,17.246167 37.088388,32 37.088388,32 L 22.160133,31.978069 C 22.160133,31.978069 26.997745,27.140456 26.997745,27.140456 C 18.528582,18.264221 13.291696,25.230495 11.500037,31.436501 z"
     style="fill:#404040;"/>
  </a>
 </g>
</svg>

<style type='text/css'>
<![CDATA[
[data-mouse-over-selected='false'] { opacity: 0.7; }
[data-mouse-over-selected='true']  { opacity: 1.0; }
]]>
</style>
<script type="application/ecmascript"><![CDATA[
document.addEventListener('DOMContentLoaded', (event) => {
  highlightEdges();
  highlightAdjacentNodes();
});
]]></script>
</svg>
