<?xml version="1.0" encoding="UTF-8" standalone="no"?>
<!DOCTYPE svg PUBLIC "-//W3C//DTD SVG 1.1//EN"
 "http://www.w3.org/Graphics/SVG/1.1/DTD/svg11.dtd">
<!-- Generated by graphviz version 13.1.2 (20250808.2320)
 -->
<!-- Title: kest_expression_evaluate_rec Pages: 1 -->
<!--zoomable 284 -->

<svg id="main" version="1.1" xmlns="http://www.w3.org/2000/svg" xmlns:xlink="http://www.w3.org/1999/xlink" xml:space="preserve" onload="init(evt)">

<style type="text/css"><![CDATA[
.node, .edge {opacity: 0.7;}
.node.selected, .edge.selected {opacity: 1;}
.edge:hover path { stroke: red; }
.edge:hover polygon { stroke: red; fill: red; }
]]></style>

<defs>
  <circle id="rim" cx="0" cy="0" r="7"/>
  <circle id="rim2" cx="0" cy="0" r="3.5"/>
  <g id="zoomPlus">
    <use xlink:href="#rim" fill="#404040"><set attributeName="fill" to="#808080" begin="zoomplus.mouseover" end="zoomplus.mouseout"/></use>
    <path d="M-4,0h8M0,-4v8" fill="none" stroke="white" stroke-width="1.5" pointer-events="none"/>
  </g>
  <g id="zoomMin">
    <use xlink:href="#rim" fill="#404040"><set attributeName="fill" to="#808080" begin="zoomminus.mouseover" end="zoomminus.mouseout"/></use>
    <path d="M-4,0h8" fill="none" stroke="white" stroke-width="1.5" pointer-events="none"/>
  </g>
  <g id="arrowUp" transform="translate(30 24)">
    <use xlink:href="#rim"/>
    <path pointer-events="none" fill="none" stroke="white" stroke-width="1.5" d="M0,-3.0v7 M-2.5,-0.5L0,-3.0L2.5,-0.5"/>
  </g>
  <g id="arrowRight" transform="rotate(90) translate(36 -43)">
    <use xlink:href="#rim"/>
    <path pointer-events="none" fill="none" stroke="white" stroke-width="1.5" d="M0,-3.0v7 M-2.5,-0.5L0,-3.0L2.5,-0.5"/>
  </g>
  <g id="arrowDown" transform="rotate(180) translate(-30 -48)">
    <use xlink:href="#rim"/>
    <path pointer-events="none" fill="none" stroke="white" stroke-width="1.5" d="M0,-3.0v7 M-2.5,-0.5L0,-3.0L2.5,-0.5"/>
  </g>
  <g id="arrowLeft" transform="rotate(270) translate(-36 17)">
    <use xlink:href="#rim"/>
    <path pointer-events="none" fill="none" stroke="white" stroke-width="1.5" d="M0,-3.0v7 M-2.5,-0.5L0,-3.0L2.5,-0.5"/>
  </g>
  <g id="resetDef">
    <use xlink:href="#rim2" fill="#404040"><set attributeName="fill" to="#808080" begin="reset.mouseover" end="reset.mouseout"/></use>
  </g>
</defs>
<script type="application/ecmascript">
var viewWidth = 1210;
var viewHeight = 284;
var sectionId = 'dynsection-64';
</script>
<script type="application/ecmascript" xlink:href="svg.min.js"/>
<svg id="graph" class="graph">
<g id="viewport">
<title>kest_expression_evaluate_rec</title>
<!-- Node1 -->
<g id="Node000001" class="node">
<title>Node1</title>
<g id="a_Node000001"><a xlink:title=" ">
<polygon fill="#999999" stroke="#666666" points="163,-134.75 0,-134.75 0,-114 163,-114 163,-134.75"/>
<text xml:space="preserve" text-anchor="middle" x="81.5" y="-121.25" font-family="Helvetica,sans-Serif" font-size="10.00">kest_expression_evaluate_rec</text>
</a>
</g>
</g>
<!-- Node1&#45;&gt;Node1 -->
<g id="edge2_Node000001_Node000001" class="edge">
<title>Node1&#45;&gt;Node1</title>
<g id="a_edge2_Node000001_Node000001"><a xlink:title=" ">
<path fill="none" stroke="#63b8ff" d="M50.7,-135.15C38.38,-143.81 48.65,-152.75 81.5,-152.75 99.46,-152.75 110.67,-150.08 115.13,-146.24"/>
<polygon fill="#63b8ff" stroke="#63b8ff" points="118.54,-145.44 112.67,-136.61 111.76,-147.17 118.54,-145.44"/>
</a>
</g>
</g>
<!-- Node2 -->
<g id="Node000002" class="node">
<title>Node2</title>
<g id="a_Node000002"><a xlink:href="kest__error__codes_8c.html#a0f4c77127bc0b77264a21104979c576a" target="_top" xlink:title=" ">
<polygon fill="white" stroke="#666666" points="846.5,-236.12 738.25,-236.12 738.25,-202.62 846.5,-202.62 846.5,-236.12"/>
<text xml:space="preserve" text-anchor="start" x="746.25" y="-222.62" font-family="Helvetica,sans-Serif" font-size="10.00">kest_error_code_to</text>
<text xml:space="preserve" text-anchor="middle" x="792.38" y="-209.88" font-family="Helvetica,sans-Serif" font-size="10.00">_string</text>
</a>
</g>
</g>
<!-- Node1&#45;&gt;Node2 -->
<g id="edge1_Node000001_Node000002" class="edge">
<title>Node1&#45;&gt;Node2</title>
<g id="a_edge1_Node000001_Node000002"><a xlink:title=" ">
<path fill="none" stroke="#63b8ff" d="M115.35,-135.22C138.67,-142.89 170.72,-153.37 199,-162.38 280.27,-188.27 297.92,-206.56 382.25,-219.38 502.97,-237.72 646.06,-231.42 727.03,-225.31"/>
<polygon fill="#63b8ff" stroke="#63b8ff" points="726.82,-228.84 736.52,-224.57 726.28,-221.86 726.82,-228.84"/>
</a>
</g>
</g>
<!-- Node3 -->
<g id="Node000003" class="node">
<title>Node3</title>
<g id="a_Node000003"><a xlink:href="kest__expression_8c.html#aadf2a6a074cb1ad7b45893704cbd71c3" target="_top" xlink:title=" ">
<polygon fill="white" stroke="#666666" points="847.25,-103.12 737.5,-103.12 737.5,-69.62 847.25,-69.62 847.25,-103.12"/>
<text xml:space="preserve" text-anchor="start" x="745.5" y="-89.62" font-family="Helvetica,sans-Serif" font-size="10.00">kest_expression_to</text>
<text xml:space="preserve" text-anchor="middle" x="792.38" y="-76.88" font-family="Helvetica,sans-Serif" font-size="10.00">_string</text>
</a>
</g>
</g>
<!-- Node1&#45;&gt;Node3 -->
<g id="edge3_Node000001_Node000003" class="edge">
<title>Node1&#45;&gt;Node3</title>
<g id="a_edge3_Node000001_Node000003"><a xlink:title=" ">
<path fill="none" stroke="#63b8ff" d="M143.74,-113.51C161.53,-110.59 181,-107.62 199,-105.38 420.82,-77.64 477.98,-79.65 701.5,-83.38 709.35,-83.51 717.59,-83.7 725.75,-83.93"/>
<polygon fill="#63b8ff" stroke="#63b8ff" points="725.59,-87.43 735.69,-84.23 725.8,-80.43 725.59,-87.43"/>
</a>
</g>
</g>
<!-- Node8 -->
<g id="Node000008" class="node">
<title>Node8</title>
<g id="a_Node000008"><a xlink:href="kest__expression_8c.html#a05276e5a18cc3b52dfc8a17bb101c832" target="_top" xlink:title=" ">
<polygon fill="white" stroke="#666666" points="1175.88,-183.75 1087.88,-183.75 1087.88,-163 1175.88,-163 1175.88,-183.75"/>
<text xml:space="preserve" text-anchor="middle" x="1131.88" y="-170.25" font-family="Helvetica,sans-Serif" font-size="10.00">max_depth_bp</text>
</a>
</g>
</g>
<!-- Node1&#45;&gt;Node8 -->
<g id="edge23_Node000001_Node000008" class="edge">
<title>Node1&#45;&gt;Node8</title>
<g id="a_edge23_Node000001_Node000008"><a xlink:title=" ">
<path fill="none" stroke="#63b8ff" d="M95.68,-135.07C116.48,-151.45 158.69,-182.84 199,-201.38 309.28,-252.1 340.24,-276.38 461.62,-276.38 461.62,-276.38 461.62,-276.38 793.38,-276.38 911.31,-276.38 1042.74,-218.12 1100.66,-189.24"/>
<polygon fill="#63b8ff" stroke="#63b8ff" points="1101.91,-192.53 1109.25,-184.89 1098.75,-186.28 1101.91,-192.53"/>
</a>
</g>
</g>
<!-- Node9 -->
<g id="Node000009" class="node">
<title>Node9</title>
<g id="a_Node000009"><a xlink:href="kest__expr__scope_8c.html#ab4b2ce40beae39f7dc02743730a37ec7" target="_top" xlink:title=" ">
<polygon fill="white" stroke="#666666" points="346.25,-134.75 199,-134.75 199,-114 346.25,-114 346.25,-134.75"/>
<text xml:space="preserve" text-anchor="middle" x="272.62" y="-121.25" font-family="Helvetica,sans-Serif" font-size="10.00">kest_scope_entry_eval_rec</text>
</a>
</g>
</g>
<!-- Node1&#45;&gt;Node9 -->
<g id="edge11_Node000001_Node000009" class="edge">
<title>Node1&#45;&gt;Node9</title>
<g id="a_edge11_Node000001_Node000009"><a xlink:title=" ">
<path fill="none" stroke="#63b8ff" d="M163.25,-117.69C171.24,-117.61 179.36,-117.6 187.37,-117.66"/>
<polygon fill="#63b8ff" stroke="#63b8ff" points="187.07,-121.16 197.11,-117.77 187.14,-114.16 187.07,-121.16"/>
</a>
</g>
</g>
<!-- Node17 -->
<g id="Node000017" class="node">
<title>Node17</title>
<g id="a_Node000017"><a xlink:href="kest__expr__scope_8c.html#a8a0fbd22e0deccdaee632b2a95d4aee5" target="_top" xlink:title=" ">
<polygon fill="white" stroke="#666666" points="322.62,-20.75 222.62,-20.75 222.62,0 322.62,0 322.62,-20.75"/>
<text xml:space="preserve" text-anchor="middle" x="272.62" y="-7.25" font-family="Helvetica,sans-Serif" font-size="10.00">kest_scope_fetch</text>
</a>
</g>
</g>
<!-- Node1&#45;&gt;Node17 -->
<g id="edge22_Node000001_Node000017" class="edge">
<title>Node1&#45;&gt;Node17</title>
<g id="a_edge22_Node000001_Node000017"><a xlink:title=" ">
<path fill="none" stroke="#63b8ff" d="M93.5,-113.77C113.17,-95.3 156.34,-57.04 199,-34.38 205.54,-30.9 212.68,-27.8 219.84,-25.07"/>
<polygon fill="#63b8ff" stroke="#63b8ff" points="220.99,-28.38 229.24,-21.74 218.64,-21.79 220.99,-28.38"/>
</a>
</g>
</g>
<!-- Node4 -->
<g id="Node000004" class="node">
<title>Node4</title>
<g id="a_Node000004"><a xlink:href="kest__expression_8c.html#a767b50b7ddfa94dc61810dfdcc8feaf0" target="_top" xlink:title=" ">
<polygon fill="white" stroke="#666666" points="1026,-96.75 883.25,-96.75 883.25,-76 1026,-76 1026,-96.75"/>
<text xml:space="preserve" text-anchor="middle" x="954.62" y="-83.25" font-family="Helvetica,sans-Serif" font-size="10.00">kest_expression_print_rec</text>
</a>
</g>
</g>
<!-- Node3&#45;&gt;Node4 -->
<g id="edge4_Node000003_Node000004" class="edge">
<title>Node3&#45;&gt;Node4</title>
<g id="a_edge4_Node000003_Node000004"><a xlink:title=" ">
<path fill="none" stroke="#63b8ff" d="M847.63,-79.95C855.34,-79.75 863.42,-79.64 871.52,-79.63"/>
<polygon fill="#63b8ff" stroke="#63b8ff" points="871.42,-83.13 881.44,-79.66 871.45,-76.13 871.42,-83.13"/>
</a>
</g>
</g>
<!-- Node4&#45;&gt;Node3 -->
<g id="edge9_Node000004_Node000003" class="edge">
<title>Node4&#45;&gt;Node3</title>
<g id="a_edge9_Node000004_Node000003"><a xlink:title=" ">
<path fill="none" stroke="#63b8ff" d="M882.95,-93.08C874.99,-93.15 866.91,-93.13 859.01,-93.03"/>
<polygon fill="#63b8ff" stroke="#63b8ff" points="859.21,-89.53 849.14,-92.83 859.07,-96.53 859.21,-89.53"/>
</a>
</g>
</g>
<!-- Node4&#45;&gt;Node4 -->
<g id="edge8_Node000004_Node000004" class="edge">
<title>Node4&#45;&gt;Node4</title>
<g id="a_edge8_Node000004_Node000004"><a xlink:title=" ">
<path fill="none" stroke="#63b8ff" d="M928.48,-97.15C918.02,-105.81 926.74,-114.75 954.62,-114.75 969.88,-114.75 979.39,-112.08 983.18,-108.24"/>
<polygon fill="#63b8ff" stroke="#63b8ff" points="986.63,-107.66 981.09,-98.63 979.79,-109.14 986.63,-107.66"/>
</a>
</g>
</g>
<!-- Node5 -->
<g id="Node000005" class="node">
<title>Node5</title>
<g id="a_Node000005"><a xlink:href="kest__expression_8c.html#a2f21e4932bce8c87ec0bfc508588b761" target="_top" xlink:title=" ">
<polygon fill="white" stroke="#666666" points="1193.5,-41.75 1070.25,-41.75 1070.25,-21 1193.5,-21 1193.5,-41.75"/>
<text xml:space="preserve" text-anchor="middle" x="1131.88" y="-28.25" font-family="Helvetica,sans-Serif" font-size="10.00">kest_expression_form</text>
</a>
</g>
</g>
<!-- Node4&#45;&gt;Node5 -->
<g id="edge5_Node000004_Node000005" class="edge">
<title>Node4&#45;&gt;Node5</title>
<g id="a_edge5_Node000004_Node000005"><a xlink:title=" ">
<path fill="none" stroke="#63b8ff" d="M986.2,-75.51C1007.38,-68.11 1036.28,-58.27 1062,-50.38 1067.49,-48.69 1073.25,-46.99 1079,-45.34"/>
<polygon fill="#63b8ff" stroke="#63b8ff" points="1079.84,-48.74 1088.52,-42.66 1077.94,-42 1079.84,-48.74"/>
</a>
</g>
</g>
<!-- Node6 -->
<g id="Node000006" class="node">
<title>Node6</title>
<g id="a_Node000006"><a xlink:href="kest__expression_8c.html#a81b490a2837a170e18e8cdae730d0d9b" target="_top" xlink:title=" ">
<polygon fill="white" stroke="#666666" points="1201.75,-145.12 1062,-145.12 1062,-111.62 1201.75,-111.62 1201.75,-145.12"/>
<text xml:space="preserve" text-anchor="start" x="1070" y="-131.62" font-family="Helvetica,sans-Serif" font-size="10.00">kest_expression_function</text>
<text xml:space="preserve" text-anchor="middle" x="1131.88" y="-118.88" font-family="Helvetica,sans-Serif" font-size="10.00">_string</text>
</a>
</g>
</g>
<!-- Node4&#45;&gt;Node6 -->
<g id="edge6_Node000004_Node000006" class="edge">
<title>Node4&#45;&gt;Node6</title>
<g id="a_edge6_Node000004_Node000006"><a xlink:title=" ">
<path fill="none" stroke="#63b8ff" d="M1000.76,-97.19C1015.98,-100.84 1033.46,-105.03 1050.57,-109.13"/>
<polygon fill="#63b8ff" stroke="#63b8ff" points="1049.72,-112.52 1060.26,-111.45 1051.35,-105.72 1049.72,-112.52"/>
</a>
</g>
</g>
<!-- Node7 -->
<g id="Node000007" class="node">
<title>Node7</title>
<g id="a_Node000007"><a xlink:href="kest__expression_8c.html#a1a3a0bc9ed6726fb24e6a40803741b43" target="_top" xlink:title=" ">
<polygon fill="white" stroke="#666666" points="1192.75,-93.12 1071,-93.12 1071,-59.62 1192.75,-59.62 1192.75,-93.12"/>
<text xml:space="preserve" text-anchor="start" x="1079" y="-79.62" font-family="Helvetica,sans-Serif" font-size="10.00">kest_expression_infix</text>
<text xml:space="preserve" text-anchor="middle" x="1131.88" y="-66.88" font-family="Helvetica,sans-Serif" font-size="10.00">_operator_string</text>
</a>
</g>
</g>
<!-- Node4&#45;&gt;Node7 -->
<g id="edge7_Node000004_Node000007" class="edge">
<title>Node4&#45;&gt;Node7</title>
<g id="a_edge7_Node000004_Node000007"><a xlink:title=" ">
<path fill="none" stroke="#63b8ff" d="M1026.4,-82.34C1037.26,-81.72 1048.48,-81.08 1059.35,-80.46"/>
<polygon fill="#63b8ff" stroke="#63b8ff" points="1059.23,-83.97 1069.02,-79.9 1058.83,-76.98 1059.23,-83.97"/>
</a>
</g>
</g>
<!-- Node4&#45;&gt;Node8 -->
<g id="edge10_Node000004_Node000008" class="edge">
<title>Node4&#45;&gt;Node8</title>
<g id="a_edge10_Node000004_Node000008"><a xlink:title=" ">
<path fill="none" stroke="#63b8ff" d="M969.31,-97.05C988.85,-111.83 1026.36,-138.5 1062,-154.38 1066.78,-156.5 1071.85,-158.44 1076.99,-160.2"/>
<polygon fill="#63b8ff" stroke="#63b8ff" points="1075.53,-163.41 1086.12,-163.1 1077.65,-156.74 1075.53,-163.41"/>
</a>
</g>
</g>
<!-- Node9&#45;&gt;Node1 -->
<g id="edge12_Node000009_Node000001" class="edge">
<title>Node9&#45;&gt;Node1</title>
<g id="a_edge12_Node000009_Node000001"><a xlink:title=" ">
<path fill="none" stroke="#63b8ff" d="M198.62,-130.97C190.75,-131.08 182.67,-131.14 174.61,-131.12"/>
<polygon fill="#63b8ff" stroke="#63b8ff" points="174.79,-127.62 164.77,-131.07 174.75,-134.62 174.79,-127.62"/>
</a>
</g>
</g>
<!-- Node9&#45;&gt;Node3 -->
<g id="edge13_Node000009_Node000003" class="edge">
<title>Node9&#45;&gt;Node3</title>
<g id="a_edge13_Node000009_Node000003"><a xlink:title=" ">
<path fill="none" stroke="#63b8ff" d="M327.58,-113.55C344.97,-110.43 364.36,-107.35 382.25,-105.38 503,-92.06 644.8,-88.06 725.77,-86.87"/>
<polygon fill="#63b8ff" stroke="#63b8ff" points="725.8,-90.37 735.75,-86.73 725.71,-83.37 725.8,-90.37"/>
</a>
</g>
</g>
<!-- Node10 -->
<g id="Node000010" class="node">
<title>Node10</title>
<g id="a_Node000010"><a xlink:href="kest__resource_8c.html#a4607df4fd224fe134f30443caecf4713" target="_top" xlink:title=" ">
<polygon fill="white" stroke="#666666" points="513.75,-134.75 411.5,-134.75 411.5,-114 513.75,-114 513.75,-134.75"/>
<text xml:space="preserve" text-anchor="middle" x="462.62" y="-121.25" font-family="Helvetica,sans-Serif" font-size="10.00">kest_lfo_evaluate</text>
</a>
</g>
</g>
<!-- Node9&#45;&gt;Node10 -->
<g id="edge14_Node000009_Node000010" class="edge">
<title>Node9&#45;&gt;Node10</title>
<g id="a_edge14_Node000009_Node000010"><a xlink:title=" ">
<path fill="none" stroke="#63b8ff" d="M346.58,-124.38C364.11,-124.38 382.66,-124.38 399.64,-124.38"/>
<polygon fill="#63b8ff" stroke="#63b8ff" points="399.59,-127.88 409.59,-124.38 399.59,-120.88 399.59,-127.88"/>
</a>
</g>
</g>
<!-- Node13 -->
<g id="Node000013" class="node">
<title>Node13</title>
<g id="a_Node000013"><a xlink:href="kest__parameter_8c.html#a15e6143699061c919fa9882de5b5b7f7" target="_top" xlink:title=" ">
<polygon fill="white" stroke="#666666" points="543,-210.75 382.25,-210.75 382.25,-190 543,-190 543,-210.75"/>
<text xml:space="preserve" text-anchor="middle" x="462.62" y="-197.25" font-family="Helvetica,sans-Serif" font-size="10.00">kest_parameter_evaluate_rec</text>
</a>
</g>
</g>
<!-- Node9&#45;&gt;Node13 -->
<g id="edge18_Node000009_Node000013" class="edge">
<title>Node9&#45;&gt;Node13</title>
<g id="a_edge18_Node000009_Node000013"><a xlink:title=" ">
<path fill="none" stroke="#63b8ff" d="M300.16,-135.1C332.68,-148.25 387.97,-170.6 424.64,-185.42"/>
<polygon fill="#63b8ff" stroke="#63b8ff" points="422.93,-188.51 433.52,-189.01 425.56,-182.02 422.93,-188.51"/>
</a>
</g>
</g>
<!-- Node11 -->
<g id="Node000011" class="node">
<title>Node11</title>
<g id="a_Node000011"><a xlink:href="kest__resource_8c.html#a6573beecd274698a739bcf5ed8444971" target="_top" xlink:title=" ">
<polygon fill="#fff0f0" stroke="red" points="701.5,-134.75 579,-134.75 579,-114 701.5,-114 701.5,-134.75"/>
<text xml:space="preserve" text-anchor="middle" x="640.25" y="-121.25" font-family="Helvetica,sans-Serif" font-size="10.00">kest_lfo_evaluate_rec</text>
</a>
</g>
</g>
<!-- Node10&#45;&gt;Node11 -->
<g id="edge15_Node000010_Node000011" class="edge">
<title>Node10&#45;&gt;Node11</title>
<g id="a_edge15_Node000010_Node000011"><a xlink:title=" ">
<path fill="none" stroke="#63b8ff" d="M513.95,-124.38C530.58,-124.38 549.41,-124.38 567.33,-124.38"/>
<polygon fill="#63b8ff" stroke="#63b8ff" points="567.12,-127.88 577.12,-124.38 567.12,-120.88 567.12,-127.88"/>
</a>
</g>
</g>
<!-- Node11&#45;&gt;Node1 -->
<g id="edge16_Node000011_Node000001" class="edge">
<title>Node11&#45;&gt;Node1</title>
<g id="a_edge16_Node000011_Node000001"><a xlink:title=" ">
<path fill="none" stroke="#63b8ff" d="M593.99,-135.2C577.98,-138.52 559.78,-141.73 543,-143.38 390.84,-158.25 351.39,-155.72 199,-143.38 182.57,-142.04 164.96,-139.67 148.54,-137.05"/>
<polygon fill="#63b8ff" stroke="#63b8ff" points="149.32,-133.63 138.88,-135.45 148.18,-140.54 149.32,-133.63"/>
</a>
</g>
</g>
<!-- Node11&#45;&gt;Node3 -->
<g id="edge17_Node000011_Node000003" class="edge">
<title>Node11&#45;&gt;Node3</title>
<g id="a_edge17_Node000011_Node000003"><a xlink:title=" ">
<path fill="none" stroke="#63b8ff" d="M683.87,-113.59C697.06,-110.25 711.91,-106.49 726.27,-102.86"/>
<polygon fill="#63b8ff" stroke="#63b8ff" points="726.81,-106.33 735.65,-100.48 725.09,-99.54 726.81,-106.33"/>
</a>
</g>
</g>
<!-- Node13&#45;&gt;Node8 -->
<g id="edge21_Node000013_Node000008" class="edge">
<title>Node13&#45;&gt;Node8</title>
<g id="a_edge21_Node000013_Node000008"><a xlink:title=" ">
<path fill="none" stroke="#63b8ff" d="M519.16,-189.51C538.07,-186.27 559.39,-183.12 579,-181.38 760.55,-165.2 977,-168.65 1076.25,-171.48"/>
<polygon fill="#63b8ff" stroke="#63b8ff" points="1075.86,-174.97 1085.96,-171.77 1076.07,-167.98 1075.86,-174.97"/>
</a>
</g>
</g>
<!-- Node14 -->
<g id="Node000014" class="node">
<title>Node14</title>
<g id="a_Node000014"><a xlink:href="kest__driver_8c.html#ad7d539e70589854e314a464d5dfddcb5" target="_top" xlink:title=" ">
<polygon fill="#fff0f0" stroke="red" points="699.25,-210.75 581.25,-210.75 581.25,-190 699.25,-190 699.25,-210.75"/>
<text xml:space="preserve" text-anchor="middle" x="640.25" y="-197.25" font-family="Helvetica,sans-Serif" font-size="10.00">kest_driver_evaluate</text>
</a>
</g>
</g>
<!-- Node13&#45;&gt;Node14 -->
<g id="edge19_Node000013_Node000014" class="edge">
<title>Node13&#45;&gt;Node14</title>
<g id="a_edge19_Node000013_Node000014"><a xlink:title=" ">
<path fill="none" stroke="#63b8ff" d="M543.47,-200.38C552.13,-200.38 560.89,-200.38 569.42,-200.38"/>
<polygon fill="#63b8ff" stroke="#63b8ff" points="569.36,-203.88 579.36,-200.38 569.36,-196.88 569.36,-203.88"/>
</a>
</g>
</g>
<!-- Node14&#45;&gt;Node2 -->
<g id="edge20_Node000014_Node000002" class="edge">
<title>Node14&#45;&gt;Node2</title>
<g id="a_edge20_Node000014_Node000002"><a xlink:title=" ">
<path fill="none" stroke="#63b8ff" d="M699.72,-207.78C708.64,-208.9 717.88,-210.07 726.91,-211.22"/>
<polygon fill="#63b8ff" stroke="#63b8ff" points="726.34,-214.67 736.7,-212.46 727.22,-207.73 726.34,-214.67"/>
</a>
</g>
</g>
</g>
</svg>

<g id="navigator" transform="translate(0 0)" fill="#404254">
  <rect fill="#f2f5e9" fill-opacity="0.5" stroke="#606060" stroke-width=".5" x="0" y="0" width="60" height="60"/>
  <use id="zoomplus" xlink:href="#zoomPlus" x="17" y="9" onmousedown="handleZoom(evt,'in')"/>
  <use id="zoomminus" xlink:href="#zoomMin" x="42" y="9" onmousedown="handleZoom(evt,'out')"/>
  <use id="reset" xlink:href="#resetDef" x="30" y="36" onmousedown="handleReset()"/>
   <use id="arrowup" xlink:href="#arrowUp" x="0" y="0" onmousedown="handlePan(0,-1)"/>
  <use id="arrowright" xlink:href="#arrowRight" x="0" y="0" onmousedown="handlePan(1,0)"/>
  <use id="arrowdown" xlink:href="#arrowDown" x="0" y="0" onmousedown="handlePan(0,1)"/>
  <use id="arrowleft" xlink:href="#arrowLeft" x="0" y="0" onmousedown="handlePan(-1,0)"/>
</g>
<svg viewBox="0 0 15 15" width="100%" height="30px" preserveAspectRatio="xMaxYMin meet">
 <g id="arrow_out" transform="scale(0.3 0.3)">
  <a xlink:href="kest__expression_8c_aa4b7d57f1458bb40fc2d8fdab7c605fc_cgraph_org.svg" target="_base">
   <rect id="button" ry="5" rx="5" y="6" x="6" height="38" width="38"
        fill="#f2f5e9" fill-opacity="0.5" stroke="#606060" stroke-width="1.0"/>
   <path id="arrow"
     d="M 11.500037,31.436501 C 11.940474,20.09759 22.043105,11.32322 32.158766,21.979434 L 37.068811,17.246167 C 37.068811,17.246167 37.088388,32 37.088388,32 L 22.160133,31.978069 C 22.160133,31.978069 26.997745,27.140456 26.997745,27.140456 C 18.528582,18.264221 13.291696,25.230495 11.500037,31.436501 z"
     style="fill:#404040;"/>
  </a>
 </g>
</svg>

<style type='text/css'>
<![CDATA[
[data-mouse-over-selected='false'] { opacity: 0.7; }
[data-mouse-over-selected='true']  { opacity: 1.0; }
]]>
</style>
<script type="application/ecmascript"><![CDATA[
document.addEventListener('DOMContentLoaded', (event) => {
  highlightEdges();
  highlightAdjacentNodes();
});
]]></script>
</svg>
