<?xml version="1.0" encoding="UTF-8" standalone="no"?>
<!DOCTYPE svg PUBLIC "-//W3C//DTD SVG 1.1//EN"
 "http://www.w3.org/Graphics/SVG/1.1/DTD/svg11.dtd">
<!-- Generated by graphviz version 13.1.2 (20250808.2320)
 -->
<!-- Title: kest_settings_section_extract Pages: 1 -->
<svg width="688pt" height="325pt"
 viewBox="0.00 0.00 688.00 325.00" xmlns="http://www.w3.org/2000/svg" xmlns:xlink="http://www.w3.org/1999/xlink">
<g id="graph0" class="graph" transform="scale(1 1) rotate(0) translate(4 321.12)">
<title>kest_settings_section_extract</title>
<!-- Node1 -->
<g id="Node000001" class="node">
<title>Node1</title>
<g id="a_Node000001"><a xlink:title=" ">
<polygon fill="#999999" stroke="#666666" points="121,-191.12 0,-191.12 0,-157.62 121,-157.62 121,-191.12"/>
<text xml:space="preserve" text-anchor="start" x="8" y="-177.62" font-family="Helvetica,sans-Serif" font-size="10.00">kest_settings_section</text>
<text xml:space="preserve" text-anchor="middle" x="60.5" y="-164.88" font-family="Helvetica,sans-Serif" font-size="10.00">_extract</text>
</a>
</g>
</g>
<!-- Node2 -->
<g id="Node000002" class="node">
<title>Node2</title>
<g id="a_Node000002"><a xlink:href="kest__dictionary_8c.html#ac279369f5a4c3b4a0bc0625041f410f2" target="_top" xlink:title=" ">
<polygon fill="white" stroke="#666666" points="463.88,-317.12 354.88,-317.12 354.88,-283.62 463.88,-283.62 463.88,-317.12"/>
<text xml:space="preserve" text-anchor="start" x="362.88" y="-303.62" font-family="Helvetica,sans-Serif" font-size="10.00">kest_eff_entry_dict</text>
<text xml:space="preserve" text-anchor="middle" x="409.38" y="-290.88" font-family="Helvetica,sans-Serif" font-size="10.00">_count</text>
</a>
</g>
</g>
<!-- Node1&#45;&gt;Node2 -->
<g id="edge1_Node000001_Node000002" class="edge">
<title>Node1&#45;&gt;Node2</title>
<g id="a_edge1_Node000001_Node000002"><a xlink:title=" ">
<path fill="none" stroke="#63b8ff" d="M90.5,-191.39C109.08,-201.83 133.96,-214.96 157,-224.38 218.73,-249.6 291.98,-270.81 343.44,-284.36"/>
<polygon fill="#63b8ff" stroke="#63b8ff" points="342.37,-287.7 352.93,-286.84 344.14,-280.93 342.37,-287.7"/>
</a>
</g>
</g>
<!-- Node3 -->
<g id="Node000003" class="node">
<title>Node3</title>
<g id="a_Node000003"><a xlink:href="kest__dictionary_8c.html#a25171775543290a8e7a5ef33d3b9c3d3" target="_top" xlink:title=" ">
<polygon fill="white" stroke="#666666" points="463.88,-265.12 354.88,-265.12 354.88,-231.62 463.88,-231.62 463.88,-265.12"/>
<text xml:space="preserve" text-anchor="start" x="362.88" y="-251.62" font-family="Helvetica,sans-Serif" font-size="10.00">kest_eff_entry_dict</text>
<text xml:space="preserve" text-anchor="middle" x="409.38" y="-238.88" font-family="Helvetica,sans-Serif" font-size="10.00">_index</text>
</a>
</g>
</g>
<!-- Node1&#45;&gt;Node3 -->
<g id="edge2_Node000001_Node000003" class="edge">
<title>Node1&#45;&gt;Node3</title>
<g id="a_edge2_Node000001_Node000003"><a xlink:title=" ">
<path fill="none" stroke="#63b8ff" d="M121.13,-187.1C183.08,-200.31 279.7,-220.92 343.52,-234.54"/>
<polygon fill="#63b8ff" stroke="#63b8ff" points="342.65,-237.93 353.16,-236.6 344.11,-231.09 342.65,-237.93"/>
</a>
</g>
</g>
<!-- Node4 -->
<g id="Node000004" class="node">
<title>Node4</title>
<g id="a_Node000004"><a xlink:href="kest__dictionary_8c.html#a833b9c5bd55ab0c0731d51c3b5bbf064" target="_top" xlink:title=" ">
<polygon fill="white" stroke="#666666" points="284,-146.12 175,-146.12 175,-112.62 284,-112.62 284,-146.12"/>
<text xml:space="preserve" text-anchor="start" x="183" y="-132.62" font-family="Helvetica,sans-Serif" font-size="10.00">kest_eff_entry_dict</text>
<text xml:space="preserve" text-anchor="middle" x="229.5" y="-119.88" font-family="Helvetica,sans-Serif" font-size="10.00">_index_key</text>
</a>
</g>
</g>
<!-- Node1&#45;&gt;Node4 -->
<g id="edge3_Node000001_Node000004" class="edge">
<title>Node1&#45;&gt;Node4</title>
<g id="a_edge3_Node000001_Node000004"><a xlink:title=" ">
<path fill="none" stroke="#63b8ff" d="M121.32,-158.26C135.06,-154.55 149.72,-150.6 163.66,-146.85"/>
<polygon fill="#63b8ff" stroke="#63b8ff" points="164.44,-150.26 173.19,-144.28 162.62,-143.5 164.44,-150.26"/>
</a>
</g>
</g>
<!-- Node5 -->
<g id="Node000005" class="node">
<title>Node5</title>
<g id="a_Node000005"><a xlink:href="kest__dict__extract_8c.html#a257515513f657f6132b3b0e9a86c537c" target="_top" xlink:title=" ">
<polygon fill="white" stroke="#666666" points="287,-184.75 172,-184.75 172,-164 287,-164 287,-184.75"/>
<text xml:space="preserve" text-anchor="middle" x="229.5" y="-171.25" font-family="Helvetica,sans-Serif" font-size="10.00">kest_extract_setting</text>
</a>
</g>
</g>
<!-- Node1&#45;&gt;Node5 -->
<g id="edge4_Node000001_Node000005" class="edge">
<title>Node1&#45;&gt;Node5</title>
<g id="a_edge4_Node000001_Node000005"><a xlink:title=" ">
<path fill="none" stroke="#63b8ff" d="M121.32,-174.38C133.99,-174.38 147.45,-174.38 160.4,-174.38"/>
<polygon fill="#63b8ff" stroke="#63b8ff" points="160.1,-177.88 170.1,-174.38 160.1,-170.88 160.1,-177.88"/>
</a>
</g>
</g>
<!-- Node32 -->
<g id="Node000032" class="node">
<title>Node32</title>
<g id="a_Node000032"><a xlink:href="kest__eff__parser_8c.html#a9c89af02214b349048ed0f85274af710" target="_top" xlink:title=" ">
<polygon fill="white" stroke="#666666" points="302,-94.75 157,-94.75 157,-74 302,-74 302,-94.75"/>
<text xml:space="preserve" text-anchor="middle" x="229.5" y="-81.25" font-family="Helvetica,sans-Serif" font-size="10.00">kest_parser_error_at_node</text>
</a>
</g>
</g>
<!-- Node1&#45;&gt;Node32 -->
<g id="edge17_Node000001_Node000032" class="edge">
<title>Node1&#45;&gt;Node32</title>
<g id="a_edge17_Node000001_Node000032"><a xlink:title=" ">
<path fill="none" stroke="#63b8ff" d="M79.85,-157.36C98.11,-141.28 127.6,-117.56 157,-103.38 160.3,-101.78 163.75,-100.31 167.27,-98.95"/>
<polygon fill="#63b8ff" stroke="#63b8ff" points="168.29,-102.3 176.58,-95.7 165.98,-95.69 168.29,-102.3"/>
</a>
</g>
</g>
<!-- Node5&#45;&gt;Node2 -->
<g id="edge8_Node000005_Node000002" class="edge">
<title>Node5&#45;&gt;Node2</title>
<g id="a_edge8_Node000005_Node000002"><a xlink:title=" ">
<path fill="none" stroke="#63b8ff" d="M239.48,-185.19C256.69,-205.3 296.32,-248.73 338,-274.38 340.16,-275.71 342.41,-276.99 344.7,-278.21"/>
<polygon fill="#63b8ff" stroke="#63b8ff" points="343.16,-281.35 353.68,-282.6 346.23,-275.06 343.16,-281.35"/>
</a>
</g>
</g>
<!-- Node5&#45;&gt;Node3 -->
<g id="edge9_Node000005_Node000003" class="edge">
<title>Node5&#45;&gt;Node3</title>
<g id="a_edge9_Node000005_Node000003"><a xlink:title=" ">
<path fill="none" stroke="#63b8ff" d="M253.38,-185.12C275.01,-195.15 308.47,-210.34 338,-222.38 341.84,-223.94 345.82,-225.52 349.84,-227.09"/>
<polygon fill="#63b8ff" stroke="#63b8ff" points="348.51,-230.32 359.1,-230.63 351.01,-223.79 348.51,-230.32"/>
</a>
</g>
</g>
<!-- Node6 -->
<g id="Node000006" class="node">
<title>Node6</title>
<g id="a_Node000006"><a xlink:href="kest__parameter_8c.html#a7c270a293ab879d0d3e757625c7c7dda" target="_top" xlink:title=" ">
<polygon fill="white" stroke="#666666" points="453.75,-213.75 365,-213.75 365,-193 453.75,-193 453.75,-213.75"/>
<text xml:space="preserve" text-anchor="middle" x="409.38" y="-200.25" font-family="Helvetica,sans-Serif" font-size="10.00">init_setting_str</text>
</a>
</g>
</g>
<!-- Node5&#45;&gt;Node6 -->
<g id="edge5_Node000005_Node000006" class="edge">
<title>Node5&#45;&gt;Node6</title>
<g id="a_edge5_Node000005_Node000006"><a xlink:title=" ">
<path fill="none" stroke="#63b8ff" d="M287.27,-183.63C308.37,-187.07 332.27,-190.97 353.23,-194.38"/>
<polygon fill="#63b8ff" stroke="#63b8ff" points="352.6,-197.83 363.04,-195.98 353.73,-190.92 352.6,-197.83"/>
</a>
</g>
</g>
<!-- Node10 -->
<g id="Node000010" class="node">
<title>Node10</title>
<g id="a_Node000010"><a xlink:href="kest__alloc_8c.html#a849755c5dc5b35e712ffcdb602e50fb4" target="_top" xlink:title=" ">
<polygon fill="white" stroke="#666666" points="630.62,-162.75 565.88,-162.75 565.88,-142 630.62,-142 630.62,-162.75"/>
<text xml:space="preserve" text-anchor="middle" x="598.25" y="-149.25" font-family="Helvetica,sans-Serif" font-size="10.00">kest_alloc</text>
</a>
</g>
</g>
<!-- Node5&#45;&gt;Node10 -->
<g id="edge7_Node000005_Node000010" class="edge">
<title>Node5&#45;&gt;Node10</title>
<g id="a_edge7_Node000005_Node000010"><a xlink:title=" ">
<path fill="none" stroke="#63b8ff" d="M287.4,-170.96C361.24,-166.53 488.4,-158.9 554.52,-154.94"/>
<polygon fill="#63b8ff" stroke="#63b8ff" points="554.46,-158.45 564.24,-154.36 554.04,-151.46 554.46,-158.45"/>
</a>
</g>
</g>
<!-- Node11 -->
<g id="Node000011" class="node">
<title>Node11</title>
<g id="a_Node000011"><a xlink:href="kest__expression_8c.html#a8df028c238f29a5c5e59bcff98e28157" target="_top" xlink:title=" ">
<polygon fill="white" stroke="#666666" points="480.75,-98.75 338,-98.75 338,-78 480.75,-78 480.75,-98.75"/>
<text xml:space="preserve" text-anchor="middle" x="409.38" y="-85.25" font-family="Helvetica,sans-Serif" font-size="10.00">kest_expression_evaluate</text>
</a>
</g>
</g>
<!-- Node5&#45;&gt;Node11 -->
<g id="edge10_Node000005_Node000011" class="edge">
<title>Node5&#45;&gt;Node11</title>
<g id="a_edge10_Node000005_Node000011"><a xlink:title=" ">
<path fill="none" stroke="#63b8ff" d="M285.98,-163.62C291.63,-161.37 297.09,-158.65 302,-155.38 323.89,-140.77 316.24,-123.17 338,-108.38 340.39,-106.75 342.91,-105.26 345.52,-103.88"/>
<polygon fill="#63b8ff" stroke="#63b8ff" points="346.9,-107.1 354.56,-99.79 344.01,-100.73 346.9,-107.1"/>
</a>
</g>
</g>
<!-- Node29 -->
<g id="Node000029" class="node">
<title>Node29</title>
<g id="a_Node000029"><a xlink:href="kest__alloc_8c.html#a294af5728a94aa316fcf65304d388d48" target="_top" xlink:title=" ">
<polygon fill="white" stroke="#666666" points="439.88,-59.75 378.88,-59.75 378.88,-39 439.88,-39 439.88,-59.75"/>
<text xml:space="preserve" text-anchor="middle" x="409.38" y="-46.25" font-family="Helvetica,sans-Serif" font-size="10.00">kest_free</text>
</a>
</g>
</g>
<!-- Node5&#45;&gt;Node29 -->
<g id="edge13_Node000005_Node000029" class="edge">
<title>Node5&#45;&gt;Node29</title>
<g id="a_edge13_Node000005_Node000029"><a xlink:title=" ">
<path fill="none" stroke="#63b8ff" d="M287.27,-164.67C292.61,-162.22 297.64,-159.17 302,-155.38 333.23,-128.14 307,-96.87 338,-69.38 346.25,-62.06 357,-57.4 367.61,-54.44"/>
<polygon fill="#63b8ff" stroke="#63b8ff" points="368.06,-57.93 377.02,-52.28 366.49,-51.11 368.06,-57.93"/>
</a>
</g>
</g>
<!-- Node30 -->
<g id="Node000030" class="node">
<title>Node30</title>
<g id="a_Node000030"><a xlink:href="kest__eff__parser_8c.html#abf2c14dab3ed7e069ad5083b160b16da" target="_top" xlink:title=" ">
<polygon fill="white" stroke="#666666" points="459.75,-20.75 359,-20.75 359,0 459.75,0 459.75,-20.75"/>
<text xml:space="preserve" text-anchor="middle" x="409.38" y="-7.25" font-family="Helvetica,sans-Serif" font-size="10.00">kest_parser_error</text>
</a>
</g>
</g>
<!-- Node5&#45;&gt;Node30 -->
<g id="edge14_Node000005_Node000030" class="edge">
<title>Node5&#45;&gt;Node30</title>
<g id="a_edge14_Node000005_Node000030"><a xlink:title=" ">
<path fill="none" stroke="#63b8ff" d="M287.38,-165.34C292.77,-162.77 297.78,-159.51 302,-155.38 343.3,-114.92 297.05,-71.18 338,-30.38 341.15,-27.24 344.75,-24.58 348.63,-22.34"/>
<polygon fill="#63b8ff" stroke="#63b8ff" points="349.8,-25.66 357.35,-18.21 346.81,-19.33 349.8,-25.66"/>
</a>
</g>
</g>
<!-- Node31 -->
<g id="Node000031" class="node">
<title>Node31</title>
<g id="a_Node000031"><a xlink:href="kest__alloc_8c.html#aed9ede1276c1ab3b4042c264ce64a3d2" target="_top" xlink:title=" ">
<polygon fill="white" stroke="#666666" points="448.5,-137.75 370.25,-137.75 370.25,-117 448.5,-117 448.5,-137.75"/>
<text xml:space="preserve" text-anchor="middle" x="409.38" y="-124.25" font-family="Helvetica,sans-Serif" font-size="10.00">kest_strndup</text>
</a>
</g>
</g>
<!-- Node5&#45;&gt;Node31 -->
<g id="edge15_Node000005_Node000031" class="edge">
<title>Node5&#45;&gt;Node31</title>
<g id="a_edge15_Node000005_Node000031"><a xlink:title=" ">
<path fill="none" stroke="#63b8ff" d="M271.31,-163.59C297.36,-156.71 331.3,-147.74 358.89,-140.45"/>
<polygon fill="#63b8ff" stroke="#63b8ff" points="359.65,-143.87 368.43,-137.93 357.86,-137.1 359.65,-143.87"/>
</a>
</g>
</g>
<!-- Node7 -->
<g id="Node000007" class="node">
<title>Node7</title>
<g id="a_Node000007"><a xlink:href="kest__parameter_8c.html#a3c9f839cffc5f0a9b0630682ce8e9b9c" target="_top" xlink:title=" ">
<polygon fill="#fff0f0" stroke="red" points="652.75,-220.12 543.75,-220.12 543.75,-186.62 652.75,-186.62 652.75,-220.12"/>
<text xml:space="preserve" text-anchor="start" x="551.75" y="-206.62" font-family="Helvetica,sans-Serif" font-size="10.00">kest_setting_effect</text>
<text xml:space="preserve" text-anchor="middle" x="598.25" y="-193.88" font-family="Helvetica,sans-Serif" font-size="10.00">_rep_update</text>
</a>
</g>
</g>
<!-- Node6&#45;&gt;Node7 -->
<g id="edge6_Node000006_Node000007" class="edge">
<title>Node6&#45;&gt;Node7</title>
<g id="a_edge6_Node000006_Node000007"><a xlink:title=" ">
<path fill="none" stroke="#63b8ff" d="M454.19,-203.38C477.4,-203.38 506.37,-203.38 532.15,-203.38"/>
<polygon fill="#63b8ff" stroke="#63b8ff" points="531.85,-206.88 541.85,-203.38 531.85,-199.88 531.85,-206.88"/>
</a>
</g>
</g>
<!-- Node12 -->
<g id="Node000012" class="node">
<title>Node12</title>
<g id="a_Node000012"><a xlink:href="kest__expression_8c.html#aa4b7d57f1458bb40fc2d8fdab7c605fc" target="_top" xlink:title=" ">
<polygon fill="#fff0f0" stroke="red" points="679.75,-98.75 516.75,-98.75 516.75,-78 679.75,-78 679.75,-98.75"/>
<text xml:space="preserve" text-anchor="middle" x="598.25" y="-85.25" font-family="Helvetica,sans-Serif" font-size="10.00">kest_expression_evaluate_rec</text>
</a>
</g>
</g>
<!-- Node11&#45;&gt;Node12 -->
<g id="edge11_Node000011_Node000012" class="edge">
<title>Node11&#45;&gt;Node12</title>
<g id="a_edge11_Node000011_Node000012"><a xlink:title=" ">
<path fill="none" stroke="#63b8ff" d="M481.02,-88.38C488.89,-88.38 496.99,-88.38 505.08,-88.38"/>
<polygon fill="#63b8ff" stroke="#63b8ff" points="504.96,-91.88 514.96,-88.38 504.96,-84.88 504.96,-91.88"/>
</a>
</g>
</g>
<!-- Node12&#45;&gt;Node12 -->
<g id="edge12_Node000012_Node000012" class="edge">
<title>Node12&#45;&gt;Node12</title>
<g id="a_edge12_Node000012_Node000012"><a xlink:title=" ">
<path fill="none" stroke="#63b8ff" d="M567.82,-99.15C555.64,-107.81 565.79,-116.75 598.25,-116.75 616,-116.75 627.08,-114.08 631.49,-110.24"/>
<polygon fill="#63b8ff" stroke="#63b8ff" points="634.9,-109.45 629.05,-100.61 628.11,-111.17 634.9,-109.45"/>
</a>
</g>
</g>
<!-- Node31&#45;&gt;Node10 -->
<g id="edge16_Node000031_Node000010" class="edge">
<title>Node31&#45;&gt;Node10</title>
<g id="a_edge16_Node000031_Node000010"><a xlink:title=" ">
<path fill="none" stroke="#63b8ff" d="M448.64,-132.49C479.36,-136.6 522.47,-142.37 554.36,-146.64"/>
<polygon fill="#63b8ff" stroke="#63b8ff" points="553.67,-150.08 564.05,-147.93 554.6,-143.14 553.67,-150.08"/>
</a>
</g>
</g>
</g>
</svg>
