<?xml version="1.0" encoding="UTF-8" standalone="no"?>
<!DOCTYPE svg PUBLIC "-//W3C//DTD SVG 1.1//EN"
 "http://www.w3.org/Graphics/SVG/1.1/DTD/svg11.dtd">
<!-- Generated by graphviz version 13.1.2 (20250808.2320)
 -->
<!-- Title: kest_expr_create_hpf_coefficients Pages: 1 -->
<!--zoomable 600 -->

<svg id="main" version="1.1" xmlns="http://www.w3.org/2000/svg" xmlns:xlink="http://www.w3.org/1999/xlink" xml:space="preserve" onload="init(evt)">

<style type="text/css"><![CDATA[
.node, .edge {opacity: 0.7;}
.node.selected, .edge.selected {opacity: 1;}
.edge:hover path { stroke: red; }
.edge:hover polygon { stroke: red; fill: red; }
]]></style>

<defs>
  <circle id="rim" cx="0" cy="0" r="7"/>
  <circle id="rim2" cx="0" cy="0" r="3.5"/>
  <g id="zoomPlus">
    <use xlink:href="#rim" fill="#404040"><set attributeName="fill" to="#808080" begin="zoomplus.mouseover" end="zoomplus.mouseout"/></use>
    <path d="M-4,0h8M0,-4v8" fill="none" stroke="white" stroke-width="1.5" pointer-events="none"/>
  </g>
  <g id="zoomMin">
    <use xlink:href="#rim" fill="#404040"><set attributeName="fill" to="#808080" begin="zoomminus.mouseover" end="zoomminus.mouseout"/></use>
    <path d="M-4,0h8" fill="none" stroke="white" stroke-width="1.5" pointer-events="none"/>
  </g>
  <g id="arrowUp" transform="translate(30 24)">
    <use xlink:href="#rim"/>
    <path pointer-events="none" fill="none" stroke="white" stroke-width="1.5" d="M0,-3.0v7 M-2.5,-0.5L0,-3.0L2.5,-0.5"/>
  </g>
  <g id="arrowRight" transform="rotate(90) translate(36 -43)">
    <use xlink:href="#rim"/>
    <path pointer-events="none" fill="none" stroke="white" stroke-width="1.5" d="M0,-3.0v7 M-2.5,-0.5L0,-3.0L2.5,-0.5"/>
  </g>
  <g id="arrowDown" transform="rotate(180) translate(-30 -48)">
    <use xlink:href="#rim"/>
    <path pointer-events="none" fill="none" stroke="white" stroke-width="1.5" d="M0,-3.0v7 M-2.5,-0.5L0,-3.0L2.5,-0.5"/>
  </g>
  <g id="arrowLeft" transform="rotate(270) translate(-36 17)">
    <use xlink:href="#rim"/>
    <path pointer-events="none" fill="none" stroke="white" stroke-width="1.5" d="M0,-3.0v7 M-2.5,-0.5L0,-3.0L2.5,-0.5"/>
  </g>
  <g id="resetDef">
    <use xlink:href="#rim2" fill="#404040"><set attributeName="fill" to="#808080" begin="reset.mouseover" end="reset.mouseout"/></use>
  </g>
</defs>
<script type="application/ecmascript">
var viewWidth = 759;
var viewHeight = 600;
var sectionId = 'dynsection-1';
</script>
<script type="application/ecmascript" xlink:href="svg.min.js"/>
<svg id="graph" class="graph">
<g id="viewport">
<title>kest_expr_create_hpf_coefficients</title>
<!-- Node1 -->
<g id="Node000001" class="node">
<title>Node1</title>
<g id="a_Node000001"><a xlink:title=" ">
<polygon fill="#999999" stroke="#666666" points="120.25,-213.92 0,-213.92 0,-180.42 120.25,-180.42 120.25,-213.92"/>
<text xml:space="preserve" text-anchor="start" x="8" y="-200.42" font-family="Helvetica,sans-Serif" font-size="10.00">kest_expr_create_hpf</text>
<text xml:space="preserve" text-anchor="middle" x="60.12" y="-187.67" font-family="Helvetica,sans-Serif" font-size="10.00">_coefficients</text>
</a>
</g>
</g>
<!-- Node2 -->
<g id="Node000002" class="node">
<title>Node2</title>
<g id="a_Node000002"><a xlink:href="kest__alloc_8c.html#a849755c5dc5b35e712ffcdb602e50fb4" target="_top" xlink:title=" ">
<polygon fill="white" stroke="#666666" points="728.75,-129.54 664,-129.54 664,-108.79 728.75,-108.79 728.75,-129.54"/>
<text xml:space="preserve" text-anchor="middle" x="696.38" y="-116.04" font-family="Helvetica,sans-Serif" font-size="10.00">kest_alloc</text>
</a>
</g>
</g>
<!-- Node1&#45;&gt;Node2 -->
<g id="edge1_Node000001_Node000002" class="edge">
<title>Node1&#45;&gt;Node2</title>
<g id="a_edge1_Node000001_Node000002"><a xlink:title=" ">
<path fill="none" stroke="#63b8ff" d="M64.44,-179.96C72.55,-143.14 97.25,-57.25 156.25,-22.17 227.32,20.09 441.94,-1.71 606.25,-61.17 631.74,-70.39 657.3,-88.11 674.47,-101.55"/>
<polygon fill="#63b8ff" stroke="#63b8ff" points="671.93,-103.99 681.92,-107.54 676.33,-98.54 671.93,-103.99"/>
</a>
</g>
</g>
<!-- Node3 -->
<g id="Node000003" class="node">
<title>Node3</title>
<g id="a_Node000003"><a xlink:href="kest__expression_8c.html#a9170d6ae834bc2bf9af71c776c4433e0" target="_top" xlink:title=" ">
<polygon fill="white" stroke="#666666" points="266.75,-207.54 165.25,-207.54 165.25,-186.79 266.75,-186.79 266.75,-207.54"/>
<text xml:space="preserve" text-anchor="middle" x="216" y="-194.04" font-family="Helvetica,sans-Serif" font-size="10.00">kest_expr_init_2x</text>
</a>
</g>
</g>
<!-- Node1&#45;&gt;Node3 -->
<g id="edge2_Node000001_Node000003" class="edge">
<title>Node1&#45;&gt;Node3</title>
<g id="a_edge2_Node000001_Node000003"><a xlink:title=" ">
<path fill="none" stroke="#63b8ff" d="M120.62,-197.17C131.54,-197.17 142.96,-197.17 153.92,-197.17"/>
<polygon fill="#63b8ff" stroke="#63b8ff" points="153.64,-200.67 163.64,-197.17 153.64,-193.67 153.64,-200.67"/>
</a>
</g>
</g>
<!-- Node5 -->
<g id="Node000005" class="node">
<title>Node5</title>
<g id="a_Node000005"><a xlink:href="kest__expression_8c.html#ab5ffd4d3ec70263d83bc76cba8182027" target="_top" xlink:title=" ">
<polygon fill="white" stroke="#666666" points="269,-90.54 163,-90.54 163,-69.79 269,-69.79 269,-90.54"/>
<text xml:space="preserve" text-anchor="middle" x="216" y="-77.04" font-family="Helvetica,sans-Serif" font-size="10.00">kest_expr_init_cos</text>
</a>
</g>
</g>
<!-- Node1&#45;&gt;Node5 -->
<g id="edge4_Node000001_Node000005" class="edge">
<title>Node1&#45;&gt;Node5</title>
<g id="a_edge4_Node000001_Node000005"><a xlink:title=" ">
<path fill="none" stroke="#63b8ff" d="M73.75,-180.04C90.41,-158.56 121.71,-121.9 156.25,-100.17 158.85,-98.53 161.61,-97.01 164.44,-95.6"/>
<polygon fill="#63b8ff" stroke="#63b8ff" points="165.84,-98.81 173.58,-91.57 163.02,-92.4 165.84,-98.81"/>
</a>
</g>
</g>
<!-- Node7 -->
<g id="Node000007" class="node">
<title>Node7</title>
<g id="a_Node000007"><a xlink:href="kest__expression_8c.html#a22400585039b3adf87bf350e7996fcb3" target="_top" xlink:title=" ">
<polygon fill="white" stroke="#666666" points="268.25,-168.54 163.75,-168.54 163.75,-147.79 268.25,-147.79 268.25,-168.54"/>
<text xml:space="preserve" text-anchor="middle" x="216" y="-155.04" font-family="Helvetica,sans-Serif" font-size="10.00">kest_expr_init_div</text>
</a>
</g>
</g>
<!-- Node1&#45;&gt;Node7 -->
<g id="edge6_Node000001_Node000007" class="edge">
<title>Node1&#45;&gt;Node7</title>
<g id="a_edge6_Node000001_Node000007"><a xlink:title=" ">
<path fill="none" stroke="#63b8ff" d="M120.62,-182.09C134.1,-178.67 148.33,-175.06 161.54,-171.72"/>
<polygon fill="#63b8ff" stroke="#63b8ff" points="162.06,-175.2 170.89,-169.35 160.34,-168.41 162.06,-175.2"/>
</a>
</g>
</g>
<!-- Node8 -->
<g id="Node000008" class="node">
<title>Node8</title>
<g id="a_Node000008"><a xlink:href="kest__expression_8c.html#ac3adf09afb2c9382bec825b89c4a1bc9" target="_top" xlink:title=" ">
<polygon fill="white" stroke="#666666" points="275.75,-363.54 156.25,-363.54 156.25,-342.79 275.75,-342.79 275.75,-363.54"/>
<text xml:space="preserve" text-anchor="middle" x="216" y="-350.04" font-family="Helvetica,sans-Serif" font-size="10.00">kest_expr_init_half_x</text>
</a>
</g>
</g>
<!-- Node1&#45;&gt;Node8 -->
<g id="edge8_Node000001_Node000008" class="edge">
<title>Node1&#45;&gt;Node8</title>
<g id="a_edge8_Node000001_Node000008"><a xlink:title=" ">
<path fill="none" stroke="#63b8ff" d="M68.53,-213.97C81.94,-242.54 112.94,-300.63 156.25,-333.17 158.24,-334.66 160.36,-336.06 162.56,-337.35"/>
<polygon fill="#63b8ff" stroke="#63b8ff" points="160.73,-340.35 171.24,-341.71 163.87,-334.09 160.73,-340.35"/>
</a>
</g>
</g>
<!-- Node9 -->
<g id="Node000009" class="node">
<title>Node9</title>
<g id="a_Node000009"><a xlink:href="kest__expression_8c.html#a73d704a97968e4092ff099814f206b90" target="_top" xlink:title=" ">
<polygon fill="white" stroke="#666666" points="270.12,-324.54 161.88,-324.54 161.88,-303.79 270.12,-303.79 270.12,-324.54"/>
<text xml:space="preserve" text-anchor="middle" x="216" y="-311.04" font-family="Helvetica,sans-Serif" font-size="10.00">kest_expr_init_mul</text>
</a>
</g>
</g>
<!-- Node1&#45;&gt;Node9 -->
<g id="edge10_Node000001_Node000009" class="edge">
<title>Node1&#45;&gt;Node9</title>
<g id="a_edge10_Node000001_Node000009"><a xlink:title=" ">
<path fill="none" stroke="#63b8ff" d="M73.75,-214.29C90.41,-235.78 121.71,-272.43 156.25,-294.17 158.85,-295.8 161.61,-297.33 164.44,-298.74"/>
<polygon fill="#63b8ff" stroke="#63b8ff" points="163.02,-301.93 173.58,-302.76 165.84,-295.53 163.02,-301.93"/>
</a>
</g>
</g>
<!-- Node10 -->
<g id="Node000010" class="node">
<title>Node10</title>
<g id="a_Node000010"><a xlink:href="kest__expression_8c.html#aedc64780fddcd14b698456d39eb0f1d1" target="_top" xlink:title=" ">
<polygon fill="white" stroke="#666666" points="269.75,-51.54 162.25,-51.54 162.25,-30.79 269.75,-30.79 269.75,-51.54"/>
<text xml:space="preserve" text-anchor="middle" x="216" y="-38.04" font-family="Helvetica,sans-Serif" font-size="10.00">kest_expr_init_neg</text>
</a>
</g>
</g>
<!-- Node1&#45;&gt;Node10 -->
<g id="edge12_Node000001_Node000010" class="edge">
<title>Node1&#45;&gt;Node10</title>
<g id="a_edge12_Node000001_Node000010"><a xlink:title=" ">
<path fill="none" stroke="#63b8ff" d="M68.53,-180.36C81.94,-151.8 112.94,-93.7 156.25,-61.17 158.24,-59.67 160.36,-58.28 162.56,-56.99"/>
<polygon fill="#63b8ff" stroke="#63b8ff" points="163.87,-60.24 171.24,-52.63 160.73,-53.98 163.87,-60.24"/>
</a>
</g>
</g>
<!-- Node11 -->
<g id="Node000011" class="node">
<title>Node11</title>
<g id="a_Node000011"><a xlink:href="kest__expression_8c.html#a17e50387b6aeac937fe5d19196cfdaed" target="_top" xlink:title=" ">
<polygon fill="white" stroke="#666666" points="267.88,-129.54 164.12,-129.54 164.12,-108.79 267.88,-108.79 267.88,-129.54"/>
<text xml:space="preserve" text-anchor="middle" x="216" y="-116.04" font-family="Helvetica,sans-Serif" font-size="10.00">kest_expr_init_sin</text>
</a>
</g>
</g>
<!-- Node1&#45;&gt;Node11 -->
<g id="edge14_Node000001_Node000011" class="edge">
<title>Node1&#45;&gt;Node11</title>
<g id="a_edge14_Node000001_Node000011"><a xlink:title=" ">
<path fill="none" stroke="#63b8ff" d="M85.72,-180.09C104.45,-167.62 131.2,-150.89 156.25,-139.17 160.2,-137.32 164.37,-135.55 168.59,-133.89"/>
<polygon fill="#63b8ff" stroke="#63b8ff" points="169.51,-137.28 177.67,-130.52 167.08,-130.72 169.51,-137.28"/>
</a>
</g>
</g>
<!-- Node12 -->
<g id="Node000012" class="node">
<title>Node12</title>
<g id="a_Node000012"><a xlink:href="kest__expression_8c.html#a5f01af2fc5c29b8a7da7082419f6090d" target="_top" xlink:title=" ">
<polygon fill="white" stroke="#666666" points="269.38,-285.54 162.62,-285.54 162.62,-264.79 269.38,-264.79 269.38,-285.54"/>
<text xml:space="preserve" text-anchor="middle" x="216" y="-272.04" font-family="Helvetica,sans-Serif" font-size="10.00">kest_expr_init_sub</text>
</a>
</g>
</g>
<!-- Node1&#45;&gt;Node12 -->
<g id="edge16_Node000001_Node000012" class="edge">
<title>Node1&#45;&gt;Node12</title>
<g id="a_edge16_Node000001_Node000012"><a xlink:title=" ">
<path fill="none" stroke="#63b8ff" d="M85.72,-214.24C104.45,-226.72 131.2,-243.44 156.25,-255.17 160.2,-257.01 164.37,-258.78 168.59,-260.44"/>
<polygon fill="#63b8ff" stroke="#63b8ff" points="167.08,-263.61 177.67,-263.81 169.51,-257.05 167.08,-263.61"/>
</a>
</g>
</g>
<!-- Node13 -->
<g id="Node000013" class="node">
<title>Node13</title>
<g id="a_Node000013"><a xlink:href="kest__expression_8c.html#adeabeb2a2a0362550536190c9e3819e0" target="_top" xlink:title=" ">
<polygon fill="white" stroke="#666666" points="271.25,-246.54 160.75,-246.54 160.75,-225.79 271.25,-225.79 271.25,-246.54"/>
<text xml:space="preserve" text-anchor="middle" x="216" y="-233.04" font-family="Helvetica,sans-Serif" font-size="10.00">kest_expr_init_sum</text>
</a>
</g>
</g>
<!-- Node1&#45;&gt;Node13 -->
<g id="edge18_Node000001_Node000013" class="edge">
<title>Node1&#45;&gt;Node13</title>
<g id="a_edge18_Node000001_Node000013"><a xlink:title=" ">
<path fill="none" stroke="#63b8ff" d="M120.62,-212.24C134.1,-215.66 148.33,-219.27 161.54,-222.62"/>
<polygon fill="#63b8ff" stroke="#63b8ff" points="160.34,-225.92 170.89,-224.99 162.06,-219.14 160.34,-225.92"/>
</a>
</g>
</g>
<!-- Node14 -->
<g id="Node000014" class="node">
<title>Node14</title>
<g id="a_Node000014"><a xlink:href="kest__desktop_8c.html#a3c04138a5bfe5d72780bb7e82a18e627" target="_top" xlink:title=" ">
<polygon fill="white" stroke="#666666" points="236.38,-402.54 195.62,-402.54 195.62,-381.79 236.38,-381.79 236.38,-402.54"/>
<text xml:space="preserve" text-anchor="middle" x="216" y="-389.04" font-family="Helvetica,sans-Serif" font-size="10.00">main</text>
</a>
</g>
</g>
<!-- Node1&#45;&gt;Node14 -->
<g id="edge20_Node000001_Node000014" class="edge">
<title>Node1&#45;&gt;Node14</title>
<g id="a_edge20_Node000001_Node000014"><a xlink:title=" ">
<path fill="none" stroke="#63b8ff" d="M65.81,-214.3C76.2,-249.1 104.43,-328.48 156.25,-372.17 164.18,-378.85 174.46,-383.34 184.2,-386.34"/>
<polygon fill="#63b8ff" stroke="#63b8ff" points="183.19,-389.69 193.74,-388.83 184.95,-382.92 183.19,-389.69"/>
</a>
</g>
</g>
<!-- Node4 -->
<g id="Node000004" class="node">
<title>Node4</title>
<g id="a_Node000004"><a xlink:href="kest__expression_8c.html#a051396bd8167d3977b2d64f8d6771917" target="_top" xlink:title=" ">
<polygon fill="white" stroke="#666666" points="432,-265.54 311.75,-265.54 311.75,-244.79 432,-244.79 432,-265.54"/>
<text xml:space="preserve" text-anchor="middle" x="371.88" y="-252.04" font-family="Helvetica,sans-Serif" font-size="10.00">kest_expr_init_binary</text>
</a>
</g>
</g>
<!-- Node3&#45;&gt;Node4 -->
<g id="edge3_Node000003_Node000004" class="edge">
<title>Node3&#45;&gt;Node4</title>
<g id="a_edge3_Node000003_Node000004"><a xlink:title=" ">
<path fill="none" stroke="#63b8ff" d="M249.74,-207.97C258.24,-210.87 267.36,-214.06 275.75,-217.17 295.23,-224.37 316.73,-232.9 334.35,-240.06"/>
<polygon fill="#63b8ff" stroke="#63b8ff" points="332.79,-243.2 343.37,-243.74 335.43,-236.72 332.79,-243.2"/>
</a>
</g>
</g>
<!-- Node6 -->
<g id="Node000006" class="node">
<title>Node6</title>
<g id="a_Node000006"><a xlink:href="kest__expression_8c.html#a4aa19268ad6cc515bf3d050410706bca" target="_top" xlink:title=" ">
<polygon fill="white" stroke="#666666" points="430.5,-90.54 313.25,-90.54 313.25,-69.79 430.5,-69.79 430.5,-90.54"/>
<text xml:space="preserve" text-anchor="middle" x="371.88" y="-77.04" font-family="Helvetica,sans-Serif" font-size="10.00">kest_expr_init_unary</text>
</a>
</g>
</g>
<!-- Node5&#45;&gt;Node6 -->
<g id="edge5_Node000005_Node000006" class="edge">
<title>Node5&#45;&gt;Node6</title>
<g id="a_edge5_Node000005_Node000006"><a xlink:title=" ">
<path fill="none" stroke="#63b8ff" d="M269.1,-80.17C279.58,-80.17 290.75,-80.17 301.71,-80.17"/>
<polygon fill="#63b8ff" stroke="#63b8ff" points="301.5,-83.67 311.5,-80.17 301.5,-76.67 301.5,-83.67"/>
</a>
</g>
</g>
<!-- Node7&#45;&gt;Node4 -->
<g id="edge7_Node000007_Node000004" class="edge">
<title>Node7&#45;&gt;Node4</title>
<g id="a_edge7_Node000007_Node000004"><a xlink:title=" ">
<path fill="none" stroke="#63b8ff" d="M255.14,-168.95C262.18,-171.55 269.34,-174.63 275.75,-178.17 305,-194.31 334.22,-219.68 352.4,-236.84"/>
<polygon fill="#63b8ff" stroke="#63b8ff" points="349.66,-239.07 359.3,-243.49 354.52,-234.03 349.66,-239.07"/>
</a>
</g>
</g>
<!-- Node8&#45;&gt;Node4 -->
<g id="edge9_Node000008_Node000004" class="edge">
<title>Node8&#45;&gt;Node4</title>
<g id="a_edge9_Node000008_Node000004"><a xlink:title=" ">
<path fill="none" stroke="#63b8ff" d="M255.47,-342.29C262.41,-339.72 269.44,-336.67 275.75,-333.17 305.1,-316.84 334.29,-291.14 352.44,-273.74"/>
<polygon fill="#63b8ff" stroke="#63b8ff" points="354.63,-276.49 359.33,-267 349.73,-271.49 354.63,-276.49"/>
</a>
</g>
</g>
<!-- Node9&#45;&gt;Node4 -->
<g id="edge11_Node000009_Node000004" class="edge">
<title>Node9&#45;&gt;Node4</title>
<g id="a_edge11_Node000009_Node000004"><a xlink:title=" ">
<path fill="none" stroke="#63b8ff" d="M250.06,-303.3C258.48,-300.43 267.48,-297.27 275.75,-294.17 295.54,-286.75 317.38,-277.85 335.13,-270.42"/>
<polygon fill="#63b8ff" stroke="#63b8ff" points="336.35,-273.71 344.21,-266.6 333.64,-267.26 336.35,-273.71"/>
</a>
</g>
</g>
<!-- Node10&#45;&gt;Node6 -->
<g id="edge13_Node000010_Node000006" class="edge">
<title>Node10&#45;&gt;Node6</title>
<g id="a_edge13_Node000010_Node000006"><a xlink:title=" ">
<path fill="none" stroke="#63b8ff" d="M259.86,-52.03C277.55,-56.51 298.24,-61.76 316.94,-66.49"/>
<polygon fill="#63b8ff" stroke="#63b8ff" points="315.95,-69.86 326.51,-68.92 317.67,-63.07 315.95,-69.86"/>
</a>
</g>
</g>
<!-- Node11&#45;&gt;Node6 -->
<g id="edge15_Node000011_Node000006" class="edge">
<title>Node11&#45;&gt;Node6</title>
<g id="a_edge15_Node000011_Node000006"><a xlink:title=" ">
<path fill="none" stroke="#63b8ff" d="M259.86,-108.3C277.55,-103.82 298.24,-98.58 316.94,-93.84"/>
<polygon fill="#63b8ff" stroke="#63b8ff" points="317.67,-97.26 326.51,-91.41 315.95,-90.47 317.67,-97.26"/>
</a>
</g>
</g>
<!-- Node12&#45;&gt;Node4 -->
<g id="edge17_Node000012_Node000004" class="edge">
<title>Node12&#45;&gt;Node4</title>
<g id="a_edge17_Node000012_Node000004"><a xlink:title=" ">
<path fill="none" stroke="#63b8ff" d="M269.52,-268.34C279.43,-267.05 289.95,-265.68 300.31,-264.34"/>
<polygon fill="#63b8ff" stroke="#63b8ff" points="300.48,-267.84 309.95,-263.08 299.58,-260.9 300.48,-267.84"/>
</a>
</g>
</g>
<!-- Node13&#45;&gt;Node4 -->
<g id="edge19_Node000013_Node000004" class="edge">
<title>Node13&#45;&gt;Node4</title>
<g id="a_edge19_Node000013_Node000004"><a xlink:title=" ">
<path fill="none" stroke="#63b8ff" d="M271.68,-242.92C280.93,-244.06 290.66,-245.26 300.24,-246.44"/>
<polygon fill="#63b8ff" stroke="#63b8ff" points="299.55,-249.89 309.9,-247.64 300.41,-242.94 299.55,-249.89"/>
</a>
</g>
</g>
<!-- Node15 -->
<g id="Node000015" class="node">
<title>Node15</title>
<g id="a_Node000015"><a xlink:href="kest__desktop_8c.html#ab499a4f71ef4cfc807b60d8739750c3e" target="_top" xlink:title=" ">
<polygon fill="white" stroke="#666666" points="405.38,-363.54 338.38,-363.54 338.38,-342.79 405.38,-342.79 405.38,-363.54"/>
<text xml:space="preserve" text-anchor="middle" x="371.88" y="-350.04" font-family="Helvetica,sans-Serif" font-size="10.00">main_task</text>
</a>
</g>
</g>
<!-- Node14&#45;&gt;Node15 -->
<g id="edge21_Node000014_Node000015" class="edge">
<title>Node14&#45;&gt;Node15</title>
<g id="a_edge21_Node000014_Node000015"><a xlink:title=" ">
<path fill="none" stroke="#63b8ff" d="M236.8,-387.15C259.47,-381.4 297.31,-371.81 327.02,-364.28"/>
<polygon fill="#63b8ff" stroke="#63b8ff" points="327.66,-367.73 336.49,-361.88 325.94,-360.94 327.66,-367.73"/>
</a>
</g>
</g>
<!-- Node16 -->
<g id="Node000016" class="node">
<title>Node16</title>
<g id="a_Node000016"><a xlink:href="kest__effect__select_8c.html#a4f784340d1e1e332c60be5a095244ba1" target="_top" xlink:title=" ">
<polygon fill="#fff0f0" stroke="red" points="601.38,-519.54 472.88,-519.54 472.88,-498.79 601.38,-498.79 601.38,-519.54"/>
<text xml:space="preserve" text-anchor="middle" x="537.12" y="-506.04" font-family="Helvetica,sans-Serif" font-size="10.00">init_effect_selector_eff</text>
</a>
</g>
</g>
<!-- Node15&#45;&gt;Node16 -->
<g id="edge22_Node000015_Node000016" class="edge">
<title>Node15&#45;&gt;Node16</title>
<g id="a_edge22_Node000015_Node000016"><a xlink:title=" ">
<path fill="none" stroke="#63b8ff" d="M377.31,-363.85C388.52,-389.52 420.5,-455.04 468,-489.17 470.2,-490.74 472.52,-492.2 474.92,-493.54"/>
<polygon fill="#63b8ff" stroke="#63b8ff" points="473.31,-496.65 483.84,-497.78 476.31,-490.32 473.31,-496.65"/>
</a>
</g>
</g>
<!-- Node189 -->
<g id="Node000189" class="node">
<title>Node189</title>
<g id="a_Node000189"><a xlink:href="kest__ui_8c.html#ac4b49754b0a8d3df4343e742d6899872" target="_top" xlink:title=" ">
<polygon fill="#fff0f0" stroke="red" points="580.38,-480.54 493.88,-480.54 493.88,-459.79 580.38,-459.79 580.38,-480.54"/>
<text xml:space="preserve" text-anchor="middle" x="537.12" y="-467.04" font-family="Helvetica,sans-Serif" font-size="10.00">kest_create_ui</text>
</a>
</g>
</g>
<!-- Node15&#45;&gt;Node189 -->
<g id="edge24_Node000015_Node000189" class="edge">
<title>Node15&#45;&gt;Node189</title>
<g id="a_edge24_Node000015_Node000189"><a xlink:title=" ">
<path fill="none" stroke="#63b8ff" d="M380.46,-363.95C395.08,-383.95 429.17,-426.87 468,-450.17 472.64,-452.95 477.7,-455.37 482.89,-457.47"/>
<polygon fill="#63b8ff" stroke="#63b8ff" points="481.63,-460.73 492.22,-460.82 483.99,-454.14 481.63,-460.73"/>
</a>
</g>
</g>
<!-- Node315 -->
<g id="Node000315" class="node">
<title>Node315</title>
<g id="a_Node000315"><a xlink:href="kest__state_8c.html#ab26da214ed0f9d143d63e80a7012796b" target="_top" xlink:title=" ">
<polygon fill="#fff0f0" stroke="red" points="600.25,-441.54 474,-441.54 474,-420.79 600.25,-420.79 600.25,-441.54"/>
<text xml:space="preserve" text-anchor="middle" x="537.12" y="-428.04" font-family="Helvetica,sans-Serif" font-size="10.00">kest_cxt_restore_state</text>
</a>
</g>
</g>
<!-- Node15&#45;&gt;Node315 -->
<g id="edge25_Node000015_Node000315" class="edge">
<title>Node15&#45;&gt;Node315</title>
<g id="a_edge25_Node000015_Node000315"><a xlink:title=" ">
<path fill="none" stroke="#63b8ff" d="M387.69,-363.9C405.85,-376.65 437.93,-397.86 468,-411.17 472.56,-413.18 477.38,-415.06 482.27,-416.8"/>
<polygon fill="#63b8ff" stroke="#63b8ff" points="480.96,-420.05 491.56,-419.89 483.17,-413.41 480.96,-420.05"/>
</a>
</g>
</g>
<!-- Node65 -->
<g id="Node000065" class="node">
<title>Node65</title>
<g id="a_Node000065"><a xlink:href="kest__error__codes_8c.html#a0f4c77127bc0b77264a21104979c576a" target="_top" xlink:title=" ">
<polygon fill="white" stroke="#666666" points="750.5,-583.92 642.25,-583.92 642.25,-550.42 750.5,-550.42 750.5,-583.92"/>
<text xml:space="preserve" text-anchor="start" x="650.25" y="-570.42" font-family="Helvetica,sans-Serif" font-size="10.00">kest_error_code_to</text>
<text xml:space="preserve" text-anchor="middle" x="696.38" y="-557.67" font-family="Helvetica,sans-Serif" font-size="10.00">_string</text>
</a>
</g>
</g>
<!-- Node15&#45;&gt;Node65 -->
<g id="edge26_Node000015_Node000065" class="edge">
<title>Node15&#45;&gt;Node65</title>
<g id="a_edge26_Node000015_Node000065"><a xlink:title=" ">
<path fill="none" stroke="#63b8ff" d="M373.75,-363.95C377.35,-400.41 394.53,-519.42 468,-567.17 515.9,-598.3 582.32,-594.23 631,-584.81"/>
<polygon fill="#63b8ff" stroke="#63b8ff" points="631.47,-588.29 640.55,-582.83 630.05,-581.43 631.47,-588.29"/>
</a>
</g>
</g>
<!-- Node321 -->
<g id="Node000321" class="node">
<title>Node321</title>
<g id="a_Node000321"><a xlink:href="kest__fpga__comms_8c.html#a8f850777494bb4c4d61df3efbf31ca7c" target="_top" xlink:title=" ">
<polygon fill="#fff0f0" stroke="red" points="602.5,-363.54 471.75,-363.54 471.75,-342.79 602.5,-342.79 602.5,-363.54"/>
<text xml:space="preserve" text-anchor="middle" x="537.12" y="-350.04" font-family="Helvetica,sans-Serif" font-size="10.00">kest_fpga_comms_task</text>
</a>
</g>
</g>
<!-- Node15&#45;&gt;Node321 -->
<g id="edge27_Node000015_Node000321" class="edge">
<title>Node15&#45;&gt;Node321</title>
<g id="a_edge27_Node000015_Node000321"><a xlink:title=" ">
<path fill="none" stroke="#63b8ff" d="M405.52,-353.17C421.31,-353.17 440.98,-353.17 460.22,-353.17"/>
<polygon fill="#63b8ff" stroke="#63b8ff" points="459.96,-356.67 469.96,-353.17 459.96,-349.67 459.96,-356.67"/>
</a>
</g>
</g>
<!-- Node375 -->
<g id="Node000375" class="node">
<title>Node375</title>
<g id="a_Node000375"><a xlink:href="kest__context_8c.html#a8d785a89178c048ac11ee14f2a659993" target="_top" xlink:title=" ">
<polygon fill="#fff0f0" stroke="red" points="586.75,-324.54 487.5,-324.54 487.5,-303.79 586.75,-303.79 586.75,-324.54"/>
<text xml:space="preserve" text-anchor="middle" x="537.12" y="-311.04" font-family="Helvetica,sans-Serif" font-size="10.00">kest_init_context</text>
</a>
</g>
</g>
<!-- Node15&#45;&gt;Node375 -->
<g id="edge28_Node000015_Node000375" class="edge">
<title>Node15&#45;&gt;Node375</title>
<g id="a_edge28_Node000015_Node000375"><a xlink:title=" ">
<path fill="none" stroke="#63b8ff" d="M405.52,-345.37C426.74,-340.3 454.97,-333.55 479.76,-327.63"/>
<polygon fill="#63b8ff" stroke="#63b8ff" points="480.48,-331.06 489.39,-325.33 478.85,-324.25 480.48,-331.06"/>
</a>
</g>
</g>
<!-- Node384 -->
<g id="Node000384" class="node">
<title>Node384</title>
<g id="a_Node000384"><a xlink:href="kest__files_8c.html#a7a95a25dc61dcf2a435f45a67fcd08c7" target="_top" xlink:title=" ">
<polygon fill="white" stroke="#666666" points="594.25,-285.54 480,-285.54 480,-264.79 594.25,-264.79 594.25,-285.54"/>
<text xml:space="preserve" text-anchor="middle" x="537.12" y="-272.04" font-family="Helvetica,sans-Serif" font-size="10.00">kest_init_directories</text>
</a>
</g>
</g>
<!-- Node15&#45;&gt;Node384 -->
<g id="edge29_Node000015_Node000384" class="edge">
<title>Node15&#45;&gt;Node384</title>
<g id="a_edge29_Node000015_Node000384"><a xlink:title=" ">
<path fill="none" stroke="#63b8ff" d="M387.69,-342.43C405.85,-329.68 437.93,-308.47 468,-295.17 472.56,-293.15 477.38,-291.27 482.27,-289.53"/>
<polygon fill="#63b8ff" stroke="#63b8ff" points="483.17,-292.92 491.56,-286.45 480.96,-286.28 483.17,-292.92"/>
</a>
</g>
</g>
<!-- Node385 -->
<g id="Node000385" class="node">
<title>Node385</title>
<g id="a_Node000385"><a xlink:href="kest__ui_8c.html#ab1be7d2981c922ebe8d714f9af0f600d" target="_top" xlink:title=" ">
<polygon fill="#fff0f0" stroke="red" points="600.62,-246.54 473.62,-246.54 473.62,-225.79 600.62,-225.79 600.62,-246.54"/>
<text xml:space="preserve" text-anchor="middle" x="537.12" y="-233.04" font-family="Helvetica,sans-Serif" font-size="10.00">kest_init_global_pages</text>
</a>
</g>
</g>
<!-- Node15&#45;&gt;Node385 -->
<g id="edge30_Node000015_Node000385" class="edge">
<title>Node15&#45;&gt;Node385</title>
<g id="a_edge30_Node000015_Node000385"><a xlink:title=" ">
<path fill="none" stroke="#63b8ff" d="M380.46,-342.38C395.08,-322.38 429.17,-279.46 468,-256.17 470.97,-254.38 474.11,-252.75 477.34,-251.26"/>
<polygon fill="#63b8ff" stroke="#63b8ff" points="478.57,-254.54 486.51,-247.52 475.93,-248.06 478.57,-254.54"/>
</a>
</g>
</g>
<!-- Node418 -->
<g id="Node000418" class="node">
<title>Node418</title>
<g id="a_Node000418"><a xlink:href="kest__param__update_8h.html#ac2a1db74cfea4a032b83a22f45e2a69f" target="_top" xlink:title=" ">
<polygon fill="white" stroke="#666666" points="606.25,-207.54 468,-207.54 468,-186.79 606.25,-186.79 606.25,-207.54"/>
<text xml:space="preserve" text-anchor="middle" x="537.12" y="-194.04" font-family="Helvetica,sans-Serif" font-size="10.00">kest_param_update_task</text>
</a>
</g>
</g>
<!-- Node15&#45;&gt;Node418 -->
<g id="edge31_Node000015_Node000418" class="edge">
<title>Node15&#45;&gt;Node418</title>
<g id="a_edge31_Node000015_Node000418"><a xlink:title=" ">
<path fill="none" stroke="#63b8ff" d="M381.18,-342.63C392.88,-327.66 414.71,-299.28 432,-274.17 448.99,-249.49 444.08,-235.22 468,-217.17 469.92,-215.72 471.95,-214.37 474.05,-213.12"/>
<polygon fill="#63b8ff" stroke="#63b8ff" points="475.61,-216.25 482.98,-208.64 472.48,-209.99 475.61,-216.25"/>
</a>
</g>
</g>
<!-- Node419 -->
<g id="Node000419" class="node">
<title>Node419</title>
<g id="a_Node000419"><a xlink:href="kest__printf_8c.html#a745e9edc5a495f2fbd52a34a86d71c1b" target="_top" xlink:title=" ">
<polygon fill="white" stroke="#666666" points="581.5,-168.54 492.75,-168.54 492.75,-147.79 581.5,-147.79 581.5,-168.54"/>
<text xml:space="preserve" text-anchor="middle" x="537.12" y="-155.04" font-family="Helvetica,sans-Serif" font-size="10.00">kest_printf_init</text>
</a>
</g>
</g>
<!-- Node15&#45;&gt;Node419 -->
<g id="edge32_Node000015_Node000419" class="edge">
<title>Node15&#45;&gt;Node419</title>
<g id="a_edge32_Node000015_Node000419"><a xlink:title=" ">
<path fill="none" stroke="#63b8ff" d="M382.57,-342.34C395.27,-327.73 417.61,-300.47 432,-274.17 453.87,-234.19 434.62,-209.19 468,-178.17 472.02,-174.43 476.7,-171.39 481.7,-168.91"/>
<polygon fill="#63b8ff" stroke="#63b8ff" points="482.94,-172.18 490.87,-165.16 480.29,-165.71 482.94,-172.18"/>
</a>
</g>
</g>
<!-- Node420 -->
<g id="Node000420" class="node">
<title>Node420</title>
<g id="a_Node000420"><a xlink:href="kest__files_8c.html#abd963628acfd524509956fff3c5f498c" target="_top" xlink:title=" ">
<polygon fill="#fff0f0" stroke="red" points="575.12,-558.54 499.12,-558.54 499.12,-537.79 575.12,-537.79 575.12,-558.54"/>
<text xml:space="preserve" text-anchor="middle" x="537.12" y="-545.04" font-family="Helvetica,sans-Serif" font-size="10.00">load_effects</text>
</a>
</g>
</g>
<!-- Node15&#45;&gt;Node420 -->
<g id="edge33_Node000015_Node000420" class="edge">
<title>Node15&#45;&gt;Node420</title>
<g id="a_edge33_Node000015_Node000420"><a xlink:title=" ">
<path fill="none" stroke="#63b8ff" d="M375.51,-363.67C383.68,-394.01 411.5,-482.55 468,-528.17 473.93,-532.95 480.97,-536.59 488.23,-539.36"/>
<polygon fill="#63b8ff" stroke="#63b8ff" points="486.9,-542.61 497.49,-542.36 489.06,-535.95 486.9,-542.61"/>
</a>
</g>
</g>
<!-- Node568 -->
<g id="Node000568" class="node">
<title>Node568</title>
<g id="a_Node000568"><a xlink:href="kest__files_8c.html#a94b6bb72bca4b3c7f8f01ba6fa4f8200" target="_top" xlink:title=" ">
<polygon fill="#fff0f0" stroke="red" points="593.5,-129.54 480.75,-129.54 480.75,-108.79 593.5,-108.79 593.5,-129.54"/>
<text xml:space="preserve" text-anchor="middle" x="537.12" y="-116.04" font-family="Helvetica,sans-Serif" font-size="10.00">load_saved_presets</text>
</a>
</g>
</g>
<!-- Node15&#45;&gt;Node568 -->
<g id="edge35_Node000015_Node000568" class="edge">
<title>Node15&#45;&gt;Node568</title>
<g id="a_edge35_Node000015_Node000568"><a xlink:title=" ">
<path fill="none" stroke="#63b8ff" d="M383.18,-342.3C396.35,-327.84 418.99,-300.99 432,-274.17 459.1,-218.29 424.64,-183.62 468,-139.17 469.02,-138.12 470.08,-137.13 471.2,-136.2"/>
<polygon fill="#63b8ff" stroke="#63b8ff" points="472.87,-139.29 479.22,-130.8 468.97,-133.48 472.87,-139.29"/>
</a>
</g>
</g>
<!-- Node576 -->
<g id="Node000576" class="node">
<title>Node576</title>
<g id="a_Node000576"><a xlink:href="kest__files_8c.html#a2b0f0df900e064b3a42198050e150084" target="_top" xlink:title=" ">
<polygon fill="#fff0f0" stroke="red" points="601.38,-90.54 472.88,-90.54 472.88,-69.79 601.38,-69.79 601.38,-90.54"/>
<text xml:space="preserve" text-anchor="middle" x="537.12" y="-77.04" font-family="Helvetica,sans-Serif" font-size="10.00">load_saved_sequences</text>
</a>
</g>
</g>
<!-- Node15&#45;&gt;Node576 -->
<g id="edge37_Node000015_Node000576" class="edge">
<title>Node15&#45;&gt;Node576</title>
<g id="a_edge37_Node000015_Node000576"><a xlink:title=" ">
<path fill="none" stroke="#63b8ff" d="M383.42,-342.41C396.84,-328.07 419.76,-301.34 432,-274.17 464.44,-202.16 414.48,-158.24 468,-100.17 468.86,-99.24 469.75,-98.35 470.69,-97.5"/>
<polygon fill="#63b8ff" stroke="#63b8ff" points="472.58,-100.45 478.7,-91.8 468.52,-94.75 472.58,-100.45"/>
</a>
</g>
</g>
<!-- Node580 -->
<g id="Node000580" class="node">
<title>Node580</title>
<g id="a_Node000580"><a xlink:href="kest__files_8c.html#a70d3333ed52be1c6b2967d18b2c09bfa" target="_top" xlink:title=" ">
<polygon fill="#fff0f0" stroke="red" points="595.38,-402.54 478.88,-402.54 478.88,-381.79 595.38,-381.79 595.38,-402.54"/>
<text xml:space="preserve" text-anchor="middle" x="537.12" y="-389.04" font-family="Helvetica,sans-Serif" font-size="10.00">load_state_from_file</text>
</a>
</g>
</g>
<!-- Node15&#45;&gt;Node580 -->
<g id="edge39_Node000015_Node000580" class="edge">
<title>Node15&#45;&gt;Node580</title>
<g id="a_edge39_Node000015_Node000580"><a xlink:title=" ">
<path fill="none" stroke="#63b8ff" d="M405.52,-360.96C426.74,-366.03 454.97,-372.78 479.76,-378.7"/>
<polygon fill="#63b8ff" stroke="#63b8ff" points="478.85,-382.08 489.39,-381 480.48,-375.27 478.85,-382.08"/>
</a>
</g>
</g>
<!-- Node16&#45;&gt;Node2 -->
<g id="edge23_Node000016_Node000002" class="edge">
<title>Node16&#45;&gt;Node2</title>
<g id="a_edge23_Node000016_Node000002"><a xlink:title=" ">
<path fill="none" stroke="#63b8ff" d="M593.87,-498.46C598.45,-495.97 602.68,-492.92 606.25,-489.17 655.14,-437.81 684.69,-212.52 692.97,-141.02"/>
<polygon fill="#63b8ff" stroke="#63b8ff" points="696.42,-141.71 694.06,-131.38 689.46,-140.93 696.42,-141.71"/>
</a>
</g>
</g>
<!-- Node420&#45;&gt;Node65 -->
<g id="edge34_Node000420_Node000065" class="edge">
<title>Node420&#45;&gt;Node65</title>
<g id="a_edge34_Node000420_Node000065"><a xlink:title=" ">
<path fill="none" stroke="#63b8ff" d="M575.39,-552.67C591.94,-554.67 611.91,-557.08 630.76,-559.36"/>
<polygon fill="#63b8ff" stroke="#63b8ff" points="630.16,-562.81 640.51,-560.54 631,-555.86 630.16,-562.81"/>
</a>
</g>
</g>
<!-- Node568&#45;&gt;Node2 -->
<g id="edge36_Node000568_Node000002" class="edge">
<title>Node568&#45;&gt;Node2</title>
<g id="a_edge36_Node000568_Node000002"><a xlink:title=" ">
<path fill="none" stroke="#63b8ff" d="M593.57,-119.17C612.86,-119.17 634.2,-119.17 652.34,-119.17"/>
<polygon fill="#63b8ff" stroke="#63b8ff" points="652.23,-122.67 662.23,-119.17 652.23,-115.67 652.23,-122.67"/>
</a>
</g>
</g>
<!-- Node576&#45;&gt;Node2 -->
<g id="edge38_Node000576_Node000002" class="edge">
<title>Node576&#45;&gt;Node2</title>
<g id="a_edge38_Node000576_Node000002"><a xlink:title=" ">
<path fill="none" stroke="#63b8ff" d="M581.93,-91.03C604.06,-96.52 630.81,-103.15 652.77,-108.6"/>
<polygon fill="#63b8ff" stroke="#63b8ff" points="651.75,-111.95 662.3,-110.96 653.44,-105.16 651.75,-111.95"/>
</a>
</g>
</g>
<!-- Node580&#45;&gt;Node2 -->
<g id="edge40_Node000580_Node000002" class="edge">
<title>Node580&#45;&gt;Node2</title>
<g id="a_edge40_Node000580_Node000002"><a xlink:title=" ">
<path fill="none" stroke="#63b8ff" d="M592.81,-381.41C597.72,-378.94 602.31,-375.9 606.25,-372.17 673.72,-308.19 690.16,-190.11 694.13,-141.24"/>
<polygon fill="#63b8ff" stroke="#63b8ff" points="697.61,-141.61 694.82,-131.39 690.63,-141.12 697.61,-141.61"/>
</a>
</g>
</g>
</g>
</svg>

<g id="navigator" transform="translate(0 0)" fill="#404254">
  <rect fill="#f2f5e9" fill-opacity="0.5" stroke="#606060" stroke-width=".5" x="0" y="0" width="60" height="60"/>
  <use id="zoomplus" xlink:href="#zoomPlus" x="17" y="9" onmousedown="handleZoom(evt,'in')"/>
  <use id="zoomminus" xlink:href="#zoomMin" x="42" y="9" onmousedown="handleZoom(evt,'out')"/>
  <use id="reset" xlink:href="#resetDef" x="30" y="36" onmousedown="handleReset()"/>
   <use id="arrowup" xlink:href="#arrowUp" x="0" y="0" onmousedown="handlePan(0,-1)"/>
  <use id="arrowright" xlink:href="#arrowRight" x="0" y="0" onmousedown="handlePan(1,0)"/>
  <use id="arrowdown" xlink:href="#arrowDown" x="0" y="0" onmousedown="handlePan(0,1)"/>
  <use id="arrowleft" xlink:href="#arrowLeft" x="0" y="0" onmousedown="handlePan(-1,0)"/>
</g>
<svg viewBox="0 0 15 15" width="100%" height="30px" preserveAspectRatio="xMaxYMin meet">
 <g id="arrow_out" transform="scale(0.3 0.3)">
  <a xlink:href="kest__expression_8h_a91f074f7596d8adca0d0aa258e8af07b_cgraph_org.svg" target="_base">
   <rect id="button" ry="5" rx="5" y="6" x="6" height="38" width="38"
        fill="#f2f5e9" fill-opacity="0.5" stroke="#606060" stroke-width="1.0"/>
   <path id="arrow"
     d="M 11.500037,31.436501 C 11.940474,20.09759 22.043105,11.32322 32.158766,21.979434 L 37.068811,17.246167 C 37.068811,17.246167 37.088388,32 37.088388,32 L 22.160133,31.978069 C 22.160133,31.978069 26.997745,27.140456 26.997745,27.140456 C 18.528582,18.264221 13.291696,25.230495 11.500037,31.436501 z"
     style="fill:#404040;"/>
  </a>
 </g>
</svg>

<style type='text/css'>
<![CDATA[
[data-mouse-over-selected='false'] { opacity: 0.7; }
[data-mouse-over-selected='true']  { opacity: 1.0; }
]]>
</style>
<script type="application/ecmascript"><![CDATA[
document.addEventListener('DOMContentLoaded', (event) => {
  highlightEdges();
  highlightAdjacentNodes();
});
]]></script>
</svg>
