<?xml version="1.0" encoding="UTF-8" standalone="no"?>
<!DOCTYPE svg PUBLIC "-//W3C//DTD SVG 1.1//EN"
 "http://www.w3.org/Graphics/SVG/1.1/DTD/svg11.dtd">
<!-- Generated by graphviz version 13.1.2 (20250808.2320)
 -->
<!-- Title: kest_button_create_label_ui Pages: 1 -->
<!--zoomable 249 -->

<svg id="main" version="1.1" xmlns="http://www.w3.org/2000/svg" xmlns:xlink="http://www.w3.org/1999/xlink" xml:space="preserve" onload="init(evt)">

<style type="text/css"><![CDATA[
.node, .edge {opacity: 0.7;}
.node.selected, .edge.selected {opacity: 1;}
.edge:hover path { stroke: red; }
.edge:hover polygon { stroke: red; fill: red; }
]]></style>

<defs>
  <circle id="rim" cx="0" cy="0" r="7"/>
  <circle id="rim2" cx="0" cy="0" r="3.5"/>
  <g id="zoomPlus">
    <use xlink:href="#rim" fill="#404040"><set attributeName="fill" to="#808080" begin="zoomplus.mouseover" end="zoomplus.mouseout"/></use>
    <path d="M-4,0h8M0,-4v8" fill="none" stroke="white" stroke-width="1.5" pointer-events="none"/>
  </g>
  <g id="zoomMin">
    <use xlink:href="#rim" fill="#404040"><set attributeName="fill" to="#808080" begin="zoomminus.mouseover" end="zoomminus.mouseout"/></use>
    <path d="M-4,0h8" fill="none" stroke="white" stroke-width="1.5" pointer-events="none"/>
  </g>
  <g id="arrowUp" transform="translate(30 24)">
    <use xlink:href="#rim"/>
    <path pointer-events="none" fill="none" stroke="white" stroke-width="1.5" d="M0,-3.0v7 M-2.5,-0.5L0,-3.0L2.5,-0.5"/>
  </g>
  <g id="arrowRight" transform="rotate(90) translate(36 -43)">
    <use xlink:href="#rim"/>
    <path pointer-events="none" fill="none" stroke="white" stroke-width="1.5" d="M0,-3.0v7 M-2.5,-0.5L0,-3.0L2.5,-0.5"/>
  </g>
  <g id="arrowDown" transform="rotate(180) translate(-30 -48)">
    <use xlink:href="#rim"/>
    <path pointer-events="none" fill="none" stroke="white" stroke-width="1.5" d="M0,-3.0v7 M-2.5,-0.5L0,-3.0L2.5,-0.5"/>
  </g>
  <g id="arrowLeft" transform="rotate(270) translate(-36 17)">
    <use xlink:href="#rim"/>
    <path pointer-events="none" fill="none" stroke="white" stroke-width="1.5" d="M0,-3.0v7 M-2.5,-0.5L0,-3.0L2.5,-0.5"/>
  </g>
  <g id="resetDef">
    <use xlink:href="#rim2" fill="#404040"><set attributeName="fill" to="#808080" begin="reset.mouseover" end="reset.mouseout"/></use>
  </g>
</defs>
<script type="application/ecmascript">
var viewWidth = 895;
var viewHeight = 249;
var sectionId = 'dynsection-40';
</script>
<script type="application/ecmascript" xlink:href="svg.min.js"/>
<svg id="graph" class="graph">
<g id="viewport">
<title>kest_button_create_label_ui</title>
<!-- Node1 -->
<g id="Node000001" class="node">
<title>Node1</title>
<g id="a_Node000001"><a xlink:title=" ">
<polygon fill="#999999" stroke="#666666" points="886.5,-176.12 777.5,-176.12 777.5,-142.62 886.5,-142.62 886.5,-176.12"/>
<text xml:space="preserve" text-anchor="start" x="785.5" y="-162.62" font-family="Helvetica,sans-Serif" font-size="10.00">kest_button_create</text>
<text xml:space="preserve" text-anchor="middle" x="832" y="-149.88" font-family="Helvetica,sans-Serif" font-size="10.00">_label_ui</text>
</a>
</g>
</g>
<!-- Node2 -->
<g id="Node000002" class="node">
<title>Node2</title>
<g id="a_Node000002"><a xlink:href="kest__button_8c.html#ab3d484ae52f7d01018eba300e3fe4e1f" target="_top" xlink:title=" ">
<polygon fill="white" stroke="#666666" points="571.75,-176.12 463.5,-176.12 463.5,-142.62 571.75,-142.62 571.75,-176.12"/>
<text xml:space="preserve" text-anchor="start" x="471.5" y="-162.62" font-family="Helvetica,sans-Serif" font-size="10.00">kest_active_button</text>
<text xml:space="preserve" text-anchor="middle" x="517.62" y="-149.88" font-family="Helvetica,sans-Serif" font-size="10.00">_reset_del_button</text>
</a>
</g>
</g>
<!-- Node1&#45;&gt;Node2 -->
<g id="edge1_Node000001_Node000002" class="edge">
<title>Node1&#45;&gt;Node2</title>
<g id="a_edge1_Node000001_Node000002"><a xlink:title=" ">
<path fill="none" stroke="#63b8ff" d="M765.81,-159.38C708.39,-159.38 625.77,-159.38 572.15,-159.38"/>
<polygon fill="#63b8ff" stroke="#63b8ff" points="765.79,-162.88 775.79,-159.38 765.79,-155.88 765.79,-162.88"/>
</a>
</g>
</g>
<!-- Node30 -->
<g id="Node000030" class="node">
<title>Node30</title>
<g id="a_Node000030"><a xlink:href="kest__button_8c.html#ab59ebaba4ff87ed51677e73ba4aac2ef" target="_top" xlink:title=" ">
<polygon fill="white" stroke="#666666" points="583,-240.5 452.25,-240.5 452.25,-194.25 583,-194.25 583,-240.5"/>
<text xml:space="preserve" text-anchor="start" x="460.25" y="-227" font-family="Helvetica,sans-Serif" font-size="10.00">kest_active_button</text>
<text xml:space="preserve" text-anchor="start" x="460.25" y="-214.25" font-family="Helvetica,sans-Serif" font-size="10.00">_swap_del_button_for</text>
<text xml:space="preserve" text-anchor="middle" x="517.62" y="-201.5" font-family="Helvetica,sans-Serif" font-size="10.00">_persistent_unclickable</text>
</a>
</g>
</g>
<!-- Node1&#45;&gt;Node30 -->
<g id="edge6_Node000001_Node000030" class="edge">
<title>Node1&#45;&gt;Node30</title>
<g id="a_edge6_Node000001_Node000030"><a xlink:title=" ">
<path fill="none" stroke="#63b8ff" d="M766.21,-171.4C712.59,-181.36 636.8,-195.43 583.23,-205.38"/>
<polygon fill="#63b8ff" stroke="#63b8ff" points="766.62,-174.89 775.81,-169.62 765.34,-168.01 766.62,-174.89"/>
</a>
</g>
</g>
<!-- Node31 -->
<g id="Node000031" class="node">
<title>Node31</title>
<g id="a_Node000031"><a xlink:href="kest__button_8c.html#ac24f7930db96a5006a81ec8255ad0e6c" target="_top" xlink:title=" ">
<polygon fill="white" stroke="#666666" points="741.5,-124.75 619,-124.75 619,-104 741.5,-104 741.5,-124.75"/>
<text xml:space="preserve" text-anchor="middle" x="680.25" y="-111.25" font-family="Helvetica,sans-Serif" font-size="10.00">kest_button_set_label</text>
</a>
</g>
</g>
<!-- Node1&#45;&gt;Node31 -->
<g id="edge8_Node000001_Node000031" class="edge">
<title>Node1&#45;&gt;Node31</title>
<g id="a_edge8_Node000001_Node000031"><a xlink:title=" ">
<path fill="none" stroke="#63b8ff" d="M766.42,-139.97C749.55,-134.9 731.98,-129.62 717.2,-125.18"/>
<polygon fill="#63b8ff" stroke="#63b8ff" points="765.33,-143.29 775.91,-142.82 767.34,-136.59 765.33,-143.29"/>
</a>
</g>
</g>
<!-- Node3 -->
<g id="Node000003" class="node">
<title>Node3</title>
<g id="a_Node000003"><a xlink:href="kest__sequence__view_8c.html#a08de2e10fc1c406742820cb4edd78cc3" target="_top" xlink:title=" ">
<polygon fill="white" stroke="#666666" points="416.25,-162.12 289.25,-162.12 289.25,-128.62 416.25,-128.62 416.25,-162.12"/>
<text xml:space="preserve" text-anchor="start" x="297.25" y="-148.62" font-family="Helvetica,sans-Serif" font-size="10.00">sequence_view_preset</text>
<text xml:space="preserve" text-anchor="middle" x="352.75" y="-135.88" font-family="Helvetica,sans-Serif" font-size="10.00">_button_rep_update</text>
</a>
</g>
</g>
<!-- Node2&#45;&gt;Node3 -->
<g id="edge2_Node000002_Node000003" class="edge">
<title>Node2&#45;&gt;Node3</title>
<g id="a_edge2_Node000002_Node000003"><a xlink:title=" ">
<path fill="none" stroke="#63b8ff" d="M451.86,-153.81C440.23,-152.81 428.12,-151.77 416.55,-150.77"/>
<polygon fill="#63b8ff" stroke="#63b8ff" points="451.52,-157.29 461.79,-154.66 452.12,-150.32 451.52,-157.29"/>
</a>
</g>
</g>
<!-- Node4 -->
<g id="Node000004" class="node">
<title>Node4</title>
<g id="a_Node000004"><a xlink:href="kest__sequence__view_8c.html#ac871b24a7c875a7b6e707a3d2691a2a9" target="_top" xlink:title=" ">
<polygon fill="#fff0f0" stroke="red" points="142,-117.75 0,-117.75 0,-97 142,-97 142,-117.75"/>
<text xml:space="preserve" text-anchor="middle" x="71" y="-104.25" font-family="Helvetica,sans-Serif" font-size="10.00">configure_sequence_view</text>
</a>
</g>
</g>
<!-- Node3&#45;&gt;Node4 -->
<g id="edge3_Node000003_Node000004" class="edge">
<title>Node3&#45;&gt;Node4</title>
<g id="a_edge3_Node000003_Node000004"><a xlink:title=" ">
<path fill="none" stroke="#63b8ff" d="M277.76,-138.41C246.87,-135.21 210.63,-131.08 178,-126.38 161.9,-124.05 144.5,-121.12 128.55,-118.25"/>
<polygon fill="#63b8ff" stroke="#63b8ff" points="277.08,-141.86 287.38,-139.39 277.79,-134.9 277.08,-141.86"/>
</a>
</g>
</g>
<!-- Node29 -->
<g id="Node000029" class="node">
<title>Node29</title>
<g id="a_Node000029"><a xlink:href="kest__sequence__view_8c.html#a83d1a352af6a3932ce4d08e01f7d8d8a" target="_top" xlink:title=" ">
<polygon fill="white" stroke="#666666" points="253.25,-117.75 178,-117.75 178,-97 253.25,-97 253.25,-117.75"/>
<text xml:space="preserve" text-anchor="middle" x="215.62" y="-104.25" font-family="Helvetica,sans-Serif" font-size="10.00">seq_plus_cb</text>
</a>
</g>
</g>
<!-- Node3&#45;&gt;Node29 -->
<g id="edge4_Node000003_Node000029" class="edge">
<title>Node3&#45;&gt;Node29</title>
<g id="a_edge4_Node000003_Node000029"><a xlink:title=" ">
<path fill="none" stroke="#63b8ff" d="M279.58,-125.08C270.63,-122.56 261.79,-120.08 253.68,-117.8"/>
<polygon fill="#63b8ff" stroke="#63b8ff" points="278.48,-128.41 289.06,-127.74 280.38,-121.67 278.48,-128.41"/>
</a>
</g>
</g>
<!-- Node29&#45;&gt;Node4 -->
<g id="edge5_Node000029_Node000004" class="edge">
<title>Node29&#45;&gt;Node4</title>
<g id="a_edge5_Node000029_Node000004"><a xlink:title=" ">
<path fill="none" stroke="#63b8ff" d="M166.22,-107.38C158.53,-107.38 150.44,-107.38 142.37,-107.38"/>
<polygon fill="#63b8ff" stroke="#63b8ff" points="166.01,-110.88 176.01,-107.38 166.01,-103.88 166.01,-110.88"/>
</a>
</g>
</g>
<!-- Node30&#45;&gt;Node3 -->
<g id="edge7_Node000030_Node000003" class="edge">
<title>Node30&#45;&gt;Node3</title>
<g id="a_edge7_Node000030_Node000003"><a xlink:title=" ">
<path fill="none" stroke="#63b8ff" d="M452.85,-189.18C432.56,-180.21 410.73,-170.56 392.74,-162.61"/>
<polygon fill="#63b8ff" stroke="#63b8ff" points="451.35,-192.35 461.91,-193.19 454.18,-185.94 451.35,-192.35"/>
</a>
</g>
</g>
<!-- Node31&#45;&gt;Node2 -->
<g id="edge17_Node000031_Node000002" class="edge">
<title>Node31&#45;&gt;Node2</title>
<g id="a_edge17_Node000031_Node000002"><a xlink:title=" ">
<path fill="none" stroke="#63b8ff" d="M629.74,-128.24C611.43,-133.37 590.6,-139.21 571.97,-144.43"/>
<polygon fill="#63b8ff" stroke="#63b8ff" points="630.63,-131.63 639.32,-125.56 628.75,-124.89 630.63,-131.63"/>
</a>
</g>
</g>
<!-- Node31&#45;&gt;Node30 -->
<g id="edge18_Node000031_Node000030" class="edge">
<title>Node31&#45;&gt;Node30</title>
<g id="a_edge18_Node000031_Node000030"><a xlink:title=" ">
<path fill="none" stroke="#63b8ff" d="M657.62,-132.03C638.59,-147.14 609.83,-168.98 583,-185.38 578.31,-188.24 573.34,-191.06 568.31,-193.78"/>
<polygon fill="#63b8ff" stroke="#63b8ff" points="659.58,-134.95 665.19,-125.96 655.2,-129.49 659.58,-134.95"/>
</a>
</g>
</g>
<!-- Node32 -->
<g id="Node000032" class="node">
<title>Node32</title>
<g id="a_Node000032"><a xlink:href="kest__menu_8c.html#a86c6c0acd2dfb8a62bd96bbfd739e687" target="_top" xlink:title=" ">
<polygon fill="white" stroke="#666666" points="580,-20.75 455.25,-20.75 455.25,0 580,0 580,-20.75"/>
<text xml:space="preserve" text-anchor="middle" x="517.62" y="-7.25" font-family="Helvetica,sans-Serif" font-size="10.00">configure_main_menu</text>
</a>
</g>
</g>
<!-- Node31&#45;&gt;Node32 -->
<g id="edge9_Node000031_Node000032" class="edge">
<title>Node31&#45;&gt;Node32</title>
<g id="a_edge9_Node000031_Node000032"><a xlink:title=" ">
<path fill="none" stroke="#63b8ff" d="M662.44,-95.28C644.54,-76.04 614.49,-46.79 583,-29.38 577.19,-26.16 570.77,-23.44 564.31,-21.14"/>
<polygon fill="#63b8ff" stroke="#63b8ff" points="659.66,-97.41 668.97,-102.46 664.83,-92.7 659.66,-97.41"/>
</a>
</g>
</g>
<!-- Node34 -->
<g id="Node000034" class="node">
<title>Node34</title>
<g id="a_Node000034"><a xlink:href="kest__button_8c.html#a209511305dd2db40751857097e1e82c1" target="_top" xlink:title=" ">
<polygon fill="white" stroke="#666666" points="571.75,-72.12 463.5,-72.12 463.5,-38.62 571.75,-38.62 571.75,-72.12"/>
<text xml:space="preserve" text-anchor="start" x="471.5" y="-58.62" font-family="Helvetica,sans-Serif" font-size="10.00">kest_active_button</text>
<text xml:space="preserve" text-anchor="middle" x="517.62" y="-45.88" font-family="Helvetica,sans-Serif" font-size="10.00">_add_del_button</text>
</a>
</g>
</g>
<!-- Node31&#45;&gt;Node34 -->
<g id="edge11_Node000031_Node000034" class="edge">
<title>Node31&#45;&gt;Node34</title>
<g id="a_edge11_Node000031_Node000034"><a xlink:title=" ">
<path fill="none" stroke="#63b8ff" d="M639.01,-99.59C616.7,-91.4 588.85,-81.17 565.56,-72.61"/>
<polygon fill="#63b8ff" stroke="#63b8ff" points="637.77,-102.87 648.37,-103.03 640.19,-96.3 637.77,-102.87"/>
</a>
</g>
</g>
<!-- Node48 -->
<g id="Node000048" class="node">
<title>Node48</title>
<g id="a_Node000048"><a xlink:href="kest__button_8c.html#a9899cf8789d635db3bb8b1d4c514e140" target="_top" xlink:title=" ">
<polygon fill="white" stroke="#666666" points="571.75,-124.12 463.5,-124.12 463.5,-90.62 571.75,-90.62 571.75,-124.12"/>
<text xml:space="preserve" text-anchor="start" x="471.5" y="-110.62" font-family="Helvetica,sans-Serif" font-size="10.00">kest_active_button</text>
<text xml:space="preserve" text-anchor="middle" x="517.62" y="-97.88" font-family="Helvetica,sans-Serif" font-size="10.00">_change_label</text>
</a>
</g>
</g>
<!-- Node31&#45;&gt;Node48 -->
<g id="edge15_Node000031_Node000048" class="edge">
<title>Node31&#45;&gt;Node48</title>
<g id="a_edge15_Node000031_Node000048"><a xlink:title=" ">
<path fill="none" stroke="#63b8ff" d="M607.28,-111.24C595.44,-110.72 583.35,-110.2 572.06,-109.7"/>
<polygon fill="#63b8ff" stroke="#63b8ff" points="606.87,-114.72 617.01,-111.66 607.17,-107.73 606.87,-114.72"/>
</a>
</g>
</g>
<!-- Node33 -->
<g id="Node000033" class="node">
<title>Node33</title>
<g id="a_Node000033"><a xlink:href="kest__menu_8c.html#a6aa16fb3d12f098f021ae677605e683e" target="_top" xlink:title=" ">
<polygon fill="#fff0f0" stroke="red" points="400.12,-20.75 305.38,-20.75 305.38,0 400.12,0 400.12,-20.75"/>
<text xml:space="preserve" text-anchor="middle" x="352.75" y="-7.25" font-family="Helvetica,sans-Serif" font-size="10.00">init_main_menu</text>
</a>
</g>
</g>
<!-- Node32&#45;&gt;Node33 -->
<g id="edge10_Node000032_Node000033" class="edge">
<title>Node32&#45;&gt;Node33</title>
<g id="a_edge10_Node000032_Node000033"><a xlink:title=" ">
<path fill="none" stroke="#63b8ff" d="M443.87,-10.38C429.12,-10.38 413.98,-10.38 400.43,-10.38"/>
<polygon fill="#63b8ff" stroke="#63b8ff" points="443.54,-13.88 453.54,-10.38 443.54,-6.88 443.54,-13.88"/>
</a>
</g>
</g>
<!-- Node35 -->
<g id="Node000035" class="node">
<title>Node35</title>
<g id="a_Node000035"><a xlink:href="kest__button_8c.html#a760fe364ce4f5be2c972ff685e2f9825" target="_top" xlink:title=" ">
<polygon fill="#fff0f0" stroke="red" points="409.5,-86.12 296,-86.12 296,-52.62 409.5,-52.62 409.5,-86.12"/>
<text xml:space="preserve" text-anchor="start" x="304" y="-72.62" font-family="Helvetica,sans-Serif" font-size="10.00">kest_active_button</text>
<text xml:space="preserve" text-anchor="middle" x="352.75" y="-59.88" font-family="Helvetica,sans-Serif" font-size="10.00">_array_append_new</text>
</a>
</g>
</g>
<!-- Node34&#45;&gt;Node35 -->
<g id="edge12_Node000034_Node000035" class="edge">
<title>Node34&#45;&gt;Node35</title>
<g id="a_edge12_Node000034_Node000035"><a xlink:title=" ">
<path fill="none" stroke="#63b8ff" d="M452.21,-60.91C438.16,-62.12 423.41,-63.39 409.72,-64.56"/>
<polygon fill="#63b8ff" stroke="#63b8ff" points="452.12,-64.43 461.79,-60.09 451.52,-57.46 452.12,-64.43"/>
</a>
</g>
</g>
<!-- Node35&#45;&gt;Node4 -->
<g id="edge13_Node000035_Node000004" class="edge">
<title>Node35&#45;&gt;Node4</title>
<g id="a_edge13_Node000035_Node000004"><a xlink:title=" ">
<path fill="none" stroke="#63b8ff" d="M284.56,-75.64C252.28,-78.93 213.06,-83.32 178,-88.38 161.9,-90.7 144.5,-93.63 128.55,-96.5"/>
<polygon fill="#63b8ff" stroke="#63b8ff" points="284.57,-79.16 294.17,-74.68 283.87,-72.19 284.57,-79.16"/>
</a>
</g>
</g>
<!-- Node35&#45;&gt;Node29 -->
<g id="edge14_Node000035_Node000029" class="edge">
<title>Node35&#45;&gt;Node29</title>
<g id="a_edge14_Node000035_Node000029"><a xlink:title=" ">
<path fill="none" stroke="#63b8ff" d="M284.87,-88.18C274.07,-91.22 263.25,-94.26 253.51,-97"/>
<polygon fill="#63b8ff" stroke="#63b8ff" points="285.48,-91.65 294.16,-85.57 283.59,-84.91 285.48,-91.65"/>
</a>
</g>
</g>
<!-- Node48&#45;&gt;Node3 -->
<g id="edge16_Node000048_Node000003" class="edge">
<title>Node48&#45;&gt;Node3</title>
<g id="a_edge16_Node000048_Node000003"><a xlink:title=" ">
<path fill="none" stroke="#63b8ff" d="M452.22,-122.4C440.48,-125.14 428.24,-127.99 416.55,-130.72"/>
<polygon fill="#63b8ff" stroke="#63b8ff" points="452.88,-125.84 461.82,-120.16 451.29,-119.03 452.88,-125.84"/>
</a>
</g>
</g>
</g>
</svg>

<g id="navigator" transform="translate(0 0)" fill="#404254">
  <rect fill="#f2f5e9" fill-opacity="0.5" stroke="#606060" stroke-width=".5" x="0" y="0" width="60" height="60"/>
  <use id="zoomplus" xlink:href="#zoomPlus" x="17" y="9" onmousedown="handleZoom(evt,'in')"/>
  <use id="zoomminus" xlink:href="#zoomMin" x="42" y="9" onmousedown="handleZoom(evt,'out')"/>
  <use id="reset" xlink:href="#resetDef" x="30" y="36" onmousedown="handleReset()"/>
   <use id="arrowup" xlink:href="#arrowUp" x="0" y="0" onmousedown="handlePan(0,-1)"/>
  <use id="arrowright" xlink:href="#arrowRight" x="0" y="0" onmousedown="handlePan(1,0)"/>
  <use id="arrowdown" xlink:href="#arrowDown" x="0" y="0" onmousedown="handlePan(0,1)"/>
  <use id="arrowleft" xlink:href="#arrowLeft" x="0" y="0" onmousedown="handlePan(-1,0)"/>
</g>
<svg viewBox="0 0 15 15" width="100%" height="30px" preserveAspectRatio="xMaxYMin meet">
 <g id="arrow_out" transform="scale(0.3 0.3)">
  <a xlink:href="kest__button_8h_a56b5c7012f627d4d3f454029e26f1bef_icgraph_org.svg" target="_base">
   <rect id="button" ry="5" rx="5" y="6" x="6" height="38" width="38"
        fill="#f2f5e9" fill-opacity="0.5" stroke="#606060" stroke-width="1.0"/>
   <path id="arrow"
     d="M 11.500037,31.436501 C 11.940474,20.09759 22.043105,11.32322 32.158766,21.979434 L 37.068811,17.246167 C 37.068811,17.246167 37.088388,32 37.088388,32 L 22.160133,31.978069 C 22.160133,31.978069 26.997745,27.140456 26.997745,27.140456 C 18.528582,18.264221 13.291696,25.230495 11.500037,31.436501 z"
     style="fill:#404040;"/>
  </a>
 </g>
</svg>

<style type='text/css'>
<![CDATA[
[data-mouse-over-selected='false'] { opacity: 0.7; }
[data-mouse-over-selected='true']  { opacity: 1.0; }
]]>
</style>
<script type="application/ecmascript"><![CDATA[
document.addEventListener('DOMContentLoaded', (event) => {
  highlightEdges();
  highlightAdjacentNodes();
});
]]></script>
</svg>
