<?xml version="1.0" encoding="UTF-8" standalone="no"?>
<!DOCTYPE svg PUBLIC "-//W3C//DTD SVG 1.1//EN"
 "http://www.w3.org/Graphics/SVG/1.1/DTD/svg11.dtd">
<!-- Generated by graphviz version 13.1.2 (20250808.2320)
 -->
<!-- Title: kest_fpga_batch_append_filter_updates Pages: 1 -->
<!--zoomable 248 -->

<svg id="main" version="1.1" xmlns="http://www.w3.org/2000/svg" xmlns:xlink="http://www.w3.org/1999/xlink" xml:space="preserve" onload="init(evt)">

<style type="text/css"><![CDATA[
.node, .edge {opacity: 0.7;}
.node.selected, .edge.selected {opacity: 1;}
.edge:hover path { stroke: red; }
.edge:hover polygon { stroke: red; fill: red; }
]]></style>

<defs>
  <circle id="rim" cx="0" cy="0" r="7"/>
  <circle id="rim2" cx="0" cy="0" r="3.5"/>
  <g id="zoomPlus">
    <use xlink:href="#rim" fill="#404040"><set attributeName="fill" to="#808080" begin="zoomplus.mouseover" end="zoomplus.mouseout"/></use>
    <path d="M-4,0h8M0,-4v8" fill="none" stroke="white" stroke-width="1.5" pointer-events="none"/>
  </g>
  <g id="zoomMin">
    <use xlink:href="#rim" fill="#404040"><set attributeName="fill" to="#808080" begin="zoomminus.mouseover" end="zoomminus.mouseout"/></use>
    <path d="M-4,0h8" fill="none" stroke="white" stroke-width="1.5" pointer-events="none"/>
  </g>
  <g id="arrowUp" transform="translate(30 24)">
    <use xlink:href="#rim"/>
    <path pointer-events="none" fill="none" stroke="white" stroke-width="1.5" d="M0,-3.0v7 M-2.5,-0.5L0,-3.0L2.5,-0.5"/>
  </g>
  <g id="arrowRight" transform="rotate(90) translate(36 -43)">
    <use xlink:href="#rim"/>
    <path pointer-events="none" fill="none" stroke="white" stroke-width="1.5" d="M0,-3.0v7 M-2.5,-0.5L0,-3.0L2.5,-0.5"/>
  </g>
  <g id="arrowDown" transform="rotate(180) translate(-30 -48)">
    <use xlink:href="#rim"/>
    <path pointer-events="none" fill="none" stroke="white" stroke-width="1.5" d="M0,-3.0v7 M-2.5,-0.5L0,-3.0L2.5,-0.5"/>
  </g>
  <g id="arrowLeft" transform="rotate(270) translate(-36 17)">
    <use xlink:href="#rim"/>
    <path pointer-events="none" fill="none" stroke="white" stroke-width="1.5" d="M0,-3.0v7 M-2.5,-0.5L0,-3.0L2.5,-0.5"/>
  </g>
  <g id="resetDef">
    <use xlink:href="#rim2" fill="#404040"><set attributeName="fill" to="#808080" begin="reset.mouseover" end="reset.mouseout"/></use>
  </g>
</defs>
<script type="application/ecmascript">
var viewWidth = 649;
var viewHeight = 248;
var sectionId = 'dynsection-29';
</script>
<script type="application/ecmascript" xlink:href="svg.min.js"/>
<svg id="graph" class="graph">
<g id="viewport">
<title>kest_fpga_batch_append_filter_updates</title>
<!-- Node1 -->
<g id="Node000001" class="node">
<title>Node1</title>
<g id="a_Node000001"><a xlink:title=" ">
<polygon fill="#999999" stroke="#666666" points="640.75,-174.88 504,-174.88 504,-141.38 640.75,-141.38 640.75,-174.88"/>
<text xml:space="preserve" text-anchor="start" x="512" y="-161.38" font-family="Helvetica,sans-Serif" font-size="10.00">kest_fpga_batch_append</text>
<text xml:space="preserve" text-anchor="middle" x="572.38" y="-148.62" font-family="Helvetica,sans-Serif" font-size="10.00">_filter_updates</text>
</a>
</g>
</g>
<!-- Node2 -->
<g id="Node000002" class="node">
<title>Node2</title>
<g id="a_Node000002"><a xlink:href="kest__fpga__encoding_8c.html#ac394803c8e9221fd364038f343070fcb" target="_top" xlink:title=" ">
<polygon fill="white" stroke="#666666" points="468,-174.88 331.25,-174.88 331.25,-141.38 468,-141.38 468,-174.88"/>
<text xml:space="preserve" text-anchor="start" x="339.25" y="-161.38" font-family="Helvetica,sans-Serif" font-size="10.00">kest_fpga_batch_append</text>
<text xml:space="preserve" text-anchor="middle" x="399.62" y="-148.62" font-family="Helvetica,sans-Serif" font-size="10.00">_resource_updates</text>
</a>
</g>
</g>
<!-- Node1&#45;&gt;Node2 -->
<g id="edge1_Node000001_Node000002" class="edge">
<title>Node1&#45;&gt;Node2</title>
<g id="a_edge1_Node000001_Node000002"><a xlink:title=" ">
<path fill="none" stroke="#63b8ff" d="M492.58,-158.12C484.52,-158.12 476.38,-158.12 468.46,-158.12"/>
<polygon fill="#63b8ff" stroke="#63b8ff" points="492.38,-161.63 502.38,-158.13 492.38,-154.63 492.38,-161.63"/>
</a>
</g>
</g>
<!-- Node3 -->
<g id="Node000003" class="node">
<title>Node3</title>
<g id="a_Node000003"><a xlink:href="kest__fpga__encoding_8c.html#a815f4fb2e5a9d1e468df416e3385a638" target="_top" xlink:title=" ">
<polygon fill="white" stroke="#666666" points="295.25,-213.25 172,-213.25 172,-167 295.25,-167 295.25,-213.25"/>
<text xml:space="preserve" text-anchor="start" x="180" y="-199.75" font-family="Helvetica,sans-Serif" font-size="10.00">kest_fpga_transfer</text>
<text xml:space="preserve" text-anchor="start" x="180" y="-187" font-family="Helvetica,sans-Serif" font-size="10.00">_batch_append_effect</text>
<text xml:space="preserve" text-anchor="middle" x="233.62" y="-174.25" font-family="Helvetica,sans-Serif" font-size="10.00">_resource_updates</text>
</a>
</g>
</g>
<!-- Node2&#45;&gt;Node3 -->
<g id="edge2_Node000002_Node000003" class="edge">
<title>Node2&#45;&gt;Node3</title>
<g id="a_edge2_Node000002_Node000003"><a xlink:title=" ">
<path fill="none" stroke="#63b8ff" d="M319.88,-173.49C311.71,-175.08 303.49,-176.69 295.56,-178.24"/>
<polygon fill="#63b8ff" stroke="#63b8ff" points="320.34,-176.97 329.49,-171.62 319,-170.1 320.34,-176.97"/>
</a>
</g>
</g>
<!-- Node4 -->
<g id="Node000004" class="node">
<title>Node4</title>
<g id="a_Node000004"><a xlink:href="kest__fpga__encoding_8c.html#ade3fe9441d89d772781808237a764a94" target="_top" xlink:title=" ">
<polygon fill="white" stroke="#666666" points="295.25,-149.25 172,-149.25 172,-103 295.25,-103 295.25,-149.25"/>
<text xml:space="preserve" text-anchor="start" x="180" y="-135.75" font-family="Helvetica,sans-Serif" font-size="10.00">kest_fpga_transfer</text>
<text xml:space="preserve" text-anchor="start" x="180" y="-123" font-family="Helvetica,sans-Serif" font-size="10.00">_batch_append_effect</text>
<text xml:space="preserve" text-anchor="middle" x="233.62" y="-110.25" font-family="Helvetica,sans-Serif" font-size="10.00">_resource_updates_</text>
</a>
</g>
</g>
<!-- Node2&#45;&gt;Node4 -->
<g id="edge3_Node000002_Node000004" class="edge">
<title>Node2&#45;&gt;Node4</title>
<g id="a_edge3_Node000002_Node000004"><a xlink:title=" ">
<path fill="none" stroke="#63b8ff" d="M319.88,-142.76C311.71,-141.17 303.49,-139.56 295.56,-138.01"/>
<polygon fill="#63b8ff" stroke="#63b8ff" points="319,-146.15 329.49,-144.63 320.34,-139.28 319,-146.15"/>
</a>
</g>
</g>
<!-- Node5 -->
<g id="Node000005" class="node">
<title>Node5</title>
<g id="a_Node000005"><a xlink:href="kest__effect_8c.html#a288d2643ff7af914502102475595ed8f" target="_top" xlink:title=" ">
<polygon fill="#fff0f0" stroke="red" points="122.12,-239.88 13.88,-239.88 13.88,-206.38 122.12,-206.38 122.12,-239.88"/>
<text xml:space="preserve" text-anchor="start" x="21.88" y="-226.38" font-family="Helvetica,sans-Serif" font-size="10.00">kest_effect_handle</text>
<text xml:space="preserve" text-anchor="middle" x="68" y="-213.62" font-family="Helvetica,sans-Serif" font-size="10.00">_updates</text>
</a>
</g>
</g>
<!-- Node4&#45;&gt;Node5 -->
<g id="edge4_Node000004_Node000005" class="edge">
<title>Node4&#45;&gt;Node5</title>
<g id="a_edge4_Node000004_Node000005"><a xlink:title=" ">
<path fill="none" stroke="#63b8ff" d="M174.96,-155.92C173.95,-156.65 172.97,-157.38 172,-158.12 153.3,-172.5 155.5,-183.85 136,-197.12 131.15,-200.43 125.83,-203.39 120.36,-206.03"/>
<polygon fill="#63b8ff" stroke="#63b8ff" points="176.73,-158.94 183.09,-150.47 172.84,-153.13 176.73,-158.94"/>
</a>
</g>
</g>
<!-- Node9 -->
<g id="Node000009" class="node">
<title>Node9</title>
<g id="a_Node000009"><a xlink:href="kest__effect_8c.html#ad5745ec5888a0568782154fb4f8adfee" target="_top" xlink:title=" ">
<polygon fill="#fff0f0" stroke="red" points="122.12,-187.88 13.88,-187.88 13.88,-154.38 122.12,-154.38 122.12,-187.88"/>
<text xml:space="preserve" text-anchor="start" x="21.88" y="-174.38" font-family="Helvetica,sans-Serif" font-size="10.00">kest_effect_handle</text>
<text xml:space="preserve" text-anchor="middle" x="68" y="-161.62" font-family="Helvetica,sans-Serif" font-size="10.00">_updates_inc_ui</text>
</a>
</g>
</g>
<!-- Node4&#45;&gt;Node9 -->
<g id="edge5_Node000004_Node000009" class="edge">
<title>Node4&#45;&gt;Node9</title>
<g id="a_edge5_Node000004_Node000009"><a xlink:title=" ">
<path fill="none" stroke="#63b8ff" d="M160.94,-145.84C148.01,-149.39 134.74,-153.05 122.44,-156.43"/>
<polygon fill="#63b8ff" stroke="#63b8ff" points="161.52,-149.31 170.24,-143.28 159.67,-142.56 161.52,-149.31"/>
</a>
</g>
</g>
<!-- Node10 -->
<g id="Node000010" class="node">
<title>Node10</title>
<g id="a_Node000010"><a xlink:href="kest__effect_8c.html#a490655823471fa9f081e6252b13da30e" target="_top" xlink:title=" ">
<polygon fill="white" stroke="#666666" points="136,-136.5 0,-136.5 0,-115.75 136,-115.75 136,-136.5"/>
<text xml:space="preserve" text-anchor="middle" x="68" y="-123" font-family="Helvetica,sans-Serif" font-size="10.00">kest_effect_update_fpga</text>
</a>
</g>
</g>
<!-- Node4&#45;&gt;Node10 -->
<g id="edge6_Node000004_Node000010" class="edge">
<title>Node4&#45;&gt;Node10</title>
<g id="a_edge6_Node000004_Node000010"><a xlink:title=" ">
<path fill="none" stroke="#63b8ff" d="M160.46,-126.12C152.43,-126.12 144.27,-126.12 136.3,-126.12"/>
<polygon fill="#63b8ff" stroke="#63b8ff" points="160.18,-129.63 170.18,-126.13 160.18,-122.63 160.18,-129.63"/>
</a>
</g>
</g>
<!-- Node11 -->
<g id="Node000011" class="node">
<title>Node11</title>
<g id="a_Node000011"><a xlink:href="kest__effect_8c.html#acd72b0b8d69b207a12265887b06fc7f9" target="_top" xlink:title=" ">
<polygon fill="white" stroke="#666666" points="122.5,-97.88 13.5,-97.88 13.5,-64.38 122.5,-64.38 122.5,-97.88"/>
<text xml:space="preserve" text-anchor="start" x="21.5" y="-84.38" font-family="Helvetica,sans-Serif" font-size="10.00">kest_effect_update</text>
<text xml:space="preserve" text-anchor="middle" x="68" y="-71.62" font-family="Helvetica,sans-Serif" font-size="10.00">_sync_no_pw</text>
</a>
</g>
</g>
<!-- Node4&#45;&gt;Node11 -->
<g id="edge7_Node000004_Node000011" class="edge">
<title>Node4&#45;&gt;Node11</title>
<g id="a_edge7_Node000004_Node000011"><a xlink:title=" ">
<path fill="none" stroke="#63b8ff" d="M160.68,-106.34C148.02,-102.86 135.04,-99.29 122.97,-95.97"/>
<polygon fill="#63b8ff" stroke="#63b8ff" points="159.67,-109.69 170.24,-108.97 161.52,-102.94 159.67,-109.69"/>
</a>
</g>
</g>
<!-- Node12 -->
<g id="Node000012" class="node">
<title>Node12</title>
<g id="a_Node000012"><a xlink:href="kest__fpga__encoding_8c.html#a88e143203d90d22159a81888f02b3c11" target="_top" xlink:title=" ">
<polygon fill="#fff0f0" stroke="red" points="129.62,-46.25 6.38,-46.25 6.38,0 129.62,0 129.62,-46.25"/>
<text xml:space="preserve" text-anchor="start" x="14.38" y="-32.75" font-family="Helvetica,sans-Serif" font-size="10.00">kest_fpga_transfer</text>
<text xml:space="preserve" text-anchor="start" x="14.38" y="-20" font-family="Helvetica,sans-Serif" font-size="10.00">_batch_append_effect</text>
<text xml:space="preserve" text-anchor="middle" x="68" y="-7.25" font-family="Helvetica,sans-Serif" font-size="10.00">_updates</text>
</a>
</g>
</g>
<!-- Node4&#45;&gt;Node12 -->
<g id="edge8_Node000004_Node000012" class="edge">
<title>Node4&#45;&gt;Node12</title>
<g id="a_edge8_Node000004_Node000012"><a xlink:title=" ">
<path fill="none" stroke="#63b8ff" d="M194.87,-95.82C177.47,-82.53 156.23,-67.24 136,-55.12 131.13,-52.21 125.96,-49.35 120.73,-46.62"/>
<polygon fill="#63b8ff" stroke="#63b8ff" points="192.34,-98.29 202.39,-101.63 196.62,-92.75 192.34,-98.29"/>
</a>
</g>
</g>
</g>
</svg>

<g id="navigator" transform="translate(0 0)" fill="#404254">
  <rect fill="#f2f5e9" fill-opacity="0.5" stroke="#606060" stroke-width=".5" x="0" y="0" width="60" height="60"/>
  <use id="zoomplus" xlink:href="#zoomPlus" x="17" y="9" onmousedown="handleZoom(evt,'in')"/>
  <use id="zoomminus" xlink:href="#zoomMin" x="42" y="9" onmousedown="handleZoom(evt,'out')"/>
  <use id="reset" xlink:href="#resetDef" x="30" y="36" onmousedown="handleReset()"/>
   <use id="arrowup" xlink:href="#arrowUp" x="0" y="0" onmousedown="handlePan(0,-1)"/>
  <use id="arrowright" xlink:href="#arrowRight" x="0" y="0" onmousedown="handlePan(1,0)"/>
  <use id="arrowdown" xlink:href="#arrowDown" x="0" y="0" onmousedown="handlePan(0,1)"/>
  <use id="arrowleft" xlink:href="#arrowLeft" x="0" y="0" onmousedown="handlePan(-1,0)"/>
</g>
<svg viewBox="0 0 15 15" width="100%" height="30px" preserveAspectRatio="xMaxYMin meet">
 <g id="arrow_out" transform="scale(0.3 0.3)">
  <a xlink:href="kest__fpga__encoding_8c_a64f5333c5ff60101795695bce0de75d5_icgraph_org.svg" target="_base">
   <rect id="button" ry="5" rx="5" y="6" x="6" height="38" width="38"
        fill="#f2f5e9" fill-opacity="0.5" stroke="#606060" stroke-width="1.0"/>
   <path id="arrow"
     d="M 11.500037,31.436501 C 11.940474,20.09759 22.043105,11.32322 32.158766,21.979434 L 37.068811,17.246167 C 37.068811,17.246167 37.088388,32 37.088388,32 L 22.160133,31.978069 C 22.160133,31.978069 26.997745,27.140456 26.997745,27.140456 C 18.528582,18.264221 13.291696,25.230495 11.500037,31.436501 z"
     style="fill:#404040;"/>
  </a>
 </g>
</svg>

<style type='text/css'>
<![CDATA[
[data-mouse-over-selected='false'] { opacity: 0.7; }
[data-mouse-over-selected='true']  { opacity: 1.0; }
]]>
</style>
<script type="application/ecmascript"><![CDATA[
document.addEventListener('DOMContentLoaded', (event) => {
  highlightEdges();
  highlightAdjacentNodes();
});
]]></script>
</svg>
