<?xml version="1.0" encoding="UTF-8" standalone="no"?>
<!DOCTYPE svg PUBLIC "-//W3C//DTD SVG 1.1//EN"
 "http://www.w3.org/Graphics/SVG/1.1/DTD/svg11.dtd">
<!-- Generated by graphviz version 13.1.2 (20250808.2320)
 -->
<!-- Title: kest_update_task Pages: 1 -->
<!--zoomable 987 -->

<svg id="main" version="1.1" xmlns="http://www.w3.org/2000/svg" xmlns:xlink="http://www.w3.org/1999/xlink" xml:space="preserve" onload="init(evt)">

<style type="text/css"><![CDATA[
.node, .edge {opacity: 0.7;}
.node.selected, .edge.selected {opacity: 1;}
.edge:hover path { stroke: red; }
.edge:hover polygon { stroke: red; fill: red; }
]]></style>

<defs>
  <circle id="rim" cx="0" cy="0" r="7"/>
  <circle id="rim2" cx="0" cy="0" r="3.5"/>
  <g id="zoomPlus">
    <use xlink:href="#rim" fill="#404040"><set attributeName="fill" to="#808080" begin="zoomplus.mouseover" end="zoomplus.mouseout"/></use>
    <path d="M-4,0h8M0,-4v8" fill="none" stroke="white" stroke-width="1.5" pointer-events="none"/>
  </g>
  <g id="zoomMin">
    <use xlink:href="#rim" fill="#404040"><set attributeName="fill" to="#808080" begin="zoomminus.mouseover" end="zoomminus.mouseout"/></use>
    <path d="M-4,0h8" fill="none" stroke="white" stroke-width="1.5" pointer-events="none"/>
  </g>
  <g id="arrowUp" transform="translate(30 24)">
    <use xlink:href="#rim"/>
    <path pointer-events="none" fill="none" stroke="white" stroke-width="1.5" d="M0,-3.0v7 M-2.5,-0.5L0,-3.0L2.5,-0.5"/>
  </g>
  <g id="arrowRight" transform="rotate(90) translate(36 -43)">
    <use xlink:href="#rim"/>
    <path pointer-events="none" fill="none" stroke="white" stroke-width="1.5" d="M0,-3.0v7 M-2.5,-0.5L0,-3.0L2.5,-0.5"/>
  </g>
  <g id="arrowDown" transform="rotate(180) translate(-30 -48)">
    <use xlink:href="#rim"/>
    <path pointer-events="none" fill="none" stroke="white" stroke-width="1.5" d="M0,-3.0v7 M-2.5,-0.5L0,-3.0L2.5,-0.5"/>
  </g>
  <g id="arrowLeft" transform="rotate(270) translate(-36 17)">
    <use xlink:href="#rim"/>
    <path pointer-events="none" fill="none" stroke="white" stroke-width="1.5" d="M0,-3.0v7 M-2.5,-0.5L0,-3.0L2.5,-0.5"/>
  </g>
  <g id="resetDef">
    <use xlink:href="#rim2" fill="#404040"><set attributeName="fill" to="#808080" begin="reset.mouseover" end="reset.mouseout"/></use>
  </g>
</defs>
<script type="application/ecmascript">
var viewWidth = 825;
var viewHeight = 987;
var sectionId = 'dynsection-15';
</script>
<script type="application/ecmascript" xlink:href="svg.min.js"/>
<svg id="graph" class="graph">
<g id="viewport">
<title>kest_update_task</title>
<!-- Node1 -->
<g id="Node000001" class="node">
<title>Node1</title>
<g id="a_Node000001"><a xlink:title=" ">
<polygon fill="#999999" stroke="#666666" points="101.5,-295.12 0,-295.12 0,-274.38 101.5,-274.38 101.5,-295.12"/>
<text xml:space="preserve" text-anchor="middle" x="50.75" y="-281.62" font-family="Helvetica,sans-Serif" font-size="10.00">kest_update_task</text>
</a>
</g>
</g>
<!-- Node2 -->
<g id="Node000002" class="node">
<title>Node2</title>
<g id="a_Node000002"><a xlink:href="kest__update_8c.html#a2173f990f4c035245eee476d0981d907" target="_top" xlink:title=" ">
<polygon fill="white" stroke="#666666" points="632.12,-917.5 523.12,-917.5 523.12,-884 632.12,-884 632.12,-917.5"/>
<text xml:space="preserve" text-anchor="start" x="531.12" y="-904" font-family="Helvetica,sans-Serif" font-size="10.00">kest_updater_drain</text>
<text xml:space="preserve" text-anchor="middle" x="577.62" y="-891.25" font-family="Helvetica,sans-Serif" font-size="10.00">_lists</text>
</a>
</g>
</g>
<!-- Node1&#45;&gt;Node2 -->
<g id="edge1_Node000001_Node000002" class="edge">
<title>Node1&#45;&gt;Node2</title>
<g id="a_edge1_Node000001_Node000002"><a xlink:title=" ">
<path fill="none" stroke="#63b8ff" d="M51.69,-295.46C51.84,-345.81 57.32,-562.83 137.5,-713.75 186.75,-806.45 208.11,-837.95 303.5,-881.75 369.47,-912.04 453.94,-912.95 511.35,-908.76"/>
<polygon fill="#63b8ff" stroke="#63b8ff" points="511.63,-912.25 521.31,-907.95 511.06,-905.27 511.63,-912.25"/>
</a>
</g>
</g>
<!-- Node4 -->
<g id="Node000004" class="node">
<title>Node4</title>
<g id="a_Node000004"><a xlink:href="kest__update_8c.html#a93c1650dca05528eb03e2c373753ba07" target="_top" xlink:title=" ">
<polygon fill="white" stroke="#666666" points="266.38,-391.5 138.62,-391.5 138.62,-358 266.38,-358 266.38,-391.5"/>
<text xml:space="preserve" text-anchor="start" x="146.62" y="-378" font-family="Helvetica,sans-Serif" font-size="10.00">kest_updater_generate</text>
<text xml:space="preserve" text-anchor="middle" x="202.5" y="-365.25" font-family="Helvetica,sans-Serif" font-size="10.00">_command_list</text>
</a>
</g>
</g>
<!-- Node1&#45;&gt;Node4 -->
<g id="edge3_Node000001_Node000004" class="edge">
<title>Node1&#45;&gt;Node4</title>
<g id="a_edge3_Node000001_Node000004"><a xlink:title=" ">
<path fill="none" stroke="#63b8ff" d="M69.81,-295.61C92.81,-309.43 133.14,-333.67 163.13,-351.69"/>
<polygon fill="#63b8ff" stroke="#63b8ff" points="161.19,-354.61 171.57,-356.76 164.8,-348.61 161.19,-354.61"/>
</a>
</g>
</g>
<!-- Node36 -->
<g id="Node000036" class="node">
<title>Node36</title>
<g id="a_Node000036"><a xlink:href="kest__update_8c.html#a683b2e516019ed6c0ea61600b739f1a8" target="_top" xlink:title=" ">
<polygon fill="white" stroke="#666666" points="266.38,-962.5 138.62,-962.5 138.62,-929 266.38,-929 266.38,-962.5"/>
<text xml:space="preserve" text-anchor="start" x="146.62" y="-949" font-family="Helvetica,sans-Serif" font-size="10.00">kest_updater_generate</text>
<text xml:space="preserve" text-anchor="middle" x="202.5" y="-936.25" font-family="Helvetica,sans-Serif" font-size="10.00">_tx_batch</text>
</a>
</g>
</g>
<!-- Node1&#45;&gt;Node36 -->
<g id="edge18_Node000001_Node000036" class="edge">
<title>Node1&#45;&gt;Node36</title>
<g id="a_edge18_Node000001_Node000036"><a xlink:title=" ">
<path fill="none" stroke="#63b8ff" d="M51.86,-295.59C52.82,-370.41 61.67,-810.2 137.5,-914.75 139.37,-917.33 141.51,-919.7 143.85,-921.88"/>
<polygon fill="#63b8ff" stroke="#63b8ff" points="141.23,-924.28 151.27,-927.66 145.53,-918.76 141.23,-924.28"/>
</a>
</g>
</g>
<!-- Node52 -->
<g id="Node000052" class="node">
<title>Node52</title>
<g id="a_Node000052"><a xlink:href="kest__update_8c.html#a8f65010d84004b5af5631ec324017e65" target="_top" xlink:title=" ">
<polygon fill="white" stroke="#666666" points="261.12,-704.5 143.88,-704.5 143.88,-671 261.12,-671 261.12,-704.5"/>
<text xml:space="preserve" text-anchor="start" x="151.88" y="-691" font-family="Helvetica,sans-Serif" font-size="10.00">kest_updater_handle</text>
<text xml:space="preserve" text-anchor="middle" x="202.5" y="-678.25" font-family="Helvetica,sans-Serif" font-size="10.00">_update</text>
</a>
</g>
</g>
<!-- Node1&#45;&gt;Node52 -->
<g id="edge21_Node000001_Node000052" class="edge">
<title>Node1&#45;&gt;Node52</title>
<g id="a_edge21_Node000001_Node000052"><a xlink:title=" ">
<path fill="none" stroke="#63b8ff" d="M53.83,-295.58C61.63,-334.99 91.06,-474.05 137.5,-580.75 150.05,-609.58 168.96,-640.13 182.97,-661.18"/>
<polygon fill="#63b8ff" stroke="#63b8ff" points="180.06,-663.12 188.56,-669.44 185.86,-659.2 180.06,-663.12"/>
</a>
</g>
</g>
<!-- Node75 -->
<g id="Node000075" class="node">
<title>Node75</title>
<g id="a_Node000075"><a xlink:href="kest__update_8c.html#afa0a8bf76a60ad8627b426229ca4b3ca" target="_top" xlink:title=" ">
<polygon fill="white" stroke="#666666" points="255.88,-197.5 149.12,-197.5 149.12,-164 255.88,-164 255.88,-197.5"/>
<text xml:space="preserve" text-anchor="start" x="157.12" y="-184" font-family="Helvetica,sans-Serif" font-size="10.00">kest_updater_print</text>
<text xml:space="preserve" text-anchor="middle" x="202.5" y="-171.25" font-family="Helvetica,sans-Serif" font-size="10.00">_allocs</text>
</a>
</g>
</g>
<!-- Node1&#45;&gt;Node75 -->
<g id="edge32_Node000001_Node000075" class="edge">
<title>Node1&#45;&gt;Node75</title>
<g id="a_edge32_Node000001_Node000075"><a xlink:title=" ">
<path fill="none" stroke="#63b8ff" d="M61.09,-274.13C75.91,-257.8 106.34,-226.37 137.5,-206.75 139.48,-205.5 141.53,-204.29 143.63,-203.12"/>
<polygon fill="#63b8ff" stroke="#63b8ff" points="145.08,-206.32 152.38,-198.64 141.88,-200.09 145.08,-206.32"/>
</a>
</g>
</g>
<!-- Node76 -->
<g id="Node000076" class="node">
<title>Node76</title>
<g id="a_Node000076"><a xlink:href="kest__update_8c.html#abbdab64ee10309f1d032de20c5088114" target="_top" xlink:title=" ">
<polygon fill="white" stroke="#666666" points="255.88,-571.5 149.12,-571.5 149.12,-538 255.88,-538 255.88,-571.5"/>
<text xml:space="preserve" text-anchor="start" x="157.12" y="-558" font-family="Helvetica,sans-Serif" font-size="10.00">kest_updater_print</text>
<text xml:space="preserve" text-anchor="middle" x="202.5" y="-545.25" font-family="Helvetica,sans-Serif" font-size="10.00">_command_list</text>
</a>
</g>
</g>
<!-- Node1&#45;&gt;Node76 -->
<g id="edge33_Node000001_Node000076" class="edge">
<title>Node1&#45;&gt;Node76</title>
<g id="a_edge33_Node000001_Node000076"><a xlink:title=" ">
<path fill="none" stroke="#63b8ff" d="M57.62,-295.33C79.15,-334.16 154.23,-469.52 186.53,-527.76"/>
<polygon fill="#63b8ff" stroke="#63b8ff" points="183.4,-529.33 191.31,-536.37 189.52,-525.93 183.4,-529.33"/>
</a>
</g>
</g>
<!-- Node85 -->
<g id="Node000085" class="node">
<title>Node85</title>
<g id="a_Node000085"><a xlink:href="kest__update_8c.html#aad06a3a37a6552d9cff5e2b435ff1f0b" target="_top" xlink:title=" ">
<polygon fill="white" stroke="#666666" points="255.88,-301.5 149.12,-301.5 149.12,-268 255.88,-268 255.88,-301.5"/>
<text xml:space="preserve" text-anchor="start" x="157.12" y="-288" font-family="Helvetica,sans-Serif" font-size="10.00">kest_updater_print</text>
<text xml:space="preserve" text-anchor="middle" x="202.5" y="-275.25" font-family="Helvetica,sans-Serif" font-size="10.00">_filter_writes</text>
</a>
</g>
</g>
<!-- Node1&#45;&gt;Node85 -->
<g id="edge37_Node000001_Node000085" class="edge">
<title>Node1&#45;&gt;Node85</title>
<g id="a_edge37_Node000001_Node000085"><a xlink:title=" ">
<path fill="none" stroke="#63b8ff" d="M101.61,-284.75C113.09,-284.75 125.45,-284.75 137.44,-284.75"/>
<polygon fill="#63b8ff" stroke="#63b8ff" points="137.26,-288.25 147.26,-284.75 137.26,-281.25 137.26,-288.25"/>
</a>
</g>
</g>
<!-- Node86 -->
<g id="Node000086" class="node">
<title>Node86</title>
<g id="a_Node000086"><a xlink:href="kest__update_8c.html#a88cb4df30fb036e1999c290e6099b873" target="_top" xlink:title=" ">
<polygon fill="white" stroke="#666666" points="255.88,-145.5 149.12,-145.5 149.12,-112 255.88,-112 255.88,-145.5"/>
<text xml:space="preserve" text-anchor="start" x="157.12" y="-132" font-family="Helvetica,sans-Serif" font-size="10.00">kest_updater_print</text>
<text xml:space="preserve" text-anchor="middle" x="202.5" y="-119.25" font-family="Helvetica,sans-Serif" font-size="10.00">_instr_writes</text>
</a>
</g>
</g>
<!-- Node1&#45;&gt;Node86 -->
<g id="edge40_Node000001_Node000086" class="edge">
<title>Node1&#45;&gt;Node86</title>
<g id="a_edge40_Node000001_Node000086"><a xlink:title=" ">
<path fill="none" stroke="#63b8ff" d="M56.1,-274.1C66.58,-249.7 95.48,-189.21 137.5,-154.75 138.78,-153.7 140.1,-152.7 141.46,-151.72"/>
<polygon fill="#63b8ff" stroke="#63b8ff" points="143,-154.89 149.63,-146.63 139.3,-148.95 143,-154.89"/>
</a>
</g>
</g>
<!-- Node87 -->
<g id="Node000087" class="node">
<title>Node87</title>
<g id="a_Node000087"><a xlink:href="kest__update_8c.html#a6ac56bd27d651d11d6ffa61dc201b988" target="_top" xlink:title=" ">
<polygon fill="white" stroke="#666666" points="255.88,-249.5 149.12,-249.5 149.12,-216 255.88,-216 255.88,-249.5"/>
<text xml:space="preserve" text-anchor="start" x="157.12" y="-236" font-family="Helvetica,sans-Serif" font-size="10.00">kest_updater_print</text>
<text xml:space="preserve" text-anchor="middle" x="202.5" y="-223.25" font-family="Helvetica,sans-Serif" font-size="10.00">_reg_writes</text>
</a>
</g>
</g>
<!-- Node1&#45;&gt;Node87 -->
<g id="edge41_Node000001_Node000087" class="edge">
<title>Node1&#45;&gt;Node87</title>
<g id="a_edge41_Node000001_Node000087"><a xlink:title=" ">
<path fill="none" stroke="#63b8ff" d="M82.78,-273.98C99.7,-268.1 121.23,-260.62 141.3,-253.65"/>
<polygon fill="#63b8ff" stroke="#63b8ff" points="142.21,-257.04 150.51,-250.46 139.92,-250.43 142.21,-257.04"/>
</a>
</g>
</g>
<!-- Node88 -->
<g id="Node000088" class="node">
<title>Node88</title>
<g id="a_Node000088"><a xlink:href="kest__update_8c.html#a457bbd02b4b76425d10929f7f7c223ee" target="_top" xlink:title=" ">
<polygon fill="white" stroke="#666666" points="256.25,-94.12 148.75,-94.12 148.75,-73.38 256.25,-73.38 256.25,-94.12"/>
<text xml:space="preserve" text-anchor="middle" x="202.5" y="-80.62" font-family="Helvetica,sans-Serif" font-size="10.00">kest_updater_send</text>
</a>
</g>
</g>
<!-- Node1&#45;&gt;Node88 -->
<g id="edge44_Node000001_Node000088" class="edge">
<title>Node1&#45;&gt;Node88</title>
<g id="a_edge44_Node000001_Node000088"><a xlink:title=" ">
<path fill="none" stroke="#63b8ff" d="M53.58,-274.31C59.59,-243.27 81.59,-150.76 137.5,-102.75 138.45,-101.94 139.42,-101.16 140.43,-100.42"/>
<polygon fill="#63b8ff" stroke="#63b8ff" points="142.09,-103.5 148.87,-95.36 138.49,-97.5 142.09,-103.5"/>
</a>
</g>
</g>
<!-- Node92 -->
<g id="Node000092" class="node">
<title>Node92</title>
<g id="a_Node000092"><a xlink:href="kest__update_8c.html#a51fa3a45207ea1c8320caebba93c972a" target="_top" xlink:title=" ">
<polygon fill="white" stroke="#666666" points="267.5,-49.12 137.5,-49.12 137.5,-28.38 267.5,-28.38 267.5,-49.12"/>
<text xml:space="preserve" text-anchor="middle" x="202.5" y="-35.62" font-family="Helvetica,sans-Serif" font-size="10.00">kest_updater_state_init</text>
</a>
</g>
</g>
<!-- Node1&#45;&gt;Node92 -->
<g id="edge47_Node000001_Node000092" class="edge">
<title>Node1&#45;&gt;Node92</title>
<g id="a_edge47_Node000001_Node000092"><a xlink:title=" ">
<path fill="none" stroke="#63b8ff" d="M52.94,-273.97C57.37,-238.98 75.91,-127.22 137.5,-64.75 141.3,-60.9 145.75,-57.59 150.5,-54.77"/>
<polygon fill="#63b8ff" stroke="#63b8ff" points="151.91,-57.97 159.22,-50.3 148.72,-51.74 151.91,-57.97"/>
</a>
</g>
</g>
<!-- Node3 -->
<g id="Node000003" class="node">
<title>Node3</title>
<g id="a_Node000003"><a xlink:href="kest__fpga__io_8c.html#a4f621e3f92dd7cb3e44bddd26d557f06" target="_top" xlink:title=" ">
<polygon fill="white" stroke="#666666" points="817.25,-956.12 691.75,-956.12 691.75,-935.38 817.25,-935.38 817.25,-956.12"/>
<text xml:space="preserve" text-anchor="middle" x="754.5" y="-942.62" font-family="Helvetica,sans-Serif" font-size="10.00">kest_fpga_batch_drain</text>
</a>
</g>
</g>
<!-- Node2&#45;&gt;Node3 -->
<g id="edge2_Node000002_Node000003" class="edge">
<title>Node2&#45;&gt;Node3</title>
<g id="a_edge2_Node000002_Node000003"><a xlink:title=" ">
<path fill="none" stroke="#63b8ff" d="M632.52,-914.62C654.14,-920.18 678.99,-926.58 700.52,-932.12"/>
<polygon fill="#63b8ff" stroke="#63b8ff" points="699.42,-935.45 709.97,-934.55 701.16,-928.67 699.42,-935.45"/>
</a>
</g>
</g>
<!-- Node5 -->
<g id="Node000005" class="node">
<title>Node5</title>
<g id="a_Node000005"><a xlink:href="kest__update_8c.html#ac3659ef53b4dd5c295b534dc49b615ee" target="_top" xlink:title=" ">
<polygon fill="white" stroke="#666666" points="450.38,-408.12 316.62,-408.12 316.62,-387.38 450.38,-387.38 450.38,-408.12"/>
<text xml:space="preserve" text-anchor="middle" x="383.5" y="-394.62" font-family="Helvetica,sans-Serif" font-size="10.00">kest_alloc_to_command</text>
</a>
</g>
</g>
<!-- Node4&#45;&gt;Node5 -->
<g id="edge4_Node000004_Node000005" class="edge">
<title>Node4&#45;&gt;Node5</title>
<g id="a_edge4_Node000004_Node000005"><a xlink:title=" ">
<path fill="none" stroke="#63b8ff" d="M266.86,-382.89C279.23,-384.48 292.33,-386.16 305.09,-387.8"/>
<polygon fill="#63b8ff" stroke="#63b8ff" points="304.33,-391.23 314.69,-389.04 305.22,-384.29 304.33,-391.23"/>
</a>
</g>
</g>
<!-- Node8 -->
<g id="Node000008" class="node">
<title>Node8</title>
<g id="a_Node000008"><a xlink:href="kest__error__codes_8c.html#a0f4c77127bc0b77264a21104979c576a" target="_top" xlink:title=" ">
<polygon fill="white" stroke="#666666" points="631.75,-730.5 523.5,-730.5 523.5,-697 631.75,-697 631.75,-730.5"/>
<text xml:space="preserve" text-anchor="start" x="531.5" y="-717" font-family="Helvetica,sans-Serif" font-size="10.00">kest_error_code_to</text>
<text xml:space="preserve" text-anchor="middle" x="577.62" y="-704.25" font-family="Helvetica,sans-Serif" font-size="10.00">_string</text>
</a>
</g>
</g>
<!-- Node4&#45;&gt;Node8 -->
<g id="edge7_Node000004_Node000008" class="edge">
<title>Node4&#45;&gt;Node8</title>
<g id="a_edge7_Node000004_Node000008"><a xlink:title=" ">
<path fill="none" stroke="#63b8ff" d="M240.46,-391.99C259.09,-400.23 282.2,-409.8 303.5,-416.75 372.98,-439.42 410.97,-403.93 463.5,-454.75 507.2,-497.03 475.48,-530.88 499.5,-586.75 515.33,-623.57 540.35,-662.48 557.58,-687.38"/>
<polygon fill="#63b8ff" stroke="#63b8ff" points="554.51,-689.1 563.12,-695.28 560.24,-685.08 554.51,-689.1"/>
</a>
</g>
</g>
<!-- Node9 -->
<g id="Node000009" class="node">
<title>Node9</title>
<g id="a_Node000009"><a xlink:href="kest__fpga__cmd_8c.html#a315cba5ab49a6fe6899d927f63251c3c" target="_top" xlink:title=" ">
<polygon fill="white" stroke="#666666" points="463.5,-497.5 303.5,-497.5 303.5,-464 463.5,-464 463.5,-497.5"/>
<text xml:space="preserve" text-anchor="start" x="311.5" y="-484" font-family="Helvetica,sans-Serif" font-size="10.00">kest_fpga_command_commit</text>
<text xml:space="preserve" text-anchor="middle" x="383.5" y="-471.25" font-family="Helvetica,sans-Serif" font-size="10.00">_filter_coefs</text>
</a>
</g>
</g>
<!-- Node4&#45;&gt;Node9 -->
<g id="edge8_Node000004_Node000009" class="edge">
<title>Node4&#45;&gt;Node9</title>
<g id="a_edge8_Node000004_Node000009"><a xlink:title=" ">
<path fill="none" stroke="#63b8ff" d="M223.08,-391.97C242.48,-408.39 273.55,-433.05 303.5,-449.75 309.5,-453.09 315.93,-456.25 322.43,-459.17"/>
<polygon fill="#63b8ff" stroke="#63b8ff" points="320.71,-462.24 331.28,-462.97 323.47,-455.81 320.71,-462.24"/>
</a>
</g>
</g>
<!-- Node10 -->
<g id="Node000010" class="node">
<title>Node10</title>
<g id="a_Node000010"><a xlink:href="kest__fpga__cmd_8c.html#ac40e8f743cb4fbac870cb77adeffd002" target="_top" xlink:title=" ">
<polygon fill="white" stroke="#666666" points="463.5,-369.5 303.5,-369.5 303.5,-336 463.5,-336 463.5,-369.5"/>
<text xml:space="preserve" text-anchor="start" x="311.5" y="-356" font-family="Helvetica,sans-Serif" font-size="10.00">kest_fpga_command_commit</text>
<text xml:space="preserve" text-anchor="middle" x="383.5" y="-343.25" font-family="Helvetica,sans-Serif" font-size="10.00">_reg_updates</text>
</a>
</g>
</g>
<!-- Node4&#45;&gt;Node10 -->
<g id="edge9_Node000004_Node000010" class="edge">
<title>Node4&#45;&gt;Node10</title>
<g id="a_edge9_Node000004_Node000010"><a xlink:title=" ">
<path fill="none" stroke="#63b8ff" d="M266.86,-366.96C275.04,-365.96 283.54,-364.91 292.06,-363.87"/>
<polygon fill="#63b8ff" stroke="#63b8ff" points="292.23,-367.37 301.72,-362.68 291.37,-360.42 292.23,-367.37"/>
</a>
</g>
</g>
<!-- Node11 -->
<g id="Node000011" class="node">
<title>Node11</title>
<g id="a_Node000011"><a xlink:href="kest__update_8c.html#a496cd436d76c6245f211e12b594a9a52" target="_top" xlink:title=" ">
<polygon fill="#fff0f0" stroke="red" points="437.62,-317.5 329.38,-317.5 329.38,-284 437.62,-284 437.62,-317.5"/>
<text xml:space="preserve" text-anchor="start" x="337.38" y="-304" font-family="Helvetica,sans-Serif" font-size="10.00">kest_fpga_write_to</text>
<text xml:space="preserve" text-anchor="middle" x="383.5" y="-291.25" font-family="Helvetica,sans-Serif" font-size="10.00">_command</text>
</a>
</g>
</g>
<!-- Node4&#45;&gt;Node11 -->
<g id="edge10_Node000004_Node000011" class="edge">
<title>Node4&#45;&gt;Node11</title>
<g id="a_edge10_Node000004_Node000011"><a xlink:title=" ">
<path fill="none" stroke="#63b8ff" d="M236.35,-357.65C255.63,-347.96 280.63,-335.96 303.5,-326.75 308.35,-324.8 313.41,-322.88 318.52,-321.02"/>
<polygon fill="#63b8ff" stroke="#63b8ff" points="319.35,-324.44 327.61,-317.8 317.02,-317.84 319.35,-324.44"/>
</a>
</g>
</g>
<!-- Node6 -->
<g id="Node000006" class="node">
<title>Node6</title>
<g id="a_Node000006"><a xlink:href="kest__fpga__cmd_8c.html#af43fe615a3ef6f109bf56ec3890856e3" target="_top" xlink:title=" ">
<polygon fill="white" stroke="#666666" points="650.5,-577.5 504.75,-577.5 504.75,-544 650.5,-544 650.5,-577.5"/>
<text xml:space="preserve" text-anchor="start" x="512.75" y="-564" font-family="Helvetica,sans-Serif" font-size="10.00">kest_fpga_command_alloc</text>
<text xml:space="preserve" text-anchor="middle" x="577.62" y="-551.25" font-family="Helvetica,sans-Serif" font-size="10.00">_delay</text>
</a>
</g>
</g>
<!-- Node5&#45;&gt;Node6 -->
<g id="edge5_Node000005_Node000006" class="edge">
<title>Node5&#45;&gt;Node6</title>
<g id="a_edge5_Node000005_Node000006"><a xlink:title=" ">
<path fill="none" stroke="#63b8ff" d="M443.35,-408.48C450.79,-411.79 457.79,-416.11 463.5,-421.75 501.02,-458.77 462.54,-497.17 499.5,-534.75 500.11,-535.37 500.74,-535.98 501.38,-536.58"/>
<polygon fill="#63b8ff" stroke="#63b8ff" points="499.18,-539.3 509.25,-542.58 503.43,-533.73 499.18,-539.3"/>
</a>
</g>
</g>
<!-- Node7 -->
<g id="Node000007" class="node">
<title>Node7</title>
<g id="a_Node000007"><a xlink:href="kest__fpga__cmd_8c.html#a4e805905aef6c25f63b65b99eb999da8" target="_top" xlink:title=" ">
<polygon fill="white" stroke="#666666" points="650.5,-525.5 504.75,-525.5 504.75,-492 650.5,-492 650.5,-525.5"/>
<text xml:space="preserve" text-anchor="start" x="512.75" y="-512" font-family="Helvetica,sans-Serif" font-size="10.00">kest_fpga_command_alloc</text>
<text xml:space="preserve" text-anchor="middle" x="577.62" y="-499.25" font-family="Helvetica,sans-Serif" font-size="10.00">_filter</text>
</a>
</g>
</g>
<!-- Node5&#45;&gt;Node7 -->
<g id="edge6_Node000005_Node000007" class="edge">
<title>Node5&#45;&gt;Node7</title>
<g id="a_edge6_Node000005_Node000007"><a xlink:title=" ">
<path fill="none" stroke="#63b8ff" d="M439.4,-408.59C448.01,-411.88 456.4,-416.17 463.5,-421.75 488.25,-441.21 475.05,-462.92 499.5,-482.75 500.8,-483.81 502.15,-484.82 503.54,-485.8"/>
<polygon fill="#63b8ff" stroke="#63b8ff" points="501.51,-488.66 511.87,-490.87 505.15,-482.68 501.51,-488.66"/>
</a>
</g>
</g>
<!-- Node12 -->
<g id="Node000012" class="node">
<title>Node12</title>
<g id="a_Node000012"><a xlink:href="kest__expression_8c.html#a8df028c238f29a5c5e59bcff98e28157" target="_top" xlink:title=" ">
<polygon fill="#fff0f0" stroke="red" points="649,-162.12 506.25,-162.12 506.25,-141.38 649,-141.38 649,-162.12"/>
<text xml:space="preserve" text-anchor="middle" x="577.62" y="-148.62" font-family="Helvetica,sans-Serif" font-size="10.00">kest_expression_evaluate</text>
</a>
</g>
</g>
<!-- Node11&#45;&gt;Node12 -->
<g id="edge11_Node000011_Node000012" class="edge">
<title>Node11&#45;&gt;Node12</title>
<g id="a_edge11_Node000011_Node000012"><a xlink:title=" ">
<path fill="none" stroke="#63b8ff" d="M438.02,-286.94C447.39,-282.64 456.4,-277.03 463.5,-269.75 496.19,-236.23 464.67,-202.03 499.5,-170.75 500.29,-170.04 501.09,-169.36 501.92,-168.71"/>
<polygon fill="#63b8ff" stroke="#63b8ff" points="503.67,-171.74 510.19,-163.39 499.88,-165.86 503.67,-171.74"/>
</a>
</g>
</g>
<!-- Node29 -->
<g id="Node000029" class="node">
<title>Node29</title>
<g id="a_Node000029"><a xlink:href="kest__fpga__cmd_8c.html#a048d326411ce834ed75e27d2dc0c0bf0" target="_top" xlink:title=" ">
<polygon fill="white" stroke="#666666" points="655.75,-369.5 499.5,-369.5 499.5,-336 655.75,-336 655.75,-369.5"/>
<text xml:space="preserve" text-anchor="start" x="507.5" y="-356" font-family="Helvetica,sans-Serif" font-size="10.00">kest_fpga_command_update</text>
<text xml:space="preserve" text-anchor="middle" x="577.62" y="-343.25" font-family="Helvetica,sans-Serif" font-size="10.00">_block_reg_0</text>
</a>
</g>
</g>
<!-- Node11&#45;&gt;Node29 -->
<g id="edge12_Node000011_Node000029" class="edge">
<title>Node11&#45;&gt;Node29</title>
<g id="a_edge12_Node000011_Node000029"><a xlink:title=" ">
<path fill="none" stroke="#63b8ff" d="M438.02,-315.23C457.87,-320.61 480.77,-326.81 502.16,-332.59"/>
<polygon fill="#63b8ff" stroke="#63b8ff" points="501.15,-335.95 511.72,-335.18 502.98,-329.19 501.15,-335.95"/>
</a>
</g>
</g>
<!-- Node30 -->
<g id="Node000030" class="node">
<title>Node30</title>
<g id="a_Node000030"><a xlink:href="kest__fpga__cmd_8c.html#afa39ace71372e353e473b2ed26e8959b" target="_top" xlink:title=" ">
<polygon fill="white" stroke="#666666" points="655.75,-317.5 499.5,-317.5 499.5,-284 655.75,-284 655.75,-317.5"/>
<text xml:space="preserve" text-anchor="start" x="507.5" y="-304" font-family="Helvetica,sans-Serif" font-size="10.00">kest_fpga_command_update</text>
<text xml:space="preserve" text-anchor="middle" x="577.62" y="-291.25" font-family="Helvetica,sans-Serif" font-size="10.00">_block_reg_1</text>
</a>
</g>
</g>
<!-- Node11&#45;&gt;Node30 -->
<g id="edge13_Node000011_Node000030" class="edge">
<title>Node11&#45;&gt;Node30</title>
<g id="a_edge13_Node000011_Node000030"><a xlink:title=" ">
<path fill="none" stroke="#63b8ff" d="M438.02,-300.75C453.59,-300.75 471.04,-300.75 488.16,-300.75"/>
<polygon fill="#63b8ff" stroke="#63b8ff" points="487.83,-304.25 497.83,-300.75 487.83,-297.25 487.83,-304.25"/>
</a>
</g>
</g>
<!-- Node31 -->
<g id="Node000031" class="node">
<title>Node31</title>
<g id="a_Node000031"><a xlink:href="kest__fpga__cmd_8c.html#ac30f41d30933f95e471d5a2d4cb8c346" target="_top" xlink:title=" ">
<polygon fill="white" stroke="#666666" points="655.75,-265.5 499.5,-265.5 499.5,-232 655.75,-232 655.75,-265.5"/>
<text xml:space="preserve" text-anchor="start" x="507.5" y="-252" font-family="Helvetica,sans-Serif" font-size="10.00">kest_fpga_command_update</text>
<text xml:space="preserve" text-anchor="middle" x="577.62" y="-239.25" font-family="Helvetica,sans-Serif" font-size="10.00">_filter_coef</text>
</a>
</g>
</g>
<!-- Node11&#45;&gt;Node31 -->
<g id="edge14_Node000011_Node000031" class="edge">
<title>Node11&#45;&gt;Node31</title>
<g id="a_edge14_Node000011_Node000031"><a xlink:title=" ">
<path fill="none" stroke="#63b8ff" d="M438.02,-286.27C457.87,-280.89 480.77,-274.69 502.16,-268.91"/>
<polygon fill="#63b8ff" stroke="#63b8ff" points="502.98,-272.31 511.72,-266.32 501.15,-265.55 502.98,-272.31"/>
</a>
</g>
</g>
<!-- Node32 -->
<g id="Node000032" class="node">
<title>Node32</title>
<g id="a_Node000032"><a xlink:href="kest__fpga__cmd_8c.html#a5f88079b2fbefe8721d270e78a494f35" target="_top" xlink:title=" ">
<polygon fill="white" stroke="#666666" points="651.25,-213.5 504,-213.5 504,-180 651.25,-180 651.25,-213.5"/>
<text xml:space="preserve" text-anchor="start" x="512" y="-200" font-family="Helvetica,sans-Serif" font-size="10.00">kest_fpga_command_write</text>
<text xml:space="preserve" text-anchor="middle" x="577.62" y="-187.25" font-family="Helvetica,sans-Serif" font-size="10.00">_block_instr</text>
</a>
</g>
</g>
<!-- Node11&#45;&gt;Node32 -->
<g id="edge15_Node000011_Node000032" class="edge">
<title>Node11&#45;&gt;Node32</title>
<g id="a_edge15_Node000011_Node000032"><a xlink:title=" ">
<path fill="none" stroke="#63b8ff" d="M438.03,-284.35C446.99,-280.35 455.85,-275.51 463.5,-269.75 484.52,-253.92 478.1,-238.06 499.5,-222.75 501.27,-221.49 503.1,-220.28 504.98,-219.13"/>
<polygon fill="#63b8ff" stroke="#63b8ff" points="506.31,-222.39 513.44,-214.55 502.98,-216.23 506.31,-222.39"/>
</a>
</g>
</g>
<!-- Node33 -->
<g id="Node000033" class="node">
<title>Node33</title>
<g id="a_Node000033"><a xlink:href="kest__fpga__cmd_8c.html#ab836448e86de42236edd454a419eb28f" target="_top" xlink:title=" ">
<polygon fill="white" stroke="#666666" points="651.25,-473.5 504,-473.5 504,-440 651.25,-440 651.25,-473.5"/>
<text xml:space="preserve" text-anchor="start" x="512" y="-460" font-family="Helvetica,sans-Serif" font-size="10.00">kest_fpga_command_write</text>
<text xml:space="preserve" text-anchor="middle" x="577.62" y="-447.25" font-family="Helvetica,sans-Serif" font-size="10.00">_block_reg_0</text>
</a>
</g>
</g>
<!-- Node11&#45;&gt;Node33 -->
<g id="edge16_Node000011_Node000033" class="edge">
<title>Node11&#45;&gt;Node33</title>
<g id="a_edge16_Node000011_Node000033"><a xlink:title=" ">
<path fill="none" stroke="#63b8ff" d="M438.01,-310.91C447.39,-314.65 456.4,-319.76 463.5,-326.75 498.35,-361.07 464.77,-396.3 499.5,-430.75 500.25,-431.49 501.01,-432.21 501.8,-432.91"/>
<polygon fill="#63b8ff" stroke="#63b8ff" points="499.57,-435.61 509.7,-438.74 503.73,-429.98 499.57,-435.61"/>
</a>
</g>
</g>
<!-- Node34 -->
<g id="Node000034" class="node">
<title>Node34</title>
<g id="a_Node000034"><a xlink:href="kest__fpga__cmd_8c.html#a01d3b53d463220e241050b58867c24ed" target="_top" xlink:title=" ">
<polygon fill="white" stroke="#666666" points="651.25,-421.5 504,-421.5 504,-388 651.25,-388 651.25,-421.5"/>
<text xml:space="preserve" text-anchor="start" x="512" y="-408" font-family="Helvetica,sans-Serif" font-size="10.00">kest_fpga_command_write</text>
<text xml:space="preserve" text-anchor="middle" x="577.62" y="-395.25" font-family="Helvetica,sans-Serif" font-size="10.00">_block_reg_1</text>
</a>
</g>
</g>
<!-- Node11&#45;&gt;Node34 -->
<g id="edge17_Node000011_Node000034" class="edge">
<title>Node11&#45;&gt;Node34</title>
<g id="a_edge17_Node000011_Node000034"><a xlink:title=" ">
<path fill="none" stroke="#63b8ff" d="M437.84,-313.03C446.92,-316.56 455.87,-321.05 463.5,-326.75 486.02,-343.57 477.04,-361.85 499.5,-378.75 501.01,-379.89 502.58,-380.98 504.19,-382.03"/>
<polygon fill="#63b8ff" stroke="#63b8ff" points="502.08,-384.85 512.5,-386.77 505.55,-378.77 502.08,-384.85"/>
</a>
</g>
</g>
<!-- Node36&#45;&gt;Node3 -->
<g id="edge19_Node000036_Node000003" class="edge">
<title>Node36&#45;&gt;Node3</title>
<g id="a_edge19_Node000036_Node000003"><a xlink:title=" ">
<path fill="none" stroke="#63b8ff" d="M259.33,-962.94C273.59,-966.59 289,-969.9 303.5,-971.75 435.5,-988.63 590.69,-971.61 680.02,-958.28"/>
<polygon fill="#63b8ff" stroke="#63b8ff" points="680.52,-961.75 689.88,-956.78 679.47,-954.83 680.52,-961.75"/>
</a>
</g>
</g>
<!-- Node37 -->
<g id="Node000037" class="node">
<title>Node37</title>
<g id="a_Node000037"><a xlink:href="kest__fpga__cmd_8c.html#a263cc37db306d9929feeffdb0b76396d" target="_top" xlink:title=" ">
<polygon fill="#fff0f0" stroke="red" points="452.25,-962.5 314.75,-962.5 314.75,-929 452.25,-929 452.25,-962.5"/>
<text xml:space="preserve" text-anchor="start" x="322.75" y="-949" font-family="Helvetica,sans-Serif" font-size="10.00">kest_fpga_command_list</text>
<text xml:space="preserve" text-anchor="middle" x="383.5" y="-936.25" font-family="Helvetica,sans-Serif" font-size="10.00">_append_encoded</text>
</a>
</g>
</g>
<!-- Node36&#45;&gt;Node37 -->
<g id="edge20_Node000036_Node000037" class="edge">
<title>Node36&#45;&gt;Node37</title>
<g id="a_edge20_Node000036_Node000037"><a xlink:title=" ">
<path fill="none" stroke="#63b8ff" d="M266.86,-945.75C278.52,-945.75 290.83,-945.75 302.9,-945.75"/>
<polygon fill="#63b8ff" stroke="#63b8ff" points="302.85,-949.25 312.85,-945.75 302.85,-942.25 302.85,-949.25"/>
</a>
</g>
</g>
<!-- Node27 -->
<g id="Node000027" class="node">
<title>Node27</title>
<g id="a_Node000027"><a xlink:href="kest__expr__scope_8c.html#a536647952c07049da59284b9f928bd67" target="_top" xlink:title=" ">
<polygon fill="white" stroke="#666666" points="437.62,-769.12 329.38,-769.12 329.38,-748.38 437.62,-748.38 437.62,-769.12"/>
<text xml:space="preserve" text-anchor="middle" x="383.5" y="-755.62" font-family="Helvetica,sans-Serif" font-size="10.00">kest_scope_lookup</text>
</a>
</g>
</g>
<!-- Node52&#45;&gt;Node27 -->
<g id="edge22_Node000052_Node000027" class="edge">
<title>Node52&#45;&gt;Node27</title>
<g id="a_edge22_Node000052_Node000027"><a xlink:title=" ">
<path fill="none" stroke="#63b8ff" d="M231.96,-704.93C251.52,-716.13 278.39,-730.36 303.5,-739.75 308.44,-741.6 313.63,-743.31 318.88,-744.89"/>
<polygon fill="#63b8ff" stroke="#63b8ff" points="317.66,-748.18 328.24,-747.53 319.56,-741.45 317.66,-748.18"/>
</a>
</g>
</g>
<!-- Node53 -->
<g id="Node000053" class="node">
<title>Node53</title>
<g id="a_Node000053"><a xlink:href="kest__dependent_8c.html#a2c51793452ae391fee65637335487966" target="_top" xlink:title=" ">
<polygon fill="#fff0f0" stroke="red" points="438.75,-678.5 328.25,-678.5 328.25,-645 438.75,-645 438.75,-678.5"/>
<text xml:space="preserve" text-anchor="start" x="336.25" y="-665" font-family="Helvetica,sans-Serif" font-size="10.00">kest_string_append</text>
<text xml:space="preserve" text-anchor="middle" x="383.5" y="-652.25" font-family="Helvetica,sans-Serif" font-size="10.00">_dependent</text>
</a>
</g>
</g>
<!-- Node52&#45;&gt;Node53 -->
<g id="edge23_Node000052_Node000053" class="edge">
<title>Node52&#45;&gt;Node53</title>
<g id="a_edge23_Node000052_Node000053"><a xlink:title=" ">
<path fill="none" stroke="#63b8ff" d="M261.62,-679.31C279.2,-676.75 298.64,-673.93 316.69,-671.31"/>
<polygon fill="#63b8ff" stroke="#63b8ff" points="317.13,-674.78 326.52,-669.88 316.12,-667.86 317.13,-674.78"/>
</a>
</g>
</g>
<!-- Node56 -->
<g id="Node000056" class="node">
<title>Node56</title>
<g id="a_Node000056"><a xlink:href="kest__string_8c.html#afa021a4021225530db818f590a416606" target="_top" xlink:title=" ">
<polygon fill="white" stroke="#666666" points="433.12,-627.12 333.88,-627.12 333.88,-606.38 433.12,-606.38 433.12,-627.12"/>
<text xml:space="preserve" text-anchor="middle" x="383.5" y="-613.62" font-family="Helvetica,sans-Serif" font-size="10.00">kest_string_drain</text>
</a>
</g>
</g>
<!-- Node52&#45;&gt;Node56 -->
<g id="edge24_Node000052_Node000056" class="edge">
<title>Node52&#45;&gt;Node56</title>
<g id="a_edge24_Node000052_Node000056"><a xlink:title=" ">
<path fill="none" stroke="#63b8ff" d="M231.96,-670.57C251.52,-659.37 278.39,-645.14 303.5,-635.75 309.59,-633.47 316.06,-631.4 322.56,-629.53"/>
<polygon fill="#63b8ff" stroke="#63b8ff" points="323.28,-632.96 332.01,-626.97 321.45,-626.2 323.28,-632.96"/>
</a>
</g>
</g>
<!-- Node57 -->
<g id="Node000057" class="node">
<title>Node57</title>
<g id="a_Node000057"><a xlink:href="kest__string_8c.html#ab74edc9a2be32d899a92ef58edb16286" target="_top" xlink:title=" ">
<polygon fill="white" stroke="#666666" points="428.62,-588.12 338.38,-588.12 338.38,-567.38 428.62,-567.38 428.62,-588.12"/>
<text xml:space="preserve" text-anchor="middle" x="383.5" y="-574.62" font-family="Helvetica,sans-Serif" font-size="10.00">kest_string_init</text>
</a>
</g>
</g>
<!-- Node52&#45;&gt;Node57 -->
<g id="edge25_Node000052_Node000057" class="edge">
<title>Node52&#45;&gt;Node57</title>
<g id="a_edge25_Node000052_Node000057"><a xlink:title=" ">
<path fill="none" stroke="#63b8ff" d="M217.6,-670.79C235.48,-650.4 268.27,-616.56 303.5,-597.75 310.79,-593.86 318.87,-590.7 327,-588.14"/>
<polygon fill="#63b8ff" stroke="#63b8ff" points="327.92,-591.52 336.59,-585.43 326.01,-584.78 327.92,-591.52"/>
</a>
</g>
</g>
<!-- Node58 -->
<g id="Node000058" class="node">
<title>Node58</title>
<g id="a_Node000058"><a xlink:href="kest__update_8c.html#a29a2b996821863db8cbf1237fc7c7707" target="_top" xlink:title=" ">
<polygon fill="#fff0f0" stroke="red" points="448.88,-820.5 318.12,-820.5 318.12,-787 448.88,-787 448.88,-820.5"/>
<text xml:space="preserve" text-anchor="start" x="326.12" y="-807" font-family="Helvetica,sans-Serif" font-size="10.00">kest_updater_add_filter</text>
<text xml:space="preserve" text-anchor="middle" x="383.5" y="-794.25" font-family="Helvetica,sans-Serif" font-size="10.00">_coef_update</text>
</a>
</g>
</g>
<!-- Node52&#45;&gt;Node58 -->
<g id="edge26_Node000052_Node000058" class="edge">
<title>Node52&#45;&gt;Node58</title>
<g id="a_edge26_Node000052_Node000058"><a xlink:title=" ">
<path fill="none" stroke="#63b8ff" d="M218.14,-704.65C236.32,-724.68 269.15,-757.84 303.5,-777.75 305.96,-779.18 308.51,-780.54 311.12,-781.83"/>
<polygon fill="#63b8ff" stroke="#63b8ff" points="309.49,-784.94 320.04,-785.89 312.39,-778.57 309.49,-784.94"/>
</a>
</g>
</g>
<!-- Node63 -->
<g id="Node000063" class="node">
<title>Node63</title>
<g id="a_Node000063"><a xlink:href="kest__update_8c.html#ad0c617311918fea7aed065e022e8decb" target="_top" xlink:title=" ">
<polygon fill="#fff0f0" stroke="red" points="445.12,-730.5 321.88,-730.5 321.88,-697 445.12,-697 445.12,-730.5"/>
<text xml:space="preserve" text-anchor="start" x="329.88" y="-717" font-family="Helvetica,sans-Serif" font-size="10.00">kest_updater_add_reg</text>
<text xml:space="preserve" text-anchor="middle" x="383.5" y="-704.25" font-family="Helvetica,sans-Serif" font-size="10.00">_update</text>
</a>
</g>
</g>
<!-- Node52&#45;&gt;Node63 -->
<g id="edge28_Node000052_Node000063" class="edge">
<title>Node52&#45;&gt;Node63</title>
<g id="a_edge28_Node000052_Node000063"><a xlink:title=" ">
<path fill="none" stroke="#63b8ff" d="M261.62,-696.19C277.21,-698.46 294.26,-700.93 310.51,-703.29"/>
<polygon fill="#63b8ff" stroke="#63b8ff" points="309.7,-706.71 320.1,-704.69 310.71,-699.79 309.7,-706.71"/>
</a>
</g>
</g>
<!-- Node64 -->
<g id="Node000064" class="node">
<title>Node64</title>
<g id="a_Node000064"><a xlink:href="kest__update_8c.html#a82c2c2393f3299111a1216c59d1edd79" target="_top" xlink:title=" ">
<polygon fill="#fff0f0" stroke="red" points="442.12,-872.5 324.88,-872.5 324.88,-839 442.12,-839 442.12,-872.5"/>
<text xml:space="preserve" text-anchor="start" x="332.88" y="-859" font-family="Helvetica,sans-Serif" font-size="10.00">kest_updater_handle</text>
<text xml:space="preserve" text-anchor="middle" x="383.5" y="-846.25" font-family="Helvetica,sans-Serif" font-size="10.00">_preset_update</text>
</a>
</g>
</g>
<!-- Node52&#45;&gt;Node64 -->
<g id="edge30_Node000052_Node000064" class="edge">
<title>Node52&#45;&gt;Node64</title>
<g id="a_edge30_Node000052_Node000064"><a xlink:title=" ">
<path fill="none" stroke="#63b8ff" d="M211.05,-704.87C225.03,-734.6 257.71,-795.83 303.5,-829.75 306.89,-832.26 310.54,-834.54 314.33,-836.6"/>
<polygon fill="#63b8ff" stroke="#63b8ff" points="312.78,-839.74 323.31,-840.92 315.82,-833.43 312.78,-839.74"/>
</a>
</g>
</g>
<!-- Node58&#45;&gt;Node8 -->
<g id="edge27_Node000058_Node000008" class="edge">
<title>Node58&#45;&gt;Node8</title>
<g id="a_edge27_Node000058_Node000008"><a xlink:title=" ">
<path fill="none" stroke="#63b8ff" d="M441.12,-786.62C448.73,-783.88 456.37,-780.9 463.5,-777.75 490.04,-766.01 518.47,-749.91 540.19,-736.8"/>
<polygon fill="#63b8ff" stroke="#63b8ff" points="541.97,-739.81 548.68,-731.61 538.32,-733.84 541.97,-739.81"/>
</a>
</g>
</g>
<!-- Node63&#45;&gt;Node8 -->
<g id="edge29_Node000063_Node000008" class="edge">
<title>Node63&#45;&gt;Node8</title>
<g id="a_edge29_Node000063_Node000008"><a xlink:title=" ">
<path fill="none" stroke="#63b8ff" d="M445.55,-713.75C466.7,-713.75 490.46,-713.75 511.89,-713.75"/>
<polygon fill="#63b8ff" stroke="#63b8ff" points="511.67,-717.25 521.67,-713.75 511.67,-710.25 511.67,-717.25"/>
</a>
</g>
</g>
<!-- Node64&#45;&gt;Node2 -->
<g id="edge31_Node000064_Node000002" class="edge">
<title>Node64&#45;&gt;Node2</title>
<g id="a_edge31_Node000064_Node000002"><a xlink:title=" ">
<path fill="none" stroke="#63b8ff" d="M442.4,-869.31C464.24,-874.43 489.21,-880.28 511.65,-885.53"/>
<polygon fill="#63b8ff" stroke="#63b8ff" points="510.77,-888.92 521.3,-887.79 512.37,-882.1 510.77,-888.92"/>
</a>
</g>
</g>
<!-- Node76&#45;&gt;Node56 -->
<g id="edge35_Node000076_Node000056" class="edge">
<title>Node76&#45;&gt;Node56</title>
<g id="a_edge35_Node000076_Node000056"><a xlink:title=" ">
<path fill="none" stroke="#63b8ff" d="M240.51,-571.85C259.15,-580.07 282.25,-589.64 303.5,-596.75 310.1,-598.96 317.09,-601.06 324.06,-603.01"/>
<polygon fill="#63b8ff" stroke="#63b8ff" points="322.93,-606.33 333.5,-605.55 324.75,-599.57 322.93,-606.33"/>
</a>
</g>
</g>
<!-- Node76&#45;&gt;Node57 -->
<g id="edge36_Node000076_Node000057" class="edge">
<title>Node76&#45;&gt;Node57</title>
<g id="a_edge36_Node000076_Node000057"><a xlink:title=" ">
<path fill="none" stroke="#63b8ff" d="M256.24,-561.53C278.37,-564.37 304.13,-567.68 326.59,-570.57"/>
<polygon fill="#63b8ff" stroke="#63b8ff" points="326.13,-574.04 336.49,-571.84 327.02,-567.09 326.13,-574.04"/>
</a>
</g>
</g>
<!-- Node77 -->
<g id="Node000077" class="node">
<title>Node77</title>
<g id="a_Node000077"><a xlink:href="kest__fpga__cmd_8c.html#aa21bd71f38cf39b404be6eab65e21128" target="_top" xlink:title=" ">
<polygon fill="#fff0f0" stroke="red" points="449.62,-549.5 317.38,-549.5 317.38,-516 449.62,-516 449.62,-549.5"/>
<text xml:space="preserve" text-anchor="start" x="325.38" y="-536" font-family="Helvetica,sans-Serif" font-size="10.00">kest_fpga_command_to</text>
<text xml:space="preserve" text-anchor="middle" x="383.5" y="-523.25" font-family="Helvetica,sans-Serif" font-size="10.00">_string_</text>
</a>
</g>
</g>
<!-- Node76&#45;&gt;Node77 -->
<g id="edge34_Node000076_Node000077" class="edge">
<title>Node76&#45;&gt;Node77</title>
<g id="a_edge34_Node000076_Node000077"><a xlink:title=" ">
<path fill="none" stroke="#63b8ff" d="M256.24,-548.27C271.74,-546.36 289.02,-544.24 305.7,-542.19"/>
<polygon fill="#63b8ff" stroke="#63b8ff" points="306.12,-545.66 315.62,-540.97 305.27,-538.72 306.12,-545.66"/>
</a>
</g>
</g>
<!-- Node85&#45;&gt;Node12 -->
<g id="edge38_Node000085_Node000012" class="edge">
<title>Node85&#45;&gt;Node12</title>
<g id="a_edge38_Node000085_Node000012"><a xlink:title=" ">
<path fill="none" stroke="#63b8ff" d="M256.3,-277.48C327.39,-267.31 446.94,-248.75 463.5,-236.75 490.56,-217.15 473.03,-191.14 499.5,-170.75 500.83,-169.72 502.21,-168.75 503.63,-167.83"/>
<polygon fill="#63b8ff" stroke="#63b8ff" points="505.05,-171.05 512.18,-163.21 501.72,-164.89 505.05,-171.05"/>
</a>
</g>
</g>
<!-- Node14 -->
<g id="Node000014" class="node">
<title>Node14</title>
<g id="a_Node000014"><a xlink:href="kest__expression_8c.html#aadf2a6a074cb1ad7b45893704cbd71c3" target="_top" xlink:title=" ">
<polygon fill="#fff0f0" stroke="red" points="438.38,-227.5 328.62,-227.5 328.62,-194 438.38,-194 438.38,-227.5"/>
<text xml:space="preserve" text-anchor="start" x="336.62" y="-214" font-family="Helvetica,sans-Serif" font-size="10.00">kest_expression_to</text>
<text xml:space="preserve" text-anchor="middle" x="383.5" y="-201.25" font-family="Helvetica,sans-Serif" font-size="10.00">_string</text>
</a>
</g>
</g>
<!-- Node85&#45;&gt;Node14 -->
<g id="edge39_Node000085_Node000014" class="edge">
<title>Node85&#45;&gt;Node14</title>
<g id="a_edge39_Node000085_Node000014"><a xlink:title=" ">
<path fill="none" stroke="#63b8ff" d="M246.67,-267.59C253.66,-264.7 260.8,-261.69 267.5,-258.75 283.7,-251.64 287.26,-248.76 303.5,-241.75 310.94,-238.54 318.83,-235.28 326.63,-232.13"/>
<polygon fill="#63b8ff" stroke="#63b8ff" points="327.77,-235.45 335.76,-228.5 325.18,-228.94 327.77,-235.45"/>
</a>
</g>
</g>
<!-- Node87&#45;&gt;Node12 -->
<g id="edge42_Node000087_Node000012" class="edge">
<title>Node87&#45;&gt;Node12</title>
<g id="a_edge42_Node000087_Node000012"><a xlink:title=" ">
<path fill="none" stroke="#63b8ff" d="M248.33,-215.62C254.84,-212.83 261.4,-209.83 267.5,-206.75 284.24,-198.3 285.79,-190.9 303.5,-184.75 365.44,-163.23 439.5,-155.3 494.86,-152.57"/>
<polygon fill="#63b8ff" stroke="#63b8ff" points="494.68,-156.09 504.52,-152.15 494.37,-149.09 494.68,-156.09"/>
</a>
</g>
</g>
<!-- Node87&#45;&gt;Node14 -->
<g id="edge43_Node000087_Node000014" class="edge">
<title>Node87&#45;&gt;Node14</title>
<g id="a_edge43_Node000087_Node000014"><a xlink:title=" ">
<path fill="none" stroke="#63b8ff" d="M256.24,-226.27C275.29,-223.93 297.04,-221.25 317.05,-218.79"/>
<polygon fill="#63b8ff" stroke="#63b8ff" points="317.28,-222.29 326.78,-217.6 316.42,-215.34 317.28,-222.29"/>
</a>
</g>
</g>
<!-- Node89 -->
<g id="Node000089" class="node">
<title>Node89</title>
<g id="a_Node000089"><a xlink:href="kest__fpga__comms_8c.html#aa3f94ee1fcafa0fcdc27ce70021c0f8b" target="_top" xlink:title=" ">
<polygon fill="#fff0f0" stroke="red" points="456,-137.5 311,-137.5 311,-104 456,-104 456,-137.5"/>
<text xml:space="preserve" text-anchor="start" x="319" y="-124" font-family="Helvetica,sans-Serif" font-size="10.00">kest_fpga_queue_program</text>
<text xml:space="preserve" text-anchor="middle" x="383.5" y="-111.25" font-family="Helvetica,sans-Serif" font-size="10.00">_batch</text>
</a>
</g>
</g>
<!-- Node88&#45;&gt;Node89 -->
<g id="edge45_Node000088_Node000089" class="edge">
<title>Node88&#45;&gt;Node89</title>
<g id="a_edge45_Node000088_Node000089"><a xlink:title=" ">
<path fill="none" stroke="#63b8ff" d="M255.76,-94.55C269.41,-97.37 284.46,-100.49 299.29,-103.55"/>
<polygon fill="#63b8ff" stroke="#63b8ff" points="298.57,-106.98 309.07,-105.57 299.99,-100.12 298.57,-106.98"/>
</a>
</g>
</g>
<!-- Node91 -->
<g id="Node000091" class="node">
<title>Node91</title>
<g id="a_Node000091"><a xlink:href="kest__fpga__comms_8c.html#a3489962eaa9ab553d254921b6dc9647d" target="_top" xlink:title=" ">
<polygon fill="#fff0f0" stroke="red" points="454.5,-85.5 312.5,-85.5 312.5,-52 454.5,-52 454.5,-85.5"/>
<text xml:space="preserve" text-anchor="start" x="320.5" y="-72" font-family="Helvetica,sans-Serif" font-size="10.00">kest_fpga_queue_transfer</text>
<text xml:space="preserve" text-anchor="middle" x="383.5" y="-59.25" font-family="Helvetica,sans-Serif" font-size="10.00">_batch</text>
</a>
</g>
</g>
<!-- Node88&#45;&gt;Node91 -->
<g id="edge46_Node000088_Node000091" class="edge">
<title>Node88&#45;&gt;Node91</title>
<g id="a_edge46_Node000088_Node000091"><a xlink:title=" ">
<path fill="none" stroke="#63b8ff" d="M256.72,-79.29C270.6,-78.13 285.88,-76.85 300.86,-75.59"/>
<polygon fill="#63b8ff" stroke="#63b8ff" points="301.05,-79.09 310.73,-74.76 300.47,-72.11 301.05,-79.09"/>
</a>
</g>
</g>
<!-- Node93 -->
<g id="Node000093" class="node">
<title>Node93</title>
<g id="a_Node000093"><a xlink:href="kest__fpga__io_8c.html#a97edca592b9ffe88eb99eb1466f915a8" target="_top" xlink:title=" ">
<polygon fill="#fff0f0" stroke="red" points="436.88,-33.5 330.12,-33.5 330.12,0 436.88,0 436.88,-33.5"/>
<text xml:space="preserve" text-anchor="start" x="338.12" y="-20" font-family="Helvetica,sans-Serif" font-size="10.00">kest_fpga_transfer</text>
<text xml:space="preserve" text-anchor="middle" x="383.5" y="-7.25" font-family="Helvetica,sans-Serif" font-size="10.00">_batch_init</text>
</a>
</g>
</g>
<!-- Node92&#45;&gt;Node93 -->
<g id="edge48_Node000092_Node000093" class="edge">
<title>Node92&#45;&gt;Node93</title>
<g id="a_edge48_Node000092_Node000093"><a xlink:title=" ">
<path fill="none" stroke="#63b8ff" d="M267.87,-30.84C284.4,-28.81 302.18,-26.62 318.68,-24.59"/>
<polygon fill="#63b8ff" stroke="#63b8ff" points="318.87,-28.1 328.37,-23.4 318.02,-21.15 318.87,-28.1"/>
</a>
</g>
</g>
</g>
</svg>

<g id="navigator" transform="translate(0 0)" fill="#404254">
  <rect fill="#f2f5e9" fill-opacity="0.5" stroke="#606060" stroke-width=".5" x="0" y="0" width="60" height="60"/>
  <use id="zoomplus" xlink:href="#zoomPlus" x="17" y="9" onmousedown="handleZoom(evt,'in')"/>
  <use id="zoomminus" xlink:href="#zoomMin" x="42" y="9" onmousedown="handleZoom(evt,'out')"/>
  <use id="reset" xlink:href="#resetDef" x="30" y="36" onmousedown="handleReset()"/>
   <use id="arrowup" xlink:href="#arrowUp" x="0" y="0" onmousedown="handlePan(0,-1)"/>
  <use id="arrowright" xlink:href="#arrowRight" x="0" y="0" onmousedown="handlePan(1,0)"/>
  <use id="arrowdown" xlink:href="#arrowDown" x="0" y="0" onmousedown="handlePan(0,1)"/>
  <use id="arrowleft" xlink:href="#arrowLeft" x="0" y="0" onmousedown="handlePan(-1,0)"/>
</g>
<svg viewBox="0 0 15 15" width="100%" height="30px" preserveAspectRatio="xMaxYMin meet">
 <g id="arrow_out" transform="scale(0.3 0.3)">
  <a xlink:href="kest__update_8c_a5f1849c909f1dbde00900ad089f46d8f_cgraph_org.svg" target="_base">
   <rect id="button" ry="5" rx="5" y="6" x="6" height="38" width="38"
        fill="#f2f5e9" fill-opacity="0.5" stroke="#606060" stroke-width="1.0"/>
   <path id="arrow"
     d="M 11.500037,31.436501 C 11.940474,20.09759 22.043105,11.32322 32.158766,21.979434 L 37.068811,17.246167 C 37.068811,17.246167 37.088388,32 37.088388,32 L 22.160133,31.978069 C 22.160133,31.978069 26.997745,27.140456 26.997745,27.140456 C 18.528582,18.264221 13.291696,25.230495 11.500037,31.436501 z"
     style="fill:#404040;"/>
  </a>
 </g>
</svg>

<style type='text/css'>
<![CDATA[
[data-mouse-over-selected='false'] { opacity: 0.7; }
[data-mouse-over-selected='true']  { opacity: 1.0; }
]]>
</style>
<script type="application/ecmascript"><![CDATA[
document.addEventListener('DOMContentLoaded', (event) => {
  highlightEdges();
  highlightAdjacentNodes();
});
]]></script>
</svg>
