<?xml version="1.0" encoding="UTF-8" standalone="no"?>
<!DOCTYPE svg PUBLIC "-//W3C//DTD SVG 1.1//EN"
 "http://www.w3.org/Graphics/SVG/1.1/DTD/svg11.dtd">
<!-- Generated by graphviz version 13.1.2 (20250808.2320)
 -->
<!-- Title: kest_command_log_test Pages: 1 -->
<svg width="677pt" height="236pt"
 viewBox="0.00 0.00 677.00 236.00" xmlns="http://www.w3.org/2000/svg" xmlns:xlink="http://www.w3.org/1999/xlink">
<g id="graph0" class="graph" transform="scale(1 1) rotate(0) translate(4 232.12)">
<title>kest_command_log_test</title>
<!-- Node1 -->
<g id="Node000001" class="node">
<title>Node1</title>
<g id="a_Node000001"><a xlink:title=" ">
<polygon fill="#999999" stroke="#666666" points="134.5,-59.75 0,-59.75 0,-39 134.5,-39 134.5,-59.75"/>
<text xml:space="preserve" text-anchor="middle" x="67.25" y="-46.25" font-family="Helvetica,sans-Serif" font-size="10.00">kest_command_log_test</text>
</a>
</g>
</g>
<!-- Node2 -->
<g id="Node000002" class="node">
<title>Node2</title>
<g id="a_Node000002"><a xlink:href="kest__fpga__comms_8c.html#ad4528074bfb87a4810b6f01a9df53605" target="_top" xlink:title=" ">
<polygon fill="white" stroke="#666666" points="335.75,-117.75 170.5,-117.75 170.5,-97 335.75,-97 335.75,-117.75"/>
<text xml:space="preserve" text-anchor="middle" x="253.12" y="-104.25" font-family="Helvetica,sans-Serif" font-size="10.00">kest_fpga_print_command_log</text>
</a>
</g>
</g>
<!-- Node1&#45;&gt;Node2 -->
<g id="edge1_Node000001_Node000002" class="edge">
<title>Node1&#45;&gt;Node2</title>
<g id="a_edge1_Node000001_Node000002"><a xlink:title=" ">
<path fill="none" stroke="#63b8ff" d="M102.4,-60.15C131.86,-69.44 174.61,-82.92 206.9,-93.11"/>
<polygon fill="#63b8ff" stroke="#63b8ff" points="205.81,-96.44 216.4,-96.11 207.91,-89.76 205.81,-96.44"/>
</a>
</g>
</g>
<!-- Node9 -->
<g id="Node000009" class="node">
<title>Node9</title>
<g id="a_Node000009"><a xlink:href="kest__fpga__io_8c.html#a5151b31faf4c75059d9d8bd1d27fa5f9" target="_top" xlink:title=" ">
<polygon fill="white" stroke="#666666" points="312.5,-59.75 193.75,-59.75 193.75,-39 312.5,-39 312.5,-59.75"/>
<text xml:space="preserve" text-anchor="middle" x="253.12" y="-46.25" font-family="Helvetica,sans-Serif" font-size="10.00">kest_fpga_send_byte</text>
</a>
</g>
</g>
<!-- Node1&#45;&gt;Node9 -->
<g id="edge8_Node000001_Node000009" class="edge">
<title>Node1&#45;&gt;Node9</title>
<g id="a_edge8_Node000001_Node000009"><a xlink:title=" ">
<path fill="none" stroke="#63b8ff" d="M134.89,-49.38C150.28,-49.38 166.68,-49.38 182.2,-49.38"/>
<polygon fill="#63b8ff" stroke="#63b8ff" points="181.8,-52.88 191.8,-49.38 181.8,-45.88 181.8,-52.88"/>
</a>
</g>
</g>
<!-- Node11 -->
<g id="Node000011" class="node">
<title>Node11</title>
<g id="a_Node000011"><a xlink:href="kest__printf_8c.html#a302714171dfa950e18d9a951bdab4105" target="_top" xlink:title=" ">
<polygon fill="white" stroke="#666666" points="287,-20.75 219.25,-20.75 219.25,0 287,0 287,-20.75"/>
<text xml:space="preserve" text-anchor="middle" x="253.12" y="-7.25" font-family="Helvetica,sans-Serif" font-size="10.00">kest_printf</text>
</a>
</g>
</g>
<!-- Node1&#45;&gt;Node11 -->
<g id="edge10_Node000001_Node000011" class="edge">
<title>Node1&#45;&gt;Node11</title>
<g id="a_edge10_Node000001_Node000011"><a xlink:title=" ">
<path fill="none" stroke="#63b8ff" d="M119.47,-38.51C147.27,-32.61 181.3,-25.4 207.93,-19.75"/>
<polygon fill="#63b8ff" stroke="#63b8ff" points="208.31,-23.25 217.37,-17.75 206.86,-16.4 208.31,-23.25"/>
</a>
</g>
</g>
<!-- Node3 -->
<g id="Node000003" class="node">
<title>Node3</title>
<g id="a_Node000003"><a xlink:href="kest__fpga__io_8c.html#a1a1501e2223a5cddbecfb2b92c9d9705" target="_top" xlink:title=" ">
<polygon fill="white" stroke="#666666" points="504,-228.12 371.75,-228.12 371.75,-194.62 504,-194.62 504,-228.12"/>
<text xml:space="preserve" text-anchor="start" x="379.75" y="-214.62" font-family="Helvetica,sans-Serif" font-size="10.00">kest_fpga_command_to</text>
<text xml:space="preserve" text-anchor="middle" x="437.88" y="-201.88" font-family="Helvetica,sans-Serif" font-size="10.00">_string</text>
</a>
</g>
</g>
<!-- Node2&#45;&gt;Node3 -->
<g id="edge2_Node000002_Node000003" class="edge">
<title>Node2&#45;&gt;Node3</title>
<g id="a_edge2_Node000002_Node000003"><a xlink:title=" ">
<path fill="none" stroke="#63b8ff" d="M268.38,-118.24C289.93,-134.32 332.47,-164.79 371.75,-185.38 374.44,-186.78 377.22,-188.16 380.05,-189.51"/>
<polygon fill="#63b8ff" stroke="#63b8ff" points="378.51,-192.65 389.07,-193.58 381.4,-186.28 378.51,-192.65"/>
</a>
</g>
</g>
<!-- Node4 -->
<g id="Node000004" class="node">
<title>Node4</title>
<g id="a_Node000004"><a xlink:href="kest__printf_8c.html#a258f845ff2725772e9a7b5b0a5efd522" target="_top" xlink:title=" ">
<polygon fill="white" stroke="#666666" points="469.12,-176.75 406.62,-176.75 406.62,-156 469.12,-156 469.12,-176.75"/>
<text xml:space="preserve" text-anchor="middle" x="437.88" y="-163.25" font-family="Helvetica,sans-Serif" font-size="10.00">kest_puts</text>
</a>
</g>
</g>
<!-- Node2&#45;&gt;Node4 -->
<g id="edge3_Node000002_Node000004" class="edge">
<title>Node2&#45;&gt;Node4</title>
<g id="a_edge3_Node000002_Node000004"><a xlink:title=" ">
<path fill="none" stroke="#63b8ff" d="M286.26,-118.24C309.87,-126.18 342.75,-137.12 371.75,-146.38 379.41,-148.82 387.59,-151.38 395.48,-153.81"/>
<polygon fill="#63b8ff" stroke="#63b8ff" points="394.32,-157.12 404.9,-156.71 396.37,-150.43 394.32,-157.12"/>
</a>
</g>
</g>
<!-- Node5 -->
<g id="Node000005" class="node">
<title>Node5</title>
<g id="a_Node000005"><a xlink:href="kest__string_8c.html#a2f2e64515d872efab6ae1974554b5d5c" target="_top" xlink:title=" ">
<polygon fill="white" stroke="#666666" points="493.12,-137.75 382.62,-137.75 382.62,-117 493.12,-117 493.12,-137.75"/>
<text xml:space="preserve" text-anchor="middle" x="437.88" y="-124.25" font-family="Helvetica,sans-Serif" font-size="10.00">kest_string_append</text>
</a>
</g>
</g>
<!-- Node2&#45;&gt;Node5 -->
<g id="edge4_Node000002_Node000005" class="edge">
<title>Node2&#45;&gt;Node5</title>
<g id="a_edge4_Node000002_Node000005"><a xlink:title=" ">
<path fill="none" stroke="#63b8ff" d="M336.15,-116.35C347.89,-117.64 359.84,-118.94 371.21,-120.19"/>
<polygon fill="#63b8ff" stroke="#63b8ff" points="370.53,-123.64 380.86,-121.24 371.3,-116.68 370.53,-123.64"/>
</a>
</g>
</g>
<!-- Node6 -->
<g id="Node000006" class="node">
<title>Node6</title>
<g id="a_Node000006"><a xlink:href="kest__string_8c.html#a5e8184b1f070fc74a7d1d2f08c4d9658" target="_top" xlink:title=" ">
<polygon fill="white" stroke="#666666" points="495,-98.75 380.75,-98.75 380.75,-78 495,-78 495,-98.75"/>
<text xml:space="preserve" text-anchor="middle" x="437.88" y="-85.25" font-family="Helvetica,sans-Serif" font-size="10.00">kest_string_appendf</text>
</a>
</g>
</g>
<!-- Node2&#45;&gt;Node6 -->
<g id="edge5_Node000002_Node000006" class="edge">
<title>Node2&#45;&gt;Node6</title>
<g id="a_edge5_Node000002_Node000006"><a xlink:title=" ">
<path fill="none" stroke="#63b8ff" d="M336.15,-98.85C347.16,-97.7 358.35,-96.54 369.08,-95.42"/>
<polygon fill="#63b8ff" stroke="#63b8ff" points="369.41,-98.91 379,-94.39 368.69,-91.95 369.41,-98.91"/>
</a>
</g>
</g>
<!-- Node8 -->
<g id="Node000008" class="node">
<title>Node8</title>
<g id="a_Node000008"><a xlink:href="kest__string_8c.html#ab74edc9a2be32d899a92ef58edb16286" target="_top" xlink:title=" ">
<polygon fill="white" stroke="#666666" points="483,-59.75 392.75,-59.75 392.75,-39 483,-39 483,-59.75"/>
<text xml:space="preserve" text-anchor="middle" x="437.88" y="-46.25" font-family="Helvetica,sans-Serif" font-size="10.00">kest_string_init</text>
</a>
</g>
</g>
<!-- Node2&#45;&gt;Node8 -->
<g id="edge7_Node000002_Node000008" class="edge">
<title>Node2&#45;&gt;Node8</title>
<g id="a_edge7_Node000002_Node000008"><a xlink:title=" ">
<path fill="none" stroke="#63b8ff" d="M287.29,-96.52C310.83,-88.85 343.2,-78.37 371.75,-69.38 377.89,-67.44 384.37,-65.42 390.76,-63.45"/>
<polygon fill="#63b8ff" stroke="#63b8ff" points="391.38,-66.92 399.91,-60.63 389.32,-60.23 391.38,-66.92"/>
</a>
</g>
</g>
<!-- Node7 -->
<g id="Node000007" class="node">
<title>Node7</title>
<g id="a_Node000007"><a xlink:href="kest__string_8c.html#ab38fd4531ec8be3f9c32f467f6808951" target="_top" xlink:title=" ">
<polygon fill="white" stroke="#666666" points="668.5,-98.75 540,-98.75 540,-78 668.5,-78 668.5,-98.75"/>
<text xml:space="preserve" text-anchor="middle" x="604.25" y="-85.25" font-family="Helvetica,sans-Serif" font-size="10.00">kest_string_append_str</text>
</a>
</g>
</g>
<!-- Node6&#45;&gt;Node7 -->
<g id="edge6_Node000006_Node000007" class="edge">
<title>Node6&#45;&gt;Node7</title>
<g id="a_edge6_Node000006_Node000007"><a xlink:title=" ">
<path fill="none" stroke="#63b8ff" d="M495.44,-88.38C505.99,-88.38 517.16,-88.38 528.16,-88.38"/>
<polygon fill="#63b8ff" stroke="#63b8ff" points="528.01,-91.88 538.01,-88.38 528.01,-84.88 528.01,-91.88"/>
</a>
</g>
</g>
<!-- Node10 -->
<g id="Node000010" class="node">
<title>Node10</title>
<g id="a_Node000010"><a xlink:href="kest__fpga__io_8c.html#a2fe46577ece371a5fc9834bc59390913" target="_top" xlink:title=" ">
<polygon fill="white" stroke="#666666" points="481.88,-20.75 393.88,-20.75 393.88,0 481.88,0 481.88,-20.75"/>
<text xml:space="preserve" text-anchor="middle" x="437.88" y="-7.25" font-family="Helvetica,sans-Serif" font-size="10.00">kest_fpga_txrx</text>
</a>
</g>
</g>
<!-- Node9&#45;&gt;Node10 -->
<g id="edge9_Node000009_Node000010" class="edge">
<title>Node9&#45;&gt;Node10</title>
<g id="a_edge9_Node000009_Node000010"><a xlink:title=" ">
<path fill="none" stroke="#63b8ff" d="M305.03,-38.51C329.21,-33.35 358.13,-27.18 382.71,-21.93"/>
<polygon fill="#63b8ff" stroke="#63b8ff" points="383.14,-25.42 392.19,-19.91 381.68,-18.58 383.14,-25.42"/>
</a>
</g>
</g>
</g>
</svg>
