<?xml version="1.0" encoding="UTF-8" standalone="no"?>
<!DOCTYPE svg PUBLIC "-//W3C//DTD SVG 1.1//EN"
 "http://www.w3.org/Graphics/SVG/1.1/DTD/svg11.dtd">
<!-- Generated by graphviz version 13.1.2 (20250808.2320)
 -->
<!-- Title: kest_scope_entry_eval_rec Pages: 1 -->
<!--zoomable 1096 -->

<svg id="main" version="1.1" xmlns="http://www.w3.org/2000/svg" xmlns:xlink="http://www.w3.org/1999/xlink" xml:space="preserve" onload="init(evt)">

<style type="text/css"><![CDATA[
.node, .edge {opacity: 0.7;}
.node.selected, .edge.selected {opacity: 1;}
.edge:hover path { stroke: red; }
.edge:hover polygon { stroke: red; fill: red; }
]]></style>

<defs>
  <circle id="rim" cx="0" cy="0" r="7"/>
  <circle id="rim2" cx="0" cy="0" r="3.5"/>
  <g id="zoomPlus">
    <use xlink:href="#rim" fill="#404040"><set attributeName="fill" to="#808080" begin="zoomplus.mouseover" end="zoomplus.mouseout"/></use>
    <path d="M-4,0h8M0,-4v8" fill="none" stroke="white" stroke-width="1.5" pointer-events="none"/>
  </g>
  <g id="zoomMin">
    <use xlink:href="#rim" fill="#404040"><set attributeName="fill" to="#808080" begin="zoomminus.mouseover" end="zoomminus.mouseout"/></use>
    <path d="M-4,0h8" fill="none" stroke="white" stroke-width="1.5" pointer-events="none"/>
  </g>
  <g id="arrowUp" transform="translate(30 24)">
    <use xlink:href="#rim"/>
    <path pointer-events="none" fill="none" stroke="white" stroke-width="1.5" d="M0,-3.0v7 M-2.5,-0.5L0,-3.0L2.5,-0.5"/>
  </g>
  <g id="arrowRight" transform="rotate(90) translate(36 -43)">
    <use xlink:href="#rim"/>
    <path pointer-events="none" fill="none" stroke="white" stroke-width="1.5" d="M0,-3.0v7 M-2.5,-0.5L0,-3.0L2.5,-0.5"/>
  </g>
  <g id="arrowDown" transform="rotate(180) translate(-30 -48)">
    <use xlink:href="#rim"/>
    <path pointer-events="none" fill="none" stroke="white" stroke-width="1.5" d="M0,-3.0v7 M-2.5,-0.5L0,-3.0L2.5,-0.5"/>
  </g>
  <g id="arrowLeft" transform="rotate(270) translate(-36 17)">
    <use xlink:href="#rim"/>
    <path pointer-events="none" fill="none" stroke="white" stroke-width="1.5" d="M0,-3.0v7 M-2.5,-0.5L0,-3.0L2.5,-0.5"/>
  </g>
  <g id="resetDef">
    <use xlink:href="#rim2" fill="#404040"><set attributeName="fill" to="#808080" begin="reset.mouseover" end="reset.mouseout"/></use>
  </g>
</defs>
<script type="application/ecmascript">
var viewWidth = 936;
var viewHeight = 1096;
var sectionId = 'dynsection-43';
</script>
<script type="application/ecmascript" xlink:href="svg.min.js"/>
<svg id="graph" class="graph">
<g id="viewport">
<title>kest_scope_entry_eval_rec</title>
<!-- Node1 -->
<g id="Node000001" class="node">
<title>Node1</title>
<g id="a_Node000001"><a xlink:title=" ">
<polygon fill="#999999" stroke="#666666" points="927.5,-104.75 780.25,-104.75 780.25,-84 927.5,-84 927.5,-104.75"/>
<text xml:space="preserve" text-anchor="middle" x="853.88" y="-91.25" font-family="Helvetica,sans-Serif" font-size="10.00">kest_scope_entry_eval_rec</text>
</a>
</g>
</g>
<!-- Node2 -->
<g id="Node000002" class="node">
<title>Node2</title>
<g id="a_Node000002"><a xlink:href="kest__expression_8c.html#aa4b7d57f1458bb40fc2d8fdab7c605fc" target="_top" xlink:title=" ">
<polygon fill="white" stroke="#666666" points="744.25,-199.75 581.25,-199.75 581.25,-179 744.25,-179 744.25,-199.75"/>
<text xml:space="preserve" text-anchor="middle" x="662.75" y="-186.25" font-family="Helvetica,sans-Serif" font-size="10.00">kest_expression_evaluate_rec</text>
</a>
</g>
</g>
<!-- Node1&#45;&gt;Node2 -->
<g id="edge1_Node000001_Node000002" class="edge">
<title>Node1&#45;&gt;Node2</title>
<g id="a_edge1_Node000001_Node000002"><a xlink:title=" ">
<path fill="none" stroke="#63b8ff" d="M810.89,-109.74C768.38,-129.23 705.09,-161.69 677.47,-178.77"/>
<polygon fill="#63b8ff" stroke="#63b8ff" points="812.16,-113.01 819.84,-105.71 809.29,-106.63 812.16,-113.01"/>
</a>
</g>
</g>
<!-- Node168 -->
<g id="Node000168" class="node">
<title>Node168</title>
<g id="a_Node000168"><a xlink:href="kest__expr__scope_8c.html#af2fc1f056676d41afa396a8b86be24e6" target="_top" xlink:title=" ">
<polygon fill="white" stroke="#666666" points="726.25,-65.75 599.25,-65.75 599.25,-45 726.25,-45 726.25,-65.75"/>
<text xml:space="preserve" text-anchor="middle" x="662.75" y="-52.25" font-family="Helvetica,sans-Serif" font-size="10.00">kest_scope_entry_eval</text>
</a>
</g>
</g>
<!-- Node1&#45;&gt;Node168 -->
<g id="edge40_Node000001_Node000168" class="edge">
<title>Node1&#45;&gt;Node168</title>
<g id="a_edge40_Node000001_Node000168"><a xlink:title=" ">
<path fill="none" stroke="#63b8ff" d="M789.21,-81.25C765.57,-76.37 739.03,-70.9 716.48,-66.25"/>
<polygon fill="#63b8ff" stroke="#63b8ff" points="788.21,-84.61 798.71,-83.21 789.62,-77.76 788.21,-84.61"/>
</a>
</g>
</g>
<!-- Node2&#45;&gt;Node1 -->
<g id="edge39_Node000002_Node000001" class="edge">
<title>Node2&#45;&gt;Node1</title>
<g id="a_edge39_Node000002_Node000001"><a xlink:title=" ">
<path fill="none" stroke="#63b8ff" d="M705.9,-173.93C748.31,-154.48 811.29,-122.18 838.97,-105.1"/>
<polygon fill="#63b8ff" stroke="#63b8ff" points="704.65,-170.66 696.97,-177.96 707.53,-177.04 704.65,-170.66"/>
</a>
</g>
</g>
<!-- Node2&#45;&gt;Node2 -->
<g id="edge33_Node000002_Node000002" class="edge">
<title>Node2&#45;&gt;Node2</title>
<g id="a_edge33_Node000002_Node000002"><a xlink:title=" ">
<path fill="none" stroke="#63b8ff" d="M695.99,-211.24C691.58,-215.08 680.5,-217.75 662.75,-217.75 630.29,-217.75 620.14,-208.81 632.32,-200.15"/>
<polygon fill="#63b8ff" stroke="#63b8ff" points="699.4,-210.45 693.55,-201.61 692.61,-212.17 699.4,-210.45"/>
</a>
</g>
</g>
<!-- Node3 -->
<g id="Node000003" class="node">
<title>Node3</title>
<g id="a_Node000003"><a xlink:href="kest__expression_8c.html#a9ea46b77b43cb7f43cfe7091f44e2e2d" target="_top" xlink:title=" ">
<polygon fill="white" stroke="#666666" points="357.5,-162.12 214.75,-162.12 214.75,-128.62 357.5,-128.62 357.5,-162.12"/>
<text xml:space="preserve" text-anchor="start" x="222.75" y="-148.62" font-family="Helvetica,sans-Serif" font-size="10.00">kest_expression_compute</text>
<text xml:space="preserve" text-anchor="middle" x="286.12" y="-135.88" font-family="Helvetica,sans-Serif" font-size="10.00">_max_rec</text>
</a>
</g>
</g>
<!-- Node2&#45;&gt;Node3 -->
<g id="edge2_Node000002_Node000003" class="edge">
<title>Node2&#45;&gt;Node3</title>
<g id="a_edge2_Node000002_Node000003"><a xlink:title=" ">
<path fill="none" stroke="#63b8ff" d="M569.79,-178.57C504.35,-170.89 417.74,-160.72 357.71,-153.67"/>
<polygon fill="#63b8ff" stroke="#63b8ff" points="569.08,-182.01 579.42,-179.71 569.9,-175.06 569.08,-182.01"/>
</a>
</g>
</g>
<!-- Node28 -->
<g id="Node000028" class="node">
<title>Node28</title>
<g id="a_Node000028"><a xlink:href="kest__expression_8c.html#a314111382b96c56e6f648658c7125e2b" target="_top" xlink:title=" ">
<polygon fill="#fff0f0" stroke="red" points="156.25,-216.12 13.5,-216.12 13.5,-182.62 156.25,-182.62 156.25,-216.12"/>
<text xml:space="preserve" text-anchor="start" x="21.5" y="-202.62" font-family="Helvetica,sans-Serif" font-size="10.00">kest_expression_compute</text>
<text xml:space="preserve" text-anchor="middle" x="84.88" y="-189.88" font-family="Helvetica,sans-Serif" font-size="10.00">_min_rec</text>
</a>
</g>
</g>
<!-- Node2&#45;&gt;Node28 -->
<g id="edge8_Node000002_Node000028" class="edge">
<title>Node2&#45;&gt;Node28</title>
<g id="a_edge8_Node000002_Node000028"><a xlink:title=" ">
<path fill="none" stroke="#63b8ff" d="M569.54,-190.98C454.5,-192.97 260.31,-196.35 156.43,-198.15"/>
<polygon fill="#63b8ff" stroke="#63b8ff" points="569.32,-194.48 579.25,-190.81 569.19,-187.48 569.32,-194.48"/>
</a>
</g>
</g>
<!-- Node30 -->
<g id="Node000030" class="node">
<title>Node30</title>
<g id="a_Node000030"><a xlink:href="kest__expression_8c.html#a146f5c5c8ecc02be0e5e695cbbc10f10" target="_top" xlink:title=" ">
<polygon fill="white" stroke="#666666" points="357.5,-1018.12 214.75,-1018.12 214.75,-984.62 357.5,-984.62 357.5,-1018.12"/>
<text xml:space="preserve" text-anchor="start" x="222.75" y="-1004.62" font-family="Helvetica,sans-Serif" font-size="10.00">kest_expression_compute</text>
<text xml:space="preserve" text-anchor="middle" x="286.12" y="-991.88" font-family="Helvetica,sans-Serif" font-size="10.00">_range_rec</text>
</a>
</g>
</g>
<!-- Node2&#45;&gt;Node30 -->
<g id="edge9_Node000002_Node000030" class="edge">
<title>Node2&#45;&gt;Node30</title>
<g id="a_edge9_Node000002_Node000030"><a xlink:title=" ">
<path fill="none" stroke="#63b8ff" d="M656.44,-211.25C627.99,-326.71 490.3,-864.31 366.5,-975.38 362.72,-978.76 358.49,-981.71 354.01,-984.28"/>
<polygon fill="#63b8ff" stroke="#63b8ff" points="659.83,-212.1 658.81,-201.56 653.03,-210.44 659.83,-212.1"/>
</a>
</g>
</g>
<!-- Node32 -->
<g id="Node000032" class="node">
<title>Node32</title>
<g id="a_Node000032"><a xlink:href="kest__expression_8c.html#a8df028c238f29a5c5e59bcff98e28157" target="_top" xlink:title=" ">
<polygon fill="white" stroke="#666666" points="545.25,-571.75 402.5,-571.75 402.5,-551 545.25,-551 545.25,-571.75"/>
<text xml:space="preserve" text-anchor="middle" x="473.88" y="-558.25" font-family="Helvetica,sans-Serif" font-size="10.00">kest_expression_evaluate</text>
</a>
</g>
</g>
<!-- Node2&#45;&gt;Node32 -->
<g id="edge12_Node000002_Node000032" class="edge">
<title>Node2&#45;&gt;Node32</title>
<g id="a_edge12_Node000002_Node000032"><a xlink:title=" ">
<path fill="none" stroke="#63b8ff" d="M651.3,-210.18C616.62,-279.22 506.07,-499.27 480.29,-550.6"/>
<polygon fill="#63b8ff" stroke="#63b8ff" points="654.32,-211.97 655.68,-201.46 648.06,-208.82 654.32,-211.97"/>
</a>
</g>
</g>
<!-- Node121 -->
<g id="Node000121" class="node">
<title>Node121</title>
<g id="a_Node000121"><a xlink:href="kest__resource_8c.html#a6573beecd274698a739bcf5ed8444971" target="_top" xlink:title=" ">
<polygon fill="white" stroke="#666666" points="535.12,-142.75 412.62,-142.75 412.62,-122 535.12,-122 535.12,-142.75"/>
<text xml:space="preserve" text-anchor="middle" x="473.88" y="-129.25" font-family="Helvetica,sans-Serif" font-size="10.00">kest_lfo_evaluate_rec</text>
</a>
</g>
</g>
<!-- Node2&#45;&gt;Node121 -->
<g id="edge34_Node000002_Node000121" class="edge">
<title>Node2&#45;&gt;Node121</title>
<g id="a_edge34_Node000002_Node000121"><a xlink:title=" ">
<path fill="none" stroke="#63b8ff" d="M615.56,-175.29C583.05,-165.37 540.17,-152.29 510.33,-143.19"/>
<polygon fill="#63b8ff" stroke="#63b8ff" points="614.13,-178.51 624.71,-178.08 616.17,-171.81 614.13,-178.51"/>
</a>
</g>
</g>
<!-- Node123 -->
<g id="Node000123" class="node">
<title>Node123</title>
<g id="a_Node000123"><a xlink:href="kest__parameter_8c.html#a7cf51c19ac7f4f01c97a788a7365c889" target="_top" xlink:title=" ">
<polygon fill="white" stroke="#666666" points="530.62,-975.12 417.12,-975.12 417.12,-941.62 530.62,-941.62 530.62,-975.12"/>
<text xml:space="preserve" text-anchor="start" x="425.12" y="-961.62" font-family="Helvetica,sans-Serif" font-size="10.00">kest_parameter_get</text>
<text xml:space="preserve" text-anchor="middle" x="473.88" y="-948.88" font-family="Helvetica,sans-Serif" font-size="10.00">_range_rec</text>
</a>
</g>
</g>
<!-- Node2&#45;&gt;Node123 -->
<g id="edge37_Node000002_Node000123" class="edge">
<title>Node2&#45;&gt;Node123</title>
<g id="a_edge37_Node000002_Node000123"><a xlink:title=" ">
<path fill="none" stroke="#63b8ff" d="M659.82,-211.39C652.19,-293.07 620.84,-585.83 545.25,-814.38 529.35,-862.46 500.49,-914.95 485.13,-941.29"/>
<polygon fill="#63b8ff" stroke="#63b8ff" points="663.3,-211.73 660.72,-201.45 656.33,-211.1 663.3,-211.73"/>
</a>
</g>
</g>
<!-- Node3&#45;&gt;Node3 -->
<g id="edge4_Node000003_Node000003" class="edge">
<title>Node3&#45;&gt;Node3</title>
<g id="a_edge4_Node000003_Node000003"><a xlink:title=" ">
<path fill="none" stroke="#63b8ff" d="M317.65,-173.51C312.52,-177.47 302.01,-180.12 286.12,-180.12 257.89,-180.12 246.64,-171.74 252.37,-162.54"/>
<polygon fill="#63b8ff" stroke="#63b8ff" points="321.02,-174.52 319.57,-164.02 314.16,-173.13 321.02,-174.52"/>
</a>
</g>
</g>
<!-- Node4 -->
<g id="Node000004" class="node">
<title>Node4</title>
<g id="a_Node000004"><a xlink:href="kest__expression_8c.html#ac0d36327234ac552a23d07d118392e5a" target="_top" xlink:title=" ">
<polygon fill="#fff0f0" stroke="red" points="169.75,-155.75 0,-155.75 0,-135 169.75,-135 169.75,-155.75"/>
<text xml:space="preserve" text-anchor="middle" x="84.88" y="-142.25" font-family="Helvetica,sans-Serif" font-size="10.00">kest_expression_compute_max</text>
</a>
</g>
</g>
<!-- Node3&#45;&gt;Node4 -->
<g id="edge3_Node000003_Node000004" class="edge">
<title>Node3&#45;&gt;Node4</title>
<g id="a_edge3_Node000003_Node000004"><a xlink:title=" ">
<path fill="none" stroke="#63b8ff" d="M203.09,-145.38C192.2,-145.38 181.02,-145.38 170.09,-145.38"/>
<polygon fill="#63b8ff" stroke="#63b8ff" points="202.8,-148.88 212.8,-145.38 202.8,-141.88 202.8,-148.88"/>
</a>
</g>
</g>
<!-- Node3&#45;&gt;Node28 -->
<g id="edge5_Node000003_Node000028" class="edge">
<title>Node3&#45;&gt;Node28</title>
<g id="a_edge5_Node000003_Node000028"><a xlink:title=" ">
<path fill="none" stroke="#63b8ff" d="M203.44,-160.86C177.77,-167.54 150.45,-175.27 128.62,-182.13"/>
<polygon fill="#63b8ff" stroke="#63b8ff" points="204.03,-164.32 212.85,-158.45 202.29,-157.54 204.03,-164.32"/>
</a>
</g>
</g>
<!-- Node28&#45;&gt;Node3 -->
<g id="edge6_Node000028_Node000003" class="edge">
<title>Node28&#45;&gt;Node3</title>
<g id="a_edge6_Node000028_Node000003"><a xlink:title=" ">
<path fill="none" stroke="#63b8ff" d="M167.28,-183.96C193.04,-177.27 220.47,-169.51 242.38,-162.62"/>
<polygon fill="#63b8ff" stroke="#63b8ff" points="166.66,-180.51 157.84,-186.38 168.39,-187.29 166.66,-180.51"/>
</a>
</g>
</g>
<!-- Node28&#45;&gt;Node28 -->
<g id="edge7_Node000028_Node000028" class="edge">
<title>Node28&#45;&gt;Node28</title>
<g id="a_edge7_Node000028_Node000028"><a xlink:title=" ">
<path fill="none" stroke="#63b8ff" d="M118.67,-227.51C113.16,-231.47 101.9,-234.12 84.88,-234.12 54.61,-234.12 42.55,-225.74 48.7,-216.54"/>
<polygon fill="#63b8ff" stroke="#63b8ff" points="122.03,-228.53 120.73,-218.02 115.19,-227.05 122.03,-228.53"/>
</a>
</g>
</g>
<!-- Node30&#45;&gt;Node30 -->
<g id="edge11_Node000030_Node000030" class="edge">
<title>Node30&#45;&gt;Node30</title>
<g id="a_edge11_Node000030_Node000030"><a xlink:title=" ">
<path fill="none" stroke="#63b8ff" d="M317.65,-1029.51C312.52,-1033.47 302.01,-1036.12 286.12,-1036.12 257.89,-1036.12 246.64,-1027.74 252.37,-1018.54"/>
<polygon fill="#63b8ff" stroke="#63b8ff" points="321.02,-1030.52 319.57,-1020.02 314.16,-1029.13 321.02,-1030.52"/>
</a>
</g>
</g>
<!-- Node31 -->
<g id="Node000031" class="node">
<title>Node31</title>
<g id="a_Node000031"><a xlink:href="kest__expression_8c.html#a619ffc9c55b8a65d5681d740b8738598" target="_top" xlink:title=" ">
<polygon fill="white" stroke="#666666" points="156.25,-1018.12 13.5,-1018.12 13.5,-984.62 156.25,-984.62 156.25,-1018.12"/>
<text xml:space="preserve" text-anchor="start" x="21.5" y="-1004.62" font-family="Helvetica,sans-Serif" font-size="10.00">kest_expression_compute</text>
<text xml:space="preserve" text-anchor="middle" x="84.88" y="-991.88" font-family="Helvetica,sans-Serif" font-size="10.00">_range</text>
</a>
</g>
</g>
<!-- Node30&#45;&gt;Node31 -->
<g id="edge10_Node000030_Node000031" class="edge">
<title>Node30&#45;&gt;Node31</title>
<g id="a_edge10_Node000030_Node000031"><a xlink:title=" ">
<path fill="none" stroke="#63b8ff" d="M203.16,-1001.38C187.66,-1001.38 171.57,-1001.38 156.46,-1001.38"/>
<polygon fill="#63b8ff" stroke="#63b8ff" points="202.8,-1004.88 212.8,-1001.38 202.8,-997.88 202.8,-1004.88"/>
</a>
</g>
</g>
<!-- Node32&#45;&gt;Node3 -->
<g id="edge16_Node000032_Node000003" class="edge">
<title>Node32&#45;&gt;Node3</title>
<g id="a_edge16_Node000032_Node000003"><a xlink:title=" ">
<path fill="none" stroke="#63b8ff" d="M469.19,-539.73C459.21,-485.12 428.17,-338.56 366.5,-232.38 350.58,-204.97 324.84,-178.86 307.01,-162.52"/>
<polygon fill="#63b8ff" stroke="#63b8ff" points="465.69,-540.03 470.88,-549.26 472.58,-538.81 465.69,-540.03"/>
</a>
</g>
</g>
<!-- Node32&#45;&gt;Node28 -->
<g id="edge17_Node000032_Node000028" class="edge">
<title>Node32&#45;&gt;Node28</title>
<g id="a_edge17_Node000032_Node000028"><a xlink:title=" ">
<path fill="none" stroke="#63b8ff" d="M471.43,-539.34C466.68,-485.51 446.86,-346.37 366.5,-273.38 350.81,-259.13 234.53,-231.64 156.66,-214.48"/>
<polygon fill="#63b8ff" stroke="#63b8ff" points="467.92,-539.36 472.19,-549.06 474.9,-538.82 467.92,-539.36"/>
</a>
</g>
</g>
<!-- Node32&#45;&gt;Node30 -->
<g id="edge18_Node000032_Node000030" class="edge">
<title>Node32&#45;&gt;Node30</title>
<g id="a_edge18_Node000032_Node000030"><a xlink:title=" ">
<path fill="none" stroke="#63b8ff" d="M465.29,-582.72C451.4,-622.42 421.53,-710.46 402.5,-786.38 381.7,-869.32 422.96,-911.16 366.5,-975.38 363.53,-978.75 360.12,-981.69 356.41,-984.25"/>
<polygon fill="#63b8ff" stroke="#63b8ff" points="468.54,-584.05 468.56,-573.45 461.94,-581.72 468.54,-584.05"/>
</a>
</g>
</g>
<!-- Node33 -->
<g id="Node000033" class="node">
<title>Node33</title>
<g id="a_Node000033"><a xlink:href="kest__update_8c.html#a3b46c1442a6ab20c997448ccd7c54d90" target="_top" xlink:title=" ">
<polygon fill="#fff0f0" stroke="red" points="344,-332.75 228.25,-332.75 228.25,-312 344,-312 344,-332.75"/>
<text xml:space="preserve" text-anchor="middle" x="286.12" y="-319.25" font-family="Helvetica,sans-Serif" font-size="10.00">kest_alloc_for_delay</text>
</a>
</g>
</g>
<!-- Node32&#45;&gt;Node33 -->
<g id="edge13_Node000032_Node000033" class="edge">
<title>Node32&#45;&gt;Node33</title>
<g id="a_edge13_Node000032_Node000033"><a xlink:title=" ">
<path fill="none" stroke="#63b8ff" d="M468.77,-539.45C459.25,-494.88 431.31,-393.54 366.5,-341.38 359.99,-336.13 352.26,-332.3 344.22,-329.5"/>
<polygon fill="#63b8ff" stroke="#63b8ff" points="465.33,-540.06 470.73,-549.17 472.19,-538.68 465.33,-540.06"/>
</a>
</g>
</g>
<!-- Node40 -->
<g id="Node000040" class="node">
<title>Node40</title>
<g id="a_Node000040"><a xlink:href="kest__dictionary_8c.html#a63ef5f726bdd08212e933c93e4a17ad8" target="_top" xlink:title=" ">
<polygon fill="white" stroke="#666666" points="360.5,-384.12 211.75,-384.12 211.75,-350.62 360.5,-350.62 360.5,-384.12"/>
<text xml:space="preserve" text-anchor="start" x="219.75" y="-370.62" font-family="Helvetica,sans-Serif" font-size="10.00">kest_const_num_dictionary</text>
<text xml:space="preserve" text-anchor="middle" x="286.12" y="-357.88" font-family="Helvetica,sans-Serif" font-size="10.00">_entry_evaluate</text>
</a>
</g>
</g>
<!-- Node32&#45;&gt;Node40 -->
<g id="edge14_Node000032_Node000040" class="edge">
<title>Node32&#45;&gt;Node40</title>
<g id="a_edge14_Node000032_Node000040"><a xlink:title=" ">
<path fill="none" stroke="#63b8ff" d="M464.93,-539.91C450.68,-504.3 417.41,-433 366.5,-393.38 362.15,-389.99 357.35,-387.04 352.31,-384.46"/>
<polygon fill="#63b8ff" stroke="#63b8ff" points="461.62,-541.05 468.49,-549.11 468.15,-538.52 461.62,-541.05"/>
</a>
</g>
</g>
<!-- Node41 -->
<g id="Node000041" class="node">
<title>Node41</title>
<g id="a_Node000041"><a xlink:href="kest__dict__extract_8c.html#ab9eb2913c5cfcd0dd01128a9b0d3be9a" target="_top" xlink:title=" ">
<polygon fill="#fff0f0" stroke="red" points="164.12,-335.75 5.62,-335.75 5.62,-315 164.12,-315 164.12,-335.75"/>
<text xml:space="preserve" text-anchor="middle" x="84.88" y="-322.25" font-family="Helvetica,sans-Serif" font-size="10.00">kest_extract_mem_from_dict</text>
</a>
</g>
</g>
<!-- Node32&#45;&gt;Node41 -->
<g id="edge22_Node000032_Node000041" class="edge">
<title>Node32&#45;&gt;Node41</title>
<g id="a_edge22_Node000032_Node000041"><a xlink:title=" ">
<path fill="none" stroke="#63b8ff" d="M471.55,-539.32C467.11,-487.43 447.97,-357.91 366.5,-303.38 285.68,-249.28 160.94,-292.58 109.4,-314.54"/>
<polygon fill="#63b8ff" stroke="#63b8ff" points="468.06,-539.52 472.28,-549.23 475.04,-539 468.06,-539.52"/>
</a>
</g>
</g>
<!-- Node42 -->
<g id="Node000042" class="node">
<title>Node42</title>
<g id="a_Node000042"><a xlink:href="kest__dict__extract_8c.html#a449de50461a34d20bba301a90a39ec05" target="_top" xlink:title=" ">
<polygon fill="#fff0f0" stroke="red" points="338.38,-966.12 233.88,-966.12 233.88,-932.62 338.38,-932.62 338.38,-966.12"/>
<text xml:space="preserve" text-anchor="start" x="241.88" y="-952.62" font-family="Helvetica,sans-Serif" font-size="10.00">kest_extract_filter</text>
<text xml:space="preserve" text-anchor="middle" x="286.12" y="-939.88" font-family="Helvetica,sans-Serif" font-size="10.00">_from_dict</text>
</a>
</g>
</g>
<!-- Node32&#45;&gt;Node42 -->
<g id="edge19_Node000032_Node000042" class="edge">
<title>Node32&#45;&gt;Node42</title>
<g id="a_edge19_Node000032_Node000042"><a xlink:title=" ">
<path fill="none" stroke="#63b8ff" d="M465.79,-582.86C452.71,-622.77 424.13,-711.16 402.5,-786.38 385.1,-846.88 409.67,-877.55 366.5,-923.38 359.04,-931.29 349.14,-936.8 338.87,-940.63"/>
<polygon fill="#63b8ff" stroke="#63b8ff" points="469.06,-584.13 468.86,-573.53 462.41,-581.94 469.06,-584.13"/>
</a>
</g>
</g>
<!-- Node43 -->
<g id="Node000043" class="node">
<title>Node43</title>
<g id="a_Node000043"><a xlink:href="kest__dict__extract_8c.html#aaef489a5ae1caa02a5e5a3ce26034d48" target="_top" xlink:title=" ">
<polygon fill="white" stroke="#666666" points="352.62,-914.12 219.62,-914.12 219.62,-880.62 352.62,-880.62 352.62,-914.12"/>
<text xml:space="preserve" text-anchor="start" x="227.62" y="-900.62" font-family="Helvetica,sans-Serif" font-size="10.00">kest_extract_int_setting</text>
<text xml:space="preserve" text-anchor="middle" x="286.12" y="-887.88" font-family="Helvetica,sans-Serif" font-size="10.00">_from_dict</text>
</a>
</g>
</g>
<!-- Node32&#45;&gt;Node43 -->
<g id="edge20_Node000032_Node000043" class="edge">
<title>Node32&#45;&gt;Node43</title>
<g id="a_edge20_Node000032_Node000043"><a xlink:title=" ">
<path fill="none" stroke="#63b8ff" d="M466.14,-582.67C444.48,-650.96 377.35,-860.68 366.5,-871.38 362.47,-875.35 357.83,-878.71 352.85,-881.56"/>
<polygon fill="#63b8ff" stroke="#63b8ff" points="469.39,-584 469.07,-573.41 462.72,-581.89 469.39,-584"/>
</a>
</g>
</g>
<!-- Node44 -->
<g id="Node000044" class="node">
<title>Node44</title>
<g id="a_Node000044"><a xlink:href="kest__dict__extract_8c.html#a0225c4392c944b41b1db66787be35243" target="_top" xlink:title=" ">
<polygon fill="white" stroke="#666666" points="142.38,-846.12 27.38,-846.12 27.38,-812.62 142.38,-812.62 142.38,-846.12"/>
<text xml:space="preserve" text-anchor="start" x="35.38" y="-832.62" font-family="Helvetica,sans-Serif" font-size="10.00">kest_extract_setting</text>
<text xml:space="preserve" text-anchor="middle" x="84.88" y="-819.88" font-family="Helvetica,sans-Serif" font-size="10.00">_from_dict</text>
</a>
</g>
</g>
<!-- Node32&#45;&gt;Node44 -->
<g id="edge24_Node000032_Node000044" class="edge">
<title>Node32&#45;&gt;Node44</title>
<g id="a_edge24_Node000032_Node000044"><a xlink:title=" ">
<path fill="none" stroke="#63b8ff" d="M466.53,-582.94C454.05,-621.46 422.52,-701.93 366.5,-743.38 307.48,-787.04 275.74,-759.22 205.75,-781.38 178.07,-790.13 147.72,-802.31 124.48,-812.21"/>
<polygon fill="#63b8ff" stroke="#63b8ff" points="469.86,-584.04 469.48,-573.46 463.17,-581.97 469.86,-584.04"/>
</a>
</g>
</g>
<!-- Node45 -->
<g id="Node000045" class="node">
<title>Node45</title>
<g id="a_Node000045"><a xlink:href="kest__dict__extract_8c.html#a257515513f657f6132b3b0e9a86c537c" target="_top" xlink:title=" ">
<polygon fill="#fff0f0" stroke="red" points="343.62,-862.75 228.62,-862.75 228.62,-842 343.62,-842 343.62,-862.75"/>
<text xml:space="preserve" text-anchor="middle" x="286.12" y="-849.25" font-family="Helvetica,sans-Serif" font-size="10.00">kest_extract_setting</text>
</a>
</g>
</g>
<!-- Node32&#45;&gt;Node45 -->
<g id="edge23_Node000032_Node000045" class="edge">
<title>Node32&#45;&gt;Node45</title>
<g id="a_edge23_Node000032_Node000045"><a xlink:title=" ">
<path fill="none" stroke="#63b8ff" d="M467.19,-583.05C451.52,-641.24 406.21,-798.79 366.5,-833.38 359.98,-839.05 352.06,-843.1 343.78,-845.98"/>
<polygon fill="#63b8ff" stroke="#63b8ff" points="470.49,-584.25 469.68,-573.69 463.73,-582.45 470.49,-584.25"/>
</a>
</g>
</g>
<!-- Node47 -->
<g id="Node000047" class="node">
<title>Node47</title>
<g id="a_Node000047"><a xlink:href="kest__fpga__encoding_8c.html#a671c5c9aca5f0e8197dbccbc0dd8291c" target="_top" xlink:title=" ">
<polygon fill="#fff0f0" stroke="red" points="354.5,-824.12 217.75,-824.12 217.75,-790.62 354.5,-790.62 354.5,-824.12"/>
<text xml:space="preserve" text-anchor="start" x="225.75" y="-810.62" font-family="Helvetica,sans-Serif" font-size="10.00">kest_fpga_batch_append</text>
<text xml:space="preserve" text-anchor="middle" x="286.12" y="-797.88" font-family="Helvetica,sans-Serif" font-size="10.00">_block_register_updates</text>
</a>
</g>
</g>
<!-- Node32&#45;&gt;Node47 -->
<g id="edge25_Node000032_Node000047" class="edge">
<title>Node32&#45;&gt;Node47</title>
<g id="a_edge25_Node000032_Node000047"><a xlink:title=" ">
<path fill="none" stroke="#63b8ff" d="M467.79,-582.98C456.68,-625.7 426.3,-721.57 366.5,-776.38 360.5,-781.87 353.42,-786.44 345.99,-790.22"/>
<polygon fill="#63b8ff" stroke="#63b8ff" points="471.15,-583.99 470.16,-573.44 464.36,-582.3 471.15,-583.99"/>
</a>
</g>
</g>
<!-- Node93 -->
<g id="Node000093" class="node">
<title>Node93</title>
<g id="a_Node000093"><a xlink:href="kest__fpga__encoding_8c.html#a48ab2470c45981ea279dd588b37c36df" target="_top" xlink:title=" ">
<polygon fill="#fff0f0" stroke="red" points="354.5,-734.12 217.75,-734.12 217.75,-700.62 354.5,-700.62 354.5,-734.12"/>
<text xml:space="preserve" text-anchor="start" x="225.75" y="-720.62" font-family="Helvetica,sans-Serif" font-size="10.00">kest_fpga_batch_append</text>
<text xml:space="preserve" text-anchor="middle" x="286.12" y="-707.88" font-family="Helvetica,sans-Serif" font-size="10.00">_block_regs</text>
</a>
</g>
</g>
<!-- Node32&#45;&gt;Node93 -->
<g id="edge26_Node000032_Node000093" class="edge">
<title>Node32&#45;&gt;Node93</title>
<g id="a_edge26_Node000032_Node000093"><a xlink:title=" ">
<path fill="none" stroke="#63b8ff" d="M461.26,-581.94C444.11,-610.51 409.37,-661.99 366.5,-691.38 361.6,-694.74 356.23,-697.69 350.67,-700.27"/>
<polygon fill="#63b8ff" stroke="#63b8ff" points="464.16,-583.92 466.19,-573.52 458.12,-580.38 464.16,-583.92"/>
</a>
</g>
</g>
<!-- Node108 -->
<g id="Node000108" class="node">
<title>Node108</title>
<g id="a_Node000108"><a xlink:href="kest__fpga__encoding_8c.html#a64f5333c5ff60101795695bce0de75d5" target="_top" xlink:title=" ">
<polygon fill="#fff0f0" stroke="red" points="354.5,-682.12 217.75,-682.12 217.75,-648.62 354.5,-648.62 354.5,-682.12"/>
<text xml:space="preserve" text-anchor="start" x="225.75" y="-668.62" font-family="Helvetica,sans-Serif" font-size="10.00">kest_fpga_batch_append</text>
<text xml:space="preserve" text-anchor="middle" x="286.12" y="-655.88" font-family="Helvetica,sans-Serif" font-size="10.00">_filter_updates</text>
</a>
</g>
</g>
<!-- Node32&#45;&gt;Node108 -->
<g id="edge27_Node000032_Node000108" class="edge">
<title>Node32&#45;&gt;Node108</title>
<g id="a_edge27_Node000032_Node000108"><a xlink:title=" ">
<path fill="none" stroke="#63b8ff" d="M452.46,-579.42C431.95,-596.78 398.83,-622.77 366.5,-639.38 360.18,-642.62 353.37,-645.58 346.49,-648.24"/>
<polygon fill="#63b8ff" stroke="#63b8ff" points="454.51,-582.28 459.8,-573.1 449.94,-576.97 454.51,-582.28"/>
</a>
</g>
</g>
<!-- Node112 -->
<g id="Node000112" class="node">
<title>Node112</title>
<g id="a_Node000112"><a xlink:href="kest__fpga__encoding_8c.html#aa82f7b9cb7a332e38a8a810376eea489" target="_top" xlink:title=" ">
<polygon fill="#fff0f0" stroke="red" points="354.5,-630.12 217.75,-630.12 217.75,-596.62 354.5,-596.62 354.5,-630.12"/>
<text xml:space="preserve" text-anchor="start" x="225.75" y="-616.62" font-family="Helvetica,sans-Serif" font-size="10.00">kest_fpga_batch_append</text>
<text xml:space="preserve" text-anchor="middle" x="286.12" y="-603.88" font-family="Helvetica,sans-Serif" font-size="10.00">_resource</text>
</a>
</g>
</g>
<!-- Node32&#45;&gt;Node112 -->
<g id="edge28_Node000032_Node000112" class="edge">
<title>Node32&#45;&gt;Node112</title>
<g id="a_edge28_Node000032_Node000112"><a xlink:title=" ">
<path fill="none" stroke="#63b8ff" d="M423.5,-575.2C400.51,-581.63 372.92,-589.36 348.6,-596.17"/>
<polygon fill="#63b8ff" stroke="#63b8ff" points="424.24,-578.62 432.93,-572.56 422.36,-571.88 424.24,-578.62"/>
</a>
</g>
</g>
<!-- Node115 -->
<g id="Node000115" class="node">
<title>Node115</title>
<g id="a_Node000115"><a xlink:href="kest__update_8c.html#a496cd436d76c6245f211e12b594a9a52" target="_top" xlink:title=" ">
<polygon fill="#fff0f0" stroke="red" points="340.25,-578.12 232,-578.12 232,-544.62 340.25,-544.62 340.25,-578.12"/>
<text xml:space="preserve" text-anchor="start" x="240" y="-564.62" font-family="Helvetica,sans-Serif" font-size="10.00">kest_fpga_write_to</text>
<text xml:space="preserve" text-anchor="middle" x="286.12" y="-551.88" font-family="Helvetica,sans-Serif" font-size="10.00">_command</text>
</a>
</g>
</g>
<!-- Node32&#45;&gt;Node115 -->
<g id="edge29_Node000032_Node000115" class="edge">
<title>Node32&#45;&gt;Node115</title>
<g id="a_edge29_Node000032_Node000115"><a xlink:title=" ">
<path fill="none" stroke="#63b8ff" d="M391,-561.38C373.93,-561.38 356.36,-561.38 340.63,-561.38"/>
<polygon fill="#63b8ff" stroke="#63b8ff" points="390.61,-564.88 400.61,-561.38 390.61,-557.88 390.61,-564.88"/>
</a>
</g>
</g>
<!-- Node117 -->
<g id="Node000117" class="node">
<title>Node117</title>
<g id="a_Node000117"><a xlink:href="kest__asm__parser_8c.html#a2631a3bf92814826b04c07694026a878" target="_top" xlink:title=" ">
<polygon fill="#fff0f0" stroke="red" points="350.38,-526.75 221.88,-526.75 221.88,-506 350.38,-506 350.38,-526.75"/>
<text xml:space="preserve" text-anchor="middle" x="286.12" y="-513.25" font-family="Helvetica,sans-Serif" font-size="10.00">kest_process_asm_line</text>
</a>
</g>
</g>
<!-- Node32&#45;&gt;Node117 -->
<g id="edge30_Node000032_Node000117" class="edge">
<title>Node32&#45;&gt;Node117</title>
<g id="a_edge30_Node000032_Node000117"><a xlink:title=" ">
<path fill="none" stroke="#63b8ff" d="M417.56,-547.8C401.13,-543.78 383.09,-539.39 366.5,-535.38 355.48,-532.71 343.6,-529.85 332.47,-527.19"/>
<polygon fill="#63b8ff" stroke="#63b8ff" points="416.62,-551.18 427.17,-550.15 418.28,-544.38 416.62,-551.18"/>
</a>
</g>
</g>
<!-- Node119 -->
<g id="Node000119" class="node">
<title>Node119</title>
<g id="a_Node000119"><a xlink:href="kest__update_8c.html#aad06a3a37a6552d9cff5e2b435ff1f0b" target="_top" xlink:title=" ">
<polygon fill="#fff0f0" stroke="red" points="339.5,-488.12 232.75,-488.12 232.75,-454.62 339.5,-454.62 339.5,-488.12"/>
<text xml:space="preserve" text-anchor="start" x="240.75" y="-474.62" font-family="Helvetica,sans-Serif" font-size="10.00">kest_updater_print</text>
<text xml:space="preserve" text-anchor="middle" x="286.12" y="-461.88" font-family="Helvetica,sans-Serif" font-size="10.00">_filter_writes</text>
</a>
</g>
</g>
<!-- Node32&#45;&gt;Node119 -->
<g id="edge31_Node000032_Node000119" class="edge">
<title>Node32&#45;&gt;Node119</title>
<g id="a_edge31_Node000032_Node000119"><a xlink:title=" ">
<path fill="none" stroke="#63b8ff" d="M448.19,-544.33C427.17,-530.36 395.81,-510.78 366.5,-497.38 358.06,-493.51 348.88,-489.96 339.86,-486.8"/>
<polygon fill="#63b8ff" stroke="#63b8ff" points="446.12,-547.16 456.37,-549.84 450.03,-541.35 446.12,-547.16"/>
</a>
</g>
</g>
<!-- Node120 -->
<g id="Node000120" class="node">
<title>Node120</title>
<g id="a_Node000120"><a xlink:href="kest__update_8c.html#a6ac56bd27d651d11d6ffa61dc201b988" target="_top" xlink:title=" ">
<polygon fill="#fff0f0" stroke="red" points="339.5,-436.12 232.75,-436.12 232.75,-402.62 339.5,-402.62 339.5,-436.12"/>
<text xml:space="preserve" text-anchor="start" x="240.75" y="-422.62" font-family="Helvetica,sans-Serif" font-size="10.00">kest_updater_print</text>
<text xml:space="preserve" text-anchor="middle" x="286.12" y="-409.88" font-family="Helvetica,sans-Serif" font-size="10.00">_reg_writes</text>
</a>
</g>
</g>
<!-- Node32&#45;&gt;Node120 -->
<g id="edge32_Node000032_Node000120" class="edge">
<title>Node32&#45;&gt;Node120</title>
<g id="a_edge32_Node000032_Node000120"><a xlink:title=" ">
<path fill="none" stroke="#63b8ff" d="M459.67,-541.58C441.56,-515.87 406.64,-471.25 366.5,-445.38 358.33,-440.11 349.01,-435.82 339.68,-432.36"/>
<polygon fill="#63b8ff" stroke="#63b8ff" points="456.56,-543.23 465.11,-549.48 462.33,-539.26 456.56,-543.23"/>
</a>
</g>
</g>
<!-- Node40&#45;&gt;Node41 -->
<g id="edge15_Node000040_Node000041" class="edge">
<title>Node40&#45;&gt;Node41</title>
<g id="a_edge15_Node000040_Node000041"><a xlink:title=" ">
<path fill="none" stroke="#63b8ff" d="M200.41,-349.52C179,-345.01 156.65,-340.29 137.44,-336.24"/>
<polygon fill="#63b8ff" stroke="#63b8ff" points="199.51,-352.9 210.02,-351.54 200.95,-346.06 199.51,-352.9"/>
</a>
</g>
</g>
<!-- Node43&#45;&gt;Node44 -->
<g id="edge21_Node000043_Node000044" class="edge">
<title>Node43&#45;&gt;Node44</title>
<g id="a_edge21_Node000043_Node000044"><a xlink:title=" ">
<path fill="none" stroke="#63b8ff" d="M221.32,-876.6C216.05,-874.85 210.81,-873.09 205.75,-871.38 182.15,-863.38 156.03,-854.26 134.21,-846.56"/>
<polygon fill="#63b8ff" stroke="#63b8ff" points="220.1,-879.88 230.69,-879.71 222.3,-873.24 220.1,-879.88"/>
</a>
</g>
</g>
<!-- Node122 -->
<g id="Node000122" class="node">
<title>Node122</title>
<g id="a_Node000122"><a xlink:href="kest__resource_8c.html#a4607df4fd224fe134f30443caecf4713" target="_top" xlink:title=" ">
<polygon fill="white" stroke="#666666" points="337.25,-110.75 235,-110.75 235,-90 337.25,-90 337.25,-110.75"/>
<text xml:space="preserve" text-anchor="middle" x="286.12" y="-97.25" font-family="Helvetica,sans-Serif" font-size="10.00">kest_lfo_evaluate</text>
</a>
</g>
</g>
<!-- Node121&#45;&gt;Node122 -->
<g id="edge35_Node000121_Node000122" class="edge">
<title>Node121&#45;&gt;Node122</title>
<g id="a_edge35_Node000121_Node000122"><a xlink:title=" ">
<path fill="none" stroke="#63b8ff" d="M401.07,-120.01C379.91,-116.36 357.2,-112.45 337.67,-109.08"/>
<polygon fill="#63b8ff" stroke="#63b8ff" points="400.37,-123.44 410.82,-121.68 401.56,-116.54 400.37,-123.44"/>
</a>
</g>
</g>
<!-- Node122&#45;&gt;Node1 -->
<g id="edge36_Node000122_Node000001" class="edge">
<title>Node122&#45;&gt;Node1</title>
<g id="a_edge36_Node000122_Node000001"><a xlink:title=" ">
<path fill="none" stroke="#63b8ff" d="M348.84,-99.72C453.98,-98.61 667.35,-96.34 779.78,-95.15"/>
<polygon fill="#63b8ff" stroke="#63b8ff" points="348.96,-96.22 338.99,-99.82 349.03,-103.22 348.96,-96.22"/>
</a>
</g>
</g>
<!-- Node124 -->
<g id="Node000124" class="node">
<title>Node124</title>
<g id="a_Node000124"><a xlink:href="kest__parameter_8c.html#aed9bf2d04b704f1d4119124999a692e0" target="_top" xlink:title=" ">
<polygon fill="#fff0f0" stroke="red" points="342.88,-1088.12 229.38,-1088.12 229.38,-1054.62 342.88,-1054.62 342.88,-1088.12"/>
<text xml:space="preserve" text-anchor="start" x="237.38" y="-1074.62" font-family="Helvetica,sans-Serif" font-size="10.00">kest_parameter_get</text>
<text xml:space="preserve" text-anchor="middle" x="286.12" y="-1061.88" font-family="Helvetica,sans-Serif" font-size="10.00">_range</text>
</a>
</g>
</g>
<!-- Node123&#45;&gt;Node124 -->
<g id="edge38_Node000123_Node000124" class="edge">
<title>Node123&#45;&gt;Node124</title>
<g id="a_edge38_Node000123_Node000124"><a xlink:title=" ">
<path fill="none" stroke="#63b8ff" d="M448.17,-983.1C427.77,-1002.34 397.26,-1028.53 366.5,-1045.38 359.25,-1049.35 351.29,-1052.84 343.31,-1055.87"/>
<polygon fill="#63b8ff" stroke="#63b8ff" points="450.39,-985.82 455.18,-976.37 445.54,-980.77 450.39,-985.82"/>
</a>
</g>
</g>
<!-- Node169 -->
<g id="Node000169" class="node">
<title>Node169</title>
<g id="a_Node000169"><a xlink:href="kest__driver_8c.html#ad7d539e70589854e314a464d5dfddcb5" target="_top" xlink:title=" ">
<polygon fill="white" stroke="#666666" points="532.88,-65.75 414.88,-65.75 414.88,-45 532.88,-45 532.88,-65.75"/>
<text xml:space="preserve" text-anchor="middle" x="473.88" y="-52.25" font-family="Helvetica,sans-Serif" font-size="10.00">kest_driver_evaluate</text>
</a>
</g>
</g>
<!-- Node168&#45;&gt;Node169 -->
<g id="edge41_Node000168_Node000169" class="edge">
<title>Node168&#45;&gt;Node169</title>
<g id="a_edge41_Node000168_Node000169"><a xlink:title=" ">
<path fill="none" stroke="#63b8ff" d="M587.63,-55.38C569.59,-55.38 550.55,-55.38 533.35,-55.38"/>
<polygon fill="#63b8ff" stroke="#63b8ff" points="587.49,-58.88 597.49,-55.38 587.49,-51.88 587.49,-58.88"/>
</a>
</g>
</g>
<!-- Node170 -->
<g id="Node000170" class="node">
<title>Node170</title>
<g id="a_Node000170"><a xlink:href="kest__parameter_8c.html#a15e6143699061c919fa9882de5b5b7f7" target="_top" xlink:title=" ">
<polygon fill="#fff0f0" stroke="red" points="366.5,-20.75 205.75,-20.75 205.75,0 366.5,0 366.5,-20.75"/>
<text xml:space="preserve" text-anchor="middle" x="286.12" y="-7.25" font-family="Helvetica,sans-Serif" font-size="10.00">kest_parameter_evaluate_rec</text>
</a>
</g>
</g>
<!-- Node169&#45;&gt;Node170 -->
<g id="edge42_Node000169_Node000170" class="edge">
<title>Node169&#45;&gt;Node170</title>
<g id="a_edge42_Node000169_Node000170"><a xlink:title=" ">
<path fill="none" stroke="#63b8ff" d="M417.56,-41.8C401.13,-37.78 383.09,-33.39 366.5,-29.38 355.48,-26.71 343.6,-23.85 332.47,-21.19"/>
<polygon fill="#63b8ff" stroke="#63b8ff" points="416.62,-45.18 427.17,-44.15 418.28,-38.38 416.62,-45.18"/>
</a>
</g>
</g>
<!-- Node175 -->
<g id="Node000175" class="node">
<title>Node175</title>
<g id="a_Node000175"><a xlink:href="kest__parameter_8c.html#a59275c55fece9f1130392cc27dcf31e3" target="_top" xlink:title=" ">
<polygon fill="#fff0f0" stroke="red" points="356.38,-72.12 215.88,-72.12 215.88,-38.62 356.38,-38.62 356.38,-72.12"/>
<text xml:space="preserve" text-anchor="start" x="223.88" y="-58.62" font-family="Helvetica,sans-Serif" font-size="10.00">kest_parameter_if_driven</text>
<text xml:space="preserve" text-anchor="middle" x="286.12" y="-45.88" font-family="Helvetica,sans-Serif" font-size="10.00">_refresh</text>
</a>
</g>
</g>
<!-- Node169&#45;&gt;Node175 -->
<g id="edge44_Node000169_Node000175" class="edge">
<title>Node169&#45;&gt;Node175</title>
<g id="a_edge44_Node000169_Node000175"><a xlink:title=" ">
<path fill="none" stroke="#63b8ff" d="M403.16,-55.38C387.93,-55.38 371.8,-55.38 356.58,-55.38"/>
<polygon fill="#63b8ff" stroke="#63b8ff" points="403.1,-58.88 413.1,-55.38 403.1,-51.88 403.1,-58.88"/>
</a>
</g>
</g>
<!-- Node170&#45;&gt;Node1 -->
<g id="edge43_Node000170_Node000001" class="edge">
<title>Node170&#45;&gt;Node1</title>
<g id="a_edge43_Node000170_Node000001"><a xlink:title=" ">
<path fill="none" stroke="#63b8ff" d="M378.29,-4.17C471.93,-0.42 621.01,-1.78 744.25,-36.38 780.27,-46.48 817.8,-69.88 837.95,-83.67"/>
<polygon fill="#63b8ff" stroke="#63b8ff" points="378.22,-0.67 368.38,-4.6 378.52,-7.67 378.22,-0.67"/>
</a>
</g>
</g>
</g>
</svg>

<g id="navigator" transform="translate(0 0)" fill="#404254">
  <rect fill="#f2f5e9" fill-opacity="0.5" stroke="#606060" stroke-width=".5" x="0" y="0" width="60" height="60"/>
  <use id="zoomplus" xlink:href="#zoomPlus" x="17" y="9" onmousedown="handleZoom(evt,'in')"/>
  <use id="zoomminus" xlink:href="#zoomMin" x="42" y="9" onmousedown="handleZoom(evt,'out')"/>
  <use id="reset" xlink:href="#resetDef" x="30" y="36" onmousedown="handleReset()"/>
   <use id="arrowup" xlink:href="#arrowUp" x="0" y="0" onmousedown="handlePan(0,-1)"/>
  <use id="arrowright" xlink:href="#arrowRight" x="0" y="0" onmousedown="handlePan(1,0)"/>
  <use id="arrowdown" xlink:href="#arrowDown" x="0" y="0" onmousedown="handlePan(0,1)"/>
  <use id="arrowleft" xlink:href="#arrowLeft" x="0" y="0" onmousedown="handlePan(-1,0)"/>
</g>
<svg viewBox="0 0 15 15" width="100%" height="30px" preserveAspectRatio="xMaxYMin meet">
 <g id="arrow_out" transform="scale(0.3 0.3)">
  <a xlink:href="kest__expr__scope_8c_ab4b2ce40beae39f7dc02743730a37ec7_icgraph_org.svg" target="_base">
   <rect id="button" ry="5" rx="5" y="6" x="6" height="38" width="38"
        fill="#f2f5e9" fill-opacity="0.5" stroke="#606060" stroke-width="1.0"/>
   <path id="arrow"
     d="M 11.500037,31.436501 C 11.940474,20.09759 22.043105,11.32322 32.158766,21.979434 L 37.068811,17.246167 C 37.068811,17.246167 37.088388,32 37.088388,32 L 22.160133,31.978069 C 22.160133,31.978069 26.997745,27.140456 26.997745,27.140456 C 18.528582,18.264221 13.291696,25.230495 11.500037,31.436501 z"
     style="fill:#404040;"/>
  </a>
 </g>
</svg>

<style type='text/css'>
<![CDATA[
[data-mouse-over-selected='false'] { opacity: 0.7; }
[data-mouse-over-selected='true']  { opacity: 1.0; }
]]>
</style>
<script type="application/ecmascript"><![CDATA[
document.addEventListener('DOMContentLoaded', (event) => {
  highlightEdges();
  highlightAdjacentNodes();
});
]]></script>
</svg>
