<?xml version="1.0" encoding="UTF-8" standalone="no"?>
<!DOCTYPE svg PUBLIC "-//W3C//DTD SVG 1.1//EN"
 "http://www.w3.org/Graphics/SVG/1.1/DTD/svg11.dtd">
<!-- Generated by graphviz version 13.1.2 (20250808.2320)
 -->
<!-- Title: kest_linked_list.h Pages: 1 -->
<svg width="4023pt" height="199pt"
 viewBox="0.00 0.00 4023.00 199.00" xmlns="http://www.w3.org/2000/svg" xmlns:xlink="http://www.w3.org/1999/xlink">
<g id="graph0" class="graph" transform="scale(1 1) rotate(0) translate(4 195)">
<title>kest_linked_list.h</title>
<!-- Node1 -->
<g id="Node000001" class="node">
<title>Node1</title>
<g id="a_Node000001"><a xlink:title=" ">
<polygon fill="#999999" stroke="#666666" points="1962.5,-191 1862.5,-191 1862.5,-170.25 1962.5,-170.25 1962.5,-191"/>
<text xml:space="preserve" text-anchor="middle" x="1912.5" y="-177.5" font-family="Helvetica,sans-Serif" font-size="10.00">kest_linked_list.h</text>
</a>
</g>
</g>
<!-- Node2 -->
<g id="Node000002" class="node">
<title>Node2</title>
<g id="a_Node000002"><a xlink:href="kest__desktop_8h.html" target="_top" xlink:title=" ">
<polygon fill="white" stroke="#666666" points="1889.25,-77.5 1799.75,-77.5 1799.75,-56.75 1889.25,-56.75 1889.25,-77.5"/>
<text xml:space="preserve" text-anchor="middle" x="1844.5" y="-64" font-family="Helvetica,sans-Serif" font-size="10.00">kest_desktop.h</text>
</a>
</g>
</g>
<!-- Node1&#45;&gt;Node2 -->
<g id="edge1_Node000001_Node000002" class="edge">
<title>Node1&#45;&gt;Node2</title>
<g id="a_edge1_Node000001_Node000002"><a xlink:title=" ">
<path fill="none" stroke="#63b8ff" d="M1870.51,-165.2C1856.52,-158.16 1842.48,-148.13 1834.5,-134.25 1824.2,-116.34 1833.06,-91.36 1839.41,-77.81"/>
<polygon fill="#63b8ff" stroke="#63b8ff" points="1868.67,-168.21 1879.22,-169.18 1871.58,-161.84 1868.67,-168.21"/>
</a>
</g>
</g>
<!-- Node3 -->
<g id="Node000003" class="node">
<title>Node3</title>
<g id="a_Node000003"><a xlink:href="kest__int_8h.html" target="_top" xlink:title=" ">
<polygon fill="#fff0f0" stroke="red" points="2006.12,-77.5 1942.88,-77.5 1942.88,-56.75 2006.12,-56.75 2006.12,-77.5"/>
<text xml:space="preserve" text-anchor="middle" x="1974.5" y="-64" font-family="Helvetica,sans-Serif" font-size="10.00">kest_int.h</text>
</a>
</g>
</g>
<!-- Node1&#45;&gt;Node3 -->
<g id="edge2_Node000001_Node000003" class="edge">
<title>Node1&#45;&gt;Node3</title>
<g id="a_edge2_Node000001_Node000003"><a xlink:title=" ">
<path fill="none" stroke="#63b8ff" d="M1955.88,-165.27C1970.11,-158.27 1984.35,-148.24 1992.5,-134.25 2003.16,-115.95 1990.29,-91.13 1981.46,-77.7"/>
<polygon fill="#63b8ff" stroke="#63b8ff" points="1954.69,-161.97 1946.99,-169.24 1957.54,-168.36 1954.69,-161.97"/>
</a>
</g>
</g>
<!-- Node66 -->
<g id="Node000066" class="node">
<title>Node66</title>
<g id="a_Node000066"><a xlink:href="kest__lib_8h.html" target="_top" xlink:title=" ">
<polygon fill="white" stroke="#666666" points="1983.75,-134.25 1921.25,-134.25 1921.25,-113.5 1983.75,-113.5 1983.75,-134.25"/>
<text xml:space="preserve" text-anchor="middle" x="1952.5" y="-120.75" font-family="Helvetica,sans-Serif" font-size="10.00">kest_lib.h</text>
</a>
</g>
</g>
<!-- Node1&#45;&gt;Node66 -->
<g id="edge38_Node000001_Node000066" class="edge">
<title>Node1&#45;&gt;Node66</title>
<g id="a_edge38_Node000001_Node000066"><a xlink:title=" ">
<path fill="none" stroke="#63b8ff" d="M1926.35,-160.67C1932.77,-151.88 1940.14,-141.8 1945.41,-134.58"/>
<polygon fill="#63b8ff" stroke="#63b8ff" points="1923.62,-158.48 1920.54,-168.61 1929.27,-162.6 1923.62,-158.48"/>
</a>
</g>
</g>
<!-- Node67 -->
<g id="Node000067" class="node">
<title>Node67</title>
<g id="a_Node000067"><a xlink:href="kest__ui_8h.html" target="_top" xlink:title=" ">
<polygon fill="white" stroke="#666666" points="1903.25,-134.25 1843.75,-134.25 1843.75,-113.5 1903.25,-113.5 1903.25,-134.25"/>
<text xml:space="preserve" text-anchor="middle" x="1873.5" y="-120.75" font-family="Helvetica,sans-Serif" font-size="10.00">kest_ui.h</text>
</a>
</g>
</g>
<!-- Node1&#45;&gt;Node67 -->
<g id="edge39_Node000001_Node000067" class="edge">
<title>Node1&#45;&gt;Node67</title>
<g id="a_edge39_Node000001_Node000067"><a xlink:title=" ">
<path fill="none" stroke="#63b8ff" d="M1899,-160.67C1892.73,-151.88 1885.55,-141.8 1880.41,-134.58"/>
<polygon fill="#63b8ff" stroke="#63b8ff" points="1896,-162.49 1904.65,-168.6 1901.7,-158.43 1896,-162.49"/>
</a>
</g>
</g>
<!-- Node4 -->
<g id="Node000004" class="node">
<title>Node4</title>
<g id="a_Node000004"><a xlink:href="kest__alloc_8c.html" target="_top" xlink:title=" ">
<polygon fill="white" stroke="#666666" points="73,-20.75 0,-20.75 0,0 73,0 73,-20.75"/>
<text xml:space="preserve" text-anchor="middle" x="36.5" y="-7.25" font-family="Helvetica,sans-Serif" font-size="10.00">kest_alloc.c</text>
</a>
</g>
</g>
<!-- Node3&#45;&gt;Node4 -->
<g id="edge3_Node000003_Node000004" class="edge">
<title>Node3&#45;&gt;Node4</title>
<g id="a_edge3_Node000003_Node000004"><a xlink:title=" ">
<path fill="none" stroke="#63b8ff" d="M1931.19,-60C1920.52,-58.71 1909.11,-57.51 1898.5,-56.75 1495.89,-28 483.68,-65.24 82.5,-20.75 79.5,-20.42 76.41,-19.99 73.31,-19.49"/>
<polygon fill="#63b8ff" stroke="#63b8ff" points="1930.54,-63.45 1940.9,-61.23 1931.42,-56.5 1930.54,-63.45"/>
</a>
</g>
</g>
<!-- Node5 -->
<g id="Node000005" class="node">
<title>Node5</title>
<g id="a_Node000005"><a xlink:href="kest__asm__parser_8c.html" target="_top" xlink:title=" ">
<polygon fill="white" stroke="#666666" points="197.88,-20.75 91.12,-20.75 91.12,0 197.88,0 197.88,-20.75"/>
<text xml:space="preserve" text-anchor="middle" x="144.5" y="-7.25" font-family="Helvetica,sans-Serif" font-size="10.00">kest_asm_parser.c</text>
</a>
</g>
</g>
<!-- Node3&#45;&gt;Node5 -->
<g id="edge4_Node000003_Node000005" class="edge">
<title>Node3&#45;&gt;Node5</title>
<g id="a_edge4_Node000003_Node000005"><a xlink:title=" ">
<path fill="none" stroke="#63b8ff" d="M1931.19,-60.01C1920.52,-58.72 1909.11,-57.52 1898.5,-56.75 1148.28,-2.64 955.91,-85.11 206.5,-20.75 203.79,-20.52 201.02,-20.24 198.22,-19.93"/>
<polygon fill="#63b8ff" stroke="#63b8ff" points="1930.54,-63.46 1940.9,-61.24 1931.42,-56.51 1930.54,-63.46"/>
</a>
</g>
</g>
<!-- Node6 -->
<g id="Node000006" class="node">
<title>Node6</title>
<g id="a_Node000006"><a xlink:href="kest__block_8c.html" target="_top" xlink:title=" ">
<polygon fill="white" stroke="#666666" points="291.5,-20.75 215.5,-20.75 215.5,0 291.5,0 291.5,-20.75"/>
<text xml:space="preserve" text-anchor="middle" x="253.5" y="-7.25" font-family="Helvetica,sans-Serif" font-size="10.00">kest_block.c</text>
</a>
</g>
</g>
<!-- Node3&#45;&gt;Node6 -->
<g id="edge5_Node000003_Node000006" class="edge">
<title>Node3&#45;&gt;Node6</title>
<g id="a_edge5_Node000003_Node000006"><a xlink:title=" ">
<path fill="none" stroke="#63b8ff" d="M1931.19,-60.02C1920.52,-58.73 1909.11,-57.52 1898.5,-56.75 1189.97,-5.2 1006.63,-98.53 300.5,-20.75 297.69,-20.44 294.79,-20.05 291.89,-19.6"/>
<polygon fill="#63b8ff" stroke="#63b8ff" points="1930.54,-63.47 1940.9,-61.25 1931.42,-56.52 1930.54,-63.47"/>
</a>
</g>
</g>
<!-- Node7 -->
<g id="Node000007" class="node">
<title>Node7</title>
<g id="a_Node000007"><a xlink:href="kest__bump__arena_8c.html" target="_top" xlink:title=" ">
<polygon fill="white" stroke="#666666" points="419.75,-20.75 309.25,-20.75 309.25,0 419.75,0 419.75,-20.75"/>
<text xml:space="preserve" text-anchor="middle" x="364.5" y="-7.25" font-family="Helvetica,sans-Serif" font-size="10.00">kest_bump_arena.c</text>
</a>
</g>
</g>
<!-- Node3&#45;&gt;Node7 -->
<g id="edge6_Node000003_Node000007" class="edge">
<title>Node3&#45;&gt;Node7</title>
<g id="a_edge6_Node000003_Node000007"><a xlink:title=" ">
<path fill="none" stroke="#63b8ff" d="M1931.19,-60.04C1920.52,-58.74 1909.11,-57.53 1898.5,-56.75 1246.74,-8.69 1079.67,-76.21 428.5,-20.75 425.7,-20.51 422.84,-20.23 419.96,-19.92"/>
<polygon fill="#63b8ff" stroke="#63b8ff" points="1930.53,-63.48 1940.9,-61.27 1931.41,-56.54 1930.53,-63.48"/>
</a>
</g>
</g>
<!-- Node8 -->
<g id="Node000008" class="node">
<title>Node8</title>
<g id="a_Node000008"><a xlink:href="kest__button_8c.html" target="_top" xlink:title=" ">
<polygon fill="white" stroke="#666666" points="519.12,-20.75 437.88,-20.75 437.88,0 519.12,0 519.12,-20.75"/>
<text xml:space="preserve" text-anchor="middle" x="478.5" y="-7.25" font-family="Helvetica,sans-Serif" font-size="10.00">kest_button.c</text>
</a>
</g>
</g>
<!-- Node3&#45;&gt;Node8 -->
<g id="edge7_Node000003_Node000008" class="edge">
<title>Node3&#45;&gt;Node8</title>
<g id="a_edge7_Node000003_Node000008"><a xlink:title=" ">
<path fill="none" stroke="#63b8ff" d="M1931.18,-60.05C1920.52,-58.76 1909.11,-57.54 1898.5,-56.75 1291.09,-11.41 1134.19,-85.08 528.5,-20.75 525.6,-20.44 522.62,-20.06 519.62,-19.62"/>
<polygon fill="#63b8ff" stroke="#63b8ff" points="1930.53,-63.49 1940.89,-61.28 1931.41,-56.55 1930.53,-63.49"/>
</a>
</g>
</g>
<!-- Node9 -->
<g id="Node000009" class="node">
<title>Node9</title>
<g id="a_Node000009"><a xlink:href="kest__context_8c.html" target="_top" xlink:title=" ">
<polygon fill="white" stroke="#666666" points="623.75,-20.75 537.25,-20.75 537.25,0 623.75,0 623.75,-20.75"/>
<text xml:space="preserve" text-anchor="middle" x="580.5" y="-7.25" font-family="Helvetica,sans-Serif" font-size="10.00">kest_context.c</text>
</a>
</g>
</g>
<!-- Node3&#45;&gt;Node9 -->
<g id="edge8_Node000003_Node000009" class="edge">
<title>Node3&#45;&gt;Node9</title>
<g id="a_edge8_Node000003_Node000009"><a xlink:title=" ">
<path fill="none" stroke="#63b8ff" d="M1931.18,-60.07C1920.52,-58.77 1909.11,-57.55 1898.5,-56.75 1337.21,-14.25 1192.39,-78.85 632.5,-20.75 629.76,-20.47 626.95,-20.12 624.13,-19.73"/>
<polygon fill="#63b8ff" stroke="#63b8ff" points="1930.53,-63.51 1940.89,-61.29 1931.41,-56.57 1930.53,-63.51"/>
</a>
</g>
</g>
<!-- Node10 -->
<g id="Node000010" class="node">
<title>Node10</title>
<g id="a_Node000010"><a xlink:href="kest__dependent_8c.html" target="_top" xlink:title=" ">
<polygon fill="white" stroke="#666666" points="743.25,-20.75 641.75,-20.75 641.75,0 743.25,0 743.25,-20.75"/>
<text xml:space="preserve" text-anchor="middle" x="692.5" y="-7.25" font-family="Helvetica,sans-Serif" font-size="10.00">kest_dependent.c</text>
</a>
</g>
</g>
<!-- Node3&#45;&gt;Node10 -->
<g id="edge9_Node000003_Node000010" class="edge">
<title>Node3&#45;&gt;Node10</title>
<g id="a_edge9_Node000003_Node000010"><a xlink:title=" ">
<path fill="none" stroke="#63b8ff" d="M1931.18,-60.09C1920.52,-58.79 1909.11,-57.57 1898.5,-56.75 1390.43,-17.52 1259.87,-68.17 752.5,-20.75 749.56,-20.48 746.55,-20.15 743.51,-19.78"/>
<polygon fill="#63b8ff" stroke="#63b8ff" points="1930.53,-63.53 1940.89,-61.32 1931.41,-56.59 1930.53,-63.53"/>
</a>
</g>
</g>
<!-- Node11 -->
<g id="Node000011" class="node">
<title>Node11</title>
<g id="a_Node000011"><a xlink:href="kest__desktop_8c.html" target="_top" xlink:title=" ">
<polygon fill="white" stroke="#666666" points="849.88,-20.75 761.12,-20.75 761.12,0 849.88,0 849.88,-20.75"/>
<text xml:space="preserve" text-anchor="middle" x="805.5" y="-7.25" font-family="Helvetica,sans-Serif" font-size="10.00">kest_desktop.c</text>
</a>
</g>
</g>
<!-- Node3&#45;&gt;Node11 -->
<g id="edge10_Node000003_Node000011" class="edge">
<title>Node3&#45;&gt;Node11</title>
<g id="a_edge10_Node000003_Node000011"><a xlink:title=" ">
<path fill="none" stroke="#63b8ff" d="M1931.18,-60.11C1920.51,-58.82 1909.11,-57.59 1898.5,-56.75 1437.43,-20.4 1318.46,-69.15 858.5,-20.75 855.81,-20.47 853.04,-20.13 850.26,-19.75"/>
<polygon fill="#63b8ff" stroke="#63b8ff" points="1930.53,-63.56 1940.89,-61.34 1931.41,-56.61 1930.53,-63.56"/>
</a>
</g>
</g>
<!-- Node12 -->
<g id="Node000012" class="node">
<title>Node12</title>
<g id="a_Node000012"><a xlink:href="kest__dict__extract_8c.html" target="_top" xlink:title=" ">
<polygon fill="white" stroke="#666666" points="975.25,-20.75 867.75,-20.75 867.75,0 975.25,0 975.25,-20.75"/>
<text xml:space="preserve" text-anchor="middle" x="921.5" y="-7.25" font-family="Helvetica,sans-Serif" font-size="10.00">kest_dict_extract.c</text>
</a>
</g>
</g>
<!-- Node3&#45;&gt;Node12 -->
<g id="edge11_Node000003_Node000012" class="edge">
<title>Node3&#45;&gt;Node12</title>
<g id="a_edge11_Node000003_Node000012"><a xlink:title=" ">
<path fill="none" stroke="#63b8ff" d="M1931.18,-60.15C1920.51,-58.85 1909.11,-57.61 1898.5,-56.75 1492.85,-23.81 1388.66,-59.23 983.5,-20.75 980.9,-20.5 978.24,-20.22 975.56,-19.91"/>
<polygon fill="#63b8ff" stroke="#63b8ff" points="1930.53,-63.59 1940.89,-61.37 1931.4,-56.65 1930.53,-63.59"/>
</a>
</g>
</g>
<!-- Node13 -->
<g id="Node000013" class="node">
<title>Node13</title>
<g id="a_Node000013"><a xlink:href="kest__dictionary_8c.html" target="_top" xlink:title=" ">
<polygon fill="white" stroke="#666666" points="1090,-20.75 993,-20.75 993,0 1090,0 1090,-20.75"/>
<text xml:space="preserve" text-anchor="middle" x="1041.5" y="-7.25" font-family="Helvetica,sans-Serif" font-size="10.00">kest_dictionary.c</text>
</a>
</g>
</g>
<!-- Node3&#45;&gt;Node13 -->
<g id="edge12_Node000003_Node000013" class="edge">
<title>Node3&#45;&gt;Node13</title>
<g id="a_edge12_Node000003_Node000013"><a xlink:title=" ">
<path fill="none" stroke="#63b8ff" d="M1931.17,-60.19C1920.51,-58.89 1909.1,-57.64 1898.5,-56.75 1544.28,-26.97 1453.1,-57.17 1099.5,-20.75 1096.56,-20.45 1093.54,-20.09 1090.5,-19.7"/>
<polygon fill="#63b8ff" stroke="#63b8ff" points="1930.52,-63.64 1940.88,-61.41 1931.4,-56.69 1930.52,-63.64"/>
</a>
</g>
</g>
<!-- Node14 -->
<g id="Node000014" class="node">
<title>Node14</title>
<g id="a_Node000014"><a xlink:href="kest__driver_8c.html" target="_top" xlink:title=" ">
<polygon fill="white" stroke="#666666" points="1186.62,-20.75 1108.38,-20.75 1108.38,0 1186.62,0 1186.62,-20.75"/>
<text xml:space="preserve" text-anchor="middle" x="1147.5" y="-7.25" font-family="Helvetica,sans-Serif" font-size="10.00">kest_driver.c</text>
</a>
</g>
</g>
<!-- Node3&#45;&gt;Node14 -->
<g id="edge13_Node000003_Node000014" class="edge">
<title>Node3&#45;&gt;Node14</title>
<g id="a_edge13_Node000003_Node000014"><a xlink:title=" ">
<path fill="none" stroke="#63b8ff" d="M1931.17,-60.24C1920.5,-58.94 1909.1,-57.67 1898.5,-56.75 1586.83,-29.58 1506.03,-58.83 1195.5,-20.75 1192.72,-20.41 1189.86,-20 1186.98,-19.55"/>
<polygon fill="#63b8ff" stroke="#63b8ff" points="1930.52,-63.68 1940.88,-61.46 1931.39,-56.74 1930.52,-63.68"/>
</a>
</g>
</g>
<!-- Node15 -->
<g id="Node000015" class="node">
<title>Node15</title>
<g id="a_Node000015"><a xlink:href="kest__eff__desc_8c.html" target="_top" xlink:title=" ">
<polygon fill="white" stroke="#666666" points="1296,-20.75 1205,-20.75 1205,0 1296,0 1296,-20.75"/>
<text xml:space="preserve" text-anchor="middle" x="1250.5" y="-7.25" font-family="Helvetica,sans-Serif" font-size="10.00">kest_eff_desc.c</text>
</a>
</g>
</g>
<!-- Node3&#45;&gt;Node15 -->
<g id="edge14_Node000003_Node000015" class="edge">
<title>Node3&#45;&gt;Node15</title>
<g id="a_edge14_Node000003_Node000015"><a xlink:title=" ">
<path fill="none" stroke="#63b8ff" d="M1931.16,-60.31C1920.5,-59.01 1909.1,-57.72 1898.5,-56.75 1635.13,-32.55 1567.2,-51.42 1304.5,-20.75 1301.85,-20.44 1299.14,-20.09 1296.41,-19.7"/>
<polygon fill="#63b8ff" stroke="#63b8ff" points="1930.52,-63.75 1940.87,-61.52 1931.39,-56.81 1930.52,-63.75"/>
</a>
</g>
</g>
<!-- Node16 -->
<g id="Node000016" class="node">
<title>Node16</title>
<g id="a_Node000016"><a xlink:href="kest__eff__parser_8c.html" target="_top" xlink:title=" ">
<polygon fill="white" stroke="#666666" points="1413.12,-20.75 1313.88,-20.75 1313.88,0 1413.12,0 1413.12,-20.75"/>
<text xml:space="preserve" text-anchor="middle" x="1363.5" y="-7.25" font-family="Helvetica,sans-Serif" font-size="10.00">kest_eff_parser.c</text>
</a>
</g>
</g>
<!-- Node3&#45;&gt;Node16 -->
<g id="edge15_Node000003_Node000016" class="edge">
<title>Node3&#45;&gt;Node16</title>
<g id="a_edge15_Node000003_Node000016"><a xlink:title=" ">
<path fill="none" stroke="#63b8ff" d="M1931.45,-60.45C1920.7,-59.14 1909.19,-57.81 1898.5,-56.75 1687.38,-35.76 1633.22,-45.42 1422.5,-20.75 1419.51,-20.4 1416.44,-20.01 1413.35,-19.59"/>
<polygon fill="#63b8ff" stroke="#63b8ff" points="1930.88,-63.91 1941.23,-61.68 1931.75,-56.97 1930.88,-63.91"/>
</a>
</g>
</g>
<!-- Node17 -->
<g id="Node000017" class="node">
<title>Node17</title>
<g id="a_Node000017"><a xlink:href="kest__eff__section_8c.html" target="_top" xlink:title=" ">
<polygon fill="white" stroke="#666666" points="1535.38,-20.75 1431.62,-20.75 1431.62,0 1535.38,0 1535.38,-20.75"/>
<text xml:space="preserve" text-anchor="middle" x="1483.5" y="-7.25" font-family="Helvetica,sans-Serif" font-size="10.00">kest_eff_section.c</text>
</a>
</g>
</g>
<!-- Node3&#45;&gt;Node17 -->
<g id="edge16_Node000003_Node000017" class="edge">
<title>Node3&#45;&gt;Node17</title>
<g id="a_edge16_Node000003_Node000017"><a xlink:title=" ">
<path fill="none" stroke="#63b8ff" d="M1931.43,-60.65C1920.68,-59.33 1909.17,-57.95 1898.5,-56.75 1741.35,-39.07 1701.37,-40.77 1544.5,-20.75 1541.63,-20.38 1538.69,-19.99 1535.72,-19.58"/>
<polygon fill="#63b8ff" stroke="#63b8ff" points="1930.86,-64.11 1941.22,-61.86 1931.72,-57.16 1930.86,-64.11"/>
</a>
</g>
</g>
<!-- Node18 -->
<g id="Node000018" class="node">
<title>Node18</title>
<g id="a_Node000018"><a xlink:href="kest__effect_8c.html" target="_top" xlink:title=" ">
<polygon fill="white" stroke="#666666" points="1631.62,-20.75 1553.38,-20.75 1553.38,0 1631.62,0 1631.62,-20.75"/>
<text xml:space="preserve" text-anchor="middle" x="1592.5" y="-7.25" font-family="Helvetica,sans-Serif" font-size="10.00">kest_effect.c</text>
</a>
</g>
</g>
<!-- Node3&#45;&gt;Node18 -->
<g id="edge17_Node000003_Node000018" class="edge">
<title>Node3&#45;&gt;Node18</title>
<g id="a_edge17_Node000003_Node000018"><a xlink:title=" ">
<path fill="none" stroke="#63b8ff" d="M1931.28,-60.53C1854.31,-50.52 1696.41,-29.74 1641.5,-20.75 1638.42,-20.25 1635.24,-19.7 1632.05,-19.13"/>
<polygon fill="#63b8ff" stroke="#63b8ff" points="1930.6,-63.97 1940.97,-61.79 1931.51,-57.03 1930.6,-63.97"/>
</a>
</g>
</g>
<!-- Node19 -->
<g id="Node000019" class="node">
<title>Node19</title>
<g id="a_Node000019"><a xlink:href="kest__effect__select_8c.html" target="_top" xlink:title=" ">
<polygon fill="white" stroke="#666666" points="1762.88,-20.75 1650.12,-20.75 1650.12,0 1762.88,0 1762.88,-20.75"/>
<text xml:space="preserve" text-anchor="middle" x="1706.5" y="-7.25" font-family="Helvetica,sans-Serif" font-size="10.00">kest_effect_select.c</text>
</a>
</g>
</g>
<!-- Node3&#45;&gt;Node19 -->
<g id="edge18_Node000003_Node000019" class="edge">
<title>Node3&#45;&gt;Node19</title>
<g id="a_edge18_Node000003_Node000019"><a xlink:title=" ">
<path fill="none" stroke="#63b8ff" d="M1931.41,-57.32C1883.02,-47.44 1804.7,-31.44 1754.42,-21.17"/>
<polygon fill="#63b8ff" stroke="#63b8ff" points="1930.46,-60.7 1940.96,-59.27 1931.86,-53.84 1930.46,-60.7"/>
</a>
</g>
</g>
<!-- Node20 -->
<g id="Node000020" class="node">
<title>Node20</title>
<g id="a_Node000020"><a xlink:href="kest__effect__settings_8c.html" target="_top" xlink:title=" ">
<polygon fill="white" stroke="#666666" points="1903.75,-20.75 1781.25,-20.75 1781.25,0 1903.75,0 1903.75,-20.75"/>
<text xml:space="preserve" text-anchor="middle" x="1842.5" y="-7.25" font-family="Helvetica,sans-Serif" font-size="10.00">kest_effect_settings.c</text>
</a>
</g>
</g>
<!-- Node3&#45;&gt;Node20 -->
<g id="edge19_Node000003_Node000020" class="edge">
<title>Node3&#45;&gt;Node20</title>
<g id="a_edge19_Node000003_Node000020"><a xlink:title=" ">
<path fill="none" stroke="#63b8ff" d="M1940.38,-51.97C1916.99,-42.27 1886.57,-29.66 1865.89,-21.08"/>
<polygon fill="#63b8ff" stroke="#63b8ff" points="1938.93,-55.16 1949.5,-55.76 1941.61,-48.69 1938.93,-55.16"/>
</a>
</g>
</g>
<!-- Node21 -->
<g id="Node000021" class="node">
<title>Node21</title>
<g id="a_Node000021"><a xlink:href="kest__effect__view_8c.html" target="_top" xlink:title=" ">
<polygon fill="white" stroke="#666666" points="2027.5,-20.75 1921.5,-20.75 1921.5,0 2027.5,0 2027.5,-20.75"/>
<text xml:space="preserve" text-anchor="middle" x="1974.5" y="-7.25" font-family="Helvetica,sans-Serif" font-size="10.00">kest_effect_view.c</text>
</a>
</g>
</g>
<!-- Node3&#45;&gt;Node21 -->
<g id="edge20_Node000003_Node000021" class="edge">
<title>Node3&#45;&gt;Node21</title>
<g id="a_edge20_Node000003_Node000021"><a xlink:title=" ">
<path fill="none" stroke="#63b8ff" d="M1974.5,-44.88C1974.5,-36.66 1974.5,-27.68 1974.5,-21.08"/>
<polygon fill="#63b8ff" stroke="#63b8ff" points="1971,-44.82 1974.5,-54.82 1978,-44.82 1971,-44.82"/>
</a>
</g>
</g>
<!-- Node22 -->
<g id="Node000022" class="node">
<title>Node22</title>
<g id="a_Node000022"><a xlink:href="kest__event_8c.html" target="_top" xlink:title=" ">
<polygon fill="white" stroke="#666666" points="2123.25,-20.75 2045.75,-20.75 2045.75,0 2123.25,0 2123.25,-20.75"/>
<text xml:space="preserve" text-anchor="middle" x="2084.5" y="-7.25" font-family="Helvetica,sans-Serif" font-size="10.00">kest_event.c</text>
</a>
</g>
</g>
<!-- Node3&#45;&gt;Node22 -->
<g id="edge21_Node000003_Node000022" class="edge">
<title>Node3&#45;&gt;Node22</title>
<g id="a_edge21_Node000003_Node000022"><a xlink:title=" ">
<path fill="none" stroke="#63b8ff" d="M2004.26,-51.31C2023.56,-41.7 2048.16,-29.46 2065,-21.08"/>
<polygon fill="#63b8ff" stroke="#63b8ff" points="2002.91,-48.07 1995.52,-55.66 2006.03,-54.34 2002.91,-48.07"/>
</a>
</g>
</g>
<!-- Node23 -->
<g id="Node000023" class="node">
<title>Node23</title>
<g id="a_Node000023"><a xlink:href="kest__expr__parser_8c.html" target="_top" xlink:title=" ">
<polygon fill="white" stroke="#666666" points="2249.25,-20.75 2141.75,-20.75 2141.75,0 2249.25,0 2249.25,-20.75"/>
<text xml:space="preserve" text-anchor="middle" x="2195.5" y="-7.25" font-family="Helvetica,sans-Serif" font-size="10.00">kest_expr_parser.c</text>
</a>
</g>
</g>
<!-- Node3&#45;&gt;Node23 -->
<g id="edge22_Node000003_Node000023" class="edge">
<title>Node3&#45;&gt;Node23</title>
<g id="a_edge22_Node000003_Node000023"><a xlink:title=" ">
<path fill="none" stroke="#63b8ff" d="M2017.16,-55.56C2057.19,-45.64 2116.59,-30.93 2155.67,-21.24"/>
<polygon fill="#63b8ff" stroke="#63b8ff" points="2016.5,-52.11 2007.63,-57.92 2018.18,-58.91 2016.5,-52.11"/>
</a>
</g>
</g>
<!-- Node24 -->
<g id="Node000024" class="node">
<title>Node24</title>
<g id="a_Node000024"><a xlink:href="kest__expr__scope_8c.html" target="_top" xlink:title=" ">
<polygon fill="white" stroke="#666666" points="2372.12,-20.75 2266.88,-20.75 2266.88,0 2372.12,0 2372.12,-20.75"/>
<text xml:space="preserve" text-anchor="middle" x="2319.5" y="-7.25" font-family="Helvetica,sans-Serif" font-size="10.00">kest_expr_scope.c</text>
</a>
</g>
</g>
<!-- Node3&#45;&gt;Node24 -->
<g id="edge23_Node000003_Node000024" class="edge">
<title>Node3&#45;&gt;Node24</title>
<g id="a_edge23_Node000003_Node000024"><a xlink:title=" ">
<path fill="none" stroke="#63b8ff" d="M2017.46,-59.31C2080.56,-49.29 2198.18,-30.63 2266.54,-19.78"/>
<polygon fill="#63b8ff" stroke="#63b8ff" points="2017.16,-55.81 2007.83,-60.84 2018.26,-62.72 2017.16,-55.81"/>
</a>
</g>
</g>
<!-- Node25 -->
<g id="Node000025" class="node">
<title>Node25</title>
<g id="a_Node000025"><a xlink:href="kest__expression_8c.html" target="_top" xlink:title=" ">
<polygon fill="white" stroke="#666666" points="2493,-20.75 2390,-20.75 2390,0 2493,0 2493,-20.75"/>
<text xml:space="preserve" text-anchor="middle" x="2441.5" y="-7.25" font-family="Helvetica,sans-Serif" font-size="10.00">kest_expression.c</text>
</a>
</g>
</g>
<!-- Node3&#45;&gt;Node25 -->
<g id="edge24_Node000003_Node000025" class="edge">
<title>Node3&#45;&gt;Node25</title>
<g id="a_edge24_Node000003_Node000025"><a xlink:title=" ">
<path fill="none" stroke="#63b8ff" d="M2017.7,-61.94C2092.11,-54.59 2249.22,-38.45 2381.5,-20.75 2384.22,-20.39 2387,-20 2389.81,-19.6"/>
<polygon fill="#63b8ff" stroke="#63b8ff" points="2017.6,-58.43 2007.99,-62.89 2018.28,-65.4 2017.6,-58.43"/>
</a>
</g>
</g>
<!-- Node26 -->
<g id="Node000026" class="node">
<title>Node26</title>
<g id="a_Node000026"><a xlink:href="kest__file__task_8c.html" target="_top" xlink:title=" ">
<polygon fill="white" stroke="#666666" points="2602.38,-20.75 2510.62,-20.75 2510.62,0 2602.38,0 2602.38,-20.75"/>
<text xml:space="preserve" text-anchor="middle" x="2556.5" y="-7.25" font-family="Helvetica,sans-Serif" font-size="10.00">kest_file_task.c</text>
</a>
</g>
</g>
<!-- Node3&#45;&gt;Node26 -->
<g id="edge25_Node000003_Node000026" class="edge">
<title>Node3&#45;&gt;Node26</title>
<g id="a_edge25_Node000003_Node000026"><a xlink:title=" ">
<path fill="none" stroke="#63b8ff" d="M2017.85,-63.67C2108.22,-58.27 2323.27,-43.97 2502.5,-20.75 2505.05,-20.42 2507.66,-20.06 2510.29,-19.67"/>
<polygon fill="#63b8ff" stroke="#63b8ff" points="2017.73,-60.17 2007.96,-64.25 2018.14,-67.16 2017.73,-60.17"/>
</a>
</g>
</g>
<!-- Node27 -->
<g id="Node000027" class="node">
<title>Node27</title>
<g id="a_Node000027"><a xlink:href="kest__files_8c.html" target="_top" xlink:title=" ">
<polygon fill="white" stroke="#666666" points="2690.88,-20.75 2620.12,-20.75 2620.12,0 2690.88,0 2690.88,-20.75"/>
<text xml:space="preserve" text-anchor="middle" x="2655.5" y="-7.25" font-family="Helvetica,sans-Serif" font-size="10.00">kest_files.c</text>
</a>
</g>
</g>
<!-- Node3&#45;&gt;Node27 -->
<g id="edge26_Node000003_Node000027" class="edge">
<title>Node3&#45;&gt;Node27</title>
<g id="a_edge26_Node000003_Node000027"><a xlink:title=" ">
<path fill="none" stroke="#63b8ff" d="M2017.97,-65.11C2121.33,-62.23 2389.75,-52.12 2611.5,-20.75 2614.28,-20.36 2617.16,-19.89 2620.03,-19.37"/>
<polygon fill="#63b8ff" stroke="#63b8ff" points="2017.9,-61.61 2007.99,-65.37 2018.08,-68.61 2017.9,-61.61"/>
</a>
</g>
</g>
<!-- Node28 -->
<g id="Node000028" class="node">
<title>Node28</title>
<g id="a_Node000028"><a xlink:href="kest__fixed__point_8c.html" target="_top" xlink:title=" ">
<polygon fill="white" stroke="#666666" points="2813.75,-20.75 2709.25,-20.75 2709.25,0 2813.75,0 2813.75,-20.75"/>
<text xml:space="preserve" text-anchor="middle" x="2761.5" y="-7.25" font-family="Helvetica,sans-Serif" font-size="10.00">kest_fixed_point.c</text>
</a>
</g>
</g>
<!-- Node3&#45;&gt;Node28 -->
<g id="edge27_Node000003_Node000028" class="edge">
<title>Node3&#45;&gt;Node28</title>
<g id="a_edge27_Node000003_Node000028"><a xlink:title=" ">
<path fill="none" stroke="#63b8ff" d="M2017.56,-64.75C2129.99,-60.86 2441.52,-48.27 2699.5,-20.75 2702.53,-20.43 2705.64,-20.06 2708.78,-19.67"/>
<polygon fill="#63b8ff" stroke="#63b8ff" points="2017.77,-61.24 2007.9,-65.08 2018.01,-68.23 2017.77,-61.24"/>
</a>
</g>
</g>
<!-- Node29 -->
<g id="Node000029" class="node">
<title>Node29</title>
<g id="a_Node000029"><a xlink:href="kest__footswitch_8c.html" target="_top" xlink:title=" ">
<polygon fill="white" stroke="#666666" points="2932.88,-20.75 2832.12,-20.75 2832.12,0 2932.88,0 2932.88,-20.75"/>
<text xml:space="preserve" text-anchor="middle" x="2882.5" y="-7.25" font-family="Helvetica,sans-Serif" font-size="10.00">kest_footswitch.c</text>
</a>
</g>
</g>
<!-- Node3&#45;&gt;Node29 -->
<g id="edge28_Node000003_Node000029" class="edge">
<title>Node3&#45;&gt;Node29</title>
<g id="a_edge28_Node000003_Node000029"><a xlink:title=" ">
<path fill="none" stroke="#63b8ff" d="M2017.88,-65.36C2143.01,-62.81 2515.32,-52.88 2822.5,-20.75 2825.54,-20.43 2828.66,-20.07 2831.81,-19.67"/>
<polygon fill="#63b8ff" stroke="#63b8ff" points="2017.99,-61.85 2008.06,-65.55 2018.13,-68.85 2017.99,-61.85"/>
</a>
</g>
</g>
<!-- Node30 -->
<g id="Node000030" class="node">
<title>Node30</title>
<g id="a_Node000030"><a xlink:href="kest__fpga__cmd_8c.html" target="_top" xlink:title=" ">
<polygon fill="white" stroke="#666666" points="3048.38,-20.75 2950.62,-20.75 2950.62,0 3048.38,0 3048.38,-20.75"/>
<text xml:space="preserve" text-anchor="middle" x="2999.5" y="-7.25" font-family="Helvetica,sans-Serif" font-size="10.00">kest_fpga_cmd.c</text>
</a>
</g>
</g>
<!-- Node3&#45;&gt;Node30 -->
<g id="edge29_Node000003_Node000030" class="edge">
<title>Node3&#45;&gt;Node30</title>
<g id="a_edge29_Node000003_Node000030"><a xlink:title=" ">
<path fill="none" stroke="#63b8ff" d="M2017.43,-65.84C2153.28,-64.58 2585.77,-57.72 2941.5,-20.75 2944.34,-20.45 2947.25,-20.11 2950.19,-19.74"/>
<polygon fill="#63b8ff" stroke="#63b8ff" points="2017.8,-62.34 2007.83,-65.93 2017.86,-69.34 2017.8,-62.34"/>
</a>
</g>
</g>
<!-- Node31 -->
<g id="Node000031" class="node">
<title>Node31</title>
<g id="a_Node000031"><a xlink:href="kest__fpga__comms_8c.html" target="_top" xlink:title=" ">
<polygon fill="white" stroke="#666666" points="3178.88,-20.75 3066.12,-20.75 3066.12,0 3178.88,0 3178.88,-20.75"/>
<text xml:space="preserve" text-anchor="middle" x="3122.5" y="-7.25" font-family="Helvetica,sans-Serif" font-size="10.00">kest_fpga_comms.c</text>
</a>
</g>
</g>
<!-- Node3&#45;&gt;Node31 -->
<g id="edge30_Node000003_Node000031" class="edge">
<title>Node3&#45;&gt;Node31</title>
<g id="a_edge30_Node000003_Node000031"><a xlink:title=" ">
<path fill="none" stroke="#63b8ff" d="M2017.59,-65.89C2163.79,-64.74 2654.31,-58.18 3057.5,-20.75 3060.22,-20.5 3063.01,-20.21 3065.82,-19.9"/>
<polygon fill="#63b8ff" stroke="#63b8ff" points="2017.96,-62.38 2007.99,-65.96 2018.01,-69.38 2017.96,-62.38"/>
</a>
</g>
</g>
<!-- Node32 -->
<g id="Node000032" class="node">
<title>Node32</title>
<g id="a_Node000032"><a xlink:href="kest__fpga__dma_8c.html" target="_top" xlink:title=" ">
<polygon fill="white" stroke="#666666" points="3295.75,-20.75 3197.25,-20.75 3197.25,0 3295.75,0 3295.75,-20.75"/>
<text xml:space="preserve" text-anchor="middle" x="3246.5" y="-7.25" font-family="Helvetica,sans-Serif" font-size="10.00">kest_fpga_dma.c</text>
</a>
</g>
</g>
<!-- Node3&#45;&gt;Node32 -->
<g id="edge31_Node000003_Node000032" class="edge">
<title>Node3&#45;&gt;Node32</title>
<g id="a_edge31_Node000003_Node000032"><a xlink:title=" ">
<path fill="none" stroke="#63b8ff" d="M2017.95,-66.38C2175.53,-66.92 2731.66,-65.33 3187.5,-20.75 3190.6,-20.45 3193.78,-20.09 3196.98,-19.69"/>
<polygon fill="#63b8ff" stroke="#63b8ff" points="2017.98,-62.88 2007.97,-66.34 2017.96,-69.88 2017.98,-62.88"/>
</a>
</g>
</g>
<!-- Node33 -->
<g id="Node000033" class="node">
<title>Node33</title>
<g id="a_Node000033"><a xlink:href="kest__fpga__encoding_8c.html" target="_top" xlink:title=" ">
<polygon fill="white" stroke="#666666" points="3435,-20.75 3314,-20.75 3314,0 3435,0 3435,-20.75"/>
<text xml:space="preserve" text-anchor="middle" x="3374.5" y="-7.25" font-family="Helvetica,sans-Serif" font-size="10.00">kest_fpga_encoding.c</text>
</a>
</g>
</g>
<!-- Node3&#45;&gt;Node33 -->
<g id="edge32_Node000003_Node000033" class="edge">
<title>Node3&#45;&gt;Node33</title>
<g id="a_edge32_Node000003_Node000033"><a xlink:title=" ">
<path fill="none" stroke="#63b8ff" d="M2017.93,-66.2C2184.7,-66.18 2800,-63.03 3304.5,-20.75 3307.55,-20.49 3310.68,-20.2 3313.83,-19.87"/>
<polygon fill="#63b8ff" stroke="#63b8ff" points="2017.99,-62.7 2007.99,-66.2 2017.99,-69.7 2017.99,-62.7"/>
</a>
</g>
</g>
<!-- Node34 -->
<g id="Node000034" class="node">
<title>Node34</title>
<g id="a_Node000034"><a xlink:href="kest__fpga__instr_8c.html" target="_top" xlink:title=" ">
<polygon fill="white" stroke="#666666" points="3551.75,-20.75 3453.25,-20.75 3453.25,0 3551.75,0 3551.75,-20.75"/>
<text xml:space="preserve" text-anchor="middle" x="3502.5" y="-7.25" font-family="Helvetica,sans-Serif" font-size="10.00">kest_fpga_instr.c</text>
</a>
</g>
</g>
<!-- Node3&#45;&gt;Node34 -->
<g id="edge33_Node000003_Node000034" class="edge">
<title>Node3&#45;&gt;Node34</title>
<g id="a_edge33_Node000003_Node000034"><a xlink:title=" ">
<path fill="none" stroke="#63b8ff" d="M2017.53,-65.55C2228.7,-62.61 3156.85,-48.32 3444.5,-20.75 3447.24,-20.49 3450.05,-20.18 3452.88,-19.83"/>
<polygon fill="#63b8ff" stroke="#63b8ff" points="2017.79,-62.05 2007.84,-65.68 2017.89,-69.04 2017.79,-62.05"/>
</a>
</g>
</g>
<!-- Node35 -->
<g id="Node000035" class="node">
<title>Node35</title>
<g id="a_Node000035"><a xlink:href="kest__fpga__io_8c.html" target="_top" xlink:title=" ">
<polygon fill="white" stroke="#666666" points="3655.38,-20.75 3569.62,-20.75 3569.62,0 3655.38,0 3655.38,-20.75"/>
<text xml:space="preserve" text-anchor="middle" x="3612.5" y="-7.25" font-family="Helvetica,sans-Serif" font-size="10.00">kest_fpga_io.c</text>
</a>
</g>
</g>
<!-- Node3&#45;&gt;Node35 -->
<g id="edge34_Node000003_Node000035" class="edge">
<title>Node3&#45;&gt;Node35</title>
<g id="a_edge34_Node000003_Node000035"><a xlink:title=" ">
<path fill="none" stroke="#63b8ff" d="M2018.04,-65.76C2240.2,-63.77 3249.09,-53.09 3560.5,-20.75 3563.33,-20.46 3566.23,-20.1 3569.16,-19.69"/>
<polygon fill="#63b8ff" stroke="#63b8ff" points="2018.07,-62.26 2008.1,-65.85 2018.13,-69.26 2018.07,-62.26"/>
</a>
</g>
</g>
<!-- Node36 -->
<g id="Node000036" class="node">
<title>Node36</title>
<g id="a_Node000036"><a xlink:href="kest__fpga__position_8c.html" target="_top" xlink:title=" ">
<polygon fill="white" stroke="#666666" points="3789.38,-20.75 3673.62,-20.75 3673.62,0 3789.38,0 3789.38,-20.75"/>
<text xml:space="preserve" text-anchor="middle" x="3731.5" y="-7.25" font-family="Helvetica,sans-Serif" font-size="10.00">kest_fpga_position.c</text>
</a>
</g>
</g>
<!-- Node3&#45;&gt;Node36 -->
<g id="edge35_Node000003_Node000036" class="edge">
<title>Node3&#45;&gt;Node36</title>
<g id="a_edge35_Node000003_Node000036"><a xlink:title=" ">
<path fill="none" stroke="#63b8ff" d="M2017.54,-65.62C2247.2,-62.86 3330.46,-48.52 3664.5,-20.75 3667.43,-20.51 3670.42,-20.22 3673.44,-19.91"/>
<polygon fill="#63b8ff" stroke="#63b8ff" points="2017.81,-62.12 2007.85,-65.74 2017.89,-69.12 2017.81,-62.12"/>
</a>
</g>
</g>
<!-- Node37 -->
<g id="Node000037" class="node">
<title>Node37</title>
<g id="a_Node000037"><a xlink:href="kest__fpga__update_8c.html" target="_top" xlink:title=" ">
<polygon fill="white" stroke="#666666" points="3917.75,-20.75 3807.25,-20.75 3807.25,0 3917.75,0 3917.75,-20.75"/>
<text xml:space="preserve" text-anchor="middle" x="3862.5" y="-7.25" font-family="Helvetica,sans-Serif" font-size="10.00">kest_fpga_update.c</text>
</a>
</g>
</g>
<!-- Node3&#45;&gt;Node37 -->
<g id="edge36_Node000003_Node000037" class="edge">
<title>Node3&#45;&gt;Node37</title>
<g id="a_edge36_Node000003_Node000037"><a xlink:title=" ">
<path fill="none" stroke="#63b8ff" d="M2017.83,-65.76C2258.86,-63.61 3436.52,-51.65 3798.5,-20.75 3801.3,-20.51 3804.16,-20.23 3807.04,-19.92"/>
<polygon fill="#63b8ff" stroke="#63b8ff" points="2017.92,-62.26 2007.95,-65.84 2017.98,-69.26 2017.92,-62.26"/>
</a>
</g>
</g>
<!-- Node38 -->
<g id="Node000038" class="node">
<title>Node38</title>
<g id="a_Node000038"><a xlink:href="kest__global_8c.html" target="_top" xlink:title=" ">
<polygon fill="white" stroke="#666666" points="4015.38,-20.75 3935.62,-20.75 3935.62,0 4015.38,0 4015.38,-20.75"/>
<text xml:space="preserve" text-anchor="middle" x="3975.5" y="-7.25" font-family="Helvetica,sans-Serif" font-size="10.00">kest_global.c</text>
</a>
</g>
</g>
<!-- Node3&#45;&gt;Node38 -->
<g id="edge37_Node000003_Node000038" class="edge">
<title>Node3&#45;&gt;Node38</title>
<g id="a_edge37_Node000003_Node000038"><a xlink:title=" ">
<path fill="none" stroke="#63b8ff" d="M2017.69,-66.1C2268.34,-65.78 3538.29,-62.11 3926.5,-20.75 3929.34,-20.45 3932.27,-20.07 3935.2,-19.63"/>
<polygon fill="#63b8ff" stroke="#63b8ff" points="2018.04,-62.59 2008.05,-66.11 2018.05,-69.59 2018.04,-62.59"/>
</a>
</g>
</g>
<!-- Node67&#45;&gt;Node2 -->
<g id="edge40_Node000067_Node000002" class="edge">
<title>Node67&#45;&gt;Node2</title>
<g id="a_edge40_Node000067_Node000002"><a xlink:title=" ">
<path fill="none" stroke="#63b8ff" d="M1863.01,-103.07C1858.46,-94.48 1853.34,-84.81 1849.64,-77.83"/>
<polygon fill="#63b8ff" stroke="#63b8ff" points="1859.83,-104.55 1867.61,-111.75 1866.02,-101.27 1859.83,-104.55"/>
</a>
</g>
</g>
<!-- Node67&#45;&gt;Node3 -->
<g id="edge41_Node000067_Node000003" class="edge">
<title>Node67&#45;&gt;Node3</title>
<g id="a_edge41_Node000067_Node000003"><a xlink:title=" ">
<path fill="none" stroke="#63b8ff" d="M1901.32,-107.79C1918.97,-98.23 1941.28,-86.13 1956.6,-77.83"/>
<polygon fill="#63b8ff" stroke="#63b8ff" points="1900.01,-104.52 1892.89,-112.37 1903.35,-110.68 1900.01,-104.52"/>
</a>
</g>
</g>
</g>
</svg>
