<?xml version="1.0" encoding="UTF-8" standalone="no"?>
<!DOCTYPE svg PUBLIC "-//W3C//DTD SVG 1.1//EN"
 "http://www.w3.org/Graphics/SVG/1.1/DTD/svg11.dtd">
<!-- Generated by graphviz version 13.1.2 (20250808.2320)
 -->
<!-- Title: kest_realloc Pages: 1 -->
<!--zoomable 741 -->

<svg id="main" version="1.1" xmlns="http://www.w3.org/2000/svg" xmlns:xlink="http://www.w3.org/1999/xlink" xml:space="preserve" onload="init(evt)">

<style type="text/css"><![CDATA[
.node, .edge {opacity: 0.7;}
.node.selected, .edge.selected {opacity: 1;}
.edge:hover path { stroke: red; }
.edge:hover polygon { stroke: red; fill: red; }
]]></style>

<defs>
  <circle id="rim" cx="0" cy="0" r="7"/>
  <circle id="rim2" cx="0" cy="0" r="3.5"/>
  <g id="zoomPlus">
    <use xlink:href="#rim" fill="#404040"><set attributeName="fill" to="#808080" begin="zoomplus.mouseover" end="zoomplus.mouseout"/></use>
    <path d="M-4,0h8M0,-4v8" fill="none" stroke="white" stroke-width="1.5" pointer-events="none"/>
  </g>
  <g id="zoomMin">
    <use xlink:href="#rim" fill="#404040"><set attributeName="fill" to="#808080" begin="zoomminus.mouseover" end="zoomminus.mouseout"/></use>
    <path d="M-4,0h8" fill="none" stroke="white" stroke-width="1.5" pointer-events="none"/>
  </g>
  <g id="arrowUp" transform="translate(30 24)">
    <use xlink:href="#rim"/>
    <path pointer-events="none" fill="none" stroke="white" stroke-width="1.5" d="M0,-3.0v7 M-2.5,-0.5L0,-3.0L2.5,-0.5"/>
  </g>
  <g id="arrowRight" transform="rotate(90) translate(36 -43)">
    <use xlink:href="#rim"/>
    <path pointer-events="none" fill="none" stroke="white" stroke-width="1.5" d="M0,-3.0v7 M-2.5,-0.5L0,-3.0L2.5,-0.5"/>
  </g>
  <g id="arrowDown" transform="rotate(180) translate(-30 -48)">
    <use xlink:href="#rim"/>
    <path pointer-events="none" fill="none" stroke="white" stroke-width="1.5" d="M0,-3.0v7 M-2.5,-0.5L0,-3.0L2.5,-0.5"/>
  </g>
  <g id="arrowLeft" transform="rotate(270) translate(-36 17)">
    <use xlink:href="#rim"/>
    <path pointer-events="none" fill="none" stroke="white" stroke-width="1.5" d="M0,-3.0v7 M-2.5,-0.5L0,-3.0L2.5,-0.5"/>
  </g>
  <g id="resetDef">
    <use xlink:href="#rim2" fill="#404040"><set attributeName="fill" to="#808080" begin="reset.mouseover" end="reset.mouseout"/></use>
  </g>
</defs>
<script type="application/ecmascript">
var viewWidth = 1321;
var viewHeight = 741;
var sectionId = 'dynsection-10';
</script>
<script type="application/ecmascript" xlink:href="svg.min.js"/>
<svg id="graph" class="graph">
<g id="viewport">
<title>kest_realloc</title>
<!-- Node1 -->
<g id="Node000001" class="node">
<title>Node1</title>
<g id="a_Node000001"><a xlink:title=" ">
<polygon fill="#999999" stroke="#666666" points="1313,-434.12 1238.5,-434.12 1238.5,-413.38 1313,-413.38 1313,-434.12"/>
<text xml:space="preserve" text-anchor="middle" x="1275.75" y="-420.62" font-family="Helvetica,sans-Serif" font-size="10.00">kest_realloc</text>
</a>
</g>
</g>
<!-- Node2 -->
<g id="Node000002" class="node">
<title>Node2</title>
<g id="a_Node000002"><a xlink:href="kest__alloc_8c.html#aea68b9d53bda8bdbb23521bca9758a5e" target="_top" xlink:title=" ">
<polygon fill="white" stroke="#666666" points="1195.38,-502.12 1072.88,-502.12 1072.88,-481.38 1195.38,-481.38 1195.38,-502.12"/>
<text xml:space="preserve" text-anchor="middle" x="1134.12" y="-488.62" font-family="Helvetica,sans-Serif" font-size="10.00">kest_allocator_realloc</text>
</a>
</g>
</g>
<!-- Node1&#45;&gt;Node2 -->
<g id="edge1_Node000001_Node000002" class="edge">
<title>Node1&#45;&gt;Node2</title>
<g id="a_edge1_Node000001_Node000002"><a xlink:title=" ">
<path fill="none" stroke="#63b8ff" d="M1252.57,-441.55C1238.82,-451.86 1220.41,-464.42 1202.5,-472.75 1195.78,-475.88 1188.43,-478.59 1181.15,-480.91"/>
<polygon fill="#63b8ff" stroke="#63b8ff" points="1254.7,-444.33 1260.49,-435.45 1250.43,-438.78 1254.7,-444.33"/>
</a>
</g>
</g>
<!-- Node3 -->
<g id="Node000003" class="node">
<title>Node3</title>
<g id="a_Node000003"><a xlink:href="kest__fpga__io_8c.html#a6900c9b759f1dccf1b3535cc76ad83e3" target="_top" xlink:title=" ">
<polygon fill="white" stroke="#666666" points="831.12,-273.12 694.38,-273.12 694.38,-252.38 831.12,-252.38 831.12,-273.12"/>
<text xml:space="preserve" text-anchor="middle" x="762.75" y="-259.62" font-family="Helvetica,sans-Serif" font-size="10.00">kest_fpga_batch_append</text>
</a>
</g>
</g>
<!-- Node1&#45;&gt;Node3 -->
<g id="edge2_Node000001_Node000003" class="edge">
<title>Node1&#45;&gt;Node3</title>
<g id="a_edge2_Node000001_Node000003"><a xlink:title=" ">
<path fill="none" stroke="#63b8ff" d="M1226.81,-416.93C1184.06,-410.23 1120.02,-398.71 1065.75,-382.75 958.58,-351.24 836.53,-296.69 786.73,-273.59"/>
<polygon fill="#63b8ff" stroke="#63b8ff" points="1226.1,-420.36 1236.52,-418.42 1227.16,-413.44 1226.1,-420.36"/>
</a>
</g>
</g>
<!-- Node98 -->
<g id="Node000098" class="node">
<title>Node98</title>
<g id="a_Node000098"><a xlink:href="kest__fpga__io_8c.html#ac4570962996cb50a17f816b060c7df8e" target="_top" xlink:title=" ">
<polygon fill="white" stroke="#666666" points="1202.5,-463.5 1065.75,-463.5 1065.75,-430 1202.5,-430 1202.5,-463.5"/>
<text xml:space="preserve" text-anchor="start" x="1073.75" y="-450" font-family="Helvetica,sans-Serif" font-size="10.00">kest_fpga_batch_append</text>
<text xml:space="preserve" text-anchor="middle" x="1134.12" y="-437.25" font-family="Helvetica,sans-Serif" font-size="10.00">_bytes</text>
</a>
</g>
</g>
<!-- Node1&#45;&gt;Node98 -->
<g id="edge28_Node000001_Node000098" class="edge">
<title>Node1&#45;&gt;Node98</title>
<g id="a_edge28_Node000001_Node000098"><a xlink:title=" ">
<path fill="none" stroke="#63b8ff" d="M1226.74,-431.66C1219.04,-432.93 1210.95,-434.26 1202.9,-435.59"/>
<polygon fill="#63b8ff" stroke="#63b8ff" points="1227.27,-435.12 1236.57,-430.04 1226.14,-428.21 1227.27,-435.12"/>
</a>
</g>
</g>
<!-- Node105 -->
<g id="Node000105" class="node">
<title>Node105</title>
<g id="a_Node000105"><a xlink:href="kest__fpga__io_8c.html#a92cb302dce33b90b44ae9320a70ae519" target="_top" xlink:title=" ">
<polygon fill="white" stroke="#666666" points="1200.62,-374.12 1067.62,-374.12 1067.62,-353.38 1200.62,-353.38 1200.62,-374.12"/>
<text xml:space="preserve" text-anchor="middle" x="1134.12" y="-360.62" font-family="Helvetica,sans-Serif" font-size="10.00">kest_fpga_batch_concat</text>
</a>
</g>
</g>
<!-- Node1&#45;&gt;Node105 -->
<g id="edge53_Node000001_Node000105" class="edge">
<title>Node1&#45;&gt;Node105</title>
<g id="a_edge53_Node000001_Node000105"><a xlink:title=" ">
<path fill="none" stroke="#63b8ff" d="M1244.68,-407.75C1231.85,-401.2 1216.6,-393.75 1202.5,-387.75 1191.42,-383.03 1179.06,-378.45 1167.98,-374.57"/>
<polygon fill="#63b8ff" stroke="#63b8ff" points="1242.98,-410.82 1253.47,-412.31 1246.2,-404.6 1242.98,-410.82"/>
</a>
</g>
</g>
<!-- Node4 -->
<g id="Node000004" class="node">
<title>Node4</title>
<g id="a_Node000004"><a xlink:href="kest__effect_8c.html#a288d2643ff7af914502102475595ed8f" target="_top" xlink:title=" ">
<polygon fill="white" stroke="#666666" points="281.38,-206.5 173.12,-206.5 173.12,-173 281.38,-173 281.38,-206.5"/>
<text xml:space="preserve" text-anchor="start" x="181.12" y="-193" font-family="Helvetica,sans-Serif" font-size="10.00">kest_effect_handle</text>
<text xml:space="preserve" text-anchor="middle" x="227.25" y="-180.25" font-family="Helvetica,sans-Serif" font-size="10.00">_updates</text>
</a>
</g>
</g>
<!-- Node3&#45;&gt;Node4 -->
<g id="edge3_Node000003_Node000004" class="edge">
<title>Node3&#45;&gt;Node4</title>
<g id="a_edge3_Node000003_Node000004"><a xlink:title=" ">
<path fill="none" stroke="#63b8ff" d="M725.74,-247.71C704.06,-239.2 675.72,-229.05 649.75,-222.75 520.28,-191.35 362.52,-187.88 281.67,-188.53"/>
<polygon fill="#63b8ff" stroke="#63b8ff" points="724.43,-250.95 735.01,-251.41 727.02,-244.45 724.43,-250.95"/>
</a>
</g>
</g>
<!-- Node8 -->
<g id="Node000008" class="node">
<title>Node8</title>
<g id="a_Node000008"><a xlink:href="kest__effect_8c.html#ad5745ec5888a0568782154fb4f8adfee" target="_top" xlink:title=" ">
<polygon fill="white" stroke="#666666" points="281.38,-154.5 173.12,-154.5 173.12,-121 281.38,-121 281.38,-154.5"/>
<text xml:space="preserve" text-anchor="start" x="181.12" y="-141" font-family="Helvetica,sans-Serif" font-size="10.00">kest_effect_handle</text>
<text xml:space="preserve" text-anchor="middle" x="227.25" y="-128.25" font-family="Helvetica,sans-Serif" font-size="10.00">_updates_inc_ui</text>
</a>
</g>
</g>
<!-- Node3&#45;&gt;Node8 -->
<g id="edge6_Node000003_Node000008" class="edge">
<title>Node3&#45;&gt;Node8</title>
<g id="a_edge6_Node000003_Node000008"><a xlink:title=" ">
<path fill="none" stroke="#63b8ff" d="M728.85,-246.62C714.17,-238.14 697.57,-226.62 685.75,-212.75 660.46,-183.08 682.49,-153.92 649.75,-132.75 590.45,-94.4 380.99,-116.72 281.49,-130.02"/>
<polygon fill="#63b8ff" stroke="#63b8ff" points="726.84,-249.51 737.29,-251.26 730.21,-243.37 726.84,-249.51"/>
</a>
</g>
</g>
<!-- Node9 -->
<g id="Node000009" class="node">
<title>Node9</title>
<g id="a_Node000009"><a xlink:href="kest__effect_8c.html#acd72b0b8d69b207a12265887b06fc7f9" target="_top" xlink:title=" ">
<polygon fill="white" stroke="#666666" points="281.75,-283.5 172.75,-283.5 172.75,-250 281.75,-250 281.75,-283.5"/>
<text xml:space="preserve" text-anchor="start" x="180.75" y="-270" font-family="Helvetica,sans-Serif" font-size="10.00">kest_effect_update</text>
<text xml:space="preserve" text-anchor="middle" x="227.25" y="-257.25" font-family="Helvetica,sans-Serif" font-size="10.00">_sync_no_pw</text>
</a>
</g>
</g>
<!-- Node3&#45;&gt;Node9 -->
<g id="edge8_Node000003_Node000009" class="edge">
<title>Node3&#45;&gt;Node9</title>
<g id="a_edge8_Node000003_Node000009"><a xlink:title=" ">
<path fill="none" stroke="#63b8ff" d="M682.56,-263.34C572.55,-264.17 376.37,-265.64 281.95,-266.35"/>
<polygon fill="#63b8ff" stroke="#63b8ff" points="682.42,-266.84 692.4,-263.27 682.37,-259.85 682.42,-266.84"/>
</a>
</g>
</g>
<!-- Node10 -->
<g id="Node000010" class="node">
<title>Node10</title>
<g id="a_Node000010"><a xlink:href="kest__fpga__encoding_8c.html#a1e92fe0ff4b72e00fa5d840ec96508c7" target="_top" xlink:title=" ">
<polygon fill="white" stroke="#666666" points="638.88,-445.5 502.12,-445.5 502.12,-412 638.88,-412 638.88,-445.5"/>
<text xml:space="preserve" text-anchor="start" x="510.12" y="-432" font-family="Helvetica,sans-Serif" font-size="10.00">kest_fpga_batch_append</text>
<text xml:space="preserve" text-anchor="middle" x="570.5" y="-419.25" font-family="Helvetica,sans-Serif" font-size="10.00">_block_instr</text>
</a>
</g>
</g>
<!-- Node3&#45;&gt;Node10 -->
<g id="edge9_Node000003_Node000010" class="edge">
<title>Node3&#45;&gt;Node10</title>
<g id="a_edge9_Node000003_Node000010"><a xlink:title=" ">
<path fill="none" stroke="#63b8ff" d="M750.39,-283.57C732.74,-314.02 695.93,-370.58 649.75,-402.75 644.93,-406.1 639.65,-409.05 634.18,-411.64"/>
<polygon fill="#63b8ff" stroke="#63b8ff" points="753.39,-285.37 755.26,-274.94 747.29,-281.93 753.39,-285.37"/>
</a>
</g>
</g>
<!-- Node68 -->
<g id="Node000068" class="node">
<title>Node68</title>
<g id="a_Node000068"><a xlink:href="kest__fpga__encoding_8c.html#a671c5c9aca5f0e8197dbccbc0dd8291c" target="_top" xlink:title=" ">
<polygon fill="white" stroke="#666666" points="638.88,-341.5 502.12,-341.5 502.12,-308 638.88,-308 638.88,-341.5"/>
<text xml:space="preserve" text-anchor="start" x="510.12" y="-328" font-family="Helvetica,sans-Serif" font-size="10.00">kest_fpga_batch_append</text>
<text xml:space="preserve" text-anchor="middle" x="570.5" y="-315.25" font-family="Helvetica,sans-Serif" font-size="10.00">_block_register_updates</text>
</a>
</g>
</g>
<!-- Node3&#45;&gt;Node68 -->
<g id="edge11_Node000003_Node000068" class="edge">
<title>Node3&#45;&gt;Node68</title>
<g id="a_edge11_Node000003_Node000068"><a xlink:title=" ">
<path fill="none" stroke="#63b8ff" d="M716.56,-276.9C706.41,-280.11 695.71,-283.52 685.75,-286.75 665.07,-293.45 642.34,-300.98 622.63,-307.56"/>
<polygon fill="#63b8ff" stroke="#63b8ff" points="717.36,-280.31 725.84,-273.97 715.25,-273.64 717.36,-280.31"/>
</a>
</g>
</g>
<!-- Node84 -->
<g id="Node000084" class="node">
<title>Node84</title>
<g id="a_Node000084"><a xlink:href="kest__fpga__encoding_8c.html#a48ab2470c45981ea279dd588b37c36df" target="_top" xlink:title=" ">
<polygon fill="white" stroke="#666666" points="638.88,-497.5 502.12,-497.5 502.12,-464 638.88,-464 638.88,-497.5"/>
<text xml:space="preserve" text-anchor="start" x="510.12" y="-484" font-family="Helvetica,sans-Serif" font-size="10.00">kest_fpga_batch_append</text>
<text xml:space="preserve" text-anchor="middle" x="570.5" y="-471.25" font-family="Helvetica,sans-Serif" font-size="10.00">_block_regs</text>
</a>
</g>
</g>
<!-- Node3&#45;&gt;Node84 -->
<g id="edge17_Node000003_Node000084" class="edge">
<title>Node3&#45;&gt;Node84</title>
<g id="a_edge17_Node000003_Node000084"><a xlink:title=" ">
<path fill="none" stroke="#63b8ff" d="M750.07,-283.2C722.15,-332.04 653.56,-451.66 649.75,-454.75 645.64,-458.09 641.08,-461 636.29,-463.55"/>
<polygon fill="#63b8ff" stroke="#63b8ff" points="752.99,-285.15 754.91,-274.73 746.91,-281.67 752.99,-285.15"/>
</a>
</g>
</g>
<!-- Node85 -->
<g id="Node000085" class="node">
<title>Node85</title>
<g id="a_Node000085"><a xlink:href="kest__fpga__encoding_8c.html#a64f5333c5ff60101795695bce0de75d5" target="_top" xlink:title=" ">
<polygon fill="white" stroke="#666666" points="638.88,-393.5 502.12,-393.5 502.12,-360 638.88,-360 638.88,-393.5"/>
<text xml:space="preserve" text-anchor="start" x="510.12" y="-380" font-family="Helvetica,sans-Serif" font-size="10.00">kest_fpga_batch_append</text>
<text xml:space="preserve" text-anchor="middle" x="570.5" y="-367.25" font-family="Helvetica,sans-Serif" font-size="10.00">_filter_updates</text>
</a>
</g>
</g>
<!-- Node3&#45;&gt;Node85 -->
<g id="edge19_Node000003_Node000085" class="edge">
<title>Node3&#45;&gt;Node85</title>
<g id="a_edge19_Node000003_Node000085"><a xlink:title=" ">
<path fill="none" stroke="#63b8ff" d="M739.93,-280.56C710.18,-304.73 659.48,-345.52 649.75,-350.75 643.7,-354 637.16,-356.95 630.54,-359.59"/>
<polygon fill="#63b8ff" stroke="#63b8ff" points="742.05,-283.34 747.59,-274.32 737.63,-277.91 742.05,-283.34"/>
</a>
</g>
</g>
<!-- Node89 -->
<g id="Node000089" class="node">
<title>Node89</title>
<g id="a_Node000089"><a xlink:href="kest__fpga__encoding_8c.html#aa82f7b9cb7a332e38a8a810376eea489" target="_top" xlink:title=" ">
<polygon fill="white" stroke="#666666" points="638.88,-85.5 502.12,-85.5 502.12,-52 638.88,-52 638.88,-85.5"/>
<text xml:space="preserve" text-anchor="start" x="510.12" y="-72" font-family="Helvetica,sans-Serif" font-size="10.00">kest_fpga_batch_append</text>
<text xml:space="preserve" text-anchor="middle" x="570.5" y="-59.25" font-family="Helvetica,sans-Serif" font-size="10.00">_resource</text>
</a>
</g>
</g>
<!-- Node3&#45;&gt;Node89 -->
<g id="edge21_Node000003_Node000089" class="edge">
<title>Node3&#45;&gt;Node89</title>
<g id="a_edge21_Node000003_Node000089"><a xlink:title=" ">
<path fill="none" stroke="#63b8ff" d="M729.1,-246.39C714.05,-237.4 697.05,-224.96 685.75,-209.75 655.07,-168.46 685,-137.21 649.75,-99.75 644.54,-94.22 638.22,-89.65 631.46,-85.89"/>
<polygon fill="#63b8ff" stroke="#63b8ff" points="727.38,-249.43 737.8,-251.31 730.82,-243.34 727.38,-249.43"/>
</a>
</g>
</g>
<!-- Node92 -->
<g id="Node000092" class="node">
<title>Node92</title>
<g id="a_Node000092"><a xlink:href="kest__fpga__cmd_8c.html#a31d78d4d199f0ae142fc70e32d0f5f16" target="_top" xlink:title=" ">
<polygon fill="white" stroke="#666666" points="649.75,-559.5 491.25,-559.5 491.25,-526 649.75,-526 649.75,-559.5"/>
<text xml:space="preserve" text-anchor="start" x="499.25" y="-546" font-family="Helvetica,sans-Serif" font-size="10.00">kest_fpga_command_append</text>
<text xml:space="preserve" text-anchor="middle" x="570.5" y="-533.25" font-family="Helvetica,sans-Serif" font-size="10.00">_encoded</text>
</a>
</g>
</g>
<!-- Node3&#45;&gt;Node92 -->
<g id="edge24_Node000003_Node000092" class="edge">
<title>Node3&#45;&gt;Node92</title>
<g id="a_edge24_Node000003_Node000092"><a xlink:title=" ">
<path fill="none" stroke="#63b8ff" d="M748.4,-283.02C732.04,-308.52 704.2,-354.04 685.75,-395.75 664.77,-443.18 684.2,-467.99 649.75,-506.75 642.9,-514.46 634.05,-520.63 624.79,-525.53"/>
<polygon fill="#63b8ff" stroke="#63b8ff" points="751.33,-284.95 753.83,-274.66 745.45,-281.14 751.33,-284.95"/>
</a>
</g>
</g>
<!-- Node15 -->
<g id="Node000015" class="node">
<title>Node15</title>
<g id="a_Node000015"><a xlink:href="kest__pipeline_8c.html#a7bb8f92d379766cce5cdc4b68d11818f" target="_top" xlink:title=" ">
<polygon fill="#fff0f0" stroke="red" points="629.88,-175.5 511.12,-175.5 511.12,-142 629.88,-142 629.88,-175.5"/>
<text xml:space="preserve" text-anchor="start" x="519.12" y="-162" font-family="Helvetica,sans-Serif" font-size="10.00">kest_pipeline_create</text>
<text xml:space="preserve" text-anchor="middle" x="570.5" y="-149.25" font-family="Helvetica,sans-Serif" font-size="10.00">_fpga_transfer_batch</text>
</a>
</g>
</g>
<!-- Node3&#45;&gt;Node15 -->
<g id="edge26_Node000003_Node000015" class="edge">
<title>Node3&#45;&gt;Node15</title>
<g id="a_edge26_Node000003_Node000015"><a xlink:title=" ">
<path fill="none" stroke="#63b8ff" d="M738.22,-245.42C716.12,-229.62 681.75,-206.3 649.75,-189.75 640.15,-184.78 629.56,-180.1 619.35,-175.94"/>
<polygon fill="#63b8ff" stroke="#63b8ff" points="736.08,-248.19 746.24,-251.2 740.18,-242.51 736.08,-248.19"/>
</a>
</g>
</g>
<!-- Node73 -->
<g id="Node000073" class="node">
<title>Node73</title>
<g id="a_Node000073"><a xlink:href="kest__pipeline_8c.html#ab8999b49f257e50e63cc3294b8212daf" target="_top" xlink:title=" ">
<polygon fill="#fff0f0" stroke="red" points="643.75,-252.12 497.25,-252.12 497.25,-231.38 643.75,-231.38 643.75,-252.12"/>
<text xml:space="preserve" text-anchor="middle" x="570.5" y="-238.62" font-family="Helvetica,sans-Serif" font-size="10.00">kest_pipeline_update_fpga</text>
</a>
</g>
</g>
<!-- Node3&#45;&gt;Node73 -->
<g id="edge27_Node000003_Node000073" class="edge">
<title>Node3&#45;&gt;Node73</title>
<g id="a_edge27_Node000003_Node000073"><a xlink:title=" ">
<path fill="none" stroke="#63b8ff" d="M682.95,-254.05C670.07,-252.63 656.77,-251.16 644.05,-249.76"/>
<polygon fill="#63b8ff" stroke="#63b8ff" points="682.31,-257.5 692.63,-255.12 683.08,-250.54 682.31,-257.5"/>
</a>
</g>
</g>
<!-- Node5 -->
<g id="Node000005" class="node">
<title>Node5</title>
<g id="a_Node000005"><a xlink:href="kest__update_8c.html#a5e0d89e23eaabecddff58a4612bc5c71" target="_top" xlink:title=" ">
<polygon fill="#fff0f0" stroke="red" points="122.12,-158.5 14.62,-158.5 14.62,-125 122.12,-125 122.12,-158.5"/>
<text xml:space="preserve" text-anchor="start" x="22.62" y="-145" font-family="Helvetica,sans-Serif" font-size="10.00">kest_active_preset</text>
<text xml:space="preserve" text-anchor="middle" x="68.38" y="-132.25" font-family="Helvetica,sans-Serif" font-size="10.00">_updater_task</text>
</a>
</g>
</g>
<!-- Node4&#45;&gt;Node5 -->
<g id="edge4_Node000004_Node000005" class="edge">
<title>Node4&#45;&gt;Node5</title>
<g id="a_edge4_Node000004_Node000005"><a xlink:title=" ">
<path fill="none" stroke="#63b8ff" d="M161.85,-170.04C148.73,-166.03 135.08,-161.85 122.42,-157.98"/>
<polygon fill="#63b8ff" stroke="#63b8ff" points="160.67,-173.34 171.25,-172.92 162.72,-166.65 160.67,-173.34"/>
</a>
</g>
</g>
<!-- Node7 -->
<g id="Node000007" class="node">
<title>Node7</title>
<g id="a_Node000007"><a xlink:href="kest__effect_8c.html#a6388818d6f91e8be07c0bf562b4db182" target="_top" xlink:title=" ">
<polygon fill="white" stroke="#666666" points="136.75,-200.12 0,-200.12 0,-179.38 136.75,-179.38 136.75,-200.12"/>
<text xml:space="preserve" text-anchor="middle" x="68.38" y="-186.62" font-family="Helvetica,sans-Serif" font-size="10.00">kest_effect_update_sync</text>
</a>
</g>
</g>
<!-- Node4&#45;&gt;Node7 -->
<g id="edge5_Node000004_Node000007" class="edge">
<title>Node4&#45;&gt;Node7</title>
<g id="a_edge5_Node000004_Node000007"><a xlink:title=" ">
<path fill="none" stroke="#63b8ff" d="M161.21,-189.75C153.26,-189.75 145.11,-189.75 137.11,-189.75"/>
<polygon fill="#63b8ff" stroke="#63b8ff" points="161.19,-193.25 171.19,-189.75 161.19,-186.25 161.19,-193.25"/>
</a>
</g>
</g>
<!-- Node8&#45;&gt;Node5 -->
<g id="edge7_Node000008_Node000005" class="edge">
<title>Node8&#45;&gt;Node5</title>
<g id="a_edge7_Node000008_Node000005"><a xlink:title=" ">
<path fill="none" stroke="#63b8ff" d="M161.45,-139.4C148.46,-139.73 134.95,-140.08 122.42,-140.4"/>
<polygon fill="#63b8ff" stroke="#63b8ff" points="161.28,-142.91 171.19,-139.15 161.1,-135.91 161.28,-142.91"/>
</a>
</g>
</g>
<!-- Node11 -->
<g id="Node000011" class="node">
<title>Node11</title>
<g id="a_Node000011"><a xlink:href="kest__fpga__encoding_8c.html#a24f2c777ab7078a8261d0fcee4aaf738" target="_top" xlink:title=" ">
<polygon fill="#fff0f0" stroke="red" points="454.88,-477.5 318.12,-477.5 318.12,-444 454.88,-444 454.88,-477.5"/>
<text xml:space="preserve" text-anchor="start" x="326.12" y="-464" font-family="Helvetica,sans-Serif" font-size="10.00">kest_fpga_batch_append</text>
<text xml:space="preserve" text-anchor="middle" x="386.5" y="-451.25" font-family="Helvetica,sans-Serif" font-size="10.00">_block</text>
</a>
</g>
</g>
<!-- Node10&#45;&gt;Node11 -->
<g id="edge10_Node000010_Node000011" class="edge">
<title>Node10&#45;&gt;Node11</title>
<g id="a_edge10_Node000010_Node000011"><a xlink:title=" ">
<path fill="none" stroke="#63b8ff" d="M490.58,-442.63C478.83,-444.69 466.82,-446.8 455.33,-448.82"/>
<polygon fill="#63b8ff" stroke="#63b8ff" points="491,-446.11 500.24,-440.93 489.78,-439.21 491,-446.11"/>
</a>
</g>
</g>
<!-- Node69 -->
<g id="Node000069" class="node">
<title>Node69</title>
<g id="a_Node000069"><a xlink:href="kest__fpga__encoding_8c.html#a2f82b2c396c41026c378670b04592a6b" target="_top" xlink:title=" ">
<polygon fill="white" stroke="#666666" points="448.12,-353.88 324.88,-353.88 324.88,-307.62 448.12,-307.62 448.12,-353.88"/>
<text xml:space="preserve" text-anchor="start" x="332.88" y="-340.38" font-family="Helvetica,sans-Serif" font-size="10.00">kest_fpga_transfer</text>
<text xml:space="preserve" text-anchor="start" x="332.88" y="-327.62" font-family="Helvetica,sans-Serif" font-size="10.00">_batch_append_effect</text>
<text xml:space="preserve" text-anchor="middle" x="386.5" y="-314.88" font-family="Helvetica,sans-Serif" font-size="10.00">_register_updates</text>
</a>
</g>
</g>
<!-- Node68&#45;&gt;Node69 -->
<g id="edge12_Node000068_Node000069" class="edge">
<title>Node68&#45;&gt;Node69</title>
<g id="a_edge12_Node000068_Node000069"><a xlink:title=" ">
<path fill="none" stroke="#63b8ff" d="M490.53,-327.35C476.42,-327.82 461.93,-328.3 448.42,-328.74"/>
<polygon fill="#63b8ff" stroke="#63b8ff" points="490.34,-330.86 500.22,-327.03 490.11,-323.87 490.34,-330.86"/>
</a>
</g>
</g>
<!-- Node70 -->
<g id="Node000070" class="node">
<title>Node70</title>
<g id="a_Node000070"><a xlink:href="kest__fpga__encoding_8c.html#aa84abb65bd141dfd5df4c221f024a3db" target="_top" xlink:title=" ">
<polygon fill="#fff0f0" stroke="red" points="448.12,-251.88 324.88,-251.88 324.88,-205.62 448.12,-205.62 448.12,-251.88"/>
<text xml:space="preserve" text-anchor="start" x="332.88" y="-238.38" font-family="Helvetica,sans-Serif" font-size="10.00">kest_fpga_transfer</text>
<text xml:space="preserve" text-anchor="start" x="332.88" y="-225.62" font-family="Helvetica,sans-Serif" font-size="10.00">_batch_append_effect</text>
<text xml:space="preserve" text-anchor="middle" x="386.5" y="-212.88" font-family="Helvetica,sans-Serif" font-size="10.00">_register_updates_</text>
</a>
</g>
</g>
<!-- Node68&#45;&gt;Node70 -->
<g id="edge13_Node000068_Node000070" class="edge">
<title>Node68&#45;&gt;Node70</title>
<g id="a_edge13_Node000068_Node000070"><a xlink:title=" ">
<path fill="none" stroke="#63b8ff" d="M526.9,-302.28C498.4,-287.24 460.96,-267.5 432.06,-252.26"/>
<polygon fill="#63b8ff" stroke="#63b8ff" points="525.15,-305.31 535.62,-306.88 528.41,-299.12 525.15,-305.31"/>
</a>
</g>
</g>
<!-- Node70&#45;&gt;Node4 -->
<g id="edge14_Node000070_Node000004" class="edge">
<title>Node70&#45;&gt;Node4</title>
<g id="a_edge14_Node000070_Node000004"><a xlink:title=" ">
<path fill="none" stroke="#63b8ff" d="M313.61,-210.92C302.88,-208.26 291.97,-205.55 281.71,-203.01"/>
<polygon fill="#63b8ff" stroke="#63b8ff" points="312.69,-214.3 323.23,-213.31 314.37,-207.5 312.69,-214.3"/>
</a>
</g>
</g>
<!-- Node70&#45;&gt;Node8 -->
<g id="edge15_Node000070_Node000008" class="edge">
<title>Node70&#45;&gt;Node8</title>
<g id="a_edge15_Node000070_Node000008"><a xlink:title=" ">
<path fill="none" stroke="#63b8ff" d="M340.41,-199.03C322.42,-187.56 301.36,-174.62 281.75,-163.75 276.42,-160.8 270.71,-157.82 265.07,-155"/>
<polygon fill="#63b8ff" stroke="#63b8ff" points="338.48,-201.95 348.78,-204.41 342.26,-196.06 338.48,-201.95"/>
</a>
</g>
</g>
<!-- Node70&#45;&gt;Node9 -->
<g id="edge16_Node000070_Node000009" class="edge">
<title>Node70&#45;&gt;Node9</title>
<g id="a_edge16_Node000070_Node000009"><a xlink:title=" ">
<path fill="none" stroke="#63b8ff" d="M313.75,-246.09C303.15,-248.65 292.38,-251.25 282.22,-253.71"/>
<polygon fill="#63b8ff" stroke="#63b8ff" points="314.33,-249.55 323.23,-243.8 312.69,-242.74 314.33,-249.55"/>
</a>
</g>
</g>
<!-- Node84&#45;&gt;Node11 -->
<g id="edge18_Node000084_Node000011" class="edge">
<title>Node84&#45;&gt;Node11</title>
<g id="a_edge18_Node000084_Node000011"><a xlink:title=" ">
<path fill="none" stroke="#63b8ff" d="M490.58,-472.08C478.83,-470.79 466.82,-469.47 455.33,-468.2"/>
<polygon fill="#63b8ff" stroke="#63b8ff" points="489.9,-475.52 500.23,-473.14 490.67,-468.57 489.9,-475.52"/>
</a>
</g>
</g>
<!-- Node86 -->
<g id="Node000086" class="node">
<title>Node86</title>
<g id="a_Node000086"><a xlink:href="kest__fpga__encoding_8c.html#ac394803c8e9221fd364038f343070fcb" target="_top" xlink:title=" ">
<polygon fill="#fff0f0" stroke="red" points="454.88,-405.5 318.12,-405.5 318.12,-372 454.88,-372 454.88,-405.5"/>
<text xml:space="preserve" text-anchor="start" x="326.12" y="-392" font-family="Helvetica,sans-Serif" font-size="10.00">kest_fpga_batch_append</text>
<text xml:space="preserve" text-anchor="middle" x="386.5" y="-379.25" font-family="Helvetica,sans-Serif" font-size="10.00">_resource_updates</text>
</a>
</g>
</g>
<!-- Node85&#45;&gt;Node86 -->
<g id="edge20_Node000085_Node000086" class="edge">
<title>Node85&#45;&gt;Node86</title>
<g id="a_edge20_Node000085_Node000086"><a xlink:title=" ">
<path fill="none" stroke="#63b8ff" d="M490.58,-381.95C478.83,-382.73 466.82,-383.52 455.33,-384.28"/>
<polygon fill="#63b8ff" stroke="#63b8ff" points="490.47,-385.47 500.22,-381.32 490.01,-378.48 490.47,-385.47"/>
</a>
</g>
</g>
<!-- Node90 -->
<g id="Node000090" class="node">
<title>Node90</title>
<g id="a_Node000090"><a xlink:href="kest__fpga__encoding_8c.html#ab08e3e7d0ceafbe256baf1541da45159" target="_top" xlink:title=" ">
<polygon fill="#fff0f0" stroke="red" points="454.88,-33.5 318.12,-33.5 318.12,0 454.88,0 454.88,-33.5"/>
<text xml:space="preserve" text-anchor="start" x="326.12" y="-20" font-family="Helvetica,sans-Serif" font-size="10.00">kest_fpga_batch_append</text>
<text xml:space="preserve" text-anchor="middle" x="386.5" y="-7.25" font-family="Helvetica,sans-Serif" font-size="10.00">_resource_list</text>
</a>
</g>
</g>
<!-- Node89&#45;&gt;Node90 -->
<g id="edge22_Node000089_Node000090" class="edge">
<title>Node89&#45;&gt;Node90</title>
<g id="a_edge22_Node000089_Node000090"><a xlink:title=" ">
<path fill="none" stroke="#63b8ff" d="M498.31,-48.41C481.57,-43.63 463.89,-38.58 447.69,-33.95"/>
<polygon fill="#63b8ff" stroke="#63b8ff" points="497.12,-51.71 507.69,-51.09 499.04,-44.98 497.12,-51.71"/>
</a>
</g>
</g>
<!-- Node91 -->
<g id="Node000091" class="node">
<title>Node91</title>
<g id="a_Node000091"><a xlink:href="kest__fpga__encoding_8c.html#ac29c0fe9f8b2cfd9ca5df8aa2f65eb20" target="_top" xlink:title=" ">
<polygon fill="#fff0f0" stroke="red" points="454.88,-85.5 318.12,-85.5 318.12,-52 454.88,-52 454.88,-85.5"/>
<text xml:space="preserve" text-anchor="start" x="326.12" y="-72" font-family="Helvetica,sans-Serif" font-size="10.00">kest_fpga_batch_append</text>
<text xml:space="preserve" text-anchor="middle" x="386.5" y="-59.25" font-family="Helvetica,sans-Serif" font-size="10.00">_resources</text>
</a>
</g>
</g>
<!-- Node89&#45;&gt;Node91 -->
<g id="edge23_Node000089_Node000091" class="edge">
<title>Node89&#45;&gt;Node91</title>
<g id="a_edge23_Node000089_Node000091"><a xlink:title=" ">
<path fill="none" stroke="#63b8ff" d="M490.58,-68.75C478.83,-68.75 466.82,-68.75 455.33,-68.75"/>
<polygon fill="#63b8ff" stroke="#63b8ff" points="490.22,-72.25 500.22,-68.75 490.22,-65.25 490.22,-72.25"/>
</a>
</g>
</g>
<!-- Node93 -->
<g id="Node000093" class="node">
<title>Node93</title>
<g id="a_Node000093"><a xlink:href="kest__fpga__cmd_8c.html#a263cc37db306d9929feeffdb0b76396d" target="_top" xlink:title=" ">
<polygon fill="#fff0f0" stroke="red" points="455.25,-559.5 317.75,-559.5 317.75,-526 455.25,-526 455.25,-559.5"/>
<text xml:space="preserve" text-anchor="start" x="325.75" y="-546" font-family="Helvetica,sans-Serif" font-size="10.00">kest_fpga_command_list</text>
<text xml:space="preserve" text-anchor="middle" x="386.5" y="-533.25" font-family="Helvetica,sans-Serif" font-size="10.00">_append_encoded</text>
</a>
</g>
</g>
<!-- Node92&#45;&gt;Node93 -->
<g id="edge25_Node000092_Node000093" class="edge">
<title>Node92&#45;&gt;Node93</title>
<g id="a_edge25_Node000092_Node000093"><a xlink:title=" ">
<path fill="none" stroke="#63b8ff" d="M479.66,-542.75C471.61,-542.75 463.55,-542.75 455.74,-542.75"/>
<polygon fill="#63b8ff" stroke="#63b8ff" points="479.48,-546.25 489.48,-542.75 479.48,-539.25 479.48,-546.25"/>
</a>
</g>
</g>
<!-- Node99 -->
<g id="Node000099" class="node">
<title>Node99</title>
<g id="a_Node000099"><a xlink:href="kest__fpga__io_8c.html#a1d6d30e20ceac79973b36fd12e790aa5" target="_top" xlink:title=" ">
<polygon fill="white" stroke="#666666" points="1029.75,-453.12 875.75,-453.12 875.75,-432.38 1029.75,-432.38 1029.75,-453.12"/>
<text xml:space="preserve" text-anchor="middle" x="952.75" y="-439.62" font-family="Helvetica,sans-Serif" font-size="10.00">kest_fpga_batch_append_16</text>
</a>
</g>
</g>
<!-- Node98&#45;&gt;Node99 -->
<g id="edge29_Node000098_Node000099" class="edge">
<title>Node98&#45;&gt;Node99</title>
<g id="a_edge29_Node000098_Node000099"><a xlink:title=" ">
<path fill="none" stroke="#63b8ff" d="M1053.85,-444.98C1045.95,-444.81 1037.94,-444.63 1030.07,-444.45"/>
<polygon fill="#63b8ff" stroke="#63b8ff" points="1053.72,-448.48 1063.8,-445.2 1053.88,-441.48 1053.72,-448.48"/>
</a>
</g>
</g>
<!-- Node102 -->
<g id="Node000102" class="node">
<title>Node102</title>
<g id="a_Node000102"><a xlink:href="kest__fpga__io_8c.html#aa00adf9f96658a5c00b3d93dfa8c00de" target="_top" xlink:title=" ">
<polygon fill="white" stroke="#666666" points="1029.75,-591.12 875.75,-591.12 875.75,-570.38 1029.75,-570.38 1029.75,-591.12"/>
<text xml:space="preserve" text-anchor="middle" x="952.75" y="-577.62" font-family="Helvetica,sans-Serif" font-size="10.00">kest_fpga_batch_append_24</text>
</a>
</g>
</g>
<!-- Node98&#45;&gt;Node102 -->
<g id="edge42_Node000098_Node000102" class="edge">
<title>Node98&#45;&gt;Node102</title>
<g id="a_edge42_Node000098_Node000102"><a xlink:title=" ">
<path fill="none" stroke="#63b8ff" d="M1070.64,-469.49C1068.96,-470.53 1067.33,-471.62 1065.75,-472.75 1045.48,-487.25 1047.28,-498.03 1029.75,-515.75 1009.48,-536.24 983.54,-557.49 967.81,-569.89"/>
<polygon fill="#63b8ff" stroke="#63b8ff" points="1072.26,-472.59 1079.29,-464.67 1068.85,-466.47 1072.26,-472.59"/>
</a>
</g>
</g>
<!-- Node104 -->
<g id="Node000104" class="node">
<title>Node104</title>
<g id="a_Node000104"><a xlink:href="kest__fpga__io_8c.html#ac7679b9a1a77f12aa23affb51346e3d4" target="_top" xlink:title=" ">
<polygon fill="white" stroke="#666666" points="839.75,-553.12 685.75,-553.12 685.75,-532.38 839.75,-532.38 839.75,-553.12"/>
<text xml:space="preserve" text-anchor="middle" x="762.75" y="-539.62" font-family="Helvetica,sans-Serif" font-size="10.00">kest_fpga_batch_append_32</text>
</a>
</g>
</g>
<!-- Node98&#45;&gt;Node104 -->
<g id="edge50_Node000098_Node000104" class="edge">
<title>Node98&#45;&gt;Node104</title>
<g id="a_edge50_Node000098_Node000104"><a xlink:title=" ">
<path fill="none" stroke="#63b8ff" d="M1056.13,-466.76C979.92,-486.57 866.12,-516.15 805.41,-531.92"/>
<polygon fill="#63b8ff" stroke="#63b8ff" points="1056.83,-470.2 1065.62,-464.29 1055.06,-463.42 1056.83,-470.2"/>
</a>
</g>
</g>
<!-- Node99&#45;&gt;Node68 -->
<g id="edge35_Node000099_Node000068" class="edge">
<title>Node99&#45;&gt;Node68</title>
<g id="a_edge35_Node000099_Node000068"><a xlink:title=" ">
<path fill="none" stroke="#63b8ff" d="M893.04,-427.48C886.76,-424.27 880.83,-420.41 875.75,-415.75 847.32,-389.67 871.73,-358.34 839.75,-336.75 781.03,-297.09 697.47,-300.3 639.27,-309.45"/>
<polygon fill="#63b8ff" stroke="#63b8ff" points="891.17,-430.47 901.72,-431.37 894.03,-424.09 891.17,-430.47"/>
</a>
</g>
</g>
<!-- Node99&#45;&gt;Node84 -->
<g id="edge36_Node000099_Node000084" class="edge">
<title>Node99&#45;&gt;Node84</title>
<g id="a_edge36_Node000099_Node000084"><a xlink:title=" ">
<path fill="none" stroke="#63b8ff" d="M864.08,-451.51C795.66,-458.35 702.01,-467.71 639.27,-473.98"/>
<polygon fill="#63b8ff" stroke="#63b8ff" points="864.15,-455.02 873.75,-450.54 863.45,-448.06 864.15,-455.02"/>
</a>
</g>
</g>
<!-- Node99&#45;&gt;Node85 -->
<g id="edge37_Node000099_Node000085" class="edge">
<title>Node99&#45;&gt;Node85</title>
<g id="a_edge37_Node000099_Node000085"><a xlink:title=" ">
<path fill="none" stroke="#63b8ff" d="M896.33,-427.79C889.02,-424.49 881.93,-420.52 875.75,-415.75 853.22,-398.34 864.91,-376.08 839.75,-362.75 771.03,-326.35 678.02,-343.31 621.52,-359.56"/>
<polygon fill="#63b8ff" stroke="#63b8ff" points="894.76,-430.93 905.34,-431.45 897.39,-424.44 894.76,-430.93"/>
</a>
</g>
</g>
<!-- Node99&#45;&gt;Node89 -->
<g id="edge40_Node000099_Node000089" class="edge">
<title>Node99&#45;&gt;Node89</title>
<g id="a_edge40_Node000099_Node000089"><a xlink:title=" ">
<path fill="none" stroke="#63b8ff" d="M948.03,-420.83C938.61,-371.69 909.44,-251.58 839.75,-181.75 784.78,-126.66 698.87,-96.96 639.14,-82.04"/>
<polygon fill="#63b8ff" stroke="#63b8ff" points="944.55,-421.26 949.78,-430.48 951.44,-420.01 944.55,-421.26"/>
</a>
</g>
</g>
<!-- Node99&#45;&gt;Node92 -->
<g id="edge41_Node000099_Node000092" class="edge">
<title>Node99&#45;&gt;Node92</title>
<g id="a_edge41_Node000099_Node000092"><a xlink:title=" ">
<path fill="none" stroke="#63b8ff" d="M903.83,-456.78C884.03,-462.49 860.82,-469.07 839.75,-474.75 772.83,-492.79 696.16,-512.09 641.97,-525.5"/>
<polygon fill="#63b8ff" stroke="#63b8ff" points="904.66,-460.19 913.3,-454.04 902.72,-453.46 904.66,-460.19"/>
</a>
</g>
</g>
<!-- Node100 -->
<g id="Node000100" class="node">
<title>Node100</title>
<g id="a_Node000100"><a xlink:href="kest__fpga__encoding_8c.html#a9b93bb2d500d5c9986515930a0f9ce47" target="_top" xlink:title=" ">
<polygon fill="white" stroke="#666666" points="831.12,-438.5 694.38,-438.5 694.38,-405 831.12,-405 831.12,-438.5"/>
<text xml:space="preserve" text-anchor="start" x="702.38" y="-425" font-family="Helvetica,sans-Serif" font-size="10.00">kest_fpga_batch_append</text>
<text xml:space="preserve" text-anchor="middle" x="762.75" y="-412.25" font-family="Helvetica,sans-Serif" font-size="10.00">_block_number</text>
</a>
</g>
</g>
<!-- Node99&#45;&gt;Node100 -->
<g id="edge30_Node000099_Node000100" class="edge">
<title>Node99&#45;&gt;Node100</title>
<g id="a_edge30_Node000099_Node000100"><a xlink:title=" ">
<path fill="none" stroke="#63b8ff" d="M863.95,-432.94C853.01,-431.72 841.96,-430.49 831.39,-429.31"/>
<polygon fill="#63b8ff" stroke="#63b8ff" points="863.45,-436.41 873.78,-434.04 864.23,-429.45 863.45,-436.41"/>
</a>
</g>
</g>
<!-- Node101 -->
<g id="Node000101" class="node">
<title>Node101</title>
<g id="a_Node000101"><a xlink:href="kest__fpga__io_8c.html#abd045732fd87b6a5a21bb9f6a529fc97" target="_top" xlink:title=" ">
<polygon fill="white" stroke="#666666" points="831.12,-642.5 694.38,-642.5 694.38,-609 831.12,-609 831.12,-642.5"/>
<text xml:space="preserve" text-anchor="start" x="702.38" y="-629" font-family="Helvetica,sans-Serif" font-size="10.00">kest_fpga_batch_append</text>
<text xml:space="preserve" text-anchor="middle" x="762.75" y="-616.25" font-family="Helvetica,sans-Serif" font-size="10.00">_float</text>
</a>
</g>
</g>
<!-- Node99&#45;&gt;Node101 -->
<g id="edge38_Node000099_Node000101" class="edge">
<title>Node99&#45;&gt;Node101</title>
<g id="a_edge38_Node000099_Node000101"><a xlink:title=" ">
<path fill="none" stroke="#63b8ff" d="M934.99,-461.88C913.64,-485.95 875.23,-528.18 839.75,-561.75 822.08,-578.47 800.82,-596.18 785.29,-608.73"/>
<polygon fill="#63b8ff" stroke="#63b8ff" points="937.55,-464.27 941.55,-454.46 932.3,-459.64 937.55,-464.27"/>
</a>
</g>
</g>
<!-- Node100&#45;&gt;Node10 -->
<g id="edge31_Node000100_Node000010" class="edge">
<title>Node100&#45;&gt;Node10</title>
<g id="a_edge31_Node000100_Node000010"><a xlink:title=" ">
<path fill="none" stroke="#63b8ff" d="M682.69,-424.66C668.25,-425.19 653.29,-425.74 639.21,-426.26"/>
<polygon fill="#63b8ff" stroke="#63b8ff" points="682.76,-428.16 692.63,-424.29 682.5,-421.16 682.76,-428.16"/>
</a>
</g>
</g>
<!-- Node100&#45;&gt;Node68 -->
<g id="edge32_Node000100_Node000068" class="edge">
<title>Node100&#45;&gt;Node68</title>
<g id="a_edge32_Node000100_Node000068"><a xlink:title=" ">
<path fill="none" stroke="#63b8ff" d="M729.3,-398.18C707.57,-383.16 677.89,-364.1 649.75,-350.75 643.02,-347.56 635.8,-344.59 628.56,-341.89"/>
<polygon fill="#63b8ff" stroke="#63b8ff" points="727.25,-401.02 737.45,-403.89 731.26,-395.29 727.25,-401.02"/>
</a>
</g>
</g>
<!-- Node100&#45;&gt;Node84 -->
<g id="edge33_Node000100_Node000084" class="edge">
<title>Node100&#45;&gt;Node84</title>
<g id="a_edge33_Node000100_Node000084"><a xlink:title=" ">
<path fill="none" stroke="#63b8ff" d="M695.47,-442.3C673.16,-449.22 648.51,-456.87 627.11,-463.5"/>
<polygon fill="#63b8ff" stroke="#63b8ff" points="696.25,-445.73 704.76,-439.42 694.18,-439.04 696.25,-445.73"/>
</a>
</g>
</g>
<!-- Node100&#45;&gt;Node92 -->
<g id="edge34_Node000100_Node000092" class="edge">
<title>Node100&#45;&gt;Node92</title>
<g id="a_edge34_Node000100_Node000092"><a xlink:title=" ">
<path fill="none" stroke="#63b8ff" d="M733.28,-446.13C711.34,-464.21 679.79,-488.73 649.75,-506.75 638.34,-513.59 625.4,-520.03 613.38,-525.52"/>
<polygon fill="#63b8ff" stroke="#63b8ff" points="735.45,-448.88 740.89,-439.78 730.97,-443.5 735.45,-448.88"/>
</a>
</g>
</g>
<!-- Node101&#45;&gt;Node92 -->
<g id="edge39_Node000101_Node000092" class="edge">
<title>Node101&#45;&gt;Node92</title>
<g id="a_edge39_Node000101_Node000092"><a xlink:title=" ">
<path fill="none" stroke="#63b8ff" d="M708.1,-604.18C700.57,-601.06 692.95,-597.86 685.75,-594.75 659.74,-583.53 630.68,-570.3 608.38,-559.99"/>
<polygon fill="#63b8ff" stroke="#63b8ff" points="706.64,-607.36 717.22,-607.93 709.3,-600.89 706.64,-607.36"/>
</a>
</g>
</g>
<!-- Node102&#45;&gt;Node84 -->
<g id="edge43_Node000102_Node000084" class="edge">
<title>Node102&#45;&gt;Node84</title>
<g id="a_edge43_Node000102_Node000084"><a xlink:title=" ">
<path fill="none" stroke="#63b8ff" d="M864.05,-591.65C809.72,-594.38 740.18,-590.34 685.75,-561.75 663.08,-549.84 669.93,-532.53 649.75,-516.75 640.33,-509.38 629.15,-503.1 618.24,-497.95"/>
<polygon fill="#63b8ff" stroke="#63b8ff" points="864.12,-595.15 873.89,-591.06 863.7,-588.17 864.12,-595.15"/>
</a>
</g>
</g>
<!-- Node102&#45;&gt;Node85 -->
<g id="edge44_Node000102_Node000085" class="edge">
<title>Node102&#45;&gt;Node85</title>
<g id="a_edge44_Node000102_Node000085"><a xlink:title=" ">
<path fill="none" stroke="#63b8ff" d="M938.24,-560.53C922.69,-537.07 896.63,-497.07 875.75,-461.75 858.75,-432.99 867.86,-413.81 839.75,-395.75 807.74,-375.18 707.74,-373.1 639.31,-374.31"/>
<polygon fill="#63b8ff" stroke="#63b8ff" points="935.29,-562.43 943.74,-568.82 941.12,-558.55 935.29,-562.43"/>
</a>
</g>
</g>
<!-- Node102&#45;&gt;Node89 -->
<g id="edge48_Node000102_Node000089" class="edge">
<title>Node102&#45;&gt;Node89</title>
<g id="a_edge48_Node000102_Node000089"><a xlink:title=" ">
<path fill="none" stroke="#63b8ff" d="M935.7,-561.21C918.07,-538.68 890.35,-499.83 875.75,-461.75 840.6,-370.05 895.42,-324.64 839.75,-243.75 794.81,-178.45 743.44,-208.13 685.75,-153.75 664.76,-133.97 672.18,-117.89 649.75,-99.75 643.05,-94.33 635.28,-89.76 627.29,-85.94"/>
<polygon fill="#63b8ff" stroke="#63b8ff" points="932.86,-563.27 941.84,-568.9 938.33,-558.9 932.86,-563.27"/>
</a>
</g>
</g>
<!-- Node102&#45;&gt;Node92 -->
<g id="edge49_Node000102_Node000092" class="edge">
<title>Node102&#45;&gt;Node92</title>
<g id="a_edge49_Node000102_Node000092"><a xlink:title=" ">
<path fill="none" stroke="#63b8ff" d="M931.41,-598.74C910.22,-616.18 875.22,-641.45 839.75,-651.75 774.02,-670.83 749.29,-677.2 685.75,-651.75 639.18,-633.1 600.81,-585.41 582.71,-559.73"/>
<polygon fill="#63b8ff" stroke="#63b8ff" points="933.6,-601.48 938.97,-592.34 929.07,-596.13 933.6,-601.48"/>
</a>
</g>
</g>
<!-- Node102&#45;&gt;Node101 -->
<g id="edge45_Node000102_Node000101" class="edge">
<title>Node102&#45;&gt;Node101</title>
<g id="a_edge45_Node000102_Node000101"><a xlink:title=" ">
<path fill="none" stroke="#63b8ff" d="M895.55,-594.2C875.44,-599.02 852.56,-604.49 831.57,-609.52"/>
<polygon fill="#63b8ff" stroke="#63b8ff" points="896.34,-597.61 905.25,-591.88 894.71,-590.81 896.34,-597.61"/>
</a>
</g>
</g>
<!-- Node103 -->
<g id="Node000103" class="node">
<title>Node103</title>
<g id="a_Node000103"><a xlink:href="kest__fpga__io_8c.html#a6159e987931bc8bd9f33ed3c6faf9e69" target="_top" xlink:title=" ">
<polygon fill="white" stroke="#666666" points="831.12,-732.5 694.38,-732.5 694.38,-699 831.12,-699 831.12,-732.5"/>
<text xml:space="preserve" text-anchor="start" x="702.38" y="-719" font-family="Helvetica,sans-Serif" font-size="10.00">kest_fpga_batch_append</text>
<text xml:space="preserve" text-anchor="middle" x="762.75" y="-706.25" font-family="Helvetica,sans-Serif" font-size="10.00">_float_filter_width</text>
</a>
</g>
</g>
<!-- Node102&#45;&gt;Node103 -->
<g id="edge46_Node000102_Node000103" class="edge">
<title>Node102&#45;&gt;Node103</title>
<g id="a_edge46_Node000102_Node000103"><a xlink:title=" ">
<path fill="none" stroke="#63b8ff" d="M935.06,-600.01C914.53,-622.75 877.7,-660.54 839.75,-684.75 831.58,-689.96 822.39,-694.59 813.29,-698.58"/>
<polygon fill="#63b8ff" stroke="#63b8ff" points="937.56,-602.47 941.58,-592.67 932.32,-597.83 937.56,-602.47"/>
</a>
</g>
</g>
<!-- Node103&#45;&gt;Node92 -->
<g id="edge47_Node000103_Node000092" class="edge">
<title>Node103&#45;&gt;Node92</title>
<g id="a_edge47_Node000103_Node000092"><a xlink:title=" ">
<path fill="none" stroke="#63b8ff" d="M699.49,-693.51C694.67,-690.85 690.02,-687.93 685.75,-684.75 638.05,-649.21 598.79,-589.29 581.3,-559.96"/>
<polygon fill="#63b8ff" stroke="#63b8ff" points="697.71,-696.53 708.22,-697.92 700.87,-690.28 697.71,-696.53"/>
</a>
</g>
</g>
<!-- Node104&#45;&gt;Node10 -->
<g id="edge51_Node000104_Node000010" class="edge">
<title>Node104&#45;&gt;Node10</title>
<g id="a_edge51_Node000104_Node000010"><a xlink:title=" ">
<path fill="none" stroke="#63b8ff" d="M742.78,-524.44C721.61,-504.86 685.58,-474.02 649.75,-454.75 643.7,-451.5 637.16,-448.55 630.54,-445.91"/>
<polygon fill="#63b8ff" stroke="#63b8ff" points="740.12,-526.74 749.81,-531.05 744.92,-521.65 740.12,-526.74"/>
</a>
</g>
</g>
<!-- Node104&#45;&gt;Node92 -->
<g id="edge52_Node000104_Node000092" class="edge">
<title>Node104&#45;&gt;Node92</title>
<g id="a_edge52_Node000104_Node000092"><a xlink:title=" ">
<path fill="none" stroke="#63b8ff" d="M674.14,-542.75C666.08,-542.75 657.95,-542.75 649.98,-542.75"/>
<polygon fill="#63b8ff" stroke="#63b8ff" points="673.95,-546.25 683.95,-542.75 673.95,-539.25 673.95,-546.25"/>
</a>
</g>
</g>
</g>
</svg>

<g id="navigator" transform="translate(0 0)" fill="#404254">
  <rect fill="#f2f5e9" fill-opacity="0.5" stroke="#606060" stroke-width=".5" x="0" y="0" width="60" height="60"/>
  <use id="zoomplus" xlink:href="#zoomPlus" x="17" y="9" onmousedown="handleZoom(evt,'in')"/>
  <use id="zoomminus" xlink:href="#zoomMin" x="42" y="9" onmousedown="handleZoom(evt,'out')"/>
  <use id="reset" xlink:href="#resetDef" x="30" y="36" onmousedown="handleReset()"/>
   <use id="arrowup" xlink:href="#arrowUp" x="0" y="0" onmousedown="handlePan(0,-1)"/>
  <use id="arrowright" xlink:href="#arrowRight" x="0" y="0" onmousedown="handlePan(1,0)"/>
  <use id="arrowdown" xlink:href="#arrowDown" x="0" y="0" onmousedown="handlePan(0,1)"/>
  <use id="arrowleft" xlink:href="#arrowLeft" x="0" y="0" onmousedown="handlePan(-1,0)"/>
</g>
<svg viewBox="0 0 15 15" width="100%" height="30px" preserveAspectRatio="xMaxYMin meet">
 <g id="arrow_out" transform="scale(0.3 0.3)">
  <a xlink:href="kest__alloc_8h_ac3afebacd5118241e9f677df59a469b0_icgraph_org.svg" target="_base">
   <rect id="button" ry="5" rx="5" y="6" x="6" height="38" width="38"
        fill="#f2f5e9" fill-opacity="0.5" stroke="#606060" stroke-width="1.0"/>
   <path id="arrow"
     d="M 11.500037,31.436501 C 11.940474,20.09759 22.043105,11.32322 32.158766,21.979434 L 37.068811,17.246167 C 37.068811,17.246167 37.088388,32 37.088388,32 L 22.160133,31.978069 C 22.160133,31.978069 26.997745,27.140456 26.997745,27.140456 C 18.528582,18.264221 13.291696,25.230495 11.500037,31.436501 z"
     style="fill:#404040;"/>
  </a>
 </g>
</svg>

<style type='text/css'>
<![CDATA[
[data-mouse-over-selected='false'] { opacity: 0.7; }
[data-mouse-over-selected='true']  { opacity: 1.0; }
]]>
</style>
<script type="application/ecmascript"><![CDATA[
document.addEventListener('DOMContentLoaded', (event) => {
  highlightEdges();
  highlightAdjacentNodes();
});
]]></script>
</svg>
