<?xml version="1.0" encoding="UTF-8" standalone="no"?>
<!DOCTYPE svg PUBLIC "-//W3C//DTD SVG 1.1//EN"
 "http://www.w3.org/Graphics/SVG/1.1/DTD/svg11.dtd">
<!-- Generated by graphviz version 13.1.2 (20250808.2320)
 -->
<!-- Title: kest_preset_if_active_update_fpga Pages: 1 -->
<svg width="629pt" height="119pt"
 viewBox="0.00 0.00 629.00 119.00" xmlns="http://www.w3.org/2000/svg" xmlns:xlink="http://www.w3.org/1999/xlink">
<g id="graph0" class="graph" transform="scale(1 1) rotate(0) translate(4 114.75)">
<title>kest_preset_if_active_update_fpga</title>
<!-- Node1 -->
<g id="Node000001" class="node">
<title>Node1</title>
<g id="a_Node000001"><a xlink:title=" ">
<polygon fill="#999999" stroke="#666666" points="621.25,-72.12 501.75,-72.12 501.75,-38.62 621.25,-38.62 621.25,-72.12"/>
<text xml:space="preserve" text-anchor="start" x="509.75" y="-58.62" font-family="Helvetica,sans-Serif" font-size="10.00">kest_preset_if_active</text>
<text xml:space="preserve" text-anchor="middle" x="561.5" y="-45.88" font-family="Helvetica,sans-Serif" font-size="10.00">_update_fpga</text>
</a>
</g>
</g>
<!-- Node2 -->
<g id="Node000002" class="node">
<title>Node2</title>
<g id="a_Node000002"><a xlink:href="kest__fpga__update_8c.html#a3d512b728d677f9287e6fadeb95d115f" target="_top" xlink:title=" ">
<polygon fill="white" stroke="#666666" points="465.75,-110.75 337.25,-110.75 337.25,-90 465.75,-90 465.75,-110.75"/>
<text xml:space="preserve" text-anchor="middle" x="401.5" y="-97.25" font-family="Helvetica,sans-Serif" font-size="10.00">kest_fpga_update_task</text>
</a>
</g>
</g>
<!-- Node1&#45;&gt;Node2 -->
<g id="edge1_Node000001_Node000002" class="edge">
<title>Node1&#45;&gt;Node2</title>
<g id="a_edge1_Node000001_Node000002"><a xlink:title=" ">
<path fill="none" stroke="#63b8ff" d="M490.94,-75.19C473.53,-80.14 455.5,-85.28 440.3,-89.61"/>
<polygon fill="#63b8ff" stroke="#63b8ff" points="491.55,-78.65 500.21,-72.55 489.63,-71.92 491.55,-78.65"/>
</a>
</g>
</g>
<!-- Node4 -->
<g id="Node000004" class="node">
<title>Node4</title>
<g id="a_Node000004"><a xlink:href="kest__preset__view_8c.html#ae342f0eada18cee3f3c03ae3252a2950" target="_top" xlink:title=" ">
<polygon fill="white" stroke="#666666" points="456,-72.12 347,-72.12 347,-38.62 456,-38.62 456,-72.12"/>
<text xml:space="preserve" text-anchor="start" x="355" y="-58.62" font-family="Helvetica,sans-Serif" font-size="10.00">preset_view_effect</text>
<text xml:space="preserve" text-anchor="middle" x="401.5" y="-45.88" font-family="Helvetica,sans-Serif" font-size="10.00">_delete_cb</text>
</a>
</g>
</g>
<!-- Node1&#45;&gt;Node4 -->
<g id="edge3_Node000001_Node000004" class="edge">
<title>Node1&#45;&gt;Node4</title>
<g id="a_edge3_Node000001_Node000004"><a xlink:title=" ">
<path fill="none" stroke="#63b8ff" d="M490.39,-55.38C479,-55.38 467.35,-55.38 456.42,-55.38"/>
<polygon fill="#63b8ff" stroke="#63b8ff" points="490.15,-58.88 500.15,-55.38 490.15,-51.88 490.15,-58.88"/>
</a>
</g>
</g>
<!-- Node43 -->
<g id="Node000043" class="node">
<title>Node43</title>
<g id="a_Node000043"><a xlink:href="kest__parameter__widget_8c.html#a22b7fa4ae5f9628f2da2155f58c2635c" target="_top" xlink:title=" ">
<polygon fill="white" stroke="#666666" points="452.25,-20.75 350.75,-20.75 350.75,0 452.25,0 452.25,-20.75"/>
<text xml:space="preserve" text-anchor="middle" x="401.5" y="-7.25" font-family="Helvetica,sans-Serif" font-size="10.00">sw_field_save_cb</text>
</a>
</g>
</g>
<!-- Node1&#45;&gt;Node43 -->
<g id="edge6_Node000001_Node000043" class="edge">
<title>Node1&#45;&gt;Node43</title>
<g id="a_edge6_Node000001_Node000043"><a xlink:title=" ">
<path fill="none" stroke="#63b8ff" d="M490.94,-35.56C473.53,-30.61 455.5,-25.47 440.3,-21.14"/>
<polygon fill="#63b8ff" stroke="#63b8ff" points="489.63,-38.83 500.21,-38.2 491.55,-32.1 489.63,-38.83"/>
</a>
</g>
</g>
<!-- Node3 -->
<g id="Node000003" class="node">
<title>Node3</title>
<g id="a_Node000003"><a xlink:href="kest__fpga__update_8c.html#a0e820c8c83af39fa8c722907bafe5214" target="_top" xlink:title=" ">
<polygon fill="white" stroke="#666666" points="301.25,-110.75 174.25,-110.75 174.25,-90 301.25,-90 301.25,-110.75"/>
<text xml:space="preserve" text-anchor="middle" x="237.75" y="-97.25" font-family="Helvetica,sans-Serif" font-size="10.00">kest_init_fpga_updater</text>
</a>
</g>
</g>
<!-- Node2&#45;&gt;Node3 -->
<g id="edge2_Node000002_Node000003" class="edge">
<title>Node2&#45;&gt;Node3</title>
<g id="a_edge2_Node000002_Node000003"><a xlink:title=" ">
<path fill="none" stroke="#63b8ff" d="M325.69,-100.38C317.6,-100.38 309.43,-100.38 301.5,-100.38"/>
<polygon fill="#63b8ff" stroke="#63b8ff" points="325.52,-103.88 335.52,-100.38 325.52,-96.88 325.52,-103.88"/>
</a>
</g>
</g>
<!-- Node5 -->
<g id="Node000005" class="node">
<title>Node5</title>
<g id="a_Node000005"><a xlink:href="kest__preset__view_8c.html#a7aa469a400baf1fdf82d314a2ad5ddbb" target="_top" xlink:title=" ">
<polygon fill="white" stroke="#666666" points="285.88,-65.75 189.62,-65.75 189.62,-45 285.88,-45 285.88,-65.75"/>
<text xml:space="preserve" text-anchor="middle" x="237.75" y="-52.25" font-family="Helvetica,sans-Serif" font-size="10.00">init_preset_view</text>
</a>
</g>
</g>
<!-- Node4&#45;&gt;Node5 -->
<g id="edge4_Node000004_Node000005" class="edge">
<title>Node4&#45;&gt;Node5</title>
<g id="a_edge4_Node000004_Node000005"><a xlink:title=" ">
<path fill="none" stroke="#63b8ff" d="M335.41,-55.38C318.93,-55.38 301.55,-55.38 286.13,-55.38"/>
<polygon fill="#63b8ff" stroke="#63b8ff" points="335.13,-58.88 345.13,-55.38 335.13,-51.88 335.13,-58.88"/>
</a>
</g>
</g>
<!-- Node6 -->
<g id="Node000006" class="node">
<title>Node6</title>
<g id="a_Node000006"><a xlink:href="kest__preset__view_8c.html#ae4f85ce684e856ba2d0dfc97c49528b2" target="_top" xlink:title=" ">
<polygon fill="#fff0f0" stroke="red" points="134.12,-65.75 4.12,-65.75 4.12,-45 134.12,-45 134.12,-65.75"/>
<text xml:space="preserve" text-anchor="middle" x="69.12" y="-52.25" font-family="Helvetica,sans-Serif" font-size="10.00">create_preset_view_for</text>
</a>
</g>
</g>
<!-- Node5&#45;&gt;Node6 -->
<g id="edge5_Node000005_Node000006" class="edge">
<title>Node5&#45;&gt;Node6</title>
<g id="a_edge5_Node000005_Node000006"><a xlink:title=" ">
<path fill="none" stroke="#63b8ff" d="M178.31,-55.38C164.09,-55.38 148.81,-55.38 134.35,-55.38"/>
<polygon fill="#63b8ff" stroke="#63b8ff" points="177.93,-58.88 187.93,-55.38 177.93,-51.88 177.93,-58.88"/>
</a>
</g>
</g>
<!-- Node44 -->
<g id="Node000044" class="node">
<title>Node44</title>
<g id="a_Node000044"><a xlink:href="kest__parameter__widget_8c.html#a5a6ebded10138ba55624e195ae4f4309" target="_top" xlink:title=" ">
<polygon fill="white" stroke="#666666" points="286.25,-20.75 189.25,-20.75 189.25,0 286.25,0 286.25,-20.75"/>
<text xml:space="preserve" text-anchor="middle" x="237.75" y="-7.25" font-family="Helvetica,sans-Serif" font-size="10.00">edit_sw_field_cb</text>
</a>
</g>
</g>
<!-- Node43&#45;&gt;Node44 -->
<g id="edge7_Node000043_Node000044" class="edge">
<title>Node43&#45;&gt;Node44</title>
<g id="a_edge7_Node000043_Node000044"><a xlink:title=" ">
<path fill="none" stroke="#63b8ff" d="M339.38,-10.38C321.88,-10.38 303.07,-10.38 286.5,-10.38"/>
<polygon fill="#63b8ff" stroke="#63b8ff" points="339.14,-13.88 349.14,-10.38 339.14,-6.88 339.14,-13.88"/>
</a>
</g>
</g>
<!-- Node45 -->
<g id="Node000045" class="node">
<title>Node45</title>
<g id="a_Node000045"><a xlink:href="kest__parameter__widget_8c.html#a2074107eca4e8e2b3832c9f9f2e5f9f2" target="_top" xlink:title=" ">
<polygon fill="#fff0f0" stroke="red" points="138.25,-20.75 0,-20.75 0,0 138.25,0 138.25,-20.75"/>
<text xml:space="preserve" text-anchor="middle" x="69.12" y="-7.25" font-family="Helvetica,sans-Serif" font-size="10.00">setting_widget_create_ui</text>
</a>
</g>
</g>
<!-- Node44&#45;&gt;Node45 -->
<g id="edge8_Node000044_Node000045" class="edge">
<title>Node44&#45;&gt;Node45</title>
<g id="a_edge8_Node000044_Node000045"><a xlink:title=" ">
<path fill="none" stroke="#63b8ff" d="M177.68,-10.38C165.06,-10.38 151.62,-10.38 138.68,-10.38"/>
<polygon fill="#63b8ff" stroke="#63b8ff" points="177.49,-13.88 187.49,-10.38 177.49,-6.88 177.49,-13.88"/>
</a>
</g>
</g>
</g>
</svg>
