<?xml version="1.0" encoding="UTF-8" standalone="no"?>
<!DOCTYPE svg PUBLIC "-//W3C//DTD SVG 1.1//EN"
 "http://www.w3.org/Graphics/SVG/1.1/DTD/svg11.dtd">
<!-- Generated by graphviz version 13.1.2 (20250808.2320)
 -->
<!-- Title: seq_plus_cb Pages: 1 -->
<svg width="819pt" height="1126pt"
 viewBox="0.00 0.00 819.00 1126.00" xmlns="http://www.w3.org/2000/svg" xmlns:xlink="http://www.w3.org/1999/xlink">
<g id="graph0" class="graph" transform="scale(1 1) rotate(0) translate(4 1121.89)">
<title>seq_plus_cb</title>
<!-- Node1 -->
<g id="Node000001" class="node">
<title>Node1</title>
<g id="a_Node000001"><a xlink:title=" ">
<polygon fill="#999999" stroke="#666666" points="75.25,-379.51 0,-379.51 0,-358.76 75.25,-358.76 75.25,-379.51"/>
<text xml:space="preserve" text-anchor="middle" x="37.62" y="-366.01" font-family="Helvetica,sans-Serif" font-size="10.00">seq_plus_cb</text>
</a>
</g>
</g>
<!-- Node2 -->
<g id="Node000002" class="node">
<title>Node2</title>
<g id="a_Node000002"><a xlink:href="kest__button_8c.html#a760fe364ce4f5be2c972ff685e2f9825" target="_top" xlink:title=" ">
<polygon fill="white" stroke="#666666" points="254,-534.89 140.5,-534.89 140.5,-501.39 254,-501.39 254,-534.89"/>
<text xml:space="preserve" text-anchor="start" x="148.5" y="-521.39" font-family="Helvetica,sans-Serif" font-size="10.00">kest_active_button</text>
<text xml:space="preserve" text-anchor="middle" x="197.25" y="-508.64" font-family="Helvetica,sans-Serif" font-size="10.00">_array_append_new</text>
</a>
</g>
</g>
<!-- Node1&#45;&gt;Node2 -->
<g id="edge1_Node000001_Node000002" class="edge">
<title>Node1&#45;&gt;Node2</title>
<g id="a_edge1_Node000001_Node000002"><a xlink:title=" ">
<path fill="none" stroke="#63b8ff" d="M44.18,-379.73C54.96,-399.49 80.37,-442.46 111.25,-470.14 122.1,-479.87 135.26,-488.48 147.94,-495.62"/>
<polygon fill="#63b8ff" stroke="#63b8ff" points="146.17,-498.64 156.63,-500.31 149.5,-492.48 146.17,-498.64"/>
</a>
</g>
</g>
<!-- Node45 -->
<g id="Node000045" class="node">
<title>Node45</title>
<g id="a_Node000045"><a xlink:href="kest__button_8c.html#a5fdea311fb351ff8f9d27116813f35a8" target="_top" xlink:title=" ">
<polygon fill="white" stroke="#666666" points="251.38,-460.89 143.12,-460.89 143.12,-427.39 251.38,-427.39 251.38,-460.89"/>
<text xml:space="preserve" text-anchor="start" x="151.12" y="-447.39" font-family="Helvetica,sans-Serif" font-size="10.00">kest_active_button</text>
<text xml:space="preserve" text-anchor="middle" x="197.25" y="-434.64" font-family="Helvetica,sans-Serif" font-size="10.00">_create_ui</text>
</a>
</g>
</g>
<!-- Node1&#45;&gt;Node45 -->
<g id="edge31_Node000001_Node000045" class="edge">
<title>Node1&#45;&gt;Node45</title>
<g id="a_edge31_Node000001_Node000045"><a xlink:title=" ">
<path fill="none" stroke="#63b8ff" d="M51.81,-379.81C65.84,-390.72 89.01,-407.53 111.25,-418.14 117.82,-421.27 124.85,-424.13 131.95,-426.72"/>
<polygon fill="#63b8ff" stroke="#63b8ff" points="130.7,-429.99 141.3,-429.93 132.98,-423.37 130.7,-429.99"/>
</a>
</g>
</g>
<!-- Node47 -->
<g id="Node000047" class="node">
<title>Node47</title>
<g id="a_Node000047"><a xlink:href="kest__button_8c.html#a9d42d7845b1fcdaa4ee416ae86f6bc7e" target="_top" xlink:title=" ">
<polygon fill="white" stroke="#666666" points="253.62,-408.89 140.88,-408.89 140.88,-375.39 253.62,-375.39 253.62,-408.89"/>
<text xml:space="preserve" text-anchor="start" x="148.88" y="-395.39" font-family="Helvetica,sans-Serif" font-size="10.00">kest_active_button</text>
<text xml:space="preserve" text-anchor="middle" x="197.25" y="-382.64" font-family="Helvetica,sans-Serif" font-size="10.00">_set_representation</text>
</a>
</g>
</g>
<!-- Node1&#45;&gt;Node47 -->
<g id="edge34_Node000001_Node000047" class="edge">
<title>Node1&#45;&gt;Node47</title>
<g id="a_edge34_Node000001_Node000047"><a xlink:title=" ">
<path fill="none" stroke="#63b8ff" d="M75.58,-374.53C91.56,-376.86 110.76,-379.66 129.11,-382.34"/>
<polygon fill="#63b8ff" stroke="#63b8ff" points="128.48,-385.79 138.88,-383.77 129.5,-378.86 128.48,-385.79"/>
</a>
</g>
</g>
<!-- Node48 -->
<g id="Node000048" class="node">
<title>Node48</title>
<g id="a_Node000048"><a xlink:href="kest__preset_8c.html#a8e83d82d4259482016e0639c7cef1a49" target="_top" xlink:title=" ">
<polygon fill="white" stroke="#666666" points="283.25,-357.51 111.25,-357.51 111.25,-336.76 283.25,-336.76 283.25,-357.51"/>
<text xml:space="preserve" text-anchor="middle" x="197.25" y="-344.01" font-family="Helvetica,sans-Serif" font-size="10.00">kest_preset_add_representation</text>
</a>
</g>
</g>
<!-- Node1&#45;&gt;Node48 -->
<g id="edge35_Node000001_Node000048" class="edge">
<title>Node1&#45;&gt;Node48</title>
<g id="a_edge35_Node000001_Node000048"><a xlink:title=" ">
<path fill="none" stroke="#63b8ff" d="M75.58,-363.98C85.27,-362.63 96.15,-361.11 107.31,-359.55"/>
<polygon fill="#63b8ff" stroke="#63b8ff" points="107.6,-363.04 117.02,-358.2 106.63,-356.11 107.6,-363.04"/>
</a>
</g>
</g>
<!-- Node49 -->
<g id="Node000049" class="node">
<title>Node49</title>
<g id="a_Node000049"><a xlink:href="kest__sequence_8c.html#a379c32e926336d9f37795375fc61029a" target="_top" xlink:title=" ">
<polygon fill="white" stroke="#666666" points="274.62,-318.51 119.88,-318.51 119.88,-297.76 274.62,-297.76 274.62,-318.51"/>
<text xml:space="preserve" text-anchor="middle" x="197.25" y="-305.01" font-family="Helvetica,sans-Serif" font-size="10.00">sequence_append_preset_rp</text>
</a>
</g>
</g>
<!-- Node1&#45;&gt;Node49 -->
<g id="edge36_Node000001_Node000049" class="edge">
<title>Node1&#45;&gt;Node49</title>
<g id="a_edge36_Node000001_Node000049"><a xlink:title=" ">
<path fill="none" stroke="#63b8ff" d="M54.7,-358.3C68.99,-349.1 90.75,-336.15 111.25,-328.14 116.99,-325.9 123.04,-323.86 129.17,-322.03"/>
<polygon fill="#63b8ff" stroke="#63b8ff" points="130.09,-325.41 138.78,-319.34 128.2,-318.66 130.09,-325.41"/>
</a>
</g>
</g>
<!-- Node52 -->
<g id="Node000052" class="node">
<title>Node52</title>
<g id="a_Node000052"><a xlink:href="kest__sequence__view_8c.html#a08de2e10fc1c406742820cb4edd78cc3" target="_top" xlink:title=" ">
<polygon fill="white" stroke="#666666" points="260.75,-221.89 133.75,-221.89 133.75,-188.39 260.75,-188.39 260.75,-221.89"/>
<text xml:space="preserve" text-anchor="start" x="141.75" y="-208.39" font-family="Helvetica,sans-Serif" font-size="10.00">sequence_view_preset</text>
<text xml:space="preserve" text-anchor="middle" x="197.25" y="-195.64" font-family="Helvetica,sans-Serif" font-size="10.00">_button_rep_update</text>
</a>
</g>
</g>
<!-- Node1&#45;&gt;Node52 -->
<g id="edge40_Node000001_Node000052" class="edge">
<title>Node1&#45;&gt;Node52</title>
<g id="a_edge40_Node000001_Node000052"><a xlink:title=" ">
<path fill="none" stroke="#63b8ff" d="M48.08,-358.36C61.77,-342.83 88.02,-313.38 111.25,-289.14 130.74,-268.8 153.47,-246.41 170.52,-229.86"/>
<polygon fill="#63b8ff" stroke="#63b8ff" points="172.55,-232.76 177.3,-223.29 167.68,-227.73 172.55,-232.76"/>
</a>
</g>
</g>
<!-- Node3 -->
<g id="Node000003" class="node">
<title>Node3</title>
<g id="a_Node000003"><a xlink:href="kest__button_8c.html#a209511305dd2db40751857097e1e82c1" target="_top" xlink:title=" ">
<polygon fill="white" stroke="#666666" points="438.75,-556.89 330.5,-556.89 330.5,-523.39 438.75,-523.39 438.75,-556.89"/>
<text xml:space="preserve" text-anchor="start" x="338.5" y="-543.39" font-family="Helvetica,sans-Serif" font-size="10.00">kest_active_button</text>
<text xml:space="preserve" text-anchor="middle" x="384.62" y="-530.64" font-family="Helvetica,sans-Serif" font-size="10.00">_add_del_button</text>
</a>
</g>
</g>
<!-- Node2&#45;&gt;Node3 -->
<g id="edge2_Node000002_Node000003" class="edge">
<title>Node2&#45;&gt;Node3</title>
<g id="a_edge2_Node000002_Node000003"><a xlink:title=" ">
<path fill="none" stroke="#63b8ff" d="M254.37,-524.8C274.69,-527.21 297.8,-529.95 318.81,-532.45"/>
<polygon fill="#63b8ff" stroke="#63b8ff" points="318.39,-535.92 328.73,-533.62 319.21,-528.97 318.39,-535.92"/>
</a>
</g>
</g>
<!-- Node26 -->
<g id="Node000026" class="node">
<title>Node26</title>
<g id="a_Node000026"><a xlink:href="kest__alloc_8c.html#a849755c5dc5b35e712ffcdb602e50fb4" target="_top" xlink:title=" ">
<polygon fill="white" stroke="#666666" points="775.62,-408.51 710.88,-408.51 710.88,-387.76 775.62,-387.76 775.62,-408.51"/>
<text xml:space="preserve" text-anchor="middle" x="743.25" y="-395.01" font-family="Helvetica,sans-Serif" font-size="10.00">kest_alloc</text>
</a>
</g>
</g>
<!-- Node2&#45;&gt;Node26 -->
<g id="edge29_Node000002_Node000026" class="edge">
<title>Node2&#45;&gt;Node26</title>
<g id="a_edge29_Node000002_Node000026"><a xlink:title=" ">
<path fill="none" stroke="#63b8ff" d="M246.71,-500.94C268.79,-493.21 295.28,-484.05 319.25,-476.14 377.08,-457.04 393.53,-457.94 450,-435.14 466.59,-428.44 468.75,-421.89 486,-417.14 558.82,-397.08 647.4,-395.24 699.05,-396.3"/>
<polygon fill="#63b8ff" stroke="#63b8ff" points="698.82,-399.79 708.91,-396.55 699,-392.8 698.82,-399.79"/>
</a>
</g>
</g>
<!-- Node27 -->
<g id="Node000027" class="node">
<title>Node27</title>
<g id="a_Node000027"><a xlink:href="kest__button_8c.html#a591c84573c4b4dfefa4c6b1445fc290e" target="_top" xlink:title=" ">
<polygon fill="white" stroke="#666666" points="438.75,-651.89 330.5,-651.89 330.5,-618.39 438.75,-618.39 438.75,-651.89"/>
<text xml:space="preserve" text-anchor="start" x="338.5" y="-638.39" font-family="Helvetica,sans-Serif" font-size="10.00">kest_active_button</text>
<text xml:space="preserve" text-anchor="middle" x="384.62" y="-625.64" font-family="Helvetica,sans-Serif" font-size="10.00">_array_append</text>
</a>
</g>
</g>
<!-- Node2&#45;&gt;Node27 -->
<g id="edge15_Node000002_Node000027" class="edge">
<title>Node2&#45;&gt;Node27</title>
<g id="a_edge15_Node000002_Node000027"><a xlink:title=" ">
<path fill="none" stroke="#63b8ff" d="M225.21,-535.15C257.24,-555.37 310.85,-589.21 346.72,-611.85"/>
<polygon fill="#63b8ff" stroke="#63b8ff" points="344.73,-614.73 355.06,-617.11 348.47,-608.81 344.73,-614.73"/>
</a>
</g>
</g>
<!-- Node28 -->
<g id="Node000028" class="node">
<title>Node28</title>
<g id="a_Node000028"><a xlink:href="kest__button_8c.html#a9cc8b0c8114bbffc12e858af8589ff86" target="_top" xlink:title=" ">
<polygon fill="white" stroke="#666666" points="449.25,-917.51 320,-917.51 320,-896.76 449.25,-896.76 449.25,-917.51"/>
<text xml:space="preserve" text-anchor="middle" x="384.62" y="-904.01" font-family="Helvetica,sans-Serif" font-size="10.00">kest_active_button_init</text>
</a>
</g>
</g>
<!-- Node2&#45;&gt;Node28 -->
<g id="edge19_Node000002_Node000028" class="edge">
<title>Node2&#45;&gt;Node28</title>
<g id="a_edge19_Node000002_Node000028"><a xlink:title=" ">
<path fill="none" stroke="#63b8ff" d="M206.45,-535.36C236.59,-598.59 341.1,-817.9 373.78,-886.48"/>
<polygon fill="#63b8ff" stroke="#63b8ff" points="370.43,-887.59 377.89,-895.11 376.75,-884.58 370.43,-887.59"/>
</a>
</g>
</g>
<!-- Node18 -->
<g id="Node000018" class="node">
<title>Node18</title>
<g id="a_Node000018"><a xlink:href="kest__alloc_8c.html#a294af5728a94aa316fcf65304d388d48" target="_top" xlink:title=" ">
<polygon fill="white" stroke="#666666" points="415.12,-505.51 354.12,-505.51 354.12,-484.76 415.12,-484.76 415.12,-505.51"/>
<text xml:space="preserve" text-anchor="middle" x="384.62" y="-492.01" font-family="Helvetica,sans-Serif" font-size="10.00">kest_free</text>
</a>
</g>
</g>
<!-- Node2&#45;&gt;Node18 -->
<g id="edge30_Node000002_Node000018" class="edge">
<title>Node2&#45;&gt;Node18</title>
<g id="a_edge30_Node000002_Node000018"><a xlink:title=" ">
<path fill="none" stroke="#63b8ff" d="M254.37,-511.18C282.74,-507.66 316.56,-503.46 342.48,-500.24"/>
<polygon fill="#63b8ff" stroke="#63b8ff" points="342.79,-503.73 352.29,-499.03 341.93,-496.78 342.79,-503.73"/>
</a>
</g>
</g>
<!-- Node4 -->
<g id="Node000004" class="node">
<title>Node4</title>
<g id="a_Node000004"><a xlink:href="kest__button_8c.html#aa59f296fa9f9744c9753f81484085a15" target="_top" xlink:title=" ">
<polygon fill="white" stroke="#666666" points="624.62,-704.51 501.38,-704.51 501.38,-683.76 624.62,-683.76 624.62,-704.51"/>
<text xml:space="preserve" text-anchor="middle" x="563" y="-691.01" font-family="Helvetica,sans-Serif" font-size="10.00">button_set_clicked_cb</text>
</a>
</g>
</g>
<!-- Node3&#45;&gt;Node4 -->
<g id="edge3_Node000003_Node000004" class="edge">
<title>Node3&#45;&gt;Node4</title>
<g id="a_edge3_Node000003_Node000004"><a xlink:title=" ">
<path fill="none" stroke="#63b8ff" d="M403.85,-557.24C417.5,-570.61 436.13,-590.05 450,-609.14 469.41,-635.86 459.94,-653.86 486,-674.14 487.78,-675.52 489.64,-676.81 491.57,-678.01"/>
<polygon fill="#63b8ff" stroke="#63b8ff" points="489.88,-681.07 500.37,-682.59 493.12,-674.87 489.88,-681.07"/>
</a>
</g>
</g>
<!-- Node5 -->
<g id="Node000005" class="node">
<title>Node5</title>
<g id="a_Node000005"><a xlink:href="kest__button_8c.html#a20604a0eb74819a9747753ccfdb24e6c" target="_top" xlink:title=" ">
<polygon fill="white" stroke="#666666" points="777.5,-588.51 709,-588.51 709,-567.76 777.5,-567.76 777.5,-588.51"/>
<text xml:space="preserve" text-anchor="middle" x="743.25" y="-575.01" font-family="Helvetica,sans-Serif" font-size="10.00">init_button</text>
</a>
</g>
</g>
<!-- Node3&#45;&gt;Node5 -->
<g id="edge4_Node000003_Node000005" class="edge">
<title>Node3&#45;&gt;Node5</title>
<g id="a_edge4_Node000003_Node000005"><a xlink:title=" ">
<path fill="none" stroke="#63b8ff" d="M439.1,-551.42C454.21,-554.29 470.7,-557.13 486,-559.14 559.66,-568.81 645.92,-573.94 697.22,-576.34"/>
<polygon fill="#63b8ff" stroke="#63b8ff" points="696.89,-579.83 707.04,-576.79 697.2,-572.84 696.89,-579.83"/>
</a>
</g>
</g>
<!-- Node6 -->
<g id="Node000006" class="node">
<title>Node6</title>
<g id="a_Node000006"><a xlink:href="kest__button_8c.html#a79dee973d84b2c6abad7440f41145062" target="_top" xlink:title=" ">
<polygon fill="#fff0f0" stroke="red" points="617.12,-511.89 508.88,-511.89 508.88,-478.39 617.12,-478.39 617.12,-511.89"/>
<text xml:space="preserve" text-anchor="start" x="516.88" y="-498.39" font-family="Helvetica,sans-Serif" font-size="10.00">kest_active_button</text>
<text xml:space="preserve" text-anchor="middle" x="563" y="-485.64" font-family="Helvetica,sans-Serif" font-size="10.00">_del_cb</text>
</a>
</g>
</g>
<!-- Node3&#45;&gt;Node6 -->
<g id="edge5_Node000003_Node000006" class="edge">
<title>Node3&#45;&gt;Node6</title>
<g id="a_edge5_Node000003_Node000006"><a xlink:title=" ">
<path fill="none" stroke="#63b8ff" d="M439.02,-526.51C457.41,-521.82 478.21,-516.52 497.4,-511.62"/>
<polygon fill="#63b8ff" stroke="#63b8ff" points="498.19,-515.03 507.01,-509.17 496.46,-508.25 498.19,-515.03"/>
</a>
</g>
</g>
<!-- Node19 -->
<g id="Node000019" class="node">
<title>Node19</title>
<g id="a_Node000019"><a xlink:href="kest__button_8c.html#abe862422fc2d6cb221112645f26e29bd" target="_top" xlink:title=" ">
<polygon fill="white" stroke="#666666" points="622.38,-459.89 503.62,-459.89 503.62,-426.39 622.38,-426.39 622.38,-459.89"/>
<text xml:space="preserve" text-anchor="start" x="511.62" y="-446.39" font-family="Helvetica,sans-Serif" font-size="10.00">kest_button_add_sub</text>
<text xml:space="preserve" text-anchor="middle" x="563" y="-433.64" font-family="Helvetica,sans-Serif" font-size="10.00">_button</text>
</a>
</g>
</g>
<!-- Node3&#45;&gt;Node19 -->
<g id="edge6_Node000003_Node000019" class="edge">
<title>Node3&#45;&gt;Node19</title>
<g id="a_edge6_Node000003_Node000019"><a xlink:title=" ">
<path fill="none" stroke="#63b8ff" d="M435.53,-523.04C440.62,-520.41 445.55,-517.45 450,-514.14 470.54,-498.84 465.05,-483.87 486,-469.14 488.35,-467.49 490.8,-465.94 493.34,-464.48"/>
<polygon fill="#63b8ff" stroke="#63b8ff" points="494.81,-467.66 502.12,-459.98 491.62,-461.43 494.81,-467.66"/>
</a>
</g>
</g>
<!-- Node20 -->
<g id="Node000020" class="node">
<title>Node20</title>
<g id="a_Node000020"><a xlink:href="kest__button_8c.html#a247699a53218b0986f4149b42ecd3ae4" target="_top" xlink:title=" ">
<polygon fill="white" stroke="#666666" points="612.62,-280.51 513.38,-280.51 513.38,-259.76 612.62,-259.76 612.62,-280.51"/>
<text xml:space="preserve" text-anchor="middle" x="563" y="-267.01" font-family="Helvetica,sans-Serif" font-size="10.00">kest_button_hide</text>
</a>
</g>
</g>
<!-- Node3&#45;&gt;Node20 -->
<g id="edge7_Node000003_Node000020" class="edge">
<title>Node3&#45;&gt;Node20</title>
<g id="a_edge7_Node000003_Node000020"><a xlink:title=" ">
<path fill="none" stroke="#63b8ff" d="M439.23,-523.8C443.26,-521.06 446.94,-517.86 450,-514.14 503.78,-448.78 441.13,-398.9 486,-327.14 496.61,-310.16 514.25,-296.47 529.87,-286.76"/>
<polygon fill="#63b8ff" stroke="#63b8ff" points="531.59,-289.81 538.44,-281.73 528.04,-283.77 531.59,-289.81"/>
</a>
</g>
</g>
<!-- Node21 -->
<g id="Node000021" class="node">
<title>Node21</title>
<g id="a_Node000021"><a xlink:href="kest__button_8c.html#a8fdf6d6ae9b23100afda9fc1b7c9c985" target="_top" xlink:title=" ">
<polygon fill="white" stroke="#666666" points="637,-626.51 489,-626.51 489,-605.76 637,-605.76 637,-626.51"/>
<text xml:space="preserve" text-anchor="middle" x="563" y="-613.01" font-family="Helvetica,sans-Serif" font-size="10.00">kest_button_set_alignment</text>
</a>
</g>
</g>
<!-- Node3&#45;&gt;Node21 -->
<g id="edge8_Node000003_Node000021" class="edge">
<title>Node3&#45;&gt;Node21</title>
<g id="a_edge8_Node000003_Node000021"><a xlink:title=" ">
<path fill="none" stroke="#63b8ff" d="M415.29,-557.22C434.94,-568.11 461.51,-582.02 486,-592.14 494.45,-595.63 503.61,-598.92 512.54,-601.88"/>
<polygon fill="#63b8ff" stroke="#63b8ff" points="511.23,-605.14 521.83,-604.86 513.37,-598.47 511.23,-605.14"/>
</a>
</g>
</g>
<!-- Node22 -->
<g id="Node000022" class="node">
<title>Node22</title>
<g id="a_Node000022"><a xlink:href="kest__button_8c.html#ac24f7930db96a5006a81ec8255ad0e6c" target="_top" xlink:title=" ">
<polygon fill="white" stroke="#666666" points="624.25,-241.51 501.75,-241.51 501.75,-220.76 624.25,-220.76 624.25,-241.51"/>
<text xml:space="preserve" text-anchor="middle" x="563" y="-228.01" font-family="Helvetica,sans-Serif" font-size="10.00">kest_button_set_label</text>
</a>
</g>
</g>
<!-- Node3&#45;&gt;Node22 -->
<g id="edge9_Node000003_Node000022" class="edge">
<title>Node3&#45;&gt;Node22</title>
<g id="a_edge9_Node000003_Node000022"><a xlink:title=" ">
<path fill="none" stroke="#63b8ff" d="M439.15,-524.18C443.25,-521.36 446.96,-518.04 450,-514.14 522.47,-421.04 407.79,-339.46 486,-251.14 487.9,-248.99 490,-247.07 492.25,-245.33"/>
<polygon fill="#63b8ff" stroke="#63b8ff" points="493.63,-248.59 500.32,-240.37 489.97,-242.63 493.63,-248.59"/>
</a>
</g>
</g>
<!-- Node24 -->
<g id="Node000024" class="node">
<title>Node24</title>
<g id="a_Node000024"><a xlink:href="kest__button_8c.html#acb9de2f6034f6759c09358b5444db480" target="_top" xlink:title=" ">
<polygon fill="white" stroke="#666666" points="622,-665.51 504,-665.51 504,-644.76 622,-644.76 622,-665.51"/>
<text xml:space="preserve" text-anchor="middle" x="563" y="-652.01" font-family="Helvetica,sans-Serif" font-size="10.00">kest_button_set_size</text>
</a>
</g>
</g>
<!-- Node3&#45;&gt;Node24 -->
<g id="edge11_Node000003_Node000024" class="edge">
<title>Node3&#45;&gt;Node24</title>
<g id="a_edge11_Node000003_Node000024"><a xlink:title=" ">
<path fill="none" stroke="#63b8ff" d="M401.54,-557.1C424.7,-581.46 467.02,-624.58 486,-635.14 489.44,-637.05 493.08,-638.79 496.81,-640.37"/>
<polygon fill="#63b8ff" stroke="#63b8ff" points="495.54,-643.63 506.13,-643.86 497.99,-637.07 495.54,-643.63"/>
</a>
</g>
</g>
<!-- Node25 -->
<g id="Node000025" class="node">
<title>Node25</title>
<g id="a_Node000025"><a xlink:href="kest__button_8c.html#afd8846ca469218a65279da29ad72e29b" target="_top" xlink:title=" ">
<polygon fill="white" stroke="#666666" points="599.5,-550.51 526.5,-550.51 526.5,-529.76 599.5,-529.76 599.5,-550.51"/>
<text xml:space="preserve" text-anchor="middle" x="563" y="-537.01" font-family="Helvetica,sans-Serif" font-size="10.00">new_button</text>
</a>
</g>
</g>
<!-- Node3&#45;&gt;Node25 -->
<g id="edge12_Node000003_Node000025" class="edge">
<title>Node3&#45;&gt;Node25</title>
<g id="a_edge12_Node000003_Node000025"><a xlink:title=" ">
<path fill="none" stroke="#63b8ff" d="M439.02,-540.14C463.13,-540.14 491.38,-540.14 514.72,-540.14"/>
<polygon fill="#63b8ff" stroke="#63b8ff" points="514.57,-543.64 524.57,-540.14 514.57,-536.64 514.57,-543.64"/>
</a>
</g>
</g>
<!-- Node23 -->
<g id="Node000023" class="node">
<title>Node23</title>
<g id="a_Node000023"><a xlink:href="kest__button_8c.html#a56b5c7012f627d4d3f454029e26f1bef" target="_top" xlink:title=" ">
<polygon fill="white" stroke="#666666" points="797.75,-209.89 688.75,-209.89 688.75,-176.39 797.75,-176.39 797.75,-209.89"/>
<text xml:space="preserve" text-anchor="start" x="696.75" y="-196.39" font-family="Helvetica,sans-Serif" font-size="10.00">kest_button_create</text>
<text xml:space="preserve" text-anchor="middle" x="743.25" y="-183.64" font-family="Helvetica,sans-Serif" font-size="10.00">_label_ui</text>
</a>
</g>
</g>
<!-- Node22&#45;&gt;Node23 -->
<g id="edge10_Node000022_Node000023" class="edge">
<title>Node22&#45;&gt;Node23</title>
<g id="a_edge10_Node000022_Node000023"><a xlink:title=" ">
<path fill="none" stroke="#63b8ff" d="M614.6,-220.35C634.06,-216.2 656.54,-211.41 677.17,-207.01"/>
<polygon fill="#63b8ff" stroke="#63b8ff" points="677.88,-210.44 686.93,-204.93 676.42,-203.59 677.88,-210.44"/>
</a>
</g>
</g>
<!-- Node25&#45;&gt;Node5 -->
<g id="edge13_Node000025_Node000005" class="edge">
<title>Node25&#45;&gt;Node5</title>
<g id="a_edge13_Node000025_Node000005"><a xlink:title=" ">
<path fill="none" stroke="#63b8ff" d="M599.64,-547.74C627.84,-553.75 667.37,-562.18 697.66,-568.63"/>
<polygon fill="#63b8ff" stroke="#63b8ff" points="696.79,-572.03 707.3,-570.69 698.25,-565.18 696.79,-572.03"/>
</a>
</g>
</g>
<!-- Node25&#45;&gt;Node26 -->
<g id="edge14_Node000025_Node000026" class="edge">
<title>Node25&#45;&gt;Node26</title>
<g id="a_edge14_Node000025_Node000026"><a xlink:title=" ">
<path fill="none" stroke="#63b8ff" d="M599.9,-535.96C613.24,-533.21 628.02,-528.67 640,-521.14 681.51,-495.05 714.4,-446.44 730.82,-418.78"/>
<polygon fill="#63b8ff" stroke="#63b8ff" points="733.75,-420.7 735.71,-410.29 727.68,-417.21 733.75,-420.7"/>
</a>
</g>
</g>
<!-- Node27&#45;&gt;Node21 -->
<g id="edge17_Node000027_Node000021" class="edge">
<title>Node27&#45;&gt;Node21</title>
<g id="a_edge17_Node000027_Node000021"><a xlink:title=" ">
<path fill="none" stroke="#63b8ff" d="M439.02,-629.39C451.1,-628.09 464.21,-626.67 477.23,-625.27"/>
<polygon fill="#63b8ff" stroke="#63b8ff" points="477.54,-628.76 487.1,-624.21 476.79,-621.8 477.54,-628.76"/>
</a>
</g>
</g>
<!-- Node27&#45;&gt;Node24 -->
<g id="edge18_Node000027_Node000024" class="edge">
<title>Node27&#45;&gt;Node24</title>
<g id="a_edge18_Node000027_Node000024"><a xlink:title=" ">
<path fill="none" stroke="#63b8ff" d="M439.02,-641.19C455.74,-643.09 474.44,-645.21 492.12,-647.21"/>
<polygon fill="#63b8ff" stroke="#63b8ff" points="491.72,-650.69 502.05,-648.34 492.51,-643.74 491.72,-650.69"/>
</a>
</g>
</g>
<!-- Node13 -->
<g id="Node000013" class="node">
<title>Node13</title>
<g id="a_Node000013"><a xlink:href="kest__button_8c.html#ab7fe55b3f96297fce8392af5ccfe1ae4" target="_top" xlink:title=" ">
<polygon fill="white" stroke="#666666" points="630.25,-755.89 495.75,-755.89 495.75,-722.39 630.25,-722.39 630.25,-755.89"/>
<text xml:space="preserve" text-anchor="start" x="503.75" y="-742.39" font-family="Helvetica,sans-Serif" font-size="10.00">kest_active_button</text>
<text xml:space="preserve" text-anchor="middle" x="563" y="-729.64" font-family="Helvetica,sans-Serif" font-size="10.00">_array_index_y_position</text>
</a>
</g>
</g>
<!-- Node27&#45;&gt;Node13 -->
<g id="edge16_Node000027_Node000013" class="edge">
<title>Node27&#45;&gt;Node13</title>
<g id="a_edge16_Node000027_Node000013"><a xlink:title=" ">
<path fill="none" stroke="#63b8ff" d="M403.56,-652.09C422.7,-669.43 454.54,-696.15 486,-713.14 488.82,-714.66 491.74,-716.12 494.73,-717.51"/>
<polygon fill="#63b8ff" stroke="#63b8ff" points="493.13,-720.63 503.69,-721.4 495.91,-714.21 493.13,-720.63"/>
</a>
</g>
</g>
<!-- Node28&#45;&gt;Node4 -->
<g id="edge20_Node000028_Node000004" class="edge">
<title>Node28&#45;&gt;Node4</title>
<g id="a_edge20_Node000028_Node000004"><a xlink:title=" ">
<path fill="none" stroke="#63b8ff" d="M387.91,-896.34C395.49,-863.32 422.94,-763.01 486,-713.14 487.72,-711.78 489.53,-710.51 491.4,-709.34"/>
<polygon fill="#63b8ff" stroke="#63b8ff" points="492.67,-712.62 499.9,-704.88 489.42,-706.42 492.67,-712.62"/>
</a>
</g>
</g>
<!-- Node28&#45;&gt;Node5 -->
<g id="edge24_Node000028_Node000005" class="edge">
<title>Node28&#45;&gt;Node5</title>
<g id="a_edge24_Node000028_Node000005"><a xlink:title=" ">
<path fill="none" stroke="#63b8ff" d="M389.9,-917.88C401.05,-944.17 433.79,-1011.49 486,-1037.14 547.43,-1067.32 586.6,-1079.95 640,-1037.14 709.91,-981.09 735.1,-683.73 740.87,-600.06"/>
<polygon fill="#63b8ff" stroke="#63b8ff" points="744.35,-600.45 741.52,-590.24 737.37,-599.99 744.35,-600.45"/>
</a>
</g>
</g>
<!-- Node29 -->
<g id="Node000029" class="node">
<title>Node29</title>
<g id="a_Node000029"><a xlink:href="kest__button_8c.html#a83cf55aa097bd9144aa25c7296221deb" target="_top" xlink:title=" ">
<polygon fill="white" stroke="#666666" points="640,-976.51 486,-976.51 486,-955.76 640,-955.76 640,-976.51"/>
<text xml:space="preserve" text-anchor="middle" x="563" y="-963.01" font-family="Helvetica,sans-Serif" font-size="10.00">button_set_long_pressed_cb</text>
</a>
</g>
</g>
<!-- Node28&#45;&gt;Node29 -->
<g id="edge21_Node000028_Node000029" class="edge">
<title>Node28&#45;&gt;Node29</title>
<g id="a_edge21_Node000028_Node000029"><a xlink:title=" ">
<path fill="none" stroke="#63b8ff" d="M410.92,-917.88C431.04,-926.21 460.04,-937.71 486,-946.14 492.64,-948.3 499.67,-950.39 506.66,-952.36"/>
<polygon fill="#63b8ff" stroke="#63b8ff" points="505.52,-955.68 516.09,-954.94 507.37,-948.93 505.52,-955.68"/>
</a>
</g>
</g>
<!-- Node30 -->
<g id="Node000030" class="node">
<title>Node30</title>
<g id="a_Node000030"><a xlink:href="kest__button_8c.html#af00d79cf42f9b296fbb6027daacc8fb9" target="_top" xlink:title=" ">
<polygon fill="white" stroke="#666666" points="628.38,-937.51 497.62,-937.51 497.62,-916.76 628.38,-916.76 628.38,-937.51"/>
<text xml:space="preserve" text-anchor="middle" x="563" y="-924.01" font-family="Helvetica,sans-Serif" font-size="10.00">button_set_pressing_cb</text>
</a>
</g>
</g>
<!-- Node28&#45;&gt;Node30 -->
<g id="edge22_Node000028_Node000030" class="edge">
<title>Node28&#45;&gt;Node30</title>
<g id="a_edge22_Node000028_Node000030"><a xlink:title=" ">
<path fill="none" stroke="#63b8ff" d="M449.3,-914.36C461.24,-915.71 473.82,-917.14 486.09,-918.53"/>
<polygon fill="#63b8ff" stroke="#63b8ff" points="485.4,-921.97 495.73,-919.62 486.19,-915.02 485.4,-921.97"/>
</a>
</g>
</g>
<!-- Node31 -->
<g id="Node000031" class="node">
<title>Node31</title>
<g id="a_Node000031"><a xlink:href="kest__button_8c.html#a88c9b098c88d8bd3adc510cc34130a67" target="_top" xlink:title=" ">
<polygon fill="white" stroke="#666666" points="628.75,-898.51 497.25,-898.51 497.25,-877.76 628.75,-877.76 628.75,-898.51"/>
<text xml:space="preserve" text-anchor="middle" x="563" y="-885.01" font-family="Helvetica,sans-Serif" font-size="10.00">button_set_released_cb</text>
</a>
</g>
</g>
<!-- Node28&#45;&gt;Node31 -->
<g id="edge23_Node000028_Node000031" class="edge">
<title>Node28&#45;&gt;Node31</title>
<g id="a_edge23_Node000028_Node000031"><a xlink:title=" ">
<path fill="none" stroke="#63b8ff" d="M449.3,-900.28C461.16,-899 473.66,-897.65 485.86,-896.34"/>
<polygon fill="#63b8ff" stroke="#63b8ff" points="485.86,-899.86 495.43,-895.31 485.11,-892.9 485.86,-899.86"/>
</a>
</g>
</g>
<!-- Node32 -->
<g id="Node000032" class="node">
<title>Node32</title>
<g id="a_Node000032"><a xlink:href="kest__button_8c.html#a29023886dc241d5e52af656d2e8f7077" target="_top" xlink:title=" ">
<polygon fill="white" stroke="#666666" points="617.12,-859.89 508.88,-859.89 508.88,-826.39 617.12,-826.39 617.12,-859.89"/>
<text xml:space="preserve" text-anchor="start" x="516.88" y="-846.39" font-family="Helvetica,sans-Serif" font-size="10.00">kest_active_button</text>
<text xml:space="preserve" text-anchor="middle" x="563" y="-833.64" font-family="Helvetica,sans-Serif" font-size="10.00">_clicked_cb</text>
</a>
</g>
</g>
<!-- Node28&#45;&gt;Node32 -->
<g id="edge25_Node000028_Node000032" class="edge">
<title>Node28&#45;&gt;Node32</title>
<g id="a_edge25_Node000028_Node000032"><a xlink:title=" ">
<path fill="none" stroke="#63b8ff" d="M413.23,-896.41C433.34,-888.67 461.28,-878.04 486,-869.14 490.7,-867.44 495.58,-865.71 500.49,-863.99"/>
<polygon fill="#63b8ff" stroke="#63b8ff" points="501.51,-867.34 509.8,-860.75 499.2,-860.73 501.51,-867.34"/>
</a>
</g>
</g>
<!-- Node33 -->
<g id="Node000033" class="node">
<title>Node33</title>
<g id="a_Node000033"><a xlink:href="kest__button_8c.html#af4a8a2f9042aae51caf39056d3ae1972" target="_top" xlink:title=" ">
<polygon fill="#fff0f0" stroke="red" points="617.12,-807.89 508.88,-807.89 508.88,-774.39 617.12,-774.39 617.12,-807.89"/>
<text xml:space="preserve" text-anchor="start" x="516.88" y="-794.39" font-family="Helvetica,sans-Serif" font-size="10.00">kest_active_button</text>
<text xml:space="preserve" text-anchor="middle" x="563" y="-781.64" font-family="Helvetica,sans-Serif" font-size="10.00">_long_pressed_cb</text>
</a>
</g>
</g>
<!-- Node28&#45;&gt;Node33 -->
<g id="edge26_Node000028_Node000033" class="edge">
<title>Node28&#45;&gt;Node33</title>
<g id="a_edge26_Node000028_Node000033"><a xlink:title=" ">
<path fill="none" stroke="#63b8ff" d="M394.81,-896.47C411.31,-877.9 447.84,-839.51 486,-817.14 489.82,-814.9 493.85,-812.82 498,-810.89"/>
<polygon fill="#63b8ff" stroke="#63b8ff" points="499.26,-814.16 507.07,-806.99 496.5,-807.72 499.26,-814.16"/>
</a>
</g>
</g>
<!-- Node39 -->
<g id="Node000039" class="node">
<title>Node39</title>
<g id="a_Node000039"><a xlink:href="kest__button_8c.html#a5e8684adc8c5fbe7944b7cc188cd7b2c" target="_top" xlink:title=" ">
<polygon fill="#fff0f0" stroke="red" points="617.12,-1117.89 508.88,-1117.89 508.88,-1084.39 617.12,-1084.39 617.12,-1117.89"/>
<text xml:space="preserve" text-anchor="start" x="516.88" y="-1104.39" font-family="Helvetica,sans-Serif" font-size="10.00">kest_active_button</text>
<text xml:space="preserve" text-anchor="middle" x="563" y="-1091.64" font-family="Helvetica,sans-Serif" font-size="10.00">_pressing_cb</text>
</a>
</g>
</g>
<!-- Node28&#45;&gt;Node39 -->
<g id="edge27_Node000028_Node000039" class="edge">
<title>Node28&#45;&gt;Node39</title>
<g id="a_edge27_Node000028_Node000039"><a xlink:title=" ">
<path fill="none" stroke="#63b8ff" d="M389.48,-917.88C400.28,-946.54 433.52,-1025.66 486,-1070.14 489.83,-1073.39 494.05,-1076.33 498.48,-1078.99"/>
<polygon fill="#63b8ff" stroke="#63b8ff" points="496.64,-1081.97 507.1,-1083.64 499.96,-1075.81 496.64,-1081.97"/>
</a>
</g>
</g>
<!-- Node40 -->
<g id="Node000040" class="node">
<title>Node40</title>
<g id="a_Node000040"><a xlink:href="kest__button_8c.html#abd7f68ebcde411086bd7fa11eb96564b" target="_top" xlink:title=" ">
<polygon fill="#fff0f0" stroke="red" points="617.12,-1027.89 508.88,-1027.89 508.88,-994.39 617.12,-994.39 617.12,-1027.89"/>
<text xml:space="preserve" text-anchor="start" x="516.88" y="-1014.39" font-family="Helvetica,sans-Serif" font-size="10.00">kest_active_button</text>
<text xml:space="preserve" text-anchor="middle" x="563" y="-1001.64" font-family="Helvetica,sans-Serif" font-size="10.00">_release_cb</text>
</a>
</g>
</g>
<!-- Node28&#45;&gt;Node40 -->
<g id="edge28_Node000028_Node000040" class="edge">
<title>Node28&#45;&gt;Node40</title>
<g id="a_edge28_Node000028_Node000040"><a xlink:title=" ">
<path fill="none" stroke="#63b8ff" d="M396.79,-917.87C414.44,-934.34 450.46,-965.95 486,-985.14 489.89,-987.24 493.99,-989.22 498.17,-991.08"/>
<polygon fill="#63b8ff" stroke="#63b8ff" points="496.73,-994.27 507.31,-994.86 499.41,-987.8 496.73,-994.27"/>
</a>
</g>
</g>
<!-- Node46 -->
<g id="Node000046" class="node">
<title>Node46</title>
<g id="a_Node000046"><a xlink:href="kest__button_8c.html#a42c4bb920da57000dbde4fa1fa26868c" target="_top" xlink:title=" ">
<polygon fill="white" stroke="#666666" points="433.5,-408.51 335.75,-408.51 335.75,-387.76 433.5,-387.76 433.5,-408.51"/>
<text xml:space="preserve" text-anchor="middle" x="384.62" y="-395.01" font-family="Helvetica,sans-Serif" font-size="10.00">create_button_ui</text>
</a>
</g>
</g>
<!-- Node45&#45;&gt;Node46 -->
<g id="edge32_Node000045_Node000046" class="edge">
<title>Node45&#45;&gt;Node46</title>
<g id="a_edge32_Node000045_Node000046"><a xlink:title=" ">
<path fill="none" stroke="#63b8ff" d="M251.87,-430.83C276.16,-424.8 304.84,-417.69 329.23,-411.64"/>
<polygon fill="#63b8ff" stroke="#63b8ff" points="329.77,-415.11 338.63,-409.3 328.08,-408.31 329.77,-415.11"/>
</a>
</g>
</g>
<!-- Node46&#45;&gt;Node46 -->
<g id="edge33_Node000046_Node000046" class="edge">
<title>Node46&#45;&gt;Node46</title>
<g id="a_edge33_Node000046_Node000046"><a xlink:title=" ">
<path fill="none" stroke="#63b8ff" d="M355.88,-408.91C344.39,-417.57 353.97,-426.51 384.62,-426.51 401.39,-426.51 411.85,-423.84 416.01,-420"/>
<polygon fill="#63b8ff" stroke="#63b8ff" points="419.44,-419.3 413.72,-410.38 412.63,-420.92 419.44,-419.3"/>
</a>
</g>
</g>
<!-- Node49&#45;&gt;Node26 -->
<g id="edge37_Node000049_Node000026" class="edge">
<title>Node49&#45;&gt;Node26</title>
<g id="a_edge37_Node000049_Node000026"><a xlink:title=" ">
<path fill="none" stroke="#63b8ff" d="M274.83,-298.81C364.83,-290.68 517.42,-285.84 640,-327.14 672.38,-338.05 703.77,-362.57 723.04,-379.72"/>
<polygon fill="#63b8ff" stroke="#63b8ff" points="720.63,-382.26 730.36,-386.44 725.36,-377.1 720.63,-382.26"/>
</a>
</g>
</g>
<!-- Node50 -->
<g id="Node000050" class="node">
<title>Node50</title>
<g id="a_Node000050"><a xlink:href="kest__sequence_8c.html#abb62e308c5b4830b09a802084718cb2d" target="_top" xlink:title=" ">
<polygon fill="white" stroke="#666666" points="448.12,-369.89 321.12,-369.89 321.12,-336.39 448.12,-336.39 448.12,-369.89"/>
<text xml:space="preserve" text-anchor="start" x="329.12" y="-356.39" font-family="Helvetica,sans-Serif" font-size="10.00">kest_sequence_update</text>
<text xml:space="preserve" text-anchor="middle" x="384.62" y="-343.64" font-family="Helvetica,sans-Serif" font-size="10.00">_representations</text>
</a>
</g>
</g>
<!-- Node49&#45;&gt;Node50 -->
<g id="edge38_Node000049_Node000050" class="edge">
<title>Node49&#45;&gt;Node50</title>
<g id="a_edge38_Node000049_Node000050"><a xlink:title=" ">
<path fill="none" stroke="#63b8ff" d="M244.6,-318.93C257.15,-321.88 270.73,-325.11 283.25,-328.14 291.78,-330.2 300.71,-332.39 309.58,-334.58"/>
<polygon fill="#63b8ff" stroke="#63b8ff" points="308.72,-337.97 319.27,-336.98 310.41,-331.18 308.72,-337.97"/>
</a>
</g>
</g>
<!-- Node51 -->
<g id="Node000051" class="node">
<title>Node51</title>
<g id="a_Node000051"><a xlink:href="kest__representation_8c.html#a7a4a0f32b72f47d90e3d0f5932fbe58f" target="_top" xlink:title=" ">
<polygon fill="white" stroke="#666666" points="624.25,-369.89 501.75,-369.89 501.75,-336.39 624.25,-336.39 624.25,-369.89"/>
<text xml:space="preserve" text-anchor="start" x="509.75" y="-356.39" font-family="Helvetica,sans-Serif" font-size="10.00">queue_representation</text>
<text xml:space="preserve" text-anchor="middle" x="563" y="-343.64" font-family="Helvetica,sans-Serif" font-size="10.00">_list_update</text>
</a>
</g>
</g>
<!-- Node50&#45;&gt;Node51 -->
<g id="edge39_Node000050_Node000051" class="edge">
<title>Node50&#45;&gt;Node51</title>
<g id="a_edge39_Node000050_Node000051"><a xlink:title=" ">
<path fill="none" stroke="#63b8ff" d="M448.3,-353.14C461.76,-353.14 476.09,-353.14 489.88,-353.14"/>
<polygon fill="#63b8ff" stroke="#63b8ff" points="489.78,-356.64 499.78,-353.14 489.78,-349.64 489.78,-356.64"/>
</a>
</g>
</g>
<!-- Node53 -->
<g id="Node000053" class="node">
<title>Node53</title>
<g id="a_Node000053"><a xlink:href="kest__button_8c.html#a9899cf8789d635db3bb8b1d4c514e140" target="_top" xlink:title=" ">
<polygon fill="white" stroke="#666666" points="438.75,-247.89 330.5,-247.89 330.5,-214.39 438.75,-214.39 438.75,-247.89"/>
<text xml:space="preserve" text-anchor="start" x="338.5" y="-234.39" font-family="Helvetica,sans-Serif" font-size="10.00">kest_active_button</text>
<text xml:space="preserve" text-anchor="middle" x="384.62" y="-221.64" font-family="Helvetica,sans-Serif" font-size="10.00">_change_label</text>
</a>
</g>
</g>
<!-- Node52&#45;&gt;Node53 -->
<g id="edge41_Node000052_Node000053" class="edge">
<title>Node52&#45;&gt;Node53</title>
<g id="a_edge41_Node000052_Node000053"><a xlink:title=" ">
<path fill="none" stroke="#63b8ff" d="M261.01,-213.94C279.71,-216.56 300.24,-219.44 319.05,-222.08"/>
<polygon fill="#63b8ff" stroke="#63b8ff" points="318.32,-225.51 328.71,-223.44 319.29,-218.58 318.32,-225.51"/>
</a>
</g>
</g>
<!-- Node54 -->
<g id="Node000054" class="node">
<title>Node54</title>
<g id="a_Node000054"><a xlink:href="kest__button_8c.html#ab3d484ae52f7d01018eba300e3fe4e1f" target="_top" xlink:title=" ">
<polygon fill="white" stroke="#666666" points="438.75,-195.89 330.5,-195.89 330.5,-162.39 438.75,-162.39 438.75,-195.89"/>
<text xml:space="preserve" text-anchor="start" x="338.5" y="-182.39" font-family="Helvetica,sans-Serif" font-size="10.00">kest_active_button</text>
<text xml:space="preserve" text-anchor="middle" x="384.62" y="-169.64" font-family="Helvetica,sans-Serif" font-size="10.00">_reset_del_button</text>
</a>
</g>
</g>
<!-- Node52&#45;&gt;Node54 -->
<g id="edge43_Node000052_Node000054" class="edge">
<title>Node52&#45;&gt;Node54</title>
<g id="a_edge43_Node000052_Node000054"><a xlink:title=" ">
<path fill="none" stroke="#63b8ff" d="M261.01,-196.34C279.71,-193.71 300.24,-190.83 319.05,-188.2"/>
<polygon fill="#63b8ff" stroke="#63b8ff" points="319.29,-191.7 328.71,-186.84 318.32,-184.76 319.29,-191.7"/>
</a>
</g>
</g>
<!-- Node57 -->
<g id="Node000057" class="node">
<title>Node57</title>
<g id="a_Node000057"><a xlink:href="kest__button_8c.html#ab59ebaba4ff87ed51677e73ba4aac2ef" target="_top" xlink:title=" ">
<polygon fill="#fff0f0" stroke="red" points="450,-111.26 319.25,-111.26 319.25,-65.01 450,-65.01 450,-111.26"/>
<text xml:space="preserve" text-anchor="start" x="327.25" y="-97.76" font-family="Helvetica,sans-Serif" font-size="10.00">kest_active_button</text>
<text xml:space="preserve" text-anchor="start" x="327.25" y="-85.01" font-family="Helvetica,sans-Serif" font-size="10.00">_swap_del_button_for</text>
<text xml:space="preserve" text-anchor="middle" x="384.62" y="-72.26" font-family="Helvetica,sans-Serif" font-size="10.00">_persistent_unclickable</text>
</a>
</g>
</g>
<!-- Node52&#45;&gt;Node57 -->
<g id="edge51_Node000052_Node000057" class="edge">
<title>Node52&#45;&gt;Node57</title>
<g id="a_edge51_Node000052_Node000057"><a xlink:title=" ">
<path fill="none" stroke="#63b8ff" d="M225.21,-188.13C254.39,-169.7 301.5,-139.97 336.77,-117.71"/>
<polygon fill="#63b8ff" stroke="#63b8ff" points="338.51,-120.75 345.1,-112.45 334.78,-114.83 338.51,-120.75"/>
</a>
</g>
</g>
<!-- Node53&#45;&gt;Node22 -->
<g id="edge42_Node000053_Node000022" class="edge">
<title>Node53&#45;&gt;Node22</title>
<g id="a_edge42_Node000053_Node000022"><a xlink:title=" ">
<path fill="none" stroke="#63b8ff" d="M439.02,-231.14C455.16,-231.14 473.14,-231.14 490.27,-231.14"/>
<polygon fill="#63b8ff" stroke="#63b8ff" points="489.86,-234.64 499.86,-231.14 489.86,-227.64 489.86,-234.64"/>
</a>
</g>
</g>
<!-- Node54&#45;&gt;Node20 -->
<g id="edge47_Node000054_Node000020" class="edge">
<title>Node54&#45;&gt;Node20</title>
<g id="a_edge47_Node000054_Node000020"><a xlink:title=" ">
<path fill="none" stroke="#63b8ff" d="M435.53,-196.24C440.62,-198.87 445.55,-201.83 450,-205.14 470.54,-220.43 464.53,-236.17 486,-250.14 491.08,-253.44 496.67,-256.2 502.46,-258.5"/>
<polygon fill="#63b8ff" stroke="#63b8ff" points="500.99,-261.69 511.59,-261.68 503.29,-255.08 500.99,-261.69"/>
</a>
</g>
</g>
<!-- Node54&#45;&gt;Node22 -->
<g id="edge50_Node000054_Node000022" class="edge">
<title>Node54&#45;&gt;Node22</title>
<g id="a_edge50_Node000054_Node000022"><a xlink:title=" ">
<path fill="none" stroke="#63b8ff" d="M439.02,-194.88C462.98,-201.95 491.03,-210.21 514.28,-217.07"/>
<polygon fill="#63b8ff" stroke="#63b8ff" points="513.23,-220.41 523.81,-219.88 515.21,-213.7 513.23,-220.41"/>
</a>
</g>
</g>
<!-- Node54&#45;&gt;Node23 -->
<g id="edge46_Node000054_Node000023" class="edge">
<title>Node54&#45;&gt;Node23</title>
<g id="a_edge46_Node000054_Node000023"><a xlink:title=" ">
<path fill="none" stroke="#63b8ff" d="M439.02,-181.23C502.57,-183.73 608.67,-187.89 677.03,-190.58"/>
<polygon fill="#63b8ff" stroke="#63b8ff" points="676.85,-194.07 686.98,-190.97 677.13,-187.08 676.85,-194.07"/>
</a>
</g>
</g>
<!-- Node35 -->
<g id="Node000035" class="node">
<title>Node35</title>
<g id="a_Node000035"><a xlink:href="kest__button_8c.html#acef3a5e0199ca168471154fc981f4931" target="_top" xlink:title=" ">
<polygon fill="white" stroke="#666666" points="621.25,-126.89 504.75,-126.89 504.75,-93.39 621.25,-93.39 621.25,-126.89"/>
<text xml:space="preserve" text-anchor="start" x="512.75" y="-113.39" font-family="Helvetica,sans-Serif" font-size="10.00">kest_active_button</text>
<text xml:space="preserve" text-anchor="middle" x="563" y="-100.64" font-family="Helvetica,sans-Serif" font-size="10.00">_del_button_fade_cb</text>
</a>
</g>
</g>
<!-- Node54&#45;&gt;Node35 -->
<g id="edge44_Node000054_Node000035" class="edge">
<title>Node54&#45;&gt;Node35</title>
<g id="a_edge44_Node000054_Node000035"><a xlink:title=" ">
<path fill="none" stroke="#63b8ff" d="M423.96,-161.92C442.55,-153.77 465.3,-144.1 486,-136.14 490.32,-134.48 494.8,-132.81 499.32,-131.16"/>
<polygon fill="#63b8ff" stroke="#63b8ff" points="500.23,-134.56 508.47,-127.89 497.87,-127.96 500.23,-134.56"/>
</a>
</g>
</g>
<!-- Node55 -->
<g id="Node000055" class="node">
<title>Node55</title>
<g id="a_Node000055"><a xlink:href="kest__button_8c.html#ad480fe803983ae07bbf32f7930d9f467" target="_top" xlink:title=" ">
<polygon fill="white" stroke="#666666" points="629.5,-75.51 496.5,-75.51 496.5,-54.76 629.5,-54.76 629.5,-75.51"/>
<text xml:space="preserve" text-anchor="middle" x="563" y="-62.01" font-family="Helvetica,sans-Serif" font-size="10.00">kest_button_reset_state</text>
</a>
</g>
</g>
<!-- Node54&#45;&gt;Node55 -->
<g id="edge48_Node000054_Node000055" class="edge">
<title>Node54&#45;&gt;Node55</title>
<g id="a_edge48_Node000054_Node000055"><a xlink:title=" ">
<path fill="none" stroke="#63b8ff" d="M404.7,-162.06C417.62,-150.39 435,-134.5 450,-120.14 466.34,-104.49 466.31,-95.29 486,-84.14 488.63,-82.65 491.37,-81.28 494.19,-80.01"/>
<polygon fill="#63b8ff" stroke="#63b8ff" points="495.24,-83.36 503.25,-76.43 492.67,-76.85 495.24,-83.36"/>
</a>
</g>
</g>
<!-- Node56 -->
<g id="Node000056" class="node">
<title>Node56</title>
<g id="a_Node000056"><a xlink:href="kest__button_8c.html#a88fd3b166bca9400285d9f8cbd52d081" target="_top" xlink:title=" ">
<polygon fill="white" stroke="#666666" points="634,-165.51 492,-165.51 492,-144.76 634,-144.76 634,-165.51"/>
<text xml:space="preserve" text-anchor="middle" x="563" y="-152.01" font-family="Helvetica,sans-Serif" font-size="10.00">kest_button_set_clickable</text>
</a>
</g>
</g>
<!-- Node54&#45;&gt;Node56 -->
<g id="edge49_Node000054_Node000056" class="edge">
<title>Node54&#45;&gt;Node56</title>
<g id="a_edge49_Node000054_Node000056"><a xlink:title=" ">
<path fill="none" stroke="#63b8ff" d="M439.02,-171.87C452.06,-170.1 466.31,-168.16 480.34,-166.25"/>
<polygon fill="#63b8ff" stroke="#63b8ff" points="480.58,-169.75 490.01,-164.93 479.63,-162.81 480.58,-169.75"/>
</a>
</g>
</g>
<!-- Node9 -->
<g id="Node000009" class="node">
<title>Node9</title>
<g id="a_Node000009"><a xlink:href="kest__button_8c.html#a2835584385bb5d418a3ca596aa0ef5b1" target="_top" xlink:title=" ">
<polygon fill="white" stroke="#666666" points="810.5,-60.51 676,-60.51 676,-39.76 810.5,-39.76 810.5,-60.51"/>
<text xml:space="preserve" text-anchor="middle" x="743.25" y="-47.01" font-family="Helvetica,sans-Serif" font-size="10.00">kest_button_set_opacity</text>
</a>
</g>
</g>
<!-- Node35&#45;&gt;Node9 -->
<g id="edge45_Node000035_Node000009" class="edge">
<title>Node35&#45;&gt;Node9</title>
<g id="a_edge45_Node000035_Node000009"><a xlink:title=" ">
<path fill="none" stroke="#63b8ff" d="M615.08,-92.94C641.69,-83.99 673.88,-73.15 699.22,-64.62"/>
<polygon fill="#63b8ff" stroke="#63b8ff" points="700.18,-67.99 708.54,-61.49 697.94,-61.36 700.18,-67.99"/>
</a>
</g>
</g>
<!-- Node57&#45;&gt;Node22 -->
<g id="edge55_Node000057_Node000022" class="edge">
<title>Node57&#45;&gt;Node22</title>
<g id="a_edge55_Node000057_Node000022"><a xlink:title=" ">
<path fill="none" stroke="#63b8ff" d="M412.07,-111.61C432.08,-129.18 460.4,-153.61 486,-174.14 502.99,-187.77 522.68,-202.5 537.76,-213.58"/>
<polygon fill="#63b8ff" stroke="#63b8ff" points="535.57,-216.31 545.71,-219.39 539.7,-210.66 535.57,-216.31"/>
</a>
</g>
</g>
<!-- Node57&#45;&gt;Node23 -->
<g id="edge53_Node000057_Node000023" class="edge">
<title>Node57&#45;&gt;Node23</title>
<g id="a_edge53_Node000057_Node000023"><a xlink:title=" ">
<path fill="none" stroke="#63b8ff" d="M431.04,-64.53C484.1,-40.46 573.16,-11.21 640,-46.14 688.11,-71.28 718.16,-130.51 732.4,-165.63"/>
<polygon fill="#63b8ff" stroke="#63b8ff" points="729.04,-166.65 735.93,-174.7 735.57,-164.11 729.04,-166.65"/>
</a>
</g>
</g>
<!-- Node57&#45;&gt;Node35 -->
<g id="edge52_Node000057_Node000035" class="edge">
<title>Node57&#45;&gt;Node35</title>
<g id="a_edge52_Node000057_Node000035"><a xlink:title=" ">
<path fill="none" stroke="#63b8ff" d="M450.3,-96.21C464.26,-97.95 479.08,-99.79 493.19,-101.56"/>
<polygon fill="#63b8ff" stroke="#63b8ff" points="492.47,-104.99 502.83,-102.76 493.34,-98.05 492.47,-104.99"/>
</a>
</g>
</g>
<!-- Node57&#45;&gt;Node9 -->
<g id="edge56_Node000057_Node000009" class="edge">
<title>Node57&#45;&gt;Node9</title>
<g id="a_edge56_Node000057_Node000009"><a xlink:title=" ">
<path fill="none" stroke="#63b8ff" d="M407.83,-64.78C426.67,-46.77 455.45,-23.29 486,-13.14 550.95,8.45 572.58,-1.32 640,-13.14 663.89,-17.33 689.56,-26.63 709.2,-34.86"/>
<polygon fill="#63b8ff" stroke="#63b8ff" points="707.77,-38.06 718.34,-38.81 710.55,-31.63 707.77,-38.06"/>
</a>
</g>
</g>
<!-- Node57&#45;&gt;Node55 -->
<g id="edge54_Node000057_Node000055" class="edge">
<title>Node57&#45;&gt;Node55</title>
<g id="a_edge54_Node000057_Node000055"><a xlink:title=" ">
<path fill="none" stroke="#63b8ff" d="M450.3,-79.7C461.51,-78.24 473.26,-76.71 484.76,-75.21"/>
<polygon fill="#63b8ff" stroke="#63b8ff" points="485.19,-78.68 494.65,-73.92 484.28,-71.74 485.19,-78.68"/>
</a>
</g>
</g>
</g>
</svg>
