<?xml version="1.0" encoding="UTF-8" standalone="no"?>
<!DOCTYPE svg PUBLIC "-//W3C//DTD SVG 1.1//EN"
 "http://www.w3.org/Graphics/SVG/1.1/DTD/svg11.dtd">
<!-- Generated by graphviz version 13.1.2 (20250808.2320)
 -->
<!-- Title: token_is_name Pages: 1 -->
<!--zoomable 236 -->

<svg id="main" version="1.1" xmlns="http://www.w3.org/2000/svg" xmlns:xlink="http://www.w3.org/1999/xlink" xml:space="preserve" onload="init(evt)">

<style type="text/css"><![CDATA[
.node, .edge {opacity: 0.7;}
.node.selected, .edge.selected {opacity: 1;}
.edge:hover path { stroke: red; }
.edge:hover polygon { stroke: red; fill: red; }
]]></style>

<defs>
  <circle id="rim" cx="0" cy="0" r="7"/>
  <circle id="rim2" cx="0" cy="0" r="3.5"/>
  <g id="zoomPlus">
    <use xlink:href="#rim" fill="#404040"><set attributeName="fill" to="#808080" begin="zoomplus.mouseover" end="zoomplus.mouseout"/></use>
    <path d="M-4,0h8M0,-4v8" fill="none" stroke="white" stroke-width="1.5" pointer-events="none"/>
  </g>
  <g id="zoomMin">
    <use xlink:href="#rim" fill="#404040"><set attributeName="fill" to="#808080" begin="zoomminus.mouseover" end="zoomminus.mouseout"/></use>
    <path d="M-4,0h8" fill="none" stroke="white" stroke-width="1.5" pointer-events="none"/>
  </g>
  <g id="arrowUp" transform="translate(30 24)">
    <use xlink:href="#rim"/>
    <path pointer-events="none" fill="none" stroke="white" stroke-width="1.5" d="M0,-3.0v7 M-2.5,-0.5L0,-3.0L2.5,-0.5"/>
  </g>
  <g id="arrowRight" transform="rotate(90) translate(36 -43)">
    <use xlink:href="#rim"/>
    <path pointer-events="none" fill="none" stroke="white" stroke-width="1.5" d="M0,-3.0v7 M-2.5,-0.5L0,-3.0L2.5,-0.5"/>
  </g>
  <g id="arrowDown" transform="rotate(180) translate(-30 -48)">
    <use xlink:href="#rim"/>
    <path pointer-events="none" fill="none" stroke="white" stroke-width="1.5" d="M0,-3.0v7 M-2.5,-0.5L0,-3.0L2.5,-0.5"/>
  </g>
  <g id="arrowLeft" transform="rotate(270) translate(-36 17)">
    <use xlink:href="#rim"/>
    <path pointer-events="none" fill="none" stroke="white" stroke-width="1.5" d="M0,-3.0v7 M-2.5,-0.5L0,-3.0L2.5,-0.5"/>
  </g>
  <g id="resetDef">
    <use xlink:href="#rim2" fill="#404040"><set attributeName="fill" to="#808080" begin="reset.mouseover" end="reset.mouseout"/></use>
  </g>
</defs>
<script type="application/ecmascript">
var viewWidth = 747;
var viewHeight = 236;
var sectionId = 'dynsection-14';
</script>
<script type="application/ecmascript" xlink:href="svg.min.js"/>
<svg id="graph" class="graph">
<g id="viewport">
<title>token_is_name</title>
<!-- Node1 -->
<g id="Node000001" class="node">
<title>Node1</title>
<g id="a_Node000001"><a xlink:title=" ">
<polygon fill="#999999" stroke="#666666" points="739.25,-122.75 649.75,-122.75 649.75,-102 739.25,-102 739.25,-122.75"/>
<text xml:space="preserve" text-anchor="middle" x="694.5" y="-109.25" font-family="Helvetica,sans-Serif" font-size="10.00">token_is_name</text>
</a>
</g>
</g>
<!-- Node2 -->
<g id="Node000002" class="node">
<title>Node2</title>
<g id="a_Node000002"><a xlink:href="kest__dictionary_8c.html#aae3fbdeba250be8f6dd3dfa686eb24a8" target="_top" xlink:title=" ">
<polygon fill="white" stroke="#666666" points="448.5,-176.75 326,-176.75 326,-156 448.5,-156 448.5,-176.75"/>
<text xml:space="preserve" text-anchor="middle" x="387.25" y="-163.25" font-family="Helvetica,sans-Serif" font-size="10.00">kest_parse_dictionary</text>
</a>
</g>
</g>
<!-- Node1&#45;&gt;Node2 -->
<g id="edge1_Node000001_Node000002" class="edge">
<title>Node1&#45;&gt;Node2</title>
<g id="a_edge1_Node000001_Node000002"><a xlink:title=" ">
<path fill="none" stroke="#63b8ff" d="M638.14,-122.17C584.71,-131.62 504.02,-145.89 448.88,-155.65"/>
<polygon fill="#63b8ff" stroke="#63b8ff" points="638.71,-125.62 647.95,-120.43 637.49,-118.73 638.71,-125.62"/>
</a>
</g>
</g>
<!-- Node6 -->
<g id="Node000006" class="node">
<title>Node6</title>
<g id="a_Node000006"><a xlink:href="kest__dictionary_8c.html#ad65da740536ab47c17ff688051be0661" target="_top" xlink:title=" ">
<polygon fill="white" stroke="#666666" points="450.38,-110.75 324.12,-110.75 324.12,-90 450.38,-90 450.38,-110.75"/>
<text xml:space="preserve" text-anchor="middle" x="387.25" y="-97.25" font-family="Helvetica,sans-Serif" font-size="10.00">kest_parse_eff_entries</text>
</a>
</g>
</g>
<!-- Node1&#45;&gt;Node6 -->
<g id="edge7_Node000001_Node000006" class="edge">
<title>Node1&#45;&gt;Node6</title>
<g id="a_edge7_Node000001_Node000006"><a xlink:title=" ">
<path fill="none" stroke="#63b8ff" d="M637.94,-110.19C585.13,-108.11 505.84,-105 450.84,-102.84"/>
<polygon fill="#63b8ff" stroke="#63b8ff" points="637.8,-113.69 647.93,-110.58 638.07,-106.69 637.8,-113.69"/>
</a>
</g>
</g>
<!-- Node29 -->
<g id="Node000029" class="node">
<title>Node29</title>
<g id="a_Node000029"><a xlink:href="kest__expr__parser_8c.html#adf0188b23902aff2ddacb388e811412e" target="_top" xlink:title=" ">
<polygon fill="white" stroke="#666666" points="613.75,-66.12 486.75,-66.12 486.75,-32.62 613.75,-32.62 613.75,-66.12"/>
<text xml:space="preserve" text-anchor="start" x="494.75" y="-52.62" font-family="Helvetica,sans-Serif" font-size="10.00">kest_parse_expression</text>
<text xml:space="preserve" text-anchor="middle" x="550.25" y="-39.88" font-family="Helvetica,sans-Serif" font-size="10.00">_rec_pratt</text>
</a>
</g>
</g>
<!-- Node1&#45;&gt;Node29 -->
<g id="edge14_Node000001_Node000029" class="edge">
<title>Node1&#45;&gt;Node29</title>
<g id="a_edge14_Node000001_Node000029"><a xlink:title=" ">
<path fill="none" stroke="#63b8ff" d="M658.76,-96.99C638,-87.79 611.57,-76.09 590.11,-66.59"/>
<polygon fill="#63b8ff" stroke="#63b8ff" points="657.1,-100.08 667.66,-100.93 659.94,-93.68 657.1,-100.08"/>
</a>
</g>
</g>
<!-- Node3 -->
<g id="Node000003" class="node">
<title>Node3</title>
<g id="a_Node000003"><a xlink:href="kest__dictionary_8c.html#af0aceaa93cba06fd44ad4bc50f2418e4" target="_top" xlink:title=" ">
<polygon fill="white" stroke="#666666" points="273.88,-176.75 161.88,-176.75 161.88,-156 273.88,-156 273.88,-176.75"/>
<text xml:space="preserve" text-anchor="middle" x="217.88" y="-163.25" font-family="Helvetica,sans-Serif" font-size="10.00">kest_parse_dict_val</text>
</a>
</g>
</g>
<!-- Node2&#45;&gt;Node3 -->
<g id="edge2_Node000002_Node000003" class="edge">
<title>Node2&#45;&gt;Node3</title>
<g id="a_edge2_Node000002_Node000003"><a xlink:title=" ">
<path fill="none" stroke="#63b8ff" d="M314.6,-159.69C301.08,-159.55 287.13,-159.64 274.2,-159.98"/>
<polygon fill="#63b8ff" stroke="#63b8ff" points="314.26,-163.18 324.31,-159.84 314.37,-156.18 314.26,-163.18"/>
</a>
</g>
</g>
<!-- Node5 -->
<g id="Node000005" class="node">
<title>Node5</title>
<g id="a_Node000005"><a xlink:href="kest__eff__section_8c.html#a4de28fb64398c9194136a2ced71e2795" target="_top" xlink:title=" ">
<polygon fill="white" stroke="#666666" points="279.12,-228.12 156.62,-228.12 156.62,-194.62 279.12,-194.62 279.12,-228.12"/>
<text xml:space="preserve" text-anchor="start" x="164.62" y="-214.62" font-family="Helvetica,sans-Serif" font-size="10.00">kest_parse_dictionary</text>
<text xml:space="preserve" text-anchor="middle" x="217.88" y="-201.88" font-family="Helvetica,sans-Serif" font-size="10.00">_section</text>
</a>
</g>
</g>
<!-- Node2&#45;&gt;Node5 -->
<g id="edge6_Node000002_Node000005" class="edge">
<title>Node2&#45;&gt;Node5</title>
<g id="a_edge6_Node000002_Node000005"><a xlink:title=" ">
<path fill="none" stroke="#63b8ff" d="M335.52,-180.02C317.89,-184.76 297.93,-190.12 279.58,-195.05"/>
<polygon fill="#63b8ff" stroke="#63b8ff" points="335.95,-183.52 344.7,-177.55 334.13,-176.76 335.95,-183.52"/>
</a>
</g>
</g>
<!-- Node3&#45;&gt;Node2 -->
<g id="edge5_Node000003_Node000002" class="edge">
<title>Node3&#45;&gt;Node2</title>
<g id="a_edge5_Node000003_Node000002"><a xlink:title=" ">
<path fill="none" stroke="#63b8ff" d="M285.67,-173C298.93,-173.2 312.79,-173.16 325.82,-172.89"/>
<polygon fill="#63b8ff" stroke="#63b8ff" points="285.78,-169.5 275.71,-172.8 285.64,-176.5 285.78,-169.5"/>
</a>
</g>
</g>
<!-- Node4 -->
<g id="Node000004" class="node">
<title>Node4</title>
<g id="a_Node000004"><a xlink:href="kest__dictionary_8c.html#a8db4f9c511b00d7240052135e9c1ed67" target="_top" xlink:title=" ">
<polygon fill="white" stroke="#666666" points="112,-176.75 0,-176.75 0,-156 112,-156 112,-176.75"/>
<text xml:space="preserve" text-anchor="middle" x="56" y="-163.25" font-family="Helvetica,sans-Serif" font-size="10.00">kest_parse_dict_list</text>
</a>
</g>
</g>
<!-- Node3&#45;&gt;Node4 -->
<g id="edge3_Node000003_Node000004" class="edge">
<title>Node3&#45;&gt;Node4</title>
<g id="a_edge3_Node000003_Node000004"><a xlink:title=" ">
<path fill="none" stroke="#63b8ff" d="M150.05,-159.71C137.5,-159.55 124.52,-159.62 112.37,-159.92"/>
<polygon fill="#63b8ff" stroke="#63b8ff" points="149.83,-163.2 159.89,-159.89 149.96,-156.2 149.83,-163.2"/>
</a>
</g>
</g>
<!-- Node4&#45;&gt;Node3 -->
<g id="edge4_Node000004_Node000003" class="edge">
<title>Node4&#45;&gt;Node3</title>
<g id="a_edge4_Node000004_Node000003"><a xlink:title=" ">
<path fill="none" stroke="#63b8ff" d="M123.73,-173.04C136.27,-173.2 149.25,-173.13 161.41,-172.84"/>
<polygon fill="#63b8ff" stroke="#63b8ff" points="123.95,-169.55 113.88,-172.86 123.82,-176.54 123.95,-169.55"/>
</a>
</g>
</g>
<!-- Node7 -->
<g id="Node000007" class="node">
<title>Node7</title>
<g id="a_Node000007"><a xlink:href="kest__dictionary_8c.html#a14917e2fe112ccf5a9d740cd2ce4f518" target="_top" xlink:title=" ">
<polygon fill="white" stroke="#666666" points="276.88,-98.75 158.88,-98.75 158.88,-78 276.88,-78 276.88,-98.75"/>
<text xml:space="preserve" text-anchor="middle" x="217.88" y="-85.25" font-family="Helvetica,sans-Serif" font-size="10.00">kest_parse_eff_entry</text>
</a>
</g>
</g>
<!-- Node6&#45;&gt;Node7 -->
<g id="edge8_Node000006_Node000007" class="edge">
<title>Node6&#45;&gt;Node7</title>
<g id="a_edge8_Node000006_Node000007"><a xlink:title=" ">
<path fill="none" stroke="#63b8ff" d="M314.53,-88.54C302.09,-87.52 289.29,-86.68 277.25,-86.09"/>
<polygon fill="#63b8ff" stroke="#63b8ff" points="314.05,-92.02 324.32,-89.4 314.66,-85.04 314.05,-92.02"/>
</a>
</g>
</g>
<!-- Node9 -->
<g id="Node000009" class="node">
<title>Node9</title>
<g id="a_Node000009"><a xlink:href="kest__eff__section_8c.html#ad4021e5516f9b19f0af658e1c5ee351f" target="_top" xlink:title=" ">
<polygon fill="white" stroke="#666666" points="287.75,-137.75 148,-137.75 148,-117 287.75,-117 287.75,-137.75"/>
<text xml:space="preserve" text-anchor="middle" x="217.88" y="-124.25" font-family="Helvetica,sans-Serif" font-size="10.00">kest_parse_entry_section</text>
</a>
</g>
</g>
<!-- Node6&#45;&gt;Node9 -->
<g id="edge12_Node000006_Node000009" class="edge">
<title>Node6&#45;&gt;Node9</title>
<g id="a_edge12_Node000006_Node000009"><a xlink:title=" ">
<path fill="none" stroke="#63b8ff" d="M312.77,-112.23C303.87,-113.66 294.82,-115.12 286.02,-116.54"/>
<polygon fill="#63b8ff" stroke="#63b8ff" points="313.12,-115.72 322.43,-110.67 312,-108.81 313.12,-115.72"/>
</a>
</g>
</g>
<!-- Node7&#45;&gt;Node6 -->
<g id="edge9_Node000007_Node000006" class="edge">
<title>Node7&#45;&gt;Node6</title>
<g id="a_edge9_Node000007_Node000006"><a xlink:title=" ">
<path fill="none" stroke="#63b8ff" d="M288.49,-100.03C300.24,-101.02 312.37,-101.85 323.93,-102.46"/>
<polygon fill="#63b8ff" stroke="#63b8ff" points="289.15,-96.58 278.88,-99.17 288.53,-103.55 289.15,-96.58"/>
</a>
</g>
</g>
<!-- Node8 -->
<g id="Node000008" class="node">
<title>Node8</title>
<g id="a_Node000008"><a xlink:href="kest__dictionary_8c.html#adbdc0847f0c5b25d81691833ad42a8f0" target="_top" xlink:title=" ">
<polygon fill="white" stroke="#666666" points="109.75,-98.75 2.25,-98.75 2.25,-78 109.75,-78 109.75,-98.75"/>
<text xml:space="preserve" text-anchor="middle" x="56" y="-85.25" font-family="Helvetica,sans-Serif" font-size="10.00">kest_parse_eff_list</text>
</a>
</g>
</g>
<!-- Node7&#45;&gt;Node8 -->
<g id="edge10_Node000007_Node000008" class="edge">
<title>Node7&#45;&gt;Node8</title>
<g id="a_edge10_Node000007_Node000008"><a xlink:title=" ">
<path fill="none" stroke="#63b8ff" d="M147.36,-81.68C134.86,-81.55 122.02,-81.65 110.09,-81.98"/>
<polygon fill="#63b8ff" stroke="#63b8ff" points="147.14,-85.17 157.19,-81.83 147.25,-78.17 147.14,-85.17"/>
</a>
</g>
</g>
<!-- Node8&#45;&gt;Node7 -->
<g id="edge11_Node000008_Node000007" class="edge">
<title>Node8&#45;&gt;Node7</title>
<g id="a_edge11_Node000008_Node000007"><a xlink:title=" ">
<path fill="none" stroke="#63b8ff" d="M121.27,-95.01C133.64,-95.19 146.54,-95.16 158.7,-94.9"/>
<polygon fill="#63b8ff" stroke="#63b8ff" points="121.67,-91.52 111.6,-94.81 121.52,-98.51 121.67,-91.52"/>
</a>
</g>
</g>
<!-- Node10 -->
<g id="Node000010" class="node">
<title>Node10</title>
<g id="a_Node000010"><a xlink:href="kest__eff__parser_8c.html#a73ef6962d1925857ec3e4b12d1aad834" target="_top" xlink:title=" ">
<polygon fill="#fff0f0" stroke="red" points="109,-137.75 3,-137.75 3,-117 109,-117 109,-137.75"/>
<text xml:space="preserve" text-anchor="middle" x="56" y="-124.25" font-family="Helvetica,sans-Serif" font-size="10.00">kest_parse_tokens</text>
</a>
</g>
</g>
<!-- Node9&#45;&gt;Node10 -->
<g id="edge13_Node000009_Node000010" class="edge">
<title>Node9&#45;&gt;Node10</title>
<g id="a_edge13_Node000009_Node000010"><a xlink:title=" ">
<path fill="none" stroke="#63b8ff" d="M136.19,-127.38C127.1,-127.38 118.02,-127.38 109.43,-127.38"/>
<polygon fill="#63b8ff" stroke="#63b8ff" points="136.17,-130.88 146.17,-127.38 136.17,-123.88 136.17,-130.88"/>
</a>
</g>
</g>
<!-- Node29&#45;&gt;Node29 -->
<g id="edge20_Node000029_Node000029" class="edge">
<title>Node29&#45;&gt;Node29</title>
<g id="a_edge20_Node000029_Node000029"><a xlink:title=" ">
<path fill="none" stroke="#63b8ff" d="M574.13,-77.84C570.07,-81.62 562.11,-84.12 550.25,-84.12 528.56,-84.12 519.91,-75.74 524.32,-66.54"/>
<polygon fill="#63b8ff" stroke="#63b8ff" points="577.57,-78.49 575.91,-68.03 570.68,-77.24 577.57,-78.49"/>
</a>
</g>
</g>
<!-- Node30 -->
<g id="Node000030" class="node">
<title>Node30</title>
<g id="a_Node000030"><a xlink:href="kest__expr__parser_8c.html#a7caaee6c8b0c14b3ff08fba98d837ead" target="_top" xlink:title=" ">
<polygon fill="white" stroke="#666666" points="450.75,-59.75 323.75,-59.75 323.75,-39 450.75,-39 450.75,-59.75"/>
<text xml:space="preserve" text-anchor="middle" x="387.25" y="-46.25" font-family="Helvetica,sans-Serif" font-size="10.00">kest_parse_expression</text>
</a>
</g>
</g>
<!-- Node29&#45;&gt;Node30 -->
<g id="edge15_Node000029_Node000030" class="edge">
<title>Node29&#45;&gt;Node30</title>
<g id="a_edge15_Node000029_Node000030"><a xlink:title=" ">
<path fill="none" stroke="#63b8ff" d="M475.22,-49.38C467.14,-49.38 458.97,-49.38 451.05,-49.38"/>
<polygon fill="#63b8ff" stroke="#63b8ff" points="475.03,-52.88 485.03,-49.38 475.03,-45.88 475.03,-52.88"/>
</a>
</g>
</g>
<!-- Node30&#45;&gt;Node3 -->
<g id="edge18_Node000030_Node000003" class="edge">
<title>Node30&#45;&gt;Node3</title>
<g id="a_edge18_Node000030_Node000003"><a xlink:title=" ">
<path fill="none" stroke="#63b8ff" d="M346.4,-65.29C338.3,-69.7 330.28,-75.06 323.75,-81.38 300.02,-104.34 313.56,-125.77 287.75,-146.38 283.08,-150.1 277.74,-153.14 272.14,-155.61"/>
<polygon fill="#63b8ff" stroke="#63b8ff" points="347.85,-68.48 355.23,-60.88 344.72,-62.22 347.85,-68.48"/>
</a>
</g>
</g>
<!-- Node30&#45;&gt;Node7 -->
<g id="edge19_Node000030_Node000007" class="edge">
<title>Node30&#45;&gt;Node7</title>
<g id="a_edge19_Node000030_Node000007"><a xlink:title=" ">
<path fill="none" stroke="#63b8ff" d="M328.48,-62.84C307.92,-67.63 285.05,-72.96 265.54,-77.5"/>
<polygon fill="#63b8ff" stroke="#63b8ff" points="329.21,-66.26 338.15,-60.58 327.62,-59.44 329.21,-66.26"/>
</a>
</g>
</g>
<!-- Node31 -->
<g id="Node000031" class="node">
<title>Node31</title>
<g id="a_Node000031"><a xlink:href="kest__asm__parser_8c.html#a975cb5ec55968124f930a9a35fe564c5" target="_top" xlink:title=" ">
<polygon fill="white" stroke="#666666" points="275.75,-59.75 160,-59.75 160,-39 275.75,-39 275.75,-59.75"/>
<text xml:space="preserve" text-anchor="middle" x="217.88" y="-46.25" font-family="Helvetica,sans-Serif" font-size="10.00">kest_parse_asm_arg</text>
</a>
</g>
</g>
<!-- Node30&#45;&gt;Node31 -->
<g id="edge16_Node000030_Node000031" class="edge">
<title>Node30&#45;&gt;Node31</title>
<g id="a_edge16_Node000030_Node000031"><a xlink:title=" ">
<path fill="none" stroke="#63b8ff" d="M312.05,-49.38C300.04,-49.38 287.76,-49.38 276.23,-49.38"/>
<polygon fill="#63b8ff" stroke="#63b8ff" points="311.94,-52.88 321.94,-49.38 311.94,-45.88 311.94,-52.88"/>
</a>
</g>
</g>
<!-- Node32 -->
<g id="Node000032" class="node">
<title>Node32</title>
<g id="a_Node000032"><a xlink:href="kest__asm__parser_8c.html#a93fe9789a6b0162607601862f5fa9c8c" target="_top" xlink:title=" ">
<polygon fill="#fff0f0" stroke="red" points="281.38,-20.75 154.38,-20.75 154.38,0 281.38,0 281.38,-20.75"/>
<text xml:space="preserve" text-anchor="middle" x="217.88" y="-7.25" font-family="Helvetica,sans-Serif" font-size="10.00">kest_parse_asm_arg_2</text>
</a>
</g>
</g>
<!-- Node30&#45;&gt;Node32 -->
<g id="edge17_Node000030_Node000032" class="edge">
<title>Node30&#45;&gt;Node32</title>
<g id="a_edge17_Node000030_Node000032"><a xlink:title=" ">
<path fill="none" stroke="#63b8ff" d="M328.48,-35.91C307.92,-31.12 285.05,-25.79 265.54,-21.25"/>
<polygon fill="#63b8ff" stroke="#63b8ff" points="327.62,-39.31 338.15,-38.17 329.21,-32.49 327.62,-39.31"/>
</a>
</g>
</g>
</g>
</svg>

<g id="navigator" transform="translate(0 0)" fill="#404254">
  <rect fill="#f2f5e9" fill-opacity="0.5" stroke="#606060" stroke-width=".5" x="0" y="0" width="60" height="60"/>
  <use id="zoomplus" xlink:href="#zoomPlus" x="17" y="9" onmousedown="handleZoom(evt,'in')"/>
  <use id="zoomminus" xlink:href="#zoomMin" x="42" y="9" onmousedown="handleZoom(evt,'out')"/>
  <use id="reset" xlink:href="#resetDef" x="30" y="36" onmousedown="handleReset()"/>
   <use id="arrowup" xlink:href="#arrowUp" x="0" y="0" onmousedown="handlePan(0,-1)"/>
  <use id="arrowright" xlink:href="#arrowRight" x="0" y="0" onmousedown="handlePan(1,0)"/>
  <use id="arrowdown" xlink:href="#arrowDown" x="0" y="0" onmousedown="handlePan(0,1)"/>
  <use id="arrowleft" xlink:href="#arrowLeft" x="0" y="0" onmousedown="handlePan(-1,0)"/>
</g>
<svg viewBox="0 0 15 15" width="100%" height="30px" preserveAspectRatio="xMaxYMin meet">
 <g id="arrow_out" transform="scale(0.3 0.3)">
  <a xlink:href="kest__tokenizer_8h_a713c477a645ef8a6abfd4cb4e257b53c_icgraph_org.svg" target="_base">
   <rect id="button" ry="5" rx="5" y="6" x="6" height="38" width="38"
        fill="#f2f5e9" fill-opacity="0.5" stroke="#606060" stroke-width="1.0"/>
   <path id="arrow"
     d="M 11.500037,31.436501 C 11.940474,20.09759 22.043105,11.32322 32.158766,21.979434 L 37.068811,17.246167 C 37.068811,17.246167 37.088388,32 37.088388,32 L 22.160133,31.978069 C 22.160133,31.978069 26.997745,27.140456 26.997745,27.140456 C 18.528582,18.264221 13.291696,25.230495 11.500037,31.436501 z"
     style="fill:#404040;"/>
  </a>
 </g>
</svg>

<style type='text/css'>
<![CDATA[
[data-mouse-over-selected='false'] { opacity: 0.7; }
[data-mouse-over-selected='true']  { opacity: 1.0; }
]]>
</style>
<script type="application/ecmascript"><![CDATA[
document.addEventListener('DOMContentLoaded', (event) => {
  highlightEdges();
  highlightAdjacentNodes();
});
]]></script>
</svg>
