<?xml version="1.0" encoding="UTF-8" standalone="no"?>
<!DOCTYPE svg PUBLIC "-//W3C//DTD SVG 1.1//EN"
 "http://www.w3.org/Graphics/SVG/1.1/DTD/svg11.dtd">
<!-- Generated by graphviz version 13.1.2 (20250808.2320)
 -->
<!-- Title: kest_fpga_command_to_string_ Pages: 1 -->
<!--zoomable 208 -->

<svg id="main" version="1.1" xmlns="http://www.w3.org/2000/svg" xmlns:xlink="http://www.w3.org/1999/xlink" xml:space="preserve" onload="init(evt)">

<style type="text/css"><![CDATA[
.node, .edge {opacity: 0.7;}
.node.selected, .edge.selected {opacity: 1;}
.edge:hover path { stroke: red; }
.edge:hover polygon { stroke: red; fill: red; }
]]></style>

<defs>
  <circle id="rim" cx="0" cy="0" r="7"/>
  <circle id="rim2" cx="0" cy="0" r="3.5"/>
  <g id="zoomPlus">
    <use xlink:href="#rim" fill="#404040"><set attributeName="fill" to="#808080" begin="zoomplus.mouseover" end="zoomplus.mouseout"/></use>
    <path d="M-4,0h8M0,-4v8" fill="none" stroke="white" stroke-width="1.5" pointer-events="none"/>
  </g>
  <g id="zoomMin">
    <use xlink:href="#rim" fill="#404040"><set attributeName="fill" to="#808080" begin="zoomminus.mouseover" end="zoomminus.mouseout"/></use>
    <path d="M-4,0h8" fill="none" stroke="white" stroke-width="1.5" pointer-events="none"/>
  </g>
  <g id="arrowUp" transform="translate(30 24)">
    <use xlink:href="#rim"/>
    <path pointer-events="none" fill="none" stroke="white" stroke-width="1.5" d="M0,-3.0v7 M-2.5,-0.5L0,-3.0L2.5,-0.5"/>
  </g>
  <g id="arrowRight" transform="rotate(90) translate(36 -43)">
    <use xlink:href="#rim"/>
    <path pointer-events="none" fill="none" stroke="white" stroke-width="1.5" d="M0,-3.0v7 M-2.5,-0.5L0,-3.0L2.5,-0.5"/>
  </g>
  <g id="arrowDown" transform="rotate(180) translate(-30 -48)">
    <use xlink:href="#rim"/>
    <path pointer-events="none" fill="none" stroke="white" stroke-width="1.5" d="M0,-3.0v7 M-2.5,-0.5L0,-3.0L2.5,-0.5"/>
  </g>
  <g id="arrowLeft" transform="rotate(270) translate(-36 17)">
    <use xlink:href="#rim"/>
    <path pointer-events="none" fill="none" stroke="white" stroke-width="1.5" d="M0,-3.0v7 M-2.5,-0.5L0,-3.0L2.5,-0.5"/>
  </g>
  <g id="resetDef">
    <use xlink:href="#rim2" fill="#404040"><set attributeName="fill" to="#808080" begin="reset.mouseover" end="reset.mouseout"/></use>
  </g>
</defs>
<script type="application/ecmascript">
var viewWidth = 978;
var viewHeight = 208;
var sectionId = 'dynsection-9';
</script>
<script type="application/ecmascript" xlink:href="svg.min.js"/>
<svg id="graph" class="graph">
<g id="viewport">
<title>kest_fpga_command_to_string_</title>
<!-- Node1 -->
<g id="Node000001" class="node">
<title>Node1</title>
<g id="a_Node000001"><a xlink:title=" ">
<polygon fill="#999999" stroke="#666666" points="132.25,-116.54 0,-116.54 0,-83.04 132.25,-83.04 132.25,-116.54"/>
<text xml:space="preserve" text-anchor="start" x="8" y="-103.04" font-family="Helvetica,sans-Serif" font-size="10.00">kest_fpga_command_to</text>
<text xml:space="preserve" text-anchor="middle" x="66.12" y="-90.29" font-family="Helvetica,sans-Serif" font-size="10.00">_string_</text>
</a>
</g>
</g>
<!-- Node2 -->
<g id="Node000002" class="node">
<title>Node2</title>
<g id="a_Node000002"><a xlink:href="kest__fpga__cmd_8c.html#a1a1501e2223a5cddbecfb2b92c9d9705" target="_top" xlink:title=" ">
<polygon fill="white" stroke="#666666" points="300.5,-199.54 168.25,-199.54 168.25,-166.04 300.5,-166.04 300.5,-199.54"/>
<text xml:space="preserve" text-anchor="start" x="176.25" y="-186.04" font-family="Helvetica,sans-Serif" font-size="10.00">kest_fpga_command_to</text>
<text xml:space="preserve" text-anchor="middle" x="234.38" y="-173.29" font-family="Helvetica,sans-Serif" font-size="10.00">_string</text>
</a>
</g>
</g>
<!-- Node1&#45;&gt;Node2 -->
<g id="edge1_Node000001_Node000002" class="edge">
<title>Node1&#45;&gt;Node2</title>
<g id="a_edge1_Node000001_Node000002"><a xlink:title=" ">
<path fill="none" stroke="#63b8ff" d="M99.79,-116.91C119.53,-127.18 145.25,-140.41 168.25,-151.79 174.15,-154.71 180.36,-157.74 186.52,-160.7"/>
<polygon fill="#63b8ff" stroke="#63b8ff" points="184.87,-163.79 195.4,-164.96 187.9,-157.48 184.87,-163.79"/>
</a>
</g>
</g>
<!-- Node3 -->
<g id="Node000003" class="node">
<title>Node3</title>
<g id="a_Node000003"><a xlink:href="kest__fpga__instr_8c.html#a332dd47f4fc03bf2b8b10bfe7a55d6e3" target="_top" xlink:title=" ">
<polygon fill="white" stroke="#666666" points="279.88,-72.17 188.88,-72.17 188.88,-51.42 279.88,-51.42 279.88,-72.17"/>
<text xml:space="preserve" text-anchor="middle" x="234.38" y="-58.67" font-family="Helvetica,sans-Serif" font-size="10.00">kest_instr_print</text>
</a>
</g>
</g>
<!-- Node1&#45;&gt;Node3 -->
<g id="edge2_Node000001_Node000003" class="edge">
<title>Node1&#45;&gt;Node3</title>
<g id="a_edge2_Node000001_Node000003"><a xlink:title=" ">
<path fill="none" stroke="#63b8ff" d="M132.35,-84.88C147.36,-81.45 163.18,-77.84 177.74,-74.51"/>
<polygon fill="#63b8ff" stroke="#63b8ff" points="178.14,-78.01 187.11,-72.37 176.58,-71.18 178.14,-78.01"/>
</a>
</g>
</g>
<!-- Node7 -->
<g id="Node000007" class="node">
<title>Node7</title>
<g id="a_Node000007"><a xlink:href="kest__string_8c.html#a2f2e64515d872efab6ae1974554b5d5c" target="_top" xlink:title=" ">
<polygon fill="white" stroke="#666666" points="803.38,-110.17 692.88,-110.17 692.88,-89.42 803.38,-89.42 803.38,-110.17"/>
<text xml:space="preserve" text-anchor="middle" x="748.12" y="-96.67" font-family="Helvetica,sans-Serif" font-size="10.00">kest_string_append</text>
</a>
</g>
</g>
<!-- Node1&#45;&gt;Node7 -->
<g id="edge10_Node000001_Node000007" class="edge">
<title>Node1&#45;&gt;Node7</title>
<g id="a_edge10_Node000001_Node000007"><a xlink:title=" ">
<path fill="none" stroke="#63b8ff" d="M132.63,-99.79C262.53,-99.79 551.37,-99.79 681.42,-99.79"/>
<polygon fill="#63b8ff" stroke="#63b8ff" points="681.24,-103.29 691.24,-99.79 681.24,-96.29 681.24,-103.29"/>
</a>
</g>
</g>
<!-- Node8 -->
<g id="Node000008" class="node">
<title>Node8</title>
<g id="a_Node000008"><a xlink:href="kest__string_8c.html#a5e8184b1f070fc74a7d1d2f08c4d9658" target="_top" xlink:title=" ">
<polygon fill="white" stroke="#666666" points="805.25,-71.17 691,-71.17 691,-50.42 805.25,-50.42 805.25,-71.17"/>
<text xml:space="preserve" text-anchor="middle" x="748.12" y="-57.67" font-family="Helvetica,sans-Serif" font-size="10.00">kest_string_appendf</text>
</a>
</g>
</g>
<!-- Node1&#45;&gt;Node8 -->
<g id="edge12_Node000001_Node000008" class="edge">
<title>Node1&#45;&gt;Node8</title>
<g id="a_edge12_Node000001_Node000008"><a xlink:title=" ">
<path fill="none" stroke="#63b8ff" d="M92.72,-82.64C112.58,-70.02 141.2,-53.3 168.25,-42.79 239.8,-15 260.24,-12.52 336.5,-3.79 469.3,11.4 625.52,-25.45 701.3,-46.83"/>
<polygon fill="#63b8ff" stroke="#63b8ff" points="700.28,-50.18 710.86,-49.57 702.21,-43.45 700.28,-50.18"/>
</a>
</g>
</g>
<!-- Node9 -->
<g id="Node000009" class="node">
<title>Node9</title>
<g id="a_Node000009"><a xlink:href="kest__string_8c.html#ab38fd4531ec8be3f9c32f467f6808951" target="_top" xlink:title=" ">
<polygon fill="white" stroke="#666666" points="969.75,-109.17 841.25,-109.17 841.25,-88.42 969.75,-88.42 969.75,-109.17"/>
<text xml:space="preserve" text-anchor="middle" x="905.5" y="-95.67" font-family="Helvetica,sans-Serif" font-size="10.00">kest_string_append_str</text>
</a>
</g>
</g>
<!-- Node1&#45;&gt;Node9 -->
<g id="edge11_Node000001_Node000009" class="edge">
<title>Node1&#45;&gt;Node9</title>
<g id="a_edge11_Node000001_Node000009"><a xlink:title=" ">
<path fill="none" stroke="#63b8ff" d="M132.75,-111.56C200.79,-122.72 310.36,-137.79 405.75,-137.79 405.75,-137.79 405.75,-137.79 585,-137.79 683.25,-137.79 707.99,-132.74 805.25,-118.79 818.17,-116.94 831.94,-114.48 844.99,-111.92"/>
<polygon fill="#63b8ff" stroke="#63b8ff" points="845.63,-115.36 854.74,-109.96 844.25,-108.5 845.63,-115.36"/>
</a>
</g>
</g>
<!-- Node4 -->
<g id="Node000004" class="node">
<title>Node4</title>
<g id="a_Node000004"><a xlink:href="kest__fpga__instr_8c.html#ab4fb8840ccc96b568228d8c7fd5e19e9" target="_top" xlink:title=" ">
<polygon fill="white" stroke="#666666" points="477,-72.17 336.5,-72.17 336.5,-51.42 477,-51.42 477,-72.17"/>
<text xml:space="preserve" text-anchor="middle" x="406.75" y="-58.67" font-family="Helvetica,sans-Serif" font-size="10.00">kest_instr_print_format_a</text>
</a>
</g>
</g>
<!-- Node3&#45;&gt;Node4 -->
<g id="edge3_Node000003_Node000004" class="edge">
<title>Node3&#45;&gt;Node4</title>
<g id="a_edge3_Node000003_Node000004"><a xlink:title=" ">
<path fill="none" stroke="#63b8ff" d="M280.14,-61.79C293.94,-61.79 309.59,-61.79 325.04,-61.79"/>
<polygon fill="#63b8ff" stroke="#63b8ff" points="324.72,-65.29 334.72,-61.79 324.72,-58.29 324.72,-65.29"/>
</a>
</g>
</g>
<!-- Node10 -->
<g id="Node000010" class="node">
<title>Node10</title>
<g id="a_Node000010"><a xlink:href="kest__fpga__instr_8c.html#aec2576e032c2113ae9feea1c210aef10" target="_top" xlink:title=" ">
<polygon fill="white" stroke="#666666" points="477,-33.17 336.5,-33.17 336.5,-12.42 477,-12.42 477,-33.17"/>
<text xml:space="preserve" text-anchor="middle" x="406.75" y="-19.67" font-family="Helvetica,sans-Serif" font-size="10.00">kest_instr_print_format_b</text>
</a>
</g>
</g>
<!-- Node3&#45;&gt;Node10 -->
<g id="edge8_Node000003_Node000010" class="edge">
<title>Node3&#45;&gt;Node10</title>
<g id="a_edge8_Node000003_Node000010"><a xlink:title=" ">
<path fill="none" stroke="#63b8ff" d="M280.14,-51.55C300.62,-46.86 325.17,-41.24 347.11,-36.22"/>
<polygon fill="#63b8ff" stroke="#63b8ff" points="347.86,-39.63 356.83,-33.99 346.3,-32.81 347.86,-39.63"/>
</a>
</g>
</g>
<!-- Node5 -->
<g id="Node000005" class="node">
<title>Node5</title>
<g id="a_Node000005"><a xlink:href="kest__fpga__instr_8c.html#ac790fdf5813c4bdab62730651e4ef160" target="_top" xlink:title=" ">
<polygon fill="#fff0f0" stroke="red" points="655,-71.17 513,-71.17 513,-50.42 655,-50.42 655,-71.17"/>
<text xml:space="preserve" text-anchor="middle" x="584" y="-57.67" font-family="Helvetica,sans-Serif" font-size="10.00">kest_instr_print_format_fr</text>
</a>
</g>
</g>
<!-- Node4&#45;&gt;Node5 -->
<g id="edge4_Node000004_Node000005" class="edge">
<title>Node4&#45;&gt;Node5</title>
<g id="a_edge4_Node000004_Node000005"><a xlink:title=" ">
<path fill="none" stroke="#63b8ff" d="M477.27,-61.4C485.19,-61.35 493.32,-61.3 501.38,-61.26"/>
<polygon fill="#63b8ff" stroke="#63b8ff" points="501.21,-64.76 511.19,-61.2 501.17,-57.76 501.21,-64.76"/>
</a>
</g>
</g>
<!-- Node5&#45;&gt;Node7 -->
<g id="edge5_Node000005_Node000007" class="edge">
<title>Node5&#45;&gt;Node7</title>
<g id="a_edge5_Node000005_Node000007"><a xlink:title=" ">
<path fill="none" stroke="#63b8ff" d="M630.16,-71.66C648.97,-76.18 671,-81.48 690.85,-86.26"/>
<polygon fill="#63b8ff" stroke="#63b8ff" points="689.91,-89.63 700.45,-88.57 691.55,-82.82 689.91,-89.63"/>
</a>
</g>
</g>
<!-- Node5&#45;&gt;Node8 -->
<g id="edge6_Node000005_Node000008" class="edge">
<title>Node5&#45;&gt;Node8</title>
<g id="a_edge6_Node000005_Node000008"><a xlink:title=" ">
<path fill="none" stroke="#63b8ff" d="M655.17,-60.79C663.1,-60.79 671.18,-60.79 679.09,-60.79"/>
<polygon fill="#63b8ff" stroke="#63b8ff" points="679,-64.29 689,-60.79 679,-57.29 679,-64.29"/>
</a>
</g>
</g>
<!-- Node8&#45;&gt;Node9 -->
<g id="edge7_Node000008_Node000009" class="edge">
<title>Node8&#45;&gt;Node9</title>
<g id="a_edge7_Node000008_Node000009"><a xlink:title=" ">
<path fill="none" stroke="#63b8ff" d="M793.23,-71.58C810.62,-75.83 830.78,-80.76 849.13,-85.25"/>
<polygon fill="#63b8ff" stroke="#63b8ff" points="848.27,-88.64 858.81,-87.62 849.93,-81.84 848.27,-88.64"/>
</a>
</g>
</g>
<!-- Node10&#45;&gt;Node5 -->
<g id="edge9_Node000010_Node000005" class="edge">
<title>Node10&#45;&gt;Node5</title>
<g id="a_edge9_Node000010_Node000005"><a xlink:title=" ">
<path fill="none" stroke="#63b8ff" d="M457.5,-33.58C477.57,-37.93 500.93,-43 522.01,-47.57"/>
<polygon fill="#63b8ff" stroke="#63b8ff" points="521.13,-50.96 531.65,-49.66 522.61,-44.12 521.13,-50.96"/>
</a>
</g>
</g>
</g>
</svg>

<g id="navigator" transform="translate(0 0)" fill="#404254">
  <rect fill="#f2f5e9" fill-opacity="0.5" stroke="#606060" stroke-width=".5" x="0" y="0" width="60" height="60"/>
  <use id="zoomplus" xlink:href="#zoomPlus" x="17" y="9" onmousedown="handleZoom(evt,'in')"/>
  <use id="zoomminus" xlink:href="#zoomMin" x="42" y="9" onmousedown="handleZoom(evt,'out')"/>
  <use id="reset" xlink:href="#resetDef" x="30" y="36" onmousedown="handleReset()"/>
   <use id="arrowup" xlink:href="#arrowUp" x="0" y="0" onmousedown="handlePan(0,-1)"/>
  <use id="arrowright" xlink:href="#arrowRight" x="0" y="0" onmousedown="handlePan(1,0)"/>
  <use id="arrowdown" xlink:href="#arrowDown" x="0" y="0" onmousedown="handlePan(0,1)"/>
  <use id="arrowleft" xlink:href="#arrowLeft" x="0" y="0" onmousedown="handlePan(-1,0)"/>
</g>
<svg viewBox="0 0 15 15" width="100%" height="30px" preserveAspectRatio="xMaxYMin meet">
 <g id="arrow_out" transform="scale(0.3 0.3)">
  <a xlink:href="kest__fpga__cmd_8h_aa21bd71f38cf39b404be6eab65e21128_cgraph_org.svg" target="_base">
   <rect id="button" ry="5" rx="5" y="6" x="6" height="38" width="38"
        fill="#f2f5e9" fill-opacity="0.5" stroke="#606060" stroke-width="1.0"/>
   <path id="arrow"
     d="M 11.500037,31.436501 C 11.940474,20.09759 22.043105,11.32322 32.158766,21.979434 L 37.068811,17.246167 C 37.068811,17.246167 37.088388,32 37.088388,32 L 22.160133,31.978069 C 22.160133,31.978069 26.997745,27.140456 26.997745,27.140456 C 18.528582,18.264221 13.291696,25.230495 11.500037,31.436501 z"
     style="fill:#404040;"/>
  </a>
 </g>
</svg>

<style type='text/css'>
<![CDATA[
[data-mouse-over-selected='false'] { opacity: 0.7; }
[data-mouse-over-selected='true']  { opacity: 1.0; }
]]>
</style>
<script type="application/ecmascript"><![CDATA[
document.addEventListener('DOMContentLoaded', (event) => {
  highlightEdges();
  highlightAdjacentNodes();
});
]]></script>
</svg>
