<?xml version="1.0" encoding="UTF-8" standalone="no"?>
<!DOCTYPE svg PUBLIC "-//W3C//DTD SVG 1.1//EN"
 "http://www.w3.org/Graphics/SVG/1.1/DTD/svg11.dtd">
<!-- Generated by graphviz version 13.1.2 (20250808.2320)
 -->
<!-- Title: kest_fpga_req_data_p Pages: 1 -->
<svg width="585pt" height="142pt"
 viewBox="0.00 0.00 585.00 142.00" xmlns="http://www.w3.org/2000/svg" xmlns:xlink="http://www.w3.org/1999/xlink">
<g id="graph0" class="graph" transform="scale(1 1) rotate(0) translate(4 138.35)">
<title>kest_fpga_req_data_p</title>
<!-- Node1 -->
<g id="Node000001" class="node">
<title>Node1</title>
<g id="a_Node000001"><a xlink:title=" ">
<polygon fill="#999999" stroke="#666666" points="122.5,-65.75 0,-65.75 0,-45 122.5,-45 122.5,-65.75"/>
<text xml:space="preserve" text-anchor="middle" x="61.25" y="-52.25" font-family="Helvetica,sans-Serif" font-size="10.00">kest_fpga_req_data_p</text>
</a>
</g>
</g>
<!-- Node2 -->
<g id="Node000002" class="node">
<title>Node2</title>
<g id="a_Node000002"><a xlink:href="kest__fpga__io_8c.html#abe57698adf89b8e9d87f4beca9077c9a" target="_top" xlink:title=" ">
<polygon fill="white" stroke="#666666" points="278,-72.12 158.5,-72.12 158.5,-38.62 278,-38.62 278,-72.12"/>
<text xml:space="preserve" text-anchor="start" x="166.5" y="-58.62" font-family="Helvetica,sans-Serif" font-size="10.00">kest_fpga_get_status</text>
<text xml:space="preserve" text-anchor="middle" x="218.25" y="-45.88" font-family="Helvetica,sans-Serif" font-size="10.00">_flags</text>
</a>
</g>
</g>
<!-- Node1&#45;&gt;Node2 -->
<g id="edge1_Node000001_Node000002" class="edge">
<title>Node1&#45;&gt;Node2</title>
<g id="a_edge1_Node000001_Node000002"><a xlink:title=" ">
<path fill="none" stroke="#63b8ff" d="M122.62,-55.38C130.54,-55.38 138.7,-55.38 146.77,-55.38"/>
<polygon fill="#63b8ff" stroke="#63b8ff" points="146.55,-58.88 156.55,-55.38 146.55,-51.88 146.55,-58.88"/>
</a>
</g>
</g>
<!-- Node6 -->
<g id="Node000006" class="node">
<title>Node6</title>
<g id="a_Node000006"><a xlink:href="kest__fpga__io_8c.html#ab14e474da760b9f53277d51557a0a9d3" target="_top" xlink:title=" ">
<polygon fill="white" stroke="#666666" points="436.5,-20.75 330.5,-20.75 330.5,0 436.5,0 436.5,-20.75"/>
<text xml:space="preserve" text-anchor="middle" x="383.5" y="-7.25" font-family="Helvetica,sans-Serif" font-size="10.00">kest_fpga_readout</text>
</a>
</g>
</g>
<!-- Node1&#45;&gt;Node6 -->
<g id="edge5_Node000001_Node000006" class="edge">
<title>Node1&#45;&gt;Node6</title>
<g id="a_edge5_Node000001_Node000006"><a xlink:title=" ">
<path fill="none" stroke="#63b8ff" d="M96.21,-44.6C114.49,-39.21 137.53,-33.07 158.5,-29.38 212.07,-19.95 273.7,-15.15 318.74,-12.74"/>
<polygon fill="#63b8ff" stroke="#63b8ff" points="318.79,-16.24 328.6,-12.24 318.43,-9.25 318.79,-16.24"/>
</a>
</g>
</g>
<!-- Node7 -->
<g id="Node000007" class="node">
<title>Node7</title>
<g id="a_Node000007"><a xlink:href="kest__fpga__io_8c.html#a00a4bbec92692e8a9a447b375616efa1" target="_top" xlink:title=" ">
<polygon fill="white" stroke="#666666" points="277.62,-124.12 158.88,-124.12 158.88,-90.62 277.62,-90.62 277.62,-124.12"/>
<text xml:space="preserve" text-anchor="start" x="166.88" y="-110.62" font-family="Helvetica,sans-Serif" font-size="10.00">kest_fpga_send_byte</text>
<text xml:space="preserve" text-anchor="middle" x="218.25" y="-97.88" font-family="Helvetica,sans-Serif" font-size="10.00">_get_flags</text>
</a>
</g>
</g>
<!-- Node1&#45;&gt;Node7 -->
<g id="edge7_Node000001_Node000007" class="edge">
<title>Node1&#45;&gt;Node7</title>
<g id="a_edge7_Node000001_Node000007"><a xlink:title=" ">
<path fill="none" stroke="#63b8ff" d="M94.37,-66.15C111.96,-72.05 134.37,-79.57 155.23,-86.57"/>
<polygon fill="#63b8ff" stroke="#63b8ff" points="153.93,-89.82 164.52,-89.68 156.15,-83.19 153.93,-89.82"/>
</a>
</g>
</g>
<!-- Node3 -->
<g id="Node000003" class="node">
<title>Node3</title>
<g id="a_Node000003"><a xlink:href="kest__fpga__io_8c.html#a688987fc53c1295119933650d3a19776" target="_top" xlink:title=" ">
<polygon fill="white" stroke="#666666" points="453,-111.12 314,-111.12 314,-77.62 453,-77.62 453,-111.12"/>
<text xml:space="preserve" text-anchor="start" x="322" y="-97.62" font-family="Helvetica,sans-Serif" font-size="10.00">kest_fpga_decode_status</text>
<text xml:space="preserve" text-anchor="middle" x="383.5" y="-84.88" font-family="Helvetica,sans-Serif" font-size="10.00">_flags</text>
</a>
</g>
</g>
<!-- Node2&#45;&gt;Node3 -->
<g id="edge2_Node000002_Node000003" class="edge">
<title>Node2&#45;&gt;Node3</title>
<g id="a_edge2_Node000002_Node000003"><a xlink:title=" ">
<path fill="none" stroke="#63b8ff" d="M278.19,-69.45C286.1,-71.34 294.32,-73.31 302.52,-75.27"/>
<polygon fill="#63b8ff" stroke="#63b8ff" points="301.64,-78.66 312.18,-77.58 303.27,-71.85 301.64,-78.66"/>
</a>
</g>
</g>
<!-- Node4 -->
<g id="Node000004" class="node">
<title>Node4</title>
<g id="a_Node000004"><a xlink:href="kest__fpga__io_8c.html#ab908dedc52b0ca9107f52f74ab7860c6" target="_top" xlink:title=" ">
<polygon fill="white" stroke="#666666" points="442.12,-59.75 324.88,-59.75 324.88,-39 442.12,-39 442.12,-59.75"/>
<text xml:space="preserve" text-anchor="middle" x="383.5" y="-46.25" font-family="Helvetica,sans-Serif" font-size="10.00">kest_fpga_read_byte</text>
</a>
</g>
</g>
<!-- Node2&#45;&gt;Node4 -->
<g id="edge3_Node000002_Node000004" class="edge">
<title>Node2&#45;&gt;Node4</title>
<g id="a_edge3_Node000002_Node000004"><a xlink:title=" ">
<path fill="none" stroke="#63b8ff" d="M278.19,-53.21C289.49,-52.79 301.42,-52.35 313.02,-51.93"/>
<polygon fill="#63b8ff" stroke="#63b8ff" points="313.09,-55.43 322.96,-51.56 312.84,-48.43 313.09,-55.43"/>
</a>
</g>
</g>
<!-- Node5 -->
<g id="Node000005" class="node">
<title>Node5</title>
<g id="a_Node000005"><a xlink:href="kest__fpga__io_8c.html#a2fe46577ece371a5fc9834bc59390913" target="_top" xlink:title=" ">
<polygon fill="white" stroke="#666666" points="577,-59.75 489,-59.75 489,-39 577,-39 577,-59.75"/>
<text xml:space="preserve" text-anchor="middle" x="533" y="-46.25" font-family="Helvetica,sans-Serif" font-size="10.00">kest_fpga_txrx</text>
</a>
</g>
</g>
<!-- Node4&#45;&gt;Node5 -->
<g id="edge4_Node000004_Node000005" class="edge">
<title>Node4&#45;&gt;Node5</title>
<g id="a_edge4_Node000004_Node000005"><a xlink:title=" ">
<path fill="none" stroke="#63b8ff" d="M442.37,-49.38C453.99,-49.38 466.17,-49.38 477.67,-49.38"/>
<polygon fill="#63b8ff" stroke="#63b8ff" points="477.38,-52.88 487.38,-49.38 477.38,-45.88 477.38,-52.88"/>
</a>
</g>
</g>
<!-- Node6&#45;&gt;Node5 -->
<g id="edge6_Node000006_Node000005" class="edge">
<title>Node6&#45;&gt;Node5</title>
<g id="a_edge6_Node000006_Node000005"><a xlink:title=" ">
<path fill="none" stroke="#63b8ff" d="M425.59,-21.24C442.38,-25.68 462,-30.87 479.79,-35.57"/>
<polygon fill="#63b8ff" stroke="#63b8ff" points="478.85,-38.94 489.41,-38.12 480.64,-32.18 478.85,-38.94"/>
</a>
</g>
</g>
<!-- Node7&#45;&gt;Node3 -->
<g id="edge8_Node000007_Node000003" class="edge">
<title>Node7&#45;&gt;Node3</title>
<g id="a_edge8_Node000007_Node000003"><a xlink:title=" ">
<path fill="none" stroke="#63b8ff" d="M277.73,-102.72C285.71,-102.08 294.02,-101.42 302.32,-100.76"/>
<polygon fill="#63b8ff" stroke="#63b8ff" points="302.38,-104.27 312.07,-99.98 301.82,-97.29 302.38,-104.27"/>
</a>
</g>
</g>
<!-- Node7&#45;&gt;Node5 -->
<g id="edge9_Node000007_Node000005" class="edge">
<title>Node7&#45;&gt;Node5</title>
<g id="a_edge9_Node000007_Node000005"><a xlink:title=" ">
<path fill="none" stroke="#63b8ff" d="M277.98,-123.65C326.54,-134.09 396.45,-142.05 453,-120.38 479.73,-110.13 503.1,-86.2 517.34,-68.95"/>
<polygon fill="#63b8ff" stroke="#63b8ff" points="519.88,-71.38 523.35,-61.37 514.39,-67.04 519.88,-71.38"/>
</a>
</g>
</g>
</g>
</svg>
