<?xml version="1.0" encoding="UTF-8" standalone="no"?>
<!DOCTYPE svg PUBLIC "-//W3C//DTD SVG 1.1//EN"
 "http://www.w3.org/Graphics/SVG/1.1/DTD/svg11.dtd">
<!-- Generated by graphviz version 13.1.2 (20250808.2320)
 -->
<!-- Title: binary_print_32 Pages: 1 -->
<svg width="618pt" height="94pt"
 viewBox="0.00 0.00 618.00 94.00" xmlns="http://www.w3.org/2000/svg" xmlns:xlink="http://www.w3.org/1999/xlink">
<g id="graph0" class="graph" transform="scale(1 1) rotate(0) translate(4 89.5)">
<title>binary_print_32</title>
<!-- Node1 -->
<g id="Node000001" class="node">
<title>Node1</title>
<g id="a_Node000001"><a xlink:title=" ">
<polygon fill="#999999" stroke="#666666" points="610,-53.12 518.25,-53.12 518.25,-32.38 610,-32.38 610,-53.12"/>
<text xml:space="preserve" text-anchor="middle" x="564.12" y="-39.62" font-family="Helvetica,sans-Serif" font-size="10.00">binary_print_32</text>
</a>
</g>
</g>
<!-- Node2 -->
<g id="Node000002" class="node">
<title>Node2</title>
<g id="a_Node000002"><a xlink:href="kest__fpga__encoding_8c.html#a1e92fe0ff4b72e00fa5d840ec96508c7" target="_top" xlink:title=" ">
<polygon fill="white" stroke="#666666" points="482.25,-59.5 345.5,-59.5 345.5,-26 482.25,-26 482.25,-59.5"/>
<text xml:space="preserve" text-anchor="start" x="353.5" y="-46" font-family="Helvetica,sans-Serif" font-size="10.00">kest_fpga_batch_append</text>
<text xml:space="preserve" text-anchor="middle" x="413.88" y="-33.25" font-family="Helvetica,sans-Serif" font-size="10.00">_block_instr</text>
</a>
</g>
</g>
<!-- Node1&#45;&gt;Node2 -->
<g id="edge1_Node000001_Node000002" class="edge">
<title>Node1&#45;&gt;Node2</title>
<g id="a_edge1_Node000001_Node000002"><a xlink:title=" ">
<path fill="none" stroke="#63b8ff" d="M506.57,-42.75C498.71,-42.75 490.57,-42.75 482.54,-42.75"/>
<polygon fill="#63b8ff" stroke="#63b8ff" points="506.33,-46.25 516.33,-42.75 506.33,-39.25 506.33,-46.25"/>
</a>
</g>
</g>
<!-- Node3 -->
<g id="Node000003" class="node">
<title>Node3</title>
<g id="a_Node000003"><a xlink:href="kest__fpga__encoding_8c.html#a24f2c777ab7078a8261d0fcee4aaf738" target="_top" xlink:title=" ">
<polygon fill="white" stroke="#666666" points="309.5,-59.5 172.75,-59.5 172.75,-26 309.5,-26 309.5,-59.5"/>
<text xml:space="preserve" text-anchor="start" x="180.75" y="-46" font-family="Helvetica,sans-Serif" font-size="10.00">kest_fpga_batch_append</text>
<text xml:space="preserve" text-anchor="middle" x="241.12" y="-33.25" font-family="Helvetica,sans-Serif" font-size="10.00">_block</text>
</a>
</g>
</g>
<!-- Node2&#45;&gt;Node3 -->
<g id="edge2_Node000002_Node000003" class="edge">
<title>Node2&#45;&gt;Node3</title>
<g id="a_edge2_Node000002_Node000003"><a xlink:title=" ">
<path fill="none" stroke="#63b8ff" d="M334.08,-42.75C326.02,-42.75 317.88,-42.75 309.96,-42.75"/>
<polygon fill="#63b8ff" stroke="#63b8ff" points="333.88,-46.25 343.88,-42.75 333.88,-39.25 333.88,-46.25"/>
</a>
</g>
</g>
<!-- Node4 -->
<g id="Node000004" class="node">
<title>Node4</title>
<g id="a_Node000004"><a xlink:href="kest__fpga__encoding_8c.html#ab25e66c3a6824f0d7213996ba244f105" target="_top" xlink:title=" ">
<polygon fill="#fff0f0" stroke="red" points="136.75,-85.5 0,-85.5 0,-52 136.75,-52 136.75,-85.5"/>
<text xml:space="preserve" text-anchor="start" x="8" y="-72" font-family="Helvetica,sans-Serif" font-size="10.00">kest_fpga_batch_append</text>
<text xml:space="preserve" text-anchor="middle" x="68.38" y="-59.25" font-family="Helvetica,sans-Serif" font-size="10.00">_block_list</text>
</a>
</g>
</g>
<!-- Node3&#45;&gt;Node4 -->
<g id="edge3_Node000003_Node000004" class="edge">
<title>Node3&#45;&gt;Node4</title>
<g id="a_edge3_Node000003_Node000004"><a xlink:title=" ">
<path fill="none" stroke="#63b8ff" d="M161.33,-54.75C153.27,-55.98 145.13,-57.21 137.21,-58.42"/>
<polygon fill="#63b8ff" stroke="#63b8ff" points="161.78,-58.22 171.14,-53.25 160.73,-51.3 161.78,-58.22"/>
</a>
</g>
</g>
<!-- Node58 -->
<g id="Node000058" class="node">
<title>Node58</title>
<g id="a_Node000058"><a xlink:href="kest__fpga__encoding_8c.html#aaa459b3fe0bc706c415180f6ac35d7c3" target="_top" xlink:title=" ">
<polygon fill="#fff0f0" stroke="red" points="136.75,-33.5 0,-33.5 0,0 136.75,0 136.75,-33.5"/>
<text xml:space="preserve" text-anchor="start" x="8" y="-20" font-family="Helvetica,sans-Serif" font-size="10.00">kest_fpga_batch_append</text>
<text xml:space="preserve" text-anchor="middle" x="68.38" y="-7.25" font-family="Helvetica,sans-Serif" font-size="10.00">_blocks</text>
</a>
</g>
</g>
<!-- Node3&#45;&gt;Node58 -->
<g id="edge4_Node000003_Node000058" class="edge">
<title>Node3&#45;&gt;Node58</title>
<g id="a_edge4_Node000003_Node000058"><a xlink:title=" ">
<path fill="none" stroke="#63b8ff" d="M161.33,-30.75C153.27,-29.52 145.13,-28.29 137.21,-27.08"/>
<polygon fill="#63b8ff" stroke="#63b8ff" points="160.73,-34.2 171.14,-32.25 161.78,-27.28 160.73,-34.2"/>
</a>
</g>
</g>
</g>
</svg>
