<?xml version="1.0" encoding="UTF-8" standalone="no"?>
<!DOCTYPE svg PUBLIC "-//W3C//DTD SVG 1.1//EN"
 "http://www.w3.org/Graphics/SVG/1.1/DTD/svg11.dtd">
<!-- Generated by graphviz version 13.1.2 (20250808.2320)
 -->
<!-- Title: kest_preset_append_effect_eff Pages: 1 -->
<svg width="762pt" height="215pt"
 viewBox="0.00 0.00 762.00 215.00" xmlns="http://www.w3.org/2000/svg" xmlns:xlink="http://www.w3.org/1999/xlink">
<g id="graph0" class="graph" transform="scale(1 1) rotate(0) translate(4 211.33)">
<title>kest_preset_append_effect_eff</title>
<!-- Node1 -->
<g id="Node000001" class="node">
<title>Node1</title>
<g id="a_Node000001"><a xlink:title=" ">
<polygon fill="#999999" stroke="#666666" points="113.5,-89.71 0,-89.71 0,-56.21 113.5,-56.21 113.5,-89.71"/>
<text xml:space="preserve" text-anchor="start" x="8" y="-76.21" font-family="Helvetica,sans-Serif" font-size="10.00">kest_preset_append</text>
<text xml:space="preserve" text-anchor="middle" x="56.75" y="-63.46" font-family="Helvetica,sans-Serif" font-size="10.00">_effect_eff</text>
</a>
</g>
</g>
<!-- Node2 -->
<g id="Node000002" class="node">
<title>Node2</title>
<g id="a_Node000002"><a xlink:href="kest__effect_8c.html#a45969080cfeedba828e766c3fe6670ab" target="_top" xlink:title=" ">
<polygon fill="white" stroke="#666666" points="287,-106.33 149.5,-106.33 149.5,-85.58 287,-85.58 287,-106.33"/>
<text xml:space="preserve" text-anchor="middle" x="218.25" y="-92.83" font-family="Helvetica,sans-Serif" font-size="10.00">effect_rectify_param_ids</text>
</a>
</g>
</g>
<!-- Node1&#45;&gt;Node2 -->
<g id="edge1_Node000001_Node000002" class="edge">
<title>Node1&#45;&gt;Node2</title>
<g id="a_edge1_Node000001_Node000002"><a xlink:title=" ">
<path fill="none" stroke="#63b8ff" d="M113.98,-81.07C121.73,-82.18 129.79,-83.35 137.85,-84.51"/>
<polygon fill="#63b8ff" stroke="#63b8ff" points="137.32,-87.97 147.72,-85.93 138.32,-81.04 137.32,-87.97"/>
</a>
</g>
</g>
<!-- Node3 -->
<g id="Node000003" class="node">
<title>Node3</title>
<g id="a_Node000003"><a xlink:href="kest__pipeline_8c.html#a0eff55a4103a090993bbac228a981af6" target="_top" xlink:title=" ">
<polygon fill="white" stroke="#666666" points="279.12,-67.71 157.38,-67.71 157.38,-34.21 279.12,-34.21 279.12,-67.71"/>
<text xml:space="preserve" text-anchor="start" x="165.38" y="-54.21" font-family="Helvetica,sans-Serif" font-size="10.00">kest_pipeline_append</text>
<text xml:space="preserve" text-anchor="middle" x="218.25" y="-41.46" font-family="Helvetica,sans-Serif" font-size="10.00">_effect_eff</text>
</a>
</g>
</g>
<!-- Node1&#45;&gt;Node3 -->
<g id="edge2_Node000001_Node000003" class="edge">
<title>Node1&#45;&gt;Node3</title>
<g id="a_edge2_Node000001_Node000003"><a xlink:title=" ">
<path fill="none" stroke="#63b8ff" d="M113.98,-65.2C124.19,-63.8 134.97,-62.31 145.55,-60.85"/>
<polygon fill="#63b8ff" stroke="#63b8ff" points="146,-64.32 155.42,-59.49 145.04,-57.39 146,-64.32"/>
</a>
</g>
</g>
<!-- Node4 -->
<g id="Node000004" class="node">
<title>Node4</title>
<g id="a_Node000004"><a xlink:href="kest__effect_8c.html#a85b25e44e2629962673634f965ffe304" target="_top" xlink:title=" ">
<polygon fill="white" stroke="#666666" points="478.5,-110.33 323,-110.33 323,-89.58 478.5,-89.58 478.5,-110.33"/>
<text xml:space="preserve" text-anchor="middle" x="400.75" y="-96.83" font-family="Helvetica,sans-Serif" font-size="10.00">init_effect_from_effect_desc</text>
</a>
</g>
</g>
<!-- Node3&#45;&gt;Node4 -->
<g id="edge3_Node000003_Node000004" class="edge">
<title>Node3&#45;&gt;Node4</title>
<g id="a_edge3_Node000003_Node000004"><a xlink:title=" ">
<path fill="none" stroke="#63b8ff" d="M279.6,-67.34C302.12,-73.46 327.44,-80.33 349,-86.18"/>
<polygon fill="#63b8ff" stroke="#63b8ff" points="347.88,-89.5 358.44,-88.75 349.71,-82.75 347.88,-89.5"/>
</a>
</g>
</g>
<!-- Node12 -->
<g id="Node000012" class="node">
<title>Node12</title>
<g id="a_Node000012"><a xlink:href="kest__alloc_8c.html#a849755c5dc5b35e712ffcdb602e50fb4" target="_top" xlink:title=" ">
<polygon fill="white" stroke="#666666" points="754.25,-84.33 689.5,-84.33 689.5,-63.58 754.25,-63.58 754.25,-84.33"/>
<text xml:space="preserve" text-anchor="middle" x="721.88" y="-70.83" font-family="Helvetica,sans-Serif" font-size="10.00">kest_alloc</text>
</a>
</g>
</g>
<!-- Node3&#45;&gt;Node12 -->
<g id="edge11_Node000003_Node000012" class="edge">
<title>Node3&#45;&gt;Node12</title>
<g id="a_edge11_Node000003_Node000012"><a xlink:title=" ">
<path fill="none" stroke="#63b8ff" d="M275.2,-33.77C359.67,-10.77 523.7,22.3 653.5,-21.96 673.04,-28.62 691.33,-43.51 703.9,-55.65"/>
<polygon fill="#63b8ff" stroke="#63b8ff" points="701.06,-57.76 710.58,-62.41 706.04,-52.84 701.06,-57.76"/>
</a>
</g>
</g>
<!-- Node5 -->
<g id="Node000005" class="node">
<title>Node5</title>
<g id="a_Node000005"><a xlink:href="kest__effect_8c.html#a6d9927f6d82c964bd07bef5c77879010" target="_top" xlink:title=" ">
<polygon fill="#fff0f0" stroke="red" points="616.75,-207.33 551.25,-207.33 551.25,-186.58 616.75,-186.58 616.75,-207.33"/>
<text xml:space="preserve" text-anchor="middle" x="584" y="-193.83" font-family="Helvetica,sans-Serif" font-size="10.00">init_effect</text>
</a>
</g>
</g>
<!-- Node4&#45;&gt;Node5 -->
<g id="edge4_Node000004_Node000005" class="edge">
<title>Node4&#45;&gt;Node5</title>
<g id="a_edge4_Node000004_Node000005"><a xlink:title=" ">
<path fill="none" stroke="#63b8ff" d="M414.08,-110.59C433.94,-127.22 474.84,-159.39 514.5,-177.96 522.43,-181.67 531.22,-184.78 539.79,-187.35"/>
<polygon fill="#63b8ff" stroke="#63b8ff" points="538.8,-190.71 549.38,-190 540.67,-183.96 538.8,-190.71"/>
</a>
</g>
</g>
<!-- Node20 -->
<g id="Node000020" class="node">
<title>Node20</title>
<g id="a_Node000020"><a xlink:href="kest__effect_8c.html#ae445771b304eac294929053417d2d93e" target="_top" xlink:title=" ">
<polygon fill="#fff0f0" stroke="red" points="637,-168.71 531,-168.71 531,-135.21 637,-135.21 637,-168.71"/>
<text xml:space="preserve" text-anchor="start" x="539" y="-155.21" font-family="Helvetica,sans-Serif" font-size="10.00">kest_effect_create</text>
<text xml:space="preserve" text-anchor="middle" x="584" y="-142.46" font-family="Helvetica,sans-Serif" font-size="10.00">_scope</text>
</a>
</g>
</g>
<!-- Node4&#45;&gt;Node20 -->
<g id="edge6_Node000004_Node000020" class="edge">
<title>Node4&#45;&gt;Node20</title>
<g id="a_edge6_Node000004_Node000020"><a xlink:title=" ">
<path fill="none" stroke="#63b8ff" d="M439.31,-110.73C462.54,-117.4 492.97,-126.13 519.84,-133.84"/>
<polygon fill="#63b8ff" stroke="#63b8ff" points="518.69,-137.15 529.26,-136.54 520.62,-130.42 518.69,-137.15"/>
</a>
</g>
</g>
<!-- Node30 -->
<g id="Node000030" class="node">
<title>Node30</title>
<g id="a_Node000030"><a xlink:href="kest__parameter_8c.html#ae948a40b754ee638db216e685c38cc61" target="_top" xlink:title=" ">
<polygon fill="#fff0f0" stroke="red" points="646.38,-116.71 521.62,-116.71 521.62,-83.21 646.38,-83.21 646.38,-116.71"/>
<text xml:space="preserve" text-anchor="start" x="529.62" y="-103.21" font-family="Helvetica,sans-Serif" font-size="10.00">kest_parameter_make</text>
<text xml:space="preserve" text-anchor="middle" x="584" y="-90.46" font-family="Helvetica,sans-Serif" font-size="10.00">_clone_for_effect</text>
</a>
</g>
</g>
<!-- Node4&#45;&gt;Node30 -->
<g id="edge7_Node000004_Node000030" class="edge">
<title>Node4&#45;&gt;Node30</title>
<g id="a_edge7_Node000004_Node000030"><a xlink:title=" ">
<path fill="none" stroke="#63b8ff" d="M478.88,-99.96C489.17,-99.96 499.7,-99.96 509.92,-99.96"/>
<polygon fill="#63b8ff" stroke="#63b8ff" points="509.78,-103.46 519.78,-99.96 509.78,-96.46 509.78,-103.46"/>
</a>
</g>
</g>
<!-- Node33 -->
<g id="Node000033" class="node">
<title>Node33</title>
<g id="a_Node000033"><a xlink:href="kest__parameter_8c.html#a93c254fa0bc2933e67e92e4b2acb2aac" target="_top" xlink:title=" ">
<polygon fill="#fff0f0" stroke="red" points="653.5,-64.71 514.5,-64.71 514.5,-31.21 653.5,-31.21 653.5,-64.71"/>
<text xml:space="preserve" text-anchor="start" x="522.5" y="-51.21" font-family="Helvetica,sans-Serif" font-size="10.00">kest_setting_make_clone</text>
<text xml:space="preserve" text-anchor="middle" x="584" y="-38.46" font-family="Helvetica,sans-Serif" font-size="10.00">_for_effect</text>
</a>
</g>
</g>
<!-- Node4&#45;&gt;Node33 -->
<g id="edge9_Node000004_Node000033" class="edge">
<title>Node4&#45;&gt;Node33</title>
<g id="a_edge9_Node000004_Node000033"><a xlink:title=" ">
<path fill="none" stroke="#63b8ff" d="M439.31,-89.19C460.35,-83.15 487.29,-75.42 512.15,-68.29"/>
<polygon fill="#63b8ff" stroke="#63b8ff" points="512.92,-71.71 521.56,-65.59 510.99,-64.98 512.92,-71.71"/>
</a>
</g>
</g>
<!-- Node5&#45;&gt;Node12 -->
<g id="edge5_Node000005_Node000012" class="edge">
<title>Node5&#45;&gt;Node12</title>
<g id="a_edge5_Node000005_Node000012"><a xlink:title=" ">
<path fill="none" stroke="#63b8ff" d="M617.13,-193.01C629.4,-190.29 642.95,-185.7 653.5,-177.96 682.56,-156.63 702.45,-118.66 712.72,-94.97"/>
<polygon fill="#63b8ff" stroke="#63b8ff" points="715.83,-96.61 716.4,-86.03 709.36,-93.94 715.83,-96.61"/>
</a>
</g>
</g>
<!-- Node30&#45;&gt;Node12 -->
<g id="edge8_Node000030_Node000012" class="edge">
<title>Node30&#45;&gt;Node12</title>
<g id="a_edge8_Node000030_Node000012"><a xlink:title=" ">
<path fill="none" stroke="#63b8ff" d="M646.58,-88.18C657.17,-86.15 667.98,-84.08 677.95,-82.17"/>
<polygon fill="#63b8ff" stroke="#63b8ff" points="678.56,-85.62 687.72,-80.3 677.25,-78.74 678.56,-85.62"/>
</a>
</g>
</g>
<!-- Node33&#45;&gt;Node12 -->
<g id="edge10_Node000033_Node000012" class="edge">
<title>Node33&#45;&gt;Node12</title>
<g id="a_edge10_Node000033_Node000012"><a xlink:title=" ">
<path fill="none" stroke="#63b8ff" d="M653.73,-61.11C661.95,-62.68 670.15,-64.25 677.86,-65.73"/>
<polygon fill="#63b8ff" stroke="#63b8ff" points="677.14,-69.15 687.62,-67.6 678.46,-62.28 677.14,-69.15"/>
</a>
</g>
</g>
</g>
</svg>
