<?xml version="1.0" encoding="UTF-8" standalone="no"?>
<!DOCTYPE svg PUBLIC "-//W3C//DTD SVG 1.1//EN"
 "http://www.w3.org/Graphics/SVG/1.1/DTD/svg11.dtd">
<!-- Generated by graphviz version 13.1.2 (20250808.2320)
 -->
<!-- Title: kest_fpga_command_to_string Pages: 1 -->
<svg width="1144pt" height="254pt"
 viewBox="0.00 0.00 1144.00 254.00" xmlns="http://www.w3.org/2000/svg" xmlns:xlink="http://www.w3.org/1999/xlink">
<g id="graph0" class="graph" transform="scale(1 1) rotate(0) translate(4 250.12)">
<title>kest_fpga_command_to_string</title>
<!-- Node1 -->
<g id="Node000001" class="node">
<title>Node1</title>
<g id="a_Node000001"><a xlink:title=" ">
<polygon fill="#999999" stroke="#666666" points="1135.75,-163.12 1003.5,-163.12 1003.5,-129.62 1135.75,-129.62 1135.75,-163.12"/>
<text xml:space="preserve" text-anchor="start" x="1011.5" y="-149.62" font-family="Helvetica,sans-Serif" font-size="10.00">kest_fpga_command_to</text>
<text xml:space="preserve" text-anchor="middle" x="1069.62" y="-136.88" font-family="Helvetica,sans-Serif" font-size="10.00">_string</text>
</a>
</g>
</g>
<!-- Node2 -->
<g id="Node000002" class="node">
<title>Node2</title>
<g id="a_Node000002"><a xlink:href="kest__fpga__cmd_8c.html#aa21bd71f38cf39b404be6eab65e21128" target="_top" xlink:title=" ">
<polygon fill="white" stroke="#666666" points="951,-246.12 818.75,-246.12 818.75,-212.62 951,-212.62 951,-246.12"/>
<text xml:space="preserve" text-anchor="start" x="826.75" y="-232.62" font-family="Helvetica,sans-Serif" font-size="10.00">kest_fpga_command_to</text>
<text xml:space="preserve" text-anchor="middle" x="884.88" y="-219.88" font-family="Helvetica,sans-Serif" font-size="10.00">_string_</text>
</a>
</g>
</g>
<!-- Node1&#45;&gt;Node2 -->
<g id="edge1_Node000001_Node000002" class="edge">
<title>Node1&#45;&gt;Node2</title>
<g id="a_edge1_Node000001_Node000002"><a xlink:title=" ">
<path fill="none" stroke="#63b8ff" d="M1027.66,-168.76C1009.46,-178.36 987.64,-189.4 967.5,-198.38 956.7,-203.18 944.9,-207.94 933.72,-212.23"/>
<polygon fill="#63b8ff" stroke="#63b8ff" points="1029.11,-171.95 1036.3,-164.17 1025.83,-165.77 1029.11,-171.95"/>
</a>
</g>
</g>
<!-- Node25 -->
<g id="Node000025" class="node">
<title>Node25</title>
<g id="a_Node000025"><a xlink:href="kest__fpga__comms_8c.html#a8f850777494bb4c4d61df3efbf31ca7c" target="_top" xlink:title=" ">
<polygon fill="white" stroke="#666666" points="385.5,-97.75 254.75,-97.75 254.75,-77 385.5,-77 385.5,-97.75"/>
<text xml:space="preserve" text-anchor="middle" x="320.12" y="-84.25" font-family="Helvetica,sans-Serif" font-size="10.00">kest_fpga_comms_task</text>
</a>
</g>
</g>
<!-- Node1&#45;&gt;Node25 -->
<g id="edge4_Node000001_Node000025" class="edge">
<title>Node1&#45;&gt;Node25</title>
<g id="a_edge4_Node000001_Node000025"><a xlink:title=" ">
<path fill="none" stroke="#63b8ff" d="M991.92,-162.33C983.7,-163.57 975.45,-164.63 967.5,-165.38 725.7,-187.89 652.92,-218 421.5,-144.38 388.46,-133.86 354.24,-111.53 335.52,-98.15"/>
<polygon fill="#63b8ff" stroke="#63b8ff" points="992.25,-165.82 1001.56,-160.77 991.13,-158.91 992.25,-165.82"/>
</a>
</g>
</g>
<!-- Node27 -->
<g id="Node000027" class="node">
<title>Node27</title>
<g id="a_Node000027"><a xlink:href="kest__fpga__comms_8c.html#ad4528074bfb87a4810b6f01a9df53605" target="_top" xlink:title=" ">
<polygon fill="white" stroke="#666666" points="967.5,-156.75 802.25,-156.75 802.25,-136 967.5,-136 967.5,-156.75"/>
<text xml:space="preserve" text-anchor="middle" x="884.88" y="-143.25" font-family="Helvetica,sans-Serif" font-size="10.00">kest_fpga_print_command_log</text>
</a>
</g>
</g>
<!-- Node1&#45;&gt;Node27 -->
<g id="edge7_Node000001_Node000027" class="edge">
<title>Node1&#45;&gt;Node27</title>
<g id="a_edge7_Node000001_Node000027"><a xlink:title=" ">
<path fill="none" stroke="#63b8ff" d="M991.71,-146.38C983.8,-146.38 975.74,-146.38 967.78,-146.38"/>
<polygon fill="#63b8ff" stroke="#63b8ff" points="991.65,-149.88 1001.65,-146.38 991.65,-142.88 991.65,-149.88"/>
</a>
</g>
</g>
<!-- Node30 -->
<g id="Node000030" class="node">
<title>Node30</title>
<g id="a_Node000030"><a xlink:href="kest__fpga__io_8c.html#a38a89d268857557d083c5e4696d54669" target="_top" xlink:title=" ">
<polygon fill="white" stroke="#666666" points="955.88,-118.12 813.88,-118.12 813.88,-84.62 955.88,-84.62 955.88,-118.12"/>
<text xml:space="preserve" text-anchor="start" x="821.88" y="-104.62" font-family="Helvetica,sans-Serif" font-size="10.00">kest_fpga_program_batch</text>
<text xml:space="preserve" text-anchor="middle" x="884.88" y="-91.88" font-family="Helvetica,sans-Serif" font-size="10.00">_send_careful</text>
</a>
</g>
</g>
<!-- Node1&#45;&gt;Node30 -->
<g id="edge11_Node000001_Node000030" class="edge">
<title>Node1&#45;&gt;Node30</title>
<g id="a_edge11_Node000001_Node000030"><a xlink:title=" ">
<path fill="none" stroke="#63b8ff" d="M992.21,-127.56C980.15,-124.59 967.73,-121.53 955.82,-118.6"/>
<polygon fill="#63b8ff" stroke="#63b8ff" points="991.15,-130.9 1001.69,-129.89 992.82,-124.1 991.15,-130.9"/>
</a>
</g>
</g>
<!-- Node31 -->
<g id="Node000031" class="node">
<title>Node31</title>
<g id="a_Node000031"><a xlink:href="kest__fpga__io_8c.html#a705da035774b1be5ed1365126486649f" target="_top" xlink:title=" ">
<polygon fill="white" stroke="#666666" points="942.75,-66.12 827,-66.12 827,-32.62 942.75,-32.62 942.75,-66.12"/>
<text xml:space="preserve" text-anchor="start" x="835" y="-52.62" font-family="Helvetica,sans-Serif" font-size="10.00">kest_fpga_transfer</text>
<text xml:space="preserve" text-anchor="middle" x="884.88" y="-39.88" font-family="Helvetica,sans-Serif" font-size="10.00">_batch_send_careful</text>
</a>
</g>
</g>
<!-- Node1&#45;&gt;Node31 -->
<g id="edge12_Node000001_Node000031" class="edge">
<title>Node1&#45;&gt;Node31</title>
<g id="a_edge12_Node000001_Node000031"><a xlink:title=" ">
<path fill="none" stroke="#63b8ff" d="M1039.19,-122.09C1019.78,-107.01 993.27,-88.15 967.5,-75.38 959.77,-71.54 951.36,-68.11 942.96,-65.1"/>
<polygon fill="#63b8ff" stroke="#63b8ff" points="1036.91,-124.75 1046.93,-128.2 1041.25,-119.26 1036.91,-124.75"/>
</a>
</g>
</g>
<!-- Node3 -->
<g id="Node000003" class="node">
<title>Node3</title>
<g id="a_Node000003"><a xlink:href="kest__update_8c.html#abbdab64ee10309f1d032de20c5088114" target="_top" xlink:title=" ">
<polygon fill="white" stroke="#666666" points="752.38,-246.12 645.62,-246.12 645.62,-212.62 752.38,-212.62 752.38,-246.12"/>
<text xml:space="preserve" text-anchor="start" x="653.62" y="-232.62" font-family="Helvetica,sans-Serif" font-size="10.00">kest_updater_print</text>
<text xml:space="preserve" text-anchor="middle" x="699" y="-219.88" font-family="Helvetica,sans-Serif" font-size="10.00">_command_list</text>
</a>
</g>
</g>
<!-- Node2&#45;&gt;Node3 -->
<g id="edge2_Node000002_Node000003" class="edge">
<title>Node2&#45;&gt;Node3</title>
<g id="a_edge2_Node000002_Node000003"><a xlink:title=" ">
<path fill="none" stroke="#63b8ff" d="M807,-229.38C788.67,-229.38 769.53,-229.38 752.59,-229.38"/>
<polygon fill="#63b8ff" stroke="#63b8ff" points="806.76,-232.88 816.76,-229.38 806.76,-225.88 806.76,-232.88"/>
</a>
</g>
</g>
<!-- Node4 -->
<g id="Node000004" class="node">
<title>Node4</title>
<g id="a_Node000004"><a xlink:href="kest__update_8c.html#a5f1849c909f1dbde00900ad089f46d8f" target="_top" xlink:title=" ">
<polygon fill="#fff0f0" stroke="red" points="559.38,-239.75 457.88,-239.75 457.88,-219 559.38,-219 559.38,-239.75"/>
<text xml:space="preserve" text-anchor="middle" x="508.62" y="-226.25" font-family="Helvetica,sans-Serif" font-size="10.00">kest_update_task</text>
</a>
</g>
</g>
<!-- Node3&#45;&gt;Node4 -->
<g id="edge3_Node000003_Node000004" class="edge">
<title>Node3&#45;&gt;Node4</title>
<g id="a_edge3_Node000003_Node000004"><a xlink:title=" ">
<path fill="none" stroke="#63b8ff" d="M634.01,-229.38C609.76,-229.38 582.53,-229.38 559.74,-229.38"/>
<polygon fill="#63b8ff" stroke="#63b8ff" points="633.76,-232.88 643.76,-229.38 633.76,-225.88 633.76,-232.88"/>
</a>
</g>
</g>
<!-- Node26 -->
<g id="Node000026" class="node">
<title>Node26</title>
<g id="a_Node000026"><a xlink:href="kest__fpga__comms_8c.html#a3e7c6b831b7f97dfc640df13557640be" target="_top" xlink:title=" ">
<polygon fill="white" stroke="#666666" points="218.75,-97.75 93.25,-97.75 93.25,-77 218.75,-77 218.75,-97.75"/>
<text xml:space="preserve" text-anchor="middle" x="156" y="-84.25" font-family="Helvetica,sans-Serif" font-size="10.00">kest_init_fpga_comms</text>
</a>
</g>
</g>
<!-- Node25&#45;&gt;Node26 -->
<g id="edge5_Node000025_Node000026" class="edge">
<title>Node25&#45;&gt;Node26</title>
<g id="a_edge5_Node000025_Node000026"><a xlink:title=" ">
<path fill="none" stroke="#63b8ff" d="M243.27,-87.38C235.21,-87.38 227.08,-87.38 219.21,-87.38"/>
<polygon fill="#63b8ff" stroke="#63b8ff" points="243.07,-90.88 253.07,-87.38 243.07,-83.88 243.07,-90.88"/>
</a>
</g>
</g>
<!-- Node6 -->
<g id="Node000006" class="node">
<title>Node6</title>
<g id="a_Node000006"><a xlink:href="kest__init_8c.html#ad1373cd24ac2876b2830d1ad2eb92721" target="_top" xlink:title=" ">
<polygon fill="#fff0f0" stroke="red" points="57.25,-97.75 0,-97.75 0,-77 57.25,-77 57.25,-97.75"/>
<text xml:space="preserve" text-anchor="middle" x="28.63" y="-84.25" font-family="Helvetica,sans-Serif" font-size="10.00">kest_init</text>
</a>
</g>
</g>
<!-- Node26&#45;&gt;Node6 -->
<g id="edge6_Node000026_Node000006" class="edge">
<title>Node26&#45;&gt;Node6</title>
<g id="a_edge6_Node000026_Node000006"><a xlink:title=" ">
<path fill="none" stroke="#63b8ff" d="M81.7,-87.38C73.15,-87.38 64.86,-87.38 57.52,-87.38"/>
<polygon fill="#63b8ff" stroke="#63b8ff" points="81.53,-90.88 91.53,-87.38 81.53,-83.88 81.53,-90.88"/>
</a>
</g>
</g>
<!-- Node28 -->
<g id="Node000028" class="node">
<title>Node28</title>
<g id="a_Node000028"><a xlink:href="kest__fpga__comms_8c.html#afb1a50f3f2d17cff2514ceb31fc6c75e" target="_top" xlink:title=" ">
<polygon fill="white" stroke="#666666" points="766.25,-156.75 631.75,-156.75 631.75,-136 766.25,-136 766.25,-156.75"/>
<text xml:space="preserve" text-anchor="middle" x="699" y="-143.25" font-family="Helvetica,sans-Serif" font-size="10.00">kest_command_log_test</text>
</a>
</g>
</g>
<!-- Node27&#45;&gt;Node28 -->
<g id="edge8_Node000027_Node000028" class="edge">
<title>Node27&#45;&gt;Node28</title>
<g id="a_edge8_Node000027_Node000028"><a xlink:title=" ">
<path fill="none" stroke="#63b8ff" d="M790.52,-146.38C782.48,-146.38 774.44,-146.38 766.67,-146.38"/>
<polygon fill="#63b8ff" stroke="#63b8ff" points="790.37,-149.88 800.37,-146.38 790.37,-142.88 790.37,-149.88"/>
</a>
</g>
</g>
<!-- Node29 -->
<g id="Node000029" class="node">
<title>Node29</title>
<g id="a_Node000029"><a xlink:href="kest__fpga__comms_8c.html#a3e920a831491fd407195cf3a0cf727c8" target="_top" xlink:title=" ">
<polygon fill="white" stroke="#666666" points="595.75,-135.75 421.5,-135.75 421.5,-115 595.75,-115 595.75,-135.75"/>
<text xml:space="preserve" text-anchor="middle" x="508.62" y="-122.25" font-family="Helvetica,sans-Serif" font-size="10.00">kest_fpga_handle_misalignment</text>
</a>
</g>
</g>
<!-- Node27&#45;&gt;Node29 -->
<g id="edge9_Node000027_Node000029" class="edge">
<title>Node27&#45;&gt;Node29</title>
<g id="a_edge9_Node000027_Node000029"><a xlink:title=" ">
<path fill="none" stroke="#63b8ff" d="M816.68,-133.71C800.25,-131.12 782.66,-128.76 766.25,-127.38 709.75,-122.62 646.02,-122.1 596.2,-122.78"/>
<polygon fill="#63b8ff" stroke="#63b8ff" points="815.92,-137.14 826.36,-135.3 817.05,-130.23 815.92,-137.14"/>
</a>
</g>
</g>
<!-- Node29&#45;&gt;Node25 -->
<g id="edge10_Node000029_Node000025" class="edge">
<title>Node29&#45;&gt;Node25</title>
<g id="a_edge10_Node000029_Node000025"><a xlink:title=" ">
<path fill="none" stroke="#63b8ff" d="M443.28,-112.27C420.81,-107.69 395.86,-102.6 374.39,-98.23"/>
<polygon fill="#63b8ff" stroke="#63b8ff" points="442.45,-115.67 452.95,-114.23 443.85,-108.81 442.45,-115.67"/>
</a>
</g>
</g>
<!-- Node32 -->
<g id="Node000032" class="node">
<title>Node32</title>
<g id="a_Node000032"><a xlink:href="kest__fpga__io_8c.html#ae911bef59743e59043a283dac1be0761" target="_top" xlink:title=" ">
<polygon fill="white" stroke="#666666" points="752.38,-66.12 645.62,-66.12 645.62,-32.62 752.38,-32.62 752.38,-66.12"/>
<text xml:space="preserve" text-anchor="start" x="653.62" y="-52.62" font-family="Helvetica,sans-Serif" font-size="10.00">kest_fpga_transfer</text>
<text xml:space="preserve" text-anchor="middle" x="699" y="-39.88" font-family="Helvetica,sans-Serif" font-size="10.00">_batch_send</text>
</a>
</g>
</g>
<!-- Node31&#45;&gt;Node32 -->
<g id="edge13_Node000031_Node000032" class="edge">
<title>Node31&#45;&gt;Node32</title>
<g id="a_edge13_Node000031_Node000032"><a xlink:title=" ">
<path fill="none" stroke="#63b8ff" d="M815.4,-49.38C794.69,-49.38 772.27,-49.38 752.75,-49.38"/>
<polygon fill="#63b8ff" stroke="#63b8ff" points="815.19,-52.88 825.19,-49.38 815.19,-45.88 815.19,-52.88"/>
</a>
</g>
</g>
<!-- Node32&#45;&gt;Node25 -->
<g id="edge14_Node000032_Node000025" class="edge">
<title>Node32&#45;&gt;Node25</title>
<g id="a_edge14_Node000032_Node000025"><a xlink:title=" ">
<path fill="none" stroke="#63b8ff" d="M634.36,-62.37C621.61,-64.64 608.29,-66.78 595.75,-68.38 524.28,-77.46 441.75,-82.43 385.97,-84.99"/>
<polygon fill="#63b8ff" stroke="#63b8ff" points="634.68,-65.87 643.89,-60.62 633.42,-58.98 634.68,-65.87"/>
</a>
</g>
</g>
<!-- Node33 -->
<g id="Node000033" class="node">
<title>Node33</title>
<g id="a_Node000033"><a xlink:href="kest__fpga__io_8c.html#a0e6e4e058cfd8f3ec79208acb0f71aa6" target="_top" xlink:title=" ">
<polygon fill="white" stroke="#666666" points="578.5,-59.75 438.75,-59.75 438.75,-39 578.5,-39 578.5,-59.75"/>
<text xml:space="preserve" text-anchor="middle" x="508.62" y="-46.25" font-family="Helvetica,sans-Serif" font-size="10.00">kest_fpga_set_input_gain</text>
</a>
</g>
</g>
<!-- Node32&#45;&gt;Node33 -->
<g id="edge15_Node000032_Node000033" class="edge">
<title>Node32&#45;&gt;Node33</title>
<g id="a_edge15_Node000032_Node000033"><a xlink:title=" ">
<path fill="none" stroke="#63b8ff" d="M633.9,-49.38C616.19,-49.38 596.9,-49.38 578.91,-49.38"/>
<polygon fill="#63b8ff" stroke="#63b8ff" points="633.76,-52.88 643.76,-49.38 633.76,-45.88 633.76,-52.88"/>
</a>
</g>
</g>
<!-- Node34 -->
<g id="Node000034" class="node">
<title>Node34</title>
<g id="a_Node000034"><a xlink:href="kest__fpga__io_8c.html#a6569f6bf656d72080dd355179ac2c4e9" target="_top" xlink:title=" ">
<polygon fill="white" stroke="#666666" points="581.88,-20.75 435.38,-20.75 435.38,0 581.88,0 581.88,-20.75"/>
<text xml:space="preserve" text-anchor="middle" x="508.62" y="-7.25" font-family="Helvetica,sans-Serif" font-size="10.00">kest_fpga_set_output_gain</text>
</a>
</g>
</g>
<!-- Node32&#45;&gt;Node34 -->
<g id="edge17_Node000032_Node000034" class="edge">
<title>Node32&#45;&gt;Node34</title>
<g id="a_edge17_Node000032_Node000034"><a xlink:title=" ">
<path fill="none" stroke="#63b8ff" d="M634.02,-36.13C610.57,-31.27 584.33,-25.84 562.01,-21.22"/>
<polygon fill="#63b8ff" stroke="#63b8ff" points="633.29,-39.55 643.79,-38.15 634.71,-32.7 633.29,-39.55"/>
</a>
</g>
</g>
<!-- Node33&#45;&gt;Node25 -->
<g id="edge16_Node000033_Node000025" class="edge">
<title>Node33&#45;&gt;Node25</title>
<g id="a_edge16_Node000033_Node000025"><a xlink:title=" ">
<path fill="none" stroke="#63b8ff" d="M443.28,-62.48C420.81,-67.06 395.86,-72.15 374.39,-76.52"/>
<polygon fill="#63b8ff" stroke="#63b8ff" points="443.85,-65.94 452.95,-60.52 442.45,-59.08 443.85,-65.94"/>
</a>
</g>
</g>
<!-- Node34&#45;&gt;Node25 -->
<g id="edge18_Node000034_Node000025" class="edge">
<title>Node34&#45;&gt;Node25</title>
<g id="a_edge18_Node000034_Node000025"><a xlink:title=" ">
<path fill="none" stroke="#63b8ff" d="M439.37,-24.29C433.25,-26.12 427.22,-28.14 421.5,-30.38 389.77,-42.77 355.92,-63.84 336.75,-76.59"/>
<polygon fill="#63b8ff" stroke="#63b8ff" points="440.25,-27.68 448.94,-21.63 438.37,-20.94 440.25,-27.68"/>
</a>
</g>
</g>
</g>
</svg>
