<?xml version="1.0" encoding="UTF-8" standalone="no"?>
<!DOCTYPE svg PUBLIC "-//W3C//DTD SVG 1.1//EN"
 "http://www.w3.org/Graphics/SVG/1.1/DTD/svg11.dtd">
<!-- Generated by graphviz version 13.1.2 (20250808.2320)
 -->
<!-- Title: kest_scope_propagate_updates Pages: 1 -->
<svg width="595pt" height="176pt"
 viewBox="0.00 0.00 595.00 176.00" xmlns="http://www.w3.org/2000/svg" xmlns:xlink="http://www.w3.org/1999/xlink">
<g id="graph0" class="graph" transform="scale(1 1) rotate(0) translate(4 172.12)">
<title>kest_scope_propagate_updates</title>
<!-- Node1 -->
<g id="Node000001" class="node">
<title>Node1</title>
<g id="a_Node000001"><a xlink:title=" ">
<polygon fill="#999999" stroke="#666666" points="124.75,-85.12 0,-85.12 0,-51.62 124.75,-51.62 124.75,-85.12"/>
<text xml:space="preserve" text-anchor="start" x="8" y="-71.62" font-family="Helvetica,sans-Serif" font-size="10.00">kest_scope_propagate</text>
<text xml:space="preserve" text-anchor="middle" x="62.38" y="-58.88" font-family="Helvetica,sans-Serif" font-size="10.00">_updates</text>
</a>
</g>
</g>
<!-- Node2 -->
<g id="Node000002" class="node">
<title>Node2</title>
<g id="a_Node000002"><a xlink:href="kest__expression_8c.html#a4428080cc6a255e85501a259bdb4dc8a" target="_top" xlink:title=" ">
<polygon fill="white" stroke="#666666" points="276.5,-150.12 160.75,-150.12 160.75,-116.62 276.5,-116.62 276.5,-150.12"/>
<text xml:space="preserve" text-anchor="start" x="168.75" y="-136.62" font-family="Helvetica,sans-Serif" font-size="10.00">kest_expression_get</text>
<text xml:space="preserve" text-anchor="middle" x="218.62" y="-123.88" font-family="Helvetica,sans-Serif" font-size="10.00">_references</text>
</a>
</g>
</g>
<!-- Node1&#45;&gt;Node2 -->
<g id="edge1_Node000001_Node000002" class="edge">
<title>Node1&#45;&gt;Node2</title>
<g id="a_edge1_Node000001_Node000002"><a xlink:title=" ">
<path fill="none" stroke="#63b8ff" d="M104.31,-85.62C123.3,-93.63 146.07,-103.22 166.21,-111.71"/>
<polygon fill="#63b8ff" stroke="#63b8ff" points="164.8,-114.91 175.38,-115.57 167.52,-108.46 164.8,-114.91"/>
</a>
</g>
</g>
<!-- Node10 -->
<g id="Node000010" class="node">
<title>Node10</title>
<g id="a_Node000010"><a xlink:href="kest__expr__scope_8c.html#a4b961bc6e7b1010aacc02440ff92a605" target="_top" xlink:title=" ">
<polygon fill="white" stroke="#666666" points="269.75,-98.75 167.5,-98.75 167.5,-78 269.75,-78 269.75,-98.75"/>
<text xml:space="preserve" text-anchor="middle" x="218.62" y="-85.25" font-family="Helvetica,sans-Serif" font-size="10.00">kest_scope_count</text>
</a>
</g>
</g>
<!-- Node1&#45;&gt;Node10 -->
<g id="edge6_Node000001_Node000010" class="edge">
<title>Node1&#45;&gt;Node10</title>
<g id="a_edge6_Node000001_Node000010"><a xlink:title=" ">
<path fill="none" stroke="#63b8ff" d="M125.23,-76.39C135.33,-77.71 145.81,-79.06 155.91,-80.37"/>
<polygon fill="#63b8ff" stroke="#63b8ff" points="155.26,-83.82 165.63,-81.63 156.16,-76.88 155.26,-83.82"/>
</a>
</g>
</g>
<!-- Node11 -->
<g id="Node000011" class="node">
<title>Node11</title>
<g id="a_Node000011"><a xlink:href="kest__expr__scope_8c.html#a003d0a831a549dab0e93c2ad5c82d14e" target="_top" xlink:title=" ">
<polygon fill="white" stroke="#666666" points="269.75,-59.75 167.5,-59.75 167.5,-39 269.75,-39 269.75,-59.75"/>
<text xml:space="preserve" text-anchor="middle" x="218.62" y="-46.25" font-family="Helvetica,sans-Serif" font-size="10.00">kest_scope_index</text>
</a>
</g>
</g>
<!-- Node1&#45;&gt;Node11 -->
<g id="edge7_Node000001_Node000011" class="edge">
<title>Node1&#45;&gt;Node11</title>
<g id="a_edge7_Node000001_Node000011"><a xlink:title=" ">
<path fill="none" stroke="#63b8ff" d="M125.23,-60.76C135.33,-59.51 145.81,-58.22 155.91,-56.98"/>
<polygon fill="#63b8ff" stroke="#63b8ff" points="156.13,-60.48 165.63,-55.78 155.27,-53.53 156.13,-60.48"/>
</a>
</g>
</g>
<!-- Node12 -->
<g id="Node000012" class="node">
<title>Node12</title>
<g id="a_Node000012"><a xlink:href="kest__expr__scope_8c.html#a536647952c07049da59284b9f928bd67" target="_top" xlink:title=" ">
<polygon fill="white" stroke="#666666" points="272.75,-20.75 164.5,-20.75 164.5,0 272.75,0 272.75,-20.75"/>
<text xml:space="preserve" text-anchor="middle" x="218.62" y="-7.25" font-family="Helvetica,sans-Serif" font-size="10.00">kest_scope_lookup</text>
</a>
</g>
</g>
<!-- Node1&#45;&gt;Node12 -->
<g id="edge8_Node000001_Node000012" class="edge">
<title>Node1&#45;&gt;Node12</title>
<g id="a_edge8_Node000001_Node000012"><a xlink:title=" ">
<path fill="none" stroke="#63b8ff" d="M106.4,-51.22C123.29,-44.58 142.88,-37 160.75,-30.38 165.52,-28.61 170.52,-26.79 175.5,-25.01"/>
<polygon fill="#63b8ff" stroke="#63b8ff" points="176.59,-28.34 184.84,-21.69 174.24,-21.74 176.59,-28.34"/>
</a>
</g>
</g>
<!-- Node3 -->
<g id="Node000003" class="node">
<title>Node3</title>
<g id="a_Node000003"><a xlink:href="kest__expression_8c.html#ad94f03fbe1527e94e7f50f9d5fbda50b" target="_top" xlink:title=" ">
<polygon fill="white" stroke="#666666" points="428.25,-150.12 312.5,-150.12 312.5,-116.62 428.25,-116.62 428.25,-150.12"/>
<text xml:space="preserve" text-anchor="start" x="320.5" y="-136.62" font-family="Helvetica,sans-Serif" font-size="10.00">kest_expression_get</text>
<text xml:space="preserve" text-anchor="middle" x="370.38" y="-123.88" font-family="Helvetica,sans-Serif" font-size="10.00">_references_rec</text>
</a>
</g>
</g>
<!-- Node2&#45;&gt;Node3 -->
<g id="edge2_Node000002_Node000003" class="edge">
<title>Node2&#45;&gt;Node3</title>
<g id="a_edge2_Node000002_Node000003"><a xlink:title=" ">
<path fill="none" stroke="#63b8ff" d="M276.67,-133.38C284.64,-133.38 292.91,-133.38 301.07,-133.38"/>
<polygon fill="#63b8ff" stroke="#63b8ff" points="300.98,-136.88 310.98,-133.38 300.98,-129.88 300.98,-136.88"/>
</a>
</g>
</g>
<!-- Node3&#45;&gt;Node3 -->
<g id="edge4_Node000003_Node000003" class="edge">
<title>Node3&#45;&gt;Node3</title>
<g id="a_edge4_Node000003_Node000003"><a xlink:title=" ">
<path fill="none" stroke="#63b8ff" d="M343.1,-150.54C338.46,-159.74 347.55,-168.12 370.38,-168.12 382.86,-168.12 391.23,-165.62 395.5,-161.84"/>
<polygon fill="#63b8ff" stroke="#63b8ff" points="398.94,-162.5 397.37,-152.03 392.06,-161.19 398.94,-162.5"/>
</a>
</g>
</g>
<!-- Node4 -->
<g id="Node000004" class="node">
<title>Node4</title>
<g id="a_Node000004"><a xlink:href="kest__expression_8c.html#a835e180e79c6b6d2e4377a528949d7a0" target="_top" xlink:title=" ">
<polygon fill="white" stroke="#666666" points="586.75,-166.75 464.25,-166.75 464.25,-146 586.75,-146 586.75,-166.75"/>
<text xml:space="preserve" text-anchor="middle" x="525.5" y="-153.25" font-family="Helvetica,sans-Serif" font-size="10.00">kest_expression_arity</text>
</a>
</g>
</g>
<!-- Node3&#45;&gt;Node4 -->
<g id="edge3_Node000003_Node000004" class="edge">
<title>Node3&#45;&gt;Node4</title>
<g id="a_edge3_Node000003_Node000004"><a xlink:title=" ">
<path fill="none" stroke="#63b8ff" d="M428.39,-141.94C436.25,-143.12 444.41,-144.34 452.49,-145.56"/>
<polygon fill="#63b8ff" stroke="#63b8ff" points="451.94,-149.02 462.35,-147.04 452.98,-142.09 451.94,-149.02"/>
</a>
</g>
</g>
<!-- Node5 -->
<g id="Node000005" class="node">
<title>Node5</title>
<g id="a_Node000005"><a xlink:href="kest__expression_8c.html#aadf2a6a074cb1ad7b45893704cbd71c3" target="_top" xlink:title=" ">
<polygon fill="#fff0f0" stroke="red" points="580.38,-128.12 470.62,-128.12 470.62,-94.62 580.38,-94.62 580.38,-128.12"/>
<text xml:space="preserve" text-anchor="start" x="478.62" y="-114.62" font-family="Helvetica,sans-Serif" font-size="10.00">kest_expression_to</text>
<text xml:space="preserve" text-anchor="middle" x="525.5" y="-101.88" font-family="Helvetica,sans-Serif" font-size="10.00">_string</text>
</a>
</g>
</g>
<!-- Node3&#45;&gt;Node5 -->
<g id="edge5_Node000003_Node000005" class="edge">
<title>Node3&#45;&gt;Node5</title>
<g id="a_edge5_Node000003_Node000005"><a xlink:title=" ">
<path fill="none" stroke="#63b8ff" d="M428.39,-125.18C438.34,-123.75 448.76,-122.26 458.91,-120.8"/>
<polygon fill="#63b8ff" stroke="#63b8ff" points="459.33,-124.27 468.73,-119.39 458.33,-117.35 459.33,-124.27"/>
</a>
</g>
</g>
</g>
</svg>
