<?xml version="1.0" encoding="UTF-8" standalone="no"?>
<!DOCTYPE svg PUBLIC "-//W3C//DTD SVG 1.1//EN"
 "http://www.w3.org/Graphics/SVG/1.1/DTD/svg11.dtd">
<!-- Generated by graphviz version 13.1.2 (20250808.2320)
 -->
<!-- Title: kest_preset_remove_representation Pages: 1 -->
<svg width="369pt" height="42pt"
 viewBox="0.00 0.00 369.00 42.00" xmlns="http://www.w3.org/2000/svg" xmlns:xlink="http://www.w3.org/1999/xlink">
<g id="graph0" class="graph" transform="scale(1 1) rotate(0) translate(4 37.5)">
<title>kest_preset_remove_representation</title>
<!-- Node1 -->
<g id="Node000001" class="node">
<title>Node1</title>
<g id="a_Node000001"><a xlink:title=" ">
<polygon fill="#999999" stroke="#666666" points="115,-33.5 0,-33.5 0,0 115,0 115,-33.5"/>
<text xml:space="preserve" text-anchor="start" x="8" y="-20" font-family="Helvetica,sans-Serif" font-size="10.00">kest_preset_remove</text>
<text xml:space="preserve" text-anchor="middle" x="57.5" y="-7.25" font-family="Helvetica,sans-Serif" font-size="10.00">_representation</text>
</a>
</g>
</g>
<!-- Node2 -->
<g id="Node000002" class="node">
<title>Node2</title>
<g id="a_Node000002"><a xlink:href="kest__representation_8c.html#abd827d8f8c61c9d6cdc67428b2a248dd" target="_top" xlink:title=" ">
<polygon fill="white" stroke="#666666" points="263.75,-33.5 151,-33.5 151,0 263.75,0 263.75,-33.5"/>
<text xml:space="preserve" text-anchor="start" x="159" y="-20" font-family="Helvetica,sans-Serif" font-size="10.00">kest_representation</text>
<text xml:space="preserve" text-anchor="middle" x="207.38" y="-7.25" font-family="Helvetica,sans-Serif" font-size="10.00">_pll_remove</text>
</a>
</g>
</g>
<!-- Node1&#45;&gt;Node2 -->
<g id="edge1_Node000001_Node000002" class="edge">
<title>Node1&#45;&gt;Node2</title>
<g id="a_edge1_Node000001_Node000002"><a xlink:title=" ">
<path fill="none" stroke="#63b8ff" d="M115.25,-16.75C123.02,-16.75 131.06,-16.75 139,-16.75"/>
<polygon fill="#63b8ff" stroke="#63b8ff" points="139,-20.25 149,-16.75 139,-13.25 139,-20.25"/>
</a>
</g>
</g>
<!-- Node3 -->
<g id="Node000003" class="node">
<title>Node3</title>
<g id="a_Node000003"><a xlink:href="kest__alloc_8c.html#a294af5728a94aa316fcf65304d388d48" target="_top" xlink:title=" ">
<polygon fill="white" stroke="#666666" points="360.75,-27.12 299.75,-27.12 299.75,-6.38 360.75,-6.38 360.75,-27.12"/>
<text xml:space="preserve" text-anchor="middle" x="330.25" y="-13.62" font-family="Helvetica,sans-Serif" font-size="10.00">kest_free</text>
</a>
</g>
</g>
<!-- Node2&#45;&gt;Node3 -->
<g id="edge2_Node000002_Node000003" class="edge">
<title>Node2&#45;&gt;Node3</title>
<g id="a_edge2_Node000002_Node000003"><a xlink:title=" ">
<path fill="none" stroke="#63b8ff" d="M264.21,-16.75C272.26,-16.75 280.42,-16.75 288.12,-16.75"/>
<polygon fill="#63b8ff" stroke="#63b8ff" points="287.85,-20.25 297.85,-16.75 287.85,-13.25 287.85,-20.25"/>
</a>
</g>
</g>
</g>
</svg>
