<?xml version="1.0" encoding="UTF-8" standalone="no"?>
<!DOCTYPE svg PUBLIC "-//W3C//DTD SVG 1.1//EN"
 "http://www.w3.org/Graphics/SVG/1.1/DTD/svg11.dtd">
<!-- Generated by graphviz version 13.1.2 (20250808.2320)
 -->
<!-- Title: kest_parameter_get_range Pages: 1 -->
<!--zoomable 286 -->

<svg id="main" version="1.1" xmlns="http://www.w3.org/2000/svg" xmlns:xlink="http://www.w3.org/1999/xlink" xml:space="preserve" onload="init(evt)">

<style type="text/css"><![CDATA[
.node, .edge {opacity: 0.7;}
.node.selected, .edge.selected {opacity: 1;}
.edge:hover path { stroke: red; }
.edge:hover polygon { stroke: red; fill: red; }
]]></style>

<defs>
  <circle id="rim" cx="0" cy="0" r="7"/>
  <circle id="rim2" cx="0" cy="0" r="3.5"/>
  <g id="zoomPlus">
    <use xlink:href="#rim" fill="#404040"><set attributeName="fill" to="#808080" begin="zoomplus.mouseover" end="zoomplus.mouseout"/></use>
    <path d="M-4,0h8M0,-4v8" fill="none" stroke="white" stroke-width="1.5" pointer-events="none"/>
  </g>
  <g id="zoomMin">
    <use xlink:href="#rim" fill="#404040"><set attributeName="fill" to="#808080" begin="zoomminus.mouseover" end="zoomminus.mouseout"/></use>
    <path d="M-4,0h8" fill="none" stroke="white" stroke-width="1.5" pointer-events="none"/>
  </g>
  <g id="arrowUp" transform="translate(30 24)">
    <use xlink:href="#rim"/>
    <path pointer-events="none" fill="none" stroke="white" stroke-width="1.5" d="M0,-3.0v7 M-2.5,-0.5L0,-3.0L2.5,-0.5"/>
  </g>
  <g id="arrowRight" transform="rotate(90) translate(36 -43)">
    <use xlink:href="#rim"/>
    <path pointer-events="none" fill="none" stroke="white" stroke-width="1.5" d="M0,-3.0v7 M-2.5,-0.5L0,-3.0L2.5,-0.5"/>
  </g>
  <g id="arrowDown" transform="rotate(180) translate(-30 -48)">
    <use xlink:href="#rim"/>
    <path pointer-events="none" fill="none" stroke="white" stroke-width="1.5" d="M0,-3.0v7 M-2.5,-0.5L0,-3.0L2.5,-0.5"/>
  </g>
  <g id="arrowLeft" transform="rotate(270) translate(-36 17)">
    <use xlink:href="#rim"/>
    <path pointer-events="none" fill="none" stroke="white" stroke-width="1.5" d="M0,-3.0v7 M-2.5,-0.5L0,-3.0L2.5,-0.5"/>
  </g>
  <g id="resetDef">
    <use xlink:href="#rim2" fill="#404040"><set attributeName="fill" to="#808080" begin="reset.mouseover" end="reset.mouseout"/></use>
  </g>
</defs>
<script type="application/ecmascript">
var viewWidth = 799;
var viewHeight = 286;
var sectionId = 'dynsection-26';
</script>
<script type="application/ecmascript" xlink:href="svg.min.js"/>
<svg id="graph" class="graph">
<g id="viewport">
<title>kest_parameter_get_range</title>
<!-- Node1 -->
<g id="Node000001" class="node">
<title>Node1</title>
<g id="a_Node000001"><a xlink:title=" ">
<polygon fill="#999999" stroke="#666666" points="113.5,-94.12 0,-94.12 0,-60.62 113.5,-60.62 113.5,-94.12"/>
<text xml:space="preserve" text-anchor="start" x="8" y="-80.62" font-family="Helvetica,sans-Serif" font-size="10.00">kest_parameter_get</text>
<text xml:space="preserve" text-anchor="middle" x="56.75" y="-67.88" font-family="Helvetica,sans-Serif" font-size="10.00">_range</text>
</a>
</g>
</g>
<!-- Node2 -->
<g id="Node000002" class="node">
<title>Node2</title>
<g id="a_Node000002"><a xlink:href="kest__parameter_8c.html#a7cf51c19ac7f4f01c97a788a7365c889" target="_top" xlink:title=" ">
<polygon fill="white" stroke="#666666" points="263,-94.12 149.5,-94.12 149.5,-60.62 263,-60.62 263,-94.12"/>
<text xml:space="preserve" text-anchor="start" x="157.5" y="-80.62" font-family="Helvetica,sans-Serif" font-size="10.00">kest_parameter_get</text>
<text xml:space="preserve" text-anchor="middle" x="206.25" y="-67.88" font-family="Helvetica,sans-Serif" font-size="10.00">_range_rec</text>
</a>
</g>
</g>
<!-- Node1&#45;&gt;Node2 -->
<g id="edge1_Node000001_Node000002" class="edge">
<title>Node1&#45;&gt;Node2</title>
<g id="a_edge1_Node000001_Node000002"><a xlink:title=" ">
<path fill="none" stroke="#63b8ff" d="M113.93,-77.38C121.79,-77.38 129.93,-77.38 137.97,-77.38"/>
<polygon fill="#63b8ff" stroke="#63b8ff" points="137.71,-80.88 147.71,-77.38 137.71,-73.88 137.71,-80.88"/>
</a>
</g>
</g>
<!-- Node3 -->
<g id="Node000003" class="node">
<title>Node3</title>
<g id="a_Node000003"><a xlink:href="kest__expression_8c.html#aa4b7d57f1458bb40fc2d8fdab7c605fc" target="_top" xlink:title=" ">
<polygon fill="white" stroke="#666666" points="462,-188.75 299,-188.75 299,-168 462,-168 462,-188.75"/>
<text xml:space="preserve" text-anchor="middle" x="380.5" y="-175.25" font-family="Helvetica,sans-Serif" font-size="10.00">kest_expression_evaluate_rec</text>
</a>
</g>
</g>
<!-- Node2&#45;&gt;Node3 -->
<g id="edge2_Node000002_Node000003" class="edge">
<title>Node2&#45;&gt;Node3</title>
<g id="a_edge2_Node000002_Node000003"><a xlink:title=" ">
<path fill="none" stroke="#63b8ff" d="M236.47,-94.51C268.55,-113.32 319.69,-143.31 351.34,-161.87"/>
<polygon fill="#63b8ff" stroke="#63b8ff" points="349.57,-164.88 359.97,-166.92 353.11,-158.85 349.57,-164.88"/>
</a>
</g>
</g>
<!-- Node10 -->
<g id="Node000010" class="node">
<title>Node10</title>
<g id="a_Node000010"><a xlink:href="kest__expression_8c.html#a05276e5a18cc3b52dfc8a17bb101c832" target="_top" xlink:title=" ">
<polygon fill="white" stroke="#666666" points="615.62,-110.75 527.62,-110.75 527.62,-90 615.62,-90 615.62,-110.75"/>
<text xml:space="preserve" text-anchor="middle" x="571.62" y="-97.25" font-family="Helvetica,sans-Serif" font-size="10.00">max_depth_bp</text>
</a>
</g>
</g>
<!-- Node2&#45;&gt;Node10 -->
<g id="edge14_Node000002_Node000010" class="edge">
<title>Node2&#45;&gt;Node10</title>
<g id="a_edge14_Node000002_Node000010"><a xlink:title=" ">
<path fill="none" stroke="#63b8ff" d="M263.23,-80.92C331.92,-85.27 447.63,-92.59 515.79,-96.9"/>
<polygon fill="#63b8ff" stroke="#63b8ff" points="515.42,-100.39 525.62,-97.53 515.86,-93.4 515.42,-100.39"/>
</a>
</g>
</g>
<!-- Node20 -->
<g id="Node000020" class="node">
<title>Node20</title>
<g id="a_Node000020"><a xlink:href="kest__expression_8c.html#a5f426c56ff63e0e740b12dbb629b89db" target="_top" xlink:title=" ">
<polygon fill="white" stroke="#666666" points="434.62,-72.12 326.38,-72.12 326.38,-38.62 434.62,-38.62 434.62,-72.12"/>
<text xml:space="preserve" text-anchor="start" x="334.38" y="-58.62" font-family="Helvetica,sans-Serif" font-size="10.00">kest_expression_is</text>
<text xml:space="preserve" text-anchor="middle" x="380.5" y="-45.88" font-family="Helvetica,sans-Serif" font-size="10.00">_constant</text>
</a>
</g>
</g>
<!-- Node2&#45;&gt;Node20 -->
<g id="edge11_Node000002_Node000020" class="edge">
<title>Node2&#45;&gt;Node20</title>
<g id="a_edge11_Node000002_Node000020"><a xlink:title=" ">
<path fill="none" stroke="#63b8ff" d="M263.17,-70.23C279.69,-68.12 297.91,-65.8 314.93,-63.62"/>
<polygon fill="#63b8ff" stroke="#63b8ff" points="314.93,-67.15 324.41,-62.41 314.04,-60.21 314.93,-67.15"/>
</a>
</g>
</g>
<!-- Node22 -->
<g id="Node000022" class="node">
<title>Node22</title>
<g id="a_Node000022"><a xlink:href="kest__expression_8c.html#a8831b010403eeba4bddedca70a446ce1" target="_top" xlink:title=" ">
<polygon fill="white" stroke="#666666" points="443.62,-20.75 317.38,-20.75 317.38,0 443.62,0 443.62,-20.75"/>
<text xml:space="preserve" text-anchor="middle" x="380.5" y="-7.25" font-family="Helvetica,sans-Serif" font-size="10.00">kest_interval_real_line</text>
</a>
</g>
</g>
<!-- Node2&#45;&gt;Node22 -->
<g id="edge13_Node000002_Node000022" class="edge">
<title>Node2&#45;&gt;Node22</title>
<g id="a_edge13_Node000002_Node000022"><a xlink:title=" ">
<path fill="none" stroke="#63b8ff" d="M235.33,-60.33C253.07,-50.17 276.77,-37.67 299,-29.38 303.95,-27.53 309.15,-25.82 314.41,-24.25"/>
<polygon fill="#63b8ff" stroke="#63b8ff" points="315.11,-27.69 323.79,-21.62 313.22,-20.95 315.11,-27.69"/>
</a>
</g>
</g>
<!-- Node3&#45;&gt;Node3 -->
<g id="edge4_Node000003_Node000003" class="edge">
<title>Node3&#45;&gt;Node3</title>
<g id="a_edge4_Node000003_Node000003"><a xlink:title=" ">
<path fill="none" stroke="#63b8ff" d="M352.42,-189.15C341.19,-197.81 350.55,-206.75 380.5,-206.75 396.88,-206.75 407.1,-204.08 411.16,-200.24"/>
<polygon fill="#63b8ff" stroke="#63b8ff" points="414.6,-199.57 408.92,-190.62 407.78,-201.15 414.6,-199.57"/>
</a>
</g>
</g>
<!-- Node4 -->
<g id="Node000004" class="node">
<title>Node4</title>
<g id="a_Node000004"><a xlink:href="kest__error__codes_8c.html#a0f4c77127bc0b77264a21104979c576a" target="_top" xlink:title=" ">
<polygon fill="white" stroke="#666666" points="625.75,-278.12 517.5,-278.12 517.5,-244.62 625.75,-244.62 625.75,-278.12"/>
<text xml:space="preserve" text-anchor="start" x="525.5" y="-264.62" font-family="Helvetica,sans-Serif" font-size="10.00">kest_error_code_to</text>
<text xml:space="preserve" text-anchor="middle" x="571.62" y="-251.88" font-family="Helvetica,sans-Serif" font-size="10.00">_string</text>
</a>
</g>
</g>
<!-- Node3&#45;&gt;Node4 -->
<g id="edge3_Node000003_Node000004" class="edge">
<title>Node3&#45;&gt;Node4</title>
<g id="a_edge3_Node000003_Node000004"><a xlink:title=" ">
<path fill="none" stroke="#63b8ff" d="M405.55,-189.25C429.07,-199.85 465.93,-216.37 498,-230.38 505.01,-233.43 512.41,-236.63 519.7,-239.76"/>
<polygon fill="#63b8ff" stroke="#63b8ff" points="518.28,-242.96 528.85,-243.68 521.03,-236.53 518.28,-242.96"/>
</a>
</g>
</g>
<!-- Node5 -->
<g id="Node000005" class="node">
<title>Node5</title>
<g id="a_Node000005"><a xlink:href="kest__expression_8c.html#aadf2a6a074cb1ad7b45893704cbd71c3" target="_top" xlink:title=" ">
<polygon fill="#fff0f0" stroke="red" points="791,-214.12 681.25,-214.12 681.25,-180.62 791,-180.62 791,-214.12"/>
<text xml:space="preserve" text-anchor="start" x="689.25" y="-200.62" font-family="Helvetica,sans-Serif" font-size="10.00">kest_expression_to</text>
<text xml:space="preserve" text-anchor="middle" x="736.12" y="-187.88" font-family="Helvetica,sans-Serif" font-size="10.00">_string</text>
</a>
</g>
</g>
<!-- Node3&#45;&gt;Node5 -->
<g id="edge5_Node000003_Node000005" class="edge">
<title>Node3&#45;&gt;Node5</title>
<g id="a_edge5_Node000003_Node000005"><a xlink:title=" ">
<path fill="none" stroke="#63b8ff" d="M436.39,-189.2C455.77,-192.52 477.78,-195.74 498,-197.38 555.81,-202.06 621.81,-201.59 669.47,-200.22"/>
<polygon fill="#63b8ff" stroke="#63b8ff" points="669.47,-203.72 679.36,-199.91 669.26,-196.72 669.47,-203.72"/>
</a>
</g>
</g>
<!-- Node11 -->
<g id="Node000011" class="node">
<title>Node11</title>
<g id="a_Node000011"><a xlink:href="kest__expr__scope_8c.html#ab4b2ce40beae39f7dc02743730a37ec7" target="_top" xlink:title=" ">
<polygon fill="#fff0f0" stroke="red" points="645.25,-188.75 498,-188.75 498,-168 645.25,-168 645.25,-188.75"/>
<text xml:space="preserve" text-anchor="middle" x="571.62" y="-175.25" font-family="Helvetica,sans-Serif" font-size="10.00">kest_scope_entry_eval_rec</text>
</a>
</g>
</g>
<!-- Node3&#45;&gt;Node11 -->
<g id="edge6_Node000003_Node000011" class="edge">
<title>Node3&#45;&gt;Node11</title>
<g id="a_edge6_Node000003_Node000011"><a xlink:title=" ">
<path fill="none" stroke="#63b8ff" d="M462.25,-171.69C470.24,-171.61 478.36,-171.6 486.37,-171.66"/>
<polygon fill="#63b8ff" stroke="#63b8ff" points="486.07,-175.16 496.11,-171.77 486.14,-168.16 486.07,-175.16"/>
</a>
</g>
</g>
<!-- Node19 -->
<g id="Node000019" class="node">
<title>Node19</title>
<g id="a_Node000019"><a xlink:href="kest__expr__scope_8c.html#a8a0fbd22e0deccdaee632b2a95d4aee5" target="_top" xlink:title=" ">
<polygon fill="white" stroke="#666666" points="621.62,-149.75 521.62,-149.75 521.62,-129 621.62,-129 621.62,-149.75"/>
<text xml:space="preserve" text-anchor="middle" x="571.62" y="-136.25" font-family="Helvetica,sans-Serif" font-size="10.00">kest_scope_fetch</text>
</a>
</g>
</g>
<!-- Node3&#45;&gt;Node19 -->
<g id="edge9_Node000003_Node000019" class="edge">
<title>Node3&#45;&gt;Node19</title>
<g id="a_edge9_Node000003_Node000019"><a xlink:title=" ">
<path fill="none" stroke="#63b8ff" d="M434.18,-167.51C457.78,-162.64 485.74,-156.88 510.19,-151.84"/>
<polygon fill="#63b8ff" stroke="#63b8ff" points="510.58,-155.33 519.67,-149.88 509.17,-148.48 510.58,-155.33"/>
</a>
</g>
</g>
<!-- Node3&#45;&gt;Node10 -->
<g id="edge10_Node000003_Node000010" class="edge">
<title>Node3&#45;&gt;Node10</title>
<g id="a_edge10_Node000003_Node000010"><a xlink:title=" ">
<path fill="none" stroke="#63b8ff" d="M400.36,-167.56C422.99,-154.92 462.34,-134.02 498,-120.38 503.95,-118.1 510.26,-115.97 516.58,-114"/>
<polygon fill="#63b8ff" stroke="#63b8ff" points="517.13,-117.49 525.72,-111.3 515.14,-110.78 517.13,-117.49"/>
</a>
</g>
</g>
<!-- Node11&#45;&gt;Node3 -->
<g id="edge7_Node000011_Node000003" class="edge">
<title>Node11&#45;&gt;Node3</title>
<g id="a_edge7_Node000011_Node000003"><a xlink:title=" ">
<path fill="none" stroke="#63b8ff" d="M497.62,-184.97C489.75,-185.08 481.67,-185.14 473.61,-185.12"/>
<polygon fill="#63b8ff" stroke="#63b8ff" points="473.79,-181.62 463.77,-185.07 473.75,-188.62 473.79,-181.62"/>
</a>
</g>
</g>
<!-- Node11&#45;&gt;Node5 -->
<g id="edge8_Node000011_Node000005" class="edge">
<title>Node11&#45;&gt;Node5</title>
<g id="a_edge8_Node000011_Node000005"><a xlink:title=" ">
<path fill="none" stroke="#63b8ff" d="M645.32,-186.87C653.48,-187.83 661.75,-188.8 669.8,-189.74"/>
<polygon fill="#63b8ff" stroke="#63b8ff" points="669.17,-193.19 679.51,-190.87 669.98,-186.23 669.17,-193.19"/>
</a>
</g>
</g>
<!-- Node21 -->
<g id="Node000021" class="node">
<title>Node21</title>
<g id="a_Node000021"><a xlink:href="kest__expression_8c.html#a9f7a466a9bc6d2622e7d36f2bec6df7e" target="_top" xlink:title=" ">
<polygon fill="white" stroke="#666666" points="629.12,-72.12 514.12,-72.12 514.12,-38.62 629.12,-38.62 629.12,-72.12"/>
<text xml:space="preserve" text-anchor="start" x="522.12" y="-58.62" font-family="Helvetica,sans-Serif" font-size="10.00">kest_expression_is</text>
<text xml:space="preserve" text-anchor="middle" x="571.62" y="-45.88" font-family="Helvetica,sans-Serif" font-size="10.00">_constant_reference</text>
</a>
</g>
</g>
<!-- Node20&#45;&gt;Node21 -->
<g id="edge12_Node000020_Node000021" class="edge">
<title>Node20&#45;&gt;Node21</title>
<g id="a_edge12_Node000020_Node000021"><a xlink:title=" ">
<path fill="none" stroke="#63b8ff" d="M434.94,-55.38C455.87,-55.38 480.13,-55.38 502.31,-55.38"/>
<polygon fill="#63b8ff" stroke="#63b8ff" points="502.17,-58.88 512.17,-55.38 502.17,-51.88 502.17,-58.88"/>
</a>
</g>
</g>
</g>
</svg>

<g id="navigator" transform="translate(0 0)" fill="#404254">
  <rect fill="#f2f5e9" fill-opacity="0.5" stroke="#606060" stroke-width=".5" x="0" y="0" width="60" height="60"/>
  <use id="zoomplus" xlink:href="#zoomPlus" x="17" y="9" onmousedown="handleZoom(evt,'in')"/>
  <use id="zoomminus" xlink:href="#zoomMin" x="42" y="9" onmousedown="handleZoom(evt,'out')"/>
  <use id="reset" xlink:href="#resetDef" x="30" y="36" onmousedown="handleReset()"/>
   <use id="arrowup" xlink:href="#arrowUp" x="0" y="0" onmousedown="handlePan(0,-1)"/>
  <use id="arrowright" xlink:href="#arrowRight" x="0" y="0" onmousedown="handlePan(1,0)"/>
  <use id="arrowdown" xlink:href="#arrowDown" x="0" y="0" onmousedown="handlePan(0,1)"/>
  <use id="arrowleft" xlink:href="#arrowLeft" x="0" y="0" onmousedown="handlePan(-1,0)"/>
</g>
<svg viewBox="0 0 15 15" width="100%" height="30px" preserveAspectRatio="xMaxYMin meet">
 <g id="arrow_out" transform="scale(0.3 0.3)">
  <a xlink:href="kest__parameter_8c_aed9bf2d04b704f1d4119124999a692e0_cgraph_org.svg" target="_base">
   <rect id="button" ry="5" rx="5" y="6" x="6" height="38" width="38"
        fill="#f2f5e9" fill-opacity="0.5" stroke="#606060" stroke-width="1.0"/>
   <path id="arrow"
     d="M 11.500037,31.436501 C 11.940474,20.09759 22.043105,11.32322 32.158766,21.979434 L 37.068811,17.246167 C 37.068811,17.246167 37.088388,32 37.088388,32 L 22.160133,31.978069 C 22.160133,31.978069 26.997745,27.140456 26.997745,27.140456 C 18.528582,18.264221 13.291696,25.230495 11.500037,31.436501 z"
     style="fill:#404040;"/>
  </a>
 </g>
</svg>

<style type='text/css'>
<![CDATA[
[data-mouse-over-selected='false'] { opacity: 0.7; }
[data-mouse-over-selected='true']  { opacity: 1.0; }
]]>
</style>
<script type="application/ecmascript"><![CDATA[
document.addEventListener('DOMContentLoaded', (event) => {
  highlightEdges();
  highlightAdjacentNodes();
});
]]></script>
</svg>
