<?xml version="1.0" encoding="UTF-8" standalone="no"?>
<!DOCTYPE svg PUBLIC "-//W3C//DTD SVG 1.1//EN"
 "http://www.w3.org/Graphics/SVG/1.1/DTD/svg11.dtd">
<!-- Generated by graphviz version 13.1.2 (20250808.2320)
 -->
<!-- Title: token_to_float Pages: 1 -->
<svg width="868pt" height="113pt"
 viewBox="0.00 0.00 868.00 113.00" xmlns="http://www.w3.org/2000/svg" xmlns:xlink="http://www.w3.org/1999/xlink">
<g id="graph0" class="graph" transform="scale(1 1) rotate(0) translate(4 108.75)">
<title>token_to_float</title>
<!-- Node1 -->
<g id="Node000001" class="node">
<title>Node1</title>
<g id="a_Node000001"><a xlink:title=" ">
<polygon fill="#999999" stroke="#666666" points="859.5,-75.75 773.75,-75.75 773.75,-55 859.5,-55 859.5,-75.75"/>
<text xml:space="preserve" text-anchor="middle" x="816.62" y="-62.25" font-family="Helvetica,sans-Serif" font-size="10.00">token_to_float</text>
</a>
</g>
</g>
<!-- Node2 -->
<g id="Node000002" class="node">
<title>Node2</title>
<g id="a_Node000002"><a xlink:href="kest__asm__parser_8c.html#a93fe9789a6b0162607601862f5fa9c8c" target="_top" xlink:title=" ">
<polygon fill="white" stroke="#666666" points="411.75,-104.75 284.75,-104.75 284.75,-84 411.75,-84 411.75,-104.75"/>
<text xml:space="preserve" text-anchor="middle" x="348.25" y="-91.25" font-family="Helvetica,sans-Serif" font-size="10.00">kest_parse_asm_arg_2</text>
</a>
</g>
</g>
<!-- Node1&#45;&gt;Node2 -->
<g id="edge1_Node000001_Node000002" class="edge">
<title>Node1&#45;&gt;Node2</title>
<g id="a_edge1_Node000001_Node000002"><a xlink:title=" ">
<path fill="none" stroke="#63b8ff" d="M762.03,-75.22C753.91,-76.45 745.63,-77.56 737.75,-78.38 623.27,-90.24 488.95,-93.4 412,-94.18"/>
<polygon fill="#63b8ff" stroke="#63b8ff" points="762.5,-78.69 771.82,-73.66 761.4,-71.78 762.5,-78.69"/>
</a>
</g>
</g>
<!-- Node18 -->
<g id="Node000018" class="node">
<title>Node18</title>
<g id="a_Node000018"><a xlink:href="kest__expr__parser_8c.html#adf0188b23902aff2ddacb388e811412e" target="_top" xlink:title=" ">
<polygon fill="white" stroke="#666666" points="737.75,-51.12 610.75,-51.12 610.75,-17.62 737.75,-17.62 737.75,-51.12"/>
<text xml:space="preserve" text-anchor="start" x="618.75" y="-37.62" font-family="Helvetica,sans-Serif" font-size="10.00">kest_parse_expression</text>
<text xml:space="preserve" text-anchor="middle" x="674.25" y="-24.88" font-family="Helvetica,sans-Serif" font-size="10.00">_rec_pratt</text>
</a>
</g>
</g>
<!-- Node1&#45;&gt;Node18 -->
<g id="edge4_Node000001_Node000018" class="edge">
<title>Node1&#45;&gt;Node18</title>
<g id="a_edge4_Node000001_Node000018"><a xlink:title=" ">
<path fill="none" stroke="#63b8ff" d="M762.5,-53.64C754.53,-51.88 746.25,-50.05 738.1,-48.25"/>
<polygon fill="#63b8ff" stroke="#63b8ff" points="761.51,-57.01 772.03,-55.75 763.02,-50.17 761.51,-57.01"/>
</a>
</g>
</g>
<!-- Node3 -->
<g id="Node000003" class="node">
<title>Node3</title>
<g id="a_Node000003"><a xlink:href="kest__asm__parser_8c.html#a8a0d633256a85b35706b7a9ef1add7f0" target="_top" xlink:title=" ">
<polygon fill="white" stroke="#666666" points="248.75,-104.75 130.75,-104.75 130.75,-84 248.75,-84 248.75,-104.75"/>
<text xml:space="preserve" text-anchor="middle" x="189.75" y="-91.25" font-family="Helvetica,sans-Serif" font-size="10.00">kest_parse_asm_line</text>
</a>
</g>
</g>
<!-- Node2&#45;&gt;Node3 -->
<g id="edge2_Node000002_Node000003" class="edge">
<title>Node2&#45;&gt;Node3</title>
<g id="a_edge2_Node000002_Node000003"><a xlink:title=" ">
<path fill="none" stroke="#63b8ff" d="M273.19,-94.38C265.14,-94.38 257.03,-94.38 249.2,-94.38"/>
<polygon fill="#63b8ff" stroke="#63b8ff" points="272.98,-97.88 282.98,-94.38 272.98,-90.88 272.98,-97.88"/>
</a>
</g>
</g>
<!-- Node4 -->
<g id="Node000004" class="node">
<title>Node4</title>
<g id="a_Node000004"><a xlink:href="kest__asm__parser_8c.html#a1b7e03dd7589f652dec13b4b2c6d0a5c" target="_top" xlink:title=" ">
<polygon fill="#fff0f0" stroke="red" points="94.75,-104.75 0,-104.75 0,-84 94.75,-84 94.75,-104.75"/>
<text xml:space="preserve" text-anchor="middle" x="47.38" y="-91.25" font-family="Helvetica,sans-Serif" font-size="10.00">kest_parse_asm</text>
</a>
</g>
</g>
<!-- Node3&#45;&gt;Node4 -->
<g id="edge3_Node000003_Node000004" class="edge">
<title>Node3&#45;&gt;Node4</title>
<g id="a_edge3_Node000003_Node000004"><a xlink:title=" ">
<path fill="none" stroke="#63b8ff" d="M119.05,-94.38C110.96,-94.38 102.86,-94.38 95.18,-94.38"/>
<polygon fill="#63b8ff" stroke="#63b8ff" points="118.92,-97.88 128.92,-94.38 118.92,-90.88 118.92,-97.88"/>
</a>
</g>
</g>
<!-- Node18&#45;&gt;Node18 -->
<g id="edge9_Node000018_Node000018" class="edge">
<title>Node18&#45;&gt;Node18</title>
<g id="a_edge9_Node000018_Node000018"><a xlink:title=" ">
<path fill="none" stroke="#63b8ff" d="M697.82,-62.84C693.82,-66.62 685.96,-69.12 674.25,-69.12 652.84,-69.12 644.31,-60.74 648.66,-51.54"/>
<polygon fill="#63b8ff" stroke="#63b8ff" points="701.26,-63.49 699.58,-53.03 694.37,-62.26 701.26,-63.49"/>
</a>
</g>
</g>
<!-- Node19 -->
<g id="Node000019" class="node">
<title>Node19</title>
<g id="a_Node000019"><a xlink:href="kest__expr__parser_8c.html#a7caaee6c8b0c14b3ff08fba98d837ead" target="_top" xlink:title=" ">
<polygon fill="white" stroke="#666666" points="574.75,-56.75 447.75,-56.75 447.75,-36 574.75,-36 574.75,-56.75"/>
<text xml:space="preserve" text-anchor="middle" x="511.25" y="-43.25" font-family="Helvetica,sans-Serif" font-size="10.00">kest_parse_expression</text>
</a>
</g>
</g>
<!-- Node18&#45;&gt;Node19 -->
<g id="edge5_Node000018_Node000019" class="edge">
<title>Node18&#45;&gt;Node19</title>
<g id="a_edge5_Node000018_Node000019"><a xlink:title=" ">
<path fill="none" stroke="#63b8ff" d="M599.22,-39.89C591.14,-40.5 582.97,-41.1 575.05,-41.69"/>
<polygon fill="#63b8ff" stroke="#63b8ff" points="599.32,-43.4 609.03,-39.16 598.8,-36.41 599.32,-43.4"/>
</a>
</g>
</g>
<!-- Node19&#45;&gt;Node2 -->
<g id="edge7_Node000019_Node000002" class="edge">
<title>Node19&#45;&gt;Node2</title>
<g id="a_edge7_Node000019_Node000002"><a xlink:title=" ">
<path fill="none" stroke="#63b8ff" d="M463.14,-60.42C438.38,-67.8 408.48,-76.72 385.54,-83.56"/>
<polygon fill="#63b8ff" stroke="#63b8ff" points="464.08,-63.79 472.67,-57.58 462.08,-57.08 464.08,-63.79"/>
</a>
</g>
</g>
<!-- Node20 -->
<g id="Node000020" class="node">
<title>Node20</title>
<g id="a_Node000020"><a xlink:href="kest__asm__parser_8c.html#a975cb5ec55968124f930a9a35fe564c5" target="_top" xlink:title=" ">
<polygon fill="white" stroke="#666666" points="406.12,-59.75 290.38,-59.75 290.38,-39 406.12,-39 406.12,-59.75"/>
<text xml:space="preserve" text-anchor="middle" x="348.25" y="-46.25" font-family="Helvetica,sans-Serif" font-size="10.00">kest_parse_asm_arg</text>
</a>
</g>
</g>
<!-- Node19&#45;&gt;Node20 -->
<g id="edge6_Node000019_Node000020" class="edge">
<title>Node19&#45;&gt;Node20</title>
<g id="a_edge6_Node000019_Node000020"><a xlink:title=" ">
<path fill="none" stroke="#63b8ff" d="M436.34,-47.75C426.33,-47.94 416.19,-48.13 406.53,-48.31"/>
<polygon fill="#63b8ff" stroke="#63b8ff" points="436.1,-51.26 446.03,-47.57 435.97,-44.26 436.1,-51.26"/>
</a>
</g>
</g>
<!-- Node21 -->
<g id="Node000021" class="node">
<title>Node21</title>
<g id="a_Node000021"><a xlink:href="kest__dictionary_8c.html#af0aceaa93cba06fd44ad4bc50f2418e4" target="_top" xlink:title=" ">
<polygon fill="#fff0f0" stroke="red" points="404.25,-20.75 292.25,-20.75 292.25,0 404.25,0 404.25,-20.75"/>
<text xml:space="preserve" text-anchor="middle" x="348.25" y="-7.25" font-family="Helvetica,sans-Serif" font-size="10.00">kest_parse_dict_val</text>
</a>
</g>
</g>
<!-- Node19&#45;&gt;Node21 -->
<g id="edge8_Node000019_Node000021" class="edge">
<title>Node19&#45;&gt;Node21</title>
<g id="a_edge8_Node000019_Node000021"><a xlink:title=" ">
<path fill="none" stroke="#63b8ff" d="M450.73,-33.07C433.3,-29.17 414.46,-24.96 397.8,-21.23"/>
<polygon fill="#63b8ff" stroke="#63b8ff" points="449.94,-36.48 460.47,-35.24 451.47,-29.65 449.94,-36.48"/>
</a>
</g>
</g>
</g>
</svg>
