<?xml version="1.0" encoding="UTF-8" standalone="no"?>
<!DOCTYPE svg PUBLIC "-//W3C//DTD SVG 1.1//EN"
 "http://www.w3.org/Graphics/SVG/1.1/DTD/svg11.dtd">
<!-- Generated by graphviz version 13.1.2 (20250808.2320)
 -->
<!-- Title: kest_scope_entry_add_dependent_block_reg Pages: 1 -->
<svg width="1000pt" height="112pt"
 viewBox="0.00 0.00 1000.00 112.00" xmlns="http://www.w3.org/2000/svg" xmlns:xlink="http://www.w3.org/1999/xlink">
<g id="graph0" class="graph" transform="scale(1 1) rotate(0) translate(4 107.5)">
<title>kest_scope_entry_add_dependent_block_reg</title>
<!-- Node1 -->
<g id="Node000001" class="node">
<title>Node1</title>
<g id="a_Node000001"><a xlink:title=" ">
<polygon fill="#999999" stroke="#666666" points="991.5,-67.5 866,-67.5 866,-34 991.5,-34 991.5,-67.5"/>
<text xml:space="preserve" text-anchor="start" x="874" y="-54" font-family="Helvetica,sans-Serif" font-size="10.00">kest_scope_entry_add</text>
<text xml:space="preserve" text-anchor="middle" x="928.75" y="-41.25" font-family="Helvetica,sans-Serif" font-size="10.00">_dependent_block_reg</text>
</a>
</g>
</g>
<!-- Node2 -->
<g id="Node000002" class="node">
<title>Node2</title>
<g id="a_Node000002"><a xlink:href="kest__expr__scope_8c.html#a62815d9489a1f274ff62875d9c3e53e1" target="_top" xlink:title=" ">
<polygon fill="white" stroke="#666666" points="656.12,-103.5 531.38,-103.5 531.38,-70 656.12,-70 656.12,-103.5"/>
<text xml:space="preserve" text-anchor="start" x="539.38" y="-90" font-family="Helvetica,sans-Serif" font-size="10.00">kest_scope_add_block</text>
<text xml:space="preserve" text-anchor="middle" x="593.75" y="-77.25" font-family="Helvetica,sans-Serif" font-size="10.00">_reg_dependencies</text>
</a>
</g>
</g>
<!-- Node1&#45;&gt;Node2 -->
<g id="edge1_Node000001_Node000002" class="edge">
<title>Node1&#45;&gt;Node2</title>
<g id="a_edge1_Node000001_Node000002"><a xlink:title=" ">
<path fill="none" stroke="#63b8ff" d="M854.33,-58.69C794.98,-65.1 712.37,-74.03 656.41,-80.08"/>
<polygon fill="#63b8ff" stroke="#63b8ff" points="854.44,-62.2 864,-57.64 853.68,-55.24 854.44,-62.2"/>
</a>
</g>
</g>
<!-- Node31 -->
<g id="Node000031" class="node">
<title>Node31</title>
<g id="a_Node000031"><a xlink:href="kest__expr__scope_8c.html#a8599558aef23a41dd9b43bfa790c35ef" target="_top" xlink:title=" ">
<polygon fill="white" stroke="#666666" points="830,-45.5 706,-45.5 706,-12 830,-12 830,-45.5"/>
<text xml:space="preserve" text-anchor="start" x="714" y="-32" font-family="Helvetica,sans-Serif" font-size="10.00">kest_scope_entry_add</text>
<text xml:space="preserve" text-anchor="middle" x="768" y="-19.25" font-family="Helvetica,sans-Serif" font-size="10.00">_dependent</text>
</a>
</g>
</g>
<!-- Node1&#45;&gt;Node31 -->
<g id="edge4_Node000001_Node000031" class="edge">
<title>Node1&#45;&gt;Node31</title>
<g id="a_edge4_Node000001_Node000031"><a xlink:title=" ">
<path fill="none" stroke="#63b8ff" d="M854.58,-40.61C846.49,-39.49 838.32,-38.36 830.4,-37.26"/>
<polygon fill="#63b8ff" stroke="#63b8ff" points="854.03,-44.07 864.42,-41.97 854.99,-37.13 854.03,-44.07"/>
</a>
</g>
</g>
<!-- Node3 -->
<g id="Node000003" class="node">
<title>Node3</title>
<g id="a_Node000003"><a xlink:href="kest__effect_8c.html#a85b25e44e2629962673634f965ffe304" target="_top" xlink:title=" ">
<polygon fill="white" stroke="#666666" points="313.25,-61.12 157.75,-61.12 157.75,-40.38 313.25,-40.38 313.25,-61.12"/>
<text xml:space="preserve" text-anchor="middle" x="235.5" y="-47.62" font-family="Helvetica,sans-Serif" font-size="10.00">init_effect_from_effect_desc</text>
</a>
</g>
</g>
<!-- Node2&#45;&gt;Node3 -->
<g id="edge2_Node000002_Node000003" class="edge">
<title>Node2&#45;&gt;Node3</title>
<g id="a_edge2_Node000002_Node000003"><a xlink:title=" ">
<path fill="none" stroke="#63b8ff" d="M519.81,-79.38C459.71,-73.31 374.72,-64.72 313.53,-58.53"/>
<polygon fill="#63b8ff" stroke="#63b8ff" points="519.3,-82.84 529.6,-80.37 520,-75.88 519.3,-82.84"/>
</a>
</g>
</g>
<!-- Node4 -->
<g id="Node000004" class="node">
<title>Node4</title>
<g id="a_Node000004"><a xlink:href="kest__pipeline_8c.html#a0eff55a4103a090993bbac228a981af6" target="_top" xlink:title=" ">
<polygon fill="#fff0f0" stroke="red" points="121.75,-67.5 0,-67.5 0,-34 121.75,-34 121.75,-67.5"/>
<text xml:space="preserve" text-anchor="start" x="8" y="-54" font-family="Helvetica,sans-Serif" font-size="10.00">kest_pipeline_append</text>
<text xml:space="preserve" text-anchor="middle" x="60.88" y="-41.25" font-family="Helvetica,sans-Serif" font-size="10.00">_effect_eff</text>
</a>
</g>
</g>
<!-- Node3&#45;&gt;Node4 -->
<g id="edge3_Node000003_Node000004" class="edge">
<title>Node3&#45;&gt;Node4</title>
<g id="a_edge3_Node000003_Node000004"><a xlink:title=" ">
<path fill="none" stroke="#63b8ff" d="M145.93,-50.75C137.9,-50.75 129.9,-50.75 122.2,-50.75"/>
<polygon fill="#63b8ff" stroke="#63b8ff" points="145.76,-54.25 155.76,-50.75 145.76,-47.25 145.76,-54.25"/>
</a>
</g>
</g>
<!-- Node32 -->
<g id="Node000032" class="node">
<title>Node32</title>
<g id="a_Node000032"><a xlink:href="kest__expr__scope_8c.html#ac44f26a1dd7c685a7a3d5423a6c1ff54" target="_top" xlink:title=" ">
<polygon fill="white" stroke="#666666" points="670,-33.5 517.5,-33.5 517.5,0 670,0 670,-33.5"/>
<text xml:space="preserve" text-anchor="start" x="525.5" y="-20" font-family="Helvetica,sans-Serif" font-size="10.00">kest_scope_transitivize</text>
<text xml:space="preserve" text-anchor="middle" x="593.75" y="-7.25" font-family="Helvetica,sans-Serif" font-size="10.00">_updatable_dependents_rec</text>
</a>
</g>
</g>
<!-- Node31&#45;&gt;Node32 -->
<g id="edge5_Node000031_Node000032" class="edge">
<title>Node31&#45;&gt;Node32</title>
<g id="a_edge5_Node000031_Node000032"><a xlink:title=" ">
<path fill="none" stroke="#63b8ff" d="M694.56,-23.7C686.52,-23.14 678.32,-22.57 670.24,-22.01"/>
<polygon fill="#63b8ff" stroke="#63b8ff" points="694.06,-27.18 704.28,-24.38 694.54,-20.19 694.06,-27.18"/>
</a>
</g>
</g>
<!-- Node32&#45;&gt;Node32 -->
<g id="edge8_Node000032_Node000032" class="edge">
<title>Node32&#45;&gt;Node32</title>
<g id="a_edge8_Node000032_Node000032"><a xlink:title=" ">
<path fill="none" stroke="#63b8ff" d="M623.01,-44.89C618.24,-48.85 608.49,-51.5 593.75,-51.5 567.54,-51.5 557.1,-43.12 562.43,-33.91"/>
<polygon fill="#63b8ff" stroke="#63b8ff" points="626.38,-45.88 624.79,-35.4 619.5,-44.58 626.38,-45.88"/>
</a>
</g>
</g>
<!-- Node33 -->
<g id="Node000033" class="node">
<title>Node33</title>
<g id="a_Node000033"><a xlink:href="kest__expr__scope_8c.html#a22d04780c6f58fc94a907b3969a819cc" target="_top" xlink:title=" ">
<polygon fill="white" stroke="#666666" points="481.5,-45.5 349.25,-45.5 349.25,-12 481.5,-12 481.5,-45.5"/>
<text xml:space="preserve" text-anchor="start" x="357.25" y="-32" font-family="Helvetica,sans-Serif" font-size="10.00">kest_scope_transitivize</text>
<text xml:space="preserve" text-anchor="middle" x="415.38" y="-19.25" font-family="Helvetica,sans-Serif" font-size="10.00">_updatable_dependents</text>
</a>
</g>
</g>
<!-- Node32&#45;&gt;Node33 -->
<g id="edge6_Node000032_Node000033" class="edge">
<title>Node32&#45;&gt;Node33</title>
<g id="a_edge6_Node000032_Node000033"><a xlink:title=" ">
<path fill="none" stroke="#63b8ff" d="M505.8,-22.67C497.72,-23.22 489.62,-23.77 481.79,-24.3"/>
<polygon fill="#63b8ff" stroke="#63b8ff" points="505.93,-26.16 515.67,-21.99 505.46,-19.18 505.93,-26.16"/>
</a>
</g>
</g>
<!-- Node33&#45;&gt;Node3 -->
<g id="edge7_Node000033_Node000003" class="edge">
<title>Node33&#45;&gt;Node3</title>
<g id="a_edge7_Node000033_Node000003"><a xlink:title=" ">
<path fill="none" stroke="#63b8ff" d="M337.71,-38.23C329.72,-39.22 321.58,-40.23 313.58,-41.22"/>
<polygon fill="#63b8ff" stroke="#63b8ff" points="337.9,-41.74 347.4,-37.03 337.04,-34.79 337.9,-41.74"/>
</a>
</g>
</g>
</g>
</svg>
