<?xml version="1.0" encoding="UTF-8" standalone="no"?>
<!DOCTYPE svg PUBLIC "-//W3C//DTD SVG 1.1//EN"
 "http://www.w3.org/Graphics/SVG/1.1/DTD/svg11.dtd">
<!-- Generated by graphviz version 13.1.2 (20250808.2320)
 -->
<!-- Title: format_parameter_widget_value_label Pages: 1 -->
<!--zoomable 377 -->

<svg id="main" version="1.1" xmlns="http://www.w3.org/2000/svg" xmlns:xlink="http://www.w3.org/1999/xlink" xml:space="preserve" onload="init(evt)">

<style type="text/css"><![CDATA[
.node, .edge {opacity: 0.7;}
.node.selected, .edge.selected {opacity: 1;}
.edge:hover path { stroke: red; }
.edge:hover polygon { stroke: red; fill: red; }
]]></style>

<defs>
  <circle id="rim" cx="0" cy="0" r="7"/>
  <circle id="rim2" cx="0" cy="0" r="3.5"/>
  <g id="zoomPlus">
    <use xlink:href="#rim" fill="#404040"><set attributeName="fill" to="#808080" begin="zoomplus.mouseover" end="zoomplus.mouseout"/></use>
    <path d="M-4,0h8M0,-4v8" fill="none" stroke="white" stroke-width="1.5" pointer-events="none"/>
  </g>
  <g id="zoomMin">
    <use xlink:href="#rim" fill="#404040"><set attributeName="fill" to="#808080" begin="zoomminus.mouseover" end="zoomminus.mouseout"/></use>
    <path d="M-4,0h8" fill="none" stroke="white" stroke-width="1.5" pointer-events="none"/>
  </g>
  <g id="arrowUp" transform="translate(30 24)">
    <use xlink:href="#rim"/>
    <path pointer-events="none" fill="none" stroke="white" stroke-width="1.5" d="M0,-3.0v7 M-2.5,-0.5L0,-3.0L2.5,-0.5"/>
  </g>
  <g id="arrowRight" transform="rotate(90) translate(36 -43)">
    <use xlink:href="#rim"/>
    <path pointer-events="none" fill="none" stroke="white" stroke-width="1.5" d="M0,-3.0v7 M-2.5,-0.5L0,-3.0L2.5,-0.5"/>
  </g>
  <g id="arrowDown" transform="rotate(180) translate(-30 -48)">
    <use xlink:href="#rim"/>
    <path pointer-events="none" fill="none" stroke="white" stroke-width="1.5" d="M0,-3.0v7 M-2.5,-0.5L0,-3.0L2.5,-0.5"/>
  </g>
  <g id="arrowLeft" transform="rotate(270) translate(-36 17)">
    <use xlink:href="#rim"/>
    <path pointer-events="none" fill="none" stroke="white" stroke-width="1.5" d="M0,-3.0v7 M-2.5,-0.5L0,-3.0L2.5,-0.5"/>
  </g>
  <g id="resetDef">
    <use xlink:href="#rim2" fill="#404040"><set attributeName="fill" to="#808080" begin="reset.mouseover" end="reset.mouseout"/></use>
  </g>
</defs>
<script type="application/ecmascript">
var viewWidth = 861;
var viewHeight = 377;
var sectionId = 'dynsection-6';
</script>
<script type="application/ecmascript" xlink:href="svg.min.js"/>
<svg id="graph" class="graph">
<g id="viewport">
<title>format_parameter_widget_value_label</title>
<!-- Node1 -->
<g id="Node000001" class="node">
<title>Node1</title>
<g id="a_Node000001"><a xlink:title=" ">
<polygon fill="#999999" stroke="#666666" points="853.25,-111.5 709.75,-111.5 709.75,-78 853.25,-78 853.25,-111.5"/>
<text xml:space="preserve" text-anchor="start" x="717.75" y="-98" font-family="Helvetica,sans-Serif" font-size="10.00">format_parameter_widget</text>
<text xml:space="preserve" text-anchor="middle" x="781.5" y="-85.25" font-family="Helvetica,sans-Serif" font-size="10.00">_value_label</text>
</a>
</g>
</g>
<!-- Node2 -->
<g id="Node000002" class="node">
<title>Node2</title>
<g id="a_Node000002"><a xlink:href="kest__parameter__widget_8c.html#af345b51066bd1985326c50809d992fab" target="_top" xlink:title=" ">
<polygon fill="white" stroke="#666666" points="673.75,-111.5 529.5,-111.5 529.5,-78 673.75,-78 673.75,-111.5"/>
<text xml:space="preserve" text-anchor="start" x="537.5" y="-98" font-family="Helvetica,sans-Serif" font-size="10.00">parameter_widget_update</text>
<text xml:space="preserve" text-anchor="middle" x="601.62" y="-85.25" font-family="Helvetica,sans-Serif" font-size="10.00">_value_label</text>
</a>
</g>
</g>
<!-- Node1&#45;&gt;Node2 -->
<g id="edge1_Node000001_Node000002" class="edge">
<title>Node1&#45;&gt;Node2</title>
<g id="a_edge1_Node000001_Node000002"><a xlink:title=" ">
<path fill="none" stroke="#63b8ff" d="M698.17,-94.75C690.15,-94.75 682.06,-94.75 674.16,-94.75"/>
<polygon fill="#63b8ff" stroke="#63b8ff" points="697.92,-98.25 707.92,-94.75 697.92,-91.25 697.92,-98.25"/>
</a>
</g>
</g>
<!-- Node3 -->
<g id="Node000003" class="node">
<title>Node3</title>
<g id="a_Node000003"><a xlink:href="kest__parameter__widget_8c.html#a627573f8fb113b0b0beb013cb04ed61c" target="_top" xlink:title=" ">
<polygon fill="white" stroke="#666666" points="478.12,-279.5 347.38,-279.5 347.38,-246 478.12,-246 478.12,-279.5"/>
<text xml:space="preserve" text-anchor="start" x="355.38" y="-266" font-family="Helvetica,sans-Serif" font-size="10.00">kest_parameter_widget</text>
<text xml:space="preserve" text-anchor="middle" x="412.75" y="-253.25" font-family="Helvetica,sans-Serif" font-size="10.00">_refresh</text>
</a>
</g>
</g>
<!-- Node2&#45;&gt;Node3 -->
<g id="edge2_Node000002_Node000003" class="edge">
<title>Node2&#45;&gt;Node3</title>
<g id="a_edge2_Node000002_Node000003"><a xlink:title=" ">
<path fill="none" stroke="#63b8ff" d="M573.54,-119.1C535.2,-153.57 466.08,-215.7 432.75,-245.67"/>
<polygon fill="#63b8ff" stroke="#63b8ff" points="575.46,-122.08 580.55,-112.8 570.78,-116.88 575.46,-122.08"/>
</a>
</g>
</g>
<!-- Node37 -->
<g id="Node000037" class="node">
<title>Node37</title>
<g id="a_Node000037"><a xlink:href="kest__parameter__widget_8c.html#a1590cd4e080ed869e0372fef1a233085" target="_top" xlink:title=" ">
<polygon fill="white" stroke="#666666" points="485.62,-150.12 339.88,-150.12 339.88,-129.38 485.62,-129.38 485.62,-150.12"/>
<text xml:space="preserve" text-anchor="middle" x="412.75" y="-136.62" font-family="Helvetica,sans-Serif" font-size="10.00">param_widget_rep_update</text>
</a>
</g>
</g>
<!-- Node2&#45;&gt;Node37 -->
<g id="edge9_Node000002_Node000037" class="edge">
<title>Node2&#45;&gt;Node37</title>
<g id="a_edge9_Node000002_Node000037"><a xlink:title=" ">
<path fill="none" stroke="#63b8ff" d="M518.64,-114.69C510.15,-116.74 501.65,-118.79 493.5,-120.75 482.43,-123.41 470.49,-126.27 459.31,-128.93"/>
<polygon fill="#63b8ff" stroke="#63b8ff" points="519.39,-118.11 528.29,-112.35 517.74,-111.3 519.39,-118.11"/>
</a>
</g>
</g>
<!-- Node45 -->
<g id="Node000045" class="node">
<title>Node45</title>
<g id="a_Node000045"><a xlink:href="kest__parameter__widget_8c.html#a275a44ab81e73412a3c3da5597906fcc" target="_top" xlink:title=" ">
<polygon fill="white" stroke="#666666" points="483.38,-111.5 342.12,-111.5 342.12,-78 483.38,-78 483.38,-111.5"/>
<text xml:space="preserve" text-anchor="start" x="350.12" y="-98" font-family="Helvetica,sans-Serif" font-size="10.00">parameter_widget_create</text>
<text xml:space="preserve" text-anchor="middle" x="412.75" y="-85.25" font-family="Helvetica,sans-Serif" font-size="10.00">_ui_no_callback</text>
</a>
</g>
</g>
<!-- Node2&#45;&gt;Node45 -->
<g id="edge11_Node000002_Node000045" class="edge">
<title>Node2&#45;&gt;Node45</title>
<g id="a_edge11_Node000002_Node000045"><a xlink:title=" ">
<path fill="none" stroke="#63b8ff" d="M517.85,-94.75C506.42,-94.75 494.78,-94.75 483.62,-94.75"/>
<polygon fill="#63b8ff" stroke="#63b8ff" points="517.66,-98.25 527.66,-94.75 517.66,-91.25 517.66,-98.25"/>
</a>
</g>
</g>
<!-- Node72 -->
<g id="Node000072" class="node">
<title>Node72</title>
<g id="a_Node000072"><a xlink:href="kest__parameter__widget_8c.html#a58d879b4e143133b22d67e3b1306a951" target="_top" xlink:title=" ">
<polygon fill="white" stroke="#666666" points="485.25,-60.12 340.25,-60.12 340.25,-39.38 485.25,-39.38 485.25,-60.12"/>
<text xml:space="preserve" text-anchor="middle" x="412.75" y="-46.62" font-family="Helvetica,sans-Serif" font-size="10.00">parameter_widget_refresh</text>
</a>
</g>
</g>
<!-- Node2&#45;&gt;Node72 -->
<g id="edge14_Node000002_Node000072" class="edge">
<title>Node2&#45;&gt;Node72</title>
<g id="a_edge14_Node000002_Node000072"><a xlink:title=" ">
<path fill="none" stroke="#63b8ff" d="M518.64,-74.81C510.15,-72.76 501.65,-70.71 493.5,-68.75 482.43,-66.09 470.49,-63.23 459.31,-60.57"/>
<polygon fill="#63b8ff" stroke="#63b8ff" points="517.74,-78.2 528.29,-77.15 519.39,-71.39 517.74,-78.2"/>
</a>
</g>
</g>
<!-- Node89 -->
<g id="Node000089" class="node">
<title>Node89</title>
<g id="a_Node000089"><a xlink:href="kest__parameter__widget_8c.html#ac55937f74509696b892e16cd9148a0c4" target="_top" xlink:title=" ">
<polygon fill="white" stroke="#666666" points="493.5,-21.12 332,-21.12 332,-0.38 493.5,-0.38 493.5,-21.12"/>
<text xml:space="preserve" text-anchor="middle" x="412.75" y="-7.62" font-family="Helvetica,sans-Serif" font-size="10.00">parameter_widget_refresh_cb</text>
</a>
</g>
</g>
<!-- Node2&#45;&gt;Node89 -->
<g id="edge16_Node000002_Node000089" class="edge">
<title>Node2&#45;&gt;Node89</title>
<g id="a_edge16_Node000002_Node000089"><a xlink:title=" ">
<path fill="none" stroke="#63b8ff" d="M567.12,-71.25C546.65,-57.79 519.48,-41.49 493.5,-30.75 484.93,-27.2 475.56,-24.17 466.37,-21.62"/>
<polygon fill="#63b8ff" stroke="#63b8ff" points="565.09,-74.1 575.34,-76.75 568.98,-68.28 565.09,-74.1"/>
</a>
</g>
</g>
<!-- Node4 -->
<g id="Node000004" class="node">
<title>Node4</title>
<g id="a_Node000004"><a xlink:href="kest__menu_8c.html#ad39524fe8d62cff7c8e4c1d041b0dd61" target="_top" xlink:title=" ">
<polygon fill="#fff0f0" stroke="red" points="104.5,-363.12 0,-363.12 0,-342.38 104.5,-342.38 104.5,-363.12"/>
<text xml:space="preserve" text-anchor="middle" x="52.25" y="-349.62" font-family="Helvetica,sans-Serif" font-size="10.00">enter_main_menu</text>
</a>
</g>
</g>
<!-- Node3&#45;&gt;Node4 -->
<g id="edge3_Node000003_Node000004" class="edge">
<title>Node3&#45;&gt;Node4</title>
<g id="a_edge3_Node000003_Node000004"><a xlink:title=" ">
<path fill="none" stroke="#63b8ff" d="M389.13,-287.96C367.66,-309.85 333.2,-339.99 296,-352.75 232.82,-374.42 154.82,-369.26 104.57,-362.18"/>
<polygon fill="#63b8ff" stroke="#63b8ff" points="391.56,-290.49 395.93,-280.83 386.49,-285.65 391.56,-290.49"/>
</a>
</g>
</g>
<!-- Node26 -->
<g id="Node000026" class="node">
<title>Node26</title>
<g id="a_Node000026"><a xlink:href="kest__menu_8c.html#af46174a3713bd90a7920a15efac58b46" target="_top" xlink:title=" ">
<polygon fill="#fff0f0" stroke="red" points="270.12,-344.12 166.38,-344.12 166.38,-323.38 270.12,-323.38 270.12,-344.12"/>
<text xml:space="preserve" text-anchor="middle" x="218.25" y="-330.62" font-family="Helvetica,sans-Serif" font-size="10.00">enter_menu_page</text>
</a>
</g>
</g>
<!-- Node3&#45;&gt;Node26 -->
<g id="edge4_Node000003_Node000026" class="edge">
<title>Node3&#45;&gt;Node26</title>
<g id="a_edge4_Node000003_Node000026"><a xlink:title=" ">
<path fill="none" stroke="#63b8ff" d="M367.39,-284.93C346.15,-294.97 320.14,-306.42 296,-314.75 287.31,-317.75 277.91,-320.48 268.77,-322.88"/>
<polygon fill="#63b8ff" stroke="#63b8ff" points="368.84,-288.12 376.35,-280.65 365.81,-281.81 368.84,-288.12"/>
</a>
</g>
</g>
<!-- Node29 -->
<g id="Node000029" class="node">
<title>Node29</title>
<g id="a_Node000029"><a xlink:href="kest__parameter_8c.html#a1bf5c3f58878be9c9469e45e7660d497" target="_top" xlink:title=" ">
<polygon fill="white" stroke="#666666" points="293,-305.5 143.5,-305.5 143.5,-272 293,-272 293,-305.5"/>
<text xml:space="preserve" text-anchor="start" x="151.5" y="-292" font-family="Helvetica,sans-Serif" font-size="10.00">kest_parameter_if_updated</text>
<text xml:space="preserve" text-anchor="middle" x="218.25" y="-279.25" font-family="Helvetica,sans-Serif" font-size="10.00">_refresh_pw</text>
</a>
</g>
</g>
<!-- Node3&#45;&gt;Node29 -->
<g id="edge6_Node000003_Node000029" class="edge">
<title>Node3&#45;&gt;Node29</title>
<g id="a_edge6_Node000003_Node000029"><a xlink:title=" ">
<path fill="none" stroke="#63b8ff" d="M336.01,-272.98C321.98,-274.87 307.34,-276.85 293.35,-278.74"/>
<polygon fill="#63b8ff" stroke="#63b8ff" points="336.17,-276.49 345.61,-271.68 335.24,-269.55 336.17,-276.49"/>
</a>
</g>
</g>
<!-- Node30 -->
<g id="Node000030" class="node">
<title>Node30</title>
<g id="a_Node000030"><a xlink:href="kest__parameter__widget_8c.html#a053b852caa622bc92704a6c9b6d955be" target="_top" xlink:title=" ">
<polygon fill="#fff0f0" stroke="red" points="285.5,-253.5 151,-253.5 151,-220 285.5,-220 285.5,-253.5"/>
<text xml:space="preserve" text-anchor="start" x="159" y="-240" font-family="Helvetica,sans-Serif" font-size="10.00">kest_parameter_widget</text>
<text xml:space="preserve" text-anchor="middle" x="218.25" y="-227.25" font-family="Helvetica,sans-Serif" font-size="10.00">_refresh_async_wrapper</text>
</a>
</g>
</g>
<!-- Node3&#45;&gt;Node30 -->
<g id="edge7_Node000003_Node000030" class="edge">
<title>Node3&#45;&gt;Node30</title>
<g id="a_edge7_Node000003_Node000030"><a xlink:title=" ">
<path fill="none" stroke="#63b8ff" d="M335.81,-252.49C319.25,-250.26 301.84,-247.91 285.69,-245.72"/>
<polygon fill="#63b8ff" stroke="#63b8ff" points="335.24,-255.95 345.61,-253.82 336.17,-249.01 335.24,-255.95"/>
</a>
</g>
</g>
<!-- Node36 -->
<g id="Node000036" class="node">
<title>Node36</title>
<g id="a_Node000036"><a xlink:href="kest__parameter__widget_8c.html#ad0fe84e018c20798e5ee6bd5751293b5" target="_top" xlink:title=" ">
<polygon fill="white" stroke="#666666" points="284.38,-201.5 152.12,-201.5 152.12,-168 284.38,-168 284.38,-201.5"/>
<text xml:space="preserve" text-anchor="start" x="160.12" y="-188" font-family="Helvetica,sans-Serif" font-size="10.00">kest_parameter_widget</text>
<text xml:space="preserve" text-anchor="middle" x="218.25" y="-175.25" font-family="Helvetica,sans-Serif" font-size="10.00">_refresh_timer_wrapper</text>
</a>
</g>
</g>
<!-- Node3&#45;&gt;Node36 -->
<g id="edge8_Node000003_Node000036" class="edge">
<title>Node3&#45;&gt;Node36</title>
<g id="a_edge8_Node000003_Node000036"><a xlink:title=" ">
<path fill="none" stroke="#63b8ff" d="M365.63,-240.81C344.59,-231.12 319.24,-219.88 296,-210.75 288.41,-207.77 280.31,-204.8 272.34,-202"/>
<polygon fill="#63b8ff" stroke="#63b8ff" points="363.98,-243.9 374.52,-244.94 366.92,-237.55 363.98,-243.9"/>
</a>
</g>
</g>
<!-- Node26&#45;&gt;Node4 -->
<g id="edge5_Node000026_Node000004" class="edge">
<title>Node26&#45;&gt;Node4</title>
<g id="a_edge5_Node000026_Node000004"><a xlink:title=" ">
<path fill="none" stroke="#63b8ff" d="M155,-340.96C138.43,-342.88 120.71,-344.93 104.77,-346.78"/>
<polygon fill="#63b8ff" stroke="#63b8ff" points="155.22,-344.46 164.75,-339.83 154.42,-337.51 155.22,-344.46"/>
</a>
</g>
</g>
<!-- Node38 -->
<g id="Node000038" class="node">
<title>Node38</title>
<g id="a_Node000038"><a xlink:href="kest__parameter__widget_8c.html#a89863fab24827de020d29878a86c1b60" target="_top" xlink:title=" ">
<polygon fill="#fff0f0" stroke="red" points="288.88,-150.12 147.62,-150.12 147.62,-129.38 288.88,-129.38 288.88,-150.12"/>
<text xml:space="preserve" text-anchor="middle" x="218.25" y="-136.62" font-family="Helvetica,sans-Serif" font-size="10.00">nullify_parameter_widget</text>
</a>
</g>
</g>
<!-- Node37&#45;&gt;Node38 -->
<g id="edge10_Node000037_Node000038" class="edge">
<title>Node37&#45;&gt;Node38</title>
<g id="a_edge10_Node000037_Node000038"><a xlink:title=" ">
<path fill="none" stroke="#63b8ff" d="M328.23,-139.75C315.25,-139.75 301.96,-139.75 289.33,-139.75"/>
<polygon fill="#63b8ff" stroke="#63b8ff" points="328.01,-143.25 338.01,-139.75 328.01,-136.25 328.01,-143.25"/>
</a>
</g>
</g>
<!-- Node46 -->
<g id="Node000046" class="node">
<title>Node46</title>
<g id="a_Node000046"><a xlink:href="kest__menu_8c.html#aa44b42640611d3ca75f6b55206ebd08e" target="_top" xlink:title=" ">
<polygon fill="#fff0f0" stroke="red" points="279.12,-111.12 157.38,-111.12 157.38,-90.38 279.12,-90.38 279.12,-111.12"/>
<text xml:space="preserve" text-anchor="middle" x="218.25" y="-97.62" font-family="Helvetica,sans-Serif" font-size="10.00">create_menu_item_ui</text>
</a>
</g>
</g>
<!-- Node45&#45;&gt;Node46 -->
<g id="edge12_Node000045_Node000046" class="edge">
<title>Node45&#45;&gt;Node46</title>
<g id="a_edge12_Node000045_Node000046"><a xlink:title=" ">
<path fill="none" stroke="#63b8ff" d="M330.56,-97.28C313.41,-97.82 295.6,-98.37 279.4,-98.88"/>
<polygon fill="#63b8ff" stroke="#63b8ff" points="330.31,-100.79 340.2,-96.98 330.09,-93.79 330.31,-100.79"/>
</a>
</g>
</g>
<!-- Node53 -->
<g id="Node000053" class="node">
<title>Node53</title>
<g id="a_Node000053"><a xlink:href="kest__parameter__widget_8c.html#adbadb9573fa4f9b812f8d270c78053e4" target="_top" xlink:title=" ">
<polygon fill="#fff0f0" stroke="red" points="296,-72.12 140.5,-72.12 140.5,-51.38 296,-51.38 296,-72.12"/>
<text xml:space="preserve" text-anchor="middle" x="218.25" y="-58.62" font-family="Helvetica,sans-Serif" font-size="10.00">parameter_widget_create_ui</text>
</a>
</g>
</g>
<!-- Node45&#45;&gt;Node53 -->
<g id="edge13_Node000045_Node000053" class="edge">
<title>Node45&#45;&gt;Node53</title>
<g id="a_edge13_Node000045_Node000053"><a xlink:title=" ">
<path fill="none" stroke="#63b8ff" d="M330.69,-80.85C314.6,-78.1 297.93,-75.24 282.54,-72.6"/>
<polygon fill="#63b8ff" stroke="#63b8ff" points="329.77,-84.25 340.22,-82.49 330.95,-77.35 329.77,-84.25"/>
</a>
</g>
</g>
<!-- Node73 -->
<g id="Node000073" class="node">
<title>Node73</title>
<g id="a_Node000073"><a xlink:href="kest__parameter_8c.html#a548a0b985f671572b9293afa1a1b5d79" target="_top" xlink:title=" ">
<polygon fill="#fff0f0" stroke="red" points="283.62,-33.5 152.88,-33.5 152.88,0 283.62,0 283.62,-33.5"/>
<text xml:space="preserve" text-anchor="start" x="160.88" y="-20" font-family="Helvetica,sans-Serif" font-size="10.00">kest_parameter_widget</text>
<text xml:space="preserve" text-anchor="middle" x="218.25" y="-7.25" font-family="Helvetica,sans-Serif" font-size="10.00">_rep_update</text>
</a>
</g>
</g>
<!-- Node72&#45;&gt;Node73 -->
<g id="edge15_Node000072_Node000073" class="edge">
<title>Node72&#45;&gt;Node73</title>
<g id="a_edge15_Node000072_Node000073"><a xlink:title=" ">
<path fill="none" stroke="#63b8ff" d="M337.34,-36.99C319.71,-33.97 301.06,-30.77 283.9,-27.83"/>
<polygon fill="#63b8ff" stroke="#63b8ff" points="336.51,-40.4 346.96,-38.64 337.7,-33.5 336.51,-40.4"/>
</a>
</g>
</g>
</g>
</svg>

<g id="navigator" transform="translate(0 0)" fill="#404254">
  <rect fill="#f2f5e9" fill-opacity="0.5" stroke="#606060" stroke-width=".5" x="0" y="0" width="60" height="60"/>
  <use id="zoomplus" xlink:href="#zoomPlus" x="17" y="9" onmousedown="handleZoom(evt,'in')"/>
  <use id="zoomminus" xlink:href="#zoomMin" x="42" y="9" onmousedown="handleZoom(evt,'out')"/>
  <use id="reset" xlink:href="#resetDef" x="30" y="36" onmousedown="handleReset()"/>
   <use id="arrowup" xlink:href="#arrowUp" x="0" y="0" onmousedown="handlePan(0,-1)"/>
  <use id="arrowright" xlink:href="#arrowRight" x="0" y="0" onmousedown="handlePan(1,0)"/>
  <use id="arrowdown" xlink:href="#arrowDown" x="0" y="0" onmousedown="handlePan(0,1)"/>
  <use id="arrowleft" xlink:href="#arrowLeft" x="0" y="0" onmousedown="handlePan(-1,0)"/>
</g>
<svg viewBox="0 0 15 15" width="100%" height="30px" preserveAspectRatio="xMaxYMin meet">
 <g id="arrow_out" transform="scale(0.3 0.3)">
  <a xlink:href="kest__parameter__widget_8c_a9a7e5431ab9599259aa5e2cfa47e6308_icgraph_org.svg" target="_base">
   <rect id="button" ry="5" rx="5" y="6" x="6" height="38" width="38"
        fill="#f2f5e9" fill-opacity="0.5" stroke="#606060" stroke-width="1.0"/>
   <path id="arrow"
     d="M 11.500037,31.436501 C 11.940474,20.09759 22.043105,11.32322 32.158766,21.979434 L 37.068811,17.246167 C 37.068811,17.246167 37.088388,32 37.088388,32 L 22.160133,31.978069 C 22.160133,31.978069 26.997745,27.140456 26.997745,27.140456 C 18.528582,18.264221 13.291696,25.230495 11.500037,31.436501 z"
     style="fill:#404040;"/>
  </a>
 </g>
</svg>

<style type='text/css'>
<![CDATA[
[data-mouse-over-selected='false'] { opacity: 0.7; }
[data-mouse-over-selected='true']  { opacity: 1.0; }
]]>
</style>
<script type="application/ecmascript"><![CDATA[
document.addEventListener('DOMContentLoaded', (event) => {
  highlightEdges();
  highlightAdjacentNodes();
});
]]></script>
</svg>
