<?xml version="1.0" encoding="UTF-8" standalone="no"?>
<!DOCTYPE svg PUBLIC "-//W3C//DTD SVG 1.1//EN"
 "http://www.w3.org/Graphics/SVG/1.1/DTD/svg11.dtd">
<!-- Generated by graphviz version 13.1.2 (20250808.2320)
 -->
<!-- Title: kest_extract_polynomial Pages: 1 -->
<!--zoomable 350 -->

<svg id="main" version="1.1" xmlns="http://www.w3.org/2000/svg" xmlns:xlink="http://www.w3.org/1999/xlink" xml:space="preserve" onload="init(evt)">

<style type="text/css"><![CDATA[
.node, .edge {opacity: 0.7;}
.node.selected, .edge.selected {opacity: 1;}
.edge:hover path { stroke: red; }
.edge:hover polygon { stroke: red; fill: red; }
]]></style>

<defs>
  <circle id="rim" cx="0" cy="0" r="7"/>
  <circle id="rim2" cx="0" cy="0" r="3.5"/>
  <g id="zoomPlus">
    <use xlink:href="#rim" fill="#404040"><set attributeName="fill" to="#808080" begin="zoomplus.mouseover" end="zoomplus.mouseout"/></use>
    <path d="M-4,0h8M0,-4v8" fill="none" stroke="white" stroke-width="1.5" pointer-events="none"/>
  </g>
  <g id="zoomMin">
    <use xlink:href="#rim" fill="#404040"><set attributeName="fill" to="#808080" begin="zoomminus.mouseover" end="zoomminus.mouseout"/></use>
    <path d="M-4,0h8" fill="none" stroke="white" stroke-width="1.5" pointer-events="none"/>
  </g>
  <g id="arrowUp" transform="translate(30 24)">
    <use xlink:href="#rim"/>
    <path pointer-events="none" fill="none" stroke="white" stroke-width="1.5" d="M0,-3.0v7 M-2.5,-0.5L0,-3.0L2.5,-0.5"/>
  </g>
  <g id="arrowRight" transform="rotate(90) translate(36 -43)">
    <use xlink:href="#rim"/>
    <path pointer-events="none" fill="none" stroke="white" stroke-width="1.5" d="M0,-3.0v7 M-2.5,-0.5L0,-3.0L2.5,-0.5"/>
  </g>
  <g id="arrowDown" transform="rotate(180) translate(-30 -48)">
    <use xlink:href="#rim"/>
    <path pointer-events="none" fill="none" stroke="white" stroke-width="1.5" d="M0,-3.0v7 M-2.5,-0.5L0,-3.0L2.5,-0.5"/>
  </g>
  <g id="arrowLeft" transform="rotate(270) translate(-36 17)">
    <use xlink:href="#rim"/>
    <path pointer-events="none" fill="none" stroke="white" stroke-width="1.5" d="M0,-3.0v7 M-2.5,-0.5L0,-3.0L2.5,-0.5"/>
  </g>
  <g id="resetDef">
    <use xlink:href="#rim2" fill="#404040"><set attributeName="fill" to="#808080" begin="reset.mouseover" end="reset.mouseout"/></use>
  </g>
</defs>
<script type="application/ecmascript">
var viewWidth = 557;
var viewHeight = 350;
var sectionId = 'dynsection-37';
</script>
<script type="application/ecmascript" xlink:href="svg.min.js"/>
<svg id="graph" class="graph">
<g id="viewport">
<title>kest_extract_polynomial</title>
<!-- Node1 -->
<g id="Node000001" class="node">
<title>Node1</title>
<g id="a_Node000001"><a xlink:title=" ">
<polygon fill="#999999" stroke="#666666" points="136,-159.42 0,-159.42 0,-138.67 136,-138.67 136,-159.42"/>
<text xml:space="preserve" text-anchor="middle" x="68" y="-145.92" font-family="Helvetica,sans-Serif" font-size="10.00">kest_extract_polynomial</text>
</a>
</g>
</g>
<!-- Node2 -->
<g id="Node000002" class="node">
<title>Node2</title>
<g id="a_Node000002"><a xlink:href="kest__alloc_8c.html#a849755c5dc5b35e712ffcdb602e50fb4" target="_top" xlink:title=" ">
<polygon fill="white" stroke="#666666" points="548.5,-159.42 483.75,-159.42 483.75,-138.67 548.5,-138.67 548.5,-159.42"/>
<text xml:space="preserve" text-anchor="middle" x="516.12" y="-145.92" font-family="Helvetica,sans-Serif" font-size="10.00">kest_alloc</text>
</a>
</g>
</g>
<!-- Node1&#45;&gt;Node2 -->
<g id="edge1_Node000001_Node000002" class="edge">
<title>Node1&#45;&gt;Node2</title>
<g id="a_edge1_Node000001_Node000002"><a xlink:title=" ">
<path fill="none" stroke="#63b8ff" d="M71.33,-159.49C79.06,-191.28 107.12,-286.95 172,-324.04 221,-352.06 245.79,-342.88 299,-324.04 387.95,-292.55 467.05,-207.15 499.49,-168.5"/>
<polygon fill="#63b8ff" stroke="#63b8ff" points="502.09,-170.86 505.75,-160.92 496.69,-166.4 502.09,-170.86"/>
</a>
</g>
</g>
<!-- Node3 -->
<g id="Node000003" class="node">
<title>Node3</title>
<g id="a_Node000003"><a xlink:href="kest__dictionary_8c.html#ac279369f5a4c3b4a0bc0625041f410f2" target="_top" xlink:title=" ">
<polygon fill="white" stroke="#666666" points="290,-314.79 181,-314.79 181,-281.29 290,-281.29 290,-314.79"/>
<text xml:space="preserve" text-anchor="start" x="189" y="-301.29" font-family="Helvetica,sans-Serif" font-size="10.00">kest_eff_entry_dict</text>
<text xml:space="preserve" text-anchor="middle" x="235.5" y="-288.54" font-family="Helvetica,sans-Serif" font-size="10.00">_count</text>
</a>
</g>
</g>
<!-- Node1&#45;&gt;Node3 -->
<g id="edge2_Node000001_Node000003" class="edge">
<title>Node1&#45;&gt;Node3</title>
<g id="a_edge2_Node000001_Node000003"><a xlink:title=" ">
<path fill="none" stroke="#63b8ff" d="M75.4,-159.74C89.87,-183.1 127.34,-239.21 172,-272.04 173.53,-273.17 175.12,-274.25 176.74,-275.3"/>
<polygon fill="#63b8ff" stroke="#63b8ff" points="174.72,-278.18 185.13,-280.14 178.22,-272.11 174.72,-278.18"/>
</a>
</g>
</g>
<!-- Node4 -->
<g id="Node000004" class="node">
<title>Node4</title>
<g id="a_Node000004"><a xlink:href="kest__dictionary_8c.html#a25171775543290a8e7a5ef33d3b9c3d3" target="_top" xlink:title=" ">
<polygon fill="white" stroke="#666666" points="290,-262.79 181,-262.79 181,-229.29 290,-229.29 290,-262.79"/>
<text xml:space="preserve" text-anchor="start" x="189" y="-249.29" font-family="Helvetica,sans-Serif" font-size="10.00">kest_eff_entry_dict</text>
<text xml:space="preserve" text-anchor="middle" x="235.5" y="-236.54" font-family="Helvetica,sans-Serif" font-size="10.00">_index</text>
</a>
</g>
</g>
<!-- Node1&#45;&gt;Node4 -->
<g id="edge3_Node000001_Node000004" class="edge">
<title>Node1&#45;&gt;Node4</title>
<g id="a_edge3_Node000001_Node000004"><a xlink:title=" ">
<path fill="none" stroke="#63b8ff" d="M82.73,-159.9C101.93,-174.75 138.24,-201.65 172,-220.04 174.48,-221.4 177.05,-222.73 179.67,-224.02"/>
<polygon fill="#63b8ff" stroke="#63b8ff" points="178,-227.11 188.54,-228.2 180.99,-220.77 178,-227.11"/>
</a>
</g>
</g>
<!-- Node5 -->
<g id="Node000005" class="node">
<title>Node5</title>
<g id="a_Node000005"><a xlink:href="kest__dictionary_8c.html#a4ef126d75eeec6fd1f0c91109686e5a2" target="_top" xlink:title=" ">
<polygon fill="white" stroke="#666666" points="291.88,-210.79 179.12,-210.79 179.12,-177.29 291.88,-177.29 291.88,-210.79"/>
<text xml:space="preserve" text-anchor="start" x="187.12" y="-197.29" font-family="Helvetica,sans-Serif" font-size="10.00">kest_eff_entry_type</text>
<text xml:space="preserve" text-anchor="middle" x="235.5" y="-184.54" font-family="Helvetica,sans-Serif" font-size="10.00">_to_string_nice</text>
</a>
</g>
</g>
<!-- Node1&#45;&gt;Node5 -->
<g id="edge4_Node000001_Node000005" class="edge">
<title>Node1&#45;&gt;Node5</title>
<g id="a_edge4_Node000001_Node000005"><a xlink:title=" ">
<path fill="none" stroke="#63b8ff" d="M108.64,-159.82C126.39,-164.65 147.82,-170.47 167.91,-175.94"/>
<polygon fill="#63b8ff" stroke="#63b8ff" points="166.88,-179.29 177.45,-178.53 168.72,-172.53 166.88,-179.29"/>
</a>
</g>
</g>
<!-- Node6 -->
<g id="Node000006" class="node">
<title>Node6</title>
<g id="a_Node000006"><a xlink:href="kest__resource_8c.html#adb005fd5423242a5fb393a1ec10feb9d" target="_top" xlink:title=" ">
<polygon fill="white" stroke="#666666" points="285.88,-159.42 185.12,-159.42 185.12,-138.67 285.88,-138.67 285.88,-159.42"/>
<text xml:space="preserve" text-anchor="middle" x="235.5" y="-145.92" font-family="Helvetica,sans-Serif" font-size="10.00">kest_filter_create</text>
</a>
</g>
</g>
<!-- Node1&#45;&gt;Node6 -->
<g id="edge5_Node000001_Node000006" class="edge">
<title>Node1&#45;&gt;Node6</title>
<g id="a_edge5_Node000001_Node000006"><a xlink:title=" ">
<path fill="none" stroke="#63b8ff" d="M136.32,-149.04C148.59,-149.04 161.33,-149.04 173.42,-149.04"/>
<polygon fill="#63b8ff" stroke="#63b8ff" points="173.25,-152.54 183.25,-149.04 173.25,-145.54 173.25,-152.54"/>
</a>
</g>
</g>
<!-- Node8 -->
<g id="Node000008" class="node">
<title>Node8</title>
<g id="a_Node000008"><a xlink:href="kest__alloc_8c.html#a294af5728a94aa316fcf65304d388d48" target="_top" xlink:title=" ">
<polygon fill="white" stroke="#666666" points="266,-120.42 205,-120.42 205,-99.67 266,-99.67 266,-120.42"/>
<text xml:space="preserve" text-anchor="middle" x="235.5" y="-106.92" font-family="Helvetica,sans-Serif" font-size="10.00">kest_free</text>
</a>
</g>
</g>
<!-- Node1&#45;&gt;Node8 -->
<g id="edge8_Node000001_Node000008" class="edge">
<title>Node1&#45;&gt;Node8</title>
<g id="a_edge8_Node000001_Node000008"><a xlink:title=" ">
<path fill="none" stroke="#63b8ff" d="M115.1,-138.18C139.68,-132.39 169.66,-125.32 193.43,-119.72"/>
<polygon fill="#63b8ff" stroke="#63b8ff" points="194.14,-123.15 203.08,-117.45 192.54,-116.34 194.14,-123.15"/>
</a>
</g>
</g>
<!-- Node9 -->
<g id="Node000009" class="node">
<title>Node9</title>
<g id="a_Node000009"><a xlink:href="kest__resource_8c.html#a7427cffa33a06a92cfe8a18ec7b5eb3b" target="_top" xlink:title=" ">
<polygon fill="white" stroke="#666666" points="299,-81.42 172,-81.42 172,-60.67 299,-60.67 299,-81.42"/>
<text xml:space="preserve" text-anchor="middle" x="235.5" y="-67.92" font-family="Helvetica,sans-Serif" font-size="10.00">kest_init_dsp_resource</text>
</a>
</g>
</g>
<!-- Node1&#45;&gt;Node9 -->
<g id="edge9_Node000001_Node000009" class="edge">
<title>Node1&#45;&gt;Node9</title>
<g id="a_edge9_Node000001_Node000009"><a xlink:title=" ">
<path fill="none" stroke="#63b8ff" d="M85.59,-138.3C105.5,-125.74 140.21,-104.91 172,-91.04 176.35,-89.15 180.93,-87.34 185.56,-85.64"/>
<polygon fill="#63b8ff" stroke="#63b8ff" points="186.64,-88.97 194.94,-82.38 184.34,-82.36 186.64,-88.97"/>
</a>
</g>
</g>
<!-- Node10 -->
<g id="Node000010" class="node">
<title>Node10</title>
<g id="a_Node000010"><a xlink:href="kest__eff__parser_8c.html#abf2c14dab3ed7e069ad5083b160b16da" target="_top" xlink:title=" ">
<polygon fill="white" stroke="#666666" points="285.88,-42.42 185.12,-42.42 185.12,-21.67 285.88,-21.67 285.88,-42.42"/>
<text xml:space="preserve" text-anchor="middle" x="235.5" y="-28.92" font-family="Helvetica,sans-Serif" font-size="10.00">kest_parser_error</text>
</a>
</g>
</g>
<!-- Node1&#45;&gt;Node10 -->
<g id="edge10_Node000001_Node000010" class="edge">
<title>Node1&#45;&gt;Node10</title>
<g id="a_edge10_Node000001_Node000010"><a xlink:title=" ">
<path fill="none" stroke="#63b8ff" d="M77.48,-138.38C93.75,-118.58 131.37,-75.99 172,-52.04 174.95,-50.31 178.06,-48.7 181.27,-47.22"/>
<polygon fill="#63b8ff" stroke="#63b8ff" points="182.4,-50.54 190.31,-43.49 179.73,-44.07 182.4,-50.54"/>
</a>
</g>
</g>
<!-- Node11 -->
<g id="Node000011" class="node">
<title>Node11</title>
<g id="a_Node000011"><a xlink:href="kest__alloc_8c.html#aed9ede1276c1ab3b4042c264ce64a3d2" target="_top" xlink:title=" ">
<polygon fill="white" stroke="#666666" points="430.5,-62.42 352.25,-62.42 352.25,-41.67 430.5,-41.67 430.5,-62.42"/>
<text xml:space="preserve" text-anchor="middle" x="391.38" y="-48.92" font-family="Helvetica,sans-Serif" font-size="10.00">kest_strndup</text>
</a>
</g>
</g>
<!-- Node1&#45;&gt;Node11 -->
<g id="edge11_Node000001_Node000011" class="edge">
<title>Node1&#45;&gt;Node11</title>
<g id="a_edge11_Node000001_Node000011"><a xlink:title=" ">
<path fill="none" stroke="#63b8ff" d="M73.16,-138.22C84.29,-111.02 117.63,-40.07 172,-13.04 234.47,18.01 317.88,-14.41 361.31,-36.03"/>
<polygon fill="#63b8ff" stroke="#63b8ff" points="359.61,-39.09 370.1,-40.55 362.81,-32.87 359.61,-39.09"/>
</a>
</g>
</g>
<!-- Node7 -->
<g id="Node000007" class="node">
<title>Node7</title>
<g id="a_Node000007"><a xlink:href="kest__alloc_8c.html#a4bb52284828149d9a740bac0c9706ecd" target="_top" xlink:title=" ">
<polygon fill="white" stroke="#666666" points="447.75,-159.42 335,-159.42 335,-138.67 447.75,-138.67 447.75,-159.42"/>
<text xml:space="preserve" text-anchor="middle" x="391.38" y="-145.92" font-family="Helvetica,sans-Serif" font-size="10.00">kest_allocator_alloc</text>
</a>
</g>
</g>
<!-- Node6&#45;&gt;Node7 -->
<g id="edge6_Node000006_Node000007" class="edge">
<title>Node6&#45;&gt;Node7</title>
<g id="a_edge6_Node000006_Node000007"><a xlink:title=" ">
<path fill="none" stroke="#63b8ff" d="M286.03,-149.04C297.87,-149.04 310.71,-149.04 323.19,-149.04"/>
<polygon fill="#63b8ff" stroke="#63b8ff" points="323.01,-152.54 333.01,-149.04 323.01,-145.54 323.01,-152.54"/>
</a>
</g>
</g>
<!-- Node7&#45;&gt;Node2 -->
<g id="edge7_Node000007_Node000002" class="edge">
<title>Node7&#45;&gt;Node2</title>
<g id="a_edge7_Node000007_Node000002"><a xlink:title=" ">
<path fill="none" stroke="#63b8ff" d="M448,-149.04C456.09,-149.04 464.31,-149.04 472.1,-149.04"/>
<polygon fill="#63b8ff" stroke="#63b8ff" points="472,-152.54 482,-149.04 472,-145.54 472,-152.54"/>
</a>
</g>
</g>
<!-- Node11&#45;&gt;Node2 -->
<g id="edge12_Node000011_Node000002" class="edge">
<title>Node11&#45;&gt;Node2</title>
<g id="a_edge12_Node000011_Node000002"><a xlink:title=" ">
<path fill="none" stroke="#63b8ff" d="M405.98,-62.8C426.9,-79.33 467.21,-111.18 492.55,-131.2"/>
<polygon fill="#63b8ff" stroke="#63b8ff" points="490.26,-133.85 500.27,-137.31 494.6,-128.36 490.26,-133.85"/>
</a>
</g>
</g>
</g>
</svg>

<g id="navigator" transform="translate(0 0)" fill="#404254">
  <rect fill="#f2f5e9" fill-opacity="0.5" stroke="#606060" stroke-width=".5" x="0" y="0" width="60" height="60"/>
  <use id="zoomplus" xlink:href="#zoomPlus" x="17" y="9" onmousedown="handleZoom(evt,'in')"/>
  <use id="zoomminus" xlink:href="#zoomMin" x="42" y="9" onmousedown="handleZoom(evt,'out')"/>
  <use id="reset" xlink:href="#resetDef" x="30" y="36" onmousedown="handleReset()"/>
   <use id="arrowup" xlink:href="#arrowUp" x="0" y="0" onmousedown="handlePan(0,-1)"/>
  <use id="arrowright" xlink:href="#arrowRight" x="0" y="0" onmousedown="handlePan(1,0)"/>
  <use id="arrowdown" xlink:href="#arrowDown" x="0" y="0" onmousedown="handlePan(0,1)"/>
  <use id="arrowleft" xlink:href="#arrowLeft" x="0" y="0" onmousedown="handlePan(-1,0)"/>
</g>
<svg viewBox="0 0 15 15" width="100%" height="30px" preserveAspectRatio="xMaxYMin meet">
 <g id="arrow_out" transform="scale(0.3 0.3)">
  <a xlink:href="kest__dict__extract_8c_abddf6c2831ba99253c480fb3f38e88c0_cgraph_org.svg" target="_base">
   <rect id="button" ry="5" rx="5" y="6" x="6" height="38" width="38"
        fill="#f2f5e9" fill-opacity="0.5" stroke="#606060" stroke-width="1.0"/>
   <path id="arrow"
     d="M 11.500037,31.436501 C 11.940474,20.09759 22.043105,11.32322 32.158766,21.979434 L 37.068811,17.246167 C 37.068811,17.246167 37.088388,32 37.088388,32 L 22.160133,31.978069 C 22.160133,31.978069 26.997745,27.140456 26.997745,27.140456 C 18.528582,18.264221 13.291696,25.230495 11.500037,31.436501 z"
     style="fill:#404040;"/>
  </a>
 </g>
</svg>

<style type='text/css'>
<![CDATA[
[data-mouse-over-selected='false'] { opacity: 0.7; }
[data-mouse-over-selected='true']  { opacity: 1.0; }
]]>
</style>
<script type="application/ecmascript"><![CDATA[
document.addEventListener('DOMContentLoaded', (event) => {
  highlightEdges();
  highlightAdjacentNodes();
});
]]></script>
</svg>
