<?xml version="1.0" encoding="UTF-8" standalone="no"?>
<!DOCTYPE svg PUBLIC "-//W3C//DTD SVG 1.1//EN"
 "http://www.w3.org/Graphics/SVG/1.1/DTD/svg11.dtd">
<!-- Generated by graphviz version 13.1.2 (20250808.2320)
 -->
<!-- Title: kest_instr_print_format_fr Pages: 1 -->
<svg width="622pt" height="80pt"
 viewBox="0.00 0.00 622.00 80.00" xmlns="http://www.w3.org/2000/svg" xmlns:xlink="http://www.w3.org/1999/xlink">
<g id="graph0" class="graph" transform="scale(1 1) rotate(0) translate(4 76.12)">
<title>kest_instr_print_format_fr</title>
<!-- Node1 -->
<g id="Node000001" class="node">
<title>Node1</title>
<g id="a_Node000001"><a xlink:title=" ">
<polygon fill="#999999" stroke="#666666" points="613.75,-49.12 471.75,-49.12 471.75,-28.38 613.75,-28.38 613.75,-49.12"/>
<text xml:space="preserve" text-anchor="middle" x="542.75" y="-35.62" font-family="Helvetica,sans-Serif" font-size="10.00">kest_instr_print_format_fr</text>
</a>
</g>
</g>
<!-- Node2 -->
<g id="Node000002" class="node">
<title>Node2</title>
<g id="a_Node000002"><a xlink:href="kest__fpga__instr_8c.html#ab4fb8840ccc96b568228d8c7fd5e19e9" target="_top" xlink:title=" ">
<polygon fill="white" stroke="#666666" points="435.75,-69.12 295.25,-69.12 295.25,-48.38 435.75,-48.38 435.75,-69.12"/>
<text xml:space="preserve" text-anchor="middle" x="365.5" y="-55.62" font-family="Helvetica,sans-Serif" font-size="10.00">kest_instr_print_format_a</text>
</a>
</g>
</g>
<!-- Node1&#45;&gt;Node2 -->
<g id="edge1_Node000001_Node000002" class="edge">
<title>Node1&#45;&gt;Node2</title>
<g id="a_edge1_Node000001_Node000002"><a xlink:title=" ">
<path fill="none" stroke="#63b8ff" d="M460.21,-48.06C452.19,-48.97 444.1,-49.89 436.22,-50.79"/>
<polygon fill="#63b8ff" stroke="#63b8ff" points="460.44,-51.55 469.98,-46.94 459.64,-44.6 460.44,-51.55"/>
</a>
</g>
</g>
<!-- Node21 -->
<g id="Node000021" class="node">
<title>Node21</title>
<g id="a_Node000021"><a xlink:href="kest__fpga__instr_8c.html#aec2576e032c2113ae9feea1c210aef10" target="_top" xlink:title=" ">
<polygon fill="white" stroke="#666666" points="435.75,-30.12 295.25,-30.12 295.25,-9.38 435.75,-9.38 435.75,-30.12"/>
<text xml:space="preserve" text-anchor="middle" x="365.5" y="-16.62" font-family="Helvetica,sans-Serif" font-size="10.00">kest_instr_print_format_b</text>
</a>
</g>
</g>
<!-- Node1&#45;&gt;Node21 -->
<g id="edge5_Node000001_Node000021" class="edge">
<title>Node1&#45;&gt;Node21</title>
<g id="a_edge5_Node000001_Node000021"><a xlink:title=" ">
<path fill="none" stroke="#63b8ff" d="M460.21,-29.91C452.19,-29.04 444.1,-28.16 436.22,-27.31"/>
<polygon fill="#63b8ff" stroke="#63b8ff" points="459.66,-33.37 469.97,-30.97 460.41,-26.41 459.66,-33.37"/>
</a>
</g>
</g>
<!-- Node3 -->
<g id="Node000003" class="node">
<title>Node3</title>
<g id="a_Node000003"><a xlink:href="kest__fpga__instr_8c.html#a332dd47f4fc03bf2b8b10bfe7a55d6e3" target="_top" xlink:title=" ">
<polygon fill="white" stroke="#666666" points="259.25,-49.12 168.25,-49.12 168.25,-28.38 259.25,-28.38 259.25,-49.12"/>
<text xml:space="preserve" text-anchor="middle" x="213.75" y="-35.62" font-family="Helvetica,sans-Serif" font-size="10.00">kest_instr_print</text>
</a>
</g>
</g>
<!-- Node2&#45;&gt;Node3 -->
<g id="edge2_Node000002_Node000003" class="edge">
<title>Node2&#45;&gt;Node3</title>
<g id="a_edge2_Node000002_Node000003"><a xlink:title=" ">
<path fill="none" stroke="#63b8ff" d="M283.56,-47.94C275.27,-46.83 267.08,-45.74 259.39,-44.71"/>
<polygon fill="#63b8ff" stroke="#63b8ff" points="283.01,-51.4 293.39,-49.25 283.94,-44.46 283.01,-51.4"/>
</a>
</g>
</g>
<!-- Node4 -->
<g id="Node000004" class="node">
<title>Node4</title>
<g id="a_Node000004"><a xlink:href="kest__fpga__encoding_8c.html#a846915834c09759d6445b5dffc45b723" target="_top" xlink:title=" ">
<polygon fill="#fff0f0" stroke="red" points="127.75,-72.12 4.5,-72.12 4.5,-51.38 127.75,-51.38 127.75,-72.12"/>
<text xml:space="preserve" text-anchor="middle" x="66.12" y="-58.62" font-family="Helvetica,sans-Serif" font-size="10.00">kest_fpga_batch_print</text>
</a>
</g>
</g>
<!-- Node3&#45;&gt;Node4 -->
<g id="edge3_Node000003_Node000004" class="edge">
<title>Node3&#45;&gt;Node4</title>
<g id="a_edge3_Node000003_Node000004"><a xlink:title=" ">
<path fill="none" stroke="#63b8ff" d="M156.72,-47.6C147.38,-49.07 137.65,-50.61 128.2,-52.1"/>
<polygon fill="#63b8ff" stroke="#63b8ff" points="157.04,-51.09 166.37,-46.07 155.95,-44.18 157.04,-51.09"/>
</a>
</g>
</g>
<!-- Node20 -->
<g id="Node000020" class="node">
<title>Node20</title>
<g id="a_Node000020"><a xlink:href="kest__fpga__comms_8c.html#a0e24c965de231bcab602b5b43acb805d" target="_top" xlink:title=" ">
<polygon fill="#fff0f0" stroke="red" points="132.25,-33.5 0,-33.5 0,0 132.25,0 132.25,-33.5"/>
<text xml:space="preserve" text-anchor="start" x="8" y="-20" font-family="Helvetica,sans-Serif" font-size="10.00">kest_fpga_comms_print</text>
<text xml:space="preserve" text-anchor="middle" x="66.12" y="-7.25" font-family="Helvetica,sans-Serif" font-size="10.00">_full_scan</text>
</a>
</g>
</g>
<!-- Node3&#45;&gt;Node20 -->
<g id="edge4_Node000003_Node000020" class="edge">
<title>Node3&#45;&gt;Node20</title>
<g id="a_edge4_Node000003_Node000020"><a xlink:title=" ">
<path fill="none" stroke="#63b8ff" d="M156.64,-30.27C148.82,-29.09 140.72,-27.87 132.74,-26.66"/>
<polygon fill="#63b8ff" stroke="#63b8ff" points="155.96,-33.71 166.37,-31.74 157.01,-26.79 155.96,-33.71"/>
</a>
</g>
</g>
<!-- Node21&#45;&gt;Node3 -->
<g id="edge6_Node000021_Node000003" class="edge">
<title>Node21&#45;&gt;Node3</title>
<g id="a_edge6_Node000021_Node000003"><a xlink:title=" ">
<path fill="none" stroke="#63b8ff" d="M283.56,-30.02C275.27,-31.07 267.08,-32.11 259.39,-33.09"/>
<polygon fill="#63b8ff" stroke="#63b8ff" points="283.9,-33.5 293.38,-28.77 283.02,-26.56 283.9,-33.5"/>
</a>
</g>
</g>
</g>
</svg>
