<?xml version="1.0" encoding="UTF-8" standalone="no"?>
<!DOCTYPE svg PUBLIC "-//W3C//DTD SVG 1.1//EN"
 "http://www.w3.org/Graphics/SVG/1.1/DTD/svg11.dtd">
<!-- Generated by graphviz version 13.1.2 (20250808.2320)
 -->
<!-- Title: kest_effect_is_updated Pages: 1 -->
<svg width="665pt" height="248pt"
 viewBox="0.00 0.00 665.00 248.00" xmlns="http://www.w3.org/2000/svg" xmlns:xlink="http://www.w3.org/1999/xlink">
<g id="graph0" class="graph" transform="scale(1 1) rotate(0) translate(4 243.88)">
<title>kest_effect_is_updated</title>
<!-- Node1 -->
<g id="Node000001" class="node">
<title>Node1</title>
<g id="a_Node000001"><a xlink:title=" ">
<polygon fill="#999999" stroke="#666666" points="657.25,-136.5 528.75,-136.5 528.75,-115.75 657.25,-115.75 657.25,-136.5"/>
<text xml:space="preserve" text-anchor="middle" x="593" y="-123" font-family="Helvetica,sans-Serif" font-size="10.00">kest_effect_is_updated</text>
</a>
</g>
</g>
<!-- Node2 -->
<g id="Node000002" class="node">
<title>Node2</title>
<g id="a_Node000002"><a xlink:href="kest__effect_8c.html#a288d2643ff7af914502102475595ed8f" target="_top" xlink:title=" ">
<polygon fill="white" stroke="#666666" points="478.88,-187.88 370.62,-187.88 370.62,-154.38 478.88,-154.38 478.88,-187.88"/>
<text xml:space="preserve" text-anchor="start" x="378.62" y="-174.38" font-family="Helvetica,sans-Serif" font-size="10.00">kest_effect_handle</text>
<text xml:space="preserve" text-anchor="middle" x="424.75" y="-161.62" font-family="Helvetica,sans-Serif" font-size="10.00">_updates</text>
</a>
</g>
</g>
<!-- Node1&#45;&gt;Node2 -->
<g id="edge1_Node000001_Node000002" class="edge">
<title>Node1&#45;&gt;Node2</title>
<g id="a_edge1_Node000001_Node000002"><a xlink:title=" ">
<path fill="none" stroke="#63b8ff" d="M541.27,-139.86C521.57,-145.19 499.01,-151.3 479.08,-156.69"/>
<polygon fill="#63b8ff" stroke="#63b8ff" points="541.98,-143.29 550.72,-137.3 540.15,-136.53 541.98,-143.29"/>
</a>
</g>
</g>
<!-- Node6 -->
<g id="Node000006" class="node">
<title>Node6</title>
<g id="a_Node000006"><a xlink:href="kest__effect_8c.html#ad5745ec5888a0568782154fb4f8adfee" target="_top" xlink:title=" ">
<polygon fill="white" stroke="#666666" points="478.88,-239.88 370.62,-239.88 370.62,-206.38 478.88,-206.38 478.88,-239.88"/>
<text xml:space="preserve" text-anchor="start" x="378.62" y="-226.38" font-family="Helvetica,sans-Serif" font-size="10.00">kest_effect_handle</text>
<text xml:space="preserve" text-anchor="middle" x="424.75" y="-213.62" font-family="Helvetica,sans-Serif" font-size="10.00">_updates_inc_ui</text>
</a>
</g>
</g>
<!-- Node1&#45;&gt;Node6 -->
<g id="edge5_Node000001_Node000006" class="edge">
<title>Node1&#45;&gt;Node6</title>
<g id="a_edge5_Node000001_Node000006"><a xlink:title=" ">
<path fill="none" stroke="#63b8ff" d="M570.3,-144.09C550.86,-159.57 521.13,-181.78 492.75,-197.12 486.93,-200.27 480.65,-203.23 474.35,-205.94"/>
<polygon fill="#63b8ff" stroke="#63b8ff" points="572.46,-146.85 578.04,-137.84 568.06,-141.4 572.46,-146.85"/>
</a>
</g>
</g>
<!-- Node7 -->
<g id="Node000007" class="node">
<title>Node7</title>
<g id="a_Node000007"><a xlink:href="kest__effect_8c.html#a490655823471fa9f081e6252b13da30e" target="_top" xlink:title=" ">
<polygon fill="white" stroke="#666666" points="492.75,-136.5 356.75,-136.5 356.75,-115.75 492.75,-115.75 492.75,-136.5"/>
<text xml:space="preserve" text-anchor="middle" x="424.75" y="-123" font-family="Helvetica,sans-Serif" font-size="10.00">kest_effect_update_fpga</text>
</a>
</g>
</g>
<!-- Node1&#45;&gt;Node7 -->
<g id="edge7_Node000001_Node000007" class="edge">
<title>Node1&#45;&gt;Node7</title>
<g id="a_edge7_Node000001_Node000007"><a xlink:title=" ">
<path fill="none" stroke="#63b8ff" d="M517.34,-126.12C509.25,-126.12 501.05,-126.12 493.05,-126.12"/>
<polygon fill="#63b8ff" stroke="#63b8ff" points="517.16,-129.63 527.16,-126.13 517.16,-122.63 517.16,-129.63"/>
</a>
</g>
</g>
<!-- Node8 -->
<g id="Node000008" class="node">
<title>Node8</title>
<g id="a_Node000008"><a xlink:href="kest__effect_8c.html#acd72b0b8d69b207a12265887b06fc7f9" target="_top" xlink:title=" ">
<polygon fill="white" stroke="#666666" points="479.25,-97.88 370.25,-97.88 370.25,-64.38 479.25,-64.38 479.25,-97.88"/>
<text xml:space="preserve" text-anchor="start" x="378.25" y="-84.38" font-family="Helvetica,sans-Serif" font-size="10.00">kest_effect_update</text>
<text xml:space="preserve" text-anchor="middle" x="424.75" y="-71.62" font-family="Helvetica,sans-Serif" font-size="10.00">_sync_no_pw</text>
</a>
</g>
</g>
<!-- Node1&#45;&gt;Node8 -->
<g id="edge8_Node000001_Node000008" class="edge">
<title>Node1&#45;&gt;Node8</title>
<g id="a_edge8_Node000001_Node000008"><a xlink:title=" ">
<path fill="none" stroke="#63b8ff" d="M541.09,-112.35C521.65,-107.08 499.42,-101.07 479.7,-95.73"/>
<polygon fill="#63b8ff" stroke="#63b8ff" points="540.15,-115.72 550.72,-114.95 541.98,-108.96 540.15,-115.72"/>
</a>
</g>
</g>
<!-- Node9 -->
<g id="Node000009" class="node">
<title>Node9</title>
<g id="a_Node000009"><a xlink:href="kest__fpga__encoding_8c.html#a88e143203d90d22159a81888f02b3c11" target="_top" xlink:title=" ">
<polygon fill="white" stroke="#666666" points="486.38,-46.25 363.12,-46.25 363.12,0 486.38,0 486.38,-46.25"/>
<text xml:space="preserve" text-anchor="start" x="371.12" y="-32.75" font-family="Helvetica,sans-Serif" font-size="10.00">kest_fpga_transfer</text>
<text xml:space="preserve" text-anchor="start" x="371.12" y="-20" font-family="Helvetica,sans-Serif" font-size="10.00">_batch_append_effect</text>
<text xml:space="preserve" text-anchor="middle" x="424.75" y="-7.25" font-family="Helvetica,sans-Serif" font-size="10.00">_updates</text>
</a>
</g>
</g>
<!-- Node1&#45;&gt;Node9 -->
<g id="edge9_Node000001_Node000009" class="edge">
<title>Node1&#45;&gt;Node9</title>
<g id="a_edge9_Node000001_Node000009"><a xlink:title=" ">
<path fill="none" stroke="#63b8ff" d="M569.67,-108.42C550.04,-93.29 520.38,-71.43 492.75,-55.12 487.87,-52.24 482.68,-49.4 477.44,-46.68"/>
<polygon fill="#63b8ff" stroke="#63b8ff" points="567.47,-111.14 577.51,-114.53 571.77,-105.62 567.47,-111.14"/>
</a>
</g>
</g>
<!-- Node3 -->
<g id="Node000003" class="node">
<title>Node3</title>
<g id="a_Node000003"><a xlink:href="kest__update_8c.html#a5e0d89e23eaabecddff58a4612bc5c71" target="_top" xlink:title=" ">
<polygon fill="white" stroke="#666666" points="301.25,-235.88 193.75,-235.88 193.75,-202.38 301.25,-202.38 301.25,-235.88"/>
<text xml:space="preserve" text-anchor="start" x="201.75" y="-222.38" font-family="Helvetica,sans-Serif" font-size="10.00">kest_active_preset</text>
<text xml:space="preserve" text-anchor="middle" x="247.5" y="-209.62" font-family="Helvetica,sans-Serif" font-size="10.00">_updater_task</text>
</a>
</g>
</g>
<!-- Node2&#45;&gt;Node3 -->
<g id="edge2_Node000002_Node000003" class="edge">
<title>Node2&#45;&gt;Node3</title>
<g id="a_edge2_Node000002_Node000003"><a xlink:title=" ">
<path fill="none" stroke="#63b8ff" d="M359.28,-188.78C340.34,-193.97 319.85,-199.58 301.71,-204.55"/>
<polygon fill="#63b8ff" stroke="#63b8ff" points="360.04,-192.2 368.76,-186.19 358.19,-185.45 360.04,-192.2"/>
</a>
</g>
</g>
<!-- Node5 -->
<g id="Node000005" class="node">
<title>Node5</title>
<g id="a_Node000005"><a xlink:href="kest__effect_8c.html#a6388818d6f91e8be07c0bf562b4db182" target="_top" xlink:title=" ">
<polygon fill="white" stroke="#666666" points="315.88,-181.5 179.12,-181.5 179.12,-160.75 315.88,-160.75 315.88,-181.5"/>
<text xml:space="preserve" text-anchor="middle" x="247.5" y="-168" font-family="Helvetica,sans-Serif" font-size="10.00">kest_effect_update_sync</text>
</a>
</g>
</g>
<!-- Node2&#45;&gt;Node5 -->
<g id="edge4_Node000002_Node000005" class="edge">
<title>Node2&#45;&gt;Node5</title>
<g id="a_edge4_Node000002_Node000005"><a xlink:title=" ">
<path fill="none" stroke="#63b8ff" d="M358.8,-171.12C344.93,-171.12 330.25,-171.12 316.28,-171.12"/>
<polygon fill="#63b8ff" stroke="#63b8ff" points="358.7,-174.63 368.7,-171.13 358.7,-167.63 358.7,-174.63"/>
</a>
</g>
</g>
<!-- Node4 -->
<g id="Node000004" class="node">
<title>Node4</title>
<g id="a_Node000004"><a xlink:href="kest__update_8c.html#aef4f7ed8ef5adaa01ca80fe1ab8f18e8" target="_top" xlink:title=" ">
<polygon fill="white" stroke="#666666" points="122.88,-235.88 15.38,-235.88 15.38,-202.38 122.88,-202.38 122.88,-235.88"/>
<text xml:space="preserve" text-anchor="start" x="23.38" y="-222.38" font-family="Helvetica,sans-Serif" font-size="10.00">kest_active_preset</text>
<text xml:space="preserve" text-anchor="middle" x="69.12" y="-209.62" font-family="Helvetica,sans-Serif" font-size="10.00">_updater_start</text>
</a>
</g>
</g>
<!-- Node3&#45;&gt;Node4 -->
<g id="edge3_Node000003_Node000004" class="edge">
<title>Node3&#45;&gt;Node4</title>
<g id="a_edge3_Node000003_Node000004"><a xlink:title=" ">
<path fill="none" stroke="#63b8ff" d="M182.11,-219.12C162.79,-219.12 141.82,-219.12 123.31,-219.12"/>
<polygon fill="#63b8ff" stroke="#63b8ff" points="182.07,-222.63 192.07,-219.13 182.07,-215.63 182.07,-222.63"/>
</a>
</g>
</g>
<!-- Node6&#45;&gt;Node3 -->
<g id="edge6_Node000006_Node000003" class="edge">
<title>Node6&#45;&gt;Node3</title>
<g id="a_edge6_Node000006_Node000003"><a xlink:title=" ">
<path fill="none" stroke="#63b8ff" d="M358.75,-221.64C339.96,-221.21 319.68,-220.75 301.71,-220.34"/>
<polygon fill="#63b8ff" stroke="#63b8ff" points="358.63,-225.14 368.7,-221.87 358.79,-218.14 358.63,-225.14"/>
</a>
</g>
</g>
<!-- Node10 -->
<g id="Node000010" class="node">
<title>Node10</title>
<g id="a_Node000010"><a xlink:href="kest__pipeline_8c.html#ab8999b49f257e50e63cc3294b8212daf" target="_top" xlink:title=" ">
<polygon fill="white" stroke="#666666" points="320.75,-33.5 174.25,-33.5 174.25,-12.75 320.75,-12.75 320.75,-33.5"/>
<text xml:space="preserve" text-anchor="middle" x="247.5" y="-20" font-family="Helvetica,sans-Serif" font-size="10.00">kest_pipeline_update_fpga</text>
</a>
</g>
</g>
<!-- Node9&#45;&gt;Node10 -->
<g id="edge10_Node000009_Node000010" class="edge">
<title>Node9&#45;&gt;Node10</title>
<g id="a_edge10_Node000009_Node000010"><a xlink:title=" ">
<path fill="none" stroke="#63b8ff" d="M351.66,-23.12C341.52,-23.12 331.1,-23.12 320.95,-23.12"/>
<polygon fill="#63b8ff" stroke="#63b8ff" points="351.43,-26.63 361.43,-23.13 351.43,-19.63 351.43,-26.63"/>
</a>
</g>
</g>
<!-- Node11 -->
<g id="Node000011" class="node">
<title>Node11</title>
<g id="a_Node000011"><a xlink:href="kest__preset_8c.html#ab64bc66e9927debdfdf9552920c69fcf" target="_top" xlink:title=" ">
<polygon fill="#fff0f0" stroke="red" points="138.25,-33.5 0,-33.5 0,-12.75 138.25,-12.75 138.25,-33.5"/>
<text xml:space="preserve" text-anchor="middle" x="69.12" y="-20" font-family="Helvetica,sans-Serif" font-size="10.00">kest_preset_update_fpga</text>
</a>
</g>
</g>
<!-- Node10&#45;&gt;Node11 -->
<g id="edge11_Node000010_Node000011" class="edge">
<title>Node10&#45;&gt;Node11</title>
<g id="a_edge11_Node000010_Node000011"><a xlink:title=" ">
<path fill="none" stroke="#63b8ff" d="M162.68,-23.12C154.63,-23.12 146.53,-23.12 138.66,-23.12"/>
<polygon fill="#63b8ff" stroke="#63b8ff" points="162.48,-26.63 172.48,-23.13 162.48,-19.63 162.48,-26.63"/>
</a>
</g>
</g>
</g>
</svg>
