<?xml version="1.0" encoding="UTF-8" standalone="no"?>
<!DOCTYPE svg PUBLIC "-//W3C//DTD SVG 1.1//EN"
 "http://www.w3.org/Graphics/SVG/1.1/DTD/svg11.dtd">
<!-- Generated by graphviz version 13.1.2 (20250808.2320)
 -->
<!-- Title: kest_scope_entry_add_dependent_scope_entry Pages: 1 -->
<svg width="909pt" height="102pt"
 viewBox="0.00 0.00 909.00 102.00" xmlns="http://www.w3.org/2000/svg" xmlns:xlink="http://www.w3.org/1999/xlink">
<g id="graph0" class="graph" transform="scale(1 1) rotate(0) translate(4 97.5)">
<title>kest_scope_entry_add_dependent_scope_entry</title>
<!-- Node1 -->
<g id="Node000001" class="node">
<title>Node1</title>
<g id="a_Node000001"><a xlink:title=" ">
<polygon fill="#999999" stroke="#666666" points="900.5,-64.5 763,-64.5 763,-31 900.5,-31 900.5,-64.5"/>
<text xml:space="preserve" text-anchor="start" x="771" y="-51" font-family="Helvetica,sans-Serif" font-size="10.00">kest_scope_entry_add</text>
<text xml:space="preserve" text-anchor="middle" x="831.75" y="-38.25" font-family="Helvetica,sans-Serif" font-size="10.00">_dependent_scope_entry</text>
</a>
</g>
</g>
<!-- Node2 -->
<g id="Node000002" class="node">
<title>Node2</title>
<g id="a_Node000002"><a xlink:href="kest__expr__scope_8c.html#a8042b7711c05856ef5755963535b68f8" target="_top" xlink:title=" ">
<polygon fill="white" stroke="#666666" points="727,-85.12 548.25,-85.12 548.25,-64.38 727,-64.38 727,-85.12"/>
<text xml:space="preserve" text-anchor="middle" x="637.62" y="-71.62" font-family="Helvetica,sans-Serif" font-size="10.00">kest_scope_detect_dependencies</text>
</a>
</g>
</g>
<!-- Node1&#45;&gt;Node2 -->
<g id="edge1_Node000001_Node000002" class="edge">
<title>Node1&#45;&gt;Node2</title>
<g id="a_edge1_Node000001_Node000002"><a xlink:title=" ">
<path fill="none" stroke="#63b8ff" d="M751.53,-58.88C739.69,-60.55 727.5,-62.26 715.71,-63.92"/>
<polygon fill="#63b8ff" stroke="#63b8ff" points="751.83,-62.38 761.24,-57.52 750.85,-55.44 751.83,-62.38"/>
</a>
</g>
</g>
<!-- Node32 -->
<g id="Node000032" class="node">
<title>Node32</title>
<g id="a_Node000032"><a xlink:href="kest__expr__scope_8c.html#a8599558aef23a41dd9b43bfa790c35ef" target="_top" xlink:title=" ">
<polygon fill="white" stroke="#666666" points="699.62,-42.5 575.62,-42.5 575.62,-9 699.62,-9 699.62,-42.5"/>
<text xml:space="preserve" text-anchor="start" x="583.62" y="-29" font-family="Helvetica,sans-Serif" font-size="10.00">kest_scope_entry_add</text>
<text xml:space="preserve" text-anchor="middle" x="637.62" y="-16.25" font-family="Helvetica,sans-Serif" font-size="10.00">_dependent</text>
</a>
</g>
</g>
<!-- Node1&#45;&gt;Node32 -->
<g id="edge4_Node000001_Node000032" class="edge">
<title>Node1&#45;&gt;Node32</title>
<g id="a_edge4_Node000001_Node000032"><a xlink:title=" ">
<path fill="none" stroke="#63b8ff" d="M751.53,-38.68C734.27,-36.7 716.25,-34.64 699.82,-32.76"/>
<polygon fill="#63b8ff" stroke="#63b8ff" points="750.91,-42.13 761.24,-39.79 751.7,-35.18 750.91,-42.13"/>
</a>
</g>
</g>
<!-- Node3 -->
<g id="Node000003" class="node">
<title>Node3</title>
<g id="a_Node000003"><a xlink:href="kest__effect_8c.html#a487a10984ad42feea8c8e1e97f4cd3a3" target="_top" xlink:title=" ">
<polygon fill="white" stroke="#666666" points="310.62,-93.5 204.62,-93.5 204.62,-60 310.62,-60 310.62,-93.5"/>
<text xml:space="preserve" text-anchor="start" x="212.62" y="-80" font-family="Helvetica,sans-Serif" font-size="10.00">kest_effect_create</text>
<text xml:space="preserve" text-anchor="middle" x="257.62" y="-67.25" font-family="Helvetica,sans-Serif" font-size="10.00">_scope</text>
</a>
</g>
</g>
<!-- Node2&#45;&gt;Node3 -->
<g id="edge2_Node000002_Node000003" class="edge">
<title>Node2&#45;&gt;Node3</title>
<g id="a_edge2_Node000002_Node000003"><a xlink:title=" ">
<path fill="none" stroke="#63b8ff" d="M536.57,-75.28C464.07,-75.66 368.95,-76.17 310.89,-76.47"/>
<polygon fill="#63b8ff" stroke="#63b8ff" points="536.51,-78.78 546.49,-75.23 536.47,-71.78 536.51,-78.78"/>
</a>
</g>
</g>
<!-- Node4 -->
<g id="Node000004" class="node">
<title>Node4</title>
<g id="a_Node000004"><a xlink:href="kest__effect_8c.html#a85b25e44e2629962673634f965ffe304" target="_top" xlink:title=" ">
<polygon fill="#fff0f0" stroke="red" points="155.5,-58.12 0,-58.12 0,-37.38 155.5,-37.38 155.5,-58.12"/>
<text xml:space="preserve" text-anchor="middle" x="77.75" y="-44.62" font-family="Helvetica,sans-Serif" font-size="10.00">init_effect_from_effect_desc</text>
</a>
</g>
</g>
<!-- Node3&#45;&gt;Node4 -->
<g id="edge3_Node000003_Node000004" class="edge">
<title>Node3&#45;&gt;Node4</title>
<g id="a_edge3_Node000003_Node000004"><a xlink:title=" ">
<path fill="none" stroke="#63b8ff" d="M193.15,-66.4C177.63,-63.87 160.99,-61.16 145.33,-58.61"/>
<polygon fill="#63b8ff" stroke="#63b8ff" points="192.29,-69.81 202.72,-67.96 193.42,-62.9 192.29,-69.81"/>
</a>
</g>
</g>
<!-- Node33 -->
<g id="Node000033" class="node">
<title>Node33</title>
<g id="a_Node000033"><a xlink:href="kest__expr__scope_8c.html#ac44f26a1dd7c685a7a3d5423a6c1ff54" target="_top" xlink:title=" ">
<polygon fill="white" stroke="#666666" points="512.25,-33.5 359.75,-33.5 359.75,0 512.25,0 512.25,-33.5"/>
<text xml:space="preserve" text-anchor="start" x="367.75" y="-20" font-family="Helvetica,sans-Serif" font-size="10.00">kest_scope_transitivize</text>
<text xml:space="preserve" text-anchor="middle" x="436" y="-7.25" font-family="Helvetica,sans-Serif" font-size="10.00">_updatable_dependents_rec</text>
</a>
</g>
</g>
<!-- Node32&#45;&gt;Node33 -->
<g id="edge5_Node000032_Node000033" class="edge">
<title>Node32&#45;&gt;Node33</title>
<g id="a_edge5_Node000032_Node000033"><a xlink:title=" ">
<path fill="none" stroke="#63b8ff" d="M563.99,-22.48C547.26,-21.72 529.43,-20.92 512.58,-20.16"/>
<polygon fill="#63b8ff" stroke="#63b8ff" points="563.71,-25.97 573.86,-22.92 564.03,-18.97 563.71,-25.97"/>
</a>
</g>
</g>
<!-- Node33&#45;&gt;Node33 -->
<g id="edge8_Node000033_Node000033" class="edge">
<title>Node33&#45;&gt;Node33</title>
<g id="a_edge8_Node000033_Node000033"><a xlink:title=" ">
<path fill="none" stroke="#63b8ff" d="M465.95,-44.89C461.07,-48.85 451.09,-51.5 436,-51.5 409.17,-51.5 398.49,-43.12 403.93,-33.91"/>
<polygon fill="#63b8ff" stroke="#63b8ff" points="469.32,-45.88 467.78,-35.4 462.45,-44.56 469.32,-45.88"/>
</a>
</g>
</g>
<!-- Node34 -->
<g id="Node000034" class="node">
<title>Node34</title>
<g id="a_Node000034"><a xlink:href="kest__expr__scope_8c.html#a22d04780c6f58fc94a907b3969a819cc" target="_top" xlink:title=" ">
<polygon fill="white" stroke="#666666" points="323.75,-38.5 191.5,-38.5 191.5,-5 323.75,-5 323.75,-38.5"/>
<text xml:space="preserve" text-anchor="start" x="199.5" y="-25" font-family="Helvetica,sans-Serif" font-size="10.00">kest_scope_transitivize</text>
<text xml:space="preserve" text-anchor="middle" x="257.62" y="-12.25" font-family="Helvetica,sans-Serif" font-size="10.00">_updatable_dependents</text>
</a>
</g>
</g>
<!-- Node33&#45;&gt;Node34 -->
<g id="edge6_Node000033_Node000034" class="edge">
<title>Node33&#45;&gt;Node34</title>
<g id="a_edge6_Node000033_Node000034"><a xlink:title=" ">
<path fill="none" stroke="#63b8ff" d="M348.05,-19.22C339.97,-19.44 331.87,-19.67 324.04,-19.9"/>
<polygon fill="#63b8ff" stroke="#63b8ff" points="348.02,-22.72 357.92,-18.94 347.83,-15.72 348.02,-22.72"/>
</a>
</g>
</g>
<!-- Node34&#45;&gt;Node4 -->
<g id="edge7_Node000034_Node000004" class="edge">
<title>Node34&#45;&gt;Node4</title>
<g id="a_edge7_Node000034_Node000004"><a xlink:title=" ">
<path fill="none" stroke="#63b8ff" d="M179.98,-32.95C171.06,-34.26 161.98,-35.58 153.1,-36.88"/>
<polygon fill="#63b8ff" stroke="#63b8ff" points="180.26,-36.45 189.65,-31.54 179.25,-29.52 180.26,-36.45"/>
</a>
</g>
</g>
</g>
</svg>
