<?xml version="1.0" encoding="UTF-8" standalone="no"?>
<!DOCTYPE svg PUBLIC "-//W3C//DTD SVG 1.1//EN"
 "http://www.w3.org/Graphics/SVG/1.1/DTD/svg11.dtd">
<!-- Generated by graphviz version 13.1.2 (20250808.2320)
 -->
<!-- Title: format_float Pages: 1 -->
<svg width="667pt" height="377pt"
 viewBox="0.00 0.00 667.00 377.00" xmlns="http://www.w3.org/2000/svg" xmlns:xlink="http://www.w3.org/1999/xlink">
<g id="graph0" class="graph" transform="scale(1 1) rotate(0) translate(4 373.12)">
<title>format_float</title>
<!-- Node1 -->
<g id="Node000001" class="node">
<title>Node1</title>
<g id="a_Node000001"><a xlink:title=" ">
<polygon fill="#999999" stroke="#666666" points="658.75,-156.12 582,-156.12 582,-135.38 658.75,-135.38 658.75,-156.12"/>
<text xml:space="preserve" text-anchor="middle" x="620.38" y="-142.62" font-family="Helvetica,sans-Serif" font-size="10.00">format_float</text>
</a>
</g>
</g>
<!-- Node2 -->
<g id="Node000002" class="node">
<title>Node2</title>
<g id="a_Node000002"><a xlink:href="kest__parameter__widget_8c.html#a18645c953c82858daf73b274b6fd99f2" target="_top" xlink:title=" ">
<polygon fill="white" stroke="#666666" points="533.25,-297.5 415.25,-297.5 415.25,-264 533.25,-264 533.25,-297.5"/>
<text xml:space="preserve" text-anchor="start" x="423.25" y="-284" font-family="Helvetica,sans-Serif" font-size="10.00">configure_parameter</text>
<text xml:space="preserve" text-anchor="middle" x="474.25" y="-271.25" font-family="Helvetica,sans-Serif" font-size="10.00">_widget</text>
</a>
</g>
</g>
<!-- Node1&#45;&gt;Node2 -->
<g id="edge1_Node000001_Node000002" class="edge">
<title>Node1&#45;&gt;Node2</title>
<g id="a_edge1_Node000001_Node000002"><a xlink:title=" ">
<path fill="none" stroke="#63b8ff" d="M599.86,-164.03C571.92,-190.2 520.87,-238.02 493.59,-263.58"/>
<polygon fill="#63b8ff" stroke="#63b8ff" points="602.06,-166.77 606.96,-157.38 597.27,-161.66 602.06,-166.77"/>
</a>
</g>
</g>
<!-- Node31 -->
<g id="Node000031" class="node">
<title>Node31</title>
<g id="a_Node000031"><a xlink:href="kest__parameter__widget_8c.html#a9a7e5431ab9599259aa5e2cfa47e6308" target="_top" xlink:title=" ">
<polygon fill="white" stroke="#666666" points="546,-162.5 402.5,-162.5 402.5,-129 546,-129 546,-162.5"/>
<text xml:space="preserve" text-anchor="start" x="410.5" y="-149" font-family="Helvetica,sans-Serif" font-size="10.00">format_parameter_widget</text>
<text xml:space="preserve" text-anchor="middle" x="474.25" y="-136.25" font-family="Helvetica,sans-Serif" font-size="10.00">_value_label</text>
</a>
</g>
</g>
<!-- Node1&#45;&gt;Node31 -->
<g id="edge9_Node000001_Node000031" class="edge">
<title>Node1&#45;&gt;Node31</title>
<g id="a_edge9_Node000001_Node000031"><a xlink:title=" ">
<path fill="none" stroke="#63b8ff" d="M570.18,-145.75C562.48,-145.75 554.4,-145.75 546.33,-145.75"/>
<polygon fill="#63b8ff" stroke="#63b8ff" points="569.99,-149.25 579.99,-145.75 569.99,-142.25 569.99,-149.25"/>
</a>
</g>
</g>
<!-- Node93 -->
<g id="Node000093" class="node">
<title>Node93</title>
<g id="a_Node000093"><a xlink:href="kest__parameter__widget_8c.html#a5ed85df98ceada227f8fcd5499d75be8" target="_top" xlink:title=" ">
<polygon fill="white" stroke="#666666" points="546,-110.5 402.5,-110.5 402.5,-77 546,-77 546,-110.5"/>
<text xml:space="preserve" text-anchor="start" x="410.5" y="-97" font-family="Helvetica,sans-Serif" font-size="10.00">format_parameter_widget</text>
<text xml:space="preserve" text-anchor="middle" x="474.25" y="-84.25" font-family="Helvetica,sans-Serif" font-size="10.00">_value_label_v</text>
</a>
</g>
</g>
<!-- Node1&#45;&gt;Node93 -->
<g id="edge16_Node000001_Node000093" class="edge">
<title>Node1&#45;&gt;Node93</title>
<g id="a_edge16_Node000001_Node000093"><a xlink:title=" ">
<path fill="none" stroke="#63b8ff" d="M579.11,-131.22C561.67,-124.93 541.14,-117.52 522.95,-110.96"/>
<polygon fill="#63b8ff" stroke="#63b8ff" points="577.49,-134.36 588.09,-134.46 579.87,-127.78 577.49,-134.36"/>
</a>
</g>
</g>
<!-- Node3 -->
<g id="Node000003" class="node">
<title>Node3</title>
<g id="a_Node000003"><a xlink:href="kest__effect__settings_8c.html#ab738a7e4abecdaf8e9e7788ace97d8b5" target="_top" xlink:title=" ">
<polygon fill="white" stroke="#666666" points="366.5,-330.12 197.5,-330.12 197.5,-309.38 366.5,-309.38 366.5,-330.12"/>
<text xml:space="preserve" text-anchor="middle" x="282" y="-316.62" font-family="Helvetica,sans-Serif" font-size="10.00">configure_effect_settings_page</text>
</a>
</g>
</g>
<!-- Node2&#45;&gt;Node3 -->
<g id="edge2_Node000002_Node000003" class="edge">
<title>Node2&#45;&gt;Node3</title>
<g id="a_edge2_Node000002_Node000003"><a xlink:title=" ">
<path fill="none" stroke="#63b8ff" d="M403.71,-295.01C381.27,-299.61 356.78,-304.62 335.77,-308.93"/>
<polygon fill="#63b8ff" stroke="#63b8ff" points="404.3,-298.46 413.39,-293.02 402.89,-291.6 404.3,-298.46"/>
</a>
</g>
</g>
<!-- Node4 -->
<g id="Node000004" class="node">
<title>Node4</title>
<g id="a_Node000004"><a xlink:href="kest__effect__view_8c.html#ae392eef44a5a025bad43a7a8969ab5b0" target="_top" xlink:title=" ">
<polygon fill="#fff0f0" stroke="red" points="142.75,-369.12 18.75,-369.12 18.75,-348.38 142.75,-348.38 142.75,-369.12"/>
<text xml:space="preserve" text-anchor="middle" x="80.75" y="-355.62" font-family="Helvetica,sans-Serif" font-size="10.00">configure_effect_view</text>
</a>
</g>
</g>
<!-- Node2&#45;&gt;Node4 -->
<g id="edge5_Node000002_Node000004" class="edge">
<title>Node2&#45;&gt;Node4</title>
<g id="a_edge5_Node000002_Node000004"><a xlink:title=" ">
<path fill="none" stroke="#63b8ff" d="M439.46,-303.98C419.24,-316.61 392.48,-331.17 366.5,-338.75 291.81,-360.54 201.63,-363.13 143.06,-361.87"/>
<polygon fill="#63b8ff" stroke="#63b8ff" points="441.32,-306.95 447.85,-298.61 437.54,-301.06 441.32,-306.95"/>
</a>
</g>
</g>
<!-- Node8 -->
<g id="Node000008" class="node">
<title>Node8</title>
<g id="a_Node000008"><a xlink:href="kest__menu_8c.html#a86c6c0acd2dfb8a62bd96bbfd739e687" target="_top" xlink:title=" ">
<polygon fill="white" stroke="#666666" points="344.38,-291.12 219.62,-291.12 219.62,-270.38 344.38,-270.38 344.38,-291.12"/>
<text xml:space="preserve" text-anchor="middle" x="282" y="-277.62" font-family="Helvetica,sans-Serif" font-size="10.00">configure_main_menu</text>
</a>
</g>
</g>
<!-- Node2&#45;&gt;Node8 -->
<g id="edge6_Node000002_Node000008" class="edge">
<title>Node2&#45;&gt;Node8</title>
<g id="a_edge6_Node000002_Node000008"><a xlink:title=" ">
<path fill="none" stroke="#63b8ff" d="M403.41,-280.75C384.12,-280.75 363.34,-280.75 344.56,-280.75"/>
<polygon fill="#63b8ff" stroke="#63b8ff" points="403.36,-284.25 413.36,-280.75 403.36,-277.25 403.36,-284.25"/>
</a>
</g>
</g>
<!-- Node30 -->
<g id="Node000030" class="node">
<title>Node30</title>
<g id="a_Node000030"><a xlink:href="kest__menu_8c.html#a022467860beb31712a6580996ac1527e" target="_top" xlink:title=" ">
<polygon fill="white" stroke="#666666" points="352.62,-252.5 211.38,-252.5 211.38,-219 352.62,-219 352.62,-252.5"/>
<text xml:space="preserve" text-anchor="start" x="219.38" y="-239" font-family="Helvetica,sans-Serif" font-size="10.00">create_parameter_widget</text>
<text xml:space="preserve" text-anchor="middle" x="282" y="-226.25" font-family="Helvetica,sans-Serif" font-size="10.00">_menu_item</text>
</a>
</g>
</g>
<!-- Node2&#45;&gt;Node30 -->
<g id="edge8_Node000002_Node000030" class="edge">
<title>Node2&#45;&gt;Node30</title>
<g id="a_edge8_Node000002_Node000030"><a xlink:title=" ">
<path fill="none" stroke="#63b8ff" d="M404.12,-264.4C387.47,-260.46 369.67,-256.25 352.98,-252.3"/>
<polygon fill="#63b8ff" stroke="#63b8ff" points="402.87,-267.7 413.4,-266.59 404.48,-260.89 402.87,-267.7"/>
</a>
</g>
</g>
<!-- Node3&#45;&gt;Node4 -->
<g id="edge3_Node000003_Node000004" class="edge">
<title>Node3&#45;&gt;Node4</title>
<g id="a_edge3_Node000003_Node000004"><a xlink:title=" ">
<path fill="none" stroke="#63b8ff" d="M214.26,-332.81C189.27,-337.7 161.17,-343.2 137.3,-347.88"/>
<polygon fill="#63b8ff" stroke="#63b8ff" points="214.87,-336.26 224.01,-330.9 213.53,-329.39 214.87,-336.26"/>
</a>
</g>
</g>
<!-- Node7 -->
<g id="Node000007" class="node">
<title>Node7</title>
<g id="a_Node000007"><a xlink:href="kest__effect__settings_8c.html#ab8bf2accabc08beecb97a54915abc488" target="_top" xlink:title=" ">
<polygon fill="#fff0f0" stroke="red" points="150.25,-330.12 11.25,-330.12 11.25,-309.38 150.25,-309.38 150.25,-330.12"/>
<text xml:space="preserve" text-anchor="middle" x="80.75" y="-316.62" font-family="Helvetica,sans-Serif" font-size="10.00">init_effect_settings_page</text>
</a>
</g>
</g>
<!-- Node3&#45;&gt;Node7 -->
<g id="edge4_Node000003_Node000007" class="edge">
<title>Node3&#45;&gt;Node7</title>
<g id="a_edge4_Node000003_Node000007"><a xlink:title=" ">
<path fill="none" stroke="#63b8ff" d="M185.73,-319.75C173.84,-319.75 161.86,-319.75 150.49,-319.75"/>
<polygon fill="#63b8ff" stroke="#63b8ff" points="185.56,-323.25 195.56,-319.75 185.56,-316.25 185.56,-323.25"/>
</a>
</g>
</g>
<!-- Node9 -->
<g id="Node000009" class="node">
<title>Node9</title>
<g id="a_Node000009"><a xlink:href="kest__menu_8c.html#a6aa16fb3d12f098f021ae677605e683e" target="_top" xlink:title=" ">
<polygon fill="#fff0f0" stroke="red" points="128.12,-291.12 33.38,-291.12 33.38,-270.38 128.12,-270.38 128.12,-291.12"/>
<text xml:space="preserve" text-anchor="middle" x="80.75" y="-277.62" font-family="Helvetica,sans-Serif" font-size="10.00">init_main_menu</text>
</a>
</g>
</g>
<!-- Node8&#45;&gt;Node9 -->
<g id="edge7_Node000008_Node000009" class="edge">
<title>Node8&#45;&gt;Node9</title>
<g id="a_edge7_Node000008_Node000009"><a xlink:title=" ">
<path fill="none" stroke="#63b8ff" d="M208.13,-280.75C181.58,-280.75 152.28,-280.75 128.59,-280.75"/>
<polygon fill="#63b8ff" stroke="#63b8ff" points="207.81,-284.25 217.81,-280.75 207.81,-277.25 207.81,-284.25"/>
</a>
</g>
</g>
<!-- Node32 -->
<g id="Node000032" class="node">
<title>Node32</title>
<g id="a_Node000032"><a xlink:href="kest__parameter__widget_8c.html#af345b51066bd1985326c50809d992fab" target="_top" xlink:title=" ">
<polygon fill="white" stroke="#666666" points="354.12,-162.5 209.88,-162.5 209.88,-129 354.12,-129 354.12,-162.5"/>
<text xml:space="preserve" text-anchor="start" x="217.88" y="-149" font-family="Helvetica,sans-Serif" font-size="10.00">parameter_widget_update</text>
<text xml:space="preserve" text-anchor="middle" x="282" y="-136.25" font-family="Helvetica,sans-Serif" font-size="10.00">_value_label</text>
</a>
</g>
</g>
<!-- Node31&#45;&gt;Node32 -->
<g id="edge10_Node000031_Node000032" class="edge">
<title>Node31&#45;&gt;Node32</title>
<g id="a_edge10_Node000031_Node000032"><a xlink:title=" ">
<path fill="none" stroke="#63b8ff" d="M390.65,-145.75C378.56,-145.75 366.19,-145.75 354.34,-145.75"/>
<polygon fill="#63b8ff" stroke="#63b8ff" points="390.62,-149.25 400.62,-145.75 390.62,-142.25 390.62,-149.25"/>
</a>
</g>
</g>
<!-- Node33 -->
<g id="Node000033" class="node">
<title>Node33</title>
<g id="a_Node000033"><a xlink:href="kest__parameter__widget_8c.html#a627573f8fb113b0b0beb013cb04ed61c" target="_top" xlink:title=" ">
<polygon fill="#fff0f0" stroke="red" points="146.12,-252.5 15.38,-252.5 15.38,-219 146.12,-219 146.12,-252.5"/>
<text xml:space="preserve" text-anchor="start" x="23.38" y="-239" font-family="Helvetica,sans-Serif" font-size="10.00">kest_parameter_widget</text>
<text xml:space="preserve" text-anchor="middle" x="80.75" y="-226.25" font-family="Helvetica,sans-Serif" font-size="10.00">_refresh</text>
</a>
</g>
</g>
<!-- Node32&#45;&gt;Node33 -->
<g id="edge11_Node000032_Node000033" class="edge">
<title>Node32&#45;&gt;Node33</title>
<g id="a_edge11_Node000032_Node000033"><a xlink:title=" ">
<path fill="none" stroke="#63b8ff" d="M242.99,-168.33C219.92,-181.48 189.59,-197.76 161.5,-209.75 154.13,-212.89 146.25,-215.89 138.41,-218.65"/>
<polygon fill="#63b8ff" stroke="#63b8ff" points="244.49,-171.51 251.41,-163.49 241,-165.44 244.49,-171.51"/>
</a>
</g>
</g>
<!-- Node46 -->
<g id="Node000046" class="node">
<title>Node46</title>
<g id="a_Node000046"><a xlink:href="kest__parameter__widget_8c.html#a1590cd4e080ed869e0372fef1a233085" target="_top" xlink:title=" ">
<polygon fill="#fff0f0" stroke="red" points="153.62,-201.12 7.88,-201.12 7.88,-180.38 153.62,-180.38 153.62,-201.12"/>
<text xml:space="preserve" text-anchor="middle" x="80.75" y="-187.62" font-family="Helvetica,sans-Serif" font-size="10.00">param_widget_rep_update</text>
</a>
</g>
</g>
<!-- Node32&#45;&gt;Node46 -->
<g id="edge12_Node000032_Node000046" class="edge">
<title>Node32&#45;&gt;Node46</title>
<g id="a_edge12_Node000032_Node000046"><a xlink:title=" ">
<path fill="none" stroke="#63b8ff" d="M198.63,-164.35C175.24,-169.64 150.53,-175.22 129.89,-179.88"/>
<polygon fill="#63b8ff" stroke="#63b8ff" points="199.17,-167.82 208.15,-162.2 197.63,-160.99 199.17,-167.82"/>
</a>
</g>
</g>
<!-- Node48 -->
<g id="Node000048" class="node">
<title>Node48</title>
<g id="a_Node000048"><a xlink:href="kest__parameter__widget_8c.html#a275a44ab81e73412a3c3da5597906fcc" target="_top" xlink:title=" ">
<polygon fill="#fff0f0" stroke="red" points="151.38,-162.5 10.12,-162.5 10.12,-129 151.38,-129 151.38,-162.5"/>
<text xml:space="preserve" text-anchor="start" x="18.12" y="-149" font-family="Helvetica,sans-Serif" font-size="10.00">parameter_widget_create</text>
<text xml:space="preserve" text-anchor="middle" x="80.75" y="-136.25" font-family="Helvetica,sans-Serif" font-size="10.00">_ui_no_callback</text>
</a>
</g>
</g>
<!-- Node32&#45;&gt;Node48 -->
<g id="edge13_Node000032_Node000048" class="edge">
<title>Node32&#45;&gt;Node48</title>
<g id="a_edge13_Node000032_Node000048"><a xlink:title=" ">
<path fill="none" stroke="#63b8ff" d="M198.43,-145.75C182.87,-145.75 166.74,-145.75 151.62,-145.75"/>
<polygon fill="#63b8ff" stroke="#63b8ff" points="198.12,-149.25 208.12,-145.75 198.12,-142.25 198.12,-149.25"/>
</a>
</g>
</g>
<!-- Node75 -->
<g id="Node000075" class="node">
<title>Node75</title>
<g id="a_Node000075"><a xlink:href="kest__parameter__widget_8c.html#a58d879b4e143133b22d67e3b1306a951" target="_top" xlink:title=" ">
<polygon fill="#fff0f0" stroke="red" points="153.25,-111.12 8.25,-111.12 8.25,-90.38 153.25,-90.38 153.25,-111.12"/>
<text xml:space="preserve" text-anchor="middle" x="80.75" y="-97.62" font-family="Helvetica,sans-Serif" font-size="10.00">parameter_widget_refresh</text>
</a>
</g>
</g>
<!-- Node32&#45;&gt;Node75 -->
<g id="edge14_Node000032_Node000075" class="edge">
<title>Node32&#45;&gt;Node75</title>
<g id="a_edge14_Node000032_Node000075"><a xlink:title=" ">
<path fill="none" stroke="#63b8ff" d="M198.63,-127.15C175.24,-121.86 150.53,-116.28 129.89,-111.62"/>
<polygon fill="#63b8ff" stroke="#63b8ff" points="197.63,-130.51 208.15,-129.3 199.17,-123.68 197.63,-130.51"/>
</a>
</g>
</g>
<!-- Node92 -->
<g id="Node000092" class="node">
<title>Node92</title>
<g id="a_Node000092"><a xlink:href="kest__parameter__widget_8c.html#ac55937f74509696b892e16cd9148a0c4" target="_top" xlink:title=" ">
<polygon fill="white" stroke="#666666" points="161.5,-72.12 0,-72.12 0,-51.38 161.5,-51.38 161.5,-72.12"/>
<text xml:space="preserve" text-anchor="middle" x="80.75" y="-58.62" font-family="Helvetica,sans-Serif" font-size="10.00">parameter_widget_refresh_cb</text>
</a>
</g>
</g>
<!-- Node32&#45;&gt;Node92 -->
<g id="edge15_Node000032_Node000092" class="edge">
<title>Node32&#45;&gt;Node92</title>
<g id="a_edge15_Node000032_Node000092"><a xlink:title=" ">
<path fill="none" stroke="#63b8ff" d="M244.2,-122.99C221.13,-109.49 190.38,-92.91 161.5,-81.75 152.45,-78.25 142.57,-75.2 132.96,-72.61"/>
<polygon fill="#63b8ff" stroke="#63b8ff" points="242.22,-125.88 252.61,-127.97 245.79,-119.86 242.22,-125.88"/>
</a>
</g>
</g>
<!-- Node94 -->
<g id="Node000094" class="node">
<title>Node94</title>
<g id="a_Node000094"><a xlink:href="kest__parameter__widget_8c.html#a76b168e793fb4613c59656720649cba3" target="_top" xlink:title=" ">
<polygon fill="white" stroke="#666666" points="354.12,-72.5 209.88,-72.5 209.88,-39 354.12,-39 354.12,-72.5"/>
<text xml:space="preserve" text-anchor="start" x="217.88" y="-59" font-family="Helvetica,sans-Serif" font-size="10.00">parameter_widget_update</text>
<text xml:space="preserve" text-anchor="middle" x="282" y="-46.25" font-family="Helvetica,sans-Serif" font-size="10.00">_value_label_v</text>
</a>
</g>
</g>
<!-- Node93&#45;&gt;Node94 -->
<g id="edge17_Node000093_Node000094" class="edge">
<title>Node93&#45;&gt;Node94</title>
<g id="a_edge17_Node000093_Node000094"><a xlink:title=" ">
<path fill="none" stroke="#63b8ff" d="M391.03,-77.33C378.81,-74.89 366.31,-72.39 354.34,-70"/>
<polygon fill="#63b8ff" stroke="#63b8ff" points="390.16,-80.72 400.65,-79.25 391.53,-73.86 390.16,-80.72"/>
</a>
</g>
</g>
<!-- Node95 -->
<g id="Node000095" class="node">
<title>Node95</title>
<g id="a_Node000095"><a xlink:href="kest__parameter__widget_8c.html#af94dfc8bbb394e3264533d794d147e95" target="_top" xlink:title=" ">
<polygon fill="#fff0f0" stroke="red" points="153.62,-33.5 7.88,-33.5 7.88,0 153.62,0 153.62,-33.5"/>
<text xml:space="preserve" text-anchor="start" x="15.88" y="-20" font-family="Helvetica,sans-Serif" font-size="10.00">parameter_widget_change</text>
<text xml:space="preserve" text-anchor="middle" x="80.75" y="-7.25" font-family="Helvetica,sans-Serif" font-size="10.00">_cb_inner</text>
</a>
</g>
</g>
<!-- Node94&#45;&gt;Node95 -->
<g id="edge18_Node000094_Node000095" class="edge">
<title>Node94&#45;&gt;Node95</title>
<g id="a_edge18_Node000094_Node000095"><a xlink:title=" ">
<path fill="none" stroke="#63b8ff" d="M198.46,-39.59C183.69,-36.7 168.41,-33.71 153.96,-30.88"/>
<polygon fill="#63b8ff" stroke="#63b8ff" points="197.66,-43 208.14,-41.49 199,-36.13 197.66,-43"/>
</a>
</g>
</g>
</g>
</svg>
