<?xml version="1.0" encoding="UTF-8" standalone="no"?>
<!DOCTYPE svg PUBLIC "-//W3C//DTD SVG 1.1//EN"
 "http://www.w3.org/Graphics/SVG/1.1/DTD/svg11.dtd">
<!-- Generated by graphviz version 13.1.2 (20250808.2320)
 -->
<!-- Title: sw_field_display_bare_value Pages: 1 -->
<svg width="599pt" height="42pt"
 viewBox="0.00 0.00 599.00 42.00" xmlns="http://www.w3.org/2000/svg" xmlns:xlink="http://www.w3.org/1999/xlink">
<g id="graph0" class="graph" transform="scale(1 1) rotate(0) translate(4 37.5)">
<title>sw_field_display_bare_value</title>
<!-- Node1 -->
<g id="Node000001" class="node">
<title>Node1</title>
<g id="a_Node000001"><a xlink:title=" ">
<polygon fill="#999999" stroke="#666666" points="590.5,-33.5 466.5,-33.5 466.5,0 590.5,0 590.5,-33.5"/>
<text xml:space="preserve" text-anchor="start" x="474.5" y="-20" font-family="Helvetica,sans-Serif" font-size="10.00">sw_field_display_bare</text>
<text xml:space="preserve" text-anchor="middle" x="528.5" y="-7.25" font-family="Helvetica,sans-Serif" font-size="10.00">_value</text>
</a>
</g>
</g>
<!-- Node2 -->
<g id="Node000002" class="node">
<title>Node2</title>
<g id="a_Node000002"><a xlink:href="kest__parameter__widget_8c.html#a5a6ebded10138ba55624e195ae4f4309" target="_top" xlink:title=" ">
<polygon fill="white" stroke="#666666" points="430.5,-27.12 333.5,-27.12 333.5,-6.38 430.5,-6.38 430.5,-27.12"/>
<text xml:space="preserve" text-anchor="middle" x="382" y="-13.62" font-family="Helvetica,sans-Serif" font-size="10.00">edit_sw_field_cb</text>
</a>
</g>
</g>
<!-- Node1&#45;&gt;Node2 -->
<g id="edge1_Node000001_Node000002" class="edge">
<title>Node1&#45;&gt;Node2</title>
<g id="a_edge1_Node000001_Node000002"><a xlink:title=" ">
<path fill="none" stroke="#63b8ff" d="M454.76,-16.75C446.62,-16.75 438.49,-16.75 430.79,-16.75"/>
<polygon fill="#63b8ff" stroke="#63b8ff" points="454.71,-20.25 464.71,-16.75 454.71,-13.25 454.71,-20.25"/>
</a>
</g>
</g>
<!-- Node3 -->
<g id="Node000003" class="node">
<title>Node3</title>
<g id="a_Node000003"><a xlink:href="kest__parameter__widget_8c.html#a2074107eca4e8e2b3832c9f9f2e5f9f2" target="_top" xlink:title=" ">
<polygon fill="white" stroke="#666666" points="297.5,-27.12 159.25,-27.12 159.25,-6.38 297.5,-6.38 297.5,-27.12"/>
<text xml:space="preserve" text-anchor="middle" x="228.38" y="-13.62" font-family="Helvetica,sans-Serif" font-size="10.00">setting_widget_create_ui</text>
</a>
</g>
</g>
<!-- Node2&#45;&gt;Node3 -->
<g id="edge2_Node000002_Node000003" class="edge">
<title>Node2&#45;&gt;Node3</title>
<g id="a_edge2_Node000002_Node000003"><a xlink:title=" ">
<path fill="none" stroke="#63b8ff" d="M321.75,-16.75C313.9,-16.75 305.8,-16.75 297.81,-16.75"/>
<polygon fill="#63b8ff" stroke="#63b8ff" points="321.51,-20.25 331.51,-16.75 321.51,-13.25 321.51,-20.25"/>
</a>
</g>
</g>
<!-- Node4 -->
<g id="Node000004" class="node">
<title>Node4</title>
<g id="a_Node000004"><a xlink:href="kest__effect__view_8c.html#a7d15ffb969bcf677cf4a1622e2666f8e" target="_top" xlink:title=" ">
<polygon fill="#fff0f0" stroke="red" points="123.25,-27.12 0,-27.12 0,-6.38 123.25,-6.38 123.25,-27.12"/>
<text xml:space="preserve" text-anchor="middle" x="61.62" y="-13.62" font-family="Helvetica,sans-Serif" font-size="10.00">create_effect_view_ui</text>
</a>
</g>
</g>
<!-- Node3&#45;&gt;Node4 -->
<g id="edge3_Node000003_Node000004" class="edge">
<title>Node3&#45;&gt;Node4</title>
<g id="a_edge3_Node000003_Node000004"><a xlink:title=" ">
<path fill="none" stroke="#63b8ff" d="M147.64,-16.75C139.61,-16.75 131.54,-16.75 123.75,-16.75"/>
<polygon fill="#63b8ff" stroke="#63b8ff" points="147.42,-20.25 157.42,-16.75 147.42,-13.25 147.42,-20.25"/>
</a>
</g>
</g>
</g>
</svg>
