<?xml version="1.0" encoding="UTF-8" standalone="no"?>
<!DOCTYPE svg PUBLIC "-//W3C//DTD SVG 1.1//EN"
 "http://www.w3.org/Graphics/SVG/1.1/DTD/svg11.dtd">
<!-- Generated by graphviz version 13.1.2 (20250808.2320)
 -->
<!-- Title: kest_fpga_txrx Pages: 1 -->
<!--zoomable 632 -->

<svg id="main" version="1.1" xmlns="http://www.w3.org/2000/svg" xmlns:xlink="http://www.w3.org/1999/xlink" xml:space="preserve" onload="init(evt)">

<style type="text/css"><![CDATA[
.node, .edge {opacity: 0.7;}
.node.selected, .edge.selected {opacity: 1;}
.edge:hover path { stroke: red; }
.edge:hover polygon { stroke: red; fill: red; }
]]></style>

<defs>
  <circle id="rim" cx="0" cy="0" r="7"/>
  <circle id="rim2" cx="0" cy="0" r="3.5"/>
  <g id="zoomPlus">
    <use xlink:href="#rim" fill="#404040"><set attributeName="fill" to="#808080" begin="zoomplus.mouseover" end="zoomplus.mouseout"/></use>
    <path d="M-4,0h8M0,-4v8" fill="none" stroke="white" stroke-width="1.5" pointer-events="none"/>
  </g>
  <g id="zoomMin">
    <use xlink:href="#rim" fill="#404040"><set attributeName="fill" to="#808080" begin="zoomminus.mouseover" end="zoomminus.mouseout"/></use>
    <path d="M-4,0h8" fill="none" stroke="white" stroke-width="1.5" pointer-events="none"/>
  </g>
  <g id="arrowUp" transform="translate(30 24)">
    <use xlink:href="#rim"/>
    <path pointer-events="none" fill="none" stroke="white" stroke-width="1.5" d="M0,-3.0v7 M-2.5,-0.5L0,-3.0L2.5,-0.5"/>
  </g>
  <g id="arrowRight" transform="rotate(90) translate(36 -43)">
    <use xlink:href="#rim"/>
    <path pointer-events="none" fill="none" stroke="white" stroke-width="1.5" d="M0,-3.0v7 M-2.5,-0.5L0,-3.0L2.5,-0.5"/>
  </g>
  <g id="arrowDown" transform="rotate(180) translate(-30 -48)">
    <use xlink:href="#rim"/>
    <path pointer-events="none" fill="none" stroke="white" stroke-width="1.5" d="M0,-3.0v7 M-2.5,-0.5L0,-3.0L2.5,-0.5"/>
  </g>
  <g id="arrowLeft" transform="rotate(270) translate(-36 17)">
    <use xlink:href="#rim"/>
    <path pointer-events="none" fill="none" stroke="white" stroke-width="1.5" d="M0,-3.0v7 M-2.5,-0.5L0,-3.0L2.5,-0.5"/>
  </g>
  <g id="resetDef">
    <use xlink:href="#rim2" fill="#404040"><set attributeName="fill" to="#808080" begin="reset.mouseover" end="reset.mouseout"/></use>
  </g>
</defs>
<script type="application/ecmascript">
var viewWidth = 1110;
var viewHeight = 632;
var sectionId = 'dynsection-71';
</script>
<script type="application/ecmascript" xlink:href="svg.min.js"/>
<svg id="graph" class="graph">
<g id="viewport">
<title>kest_fpga_txrx</title>
<!-- Node1 -->
<g id="Node000001" class="node">
<title>Node1</title>
<g id="a_Node000001"><a xlink:title=" ">
<polygon fill="#999999" stroke="#666666" points="1102,-366.75 1014,-366.75 1014,-346 1102,-346 1102,-366.75"/>
<text xml:space="preserve" text-anchor="middle" x="1058" y="-353.25" font-family="Helvetica,sans-Serif" font-size="10.00">kest_fpga_txrx</text>
</a>
</g>
</g>
<!-- Node2 -->
<g id="Node000002" class="node">
<title>Node2</title>
<g id="a_Node000002"><a xlink:href="kest__fpga__io_8c.html#a76e50c684869ebdac1a1af4cd0d52cdd" target="_top" xlink:title=" ">
<polygon fill="white" stroke="#666666" points="809,-135.75 638.5,-135.75 638.5,-115 809,-115 809,-135.75"/>
<text xml:space="preserve" text-anchor="middle" x="723.75" y="-122.25" font-family="Helvetica,sans-Serif" font-size="10.00">kest_fpga_program_batch_send</text>
</a>
</g>
</g>
<!-- Node1&#45;&gt;Node2 -->
<g id="edge1_Node000001_Node000002" class="edge">
<title>Node1&#45;&gt;Node2</title>
<g id="a_edge1_Node000001_Node000002"><a xlink:title=" ">
<path fill="none" stroke="#63b8ff" d="M1042.33,-336.71C1027.36,-317.36 1002.85,-287.56 978,-265.38 910.03,-204.71 891.44,-188.14 809,-149.38 797.71,-144.07 785.01,-139.7 772.96,-136.21"/>
<polygon fill="#63b8ff" stroke="#63b8ff" points="1039.48,-338.75 1048.32,-344.58 1045.05,-334.5 1039.48,-338.75"/>
</a>
</g>
</g>
<!-- Node16 -->
<g id="Node000016" class="node">
<title>Node16</title>
<g id="a_Node000016"><a xlink:href="kest__fpga__io_8c.html#a38a89d268857557d083c5e4696d54669" target="_top" xlink:title=" ">
<polygon fill="white" stroke="#666666" points="794.75,-430.12 652.75,-430.12 652.75,-396.62 794.75,-396.62 794.75,-430.12"/>
<text xml:space="preserve" text-anchor="start" x="660.75" y="-416.62" font-family="Helvetica,sans-Serif" font-size="10.00">kest_fpga_program_batch</text>
<text xml:space="preserve" text-anchor="middle" x="723.75" y="-403.88" font-family="Helvetica,sans-Serif" font-size="10.00">_send_careful</text>
</a>
</g>
</g>
<!-- Node1&#45;&gt;Node16 -->
<g id="edge5_Node000001_Node000016" class="edge">
<title>Node1&#45;&gt;Node16</title>
<g id="a_edge5_Node000001_Node000016"><a xlink:title=" ">
<path fill="none" stroke="#63b8ff" d="M1029.58,-372.7C1014.81,-380.67 995.98,-389.56 978,-394.38 917.73,-410.51 846.72,-414.61 795.25,-415.06"/>
<polygon fill="#63b8ff" stroke="#63b8ff" points="1031.2,-375.81 1038.22,-367.87 1027.79,-369.7 1031.2,-375.81"/>
</a>
</g>
</g>
<!-- Node17 -->
<g id="Node000017" class="node">
<title>Node17</title>
<g id="a_Node000017"><a xlink:href="kest__fpga__io_8c.html#ab908dedc52b0ca9107f52f74ab7860c6" target="_top" xlink:title=" ">
<polygon fill="white" stroke="#666666" points="970.12,-475.75 852.88,-475.75 852.88,-455 970.12,-455 970.12,-475.75"/>
<text xml:space="preserve" text-anchor="middle" x="911.5" y="-462.25" font-family="Helvetica,sans-Serif" font-size="10.00">kest_fpga_read_byte</text>
</a>
</g>
</g>
<!-- Node1&#45;&gt;Node17 -->
<g id="edge6_Node000001_Node000017" class="edge">
<title>Node1&#45;&gt;Node17</title>
<g id="a_edge6_Node000001_Node000017"><a xlink:title=" ">
<path fill="none" stroke="#63b8ff" d="M1038.19,-375.32C1022.75,-390.35 999.94,-411.42 978,-427.38 963.86,-437.66 946.73,-447.52 933.54,-454.61"/>
<polygon fill="#63b8ff" stroke="#63b8ff" points="1040.63,-377.83 1045.29,-368.31 1035.71,-372.85 1040.63,-377.83"/>
</a>
</g>
</g>
<!-- Node38 -->
<g id="Node000038" class="node">
<title>Node38</title>
<g id="a_Node000038"><a xlink:href="kest__fpga__io_8c.html#ab14e474da760b9f53277d51557a0a9d3" target="_top" xlink:title=" ">
<polygon fill="white" stroke="#666666" points="776.75,-572.75 670.75,-572.75 670.75,-552 776.75,-552 776.75,-572.75"/>
<text xml:space="preserve" text-anchor="middle" x="723.75" y="-559.25" font-family="Helvetica,sans-Serif" font-size="10.00">kest_fpga_readout</text>
</a>
</g>
</g>
<!-- Node1&#45;&gt;Node38 -->
<g id="edge15_Node000001_Node000038" class="edge">
<title>Node1&#45;&gt;Node38</title>
<g id="a_edge15_Node000001_Node000038"><a xlink:title=" ">
<path fill="none" stroke="#63b8ff" d="M1049.15,-377.69C1037.7,-405.95 1013.8,-455.61 978,-484.38 919.36,-531.49 832.33,-550.24 777.08,-557.64"/>
<polygon fill="#63b8ff" stroke="#63b8ff" points="1052.39,-379.01 1052.75,-368.42 1045.87,-376.48 1052.39,-379.01"/>
</a>
</g>
</g>
<!-- Node39 -->
<g id="Node000039" class="node">
<title>Node39</title>
<g id="a_Node000039"><a xlink:href="kest__fpga__io_8c.html#aaabc0215b8872909d51e995b3423abd3" target="_top" xlink:title=" ">
<polygon fill="white" stroke="#666666" points="978,-385.75 845,-385.75 845,-365 978,-365 978,-385.75"/>
<text xml:space="preserve" text-anchor="middle" x="911.5" y="-372.25" font-family="Helvetica,sans-Serif" font-size="10.00">kest_fpga_readout_byte</text>
</a>
</g>
</g>
<!-- Node1&#45;&gt;Node39 -->
<g id="edge18_Node000001_Node000039" class="edge">
<title>Node1&#45;&gt;Node39</title>
<g id="a_edge18_Node000001_Node000039"><a xlink:title=" ">
<path fill="none" stroke="#63b8ff" d="M1002.37,-363.56C994.5,-364.59 986.33,-365.67 978.27,-366.73"/>
<polygon fill="#63b8ff" stroke="#63b8ff" points="1002.69,-367.05 1012.14,-362.27 1001.77,-360.11 1002.69,-367.05"/>
</a>
</g>
</g>
<!-- Node40 -->
<g id="Node000040" class="node">
<title>Node40</title>
<g id="a_Node000040"><a xlink:href="kest__fpga__io_8c.html#ad2aba672de53026a4a4c78bbd1c007eb" target="_top" xlink:title=" ">
<polygon fill="white" stroke="#666666" points="792.88,-378.75 654.62,-378.75 654.62,-358 792.88,-358 792.88,-378.75"/>
<text xml:space="preserve" text-anchor="middle" x="723.75" y="-365.25" font-family="Helvetica,sans-Serif" font-size="10.00">kest_fpga_readout_bytes</text>
</a>
</g>
</g>
<!-- Node1&#45;&gt;Node40 -->
<g id="edge19_Node000001_Node000040" class="edge">
<title>Node1&#45;&gt;Node40</title>
<g id="a_edge19_Node000001_Node000040"><a xlink:title=" ">
<path fill="none" stroke="#63b8ff" d="M1002.22,-354.88C959.39,-354.08 898.37,-353.72 845,-356.38 828.24,-357.21 810.21,-358.69 793.34,-360.34"/>
<polygon fill="#63b8ff" stroke="#63b8ff" points="1001.94,-358.38 1012.01,-355.08 1002.08,-351.38 1001.94,-358.38"/>
</a>
</g>
</g>
<!-- Node41 -->
<g id="Node000041" class="node">
<title>Node41</title>
<g id="a_Node000041"><a xlink:href="kest__fpga__io_8c.html#a5151b31faf4c75059d9d8bd1d27fa5f9" target="_top" xlink:title=" ">
<polygon fill="white" stroke="#666666" points="970.88,-294.75 852.12,-294.75 852.12,-274 970.88,-274 970.88,-294.75"/>
<text xml:space="preserve" text-anchor="middle" x="911.5" y="-281.25" font-family="Helvetica,sans-Serif" font-size="10.00">kest_fpga_send_byte</text>
</a>
</g>
</g>
<!-- Node1&#45;&gt;Node41 -->
<g id="edge20_Node000001_Node000041" class="edge">
<title>Node1&#45;&gt;Node41</title>
<g id="a_edge20_Node000001_Node000041"><a xlink:title=" ">
<path fill="none" stroke="#63b8ff" d="M1025.42,-340.64C997.83,-326.89 958.5,-307.29 934.28,-295.23"/>
<polygon fill="#63b8ff" stroke="#63b8ff" points="1023.5,-343.59 1034.01,-344.92 1026.62,-337.33 1023.5,-343.59"/>
</a>
</g>
</g>
<!-- Node45 -->
<g id="Node000045" class="node">
<title>Node45</title>
<g id="a_Node000045"><a xlink:href="kest__fpga__io_8c.html#a00a4bbec92692e8a9a447b375616efa1" target="_top" xlink:title=" ">
<polygon fill="white" stroke="#666666" points="783.12,-624.12 664.38,-624.12 664.38,-590.62 783.12,-590.62 783.12,-624.12"/>
<text xml:space="preserve" text-anchor="start" x="672.38" y="-610.62" font-family="Helvetica,sans-Serif" font-size="10.00">kest_fpga_send_byte</text>
<text xml:space="preserve" text-anchor="middle" x="723.75" y="-597.88" font-family="Helvetica,sans-Serif" font-size="10.00">_get_flags</text>
</a>
</g>
</g>
<!-- Node1&#45;&gt;Node45 -->
<g id="edge30_Node000001_Node000045" class="edge">
<title>Node1&#45;&gt;Node45</title>
<g id="a_edge30_Node000001_Node000045"><a xlink:title=" ">
<path fill="none" stroke="#63b8ff" d="M1052.92,-378.3C1045,-414.74 1024.1,-487.77 978,-528.38 923.3,-576.55 839.46,-595.35 783.4,-602.69"/>
<polygon fill="#63b8ff" stroke="#63b8ff" points="1056.34,-379.03 1054.9,-368.53 1049.48,-377.64 1056.34,-379.03"/>
</a>
</g>
</g>
<!-- Node46 -->
<g id="Node000046" class="node">
<title>Node46</title>
<g id="a_Node000046"><a xlink:href="kest__fpga__io_8c.html#ae911bef59743e59043a283dac1be0761" target="_top" xlink:title=" ">
<polygon fill="white" stroke="#666666" points="594.62,-66.12 487.88,-66.12 487.88,-32.62 594.62,-32.62 594.62,-66.12"/>
<text xml:space="preserve" text-anchor="start" x="495.88" y="-52.62" font-family="Helvetica,sans-Serif" font-size="10.00">kest_fpga_transfer</text>
<text xml:space="preserve" text-anchor="middle" x="541.25" y="-39.88" font-family="Helvetica,sans-Serif" font-size="10.00">_batch_send</text>
</a>
</g>
</g>
<!-- Node1&#45;&gt;Node46 -->
<g id="edge33_Node000001_Node000046" class="edge">
<title>Node1&#45;&gt;Node46</title>
<g id="a_edge33_Node000001_Node000046"><a xlink:title=" ">
<path fill="none" stroke="#63b8ff" d="M1053.99,-334.58C1047.4,-295.12 1028.08,-211.55 978,-164.38 922.4,-112 698.13,-72.62 594.83,-56.88"/>
<polygon fill="#63b8ff" stroke="#63b8ff" points="1050.53,-335.1 1055.5,-344.46 1057.44,-334.04 1050.53,-335.1"/>
</a>
</g>
</g>
<!-- Node49 -->
<g id="Node000049" class="node">
<title>Node49</title>
<g id="a_Node000049"><a xlink:href="kest__fpga__io_8c.html#a705da035774b1be5ed1365126486649f" target="_top" xlink:title=" ">
<polygon fill="white" stroke="#666666" points="969.38,-59.12 853.62,-59.12 853.62,-25.62 969.38,-25.62 969.38,-59.12"/>
<text xml:space="preserve" text-anchor="start" x="861.62" y="-45.62" font-family="Helvetica,sans-Serif" font-size="10.00">kest_fpga_transfer</text>
<text xml:space="preserve" text-anchor="middle" x="911.5" y="-32.88" font-family="Helvetica,sans-Serif" font-size="10.00">_batch_send_careful</text>
</a>
</g>
</g>
<!-- Node1&#45;&gt;Node49 -->
<g id="edge39_Node000001_Node000049" class="edge">
<title>Node1&#45;&gt;Node49</title>
<g id="a_edge39_Node000001_Node000049"><a xlink:title=" ">
<path fill="none" stroke="#63b8ff" d="M1056.8,-334.34C1055.2,-282.67 1044.38,-152.11 978,-73.38 973.38,-67.89 967.57,-63.31 961.32,-59.51"/>
<polygon fill="#63b8ff" stroke="#63b8ff" points="1053.3,-334.26 1057.01,-344.19 1060.3,-334.12 1053.3,-334.26"/>
</a>
</g>
</g>
<!-- Node3 -->
<g id="Node000003" class="node">
<title>Node3</title>
<g id="a_Node000003"><a xlink:href="kest__fpga__comms_8c.html#a8f850777494bb4c4d61df3efbf31ca7c" target="_top" xlink:title=" ">
<polygon fill="white" stroke="#666666" points="233.75,-154.75 103,-154.75 103,-134 233.75,-134 233.75,-154.75"/>
<text xml:space="preserve" text-anchor="middle" x="168.38" y="-141.25" font-family="Helvetica,sans-Serif" font-size="10.00">kest_fpga_comms_task</text>
</a>
</g>
</g>
<!-- Node2&#45;&gt;Node3 -->
<g id="edge2_Node000002_Node000003" class="edge">
<title>Node2&#45;&gt;Node3</title>
<g id="a_edge2_Node000002_Node000003"><a xlink:title=" ">
<path fill="none" stroke="#63b8ff" d="M626.77,-128.67C514.29,-132.53 331.01,-138.83 234.13,-142.15"/>
<polygon fill="#63b8ff" stroke="#63b8ff" points="626.72,-132.17 636.59,-128.33 626.47,-125.18 626.72,-132.17"/>
</a>
</g>
</g>
<!-- Node4 -->
<g id="Node000004" class="node">
<title>Node4</title>
<g id="a_Node000004"><a xlink:href="kest__int_8c.html#abce06be17fc37d675118a678a8100a36" target="_top" xlink:title=" ">
<polygon fill="white" stroke="#666666" points="65.5,-174.75 1.5,-174.75 1.5,-154 65.5,-154 65.5,-174.75"/>
<text xml:space="preserve" text-anchor="middle" x="33.5" y="-161.25" font-family="Helvetica,sans-Serif" font-size="10.00">app_main</text>
</a>
</g>
</g>
<!-- Node3&#45;&gt;Node4 -->
<g id="edge3_Node000003_Node000004" class="edge">
<title>Node3&#45;&gt;Node4</title>
<g id="a_edge3_Node000003_Node000004"><a xlink:title=" ">
<path fill="none" stroke="#63b8ff" d="M91.67,-155.77C82.53,-157.15 73.63,-158.48 65.68,-159.68"/>
<polygon fill="#63b8ff" stroke="#63b8ff" points="92.02,-159.26 101.39,-154.31 90.98,-152.33 92.02,-159.26"/>
</a>
</g>
</g>
<!-- Node5 -->
<g id="Node000005" class="node">
<title>Node5</title>
<g id="a_Node000005"><a xlink:href="kest__desktop_8c.html#ab499a4f71ef4cfc807b60d8739750c3e" target="_top" xlink:title=" ">
<polygon fill="#fff0f0" stroke="red" points="67,-135.75 0,-135.75 0,-115 67,-115 67,-135.75"/>
<text xml:space="preserve" text-anchor="middle" x="33.5" y="-122.25" font-family="Helvetica,sans-Serif" font-size="10.00">main_task</text>
</a>
</g>
</g>
<!-- Node3&#45;&gt;Node5 -->
<g id="edge4_Node000003_Node000005" class="edge">
<title>Node3&#45;&gt;Node5</title>
<g id="a_edge4_Node000003_Node000005"><a xlink:title=" ">
<path fill="none" stroke="#63b8ff" d="M91.66,-133.55C83.18,-132.34 74.91,-131.15 67.41,-130.08"/>
<polygon fill="#63b8ff" stroke="#63b8ff" points="90.99,-136.99 101.39,-134.94 91.98,-130.06 90.99,-136.99"/>
</a>
</g>
</g>
<!-- Node18 -->
<g id="Node000018" class="node">
<title>Node18</title>
<g id="a_Node000018"><a xlink:href="kest__fpga__comms_8c.html#a2a4b96757022b33679185649f7739d2c" target="_top" xlink:title=" ">
<polygon fill="white" stroke="#666666" points="782.38,-534.12 665.12,-534.12 665.12,-500.62 782.38,-500.62 782.38,-534.12"/>
<text xml:space="preserve" text-anchor="start" x="673.12" y="-520.62" font-family="Helvetica,sans-Serif" font-size="10.00">get_and_sprint_flags</text>
<text xml:space="preserve" text-anchor="middle" x="723.75" y="-507.88" font-family="Helvetica,sans-Serif" font-size="10.00">_compact</text>
</a>
</g>
</g>
<!-- Node17&#45;&gt;Node18 -->
<g id="edge7_Node000017_Node000018" class="edge">
<title>Node17&#45;&gt;Node18</title>
<g id="a_edge7_Node000017_Node000018"><a xlink:title=" ">
<path fill="none" stroke="#63b8ff" d="M860.97,-479.24C836.86,-485.99 807.73,-494.15 782.6,-501.18"/>
<polygon fill="#63b8ff" stroke="#63b8ff" points="861.87,-482.62 870.55,-476.56 859.98,-475.88 861.87,-482.62"/>
</a>
</g>
</g>
<!-- Node19 -->
<g id="Node000019" class="node">
<title>Node19</title>
<g id="a_Node000019"><a xlink:href="kest__fpga__io_8c.html#abe57698adf89b8e9d87f4beca9077c9a" target="_top" xlink:title=" ">
<polygon fill="white" stroke="#666666" points="783.5,-482.12 664,-482.12 664,-448.62 783.5,-448.62 783.5,-482.12"/>
<text xml:space="preserve" text-anchor="start" x="672" y="-468.62" font-family="Helvetica,sans-Serif" font-size="10.00">kest_fpga_get_status</text>
<text xml:space="preserve" text-anchor="middle" x="723.75" y="-455.88" font-family="Helvetica,sans-Serif" font-size="10.00">_flags</text>
</a>
</g>
</g>
<!-- Node17&#45;&gt;Node19 -->
<g id="edge8_Node000017_Node000019" class="edge">
<title>Node17&#45;&gt;Node19</title>
<g id="a_edge8_Node000017_Node000019"><a xlink:title=" ">
<path fill="none" stroke="#63b8ff" d="M841,-465.38C822.22,-465.38 802.08,-465.38 783.92,-465.38"/>
<polygon fill="#63b8ff" stroke="#63b8ff" points="840.98,-468.88 850.98,-465.38 840.98,-461.88 840.98,-468.88"/>
</a>
</g>
</g>
<!-- Node19&#45;&gt;Node3 -->
<g id="edge12_Node000019_Node000003" class="edge">
<title>Node19&#45;&gt;Node3</title>
<g id="a_edge12_Node000019_Node000003"><a xlink:title=" ">
<path fill="none" stroke="#63b8ff" d="M652.79,-447.95C558.35,-421.83 388.28,-365.42 269.75,-272.38 225.32,-237.5 189.05,-178.99 175.31,-155.06"/>
<polygon fill="#63b8ff" stroke="#63b8ff" points="651.62,-451.26 662.19,-450.51 653.46,-444.5 651.62,-451.26"/>
</a>
</g>
</g>
<!-- Node20 -->
<g id="Node000020" class="node">
<title>Node20</title>
<g id="a_Node000020"><a xlink:href="kest__fpga__comms_8c.html#af36ffb3bf1675bf1f10ea6fb9e39b5e7" target="_top" xlink:title=" ">
<polygon fill="white" stroke="#666666" points="599.88,-325.75 482.62,-325.75 482.62,-305 599.88,-305 599.88,-325.75"/>
<text xml:space="preserve" text-anchor="middle" x="541.25" y="-312.25" font-family="Helvetica,sans-Serif" font-size="10.00">get_and_sprint_flags</text>
</a>
</g>
</g>
<!-- Node19&#45;&gt;Node20 -->
<g id="edge9_Node000019_Node000020" class="edge">
<title>Node19&#45;&gt;Node20</title>
<g id="a_edge9_Node000019_Node000020"><a xlink:title=" ">
<path fill="none" stroke="#63b8ff" d="M653.57,-447.95C648.28,-445.46 643.18,-442.61 638.5,-439.38 593.67,-408.37 560.14,-350.13 547.62,-326.13"/>
<polygon fill="#63b8ff" stroke="#63b8ff" points="651.97,-451.08 662.55,-451.75 654.7,-444.63 651.97,-451.08"/>
</a>
</g>
</g>
<!-- Node22 -->
<g id="Node000022" class="node">
<title>Node22</title>
<g id="a_Node000022"><a xlink:href="kest__fpga__io_8c.html#a131d7d384293966d74eb5768dfba4428" target="_top" xlink:title=" ">
<polygon fill="#fff0f0" stroke="red" points="596.88,-552.75 485.62,-552.75 485.62,-532 596.88,-532 596.88,-552.75"/>
<text xml:space="preserve" text-anchor="middle" x="541.25" y="-539.25" font-family="Helvetica,sans-Serif" font-size="10.00">kest_fpga_req_data</text>
</a>
</g>
</g>
<!-- Node19&#45;&gt;Node22 -->
<g id="edge13_Node000019_Node000022" class="edge">
<title>Node19&#45;&gt;Node22</title>
<g id="a_edge13_Node000019_Node000022"><a xlink:title=" ">
<path fill="none" stroke="#63b8ff" d="M652.94,-485.79C648.01,-487.58 643.16,-489.44 638.5,-491.38 610.2,-503.12 579.18,-520.42 560.21,-531.55"/>
<polygon fill="#63b8ff" stroke="#63b8ff" points="654.05,-489.11 662.35,-482.52 651.76,-482.5 654.05,-489.11"/>
</a>
</g>
</g>
<!-- Node29 -->
<g id="Node000029" class="node">
<title>Node29</title>
<g id="a_Node000029"><a xlink:href="kest__fpga__io_8c.html#a719a57c264d7a923dfbaa6b1fa44d633" target="_top" xlink:title=" ">
<polygon fill="#fff0f0" stroke="red" points="602.5,-591.75 480,-591.75 480,-571 602.5,-571 602.5,-591.75"/>
<text xml:space="preserve" text-anchor="middle" x="541.25" y="-578.25" font-family="Helvetica,sans-Serif" font-size="10.00">kest_fpga_req_data_p</text>
</a>
</g>
</g>
<!-- Node19&#45;&gt;Node29 -->
<g id="edge14_Node000019_Node000029" class="edge">
<title>Node19&#45;&gt;Node29</title>
<g id="a_edge14_Node000019_Node000029"><a xlink:title=" ">
<path fill="none" stroke="#63b8ff" d="M653.79,-481.4C648.31,-484.21 643.12,-487.5 638.5,-491.38 611.69,-513.85 629.07,-538.62 602.5,-561.38 598.15,-565.1 593.08,-568.14 587.76,-570.62"/>
<polygon fill="#63b8ff" stroke="#63b8ff" points="654.83,-484.77 662.52,-477.48 651.96,-478.39 654.83,-484.77"/>
</a>
</g>
</g>
<!-- Node21 -->
<g id="Node000021" class="node">
<title>Node21</title>
<g id="a_Node000021"><a xlink:href="kest__fpga__comms_8c.html#a0e24c965de231bcab602b5b43acb805d" target="_top" xlink:title=" ">
<polygon fill="white" stroke="#666666" points="423,-263.12 290.75,-263.12 290.75,-229.62 423,-229.62 423,-263.12"/>
<text xml:space="preserve" text-anchor="start" x="298.75" y="-249.62" font-family="Helvetica,sans-Serif" font-size="10.00">kest_fpga_comms_print</text>
<text xml:space="preserve" text-anchor="middle" x="356.88" y="-236.88" font-family="Helvetica,sans-Serif" font-size="10.00">_full_scan</text>
</a>
</g>
</g>
<!-- Node20&#45;&gt;Node21 -->
<g id="edge10_Node000020_Node000021" class="edge">
<title>Node20&#45;&gt;Node21</title>
<g id="a_edge10_Node000020_Node000021"><a xlink:title=" ">
<path fill="none" stroke="#63b8ff" d="M501.29,-300.63C472.54,-289.76 433.34,-274.93 403.19,-263.52"/>
<polygon fill="#63b8ff" stroke="#63b8ff" points="499.75,-303.79 510.34,-304.06 502.22,-297.25 499.75,-303.79"/>
</a>
</g>
</g>
<!-- Node21&#45;&gt;Node3 -->
<g id="edge11_Node000021_Node000003" class="edge">
<title>Node21&#45;&gt;Node3</title>
<g id="a_edge11_Node000021_Node000003"><a xlink:title=" ">
<path fill="none" stroke="#63b8ff" d="M279.89,-225.11C276.42,-223.62 273.02,-222.04 269.75,-220.38 234.29,-202.34 198.52,-171.53 180.8,-155.23"/>
<polygon fill="#63b8ff" stroke="#63b8ff" points="278.49,-228.32 289.07,-228.78 281.08,-221.82 278.49,-228.32"/>
</a>
</g>
</g>
<!-- Node38&#45;&gt;Node22 -->
<g id="edge16_Node000038_Node000022" class="edge">
<title>Node38&#45;&gt;Node22</title>
<g id="a_edge16_Node000038_Node000022"><a xlink:title=" ">
<path fill="none" stroke="#63b8ff" d="M659.21,-555.33C638.96,-553.09 616.75,-550.63 597.17,-548.46"/>
<polygon fill="#63b8ff" stroke="#63b8ff" points="658.71,-558.8 669.04,-556.42 659.48,-551.84 658.71,-558.8"/>
</a>
</g>
</g>
<!-- Node38&#45;&gt;Node29 -->
<g id="edge17_Node000038_Node000029" class="edge">
<title>Node38&#45;&gt;Node29</title>
<g id="a_edge17_Node000038_Node000029"><a xlink:title=" ">
<path fill="none" stroke="#63b8ff" d="M659.11,-569.07C640.86,-571 621.01,-573.08 602.94,-574.99"/>
<polygon fill="#63b8ff" stroke="#63b8ff" points="659.46,-572.56 669.04,-568.03 658.73,-565.6 659.46,-572.56"/>
</a>
</g>
</g>
<!-- Node41&#45;&gt;Node2 -->
<g id="edge27_Node000041_Node000002" class="edge">
<title>Node41&#45;&gt;Node2</title>
<g id="a_edge27_Node000041_Node000002"><a xlink:title=" ">
<path fill="none" stroke="#63b8ff" d="M894.74,-264.71C881.3,-247.82 861.58,-222.72 845,-200.38 828.46,-178.1 831.63,-165.42 809,-149.38 801.06,-143.74 791.82,-139.43 782.44,-136.12"/>
<polygon fill="#63b8ff" stroke="#63b8ff" points="891.94,-266.81 900.91,-272.45 897.41,-262.45 891.94,-266.81"/>
</a>
</g>
</g>
<!-- Node41&#45;&gt;Node3 -->
<g id="edge24_Node000041_Node000003" class="edge">
<title>Node41&#45;&gt;Node3</title>
<g id="a_edge24_Node000041_Node000003"><a xlink:title=" ">
<path fill="none" stroke="#63b8ff" d="M888.04,-266.55C860.93,-245.18 817.85,-211.82 809,-208.38 756.29,-187.86 385.86,-159.69 234.04,-148.87"/>
<polygon fill="#63b8ff" stroke="#63b8ff" points="885.68,-269.14 895.7,-272.59 890.02,-263.65 885.68,-269.14"/>
</a>
</g>
</g>
<!-- Node41&#45;&gt;Node16 -->
<g id="edge28_Node000041_Node000016" class="edge">
<title>Node41&#45;&gt;Node16</title>
<g id="a_edge28_Node000041_Node000016"><a xlink:title=" ">
<path fill="none" stroke="#63b8ff" d="M893.65,-303.6C870.13,-330.05 828.19,-375.71 809,-387.38 803.51,-390.71 797.55,-393.66 791.42,-396.24"/>
<polygon fill="#63b8ff" stroke="#63b8ff" points="896.13,-306.08 900.13,-296.27 890.89,-301.44 896.13,-306.08"/>
</a>
</g>
</g>
<!-- Node41&#45;&gt;Node21 -->
<g id="edge23_Node000041_Node000021" class="edge">
<title>Node41&#45;&gt;Node21</title>
<g id="a_edge23_Node000041_Node000021"><a xlink:title=" ">
<path fill="none" stroke="#63b8ff" d="M865.14,-270.44C847.75,-265.71 827.62,-260.97 809,-258.38 672.82,-239.37 511.34,-240.78 423.25,-243.55"/>
<polygon fill="#63b8ff" stroke="#63b8ff" points="864.09,-273.78 874.66,-273.11 865.98,-267.04 864.09,-273.78"/>
</a>
</g>
</g>
<!-- Node41&#45;&gt;Node40 -->
<g id="edge29_Node000041_Node000040" class="edge">
<title>Node41&#45;&gt;Node40</title>
<g id="a_edge29_Node000041_Node000040"><a xlink:title=" ">
<path fill="none" stroke="#63b8ff" d="M882.03,-300.74C870.43,-307.56 856.96,-315.67 845,-323.38 828.62,-333.92 826.79,-340.43 809,-348.38 800.76,-352.05 791.76,-355.11 782.8,-357.62"/>
<polygon fill="#63b8ff" stroke="#63b8ff" points="883.47,-303.95 890.35,-295.89 879.95,-297.91 883.47,-303.95"/>
</a>
</g>
</g>
<!-- Node42 -->
<g id="Node000042" class="node">
<title>Node42</title>
<g id="a_Node000042"><a xlink:href="kest__fpga__comms_8c.html#afb1a50f3f2d17cff2514ceb31fc6c75e" target="_top" xlink:title=" ">
<polygon fill="white" stroke="#666666" points="791,-339.75 656.5,-339.75 656.5,-319 791,-319 791,-339.75"/>
<text xml:space="preserve" text-anchor="middle" x="723.75" y="-326.25" font-family="Helvetica,sans-Serif" font-size="10.00">kest_command_log_test</text>
</a>
</g>
</g>
<!-- Node41&#45;&gt;Node42 -->
<g id="edge21_Node000041_Node000042" class="edge">
<title>Node41&#45;&gt;Node42</title>
<g id="a_edge21_Node000041_Node000042"><a xlink:title=" ">
<path fill="none" stroke="#63b8ff" d="M858.84,-297.92C842.88,-302.02 825.24,-306.47 809,-310.38 797.63,-313.11 785.37,-315.95 773.81,-318.56"/>
<polygon fill="#63b8ff" stroke="#63b8ff" points="859.3,-301.41 868.11,-295.52 857.55,-294.63 859.3,-301.41"/>
</a>
</g>
</g>
<!-- Node43 -->
<g id="Node000043" class="node">
<title>Node43</title>
<g id="a_Node000043"><a xlink:href="kest__fpga__io_8c.html#ac4389d5b4fc4dc3806d9e9cc2195b6b4" target="_top" xlink:title=" ">
<polygon fill="white" stroke="#666666" points="787.25,-301.12 660.25,-301.12 660.25,-267.62 787.25,-267.62 787.25,-301.12"/>
<text xml:space="preserve" text-anchor="start" x="668.25" y="-287.62" font-family="Helvetica,sans-Serif" font-size="10.00">kest_fpga_commit_reg</text>
<text xml:space="preserve" text-anchor="middle" x="723.75" y="-274.88" font-family="Helvetica,sans-Serif" font-size="10.00">_updates</text>
</a>
</g>
</g>
<!-- Node41&#45;&gt;Node43 -->
<g id="edge22_Node000041_Node000043" class="edge">
<title>Node41&#45;&gt;Node43</title>
<g id="a_edge22_Node000041_Node000043"><a xlink:title=" ">
<path fill="none" stroke="#63b8ff" d="M840.51,-284.38C823.14,-284.38 804.64,-284.38 787.64,-284.38"/>
<polygon fill="#63b8ff" stroke="#63b8ff" points="840.21,-287.88 850.21,-284.38 840.21,-280.88 840.21,-287.88"/>
</a>
</g>
</g>
<!-- Node44 -->
<g id="Node000044" class="node">
<title>Node44</title>
<g id="a_Node000044"><a xlink:href="kest__fpga__comms_8c.html#a3e920a831491fd407195cf3a0cf727c8" target="_top" xlink:title=" ">
<polygon fill="white" stroke="#666666" points="444,-211.75 269.75,-211.75 269.75,-191 444,-191 444,-211.75"/>
<text xml:space="preserve" text-anchor="middle" x="356.88" y="-198.25" font-family="Helvetica,sans-Serif" font-size="10.00">kest_fpga_handle_misalignment</text>
</a>
</g>
</g>
<!-- Node41&#45;&gt;Node44 -->
<g id="edge25_Node000041_Node000044" class="edge">
<title>Node41&#45;&gt;Node44</title>
<g id="a_edge25_Node000041_Node000044"><a xlink:title=" ">
<path fill="none" stroke="#63b8ff" d="M880.76,-268.44C860.99,-258.62 834.14,-246.73 809,-240.38 684.96,-209.01 536.31,-201.77 444.47,-200.65"/>
<polygon fill="#63b8ff" stroke="#63b8ff" points="879.11,-271.52 889.6,-272.94 882.28,-265.29 879.11,-271.52"/>
</a>
</g>
</g>
<!-- Node44&#45;&gt;Node3 -->
<g id="edge26_Node000044_Node000003" class="edge">
<title>Node44&#45;&gt;Node3</title>
<g id="a_edge26_Node000044_Node000003"><a xlink:title=" ">
<path fill="none" stroke="#63b8ff" d="M304.66,-187.52C293.14,-184.29 281.01,-180.79 269.75,-177.38 246.58,-170.34 220.62,-161.79 200.9,-155.15"/>
<polygon fill="#63b8ff" stroke="#63b8ff" points="303.42,-190.81 314,-190.12 305.3,-184.06 303.42,-190.81"/>
</a>
</g>
</g>
<!-- Node45&#45;&gt;Node22 -->
<g id="edge31_Node000045_Node000022" class="edge">
<title>Node45&#45;&gt;Node22</title>
<g id="a_edge31_Node000045_Node000022"><a xlink:title=" ">
<path fill="none" stroke="#63b8ff" d="M653.61,-587.19C648.46,-585.34 643.37,-583.39 638.5,-581.38 621.78,-574.46 619.14,-569.47 602.5,-562.38 594.69,-559.05 586.13,-555.91 577.98,-553.15"/>
<polygon fill="#63b8ff" stroke="#63b8ff" points="652.21,-590.41 662.81,-590.37 654.5,-583.8 652.21,-590.41"/>
</a>
</g>
</g>
<!-- Node45&#45;&gt;Node29 -->
<g id="edge32_Node000045_Node000029" class="edge">
<title>Node45&#45;&gt;Node29</title>
<g id="a_edge32_Node000045_Node000029"><a xlink:title=" ">
<path fill="none" stroke="#63b8ff" d="M652.87,-597.31C636.33,-594.93 618.82,-592.4 602.73,-590.09"/>
<polygon fill="#63b8ff" stroke="#63b8ff" points="652.25,-600.76 662.65,-598.72 653.25,-593.83 652.25,-600.76"/>
</a>
</g>
</g>
<!-- Node46&#45;&gt;Node3 -->
<g id="edge34_Node000046_Node000003" class="edge">
<title>Node46&#45;&gt;Node3</title>
<g id="a_edge34_Node000046_Node000003"><a xlink:title=" ">
<path fill="none" stroke="#63b8ff" d="M476.53,-62.24C421.45,-73.78 339.88,-91.85 269.75,-111.38 246.07,-117.97 219.68,-126.7 199.9,-133.53"/>
<polygon fill="#63b8ff" stroke="#63b8ff" points="476.97,-65.73 486.05,-60.26 475.54,-58.87 476.97,-65.73"/>
</a>
</g>
</g>
<!-- Node47 -->
<g id="Node000047" class="node">
<title>Node47</title>
<g id="a_Node000047"><a xlink:href="kest__fpga__io_8c.html#a0e6e4e058cfd8f3ec79208acb0f71aa6" target="_top" xlink:title=" ">
<polygon fill="white" stroke="#666666" points="426.75,-59.75 287,-59.75 287,-39 426.75,-39 426.75,-59.75"/>
<text xml:space="preserve" text-anchor="middle" x="356.88" y="-46.25" font-family="Helvetica,sans-Serif" font-size="10.00">kest_fpga_set_input_gain</text>
</a>
</g>
</g>
<!-- Node46&#45;&gt;Node47 -->
<g id="edge35_Node000046_Node000047" class="edge">
<title>Node46&#45;&gt;Node47</title>
<g id="a_edge35_Node000046_Node000047"><a xlink:title=" ">
<path fill="none" stroke="#63b8ff" d="M476.19,-49.38C460.32,-49.38 443.25,-49.38 427.15,-49.38"/>
<polygon fill="#63b8ff" stroke="#63b8ff" points="475.99,-52.88 485.99,-49.38 475.99,-45.88 475.99,-52.88"/>
</a>
</g>
</g>
<!-- Node48 -->
<g id="Node000048" class="node">
<title>Node48</title>
<g id="a_Node000048"><a xlink:href="kest__fpga__io_8c.html#a6569f6bf656d72080dd355179ac2c4e9" target="_top" xlink:title=" ">
<polygon fill="white" stroke="#666666" points="430.12,-20.75 283.62,-20.75 283.62,0 430.12,0 430.12,-20.75"/>
<text xml:space="preserve" text-anchor="middle" x="356.88" y="-7.25" font-family="Helvetica,sans-Serif" font-size="10.00">kest_fpga_set_output_gain</text>
</a>
</g>
</g>
<!-- Node46&#45;&gt;Node48 -->
<g id="edge37_Node000046_Node000048" class="edge">
<title>Node46&#45;&gt;Node48</title>
<g id="a_edge37_Node000046_Node000048"><a xlink:title=" ">
<path fill="none" stroke="#63b8ff" d="M476.47,-35.74C454.25,-30.99 429.64,-25.72 408.62,-21.23"/>
<polygon fill="#63b8ff" stroke="#63b8ff" points="475.51,-39.11 486.02,-37.78 476.97,-32.26 475.51,-39.11"/>
</a>
</g>
</g>
<!-- Node47&#45;&gt;Node3 -->
<g id="edge36_Node000047_Node000003" class="edge">
<title>Node47&#45;&gt;Node3</title>
<g id="a_edge36_Node000047_Node000003"><a xlink:title=" ">
<path fill="none" stroke="#63b8ff" d="M294.8,-63.56C286.21,-66.37 277.64,-69.63 269.75,-73.38 235.05,-89.87 199.52,-118.27 181.49,-133.68"/>
<polygon fill="#63b8ff" stroke="#63b8ff" points="295.64,-66.96 304.18,-60.69 293.59,-60.27 295.64,-66.96"/>
</a>
</g>
</g>
<!-- Node48&#45;&gt;Node3 -->
<g id="edge38_Node000048_Node000003" class="edge">
<title>Node48&#45;&gt;Node3</title>
<g id="a_edge38_Node000048_Node000003"><a xlink:title=" ">
<path fill="none" stroke="#63b8ff" d="M279.14,-25.47C275.9,-26.95 272.75,-28.58 269.75,-30.38 224.93,-57.15 189.39,-110.7 175.59,-133.6"/>
<polygon fill="#63b8ff" stroke="#63b8ff" points="280.39,-28.74 288.37,-21.76 277.79,-22.24 280.39,-28.74"/>
</a>
</g>
</g>
<!-- Node49&#45;&gt;Node46 -->
<g id="edge40_Node000049_Node000046" class="edge">
<title>Node49&#45;&gt;Node46</title>
<g id="a_edge40_Node000049_Node000046"><a xlink:title=" ">
<path fill="none" stroke="#63b8ff" d="M842.25,-43.67C770.79,-45.03 660.1,-47.13 595.04,-48.37"/>
<polygon fill="#63b8ff" stroke="#63b8ff" points="841.92,-47.18 851.85,-43.49 841.79,-40.18 841.92,-47.18"/>
</a>
</g>
</g>
</g>
</svg>

<g id="navigator" transform="translate(0 0)" fill="#404254">
  <rect fill="#f2f5e9" fill-opacity="0.5" stroke="#606060" stroke-width=".5" x="0" y="0" width="60" height="60"/>
  <use id="zoomplus" xlink:href="#zoomPlus" x="17" y="9" onmousedown="handleZoom(evt,'in')"/>
  <use id="zoomminus" xlink:href="#zoomMin" x="42" y="9" onmousedown="handleZoom(evt,'out')"/>
  <use id="reset" xlink:href="#resetDef" x="30" y="36" onmousedown="handleReset()"/>
   <use id="arrowup" xlink:href="#arrowUp" x="0" y="0" onmousedown="handlePan(0,-1)"/>
  <use id="arrowright" xlink:href="#arrowRight" x="0" y="0" onmousedown="handlePan(1,0)"/>
  <use id="arrowdown" xlink:href="#arrowDown" x="0" y="0" onmousedown="handlePan(0,1)"/>
  <use id="arrowleft" xlink:href="#arrowLeft" x="0" y="0" onmousedown="handlePan(-1,0)"/>
</g>
<svg viewBox="0 0 15 15" width="100%" height="30px" preserveAspectRatio="xMaxYMin meet">
 <g id="arrow_out" transform="scale(0.3 0.3)">
  <a xlink:href="kest__fpga__io_8c_a2fe46577ece371a5fc9834bc59390913_icgraph_org.svg" target="_base">
   <rect id="button" ry="5" rx="5" y="6" x="6" height="38" width="38"
        fill="#f2f5e9" fill-opacity="0.5" stroke="#606060" stroke-width="1.0"/>
   <path id="arrow"
     d="M 11.500037,31.436501 C 11.940474,20.09759 22.043105,11.32322 32.158766,21.979434 L 37.068811,17.246167 C 37.068811,17.246167 37.088388,32 37.088388,32 L 22.160133,31.978069 C 22.160133,31.978069 26.997745,27.140456 26.997745,27.140456 C 18.528582,18.264221 13.291696,25.230495 11.500037,31.436501 z"
     style="fill:#404040;"/>
  </a>
 </g>
</svg>

<style type='text/css'>
<![CDATA[
[data-mouse-over-selected='false'] { opacity: 0.7; }
[data-mouse-over-selected='true']  { opacity: 1.0; }
]]>
</style>
<script type="application/ecmascript"><![CDATA[
document.addEventListener('DOMContentLoaded', (event) => {
  highlightEdges();
  highlightAdjacentNodes();
});
]]></script>
</svg>
