<?xml version="1.0" encoding="UTF-8" standalone="no"?>
<!DOCTYPE svg PUBLIC "-//W3C//DTD SVG 1.1//EN"
 "http://www.w3.org/Graphics/SVG/1.1/DTD/svg11.dtd">
<!-- Generated by graphviz version 13.1.2 (20250808.2320)
 -->
<!-- Title: kest_scope_init Pages: 1 -->
<svg width="598pt" height="68pt"
 viewBox="0.00 0.00 598.00 68.00" xmlns="http://www.w3.org/2000/svg" xmlns:xlink="http://www.w3.org/1999/xlink">
<g id="graph0" class="graph" transform="scale(1 1) rotate(0) translate(4 63.75)">
<title>kest_scope_init</title>
<!-- Node1 -->
<g id="Node000001" class="node">
<title>Node1</title>
<g id="a_Node000001"><a xlink:title=" ">
<polygon fill="#999999" stroke="#666666" points="91,-39.75 0,-39.75 0,-19 91,-19 91,-39.75"/>
<text xml:space="preserve" text-anchor="middle" x="45.5" y="-26.25" font-family="Helvetica,sans-Serif" font-size="10.00">kest_scope_init</text>
</a>
</g>
</g>
<!-- Node2 -->
<g id="Node000002" class="node">
<title>Node2</title>
<g id="a_Node000002"><a xlink:href="kest__expr__scope_8c.html#a0587a5203aa19a14ee56456e508f884c" target="_top" xlink:title=" ">
<polygon fill="white" stroke="#666666" points="247.25,-39.75 127,-39.75 127,-19 247.25,-19 247.25,-39.75"/>
<text xml:space="preserve" text-anchor="middle" x="187.12" y="-26.25" font-family="Helvetica,sans-Serif" font-size="10.00">kest_scope_add_expr</text>
</a>
</g>
</g>
<!-- Node1&#45;&gt;Node2 -->
<g id="edge1_Node000001_Node000002" class="edge">
<title>Node1&#45;&gt;Node2</title>
<g id="a_edge1_Node000001_Node000002"><a xlink:title=" ">
<path fill="none" stroke="#63b8ff" d="M91.45,-29.38C99.09,-29.38 107.18,-29.38 115.3,-29.38"/>
<polygon fill="#63b8ff" stroke="#63b8ff" points="115.23,-32.88 125.23,-29.38 115.23,-25.88 115.23,-32.88"/>
</a>
</g>
</g>
<!-- Node3 -->
<g id="Node000003" class="node">
<title>Node3</title>
<g id="a_Node000003"><a xlink:href="kest__expr__scope_8c.html#ad79946658fac326d5b008ac06967d046" target="_top" xlink:title=" ">
<polygon fill="white" stroke="#666666" points="419.62,-59.75 295.62,-59.75 295.62,-39 419.62,-39 419.62,-59.75"/>
<text xml:space="preserve" text-anchor="middle" x="357.62" y="-46.25" font-family="Helvetica,sans-Serif" font-size="10.00">kest_scope_add_entry</text>
</a>
</g>
</g>
<!-- Node2&#45;&gt;Node3 -->
<g id="edge2_Node000002_Node000003" class="edge">
<title>Node2&#45;&gt;Node3</title>
<g id="a_edge2_Node000002_Node000003"><a xlink:title=" ">
<path fill="none" stroke="#63b8ff" d="M247.53,-36.43C259.36,-37.83 271.9,-39.32 284.1,-40.77"/>
<polygon fill="#63b8ff" stroke="#63b8ff" points="283.34,-44.2 293.69,-41.9 284.17,-37.25 283.34,-44.2"/>
</a>
</g>
</g>
<!-- Node4 -->
<g id="Node000004" class="node">
<title>Node4</title>
<g id="a_Node000004"><a xlink:href="kest__expr__scope_8c.html#a9fd428577752ce3323954bb75bbb3cf8" target="_top" xlink:title=" ">
<polygon fill="white" stroke="#666666" points="432,-20.75 283.25,-20.75 283.25,0 432,0 432,-20.75"/>
<text xml:space="preserve" text-anchor="middle" x="357.62" y="-7.25" font-family="Helvetica,sans-Serif" font-size="10.00">kest_scope_entry_init_expr</text>
</a>
</g>
</g>
<!-- Node2&#45;&gt;Node4 -->
<g id="edge3_Node000002_Node000004" class="edge">
<title>Node2&#45;&gt;Node4</title>
<g id="a_edge3_Node000002_Node000004"><a xlink:title=" ">
<path fill="none" stroke="#63b8ff" d="M247.53,-22.68C255.41,-21.79 263.61,-20.86 271.82,-19.94"/>
<polygon fill="#63b8ff" stroke="#63b8ff" points="271.94,-23.45 281.49,-18.85 271.16,-16.49 271.94,-23.45"/>
</a>
</g>
</g>
<!-- Node5 -->
<g id="Node000005" class="node">
<title>Node5</title>
<g id="a_Node000005"><a xlink:href="kest__expr__scope_8c.html#af1ccd42dfd1a087c4b82e153bc29e043" target="_top" xlink:title=" ">
<polygon fill="white" stroke="#666666" points="589.75,-20.75 468,-20.75 468,0 589.75,0 589.75,-20.75"/>
<text xml:space="preserve" text-anchor="middle" x="528.88" y="-7.25" font-family="Helvetica,sans-Serif" font-size="10.00">kest_scope_entry_init</text>
</a>
</g>
</g>
<!-- Node4&#45;&gt;Node5 -->
<g id="edge4_Node000004_Node000005" class="edge">
<title>Node4&#45;&gt;Node5</title>
<g id="a_edge4_Node000004_Node000005"><a xlink:title=" ">
<path fill="none" stroke="#63b8ff" d="M432.37,-10.38C440.27,-10.38 448.3,-10.38 456.17,-10.38"/>
<polygon fill="#63b8ff" stroke="#63b8ff" points="456.06,-13.88 466.06,-10.38 456.06,-6.88 456.06,-13.88"/>
</a>
</g>
</g>
</g>
</svg>
