<?xml version="1.0" encoding="UTF-8" standalone="no"?>
<!DOCTYPE svg PUBLIC "-//W3C//DTD SVG 1.1//EN"
 "http://www.w3.org/Graphics/SVG/1.1/DTD/svg11.dtd">
<!-- Generated by graphviz version 13.1.2 (20250808.2320)
 -->
<!-- Title: preset_view_play_button_cb Pages: 1 -->
<!--zoomable 167 -->

<svg id="main" version="1.1" xmlns="http://www.w3.org/2000/svg" xmlns:xlink="http://www.w3.org/1999/xlink" xml:space="preserve" onload="init(evt)">

<style type="text/css"><![CDATA[
.node, .edge {opacity: 0.7;}
.node.selected, .edge.selected {opacity: 1;}
.edge:hover path { stroke: red; }
.edge:hover polygon { stroke: red; fill: red; }
]]></style>

<defs>
  <circle id="rim" cx="0" cy="0" r="7"/>
  <circle id="rim2" cx="0" cy="0" r="3.5"/>
  <g id="zoomPlus">
    <use xlink:href="#rim" fill="#404040"><set attributeName="fill" to="#808080" begin="zoomplus.mouseover" end="zoomplus.mouseout"/></use>
    <path d="M-4,0h8M0,-4v8" fill="none" stroke="white" stroke-width="1.5" pointer-events="none"/>
  </g>
  <g id="zoomMin">
    <use xlink:href="#rim" fill="#404040"><set attributeName="fill" to="#808080" begin="zoomminus.mouseover" end="zoomminus.mouseout"/></use>
    <path d="M-4,0h8" fill="none" stroke="white" stroke-width="1.5" pointer-events="none"/>
  </g>
  <g id="arrowUp" transform="translate(30 24)">
    <use xlink:href="#rim"/>
    <path pointer-events="none" fill="none" stroke="white" stroke-width="1.5" d="M0,-3.0v7 M-2.5,-0.5L0,-3.0L2.5,-0.5"/>
  </g>
  <g id="arrowRight" transform="rotate(90) translate(36 -43)">
    <use xlink:href="#rim"/>
    <path pointer-events="none" fill="none" stroke="white" stroke-width="1.5" d="M0,-3.0v7 M-2.5,-0.5L0,-3.0L2.5,-0.5"/>
  </g>
  <g id="arrowDown" transform="rotate(180) translate(-30 -48)">
    <use xlink:href="#rim"/>
    <path pointer-events="none" fill="none" stroke="white" stroke-width="1.5" d="M0,-3.0v7 M-2.5,-0.5L0,-3.0L2.5,-0.5"/>
  </g>
  <g id="arrowLeft" transform="rotate(270) translate(-36 17)">
    <use xlink:href="#rim"/>
    <path pointer-events="none" fill="none" stroke="white" stroke-width="1.5" d="M0,-3.0v7 M-2.5,-0.5L0,-3.0L2.5,-0.5"/>
  </g>
  <g id="resetDef">
    <use xlink:href="#rim2" fill="#404040"><set attributeName="fill" to="#808080" begin="reset.mouseover" end="reset.mouseout"/></use>
  </g>
</defs>
<script type="application/ecmascript">
var viewWidth = 849;
var viewHeight = 167;
var sectionId = 'dynsection-21';
</script>
<script type="application/ecmascript" xlink:href="svg.min.js"/>
<svg id="graph" class="graph">
<g id="viewport">
<title>preset_view_play_button_cb</title>
<!-- Node1 -->
<g id="Node000001" class="node">
<title>Node1</title>
<g id="a_Node000001"><a xlink:title=" ">
<polygon fill="#999999" stroke="#666666" points="154.75,-114.67 0,-114.67 0,-93.92 154.75,-93.92 154.75,-114.67"/>
<text xml:space="preserve" text-anchor="middle" x="77.38" y="-101.17" font-family="Helvetica,sans-Serif" font-size="10.00">preset_view_play_button_cb</text>
</a>
</g>
</g>
<!-- Node2 -->
<g id="Node000002" class="node">
<title>Node2</title>
<g id="a_Node000002"><a xlink:href="kest__sequence_8c.html#a97e4f82b9caaf6a25f606d1f7f4bad5d" target="_top" xlink:title=" ">
<polygon fill="white" stroke="#666666" points="326,-134.67 190.75,-134.67 190.75,-113.92 326,-113.92 326,-134.67"/>
<text xml:space="preserve" text-anchor="middle" x="258.38" y="-121.17" font-family="Helvetica,sans-Serif" font-size="10.00">kest_sequence_begin_at</text>
</a>
</g>
</g>
<!-- Node1&#45;&gt;Node2 -->
<g id="edge1_Node000001_Node000002" class="edge">
<title>Node1&#45;&gt;Node2</title>
<g id="a_edge1_Node000001_Node000002"><a xlink:title=" ">
<path fill="none" stroke="#63b8ff" d="M155.07,-112.87C163.06,-113.76 171.2,-114.67 179.21,-115.57"/>
<polygon fill="#63b8ff" stroke="#63b8ff" points="178.6,-119.02 188.93,-116.65 179.38,-112.06 178.6,-119.02"/>
</a>
</g>
</g>
<!-- Node42 -->
<g id="Node000042" class="node">
<title>Node42</title>
<g id="a_Node000042"><a xlink:href="kest__context_8c.html#a68b84bed2c423769deb9e359709d92aa" target="_top" xlink:title=" ">
<polygon fill="white" stroke="#666666" points="309.5,-95.67 207.25,-95.67 207.25,-74.92 309.5,-74.92 309.5,-95.67"/>
<text xml:space="preserve" text-anchor="middle" x="258.38" y="-82.17" font-family="Helvetica,sans-Serif" font-size="10.00">set_active_preset</text>
</a>
</g>
</g>
<!-- Node1&#45;&gt;Node42 -->
<g id="edge7_Node000001_Node000042" class="edge">
<title>Node1&#45;&gt;Node42</title>
<g id="a_edge7_Node000001_Node000042"><a xlink:title=" ">
<path fill="none" stroke="#63b8ff" d="M155.07,-96.16C168.64,-94.72 182.62,-93.23 195.72,-91.84"/>
<polygon fill="#63b8ff" stroke="#63b8ff" points="195.89,-95.35 205.46,-90.81 195.15,-88.38 195.89,-95.35"/>
</a>
</g>
</g>
<!-- Node3 -->
<g id="Node000003" class="node">
<title>Node3</title>
<g id="a_Node000003"><a xlink:href="kest__sequence_8c.html#abb62e308c5b4830b09a802084718cb2d" target="_top" xlink:title=" ">
<polygon fill="white" stroke="#666666" points="677.88,-159.05 550.88,-159.05 550.88,-125.55 677.88,-125.55 677.88,-159.05"/>
<text xml:space="preserve" text-anchor="start" x="558.88" y="-145.55" font-family="Helvetica,sans-Serif" font-size="10.00">kest_sequence_update</text>
<text xml:space="preserve" text-anchor="middle" x="614.38" y="-132.8" font-family="Helvetica,sans-Serif" font-size="10.00">_representations</text>
</a>
</g>
</g>
<!-- Node2&#45;&gt;Node3 -->
<g id="edge2_Node000002_Node000003" class="edge">
<title>Node2&#45;&gt;Node3</title>
<g id="a_edge2_Node000002_Node000003"><a xlink:title=" ">
<path fill="none" stroke="#63b8ff" d="M311.09,-135.17C327.31,-138.1 345.33,-140.85 362,-142.3 421.39,-147.47 488.98,-147.12 539.1,-145.67"/>
<polygon fill="#63b8ff" stroke="#63b8ff" points="539.09,-149.17 548.97,-145.36 538.87,-142.18 539.09,-149.17"/>
</a>
</g>
</g>
<!-- Node5 -->
<g id="Node000005" class="node">
<title>Node5</title>
<g id="a_Node000005"><a xlink:href="kest__context_8c.html#a5d13232e1dbd01fdd19c8acbbcccc6ad" target="_top" xlink:title=" ">
<polygon fill="white" stroke="#666666" points="501.38,-57.05 370.62,-57.05 370.62,-23.55 501.38,-23.55 501.38,-57.05"/>
<text xml:space="preserve" text-anchor="start" x="378.62" y="-43.55" font-family="Helvetica,sans-Serif" font-size="10.00">set_active_preset_from</text>
<text xml:space="preserve" text-anchor="middle" x="436" y="-30.8" font-family="Helvetica,sans-Serif" font-size="10.00">_sequence</text>
</a>
</g>
</g>
<!-- Node2&#45;&gt;Node5 -->
<g id="edge4_Node000002_Node000005" class="edge">
<title>Node2&#45;&gt;Node5</title>
<g id="a_edge4_Node000002_Node000005"><a xlink:title=" ">
<path fill="none" stroke="#63b8ff" d="M301.15,-113.43C309.52,-110.79 318.14,-107.73 326,-104.3 352.05,-92.94 379.63,-76.7 400.54,-63.42"/>
<polygon fill="#63b8ff" stroke="#63b8ff" points="402.15,-66.54 408.66,-58.18 398.36,-60.66 402.15,-66.54"/>
</a>
</g>
</g>
<!-- Node4 -->
<g id="Node000004" class="node">
<title>Node4</title>
<g id="a_Node000004"><a xlink:href="kest__representation_8c.html#a7a4a0f32b72f47d90e3d0f5932fbe58f" target="_top" xlink:title=" ">
<polygon fill="white" stroke="#666666" points="841.25,-159.05 718.75,-159.05 718.75,-125.55 841.25,-125.55 841.25,-159.05"/>
<text xml:space="preserve" text-anchor="start" x="726.75" y="-145.55" font-family="Helvetica,sans-Serif" font-size="10.00">queue_representation</text>
<text xml:space="preserve" text-anchor="middle" x="780" y="-132.8" font-family="Helvetica,sans-Serif" font-size="10.00">_list_update</text>
</a>
</g>
</g>
<!-- Node3&#45;&gt;Node4 -->
<g id="edge3_Node000003_Node000004" class="edge">
<title>Node3&#45;&gt;Node4</title>
<g id="a_edge3_Node000003_Node000004"><a xlink:title=" ">
<path fill="none" stroke="#63b8ff" d="M678.17,-142.3C687.52,-142.3 697.23,-142.3 706.76,-142.3"/>
<polygon fill="#63b8ff" stroke="#63b8ff" points="706.75,-145.8 716.75,-142.3 706.75,-138.8 706.75,-145.8"/>
</a>
</g>
</g>
<!-- Node6 -->
<g id="Node000006" class="node">
<title>Node6</title>
<g id="a_Node000006"><a xlink:href="kest__preset_8c.html#acb2b0cbb6743bad53092fa87d22051c0" target="_top" xlink:title=" ">
<polygon fill="#fff0f0" stroke="red" points="678.25,-69.67 550.5,-69.67 550.5,-48.92 678.25,-48.92 678.25,-69.67"/>
<text xml:space="preserve" text-anchor="middle" x="614.38" y="-56.17" font-family="Helvetica,sans-Serif" font-size="10.00">kest_preset_set_active</text>
</a>
</g>
</g>
<!-- Node5&#45;&gt;Node6 -->
<g id="edge5_Node000005_Node000006" class="edge">
<title>Node5&#45;&gt;Node6</title>
<g id="a_edge5_Node000005_Node000006"><a xlink:title=" ">
<path fill="none" stroke="#63b8ff" d="M501.67,-47.27C513.79,-48.57 526.55,-49.95 538.94,-51.28"/>
<polygon fill="#63b8ff" stroke="#63b8ff" points="538.36,-54.74 548.68,-52.33 539.11,-47.78 538.36,-54.74"/>
</a>
</g>
</g>
<!-- Node41 -->
<g id="Node000041" class="node">
<title>Node41</title>
<g id="a_Node000041"><a xlink:href="kest__preset_8c.html#ad45c84072c3ef9c904f7a6d7de7412d4" target="_top" xlink:title=" ">
<polygon fill="#fff0f0" stroke="red" points="682.75,-27.67 546,-27.67 546,-6.92 682.75,-6.92 682.75,-27.67"/>
<text xml:space="preserve" text-anchor="middle" x="614.38" y="-14.17" font-family="Helvetica,sans-Serif" font-size="10.00">kest_preset_set_inactive</text>
</a>
</g>
</g>
<!-- Node5&#45;&gt;Node41 -->
<g id="edge6_Node000005_Node000041" class="edge">
<title>Node5&#45;&gt;Node41</title>
<g id="a_edge6_Node000005_Node000041"><a xlink:title=" ">
<path fill="none" stroke="#63b8ff" d="M501.67,-31.87C512.33,-30.48 523.47,-29.02 534.43,-27.59"/>
<polygon fill="#63b8ff" stroke="#63b8ff" points="534.78,-31.08 544.25,-26.31 533.88,-24.14 534.78,-31.08"/>
</a>
</g>
</g>
<!-- Node42&#45;&gt;Node6 -->
<g id="edge8_Node000042_Node000006" class="edge">
<title>Node42&#45;&gt;Node6</title>
<g id="a_edge8_Node000042_Node000006"><a xlink:title=" ">
<path fill="none" stroke="#63b8ff" d="M309.72,-81.6C369.57,-77.21 469.99,-69.83 538.85,-64.77"/>
<polygon fill="#63b8ff" stroke="#63b8ff" points="538.82,-68.28 548.54,-64.06 538.31,-61.3 538.82,-68.28"/>
</a>
</g>
</g>
<!-- Node42&#45;&gt;Node41 -->
<g id="edge9_Node000042_Node000041" class="edge">
<title>Node42&#45;&gt;Node41</title>
<g id="a_edge9_Node000042_Node000041"><a xlink:title=" ">
<path fill="none" stroke="#63b8ff" d="M270.13,-74.43C287.58,-57.66 323.95,-26.18 362,-14.3 420.87,4.08 491.35,1.26 542.67,-4.97"/>
<polygon fill="#63b8ff" stroke="#63b8ff" points="542.11,-8.42 552.48,-6.23 543.01,-1.48 542.11,-8.42"/>
</a>
</g>
</g>
<!-- Node43 -->
<g id="Node000043" class="node">
<title>Node43</title>
<g id="a_Node000043"><a xlink:href="kest__sequence_8c.html#ace0fc67b2aadb7bbf73fb1e25daebb4f" target="_top" xlink:title=" ">
<polygon fill="white" stroke="#666666" points="510,-133.67 362,-133.67 362,-112.92 510,-112.92 510,-133.67"/>
<text xml:space="preserve" text-anchor="middle" x="436" y="-120.17" font-family="Helvetica,sans-Serif" font-size="10.00">kest_sequence_activate_at</text>
</a>
</g>
</g>
<!-- Node42&#45;&gt;Node43 -->
<g id="edge10_Node000042_Node000043" class="edge">
<title>Node42&#45;&gt;Node43</title>
<g id="a_edge10_Node000042_Node000043"><a xlink:title=" ">
<path fill="none" stroke="#63b8ff" d="M309.23,-96.09C329.35,-100.44 352.75,-105.5 373.88,-110.07"/>
<polygon fill="#63b8ff" stroke="#63b8ff" points="373.02,-113.47 383.54,-112.16 374.51,-106.63 373.02,-113.47"/>
</a>
</g>
</g>
<!-- Node43&#45;&gt;Node3 -->
<g id="edge11_Node000043_Node000003" class="edge">
<title>Node43&#45;&gt;Node3</title>
<g id="a_edge11_Node000043_Node000003"><a xlink:title=" ">
<path fill="none" stroke="#63b8ff" d="M510.27,-131.19C519.86,-132.22 529.69,-133.28 539.3,-134.32"/>
<polygon fill="#63b8ff" stroke="#63b8ff" points="538.62,-137.77 548.93,-135.36 539.37,-130.81 538.62,-137.77"/>
</a>
</g>
</g>
</g>
</svg>

<g id="navigator" transform="translate(0 0)" fill="#404254">
  <rect fill="#f2f5e9" fill-opacity="0.5" stroke="#606060" stroke-width=".5" x="0" y="0" width="60" height="60"/>
  <use id="zoomplus" xlink:href="#zoomPlus" x="17" y="9" onmousedown="handleZoom(evt,'in')"/>
  <use id="zoomminus" xlink:href="#zoomMin" x="42" y="9" onmousedown="handleZoom(evt,'out')"/>
  <use id="reset" xlink:href="#resetDef" x="30" y="36" onmousedown="handleReset()"/>
   <use id="arrowup" xlink:href="#arrowUp" x="0" y="0" onmousedown="handlePan(0,-1)"/>
  <use id="arrowright" xlink:href="#arrowRight" x="0" y="0" onmousedown="handlePan(1,0)"/>
  <use id="arrowdown" xlink:href="#arrowDown" x="0" y="0" onmousedown="handlePan(0,1)"/>
  <use id="arrowleft" xlink:href="#arrowLeft" x="0" y="0" onmousedown="handlePan(-1,0)"/>
</g>
<svg viewBox="0 0 15 15" width="100%" height="30px" preserveAspectRatio="xMaxYMin meet">
 <g id="arrow_out" transform="scale(0.3 0.3)">
  <a xlink:href="kest__preset__view_8c_a94f5c88455763855196088379903825d_cgraph_org.svg" target="_base">
   <rect id="button" ry="5" rx="5" y="6" x="6" height="38" width="38"
        fill="#f2f5e9" fill-opacity="0.5" stroke="#606060" stroke-width="1.0"/>
   <path id="arrow"
     d="M 11.500037,31.436501 C 11.940474,20.09759 22.043105,11.32322 32.158766,21.979434 L 37.068811,17.246167 C 37.068811,17.246167 37.088388,32 37.088388,32 L 22.160133,31.978069 C 22.160133,31.978069 26.997745,27.140456 26.997745,27.140456 C 18.528582,18.264221 13.291696,25.230495 11.500037,31.436501 z"
     style="fill:#404040;"/>
  </a>
 </g>
</svg>

<style type='text/css'>
<![CDATA[
[data-mouse-over-selected='false'] { opacity: 0.7; }
[data-mouse-over-selected='true']  { opacity: 1.0; }
]]>
</style>
<script type="application/ecmascript"><![CDATA[
document.addEventListener('DOMContentLoaded', (event) => {
  highlightEdges();
  highlightAdjacentNodes();
});
]]></script>
</svg>
