<?xml version="1.0" encoding="UTF-8" standalone="no"?>
<!DOCTYPE svg PUBLIC "-//W3C//DTD SVG 1.1//EN"
 "http://www.w3.org/Graphics/SVG/1.1/DTD/svg11.dtd">
<!-- Generated by graphviz version 13.1.2 (20250808.2320)
 -->
<!-- Title: sequence_listing_delete_button_cb Pages: 1 -->
<svg width="738pt" height="182pt"
 viewBox="0.00 0.00 738.00 182.00" xmlns="http://www.w3.org/2000/svg" xmlns:xlink="http://www.w3.org/1999/xlink">
<g id="graph0" class="graph" transform="scale(1 1) rotate(0) translate(4 177.75)">
<title>sequence_listing_delete_button_cb</title>
<!-- Node1 -->
<g id="Node000001" class="node">
<title>Node1</title>
<g id="a_Node000001"><a xlink:title=" ">
<polygon fill="#999999" stroke="#666666" points="133.75,-123.12 0,-123.12 0,-89.62 133.75,-89.62 133.75,-123.12"/>
<text xml:space="preserve" text-anchor="start" x="8" y="-109.62" font-family="Helvetica,sans-Serif" font-size="10.00">sequence_listing_delete</text>
<text xml:space="preserve" text-anchor="middle" x="66.88" y="-96.88" font-family="Helvetica,sans-Serif" font-size="10.00">_button_cb</text>
</a>
</g>
</g>
<!-- Node2 -->
<g id="Node000002" class="node">
<title>Node2</title>
<g id="a_Node000002"><a xlink:href="kest__context_8c.html#a89a9a7d285986c386193190edd9a5e00" target="_top" xlink:title=" ">
<polygon fill="white" stroke="#666666" points="295.25,-135.75 169.75,-135.75 169.75,-115 295.25,-115 295.25,-135.75"/>
<text xml:space="preserve" text-anchor="middle" x="232.5" y="-122.25" font-family="Helvetica,sans-Serif" font-size="10.00">cxt_remove_sequence</text>
</a>
</g>
</g>
<!-- Node1&#45;&gt;Node2 -->
<g id="edge1_Node000001_Node000002" class="edge">
<title>Node1&#45;&gt;Node2</title>
<g id="a_edge1_Node000001_Node000002"><a xlink:title=" ">
<path fill="none" stroke="#63b8ff" d="M133.96,-114.05C141.91,-114.97 150.08,-115.92 158.13,-116.86"/>
<polygon fill="#63b8ff" stroke="#63b8ff" points="157.57,-120.31 167.91,-117.99 158.38,-113.36 157.57,-120.31"/>
</a>
</g>
</g>
<!-- Node6 -->
<g id="Node000006" class="node">
<title>Node6</title>
<g id="a_Node000006"><a xlink:href="kest__menu_8c.html#a79f51bb10d3e6abf9e30a1577bf44bed" target="_top" xlink:title=" ">
<polygon fill="white" stroke="#666666" points="474.75,-78.75 331.25,-78.75 331.25,-58 474.75,-58 474.75,-78.75"/>
<text xml:space="preserve" text-anchor="middle" x="403" y="-65.25" font-family="Helvetica,sans-Serif" font-size="10.00">menu_page_remove_item</text>
</a>
</g>
</g>
<!-- Node1&#45;&gt;Node6 -->
<g id="edge6_Node000001_Node000006" class="edge">
<title>Node1&#45;&gt;Node6</title>
<g id="a_edge6_Node000001_Node000006"><a xlink:title=" ">
<path fill="none" stroke="#63b8ff" d="M133.89,-98.87C187.2,-92.8 262.5,-84.24 319.73,-77.73"/>
<polygon fill="#63b8ff" stroke="#63b8ff" points="319.88,-81.24 329.42,-76.63 319.09,-74.28 319.88,-81.24"/>
</a>
</g>
</g>
<!-- Node3 -->
<g id="Node000003" class="node">
<title>Node3</title>
<g id="a_Node000003"><a xlink:href="kest__sequence_8c.html#a6ff162921ceb28cfb5cb208e746ccea2" target="_top" xlink:title=" ">
<polygon fill="white" stroke="#666666" points="446.62,-173.75 359.38,-173.75 359.38,-153 446.62,-153 446.62,-173.75"/>
<text xml:space="preserve" text-anchor="middle" x="403" y="-160.25" font-family="Helvetica,sans-Serif" font-size="10.00">free_sequence</text>
</a>
</g>
</g>
<!-- Node2&#45;&gt;Node3 -->
<g id="edge2_Node000002_Node000003" class="edge">
<title>Node2&#45;&gt;Node3</title>
<g id="a_edge2_Node000002_Node000003"><a xlink:title=" ">
<path fill="none" stroke="#63b8ff" d="M281.33,-136.16C302.04,-140.83 326.37,-146.32 347.74,-151.14"/>
<polygon fill="#63b8ff" stroke="#63b8ff" points="346.94,-154.55 357.46,-153.33 348.48,-147.72 346.94,-154.55"/>
</a>
</g>
</g>
<!-- Node5 -->
<g id="Node000005" class="node">
<title>Node5</title>
<g id="a_Node000005"><a xlink:href="kest__alloc_8c.html#a294af5728a94aa316fcf65304d388d48" target="_top" xlink:title=" ">
<polygon fill="white" stroke="#666666" points="729.5,-116.75 668.5,-116.75 668.5,-96 729.5,-96 729.5,-116.75"/>
<text xml:space="preserve" text-anchor="middle" x="699" y="-103.25" font-family="Helvetica,sans-Serif" font-size="10.00">kest_free</text>
</a>
</g>
</g>
<!-- Node2&#45;&gt;Node5 -->
<g id="edge5_Node000002_Node000005" class="edge">
<title>Node2&#45;&gt;Node5</title>
<g id="a_edge5_Node000002_Node000005"><a xlink:title=" ">
<path fill="none" stroke="#63b8ff" d="M295.66,-122.83C392.15,-118.89 575.34,-111.39 656.97,-108.05"/>
<polygon fill="#63b8ff" stroke="#63b8ff" points="656.89,-111.56 666.74,-107.65 656.61,-104.57 656.89,-111.56"/>
</a>
</g>
</g>
<!-- Node4 -->
<g id="Node000004" class="node">
<title>Node4</title>
<g id="a_Node000004"><a xlink:href="kest__alloc_8c.html#ac70a0464d391cefa33eb0f6d746ff7aa" target="_top" xlink:title=" ">
<polygon fill="white" stroke="#666666" points="626.12,-173.75 517.12,-173.75 517.12,-153 626.12,-153 626.12,-173.75"/>
<text xml:space="preserve" text-anchor="middle" x="571.62" y="-160.25" font-family="Helvetica,sans-Serif" font-size="10.00">kest_allocator_free</text>
</a>
</g>
</g>
<!-- Node3&#45;&gt;Node4 -->
<g id="edge3_Node000003_Node000004" class="edge">
<title>Node3&#45;&gt;Node4</title>
<g id="a_edge3_Node000003_Node000004"><a xlink:title=" ">
<path fill="none" stroke="#63b8ff" d="M446.91,-163.38C464.72,-163.38 485.79,-163.38 505.44,-163.38"/>
<polygon fill="#63b8ff" stroke="#63b8ff" points="505.3,-166.88 515.3,-163.38 505.3,-159.88 505.3,-166.88"/>
</a>
</g>
</g>
<!-- Node4&#45;&gt;Node5 -->
<g id="edge4_Node000004_Node000005" class="edge">
<title>Node4&#45;&gt;Node5</title>
<g id="a_edge4_Node000004_Node000005"><a xlink:title=" ">
<path fill="none" stroke="#63b8ff" d="M601.16,-152.51C611.15,-148.56 622.39,-143.94 632.5,-139.38 644.11,-134.14 656.65,-127.95 667.61,-122.36"/>
<polygon fill="#63b8ff" stroke="#63b8ff" points="668.94,-125.62 676.22,-117.93 665.73,-119.4 668.94,-125.62"/>
</a>
</g>
</g>
<!-- Node6&#45;&gt;Node5 -->
<g id="edge10_Node000006_Node000005" class="edge">
<title>Node6&#45;&gt;Node5</title>
<g id="a_edge10_Node000006_Node000005"><a xlink:title=" ">
<path fill="none" stroke="#63b8ff" d="M475.17,-77.57C532.04,-84.92 609.76,-94.97 656.78,-101.05"/>
<polygon fill="#63b8ff" stroke="#63b8ff" points="656.18,-104.5 666.54,-102.31 657.07,-97.56 656.18,-104.5"/>
</a>
</g>
</g>
<!-- Node7 -->
<g id="Node000007" class="node">
<title>Node7</title>
<g id="a_Node000007"><a xlink:href="kest__menu_8c.html#a75dd55efbef5c8ee5374ce453388536b" target="_top" xlink:title=" ">
<polygon fill="white" stroke="#666666" points="632.5,-59.75 510.75,-59.75 510.75,-39 632.5,-39 632.5,-59.75"/>
<text xml:space="preserve" text-anchor="middle" x="571.62" y="-46.25" font-family="Helvetica,sans-Serif" font-size="10.00">delete_menu_item_ui</text>
</a>
</g>
</g>
<!-- Node6&#45;&gt;Node7 -->
<g id="edge7_Node000006_Node000007" class="edge">
<title>Node6&#45;&gt;Node7</title>
<g id="a_edge7_Node000006_Node000007"><a xlink:title=" ">
<path fill="none" stroke="#63b8ff" d="M475.15,-60.26C483.14,-59.35 491.29,-58.42 499.29,-57.51"/>
<polygon fill="#63b8ff" stroke="#63b8ff" points="499.42,-61.02 508.96,-56.41 498.63,-54.06 499.42,-61.02"/>
</a>
</g>
</g>
<!-- Node8 -->
<g id="Node000008" class="node">
<title>Node8</title>
<g id="a_Node000008"><a xlink:href="kest__menu_8c.html#aebe40b8ddcc4ba16b20772010ad1f97c" target="_top" xlink:title=" ">
<polygon fill="white" stroke="#666666" points="619.75,-20.75 523.5,-20.75 523.5,0 619.75,0 619.75,-20.75"/>
<text xml:space="preserve" text-anchor="middle" x="571.62" y="-7.25" font-family="Helvetica,sans-Serif" font-size="10.00">free_menu_item</text>
</a>
</g>
</g>
<!-- Node6&#45;&gt;Node8 -->
<g id="edge8_Node000006_Node000008" class="edge">
<title>Node6&#45;&gt;Node8</title>
<g id="a_edge8_Node000006_Node000008"><a xlink:title=" ">
<path fill="none" stroke="#63b8ff" d="M433.85,-57.57C455.23,-49.88 484.71,-39.36 510.75,-30.38 516.12,-28.52 521.76,-26.6 527.36,-24.72"/>
<polygon fill="#63b8ff" stroke="#63b8ff" points="528.16,-28.14 536.52,-21.64 525.93,-21.5 528.16,-28.14"/>
</a>
</g>
</g>
<!-- Node8&#45;&gt;Node5 -->
<g id="edge9_Node000008_Node000005" class="edge">
<title>Node8&#45;&gt;Node5</title>
<g id="a_edge9_Node000008_Node000005"><a xlink:title=" ">
<path fill="none" stroke="#63b8ff" d="M614.57,-21.15C620.85,-23.67 627.04,-26.71 632.5,-30.38 654.63,-45.22 673.7,-69.46 685.47,-86.57"/>
<polygon fill="#63b8ff" stroke="#63b8ff" points="682.24,-88.03 690.68,-94.43 688.07,-84.16 682.24,-88.03"/>
</a>
</g>
</g>
</g>
</svg>
