<?xml version="1.0" encoding="UTF-8" standalone="no"?>
<!DOCTYPE svg PUBLIC "-//W3C//DTD SVG 1.1//EN"
 "http://www.w3.org/Graphics/SVG/1.1/DTD/svg11.dtd">
<!-- Generated by graphviz version 13.1.2 (20250808.2320)
 -->
<!-- Title: kest_extract_hpf Pages: 1 -->
<!--zoomable 548 -->

<svg id="main" version="1.1" xmlns="http://www.w3.org/2000/svg" xmlns:xlink="http://www.w3.org/1999/xlink" xml:space="preserve" onload="init(evt)">

<style type="text/css"><![CDATA[
.node, .edge {opacity: 0.7;}
.node.selected, .edge.selected {opacity: 1;}
.edge:hover path { stroke: red; }
.edge:hover polygon { stroke: red; fill: red; }
]]></style>

<defs>
  <circle id="rim" cx="0" cy="0" r="7"/>
  <circle id="rim2" cx="0" cy="0" r="3.5"/>
  <g id="zoomPlus">
    <use xlink:href="#rim" fill="#404040"><set attributeName="fill" to="#808080" begin="zoomplus.mouseover" end="zoomplus.mouseout"/></use>
    <path d="M-4,0h8M0,-4v8" fill="none" stroke="white" stroke-width="1.5" pointer-events="none"/>
  </g>
  <g id="zoomMin">
    <use xlink:href="#rim" fill="#404040"><set attributeName="fill" to="#808080" begin="zoomminus.mouseover" end="zoomminus.mouseout"/></use>
    <path d="M-4,0h8" fill="none" stroke="white" stroke-width="1.5" pointer-events="none"/>
  </g>
  <g id="arrowUp" transform="translate(30 24)">
    <use xlink:href="#rim"/>
    <path pointer-events="none" fill="none" stroke="white" stroke-width="1.5" d="M0,-3.0v7 M-2.5,-0.5L0,-3.0L2.5,-0.5"/>
  </g>
  <g id="arrowRight" transform="rotate(90) translate(36 -43)">
    <use xlink:href="#rim"/>
    <path pointer-events="none" fill="none" stroke="white" stroke-width="1.5" d="M0,-3.0v7 M-2.5,-0.5L0,-3.0L2.5,-0.5"/>
  </g>
  <g id="arrowDown" transform="rotate(180) translate(-30 -48)">
    <use xlink:href="#rim"/>
    <path pointer-events="none" fill="none" stroke="white" stroke-width="1.5" d="M0,-3.0v7 M-2.5,-0.5L0,-3.0L2.5,-0.5"/>
  </g>
  <g id="arrowLeft" transform="rotate(270) translate(-36 17)">
    <use xlink:href="#rim"/>
    <path pointer-events="none" fill="none" stroke="white" stroke-width="1.5" d="M0,-3.0v7 M-2.5,-0.5L0,-3.0L2.5,-0.5"/>
  </g>
  <g id="resetDef">
    <use xlink:href="#rim2" fill="#404040"><set attributeName="fill" to="#808080" begin="reset.mouseover" end="reset.mouseout"/></use>
  </g>
</defs>
<script type="application/ecmascript">
var viewWidth = 580;
var viewHeight = 548;
var sectionId = 'dynsection-19';
</script>
<script type="application/ecmascript" xlink:href="svg.min.js"/>
<svg id="graph" class="graph">
<g id="viewport">
<title>kest_extract_hpf</title>
<!-- Node1 -->
<g id="Node000001" class="node">
<title>Node1</title>
<g id="a_Node000001"><a xlink:title=" ">
<polygon fill="#999999" stroke="#666666" points="97,-344.09 0,-344.09 0,-323.34 97,-323.34 97,-344.09"/>
<text xml:space="preserve" text-anchor="middle" x="48.5" y="-330.59" font-family="Helvetica,sans-Serif" font-size="10.00">kest_extract_hpf</text>
</a>
</g>
</g>
<!-- Node2 -->
<g id="Node000002" class="node">
<title>Node2</title>
<g id="a_Node000002"><a xlink:href="kest__alloc_8c.html#a849755c5dc5b35e712ffcdb602e50fb4" target="_top" xlink:title=" ">
<polygon fill="white" stroke="#666666" points="544,-513.09 479.25,-513.09 479.25,-492.34 544,-492.34 544,-513.09"/>
<text xml:space="preserve" text-anchor="middle" x="511.62" y="-499.59" font-family="Helvetica,sans-Serif" font-size="10.00">kest_alloc</text>
</a>
</g>
</g>
<!-- Node1&#45;&gt;Node2 -->
<g id="edge1_Node000001_Node000002" class="edge">
<title>Node1&#45;&gt;Node2</title>
<g id="a_edge1_Node000001_Node000002"><a xlink:title=" ">
<path fill="none" stroke="#63b8ff" d="M51.4,-344.3C57.34,-373.98 78.51,-458.24 133,-495.71 235.27,-566.04 392.75,-536.2 467.89,-515.86"/>
<polygon fill="#63b8ff" stroke="#63b8ff" points="468.64,-519.29 477.33,-513.23 466.76,-512.54 468.64,-519.29"/>
</a>
</g>
</g>
<!-- Node3 -->
<g id="Node000003" class="node">
<title>Node3</title>
<g id="a_Node000003"><a xlink:href="kest__dictionary_8c.html#ac279369f5a4c3b4a0bc0625041f410f2" target="_top" xlink:title=" ">
<polygon fill="white" stroke="#666666" points="251,-486.46 142,-486.46 142,-452.96 251,-452.96 251,-486.46"/>
<text xml:space="preserve" text-anchor="start" x="150" y="-472.96" font-family="Helvetica,sans-Serif" font-size="10.00">kest_eff_entry_dict</text>
<text xml:space="preserve" text-anchor="middle" x="196.5" y="-460.21" font-family="Helvetica,sans-Serif" font-size="10.00">_count</text>
</a>
</g>
</g>
<!-- Node1&#45;&gt;Node3 -->
<g id="edge2_Node000001_Node000003" class="edge">
<title>Node1&#45;&gt;Node3</title>
<g id="a_edge2_Node000001_Node000003"><a xlink:title=" ">
<path fill="none" stroke="#63b8ff" d="M54.98,-344.27C66.62,-365.76 95.81,-414.98 133,-443.71 134.34,-444.74 135.72,-445.74 137.14,-446.71"/>
<polygon fill="#63b8ff" stroke="#63b8ff" points="135.29,-449.68 145.67,-451.82 138.89,-443.68 135.29,-449.68"/>
</a>
</g>
</g>
<!-- Node4 -->
<g id="Node000004" class="node">
<title>Node4</title>
<g id="a_Node000004"><a xlink:href="kest__dictionary_8c.html#a25171775543290a8e7a5ef33d3b9c3d3" target="_top" xlink:title=" ">
<polygon fill="white" stroke="#666666" points="251,-434.46 142,-434.46 142,-400.96 251,-400.96 251,-434.46"/>
<text xml:space="preserve" text-anchor="start" x="150" y="-420.96" font-family="Helvetica,sans-Serif" font-size="10.00">kest_eff_entry_dict</text>
<text xml:space="preserve" text-anchor="middle" x="196.5" y="-408.21" font-family="Helvetica,sans-Serif" font-size="10.00">_index</text>
</a>
</g>
</g>
<!-- Node1&#45;&gt;Node4 -->
<g id="edge3_Node000001_Node000004" class="edge">
<title>Node1&#45;&gt;Node4</title>
<g id="a_edge3_Node000001_Node000004"><a xlink:title=" ">
<path fill="none" stroke="#63b8ff" d="M63.1,-344.51C79.16,-356.95 106.99,-377.48 133,-391.71 135.48,-393.07 138.05,-394.4 140.66,-395.7"/>
<polygon fill="#63b8ff" stroke="#63b8ff" points="139,-398.78 149.53,-399.89 141.98,-392.45 139,-398.78"/>
</a>
</g>
</g>
<!-- Node5 -->
<g id="Node000005" class="node">
<title>Node5</title>
<g id="a_Node000005"><a xlink:href="kest__expression_8c.html#a91f074f7596d8adca0d0aa258e8af07b" target="_top" xlink:title=" ">
<polygon fill="white" stroke="#666666" points="256.62,-305.46 136.38,-305.46 136.38,-271.96 256.62,-271.96 256.62,-305.46"/>
<text xml:space="preserve" text-anchor="start" x="144.38" y="-291.96" font-family="Helvetica,sans-Serif" font-size="10.00">kest_expr_create_hpf</text>
<text xml:space="preserve" text-anchor="middle" x="196.5" y="-279.21" font-family="Helvetica,sans-Serif" font-size="10.00">_coefficients</text>
</a>
</g>
</g>
<!-- Node1&#45;&gt;Node5 -->
<g id="edge4_Node000001_Node000005" class="edge">
<title>Node1&#45;&gt;Node5</title>
<g id="a_edge4_Node000001_Node000005"><a xlink:title=" ">
<path fill="none" stroke="#63b8ff" d="M84.47,-322.93C97.91,-318.79 113.72,-313.92 129.14,-309.16"/>
<polygon fill="#63b8ff" stroke="#63b8ff" points="129.75,-312.64 138.27,-306.35 127.69,-305.95 129.75,-312.64"/>
</a>
</g>
</g>
<!-- Node8 -->
<g id="Node000008" class="node">
<title>Node8</title>
<g id="a_Node000008"><a xlink:href="kest__alloc_8c.html#a294af5728a94aa316fcf65304d388d48" target="_top" xlink:title=" ">
<polygon fill="white" stroke="#666666" points="542.12,-27.09 481.12,-27.09 481.12,-6.34 542.12,-6.34 542.12,-27.09"/>
<text xml:space="preserve" text-anchor="middle" x="511.62" y="-13.59" font-family="Helvetica,sans-Serif" font-size="10.00">kest_free</text>
</a>
</g>
</g>
<!-- Node1&#45;&gt;Node8 -->
<g id="edge31_Node000001_Node000008" class="edge">
<title>Node1&#45;&gt;Node8</title>
<g id="a_edge31_Node000001_Node000008"><a xlink:title=" ">
<path fill="none" stroke="#63b8ff" d="M53.35,-322.95C71.34,-274.68 152.27,-77.77 296,-16.71 352.35,7.23 424.79,0.44 469.44,-7.5"/>
<polygon fill="#63b8ff" stroke="#63b8ff" points="468.75,-10.93 479.23,-9.35 470.05,-4.05 468.75,-10.93"/>
</a>
</g>
</g>
<!-- Node694 -->
<g id="Node000694" class="node">
<title>Node694</title>
<g id="a_Node000694"><a xlink:href="kest__resource_8c.html#adb005fd5423242a5fb393a1ec10feb9d" target="_top" xlink:title=" ">
<polygon fill="white" stroke="#666666" points="246.88,-344.09 146.12,-344.09 146.12,-323.34 246.88,-323.34 246.88,-344.09"/>
<text xml:space="preserve" text-anchor="middle" x="196.5" y="-330.59" font-family="Helvetica,sans-Serif" font-size="10.00">kest_filter_create</text>
</a>
</g>
</g>
<!-- Node1&#45;&gt;Node694 -->
<g id="edge29_Node000001_Node000694" class="edge">
<title>Node1&#45;&gt;Node694</title>
<g id="a_edge29_Node000001_Node000694"><a xlink:title=" ">
<path fill="none" stroke="#63b8ff" d="M97.31,-333.71C109.21,-333.71 122.14,-333.71 134.58,-333.71"/>
<polygon fill="#63b8ff" stroke="#63b8ff" points="134.32,-337.21 144.32,-333.71 134.32,-330.21 134.32,-337.21"/>
</a>
</g>
</g>
<!-- Node695 -->
<g id="Node000695" class="node">
<title>Node695</title>
<g id="a_Node000695"><a xlink:href="kest__resource_8c.html#a7427cffa33a06a92cfe8a18ec7b5eb3b" target="_top" xlink:title=" ">
<polygon fill="white" stroke="#666666" points="260,-254.09 133,-254.09 133,-233.34 260,-233.34 260,-254.09"/>
<text xml:space="preserve" text-anchor="middle" x="196.5" y="-240.59" font-family="Helvetica,sans-Serif" font-size="10.00">kest_init_dsp_resource</text>
</a>
</g>
</g>
<!-- Node1&#45;&gt;Node695 -->
<g id="edge32_Node000001_Node000695" class="edge">
<title>Node1&#45;&gt;Node695</title>
<g id="a_edge32_Node000001_Node000695"><a xlink:title=" ">
<path fill="none" stroke="#63b8ff" d="M59.26,-322.99C73.87,-307.56 102.94,-279.13 133,-262.71 135.53,-261.33 138.16,-260.04 140.87,-258.83"/>
<polygon fill="#63b8ff" stroke="#63b8ff" points="142.14,-262.09 150.13,-255.13 139.54,-255.59 142.14,-262.09"/>
</a>
</g>
</g>
<!-- Node647 -->
<g id="Node000647" class="node">
<title>Node647</title>
<g id="a_Node000647"><a xlink:href="kest__eff__parser_8c.html#abf2c14dab3ed7e069ad5083b160b16da" target="_top" xlink:title=" ">
<polygon fill="white" stroke="#666666" points="246.88,-215.09 146.12,-215.09 146.12,-194.34 246.88,-194.34 246.88,-215.09"/>
<text xml:space="preserve" text-anchor="middle" x="196.5" y="-201.59" font-family="Helvetica,sans-Serif" font-size="10.00">kest_parser_error</text>
</a>
</g>
</g>
<!-- Node1&#45;&gt;Node647 -->
<g id="edge33_Node000001_Node000647" class="edge">
<title>Node1&#45;&gt;Node647</title>
<g id="a_edge33_Node000001_Node000647"><a xlink:title=" ">
<path fill="none" stroke="#63b8ff" d="M54.81,-322.99C66.15,-301.21 94.8,-251.61 133,-224.71 135.2,-223.16 137.53,-221.73 139.94,-220.4"/>
<polygon fill="#63b8ff" stroke="#63b8ff" points="141.31,-223.63 148.85,-216.18 138.31,-217.3 141.31,-223.63"/>
</a>
</g>
</g>
<!-- Node90 -->
<g id="Node000090" class="node">
<title>Node90</title>
<g id="a_Node000090"><a xlink:href="kest__alloc_8c.html#aed9ede1276c1ab3b4042c264ce64a3d2" target="_top" xlink:title=" ">
<polygon fill="white" stroke="#666666" points="235.62,-383.09 157.38,-383.09 157.38,-362.34 235.62,-362.34 235.62,-383.09"/>
<text xml:space="preserve" text-anchor="middle" x="196.5" y="-369.59" font-family="Helvetica,sans-Serif" font-size="10.00">kest_strndup</text>
</a>
</g>
</g>
<!-- Node1&#45;&gt;Node90 -->
<g id="edge34_Node000001_Node000090" class="edge">
<title>Node1&#45;&gt;Node90</title>
<g id="a_edge34_Node000001_Node000090"><a xlink:title=" ">
<path fill="none" stroke="#63b8ff" d="M90.17,-344.57C107.5,-349.2 127.87,-354.65 146.06,-359.5"/>
<polygon fill="#63b8ff" stroke="#63b8ff" points="145.03,-362.85 155.59,-362.05 146.84,-356.09 145.03,-362.85"/>
</a>
</g>
</g>
<!-- Node6 -->
<g id="Node000006" class="node">
<title>Node6</title>
<g id="a_Node000006"><a xlink:href="kest__alloc_8c.html#a4bb52284828149d9a740bac0c9706ecd" target="_top" xlink:title=" ">
<polygon fill="white" stroke="#666666" points="412.12,-475.09 299.38,-475.09 299.38,-454.34 412.12,-454.34 412.12,-475.09"/>
<text xml:space="preserve" text-anchor="middle" x="355.75" y="-461.59" font-family="Helvetica,sans-Serif" font-size="10.00">kest_allocator_alloc</text>
</a>
</g>
</g>
<!-- Node5&#45;&gt;Node6 -->
<g id="edge5_Node000005_Node000006" class="edge">
<title>Node5&#45;&gt;Node6</title>
<g id="a_edge5_Node000005_Node000006"><a xlink:title=" ">
<path fill="none" stroke="#63b8ff" d="M249.85,-305.88C253.59,-308.44 257.04,-311.36 260,-314.71 299.68,-359.65 254.85,-401.11 296,-444.71 296.87,-445.63 297.78,-446.51 298.73,-447.35"/>
<polygon fill="#63b8ff" stroke="#63b8ff" points="296.7,-450.2 306.92,-452.99 300.67,-444.43 296.7,-450.2"/>
</a>
</g>
</g>
<!-- Node7 -->
<g id="Node000007" class="node">
<title>Node7</title>
<g id="a_Node000007"><a xlink:href="kest__alloc_8c.html#ac70a0464d391cefa33eb0f6d746ff7aa" target="_top" xlink:title=" ">
<polygon fill="white" stroke="#666666" points="410.25,-46.09 301.25,-46.09 301.25,-25.34 410.25,-25.34 410.25,-46.09"/>
<text xml:space="preserve" text-anchor="middle" x="355.75" y="-32.59" font-family="Helvetica,sans-Serif" font-size="10.00">kest_allocator_free</text>
</a>
</g>
</g>
<!-- Node5&#45;&gt;Node7 -->
<g id="edge7_Node000005_Node000007" class="edge">
<title>Node5&#45;&gt;Node7</title>
<g id="a_edge7_Node000005_Node000007"><a xlink:title=" ">
<path fill="none" stroke="#63b8ff" d="M250.5,-271.64C254.05,-269.07 257.28,-266.11 260,-262.71 318.31,-189.77 235.31,-126.68 296,-55.71 296.69,-54.9 297.41,-54.13 298.17,-53.39"/>
<polygon fill="#63b8ff" stroke="#63b8ff" points="300.14,-56.29 306.02,-47.47 295.93,-50.69 300.14,-56.29"/>
</a>
</g>
</g>
<!-- Node9 -->
<g id="Node000009" class="node">
<title>Node9</title>
<g id="a_Node000009"><a xlink:href="kest__expression_8c.html#a9170d6ae834bc2bf9af71c776c4433e0" target="_top" xlink:title=" ">
<polygon fill="white" stroke="#666666" points="406.5,-202.09 305,-202.09 305,-181.34 406.5,-181.34 406.5,-202.09"/>
<text xml:space="preserve" text-anchor="middle" x="355.75" y="-188.59" font-family="Helvetica,sans-Serif" font-size="10.00">kest_expr_init_2x</text>
</a>
</g>
</g>
<!-- Node5&#45;&gt;Node9 -->
<g id="edge9_Node000005_Node000009" class="edge">
<title>Node5&#45;&gt;Node9</title>
<g id="a_edge9_Node000005_Node000009"><a xlink:title=" ">
<path fill="none" stroke="#63b8ff" d="M246.47,-271.58C251.26,-268.96 255.87,-266.02 260,-262.71 281.66,-245.37 273.78,-228.33 296,-211.71 298,-210.22 300.12,-208.83 302.31,-207.54"/>
<polygon fill="#63b8ff" stroke="#63b8ff" points="303.63,-210.8 311,-203.19 300.49,-204.54 303.63,-210.8"/>
</a>
</g>
</g>
<!-- Node11 -->
<g id="Node000011" class="node">
<title>Node11</title>
<g id="a_Node000011"><a xlink:href="kest__expression_8c.html#ab5ffd4d3ec70263d83bc76cba8182027" target="_top" xlink:title=" ">
<polygon fill="white" stroke="#666666" points="408.75,-358.09 302.75,-358.09 302.75,-337.34 408.75,-337.34 408.75,-358.09"/>
<text xml:space="preserve" text-anchor="middle" x="355.75" y="-344.59" font-family="Helvetica,sans-Serif" font-size="10.00">kest_expr_init_cos</text>
</a>
</g>
</g>
<!-- Node5&#45;&gt;Node11 -->
<g id="edge11_Node000005_Node000011" class="edge">
<title>Node5&#45;&gt;Node11</title>
<g id="a_edge11_Node000005_Node000011"><a xlink:title=" ">
<path fill="none" stroke="#63b8ff" d="M239.51,-305.87C256.91,-312.84 277.36,-320.85 296,-327.71 300.98,-329.54 306.22,-331.41 311.44,-333.24"/>
<polygon fill="#63b8ff" stroke="#63b8ff" points="310,-336.44 320.59,-336.39 312.28,-329.82 310,-336.44"/>
</a>
</g>
</g>
<!-- Node13 -->
<g id="Node000013" class="node">
<title>Node13</title>
<g id="a_Node000013"><a xlink:href="kest__expression_8c.html#a22400585039b3adf87bf350e7996fcb3" target="_top" xlink:title=" ">
<polygon fill="white" stroke="#666666" points="408,-163.09 303.5,-163.09 303.5,-142.34 408,-142.34 408,-163.09"/>
<text xml:space="preserve" text-anchor="middle" x="355.75" y="-149.59" font-family="Helvetica,sans-Serif" font-size="10.00">kest_expr_init_div</text>
</a>
</g>
</g>
<!-- Node5&#45;&gt;Node13 -->
<g id="edge13_Node000005_Node000013" class="edge">
<title>Node5&#45;&gt;Node13</title>
<g id="a_edge13_Node000005_Node000013"><a xlink:title=" ">
<path fill="none" stroke="#63b8ff" d="M248.85,-271.56C252.9,-268.99 256.7,-266.06 260,-262.71 290.25,-232.04 264.75,-202.37 296,-172.71 297.22,-171.55 298.51,-170.46 299.86,-169.43"/>
<polygon fill="#63b8ff" stroke="#63b8ff" points="301.48,-172.54 308.15,-164.31 297.8,-166.59 301.48,-172.54"/>
</a>
</g>
</g>
<!-- Node14 -->
<g id="Node000014" class="node">
<title>Node14</title>
<g id="a_Node000014"><a xlink:href="kest__expression_8c.html#ac3adf09afb2c9382bec825b89c4a1bc9" target="_top" xlink:title=" ">
<polygon fill="white" stroke="#666666" points="415.5,-124.09 296,-124.09 296,-103.34 415.5,-103.34 415.5,-124.09"/>
<text xml:space="preserve" text-anchor="middle" x="355.75" y="-110.59" font-family="Helvetica,sans-Serif" font-size="10.00">kest_expr_init_half_x</text>
</a>
</g>
</g>
<!-- Node5&#45;&gt;Node14 -->
<g id="edge15_Node000005_Node000014" class="edge">
<title>Node5&#45;&gt;Node14</title>
<g id="a_edge15_Node000005_Node000014"><a xlink:title=" ">
<path fill="none" stroke="#63b8ff" d="M249.84,-271.54C253.58,-268.98 257.04,-266.06 260,-262.71 299.44,-218.13 255.1,-176.96 296,-133.71 296.87,-132.79 297.78,-131.91 298.74,-131.08"/>
<polygon fill="#63b8ff" stroke="#63b8ff" points="300.67,-133.99 306.92,-125.44 296.7,-128.23 300.67,-133.99"/>
</a>
</g>
</g>
<!-- Node15 -->
<g id="Node000015" class="node">
<title>Node15</title>
<g id="a_Node000015"><a xlink:href="kest__expression_8c.html#a73d704a97968e4092ff099814f206b90" target="_top" xlink:title=" ">
<polygon fill="white" stroke="#666666" points="409.88,-85.09 301.62,-85.09 301.62,-64.34 409.88,-64.34 409.88,-85.09"/>
<text xml:space="preserve" text-anchor="middle" x="355.75" y="-71.59" font-family="Helvetica,sans-Serif" font-size="10.00">kest_expr_init_mul</text>
</a>
</g>
</g>
<!-- Node5&#45;&gt;Node15 -->
<g id="edge17_Node000005_Node000015" class="edge">
<title>Node5&#45;&gt;Node15</title>
<g id="a_edge17_Node000005_Node000015"><a xlink:title=" ">
<path fill="none" stroke="#63b8ff" d="M250.36,-271.52C253.94,-268.97 257.22,-266.05 260,-262.71 308.83,-204 245.25,-151.77 296,-94.71 296.82,-93.79 297.69,-92.9 298.6,-92.06"/>
<polygon fill="#63b8ff" stroke="#63b8ff" points="300.36,-95.1 306.43,-86.41 296.27,-89.42 300.36,-95.1"/>
</a>
</g>
</g>
<!-- Node16 -->
<g id="Node000016" class="node">
<title>Node16</title>
<g id="a_Node000016"><a xlink:href="kest__expression_8c.html#aedc64780fddcd14b698456d39eb0f1d1" target="_top" xlink:title=" ">
<polygon fill="white" stroke="#666666" points="409.5,-436.09 302,-436.09 302,-415.34 409.5,-415.34 409.5,-436.09"/>
<text xml:space="preserve" text-anchor="middle" x="355.75" y="-422.59" font-family="Helvetica,sans-Serif" font-size="10.00">kest_expr_init_neg</text>
</a>
</g>
</g>
<!-- Node5&#45;&gt;Node16 -->
<g id="edge19_Node000005_Node000016" class="edge">
<title>Node5&#45;&gt;Node16</title>
<g id="a_edge19_Node000005_Node000016"><a xlink:title=" ">
<path fill="none" stroke="#63b8ff" d="M248.86,-305.84C252.91,-308.42 256.71,-311.36 260,-314.71 290.48,-345.73 264.51,-375.71 296,-405.71 297.22,-406.87 298.51,-407.97 299.85,-409"/>
<polygon fill="#63b8ff" stroke="#63b8ff" points="297.79,-411.84 308.14,-414.12 301.48,-405.88 297.79,-411.84"/>
</a>
</g>
</g>
<!-- Node17 -->
<g id="Node000017" class="node">
<title>Node17</title>
<g id="a_Node000017"><a xlink:href="kest__expression_8c.html#a17e50387b6aeac937fe5d19196cfdaed" target="_top" xlink:title=" ">
<polygon fill="white" stroke="#666666" points="407.62,-397.09 303.88,-397.09 303.88,-376.34 407.62,-376.34 407.62,-397.09"/>
<text xml:space="preserve" text-anchor="middle" x="355.75" y="-383.59" font-family="Helvetica,sans-Serif" font-size="10.00">kest_expr_init_sin</text>
</a>
</g>
</g>
<!-- Node5&#45;&gt;Node17 -->
<g id="edge21_Node000005_Node000017" class="edge">
<title>Node5&#45;&gt;Node17</title>
<g id="a_edge21_Node000005_Node000017"><a xlink:title=" ">
<path fill="none" stroke="#63b8ff" d="M246.5,-305.81C251.29,-308.43 255.89,-311.39 260,-314.71 281.86,-332.38 273.57,-349.77 296,-366.71 297.99,-368.21 300.1,-369.61 302.3,-370.9"/>
<polygon fill="#63b8ff" stroke="#63b8ff" points="300.47,-373.9 310.97,-375.27 303.62,-367.65 300.47,-373.9"/>
</a>
</g>
</g>
<!-- Node18 -->
<g id="Node000018" class="node">
<title>Node18</title>
<g id="a_Node000018"><a xlink:href="kest__expression_8c.html#a5f01af2fc5c29b8a7da7082419f6090d" target="_top" xlink:title=" ">
<polygon fill="white" stroke="#666666" points="409.12,-280.09 302.38,-280.09 302.38,-259.34 409.12,-259.34 409.12,-280.09"/>
<text xml:space="preserve" text-anchor="middle" x="355.75" y="-266.59" font-family="Helvetica,sans-Serif" font-size="10.00">kest_expr_init_sub</text>
</a>
</g>
</g>
<!-- Node5&#45;&gt;Node18 -->
<g id="edge23_Node000005_Node000018" class="edge">
<title>Node5&#45;&gt;Node18</title>
<g id="a_edge23_Node000005_Node000018"><a xlink:title=" ">
<path fill="none" stroke="#63b8ff" d="M256.95,-281.53C267.92,-280.2 279.43,-278.81 290.53,-277.47"/>
<polygon fill="#63b8ff" stroke="#63b8ff" points="290.92,-280.95 300.42,-276.27 290.08,-274 290.92,-280.95"/>
</a>
</g>
</g>
<!-- Node19 -->
<g id="Node000019" class="node">
<title>Node19</title>
<g id="a_Node000019"><a xlink:href="kest__expression_8c.html#adeabeb2a2a0362550536190c9e3819e0" target="_top" xlink:title=" ">
<polygon fill="white" stroke="#666666" points="411,-241.09 300.5,-241.09 300.5,-220.34 411,-220.34 411,-241.09"/>
<text xml:space="preserve" text-anchor="middle" x="355.75" y="-227.59" font-family="Helvetica,sans-Serif" font-size="10.00">kest_expr_init_sum</text>
</a>
</g>
</g>
<!-- Node5&#45;&gt;Node19 -->
<g id="edge25_Node000005_Node000019" class="edge">
<title>Node5&#45;&gt;Node19</title>
<g id="a_edge25_Node000005_Node000019"><a xlink:title=" ">
<path fill="none" stroke="#63b8ff" d="M241,-271.5C258.09,-264.85 277.91,-257.28 296,-250.71 301.05,-248.88 306.36,-247 311.65,-245.16"/>
<polygon fill="#63b8ff" stroke="#63b8ff" points="312.6,-248.54 320.92,-241.97 310.32,-241.92 312.6,-248.54"/>
</a>
</g>
</g>
<!-- Node20 -->
<g id="Node000020" class="node">
<title>Node20</title>
<g id="a_Node000020"><a xlink:href="kest__desktop_8c.html#a3c04138a5bfe5d72780bb7e82a18e627" target="_top" xlink:title=" ">
<polygon fill="white" stroke="#666666" points="376.12,-319.09 335.38,-319.09 335.38,-298.34 376.12,-298.34 376.12,-319.09"/>
<text xml:space="preserve" text-anchor="middle" x="355.75" y="-305.59" font-family="Helvetica,sans-Serif" font-size="10.00">main</text>
</a>
</g>
</g>
<!-- Node5&#45;&gt;Node20 -->
<g id="edge27_Node000005_Node000020" class="edge">
<title>Node5&#45;&gt;Node20</title>
<g id="a_edge27_Node000005_Node000020"><a xlink:title=" ">
<path fill="none" stroke="#63b8ff" d="M256.95,-296.27C279.75,-299.17 304.83,-302.36 323.89,-304.79"/>
<polygon fill="#63b8ff" stroke="#63b8ff" points="323.32,-308.24 333.68,-306.03 324.2,-301.3 323.32,-308.24"/>
</a>
</g>
</g>
<!-- Node6&#45;&gt;Node2 -->
<g id="edge6_Node000006_Node000002" class="edge">
<title>Node6&#45;&gt;Node2</title>
<g id="a_edge6_Node000006_Node000002"><a xlink:title=" ">
<path fill="none" stroke="#63b8ff" d="M400.43,-475.5C421.67,-480.74 447.1,-487.02 468.17,-492.23"/>
<polygon fill="#63b8ff" stroke="#63b8ff" points="467.05,-495.55 477.59,-494.55 468.72,-488.76 467.05,-495.55"/>
</a>
</g>
</g>
<!-- Node7&#45;&gt;Node8 -->
<g id="edge8_Node000007_Node000008" class="edge">
<title>Node7&#45;&gt;Node8</title>
<g id="a_edge8_Node000007_Node000008"><a xlink:title=" ">
<path fill="none" stroke="#63b8ff" d="M410.57,-29.07C429.91,-26.68 451.39,-24.02 469.48,-21.79"/>
<polygon fill="#63b8ff" stroke="#63b8ff" points="469.82,-25.28 479.32,-20.58 468.96,-18.33 469.82,-25.28"/>
</a>
</g>
</g>
<!-- Node10 -->
<g id="Node000010" class="node">
<title>Node10</title>
<g id="a_Node000010"><a xlink:href="kest__expression_8c.html#a051396bd8167d3977b2d64f8d6771917" target="_top" xlink:title=" ">
<polygon fill="white" stroke="#666666" points="571.75,-182.09 451.5,-182.09 451.5,-161.34 571.75,-161.34 571.75,-182.09"/>
<text xml:space="preserve" text-anchor="middle" x="511.62" y="-168.59" font-family="Helvetica,sans-Serif" font-size="10.00">kest_expr_init_binary</text>
</a>
</g>
</g>
<!-- Node9&#45;&gt;Node10 -->
<g id="edge10_Node000009_Node000010" class="edge">
<title>Node9&#45;&gt;Node10</title>
<g id="a_edge10_Node000009_Node000010"><a xlink:title=" ">
<path fill="none" stroke="#63b8ff" d="M406.71,-185.22C417.37,-183.83 428.82,-182.34 440.09,-180.88"/>
<polygon fill="#63b8ff" stroke="#63b8ff" points="440.3,-184.38 449.76,-179.62 439.4,-177.44 440.3,-184.38"/>
</a>
</g>
</g>
<!-- Node12 -->
<g id="Node000012" class="node">
<title>Node12</title>
<g id="a_Node000012"><a xlink:href="kest__expression_8c.html#a4aa19268ad6cc515bf3d050410706bca" target="_top" xlink:title=" ">
<polygon fill="white" stroke="#666666" points="570.25,-397.09 453,-397.09 453,-376.34 570.25,-376.34 570.25,-397.09"/>
<text xml:space="preserve" text-anchor="middle" x="511.62" y="-383.59" font-family="Helvetica,sans-Serif" font-size="10.00">kest_expr_init_unary</text>
</a>
</g>
</g>
<!-- Node11&#45;&gt;Node12 -->
<g id="edge12_Node000011_Node000012" class="edge">
<title>Node11&#45;&gt;Node12</title>
<g id="a_edge12_Node000011_Node000012"><a xlink:title=" ">
<path fill="none" stroke="#63b8ff" d="M399.61,-358.57C417.3,-363.06 437.99,-368.3 456.69,-373.04"/>
<polygon fill="#63b8ff" stroke="#63b8ff" points="455.7,-376.4 466.26,-375.47 457.42,-369.62 455.7,-376.4"/>
</a>
</g>
</g>
<!-- Node13&#45;&gt;Node10 -->
<g id="edge14_Node000013_Node000010" class="edge">
<title>Node13&#45;&gt;Node10</title>
<g id="a_edge14_Node000013_Node000010"><a xlink:title=" ">
<path fill="none" stroke="#63b8ff" d="M408.42,-159.09C418.48,-160.33 429.2,-161.66 439.76,-162.96"/>
<polygon fill="#63b8ff" stroke="#63b8ff" points="439.27,-166.43 449.62,-164.18 440.13,-159.48 439.27,-166.43"/>
</a>
</g>
</g>
<!-- Node14&#45;&gt;Node10 -->
<g id="edge16_Node000014_Node000010" class="edge">
<title>Node14&#45;&gt;Node10</title>
<g id="a_edge16_Node000014_Node000010"><a xlink:title=" ">
<path fill="none" stroke="#63b8ff" d="M389.49,-124.52C397.99,-127.42 407.11,-130.61 415.5,-133.71 434.98,-140.91 456.48,-149.45 474.1,-156.61"/>
<polygon fill="#63b8ff" stroke="#63b8ff" points="472.54,-159.75 483.12,-160.29 475.18,-153.27 472.54,-159.75"/>
</a>
</g>
</g>
<!-- Node15&#45;&gt;Node10 -->
<g id="edge18_Node000015_Node000010" class="edge">
<title>Node15&#45;&gt;Node10</title>
<g id="a_edge18_Node000015_Node000010"><a xlink:title=" ">
<path fill="none" stroke="#63b8ff" d="M394.89,-85.5C401.93,-88.1 409.09,-91.17 415.5,-94.71 444.75,-110.86 473.97,-136.22 492.15,-153.39"/>
<polygon fill="#63b8ff" stroke="#63b8ff" points="489.41,-155.62 499.05,-160.03 494.27,-150.58 489.41,-155.62"/>
</a>
</g>
</g>
<!-- Node16&#45;&gt;Node12 -->
<g id="edge20_Node000016_Node000012" class="edge">
<title>Node16&#45;&gt;Node12</title>
<g id="a_edge20_Node000016_Node000012"><a xlink:title=" ">
<path fill="none" stroke="#63b8ff" d="M399.61,-414.85C417.3,-410.37 437.99,-405.12 456.69,-400.38"/>
<polygon fill="#63b8ff" stroke="#63b8ff" points="457.42,-403.81 466.26,-397.96 455.7,-397.02 457.42,-403.81"/>
</a>
</g>
</g>
<!-- Node17&#45;&gt;Node12 -->
<g id="edge22_Node000017_Node000012" class="edge">
<title>Node17&#45;&gt;Node12</title>
<g id="a_edge22_Node000017_Node000012"><a xlink:title=" ">
<path fill="none" stroke="#63b8ff" d="M407.99,-386.71C418.74,-386.71 430.25,-386.71 441.53,-386.71"/>
<polygon fill="#63b8ff" stroke="#63b8ff" points="441.19,-390.21 451.19,-386.71 441.19,-383.21 441.19,-390.21"/>
</a>
</g>
</g>
<!-- Node18&#45;&gt;Node10 -->
<g id="edge24_Node000018_Node000010" class="edge">
<title>Node18&#45;&gt;Node10</title>
<g id="a_edge24_Node000018_Node000010"><a xlink:title=" ">
<path fill="none" stroke="#63b8ff" d="M395.22,-258.84C402.16,-256.26 409.19,-253.22 415.5,-249.71 444.85,-233.39 474.04,-207.68 492.19,-190.29"/>
<polygon fill="#63b8ff" stroke="#63b8ff" points="494.38,-193.04 499.08,-183.55 489.48,-188.03 494.38,-193.04"/>
</a>
</g>
</g>
<!-- Node19&#45;&gt;Node10 -->
<g id="edge26_Node000019_Node000010" class="edge">
<title>Node19&#45;&gt;Node10</title>
<g id="a_edge26_Node000019_Node000010"><a xlink:title=" ">
<path fill="none" stroke="#63b8ff" d="M389.81,-219.85C398.23,-216.98 407.23,-213.81 415.5,-210.71 435.29,-203.29 457.13,-194.39 474.88,-186.97"/>
<polygon fill="#63b8ff" stroke="#63b8ff" points="476.1,-190.25 483.96,-183.15 473.39,-183.8 476.1,-190.25"/>
</a>
</g>
</g>
<!-- Node21 -->
<g id="Node000021" class="node">
<title>Node21</title>
<g id="a_Node000021"><a xlink:href="kest__desktop_8c.html#ab499a4f71ef4cfc807b60d8739750c3e" target="_top" xlink:title=" ">
<polygon fill="#fff0f0" stroke="red" points="545.12,-319.09 478.12,-319.09 478.12,-298.34 545.12,-298.34 545.12,-319.09"/>
<text xml:space="preserve" text-anchor="middle" x="511.62" y="-305.59" font-family="Helvetica,sans-Serif" font-size="10.00">main_task</text>
</a>
</g>
</g>
<!-- Node20&#45;&gt;Node21 -->
<g id="edge28_Node000020_Node000021" class="edge">
<title>Node20&#45;&gt;Node21</title>
<g id="a_edge28_Node000020_Node000021"><a xlink:title=" ">
<path fill="none" stroke="#63b8ff" d="M376.55,-308.71C399.12,-308.71 436.73,-308.71 466.38,-308.71"/>
<polygon fill="#63b8ff" stroke="#63b8ff" points="466.2,-312.21 476.2,-308.71 466.2,-305.21 466.2,-312.21"/>
</a>
</g>
</g>
<!-- Node694&#45;&gt;Node6 -->
<g id="edge30_Node000694_Node000006" class="edge">
<title>Node694&#45;&gt;Node6</title>
<g id="a_edge30_Node000694_Node000006"><a xlink:title=" ">
<path fill="none" stroke="#63b8ff" d="M246.32,-344.47C251.31,-346.94 256.01,-349.98 260,-353.71 291.77,-383.42 264.51,-414.71 296,-444.71 297.22,-445.87 298.51,-446.97 299.85,-448"/>
<polygon fill="#63b8ff" stroke="#63b8ff" points="297.79,-450.84 308.14,-453.12 301.48,-444.88 297.79,-450.84"/>
</a>
</g>
</g>
<!-- Node90&#45;&gt;Node2 -->
<g id="edge35_Node000090_Node000002" class="edge">
<title>Node90&#45;&gt;Node2</title>
<g id="a_edge35_Node000090_Node000002"><a xlink:title=" ">
<path fill="none" stroke="#63b8ff" d="M236.06,-378.57C244.74,-381.38 253.34,-385.55 260,-391.71 292.23,-421.53 260.86,-457.38 296,-483.71 345.54,-520.83 420.71,-517.9 467.68,-511.19"/>
<polygon fill="#63b8ff" stroke="#63b8ff" points="468.14,-514.66 477.48,-509.65 467.06,-507.74 468.14,-514.66"/>
</a>
</g>
</g>
</g>
</svg>

<g id="navigator" transform="translate(0 0)" fill="#404254">
  <rect fill="#f2f5e9" fill-opacity="0.5" stroke="#606060" stroke-width=".5" x="0" y="0" width="60" height="60"/>
  <use id="zoomplus" xlink:href="#zoomPlus" x="17" y="9" onmousedown="handleZoom(evt,'in')"/>
  <use id="zoomminus" xlink:href="#zoomMin" x="42" y="9" onmousedown="handleZoom(evt,'out')"/>
  <use id="reset" xlink:href="#resetDef" x="30" y="36" onmousedown="handleReset()"/>
   <use id="arrowup" xlink:href="#arrowUp" x="0" y="0" onmousedown="handlePan(0,-1)"/>
  <use id="arrowright" xlink:href="#arrowRight" x="0" y="0" onmousedown="handlePan(1,0)"/>
  <use id="arrowdown" xlink:href="#arrowDown" x="0" y="0" onmousedown="handlePan(0,1)"/>
  <use id="arrowleft" xlink:href="#arrowLeft" x="0" y="0" onmousedown="handlePan(-1,0)"/>
</g>
<svg viewBox="0 0 15 15" width="100%" height="30px" preserveAspectRatio="xMaxYMin meet">
 <g id="arrow_out" transform="scale(0.3 0.3)">
  <a xlink:href="kest__dict__extract_8c_a72ff92ad706eefd49fc53bb0b0b76fca_cgraph_org.svg" target="_base">
   <rect id="button" ry="5" rx="5" y="6" x="6" height="38" width="38"
        fill="#f2f5e9" fill-opacity="0.5" stroke="#606060" stroke-width="1.0"/>
   <path id="arrow"
     d="M 11.500037,31.436501 C 11.940474,20.09759 22.043105,11.32322 32.158766,21.979434 L 37.068811,17.246167 C 37.068811,17.246167 37.088388,32 37.088388,32 L 22.160133,31.978069 C 22.160133,31.978069 26.997745,27.140456 26.997745,27.140456 C 18.528582,18.264221 13.291696,25.230495 11.500037,31.436501 z"
     style="fill:#404040;"/>
  </a>
 </g>
</svg>

<style type='text/css'>
<![CDATA[
[data-mouse-over-selected='false'] { opacity: 0.7; }
[data-mouse-over-selected='true']  { opacity: 1.0; }
]]>
</style>
<script type="application/ecmascript"><![CDATA[
document.addEventListener('DOMContentLoaded', (event) => {
  highlightEdges();
  highlightAdjacentNodes();
});
]]></script>
</svg>
