<?xml version="1.0" encoding="UTF-8" standalone="no"?>
<!DOCTYPE svg PUBLIC "-//W3C//DTD SVG 1.1//EN"
 "http://www.w3.org/Graphics/SVG/1.1/DTD/svg11.dtd">
<!-- Generated by graphviz version 13.1.2 (20250808.2320)
 -->
<!-- Title: kest_dictionary_bucket_lookup_entry Pages: 1 -->
<svg width="644pt" height="68pt"
 viewBox="0.00 0.00 644.00 68.00" xmlns="http://www.w3.org/2000/svg" xmlns:xlink="http://www.w3.org/1999/xlink">
<g id="graph0" class="graph" transform="scale(1 1) rotate(0) translate(4 63.75)">
<title>kest_dictionary_bucket_lookup_entry</title>
<!-- Node1 -->
<g id="Node000001" class="node">
<title>Node1</title>
<g id="a_Node000001"><a xlink:title=" ">
<polygon fill="#999999" stroke="#666666" points="636.25,-46.12 508.5,-46.12 508.5,-12.62 636.25,-12.62 636.25,-46.12"/>
<text xml:space="preserve" text-anchor="start" x="516.5" y="-32.62" font-family="Helvetica,sans-Serif" font-size="10.00">kest_dictionary_bucket</text>
<text xml:space="preserve" text-anchor="middle" x="572.38" y="-19.88" font-family="Helvetica,sans-Serif" font-size="10.00">_lookup_entry</text>
</a>
</g>
</g>
<!-- Node2 -->
<g id="Node000002" class="node">
<title>Node2</title>
<g id="a_Node000002"><a xlink:href="kest__dictionary_8c.html#a2f56ef592103d8646e8f1787338bc2c6" target="_top" xlink:title=" ">
<polygon fill="white" stroke="#666666" points="472.5,-46.12 344,-46.12 344,-12.62 472.5,-12.62 472.5,-46.12"/>
<text xml:space="preserve" text-anchor="start" x="352" y="-32.62" font-family="Helvetica,sans-Serif" font-size="10.00">kest_dictionary_lookup</text>
<text xml:space="preserve" text-anchor="middle" x="408.25" y="-19.88" font-family="Helvetica,sans-Serif" font-size="10.00">_entry</text>
</a>
</g>
</g>
<!-- Node1&#45;&gt;Node2 -->
<g id="edge1_Node000001_Node000002" class="edge">
<title>Node1&#45;&gt;Node2</title>
<g id="a_edge1_Node000001_Node000002"><a xlink:title=" ">
<path fill="none" stroke="#63b8ff" d="M496.91,-29.38C488.84,-29.38 480.68,-29.38 472.76,-29.38"/>
<polygon fill="#63b8ff" stroke="#63b8ff" points="496.72,-32.88 506.72,-29.38 496.72,-25.88 496.72,-32.88"/>
</a>
</g>
</g>
<!-- Node3 -->
<g id="Node000003" class="node">
<title>Node3</title>
<g id="a_Node000003"><a xlink:href="kest__dict__extract_8c.html#acbfde8ff56b8c5bed262375de5a2fc76" target="_top" xlink:title=" ">
<polygon fill="white" stroke="#666666" points="308,-59.75 159.25,-59.75 159.25,-39 308,-39 308,-59.75"/>
<text xml:space="preserve" text-anchor="middle" x="233.62" y="-46.25" font-family="Helvetica,sans-Serif" font-size="10.00">kest_extract_hpf_from_dict</text>
</a>
</g>
</g>
<!-- Node2&#45;&gt;Node3 -->
<g id="edge2_Node000002_Node000003" class="edge">
<title>Node2&#45;&gt;Node3</title>
<g id="a_edge2_Node000002_Node000003"><a xlink:title=" ">
<path fill="none" stroke="#63b8ff" d="M332.7,-38.01C324.66,-38.94 316.48,-39.89 308.44,-40.82"/>
<polygon fill="#63b8ff" stroke="#63b8ff" points="332.92,-41.51 342.45,-36.88 332.11,-34.56 332.92,-41.51"/>
</a>
</g>
</g>
<!-- Node14 -->
<g id="Node000014" class="node">
<title>Node14</title>
<g id="a_Node000014"><a xlink:href="kest__dict__extract_8c.html#ab3a10359fda7bd744b54f0c72f1f497d" target="_top" xlink:title=" ">
<polygon fill="white" stroke="#666666" points="306.5,-20.75 160.75,-20.75 160.75,0 306.5,0 306.5,-20.75"/>
<text xml:space="preserve" text-anchor="middle" x="233.62" y="-7.25" font-family="Helvetica,sans-Serif" font-size="10.00">kest_extract_lpf_from_dict</text>
</a>
</g>
</g>
<!-- Node2&#45;&gt;Node14 -->
<g id="edge4_Node000002_Node000014" class="edge">
<title>Node2&#45;&gt;Node14</title>
<g id="a_edge4_Node000002_Node000014"><a xlink:title=" ">
<path fill="none" stroke="#63b8ff" d="M332.52,-21.15C324.04,-20.22 315.41,-19.27 306.97,-18.34"/>
<polygon fill="#63b8ff" stroke="#63b8ff" points="332.12,-24.63 342.45,-22.24 332.89,-17.67 332.12,-24.63"/>
</a>
</g>
</g>
<!-- Node4 -->
<g id="Node000004" class="node">
<title>Node4</title>
<g id="a_Node000004"><a xlink:href="kest__dict__extract_8c.html#ad78dabb9f962180138c9dfc2bf1731e3" target="_top" xlink:title=" ">
<polygon fill="#fff0f0" stroke="red" points="123.25,-46.12 0,-46.12 0,-12.62 123.25,-12.62 123.25,-46.12"/>
<text xml:space="preserve" text-anchor="start" x="8" y="-32.62" font-family="Helvetica,sans-Serif" font-size="10.00">kest_extract_resource</text>
<text xml:space="preserve" text-anchor="middle" x="61.62" y="-19.88" font-family="Helvetica,sans-Serif" font-size="10.00">_from_dict</text>
</a>
</g>
</g>
<!-- Node3&#45;&gt;Node4 -->
<g id="edge3_Node000003_Node000004" class="edge">
<title>Node3&#45;&gt;Node4</title>
<g id="a_edge3_Node000003_Node000004"><a xlink:title=" ">
<path fill="none" stroke="#63b8ff" d="M147.88,-39.41C139.68,-38.44 131.46,-37.47 123.55,-36.54"/>
<polygon fill="#63b8ff" stroke="#63b8ff" points="147.21,-42.85 157.55,-40.54 148.02,-35.9 147.21,-42.85"/>
</a>
</g>
</g>
<!-- Node14&#45;&gt;Node4 -->
<g id="edge5_Node000014_Node000004" class="edge">
<title>Node14&#45;&gt;Node4</title>
<g id="a_edge5_Node000014_Node000004"><a xlink:title=" ">
<path fill="none" stroke="#63b8ff" d="M149.21,-19.7C140.56,-20.66 131.89,-21.63 123.56,-22.56"/>
<polygon fill="#63b8ff" stroke="#63b8ff" points="149.48,-23.19 159.03,-18.6 148.7,-16.23 149.48,-23.19"/>
</a>
</g>
</g>
</g>
</svg>
