<?xml version="1.0" encoding="UTF-8" standalone="no"?>
<!DOCTYPE svg PUBLIC "-//W3C//DTD SVG 1.1//EN"
 "http://www.w3.org/Graphics/SVG/1.1/DTD/svg11.dtd">
<!-- Generated by graphviz version 13.1.2 (20250808.2320)
 -->
<!-- Title: cxt_remove_preset Pages: 1 -->
<svg width="482pt" height="87pt"
 viewBox="0.00 0.00 482.00 87.00" xmlns="http://www.w3.org/2000/svg" xmlns:xlink="http://www.w3.org/1999/xlink">

<svg id="main" version="1.1" xmlns="http://www.w3.org/2000/svg" xmlns:xlink="http://www.w3.org/1999/xlink" xml:space="preserve">

<style type="text/css"><![CDATA[
.node, .edge {opacity: 0.7;}
.node.selected, .edge.selected {opacity: 1;}
.edge:hover path { stroke: red; }
.edge:hover polygon { stroke: red; fill: red; }
]]></style>
<script type="application/ecmascript" xlink:href="svg.min.js"/>
<svg id="graph" class="graph">
<g id="graph0" class="graph" transform="scale(1 1) rotate(0) translate(4 82.75)">
<title>cxt_remove_preset</title>
<!-- Node1 -->
<g id="Node000001" class="node">
<title>Node1</title>
<g id="a_Node000001"><a xlink:title=" ">
<polygon fill="#999999" stroke="#666666" points="109.75,-20.75 0,-20.75 0,0 109.75,0 109.75,-20.75"/>
<text xml:space="preserve" text-anchor="middle" x="54.88" y="-7.25" font-family="Helvetica,sans-Serif" font-size="10.00">cxt_remove_preset</text>
</a>
</g>
</g>
<!-- Node2 -->
<g id="Node000002" class="node">
<title>Node2</title>
<g id="a_Node000002"><a xlink:href="kest__preset_8c.html#a4d502f8b682425208e39082cbac4a4a1" target="_top" xlink:title=" ">
<polygon fill="white" stroke="#666666" points="217.25,-39.75 145.75,-39.75 145.75,-19 217.25,-19 217.25,-39.75"/>
<text xml:space="preserve" text-anchor="middle" x="181.5" y="-26.25" font-family="Helvetica,sans-Serif" font-size="10.00">free_preset</text>
</a>
</g>
</g>
<!-- Node1&#45;&gt;Node2 -->
<g id="edge1_Node000001_Node000002" class="edge">
<title>Node1&#45;&gt;Node2</title>
<g id="a_edge1_Node000001_Node000002"><a xlink:title=" ">
<path fill="none" stroke="#63b8ff" d="M110.17,-18.65C118.2,-19.88 126.4,-21.13 134.23,-22.32"/>
<polygon fill="#63b8ff" stroke="#63b8ff" points="133.48,-25.75 143.9,-23.79 134.54,-18.83 133.48,-25.75"/>
</a>
</g>
</g>
<!-- Node8 -->
<g id="Node000008" class="node">
<title>Node8</title>
<g id="a_Node000008"><a xlink:href="kest__alloc_8c.html#a294af5728a94aa316fcf65304d388d48" target="_top" xlink:title=" ">
<polygon fill="white" stroke="#666666" points="466.75,-39.75 405.75,-39.75 405.75,-19 466.75,-19 466.75,-39.75"/>
<text xml:space="preserve" text-anchor="middle" x="436.25" y="-26.25" font-family="Helvetica,sans-Serif" font-size="10.00">kest_free</text>
</a>
</g>
</g>
<!-- Node1&#45;&gt;Node8 -->
<g id="edge7_Node000001_Node000008" class="edge">
<title>Node1&#45;&gt;Node8</title>
<g id="a_edge7_Node000001_Node000008"><a xlink:title=" ">
<path fill="none" stroke="#63b8ff" d="M110.1,-6.24C171.54,-2.5 274.54,0.85 362.25,-10.38 372.84,-11.73 384.09,-14.15 394.5,-16.82"/>
<polygon fill="#63b8ff" stroke="#63b8ff" points="393.37,-20.14 403.94,-19.37 395.2,-13.38 393.37,-20.14"/>
</a>
</g>
</g>
<!-- Node3 -->
<g id="Node000003" class="node">
<title>Node3</title>
<g id="a_Node000003"><a xlink:href="kest__preset_8c.html#a5f4b58a8868ab9b0bc2340f1bb089ffb" target="_top" xlink:title=" ">
<polygon fill="white" stroke="#666666" points="341.62,-78.75 273.88,-78.75 273.88,-58 341.62,-58 341.62,-78.75"/>
<text xml:space="preserve" text-anchor="middle" x="307.75" y="-65.25" font-family="Helvetica,sans-Serif" font-size="10.00">gut_preset</text>
</a>
</g>
</g>
<!-- Node2&#45;&gt;Node3 -->
<g id="edge2_Node000002_Node000003" class="edge">
<title>Node2&#45;&gt;Node3</title>
<g id="a_edge2_Node000002_Node000003"><a xlink:title=" ">
<path fill="none" stroke="#63b8ff" d="M217.11,-40.24C231.32,-44.7 247.95,-49.92 262.99,-54.64"/>
<polygon fill="#63b8ff" stroke="#63b8ff" points="261.58,-57.86 272.16,-57.52 263.67,-51.19 261.58,-57.86"/>
</a>
</g>
</g>
<!-- Node9 -->
<g id="Node000009" class="node">
<title>Node9</title>
<g id="a_Node000009"><a xlink:href="kest__alloc_8c.html#ac70a0464d391cefa33eb0f6d746ff7aa" target="_top" xlink:title=" ">
<polygon fill="white" stroke="#666666" points="362.25,-39.75 253.25,-39.75 253.25,-19 362.25,-19 362.25,-39.75"/>
<text xml:space="preserve" text-anchor="middle" x="307.75" y="-26.25" font-family="Helvetica,sans-Serif" font-size="10.00">kest_allocator_free</text>
</a>
</g>
</g>
<!-- Node2&#45;&gt;Node9 -->
<g id="edge5_Node000002_Node000009" class="edge">
<title>Node2&#45;&gt;Node9</title>
<g id="a_edge5_Node000002_Node000009"><a xlink:title=" ">
<path fill="none" stroke="#63b8ff" d="M217.44,-29.38C225.04,-29.38 233.32,-29.38 241.66,-29.38"/>
<polygon fill="#63b8ff" stroke="#63b8ff" points="241.52,-32.88 251.52,-29.38 241.52,-25.88 241.52,-32.88"/>
</a>
</g>
</g>
<!-- Node4 -->
<g id="Node000004" class="node">
<title>Node4</title>
<g id="a_Node000004"><a xlink:href="kest__pipeline_8c.html#a840a0f31f2703ff6040d47245cc56c7a" target="_top" xlink:title=" ">
<polygon fill="#fff0f0" stroke="red" points="474.25,-78.75 398.25,-78.75 398.25,-58 474.25,-58 474.25,-78.75"/>
<text xml:space="preserve" text-anchor="middle" x="436.25" y="-65.25" font-family="Helvetica,sans-Serif" font-size="10.00">gut_pipeline</text>
</a>
</g>
</g>
<!-- Node3&#45;&gt;Node4 -->
<g id="edge3_Node000003_Node000004" class="edge">
<title>Node3&#45;&gt;Node4</title>
<g id="a_edge3_Node000003_Node000004"><a xlink:title=" ">
<path fill="none" stroke="#63b8ff" d="M341.99,-68.38C355.64,-68.38 371.71,-68.38 386.64,-68.38"/>
<polygon fill="#63b8ff" stroke="#63b8ff" points="386.26,-71.88 396.26,-68.38 386.26,-64.88 386.26,-71.88"/>
</a>
</g>
</g>
<!-- Node3&#45;&gt;Node8 -->
<g id="edge4_Node000003_Node000008" class="edge">
<title>Node3&#45;&gt;Node8</title>
<g id="a_edge4_Node000003_Node000008"><a xlink:title=" ">
<path fill="none" stroke="#63b8ff" d="M341.99,-58.13C358.08,-53.17 377.55,-47.16 394.52,-41.93"/>
<polygon fill="#63b8ff" stroke="#63b8ff" points="395.29,-45.36 403.81,-39.07 393.23,-38.67 395.29,-45.36"/>
</a>
</g>
</g>
<!-- Node9&#45;&gt;Node8 -->
<g id="edge6_Node000009_Node000008" class="edge">
<title>Node9&#45;&gt;Node8</title>
<g id="a_edge6_Node000009_Node000008"><a xlink:title=" ">
<path fill="none" stroke="#63b8ff" d="M362.4,-29.38C372.95,-29.38 383.86,-29.38 393.93,-29.38"/>
<polygon fill="#63b8ff" stroke="#63b8ff" points="393.78,-32.88 403.78,-29.38 393.78,-25.88 393.78,-32.88"/>
</a>
</g>
</g>
</g>
</svg>
</svg>

<style type='text/css'>
<![CDATA[
[data-mouse-over-selected='false'] { opacity: 0.7; }
[data-mouse-over-selected='true']  { opacity: 1.0; }
]]>
</style>
<script type="application/ecmascript"><![CDATA[
document.addEventListener('DOMContentLoaded', (event) => {
  highlightEdges();
  highlightAdjacentNodes();
});
]]></script>
</svg>
