<?xml version="1.0" encoding="UTF-8" standalone="no"?>
<!DOCTYPE svg PUBLIC "-//W3C//DTD SVG 1.1//EN"
 "http://www.w3.org/Graphics/SVG/1.1/DTD/svg11.dtd">
<!-- Generated by graphviz version 13.1.2 (20250808.2320)
 -->
<!-- Title: preset_view_enter_settings_page_cb Pages: 1 -->
<svg width="642pt" height="42pt"
 viewBox="0.00 0.00 642.00 42.00" xmlns="http://www.w3.org/2000/svg" xmlns:xlink="http://www.w3.org/1999/xlink">
<g id="graph0" class="graph" transform="scale(1 1) rotate(0) translate(4 37.5)">
<title>preset_view_enter_settings_page_cb</title>
<!-- Node1 -->
<g id="Node000001" class="node">
<title>Node1</title>
<g id="a_Node000001"><a xlink:title=" ">
<polygon fill="#999999" stroke="#666666" points="150.25,-33.5 0,-33.5 0,0 150.25,0 150.25,-33.5"/>
<text xml:space="preserve" text-anchor="start" x="8" y="-20" font-family="Helvetica,sans-Serif" font-size="10.00">preset_view_enter_settings</text>
<text xml:space="preserve" text-anchor="middle" x="75.12" y="-7.25" font-family="Helvetica,sans-Serif" font-size="10.00">_page_cb</text>
</a>
</g>
</g>
<!-- Node2 -->
<g id="Node000002" class="node">
<title>Node2</title>
<g id="a_Node000002"><a xlink:href="kest__ui_8c.html#a2063cd4687cffa16c46c43deaa27642f" target="_top" xlink:title=" ">
<polygon fill="white" stroke="#666666" points="319.25,-27.12 186.25,-27.12 186.25,-6.38 319.25,-6.38 319.25,-27.12"/>
<text xml:space="preserve" text-anchor="middle" x="252.75" y="-13.62" font-family="Helvetica,sans-Serif" font-size="10.00">enter_ui_page_forwards</text>
</a>
</g>
</g>
<!-- Node1&#45;&gt;Node2 -->
<g id="edge1_Node000001_Node000002" class="edge">
<title>Node1&#45;&gt;Node2</title>
<g id="a_edge1_Node000001_Node000002"><a xlink:title=" ">
<path fill="none" stroke="#63b8ff" d="M150.61,-16.75C158.46,-16.75 166.45,-16.75 174.34,-16.75"/>
<polygon fill="#63b8ff" stroke="#63b8ff" points="174.26,-20.25 184.26,-16.75 174.26,-13.25 174.26,-20.25"/>
</a>
</g>
</g>
<!-- Node3 -->
<g id="Node000003" class="node">
<title>Node3</title>
<g id="a_Node000003"><a xlink:href="kest__context_8c.html#a6292c7a2d7f0502ea5a59bbe9b552791" target="_top" xlink:title=" ">
<polygon fill="white" stroke="#666666" points="475.5,-33.5 355.25,-33.5 355.25,0 475.5,0 475.5,-33.5"/>
<text xml:space="preserve" text-anchor="start" x="363.25" y="-20" font-family="Helvetica,sans-Serif" font-size="10.00">kest_cxt_queue_save</text>
<text xml:space="preserve" text-anchor="middle" x="415.38" y="-7.25" font-family="Helvetica,sans-Serif" font-size="10.00">_state</text>
</a>
</g>
</g>
<!-- Node2&#45;&gt;Node3 -->
<g id="edge2_Node000002_Node000003" class="edge">
<title>Node2&#45;&gt;Node3</title>
<g id="a_edge2_Node000002_Node000003"><a xlink:title=" ">
<path fill="none" stroke="#63b8ff" d="M319.55,-16.75C327.4,-16.75 335.45,-16.75 343.38,-16.75"/>
<polygon fill="#63b8ff" stroke="#63b8ff" points="343.36,-20.25 353.36,-16.75 343.36,-13.25 343.36,-20.25"/>
</a>
</g>
</g>
<!-- Node4 -->
<g id="Node000004" class="node">
<title>Node4</title>
<g id="a_Node000004"><a xlink:href="kest__representation_8c.html#a7a4a0f32b72f47d90e3d0f5932fbe58f" target="_top" xlink:title=" ">
<polygon fill="white" stroke="#666666" points="634,-33.5 511.5,-33.5 511.5,0 634,0 634,-33.5"/>
<text xml:space="preserve" text-anchor="start" x="519.5" y="-20" font-family="Helvetica,sans-Serif" font-size="10.00">queue_representation</text>
<text xml:space="preserve" text-anchor="middle" x="572.75" y="-7.25" font-family="Helvetica,sans-Serif" font-size="10.00">_list_update</text>
</a>
</g>
</g>
<!-- Node3&#45;&gt;Node4 -->
<g id="edge3_Node000003_Node000004" class="edge">
<title>Node3&#45;&gt;Node4</title>
<g id="a_edge3_Node000003_Node000004"><a xlink:title=" ">
<path fill="none" stroke="#63b8ff" d="M475.56,-16.75C483.49,-16.75 491.69,-16.75 499.8,-16.75"/>
<polygon fill="#63b8ff" stroke="#63b8ff" points="499.67,-20.25 509.67,-16.75 499.67,-13.25 499.67,-20.25"/>
</a>
</g>
</g>
</g>
</svg>
