<?xml version="1.0" encoding="UTF-8" standalone="no"?>
<!DOCTYPE svg PUBLIC "-//W3C//DTD SVG 1.1//EN"
 "http://www.w3.org/Graphics/SVG/1.1/DTD/svg11.dtd">
<!-- Generated by graphviz version 13.1.2 (20250808.2320)
 -->
<!-- Title: kest_expression_print Pages: 1 -->
<svg width="485pt" height="223pt"
 viewBox="0.00 0.00 485.00 223.00" xmlns="http://www.w3.org/2000/svg" xmlns:xlink="http://www.w3.org/1999/xlink">

<svg id="main" version="1.1" xmlns="http://www.w3.org/2000/svg" xmlns:xlink="http://www.w3.org/1999/xlink" xml:space="preserve">

<style type="text/css"><![CDATA[
.node, .edge {opacity: 0.7;}
.node.selected, .edge.selected {opacity: 1;}
.edge:hover path { stroke: red; }
.edge:hover polygon { stroke: red; fill: red; }
]]></style>
<script type="application/ecmascript" xlink:href="svg.min.js"/>
<svg id="graph" class="graph">
<g id="graph0" class="graph" transform="scale(1 1) rotate(0) translate(4 218.75)">
<title>kest_expression_print</title>
<!-- Node1 -->
<g id="Node000001" class="node">
<title>Node1</title>
<g id="a_Node000001"><a xlink:title=" ">
<polygon fill="#999999" stroke="#666666" points="122.5,-91.75 0,-91.75 0,-71 122.5,-71 122.5,-91.75"/>
<text xml:space="preserve" text-anchor="middle" x="61.25" y="-78.25" font-family="Helvetica,sans-Serif" font-size="10.00">kest_expression_print</text>
</a>
</g>
</g>
<!-- Node2 -->
<g id="Node000002" class="node">
<title>Node2</title>
<g id="a_Node000002"><a xlink:href="kest__expression_8c.html#a767b50b7ddfa94dc61810dfdcc8feaf0" target="_top" xlink:title=" ">
<polygon fill="white" stroke="#666666" points="301.25,-91.75 158.5,-91.75 158.5,-71 301.25,-71 301.25,-91.75"/>
<text xml:space="preserve" text-anchor="middle" x="229.88" y="-78.25" font-family="Helvetica,sans-Serif" font-size="10.00">kest_expression_print_rec</text>
</a>
</g>
</g>
<!-- Node1&#45;&gt;Node2 -->
<g id="edge1_Node000001_Node000002" class="edge">
<title>Node1&#45;&gt;Node2</title>
<g id="a_edge1_Node000001_Node000002"><a xlink:title=" ">
<path fill="none" stroke="#63b8ff" d="M122.88,-81.38C130.66,-81.38 138.72,-81.38 146.77,-81.38"/>
<polygon fill="#63b8ff" stroke="#63b8ff" points="146.6,-84.88 156.6,-81.38 146.6,-77.88 146.6,-84.88"/>
</a>
</g>
</g>
<!-- Node2&#45;&gt;Node2 -->
<g id="edge5_Node000002_Node000002" class="edge">
<title>Node2&#45;&gt;Node2</title>
<g id="a_edge5_Node000002_Node000002"><a xlink:title=" ">
<path fill="none" stroke="#63b8ff" d="M202.7,-92.15C191.84,-100.81 200.89,-109.75 229.88,-109.75 245.72,-109.75 255.62,-107.08 259.55,-103.24"/>
<polygon fill="#63b8ff" stroke="#63b8ff" points="262.99,-102.61 257.38,-93.62 256.16,-104.15 262.99,-102.61"/>
</a>
</g>
</g>
<!-- Node3 -->
<g id="Node000003" class="node">
<title>Node3</title>
<g id="a_Node000003"><a xlink:href="kest__expression_8c.html#a2f21e4932bce8c87ec0bfc508588b761" target="_top" xlink:title=" ">
<polygon fill="white" stroke="#666666" points="468.75,-214.75 345.5,-214.75 345.5,-194 468.75,-194 468.75,-214.75"/>
<text xml:space="preserve" text-anchor="middle" x="407.12" y="-201.25" font-family="Helvetica,sans-Serif" font-size="10.00">kest_expression_form</text>
</a>
</g>
</g>
<!-- Node2&#45;&gt;Node3 -->
<g id="edge2_Node000002_Node000003" class="edge">
<title>Node2&#45;&gt;Node3</title>
<g id="a_edge2_Node000002_Node000003"><a xlink:title=" ">
<path fill="none" stroke="#63b8ff" d="M238.68,-92C254.72,-113.07 293.58,-160.28 337.25,-185.38 339.7,-186.78 342.25,-188.09 344.88,-189.3"/>
<polygon fill="#63b8ff" stroke="#63b8ff" points="343.29,-192.43 353.87,-192.96 345.93,-185.95 343.29,-192.43"/>
</a>
</g>
</g>
<!-- Node4 -->
<g id="Node000004" class="node">
<title>Node4</title>
<g id="a_Node000004"><a xlink:href="kest__expression_8c.html#a81b490a2837a170e18e8cdae730d0d9b" target="_top" xlink:title=" ">
<polygon fill="white" stroke="#666666" points="477,-176.12 337.25,-176.12 337.25,-142.62 477,-142.62 477,-176.12"/>
<text xml:space="preserve" text-anchor="start" x="345.25" y="-162.62" font-family="Helvetica,sans-Serif" font-size="10.00">kest_expression_function</text>
<text xml:space="preserve" text-anchor="middle" x="407.12" y="-149.88" font-family="Helvetica,sans-Serif" font-size="10.00">_string</text>
</a>
</g>
</g>
<!-- Node2&#45;&gt;Node4 -->
<g id="edge3_Node000002_Node000004" class="edge">
<title>Node2&#45;&gt;Node4</title>
<g id="a_edge3_Node000002_Node000004"><a xlink:title=" ">
<path fill="none" stroke="#63b8ff" d="M251.4,-92.12C272.63,-103.07 306.87,-120.25 337.25,-133.38 340.82,-134.92 344.51,-136.46 348.25,-137.98"/>
<polygon fill="#63b8ff" stroke="#63b8ff" points="346.85,-141.19 357.43,-141.63 349.43,-134.68 346.85,-141.19"/>
</a>
</g>
</g>
<!-- Node5 -->
<g id="Node000005" class="node">
<title>Node5</title>
<g id="a_Node000005"><a xlink:href="kest__expression_8c.html#a1a3a0bc9ed6726fb24e6a40803741b43" target="_top" xlink:title=" ">
<polygon fill="white" stroke="#666666" points="468,-124.12 346.25,-124.12 346.25,-90.62 468,-90.62 468,-124.12"/>
<text xml:space="preserve" text-anchor="start" x="354.25" y="-110.62" font-family="Helvetica,sans-Serif" font-size="10.00">kest_expression_infix</text>
<text xml:space="preserve" text-anchor="middle" x="407.12" y="-97.88" font-family="Helvetica,sans-Serif" font-size="10.00">_operator_string</text>
</a>
</g>
</g>
<!-- Node2&#45;&gt;Node5 -->
<g id="edge4_Node000002_Node000005" class="edge">
<title>Node2&#45;&gt;Node5</title>
<g id="a_edge4_Node000002_Node000005"><a xlink:title=" ">
<path fill="none" stroke="#63b8ff" d="M301.65,-91.88C312.51,-93.49 323.73,-95.15 334.6,-96.76"/>
<polygon fill="#63b8ff" stroke="#63b8ff" points="333.87,-100.19 344.28,-98.2 334.9,-93.27 333.87,-100.19"/>
</a>
</g>
</g>
<!-- Node6 -->
<g id="Node000006" class="node">
<title>Node6</title>
<g id="a_Node000006"><a xlink:href="kest__expression_8c.html#aadf2a6a074cb1ad7b45893704cbd71c3" target="_top" xlink:title=" ">
<polygon fill="white" stroke="#666666" points="462,-72.12 352.25,-72.12 352.25,-38.62 462,-38.62 462,-72.12"/>
<text xml:space="preserve" text-anchor="start" x="360.25" y="-58.62" font-family="Helvetica,sans-Serif" font-size="10.00">kest_expression_to</text>
<text xml:space="preserve" text-anchor="middle" x="407.12" y="-45.88" font-family="Helvetica,sans-Serif" font-size="10.00">_string</text>
</a>
</g>
</g>
<!-- Node2&#45;&gt;Node6 -->
<g id="edge6_Node000002_Node000006" class="edge">
<title>Node2&#45;&gt;Node6</title>
<g id="a_edge6_Node000002_Node000006"><a xlink:title=" ">
<path fill="none" stroke="#63b8ff" d="M266.34,-70.56C287.68,-66.27 315.5,-61.81 340.7,-58.53"/>
<polygon fill="#63b8ff" stroke="#63b8ff" points="341.07,-62.01 350.56,-57.29 340.2,-55.06 341.07,-62.01"/>
</a>
</g>
</g>
<!-- Node7 -->
<g id="Node000007" class="node">
<title>Node7</title>
<g id="a_Node000007"><a xlink:href="kest__expression_8c.html#a05276e5a18cc3b52dfc8a17bb101c832" target="_top" xlink:title=" ">
<polygon fill="white" stroke="#666666" points="451.12,-20.75 363.12,-20.75 363.12,0 451.12,0 451.12,-20.75"/>
<text xml:space="preserve" text-anchor="middle" x="407.12" y="-7.25" font-family="Helvetica,sans-Serif" font-size="10.00">max_depth_bp</text>
</a>
</g>
</g>
<!-- Node2&#45;&gt;Node7 -->
<g id="edge8_Node000002_Node000007" class="edge">
<title>Node2&#45;&gt;Node7</title>
<g id="a_edge8_Node000002_Node000007"><a xlink:title=" ">
<path fill="none" stroke="#63b8ff" d="M250,-70.68C270.93,-59.3 305.72,-41.31 337.25,-29.38 341.94,-27.6 346.88,-25.91 351.85,-24.32"/>
<polygon fill="#63b8ff" stroke="#63b8ff" points="352.74,-27.71 361.29,-21.46 350.71,-21.01 352.74,-27.71"/>
</a>
</g>
</g>
<!-- Node6&#45;&gt;Node2 -->
<g id="edge7_Node000006_Node000002" class="edge">
<title>Node6&#45;&gt;Node2</title>
<g id="a_edge7_Node000006_Node000002"><a xlink:title=" ">
<path fill="none" stroke="#63b8ff" d="M351.8,-69.73C339.41,-71.92 325.98,-74.06 312.72,-75.97"/>
<polygon fill="#63b8ff" stroke="#63b8ff" points="312.57,-72.46 303.15,-77.3 313.54,-79.39 312.57,-72.46"/>
</a>
</g>
</g>
</g>
</svg>
</svg>

<style type='text/css'>
<![CDATA[
[data-mouse-over-selected='false'] { opacity: 0.7; }
[data-mouse-over-selected='true']  { opacity: 1.0; }
]]>
</style>
<script type="application/ecmascript"><![CDATA[
document.addEventListener('DOMContentLoaded', (event) => {
  highlightEdges();
  highlightAdjacentNodes();
});
]]></script>
</svg>
