<?xml version="1.0" encoding="UTF-8" standalone="no"?>
<!DOCTYPE svg PUBLIC "-//W3C//DTD SVG 1.1//EN"
 "http://www.w3.org/Graphics/SVG/1.1/DTD/svg11.dtd">
<!-- Generated by graphviz version 13.1.2 (20250808.2320)
 -->
<!-- Title: kest_eff_entry_dict_lookup Pages: 1 -->
<svg width="750pt" height="210pt"
 viewBox="0.00 0.00 750.00 210.00" xmlns="http://www.w3.org/2000/svg" xmlns:xlink="http://www.w3.org/1999/xlink">
<g id="graph0" class="graph" transform="scale(1 1) rotate(0) translate(4 206.12)">
<title>kest_eff_entry_dict_lookup</title>
<!-- Node1 -->
<g id="Node000001" class="node">
<title>Node1</title>
<g id="a_Node000001"><a xlink:title=" ">
<polygon fill="#999999" stroke="#666666" points="741.5,-103.12 632.5,-103.12 632.5,-69.62 741.5,-69.62 741.5,-103.12"/>
<text xml:space="preserve" text-anchor="start" x="640.5" y="-89.62" font-family="Helvetica,sans-Serif" font-size="10.00">kest_eff_entry_dict</text>
<text xml:space="preserve" text-anchor="middle" x="687" y="-76.88" font-family="Helvetica,sans-Serif" font-size="10.00">_lookup</text>
</a>
</g>
</g>
<!-- Node2 -->
<g id="Node000002" class="node">
<title>Node2</title>
<g id="a_Node000002"><a xlink:href="kest__dictionary_8c.html#a2d76d583c5cdb655a65d6451757f26c1" target="_top" xlink:title=" ">
<polygon fill="white" stroke="#666666" points="596.5,-202.12 487.5,-202.12 487.5,-168.62 596.5,-168.62 596.5,-202.12"/>
<text xml:space="preserve" text-anchor="start" x="495.5" y="-188.62" font-family="Helvetica,sans-Serif" font-size="10.00">kest_eff_entry_dict</text>
<text xml:space="preserve" text-anchor="middle" x="542" y="-175.88" font-family="Helvetica,sans-Serif" font-size="10.00">_insert</text>
</a>
</g>
</g>
<!-- Node1&#45;&gt;Node2 -->
<g id="edge1_Node000001_Node000002" class="edge">
<title>Node1&#45;&gt;Node2</title>
<g id="a_edge1_Node000001_Node000002"><a xlink:title=" ">
<path fill="none" stroke="#63b8ff" d="M651.64,-110.16C625.73,-128.1 590.8,-152.28 567.62,-168.33"/>
<polygon fill="#63b8ff" stroke="#63b8ff" points="653.62,-113.05 659.85,-104.48 649.63,-107.3 653.62,-113.05"/>
</a>
</g>
</g>
<!-- Node26 -->
<g id="Node000026" class="node">
<title>Node26</title>
<g id="a_Node000026"><a xlink:href="kest__eff__section_8c.html#a35fbc773420d22e0a7cbc2bcad2e0d24" target="_top" xlink:title=" ">
<polygon fill="white" stroke="#666666" points="451.5,-126.75 317.75,-126.75 317.75,-106 451.5,-106 451.5,-126.75"/>
<text xml:space="preserve" text-anchor="middle" x="384.62" y="-113.25" font-family="Helvetica,sans-Serif" font-size="10.00">kest_eff_section_lookup</text>
</a>
</g>
</g>
<!-- Node1&#45;&gt;Node26 -->
<g id="edge7_Node000001_Node000026" class="edge">
<title>Node1&#45;&gt;Node26</title>
<g id="a_edge7_Node000001_Node000026"><a xlink:title=" ">
<path fill="none" stroke="#63b8ff" d="M621.13,-101.39C612.87,-102.94 604.51,-104.32 596.5,-105.38 548.34,-111.7 493.54,-114.43 451.88,-115.58"/>
<polygon fill="#63b8ff" stroke="#63b8ff" points="621.66,-104.86 630.8,-99.5 620.31,-97.99 621.66,-104.86"/>
</a>
</g>
</g>
<!-- Node27 -->
<g id="Node000027" class="node">
<title>Node27</title>
<g id="a_Node000027"><a xlink:href="kest__dict__extract_8c.html#a2f5c7e8352941d6606205bfac2666a44" target="_top" xlink:title=" ">
<polygon fill="white" stroke="#666666" points="596.12,-96.75 487.88,-96.75 487.88,-76 596.12,-76 596.12,-96.75"/>
<text xml:space="preserve" text-anchor="middle" x="542" y="-83.25" font-family="Helvetica,sans-Serif" font-size="10.00">kest_extract_delay</text>
</a>
</g>
</g>
<!-- Node1&#45;&gt;Node27 -->
<g id="edge9_Node000001_Node000027" class="edge">
<title>Node1&#45;&gt;Node27</title>
<g id="a_edge9_Node000001_Node000027"><a xlink:title=" ">
<path fill="none" stroke="#63b8ff" d="M620.91,-86.38C612.73,-86.38 604.45,-86.38 596.48,-86.38"/>
<polygon fill="#63b8ff" stroke="#63b8ff" points="620.83,-89.88 630.83,-86.38 620.83,-82.88 620.83,-89.88"/>
</a>
</g>
</g>
<!-- Node19 -->
<g id="Node000019" class="node">
<title>Node19</title>
<g id="a_Node000019"><a xlink:href="kest__dict__extract_8c.html#a380375dec37f2a914cd428342a6cbfe3" target="_top" xlink:title=" ">
<polygon fill="#fff0f0" stroke="red" points="446.25,-58.75 323,-58.75 323,-38 446.25,-38 446.25,-58.75"/>
<text xml:space="preserve" text-anchor="middle" x="384.62" y="-45.25" font-family="Helvetica,sans-Serif" font-size="10.00">kest_extract_resource</text>
</a>
</g>
</g>
<!-- Node1&#45;&gt;Node19 -->
<g id="edge13_Node000001_Node000019" class="edge">
<title>Node1&#45;&gt;Node19</title>
<g id="a_edge13_Node000001_Node000019"><a xlink:title=" ">
<path fill="none" stroke="#63b8ff" d="M621.09,-71.65C612.84,-70.05 604.49,-68.58 596.5,-67.38 546.16,-59.79 488.56,-54.85 446.3,-51.92"/>
<polygon fill="#63b8ff" stroke="#63b8ff" points="620.26,-75.05 630.75,-73.58 621.63,-68.19 620.26,-75.05"/>
</a>
</g>
</g>
<!-- Node28 -->
<g id="Node000028" class="node">
<title>Node28</title>
<g id="a_Node000028"><a xlink:href="kest__dict__extract_8c.html#a3836d6c45b8868ac642ef43a0c1e89d5" target="_top" xlink:title=" ">
<polygon fill="white" stroke="#666666" points="589,-20.75 495,-20.75 495,0 589,0 589,-20.75"/>
<text xml:space="preserve" text-anchor="middle" x="542" y="-7.25" font-family="Helvetica,sans-Serif" font-size="10.00">kest_extract_lfo</text>
</a>
</g>
</g>
<!-- Node1&#45;&gt;Node28 -->
<g id="edge11_Node000001_Node000028" class="edge">
<title>Node1&#45;&gt;Node28</title>
<g id="a_edge11_Node000001_Node000028"><a xlink:title=" ">
<path fill="none" stroke="#63b8ff" d="M648.74,-63.55C632.85,-54.13 613.98,-43.34 596.5,-34.38 587.53,-29.77 577.5,-25.14 568.57,-21.19"/>
<polygon fill="#63b8ff" stroke="#63b8ff" points="646.52,-66.31 656.9,-68.44 650.12,-60.3 646.52,-66.31"/>
</a>
</g>
</g>
<!-- Node3 -->
<g id="Node000003" class="node">
<title>Node3</title>
<g id="a_Node000003"><a xlink:href="kest__dictionary_8c.html#ad65da740536ab47c17ff688051be0661" target="_top" xlink:title=" ">
<polygon fill="white" stroke="#666666" points="447.75,-197.75 321.5,-197.75 321.5,-177 447.75,-177 447.75,-197.75"/>
<text xml:space="preserve" text-anchor="middle" x="384.62" y="-184.25" font-family="Helvetica,sans-Serif" font-size="10.00">kest_parse_eff_entries</text>
</a>
</g>
</g>
<!-- Node2&#45;&gt;Node3 -->
<g id="edge2_Node000002_Node000003" class="edge">
<title>Node2&#45;&gt;Node3</title>
<g id="a_edge2_Node000002_Node000003"><a xlink:title=" ">
<path fill="none" stroke="#63b8ff" d="M475.73,-186.22C466.63,-186.33 457.29,-186.45 448.24,-186.57"/>
<polygon fill="#63b8ff" stroke="#63b8ff" points="475.63,-189.72 485.58,-186.09 475.54,-182.72 475.63,-189.72"/>
</a>
</g>
</g>
<!-- Node4 -->
<g id="Node000004" class="node">
<title>Node4</title>
<g id="a_Node000004"><a xlink:href="kest__dictionary_8c.html#a14917e2fe112ccf5a9d740cd2ce4f518" target="_top" xlink:title=" ">
<polygon fill="#fff0f0" stroke="red" points="270.88,-201.75 152.88,-201.75 152.88,-181 270.88,-181 270.88,-201.75"/>
<text xml:space="preserve" text-anchor="middle" x="211.88" y="-188.25" font-family="Helvetica,sans-Serif" font-size="10.00">kest_parse_eff_entry</text>
</a>
</g>
</g>
<!-- Node3&#45;&gt;Node4 -->
<g id="edge3_Node000003_Node000004" class="edge">
<title>Node3&#45;&gt;Node4</title>
<g id="a_edge3_Node000003_Node000004"><a xlink:title=" ">
<path fill="none" stroke="#63b8ff" d="M309.8,-182.41C296.9,-182.59 283.64,-182.98 271.23,-183.57"/>
<polygon fill="#63b8ff" stroke="#63b8ff" points="309.53,-185.91 319.5,-182.32 309.47,-178.91 309.53,-185.91"/>
</a>
</g>
</g>
<!-- Node6 -->
<g id="Node000006" class="node">
<title>Node6</title>
<g id="a_Node000006"><a xlink:href="kest__eff__section_8c.html#ad4021e5516f9b19f0af658e1c5ee351f" target="_top" xlink:title=" ">
<polygon fill="white" stroke="#666666" points="281.75,-162.75 142,-162.75 142,-142 281.75,-142 281.75,-162.75"/>
<text xml:space="preserve" text-anchor="middle" x="211.88" y="-149.25" font-family="Helvetica,sans-Serif" font-size="10.00">kest_parse_entry_section</text>
</a>
</g>
</g>
<!-- Node3&#45;&gt;Node6 -->
<g id="edge5_Node000003_Node000006" class="edge">
<title>Node3&#45;&gt;Node6</title>
<g id="a_edge5_Node000003_Node000006"><a xlink:title=" ">
<path fill="none" stroke="#63b8ff" d="M319.85,-174.3C302.09,-170.66 282.99,-166.75 265.91,-163.25"/>
<polygon fill="#63b8ff" stroke="#63b8ff" points="319.02,-177.7 329.52,-176.28 320.42,-170.85 319.02,-177.7"/>
</a>
</g>
</g>
<!-- Node4&#45;&gt;Node3 -->
<g id="edge4_Node000004_Node000003" class="edge">
<title>Node4&#45;&gt;Node3</title>
<g id="a_edge4_Node000004_Node000003"><a xlink:title=" ">
<path fill="none" stroke="#63b8ff" d="M282.71,-196.39C295.39,-196.26 308.55,-195.91 321.01,-195.37"/>
<polygon fill="#63b8ff" stroke="#63b8ff" points="282.72,-192.89 272.74,-196.44 282.76,-199.89 282.72,-192.89"/>
</a>
</g>
</g>
<!-- Node7 -->
<g id="Node000007" class="node">
<title>Node7</title>
<g id="a_Node000007"><a xlink:href="kest__eff__parser_8c.html#a73ef6962d1925857ec3e4b12d1aad834" target="_top" xlink:title=" ">
<polygon fill="#fff0f0" stroke="red" points="106,-143.75 0,-143.75 0,-123 106,-123 106,-143.75"/>
<text xml:space="preserve" text-anchor="middle" x="53" y="-130.25" font-family="Helvetica,sans-Serif" font-size="10.00">kest_parse_tokens</text>
</a>
</g>
</g>
<!-- Node6&#45;&gt;Node7 -->
<g id="edge6_Node000006_Node000007" class="edge">
<title>Node6&#45;&gt;Node7</title>
<g id="a_edge6_Node000006_Node000007"><a xlink:title=" ">
<path fill="none" stroke="#63b8ff" d="M130.2,-142.6C122.12,-141.63 114.07,-140.65 106.4,-139.72"/>
<polygon fill="#63b8ff" stroke="#63b8ff" points="129.76,-146.08 140.11,-143.8 130.6,-139.13 129.76,-146.08"/>
</a>
</g>
</g>
<!-- Node26&#45;&gt;Node7 -->
<g id="edge8_Node000026_Node000007" class="edge">
<title>Node26&#45;&gt;Node7</title>
<g id="a_edge8_Node000026_Node000007"><a xlink:title=" ">
<path fill="none" stroke="#63b8ff" d="M306.1,-120.37C244.56,-123.55 160.2,-127.9 106.38,-130.67"/>
<polygon fill="#63b8ff" stroke="#63b8ff" points="306,-123.88 315.81,-119.87 305.64,-116.89 306,-123.88"/>
</a>
</g>
</g>
<!-- Node27&#45;&gt;Node19 -->
<g id="edge10_Node000027_Node000019" class="edge">
<title>Node27&#45;&gt;Node19</title>
<g id="a_edge10_Node000027_Node000019"><a xlink:title=" ">
<path fill="none" stroke="#63b8ff" d="M485.75,-72.86C467.41,-68.38 447.24,-63.44 429.84,-59.19"/>
<polygon fill="#63b8ff" stroke="#63b8ff" points="484.88,-76.25 495.42,-75.23 486.54,-69.45 484.88,-76.25"/>
</a>
</g>
</g>
<!-- Node28&#45;&gt;Node19 -->
<g id="edge12_Node000028_Node000019" class="edge">
<title>Node28&#45;&gt;Node19</title>
<g id="a_edge12_Node000028_Node000019"><a xlink:title=" ">
<path fill="none" stroke="#63b8ff" d="M485.75,-23.89C467.41,-28.37 447.24,-33.31 429.84,-37.56"/>
<polygon fill="#63b8ff" stroke="#63b8ff" points="486.54,-27.3 495.42,-21.52 484.88,-20.5 486.54,-27.3"/>
</a>
</g>
</g>
</g>
</svg>
