<?xml version="1.0" encoding="UTF-8" standalone="no"?>
<!DOCTYPE svg PUBLIC "-//W3C//DTD SVG 1.1//EN"
 "http://www.w3.org/Graphics/SVG/1.1/DTD/svg11.dtd">
<!-- Generated by graphviz version 13.1.2 (20250808.2320)
 -->
<!-- Title: kest_effect_update_fpga Pages: 1 -->
<!--zoomable 561 -->

<svg id="main" version="1.1" xmlns="http://www.w3.org/2000/svg" xmlns:xlink="http://www.w3.org/1999/xlink" xml:space="preserve" onload="init(evt)">

<style type="text/css"><![CDATA[
.node, .edge {opacity: 0.7;}
.node.selected, .edge.selected {opacity: 1;}
.edge:hover path { stroke: red; }
.edge:hover polygon { stroke: red; fill: red; }
]]></style>

<defs>
  <circle id="rim" cx="0" cy="0" r="7"/>
  <circle id="rim2" cx="0" cy="0" r="3.5"/>
  <g id="zoomPlus">
    <use xlink:href="#rim" fill="#404040"><set attributeName="fill" to="#808080" begin="zoomplus.mouseover" end="zoomplus.mouseout"/></use>
    <path d="M-4,0h8M0,-4v8" fill="none" stroke="white" stroke-width="1.5" pointer-events="none"/>
  </g>
  <g id="zoomMin">
    <use xlink:href="#rim" fill="#404040"><set attributeName="fill" to="#808080" begin="zoomminus.mouseover" end="zoomminus.mouseout"/></use>
    <path d="M-4,0h8" fill="none" stroke="white" stroke-width="1.5" pointer-events="none"/>
  </g>
  <g id="arrowUp" transform="translate(30 24)">
    <use xlink:href="#rim"/>
    <path pointer-events="none" fill="none" stroke="white" stroke-width="1.5" d="M0,-3.0v7 M-2.5,-0.5L0,-3.0L2.5,-0.5"/>
  </g>
  <g id="arrowRight" transform="rotate(90) translate(36 -43)">
    <use xlink:href="#rim"/>
    <path pointer-events="none" fill="none" stroke="white" stroke-width="1.5" d="M0,-3.0v7 M-2.5,-0.5L0,-3.0L2.5,-0.5"/>
  </g>
  <g id="arrowDown" transform="rotate(180) translate(-30 -48)">
    <use xlink:href="#rim"/>
    <path pointer-events="none" fill="none" stroke="white" stroke-width="1.5" d="M0,-3.0v7 M-2.5,-0.5L0,-3.0L2.5,-0.5"/>
  </g>
  <g id="arrowLeft" transform="rotate(270) translate(-36 17)">
    <use xlink:href="#rim"/>
    <path pointer-events="none" fill="none" stroke="white" stroke-width="1.5" d="M0,-3.0v7 M-2.5,-0.5L0,-3.0L2.5,-0.5"/>
  </g>
  <g id="resetDef">
    <use xlink:href="#rim2" fill="#404040"><set attributeName="fill" to="#808080" begin="reset.mouseover" end="reset.mouseout"/></use>
  </g>
</defs>
<script type="application/ecmascript">
var viewWidth = 1198;
var viewHeight = 561;
var sectionId = 'dynsection-45';
</script>
<script type="application/ecmascript" xlink:href="svg.min.js"/>
<svg id="graph" class="graph">
<g id="viewport">
<title>kest_effect_update_fpga</title>
<!-- Node1 -->
<g id="Node000001" class="node">
<title>Node1</title>
<g id="a_Node000001"><a xlink:title=" ">
<polygon fill="#999999" stroke="#666666" points="136,-149.12 0,-149.12 0,-128.38 136,-128.38 136,-149.12"/>
<text xml:space="preserve" text-anchor="middle" x="68" y="-135.62" font-family="Helvetica,sans-Serif" font-size="10.00">kest_effect_update_fpga</text>
</a>
</g>
</g>
<!-- Node2 -->
<g id="Node000002" class="node">
<title>Node2</title>
<g id="a_Node000002"><a xlink:href="kest__effect_8c.html#a6d26be8c2a59f0c05ae876bf2dba43a1" target="_top" xlink:title=" ">
<polygon fill="white" stroke="#666666" points="482.62,-392.12 354.12,-392.12 354.12,-371.38 482.62,-371.38 482.62,-392.12"/>
<text xml:space="preserve" text-anchor="middle" x="418.38" y="-378.62" font-family="Helvetica,sans-Serif" font-size="10.00">kest_effect_is_updated</text>
</a>
</g>
</g>
<!-- Node1&#45;&gt;Node2 -->
<g id="edge1_Node000001_Node000002" class="edge">
<title>Node1&#45;&gt;Node2</title>
<g id="a_edge1_Node000001_Node000002"><a xlink:title=" ">
<path fill="none" stroke="#63b8ff" d="M75.81,-149.49C90.8,-172.44 128.77,-226.93 172,-260.75 235.78,-310.65 323.44,-347.75 374.88,-366.97"/>
<polygon fill="#63b8ff" stroke="#63b8ff" points="373.58,-370.22 384.18,-370.39 376,-363.65 373.58,-370.22"/>
</a>
</g>
</g>
<!-- Node28 -->
<g id="Node000028" class="node">
<title>Node28</title>
<g id="a_Node000028"><a xlink:href="kest__fpga__comms_8c.html#a3489962eaa9ab553d254921b6dc9647d" target="_top" xlink:title=" ">
<polygon fill="white" stroke="#666666" points="314,-85.5 172,-85.5 172,-52 314,-52 314,-85.5"/>
<text xml:space="preserve" text-anchor="start" x="180" y="-72" font-family="Helvetica,sans-Serif" font-size="10.00">kest_fpga_queue_transfer</text>
<text xml:space="preserve" text-anchor="middle" x="243" y="-59.25" font-family="Helvetica,sans-Serif" font-size="10.00">_batch</text>
</a>
</g>
</g>
<!-- Node1&#45;&gt;Node28 -->
<g id="edge12_Node000001_Node000028" class="edge">
<title>Node1&#45;&gt;Node28</title>
<g id="a_edge12_Node000001_Node000028"><a xlink:title=" ">
<path fill="none" stroke="#63b8ff" d="M95.65,-127.97C120.41,-117.95 158,-102.74 188.88,-90.24"/>
<polygon fill="#63b8ff" stroke="#63b8ff" points="190.13,-93.51 198.09,-86.52 187.5,-87.03 190.13,-93.51"/>
</a>
</g>
</g>
<!-- Node30 -->
<g id="Node000030" class="node">
<title>Node30</title>
<g id="a_Node000030"><a xlink:href="kest__fpga__encoding_8c.html#aa84abb65bd141dfd5df4c221f024a3db" target="_top" xlink:title=" ">
<polygon fill="white" stroke="#666666" points="304.62,-251.88 181.38,-251.88 181.38,-205.62 304.62,-205.62 304.62,-251.88"/>
<text xml:space="preserve" text-anchor="start" x="189.38" y="-238.38" font-family="Helvetica,sans-Serif" font-size="10.00">kest_fpga_transfer</text>
<text xml:space="preserve" text-anchor="start" x="189.38" y="-225.62" font-family="Helvetica,sans-Serif" font-size="10.00">_batch_append_effect</text>
<text xml:space="preserve" text-anchor="middle" x="243" y="-212.88" font-family="Helvetica,sans-Serif" font-size="10.00">_register_updates_</text>
</a>
</g>
</g>
<!-- Node1&#45;&gt;Node30 -->
<g id="edge14_Node000001_Node000030" class="edge">
<title>Node1&#45;&gt;Node30</title>
<g id="a_edge14_Node000001_Node000030"><a xlink:title=" ">
<path fill="none" stroke="#63b8ff" d="M86.98,-149.49C107.34,-161.5 141.64,-181.3 172,-196.75 174.36,-197.95 176.78,-199.16 179.22,-200.36"/>
<polygon fill="#63b8ff" stroke="#63b8ff" points="177.51,-203.43 188.04,-204.63 180.56,-197.12 177.51,-203.43"/>
</a>
</g>
</g>
<!-- Node43 -->
<g id="Node000043" class="node">
<title>Node43</title>
<g id="a_Node000043"><a xlink:href="kest__fpga__encoding_8c.html#ade3fe9441d89d772781808237a764a94" target="_top" xlink:title=" ">
<polygon fill="white" stroke="#666666" points="304.62,-187.88 181.38,-187.88 181.38,-141.62 304.62,-141.62 304.62,-187.88"/>
<text xml:space="preserve" text-anchor="start" x="189.38" y="-174.38" font-family="Helvetica,sans-Serif" font-size="10.00">kest_fpga_transfer</text>
<text xml:space="preserve" text-anchor="start" x="189.38" y="-161.62" font-family="Helvetica,sans-Serif" font-size="10.00">_batch_append_effect</text>
<text xml:space="preserve" text-anchor="middle" x="243" y="-148.88" font-family="Helvetica,sans-Serif" font-size="10.00">_resource_updates_</text>
</a>
</g>
</g>
<!-- Node1&#45;&gt;Node43 -->
<g id="edge27_Node000001_Node000043" class="edge">
<title>Node1&#45;&gt;Node43</title>
<g id="a_edge27_Node000001_Node000043"><a xlink:title=" ">
<path fill="none" stroke="#63b8ff" d="M136.38,-148.88C147.3,-150.52 158.64,-152.22 169.66,-153.88"/>
<polygon fill="#63b8ff" stroke="#63b8ff" points="169.1,-157.33 179.51,-155.36 170.14,-150.41 169.1,-157.33"/>
</a>
</g>
</g>
<!-- Node48 -->
<g id="Node000048" class="node">
<title>Node48</title>
<g id="a_Node000048"><a xlink:href="kest__fpga__io_8c.html#adb086d525d9f47a4c077d7377110500b" target="_top" xlink:title=" ">
<polygon fill="white" stroke="#666666" points="309.12,-33.5 176.88,-33.5 176.88,0 309.12,0 309.12,-33.5"/>
<text xml:space="preserve" text-anchor="start" x="184.88" y="-20" font-family="Helvetica,sans-Serif" font-size="10.00">kest_new_fpga_transfer</text>
<text xml:space="preserve" text-anchor="middle" x="243" y="-7.25" font-family="Helvetica,sans-Serif" font-size="10.00">_batch</text>
</a>
</g>
</g>
<!-- Node1&#45;&gt;Node48 -->
<g id="edge34_Node000001_Node000048" class="edge">
<title>Node1&#45;&gt;Node48</title>
<g id="a_edge34_Node000001_Node000048"><a xlink:title=" ">
<path fill="none" stroke="#63b8ff" d="M77.86,-128.07C94.49,-108.64 132.27,-67.27 172,-42.75 174.15,-41.42 176.38,-40.15 178.66,-38.92"/>
<polygon fill="#63b8ff" stroke="#63b8ff" points="180.15,-42.09 187.59,-34.54 177.07,-35.81 180.15,-42.09"/>
</a>
</g>
</g>
<!-- Node50 -->
<g id="Node000050" class="node">
<title>Node50</title>
<g id="a_Node000050"><a xlink:href="kest__expr__scope_8c.html#a6329eee07be244ac7c7dd045f6aaa0ac" target="_top" xlink:title=" ">
<polygon fill="white" stroke="#666666" points="839,-78.12 695.5,-78.12 695.5,-57.38 839,-57.38 839,-78.12"/>
<text xml:space="preserve" text-anchor="middle" x="767.25" y="-64.62" font-family="Helvetica,sans-Serif" font-size="10.00">kest_scope_clear_updates</text>
</a>
</g>
</g>
<!-- Node1&#45;&gt;Node50 -->
<g id="edge37_Node000001_Node000050" class="edge">
<title>Node1&#45;&gt;Node50</title>
<g id="a_edge37_Node000001_Node000050"><a xlink:title=" ">
<path fill="none" stroke="#63b8ff" d="M136.49,-131.88C264.97,-118.79 544.29,-90.35 683.68,-76.16"/>
<polygon fill="#63b8ff" stroke="#63b8ff" points="684,-79.64 693.59,-75.15 683.29,-72.68 684,-79.64"/>
</a>
</g>
</g>
<!-- Node3 -->
<g id="Node000003" class="node">
<title>Node3</title>
<g id="a_Node000003"><a xlink:href="kest__expr__scope_8c.html#a38b63c16b3979ad26c30a0dc0b73e96a" target="_top" xlink:title=" ">
<polygon fill="white" stroke="#666666" points="829.62,-424.5 704.88,-424.5 704.88,-391 829.62,-391 829.62,-424.5"/>
<text xml:space="preserve" text-anchor="start" x="712.88" y="-411" font-family="Helvetica,sans-Serif" font-size="10.00">kest_scope_propagate</text>
<text xml:space="preserve" text-anchor="middle" x="767.25" y="-398.25" font-family="Helvetica,sans-Serif" font-size="10.00">_updates</text>
</a>
</g>
</g>
<!-- Node2&#45;&gt;Node3 -->
<g id="edge2_Node000002_Node000003" class="edge">
<title>Node2&#45;&gt;Node3</title>
<g id="a_edge2_Node000002_Node000003"><a xlink:title=" ">
<path fill="none" stroke="#63b8ff" d="M483,-386.52C542.38,-390.97 630.93,-397.61 693.18,-402.27"/>
<polygon fill="#63b8ff" stroke="#63b8ff" points="692.75,-405.75 702.98,-403.01 693.27,-398.77 692.75,-405.75"/>
</a>
</g>
</g>
<!-- Node4 -->
<g id="Node000004" class="node">
<title>Node4</title>
<g id="a_Node000004"><a xlink:href="kest__error__codes_8c.html#a0f4c77127bc0b77264a21104979c576a" target="_top" xlink:title=" ">
<polygon fill="white" stroke="#666666" points="1006.12,-552.5 897.88,-552.5 897.88,-519 1006.12,-519 1006.12,-552.5"/>
<text xml:space="preserve" text-anchor="start" x="905.88" y="-539" font-family="Helvetica,sans-Serif" font-size="10.00">kest_error_code_to</text>
<text xml:space="preserve" text-anchor="middle" x="952" y="-526.25" font-family="Helvetica,sans-Serif" font-size="10.00">_string</text>
</a>
</g>
</g>
<!-- Node3&#45;&gt;Node4 -->
<g id="edge3_Node000003_Node000004" class="edge">
<title>Node3&#45;&gt;Node4</title>
<g id="a_edge3_Node000003_Node000004"><a xlink:title=" ">
<path fill="none" stroke="#63b8ff" d="M783.42,-424.81C802.9,-445.89 838.56,-481.78 875,-504.75 880.12,-507.98 885.64,-510.99 891.28,-513.77"/>
<polygon fill="#63b8ff" stroke="#63b8ff" points="889.58,-516.84 900.13,-517.87 892.53,-510.49 889.58,-516.84"/>
</a>
</g>
</g>
<!-- Node5 -->
<g id="Node000005" class="node">
<title>Node5</title>
<g id="a_Node000005"><a xlink:href="kest__expression_8c.html#a4428080cc6a255e85501a259bdb4dc8a" target="_top" xlink:title=" ">
<polygon fill="#fff0f0" stroke="red" points="1009.88,-334.5 894.12,-334.5 894.12,-301 1009.88,-301 1009.88,-334.5"/>
<text xml:space="preserve" text-anchor="start" x="902.12" y="-321" font-family="Helvetica,sans-Serif" font-size="10.00">kest_expression_get</text>
<text xml:space="preserve" text-anchor="middle" x="952" y="-308.25" font-family="Helvetica,sans-Serif" font-size="10.00">_references</text>
</a>
</g>
</g>
<!-- Node3&#45;&gt;Node5 -->
<g id="edge4_Node000003_Node000005" class="edge">
<title>Node3&#45;&gt;Node5</title>
<g id="a_edge4_Node000003_Node000005"><a xlink:title=" ">
<path fill="none" stroke="#63b8ff" d="M822.82,-390.65C828.47,-388.02 833.97,-385.06 839,-381.75 858.43,-368.96 855.43,-356.32 875,-343.75 877.75,-341.98 880.63,-340.32 883.6,-338.76"/>
<polygon fill="#63b8ff" stroke="#63b8ff" points="885.06,-341.94 892.59,-334.49 882.06,-335.62 885.06,-341.94"/>
</a>
</g>
</g>
<!-- Node8 -->
<g id="Node000008" class="node">
<title>Node8</title>
<g id="a_Node000008"><a xlink:href="kest__expression_8c.html#aadf2a6a074cb1ad7b45893704cbd71c3" target="_top" xlink:title=" ">
<polygon fill="#fff0f0" stroke="red" points="1006.88,-282.5 897.12,-282.5 897.12,-249 1006.88,-249 1006.88,-282.5"/>
<text xml:space="preserve" text-anchor="start" x="905.12" y="-269" font-family="Helvetica,sans-Serif" font-size="10.00">kest_expression_to</text>
<text xml:space="preserve" text-anchor="middle" x="952" y="-256.25" font-family="Helvetica,sans-Serif" font-size="10.00">_string</text>
</a>
</g>
</g>
<!-- Node3&#45;&gt;Node8 -->
<g id="edge5_Node000003_Node000008" class="edge">
<title>Node3&#45;&gt;Node8</title>
<g id="a_edge5_Node000003_Node000008"><a xlink:title=" ">
<path fill="none" stroke="#63b8ff" d="M827.37,-390.63C831.58,-388.07 835.53,-385.12 839,-381.75 869.89,-351.72 843.77,-321.43 875,-291.75 878.62,-288.31 882.72,-285.32 887.09,-282.72"/>
<polygon fill="#63b8ff" stroke="#63b8ff" points="888.35,-286.01 895.66,-278.34 885.17,-279.78 888.35,-286.01"/>
</a>
</g>
</g>
<!-- Node14 -->
<g id="Node000014" class="node">
<title>Node14</title>
<g id="a_Node000014"><a xlink:href="kest__expr__scope_8c.html#a1dc487460ef092118bcf896765c61d8c" target="_top" xlink:title=" ">
<polygon fill="#fff0f0" stroke="red" points="1016.62,-462.5 887.38,-462.5 887.38,-429 1016.62,-429 1016.62,-462.5"/>
<text xml:space="preserve" text-anchor="start" x="895.38" y="-449" font-family="Helvetica,sans-Serif" font-size="10.00">kest_scope_detect_env</text>
<text xml:space="preserve" text-anchor="middle" x="952" y="-436.25" font-family="Helvetica,sans-Serif" font-size="10.00">_updates</text>
</a>
</g>
</g>
<!-- Node3&#45;&gt;Node14 -->
<g id="edge6_Node000003_Node000014" class="edge">
<title>Node3&#45;&gt;Node14</title>
<g id="a_edge6_Node000003_Node000014"><a xlink:title=" ">
<path fill="none" stroke="#63b8ff" d="M830.12,-420.62C844.87,-423.68 860.77,-426.99 876.03,-430.16"/>
<polygon fill="#63b8ff" stroke="#63b8ff" points="875.03,-433.53 885.53,-432.14 876.45,-426.67 875.03,-433.53"/>
</a>
</g>
</g>
<!-- Node26 -->
<g id="Node000026" class="node">
<title>Node26</title>
<g id="a_Node000026"><a xlink:href="kest__expr__scope_8c.html#a003d0a831a549dab0e93c2ad5c82d14e" target="_top" xlink:title=" ">
<polygon fill="white" stroke="#666666" points="1178.5,-411.12 1076.25,-411.12 1076.25,-390.38 1178.5,-390.38 1178.5,-411.12"/>
<text xml:space="preserve" text-anchor="middle" x="1127.38" y="-397.62" font-family="Helvetica,sans-Serif" font-size="10.00">kest_scope_index</text>
</a>
</g>
</g>
<!-- Node3&#45;&gt;Node26 -->
<g id="edge9_Node000003_Node000026" class="edge">
<title>Node3&#45;&gt;Node26</title>
<g id="a_edge9_Node000003_Node000026"><a xlink:title=" ">
<path fill="none" stroke="#63b8ff" d="M829.81,-406.55C895.47,-405.26 998.85,-403.24 1064.59,-401.96"/>
<polygon fill="#63b8ff" stroke="#63b8ff" points="1064.56,-405.46 1074.49,-401.76 1064.43,-398.46 1064.56,-405.46"/>
</a>
</g>
</g>
<!-- Node27 -->
<g id="Node000027" class="node">
<title>Node27</title>
<g id="a_Node000027"><a xlink:href="kest__expr__scope_8c.html#afd7862a7cb331b3576d5da3ba80d5e4a" target="_top" xlink:title=" ">
<polygon fill="white" stroke="#666666" points="1189.75,-478.12 1065,-478.12 1065,-457.38 1189.75,-457.38 1189.75,-478.12"/>
<text xml:space="preserve" text-anchor="middle" x="1127.38" y="-464.62" font-family="Helvetica,sans-Serif" font-size="10.00">kest_scope_index_key</text>
</a>
</g>
</g>
<!-- Node3&#45;&gt;Node27 -->
<g id="edge10_Node000003_Node000027" class="edge">
<title>Node3&#45;&gt;Node27</title>
<g id="a_edge10_Node000003_Node000027"><a xlink:title=" ">
<path fill="none" stroke="#63b8ff" d="M788.74,-424.7C809.14,-440.4 842.1,-462.64 875,-471.75 933.47,-487.93 1002.54,-485.36 1053.48,-479.64"/>
<polygon fill="#63b8ff" stroke="#63b8ff" points="1053.69,-483.14 1063.21,-478.47 1052.86,-476.18 1053.69,-483.14"/>
</a>
</g>
</g>
<!-- Node25 -->
<g id="Node000025" class="node">
<title>Node25</title>
<g id="a_Node000025"><a xlink:href="kest__expr__scope_8c.html#a536647952c07049da59284b9f928bd67" target="_top" xlink:title=" ">
<polygon fill="white" stroke="#666666" points="1006.12,-373.12 897.88,-373.12 897.88,-352.38 1006.12,-352.38 1006.12,-373.12"/>
<text xml:space="preserve" text-anchor="middle" x="952" y="-359.62" font-family="Helvetica,sans-Serif" font-size="10.00">kest_scope_lookup</text>
</a>
</g>
</g>
<!-- Node3&#45;&gt;Node25 -->
<g id="edge11_Node000003_Node000025" class="edge">
<title>Node3&#45;&gt;Node25</title>
<g id="a_edge11_Node000003_Node000025"><a xlink:title=" ">
<path fill="none" stroke="#63b8ff" d="M830.12,-392.52C851.54,-387.24 875.38,-381.37 896.19,-376.25"/>
<polygon fill="#63b8ff" stroke="#63b8ff" points="896.74,-379.72 905.61,-373.93 895.07,-372.92 896.74,-379.72"/>
</a>
</g>
</g>
<!-- Node14&#45;&gt;Node26 -->
<g id="edge7_Node000014_Node000026" class="edge">
<title>Node14&#45;&gt;Node26</title>
<g id="a_edge7_Node000014_Node000026"><a xlink:title=" ">
<path fill="none" stroke="#63b8ff" d="M1017.07,-429.12C1035.67,-424.29 1055.77,-419.08 1073.6,-414.45"/>
<polygon fill="#63b8ff" stroke="#63b8ff" points="1074.39,-417.86 1083.19,-411.96 1072.63,-411.08 1074.39,-417.86"/>
</a>
</g>
</g>
<!-- Node14&#45;&gt;Node27 -->
<g id="edge8_Node000014_Node000027" class="edge">
<title>Node14&#45;&gt;Node27</title>
<g id="a_edge8_Node000014_Node000027"><a xlink:title=" ">
<path fill="none" stroke="#63b8ff" d="M1017.07,-453.88C1028.83,-455.37 1041.2,-456.94 1053.21,-458.47"/>
<polygon fill="#63b8ff" stroke="#63b8ff" points="1052.73,-461.93 1063.09,-459.72 1053.61,-454.99 1052.73,-461.93"/>
</a>
</g>
</g>
<!-- Node29 -->
<g id="Node000029" class="node">
<title>Node29</title>
<g id="a_Node000029"><a xlink:href="kest__fpga__comms_8c.html#a2e1d94033e2a8da2da990d9d370138c0" target="_top" xlink:title=" ">
<polygon fill="white" stroke="#666666" points="480.75,-79.12 356,-79.12 356,-58.38 480.75,-58.38 480.75,-79.12"/>
<text xml:space="preserve" text-anchor="middle" x="418.38" y="-65.62" font-family="Helvetica,sans-Serif" font-size="10.00">kest_fpga_queue_msg</text>
</a>
</g>
</g>
<!-- Node28&#45;&gt;Node29 -->
<g id="edge13_Node000028_Node000029" class="edge">
<title>Node28&#45;&gt;Node29</title>
<g id="a_edge13_Node000028_Node000029"><a xlink:title=" ">
<path fill="none" stroke="#63b8ff" d="M314.02,-68.75C324.06,-68.75 334.4,-68.75 344.49,-68.75"/>
<polygon fill="#63b8ff" stroke="#63b8ff" points="344.24,-72.25 354.24,-68.75 344.24,-65.25 344.24,-72.25"/>
</a>
</g>
</g>
<!-- Node31 -->
<g id="Node000031" class="node">
<title>Node31</title>
<g id="a_Node000031"><a xlink:href="kest__fpga__encoding_8c.html#a671c5c9aca5f0e8197dbccbc0dd8291c" target="_top" xlink:title=" ">
<polygon fill="white" stroke="#666666" points="659.5,-245.5 522.75,-245.5 522.75,-212 659.5,-212 659.5,-245.5"/>
<text xml:space="preserve" text-anchor="start" x="530.75" y="-232" font-family="Helvetica,sans-Serif" font-size="10.00">kest_fpga_batch_append</text>
<text xml:space="preserve" text-anchor="middle" x="591.12" y="-219.25" font-family="Helvetica,sans-Serif" font-size="10.00">_block_register_updates</text>
</a>
</g>
</g>
<!-- Node30&#45;&gt;Node31 -->
<g id="edge15_Node000030_Node000031" class="edge">
<title>Node30&#45;&gt;Node31</title>
<g id="a_edge15_Node000030_Node000031"><a xlink:title=" ">
<path fill="none" stroke="#63b8ff" d="M305.08,-228.75C362.45,-228.75 448.59,-228.75 511.16,-228.75"/>
<polygon fill="#63b8ff" stroke="#63b8ff" points="511.04,-232.25 521.04,-228.75 511.04,-225.25 511.04,-232.25"/>
</a>
</g>
</g>
<!-- Node32 -->
<g id="Node000032" class="node">
<title>Node32</title>
<g id="a_Node000032"><a xlink:href="kest__fixed__point_8c.html#a1580bc2204b9b5083cfb04e1e883ea35" target="_top" xlink:title=" ">
<polygon fill="white" stroke="#666666" points="823.25,-373.12 711.25,-373.12 711.25,-352.38 823.25,-352.38 823.25,-373.12"/>
<text xml:space="preserve" text-anchor="middle" x="767.25" y="-359.62" font-family="Helvetica,sans-Serif" font-size="10.00">float_to_q_nminus1</text>
</a>
</g>
</g>
<!-- Node31&#45;&gt;Node32 -->
<g id="edge16_Node000031_Node000032" class="edge">
<title>Node31&#45;&gt;Node32</title>
<g id="a_edge16_Node000031_Node000032"><a xlink:title=" ">
<path fill="none" stroke="#63b8ff" d="M602.61,-245.62C619.18,-270.85 653.86,-318.19 695.5,-343.75 697.66,-345.07 699.91,-346.31 702.22,-347.46"/>
<polygon fill="#63b8ff" stroke="#63b8ff" points="700.74,-350.63 711.31,-351.37 703.51,-344.2 700.74,-350.63"/>
</a>
</g>
</g>
<!-- Node33 -->
<g id="Node000033" class="node">
<title>Node33</title>
<g id="a_Node000033"><a xlink:href="kest__expression_8c.html#a8df028c238f29a5c5e59bcff98e28157" target="_top" xlink:title=" ">
<polygon fill="#fff0f0" stroke="red" points="838.62,-193.12 695.88,-193.12 695.88,-172.38 838.62,-172.38 838.62,-193.12"/>
<text xml:space="preserve" text-anchor="middle" x="767.25" y="-179.62" font-family="Helvetica,sans-Serif" font-size="10.00">kest_expression_evaluate</text>
</a>
</g>
</g>
<!-- Node31&#45;&gt;Node33 -->
<g id="edge17_Node000031_Node000033" class="edge">
<title>Node31&#45;&gt;Node33</title>
<g id="a_edge17_Node000031_Node000033"><a xlink:title=" ">
<path fill="none" stroke="#63b8ff" d="M656.96,-211.62C675.77,-206.65 696.06,-201.29 713.99,-196.55"/>
<polygon fill="#63b8ff" stroke="#63b8ff" points="714.87,-199.94 723.65,-194.01 713.08,-193.18 714.87,-199.94"/>
</a>
</g>
</g>
<!-- Node34 -->
<g id="Node000034" class="node">
<title>Node34</title>
<g id="a_Node000034"><a xlink:href="kest__expression_8c.html#a06fc3d0394cad5e965de056f7af84b72" target="_top" xlink:title=" ">
<polygon fill="white" stroke="#666666" points="837.12,-334.5 697.38,-334.5 697.38,-301 837.12,-301 837.12,-334.5"/>
<text xml:space="preserve" text-anchor="start" x="705.38" y="-321" font-family="Helvetica,sans-Serif" font-size="10.00">kest_expression_updated</text>
<text xml:space="preserve" text-anchor="middle" x="767.25" y="-308.25" font-family="Helvetica,sans-Serif" font-size="10.00">_in_scope</text>
</a>
</g>
</g>
<!-- Node31&#45;&gt;Node34 -->
<g id="edge18_Node000031_Node000034" class="edge">
<title>Node31&#45;&gt;Node34</title>
<g id="a_edge18_Node000031_Node000034"><a xlink:title=" ">
<path fill="none" stroke="#63b8ff" d="M617.26,-245.98C637.72,-259.54 667.68,-278.32 695.5,-291.75 698.74,-293.31 702.1,-294.84 705.52,-296.32"/>
<polygon fill="#63b8ff" stroke="#63b8ff" points="703.9,-299.44 714.48,-300.04 706.59,-292.98 703.9,-299.44"/>
</a>
</g>
</g>
<!-- Node36 -->
<g id="Node000036" class="node">
<title>Node36</title>
<g id="a_Node000036"><a xlink:href="kest__fpga__io_8c.html#a6900c9b759f1dccf1b3535cc76ad83e3" target="_top" xlink:title=" ">
<polygon fill="#fff0f0" stroke="red" points="835.62,-154.12 698.88,-154.12 698.88,-133.38 835.62,-133.38 835.62,-154.12"/>
<text xml:space="preserve" text-anchor="middle" x="767.25" y="-140.62" font-family="Helvetica,sans-Serif" font-size="10.00">kest_fpga_batch_append</text>
</a>
</g>
</g>
<!-- Node31&#45;&gt;Node36 -->
<g id="edge23_Node000031_Node000036" class="edge">
<title>Node31&#45;&gt;Node36</title>
<g id="a_edge23_Node000031_Node000036"><a xlink:title=" ">
<path fill="none" stroke="#63b8ff" d="M624.5,-211.61C635.77,-205.35 648.37,-198.02 659.5,-190.75 676.25,-179.81 677.57,-172.62 695.5,-163.75 699.5,-161.77 703.74,-159.96 708.06,-158.3"/>
<polygon fill="#63b8ff" stroke="#63b8ff" points="709.19,-161.61 717.48,-155.01 706.89,-155 709.19,-161.61"/>
</a>
</g>
</g>
<!-- Node40 -->
<g id="Node000040" class="node">
<title>Node40</title>
<g id="a_Node000040"><a xlink:href="kest__fpga__io_8c.html#a1d6d30e20ceac79973b36fd12e790aa5" target="_top" xlink:title=" ">
<polygon fill="#fff0f0" stroke="red" points="1029,-231.12 875,-231.12 875,-210.38 1029,-210.38 1029,-231.12"/>
<text xml:space="preserve" text-anchor="middle" x="952" y="-217.62" font-family="Helvetica,sans-Serif" font-size="10.00">kest_fpga_batch_append_16</text>
</a>
</g>
</g>
<!-- Node31&#45;&gt;Node40 -->
<g id="edge24_Node000031_Node000040" class="edge">
<title>Node31&#45;&gt;Node40</title>
<g id="a_edge24_Node000031_Node000040"><a xlink:title=" ">
<path fill="none" stroke="#63b8ff" d="M659.63,-227.25C717.26,-225.96 800.54,-224.1 863.31,-222.7"/>
<polygon fill="#63b8ff" stroke="#63b8ff" points="863.35,-226.2 873.27,-222.48 863.2,-219.21 863.35,-226.2"/>
</a>
</g>
</g>
<!-- Node42 -->
<g id="Node000042" class="node">
<title>Node42</title>
<g id="a_Node000042"><a xlink:href="kest__fpga__encoding_8c.html#a9b93bb2d500d5c9986515930a0f9ce47" target="_top" xlink:title=" ">
<polygon fill="white" stroke="#666666" points="835.62,-282.5 698.88,-282.5 698.88,-249 835.62,-249 835.62,-282.5"/>
<text xml:space="preserve" text-anchor="start" x="706.88" y="-269" font-family="Helvetica,sans-Serif" font-size="10.00">kest_fpga_batch_append</text>
<text xml:space="preserve" text-anchor="middle" x="767.25" y="-256.25" font-family="Helvetica,sans-Serif" font-size="10.00">_block_number</text>
</a>
</g>
</g>
<!-- Node31&#45;&gt;Node42 -->
<g id="edge25_Node000031_Node000042" class="edge">
<title>Node31&#45;&gt;Node42</title>
<g id="a_edge25_Node000031_Node000042"><a xlink:title=" ">
<path fill="none" stroke="#63b8ff" d="M659.94,-243.16C668.97,-245.08 678.29,-247.06 687.49,-249.01"/>
<polygon fill="#63b8ff" stroke="#63b8ff" points="686.63,-252.41 697.13,-251.06 688.08,-245.56 686.63,-252.41"/>
</a>
</g>
</g>
<!-- Node34&#45;&gt;Node5 -->
<g id="edge19_Node000034_Node000005" class="edge">
<title>Node34&#45;&gt;Node5</title>
<g id="a_edge19_Node000034_Node000005"><a xlink:title=" ">
<path fill="none" stroke="#63b8ff" d="M837.6,-317.75C852.41,-317.75 868.03,-317.75 882.79,-317.75"/>
<polygon fill="#63b8ff" stroke="#63b8ff" points="882.37,-321.25 892.37,-317.75 882.37,-314.25 882.37,-321.25"/>
</a>
</g>
</g>
<!-- Node34&#45;&gt;Node8 -->
<g id="edge20_Node000034_Node000008" class="edge">
<title>Node34&#45;&gt;Node8</title>
<g id="a_edge20_Node000034_Node000008"><a xlink:title=" ">
<path fill="none" stroke="#63b8ff" d="M828.85,-300.51C847.09,-295.32 867.18,-289.6 885.71,-284.33"/>
<polygon fill="#63b8ff" stroke="#63b8ff" points="886.6,-287.71 895.26,-281.61 884.69,-280.98 886.6,-287.71"/>
</a>
</g>
</g>
<!-- Node34&#45;&gt;Node25 -->
<g id="edge22_Node000034_Node000025" class="edge">
<title>Node34&#45;&gt;Node25</title>
<g id="a_edge22_Node000034_Node000025"><a xlink:title=" ">
<path fill="none" stroke="#63b8ff" d="M837.6,-334.83C856.92,-339.58 877.63,-344.68 896,-349.21"/>
<polygon fill="#63b8ff" stroke="#63b8ff" points="895.08,-352.59 905.63,-351.58 896.76,-345.79 895.08,-352.59"/>
</a>
</g>
</g>
<!-- Node35 -->
<g id="Node000035" class="node">
<title>Node35</title>
<g id="a_Node000035"><a xlink:href="kest__expr__scope_8c.html#a4b961bc6e7b1010aacc02440ff92a605" target="_top" xlink:title=" ">
<polygon fill="white" stroke="#666666" points="1003.12,-173.12 900.88,-173.12 900.88,-152.38 1003.12,-152.38 1003.12,-173.12"/>
<text xml:space="preserve" text-anchor="middle" x="952" y="-159.62" font-family="Helvetica,sans-Serif" font-size="10.00">kest_scope_count</text>
</a>
</g>
</g>
<!-- Node34&#45;&gt;Node35 -->
<g id="edge21_Node000034_Node000035" class="edge">
<title>Node34&#45;&gt;Node35</title>
<g id="a_edge21_Node000034_Node000035"><a xlink:title=" ">
<path fill="none" stroke="#63b8ff" d="M827.37,-300.63C831.58,-298.07 835.53,-295.12 839,-291.75 869.89,-261.72 846,-233.61 875,-201.75 883.96,-191.91 895.97,-184.18 907.8,-178.28"/>
<polygon fill="#63b8ff" stroke="#63b8ff" points="909.06,-181.56 916.69,-174.2 906.14,-175.2 909.06,-181.56"/>
</a>
</g>
</g>
<!-- Node42&#45;&gt;Node40 -->
<g id="edge26_Node000042_Node000040" class="edge">
<title>Node42&#45;&gt;Node40</title>
<g id="a_edge26_Node000042_Node000040"><a xlink:title=" ">
<path fill="none" stroke="#63b8ff" d="M836.04,-249.06C855.73,-244.21 876.99,-238.97 895.81,-234.34"/>
<polygon fill="#63b8ff" stroke="#63b8ff" points="896.54,-237.77 905.41,-231.98 894.86,-230.97 896.54,-237.77"/>
</a>
</g>
</g>
<!-- Node44 -->
<g id="Node000044" class="node">
<title>Node44</title>
<g id="a_Node000044"><a xlink:href="kest__fpga__encoding_8c.html#ac394803c8e9221fd364038f343070fcb" target="_top" xlink:title=" ">
<polygon fill="white" stroke="#666666" points="486.75,-181.5 350,-181.5 350,-148 486.75,-148 486.75,-181.5"/>
<text xml:space="preserve" text-anchor="start" x="358" y="-168" font-family="Helvetica,sans-Serif" font-size="10.00">kest_fpga_batch_append</text>
<text xml:space="preserve" text-anchor="middle" x="418.38" y="-155.25" font-family="Helvetica,sans-Serif" font-size="10.00">_resource_updates</text>
</a>
</g>
</g>
<!-- Node43&#45;&gt;Node44 -->
<g id="edge28_Node000043_Node000044" class="edge">
<title>Node43&#45;&gt;Node44</title>
<g id="a_edge28_Node000043_Node000044"><a xlink:title=" ">
<path fill="none" stroke="#63b8ff" d="M304.64,-164.75C315.55,-164.75 327.07,-164.75 338.41,-164.75"/>
<polygon fill="#63b8ff" stroke="#63b8ff" points="338.15,-168.25 348.15,-164.75 338.15,-161.25 338.15,-168.25"/>
</a>
</g>
</g>
<!-- Node45 -->
<g id="Node000045" class="node">
<title>Node45</title>
<g id="a_Node000045"><a xlink:href="kest__fpga__encoding_8c.html#a64f5333c5ff60101795695bce0de75d5" target="_top" xlink:title=" ">
<polygon fill="#fff0f0" stroke="red" points="659.5,-181.5 522.75,-181.5 522.75,-148 659.5,-148 659.5,-181.5"/>
<text xml:space="preserve" text-anchor="start" x="530.75" y="-168" font-family="Helvetica,sans-Serif" font-size="10.00">kest_fpga_batch_append</text>
<text xml:space="preserve" text-anchor="middle" x="591.12" y="-155.25" font-family="Helvetica,sans-Serif" font-size="10.00">_filter_updates</text>
</a>
</g>
</g>
<!-- Node44&#45;&gt;Node45 -->
<g id="edge29_Node000044_Node000045" class="edge">
<title>Node44&#45;&gt;Node45</title>
<g id="a_edge29_Node000044_Node000045"><a xlink:title=" ">
<path fill="none" stroke="#63b8ff" d="M486.86,-164.75C494.78,-164.75 502.91,-164.75 510.98,-164.75"/>
<polygon fill="#63b8ff" stroke="#63b8ff" points="510.78,-168.25 520.78,-164.75 510.78,-161.25 510.78,-168.25"/>
</a>
</g>
</g>
<!-- Node45&#45;&gt;Node33 -->
<g id="edge30_Node000045_Node000033" class="edge">
<title>Node45&#45;&gt;Node33</title>
<g id="a_edge30_Node000045_Node000033"><a xlink:title=" ">
<path fill="none" stroke="#63b8ff" d="M659.94,-171.76C667.86,-172.58 676,-173.42 684.09,-174.26"/>
<polygon fill="#63b8ff" stroke="#63b8ff" points="683.64,-177.73 693.95,-175.28 684.36,-170.77 683.64,-177.73"/>
</a>
</g>
</g>
<!-- Node45&#45;&gt;Node34 -->
<g id="edge31_Node000045_Node000034" class="edge">
<title>Node45&#45;&gt;Node34</title>
<g id="a_edge31_Node000045_Node000034"><a xlink:title=" ">
<path fill="none" stroke="#63b8ff" d="M632.77,-181.88C642.47,-187.44 652.14,-194.38 659.5,-202.75 687.66,-234.81 664.85,-262.07 695.5,-291.75 696.26,-292.49 697.04,-293.2 697.85,-293.9"/>
<polygon fill="#63b8ff" stroke="#63b8ff" points="695.76,-296.71 705.92,-299.73 699.86,-291.04 695.76,-296.71"/>
</a>
</g>
</g>
<!-- Node45&#45;&gt;Node36 -->
<g id="edge32_Node000045_Node000036" class="edge">
<title>Node45&#45;&gt;Node36</title>
<g id="a_edge32_Node000045_Node000036"><a xlink:title=" ">
<path fill="none" stroke="#63b8ff" d="M659.94,-156.57C668.87,-155.49 678.09,-154.38 687.19,-153.29"/>
<polygon fill="#63b8ff" stroke="#63b8ff" points="687.6,-156.76 697.11,-152.09 686.77,-149.81 687.6,-156.76"/>
</a>
</g>
</g>
<!-- Node45&#45;&gt;Node40 -->
<g id="edge33_Node000045_Node000040" class="edge">
<title>Node45&#45;&gt;Node40</title>
<g id="a_edge33_Node000045_Node000040"><a xlink:title=" ">
<path fill="none" stroke="#63b8ff" d="M623.52,-147.69C672.63,-123.52 769.22,-86.29 839,-124.75 865.24,-139.21 852.89,-161.53 875,-181.75 885.43,-191.29 898.63,-199.13 911.09,-205.22"/>
<polygon fill="#63b8ff" stroke="#63b8ff" points="909.38,-208.29 919.93,-209.28 912.31,-201.93 909.38,-208.29"/>
</a>
</g>
</g>
<!-- Node49 -->
<g id="Node000049" class="node">
<title>Node49</title>
<g id="a_Node000049"><a xlink:href="kest__fpga__io_8c.html#a97edca592b9ffe88eb99eb1466f915a8" target="_top" xlink:title=" ">
<polygon fill="white" stroke="#666666" points="471.75,-33.5 365,-33.5 365,0 471.75,0 471.75,-33.5"/>
<text xml:space="preserve" text-anchor="start" x="373" y="-20" font-family="Helvetica,sans-Serif" font-size="10.00">kest_fpga_transfer</text>
<text xml:space="preserve" text-anchor="middle" x="418.38" y="-7.25" font-family="Helvetica,sans-Serif" font-size="10.00">_batch_init</text>
</a>
</g>
</g>
<!-- Node48&#45;&gt;Node49 -->
<g id="edge35_Node000048_Node000049" class="edge">
<title>Node48&#45;&gt;Node49</title>
<g id="a_edge35_Node000048_Node000049"><a xlink:title=" ">
<path fill="none" stroke="#63b8ff" d="M309.55,-16.75C323.92,-16.75 339.12,-16.75 353.44,-16.75"/>
<polygon fill="#63b8ff" stroke="#63b8ff" points="353.18,-20.25 363.18,-16.75 353.18,-13.25 353.18,-20.25"/>
</a>
</g>
</g>
<!-- Node38 -->
<g id="Node000038" class="node">
<title>Node38</title>
<g id="a_Node000038"><a xlink:href="kest__alloc_8c.html#a849755c5dc5b35e712ffcdb602e50fb4" target="_top" xlink:title=" ">
<polygon fill="white" stroke="#666666" points="623.5,-27.12 558.75,-27.12 558.75,-6.38 623.5,-6.38 623.5,-27.12"/>
<text xml:space="preserve" text-anchor="middle" x="591.12" y="-13.62" font-family="Helvetica,sans-Serif" font-size="10.00">kest_alloc</text>
</a>
</g>
</g>
<!-- Node49&#45;&gt;Node38 -->
<g id="edge36_Node000049_Node000038" class="edge">
<title>Node49&#45;&gt;Node38</title>
<g id="a_edge36_Node000049_Node000038"><a xlink:title=" ">
<path fill="none" stroke="#63b8ff" d="M472,-16.75C496.03,-16.75 524.14,-16.75 546.91,-16.75"/>
<polygon fill="#63b8ff" stroke="#63b8ff" points="546.77,-20.25 556.77,-16.75 546.77,-13.25 546.77,-20.25"/>
</a>
</g>
</g>
<!-- Node50&#45;&gt;Node26 -->
<g id="edge39_Node000050_Node000026" class="edge">
<title>Node50&#45;&gt;Node26</title>
<g id="a_edge39_Node000050_Node000026"><a xlink:title=" ">
<path fill="none" stroke="#63b8ff" d="M839.5,-71.45C897.27,-78.08 977.32,-95.98 1029,-143.75 1099.27,-208.7 1119.2,-329.6 1124.54,-378.94"/>
<polygon fill="#63b8ff" stroke="#63b8ff" points="1121.03,-378.99 1125.48,-388.6 1127.99,-378.31 1121.03,-378.99"/>
</a>
</g>
</g>
<!-- Node50&#45;&gt;Node35 -->
<g id="edge38_Node000050_Node000035" class="edge">
<title>Node50&#45;&gt;Node35</title>
<g id="a_edge38_Node000050_Node000035"><a xlink:title=" ">
<path fill="none" stroke="#63b8ff" d="M805.63,-78.58C816.6,-82.25 828.47,-86.71 839,-91.75 871.06,-107.08 905.18,-129.74 927.22,-145.31"/>
<polygon fill="#63b8ff" stroke="#63b8ff" points="925.04,-148.06 935.21,-151.03 929.12,-142.37 925.04,-148.06"/>
</a>
</g>
</g>
</g>
</svg>

<g id="navigator" transform="translate(0 0)" fill="#404254">
  <rect fill="#f2f5e9" fill-opacity="0.5" stroke="#606060" stroke-width=".5" x="0" y="0" width="60" height="60"/>
  <use id="zoomplus" xlink:href="#zoomPlus" x="17" y="9" onmousedown="handleZoom(evt,'in')"/>
  <use id="zoomminus" xlink:href="#zoomMin" x="42" y="9" onmousedown="handleZoom(evt,'out')"/>
  <use id="reset" xlink:href="#resetDef" x="30" y="36" onmousedown="handleReset()"/>
   <use id="arrowup" xlink:href="#arrowUp" x="0" y="0" onmousedown="handlePan(0,-1)"/>
  <use id="arrowright" xlink:href="#arrowRight" x="0" y="0" onmousedown="handlePan(1,0)"/>
  <use id="arrowdown" xlink:href="#arrowDown" x="0" y="0" onmousedown="handlePan(0,1)"/>
  <use id="arrowleft" xlink:href="#arrowLeft" x="0" y="0" onmousedown="handlePan(-1,0)"/>
</g>
<svg viewBox="0 0 15 15" width="100%" height="30px" preserveAspectRatio="xMaxYMin meet">
 <g id="arrow_out" transform="scale(0.3 0.3)">
  <a xlink:href="kest__effect_8c_a490655823471fa9f081e6252b13da30e_cgraph_org.svg" target="_base">
   <rect id="button" ry="5" rx="5" y="6" x="6" height="38" width="38"
        fill="#f2f5e9" fill-opacity="0.5" stroke="#606060" stroke-width="1.0"/>
   <path id="arrow"
     d="M 11.500037,31.436501 C 11.940474,20.09759 22.043105,11.32322 32.158766,21.979434 L 37.068811,17.246167 C 37.068811,17.246167 37.088388,32 37.088388,32 L 22.160133,31.978069 C 22.160133,31.978069 26.997745,27.140456 26.997745,27.140456 C 18.528582,18.264221 13.291696,25.230495 11.500037,31.436501 z"
     style="fill:#404040;"/>
  </a>
 </g>
</svg>

<style type='text/css'>
<![CDATA[
[data-mouse-over-selected='false'] { opacity: 0.7; }
[data-mouse-over-selected='true']  { opacity: 1.0; }
]]>
</style>
<script type="application/ecmascript"><![CDATA[
document.addEventListener('DOMContentLoaded', (event) => {
  highlightEdges();
  highlightAdjacentNodes();
});
]]></script>
</svg>
