<?xml version="1.0" encoding="UTF-8" standalone="no"?>
<!DOCTYPE svg PUBLIC "-//W3C//DTD SVG 1.1//EN"
 "http://www.w3.org/Graphics/SVG/1.1/DTD/svg11.dtd">
<!-- Generated by graphviz version 13.1.2 (20250808.2320)
 -->
<!-- Title: sw_field_cancel_cb Pages: 1 -->
<svg width="416pt" height="119pt"
 viewBox="0.00 0.00 416.00 119.00" xmlns="http://www.w3.org/2000/svg" xmlns:xlink="http://www.w3.org/1999/xlink">

<svg id="main" version="1.1" xmlns="http://www.w3.org/2000/svg" xmlns:xlink="http://www.w3.org/1999/xlink" xml:space="preserve">

<style type="text/css"><![CDATA[
.node, .edge {opacity: 0.7;}
.node.selected, .edge.selected {opacity: 1;}
.edge:hover path { stroke: red; }
.edge:hover polygon { stroke: red; fill: red; }
]]></style>
<script type="application/ecmascript" xlink:href="svg.min.js"/>
<svg id="graph" class="graph">
<g id="graph0" class="graph" transform="scale(1 1) rotate(0) translate(4 115.12)">
<title>sw_field_cancel_cb</title>
<!-- Node1 -->
<g id="Node000001" class="node">
<title>Node1</title>
<g id="a_Node000001"><a xlink:title=" ">
<polygon fill="#999999" stroke="#666666" points="109.75,-72.12 0,-72.12 0,-51.38 109.75,-51.38 109.75,-72.12"/>
<text xml:space="preserve" text-anchor="middle" x="54.88" y="-58.62" font-family="Helvetica,sans-Serif" font-size="10.00">sw_field_cancel_cb</text>
</a>
</g>
</g>
<!-- Node2 -->
<g id="Node000002" class="node">
<title>Node2</title>
<g id="a_Node000002"><a xlink:href="kest__ui_8c.html#a449db99602c8ef93fb805362fec7fb1d" target="_top" xlink:title=" ">
<polygon fill="white" stroke="#666666" points="254,-111.12 166.75,-111.12 166.75,-90.38 254,-90.38 254,-111.12"/>
<text xml:space="preserve" text-anchor="middle" x="210.38" y="-97.62" font-family="Helvetica,sans-Serif" font-size="10.00">hide_keyboard</text>
</a>
</g>
</g>
<!-- Node1&#45;&gt;Node2 -->
<g id="edge1_Node000001_Node000002" class="edge">
<title>Node1&#45;&gt;Node2</title>
<g id="a_edge1_Node000001_Node000002"><a xlink:title=" ">
<path fill="none" stroke="#63b8ff" d="M98.63,-72.61C116.27,-77.1 136.92,-82.34 155.57,-87.08"/>
<polygon fill="#63b8ff" stroke="#63b8ff" points="154.56,-90.43 165.11,-89.5 156.28,-83.65 154.56,-90.43"/>
</a>
</g>
</g>
<!-- Node4 -->
<g id="Node000004" class="node">
<title>Node4</title>
<g id="a_Node000004"><a xlink:href="kest__alloc_8c.html#a294af5728a94aa316fcf65304d388d48" target="_top" xlink:title=" ">
<polygon fill="white" stroke="#666666" points="240.88,-72.12 179.88,-72.12 179.88,-51.38 240.88,-51.38 240.88,-72.12"/>
<text xml:space="preserve" text-anchor="middle" x="210.38" y="-58.62" font-family="Helvetica,sans-Serif" font-size="10.00">kest_free</text>
</a>
</g>
</g>
<!-- Node1&#45;&gt;Node4 -->
<g id="edge3_Node000001_Node000004" class="edge">
<title>Node1&#45;&gt;Node4</title>
<g id="a_edge3_Node000001_Node000004"><a xlink:title=" ">
<path fill="none" stroke="#63b8ff" d="M109.99,-61.75C129.02,-61.75 150.08,-61.75 167.91,-61.75"/>
<polygon fill="#63b8ff" stroke="#63b8ff" points="167.86,-65.25 177.86,-61.75 167.86,-58.25 167.86,-65.25"/>
</a>
</g>
</g>
<!-- Node5 -->
<g id="Node000005" class="node">
<title>Node5</title>
<g id="a_Node000005"><a xlink:href="kest__parameter__widget_8c.html#a6d02165df4e3aabdb25a2ecd30eb6003" target="_top" xlink:title=" ">
<polygon fill="white" stroke="#666666" points="275,-33.5 145.75,-33.5 145.75,0 275,0 275,-33.5"/>
<text xml:space="preserve" text-anchor="start" x="153.75" y="-20" font-family="Helvetica,sans-Serif" font-size="10.00">sw_field_display_value</text>
<text xml:space="preserve" text-anchor="middle" x="210.38" y="-7.25" font-family="Helvetica,sans-Serif" font-size="10.00">_with_units</text>
</a>
</g>
</g>
<!-- Node1&#45;&gt;Node5 -->
<g id="edge4_Node000001_Node000005" class="edge">
<title>Node1&#45;&gt;Node5</title>
<g id="a_edge4_Node000001_Node000005"><a xlink:title=" ">
<path fill="none" stroke="#63b8ff" d="M92.64,-50.97C106.9,-46.79 123.72,-41.86 140.08,-37.07"/>
<polygon fill="#63b8ff" stroke="#63b8ff" points="140.67,-40.54 149.28,-34.37 138.7,-33.82 140.67,-40.54"/>
</a>
</g>
</g>
<!-- Node3 -->
<g id="Node000003" class="node">
<title>Node3</title>
<g id="a_Node000003"><a xlink:href="kest__ui_8c.html#a96fe008303dd9cb0c877ce05cba93952" target="_top" xlink:title=" ">
<polygon fill="white" stroke="#666666" points="408,-111.12 311,-111.12 311,-90.38 408,-90.38 408,-111.12"/>
<text xml:space="preserve" text-anchor="middle" x="359.5" y="-97.62" font-family="Helvetica,sans-Serif" font-size="10.00">delete_keyboard</text>
</a>
</g>
</g>
<!-- Node2&#45;&gt;Node3 -->
<g id="edge2_Node000002_Node000003" class="edge">
<title>Node2&#45;&gt;Node3</title>
<g id="a_edge2_Node000002_Node000003"><a xlink:title=" ">
<path fill="none" stroke="#63b8ff" d="M254.33,-100.75C268.38,-100.75 284.26,-100.75 299.3,-100.75"/>
<polygon fill="#63b8ff" stroke="#63b8ff" points="299.08,-104.25 309.08,-100.75 299.08,-97.25 299.08,-104.25"/>
</a>
</g>
</g>
</g>
</svg>
</svg>

<style type='text/css'>
<![CDATA[
[data-mouse-over-selected='false'] { opacity: 0.7; }
[data-mouse-over-selected='true']  { opacity: 1.0; }
]]>
</style>
<script type="application/ecmascript"><![CDATA[
document.addEventListener('DOMContentLoaded', (event) => {
  highlightEdges();
  highlightAdjacentNodes();
});
]]></script>
</svg>
