<?xml version="1.0" encoding="UTF-8" standalone="no"?>
<!DOCTYPE svg PUBLIC "-//W3C//DTD SVG 1.1//EN"
 "http://www.w3.org/Graphics/SVG/1.1/DTD/svg11.dtd">
<!-- Generated by graphviz version 13.1.2 (20250808.2320)
 -->
<!-- Title: kest_parameter_widget_refresh Pages: 1 -->
<!--zoomable 132 -->

<svg id="main" version="1.1" xmlns="http://www.w3.org/2000/svg" xmlns:xlink="http://www.w3.org/1999/xlink" xml:space="preserve" onload="init(evt)">

<style type="text/css"><![CDATA[
.node, .edge {opacity: 0.7;}
.node.selected, .edge.selected {opacity: 1;}
.edge:hover path { stroke: red; }
.edge:hover polygon { stroke: red; fill: red; }
]]></style>

<defs>
  <circle id="rim" cx="0" cy="0" r="7"/>
  <circle id="rim2" cx="0" cy="0" r="3.5"/>
  <g id="zoomPlus">
    <use xlink:href="#rim" fill="#404040"><set attributeName="fill" to="#808080" begin="zoomplus.mouseover" end="zoomplus.mouseout"/></use>
    <path d="M-4,0h8M0,-4v8" fill="none" stroke="white" stroke-width="1.5" pointer-events="none"/>
  </g>
  <g id="zoomMin">
    <use xlink:href="#rim" fill="#404040"><set attributeName="fill" to="#808080" begin="zoomminus.mouseover" end="zoomminus.mouseout"/></use>
    <path d="M-4,0h8" fill="none" stroke="white" stroke-width="1.5" pointer-events="none"/>
  </g>
  <g id="arrowUp" transform="translate(30 24)">
    <use xlink:href="#rim"/>
    <path pointer-events="none" fill="none" stroke="white" stroke-width="1.5" d="M0,-3.0v7 M-2.5,-0.5L0,-3.0L2.5,-0.5"/>
  </g>
  <g id="arrowRight" transform="rotate(90) translate(36 -43)">
    <use xlink:href="#rim"/>
    <path pointer-events="none" fill="none" stroke="white" stroke-width="1.5" d="M0,-3.0v7 M-2.5,-0.5L0,-3.0L2.5,-0.5"/>
  </g>
  <g id="arrowDown" transform="rotate(180) translate(-30 -48)">
    <use xlink:href="#rim"/>
    <path pointer-events="none" fill="none" stroke="white" stroke-width="1.5" d="M0,-3.0v7 M-2.5,-0.5L0,-3.0L2.5,-0.5"/>
  </g>
  <g id="arrowLeft" transform="rotate(270) translate(-36 17)">
    <use xlink:href="#rim"/>
    <path pointer-events="none" fill="none" stroke="white" stroke-width="1.5" d="M0,-3.0v7 M-2.5,-0.5L0,-3.0L2.5,-0.5"/>
  </g>
  <g id="resetDef">
    <use xlink:href="#rim2" fill="#404040"><set attributeName="fill" to="#808080" begin="reset.mouseover" end="reset.mouseout"/></use>
  </g>
</defs>
<script type="application/ecmascript">
var viewWidth = 695;
var viewHeight = 132;
var sectionId = 'dynsection-11';
</script>
<script type="application/ecmascript" xlink:href="svg.min.js"/>
<svg id="graph" class="graph">
<g id="viewport">
<title>kest_parameter_widget_refresh</title>
<!-- Node1 -->
<g id="Node000001" class="node">
<title>Node1</title>
<g id="a_Node000001"><a xlink:title=" ">
<polygon fill="#999999" stroke="#666666" points="130.75,-59.5 0,-59.5 0,-26 130.75,-26 130.75,-59.5"/>
<text xml:space="preserve" text-anchor="start" x="8" y="-46" font-family="Helvetica,sans-Serif" font-size="10.00">kest_parameter_widget</text>
<text xml:space="preserve" text-anchor="middle" x="65.38" y="-33.25" font-family="Helvetica,sans-Serif" font-size="10.00">_refresh</text>
</a>
</g>
</g>
<!-- Node2 -->
<g id="Node000002" class="node">
<title>Node2</title>
<g id="a_Node000002"><a xlink:href="kest__parameter__widget_8c.html#abad910124e9bf706a008ab86f8bf70e6" target="_top" xlink:title=" ">
<polygon fill="white" stroke="#666666" points="311,-85.5 166.75,-85.5 166.75,-52 311,-52 311,-85.5"/>
<text xml:space="preserve" text-anchor="start" x="174.75" y="-72" font-family="Helvetica,sans-Serif" font-size="10.00">parameter_widget_update</text>
<text xml:space="preserve" text-anchor="middle" x="238.88" y="-59.25" font-family="Helvetica,sans-Serif" font-size="10.00">_value</text>
</a>
</g>
</g>
<!-- Node1&#45;&gt;Node2 -->
<g id="edge1_Node000001_Node000002" class="edge">
<title>Node1&#45;&gt;Node2</title>
<g id="a_edge1_Node000001_Node000002"><a xlink:title=" ">
<path fill="none" stroke="#63b8ff" d="M131.21,-52.58C139.01,-53.76 147.06,-54.98 155.07,-56.2"/>
<polygon fill="#63b8ff" stroke="#63b8ff" points="154.44,-59.64 164.85,-57.68 155.49,-52.72 154.44,-59.64"/>
</a>
</g>
</g>
<!-- Node26 -->
<g id="Node000026" class="node">
<title>Node26</title>
<g id="a_Node000026"><a xlink:href="kest__parameter__widget_8c.html#af345b51066bd1985326c50809d992fab" target="_top" xlink:title=" ">
<polygon fill="white" stroke="#666666" points="311,-33.5 166.75,-33.5 166.75,0 311,0 311,-33.5"/>
<text xml:space="preserve" text-anchor="start" x="174.75" y="-20" font-family="Helvetica,sans-Serif" font-size="10.00">parameter_widget_update</text>
<text xml:space="preserve" text-anchor="middle" x="238.88" y="-7.25" font-family="Helvetica,sans-Serif" font-size="10.00">_value_label</text>
</a>
</g>
</g>
<!-- Node1&#45;&gt;Node26 -->
<g id="edge6_Node000001_Node000026" class="edge">
<title>Node1&#45;&gt;Node26</title>
<g id="a_edge6_Node000001_Node000026"><a xlink:title=" ">
<path fill="none" stroke="#63b8ff" d="M131.21,-32.92C139.01,-31.74 147.06,-30.52 155.07,-29.3"/>
<polygon fill="#63b8ff" stroke="#63b8ff" points="155.49,-32.78 164.85,-27.82 154.44,-25.86 155.49,-32.78"/>
</a>
</g>
</g>
<!-- Node3 -->
<g id="Node000003" class="node">
<title>Node3</title>
<g id="a_Node000003"><a xlink:href="kest__parameter_8c.html#add50be1dcdb97eec1d98e3e0564bf8d5" target="_top" xlink:title=" ">
<polygon fill="white" stroke="#666666" points="489,-124.12 348.5,-124.12 348.5,-103.38 489,-103.38 489,-124.12"/>
<text xml:space="preserve" text-anchor="middle" x="418.75" y="-110.62" font-family="Helvetica,sans-Serif" font-size="10.00">kest_parameter_evaluate</text>
</a>
</g>
</g>
<!-- Node2&#45;&gt;Node3 -->
<g id="edge2_Node000002_Node000003" class="edge">
<title>Node2&#45;&gt;Node3</title>
<g id="a_edge2_Node000002_Node000003"><a xlink:title=" ">
<path fill="none" stroke="#63b8ff" d="M307.88,-85.96C326.48,-90.66 346.36,-95.69 364.03,-100.16"/>
<polygon fill="#63b8ff" stroke="#63b8ff" points="362.99,-103.51 373.54,-102.57 364.7,-96.72 362.99,-103.51"/>
</a>
</g>
</g>
<!-- Node21 -->
<g id="Node000021" class="node">
<title>Node21</title>
<g id="a_Node000021"><a xlink:href="kest__parameter_8c.html#aed9bf2d04b704f1d4119124999a692e0" target="_top" xlink:title=" ">
<polygon fill="white" stroke="#666666" points="475.5,-85.5 362,-85.5 362,-52 475.5,-52 475.5,-85.5"/>
<text xml:space="preserve" text-anchor="start" x="370" y="-72" font-family="Helvetica,sans-Serif" font-size="10.00">kest_parameter_get</text>
<text xml:space="preserve" text-anchor="middle" x="418.75" y="-59.25" font-family="Helvetica,sans-Serif" font-size="10.00">_range</text>
</a>
</g>
</g>
<!-- Node2&#45;&gt;Node21 -->
<g id="edge4_Node000002_Node000021" class="edge">
<title>Node2&#45;&gt;Node21</title>
<g id="a_edge4_Node000002_Node000021"><a xlink:title=" ">
<path fill="none" stroke="#63b8ff" d="M311.45,-68.75C324.24,-68.75 337.53,-68.75 350.2,-68.75"/>
<polygon fill="#63b8ff" stroke="#63b8ff" points="350.11,-72.25 360.11,-68.75 350.11,-65.25 350.11,-72.25"/>
</a>
</g>
</g>
<!-- Node4 -->
<g id="Node000004" class="node">
<title>Node4</title>
<g id="a_Node000004"><a xlink:href="kest__parameter_8c.html#a15e6143699061c919fa9882de5b5b7f7" target="_top" xlink:title=" ">
<polygon fill="#fff0f0" stroke="red" points="687.25,-124.12 526.5,-124.12 526.5,-103.38 687.25,-103.38 687.25,-124.12"/>
<text xml:space="preserve" text-anchor="middle" x="606.88" y="-110.62" font-family="Helvetica,sans-Serif" font-size="10.00">kest_parameter_evaluate_rec</text>
</a>
</g>
</g>
<!-- Node3&#45;&gt;Node4 -->
<g id="edge3_Node000003_Node000004" class="edge">
<title>Node3&#45;&gt;Node4</title>
<g id="a_edge3_Node000003_Node000004"><a xlink:title=" ">
<path fill="none" stroke="#63b8ff" d="M489.32,-113.75C497.65,-113.75 506.25,-113.75 514.82,-113.75"/>
<polygon fill="#63b8ff" stroke="#63b8ff" points="514.54,-117.25 524.54,-113.75 514.54,-110.25 514.54,-117.25"/>
</a>
</g>
</g>
<!-- Node22 -->
<g id="Node000022" class="node">
<title>Node22</title>
<g id="a_Node000022"><a xlink:href="kest__parameter_8c.html#a7cf51c19ac7f4f01c97a788a7365c889" target="_top" xlink:title=" ">
<polygon fill="#fff0f0" stroke="red" points="663.62,-85.5 550.12,-85.5 550.12,-52 663.62,-52 663.62,-85.5"/>
<text xml:space="preserve" text-anchor="start" x="558.12" y="-72" font-family="Helvetica,sans-Serif" font-size="10.00">kest_parameter_get</text>
<text xml:space="preserve" text-anchor="middle" x="606.88" y="-59.25" font-family="Helvetica,sans-Serif" font-size="10.00">_range_rec</text>
</a>
</g>
</g>
<!-- Node21&#45;&gt;Node22 -->
<g id="edge5_Node000021_Node000022" class="edge">
<title>Node21&#45;&gt;Node22</title>
<g id="a_edge5_Node000021_Node000022"><a xlink:title=" ">
<path fill="none" stroke="#63b8ff" d="M475.85,-68.75C495.62,-68.75 518.06,-68.75 538.67,-68.75"/>
<polygon fill="#63b8ff" stroke="#63b8ff" points="538.38,-72.25 548.38,-68.75 538.38,-65.25 538.38,-72.25"/>
</a>
</g>
</g>
<!-- Node27 -->
<g id="Node000027" class="node">
<title>Node27</title>
<g id="a_Node000027"><a xlink:href="kest__parameter__widget_8c.html#a9a7e5431ab9599259aa5e2cfa47e6308" target="_top" xlink:title=" ">
<polygon fill="white" stroke="#666666" points="490.5,-33.5 347,-33.5 347,0 490.5,0 490.5,-33.5"/>
<text xml:space="preserve" text-anchor="start" x="355" y="-20" font-family="Helvetica,sans-Serif" font-size="10.00">format_parameter_widget</text>
<text xml:space="preserve" text-anchor="middle" x="418.75" y="-7.25" font-family="Helvetica,sans-Serif" font-size="10.00">_value_label</text>
</a>
</g>
</g>
<!-- Node26&#45;&gt;Node27 -->
<g id="edge7_Node000026_Node000027" class="edge">
<title>Node26&#45;&gt;Node27</title>
<g id="a_edge7_Node000026_Node000027"><a xlink:title=" ">
<path fill="none" stroke="#63b8ff" d="M311.45,-16.75C319.24,-16.75 327.21,-16.75 335.11,-16.75"/>
<polygon fill="#63b8ff" stroke="#63b8ff" points="335.09,-20.25 345.09,-16.75 335.09,-13.25 335.09,-20.25"/>
</a>
</g>
</g>
<!-- Node28 -->
<g id="Node000028" class="node">
<title>Node28</title>
<g id="a_Node000028"><a xlink:href="kest__helper__fn_8c.html#a840904866becc1161859f30852e94595" target="_top" xlink:title=" ">
<polygon fill="white" stroke="#666666" points="645.25,-27.12 568.5,-27.12 568.5,-6.38 645.25,-6.38 645.25,-27.12"/>
<text xml:space="preserve" text-anchor="middle" x="606.88" y="-13.62" font-family="Helvetica,sans-Serif" font-size="10.00">format_float</text>
</a>
</g>
</g>
<!-- Node27&#45;&gt;Node28 -->
<g id="edge8_Node000027_Node000028" class="edge">
<title>Node27&#45;&gt;Node28</title>
<g id="a_edge8_Node000027_Node000028"><a xlink:title=" ">
<path fill="none" stroke="#63b8ff" d="M490.91,-16.75C512.87,-16.75 536.56,-16.75 556.69,-16.75"/>
<polygon fill="#63b8ff" stroke="#63b8ff" points="556.58,-20.25 566.58,-16.75 556.58,-13.25 556.58,-20.25"/>
</a>
</g>
</g>
</g>
</svg>

<g id="navigator" transform="translate(0 0)" fill="#404254">
  <rect fill="#f2f5e9" fill-opacity="0.5" stroke="#606060" stroke-width=".5" x="0" y="0" width="60" height="60"/>
  <use id="zoomplus" xlink:href="#zoomPlus" x="17" y="9" onmousedown="handleZoom(evt,'in')"/>
  <use id="zoomminus" xlink:href="#zoomMin" x="42" y="9" onmousedown="handleZoom(evt,'out')"/>
  <use id="reset" xlink:href="#resetDef" x="30" y="36" onmousedown="handleReset()"/>
   <use id="arrowup" xlink:href="#arrowUp" x="0" y="0" onmousedown="handlePan(0,-1)"/>
  <use id="arrowright" xlink:href="#arrowRight" x="0" y="0" onmousedown="handlePan(1,0)"/>
  <use id="arrowdown" xlink:href="#arrowDown" x="0" y="0" onmousedown="handlePan(0,1)"/>
  <use id="arrowleft" xlink:href="#arrowLeft" x="0" y="0" onmousedown="handlePan(-1,0)"/>
</g>
<svg viewBox="0 0 15 15" width="100%" height="30px" preserveAspectRatio="xMaxYMin meet">
 <g id="arrow_out" transform="scale(0.3 0.3)">
  <a xlink:href="kest__parameter__widget_8h_a627573f8fb113b0b0beb013cb04ed61c_cgraph_org.svg" target="_base">
   <rect id="button" ry="5" rx="5" y="6" x="6" height="38" width="38"
        fill="#f2f5e9" fill-opacity="0.5" stroke="#606060" stroke-width="1.0"/>
   <path id="arrow"
     d="M 11.500037,31.436501 C 11.940474,20.09759 22.043105,11.32322 32.158766,21.979434 L 37.068811,17.246167 C 37.068811,17.246167 37.088388,32 37.088388,32 L 22.160133,31.978069 C 22.160133,31.978069 26.997745,27.140456 26.997745,27.140456 C 18.528582,18.264221 13.291696,25.230495 11.500037,31.436501 z"
     style="fill:#404040;"/>
  </a>
 </g>
</svg>

<style type='text/css'>
<![CDATA[
[data-mouse-over-selected='false'] { opacity: 0.7; }
[data-mouse-over-selected='true']  { opacity: 1.0; }
]]>
</style>
<script type="application/ecmascript"><![CDATA[
document.addEventListener('DOMContentLoaded', (event) => {
  highlightEdges();
  highlightAdjacentNodes();
});
]]></script>
</svg>
