<?xml version="1.0" encoding="UTF-8" standalone="no"?>
<!DOCTYPE svg PUBLIC "-//W3C//DTD SVG 1.1//EN"
 "http://www.w3.org/Graphics/SVG/1.1/DTD/svg11.dtd">
<!-- Generated by graphviz version 13.1.2 (20250808.2320)
 -->
<!-- Title: kest_puts Pages: 1 -->
<!--zoomable 302 -->

<svg id="main" version="1.1" xmlns="http://www.w3.org/2000/svg" xmlns:xlink="http://www.w3.org/1999/xlink" xml:space="preserve" onload="init(evt)">

<style type="text/css"><![CDATA[
.node, .edge {opacity: 0.7;}
.node.selected, .edge.selected {opacity: 1;}
.edge:hover path { stroke: red; }
.edge:hover polygon { stroke: red; fill: red; }
]]></style>

<defs>
  <circle id="rim" cx="0" cy="0" r="7"/>
  <circle id="rim2" cx="0" cy="0" r="3.5"/>
  <g id="zoomPlus">
    <use xlink:href="#rim" fill="#404040"><set attributeName="fill" to="#808080" begin="zoomplus.mouseover" end="zoomplus.mouseout"/></use>
    <path d="M-4,0h8M0,-4v8" fill="none" stroke="white" stroke-width="1.5" pointer-events="none"/>
  </g>
  <g id="zoomMin">
    <use xlink:href="#rim" fill="#404040"><set attributeName="fill" to="#808080" begin="zoomminus.mouseover" end="zoomminus.mouseout"/></use>
    <path d="M-4,0h8" fill="none" stroke="white" stroke-width="1.5" pointer-events="none"/>
  </g>
  <g id="arrowUp" transform="translate(30 24)">
    <use xlink:href="#rim"/>
    <path pointer-events="none" fill="none" stroke="white" stroke-width="1.5" d="M0,-3.0v7 M-2.5,-0.5L0,-3.0L2.5,-0.5"/>
  </g>
  <g id="arrowRight" transform="rotate(90) translate(36 -43)">
    <use xlink:href="#rim"/>
    <path pointer-events="none" fill="none" stroke="white" stroke-width="1.5" d="M0,-3.0v7 M-2.5,-0.5L0,-3.0L2.5,-0.5"/>
  </g>
  <g id="arrowDown" transform="rotate(180) translate(-30 -48)">
    <use xlink:href="#rim"/>
    <path pointer-events="none" fill="none" stroke="white" stroke-width="1.5" d="M0,-3.0v7 M-2.5,-0.5L0,-3.0L2.5,-0.5"/>
  </g>
  <g id="arrowLeft" transform="rotate(270) translate(-36 17)">
    <use xlink:href="#rim"/>
    <path pointer-events="none" fill="none" stroke="white" stroke-width="1.5" d="M0,-3.0v7 M-2.5,-0.5L0,-3.0L2.5,-0.5"/>
  </g>
  <g id="resetDef">
    <use xlink:href="#rim2" fill="#404040"><set attributeName="fill" to="#808080" begin="reset.mouseover" end="reset.mouseout"/></use>
  </g>
</defs>
<script type="application/ecmascript">
var viewWidth = 819;
var viewHeight = 302;
var sectionId = 'dynsection-2';
</script>
<script type="application/ecmascript" xlink:href="svg.min.js"/>
<svg id="graph" class="graph">
<g id="viewport">
<title>kest_puts</title>
<!-- Node1 -->
<g id="Node000001" class="node">
<title>Node1</title>
<g id="a_Node000001"><a xlink:title=" ">
<polygon fill="#999999" stroke="#666666" points="811.25,-194.75 748.75,-194.75 748.75,-174 811.25,-174 811.25,-194.75"/>
<text xml:space="preserve" text-anchor="middle" x="780" y="-181.25" font-family="Helvetica,sans-Serif" font-size="10.00">kest_puts</text>
</a>
</g>
</g>
<!-- Node2 -->
<g id="Node000002" class="node">
<title>Node2</title>
<g id="a_Node000002"><a xlink:href="kest__fpga__comms_8c.html#af36ffb3bf1675bf1f10ea6fb9e39b5e7" target="_top" xlink:title=" ">
<polygon fill="white" stroke="#666666" points="688.75,-293.75 571.5,-293.75 571.5,-273 688.75,-273 688.75,-293.75"/>
<text xml:space="preserve" text-anchor="middle" x="630.12" y="-280.25" font-family="Helvetica,sans-Serif" font-size="10.00">get_and_sprint_flags</text>
</a>
</g>
</g>
<!-- Node1&#45;&gt;Node2 -->
<g id="edge1_Node000001_Node000002" class="edge">
<title>Node1&#45;&gt;Node2</title>
<g id="a_edge1_Node000001_Node000002"><a xlink:title=" ">
<path fill="none" stroke="#63b8ff" d="M766.34,-204.11C754.45,-221.11 735.17,-245.11 712.75,-259.38 704.03,-264.93 693.97,-269.23 683.96,-272.57"/>
<polygon fill="#63b8ff" stroke="#63b8ff" points="768.93,-206.53 771.61,-196.28 763.12,-202.62 768.93,-206.53"/>
</a>
</g>
</g>
<!-- Node3 -->
<g id="Node000003" class="node">
<title>Node3</title>
<g id="a_Node000003"><a xlink:href="kest__fpga__comms_8c.html#a0e24c965de231bcab602b5b43acb805d" target="_top" xlink:title=" ">
<polygon fill="white" stroke="#666666" points="510.38,-273.12 378.12,-273.12 378.12,-239.62 510.38,-239.62 510.38,-273.12"/>
<text xml:space="preserve" text-anchor="start" x="386.12" y="-259.62" font-family="Helvetica,sans-Serif" font-size="10.00">kest_fpga_comms_print</text>
<text xml:space="preserve" text-anchor="middle" x="444.25" y="-246.88" font-family="Helvetica,sans-Serif" font-size="10.00">_full_scan</text>
</a>
</g>
</g>
<!-- Node1&#45;&gt;Node3 -->
<g id="edge4_Node000001_Node000003" class="edge">
<title>Node1&#45;&gt;Node3</title>
<g id="a_edge4_Node000001_Node000003"><a xlink:title=" ">
<path fill="none" stroke="#63b8ff" d="M757.23,-201.74C744.89,-210.63 728.77,-220.74 712.75,-226.38 646.63,-249.64 566.15,-255.94 510.85,-257.17"/>
<polygon fill="#63b8ff" stroke="#63b8ff" points="759.12,-204.7 765.02,-195.9 754.92,-199.1 759.12,-204.7"/>
</a>
</g>
</g>
<!-- Node17 -->
<g id="Node000017" class="node">
<title>Node17</title>
<g id="a_Node000017"><a xlink:href="kest__fpga__comms_8c.html#ad4528074bfb87a4810b6f01a9df53605" target="_top" xlink:title=" ">
<polygon fill="white" stroke="#666666" points="712.75,-217.75 547.5,-217.75 547.5,-197 712.75,-197 712.75,-217.75"/>
<text xml:space="preserve" text-anchor="middle" x="630.12" y="-204.25" font-family="Helvetica,sans-Serif" font-size="10.00">kest_fpga_print_command_log</text>
</a>
</g>
</g>
<!-- Node1&#45;&gt;Node17 -->
<g id="edge5_Node000001_Node000017" class="edge">
<title>Node1&#45;&gt;Node17</title>
<g id="a_edge5_Node000001_Node000017"><a xlink:title=" ">
<path fill="none" stroke="#63b8ff" d="M737.06,-190.9C725.73,-192.66 713.16,-194.62 700.75,-196.55"/>
<polygon fill="#63b8ff" stroke="#63b8ff" points="737.52,-194.37 746.86,-189.37 736.45,-187.45 737.52,-194.37"/>
</a>
</g>
</g>
<!-- Node20 -->
<g id="Node000020" class="node">
<title>Node20</title>
<g id="a_Node000020"><a xlink:href="kest__fpga__io_8c.html#a38a89d268857557d083c5e4696d54669" target="_top" xlink:title=" ">
<polygon fill="white" stroke="#666666" points="701.12,-179.12 559.12,-179.12 559.12,-145.62 701.12,-145.62 701.12,-179.12"/>
<text xml:space="preserve" text-anchor="start" x="567.12" y="-165.62" font-family="Helvetica,sans-Serif" font-size="10.00">kest_fpga_program_batch</text>
<text xml:space="preserve" text-anchor="middle" x="630.12" y="-152.88" font-family="Helvetica,sans-Serif" font-size="10.00">_send_careful</text>
</a>
</g>
</g>
<!-- Node1&#45;&gt;Node20 -->
<g id="edge9_Node000001_Node000020" class="edge">
<title>Node1&#45;&gt;Node20</title>
<g id="a_edge9_Node000001_Node000020"><a xlink:title=" ">
<path fill="none" stroke="#63b8ff" d="M737.21,-178.16C726.03,-176.49 713.63,-174.65 701.36,-172.82"/>
<polygon fill="#63b8ff" stroke="#63b8ff" points="736.46,-181.58 746.86,-179.59 737.49,-174.66 736.46,-181.58"/>
</a>
</g>
</g>
<!-- Node21 -->
<g id="Node000021" class="node">
<title>Node21</title>
<g id="a_Node000021"><a xlink:href="kest__fpga__io_8c.html#afff0ef19687a88fbb1505151ad4b041d" target="_top" xlink:title=" ">
<polygon fill="white" stroke="#666666" points="317.75,-149.12 190,-149.12 190,-115.62 317.75,-115.62 317.75,-149.12"/>
<text xml:space="preserve" text-anchor="start" x="198" y="-135.62" font-family="Helvetica,sans-Serif" font-size="10.00">kest_fpga_status_flags</text>
<text xml:space="preserve" text-anchor="middle" x="253.88" y="-122.88" font-family="Helvetica,sans-Serif" font-size="10.00">_print</text>
</a>
</g>
</g>
<!-- Node1&#45;&gt;Node21 -->
<g id="edge10_Node000001_Node000021" class="edge">
<title>Node1&#45;&gt;Node21</title>
<g id="a_edge10_Node000001_Node000021"><a xlink:title=" ">
<path fill="none" stroke="#63b8ff" d="M760.49,-166.08C748.1,-155.17 730.81,-142.32 712.75,-136.38 577.77,-91.96 408.05,-107.62 317.92,-121.12"/>
<polygon fill="#63b8ff" stroke="#63b8ff" points="758.11,-168.65 767.82,-172.87 762.86,-163.51 758.11,-168.65"/>
</a>
</g>
</g>
<!-- Node22 -->
<g id="Node000022" class="node">
<title>Node22</title>
<g id="a_Node000022"><a xlink:href="kest__fpga__io_8c.html#a705da035774b1be5ed1365126486649f" target="_top" xlink:title=" ">
<polygon fill="white" stroke="#666666" points="688,-89.12 572.25,-89.12 572.25,-55.62 688,-55.62 688,-89.12"/>
<text xml:space="preserve" text-anchor="start" x="580.25" y="-75.62" font-family="Helvetica,sans-Serif" font-size="10.00">kest_fpga_transfer</text>
<text xml:space="preserve" text-anchor="middle" x="630.12" y="-62.88" font-family="Helvetica,sans-Serif" font-size="10.00">_batch_send_careful</text>
</a>
</g>
</g>
<!-- Node1&#45;&gt;Node22 -->
<g id="edge12_Node000001_Node000022" class="edge">
<title>Node1&#45;&gt;Node22</title>
<g id="a_edge12_Node000001_Node000022"><a xlink:title=" ">
<path fill="none" stroke="#63b8ff" d="M766.79,-164.06C754.98,-145.93 735.55,-119.79 712.75,-103.38 705.25,-97.97 696.68,-93.38 687.99,-89.53"/>
<polygon fill="#63b8ff" stroke="#63b8ff" points="763.74,-165.79 772.03,-172.39 769.67,-162.06 763.74,-165.79"/>
</a>
</g>
</g>
<!-- Node2&#45;&gt;Node3 -->
<g id="edge2_Node000002_Node000003" class="edge">
<title>Node2&#45;&gt;Node3</title>
<g id="a_edge2_Node000002_Node000003"><a xlink:title=" ">
<path fill="none" stroke="#63b8ff" d="M560.14,-273.25C543.9,-270.86 526.64,-268.33 510.57,-265.97"/>
<polygon fill="#63b8ff" stroke="#63b8ff" points="559.3,-276.66 569.7,-274.65 560.32,-269.73 559.3,-276.66"/>
</a>
</g>
</g>
<!-- Node4 -->
<g id="Node000004" class="node">
<title>Node4</title>
<g id="a_Node000004"><a xlink:href="kest__fpga__comms_8c.html#a8f850777494bb4c4d61df3efbf31ca7c" target="_top" xlink:title=" ">
<polygon fill="#fff0f0" stroke="red" points="130.75,-119.75 0,-119.75 0,-99 130.75,-99 130.75,-119.75"/>
<text xml:space="preserve" text-anchor="middle" x="65.38" y="-106.25" font-family="Helvetica,sans-Serif" font-size="10.00">kest_fpga_comms_task</text>
</a>
</g>
</g>
<!-- Node3&#45;&gt;Node4 -->
<g id="edge3_Node000003_Node000004" class="edge">
<title>Node3&#45;&gt;Node4</title>
<g id="a_edge3_Node000003_Node000004"><a xlink:title=" ">
<path fill="none" stroke="#63b8ff" d="M366.44,-250.06C308.97,-242.94 229.76,-227.9 166.75,-196.38 127.77,-176.87 91.64,-138.75 75.39,-120.13"/>
<polygon fill="#63b8ff" stroke="#63b8ff" points="365.78,-253.51 376.13,-251.21 366.61,-246.56 365.78,-253.51"/>
</a>
</g>
</g>
<!-- Node18 -->
<g id="Node000018" class="node">
<title>Node18</title>
<g id="a_Node000018"><a xlink:href="kest__fpga__comms_8c.html#afb1a50f3f2d17cff2514ceb31fc6c75e" target="_top" xlink:title=" ">
<polygon fill="white" stroke="#666666" points="511.5,-221.75 377,-221.75 377,-201 511.5,-201 511.5,-221.75"/>
<text xml:space="preserve" text-anchor="middle" x="444.25" y="-208.25" font-family="Helvetica,sans-Serif" font-size="10.00">kest_command_log_test</text>
</a>
</g>
</g>
<!-- Node17&#45;&gt;Node18 -->
<g id="edge6_Node000017_Node000018" class="edge">
<title>Node17&#45;&gt;Node18</title>
<g id="a_edge6_Node000017_Node000018"><a xlink:title=" ">
<path fill="none" stroke="#63b8ff" d="M535.77,-209.41C527.73,-209.58 519.69,-209.76 511.92,-209.92"/>
<polygon fill="#63b8ff" stroke="#63b8ff" points="535.7,-212.91 545.62,-209.19 535.55,-205.91 535.7,-212.91"/>
</a>
</g>
</g>
<!-- Node19 -->
<g id="Node000019" class="node">
<title>Node19</title>
<g id="a_Node000019"><a xlink:href="kest__fpga__comms_8c.html#a3e920a831491fd407195cf3a0cf727c8" target="_top" xlink:title=" ">
<polygon fill="white" stroke="#666666" points="341,-187.75 166.75,-187.75 166.75,-167 341,-167 341,-187.75"/>
<text xml:space="preserve" text-anchor="middle" x="253.88" y="-174.25" font-family="Helvetica,sans-Serif" font-size="10.00">kest_fpga_handle_misalignment</text>
</a>
</g>
</g>
<!-- Node17&#45;&gt;Node19 -->
<g id="edge7_Node000017_Node000019" class="edge">
<title>Node17&#45;&gt;Node19</title>
<g id="a_edge7_Node000017_Node000019"><a xlink:title=" ">
<path fill="none" stroke="#63b8ff" d="M538.65,-195.2C529.49,-194.16 520.32,-193.19 511.5,-192.38 454.95,-187.12 391.22,-183.39 341.41,-180.96"/>
<polygon fill="#63b8ff" stroke="#63b8ff" points="537.96,-198.65 548.3,-196.33 538.77,-191.69 537.96,-198.65"/>
</a>
</g>
</g>
<!-- Node19&#45;&gt;Node4 -->
<g id="edge8_Node000019_Node000004" class="edge">
<title>Node19&#45;&gt;Node4</title>
<g id="a_edge8_Node000019_Node000004"><a xlink:title=" ">
<path fill="none" stroke="#63b8ff" d="M184.18,-163.77C178.23,-162.13 172.35,-160.33 166.75,-158.38 137.09,-148.03 104.77,-131.15 85.04,-120.16"/>
<polygon fill="#63b8ff" stroke="#63b8ff" points="182.88,-167.05 193.44,-166.18 184.64,-160.28 182.88,-167.05"/>
</a>
</g>
</g>
<!-- Node21&#45;&gt;Node4 -->
<g id="edge11_Node000021_Node000004" class="edge">
<title>Node21&#45;&gt;Node4</title>
<g id="a_edge11_Node000021_Node000004"><a xlink:title=" ">
<path fill="none" stroke="#63b8ff" d="M178.47,-123.2C162.77,-121.26 146.34,-119.24 131.04,-117.35"/>
<polygon fill="#63b8ff" stroke="#63b8ff" points="177.88,-126.65 188.23,-124.4 178.74,-119.71 177.88,-126.65"/>
</a>
</g>
</g>
<!-- Node23 -->
<g id="Node000023" class="node">
<title>Node23</title>
<g id="a_Node000023"><a xlink:href="kest__fpga__io_8c.html#ae911bef59743e59043a283dac1be0761" target="_top" xlink:title=" ">
<polygon fill="white" stroke="#666666" points="497.62,-81.12 390.88,-81.12 390.88,-47.62 497.62,-47.62 497.62,-81.12"/>
<text xml:space="preserve" text-anchor="start" x="398.88" y="-67.62" font-family="Helvetica,sans-Serif" font-size="10.00">kest_fpga_transfer</text>
<text xml:space="preserve" text-anchor="middle" x="444.25" y="-54.88" font-family="Helvetica,sans-Serif" font-size="10.00">_batch_send</text>
</a>
</g>
</g>
<!-- Node22&#45;&gt;Node23 -->
<g id="edge13_Node000022_Node000023" class="edge">
<title>Node22&#45;&gt;Node23</title>
<g id="a_edge13_Node000022_Node000023"><a xlink:title=" ">
<path fill="none" stroke="#63b8ff" d="M560.65,-69.4C539.94,-68.49 517.52,-67.52 498,-66.67"/>
<polygon fill="#63b8ff" stroke="#63b8ff" points="560.3,-72.88 570.44,-69.82 560.6,-65.89 560.3,-72.88"/>
</a>
</g>
</g>
<!-- Node23&#45;&gt;Node4 -->
<g id="edge14_Node000023_Node000004" class="edge">
<title>Node23&#45;&gt;Node4</title>
<g id="a_edge14_Node000023_Node000004"><a xlink:title=" ">
<path fill="none" stroke="#63b8ff" d="M379.29,-72.01C310.16,-80.27 200.57,-93.35 131.13,-101.64"/>
<polygon fill="#63b8ff" stroke="#63b8ff" points="379.43,-75.52 388.95,-70.86 378.6,-68.57 379.43,-75.52"/>
</a>
</g>
</g>
<!-- Node24 -->
<g id="Node000024" class="node">
<title>Node24</title>
<g id="a_Node000024"><a xlink:href="kest__fpga__io_8c.html#a0e6e4e058cfd8f3ec79208acb0f71aa6" target="_top" xlink:title=" ">
<polygon fill="white" stroke="#666666" points="323.75,-59.75 184,-59.75 184,-39 323.75,-39 323.75,-59.75"/>
<text xml:space="preserve" text-anchor="middle" x="253.88" y="-46.25" font-family="Helvetica,sans-Serif" font-size="10.00">kest_fpga_set_input_gain</text>
</a>
</g>
</g>
<!-- Node23&#45;&gt;Node24 -->
<g id="edge15_Node000023_Node000024" class="edge">
<title>Node23&#45;&gt;Node24</title>
<g id="a_edge15_Node000023_Node000024"><a xlink:title=" ">
<path fill="none" stroke="#63b8ff" d="M379.15,-59.27C361.44,-57.86 342.15,-56.32 324.16,-54.89"/>
<polygon fill="#63b8ff" stroke="#63b8ff" points="378.77,-62.75 389.02,-60.06 379.33,-55.77 378.77,-62.75"/>
</a>
</g>
</g>
<!-- Node25 -->
<g id="Node000025" class="node">
<title>Node25</title>
<g id="a_Node000025"><a xlink:href="kest__fpga__io_8c.html#a6569f6bf656d72080dd355179ac2c4e9" target="_top" xlink:title=" ">
<polygon fill="white" stroke="#666666" points="327.12,-20.75 180.62,-20.75 180.62,0 327.12,0 327.12,-20.75"/>
<text xml:space="preserve" text-anchor="middle" x="253.88" y="-7.25" font-family="Helvetica,sans-Serif" font-size="10.00">kest_fpga_set_output_gain</text>
</a>
</g>
</g>
<!-- Node23&#45;&gt;Node25 -->
<g id="edge17_Node000023_Node000025" class="edge">
<title>Node23&#45;&gt;Node25</title>
<g id="a_edge17_Node000023_Node000025"><a xlink:title=" ">
<path fill="none" stroke="#63b8ff" d="M384.11,-43.68C370.06,-39.04 355.06,-34.34 341,-30.38 329.48,-27.13 316.98,-24 305.17,-21.23"/>
<polygon fill="#63b8ff" stroke="#63b8ff" points="382.62,-46.87 393.21,-46.71 384.83,-40.23 382.62,-46.87"/>
</a>
</g>
</g>
<!-- Node24&#45;&gt;Node4 -->
<g id="edge16_Node000024_Node000004" class="edge">
<title>Node24&#45;&gt;Node4</title>
<g id="a_edge16_Node000024_Node000004"><a xlink:title=" ">
<path fill="none" stroke="#63b8ff" d="M200.55,-63.3C189.35,-66.46 177.62,-69.92 166.75,-73.38 142.23,-81.18 114.74,-91.12 94.74,-98.58"/>
<polygon fill="#63b8ff" stroke="#63b8ff" points="201.36,-66.71 210.06,-60.65 199.48,-59.96 201.36,-66.71"/>
</a>
</g>
</g>
<!-- Node25&#45;&gt;Node4 -->
<g id="edge18_Node000025_Node000004" class="edge">
<title>Node25&#45;&gt;Node4</title>
<g id="a_edge18_Node000025_Node000004"><a xlink:title=" ">
<path fill="none" stroke="#63b8ff" d="M180.15,-24.8C175.54,-26.47 171.03,-28.32 166.75,-30.38 129.76,-48.13 93.82,-81.48 76.72,-98.61"/>
<polygon fill="#63b8ff" stroke="#63b8ff" points="181.19,-28.15 189.61,-21.72 179.01,-21.49 181.19,-28.15"/>
</a>
</g>
</g>
</g>
</svg>

<g id="navigator" transform="translate(0 0)" fill="#404254">
  <rect fill="#f2f5e9" fill-opacity="0.5" stroke="#606060" stroke-width=".5" x="0" y="0" width="60" height="60"/>
  <use id="zoomplus" xlink:href="#zoomPlus" x="17" y="9" onmousedown="handleZoom(evt,'in')"/>
  <use id="zoomminus" xlink:href="#zoomMin" x="42" y="9" onmousedown="handleZoom(evt,'out')"/>
  <use id="reset" xlink:href="#resetDef" x="30" y="36" onmousedown="handleReset()"/>
   <use id="arrowup" xlink:href="#arrowUp" x="0" y="0" onmousedown="handlePan(0,-1)"/>
  <use id="arrowright" xlink:href="#arrowRight" x="0" y="0" onmousedown="handlePan(1,0)"/>
  <use id="arrowdown" xlink:href="#arrowDown" x="0" y="0" onmousedown="handlePan(0,1)"/>
  <use id="arrowleft" xlink:href="#arrowLeft" x="0" y="0" onmousedown="handlePan(-1,0)"/>
</g>
<svg viewBox="0 0 15 15" width="100%" height="30px" preserveAspectRatio="xMaxYMin meet">
 <g id="arrow_out" transform="scale(0.3 0.3)">
  <a xlink:href="kest__printf_8c_a258f845ff2725772e9a7b5b0a5efd522_icgraph_org.svg" target="_base">
   <rect id="button" ry="5" rx="5" y="6" x="6" height="38" width="38"
        fill="#f2f5e9" fill-opacity="0.5" stroke="#606060" stroke-width="1.0"/>
   <path id="arrow"
     d="M 11.500037,31.436501 C 11.940474,20.09759 22.043105,11.32322 32.158766,21.979434 L 37.068811,17.246167 C 37.068811,17.246167 37.088388,32 37.088388,32 L 22.160133,31.978069 C 22.160133,31.978069 26.997745,27.140456 26.997745,27.140456 C 18.528582,18.264221 13.291696,25.230495 11.500037,31.436501 z"
     style="fill:#404040;"/>
  </a>
 </g>
</svg>

<style type='text/css'>
<![CDATA[
[data-mouse-over-selected='false'] { opacity: 0.7; }
[data-mouse-over-selected='true']  { opacity: 1.0; }
]]>
</style>
<script type="application/ecmascript"><![CDATA[
document.addEventListener('DOMContentLoaded', (event) => {
  highlightEdges();
  highlightAdjacentNodes();
});
]]></script>
</svg>
