<?xml version="1.0" encoding="UTF-8" standalone="no"?>
<!DOCTYPE svg PUBLIC "-//W3C//DTD SVG 1.1//EN"
 "http://www.w3.org/Graphics/SVG/1.1/DTD/svg11.dtd">
<!-- Generated by graphviz version 13.1.2 (20250808.2320)
 -->
<!-- Title: kest_scope_add_setting Pages: 1 -->
<svg width="663pt" height="80pt"
 viewBox="0.00 0.00 663.00 80.00" xmlns="http://www.w3.org/2000/svg" xmlns:xlink="http://www.w3.org/1999/xlink">
<g id="graph0" class="graph" transform="scale(1 1) rotate(0) translate(4 76.12)">
<title>kest_scope_add_setting</title>
<!-- Node1 -->
<g id="Node000001" class="node">
<title>Node1</title>
<g id="a_Node000001"><a xlink:title=" ">
<polygon fill="#999999" stroke="#666666" points="655,-42.75 522.75,-42.75 522.75,-22 655,-22 655,-42.75"/>
<text xml:space="preserve" text-anchor="middle" x="588.88" y="-29.25" font-family="Helvetica,sans-Serif" font-size="10.00">kest_scope_add_setting</text>
</a>
</g>
</g>
<!-- Node2 -->
<g id="Node000002" class="node">
<title>Node2</title>
<g id="a_Node000002"><a xlink:href="kest__effect_8c.html#ae445771b304eac294929053417d2d93e" target="_top" xlink:title=" ">
<polygon fill="white" stroke="#666666" points="471,-72.12 365,-72.12 365,-38.62 471,-38.62 471,-72.12"/>
<text xml:space="preserve" text-anchor="start" x="373" y="-58.62" font-family="Helvetica,sans-Serif" font-size="10.00">kest_effect_create</text>
<text xml:space="preserve" text-anchor="middle" x="418" y="-45.88" font-family="Helvetica,sans-Serif" font-size="10.00">_scope</text>
</a>
</g>
</g>
<!-- Node1&#45;&gt;Node2 -->
<g id="edge1_Node000001_Node000002" class="edge">
<title>Node1&#45;&gt;Node2</title>
<g id="a_edge1_Node000001_Node000002"><a xlink:title=" ">
<path fill="none" stroke="#63b8ff" d="M511.31,-42.8C497.78,-44.65 483.97,-46.53 471.3,-48.25"/>
<polygon fill="#63b8ff" stroke="#63b8ff" points="511.65,-46.29 521.08,-41.47 510.7,-39.35 511.65,-46.29"/>
</a>
</g>
</g>
<!-- Node24 -->
<g id="Node000024" class="node">
<title>Node24</title>
<g id="a_Node000024"><a xlink:href="kest__expr__scope_8c.html#aafcbd1f8e613712ce1345fbc41aa76fb" target="_top" xlink:title=" ">
<polygon fill="white" stroke="#666666" points="486.75,-20.75 349.25,-20.75 349.25,0 486.75,0 486.75,-20.75"/>
<text xml:space="preserve" text-anchor="middle" x="418" y="-7.25" font-family="Helvetica,sans-Serif" font-size="10.00">kest_scope_add_settings</text>
</a>
</g>
</g>
<!-- Node1&#45;&gt;Node24 -->
<g id="edge4_Node000001_Node000024" class="edge">
<title>Node1&#45;&gt;Node24</title>
<g id="a_edge4_Node000001_Node000024"><a xlink:title=" ">
<path fill="none" stroke="#63b8ff" d="M511.31,-22.4C503.27,-21.35 495.13,-20.29 487.19,-19.26"/>
<polygon fill="#63b8ff" stroke="#63b8ff" points="510.71,-25.85 521.08,-23.67 511.62,-18.91 510.71,-25.85"/>
</a>
</g>
</g>
<!-- Node3 -->
<g id="Node000003" class="node">
<title>Node3</title>
<g id="a_Node000003"><a xlink:href="kest__effect_8c.html#a85b25e44e2629962673634f965ffe304" target="_top" xlink:title=" ">
<polygon fill="white" stroke="#666666" points="313.25,-65.75 157.75,-65.75 157.75,-45 313.25,-45 313.25,-65.75"/>
<text xml:space="preserve" text-anchor="middle" x="235.5" y="-52.25" font-family="Helvetica,sans-Serif" font-size="10.00">init_effect_from_effect_desc</text>
</a>
</g>
</g>
<!-- Node2&#45;&gt;Node3 -->
<g id="edge2_Node000002_Node000003" class="edge">
<title>Node2&#45;&gt;Node3</title>
<g id="a_edge2_Node000002_Node000003"><a xlink:title=" ">
<path fill="none" stroke="#63b8ff" d="M353.62,-55.38C340.64,-55.38 326.84,-55.38 313.44,-55.38"/>
<polygon fill="#63b8ff" stroke="#63b8ff" points="353.28,-58.88 363.28,-55.38 353.28,-51.88 353.28,-58.88"/>
</a>
</g>
</g>
<!-- Node4 -->
<g id="Node000004" class="node">
<title>Node4</title>
<g id="a_Node000004"><a xlink:href="kest__pipeline_8c.html#a0eff55a4103a090993bbac228a981af6" target="_top" xlink:title=" ">
<polygon fill="#fff0f0" stroke="red" points="121.75,-72.12 0,-72.12 0,-38.62 121.75,-38.62 121.75,-72.12"/>
<text xml:space="preserve" text-anchor="start" x="8" y="-58.62" font-family="Helvetica,sans-Serif" font-size="10.00">kest_pipeline_append</text>
<text xml:space="preserve" text-anchor="middle" x="60.88" y="-45.88" font-family="Helvetica,sans-Serif" font-size="10.00">_effect_eff</text>
</a>
</g>
</g>
<!-- Node3&#45;&gt;Node4 -->
<g id="edge3_Node000003_Node000004" class="edge">
<title>Node3&#45;&gt;Node4</title>
<g id="a_edge3_Node000003_Node000004"><a xlink:title=" ">
<path fill="none" stroke="#63b8ff" d="M145.93,-55.38C137.9,-55.38 129.9,-55.38 122.2,-55.38"/>
<polygon fill="#63b8ff" stroke="#63b8ff" points="145.76,-58.88 155.76,-55.38 145.76,-51.88 145.76,-58.88"/>
</a>
</g>
</g>
<!-- Node17 -->
<g id="Node000017" class="node">
<title>Node17</title>
<g id="a_Node000017"><a xlink:href="kest__eff__parser_8c.html#a73ef6962d1925857ec3e4b12d1aad834" target="_top" xlink:title=" ">
<polygon fill="#fff0f0" stroke="red" points="288.5,-20.75 182.5,-20.75 182.5,0 288.5,0 288.5,-20.75"/>
<text xml:space="preserve" text-anchor="middle" x="235.5" y="-7.25" font-family="Helvetica,sans-Serif" font-size="10.00">kest_parse_tokens</text>
</a>
</g>
</g>
<!-- Node24&#45;&gt;Node17 -->
<g id="edge5_Node000024_Node000017" class="edge">
<title>Node24&#45;&gt;Node17</title>
<g id="a_edge5_Node000024_Node000017"><a xlink:title=" ">
<path fill="none" stroke="#63b8ff" d="M337.45,-10.38C320.97,-10.38 304,-10.38 288.79,-10.38"/>
<polygon fill="#63b8ff" stroke="#63b8ff" points="337.25,-13.88 347.25,-10.38 337.25,-6.88 337.25,-13.88"/>
</a>
</g>
</g>
</g>
</svg>
