<?xml version="1.0" encoding="UTF-8" standalone="no"?>
<!DOCTYPE svg PUBLIC "-//W3C//DTD SVG 1.1//EN"
 "http://www.w3.org/Graphics/SVG/1.1/DTD/svg11.dtd">
<!-- Generated by graphviz version 13.1.2 (20250808.2320)
 -->
<!-- Title: kest_scope_add_settings Pages: 1 -->
<svg width="632pt" height="80pt"
 viewBox="0.00 0.00 632.00 80.00" xmlns="http://www.w3.org/2000/svg" xmlns:xlink="http://www.w3.org/1999/xlink">
<g id="graph0" class="graph" transform="scale(1 1) rotate(0) translate(4 76.12)">
<title>kest_scope_add_settings</title>
<!-- Node1 -->
<g id="Node000001" class="node">
<title>Node1</title>
<g id="a_Node000001"><a xlink:title=" ">
<polygon fill="#999999" stroke="#666666" points="137.5,-49.12 0,-49.12 0,-28.38 137.5,-28.38 137.5,-49.12"/>
<text xml:space="preserve" text-anchor="middle" x="68.75" y="-35.62" font-family="Helvetica,sans-Serif" font-size="10.00">kest_scope_add_settings</text>
</a>
</g>
</g>
<!-- Node2 -->
<g id="Node000002" class="node">
<title>Node2</title>
<g id="a_Node000002"><a xlink:href="kest__expr__scope_8c.html#ab072597a0c30b0752134fc79fe94adce" target="_top" xlink:title=" ">
<polygon fill="white" stroke="#666666" points="305.75,-49.12 173.5,-49.12 173.5,-28.38 305.75,-28.38 305.75,-49.12"/>
<text xml:space="preserve" text-anchor="middle" x="239.62" y="-35.62" font-family="Helvetica,sans-Serif" font-size="10.00">kest_scope_add_setting</text>
</a>
</g>
</g>
<!-- Node1&#45;&gt;Node2 -->
<g id="edge1_Node000001_Node000002" class="edge">
<title>Node1&#45;&gt;Node2</title>
<g id="a_edge1_Node000001_Node000002"><a xlink:title=" ">
<path fill="none" stroke="#63b8ff" d="M137.95,-38.75C145.76,-38.75 153.77,-38.75 161.68,-38.75"/>
<polygon fill="#63b8ff" stroke="#63b8ff" points="161.67,-42.25 171.67,-38.75 161.67,-35.25 161.67,-42.25"/>
</a>
</g>
</g>
<!-- Node3 -->
<g id="Node000003" class="node">
<title>Node3</title>
<g id="a_Node000003"><a xlink:href="kest__expr__scope_8c.html#ad79946658fac326d5b008ac06967d046" target="_top" xlink:title=" ">
<polygon fill="white" stroke="#666666" points="465.75,-72.12 341.75,-72.12 341.75,-51.38 465.75,-51.38 465.75,-72.12"/>
<text xml:space="preserve" text-anchor="middle" x="403.75" y="-58.62" font-family="Helvetica,sans-Serif" font-size="10.00">kest_scope_add_entry</text>
</a>
</g>
</g>
<!-- Node2&#45;&gt;Node3 -->
<g id="edge2_Node000002_Node000003" class="edge">
<title>Node2&#45;&gt;Node3</title>
<g id="a_edge2_Node000002_Node000003"><a xlink:title=" ">
<path fill="none" stroke="#63b8ff" d="M306.1,-48.04C314.04,-49.17 322.2,-50.32 330.24,-51.46"/>
<polygon fill="#63b8ff" stroke="#63b8ff" points="329.6,-54.91 339.99,-52.85 330.58,-47.98 329.6,-54.91"/>
</a>
</g>
</g>
<!-- Node4 -->
<g id="Node000004" class="node">
<title>Node4</title>
<g id="a_Node000004"><a xlink:href="kest__expr__scope_8c.html#a6b52f25decd27b53085d074e3c78e2e3" target="_top" xlink:title=" ">
<polygon fill="white" stroke="#666666" points="464.62,-33.5 342.88,-33.5 342.88,0 464.62,0 464.62,-33.5"/>
<text xml:space="preserve" text-anchor="start" x="350.88" y="-20" font-family="Helvetica,sans-Serif" font-size="10.00">kest_scope_entry_init</text>
<text xml:space="preserve" text-anchor="middle" x="403.75" y="-7.25" font-family="Helvetica,sans-Serif" font-size="10.00">_setting</text>
</a>
</g>
</g>
<!-- Node2&#45;&gt;Node4 -->
<g id="edge3_Node000002_Node000004" class="edge">
<title>Node2&#45;&gt;Node4</title>
<g id="a_edge3_Node000002_Node000004"><a xlink:title=" ">
<path fill="none" stroke="#63b8ff" d="M306.1,-29.87C314.38,-28.74 322.88,-27.59 331.25,-26.45"/>
<polygon fill="#63b8ff" stroke="#63b8ff" points="331.59,-29.94 341.03,-25.12 330.65,-23 331.59,-29.94"/>
</a>
</g>
</g>
<!-- Node5 -->
<g id="Node000005" class="node">
<title>Node5</title>
<g id="a_Node000005"><a xlink:href="kest__expr__scope_8c.html#af1ccd42dfd1a087c4b82e153bc29e043" target="_top" xlink:title=" ">
<polygon fill="white" stroke="#666666" points="623.5,-27.12 501.75,-27.12 501.75,-6.38 623.5,-6.38 623.5,-27.12"/>
<text xml:space="preserve" text-anchor="middle" x="562.62" y="-13.62" font-family="Helvetica,sans-Serif" font-size="10.00">kest_scope_entry_init</text>
</a>
</g>
</g>
<!-- Node4&#45;&gt;Node5 -->
<g id="edge4_Node000004_Node000005" class="edge">
<title>Node4&#45;&gt;Node5</title>
<g id="a_edge4_Node000004_Node000005"><a xlink:title=" ">
<path fill="none" stroke="#63b8ff" d="M464.95,-16.75C473.15,-16.75 481.63,-16.75 490,-16.75"/>
<polygon fill="#63b8ff" stroke="#63b8ff" points="489.81,-20.25 499.81,-16.75 489.81,-13.25 489.81,-20.25"/>
</a>
</g>
</g>
</g>
</svg>
