<?xml version="1.0" encoding="UTF-8" standalone="no"?>
<!DOCTYPE svg PUBLIC "-//W3C//DTD SVG 1.1//EN"
 "http://www.w3.org/Graphics/SVG/1.1/DTD/svg11.dtd">
<!-- Generated by graphviz version 13.1.2 (20250808.2320)
 -->
<!-- Title: kest_fpga_send_byte Pages: 1 -->
<!--zoomable 338 -->

<svg id="main" version="1.1" xmlns="http://www.w3.org/2000/svg" xmlns:xlink="http://www.w3.org/1999/xlink" xml:space="preserve" onload="init(evt)">

<style type="text/css"><![CDATA[
.node, .edge {opacity: 0.7;}
.node.selected, .edge.selected {opacity: 1;}
.edge:hover path { stroke: red; }
.edge:hover polygon { stroke: red; fill: red; }
]]></style>

<defs>
  <circle id="rim" cx="0" cy="0" r="7"/>
  <circle id="rim2" cx="0" cy="0" r="3.5"/>
  <g id="zoomPlus">
    <use xlink:href="#rim" fill="#404040"><set attributeName="fill" to="#808080" begin="zoomplus.mouseover" end="zoomplus.mouseout"/></use>
    <path d="M-4,0h8M0,-4v8" fill="none" stroke="white" stroke-width="1.5" pointer-events="none"/>
  </g>
  <g id="zoomMin">
    <use xlink:href="#rim" fill="#404040"><set attributeName="fill" to="#808080" begin="zoomminus.mouseover" end="zoomminus.mouseout"/></use>
    <path d="M-4,0h8" fill="none" stroke="white" stroke-width="1.5" pointer-events="none"/>
  </g>
  <g id="arrowUp" transform="translate(30 24)">
    <use xlink:href="#rim"/>
    <path pointer-events="none" fill="none" stroke="white" stroke-width="1.5" d="M0,-3.0v7 M-2.5,-0.5L0,-3.0L2.5,-0.5"/>
  </g>
  <g id="arrowRight" transform="rotate(90) translate(36 -43)">
    <use xlink:href="#rim"/>
    <path pointer-events="none" fill="none" stroke="white" stroke-width="1.5" d="M0,-3.0v7 M-2.5,-0.5L0,-3.0L2.5,-0.5"/>
  </g>
  <g id="arrowDown" transform="rotate(180) translate(-30 -48)">
    <use xlink:href="#rim"/>
    <path pointer-events="none" fill="none" stroke="white" stroke-width="1.5" d="M0,-3.0v7 M-2.5,-0.5L0,-3.0L2.5,-0.5"/>
  </g>
  <g id="arrowLeft" transform="rotate(270) translate(-36 17)">
    <use xlink:href="#rim"/>
    <path pointer-events="none" fill="none" stroke="white" stroke-width="1.5" d="M0,-3.0v7 M-2.5,-0.5L0,-3.0L2.5,-0.5"/>
  </g>
  <g id="resetDef">
    <use xlink:href="#rim2" fill="#404040"><set attributeName="fill" to="#808080" begin="reset.mouseover" end="reset.mouseout"/></use>
  </g>
</defs>
<script type="application/ecmascript">
var viewWidth = 607;
var viewHeight = 338;
var sectionId = 'dynsection-49';
</script>
<script type="application/ecmascript" xlink:href="svg.min.js"/>
<svg id="graph" class="graph">
<g id="viewport">
<title>kest_fpga_send_byte</title>
<!-- Node1 -->
<g id="Node000001" class="node">
<title>Node1</title>
<g id="a_Node000001"><a xlink:title=" ">
<polygon fill="#999999" stroke="#666666" points="598.75,-168.75 480,-168.75 480,-148 598.75,-148 598.75,-168.75"/>
<text xml:space="preserve" text-anchor="middle" x="539.38" y="-155.25" font-family="Helvetica,sans-Serif" font-size="10.00">kest_fpga_send_byte</text>
</a>
</g>
</g>
<!-- Node2 -->
<g id="Node000002" class="node">
<title>Node2</title>
<g id="a_Node000002"><a xlink:href="kest__fpga__comms_8c.html#afb1a50f3f2d17cff2514ceb31fc6c75e" target="_top" xlink:title=" ">
<polygon fill="white" stroke="#666666" points="424.12,-329.75 289.62,-329.75 289.62,-309 424.12,-309 424.12,-329.75"/>
<text xml:space="preserve" text-anchor="middle" x="356.88" y="-316.25" font-family="Helvetica,sans-Serif" font-size="10.00">kest_command_log_test</text>
</a>
</g>
</g>
<!-- Node1&#45;&gt;Node2 -->
<g id="edge1_Node000001_Node000002" class="edge">
<title>Node1&#45;&gt;Node2</title>
<g id="a_edge1_Node000001_Node000002"><a xlink:title=" ">
<path fill="none" stroke="#63b8ff" d="M530.37,-179.59C517.32,-211.14 488.39,-269.96 444,-300.38 438.06,-304.44 431.4,-307.66 424.49,-310.19"/>
<polygon fill="#63b8ff" stroke="#63b8ff" points="533.6,-180.95 534.03,-170.36 527.09,-178.36 533.6,-180.95"/>
</a>
</g>
</g>
<!-- Node3 -->
<g id="Node000003" class="node">
<title>Node3</title>
<g id="a_Node000003"><a xlink:href="kest__fpga__io_8c.html#ac4389d5b4fc4dc3806d9e9cc2195b6b4" target="_top" xlink:title=" ">
<polygon fill="white" stroke="#666666" points="420.38,-291.12 293.38,-291.12 293.38,-257.62 420.38,-257.62 420.38,-291.12"/>
<text xml:space="preserve" text-anchor="start" x="301.38" y="-277.62" font-family="Helvetica,sans-Serif" font-size="10.00">kest_fpga_commit_reg</text>
<text xml:space="preserve" text-anchor="middle" x="356.88" y="-264.88" font-family="Helvetica,sans-Serif" font-size="10.00">_updates</text>
</a>
</g>
</g>
<!-- Node1&#45;&gt;Node3 -->
<g id="edge2_Node000001_Node000003" class="edge">
<title>Node1&#45;&gt;Node3</title>
<g id="a_edge2_Node000001_Node000003"><a xlink:title=" ">
<path fill="none" stroke="#63b8ff" d="M522.74,-177.96C505.49,-198.33 475.92,-229.78 444,-248.38 436.71,-252.62 428.67,-256.23 420.51,-259.29"/>
<polygon fill="#63b8ff" stroke="#63b8ff" points="525.33,-180.32 529,-170.38 519.93,-175.86 525.33,-180.32"/>
</a>
</g>
</g>
<!-- Node4 -->
<g id="Node000004" class="node">
<title>Node4</title>
<g id="a_Node000004"><a xlink:href="kest__fpga__comms_8c.html#a0e24c965de231bcab602b5b43acb805d" target="_top" xlink:title=" ">
<polygon fill="white" stroke="#666666" points="423,-239.12 290.75,-239.12 290.75,-205.62 423,-205.62 423,-239.12"/>
<text xml:space="preserve" text-anchor="start" x="298.75" y="-225.62" font-family="Helvetica,sans-Serif" font-size="10.00">kest_fpga_comms_print</text>
<text xml:space="preserve" text-anchor="middle" x="356.88" y="-212.88" font-family="Helvetica,sans-Serif" font-size="10.00">_full_scan</text>
</a>
</g>
</g>
<!-- Node1&#45;&gt;Node4 -->
<g id="edge3_Node000001_Node000004" class="edge">
<title>Node1&#45;&gt;Node4</title>
<g id="a_edge3_Node000001_Node000004"><a xlink:title=" ">
<path fill="none" stroke="#63b8ff" d="M497.11,-173.01C470.11,-182.58 434.7,-195.13 406.36,-205.18"/>
<polygon fill="#63b8ff" stroke="#63b8ff" points="498.07,-176.38 506.33,-169.74 495.73,-169.78 498.07,-176.38"/>
</a>
</g>
</g>
<!-- Node5 -->
<g id="Node000005" class="node">
<title>Node5</title>
<g id="a_Node000005"><a xlink:href="kest__fpga__comms_8c.html#a8f850777494bb4c4d61df3efbf31ca7c" target="_top" xlink:title=" ">
<polygon fill="white" stroke="#666666" points="233.75,-168.75 103,-168.75 103,-148 233.75,-148 233.75,-168.75"/>
<text xml:space="preserve" text-anchor="middle" x="168.38" y="-155.25" font-family="Helvetica,sans-Serif" font-size="10.00">kest_fpga_comms_task</text>
</a>
</g>
</g>
<!-- Node1&#45;&gt;Node5 -->
<g id="edge7_Node000001_Node000005" class="edge">
<title>Node1&#45;&gt;Node5</title>
<g id="a_edge7_Node000001_Node000005"><a xlink:title=" ">
<path fill="none" stroke="#63b8ff" d="M468.55,-158.38C401.1,-158.38 299.76,-158.38 234.09,-158.38"/>
<polygon fill="#63b8ff" stroke="#63b8ff" points="468.39,-161.88 478.39,-158.38 468.39,-154.88 468.39,-161.88"/>
</a>
</g>
</g>
<!-- Node18 -->
<g id="Node000018" class="node">
<title>Node18</title>
<g id="a_Node000018"><a xlink:href="kest__fpga__comms_8c.html#a3e920a831491fd407195cf3a0cf727c8" target="_top" xlink:title=" ">
<polygon fill="white" stroke="#666666" points="444,-149.75 269.75,-149.75 269.75,-129 444,-129 444,-149.75"/>
<text xml:space="preserve" text-anchor="middle" x="356.88" y="-136.25" font-family="Helvetica,sans-Serif" font-size="10.00">kest_fpga_handle_misalignment</text>
</a>
</g>
</g>
<!-- Node1&#45;&gt;Node18 -->
<g id="edge8_Node000001_Node000018" class="edge">
<title>Node1&#45;&gt;Node18</title>
<g id="a_edge8_Node000001_Node000018"><a xlink:title=" ">
<path fill="none" stroke="#63b8ff" d="M468.41,-151.01C460.53,-150.18 452.43,-149.33 444.37,-148.48"/>
<polygon fill="#63b8ff" stroke="#63b8ff" points="467.96,-154.48 478.27,-152.05 468.69,-147.52 467.96,-154.48"/>
</a>
</g>
</g>
<!-- Node19 -->
<g id="Node000019" class="node">
<title>Node19</title>
<g id="a_Node000019"><a xlink:href="kest__fpga__io_8c.html#a76e50c684869ebdac1a1af4cd0d52cdd" target="_top" xlink:title=" ">
<polygon fill="white" stroke="#666666" points="442.12,-110.75 271.62,-110.75 271.62,-90 442.12,-90 442.12,-110.75"/>
<text xml:space="preserve" text-anchor="middle" x="356.88" y="-97.25" font-family="Helvetica,sans-Serif" font-size="10.00">kest_fpga_program_batch_send</text>
</a>
</g>
</g>
<!-- Node1&#45;&gt;Node19 -->
<g id="edge10_Node000001_Node000019" class="edge">
<title>Node1&#45;&gt;Node19</title>
<g id="a_edge10_Node000001_Node000019"><a xlink:title=" ">
<path fill="none" stroke="#63b8ff" d="M504.28,-143.16C486.55,-135.63 464.37,-126.8 444,-120.38 433.17,-116.96 421.4,-113.85 410.14,-111.15"/>
<polygon fill="#63b8ff" stroke="#63b8ff" points="502.74,-146.31 513.31,-147.05 505.51,-139.88 502.74,-146.31"/>
</a>
</g>
</g>
<!-- Node20 -->
<g id="Node000020" class="node">
<title>Node20</title>
<g id="a_Node000020"><a xlink:href="kest__fpga__io_8c.html#a38a89d268857557d083c5e4696d54669" target="_top" xlink:title=" ">
<polygon fill="white" stroke="#666666" points="427.88,-72.12 285.88,-72.12 285.88,-38.62 427.88,-38.62 427.88,-72.12"/>
<text xml:space="preserve" text-anchor="start" x="293.88" y="-58.62" font-family="Helvetica,sans-Serif" font-size="10.00">kest_fpga_program_batch</text>
<text xml:space="preserve" text-anchor="middle" x="356.88" y="-45.88" font-family="Helvetica,sans-Serif" font-size="10.00">_send_careful</text>
</a>
</g>
</g>
<!-- Node1&#45;&gt;Node20 -->
<g id="edge12_Node000001_Node000020" class="edge">
<title>Node1&#45;&gt;Node20</title>
<g id="a_edge12_Node000001_Node000020"><a xlink:title=" ">
<path fill="none" stroke="#63b8ff" d="M520.19,-139.82C502.26,-122.48 473.36,-96.99 444,-81.38 437.79,-78.07 431.11,-75.13 424.31,-72.52"/>
<polygon fill="#63b8ff" stroke="#63b8ff" points="517.41,-141.99 526.99,-146.53 522.33,-137.01 517.41,-141.99"/>
</a>
</g>
</g>
<!-- Node21 -->
<g id="Node000021" class="node">
<title>Node21</title>
<g id="a_Node000021"><a xlink:href="kest__fpga__io_8c.html#ad2aba672de53026a4a4c78bbd1c007eb" target="_top" xlink:title=" ">
<polygon fill="white" stroke="#666666" points="426,-20.75 287.75,-20.75 287.75,0 426,0 426,-20.75"/>
<text xml:space="preserve" text-anchor="middle" x="356.88" y="-7.25" font-family="Helvetica,sans-Serif" font-size="10.00">kest_fpga_readout_bytes</text>
</a>
</g>
</g>
<!-- Node1&#45;&gt;Node21 -->
<g id="edge13_Node000001_Node000021" class="edge">
<title>Node1&#45;&gt;Node21</title>
<g id="a_edge13_Node000001_Node000021"><a xlink:title=" ">
<path fill="none" stroke="#63b8ff" d="M529.03,-137.42C514.94,-108.38 485.44,-56.42 444,-29.38 438.49,-25.78 432.39,-22.85 426.08,-20.47"/>
<polygon fill="#63b8ff" stroke="#63b8ff" points="525.77,-138.72 533.17,-146.29 532.11,-135.75 525.77,-138.72"/>
</a>
</g>
</g>
<!-- Node4&#45;&gt;Node5 -->
<g id="edge4_Node000004_Node000005" class="edge">
<title>Node4&#45;&gt;Node5</title>
<g id="a_edge4_Node000004_Node000005"><a xlink:title=" ">
<path fill="none" stroke="#63b8ff" d="M295.06,-201.51C263.68,-190.74 226.7,-178.05 201.02,-169.23"/>
<polygon fill="#63b8ff" stroke="#63b8ff" points="293.87,-204.8 304.46,-204.73 296.14,-198.18 293.87,-204.8"/>
</a>
</g>
</g>
<!-- Node6 -->
<g id="Node000006" class="node">
<title>Node6</title>
<g id="a_Node000006"><a xlink:href="kest__int_8c.html#abce06be17fc37d675118a678a8100a36" target="_top" xlink:title=" ">
<polygon fill="white" stroke="#666666" points="65.5,-188.75 1.5,-188.75 1.5,-168 65.5,-168 65.5,-188.75"/>
<text xml:space="preserve" text-anchor="middle" x="33.5" y="-175.25" font-family="Helvetica,sans-Serif" font-size="10.00">app_main</text>
</a>
</g>
</g>
<!-- Node5&#45;&gt;Node6 -->
<g id="edge5_Node000005_Node000006" class="edge">
<title>Node5&#45;&gt;Node6</title>
<g id="a_edge5_Node000005_Node000006"><a xlink:title=" ">
<path fill="none" stroke="#63b8ff" d="M91.67,-169.77C82.53,-171.15 73.63,-172.48 65.68,-173.68"/>
<polygon fill="#63b8ff" stroke="#63b8ff" points="92.02,-173.26 101.39,-168.31 90.98,-166.33 92.02,-173.26"/>
</a>
</g>
</g>
<!-- Node7 -->
<g id="Node000007" class="node">
<title>Node7</title>
<g id="a_Node000007"><a xlink:href="kest__desktop_8c.html#ab499a4f71ef4cfc807b60d8739750c3e" target="_top" xlink:title=" ">
<polygon fill="#fff0f0" stroke="red" points="67,-149.75 0,-149.75 0,-129 67,-129 67,-149.75"/>
<text xml:space="preserve" text-anchor="middle" x="33.5" y="-136.25" font-family="Helvetica,sans-Serif" font-size="10.00">main_task</text>
</a>
</g>
</g>
<!-- Node5&#45;&gt;Node7 -->
<g id="edge6_Node000005_Node000007" class="edge">
<title>Node5&#45;&gt;Node7</title>
<g id="a_edge6_Node000005_Node000007"><a xlink:title=" ">
<path fill="none" stroke="#63b8ff" d="M91.66,-147.55C83.18,-146.34 74.91,-145.15 67.41,-144.08"/>
<polygon fill="#63b8ff" stroke="#63b8ff" points="90.99,-150.99 101.39,-148.94 91.98,-144.06 90.99,-150.99"/>
</a>
</g>
</g>
<!-- Node18&#45;&gt;Node5 -->
<g id="edge9_Node000018_Node000005" class="edge">
<title>Node18&#45;&gt;Node5</title>
<g id="a_edge9_Node000018_Node000005"><a xlink:title=" ">
<path fill="none" stroke="#63b8ff" d="M258.26,-149.32C250.06,-150.15 241.91,-150.99 234.05,-151.79"/>
<polygon fill="#63b8ff" stroke="#63b8ff" points="258.35,-152.83 267.94,-148.33 257.64,-145.86 258.35,-152.83"/>
</a>
</g>
</g>
<!-- Node19&#45;&gt;Node5 -->
<g id="edge11_Node000019_Node000005" class="edge">
<title>Node19&#45;&gt;Node5</title>
<g id="a_edge11_Node000019_Node000005"><a xlink:title=" ">
<path fill="none" stroke="#63b8ff" d="M293.04,-113.93C285.16,-115.94 277.24,-118.1 269.75,-120.38 243.9,-128.23 215.13,-139.38 195.04,-147.57"/>
<polygon fill="#63b8ff" stroke="#63b8ff" points="293.77,-117.36 302.64,-111.57 292.1,-110.56 293.77,-117.36"/>
</a>
</g>
</g>
</g>
</svg>

<g id="navigator" transform="translate(0 0)" fill="#404254">
  <rect fill="#f2f5e9" fill-opacity="0.5" stroke="#606060" stroke-width=".5" x="0" y="0" width="60" height="60"/>
  <use id="zoomplus" xlink:href="#zoomPlus" x="17" y="9" onmousedown="handleZoom(evt,'in')"/>
  <use id="zoomminus" xlink:href="#zoomMin" x="42" y="9" onmousedown="handleZoom(evt,'out')"/>
  <use id="reset" xlink:href="#resetDef" x="30" y="36" onmousedown="handleReset()"/>
   <use id="arrowup" xlink:href="#arrowUp" x="0" y="0" onmousedown="handlePan(0,-1)"/>
  <use id="arrowright" xlink:href="#arrowRight" x="0" y="0" onmousedown="handlePan(1,0)"/>
  <use id="arrowdown" xlink:href="#arrowDown" x="0" y="0" onmousedown="handlePan(0,1)"/>
  <use id="arrowleft" xlink:href="#arrowLeft" x="0" y="0" onmousedown="handlePan(-1,0)"/>
</g>
<svg viewBox="0 0 15 15" width="100%" height="30px" preserveAspectRatio="xMaxYMin meet">
 <g id="arrow_out" transform="scale(0.3 0.3)">
  <a xlink:href="kest__fpga__io_8h_a5151b31faf4c75059d9d8bd1d27fa5f9_icgraph_org.svg" target="_base">
   <rect id="button" ry="5" rx="5" y="6" x="6" height="38" width="38"
        fill="#f2f5e9" fill-opacity="0.5" stroke="#606060" stroke-width="1.0"/>
   <path id="arrow"
     d="M 11.500037,31.436501 C 11.940474,20.09759 22.043105,11.32322 32.158766,21.979434 L 37.068811,17.246167 C 37.068811,17.246167 37.088388,32 37.088388,32 L 22.160133,31.978069 C 22.160133,31.978069 26.997745,27.140456 26.997745,27.140456 C 18.528582,18.264221 13.291696,25.230495 11.500037,31.436501 z"
     style="fill:#404040;"/>
  </a>
 </g>
</svg>

<style type='text/css'>
<![CDATA[
[data-mouse-over-selected='false'] { opacity: 0.7; }
[data-mouse-over-selected='true']  { opacity: 1.0; }
]]>
</style>
<script type="application/ecmascript"><![CDATA[
document.addEventListener('DOMContentLoaded', (event) => {
  highlightEdges();
  highlightAdjacentNodes();
});
]]></script>
</svg>
