<?xml version="1.0" encoding="UTF-8" standalone="no"?>
<!DOCTYPE svg PUBLIC "-//W3C//DTD SVG 1.1//EN"
 "http://www.w3.org/Graphics/SVG/1.1/DTD/svg11.dtd">
<!-- Generated by graphviz version 13.1.2 (20250808.2320)
 -->
<!-- Title: cxt_get_preset_by_fname Pages: 1 -->
<!--zoomable 119 -->

<svg id="main" version="1.1" xmlns="http://www.w3.org/2000/svg" xmlns:xlink="http://www.w3.org/1999/xlink" xml:space="preserve" onload="init(evt)">

<style type="text/css"><![CDATA[
.node, .edge {opacity: 0.7;}
.node.selected, .edge.selected {opacity: 1;}
.edge:hover path { stroke: red; }
.edge:hover polygon { stroke: red; fill: red; }
]]></style>

<defs>
  <circle id="rim" cx="0" cy="0" r="7"/>
  <circle id="rim2" cx="0" cy="0" r="3.5"/>
  <g id="zoomPlus">
    <use xlink:href="#rim" fill="#404040"><set attributeName="fill" to="#808080" begin="zoomplus.mouseover" end="zoomplus.mouseout"/></use>
    <path d="M-4,0h8M0,-4v8" fill="none" stroke="white" stroke-width="1.5" pointer-events="none"/>
  </g>
  <g id="zoomMin">
    <use xlink:href="#rim" fill="#404040"><set attributeName="fill" to="#808080" begin="zoomminus.mouseover" end="zoomminus.mouseout"/></use>
    <path d="M-4,0h8" fill="none" stroke="white" stroke-width="1.5" pointer-events="none"/>
  </g>
  <g id="arrowUp" transform="translate(30 24)">
    <use xlink:href="#rim"/>
    <path pointer-events="none" fill="none" stroke="white" stroke-width="1.5" d="M0,-3.0v7 M-2.5,-0.5L0,-3.0L2.5,-0.5"/>
  </g>
  <g id="arrowRight" transform="rotate(90) translate(36 -43)">
    <use xlink:href="#rim"/>
    <path pointer-events="none" fill="none" stroke="white" stroke-width="1.5" d="M0,-3.0v7 M-2.5,-0.5L0,-3.0L2.5,-0.5"/>
  </g>
  <g id="arrowDown" transform="rotate(180) translate(-30 -48)">
    <use xlink:href="#rim"/>
    <path pointer-events="none" fill="none" stroke="white" stroke-width="1.5" d="M0,-3.0v7 M-2.5,-0.5L0,-3.0L2.5,-0.5"/>
  </g>
  <g id="arrowLeft" transform="rotate(270) translate(-36 17)">
    <use xlink:href="#rim"/>
    <path pointer-events="none" fill="none" stroke="white" stroke-width="1.5" d="M0,-3.0v7 M-2.5,-0.5L0,-3.0L2.5,-0.5"/>
  </g>
  <g id="resetDef">
    <use xlink:href="#rim2" fill="#404040"><set attributeName="fill" to="#808080" begin="reset.mouseover" end="reset.mouseout"/></use>
  </g>
</defs>
<script type="application/ecmascript">
var viewWidth = 732;
var viewHeight = 119;
var sectionId = 'dynsection-11';
</script>
<script type="application/ecmascript" xlink:href="svg.min.js"/>
<svg id="graph" class="graph">
<g id="viewport">
<title>cxt_get_preset_by_fname</title>
<!-- Node1 -->
<g id="Node000001" class="node">
<title>Node1</title>
<g id="a_Node000001"><a xlink:title=" ">
<polygon fill="#999999" stroke="#666666" points="724.25,-65.75 582.25,-65.75 582.25,-45 724.25,-45 724.25,-65.75"/>
<text xml:space="preserve" text-anchor="middle" x="653.25" y="-52.25" font-family="Helvetica,sans-Serif" font-size="10.00">cxt_get_preset_by_fname</text>
</a>
</g>
</g>
<!-- Node2 -->
<g id="Node000002" class="node">
<title>Node2</title>
<g id="a_Node000002"><a xlink:href="kest__state_8c.html#ab26da214ed0f9d143d63e80a7012796b" target="_top" xlink:title=" ">
<polygon fill="white" stroke="#666666" points="367.12,-110.75 240.88,-110.75 240.88,-90 367.12,-90 367.12,-110.75"/>
<text xml:space="preserve" text-anchor="middle" x="304" y="-97.25" font-family="Helvetica,sans-Serif" font-size="10.00">kest_cxt_restore_state</text>
</a>
</g>
</g>
<!-- Node1&#45;&gt;Node2 -->
<g id="edge1_Node000001_Node000002" class="edge">
<title>Node1&#45;&gt;Node2</title>
<g id="a_edge1_Node000001_Node000002"><a xlink:title=" ">
<path fill="none" stroke="#63b8ff" d="M584.89,-68.18C572.09,-70.41 558.77,-72.58 546.25,-74.38 485.68,-83.06 416.18,-90.26 367.38,-94.86"/>
<polygon fill="#63b8ff" stroke="#63b8ff" points="585.25,-71.67 594.49,-66.48 584.03,-64.78 585.25,-71.67"/>
</a>
</g>
</g>
<!-- Node22 -->
<g id="Node000022" class="node">
<title>Node22</title>
<g id="a_Node000022"><a xlink:href="kest__page__id_8c.html#a63b55de25f16c715b468429c78e79af0" target="_top" xlink:title=" ">
<polygon fill="white" stroke="#666666" points="543.25,-65.75 410.25,-65.75 410.25,-45 543.25,-45 543.25,-65.75"/>
<text xml:space="preserve" text-anchor="middle" x="476.75" y="-52.25" font-family="Helvetica,sans-Serif" font-size="10.00">kest_page_id_find_page</text>
</a>
</g>
</g>
<!-- Node1&#45;&gt;Node22 -->
<g id="edge4_Node000001_Node000022" class="edge">
<title>Node1&#45;&gt;Node22</title>
<g id="a_edge4_Node000001_Node000022"><a xlink:title=" ">
<path fill="none" stroke="#63b8ff" d="M570.47,-55.38C561.49,-55.38 552.44,-55.38 543.69,-55.38"/>
<polygon fill="#63b8ff" stroke="#63b8ff" points="570.26,-58.88 580.26,-55.38 570.26,-51.88 570.26,-58.88"/>
</a>
</g>
</g>
<!-- Node24 -->
<g id="Node000024" class="node">
<title>Node24</title>
<g id="a_Node000024"><a xlink:href="kest__files_8c.html#adecfc697f2f60941218706b2cd77f00c" target="_top" xlink:title=" ">
<polygon fill="white" stroke="#666666" points="546.25,-23.75 407.25,-23.75 407.25,-3 546.25,-3 546.25,-23.75"/>
<text xml:space="preserve" text-anchor="middle" x="476.75" y="-10.25" font-family="Helvetica,sans-Serif" font-size="10.00">read_sequence_from_file</text>
</a>
</g>
</g>
<!-- Node1&#45;&gt;Node24 -->
<g id="edge7_Node000001_Node000024" class="edge">
<title>Node1&#45;&gt;Node24</title>
<g id="a_edge7_Node000001_Node000024"><a xlink:title=" ">
<path fill="none" stroke="#63b8ff" d="M596.33,-41.92C572.58,-36.2 545.27,-29.63 522.84,-24.23"/>
<polygon fill="#63b8ff" stroke="#63b8ff" points="595.3,-45.27 605.84,-44.2 596.94,-38.46 595.3,-45.27"/>
</a>
</g>
</g>
<!-- Node3 -->
<g id="Node000003" class="node">
<title>Node3</title>
<g id="a_Node000003"><a xlink:href="kest__init_8c.html#ad1373cd24ac2876b2830d1ad2eb92721" target="_top" xlink:title=" ">
<polygon fill="white" stroke="#666666" points="200.75,-65.75 143.5,-65.75 143.5,-45 200.75,-45 200.75,-65.75"/>
<text xml:space="preserve" text-anchor="middle" x="172.12" y="-52.25" font-family="Helvetica,sans-Serif" font-size="10.00">kest_init</text>
</a>
</g>
</g>
<!-- Node2&#45;&gt;Node3 -->
<g id="edge2_Node000002_Node000003" class="edge">
<title>Node2&#45;&gt;Node3</title>
<g id="a_edge2_Node000002_Node000003"><a xlink:title=" ">
<path fill="none" stroke="#63b8ff" d="M251.54,-86.21C246.52,-84.65 241.52,-83.03 236.75,-81.38 223.67,-76.84 209.38,-71.08 197.66,-66.13"/>
<polygon fill="#63b8ff" stroke="#63b8ff" points="250.46,-89.54 261.04,-89.08 252.48,-82.84 250.46,-89.54"/>
</a>
</g>
</g>
<!-- Node4 -->
<g id="Node000004" class="node">
<title>Node4</title>
<g id="a_Node000004"><a xlink:href="kest__event_8c.html#ad7148b990af9fe15dae1b2093872732b" target="_top" xlink:title=" ">
<polygon fill="#fff0f0" stroke="red" points="107.5,-65.75 0,-65.75 0,-45 107.5,-45 107.5,-65.75"/>
<text xml:space="preserve" text-anchor="middle" x="53.75" y="-52.25" font-family="Helvetica,sans-Serif" font-size="10.00">kest_event_handle</text>
</a>
</g>
</g>
<!-- Node3&#45;&gt;Node4 -->
<g id="edge3_Node000003_Node000004" class="edge">
<title>Node3&#45;&gt;Node4</title>
<g id="a_edge3_Node000003_Node000004"><a xlink:title=" ">
<path fill="none" stroke="#63b8ff" d="M131.99,-55.38C124.26,-55.38 116.03,-55.38 107.93,-55.38"/>
<polygon fill="#63b8ff" stroke="#63b8ff" points="131.74,-58.88 141.74,-55.38 131.74,-51.88 131.74,-58.88"/>
</a>
</g>
</g>
<!-- Node23 -->
<g id="Node000023" class="node">
<title>Node23</title>
<g id="a_Node000023"><a xlink:href="kest__state_8c.html#ad67167136a5f2e68f04622bc4f518b22" target="_top" xlink:title=" ">
<polygon fill="white" stroke="#666666" points="371.25,-72.12 236.75,-72.12 236.75,-38.62 371.25,-38.62 371.25,-72.12"/>
<text xml:space="preserve" text-anchor="start" x="244.75" y="-58.62" font-family="Helvetica,sans-Serif" font-size="10.00">kest_cxt_enter_previous</text>
<text xml:space="preserve" text-anchor="middle" x="304" y="-45.88" font-family="Helvetica,sans-Serif" font-size="10.00">_current_page</text>
</a>
</g>
</g>
<!-- Node22&#45;&gt;Node23 -->
<g id="edge5_Node000022_Node000023" class="edge">
<title>Node22&#45;&gt;Node23</title>
<g id="a_edge5_Node000022_Node000023"><a xlink:title=" ">
<path fill="none" stroke="#63b8ff" d="M398.78,-55.38C389.67,-55.38 380.43,-55.38 371.48,-55.38"/>
<polygon fill="#63b8ff" stroke="#63b8ff" points="398.71,-58.88 408.71,-55.38 398.71,-51.88 398.71,-58.88"/>
</a>
</g>
</g>
<!-- Node23&#45;&gt;Node3 -->
<g id="edge6_Node000023_Node000003" class="edge">
<title>Node23&#45;&gt;Node3</title>
<g id="a_edge6_Node000023_Node000003"><a xlink:title=" ">
<path fill="none" stroke="#63b8ff" d="M225.2,-55.38C216.68,-55.38 208.46,-55.38 201.17,-55.38"/>
<polygon fill="#63b8ff" stroke="#63b8ff" points="225.03,-58.88 235.03,-55.38 225.03,-51.88 225.03,-58.88"/>
</a>
</g>
</g>
<!-- Node25 -->
<g id="Node000025" class="node">
<title>Node25</title>
<g id="a_Node000025"><a xlink:href="kest__files_8c.html#a2b0f0df900e064b3a42198050e150084" target="_top" xlink:title=" ">
<polygon fill="white" stroke="#666666" points="368.25,-20.75 239.75,-20.75 239.75,0 368.25,0 368.25,-20.75"/>
<text xml:space="preserve" text-anchor="middle" x="304" y="-7.25" font-family="Helvetica,sans-Serif" font-size="10.00">load_saved_sequences</text>
</a>
</g>
</g>
<!-- Node24&#45;&gt;Node25 -->
<g id="edge8_Node000024_Node000025" class="edge">
<title>Node24&#45;&gt;Node25</title>
<g id="a_edge8_Node000024_Node000025"><a xlink:title=" ">
<path fill="none" stroke="#63b8ff" d="M395.48,-11.96C386.49,-11.81 377.43,-11.65 368.69,-11.49"/>
<polygon fill="#63b8ff" stroke="#63b8ff" points="395.22,-15.46 405.28,-12.14 395.34,-8.46 395.22,-15.46"/>
</a>
</g>
</g>
<!-- Node25&#45;&gt;Node3 -->
<g id="edge9_Node000025_Node000003" class="edge">
<title>Node25&#45;&gt;Node3</title>
<g id="a_edge9_Node000025_Node000003"><a xlink:title=" ">
<path fill="none" stroke="#63b8ff" d="M251.54,-24.54C246.52,-26.1 241.52,-27.72 236.75,-29.38 223.67,-33.91 209.38,-39.67 197.66,-44.62"/>
<polygon fill="#63b8ff" stroke="#63b8ff" points="252.48,-27.91 261.04,-21.67 250.46,-21.21 252.48,-27.91"/>
</a>
</g>
</g>
</g>
</svg>

<g id="navigator" transform="translate(0 0)" fill="#404254">
  <rect fill="#f2f5e9" fill-opacity="0.5" stroke="#606060" stroke-width=".5" x="0" y="0" width="60" height="60"/>
  <use id="zoomplus" xlink:href="#zoomPlus" x="17" y="9" onmousedown="handleZoom(evt,'in')"/>
  <use id="zoomminus" xlink:href="#zoomMin" x="42" y="9" onmousedown="handleZoom(evt,'out')"/>
  <use id="reset" xlink:href="#resetDef" x="30" y="36" onmousedown="handleReset()"/>
   <use id="arrowup" xlink:href="#arrowUp" x="0" y="0" onmousedown="handlePan(0,-1)"/>
  <use id="arrowright" xlink:href="#arrowRight" x="0" y="0" onmousedown="handlePan(1,0)"/>
  <use id="arrowdown" xlink:href="#arrowDown" x="0" y="0" onmousedown="handlePan(0,1)"/>
  <use id="arrowleft" xlink:href="#arrowLeft" x="0" y="0" onmousedown="handlePan(-1,0)"/>
</g>
<svg viewBox="0 0 15 15" width="100%" height="30px" preserveAspectRatio="xMaxYMin meet">
 <g id="arrow_out" transform="scale(0.3 0.3)">
  <a xlink:href="kest__context_8h_a27d5ba2e580d6779a546998085484da0_icgraph_org.svg" target="_base">
   <rect id="button" ry="5" rx="5" y="6" x="6" height="38" width="38"
        fill="#f2f5e9" fill-opacity="0.5" stroke="#606060" stroke-width="1.0"/>
   <path id="arrow"
     d="M 11.500037,31.436501 C 11.940474,20.09759 22.043105,11.32322 32.158766,21.979434 L 37.068811,17.246167 C 37.068811,17.246167 37.088388,32 37.088388,32 L 22.160133,31.978069 C 22.160133,31.978069 26.997745,27.140456 26.997745,27.140456 C 18.528582,18.264221 13.291696,25.230495 11.500037,31.436501 z"
     style="fill:#404040;"/>
  </a>
 </g>
</svg>

<style type='text/css'>
<![CDATA[
[data-mouse-over-selected='false'] { opacity: 0.7; }
[data-mouse-over-selected='true']  { opacity: 1.0; }
]]>
</style>
<script type="application/ecmascript"><![CDATA[
document.addEventListener('DOMContentLoaded', (event) => {
  highlightEdges();
  highlightAdjacentNodes();
});
]]></script>
</svg>
