<?xml version="1.0" encoding="UTF-8" standalone="no"?>
<!DOCTYPE svg PUBLIC "-//W3C//DTD SVG 1.1//EN"
 "http://www.w3.org/Graphics/SVG/1.1/DTD/svg11.dtd">
<!-- Generated by graphviz version 13.1.2 (20250808.2320)
 -->
<!-- Title: hide_keyboard Pages: 1 -->
<!--zoomable 261 -->

<svg id="main" version="1.1" xmlns="http://www.w3.org/2000/svg" xmlns:xlink="http://www.w3.org/1999/xlink" xml:space="preserve" onload="init(evt)">

<style type="text/css"><![CDATA[
.node, .edge {opacity: 0.7;}
.node.selected, .edge.selected {opacity: 1;}
.edge:hover path { stroke: red; }
.edge:hover polygon { stroke: red; fill: red; }
]]></style>

<defs>
  <circle id="rim" cx="0" cy="0" r="7"/>
  <circle id="rim2" cx="0" cy="0" r="3.5"/>
  <g id="zoomPlus">
    <use xlink:href="#rim" fill="#404040"><set attributeName="fill" to="#808080" begin="zoomplus.mouseover" end="zoomplus.mouseout"/></use>
    <path d="M-4,0h8M0,-4v8" fill="none" stroke="white" stroke-width="1.5" pointer-events="none"/>
  </g>
  <g id="zoomMin">
    <use xlink:href="#rim" fill="#404040"><set attributeName="fill" to="#808080" begin="zoomminus.mouseover" end="zoomminus.mouseout"/></use>
    <path d="M-4,0h8" fill="none" stroke="white" stroke-width="1.5" pointer-events="none"/>
  </g>
  <g id="arrowUp" transform="translate(30 24)">
    <use xlink:href="#rim"/>
    <path pointer-events="none" fill="none" stroke="white" stroke-width="1.5" d="M0,-3.0v7 M-2.5,-0.5L0,-3.0L2.5,-0.5"/>
  </g>
  <g id="arrowRight" transform="rotate(90) translate(36 -43)">
    <use xlink:href="#rim"/>
    <path pointer-events="none" fill="none" stroke="white" stroke-width="1.5" d="M0,-3.0v7 M-2.5,-0.5L0,-3.0L2.5,-0.5"/>
  </g>
  <g id="arrowDown" transform="rotate(180) translate(-30 -48)">
    <use xlink:href="#rim"/>
    <path pointer-events="none" fill="none" stroke="white" stroke-width="1.5" d="M0,-3.0v7 M-2.5,-0.5L0,-3.0L2.5,-0.5"/>
  </g>
  <g id="arrowLeft" transform="rotate(270) translate(-36 17)">
    <use xlink:href="#rim"/>
    <path pointer-events="none" fill="none" stroke="white" stroke-width="1.5" d="M0,-3.0v7 M-2.5,-0.5L0,-3.0L2.5,-0.5"/>
  </g>
  <g id="resetDef">
    <use xlink:href="#rim2" fill="#404040"><set attributeName="fill" to="#808080" begin="reset.mouseover" end="reset.mouseout"/></use>
  </g>
</defs>
<script type="application/ecmascript">
var viewWidth = 952;
var viewHeight = 261;
var sectionId = 'dynsection-43';
</script>
<script type="application/ecmascript" xlink:href="svg.min.js"/>
<svg id="graph" class="graph">
<g id="viewport">
<title>hide_keyboard</title>
<!-- Node1 -->
<g id="Node000001" class="node">
<title>Node1</title>
<g id="a_Node000001"><a xlink:title=" ">
<polygon fill="#999999" stroke="#666666" points="943.5,-137.75 856.25,-137.75 856.25,-117 943.5,-117 943.5,-137.75"/>
<text xml:space="preserve" text-anchor="middle" x="899.88" y="-124.25" font-family="Helvetica,sans-Serif" font-size="10.00">hide_keyboard</text>
</a>
</g>
</g>
<!-- Node2 -->
<g id="Node000002" class="node">
<title>Node2</title>
<g id="a_Node000002"><a xlink:href="kest__ui_8c.html#aa1a8a17de784d78134c5ed69f15abf27" target="_top" xlink:title=" ">
<polygon fill="white" stroke="#666666" points="792.88,-252.75 689.12,-252.75 689.12,-232 792.88,-232 792.88,-252.75"/>
<text xml:space="preserve" text-anchor="middle" x="741" y="-239.25" font-family="Helvetica,sans-Serif" font-size="10.00">hide_keyboard_cb</text>
</a>
</g>
</g>
<!-- Node1&#45;&gt;Node2 -->
<g id="edge1_Node000001_Node000002" class="edge">
<title>Node1&#45;&gt;Node2</title>
<g id="a_edge1_Node000001_Node000002"><a xlink:title=" ">
<path fill="none" stroke="#63b8ff" d="M886.45,-147.49C872.7,-168.15 848.68,-199.84 820.25,-218.38 811.8,-223.89 802.02,-228.19 792.29,-231.52"/>
<polygon fill="#63b8ff" stroke="#63b8ff" points="889.22,-149.66 891.7,-139.35 883.34,-145.86 889.22,-149.66"/>
</a>
</g>
</g>
<!-- Node3 -->
<g id="Node000003" class="node">
<title>Node3</title>
<g id="a_Node000003"><a xlink:href="kest__preset__view_8c.html#a68d55cd59cd7fe88063634c16b27e623" target="_top" xlink:title=" ">
<polygon fill="white" stroke="#666666" points="620.5,-214.75 477.75,-214.75 477.75,-194 620.5,-194 620.5,-214.75"/>
<text xml:space="preserve" text-anchor="middle" x="549.12" y="-201.25" font-family="Helvetica,sans-Serif" font-size="10.00">preset_view_revert_name</text>
</a>
</g>
</g>
<!-- Node1&#45;&gt;Node3 -->
<g id="edge2_Node000001_Node000003" class="edge">
<title>Node1&#45;&gt;Node3</title>
<g id="a_edge2_Node000001_Node000003"><a xlink:title=" ">
<path fill="none" stroke="#63b8ff" d="M880.6,-145.63C865.72,-159.22 843.45,-176.83 820.25,-185.38 755.73,-209.14 676.77,-211.95 620.92,-210"/>
<polygon fill="#63b8ff" stroke="#63b8ff" points="882.9,-148.27 887.75,-138.85 878.08,-143.19 882.9,-148.27"/>
</a>
</g>
</g>
<!-- Node35 -->
<g id="Node000035" class="node">
<title>Node35</title>
<g id="a_Node000035"><a xlink:href="kest__preset__view_8c.html#ade89bd7d1c6c48f2a18f8ae54a703029" target="_top" xlink:title=" ">
<polygon fill="white" stroke="#666666" points="809.38,-176.75 672.62,-176.75 672.62,-156 809.38,-156 809.38,-176.75"/>
<text xml:space="preserve" text-anchor="middle" x="741" y="-163.25" font-family="Helvetica,sans-Serif" font-size="10.00">preset_view_save_name</text>
</a>
</g>
</g>
<!-- Node1&#45;&gt;Node35 -->
<g id="edge7_Node000001_Node000035" class="edge">
<title>Node1&#45;&gt;Node35</title>
<g id="a_edge7_Node000001_Node000035"><a xlink:title=" ">
<path fill="none" stroke="#63b8ff" d="M844.91,-140.79C825.56,-145.6 804,-150.96 785.63,-155.53"/>
<polygon fill="#63b8ff" stroke="#63b8ff" points="845.68,-144.21 854.54,-138.4 843.99,-137.41 845.68,-144.21"/>
</a>
</g>
</g>
<!-- Node37 -->
<g id="Node000037" class="node">
<title>Node37</title>
<g id="a_Node000037"><a xlink:href="kest__sequence__view_8c.html#a5da73a414e449a9425efa9c9d008323d" target="_top" xlink:title=" ">
<polygon fill="white" stroke="#666666" points="820.25,-137.75 661.75,-137.75 661.75,-117 820.25,-117 820.25,-137.75"/>
<text xml:space="preserve" text-anchor="middle" x="741" y="-124.25" font-family="Helvetica,sans-Serif" font-size="10.00">sequence_view_revert_name</text>
</a>
</g>
</g>
<!-- Node1&#45;&gt;Node37 -->
<g id="edge10_Node000001_Node000037" class="edge">
<title>Node1&#45;&gt;Node37</title>
<g id="a_edge10_Node000001_Node000037"><a xlink:title=" ">
<path fill="none" stroke="#63b8ff" d="M844.59,-127.38C836.86,-127.38 828.79,-127.38 820.71,-127.38"/>
<polygon fill="#63b8ff" stroke="#63b8ff" points="844.49,-130.88 854.49,-127.38 844.49,-123.88 844.49,-130.88"/>
</a>
</g>
</g>
<!-- Node38 -->
<g id="Node000038" class="node">
<title>Node38</title>
<g id="a_Node000038"><a xlink:href="kest__sequence__view_8c.html#a9a770d265f15421aca3cec3f9d758e30" target="_top" xlink:title=" ">
<polygon fill="white" stroke="#666666" points="813.12,-98.75 668.88,-98.75 668.88,-78 813.12,-78 813.12,-98.75"/>
<text xml:space="preserve" text-anchor="middle" x="741" y="-85.25" font-family="Helvetica,sans-Serif" font-size="10.00">sequence_view_set_name</text>
</a>
</g>
</g>
<!-- Node1&#45;&gt;Node38 -->
<g id="edge12_Node000001_Node000038" class="edge">
<title>Node1&#45;&gt;Node38</title>
<g id="a_edge12_Node000001_Node000038"><a xlink:title=" ">
<path fill="none" stroke="#63b8ff" d="M844.91,-113.96C825.56,-109.15 804,-103.79 785.63,-99.22"/>
<polygon fill="#63b8ff" stroke="#63b8ff" points="843.99,-117.34 854.54,-116.35 845.68,-110.54 843.99,-117.34"/>
</a>
</g>
</g>
<!-- Node39 -->
<g id="Node000039" class="node">
<title>Node39</title>
<g id="a_Node000039"><a xlink:href="kest__parameter__widget_8c.html#a04db5fc0ed01be6d1f7b2233ea9094bb" target="_top" xlink:title=" ">
<polygon fill="white" stroke="#666666" points="795.88,-59.75 686.12,-59.75 686.12,-39 795.88,-39 795.88,-59.75"/>
<text xml:space="preserve" text-anchor="middle" x="741" y="-46.25" font-family="Helvetica,sans-Serif" font-size="10.00">sw_field_cancel_cb</text>
</a>
</g>
</g>
<!-- Node1&#45;&gt;Node39 -->
<g id="edge14_Node000001_Node000039" class="edge">
<title>Node1&#45;&gt;Node39</title>
<g id="a_edge14_Node000001_Node000039"><a xlink:title=" ">
<path fill="none" stroke="#63b8ff" d="M878.81,-109.15C863.7,-96.32 841.95,-79.67 820.25,-69.38 812.52,-65.71 804.03,-62.66 795.59,-60.13"/>
<polygon fill="#63b8ff" stroke="#63b8ff" points="876.32,-111.62 886.15,-115.56 880.92,-106.34 876.32,-111.62"/>
</a>
</g>
</g>
<!-- Node49 -->
<g id="Node000049" class="node">
<title>Node49</title>
<g id="a_Node000049"><a xlink:href="kest__parameter__widget_8c.html#a22b7fa4ae5f9628f2da2155f58c2635c" target="_top" xlink:title=" ">
<polygon fill="white" stroke="#666666" points="791.75,-20.75 690.25,-20.75 690.25,0 791.75,0 791.75,-20.75"/>
<text xml:space="preserve" text-anchor="middle" x="741" y="-7.25" font-family="Helvetica,sans-Serif" font-size="10.00">sw_field_save_cb</text>
</a>
</g>
</g>
<!-- Node1&#45;&gt;Node49 -->
<g id="edge17_Node000001_Node000049" class="edge">
<title>Node1&#45;&gt;Node49</title>
<g id="a_edge17_Node000001_Node000049"><a xlink:title=" ">
<path fill="none" stroke="#63b8ff" d="M887.75,-106.98C874.57,-84.75 850.52,-49.78 820.25,-30.38 811.75,-24.93 801.84,-20.96 791.99,-18.08"/>
<polygon fill="#63b8ff" stroke="#63b8ff" points="884.58,-108.48 892.58,-115.43 890.66,-105.01 884.58,-108.48"/>
</a>
</g>
</g>
<!-- Node4 -->
<g id="Node000004" class="node">
<title>Node4</title>
<g id="a_Node000004"><a xlink:href="kest__preset__view_8c.html#ad8a171502fcb88f5b5a08657a6424752" target="_top" xlink:title=" ">
<polygon fill="white" stroke="#666666" points="430.5,-194.75 304.25,-194.75 304.25,-174 430.5,-174 430.5,-194.75"/>
<text xml:space="preserve" text-anchor="middle" x="367.38" y="-181.25" font-family="Helvetica,sans-Serif" font-size="10.00">configure_preset_view</text>
</a>
</g>
</g>
<!-- Node3&#45;&gt;Node4 -->
<g id="edge3_Node000003_Node000004" class="edge">
<title>Node3&#45;&gt;Node4</title>
<g id="a_edge3_Node000003_Node000004"><a xlink:title=" ">
<path fill="none" stroke="#63b8ff" d="M466.1,-195.25C454.28,-193.93 442.28,-192.6 430.93,-191.34"/>
<polygon fill="#63b8ff" stroke="#63b8ff" points="465.51,-198.7 475.84,-196.33 466.29,-191.75 465.51,-198.7"/>
</a>
</g>
</g>
<!-- Node5 -->
<g id="Node000005" class="node">
<title>Node5</title>
<g id="a_Node000005"><a xlink:href="kest__preset__view_8c.html#ae4f85ce684e856ba2d0dfc97c49528b2" target="_top" xlink:title=" ">
<polygon fill="#fff0f0" stroke="red" points="130,-194.75 0,-194.75 0,-174 130,-174 130,-194.75"/>
<text xml:space="preserve" text-anchor="middle" x="65" y="-181.25" font-family="Helvetica,sans-Serif" font-size="10.00">create_preset_view_for</text>
</a>
</g>
</g>
<!-- Node4&#45;&gt;Node5 -->
<g id="edge4_Node000004_Node000005" class="edge">
<title>Node4&#45;&gt;Node5</title>
<g id="a_edge4_Node000004_Node000005"><a xlink:title=" ">
<path fill="none" stroke="#63b8ff" d="M292.45,-184.38C242.76,-184.38 177.9,-184.38 130.34,-184.38"/>
<polygon fill="#63b8ff" stroke="#63b8ff" points="292.26,-187.88 302.26,-184.38 292.26,-180.88 292.26,-187.88"/>
</a>
</g>
</g>
<!-- Node34 -->
<g id="Node000034" class="node">
<title>Node34</title>
<g id="a_Node000034"><a xlink:href="kest__preset__view_8c.html#a7aa469a400baf1fdf82d314a2ad5ddbb" target="_top" xlink:title=" ">
<polygon fill="white" stroke="#666666" points="262.25,-175.75 166,-175.75 166,-155 262.25,-155 262.25,-175.75"/>
<text xml:space="preserve" text-anchor="middle" x="214.12" y="-162.25" font-family="Helvetica,sans-Serif" font-size="10.00">init_preset_view</text>
</a>
</g>
</g>
<!-- Node4&#45;&gt;Node34 -->
<g id="edge5_Node000004_Node000034" class="edge">
<title>Node4&#45;&gt;Node34</title>
<g id="a_edge5_Node000004_Node000034"><a xlink:title=" ">
<path fill="none" stroke="#63b8ff" d="M292.87,-175.14C282.57,-173.85 272.22,-172.55 262.58,-171.34"/>
<polygon fill="#63b8ff" stroke="#63b8ff" points="292.12,-178.57 302.48,-176.35 293,-171.63 292.12,-178.57"/>
</a>
</g>
</g>
<!-- Node34&#45;&gt;Node5 -->
<g id="edge6_Node000034_Node000005" class="edge">
<title>Node34&#45;&gt;Node5</title>
<g id="a_edge6_Node000034_Node000005"><a xlink:title=" ">
<path fill="none" stroke="#63b8ff" d="M154.42,-172.96C146.54,-173.97 138.41,-175.02 130.43,-176.05"/>
<polygon fill="#63b8ff" stroke="#63b8ff" points="154.79,-176.44 164.26,-171.69 153.9,-169.49 154.79,-176.44"/>
</a>
</g>
</g>
<!-- Node36 -->
<g id="Node000036" class="node">
<title>Node36</title>
<g id="a_Node000036"><a xlink:href="kest__preset__view_8c.html#a3ce8a1ef6a8ba6c46ae10f40394e1b14" target="_top" xlink:title=" ">
<polygon fill="white" stroke="#666666" points="625.75,-175.75 472.5,-175.75 472.5,-155 625.75,-155 625.75,-175.75"/>
<text xml:space="preserve" text-anchor="middle" x="549.12" y="-162.25" font-family="Helvetica,sans-Serif" font-size="10.00">preset_view_save_name_cb</text>
</a>
</g>
</g>
<!-- Node35&#45;&gt;Node36 -->
<g id="edge8_Node000035_Node000036" class="edge">
<title>Node35&#45;&gt;Node36</title>
<g id="a_edge8_Node000035_Node000036"><a xlink:title=" ">
<path fill="none" stroke="#63b8ff" d="M660.91,-165.96C649.44,-165.9 637.65,-165.84 626.24,-165.78"/>
<polygon fill="#63b8ff" stroke="#63b8ff" points="660.72,-169.46 670.74,-166.01 660.76,-162.46 660.72,-169.46"/>
</a>
</g>
</g>
<!-- Node36&#45;&gt;Node4 -->
<g id="edge9_Node000036_Node000004" class="edge">
<title>Node36&#45;&gt;Node4</title>
<g id="a_edge9_Node000036_Node000004"><a xlink:title=" ">
<path fill="none" stroke="#63b8ff" d="M460.76,-174.61C450.63,-175.68 440.46,-176.76 430.76,-177.78"/>
<polygon fill="#63b8ff" stroke="#63b8ff" points="461.07,-178.1 470.65,-173.56 460.34,-171.13 461.07,-178.1"/>
</a>
</g>
</g>
<!-- Node21 -->
<g id="Node000021" class="node">
<title>Node21</title>
<g id="a_Node000021"><a xlink:href="kest__sequence__view_8c.html#ac871b24a7c875a7b6e707a3d2691a2a9" target="_top" xlink:title=" ">
<polygon fill="#fff0f0" stroke="red" points="620.12,-117.75 478.12,-117.75 478.12,-97 620.12,-97 620.12,-117.75"/>
<text xml:space="preserve" text-anchor="middle" x="549.12" y="-104.25" font-family="Helvetica,sans-Serif" font-size="10.00">configure_sequence_view</text>
</a>
</g>
</g>
<!-- Node37&#45;&gt;Node21 -->
<g id="edge11_Node000037_Node000021" class="edge">
<title>Node37&#45;&gt;Node21</title>
<g id="a_edge11_Node000037_Node000021"><a xlink:title=" ">
<path fill="none" stroke="#63b8ff" d="M650.19,-117.92C640.21,-116.86 630.16,-115.8 620.47,-114.78"/>
<polygon fill="#63b8ff" stroke="#63b8ff" points="649.58,-121.37 659.89,-118.94 650.32,-114.41 649.58,-121.37"/>
</a>
</g>
</g>
<!-- Node38&#45;&gt;Node21 -->
<g id="edge13_Node000038_Node000021" class="edge">
<title>Node38&#45;&gt;Node21</title>
<g id="a_edge13_Node000038_Node000021"><a xlink:title=" ">
<path fill="none" stroke="#63b8ff" d="M657.27,-96.65C644.95,-97.89 632.35,-99.15 620.31,-100.35"/>
<polygon fill="#63b8ff" stroke="#63b8ff" points="657.38,-100.16 666.98,-95.68 656.68,-93.19 657.38,-100.16"/>
</a>
</g>
</g>
<!-- Node40 -->
<g id="Node000040" class="node">
<title>Node40</title>
<g id="a_Node000040"><a xlink:href="kest__parameter__widget_8c.html#a5a6ebded10138ba55624e195ae4f4309" target="_top" xlink:title=" ">
<polygon fill="white" stroke="#666666" points="597.62,-40.75 500.62,-40.75 500.62,-20 597.62,-20 597.62,-40.75"/>
<text xml:space="preserve" text-anchor="middle" x="549.12" y="-27.25" font-family="Helvetica,sans-Serif" font-size="10.00">edit_sw_field_cb</text>
</a>
</g>
</g>
<!-- Node39&#45;&gt;Node40 -->
<g id="edge15_Node000039_Node000040" class="edge">
<title>Node39&#45;&gt;Node40</title>
<g id="a_edge15_Node000039_Node000040"><a xlink:title=" ">
<path fill="none" stroke="#63b8ff" d="M674.52,-42.82C649.34,-40.3 621.09,-37.48 597.89,-35.15"/>
<polygon fill="#63b8ff" stroke="#63b8ff" points="674.04,-46.29 684.34,-43.81 674.74,-39.33 674.04,-46.29"/>
</a>
</g>
</g>
<!-- Node41 -->
<g id="Node000041" class="node">
<title>Node41</title>
<g id="a_Node000041"><a xlink:href="kest__parameter__widget_8c.html#a2074107eca4e8e2b3832c9f9f2e5f9f2" target="_top" xlink:title=" ">
<polygon fill="#fff0f0" stroke="red" points="436.5,-40.75 298.25,-40.75 298.25,-20 436.5,-20 436.5,-40.75"/>
<text xml:space="preserve" text-anchor="middle" x="367.38" y="-27.25" font-family="Helvetica,sans-Serif" font-size="10.00">setting_widget_create_ui</text>
</a>
</g>
</g>
<!-- Node40&#45;&gt;Node41 -->
<g id="edge16_Node000040_Node000041" class="edge">
<title>Node40&#45;&gt;Node41</title>
<g id="a_edge16_Node000040_Node000041"><a xlink:title=" ">
<path fill="none" stroke="#63b8ff" d="M489.16,-30.38C472.47,-30.38 454.15,-30.38 436.94,-30.38"/>
<polygon fill="#63b8ff" stroke="#63b8ff" points="488.91,-33.88 498.91,-30.38 488.91,-26.88 488.91,-33.88"/>
</a>
</g>
</g>
<!-- Node49&#45;&gt;Node40 -->
<g id="edge18_Node000049_Node000040" class="edge">
<title>Node49&#45;&gt;Node40</title>
<g id="a_edge18_Node000049_Node000040"><a xlink:title=" ">
<path fill="none" stroke="#63b8ff" d="M678.79,-16.82C652.63,-19.58 622.54,-22.75 598.04,-25.33"/>
<polygon fill="#63b8ff" stroke="#63b8ff" points="679.03,-20.32 688.61,-15.79 678.3,-13.36 679.03,-20.32"/>
</a>
</g>
</g>
</g>
</svg>

<g id="navigator" transform="translate(0 0)" fill="#404254">
  <rect fill="#f2f5e9" fill-opacity="0.5" stroke="#606060" stroke-width=".5" x="0" y="0" width="60" height="60"/>
  <use id="zoomplus" xlink:href="#zoomPlus" x="17" y="9" onmousedown="handleZoom(evt,'in')"/>
  <use id="zoomminus" xlink:href="#zoomMin" x="42" y="9" onmousedown="handleZoom(evt,'out')"/>
  <use id="reset" xlink:href="#resetDef" x="30" y="36" onmousedown="handleReset()"/>
   <use id="arrowup" xlink:href="#arrowUp" x="0" y="0" onmousedown="handlePan(0,-1)"/>
  <use id="arrowright" xlink:href="#arrowRight" x="0" y="0" onmousedown="handlePan(1,0)"/>
  <use id="arrowdown" xlink:href="#arrowDown" x="0" y="0" onmousedown="handlePan(0,1)"/>
  <use id="arrowleft" xlink:href="#arrowLeft" x="0" y="0" onmousedown="handlePan(-1,0)"/>
</g>
<svg viewBox="0 0 15 15" width="100%" height="30px" preserveAspectRatio="xMaxYMin meet">
 <g id="arrow_out" transform="scale(0.3 0.3)">
  <a xlink:href="kest__ui_8h_a449db99602c8ef93fb805362fec7fb1d_icgraph_org.svg" target="_base">
   <rect id="button" ry="5" rx="5" y="6" x="6" height="38" width="38"
        fill="#f2f5e9" fill-opacity="0.5" stroke="#606060" stroke-width="1.0"/>
   <path id="arrow"
     d="M 11.500037,31.436501 C 11.940474,20.09759 22.043105,11.32322 32.158766,21.979434 L 37.068811,17.246167 C 37.068811,17.246167 37.088388,32 37.088388,32 L 22.160133,31.978069 C 22.160133,31.978069 26.997745,27.140456 26.997745,27.140456 C 18.528582,18.264221 13.291696,25.230495 11.500037,31.436501 z"
     style="fill:#404040;"/>
  </a>
 </g>
</svg>

<style type='text/css'>
<![CDATA[
[data-mouse-over-selected='false'] { opacity: 0.7; }
[data-mouse-over-selected='true']  { opacity: 1.0; }
]]>
</style>
<script type="application/ecmascript"><![CDATA[
document.addEventListener('DOMContentLoaded', (event) => {
  highlightEdges();
  highlightAdjacentNodes();
});
]]></script>
</svg>
