<?xml version="1.0" encoding="UTF-8" standalone="no"?>
<!DOCTYPE svg PUBLIC "-//W3C//DTD SVG 1.1//EN"
 "http://www.w3.org/Graphics/SVG/1.1/DTD/svg11.dtd">
<!-- Generated by graphviz version 13.1.2 (20250808.2320)
 -->
<!-- Title: kest_cxt_clone_state Pages: 1 -->
<svg width="892pt" height="1166pt"
 viewBox="0.00 0.00 892.00 1166.00" xmlns="http://www.w3.org/2000/svg" xmlns:xlink="http://www.w3.org/1999/xlink">
<g id="graph0" class="graph" transform="scale(1 1) rotate(0) translate(4 1161.66)">
<title>kest_cxt_clone_state</title>
<!-- Node1 -->
<g id="Node000001" class="node">
<title>Node1</title>
<g id="a_Node000001"><a xlink:title=" ">
<polygon fill="#999999" stroke="#666666" points="884,-318.66 766,-318.66 766,-297.91 884,-297.91 884,-318.66"/>
<text xml:space="preserve" text-anchor="middle" x="825" y="-305.16" font-family="Helvetica,sans-Serif" font-size="10.00">kest_cxt_clone_state</text>
</a>
</g>
</g>
<!-- Node2 -->
<g id="Node000002" class="node">
<title>Node2</title>
<g id="a_Node000002"><a xlink:href="kest__file__task_8c.html#adfaf58014af5199e2822cba19b1d778c" target="_top" xlink:title=" ">
<polygon fill="white" stroke="#666666" points="723.62,-500.66 593.62,-500.66 593.62,-479.91 723.62,-479.91 723.62,-500.66"/>
<text xml:space="preserve" text-anchor="middle" x="658.62" y="-487.16" font-family="Helvetica,sans-Serif" font-size="10.00">kest_queue_state_save</text>
</a>
</g>
</g>
<!-- Node1&#45;&gt;Node2 -->
<g id="edge1_Node000001_Node000002" class="edge">
<title>Node1&#45;&gt;Node2</title>
<g id="a_edge1_Node000001_Node000002"><a xlink:title=" ">
<path fill="none" stroke="#63b8ff" d="M806.78,-327.35C772.34,-365.49 695.97,-450.04 669.16,-479.73"/>
<polygon fill="#63b8ff" stroke="#63b8ff" points="809.09,-330.02 813.2,-320.25 803.9,-325.33 809.09,-330.02"/>
</a>
</g>
</g>
<!-- Node97 -->
<g id="Node000097" class="node">
<title>Node97</title>
<g id="a_Node000097"><a xlink:href="kest__state_8c.html#a2c43a0057886626aaebb61a5d017da31" target="_top" xlink:title=" ">
<polygon fill="white" stroke="#666666" points="730,-303.04 587.25,-303.04 587.25,-269.54 730,-269.54 730,-303.04"/>
<text xml:space="preserve" text-anchor="start" x="595.25" y="-289.54" font-family="Helvetica,sans-Serif" font-size="10.00">kest_state_representation</text>
<text xml:space="preserve" text-anchor="middle" x="658.62" y="-276.79" font-family="Helvetica,sans-Serif" font-size="10.00">_update</text>
</a>
</g>
</g>
<!-- Node1&#45;&gt;Node97 -->
<g id="edge35_Node000001_Node000097" class="edge">
<title>Node1&#45;&gt;Node97</title>
<g id="a_edge35_Node000001_Node000097"><a xlink:title=" ">
<path fill="none" stroke="#63b8ff" d="M754.41,-298.97C746.41,-297.9 738.25,-296.81 730.24,-295.74"/>
<polygon fill="#63b8ff" stroke="#63b8ff" points="753.71,-302.41 764.08,-300.27 754.64,-295.47 753.71,-302.41"/>
</a>
</g>
</g>
<!-- Node3 -->
<g id="Node000003" class="node">
<title>Node3</title>
<g id="a_Node000003"><a xlink:href="kest__ui_8c.html#aab9f2e82d67858edd53fd09370687007" target="_top" xlink:title=" ">
<polygon fill="white" stroke="#666666" points="522.38,-1047.66 437.38,-1047.66 437.38,-1026.91 522.38,-1026.91 522.38,-1047.66"/>
<text xml:space="preserve" text-anchor="middle" x="479.88" y="-1034.16" font-family="Helvetica,sans-Serif" font-size="10.00">enter_ui_page</text>
</a>
</g>
</g>
<!-- Node2&#45;&gt;Node3 -->
<g id="edge2_Node000002_Node000003" class="edge">
<title>Node2&#45;&gt;Node3</title>
<g id="a_edge2_Node000002_Node000003"><a xlink:title=" ">
<path fill="none" stroke="#63b8ff" d="M651.54,-511.84C635.86,-567.07 592.41,-718.06 551.25,-842.29 527.71,-913.35 495.96,-997.67 484.89,-1026.79"/>
<polygon fill="#63b8ff" stroke="#63b8ff" points="654.84,-513.04 654.2,-502.46 648.1,-511.13 654.84,-513.04"/>
</a>
</g>
</g>
<!-- Node32 -->
<g id="Node000032" class="node">
<title>Node32</title>
<g id="a_Node000032"><a xlink:href="kest__ui_8c.html#a8e18610dded037df6bd96330d349f186" target="_top" xlink:title=" ">
<polygon fill="white" stroke="#666666" points="551.25,-833.66 408.5,-833.66 408.5,-812.91 551.25,-812.91 551.25,-833.66"/>
<text xml:space="preserve" text-anchor="middle" x="479.88" y="-820.16" font-family="Helvetica,sans-Serif" font-size="10.00">enter_ui_page_backwards</text>
</a>
</g>
</g>
<!-- Node2&#45;&gt;Node32 -->
<g id="edge8_Node000002_Node000032" class="edge">
<title>Node2&#45;&gt;Node32</title>
<g id="a_edge8_Node000002_Node000032"><a xlink:title=" ">
<path fill="none" stroke="#63b8ff" d="M646.64,-510.99C612.94,-574.47 511.84,-764.94 486.62,-812.46"/>
<polygon fill="#63b8ff" stroke="#63b8ff" points="649.64,-512.8 651.23,-502.33 643.45,-509.52 649.64,-512.8"/>
</a>
</g>
</g>
<!-- Node74 -->
<g id="Node000074" class="node">
<title>Node74</title>
<g id="a_Node000074"><a xlink:href="kest__ui_8c.html#a2063cd4687cffa16c46c43deaa27642f" target="_top" xlink:title=" ">
<polygon fill="white" stroke="#666666" points="546.38,-500.66 413.38,-500.66 413.38,-479.91 546.38,-479.91 546.38,-500.66"/>
<text xml:space="preserve" text-anchor="middle" x="479.88" y="-487.16" font-family="Helvetica,sans-Serif" font-size="10.00">enter_ui_page_forwards</text>
</a>
</g>
</g>
<!-- Node2&#45;&gt;Node74 -->
<g id="edge15_Node000002_Node000074" class="edge">
<title>Node2&#45;&gt;Node74</title>
<g id="a_edge15_Node000002_Node000074"><a xlink:title=" ">
<path fill="none" stroke="#63b8ff" d="M582.12,-490.29C570.31,-490.29 558.19,-490.29 546.62,-490.29"/>
<polygon fill="#63b8ff" stroke="#63b8ff" points="581.8,-493.79 591.8,-490.29 581.8,-486.79 581.8,-493.79"/>
</a>
</g>
</g>
<!-- Node85 -->
<g id="Node000085" class="node">
<title>Node85</title>
<g id="a_Node000085"><a xlink:href="kest__context_8c.html#a5d13232e1dbd01fdd19c8acbbcccc6ad" target="_top" xlink:title=" ">
<polygon fill="white" stroke="#666666" points="545.25,-167.04 414.5,-167.04 414.5,-133.54 545.25,-133.54 545.25,-167.04"/>
<text xml:space="preserve" text-anchor="start" x="422.5" y="-153.54" font-family="Helvetica,sans-Serif" font-size="10.00">set_active_preset_from</text>
<text xml:space="preserve" text-anchor="middle" x="479.88" y="-140.79" font-family="Helvetica,sans-Serif" font-size="10.00">_sequence</text>
</a>
</g>
</g>
<!-- Node2&#45;&gt;Node85 -->
<g id="edge27_Node000002_Node000085" class="edge">
<title>Node2&#45;&gt;Node85</title>
<g id="a_edge27_Node000002_Node000085"><a xlink:title=" ">
<path fill="none" stroke="#63b8ff" d="M646.9,-469.66C614.75,-407.81 519.53,-224.64 489.83,-167.51"/>
<polygon fill="#63b8ff" stroke="#63b8ff" points="643.73,-471.14 651.44,-478.4 649.94,-467.91 643.73,-471.14"/>
</a>
</g>
</g>
<!-- Node4 -->
<g id="Node000004" class="node">
<title>Node4</title>
<g id="a_Node000004"><a xlink:href="kest__menu_8c.html#a9454c66503f2cda98e224918f3996e65" target="_top" xlink:title=" ">
<polygon fill="white" stroke="#666666" points="340.62,-1157.66 219.62,-1157.66 219.62,-1136.91 340.62,-1136.91 340.62,-1157.66"/>
<text xml:space="preserve" text-anchor="middle" x="280.12" y="-1144.16" font-family="Helvetica,sans-Serif" font-size="10.00">enter_main_menu_cb</text>
</a>
</g>
</g>
<!-- Node3&#45;&gt;Node4 -->
<g id="edge3_Node000003_Node000004" class="edge">
<title>Node3&#45;&gt;Node4</title>
<g id="a_edge3_Node000003_Node000004"><a xlink:title=" ">
<path fill="none" stroke="#63b8ff" d="M462.24,-1056.39C442.85,-1077.37 408.8,-1110.47 372.5,-1128.29 362.75,-1133.07 351.85,-1136.65 341.06,-1139.33"/>
<polygon fill="#63b8ff" stroke="#63b8ff" points="464.73,-1058.85 468.83,-1049.08 459.53,-1054.16 464.73,-1058.85"/>
</a>
</g>
</g>
<!-- Node5 -->
<g id="Node000005" class="node">
<title>Node5</title>
<g id="a_Node000005"><a xlink:href="kest__ui_8c.html#ac76f52136fa064f940377b1cdaaac507" target="_top" xlink:title=" ">
<polygon fill="#fff0f0" stroke="red" points="339.5,-1119.04 220.75,-1119.04 220.75,-1085.54 339.5,-1085.54 339.5,-1119.04"/>
<text xml:space="preserve" text-anchor="start" x="228.75" y="-1105.54" font-family="Helvetica,sans-Serif" font-size="10.00">enter_ui_page_async</text>
<text xml:space="preserve" text-anchor="middle" x="280.12" y="-1092.79" font-family="Helvetica,sans-Serif" font-size="10.00">_wrapper</text>
</a>
</g>
</g>
<!-- Node3&#45;&gt;Node5 -->
<g id="edge4_Node000003_Node000005" class="edge">
<title>Node3&#45;&gt;Node5</title>
<g id="a_edge4_Node000003_Node000005"><a xlink:title=" ">
<path fill="none" stroke="#63b8ff" d="M440.46,-1052.15C420.34,-1059.74 395.23,-1068.9 372.5,-1076.29 361.99,-1079.7 350.72,-1083.11 339.82,-1086.29"/>
<polygon fill="#63b8ff" stroke="#63b8ff" points="441.55,-1055.48 449.66,-1048.66 439.07,-1048.94 441.55,-1055.48"/>
</a>
</g>
</g>
<!-- Node27 -->
<g id="Node000027" class="node">
<title>Node27</title>
<g id="a_Node000027"><a xlink:href="kest__ui_8c.html#ab898fb847b4a2a93df6bae7d9ee1b2f2" target="_top" xlink:title=" ">
<polygon fill="white" stroke="#666666" points="330.88,-1067.66 229.38,-1067.66 229.38,-1046.91 330.88,-1046.91 330.88,-1067.66"/>
<text xml:space="preserve" text-anchor="middle" x="280.12" y="-1054.16" font-family="Helvetica,sans-Serif" font-size="10.00">enter_ui_page_cb</text>
</a>
</g>
</g>
<!-- Node3&#45;&gt;Node27 -->
<g id="edge5_Node000003_Node000027" class="edge">
<title>Node3&#45;&gt;Node27</title>
<g id="a_edge5_Node000003_Node000027"><a xlink:title=" ">
<path fill="none" stroke="#63b8ff" d="M425.62,-1042.67C396.22,-1045.65 359.91,-1049.32 331.05,-1052.24"/>
<polygon fill="#63b8ff" stroke="#63b8ff" points="425.83,-1046.17 435.43,-1041.68 425.13,-1039.21 425.83,-1046.17"/>
</a>
</g>
</g>
<!-- Node28 -->
<g id="Node000028" class="node">
<title>Node28</title>
<g id="a_Node000028"><a xlink:href="kest__ui_8c.html#a5acec8a5ab42f7952924374a85946170" target="_top" xlink:title=" ">
<polygon fill="white" stroke="#666666" points="343.62,-1028.66 216.62,-1028.66 216.62,-1007.91 343.62,-1007.91 343.62,-1028.66"/>
<text xml:space="preserve" text-anchor="middle" x="280.12" y="-1015.16" font-family="Helvetica,sans-Serif" font-size="10.00">enter_ui_page_indirect</text>
</a>
</g>
</g>
<!-- Node3&#45;&gt;Node28 -->
<g id="edge6_Node000003_Node000028" class="edge">
<title>Node3&#45;&gt;Node28</title>
<g id="a_edge6_Node000003_Node000028"><a xlink:title=" ">
<path fill="none" stroke="#63b8ff" d="M425.76,-1032.19C400.6,-1029.77 370.36,-1026.86 344.05,-1024.33"/>
<polygon fill="#63b8ff" stroke="#63b8ff" points="425.14,-1035.64 435.43,-1033.11 425.81,-1028.67 425.14,-1035.64"/>
</a>
</g>
</g>
<!-- Node29 -->
<g id="Node000029" class="node">
<title>Node29</title>
<g id="a_Node000029"><a xlink:href="kest__ui_8c.html#ac4b49754b0a8d3df4343e742d6899872" target="_top" xlink:title=" ">
<polygon fill="#fff0f0" stroke="red" points="323.38,-989.66 236.88,-989.66 236.88,-968.91 323.38,-968.91 323.38,-989.66"/>
<text xml:space="preserve" text-anchor="middle" x="280.12" y="-976.16" font-family="Helvetica,sans-Serif" font-size="10.00">kest_create_ui</text>
</a>
</g>
</g>
<!-- Node3&#45;&gt;Node29 -->
<g id="edge7_Node000003_Node000029" class="edge">
<title>Node3&#45;&gt;Node29</title>
<g id="a_edge7_Node000003_Node000029"><a xlink:title=" ">
<path fill="none" stroke="#63b8ff" d="M441.02,-1022.44C420.88,-1014.87 395.56,-1005.9 372.5,-999.29 356.73,-994.77 339.19,-990.7 323.71,-987.43"/>
<polygon fill="#63b8ff" stroke="#63b8ff" points="439.63,-1025.65 450.22,-1025.93 442.12,-1019.11 439.63,-1025.65"/>
</a>
</g>
</g>
<!-- Node33 -->
<g id="Node000033" class="node">
<title>Node33</title>
<g id="a_Node000033"><a xlink:href="kest__effect__select_8c.html#a0a0604d69c6fbeb09b31db2ebff0e901" target="_top" xlink:title=" ">
<polygon fill="#fff0f0" stroke="red" points="354.12,-950.66 206.12,-950.66 206.12,-929.91 354.12,-929.91 354.12,-950.66"/>
<text xml:space="preserve" text-anchor="middle" x="280.12" y="-937.16" font-family="Helvetica,sans-Serif" font-size="10.00">add_effect_from_menu_eff</text>
</a>
</g>
</g>
<!-- Node32&#45;&gt;Node33 -->
<g id="edge9_Node000032_Node000033" class="edge">
<title>Node32&#45;&gt;Node33</title>
<g id="a_edge9_Node000032_Node000033"><a xlink:title=" ">
<path fill="none" stroke="#63b8ff" d="M463.32,-842.61C444.31,-864.88 409.99,-900.89 372.5,-920.29 365.29,-924.02 357.41,-927.06 349.4,-929.53"/>
<polygon fill="#63b8ff" stroke="#63b8ff" points="465.82,-845.08 469.53,-835.16 460.44,-840.6 465.82,-845.08"/>
</a>
</g>
</g>
<!-- Node37 -->
<g id="Node000037" class="node">
<title>Node37</title>
<g id="a_Node000037"><a xlink:href="kest__ui_8c.html#af17d8912a520f607796e85d96467cc5a" target="_top" xlink:title=" ">
<polygon fill="#fff0f0" stroke="red" points="342.12,-911.66 218.12,-911.66 218.12,-890.91 342.12,-890.91 342.12,-911.66"/>
<text xml:space="preserve" text-anchor="middle" x="280.12" y="-898.16" font-family="Helvetica,sans-Serif" font-size="10.00">enter_parent_page_cb</text>
</a>
</g>
</g>
<!-- Node32&#45;&gt;Node37 -->
<g id="edge10_Node000032_Node000037" class="edge">
<title>Node32&#45;&gt;Node37</title>
<g id="a_edge10_Node000032_Node000037"><a xlink:title=" ">
<path fill="none" stroke="#63b8ff" d="M452.89,-840.19C431.94,-853.12 401.33,-870.53 372.5,-881.29 362.92,-884.87 352.51,-887.9 342.28,-890.43"/>
<polygon fill="#63b8ff" stroke="#63b8ff" points="454.74,-843.16 461.34,-834.87 451.02,-837.23 454.74,-843.16"/>
</a>
</g>
</g>
<!-- Node70 -->
<g id="Node000070" class="node">
<title>Node70</title>
<g id="a_Node000070"><a xlink:href="kest__ui_8c.html#a55489b2aedde51875965bc8ce017f2b7" target="_top" xlink:title=" ">
<polygon fill="white" stroke="#666666" points="372.5,-872.66 187.75,-872.66 187.75,-851.91 372.5,-851.91 372.5,-872.66"/>
<text xml:space="preserve" text-anchor="middle" x="280.12" y="-859.16" font-family="Helvetica,sans-Serif" font-size="10.00">enter_ui_page_backwardindirect_s</text>
</a>
</g>
</g>
<!-- Node32&#45;&gt;Node70 -->
<g id="edge11_Node000032_Node000070" class="edge">
<title>Node32&#45;&gt;Node70</title>
<g id="a_edge11_Node000032_Node000070"><a xlink:title=" ">
<path fill="none" stroke="#63b8ff" d="M412.64,-836.35C387.84,-841.24 359.95,-846.74 336.26,-851.42"/>
<polygon fill="#63b8ff" stroke="#63b8ff" points="413.17,-839.81 422.31,-834.44 411.82,-832.95 413.17,-839.81"/>
</a>
</g>
</g>
<!-- Node71 -->
<g id="Node000071" class="node">
<title>Node71</title>
<g id="a_Node000071"><a xlink:href="kest__ui_8c.html#ad7859b80d46090eac1c471b84cc5902d" target="_top" xlink:title=" ">
<polygon fill="white" stroke="#666666" points="359.75,-833.66 200.5,-833.66 200.5,-812.91 359.75,-812.91 359.75,-833.66"/>
<text xml:space="preserve" text-anchor="middle" x="280.12" y="-820.16" font-family="Helvetica,sans-Serif" font-size="10.00">enter_ui_page_backwards_cb</text>
</a>
</g>
</g>
<!-- Node32&#45;&gt;Node71 -->
<g id="edge12_Node000032_Node000071" class="edge">
<title>Node32&#45;&gt;Node71</title>
<g id="a_edge12_Node000032_Node000071"><a xlink:title=" ">
<path fill="none" stroke="#63b8ff" d="M396.62,-823.29C384.57,-823.29 372.18,-823.29 360.19,-823.29"/>
<polygon fill="#63b8ff" stroke="#63b8ff" points="396.53,-826.79 406.53,-823.29 396.53,-819.79 396.53,-826.79"/>
</a>
</g>
</g>
<!-- Node72 -->
<g id="Node000072" class="node">
<title>Node72</title>
<g id="a_Node000072"><a xlink:href="kest__ui_8c.html#a7ba9f40d455cf5bd91abe39068569a34" target="_top" xlink:title=" ">
<polygon fill="white" stroke="#666666" points="337.25,-795.04 223,-795.04 223,-761.54 337.25,-761.54 337.25,-795.04"/>
<text xml:space="preserve" text-anchor="start" x="231" y="-781.54" font-family="Helvetica,sans-Serif" font-size="10.00">kest_ui_page_return</text>
<text xml:space="preserve" text-anchor="middle" x="280.12" y="-768.79" font-family="Helvetica,sans-Serif" font-size="10.00">_to_parent</text>
</a>
</g>
</g>
<!-- Node32&#45;&gt;Node72 -->
<g id="edge13_Node000032_Node000072" class="edge">
<title>Node32&#45;&gt;Node72</title>
<g id="a_edge13_Node000032_Node000072"><a xlink:title=" ">
<path fill="none" stroke="#63b8ff" d="M420.34,-809.97C394.14,-804.01 363.39,-797.01 337.46,-791.11"/>
<polygon fill="#63b8ff" stroke="#63b8ff" points="419.25,-813.31 429.78,-812.12 420.81,-806.48 419.25,-813.31"/>
</a>
</g>
</g>
<!-- Node73 -->
<g id="Node000073" class="node">
<title>Node73</title>
<g id="a_Node000073"><a xlink:href="kest__preset__view_8c.html#ad8f2a9cb3a6c620482bbc532c6d024c8" target="_top" xlink:title=" ">
<polygon fill="white" stroke="#666666" points="348.12,-743.04 212.12,-743.04 212.12,-709.54 348.12,-709.54 348.12,-743.04"/>
<text xml:space="preserve" text-anchor="start" x="220.12" y="-729.54" font-family="Helvetica,sans-Serif" font-size="10.00">preset_view_enter_main</text>
<text xml:space="preserve" text-anchor="middle" x="280.12" y="-716.79" font-family="Helvetica,sans-Serif" font-size="10.00">_menu_cb</text>
</a>
</g>
</g>
<!-- Node32&#45;&gt;Node73 -->
<g id="edge14_Node000032_Node000073" class="edge">
<title>Node32&#45;&gt;Node73</title>
<g id="a_edge14_Node000032_Node000073"><a xlink:title=" ">
<path fill="none" stroke="#63b8ff" d="M457.01,-805.72C436.31,-789.82 403.82,-766.76 372.5,-752.29 364.86,-748.76 356.64,-745.61 348.38,-742.82"/>
<polygon fill="#63b8ff" stroke="#63b8ff" points="454.68,-808.34 464.72,-811.73 458.99,-802.82 454.68,-808.34"/>
</a>
</g>
</g>
<!-- Node75 -->
<g id="Node000075" class="node">
<title>Node75</title>
<g id="a_Node000075"><a xlink:href="kest__effect__view_8c.html#a3caa3eac8bae1af062f1c8b509d81bd2" target="_top" xlink:title=" ">
<polygon fill="#fff0f0" stroke="red" points="362.38,-691.66 197.88,-691.66 197.88,-670.91 362.38,-670.91 362.38,-691.66"/>
<text xml:space="preserve" text-anchor="middle" x="280.12" y="-678.16" font-family="Helvetica,sans-Serif" font-size="10.00">effect_view_enter_settings_cb</text>
</a>
</g>
</g>
<!-- Node74&#45;&gt;Node75 -->
<g id="edge16_Node000074_Node000075" class="edge">
<title>Node74&#45;&gt;Node75</title>
<g id="a_edge16_Node000074_Node000075"><a xlink:title=" ">
<path fill="none" stroke="#63b8ff" d="M472.02,-511.18C458.9,-547.74 426.62,-623.07 372.5,-661.29 367.33,-664.94 361.61,-667.95 355.63,-670.41"/>
<polygon fill="#63b8ff" stroke="#63b8ff" points="475.17,-512.79 475.12,-502.2 468.55,-510.51 475.17,-512.79"/>
</a>
</g>
</g>
<!-- Node76 -->
<g id="Node000076" class="node">
<title>Node76</title>
<g id="a_Node000076"><a xlink:href="kest__effect__select_8c.html#acd3eb99039d7b3531035a87718ae6948" target="_top" xlink:title=" ">
<polygon fill="#fff0f0" stroke="red" points="348.12,-652.66 212.12,-652.66 212.12,-631.91 348.12,-631.91 348.12,-652.66"/>
<text xml:space="preserve" text-anchor="middle" x="280.12" y="-639.16" font-family="Helvetica,sans-Serif" font-size="10.00">enter_effect_selector_cb</text>
</a>
</g>
</g>
<!-- Node74&#45;&gt;Node76 -->
<g id="edge17_Node000074_Node000076" class="edge">
<title>Node74&#45;&gt;Node76</title>
<g id="a_edge17_Node000074_Node000076"><a xlink:title=" ">
<path fill="none" stroke="#63b8ff" d="M468.23,-510.91C451.84,-540.48 417.55,-594.42 372.5,-622.29 365.18,-626.82 356.98,-630.33 348.56,-633.05"/>
<polygon fill="#63b8ff" stroke="#63b8ff" points="471.25,-512.68 472.9,-502.21 465.09,-509.36 471.25,-512.68"/>
</a>
</g>
</g>
<!-- Node77 -->
<g id="Node000077" class="node">
<title>Node77</title>
<g id="a_Node000077"><a xlink:href="kest__ui_8c.html#a8c61274edfd5c1adb98471432976c3b6" target="_top" xlink:title=" ">
<polygon fill="#fff0f0" stroke="red" points="354.88,-613.66 205.38,-613.66 205.38,-592.91 354.88,-592.91 354.88,-613.66"/>
<text xml:space="preserve" text-anchor="middle" x="280.12" y="-600.16" font-family="Helvetica,sans-Serif" font-size="10.00">enter_ui_page_forwards_cb</text>
</a>
</g>
</g>
<!-- Node74&#45;&gt;Node77 -->
<g id="edge18_Node000074_Node000077" class="edge">
<title>Node74&#45;&gt;Node77</title>
<g id="a_edge18_Node000074_Node000077"><a xlink:title=" ">
<path fill="none" stroke="#63b8ff" d="M462.67,-509.69C443.46,-531.37 409.35,-565.83 372.5,-584.29 365.98,-587.55 358.93,-590.26 351.74,-592.5"/>
<polygon fill="#63b8ff" stroke="#63b8ff" points="465.3,-512 469.2,-502.15 460.01,-507.42 465.3,-512"/>
</a>
</g>
</g>
<!-- Node80 -->
<g id="Node000080" class="node">
<title>Node80</title>
<g id="a_Node000080"><a xlink:href="kest__ui_8c.html#a6cc33fc0b802073df734a4fa9e0490ad" target="_top" xlink:title=" ">
<polygon fill="white" stroke="#666666" points="343.62,-575.04 216.62,-575.04 216.62,-541.54 343.62,-541.54 343.62,-575.04"/>
<text xml:space="preserve" text-anchor="start" x="224.62" y="-561.54" font-family="Helvetica,sans-Serif" font-size="10.00">enter_ui_page_indirect</text>
<text xml:space="preserve" text-anchor="middle" x="280.12" y="-548.79" font-family="Helvetica,sans-Serif" font-size="10.00">_forwards</text>
</a>
</g>
</g>
<!-- Node74&#45;&gt;Node80 -->
<g id="edge19_Node000074_Node000080" class="edge">
<title>Node74&#45;&gt;Node80</title>
<g id="a_edge19_Node000074_Node000080"><a xlink:title=" ">
<path fill="none" stroke="#63b8ff" d="M437.42,-504.79C417.76,-511.65 393.93,-519.93 372.5,-527.29 359.35,-531.81 345.12,-536.65 331.9,-541.14"/>
<polygon fill="#63b8ff" stroke="#63b8ff" points="438.46,-508.14 446.74,-501.54 436.15,-501.53 438.46,-508.14"/>
</a>
</g>
</g>
<!-- Node81 -->
<g id="Node000081" class="node">
<title>Node81</title>
<g id="a_Node000081"><a xlink:href="kest__menu_8c.html#a7b561ce007bc70c05d37e79e0354d4ab" target="_top" xlink:title=" ">
<polygon fill="#fff0f0" stroke="red" points="151.75,-545.66 0,-545.66 0,-524.91 151.75,-524.91 151.75,-545.66"/>
<text xml:space="preserve" text-anchor="middle" x="75.88" y="-532.16" font-family="Helvetica,sans-Serif" font-size="10.00">menu_page_link_clicked_cb</text>
</a>
</g>
</g>
<!-- Node74&#45;&gt;Node81 -->
<g id="edge23_Node000074_Node000081" class="edge">
<title>Node74&#45;&gt;Node81</title>
<g id="a_edge23_Node000074_Node000081"><a xlink:title=" ">
<path fill="none" stroke="#63b8ff" d="M401.71,-498.93C329.83,-506.97 223.33,-518.89 152.09,-526.87"/>
<polygon fill="#63b8ff" stroke="#63b8ff" points="401.89,-502.43 411.44,-497.84 401.11,-495.47 401.89,-502.43"/>
</a>
</g>
</g>
<!-- Node82 -->
<g id="Node000082" class="node">
<title>Node82</title>
<g id="a_Node000082"><a xlink:href="kest__menu_8c.html#a30f08e153f427548f6d0f9458dd45a20" target="_top" xlink:title=" ">
<polygon fill="#fff0f0" stroke="red" points="351.5,-485.04 208.75,-485.04 208.75,-451.54 351.5,-451.54 351.5,-485.04"/>
<text xml:space="preserve" text-anchor="start" x="216.75" y="-471.54" font-family="Helvetica,sans-Serif" font-size="10.00">menu_item_preset_listing</text>
<text xml:space="preserve" text-anchor="middle" x="280.12" y="-458.79" font-family="Helvetica,sans-Serif" font-size="10.00">_released_cb</text>
</a>
</g>
</g>
<!-- Node74&#45;&gt;Node82 -->
<g id="edge21_Node000074_Node000082" class="edge">
<title>Node74&#45;&gt;Node82</title>
<g id="a_edge21_Node000074_Node000082"><a xlink:title=" ">
<path fill="none" stroke="#63b8ff" d="M401.78,-481.71C385.31,-479.88 367.99,-477.95 351.78,-476.15"/>
<polygon fill="#63b8ff" stroke="#63b8ff" points="401.2,-485.17 411.52,-482.8 401.97,-478.21 401.2,-485.17"/>
</a>
</g>
</g>
<!-- Node59 -->
<g id="Node000059" class="node">
<title>Node59</title>
<g id="a_Node000059"><a xlink:href="kest__sequence__list_8c.html#a0788bbcb1aa9c85a904e084c2abd48ad" target="_top" xlink:title=" ">
<polygon fill="#fff0f0" stroke="red" points="341.75,-433.04 218.5,-433.04 218.5,-399.54 341.75,-399.54 341.75,-433.04"/>
<text xml:space="preserve" text-anchor="start" x="226.5" y="-419.54" font-family="Helvetica,sans-Serif" font-size="10.00">menu_item_sequence</text>
<text xml:space="preserve" text-anchor="middle" x="280.12" y="-406.79" font-family="Helvetica,sans-Serif" font-size="10.00">_listing_released_cb</text>
</a>
</g>
</g>
<!-- Node74&#45;&gt;Node59 -->
<g id="edge22_Node000074_Node000059" class="edge">
<title>Node74&#45;&gt;Node59</title>
<g id="a_edge22_Node000074_Node000059"><a xlink:title=" ">
<path fill="none" stroke="#63b8ff" d="M447.45,-474.64C426.53,-464.59 398.26,-451.71 372.5,-442.29 362.74,-438.72 352.25,-435.33 341.98,-432.25"/>
<polygon fill="#63b8ff" stroke="#63b8ff" points="445.78,-477.72 456.3,-478.94 448.84,-471.42 445.78,-477.72"/>
</a>
</g>
</g>
<!-- Node83 -->
<g id="Node000083" class="node">
<title>Node83</title>
<g id="a_Node000083"><a xlink:href="kest__preset__view_8c.html#aa520b487e8647229d753148ac01febc3" target="_top" xlink:title=" ">
<polygon fill="#fff0f0" stroke="red" points="334.62,-381.04 225.62,-381.04 225.62,-347.54 334.62,-347.54 334.62,-381.04"/>
<text xml:space="preserve" text-anchor="start" x="233.62" y="-367.54" font-family="Helvetica,sans-Serif" font-size="10.00">preset_view_effect</text>
<text xml:space="preserve" text-anchor="middle" x="280.12" y="-354.79" font-family="Helvetica,sans-Serif" font-size="10.00">_click_cb</text>
</a>
</g>
</g>
<!-- Node74&#45;&gt;Node83 -->
<g id="edge24_Node000074_Node000083" class="edge">
<title>Node74&#45;&gt;Node83</title>
<g id="a_edge24_Node000074_Node000083"><a xlink:title=" ">
<path fill="none" stroke="#63b8ff" d="M463.24,-470.76C444.13,-448.18 409.73,-411.4 372.5,-390.29 361.02,-383.78 347.79,-378.8 335.03,-375.03"/>
<polygon fill="#63b8ff" stroke="#63b8ff" points="460.42,-472.84 469.49,-478.32 465.81,-468.38 460.42,-472.84"/>
</a>
</g>
</g>
<!-- Node84 -->
<g id="Node000084" class="node">
<title>Node84</title>
<g id="a_Node000084"><a xlink:href="kest__preset__view_8c.html#a446ea527879a6182b34b5fc2185ebe00" target="_top" xlink:title=" ">
<polygon fill="#fff0f0" stroke="red" points="355.25,-329.04 205,-329.04 205,-295.54 355.25,-295.54 355.25,-329.04"/>
<text xml:space="preserve" text-anchor="start" x="213" y="-315.54" font-family="Helvetica,sans-Serif" font-size="10.00">preset_view_enter_settings</text>
<text xml:space="preserve" text-anchor="middle" x="280.12" y="-302.79" font-family="Helvetica,sans-Serif" font-size="10.00">_page_cb</text>
</a>
</g>
</g>
<!-- Node74&#45;&gt;Node84 -->
<g id="edge25_Node000074_Node000084" class="edge">
<title>Node74&#45;&gt;Node84</title>
<g id="a_edge25_Node000074_Node000084"><a xlink:title=" ">
<path fill="none" stroke="#63b8ff" d="M469.89,-469.28C454.71,-436.33 420.85,-372.71 372.5,-338.29 367.26,-334.56 361.5,-331.36 355.49,-328.62"/>
<polygon fill="#63b8ff" stroke="#63b8ff" points="466.59,-470.47 473.86,-478.18 472.98,-467.62 466.59,-470.47"/>
</a>
</g>
</g>
<!-- Node66 -->
<g id="Node000066" class="node">
<title>Node66</title>
<g id="a_Node000066"><a xlink:href="kest__sequence__view_8c.html#abc9a54120c4bc7c4fe6a4632764e5e91" target="_top" xlink:title=" ">
<polygon fill="#fff0f0" stroke="red" points="338.75,-277.66 221.5,-277.66 221.5,-256.91 338.75,-256.91 338.75,-277.66"/>
<text xml:space="preserve" text-anchor="middle" x="280.12" y="-264.16" font-family="Helvetica,sans-Serif" font-size="10.00">seq_view_clicked_cb</text>
</a>
</g>
</g>
<!-- Node74&#45;&gt;Node66 -->
<g id="edge26_Node000074_Node000066" class="edge">
<title>Node74&#45;&gt;Node66</title>
<g id="a_edge26_Node000074_Node000066"><a xlink:title=" ">
<path fill="none" stroke="#63b8ff" d="M474.11,-468.64C463.63,-426.42 434.41,-333.12 372.5,-286.29 362.81,-278.96 350.95,-274.29 339.03,-271.36"/>
<polygon fill="#63b8ff" stroke="#63b8ff" points="470.69,-469.37 476.38,-478.31 477.5,-467.77 470.69,-469.37"/>
</a>
</g>
</g>
<!-- Node80&#45;&gt;Node81 -->
<g id="edge20_Node000080_Node000081" class="edge">
<title>Node80&#45;&gt;Node81</title>
<g id="a_edge20_Node000080_Node000081"><a xlink:title=" ">
<path fill="none" stroke="#63b8ff" d="M205.09,-549.87C187.84,-547.91 169.46,-545.82 152.15,-543.85"/>
<polygon fill="#63b8ff" stroke="#63b8ff" points="204.41,-553.31 214.74,-550.97 205.2,-546.36 204.41,-553.31"/>
</a>
</g>
</g>
<!-- Node86 -->
<g id="Node000086" class="node">
<title>Node86</title>
<g id="a_Node000086"><a xlink:href="kest__state_8c.html#ab26da214ed0f9d143d63e80a7012796b" target="_top" xlink:title=" ">
<polygon fill="white" stroke="#666666" points="343.25,-238.66 217,-238.66 217,-217.91 343.25,-217.91 343.25,-238.66"/>
<text xml:space="preserve" text-anchor="middle" x="280.12" y="-225.16" font-family="Helvetica,sans-Serif" font-size="10.00">kest_cxt_restore_state</text>
</a>
</g>
</g>
<!-- Node85&#45;&gt;Node86 -->
<g id="edge28_Node000085_Node000086" class="edge">
<title>Node85&#45;&gt;Node86</title>
<g id="a_edge28_Node000085_Node000086"><a xlink:title=" ">
<path fill="none" stroke="#63b8ff" d="M442.71,-173.36C422.67,-185.26 396.94,-199.16 372.5,-208.29 362.92,-211.87 352.51,-214.9 342.28,-217.43"/>
<polygon fill="#63b8ff" stroke="#63b8ff" points="444.3,-176.48 451.04,-168.31 440.68,-170.5 444.3,-176.48"/>
</a>
</g>
</g>
<!-- Node87 -->
<g id="Node000087" class="node">
<title>Node87</title>
<g id="a_Node000087"><a xlink:href="kest__sequence_8c.html#a85f3248c9d10338f835e998245e44b30" target="_top" xlink:title=" ">
<polygon fill="#fff0f0" stroke="red" points="347.38,-199.66 212.88,-199.66 212.88,-178.91 347.38,-178.91 347.38,-199.66"/>
<text xml:space="preserve" text-anchor="middle" x="280.12" y="-186.16" font-family="Helvetica,sans-Serif" font-size="10.00">kest_sequence_advance</text>
</a>
</g>
</g>
<!-- Node85&#45;&gt;Node87 -->
<g id="edge30_Node000085_Node000087" class="edge">
<title>Node85&#45;&gt;Node87</title>
<g id="a_edge30_Node000085_Node000087"><a xlink:title=" ">
<path fill="none" stroke="#63b8ff" d="M403,-165.25C380.71,-169.65 356.78,-174.37 336.08,-178.45"/>
<polygon fill="#63b8ff" stroke="#63b8ff" points="403.51,-168.72 412.64,-163.35 402.15,-161.85 403.51,-168.72"/>
</a>
</g>
</g>
<!-- Node91 -->
<g id="Node000091" class="node">
<title>Node91</title>
<g id="a_Node000091"><a xlink:href="kest__sequence_8c.html#adf2bc7c26b0bead2b6bd85fcd9bc6248" target="_top" xlink:title=" ">
<polygon fill="#fff0f0" stroke="red" points="340.25,-160.66 220,-160.66 220,-139.91 340.25,-139.91 340.25,-160.66"/>
<text xml:space="preserve" text-anchor="middle" x="280.12" y="-147.16" font-family="Helvetica,sans-Serif" font-size="10.00">kest_sequence_begin</text>
</a>
</g>
</g>
<!-- Node85&#45;&gt;Node91 -->
<g id="edge31_Node000085_Node000091" class="edge">
<title>Node85&#45;&gt;Node91</title>
<g id="a_edge31_Node000085_Node000091"><a xlink:title=" ">
<path fill="none" stroke="#63b8ff" d="M402.84,-150.29C382.23,-150.29 360.22,-150.29 340.67,-150.29"/>
<polygon fill="#63b8ff" stroke="#63b8ff" points="402.61,-153.79 412.61,-150.29 402.61,-146.79 402.61,-153.79"/>
</a>
</g>
</g>
<!-- Node93 -->
<g id="Node000093" class="node">
<title>Node93</title>
<g id="a_Node000093"><a xlink:href="kest__sequence_8c.html#a97e4f82b9caaf6a25f606d1f7f4bad5d" target="_top" xlink:title=" ">
<polygon fill="#fff0f0" stroke="red" points="347.75,-121.66 212.5,-121.66 212.5,-100.91 347.75,-100.91 347.75,-121.66"/>
<text xml:space="preserve" text-anchor="middle" x="280.12" y="-108.16" font-family="Helvetica,sans-Serif" font-size="10.00">kest_sequence_begin_at</text>
</a>
</g>
</g>
<!-- Node85&#45;&gt;Node93 -->
<g id="edge32_Node000085_Node000093" class="edge">
<title>Node85&#45;&gt;Node93</title>
<g id="a_edge32_Node000085_Node000093"><a xlink:title=" ">
<path fill="none" stroke="#63b8ff" d="M403,-135.32C380.71,-130.93 356.78,-126.21 336.08,-122.13"/>
<polygon fill="#63b8ff" stroke="#63b8ff" points="402.15,-138.72 412.64,-137.23 403.51,-131.86 402.15,-138.72"/>
</a>
</g>
</g>
<!-- Node95 -->
<g id="Node000095" class="node">
<title>Node95</title>
<g id="a_Node000095"><a xlink:href="kest__sequence_8c.html#a0076ab743ce384590dc02431edb343c3" target="_top" xlink:title=" ">
<polygon fill="#fff0f0" stroke="red" points="344.75,-82.66 215.5,-82.66 215.5,-61.91 344.75,-61.91 344.75,-82.66"/>
<text xml:space="preserve" text-anchor="middle" x="280.12" y="-69.16" font-family="Helvetica,sans-Serif" font-size="10.00">kest_sequence_regress</text>
</a>
</g>
</g>
<!-- Node85&#45;&gt;Node95 -->
<g id="edge33_Node000085_Node000095" class="edge">
<title>Node85&#45;&gt;Node95</title>
<g id="a_edge33_Node000085_Node000095"><a xlink:title=" ">
<path fill="none" stroke="#63b8ff" d="M442.71,-127.22C422.67,-115.31 396.94,-101.41 372.5,-92.29 362.92,-88.71 352.51,-85.68 342.28,-83.15"/>
<polygon fill="#63b8ff" stroke="#63b8ff" points="440.68,-130.08 451.04,-132.26 444.3,-124.09 440.68,-130.08"/>
</a>
</g>
</g>
<!-- Node96 -->
<g id="Node000096" class="node">
<title>Node96</title>
<g id="a_Node000096"><a xlink:href="kest__sequence_8c.html#a3b2993ed35376e7c9a4fb0f4496b2757" target="_top" xlink:title=" ">
<polygon fill="white" stroke="#666666" points="337.25,-43.66 223,-43.66 223,-22.91 337.25,-22.91 337.25,-43.66"/>
<text xml:space="preserve" text-anchor="middle" x="280.12" y="-30.16" font-family="Helvetica,sans-Serif" font-size="10.00">kest_sequence_stop</text>
</a>
</g>
</g>
<!-- Node85&#45;&gt;Node96 -->
<g id="edge34_Node000085_Node000096" class="edge">
<title>Node85&#45;&gt;Node96</title>
<g id="a_edge34_Node000085_Node000096"><a xlink:title=" ">
<path fill="none" stroke="#63b8ff" d="M457.88,-124.7C438.16,-102.4 406.64,-70.95 372.5,-53.29 361.68,-47.69 349.36,-43.66 337.34,-40.75"/>
<polygon fill="#63b8ff" stroke="#63b8ff" points="455.16,-126.91 464.34,-132.19 460.46,-122.33 455.16,-126.91"/>
</a>
</g>
</g>
<!-- Node8 -->
<g id="Node000008" class="node">
<title>Node8</title>
<g id="a_Node000008"><a xlink:href="kest__init_8c.html#ad1373cd24ac2876b2830d1ad2eb92721" target="_top" xlink:title=" ">
<polygon fill="#fff0f0" stroke="red" points="104.5,-122.66 47.25,-122.66 47.25,-101.91 104.5,-101.91 104.5,-122.66"/>
<text xml:space="preserve" text-anchor="middle" x="75.88" y="-109.16" font-family="Helvetica,sans-Serif" font-size="10.00">kest_init</text>
</a>
</g>
</g>
<!-- Node86&#45;&gt;Node8 -->
<g id="edge29_Node000086_Node000008" class="edge">
<title>Node86&#45;&gt;Node8</title>
<g id="a_edge29_Node000086_Node000008"><a xlink:title=" ">
<path fill="none" stroke="#63b8ff" d="M206.01,-215.77C199.69,-213.65 193.52,-211.18 187.75,-208.29 143.82,-186.27 103.11,-142.89 85.73,-122.87"/>
<polygon fill="#63b8ff" stroke="#63b8ff" points="204.71,-219.03 215.29,-218.57 206.73,-212.33 204.71,-219.03"/>
</a>
</g>
</g>
<!-- Node98 -->
<g id="Node000098" class="node">
<title>Node98</title>
<g id="a_Node000098"><a xlink:href="kest__context_8c.html#a8d785a89178c048ac11ee14f2a659993" target="_top" xlink:title=" ">
<polygon fill="white" stroke="#666666" points="529.5,-60.66 430.25,-60.66 430.25,-39.91 529.5,-39.91 529.5,-60.66"/>
<text xml:space="preserve" text-anchor="middle" x="479.88" y="-47.16" font-family="Helvetica,sans-Serif" font-size="10.00">kest_init_context</text>
</a>
</g>
</g>
<!-- Node97&#45;&gt;Node98 -->
<g id="edge36_Node000097_Node000098" class="edge">
<title>Node97&#45;&gt;Node98</title>
<g id="a_edge36_Node000097_Node000098"><a xlink:title=" ">
<path fill="none" stroke="#63b8ff" d="M641.9,-259.21C622.27,-226.2 586.91,-169.24 551.25,-124.29 532.19,-100.26 506.75,-74.91 492.26,-61"/>
<polygon fill="#63b8ff" stroke="#63b8ff" points="638.84,-260.91 646.93,-267.74 644.86,-257.35 638.84,-260.91"/>
</a>
</g>
</g>
<!-- Node98&#45;&gt;Node8 -->
<g id="edge37_Node000098_Node000008" class="edge">
<title>Node98&#45;&gt;Node8</title>
<g id="a_edge37_Node000098_Node000008"><a xlink:title=" ">
<path fill="none" stroke="#63b8ff" d="M443.31,-35.39C387.14,-14.13 275.27,18.85 187.75,-14.29 140.66,-32.12 100.68,-80.09 84.53,-101.6"/>
<polygon fill="#63b8ff" stroke="#63b8ff" points="441.78,-38.55 452.37,-38.91 444.32,-32.02 441.78,-38.55"/>
</a>
</g>
</g>
</g>
</svg>
