<?xml version="1.0" encoding="UTF-8" standalone="no"?>
<!DOCTYPE svg PUBLIC "-//W3C//DTD SVG 1.1//EN"
 "http://www.w3.org/Graphics/SVG/1.1/DTD/svg11.dtd">
<!-- Generated by graphviz version 13.1.2 (20250808.2320)
 -->
<!-- Title: kest_fpga_status_flags_sprint Pages: 1 -->
<svg width="451pt" height="42pt"
 viewBox="0.00 0.00 451.00 42.00" xmlns="http://www.w3.org/2000/svg" xmlns:xlink="http://www.w3.org/1999/xlink">
<g id="graph0" class="graph" transform="scale(1 1) rotate(0) translate(4 37.5)">
<title>kest_fpga_status_flags_sprint</title>
<!-- Node1 -->
<g id="Node000001" class="node">
<title>Node1</title>
<g id="a_Node000001"><a xlink:title=" ">
<polygon fill="#999999" stroke="#666666" points="127.75,-33.5 0,-33.5 0,0 127.75,0 127.75,-33.5"/>
<text xml:space="preserve" text-anchor="start" x="8" y="-20" font-family="Helvetica,sans-Serif" font-size="10.00">kest_fpga_status_flags</text>
<text xml:space="preserve" text-anchor="middle" x="63.88" y="-7.25" font-family="Helvetica,sans-Serif" font-size="10.00">_sprint</text>
</a>
</g>
</g>
<!-- Node2 -->
<g id="Node000002" class="node">
<title>Node2</title>
<g id="a_Node000002"><a xlink:href="kest__string_8c.html#a5e8184b1f070fc74a7d1d2f08c4d9658" target="_top" xlink:title=" ">
<polygon fill="white" stroke="#666666" points="278,-27.12 163.75,-27.12 163.75,-6.38 278,-6.38 278,-27.12"/>
<text xml:space="preserve" text-anchor="middle" x="220.88" y="-13.62" font-family="Helvetica,sans-Serif" font-size="10.00">kest_string_appendf</text>
</a>
</g>
</g>
<!-- Node1&#45;&gt;Node2 -->
<g id="edge1_Node000001_Node000002" class="edge">
<title>Node1&#45;&gt;Node2</title>
<g id="a_edge1_Node000001_Node000002"><a xlink:title=" ">
<path fill="none" stroke="#63b8ff" d="M127.92,-16.75C135.89,-16.75 144.08,-16.75 152.13,-16.75"/>
<polygon fill="#63b8ff" stroke="#63b8ff" points="151.85,-20.25 161.85,-16.75 151.85,-13.25 151.85,-20.25"/>
</a>
</g>
</g>
<!-- Node3 -->
<g id="Node000003" class="node">
<title>Node3</title>
<g id="a_Node000003"><a xlink:href="kest__string_8c.html#ab38fd4531ec8be3f9c32f467f6808951" target="_top" xlink:title=" ">
<polygon fill="white" stroke="#666666" points="442.5,-27.12 314,-27.12 314,-6.38 442.5,-6.38 442.5,-27.12"/>
<text xml:space="preserve" text-anchor="middle" x="378.25" y="-13.62" font-family="Helvetica,sans-Serif" font-size="10.00">kest_string_append_str</text>
</a>
</g>
</g>
<!-- Node2&#45;&gt;Node3 -->
<g id="edge2_Node000002_Node000003" class="edge">
<title>Node2&#45;&gt;Node3</title>
<g id="a_edge2_Node000002_Node000003"><a xlink:title=" ">
<path fill="none" stroke="#63b8ff" d="M278.41,-16.75C286.19,-16.75 294.28,-16.75 302.34,-16.75"/>
<polygon fill="#63b8ff" stroke="#63b8ff" points="302.14,-20.25 312.14,-16.75 302.14,-13.25 302.14,-20.25"/>
</a>
</g>
</g>
</g>
</svg>
