<?xml version="1.0" encoding="UTF-8" standalone="no"?>
<!DOCTYPE svg PUBLIC "-//W3C//DTD SVG 1.1//EN"
 "http://www.w3.org/Graphics/SVG/1.1/DTD/svg11.dtd">
<!-- Generated by graphviz version 13.1.2 (20250808.2320)
 -->
<!-- Title: kest_expr_create_lpf_coefficients Pages: 1 -->
<svg width="632pt" height="87pt"
 viewBox="0.00 0.00 632.00 87.00" xmlns="http://www.w3.org/2000/svg" xmlns:xlink="http://www.w3.org/1999/xlink">
<g id="graph0" class="graph" transform="scale(1 1) rotate(0) translate(4 82.5)">
<title>kest_expr_create_lpf_coefficients</title>
<!-- Node1 -->
<g id="Node000001" class="node">
<title>Node1</title>
<g id="a_Node000001"><a xlink:title=" ">
<polygon fill="#999999" stroke="#666666" points="623.5,-55.5 506.25,-55.5 506.25,-22 623.5,-22 623.5,-55.5"/>
<text xml:space="preserve" text-anchor="start" x="514.25" y="-42" font-family="Helvetica,sans-Serif" font-size="10.00">kest_expr_create_lpf</text>
<text xml:space="preserve" text-anchor="middle" x="564.88" y="-29.25" font-family="Helvetica,sans-Serif" font-size="10.00">_coefficients</text>
</a>
</g>
</g>
<!-- Node2 -->
<g id="Node000002" class="node">
<title>Node2</title>
<g id="a_Node000002"><a xlink:href="kest__dict__extract_8c.html#a7c043dafd8c1cd4aa7cc2a7126c51561" target="_top" xlink:title=" ">
<polygon fill="white" stroke="#666666" points="444.38,-70.12 350.38,-70.12 350.38,-49.38 444.38,-49.38 444.38,-70.12"/>
<text xml:space="preserve" text-anchor="middle" x="397.38" y="-56.62" font-family="Helvetica,sans-Serif" font-size="10.00">kest_extract_lpf</text>
</a>
</g>
</g>
<!-- Node1&#45;&gt;Node2 -->
<g id="edge1_Node000001_Node000002" class="edge">
<title>Node1&#45;&gt;Node2</title>
<g id="a_edge1_Node000001_Node000002"><a xlink:title=" ">
<path fill="none" stroke="#63b8ff" d="M495.01,-47.49C478.08,-49.64 460.35,-51.89 444.77,-53.86"/>
<polygon fill="#63b8ff" stroke="#63b8ff" points="495.01,-51.02 504.49,-46.29 494.13,-44.07 495.01,-51.02"/>
</a>
</g>
</g>
<!-- Node19 -->
<g id="Node000019" class="node">
<title>Node19</title>
<g id="a_Node000019"><a xlink:href="kest__dict__extract_8c.html#ab3a10359fda7bd744b54f0c72f1f497d" target="_top" xlink:title=" ">
<polygon fill="white" stroke="#666666" points="470.25,-30.12 324.5,-30.12 324.5,-9.38 470.25,-9.38 470.25,-30.12"/>
<text xml:space="preserve" text-anchor="middle" x="397.38" y="-16.62" font-family="Helvetica,sans-Serif" font-size="10.00">kest_extract_lpf_from_dict</text>
</a>
</g>
</g>
<!-- Node1&#45;&gt;Node19 -->
<g id="edge4_Node000001_Node000019" class="edge">
<title>Node1&#45;&gt;Node19</title>
<g id="a_edge4_Node000001_Node000019"><a xlink:title=" ">
<path fill="none" stroke="#63b8ff" d="M494.79,-30.82C486.76,-29.9 478.56,-28.96 470.49,-28.03"/>
<polygon fill="#63b8ff" stroke="#63b8ff" points="494.15,-34.27 504.49,-31.93 494.95,-27.31 494.15,-34.27"/>
</a>
</g>
</g>
<!-- Node3 -->
<g id="Node000003" class="node">
<title>Node3</title>
<g id="a_Node000003"><a xlink:href="kest__dict__extract_8c.html#a380375dec37f2a914cd428342a6cbfe3" target="_top" xlink:title=" ">
<polygon fill="white" stroke="#666666" points="288.5,-72.12 165.25,-72.12 165.25,-51.38 288.5,-51.38 288.5,-72.12"/>
<text xml:space="preserve" text-anchor="middle" x="226.88" y="-58.62" font-family="Helvetica,sans-Serif" font-size="10.00">kest_extract_resource</text>
</a>
</g>
</g>
<!-- Node2&#45;&gt;Node3 -->
<g id="edge2_Node000002_Node000003" class="edge">
<title>Node2&#45;&gt;Node3</title>
<g id="a_edge2_Node000002_Node000003"><a xlink:title=" ">
<path fill="none" stroke="#63b8ff" d="M338.49,-60.44C322.43,-60.63 304.96,-60.84 288.74,-61.03"/>
<polygon fill="#63b8ff" stroke="#63b8ff" points="338.41,-63.94 348.37,-60.32 338.33,-56.94 338.41,-63.94"/>
</a>
</g>
</g>
<!-- Node4 -->
<g id="Node000004" class="node">
<title>Node4</title>
<g id="a_Node000004"><a xlink:href="kest__eff__section_8c.html#a55e76cf45dd01c8cc35bf2323f67b931" target="_top" xlink:title=" ">
<polygon fill="#fff0f0" stroke="red" points="129.25,-78.5 0,-78.5 0,-45 129.25,-45 129.25,-78.5"/>
<text xml:space="preserve" text-anchor="start" x="8" y="-65" font-family="Helvetica,sans-Serif" font-size="10.00">kest_resources_section</text>
<text xml:space="preserve" text-anchor="middle" x="64.62" y="-52.25" font-family="Helvetica,sans-Serif" font-size="10.00">_extract</text>
</a>
</g>
</g>
<!-- Node3&#45;&gt;Node4 -->
<g id="edge3_Node000003_Node000004" class="edge">
<title>Node3&#45;&gt;Node4</title>
<g id="a_edge3_Node000003_Node000004"><a xlink:title=" ">
<path fill="none" stroke="#63b8ff" d="M153.37,-61.75C145.47,-61.75 137.48,-61.75 129.69,-61.75"/>
<polygon fill="#63b8ff" stroke="#63b8ff" points="153.32,-65.25 163.32,-61.75 153.32,-58.25 153.32,-65.25"/>
</a>
</g>
</g>
<!-- Node18 -->
<g id="Node000018" class="node">
<title>Node18</title>
<g id="a_Node000018"><a xlink:href="kest__dict__extract_8c.html#ad78dabb9f962180138c9dfc2bf1731e3" target="_top" xlink:title=" ">
<polygon fill="white" stroke="#666666" points="288.5,-33.5 165.25,-33.5 165.25,0 288.5,0 288.5,-33.5"/>
<text xml:space="preserve" text-anchor="start" x="173.25" y="-20" font-family="Helvetica,sans-Serif" font-size="10.00">kest_extract_resource</text>
<text xml:space="preserve" text-anchor="middle" x="226.88" y="-7.25" font-family="Helvetica,sans-Serif" font-size="10.00">_from_dict</text>
</a>
</g>
</g>
<!-- Node19&#45;&gt;Node18 -->
<g id="edge5_Node000019_Node000018" class="edge">
<title>Node19&#45;&gt;Node18</title>
<g id="a_edge5_Node000019_Node000018"><a xlink:title=" ">
<path fill="none" stroke="#63b8ff" d="M313.01,-18.27C304.91,-18.12 296.8,-17.98 288.97,-17.84"/>
<polygon fill="#63b8ff" stroke="#63b8ff" points="312.85,-21.76 322.91,-18.44 312.98,-14.76 312.85,-21.76"/>
</a>
</g>
</g>
</g>
</svg>
