<?xml version="1.0" encoding="UTF-8" standalone="no"?>
<!DOCTYPE svg PUBLIC "-//W3C//DTD SVG 1.1//EN"
 "http://www.w3.org/Graphics/SVG/1.1/DTD/svg11.dtd">
<!-- Generated by graphviz version 13.1.2 (20250808.2320)
 -->
<!-- Title: enter_ui_page_forwards Pages: 1 -->
<!--zoomable 444 -->

<svg id="main" version="1.1" xmlns="http://www.w3.org/2000/svg" xmlns:xlink="http://www.w3.org/1999/xlink" xml:space="preserve" onload="init(evt)">

<style type="text/css"><![CDATA[
.node, .edge {opacity: 0.7;}
.node.selected, .edge.selected {opacity: 1;}
.edge:hover path { stroke: red; }
.edge:hover polygon { stroke: red; fill: red; }
]]></style>

<defs>
  <circle id="rim" cx="0" cy="0" r="7"/>
  <circle id="rim2" cx="0" cy="0" r="3.5"/>
  <g id="zoomPlus">
    <use xlink:href="#rim" fill="#404040"><set attributeName="fill" to="#808080" begin="zoomplus.mouseover" end="zoomplus.mouseout"/></use>
    <path d="M-4,0h8M0,-4v8" fill="none" stroke="white" stroke-width="1.5" pointer-events="none"/>
  </g>
  <g id="zoomMin">
    <use xlink:href="#rim" fill="#404040"><set attributeName="fill" to="#808080" begin="zoomminus.mouseover" end="zoomminus.mouseout"/></use>
    <path d="M-4,0h8" fill="none" stroke="white" stroke-width="1.5" pointer-events="none"/>
  </g>
  <g id="arrowUp" transform="translate(30 24)">
    <use xlink:href="#rim"/>
    <path pointer-events="none" fill="none" stroke="white" stroke-width="1.5" d="M0,-3.0v7 M-2.5,-0.5L0,-3.0L2.5,-0.5"/>
  </g>
  <g id="arrowRight" transform="rotate(90) translate(36 -43)">
    <use xlink:href="#rim"/>
    <path pointer-events="none" fill="none" stroke="white" stroke-width="1.5" d="M0,-3.0v7 M-2.5,-0.5L0,-3.0L2.5,-0.5"/>
  </g>
  <g id="arrowDown" transform="rotate(180) translate(-30 -48)">
    <use xlink:href="#rim"/>
    <path pointer-events="none" fill="none" stroke="white" stroke-width="1.5" d="M0,-3.0v7 M-2.5,-0.5L0,-3.0L2.5,-0.5"/>
  </g>
  <g id="arrowLeft" transform="rotate(270) translate(-36 17)">
    <use xlink:href="#rim"/>
    <path pointer-events="none" fill="none" stroke="white" stroke-width="1.5" d="M0,-3.0v7 M-2.5,-0.5L0,-3.0L2.5,-0.5"/>
  </g>
  <g id="resetDef">
    <use xlink:href="#rim2" fill="#404040"><set attributeName="fill" to="#808080" begin="reset.mouseover" end="reset.mouseout"/></use>
  </g>
</defs>
<script type="application/ecmascript">
var viewWidth = 1018;
var viewHeight = 444;
var sectionId = 'dynsection-38';
</script>
<script type="application/ecmascript" xlink:href="svg.min.js"/>
<svg id="graph" class="graph">
<g id="viewport">
<title>enter_ui_page_forwards</title>
<!-- Node1 -->
<g id="Node000001" class="node">
<title>Node1</title>
<g id="a_Node000001"><a xlink:title=" ">
<polygon fill="#999999" stroke="#666666" points="1010.25,-219.12 877.25,-219.12 877.25,-198.38 1010.25,-198.38 1010.25,-219.12"/>
<text xml:space="preserve" text-anchor="middle" x="943.75" y="-205.62" font-family="Helvetica,sans-Serif" font-size="10.00">enter_ui_page_forwards</text>
</a>
</g>
</g>
<!-- Node2 -->
<g id="Node000002" class="node">
<title>Node2</title>
<g id="a_Node000002"><a xlink:href="kest__effect__view_8c.html#a3caa3eac8bae1af062f1c8b509d81bd2" target="_top" xlink:title=" ">
<polygon fill="white" stroke="#666666" points="841.25,-419.12 676.75,-419.12 676.75,-398.38 841.25,-398.38 841.25,-419.12"/>
<text xml:space="preserve" text-anchor="middle" x="759" y="-405.62" font-family="Helvetica,sans-Serif" font-size="10.00">effect_view_enter_settings_cb</text>
</a>
</g>
</g>
<!-- Node1&#45;&gt;Node2 -->
<g id="edge1_Node000001_Node000002" class="edge">
<title>Node1&#45;&gt;Node2</title>
<g id="a_edge1_Node000001_Node000002"><a xlink:title=" ">
<path fill="none" stroke="#63b8ff" d="M936.55,-230.2C924.56,-267.79 894.57,-345.5 841.25,-386.75 835.24,-391.4 828.32,-395.07 821.1,-397.96"/>
<polygon fill="#63b8ff" stroke="#63b8ff" points="939.8,-231.53 939.38,-220.95 933.11,-229.49 939.8,-231.53"/>
</a>
</g>
</g>
<!-- Node6 -->
<g id="Node000006" class="node">
<title>Node6</title>
<g id="a_Node000006"><a xlink:href="kest__effect__select_8c.html#acd3eb99039d7b3531035a87718ae6948" target="_top" xlink:title=" ">
<polygon fill="white" stroke="#666666" points="827,-378.12 691,-378.12 691,-357.38 827,-357.38 827,-378.12"/>
<text xml:space="preserve" text-anchor="middle" x="759" y="-364.62" font-family="Helvetica,sans-Serif" font-size="10.00">enter_effect_selector_cb</text>
</a>
</g>
</g>
<!-- Node1&#45;&gt;Node6 -->
<g id="edge6_Node000001_Node000006" class="edge">
<title>Node1&#45;&gt;Node6</title>
<g id="a_edge6_Node000001_Node000006"><a xlink:title=" ">
<path fill="none" stroke="#63b8ff" d="M932.86,-229.86C917.56,-260.19 885.26,-315.72 841.25,-345.75 834.49,-350.36 826.8,-354.01 818.91,-356.89"/>
<polygon fill="#63b8ff" stroke="#63b8ff" points="935.98,-231.46 937.22,-220.94 929.69,-228.39 935.98,-231.46"/>
</a>
</g>
</g>
<!-- Node44 -->
<g id="Node000044" class="node">
<title>Node44</title>
<g id="a_Node000044"><a xlink:href="kest__sequence__view_8c.html#abc9a54120c4bc7c4fe6a4632764e5e91" target="_top" xlink:title=" ">
<polygon fill="#fff0f0" stroke="red" points="117.25,-267.12 0,-267.12 0,-246.38 117.25,-246.38 117.25,-267.12"/>
<text xml:space="preserve" text-anchor="middle" x="58.62" y="-253.62" font-family="Helvetica,sans-Serif" font-size="10.00">seq_view_clicked_cb</text>
</a>
</g>
</g>
<!-- Node1&#45;&gt;Node44 -->
<g id="edge29_Node000001_Node000044" class="edge">
<title>Node1&#45;&gt;Node44</title>
<g id="a_edge29_Node000001_Node000044"><a xlink:title=" ">
<path fill="none" stroke="#63b8ff" d="M865.39,-202.57C789.24,-197.02 669.63,-189.75 565.88,-189.75 565.88,-189.75 565.88,-189.75 385.12,-189.75 274.93,-189.75 147.97,-227.05 90.61,-245.99"/>
<polygon fill="#63b8ff" stroke="#63b8ff" points="865.02,-206.05 875.25,-203.3 865.54,-199.07 865.02,-206.05"/>
</a>
</g>
</g>
<!-- Node46 -->
<g id="Node000046" class="node">
<title>Node46</title>
<g id="a_Node000046"><a xlink:href="kest__ui_8c.html#a8c61274edfd5c1adb98471432976c3b6" target="_top" xlink:title=" ">
<polygon fill="white" stroke="#666666" points="833.75,-238.12 684.25,-238.12 684.25,-217.38 833.75,-217.38 833.75,-238.12"/>
<text xml:space="preserve" text-anchor="middle" x="759" y="-224.62" font-family="Helvetica,sans-Serif" font-size="10.00">enter_ui_page_forwards_cb</text>
</a>
</g>
</g>
<!-- Node1&#45;&gt;Node46 -->
<g id="edge12_Node000001_Node000046" class="edge">
<title>Node1&#45;&gt;Node46</title>
<g id="a_edge12_Node000001_Node000046"><a xlink:title=" ">
<path fill="none" stroke="#63b8ff" d="M865.62,-216.77C855.23,-217.85 844.59,-218.96 834.25,-220.03"/>
<polygon fill="#63b8ff" stroke="#63b8ff" points="865.68,-220.28 875.27,-215.77 864.96,-213.32 865.68,-220.28"/>
</a>
</g>
</g>
<!-- Node51 -->
<g id="Node000051" class="node">
<title>Node51</title>
<g id="a_Node000051"><a xlink:href="kest__ui_8c.html#a6cc33fc0b802073df734a4fa9e0490ad" target="_top" xlink:title=" ">
<polygon fill="white" stroke="#666666" points="822.5,-33.5 695.5,-33.5 695.5,0 822.5,0 822.5,-33.5"/>
<text xml:space="preserve" text-anchor="start" x="703.5" y="-20" font-family="Helvetica,sans-Serif" font-size="10.00">enter_ui_page_indirect</text>
<text xml:space="preserve" text-anchor="middle" x="759" y="-7.25" font-family="Helvetica,sans-Serif" font-size="10.00">_forwards</text>
</a>
</g>
</g>
<!-- Node1&#45;&gt;Node51 -->
<g id="edge17_Node000001_Node000051" class="edge">
<title>Node1&#45;&gt;Node51</title>
<g id="a_edge17_Node000001_Node000051"><a xlink:title=" ">
<path fill="none" stroke="#63b8ff" d="M934.61,-187.5C920.54,-153.44 888.58,-86.53 841.25,-47.75 834.59,-42.3 826.87,-37.73 818.89,-33.94"/>
<polygon fill="#63b8ff" stroke="#63b8ff" points="931.31,-188.68 938.27,-196.67 937.81,-186.09 931.31,-188.68"/>
</a>
</g>
</g>
<!-- Node52 -->
<g id="Node000052" class="node">
<title>Node52</title>
<g id="a_Node000052"><a xlink:href="kest__menu_8c.html#a7b561ce007bc70c05d37e79e0354d4ab" target="_top" xlink:title=" ">
<polygon fill="white" stroke="#666666" points="640.75,-72.12 489,-72.12 489,-51.38 640.75,-51.38 640.75,-72.12"/>
<text xml:space="preserve" text-anchor="middle" x="564.88" y="-58.62" font-family="Helvetica,sans-Serif" font-size="10.00">menu_page_link_clicked_cb</text>
</a>
</g>
</g>
<!-- Node1&#45;&gt;Node52 -->
<g id="edge24_Node000001_Node000052" class="edge">
<title>Node1&#45;&gt;Node52</title>
<g id="a_edge24_Node000001_Node000052"><a xlink:title=" ">
<path fill="none" stroke="#63b8ff" d="M933.17,-187.89C918.25,-158.15 886.42,-104.53 841.25,-80.75 779.55,-48.27 699.03,-46.57 641.02,-51.16"/>
<polygon fill="#63b8ff" stroke="#63b8ff" points="929.89,-189.16 937.39,-196.65 936.2,-186.12 929.89,-189.16"/>
</a>
</g>
</g>
<!-- Node53 -->
<g id="Node000053" class="node">
<title>Node53</title>
<g id="a_Node000053"><a xlink:href="kest__menu_8c.html#a30f08e153f427548f6d0f9458dd45a20" target="_top" xlink:title=" ">
<polygon fill="white" stroke="#666666" points="636.25,-161.5 493.5,-161.5 493.5,-128 636.25,-128 636.25,-161.5"/>
<text xml:space="preserve" text-anchor="start" x="501.5" y="-148" font-family="Helvetica,sans-Serif" font-size="10.00">menu_item_preset_listing</text>
<text xml:space="preserve" text-anchor="middle" x="564.88" y="-135.25" font-family="Helvetica,sans-Serif" font-size="10.00">_released_cb</text>
</a>
</g>
</g>
<!-- Node1&#45;&gt;Node53 -->
<g id="edge20_Node000001_Node000053" class="edge">
<title>Node1&#45;&gt;Node53</title>
<g id="a_edge20_Node000001_Node000053"><a xlink:title=" ">
<path fill="none" stroke="#63b8ff" d="M903.97,-194.1C885.26,-187.56 862.35,-180.32 841.25,-175.75 772.6,-160.89 692.69,-152.89 636.69,-148.77"/>
<polygon fill="#63b8ff" stroke="#63b8ff" points="902.71,-197.37 913.31,-197.44 905.07,-190.78 902.71,-197.37"/>
</a>
</g>
</g>
<!-- Node31 -->
<g id="Node000031" class="node">
<title>Node31</title>
<g id="a_Node000031"><a xlink:href="kest__sequence__list_8c.html#a0788bbcb1aa9c85a904e084c2abd48ad" target="_top" xlink:title=" ">
<polygon fill="white" stroke="#666666" points="820.62,-123.5 697.38,-123.5 697.38,-90 820.62,-90 820.62,-123.5"/>
<text xml:space="preserve" text-anchor="start" x="705.38" y="-110" font-family="Helvetica,sans-Serif" font-size="10.00">menu_item_sequence</text>
<text xml:space="preserve" text-anchor="middle" x="759" y="-97.25" font-family="Helvetica,sans-Serif" font-size="10.00">_listing_released_cb</text>
</a>
</g>
</g>
<!-- Node1&#45;&gt;Node31 -->
<g id="edge22_Node000001_Node000031" class="edge">
<title>Node1&#45;&gt;Node31</title>
<g id="a_edge22_Node000001_Node000031"><a xlink:title=" ">
<path fill="none" stroke="#63b8ff" d="M920.78,-190.99C900.89,-175.5 870.31,-153.16 841.25,-137.75 831.65,-132.66 821.02,-127.98 810.7,-123.88"/>
<polygon fill="#63b8ff" stroke="#63b8ff" points="918.44,-193.6 928.46,-197.05 922.77,-188.1 918.44,-193.6"/>
</a>
</g>
</g>
<!-- Node54 -->
<g id="Node000054" class="node">
<title>Node54</title>
<g id="a_Node000054"><a xlink:href="kest__preset__view_8c.html#aa520b487e8647229d753148ac01febc3" target="_top" xlink:title=" ">
<polygon fill="white" stroke="#666666" points="619.38,-341.5 510.38,-341.5 510.38,-308 619.38,-308 619.38,-341.5"/>
<text xml:space="preserve" text-anchor="start" x="518.38" y="-328" font-family="Helvetica,sans-Serif" font-size="10.00">preset_view_effect</text>
<text xml:space="preserve" text-anchor="middle" x="564.88" y="-315.25" font-family="Helvetica,sans-Serif" font-size="10.00">_click_cb</text>
</a>
</g>
</g>
<!-- Node1&#45;&gt;Node54 -->
<g id="edge25_Node000001_Node000054" class="edge">
<title>Node1&#45;&gt;Node54</title>
<g id="a_edge25_Node000001_Node000054"><a xlink:title=" ">
<path fill="none" stroke="#63b8ff" d="M905.19,-223.65C886.16,-230.99 862.62,-239.74 841.25,-246.75 830.55,-250.26 696.96,-287.9 619.86,-309.58"/>
<polygon fill="#63b8ff" stroke="#63b8ff" points="906.36,-226.95 914.41,-220.07 903.82,-220.43 906.36,-226.95"/>
</a>
</g>
</g>
<!-- Node55 -->
<g id="Node000055" class="node">
<title>Node55</title>
<g id="a_Node000055"><a xlink:href="kest__preset__view_8c.html#a446ea527879a6182b34b5fc2185ebe00" target="_top" xlink:title=" ">
<polygon fill="white" stroke="#666666" points="834.12,-336.5 683.88,-336.5 683.88,-303 834.12,-303 834.12,-336.5"/>
<text xml:space="preserve" text-anchor="start" x="691.88" y="-323" font-family="Helvetica,sans-Serif" font-size="10.00">preset_view_enter_settings</text>
<text xml:space="preserve" text-anchor="middle" x="759" y="-310.25" font-family="Helvetica,sans-Serif" font-size="10.00">_page_cb</text>
</a>
</g>
</g>
<!-- Node1&#45;&gt;Node55 -->
<g id="edge27_Node000001_Node000055" class="edge">
<title>Node1&#45;&gt;Node55</title>
<g id="a_edge27_Node000001_Node000055"><a xlink:title=" ">
<path fill="none" stroke="#63b8ff" d="M920.58,-226.54C900.54,-242.16 869.89,-264.95 841.25,-281.75 828.36,-289.31 813.71,-296.55 800.43,-302.64"/>
<polygon fill="#63b8ff" stroke="#63b8ff" points="922.63,-229.38 928.32,-220.44 918.3,-223.88 922.63,-229.38"/>
</a>
</g>
</g>
<!-- Node3 -->
<g id="Node000003" class="node">
<title>Node3</title>
<g id="a_Node000003"><a xlink:href="kest__effect__view_8c.html#ae392eef44a5a025bad43a7a8969ab5b0" target="_top" xlink:title=" ">
<polygon fill="white" stroke="#666666" points="626.88,-419.12 502.88,-419.12 502.88,-398.38 626.88,-398.38 626.88,-419.12"/>
<text xml:space="preserve" text-anchor="middle" x="564.88" y="-405.62" font-family="Helvetica,sans-Serif" font-size="10.00">configure_effect_view</text>
</a>
</g>
</g>
<!-- Node2&#45;&gt;Node3 -->
<g id="edge2_Node000002_Node000003" class="edge">
<title>Node2&#45;&gt;Node3</title>
<g id="a_edge2_Node000002_Node000003"><a xlink:title=" ">
<path fill="none" stroke="#63b8ff" d="M665.26,-408.75C652.4,-408.75 639.46,-408.75 627.36,-408.75"/>
<polygon fill="#63b8ff" stroke="#63b8ff" points="665.01,-412.25 675.01,-408.75 665.01,-405.25 665.01,-412.25"/>
</a>
</g>
</g>
<!-- Node4 -->
<g id="Node000004" class="node">
<title>Node4</title>
<g id="a_Node000004"><a xlink:href="kest__effect__view_8c.html#abb65b28dc293fd68d3b384f48210130e" target="_top" xlink:title=" ">
<polygon fill="white" stroke="#666666" points="282.12,-436.12 154.38,-436.12 154.38,-415.38 282.12,-415.38 282.12,-436.12"/>
<text xml:space="preserve" text-anchor="middle" x="218.25" y="-422.62" font-family="Helvetica,sans-Serif" font-size="10.00">create_effect_view_for</text>
</a>
</g>
</g>
<!-- Node3&#45;&gt;Node4 -->
<g id="edge3_Node000003_Node000004" class="edge">
<title>Node3&#45;&gt;Node4</title>
<g id="a_edge3_Node000003_Node000004"><a xlink:title=" ">
<path fill="none" stroke="#63b8ff" d="M493.19,-421.23C479.88,-423.11 466.05,-424.76 453,-425.75 395.34,-430.14 329.44,-429.65 282.35,-428.34"/>
<polygon fill="#63b8ff" stroke="#63b8ff" points="493.34,-424.74 502.73,-419.82 492.32,-417.82 493.34,-424.74"/>
</a>
</g>
</g>
<!-- Node5 -->
<g id="Node000005" class="node">
<title>Node5</title>
<g id="a_Node000005"><a xlink:href="kest__effect__view_8c.html#a7b9803e86d71b10b167f0babf088fe08" target="_top" xlink:title=" ">
<polygon fill="white" stroke="#666666" points="433.12,-417.12 339.12,-417.12 339.12,-396.38 433.12,-396.38 433.12,-417.12"/>
<text xml:space="preserve" text-anchor="middle" x="386.12" y="-403.62" font-family="Helvetica,sans-Serif" font-size="10.00">init_effect_view</text>
</a>
</g>
</g>
<!-- Node3&#45;&gt;Node5 -->
<g id="edge4_Node000003_Node000005" class="edge">
<title>Node3&#45;&gt;Node5</title>
<g id="a_edge4_Node000003_Node000005"><a xlink:title=" ">
<path fill="none" stroke="#63b8ff" d="M491.23,-407.93C471.74,-407.71 451.2,-407.48 433.56,-407.28"/>
<polygon fill="#63b8ff" stroke="#63b8ff" points="491,-411.43 501.04,-408.04 491.08,-404.43 491,-411.43"/>
</a>
</g>
</g>
<!-- Node5&#45;&gt;Node4 -->
<g id="edge5_Node000005_Node000004" class="edge">
<title>Node5&#45;&gt;Node4</title>
<g id="a_edge5_Node000005_Node000004"><a xlink:title=" ">
<path fill="none" stroke="#63b8ff" d="M327.56,-413.34C313.03,-415.01 297.35,-416.8 282.56,-418.5"/>
<polygon fill="#63b8ff" stroke="#63b8ff" points="327.88,-416.83 337.42,-412.21 327.08,-409.88 327.88,-416.83"/>
</a>
</g>
</g>
<!-- Node7 -->
<g id="Node000007" class="node">
<title>Node7</title>
<g id="a_Node000007"><a xlink:href="kest__preset__view_8c.html#ad8a171502fcb88f5b5a08657a6424752" target="_top" xlink:title=" ">
<polygon fill="white" stroke="#666666" points="628,-380.12 501.75,-380.12 501.75,-359.38 628,-359.38 628,-380.12"/>
<text xml:space="preserve" text-anchor="middle" x="564.88" y="-366.62" font-family="Helvetica,sans-Serif" font-size="10.00">configure_preset_view</text>
</a>
</g>
</g>
<!-- Node6&#45;&gt;Node7 -->
<g id="edge7_Node000006_Node000007" class="edge">
<title>Node6&#45;&gt;Node7</title>
<g id="a_edge7_Node000006_Node000007"><a xlink:title=" ">
<path fill="none" stroke="#63b8ff" d="M679.48,-368.57C662.45,-368.74 644.66,-368.93 628.35,-369.1"/>
<polygon fill="#63b8ff" stroke="#63b8ff" points="679.06,-372.07 689.02,-368.47 678.98,-365.07 679.06,-372.07"/>
</a>
</g>
</g>
<!-- Node8 -->
<g id="Node000008" class="node">
<title>Node8</title>
<g id="a_Node000008"><a xlink:href="kest__preset__view_8c.html#ae4f85ce684e856ba2d0dfc97c49528b2" target="_top" xlink:title=" ">
<polygon fill="#fff0f0" stroke="red" points="283.25,-336.12 153.25,-336.12 153.25,-315.38 283.25,-315.38 283.25,-336.12"/>
<text xml:space="preserve" text-anchor="middle" x="218.25" y="-322.62" font-family="Helvetica,sans-Serif" font-size="10.00">create_preset_view_for</text>
</a>
</g>
</g>
<!-- Node7&#45;&gt;Node8 -->
<g id="edge8_Node000007_Node000008" class="edge">
<title>Node7&#45;&gt;Node8</title>
<g id="a_edge8_Node000007_Node000008"><a xlink:title=" ">
<path fill="none" stroke="#63b8ff" d="M489.98,-363.86C441.35,-359.58 376.35,-353.08 319.25,-344.75 303.77,-342.49 287.05,-339.53 271.78,-336.61"/>
<polygon fill="#63b8ff" stroke="#63b8ff" points="489.58,-367.34 499.85,-364.72 490.19,-360.37 489.58,-367.34"/>
</a>
</g>
</g>
<!-- Node45 -->
<g id="Node000045" class="node">
<title>Node45</title>
<g id="a_Node000045"><a xlink:href="kest__preset__view_8c.html#a7aa469a400baf1fdf82d314a2ad5ddbb" target="_top" xlink:title=" ">
<polygon fill="white" stroke="#666666" points="434.25,-336.12 338,-336.12 338,-315.38 434.25,-315.38 434.25,-336.12"/>
<text xml:space="preserve" text-anchor="middle" x="386.12" y="-322.62" font-family="Helvetica,sans-Serif" font-size="10.00">init_preset_view</text>
</a>
</g>
</g>
<!-- Node7&#45;&gt;Node45 -->
<g id="edge10_Node000007_Node000045" class="edge">
<title>Node7&#45;&gt;Node45</title>
<g id="a_edge10_Node000007_Node000045"><a xlink:title=" ">
<path fill="none" stroke="#63b8ff" d="M509.68,-356.26C484.28,-349.94 454.42,-342.5 430.53,-336.55"/>
<polygon fill="#63b8ff" stroke="#63b8ff" points="508.62,-359.6 519.17,-358.62 510.31,-352.81 508.62,-359.6"/>
</a>
</g>
</g>
<!-- Node8&#45;&gt;Node44 -->
<g id="edge9_Node000008_Node000044" class="edge">
<title>Node8&#45;&gt;Node44</title>
<g id="a_edge9_Node000008_Node000044"><a xlink:title=" ">
<path fill="none" stroke="#63b8ff" d="M182.28,-310.44C152.57,-297.44 110.67,-279.1 84.34,-267.57"/>
<polygon fill="#63b8ff" stroke="#63b8ff" points="180.67,-313.56 191.23,-314.36 183.48,-307.15 180.67,-313.56"/>
</a>
</g>
</g>
<!-- Node45&#45;&gt;Node8 -->
<g id="edge11_Node000045_Node000008" class="edge">
<title>Node45&#45;&gt;Node8</title>
<g id="a_edge11_Node000045_Node000008"><a xlink:title=" ">
<path fill="none" stroke="#63b8ff" d="M326.23,-325.75C312.38,-325.75 297.55,-325.75 283.49,-325.75"/>
<polygon fill="#63b8ff" stroke="#63b8ff" points="326.08,-329.25 336.08,-325.75 326.08,-322.25 326.08,-329.25"/>
</a>
</g>
</g>
<!-- Node47 -->
<g id="Node000047" class="node">
<title>Node47</title>
<g id="a_Node000047"><a xlink:href="kest__menu_8c.html#a86c6c0acd2dfb8a62bd96bbfd739e687" target="_top" xlink:title=" ">
<polygon fill="white" stroke="#666666" points="627.25,-238.12 502.5,-238.12 502.5,-217.38 627.25,-217.38 627.25,-238.12"/>
<text xml:space="preserve" text-anchor="middle" x="564.88" y="-224.62" font-family="Helvetica,sans-Serif" font-size="10.00">configure_main_menu</text>
</a>
</g>
</g>
<!-- Node46&#45;&gt;Node47 -->
<g id="edge13_Node000046_Node000047" class="edge">
<title>Node46&#45;&gt;Node47</title>
<g id="a_edge13_Node000046_Node000047"><a xlink:title=" ">
<path fill="none" stroke="#63b8ff" d="M672.54,-227.75C657.43,-227.75 641.97,-227.75 627.68,-227.75"/>
<polygon fill="#63b8ff" stroke="#63b8ff" points="672.48,-231.25 682.48,-227.75 672.48,-224.25 672.48,-231.25"/>
</a>
</g>
</g>
<!-- Node49 -->
<g id="Node000049" class="node">
<title>Node49</title>
<g id="a_Node000049"><a xlink:href="kest__ui_8c.html#a91cbeba99527e75576d1690162018ef5" target="_top" xlink:title=" ">
<polygon fill="white" stroke="#666666" points="635.88,-289.5 493.88,-289.5 493.88,-256 635.88,-256 635.88,-289.5"/>
<text xml:space="preserve" text-anchor="start" x="501.88" y="-276" font-family="Helvetica,sans-Serif" font-size="10.00">create_panel_with_back</text>
<text xml:space="preserve" text-anchor="middle" x="564.88" y="-263.25" font-family="Helvetica,sans-Serif" font-size="10.00">_button_and_page_button</text>
</a>
</g>
</g>
<!-- Node46&#45;&gt;Node49 -->
<g id="edge15_Node000046_Node000049" class="edge">
<title>Node46&#45;&gt;Node49</title>
<g id="a_edge15_Node000046_Node000049"><a xlink:title=" ">
<path fill="none" stroke="#63b8ff" d="M701.02,-241.1C680.71,-245.85 657.6,-251.27 636.29,-256.26"/>
<polygon fill="#63b8ff" stroke="#63b8ff" points="701.57,-244.56 710.51,-238.87 699.97,-237.75 701.57,-244.56"/>
</a>
</g>
</g>
<!-- Node48 -->
<g id="Node000048" class="node">
<title>Node48</title>
<g id="a_Node000048"><a xlink:href="kest__menu_8c.html#a6aa16fb3d12f098f021ae677605e683e" target="_top" xlink:title=" ">
<polygon fill="#fff0f0" stroke="red" points="433.5,-238.12 338.75,-238.12 338.75,-217.38 433.5,-217.38 433.5,-238.12"/>
<text xml:space="preserve" text-anchor="middle" x="386.12" y="-224.62" font-family="Helvetica,sans-Serif" font-size="10.00">init_main_menu</text>
</a>
</g>
</g>
<!-- Node47&#45;&gt;Node48 -->
<g id="edge14_Node000047_Node000048" class="edge">
<title>Node47&#45;&gt;Node48</title>
<g id="a_edge14_Node000047_Node000048"><a xlink:title=" ">
<path fill="none" stroke="#63b8ff" d="M490.59,-227.75C471.4,-227.75 451.24,-227.75 433.86,-227.75"/>
<polygon fill="#63b8ff" stroke="#63b8ff" points="490.54,-231.25 500.54,-227.75 490.54,-224.25 490.54,-231.25"/>
</a>
</g>
</g>
<!-- Node50 -->
<g id="Node000050" class="node">
<title>Node50</title>
<g id="a_Node000050"><a xlink:href="kest__ui_8c.html#a56d00dcd05509dc9999a3c25122f4851" target="_top" xlink:title=" ">
<polygon fill="white" stroke="#666666" points="453,-289.5 319.25,-289.5 319.25,-256 453,-256 453,-289.5"/>
<text xml:space="preserve" text-anchor="start" x="327.25" y="-276" font-family="Helvetica,sans-Serif" font-size="10.00">create_panel_with_back</text>
<text xml:space="preserve" text-anchor="middle" x="386.12" y="-263.25" font-family="Helvetica,sans-Serif" font-size="10.00">_and_settings_buttons</text>
</a>
</g>
</g>
<!-- Node49&#45;&gt;Node50 -->
<g id="edge16_Node000049_Node000050" class="edge">
<title>Node49&#45;&gt;Node50</title>
<g id="a_edge16_Node000049_Node000050"><a xlink:title=" ">
<path fill="none" stroke="#63b8ff" d="M482.2,-272.75C472.49,-272.75 462.68,-272.75 453.22,-272.75"/>
<polygon fill="#63b8ff" stroke="#63b8ff" points="482,-276.25 492,-272.75 482,-269.25 482,-276.25"/>
</a>
</g>
</g>
<!-- Node51&#45;&gt;Node52 -->
<g id="edge18_Node000051_Node000052" class="edge">
<title>Node51&#45;&gt;Node52</title>
<g id="a_edge18_Node000051_Node000052"><a xlink:title=" ">
<path fill="none" stroke="#63b8ff" d="M684.13,-34.05C659.93,-39.72 633.73,-45.86 612.16,-50.91"/>
<polygon fill="#63b8ff" stroke="#63b8ff" points="684.68,-37.52 693.62,-31.83 683.08,-30.7 684.68,-37.52"/>
</a>
</g>
</g>
<!-- Node32 -->
<g id="Node000032" class="node">
<title>Node32</title>
<g id="a_Node000032"><a xlink:href="kest__menu_8c.html#aa44b42640611d3ca75f6b55206ebd08e" target="_top" xlink:title=" ">
<polygon fill="#fff0f0" stroke="red" points="447,-110.12 325.25,-110.12 325.25,-89.38 447,-89.38 447,-110.12"/>
<text xml:space="preserve" text-anchor="middle" x="386.12" y="-96.62" font-family="Helvetica,sans-Serif" font-size="10.00">create_menu_item_ui</text>
</a>
</g>
</g>
<!-- Node52&#45;&gt;Node32 -->
<g id="edge19_Node000052_Node000032" class="edge">
<title>Node52&#45;&gt;Node32</title>
<g id="a_edge19_Node000052_Node000032"><a xlink:title=" ">
<path fill="none" stroke="#63b8ff" d="M502.5,-74.95C481.24,-79.52 457.68,-84.58 437.43,-88.94"/>
<polygon fill="#63b8ff" stroke="#63b8ff" points="503.18,-78.38 512.22,-72.86 501.71,-71.54 503.18,-78.38"/>
</a>
</g>
</g>
<!-- Node53&#45;&gt;Node32 -->
<g id="edge21_Node000053_Node000032" class="edge">
<title>Node53&#45;&gt;Node32</title>
<g id="a_edge21_Node000053_Node000032"><a xlink:title=" ">
<path fill="none" stroke="#63b8ff" d="M485.14,-124.7C466.02,-119.84 446.3,-114.82 429.6,-110.56"/>
<polygon fill="#63b8ff" stroke="#63b8ff" points="484.28,-128.1 494.83,-127.17 486,-121.31 484.28,-128.1"/>
</a>
</g>
</g>
<!-- Node31&#45;&gt;Node32 -->
<g id="edge23_Node000031_Node000032" class="edge">
<title>Node31&#45;&gt;Node32</title>
<g id="a_edge23_Node000031_Node000032"><a xlink:title=" ">
<path fill="none" stroke="#63b8ff" d="M685.9,-105.39C616.44,-104.08 512.55,-102.12 447.37,-100.89"/>
<polygon fill="#63b8ff" stroke="#63b8ff" points="685.6,-108.88 695.66,-105.57 685.73,-101.89 685.6,-108.88"/>
</a>
</g>
</g>
<!-- Node54&#45;&gt;Node45 -->
<g id="edge26_Node000054_Node000045" class="edge">
<title>Node54&#45;&gt;Node45</title>
<g id="a_edge26_Node000054_Node000045"><a xlink:title=" ">
<path fill="none" stroke="#63b8ff" d="M498.64,-325.12C477.38,-325.24 454.19,-325.37 434.5,-325.48"/>
<polygon fill="#63b8ff" stroke="#63b8ff" points="498.39,-328.62 508.37,-325.06 498.35,-321.62 498.39,-328.62"/>
</a>
</g>
</g>
<!-- Node55&#45;&gt;Node7 -->
<g id="edge28_Node000055_Node000007" class="edge">
<title>Node55&#45;&gt;Node7</title>
<g id="a_edge28_Node000055_Node000007"><a xlink:title=" ">
<path fill="none" stroke="#63b8ff" d="M682.52,-339.83C668.63,-343.48 654.26,-347.25 640.75,-350.75 630.36,-353.44 619.16,-356.31 608.66,-358.97"/>
<polygon fill="#63b8ff" stroke="#63b8ff" points="683.28,-343.24 692.06,-337.31 681.5,-336.47 683.28,-343.24"/>
</a>
</g>
</g>
</g>
</svg>

<g id="navigator" transform="translate(0 0)" fill="#404254">
  <rect fill="#f2f5e9" fill-opacity="0.5" stroke="#606060" stroke-width=".5" x="0" y="0" width="60" height="60"/>
  <use id="zoomplus" xlink:href="#zoomPlus" x="17" y="9" onmousedown="handleZoom(evt,'in')"/>
  <use id="zoomminus" xlink:href="#zoomMin" x="42" y="9" onmousedown="handleZoom(evt,'out')"/>
  <use id="reset" xlink:href="#resetDef" x="30" y="36" onmousedown="handleReset()"/>
   <use id="arrowup" xlink:href="#arrowUp" x="0" y="0" onmousedown="handlePan(0,-1)"/>
  <use id="arrowright" xlink:href="#arrowRight" x="0" y="0" onmousedown="handlePan(1,0)"/>
  <use id="arrowdown" xlink:href="#arrowDown" x="0" y="0" onmousedown="handlePan(0,1)"/>
  <use id="arrowleft" xlink:href="#arrowLeft" x="0" y="0" onmousedown="handlePan(-1,0)"/>
</g>
<svg viewBox="0 0 15 15" width="100%" height="30px" preserveAspectRatio="xMaxYMin meet">
 <g id="arrow_out" transform="scale(0.3 0.3)">
  <a xlink:href="kest__ui_8h_a2063cd4687cffa16c46c43deaa27642f_icgraph_org.svg" target="_base">
   <rect id="button" ry="5" rx="5" y="6" x="6" height="38" width="38"
        fill="#f2f5e9" fill-opacity="0.5" stroke="#606060" stroke-width="1.0"/>
   <path id="arrow"
     d="M 11.500037,31.436501 C 11.940474,20.09759 22.043105,11.32322 32.158766,21.979434 L 37.068811,17.246167 C 37.068811,17.246167 37.088388,32 37.088388,32 L 22.160133,31.978069 C 22.160133,31.978069 26.997745,27.140456 26.997745,27.140456 C 18.528582,18.264221 13.291696,25.230495 11.500037,31.436501 z"
     style="fill:#404040;"/>
  </a>
 </g>
</svg>

<style type='text/css'>
<![CDATA[
[data-mouse-over-selected='false'] { opacity: 0.7; }
[data-mouse-over-selected='true']  { opacity: 1.0; }
]]>
</style>
<script type="application/ecmascript"><![CDATA[
document.addEventListener('DOMContentLoaded', (event) => {
  highlightEdges();
  highlightAdjacentNodes();
});
]]></script>
</svg>
