<?xml version="1.0" encoding="UTF-8" standalone="no"?>
<!DOCTYPE svg PUBLIC "-//W3C//DTD SVG 1.1//EN"
 "http://www.w3.org/Graphics/SVG/1.1/DTD/svg11.dtd">
<!-- Generated by graphviz version 13.1.2 (20250808.2320)
 -->
<!-- Title: kest_expression_compute_min Pages: 1 -->
<!--zoomable 362 -->

<svg id="main" version="1.1" xmlns="http://www.w3.org/2000/svg" xmlns:xlink="http://www.w3.org/1999/xlink" xml:space="preserve" onload="init(evt)">

<style type="text/css"><![CDATA[
.node, .edge {opacity: 0.7;}
.node.selected, .edge.selected {opacity: 1;}
.edge:hover path { stroke: red; }
.edge:hover polygon { stroke: red; fill: red; }
]]></style>

<defs>
  <circle id="rim" cx="0" cy="0" r="7"/>
  <circle id="rim2" cx="0" cy="0" r="3.5"/>
  <g id="zoomPlus">
    <use xlink:href="#rim" fill="#404040"><set attributeName="fill" to="#808080" begin="zoomplus.mouseover" end="zoomplus.mouseout"/></use>
    <path d="M-4,0h8M0,-4v8" fill="none" stroke="white" stroke-width="1.5" pointer-events="none"/>
  </g>
  <g id="zoomMin">
    <use xlink:href="#rim" fill="#404040"><set attributeName="fill" to="#808080" begin="zoomminus.mouseover" end="zoomminus.mouseout"/></use>
    <path d="M-4,0h8" fill="none" stroke="white" stroke-width="1.5" pointer-events="none"/>
  </g>
  <g id="arrowUp" transform="translate(30 24)">
    <use xlink:href="#rim"/>
    <path pointer-events="none" fill="none" stroke="white" stroke-width="1.5" d="M0,-3.0v7 M-2.5,-0.5L0,-3.0L2.5,-0.5"/>
  </g>
  <g id="arrowRight" transform="rotate(90) translate(36 -43)">
    <use xlink:href="#rim"/>
    <path pointer-events="none" fill="none" stroke="white" stroke-width="1.5" d="M0,-3.0v7 M-2.5,-0.5L0,-3.0L2.5,-0.5"/>
  </g>
  <g id="arrowDown" transform="rotate(180) translate(-30 -48)">
    <use xlink:href="#rim"/>
    <path pointer-events="none" fill="none" stroke="white" stroke-width="1.5" d="M0,-3.0v7 M-2.5,-0.5L0,-3.0L2.5,-0.5"/>
  </g>
  <g id="arrowLeft" transform="rotate(270) translate(-36 17)">
    <use xlink:href="#rim"/>
    <path pointer-events="none" fill="none" stroke="white" stroke-width="1.5" d="M0,-3.0v7 M-2.5,-0.5L0,-3.0L2.5,-0.5"/>
  </g>
  <g id="resetDef">
    <use xlink:href="#rim2" fill="#404040"><set attributeName="fill" to="#808080" begin="reset.mouseover" end="reset.mouseout"/></use>
  </g>
</defs>
<script type="application/ecmascript">
var viewWidth = 1056;
var viewHeight = 362;
var sectionId = 'dynsection-18';
</script>
<script type="application/ecmascript" xlink:href="svg.min.js"/>
<svg id="graph" class="graph">
<g id="viewport">
<title>kest_expression_compute_min</title>
<!-- Node1 -->
<g id="Node000001" class="node">
<title>Node1</title>
<g id="a_Node000001"><a xlink:title=" ">
<polygon fill="#999999" stroke="#666666" points="166.75,-188.42 0,-188.42 0,-167.67 166.75,-167.67 166.75,-188.42"/>
<text xml:space="preserve" text-anchor="middle" x="83.38" y="-174.92" font-family="Helvetica,sans-Serif" font-size="10.00">kest_expression_compute_min</text>
</a>
</g>
</g>
<!-- Node2 -->
<g id="Node000002" class="node">
<title>Node2</title>
<g id="a_Node000002"><a xlink:href="kest__expression_8c.html#a314111382b96c56e6f648658c7125e2b" target="_top" xlink:title=" ">
<polygon fill="white" stroke="#666666" points="345.5,-194.79 202.75,-194.79 202.75,-161.29 345.5,-161.29 345.5,-194.79"/>
<text xml:space="preserve" text-anchor="start" x="210.75" y="-181.29" font-family="Helvetica,sans-Serif" font-size="10.00">kest_expression_compute</text>
<text xml:space="preserve" text-anchor="middle" x="274.12" y="-168.54" font-family="Helvetica,sans-Serif" font-size="10.00">_min_rec</text>
</a>
</g>
</g>
<!-- Node1&#45;&gt;Node2 -->
<g id="edge1_Node000001_Node000002" class="edge">
<title>Node1&#45;&gt;Node2</title>
<g id="a_edge1_Node000001_Node000002"><a xlink:title=" ">
<path fill="none" stroke="#63b8ff" d="M167.16,-178.04C175.08,-178.04 183.11,-178.04 191.03,-178.04"/>
<polygon fill="#63b8ff" stroke="#63b8ff" points="191,-181.54 201,-178.04 191,-174.54 191,-181.54"/>
</a>
</g>
</g>
<!-- Node2&#45;&gt;Node2 -->
<g id="edge18_Node000002_Node000002" class="edge">
<title>Node2&#45;&gt;Node2</title>
<g id="a_edge18_Node000002_Node000002"><a xlink:title=" ">
<path fill="none" stroke="#63b8ff" d="M241.99,-195.21C236.53,-204.41 247.24,-212.79 274.12,-212.79 289.25,-212.79 299.25,-210.14 304.14,-206.18"/>
<polygon fill="#63b8ff" stroke="#63b8ff" points="307.51,-207.18 305.97,-196.69 300.64,-205.85 307.51,-207.18"/>
</a>
</g>
</g>
<!-- Node3 -->
<g id="Node000003" class="node">
<title>Node3</title>
<g id="a_Node000003"><a xlink:href="kest__expression_8c.html#a835e180e79c6b6d2e4377a528949d7a0" target="_top" xlink:title=" ">
<polygon fill="white" stroke="#666666" points="692.88,-318.42 570.38,-318.42 570.38,-297.67 692.88,-297.67 692.88,-318.42"/>
<text xml:space="preserve" text-anchor="middle" x="631.62" y="-304.92" font-family="Helvetica,sans-Serif" font-size="10.00">kest_expression_arity</text>
</a>
</g>
</g>
<!-- Node2&#45;&gt;Node3 -->
<g id="edge2_Node000002_Node000003" class="edge">
<title>Node2&#45;&gt;Node3</title>
<g id="a_edge2_Node000002_Node000003"><a xlink:title=" ">
<path fill="none" stroke="#63b8ff" d="M298.54,-195.14C319.4,-209.67 351.22,-230.18 381.5,-243.04 439.06,-267.51 508.12,-284.65 558.91,-295.16"/>
<polygon fill="#63b8ff" stroke="#63b8ff" points="558.13,-298.57 568.63,-297.13 559.52,-291.71 558.13,-298.57"/>
</a>
</g>
</g>
<!-- Node4 -->
<g id="Node000004" class="node">
<title>Node4</title>
<g id="a_Node000004"><a xlink:href="kest__expression_8c.html#a9ea46b77b43cb7f43cfe7091f44e2e2d" target="_top" xlink:title=" ">
<polygon fill="white" stroke="#666666" points="524.25,-194.79 381.5,-194.79 381.5,-161.29 524.25,-161.29 524.25,-194.79"/>
<text xml:space="preserve" text-anchor="start" x="389.5" y="-181.29" font-family="Helvetica,sans-Serif" font-size="10.00">kest_expression_compute</text>
<text xml:space="preserve" text-anchor="middle" x="452.88" y="-168.54" font-family="Helvetica,sans-Serif" font-size="10.00">_max_rec</text>
</a>
</g>
</g>
<!-- Node2&#45;&gt;Node4 -->
<g id="edge3_Node000002_Node000004" class="edge">
<title>Node2&#45;&gt;Node4</title>
<g id="a_edge3_Node000002_Node000004"><a xlink:title=" ">
<path fill="none" stroke="#63b8ff" d="M346,-171.41C353.9,-171.3 361.99,-171.27 370.01,-171.31"/>
<polygon fill="#63b8ff" stroke="#63b8ff" points="369.73,-174.81 379.76,-171.4 369.79,-167.81 369.73,-174.81"/>
</a>
</g>
</g>
<!-- Node5 -->
<g id="Node000005" class="node">
<title>Node5</title>
<g id="a_Node000005"><a xlink:href="kest__expression_8c.html#a8df028c238f29a5c5e59bcff98e28157" target="_top" xlink:title=" ">
<polygon fill="white" stroke="#666666" points="703,-242.42 560.25,-242.42 560.25,-221.67 703,-221.67 703,-242.42"/>
<text xml:space="preserve" text-anchor="middle" x="631.62" y="-228.92" font-family="Helvetica,sans-Serif" font-size="10.00">kest_expression_evaluate</text>
</a>
</g>
</g>
<!-- Node2&#45;&gt;Node5 -->
<g id="edge19_Node000002_Node000005" class="edge">
<title>Node2&#45;&gt;Node5</title>
<g id="a_edge19_Node000002_Node000005"><a xlink:title=" ">
<path fill="none" stroke="#63b8ff" d="M308.15,-195.25C328.67,-205.04 355.93,-216.43 381.5,-222.04 436.3,-234.08 499.46,-236.49 548.48,-235.94"/>
<polygon fill="#63b8ff" stroke="#63b8ff" points="548.53,-239.44 558.47,-235.78 548.42,-232.44 548.53,-239.44"/>
</a>
</g>
</g>
<!-- Node6 -->
<g id="Node000006" class="node">
<title>Node6</title>
<g id="a_Node000006"><a xlink:href="kest__expression_8c.html#aa4b7d57f1458bb40fc2d8fdab7c605fc" target="_top" xlink:title=" ">
<polygon fill="#fff0f0" stroke="red" points="902,-214.42 739,-214.42 739,-193.67 902,-193.67 902,-214.42"/>
<text xml:space="preserve" text-anchor="middle" x="820.5" y="-200.92" font-family="Helvetica,sans-Serif" font-size="10.00">kest_expression_evaluate_rec</text>
</a>
</g>
</g>
<!-- Node2&#45;&gt;Node6 -->
<g id="edge20_Node000002_Node000006" class="edge">
<title>Node2&#45;&gt;Node6</title>
<g id="a_edge20_Node000002_Node000006"><a xlink:title=" ">
<path fill="none" stroke="#63b8ff" d="M288.34,-195.05C306.79,-217.61 342.4,-257.13 381.5,-279.04 453.25,-319.27 478.7,-316.28 560.25,-327.04 623.15,-335.34 644.72,-352.12 703,-327.04 751.85,-306.03 789.81,-253.35 807.89,-224.21"/>
<polygon fill="#63b8ff" stroke="#63b8ff" points="810.71,-226.31 812.86,-215.94 804.71,-222.71 810.71,-226.31"/>
</a>
</g>
</g>
<!-- Node8 -->
<g id="Node000008" class="node">
<title>Node8</title>
<g id="a_Node000008"><a xlink:href="kest__expression_8c.html#aadf2a6a074cb1ad7b45893704cbd71c3" target="_top" xlink:title=" ">
<polygon fill="#fff0f0" stroke="red" points="1047.75,-286.79 938,-286.79 938,-253.29 1047.75,-253.29 1047.75,-286.79"/>
<text xml:space="preserve" text-anchor="start" x="946" y="-273.29" font-family="Helvetica,sans-Serif" font-size="10.00">kest_expression_to</text>
<text xml:space="preserve" text-anchor="middle" x="992.88" y="-260.54" font-family="Helvetica,sans-Serif" font-size="10.00">_string</text>
</a>
</g>
</g>
<!-- Node2&#45;&gt;Node8 -->
<g id="edge22_Node000002_Node000008" class="edge">
<title>Node2&#45;&gt;Node8</title>
<g id="a_edge22_Node000002_Node000008"><a xlink:title=" ">
<path fill="none" stroke="#63b8ff" d="M283.18,-195.21C298.07,-224.89 332.88,-285.46 381.5,-315.04 450.52,-357.03 479.8,-340.68 560.25,-348.04 623.43,-353.83 640.07,-356.13 703,-348.04 793.67,-336.39 813.86,-320.3 902,-296.04 910.06,-293.83 918.51,-291.45 926.87,-289.07"/>
<polygon fill="#63b8ff" stroke="#63b8ff" points="927.66,-292.48 936.3,-286.36 925.73,-285.75 927.66,-292.48"/>
</a>
</g>
</g>
<!-- Node22 -->
<g id="Node000022" class="node">
<title>Node22</title>
<g id="a_Node000022"><a xlink:href="kest__expr__scope_8c.html#a8a0fbd22e0deccdaee632b2a95d4aee5" target="_top" xlink:title=" ">
<polygon fill="white" stroke="#666666" points="1042.88,-166.42 942.88,-166.42 942.88,-145.67 1042.88,-145.67 1042.88,-166.42"/>
<text xml:space="preserve" text-anchor="middle" x="992.88" y="-152.92" font-family="Helvetica,sans-Serif" font-size="10.00">kest_scope_fetch</text>
</a>
</g>
</g>
<!-- Node2&#45;&gt;Node22 -->
<g id="edge23_Node000002_Node000022" class="edge">
<title>Node2&#45;&gt;Node22</title>
<g id="a_edge23_Node000002_Node000022"><a xlink:title=" ">
<path fill="none" stroke="#63b8ff" d="M295.11,-161.07C315.64,-144.35 349.09,-119.06 381.5,-103.04 456.14,-66.17 477.96,-59.63 560.25,-47.04 622.96,-37.45 640.59,-35.66 703,-47.04 801.22,-64.96 909.43,-114.5 961.1,-140.17"/>
<polygon fill="#63b8ff" stroke="#63b8ff" points="959.39,-143.22 969.89,-144.58 962.53,-136.97 959.39,-143.22"/>
</a>
</g>
</g>
<!-- Node13 -->
<g id="Node000013" class="node">
<title>Node13</title>
<g id="a_Node000013"><a xlink:href="kest__expression_8c.html#a05276e5a18cc3b52dfc8a17bb101c832" target="_top" xlink:title=" ">
<polygon fill="white" stroke="#666666" points="1036.88,-90.42 948.88,-90.42 948.88,-69.67 1036.88,-69.67 1036.88,-90.42"/>
<text xml:space="preserve" text-anchor="middle" x="992.88" y="-76.92" font-family="Helvetica,sans-Serif" font-size="10.00">max_depth_bp</text>
</a>
</g>
</g>
<!-- Node2&#45;&gt;Node13 -->
<g id="edge24_Node000002_Node000013" class="edge">
<title>Node2&#45;&gt;Node13</title>
<g id="a_edge24_Node000002_Node000013"><a xlink:title=" ">
<path fill="none" stroke="#63b8ff" d="M283.41,-160.9C298.41,-131.99 333.09,-74.23 381.5,-49.04 575.43,51.84 852.55,-29.73 953.35,-65.43"/>
<polygon fill="#63b8ff" stroke="#63b8ff" points="951.91,-68.63 962.5,-68.72 954.28,-62.04 951.91,-68.63"/>
</a>
</g>
</g>
<!-- Node23 -->
<g id="Node000023" class="node">
<title>Node23</title>
<g id="a_Node000023"><a xlink:href="kest__expression_8c.html#a9f7a466a9bc6d2622e7d36f2bec6df7e" target="_top" xlink:title=" ">
<polygon fill="white" stroke="#666666" points="689.12,-89.79 574.12,-89.79 574.12,-56.29 689.12,-56.29 689.12,-89.79"/>
<text xml:space="preserve" text-anchor="start" x="582.12" y="-76.29" font-family="Helvetica,sans-Serif" font-size="10.00">kest_expression_is</text>
<text xml:space="preserve" text-anchor="middle" x="631.62" y="-63.54" font-family="Helvetica,sans-Serif" font-size="10.00">_constant_reference</text>
</a>
</g>
</g>
<!-- Node2&#45;&gt;Node23 -->
<g id="edge21_Node000002_Node000023" class="edge">
<title>Node2&#45;&gt;Node23</title>
<g id="a_edge21_Node000002_Node000023"><a xlink:title=" ">
<path fill="none" stroke="#63b8ff" d="M333.43,-160.82C396.41,-142.22 496.61,-112.63 563,-93.02"/>
<polygon fill="#63b8ff" stroke="#63b8ff" points="563.71,-96.46 572.31,-90.27 561.73,-89.74 563.71,-96.46"/>
</a>
</g>
</g>
<!-- Node4&#45;&gt;Node2 -->
<g id="edge6_Node000004_Node000002" class="edge">
<title>Node4&#45;&gt;Node2</title>
<g id="a_edge6_Node000004_Node000002"><a xlink:title=" ">
<path fill="none" stroke="#63b8ff" d="M381.27,-184.67C373.38,-184.78 365.29,-184.82 357.27,-184.78"/>
<polygon fill="#63b8ff" stroke="#63b8ff" points="357.54,-181.28 347.51,-184.69 357.48,-188.28 357.54,-181.28"/>
</a>
</g>
</g>
<!-- Node4&#45;&gt;Node3 -->
<g id="edge4_Node000004_Node000003" class="edge">
<title>Node4&#45;&gt;Node3</title>
<g id="a_edge4_Node000004_Node000003"><a xlink:title=" ">
<path fill="none" stroke="#63b8ff" d="M466.82,-195.14C485.21,-218.34 521.06,-259.68 560.25,-284.04 565.8,-287.49 571.9,-290.52 578.13,-293.15"/>
<polygon fill="#63b8ff" stroke="#63b8ff" points="576.64,-296.32 587.23,-296.67 579.16,-289.79 576.64,-296.32"/>
</a>
</g>
</g>
<!-- Node4&#45;&gt;Node4 -->
<g id="edge5_Node000004_Node000004" class="edge">
<title>Node4&#45;&gt;Node4</title>
<g id="a_edge5_Node000004_Node000004"><a xlink:title=" ">
<path fill="none" stroke="#63b8ff" d="M420.74,-195.21C415.28,-204.41 425.99,-212.79 452.88,-212.79 468,-212.79 478,-210.14 482.89,-206.18"/>
<polygon fill="#63b8ff" stroke="#63b8ff" points="486.26,-207.18 484.72,-196.69 479.39,-205.85 486.26,-207.18"/>
</a>
</g>
</g>
<!-- Node4&#45;&gt;Node5 -->
<g id="edge7_Node000004_Node000005" class="edge">
<title>Node4&#45;&gt;Node5</title>
<g id="a_edge7_Node000004_Node000005"><a xlink:title=" ">
<path fill="none" stroke="#63b8ff" d="M510.29,-195.28C534.25,-202.6 561.84,-211.03 584.55,-217.97"/>
<polygon fill="#63b8ff" stroke="#63b8ff" points="583.23,-221.22 593.82,-220.8 585.28,-214.53 583.23,-221.22"/>
</a>
</g>
</g>
<!-- Node4&#45;&gt;Node6 -->
<g id="edge13_Node000004_Node000006" class="edge">
<title>Node4&#45;&gt;Node6</title>
<g id="a_edge13_Node000004_Node000006"><a xlink:title=" ">
<path fill="none" stroke="#63b8ff" d="M524.37,-183.06C582.22,-187.17 664.56,-193.03 727.58,-197.51"/>
<polygon fill="#63b8ff" stroke="#63b8ff" points="726.98,-200.97 737.2,-198.19 727.47,-193.99 726.98,-200.97"/>
</a>
</g>
</g>
<!-- Node4&#45;&gt;Node8 -->
<g id="edge15_Node000004_Node000008" class="edge">
<title>Node4&#45;&gt;Node8</title>
<g id="a_edge15_Node000004_Node000008"><a xlink:title=" ">
<path fill="none" stroke="#63b8ff" d="M471.72,-195.04C491.55,-212.71 525.41,-239.39 560.25,-251.04 684.49,-292.59 840.12,-286.29 926.47,-278.09"/>
<polygon fill="#63b8ff" stroke="#63b8ff" points="926.56,-281.6 936.16,-277.13 925.87,-274.63 926.56,-281.6"/>
</a>
</g>
</g>
<!-- Node4&#45;&gt;Node22 -->
<g id="edge16_Node000004_Node000022" class="edge">
<title>Node4&#45;&gt;Node22</title>
<g id="a_edge16_Node000004_Node000022"><a xlink:title=" ">
<path fill="none" stroke="#63b8ff" d="M524.49,-175.16C631.02,-170.8 831.03,-162.62 931.31,-158.52"/>
<polygon fill="#63b8ff" stroke="#63b8ff" points="931.38,-162.02 941.23,-158.11 931.1,-155.03 931.38,-162.02"/>
</a>
</g>
</g>
<!-- Node4&#45;&gt;Node13 -->
<g id="edge17_Node000004_Node000013" class="edge">
<title>Node4&#45;&gt;Node13</title>
<g id="a_edge17_Node000004_Node000013"><a xlink:title=" ">
<path fill="none" stroke="#63b8ff" d="M524.49,-165.18C633.21,-145.38 839.31,-107.83 937.38,-89.97"/>
<polygon fill="#63b8ff" stroke="#63b8ff" points="937.81,-93.45 947.02,-88.21 936.55,-86.56 937.81,-93.45"/>
</a>
</g>
</g>
<!-- Node4&#45;&gt;Node23 -->
<g id="edge14_Node000004_Node000023" class="edge">
<title>Node4&#45;&gt;Node23</title>
<g id="a_edge14_Node000004_Node000023"><a xlink:title=" ">
<path fill="none" stroke="#63b8ff" d="M475.88,-160.85C496.84,-144.94 529.64,-121.22 560.25,-104.04 565.84,-100.9 571.82,-97.85 577.83,-94.96"/>
<polygon fill="#63b8ff" stroke="#63b8ff" points="578.96,-98.3 586.55,-90.91 576.01,-91.95 578.96,-98.3"/>
</a>
</g>
</g>
<!-- Node5&#45;&gt;Node6 -->
<g id="edge8_Node000005_Node000006" class="edge">
<title>Node5&#45;&gt;Node6</title>
<g id="a_edge8_Node000005_Node000006"><a xlink:title=" ">
<path fill="none" stroke="#63b8ff" d="M703.27,-221.46C713.94,-219.86 725.02,-218.2 735.93,-216.57"/>
<polygon fill="#63b8ff" stroke="#63b8ff" points="736.33,-220.04 745.7,-215.1 735.29,-213.12 736.33,-220.04"/>
</a>
</g>
</g>
<!-- Node6&#45;&gt;Node6 -->
<g id="edge9_Node000006_Node000006" class="edge">
<title>Node6&#45;&gt;Node6</title>
<g id="a_edge9_Node000006_Node000006"><a xlink:title=" ">
<path fill="none" stroke="#63b8ff" d="M792.72,-214.82C781.61,-223.48 790.87,-232.42 820.5,-232.42 836.7,-232.42 846.81,-229.74 850.83,-225.9"/>
<polygon fill="#63b8ff" stroke="#63b8ff" points="854.27,-225.25 848.62,-216.29 847.45,-226.82 854.27,-225.25"/>
</a>
</g>
</g>
<!-- Node6&#45;&gt;Node8 -->
<g id="edge10_Node000006_Node000008" class="edge">
<title>Node6&#45;&gt;Node8</title>
<g id="a_edge10_Node000006_Node000008"><a xlink:title=" ">
<path fill="none" stroke="#63b8ff" d="M849.25,-214.79C872.94,-223.97 907.7,-237.44 936.98,-248.78"/>
<polygon fill="#63b8ff" stroke="#63b8ff" points="935.49,-251.95 946.08,-252.3 938.02,-245.43 935.49,-251.95"/>
</a>
</g>
</g>
<!-- Node6&#45;&gt;Node22 -->
<g id="edge11_Node000006_Node000022" class="edge">
<title>Node6&#45;&gt;Node22</title>
<g id="a_edge11_Node000006_Node000022"><a xlink:title=" ">
<path fill="none" stroke="#63b8ff" d="M859.74,-193.27C884.2,-186.38 916.18,-177.37 942.55,-169.94"/>
<polygon fill="#63b8ff" stroke="#63b8ff" points="943.34,-173.35 952.02,-167.27 941.44,-166.62 943.34,-173.35"/>
</a>
</g>
</g>
<!-- Node6&#45;&gt;Node13 -->
<g id="edge12_Node000006_Node000013" class="edge">
<title>Node6&#45;&gt;Node13</title>
<g id="a_edge12_Node000006_Node000013"><a xlink:title=" ">
<path fill="none" stroke="#63b8ff" d="M836.32,-193.26C865.77,-171.82 931.91,-123.69 967.72,-97.62"/>
<polygon fill="#63b8ff" stroke="#63b8ff" points="969.72,-100.5 975.74,-91.79 965.6,-94.84 969.72,-100.5"/>
</a>
</g>
</g>
</g>
</svg>

<g id="navigator" transform="translate(0 0)" fill="#404254">
  <rect fill="#f2f5e9" fill-opacity="0.5" stroke="#606060" stroke-width=".5" x="0" y="0" width="60" height="60"/>
  <use id="zoomplus" xlink:href="#zoomPlus" x="17" y="9" onmousedown="handleZoom(evt,'in')"/>
  <use id="zoomminus" xlink:href="#zoomMin" x="42" y="9" onmousedown="handleZoom(evt,'out')"/>
  <use id="reset" xlink:href="#resetDef" x="30" y="36" onmousedown="handleReset()"/>
   <use id="arrowup" xlink:href="#arrowUp" x="0" y="0" onmousedown="handlePan(0,-1)"/>
  <use id="arrowright" xlink:href="#arrowRight" x="0" y="0" onmousedown="handlePan(1,0)"/>
  <use id="arrowdown" xlink:href="#arrowDown" x="0" y="0" onmousedown="handlePan(0,1)"/>
  <use id="arrowleft" xlink:href="#arrowLeft" x="0" y="0" onmousedown="handlePan(-1,0)"/>
</g>
<svg viewBox="0 0 15 15" width="100%" height="30px" preserveAspectRatio="xMaxYMin meet">
 <g id="arrow_out" transform="scale(0.3 0.3)">
  <a xlink:href="kest__expression_8h_a76a52d6b21899491c72f97961df20864_cgraph_org.svg" target="_base">
   <rect id="button" ry="5" rx="5" y="6" x="6" height="38" width="38"
        fill="#f2f5e9" fill-opacity="0.5" stroke="#606060" stroke-width="1.0"/>
   <path id="arrow"
     d="M 11.500037,31.436501 C 11.940474,20.09759 22.043105,11.32322 32.158766,21.979434 L 37.068811,17.246167 C 37.068811,17.246167 37.088388,32 37.088388,32 L 22.160133,31.978069 C 22.160133,31.978069 26.997745,27.140456 26.997745,27.140456 C 18.528582,18.264221 13.291696,25.230495 11.500037,31.436501 z"
     style="fill:#404040;"/>
  </a>
 </g>
</svg>

<style type='text/css'>
<![CDATA[
[data-mouse-over-selected='false'] { opacity: 0.7; }
[data-mouse-over-selected='true']  { opacity: 1.0; }
]]>
</style>
<script type="application/ecmascript"><![CDATA[
document.addEventListener('DOMContentLoaded', (event) => {
  highlightEdges();
  highlightAdjacentNodes();
});
]]></script>
</svg>
