<?xml version="1.0" encoding="UTF-8" standalone="no"?>
<!DOCTYPE svg PUBLIC "-//W3C//DTD SVG 1.1//EN"
 "http://www.w3.org/Graphics/SVG/1.1/DTD/svg11.dtd">
<!-- Generated by graphviz version 13.1.2 (20250808.2320)
 -->
<!-- Title: kest_context_add_preset Pages: 1 -->
<!--zoomable 211 -->

<svg id="main" version="1.1" xmlns="http://www.w3.org/2000/svg" xmlns:xlink="http://www.w3.org/1999/xlink" xml:space="preserve" onload="init(evt)">

<style type="text/css"><![CDATA[
.node, .edge {opacity: 0.7;}
.node.selected, .edge.selected {opacity: 1;}
.edge:hover path { stroke: red; }
.edge:hover polygon { stroke: red; fill: red; }
]]></style>

<defs>
  <circle id="rim" cx="0" cy="0" r="7"/>
  <circle id="rim2" cx="0" cy="0" r="3.5"/>
  <g id="zoomPlus">
    <use xlink:href="#rim" fill="#404040"><set attributeName="fill" to="#808080" begin="zoomplus.mouseover" end="zoomplus.mouseout"/></use>
    <path d="M-4,0h8M0,-4v8" fill="none" stroke="white" stroke-width="1.5" pointer-events="none"/>
  </g>
  <g id="zoomMin">
    <use xlink:href="#rim" fill="#404040"><set attributeName="fill" to="#808080" begin="zoomminus.mouseover" end="zoomminus.mouseout"/></use>
    <path d="M-4,0h8" fill="none" stroke="white" stroke-width="1.5" pointer-events="none"/>
  </g>
  <g id="arrowUp" transform="translate(30 24)">
    <use xlink:href="#rim"/>
    <path pointer-events="none" fill="none" stroke="white" stroke-width="1.5" d="M0,-3.0v7 M-2.5,-0.5L0,-3.0L2.5,-0.5"/>
  </g>
  <g id="arrowRight" transform="rotate(90) translate(36 -43)">
    <use xlink:href="#rim"/>
    <path pointer-events="none" fill="none" stroke="white" stroke-width="1.5" d="M0,-3.0v7 M-2.5,-0.5L0,-3.0L2.5,-0.5"/>
  </g>
  <g id="arrowDown" transform="rotate(180) translate(-30 -48)">
    <use xlink:href="#rim"/>
    <path pointer-events="none" fill="none" stroke="white" stroke-width="1.5" d="M0,-3.0v7 M-2.5,-0.5L0,-3.0L2.5,-0.5"/>
  </g>
  <g id="arrowLeft" transform="rotate(270) translate(-36 17)">
    <use xlink:href="#rim"/>
    <path pointer-events="none" fill="none" stroke="white" stroke-width="1.5" d="M0,-3.0v7 M-2.5,-0.5L0,-3.0L2.5,-0.5"/>
  </g>
  <g id="resetDef">
    <use xlink:href="#rim2" fill="#404040"><set attributeName="fill" to="#808080" begin="reset.mouseover" end="reset.mouseout"/></use>
  </g>
</defs>
<script type="application/ecmascript">
var viewWidth = 581;
var viewHeight = 211;
var sectionId = 'dynsection-24';
</script>
<script type="application/ecmascript" xlink:href="svg.min.js"/>
<svg id="graph" class="graph">
<g id="viewport">
<title>kest_context_add_preset</title>
<!-- Node1 -->
<g id="Node000001" class="node">
<title>Node1</title>
<g id="a_Node000001"><a xlink:title=" ">
<polygon fill="#999999" stroke="#666666" points="137.5,-91.12 0,-91.12 0,-70.38 137.5,-70.38 137.5,-91.12"/>
<text xml:space="preserve" text-anchor="middle" x="68.75" y="-77.62" font-family="Helvetica,sans-Serif" font-size="10.00">kest_context_add_preset</text>
</a>
</g>
</g>
<!-- Node2 -->
<g id="Node000002" class="node">
<title>Node2</title>
<g id="a_Node000002"><a xlink:href="kest__preset_8c.html#a4d502f8b682425208e39082cbac4a4a1" target="_top" xlink:title=" ">
<polygon fill="white" stroke="#666666" points="250.62,-159.12 179.12,-159.12 179.12,-138.38 250.62,-138.38 250.62,-159.12"/>
<text xml:space="preserve" text-anchor="middle" x="214.88" y="-145.62" font-family="Helvetica,sans-Serif" font-size="10.00">free_preset</text>
</a>
</g>
</g>
<!-- Node1&#45;&gt;Node2 -->
<g id="edge1_Node000001_Node000002" class="edge">
<title>Node1&#45;&gt;Node2</title>
<g id="a_edge1_Node000001_Node000002"><a xlink:title=" ">
<path fill="none" stroke="#63b8ff" d="M92.59,-91.52C116.41,-102.77 153.99,-120.49 181,-133.24"/>
<polygon fill="#63b8ff" stroke="#63b8ff" points="179.24,-136.28 189.78,-137.38 182.23,-129.95 179.24,-136.28"/>
</a>
</g>
</g>
<!-- Node14 -->
<g id="Node000014" class="node">
<title>Node14</title>
<g id="a_Node000014"><a xlink:href="kest__preset_8c.html#a081f5bea4d9dff0740275c4608e75b80" target="_top" xlink:title=" ">
<polygon fill="white" stroke="#666666" points="256.25,-91.12 173.5,-91.12 173.5,-70.38 256.25,-70.38 256.25,-91.12"/>
<text xml:space="preserve" text-anchor="middle" x="214.88" y="-77.62" font-family="Helvetica,sans-Serif" font-size="10.00">init_m_preset</text>
</a>
</g>
</g>
<!-- Node1&#45;&gt;Node14 -->
<g id="edge7_Node000001_Node000014" class="edge">
<title>Node1&#45;&gt;Node14</title>
<g id="a_edge7_Node000001_Node000014"><a xlink:title=" ">
<path fill="none" stroke="#63b8ff" d="M137.59,-80.75C145.64,-80.75 153.76,-80.75 161.55,-80.75"/>
<polygon fill="#63b8ff" stroke="#63b8ff" points="161.54,-84.25 171.54,-80.75 161.54,-77.25 161.54,-84.25"/>
</a>
</g>
</g>
<!-- Node54 -->
<g id="Node000054" class="node">
<title>Node54</title>
<g id="a_Node000054"><a xlink:href="kest__alloc_8c.html#a849755c5dc5b35e712ffcdb602e50fb4" target="_top" xlink:title=" ">
<polygon fill="white" stroke="#666666" points="247.25,-52.12 182.5,-52.12 182.5,-31.38 247.25,-31.38 247.25,-52.12"/>
<text xml:space="preserve" text-anchor="middle" x="214.88" y="-38.62" font-family="Helvetica,sans-Serif" font-size="10.00">kest_alloc</text>
</a>
</g>
</g>
<!-- Node1&#45;&gt;Node54 -->
<g id="edge14_Node000001_Node000054" class="edge">
<title>Node1&#45;&gt;Node54</title>
<g id="a_edge14_Node000001_Node000054"><a xlink:title=" ">
<path fill="none" stroke="#63b8ff" d="M109.9,-69.89C128.97,-64.72 151.79,-58.55 171.19,-53.3"/>
<polygon fill="#63b8ff" stroke="#63b8ff" points="171.95,-56.72 180.69,-50.73 170.13,-49.96 171.95,-56.72"/>
</a>
</g>
</g>
<!-- Node3 -->
<g id="Node000003" class="node">
<title>Node3</title>
<g id="a_Node000003"><a xlink:href="kest__preset_8c.html#a5f4b58a8868ab9b0bc2340f1bb089ffb" target="_top" xlink:title=" ">
<polygon fill="white" stroke="#666666" points="383.25,-198.12 315.5,-198.12 315.5,-177.38 383.25,-177.38 383.25,-198.12"/>
<text xml:space="preserve" text-anchor="middle" x="349.38" y="-184.62" font-family="Helvetica,sans-Serif" font-size="10.00">gut_preset</text>
</a>
</g>
</g>
<!-- Node2&#45;&gt;Node3 -->
<g id="edge2_Node000002_Node000003" class="edge">
<title>Node2&#45;&gt;Node3</title>
<g id="a_edge2_Node000002_Node000003"><a xlink:title=" ">
<path fill="none" stroke="#63b8ff" d="M251.03,-159.1C267.39,-163.91 287.01,-169.69 304.33,-174.79"/>
<polygon fill="#63b8ff" stroke="#63b8ff" points="303.3,-178.13 313.88,-177.6 305.28,-171.42 303.3,-178.13"/>
</a>
</g>
</g>
<!-- Node9 -->
<g id="Node000009" class="node">
<title>Node9</title>
<g id="a_Node000009"><a xlink:href="kest__alloc_8c.html#ac70a0464d391cefa33eb0f6d746ff7aa" target="_top" xlink:title=" ">
<polygon fill="white" stroke="#666666" points="403.88,-159.12 294.88,-159.12 294.88,-138.38 403.88,-138.38 403.88,-159.12"/>
<text xml:space="preserve" text-anchor="middle" x="349.38" y="-145.62" font-family="Helvetica,sans-Serif" font-size="10.00">kest_allocator_free</text>
</a>
</g>
</g>
<!-- Node2&#45;&gt;Node9 -->
<g id="edge5_Node000002_Node000009" class="edge">
<title>Node2&#45;&gt;Node9</title>
<g id="a_edge5_Node000002_Node000009"><a xlink:title=" ">
<path fill="none" stroke="#63b8ff" d="M251.03,-148.75C260.94,-148.75 272.03,-148.75 283.1,-148.75"/>
<polygon fill="#63b8ff" stroke="#63b8ff" points="283.05,-152.25 293.05,-148.75 283.05,-145.25 283.05,-152.25"/>
</a>
</g>
</g>
<!-- Node4 -->
<g id="Node000004" class="node">
<title>Node4</title>
<g id="a_Node000004"><a xlink:href="kest__pipeline_8c.html#a840a0f31f2703ff6040d47245cc56c7a" target="_top" xlink:title=" ">
<polygon fill="#fff0f0" stroke="red" points="545.88,-203.12 469.88,-203.12 469.88,-182.38 545.88,-182.38 545.88,-203.12"/>
<text xml:space="preserve" text-anchor="middle" x="507.88" y="-189.62" font-family="Helvetica,sans-Serif" font-size="10.00">gut_pipeline</text>
</a>
</g>
</g>
<!-- Node3&#45;&gt;Node4 -->
<g id="edge3_Node000003_Node000004" class="edge">
<title>Node3&#45;&gt;Node4</title>
<g id="a_edge3_Node000003_Node000004"><a xlink:title=" ">
<path fill="none" stroke="#63b8ff" d="M383.56,-188.81C405.23,-189.5 433.89,-190.42 458.13,-191.19"/>
<polygon fill="#63b8ff" stroke="#63b8ff" points="458,-194.69 468.11,-191.51 458.22,-187.69 458,-194.69"/>
</a>
</g>
</g>
<!-- Node8 -->
<g id="Node000008" class="node">
<title>Node8</title>
<g id="a_Node000008"><a xlink:href="kest__alloc_8c.html#a294af5728a94aa316fcf65304d388d48" target="_top" xlink:title=" ">
<polygon fill="white" stroke="#666666" points="538.38,-164.12 477.38,-164.12 477.38,-143.38 538.38,-143.38 538.38,-164.12"/>
<text xml:space="preserve" text-anchor="middle" x="507.88" y="-150.62" font-family="Helvetica,sans-Serif" font-size="10.00">kest_free</text>
</a>
</g>
</g>
<!-- Node3&#45;&gt;Node8 -->
<g id="edge4_Node000003_Node000008" class="edge">
<title>Node3&#45;&gt;Node8</title>
<g id="a_edge4_Node000003_Node000008"><a xlink:title=" ">
<path fill="none" stroke="#63b8ff" d="M383.56,-180.54C407.53,-175.33 440.05,-168.27 465.67,-162.7"/>
<polygon fill="#63b8ff" stroke="#63b8ff" points="466.4,-166.12 475.43,-160.58 464.91,-159.28 466.4,-166.12"/>
</a>
</g>
</g>
<!-- Node9&#45;&gt;Node8 -->
<g id="edge6_Node000009_Node000008" class="edge">
<title>Node9&#45;&gt;Node8</title>
<g id="a_edge6_Node000009_Node000008"><a xlink:title=" ">
<path fill="none" stroke="#63b8ff" d="M404.23,-150.47C424.35,-151.11 446.85,-151.83 465.65,-152.43"/>
<polygon fill="#63b8ff" stroke="#63b8ff" points="465.49,-155.93 475.6,-152.75 465.71,-148.93 465.49,-155.93"/>
</a>
</g>
</g>
<!-- Node15 -->
<g id="Node000015" class="node">
<title>Node15</title>
<g id="a_Node000015"><a xlink:href="kest__pipeline_8c.html#a5854d23849b879b4c5632bd23cac4ada" target="_top" xlink:title=" ">
<polygon fill="white" stroke="#666666" points="394.88,-111.12 303.88,-111.12 303.88,-90.38 394.88,-90.38 394.88,-111.12"/>
<text xml:space="preserve" text-anchor="middle" x="349.38" y="-97.62" font-family="Helvetica,sans-Serif" font-size="10.00">init_m_pipeline</text>
</a>
</g>
</g>
<!-- Node14&#45;&gt;Node15 -->
<g id="edge8_Node000014_Node000015" class="edge">
<title>Node14&#45;&gt;Node15</title>
<g id="a_edge8_Node000014_Node000015"><a xlink:title=" ">
<path fill="none" stroke="#63b8ff" d="M256.71,-86.91C268,-88.62 280.46,-90.5 292.45,-92.31"/>
<polygon fill="#63b8ff" stroke="#63b8ff" points="291.85,-95.76 302.26,-93.79 292.89,-88.84 291.85,-95.76"/>
</a>
</g>
</g>
<!-- Node16 -->
<g id="Node000016" class="node">
<title>Node16</title>
<g id="a_Node000016"><a xlink:href="kest__parameter_8c.html#a2b94ddb1588d1a5af4311970bb068122" target="_top" xlink:title=" ">
<polygon fill="white" stroke="#666666" points="393.38,-72.12 305.38,-72.12 305.38,-51.38 393.38,-51.38 393.38,-72.12"/>
<text xml:space="preserve" text-anchor="middle" x="349.38" y="-58.62" font-family="Helvetica,sans-Serif" font-size="10.00">init_parameter</text>
</a>
</g>
</g>
<!-- Node14&#45;&gt;Node16 -->
<g id="edge9_Node000014_Node000016" class="edge">
<title>Node14&#45;&gt;Node16</title>
<g id="a_edge9_Node000014_Node000016"><a xlink:title=" ">
<path fill="none" stroke="#63b8ff" d="M256.71,-74.89C268.47,-73.21 281.49,-71.34 293.93,-69.56"/>
<polygon fill="#63b8ff" stroke="#63b8ff" points="294.25,-73.05 303.65,-68.16 293.25,-66.12 294.25,-73.05"/>
</a>
</g>
</g>
<!-- Node49 -->
<g id="Node000049" class="node">
<title>Node49</title>
<g id="a_Node000049"><a xlink:href="kest__preset_8c.html#adafdde421c8a45460a73610143e238ec" target="_top" xlink:title=" ">
<polygon fill="white" stroke="#666666" points="406.5,-33.5 292.25,-33.5 292.25,0 406.5,0 406.5,-33.5"/>
<text xml:space="preserve" text-anchor="start" x="300.25" y="-20" font-family="Helvetica,sans-Serif" font-size="10.00">kest_preset_file_rep</text>
<text xml:space="preserve" text-anchor="middle" x="349.38" y="-7.25" font-family="Helvetica,sans-Serif" font-size="10.00">_update</text>
</a>
</g>
</g>
<!-- Node14&#45;&gt;Node49 -->
<g id="edge12_Node000014_Node000049" class="edge">
<title>Node14&#45;&gt;Node49</title>
<g id="a_edge12_Node000014_Node000049"><a xlink:title=" ">
<path fill="none" stroke="#63b8ff" d="M237.67,-69.97C243.69,-66.99 250.23,-63.75 256.25,-60.75 272.26,-52.78 276.13,-50.51 292.25,-42.75 294.97,-41.44 297.77,-40.11 300.59,-38.77"/>
<polygon fill="#63b8ff" stroke="#63b8ff" points="301.94,-42 309.5,-34.58 298.96,-35.67 301.94,-42"/>
</a>
</g>
</g>
<!-- Node17 -->
<g id="Node000017" class="node">
<title>Node17</title>
<g id="a_Node000017"><a xlink:href="kest__parameter_8c.html#abff5b0dd3ed907207191aa6079c514eb" target="_top" xlink:title=" ">
<polygon fill="#fff0f0" stroke="red" points="571,-125.5 444.75,-125.5 444.75,-92 571,-92 571,-125.5"/>
<text xml:space="preserve" text-anchor="start" x="452.75" y="-112" font-family="Helvetica,sans-Serif" font-size="10.00">kest_parameter_effect</text>
<text xml:space="preserve" text-anchor="middle" x="507.88" y="-99.25" font-family="Helvetica,sans-Serif" font-size="10.00">_rep_update</text>
</a>
</g>
</g>
<!-- Node16&#45;&gt;Node17 -->
<g id="edge10_Node000016_Node000017" class="edge">
<title>Node16&#45;&gt;Node17</title>
<g id="a_edge10_Node000016_Node000017"><a xlink:title=" ">
<path fill="none" stroke="#63b8ff" d="M386.28,-72.53C401.9,-77.22 420.73,-82.88 438.83,-88.32"/>
<polygon fill="#63b8ff" stroke="#63b8ff" points="437.64,-91.61 448.22,-91.13 439.65,-84.91 437.64,-91.61"/>
</a>
</g>
</g>
<!-- Node20 -->
<g id="Node000020" class="node">
<title>Node20</title>
<g id="a_Node000020"><a xlink:href="kest__parameter_8c.html#a548a0b985f671572b9293afa1a1b5d79" target="_top" xlink:title=" ">
<polygon fill="#fff0f0" stroke="red" points="573.25,-73.5 442.5,-73.5 442.5,-40 573.25,-40 573.25,-73.5"/>
<text xml:space="preserve" text-anchor="start" x="450.5" y="-60" font-family="Helvetica,sans-Serif" font-size="10.00">kest_parameter_widget</text>
<text xml:space="preserve" text-anchor="middle" x="507.88" y="-47.25" font-family="Helvetica,sans-Serif" font-size="10.00">_rep_update</text>
</a>
</g>
</g>
<!-- Node16&#45;&gt;Node20 -->
<g id="edge11_Node000016_Node000020" class="edge">
<title>Node16&#45;&gt;Node20</title>
<g id="a_edge11_Node000016_Node000020"><a xlink:title=" ">
<path fill="none" stroke="#63b8ff" d="M393.55,-60.37C405.17,-60 418.09,-59.59 430.92,-59.18"/>
<polygon fill="#63b8ff" stroke="#63b8ff" points="430.75,-62.68 440.63,-58.87 430.52,-55.69 430.75,-62.68"/>
</a>
</g>
</g>
<!-- Node50 -->
<g id="Node000050" class="node">
<title>Node50</title>
<g id="a_Node000050"><a xlink:href="kest__files_8c.html#a930754405483621f50f94833b02cdd3c" target="_top" xlink:title=" ">
<polygon fill="#fff0f0" stroke="red" points="545.5,-22.12 470.25,-22.12 470.25,-1.38 545.5,-1.38 545.5,-22.12"/>
<text xml:space="preserve" text-anchor="middle" x="507.88" y="-8.62" font-family="Helvetica,sans-Serif" font-size="10.00">save_preset</text>
</a>
</g>
</g>
<!-- Node49&#45;&gt;Node50 -->
<g id="edge13_Node000049_Node000050" class="edge">
<title>Node49&#45;&gt;Node50</title>
<g id="a_edge13_Node000049_Node000050"><a xlink:title=" ">
<path fill="none" stroke="#63b8ff" d="M406.88,-14.94C423.78,-14.4 442.16,-13.82 458.5,-13.3"/>
<polygon fill="#63b8ff" stroke="#63b8ff" points="458.59,-16.79 468.47,-12.98 458.37,-9.8 458.59,-16.79"/>
</a>
</g>
</g>
</g>
</svg>

<g id="navigator" transform="translate(0 0)" fill="#404254">
  <rect fill="#f2f5e9" fill-opacity="0.5" stroke="#606060" stroke-width=".5" x="0" y="0" width="60" height="60"/>
  <use id="zoomplus" xlink:href="#zoomPlus" x="17" y="9" onmousedown="handleZoom(evt,'in')"/>
  <use id="zoomminus" xlink:href="#zoomMin" x="42" y="9" onmousedown="handleZoom(evt,'out')"/>
  <use id="reset" xlink:href="#resetDef" x="30" y="36" onmousedown="handleReset()"/>
   <use id="arrowup" xlink:href="#arrowUp" x="0" y="0" onmousedown="handlePan(0,-1)"/>
  <use id="arrowright" xlink:href="#arrowRight" x="0" y="0" onmousedown="handlePan(1,0)"/>
  <use id="arrowdown" xlink:href="#arrowDown" x="0" y="0" onmousedown="handlePan(0,1)"/>
  <use id="arrowleft" xlink:href="#arrowLeft" x="0" y="0" onmousedown="handlePan(-1,0)"/>
</g>
<svg viewBox="0 0 15 15" width="100%" height="30px" preserveAspectRatio="xMaxYMin meet">
 <g id="arrow_out" transform="scale(0.3 0.3)">
  <a xlink:href="kest__context_8c_af3a105be762be207e79056783ac06e79_cgraph_org.svg" target="_base">
   <rect id="button" ry="5" rx="5" y="6" x="6" height="38" width="38"
        fill="#f2f5e9" fill-opacity="0.5" stroke="#606060" stroke-width="1.0"/>
   <path id="arrow"
     d="M 11.500037,31.436501 C 11.940474,20.09759 22.043105,11.32322 32.158766,21.979434 L 37.068811,17.246167 C 37.068811,17.246167 37.088388,32 37.088388,32 L 22.160133,31.978069 C 22.160133,31.978069 26.997745,27.140456 26.997745,27.140456 C 18.528582,18.264221 13.291696,25.230495 11.500037,31.436501 z"
     style="fill:#404040;"/>
  </a>
 </g>
</svg>

<style type='text/css'>
<![CDATA[
[data-mouse-over-selected='false'] { opacity: 0.7; }
[data-mouse-over-selected='true']  { opacity: 1.0; }
]]>
</style>
<script type="application/ecmascript"><![CDATA[
document.addEventListener('DOMContentLoaded', (event) => {
  highlightEdges();
  highlightAdjacentNodes();
});
]]></script>
</svg>
