<?xml version="1.0" encoding="UTF-8" standalone="no"?>
<!DOCTYPE svg PUBLIC "-//W3C//DTD SVG 1.1//EN"
 "http://www.w3.org/Graphics/SVG/1.1/DTD/svg11.dtd">
<!-- Generated by graphviz version 13.1.2 (20250808.2320)
 -->
<!-- Title: kest_dictionary_lookup_str Pages: 1 -->
<svg width="483pt" height="184pt"
 viewBox="0.00 0.00 483.00 184.00" xmlns="http://www.w3.org/2000/svg" xmlns:xlink="http://www.w3.org/1999/xlink">

<svg id="main" version="1.1" xmlns="http://www.w3.org/2000/svg" xmlns:xlink="http://www.w3.org/1999/xlink" xml:space="preserve">

<style type="text/css"><![CDATA[
.node, .edge {opacity: 0.7;}
.node.selected, .edge.selected {opacity: 1;}
.edge:hover path { stroke: red; }
.edge:hover polygon { stroke: red; fill: red; }
]]></style>
<script type="application/ecmascript" xlink:href="svg.min.js"/>
<svg id="graph" class="graph">
<g id="graph0" class="graph" transform="scale(1 1) rotate(0) translate(4 179.5)">
<title>kest_dictionary_lookup_str</title>
<!-- Node1 -->
<g id="Node000001" class="node">
<title>Node1</title>
<g id="a_Node000001"><a xlink:title=" ">
<polygon fill="#999999" stroke="#666666" points="474.75,-94.12 328.25,-94.12 328.25,-73.38 474.75,-73.38 474.75,-94.12"/>
<text xml:space="preserve" text-anchor="middle" x="401.5" y="-80.62" font-family="Helvetica,sans-Serif" font-size="10.00">kest_dictionary_lookup_str</text>
</a>
</g>
</g>
<!-- Node2 -->
<g id="Node000002" class="node">
<title>Node2</title>
<g id="a_Node000002"><a xlink:href="kest__eff__section_8c.html#a60a11d2e81c2d76688273fea94f38361" target="_top" xlink:title=" ">
<polygon fill="white" stroke="#666666" points="287,-175.5 156.25,-175.5 156.25,-142 287,-142 287,-175.5"/>
<text xml:space="preserve" text-anchor="start" x="164.25" y="-162" font-family="Helvetica,sans-Serif" font-size="10.00">kest_dictionary_section</text>
<text xml:space="preserve" text-anchor="middle" x="221.62" y="-149.25" font-family="Helvetica,sans-Serif" font-size="10.00">_lookup_str</text>
</a>
</g>
</g>
<!-- Node1&#45;&gt;Node2 -->
<g id="edge1_Node000001_Node000002" class="edge">
<title>Node1&#45;&gt;Node2</title>
<g id="a_edge1_Node000001_Node000002"><a xlink:title=" ">
<path fill="none" stroke="#63b8ff" d="M367.74,-99.28C346.4,-109.22 317.86,-122.18 292.25,-132.75 285.09,-135.7 277.47,-138.7 269.98,-141.56"/>
<polygon fill="#63b8ff" stroke="#63b8ff" points="368.94,-102.58 376.52,-95.17 365.98,-96.24 368.94,-102.58"/>
</a>
</g>
</g>
<!-- Node3 -->
<g id="Node000003" class="node">
<title>Node3</title>
<g id="a_Node000003"><a xlink:href="kest__dict__extract_8c.html#ae4dad8e5e3965fca45e94b9d877ccb97" target="_top" xlink:title=" ">
<polygon fill="white" stroke="#666666" points="292.25,-123.5 151,-123.5 151,-90 292.25,-90 292.25,-123.5"/>
<text xml:space="preserve" text-anchor="start" x="159" y="-110" font-family="Helvetica,sans-Serif" font-size="10.00">kest_extract_bool_setting</text>
<text xml:space="preserve" text-anchor="middle" x="221.62" y="-97.25" font-family="Helvetica,sans-Serif" font-size="10.00">_from_dict</text>
</a>
</g>
</g>
<!-- Node1&#45;&gt;Node3 -->
<g id="edge2_Node000001_Node000003" class="edge">
<title>Node1&#45;&gt;Node3</title>
<g id="a_edge2_Node000001_Node000003"><a xlink:title=" ">
<path fill="none" stroke="#63b8ff" d="M316.63,-94.59C308.62,-95.63 300.56,-96.67 292.7,-97.69"/>
<polygon fill="#63b8ff" stroke="#63b8ff" points="316.93,-98.09 326.39,-93.33 316.03,-91.14 316.93,-98.09"/>
</a>
</g>
</g>
<!-- Node4 -->
<g id="Node000004" class="node">
<title>Node4</title>
<g id="a_Node000004"><a xlink:href="kest__dict__extract_8c.html#a0225c4392c944b41b1db66787be35243" target="_top" xlink:title=" ">
<polygon fill="white" stroke="#666666" points="115,-100.5 0,-100.5 0,-67 115,-67 115,-100.5"/>
<text xml:space="preserve" text-anchor="start" x="8" y="-87" font-family="Helvetica,sans-Serif" font-size="10.00">kest_extract_setting</text>
<text xml:space="preserve" text-anchor="middle" x="57.5" y="-74.25" font-family="Helvetica,sans-Serif" font-size="10.00">_from_dict</text>
</a>
</g>
</g>
<!-- Node1&#45;&gt;Node4 -->
<g id="edge5_Node000001_Node000004" class="edge">
<title>Node1&#45;&gt;Node4</title>
<g id="a_edge5_Node000001_Node000004"><a xlink:title=" ">
<path fill="none" stroke="#63b8ff" d="M316.75,-81.2C308.47,-81.02 300.2,-80.86 292.25,-80.75 229.48,-79.88 213.77,-79.73 151,-80.75 139.43,-80.94 127.06,-81.26 115.24,-81.62"/>
<polygon fill="#63b8ff" stroke="#63b8ff" points="316.42,-84.69 326.5,-81.43 316.58,-77.69 316.42,-84.69"/>
</a>
</g>
</g>
<!-- Node5 -->
<g id="Node000005" class="node">
<title>Node5</title>
<g id="a_Node000005"><a xlink:href="kest__dict__extract_8c.html#ad78dabb9f962180138c9dfc2bf1731e3" target="_top" xlink:title=" ">
<polygon fill="white" stroke="#666666" points="283.25,-33.5 160,-33.5 160,0 283.25,0 283.25,-33.5"/>
<text xml:space="preserve" text-anchor="start" x="168" y="-20" font-family="Helvetica,sans-Serif" font-size="10.00">kest_extract_resource</text>
<text xml:space="preserve" text-anchor="middle" x="221.62" y="-7.25" font-family="Helvetica,sans-Serif" font-size="10.00">_from_dict</text>
</a>
</g>
</g>
<!-- Node1&#45;&gt;Node5 -->
<g id="edge4_Node000001_Node000005" class="edge">
<title>Node1&#45;&gt;Node5</title>
<g id="a_edge4_Node000001_Node000005"><a xlink:title=" ">
<path fill="none" stroke="#63b8ff" d="M361.5,-69.06C333.98,-58.69 297.01,-44.77 268.14,-33.89"/>
<polygon fill="#63b8ff" stroke="#63b8ff" points="359.91,-72.2 370.5,-72.45 362.38,-65.65 359.91,-72.2"/>
</a>
</g>
</g>
<!-- Node3&#45;&gt;Node4 -->
<g id="edge3_Node000003_Node000004" class="edge">
<title>Node3&#45;&gt;Node4</title>
<g id="a_edge3_Node000003_Node000004"><a xlink:title=" ">
<path fill="none" stroke="#63b8ff" d="M139.76,-95.28C131.55,-94.11 123.33,-92.95 115.45,-91.83"/>
<polygon fill="#63b8ff" stroke="#63b8ff" points="139.04,-98.71 149.43,-96.65 140.02,-91.78 139.04,-98.71"/>
</a>
</g>
</g>
</g>
</svg>
</svg>

<style type='text/css'>
<![CDATA[
[data-mouse-over-selected='false'] { opacity: 0.7; }
[data-mouse-over-selected='true']  { opacity: 1.0; }
]]>
</style>
<script type="application/ecmascript"><![CDATA[
document.addEventListener('DOMContentLoaded', (event) => {
  highlightEdges();
  highlightAdjacentNodes();
});
]]></script>
</svg>
