<?xml version="1.0" encoding="UTF-8" standalone="no"?>
<!DOCTYPE svg PUBLIC "-//W3C//DTD SVG 1.1//EN"
 "http://www.w3.org/Graphics/SVG/1.1/DTD/svg11.dtd">
<!-- Generated by graphviz version 13.1.2 (20250808.2320)
 -->
<!-- Title: kest_string_destroy Pages: 1 -->
<!--zoomable 706 -->

<svg id="main" version="1.1" xmlns="http://www.w3.org/2000/svg" xmlns:xlink="http://www.w3.org/1999/xlink" xml:space="preserve" onload="init(evt)">

<style type="text/css"><![CDATA[
.node, .edge {opacity: 0.7;}
.node.selected, .edge.selected {opacity: 1;}
.edge:hover path { stroke: red; }
.edge:hover polygon { stroke: red; fill: red; }
]]></style>

<defs>
  <circle id="rim" cx="0" cy="0" r="7"/>
  <circle id="rim2" cx="0" cy="0" r="3.5"/>
  <g id="zoomPlus">
    <use xlink:href="#rim" fill="#404040"><set attributeName="fill" to="#808080" begin="zoomplus.mouseover" end="zoomplus.mouseout"/></use>
    <path d="M-4,0h8M0,-4v8" fill="none" stroke="white" stroke-width="1.5" pointer-events="none"/>
  </g>
  <g id="zoomMin">
    <use xlink:href="#rim" fill="#404040"><set attributeName="fill" to="#808080" begin="zoomminus.mouseover" end="zoomminus.mouseout"/></use>
    <path d="M-4,0h8" fill="none" stroke="white" stroke-width="1.5" pointer-events="none"/>
  </g>
  <g id="arrowUp" transform="translate(30 24)">
    <use xlink:href="#rim"/>
    <path pointer-events="none" fill="none" stroke="white" stroke-width="1.5" d="M0,-3.0v7 M-2.5,-0.5L0,-3.0L2.5,-0.5"/>
  </g>
  <g id="arrowRight" transform="rotate(90) translate(36 -43)">
    <use xlink:href="#rim"/>
    <path pointer-events="none" fill="none" stroke="white" stroke-width="1.5" d="M0,-3.0v7 M-2.5,-0.5L0,-3.0L2.5,-0.5"/>
  </g>
  <g id="arrowDown" transform="rotate(180) translate(-30 -48)">
    <use xlink:href="#rim"/>
    <path pointer-events="none" fill="none" stroke="white" stroke-width="1.5" d="M0,-3.0v7 M-2.5,-0.5L0,-3.0L2.5,-0.5"/>
  </g>
  <g id="arrowLeft" transform="rotate(270) translate(-36 17)">
    <use xlink:href="#rim"/>
    <path pointer-events="none" fill="none" stroke="white" stroke-width="1.5" d="M0,-3.0v7 M-2.5,-0.5L0,-3.0L2.5,-0.5"/>
  </g>
  <g id="resetDef">
    <use xlink:href="#rim2" fill="#404040"><set attributeName="fill" to="#808080" begin="reset.mouseover" end="reset.mouseout"/></use>
  </g>
</defs>
<script type="application/ecmascript">
var viewWidth = 1151;
var viewHeight = 706;
var sectionId = 'dynsection-8';
</script>
<script type="application/ecmascript" xlink:href="svg.min.js"/>
<svg id="graph" class="graph">
<g id="viewport">
<title>kest_string_destroy</title>
<!-- Node1 -->
<g id="Node000001" class="node">
<title>Node1</title>
<g id="a_Node000001"><a xlink:title=" ">
<polygon fill="#999999" stroke="#666666" points="1142.5,-367.12 1031.25,-367.12 1031.25,-346.38 1142.5,-346.38 1142.5,-367.12"/>
<text xml:space="preserve" text-anchor="middle" x="1086.88" y="-353.62" font-family="Helvetica,sans-Serif" font-size="10.00">kest_string_destroy</text>
</a>
</g>
</g>
<!-- Node2 -->
<g id="Node000002" class="node">
<title>Node2</title>
<g id="a_Node000002"><a xlink:href="kest__reg__format_8c.html#a29aa51e007e672b4a6d7b9a4b287754a" target="_top" xlink:title=" ">
<polygon fill="white" stroke="#666666" points="804.12,-529.5 677.12,-529.5 677.12,-496 804.12,-496 804.12,-529.5"/>
<text xml:space="preserve" text-anchor="start" x="685.12" y="-516" font-family="Helvetica,sans-Serif" font-size="10.00">kest_compute_register</text>
<text xml:space="preserve" text-anchor="middle" x="740.62" y="-503.25" font-family="Helvetica,sans-Serif" font-size="10.00">_formats</text>
</a>
</g>
</g>
<!-- Node1&#45;&gt;Node2 -->
<g id="edge1_Node000001_Node000002" class="edge">
<title>Node1&#45;&gt;Node2</title>
<g id="a_edge1_Node000001_Node000002"><a xlink:title=" ">
<path fill="none" stroke="#63b8ff" d="M1074.29,-377.25C1059.33,-401.7 1030.94,-441.89 995.25,-462.75 936.55,-497.07 858.5,-508.28 804.56,-511.71"/>
<polygon fill="#63b8ff" stroke="#63b8ff" points="1077.18,-379.23 1079.26,-368.84 1071.15,-375.67 1077.18,-379.23"/>
</a>
</g>
</g>
<!-- Node23 -->
<g id="Node000023" class="node">
<title>Node23</title>
<g id="a_Node000023"><a xlink:href="kest__dictionary_8c.html#a298bc3ea15bffee0e485de36aea099c2" target="_top" xlink:title=" ">
<polygon fill="white" stroke="#666666" points="971.62,-373.5 866.38,-373.5 866.38,-340 971.62,-340 971.62,-373.5"/>
<text xml:space="preserve" text-anchor="start" x="874.38" y="-360" font-family="Helvetica,sans-Serif" font-size="10.00">kest_dict_entry_to</text>
<text xml:space="preserve" text-anchor="middle" x="919" y="-347.25" font-family="Helvetica,sans-Serif" font-size="10.00">_string</text>
</a>
</g>
</g>
<!-- Node1&#45;&gt;Node23 -->
<g id="edge4_Node000001_Node000023" class="edge">
<title>Node1&#45;&gt;Node23</title>
<g id="a_edge4_Node000001_Node000023"><a xlink:title=" ">
<path fill="none" stroke="#63b8ff" d="M1019.71,-356.75C1003.81,-356.75 987.05,-356.75 971.9,-356.75"/>
<polygon fill="#63b8ff" stroke="#63b8ff" points="1019.59,-360.25 1029.59,-356.75 1019.59,-353.25 1019.59,-360.25"/>
</a>
</g>
</g>
<!-- Node24 -->
<g id="Node000024" class="node">
<title>Node24</title>
<g id="a_Node000024"><a xlink:href="kest__dict__extract_8c.html#ac9cee86a595df863e15b7693b86635b7" target="_top" xlink:title=" ">
<polygon fill="white" stroke="#666666" points="792.88,-477.5 688.38,-477.5 688.38,-444 792.88,-444 792.88,-477.5"/>
<text xml:space="preserve" text-anchor="start" x="696.38" y="-464" font-family="Helvetica,sans-Serif" font-size="10.00">kest_extract_filter</text>
<text xml:space="preserve" text-anchor="middle" x="740.62" y="-451.25" font-family="Helvetica,sans-Serif" font-size="10.00">_coefs_from_dict</text>
</a>
</g>
</g>
<!-- Node1&#45;&gt;Node24 -->
<g id="edge33_Node000001_Node000024" class="edge">
<title>Node1&#45;&gt;Node24</title>
<g id="a_edge33_Node000001_Node000024"><a xlink:title=" ">
<path fill="none" stroke="#63b8ff" d="M1069.73,-375.92C1053.11,-394.2 1025.44,-420.8 995.25,-433.75 929.53,-461.94 845.79,-465.31 792.92,-463.95"/>
<polygon fill="#63b8ff" stroke="#63b8ff" points="1072.19,-378.43 1076.17,-368.61 1066.93,-373.81 1072.19,-378.43"/>
</a>
</g>
</g>
<!-- Node28 -->
<g id="Node000028" class="node">
<title>Node28</title>
<g id="a_Node000028"><a xlink:href="kest__dictionary_8c.html#a8db4f9c511b00d7240052135e9c1ed67" target="_top" xlink:title=" ">
<polygon fill="white" stroke="#666666" points="796.62,-350.12 684.62,-350.12 684.62,-329.38 796.62,-329.38 796.62,-350.12"/>
<text xml:space="preserve" text-anchor="middle" x="740.62" y="-336.62" font-family="Helvetica,sans-Serif" font-size="10.00">kest_parse_dict_list</text>
</a>
</g>
</g>
<!-- Node1&#45;&gt;Node28 -->
<g id="edge49_Node000001_Node000028" class="edge">
<title>Node1&#45;&gt;Node28</title>
<g id="a_edge49_Node000001_Node000028"><a xlink:title=" ">
<path fill="none" stroke="#63b8ff" d="M1045.35,-342.51C1029.88,-337.76 1011.95,-333.1 995.25,-330.75 927.4,-321.21 848.4,-326.58 796.83,-332.27"/>
<polygon fill="#63b8ff" stroke="#63b8ff" points="1044.09,-345.78 1054.68,-345.48 1046.21,-339.11 1044.09,-345.78"/>
</a>
</g>
</g>
<!-- Node29 -->
<g id="Node000029" class="node">
<title>Node29</title>
<g id="a_Node000029"><a xlink:href="kest__dictionary_8c.html#af0aceaa93cba06fd44ad4bc50f2418e4" target="_top" xlink:title=" ">
<polygon fill="#fff0f0" stroke="red" points="616.75,-373.12 504.75,-373.12 504.75,-352.38 616.75,-352.38 616.75,-373.12"/>
<text xml:space="preserve" text-anchor="middle" x="560.75" y="-359.62" font-family="Helvetica,sans-Serif" font-size="10.00">kest_parse_dict_val</text>
</a>
</g>
</g>
<!-- Node1&#45;&gt;Node29 -->
<g id="edge50_Node000001_Node000029" class="edge">
<title>Node1&#45;&gt;Node29</title>
<g id="a_edge50_Node000001_Node000029"><a xlink:title=" ">
<path fill="none" stroke="#63b8ff" d="M1059.86,-373.31C1042.35,-383.44 1018.33,-395.44 995.25,-400.75 929.2,-415.94 910.37,-405.3 842.75,-400.75 764.04,-395.45 673.76,-381.9 617.24,-372.5"/>
<polygon fill="#63b8ff" stroke="#63b8ff" points="1061.28,-376.54 1068.06,-368.4 1057.68,-370.53 1061.28,-376.54"/>
</a>
</g>
</g>
<!-- Node32 -->
<g id="Node000032" class="node">
<title>Node32</title>
<g id="a_Node000032"><a xlink:href="kest__dictionary_8c.html#a2a60847422026db5eab8103cd8ea1dc5" target="_top" xlink:title=" ">
<polygon fill="white" stroke="#666666" points="771.5,-311.12 709.75,-311.12 709.75,-290.38 771.5,-290.38 771.5,-311.12"/>
<text xml:space="preserve" text-anchor="middle" x="740.62" y="-297.62" font-family="Helvetica,sans-Serif" font-size="10.00">print_dict</text>
</a>
</g>
</g>
<!-- Node1&#45;&gt;Node32 -->
<g id="edge56_Node000001_Node000032" class="edge">
<title>Node1&#45;&gt;Node32</title>
<g id="a_edge56_Node000001_Node000032"><a xlink:title=" ">
<path fill="none" stroke="#63b8ff" d="M1052.92,-341.4C1036.04,-334.22 1014.94,-326.27 995.25,-321.75 916.01,-303.57 819.66,-300.67 771.72,-300.48"/>
<polygon fill="#63b8ff" stroke="#63b8ff" points="1051.4,-344.56 1061.96,-345.36 1054.21,-338.14 1051.4,-344.56"/>
</a>
</g>
</g>
<!-- Node33 -->
<g id="Node000033" class="node">
<title>Node33</title>
<g id="a_Node000033"><a xlink:href="kest__dictionary_8c.html#a5ce582ea788731db26f2c3625d8da175" target="_top" xlink:title=" ">
<polygon fill="white" stroke="#666666" points="795.12,-696.5 686.12,-696.5 686.12,-663 795.12,-663 795.12,-696.5"/>
<text xml:space="preserve" text-anchor="start" x="694.12" y="-683" font-family="Helvetica,sans-Serif" font-size="10.00">kest_eff_entry_dict</text>
<text xml:space="preserve" text-anchor="middle" x="740.62" y="-670.25" font-family="Helvetica,sans-Serif" font-size="10.00">_print</text>
</a>
</g>
</g>
<!-- Node1&#45;&gt;Node33 -->
<g id="edge16_Node000001_Node000033" class="edge">
<title>Node1&#45;&gt;Node33</title>
<g id="a_edge16_Node000001_Node000033"><a xlink:title=" ">
<path fill="none" stroke="#63b8ff" d="M1082.58,-378.7C1072.57,-442.29 1040.4,-624.4 995.25,-660.75 939.19,-705.89 851.7,-701.25 795.53,-691.92"/>
<polygon fill="#63b8ff" stroke="#63b8ff" points="1086.04,-379.25 1084.1,-368.83 1079.12,-378.18 1086.04,-379.25"/>
</a>
</g>
</g>
<!-- Node35 -->
<g id="Node000035" class="node">
<title>Node35</title>
<g id="a_Node000035"><a xlink:href="kest__dictionary_8c.html#a8728d44497a76103a6efaf25ca021e9e" target="_top" xlink:title=" ">
<polygon fill="white" stroke="#666666" points="985.88,-634.12 852.12,-634.12 852.12,-613.38 985.88,-613.38 985.88,-634.12"/>
<text xml:space="preserve" text-anchor="middle" x="919" y="-620.62" font-family="Helvetica,sans-Serif" font-size="10.00">kest_eff_entry_to_string</text>
</a>
</g>
</g>
<!-- Node1&#45;&gt;Node35 -->
<g id="edge20_Node000001_Node000035" class="edge">
<title>Node1&#45;&gt;Node35</title>
<g id="a_edge20_Node000001_Node000035"><a xlink:title=" ">
<path fill="none" stroke="#63b8ff" d="M1083.99,-378.82C1078.77,-426.16 1059.89,-538.15 995.25,-599.75 989.39,-605.33 982.24,-609.61 974.7,-612.9"/>
<polygon fill="#63b8ff" stroke="#63b8ff" points="1087.46,-379.32 1084.96,-369.02 1080.49,-378.63 1087.46,-379.32"/>
</a>
</g>
</g>
<!-- Node36 -->
<g id="Node000036" class="node">
<title>Node36</title>
<g id="a_Node000036"><a xlink:href="kest__dictionary_8c.html#a14917e2fe112ccf5a9d740cd2ce4f518" target="_top" xlink:title=" ">
<polygon fill="white" stroke="#666666" points="799.62,-627.12 681.62,-627.12 681.62,-606.38 799.62,-606.38 799.62,-627.12"/>
<text xml:space="preserve" text-anchor="middle" x="740.62" y="-613.62" font-family="Helvetica,sans-Serif" font-size="10.00">kest_parse_eff_entry</text>
</a>
</g>
</g>
<!-- Node1&#45;&gt;Node36 -->
<g id="edge51_Node000001_Node000036" class="edge">
<title>Node1&#45;&gt;Node36</title>
<g id="a_edge51_Node000001_Node000036"><a xlink:title=" ">
<path fill="none" stroke="#63b8ff" d="M1083.13,-378.71C1076.5,-421.95 1055.44,-518.18 995.25,-566.75 980.17,-578.92 869.95,-597.44 799.86,-608.19"/>
<polygon fill="#63b8ff" stroke="#63b8ff" points="1086.56,-379.43 1084.49,-369.04 1079.63,-378.46 1086.56,-379.43"/>
</a>
</g>
</g>
<!-- Node39 -->
<g id="Node000039" class="node">
<title>Node39</title>
<g id="a_Node000039"><a xlink:href="kest__fixed__point_8c.html#aadbad80611ec55e1e488a3740c578c8b" target="_top" xlink:title=" ">
<polygon fill="white" stroke="#666666" points="990.38,-557.5 847.62,-557.5 847.62,-524 990.38,-524 990.38,-557.5"/>
<text xml:space="preserve" text-anchor="start" x="855.62" y="-544" font-family="Helvetica,sans-Serif" font-size="10.00">kest_expression_compute</text>
<text xml:space="preserve" text-anchor="middle" x="919" y="-531.25" font-family="Helvetica,sans-Serif" font-size="10.00">_format</text>
</a>
</g>
</g>
<!-- Node1&#45;&gt;Node39 -->
<g id="edge29_Node000001_Node000039" class="edge">
<title>Node1&#45;&gt;Node39</title>
<g id="a_edge29_Node000001_Node000039"><a xlink:title=" ">
<path fill="none" stroke="#63b8ff" d="M1078.3,-378.18C1065.79,-410.77 1037.87,-472.86 995.25,-509.75 988.95,-515.21 981.55,-519.79 973.9,-523.62"/>
<polygon fill="#63b8ff" stroke="#63b8ff" points="1081.5,-379.63 1081.69,-369.04 1074.94,-377.2 1081.5,-379.63"/>
</a>
</g>
</g>
<!-- Node41 -->
<g id="Node000041" class="node">
<title>Node41</title>
<g id="a_Node000041"><a xlink:href="kest__fpga__encoding_8c.html#a846915834c09759d6445b5dffc45b723" target="_top" xlink:title=" ">
<polygon fill="white" stroke="#666666" points="802.25,-246.12 679,-246.12 679,-225.38 802.25,-225.38 802.25,-246.12"/>
<text xml:space="preserve" text-anchor="middle" x="740.62" y="-232.62" font-family="Helvetica,sans-Serif" font-size="10.00">kest_fpga_batch_print</text>
</a>
</g>
</g>
<!-- Node1&#45;&gt;Node41 -->
<g id="edge34_Node000001_Node000041" class="edge">
<title>Node1&#45;&gt;Node41</title>
<g id="a_edge34_Node000001_Node000041"><a xlink:title=" ">
<path fill="none" stroke="#63b8ff" d="M1063.31,-339.34C1045.64,-326.47 1020.01,-309.4 995.25,-298.75 932.22,-271.62 855.13,-254.56 802.61,-245.14"/>
<polygon fill="#63b8ff" stroke="#63b8ff" points="1060.91,-341.92 1071.03,-345.09 1065.09,-336.31 1060.91,-341.92"/>
</a>
</g>
</g>
<!-- Node46 -->
<g id="Node000046" class="node">
<title>Node46</title>
<g id="a_Node000046"><a xlink:href="kest__fpga__comms_8c.html#a0e24c965de231bcab602b5b43acb805d" target="_top" xlink:title=" ">
<polygon fill="white" stroke="#666666" points="985.12,-155.5 852.88,-155.5 852.88,-122 985.12,-122 985.12,-155.5"/>
<text xml:space="preserve" text-anchor="start" x="860.88" y="-142" font-family="Helvetica,sans-Serif" font-size="10.00">kest_fpga_comms_print</text>
<text xml:space="preserve" text-anchor="middle" x="919" y="-129.25" font-family="Helvetica,sans-Serif" font-size="10.00">_full_scan</text>
</a>
</g>
</g>
<!-- Node1&#45;&gt;Node46 -->
<g id="edge41_Node000001_Node000046" class="edge">
<title>Node1&#45;&gt;Node46</title>
<g id="a_edge41_Node000001_Node000046"><a xlink:title=" ">
<path fill="none" stroke="#63b8ff" d="M1081.49,-335.18C1072.38,-295.76 1047.74,-211.84 995.25,-164.75 991.55,-161.43 987.4,-158.52 983,-155.99"/>
<polygon fill="#63b8ff" stroke="#63b8ff" points="1078.05,-335.8 1083.6,-344.83 1084.89,-334.31 1078.05,-335.8"/>
</a>
</g>
</g>
<!-- Node47 -->
<g id="Node000047" class="node">
<title>Node47</title>
<g id="a_Node000047"><a xlink:href="kest__fpga__io_8c.html#a38a89d268857557d083c5e4696d54669" target="_top" xlink:title=" ">
<polygon fill="white" stroke="#666666" points="990,-103.5 848,-103.5 848,-70 990,-70 990,-103.5"/>
<text xml:space="preserve" text-anchor="start" x="856" y="-90" font-family="Helvetica,sans-Serif" font-size="10.00">kest_fpga_program_batch</text>
<text xml:space="preserve" text-anchor="middle" x="919" y="-77.25" font-family="Helvetica,sans-Serif" font-size="10.00">_send_careful</text>
</a>
</g>
</g>
<!-- Node1&#45;&gt;Node47 -->
<g id="edge43_Node000001_Node000047" class="edge">
<title>Node1&#45;&gt;Node47</title>
<g id="a_edge43_Node000001_Node000047"><a xlink:title=" ">
<path fill="none" stroke="#63b8ff" d="M1083.91,-334.71C1078.52,-287.41 1059.34,-175.39 995.25,-112.75 991.79,-109.37 987.87,-106.43 983.68,-103.87"/>
<polygon fill="#63b8ff" stroke="#63b8ff" points="1080.41,-334.9 1084.91,-344.49 1087.37,-334.19 1080.41,-334.9"/>
</a>
</g>
</g>
<!-- Node48 -->
<g id="Node000048" class="node">
<title>Node48</title>
<g id="a_Node000048"><a xlink:href="kest__fpga__io_8c.html#a705da035774b1be5ed1365126486649f" target="_top" xlink:title=" ">
<polygon fill="white" stroke="#666666" points="976.88,-207.5 861.12,-207.5 861.12,-174 976.88,-174 976.88,-207.5"/>
<text xml:space="preserve" text-anchor="start" x="869.12" y="-194" font-family="Helvetica,sans-Serif" font-size="10.00">kest_fpga_transfer</text>
<text xml:space="preserve" text-anchor="middle" x="919" y="-181.25" font-family="Helvetica,sans-Serif" font-size="10.00">_batch_send_careful</text>
</a>
</g>
</g>
<!-- Node1&#45;&gt;Node48 -->
<g id="edge44_Node000001_Node000048" class="edge">
<title>Node1&#45;&gt;Node48</title>
<g id="a_edge44_Node000001_Node000048"><a xlink:title=" ">
<path fill="none" stroke="#63b8ff" d="M1076.67,-335.81C1062.88,-306.59 1034.23,-253.61 995.25,-221.75 988.58,-216.3 980.81,-211.68 972.85,-207.81"/>
<polygon fill="#63b8ff" stroke="#63b8ff" points="1073.4,-337.07 1080.74,-344.7 1079.77,-334.15 1073.4,-337.07"/>
</a>
</g>
</g>
<!-- Node50 -->
<g id="Node000050" class="node">
<title>Node50</title>
<g id="a_Node000050"><a xlink:href="kest__expr__scope_8c.html#ac44f26a1dd7c685a7a3d5423a6c1ff54" target="_top" xlink:title=" ">
<polygon fill="white" stroke="#666666" points="995.25,-33.5 842.75,-33.5 842.75,0 995.25,0 995.25,-33.5"/>
<text xml:space="preserve" text-anchor="start" x="850.75" y="-20" font-family="Helvetica,sans-Serif" font-size="10.00">kest_scope_transitivize</text>
<text xml:space="preserve" text-anchor="middle" x="919" y="-7.25" font-family="Helvetica,sans-Serif" font-size="10.00">_updatable_dependents_rec</text>
</a>
</g>
</g>
<!-- Node1&#45;&gt;Node50 -->
<g id="edge52_Node000001_Node000050" class="edge">
<title>Node1&#45;&gt;Node50</title>
<g id="a_edge52_Node000001_Node000050"><a xlink:title=" ">
<path fill="none" stroke="#63b8ff" d="M1084.52,-334.77C1080.23,-282.01 1062.87,-146.21 995.25,-60.75 986.42,-49.59 973.93,-40.7 961.66,-33.91"/>
<polygon fill="#63b8ff" stroke="#63b8ff" points="1081.02,-334.82 1085.23,-344.55 1088,-334.32 1081.02,-334.82"/>
</a>
</g>
</g>
<!-- Node3 -->
<g id="Node000003" class="node">
<title>Node3</title>
<g id="a_Node000003"><a xlink:href="kest__eff__parser_8c.html#a745050bced3ccd568a1223c9f6a416e0" target="_top" xlink:title=" ">
<polygon fill="white" stroke="#666666" points="620.88,-581.5 500.62,-581.5 500.62,-548 620.88,-548 620.88,-581.5"/>
<text xml:space="preserve" text-anchor="start" x="508.62" y="-568" font-family="Helvetica,sans-Serif" font-size="10.00">kest_parser_compute</text>
<text xml:space="preserve" text-anchor="middle" x="560.75" y="-555.25" font-family="Helvetica,sans-Serif" font-size="10.00">_formats</text>
</a>
</g>
</g>
<!-- Node2&#45;&gt;Node3 -->
<g id="edge2_Node000002_Node000003" class="edge">
<title>Node2&#45;&gt;Node3</title>
<g id="a_edge2_Node000002_Node000003"><a xlink:title=" ">
<path fill="none" stroke="#63b8ff" d="M670.29,-533.02C653.91,-537.81 636.6,-542.87 620.73,-547.51"/>
<polygon fill="#63b8ff" stroke="#63b8ff" points="670.82,-536.51 679.44,-530.35 668.86,-529.79 670.82,-536.51"/>
</a>
</g>
</g>
<!-- Node4 -->
<g id="Node000004" class="node">
<title>Node4</title>
<g id="a_Node000004"><a xlink:href="kest__eff__parser_8c.html#ae4618958c44389928c260fdb0e170761" target="_top" xlink:title=" ">
<polygon fill="#fff0f0" stroke="red" points="109.75,-644.5 0,-644.5 0,-611 109.75,-611 109.75,-644.5"/>
<text xml:space="preserve" text-anchor="start" x="8" y="-631" font-family="Helvetica,sans-Serif" font-size="10.00">kest_read_eff_desc</text>
<text xml:space="preserve" text-anchor="middle" x="54.88" y="-618.25" font-family="Helvetica,sans-Serif" font-size="10.00">_from_file</text>
</a>
</g>
</g>
<!-- Node3&#45;&gt;Node4 -->
<g id="edge3_Node000003_Node000004" class="edge">
<title>Node3&#45;&gt;Node4</title>
<g id="a_edge3_Node000003_Node000004"><a xlink:title=" ">
<path fill="none" stroke="#63b8ff" d="M489.08,-573.59C387.29,-586.31 201.58,-609.53 109.95,-620.99"/>
<polygon fill="#63b8ff" stroke="#63b8ff" points="489.48,-577.06 498.97,-572.35 488.61,-570.12 489.48,-577.06"/>
</a>
</g>
</g>
<!-- Node23&#45;&gt;Node23 -->
<g id="edge5_Node000023_Node000023" class="edge">
<title>Node23&#45;&gt;Node23</title>
<g id="a_edge5_Node000023_Node000023"><a xlink:title=" ">
<path fill="none" stroke="#63b8ff" d="M947.19,-384.89C942.6,-388.85 933.2,-391.5 919,-391.5 893.75,-391.5 883.69,-383.12 888.82,-373.91"/>
<polygon fill="#63b8ff" stroke="#63b8ff" points="950.57,-385.87 948.91,-375.4 943.68,-384.62 950.57,-385.87"/>
</a>
</g>
</g>
<!-- Node23&#45;&gt;Node24 -->
<g id="edge6_Node000023_Node000024" class="edge">
<title>Node23&#45;&gt;Node24</title>
<g id="a_edge6_Node000023_Node000024"><a xlink:title=" ">
<path fill="none" stroke="#63b8ff" d="M879.19,-379.63C846.49,-398.92 800.42,-426.08 770.79,-443.55"/>
<polygon fill="#63b8ff" stroke="#63b8ff" points="880.74,-382.79 887.57,-374.69 877.18,-376.76 880.74,-382.79"/>
</a>
</g>
</g>
<!-- Node23&#45;&gt;Node28 -->
<g id="edge10_Node000023_Node000028" class="edge">
<title>Node23&#45;&gt;Node28</title>
<g id="a_edge10_Node000023_Node000028"><a xlink:title=" ">
<path fill="none" stroke="#63b8ff" d="M854.81,-350.66C835.88,-348.83 815.28,-346.85 796.9,-345.08"/>
<polygon fill="#63b8ff" stroke="#63b8ff" points="854.24,-354.12 864.53,-351.6 854.91,-347.15 854.24,-354.12"/>
</a>
</g>
</g>
<!-- Node23&#45;&gt;Node29 -->
<g id="edge13_Node000023_Node000029" class="edge">
<title>Node23&#45;&gt;Node29</title>
<g id="a_edge13_Node000023_Node000029"><a xlink:title=" ">
<path fill="none" stroke="#63b8ff" d="M854.74,-357.91C839.06,-358.19 822.29,-358.48 806.75,-358.75 741.67,-359.87 666.87,-361.08 617.21,-361.87"/>
<polygon fill="#63b8ff" stroke="#63b8ff" points="854.48,-361.41 864.42,-357.73 854.36,-354.41 854.48,-361.41"/>
</a>
</g>
</g>
<!-- Node23&#45;&gt;Node32 -->
<g id="edge14_Node000023_Node000032" class="edge">
<title>Node23&#45;&gt;Node32</title>
<g id="a_edge14_Node000023_Node000032"><a xlink:title=" ">
<path fill="none" stroke="#63b8ff" d="M855.25,-336.26C839.43,-331.15 822.48,-325.71 806.75,-320.75 795.36,-317.16 782.82,-313.29 771.81,-309.92"/>
<polygon fill="#63b8ff" stroke="#63b8ff" points="853.95,-339.52 864.54,-339.27 856.11,-332.86 853.95,-339.52"/>
</a>
</g>
</g>
<!-- Node25 -->
<g id="Node000025" class="node">
<title>Node25</title>
<g id="a_Node000025"><a xlink:href="kest__dict__extract_8c.html#ab7acbd0287c39e5bbb08575fa2a61291" target="_top" xlink:title=" ">
<polygon fill="#fff0f0" stroke="red" points="617.88,-529.5 503.62,-529.5 503.62,-496 617.88,-496 617.88,-529.5"/>
<text xml:space="preserve" text-anchor="start" x="511.62" y="-516" font-family="Helvetica,sans-Serif" font-size="10.00">kest_extract_biquad</text>
<text xml:space="preserve" text-anchor="middle" x="560.75" y="-503.25" font-family="Helvetica,sans-Serif" font-size="10.00">_from_dict</text>
</a>
</g>
</g>
<!-- Node24&#45;&gt;Node25 -->
<g id="edge7_Node000024_Node000025" class="edge">
<title>Node24&#45;&gt;Node25</title>
<g id="a_edge7_Node000024_Node000025"><a xlink:title=" ">
<path fill="none" stroke="#63b8ff" d="M677.37,-478.95C658.07,-484.59 636.93,-490.77 618.07,-496.29"/>
<polygon fill="#63b8ff" stroke="#63b8ff" points="678.11,-482.38 686.72,-476.22 676.14,-475.66 678.11,-482.38"/>
</a>
</g>
</g>
<!-- Node26 -->
<g id="Node000026" class="node">
<title>Node26</title>
<g id="a_Node000026"><a xlink:href="kest__dict__extract_8c.html#a449de50461a34d20bba301a90a39ec05" target="_top" xlink:title=" ">
<polygon fill="#fff0f0" stroke="red" points="613,-477.5 508.5,-477.5 508.5,-444 613,-444 613,-477.5"/>
<text xml:space="preserve" text-anchor="start" x="516.5" y="-464" font-family="Helvetica,sans-Serif" font-size="10.00">kest_extract_filter</text>
<text xml:space="preserve" text-anchor="middle" x="560.75" y="-451.25" font-family="Helvetica,sans-Serif" font-size="10.00">_from_dict</text>
</a>
</g>
</g>
<!-- Node24&#45;&gt;Node26 -->
<g id="edge8_Node000024_Node000026" class="edge">
<title>Node24&#45;&gt;Node26</title>
<g id="a_edge8_Node000024_Node000026"><a xlink:title=" ">
<path fill="none" stroke="#63b8ff" d="M676.88,-460.75C656.11,-460.75 633.24,-460.75 613.39,-460.75"/>
<polygon fill="#63b8ff" stroke="#63b8ff" points="676.66,-464.25 686.66,-460.75 676.66,-457.25 676.66,-464.25"/>
</a>
</g>
</g>
<!-- Node27 -->
<g id="Node000027" class="node">
<title>Node27</title>
<g id="a_Node000027"><a xlink:href="kest__dict__extract_8c.html#a5cdad622cac403efa9954b47c588ce90" target="_top" xlink:title=" ">
<polygon fill="#fff0f0" stroke="red" points="628.75,-425.5 492.75,-425.5 492.75,-392 628.75,-392 628.75,-425.5"/>
<text xml:space="preserve" text-anchor="start" x="500.75" y="-412" font-family="Helvetica,sans-Serif" font-size="10.00">kest_extract_polynomial</text>
<text xml:space="preserve" text-anchor="middle" x="560.75" y="-399.25" font-family="Helvetica,sans-Serif" font-size="10.00">_from_dict</text>
</a>
</g>
</g>
<!-- Node24&#45;&gt;Node27 -->
<g id="edge9_Node000024_Node000027" class="edge">
<title>Node24&#45;&gt;Node27</title>
<g id="a_edge9_Node000024_Node000027"><a xlink:title=" ">
<path fill="none" stroke="#63b8ff" d="M677.26,-442.52C658.86,-437.14 638.78,-431.27 620.6,-425.95"/>
<polygon fill="#63b8ff" stroke="#63b8ff" points="676.14,-445.84 686.72,-445.28 678.11,-439.12 676.14,-445.84"/>
</a>
</g>
</g>
<!-- Node28&#45;&gt;Node29 -->
<g id="edge11_Node000028_Node000029" class="edge">
<title>Node28&#45;&gt;Node29</title>
<g id="a_edge11_Node000028_Node000029"><a xlink:title=" ">
<path fill="none" stroke="#63b8ff" d="M673.08,-341.8C648.99,-344.49 622.55,-348.18 601.49,-351.88"/>
<polygon fill="#63b8ff" stroke="#63b8ff" points="673.24,-345.3 682.81,-340.76 672.5,-338.34 673.24,-345.3"/>
</a>
</g>
</g>
<!-- Node29&#45;&gt;Node28 -->
<g id="edge12_Node000029_Node000028" class="edge">
<title>Node29&#45;&gt;Node28</title>
<g id="a_edge12_Node000029_Node000028"><a xlink:title=" ">
<path fill="none" stroke="#63b8ff" d="M628.26,-360.71C652.46,-358 679.03,-354.29 700.15,-350.57"/>
<polygon fill="#63b8ff" stroke="#63b8ff" points="628.05,-357.21 618.47,-361.75 628.79,-364.17 628.05,-357.21"/>
</a>
</g>
</g>
<!-- Node31 -->
<g id="Node000031" class="node">
<title>Node31</title>
<g id="a_Node000031"><a xlink:href="kest__eff__section_8c.html#a4de28fb64398c9194136a2ced71e2795" target="_top" xlink:title=" ">
<polygon fill="white" stroke="#666666" points="622,-331.5 499.5,-331.5 499.5,-298 622,-298 622,-331.5"/>
<text xml:space="preserve" text-anchor="start" x="507.5" y="-318" font-family="Helvetica,sans-Serif" font-size="10.00">kest_parse_dictionary</text>
<text xml:space="preserve" text-anchor="middle" x="560.75" y="-305.25" font-family="Helvetica,sans-Serif" font-size="10.00">_section</text>
</a>
</g>
</g>
<!-- Node32&#45;&gt;Node31 -->
<g id="edge15_Node000032_Node000031" class="edge">
<title>Node32&#45;&gt;Node31</title>
<g id="a_edge15_Node000032_Node000031"><a xlink:title=" ">
<path fill="none" stroke="#63b8ff" d="M698.23,-304.01C675.69,-305.78 647.37,-308.01 622.37,-309.98"/>
<polygon fill="#63b8ff" stroke="#63b8ff" points="698.25,-307.52 707.94,-303.24 697.7,-300.54 698.25,-307.52"/>
</a>
</g>
</g>
<!-- Node34 -->
<g id="Node000034" class="node">
<title>Node34</title>
<g id="a_Node000034"><a xlink:href="kest__eff__section_8c.html#ad4021e5516f9b19f0af658e1c5ee351f" target="_top" xlink:title=" ">
<polygon fill="white" stroke="#666666" points="447,-659.12 307.25,-659.12 307.25,-638.38 447,-638.38 447,-659.12"/>
<text xml:space="preserve" text-anchor="middle" x="377.12" y="-645.62" font-family="Helvetica,sans-Serif" font-size="10.00">kest_parse_entry_section</text>
</a>
</g>
</g>
<!-- Node33&#45;&gt;Node34 -->
<g id="edge17_Node000033_Node000034" class="edge">
<title>Node33&#45;&gt;Node34</title>
<g id="a_edge17_Node000033_Node000034"><a xlink:title=" ">
<path fill="none" stroke="#63b8ff" d="M674.49,-679.08C622.51,-677.98 547.89,-675.11 483,-667.75 465.72,-665.79 446.99,-662.71 430.2,-659.59"/>
<polygon fill="#63b8ff" stroke="#63b8ff" points="674.31,-682.58 684.37,-679.28 674.44,-675.58 674.31,-682.58"/>
</a>
</g>
</g>
<!-- Node17 -->
<g id="Node000017" class="node">
<title>Node17</title>
<g id="a_Node000017"><a xlink:href="kest__eff__parser_8c.html#a73ef6962d1925857ec3e4b12d1aad834" target="_top" xlink:title=" ">
<polygon fill="white" stroke="#666666" points="261.5,-649.12 155.5,-649.12 155.5,-628.38 261.5,-628.38 261.5,-649.12"/>
<text xml:space="preserve" text-anchor="middle" x="208.5" y="-635.62" font-family="Helvetica,sans-Serif" font-size="10.00">kest_parse_tokens</text>
</a>
</g>
</g>
<!-- Node34&#45;&gt;Node17 -->
<g id="edge18_Node000034_Node000017" class="edge">
<title>Node34&#45;&gt;Node17</title>
<g id="a_edge18_Node000034_Node000017"><a xlink:title=" ">
<path fill="none" stroke="#63b8ff" d="M295.56,-643.91C284.15,-643.23 272.67,-642.54 261.99,-641.9"/>
<polygon fill="#63b8ff" stroke="#63b8ff" points="295.21,-647.4 305.4,-644.51 295.63,-640.41 295.21,-647.4"/>
</a>
</g>
</g>
<!-- Node17&#45;&gt;Node4 -->
<g id="edge19_Node000017_Node000004" class="edge">
<title>Node17&#45;&gt;Node4</title>
<g id="a_edge19_Node000017_Node000004"><a xlink:title=" ">
<path fill="none" stroke="#63b8ff" d="M143.84,-634.13C132.66,-633.32 121.12,-632.48 110.22,-631.69"/>
<polygon fill="#63b8ff" stroke="#63b8ff" points="143.58,-637.62 153.81,-634.85 144.09,-630.64 143.58,-637.62"/>
</a>
</g>
</g>
<!-- Node35&#45;&gt;Node33 -->
<g id="edge21_Node000035_Node000033" class="edge">
<title>Node35&#45;&gt;Node33</title>
<g id="a_edge21_Node000035_Node000033"><a xlink:title=" ">
<path fill="none" stroke="#63b8ff" d="M873.19,-637.98C849.49,-645.5 820.22,-654.8 795.31,-662.71"/>
<polygon fill="#63b8ff" stroke="#63b8ff" points="874.08,-641.37 882.55,-635.01 871.96,-634.7 874.08,-641.37"/>
</a>
</g>
</g>
<!-- Node35&#45;&gt;Node35 -->
<g id="edge22_Node000035_Node000035" class="edge">
<title>Node35&#45;&gt;Node35</title>
<g id="a_edge22_Node000035_Node000035"><a xlink:title=" ">
<path fill="none" stroke="#63b8ff" d="M948.54,-645.61C944.63,-649.45 934.78,-652.12 919,-652.12 890.15,-652.12 881.13,-643.18 891.95,-634.52"/>
<polygon fill="#63b8ff" stroke="#63b8ff" points="951.99,-644.99 946.38,-636 945.16,-646.52 951.99,-644.99"/>
</a>
</g>
</g>
<!-- Node35&#45;&gt;Node36 -->
<g id="edge23_Node000035_Node000036" class="edge">
<title>Node35&#45;&gt;Node36</title>
<g id="a_edge23_Node000035_Node000036"><a xlink:title=" ">
<path fill="none" stroke="#63b8ff" d="M840.52,-620.68C826.94,-620.14 813.01,-619.58 800.05,-619.07"/>
<polygon fill="#63b8ff" stroke="#63b8ff" points="840.18,-624.16 850.31,-621.06 840.46,-617.17 840.18,-624.16"/>
</a>
</g>
</g>
<!-- Node37 -->
<g id="Node000037" class="node">
<title>Node37</title>
<g id="a_Node000037"><a xlink:href="kest__dictionary_8c.html#ad65da740536ab47c17ff688051be0661" target="_top" xlink:title=" ">
<polygon fill="white" stroke="#666666" points="623.88,-659.12 497.62,-659.12 497.62,-638.38 623.88,-638.38 623.88,-659.12"/>
<text xml:space="preserve" text-anchor="middle" x="560.75" y="-645.62" font-family="Helvetica,sans-Serif" font-size="10.00">kest_parse_eff_entries</text>
</a>
</g>
</g>
<!-- Node36&#45;&gt;Node37 -->
<g id="edge24_Node000036_Node000037" class="edge">
<title>Node36&#45;&gt;Node37</title>
<g id="a_edge24_Node000036_Node000037"><a xlink:title=" ">
<path fill="none" stroke="#63b8ff" d="M670.08,-622.66C643.27,-627.07 614,-632.79 592.64,-637.93"/>
<polygon fill="#63b8ff" stroke="#63b8ff" points="670.57,-626.12 679.89,-621.09 669.46,-619.21 670.57,-626.12"/>
</a>
</g>
</g>
<!-- Node38 -->
<g id="Node000038" class="node">
<title>Node38</title>
<g id="a_Node000038"><a xlink:href="kest__dictionary_8c.html#adbdc0847f0c5b25d81691833ad42a8f0" target="_top" xlink:title=" ">
<polygon fill="white" stroke="#666666" points="614.5,-620.12 507,-620.12 507,-599.38 614.5,-599.38 614.5,-620.12"/>
<text xml:space="preserve" text-anchor="middle" x="560.75" y="-606.62" font-family="Helvetica,sans-Serif" font-size="10.00">kest_parse_eff_list</text>
</a>
</g>
</g>
<!-- Node36&#45;&gt;Node38 -->
<g id="edge27_Node000036_Node000038" class="edge">
<title>Node36&#45;&gt;Node38</title>
<g id="a_edge27_Node000036_Node000038"><a xlink:title=" ">
<path fill="none" stroke="#63b8ff" d="M670.1,-607.41C651.68,-606.4 632.09,-605.76 614.71,-605.6"/>
<polygon fill="#63b8ff" stroke="#63b8ff" points="669.68,-610.89 679.87,-607.99 670.1,-603.9 669.68,-610.89"/>
</a>
</g>
</g>
<!-- Node37&#45;&gt;Node34 -->
<g id="edge26_Node000037_Node000034" class="edge">
<title>Node37&#45;&gt;Node34</title>
<g id="a_edge26_Node000037_Node000034"><a xlink:title=" ">
<path fill="none" stroke="#63b8ff" d="M486.12,-648.75C473.29,-648.75 459.98,-648.75 447.28,-648.75"/>
<polygon fill="#63b8ff" stroke="#63b8ff" points="485.73,-652.25 495.73,-648.75 485.73,-645.25 485.73,-652.25"/>
</a>
</g>
</g>
<!-- Node37&#45;&gt;Node36 -->
<g id="edge25_Node000037_Node000036" class="edge">
<title>Node37&#45;&gt;Node36</title>
<g id="a_edge25_Node000037_Node000036"><a xlink:title=" ">
<path fill="none" stroke="#63b8ff" d="M635.28,-642.18C660.94,-637.87 688.35,-632.47 708.64,-627.59"/>
<polygon fill="#63b8ff" stroke="#63b8ff" points="634.84,-638.71 625.53,-643.77 635.97,-645.61 634.84,-638.71"/>
</a>
</g>
</g>
<!-- Node38&#45;&gt;Node36 -->
<g id="edge28_Node000038_Node000036" class="edge">
<title>Node38&#45;&gt;Node36</title>
<g id="a_edge28_Node000038_Node000036"><a xlink:title=" ">
<path fill="none" stroke="#63b8ff" d="M626.05,-618.79C644.12,-619.86 663.68,-620.58 681.38,-620.84"/>
<polygon fill="#63b8ff" stroke="#63b8ff" points="626.43,-615.31 616.22,-618.16 625.98,-622.3 626.43,-615.31"/>
</a>
</g>
</g>
<!-- Node39&#45;&gt;Node2 -->
<g id="edge30_Node000039_Node000002" class="edge">
<title>Node39&#45;&gt;Node2</title>
<g id="a_edge30_Node000039_Node000002"><a xlink:title=" ">
<path fill="none" stroke="#63b8ff" d="M836.21,-527.77C825.52,-526.07 814.7,-524.35 804.39,-522.71"/>
<polygon fill="#63b8ff" stroke="#63b8ff" points="835.36,-531.17 845.78,-529.29 836.46,-524.26 835.36,-531.17"/>
</a>
</g>
</g>
<!-- Node40 -->
<g id="Node000040" class="node">
<title>Node40</title>
<g id="a_Node000040"><a xlink:href="kest__fixed__point_8c.html#a152783a4a8b5bc4b35e20d1c53acdae4" target="_top" xlink:title=" ">
<polygon fill="white" stroke="#666666" points="797,-581.5 684.25,-581.5 684.25,-548 797,-548 797,-581.5"/>
<text xml:space="preserve" text-anchor="start" x="692.25" y="-568" font-family="Helvetica,sans-Serif" font-size="10.00">kest_filter_compute</text>
<text xml:space="preserve" text-anchor="middle" x="740.62" y="-555.25" font-family="Helvetica,sans-Serif" font-size="10.00">_format</text>
</a>
</g>
</g>
<!-- Node39&#45;&gt;Node40 -->
<g id="edge31_Node000039_Node000040" class="edge">
<title>Node39&#45;&gt;Node40</title>
<g id="a_edge31_Node000039_Node000040"><a xlink:title=" ">
<path fill="none" stroke="#63b8ff" d="M835.91,-551.92C822.88,-553.69 809.68,-555.49 797.44,-557.16"/>
<polygon fill="#63b8ff" stroke="#63b8ff" points="836.34,-555.39 845.78,-550.58 835.4,-548.46 836.34,-555.39"/>
</a>
</g>
</g>
<!-- Node40&#45;&gt;Node3 -->
<g id="edge32_Node000040_Node000003" class="edge">
<title>Node40&#45;&gt;Node3</title>
<g id="a_edge32_Node000040_Node000003"><a xlink:title=" ">
<path fill="none" stroke="#63b8ff" d="M672.42,-564.75C655.63,-564.75 637.74,-564.75 621.35,-564.75"/>
<polygon fill="#63b8ff" stroke="#63b8ff" points="672.32,-568.25 682.32,-564.75 672.32,-561.25 672.32,-568.25"/>
</a>
</g>
</g>
<!-- Node42 -->
<g id="Node000042" class="node">
<title>Node42</title>
<g id="a_Node000042"><a xlink:href="kest__fpga__comms_8c.html#a8f850777494bb4c4d61df3efbf31ca7c" target="_top" xlink:title=" ">
<polygon fill="white" stroke="#666666" points="442.5,-203.12 311.75,-203.12 311.75,-182.38 442.5,-182.38 442.5,-203.12"/>
<text xml:space="preserve" text-anchor="middle" x="377.12" y="-189.62" font-family="Helvetica,sans-Serif" font-size="10.00">kest_fpga_comms_task</text>
</a>
</g>
</g>
<!-- Node41&#45;&gt;Node42 -->
<g id="edge35_Node000041_Node000042" class="edge">
<title>Node41&#45;&gt;Node42</title>
<g id="a_edge35_Node000041_Node000042"><a xlink:title=" ">
<path fill="none" stroke="#63b8ff" d="M683.65,-248.78C631.01,-258.77 550.43,-268.15 483,-250.75 447.54,-241.6 411.27,-217.62 392.06,-203.52"/>
<polygon fill="#63b8ff" stroke="#63b8ff" points="684.16,-252.25 693.29,-246.88 682.8,-245.38 684.16,-252.25"/>
</a>
</g>
</g>
<!-- Node44 -->
<g id="Node000044" class="node">
<title>Node44</title>
<g id="a_Node000044"><a xlink:href="kest__fpga__io_8c.html#a0e6e4e058cfd8f3ec79208acb0f71aa6" target="_top" xlink:title=" ">
<polygon fill="white" stroke="#666666" points="630.62,-203.12 490.88,-203.12 490.88,-182.38 630.62,-182.38 630.62,-203.12"/>
<text xml:space="preserve" text-anchor="middle" x="560.75" y="-189.62" font-family="Helvetica,sans-Serif" font-size="10.00">kest_fpga_set_input_gain</text>
</a>
</g>
</g>
<!-- Node41&#45;&gt;Node44 -->
<g id="edge37_Node000041_Node000044" class="edge">
<title>Node41&#45;&gt;Node44</title>
<g id="a_edge37_Node000041_Node000044"><a xlink:title=" ">
<path fill="none" stroke="#63b8ff" d="M683.65,-222.22C658.82,-216.22 630,-209.25 606.62,-203.6"/>
<polygon fill="#63b8ff" stroke="#63b8ff" points="682.73,-225.6 693.27,-224.54 684.37,-218.79 682.73,-225.6"/>
</a>
</g>
</g>
<!-- Node45 -->
<g id="Node000045" class="node">
<title>Node45</title>
<g id="a_Node000045"><a xlink:href="kest__fpga__io_8c.html#a6569f6bf656d72080dd355179ac2c4e9" target="_top" xlink:title=" ">
<polygon fill="white" stroke="#666666" points="634,-242.12 487.5,-242.12 487.5,-221.38 634,-221.38 634,-242.12"/>
<text xml:space="preserve" text-anchor="middle" x="560.75" y="-228.62" font-family="Helvetica,sans-Serif" font-size="10.00">kest_fpga_set_output_gain</text>
</a>
</g>
</g>
<!-- Node41&#45;&gt;Node45 -->
<g id="edge39_Node000041_Node000045" class="edge">
<title>Node41&#45;&gt;Node45</title>
<g id="a_edge39_Node000041_Node000045"><a xlink:title=" ">
<path fill="none" stroke="#63b8ff" d="M667.67,-234.13C656.73,-233.89 645.44,-233.63 634.48,-233.39"/>
<polygon fill="#63b8ff" stroke="#63b8ff" points="667.32,-237.62 677.39,-234.35 667.48,-230.63 667.32,-237.62"/>
</a>
</g>
</g>
<!-- Node43 -->
<g id="Node000043" class="node">
<title>Node43</title>
<g id="a_Node000043"><a xlink:href="kest__fpga__comms_8c.html#a3e7c6b831b7f97dfc640df13557640be" target="_top" xlink:title=" ">
<polygon fill="#fff0f0" stroke="red" points="271.25,-203.12 145.75,-203.12 145.75,-182.38 271.25,-182.38 271.25,-203.12"/>
<text xml:space="preserve" text-anchor="middle" x="208.5" y="-189.62" font-family="Helvetica,sans-Serif" font-size="10.00">kest_init_fpga_comms</text>
</a>
</g>
</g>
<!-- Node42&#45;&gt;Node43 -->
<g id="edge36_Node000042_Node000043" class="edge">
<title>Node42&#45;&gt;Node43</title>
<g id="a_edge36_Node000042_Node000043"><a xlink:title=" ">
<path fill="none" stroke="#63b8ff" d="M300.45,-192.75C290.78,-192.75 280.98,-192.75 271.56,-192.75"/>
<polygon fill="#63b8ff" stroke="#63b8ff" points="300.19,-196.25 310.19,-192.75 300.19,-189.25 300.19,-196.25"/>
</a>
</g>
</g>
<!-- Node44&#45;&gt;Node42 -->
<g id="edge38_Node000044_Node000042" class="edge">
<title>Node44&#45;&gt;Node42</title>
<g id="a_edge38_Node000044_Node000042"><a xlink:title=" ">
<path fill="none" stroke="#63b8ff" d="M479.07,-192.75C466.98,-192.75 454.64,-192.75 442.93,-192.75"/>
<polygon fill="#63b8ff" stroke="#63b8ff" points="479.05,-196.25 489.05,-192.75 479.05,-189.25 479.05,-196.25"/>
</a>
</g>
</g>
<!-- Node45&#45;&gt;Node42 -->
<g id="edge40_Node000045_Node000042" class="edge">
<title>Node45&#45;&gt;Node42</title>
<g id="a_edge40_Node000045_Node000042"><a xlink:title=" ">
<path fill="none" stroke="#63b8ff" d="M497.99,-218.49C475.44,-213.65 450.23,-208.23 428.76,-203.62"/>
<polygon fill="#63b8ff" stroke="#63b8ff" points="497.17,-221.89 507.68,-220.57 498.64,-215.05 497.17,-221.89"/>
</a>
</g>
</g>
<!-- Node46&#45;&gt;Node42 -->
<g id="edge42_Node000046_Node000042" class="edge">
<title>Node46&#45;&gt;Node42</title>
<g id="a_edge42_Node000046_Node000042"><a xlink:title=" ">
<path fill="none" stroke="#63b8ff" d="M841.34,-139.12C754.06,-140.56 607.45,-146.05 483,-165.75 459.42,-169.48 433.42,-176.16 413.21,-181.94"/>
<polygon fill="#63b8ff" stroke="#63b8ff" points="841.26,-142.62 851.21,-138.97 841.16,-135.62 841.26,-142.62"/>
</a>
</g>
</g>
<!-- Node49 -->
<g id="Node000049" class="node">
<title>Node49</title>
<g id="a_Node000049"><a xlink:href="kest__fpga__io_8c.html#ae911bef59743e59043a283dac1be0761" target="_top" xlink:title=" ">
<polygon fill="white" stroke="#666666" points="794,-207.5 687.25,-207.5 687.25,-174 794,-174 794,-207.5"/>
<text xml:space="preserve" text-anchor="start" x="695.25" y="-194" font-family="Helvetica,sans-Serif" font-size="10.00">kest_fpga_transfer</text>
<text xml:space="preserve" text-anchor="middle" x="740.62" y="-181.25" font-family="Helvetica,sans-Serif" font-size="10.00">_batch_send</text>
</a>
</g>
</g>
<!-- Node48&#45;&gt;Node49 -->
<g id="edge45_Node000048_Node000049" class="edge">
<title>Node48&#45;&gt;Node49</title>
<g id="a_edge45_Node000048_Node000049"><a xlink:title=" ">
<path fill="none" stroke="#63b8ff" d="M849.27,-190.75C831.04,-190.75 811.65,-190.75 794.42,-190.75"/>
<polygon fill="#63b8ff" stroke="#63b8ff" points="849.22,-194.25 859.22,-190.75 849.22,-187.25 849.22,-194.25"/>
</a>
</g>
</g>
<!-- Node49&#45;&gt;Node42 -->
<g id="edge46_Node000049_Node000042" class="edge">
<title>Node49&#45;&gt;Node42</title>
<g id="a_edge46_Node000049_Node000042"><a xlink:title=" ">
<path fill="none" stroke="#63b8ff" d="M675.71,-178.35C663.41,-176.44 650.59,-174.76 638.5,-173.75 569.63,-168 551.83,-167.57 483,-173.75 464.85,-175.38 445.14,-178.57 427.76,-181.88"/>
<polygon fill="#63b8ff" stroke="#63b8ff" points="674.9,-181.77 685.33,-179.92 676.03,-174.86 674.9,-181.77"/>
</a>
</g>
</g>
<!-- Node49&#45;&gt;Node44 -->
<g id="edge47_Node000049_Node000044" class="edge">
<title>Node49&#45;&gt;Node44</title>
<g id="a_edge47_Node000049_Node000044"><a xlink:title=" ">
<path fill="none" stroke="#63b8ff" d="M675.79,-191.47C661.23,-191.63 645.7,-191.81 630.93,-191.97"/>
<polygon fill="#63b8ff" stroke="#63b8ff" points="675.75,-194.97 685.71,-191.36 675.67,-187.97 675.75,-194.97"/>
</a>
</g>
</g>
<!-- Node49&#45;&gt;Node45 -->
<g id="edge48_Node000049_Node000045" class="edge">
<title>Node49&#45;&gt;Node45</title>
<g id="a_edge48_Node000049_Node000045"><a xlink:title=" ">
<path fill="none" stroke="#63b8ff" d="M676.16,-205.38C653.89,-210.51 629.3,-216.18 608.64,-220.94"/>
<polygon fill="#63b8ff" stroke="#63b8ff" points="676.79,-208.83 685.74,-203.17 675.21,-202.01 676.79,-208.83"/>
</a>
</g>
</g>
<!-- Node50&#45;&gt;Node50 -->
<g id="edge55_Node000050_Node000050" class="edge">
<title>Node50&#45;&gt;Node50</title>
<g id="a_edge55_Node000050_Node000050"><a xlink:title=" ">
<path fill="none" stroke="#63b8ff" d="M947.19,-44.89C942.6,-48.85 933.2,-51.5 919,-51.5 893.75,-51.5 883.69,-43.12 888.82,-33.91"/>
<polygon fill="#63b8ff" stroke="#63b8ff" points="950.57,-45.87 948.91,-35.4 943.68,-44.62 950.57,-45.87"/>
</a>
</g>
</g>
<!-- Node51 -->
<g id="Node000051" class="node">
<title>Node51</title>
<g id="a_Node000051"><a xlink:href="kest__expr__scope_8c.html#a22d04780c6f58fc94a907b3969a819cc" target="_top" xlink:title=" ">
<polygon fill="white" stroke="#666666" points="806.75,-33.5 674.5,-33.5 674.5,0 806.75,0 806.75,-33.5"/>
<text xml:space="preserve" text-anchor="start" x="682.5" y="-20" font-family="Helvetica,sans-Serif" font-size="10.00">kest_scope_transitivize</text>
<text xml:space="preserve" text-anchor="middle" x="740.62" y="-7.25" font-family="Helvetica,sans-Serif" font-size="10.00">_updatable_dependents</text>
</a>
</g>
</g>
<!-- Node50&#45;&gt;Node51 -->
<g id="edge53_Node000050_Node000051" class="edge">
<title>Node50&#45;&gt;Node51</title>
<g id="a_edge53_Node000050_Node000051"><a xlink:title=" ">
<path fill="none" stroke="#63b8ff" d="M831.05,-16.75C822.97,-16.75 814.87,-16.75 807.04,-16.75"/>
<polygon fill="#63b8ff" stroke="#63b8ff" points="830.92,-20.25 840.92,-16.75 830.92,-13.25 830.92,-20.25"/>
</a>
</g>
</g>
<!-- Node52 -->
<g id="Node000052" class="node">
<title>Node52</title>
<g id="a_Node000052"><a xlink:href="kest__effect_8c.html#a85b25e44e2629962673634f965ffe304" target="_top" xlink:title=" ">
<polygon fill="#fff0f0" stroke="red" points="638.5,-27.12 483,-27.12 483,-6.38 638.5,-6.38 638.5,-27.12"/>
<text xml:space="preserve" text-anchor="middle" x="560.75" y="-13.62" font-family="Helvetica,sans-Serif" font-size="10.00">init_effect_from_effect_desc</text>
</a>
</g>
</g>
<!-- Node51&#45;&gt;Node52 -->
<g id="edge54_Node000051_Node000052" class="edge">
<title>Node51&#45;&gt;Node52</title>
<g id="a_edge54_Node000051_Node000052"><a xlink:title=" ">
<path fill="none" stroke="#63b8ff" d="M662.69,-16.75C654.78,-16.75 646.74,-16.75 638.83,-16.75"/>
<polygon fill="#63b8ff" stroke="#63b8ff" points="662.64,-20.25 672.64,-16.75 662.64,-13.25 662.64,-20.25"/>
</a>
</g>
</g>
</g>
</svg>

<g id="navigator" transform="translate(0 0)" fill="#404254">
  <rect fill="#f2f5e9" fill-opacity="0.5" stroke="#606060" stroke-width=".5" x="0" y="0" width="60" height="60"/>
  <use id="zoomplus" xlink:href="#zoomPlus" x="17" y="9" onmousedown="handleZoom(evt,'in')"/>
  <use id="zoomminus" xlink:href="#zoomMin" x="42" y="9" onmousedown="handleZoom(evt,'out')"/>
  <use id="reset" xlink:href="#resetDef" x="30" y="36" onmousedown="handleReset()"/>
   <use id="arrowup" xlink:href="#arrowUp" x="0" y="0" onmousedown="handlePan(0,-1)"/>
  <use id="arrowright" xlink:href="#arrowRight" x="0" y="0" onmousedown="handlePan(1,0)"/>
  <use id="arrowdown" xlink:href="#arrowDown" x="0" y="0" onmousedown="handlePan(0,1)"/>
  <use id="arrowleft" xlink:href="#arrowLeft" x="0" y="0" onmousedown="handlePan(-1,0)"/>
</g>
<svg viewBox="0 0 15 15" width="100%" height="30px" preserveAspectRatio="xMaxYMin meet">
 <g id="arrow_out" transform="scale(0.3 0.3)">
  <a xlink:href="kest__string_8h_ad346e7c1a0b506f7eca9423a05b47f11_icgraph_org.svg" target="_base">
   <rect id="button" ry="5" rx="5" y="6" x="6" height="38" width="38"
        fill="#f2f5e9" fill-opacity="0.5" stroke="#606060" stroke-width="1.0"/>
   <path id="arrow"
     d="M 11.500037,31.436501 C 11.940474,20.09759 22.043105,11.32322 32.158766,21.979434 L 37.068811,17.246167 C 37.068811,17.246167 37.088388,32 37.088388,32 L 22.160133,31.978069 C 22.160133,31.978069 26.997745,27.140456 26.997745,27.140456 C 18.528582,18.264221 13.291696,25.230495 11.500037,31.436501 z"
     style="fill:#404040;"/>
  </a>
 </g>
</svg>

<style type='text/css'>
<![CDATA[
[data-mouse-over-selected='false'] { opacity: 0.7; }
[data-mouse-over-selected='true']  { opacity: 1.0; }
]]>
</style>
<script type="application/ecmascript"><![CDATA[
document.addEventListener('DOMContentLoaded', (event) => {
  highlightEdges();
  highlightAdjacentNodes();
});
]]></script>
</svg>
