<?xml version="1.0" encoding="UTF-8" standalone="no"?>
<!DOCTYPE svg PUBLIC "-//W3C//DTD SVG 1.1//EN"
 "http://www.w3.org/Graphics/SVG/1.1/DTD/svg11.dtd">
<!-- Generated by graphviz version 13.1.2 (20250808.2320)
 -->
<!-- Title: m_parse_asm_arg Pages: 1 -->
<svg width="620pt" height="578pt"
 viewBox="0.00 0.00 620.00 578.00" xmlns="http://www.w3.org/2000/svg" xmlns:xlink="http://www.w3.org/1999/xlink">
<g id="graph0" class="graph" transform="scale(1 1) rotate(0) translate(4 574.12)">
<title>m_parse_asm_arg</title>
<!-- Node1 -->
<g id="Node000001" class="node">
<title>Node1</title>
<g id="a_Node000001"><a xlink:title=" ">
<polygon fill="#999999" stroke="#666666" points="105.25,-406.12 0,-406.12 0,-385.38 105.25,-385.38 105.25,-406.12"/>
<text xml:space="preserve" text-anchor="middle" x="52.62" y="-392.62" font-family="Helvetica,sans-Serif" font-size="10.00">m_parse_asm_arg</text>
</a>
</g>
</g>
<!-- Node2 -->
<g id="Node000002" class="node">
<title>Node2</title>
<g id="a_Node000002"><a xlink:href="m__expr__parser_8c.html#af2a49578710f5e5b4f4c3339992ba0c9" target="_top" xlink:title=" ">
<polygon fill="white" stroke="#666666" points="257.75,-406.12 141.25,-406.12 141.25,-385.38 257.75,-385.38 257.75,-406.12"/>
<text xml:space="preserve" text-anchor="middle" x="199.5" y="-392.62" font-family="Helvetica,sans-Serif" font-size="10.00">m_parse_expression</text>
</a>
</g>
</g>
<!-- Node1&#45;&gt;Node2 -->
<g id="edge1_Node000001_Node000002" class="edge">
<title>Node1&#45;&gt;Node2</title>
<g id="a_edge1_Node000001_Node000002"><a xlink:title=" ">
<path fill="none" stroke="#63b8ff" d="M105.52,-395.75C113.36,-395.75 121.54,-395.75 129.67,-395.75"/>
<polygon fill="#63b8ff" stroke="#63b8ff" points="129.56,-399.25 139.56,-395.75 129.56,-392.25 129.56,-399.25"/>
</a>
</g>
</g>
<!-- Node12 -->
<g id="Node000012" class="node">
<title>Node12</title>
<g id="a_Node000012"><a xlink:href="m__eff__parser_8c.html#a8541f46b6f93163d1fcb065bd26c7a36" target="_top" xlink:title=" ">
<polygon fill="#fff0f0" stroke="red" points="583.38,-570.12 478.12,-570.12 478.12,-549.38 583.38,-549.38 583.38,-570.12"/>
<text xml:space="preserve" text-anchor="middle" x="530.75" y="-556.62" font-family="Helvetica,sans-Serif" font-size="10.00">m_parser_error_at</text>
</a>
</g>
</g>
<!-- Node1&#45;&gt;Node12 -->
<g id="edge20_Node000001_Node000012" class="edge">
<title>Node1&#45;&gt;Node12</title>
<g id="a_edge20_Node000001_Node000012"><a xlink:title=" ">
<path fill="none" stroke="#63b8ff" d="M78.23,-406.56C121.4,-425.34 213.79,-464.64 293.75,-492.75 362.16,-516.8 380.09,-520.48 450,-539.75 457.76,-541.89 465.97,-544.05 474.05,-546.13"/>
<polygon fill="#63b8ff" stroke="#63b8ff" points="472.92,-549.46 483.48,-548.53 474.65,-542.67 472.92,-549.46"/>
</a>
</g>
</g>
<!-- Node26 -->
<g id="Node000026" class="node">
<title>Node26</title>
<g id="a_Node000026"><a xlink:href="m__tokenizer_8c.html#a2ec9c97a1ac58583e2731a0e3d533af6" target="_top" xlink:title=" ">
<polygon fill="white" stroke="#666666" points="236.75,-367.12 162.25,-367.12 162.25,-346.38 236.75,-346.38 236.75,-367.12"/>
<text xml:space="preserve" text-anchor="middle" x="199.5" y="-353.62" font-family="Helvetica,sans-Serif" font-size="10.00">token_is_int</text>
</a>
</g>
</g>
<!-- Node1&#45;&gt;Node26 -->
<g id="edge21_Node000001_Node000026" class="edge">
<title>Node1&#45;&gt;Node26</title>
<g id="a_edge21_Node000001_Node000026"><a xlink:title=" ">
<path fill="none" stroke="#63b8ff" d="M93.98,-384.89C111.59,-380.15 132.37,-374.55 150.75,-369.6"/>
<polygon fill="#63b8ff" stroke="#63b8ff" points="151.62,-372.99 160.37,-367.02 149.8,-366.24 151.62,-372.99"/>
</a>
</g>
</g>
<!-- Node3 -->
<g id="Node000003" class="node">
<title>Node3</title>
<g id="a_Node000003"><a xlink:href="m__expression_8c.html#acd7ddd6e154ca0394752c7aac612fe5e" target="_top" xlink:title=" ">
<polygon fill="white" stroke="#666666" points="414,-165.5 293.75,-165.5 293.75,-132 414,-132 414,-165.5"/>
<text xml:space="preserve" text-anchor="start" x="301.75" y="-152" font-family="Helvetica,sans-Serif" font-size="10.00">m_expression_detect</text>
<text xml:space="preserve" text-anchor="middle" x="353.88" y="-139.25" font-family="Helvetica,sans-Serif" font-size="10.00">_constants</text>
</a>
</g>
</g>
<!-- Node2&#45;&gt;Node3 -->
<g id="edge2_Node000002_Node000003" class="edge">
<title>Node2&#45;&gt;Node3</title>
<g id="a_edge2_Node000002_Node000003"><a xlink:title=" ">
<path fill="none" stroke="#63b8ff" d="M244.32,-384.89C249.22,-382.44 253.84,-379.43 257.75,-375.75 273.14,-361.27 321.54,-233.63 342.75,-176.36"/>
<polygon fill="#63b8ff" stroke="#63b8ff" points="345.91,-177.91 346.09,-167.31 339.34,-175.48 345.91,-177.91"/>
</a>
</g>
</g>
<!-- Node7 -->
<g id="Node000007" class="node">
<title>Node7</title>
<g id="a_Node000007"><a xlink:href="m__expr__parser_8c.html#a45b4bb314bb1c677680ca37595ea8281" target="_top" xlink:title=" ">
<polygon fill="white" stroke="#666666" points="412.12,-349.5 295.62,-349.5 295.62,-316 412.12,-316 412.12,-349.5"/>
<text xml:space="preserve" text-anchor="start" x="303.62" y="-336" font-family="Helvetica,sans-Serif" font-size="10.00">m_parse_expression</text>
<text xml:space="preserve" text-anchor="middle" x="353.88" y="-323.25" font-family="Helvetica,sans-Serif" font-size="10.00">_rec_pratt</text>
</a>
</g>
</g>
<!-- Node2&#45;&gt;Node7 -->
<g id="edge5_Node000002_Node000007" class="edge">
<title>Node2&#45;&gt;Node7</title>
<g id="a_edge5_Node000002_Node000007"><a xlink:title=" ">
<path fill="none" stroke="#63b8ff" d="M233.08,-384.93C241.19,-382.08 249.83,-378.92 257.75,-375.75 273.88,-369.3 291.28,-361.65 306.72,-354.6"/>
<polygon fill="#63b8ff" stroke="#63b8ff" points="308.07,-357.84 315.69,-350.48 305.14,-351.48 308.07,-357.84"/>
</a>
</g>
</g>
<!-- Node2&#45;&gt;Node12 -->
<g id="edge19_Node000002_Node000012" class="edge">
<title>Node2&#45;&gt;Node12</title>
<g id="a_edge19_Node000002_Node000012"><a xlink:title=" ">
<path fill="none" stroke="#63b8ff" d="M221.9,-406.49C260.91,-426.3 345.87,-470.54 414,-513.75 430.67,-524.32 432.11,-531.42 450,-539.75 455.42,-542.27 461.2,-544.5 467.08,-546.47"/>
<polygon fill="#63b8ff" stroke="#63b8ff" points="465.67,-549.7 476.26,-549.3 467.73,-543.01 465.67,-549.7"/>
</a>
</g>
</g>
<!-- Node4 -->
<g id="Node000004" class="node">
<title>Node4</title>
<g id="a_Node000004"><a xlink:href="m__expression_8c.html#afafd102b8fe0733962151c5c2de08296" target="_top" xlink:title=" ">
<polygon fill="#fff0f0" stroke="red" points="590.88,-33.5 470.62,-33.5 470.62,0 590.88,0 590.88,-33.5"/>
<text xml:space="preserve" text-anchor="start" x="478.62" y="-20" font-family="Helvetica,sans-Serif" font-size="10.00">m_expression_detect</text>
<text xml:space="preserve" text-anchor="middle" x="530.75" y="-7.25" font-family="Helvetica,sans-Serif" font-size="10.00">_constants_rec</text>
</a>
</g>
</g>
<!-- Node3&#45;&gt;Node4 -->
<g id="edge3_Node000003_Node000004" class="edge">
<title>Node3&#45;&gt;Node4</title>
<g id="a_edge3_Node000003_Node000004"><a xlink:title=" ">
<path fill="none" stroke="#63b8ff" d="M370.98,-131.53C389.09,-112.76 419.9,-82.48 450,-60.75 460.71,-53.02 472.92,-45.65 484.51,-39.23"/>
<polygon fill="#63b8ff" stroke="#63b8ff" points="486.02,-42.39 493.16,-34.56 482.69,-36.23 486.02,-42.39"/>
</a>
</g>
</g>
<!-- Node4&#45;&gt;Node4 -->
<g id="edge4_Node000004_Node000004" class="edge">
<title>Node4&#45;&gt;Node4</title>
<g id="a_edge4_Node000004_Node000004"><a xlink:title=" ">
<path fill="none" stroke="#63b8ff" d="M498.95,-33.91C493.55,-43.12 504.15,-51.5 530.75,-51.5 545.71,-51.5 555.61,-48.85 560.45,-44.89"/>
<polygon fill="#63b8ff" stroke="#63b8ff" points="563.82,-45.88 562.26,-35.4 556.95,-44.57 563.82,-45.88"/>
</a>
</g>
</g>
<!-- Node7&#45;&gt;Node7 -->
<g id="edge10_Node000007_Node000007" class="edge">
<title>Node7&#45;&gt;Node7</title>
<g id="a_edge10_Node000007_Node000007"><a xlink:title=" ">
<path fill="none" stroke="#63b8ff" d="M326.12,-349.91C321.41,-359.12 330.66,-367.5 353.88,-367.5 366.57,-367.5 375.09,-364.99 379.43,-361.22"/>
<polygon fill="#63b8ff" stroke="#63b8ff" points="382.87,-361.88 381.34,-351.4 376,-360.55 382.87,-361.88"/>
</a>
</g>
</g>
<!-- Node8 -->
<g id="Node000008" class="node">
<title>Node8</title>
<g id="a_Node000008"><a xlink:href="m__expr__parser_8c.html#a3fb57896f833565ff62faa53293be99f" target="_top" xlink:title=" ">
<polygon fill="white" stroke="#666666" points="586.38,-453.5 475.12,-453.5 475.12,-420 586.38,-420 586.38,-453.5"/>
<text xml:space="preserve" text-anchor="start" x="483.12" y="-440" font-family="Helvetica,sans-Serif" font-size="10.00">m_expression_infix</text>
<text xml:space="preserve" text-anchor="middle" x="530.75" y="-427.25" font-family="Helvetica,sans-Serif" font-size="10.00">_associativity</text>
</a>
</g>
</g>
<!-- Node7&#45;&gt;Node8 -->
<g id="edge6_Node000007_Node000008" class="edge">
<title>Node7&#45;&gt;Node8</title>
<g id="a_edge6_Node000007_Node000008"><a xlink:title=" ">
<path fill="none" stroke="#63b8ff" d="M371.66,-349.86C389.62,-367.31 419.65,-394.13 450,-410.75 454.63,-413.28 459.54,-415.62 464.57,-417.77"/>
<polygon fill="#63b8ff" stroke="#63b8ff" points="463,-420.91 473.58,-421.34 465.58,-414.4 463,-420.91"/>
</a>
</g>
</g>
<!-- Node9 -->
<g id="Node000009" class="node">
<title>Node9</title>
<g id="a_Node000009"><a xlink:href="m__expr__parser_8c.html#a5f22d6ba7cd98449337f6767b796a94d" target="_top" xlink:title=" ">
<polygon fill="white" stroke="#666666" points="592.75,-401.5 468.75,-401.5 468.75,-368 592.75,-368 592.75,-401.5"/>
<text xml:space="preserve" text-anchor="start" x="476.75" y="-388" font-family="Helvetica,sans-Serif" font-size="10.00">m_expression_infix</text>
<text xml:space="preserve" text-anchor="middle" x="530.75" y="-375.25" font-family="Helvetica,sans-Serif" font-size="10.00">_operator_precedence</text>
</a>
</g>
</g>
<!-- Node7&#45;&gt;Node9 -->
<g id="edge7_Node000007_Node000009" class="edge">
<title>Node7&#45;&gt;Node9</title>
<g id="a_edge7_Node000007_Node000009"><a xlink:title=" ">
<path fill="none" stroke="#63b8ff" d="M412.62,-349.92C428.06,-354.51 444.9,-359.52 460.87,-364.27"/>
<polygon fill="#63b8ff" stroke="#63b8ff" points="459.73,-367.58 470.32,-367.08 461.73,-360.87 459.73,-367.58"/>
</a>
</g>
</g>
<!-- Node10 -->
<g id="Node000010" class="node">
<title>Node10</title>
<g id="a_Node000010"><a xlink:href="m__expr__parser_8c.html#a22b47b59cab35e384fe6e1a10135997a" target="_top" xlink:title=" ">
<polygon fill="white" stroke="#666666" points="589,-349.5 472.5,-349.5 472.5,-316 589,-316 589,-349.5"/>
<text xml:space="preserve" text-anchor="start" x="480.5" y="-336" font-family="Helvetica,sans-Serif" font-size="10.00">m_expression_token</text>
<text xml:space="preserve" text-anchor="middle" x="530.75" y="-323.25" font-family="Helvetica,sans-Serif" font-size="10.00">_infix_type</text>
</a>
</g>
</g>
<!-- Node7&#45;&gt;Node10 -->
<g id="edge8_Node000007_Node000010" class="edge">
<title>Node7&#45;&gt;Node10</title>
<g id="a_edge8_Node000007_Node000010"><a xlink:title=" ">
<path fill="none" stroke="#63b8ff" d="M412.62,-332.75C427.99,-332.75 444.75,-332.75 460.66,-332.75"/>
<polygon fill="#63b8ff" stroke="#63b8ff" points="460.55,-336.25 470.55,-332.75 460.55,-329.25 460.55,-336.25"/>
</a>
</g>
</g>
<!-- Node11 -->
<g id="Node000011" class="node">
<title>Node11</title>
<g id="a_Node000011"><a xlink:href="m__expr__parser_8c.html#a5766ee01ec9665014bd79bd8e3852972" target="_top" xlink:title=" ">
<polygon fill="white" stroke="#666666" points="589,-297.5 472.5,-297.5 472.5,-264 589,-264 589,-297.5"/>
<text xml:space="preserve" text-anchor="start" x="480.5" y="-284" font-family="Helvetica,sans-Serif" font-size="10.00">m_expression_token</text>
<text xml:space="preserve" text-anchor="middle" x="530.75" y="-271.25" font-family="Helvetica,sans-Serif" font-size="10.00">_unary_type</text>
</a>
</g>
</g>
<!-- Node7&#45;&gt;Node11 -->
<g id="edge9_Node000007_Node000011" class="edge">
<title>Node7&#45;&gt;Node11</title>
<g id="a_edge9_Node000007_Node000011"><a xlink:title=" ">
<path fill="none" stroke="#63b8ff" d="M412.62,-315.58C428.14,-310.96 445.08,-305.93 461.12,-301.16"/>
<polygon fill="#63b8ff" stroke="#63b8ff" points="462.03,-304.54 470.61,-298.33 460.03,-297.83 462.03,-304.54"/>
</a>
</g>
</g>
<!-- Node7&#45;&gt;Node12 -->
<g id="edge11_Node000007_Node000012" class="edge">
<title>Node7&#45;&gt;Node12</title>
<g id="a_edge11_Node000007_Node000012"><a xlink:title=" ">
<path fill="none" stroke="#63b8ff" d="M364.77,-349.88C377.1,-371.57 398.44,-410.28 414,-444.75 432.57,-485.9 416.27,-509.74 450,-539.75 454.99,-544.19 460.81,-547.67 467.01,-550.4"/>
<polygon fill="#63b8ff" stroke="#63b8ff" points="465.68,-553.64 476.27,-553.8 468.09,-547.07 465.68,-553.64"/>
</a>
</g>
</g>
<!-- Node14 -->
<g id="Node000014" class="node">
<title>Node14</title>
<g id="a_Node000014"><a xlink:href="m__expression_8c.html#a38daded96829752711082eaaeff03515" target="_top" xlink:title=" ">
<polygon fill="white" stroke="#666666" points="603.62,-246.12 457.88,-246.12 457.88,-225.38 603.62,-225.38 603.62,-246.12"/>
<text xml:space="preserve" text-anchor="middle" x="530.75" y="-232.62" font-family="Helvetica,sans-Serif" font-size="10.00">new_m_expression_binary</text>
</a>
</g>
</g>
<!-- Node7&#45;&gt;Node14 -->
<g id="edge12_Node000007_Node000014" class="edge">
<title>Node7&#45;&gt;Node14</title>
<g id="a_edge12_Node000007_Node000014"><a xlink:title=" ">
<path fill="none" stroke="#63b8ff" d="M370.74,-315.8C388.41,-297.95 418.62,-270.31 450,-254.75 453.25,-253.14 456.65,-251.66 460.12,-250.3"/>
<polygon fill="#63b8ff" stroke="#63b8ff" points="461.03,-253.69 469.32,-247.08 458.72,-247.08 461.03,-253.69"/>
</a>
</g>
</g>
<!-- Node15 -->
<g id="Node000015" class="node">
<title>Node15</title>
<g id="a_Node000015"><a xlink:href="m__expression_8c.html#a6be20167ceaad0a77b5ff8424196bfa9" target="_top" xlink:title=" ">
<polygon fill="#fff0f0" stroke="red" points="601.38,-207.12 460.12,-207.12 460.12,-186.38 601.38,-186.38 601.38,-207.12"/>
<text xml:space="preserve" text-anchor="middle" x="530.75" y="-193.62" font-family="Helvetica,sans-Serif" font-size="10.00">new_m_expression_const</text>
</a>
</g>
</g>
<!-- Node7&#45;&gt;Node15 -->
<g id="edge13_Node000007_Node000015" class="edge">
<title>Node7&#45;&gt;Node15</title>
<g id="a_edge13_Node000007_Node000015"><a xlink:title=" ">
<path fill="none" stroke="#63b8ff" d="M364.09,-315.64C378.77,-290.05 409.96,-242.12 450,-216.75 452.77,-215 455.68,-213.39 458.69,-211.93"/>
<polygon fill="#63b8ff" stroke="#63b8ff" points="459.99,-215.19 467.84,-208.08 457.27,-208.74 459.99,-215.19"/>
</a>
</g>
</g>
<!-- Node17 -->
<g id="Node000017" class="node">
<title>Node17</title>
<g id="a_Node000017"><a xlink:href="m__expression_8c.html#aa6e0cb60a1687ae7f7cf3d453a89a7dc" target="_top" xlink:title=" ">
<polygon fill="white" stroke="#666666" points="611.5,-168.12 450,-168.12 450,-147.38 611.5,-147.38 611.5,-168.12"/>
<text xml:space="preserve" text-anchor="middle" x="530.75" y="-154.62" font-family="Helvetica,sans-Serif" font-size="10.00">new_m_expression_reference</text>
</a>
</g>
</g>
<!-- Node7&#45;&gt;Node17 -->
<g id="edge14_Node000007_Node000017" class="edge">
<title>Node7&#45;&gt;Node17</title>
<g id="a_edge14_Node000007_Node000017"><a xlink:title=" ">
<path fill="none" stroke="#63b8ff" d="M360.4,-315.76C371.75,-283.59 400.87,-213.8 450,-177.75 452.06,-176.24 454.22,-174.84 456.45,-173.55"/>
<polygon fill="#63b8ff" stroke="#63b8ff" points="457.88,-176.75 465.32,-169.2 454.8,-170.47 457.88,-176.75"/>
</a>
</g>
</g>
<!-- Node18 -->
<g id="Node000018" class="node">
<title>Node18</title>
<g id="a_Node000018"><a xlink:href="m__expression_8c.html#a3cc8a14b8a167160daba87b581dcec17" target="_top" xlink:title=" ">
<polygon fill="white" stroke="#666666" points="602.12,-129.12 459.38,-129.12 459.38,-108.38 602.12,-108.38 602.12,-129.12"/>
<text xml:space="preserve" text-anchor="middle" x="530.75" y="-115.62" font-family="Helvetica,sans-Serif" font-size="10.00">new_m_expression_unary</text>
</a>
</g>
</g>
<!-- Node7&#45;&gt;Node18 -->
<g id="edge15_Node000007_Node000018" class="edge">
<title>Node7&#45;&gt;Node18</title>
<g id="a_edge15_Node000007_Node000018"><a xlink:title=" ">
<path fill="none" stroke="#63b8ff" d="M358.17,-315.74C366.42,-277.8 391.68,-185.94 450,-138.75 451.71,-137.37 453.49,-136.08 455.35,-134.88"/>
<polygon fill="#63b8ff" stroke="#63b8ff" points="456.66,-138.15 463.78,-130.31 453.32,-132 456.66,-138.15"/>
</a>
</g>
</g>
<!-- Node19 -->
<g id="Node000019" class="node">
<title>Node19</title>
<g id="a_Node000019"><a xlink:href="m__tokenizer_8c.html#a713c477a645ef8a6abfd4cb4e257b53c" target="_top" xlink:title=" ">
<polygon fill="#fff0f0" stroke="red" points="575.5,-90.12 486,-90.12 486,-69.38 575.5,-69.38 575.5,-90.12"/>
<text xml:space="preserve" text-anchor="middle" x="530.75" y="-76.62" font-family="Helvetica,sans-Serif" font-size="10.00">token_is_name</text>
</a>
</g>
</g>
<!-- Node7&#45;&gt;Node19 -->
<g id="edge16_Node000007_Node000019" class="edge">
<title>Node7&#45;&gt;Node19</title>
<g id="a_edge16_Node000007_Node000019"><a xlink:title=" ">
<path fill="none" stroke="#63b8ff" d="M361.42,-315.51C381.48,-262.88 441.23,-107.35 450,-99.75 457.05,-93.63 465.71,-89.34 474.69,-86.33"/>
<polygon fill="#63b8ff" stroke="#63b8ff" points="475.56,-89.72 484.25,-83.67 473.68,-82.98 475.56,-89.72"/>
</a>
</g>
</g>
<!-- Node22 -->
<g id="Node000022" class="node">
<title>Node22</title>
<g id="a_Node000022"><a xlink:href="m__tokenizer_8c.html#ae684335931207bb714fdc1b6588aad14" target="_top" xlink:title=" ">
<polygon fill="#fff0f0" stroke="red" points="580.38,-531.12 481.12,-531.12 481.12,-510.38 580.38,-510.38 580.38,-531.12"/>
<text xml:space="preserve" text-anchor="middle" x="530.75" y="-517.62" font-family="Helvetica,sans-Serif" font-size="10.00">token_is_number</text>
</a>
</g>
</g>
<!-- Node7&#45;&gt;Node22 -->
<g id="edge17_Node000007_Node000022" class="edge">
<title>Node7&#45;&gt;Node22</title>
<g id="a_edge17_Node000007_Node000022"><a xlink:title=" ">
<path fill="none" stroke="#63b8ff" d="M363.52,-349.75C384.33,-390.35 436.43,-490.42 450,-500.75 456.03,-505.34 462.99,-508.89 470.23,-511.62"/>
<polygon fill="#63b8ff" stroke="#63b8ff" points="468.93,-514.88 479.52,-514.62 471.08,-508.22 468.93,-514.88"/>
</a>
</g>
</g>
<!-- Node24 -->
<g id="Node000024" class="node">
<title>Node24</title>
<g id="a_Node000024"><a xlink:href="m__tokenizer_8c.html#a6ca78d248f8970c62c3a5cfc32ee0bb6" target="_top" xlink:title=" ">
<polygon fill="#fff0f0" stroke="red" points="573.62,-492.12 487.88,-492.12 487.88,-471.38 573.62,-471.38 573.62,-492.12"/>
<text xml:space="preserve" text-anchor="middle" x="530.75" y="-478.62" font-family="Helvetica,sans-Serif" font-size="10.00">token_to_float</text>
</a>
</g>
</g>
<!-- Node7&#45;&gt;Node24 -->
<g id="edge18_Node000007_Node000024" class="edge">
<title>Node7&#45;&gt;Node24</title>
<g id="a_edge18_Node000007_Node000024"><a xlink:title=" ">
<path fill="none" stroke="#63b8ff" d="M362.39,-349.68C375.76,-377.78 406.44,-433.81 450,-462.75 458.01,-468.07 467.35,-471.91 476.75,-474.67"/>
<polygon fill="#63b8ff" stroke="#63b8ff" points="475.73,-478.02 486.28,-477.08 477.44,-471.24 475.73,-478.02"/>
</a>
</g>
</g>
</g>
</svg>
