<?xml version="1.0" encoding="UTF-8" standalone="no"?>
<!DOCTYPE svg PUBLIC "-//W3C//DTD SVG 1.1//EN"
 "http://www.w3.org/Graphics/SVG/1.1/DTD/svg11.dtd">
<!-- Generated by graphviz version 13.1.2 (20250808.2320)
 -->
<!-- Title: create_button_ui Pages: 1 -->
<svg width="984pt" height="418pt"
 viewBox="0.00 0.00 984.00 418.00" xmlns="http://www.w3.org/2000/svg" xmlns:xlink="http://www.w3.org/1999/xlink">
<g id="graph0" class="graph" transform="scale(1 1) rotate(0) translate(4 413.51)">
<title>create_button_ui</title>
<!-- Node1 -->
<g id="Node000001" class="node">
<title>Node1</title>
<g id="a_Node000001"><a xlink:title=" ">
<polygon fill="#999999" stroke="#666666" points="975.75,-308.37 878,-308.37 878,-287.62 975.75,-287.62 975.75,-308.37"/>
<text xml:space="preserve" text-anchor="middle" x="926.88" y="-294.87" font-family="Helvetica,sans-Serif" font-size="10.00">create_button_ui</text>
</a>
</g>
</g>
<!-- Node1&#45;&gt;Node1 -->
<g id="edge1_Node000001_Node000001" class="edge">
<title>Node1&#45;&gt;Node1</title>
<g id="a_edge1_Node000001_Node000001"><a xlink:title=" ">
<path fill="none" stroke="#63b8ff" d="M955.16,-319.86C951.41,-323.7 941.98,-326.37 926.88,-326.37 899.25,-326.37 890.61,-317.43 900.97,-308.77"/>
<polygon fill="#63b8ff" stroke="#63b8ff" points="958.62,-319.29 953.1,-310.25 951.78,-320.76 958.62,-319.29"/>
</a>
</g>
</g>
<!-- Node2 -->
<g id="Node000002" class="node">
<title>Node2</title>
<g id="a_Node000002"><a xlink:href="$m__menu_8c.html#aa1e67979c87bdcd7b6c62319a244cc6a" xlink:title=" ">
<polygon fill="white" stroke="#666666" points="476.25,-409.37 352.25,-409.37 352.25,-388.62 476.25,-388.62 476.25,-409.37"/>
<text xml:space="preserve" text-anchor="middle" x="414.25" y="-395.87" font-family="Helvetica,sans-Serif" font-size="10.00">create_main_menu_ui</text>
</a>
</g>
</g>
<!-- Node1&#45;&gt;Node2 -->
<g id="edge2_Node000001_Node000002" class="edge">
<title>Node1&#45;&gt;Node2</title>
<g id="a_edge2_Node000001_Node000002"><a xlink:title=" ">
<path fill="none" stroke="#63b8ff" d="M908.9,-317.05C893.27,-333.16 868.55,-355.3 842,-366 719.66,-415.31 561.81,-412.1 476.51,-405.5"/>
<polygon fill="#63b8ff" stroke="#63b8ff" points="911.29,-319.62 915.57,-309.93 906.18,-314.83 911.29,-319.62"/>
</a>
</g>
</g>
<!-- Node8 -->
<g id="Node000008" class="node">
<title>Node8</title>
<g id="a_Node000008"><a xlink:href="$m__button_8c.html#a2e5dcaad98182e8c4200cad5a48bef86" xlink:title=" ">
<polygon fill="white" stroke="#666666" points="840.12,-79.37 692.12,-79.37 692.12,-58.62 840.12,-58.62 840.12,-79.37"/>
<text xml:space="preserve" text-anchor="middle" x="766.12" y="-65.87" font-family="Helvetica,sans-Serif" font-size="10.00">m_active_button_create_ui</text>
</a>
</g>
</g>
<!-- Node1&#45;&gt;Node8 -->
<g id="edge5_Node000001_Node000008" class="edge">
<title>Node1&#45;&gt;Node8</title>
<g id="a_edge5_Node000001_Node000008"><a xlink:title=" ">
<path fill="none" stroke="#63b8ff" d="M911.9,-277.84C879.34,-230.88 799.32,-115.44 774.55,-79.71"/>
<polygon fill="#63b8ff" stroke="#63b8ff" points="909,-279.79 917.57,-286.02 914.75,-275.8 909,-279.79"/>
</a>
</g>
</g>
<!-- Node37 -->
<g id="Node000037" class="node">
<title>Node37</title>
<g id="a_Node000037"><a xlink:href="$m__button_8c.html#a6cac851ff227700b7ce90944deab3e3b" xlink:title=" ">
<polygon fill="white" stroke="#666666" points="842,-357.37 690.25,-357.37 690.25,-336.62 842,-336.62 842,-357.37"/>
<text xml:space="preserve" text-anchor="middle" x="766.12" y="-343.87" font-family="Helvetica,sans-Serif" font-size="10.00">m_danger_button_create_ui</text>
</a>
</g>
</g>
<!-- Node1&#45;&gt;Node37 -->
<g id="edge14_Node000001_Node000037" class="edge">
<title>Node1&#45;&gt;Node37</title>
<g id="a_edge14_Node000001_Node000037"><a xlink:title=" ">
<path fill="none" stroke="#63b8ff" d="M880.55,-312.07C868.06,-315.94 854.51,-320.14 842,-324 829.14,-327.97 815.02,-332.31 802.55,-336.14"/>
<polygon fill="#63b8ff" stroke="#63b8ff" points="881.23,-315.52 889.75,-309.22 879.16,-308.84 881.23,-315.52"/>
</a>
</g>
</g>
<!-- Node38 -->
<g id="Node000038" class="node">
<title>Node38</title>
<g id="a_Node000038"><a xlink:href="$m__ui_8c.html#a814198c905ac175911f5eb6802af3fbc" xlink:title=" ">
<polygon fill="white" stroke="#666666" points="831.5,-314.75 700.75,-314.75 700.75,-281.25 831.5,-281.25 831.5,-314.75"/>
<text xml:space="preserve" text-anchor="start" x="708.75" y="-301.25" font-family="Helvetica,sans-Serif" font-size="10.00">ui_page_create_bottom</text>
<text xml:space="preserve" text-anchor="middle" x="766.12" y="-288.5" font-family="Helvetica,sans-Serif" font-size="10.00">_buttons</text>
</a>
</g>
</g>
<!-- Node1&#45;&gt;Node38 -->
<g id="edge16_Node000001_Node000038" class="edge">
<title>Node1&#45;&gt;Node38</title>
<g id="a_edge16_Node000001_Node000038"><a xlink:title=" ">
<path fill="none" stroke="#63b8ff" d="M866.3,-298C855.02,-298 843.16,-298 831.73,-298"/>
<polygon fill="#63b8ff" stroke="#63b8ff" points="866.3,-301.5 876.3,-298 866.3,-294.5 866.3,-301.5"/>
</a>
</g>
</g>
<!-- Node47 -->
<g id="Node000047" class="node">
<title>Node47</title>
<g id="a_Node000047"><a xlink:href="$m__ui_8c.html#a68e4982391322da1d7482446f5cfcf77" xlink:title=" ">
<polygon fill="white" stroke="#666666" points="834.5,-263.37 697.75,-263.37 697.75,-242.62 834.5,-242.62 834.5,-263.37"/>
<text xml:space="preserve" text-anchor="middle" x="766.12" y="-249.87" font-family="Helvetica,sans-Serif" font-size="10.00">ui_page_create_panel_ui</text>
</a>
</g>
</g>
<!-- Node1&#45;&gt;Node47 -->
<g id="edge29_Node000001_Node000047" class="edge">
<title>Node1&#45;&gt;Node47</title>
<g id="a_edge29_Node000001_Node000047"><a xlink:title=" ">
<path fill="none" stroke="#63b8ff" d="M881.68,-283.82C868.91,-279.86 854.94,-275.64 842,-272 832.19,-269.23 821.6,-266.44 811.57,-263.87"/>
<polygon fill="#63b8ff" stroke="#63b8ff" points="880.49,-287.12 891.08,-286.77 882.58,-280.44 880.49,-287.12"/>
</a>
</g>
</g>
<!-- Node3 -->
<g id="Node000003" class="node">
<title>Node3</title>
<g id="a_Node000003"><a xlink:href="$m__menu_8c.html#abdd1333df2a66cc871f2eb36b4bbb74c" xlink:title=" ">
<polygon fill="white" stroke="#666666" points="293,-409.37 198.25,-409.37 198.25,-388.62 293,-388.62 293,-409.37"/>
<text xml:space="preserve" text-anchor="middle" x="245.62" y="-395.87" font-family="Helvetica,sans-Serif" font-size="10.00">init_main_menu</text>
</a>
</g>
</g>
<!-- Node2&#45;&gt;Node3 -->
<g id="edge3_Node000002_Node000003" class="edge">
<title>Node2&#45;&gt;Node3</title>
<g id="a_edge3_Node000002_Node000003"><a xlink:title=" ">
<path fill="none" stroke="#63b8ff" d="M341.08,-399C324.91,-399 308.17,-399 293.36,-399"/>
<polygon fill="#63b8ff" stroke="#63b8ff" points="340.64,-402.5 350.64,-399 340.64,-395.5 340.64,-402.5"/>
</a>
</g>
</g>
<!-- Node4 -->
<g id="Node000004" class="node">
<title>Node4</title>
<g id="a_Node000004"><a xlink:href="$m__ui_8c.html#a7a44c202906b5429286d990bb9374567" xlink:title=" ">
<polygon fill="#fff0f0" stroke="red" points="132.25,-409.37 15.75,-409.37 15.75,-388.62 132.25,-388.62 132.25,-409.37"/>
<text xml:space="preserve" text-anchor="middle" x="74" y="-395.87" font-family="Helvetica,sans-Serif" font-size="10.00">m_init_global_pages</text>
</a>
</g>
</g>
<!-- Node3&#45;&gt;Node4 -->
<g id="edge4_Node000003_Node000004" class="edge">
<title>Node3&#45;&gt;Node4</title>
<g id="a_edge4_Node000003_Node000004"><a xlink:title=" ">
<path fill="none" stroke="#63b8ff" d="M186.62,-399C169.14,-399 149.97,-399 132.53,-399"/>
<polygon fill="#63b8ff" stroke="#63b8ff" points="186.31,-402.5 196.31,-399 186.31,-395.5 186.31,-402.5"/>
</a>
</g>
</g>
<!-- Node9 -->
<g id="Node000009" class="node">
<title>Node9</title>
<g id="a_Node000009"><a xlink:href="$m__button_8c.html#a380cf6dbd4f91dc6bead0857fdee47ae" xlink:title=" ">
<polygon fill="white" stroke="#666666" points="652,-124.75 523.5,-124.75 523.5,-91.25 652,-91.25 652,-124.75"/>
<text xml:space="preserve" text-anchor="start" x="531.5" y="-111.25" font-family="Helvetica,sans-Serif" font-size="10.00">m_active_button_array</text>
<text xml:space="preserve" text-anchor="middle" x="587.75" y="-98.5" font-family="Helvetica,sans-Serif" font-size="10.00">_create_ui</text>
</a>
</g>
</g>
<!-- Node8&#45;&gt;Node9 -->
<g id="edge6_Node000008_Node000009" class="edge">
<title>Node8&#45;&gt;Node9</title>
<g id="a_edge6_Node000008_Node000009"><a xlink:title=" ">
<path fill="none" stroke="#63b8ff" d="M705.11,-82.27C688.15,-86.02 669.64,-90.11 652.47,-93.91"/>
<polygon fill="#63b8ff" stroke="#63b8ff" points="705.51,-85.76 714.52,-80.19 704,-78.93 705.51,-85.76"/>
</a>
</g>
</g>
<!-- Node31 -->
<g id="Node000031" class="node">
<title>Node31</title>
<g id="a_Node000031"><a xlink:href="$m__profile__view_8c.html#a60c72db396bbb015c9b9429247bf8f87" xlink:title=" ">
<polygon fill="white" stroke="#666666" points="304.25,-156.75 187,-156.75 187,-123.25 304.25,-123.25 304.25,-156.75"/>
<text xml:space="preserve" text-anchor="start" x="195" y="-143.25" font-family="Helvetica,sans-Serif" font-size="10.00">profile_view_append</text>
<text xml:space="preserve" text-anchor="middle" x="245.62" y="-130.5" font-family="Helvetica,sans-Serif" font-size="10.00">_effect</text>
</a>
</g>
</g>
<!-- Node8&#45;&gt;Node31 -->
<g id="edge10_Node000008_Node000031" class="edge">
<title>Node8&#45;&gt;Node31</title>
<g id="a_edge10_Node000008_Node000031"><a xlink:title=" ">
<path fill="none" stroke="#63b8ff" d="M730.1,-54.02C655.19,-24.36 475.47,33.91 343.25,-27 300.11,-46.87 269.07,-96.55 255.02,-122.93"/>
<polygon fill="#63b8ff" stroke="#63b8ff" points="728.39,-57.1 738.97,-57.6 731.01,-50.61 728.39,-57.1"/>
</a>
</g>
</g>
<!-- Node36 -->
<g id="Node000036" class="node">
<title>Node36</title>
<g id="a_Node000036"><a xlink:href="$m__sequence__view_8c.html#a83d1a352af6a3932ce4d08e01f7d8d8a" xlink:title=" ">
<polygon fill="white" stroke="#666666" points="625.38,-64.37 550.12,-64.37 550.12,-43.62 625.38,-43.62 625.38,-64.37"/>
<text xml:space="preserve" text-anchor="middle" x="587.75" y="-50.87" font-family="Helvetica,sans-Serif" font-size="10.00">seq_plus_cb</text>
</a>
</g>
</g>
<!-- Node8&#45;&gt;Node36 -->
<g id="edge12_Node000008_Node000036" class="edge">
<title>Node8&#45;&gt;Node36</title>
<g id="a_edge12_Node000008_Node000036"><a xlink:title=" ">
<path fill="none" stroke="#63b8ff" d="M680.5,-61.8C661.12,-60.15 641.51,-58.48 625.42,-57.12"/>
<polygon fill="#63b8ff" stroke="#63b8ff" points="680.09,-65.28 690.35,-62.64 680.68,-58.3 680.09,-65.28"/>
</a>
</g>
</g>
<!-- Node10 -->
<g id="Node000010" class="node">
<title>Node10</title>
<g id="a_Node000010"><a xlink:href="$m__profile__view_8c.html#af74581fd39a23feffe4cb21c0bc08f48" xlink:title=" ">
<polygon fill="#fff0f0" stroke="red" points="477.38,-134.37 351.12,-134.37 351.12,-113.62 477.38,-113.62 477.38,-134.37"/>
<text xml:space="preserve" text-anchor="middle" x="414.25" y="-120.87" font-family="Helvetica,sans-Serif" font-size="10.00">create_profile_view_ui</text>
</a>
</g>
</g>
<!-- Node9&#45;&gt;Node10 -->
<g id="edge7_Node000009_Node000010" class="edge">
<title>Node9&#45;&gt;Node10</title>
<g id="a_edge7_Node000009_Node000010"><a xlink:title=" ">
<path fill="none" stroke="#63b8ff" d="M512.06,-114.97C500.63,-116.03 488.93,-117.12 477.79,-118.16"/>
<polygon fill="#63b8ff" stroke="#63b8ff" points="512.24,-118.46 521.87,-114.05 511.59,-111.49 512.24,-118.46"/>
</a>
</g>
</g>
<!-- Node28 -->
<g id="Node000028" class="node">
<title>Node28</title>
<g id="a_Node000028"><a xlink:href="$m__sequence__view_8c.html#a0832351a404a9d0207b4e9a04a5533b1" xlink:title=" ">
<polygon fill="#fff0f0" stroke="red" points="484.88,-95.37 343.62,-95.37 343.62,-74.62 484.88,-74.62 484.88,-95.37"/>
<text xml:space="preserve" text-anchor="middle" x="414.25" y="-81.87" font-family="Helvetica,sans-Serif" font-size="10.00">create_sequence_view_ui</text>
</a>
</g>
</g>
<!-- Node9&#45;&gt;Node28 -->
<g id="edge8_Node000009_Node000028" class="edge">
<title>Node9&#45;&gt;Node28</title>
<g id="a_edge8_Node000009_Node000028"><a xlink:title=" ">
<path fill="none" stroke="#63b8ff" d="M512.18,-98C503.25,-96.8 494.15,-95.58 485.29,-94.39"/>
<polygon fill="#63b8ff" stroke="#63b8ff" points="511.5,-101.44 521.88,-99.3 512.43,-94.5 511.5,-101.44"/>
</a>
</g>
</g>
<!-- Node29 -->
<g id="Node000029" class="node">
<title>Node29</title>
<g id="a_Node000029"><a xlink:href="$m__ui_8c.html#af9969c59195e8ddbd7d72a9f3d109127" xlink:title=" ">
<polygon fill="#fff0f0" stroke="red" points="471.38,-173.37 357.12,-173.37 357.12,-152.62 471.38,-152.62 471.38,-173.37"/>
<text xml:space="preserve" text-anchor="middle" x="414.25" y="-159.87" font-family="Helvetica,sans-Serif" font-size="10.00">create_test_page_ui</text>
</a>
</g>
</g>
<!-- Node9&#45;&gt;Node29 -->
<g id="edge9_Node000009_Node000029" class="edge">
<title>Node9&#45;&gt;Node29</title>
<g id="a_edge9_Node000009_Node000029"><a xlink:title=" ">
<path fill="none" stroke="#63b8ff" d="M528.15,-128.8C514.14,-133.61 499.2,-138.6 485.25,-143 475.36,-146.11 464.63,-149.28 454.6,-152.15"/>
<polygon fill="#63b8ff" stroke="#63b8ff" points="528.91,-132.24 537.22,-125.67 526.63,-125.63 528.91,-132.24"/>
</a>
</g>
</g>
<!-- Node32 -->
<g id="Node000032" class="node">
<title>Node32</title>
<g id="a_Node000032"><a xlink:href="$m__effect__select_8c.html#a0a0604d69c6fbeb09b31db2ebff0e901" xlink:title=" ">
<polygon fill="#fff0f0" stroke="red" points="148,-304.37 0,-304.37 0,-283.62 148,-283.62 148,-304.37"/>
<text xml:space="preserve" text-anchor="middle" x="74" y="-290.87" font-family="Helvetica,sans-Serif" font-size="10.00">add_effect_from_menu_eff</text>
</a>
</g>
</g>
<!-- Node31&#45;&gt;Node32 -->
<g id="edge11_Node000031_Node000032" class="edge">
<title>Node31&#45;&gt;Node32</title>
<g id="a_edge11_Node000031_Node000032"><a xlink:title=" ">
<path fill="none" stroke="#63b8ff" d="M217.37,-164.74C179.77,-198.88 113.6,-258.95 86.78,-283.3"/>
<polygon fill="#63b8ff" stroke="#63b8ff" points="219.65,-167.4 224.7,-158.08 214.95,-162.21 219.65,-167.4"/>
</a>
</g>
</g>
<!-- Node16 -->
<g id="Node000016" class="node">
<title>Node16</title>
<g id="a_Node000016"><a xlink:href="$m__sequence__view_8c.html#aa023b6efccc9528b27b31dcf25d1981a" xlink:title=" ">
<polygon fill="#fff0f0" stroke="red" points="485.25,-56.37 343.25,-56.37 343.25,-35.62 485.25,-35.62 485.25,-56.37"/>
<text xml:space="preserve" text-anchor="middle" x="414.25" y="-42.87" font-family="Helvetica,sans-Serif" font-size="10.00">configure_sequence_view</text>
</a>
</g>
</g>
<!-- Node36&#45;&gt;Node16 -->
<g id="edge13_Node000036_Node000016" class="edge">
<title>Node36&#45;&gt;Node16</title>
<g id="a_edge13_Node000036_Node000016"><a xlink:title=" ">
<path fill="none" stroke="#63b8ff" d="M538.93,-51.77C522.39,-51 503.5,-50.11 485.54,-49.28"/>
<polygon fill="#63b8ff" stroke="#63b8ff" points="538.29,-55.24 548.45,-52.21 538.62,-48.25 538.29,-55.24"/>
</a>
</g>
</g>
<!-- Node37&#45;&gt;Node2 -->
<g id="edge15_Node000037_Node000002" class="edge">
<title>Node37&#45;&gt;Node2</title>
<g id="a_edge15_Node000037_Node000002"><a xlink:title=" ">
<path fill="none" stroke="#63b8ff" d="M678.54,-359.07C631.91,-365.66 573.4,-374.07 521.25,-382 506.79,-384.2 491.22,-386.64 476.6,-388.98"/>
<polygon fill="#63b8ff" stroke="#63b8ff" points="678.91,-362.55 688.32,-357.69 677.93,-355.62 678.91,-362.55"/>
</a>
</g>
</g>
<!-- Node39 -->
<g id="Node000039" class="node">
<title>Node39</title>
<g id="a_Node000039"><a xlink:href="$m__ui_8c.html#aeb5818cdaae65980fbd2c19ddd24c08a" xlink:title=" ">
<polygon fill="white" stroke="#666666" points="654.25,-263.37 521.25,-263.37 521.25,-242.62 654.25,-242.62 654.25,-263.37"/>
<text xml:space="preserve" text-anchor="middle" x="587.75" y="-249.87" font-family="Helvetica,sans-Serif" font-size="10.00">ui_page_create_base_ui</text>
</a>
</g>
</g>
<!-- Node38&#45;&gt;Node39 -->
<g id="edge17_Node000038_Node000039" class="edge">
<title>Node38&#45;&gt;Node39</title>
<g id="a_edge17_Node000038_Node000039"><a xlink:title=" ">
<path fill="none" stroke="#63b8ff" d="M689.48,-278.7C669.52,-273.6 648.68,-268.29 631.17,-263.82"/>
<polygon fill="#63b8ff" stroke="#63b8ff" points="688.43,-282.04 698.98,-281.12 690.16,-275.26 688.43,-282.04"/>
</a>
</g>
</g>
<!-- Node39&#45;&gt;Node2 -->
<g id="edge22_Node000039_Node000002" class="edge">
<title>Node39&#45;&gt;Node2</title>
<g id="a_edge22_Node000039_Node000002"><a xlink:title=" ">
<path fill="none" stroke="#63b8ff" d="M572.49,-272.62C549.89,-303.27 506.23,-360.53 485.25,-375 477.32,-380.47 468.02,-384.79 458.85,-388.17"/>
<polygon fill="#63b8ff" stroke="#63b8ff" points="575.06,-275.04 578.14,-264.91 569.41,-270.9 575.06,-275.04"/>
</a>
</g>
</g>
<!-- Node39&#45;&gt;Node10 -->
<g id="edge26_Node000039_Node000010" class="edge">
<title>Node39&#45;&gt;Node10</title>
<g id="a_edge26_Node000039_Node000010"><a xlink:title=" ">
<path fill="none" stroke="#63b8ff" d="M573.23,-232.78C555.77,-208.21 523.06,-167.16 485.25,-144 479.21,-140.3 472.47,-137.26 465.62,-134.77"/>
<polygon fill="#63b8ff" stroke="#63b8ff" points="570.33,-234.73 578.9,-240.96 576.08,-230.75 570.33,-234.73"/>
</a>
</g>
</g>
<!-- Node39&#45;&gt;Node28 -->
<g id="edge27_Node000039_Node000028" class="edge">
<title>Node39&#45;&gt;Node28</title>
<g id="a_edge27_Node000039_Node000028"><a xlink:title=" ">
<path fill="none" stroke="#63b8ff" d="M577.88,-231.66C563.36,-199.34 531.42,-138.23 485.25,-105 480.12,-101.31 474.33,-98.29 468.32,-95.83"/>
<polygon fill="#63b8ff" stroke="#63b8ff" points="574.65,-232.99 581.84,-240.77 581.07,-230.2 574.65,-232.99"/>
</a>
</g>
</g>
<!-- Node39&#45;&gt;Node29 -->
<g id="edge28_Node000039_Node000029" class="edge">
<title>Node39&#45;&gt;Node29</title>
<g id="a_edge28_Node000039_Node000029"><a xlink:title=" ">
<path fill="none" stroke="#63b8ff" d="M565.8,-235.06C546.16,-219.08 515.38,-196.1 485.25,-182 478.52,-178.85 471.18,-176.14 463.85,-173.84"/>
<polygon fill="#63b8ff" stroke="#63b8ff" points="563.4,-237.62 573.33,-241.31 567.87,-232.23 563.4,-237.62"/>
</a>
</g>
</g>
<!-- Node40 -->
<g id="Node000040" class="node">
<title>Node40</title>
<g id="a_Node000040"><a xlink:href="$m__effect__settings_8c.html#a38d635228f087540f144ed30f762ed57" xlink:title=" ">
<polygon fill="#fff0f0" stroke="red" points="476.62,-332.75 351.88,-332.75 351.88,-299.25 476.62,-299.25 476.62,-332.75"/>
<text xml:space="preserve" text-anchor="start" x="359.88" y="-319.25" font-family="Helvetica,sans-Serif" font-size="10.00">create_effect_settings</text>
<text xml:space="preserve" text-anchor="middle" x="414.25" y="-306.5" font-family="Helvetica,sans-Serif" font-size="10.00">_page_ui</text>
</a>
</g>
</g>
<!-- Node39&#45;&gt;Node40 -->
<g id="edge18_Node000039_Node000040" class="edge">
<title>Node39&#45;&gt;Node40</title>
<g id="a_edge18_Node000039_Node000040"><a xlink:title=" ">
<path fill="none" stroke="#63b8ff" d="M546.58,-267.75C521.3,-277.04 488.57,-289.06 462.11,-298.79"/>
<polygon fill="#63b8ff" stroke="#63b8ff" points="547.67,-271.08 555.85,-264.35 545.25,-264.51 547.67,-271.08"/>
</a>
</g>
</g>
<!-- Node41 -->
<g id="Node000041" class="node">
<title>Node41</title>
<g id="a_Node000041"><a xlink:href="$m__effect__view_8c.html#a81bfb64755feca2546f122544c003406" xlink:title=" ">
<polygon fill="#fff0f0" stroke="red" points="307.25,-326.37 184,-326.37 184,-305.62 307.25,-305.62 307.25,-326.37"/>
<text xml:space="preserve" text-anchor="middle" x="245.62" y="-312.87" font-family="Helvetica,sans-Serif" font-size="10.00">create_effect_view_ui</text>
</a>
</g>
</g>
<!-- Node39&#45;&gt;Node41 -->
<g id="edge21_Node000039_Node000041" class="edge">
<title>Node39&#45;&gt;Node41</title>
<g id="a_edge21_Node000039_Node000041"><a xlink:title=" ">
<path fill="none" stroke="#63b8ff" d="M572.12,-272.35C554.34,-294.09 522.13,-328.12 485.25,-342 412.51,-369.37 319.11,-343.06 273.75,-326.76"/>
<polygon fill="#63b8ff" stroke="#63b8ff" points="574.63,-274.82 578.09,-264.81 569.14,-270.48 574.63,-274.82"/>
</a>
</g>
</g>
<!-- Node21 -->
<g id="Node000021" class="node">
<title>Node21</title>
<g id="a_Node000021"><a xlink:href="$m__menu_8c.html#a4435892ea8fbde07340628fd15212cf2" xlink:title=" ">
<polygon fill="#fff0f0" stroke="red" points="475.88,-263.37 352.62,-263.37 352.62,-242.62 475.88,-242.62 475.88,-263.37"/>
<text xml:space="preserve" text-anchor="middle" x="414.25" y="-249.87" font-family="Helvetica,sans-Serif" font-size="10.00">create_menu_page_ui</text>
</a>
</g>
</g>
<!-- Node39&#45;&gt;Node21 -->
<g id="edge23_Node000039_Node000021" class="edge">
<title>Node39&#45;&gt;Node21</title>
<g id="a_edge23_Node000039_Node000021"><a xlink:title=" ">
<path fill="none" stroke="#63b8ff" d="M509.76,-253C498.48,-253 487,-253 476.11,-253"/>
<polygon fill="#63b8ff" stroke="#63b8ff" points="509.42,-256.5 519.42,-253 509.42,-249.5 509.42,-256.5"/>
</a>
</g>
</g>
<!-- Node45 -->
<g id="Node000045" class="node">
<title>Node45</title>
<g id="a_Node000045"><a xlink:href="$m__profile__settings_8c.html#ad1beb390b5897b5c5a0057c22d82a3c3" xlink:title=" ">
<polygon fill="#fff0f0" stroke="red" points="478.12,-224.75 350.38,-224.75 350.38,-191.25 478.12,-191.25 478.12,-224.75"/>
<text xml:space="preserve" text-anchor="start" x="358.38" y="-211.25" font-family="Helvetica,sans-Serif" font-size="10.00">create_profile_settings</text>
<text xml:space="preserve" text-anchor="middle" x="414.25" y="-198.5" font-family="Helvetica,sans-Serif" font-size="10.00">_page_ui</text>
</a>
</g>
</g>
<!-- Node39&#45;&gt;Node45 -->
<g id="edge25_Node000039_Node000045" class="edge">
<title>Node39&#45;&gt;Node45</title>
<g id="a_edge25_Node000039_Node000045"><a xlink:title=" ">
<path fill="none" stroke="#63b8ff" d="M534.68,-239.33C516.95,-234.68 496.94,-229.43 478.44,-224.58"/>
<polygon fill="#63b8ff" stroke="#63b8ff" points="533.65,-242.68 544.21,-241.83 535.42,-235.91 533.65,-242.68"/>
</a>
</g>
</g>
<!-- Node40&#45;&gt;Node41 -->
<g id="edge19_Node000040_Node000041" class="edge">
<title>Node40&#45;&gt;Node41</title>
<g id="a_edge19_Node000040_Node000041"><a xlink:title=" ">
<path fill="none" stroke="#63b8ff" d="M340.41,-316C329.48,-316 318.31,-316 307.67,-316"/>
<polygon fill="#63b8ff" stroke="#63b8ff" points="340.16,-319.5 350.16,-316 340.16,-312.5 340.16,-319.5"/>
</a>
</g>
</g>
<!-- Node41&#45;&gt;Node32 -->
<g id="edge20_Node000041_Node000032" class="edge">
<title>Node41&#45;&gt;Node32</title>
<g id="a_edge20_Node000041_Node000032"><a xlink:title=" ">
<path fill="none" stroke="#63b8ff" d="M172.65,-306.66C164.61,-305.62 156.42,-304.56 148.37,-303.51"/>
<polygon fill="#63b8ff" stroke="#63b8ff" points="172,-310.11 182.36,-307.92 172.9,-303.17 172,-310.11"/>
</a>
</g>
</g>
<!-- Node21&#45;&gt;Node21 -->
<g id="edge24_Node000021_Node000021" class="edge">
<title>Node21&#45;&gt;Node21</title>
<g id="a_edge24_Node000021_Node000021"><a xlink:title=" ">
<path fill="none" stroke="#63b8ff" d="M443.92,-274.86C439.99,-278.7 430.1,-281.37 414.25,-281.37 385.27,-281.37 376.21,-272.43 387.08,-263.77"/>
<polygon fill="#63b8ff" stroke="#63b8ff" points="447.37,-274.23 441.75,-265.25 440.54,-275.77 447.37,-274.23"/>
</a>
</g>
</g>
<!-- Node47&#45;&gt;Node39 -->
<g id="edge30_Node000047_Node000039" class="edge">
<title>Node47&#45;&gt;Node39</title>
<g id="a_edge30_Node000047_Node000039"><a xlink:title=" ">
<path fill="none" stroke="#63b8ff" d="M686.09,-253C675.53,-253 664.8,-253 654.51,-253"/>
<polygon fill="#63b8ff" stroke="#63b8ff" points="685.92,-256.5 695.92,-253 685.92,-249.5 685.92,-256.5"/>
</a>
</g>
</g>
</g>
</svg>
