<?xml version="1.0" encoding="UTF-8" standalone="no"?>
<!DOCTYPE svg PUBLIC "-//W3C//DTD SVG 1.1//EN"
 "http://www.w3.org/Graphics/SVG/1.1/DTD/svg11.dtd">
<!-- Generated by graphviz version 13.1.2 (20250808.2320)
 -->
<!-- Title: m_active_button_array_set_length Pages: 1 -->
<svg width="738pt" height="195pt"
 viewBox="0.00 0.00 738.00 195.00" xmlns="http://www.w3.org/2000/svg" xmlns:xlink="http://www.w3.org/1999/xlink">
<g id="graph0" class="graph" transform="scale(1 1) rotate(0) translate(4 191.12)">
<title>m_active_button_array_set_length</title>
<!-- Node1 -->
<g id="Node000001" class="node">
<title>Node1</title>
<g id="a_Node000001"><a xlink:title=" ">
<polygon fill="#999999" stroke="#666666" points="729.5,-65.12 601,-65.12 601,-31.62 729.5,-31.62 729.5,-65.12"/>
<text xml:space="preserve" text-anchor="start" x="609" y="-51.62" font-family="Helvetica,sans-Serif" font-size="10.00">m_active_button_array</text>
<text xml:space="preserve" text-anchor="middle" x="665.25" y="-38.88" font-family="Helvetica,sans-Serif" font-size="10.00">_set_length</text>
</a>
</g>
</g>
<!-- Node2 -->
<g id="Node000002" class="node">
<title>Node2</title>
<g id="a_Node000002"><a xlink:href="m__profile__view_8c.html#a4e6ae6bda3b4e35b8ce1c137624e2b1a" target="_top" xlink:title=" ">
<polygon fill="white" stroke="#666666" points="565,-106.75 468,-106.75 468,-86 565,-86 565,-106.75"/>
<text xml:space="preserve" text-anchor="middle" x="516.5" y="-93.25" font-family="Helvetica,sans-Serif" font-size="10.00">init_profile_view</text>
</a>
</g>
</g>
<!-- Node1&#45;&gt;Node2 -->
<g id="edge1_Node000001_Node000002" class="edge">
<title>Node1&#45;&gt;Node2</title>
<g id="a_edge1_Node000001_Node000002"><a xlink:title=" ">
<path fill="none" stroke="#63b8ff" d="M601,-69.06C583.61,-74.75 565.46,-80.69 550.53,-85.57"/>
<polygon fill="#63b8ff" stroke="#63b8ff" points="601.83,-72.47 610.25,-66.04 599.65,-65.82 601.83,-72.47"/>
</a>
</g>
</g>
<!-- Node22 -->
<g id="Node000022" class="node">
<title>Node22</title>
<g id="a_Node000022"><a xlink:href="m__sequence__view_8c.html#aca8f9b5bdc8897b29eb2437c751d05fd" target="_top" xlink:title=" ">
<polygon fill="#fff0f0" stroke="red" points="112,-77.75 0,-77.75 0,-57 112,-57 112,-77.75"/>
<text xml:space="preserve" text-anchor="middle" x="56" y="-64.25" font-family="Helvetica,sans-Serif" font-size="10.00">init_sequence_view</text>
</a>
</g>
</g>
<!-- Node1&#45;&gt;Node22 -->
<g id="edge7_Node000001_Node000022" class="edge">
<title>Node1&#45;&gt;Node22</title>
<g id="a_edge7_Node000001_Node000022"><a xlink:title=" ">
<path fill="none" stroke="#63b8ff" d="M589.47,-50.71C465.78,-54.58 221.39,-62.23 112.09,-65.65"/>
<polygon fill="#63b8ff" stroke="#63b8ff" points="589.3,-54.22 599.18,-50.41 589.08,-47.23 589.3,-54.22"/>
</a>
</g>
</g>
<!-- Node23 -->
<g id="Node000023" class="node">
<title>Node23</title>
<g id="a_Node000023"><a xlink:href="m__ui_8c.html#a54f79f277b7d97da20f192e3bec8f3ec" target="_top" xlink:title=" ">
<polygon fill="white" stroke="#666666" points="559,-20.75 474,-20.75 474,0 559,0 559,-20.75"/>
<text xml:space="preserve" text-anchor="middle" x="516.5" y="-7.25" font-family="Helvetica,sans-Serif" font-size="10.00">init_test_page</text>
</a>
</g>
</g>
<!-- Node1&#45;&gt;Node23 -->
<g id="edge8_Node000001_Node000023" class="edge">
<title>Node1&#45;&gt;Node23</title>
<g id="a_edge8_Node000001_Node000023"><a xlink:title=" ">
<path fill="none" stroke="#63b8ff" d="M589.77,-29.09C579.22,-26.36 568.71,-23.63 559.09,-21.14"/>
<polygon fill="#63b8ff" stroke="#63b8ff" points="588.71,-32.43 599.27,-31.55 590.47,-25.65 588.71,-32.43"/>
</a>
</g>
</g>
<!-- Node3 -->
<g id="Node000003" class="node">
<title>Node3</title>
<g id="a_Node000003"><a xlink:href="m__profile__view_8c.html#aa40a3918b18bbfa3df5aa489d947258a" target="_top" xlink:title=" ">
<polygon fill="white" stroke="#666666" points="432,-115.75 301.25,-115.75 301.25,-95 432,-95 432,-115.75"/>
<text xml:space="preserve" text-anchor="middle" x="366.62" y="-102.25" font-family="Helvetica,sans-Serif" font-size="10.00">create_profile_view_for</text>
</a>
</g>
</g>
<!-- Node2&#45;&gt;Node3 -->
<g id="edge2_Node000002_Node000003" class="edge">
<title>Node2&#45;&gt;Node3</title>
<g id="a_edge2_Node000002_Node000003"><a xlink:title=" ">
<path fill="none" stroke="#63b8ff" d="M456.5,-99.97C448.57,-100.45 440.41,-100.95 432.39,-101.43"/>
<polygon fill="#63b8ff" stroke="#63b8ff" points="456.62,-103.47 466.39,-99.36 456.19,-96.48 456.62,-103.47"/>
</a>
</g>
</g>
<!-- Node4 -->
<g id="Node000004" class="node">
<title>Node4</title>
<g id="a_Node000004"><a xlink:href="m__profile_8c.html#a87f18b6c73975f1a163bc50254834b3c" target="_top" xlink:title=" ">
<polygon fill="white" stroke="#666666" points="261.12,-187.12 152.12,-187.12 152.12,-153.62 261.12,-153.62 261.12,-187.12"/>
<text xml:space="preserve" text-anchor="start" x="160.12" y="-173.62" font-family="Helvetica,sans-Serif" font-size="10.00">create_new_profile</text>
<text xml:space="preserve" text-anchor="middle" x="206.62" y="-160.88" font-family="Helvetica,sans-Serif" font-size="10.00">_with_teensy</text>
</a>
</g>
</g>
<!-- Node3&#45;&gt;Node4 -->
<g id="edge3_Node000003_Node000004" class="edge">
<title>Node3&#45;&gt;Node4</title>
<g id="a_edge3_Node000003_Node000004"><a xlink:title=" ">
<path fill="none" stroke="#63b8ff" d="M329.18,-120.37C305.41,-130.15 274.31,-142.94 249.52,-153.14"/>
<polygon fill="#63b8ff" stroke="#63b8ff" points="330.22,-123.73 338.13,-116.68 327.56,-117.25 330.22,-123.73"/>
</a>
</g>
</g>
<!-- Node5 -->
<g id="Node000005" class="node">
<title>Node5</title>
<g id="a_Node000005"><a xlink:href="m__files_8c.html#a8785e4c0fd9fa9638385ef725fe13adb" target="_top" xlink:title=" ">
<polygon fill="#fff0f0" stroke="red" points="263.38,-135.75 149.88,-135.75 149.88,-115 263.38,-115 263.38,-135.75"/>
<text xml:space="preserve" text-anchor="middle" x="206.62" y="-122.25" font-family="Helvetica,sans-Serif" font-size="10.00">load_saved_profiles</text>
</a>
</g>
</g>
<!-- Node3&#45;&gt;Node5 -->
<g id="edge4_Node000003_Node000005" class="edge">
<title>Node3&#45;&gt;Node5</title>
<g id="a_edge4_Node000003_Node000005"><a xlink:title=" ">
<path fill="none" stroke="#63b8ff" d="M289.73,-114.98C280.85,-116.11 271.93,-117.24 263.4,-118.31"/>
<polygon fill="#63b8ff" stroke="#63b8ff" points="289.92,-118.49 299.4,-113.76 289.04,-111.54 289.92,-118.49"/>
</a>
</g>
</g>
<!-- Node9 -->
<g id="Node000009" class="node">
<title>Node9</title>
<g id="a_Node000009"><a xlink:href="m__sequence__view_8c.html#a63043837686155ad8163844428d68553" target="_top" xlink:title=" ">
<polygon fill="#fff0f0" stroke="red" points="265.25,-96.75 148,-96.75 148,-76 265.25,-76 265.25,-96.75"/>
<text xml:space="preserve" text-anchor="middle" x="206.62" y="-83.25" font-family="Helvetica,sans-Serif" font-size="10.00">seq_view_clicked_cb</text>
</a>
</g>
</g>
<!-- Node3&#45;&gt;Node9 -->
<g id="edge5_Node000003_Node000009" class="edge">
<title>Node3&#45;&gt;Node9</title>
<g id="a_edge5_Node000003_Node000009"><a xlink:title=" ">
<path fill="none" stroke="#63b8ff" d="M289.59,-96.23C281.54,-95.26 273.45,-94.29 265.65,-93.35"/>
<polygon fill="#63b8ff" stroke="#63b8ff" points="289.06,-99.69 299.4,-97.41 289.89,-92.74 289.06,-99.69"/>
</a>
</g>
</g>
<!-- Node9&#45;&gt;Node22 -->
<g id="edge6_Node000009_Node000022" class="edge">
<title>Node9&#45;&gt;Node22</title>
<g id="a_edge6_Node000009_Node000022"><a xlink:title=" ">
<path fill="none" stroke="#63b8ff" d="M136.32,-77.52C128.18,-76.47 119.96,-75.42 112.05,-74.41"/>
<polygon fill="#63b8ff" stroke="#63b8ff" points="135.87,-80.99 146.24,-78.78 136.76,-74.04 135.87,-80.99"/>
</a>
</g>
</g>
</g>
</svg>
