<?xml version="1.0" encoding="UTF-8" standalone="no"?>
<!DOCTYPE svg PUBLIC "-//W3C//DTD SVG 1.1//EN"
 "http://www.w3.org/Graphics/SVG/1.1/DTD/svg11.dtd">
<!-- Generated by graphviz version 13.1.2 (20250808.2320)
 -->
<!-- Title: m_active_button_trigger_del_button_fade_out Pages: 1 -->
<svg width="463pt" height="132pt"
 viewBox="0.00 0.00 463.00 132.00" xmlns="http://www.w3.org/2000/svg" xmlns:xlink="http://www.w3.org/1999/xlink">
<g id="graph0" class="graph" transform="scale(1 1) rotate(0) translate(4 128.12)">
<title>m_active_button_trigger_del_button_fade_out</title>
<!-- Node1 -->
<g id="Node000001" class="node">
<title>Node1</title>
<g id="a_Node000001"><a xlink:title=" ">
<polygon fill="#999999" stroke="#666666" points="135.25,-72.12 0,-72.12 0,-38.62 135.25,-38.62 135.25,-72.12"/>
<text xml:space="preserve" text-anchor="start" x="8" y="-58.62" font-family="Helvetica,sans-Serif" font-size="10.00">m_active_button_trigger</text>
<text xml:space="preserve" text-anchor="middle" x="67.62" y="-45.88" font-family="Helvetica,sans-Serif" font-size="10.00">_del_button_fade_out</text>
</a>
</g>
</g>
<!-- Node2 -->
<g id="Node000002" class="node">
<title>Node2</title>
<g id="a_Node000002"><a xlink:href="m__button_8c.html#ac4a839eefb4f982796a0f8462e5318e7" target="_top" xlink:title=" ">
<polygon fill="white" stroke="#666666" points="291.88,-124.12 173.88,-124.12 173.88,-90.62 291.88,-90.62 291.88,-124.12"/>
<text xml:space="preserve" text-anchor="start" x="181.88" y="-110.62" font-family="Helvetica,sans-Serif" font-size="10.00">m_active_button_del</text>
<text xml:space="preserve" text-anchor="middle" x="232.88" y="-97.88" font-family="Helvetica,sans-Serif" font-size="10.00">_button_fade_cb</text>
</a>
</g>
</g>
<!-- Node1&#45;&gt;Node2 -->
<g id="edge1_Node000001_Node000002" class="edge">
<title>Node1&#45;&gt;Node2</title>
<g id="a_edge1_Node000001_Node000002"><a xlink:title=" ">
<path fill="none" stroke="#63b8ff" d="M122.53,-72.55C136.81,-77.09 152.36,-82.05 167.15,-86.76"/>
<polygon fill="#63b8ff" stroke="#63b8ff" points="165.71,-89.97 176.3,-89.67 167.84,-83.3 165.71,-89.97"/>
</a>
</g>
</g>
<!-- Node4 -->
<g id="Node000004" class="node">
<title>Node4</title>
<g id="a_Node000004"><a xlink:href="m__button_8c.html#a62fa42536c3471ca56e21fbec60d7ab0" target="_top" xlink:title=" ">
<polygon fill="white" stroke="#666666" points="294.5,-72.12 171.25,-72.12 171.25,-38.62 294.5,-38.62 294.5,-72.12"/>
<text xml:space="preserve" text-anchor="start" x="179.25" y="-58.62" font-family="Helvetica,sans-Serif" font-size="10.00">m_active_button_del</text>
<text xml:space="preserve" text-anchor="middle" x="232.88" y="-45.88" font-family="Helvetica,sans-Serif" font-size="10.00">_button_faded_out_cb</text>
</a>
</g>
</g>
<!-- Node1&#45;&gt;Node4 -->
<g id="edge3_Node000001_Node000004" class="edge">
<title>Node1&#45;&gt;Node4</title>
<g id="a_edge3_Node000001_Node000004"><a xlink:title=" ">
<path fill="none" stroke="#63b8ff" d="M135.5,-55.38C143.46,-55.38 151.61,-55.38 159.64,-55.38"/>
<polygon fill="#63b8ff" stroke="#63b8ff" points="159.37,-58.88 169.37,-55.38 159.37,-51.88 159.37,-58.88"/>
</a>
</g>
</g>
<!-- Node6 -->
<g id="Node000006" class="node">
<title>Node6</title>
<g id="a_Node000006"><a xlink:href="m__button_8c.html#a723549b2005d922cf14dc4ae275791b9" target="_top" xlink:title=" ">
<polygon fill="white" stroke="#666666" points="283.25,-20.75 182.5,-20.75 182.5,0 283.25,0 283.25,-20.75"/>
<text xml:space="preserve" text-anchor="middle" x="232.88" y="-7.25" font-family="Helvetica,sans-Serif" font-size="10.00">m_button_unhide</text>
</a>
</g>
</g>
<!-- Node1&#45;&gt;Node6 -->
<g id="edge5_Node000001_Node000006" class="edge">
<title>Node1&#45;&gt;Node6</title>
<g id="a_edge5_Node000001_Node000006"><a xlink:title=" ">
<path fill="none" stroke="#63b8ff" d="M130.81,-38.23C147.65,-33.59 165.66,-28.63 181.74,-24.19"/>
<polygon fill="#63b8ff" stroke="#63b8ff" points="182.36,-27.65 191.07,-21.62 180.5,-20.91 182.36,-27.65"/>
</a>
</g>
</g>
<!-- Node3 -->
<g id="Node000003" class="node">
<title>Node3</title>
<g id="a_Node000003"><a xlink:href="m__button_8c.html#ad914219bc137c643895e8ee782996868" target="_top" xlink:title=" ">
<polygon fill="white" stroke="#666666" points="454.5,-117.75 330.5,-117.75 330.5,-97 454.5,-97 454.5,-117.75"/>
<text xml:space="preserve" text-anchor="middle" x="392.5" y="-104.25" font-family="Helvetica,sans-Serif" font-size="10.00">m_button_set_opacity</text>
</a>
</g>
</g>
<!-- Node2&#45;&gt;Node3 -->
<g id="edge2_Node000002_Node000003" class="edge">
<title>Node2&#45;&gt;Node3</title>
<g id="a_edge2_Node000002_Node000003"><a xlink:title=" ">
<path fill="none" stroke="#63b8ff" d="M292.12,-107.38C300.82,-107.38 309.87,-107.38 318.82,-107.38"/>
<polygon fill="#63b8ff" stroke="#63b8ff" points="318.54,-110.88 328.54,-107.38 318.54,-103.88 318.54,-110.88"/>
</a>
</g>
</g>
<!-- Node5 -->
<g id="Node000005" class="node">
<title>Node5</title>
<g id="a_Node000005"><a xlink:href="m__button_8c.html#ad2b8f629eb674e007a829abc8d22dd49" target="_top" xlink:title=" ">
<polygon fill="white" stroke="#666666" points="436.88,-65.75 348.12,-65.75 348.12,-45 436.88,-45 436.88,-65.75"/>
<text xml:space="preserve" text-anchor="middle" x="392.5" y="-52.25" font-family="Helvetica,sans-Serif" font-size="10.00">m_button_hide</text>
</a>
</g>
</g>
<!-- Node4&#45;&gt;Node5 -->
<g id="edge4_Node000004_Node000005" class="edge">
<title>Node4&#45;&gt;Node5</title>
<g id="a_edge4_Node000004_Node000005"><a xlink:title=" ">
<path fill="none" stroke="#63b8ff" d="M294.82,-55.38C308.49,-55.38 322.91,-55.38 336.33,-55.38"/>
<polygon fill="#63b8ff" stroke="#63b8ff" points="336.3,-58.88 346.3,-55.38 336.3,-51.88 336.3,-58.88"/>
</a>
</g>
</g>
</g>
</svg>
