<?xml version="1.0" encoding="UTF-8" standalone="no"?>
<!DOCTYPE svg PUBLIC "-//W3C//DTD SVG 1.1//EN"
 "http://www.w3.org/Graphics/SVG/1.1/DTD/svg11.dtd">
<!-- Generated by graphviz version 13.1.2 (20250808.2320)
 -->
<!-- Title: m_active_button_del_cb Pages: 1 -->
<!--zoomable 128 -->

<svg id="main" version="1.1" xmlns="http://www.w3.org/2000/svg" xmlns:xlink="http://www.w3.org/1999/xlink" xml:space="preserve" onload="init(evt)">

<style type="text/css"><![CDATA[
.node, .edge {opacity: 0.7;}
.node.selected, .edge.selected {opacity: 1;}
.edge:hover path { stroke: red; }
.edge:hover polygon { stroke: red; fill: red; }
]]></style>

<defs>
  <circle id="rim" cx="0" cy="0" r="7"/>
  <circle id="rim2" cx="0" cy="0" r="3.5"/>
  <g id="zoomPlus">
    <use xlink:href="#rim" fill="#404040"><set attributeName="fill" to="#808080" begin="zoomplus.mouseover" end="zoomplus.mouseout"/></use>
    <path d="M-4,0h8M0,-4v8" fill="none" stroke="white" stroke-width="1.5" pointer-events="none"/>
  </g>
  <g id="zoomMin">
    <use xlink:href="#rim" fill="#404040"><set attributeName="fill" to="#808080" begin="zoomminus.mouseover" end="zoomminus.mouseout"/></use>
    <path d="M-4,0h8" fill="none" stroke="white" stroke-width="1.5" pointer-events="none"/>
  </g>
  <g id="arrowUp" transform="translate(30 24)">
    <use xlink:href="#rim"/>
    <path pointer-events="none" fill="none" stroke="white" stroke-width="1.5" d="M0,-3.0v7 M-2.5,-0.5L0,-3.0L2.5,-0.5"/>
  </g>
  <g id="arrowRight" transform="rotate(90) translate(36 -43)">
    <use xlink:href="#rim"/>
    <path pointer-events="none" fill="none" stroke="white" stroke-width="1.5" d="M0,-3.0v7 M-2.5,-0.5L0,-3.0L2.5,-0.5"/>
  </g>
  <g id="arrowDown" transform="rotate(180) translate(-30 -48)">
    <use xlink:href="#rim"/>
    <path pointer-events="none" fill="none" stroke="white" stroke-width="1.5" d="M0,-3.0v7 M-2.5,-0.5L0,-3.0L2.5,-0.5"/>
  </g>
  <g id="arrowLeft" transform="rotate(270) translate(-36 17)">
    <use xlink:href="#rim"/>
    <path pointer-events="none" fill="none" stroke="white" stroke-width="1.5" d="M0,-3.0v7 M-2.5,-0.5L0,-3.0L2.5,-0.5"/>
  </g>
  <g id="resetDef">
    <use xlink:href="#rim2" fill="#404040"><set attributeName="fill" to="#808080" begin="reset.mouseover" end="reset.mouseout"/></use>
  </g>
</defs>
<script type="application/ecmascript">
var viewWidth = 648;
var viewHeight = 128;
var sectionId = 'dynsection-36';
</script>
<script type="application/ecmascript" xlink:href="svg.min.js"/>
<svg id="graph" class="graph">
<g id="viewport">
<title>m_active_button_del_cb</title>
<!-- Node1 -->
<g id="Node000001" class="node">
<title>Node1</title>
<g id="a_Node000001"><a xlink:title=" ">
<polygon fill="#999999" stroke="#666666" points="134.5,-87.75 0,-87.75 0,-67 134.5,-67 134.5,-87.75"/>
<text xml:space="preserve" text-anchor="middle" x="67.25" y="-74.25" font-family="Helvetica,sans-Serif" font-size="10.00">m_active_button_del_cb</text>
</a>
</g>
</g>
<!-- Node2 -->
<g id="Node000002" class="node">
<title>Node2</title>
<g id="a_Node000002"><a xlink:href="m__button_8c.html#aad38fccbad65898b1dbf74316f5bf81d" target="_top" xlink:title=" ">
<polygon fill="white" stroke="#666666" points="305.75,-94.12 170.5,-94.12 170.5,-60.62 305.75,-60.62 305.75,-94.12"/>
<text xml:space="preserve" text-anchor="start" x="178.5" y="-80.62" font-family="Helvetica,sans-Serif" font-size="10.00">m_active_button_trigger</text>
<text xml:space="preserve" text-anchor="middle" x="238.12" y="-67.88" font-family="Helvetica,sans-Serif" font-size="10.00">_delete_anim</text>
</a>
</g>
</g>
<!-- Node1&#45;&gt;Node2 -->
<g id="edge1_Node000001_Node000002" class="edge">
<title>Node1&#45;&gt;Node2</title>
<g id="a_edge1_Node000001_Node000002"><a xlink:title=" ">
<path fill="none" stroke="#63b8ff" d="M134.99,-77.38C142.74,-77.38 150.69,-77.38 158.57,-77.38"/>
<polygon fill="#63b8ff" stroke="#63b8ff" points="158.52,-80.88 168.52,-77.38 158.52,-73.88 158.52,-80.88"/>
</a>
</g>
</g>
<!-- Node3 -->
<g id="Node000003" class="node">
<title>Node3</title>
<g id="a_Node000003"><a xlink:href="m__button_8c.html#a47d3b0732cd5e11e34fc81838bfff01b" target="_top" xlink:title=" ">
<polygon fill="white" stroke="#666666" points="475.5,-120.12 341.75,-120.12 341.75,-86.62 475.5,-86.62 475.5,-120.12"/>
<text xml:space="preserve" text-anchor="start" x="349.75" y="-106.62" font-family="Helvetica,sans-Serif" font-size="10.00">m_active_button_delete</text>
<text xml:space="preserve" text-anchor="middle" x="408.62" y="-93.88" font-family="Helvetica,sans-Serif" font-size="10.00">_anim_cb</text>
</a>
</g>
</g>
<!-- Node2&#45;&gt;Node3 -->
<g id="edge2_Node000002_Node000003" class="edge">
<title>Node2&#45;&gt;Node3</title>
<g id="a_edge2_Node000002_Node000003"><a xlink:title=" ">
<path fill="none" stroke="#63b8ff" d="M306.2,-87.73C314.06,-88.94 322.13,-90.18 330.12,-91.42"/>
<polygon fill="#63b8ff" stroke="#63b8ff" points="329.41,-94.85 339.83,-92.91 330.48,-87.93 329.41,-94.85"/>
</a>
</g>
</g>
<!-- Node5 -->
<g id="Node000005" class="node">
<title>Node5</title>
<g id="a_Node000005"><a xlink:href="m__button_8c.html#aa4b3495a4356ccb537ce93b53b6e3364" target="_top" xlink:title=" ">
<polygon fill="white" stroke="#666666" points="475.5,-68.12 341.75,-68.12 341.75,-34.62 475.5,-34.62 475.5,-68.12"/>
<text xml:space="preserve" text-anchor="start" x="349.75" y="-54.62" font-family="Helvetica,sans-Serif" font-size="10.00">m_active_button_delete</text>
<text xml:space="preserve" text-anchor="middle" x="408.62" y="-41.88" font-family="Helvetica,sans-Serif" font-size="10.00">_anim_ready_cb</text>
</a>
</g>
</g>
<!-- Node2&#45;&gt;Node5 -->
<g id="edge4_Node000002_Node000005" class="edge">
<title>Node2&#45;&gt;Node5</title>
<g id="a_edge4_Node000002_Node000005"><a xlink:title=" ">
<path fill="none" stroke="#63b8ff" d="M306.2,-67.02C314.06,-65.81 322.13,-64.57 330.12,-63.33"/>
<polygon fill="#63b8ff" stroke="#63b8ff" points="330.48,-66.82 339.83,-61.84 329.41,-59.9 330.48,-66.82"/>
</a>
</g>
</g>
<!-- Node4 -->
<g id="Node000004" class="node">
<title>Node4</title>
<g id="a_Node000004"><a xlink:href="m__button_8c.html#ad914219bc137c643895e8ee782996868" target="_top" xlink:title=" ">
<polygon fill="white" stroke="#666666" points="637.75,-113.75 513.75,-113.75 513.75,-93 637.75,-93 637.75,-113.75"/>
<text xml:space="preserve" text-anchor="middle" x="575.75" y="-100.25" font-family="Helvetica,sans-Serif" font-size="10.00">m_button_set_opacity</text>
</a>
</g>
</g>
<!-- Node3&#45;&gt;Node4 -->
<g id="edge3_Node000003_Node000004" class="edge">
<title>Node3&#45;&gt;Node4</title>
<g id="a_edge3_Node000003_Node000004"><a xlink:title=" ">
<path fill="none" stroke="#63b8ff" d="M475.84,-103.38C484.45,-103.38 493.3,-103.38 502.01,-103.38"/>
<polygon fill="#63b8ff" stroke="#63b8ff" points="501.83,-106.88 511.83,-103.38 501.83,-99.88 501.83,-106.88"/>
</a>
</g>
</g>
<!-- Node6 -->
<g id="Node000006" class="node">
<title>Node6</title>
<g id="a_Node000006"><a xlink:href="m__button_8c.html#a10d2fa5e282222e52b847976348e40ff" target="_top" xlink:title=" ">
<polygon fill="#fff0f0" stroke="red" points="640,-72.12 511.5,-72.12 511.5,-38.62 640,-38.62 640,-72.12"/>
<text xml:space="preserve" text-anchor="start" x="519.5" y="-58.62" font-family="Helvetica,sans-Serif" font-size="10.00">m_active_button_array</text>
<text xml:space="preserve" text-anchor="middle" x="575.75" y="-45.88" font-family="Helvetica,sans-Serif" font-size="10.00">_remove</text>
</a>
</g>
</g>
<!-- Node5&#45;&gt;Node6 -->
<g id="edge5_Node000005_Node000006" class="edge">
<title>Node5&#45;&gt;Node6</title>
<g id="a_edge5_Node000005_Node000006"><a xlink:title=" ">
<path fill="none" stroke="#63b8ff" d="M475.84,-52.98C483.76,-53.17 491.9,-53.37 499.94,-53.56"/>
<polygon fill="#63b8ff" stroke="#63b8ff" points="499.61,-57.06 509.69,-53.8 499.78,-50.06 499.61,-57.06"/>
</a>
</g>
</g>
<!-- Node11 -->
<g id="Node000011" class="node">
<title>Node11</title>
<g id="a_Node000011"><a xlink:href="m__button_8c.html#abf1ae5c842a09fad959ceb7062cec20f" target="_top" xlink:title=" ">
<polygon fill="#fff0f0" stroke="red" points="637,-20.75 514.5,-20.75 514.5,0 637,0 637,-20.75"/>
<text xml:space="preserve" text-anchor="middle" x="575.75" y="-7.25" font-family="Helvetica,sans-Serif" font-size="10.00">m_active_button_free</text>
</a>
</g>
</g>
<!-- Node5&#45;&gt;Node11 -->
<g id="edge6_Node000005_Node000011" class="edge">
<title>Node5&#45;&gt;Node11</title>
<g id="a_edge6_Node000005_Node000011"><a xlink:title=" ">
<path fill="none" stroke="#63b8ff" d="M475.84,-34.93C490.56,-31.28 506.01,-27.44 520.21,-23.92"/>
<polygon fill="#63b8ff" stroke="#63b8ff" points="520.95,-27.34 529.82,-21.53 519.27,-20.55 520.95,-27.34"/>
</a>
</g>
</g>
</g>
</svg>

<g id="navigator" transform="translate(0 0)" fill="#404254">
  <rect fill="#f2f5e9" fill-opacity="0.5" stroke="#606060" stroke-width=".5" x="0" y="0" width="60" height="60"/>
  <use id="zoomplus" xlink:href="#zoomPlus" x="17" y="9" onmousedown="handleZoom(evt,'in')"/>
  <use id="zoomminus" xlink:href="#zoomMin" x="42" y="9" onmousedown="handleZoom(evt,'out')"/>
  <use id="reset" xlink:href="#resetDef" x="30" y="36" onmousedown="handleReset()"/>
   <use id="arrowup" xlink:href="#arrowUp" x="0" y="0" onmousedown="handlePan(0,-1)"/>
  <use id="arrowright" xlink:href="#arrowRight" x="0" y="0" onmousedown="handlePan(1,0)"/>
  <use id="arrowdown" xlink:href="#arrowDown" x="0" y="0" onmousedown="handlePan(0,1)"/>
  <use id="arrowleft" xlink:href="#arrowLeft" x="0" y="0" onmousedown="handlePan(-1,0)"/>
</g>
<svg viewBox="0 0 15 15" width="100%" height="30px" preserveAspectRatio="xMaxYMin meet">
 <g id="arrow_out" transform="scale(0.3 0.3)">
  <a xlink:href="m__button_8c_ad2532a0709291cc957bb3fdd622a6652_cgraph_org.svg" target="_base">
   <rect id="button" ry="5" rx="5" y="6" x="6" height="38" width="38"
        fill="#f2f5e9" fill-opacity="0.5" stroke="#606060" stroke-width="1.0"/>
   <path id="arrow"
     d="M 11.500037,31.436501 C 11.940474,20.09759 22.043105,11.32322 32.158766,21.979434 L 37.068811,17.246167 C 37.068811,17.246167 37.088388,32 37.088388,32 L 22.160133,31.978069 C 22.160133,31.978069 26.997745,27.140456 26.997745,27.140456 C 18.528582,18.264221 13.291696,25.230495 11.500037,31.436501 z"
     style="fill:#404040;"/>
  </a>
 </g>
</svg>

<style type='text/css'>
<![CDATA[
[data-mouse-over-selected='false'] { opacity: 0.7; }
[data-mouse-over-selected='true']  { opacity: 1.0; }
]]>
</style>
<script type="application/ecmascript"><![CDATA[
document.addEventListener('DOMContentLoaded', (event) => {
  highlightEdges();
  highlightAdjacentNodes();
});
]]></script>
</svg>
