<?xml version="1.0" encoding="UTF-8" standalone="no"?>
<!DOCTYPE svg PUBLIC "-//W3C//DTD SVG 1.1//EN"
 "http://www.w3.org/Graphics/SVG/1.1/DTD/svg11.dtd">
<!-- Generated by graphviz version 13.1.2 (20250808.2320)
 -->
<!-- Title: m_button_reset_state Pages: 1 -->
<svg width="765pt" height="106pt"
 viewBox="0.00 0.00 765.00 106.00" xmlns="http://www.w3.org/2000/svg" xmlns:xlink="http://www.w3.org/1999/xlink">
<g id="graph0" class="graph" transform="scale(1 1) rotate(0) translate(4 101.88)">
<title>m_button_reset_state</title>
<!-- Node1 -->
<g id="Node000001" class="node">
<title>Node1</title>
<g id="a_Node000001"><a xlink:title=" ">
<polygon fill="#999999" stroke="#666666" points="757.25,-62.5 634.75,-62.5 634.75,-41.75 757.25,-41.75 757.25,-62.5"/>
<text xml:space="preserve" text-anchor="middle" x="696" y="-49" font-family="Helvetica,sans-Serif" font-size="10.00">m_button_reset_state</text>
</a>
</g>
</g>
<!-- Node2 -->
<g id="Node000002" class="node">
<title>Node2</title>
<g id="a_Node000002"><a xlink:href="m__button_8c.html#a1046ec98100bf605f32a80b293ec811a" target="_top" xlink:title=" ">
<polygon fill="white" stroke="#666666" points="589.75,-97.88 462,-97.88 462,-64.38 589.75,-64.38 589.75,-97.88"/>
<text xml:space="preserve" text-anchor="start" x="470" y="-84.38" font-family="Helvetica,sans-Serif" font-size="10.00">m_active_button_reset</text>
<text xml:space="preserve" text-anchor="middle" x="525.88" y="-71.62" font-family="Helvetica,sans-Serif" font-size="10.00">_del_button</text>
</a>
</g>
</g>
<!-- Node1&#45;&gt;Node2 -->
<g id="edge1_Node000001_Node000002" class="edge">
<title>Node1&#45;&gt;Node2</title>
<g id="a_edge1_Node000001_Node000002"><a xlink:title=" ">
<path fill="none" stroke="#63b8ff" d="M623.01,-64.54C612.04,-66.43 600.79,-68.38 590.03,-70.23"/>
<polygon fill="#63b8ff" stroke="#63b8ff" points="623.55,-68 632.81,-62.85 622.36,-61.1 623.55,-68"/>
</a>
</g>
</g>
<!-- Node21 -->
<g id="Node000021" class="node">
<title>Node21</title>
<g id="a_Node000021"><a xlink:href="m__button_8c.html#afe632e3863bfa659738f2ac045098544" target="_top" xlink:title=" ">
<polygon fill="white" stroke="#666666" points="598.75,-46.25 453,-46.25 453,0 598.75,0 598.75,-46.25"/>
<text xml:space="preserve" text-anchor="start" x="461" y="-32.75" font-family="Helvetica,sans-Serif" font-size="10.00">m_active_button_swap</text>
<text xml:space="preserve" text-anchor="start" x="461" y="-20" font-family="Helvetica,sans-Serif" font-size="10.00">_del_button_for_persistent</text>
<text xml:space="preserve" text-anchor="middle" x="525.88" y="-7.25" font-family="Helvetica,sans-Serif" font-size="10.00">_unclickable</text>
</a>
</g>
</g>
<!-- Node1&#45;&gt;Node21 -->
<g id="edge6_Node000001_Node000021" class="edge">
<title>Node1&#45;&gt;Node21</title>
<g id="a_edge6_Node000001_Node000021"><a xlink:title=" ">
<path fill="none" stroke="#63b8ff" d="M623.21,-39.74C615.27,-38.37 607.17,-36.98 599.23,-35.61"/>
<polygon fill="#63b8ff" stroke="#63b8ff" points="622.36,-43.15 632.81,-41.4 623.55,-36.25 622.36,-43.15"/>
</a>
</g>
</g>
<!-- Node3 -->
<g id="Node000003" class="node">
<title>Node3</title>
<g id="a_Node000003"><a xlink:href="m__sequence__view_8c.html#aa97e3f2de03cf8443b11f65520f6b387" target="_top" xlink:title=" ">
<polygon fill="white" stroke="#666666" points="417,-68.88 289.25,-68.88 289.25,-35.38 417,-35.38 417,-68.88"/>
<text xml:space="preserve" text-anchor="start" x="297.25" y="-55.38" font-family="Helvetica,sans-Serif" font-size="10.00">sequence_view_profile</text>
<text xml:space="preserve" text-anchor="middle" x="353.12" y="-42.62" font-family="Helvetica,sans-Serif" font-size="10.00">_button_rep_update</text>
</a>
</g>
</g>
<!-- Node2&#45;&gt;Node3 -->
<g id="edge2_Node000002_Node000003" class="edge">
<title>Node2&#45;&gt;Node3</title>
<g id="a_edge2_Node000002_Node000003"><a xlink:title=" ">
<path fill="none" stroke="#63b8ff" d="M450.73,-68.53C439.57,-66.64 428.15,-64.7 417.25,-62.85"/>
<polygon fill="#63b8ff" stroke="#63b8ff" points="449.84,-71.93 460.29,-70.16 451.01,-65.03 449.84,-71.93"/>
</a>
</g>
</g>
<!-- Node4 -->
<g id="Node000004" class="node">
<title>Node4</title>
<g id="a_Node000004"><a xlink:href="m__sequence__view_8c.html#aa023b6efccc9528b27b31dcf25d1981a" target="_top" xlink:title=" ">
<polygon fill="#fff0f0" stroke="red" points="142,-62.5 0,-62.5 0,-41.75 142,-41.75 142,-62.5"/>
<text xml:space="preserve" text-anchor="middle" x="71" y="-49" font-family="Helvetica,sans-Serif" font-size="10.00">configure_sequence_view</text>
</a>
</g>
</g>
<!-- Node3&#45;&gt;Node4 -->
<g id="edge3_Node000003_Node000004" class="edge">
<title>Node3&#45;&gt;Node4</title>
<g id="a_edge3_Node000003_Node000004"><a xlink:title=" ">
<path fill="none" stroke="#63b8ff" d="M277.64,-52.12C235.7,-52.12 183.62,-52.12 142.37,-52.12"/>
<polygon fill="#63b8ff" stroke="#63b8ff" points="277.4,-55.63 287.4,-52.13 277.4,-48.63 277.4,-55.63"/>
</a>
</g>
</g>
<!-- Node20 -->
<g id="Node000020" class="node">
<title>Node20</title>
<g id="a_Node000020"><a xlink:href="m__sequence__view_8c.html#a83d1a352af6a3932ce4d08e01f7d8d8a" target="_top" xlink:title=" ">
<polygon fill="white" stroke="#666666" points="253.25,-43.5 178,-43.5 178,-22.75 253.25,-22.75 253.25,-43.5"/>
<text xml:space="preserve" text-anchor="middle" x="215.62" y="-30" font-family="Helvetica,sans-Serif" font-size="10.00">seq_plus_cb</text>
</a>
</g>
</g>
<!-- Node3&#45;&gt;Node20 -->
<g id="edge4_Node000003_Node000020" class="edge">
<title>Node3&#45;&gt;Node20</title>
<g id="a_edge4_Node000003_Node000020"><a xlink:title=" ">
<path fill="none" stroke="#63b8ff" d="M278,-41.73C269.56,-40.55 261.25,-39.38 253.61,-38.31"/>
<polygon fill="#63b8ff" stroke="#63b8ff" points="277.25,-45.16 287.64,-43.08 278.22,-38.23 277.25,-45.16"/>
</a>
</g>
</g>
<!-- Node20&#45;&gt;Node4 -->
<g id="edge5_Node000020_Node000004" class="edge">
<title>Node20&#45;&gt;Node4</title>
<g id="a_edge5_Node000020_Node000004"><a xlink:title=" ">
<path fill="none" stroke="#63b8ff" d="M166.22,-39.57C158.53,-40.6 150.44,-41.68 142.37,-42.75"/>
<polygon fill="#63b8ff" stroke="#63b8ff" points="166.57,-43.06 176.02,-38.27 165.65,-36.12 166.57,-43.06"/>
</a>
</g>
</g>
<!-- Node21&#45;&gt;Node3 -->
<g id="edge7_Node000021_Node000003" class="edge">
<title>Node21&#45;&gt;Node3</title>
<g id="a_edge7_Node000021_Node000003"><a xlink:title=" ">
<path fill="none" stroke="#63b8ff" d="M441.77,-37.24C433.54,-38.64 425.28,-40.04 417.29,-41.4"/>
<polygon fill="#63b8ff" stroke="#63b8ff" points="442.19,-40.72 451.46,-35.59 441.02,-33.82 442.19,-40.72"/>
</a>
</g>
</g>
</g>
</svg>
