<?xml version="1.0" encoding="UTF-8" standalone="no"?>
<!DOCTYPE svg PUBLIC "-//W3C//DTD SVG 1.1//EN"
 "http://www.w3.org/Graphics/SVG/1.1/DTD/svg11.dtd">
<!-- Generated by graphviz version 13.1.2 (20250808.2320)
 -->
<!-- Title: m_active_button_delete_anim_ready_cb Pages: 1 -->
<svg width="632pt" height="124pt"
 viewBox="0.00 0.00 632.00 124.00" xmlns="http://www.w3.org/2000/svg" xmlns:xlink="http://www.w3.org/1999/xlink">
<g id="graph0" class="graph" transform="scale(1 1) rotate(0) translate(4 120.12)">
<title>m_active_button_delete_anim_ready_cb</title>
<!-- Node1 -->
<g id="Node000001" class="node">
<title>Node1</title>
<g id="a_Node000001"><a xlink:title=" ">
<polygon fill="#999999" stroke="#666666" points="133.75,-58.12 0,-58.12 0,-24.62 133.75,-24.62 133.75,-58.12"/>
<text xml:space="preserve" text-anchor="start" x="8" y="-44.62" font-family="Helvetica,sans-Serif" font-size="10.00">m_active_button_delete</text>
<text xml:space="preserve" text-anchor="middle" x="66.88" y="-31.88" font-family="Helvetica,sans-Serif" font-size="10.00">_anim_ready_cb</text>
</a>
</g>
</g>
<!-- Node2 -->
<g id="Node000002" class="node">
<title>Node2</title>
<g id="a_Node000002"><a xlink:href="m__button_8c.html#a10d2fa5e282222e52b847976348e40ff" target="_top" xlink:title=" ">
<polygon fill="white" stroke="#666666" points="298.25,-85.12 169.75,-85.12 169.75,-51.62 298.25,-51.62 298.25,-85.12"/>
<text xml:space="preserve" text-anchor="start" x="177.75" y="-71.62" font-family="Helvetica,sans-Serif" font-size="10.00">m_active_button_array</text>
<text xml:space="preserve" text-anchor="middle" x="234" y="-58.88" font-family="Helvetica,sans-Serif" font-size="10.00">_remove</text>
</a>
</g>
</g>
<!-- Node1&#45;&gt;Node2 -->
<g id="edge1_Node000001_Node000002" class="edge">
<title>Node1&#45;&gt;Node2</title>
<g id="a_edge1_Node000001_Node000002"><a xlink:title=" ">
<path fill="none" stroke="#63b8ff" d="M134.09,-52.2C142.01,-53.5 150.15,-54.83 158.19,-56.14"/>
<polygon fill="#63b8ff" stroke="#63b8ff" points="157.53,-59.58 167.96,-57.74 158.66,-52.67 157.53,-59.58"/>
</a>
</g>
</g>
<!-- Node7 -->
<g id="Node000007" class="node">
<title>Node7</title>
<g id="a_Node000007"><a xlink:href="m__button_8c.html#abf1ae5c842a09fad959ceb7062cec20f" target="_top" xlink:title=" ">
<polygon fill="white" stroke="#666666" points="295.25,-29.75 172.75,-29.75 172.75,-9 295.25,-9 295.25,-29.75"/>
<text xml:space="preserve" text-anchor="middle" x="234" y="-16.25" font-family="Helvetica,sans-Serif" font-size="10.00">m_active_button_free</text>
</a>
</g>
</g>
<!-- Node1&#45;&gt;Node7 -->
<g id="edge5_Node000001_Node000007" class="edge">
<title>Node1&#45;&gt;Node7</title>
<g id="a_edge5_Node000001_Node000007"><a xlink:title=" ">
<path fill="none" stroke="#63b8ff" d="M134.09,-32.55C142.98,-31.37 152.14,-30.15 161.13,-28.95"/>
<polygon fill="#63b8ff" stroke="#63b8ff" points="161.44,-32.44 170.89,-27.65 160.51,-25.5 161.44,-32.44"/>
</a>
</g>
</g>
<!-- Node3 -->
<g id="Node000003" class="node">
<title>Node3</title>
<g id="a_Node000003"><a xlink:href="m__button_8c.html#a5d64db3a975ca74159c51d38dba5c3ea" target="_top" xlink:title=" ">
<polygon fill="white" stroke="#666666" points="452.25,-90.12 334.25,-90.12 334.25,-56.62 452.25,-56.62 452.25,-90.12"/>
<text xml:space="preserve" text-anchor="start" x="342.25" y="-76.62" font-family="Helvetica,sans-Serif" font-size="10.00">m_active_button_set</text>
<text xml:space="preserve" text-anchor="middle" x="393.25" y="-63.88" font-family="Helvetica,sans-Serif" font-size="10.00">_index</text>
</a>
</g>
</g>
<!-- Node2&#45;&gt;Node3 -->
<g id="edge2_Node000002_Node000003" class="edge">
<title>Node2&#45;&gt;Node3</title>
<g id="a_edge2_Node000002_Node000003"><a xlink:title=" ">
<path fill="none" stroke="#63b8ff" d="M298.51,-70.39C306.35,-70.64 314.41,-70.9 322.34,-71.15"/>
<polygon fill="#63b8ff" stroke="#63b8ff" points="322.22,-74.65 332.33,-71.47 322.45,-67.65 322.22,-74.65"/>
</a>
</g>
</g>
<!-- Node4 -->
<g id="Node000004" class="node">
<title>Node4</title>
<g id="a_Node000004"><a xlink:href="m__button_8c.html#a01977bd5b566d44470da5c8d5bb9f3c7" target="_top" xlink:title=" ">
<polygon fill="white" stroke="#666666" points="620.12,-116.12 491.62,-116.12 491.62,-82.62 620.12,-82.62 620.12,-116.12"/>
<text xml:space="preserve" text-anchor="start" x="499.62" y="-102.62" font-family="Helvetica,sans-Serif" font-size="10.00">m_active_button_array</text>
<text xml:space="preserve" text-anchor="middle" x="555.88" y="-89.88" font-family="Helvetica,sans-Serif" font-size="10.00">_index_y_position</text>
</a>
</g>
</g>
<!-- Node3&#45;&gt;Node4 -->
<g id="edge3_Node000003_Node000004" class="edge">
<title>Node3&#45;&gt;Node4</title>
<g id="a_edge3_Node000003_Node000004"><a xlink:title=" ">
<path fill="none" stroke="#63b8ff" d="M452.69,-82.84C461.62,-84.28 470.94,-85.79 480.16,-87.28"/>
<polygon fill="#63b8ff" stroke="#63b8ff" points="479.4,-90.7 489.83,-88.85 480.52,-83.79 479.4,-90.7"/>
</a>
</g>
</g>
<!-- Node5 -->
<g id="Node000005" class="node">
<title>Node5</title>
<g id="a_Node000005"><a xlink:href="m__button_8c.html#a48f24f48779e826679c7cb4697395e5b" target="_top" xlink:title=" ">
<polygon fill="#fff0f0" stroke="red" points="623.5,-64.12 488.25,-64.12 488.25,-30.62 623.5,-30.62 623.5,-64.12"/>
<text xml:space="preserve" text-anchor="start" x="496.25" y="-50.62" font-family="Helvetica,sans-Serif" font-size="10.00">m_active_button_trigger</text>
<text xml:space="preserve" text-anchor="middle" x="555.88" y="-37.88" font-family="Helvetica,sans-Serif" font-size="10.00">_glide_anim</text>
</a>
</g>
</g>
<!-- Node3&#45;&gt;Node5 -->
<g id="edge4_Node000003_Node000005" class="edge">
<title>Node3&#45;&gt;Node5</title>
<g id="a_edge4_Node000003_Node000005"><a xlink:title=" ">
<path fill="none" stroke="#63b8ff" d="M452.69,-63.91C460.44,-62.66 468.47,-61.36 476.48,-60.06"/>
<polygon fill="#63b8ff" stroke="#63b8ff" points="476.95,-63.53 486.27,-58.48 475.83,-56.62 476.95,-63.53"/>
</a>
</g>
</g>
<!-- Node8 -->
<g id="Node000008" class="node">
<title>Node8</title>
<g id="a_Node000008"><a xlink:href="m__button_8c.html#a854fb93ca1203266d6152342db3c6472" target="_top" xlink:title=" ">
<polygon fill="white" stroke="#666666" points="449.62,-20.75 336.88,-20.75 336.88,0 449.62,0 449.62,-20.75"/>
<text xml:space="preserve" text-anchor="middle" x="393.25" y="-7.25" font-family="Helvetica,sans-Serif" font-size="10.00">m_button_delete_ui</text>
</a>
</g>
</g>
<!-- Node7&#45;&gt;Node8 -->
<g id="edge6_Node000007_Node000008" class="edge">
<title>Node7&#45;&gt;Node8</title>
<g id="a_edge6_Node000007_Node000008"><a xlink:title=" ">
<path fill="none" stroke="#63b8ff" d="M295.35,-15.92C305.06,-15.37 315.16,-14.79 325.02,-14.22"/>
<polygon fill="#63b8ff" stroke="#63b8ff" points="325.16,-17.72 334.94,-13.66 324.76,-10.73 325.16,-17.72"/>
</a>
</g>
</g>
<!-- Node8&#45;&gt;Node8 -->
<g id="edge7_Node000008_Node000008" class="edge">
<title>Node8&#45;&gt;Node8</title>
<g id="a_edge7_Node000008_Node000008"><a xlink:title=" ">
<path fill="none" stroke="#63b8ff" d="M367.59,-21.15C357.33,-29.81 365.88,-38.75 393.25,-38.75 408.22,-38.75 417.56,-36.08 421.27,-32.24"/>
<polygon fill="#63b8ff" stroke="#63b8ff" points="424.73,-31.68 419.23,-22.63 417.89,-33.14 424.73,-31.68"/>
</a>
</g>
</g>
</g>
</svg>
