<?xml version="1.0" encoding="UTF-8" standalone="no"?>
<!DOCTYPE svg PUBLIC "-//W3C//DTD SVG 1.1//EN"
 "http://www.w3.org/Graphics/SVG/1.1/DTD/svg11.dtd">
<!-- Generated by graphviz version 13.1.2 (20250808.2320)
 -->
<!-- Title: new_button Pages: 1 -->
<svg width="850pt" height="508pt"
 viewBox="0.00 0.00 850.00 508.00" xmlns="http://www.w3.org/2000/svg" xmlns:xlink="http://www.w3.org/1999/xlink">
<g id="graph0" class="graph" transform="scale(1 1) rotate(0) translate(4 503.67)">
<title>new_button</title>
<!-- Node1 -->
<g id="Node000001" class="node">
<title>Node1</title>
<g id="a_Node000001"><a xlink:title=" ">
<polygon fill="#999999" stroke="#666666" points="842,-275.75 769,-275.75 769,-255 842,-255 842,-275.75"/>
<text xml:space="preserve" text-anchor="middle" x="805.5" y="-262.25" font-family="Helvetica,sans-Serif" font-size="10.00">new_button</text>
</a>
</g>
</g>
<!-- Node2 -->
<g id="Node000002" class="node">
<title>Node2</title>
<g id="a_Node000002"><a xlink:href="m__button_8c.html#a4114b68d36d7158b3ee0a8841d4a3926" target="_top" xlink:title=" ">
<polygon fill="white" stroke="#666666" points="722.12,-431.12 601.12,-431.12 601.12,-397.62 722.12,-397.62 722.12,-431.12"/>
<text xml:space="preserve" text-anchor="start" x="609.12" y="-417.62" font-family="Helvetica,sans-Serif" font-size="10.00">m_active_button_add</text>
<text xml:space="preserve" text-anchor="middle" x="661.62" y="-404.88" font-family="Helvetica,sans-Serif" font-size="10.00">_del_button</text>
</a>
</g>
</g>
<!-- Node1&#45;&gt;Node2 -->
<g id="edge1_Node000001_Node000002" class="edge">
<title>Node1&#45;&gt;Node2</title>
<g id="a_edge1_Node000001_Node000002"><a xlink:title=" ">
<path fill="none" stroke="#63b8ff" d="M794.96,-286.04C783.13,-309.91 761.05,-349.23 733,-375.38 723.8,-383.95 712.38,-391.31 701.42,-397.26"/>
<polygon fill="#63b8ff" stroke="#63b8ff" points="797.96,-287.87 799.13,-277.34 791.65,-284.84 797.96,-287.87"/>
</a>
</g>
</g>
<!-- Node33 -->
<g id="Node000033" class="node">
<title>Node33</title>
<g id="a_Node000033"><a xlink:href="m__ui_8c.html#a1b27d83a1ea548b981c47e9a80bf03ae" target="_top" xlink:title=" ">
<polygon fill="white" stroke="#666666" points="733,-140.75 590.25,-140.75 590.25,-120 733,-120 733,-140.75"/>
<text xml:space="preserve" text-anchor="middle" x="661.62" y="-127.25" font-family="Helvetica,sans-Serif" font-size="10.00">ui_page_add_back_button</text>
</a>
</g>
</g>
<!-- Node1&#45;&gt;Node33 -->
<g id="edge9_Node000001_Node000033" class="edge">
<title>Node1&#45;&gt;Node33</title>
<g id="a_edge9_Node000001_Node000033"><a xlink:title=" ">
<path fill="none" stroke="#63b8ff" d="M796.94,-243.83C786.61,-217.56 765.56,-173.67 733,-149.38 728.64,-146.12 723.76,-143.42 718.65,-141.19"/>
<polygon fill="#63b8ff" stroke="#63b8ff" points="793.63,-244.96 800.4,-253.11 800.18,-242.51 793.63,-244.96"/>
</a>
</g>
</g>
<!-- Node42 -->
<g id="Node000042" class="node">
<title>Node42</title>
<g id="a_Node000042"><a xlink:href="m__ui_8c.html#a1a308d1be64c79dfc528c4f34febc71a" target="_top" xlink:title=" ">
<polygon fill="white" stroke="#666666" points="527.25,-384.12 409.25,-384.12 409.25,-350.62 527.25,-350.62 527.25,-384.12"/>
<text xml:space="preserve" text-anchor="start" x="417.25" y="-370.62" font-family="Helvetica,sans-Serif" font-size="10.00">ui_page_add_bottom</text>
<text xml:space="preserve" text-anchor="middle" x="468.25" y="-357.88" font-family="Helvetica,sans-Serif" font-size="10.00">_button</text>
</a>
</g>
</g>
<!-- Node1&#45;&gt;Node42 -->
<g id="edge21_Node000001_Node000042" class="edge">
<title>Node1&#45;&gt;Node42</title>
<g id="a_edge21_Node000001_Node000042"><a xlink:title=" ">
<path fill="none" stroke="#63b8ff" d="M789.78,-285.05C776.73,-300.91 756.18,-322.34 733,-333.38 667.55,-364.53 583.18,-370.26 527.71,-370.03"/>
<polygon fill="#63b8ff" stroke="#63b8ff" points="792.51,-287.24 795.96,-277.22 787.02,-282.91 792.51,-287.24"/>
</a>
</g>
</g>
<!-- Node43 -->
<g id="Node000043" class="node">
<title>Node43</title>
<g id="a_Node000043"><a xlink:href="m__ui_8c.html#acefd1681777d7a3a9da616174bde0d88" target="_top" xlink:title=" ">
<polygon fill="white" stroke="#666666" points="727.38,-324.12 595.88,-324.12 595.88,-290.62 727.38,-290.62 727.38,-324.12"/>
<text xml:space="preserve" text-anchor="start" x="603.88" y="-310.62" font-family="Helvetica,sans-Serif" font-size="10.00">ui_page_add_left_panel</text>
<text xml:space="preserve" text-anchor="middle" x="661.62" y="-297.88" font-family="Helvetica,sans-Serif" font-size="10.00">_button</text>
</a>
</g>
</g>
<!-- Node1&#45;&gt;Node43 -->
<g id="edge26_Node000001_Node000043" class="edge">
<title>Node1&#45;&gt;Node43</title>
<g id="a_edge26_Node000001_Node000043"><a xlink:title=" ">
<path fill="none" stroke="#63b8ff" d="M757.73,-279.22C745.91,-282.72 733.08,-286.52 720.77,-290.16"/>
<polygon fill="#63b8ff" stroke="#63b8ff" points="758.65,-282.6 767.25,-276.4 756.67,-275.89 758.65,-282.6"/>
</a>
</g>
</g>
<!-- Node44 -->
<g id="Node000044" class="node">
<title>Node44</title>
<g id="a_Node000044"><a xlink:href="m__ui_8c.html#a15a4c09be755f2fff02ddfa5c70bb1c4" target="_top" xlink:title=" ">
<polygon fill="white" stroke="#666666" points="718.75,-192.12 604.5,-192.12 604.5,-158.62 718.75,-158.62 718.75,-192.12"/>
<text xml:space="preserve" text-anchor="start" x="612.5" y="-178.62" font-family="Helvetica,sans-Serif" font-size="10.00">ui_page_add_parent</text>
<text xml:space="preserve" text-anchor="middle" x="661.62" y="-165.88" font-family="Helvetica,sans-Serif" font-size="10.00">_button</text>
</a>
</g>
</g>
<!-- Node1&#45;&gt;Node44 -->
<g id="edge28_Node000001_Node000044" class="edge">
<title>Node1&#45;&gt;Node44</title>
<g id="a_edge28_Node000001_Node000044"><a xlink:title=" ">
<path fill="none" stroke="#63b8ff" d="M777.75,-248.4C752.57,-232.43 715.05,-208.63 689.75,-192.58"/>
<polygon fill="#63b8ff" stroke="#63b8ff" points="775.79,-251.31 786.11,-253.71 779.54,-245.4 775.79,-251.31"/>
</a>
</g>
</g>
<!-- Node45 -->
<g id="Node000045" class="node">
<title>Node45</title>
<g id="a_Node000045"><a xlink:href="m__ui_8c.html#aeaced3fe3598a20291590f6cf370ae95" target="_top" xlink:title=" ">
<polygon fill="white" stroke="#666666" points="537,-256.12 399.5,-256.12 399.5,-222.62 537,-222.62 537,-256.12"/>
<text xml:space="preserve" text-anchor="start" x="407.5" y="-242.62" font-family="Helvetica,sans-Serif" font-size="10.00">ui_page_add_right_panel</text>
<text xml:space="preserve" text-anchor="middle" x="468.25" y="-229.88" font-family="Helvetica,sans-Serif" font-size="10.00">_button</text>
</a>
</g>
</g>
<!-- Node1&#45;&gt;Node45 -->
<g id="edge30_Node000001_Node000045" class="edge">
<title>Node1&#45;&gt;Node45</title>
<g id="a_edge30_Node000001_Node000045"><a xlink:title=" ">
<path fill="none" stroke="#63b8ff" d="M757.36,-261.72C700,-257.27 602.73,-249.73 537.27,-244.65"/>
<polygon fill="#63b8ff" stroke="#63b8ff" points="756.87,-265.19 767.11,-262.48 757.41,-258.21 756.87,-265.19"/>
</a>
</g>
</g>
<!-- Node3 -->
<g id="Node000003" class="node">
<title>Node3</title>
<g id="a_Node000003"><a xlink:href="m__button_8c.html#a5692c243172ed156d2fd4cc77fe1aae2" target="_top" xlink:title=" ">
<polygon fill="white" stroke="#666666" points="532.5,-436.12 404,-436.12 404,-402.62 532.5,-402.62 532.5,-436.12"/>
<text xml:space="preserve" text-anchor="start" x="412" y="-422.62" font-family="Helvetica,sans-Serif" font-size="10.00">m_active_button_array</text>
<text xml:space="preserve" text-anchor="middle" x="468.25" y="-409.88" font-family="Helvetica,sans-Serif" font-size="10.00">_append_new</text>
</a>
</g>
</g>
<!-- Node2&#45;&gt;Node3 -->
<g id="edge2_Node000002_Node000003" class="edge">
<title>Node2&#45;&gt;Node3</title>
<g id="a_edge2_Node000002_Node000003"><a xlink:title=" ">
<path fill="none" stroke="#63b8ff" d="M589.49,-416.23C570.92,-416.72 551.02,-417.24 532.87,-417.71"/>
<polygon fill="#63b8ff" stroke="#63b8ff" points="589.44,-419.74 599.35,-415.98 589.26,-412.74 589.44,-419.74"/>
</a>
</g>
</g>
<!-- Node4 -->
<g id="Node000004" class="node">
<title>Node4</title>
<g id="a_Node000004"><a xlink:href="m__profile__view_8c.html#adafaf6e28f8f6ac82cc672610ba7f098" target="_top" xlink:title=" ">
<polygon fill="#fff0f0" stroke="red" points="325.62,-308.75 198.62,-308.75 198.62,-288 325.62,-288 325.62,-308.75"/>
<text xml:space="preserve" text-anchor="middle" x="262.12" y="-295.25" font-family="Helvetica,sans-Serif" font-size="10.00">configure_profile_view</text>
</a>
</g>
</g>
<!-- Node3&#45;&gt;Node4 -->
<g id="edge3_Node000003_Node000004" class="edge">
<title>Node3&#45;&gt;Node4</title>
<g id="a_edge3_Node000003_Node000004"><a xlink:title=" ">
<path fill="none" stroke="#63b8ff" d="M393.43,-399.47C389.56,-397.6 385.8,-395.58 382.25,-393.38 362.47,-381.12 363.94,-370.48 346.25,-355.38 325.22,-337.42 298.49,-319.92 281.1,-309.15"/>
<polygon fill="#63b8ff" stroke="#63b8ff" points="391.94,-402.64 402.51,-403.43 394.74,-396.22 391.94,-402.64"/>
</a>
</g>
</g>
<!-- Node12 -->
<g id="Node000012" class="node">
<title>Node12</title>
<g id="a_Node000012"><a xlink:href="m__sequence__view_8c.html#aa023b6efccc9528b27b31dcf25d1981a" target="_top" xlink:title=" ">
<polygon fill="#fff0f0" stroke="red" points="142,-410.75 0,-410.75 0,-390 142,-390 142,-410.75"/>
<text xml:space="preserve" text-anchor="middle" x="71" y="-397.25" font-family="Helvetica,sans-Serif" font-size="10.00">configure_sequence_view</text>
</a>
</g>
</g>
<!-- Node3&#45;&gt;Node12 -->
<g id="edge4_Node000003_Node000012" class="edge">
<title>Node3&#45;&gt;Node12</title>
<g id="a_edge4_Node000003_Node000012"><a xlink:title=" ">
<path fill="none" stroke="#63b8ff" d="M434.24,-442.52C410.87,-457.43 378.14,-475.46 346.25,-483.38 273.67,-501.39 248.69,-507.76 178,-483.38 136.02,-468.89 97.96,-430.19 81.13,-411.19"/>
<polygon fill="#63b8ff" stroke="#63b8ff" points="435.94,-445.59 442.39,-437.18 432.1,-439.73 435.94,-445.59"/>
</a>
</g>
</g>
<!-- Node26 -->
<g id="Node000026" class="node">
<title>Node26</title>
<g id="a_Node000026"><a xlink:href="m__ui_8c.html#a54f79f277b7d97da20f192e3bec8f3ec" target="_top" xlink:title=" ">
<polygon fill="white" stroke="#666666" points="304.62,-384.75 219.62,-384.75 219.62,-364 304.62,-364 304.62,-384.75"/>
<text xml:space="preserve" text-anchor="middle" x="262.12" y="-371.25" font-family="Helvetica,sans-Serif" font-size="10.00">init_test_page</text>
</a>
</g>
</g>
<!-- Node3&#45;&gt;Node26 -->
<g id="edge5_Node000003_Node000026" class="edge">
<title>Node3&#45;&gt;Node26</title>
<g id="a_edge5_Node000003_Node000026"><a xlink:title=" ">
<path fill="none" stroke="#63b8ff" d="M392.36,-402.87C362.82,-396.35 330.01,-389.12 304.84,-383.57"/>
<polygon fill="#63b8ff" stroke="#63b8ff" points="391.51,-406.26 402.03,-405 393.01,-399.43 391.51,-406.26"/>
</a>
</g>
</g>
<!-- Node27 -->
<g id="Node000027" class="node">
<title>Node27</title>
<g id="a_Node000027"><a xlink:href="m__profile__view_8c.html#a7a5be31e096c8437e2dc12359a898d9b" target="_top" xlink:title=" ">
<polygon fill="#fff0f0" stroke="red" points="320.75,-436.12 203.5,-436.12 203.5,-402.62 320.75,-402.62 320.75,-436.12"/>
<text xml:space="preserve" text-anchor="start" x="211.5" y="-422.62" font-family="Helvetica,sans-Serif" font-size="10.00">profile_view_append</text>
<text xml:space="preserve" text-anchor="middle" x="262.12" y="-409.88" font-family="Helvetica,sans-Serif" font-size="10.00">_transformer</text>
</a>
</g>
</g>
<!-- Node3&#45;&gt;Node27 -->
<g id="edge6_Node000003_Node000027" class="edge">
<title>Node3&#45;&gt;Node27</title>
<g id="a_edge6_Node000003_Node000027"><a xlink:title=" ">
<path fill="none" stroke="#63b8ff" d="M392.19,-419.38C368.75,-419.38 343.27,-419.38 321.19,-419.38"/>
<polygon fill="#63b8ff" stroke="#63b8ff" points="391.99,-422.88 401.99,-419.38 391.99,-415.88 391.99,-422.88"/>
</a>
</g>
</g>
<!-- Node32 -->
<g id="Node000032" class="node">
<title>Node32</title>
<g id="a_Node000032"><a xlink:href="m__sequence__view_8c.html#a83d1a352af6a3932ce4d08e01f7d8d8a" target="_top" xlink:title=" ">
<polygon fill="white" stroke="#666666" points="299.75,-474.75 224.5,-474.75 224.5,-454 299.75,-454 299.75,-474.75"/>
<text xml:space="preserve" text-anchor="middle" x="262.12" y="-461.25" font-family="Helvetica,sans-Serif" font-size="10.00">seq_plus_cb</text>
</a>
</g>
</g>
<!-- Node3&#45;&gt;Node32 -->
<g id="edge7_Node000003_Node000032" class="edge">
<title>Node3&#45;&gt;Node32</title>
<g id="a_edge7_Node000003_Node000032"><a xlink:title=" ">
<path fill="none" stroke="#63b8ff" d="M392.53,-435.85C361.01,-442.8 325.73,-450.57 299.98,-456.25"/>
<polygon fill="#63b8ff" stroke="#63b8ff" points="393.01,-439.32 402.03,-433.75 391.51,-432.49 393.01,-439.32"/>
</a>
</g>
</g>
<!-- Node32&#45;&gt;Node12 -->
<g id="edge8_Node000032_Node000012" class="edge">
<title>Node32&#45;&gt;Node12</title>
<g id="a_edge8_Node000032_Node000012"><a xlink:title=" ">
<path fill="none" stroke="#63b8ff" d="M213.4,-454.99C201.71,-452.27 189.31,-449.04 178,-445.38 148.33,-435.77 115.46,-421.16 94.3,-411.21"/>
<polygon fill="#63b8ff" stroke="#63b8ff" points="212.33,-458.33 222.85,-457.1 213.86,-451.5 212.33,-458.33"/>
</a>
</g>
</g>
<!-- Node33&#45;&gt;Node12 -->
<g id="edge17_Node000033_Node000012" class="edge">
<title>Node33&#45;&gt;Node12</title>
<g id="a_edge17_Node000033_Node000012"><a xlink:title=" ">
<path fill="none" stroke="#63b8ff" d="M631.69,-114.39C610.85,-103.83 581.7,-90.94 554.25,-85.38 472.29,-68.75 245.24,-42.65 178,-92.38 76.84,-167.19 71.45,-344.62 71.77,-389.78"/>
<polygon fill="#63b8ff" stroke="#63b8ff" points="629.94,-117.43 640.43,-118.95 633.18,-111.22 629.94,-117.43"/>
</a>
</g>
</g>
<!-- Node34 -->
<g id="Node000034" class="node">
<title>Node34</title>
<g id="a_Node000034"><a xlink:href="m__menu_8c.html#ae56e3ae7177dc651911d432ebb245093" target="_top" xlink:title=" ">
<polygon fill="white" stroke="#666666" points="530.25,-20.75 406.25,-20.75 406.25,0 530.25,0 530.25,-20.75"/>
<text xml:space="preserve" text-anchor="middle" x="468.25" y="-7.25" font-family="Helvetica,sans-Serif" font-size="10.00">configure_menu_page</text>
</a>
</g>
</g>
<!-- Node33&#45;&gt;Node34 -->
<g id="edge10_Node000033_Node000034" class="edge">
<title>Node33&#45;&gt;Node34</title>
<g id="a_edge10_Node000033_Node000034"><a xlink:title=" ">
<path fill="none" stroke="#63b8ff" d="M638.98,-112.76C618.01,-96.14 584.97,-71.03 554.25,-52.38 534.69,-40.5 511.32,-29.14 494.03,-21.23"/>
<polygon fill="#63b8ff" stroke="#63b8ff" points="636.53,-115.29 646.52,-118.81 640.91,-109.83 636.53,-115.29"/>
</a>
</g>
</g>
<!-- Node35 -->
<g id="Node000035" class="node">
<title>Node35</title>
<g id="a_Node000035"><a xlink:href="m__profile__settings_8c.html#a5c6e9a3a233b71c5aaef4634ed7c8bea" target="_top" xlink:title=" ">
<polygon fill="white" stroke="#666666" points="554.25,-294.75 382.25,-294.75 382.25,-274 554.25,-274 554.25,-294.75"/>
<text xml:space="preserve" text-anchor="middle" x="468.25" y="-281.25" font-family="Helvetica,sans-Serif" font-size="10.00">configure_profile_settings_page</text>
</a>
</g>
</g>
<!-- Node33&#45;&gt;Node35 -->
<g id="edge13_Node000033_Node000035" class="edge">
<title>Node33&#45;&gt;Node35</title>
<g id="a_edge13_Node000033_Node000035"><a xlink:title=" ">
<path fill="none" stroke="#63b8ff" d="M592.2,-147.6C591.53,-148.18 590.88,-148.77 590.25,-149.38 551.38,-186.83 593.93,-228.78 554.25,-265.38 550.8,-268.55 546.95,-271.24 542.83,-273.51"/>
<polygon fill="#63b8ff" stroke="#63b8ff" points="594.1,-150.54 600.39,-142.02 590.15,-144.76 594.1,-150.54"/>
</a>
</g>
</g>
<!-- Node22 -->
<g id="Node000022" class="node">
<title>Node22</title>
<g id="a_Node000022"><a xlink:href="m__sequence__list_8c.html#a99eacbf422f3e13ac9eb7ea2aea8c404" target="_top" xlink:title=" ">
<polygon fill="#fff0f0" stroke="red" points="329,-218.75 195.25,-218.75 195.25,-198 329,-198 329,-218.75"/>
<text xml:space="preserve" text-anchor="middle" x="262.12" y="-205.25" font-family="Helvetica,sans-Serif" font-size="10.00">configure_sequence_list</text>
</a>
</g>
</g>
<!-- Node33&#45;&gt;Node22 -->
<g id="edge16_Node000033_Node000022" class="edge">
<title>Node33&#45;&gt;Node22</title>
<g id="a_edge16_Node000033_Node000022"><a xlink:title=" ">
<path fill="none" stroke="#63b8ff" d="M594.31,-143.39C516.94,-158.57 390.45,-183.39 318.25,-197.56"/>
<polygon fill="#63b8ff" stroke="#63b8ff" points="594.73,-146.87 603.87,-141.51 593.38,-140 594.73,-146.87"/>
</a>
</g>
</g>
<!-- Node37 -->
<g id="Node000037" class="node">
<title>Node37</title>
<g id="a_Node000037"><a xlink:href="m__transformer__settings_8c.html#ab317b17653d665008c727ad5a5ae755f" target="_top" xlink:title=" ">
<polygon fill="white" stroke="#666666" points="530.62,-128.12 405.88,-128.12 405.88,-94.62 530.62,-94.62 530.62,-128.12"/>
<text xml:space="preserve" text-anchor="start" x="413.88" y="-114.62" font-family="Helvetica,sans-Serif" font-size="10.00">configure_transformer</text>
<text xml:space="preserve" text-anchor="middle" x="468.25" y="-101.88" font-family="Helvetica,sans-Serif" font-size="10.00">_settings_page</text>
</a>
</g>
</g>
<!-- Node33&#45;&gt;Node37 -->
<g id="edge18_Node000033_Node000037" class="edge">
<title>Node33&#45;&gt;Node37</title>
<g id="a_edge18_Node000033_Node000037"><a xlink:title=" ">
<path fill="none" stroke="#63b8ff" d="M578.88,-122.26C562.78,-120.66 546.15,-119.01 530.86,-117.49"/>
<polygon fill="#63b8ff" stroke="#63b8ff" points="578.1,-125.7 588.4,-123.2 578.8,-118.73 578.1,-125.7"/>
</a>
</g>
</g>
<!-- Node34&#45;&gt;Node34 -->
<g id="edge11_Node000034_Node000034" class="edge">
<title>Node34&#45;&gt;Node34</title>
<g id="a_edge11_Node000034_Node000034"><a xlink:title=" ">
<path fill="none" stroke="#63b8ff" d="M502.28,-32.24C497.77,-36.08 486.43,-38.75 468.25,-38.75 435.01,-38.75 424.63,-29.81 437.09,-21.15"/>
<polygon fill="#63b8ff" stroke="#63b8ff" points="505.68,-31.42 499.79,-22.61 498.9,-33.17 505.68,-31.42"/>
</a>
</g>
</g>
<!-- Node18 -->
<g id="Node000018" class="node">
<title>Node18</title>
<g id="a_Node000018"><a xlink:href="m__menu_8c.html#aa41666bacc61118d402de212202afbd3" target="_top" xlink:title=" ">
<polygon fill="#fff0f0" stroke="red" points="309.12,-20.75 215.12,-20.75 215.12,0 309.12,0 309.12,-20.75"/>
<text xml:space="preserve" text-anchor="middle" x="262.12" y="-7.25" font-family="Helvetica,sans-Serif" font-size="10.00">init_menu_page</text>
</a>
</g>
</g>
<!-- Node34&#45;&gt;Node18 -->
<g id="edge12_Node000034_Node000018" class="edge">
<title>Node34&#45;&gt;Node18</title>
<g id="a_edge12_Node000034_Node000018"><a xlink:title=" ">
<path fill="none" stroke="#63b8ff" d="M394.5,-10.38C366.16,-10.38 334.52,-10.38 309.4,-10.38"/>
<polygon fill="#63b8ff" stroke="#63b8ff" points="394.49,-13.88 404.49,-10.38 394.49,-6.88 394.49,-13.88"/>
</a>
</g>
</g>
<!-- Node35&#45;&gt;Node4 -->
<g id="edge14_Node000035_Node000004" class="edge">
<title>Node35&#45;&gt;Node4</title>
<g id="a_edge14_Node000035_Node000004"><a xlink:title=" ">
<path fill="none" stroke="#63b8ff" d="M370.41,-291.02C355.36,-292.05 340.16,-293.09 326.12,-294.05"/>
<polygon fill="#63b8ff" stroke="#63b8ff" points="370.62,-294.51 380.36,-290.33 370.14,-287.53 370.62,-294.51"/>
</a>
</g>
</g>
<!-- Node36 -->
<g id="Node000036" class="node">
<title>Node36</title>
<g id="a_Node000036"><a xlink:href="m__profile__settings_8c.html#ad680a2dc50b4622c66b87e7f39465f92" target="_top" xlink:title=" ">
<polygon fill="#fff0f0" stroke="red" points="333.12,-269.75 191.12,-269.75 191.12,-249 333.12,-249 333.12,-269.75"/>
<text xml:space="preserve" text-anchor="middle" x="262.12" y="-256.25" font-family="Helvetica,sans-Serif" font-size="10.00">init_profile_settings_page</text>
</a>
</g>
</g>
<!-- Node35&#45;&gt;Node36 -->
<g id="edge15_Node000035_Node000036" class="edge">
<title>Node35&#45;&gt;Node36</title>
<g id="a_edge15_Node000035_Node000036"><a xlink:title=" ">
<path fill="none" stroke="#63b8ff" d="M370.81,-272.56C358.17,-271.02 345.41,-269.45 333.32,-267.97"/>
<polygon fill="#63b8ff" stroke="#63b8ff" points="370.01,-275.99 380.36,-273.73 370.86,-269.04 370.01,-275.99"/>
</a>
</g>
</g>
<!-- Node38 -->
<g id="Node000038" class="node">
<title>Node38</title>
<g id="a_Node000038"><a xlink:href="m__transformer__view_8c.html#a22cac70297549ade93c38e66d070f3af" target="_top" xlink:title=" ">
<polygon fill="#fff0f0" stroke="red" points="338.75,-166.75 185.5,-166.75 185.5,-146 338.75,-146 338.75,-166.75"/>
<text xml:space="preserve" text-anchor="middle" x="262.12" y="-153.25" font-family="Helvetica,sans-Serif" font-size="10.00">configure_transformer_view</text>
</a>
</g>
</g>
<!-- Node37&#45;&gt;Node38 -->
<g id="edge19_Node000037_Node000038" class="edge">
<title>Node37&#45;&gt;Node38</title>
<g id="a_edge19_Node000037_Node000038"><a xlink:title=" ">
<path fill="none" stroke="#63b8ff" d="M394.41,-127.43C367.21,-133.43 337,-140.09 312.42,-145.51"/>
<polygon fill="#63b8ff" stroke="#63b8ff" points="394.96,-130.9 403.97,-125.32 393.45,-124.06 394.96,-130.9"/>
</a>
</g>
</g>
<!-- Node41 -->
<g id="Node000041" class="node">
<title>Node41</title>
<g id="a_Node000041"><a xlink:href="m__transformer__settings_8c.html#aaa390b04c41f08fbbfe3cdbe8b552bc4" target="_top" xlink:title=" ">
<polygon fill="#fff0f0" stroke="red" points="346.25,-121.75 178,-121.75 178,-101 346.25,-101 346.25,-121.75"/>
<text xml:space="preserve" text-anchor="middle" x="262.12" y="-108.25" font-family="Helvetica,sans-Serif" font-size="10.00">init_transformer_settings_page</text>
</a>
</g>
</g>
<!-- Node37&#45;&gt;Node41 -->
<g id="edge20_Node000037_Node000041" class="edge">
<title>Node37&#45;&gt;Node41</title>
<g id="a_edge20_Node000037_Node000041"><a xlink:title=" ">
<path fill="none" stroke="#63b8ff" d="M394.37,-111.38C378.88,-111.38 362.41,-111.38 346.57,-111.38"/>
<polygon fill="#63b8ff" stroke="#63b8ff" points="393.94,-114.88 403.94,-111.38 393.94,-107.88 393.94,-114.88"/>
</a>
</g>
</g>
<!-- Node42&#45;&gt;Node4 -->
<g id="edge22_Node000042_Node000004" class="edge">
<title>Node42&#45;&gt;Node4</title>
<g id="a_edge22_Node000042_Node000004"><a xlink:title=" ">
<path fill="none" stroke="#63b8ff" d="M408.8,-346.24C399.89,-342.97 390.82,-339.6 382.25,-336.38 366.19,-330.32 362.51,-327.87 346.25,-322.38 332.45,-317.71 317.17,-313.13 303.52,-309.25"/>
<polygon fill="#63b8ff" stroke="#63b8ff" points="407.52,-349.5 418.11,-349.65 409.92,-342.93 407.52,-349.5"/>
</a>
</g>
</g>
<!-- Node42&#45;&gt;Node12 -->
<g id="edge24_Node000042_Node000012" class="edge">
<title>Node42&#45;&gt;Node12</title>
<g id="a_edge24_Node000042_Node000012"><a xlink:title=" ">
<path fill="none" stroke="#63b8ff" d="M397.91,-355.23C338.85,-347.07 252.03,-340.31 178,-355.38 145.87,-361.91 111.4,-378.54 90.78,-389.65"/>
<polygon fill="#63b8ff" stroke="#63b8ff" points="397.08,-358.64 407.48,-356.6 398.07,-351.71 397.08,-358.64"/>
</a>
</g>
</g>
<!-- Node42&#45;&gt;Node26 -->
<g id="edge25_Node000042_Node000026" class="edge">
<title>Node42&#45;&gt;Node26</title>
<g id="a_edge25_Node000042_Node000026"><a xlink:title=" ">
<path fill="none" stroke="#63b8ff" d="M397.65,-369.76C366.89,-370.82 331.75,-372.02 305.09,-372.94"/>
<polygon fill="#63b8ff" stroke="#63b8ff" points="397.37,-373.27 407.24,-369.43 397.13,-366.28 397.37,-373.27"/>
</a>
</g>
</g>
<!-- Node42&#45;&gt;Node22 -->
<g id="edge23_Node000042_Node000022" class="edge">
<title>Node42&#45;&gt;Node22</title>
<g id="a_edge23_Node000042_Node000022"><a xlink:title=" ">
<path fill="none" stroke="#63b8ff" d="M429.37,-343.83C413.58,-332.83 395.8,-318.75 382.25,-303.38 360.93,-279.18 370.72,-261.39 346.25,-240.38 335.22,-230.9 321.09,-224.07 307.61,-219.22"/>
<polygon fill="#63b8ff" stroke="#63b8ff" points="427.39,-346.72 437.63,-349.43 431.31,-340.93 427.39,-346.72"/>
</a>
</g>
</g>
<!-- Node43&#45;&gt;Node4 -->
<g id="edge27_Node000043_Node000004" class="edge">
<title>Node43&#45;&gt;Node4</title>
<g id="a_edge27_Node000043_Node000004"><a xlink:title=" ">
<path fill="none" stroke="#63b8ff" d="M584.41,-306.85C528.45,-306.32 450.62,-305.3 382.25,-303.38 363.94,-302.86 344.05,-302.1 325.86,-301.33"/>
<polygon fill="#63b8ff" stroke="#63b8ff" points="584.1,-310.34 594.14,-306.93 584.17,-303.34 584.1,-310.34"/>
</a>
</g>
</g>
<!-- Node44&#45;&gt;Node38 -->
<g id="edge29_Node000044_Node000038" class="edge">
<title>Node44&#45;&gt;Node38</title>
<g id="a_edge29_Node000044_Node000038"><a xlink:title=" ">
<path fill="none" stroke="#63b8ff" d="M592.72,-172.13C522.31,-168.76 412.47,-163.51 339.19,-160.01"/>
<polygon fill="#63b8ff" stroke="#63b8ff" points="592.43,-175.62 602.58,-172.6 592.76,-168.63 592.43,-175.62"/>
</a>
</g>
</g>
<!-- Node45&#45;&gt;Node4 -->
<g id="edge31_Node000045_Node000004" class="edge">
<title>Node45&#45;&gt;Node4</title>
<g id="a_edge31_Node000045_Node000004"><a xlink:title=" ">
<path fill="none" stroke="#63b8ff" d="M398.76,-260C393.16,-261.79 387.6,-263.59 382.25,-265.38 366.11,-270.75 362.54,-273.49 346.25,-278.38 335.3,-281.66 323.42,-284.78 312.16,-287.53"/>
<polygon fill="#63b8ff" stroke="#63b8ff" points="399.59,-263.41 408.07,-257.07 397.48,-256.73 399.59,-263.41"/>
</a>
</g>
</g>
<!-- Node45&#45;&gt;Node38 -->
<g id="edge32_Node000045_Node000038" class="edge">
<title>Node45&#45;&gt;Node38</title>
<g id="a_edge32_Node000045_Node000038"><a xlink:title=" ">
<path fill="none" stroke="#63b8ff" d="M415.63,-217.86C394.19,-208.97 369.05,-198.61 346.25,-189.38 327.69,-181.85 306.72,-173.53 290.49,-167.13"/>
<polygon fill="#63b8ff" stroke="#63b8ff" points="414.17,-221.04 424.75,-221.64 416.85,-214.58 414.17,-221.04"/>
</a>
</g>
</g>
</g>
</svg>
