<?xml version="1.0" encoding="UTF-8" standalone="no"?>
<!DOCTYPE svg PUBLIC "-//W3C//DTD SVG 1.1//EN"
 "http://www.w3.org/Graphics/SVG/1.1/DTD/svg11.dtd">
<!-- Generated by graphviz version 13.1.2 (20250808.2320)
 -->
<!-- Title: m_active_button_del_cb Pages: 1 -->
<svg width="648pt" height="128pt"
 viewBox="0.00 0.00 648.00 128.00" xmlns="http://www.w3.org/2000/svg" xmlns:xlink="http://www.w3.org/1999/xlink">
<g id="graph0" class="graph" transform="scale(1 1) rotate(0) translate(4 124.12)">
<title>m_active_button_del_cb</title>
<!-- Node1 -->
<g id="Node000001" class="node">
<title>Node1</title>
<g id="a_Node000001"><a xlink:title=" ">
<polygon fill="#999999" stroke="#666666" points="134.5,-87.75 0,-87.75 0,-67 134.5,-67 134.5,-87.75"/>
<text xml:space="preserve" text-anchor="middle" x="67.25" y="-74.25" font-family="Helvetica,sans-Serif" font-size="10.00">m_active_button_del_cb</text>
</a>
</g>
</g>
<!-- Node2 -->
<g id="Node000002" class="node">
<title>Node2</title>
<g id="a_Node000002"><a xlink:href="m__button_8c.html#aad38fccbad65898b1dbf74316f5bf81d" target="_top" xlink:title=" ">
<polygon fill="white" stroke="#666666" points="305.75,-94.12 170.5,-94.12 170.5,-60.62 305.75,-60.62 305.75,-94.12"/>
<text xml:space="preserve" text-anchor="start" x="178.5" y="-80.62" font-family="Helvetica,sans-Serif" font-size="10.00">m_active_button_trigger</text>
<text xml:space="preserve" text-anchor="middle" x="238.12" y="-67.88" font-family="Helvetica,sans-Serif" font-size="10.00">_delete_anim</text>
</a>
</g>
</g>
<!-- Node1&#45;&gt;Node2 -->
<g id="edge1_Node000001_Node000002" class="edge">
<title>Node1&#45;&gt;Node2</title>
<g id="a_edge1_Node000001_Node000002"><a xlink:title=" ">
<path fill="none" stroke="#63b8ff" d="M134.99,-77.38C142.74,-77.38 150.69,-77.38 158.57,-77.38"/>
<polygon fill="#63b8ff" stroke="#63b8ff" points="158.52,-80.88 168.52,-77.38 158.52,-73.88 158.52,-80.88"/>
</a>
</g>
</g>
<!-- Node3 -->
<g id="Node000003" class="node">
<title>Node3</title>
<g id="a_Node000003"><a xlink:href="m__button_8c.html#a47d3b0732cd5e11e34fc81838bfff01b" target="_top" xlink:title=" ">
<polygon fill="white" stroke="#666666" points="475.5,-120.12 341.75,-120.12 341.75,-86.62 475.5,-86.62 475.5,-120.12"/>
<text xml:space="preserve" text-anchor="start" x="349.75" y="-106.62" font-family="Helvetica,sans-Serif" font-size="10.00">m_active_button_delete</text>
<text xml:space="preserve" text-anchor="middle" x="408.62" y="-93.88" font-family="Helvetica,sans-Serif" font-size="10.00">_anim_cb</text>
</a>
</g>
</g>
<!-- Node2&#45;&gt;Node3 -->
<g id="edge2_Node000002_Node000003" class="edge">
<title>Node2&#45;&gt;Node3</title>
<g id="a_edge2_Node000002_Node000003"><a xlink:title=" ">
<path fill="none" stroke="#63b8ff" d="M306.2,-87.73C314.06,-88.94 322.13,-90.18 330.12,-91.42"/>
<polygon fill="#63b8ff" stroke="#63b8ff" points="329.41,-94.85 339.83,-92.91 330.48,-87.93 329.41,-94.85"/>
</a>
</g>
</g>
<!-- Node5 -->
<g id="Node000005" class="node">
<title>Node5</title>
<g id="a_Node000005"><a xlink:href="m__button_8c.html#aa4b3495a4356ccb537ce93b53b6e3364" target="_top" xlink:title=" ">
<polygon fill="white" stroke="#666666" points="475.5,-68.12 341.75,-68.12 341.75,-34.62 475.5,-34.62 475.5,-68.12"/>
<text xml:space="preserve" text-anchor="start" x="349.75" y="-54.62" font-family="Helvetica,sans-Serif" font-size="10.00">m_active_button_delete</text>
<text xml:space="preserve" text-anchor="middle" x="408.62" y="-41.88" font-family="Helvetica,sans-Serif" font-size="10.00">_anim_ready_cb</text>
</a>
</g>
</g>
<!-- Node2&#45;&gt;Node5 -->
<g id="edge4_Node000002_Node000005" class="edge">
<title>Node2&#45;&gt;Node5</title>
<g id="a_edge4_Node000002_Node000005"><a xlink:title=" ">
<path fill="none" stroke="#63b8ff" d="M306.2,-67.02C314.06,-65.81 322.13,-64.57 330.12,-63.33"/>
<polygon fill="#63b8ff" stroke="#63b8ff" points="330.48,-66.82 339.83,-61.84 329.41,-59.9 330.48,-66.82"/>
</a>
</g>
</g>
<!-- Node4 -->
<g id="Node000004" class="node">
<title>Node4</title>
<g id="a_Node000004"><a xlink:href="m__button_8c.html#ad914219bc137c643895e8ee782996868" target="_top" xlink:title=" ">
<polygon fill="white" stroke="#666666" points="637.75,-113.75 513.75,-113.75 513.75,-93 637.75,-93 637.75,-113.75"/>
<text xml:space="preserve" text-anchor="middle" x="575.75" y="-100.25" font-family="Helvetica,sans-Serif" font-size="10.00">m_button_set_opacity</text>
</a>
</g>
</g>
<!-- Node3&#45;&gt;Node4 -->
<g id="edge3_Node000003_Node000004" class="edge">
<title>Node3&#45;&gt;Node4</title>
<g id="a_edge3_Node000003_Node000004"><a xlink:title=" ">
<path fill="none" stroke="#63b8ff" d="M475.84,-103.38C484.45,-103.38 493.3,-103.38 502.01,-103.38"/>
<polygon fill="#63b8ff" stroke="#63b8ff" points="501.83,-106.88 511.83,-103.38 501.83,-99.88 501.83,-106.88"/>
</a>
</g>
</g>
<!-- Node6 -->
<g id="Node000006" class="node">
<title>Node6</title>
<g id="a_Node000006"><a xlink:href="m__button_8c.html#a10d2fa5e282222e52b847976348e40ff" target="_top" xlink:title=" ">
<polygon fill="#fff0f0" stroke="red" points="640,-72.12 511.5,-72.12 511.5,-38.62 640,-38.62 640,-72.12"/>
<text xml:space="preserve" text-anchor="start" x="519.5" y="-58.62" font-family="Helvetica,sans-Serif" font-size="10.00">m_active_button_array</text>
<text xml:space="preserve" text-anchor="middle" x="575.75" y="-45.88" font-family="Helvetica,sans-Serif" font-size="10.00">_remove</text>
</a>
</g>
</g>
<!-- Node5&#45;&gt;Node6 -->
<g id="edge5_Node000005_Node000006" class="edge">
<title>Node5&#45;&gt;Node6</title>
<g id="a_edge5_Node000005_Node000006"><a xlink:title=" ">
<path fill="none" stroke="#63b8ff" d="M475.84,-52.98C483.76,-53.17 491.9,-53.37 499.94,-53.56"/>
<polygon fill="#63b8ff" stroke="#63b8ff" points="499.61,-57.06 509.69,-53.8 499.78,-50.06 499.61,-57.06"/>
</a>
</g>
</g>
<!-- Node11 -->
<g id="Node000011" class="node">
<title>Node11</title>
<g id="a_Node000011"><a xlink:href="m__button_8c.html#abf1ae5c842a09fad959ceb7062cec20f" target="_top" xlink:title=" ">
<polygon fill="#fff0f0" stroke="red" points="637,-20.75 514.5,-20.75 514.5,0 637,0 637,-20.75"/>
<text xml:space="preserve" text-anchor="middle" x="575.75" y="-7.25" font-family="Helvetica,sans-Serif" font-size="10.00">m_active_button_free</text>
</a>
</g>
</g>
<!-- Node5&#45;&gt;Node11 -->
<g id="edge6_Node000005_Node000011" class="edge">
<title>Node5&#45;&gt;Node11</title>
<g id="a_edge6_Node000005_Node000011"><a xlink:title=" ">
<path fill="none" stroke="#63b8ff" d="M475.84,-34.93C490.56,-31.28 506.01,-27.44 520.21,-23.92"/>
<polygon fill="#63b8ff" stroke="#63b8ff" points="520.95,-27.34 529.82,-21.53 519.27,-20.55 520.95,-27.34"/>
</a>
</g>
</g>
</g>
</svg>
