<?xml version="1.0" encoding="UTF-8" standalone="no"?>
<!DOCTYPE svg PUBLIC "-//W3C//DTD SVG 1.1//EN"
 "http://www.w3.org/Graphics/SVG/1.1/DTD/svg11.dtd">
<!-- Generated by graphviz version 13.1.2 (20250808.2320)
 -->
<!-- Title: m_active_button_set_index Pages: 1 -->
<svg width="664pt" height="94pt"
 viewBox="0.00 0.00 664.00 94.00" xmlns="http://www.w3.org/2000/svg" xmlns:xlink="http://www.w3.org/1999/xlink">
<g id="graph0" class="graph" transform="scale(1 1) rotate(0) translate(4 89.5)">
<title>m_active_button_set_index</title>
<!-- Node1 -->
<g id="Node000001" class="node">
<title>Node1</title>
<g id="a_Node000001"><a xlink:title=" ">
<polygon fill="#999999" stroke="#666666" points="655.75,-58.5 537.75,-58.5 537.75,-25 655.75,-25 655.75,-58.5"/>
<text xml:space="preserve" text-anchor="start" x="545.75" y="-45" font-family="Helvetica,sans-Serif" font-size="10.00">m_active_button_set</text>
<text xml:space="preserve" text-anchor="middle" x="596.75" y="-32.25" font-family="Helvetica,sans-Serif" font-size="10.00">_index</text>
</a>
</g>
</g>
<!-- Node2 -->
<g id="Node000002" class="node">
<title>Node2</title>
<g id="a_Node000002"><a xlink:href="m__button_8c.html#a10d2fa5e282222e52b847976348e40ff" target="_top" xlink:title=" ">
<polygon fill="white" stroke="#666666" points="485.62,-81.5 357.12,-81.5 357.12,-48 485.62,-48 485.62,-81.5"/>
<text xml:space="preserve" text-anchor="start" x="365.12" y="-68" font-family="Helvetica,sans-Serif" font-size="10.00">m_active_button_array</text>
<text xml:space="preserve" text-anchor="middle" x="421.38" y="-55.25" font-family="Helvetica,sans-Serif" font-size="10.00">_remove</text>
</a>
</g>
</g>
<!-- Node1&#45;&gt;Node2 -->
<g id="edge1_Node000001_Node000002" class="edge">
<title>Node1&#45;&gt;Node2</title>
<g id="a_edge1_Node000001_Node000002"><a xlink:title=" ">
<path fill="none" stroke="#63b8ff" d="M526.5,-50.94C513.16,-52.71 499.25,-54.55 486.09,-56.3"/>
<polygon fill="#63b8ff" stroke="#63b8ff" points="526.58,-54.46 536.04,-49.67 525.66,-47.52 526.58,-54.46"/>
</a>
</g>
</g>
<!-- Node37 -->
<g id="Node000037" class="node">
<title>Node37</title>
<g id="a_Node000037"><a xlink:href="m__button_8c.html#acfdec551d0d80d8600e418ca3286aca4" target="_top" xlink:title=" ">
<polygon fill="white" stroke="#666666" points="501.75,-30.12 341,-30.12 341,-9.38 501.75,-9.38 501.75,-30.12"/>
<text xml:space="preserve" text-anchor="middle" x="421.38" y="-16.62" font-family="Helvetica,sans-Serif" font-size="10.00">m_active_button_pressing_cb</text>
</a>
</g>
</g>
<!-- Node1&#45;&gt;Node37 -->
<g id="edge4_Node000001_Node000037" class="edge">
<title>Node1&#45;&gt;Node37</title>
<g id="a_edge4_Node000001_Node000037"><a xlink:title=" ">
<path fill="none" stroke="#63b8ff" d="M526.37,-32.95C518.36,-31.93 510.14,-30.89 502,-29.85"/>
<polygon fill="#63b8ff" stroke="#63b8ff" points="525.67,-36.39 536.03,-34.17 526.55,-29.44 525.67,-36.39"/>
</a>
</g>
</g>
<!-- Node3 -->
<g id="Node000003" class="node">
<title>Node3</title>
<g id="a_Node000003"><a xlink:href="m__button_8c.html#aa4b3495a4356ccb537ce93b53b6e3364" target="_top" xlink:title=" ">
<polygon fill="white" stroke="#666666" points="305,-83.5 171.25,-83.5 171.25,-50 305,-50 305,-83.5"/>
<text xml:space="preserve" text-anchor="start" x="179.25" y="-70" font-family="Helvetica,sans-Serif" font-size="10.00">m_active_button_delete</text>
<text xml:space="preserve" text-anchor="middle" x="238.12" y="-57.25" font-family="Helvetica,sans-Serif" font-size="10.00">_anim_ready_cb</text>
</a>
</g>
</g>
<!-- Node2&#45;&gt;Node3 -->
<g id="edge2_Node000002_Node000003" class="edge">
<title>Node2&#45;&gt;Node3</title>
<g id="a_edge2_Node000002_Node000003"><a xlink:title=" ">
<path fill="none" stroke="#63b8ff" d="M345.25,-65.58C332.03,-65.72 318.35,-65.88 305.38,-66.02"/>
<polygon fill="#63b8ff" stroke="#63b8ff" points="345.25,-69.08 355.21,-65.47 345.18,-62.08 345.25,-69.08"/>
</a>
</g>
</g>
<!-- Node4 -->
<g id="Node000004" class="node">
<title>Node4</title>
<g id="a_Node000004"><a xlink:href="m__button_8c.html#aad38fccbad65898b1dbf74316f5bf81d" target="_top" xlink:title=" ">
<polygon fill="#fff0f0" stroke="red" points="135.25,-85.5 0,-85.5 0,-52 135.25,-52 135.25,-85.5"/>
<text xml:space="preserve" text-anchor="start" x="8" y="-72" font-family="Helvetica,sans-Serif" font-size="10.00">m_active_button_trigger</text>
<text xml:space="preserve" text-anchor="middle" x="67.62" y="-59.25" font-family="Helvetica,sans-Serif" font-size="10.00">_delete_anim</text>
</a>
</g>
</g>
<!-- Node3&#45;&gt;Node4 -->
<g id="edge3_Node000003_Node000004" class="edge">
<title>Node3&#45;&gt;Node4</title>
<g id="a_edge3_Node000003_Node000004"><a xlink:title=" ">
<path fill="none" stroke="#63b8ff" d="M159.73,-67.67C151.69,-67.76 143.57,-67.86 135.65,-67.95"/>
<polygon fill="#63b8ff" stroke="#63b8ff" points="159.54,-71.17 169.5,-67.55 159.46,-64.17 159.54,-71.17"/>
</a>
</g>
</g>
<!-- Node38 -->
<g id="Node000038" class="node">
<title>Node38</title>
<g id="a_Node000038"><a xlink:href="m__button_8c.html#a1e462ff2ab3235d91ca20e87de75e11c" target="_top" xlink:title=" ">
<polygon fill="white" stroke="#666666" points="297.5,-30.12 178.75,-30.12 178.75,-9.38 297.5,-9.38 297.5,-30.12"/>
<text xml:space="preserve" text-anchor="middle" x="238.12" y="-16.62" font-family="Helvetica,sans-Serif" font-size="10.00">m_active_button_init</text>
</a>
</g>
</g>
<!-- Node37&#45;&gt;Node38 -->
<g id="edge5_Node000037_Node000038" class="edge">
<title>Node37&#45;&gt;Node38</title>
<g id="a_edge5_Node000037_Node000038"><a xlink:title=" ">
<path fill="none" stroke="#63b8ff" d="M329.13,-19.75C318.53,-19.75 307.95,-19.75 297.95,-19.75"/>
<polygon fill="#63b8ff" stroke="#63b8ff" points="329.1,-23.25 339.1,-19.75 329.1,-16.25 329.1,-23.25"/>
</a>
</g>
</g>
<!-- Node7 -->
<g id="Node000007" class="node">
<title>Node7</title>
<g id="a_Node000007"><a xlink:href="m__button_8c.html#a5692c243172ed156d2fd4cc77fe1aae2" target="_top" xlink:title=" ">
<polygon fill="#fff0f0" stroke="red" points="131.88,-33.5 3.38,-33.5 3.38,0 131.88,0 131.88,-33.5"/>
<text xml:space="preserve" text-anchor="start" x="11.38" y="-20" font-family="Helvetica,sans-Serif" font-size="10.00">m_active_button_array</text>
<text xml:space="preserve" text-anchor="middle" x="67.62" y="-7.25" font-family="Helvetica,sans-Serif" font-size="10.00">_append_new</text>
</a>
</g>
</g>
<!-- Node38&#45;&gt;Node7 -->
<g id="edge6_Node000038_Node000007" class="edge">
<title>Node38&#45;&gt;Node7</title>
<g id="a_edge6_Node000038_Node000007"><a xlink:title=" ">
<path fill="none" stroke="#63b8ff" d="M167.21,-18.51C155.59,-18.3 143.6,-18.08 132.16,-17.88"/>
<polygon fill="#63b8ff" stroke="#63b8ff" points="167.09,-22 177.15,-18.68 167.22,-15 167.09,-22"/>
</a>
</g>
</g>
</g>
</svg>
