<?xml version="1.0" encoding="UTF-8" standalone="no"?>
<!DOCTYPE svg PUBLIC "-//W3C//DTD SVG 1.1//EN"
 "http://www.w3.org/Graphics/SVG/1.1/DTD/svg11.dtd">
<!-- Generated by graphviz version 13.1.2 (20250808.2320)
 -->
<!-- Title: m_active_button_init Pages: 1 -->
<!--zoomable 429 -->

<svg id="main" version="1.1" xmlns="http://www.w3.org/2000/svg" xmlns:xlink="http://www.w3.org/1999/xlink" xml:space="preserve" onload="init(evt)">

<style type="text/css"><![CDATA[
.node, .edge {opacity: 0.7;}
.node.selected, .edge.selected {opacity: 1;}
.edge:hover path { stroke: red; }
.edge:hover polygon { stroke: red; fill: red; }
]]></style>

<defs>
  <circle id="rim" cx="0" cy="0" r="7"/>
  <circle id="rim2" cx="0" cy="0" r="3.5"/>
  <g id="zoomPlus">
    <use xlink:href="#rim" fill="#404040"><set attributeName="fill" to="#808080" begin="zoomplus.mouseover" end="zoomplus.mouseout"/></use>
    <path d="M-4,0h8M0,-4v8" fill="none" stroke="white" stroke-width="1.5" pointer-events="none"/>
  </g>
  <g id="zoomMin">
    <use xlink:href="#rim" fill="#404040"><set attributeName="fill" to="#808080" begin="zoomminus.mouseover" end="zoomminus.mouseout"/></use>
    <path d="M-4,0h8" fill="none" stroke="white" stroke-width="1.5" pointer-events="none"/>
  </g>
  <g id="arrowUp" transform="translate(30 24)">
    <use xlink:href="#rim"/>
    <path pointer-events="none" fill="none" stroke="white" stroke-width="1.5" d="M0,-3.0v7 M-2.5,-0.5L0,-3.0L2.5,-0.5"/>
  </g>
  <g id="arrowRight" transform="rotate(90) translate(36 -43)">
    <use xlink:href="#rim"/>
    <path pointer-events="none" fill="none" stroke="white" stroke-width="1.5" d="M0,-3.0v7 M-2.5,-0.5L0,-3.0L2.5,-0.5"/>
  </g>
  <g id="arrowDown" transform="rotate(180) translate(-30 -48)">
    <use xlink:href="#rim"/>
    <path pointer-events="none" fill="none" stroke="white" stroke-width="1.5" d="M0,-3.0v7 M-2.5,-0.5L0,-3.0L2.5,-0.5"/>
  </g>
  <g id="arrowLeft" transform="rotate(270) translate(-36 17)">
    <use xlink:href="#rim"/>
    <path pointer-events="none" fill="none" stroke="white" stroke-width="1.5" d="M0,-3.0v7 M-2.5,-0.5L0,-3.0L2.5,-0.5"/>
  </g>
  <g id="resetDef">
    <use xlink:href="#rim2" fill="#404040"><set attributeName="fill" to="#808080" begin="reset.mouseover" end="reset.mouseout"/></use>
  </g>
</defs>
<script type="application/ecmascript">
var viewWidth = 835;
var viewHeight = 429;
var sectionId = 'dynsection-47';
</script>
<script type="application/ecmascript" xlink:href="svg.min.js"/>
<svg id="graph" class="graph">
<g id="viewport">
<title>m_active_button_init</title>
<!-- Node1 -->
<g id="Node000001" class="node">
<title>Node1</title>
<g id="a_Node000001"><a xlink:title=" ">
<polygon fill="#999999" stroke="#666666" points="118.75,-265.12 0,-265.12 0,-244.38 118.75,-244.38 118.75,-265.12"/>
<text xml:space="preserve" text-anchor="middle" x="59.38" y="-251.62" font-family="Helvetica,sans-Serif" font-size="10.00">m_active_button_init</text>
</a>
</g>
</g>
<!-- Node2 -->
<g id="Node000002" class="node">
<title>Node2</title>
<g id="a_Node000002"><a xlink:href="m__button_8c.html#abe2023eec9ead06a26633852308e65d4" target="_top" xlink:title=" ">
<polygon fill="white" stroke="#666666" points="296.75,-421.12 173.5,-421.12 173.5,-400.38 296.75,-400.38 296.75,-421.12"/>
<text xml:space="preserve" text-anchor="middle" x="235.12" y="-407.62" font-family="Helvetica,sans-Serif" font-size="10.00">button_set_clicked_cb</text>
</a>
</g>
</g>
<!-- Node1&#45;&gt;Node2 -->
<g id="edge1_Node000001_Node000002" class="edge">
<title>Node1&#45;&gt;Node2</title>
<g id="a_edge1_Node000001_Node000002"><a xlink:title=" ">
<path fill="none" stroke="#63b8ff" d="M64.67,-265.55C75.54,-291.48 106.78,-357.54 154.75,-390.75 157.29,-392.51 159.97,-394.11 162.76,-395.58"/>
<polygon fill="#63b8ff" stroke="#63b8ff" points="161.25,-398.74 171.8,-399.66 164.13,-392.36 161.25,-398.74"/>
</a>
</g>
</g>
<!-- Node3 -->
<g id="Node000003" class="node">
<title>Node3</title>
<g id="a_Node000003"><a xlink:href="m__button_8c.html#a9ac887e55e29dc9191cac507ab029670" target="_top" xlink:title=" ">
<polygon fill="white" stroke="#666666" points="312.12,-382.12 158.12,-382.12 158.12,-361.38 312.12,-361.38 312.12,-382.12"/>
<text xml:space="preserve" text-anchor="middle" x="235.12" y="-368.62" font-family="Helvetica,sans-Serif" font-size="10.00">button_set_long_pressed_cb</text>
</a>
</g>
</g>
<!-- Node1&#45;&gt;Node3 -->
<g id="edge2_Node000001_Node000003" class="edge">
<title>Node1&#45;&gt;Node3</title>
<g id="a_edge2_Node000001_Node000003"><a xlink:title=" ">
<path fill="none" stroke="#63b8ff" d="M67.57,-265.37C81.77,-285.47 115.46,-329.1 154.75,-351.75 157.95,-353.6 161.32,-355.27 164.79,-356.8"/>
<polygon fill="#63b8ff" stroke="#63b8ff" points="163.44,-360.03 174.03,-360.37 165.97,-353.5 163.44,-360.03"/>
</a>
</g>
</g>
<!-- Node4 -->
<g id="Node000004" class="node">
<title>Node4</title>
<g id="a_Node000004"><a xlink:href="m__button_8c.html#a363980e91486a9f4a0d28db665e23b11" target="_top" xlink:title=" ">
<polygon fill="white" stroke="#666666" points="300.5,-343.12 169.75,-343.12 169.75,-322.38 300.5,-322.38 300.5,-343.12"/>
<text xml:space="preserve" text-anchor="middle" x="235.12" y="-329.62" font-family="Helvetica,sans-Serif" font-size="10.00">button_set_pressing_cb</text>
</a>
</g>
</g>
<!-- Node1&#45;&gt;Node4 -->
<g id="edge3_Node000001_Node000004" class="edge">
<title>Node1&#45;&gt;Node4</title>
<g id="a_edge3_Node000001_Node000004"><a xlink:title=" ">
<path fill="none" stroke="#63b8ff" d="M74.66,-265.46C92.52,-278.39 124.45,-299.98 154.75,-312.75 159.94,-314.94 165.42,-316.93 170.98,-318.73"/>
<polygon fill="#63b8ff" stroke="#63b8ff" points="169.68,-321.99 180.27,-321.52 171.7,-315.29 169.68,-321.99"/>
</a>
</g>
</g>
<!-- Node5 -->
<g id="Node000005" class="node">
<title>Node5</title>
<g id="a_Node000005"><a xlink:href="m__button_8c.html#abe1d412625ec1b7314daa5e13cd4c84c" target="_top" xlink:title=" ">
<polygon fill="white" stroke="#666666" points="300.88,-304.12 169.38,-304.12 169.38,-283.38 300.88,-283.38 300.88,-304.12"/>
<text xml:space="preserve" text-anchor="middle" x="235.12" y="-290.62" font-family="Helvetica,sans-Serif" font-size="10.00">button_set_released_cb</text>
</a>
</g>
</g>
<!-- Node1&#45;&gt;Node5 -->
<g id="edge4_Node000001_Node000005" class="edge">
<title>Node1&#45;&gt;Node5</title>
<g id="a_edge4_Node000001_Node000005"><a xlink:title=" ">
<path fill="none" stroke="#63b8ff" d="M108.77,-265.61C129.21,-270.2 153.21,-275.59 174.7,-280.41"/>
<polygon fill="#63b8ff" stroke="#63b8ff" points="173.68,-283.77 184.21,-282.55 175.22,-276.94 173.68,-283.77"/>
</a>
</g>
</g>
<!-- Node6 -->
<g id="Node000006" class="node">
<title>Node6</title>
<g id="a_Node000006"><a xlink:href="m__button_8c.html#a258b9a4b93506db006c3e2cbe4483d45" target="_top" xlink:title=" ">
<polygon fill="white" stroke="#666666" points="269.38,-265.12 200.88,-265.12 200.88,-244.38 269.38,-244.38 269.38,-265.12"/>
<text xml:space="preserve" text-anchor="middle" x="235.12" y="-251.62" font-family="Helvetica,sans-Serif" font-size="10.00">init_button</text>
</a>
</g>
</g>
<!-- Node1&#45;&gt;Node6 -->
<g id="edge5_Node000001_Node000006" class="edge">
<title>Node1&#45;&gt;Node6</title>
<g id="a_edge5_Node000001_Node000006"><a xlink:title=" ">
<path fill="none" stroke="#63b8ff" d="M119.2,-254.75C142.04,-254.75 167.78,-254.75 189.11,-254.75"/>
<polygon fill="#63b8ff" stroke="#63b8ff" points="188.94,-258.25 198.94,-254.75 188.94,-251.25 188.94,-258.25"/>
</a>
</g>
</g>
<!-- Node7 -->
<g id="Node000007" class="node">
<title>Node7</title>
<g id="a_Node000007"><a xlink:href="m__button_8c.html#ae1487e4688d4698e7fa085f7d8870967" target="_top" xlink:title=" ">
<polygon fill="white" stroke="#666666" points="311.75,-226.12 158.5,-226.12 158.5,-205.38 311.75,-205.38 311.75,-226.12"/>
<text xml:space="preserve" text-anchor="middle" x="235.12" y="-212.62" font-family="Helvetica,sans-Serif" font-size="10.00">m_active_button_clicked_cb</text>
</a>
</g>
</g>
<!-- Node1&#45;&gt;Node7 -->
<g id="edge6_Node000001_Node000007" class="edge">
<title>Node1&#45;&gt;Node7</title>
<g id="a_edge6_Node000001_Node000007"><a xlink:title=" ">
<path fill="none" stroke="#63b8ff" d="M108.77,-243.89C129.21,-239.3 153.21,-233.91 174.7,-229.09"/>
<polygon fill="#63b8ff" stroke="#63b8ff" points="175.22,-232.56 184.21,-226.95 173.68,-225.73 175.22,-232.56"/>
</a>
</g>
</g>
<!-- Node8 -->
<g id="Node000008" class="node">
<title>Node8</title>
<g id="a_Node000008"><a xlink:href="m__button_8c.html#a59f67e82a528f3414f76c60b57d7aee5" target="_top" xlink:title=" ">
<polygon fill="white" stroke="#666666" points="297.12,-187.5 173.12,-187.5 173.12,-154 297.12,-154 297.12,-187.5"/>
<text xml:space="preserve" text-anchor="start" x="181.12" y="-174" font-family="Helvetica,sans-Serif" font-size="10.00">m_active_button_long</text>
<text xml:space="preserve" text-anchor="middle" x="235.12" y="-161.25" font-family="Helvetica,sans-Serif" font-size="10.00">_pressed_cb</text>
</a>
</g>
</g>
<!-- Node1&#45;&gt;Node8 -->
<g id="edge7_Node000001_Node000008" class="edge">
<title>Node1&#45;&gt;Node8</title>
<g id="a_edge7_Node000001_Node000008"><a xlink:title=" ">
<path fill="none" stroke="#63b8ff" d="M75.45,-243.94C93.58,-231.31 125.26,-210.41 154.75,-196.75 158.28,-195.12 161.94,-193.54 165.66,-192.02"/>
<polygon fill="#63b8ff" stroke="#63b8ff" points="166.8,-195.34 174.87,-188.47 164.28,-188.81 166.8,-195.34"/>
</a>
</g>
</g>
<!-- Node15 -->
<g id="Node000015" class="node">
<title>Node15</title>
<g id="a_Node000015"><a xlink:href="m__button_8c.html#acfdec551d0d80d8600e418ca3286aca4" target="_top" xlink:title=" ">
<polygon fill="white" stroke="#666666" points="315.5,-62.12 154.75,-62.12 154.75,-41.38 315.5,-41.38 315.5,-62.12"/>
<text xml:space="preserve" text-anchor="middle" x="235.12" y="-48.62" font-family="Helvetica,sans-Serif" font-size="10.00">m_active_button_pressing_cb</text>
</a>
</g>
</g>
<!-- Node1&#45;&gt;Node15 -->
<g id="edge13_Node000001_Node000015" class="edge">
<title>Node1&#45;&gt;Node15</title>
<g id="a_edge13_Node000001_Node000015"><a xlink:title=" ">
<path fill="none" stroke="#63b8ff" d="M65.01,-244.17C76.9,-217.95 110.64,-148.82 154.75,-103.75 168.65,-89.55 187.06,-77.19 202.66,-68.09"/>
<polygon fill="#63b8ff" stroke="#63b8ff" points="204.11,-71.29 211.1,-63.33 200.67,-65.19 204.11,-71.29"/>
</a>
</g>
</g>
<!-- Node20 -->
<g id="Node000020" class="node">
<title>Node20</title>
<g id="a_Node000020"><a xlink:href="m__button_8c.html#a2a78bc2cfb8e4db65e7d62b887098129" target="_top" xlink:title=" ">
<polygon fill="white" stroke="#666666" points="312.88,-133.12 157.38,-133.12 157.38,-112.38 312.88,-112.38 312.88,-133.12"/>
<text xml:space="preserve" text-anchor="middle" x="235.12" y="-119.62" font-family="Helvetica,sans-Serif" font-size="10.00">m_active_button_release_cb</text>
</a>
</g>
</g>
<!-- Node1&#45;&gt;Node20 -->
<g id="edge17_Node000001_Node000020" class="edge">
<title>Node1&#45;&gt;Node20</title>
<g id="a_edge17_Node000001_Node000020"><a xlink:title=" ">
<path fill="none" stroke="#63b8ff" d="M66.44,-244.15C79.58,-222.14 112.91,-171.33 154.75,-144.75 158.94,-142.09 163.45,-139.75 168.11,-137.68"/>
<polygon fill="#63b8ff" stroke="#63b8ff" points="169.08,-141.06 177.11,-134.15 166.53,-134.55 169.08,-141.06"/>
</a>
</g>
</g>
<!-- Node9 -->
<g id="Node000009" class="node">
<title>Node9</title>
<g id="a_Node000009"><a xlink:href="m__button_8c.html#a14456b3fca0ca216875fe34640974d37" target="_top" xlink:title=" ">
<polygon fill="white" stroke="#666666" points="668.12,-234.5 532.88,-234.5 532.88,-201 668.12,-201 668.12,-234.5"/>
<text xml:space="preserve" text-anchor="start" x="540.88" y="-221" font-family="Helvetica,sans-Serif" font-size="10.00">m_active_button_trigger</text>
<text xml:space="preserve" text-anchor="middle" x="600.5" y="-208.25" font-family="Helvetica,sans-Serif" font-size="10.00">_del_button_fade_in</text>
</a>
</g>
</g>
<!-- Node8&#45;&gt;Node9 -->
<g id="edge8_Node000008_Node000009" class="edge">
<title>Node8&#45;&gt;Node9</title>
<g id="a_edge8_Node000008_Node000009"><a xlink:title=" ">
<path fill="none" stroke="#63b8ff" d="M297.43,-187.57C314.79,-191.81 333.79,-195.94 351.5,-198.75 407.86,-207.69 472.12,-212.46 521.11,-214.99"/>
<polygon fill="#63b8ff" stroke="#63b8ff" points="520.91,-218.48 531.07,-215.48 521.26,-211.49 520.91,-218.48"/>
</a>
</g>
</g>
<!-- Node13 -->
<g id="Node000013" class="node">
<title>Node13</title>
<g id="a_Node000013"><a xlink:href="m__button_8c.html#ab027798345e9b25990a0902927796207" target="_top" xlink:title=" ">
<polygon fill="white" stroke="#666666" points="489.38,-189.5 354.12,-189.5 354.12,-156 489.38,-156 489.38,-189.5"/>
<text xml:space="preserve" text-anchor="start" x="362.12" y="-176" font-family="Helvetica,sans-Serif" font-size="10.00">m_active_button_trigger</text>
<text xml:space="preserve" text-anchor="middle" x="421.75" y="-163.25" font-family="Helvetica,sans-Serif" font-size="10.00">_scale_anim</text>
</a>
</g>
</g>
<!-- Node8&#45;&gt;Node13 -->
<g id="edge11_Node000008_Node000013" class="edge">
<title>Node8&#45;&gt;Node13</title>
<g id="a_edge11_Node000008_Node000013"><a xlink:title=" ">
<path fill="none" stroke="#63b8ff" d="M297.6,-171.42C311.98,-171.57 327.48,-171.74 342.48,-171.9"/>
<polygon fill="#63b8ff" stroke="#63b8ff" points="342.28,-175.4 352.31,-172.01 342.35,-168.4 342.28,-175.4"/>
</a>
</g>
</g>
<!-- Node10 -->
<g id="Node000010" class="node">
<title>Node10</title>
<g id="a_Node000010"><a xlink:href="m__button_8c.html#ac4a839eefb4f982796a0f8462e5318e7" target="_top" xlink:title=" ">
<polygon fill="#fff0f0" stroke="red" points="827,-222.5 709,-222.5 709,-189 827,-189 827,-222.5"/>
<text xml:space="preserve" text-anchor="start" x="717" y="-209" font-family="Helvetica,sans-Serif" font-size="10.00">m_active_button_del</text>
<text xml:space="preserve" text-anchor="middle" x="768" y="-196.25" font-family="Helvetica,sans-Serif" font-size="10.00">_button_fade_cb</text>
</a>
</g>
</g>
<!-- Node9&#45;&gt;Node10 -->
<g id="edge9_Node000009_Node000010" class="edge">
<title>Node9&#45;&gt;Node10</title>
<g id="a_edge9_Node000009_Node000010"><a xlink:title=" ">
<path fill="none" stroke="#63b8ff" d="M668.34,-212.9C677.95,-212.21 687.85,-211.49 697.51,-210.79"/>
<polygon fill="#63b8ff" stroke="#63b8ff" points="697.47,-214.3 707.19,-210.09 696.96,-207.32 697.47,-214.3"/>
</a>
</g>
</g>
<!-- Node12 -->
<g id="Node000012" class="node">
<title>Node12</title>
<g id="a_Node000012"><a xlink:href="m__button_8c.html#a723549b2005d922cf14dc4ae275791b9" target="_top" xlink:title=" ">
<polygon fill="white" stroke="#666666" points="818.38,-160.12 717.62,-160.12 717.62,-139.38 818.38,-139.38 818.38,-160.12"/>
<text xml:space="preserve" text-anchor="middle" x="768" y="-146.62" font-family="Helvetica,sans-Serif" font-size="10.00">m_button_unhide</text>
</a>
</g>
</g>
<!-- Node9&#45;&gt;Node12 -->
<g id="edge10_Node000009_Node000012" class="edge">
<title>Node9&#45;&gt;Node12</title>
<g id="a_edge10_Node000009_Node000012"><a xlink:title=" ">
<path fill="none" stroke="#63b8ff" d="M650.14,-200.59C657.82,-197.73 665.65,-194.72 673,-191.75 693.4,-183.49 715.93,-173.46 733.81,-165.27"/>
<polygon fill="#63b8ff" stroke="#63b8ff" points="735.03,-168.57 742.64,-161.2 732.1,-162.21 735.03,-168.57"/>
</a>
</g>
</g>
<!-- Node14 -->
<g id="Node000014" class="node">
<title>Node14</title>
<g id="a_Node000014"><a xlink:href="m__button_8c.html#acee0272564da22fe15db3b3ce815bf35" target="_top" xlink:title=" ">
<polygon fill="white" stroke="#666666" points="673,-183.12 528,-183.12 528,-162.38 673,-162.38 673,-183.12"/>
<text xml:space="preserve" text-anchor="middle" x="600.5" y="-169.62" font-family="Helvetica,sans-Serif" font-size="10.00">m_active_button_scale_cb</text>
</a>
</g>
</g>
<!-- Node13&#45;&gt;Node14 -->
<g id="edge12_Node000013_Node000014" class="edge">
<title>Node13&#45;&gt;Node14</title>
<g id="a_edge12_Node000013_Node000014"><a xlink:title=" ">
<path fill="none" stroke="#63b8ff" d="M489.82,-172.75C498.54,-172.75 507.56,-172.75 516.5,-172.75"/>
<polygon fill="#63b8ff" stroke="#63b8ff" points="516.25,-176.25 526.25,-172.75 516.25,-169.25 516.25,-176.25"/>
</a>
</g>
</g>
<!-- Node16 -->
<g id="Node000016" class="node">
<title>Node16</title>
<g id="a_Node000016"><a xlink:href="m__button_8c.html#a5d64db3a975ca74159c51d38dba5c3ea" target="_top" xlink:title=" ">
<polygon fill="white" stroke="#666666" points="480.75,-33.5 362.75,-33.5 362.75,0 480.75,0 480.75,-33.5"/>
<text xml:space="preserve" text-anchor="start" x="370.75" y="-20" font-family="Helvetica,sans-Serif" font-size="10.00">m_active_button_set</text>
<text xml:space="preserve" text-anchor="middle" x="421.75" y="-7.25" font-family="Helvetica,sans-Serif" font-size="10.00">_index</text>
</a>
</g>
</g>
<!-- Node15&#45;&gt;Node16 -->
<g id="edge14_Node000015_Node000016" class="edge">
<title>Node15&#45;&gt;Node16</title>
<g id="a_edge14_Node000015_Node000016"><a xlink:title=" ">
<path fill="none" stroke="#63b8ff" d="M293.28,-40.92C311.6,-37.44 332.1,-33.56 351.21,-29.93"/>
<polygon fill="#63b8ff" stroke="#63b8ff" points="351.62,-33.42 360.79,-28.12 350.31,-26.54 351.62,-33.42"/>
</a>
</g>
</g>
<!-- Node17 -->
<g id="Node000017" class="node">
<title>Node17</title>
<g id="a_Node000017"><a xlink:href="m__button_8c.html#a01977bd5b566d44470da5c8d5bb9f3c7" target="_top" xlink:title=" ">
<polygon fill="white" stroke="#666666" points="664.75,-33.5 536.25,-33.5 536.25,0 664.75,0 664.75,-33.5"/>
<text xml:space="preserve" text-anchor="start" x="544.25" y="-20" font-family="Helvetica,sans-Serif" font-size="10.00">m_active_button_array</text>
<text xml:space="preserve" text-anchor="middle" x="600.5" y="-7.25" font-family="Helvetica,sans-Serif" font-size="10.00">_index_y_position</text>
</a>
</g>
</g>
<!-- Node16&#45;&gt;Node17 -->
<g id="edge15_Node000016_Node000017" class="edge">
<title>Node16&#45;&gt;Node17</title>
<g id="a_edge15_Node000016_Node000017"><a xlink:title=" ">
<path fill="none" stroke="#63b8ff" d="M481.11,-16.75C495,-16.75 510.01,-16.75 524.52,-16.75"/>
<polygon fill="#63b8ff" stroke="#63b8ff" points="524.51,-20.25 534.51,-16.75 524.51,-13.25 524.51,-20.25"/>
</a>
</g>
</g>
<!-- Node18 -->
<g id="Node000018" class="node">
<title>Node18</title>
<g id="a_Node000018"><a xlink:href="m__button_8c.html#a48f24f48779e826679c7cb4697395e5b" target="_top" xlink:title=" ">
<polygon fill="#fff0f0" stroke="red" points="668.12,-85.5 532.88,-85.5 532.88,-52 668.12,-52 668.12,-85.5"/>
<text xml:space="preserve" text-anchor="start" x="540.88" y="-72" font-family="Helvetica,sans-Serif" font-size="10.00">m_active_button_trigger</text>
<text xml:space="preserve" text-anchor="middle" x="600.5" y="-59.25" font-family="Helvetica,sans-Serif" font-size="10.00">_glide_anim</text>
</a>
</g>
</g>
<!-- Node16&#45;&gt;Node18 -->
<g id="edge16_Node000016_Node000018" class="edge">
<title>Node16&#45;&gt;Node18</title>
<g id="a_edge16_Node000016_Node000018"><a xlink:title=" ">
<path fill="none" stroke="#63b8ff" d="M481.11,-33.92C496.72,-38.51 513.74,-43.52 529.89,-48.27"/>
<polygon fill="#63b8ff" stroke="#63b8ff" points="528.86,-51.62 539.44,-51.08 530.84,-44.9 528.86,-51.62"/>
</a>
</g>
</g>
<!-- Node20&#45;&gt;Node13 -->
<g id="edge25_Node000020_Node000013" class="edge">
<title>Node20&#45;&gt;Node13</title>
<g id="a_edge25_Node000020_Node000013"><a xlink:title=" ">
<path fill="none" stroke="#63b8ff" d="M276.19,-133.6C296.69,-139.15 322.33,-146.1 346.3,-152.59"/>
<polygon fill="#63b8ff" stroke="#63b8ff" points="345.15,-155.9 355.71,-155.14 346.98,-149.14 345.15,-155.9"/>
</a>
</g>
</g>
<!-- Node21 -->
<g id="Node000021" class="node">
<title>Node21</title>
<g id="a_Node000021"><a xlink:href="m__button_8c.html#a7319debc75a29b06e07085b8548dffb5" target="_top" xlink:title=" ">
<polygon fill="white" stroke="#666666" points="492,-137.5 351.5,-137.5 351.5,-104 492,-104 492,-137.5"/>
<text xml:space="preserve" text-anchor="start" x="359.5" y="-124" font-family="Helvetica,sans-Serif" font-size="10.00">m_active_button_del</text>
<text xml:space="preserve" text-anchor="middle" x="421.75" y="-111.25" font-family="Helvetica,sans-Serif" font-size="10.00">_button_remain_timer_cb</text>
</a>
</g>
</g>
<!-- Node20&#45;&gt;Node21 -->
<g id="edge18_Node000020_Node000021" class="edge">
<title>Node20&#45;&gt;Node21</title>
<g id="a_edge18_Node000020_Node000021"><a xlink:title=" ">
<path fill="none" stroke="#63b8ff" d="M313.35,-121.91C322.08,-121.82 330.99,-121.72 339.76,-121.63"/>
<polygon fill="#63b8ff" stroke="#63b8ff" points="339.71,-125.13 349.67,-121.52 339.63,-118.13 339.71,-125.13"/>
</a>
</g>
</g>
<!-- Node25 -->
<g id="Node000025" class="node">
<title>Node25</title>
<g id="a_Node000025"><a xlink:href="m__button_8c.html#a5b2a09cdda90e9a031a11b42f4a6dece" target="_top" xlink:title=" ">
<polygon fill="white" stroke="#666666" points="485.62,-85.5 357.88,-85.5 357.88,-52 485.62,-52 485.62,-85.5"/>
<text xml:space="preserve" text-anchor="start" x="365.88" y="-72" font-family="Helvetica,sans-Serif" font-size="10.00">m_active_button_force</text>
<text xml:space="preserve" text-anchor="middle" x="421.75" y="-59.25" font-family="Helvetica,sans-Serif" font-size="10.00">_index</text>
</a>
</g>
</g>
<!-- Node20&#45;&gt;Node25 -->
<g id="edge22_Node000020_Node000025" class="edge">
<title>Node20&#45;&gt;Node25</title>
<g id="a_edge22_Node000020_Node000025"><a xlink:title=" ">
<path fill="none" stroke="#63b8ff" d="M273.04,-111.95C295.43,-105.41 324.7,-96.84 351.28,-89.07"/>
<polygon fill="#63b8ff" stroke="#63b8ff" points="352.02,-92.5 360.64,-86.33 350.06,-85.78 352.02,-92.5"/>
</a>
</g>
</g>
<!-- Node22 -->
<g id="Node000022" class="node">
<title>Node22</title>
<g id="a_Node000022"><a xlink:href="m__button_8c.html#afa0ef27f8dad7323066d94a485e1f28a" target="_top" xlink:title=" ">
<polygon fill="#fff0f0" stroke="red" points="668.12,-144.5 532.88,-144.5 532.88,-111 668.12,-111 668.12,-144.5"/>
<text xml:space="preserve" text-anchor="start" x="540.88" y="-131" font-family="Helvetica,sans-Serif" font-size="10.00">m_active_button_trigger</text>
<text xml:space="preserve" text-anchor="middle" x="600.5" y="-118.25" font-family="Helvetica,sans-Serif" font-size="10.00">_del_button_fade_out</text>
</a>
</g>
</g>
<!-- Node21&#45;&gt;Node22 -->
<g id="edge19_Node000021_Node000022" class="edge">
<title>Node21&#45;&gt;Node22</title>
<g id="a_edge19_Node000021_Node000022"><a xlink:title=" ">
<path fill="none" stroke="#63b8ff" d="M492.35,-123.51C501.87,-123.88 511.68,-124.27 521.33,-124.65"/>
<polygon fill="#63b8ff" stroke="#63b8ff" points="520.92,-128.14 531.05,-125.04 521.19,-121.15 520.92,-128.14"/>
</a>
</g>
</g>
<!-- Node22&#45;&gt;Node10 -->
<g id="edge20_Node000022_Node000010" class="edge">
<title>Node22&#45;&gt;Node10</title>
<g id="a_edge20_Node000022_Node000010"><a xlink:title=" ">
<path fill="none" stroke="#63b8ff" d="M651.91,-144.95C659.06,-147.72 666.27,-150.69 673,-153.75 692.01,-162.4 712.39,-173.44 729.29,-183.12"/>
<polygon fill="#63b8ff" stroke="#63b8ff" points="727.08,-185.88 737.49,-187.87 730.59,-179.83 727.08,-185.88"/>
</a>
</g>
</g>
<!-- Node22&#45;&gt;Node12 -->
<g id="edge21_Node000022_Node000012" class="edge">
<title>Node22&#45;&gt;Node12</title>
<g id="a_edge21_Node000022_Node000012"><a xlink:title=" ">
<path fill="none" stroke="#63b8ff" d="M668.34,-136.63C680.84,-138.3 693.84,-140.03 706.15,-141.66"/>
<polygon fill="#63b8ff" stroke="#63b8ff" points="705.35,-145.09 715.72,-142.93 706.27,-138.15 705.35,-145.09"/>
</a>
</g>
</g>
<!-- Node25&#45;&gt;Node17 -->
<g id="edge23_Node000025_Node000017" class="edge">
<title>Node25&#45;&gt;Node17</title>
<g id="a_edge23_Node000025_Node000017"><a xlink:title=" ">
<path fill="none" stroke="#63b8ff" d="M481.11,-51.58C496.72,-46.99 513.74,-41.98 529.89,-37.23"/>
<polygon fill="#63b8ff" stroke="#63b8ff" points="530.84,-40.6 539.44,-34.42 528.86,-33.88 530.84,-40.6"/>
</a>
</g>
</g>
<!-- Node25&#45;&gt;Node18 -->
<g id="edge24_Node000025_Node000018" class="edge">
<title>Node25&#45;&gt;Node18</title>
<g id="a_edge24_Node000025_Node000018"><a xlink:title=" ">
<path fill="none" stroke="#63b8ff" d="M486.06,-68.75C497.47,-68.75 509.49,-68.75 521.26,-68.75"/>
<polygon fill="#63b8ff" stroke="#63b8ff" points="520.94,-72.25 530.94,-68.75 520.94,-65.25 520.94,-72.25"/>
</a>
</g>
</g>
</g>
</svg>

<g id="navigator" transform="translate(0 0)" fill="#404254">
  <rect fill="#f2f5e9" fill-opacity="0.5" stroke="#606060" stroke-width=".5" x="0" y="0" width="60" height="60"/>
  <use id="zoomplus" xlink:href="#zoomPlus" x="17" y="9" onmousedown="handleZoom(evt,'in')"/>
  <use id="zoomminus" xlink:href="#zoomMin" x="42" y="9" onmousedown="handleZoom(evt,'out')"/>
  <use id="reset" xlink:href="#resetDef" x="30" y="36" onmousedown="handleReset()"/>
   <use id="arrowup" xlink:href="#arrowUp" x="0" y="0" onmousedown="handlePan(0,-1)"/>
  <use id="arrowright" xlink:href="#arrowRight" x="0" y="0" onmousedown="handlePan(1,0)"/>
  <use id="arrowdown" xlink:href="#arrowDown" x="0" y="0" onmousedown="handlePan(0,1)"/>
  <use id="arrowleft" xlink:href="#arrowLeft" x="0" y="0" onmousedown="handlePan(-1,0)"/>
</g>
<svg viewBox="0 0 15 15" width="100%" height="30px" preserveAspectRatio="xMaxYMin meet">
 <g id="arrow_out" transform="scale(0.3 0.3)">
  <a xlink:href="m__button_8c_a1e462ff2ab3235d91ca20e87de75e11c_cgraph_org.svg" target="_base">
   <rect id="button" ry="5" rx="5" y="6" x="6" height="38" width="38"
        fill="#f2f5e9" fill-opacity="0.5" stroke="#606060" stroke-width="1.0"/>
   <path id="arrow"
     d="M 11.500037,31.436501 C 11.940474,20.09759 22.043105,11.32322 32.158766,21.979434 L 37.068811,17.246167 C 37.068811,17.246167 37.088388,32 37.088388,32 L 22.160133,31.978069 C 22.160133,31.978069 26.997745,27.140456 26.997745,27.140456 C 18.528582,18.264221 13.291696,25.230495 11.500037,31.436501 z"
     style="fill:#404040;"/>
  </a>
 </g>
</svg>

<style type='text/css'>
<![CDATA[
[data-mouse-over-selected='false'] { opacity: 0.7; }
[data-mouse-over-selected='true']  { opacity: 1.0; }
]]>
</style>
<script type="application/ecmascript"><![CDATA[
document.addEventListener('DOMContentLoaded', (event) => {
  highlightEdges();
  highlightAdjacentNodes();
});
]]></script>
</svg>
