<?xml version="1.0" encoding="UTF-8" standalone="no"?>
<!DOCTYPE svg PUBLIC "-//W3C//DTD SVG 1.1//EN"
 "http://www.w3.org/Graphics/SVG/1.1/DTD/svg11.dtd">
<!-- Generated by graphviz version 13.1.2 (20250808.2320)
 -->
<!-- Title: m_active_button_trigger_scale_anim Pages: 1 -->
<svg width="654pt" height="80pt"
 viewBox="0.00 0.00 654.00 80.00" xmlns="http://www.w3.org/2000/svg" xmlns:xlink="http://www.w3.org/1999/xlink">
<g id="graph0" class="graph" transform="scale(1 1) rotate(0) translate(4 76.12)">
<title>m_active_button_trigger_scale_anim</title>
<!-- Node1 -->
<g id="Node000001" class="node">
<title>Node1</title>
<g id="a_Node000001"><a xlink:title=" ">
<polygon fill="#999999" stroke="#666666" points="646,-49.12 510.75,-49.12 510.75,-15.62 646,-15.62 646,-49.12"/>
<text xml:space="preserve" text-anchor="start" x="518.75" y="-35.62" font-family="Helvetica,sans-Serif" font-size="10.00">m_active_button_trigger</text>
<text xml:space="preserve" text-anchor="middle" x="578.38" y="-22.88" font-family="Helvetica,sans-Serif" font-size="10.00">_scale_anim</text>
</a>
</g>
</g>
<!-- Node2 -->
<g id="Node000002" class="node">
<title>Node2</title>
<g id="a_Node000002"><a xlink:href="m__button_8c.html#a59f67e82a528f3414f76c60b57d7aee5" target="_top" xlink:title=" ">
<polygon fill="white" stroke="#666666" points="459,-72.12 335,-72.12 335,-38.62 459,-38.62 459,-72.12"/>
<text xml:space="preserve" text-anchor="start" x="343" y="-58.62" font-family="Helvetica,sans-Serif" font-size="10.00">m_active_button_long</text>
<text xml:space="preserve" text-anchor="middle" x="397" y="-45.88" font-family="Helvetica,sans-Serif" font-size="10.00">_pressed_cb</text>
</a>
</g>
</g>
<!-- Node1&#45;&gt;Node2 -->
<g id="edge1_Node000001_Node000002" class="edge">
<title>Node1&#45;&gt;Node2</title>
<g id="a_edge1_Node000001_Node000002"><a xlink:title=" ">
<path fill="none" stroke="#63b8ff" d="M499.22,-42.4C485.87,-44.11 472.18,-45.86 459.34,-47.51"/>
<polygon fill="#63b8ff" stroke="#63b8ff" points="499.35,-45.91 508.83,-41.16 498.46,-38.96 499.35,-45.91"/>
</a>
</g>
</g>
<!-- Node34 -->
<g id="Node000034" class="node">
<title>Node34</title>
<g id="a_Node000034"><a xlink:href="m__button_8c.html#a2a78bc2cfb8e4db65e7d62b887098129" target="_top" xlink:title=" ">
<polygon fill="white" stroke="#666666" points="474.75,-20.75 319.25,-20.75 319.25,0 474.75,0 474.75,-20.75"/>
<text xml:space="preserve" text-anchor="middle" x="397" y="-7.25" font-family="Helvetica,sans-Serif" font-size="10.00">m_active_button_release_cb</text>
</a>
</g>
</g>
<!-- Node1&#45;&gt;Node34 -->
<g id="edge4_Node000001_Node000034" class="edge">
<title>Node1&#45;&gt;Node34</title>
<g id="a_edge4_Node000001_Node000034"><a xlink:title=" ">
<path fill="none" stroke="#63b8ff" d="M498.92,-22.75C491.06,-21.79 483.08,-20.81 475.23,-19.85"/>
<polygon fill="#63b8ff" stroke="#63b8ff" points="498.47,-26.22 508.83,-23.97 499.33,-19.28 498.47,-26.22"/>
</a>
</g>
</g>
<!-- Node3 -->
<g id="Node000003" class="node">
<title>Node3</title>
<g id="a_Node000003"><a xlink:href="m__button_8c.html#a1e462ff2ab3235d91ca20e87de75e11c" target="_top" xlink:title=" ">
<polygon fill="white" stroke="#666666" points="283.25,-42.75 164.5,-42.75 164.5,-22 283.25,-22 283.25,-42.75"/>
<text xml:space="preserve" text-anchor="middle" x="223.88" y="-29.25" font-family="Helvetica,sans-Serif" font-size="10.00">m_active_button_init</text>
</a>
</g>
</g>
<!-- Node2&#45;&gt;Node3 -->
<g id="edge2_Node000002_Node000003" class="edge">
<title>Node2&#45;&gt;Node3</title>
<g id="a_edge2_Node000002_Node000003"><a xlink:title=" ">
<path fill="none" stroke="#63b8ff" d="M323.65,-45.65C310.34,-43.86 296.59,-42.01 283.74,-40.29"/>
<polygon fill="#63b8ff" stroke="#63b8ff" points="322.83,-49.07 333.2,-46.93 323.76,-42.13 322.83,-49.07"/>
</a>
</g>
</g>
<!-- Node4 -->
<g id="Node000004" class="node">
<title>Node4</title>
<g id="a_Node000004"><a xlink:href="m__button_8c.html#a5692c243172ed156d2fd4cc77fe1aae2" target="_top" xlink:title=" ">
<polygon fill="#fff0f0" stroke="red" points="128.5,-49.12 0,-49.12 0,-15.62 128.5,-15.62 128.5,-49.12"/>
<text xml:space="preserve" text-anchor="start" x="8" y="-35.62" font-family="Helvetica,sans-Serif" font-size="10.00">m_active_button_array</text>
<text xml:space="preserve" text-anchor="middle" x="64.25" y="-22.88" font-family="Helvetica,sans-Serif" font-size="10.00">_append_new</text>
</a>
</g>
</g>
<!-- Node3&#45;&gt;Node4 -->
<g id="edge3_Node000003_Node000004" class="edge">
<title>Node3&#45;&gt;Node4</title>
<g id="a_edge3_Node000003_Node000004"><a xlink:title=" ">
<path fill="none" stroke="#63b8ff" d="M152.92,-32.38C144.88,-32.38 136.71,-32.38 128.75,-32.38"/>
<polygon fill="#63b8ff" stroke="#63b8ff" points="152.67,-35.88 162.67,-32.38 152.67,-28.88 152.67,-35.88"/>
</a>
</g>
</g>
<!-- Node34&#45;&gt;Node3 -->
<g id="edge5_Node000034_Node000003" class="edge">
<title>Node34&#45;&gt;Node3</title>
<g id="a_edge5_Node000034_Node000003"><a xlink:title=" ">
<path fill="none" stroke="#63b8ff" d="M307.77,-21.72C299.56,-22.77 291.39,-23.82 283.55,-24.83"/>
<polygon fill="#63b8ff" stroke="#63b8ff" points="307.97,-25.22 317.45,-20.47 307.08,-18.28 307.97,-25.22"/>
</a>
</g>
</g>
</g>
</svg>
