<?xml version="1.0" encoding="UTF-8" standalone="no"?>
<!DOCTYPE svg PUBLIC "-//W3C//DTD SVG 1.1//EN"
 "http://www.w3.org/Graphics/SVG/1.1/DTD/svg11.dtd">
<!-- Generated by graphviz version 13.1.2 (20250808.2320)
 -->
<!-- Title: m_button_create_label_ui Pages: 1 -->
<svg width="934pt" height="249pt"
 viewBox="0.00 0.00 934.00 249.00" xmlns="http://www.w3.org/2000/svg" xmlns:xlink="http://www.w3.org/1999/xlink">
<g id="graph0" class="graph" transform="scale(1 1) rotate(0) translate(4 244.5)">
<title>m_button_create_label_ui</title>
<!-- Node1 -->
<g id="Node000001" class="node">
<title>Node1</title>
<g id="a_Node000001"><a xlink:title=" ">
<polygon fill="#999999" stroke="#666666" points="925.5,-169.75 783.5,-169.75 783.5,-149 925.5,-149 925.5,-169.75"/>
<text xml:space="preserve" text-anchor="middle" x="854.5" y="-156.25" font-family="Helvetica,sans-Serif" font-size="10.00">m_button_create_label_ui</text>
</a>
</g>
</g>
<!-- Node2 -->
<g id="Node000002" class="node">
<title>Node2</title>
<g id="a_Node000002"><a xlink:href="m__button_8c.html#a1046ec98100bf605f32a80b293ec811a" target="_top" xlink:title=" ">
<polygon fill="white" stroke="#666666" points="590.5,-176.12 462.75,-176.12 462.75,-142.62 590.5,-142.62 590.5,-176.12"/>
<text xml:space="preserve" text-anchor="start" x="470.75" y="-162.62" font-family="Helvetica,sans-Serif" font-size="10.00">m_active_button_reset</text>
<text xml:space="preserve" text-anchor="middle" x="526.62" y="-149.88" font-family="Helvetica,sans-Serif" font-size="10.00">_del_button</text>
</a>
</g>
</g>
<!-- Node1&#45;&gt;Node2 -->
<g id="edge1_Node000001_Node000002" class="edge">
<title>Node1&#45;&gt;Node2</title>
<g id="a_edge1_Node000001_Node000002"><a xlink:title=" ">
<path fill="none" stroke="#63b8ff" d="M771.87,-159.38C715.83,-159.38 642.54,-159.38 590.91,-159.38"/>
<polygon fill="#63b8ff" stroke="#63b8ff" points="771.68,-162.88 781.68,-159.38 771.68,-155.88 771.68,-162.88"/>
</a>
</g>
</g>
<!-- Node21 -->
<g id="Node000021" class="node">
<title>Node21</title>
<g id="a_Node000021"><a xlink:href="m__button_8c.html#afe632e3863bfa659738f2ac045098544" target="_top" xlink:title=" ">
<polygon fill="white" stroke="#666666" points="599.5,-240.5 453.75,-240.5 453.75,-194.25 599.5,-194.25 599.5,-240.5"/>
<text xml:space="preserve" text-anchor="start" x="461.75" y="-227" font-family="Helvetica,sans-Serif" font-size="10.00">m_active_button_swap</text>
<text xml:space="preserve" text-anchor="start" x="461.75" y="-214.25" font-family="Helvetica,sans-Serif" font-size="10.00">_del_button_for_persistent</text>
<text xml:space="preserve" text-anchor="middle" x="526.62" y="-201.5" font-family="Helvetica,sans-Serif" font-size="10.00">_unclickable</text>
</a>
</g>
</g>
<!-- Node1&#45;&gt;Node21 -->
<g id="edge6_Node000001_Node000021" class="edge">
<title>Node1&#45;&gt;Node21</title>
<g id="a_edge6_Node000001_Node000021"><a xlink:title=" ">
<path fill="none" stroke="#63b8ff" d="M781.38,-172.21C727.41,-181.82 653.91,-194.9 599.9,-204.51"/>
<polygon fill="#63b8ff" stroke="#63b8ff" points="781.87,-175.68 791.1,-170.48 780.64,-168.79 781.87,-175.68"/>
</a>
</g>
</g>
<!-- Node22 -->
<g id="Node000022" class="node">
<title>Node22</title>
<g id="a_Node000022"><a xlink:href="m__button_8c.html#aa4358b856c9ef4fff854ab2552620e57" target="_top" xlink:title=" ">
<polygon fill="white" stroke="#666666" points="747.5,-124.75 635.5,-124.75 635.5,-104 747.5,-104 747.5,-124.75"/>
<text xml:space="preserve" text-anchor="middle" x="691.5" y="-111.25" font-family="Helvetica,sans-Serif" font-size="10.00">m_button_set_label</text>
</a>
</g>
</g>
<!-- Node1&#45;&gt;Node22 -->
<g id="edge8_Node000001_Node000022" class="edge">
<title>Node1&#45;&gt;Node22</title>
<g id="a_edge8_Node000001_Node000022"><a xlink:title=" ">
<path fill="none" stroke="#63b8ff" d="M803.85,-145.5C780.51,-138.97 753.09,-131.31 731.31,-125.22"/>
<polygon fill="#63b8ff" stroke="#63b8ff" points="802.91,-148.87 813.48,-148.19 804.79,-142.13 802.91,-148.87"/>
</a>
</g>
</g>
<!-- Node3 -->
<g id="Node000003" class="node">
<title>Node3</title>
<g id="a_Node000003"><a xlink:href="m__sequence__view_8c.html#aa97e3f2de03cf8443b11f65520f6b387" target="_top" xlink:title=" ">
<polygon fill="white" stroke="#666666" points="417.38,-162.12 289.62,-162.12 289.62,-128.62 417.38,-128.62 417.38,-162.12"/>
<text xml:space="preserve" text-anchor="start" x="297.62" y="-148.62" font-family="Helvetica,sans-Serif" font-size="10.00">sequence_view_profile</text>
<text xml:space="preserve" text-anchor="middle" x="353.5" y="-135.88" font-family="Helvetica,sans-Serif" font-size="10.00">_button_rep_update</text>
</a>
</g>
</g>
<!-- Node2&#45;&gt;Node3 -->
<g id="edge2_Node000002_Node000003" class="edge">
<title>Node2&#45;&gt;Node3</title>
<g id="a_edge2_Node000002_Node000003"><a xlink:title=" ">
<path fill="none" stroke="#63b8ff" d="M450.97,-153.27C439.9,-152.36 428.57,-151.43 417.76,-150.55"/>
<polygon fill="#63b8ff" stroke="#63b8ff" points="450.63,-156.75 460.88,-154.08 451.2,-149.77 450.63,-156.75"/>
</a>
</g>
</g>
<!-- Node4 -->
<g id="Node000004" class="node">
<title>Node4</title>
<g id="a_Node000004"><a xlink:href="m__sequence__view_8c.html#aa023b6efccc9528b27b31dcf25d1981a" target="_top" xlink:title=" ">
<polygon fill="#fff0f0" stroke="red" points="142,-117.75 0,-117.75 0,-97 142,-97 142,-117.75"/>
<text xml:space="preserve" text-anchor="middle" x="71" y="-104.25" font-family="Helvetica,sans-Serif" font-size="10.00">configure_sequence_view</text>
</a>
</g>
</g>
<!-- Node3&#45;&gt;Node4 -->
<g id="edge3_Node000003_Node000004" class="edge">
<title>Node3&#45;&gt;Node4</title>
<g id="a_edge3_Node000003_Node000004"><a xlink:title=" ">
<path fill="none" stroke="#63b8ff" d="M278.19,-138.42C247.16,-135.23 210.77,-131.09 178,-126.38 161.81,-124.05 144.3,-121.09 128.27,-118.21"/>
<polygon fill="#63b8ff" stroke="#63b8ff" points="277.56,-141.88 287.86,-139.41 278.27,-134.91 277.56,-141.88"/>
</a>
</g>
</g>
<!-- Node20 -->
<g id="Node000020" class="node">
<title>Node20</title>
<g id="a_Node000020"><a xlink:href="m__sequence__view_8c.html#a83d1a352af6a3932ce4d08e01f7d8d8a" target="_top" xlink:title=" ">
<polygon fill="white" stroke="#666666" points="253.25,-117.75 178,-117.75 178,-97 253.25,-97 253.25,-117.75"/>
<text xml:space="preserve" text-anchor="middle" x="215.62" y="-104.25" font-family="Helvetica,sans-Serif" font-size="10.00">seq_plus_cb</text>
</a>
</g>
</g>
<!-- Node3&#45;&gt;Node20 -->
<g id="edge4_Node000003_Node000020" class="edge">
<title>Node3&#45;&gt;Node20</title>
<g id="a_edge4_Node000003_Node000020"><a xlink:title=" ">
<path fill="none" stroke="#63b8ff" d="M280.11,-125.13C270.91,-122.56 261.81,-120.01 253.51,-117.69"/>
<polygon fill="#63b8ff" stroke="#63b8ff" points="278.89,-128.42 289.47,-127.75 280.78,-121.68 278.89,-128.42"/>
</a>
</g>
</g>
<!-- Node20&#45;&gt;Node4 -->
<g id="edge5_Node000020_Node000004" class="edge">
<title>Node20&#45;&gt;Node4</title>
<g id="a_edge5_Node000020_Node000004"><a xlink:title=" ">
<path fill="none" stroke="#63b8ff" d="M166.22,-107.38C158.53,-107.38 150.44,-107.38 142.37,-107.38"/>
<polygon fill="#63b8ff" stroke="#63b8ff" points="166.01,-110.88 176.01,-107.38 166.01,-103.88 166.01,-110.88"/>
</a>
</g>
</g>
<!-- Node21&#45;&gt;Node3 -->
<g id="edge7_Node000021_Node000003" class="edge">
<title>Node21&#45;&gt;Node3</title>
<g id="a_edge7_Node000021_Node000003"><a xlink:title=" ">
<path fill="none" stroke="#63b8ff" d="M459.21,-189.43C437.72,-180.39 414.54,-170.64 395.46,-162.61"/>
<polygon fill="#63b8ff" stroke="#63b8ff" points="457.62,-192.56 468.2,-193.21 460.34,-186.11 457.62,-192.56"/>
</a>
</g>
</g>
<!-- Node22&#45;&gt;Node2 -->
<g id="edge17_Node000022_Node000002" class="edge">
<title>Node22&#45;&gt;Node2</title>
<g id="a_edge17_Node000022_Node000002"><a xlink:title=" ">
<path fill="none" stroke="#63b8ff" d="M640.72,-128.13C624.68,-132.56 606.68,-137.53 589.85,-142.18"/>
<polygon fill="#63b8ff" stroke="#63b8ff" points="641.32,-131.59 650.03,-125.56 639.46,-124.85 641.32,-131.59"/>
</a>
</g>
</g>
<!-- Node22&#45;&gt;Node21 -->
<g id="edge18_Node000022_Node000021" class="edge">
<title>Node22&#45;&gt;Node21</title>
<g id="a_edge18_Node000022_Node000021"><a xlink:title=" ">
<path fill="none" stroke="#63b8ff" d="M670.43,-132.37C652.65,-147.73 625.54,-169.74 599.5,-185.38 594.58,-188.33 589.34,-191.17 584.02,-193.87"/>
<polygon fill="#63b8ff" stroke="#63b8ff" points="672.47,-135.24 677.68,-126.02 667.85,-129.97 672.47,-135.24"/>
</a>
</g>
</g>
<!-- Node23 -->
<g id="Node000023" class="node">
<title>Node23</title>
<g id="a_Node000023"><a xlink:href="m__menu_8c.html#a805a6326d1f7270fb93644deef75de3d" target="_top" xlink:title=" ">
<polygon fill="white" stroke="#666666" points="589,-20.75 464.25,-20.75 464.25,0 589,0 589,-20.75"/>
<text xml:space="preserve" text-anchor="middle" x="526.62" y="-7.25" font-family="Helvetica,sans-Serif" font-size="10.00">configure_main_menu</text>
</a>
</g>
</g>
<!-- Node22&#45;&gt;Node23 -->
<g id="edge9_Node000022_Node000023" class="edge">
<title>Node22&#45;&gt;Node23</title>
<g id="a_edge9_Node000022_Node000023"><a xlink:title=" ">
<path fill="none" stroke="#63b8ff" d="M674.97,-95.1C658.3,-75.69 630.07,-46.27 599.5,-29.38 593.63,-26.13 587.17,-23.42 580.62,-21.16"/>
<polygon fill="#63b8ff" stroke="#63b8ff" points="672.11,-97.14 681.21,-102.57 677.48,-92.65 672.11,-97.14"/>
</a>
</g>
</g>
<!-- Node25 -->
<g id="Node000025" class="node">
<title>Node25</title>
<g id="a_Node000025"><a xlink:href="m__button_8c.html#a4114b68d36d7158b3ee0a8841d4a3926" target="_top" xlink:title=" ">
<polygon fill="white" stroke="#666666" points="587.12,-72.12 466.12,-72.12 466.12,-38.62 587.12,-38.62 587.12,-72.12"/>
<text xml:space="preserve" text-anchor="start" x="474.12" y="-58.62" font-family="Helvetica,sans-Serif" font-size="10.00">m_active_button_add</text>
<text xml:space="preserve" text-anchor="middle" x="526.62" y="-45.88" font-family="Helvetica,sans-Serif" font-size="10.00">_del_button</text>
</a>
</g>
</g>
<!-- Node22&#45;&gt;Node25 -->
<g id="edge11_Node000022_Node000025" class="edge">
<title>Node22&#45;&gt;Node25</title>
<g id="a_edge11_Node000022_Node000025"><a xlink:title=" ">
<path fill="none" stroke="#63b8ff" d="M650.1,-99.72C634.32,-93.99 616.06,-87.37 599.5,-81.38 591.64,-78.53 583.3,-75.51 575.18,-72.57"/>
<polygon fill="#63b8ff" stroke="#63b8ff" points="648.57,-102.88 659.16,-103 650.95,-96.3 648.57,-102.88"/>
</a>
</g>
</g>
<!-- Node39 -->
<g id="Node000039" class="node">
<title>Node39</title>
<g id="a_Node000039"><a xlink:href="m__button_8c.html#a1566f85bfef1ee056f92f469453eb64d" target="_top" xlink:title=" ">
<polygon fill="white" stroke="#666666" points="595.75,-124.12 457.5,-124.12 457.5,-90.62 595.75,-90.62 595.75,-124.12"/>
<text xml:space="preserve" text-anchor="start" x="465.5" y="-110.62" font-family="Helvetica,sans-Serif" font-size="10.00">m_active_button_change</text>
<text xml:space="preserve" text-anchor="middle" x="526.62" y="-97.88" font-family="Helvetica,sans-Serif" font-size="10.00">_label</text>
</a>
</g>
</g>
<!-- Node22&#45;&gt;Node39 -->
<g id="edge15_Node000022_Node000039" class="edge">
<title>Node22&#45;&gt;Node39</title>
<g id="a_edge15_Node000022_Node000039"><a xlink:title=" ">
<path fill="none" stroke="#63b8ff" d="M623.88,-111.51C614.69,-111.12 605.23,-110.71 596,-110.31"/>
<polygon fill="#63b8ff" stroke="#63b8ff" points="623.7,-115.01 633.85,-111.94 624.01,-108.01 623.7,-115.01"/>
</a>
</g>
</g>
<!-- Node24 -->
<g id="Node000024" class="node">
<title>Node24</title>
<g id="a_Node000024"><a xlink:href="m__menu_8c.html#abdd1333df2a66cc871f2eb36b4bbb74c" target="_top" xlink:title=" ">
<polygon fill="#fff0f0" stroke="red" points="400.88,-20.75 306.12,-20.75 306.12,0 400.88,0 400.88,-20.75"/>
<text xml:space="preserve" text-anchor="middle" x="353.5" y="-7.25" font-family="Helvetica,sans-Serif" font-size="10.00">init_main_menu</text>
</a>
</g>
</g>
<!-- Node23&#45;&gt;Node24 -->
<g id="edge10_Node000023_Node000024" class="edge">
<title>Node23&#45;&gt;Node24</title>
<g id="a_edge10_Node000023_Node000024"><a xlink:title=" ">
<path fill="none" stroke="#63b8ff" d="M452.53,-10.38C435.12,-10.38 417,-10.38 401.15,-10.38"/>
<polygon fill="#63b8ff" stroke="#63b8ff" points="452.33,-13.88 462.33,-10.38 452.33,-6.88 452.33,-13.88"/>
</a>
</g>
</g>
<!-- Node26 -->
<g id="Node000026" class="node">
<title>Node26</title>
<g id="a_Node000026"><a xlink:href="m__button_8c.html#a5692c243172ed156d2fd4cc77fe1aae2" target="_top" xlink:title=" ">
<polygon fill="#fff0f0" stroke="red" points="417.75,-86.12 289.25,-86.12 289.25,-52.62 417.75,-52.62 417.75,-86.12"/>
<text xml:space="preserve" text-anchor="start" x="297.25" y="-72.62" font-family="Helvetica,sans-Serif" font-size="10.00">m_active_button_array</text>
<text xml:space="preserve" text-anchor="middle" x="353.5" y="-59.88" font-family="Helvetica,sans-Serif" font-size="10.00">_append_new</text>
</a>
</g>
</g>
<!-- Node25&#45;&gt;Node26 -->
<g id="edge12_Node000025_Node000026" class="edge">
<title>Node25&#45;&gt;Node26</title>
<g id="a_edge12_Node000025_Node000026"><a xlink:title=" ">
<path fill="none" stroke="#63b8ff" d="M454.39,-61.2C442.35,-62.19 429.92,-63.2 418.1,-64.17"/>
<polygon fill="#63b8ff" stroke="#63b8ff" points="454.58,-64.7 464.27,-60.39 454.01,-57.72 454.58,-64.7"/>
</a>
</g>
</g>
<!-- Node26&#45;&gt;Node4 -->
<g id="edge13_Node000026_Node000004" class="edge">
<title>Node26&#45;&gt;Node4</title>
<g id="a_edge13_Node000026_Node000004"><a xlink:title=" ">
<path fill="none" stroke="#63b8ff" d="M277.81,-76.36C246.87,-79.56 210.64,-83.68 178,-88.38 161.81,-90.7 144.3,-93.66 128.27,-96.54"/>
<polygon fill="#63b8ff" stroke="#63b8ff" points="277.86,-79.88 287.45,-75.38 277.15,-72.91 277.86,-79.88"/>
</a>
</g>
</g>
<!-- Node26&#45;&gt;Node20 -->
<g id="edge14_Node000026_Node000020" class="edge">
<title>Node26&#45;&gt;Node20</title>
<g id="a_edge14_Node000026_Node000020"><a xlink:title=" ">
<path fill="none" stroke="#63b8ff" d="M280.11,-89.62C270.91,-92.19 261.81,-94.74 253.51,-97.06"/>
<polygon fill="#63b8ff" stroke="#63b8ff" points="280.78,-93.07 289.47,-87 278.89,-86.33 280.78,-93.07"/>
</a>
</g>
</g>
<!-- Node39&#45;&gt;Node3 -->
<g id="edge16_Node000039_Node000003" class="edge">
<title>Node39&#45;&gt;Node3</title>
<g id="a_edge16_Node000039_Node000003"><a xlink:title=" ">
<path fill="none" stroke="#63b8ff" d="M446,-125.06C436.57,-127.15 427.03,-129.27 417.87,-131.3"/>
<polygon fill="#63b8ff" stroke="#63b8ff" points="446.53,-128.52 455.53,-122.94 445.01,-121.69 446.53,-128.52"/>
</a>
</g>
</g>
</g>
</svg>
