<?xml version="1.0" encoding="UTF-8" standalone="no"?>
<!DOCTYPE svg PUBLIC "-//W3C//DTD SVG 1.1//EN"
 "http://www.w3.org/Graphics/SVG/1.1/DTD/svg11.dtd">
<!-- Generated by graphviz version 13.1.2 (20250808.2320)
 -->
<!-- Title: m_active_button_delete_anim_cb Pages: 1 -->
<svg width="641pt" height="42pt"
 viewBox="0.00 0.00 641.00 42.00" xmlns="http://www.w3.org/2000/svg" xmlns:xlink="http://www.w3.org/1999/xlink">
<g id="graph0" class="graph" transform="scale(1 1) rotate(0) translate(4 37.5)">
<title>m_active_button_delete_anim_cb</title>
<!-- Node1 -->
<g id="Node000001" class="node">
<title>Node1</title>
<g id="a_Node000001"><a xlink:title=" ">
<polygon fill="#999999" stroke="#666666" points="632.5,-33.5 498.75,-33.5 498.75,0 632.5,0 632.5,-33.5"/>
<text xml:space="preserve" text-anchor="start" x="506.75" y="-20" font-family="Helvetica,sans-Serif" font-size="10.00">m_active_button_delete</text>
<text xml:space="preserve" text-anchor="middle" x="565.62" y="-7.25" font-family="Helvetica,sans-Serif" font-size="10.00">_anim_cb</text>
</a>
</g>
</g>
<!-- Node2 -->
<g id="Node000002" class="node">
<title>Node2</title>
<g id="a_Node000002"><a xlink:href="m__button_8c.html#aad38fccbad65898b1dbf74316f5bf81d" target="_top" xlink:title=" ">
<polygon fill="white" stroke="#666666" points="462.75,-33.5 327.5,-33.5 327.5,0 462.75,0 462.75,-33.5"/>
<text xml:space="preserve" text-anchor="start" x="335.5" y="-20" font-family="Helvetica,sans-Serif" font-size="10.00">m_active_button_trigger</text>
<text xml:space="preserve" text-anchor="middle" x="395.12" y="-7.25" font-family="Helvetica,sans-Serif" font-size="10.00">_delete_anim</text>
</a>
</g>
</g>
<!-- Node1&#45;&gt;Node2 -->
<g id="edge1_Node000001_Node000002" class="edge">
<title>Node1&#45;&gt;Node2</title>
<g id="a_edge1_Node000001_Node000002"><a xlink:title=" ">
<path fill="none" stroke="#63b8ff" d="M487.23,-16.75C479.19,-16.75 471.07,-16.75 463.15,-16.75"/>
<polygon fill="#63b8ff" stroke="#63b8ff" points="487,-20.25 497,-16.75 487,-13.25 487,-20.25"/>
</a>
</g>
</g>
<!-- Node3 -->
<g id="Node000003" class="node">
<title>Node3</title>
<g id="a_Node000003"><a xlink:href="m__button_8c.html#ad2532a0709291cc957bb3fdd622a6652" target="_top" xlink:title=" ">
<polygon fill="white" stroke="#666666" points="291.5,-27.12 157,-27.12 157,-6.38 291.5,-6.38 291.5,-27.12"/>
<text xml:space="preserve" text-anchor="middle" x="224.25" y="-13.62" font-family="Helvetica,sans-Serif" font-size="10.00">m_active_button_del_cb</text>
</a>
</g>
</g>
<!-- Node2&#45;&gt;Node3 -->
<g id="edge2_Node000002_Node000003" class="edge">
<title>Node2&#45;&gt;Node3</title>
<g id="a_edge2_Node000002_Node000003"><a xlink:title=" ">
<path fill="none" stroke="#63b8ff" d="M316.01,-16.75C307.92,-16.75 299.74,-16.75 291.79,-16.75"/>
<polygon fill="#63b8ff" stroke="#63b8ff" points="315.87,-20.25 325.87,-16.75 315.87,-13.25 315.87,-20.25"/>
</a>
</g>
</g>
<!-- Node4 -->
<g id="Node000004" class="node">
<title>Node4</title>
<g id="a_Node000004"><a xlink:href="m__button_8c.html#a4114b68d36d7158b3ee0a8841d4a3926" target="_top" xlink:title=" ">
<polygon fill="#fff0f0" stroke="red" points="121,-33.5 0,-33.5 0,0 121,0 121,-33.5"/>
<text xml:space="preserve" text-anchor="start" x="8" y="-20" font-family="Helvetica,sans-Serif" font-size="10.00">m_active_button_add</text>
<text xml:space="preserve" text-anchor="middle" x="60.5" y="-7.25" font-family="Helvetica,sans-Serif" font-size="10.00">_del_button</text>
</a>
</g>
</g>
<!-- Node3&#45;&gt;Node4 -->
<g id="edge3_Node000003_Node000004" class="edge">
<title>Node3&#45;&gt;Node4</title>
<g id="a_edge3_Node000003_Node000004"><a xlink:title=" ">
<path fill="none" stroke="#63b8ff" d="M145.23,-16.75C137.2,-16.75 129.13,-16.75 121.34,-16.75"/>
<polygon fill="#63b8ff" stroke="#63b8ff" points="145.01,-20.25 155.01,-16.75 145.01,-13.25 145.01,-20.25"/>
</a>
</g>
</g>
</g>
</svg>
