<?xml version="1.0" encoding="UTF-8" standalone="no"?>
<!DOCTYPE svg PUBLIC "-//W3C//DTD SVG 1.1//EN"
 "http://www.w3.org/Graphics/SVG/1.1/DTD/svg11.dtd">
<!-- Generated by graphviz version 13.1.2 (20250808.2320)
 -->
<!-- Title: m_active_button_trigger_delete_anim Pages: 1 -->
<!--zoomable 141 -->

<svg id="main" version="1.1" xmlns="http://www.w3.org/2000/svg" xmlns:xlink="http://www.w3.org/1999/xlink" xml:space="preserve" onload="init(evt)">

<style type="text/css"><![CDATA[
.node, .edge {opacity: 0.7;}
.node.selected, .edge.selected {opacity: 1;}
.edge:hover path { stroke: red; }
.edge:hover polygon { stroke: red; fill: red; }
]]></style>

<defs>
  <circle id="rim" cx="0" cy="0" r="7"/>
  <circle id="rim2" cx="0" cy="0" r="3.5"/>
  <g id="zoomPlus">
    <use xlink:href="#rim" fill="#404040"><set attributeName="fill" to="#808080" begin="zoomplus.mouseover" end="zoomplus.mouseout"/></use>
    <path d="M-4,0h8M0,-4v8" fill="none" stroke="white" stroke-width="1.5" pointer-events="none"/>
  </g>
  <g id="zoomMin">
    <use xlink:href="#rim" fill="#404040"><set attributeName="fill" to="#808080" begin="zoomminus.mouseover" end="zoomminus.mouseout"/></use>
    <path d="M-4,0h8" fill="none" stroke="white" stroke-width="1.5" pointer-events="none"/>
  </g>
  <g id="arrowUp" transform="translate(30 24)">
    <use xlink:href="#rim"/>
    <path pointer-events="none" fill="none" stroke="white" stroke-width="1.5" d="M0,-3.0v7 M-2.5,-0.5L0,-3.0L2.5,-0.5"/>
  </g>
  <g id="arrowRight" transform="rotate(90) translate(36 -43)">
    <use xlink:href="#rim"/>
    <path pointer-events="none" fill="none" stroke="white" stroke-width="1.5" d="M0,-3.0v7 M-2.5,-0.5L0,-3.0L2.5,-0.5"/>
  </g>
  <g id="arrowDown" transform="rotate(180) translate(-30 -48)">
    <use xlink:href="#rim"/>
    <path pointer-events="none" fill="none" stroke="white" stroke-width="1.5" d="M0,-3.0v7 M-2.5,-0.5L0,-3.0L2.5,-0.5"/>
  </g>
  <g id="arrowLeft" transform="rotate(270) translate(-36 17)">
    <use xlink:href="#rim"/>
    <path pointer-events="none" fill="none" stroke="white" stroke-width="1.5" d="M0,-3.0v7 M-2.5,-0.5L0,-3.0L2.5,-0.5"/>
  </g>
  <g id="resetDef">
    <use xlink:href="#rim2" fill="#404040"><set attributeName="fill" to="#808080" begin="reset.mouseover" end="reset.mouseout"/></use>
  </g>
</defs>
<script type="application/ecmascript">
var viewWidth = 632;
var viewHeight = 141;
var sectionId = 'dynsection-69';
</script>
<script type="application/ecmascript" xlink:href="svg.min.js"/>
<svg id="graph" class="graph">
<g id="viewport">
<title>m_active_button_trigger_delete_anim</title>
<!-- Node1 -->
<g id="Node000001" class="node">
<title>Node1</title>
<g id="a_Node000001"><a xlink:title=" ">
<polygon fill="#999999" stroke="#666666" points="135.25,-107.12 0,-107.12 0,-73.62 135.25,-73.62 135.25,-107.12"/>
<text xml:space="preserve" text-anchor="start" x="8" y="-93.62" font-family="Helvetica,sans-Serif" font-size="10.00">m_active_button_trigger</text>
<text xml:space="preserve" text-anchor="middle" x="67.62" y="-80.88" font-family="Helvetica,sans-Serif" font-size="10.00">_delete_anim</text>
</a>
</g>
</g>
<!-- Node2 -->
<g id="Node000002" class="node">
<title>Node2</title>
<g id="a_Node000002"><a xlink:href="m__button_8c.html#a47d3b0732cd5e11e34fc81838bfff01b" target="_top" xlink:title=" ">
<polygon fill="white" stroke="#666666" points="305,-133.12 171.25,-133.12 171.25,-99.62 305,-99.62 305,-133.12"/>
<text xml:space="preserve" text-anchor="start" x="179.25" y="-119.62" font-family="Helvetica,sans-Serif" font-size="10.00">m_active_button_delete</text>
<text xml:space="preserve" text-anchor="middle" x="238.12" y="-106.88" font-family="Helvetica,sans-Serif" font-size="10.00">_anim_cb</text>
</a>
</g>
</g>
<!-- Node1&#45;&gt;Node2 -->
<g id="edge1_Node000001_Node000002" class="edge">
<title>Node1&#45;&gt;Node2</title>
<g id="a_edge1_Node000001_Node000002"><a xlink:title=" ">
<path fill="none" stroke="#63b8ff" d="M135.7,-100.73C143.56,-101.94 151.63,-103.18 159.62,-104.42"/>
<polygon fill="#63b8ff" stroke="#63b8ff" points="158.91,-107.85 169.33,-105.91 159.98,-100.93 158.91,-107.85"/>
</a>
</g>
</g>
<!-- Node4 -->
<g id="Node000004" class="node">
<title>Node4</title>
<g id="a_Node000004"><a xlink:href="m__button_8c.html#aa4b3495a4356ccb537ce93b53b6e3364" target="_top" xlink:title=" ">
<polygon fill="white" stroke="#666666" points="305,-81.12 171.25,-81.12 171.25,-47.62 305,-47.62 305,-81.12"/>
<text xml:space="preserve" text-anchor="start" x="179.25" y="-67.62" font-family="Helvetica,sans-Serif" font-size="10.00">m_active_button_delete</text>
<text xml:space="preserve" text-anchor="middle" x="238.12" y="-54.88" font-family="Helvetica,sans-Serif" font-size="10.00">_anim_ready_cb</text>
</a>
</g>
</g>
<!-- Node1&#45;&gt;Node4 -->
<g id="edge3_Node000001_Node000004" class="edge">
<title>Node1&#45;&gt;Node4</title>
<g id="a_edge3_Node000001_Node000004"><a xlink:title=" ">
<path fill="none" stroke="#63b8ff" d="M135.7,-80.02C143.56,-78.81 151.63,-77.57 159.62,-76.33"/>
<polygon fill="#63b8ff" stroke="#63b8ff" points="159.98,-79.82 169.33,-74.84 158.91,-72.9 159.98,-79.82"/>
</a>
</g>
</g>
<!-- Node3 -->
<g id="Node000003" class="node">
<title>Node3</title>
<g id="a_Node000003"><a xlink:href="m__button_8c.html#ad914219bc137c643895e8ee782996868" target="_top" xlink:title=" ">
<polygon fill="white" stroke="#666666" points="467.25,-126.75 343.25,-126.75 343.25,-106 467.25,-106 467.25,-126.75"/>
<text xml:space="preserve" text-anchor="middle" x="405.25" y="-113.25" font-family="Helvetica,sans-Serif" font-size="10.00">m_button_set_opacity</text>
</a>
</g>
</g>
<!-- Node2&#45;&gt;Node3 -->
<g id="edge2_Node000002_Node000003" class="edge">
<title>Node2&#45;&gt;Node3</title>
<g id="a_edge2_Node000002_Node000003"><a xlink:title=" ">
<path fill="none" stroke="#63b8ff" d="M305.34,-116.38C313.95,-116.38 322.8,-116.38 331.51,-116.38"/>
<polygon fill="#63b8ff" stroke="#63b8ff" points="331.33,-119.88 341.33,-116.38 331.33,-112.88 331.33,-119.88"/>
</a>
</g>
</g>
<!-- Node5 -->
<g id="Node000005" class="node">
<title>Node5</title>
<g id="a_Node000005"><a xlink:href="m__button_8c.html#a10d2fa5e282222e52b847976348e40ff" target="_top" xlink:title=" ">
<polygon fill="white" stroke="#666666" points="469.5,-85.12 341,-85.12 341,-51.62 469.5,-51.62 469.5,-85.12"/>
<text xml:space="preserve" text-anchor="start" x="349" y="-71.62" font-family="Helvetica,sans-Serif" font-size="10.00">m_active_button_array</text>
<text xml:space="preserve" text-anchor="middle" x="405.25" y="-58.88" font-family="Helvetica,sans-Serif" font-size="10.00">_remove</text>
</a>
</g>
</g>
<!-- Node4&#45;&gt;Node5 -->
<g id="edge4_Node000004_Node000005" class="edge">
<title>Node4&#45;&gt;Node5</title>
<g id="a_edge4_Node000004_Node000005"><a xlink:title=" ">
<path fill="none" stroke="#63b8ff" d="M305.34,-65.98C313.26,-66.17 321.4,-66.37 329.44,-66.56"/>
<polygon fill="#63b8ff" stroke="#63b8ff" points="329.11,-70.06 339.19,-66.8 329.28,-63.06 329.11,-70.06"/>
</a>
</g>
</g>
<!-- Node10 -->
<g id="Node000010" class="node">
<title>Node10</title>
<g id="a_Node000010"><a xlink:href="m__button_8c.html#abf1ae5c842a09fad959ceb7062cec20f" target="_top" xlink:title=" ">
<polygon fill="white" stroke="#666666" points="466.5,-29.75 344,-29.75 344,-9 466.5,-9 466.5,-29.75"/>
<text xml:space="preserve" text-anchor="middle" x="405.25" y="-16.25" font-family="Helvetica,sans-Serif" font-size="10.00">m_active_button_free</text>
</a>
</g>
</g>
<!-- Node4&#45;&gt;Node10 -->
<g id="edge6_Node000004_Node000010" class="edge">
<title>Node4&#45;&gt;Node10</title>
<g id="a_edge6_Node000004_Node000010"><a xlink:title=" ">
<path fill="none" stroke="#63b8ff" d="M302.02,-47.23C319.05,-42.59 337.27,-37.63 353.54,-33.19"/>
<polygon fill="#63b8ff" stroke="#63b8ff" points="354.27,-36.62 362.99,-30.62 352.43,-29.87 354.27,-36.62"/>
</a>
</g>
</g>
<!-- Node6 -->
<g id="Node000006" class="node">
<title>Node6</title>
<g id="a_Node000006"><a xlink:href="m__button_8c.html#a5d64db3a975ca74159c51d38dba5c3ea" target="_top" xlink:title=" ">
<polygon fill="#fff0f0" stroke="red" points="623.5,-90.12 505.5,-90.12 505.5,-56.62 623.5,-56.62 623.5,-90.12"/>
<text xml:space="preserve" text-anchor="start" x="513.5" y="-76.62" font-family="Helvetica,sans-Serif" font-size="10.00">m_active_button_set</text>
<text xml:space="preserve" text-anchor="middle" x="564.5" y="-63.88" font-family="Helvetica,sans-Serif" font-size="10.00">_index</text>
</a>
</g>
</g>
<!-- Node5&#45;&gt;Node6 -->
<g id="edge5_Node000005_Node000006" class="edge">
<title>Node5&#45;&gt;Node6</title>
<g id="a_edge5_Node000005_Node000006"><a xlink:title=" ">
<path fill="none" stroke="#63b8ff" d="M469.76,-70.39C477.6,-70.64 485.66,-70.9 493.59,-71.15"/>
<polygon fill="#63b8ff" stroke="#63b8ff" points="493.47,-74.65 503.58,-71.47 493.7,-67.65 493.47,-74.65"/>
</a>
</g>
</g>
<!-- Node11 -->
<g id="Node000011" class="node">
<title>Node11</title>
<g id="a_Node000011"><a xlink:href="m__button_8c.html#a854fb93ca1203266d6152342db3c6472" target="_top" xlink:title=" ">
<polygon fill="white" stroke="#666666" points="620.88,-20.75 508.12,-20.75 508.12,0 620.88,0 620.88,-20.75"/>
<text xml:space="preserve" text-anchor="middle" x="564.5" y="-7.25" font-family="Helvetica,sans-Serif" font-size="10.00">m_button_delete_ui</text>
</a>
</g>
</g>
<!-- Node10&#45;&gt;Node11 -->
<g id="edge7_Node000010_Node000011" class="edge">
<title>Node10&#45;&gt;Node11</title>
<g id="a_edge7_Node000010_Node000011"><a xlink:title=" ">
<path fill="none" stroke="#63b8ff" d="M466.6,-15.92C476.31,-15.37 486.41,-14.79 496.27,-14.22"/>
<polygon fill="#63b8ff" stroke="#63b8ff" points="496.41,-17.72 506.19,-13.66 496.01,-10.73 496.41,-17.72"/>
</a>
</g>
</g>
<!-- Node11&#45;&gt;Node11 -->
<g id="edge8_Node000011_Node000011" class="edge">
<title>Node11&#45;&gt;Node11</title>
<g id="a_edge8_Node000011_Node000011"><a xlink:title=" ">
<path fill="none" stroke="#63b8ff" d="M538.84,-21.15C528.58,-29.81 537.13,-38.75 564.5,-38.75 579.47,-38.75 588.81,-36.08 592.52,-32.24"/>
<polygon fill="#63b8ff" stroke="#63b8ff" points="595.98,-31.68 590.48,-22.63 589.14,-33.14 595.98,-31.68"/>
</a>
</g>
</g>
</g>
</svg>

<g id="navigator" transform="translate(0 0)" fill="#404254">
  <rect fill="#f2f5e9" fill-opacity="0.5" stroke="#606060" stroke-width=".5" x="0" y="0" width="60" height="60"/>
  <use id="zoomplus" xlink:href="#zoomPlus" x="17" y="9" onmousedown="handleZoom(evt,'in')"/>
  <use id="zoomminus" xlink:href="#zoomMin" x="42" y="9" onmousedown="handleZoom(evt,'out')"/>
  <use id="reset" xlink:href="#resetDef" x="30" y="36" onmousedown="handleReset()"/>
   <use id="arrowup" xlink:href="#arrowUp" x="0" y="0" onmousedown="handlePan(0,-1)"/>
  <use id="arrowright" xlink:href="#arrowRight" x="0" y="0" onmousedown="handlePan(1,0)"/>
  <use id="arrowdown" xlink:href="#arrowDown" x="0" y="0" onmousedown="handlePan(0,1)"/>
  <use id="arrowleft" xlink:href="#arrowLeft" x="0" y="0" onmousedown="handlePan(-1,0)"/>
</g>
<svg viewBox="0 0 15 15" width="100%" height="30px" preserveAspectRatio="xMaxYMin meet">
 <g id="arrow_out" transform="scale(0.3 0.3)">
  <a xlink:href="m__button_8c_aad38fccbad65898b1dbf74316f5bf81d_cgraph_org.svg" target="_base">
   <rect id="button" ry="5" rx="5" y="6" x="6" height="38" width="38"
        fill="#f2f5e9" fill-opacity="0.5" stroke="#606060" stroke-width="1.0"/>
   <path id="arrow"
     d="M 11.500037,31.436501 C 11.940474,20.09759 22.043105,11.32322 32.158766,21.979434 L 37.068811,17.246167 C 37.068811,17.246167 37.088388,32 37.088388,32 L 22.160133,31.978069 C 22.160133,31.978069 26.997745,27.140456 26.997745,27.140456 C 18.528582,18.264221 13.291696,25.230495 11.500037,31.436501 z"
     style="fill:#404040;"/>
  </a>
 </g>
</svg>

<style type='text/css'>
<![CDATA[
[data-mouse-over-selected='false'] { opacity: 0.7; }
[data-mouse-over-selected='true']  { opacity: 1.0; }
]]>
</style>
<script type="application/ecmascript"><![CDATA[
document.addEventListener('DOMContentLoaded', (event) => {
  highlightEdges();
  highlightAdjacentNodes();
});
]]></script>
</svg>
