<?xml version="1.0" encoding="UTF-8" standalone="no"?>
<!DOCTYPE svg PUBLIC "-//W3C//DTD SVG 1.1//EN"
 "http://www.w3.org/Graphics/SVG/1.1/DTD/svg11.dtd">
<!-- Generated by graphviz version 13.1.2 (20250808.2320)
 -->
<!-- Title: m_active_button_force_index Pages: 1 -->
<svg width="647pt" height="42pt"
 viewBox="0.00 0.00 647.00 42.00" xmlns="http://www.w3.org/2000/svg" xmlns:xlink="http://www.w3.org/1999/xlink">
<g id="graph0" class="graph" transform="scale(1 1) rotate(0) translate(4 37.5)">
<title>m_active_button_force_index</title>
<!-- Node1 -->
<g id="Node000001" class="node">
<title>Node1</title>
<g id="a_Node000001"><a xlink:title=" ">
<polygon fill="#999999" stroke="#666666" points="638.5,-33.5 510.75,-33.5 510.75,0 638.5,0 638.5,-33.5"/>
<text xml:space="preserve" text-anchor="start" x="518.75" y="-20" font-family="Helvetica,sans-Serif" font-size="10.00">m_active_button_force</text>
<text xml:space="preserve" text-anchor="middle" x="574.62" y="-7.25" font-family="Helvetica,sans-Serif" font-size="10.00">_index</text>
</a>
</g>
</g>
<!-- Node2 -->
<g id="Node000002" class="node">
<title>Node2</title>
<g id="a_Node000002"><a xlink:href="m__button_8c.html#a2a78bc2cfb8e4db65e7d62b887098129" target="_top" xlink:title=" ">
<polygon fill="white" stroke="#666666" points="474.75,-27.12 319.25,-27.12 319.25,-6.38 474.75,-6.38 474.75,-27.12"/>
<text xml:space="preserve" text-anchor="middle" x="397" y="-13.62" font-family="Helvetica,sans-Serif" font-size="10.00">m_active_button_release_cb</text>
</a>
</g>
</g>
<!-- Node1&#45;&gt;Node2 -->
<g id="edge1_Node000001_Node000002" class="edge">
<title>Node1&#45;&gt;Node2</title>
<g id="a_edge1_Node000001_Node000002"><a xlink:title=" ">
<path fill="none" stroke="#63b8ff" d="M499.21,-16.75C491.26,-16.75 483.17,-16.75 475.19,-16.75"/>
<polygon fill="#63b8ff" stroke="#63b8ff" points="499.2,-20.25 509.2,-16.75 499.2,-13.25 499.2,-20.25"/>
</a>
</g>
</g>
<!-- Node3 -->
<g id="Node000003" class="node">
<title>Node3</title>
<g id="a_Node000003"><a xlink:href="m__button_8c.html#a1e462ff2ab3235d91ca20e87de75e11c" target="_top" xlink:title=" ">
<polygon fill="white" stroke="#666666" points="283.25,-27.12 164.5,-27.12 164.5,-6.38 283.25,-6.38 283.25,-27.12"/>
<text xml:space="preserve" text-anchor="middle" x="223.88" y="-13.62" font-family="Helvetica,sans-Serif" font-size="10.00">m_active_button_init</text>
</a>
</g>
</g>
<!-- Node2&#45;&gt;Node3 -->
<g id="edge2_Node000002_Node000003" class="edge">
<title>Node2&#45;&gt;Node3</title>
<g id="a_edge2_Node000002_Node000003"><a xlink:title=" ">
<path fill="none" stroke="#63b8ff" d="M307.49,-16.75C299.38,-16.75 291.3,-16.75 283.55,-16.75"/>
<polygon fill="#63b8ff" stroke="#63b8ff" points="307.43,-20.25 317.43,-16.75 307.43,-13.25 307.43,-20.25"/>
</a>
</g>
</g>
<!-- Node4 -->
<g id="Node000004" class="node">
<title>Node4</title>
<g id="a_Node000004"><a xlink:href="m__button_8c.html#a5692c243172ed156d2fd4cc77fe1aae2" target="_top" xlink:title=" ">
<polygon fill="#fff0f0" stroke="red" points="128.5,-33.5 0,-33.5 0,0 128.5,0 128.5,-33.5"/>
<text xml:space="preserve" text-anchor="start" x="8" y="-20" font-family="Helvetica,sans-Serif" font-size="10.00">m_active_button_array</text>
<text xml:space="preserve" text-anchor="middle" x="64.25" y="-7.25" font-family="Helvetica,sans-Serif" font-size="10.00">_append_new</text>
</a>
</g>
</g>
<!-- Node3&#45;&gt;Node4 -->
<g id="edge3_Node000003_Node000004" class="edge">
<title>Node3&#45;&gt;Node4</title>
<g id="a_edge3_Node000003_Node000004"><a xlink:title=" ">
<path fill="none" stroke="#63b8ff" d="M152.92,-16.75C144.88,-16.75 136.71,-16.75 128.75,-16.75"/>
<polygon fill="#63b8ff" stroke="#63b8ff" points="152.67,-20.25 162.67,-16.75 152.67,-13.25 152.67,-20.25"/>
</a>
</g>
</g>
</g>
</svg>
