<?xml version="1.0" encoding="UTF-8" standalone="no"?>
<!DOCTYPE svg PUBLIC "-//W3C//DTD SVG 1.1//EN"
 "http://www.w3.org/Graphics/SVG/1.1/DTD/svg11.dtd">
<!-- Generated by graphviz version 13.1.2 (20250808.2320)
 -->
<!-- Title: m_active_button_array_append_new Pages: 1 -->
<svg width="959pt" height="285pt"
 viewBox="0.00 0.00 959.00 285.00" xmlns="http://www.w3.org/2000/svg" xmlns:xlink="http://www.w3.org/1999/xlink">
<g id="graph0" class="graph" transform="scale(1 1) rotate(0) translate(4 281.12)">
<title>m_active_button_array_append_new</title>
<!-- Node1 -->
<g id="Node000001" class="node">
<title>Node1</title>
<g id="a_Node000001"><a xlink:title=" ">
<polygon fill="#999999" stroke="#666666" points="951,-117.12 822.5,-117.12 822.5,-83.62 951,-83.62 951,-117.12"/>
<text xml:space="preserve" text-anchor="start" x="830.5" y="-103.62" font-family="Helvetica,sans-Serif" font-size="10.00">m_active_button_array</text>
<text xml:space="preserve" text-anchor="middle" x="886.75" y="-90.88" font-family="Helvetica,sans-Serif" font-size="10.00">_append_new</text>
</a>
</g>
</g>
<!-- Node2 -->
<g id="Node000002" class="node">
<title>Node2</title>
<g id="a_Node000002"><a xlink:href="m__profile__view_8c.html#adafaf6e28f8f6ac82cc672610ba7f098" target="_top" xlink:title=" ">
<polygon fill="white" stroke="#666666" points="786.5,-187.75 659.5,-187.75 659.5,-167 786.5,-167 786.5,-187.75"/>
<text xml:space="preserve" text-anchor="middle" x="723" y="-174.25" font-family="Helvetica,sans-Serif" font-size="10.00">configure_profile_view</text>
</a>
</g>
</g>
<!-- Node1&#45;&gt;Node2 -->
<g id="edge1_Node000001_Node000002" class="edge">
<title>Node1&#45;&gt;Node2</title>
<g id="a_edge1_Node000001_Node000002"><a xlink:title=" ">
<path fill="none" stroke="#63b8ff" d="M844.86,-123C827.13,-132.5 806,-143.4 786.5,-152.38 775.67,-157.36 763.55,-162.34 752.89,-166.53"/>
<polygon fill="#63b8ff" stroke="#63b8ff" points="846.4,-126.15 853.53,-118.32 843.07,-119.99 846.4,-126.15"/>
</a>
</g>
</g>
<!-- Node10 -->
<g id="Node000010" class="node">
<title>Node10</title>
<g id="a_Node000010"><a xlink:href="m__sequence__view_8c.html#aa023b6efccc9528b27b31dcf25d1981a" target="_top" xlink:title=" ">
<polygon fill="#fff0f0" stroke="red" points="142,-148.75 0,-148.75 0,-128 142,-128 142,-148.75"/>
<text xml:space="preserve" text-anchor="middle" x="71" y="-135.25" font-family="Helvetica,sans-Serif" font-size="10.00">configure_sequence_view</text>
</a>
</g>
</g>
<!-- Node1&#45;&gt;Node10 -->
<g id="edge9_Node000001_Node000010" class="edge">
<title>Node1&#45;&gt;Node10</title>
<g id="a_edge9_Node000001_Node000010"><a xlink:title=" ">
<path fill="none" stroke="#63b8ff" d="M810.95,-115.56C802.72,-116.97 794.45,-118.28 786.5,-119.38 687.19,-133.04 662,-138.38 561.75,-138.38 561.75,-138.38 561.75,-138.38 395.62,-138.38 308.4,-138.38 207.95,-138.38 142.39,-138.38"/>
<polygon fill="#63b8ff" stroke="#63b8ff" points="811.39,-119.04 820.62,-113.84 810.16,-112.15 811.39,-119.04"/>
</a>
</g>
</g>
<!-- Node24 -->
<g id="Node000024" class="node">
<title>Node24</title>
<g id="a_Node000024"><a xlink:href="m__ui_8c.html#a54f79f277b7d97da20f192e3bec8f3ec" target="_top" xlink:title=" ">
<polygon fill="white" stroke="#666666" points="765.5,-110.75 680.5,-110.75 680.5,-90 765.5,-90 765.5,-110.75"/>
<text xml:space="preserve" text-anchor="middle" x="723" y="-97.25" font-family="Helvetica,sans-Serif" font-size="10.00">init_test_page</text>
</a>
</g>
</g>
<!-- Node1&#45;&gt;Node24 -->
<g id="edge10_Node000001_Node000024" class="edge">
<title>Node1&#45;&gt;Node24</title>
<g id="a_edge10_Node000001_Node000024"><a xlink:title=" ">
<path fill="none" stroke="#63b8ff" d="M811.07,-100.38C795.54,-100.38 779.71,-100.38 765.88,-100.38"/>
<polygon fill="#63b8ff" stroke="#63b8ff" points="810.77,-103.88 820.77,-100.38 810.77,-96.88 810.77,-103.88"/>
</a>
</g>
</g>
<!-- Node25 -->
<g id="Node000025" class="node">
<title>Node25</title>
<g id="a_Node000025"><a xlink:href="m__profile__view_8c.html#a7a5be31e096c8437e2dc12359a898d9b" target="_top" xlink:title=" ">
<polygon fill="white" stroke="#666666" points="781.62,-72.12 664.38,-72.12 664.38,-38.62 781.62,-38.62 781.62,-72.12"/>
<text xml:space="preserve" text-anchor="start" x="672.38" y="-58.62" font-family="Helvetica,sans-Serif" font-size="10.00">profile_view_append</text>
<text xml:space="preserve" text-anchor="middle" x="723" y="-45.88" font-family="Helvetica,sans-Serif" font-size="10.00">_transformer</text>
</a>
</g>
</g>
<!-- Node1&#45;&gt;Node25 -->
<g id="edge11_Node000001_Node000025" class="edge">
<title>Node1&#45;&gt;Node25</title>
<g id="a_edge11_Node000001_Node000025"><a xlink:title=" ">
<path fill="none" stroke="#63b8ff" d="M813.31,-80.22C802.82,-77.3 792.13,-74.33 781.98,-71.51"/>
<polygon fill="#63b8ff" stroke="#63b8ff" points="812.11,-83.52 822.68,-82.83 813.98,-76.78 812.11,-83.52"/>
</a>
</g>
</g>
<!-- Node30 -->
<g id="Node000030" class="node">
<title>Node30</title>
<g id="a_Node000030"><a xlink:href="m__sequence__view_8c.html#a83d1a352af6a3932ce4d08e01f7d8d8a" target="_top" xlink:title=" ">
<polygon fill="white" stroke="#666666" points="598.38,-20.75 523.12,-20.75 523.12,0 598.38,0 598.38,-20.75"/>
<text xml:space="preserve" text-anchor="middle" x="560.75" y="-7.25" font-family="Helvetica,sans-Serif" font-size="10.00">seq_plus_cb</text>
</a>
</g>
</g>
<!-- Node1&#45;&gt;Node30 -->
<g id="edge14_Node000001_Node000030" class="edge">
<title>Node1&#45;&gt;Node30</title>
<g id="a_edge14_Node000001_Node000030"><a xlink:title=" ">
<path fill="none" stroke="#63b8ff" d="M859.56,-75.59C840.77,-59.42 814.01,-39.5 786.5,-29.38 723.66,-6.25 644.49,-5.54 598.85,-7.62"/>
<polygon fill="#63b8ff" stroke="#63b8ff" points="857.18,-78.15 866.98,-82.16 861.82,-72.91 857.18,-78.15"/>
</a>
</g>
</g>
<!-- Node3 -->
<g id="Node000003" class="node">
<title>Node3</title>
<g id="a_Node000003"><a xlink:href="m__profile__view_8c.html#aa40a3918b18bbfa3df5aa489d947258a" target="_top" xlink:title=" ">
<polygon fill="white" stroke="#666666" points="462,-225.75 331.25,-225.75 331.25,-205 462,-205 462,-225.75"/>
<text xml:space="preserve" text-anchor="middle" x="396.62" y="-212.25" font-family="Helvetica,sans-Serif" font-size="10.00">create_profile_view_for</text>
</a>
</g>
</g>
<!-- Node2&#45;&gt;Node3 -->
<g id="edge2_Node000002_Node000003" class="edge">
<title>Node2&#45;&gt;Node3</title>
<g id="a_edge2_Node000002_Node000003"><a xlink:title=" ">
<path fill="none" stroke="#63b8ff" d="M660.32,-190.32C648.15,-192.58 635.45,-194.72 623.5,-196.38 569.31,-203.86 507.38,-208.82 462.09,-211.79"/>
<polygon fill="#63b8ff" stroke="#63b8ff" points="660.65,-193.82 669.82,-188.51 659.34,-186.94 660.65,-193.82"/>
</a>
</g>
</g>
<!-- Node23 -->
<g id="Node000023" class="node">
<title>Node23</title>
<g id="a_Node000023"><a xlink:href="m__profile__view_8c.html#a4e6ae6bda3b4e35b8ce1c137624e2b1a" target="_top" xlink:title=" ">
<polygon fill="white" stroke="#666666" points="609.25,-187.75 512.25,-187.75 512.25,-167 609.25,-167 609.25,-187.75"/>
<text xml:space="preserve" text-anchor="middle" x="560.75" y="-174.25" font-family="Helvetica,sans-Serif" font-size="10.00">init_profile_view</text>
</a>
</g>
</g>
<!-- Node2&#45;&gt;Node23 -->
<g id="edge7_Node000002_Node000023" class="edge">
<title>Node2&#45;&gt;Node23</title>
<g id="a_edge7_Node000002_Node000023"><a xlink:title=" ">
<path fill="none" stroke="#63b8ff" d="M647.8,-177.38C634.81,-177.38 621.61,-177.38 609.58,-177.38"/>
<polygon fill="#63b8ff" stroke="#63b8ff" points="647.61,-180.88 657.61,-177.38 647.61,-173.88 647.61,-180.88"/>
</a>
</g>
</g>
<!-- Node4 -->
<g id="Node000004" class="node">
<title>Node4</title>
<g id="a_Node000004"><a xlink:href="m__profile_8c.html#a87f18b6c73975f1a163bc50254834b3c" target="_top" xlink:title=" ">
<polygon fill="white" stroke="#666666" points="291.12,-277.12 182.12,-277.12 182.12,-243.62 291.12,-243.62 291.12,-277.12"/>
<text xml:space="preserve" text-anchor="start" x="190.12" y="-263.62" font-family="Helvetica,sans-Serif" font-size="10.00">create_new_profile</text>
<text xml:space="preserve" text-anchor="middle" x="236.62" y="-250.88" font-family="Helvetica,sans-Serif" font-size="10.00">_with_teensy</text>
</a>
</g>
</g>
<!-- Node3&#45;&gt;Node4 -->
<g id="edge3_Node000003_Node000004" class="edge">
<title>Node3&#45;&gt;Node4</title>
<g id="a_edge3_Node000003_Node000004"><a xlink:title=" ">
<path fill="none" stroke="#63b8ff" d="M347.18,-229.17C329.6,-234.18 309.63,-239.87 291.59,-245"/>
<polygon fill="#63b8ff" stroke="#63b8ff" points="347.67,-232.67 356.32,-226.57 345.75,-225.94 347.67,-232.67"/>
</a>
</g>
</g>
<!-- Node5 -->
<g id="Node000005" class="node">
<title>Node5</title>
<g id="a_Node000005"><a xlink:href="m__files_8c.html#a8785e4c0fd9fa9638385ef725fe13adb" target="_top" xlink:title=" ">
<polygon fill="#fff0f0" stroke="red" points="293.38,-225.75 179.88,-225.75 179.88,-205 293.38,-205 293.38,-225.75"/>
<text xml:space="preserve" text-anchor="middle" x="236.62" y="-212.25" font-family="Helvetica,sans-Serif" font-size="10.00">load_saved_profiles</text>
</a>
</g>
</g>
<!-- Node3&#45;&gt;Node5 -->
<g id="edge4_Node000003_Node000005" class="edge">
<title>Node3&#45;&gt;Node5</title>
<g id="a_edge4_Node000003_Node000005"><a xlink:title=" ">
<path fill="none" stroke="#63b8ff" d="M319.43,-215.38C310.66,-215.38 301.83,-215.38 293.4,-215.38"/>
<polygon fill="#63b8ff" stroke="#63b8ff" points="319.39,-218.88 329.39,-215.38 319.39,-211.88 319.39,-218.88"/>
</a>
</g>
</g>
<!-- Node9 -->
<g id="Node000009" class="node">
<title>Node9</title>
<g id="a_Node000009"><a xlink:href="m__sequence__view_8c.html#a63043837686155ad8163844428d68553" target="_top" xlink:title=" ">
<polygon fill="#fff0f0" stroke="red" points="295.25,-186.75 178,-186.75 178,-166 295.25,-166 295.25,-186.75"/>
<text xml:space="preserve" text-anchor="middle" x="236.62" y="-173.25" font-family="Helvetica,sans-Serif" font-size="10.00">seq_view_clicked_cb</text>
</a>
</g>
</g>
<!-- Node3&#45;&gt;Node9 -->
<g id="edge5_Node000003_Node000009" class="edge">
<title>Node3&#45;&gt;Node9</title>
<g id="a_edge5_Node000003_Node000009"><a xlink:title=" ">
<path fill="none" stroke="#63b8ff" d="M340.55,-201.78C321.28,-197.03 299.92,-191.75 281.67,-187.25"/>
<polygon fill="#63b8ff" stroke="#63b8ff" points="339.6,-205.15 350.14,-204.15 341.27,-198.35 339.6,-205.15"/>
</a>
</g>
</g>
<!-- Node9&#45;&gt;Node10 -->
<g id="edge6_Node000009_Node000010" class="edge">
<title>Node9&#45;&gt;Node10</title>
<g id="a_edge6_Node000009_Node000010"><a xlink:title=" ">
<path fill="none" stroke="#63b8ff" d="M177.99,-162.99C158.53,-158.47 137.06,-153.48 118.57,-149.19"/>
<polygon fill="#63b8ff" stroke="#63b8ff" points="177.17,-166.39 187.7,-165.24 178.75,-159.57 177.17,-166.39"/>
</a>
</g>
</g>
<!-- Node23&#45;&gt;Node3 -->
<g id="edge8_Node000023_Node000003" class="edge">
<title>Node23&#45;&gt;Node3</title>
<g id="a_edge8_Node000023_Node000003"><a xlink:title=" ">
<path fill="none" stroke="#63b8ff" d="M502.64,-190.76C483.36,-195.28 462.09,-200.27 443.76,-204.56"/>
<polygon fill="#63b8ff" stroke="#63b8ff" points="503.31,-194.2 512.25,-188.51 501.72,-187.38 503.31,-194.2"/>
</a>
</g>
</g>
<!-- Node26 -->
<g id="Node000026" class="node">
<title>Node26</title>
<g id="a_Node000026"><a xlink:href="m__transformer__select_8c.html#a8a60316cc5a79aaf1c656b9523dd54b1" target="_top" xlink:title=" ">
<polygon fill="white" stroke="#666666" points="623.5,-72.12 498,-72.12 498,-38.62 623.5,-38.62 623.5,-72.12"/>
<text xml:space="preserve" text-anchor="start" x="506" y="-58.62" font-family="Helvetica,sans-Serif" font-size="10.00">add_transformer_from</text>
<text xml:space="preserve" text-anchor="middle" x="560.75" y="-45.88" font-family="Helvetica,sans-Serif" font-size="10.00">_menu_eff</text>
</a>
</g>
</g>
<!-- Node25&#45;&gt;Node26 -->
<g id="edge12_Node000025_Node000026" class="edge">
<title>Node25&#45;&gt;Node26</title>
<g id="a_edge12_Node000025_Node000026"><a xlink:title=" ">
<path fill="none" stroke="#63b8ff" d="M652.93,-55.38C643.26,-55.38 633.38,-55.38 623.85,-55.38"/>
<polygon fill="#63b8ff" stroke="#63b8ff" points="652.63,-58.88 662.63,-55.38 652.63,-51.88 652.63,-58.88"/>
</a>
</g>
</g>
<!-- Node27 -->
<g id="Node000027" class="node">
<title>Node27</title>
<g id="a_Node000027"><a xlink:href="m__transformer__select_8c.html#a26bc01d09200b28d05f5786f45a0cc59" target="_top" xlink:title=" ">
<polygon fill="#fff0f0" stroke="red" points="461.62,-72.12 331.62,-72.12 331.62,-38.62 461.62,-38.62 461.62,-72.12"/>
<text xml:space="preserve" text-anchor="start" x="339.62" y="-58.62" font-family="Helvetica,sans-Serif" font-size="10.00">create_transformer</text>
<text xml:space="preserve" text-anchor="middle" x="396.62" y="-45.88" font-family="Helvetica,sans-Serif" font-size="10.00">_selector_button_ui_eff</text>
</a>
</g>
</g>
<!-- Node26&#45;&gt;Node27 -->
<g id="edge13_Node000026_Node000027" class="edge">
<title>Node26&#45;&gt;Node27</title>
<g id="a_edge13_Node000026_Node000027"><a xlink:title=" ">
<path fill="none" stroke="#63b8ff" d="M486.24,-55.38C478.19,-55.38 470.03,-55.38 462.09,-55.38"/>
<polygon fill="#63b8ff" stroke="#63b8ff" points="486.02,-58.88 496.02,-55.38 486.02,-51.88 486.02,-58.88"/>
</a>
</g>
</g>
<!-- Node30&#45;&gt;Node10 -->
<g id="edge15_Node000030_Node000010" class="edge">
<title>Node30&#45;&gt;Node10</title>
<g id="a_edge15_Node000030_Node000010"><a xlink:title=" ">
<path fill="none" stroke="#63b8ff" d="M511.47,-10.02C464.73,-10.69 392.2,-14.43 331.25,-29.38 237.36,-52.4 133.62,-105.01 91.43,-127.67"/>
<polygon fill="#63b8ff" stroke="#63b8ff" points="511.29,-13.52 521.26,-9.92 511.22,-6.52 511.29,-13.52"/>
</a>
</g>
</g>
</g>
</svg>
