<?xml version="1.0" encoding="UTF-8" standalone="no"?>
<!DOCTYPE svg PUBLIC "-//W3C//DTD SVG 1.1//EN"
 "http://www.w3.org/Graphics/SVG/1.1/DTD/svg11.dtd">
<!-- Generated by graphviz version 13.1.2 (20250808.2320)
 -->
<!-- Title: m_active_button_create_ui Pages: 1 -->
<svg width="665pt" height="197pt"
 viewBox="0.00 0.00 665.00 197.00" xmlns="http://www.w3.org/2000/svg" xmlns:xlink="http://www.w3.org/1999/xlink">
<g id="graph0" class="graph" transform="scale(1 1) rotate(0) translate(4 193.12)">
<title>m_active_button_create_ui</title>
<!-- Node1 -->
<g id="Node000001" class="node">
<title>Node1</title>
<g id="a_Node000001"><a xlink:title=" ">
<polygon fill="#999999" stroke="#666666" points="657.25,-111.12 509.25,-111.12 509.25,-90.38 657.25,-90.38 657.25,-111.12"/>
<text xml:space="preserve" text-anchor="middle" x="583.25" y="-97.62" font-family="Helvetica,sans-Serif" font-size="10.00">m_active_button_create_ui</text>
</a>
</g>
</g>
<!-- Node2 -->
<g id="Node000002" class="node">
<title>Node2</title>
<g id="a_Node000002"><a xlink:href="$m__button_8c.html#a380cf6dbd4f91dc6bead0857fdee47ae" xlink:title=" ">
<polygon fill="white" stroke="#666666" points="473.25,-117.5 344.75,-117.5 344.75,-84 473.25,-84 473.25,-117.5"/>
<text xml:space="preserve" text-anchor="start" x="352.75" y="-104" font-family="Helvetica,sans-Serif" font-size="10.00">m_active_button_array</text>
<text xml:space="preserve" text-anchor="middle" x="409" y="-91.25" font-family="Helvetica,sans-Serif" font-size="10.00">_create_ui</text>
</a>
</g>
</g>
<!-- Node1&#45;&gt;Node2 -->
<g id="edge1_Node000001_Node000002" class="edge">
<title>Node1&#45;&gt;Node2</title>
<g id="a_edge1_Node000001_Node000002"><a xlink:title=" ">
<path fill="none" stroke="#63b8ff" d="M497.76,-100.75C489.64,-100.75 481.5,-100.75 473.63,-100.75"/>
<polygon fill="#63b8ff" stroke="#63b8ff" points="497.69,-104.25 507.69,-100.75 497.69,-97.25 497.69,-104.25"/>
</a>
</g>
</g>
<!-- Node28 -->
<g id="Node000028" class="node">
<title>Node28</title>
<g id="a_Node000028"><a xlink:href="$m__profile__view_8c.html#a60c72db396bbb015c9b9429247bf8f87" xlink:title=" ">
<polygon fill="white" stroke="#666666" points="467.62,-52.5 350.38,-52.5 350.38,-19 467.62,-19 467.62,-52.5"/>
<text xml:space="preserve" text-anchor="start" x="358.38" y="-39" font-family="Helvetica,sans-Serif" font-size="10.00">profile_view_append</text>
<text xml:space="preserve" text-anchor="middle" x="409" y="-26.25" font-family="Helvetica,sans-Serif" font-size="10.00">_effect</text>
</a>
</g>
</g>
<!-- Node1&#45;&gt;Node28 -->
<g id="edge8_Node000001_Node000028" class="edge">
<title>Node1&#45;&gt;Node28</title>
<g id="a_edge8_Node000001_Node000028"><a xlink:title=" ">
<path fill="none" stroke="#63b8ff" d="M543.21,-86.02C517.21,-76.21 482.94,-63.28 455.68,-52.99"/>
<polygon fill="#63b8ff" stroke="#63b8ff" points="541.8,-89.23 552.39,-89.48 544.27,-82.68 541.8,-89.23"/>
</a>
</g>
</g>
<!-- Node33 -->
<g id="Node000033" class="node">
<title>Node33</title>
<g id="a_Node000033"><a xlink:href="$m__sequence__view_8c.html#a83d1a352af6a3932ce4d08e01f7d8d8a" xlink:title=" ">
<polygon fill="white" stroke="#666666" points="446.62,-172.12 371.38,-172.12 371.38,-151.38 446.62,-151.38 446.62,-172.12"/>
<text xml:space="preserve" text-anchor="middle" x="409" y="-158.62" font-family="Helvetica,sans-Serif" font-size="10.00">seq_plus_cb</text>
</a>
</g>
</g>
<!-- Node1&#45;&gt;Node33 -->
<g id="edge11_Node000001_Node000033" class="edge">
<title>Node1&#45;&gt;Node33</title>
<g id="a_edge11_Node000001_Node000033"><a xlink:title=" ">
<path fill="none" stroke="#63b8ff" d="M541.01,-115.35C510.16,-126.28 468.63,-140.99 440.67,-150.89"/>
<polygon fill="#63b8ff" stroke="#63b8ff" points="542.17,-118.66 550.42,-112.02 539.83,-112.06 542.17,-118.66"/>
</a>
</g>
</g>
<!-- Node3 -->
<g id="Node000003" class="node">
<title>Node3</title>
<g id="a_Node000003"><a xlink:href="$m__profile__view_8c.html#af74581fd39a23feffe4cb21c0bc08f48" xlink:title=" ">
<polygon fill="white" stroke="#666666" points="297.88,-111.12 171.62,-111.12 171.62,-90.38 297.88,-90.38 297.88,-111.12"/>
<text xml:space="preserve" text-anchor="middle" x="234.75" y="-97.62" font-family="Helvetica,sans-Serif" font-size="10.00">create_profile_view_ui</text>
</a>
</g>
</g>
<!-- Node2&#45;&gt;Node3 -->
<g id="edge2_Node000002_Node000003" class="edge">
<title>Node2&#45;&gt;Node3</title>
<g id="a_edge2_Node000002_Node000003"><a xlink:title=" ">
<path fill="none" stroke="#63b8ff" d="M332.91,-100.75C321.35,-100.75 309.52,-100.75 298.28,-100.75"/>
<polygon fill="#63b8ff" stroke="#63b8ff" points="332.84,-104.25 342.84,-100.75 332.84,-97.25 332.84,-104.25"/>
</a>
</g>
</g>
<!-- Node25 -->
<g id="Node000025" class="node">
<title>Node25</title>
<g id="a_Node000025"><a xlink:href="$m__sequence__view_8c.html#a0832351a404a9d0207b4e9a04a5533b1" xlink:title=" ">
<polygon fill="white" stroke="#666666" points="305.38,-150.12 164.12,-150.12 164.12,-129.38 305.38,-129.38 305.38,-150.12"/>
<text xml:space="preserve" text-anchor="middle" x="234.75" y="-136.62" font-family="Helvetica,sans-Serif" font-size="10.00">create_sequence_view_ui</text>
</a>
</g>
</g>
<!-- Node2&#45;&gt;Node25 -->
<g id="edge4_Node000002_Node000025" class="edge">
<title>Node2&#45;&gt;Node25</title>
<g id="a_edge4_Node000002_Node000025"><a xlink:title=" ">
<path fill="none" stroke="#63b8ff" d="M333.36,-117.65C316.46,-121.48 298.96,-125.44 283.52,-128.93"/>
<polygon fill="#63b8ff" stroke="#63b8ff" points="333.89,-121.12 342.87,-115.5 332.35,-114.29 333.89,-121.12"/>
</a>
</g>
</g>
<!-- Node26 -->
<g id="Node000026" class="node">
<title>Node26</title>
<g id="a_Node000026"><a xlink:href="$m__ui_8c.html#af9969c59195e8ddbd7d72a9f3d109127" xlink:title=" ">
<polygon fill="white" stroke="#666666" points="291.88,-72.12 177.62,-72.12 177.62,-51.38 291.88,-51.38 291.88,-72.12"/>
<text xml:space="preserve" text-anchor="middle" x="234.75" y="-58.62" font-family="Helvetica,sans-Serif" font-size="10.00">create_test_page_ui</text>
</a>
</g>
</g>
<!-- Node2&#45;&gt;Node26 -->
<g id="edge6_Node000002_Node000026" class="edge">
<title>Node2&#45;&gt;Node26</title>
<g id="a_edge6_Node000002_Node000026"><a xlink:title=" ">
<path fill="none" stroke="#63b8ff" d="M333.36,-83.85C316.46,-80.02 298.96,-76.06 283.52,-72.57"/>
<polygon fill="#63b8ff" stroke="#63b8ff" points="332.35,-87.21 342.87,-86 333.89,-80.38 332.35,-87.21"/>
</a>
</g>
</g>
<!-- Node4 -->
<g id="Node000004" class="node">
<title>Node4</title>
<g id="a_Node000004"><a xlink:href="$m__profile__view_8c.html#a4e6ae6bda3b4e35b8ce1c137624e2b1a" xlink:title=" ">
<polygon fill="#fff0f0" stroke="red" points="110.88,-111.12 13.88,-111.12 13.88,-90.38 110.88,-90.38 110.88,-111.12"/>
<text xml:space="preserve" text-anchor="middle" x="62.38" y="-97.62" font-family="Helvetica,sans-Serif" font-size="10.00">init_profile_view</text>
</a>
</g>
</g>
<!-- Node3&#45;&gt;Node4 -->
<g id="edge3_Node000003_Node000004" class="edge">
<title>Node3&#45;&gt;Node4</title>
<g id="a_edge3_Node000003_Node000004"><a xlink:title=" ">
<path fill="none" stroke="#63b8ff" d="M159.96,-100.75C143.42,-100.75 126.31,-100.75 111.16,-100.75"/>
<polygon fill="#63b8ff" stroke="#63b8ff" points="159.76,-104.25 169.76,-100.75 159.76,-97.25 159.76,-104.25"/>
</a>
</g>
</g>
<!-- Node24 -->
<g id="Node000024" class="node">
<title>Node24</title>
<g id="a_Node000024"><a xlink:href="$m__sequence__view_8c.html#aca8f9b5bdc8897b29eb2437c751d05fd" xlink:title=" ">
<polygon fill="#fff0f0" stroke="red" points="118.38,-169.12 6.37,-169.12 6.37,-148.38 118.38,-148.38 118.38,-169.12"/>
<text xml:space="preserve" text-anchor="middle" x="62.38" y="-155.62" font-family="Helvetica,sans-Serif" font-size="10.00">init_sequence_view</text>
</a>
</g>
</g>
<!-- Node25&#45;&gt;Node24 -->
<g id="edge5_Node000025_Node000024" class="edge">
<title>Node25&#45;&gt;Node24</title>
<g id="a_edge5_Node000025_Node000024"><a xlink:title=" ">
<path fill="none" stroke="#63b8ff" d="M152.56,-148.8C141.1,-150.08 129.55,-151.37 118.72,-152.58"/>
<polygon fill="#63b8ff" stroke="#63b8ff" points="152.91,-152.29 162.46,-147.7 152.13,-145.33 152.91,-152.29"/>
</a>
</g>
</g>
<!-- Node27 -->
<g id="Node000027" class="node">
<title>Node27</title>
<g id="a_Node000027"><a xlink:href="$m__ui_8c.html#a54f79f277b7d97da20f192e3bec8f3ec" xlink:title=" ">
<polygon fill="white" stroke="#666666" points="104.88,-72.12 19.88,-72.12 19.88,-51.38 104.88,-51.38 104.88,-72.12"/>
<text xml:space="preserve" text-anchor="middle" x="62.38" y="-58.62" font-family="Helvetica,sans-Serif" font-size="10.00">init_test_page</text>
</a>
</g>
</g>
<!-- Node26&#45;&gt;Node27 -->
<g id="edge7_Node000026_Node000027" class="edge">
<title>Node26&#45;&gt;Node27</title>
<g id="a_edge7_Node000026_Node000027"><a xlink:title=" ">
<path fill="none" stroke="#63b8ff" d="M166.24,-61.75C145.66,-61.75 123.64,-61.75 105.27,-61.75"/>
<polygon fill="#63b8ff" stroke="#63b8ff" points="165.98,-65.25 175.98,-61.75 165.98,-58.25 165.98,-65.25"/>
</a>
</g>
</g>
<!-- Node29 -->
<g id="Node000029" class="node">
<title>Node29</title>
<g id="a_Node000029"><a xlink:href="$m__effect__select_8c.html#a0a0604d69c6fbeb09b31db2ebff0e901" xlink:title=" ">
<polygon fill="white" stroke="#666666" points="308.75,-30.12 160.75,-30.12 160.75,-9.38 308.75,-9.38 308.75,-30.12"/>
<text xml:space="preserve" text-anchor="middle" x="234.75" y="-16.62" font-family="Helvetica,sans-Serif" font-size="10.00">add_effect_from_menu_eff</text>
</a>
</g>
</g>
<!-- Node28&#45;&gt;Node29 -->
<g id="edge9_Node000028_Node000029" class="edge">
<title>Node28&#45;&gt;Node29</title>
<g id="a_edge9_Node000028_Node000029"><a xlink:title=" ">
<path fill="none" stroke="#63b8ff" d="M338.83,-29.32C329.02,-28.41 318.91,-27.47 309.03,-26.56"/>
<polygon fill="#63b8ff" stroke="#63b8ff" points="338.38,-32.8 348.66,-30.24 339.02,-25.83 338.38,-32.8"/>
</a>
</g>
</g>
<!-- Node30 -->
<g id="Node000030" class="node">
<title>Node30</title>
<g id="a_Node000030"><a xlink:href="$m__effect__select_8c.html#a5f579ea08f650f9529174b7a72822b29" xlink:title=" ">
<polygon fill="#fff0f0" stroke="red" points="124.75,-33.5 0,-33.5 0,0 124.75,0 124.75,-33.5"/>
<text xml:space="preserve" text-anchor="start" x="8" y="-20" font-family="Helvetica,sans-Serif" font-size="10.00">create_effect_selector</text>
<text xml:space="preserve" text-anchor="middle" x="62.38" y="-7.25" font-family="Helvetica,sans-Serif" font-size="10.00">_button_ui_eff</text>
</a>
</g>
</g>
<!-- Node29&#45;&gt;Node30 -->
<g id="edge10_Node000029_Node000030" class="edge">
<title>Node29&#45;&gt;Node30</title>
<g id="a_edge10_Node000029_Node000030"><a xlink:title=" ">
<path fill="none" stroke="#63b8ff" d="M149.09,-18.26C140.99,-18.12 132.88,-17.97 125.06,-17.84"/>
<polygon fill="#63b8ff" stroke="#63b8ff" points="148.93,-21.76 158.99,-18.43 149.06,-14.76 148.93,-21.76"/>
</a>
</g>
</g>
<!-- Node12 -->
<g id="Node000012" class="node">
<title>Node12</title>
<g id="a_Node000012"><a xlink:href="$m__sequence__view_8c.html#aa023b6efccc9528b27b31dcf25d1981a" xlink:title=" ">
<polygon fill="#fff0f0" stroke="red" points="305.75,-189.12 163.75,-189.12 163.75,-168.38 305.75,-168.38 305.75,-189.12"/>
<text xml:space="preserve" text-anchor="middle" x="234.75" y="-175.62" font-family="Helvetica,sans-Serif" font-size="10.00">configure_sequence_view</text>
</a>
</g>
</g>
<!-- Node33&#45;&gt;Node12 -->
<g id="edge12_Node000033_Node000012" class="edge">
<title>Node33&#45;&gt;Node12</title>
<g id="a_edge12_Node000033_Node000012"><a xlink:title=" ">
<path fill="none" stroke="#63b8ff" d="M359.91,-166.5C343.21,-168.14 324.12,-170.03 306,-171.82"/>
<polygon fill="#63b8ff" stroke="#63b8ff" points="359.93,-170.01 369.54,-165.55 359.25,-163.04 359.93,-170.01"/>
</a>
</g>
</g>
<!-- Node12&#45;&gt;Node24 -->
<g id="edge13_Node000012_Node000024" class="edge">
<title>Node12&#45;&gt;Node24</title>
<g id="a_edge13_Node000012_Node000024"><a xlink:title=" ">
<path fill="none" stroke="#63b8ff" d="M152.17,-169.17C140.82,-167.84 129.38,-166.5 118.67,-165.24"/>
<polygon fill="#63b8ff" stroke="#63b8ff" points="151.63,-172.63 161.97,-170.32 152.44,-165.68 151.63,-172.63"/>
</a>
</g>
</g>
</g>
</svg>
