<?xml version="1.0" encoding="UTF-8" standalone="no"?>
<!DOCTYPE svg PUBLIC "-//W3C//DTD SVG 1.1//EN"
 "http://www.w3.org/Graphics/SVG/1.1/DTD/svg11.dtd">
<!-- Generated by graphviz version 13.1.2 (20250808.2320)
 -->
<!-- Title: cxt_get_profile_by_fname Pages: 1 -->
<!--zoomable 119 -->

<svg id="main" version="1.1" xmlns="http://www.w3.org/2000/svg" xmlns:xlink="http://www.w3.org/1999/xlink" xml:space="preserve" onload="init(evt)">

<style type="text/css"><![CDATA[
.node, .edge {opacity: 0.7;}
.node.selected, .edge.selected {opacity: 1;}
.edge:hover path { stroke: red; }
.edge:hover polygon { stroke: red; fill: red; }
]]></style>

<defs>
  <circle id="rim" cx="0" cy="0" r="7"/>
  <circle id="rim2" cx="0" cy="0" r="3.5"/>
  <g id="zoomPlus">
    <use xlink:href="#rim" fill="#404040"><set attributeName="fill" to="#808080" begin="zoomplus.mouseover" end="zoomplus.mouseout"/></use>
    <path d="M-4,0h8M0,-4v8" fill="none" stroke="white" stroke-width="1.5" pointer-events="none"/>
  </g>
  <g id="zoomMin">
    <use xlink:href="#rim" fill="#404040"><set attributeName="fill" to="#808080" begin="zoomminus.mouseover" end="zoomminus.mouseout"/></use>
    <path d="M-4,0h8" fill="none" stroke="white" stroke-width="1.5" pointer-events="none"/>
  </g>
  <g id="arrowUp" transform="translate(30 24)">
    <use xlink:href="#rim"/>
    <path pointer-events="none" fill="none" stroke="white" stroke-width="1.5" d="M0,-3.0v7 M-2.5,-0.5L0,-3.0L2.5,-0.5"/>
  </g>
  <g id="arrowRight" transform="rotate(90) translate(36 -43)">
    <use xlink:href="#rim"/>
    <path pointer-events="none" fill="none" stroke="white" stroke-width="1.5" d="M0,-3.0v7 M-2.5,-0.5L0,-3.0L2.5,-0.5"/>
  </g>
  <g id="arrowDown" transform="rotate(180) translate(-30 -48)">
    <use xlink:href="#rim"/>
    <path pointer-events="none" fill="none" stroke="white" stroke-width="1.5" d="M0,-3.0v7 M-2.5,-0.5L0,-3.0L2.5,-0.5"/>
  </g>
  <g id="arrowLeft" transform="rotate(270) translate(-36 17)">
    <use xlink:href="#rim"/>
    <path pointer-events="none" fill="none" stroke="white" stroke-width="1.5" d="M0,-3.0v7 M-2.5,-0.5L0,-3.0L2.5,-0.5"/>
  </g>
  <g id="resetDef">
    <use xlink:href="#rim2" fill="#404040"><set attributeName="fill" to="#808080" begin="reset.mouseover" end="reset.mouseout"/></use>
  </g>
</defs>
<script type="application/ecmascript">
var viewWidth = 633;
var viewHeight = 119;
var sectionId = 'dynsection-6';
</script>
<script type="application/ecmascript" xlink:href="svg.min.js"/>
<svg id="graph" class="graph">
<g id="viewport">
<title>cxt_get_profile_by_fname</title>
<!-- Node1 -->
<g id="Node000001" class="node">
<title>Node1</title>
<g id="a_Node000001"><a xlink:title=" ">
<polygon fill="#999999" stroke="#666666" points="625.25,-66.12 519.25,-66.12 519.25,-32.62 625.25,-32.62 625.25,-66.12"/>
<text xml:space="preserve" text-anchor="start" x="527.25" y="-52.62" font-family="Helvetica,sans-Serif" font-size="10.00">cxt_get_profile_by</text>
<text xml:space="preserve" text-anchor="middle" x="572.25" y="-39.88" font-family="Helvetica,sans-Serif" font-size="10.00">_fname</text>
</a>
</g>
</g>
<!-- Node2 -->
<g id="Node000002" class="node">
<title>Node2</title>
<g id="a_Node000002"><a xlink:href="m__state_8c.html#ade70c4c59f1b52e6ccd2f2a5c63559a9" target="_top" xlink:title=" ">
<polygon fill="white" stroke="#666666" points="301.88,-59.75 186.12,-59.75 186.12,-39 301.88,-39 301.88,-59.75"/>
<text xml:space="preserve" text-anchor="middle" x="244" y="-46.25" font-family="Helvetica,sans-Serif" font-size="10.00">m_cxt_restore_state</text>
</a>
</g>
</g>
<!-- Node1&#45;&gt;Node2 -->
<g id="edge1_Node000001_Node000002" class="edge">
<title>Node1&#45;&gt;Node2</title>
<g id="a_edge1_Node000001_Node000002"><a xlink:title=" ">
<path fill="none" stroke="#63b8ff" d="M507.68,-49.38C448.05,-49.38 359.7,-49.38 302.23,-49.38"/>
<polygon fill="#63b8ff" stroke="#63b8ff" points="507.32,-52.88 517.32,-49.38 507.32,-45.88 507.32,-52.88"/>
</a>
</g>
</g>
<!-- Node6 -->
<g id="Node000006" class="node">
<title>Node6</title>
<g id="a_Node000006"><a xlink:href="m__page__id_8c.html#a3c403cf915e464a34e20dbcf0f2599ac" target="_top" xlink:title=" ">
<polygon fill="white" stroke="#666666" points="475,-100.75 352.5,-100.75 352.5,-80 475,-80 475,-100.75"/>
<text xml:space="preserve" text-anchor="middle" x="413.75" y="-87.25" font-family="Helvetica,sans-Serif" font-size="10.00">m_page_id_find_page</text>
</a>
</g>
</g>
<!-- Node1&#45;&gt;Node6 -->
<g id="edge5_Node000001_Node000006" class="edge">
<title>Node1&#45;&gt;Node6</title>
<g id="a_edge5_Node000001_Node000006"><a xlink:title=" ">
<path fill="none" stroke="#63b8ff" d="M508.39,-65.84C490.85,-70.44 472.23,-75.32 456.26,-79.5"/>
<polygon fill="#63b8ff" stroke="#63b8ff" points="508.89,-69.33 517.67,-63.41 507.11,-62.56 508.89,-69.33"/>
</a>
</g>
</g>
<!-- Node8 -->
<g id="Node000008" class="node">
<title>Node8</title>
<g id="a_Node000008"><a xlink:href="m__files_8c.html#a8da346d30dfa12117c7bec1add11153c" target="_top" xlink:title=" ">
<polygon fill="white" stroke="#666666" points="483.25,-21.75 344.25,-21.75 344.25,-1 483.25,-1 483.25,-21.75"/>
<text xml:space="preserve" text-anchor="middle" x="413.75" y="-8.25" font-family="Helvetica,sans-Serif" font-size="10.00">read_sequence_from_file</text>
</a>
</g>
</g>
<!-- Node1&#45;&gt;Node8 -->
<g id="edge8_Node000001_Node000008" class="edge">
<title>Node1&#45;&gt;Node8</title>
<g id="a_edge8_Node000001_Node000008"><a xlink:title=" ">
<path fill="none" stroke="#63b8ff" d="M508.02,-34.02C491.69,-30.06 474.46,-25.87 459.31,-22.19"/>
<polygon fill="#63b8ff" stroke="#63b8ff" points="507.12,-37.41 517.67,-36.36 508.78,-30.6 507.12,-37.41"/>
</a>
</g>
</g>
<!-- Node3 -->
<g id="Node000003" class="node">
<title>Node3</title>
<g id="a_Node000003"><a xlink:href="m__int_8c.html#abce06be17fc37d675118a678a8100a36" target="_top" xlink:title=" ">
<polygon fill="white" stroke="#666666" points="142.25,-59.75 78.25,-59.75 78.25,-39 142.25,-39 142.25,-59.75"/>
<text xml:space="preserve" text-anchor="middle" x="110.25" y="-46.25" font-family="Helvetica,sans-Serif" font-size="10.00">app_main</text>
</a>
</g>
</g>
<!-- Node2&#45;&gt;Node3 -->
<g id="edge2_Node000002_Node000003" class="edge">
<title>Node2&#45;&gt;Node3</title>
<g id="a_edge2_Node000002_Node000003"><a xlink:title=" ">
<path fill="none" stroke="#63b8ff" d="M174.75,-49.38C163.5,-49.38 152.35,-49.38 142.6,-49.38"/>
<polygon fill="#63b8ff" stroke="#63b8ff" points="174.47,-52.88 184.47,-49.38 174.47,-45.88 174.47,-52.88"/>
</a>
</g>
</g>
<!-- Node4 -->
<g id="Node000004" class="node">
<title>Node4</title>
<g id="a_Node000004"><a xlink:href="m__desktop_8c.html#ab499a4f71ef4cfc807b60d8739750c3e" target="_top" xlink:title=" ">
<polygon fill="white" stroke="#666666" points="143.75,-20.75 76.75,-20.75 76.75,0 143.75,0 143.75,-20.75"/>
<text xml:space="preserve" text-anchor="middle" x="110.25" y="-7.25" font-family="Helvetica,sans-Serif" font-size="10.00">main_task</text>
</a>
</g>
</g>
<!-- Node2&#45;&gt;Node4 -->
<g id="edge3_Node000002_Node000004" class="edge">
<title>Node2&#45;&gt;Node4</title>
<g id="a_edge3_Node000002_Node000004"><a xlink:title=" ">
<path fill="none" stroke="#63b8ff" d="M195.43,-35.29C178.43,-30.26 159.65,-24.7 144.16,-20.12"/>
<polygon fill="#63b8ff" stroke="#63b8ff" points="194.27,-38.6 204.85,-38.08 196.25,-31.89 194.27,-38.6"/>
</a>
</g>
</g>
<!-- Node5 -->
<g id="Node000005" class="node">
<title>Node5</title>
<g id="a_Node000005"><a xlink:href="m__desktop_8c.html#a3c04138a5bfe5d72780bb7e82a18e627" target="_top" xlink:title=" ">
<polygon fill="white" stroke="#666666" points="40.75,-20.75 0,-20.75 0,0 40.75,0 40.75,-20.75"/>
<text xml:space="preserve" text-anchor="middle" x="20.38" y="-7.25" font-family="Helvetica,sans-Serif" font-size="10.00">main</text>
</a>
</g>
</g>
<!-- Node4&#45;&gt;Node5 -->
<g id="edge4_Node000004_Node000005" class="edge">
<title>Node4&#45;&gt;Node5</title>
<g id="a_edge4_Node000004_Node000005"><a xlink:title=" ">
<path fill="none" stroke="#63b8ff" d="M65.01,-10.38C56.68,-10.38 48.35,-10.38 41.24,-10.38"/>
<polygon fill="#63b8ff" stroke="#63b8ff" points="64.77,-13.88 74.77,-10.38 64.77,-6.88 64.77,-13.88"/>
</a>
</g>
</g>
<!-- Node7 -->
<g id="Node000007" class="node">
<title>Node7</title>
<g id="a_Node000007"><a xlink:href="m__state_8c.html#ab99ef4a9c926e6aeeaf78f4593f243c1" target="_top" xlink:title=" ">
<polygon fill="white" stroke="#666666" points="306,-111.12 182,-111.12 182,-77.62 306,-77.62 306,-111.12"/>
<text xml:space="preserve" text-anchor="start" x="190" y="-97.62" font-family="Helvetica,sans-Serif" font-size="10.00">m_cxt_enter_previous</text>
<text xml:space="preserve" text-anchor="middle" x="244" y="-84.88" font-family="Helvetica,sans-Serif" font-size="10.00">_current_page</text>
</a>
</g>
</g>
<!-- Node6&#45;&gt;Node7 -->
<g id="edge6_Node000006_Node000007" class="edge">
<title>Node6&#45;&gt;Node7</title>
<g id="a_edge6_Node000006_Node000007"><a xlink:title=" ">
<path fill="none" stroke="#63b8ff" d="M340.83,-92.09C329.34,-92.36 317.54,-92.65 306.32,-92.91"/>
<polygon fill="#63b8ff" stroke="#63b8ff" points="340.76,-95.59 350.68,-91.86 340.59,-88.59 340.76,-95.59"/>
</a>
</g>
</g>
<!-- Node7&#45;&gt;Node3 -->
<g id="edge7_Node000007_Node000003" class="edge">
<title>Node7&#45;&gt;Node3</title>
<g id="a_edge7_Node000007_Node000003"><a xlink:title=" ">
<path fill="none" stroke="#63b8ff" d="M181.99,-73.54C168.36,-68.88 154.45,-64.13 142.61,-60.09"/>
<polygon fill="#63b8ff" stroke="#63b8ff" points="180.79,-76.82 191.38,-76.74 183.05,-70.2 180.79,-76.82"/>
</a>
</g>
</g>
<!-- Node9 -->
<g id="Node000009" class="node">
<title>Node9</title>
<g id="a_Node000009"><a xlink:href="m__files_8c.html#a818849f86d2816c2e9a60229f5f103c1" target="_top" xlink:title=" ">
<polygon fill="white" stroke="#666666" points="308.25,-20.75 179.75,-20.75 179.75,0 308.25,0 308.25,-20.75"/>
<text xml:space="preserve" text-anchor="middle" x="244" y="-7.25" font-family="Helvetica,sans-Serif" font-size="10.00">load_saved_sequences</text>
</a>
</g>
</g>
<!-- Node8&#45;&gt;Node9 -->
<g id="edge9_Node000008_Node000009" class="edge">
<title>Node8&#45;&gt;Node9</title>
<g id="a_edge9_Node000008_Node000009"><a xlink:title=" ">
<path fill="none" stroke="#63b8ff" d="M332.73,-10.9C324.68,-10.85 316.59,-10.8 308.75,-10.76"/>
<polygon fill="#63b8ff" stroke="#63b8ff" points="332.5,-14.4 342.52,-10.96 332.54,-7.4 332.5,-14.4"/>
</a>
</g>
</g>
<!-- Node9&#45;&gt;Node3 -->
<g id="edge10_Node000009_Node000003" class="edge">
<title>Node9&#45;&gt;Node3</title>
<g id="a_edge10_Node000009_Node000003"><a xlink:title=" ">
<path fill="none" stroke="#63b8ff" d="M195.33,-24.48C177.71,-29.7 158.19,-35.48 142.4,-40.15"/>
<polygon fill="#63b8ff" stroke="#63b8ff" points="196.25,-27.86 204.85,-21.67 194.27,-21.15 196.25,-27.86"/>
</a>
</g>
</g>
<!-- Node9&#45;&gt;Node4 -->
<g id="edge11_Node000009_Node000004" class="edge">
<title>Node9&#45;&gt;Node4</title>
<g id="a_edge11_Node000009_Node000004"><a xlink:title=" ">
<path fill="none" stroke="#63b8ff" d="M167.99,-10.38C159.64,-10.38 151.49,-10.38 144.1,-10.38"/>
<polygon fill="#63b8ff" stroke="#63b8ff" points="167.93,-13.88 177.93,-10.38 167.93,-6.88 167.93,-13.88"/>
</a>
</g>
</g>
</g>
</svg>

<g id="navigator" transform="translate(0 0)" fill="#404254">
  <rect fill="#f2f5e9" fill-opacity="0.5" stroke="#606060" stroke-width=".5" x="0" y="0" width="60" height="60"/>
  <use id="zoomplus" xlink:href="#zoomPlus" x="17" y="9" onmousedown="handleZoom(evt,'in')"/>
  <use id="zoomminus" xlink:href="#zoomMin" x="42" y="9" onmousedown="handleZoom(evt,'out')"/>
  <use id="reset" xlink:href="#resetDef" x="30" y="36" onmousedown="handleReset()"/>
   <use id="arrowup" xlink:href="#arrowUp" x="0" y="0" onmousedown="handlePan(0,-1)"/>
  <use id="arrowright" xlink:href="#arrowRight" x="0" y="0" onmousedown="handlePan(1,0)"/>
  <use id="arrowdown" xlink:href="#arrowDown" x="0" y="0" onmousedown="handlePan(0,1)"/>
  <use id="arrowleft" xlink:href="#arrowLeft" x="0" y="0" onmousedown="handlePan(-1,0)"/>
</g>
<svg viewBox="0 0 15 15" width="100%" height="30px" preserveAspectRatio="xMaxYMin meet">
 <g id="arrow_out" transform="scale(0.3 0.3)">
  <a xlink:href="m__context_8h_a62b38743df25267e66764a3c60908af9_icgraph_org.svg" target="_base">
   <rect id="button" ry="5" rx="5" y="6" x="6" height="38" width="38"
        fill="#f2f5e9" fill-opacity="0.5" stroke="#606060" stroke-width="1.0"/>
   <path id="arrow"
     d="M 11.500037,31.436501 C 11.940474,20.09759 22.043105,11.32322 32.158766,21.979434 L 37.068811,17.246167 C 37.068811,17.246167 37.088388,32 37.088388,32 L 22.160133,31.978069 C 22.160133,31.978069 26.997745,27.140456 26.997745,27.140456 C 18.528582,18.264221 13.291696,25.230495 11.500037,31.436501 z"
     style="fill:#404040;"/>
  </a>
 </g>
</svg>

<style type='text/css'>
<![CDATA[
[data-mouse-over-selected='false'] { opacity: 0.7; }
[data-mouse-over-selected='true']  { opacity: 1.0; }
]]>
</style>
<script type="application/ecmascript"><![CDATA[
document.addEventListener('DOMContentLoaded', (event) => {
  highlightEdges();
  highlightAdjacentNodes();
});
]]></script>
</svg>
