<?xml version="1.0" encoding="UTF-8" standalone="no"?>
<!DOCTYPE svg PUBLIC "-//W3C//DTD SVG 1.1//EN"
 "http://www.w3.org/Graphics/SVG/1.1/DTD/svg11.dtd">
<!-- Generated by graphviz version 13.1.2 (20250808.2320)
 -->
<!-- Title: m_context_add_profile_rp Pages: 1 -->
<svg width="563pt" height="158pt"
 viewBox="0.00 0.00 563.00 158.00" xmlns="http://www.w3.org/2000/svg" xmlns:xlink="http://www.w3.org/1999/xlink">
<g id="graph0" class="graph" transform="scale(1 1) rotate(0) translate(4 154.12)">
<title>m_context_add_profile_rp</title>
<!-- Node1 -->
<g id="Node000001" class="node">
<title>Node1</title>
<g id="a_Node000001"><a xlink:title=" ">
<polygon fill="#999999" stroke="#666666" points="142.75,-110.12 0,-110.12 0,-89.38 142.75,-89.38 142.75,-110.12"/>
<text xml:space="preserve" text-anchor="middle" x="71.38" y="-96.62" font-family="Helvetica,sans-Serif" font-size="10.00">m_context_add_profile_rp</text>
</a>
</g>
</g>
<!-- Node2 -->
<g id="Node000002" class="node">
<title>Node2</title>
<g id="a_Node000002"><a xlink:href="$m__profile_8c.html#a924661c699938ec0a5887d77760265e8" xlink:title=" ">
<polygon fill="white" stroke="#666666" points="256.62,-140.12 184.38,-140.12 184.38,-119.38 256.62,-119.38 256.62,-140.12"/>
<text xml:space="preserve" text-anchor="middle" x="220.5" y="-126.62" font-family="Helvetica,sans-Serif" font-size="10.00">free_profile</text>
</a>
</g>
</g>
<!-- Node1&#45;&gt;Node2 -->
<g id="edge1_Node000001_Node000002" class="edge">
<title>Node1&#45;&gt;Node2</title>
<g id="a_edge1_Node000001_Node000002"><a xlink:title=" ">
<path fill="none" stroke="#63b8ff" d="M125.49,-110.58C140.97,-113.74 157.76,-117.16 172.81,-120.23"/>
<polygon fill="#63b8ff" stroke="#63b8ff" points="171.95,-123.63 182.45,-122.19 173.35,-116.77 171.95,-123.63"/>
</a>
</g>
</g>
<!-- Node12 -->
<g id="Node000012" class="node">
<title>Node12</title>
<g id="a_Node000012"><a xlink:href="$m__profile_8c.html#ab73797729c3c2878fcbc0e8eb3a3b1d1" xlink:title=" ">
<polygon fill="white" stroke="#666666" points="262.25,-91.12 178.75,-91.12 178.75,-70.38 262.25,-70.38 262.25,-91.12"/>
<text xml:space="preserve" text-anchor="middle" x="220.5" y="-77.62" font-family="Helvetica,sans-Serif" font-size="10.00">init_m_profile</text>
</a>
</g>
</g>
<!-- Node1&#45;&gt;Node12 -->
<g id="edge4_Node000001_Node000012" class="edge">
<title>Node1&#45;&gt;Node12</title>
<g id="a_edge4_Node000001_Node000012"><a xlink:title=" ">
<path fill="none" stroke="#63b8ff" d="M142.92,-90.64C151.15,-89.58 159.42,-88.51 167.34,-87.49"/>
<polygon fill="#63b8ff" stroke="#63b8ff" points="167.65,-90.97 177.12,-86.22 166.76,-84.03 167.65,-90.97"/>
</a>
</g>
</g>
<!-- Node3 -->
<g id="Node000003" class="node">
<title>Node3</title>
<g id="a_Node000003"><a xlink:href="$m__profile_8c.html#accc7093440aeddb4d1ba24e393451061" xlink:title=" ">
<polygon fill="white" stroke="#666666" points="384.75,-150.12 316.25,-150.12 316.25,-129.38 384.75,-129.38 384.75,-150.12"/>
<text xml:space="preserve" text-anchor="middle" x="350.5" y="-136.62" font-family="Helvetica,sans-Serif" font-size="10.00">gut_profile</text>
</a>
</g>
</g>
<!-- Node2&#45;&gt;Node3 -->
<g id="edge2_Node000002_Node000003" class="edge">
<title>Node2&#45;&gt;Node3</title>
<g id="a_edge2_Node000002_Node000003"><a xlink:title=" ">
<path fill="none" stroke="#63b8ff" d="M256.82,-132.51C271.7,-133.67 289.2,-135.04 304.96,-136.27"/>
<polygon fill="#63b8ff" stroke="#63b8ff" points="304.31,-139.73 314.55,-137.02 304.86,-132.75 304.31,-139.73"/>
</a>
</g>
</g>
<!-- Node4 -->
<g id="Node000004" class="node">
<title>Node4</title>
<g id="a_Node000004"><a xlink:href="$m__pipeline_8c.html#a7290514b79b5386d9e30893c685c5018" xlink:title=" ">
<polygon fill="#fff0f0" stroke="red" points="534.62,-150.12 458.62,-150.12 458.62,-129.38 534.62,-129.38 534.62,-150.12"/>
<text xml:space="preserve" text-anchor="middle" x="496.62" y="-136.62" font-family="Helvetica,sans-Serif" font-size="10.00">gut_pipeline</text>
</a>
</g>
</g>
<!-- Node3&#45;&gt;Node4 -->
<g id="edge3_Node000003_Node000004" class="edge">
<title>Node3&#45;&gt;Node4</title>
<g id="a_edge3_Node000003_Node000004"><a xlink:title=" ">
<path fill="none" stroke="#63b8ff" d="M384.93,-139.75C403.36,-139.75 426.59,-139.75 447,-139.75"/>
<polygon fill="#63b8ff" stroke="#63b8ff" points="446.81,-143.25 456.81,-139.75 446.81,-136.25 446.81,-143.25"/>
</a>
</g>
</g>
<!-- Node13 -->
<g id="Node000013" class="node">
<title>Node13</title>
<g id="a_Node000013"><a xlink:href="$m__pipeline_8c.html#af5d9778a56a1d8845d0a8e15f9584bd7" xlink:title=" ">
<polygon fill="white" stroke="#666666" points="396,-111.12 305,-111.12 305,-90.38 396,-90.38 396,-111.12"/>
<text xml:space="preserve" text-anchor="middle" x="350.5" y="-97.62" font-family="Helvetica,sans-Serif" font-size="10.00">init_m_pipeline</text>
</a>
</g>
</g>
<!-- Node12&#45;&gt;Node13 -->
<g id="edge5_Node000012_Node000013" class="edge">
<title>Node12&#45;&gt;Node13</title>
<g id="a_edge5_Node000012_Node000013"><a xlink:title=" ">
<path fill="none" stroke="#63b8ff" d="M262.7,-87.19C272.58,-88.73 283.29,-90.4 293.7,-92.03"/>
<polygon fill="#63b8ff" stroke="#63b8ff" points="292.92,-95.45 303.34,-93.54 294,-88.54 292.92,-95.45"/>
</a>
</g>
</g>
<!-- Node14 -->
<g id="Node000014" class="node">
<title>Node14</title>
<g id="a_Node000014"><a xlink:href="$m__parameter_8c.html#a6920b520347a79341c052f23878c6d2a" xlink:title=" ">
<polygon fill="white" stroke="#666666" points="394.5,-72.12 306.5,-72.12 306.5,-51.38 394.5,-51.38 394.5,-72.12"/>
<text xml:space="preserve" text-anchor="middle" x="350.5" y="-58.62" font-family="Helvetica,sans-Serif" font-size="10.00">init_parameter</text>
</a>
</g>
</g>
<!-- Node12&#45;&gt;Node14 -->
<g id="edge6_Node000012_Node000014" class="edge">
<title>Node12&#45;&gt;Node14</title>
<g id="a_edge6_Node000012_Node000014"><a xlink:title=" ">
<path fill="none" stroke="#63b8ff" d="M262.7,-74.63C273.01,-73.1 284.22,-71.44 295.06,-69.83"/>
<polygon fill="#63b8ff" stroke="#63b8ff" points="295.29,-73.33 304.67,-68.4 294.27,-66.41 295.29,-73.33"/>
</a>
</g>
</g>
<!-- Node18 -->
<g id="Node000018" class="node">
<title>Node18</title>
<g id="a_Node000018"><a xlink:href="$m__profile_8c.html#afa367fbc737a45369449f963fde361b6" xlink:title=" ">
<polygon fill="white" stroke="#666666" points="402.75,-33.5 298.25,-33.5 298.25,0 402.75,0 402.75,-33.5"/>
<text xml:space="preserve" text-anchor="start" x="306.25" y="-20" font-family="Helvetica,sans-Serif" font-size="10.00">m_profile_file_rep</text>
<text xml:space="preserve" text-anchor="middle" x="350.5" y="-7.25" font-family="Helvetica,sans-Serif" font-size="10.00">_update</text>
</a>
</g>
</g>
<!-- Node12&#45;&gt;Node18 -->
<g id="edge8_Node000012_Node000018" class="edge">
<title>Node12&#45;&gt;Node18</title>
<g id="a_edge8_Node000012_Node000018"><a xlink:title=" ">
<path fill="none" stroke="#63b8ff" d="M243.21,-69.89C260.05,-61.47 283.97,-49.52 304.85,-39.08"/>
<polygon fill="#63b8ff" stroke="#63b8ff" points="306.39,-42.22 313.77,-34.62 303.26,-35.96 306.39,-42.22"/>
</a>
</g>
</g>
<!-- Node15 -->
<g id="Node000015" class="node">
<title>Node15</title>
<g id="a_Node000015"><a xlink:href="$m__parameter_8c.html#a6c029c4379be052a826c3a78b8dd1513" xlink:title=" ">
<polygon fill="#fff0f0" stroke="red" points="554.5,-78.5 438.75,-78.5 438.75,-45 554.5,-45 554.5,-78.5"/>
<text xml:space="preserve" text-anchor="start" x="446.75" y="-65" font-family="Helvetica,sans-Serif" font-size="10.00">m_parameter_effect</text>
<text xml:space="preserve" text-anchor="middle" x="496.62" y="-52.25" font-family="Helvetica,sans-Serif" font-size="10.00">_rep_update</text>
</a>
</g>
</g>
<!-- Node14&#45;&gt;Node15 -->
<g id="edge7_Node000014_Node000015" class="edge">
<title>Node14&#45;&gt;Node15</title>
<g id="a_edge7_Node000014_Node000015"><a xlink:title=" ">
<path fill="none" stroke="#63b8ff" d="M394.74,-61.75C404.9,-61.75 415.96,-61.75 426.93,-61.75"/>
<polygon fill="#63b8ff" stroke="#63b8ff" points="426.76,-65.25 436.76,-61.75 426.76,-58.25 426.76,-65.25"/>
</a>
</g>
</g>
<!-- Node19 -->
<g id="Node000019" class="node">
<title>Node19</title>
<g id="a_Node000019"><a xlink:href="$m__files_8c.html#af05d2dbfb9a9b37f20141d551b81cbb9" xlink:title=" ">
<polygon fill="#fff0f0" stroke="red" points="534.62,-27.12 458.62,-27.12 458.62,-6.38 534.62,-6.38 534.62,-27.12"/>
<text xml:space="preserve" text-anchor="middle" x="496.62" y="-13.62" font-family="Helvetica,sans-Serif" font-size="10.00">save_profile</text>
</a>
</g>
</g>
<!-- Node18&#45;&gt;Node19 -->
<g id="edge9_Node000018_Node000019" class="edge">
<title>Node18&#45;&gt;Node19</title>
<g id="a_edge9_Node000018_Node000019"><a xlink:title=" ">
<path fill="none" stroke="#63b8ff" d="M403.13,-16.75C417.39,-16.75 432.81,-16.75 446.9,-16.75"/>
<polygon fill="#63b8ff" stroke="#63b8ff" points="446.86,-20.25 456.86,-16.75 446.86,-13.25 446.86,-20.25"/>
</a>
</g>
</g>
</g>
</svg>
