<?xml version="1.0" encoding="UTF-8" standalone="no"?>
<!DOCTYPE svg PUBLIC "-//W3C//DTD SVG 1.1//EN"
 "http://www.w3.org/Graphics/SVG/1.1/DTD/svg11.dtd">
<!-- Generated by graphviz version 13.1.2 (20250808.2320)
 -->
<!-- Title: cxt_remove_profile Pages: 1 -->
<svg width="443pt" height="29pt"
 viewBox="0.00 0.00 443.00 29.00" xmlns="http://www.w3.org/2000/svg" xmlns:xlink="http://www.w3.org/1999/xlink">
<g id="graph0" class="graph" transform="scale(1 1) rotate(0) translate(4 24.75)">
<title>cxt_remove_profile</title>
<!-- Node1 -->
<g id="Node000001" class="node">
<title>Node1</title>
<g id="a_Node000001"><a xlink:title=" ">
<polygon fill="#999999" stroke="#666666" points="110.5,-20.75 0,-20.75 0,0 110.5,0 110.5,-20.75"/>
<text xml:space="preserve" text-anchor="middle" x="55.25" y="-7.25" font-family="Helvetica,sans-Serif" font-size="10.00">cxt_remove_profile</text>
</a>
</g>
</g>
<!-- Node2 -->
<g id="Node000002" class="node">
<title>Node2</title>
<g id="a_Node000002"><a xlink:href="m__profile_8c.html#a924661c699938ec0a5887d77760265e8" target="_top" xlink:title=" ">
<polygon fill="white" stroke="#666666" points="218.75,-20.75 146.5,-20.75 146.5,0 218.75,0 218.75,-20.75"/>
<text xml:space="preserve" text-anchor="middle" x="182.62" y="-7.25" font-family="Helvetica,sans-Serif" font-size="10.00">free_profile</text>
</a>
</g>
</g>
<!-- Node1&#45;&gt;Node2 -->
<g id="edge1_Node000001_Node000002" class="edge">
<title>Node1&#45;&gt;Node2</title>
<g id="a_edge1_Node000001_Node000002"><a xlink:title=" ">
<path fill="none" stroke="#63b8ff" d="M110.88,-10.38C118.85,-10.38 127,-10.38 134.81,-10.38"/>
<polygon fill="#63b8ff" stroke="#63b8ff" points="134.79,-13.88 144.79,-10.38 134.79,-6.88 134.79,-13.88"/>
</a>
</g>
</g>
<!-- Node3 -->
<g id="Node000003" class="node">
<title>Node3</title>
<g id="a_Node000003"><a xlink:href="m__profile_8c.html#accc7093440aeddb4d1ba24e393451061" target="_top" xlink:title=" ">
<polygon fill="white" stroke="#666666" points="323.25,-20.75 254.75,-20.75 254.75,0 323.25,0 323.25,-20.75"/>
<text xml:space="preserve" text-anchor="middle" x="289" y="-7.25" font-family="Helvetica,sans-Serif" font-size="10.00">gut_profile</text>
</a>
</g>
</g>
<!-- Node2&#45;&gt;Node3 -->
<g id="edge2_Node000002_Node000003" class="edge">
<title>Node2&#45;&gt;Node3</title>
<g id="a_edge2_Node000002_Node000003"><a xlink:title=" ">
<path fill="none" stroke="#63b8ff" d="M218.96,-10.38C226.67,-10.38 234.93,-10.38 242.96,-10.38"/>
<polygon fill="#63b8ff" stroke="#63b8ff" points="242.95,-13.88 252.95,-10.38 242.95,-6.88 242.95,-13.88"/>
</a>
</g>
</g>
<!-- Node4 -->
<g id="Node000004" class="node">
<title>Node4</title>
<g id="a_Node000004"><a xlink:href="m__pipeline_8c.html#a7290514b79b5386d9e30893c685c5018" target="_top" xlink:title=" ">
<polygon fill="#fff0f0" stroke="red" points="435.25,-20.75 359.25,-20.75 359.25,0 435.25,0 435.25,-20.75"/>
<text xml:space="preserve" text-anchor="middle" x="397.25" y="-7.25" font-family="Helvetica,sans-Serif" font-size="10.00">gut_pipeline</text>
</a>
</g>
</g>
<!-- Node3&#45;&gt;Node4 -->
<g id="edge3_Node000003_Node000004" class="edge">
<title>Node3&#45;&gt;Node4</title>
<g id="a_edge3_Node000003_Node000004"><a xlink:title=" ">
<path fill="none" stroke="#63b8ff" d="M323.62,-10.38C331.22,-10.38 339.44,-10.38 347.53,-10.38"/>
<polygon fill="#63b8ff" stroke="#63b8ff" points="347.28,-13.88 357.28,-10.38 347.28,-6.88 347.28,-13.88"/>
</a>
</g>
</g>
</g>
</svg>
