<?xml version="1.0" encoding="UTF-8" standalone="no"?>
<!DOCTYPE svg PUBLIC "-//W3C//DTD SVG 1.1//EN"
 "http://www.w3.org/Graphics/SVG/1.1/DTD/svg11.dtd">
<!-- Generated by graphviz version 13.1.2 (20250808.2320)
 -->
<!-- Title: set_active_profile_from_sequence Pages: 1 -->
<svg width="831pt" height="163pt"
 viewBox="0.00 0.00 831.00 163.00" xmlns="http://www.w3.org/2000/svg" xmlns:xlink="http://www.w3.org/1999/xlink">
<g id="graph0" class="graph" transform="scale(1 1) rotate(0) translate(4 158.52)">
<title>set_active_profile_from_sequence</title>
<!-- Node1 -->
<g id="Node000001" class="node">
<title>Node1</title>
<g id="a_Node000001"><a xlink:title=" ">
<polygon fill="#999999" stroke="#666666" points="103,-85.5 0,-85.5 0,-52 103,-52 103,-85.5"/>
<text xml:space="preserve" text-anchor="start" x="8" y="-72" font-family="Helvetica,sans-Serif" font-size="10.00">set_active_profile</text>
<text xml:space="preserve" text-anchor="middle" x="51.5" y="-59.25" font-family="Helvetica,sans-Serif" font-size="10.00">_from_sequence</text>
</a>
</g>
</g>
<!-- Node2 -->
<g id="Node000002" class="node">
<title>Node2</title>
<g id="a_Node000002"><a xlink:href="m__profile_8c.html#a74d36a7be10c6d05715b82bb706cd342" target="_top" xlink:title=" ">
<polygon fill="white" stroke="#666666" points="261.5,-99.12 143.5,-99.12 143.5,-78.38 261.5,-78.38 261.5,-99.12"/>
<text xml:space="preserve" text-anchor="middle" x="202.5" y="-85.62" font-family="Helvetica,sans-Serif" font-size="10.00">m_profile_set_active</text>
</a>
</g>
</g>
<!-- Node1&#45;&gt;Node2 -->
<g id="edge1_Node000001_Node000002" class="edge">
<title>Node1&#45;&gt;Node2</title>
<g id="a_edge1_Node000001_Node000002"><a xlink:title=" ">
<path fill="none" stroke="#63b8ff" d="M103.36,-75.58C112.57,-76.81 122.32,-78.12 131.96,-79.42"/>
<polygon fill="#63b8ff" stroke="#63b8ff" points="131.3,-82.86 141.68,-80.72 132.23,-75.92 131.3,-82.86"/>
</a>
</g>
</g>
<!-- Node33 -->
<g id="Node000033" class="node">
<title>Node33</title>
<g id="a_Node000033"><a xlink:href="m__profile_8c.html#a05ede4e67e9d4cf8558996a0dc2ea4ae" target="_top" xlink:title=" ">
<polygon fill="white" stroke="#666666" points="266,-60.12 139,-60.12 139,-39.38 266,-39.38 266,-60.12"/>
<text xml:space="preserve" text-anchor="middle" x="202.5" y="-46.62" font-family="Helvetica,sans-Serif" font-size="10.00">m_profile_set_inactive</text>
</a>
</g>
</g>
<!-- Node1&#45;&gt;Node33 -->
<g id="edge9_Node000001_Node000033" class="edge">
<title>Node1&#45;&gt;Node33</title>
<g id="a_edge9_Node000001_Node000033"><a xlink:title=" ">
<path fill="none" stroke="#63b8ff" d="M103.36,-62.26C111.19,-61.27 119.4,-60.22 127.6,-59.17"/>
<polygon fill="#63b8ff" stroke="#63b8ff" points="127.76,-62.68 137.24,-57.94 126.88,-55.74 127.76,-62.68"/>
</a>
</g>
</g>
<!-- Node3 -->
<g id="Node000003" class="node">
<title>Node3</title>
<g id="a_Node000003"><a xlink:href="m__profile_8c.html#afb4661b1e69513d4087f5e27ec776d51" target="_top" xlink:title=" ">
<polygon fill="white" stroke="#666666" points="461.62,-105.12 325.62,-105.12 325.62,-84.38 461.62,-84.38 461.62,-105.12"/>
<text xml:space="preserve" text-anchor="middle" x="393.62" y="-91.62" font-family="Helvetica,sans-Serif" font-size="10.00">m_profile_program_fpga</text>
</a>
</g>
</g>
<!-- Node2&#45;&gt;Node3 -->
<g id="edge2_Node000002_Node000003" class="edge">
<title>Node2&#45;&gt;Node3</title>
<g id="a_edge2_Node000002_Node000003"><a xlink:title=" ">
<path fill="none" stroke="#63b8ff" d="M261.79,-90.6C278.26,-91.12 296.46,-91.7 313.92,-92.25"/>
<polygon fill="#63b8ff" stroke="#63b8ff" points="313.64,-95.75 323.75,-92.56 313.86,-88.75 313.64,-95.75"/>
</a>
</g>
</g>
<!-- Node31 -->
<g id="Node000031" class="node">
<title>Node31</title>
<g id="a_Node000031"><a xlink:href="m__profile_8c.html#a3e0dbd889a2ea32d7abb63f31b1c04ac" target="_top" xlink:title=" ">
<polygon fill="white" stroke="#666666" points="485.25,-60.12 302,-60.12 302,-39.38 485.25,-39.38 485.25,-60.12"/>
<text xml:space="preserve" text-anchor="middle" x="393.62" y="-46.62" font-family="Helvetica,sans-Serif" font-size="10.00">m_profile_update_representations</text>
</a>
</g>
</g>
<!-- Node2&#45;&gt;Node31 -->
<g id="edge7_Node000002_Node000031" class="edge">
<title>Node2&#45;&gt;Node31</title>
<g id="a_edge7_Node000002_Node000031"><a xlink:title=" ">
<path fill="none" stroke="#63b8ff" d="M256.18,-77.89C278.73,-73.24 305.27,-67.76 328.91,-62.89"/>
<polygon fill="#63b8ff" stroke="#63b8ff" points="329.33,-66.38 338.42,-60.93 327.91,-59.52 329.33,-66.38"/>
</a>
</g>
</g>
<!-- Node4 -->
<g id="Node000004" class="node">
<title>Node4</title>
<g id="a_Node000004"><a xlink:href="m__error__codes_8c.html#a5298df5c7af3a6aac90c055a615b171a" target="_top" xlink:title=" ">
<polygon fill="white" stroke="#666666" points="822.5,-127.12 691.75,-127.12 691.75,-106.38 822.5,-106.38 822.5,-127.12"/>
<text xml:space="preserve" text-anchor="middle" x="757.12" y="-113.62" font-family="Helvetica,sans-Serif" font-size="10.00">m_error_code_to_string</text>
</a>
</g>
</g>
<!-- Node3&#45;&gt;Node4 -->
<g id="edge3_Node000003_Node000004" class="edge">
<title>Node3&#45;&gt;Node4</title>
<g id="a_edge3_Node000003_Node000004"><a xlink:title=" ">
<path fill="none" stroke="#63b8ff" d="M414.05,-105.54C438.28,-118.32 481.38,-138.88 521.25,-146.75 579.9,-158.32 596.6,-155.4 655.75,-146.75 676.47,-143.72 698.85,-137.35 717.21,-131.26"/>
<polygon fill="#63b8ff" stroke="#63b8ff" points="718.31,-134.58 726.63,-128.02 716.04,-127.96 718.31,-134.58"/>
</a>
</g>
</g>
<!-- Node5 -->
<g id="Node000005" class="node">
<title>Node5</title>
<g id="a_Node000005"><a xlink:href="m__fpga__comms_8c.html#a190f9d5003917f8a04f9cf4340145752" target="_top" xlink:title=" ">
<polygon fill="white" stroke="#666666" points="655.75,-137.5 521.25,-137.5 521.25,-104 655.75,-104 655.75,-137.5"/>
<text xml:space="preserve" text-anchor="start" x="529.25" y="-124" font-family="Helvetica,sans-Serif" font-size="10.00">m_fpga_queue_program</text>
<text xml:space="preserve" text-anchor="middle" x="588.5" y="-111.25" font-family="Helvetica,sans-Serif" font-size="10.00">_batch</text>
</a>
</g>
</g>
<!-- Node3&#45;&gt;Node5 -->
<g id="edge4_Node000003_Node000005" class="edge">
<title>Node3&#45;&gt;Node5</title>
<g id="a_edge4_Node000003_Node000005"><a xlink:title=" ">
<path fill="none" stroke="#63b8ff" d="M462.08,-103.84C477.47,-105.92 493.94,-108.14 509.72,-110.26"/>
<polygon fill="#63b8ff" stroke="#63b8ff" points="509.18,-113.72 519.56,-111.59 510.11,-106.79 509.18,-113.72"/>
</a>
</g>
</g>
<!-- Node6 -->
<g id="Node000006" class="node">
<title>Node6</title>
<g id="a_Node000006"><a xlink:href="m__pipeline_8c.html#a34ed6a235a826d96b4e3282b17865323" target="_top" xlink:title=" ">
<polygon fill="#fff0f0" stroke="red" points="655,-85.5 522,-85.5 522,-52 655,-52 655,-85.5"/>
<text xml:space="preserve" text-anchor="start" x="530" y="-72" font-family="Helvetica,sans-Serif" font-size="10.00">m_pipeline_create_fpga</text>
<text xml:space="preserve" text-anchor="middle" x="588.5" y="-59.25" font-family="Helvetica,sans-Serif" font-size="10.00">_transfer_batch</text>
</a>
</g>
</g>
<!-- Node3&#45;&gt;Node6 -->
<g id="edge5_Node000003_Node000006" class="edge">
<title>Node3&#45;&gt;Node6</title>
<g id="a_edge5_Node000003_Node000006"><a xlink:title=" ">
<path fill="none" stroke="#63b8ff" d="M462.08,-85.66C477.79,-83.54 494.64,-81.27 510.72,-79.1"/>
<polygon fill="#63b8ff" stroke="#63b8ff" points="510.76,-82.63 520.2,-77.82 509.83,-75.69 510.76,-82.63"/>
</a>
</g>
</g>
<!-- Node6&#45;&gt;Node4 -->
<g id="edge6_Node000006_Node000004" class="edge">
<title>Node6&#45;&gt;Node4</title>
<g id="a_edge6_Node000006_Node000004"><a xlink:title=" ">
<path fill="none" stroke="#63b8ff" d="M649.18,-85.94C668.36,-91.47 689.36,-97.52 707.64,-102.78"/>
<polygon fill="#63b8ff" stroke="#63b8ff" points="706.59,-106.12 717.17,-105.53 708.53,-99.4 706.59,-106.12"/>
</a>
</g>
</g>
<!-- Node32 -->
<g id="Node000032" class="node">
<title>Node32</title>
<g id="a_Node000032"><a xlink:href="m__representation_8c.html#a7739919401d0c7058bf04cc082a1b6d5" target="_top" xlink:title=" ">
<polygon fill="white" stroke="#666666" points="649.75,-33.5 527.25,-33.5 527.25,0 649.75,0 649.75,-33.5"/>
<text xml:space="preserve" text-anchor="start" x="535.25" y="-20" font-family="Helvetica,sans-Serif" font-size="10.00">queue_representation</text>
<text xml:space="preserve" text-anchor="middle" x="588.5" y="-7.25" font-family="Helvetica,sans-Serif" font-size="10.00">_list_update</text>
</a>
</g>
</g>
<!-- Node31&#45;&gt;Node32 -->
<g id="edge8_Node000031_Node000032" class="edge">
<title>Node31&#45;&gt;Node32</title>
<g id="a_edge8_Node000031_Node000032"><a xlink:title=" ">
<path fill="none" stroke="#63b8ff" d="M458.05,-38.9C476.5,-35.74 496.79,-32.27 515.72,-29.03"/>
<polygon fill="#63b8ff" stroke="#63b8ff" points="516.23,-32.49 525.5,-27.36 515.05,-25.6 516.23,-32.49"/>
</a>
</g>
</g>
<!-- Node33&#45;&gt;Node31 -->
<g id="edge10_Node000033_Node000031" class="edge">
<title>Node33&#45;&gt;Node31</title>
<g id="a_edge10_Node000033_Node000031"><a xlink:title=" ">
<path fill="none" stroke="#63b8ff" d="M266.48,-49.75C274.14,-49.75 282.13,-49.75 290.19,-49.75"/>
<polygon fill="#63b8ff" stroke="#63b8ff" points="290.09,-53.25 300.09,-49.75 290.09,-46.25 290.09,-53.25"/>
</a>
</g>
</g>
</g>
</svg>
