<?xml version="1.0" encoding="UTF-8" standalone="no"?>
<!DOCTYPE svg PUBLIC "-//W3C//DTD SVG 1.1//EN"
 "http://www.w3.org/Graphics/SVG/1.1/DTD/svg11.dtd">
<!-- Generated by graphviz version 13.1.2 (20250808.2320)
 -->
<!-- Title: m_context_add_profile Pages: 1 -->
<svg width="548pt" height="158pt"
 viewBox="0.00 0.00 548.00 158.00" xmlns="http://www.w3.org/2000/svg" xmlns:xlink="http://www.w3.org/1999/xlink">
<g id="graph0" class="graph" transform="scale(1 1) rotate(0) translate(4 154.12)">
<title>m_context_add_profile</title>
<!-- Node1 -->
<g id="Node000001" class="node">
<title>Node1</title>
<g id="a_Node000001"><a xlink:title=" ">
<polygon fill="#999999" stroke="#666666" points="127.75,-110.12 0,-110.12 0,-89.38 127.75,-89.38 127.75,-110.12"/>
<text xml:space="preserve" text-anchor="middle" x="63.88" y="-96.62" font-family="Helvetica,sans-Serif" font-size="10.00">m_context_add_profile</text>
</a>
</g>
</g>
<!-- Node2 -->
<g id="Node000002" class="node">
<title>Node2</title>
<g id="a_Node000002"><a xlink:href="$m__profile_8c.html#a924661c699938ec0a5887d77760265e8" xlink:title=" ">
<polygon fill="white" stroke="#666666" points="241.62,-140.12 169.38,-140.12 169.38,-119.38 241.62,-119.38 241.62,-140.12"/>
<text xml:space="preserve" text-anchor="middle" x="205.5" y="-126.62" font-family="Helvetica,sans-Serif" font-size="10.00">free_profile</text>
</a>
</g>
</g>
<!-- Node1&#45;&gt;Node2 -->
<g id="edge1_Node000001_Node000002" class="edge">
<title>Node1&#45;&gt;Node2</title>
<g id="a_edge1_Node000001_Node000002"><a xlink:title=" ">
<path fill="none" stroke="#63b8ff" d="M115.28,-110.58C129.2,-113.57 144.23,-116.8 157.91,-119.74"/>
<polygon fill="#63b8ff" stroke="#63b8ff" points="157.05,-123.13 167.56,-121.81 158.52,-116.29 157.05,-123.13"/>
</a>
</g>
</g>
<!-- Node12 -->
<g id="Node000012" class="node">
<title>Node12</title>
<g id="a_Node000012"><a xlink:href="$m__profile_8c.html#ab73797729c3c2878fcbc0e8eb3a3b1d1" xlink:title=" ">
<polygon fill="white" stroke="#666666" points="247.25,-91.12 163.75,-91.12 163.75,-70.38 247.25,-70.38 247.25,-91.12"/>
<text xml:space="preserve" text-anchor="middle" x="205.5" y="-77.62" font-family="Helvetica,sans-Serif" font-size="10.00">init_m_profile</text>
</a>
</g>
</g>
<!-- Node1&#45;&gt;Node12 -->
<g id="edge4_Node000001_Node000012" class="edge">
<title>Node1&#45;&gt;Node12</title>
<g id="a_edge4_Node000001_Node000012"><a xlink:title=" ">
<path fill="none" stroke="#63b8ff" d="M128.15,-91.14C136.2,-90.04 144.36,-88.93 152.21,-87.87"/>
<polygon fill="#63b8ff" stroke="#63b8ff" points="152.5,-91.36 161.93,-86.54 151.55,-84.42 152.5,-91.36"/>
</a>
</g>
</g>
<!-- Node3 -->
<g id="Node000003" class="node">
<title>Node3</title>
<g id="a_Node000003"><a xlink:href="$m__profile_8c.html#accc7093440aeddb4d1ba24e393451061" xlink:title=" ">
<polygon fill="white" stroke="#666666" points="369.75,-150.12 301.25,-150.12 301.25,-129.38 369.75,-129.38 369.75,-150.12"/>
<text xml:space="preserve" text-anchor="middle" x="335.5" y="-136.62" font-family="Helvetica,sans-Serif" font-size="10.00">gut_profile</text>
</a>
</g>
</g>
<!-- Node2&#45;&gt;Node3 -->
<g id="edge2_Node000002_Node000003" class="edge">
<title>Node2&#45;&gt;Node3</title>
<g id="a_edge2_Node000002_Node000003"><a xlink:title=" ">
<path fill="none" stroke="#63b8ff" d="M241.82,-132.51C256.7,-133.67 274.2,-135.04 289.96,-136.27"/>
<polygon fill="#63b8ff" stroke="#63b8ff" points="289.31,-139.73 299.55,-137.02 289.86,-132.75 289.31,-139.73"/>
</a>
</g>
</g>
<!-- Node4 -->
<g id="Node000004" class="node">
<title>Node4</title>
<g id="a_Node000004"><a xlink:href="$m__pipeline_8c.html#a7290514b79b5386d9e30893c685c5018" xlink:title=" ">
<polygon fill="#fff0f0" stroke="red" points="519.62,-150.12 443.62,-150.12 443.62,-129.38 519.62,-129.38 519.62,-150.12"/>
<text xml:space="preserve" text-anchor="middle" x="481.62" y="-136.62" font-family="Helvetica,sans-Serif" font-size="10.00">gut_pipeline</text>
</a>
</g>
</g>
<!-- Node3&#45;&gt;Node4 -->
<g id="edge3_Node000003_Node000004" class="edge">
<title>Node3&#45;&gt;Node4</title>
<g id="a_edge3_Node000003_Node000004"><a xlink:title=" ">
<path fill="none" stroke="#63b8ff" d="M369.93,-139.75C388.36,-139.75 411.59,-139.75 432,-139.75"/>
<polygon fill="#63b8ff" stroke="#63b8ff" points="431.81,-143.25 441.81,-139.75 431.81,-136.25 431.81,-143.25"/>
</a>
</g>
</g>
<!-- Node13 -->
<g id="Node000013" class="node">
<title>Node13</title>
<g id="a_Node000013"><a xlink:href="$m__pipeline_8c.html#af5d9778a56a1d8845d0a8e15f9584bd7" xlink:title=" ">
<polygon fill="white" stroke="#666666" points="381,-111.12 290,-111.12 290,-90.38 381,-90.38 381,-111.12"/>
<text xml:space="preserve" text-anchor="middle" x="335.5" y="-97.62" font-family="Helvetica,sans-Serif" font-size="10.00">init_m_pipeline</text>
</a>
</g>
</g>
<!-- Node12&#45;&gt;Node13 -->
<g id="edge5_Node000012_Node000013" class="edge">
<title>Node12&#45;&gt;Node13</title>
<g id="a_edge5_Node000012_Node000013"><a xlink:title=" ">
<path fill="none" stroke="#63b8ff" d="M247.7,-87.19C257.58,-88.73 268.29,-90.4 278.7,-92.03"/>
<polygon fill="#63b8ff" stroke="#63b8ff" points="277.92,-95.45 288.34,-93.54 279,-88.54 277.92,-95.45"/>
</a>
</g>
</g>
<!-- Node14 -->
<g id="Node000014" class="node">
<title>Node14</title>
<g id="a_Node000014"><a xlink:href="$m__parameter_8c.html#a6920b520347a79341c052f23878c6d2a" xlink:title=" ">
<polygon fill="white" stroke="#666666" points="379.5,-72.12 291.5,-72.12 291.5,-51.38 379.5,-51.38 379.5,-72.12"/>
<text xml:space="preserve" text-anchor="middle" x="335.5" y="-58.62" font-family="Helvetica,sans-Serif" font-size="10.00">init_parameter</text>
</a>
</g>
</g>
<!-- Node12&#45;&gt;Node14 -->
<g id="edge6_Node000012_Node000014" class="edge">
<title>Node12&#45;&gt;Node14</title>
<g id="a_edge6_Node000012_Node000014"><a xlink:title=" ">
<path fill="none" stroke="#63b8ff" d="M247.7,-74.63C258.01,-73.1 269.22,-71.44 280.06,-69.83"/>
<polygon fill="#63b8ff" stroke="#63b8ff" points="280.29,-73.33 289.67,-68.4 279.27,-66.41 280.29,-73.33"/>
</a>
</g>
</g>
<!-- Node18 -->
<g id="Node000018" class="node">
<title>Node18</title>
<g id="a_Node000018"><a xlink:href="$m__profile_8c.html#afa367fbc737a45369449f963fde361b6" xlink:title=" ">
<polygon fill="white" stroke="#666666" points="387.75,-33.5 283.25,-33.5 283.25,0 387.75,0 387.75,-33.5"/>
<text xml:space="preserve" text-anchor="start" x="291.25" y="-20" font-family="Helvetica,sans-Serif" font-size="10.00">m_profile_file_rep</text>
<text xml:space="preserve" text-anchor="middle" x="335.5" y="-7.25" font-family="Helvetica,sans-Serif" font-size="10.00">_update</text>
</a>
</g>
</g>
<!-- Node12&#45;&gt;Node18 -->
<g id="edge8_Node000012_Node000018" class="edge">
<title>Node12&#45;&gt;Node18</title>
<g id="a_edge8_Node000012_Node000018"><a xlink:title=" ">
<path fill="none" stroke="#63b8ff" d="M228.21,-69.89C245.05,-61.47 268.97,-49.52 289.85,-39.08"/>
<polygon fill="#63b8ff" stroke="#63b8ff" points="291.39,-42.22 298.77,-34.62 288.26,-35.96 291.39,-42.22"/>
</a>
</g>
</g>
<!-- Node15 -->
<g id="Node000015" class="node">
<title>Node15</title>
<g id="a_Node000015"><a xlink:href="$m__parameter_8c.html#a6c029c4379be052a826c3a78b8dd1513" xlink:title=" ">
<polygon fill="#fff0f0" stroke="red" points="539.5,-78.5 423.75,-78.5 423.75,-45 539.5,-45 539.5,-78.5"/>
<text xml:space="preserve" text-anchor="start" x="431.75" y="-65" font-family="Helvetica,sans-Serif" font-size="10.00">m_parameter_effect</text>
<text xml:space="preserve" text-anchor="middle" x="481.62" y="-52.25" font-family="Helvetica,sans-Serif" font-size="10.00">_rep_update</text>
</a>
</g>
</g>
<!-- Node14&#45;&gt;Node15 -->
<g id="edge7_Node000014_Node000015" class="edge">
<title>Node14&#45;&gt;Node15</title>
<g id="a_edge7_Node000014_Node000015"><a xlink:title=" ">
<path fill="none" stroke="#63b8ff" d="M379.74,-61.75C389.9,-61.75 400.96,-61.75 411.93,-61.75"/>
<polygon fill="#63b8ff" stroke="#63b8ff" points="411.76,-65.25 421.76,-61.75 411.76,-58.25 411.76,-65.25"/>
</a>
</g>
</g>
<!-- Node19 -->
<g id="Node000019" class="node">
<title>Node19</title>
<g id="a_Node000019"><a xlink:href="$m__files_8c.html#af05d2dbfb9a9b37f20141d551b81cbb9" xlink:title=" ">
<polygon fill="#fff0f0" stroke="red" points="519.62,-27.12 443.62,-27.12 443.62,-6.38 519.62,-6.38 519.62,-27.12"/>
<text xml:space="preserve" text-anchor="middle" x="481.62" y="-13.62" font-family="Helvetica,sans-Serif" font-size="10.00">save_profile</text>
</a>
</g>
</g>
<!-- Node18&#45;&gt;Node19 -->
<g id="edge9_Node000018_Node000019" class="edge">
<title>Node18&#45;&gt;Node19</title>
<g id="a_edge9_Node000018_Node000019"><a xlink:title=" ">
<path fill="none" stroke="#63b8ff" d="M388.13,-16.75C402.39,-16.75 417.81,-16.75 431.9,-16.75"/>
<polygon fill="#63b8ff" stroke="#63b8ff" points="431.86,-20.25 441.86,-16.75 431.86,-13.25 431.86,-20.25"/>
</a>
</g>
</g>
</g>
</svg>
