<?xml version="1.0" encoding="UTF-8" standalone="no"?>
<!DOCTYPE svg PUBLIC "-//W3C//DTD SVG 1.1//EN"
 "http://www.w3.org/Graphics/SVG/1.1/DTD/svg11.dtd">
<!-- Generated by graphviz version 13.1.2 (20250808.2320)
 -->
<!-- Title: main_task Pages: 1 -->
<svg width="605pt" height="1126pt"
 viewBox="0.00 0.00 605.00 1126.00" xmlns="http://www.w3.org/2000/svg" xmlns:xlink="http://www.w3.org/1999/xlink">
<g id="graph0" class="graph" transform="scale(1 1) rotate(0) translate(4 1122.12)">
<title>main_task</title>
<!-- Node1 -->
<g id="Node000001" class="node">
<title>Node1</title>
<g id="a_Node000001"><a xlink:title=" ">
<polygon fill="#999999" stroke="#666666" points="67,-293.75 0,-293.75 0,-273 67,-273 67,-293.75"/>
<text xml:space="preserve" text-anchor="middle" x="33.5" y="-280.25" font-family="Helvetica,sans-Serif" font-size="10.00">main_task</text>
</a>
</g>
</g>
<!-- Node2 -->
<g id="Node000002" class="node">
<title>Node2</title>
<g id="a_Node000002"><a xlink:href="$m__effect__select_8c.html#a7a22359cacc5666788778cf4f0178157" xlink:title=" ">
<polygon fill="white" stroke="#666666" points="238.62,-1014.75 110.12,-1014.75 110.12,-994 238.62,-994 238.62,-1014.75"/>
<text xml:space="preserve" text-anchor="middle" x="174.38" y="-1001.25" font-family="Helvetica,sans-Serif" font-size="10.00">init_effect_selector_eff</text>
</a>
</g>
</g>
<!-- Node1&#45;&gt;Node2 -->
<g id="edge1_Node000001_Node000002" class="edge">
<title>Node1&#45;&gt;Node2</title>
<g id="a_edge1_Node000001_Node000002"><a xlink:title=" ">
<path fill="none" stroke="#63b8ff" d="M34.56,-294C35.14,-369.28 41.19,-822.5 103,-942.38 112.49,-960.78 129.91,-976.19 145.05,-987.05"/>
<polygon fill="#63b8ff" stroke="#63b8ff" points="143.07,-989.94 153.31,-992.66 147,-984.15 143.07,-989.94"/>
</a>
</g>
</g>
<!-- Node165 -->
<g id="Node000165" class="node">
<title>Node165</title>
<g id="a_Node000165"><a xlink:href="$m__files_8c.html#a20fd21ea829052e437025652fdf783ed" xlink:title=" ">
<polygon fill="white" stroke="#666666" points="212.38,-791.75 136.38,-791.75 136.38,-771 212.38,-771 212.38,-791.75"/>
<text xml:space="preserve" text-anchor="middle" x="174.38" y="-778.25" font-family="Helvetica,sans-Serif" font-size="10.00">load_effects</text>
</a>
</g>
</g>
<!-- Node1&#45;&gt;Node165 -->
<g id="edge6_Node000001_Node000165" class="edge">
<title>Node1&#45;&gt;Node165</title>
<g id="a_edge6_Node000001_Node000165"><a xlink:title=" ">
<path fill="none" stroke="#63b8ff" d="M35.65,-294.15C40.46,-337.41 60.74,-502.34 103,-631.38 118.81,-679.64 146.29,-732.68 161.82,-760.95"/>
<polygon fill="#63b8ff" stroke="#63b8ff" points="158.66,-762.47 166.58,-769.51 164.78,-759.07 158.66,-762.47"/>
</a>
</g>
</g>
<!-- Node46 -->
<g id="Node000046" class="node">
<title>Node46</title>
<g id="a_Node000046"><a xlink:href="$m__error__codes_8c.html#a5298df5c7af3a6aac90c055a615b171a" xlink:title=" ">
<polygon fill="white" stroke="#666666" points="597.25,-900.75 466.5,-900.75 466.5,-880 597.25,-880 597.25,-900.75"/>
<text xml:space="preserve" text-anchor="middle" x="531.88" y="-887.25" font-family="Helvetica,sans-Serif" font-size="10.00">m_error_code_to_string</text>
</a>
</g>
</g>
<!-- Node1&#45;&gt;Node46 -->
<g id="edge41_Node000001_Node000046" class="edge">
<title>Node1&#45;&gt;Node46</title>
<g id="a_edge41_Node000001_Node000046"><a xlink:title=" ">
<path fill="none" stroke="#63b8ff" d="M34.68,-293.83C35.99,-359.27 45.66,-712.38 103,-800.38 153.8,-878.34 192.17,-884.22 281.75,-909.38 349.5,-928.4 431.43,-915.68 482.36,-903.81"/>
<polygon fill="#63b8ff" stroke="#63b8ff" points="482.99,-907.26 491.89,-901.51 481.35,-900.46 482.99,-907.26"/>
</a>
</g>
</g>
<!-- Node289 -->
<g id="Node000289" class="node">
<title>Node289</title>
<g id="a_Node000289"><a xlink:href="$m__files_8c.html#a8785e4c0fd9fa9638385ef725fe13adb" xlink:title=" ">
<polygon fill="white" stroke="#666666" points="231.12,-622.75 117.62,-622.75 117.62,-602 231.12,-602 231.12,-622.75"/>
<text xml:space="preserve" text-anchor="middle" x="174.38" y="-609.25" font-family="Helvetica,sans-Serif" font-size="10.00">load_saved_profiles</text>
</a>
</g>
</g>
<!-- Node1&#45;&gt;Node289 -->
<g id="edge13_Node000001_Node000289" class="edge">
<title>Node1&#45;&gt;Node289</title>
<g id="a_edge13_Node000001_Node000289"><a xlink:title=" ">
<path fill="none" stroke="#63b8ff" d="M36.28,-294.07C42.21,-328.03 63.19,-435.87 103,-516.38 117.28,-545.24 140.25,-574.54 156.04,-593.04"/>
<polygon fill="#63b8ff" stroke="#63b8ff" points="153.36,-595.29 162.57,-600.54 158.64,-590.7 153.36,-595.29"/>
</a>
</g>
</g>
<!-- Node353 -->
<g id="Node000353" class="node">
<title>Node353</title>
<g id="a_Node000353"><a xlink:href="$m__files_8c.html#a818849f86d2816c2e9a60229f5f103c1" xlink:title=" ">
<polygon fill="white" stroke="#666666" points="238.62,-430.75 110.12,-430.75 110.12,-410 238.62,-410 238.62,-430.75"/>
<text xml:space="preserve" text-anchor="middle" x="174.38" y="-417.25" font-family="Helvetica,sans-Serif" font-size="10.00">load_saved_sequences</text>
</a>
</g>
</g>
<!-- Node1&#45;&gt;Node353 -->
<g id="edge21_Node000001_Node000353" class="edge">
<title>Node1&#45;&gt;Node353</title>
<g id="a_edge21_Node000001_Node000353"><a xlink:title=" ">
<path fill="none" stroke="#63b8ff" d="M45.4,-294.13C69.03,-317.43 125.21,-372.86 154.65,-401.9"/>
<polygon fill="#63b8ff" stroke="#63b8ff" points="151.87,-404.08 161.45,-408.61 156.79,-399.1 151.87,-404.08"/>
</a>
</g>
</g>
<!-- Node394 -->
<g id="Node000394" class="node">
<title>Node394</title>
<g id="a_Node000394"><a xlink:href="$m__files_8c.html#a42a31fc3110de45960dd88975c2f9f35" xlink:title=" ">
<polygon fill="white" stroke="#666666" points="232.62,-507.75 116.12,-507.75 116.12,-487 232.62,-487 232.62,-507.75"/>
<text xml:space="preserve" text-anchor="middle" x="174.38" y="-494.25" font-family="Helvetica,sans-Serif" font-size="10.00">load_state_from_file</text>
</a>
</g>
</g>
<!-- Node1&#45;&gt;Node394 -->
<g id="edge29_Node000001_Node000394" class="edge">
<title>Node1&#45;&gt;Node394</title>
<g id="a_edge29_Node000001_Node000394"><a xlink:title=" ">
<path fill="none" stroke="#63b8ff" d="M37.32,-294.11C44.71,-320.76 66.6,-391.25 103,-439.38 115.03,-455.28 132.25,-469.57 146.65,-479.99"/>
<polygon fill="#63b8ff" stroke="#63b8ff" points="144.62,-482.84 154.83,-485.69 148.63,-477.1 144.62,-482.84"/>
</a>
</g>
</g>
<!-- Node395 -->
<g id="Node000395" class="node">
<title>Node395</title>
<g id="a_Node000395"><a xlink:href="$m__context_8c.html#a895da8836c6805532fdf6c59211ad1d4" xlink:title=" ">
<polygon fill="white" stroke="#666666" points="245.75,-293.75 103,-293.75 103,-273 245.75,-273 245.75,-293.75"/>
<text xml:space="preserve" text-anchor="middle" x="174.38" y="-280.25" font-family="Helvetica,sans-Serif" font-size="10.00">m_context_init_effect_list</text>
</a>
</g>
</g>
<!-- Node1&#45;&gt;Node395 -->
<g id="edge31_Node000001_Node000395" class="edge">
<title>Node1&#45;&gt;Node395</title>
<g id="a_edge31_Node000001_Node000395"><a xlink:title=" ">
<path fill="none" stroke="#63b8ff" d="M67.41,-283.38C74.75,-283.38 82.84,-283.38 91.19,-283.38"/>
<polygon fill="#63b8ff" stroke="#63b8ff" points="91.17,-286.88 101.17,-283.38 91.17,-279.88 91.17,-286.88"/>
</a>
</g>
</g>
<!-- Node396 -->
<g id="Node000396" class="node">
<title>Node396</title>
<g id="a_Node000396"><a xlink:href="$m__ui_8c.html#a254d997b6187265df4f77635526d7517" xlink:title=" ">
<polygon fill="white" stroke="#666666" points="212.38,-254.75 136.38,-254.75 136.38,-234 212.38,-234 212.38,-254.75"/>
<text xml:space="preserve" text-anchor="middle" x="174.38" y="-241.25" font-family="Helvetica,sans-Serif" font-size="10.00">m_create_ui</text>
</a>
</g>
</g>
<!-- Node1&#45;&gt;Node396 -->
<g id="edge32_Node000001_Node000396" class="edge">
<title>Node1&#45;&gt;Node396</title>
<g id="a_edge32_Node000001_Node000396"><a xlink:title=" ">
<path fill="none" stroke="#63b8ff" d="M67.41,-274.13C84.71,-269.27 106.24,-263.23 125.36,-257.86"/>
<polygon fill="#63b8ff" stroke="#63b8ff" points="126.15,-261.27 134.84,-255.2 124.26,-254.53 126.15,-261.27"/>
</a>
</g>
</g>
<!-- Node427 -->
<g id="Node000427" class="node">
<title>Node427</title>
<g id="a_Node000427"><a xlink:href="$m__state_8c.html#ade70c4c59f1b52e6ccd2f2a5c63559a9" xlink:title=" ">
<polygon fill="white" stroke="#666666" points="232.25,-332.75 116.5,-332.75 116.5,-312 232.25,-312 232.25,-332.75"/>
<text xml:space="preserve" text-anchor="middle" x="174.38" y="-319.25" font-family="Helvetica,sans-Serif" font-size="10.00">m_cxt_restore_state</text>
</a>
</g>
</g>
<!-- Node1&#45;&gt;Node427 -->
<g id="edge36_Node000001_Node000427" class="edge">
<title>Node1&#45;&gt;Node427</title>
<g id="a_edge36_Node000001_Node000427"><a xlink:title=" ">
<path fill="none" stroke="#63b8ff" d="M67.41,-292.62C84.23,-297.34 105.04,-303.19 123.76,-308.44"/>
<polygon fill="#63b8ff" stroke="#63b8ff" points="122.76,-311.8 133.33,-311.13 124.65,-305.06 122.76,-311.8"/>
</a>
</g>
</g>
<!-- Node430 -->
<g id="Node000430" class="node">
<title>Node430</title>
<g id="a_Node000430"><a xlink:href="$m__fpga__comms_8c.html#abfe39a66ff3496fa4bbb972c7ce434c0" xlink:title=" ">
<polygon fill="#fff0f0" stroke="red" points="234.5,-215.75 114.25,-215.75 114.25,-195 234.5,-195 234.5,-215.75"/>
<text xml:space="preserve" text-anchor="middle" x="174.38" y="-202.25" font-family="Helvetica,sans-Serif" font-size="10.00">m_fpga_comms_task</text>
</a>
</g>
</g>
<!-- Node1&#45;&gt;Node430 -->
<g id="edge42_Node000001_Node000430" class="edge">
<title>Node1&#45;&gt;Node430</title>
<g id="a_edge42_Node000001_Node000430"><a xlink:title=" ">
<path fill="none" stroke="#63b8ff" d="M44.15,-272.81C56.56,-259.83 79.35,-237.98 103,-225.38 106.63,-223.44 110.47,-221.67 114.41,-220.06"/>
<polygon fill="#63b8ff" stroke="#63b8ff" points="115.39,-223.43 123.56,-216.69 112.97,-216.86 115.39,-223.43"/>
</a>
</g>
</g>
<!-- Node447 -->
<g id="Node000447" class="node">
<title>Node447</title>
<g id="a_Node000447"><a xlink:href="$m__context_8c.html#a7e3116adcd8ee17698788b7d17a46018" xlink:title=" ">
<polygon fill="#fff0f0" stroke="red" points="218.75,-176.75 130,-176.75 130,-156 218.75,-156 218.75,-176.75"/>
<text xml:space="preserve" text-anchor="middle" x="174.38" y="-163.25" font-family="Helvetica,sans-Serif" font-size="10.00">m_init_context</text>
</a>
</g>
</g>
<!-- Node1&#45;&gt;Node447 -->
<g id="edge43_Node000001_Node000447" class="edge">
<title>Node1&#45;&gt;Node447</title>
<g id="a_edge43_Node000001_Node000447"><a xlink:title=" ">
<path fill="none" stroke="#63b8ff" d="M39.15,-272.51C48.32,-252.38 70.7,-209.26 103,-186.38 107.92,-182.89 113.44,-180 119.17,-177.62"/>
<polygon fill="#63b8ff" stroke="#63b8ff" points="119.96,-181.06 128.18,-174.37 117.59,-174.47 119.96,-181.06"/>
</a>
</g>
</g>
<!-- Node456 -->
<g id="Node000456" class="node">
<title>Node456</title>
<g id="a_Node000456"><a xlink:href="$m__files_8c.html#a148a60f96de7c38db3e92a7d777f8d29" xlink:title=" ">
<polygon fill="white" stroke="#666666" points="226.25,-137.75 122.5,-137.75 122.5,-117 226.25,-117 226.25,-137.75"/>
<text xml:space="preserve" text-anchor="middle" x="174.38" y="-124.25" font-family="Helvetica,sans-Serif" font-size="10.00">m_init_directories</text>
</a>
</g>
</g>
<!-- Node1&#45;&gt;Node456 -->
<g id="edge44_Node000001_Node000456" class="edge">
<title>Node1&#45;&gt;Node456</title>
<g id="a_edge44_Node000001_Node000456"><a xlink:title=" ">
<path fill="none" stroke="#63b8ff" d="M36.77,-272.7C42.8,-247.05 61.63,-181.56 103,-147.38 105.7,-145.14 108.64,-143.16 111.73,-141.39"/>
<polygon fill="#63b8ff" stroke="#63b8ff" points="113.15,-144.6 120.66,-137.13 110.13,-138.28 113.15,-144.6"/>
</a>
</g>
</g>
<!-- Node457 -->
<g id="Node000457" class="node">
<title>Node457</title>
<g id="a_Node000457"><a xlink:href="$m__ui_8c.html#a7a44c202906b5429286d990bb9374567" xlink:title=" ">
<polygon fill="#fff0f0" stroke="red" points="232.62,-98.75 116.12,-98.75 116.12,-78 232.62,-78 232.62,-98.75"/>
<text xml:space="preserve" text-anchor="middle" x="174.38" y="-85.25" font-family="Helvetica,sans-Serif" font-size="10.00">m_init_global_pages</text>
</a>
</g>
</g>
<!-- Node1&#45;&gt;Node457 -->
<g id="edge45_Node000001_Node000457" class="edge">
<title>Node1&#45;&gt;Node457</title>
<g id="a_edge45_Node000001_Node000457"><a xlink:title=" ">
<path fill="none" stroke="#63b8ff" d="M35.43,-272.92C38.68,-242.69 52.28,-154.44 103,-108.38 104.26,-107.23 105.59,-106.15 106.96,-105.13"/>
<polygon fill="#63b8ff" stroke="#63b8ff" points="108.65,-108.2 115.39,-100.03 105.02,-102.21 108.65,-108.2"/>
</a>
</g>
</g>
<!-- Node490 -->
<g id="Node000490" class="node">
<title>Node490</title>
<g id="a_Node000490"><a xlink:href="$m__param__update_8h.html#a6efb4cf51d40b0f7a299614c786b3950" xlink:title=" ">
<polygon fill="white" stroke="#666666" points="238.25,-59.75 110.5,-59.75 110.5,-39 238.25,-39 238.25,-59.75"/>
<text xml:space="preserve" text-anchor="middle" x="174.38" y="-46.25" font-family="Helvetica,sans-Serif" font-size="10.00">m_param_update_task</text>
</a>
</g>
</g>
<!-- Node1&#45;&gt;Node490 -->
<g id="edge46_Node000001_Node000490" class="edge">
<title>Node1&#45;&gt;Node490</title>
<g id="a_edge46_Node000001_Node000490"><a xlink:title=" ">
<path fill="none" stroke="#63b8ff" d="M34.58,-272.67C35.45,-237.96 43.01,-127.43 103,-69.38 104.2,-68.22 105.46,-67.12 106.77,-66.09"/>
<polygon fill="#63b8ff" stroke="#63b8ff" points="108.26,-69.29 114.82,-60.97 104.5,-63.39 108.26,-69.29"/>
</a>
</g>
</g>
<!-- Node491 -->
<g id="Node000491" class="node">
<title>Node491</title>
<g id="a_Node000491"><a xlink:href="$m__printf_8c.html#aa77694235a6c4ad5fd4571acf2461138" xlink:title=" ">
<polygon fill="white" stroke="#666666" points="213.5,-20.75 135.25,-20.75 135.25,0 213.5,0 213.5,-20.75"/>
<text xml:space="preserve" text-anchor="middle" x="174.38" y="-7.25" font-family="Helvetica,sans-Serif" font-size="10.00">m_printf_init</text>
</a>
</g>
</g>
<!-- Node1&#45;&gt;Node491 -->
<g id="edge47_Node000001_Node000491" class="edge">
<title>Node1&#45;&gt;Node491</title>
<g id="a_edge47_Node000001_Node000491"><a xlink:title=" ">
<path fill="none" stroke="#63b8ff" d="M33.96,-272.71C32.64,-234.18 33.45,-100.8 103,-30.38 108.83,-24.47 116.26,-20.28 124.11,-17.31"/>
<polygon fill="#63b8ff" stroke="#63b8ff" points="124.97,-20.71 133.5,-14.42 122.91,-14.02 124.97,-20.71"/>
</a>
</g>
</g>
<!-- Node3 -->
<g id="Node000003" class="node">
<title>Node3</title>
<g id="a_Node000003"><a xlink:href="$m__effect__select_8c.html#ab05aa27f2f08f5ee0e82ef9222f17361" xlink:title=" ">
<polygon fill="#fff0f0" stroke="red" points="418.5,-1066.12 293.75,-1066.12 293.75,-1032.62 418.5,-1032.62 418.5,-1066.12"/>
<text xml:space="preserve" text-anchor="start" x="301.75" y="-1052.62" font-family="Helvetica,sans-Serif" font-size="10.00">create_effect_selector</text>
<text xml:space="preserve" text-anchor="middle" x="356.12" y="-1039.88" font-family="Helvetica,sans-Serif" font-size="10.00">_ui_eff</text>
</a>
</g>
</g>
<!-- Node2&#45;&gt;Node3 -->
<g id="edge2_Node000002_Node000003" class="edge">
<title>Node2&#45;&gt;Node3</title>
<g id="a_edge2_Node000002_Node000003"><a xlink:title=" ">
<path fill="none" stroke="#63b8ff" d="M218.43,-1015.15C237.62,-1019.96 260.77,-1025.75 282.51,-1031.2"/>
<polygon fill="#63b8ff" stroke="#63b8ff" points="281.36,-1034.52 291.91,-1033.55 283.06,-1027.73 281.36,-1034.52"/>
</a>
</g>
</g>
<!-- Node162 -->
<g id="Node000162" class="node">
<title>Node162</title>
<g id="a_Node000162"><a xlink:href="$m__effect__select_8c.html#a64a407c55661894530102d592e9c2711" xlink:title=" ">
<polygon fill="white" stroke="#666666" points="415.88,-1014.75 296.38,-1014.75 296.38,-994 415.88,-994 415.88,-1014.75"/>
<text xml:space="preserve" text-anchor="middle" x="356.12" y="-1001.25" font-family="Helvetica,sans-Serif" font-size="10.00">enter_effect_selector</text>
</a>
</g>
</g>
<!-- Node2&#45;&gt;Node162 -->
<g id="edge3_Node000002_Node000162" class="edge">
<title>Node2&#45;&gt;Node162</title>
<g id="a_edge3_Node000002_Node000162"><a xlink:title=" ">
<path fill="none" stroke="#63b8ff" d="M239,-1004.38C253.81,-1004.38 269.66,-1004.38 284.74,-1004.38"/>
<polygon fill="#63b8ff" stroke="#63b8ff" points="284.58,-1007.88 294.58,-1004.38 284.58,-1000.88 284.58,-1007.88"/>
</a>
</g>
</g>
<!-- Node163 -->
<g id="Node000163" class="node">
<title>Node163</title>
<g id="a_Node000163"><a xlink:href="$m__effect__select_8c.html#ada62ab54fd6f7c19f4f5172dec4ff366" xlink:title=" ">
<polygon fill="white" stroke="#666666" points="413.62,-1118.12 298.62,-1118.12 298.62,-1084.62 413.62,-1084.62 413.62,-1118.12"/>
<text xml:space="preserve" text-anchor="start" x="306.62" y="-1104.62" font-family="Helvetica,sans-Serif" font-size="10.00">init_effect_selector</text>
<text xml:space="preserve" text-anchor="middle" x="356.12" y="-1091.88" font-family="Helvetica,sans-Serif" font-size="10.00">_button_from_effect</text>
</a>
</g>
</g>
<!-- Node2&#45;&gt;Node163 -->
<g id="edge4_Node000002_Node000163" class="edge">
<title>Node2&#45;&gt;Node163</title>
<g id="a_edge4_Node000002_Node000163"><a xlink:title=" ">
<path fill="none" stroke="#63b8ff" d="M189.14,-1015.2C208.79,-1030.26 246.42,-1057.67 281.75,-1075.38 284.79,-1076.9 287.95,-1078.38 291.16,-1079.8"/>
<polygon fill="#63b8ff" stroke="#63b8ff" points="289.6,-1082.94 300.18,-1083.57 292.3,-1076.48 289.6,-1082.94"/>
</a>
</g>
</g>
<!-- Node164 -->
<g id="Node000164" class="node">
<title>Node164</title>
<g id="a_Node000164"><a xlink:href="$m__ui_8c.html#af00906d3db4ae068f5cd832bb5052d83" xlink:title=" ">
<polygon fill="white" stroke="#666666" points="569.5,-957.75 494.25,-957.75 494.25,-937 569.5,-937 569.5,-957.75"/>
<text xml:space="preserve" text-anchor="middle" x="531.88" y="-944.25" font-family="Helvetica,sans-Serif" font-size="10.00">init_ui_page</text>
</a>
</g>
</g>
<!-- Node2&#45;&gt;Node164 -->
<g id="edge5_Node000002_Node000164" class="edge">
<title>Node2&#45;&gt;Node164</title>
<g id="a_edge5_Node000002_Node000164"><a xlink:title=" ">
<path fill="none" stroke="#63b8ff" d="M234.69,-993.51C250.01,-990.77 266.48,-987.9 281.75,-985.38 351.63,-973.81 432.75,-961.67 482.96,-954.32"/>
<polygon fill="#63b8ff" stroke="#63b8ff" points="483.22,-957.81 492.61,-952.9 482.21,-950.89 483.22,-957.81"/>
</a>
</g>
</g>
<!-- Node166 -->
<g id="Node000166" class="node">
<title>Node166</title>
<g id="a_Node000166"><a xlink:href="$m__files_8c.html#af2c9a5f230b9dd7908c5fbadd69e715e" xlink:title=" ">
<polygon fill="white" stroke="#666666" points="416.25,-603.75 296,-603.75 296,-583 416.25,-583 416.25,-603.75"/>
<text xml:space="preserve" text-anchor="middle" x="356.12" y="-590.25" font-family="Helvetica,sans-Serif" font-size="10.00">list_files_in_directory</text>
</a>
</g>
</g>
<!-- Node165&#45;&gt;Node166 -->
<g id="edge7_Node000165_Node000166" class="edge">
<title>Node165&#45;&gt;Node166</title>
<g id="a_edge7_Node000165_Node000166"><a xlink:title=" ">
<path fill="none" stroke="#63b8ff" d="M178.95,-770.8C189.54,-741.09 223.72,-656.24 281.75,-613.38 283.78,-611.88 285.91,-610.49 288.12,-609.21"/>
<polygon fill="#63b8ff" stroke="#63b8ff" points="289.46,-612.45 296.88,-604.9 286.37,-606.17 289.46,-612.45"/>
</a>
</g>
</g>
<!-- Node167 -->
<g id="Node000167" class="node">
<title>Node167</title>
<g id="a_Node000167"><a xlink:href="$m__eff__parser_8c.html#a1fd21ee54d95b5d2fb4535cf0dac0986" xlink:title=" ">
<polygon fill="#fff0f0" stroke="red" points="412.88,-824.12 299.38,-824.12 299.38,-790.62 412.88,-790.62 412.88,-824.12"/>
<text xml:space="preserve" text-anchor="start" x="307.38" y="-810.62" font-family="Helvetica,sans-Serif" font-size="10.00">m_eff_parser_deinit</text>
<text xml:space="preserve" text-anchor="middle" x="356.12" y="-797.88" font-family="Helvetica,sans-Serif" font-size="10.00">_mempool</text>
</a>
</g>
</g>
<!-- Node165&#45;&gt;Node167 -->
<g id="edge8_Node000165_Node000167" class="edge">
<title>Node165&#45;&gt;Node167</title>
<g id="a_edge8_Node000165_Node000167"><a xlink:title=" ">
<path fill="none" stroke="#63b8ff" d="M212.62,-786.76C234.39,-789.91 262.51,-793.98 288.02,-797.67"/>
<polygon fill="#63b8ff" stroke="#63b8ff" points="287.25,-801.09 297.64,-799.06 288.25,-794.17 287.25,-801.09"/>
</a>
</g>
</g>
<!-- Node169 -->
<g id="Node000169" class="node">
<title>Node169</title>
<g id="a_Node000169"><a xlink:href="$m__eff__parser_8c.html#a47fbc13c9c41c8f6f7e330aada19d746" xlink:title=" ">
<polygon fill="#fff0f0" stroke="red" points="411.38,-772.12 300.88,-772.12 300.88,-738.62 411.38,-738.62 411.38,-772.12"/>
<text xml:space="preserve" text-anchor="start" x="308.88" y="-758.62" font-family="Helvetica,sans-Serif" font-size="10.00">m_eff_parser_reset</text>
<text xml:space="preserve" text-anchor="middle" x="356.12" y="-745.88" font-family="Helvetica,sans-Serif" font-size="10.00">_mempool</text>
</a>
</g>
</g>
<!-- Node165&#45;&gt;Node169 -->
<g id="edge9_Node000165_Node000169" class="edge">
<title>Node165&#45;&gt;Node169</title>
<g id="a_edge9_Node000165_Node000169"><a xlink:title=" ">
<path fill="none" stroke="#63b8ff" d="M212.62,-775.99C234.74,-772.79 263.44,-768.64 289.28,-764.9"/>
<polygon fill="#63b8ff" stroke="#63b8ff" points="289.63,-768.38 299.03,-763.49 288.63,-761.46 289.63,-768.38"/>
</a>
</g>
</g>
<!-- Node165&#45;&gt;Node46 -->
<g id="edge10_Node000165_Node000046" class="edge">
<title>Node165&#45;&gt;Node46</title>
<g id="a_edge10_Node000165_Node000046"><a xlink:title=" ">
<path fill="none" stroke="#63b8ff" d="M194.02,-792.13C214.82,-803.74 249.77,-822.07 281.75,-833.38 315.12,-845.17 403.68,-864.41 465.67,-877.23"/>
<polygon fill="#63b8ff" stroke="#63b8ff" points="464.93,-880.65 475.43,-879.24 466.34,-873.79 464.93,-880.65"/>
</a>
</g>
</g>
<!-- Node171 -->
<g id="Node000171" class="node">
<title>Node171</title>
<g id="a_Node000171"><a xlink:href="$m__eff__parser_8c.html#aabfa1bb37d0bead1605fb10e348fe43c" xlink:title=" ">
<polygon fill="#fff0f0" stroke="red" points="430.5,-900.75 281.75,-900.75 281.75,-880 430.5,-880 430.5,-900.75"/>
<text xml:space="preserve" text-anchor="middle" x="356.12" y="-887.25" font-family="Helvetica,sans-Serif" font-size="10.00">m_read_eff_desc_from_file</text>
</a>
</g>
</g>
<!-- Node165&#45;&gt;Node171 -->
<g id="edge11_Node000165_Node000171" class="edge">
<title>Node165&#45;&gt;Node171</title>
<g id="a_edge11_Node000165_Node000171"><a xlink:title=" ">
<path fill="none" stroke="#63b8ff" d="M185.92,-791.99C204.02,-809.7 242.85,-845.37 281.75,-866.38 288.25,-869.89 295.35,-873 302.5,-875.72"/>
<polygon fill="#63b8ff" stroke="#63b8ff" points="301.28,-879 311.87,-879.04 303.62,-872.4 301.28,-879"/>
</a>
</g>
</g>
<!-- Node171&#45;&gt;Node46 -->
<g id="edge12_Node000171_Node000046" class="edge">
<title>Node171&#45;&gt;Node46</title>
<g id="a_edge12_Node000171_Node000046"><a xlink:title=" ">
<path fill="none" stroke="#63b8ff" d="M430.81,-890.38C438.7,-890.38 446.74,-890.38 454.66,-890.38"/>
<polygon fill="#63b8ff" stroke="#63b8ff" points="454.64,-893.88 464.64,-890.38 454.64,-886.88 454.64,-893.88"/>
</a>
</g>
</g>
<!-- Node289&#45;&gt;Node166 -->
<g id="edge18_Node000289_Node000166" class="edge">
<title>Node289&#45;&gt;Node166</title>
<g id="a_edge18_Node000289_Node000166"><a xlink:title=" ">
<path fill="none" stroke="#63b8ff" d="M231.26,-606.47C248,-604.7 266.59,-602.73 284.16,-600.88"/>
<polygon fill="#63b8ff" stroke="#63b8ff" points="284.45,-604.37 294.03,-599.83 283.71,-597.4 284.45,-604.37"/>
</a>
</g>
</g>
<!-- Node290 -->
<g id="Node000290" class="node">
<title>Node290</title>
<g id="a_Node000290"><a xlink:href="$m__profile__view_8c.html#aa40a3918b18bbfa3df5aa489d947258a" xlink:title=" ">
<polygon fill="#fff0f0" stroke="red" points="421.5,-720.75 290.75,-720.75 290.75,-700 421.5,-700 421.5,-720.75"/>
<text xml:space="preserve" text-anchor="middle" x="356.12" y="-707.25" font-family="Helvetica,sans-Serif" font-size="10.00">create_profile_view_for</text>
</a>
</g>
</g>
<!-- Node289&#45;&gt;Node290 -->
<g id="edge14_Node000289_Node000290" class="edge">
<title>Node289&#45;&gt;Node290</title>
<g id="a_edge14_Node000289_Node000290"><a xlink:title=" ">
<path fill="none" stroke="#63b8ff" d="M186.88,-623.07C205.45,-639.78 243.8,-672.07 281.75,-690.38 285.96,-692.41 290.42,-694.26 294.96,-695.95"/>
<polygon fill="#63b8ff" stroke="#63b8ff" points="293.64,-699.19 304.24,-699.09 295.89,-692.56 293.64,-699.19"/>
</a>
</g>
</g>
<!-- Node345 -->
<g id="Node000345" class="node">
<title>Node345</title>
<g id="a_Node000345"><a xlink:href="$m__profile_8c.html#a924661c699938ec0a5887d77760265e8" xlink:title=" ">
<polygon fill="#fff0f0" stroke="red" points="392.25,-642.75 320,-642.75 320,-622 392.25,-622 392.25,-642.75"/>
<text xml:space="preserve" text-anchor="middle" x="356.12" y="-629.25" font-family="Helvetica,sans-Serif" font-size="10.00">free_profile</text>
</a>
</g>
</g>
<!-- Node289&#45;&gt;Node345 -->
<g id="edge16_Node000289_Node000345" class="edge">
<title>Node289&#45;&gt;Node345</title>
<g id="a_edge16_Node000289_Node000345"><a xlink:title=" ">
<path fill="none" stroke="#63b8ff" d="M231.26,-618.59C256.06,-621.35 284.91,-624.56 308.52,-627.19"/>
<polygon fill="#63b8ff" stroke="#63b8ff" points="307.82,-630.63 318.15,-628.26 308.6,-623.68 307.82,-630.63"/>
</a>
</g>
</g>
<!-- Node348 -->
<g id="Node000348" class="node">
<title>Node348</title>
<g id="a_Node000348"><a xlink:href="$m__profile_8c.html#ab73797729c3c2878fcbc0e8eb3a3b1d1" xlink:title=" ">
<polygon fill="#fff0f0" stroke="red" points="397.88,-564.75 314.38,-564.75 314.38,-544 397.88,-544 397.88,-564.75"/>
<text xml:space="preserve" text-anchor="middle" x="356.12" y="-551.25" font-family="Helvetica,sans-Serif" font-size="10.00">init_m_profile</text>
</a>
</g>
</g>
<!-- Node289&#45;&gt;Node348 -->
<g id="edge17_Node000289_Node000348" class="edge">
<title>Node289&#45;&gt;Node348</title>
<g id="a_edge17_Node000289_Node000348"><a xlink:title=" ">
<path fill="none" stroke="#63b8ff" d="M203.62,-601.62C224.94,-593.66 255,-582.79 281.75,-574.38 288.69,-572.19 296.05,-570.02 303.31,-567.96"/>
<polygon fill="#63b8ff" stroke="#63b8ff" points="304.06,-571.39 312.75,-565.33 302.18,-564.64 304.06,-571.39"/>
</a>
</g>
</g>
<!-- Node351 -->
<g id="Node000351" class="node">
<title>Node351</title>
<g id="a_Node000351"><a xlink:href="$m__files_8c.html#aaedbe054d0c35b3489a1efd8231ba33f" xlink:title=" ">
<polygon fill="#fff0f0" stroke="red" points="418.12,-681.75 294.12,-681.75 294.12,-661 418.12,-661 418.12,-681.75"/>
<text xml:space="preserve" text-anchor="middle" x="356.12" y="-668.25" font-family="Helvetica,sans-Serif" font-size="10.00">read_profile_from_file</text>
</a>
</g>
</g>
<!-- Node289&#45;&gt;Node351 -->
<g id="edge19_Node000289_Node000351" class="edge">
<title>Node289&#45;&gt;Node351</title>
<g id="a_edge19_Node000289_Node000351"><a xlink:title=" ">
<path fill="none" stroke="#63b8ff" d="M202.7,-623.12C224.06,-631.35 254.58,-642.71 281.75,-651.38 288.35,-653.48 295.34,-655.57 302.26,-657.55"/>
<polygon fill="#63b8ff" stroke="#63b8ff" points="301.01,-660.83 311.58,-660.16 302.89,-654.09 301.01,-660.83"/>
</a>
</g>
</g>
<!-- Node290&#45;&gt;Node164 -->
<g id="edge15_Node000290_Node000164" class="edge">
<title>Node290&#45;&gt;Node164</title>
<g id="a_edge15_Node000290_Node000164"><a xlink:title=" ">
<path fill="none" stroke="#63b8ff" d="M420.03,-721.12C423.87,-723.4 427.43,-726.12 430.5,-729.38 486.55,-788.66 419.26,-842.86 466.5,-909.38 472.91,-918.41 482.21,-925.64 491.75,-931.27"/>
<polygon fill="#63b8ff" stroke="#63b8ff" points="489.86,-934.23 500.33,-935.85 493.16,-928.06 489.86,-934.23"/>
</a>
</g>
</g>
<!-- Node93 -->
<g id="Node000093" class="node">
<title>Node93</title>
<g id="a_Node000093"><a xlink:href="$m__files_8c.html#ab79d861306c25eab9284239e73d0cc07" xlink:title=" ">
<polygon fill="white" stroke="#666666" points="587.88,-526.75 475.88,-526.75 475.88,-506 587.88,-506 587.88,-526.75"/>
<text xml:space="preserve" text-anchor="middle" x="531.88" y="-513.25" font-family="Helvetica,sans-Serif" font-size="10.00">dump_file_contents</text>
</a>
</g>
</g>
<!-- Node351&#45;&gt;Node93 -->
<g id="edge20_Node000351_Node000093" class="edge">
<title>Node351&#45;&gt;Node93</title>
<g id="a_edge20_Node000351_Node000093"><a xlink:title=" ">
<path fill="none" stroke="#63b8ff" d="M412.6,-660.59C418.92,-658.13 425.05,-655.1 430.5,-651.38 473.93,-621.74 505.91,-567.04 521.07,-537.17"/>
<polygon fill="#63b8ff" stroke="#63b8ff" points="524.11,-538.92 525.38,-528.4 517.83,-535.83 524.11,-538.92"/>
</a>
</g>
</g>
<!-- Node353&#45;&gt;Node166 -->
<g id="edge25_Node000353_Node000166" class="edge">
<title>Node353&#45;&gt;Node166</title>
<g id="a_edge25_Node000353_Node000166"><a xlink:title=" ">
<path fill="none" stroke="#63b8ff" d="M193.22,-431.22C208.96,-441.59 231.55,-458.56 245.75,-478.38 272.05,-515.07 248.33,-543.02 281.75,-573.38 283.16,-574.66 284.65,-575.86 286.19,-576.98"/>
<polygon fill="#63b8ff" stroke="#63b8ff" points="283.96,-579.72 294.33,-581.85 287.55,-573.71 283.96,-579.72"/>
</a>
</g>
</g>
<!-- Node354 -->
<g id="Node000354" class="node">
<title>Node354</title>
<g id="a_Node000354"><a xlink:href="$m__sequence__view_8c.html#a4fa55191d58cc7d7c322e295288cabf4" xlink:title=" ">
<polygon fill="#fff0f0" stroke="red" points="429,-449.75 283.25,-449.75 283.25,-429 429,-429 429,-449.75"/>
<text xml:space="preserve" text-anchor="middle" x="356.12" y="-436.25" font-family="Helvetica,sans-Serif" font-size="10.00">create_sequence_view_for</text>
</a>
</g>
</g>
<!-- Node353&#45;&gt;Node354 -->
<g id="edge22_Node000353_Node000354" class="edge">
<title>Node353&#45;&gt;Node354</title>
<g id="a_edge22_Node000353_Node000354"><a xlink:title=" ">
<path fill="none" stroke="#63b8ff" d="M239,-427.1C249.57,-428.22 260.67,-429.39 271.64,-430.55"/>
<polygon fill="#63b8ff" stroke="#63b8ff" points="271.18,-434.02 281.5,-431.59 271.92,-427.06 271.18,-434.02"/>
</a>
</g>
</g>
<!-- Node386 -->
<g id="Node000386" class="node">
<title>Node386</title>
<g id="a_Node000386"><a xlink:href="$m__sequence_8c.html#a18fffaa87c5ec509ff4f7d86f8ccdb25" xlink:title=" ">
<polygon fill="white" stroke="#666666" points="399.75,-410.75 312.5,-410.75 312.5,-390 399.75,-390 399.75,-410.75"/>
<text xml:space="preserve" text-anchor="middle" x="356.12" y="-397.25" font-family="Helvetica,sans-Serif" font-size="10.00">free_sequence</text>
</a>
</g>
</g>
<!-- Node353&#45;&gt;Node386 -->
<g id="edge23_Node000353_Node000386" class="edge">
<title>Node353&#45;&gt;Node386</title>
<g id="a_edge23_Node000353_Node000386"><a xlink:title=" ">
<path fill="none" stroke="#63b8ff" d="M239,-413.3C259.17,-411.05 281.27,-408.59 300.73,-406.43"/>
<polygon fill="#63b8ff" stroke="#63b8ff" points="301.09,-409.91 310.64,-405.32 300.32,-402.95 301.09,-409.91"/>
</a>
</g>
</g>
<!-- Node387 -->
<g id="Node000387" class="node">
<title>Node387</title>
<g id="a_Node000387"><a xlink:href="$m__sequence_8c.html#a6de5f70fc053e402f5cb958b54e5929a" xlink:title=" ">
<polygon fill="#fff0f0" stroke="red" points="405.38,-488.75 306.88,-488.75 306.88,-468 405.38,-468 405.38,-488.75"/>
<text xml:space="preserve" text-anchor="middle" x="356.12" y="-475.25" font-family="Helvetica,sans-Serif" font-size="10.00">init_m_sequence</text>
</a>
</g>
</g>
<!-- Node353&#45;&gt;Node387 -->
<g id="edge24_Node000353_Node000387" class="edge">
<title>Node353&#45;&gt;Node387</title>
<g id="a_edge24_Node000353_Node000387"><a xlink:title=" ">
<path fill="none" stroke="#63b8ff" d="M203.62,-431.13C224.94,-439.09 255,-449.96 281.75,-458.38 288.36,-460.45 295.35,-462.52 302.28,-464.49"/>
<polygon fill="#63b8ff" stroke="#63b8ff" points="301.03,-467.78 311.6,-467.1 302.91,-461.04 301.03,-467.78"/>
</a>
</g>
</g>
<!-- Node389 -->
<g id="Node000389" class="node">
<title>Node389</title>
<g id="a_Node000389"><a xlink:href="$m__files_8c.html#a8da346d30dfa12117c7bec1add11153c" xlink:title=" ">
<polygon fill="#fff0f0" stroke="red" points="425.62,-371.75 286.62,-371.75 286.62,-351 425.62,-351 425.62,-371.75"/>
<text xml:space="preserve" text-anchor="middle" x="356.12" y="-358.25" font-family="Helvetica,sans-Serif" font-size="10.00">read_sequence_from_file</text>
</a>
</g>
</g>
<!-- Node353&#45;&gt;Node389 -->
<g id="edge26_Node000353_Node000389" class="edge">
<title>Node353&#45;&gt;Node389</title>
<g id="a_edge26_Node000353_Node000389"><a xlink:title=" ">
<path fill="none" stroke="#63b8ff" d="M202.7,-409.63C224.06,-401.4 254.58,-390.04 281.75,-381.38 288.35,-379.27 295.34,-377.18 302.26,-375.2"/>
<polygon fill="#63b8ff" stroke="#63b8ff" points="302.89,-378.66 311.58,-372.59 301.01,-371.92 302.89,-378.66"/>
</a>
</g>
</g>
<!-- Node389&#45;&gt;Node93 -->
<g id="edge28_Node000389_Node000093" class="edge">
<title>Node389&#45;&gt;Node93</title>
<g id="a_edge28_Node000389_Node000093"><a xlink:title=" ">
<path fill="none" stroke="#63b8ff" d="M412.6,-372.16C418.92,-374.62 425.05,-377.65 430.5,-381.38 473.93,-411.01 505.91,-465.71 521.07,-495.58"/>
<polygon fill="#63b8ff" stroke="#63b8ff" points="517.83,-496.92 525.38,-504.35 524.11,-493.83 517.83,-496.92"/>
</a>
</g>
</g>
<!-- Node390 -->
<g id="Node000390" class="node">
<title>Node390</title>
<g id="a_Node000390"><a xlink:href="$m__context_8c.html#a62b38743df25267e66764a3c60908af9" xlink:title=" ">
<polygon fill="#fff0f0" stroke="red" points="584.88,-314.12 478.88,-314.12 478.88,-280.62 584.88,-280.62 584.88,-314.12"/>
<text xml:space="preserve" text-anchor="start" x="486.88" y="-300.62" font-family="Helvetica,sans-Serif" font-size="10.00">cxt_get_profile_by</text>
<text xml:space="preserve" text-anchor="middle" x="531.88" y="-287.88" font-family="Helvetica,sans-Serif" font-size="10.00">_fname</text>
</a>
</g>
</g>
<!-- Node389&#45;&gt;Node390 -->
<g id="edge27_Node000389_Node000390" class="edge">
<title>Node389&#45;&gt;Node390</title>
<g id="a_edge27_Node000389_Node000390"><a xlink:title=" ">
<path fill="none" stroke="#63b8ff" d="M400.91,-350.57C410.73,-347.84 421.04,-344.72 430.5,-341.38 448.63,-334.97 468.08,-326.77 484.99,-319.19"/>
<polygon fill="#63b8ff" stroke="#63b8ff" points="486.12,-322.52 493.77,-315.19 483.22,-316.14 486.12,-322.52"/>
</a>
</g>
</g>
<!-- Node394&#45;&gt;Node93 -->
<g id="edge30_Node000394_Node000093" class="edge">
<title>Node394&#45;&gt;Node93</title>
<g id="a_edge30_Node000394_Node000093"><a xlink:title=" ">
<path fill="none" stroke="#63b8ff" d="M232.89,-500.45C296.14,-503.83 397.64,-509.25 464.29,-512.82"/>
<polygon fill="#63b8ff" stroke="#63b8ff" points="463.81,-516.3 473.98,-513.33 464.18,-509.31 463.81,-516.3"/>
</a>
</g>
</g>
<!-- Node397 -->
<g id="Node000397" class="node">
<title>Node397</title>
<g id="a_Node000397"><a xlink:href="$m__sequence__list_8c.html#a99eacbf422f3e13ac9eb7ea2aea8c404" xlink:title=" ">
<polygon fill="#fff0f0" stroke="red" points="423,-165.75 289.25,-165.75 289.25,-145 423,-145 423,-165.75"/>
<text xml:space="preserve" text-anchor="middle" x="356.12" y="-152.25" font-family="Helvetica,sans-Serif" font-size="10.00">configure_sequence_list</text>
</a>
</g>
</g>
<!-- Node396&#45;&gt;Node397 -->
<g id="edge33_Node000396_Node000397" class="edge">
<title>Node396&#45;&gt;Node397</title>
<g id="a_edge33_Node000396_Node000397"><a xlink:title=" ">
<path fill="none" stroke="#63b8ff" d="M212.84,-238.57C224.11,-235.6 236.05,-231.11 245.75,-224.38 267.95,-208.96 259.47,-190.67 281.75,-175.38 284.13,-173.74 286.64,-172.24 289.24,-170.86"/>
<polygon fill="#63b8ff" stroke="#63b8ff" points="290.6,-174.09 298.25,-166.75 287.7,-167.72 290.6,-174.09"/>
</a>
</g>
</g>
<!-- Node425 -->
<g id="Node000425" class="node">
<title>Node425</title>
<g id="a_Node000425"><a xlink:href="$m__ui_8c.html#a836b0eb3d4ebeda48927c9e0d5f238f5" xlink:title=" ">
<polygon fill="white" stroke="#666666" points="408.75,-126.75 303.5,-126.75 303.5,-106 408.75,-106 408.75,-126.75"/>
<text xml:space="preserve" text-anchor="middle" x="356.12" y="-113.25" font-family="Helvetica,sans-Serif" font-size="10.00">configure_ui_page</text>
</a>
</g>
</g>
<!-- Node396&#45;&gt;Node425 -->
<g id="edge34_Node000396_Node000425" class="edge">
<title>Node396&#45;&gt;Node425</title>
<g id="a_edge34_Node000396_Node000425"><a xlink:title=" ">
<path fill="none" stroke="#63b8ff" d="M212.83,-240.23C224.49,-237.35 236.66,-232.5 245.75,-224.38 277.25,-196.2 250.1,-164.37 281.75,-136.38 285.1,-133.41 288.85,-130.88 292.84,-128.72"/>
<polygon fill="#63b8ff" stroke="#63b8ff" points="294.08,-132 301.76,-124.7 291.2,-125.62 294.08,-132"/>
</a>
</g>
</g>
<!-- Node426 -->
<g id="Node000426" class="node">
<title>Node426</title>
<g id="a_Node000426"><a xlink:href="$m__ui_8c.html#a181dc230fd821201df943a17b3fc3d43" xlink:title=" ">
<polygon fill="#fff0f0" stroke="red" points="398.62,-87.75 313.62,-87.75 313.62,-67 398.62,-67 398.62,-87.75"/>
<text xml:space="preserve" text-anchor="middle" x="356.12" y="-74.25" font-family="Helvetica,sans-Serif" font-size="10.00">enter_ui_page</text>
</a>
</g>
</g>
<!-- Node396&#45;&gt;Node426 -->
<g id="edge35_Node000396_Node000426" class="edge">
<title>Node396&#45;&gt;Node426</title>
<g id="a_edge35_Node000396_Node000426"><a xlink:title=" ">
<path fill="none" stroke="#63b8ff" d="M212.65,-240.99C224.58,-238.17 236.95,-233.18 245.75,-224.38 287.22,-182.88 240.06,-138.65 281.75,-97.38 287.49,-91.69 294.68,-87.58 302.29,-84.62"/>
<polygon fill="#63b8ff" stroke="#63b8ff" points="303.32,-87.97 311.79,-81.61 301.2,-81.3 303.32,-87.97"/>
</a>
</g>
</g>
<!-- Node427&#45;&gt;Node390 -->
<g id="edge37_Node000427_Node000390" class="edge">
<title>Node427&#45;&gt;Node390</title>
<g id="a_edge37_Node000427_Node000390"><a xlink:title=" ">
<path fill="none" stroke="#63b8ff" d="M228.32,-311.65C234.49,-309.17 240.46,-306.12 245.75,-302.38 268.39,-286.33 257.12,-264.14 281.75,-251.38 349.52,-216.26 439.89,-249.89 491.08,-275.2"/>
<polygon fill="#63b8ff" stroke="#63b8ff" points="489.23,-278.19 499.73,-279.6 492.41,-271.95 489.23,-278.19"/>
</a>
</g>
</g>
<!-- Node428 -->
<g id="Node000428" class="node">
<title>Node428</title>
<g id="a_Node000428"><a xlink:href="$m__context_8c.html#a56f37a982eb709b820c47b27a75cf49d" xlink:title=" ">
<polygon fill="#fff0f0" stroke="red" points="417.38,-204.75 294.88,-204.75 294.88,-184 417.38,-184 417.38,-204.75"/>
<text xml:space="preserve" text-anchor="middle" x="356.12" y="-191.25" font-family="Helvetica,sans-Serif" font-size="10.00">m_cxt_set_input_gain</text>
</a>
</g>
</g>
<!-- Node427&#45;&gt;Node428 -->
<g id="edge38_Node000427_Node000428" class="edge">
<title>Node427&#45;&gt;Node428</title>
<g id="a_edge38_Node000427_Node000428"><a xlink:title=" ">
<path fill="none" stroke="#63b8ff" d="M231.59,-311.54C236.72,-309.08 241.55,-306.07 245.75,-302.38 276.25,-275.55 251.78,-245.79 281.75,-218.38 285.1,-215.31 288.85,-212.63 292.84,-210.3"/>
<polygon fill="#63b8ff" stroke="#63b8ff" points="294.39,-213.43 301.78,-205.84 291.27,-207.17 294.39,-213.43"/>
</a>
</g>
</g>
<!-- Node429 -->
<g id="Node000429" class="node">
<title>Node429</title>
<g id="a_Node000429"><a xlink:href="$m__context_8c.html#a4d574a06775c8b02111d19560d9d9253" xlink:title=" ">
<polygon fill="#fff0f0" stroke="red" points="420.75,-332.75 291.5,-332.75 291.5,-312 420.75,-312 420.75,-332.75"/>
<text xml:space="preserve" text-anchor="middle" x="356.12" y="-319.25" font-family="Helvetica,sans-Serif" font-size="10.00">m_cxt_set_output_gain</text>
</a>
</g>
</g>
<!-- Node427&#45;&gt;Node429 -->
<g id="edge39_Node000427_Node000429" class="edge">
<title>Node427&#45;&gt;Node429</title>
<g id="a_edge39_Node000427_Node000429"><a xlink:title=" ">
<path fill="none" stroke="#63b8ff" d="M232.74,-322.38C247.71,-322.38 264.06,-322.38 279.8,-322.38"/>
<polygon fill="#63b8ff" stroke="#63b8ff" points="279.62,-325.88 289.62,-322.38 279.62,-318.88 279.62,-325.88"/>
</a>
</g>
</g>
<!-- Node303 -->
<g id="Node000303" class="node">
<title>Node303</title>
<g id="a_Node000303"><a xlink:href="$m__context_8c.html#ad11e37db89017f7c070e386dfce0c1f1" xlink:title=" ">
<polygon fill="#fff0f0" stroke="red" points="407.62,-294.12 304.62,-294.12 304.62,-260.62 407.62,-260.62 407.62,-294.12"/>
<text xml:space="preserve" text-anchor="start" x="312.62" y="-280.62" font-family="Helvetica,sans-Serif" font-size="10.00">set_active_profile</text>
<text xml:space="preserve" text-anchor="middle" x="356.12" y="-267.88" font-family="Helvetica,sans-Serif" font-size="10.00">_from_sequence</text>
</a>
</g>
</g>
<!-- Node427&#45;&gt;Node303 -->
<g id="edge40_Node000427_Node000303" class="edge">
<title>Node427&#45;&gt;Node303</title>
<g id="a_edge40_Node000427_Node000303"><a xlink:title=" ">
<path fill="none" stroke="#63b8ff" d="M218.43,-311.6C240.86,-305.98 268.68,-299.02 293.36,-292.84"/>
<polygon fill="#63b8ff" stroke="#63b8ff" points="294.13,-296.25 302.98,-290.43 292.43,-289.46 294.13,-296.25"/>
</a>
</g>
</g>
</g>
</svg>
