<?xml version="1.0" encoding="UTF-8" standalone="no"?>
<!DOCTYPE svg PUBLIC "-//W3C//DTD SVG 1.1//EN"
 "http://www.w3.org/Graphics/SVG/1.1/DTD/svg11.dtd">
<!-- Generated by graphviz version 13.1.2 (20250808.2320)
 -->
<!-- Title: m_dictionary_lookup_str Pages: 1 -->
<svg width="983pt" height="219pt"
 viewBox="0.00 0.00 983.00 219.00" xmlns="http://www.w3.org/2000/svg" xmlns:xlink="http://www.w3.org/1999/xlink">
<g id="graph0" class="graph" transform="scale(1 1) rotate(0) translate(4 215.02)">
<title>m_dictionary_lookup_str</title>
<!-- Node1 -->
<g id="Node000001" class="node">
<title>Node1</title>
<g id="a_Node000001"><a xlink:title=" ">
<polygon fill="#999999" stroke="#666666" points="975,-124.12 839,-124.12 839,-103.38 975,-103.38 975,-124.12"/>
<text xml:space="preserve" text-anchor="middle" x="907" y="-110.62" font-family="Helvetica,sans-Serif" font-size="10.00">m_dictionary_lookup_str</text>
</a>
</g>
</g>
<!-- Node2 -->
<g id="Node000002" class="node">
<title>Node2</title>
<g id="a_Node000002"><a xlink:href="m__eff__section_8c.html#a35c0fad1697fcc671194ccb8246adcf3" target="_top" xlink:title=" ">
<polygon fill="white" stroke="#666666" points="440.25,-205.5 320,-205.5 320,-172 440.25,-172 440.25,-205.5"/>
<text xml:space="preserve" text-anchor="start" x="328" y="-192" font-family="Helvetica,sans-Serif" font-size="10.00">m_dictionary_section</text>
<text xml:space="preserve" text-anchor="middle" x="380.12" y="-179.25" font-family="Helvetica,sans-Serif" font-size="10.00">_lookup_str</text>
</a>
</g>
</g>
<!-- Node1&#45;&gt;Node2 -->
<g id="edge1_Node000001_Node000002" class="edge">
<title>Node1&#45;&gt;Node2</title>
<g id="a_edge1_Node000001_Node000002"><a xlink:title=" ">
<path fill="none" stroke="#63b8ff" d="M886.97,-132.17C867.62,-149.51 835.89,-174.34 803,-184.75 678.87,-224.03 523.73,-210.69 440.49,-198.87"/>
<polygon fill="#63b8ff" stroke="#63b8ff" points="889.1,-134.96 894.07,-125.61 884.35,-129.82 889.1,-134.96"/>
</a>
</g>
</g>
<!-- Node9 -->
<g id="Node000009" class="node">
<title>Node9</title>
<g id="a_Node000009"><a xlink:href="m__dict__extract_8c.html#a85578d13a917417e98159c2f4e1990d0" target="_top" xlink:title=" ">
<polygon fill="white" stroke="#666666" points="803,-175.5 672.25,-175.5 672.25,-142 803,-142 803,-175.5"/>
<text xml:space="preserve" text-anchor="start" x="680.25" y="-162" font-family="Helvetica,sans-Serif" font-size="10.00">m_extract_bool_setting</text>
<text xml:space="preserve" text-anchor="middle" x="737.62" y="-149.25" font-family="Helvetica,sans-Serif" font-size="10.00">_from_dict</text>
</a>
</g>
</g>
<!-- Node1&#45;&gt;Node9 -->
<g id="edge4_Node000001_Node000009" class="edge">
<title>Node1&#45;&gt;Node9</title>
<g id="a_edge4_Node000001_Node000009"><a xlink:title=" ">
<path fill="none" stroke="#63b8ff" d="M854.85,-127.5C838.36,-131.94 819.87,-136.91 802.57,-141.56"/>
<polygon fill="#63b8ff" stroke="#63b8ff" points="855.7,-130.9 864.45,-124.92 853.88,-124.14 855.7,-130.9"/>
</a>
</g>
</g>
<!-- Node10 -->
<g id="Node000010" class="node">
<title>Node10</title>
<g id="a_Node000010"><a xlink:href="m__dict__extract_8c.html#a2c927aa00cbc38a960601717ff0f44b6" target="_top" xlink:title=" ">
<polygon fill="white" stroke="#666666" points="636.25,-131.12 480,-131.12 480,-110.38 636.25,-110.38 636.25,-131.12"/>
<text xml:space="preserve" text-anchor="middle" x="558.12" y="-117.62" font-family="Helvetica,sans-Serif" font-size="10.00">m_extract_setting_from_dict</text>
</a>
</g>
</g>
<!-- Node1&#45;&gt;Node10 -->
<g id="edge14_Node000001_Node000010" class="edge">
<title>Node1&#45;&gt;Node10</title>
<g id="a_edge14_Node000001_Node000010"><a xlink:title=" ">
<path fill="none" stroke="#63b8ff" d="M827.2,-115.34C770.1,-116.49 693.29,-118.04 636.52,-119.19"/>
<polygon fill="#63b8ff" stroke="#63b8ff" points="827.27,-118.84 837.19,-115.14 827.13,-111.84 827.27,-118.84"/>
</a>
</g>
</g>
<!-- Node12 -->
<g id="Node000012" class="node">
<title>Node12</title>
<g id="a_Node000012"><a xlink:href="m__dict__extract_8c.html#a512a86a4320cc6c6530498bce7242815" target="_top" xlink:title=" ">
<polygon fill="white" stroke="#666666" points="798.5,-85.5 676.75,-85.5 676.75,-52 798.5,-52 798.5,-85.5"/>
<text xml:space="preserve" text-anchor="start" x="684.75" y="-72" font-family="Helvetica,sans-Serif" font-size="10.00">m_extract_parameter</text>
<text xml:space="preserve" text-anchor="middle" x="737.62" y="-59.25" font-family="Helvetica,sans-Serif" font-size="10.00">_from_dict</text>
</a>
</g>
</g>
<!-- Node1&#45;&gt;Node12 -->
<g id="edge8_Node000001_Node000012" class="edge">
<title>Node1&#45;&gt;Node12</title>
<g id="a_edge8_Node000001_Node000012"><a xlink:title=" ">
<path fill="none" stroke="#63b8ff" d="M854.91,-100.01C837.16,-95.24 817.09,-89.85 798.68,-84.9"/>
<polygon fill="#63b8ff" stroke="#63b8ff" points="853.88,-103.36 864.45,-102.58 855.7,-96.6 853.88,-103.36"/>
</a>
</g>
</g>
<!-- Node14 -->
<g id="Node000014" class="node">
<title>Node14</title>
<g id="a_Node000014"><a xlink:href="m__dict__extract_8c.html#a069397786520b282cda9d640959dd47e" target="_top" xlink:title=" ">
<polygon fill="white" stroke="#666666" points="794,-33.5 681.25,-33.5 681.25,0 794,0 794,-33.5"/>
<text xml:space="preserve" text-anchor="start" x="689.25" y="-20" font-family="Helvetica,sans-Serif" font-size="10.00">m_extract_resource</text>
<text xml:space="preserve" text-anchor="middle" x="737.62" y="-7.25" font-family="Helvetica,sans-Serif" font-size="10.00">_from_dict</text>
</a>
</g>
</g>
<!-- Node1&#45;&gt;Node14 -->
<g id="edge11_Node000001_Node000014" class="edge">
<title>Node1&#45;&gt;Node14</title>
<g id="a_edge11_Node000001_Node000014"><a xlink:title=" ">
<path fill="none" stroke="#63b8ff" d="M883.59,-96.16C863.32,-80.77 832.26,-58.49 803,-42.75 797.16,-39.61 790.86,-36.62 784.57,-33.86"/>
<polygon fill="#63b8ff" stroke="#63b8ff" points="881.36,-98.85 891.42,-102.17 885.63,-93.3 881.36,-98.85"/>
</a>
</g>
</g>
<!-- Node3 -->
<g id="Node000003" class="node">
<title>Node3</title>
<g id="a_Node000003"><a xlink:href="m__eff__parser_8c.html#a094727fab3d645bca2ba21a44ecc5749" target="_top" xlink:title=" ">
<polygon fill="white" stroke="#666666" points="280.25,-105.12 184.75,-105.12 184.75,-84.38 280.25,-84.38 280.25,-105.12"/>
<text xml:space="preserve" text-anchor="middle" x="232.5" y="-91.62" font-family="Helvetica,sans-Serif" font-size="10.00">m_parse_tokens</text>
</a>
</g>
</g>
<!-- Node2&#45;&gt;Node3 -->
<g id="edge2_Node000002_Node000003" class="edge">
<title>Node2&#45;&gt;Node3</title>
<g id="a_edge2_Node000002_Node000003"><a xlink:title=" ">
<path fill="none" stroke="#63b8ff" d="M342.81,-165.31C313.11,-146.14 272.5,-119.92 250.07,-105.45"/>
<polygon fill="#63b8ff" stroke="#63b8ff" points="340.84,-168.21 351.14,-170.69 344.64,-162.32 340.84,-168.21"/>
</a>
</g>
</g>
<!-- Node4 -->
<g id="Node000004" class="node">
<title>Node4</title>
<g id="a_Node000004"><a xlink:href="m__eff__parser_8c.html#aabfa1bb37d0bead1605fb10e348fe43c" target="_top" xlink:title=" ">
<polygon fill="#fff0f0" stroke="red" points="148.75,-105.12 0,-105.12 0,-84.38 148.75,-84.38 148.75,-105.12"/>
<text xml:space="preserve" text-anchor="middle" x="74.38" y="-91.62" font-family="Helvetica,sans-Serif" font-size="10.00">m_read_eff_desc_from_file</text>
</a>
</g>
</g>
<!-- Node3&#45;&gt;Node4 -->
<g id="edge3_Node000003_Node000004" class="edge">
<title>Node3&#45;&gt;Node4</title>
<g id="a_edge3_Node000003_Node000004"><a xlink:title=" ">
<path fill="none" stroke="#63b8ff" d="M173.31,-94.75C165.4,-94.75 157.19,-94.75 149.05,-94.75"/>
<polygon fill="#63b8ff" stroke="#63b8ff" points="173.14,-98.25 183.14,-94.75 173.14,-91.25 173.14,-98.25"/>
</a>
</g>
</g>
<!-- Node9&#45;&gt;Node10 -->
<g id="edge5_Node000009_Node000010" class="edge">
<title>Node9&#45;&gt;Node10</title>
<g id="a_edge5_Node000009_Node000010"><a xlink:title=" ">
<path fill="none" stroke="#63b8ff" d="M660.64,-142.48C643.5,-138.81 625.7,-135 609.89,-131.62"/>
<polygon fill="#63b8ff" stroke="#63b8ff" points="659.8,-145.88 670.31,-144.55 661.26,-139.04 659.8,-145.88"/>
</a>
</g>
</g>
<!-- Node11 -->
<g id="Node000011" class="node">
<title>Node11</title>
<g id="a_Node000011"><a xlink:href="m__eff__section_8c.html#a9697c17a9fd076c0112f8b1942c63ce4" target="_top" xlink:title=" ">
<polygon fill="white" stroke="#666666" points="435.38,-137.5 324.88,-137.5 324.88,-104 435.38,-104 435.38,-137.5"/>
<text xml:space="preserve" text-anchor="start" x="332.88" y="-124" font-family="Helvetica,sans-Serif" font-size="10.00">m_settings_section</text>
<text xml:space="preserve" text-anchor="middle" x="380.12" y="-111.25" font-family="Helvetica,sans-Serif" font-size="10.00">_extract</text>
</a>
</g>
</g>
<!-- Node10&#45;&gt;Node11 -->
<g id="edge6_Node000010_Node000011" class="edge">
<title>Node10&#45;&gt;Node11</title>
<g id="a_edge6_Node000010_Node000011"><a xlink:title=" ">
<path fill="none" stroke="#63b8ff" d="M468.49,-120.75C457.28,-120.75 446.09,-120.75 435.63,-120.75"/>
<polygon fill="#63b8ff" stroke="#63b8ff" points="468.16,-124.25 478.16,-120.75 468.16,-117.25 468.16,-124.25"/>
</a>
</g>
</g>
<!-- Node11&#45;&gt;Node3 -->
<g id="edge7_Node000011_Node000003" class="edge">
<title>Node11&#45;&gt;Node3</title>
<g id="a_edge7_Node000011_Node000003"><a xlink:title=" ">
<path fill="none" stroke="#63b8ff" d="M313.44,-109.02C302.27,-107.03 290.88,-105 280.33,-103.11"/>
<polygon fill="#63b8ff" stroke="#63b8ff" points="312.54,-112.42 323,-110.73 313.77,-105.53 312.54,-112.42"/>
</a>
</g>
</g>
<!-- Node13 -->
<g id="Node000013" class="node">
<title>Node13</title>
<g id="a_Node000013"><a xlink:href="m__eff__section_8c.html#ae18b8b0c3138c9b2f19ece218da82271" target="_top" xlink:title=" ">
<polygon fill="white" stroke="#666666" points="444,-85.5 316.25,-85.5 316.25,-52 444,-52 444,-85.5"/>
<text xml:space="preserve" text-anchor="start" x="324.25" y="-72" font-family="Helvetica,sans-Serif" font-size="10.00">m_parameters_section</text>
<text xml:space="preserve" text-anchor="middle" x="380.12" y="-59.25" font-family="Helvetica,sans-Serif" font-size="10.00">_extract</text>
</a>
</g>
</g>
<!-- Node12&#45;&gt;Node13 -->
<g id="edge9_Node000012_Node000013" class="edge">
<title>Node12&#45;&gt;Node13</title>
<g id="a_edge9_Node000012_Node000013"><a xlink:title=" ">
<path fill="none" stroke="#63b8ff" d="M665.02,-68.75C600.42,-68.75 506.32,-68.75 444.43,-68.75"/>
<polygon fill="#63b8ff" stroke="#63b8ff" points="664.81,-72.25 674.81,-68.75 664.81,-65.25 664.81,-72.25"/>
</a>
</g>
</g>
<!-- Node13&#45;&gt;Node3 -->
<g id="edge10_Node000013_Node000003" class="edge">
<title>Node13&#45;&gt;Node3</title>
<g id="a_edge10_Node000013_Node000003"><a xlink:title=" ">
<path fill="none" stroke="#63b8ff" d="M304.79,-82.02C296.48,-83.51 288.2,-84.98 280.38,-86.38"/>
<polygon fill="#63b8ff" stroke="#63b8ff" points="305.38,-85.47 314.61,-80.27 304.15,-78.58 305.38,-85.47"/>
</a>
</g>
</g>
<!-- Node15 -->
<g id="Node000015" class="node">
<title>Node15</title>
<g id="a_Node000015"><a xlink:href="m__eff__section_8c.html#a799182d83a38eb2816e5610e8d89e8e6" target="_top" xlink:title=" ">
<polygon fill="white" stroke="#666666" points="617.5,-35.5 498.75,-35.5 498.75,-2 617.5,-2 617.5,-35.5"/>
<text xml:space="preserve" text-anchor="start" x="506.75" y="-22" font-family="Helvetica,sans-Serif" font-size="10.00">m_resources_section</text>
<text xml:space="preserve" text-anchor="middle" x="558.12" y="-9.25" font-family="Helvetica,sans-Serif" font-size="10.00">_extract</text>
</a>
</g>
</g>
<!-- Node14&#45;&gt;Node15 -->
<g id="edge12_Node000014_Node000015" class="edge">
<title>Node14&#45;&gt;Node15</title>
<g id="a_edge12_Node000014_Node000015"><a xlink:title=" ">
<path fill="none" stroke="#63b8ff" d="M669.44,-17.51C652.51,-17.7 634.46,-17.9 617.98,-18.09"/>
<polygon fill="#63b8ff" stroke="#63b8ff" points="669.48,-21.01 679.44,-17.39 669.4,-14.01 669.48,-21.01"/>
</a>
</g>
</g>
<!-- Node15&#45;&gt;Node3 -->
<g id="edge13_Node000015_Node000003" class="edge">
<title>Node15&#45;&gt;Node3</title>
<g id="a_edge13_Node000015_Node000003"><a xlink:title=" ">
<path fill="none" stroke="#63b8ff" d="M487.15,-17.33C438.09,-18.34 371.64,-23.77 316.25,-42.75 289.12,-52.05 261.75,-71.73 246.28,-84.04"/>
<polygon fill="#63b8ff" stroke="#63b8ff" points="487.14,-20.83 497.09,-17.19 487.04,-13.83 487.14,-20.83"/>
</a>
</g>
</g>
</g>
</svg>
