<?xml version="1.0" encoding="UTF-8" standalone="no"?>
<!DOCTYPE svg PUBLIC "-//W3C//DTD SVG 1.1//EN"
 "http://www.w3.org/Graphics/SVG/1.1/DTD/svg11.dtd">
<!-- Generated by graphviz version 13.1.2 (20250808.2320)
 -->
<!-- Title: m_parse_dict_val Pages: 1 -->
<svg width="817pt" height="772pt"
 viewBox="0.00 0.00 817.00 772.00" xmlns="http://www.w3.org/2000/svg" xmlns:xlink="http://www.w3.org/1999/xlink">
<g id="graph0" class="graph" transform="scale(1 1) rotate(0) translate(4 768.35)">
<title>m_parse_dict_val</title>
<!-- Node1 -->
<g id="Node000001" class="node">
<title>Node1</title>
<g id="a_Node000001"><a xlink:title=" ">
<polygon fill="#999999" stroke="#666666" points="101.5,-582.12 0,-582.12 0,-561.38 101.5,-561.38 101.5,-582.12"/>
<text xml:space="preserve" text-anchor="middle" x="50.75" y="-568.62" font-family="Helvetica,sans-Serif" font-size="10.00">m_parse_dict_val</text>
</a>
</g>
</g>
<!-- Node2 -->
<g id="Node000002" class="node">
<title>Node2</title>
<g id="a_Node000002"><a xlink:href="m__dictionary_8c.html#ab52fc5ead828b21f765fdd2819fac663" target="_top" xlink:title=" ">
<polygon fill="white" stroke="#666666" points="251.75,-582.12 139.75,-582.12 139.75,-561.38 251.75,-561.38 251.75,-582.12"/>
<text xml:space="preserve" text-anchor="middle" x="195.75" y="-568.62" font-family="Helvetica,sans-Serif" font-size="10.00">m_parse_dictionary</text>
</a>
</g>
</g>
<!-- Node1&#45;&gt;Node2 -->
<g id="edge1_Node000001_Node000002" class="edge">
<title>Node1&#45;&gt;Node2</title>
<g id="a_edge1_Node000001_Node000002"><a xlink:title=" ">
<path fill="none" stroke="#63b8ff" d="M101.76,-565.28C110.37,-565.05 119.44,-564.96 128.4,-565.02"/>
<polygon fill="#63b8ff" stroke="#63b8ff" points="128.08,-568.51 138.13,-565.14 128.17,-561.51 128.08,-568.51"/>
</a>
</g>
</g>
<!-- Node14 -->
<g id="Node000014" class="node">
<title>Node14</title>
<g id="a_Node000014"><a xlink:href="m__eff__parser_8c.html#aa0883b2173df2a97fcb2597b7a483197" target="_top" xlink:title=" ">
<polygon fill="white" stroke="#666666" points="408.75,-750.12 305,-750.12 305,-729.38 408.75,-729.38 408.75,-750.12"/>
<text xml:space="preserve" text-anchor="middle" x="356.88" y="-736.62" font-family="Helvetica,sans-Serif" font-size="10.00">m_parser_strndup</text>
</a>
</g>
</g>
<!-- Node1&#45;&gt;Node14 -->
<g id="edge39_Node000001_Node000014" class="edge">
<title>Node1&#45;&gt;Node14</title>
<g id="a_edge39_Node000001_Node000014"><a xlink:title=" ">
<path fill="none" stroke="#63b8ff" d="M66.05,-582.52C101.95,-609.12 199.51,-678.76 290,-719.75 294.29,-721.69 298.81,-723.51 303.4,-725.2"/>
<polygon fill="#63b8ff" stroke="#63b8ff" points="302.13,-728.46 312.72,-728.39 304.4,-721.84 302.13,-728.46"/>
</a>
</g>
</g>
<!-- Node20 -->
<g id="Node000020" class="node">
<title>Node20</title>
<g id="a_Node000020"><a xlink:href="m__expr__parser_8c.html#af2a49578710f5e5b4f4c3339992ba0c9" target="_top" xlink:title=" ">
<polygon fill="white" stroke="#666666" points="254,-460.12 137.5,-460.12 137.5,-439.38 254,-439.38 254,-460.12"/>
<text xml:space="preserve" text-anchor="middle" x="195.75" y="-446.62" font-family="Helvetica,sans-Serif" font-size="10.00">m_parse_expression</text>
</a>
</g>
</g>
<!-- Node1&#45;&gt;Node20 -->
<g id="edge20_Node000001_Node000020" class="edge">
<title>Node1&#45;&gt;Node20</title>
<g id="a_edge20_Node000001_Node000020"><a xlink:title=" ">
<path fill="none" stroke="#63b8ff" d="M64.44,-560.92C89.09,-539.89 143.68,-493.32 173.79,-467.63"/>
<polygon fill="#63b8ff" stroke="#63b8ff" points="175.8,-470.51 181.14,-461.36 171.26,-465.19 175.8,-470.51"/>
</a>
</g>
</g>
<!-- Node39 -->
<g id="Node000039" class="node">
<title>Node39</title>
<g id="a_Node000039"><a xlink:href="m__tokenizer_8c.html#a771250b5b92e15569b913f03fecc1fb2" target="_top" xlink:title=" ">
<polygon fill="white" stroke="#666666" points="251,-421.5 140.5,-421.5 140.5,-388 251,-388 251,-421.5"/>
<text xml:space="preserve" text-anchor="start" x="148.5" y="-408" font-family="Helvetica,sans-Serif" font-size="10.00">token_is_dict_entry</text>
<text xml:space="preserve" text-anchor="middle" x="195.75" y="-395.25" font-family="Helvetica,sans-Serif" font-size="10.00">_seperator</text>
</a>
</g>
</g>
<!-- Node1&#45;&gt;Node39 -->
<g id="edge40_Node000001_Node000039" class="edge">
<title>Node1&#45;&gt;Node39</title>
<g id="a_edge40_Node000001_Node000039"><a xlink:title=" ">
<path fill="none" stroke="#63b8ff" d="M55.66,-561.08C65.56,-535.39 93.98,-469.33 137.5,-430.75 138.42,-429.94 139.37,-429.14 140.34,-428.37"/>
<polygon fill="#63b8ff" stroke="#63b8ff" points="142.15,-431.37 148.43,-422.84 138.2,-425.6 142.15,-431.37"/>
</a>
</g>
</g>
<!-- Node2&#45;&gt;Node1 -->
<g id="edge9_Node000002_Node000001" class="edge">
<title>Node2&#45;&gt;Node1</title>
<g id="a_edge9_Node000002_Node000001"><a xlink:title=" ">
<path fill="none" stroke="#63b8ff" d="M139.64,-578.34C130.97,-578.51 121.97,-578.55 113.17,-578.44"/>
<polygon fill="#63b8ff" stroke="#63b8ff" points="113.34,-574.94 103.28,-578.25 113.21,-581.94 113.34,-574.94"/>
</a>
</g>
</g>
<!-- Node3 -->
<g id="Node000003" class="node">
<title>Node3</title>
<g id="a_Node000003"><a xlink:href="m__dictionary_8c.html#a9c9ebc18b5141af3f6c0485edbf89aa1" target="_top" xlink:title=" ">
<polygon fill="white" stroke="#666666" points="423.75,-659.12 290,-659.12 290,-638.38 423.75,-638.38 423.75,-659.12"/>
<text xml:space="preserve" text-anchor="middle" x="356.88" y="-645.62" font-family="Helvetica,sans-Serif" font-size="10.00">m_dictionary_add_entry</text>
</a>
</g>
</g>
<!-- Node2&#45;&gt;Node3 -->
<g id="edge2_Node000002_Node000003" class="edge">
<title>Node2&#45;&gt;Node3</title>
<g id="a_edge2_Node000002_Node000003"><a xlink:title=" ">
<path fill="none" stroke="#63b8ff" d="M211.6,-582.48C229.48,-594.99 260.74,-615.62 290,-628.75 294.48,-630.76 299.21,-632.64 304.01,-634.37"/>
<polygon fill="#63b8ff" stroke="#63b8ff" points="302.49,-637.56 313.09,-637.47 304.75,-630.93 302.49,-637.56"/>
</a>
</g>
</g>
<!-- Node9 -->
<g id="Node000009" class="node">
<title>Node9</title>
<g id="a_Node000009"><a xlink:href="m__dictionary_8c.html#a10416b1580a1b0e1723bcc1c7cf1aeb8" target="_top" xlink:title=" ">
<polygon fill="white" stroke="#666666" points="409.5,-711.12 304.25,-711.12 304.25,-690.38 409.5,-690.38 409.5,-711.12"/>
<text xml:space="preserve" text-anchor="middle" x="356.88" y="-697.62" font-family="Helvetica,sans-Serif" font-size="10.00">m_new_dictionary</text>
</a>
</g>
</g>
<!-- Node2&#45;&gt;Node9 -->
<g id="edge6_Node000002_Node000009" class="edge">
<title>Node2&#45;&gt;Node9</title>
<g id="a_edge6_Node000002_Node000009"><a xlink:title=" ">
<path fill="none" stroke="#63b8ff" d="M205.05,-582.4C220.27,-601.42 254.38,-641.66 290,-667.75 298.87,-674.24 309.2,-680.1 319.02,-685.01"/>
<polygon fill="#63b8ff" stroke="#63b8ff" points="317.48,-688.15 328.01,-689.3 320.5,-681.83 317.48,-688.15"/>
</a>
</g>
</g>
<!-- Node11 -->
<g id="Node000011" class="node">
<title>Node11</title>
<g id="a_Node000011"><a xlink:href="m__eff__parser_8c.html#a77da914b5a0089754c8679fa7c96fb50" target="_top" xlink:title=" ">
<polygon fill="white" stroke="#666666" points="402,-505.12 311.75,-505.12 311.75,-484.38 402,-484.38 402,-505.12"/>
<text xml:space="preserve" text-anchor="middle" x="356.88" y="-491.62" font-family="Helvetica,sans-Serif" font-size="10.00">m_parser_error</text>
</a>
</g>
</g>
<!-- Node2&#45;&gt;Node11 -->
<g id="edge10_Node000002_Node000011" class="edge">
<title>Node2&#45;&gt;Node11</title>
<g id="a_edge10_Node000002_Node000011"><a xlink:title=" ">
<path fill="none" stroke="#63b8ff" d="M211.6,-561.02C229.48,-548.51 260.74,-527.88 290,-514.75 294.48,-512.74 299.21,-510.86 304.01,-509.13"/>
<polygon fill="#63b8ff" stroke="#63b8ff" points="304.75,-512.57 313.09,-506.03 302.49,-505.94 304.75,-512.57"/>
</a>
</g>
</g>
<!-- Node12 -->
<g id="Node000012" class="node">
<title>Node12</title>
<g id="a_Node000012"><a xlink:href="m__eff__parser_8c.html#a8541f46b6f93163d1fcb065bd26c7a36" target="_top" xlink:title=" ">
<polygon fill="white" stroke="#666666" points="593.12,-27.12 487.88,-27.12 487.88,-6.38 593.12,-6.38 593.12,-27.12"/>
<text xml:space="preserve" text-anchor="middle" x="540.5" y="-13.62" font-family="Helvetica,sans-Serif" font-size="10.00">m_parser_error_at</text>
</a>
</g>
</g>
<!-- Node2&#45;&gt;Node12 -->
<g id="edge11_Node000002_Node000012" class="edge">
<title>Node2&#45;&gt;Node12</title>
<g id="a_edge11_Node000002_Node000012"><a xlink:title=" ">
<path fill="none" stroke="#63b8ff" d="M204.5,-560.94C217.06,-542.82 241.72,-504.77 254,-468.75 288.54,-367.5 237.39,-323.9 290,-230.75 327.99,-163.49 377.39,-181.54 423.75,-119.75 447.88,-87.59 429.09,-62.77 459.75,-36.75 464.84,-32.43 470.73,-29.02 476.96,-26.34"/>
<polygon fill="#63b8ff" stroke="#63b8ff" points="478.05,-29.67 486.26,-22.98 475.67,-23.08 478.05,-29.67"/>
</a>
</g>
</g>
<!-- Node2&#45;&gt;Node14 -->
<g id="edge13_Node000002_Node000014" class="edge">
<title>Node2&#45;&gt;Node14</title>
<g id="a_edge13_Node000002_Node000014"><a xlink:title=" ">
<path fill="none" stroke="#63b8ff" d="M203.71,-582.38C214.56,-599.02 236.15,-632.26 254,-660.75 270.31,-686.78 265.71,-700.94 290,-719.75 291.96,-721.27 294.03,-722.67 296.19,-723.96"/>
<polygon fill="#63b8ff" stroke="#63b8ff" points="294.22,-726.89 304.72,-728.31 297.4,-720.65 294.22,-726.89"/>
</a>
</g>
</g>
<!-- Node15 -->
<g id="Node000015" class="node">
<title>Node15</title>
<g id="a_Node000015"><a xlink:href="m__tokenizer_8c.html#ab37a933fc16f9739bb13cee12373ab90" target="_top" xlink:title=" ">
<polygon fill="white" stroke="#666666" points="414.75,-620.12 299,-620.12 299,-599.38 414.75,-599.38 414.75,-620.12"/>
<text xml:space="preserve" text-anchor="middle" x="356.88" y="-606.62" font-family="Helvetica,sans-Serif" font-size="10.00">m_token_ll_advance</text>
</a>
</g>
</g>
<!-- Node2&#45;&gt;Node15 -->
<g id="edge15_Node000002_Node000015" class="edge">
<title>Node2&#45;&gt;Node15</title>
<g id="a_edge15_Node000002_Node000015"><a xlink:title=" ">
<path fill="none" stroke="#63b8ff" d="M241.92,-582.54C259.81,-586.81 280.57,-591.77 299.44,-596.27"/>
<polygon fill="#63b8ff" stroke="#63b8ff" points="298.58,-599.67 309.12,-598.58 300.2,-592.86 298.58,-599.67"/>
</a>
</g>
</g>
<!-- Node16 -->
<g id="Node000016" class="node">
<title>Node16</title>
<g id="a_Node000016"><a xlink:href="m__tokenizer_8c.html#a7a1c182d280d65c45a116616e00d00fa" target="_top" xlink:title=" ">
<polygon fill="white" stroke="#666666" points="413.62,-544.12 300.12,-544.12 300.12,-523.38 413.62,-523.38 413.62,-544.12"/>
<text xml:space="preserve" text-anchor="middle" x="356.88" y="-530.62" font-family="Helvetica,sans-Serif" font-size="10.00">m_token_ll_skip_ws</text>
</a>
</g>
</g>
<!-- Node2&#45;&gt;Node16 -->
<g id="edge16_Node000002_Node000016" class="edge">
<title>Node2&#45;&gt;Node16</title>
<g id="a_edge16_Node000002_Node000016"><a xlink:title=" ">
<path fill="none" stroke="#63b8ff" d="M241.92,-560.96C259.81,-556.69 280.57,-551.73 299.44,-547.23"/>
<polygon fill="#63b8ff" stroke="#63b8ff" points="300.2,-550.64 309.12,-544.92 298.58,-543.83 300.2,-550.64"/>
</a>
</g>
</g>
<!-- Node17 -->
<g id="Node000017" class="node">
<title>Node17</title>
<g id="a_Node000017"><a xlink:href="m__tokenizer_8c.html#a713c477a645ef8a6abfd4cb4e257b53c" target="_top" xlink:title=" ">
<polygon fill="white" stroke="#666666" points="585.25,-576.12 495.75,-576.12 495.75,-555.38 585.25,-555.38 585.25,-576.12"/>
<text xml:space="preserve" text-anchor="middle" x="540.5" y="-562.62" font-family="Helvetica,sans-Serif" font-size="10.00">token_is_name</text>
</a>
</g>
</g>
<!-- Node2&#45;&gt;Node17 -->
<g id="edge17_Node000002_Node000017" class="edge">
<title>Node2&#45;&gt;Node17</title>
<g id="a_edge17_Node000002_Node000017"><a xlink:title=" ">
<path fill="none" stroke="#63b8ff" d="M252.2,-570.78C315.96,-569.66 420.04,-567.84 483.88,-566.72"/>
<polygon fill="#63b8ff" stroke="#63b8ff" points="483.86,-570.22 493.8,-566.55 483.74,-563.23 483.86,-570.22"/>
</a>
</g>
</g>
<!-- Node4 -->
<g id="Node000004" class="node">
<title>Node4</title>
<g id="a_Node000004"><a xlink:href="m__dictionary_8c.html#aeb19ad0f434edb382a40729c339ed72e" target="_top" xlink:title=" ">
<polygon fill="#fff0f0" stroke="red" points="599.12,-627.5 481.88,-627.5 481.88,-594 599.12,-594 599.12,-627.5"/>
<text xml:space="preserve" text-anchor="start" x="489.88" y="-614" font-family="Helvetica,sans-Serif" font-size="10.00">m_dictionary_bucket</text>
<text xml:space="preserve" text-anchor="middle" x="540.5" y="-601.25" font-family="Helvetica,sans-Serif" font-size="10.00">_add_entry</text>
</a>
</g>
</g>
<!-- Node3&#45;&gt;Node4 -->
<g id="edge3_Node000003_Node000004" class="edge">
<title>Node3&#45;&gt;Node4</title>
<g id="a_edge3_Node000003_Node000004"><a xlink:title=" ">
<path fill="none" stroke="#63b8ff" d="M409.44,-637.96C428.37,-634 450.13,-629.45 470.36,-625.22"/>
<polygon fill="#63b8ff" stroke="#63b8ff" points="470.86,-628.69 479.93,-623.21 469.43,-621.83 470.86,-628.69"/>
</a>
</g>
</g>
<!-- Node8 -->
<g id="Node000008" class="node">
<title>Node8</title>
<g id="a_Node000008"><a xlink:href="m__dictionary_8c.html#abb33f0dcbafa6887ed20113084d4e35f" target="_top" xlink:title=" ">
<polygon fill="white" stroke="#666666" points="599.5,-679.5 481.5,-679.5 481.5,-646 599.5,-646 599.5,-679.5"/>
<text xml:space="preserve" text-anchor="start" x="489.5" y="-666" font-family="Helvetica,sans-Serif" font-size="10.00">m_dictionary_ensure</text>
<text xml:space="preserve" text-anchor="middle" x="540.5" y="-653.25" font-family="Helvetica,sans-Serif" font-size="10.00">_capacity</text>
</a>
</g>
</g>
<!-- Node3&#45;&gt;Node8 -->
<g id="edge4_Node000003_Node000008" class="edge">
<title>Node3&#45;&gt;Node8</title>
<g id="a_edge4_Node000003_Node000008"><a xlink:title=" ">
<path fill="none" stroke="#63b8ff" d="M424.22,-653.86C439.08,-655.01 454.88,-656.23 469.87,-657.38"/>
<polygon fill="#63b8ff" stroke="#63b8ff" points="469.39,-660.86 479.63,-658.14 469.93,-653.88 469.39,-660.86"/>
</a>
</g>
</g>
<!-- Node6 -->
<g id="Node000006" class="node">
<title>Node6</title>
<g id="a_Node000006"><a xlink:href="m__eff__parser_8c.html#ade572d30ba1f7e322e469b02d0eb634d" target="_top" xlink:title=" ">
<polygon fill="#fff0f0" stroke="red" points="778.25,-756.12 688,-756.12 688,-735.38 778.25,-735.38 778.25,-756.12"/>
<text xml:space="preserve" text-anchor="middle" x="733.12" y="-742.62" font-family="Helvetica,sans-Serif" font-size="10.00">m_parser_alloc</text>
</a>
</g>
</g>
<!-- Node8&#45;&gt;Node6 -->
<g id="edge5_Node000008_Node000006" class="edge">
<title>Node8&#45;&gt;Node6</title>
<g id="a_edge5_Node000008_Node000006"><a xlink:title=" ">
<path fill="none" stroke="#63b8ff" d="M598.12,-679.97C605.96,-682.71 613.86,-685.67 621.25,-688.75 649.92,-700.7 681.29,-717.17 703.32,-729.33"/>
<polygon fill="#63b8ff" stroke="#63b8ff" points="701.58,-732.36 712.02,-734.18 704.99,-726.25 701.58,-732.36"/>
</a>
</g>
</g>
<!-- Node9&#45;&gt;Node6 -->
<g id="edge8_Node000009_Node000006" class="edge">
<title>Node9&#45;&gt;Node6</title>
<g id="a_edge8_Node000009_Node000006"><a xlink:title=" ">
<path fill="none" stroke="#63b8ff" d="M393.85,-711.62C413.2,-717.04 437.58,-723.18 459.75,-726.75 534.24,-738.75 621.4,-743.18 676.68,-744.8"/>
<polygon fill="#63b8ff" stroke="#63b8ff" points="676.37,-748.3 686.46,-745.07 676.56,-741.3 676.37,-748.3"/>
</a>
</g>
</g>
<!-- Node10 -->
<g id="Node000010" class="node">
<title>Node10</title>
<g id="a_Node000010"><a xlink:href="m__dictionary_8c.html#a650375302f35f70888fd4d8a8a2f6d32" target="_top" xlink:title=" ">
<polygon fill="white" stroke="#666666" points="609.62,-718.12 471.38,-718.12 471.38,-697.38 609.62,-697.38 609.62,-718.12"/>
<text xml:space="preserve" text-anchor="middle" x="540.5" y="-704.62" font-family="Helvetica,sans-Serif" font-size="10.00">m_dictionary_bucket_init</text>
</a>
</g>
</g>
<!-- Node9&#45;&gt;Node10 -->
<g id="edge7_Node000009_Node000010" class="edge">
<title>Node9&#45;&gt;Node10</title>
<g id="a_edge7_Node000009_Node000010"><a xlink:title=" ">
<path fill="none" stroke="#63b8ff" d="M409.92,-702.76C425.57,-703.36 443.11,-704.04 460.11,-704.69"/>
<polygon fill="#63b8ff" stroke="#63b8ff" points="459.54,-708.17 469.66,-705.06 459.81,-701.18 459.54,-708.17"/>
</a>
</g>
</g>
<!-- Node13 -->
<g id="Node000013" class="node">
<title>Node13</title>
<g id="a_Node000013"><a xlink:href="m__eff__parser_8c.html#a4a46a40c66fc4e387ab11d273b892e65" target="_top" xlink:title=" ">
<polygon fill="white" stroke="#666666" points="809,-33.5 657.25,-33.5 657.25,0 809,0 809,-33.5"/>
<text xml:space="preserve" text-anchor="start" x="665.25" y="-20" font-family="Helvetica,sans-Serif" font-size="10.00">m_parser_format_offending</text>
<text xml:space="preserve" text-anchor="middle" x="733.12" y="-7.25" font-family="Helvetica,sans-Serif" font-size="10.00">_section</text>
</a>
</g>
</g>
<!-- Node12&#45;&gt;Node13 -->
<g id="edge12_Node000012_Node000013" class="edge">
<title>Node12&#45;&gt;Node13</title>
<g id="a_edge12_Node000012_Node000013"><a xlink:title=" ">
<path fill="none" stroke="#63b8ff" d="M593.59,-16.75C609.67,-16.75 627.84,-16.75 645.59,-16.75"/>
<polygon fill="#63b8ff" stroke="#63b8ff" points="645.36,-20.25 655.36,-16.75 645.36,-13.25 645.36,-20.25"/>
</a>
</g>
</g>
<!-- Node14&#45;&gt;Node6 -->
<g id="edge14_Node000014_Node000006" class="edge">
<title>Node14&#45;&gt;Node6</title>
<g id="a_edge14_Node000014_Node000006"><a xlink:title=" ">
<path fill="none" stroke="#63b8ff" d="M403.24,-750.61C420.78,-754.3 441.09,-757.94 459.75,-759.75 531.19,-766.7 549.61,-764.25 621.25,-759.75 639.28,-758.62 658.86,-756.46 676.48,-754.16"/>
<polygon fill="#63b8ff" stroke="#63b8ff" points="676.79,-757.65 686.24,-752.85 675.86,-750.72 676.79,-757.65"/>
</a>
</g>
</g>
<!-- Node18 -->
<g id="Node000018" class="node">
<title>Node18</title>
<g id="a_Node000018"><a xlink:href="m__tokenizer_8c.html#ae3e094675b7f6c398787acd25603e724" target="_top" xlink:title=" ">
<polygon fill="white" stroke="#666666" points="774.12,-595.12 692.12,-595.12 692.12,-574.38 774.12,-574.38 774.12,-595.12"/>
<text xml:space="preserve" text-anchor="middle" x="733.12" y="-581.62" font-family="Helvetica,sans-Serif" font-size="10.00">char_is_letter</text>
</a>
</g>
</g>
<!-- Node17&#45;&gt;Node18 -->
<g id="edge18_Node000017_Node000018" class="edge">
<title>Node17&#45;&gt;Node18</title>
<g id="a_edge18_Node000017_Node000018"><a xlink:title=" ">
<path fill="none" stroke="#63b8ff" d="M585.71,-570.16C613.97,-572.97 650.73,-576.64 680.35,-579.59"/>
<polygon fill="#63b8ff" stroke="#63b8ff" points="679.92,-583.06 690.22,-580.57 680.62,-576.1 679.92,-583.06"/>
</a>
</g>
</g>
<!-- Node19 -->
<g id="Node000019" class="node">
<title>Node19</title>
<g id="a_Node000019"><a xlink:href="m__tokenizer_8c.html#a69053f707d3b257c2a4fbbab04855ce4" target="_top" xlink:title=" ">
<polygon fill="white" stroke="#666666" points="779.75,-556.12 686.5,-556.12 686.5,-535.38 779.75,-535.38 779.75,-556.12"/>
<text xml:space="preserve" text-anchor="middle" x="733.12" y="-542.62" font-family="Helvetica,sans-Serif" font-size="10.00">char_is_number</text>
</a>
</g>
</g>
<!-- Node17&#45;&gt;Node19 -->
<g id="edge19_Node000017_Node000019" class="edge">
<title>Node17&#45;&gt;Node19</title>
<g id="a_edge19_Node000017_Node000019"><a xlink:title=" ">
<path fill="none" stroke="#63b8ff" d="M585.71,-561.11C612.32,-558.32 646.46,-554.74 675.09,-551.73"/>
<polygon fill="#63b8ff" stroke="#63b8ff" points="675.08,-555.25 684.66,-550.73 674.35,-548.29 675.08,-555.25"/>
</a>
</g>
</g>
<!-- Node20&#45;&gt;Node12 -->
<g id="edge38_Node000020_Node000012" class="edge">
<title>Node20&#45;&gt;Node12</title>
<g id="a_edge38_Node000020_Node000012"><a xlink:title=" ">
<path fill="none" stroke="#63b8ff" d="M244.54,-438.89C248.1,-436.66 251.33,-433.98 254,-430.75 331.71,-336.78 227.35,-263.37 290,-158.75 337.74,-79.04 375.47,-75.86 459.75,-36.75 465.17,-34.23 470.95,-32.01 476.83,-30.04"/>
<polygon fill="#63b8ff" stroke="#63b8ff" points="477.49,-33.5 486.02,-27.22 475.43,-26.81 477.49,-33.5"/>
</a>
</g>
</g>
<!-- Node21 -->
<g id="Node000021" class="node">
<title>Node21</title>
<g id="a_Node000021"><a xlink:href="m__expression_8c.html#acd7ddd6e154ca0394752c7aac612fe5e" target="_top" xlink:title=" ">
<polygon fill="white" stroke="#666666" points="417,-466.5 296.75,-466.5 296.75,-433 417,-433 417,-466.5"/>
<text xml:space="preserve" text-anchor="start" x="304.75" y="-453" font-family="Helvetica,sans-Serif" font-size="10.00">m_expression_detect</text>
<text xml:space="preserve" text-anchor="middle" x="356.88" y="-440.25" font-family="Helvetica,sans-Serif" font-size="10.00">_constants</text>
</a>
</g>
</g>
<!-- Node20&#45;&gt;Node21 -->
<g id="edge21_Node000020_Node000021" class="edge">
<title>Node20&#45;&gt;Node21</title>
<g id="a_edge21_Node000020_Node000021"><a xlink:title=" ">
<path fill="none" stroke="#63b8ff" d="M254.2,-449.75C264.16,-449.75 274.62,-449.75 284.89,-449.75"/>
<polygon fill="#63b8ff" stroke="#63b8ff" points="284.85,-453.25 294.85,-449.75 284.85,-446.25 284.85,-453.25"/>
</a>
</g>
</g>
<!-- Node25 -->
<g id="Node000025" class="node">
<title>Node25</title>
<g id="a_Node000025"><a xlink:href="m__expr__parser_8c.html#a45b4bb314bb1c677680ca37595ea8281" target="_top" xlink:title=" ">
<polygon fill="white" stroke="#666666" points="415.12,-273.5 298.62,-273.5 298.62,-240 415.12,-240 415.12,-273.5"/>
<text xml:space="preserve" text-anchor="start" x="306.62" y="-260" font-family="Helvetica,sans-Serif" font-size="10.00">m_parse_expression</text>
<text xml:space="preserve" text-anchor="middle" x="356.88" y="-247.25" font-family="Helvetica,sans-Serif" font-size="10.00">_rec_pratt</text>
</a>
</g>
</g>
<!-- Node20&#45;&gt;Node25 -->
<g id="edge24_Node000020_Node000025" class="edge">
<title>Node20&#45;&gt;Node25</title>
<g id="a_edge24_Node000020_Node000025"><a xlink:title=" ">
<path fill="none" stroke="#63b8ff" d="M240.69,-438.91C245.45,-436.67 250.01,-433.98 254,-430.75 302.53,-391.45 332.89,-322.43 346.84,-284.19"/>
<polygon fill="#63b8ff" stroke="#63b8ff" points="349.97,-285.85 349.99,-275.26 343.37,-283.52 349.97,-285.85"/>
</a>
</g>
</g>
<!-- Node22 -->
<g id="Node000022" class="node">
<title>Node22</title>
<g id="a_Node000022"><a xlink:href="m__expression_8c.html#afafd102b8fe0733962151c5c2de08296" target="_top" xlink:title=" ">
<polygon fill="#fff0f0" stroke="red" points="600.62,-519.5 480.38,-519.5 480.38,-486 600.62,-486 600.62,-519.5"/>
<text xml:space="preserve" text-anchor="start" x="488.38" y="-506" font-family="Helvetica,sans-Serif" font-size="10.00">m_expression_detect</text>
<text xml:space="preserve" text-anchor="middle" x="540.5" y="-493.25" font-family="Helvetica,sans-Serif" font-size="10.00">_constants_rec</text>
</a>
</g>
</g>
<!-- Node21&#45;&gt;Node22 -->
<g id="edge22_Node000021_Node000022" class="edge">
<title>Node21&#45;&gt;Node22</title>
<g id="a_edge22_Node000021_Node000022"><a xlink:title=" ">
<path fill="none" stroke="#63b8ff" d="M416.84,-466.96C433.74,-471.89 452.32,-477.31 469.8,-482.41"/>
<polygon fill="#63b8ff" stroke="#63b8ff" points="468.48,-485.67 479.06,-485.11 470.44,-478.95 468.48,-485.67"/>
</a>
</g>
</g>
<!-- Node22&#45;&gt;Node22 -->
<g id="edge23_Node000022_Node000022" class="edge">
<title>Node22&#45;&gt;Node22</title>
<g id="a_edge23_Node000022_Node000022"><a xlink:title=" ">
<path fill="none" stroke="#63b8ff" d="M507.49,-519.91C501.88,-529.12 512.88,-537.5 540.5,-537.5 556.03,-537.5 566.31,-534.85 571.33,-530.89"/>
<polygon fill="#63b8ff" stroke="#63b8ff" points="574.7,-531.89 573.21,-521.4 567.84,-530.53 574.7,-531.89"/>
</a>
</g>
</g>
<!-- Node25&#45;&gt;Node12 -->
<g id="edge30_Node000025_Node000012" class="edge">
<title>Node25&#45;&gt;Node12</title>
<g id="a_edge30_Node000025_Node000012"><a xlink:title=" ">
<path fill="none" stroke="#63b8ff" d="M379.04,-239.6C393.72,-226.58 412.57,-207.45 423.75,-186.75 456.34,-126.43 411.52,-85.48 459.75,-36.75 464.69,-31.76 470.68,-27.94 477.13,-25.04"/>
<polygon fill="#63b8ff" stroke="#63b8ff" points="477.98,-28.46 486.15,-21.72 475.56,-21.9 477.98,-28.46"/>
</a>
</g>
</g>
<!-- Node25&#45;&gt;Node17 -->
<g id="edge35_Node000025_Node000017" class="edge">
<title>Node25&#45;&gt;Node17</title>
<g id="a_edge35_Node000025_Node000017"><a xlink:title=" ">
<path fill="none" stroke="#63b8ff" d="M365.12,-273.63C377.85,-303.56 404.65,-368.03 423.75,-423.75 442.22,-477.63 418.46,-507.51 459.75,-546.75 466.57,-553.23 475.19,-557.63 484.22,-560.6"/>
<polygon fill="#63b8ff" stroke="#63b8ff" points="483.32,-563.98 493.88,-563.15 485.11,-557.21 483.32,-563.98"/>
</a>
</g>
</g>
<!-- Node25&#45;&gt;Node25 -->
<g id="edge29_Node000025_Node000025" class="edge">
<title>Node25&#45;&gt;Node25</title>
<g id="a_edge29_Node000025_Node000025"><a xlink:title=" ">
<path fill="none" stroke="#63b8ff" d="M327.91,-273.91C322.99,-283.12 332.64,-291.5 356.88,-291.5 370.51,-291.5 379.52,-288.85 383.93,-284.89"/>
<polygon fill="#63b8ff" stroke="#63b8ff" points="387.31,-285.86 385.58,-275.41 380.42,-284.66 387.31,-285.86"/>
</a>
</g>
</g>
<!-- Node26 -->
<g id="Node000026" class="node">
<title>Node26</title>
<g id="a_Node000026"><a xlink:href="m__expr__parser_8c.html#a3fb57896f833565ff62faa53293be99f" target="_top" xlink:title=" ">
<polygon fill="white" stroke="#666666" points="596.12,-429.5 484.88,-429.5 484.88,-396 596.12,-396 596.12,-429.5"/>
<text xml:space="preserve" text-anchor="start" x="492.88" y="-416" font-family="Helvetica,sans-Serif" font-size="10.00">m_expression_infix</text>
<text xml:space="preserve" text-anchor="middle" x="540.5" y="-403.25" font-family="Helvetica,sans-Serif" font-size="10.00">_associativity</text>
</a>
</g>
</g>
<!-- Node25&#45;&gt;Node26 -->
<g id="edge25_Node000025_Node000026" class="edge">
<title>Node25&#45;&gt;Node26</title>
<g id="a_edge25_Node000025_Node000026"><a xlink:title=" ">
<path fill="none" stroke="#63b8ff" d="M366.76,-273.73C382.07,-301.4 416.05,-356.17 459.75,-386.75 464.21,-389.87 469.07,-392.64 474.12,-395.09"/>
<polygon fill="#63b8ff" stroke="#63b8ff" points="472.72,-398.29 483.29,-399.07 475.51,-391.87 472.72,-398.29"/>
</a>
</g>
</g>
<!-- Node27 -->
<g id="Node000027" class="node">
<title>Node27</title>
<g id="a_Node000027"><a xlink:href="m__expr__parser_8c.html#a5f22d6ba7cd98449337f6767b796a94d" target="_top" xlink:title=" ">
<polygon fill="white" stroke="#666666" points="602.5,-377.5 478.5,-377.5 478.5,-344 602.5,-344 602.5,-377.5"/>
<text xml:space="preserve" text-anchor="start" x="486.5" y="-364" font-family="Helvetica,sans-Serif" font-size="10.00">m_expression_infix</text>
<text xml:space="preserve" text-anchor="middle" x="540.5" y="-351.25" font-family="Helvetica,sans-Serif" font-size="10.00">_operator_precedence</text>
</a>
</g>
</g>
<!-- Node25&#45;&gt;Node27 -->
<g id="edge26_Node000025_Node000027" class="edge">
<title>Node25&#45;&gt;Node27</title>
<g id="a_edge26_Node000025_Node000027"><a xlink:title=" ">
<path fill="none" stroke="#63b8ff" d="M376.08,-273.78C395.5,-291.18 427.81,-317.95 459.75,-334.75 462.75,-336.33 465.86,-337.83 469.03,-339.26"/>
<polygon fill="#63b8ff" stroke="#63b8ff" points="467.39,-342.37 477.97,-343.01 470.1,-335.91 467.39,-342.37"/>
</a>
</g>
</g>
<!-- Node28 -->
<g id="Node000028" class="node">
<title>Node28</title>
<g id="a_Node000028"><a xlink:href="m__expr__parser_8c.html#a22b47b59cab35e384fe6e1a10135997a" target="_top" xlink:title=" ">
<polygon fill="white" stroke="#666666" points="598.75,-325.5 482.25,-325.5 482.25,-292 598.75,-292 598.75,-325.5"/>
<text xml:space="preserve" text-anchor="start" x="490.25" y="-312" font-family="Helvetica,sans-Serif" font-size="10.00">m_expression_token</text>
<text xml:space="preserve" text-anchor="middle" x="540.5" y="-299.25" font-family="Helvetica,sans-Serif" font-size="10.00">_infix_type</text>
</a>
</g>
</g>
<!-- Node25&#45;&gt;Node28 -->
<g id="edge27_Node000025_Node000028" class="edge">
<title>Node25&#45;&gt;Node28</title>
<g id="a_edge27_Node000025_Node000028"><a xlink:title=" ">
<path fill="none" stroke="#63b8ff" d="M415.59,-273.27C433.22,-278.32 452.78,-283.92 471.05,-289.15"/>
<polygon fill="#63b8ff" stroke="#63b8ff" points="469.9,-292.46 480.48,-291.85 471.83,-285.73 469.9,-292.46"/>
</a>
</g>
</g>
<!-- Node29 -->
<g id="Node000029" class="node">
<title>Node29</title>
<g id="a_Node000029"><a xlink:href="m__expr__parser_8c.html#a5766ee01ec9665014bd79bd8e3852972" target="_top" xlink:title=" ">
<polygon fill="white" stroke="#666666" points="598.75,-273.5 482.25,-273.5 482.25,-240 598.75,-240 598.75,-273.5"/>
<text xml:space="preserve" text-anchor="start" x="490.25" y="-260" font-family="Helvetica,sans-Serif" font-size="10.00">m_expression_token</text>
<text xml:space="preserve" text-anchor="middle" x="540.5" y="-247.25" font-family="Helvetica,sans-Serif" font-size="10.00">_unary_type</text>
</a>
</g>
</g>
<!-- Node25&#45;&gt;Node29 -->
<g id="edge28_Node000025_Node000029" class="edge">
<title>Node25&#45;&gt;Node29</title>
<g id="a_edge28_Node000025_Node000029"><a xlink:title=" ">
<path fill="none" stroke="#63b8ff" d="M415.59,-256.75C433.06,-256.75 452.41,-256.75 470.54,-256.75"/>
<polygon fill="#63b8ff" stroke="#63b8ff" points="470.42,-260.25 480.42,-256.75 470.42,-253.25 470.42,-260.25"/>
</a>
</g>
</g>
<!-- Node30 -->
<g id="Node000030" class="node">
<title>Node30</title>
<g id="a_Node000030"><a xlink:href="m__expression_8c.html#a38daded96829752711082eaaeff03515" target="_top" xlink:title=" ">
<polygon fill="white" stroke="#666666" points="613.38,-222.12 467.62,-222.12 467.62,-201.38 613.38,-201.38 613.38,-222.12"/>
<text xml:space="preserve" text-anchor="middle" x="540.5" y="-208.62" font-family="Helvetica,sans-Serif" font-size="10.00">new_m_expression_binary</text>
</a>
</g>
</g>
<!-- Node25&#45;&gt;Node30 -->
<g id="edge31_Node000025_Node000030" class="edge">
<title>Node25&#45;&gt;Node30</title>
<g id="a_edge31_Node000025_Node000030"><a xlink:title=" ">
<path fill="none" stroke="#63b8ff" d="M415.48,-241.88C429.93,-238.19 445.4,-234.29 459.75,-230.75 467.08,-228.94 474.81,-227.06 482.44,-225.23"/>
<polygon fill="#63b8ff" stroke="#63b8ff" points="483.12,-228.66 492.03,-222.93 481.49,-221.86 483.12,-228.66"/>
</a>
</g>
</g>
<!-- Node31 -->
<g id="Node000031" class="node">
<title>Node31</title>
<g id="a_Node000031"><a xlink:href="m__expression_8c.html#a6be20167ceaad0a77b5ff8424196bfa9" target="_top" xlink:title=" ">
<polygon fill="#fff0f0" stroke="red" points="611.12,-183.12 469.88,-183.12 469.88,-162.38 611.12,-162.38 611.12,-183.12"/>
<text xml:space="preserve" text-anchor="middle" x="540.5" y="-169.62" font-family="Helvetica,sans-Serif" font-size="10.00">new_m_expression_const</text>
</a>
</g>
</g>
<!-- Node25&#45;&gt;Node31 -->
<g id="edge32_Node000025_Node000031" class="edge">
<title>Node25&#45;&gt;Node31</title>
<g id="a_edge32_Node000025_Node000031"><a xlink:title=" ">
<path fill="none" stroke="#63b8ff" d="M380.59,-239.53C400.51,-225.17 430.74,-205.13 459.75,-192.75 464.87,-190.57 470.28,-188.58 475.78,-186.79"/>
<polygon fill="#63b8ff" stroke="#63b8ff" points="476.39,-190.26 484.94,-184.01 474.36,-183.56 476.39,-190.26"/>
</a>
</g>
</g>
<!-- Node33 -->
<g id="Node000033" class="node">
<title>Node33</title>
<g id="a_Node000033"><a xlink:href="m__expression_8c.html#aa6e0cb60a1687ae7f7cf3d453a89a7dc" target="_top" xlink:title=" ">
<polygon fill="white" stroke="#666666" points="621.25,-144.12 459.75,-144.12 459.75,-123.38 621.25,-123.38 621.25,-144.12"/>
<text xml:space="preserve" text-anchor="middle" x="540.5" y="-130.62" font-family="Helvetica,sans-Serif" font-size="10.00">new_m_expression_reference</text>
</a>
</g>
</g>
<!-- Node25&#45;&gt;Node33 -->
<g id="edge33_Node000025_Node000033" class="edge">
<title>Node25&#45;&gt;Node33</title>
<g id="a_edge33_Node000025_Node000033"><a xlink:title=" ">
<path fill="none" stroke="#63b8ff" d="M373.86,-239.61C399.89,-211.85 449.54,-159.58 459.75,-153.75 462.97,-151.91 466.37,-150.24 469.86,-148.72"/>
<polygon fill="#63b8ff" stroke="#63b8ff" points="471.08,-152 479.15,-145.15 468.56,-145.47 471.08,-152"/>
</a>
</g>
</g>
<!-- Node34 -->
<g id="Node000034" class="node">
<title>Node34</title>
<g id="a_Node000034"><a xlink:href="m__expression_8c.html#a3cc8a14b8a167160daba87b581dcec17" target="_top" xlink:title=" ">
<polygon fill="white" stroke="#666666" points="611.88,-105.12 469.12,-105.12 469.12,-84.38 611.88,-84.38 611.88,-105.12"/>
<text xml:space="preserve" text-anchor="middle" x="540.5" y="-91.62" font-family="Helvetica,sans-Serif" font-size="10.00">new_m_expression_unary</text>
</a>
</g>
</g>
<!-- Node25&#45;&gt;Node34 -->
<g id="edge34_Node000025_Node000034" class="edge">
<title>Node25&#45;&gt;Node34</title>
<g id="a_edge34_Node000025_Node000034"><a xlink:title=" ">
<path fill="none" stroke="#63b8ff" d="M376.77,-239.59C390.87,-226.14 410,-206.46 423.75,-186.75 444.23,-157.41 431.85,-137.15 459.75,-114.75 461.46,-113.38 463.25,-112.1 465.11,-110.9"/>
<polygon fill="#63b8ff" stroke="#63b8ff" points="466.42,-114.17 473.56,-106.34 463.09,-108.01 466.42,-114.17"/>
</a>
</g>
</g>
<!-- Node35 -->
<g id="Node000035" class="node">
<title>Node35</title>
<g id="a_Node000035"><a xlink:href="m__tokenizer_8c.html#ae684335931207bb714fdc1b6588aad14" target="_top" xlink:title=" ">
<polygon fill="#fff0f0" stroke="red" points="590.12,-66.12 490.88,-66.12 490.88,-45.38 590.12,-45.38 590.12,-66.12"/>
<text xml:space="preserve" text-anchor="middle" x="540.5" y="-52.62" font-family="Helvetica,sans-Serif" font-size="10.00">token_is_number</text>
</a>
</g>
</g>
<!-- Node25&#45;&gt;Node35 -->
<g id="edge36_Node000025_Node000035" class="edge">
<title>Node25&#45;&gt;Node35</title>
<g id="a_edge36_Node000025_Node000035"><a xlink:title=" ">
<path fill="none" stroke="#63b8ff" d="M378.25,-239.6C392.73,-226.45 411.68,-207.14 423.75,-186.75 450.16,-142.12 421.85,-111.16 459.75,-75.75 465.43,-70.45 472.29,-66.49 479.59,-63.56"/>
<polygon fill="#63b8ff" stroke="#63b8ff" points="480.67,-66.89 489.06,-60.42 478.46,-60.24 480.67,-66.89"/>
</a>
</g>
</g>
<!-- Node37 -->
<g id="Node000037" class="node">
<title>Node37</title>
<g id="a_Node000037"><a xlink:href="m__tokenizer_8c.html#a6ca78d248f8970c62c3a5cfc32ee0bb6" target="_top" xlink:title=" ">
<polygon fill="#fff0f0" stroke="red" points="583.38,-468.12 497.62,-468.12 497.62,-447.38 583.38,-447.38 583.38,-468.12"/>
<text xml:space="preserve" text-anchor="middle" x="540.5" y="-454.62" font-family="Helvetica,sans-Serif" font-size="10.00">token_to_float</text>
</a>
</g>
</g>
<!-- Node25&#45;&gt;Node37 -->
<g id="edge37_Node000025_Node000037" class="edge">
<title>Node25&#45;&gt;Node37</title>
<g id="a_edge37_Node000025_Node000037"><a xlink:title=" ">
<path fill="none" stroke="#63b8ff" d="M362.39,-273.89C372.89,-310.29 402.55,-395.52 459.75,-438.75 467.5,-444.61 476.79,-448.7 486.25,-451.54"/>
<polygon fill="#63b8ff" stroke="#63b8ff" points="485.33,-454.91 495.88,-453.96 487.04,-448.12 485.33,-454.91"/>
</a>
</g>
</g>
</g>
</svg>
