<?xml version="1.0" encoding="UTF-8" standalone="no"?>
<!DOCTYPE svg PUBLIC "-//W3C//DTD SVG 1.1//EN"
 "http://www.w3.org/Graphics/SVG/1.1/DTD/svg11.dtd">
<!-- Generated by graphviz version 13.1.2 (20250808.2320)
 -->
<!-- Title: m_extract_parameter_from_dict Pages: 1 -->
<svg width="644pt" height="380pt"
 viewBox="0.00 0.00 644.00 380.00" xmlns="http://www.w3.org/2000/svg" xmlns:xlink="http://www.w3.org/1999/xlink">
<g id="graph0" class="graph" transform="scale(1 1) rotate(0) translate(4 375.75)">
<title>m_extract_parameter_from_dict</title>
<!-- Node1 -->
<g id="Node000001" class="node">
<title>Node1</title>
<g id="a_Node000001"><a xlink:title=" ">
<polygon fill="#999999" stroke="#666666" points="121.75,-202.12 0,-202.12 0,-168.62 121.75,-168.62 121.75,-202.12"/>
<text xml:space="preserve" text-anchor="start" x="8" y="-188.62" font-family="Helvetica,sans-Serif" font-size="10.00">m_extract_parameter</text>
<text xml:space="preserve" text-anchor="middle" x="60.88" y="-175.88" font-family="Helvetica,sans-Serif" font-size="10.00">_from_dict</text>
</a>
</g>
</g>
<!-- Node2 -->
<g id="Node000002" class="node">
<title>Node2</title>
<g id="a_Node000002"><a xlink:href="$m__parameter_8c.html#a80e5253ad7970bd957a3e1462b75199a" xlink:title=" ">
<polygon fill="white" stroke="#666666" points="274.25,-371.75 186.25,-371.75 186.25,-351 274.25,-351 274.25,-371.75"/>
<text xml:space="preserve" text-anchor="middle" x="230.25" y="-358.25" font-family="Helvetica,sans-Serif" font-size="10.00">gut_parameter</text>
</a>
</g>
</g>
<!-- Node1&#45;&gt;Node2 -->
<g id="edge1_Node000001_Node000002" class="edge">
<title>Node1&#45;&gt;Node2</title>
<g id="a_edge1_Node000001_Node000002"><a xlink:title=" ">
<path fill="none" stroke="#63b8ff" d="M67.54,-202.36C79.15,-234.52 108.77,-304.43 157.75,-341.38 163.02,-345.35 169.05,-348.54 175.32,-351.09"/>
<polygon fill="#63b8ff" stroke="#63b8ff" points="173.98,-354.33 184.58,-354.32 176.29,-347.72 173.98,-354.33"/>
</a>
</g>
</g>
<!-- Node3 -->
<g id="Node000003" class="node">
<title>Node3</title>
<g id="a_Node000003"><a xlink:href="$m__parameter_8c.html#ac9a28134818c14fbd7ef921b535b28d8" xlink:title=" ">
<polygon fill="white" stroke="#666666" points="283.25,-332.75 177.25,-332.75 177.25,-312 283.25,-312 283.25,-332.75"/>
<text xml:space="preserve" text-anchor="middle" x="230.25" y="-319.25" font-family="Helvetica,sans-Serif" font-size="10.00">init_parameter_str</text>
</a>
</g>
</g>
<!-- Node1&#45;&gt;Node3 -->
<g id="edge2_Node000001_Node000003" class="edge">
<title>Node1&#45;&gt;Node3</title>
<g id="a_edge2_Node000001_Node000003"><a xlink:title=" ">
<path fill="none" stroke="#63b8ff" d="M71.25,-202.5C86.16,-228.13 117.73,-276.24 157.75,-302.38 160.48,-304.16 163.37,-305.79 166.36,-307.27"/>
<polygon fill="#63b8ff" stroke="#63b8ff" points="164.88,-310.44 175.45,-311.18 167.65,-304.01 164.88,-310.44"/>
</a>
</g>
</g>
<!-- Node7 -->
<g id="Node000007" class="node">
<title>Node7</title>
<g id="a_Node000007"><a xlink:href="$m__dictionary_8c.html#a2bb0a3b03ec2e6dccb1b7b1f05402fae" xlink:title=" ">
<polygon fill="white" stroke="#666666" points="302.75,-293.75 157.75,-293.75 157.75,-273 302.75,-273 302.75,-293.75"/>
<text xml:space="preserve" text-anchor="middle" x="230.25" y="-280.25" font-family="Helvetica,sans-Serif" font-size="10.00">m_dictionary_lookup_expr</text>
</a>
</g>
</g>
<!-- Node1&#45;&gt;Node7 -->
<g id="edge5_Node000001_Node000007" class="edge">
<title>Node1&#45;&gt;Node7</title>
<g id="a_edge5_Node000001_Node000007"><a xlink:title=" ">
<path fill="none" stroke="#63b8ff" d="M78.34,-202.41C96.32,-220.07 126.69,-247.29 157.75,-263.38 161.46,-265.3 165.38,-267.05 169.39,-268.65"/>
<polygon fill="#63b8ff" stroke="#63b8ff" points="168.13,-271.92 178.72,-272.02 170.51,-265.33 168.13,-271.92"/>
</a>
</g>
</g>
<!-- Node10 -->
<g id="Node000010" class="node">
<title>Node10</title>
<g id="a_Node000010"><a xlink:href="$m__dictionary_8c.html#a24c48ed6d9d92be03e3b401f5ef72862" xlink:title=" ">
<polygon fill="white" stroke="#666666" points="298.25,-254.75 162.25,-254.75 162.25,-234 298.25,-234 298.25,-254.75"/>
<text xml:space="preserve" text-anchor="middle" x="230.25" y="-241.25" font-family="Helvetica,sans-Serif" font-size="10.00">m_dictionary_lookup_str</text>
</a>
</g>
</g>
<!-- Node1&#45;&gt;Node10 -->
<g id="edge8_Node000001_Node000010" class="edge">
<title>Node1&#45;&gt;Node10</title>
<g id="a_edge8_Node000001_Node000010"><a xlink:title=" ">
<path fill="none" stroke="#63b8ff" d="M101.14,-202.52C118.35,-209.73 138.88,-217.92 157.75,-224.38 163.84,-226.46 170.28,-228.49 176.7,-230.41"/>
<polygon fill="#63b8ff" stroke="#63b8ff" points="175.38,-233.68 185.96,-233.11 177.34,-226.95 175.38,-233.68"/>
</a>
</g>
</g>
<!-- Node11 -->
<g id="Node000011" class="node">
<title>Node11</title>
<g id="a_Node000011"><a xlink:href="$m__expression_8c.html#a0938d229ef0ec131b65241e93dc6166d" xlink:title=" ">
<polygon fill="white" stroke="#666666" points="296.38,-215.75 164.12,-215.75 164.12,-195 296.38,-195 296.38,-215.75"/>
<text xml:space="preserve" text-anchor="middle" x="230.25" y="-202.25" font-family="Helvetica,sans-Serif" font-size="10.00">m_expression_evaluate</text>
</a>
</g>
</g>
<!-- Node1&#45;&gt;Node11 -->
<g id="edge10_Node000001_Node000011" class="edge">
<title>Node1&#45;&gt;Node11</title>
<g id="a_edge10_Node000001_Node000011"><a xlink:title=" ">
<path fill="none" stroke="#63b8ff" d="M121.83,-192.54C131.82,-193.73 142.3,-194.98 152.63,-196.22"/>
<polygon fill="#63b8ff" stroke="#63b8ff" points="151.91,-199.66 162.26,-197.37 152.74,-192.71 151.91,-199.66"/>
</a>
</g>
</g>
<!-- Node12 -->
<g id="Node000012" class="node">
<title>Node12</title>
<g id="a_Node000012"><a xlink:href="$m__expression_8c.html#a89fc15c825974461d2da413da396c271" xlink:title=" ">
<polygon fill="white" stroke="#666666" points="302.75,-176.75 157.75,-176.75 157.75,-156 302.75,-156 302.75,-176.75"/>
<text xml:space="preserve" text-anchor="middle" x="230.25" y="-163.25" font-family="Helvetica,sans-Serif" font-size="10.00">m_expression_is_constant</text>
</a>
</g>
</g>
<!-- Node1&#45;&gt;Node12 -->
<g id="edge11_Node000001_Node000012" class="edge">
<title>Node1&#45;&gt;Node12</title>
<g id="a_edge11_Node000001_Node000012"><a xlink:title=" ">
<path fill="none" stroke="#63b8ff" d="M121.83,-178.57C129.76,-177.67 138,-176.73 146.24,-175.8"/>
<polygon fill="#63b8ff" stroke="#63b8ff" points="146.38,-179.3 155.92,-174.7 145.59,-172.35 146.38,-179.3"/>
</a>
</g>
</g>
<!-- Node14 -->
<g id="Node000014" class="node">
<title>Node14</title>
<g id="a_Node000014"><a xlink:href="$m__expression_8c.html#a5fa3c8040149c5d068c467280dfd0d68" xlink:title=" ">
<polygon fill="white" stroke="#666666" points="296.38,-137.75 164.12,-137.75 164.12,-117 296.38,-117 296.38,-137.75"/>
<text xml:space="preserve" text-anchor="middle" x="230.25" y="-124.25" font-family="Helvetica,sans-Serif" font-size="10.00">m_expression_to_string</text>
</a>
</g>
</g>
<!-- Node1&#45;&gt;Node14 -->
<g id="edge13_Node000001_Node000014" class="edge">
<title>Node1&#45;&gt;Node14</title>
<g id="a_edge13_Node000001_Node000014"><a xlink:title=" ">
<path fill="none" stroke="#63b8ff" d="M102.58,-168.15C119.5,-161.28 139.43,-153.55 157.75,-147.38 163.93,-145.29 170.46,-143.25 176.97,-141.32"/>
<polygon fill="#63b8ff" stroke="#63b8ff" points="177.73,-144.74 186.36,-138.59 175.78,-138.02 177.73,-144.74"/>
</a>
</g>
</g>
<!-- Node19 -->
<g id="Node000019" class="node">
<title>Node19</title>
<g id="a_Node000019"><a xlink:href="$m__expression_8c.html#a52aab7a814984dee145f2216c5556581" xlink:title=" ">
<polygon fill="white" stroke="#666666" points="302.38,-98.75 158.12,-98.75 158.12,-78 302.38,-78 302.38,-98.75"/>
<text xml:space="preserve" text-anchor="middle" x="230.25" y="-85.25" font-family="Helvetica,sans-Serif" font-size="10.00">m_expression_type_to_str</text>
</a>
</g>
</g>
<!-- Node1&#45;&gt;Node19 -->
<g id="edge19_Node000001_Node000019" class="edge">
<title>Node1&#45;&gt;Node19</title>
<g id="a_edge19_Node000001_Node000019"><a xlink:title=" ">
<path fill="none" stroke="#63b8ff" d="M78.72,-168.25C96.77,-150.82 126.99,-124.18 157.75,-108.38 161.64,-106.38 165.75,-104.56 169.96,-102.9"/>
<polygon fill="#63b8ff" stroke="#63b8ff" points="170.88,-106.29 179.12,-99.64 168.53,-99.7 170.88,-106.29"/>
</a>
</g>
</g>
<!-- Node20 -->
<g id="Node000020" class="node">
<title>Node20</title>
<g id="a_Node000020"><a xlink:href="$m__eff__parser_8c.html#a41538900917b54b8107a647c2860ebba" xlink:title=" ">
<polygon fill="white" stroke="#666666" points="297.5,-59.75 163,-59.75 163,-39 297.5,-39 297.5,-59.75"/>
<text xml:space="preserve" text-anchor="middle" x="230.25" y="-46.25" font-family="Helvetica,sans-Serif" font-size="10.00">m_parser_error_at_node</text>
</a>
</g>
</g>
<!-- Node1&#45;&gt;Node20 -->
<g id="edge20_Node000001_Node000020" class="edge">
<title>Node1&#45;&gt;Node20</title>
<g id="a_edge20_Node000001_Node000020"><a xlink:title=" ">
<path fill="none" stroke="#63b8ff" d="M71.28,-168.4C86.24,-142.99 117.88,-95.29 157.75,-69.38 160.43,-67.63 163.27,-66.03 166.21,-64.58"/>
<polygon fill="#63b8ff" stroke="#63b8ff" points="167.3,-67.92 175.09,-60.74 164.52,-61.49 167.3,-67.92"/>
</a>
</g>
</g>
<!-- Node21 -->
<g id="Node000021" class="node">
<title>Node21</title>
<g id="a_Node000021"><a xlink:href="$m__eff__parser_8c.html#a650eb755b74c731eab3e292d4eef9a9b" xlink:title=" ">
<polygon fill="white" stroke="#666666" points="297.88,-20.75 162.62,-20.75 162.62,0 297.88,0 297.88,-20.75"/>
<text xml:space="preserve" text-anchor="middle" x="230.25" y="-7.25" font-family="Helvetica,sans-Serif" font-size="10.00">m_parser_warn_at_node</text>
</a>
</g>
</g>
<!-- Node1&#45;&gt;Node21 -->
<g id="edge21_Node000001_Node000021" class="edge">
<title>Node1&#45;&gt;Node21</title>
<g id="a_edge21_Node000001_Node000021"><a xlink:title=" ">
<path fill="none" stroke="#63b8ff" d="M67.57,-168.5C79.23,-136.54 108.94,-67.08 157.75,-30.38 159.76,-28.86 161.88,-27.47 164.07,-26.18"/>
<polygon fill="#63b8ff" stroke="#63b8ff" points="165.39,-29.43 172.79,-21.84 162.27,-23.16 165.39,-29.43"/>
</a>
</g>
</g>
<!-- Node4 -->
<g id="Node000004" class="node">
<title>Node4</title>
<g id="a_Node000004"><a xlink:href="$m__parameter_8c.html#a6c029c4379be052a826c3a78b8dd1513" xlink:title=" ">
<polygon fill="white" stroke="#666666" points="462.75,-339.12 347,-339.12 347,-305.62 462.75,-305.62 462.75,-339.12"/>
<text xml:space="preserve" text-anchor="start" x="355" y="-325.62" font-family="Helvetica,sans-Serif" font-size="10.00">m_parameter_effect</text>
<text xml:space="preserve" text-anchor="middle" x="404.88" y="-312.88" font-family="Helvetica,sans-Serif" font-size="10.00">_rep_update</text>
</a>
</g>
</g>
<!-- Node3&#45;&gt;Node4 -->
<g id="edge3_Node000003_Node000004" class="edge">
<title>Node3&#45;&gt;Node4</title>
<g id="a_edge3_Node000003_Node000004"><a xlink:title=" ">
<path fill="none" stroke="#63b8ff" d="M283.51,-322.38C299.87,-322.38 318.18,-322.38 335.48,-322.38"/>
<polygon fill="#63b8ff" stroke="#63b8ff" points="335.16,-325.88 345.16,-322.38 335.16,-318.88 335.16,-325.88"/>
</a>
</g>
</g>
<!-- Node5 -->
<g id="Node000005" class="node">
<title>Node5</title>
<g id="a_Node000005"><a xlink:href="$m__effect_8c.html#a7ffa53dea58d069a71ce0288e044946b" xlink:title=" ">
<polygon fill="#fff0f0" stroke="red" points="634,-332.75 509.25,-332.75 509.25,-312 634,-312 634,-332.75"/>
<text xml:space="preserve" text-anchor="middle" x="571.62" y="-319.25" font-family="Helvetica,sans-Serif" font-size="10.00">m_effect_update_reps</text>
</a>
</g>
</g>
<!-- Node4&#45;&gt;Node5 -->
<g id="edge4_Node000004_Node000005" class="edge">
<title>Node4&#45;&gt;Node5</title>
<g id="a_edge4_Node000004_Node000005"><a xlink:title=" ">
<path fill="none" stroke="#63b8ff" d="M463.03,-322.38C474.12,-322.38 485.87,-322.38 497.39,-322.38"/>
<polygon fill="#63b8ff" stroke="#63b8ff" points="497.28,-325.88 507.28,-322.38 497.28,-318.88 497.28,-325.88"/>
</a>
</g>
</g>
<!-- Node8 -->
<g id="Node000008" class="node">
<title>Node8</title>
<g id="a_Node000008"><a xlink:href="$m__dictionary_8c.html#adf3150351a89a3ae2c5e4ec52ee93cb4" xlink:title=" ">
<polygon fill="white" stroke="#666666" points="463.88,-270.75 345.88,-270.75 345.88,-250 463.88,-250 463.88,-270.75"/>
<text xml:space="preserve" text-anchor="middle" x="404.88" y="-257.25" font-family="Helvetica,sans-Serif" font-size="10.00">m_dictionary_lookup</text>
</a>
</g>
</g>
<!-- Node7&#45;&gt;Node8 -->
<g id="edge6_Node000007_Node000008" class="edge">
<title>Node7&#45;&gt;Node8</title>
<g id="a_edge6_Node000007_Node000008"><a xlink:title=" ">
<path fill="none" stroke="#63b8ff" d="M302.96,-273.82C313.37,-272.43 324.07,-271.01 334.43,-269.63"/>
<polygon fill="#63b8ff" stroke="#63b8ff" points="334.56,-273.14 344.01,-268.35 333.64,-266.2 334.56,-273.14"/>
</a>
</g>
</g>
<!-- Node9 -->
<g id="Node000009" class="node">
<title>Node9</title>
<g id="a_Node000009"><a xlink:href="$m__dictionary_8c.html#ad31c66a06658d8de579267f83d08e6e1" xlink:title=" ">
<polygon fill="white" stroke="#666666" points="630.25,-277.12 513,-277.12 513,-243.62 630.25,-243.62 630.25,-277.12"/>
<text xml:space="preserve" text-anchor="start" x="521" y="-263.62" font-family="Helvetica,sans-Serif" font-size="10.00">m_dictionary_bucket</text>
<text xml:space="preserve" text-anchor="middle" x="571.62" y="-250.88" font-family="Helvetica,sans-Serif" font-size="10.00">_lookup</text>
</a>
</g>
</g>
<!-- Node8&#45;&gt;Node9 -->
<g id="edge7_Node000008_Node000009" class="edge">
<title>Node8&#45;&gt;Node9</title>
<g id="a_edge7_Node000008_Node000009"><a xlink:title=" ">
<path fill="none" stroke="#63b8ff" d="M463.96,-260.38C476.02,-260.38 488.84,-260.38 501.25,-260.38"/>
<polygon fill="#63b8ff" stroke="#63b8ff" points="501,-263.88 511,-260.38 501,-256.88 501,-263.88"/>
</a>
</g>
</g>
<!-- Node10&#45;&gt;Node8 -->
<g id="edge9_Node000010_Node000008" class="edge">
<title>Node10&#45;&gt;Node8</title>
<g id="a_edge9_Node000010_Node000008"><a xlink:title=" ">
<path fill="none" stroke="#63b8ff" d="M298.49,-250.61C310.25,-251.7 322.51,-252.83 334.34,-253.93"/>
<polygon fill="#63b8ff" stroke="#63b8ff" points="333.73,-257.39 344.01,-254.83 334.37,-250.42 333.73,-257.39"/>
</a>
</g>
</g>
<!-- Node13 -->
<g id="Node000013" class="node">
<title>Node13</title>
<g id="a_Node000013"><a xlink:href="$m__expression_8c.html#a85b1a98a17e0330c76ea72c013230c51" xlink:title=" ">
<polygon fill="white" stroke="#666666" points="463.88,-195.12 345.88,-195.12 345.88,-161.62 463.88,-161.62 463.88,-195.12"/>
<text xml:space="preserve" text-anchor="start" x="353.88" y="-181.62" font-family="Helvetica,sans-Serif" font-size="10.00">m_expression_refers</text>
<text xml:space="preserve" text-anchor="middle" x="404.88" y="-168.88" font-family="Helvetica,sans-Serif" font-size="10.00">_constant</text>
</a>
</g>
</g>
<!-- Node12&#45;&gt;Node13 -->
<g id="edge12_Node000012_Node000013" class="edge">
<title>Node12&#45;&gt;Node13</title>
<g id="a_edge12_Node000012_Node000013"><a xlink:title=" ">
<path fill="none" stroke="#63b8ff" d="M302.96,-171.36C313.26,-172.08 323.84,-172.81 334.1,-173.52"/>
<polygon fill="#63b8ff" stroke="#63b8ff" points="333.78,-177.01 344,-174.21 334.27,-170.03 333.78,-177.01"/>
</a>
</g>
</g>
<!-- Node15 -->
<g id="Node000015" class="node">
<title>Node15</title>
<g id="a_Node000015"><a xlink:href="$m__expression_8c.html#a1ee68e33366bb85718df8d2a70a70c0c" xlink:title=" ">
<polygon fill="white" stroke="#666666" points="471,-125.75 338.75,-125.75 338.75,-105 471,-105 471,-125.75"/>
<text xml:space="preserve" text-anchor="middle" x="404.88" y="-112.25" font-family="Helvetica,sans-Serif" font-size="10.00">m_expression_print_rec</text>
</a>
</g>
</g>
<!-- Node14&#45;&gt;Node15 -->
<g id="edge14_Node000014_Node000015" class="edge">
<title>Node14&#45;&gt;Node15</title>
<g id="a_edge14_Node000014_Node000015"><a xlink:title=" ">
<path fill="none" stroke="#63b8ff" d="M296.51,-122.84C306.5,-122.14 316.89,-121.42 327.1,-120.71"/>
<polygon fill="#63b8ff" stroke="#63b8ff" points="327.28,-124.21 337.01,-120.02 326.79,-117.23 327.28,-124.21"/>
</a>
</g>
</g>
<!-- Node15&#45;&gt;Node15 -->
<g id="edge18_Node000015_Node000015" class="edge">
<title>Node15&#45;&gt;Node15</title>
<g id="a_edge18_Node000015_Node000015"><a xlink:title=" ">
<path fill="none" stroke="#63b8ff" d="M378.01,-126.15C367.26,-134.81 376.21,-143.75 404.88,-143.75 420.55,-143.75 430.33,-141.08 434.22,-137.24"/>
<polygon fill="#63b8ff" stroke="#63b8ff" points="437.67,-136.62 432.07,-127.62 430.83,-138.15 437.67,-136.62"/>
</a>
</g>
</g>
<!-- Node16 -->
<g id="Node000016" class="node">
<title>Node16</title>
<g id="a_Node000016"><a xlink:href="$m__expression_8c.html#a12745be11d74ca2b1a924617539316ea" xlink:title=" ">
<polygon fill="white" stroke="#666666" points="628,-170.75 515.25,-170.75 515.25,-150 628,-150 628,-170.75"/>
<text xml:space="preserve" text-anchor="middle" x="571.62" y="-157.25" font-family="Helvetica,sans-Serif" font-size="10.00">m_expression_form</text>
</a>
</g>
</g>
<!-- Node15&#45;&gt;Node16 -->
<g id="edge15_Node000015_Node000016" class="edge">
<title>Node15&#45;&gt;Node16</title>
<g id="a_edge15_Node000015_Node000016"><a xlink:title=" ">
<path fill="none" stroke="#63b8ff" d="M445.34,-126.15C467.69,-132.26 495.89,-139.96 519.88,-146.51"/>
<polygon fill="#63b8ff" stroke="#63b8ff" points="518.89,-149.87 529.45,-149.13 520.73,-143.12 518.89,-149.87"/>
</a>
</g>
</g>
<!-- Node17 -->
<g id="Node000017" class="node">
<title>Node17</title>
<g id="a_Node000017"><a xlink:href="$m__expression_8c.html#a01ec3797f970c64289f365eadb6e8402" xlink:title=" ">
<polygon fill="white" stroke="#666666" points="636.25,-132.12 507,-132.12 507,-98.62 636.25,-98.62 636.25,-132.12"/>
<text xml:space="preserve" text-anchor="start" x="515" y="-118.62" font-family="Helvetica,sans-Serif" font-size="10.00">m_expression_function</text>
<text xml:space="preserve" text-anchor="middle" x="571.62" y="-105.88" font-family="Helvetica,sans-Serif" font-size="10.00">_string</text>
</a>
</g>
</g>
<!-- Node15&#45;&gt;Node17 -->
<g id="edge16_Node000015_Node000017" class="edge">
<title>Node15&#45;&gt;Node17</title>
<g id="a_edge16_Node000015_Node000017"><a xlink:title=" ">
<path fill="none" stroke="#63b8ff" d="M471.46,-115.38C479.24,-115.38 487.23,-115.38 495.13,-115.38"/>
<polygon fill="#63b8ff" stroke="#63b8ff" points="495.09,-118.88 505.09,-115.38 495.09,-111.88 495.09,-118.88"/>
</a>
</g>
</g>
<!-- Node18 -->
<g id="Node000018" class="node">
<title>Node18</title>
<g id="a_Node000018"><a xlink:href="$m__expression_8c.html#a72a6ac780a2503b0a4657652bdcbd513" xlink:title=" ">
<polygon fill="white" stroke="#666666" points="627.25,-80.12 516,-80.12 516,-46.62 627.25,-46.62 627.25,-80.12"/>
<text xml:space="preserve" text-anchor="start" x="524" y="-66.62" font-family="Helvetica,sans-Serif" font-size="10.00">m_expression_infix</text>
<text xml:space="preserve" text-anchor="middle" x="571.62" y="-53.88" font-family="Helvetica,sans-Serif" font-size="10.00">_operator_string</text>
</a>
</g>
</g>
<!-- Node15&#45;&gt;Node18 -->
<g id="edge17_Node000015_Node000018" class="edge">
<title>Node15&#45;&gt;Node18</title>
<g id="a_edge17_Node000015_Node000018"><a xlink:title=" ">
<path fill="none" stroke="#63b8ff" d="M440.01,-104.6C458.88,-98.64 482.97,-91.04 505.31,-83.99"/>
<polygon fill="#63b8ff" stroke="#63b8ff" points="506.18,-87.39 514.66,-81.04 504.07,-80.71 506.18,-87.39"/>
</a>
</g>
</g>
</g>
</svg>
