<?xml version="1.0" encoding="UTF-8" standalone="no"?>
<!DOCTYPE svg PUBLIC "-//W3C//DTD SVG 1.1//EN"
 "http://www.w3.org/Graphics/SVG/1.1/DTD/svg11.dtd">
<!-- Generated by graphviz version 13.1.2 (20250808.2320)
 -->
<!-- Title: m_dictionary_add_entry_int Pages: 1 -->
<svg width="593pt" height="94pt"
 viewBox="0.00 0.00 593.00 94.00" xmlns="http://www.w3.org/2000/svg" xmlns:xlink="http://www.w3.org/1999/xlink">
<g id="graph0" class="graph" transform="scale(1 1) rotate(0) translate(4 89.5)">
<title>m_dictionary_add_entry_int</title>
<!-- Node1 -->
<g id="Node000001" class="node">
<title>Node1</title>
<g id="a_Node000001"><a xlink:title=" ">
<polygon fill="#999999" stroke="#666666" points="151.75,-52.12 0,-52.12 0,-31.38 151.75,-31.38 151.75,-52.12"/>
<text xml:space="preserve" text-anchor="middle" x="75.88" y="-38.62" font-family="Helvetica,sans-Serif" font-size="10.00">m_dictionary_add_entry_int</text>
</a>
</g>
</g>
<!-- Node2 -->
<g id="Node000002" class="node">
<title>Node2</title>
<g id="a_Node000002"><a xlink:href="m__dictionary_8c.html#aa23f36c059d8bb791facc3a4234f290e" target="_top" xlink:title=" ">
<polygon fill="white" stroke="#666666" points="305,-83.5 187.75,-83.5 187.75,-50 305,-50 305,-83.5"/>
<text xml:space="preserve" text-anchor="start" x="195.75" y="-70" font-family="Helvetica,sans-Serif" font-size="10.00">m_dictionary_bucket</text>
<text xml:space="preserve" text-anchor="middle" x="246.38" y="-57.25" font-family="Helvetica,sans-Serif" font-size="10.00">_add_entry_int</text>
</a>
</g>
</g>
<!-- Node1&#45;&gt;Node2 -->
<g id="edge1_Node000001_Node000002" class="edge">
<title>Node1&#45;&gt;Node2</title>
<g id="a_edge1_Node000001_Node000002"><a xlink:title=" ">
<path fill="none" stroke="#63b8ff" d="M149.8,-52.57C158.52,-53.86 167.41,-55.18 176.07,-56.47"/>
<polygon fill="#63b8ff" stroke="#63b8ff" points="175.41,-59.91 185.81,-57.91 176.43,-52.98 175.41,-59.91"/>
</a>
</g>
</g>
<!-- Node6 -->
<g id="Node000006" class="node">
<title>Node6</title>
<g id="a_Node000006"><a xlink:href="m__dictionary_8c.html#abb33f0dcbafa6887ed20113084d4e35f" target="_top" xlink:title=" ">
<polygon fill="white" stroke="#666666" points="459,-33.5 341,-33.5 341,0 459,0 459,-33.5"/>
<text xml:space="preserve" text-anchor="start" x="349" y="-20" font-family="Helvetica,sans-Serif" font-size="10.00">m_dictionary_ensure</text>
<text xml:space="preserve" text-anchor="middle" x="400" y="-7.25" font-family="Helvetica,sans-Serif" font-size="10.00">_capacity</text>
</a>
</g>
</g>
<!-- Node1&#45;&gt;Node6 -->
<g id="edge4_Node000001_Node000006" class="edge">
<title>Node1&#45;&gt;Node6</title>
<g id="a_edge4_Node000001_Node000006"><a xlink:title=" ">
<path fill="none" stroke="#63b8ff" d="M151.99,-35.92C205.6,-31.76 277.17,-26.21 329.46,-22.15"/>
<polygon fill="#63b8ff" stroke="#63b8ff" points="329.44,-25.66 339.14,-21.4 328.9,-18.68 329.44,-25.66"/>
</a>
</g>
</g>
<!-- Node3 -->
<g id="Node000003" class="node">
<title>Node3</title>
<g id="a_Node000003"><a xlink:href="m__dictionary_8c.html#ae8d5356f7a4d1c14c8a71dd8fa59ff0d" target="_top" xlink:title=" ">
<polygon fill="white" stroke="#666666" points="458.62,-85.5 341.38,-85.5 341.38,-52 458.62,-52 458.62,-85.5"/>
<text xml:space="preserve" text-anchor="start" x="349.38" y="-72" font-family="Helvetica,sans-Serif" font-size="10.00">m_dictionary_bucket</text>
<text xml:space="preserve" text-anchor="middle" x="400" y="-59.25" font-family="Helvetica,sans-Serif" font-size="10.00">_ensure_capacity</text>
</a>
</g>
</g>
<!-- Node2&#45;&gt;Node3 -->
<g id="edge2_Node000002_Node000003" class="edge">
<title>Node2&#45;&gt;Node3</title>
<g id="a_edge2_Node000002_Node000003"><a xlink:title=" ">
<path fill="none" stroke="#63b8ff" d="M305.13,-67.51C313.09,-67.62 321.34,-67.73 329.49,-67.83"/>
<polygon fill="#63b8ff" stroke="#63b8ff" points="329.34,-71.33 339.39,-67.96 329.44,-64.33 329.34,-71.33"/>
</a>
</g>
</g>
<!-- Node4 -->
<g id="Node000004" class="node">
<title>Node4</title>
<g id="a_Node000004"><a xlink:href="m__eff__parser_8c.html#ade572d30ba1f7e322e469b02d0eb634d" target="_top" xlink:title=" ">
<polygon fill="#fff0f0" stroke="red" points="585.25,-53.12 495,-53.12 495,-32.38 585.25,-32.38 585.25,-53.12"/>
<text xml:space="preserve" text-anchor="middle" x="540.12" y="-39.62" font-family="Helvetica,sans-Serif" font-size="10.00">m_parser_alloc</text>
</a>
</g>
</g>
<!-- Node3&#45;&gt;Node4 -->
<g id="edge3_Node000003_Node000004" class="edge">
<title>Node3&#45;&gt;Node4</title>
<g id="a_edge3_Node000003_Node000004"><a xlink:title=" ">
<path fill="none" stroke="#63b8ff" d="M458.78,-57.87C466.92,-56.34 475.27,-54.77 483.37,-53.24"/>
<polygon fill="#63b8ff" stroke="#63b8ff" points="483.94,-56.7 493.12,-51.41 482.65,-49.82 483.94,-56.7"/>
</a>
</g>
</g>
<!-- Node6&#45;&gt;Node4 -->
<g id="edge5_Node000006_Node000004" class="edge">
<title>Node6&#45;&gt;Node4</title>
<g id="a_edge5_Node000006_Node000004"><a xlink:title=" ">
<path fill="none" stroke="#63b8ff" d="M459.18,-27.7C467.3,-29.23 475.62,-30.8 483.68,-32.31"/>
<polygon fill="#63b8ff" stroke="#63b8ff" points="482.91,-35.73 493.38,-34.14 484.2,-28.85 482.91,-35.73"/>
</a>
</g>
</g>
</g>
</svg>
