<?xml version="1.0" encoding="UTF-8" standalone="no"?>
<!DOCTYPE svg PUBLIC "-//W3C//DTD SVG 1.1//EN"
 "http://www.w3.org/Graphics/SVG/1.1/DTD/svg11.dtd">
<!-- Generated by graphviz version 13.1.2 (20250808.2320)
 -->
<!-- Title: m_parse_dict_val Pages: 1 -->
<svg width="537pt" height="42pt"
 viewBox="0.00 0.00 537.00 42.00" xmlns="http://www.w3.org/2000/svg" xmlns:xlink="http://www.w3.org/1999/xlink">
<g id="graph0" class="graph" transform="scale(1 1) rotate(0) translate(4 37.5)">
<title>m_parse_dict_val</title>
<!-- Node1 -->
<g id="Node000001" class="node">
<title>Node1</title>
<g id="a_Node000001"><a xlink:title=" ">
<polygon fill="#999999" stroke="#666666" points="529,-27.12 427.5,-27.12 427.5,-6.38 529,-6.38 529,-27.12"/>
<text xml:space="preserve" text-anchor="middle" x="478.25" y="-13.62" font-family="Helvetica,sans-Serif" font-size="10.00">m_parse_dict_val</text>
</a>
</g>
</g>
<!-- Node2 -->
<g id="Node000002" class="node">
<title>Node2</title>
<g id="a_Node000002"><a xlink:href="m__dictionary_8c.html#ab52fc5ead828b21f765fdd2819fac663" target="_top" xlink:title=" ">
<polygon fill="white" stroke="#666666" points="391.5,-27.12 279.5,-27.12 279.5,-6.38 391.5,-6.38 391.5,-27.12"/>
<text xml:space="preserve" text-anchor="middle" x="335.5" y="-13.62" font-family="Helvetica,sans-Serif" font-size="10.00">m_parse_dictionary</text>
</a>
</g>
</g>
<!-- Node1&#45;&gt;Node2 -->
<g id="edge1_Node000001_Node000002" class="edge">
<title>Node1&#45;&gt;Node2</title>
<g id="a_edge1_Node000001_Node000002"><a xlink:title=" ">
<path fill="none" stroke="#63b8ff" d="M415.95,-10.05C407.85,-9.96 399.6,-9.99 391.62,-10.14"/>
<polygon fill="#63b8ff" stroke="#63b8ff" points="415.65,-13.55 425.72,-10.23 415.78,-6.55 415.65,-13.55"/>
</a>
</g>
</g>
<!-- Node2&#45;&gt;Node1 -->
<g id="edge2_Node000002_Node000001" class="edge">
<title>Node2&#45;&gt;Node1</title>
<g id="a_edge2_Node000002_Node000001"><a xlink:title=" ">
<path fill="none" stroke="#63b8ff" d="M403.04,-23.49C411.18,-23.53 419.39,-23.45 427.23,-23.24"/>
<polygon fill="#63b8ff" stroke="#63b8ff" points="403.17,-19.99 393.13,-23.37 403.09,-26.99 403.17,-19.99"/>
</a>
</g>
</g>
<!-- Node3 -->
<g id="Node000003" class="node">
<title>Node3</title>
<g id="a_Node000003"><a xlink:href="m__eff__section_8c.html#ad4898a5c5f76355d6a696bb0d6ee3b82" target="_top" xlink:title=" ">
<polygon fill="white" stroke="#666666" points="243.5,-33.5 131.5,-33.5 131.5,0 243.5,0 243.5,-33.5"/>
<text xml:space="preserve" text-anchor="start" x="139.5" y="-20" font-family="Helvetica,sans-Serif" font-size="10.00">m_parse_dictionary</text>
<text xml:space="preserve" text-anchor="middle" x="187.5" y="-7.25" font-family="Helvetica,sans-Serif" font-size="10.00">_section</text>
</a>
</g>
</g>
<!-- Node2&#45;&gt;Node3 -->
<g id="edge3_Node000002_Node000003" class="edge">
<title>Node2&#45;&gt;Node3</title>
<g id="a_edge3_Node000002_Node000003"><a xlink:title=" ">
<path fill="none" stroke="#63b8ff" d="M267.97,-16.75C259.88,-16.75 251.68,-16.75 243.77,-16.75"/>
<polygon fill="#63b8ff" stroke="#63b8ff" points="267.79,-20.25 277.79,-16.75 267.79,-13.25 267.79,-20.25"/>
</a>
</g>
</g>
<!-- Node4 -->
<g id="Node000004" class="node">
<title>Node4</title>
<g id="a_Node000004"><a xlink:href="m__eff__parser_8c.html#a094727fab3d645bca2ba21a44ecc5749" target="_top" xlink:title=" ">
<polygon fill="#fff0f0" stroke="red" points="95.5,-27.12 0,-27.12 0,-6.38 95.5,-6.38 95.5,-27.12"/>
<text xml:space="preserve" text-anchor="middle" x="47.75" y="-13.62" font-family="Helvetica,sans-Serif" font-size="10.00">m_parse_tokens</text>
</a>
</g>
</g>
<!-- Node3&#45;&gt;Node4 -->
<g id="edge4_Node000003_Node000004" class="edge">
<title>Node3&#45;&gt;Node4</title>
<g id="a_edge4_Node000003_Node000004"><a xlink:title=" ">
<path fill="none" stroke="#63b8ff" d="M119.78,-16.75C111.6,-16.75 103.38,-16.75 95.58,-16.75"/>
<polygon fill="#63b8ff" stroke="#63b8ff" points="119.75,-20.25 129.75,-16.75 119.75,-13.25 119.75,-20.25"/>
</a>
</g>
</g>
</g>
</svg>
