<?xml version="1.0" encoding="UTF-8" standalone="no"?>
<!DOCTYPE svg PUBLIC "-//W3C//DTD SVG 1.1//EN"
 "http://www.w3.org/Graphics/SVG/1.1/DTD/svg11.dtd">
<!-- Generated by graphviz version 13.1.2 (20250808.2320)
 -->
<!-- Title: main Pages: 1 -->
<svg width="682pt" height="1104pt"
 viewBox="0.00 0.00 682.00 1104.00" xmlns="http://www.w3.org/2000/svg" xmlns:xlink="http://www.w3.org/1999/xlink">
<g id="graph0" class="graph" transform="scale(1 1) rotate(0) translate(4 1100.12)">
<title>main</title>
<!-- Node1 -->
<g id="Node000001" class="node">
<title>Node1</title>
<g id="a_Node000001"><a xlink:title=" ">
<polygon fill="#999999" stroke="#666666" points="40.75,-293.75 0,-293.75 0,-273 40.75,-273 40.75,-293.75"/>
<text xml:space="preserve" text-anchor="middle" x="20.38" y="-280.25" font-family="Helvetica,sans-Serif" font-size="10.00">main</text>
</a>
</g>
</g>
<!-- Node2 -->
<g id="Node000002" class="node">
<title>Node2</title>
<g id="a_Node000002"><a xlink:href="$m__desktop_8c.html#ab499a4f71ef4cfc807b60d8739750c3e" xlink:title=" ">
<polygon fill="white" stroke="#666666" points="143.75,-293.75 76.75,-293.75 76.75,-273 143.75,-273 143.75,-293.75"/>
<text xml:space="preserve" text-anchor="middle" x="110.25" y="-280.25" font-family="Helvetica,sans-Serif" font-size="10.00">main_task</text>
</a>
</g>
</g>
<!-- Node1&#45;&gt;Node2 -->
<g id="edge1_Node000001_Node000002" class="edge">
<title>Node1&#45;&gt;Node2</title>
<g id="a_edge1_Node000001_Node000002"><a xlink:title=" ">
<path fill="none" stroke="#63b8ff" d="M40.88,-283.38C48.04,-283.38 56.47,-283.38 64.92,-283.38"/>
<polygon fill="#63b8ff" stroke="#63b8ff" points="64.82,-286.88 74.82,-283.38 64.82,-279.88 64.82,-286.88"/>
</a>
</g>
</g>
<!-- Node3 -->
<g id="Node000003" class="node">
<title>Node3</title>
<g id="a_Node000003"><a xlink:href="$m__effect__select_8c.html#a7a22359cacc5666788778cf4f0178157" xlink:title=" ">
<polygon fill="white" stroke="#666666" points="315.38,-999.75 186.88,-999.75 186.88,-979 315.38,-979 315.38,-999.75"/>
<text xml:space="preserve" text-anchor="middle" x="251.12" y="-986.25" font-family="Helvetica,sans-Serif" font-size="10.00">init_effect_selector_eff</text>
</a>
</g>
</g>
<!-- Node2&#45;&gt;Node3 -->
<g id="edge2_Node000002_Node000003" class="edge">
<title>Node2&#45;&gt;Node3</title>
<g id="a_edge2_Node000002_Node000003"><a xlink:title=" ">
<path fill="none" stroke="#63b8ff" d="M111.76,-294.14C114.53,-348.96 129.59,-602.25 179.75,-802.38 195.36,-864.65 225.18,-934.62 240.51,-968.61"/>
<polygon fill="#63b8ff" stroke="#63b8ff" points="237.15,-969.67 244.48,-977.32 243.51,-966.77 237.15,-969.67"/>
</a>
</g>
</g>
<!-- Node166 -->
<g id="Node000166" class="node">
<title>Node166</title>
<g id="a_Node000166"><a xlink:href="$m__files_8c.html#a20fd21ea829052e437025652fdf783ed" xlink:title=" ">
<polygon fill="white" stroke="#666666" points="289.12,-793.75 213.12,-793.75 213.12,-773 289.12,-773 289.12,-793.75"/>
<text xml:space="preserve" text-anchor="middle" x="251.12" y="-780.25" font-family="Helvetica,sans-Serif" font-size="10.00">load_effects</text>
</a>
</g>
</g>
<!-- Node2&#45;&gt;Node166 -->
<g id="edge7_Node000002_Node000166" class="edge">
<title>Node2&#45;&gt;Node166</title>
<g id="a_edge7_Node000002_Node000166"><a xlink:title=" ">
<path fill="none" stroke="#63b8ff" d="M112.12,-294.09C115.96,-338.58 133.36,-512.71 179.75,-647.38 194.67,-690.67 221.37,-737.28 237.25,-763.14"/>
<polygon fill="#63b8ff" stroke="#63b8ff" points="234.08,-764.66 242.34,-771.3 240.02,-760.96 234.08,-764.66"/>
</a>
</g>
</g>
<!-- Node47 -->
<g id="Node000047" class="node">
<title>Node47</title>
<g id="a_Node000047"><a xlink:href="$m__error__codes_8c.html#a5298df5c7af3a6aac90c055a615b171a" xlink:title=" ">
<polygon fill="white" stroke="#666666" points="674,-774.75 543.25,-774.75 543.25,-754 674,-754 674,-774.75"/>
<text xml:space="preserve" text-anchor="middle" x="608.62" y="-761.25" font-family="Helvetica,sans-Serif" font-size="10.00">m_error_code_to_string</text>
</a>
</g>
</g>
<!-- Node2&#45;&gt;Node47 -->
<g id="edge41_Node000002_Node000047" class="edge">
<title>Node2&#45;&gt;Node47</title>
<g id="a_edge41_Node000002_Node000047"><a xlink:title=" ">
<path fill="none" stroke="#63b8ff" d="M111.44,-293.9C112.64,-328.06 121.11,-436.96 179.75,-495.38 238.83,-554.22 278.35,-529.38 358.5,-552.38 424.09,-571.19 452.88,-549.14 507.25,-590.38 559.68,-630.13 589.35,-705.8 601.33,-742.85"/>
<polygon fill="#63b8ff" stroke="#63b8ff" points="597.98,-743.86 604.27,-752.38 604.66,-741.79 597.98,-743.86"/>
</a>
</g>
</g>
<!-- Node290 -->
<g id="Node000290" class="node">
<title>Node290</title>
<g id="a_Node000290"><a xlink:href="$m__files_8c.html#a8785e4c0fd9fa9638385ef725fe13adb" xlink:title=" ">
<polygon fill="white" stroke="#666666" points="307.88,-638.75 194.38,-638.75 194.38,-618 307.88,-618 307.88,-638.75"/>
<text xml:space="preserve" text-anchor="middle" x="251.12" y="-625.25" font-family="Helvetica,sans-Serif" font-size="10.00">load_saved_profiles</text>
</a>
</g>
</g>
<!-- Node2&#45;&gt;Node290 -->
<g id="edge14_Node000002_Node000290" class="edge">
<title>Node2&#45;&gt;Node290</title>
<g id="a_edge14_Node000002_Node000290"><a xlink:title=" ">
<path fill="none" stroke="#63b8ff" d="M110.83,-294.2C109.76,-336.02 110.93,-489.51 179.75,-585.38 187.9,-596.73 200.08,-605.68 212.02,-612.41"/>
<polygon fill="#63b8ff" stroke="#63b8ff" points="210.07,-615.34 220.56,-616.84 213.3,-609.13 210.07,-615.34"/>
</a>
</g>
</g>
<!-- Node354 -->
<g id="Node000354" class="node">
<title>Node354</title>
<g id="a_Node000354"><a xlink:href="$m__files_8c.html#a818849f86d2816c2e9a60229f5f103c1" xlink:title=" ">
<polygon fill="white" stroke="#666666" points="315.38,-409.75 186.88,-409.75 186.88,-389 315.38,-389 315.38,-409.75"/>
<text xml:space="preserve" text-anchor="middle" x="251.12" y="-396.25" font-family="Helvetica,sans-Serif" font-size="10.00">load_saved_sequences</text>
</a>
</g>
</g>
<!-- Node2&#45;&gt;Node354 -->
<g id="edge22_Node000002_Node000354" class="edge">
<title>Node2&#45;&gt;Node354</title>
<g id="a_edge22_Node000002_Node000354"><a xlink:title=" ">
<path fill="none" stroke="#63b8ff" d="M123.83,-294.12C137.54,-305.8 160.14,-324.99 179.75,-341.38 195.84,-354.82 214.12,-369.87 228.01,-381.28"/>
<polygon fill="#63b8ff" stroke="#63b8ff" points="225.73,-383.93 235.68,-387.56 230.17,-378.52 225.73,-383.93"/>
</a>
</g>
</g>
<!-- Node395 -->
<g id="Node000395" class="node">
<title>Node395</title>
<g id="a_Node000395"><a xlink:href="$m__files_8c.html#a42a31fc3110de45960dd88975c2f9f35" xlink:title=" ">
<polygon fill="white" stroke="#666666" points="309.38,-486.75 192.88,-486.75 192.88,-466 309.38,-466 309.38,-486.75"/>
<text xml:space="preserve" text-anchor="middle" x="251.12" y="-473.25" font-family="Helvetica,sans-Serif" font-size="10.00">load_state_from_file</text>
</a>
</g>
</g>
<!-- Node2&#45;&gt;Node395 -->
<g id="edge30_Node000002_Node000395" class="edge">
<title>Node2&#45;&gt;Node395</title>
<g id="a_edge30_Node000002_Node000395"><a xlink:title=" ">
<path fill="none" stroke="#63b8ff" d="M114.93,-294.04C123.56,-318.03 146.88,-377.36 179.75,-418.38 192.3,-434.04 209.67,-448.41 224.02,-458.93"/>
<polygon fill="#63b8ff" stroke="#63b8ff" points="221.95,-461.75 232.13,-464.69 226.01,-456.04 221.95,-461.75"/>
</a>
</g>
</g>
<!-- Node396 -->
<g id="Node000396" class="node">
<title>Node396</title>
<g id="a_Node000396"><a xlink:href="$m__context_8c.html#a895da8836c6805532fdf6c59211ad1d4" xlink:title=" ">
<polygon fill="white" stroke="#666666" points="322.5,-293.75 179.75,-293.75 179.75,-273 322.5,-273 322.5,-293.75"/>
<text xml:space="preserve" text-anchor="middle" x="251.12" y="-280.25" font-family="Helvetica,sans-Serif" font-size="10.00">m_context_init_effect_list</text>
</a>
</g>
</g>
<!-- Node2&#45;&gt;Node396 -->
<g id="edge32_Node000002_Node000396" class="edge">
<title>Node2&#45;&gt;Node396</title>
<g id="a_edge32_Node000002_Node000396"><a xlink:title=" ">
<path fill="none" stroke="#63b8ff" d="M144.16,-283.38C151.5,-283.38 159.59,-283.38 167.94,-283.38"/>
<polygon fill="#63b8ff" stroke="#63b8ff" points="167.92,-286.88 177.92,-283.38 167.92,-279.88 167.92,-286.88"/>
</a>
</g>
</g>
<!-- Node397 -->
<g id="Node000397" class="node">
<title>Node397</title>
<g id="a_Node000397"><a xlink:href="$m__ui_8c.html#a254d997b6187265df4f77635526d7517" xlink:title=" ">
<polygon fill="white" stroke="#666666" points="289.12,-254.75 213.12,-254.75 213.12,-234 289.12,-234 289.12,-254.75"/>
<text xml:space="preserve" text-anchor="middle" x="251.12" y="-241.25" font-family="Helvetica,sans-Serif" font-size="10.00">m_create_ui</text>
</a>
</g>
</g>
<!-- Node2&#45;&gt;Node397 -->
<g id="edge33_Node000002_Node000397" class="edge">
<title>Node2&#45;&gt;Node397</title>
<g id="a_edge33_Node000002_Node000397"><a xlink:title=" ">
<path fill="none" stroke="#63b8ff" d="M144.16,-274.13C161.46,-269.27 182.99,-263.23 202.11,-257.86"/>
<polygon fill="#63b8ff" stroke="#63b8ff" points="202.9,-261.27 211.59,-255.2 201.01,-254.53 202.9,-261.27"/>
</a>
</g>
</g>
<!-- Node428 -->
<g id="Node000428" class="node">
<title>Node428</title>
<g id="a_Node000428"><a xlink:href="$m__state_8c.html#ade70c4c59f1b52e6ccd2f2a5c63559a9" xlink:title=" ">
<polygon fill="#fff0f0" stroke="red" points="309,-332.75 193.25,-332.75 193.25,-312 309,-312 309,-332.75"/>
<text xml:space="preserve" text-anchor="middle" x="251.12" y="-319.25" font-family="Helvetica,sans-Serif" font-size="10.00">m_cxt_restore_state</text>
</a>
</g>
</g>
<!-- Node2&#45;&gt;Node428 -->
<g id="edge37_Node000002_Node000428" class="edge">
<title>Node2&#45;&gt;Node428</title>
<g id="a_edge37_Node000002_Node000428"><a xlink:title=" ">
<path fill="none" stroke="#63b8ff" d="M144.16,-292.62C160.98,-297.34 181.79,-303.19 200.51,-308.44"/>
<polygon fill="#63b8ff" stroke="#63b8ff" points="199.51,-311.8 210.08,-311.13 201.4,-305.06 199.51,-311.8"/>
</a>
</g>
</g>
<!-- Node431 -->
<g id="Node000431" class="node">
<title>Node431</title>
<g id="a_Node000431"><a xlink:href="$m__fpga__comms_8c.html#abfe39a66ff3496fa4bbb972c7ce434c0" xlink:title=" ">
<polygon fill="#fff0f0" stroke="red" points="311.25,-215.75 191,-215.75 191,-195 311.25,-195 311.25,-215.75"/>
<text xml:space="preserve" text-anchor="middle" x="251.12" y="-202.25" font-family="Helvetica,sans-Serif" font-size="10.00">m_fpga_comms_task</text>
</a>
</g>
</g>
<!-- Node2&#45;&gt;Node431 -->
<g id="edge42_Node000002_Node000431" class="edge">
<title>Node2&#45;&gt;Node431</title>
<g id="a_edge42_Node000002_Node000431"><a xlink:title=" ">
<path fill="none" stroke="#63b8ff" d="M120.9,-272.81C133.31,-259.83 156.1,-237.98 179.75,-225.38 183.38,-223.44 187.22,-221.67 191.16,-220.06"/>
<polygon fill="#63b8ff" stroke="#63b8ff" points="192.14,-223.43 200.31,-216.69 189.72,-216.86 192.14,-223.43"/>
</a>
</g>
</g>
<!-- Node448 -->
<g id="Node000448" class="node">
<title>Node448</title>
<g id="a_Node000448"><a xlink:href="$m__context_8c.html#a7e3116adcd8ee17698788b7d17a46018" xlink:title=" ">
<polygon fill="#fff0f0" stroke="red" points="295.5,-176.75 206.75,-176.75 206.75,-156 295.5,-156 295.5,-176.75"/>
<text xml:space="preserve" text-anchor="middle" x="251.12" y="-163.25" font-family="Helvetica,sans-Serif" font-size="10.00">m_init_context</text>
</a>
</g>
</g>
<!-- Node2&#45;&gt;Node448 -->
<g id="edge43_Node000002_Node000448" class="edge">
<title>Node2&#45;&gt;Node448</title>
<g id="a_edge43_Node000002_Node000448"><a xlink:title=" ">
<path fill="none" stroke="#63b8ff" d="M115.9,-272.51C125.07,-252.38 147.45,-209.26 179.75,-186.38 184.67,-182.89 190.19,-180 195.92,-177.62"/>
<polygon fill="#63b8ff" stroke="#63b8ff" points="196.71,-181.06 204.93,-174.37 194.34,-174.47 196.71,-181.06"/>
</a>
</g>
</g>
<!-- Node457 -->
<g id="Node000457" class="node">
<title>Node457</title>
<g id="a_Node000457"><a xlink:href="$m__files_8c.html#a148a60f96de7c38db3e92a7d777f8d29" xlink:title=" ">
<polygon fill="white" stroke="#666666" points="303,-137.75 199.25,-137.75 199.25,-117 303,-117 303,-137.75"/>
<text xml:space="preserve" text-anchor="middle" x="251.12" y="-124.25" font-family="Helvetica,sans-Serif" font-size="10.00">m_init_directories</text>
</a>
</g>
</g>
<!-- Node2&#45;&gt;Node457 -->
<g id="edge44_Node000002_Node000457" class="edge">
<title>Node2&#45;&gt;Node457</title>
<g id="a_edge44_Node000002_Node000457"><a xlink:title=" ">
<path fill="none" stroke="#63b8ff" d="M113.52,-272.7C119.55,-247.05 138.38,-181.56 179.75,-147.38 182.45,-145.14 185.39,-143.16 188.48,-141.39"/>
<polygon fill="#63b8ff" stroke="#63b8ff" points="189.9,-144.6 197.41,-137.13 186.88,-138.28 189.9,-144.6"/>
</a>
</g>
</g>
<!-- Node458 -->
<g id="Node000458" class="node">
<title>Node458</title>
<g id="a_Node000458"><a xlink:href="$m__ui_8c.html#a7a44c202906b5429286d990bb9374567" xlink:title=" ">
<polygon fill="#fff0f0" stroke="red" points="309.38,-98.75 192.88,-98.75 192.88,-78 309.38,-78 309.38,-98.75"/>
<text xml:space="preserve" text-anchor="middle" x="251.12" y="-85.25" font-family="Helvetica,sans-Serif" font-size="10.00">m_init_global_pages</text>
</a>
</g>
</g>
<!-- Node2&#45;&gt;Node458 -->
<g id="edge45_Node000002_Node000458" class="edge">
<title>Node2&#45;&gt;Node458</title>
<g id="a_edge45_Node000002_Node000458"><a xlink:title=" ">
<path fill="none" stroke="#63b8ff" d="M112.18,-272.92C115.43,-242.69 129.03,-154.44 179.75,-108.38 181.01,-107.23 182.34,-106.15 183.71,-105.13"/>
<polygon fill="#63b8ff" stroke="#63b8ff" points="185.4,-108.2 192.14,-100.03 181.77,-102.21 185.4,-108.2"/>
</a>
</g>
</g>
<!-- Node491 -->
<g id="Node000491" class="node">
<title>Node491</title>
<g id="a_Node000491"><a xlink:href="$m__param__update_8h.html#a6efb4cf51d40b0f7a299614c786b3950" xlink:title=" ">
<polygon fill="white" stroke="#666666" points="315,-59.75 187.25,-59.75 187.25,-39 315,-39 315,-59.75"/>
<text xml:space="preserve" text-anchor="middle" x="251.12" y="-46.25" font-family="Helvetica,sans-Serif" font-size="10.00">m_param_update_task</text>
</a>
</g>
</g>
<!-- Node2&#45;&gt;Node491 -->
<g id="edge46_Node000002_Node000491" class="edge">
<title>Node2&#45;&gt;Node491</title>
<g id="a_edge46_Node000002_Node000491"><a xlink:title=" ">
<path fill="none" stroke="#63b8ff" d="M111.33,-272.67C112.2,-237.96 119.76,-127.43 179.75,-69.38 180.95,-68.22 182.21,-67.12 183.52,-66.09"/>
<polygon fill="#63b8ff" stroke="#63b8ff" points="185.01,-69.29 191.57,-60.97 181.25,-63.39 185.01,-69.29"/>
</a>
</g>
</g>
<!-- Node492 -->
<g id="Node000492" class="node">
<title>Node492</title>
<g id="a_Node000492"><a xlink:href="$m__printf_8c.html#aa77694235a6c4ad5fd4571acf2461138" xlink:title=" ">
<polygon fill="white" stroke="#666666" points="290.25,-20.75 212,-20.75 212,0 290.25,0 290.25,-20.75"/>
<text xml:space="preserve" text-anchor="middle" x="251.12" y="-7.25" font-family="Helvetica,sans-Serif" font-size="10.00">m_printf_init</text>
</a>
</g>
</g>
<!-- Node2&#45;&gt;Node492 -->
<g id="edge47_Node000002_Node000492" class="edge">
<title>Node2&#45;&gt;Node492</title>
<g id="a_edge47_Node000002_Node000492"><a xlink:title=" ">
<path fill="none" stroke="#63b8ff" d="M110.71,-272.71C109.39,-234.18 110.2,-100.8 179.75,-30.38 185.58,-24.47 193.01,-20.28 200.86,-17.31"/>
<polygon fill="#63b8ff" stroke="#63b8ff" points="201.72,-20.71 210.25,-14.42 199.66,-14.02 201.72,-20.71"/>
</a>
</g>
</g>
<!-- Node4 -->
<g id="Node000004" class="node">
<title>Node4</title>
<g id="a_Node000004"><a xlink:href="$m__effect__select_8c.html#ab05aa27f2f08f5ee0e82ef9222f17361" xlink:title=" ">
<polygon fill="#fff0f0" stroke="red" points="495.25,-1096.12 370.5,-1096.12 370.5,-1062.62 495.25,-1062.62 495.25,-1096.12"/>
<text xml:space="preserve" text-anchor="start" x="378.5" y="-1082.62" font-family="Helvetica,sans-Serif" font-size="10.00">create_effect_selector</text>
<text xml:space="preserve" text-anchor="middle" x="432.88" y="-1069.88" font-family="Helvetica,sans-Serif" font-size="10.00">_ui_eff</text>
</a>
</g>
</g>
<!-- Node3&#45;&gt;Node4 -->
<g id="edge3_Node000003_Node000004" class="edge">
<title>Node3&#45;&gt;Node4</title>
<g id="a_edge3_Node000003_Node000004"><a xlink:title=" ">
<path fill="none" stroke="#63b8ff" d="M267.79,-1000.18C288.06,-1013.83 324.78,-1037.46 358.5,-1053.38 361.8,-1054.93 365.22,-1056.45 368.7,-1057.92"/>
<polygon fill="#63b8ff" stroke="#63b8ff" points="367.26,-1061.11 377.84,-1061.61 369.88,-1054.62 367.26,-1061.11"/>
</a>
</g>
</g>
<!-- Node163 -->
<g id="Node000163" class="node">
<title>Node163</title>
<g id="a_Node000163"><a xlink:href="$m__effect__select_8c.html#a64a407c55661894530102d592e9c2711" xlink:title=" ">
<polygon fill="white" stroke="#666666" points="492.62,-1044.75 373.12,-1044.75 373.12,-1024 492.62,-1024 492.62,-1044.75"/>
<text xml:space="preserve" text-anchor="middle" x="432.88" y="-1031.25" font-family="Helvetica,sans-Serif" font-size="10.00">enter_effect_selector</text>
</a>
</g>
</g>
<!-- Node3&#45;&gt;Node163 -->
<g id="edge4_Node000003_Node000163" class="edge">
<title>Node3&#45;&gt;Node163</title>
<g id="a_edge4_Node000003_Node000163"><a xlink:title=" ">
<path fill="none" stroke="#63b8ff" d="M295.18,-1000.15C319.9,-1006.34 351.17,-1014.17 377.57,-1020.78"/>
<polygon fill="#63b8ff" stroke="#63b8ff" points="376.53,-1024.13 387.08,-1023.16 378.23,-1017.34 376.53,-1024.13"/>
</a>
</g>
</g>
<!-- Node164 -->
<g id="Node000164" class="node">
<title>Node164</title>
<g id="a_Node000164"><a xlink:href="$m__effect__select_8c.html#ada62ab54fd6f7c19f4f5172dec4ff366" xlink:title=" ">
<polygon fill="white" stroke="#666666" points="490.38,-1006.12 375.38,-1006.12 375.38,-972.62 490.38,-972.62 490.38,-1006.12"/>
<text xml:space="preserve" text-anchor="start" x="383.38" y="-992.62" font-family="Helvetica,sans-Serif" font-size="10.00">init_effect_selector</text>
<text xml:space="preserve" text-anchor="middle" x="432.88" y="-979.88" font-family="Helvetica,sans-Serif" font-size="10.00">_button_from_effect</text>
</a>
</g>
</g>
<!-- Node3&#45;&gt;Node164 -->
<g id="edge5_Node000003_Node000164" class="edge">
<title>Node3&#45;&gt;Node164</title>
<g id="a_edge5_Node000003_Node000164"><a xlink:title=" ">
<path fill="none" stroke="#63b8ff" d="M315.75,-989.38C331.27,-989.38 347.94,-989.38 363.67,-989.38"/>
<polygon fill="#63b8ff" stroke="#63b8ff" points="363.41,-992.88 373.41,-989.38 363.41,-985.88 363.41,-992.88"/>
</a>
</g>
</g>
<!-- Node165 -->
<g id="Node000165" class="node">
<title>Node165</title>
<g id="a_Node000165"><a xlink:href="$m__ui_8c.html#af00906d3db4ae068f5cd832bb5052d83" xlink:title=" ">
<polygon fill="white" stroke="#666666" points="646.25,-883.75 571,-883.75 571,-863 646.25,-863 646.25,-883.75"/>
<text xml:space="preserve" text-anchor="middle" x="608.62" y="-870.25" font-family="Helvetica,sans-Serif" font-size="10.00">init_ui_page</text>
</a>
</g>
</g>
<!-- Node3&#45;&gt;Node165 -->
<g id="edge6_Node000003_Node000165" class="edge">
<title>Node3&#45;&gt;Node165</title>
<g id="a_edge6_Node000003_Node000165"><a xlink:title=" ">
<path fill="none" stroke="#63b8ff" d="M296.41,-978.55C366.79,-961.3 497.31,-929.14 507.25,-925.38 532.92,-915.66 560.5,-901.04 580.24,-889.77"/>
<polygon fill="#63b8ff" stroke="#63b8ff" points="581.87,-892.87 588.76,-884.83 578.36,-886.82 581.87,-892.87"/>
</a>
</g>
</g>
<!-- Node167 -->
<g id="Node000167" class="node">
<title>Node167</title>
<g id="a_Node000167"><a xlink:href="$m__files_8c.html#af2c9a5f230b9dd7908c5fbadd69e715e" xlink:title=" ">
<polygon fill="white" stroke="#666666" points="493,-658.75 372.75,-658.75 372.75,-638 493,-638 493,-658.75"/>
<text xml:space="preserve" text-anchor="middle" x="432.88" y="-645.25" font-family="Helvetica,sans-Serif" font-size="10.00">list_files_in_directory</text>
</a>
</g>
</g>
<!-- Node166&#45;&gt;Node167 -->
<g id="edge8_Node000166_Node000167" class="edge">
<title>Node166&#45;&gt;Node167</title>
<g id="a_edge8_Node000166_Node000167"><a xlink:title=" ">
<path fill="none" stroke="#63b8ff" d="M258.94,-772.64C274,-749.82 312.46,-696.3 358.5,-668.38 361.45,-666.58 364.57,-664.95 367.78,-663.46"/>
<polygon fill="#63b8ff" stroke="#63b8ff" points="368.96,-666.76 376.9,-659.75 366.32,-660.28 368.96,-666.76"/>
</a>
</g>
</g>
<!-- Node168 -->
<g id="Node000168" class="node">
<title>Node168</title>
<g id="a_Node000168"><a xlink:href="$m__eff__parser_8c.html#a1fd21ee54d95b5d2fb4535cf0dac0986" xlink:title=" ">
<polygon fill="#fff0f0" stroke="red" points="489.62,-916.12 376.12,-916.12 376.12,-882.62 489.62,-882.62 489.62,-916.12"/>
<text xml:space="preserve" text-anchor="start" x="384.12" y="-902.62" font-family="Helvetica,sans-Serif" font-size="10.00">m_eff_parser_deinit</text>
<text xml:space="preserve" text-anchor="middle" x="432.88" y="-889.88" font-family="Helvetica,sans-Serif" font-size="10.00">_mempool</text>
</a>
</g>
</g>
<!-- Node166&#45;&gt;Node168 -->
<g id="edge9_Node000166_Node000168" class="edge">
<title>Node166&#45;&gt;Node168</title>
<g id="a_edge9_Node000166_Node000168"><a xlink:title=" ">
<path fill="none" stroke="#63b8ff" d="M262.02,-793.96C279.77,-812.4 318.85,-850.6 358.5,-873.38 360.96,-874.79 363.51,-876.15 366.12,-877.44"/>
<polygon fill="#63b8ff" stroke="#63b8ff" points="364.49,-880.55 375.04,-881.54 367.41,-874.19 364.49,-880.55"/>
</a>
</g>
</g>
<!-- Node170 -->
<g id="Node000170" class="node">
<title>Node170</title>
<g id="a_Node000170"><a xlink:href="$m__eff__parser_8c.html#a47fbc13c9c41c8f6f7e330aada19d746" xlink:title=" ">
<polygon fill="#fff0f0" stroke="red" points="488.12,-864.12 377.62,-864.12 377.62,-830.62 488.12,-830.62 488.12,-864.12"/>
<text xml:space="preserve" text-anchor="start" x="385.62" y="-850.62" font-family="Helvetica,sans-Serif" font-size="10.00">m_eff_parser_reset</text>
<text xml:space="preserve" text-anchor="middle" x="432.88" y="-837.88" font-family="Helvetica,sans-Serif" font-size="10.00">_mempool</text>
</a>
</g>
</g>
<!-- Node166&#45;&gt;Node170 -->
<g id="edge10_Node000166_Node000170" class="edge">
<title>Node166&#45;&gt;Node170</title>
<g id="a_edge10_Node000166_Node000170"><a xlink:title=" ">
<path fill="none" stroke="#63b8ff" d="M282.38,-794.21C303.66,-801.82 332.82,-812.24 358.5,-821.38 363.14,-823.02 367.94,-824.73 372.77,-826.45"/>
<polygon fill="#63b8ff" stroke="#63b8ff" points="371.3,-829.64 381.9,-829.68 373.64,-823.04 371.3,-829.64"/>
</a>
</g>
</g>
<!-- Node166&#45;&gt;Node47 -->
<g id="edge11_Node000166_Node000047" class="edge">
<title>Node166&#45;&gt;Node47</title>
<g id="a_edge11_Node000166_Node000047"><a xlink:title=" ">
<path fill="none" stroke="#63b8ff" d="M289.5,-781.38C346.73,-778.32 457.25,-772.41 531.75,-768.43"/>
<polygon fill="#63b8ff" stroke="#63b8ff" points="531.61,-771.94 541.41,-767.91 531.24,-764.95 531.61,-771.94"/>
</a>
</g>
</g>
<!-- Node172 -->
<g id="Node000172" class="node">
<title>Node172</title>
<g id="a_Node000172"><a xlink:href="$m__eff__parser_8c.html#aabfa1bb37d0bead1605fb10e348fe43c" xlink:title=" ">
<polygon fill="#fff0f0" stroke="red" points="507.25,-812.75 358.5,-812.75 358.5,-792 507.25,-792 507.25,-812.75"/>
<text xml:space="preserve" text-anchor="middle" x="432.88" y="-799.25" font-family="Helvetica,sans-Serif" font-size="10.00">m_read_eff_desc_from_file</text>
</a>
</g>
</g>
<!-- Node166&#45;&gt;Node172 -->
<g id="edge12_Node000166_Node000172" class="edge">
<title>Node166&#45;&gt;Node172</title>
<g id="a_edge12_Node000166_Node000172"><a xlink:title=" ">
<path fill="none" stroke="#63b8ff" d="M289.37,-787.31C306.2,-789.09 326.84,-791.27 347.12,-793.42"/>
<polygon fill="#63b8ff" stroke="#63b8ff" points="346.51,-796.87 356.83,-794.44 347.25,-789.91 346.51,-796.87"/>
</a>
</g>
</g>
<!-- Node172&#45;&gt;Node47 -->
<g id="edge13_Node000172_Node000047" class="edge">
<title>Node172&#45;&gt;Node47</title>
<g id="a_edge13_Node000172_Node000047"><a xlink:title=" ">
<path fill="none" stroke="#63b8ff" d="M483.2,-791.59C503.1,-787.24 526.26,-782.17 547.16,-777.6"/>
<polygon fill="#63b8ff" stroke="#63b8ff" points="547.68,-781.07 556.7,-775.51 546.18,-774.23 547.68,-781.07"/>
</a>
</g>
</g>
<!-- Node290&#45;&gt;Node167 -->
<g id="edge19_Node000290_Node000167" class="edge">
<title>Node290&#45;&gt;Node167</title>
<g id="a_edge19_Node000290_Node000167"><a xlink:title=" ">
<path fill="none" stroke="#63b8ff" d="M308.01,-634.59C324.75,-636.46 343.34,-638.52 360.91,-640.48"/>
<polygon fill="#63b8ff" stroke="#63b8ff" points="360.45,-643.95 370.78,-641.58 361.23,-636.99 360.45,-643.95"/>
</a>
</g>
</g>
<!-- Node291 -->
<g id="Node000291" class="node">
<title>Node291</title>
<g id="a_Node000291"><a xlink:href="$m__profile__view_8c.html#aa40a3918b18bbfa3df5aa489d947258a" xlink:title=" ">
<polygon fill="#fff0f0" stroke="red" points="498.25,-736.75 367.5,-736.75 367.5,-716 498.25,-716 498.25,-736.75"/>
<text xml:space="preserve" text-anchor="middle" x="432.88" y="-723.25" font-family="Helvetica,sans-Serif" font-size="10.00">create_profile_view_for</text>
</a>
</g>
</g>
<!-- Node290&#45;&gt;Node291 -->
<g id="edge15_Node000290_Node000291" class="edge">
<title>Node290&#45;&gt;Node291</title>
<g id="a_edge15_Node000290_Node000291"><a xlink:title=" ">
<path fill="none" stroke="#63b8ff" d="M263.63,-639.07C282.2,-655.78 320.55,-688.07 358.5,-706.38 362.71,-708.41 367.17,-710.26 371.71,-711.95"/>
<polygon fill="#63b8ff" stroke="#63b8ff" points="370.39,-715.19 380.99,-715.09 372.64,-708.56 370.39,-715.19"/>
</a>
</g>
</g>
<!-- Node346 -->
<g id="Node000346" class="node">
<title>Node346</title>
<g id="a_Node000346"><a xlink:href="$m__profile_8c.html#a924661c699938ec0a5887d77760265e8" xlink:title=" ">
<polygon fill="#fff0f0" stroke="red" points="469,-619.75 396.75,-619.75 396.75,-599 469,-599 469,-619.75"/>
<text xml:space="preserve" text-anchor="middle" x="432.88" y="-606.25" font-family="Helvetica,sans-Serif" font-size="10.00">free_profile</text>
</a>
</g>
</g>
<!-- Node290&#45;&gt;Node346 -->
<g id="edge17_Node000290_Node000346" class="edge">
<title>Node290&#45;&gt;Node346</title>
<g id="a_edge17_Node000290_Node000346"><a xlink:title=" ">
<path fill="none" stroke="#63b8ff" d="M308.01,-622.47C332.81,-619.85 361.66,-616.8 385.27,-614.3"/>
<polygon fill="#63b8ff" stroke="#63b8ff" points="385.32,-617.82 394.9,-613.28 384.58,-610.85 385.32,-617.82"/>
</a>
</g>
</g>
<!-- Node349 -->
<g id="Node000349" class="node">
<title>Node349</title>
<g id="a_Node000349"><a xlink:href="$m__profile_8c.html#ab73797729c3c2878fcbc0e8eb3a3b1d1" xlink:title=" ">
<polygon fill="#fff0f0" stroke="red" points="474.62,-697.75 391.12,-697.75 391.12,-677 474.62,-677 474.62,-697.75"/>
<text xml:space="preserve" text-anchor="middle" x="432.88" y="-684.25" font-family="Helvetica,sans-Serif" font-size="10.00">init_m_profile</text>
</a>
</g>
</g>
<!-- Node290&#45;&gt;Node349 -->
<g id="edge18_Node000290_Node000349" class="edge">
<title>Node290&#45;&gt;Node349</title>
<g id="a_edge18_Node000290_Node000349"><a xlink:title=" ">
<path fill="none" stroke="#63b8ff" d="M279.45,-639.12C300.81,-647.35 331.33,-658.71 358.5,-667.38 365.43,-669.59 372.78,-671.77 380.05,-673.84"/>
<polygon fill="#63b8ff" stroke="#63b8ff" points="378.91,-677.16 389.48,-676.47 380.79,-670.42 378.91,-677.16"/>
</a>
</g>
</g>
<!-- Node352 -->
<g id="Node000352" class="node">
<title>Node352</title>
<g id="a_Node000352"><a xlink:href="$m__files_8c.html#aaedbe054d0c35b3489a1efd8231ba33f" xlink:title=" ">
<polygon fill="#fff0f0" stroke="red" points="494.88,-543.75 370.88,-543.75 370.88,-523 494.88,-523 494.88,-543.75"/>
<text xml:space="preserve" text-anchor="middle" x="432.88" y="-530.25" font-family="Helvetica,sans-Serif" font-size="10.00">read_profile_from_file</text>
</a>
</g>
</g>
<!-- Node290&#45;&gt;Node352 -->
<g id="edge20_Node000290_Node000352" class="edge">
<title>Node290&#45;&gt;Node352</title>
<g id="a_edge20_Node000290_Node000352"><a xlink:title=" ">
<path fill="none" stroke="#63b8ff" d="M272.4,-617.66C303.82,-601.06 364.48,-568.99 401.26,-549.55"/>
<polygon fill="#63b8ff" stroke="#63b8ff" points="402.86,-552.67 410.06,-544.9 399.59,-546.48 402.86,-552.67"/>
</a>
</g>
</g>
<!-- Node291&#45;&gt;Node165 -->
<g id="edge16_Node000291_Node000165" class="edge">
<title>Node291&#45;&gt;Node165</title>
<g id="a_edge16_Node000291_Node000165"><a xlink:title=" ">
<path fill="none" stroke="#63b8ff" d="M448.45,-737.22C463.43,-748.48 487.31,-766.73 507.25,-783.38 535.92,-807.31 567.84,-836.37 587.83,-854.87"/>
<polygon fill="#63b8ff" stroke="#63b8ff" points="585.3,-857.3 595.01,-861.54 590.06,-852.17 585.3,-857.3"/>
</a>
</g>
</g>
<!-- Node94 -->
<g id="Node000094" class="node">
<title>Node94</title>
<g id="a_Node000094"><a xlink:href="$m__files_8c.html#ab79d861306c25eab9284239e73d0cc07" xlink:title=" ">
<polygon fill="white" stroke="#666666" points="664.62,-505.75 552.62,-505.75 552.62,-485 664.62,-485 664.62,-505.75"/>
<text xml:space="preserve" text-anchor="middle" x="608.62" y="-492.25" font-family="Helvetica,sans-Serif" font-size="10.00">dump_file_contents</text>
</a>
</g>
</g>
<!-- Node352&#45;&gt;Node94 -->
<g id="edge21_Node000352_Node000094" class="edge">
<title>Node352&#45;&gt;Node94</title>
<g id="a_edge21_Node000352_Node000094"><a xlink:title=" ">
<path fill="none" stroke="#63b8ff" d="M483.2,-522.59C503.1,-518.24 526.26,-513.17 547.16,-508.6"/>
<polygon fill="#63b8ff" stroke="#63b8ff" points="547.68,-512.07 556.7,-506.51 546.18,-505.23 547.68,-512.07"/>
</a>
</g>
</g>
<!-- Node354&#45;&gt;Node167 -->
<g id="edge26_Node000354_Node000167" class="edge">
<title>Node354&#45;&gt;Node167</title>
<g id="a_edge26_Node000354_Node000167"><a xlink:title=" ">
<path fill="none" stroke="#63b8ff" d="M271.36,-410.12C287.56,-420.2 310.03,-436.79 322.5,-457.38 362.73,-523.81 305.21,-571.87 358.5,-628.38 359.87,-629.83 361.33,-631.18 362.88,-632.44"/>
<polygon fill="#63b8ff" stroke="#63b8ff" points="360.89,-635.32 371.19,-637.82 364.7,-629.44 360.89,-635.32"/>
</a>
</g>
</g>
<!-- Node355 -->
<g id="Node000355" class="node">
<title>Node355</title>
<g id="a_Node000355"><a xlink:href="$m__sequence__view_8c.html#a4fa55191d58cc7d7c322e295288cabf4" xlink:title=" ">
<polygon fill="#fff0f0" stroke="red" points="505.75,-389.75 360,-389.75 360,-369 505.75,-369 505.75,-389.75"/>
<text xml:space="preserve" text-anchor="middle" x="432.88" y="-376.25" font-family="Helvetica,sans-Serif" font-size="10.00">create_sequence_view_for</text>
</a>
</g>
</g>
<!-- Node354&#45;&gt;Node355 -->
<g id="edge23_Node000354_Node000355" class="edge">
<title>Node354&#45;&gt;Node355</title>
<g id="a_edge23_Node000354_Node000355"><a xlink:title=" ">
<path fill="none" stroke="#63b8ff" d="M315.75,-392.3C326.32,-391.12 337.42,-389.88 348.39,-388.66"/>
<polygon fill="#63b8ff" stroke="#63b8ff" points="348.7,-392.15 358.25,-387.57 347.92,-385.19 348.7,-392.15"/>
</a>
</g>
</g>
<!-- Node387 -->
<g id="Node000387" class="node">
<title>Node387</title>
<g id="a_Node000387"><a xlink:href="$m__sequence_8c.html#a18fffaa87c5ec509ff4f7d86f8ccdb25" xlink:title=" ">
<polygon fill="white" stroke="#666666" points="476.5,-350.75 389.25,-350.75 389.25,-330 476.5,-330 476.5,-350.75"/>
<text xml:space="preserve" text-anchor="middle" x="432.88" y="-337.25" font-family="Helvetica,sans-Serif" font-size="10.00">free_sequence</text>
</a>
</g>
</g>
<!-- Node354&#45;&gt;Node387 -->
<g id="edge24_Node000354_Node000387" class="edge">
<title>Node354&#45;&gt;Node387</title>
<g id="a_edge24_Node000354_Node000387"><a xlink:title=" ">
<path fill="none" stroke="#63b8ff" d="M279.45,-388.63C300.81,-380.4 331.33,-369.04 358.5,-360.38 365.1,-358.27 372.09,-356.18 379.01,-354.2"/>
<polygon fill="#63b8ff" stroke="#63b8ff" points="379.64,-357.66 388.33,-351.59 377.76,-350.92 379.64,-357.66"/>
</a>
</g>
</g>
<!-- Node388 -->
<g id="Node000388" class="node">
<title>Node388</title>
<g id="a_Node000388"><a xlink:href="$m__sequence_8c.html#a6de5f70fc053e402f5cb958b54e5929a" xlink:title=" ">
<polygon fill="#fff0f0" stroke="red" points="482.12,-467.75 383.62,-467.75 383.62,-447 482.12,-447 482.12,-467.75"/>
<text xml:space="preserve" text-anchor="middle" x="432.88" y="-454.25" font-family="Helvetica,sans-Serif" font-size="10.00">init_m_sequence</text>
</a>
</g>
</g>
<!-- Node354&#45;&gt;Node388 -->
<g id="edge25_Node000354_Node000388" class="edge">
<title>Node354&#45;&gt;Node388</title>
<g id="a_edge25_Node000354_Node000388"><a xlink:title=" ">
<path fill="none" stroke="#63b8ff" d="M280.37,-410.13C301.69,-418.09 331.75,-428.96 358.5,-437.38 365.11,-439.45 372.1,-441.52 379.03,-443.49"/>
<polygon fill="#63b8ff" stroke="#63b8ff" points="377.78,-446.78 388.35,-446.1 379.66,-440.04 377.78,-446.78"/>
</a>
</g>
</g>
<!-- Node390 -->
<g id="Node000390" class="node">
<title>Node390</title>
<g id="a_Node000390"><a xlink:href="$m__files_8c.html#a8da346d30dfa12117c7bec1add11153c" xlink:title=" ">
<polygon fill="#fff0f0" stroke="red" points="502.38,-428.75 363.38,-428.75 363.38,-408 502.38,-408 502.38,-428.75"/>
<text xml:space="preserve" text-anchor="middle" x="432.88" y="-415.25" font-family="Helvetica,sans-Serif" font-size="10.00">read_sequence_from_file</text>
</a>
</g>
</g>
<!-- Node354&#45;&gt;Node390 -->
<g id="edge27_Node000354_Node000390" class="edge">
<title>Node354&#45;&gt;Node390</title>
<g id="a_edge27_Node000354_Node000390"><a xlink:title=" ">
<path fill="none" stroke="#63b8ff" d="M315.75,-406.1C327.38,-407.33 339.66,-408.63 351.7,-409.9"/>
<polygon fill="#63b8ff" stroke="#63b8ff" points="351.33,-413.38 361.64,-410.95 352.06,-406.42 351.33,-413.38"/>
</a>
</g>
</g>
<!-- Node390&#45;&gt;Node94 -->
<g id="edge29_Node000390_Node000094" class="edge">
<title>Node390&#45;&gt;Node94</title>
<g id="a_edge29_Node000390_Node000094"><a xlink:title=" ">
<path fill="none" stroke="#63b8ff" d="M480.65,-429.24C489.62,-431.85 498.83,-434.9 507.25,-438.38 533.91,-449.37 562.32,-466.02 582.08,-478.49"/>
<polygon fill="#63b8ff" stroke="#63b8ff" points="579.99,-481.31 590.3,-483.76 583.77,-475.41 579.99,-481.31"/>
</a>
</g>
</g>
<!-- Node391 -->
<g id="Node000391" class="node">
<title>Node391</title>
<g id="a_Node000391"><a xlink:href="$m__context_8c.html#a62b38743df25267e66764a3c60908af9" xlink:title=" ">
<polygon fill="#fff0f0" stroke="red" points="661.62,-377.12 555.62,-377.12 555.62,-343.62 661.62,-343.62 661.62,-377.12"/>
<text xml:space="preserve" text-anchor="start" x="563.62" y="-363.62" font-family="Helvetica,sans-Serif" font-size="10.00">cxt_get_profile_by</text>
<text xml:space="preserve" text-anchor="middle" x="608.62" y="-350.88" font-family="Helvetica,sans-Serif" font-size="10.00">_fname</text>
</a>
</g>
</g>
<!-- Node390&#45;&gt;Node391 -->
<g id="edge28_Node000390_Node000391" class="edge">
<title>Node390&#45;&gt;Node391</title>
<g id="a_edge28_Node000390_Node000391"><a xlink:title=" ">
<path fill="none" stroke="#63b8ff" d="M476.37,-407.53C486.54,-404.73 497.33,-401.6 507.25,-398.38 522.65,-393.37 539.16,-387.39 554.26,-381.66"/>
<polygon fill="#63b8ff" stroke="#63b8ff" points="555.46,-384.95 563.55,-378.1 552.96,-378.41 555.46,-384.95"/>
</a>
</g>
</g>
<!-- Node395&#45;&gt;Node94 -->
<g id="edge31_Node000395_Node000094" class="edge">
<title>Node395&#45;&gt;Node94</title>
<g id="a_edge31_Node000395_Node000094"><a xlink:title=" ">
<path fill="none" stroke="#63b8ff" d="M309.64,-479.45C372.89,-482.83 474.39,-488.25 541.04,-491.82"/>
<polygon fill="#63b8ff" stroke="#63b8ff" points="540.56,-495.3 550.73,-492.33 540.93,-488.31 540.56,-495.3"/>
</a>
</g>
</g>
<!-- Node398 -->
<g id="Node000398" class="node">
<title>Node398</title>
<g id="a_Node000398"><a xlink:href="$m__sequence__list_8c.html#a99eacbf422f3e13ac9eb7ea2aea8c404" xlink:title=" ">
<polygon fill="#fff0f0" stroke="red" points="499.75,-196.75 366,-196.75 366,-176 499.75,-176 499.75,-196.75"/>
<text xml:space="preserve" text-anchor="middle" x="432.88" y="-183.25" font-family="Helvetica,sans-Serif" font-size="10.00">configure_sequence_list</text>
</a>
</g>
</g>
<!-- Node397&#45;&gt;Node398 -->
<g id="edge34_Node000397_Node000398" class="edge">
<title>Node397&#45;&gt;Node398</title>
<g id="a_edge34_Node000397_Node000398"><a xlink:title=" ">
<path fill="none" stroke="#63b8ff" d="M289.44,-235.17C300.24,-232.13 311.96,-228.47 322.5,-224.38 339.18,-217.9 341.79,-212.76 358.5,-206.38 364.13,-204.23 370.08,-202.21 376.06,-200.34"/>
<polygon fill="#63b8ff" stroke="#63b8ff" points="376.76,-203.78 385.35,-197.58 374.77,-197.07 376.76,-203.78"/>
</a>
</g>
</g>
<!-- Node426 -->
<g id="Node000426" class="node">
<title>Node426</title>
<g id="a_Node000426"><a xlink:href="$m__ui_8c.html#a836b0eb3d4ebeda48927c9e0d5f238f5" xlink:title=" ">
<polygon fill="white" stroke="#666666" points="485.5,-157.75 380.25,-157.75 380.25,-137 485.5,-137 485.5,-157.75"/>
<text xml:space="preserve" text-anchor="middle" x="432.88" y="-144.25" font-family="Helvetica,sans-Serif" font-size="10.00">configure_ui_page</text>
</a>
</g>
</g>
<!-- Node397&#45;&gt;Node426 -->
<g id="edge35_Node000397_Node000426" class="edge">
<title>Node397&#45;&gt;Node426</title>
<g id="a_edge35_Node000397_Node000426"><a xlink:title=" ">
<path fill="none" stroke="#63b8ff" d="M289.52,-239.08C300.91,-236.12 312.94,-231.53 322.5,-224.38 346.49,-206.43 334.41,-185.19 358.5,-167.38 361.88,-164.87 365.56,-162.68 369.41,-160.77"/>
<polygon fill="#63b8ff" stroke="#63b8ff" points="370.67,-164.03 378.51,-156.9 367.94,-157.59 370.67,-164.03"/>
</a>
</g>
</g>
<!-- Node427 -->
<g id="Node000427" class="node">
<title>Node427</title>
<g id="a_Node000427"><a xlink:href="$m__ui_8c.html#a181dc230fd821201df943a17b3fc3d43" xlink:title=" ">
<polygon fill="#fff0f0" stroke="red" points="475.38,-118.75 390.38,-118.75 390.38,-98 475.38,-98 475.38,-118.75"/>
<text xml:space="preserve" text-anchor="middle" x="432.88" y="-105.25" font-family="Helvetica,sans-Serif" font-size="10.00">enter_ui_page</text>
</a>
</g>
</g>
<!-- Node397&#45;&gt;Node427 -->
<g id="edge36_Node000397_Node000427" class="edge">
<title>Node397&#45;&gt;Node427</title>
<g id="a_edge36_Node000397_Node000427"><a xlink:title=" ">
<path fill="none" stroke="#63b8ff" d="M289.36,-240.47C301.14,-237.62 313.44,-232.72 322.5,-224.38 356.01,-193.5 324.82,-159.07 358.5,-128.38 364.4,-122.99 371.61,-119.04 379.18,-116.14"/>
<polygon fill="#63b8ff" stroke="#63b8ff" points="380.11,-119.52 388.58,-113.16 377.99,-112.84 380.11,-119.52"/>
</a>
</g>
</g>
<!-- Node428&#45;&gt;Node391 -->
<g id="edge38_Node000428_Node000391" class="edge">
<title>Node428&#45;&gt;Node391</title>
<g id="a_edge38_Node000428_Node000391"><a xlink:title=" ">
<path fill="none" stroke="#63b8ff" d="M309.43,-316.04C361.5,-311.72 440.21,-308.81 507.25,-321.38 525.97,-324.88 545.68,-331.77 562.63,-338.8"/>
<polygon fill="#63b8ff" stroke="#63b8ff" points="560.84,-341.84 571.41,-342.57 563.6,-335.41 560.84,-341.84"/>
</a>
</g>
</g>
<!-- Node429 -->
<g id="Node000429" class="node">
<title>Node429</title>
<g id="a_Node000429"><a xlink:href="$m__context_8c.html#a56f37a982eb709b820c47b27a75cf49d" xlink:title=" ">
<polygon fill="#fff0f0" stroke="red" points="494.12,-274.75 371.62,-274.75 371.62,-254 494.12,-254 494.12,-274.75"/>
<text xml:space="preserve" text-anchor="middle" x="432.88" y="-261.25" font-family="Helvetica,sans-Serif" font-size="10.00">m_cxt_set_input_gain</text>
</a>
</g>
</g>
<!-- Node428&#45;&gt;Node429 -->
<g id="edge39_Node000428_Node000429" class="edge">
<title>Node428&#45;&gt;Node429</title>
<g id="a_edge39_Node000428_Node000429"><a xlink:title=" ">
<path fill="none" stroke="#63b8ff" d="M292.52,-311.6C302.38,-308.77 312.87,-305.61 322.5,-302.38 338.77,-296.91 342.34,-294.16 358.5,-288.38 367.57,-285.13 377.33,-281.82 386.68,-278.73"/>
<polygon fill="#63b8ff" stroke="#63b8ff" points="387.54,-282.13 395.96,-275.69 385.37,-275.47 387.54,-282.13"/>
</a>
</g>
</g>
<!-- Node430 -->
<g id="Node000430" class="node">
<title>Node430</title>
<g id="a_Node000430"><a xlink:href="$m__context_8c.html#a4d574a06775c8b02111d19560d9d9253" xlink:title=" ">
<polygon fill="#fff0f0" stroke="red" points="497.5,-235.75 368.25,-235.75 368.25,-215 497.5,-215 497.5,-235.75"/>
<text xml:space="preserve" text-anchor="middle" x="432.88" y="-222.25" font-family="Helvetica,sans-Serif" font-size="10.00">m_cxt_set_output_gain</text>
</a>
</g>
</g>
<!-- Node428&#45;&gt;Node430 -->
<g id="edge40_Node000428_Node000430" class="edge">
<title>Node428&#45;&gt;Node430</title>
<g id="a_edge40_Node000428_Node000430"><a xlink:title=" ">
<path fill="none" stroke="#63b8ff" d="M305.98,-311.6C311.86,-309.14 317.52,-306.1 322.5,-302.38 346.49,-284.43 334.41,-263.19 358.5,-245.38 360.53,-243.88 362.66,-242.49 364.87,-241.21"/>
<polygon fill="#63b8ff" stroke="#63b8ff" points="366.21,-244.45 373.63,-236.89 363.11,-238.17 366.21,-244.45"/>
</a>
</g>
</g>
</g>
</svg>
