<?xml version="1.0" encoding="UTF-8" standalone="no"?>
<!DOCTYPE svg PUBLIC "-//W3C//DTD SVG 1.1//EN"
 "http://www.w3.org/Graphics/SVG/1.1/DTD/svg11.dtd">
<!-- Generated by graphviz version 13.1.2 (20250808.2320)
 -->
<!-- Title: m_defs_section_extract Pages: 1 -->
<svg width="519pt" height="158pt"
 viewBox="0.00 0.00 519.00 158.00" xmlns="http://www.w3.org/2000/svg" xmlns:xlink="http://www.w3.org/1999/xlink">
<g id="graph0" class="graph" transform="scale(1 1) rotate(0) translate(4 154.12)">
<title>m_defs_section_extract</title>
<!-- Node1 -->
<g id="Node000001" class="node">
<title>Node1</title>
<g id="a_Node000001"><a xlink:title=" ">
<polygon fill="#999999" stroke="#666666" points="132.25,-78.75 0,-78.75 0,-58 132.25,-58 132.25,-78.75"/>
<text xml:space="preserve" text-anchor="middle" x="66.12" y="-65.25" font-family="Helvetica,sans-Serif" font-size="10.00">m_defs_section_extract</text>
</a>
</g>
</g>
<!-- Node2 -->
<g id="Node000002" class="node">
<title>Node2</title>
<g id="a_Node000002"><a xlink:href="m__dictionary_8c.html#a1f16d9ec523183005268f46bd2cb8b76" target="_top" xlink:title=" ">
<polygon fill="white" stroke="#666666" points="297.5,-150.12 175.75,-150.12 175.75,-116.62 297.5,-116.62 297.5,-150.12"/>
<text xml:space="preserve" text-anchor="start" x="183.75" y="-136.62" font-family="Helvetica,sans-Serif" font-size="10.00">m_dict_entry_type_to</text>
<text xml:space="preserve" text-anchor="middle" x="236.62" y="-123.88" font-family="Helvetica,sans-Serif" font-size="10.00">_string</text>
</a>
</g>
</g>
<!-- Node1&#45;&gt;Node2 -->
<g id="edge1_Node000001_Node000002" class="edge">
<title>Node1&#45;&gt;Node2</title>
<g id="a_edge1_Node000001_Node000002"><a xlink:title=" ">
<path fill="none" stroke="#63b8ff" d="M94.95,-79.11C118.07,-88.03 151.7,-101 180.27,-112.02"/>
<polygon fill="#63b8ff" stroke="#63b8ff" points="178.94,-115.26 189.53,-115.59 181.46,-108.73 178.94,-115.26"/>
</a>
</g>
</g>
<!-- Node3 -->
<g id="Node000003" class="node">
<title>Node3</title>
<g id="a_Node000003"><a xlink:href="m__error__codes_8c.html#a5298df5c7af3a6aac90c055a615b171a" target="_top" xlink:title=" ">
<polygon fill="white" stroke="#666666" points="302,-98.75 171.25,-98.75 171.25,-78 302,-78 302,-98.75"/>
<text xml:space="preserve" text-anchor="middle" x="236.62" y="-85.25" font-family="Helvetica,sans-Serif" font-size="10.00">m_error_code_to_string</text>
</a>
</g>
</g>
<!-- Node1&#45;&gt;Node3 -->
<g id="edge2_Node000001_Node000003" class="edge">
<title>Node1&#45;&gt;Node3</title>
<g id="a_edge2_Node000001_Node000003"><a xlink:title=" ">
<path fill="none" stroke="#63b8ff" d="M132.27,-76.11C141.19,-77.17 150.41,-78.26 159.51,-79.34"/>
<polygon fill="#63b8ff" stroke="#63b8ff" points="159.08,-82.81 169.43,-80.52 159.91,-75.86 159.08,-82.81"/>
</a>
</g>
</g>
<!-- Node4 -->
<g id="Node000004" class="node">
<title>Node4</title>
<g id="a_Node000004"><a xlink:href="m__expr__scope_8c.html#af38d532afecd60a49b588a06bfa77af1" target="_top" xlink:title=" ">
<polygon fill="white" stroke="#666666" points="305,-59.75 168.25,-59.75 168.25,-39 305,-39 305,-59.75"/>
<text xml:space="preserve" text-anchor="middle" x="236.62" y="-46.25" font-family="Helvetica,sans-Serif" font-size="10.00">m_expr_scope_add_expr</text>
</a>
</g>
</g>
<!-- Node1&#45;&gt;Node4 -->
<g id="edge3_Node000001_Node000004" class="edge">
<title>Node1&#45;&gt;Node4</title>
<g id="a_edge3_Node000001_Node000004"><a xlink:title=" ">
<path fill="none" stroke="#63b8ff" d="M132.27,-61.03C140.2,-60.13 148.37,-59.21 156.48,-58.3"/>
<polygon fill="#63b8ff" stroke="#63b8ff" points="156.82,-61.78 166.36,-57.19 156.03,-54.83 156.82,-61.78"/>
</a>
</g>
</g>
<!-- Node6 -->
<g id="Node000006" class="node">
<title>Node6</title>
<g id="a_Node000006"><a xlink:href="m__eff__parser_8c.html#ad9eb07d549a255718539a9f825d2d630" target="_top" xlink:title=" ">
<polygon fill="white" stroke="#666666" points="300.88,-20.75 172.38,-20.75 172.38,0 300.88,0 300.88,-20.75"/>
<text xml:space="preserve" text-anchor="middle" x="236.62" y="-7.25" font-family="Helvetica,sans-Serif" font-size="10.00">m_parser_error_at_line</text>
</a>
</g>
</g>
<!-- Node1&#45;&gt;Node6 -->
<g id="edge5_Node000001_Node000006" class="edge">
<title>Node1&#45;&gt;Node6</title>
<g id="a_edge5_Node000001_Node000006"><a xlink:title=" ">
<path fill="none" stroke="#63b8ff" d="M94.41,-57.52C114.65,-49.62 143,-38.85 168.25,-30.38 174.11,-28.41 180.28,-26.44 186.42,-24.54"/>
<polygon fill="#63b8ff" stroke="#63b8ff" points="187.35,-27.92 195.9,-21.66 185.32,-21.22 187.35,-27.92"/>
</a>
</g>
</g>
<!-- Node5 -->
<g id="Node000005" class="node">
<title>Node5</title>
<g id="a_Node000005"><a xlink:href="m__expr__scope_8c.html#a3cc20416b51a8b8c455e165797bf6db4" target="_top" xlink:title=" ">
<polygon fill="white" stroke="#666666" points="510.75,-59.75 341,-59.75 341,-39 510.75,-39 510.75,-59.75"/>
<text xml:space="preserve" text-anchor="middle" x="425.88" y="-46.25" font-family="Helvetica,sans-Serif" font-size="10.00">m_new_expr_scope_entry_expr</text>
</a>
</g>
</g>
<!-- Node4&#45;&gt;Node5 -->
<g id="edge4_Node000004_Node000005" class="edge">
<title>Node4&#45;&gt;Node5</title>
<g id="a_edge4_Node000004_Node000005"><a xlink:title=" ">
<path fill="none" stroke="#63b8ff" d="M305.49,-49.38C313.25,-49.38 321.26,-49.38 329.28,-49.38"/>
<polygon fill="#63b8ff" stroke="#63b8ff" points="329.11,-52.88 339.11,-49.38 329.11,-45.88 329.11,-52.88"/>
</a>
</g>
</g>
</g>
</svg>
