<?xml version="1.0" encoding="UTF-8" standalone="no"?>
<!DOCTYPE svg PUBLIC "-//W3C//DTD SVG 1.1//EN"
 "http://www.w3.org/Graphics/SVG/1.1/DTD/svg11.dtd">
<!-- Generated by graphviz version 13.1.2 (20250808.2320)
 -->
<!-- Title: init_delay Pages: 1 -->
<svg width="530pt" height="94pt"
 viewBox="0.00 0.00 530.00 94.00" xmlns="http://www.w3.org/2000/svg" xmlns:xlink="http://www.w3.org/1999/xlink">
<g id="graph0" class="graph" transform="scale(1 1) rotate(0) translate(4 89.5)">
<title>init_delay</title>
<!-- Node1 -->
<g id="Node000001" class="node">
<title>Node1</title>
<g id="a_Node000001"><a xlink:title=" ">
<polygon fill="#999999" stroke="#666666" points="64,-52.12 0,-52.12 0,-31.38 64,-31.38 64,-52.12"/>
<text xml:space="preserve" text-anchor="middle" x="32" y="-38.62" font-family="Helvetica,sans-Serif" font-size="10.00">init_delay</text>
</a>
</g>
</g>
<!-- Node2 -->
<g id="Node000002" class="node">
<title>Node2</title>
<g id="a_Node000002"><a xlink:href="$m__effect_8c.html#a04f72018a5ac8693ac33407c9c163bdc" xlink:title=" ">
<polygon fill="white" stroke="#666666" points="224,-72.12 100,-72.12 100,-51.38 224,-51.38 224,-72.12"/>
<text xml:space="preserve" text-anchor="middle" x="162" y="-58.62" font-family="Helvetica,sans-Serif" font-size="10.00">effect_add_parameter</text>
</a>
</g>
</g>
<!-- Node1&#45;&gt;Node2 -->
<g id="edge1_Node000001_Node000002" class="edge">
<title>Node1&#45;&gt;Node2</title>
<g id="a_edge1_Node000001_Node000002"><a xlink:title=" ">
<path fill="none" stroke="#63b8ff" d="M64.31,-46.64C71.77,-47.81 80.05,-49.1 88.52,-50.43"/>
<polygon fill="#63b8ff" stroke="#63b8ff" points="87.81,-53.86 98.23,-51.94 88.89,-46.94 87.81,-53.86"/>
</a>
</g>
</g>
<!-- Node7 -->
<g id="Node000007" class="node">
<title>Node7</title>
<g id="a_Node000007"><a xlink:href="$m__effect_8c.html#a2c516973024b16430dc427476b79048e" xlink:title=" ">
<polygon fill="white" stroke="#666666" points="215.38,-33.12 108.62,-33.12 108.62,-12.38 215.38,-12.38 215.38,-33.12"/>
<text xml:space="preserve" text-anchor="middle" x="162" y="-19.62" font-family="Helvetica,sans-Serif" font-size="10.00">effect_add_setting</text>
</a>
</g>
</g>
<!-- Node1&#45;&gt;Node7 -->
<g id="edge4_Node000001_Node000007" class="edge">
<title>Node1&#45;&gt;Node7</title>
<g id="a_edge4_Node000001_Node000007"><a xlink:title=" ">
<path fill="none" stroke="#63b8ff" d="M64.31,-37.1C74.25,-35.63 85.62,-33.94 96.99,-32.25"/>
<polygon fill="#63b8ff" stroke="#63b8ff" points="97.44,-35.72 106.82,-30.79 96.41,-28.8 97.44,-35.72"/>
</a>
</g>
</g>
<!-- Node3 -->
<g id="Node000003" class="node">
<title>Node3</title>
<g id="a_Node000003"><a xlink:href="$m__parameter_8c.html#ac9a28134818c14fbd7ef921b535b28d8" xlink:title=" ">
<polygon fill="white" stroke="#666666" points="366,-75.12 260,-75.12 260,-54.38 366,-54.38 366,-75.12"/>
<text xml:space="preserve" text-anchor="middle" x="313" y="-61.62" font-family="Helvetica,sans-Serif" font-size="10.00">init_parameter_str</text>
</a>
</g>
</g>
<!-- Node2&#45;&gt;Node3 -->
<g id="edge2_Node000002_Node000003" class="edge">
<title>Node2&#45;&gt;Node3</title>
<g id="a_edge2_Node000002_Node000003"><a xlink:title=" ">
<path fill="none" stroke="#63b8ff" d="M224.46,-62.99C232.33,-63.15 240.39,-63.31 248.29,-63.47"/>
<polygon fill="#63b8ff" stroke="#63b8ff" points="248.12,-66.96 258.19,-63.67 248.26,-59.97 248.12,-66.96"/>
</a>
</g>
</g>
<!-- Node4 -->
<g id="Node000004" class="node">
<title>Node4</title>
<g id="a_Node000004"><a xlink:href="$m__parameter_8c.html#a6c029c4379be052a826c3a78b8dd1513" xlink:title=" ">
<polygon fill="#fff0f0" stroke="red" points="519.62,-85.5 403.88,-85.5 403.88,-52 519.62,-52 519.62,-85.5"/>
<text xml:space="preserve" text-anchor="start" x="411.88" y="-72" font-family="Helvetica,sans-Serif" font-size="10.00">m_parameter_effect</text>
<text xml:space="preserve" text-anchor="middle" x="461.75" y="-59.25" font-family="Helvetica,sans-Serif" font-size="10.00">_rep_update</text>
</a>
</g>
</g>
<!-- Node3&#45;&gt;Node4 -->
<g id="edge3_Node000003_Node000004" class="edge">
<title>Node3&#45;&gt;Node4</title>
<g id="a_edge3_Node000003_Node000004"><a xlink:title=" ">
<path fill="none" stroke="#63b8ff" d="M366.15,-66.17C374.57,-66.4 383.4,-66.64 392.14,-66.88"/>
<polygon fill="#63b8ff" stroke="#63b8ff" points="391.93,-70.38 402.02,-67.15 392.12,-63.38 391.93,-70.38"/>
</a>
</g>
</g>
<!-- Node8 -->
<g id="Node000008" class="node">
<title>Node8</title>
<g id="a_Node000008"><a xlink:href="$m__parameter_8c.html#a5c3ab6ae99e37732118907f34a470670" xlink:title=" ">
<polygon fill="white" stroke="#666666" points="357.38,-33.12 268.62,-33.12 268.62,-12.38 357.38,-12.38 357.38,-33.12"/>
<text xml:space="preserve" text-anchor="middle" x="313" y="-19.62" font-family="Helvetica,sans-Serif" font-size="10.00">init_setting_str</text>
</a>
</g>
</g>
<!-- Node7&#45;&gt;Node8 -->
<g id="edge5_Node000007_Node000008" class="edge">
<title>Node7&#45;&gt;Node8</title>
<g id="a_edge5_Node000007_Node000008"><a xlink:title=" ">
<path fill="none" stroke="#63b8ff" d="M215.53,-22.75C229.02,-22.75 243.55,-22.75 257.15,-22.75"/>
<polygon fill="#63b8ff" stroke="#63b8ff" points="256.8,-26.25 266.8,-22.75 256.8,-19.25 256.8,-26.25"/>
</a>
</g>
</g>
<!-- Node9 -->
<g id="Node000009" class="node">
<title>Node9</title>
<g id="a_Node000009"><a xlink:href="$m__parameter_8c.html#a296c9c1408b578af07b922cd035c6e26" xlink:title=" ">
<polygon fill="#fff0f0" stroke="red" points="521.5,-33.5 402,-33.5 402,0 521.5,0 521.5,-33.5"/>
<text xml:space="preserve" text-anchor="start" x="410" y="-20" font-family="Helvetica,sans-Serif" font-size="10.00">m_setting_effect_rep</text>
<text xml:space="preserve" text-anchor="middle" x="461.75" y="-7.25" font-family="Helvetica,sans-Serif" font-size="10.00">_update</text>
</a>
</g>
</g>
<!-- Node8&#45;&gt;Node9 -->
<g id="edge6_Node000008_Node000009" class="edge">
<title>Node8&#45;&gt;Node9</title>
<g id="a_edge6_Node000008_Node000009"><a xlink:title=" ">
<path fill="none" stroke="#63b8ff" d="M357.63,-20.97C367.85,-20.55 379,-20.09 390.07,-19.64"/>
<polygon fill="#63b8ff" stroke="#63b8ff" points="390.17,-23.14 400.02,-19.23 389.88,-16.14 390.17,-23.14"/>
</a>
</g>
</g>
</g>
</svg>
