<?xml version="1.0" encoding="UTF-8" standalone="no"?>
<!DOCTYPE svg PUBLIC "-//W3C//DTD SVG 1.1//EN"
 "http://www.w3.org/Graphics/SVG/1.1/DTD/svg11.dtd">
<!-- Generated by graphviz version 13.1.2 (20250808.2320)
 -->
<!-- Title: m_expr_scope_add_setting Pages: 1 -->
<svg width="738pt" height="68pt"
 viewBox="0.00 0.00 738.00 68.00" xmlns="http://www.w3.org/2000/svg" xmlns:xlink="http://www.w3.org/1999/xlink">
<g id="graph0" class="graph" transform="scale(1 1) rotate(0) translate(4 63.75)">
<title>m_expr_scope_add_setting</title>
<!-- Node1 -->
<g id="Node000001" class="node">
<title>Node1</title>
<g id="a_Node000001"><a xlink:title=" ">
<polygon fill="#999999" stroke="#666666" points="730,-39.75 581.25,-39.75 581.25,-19 730,-19 730,-39.75"/>
<text xml:space="preserve" text-anchor="middle" x="655.62" y="-26.25" font-family="Helvetica,sans-Serif" font-size="10.00">m_expr_scope_add_setting</text>
</a>
</g>
</g>
<!-- Node2 -->
<g id="Node000002" class="node">
<title>Node2</title>
<g id="a_Node000002"><a xlink:href="$m__effect_8c.html#a3bbae12e774f7708567b75d2dcb93260" xlink:title=" ">
<polygon fill="white" stroke="#666666" points="532.88,-59.75 403.62,-59.75 403.62,-39 532.88,-39 532.88,-59.75"/>
<text xml:space="preserve" text-anchor="middle" x="468.25" y="-46.25" font-family="Helvetica,sans-Serif" font-size="10.00">m_effect_create_scope</text>
</a>
</g>
</g>
<!-- Node1&#45;&gt;Node2 -->
<g id="edge1_Node000001_Node000002" class="edge">
<title>Node1&#45;&gt;Node2</title>
<g id="a_edge1_Node000001_Node000002"><a xlink:title=" ">
<path fill="none" stroke="#63b8ff" d="M569.65,-38.54C557.4,-39.86 544.97,-41.21 533.22,-42.47"/>
<polygon fill="#63b8ff" stroke="#63b8ff" points="569.76,-42.05 579.32,-37.5 569,-35.09 569.76,-42.05"/>
</a>
</g>
</g>
<!-- Node15 -->
<g id="Node000015" class="node">
<title>Node15</title>
<g id="a_Node000015"><a xlink:href="$m__expr__scope_8c.html#a79ad6af328088e3c4e2d651d79a19c96" xlink:title=" ">
<polygon fill="white" stroke="#666666" points="545.25,-20.75 391.25,-20.75 391.25,0 545.25,0 545.25,-20.75"/>
<text xml:space="preserve" text-anchor="middle" x="468.25" y="-7.25" font-family="Helvetica,sans-Serif" font-size="10.00">m_expr_scope_add_settings</text>
</a>
</g>
</g>
<!-- Node1&#45;&gt;Node15 -->
<g id="edge4_Node000001_Node000015" class="edge">
<title>Node1&#45;&gt;Node15</title>
<g id="a_edge4_Node000001_Node000015"><a xlink:title=" ">
<path fill="none" stroke="#63b8ff" d="M569.57,-20.66C561.55,-19.84 553.46,-19.01 545.53,-18.19"/>
<polygon fill="#63b8ff" stroke="#63b8ff" points="569.02,-24.12 579.32,-21.66 569.73,-17.16 569.02,-24.12"/>
</a>
</g>
</g>
<!-- Node3 -->
<g id="Node000003" class="node">
<title>Node3</title>
<g id="a_Node000003"><a xlink:href="$m__effect_8c.html#a8e75c554d3e8551168278ca959dd73e0" xlink:title=" ">
<polygon fill="white" stroke="#666666" points="355.25,-59.75 199.75,-59.75 199.75,-39 355.25,-39 355.25,-59.75"/>
<text xml:space="preserve" text-anchor="middle" x="277.5" y="-46.25" font-family="Helvetica,sans-Serif" font-size="10.00">init_effect_from_effect_desc</text>
</a>
</g>
</g>
<!-- Node2&#45;&gt;Node3 -->
<g id="edge2_Node000002_Node000003" class="edge">
<title>Node2&#45;&gt;Node3</title>
<g id="a_edge2_Node000002_Node000003"><a xlink:title=" ">
<path fill="none" stroke="#63b8ff" d="M392.05,-49.38C380.11,-49.38 367.73,-49.38 355.74,-49.38"/>
<polygon fill="#63b8ff" stroke="#63b8ff" points="391.83,-52.88 401.83,-49.38 391.83,-45.88 391.83,-52.88"/>
</a>
</g>
</g>
<!-- Node4 -->
<g id="Node000004" class="node">
<title>Node4</title>
<g id="a_Node000004"><a xlink:href="$m__pipeline_8c.html#a8dce811810c9ae42e523eb5aa2764a96" xlink:title=" ">
<polygon fill="#fff0f0" stroke="red" points="163.75,-59.75 0,-59.75 0,-39 163.75,-39 163.75,-59.75"/>
<text xml:space="preserve" text-anchor="middle" x="81.88" y="-46.25" font-family="Helvetica,sans-Serif" font-size="10.00">m_pipeline_append_effect_eff</text>
</a>
</g>
</g>
<!-- Node3&#45;&gt;Node4 -->
<g id="edge3_Node000003_Node000004" class="edge">
<title>Node3&#45;&gt;Node4</title>
<g id="a_edge3_Node000003_Node000004"><a xlink:title=" ">
<path fill="none" stroke="#63b8ff" d="M188.17,-49.38C180.16,-49.38 172.08,-49.38 164.14,-49.38"/>
<polygon fill="#63b8ff" stroke="#63b8ff" points="187.9,-52.88 197.9,-49.38 187.9,-45.88 187.9,-52.88"/>
</a>
</g>
</g>
<!-- Node16 -->
<g id="Node000016" class="node">
<title>Node16</title>
<g id="a_Node000016"><a xlink:href="$m__eff__parser_8c.html#a094727fab3d645bca2ba21a44ecc5749" xlink:title=" ">
<polygon fill="white" stroke="#666666" points="325.25,-20.75 229.75,-20.75 229.75,0 325.25,0 325.25,-20.75"/>
<text xml:space="preserve" text-anchor="middle" x="277.5" y="-7.25" font-family="Helvetica,sans-Serif" font-size="10.00">m_parse_tokens</text>
</a>
</g>
</g>
<!-- Node15&#45;&gt;Node16 -->
<g id="edge5_Node000015_Node000016" class="edge">
<title>Node15&#45;&gt;Node16</title>
<g id="a_edge5_Node000015_Node000016"><a xlink:title=" ">
<path fill="none" stroke="#63b8ff" d="M379.27,-10.38C360.73,-10.38 341.86,-10.38 325.54,-10.38"/>
<polygon fill="#63b8ff" stroke="#63b8ff" points="379.24,-13.88 389.24,-10.38 379.24,-6.88 379.24,-13.88"/>
</a>
</g>
</g>
<!-- Node17 -->
<g id="Node000017" class="node">
<title>Node17</title>
<g id="a_Node000017"><a xlink:href="$m__eff__parser_8c.html#aabfa1bb37d0bead1605fb10e348fe43c" xlink:title=" ">
<polygon fill="#fff0f0" stroke="red" points="156.25,-20.75 7.5,-20.75 7.5,0 156.25,0 156.25,-20.75"/>
<text xml:space="preserve" text-anchor="middle" x="81.88" y="-7.25" font-family="Helvetica,sans-Serif" font-size="10.00">m_read_eff_desc_from_file</text>
</a>
</g>
</g>
<!-- Node16&#45;&gt;Node17 -->
<g id="edge6_Node000016_Node000017" class="edge">
<title>Node16&#45;&gt;Node17</title>
<g id="a_edge6_Node000016_Node000017"><a xlink:title=" ">
<path fill="none" stroke="#63b8ff" d="M218.21,-10.38C198.8,-10.38 176.92,-10.38 156.51,-10.38"/>
<polygon fill="#63b8ff" stroke="#63b8ff" points="218.12,-13.88 228.12,-10.38 218.12,-6.88 218.12,-13.88"/>
</a>
</g>
</g>
</g>
</svg>
