<?xml version="1.0" encoding="UTF-8" standalone="no"?>
<!DOCTYPE svg PUBLIC "-//W3C//DTD SVG 1.1//EN"
 "http://www.w3.org/Graphics/SVG/1.1/DTD/svg11.dtd">
<!-- Generated by graphviz version 13.1.2 (20250808.2320)
 -->
<!-- Title: m_effect_update_fpga_registers Pages: 1 -->
<svg width="984pt" height="195pt"
 viewBox="0.00 0.00 984.00 195.00" xmlns="http://www.w3.org/2000/svg" xmlns:xlink="http://www.w3.org/1999/xlink">
<g id="graph0" class="graph" transform="scale(1 1) rotate(0) translate(4 191.12)">
<title>m_effect_update_fpga_registers</title>
<!-- Node1 -->
<g id="Node000001" class="node">
<title>Node1</title>
<g id="a_Node000001"><a xlink:title=" ">
<polygon fill="#999999" stroke="#666666" points="125.5,-116.5 0,-116.5 0,-83 125.5,-83 125.5,-116.5"/>
<text xml:space="preserve" text-anchor="start" x="8" y="-103" font-family="Helvetica,sans-Serif" font-size="10.00">m_effect_update_fpga</text>
<text xml:space="preserve" text-anchor="middle" x="62.75" y="-90.25" font-family="Helvetica,sans-Serif" font-size="10.00">_registers</text>
</a>
</g>
</g>
<!-- Node2 -->
<g id="Node000002" class="node">
<title>Node2</title>
<g id="a_Node000002"><a xlink:href="m__fpga__comms_8c.html#a9147870c6148ff606376b7c5d4d2bf82" target="_top" xlink:title=" ">
<polygon fill="white" stroke="#666666" points="294.12,-174.5 162.62,-174.5 162.62,-141 294.12,-141 294.12,-174.5"/>
<text xml:space="preserve" text-anchor="start" x="170.62" y="-161" font-family="Helvetica,sans-Serif" font-size="10.00">m_fpga_queue_transfer</text>
<text xml:space="preserve" text-anchor="middle" x="228.38" y="-148.25" font-family="Helvetica,sans-Serif" font-size="10.00">_batch</text>
</a>
</g>
</g>
<!-- Node1&#45;&gt;Node2 -->
<g id="edge1_Node000001_Node000002" class="edge">
<title>Node1&#45;&gt;Node2</title>
<g id="a_edge1_Node000001_Node000002"><a xlink:title=" ">
<path fill="none" stroke="#63b8ff" d="M112.4,-116.99C129.88,-123.19 149.79,-130.25 168.07,-136.73"/>
<polygon fill="#63b8ff" stroke="#63b8ff" points="166.89,-140.02 177.49,-140.07 169.23,-133.43 166.89,-140.02"/>
</a>
</g>
</g>
<!-- Node3 -->
<g id="Node000003" class="node">
<title>Node3</title>
<g id="a_Node000003"><a xlink:href="m__fpga__encoding_8c.html#ae3819b27ebc156a7a87d5f922a0dbf81" target="_top" xlink:title=" ">
<polygon fill="white" stroke="#666666" points="295.25,-122.88 161.5,-122.88 161.5,-76.62 295.25,-76.62 295.25,-122.88"/>
<text xml:space="preserve" text-anchor="start" x="169.5" y="-109.38" font-family="Helvetica,sans-Serif" font-size="10.00">m_fpga_transfer_batch</text>
<text xml:space="preserve" text-anchor="start" x="169.5" y="-96.62" font-family="Helvetica,sans-Serif" font-size="10.00">_append_effect_register</text>
<text xml:space="preserve" text-anchor="middle" x="228.38" y="-83.88" font-family="Helvetica,sans-Serif" font-size="10.00">_updates</text>
</a>
</g>
</g>
<!-- Node1&#45;&gt;Node3 -->
<g id="edge2_Node000001_Node000003" class="edge">
<title>Node1&#45;&gt;Node3</title>
<g id="a_edge2_Node000001_Node000003"><a xlink:title=" ">
<path fill="none" stroke="#63b8ff" d="M125.61,-99.75C133.48,-99.75 141.62,-99.75 149.7,-99.75"/>
<polygon fill="#63b8ff" stroke="#63b8ff" points="149.54,-103.25 159.54,-99.75 149.54,-96.25 149.54,-103.25"/>
</a>
</g>
</g>
<!-- Node10 -->
<g id="Node000010" class="node">
<title>Node10</title>
<g id="a_Node000010"><a xlink:href="m__fpga__io_8c.html#a302830ca8cbed4d0a82c67c69f201bf4" target="_top" xlink:title=" ">
<polygon fill="white" stroke="#666666" points="289.25,-58.5 167.5,-58.5 167.5,-25 289.25,-25 289.25,-58.5"/>
<text xml:space="preserve" text-anchor="start" x="175.5" y="-45" font-family="Helvetica,sans-Serif" font-size="10.00">m_new_fpga_transfer</text>
<text xml:space="preserve" text-anchor="middle" x="228.38" y="-32.25" font-family="Helvetica,sans-Serif" font-size="10.00">_batch</text>
</a>
</g>
</g>
<!-- Node1&#45;&gt;Node10 -->
<g id="edge12_Node000001_Node000010" class="edge">
<title>Node1&#45;&gt;Node10</title>
<g id="a_edge12_Node000001_Node000010"><a xlink:title=" ">
<path fill="none" stroke="#63b8ff" d="M112.4,-82.51C129.88,-76.31 149.79,-69.25 168.07,-62.77"/>
<polygon fill="#63b8ff" stroke="#63b8ff" points="169.23,-66.07 177.49,-59.43 166.89,-59.48 169.23,-66.07"/>
</a>
</g>
</g>
<!-- Node4 -->
<g id="Node000004" class="node">
<title>Node4</title>
<g id="a_Node000004"><a xlink:href="m__fpga__encoding_8c.html#a30de0dffad16d777aaeeb728303f0eab" target="_top" xlink:title=" ">
<polygon fill="white" stroke="#666666" points="465.75,-116.5 331.25,-116.5 331.25,-83 465.75,-83 465.75,-116.5"/>
<text xml:space="preserve" text-anchor="start" x="339.25" y="-103" font-family="Helvetica,sans-Serif" font-size="10.00">m_fpga_batch_append</text>
<text xml:space="preserve" text-anchor="middle" x="398.5" y="-90.25" font-family="Helvetica,sans-Serif" font-size="10.00">_block_register_updates</text>
</a>
</g>
</g>
<!-- Node3&#45;&gt;Node4 -->
<g id="edge3_Node000003_Node000004" class="edge">
<title>Node3&#45;&gt;Node4</title>
<g id="a_edge3_Node000003_Node000004"><a xlink:title=" ">
<path fill="none" stroke="#63b8ff" d="M295.34,-99.75C303.28,-99.75 311.45,-99.75 319.54,-99.75"/>
<polygon fill="#63b8ff" stroke="#63b8ff" points="319.38,-103.25 329.38,-99.75 319.38,-96.25 319.38,-103.25"/>
</a>
</g>
</g>
<!-- Node5 -->
<g id="Node000005" class="node">
<title>Node5</title>
<g id="a_Node000005"><a xlink:href="m__fpga__io_8c.html#ac4ecd8804864719b441aab2f560c654d" target="_top" xlink:title=" ">
<polygon fill="white" stroke="#666666" points="623.88,-187.12 511.88,-187.12 511.88,-166.38 623.88,-166.38 623.88,-187.12"/>
<text xml:space="preserve" text-anchor="middle" x="567.88" y="-173.62" font-family="Helvetica,sans-Serif" font-size="10.00">float_to_q_nminus1</text>
</a>
</g>
</g>
<!-- Node4&#45;&gt;Node5 -->
<g id="edge4_Node000004_Node000005" class="edge">
<title>Node4&#45;&gt;Node5</title>
<g id="a_edge4_Node000004_Node000005"><a xlink:title=" ">
<path fill="none" stroke="#63b8ff" d="M426.48,-116.86C446.65,-129.13 475.21,-145.43 501.75,-156.75 506.34,-158.71 511.19,-160.57 516.08,-162.3"/>
<polygon fill="#63b8ff" stroke="#63b8ff" points="514.76,-165.55 525.36,-165.41 516.99,-158.91 514.76,-165.55"/>
</a>
</g>
</g>
<!-- Node6 -->
<g id="Node000006" class="node">
<title>Node6</title>
<g id="a_Node000006"><a xlink:href="m__expression_8c.html#a0938d229ef0ec131b65241e93dc6166d" target="_top" xlink:title=" ">
<polygon fill="white" stroke="#666666" points="634,-148.12 501.75,-148.12 501.75,-127.38 634,-127.38 634,-148.12"/>
<text xml:space="preserve" text-anchor="middle" x="567.88" y="-134.62" font-family="Helvetica,sans-Serif" font-size="10.00">m_expression_evaluate</text>
</a>
</g>
</g>
<!-- Node4&#45;&gt;Node6 -->
<g id="edge5_Node000004_Node000006" class="edge">
<title>Node4&#45;&gt;Node6</title>
<g id="a_edge5_Node000004_Node000006"><a xlink:title=" ">
<path fill="none" stroke="#63b8ff" d="M466.13,-114.88C479.95,-118.01 494.41,-121.3 507.93,-124.37"/>
<polygon fill="#63b8ff" stroke="#63b8ff" points="507.03,-127.75 517.55,-126.55 508.58,-120.93 507.03,-127.75"/>
</a>
</g>
</g>
<!-- Node7 -->
<g id="Node000007" class="node">
<title>Node7</title>
<g id="a_Node000007"><a xlink:href="m__fpga__io_8c.html#a3e6e7ed1d51243448b55471969a93aa1" target="_top" xlink:title=" ">
<polygon fill="white" stroke="#666666" points="975.75,-69.12 849.5,-69.12 849.5,-48.38 975.75,-48.38 975.75,-69.12"/>
<text xml:space="preserve" text-anchor="middle" x="912.62" y="-55.62" font-family="Helvetica,sans-Serif" font-size="10.00">m_fpga_batch_append</text>
</a>
</g>
</g>
<!-- Node4&#45;&gt;Node7 -->
<g id="edge6_Node000004_Node000007" class="edge">
<title>Node4&#45;&gt;Node7</title>
<g id="a_edge6_Node000004_Node000007"><a xlink:title=" ">
<path fill="none" stroke="#63b8ff" d="M466.07,-99.04C548.08,-97.51 691.52,-92.73 813.5,-77.75 825.83,-76.24 838.94,-74.08 851.42,-71.77"/>
<polygon fill="#63b8ff" stroke="#63b8ff" points="852.02,-75.22 861.19,-69.89 850.71,-68.34 852.02,-75.22"/>
</a>
</g>
</g>
<!-- Node8 -->
<g id="Node000008" class="node">
<title>Node8</title>
<g id="a_Node000008"><a xlink:href="m__fpga__io_8c.html#a1555178cc242779bd59bd3c2c3b5a554" target="_top" xlink:title=" ">
<polygon fill="white" stroke="#666666" points="813.5,-69.12 670,-69.12 670,-48.38 813.5,-48.38 813.5,-69.12"/>
<text xml:space="preserve" text-anchor="middle" x="741.75" y="-55.62" font-family="Helvetica,sans-Serif" font-size="10.00">m_fpga_batch_append_16</text>
</a>
</g>
</g>
<!-- Node4&#45;&gt;Node8 -->
<g id="edge7_Node000004_Node000008" class="edge">
<title>Node4&#45;&gt;Node8</title>
<g id="a_edge7_Node000004_Node000008"><a xlink:title=" ">
<path fill="none" stroke="#63b8ff" d="M466.02,-90.41C477.91,-88.81 490.19,-87.19 501.75,-85.75 553.7,-79.26 612.09,-72.65 658.15,-67.6"/>
<polygon fill="#63b8ff" stroke="#63b8ff" points="658.52,-71.08 668.08,-66.51 657.76,-64.12 658.52,-71.08"/>
</a>
</g>
</g>
<!-- Node9 -->
<g id="Node000009" class="node">
<title>Node9</title>
<g id="a_Node000009"><a xlink:href="m__fpga__encoding_8c.html#abf741b5796016ee2220cefafef2e8ec4" target="_top" xlink:title=" ">
<polygon fill="white" stroke="#666666" points="631,-33.5 504.75,-33.5 504.75,0 631,0 631,-33.5"/>
<text xml:space="preserve" text-anchor="start" x="512.75" y="-20" font-family="Helvetica,sans-Serif" font-size="10.00">m_fpga_batch_append</text>
<text xml:space="preserve" text-anchor="middle" x="567.88" y="-7.25" font-family="Helvetica,sans-Serif" font-size="10.00">_block_number</text>
</a>
</g>
</g>
<!-- Node4&#45;&gt;Node9 -->
<g id="edge9_Node000004_Node000009" class="edge">
<title>Node4&#45;&gt;Node9</title>
<g id="a_edge9_Node000004_Node000009"><a xlink:title=" ">
<path fill="none" stroke="#63b8ff" d="M432.55,-82.67C452.52,-72.41 478.52,-59.18 501.75,-47.75 507.65,-44.85 513.87,-41.83 520.04,-38.86"/>
<polygon fill="#63b8ff" stroke="#63b8ff" points="521.41,-42.09 528.92,-34.61 518.39,-35.77 521.41,-42.09"/>
</a>
</g>
</g>
<!-- Node8&#45;&gt;Node7 -->
<g id="edge8_Node000008_Node000007" class="edge">
<title>Node8&#45;&gt;Node7</title>
<g id="a_edge8_Node000008_Node000007"><a xlink:title=" ">
<path fill="none" stroke="#63b8ff" d="M813.88,-58.75C821.75,-58.75 829.78,-58.75 837.69,-58.75"/>
<polygon fill="#63b8ff" stroke="#63b8ff" points="837.64,-62.25 847.64,-58.75 837.64,-55.25 837.64,-62.25"/>
</a>
</g>
</g>
<!-- Node9&#45;&gt;Node7 -->
<g id="edge10_Node000009_Node000007" class="edge">
<title>Node9&#45;&gt;Node7</title>
<g id="a_edge10_Node000009_Node000007"><a xlink:title=" ">
<path fill="none" stroke="#63b8ff" d="M631.41,-20.94C680.96,-24.67 751.85,-30.9 813.5,-39.75 825.15,-41.42 837.51,-43.54 849.4,-45.75"/>
<polygon fill="#63b8ff" stroke="#63b8ff" points="848.64,-49.17 859.12,-47.61 849.95,-42.3 848.64,-49.17"/>
</a>
</g>
</g>
<!-- Node9&#45;&gt;Node8 -->
<g id="edge11_Node000009_Node000008" class="edge">
<title>Node9&#45;&gt;Node8</title>
<g id="a_edge11_Node000009_Node000008"><a xlink:title=" ">
<path fill="none" stroke="#63b8ff" d="M631.41,-32.03C649.05,-36.34 668.11,-41 685.3,-45.2"/>
<polygon fill="#63b8ff" stroke="#63b8ff" points="684.28,-48.55 694.82,-47.53 685.94,-41.75 684.28,-48.55"/>
</a>
</g>
</g>
</g>
</svg>
