<?xml version="1.0" encoding="UTF-8" standalone="no"?>
<!DOCTYPE svg PUBLIC "-//W3C//DTD SVG 1.1//EN"
 "http://www.w3.org/Graphics/SVG/1.1/DTD/svg11.dtd">
<!-- Generated by graphviz version 13.1.2 (20250808.2320)
 -->
<!-- Title: new_m_expression_binary Pages: 1 -->
<svg width="611pt" height="107pt"
 viewBox="0.00 0.00 611.00 107.00" xmlns="http://www.w3.org/2000/svg" xmlns:xlink="http://www.w3.org/1999/xlink">
<g id="graph0" class="graph" transform="scale(1 1) rotate(0) translate(4 102.75)">
<title>new_m_expression_binary</title>
<!-- Node1 -->
<g id="Node000001" class="node">
<title>Node1</title>
<g id="a_Node000001"><a xlink:title=" ">
<polygon fill="#999999" stroke="#666666" points="603.25,-59.75 457.5,-59.75 457.5,-39 603.25,-39 603.25,-59.75"/>
<text xml:space="preserve" text-anchor="middle" x="530.38" y="-46.25" font-family="Helvetica,sans-Serif" font-size="10.00">new_m_expression_binary</text>
</a>
</g>
</g>
<!-- Node2 -->
<g id="Node000002" class="node">
<title>Node2</title>
<g id="a_Node000002"><a xlink:href="m__expr__parser_8c.html#a45b4bb314bb1c677680ca37595ea8281" target="_top" xlink:title=" ">
<polygon fill="white" stroke="#666666" points="421.5,-66.12 305,-66.12 305,-32.62 421.5,-32.62 421.5,-66.12"/>
<text xml:space="preserve" text-anchor="start" x="313" y="-52.62" font-family="Helvetica,sans-Serif" font-size="10.00">m_parse_expression</text>
<text xml:space="preserve" text-anchor="middle" x="363.25" y="-39.88" font-family="Helvetica,sans-Serif" font-size="10.00">_rec_pratt</text>
</a>
</g>
</g>
<!-- Node1&#45;&gt;Node2 -->
<g id="edge1_Node000001_Node000002" class="edge">
<title>Node1&#45;&gt;Node2</title>
<g id="a_edge1_Node000001_Node000002"><a xlink:title=" ">
<path fill="none" stroke="#63b8ff" d="M445.93,-49.38C437.78,-49.38 429.63,-49.38 421.82,-49.38"/>
<polygon fill="#63b8ff" stroke="#63b8ff" points="445.92,-52.88 455.92,-49.38 445.92,-45.88 445.92,-52.88"/>
</a>
</g>
</g>
<!-- Node2&#45;&gt;Node2 -->
<g id="edge6_Node000002_Node000002" class="edge">
<title>Node2&#45;&gt;Node2</title>
<g id="a_edge6_Node000002_Node000002"><a xlink:title=" ">
<path fill="none" stroke="#63b8ff" d="M388.5,-77.84C384.21,-81.62 375.79,-84.12 363.25,-84.12 340.32,-84.12 331.18,-75.74 335.84,-66.54"/>
<polygon fill="#63b8ff" stroke="#63b8ff" points="391.93,-78.51 390.38,-68.03 385.06,-77.19 391.93,-78.51"/>
</a>
</g>
</g>
<!-- Node3 -->
<g id="Node000003" class="node">
<title>Node3</title>
<g id="a_Node000003"><a xlink:href="m__expr__parser_8c.html#af2a49578710f5e5b4f4c3339992ba0c9" target="_top" xlink:title=" ">
<polygon fill="white" stroke="#666666" points="269,-59.75 152.5,-59.75 152.5,-39 269,-39 269,-59.75"/>
<text xml:space="preserve" text-anchor="middle" x="210.75" y="-46.25" font-family="Helvetica,sans-Serif" font-size="10.00">m_parse_expression</text>
</a>
</g>
</g>
<!-- Node2&#45;&gt;Node3 -->
<g id="edge2_Node000002_Node000003" class="edge">
<title>Node2&#45;&gt;Node3</title>
<g id="a_edge2_Node000002_Node000003"><a xlink:title=" ">
<path fill="none" stroke="#63b8ff" d="M293.6,-49.38C285.52,-49.38 277.33,-49.38 269.42,-49.38"/>
<polygon fill="#63b8ff" stroke="#63b8ff" points="293.41,-52.88 303.41,-49.38 293.41,-45.88 293.41,-52.88"/>
</a>
</g>
</g>
<!-- Node4 -->
<g id="Node000004" class="node">
<title>Node4</title>
<g id="a_Node000004"><a xlink:href="m__asm__parser_8c.html#ab379f2b6380b7d71195063b385d00b81" target="_top" xlink:title=" ">
<polygon fill="#fff0f0" stroke="red" points="110.88,-98.75 5.62,-98.75 5.62,-78 110.88,-78 110.88,-98.75"/>
<text xml:space="preserve" text-anchor="middle" x="58.25" y="-85.25" font-family="Helvetica,sans-Serif" font-size="10.00">m_parse_asm_arg</text>
</a>
</g>
</g>
<!-- Node3&#45;&gt;Node4 -->
<g id="edge3_Node000003_Node000004" class="edge">
<title>Node3&#45;&gt;Node4</title>
<g id="a_edge3_Node000003_Node000004"><a xlink:title=" ">
<path fill="none" stroke="#63b8ff" d="M156.78,-63.1C138.56,-67.82 118.43,-73.04 101.21,-77.5"/>
<polygon fill="#63b8ff" stroke="#63b8ff" points="157.56,-66.52 166.36,-60.62 155.8,-59.74 157.56,-66.52"/>
</a>
</g>
</g>
<!-- Node14 -->
<g id="Node000014" class="node">
<title>Node14</title>
<g id="a_Node000014"><a xlink:href="m__asm__parser_8c.html#a8a2db427fde0f1ea987235306f3c4582" target="_top" xlink:title=" ">
<polygon fill="#fff0f0" stroke="red" points="116.5,-59.75 0,-59.75 0,-39 116.5,-39 116.5,-59.75"/>
<text xml:space="preserve" text-anchor="middle" x="58.25" y="-46.25" font-family="Helvetica,sans-Serif" font-size="10.00">m_parse_asm_arg_2</text>
</a>
</g>
</g>
<!-- Node3&#45;&gt;Node14 -->
<g id="edge4_Node000003_Node000014" class="edge">
<title>Node3&#45;&gt;Node14</title>
<g id="a_edge4_Node000003_Node000014"><a xlink:title=" ">
<path fill="none" stroke="#63b8ff" d="M141.1,-49.38C133.02,-49.38 124.83,-49.38 116.92,-49.38"/>
<polygon fill="#63b8ff" stroke="#63b8ff" points="140.91,-52.88 150.91,-49.38 140.91,-45.88 140.91,-52.88"/>
</a>
</g>
</g>
<!-- Node15 -->
<g id="Node000015" class="node">
<title>Node15</title>
<g id="a_Node000015"><a xlink:href="m__dictionary_8c.html#aab1bb060fb0ff389ff2712d91ef17634" target="_top" xlink:title=" ">
<polygon fill="#fff0f0" stroke="red" points="109,-20.75 7.5,-20.75 7.5,0 109,0 109,-20.75"/>
<text xml:space="preserve" text-anchor="middle" x="58.25" y="-7.25" font-family="Helvetica,sans-Serif" font-size="10.00">m_parse_dict_val</text>
</a>
</g>
</g>
<!-- Node3&#45;&gt;Node15 -->
<g id="edge5_Node000003_Node000015" class="edge">
<title>Node3&#45;&gt;Node15</title>
<g id="a_edge5_Node000003_Node000015"><a xlink:title=" ">
<path fill="none" stroke="#63b8ff" d="M156.78,-35.65C138.56,-30.93 118.43,-25.71 101.21,-21.25"/>
<polygon fill="#63b8ff" stroke="#63b8ff" points="155.8,-39.01 166.36,-38.13 157.56,-32.23 155.8,-39.01"/>
</a>
</g>
</g>
</g>
</svg>
