<?xml version="1.0" encoding="UTF-8" standalone="no"?>
<!DOCTYPE svg PUBLIC "-//W3C//DTD SVG 1.1//EN"
 "http://www.w3.org/Graphics/SVG/1.1/DTD/svg11.dtd">
<!-- Generated by graphviz version 13.1.2 (20250808.2320)
 -->
<!-- Title: m_expression_infix_operator_string Pages: 1 -->
<!--zoomable 150 -->

<svg id="main" version="1.1" xmlns="http://www.w3.org/2000/svg" xmlns:xlink="http://www.w3.org/1999/xlink" xml:space="preserve" onload="init(evt)">

<style type="text/css"><![CDATA[
.node, .edge {opacity: 0.7;}
.node.selected, .edge.selected {opacity: 1;}
.edge:hover path { stroke: red; }
.edge:hover polygon { stroke: red; fill: red; }
]]></style>

<defs>
  <circle id="rim" cx="0" cy="0" r="7"/>
  <circle id="rim2" cx="0" cy="0" r="3.5"/>
  <g id="zoomPlus">
    <use xlink:href="#rim" fill="#404040"><set attributeName="fill" to="#808080" begin="zoomplus.mouseover" end="zoomplus.mouseout"/></use>
    <path d="M-4,0h8M0,-4v8" fill="none" stroke="white" stroke-width="1.5" pointer-events="none"/>
  </g>
  <g id="zoomMin">
    <use xlink:href="#rim" fill="#404040"><set attributeName="fill" to="#808080" begin="zoomminus.mouseover" end="zoomminus.mouseout"/></use>
    <path d="M-4,0h8" fill="none" stroke="white" stroke-width="1.5" pointer-events="none"/>
  </g>
  <g id="arrowUp" transform="translate(30 24)">
    <use xlink:href="#rim"/>
    <path pointer-events="none" fill="none" stroke="white" stroke-width="1.5" d="M0,-3.0v7 M-2.5,-0.5L0,-3.0L2.5,-0.5"/>
  </g>
  <g id="arrowRight" transform="rotate(90) translate(36 -43)">
    <use xlink:href="#rim"/>
    <path pointer-events="none" fill="none" stroke="white" stroke-width="1.5" d="M0,-3.0v7 M-2.5,-0.5L0,-3.0L2.5,-0.5"/>
  </g>
  <g id="arrowDown" transform="rotate(180) translate(-30 -48)">
    <use xlink:href="#rim"/>
    <path pointer-events="none" fill="none" stroke="white" stroke-width="1.5" d="M0,-3.0v7 M-2.5,-0.5L0,-3.0L2.5,-0.5"/>
  </g>
  <g id="arrowLeft" transform="rotate(270) translate(-36 17)">
    <use xlink:href="#rim"/>
    <path pointer-events="none" fill="none" stroke="white" stroke-width="1.5" d="M0,-3.0v7 M-2.5,-0.5L0,-3.0L2.5,-0.5"/>
  </g>
  <g id="resetDef">
    <use xlink:href="#rim2" fill="#404040"><set attributeName="fill" to="#808080" begin="reset.mouseover" end="reset.mouseout"/></use>
  </g>
</defs>
<script type="application/ecmascript">
var viewWidth = 624;
var viewHeight = 150;
var sectionId = 'dynsection-13';
</script>
<script type="application/ecmascript" xlink:href="svg.min.js"/>
<svg id="graph" class="graph">
<g id="viewport">
<title>m_expression_infix_operator_string</title>
<!-- Node1 -->
<g id="Node000001" class="node">
<title>Node1</title>
<g id="a_Node000001"><a xlink:title=" ">
<polygon fill="#999999" stroke="#666666" points="616,-91.12 504.75,-91.12 504.75,-57.62 616,-57.62 616,-91.12"/>
<text xml:space="preserve" text-anchor="start" x="512.75" y="-77.62" font-family="Helvetica,sans-Serif" font-size="10.00">m_expression_infix</text>
<text xml:space="preserve" text-anchor="middle" x="560.38" y="-64.88" font-family="Helvetica,sans-Serif" font-size="10.00">_operator_string</text>
</a>
</g>
</g>
<!-- Node2 -->
<g id="Node000002" class="node">
<title>Node2</title>
<g id="a_Node000002"><a xlink:href="m__expression_8c.html#a1ee68e33366bb85718df8d2a70a70c0c" target="_top" xlink:title=" ">
<polygon fill="white" stroke="#666666" points="468.75,-84.75 336.5,-84.75 336.5,-64 468.75,-64 468.75,-84.75"/>
<text xml:space="preserve" text-anchor="middle" x="402.62" y="-71.25" font-family="Helvetica,sans-Serif" font-size="10.00">m_expression_print_rec</text>
</a>
</g>
</g>
<!-- Node1&#45;&gt;Node2 -->
<g id="edge1_Node000001_Node000002" class="edge">
<title>Node1&#45;&gt;Node2</title>
<g id="a_edge1_Node000001_Node000002"><a xlink:title=" ">
<path fill="none" stroke="#63b8ff" d="M493.06,-74.38C485.18,-74.38 477.13,-74.38 469.25,-74.38"/>
<polygon fill="#63b8ff" stroke="#63b8ff" points="492.95,-77.88 502.95,-74.38 492.95,-70.88 492.95,-77.88"/>
</a>
</g>
</g>
<!-- Node2&#45;&gt;Node2 -->
<g id="edge3_Node000002_Node000002" class="edge">
<title>Node2&#45;&gt;Node2</title>
<g id="a_edge3_Node000002_Node000002"><a xlink:title=" ">
<path fill="none" stroke="#63b8ff" d="M430.38,-96.24C426.71,-100.08 417.45,-102.75 402.62,-102.75 375.51,-102.75 367.04,-93.81 377.21,-85.15"/>
<polygon fill="#63b8ff" stroke="#63b8ff" points="433.85,-95.69 428.36,-86.63 427,-97.14 433.85,-95.69"/>
</a>
</g>
</g>
<!-- Node3 -->
<g id="Node000003" class="node">
<title>Node3</title>
<g id="a_Node000003"><a xlink:href="m__expression_8c.html#a2a460e78f8599d0047d59a5cfcf80fb5" target="_top" xlink:title=" ">
<polygon fill="white" stroke="#666666" points="290.38,-104.75 178.38,-104.75 178.38,-84 290.38,-84 290.38,-104.75"/>
<text xml:space="preserve" text-anchor="middle" x="234.38" y="-91.25" font-family="Helvetica,sans-Serif" font-size="10.00">m_expression_print</text>
</a>
</g>
</g>
<!-- Node2&#45;&gt;Node3 -->
<g id="edge2_Node000002_Node000003" class="edge">
<title>Node2&#45;&gt;Node3</title>
<g id="a_edge2_Node000002_Node000003"><a xlink:title=" ">
<path fill="none" stroke="#63b8ff" d="M325.31,-83.56C313.66,-84.96 301.82,-86.38 290.74,-87.72"/>
<polygon fill="#63b8ff" stroke="#63b8ff" points="325.38,-87.07 334.89,-82.4 324.55,-80.12 325.38,-87.07"/>
</a>
</g>
</g>
<!-- Node4 -->
<g id="Node000004" class="node">
<title>Node4</title>
<g id="a_Node000004"><a xlink:href="m__expression_8c.html#a5fa3c8040149c5d068c467280dfd0d68" target="_top" xlink:title=" ">
<polygon fill="white" stroke="#666666" points="300.5,-65.75 168.25,-65.75 168.25,-45 300.5,-45 300.5,-65.75"/>
<text xml:space="preserve" text-anchor="middle" x="234.38" y="-52.25" font-family="Helvetica,sans-Serif" font-size="10.00">m_expression_to_string</text>
</a>
</g>
</g>
<!-- Node2&#45;&gt;Node4 -->
<g id="edge4_Node000002_Node000004" class="edge">
<title>Node2&#45;&gt;Node4</title>
<g id="a_edge4_Node000002_Node000004"><a xlink:title=" ">
<path fill="none" stroke="#63b8ff" d="M325.09,-65.63C317.03,-64.71 308.88,-63.78 300.96,-62.87"/>
<polygon fill="#63b8ff" stroke="#63b8ff" points="324.56,-69.09 334.89,-66.75 325.35,-62.14 324.56,-69.09"/>
</a>
</g>
</g>
<!-- Node5 -->
<g id="Node000005" class="node">
<title>Node5</title>
<g id="a_Node000005"><a xlink:href="m__expression_8c.html#aec31d5d4509024a0830a2ac448ac7d21" target="_top" xlink:title=" ">
<polygon fill="#fff0f0" stroke="red" points="132.25,-124.12 0,-124.12 0,-90.62 132.25,-90.62 132.25,-124.12"/>
<text xml:space="preserve" text-anchor="start" x="8" y="-110.62" font-family="Helvetica,sans-Serif" font-size="10.00">m_expression_compute</text>
<text xml:space="preserve" text-anchor="middle" x="66.12" y="-97.88" font-family="Helvetica,sans-Serif" font-size="10.00">_range_rec</text>
</a>
</g>
</g>
<!-- Node4&#45;&gt;Node5 -->
<g id="edge5_Node000004_Node000005" class="edge">
<title>Node4&#45;&gt;Node5</title>
<g id="a_edge5_Node000004_Node000005"><a xlink:title=" ">
<path fill="none" stroke="#63b8ff" d="M187.27,-69.48C180.88,-71.45 174.4,-73.46 168.25,-75.38 152.96,-80.14 136.38,-85.37 121.15,-90.18"/>
<polygon fill="#63b8ff" stroke="#63b8ff" points="187.89,-72.95 196.42,-66.66 185.83,-66.26 187.89,-72.95"/>
</a>
</g>
</g>
<!-- Node13 -->
<g id="Node000013" class="node">
<title>Node13</title>
<g id="a_Node000013"><a xlink:href="m__dict__extract_8c.html#a512a86a4320cc6c6530498bce7242815" target="_top" xlink:title=" ">
<polygon fill="#fff0f0" stroke="red" points="127,-72.12 5.25,-72.12 5.25,-38.62 127,-38.62 127,-72.12"/>
<text xml:space="preserve" text-anchor="start" x="13.25" y="-58.62" font-family="Helvetica,sans-Serif" font-size="10.00">m_extract_parameter</text>
<text xml:space="preserve" text-anchor="middle" x="66.12" y="-45.88" font-family="Helvetica,sans-Serif" font-size="10.00">_from_dict</text>
</a>
</g>
</g>
<!-- Node4&#45;&gt;Node13 -->
<g id="edge7_Node000004_Node000013" class="edge">
<title>Node4&#45;&gt;Node13</title>
<g id="a_edge7_Node000004_Node000013"><a xlink:title=" ">
<path fill="none" stroke="#63b8ff" d="M156.66,-55.38C146.81,-55.38 136.83,-55.38 127.29,-55.38"/>
<polygon fill="#63b8ff" stroke="#63b8ff" points="156.63,-58.88 166.63,-55.38 156.63,-51.88 156.63,-58.88"/>
</a>
</g>
</g>
<!-- Node16 -->
<g id="Node000016" class="node">
<title>Node16</title>
<g id="a_Node000016"><a xlink:href="m__asm__parser_8c.html#a4aedb000c36b17f7c669cb76938cfef3" target="_top" xlink:title=" ">
<polygon fill="#fff0f0" stroke="red" points="119.88,-20.75 12.38,-20.75 12.38,0 119.88,0 119.88,-20.75"/>
<text xml:space="preserve" text-anchor="middle" x="66.12" y="-7.25" font-family="Helvetica,sans-Serif" font-size="10.00">m_parse_asm_line</text>
</a>
</g>
</g>
<!-- Node4&#45;&gt;Node16 -->
<g id="edge8_Node000004_Node000016" class="edge">
<title>Node4&#45;&gt;Node16</title>
<g id="a_edge8_Node000004_Node000016"><a xlink:title=" ">
<path fill="none" stroke="#63b8ff" d="M182.76,-41.68C158.52,-35.11 129.9,-27.37 107.2,-21.22"/>
<polygon fill="#63b8ff" stroke="#63b8ff" points="181.53,-44.97 192.09,-44.2 183.35,-38.21 181.53,-44.97"/>
</a>
</g>
</g>
<!-- Node5&#45;&gt;Node5 -->
<g id="edge6_Node000005_Node000005" class="edge">
<title>Node5&#45;&gt;Node5</title>
<g id="a_edge6_Node000005_Node000005"><a xlink:title=" ">
<path fill="none" stroke="#63b8ff" d="M94.38,-135.51C89.77,-139.47 80.36,-142.12 66.12,-142.12 40.82,-142.12 30.74,-133.74 35.88,-124.54"/>
<polygon fill="#63b8ff" stroke="#63b8ff" points="97.75,-136.49 96.1,-126.03 90.87,-135.24 97.75,-136.49"/>
</a>
</g>
</g>
</g>
</svg>

<g id="navigator" transform="translate(0 0)" fill="#404254">
  <rect fill="#f2f5e9" fill-opacity="0.5" stroke="#606060" stroke-width=".5" x="0" y="0" width="60" height="60"/>
  <use id="zoomplus" xlink:href="#zoomPlus" x="17" y="9" onmousedown="handleZoom(evt,'in')"/>
  <use id="zoomminus" xlink:href="#zoomMin" x="42" y="9" onmousedown="handleZoom(evt,'out')"/>
  <use id="reset" xlink:href="#resetDef" x="30" y="36" onmousedown="handleReset()"/>
   <use id="arrowup" xlink:href="#arrowUp" x="0" y="0" onmousedown="handlePan(0,-1)"/>
  <use id="arrowright" xlink:href="#arrowRight" x="0" y="0" onmousedown="handlePan(1,0)"/>
  <use id="arrowdown" xlink:href="#arrowDown" x="0" y="0" onmousedown="handlePan(0,1)"/>
  <use id="arrowleft" xlink:href="#arrowLeft" x="0" y="0" onmousedown="handlePan(-1,0)"/>
</g>
<svg viewBox="0 0 15 15" width="100%" height="30px" preserveAspectRatio="xMaxYMin meet">
 <g id="arrow_out" transform="scale(0.3 0.3)">
  <a xlink:href="m__expression_8c_a72a6ac780a2503b0a4657652bdcbd513_icgraph_org.svg" target="_base">
   <rect id="button" ry="5" rx="5" y="6" x="6" height="38" width="38"
        fill="#f2f5e9" fill-opacity="0.5" stroke="#606060" stroke-width="1.0"/>
   <path id="arrow"
     d="M 11.500037,31.436501 C 11.940474,20.09759 22.043105,11.32322 32.158766,21.979434 L 37.068811,17.246167 C 37.068811,17.246167 37.088388,32 37.088388,32 L 22.160133,31.978069 C 22.160133,31.978069 26.997745,27.140456 26.997745,27.140456 C 18.528582,18.264221 13.291696,25.230495 11.500037,31.436501 z"
     style="fill:#404040;"/>
  </a>
 </g>
</svg>

<style type='text/css'>
<![CDATA[
[data-mouse-over-selected='false'] { opacity: 0.7; }
[data-mouse-over-selected='true']  { opacity: 1.0; }
]]>
</style>
<script type="application/ecmascript"><![CDATA[
document.addEventListener('DOMContentLoaded', (event) => {
  highlightEdges();
  highlightAdjacentNodes();
});
]]></script>
</svg>
