<?xml version="1.0" encoding="UTF-8" standalone="no"?>
<!DOCTYPE svg PUBLIC "-//W3C//DTD SVG 1.1//EN"
 "http://www.w3.org/Graphics/SVG/1.1/DTD/svg11.dtd">
<!-- Generated by graphviz version 13.1.2 (20250808.2320)
 -->
<!-- Title: effect_add_parameter Pages: 1 -->
<svg width="587pt" height="42pt"
 viewBox="0.00 0.00 587.00 42.00" xmlns="http://www.w3.org/2000/svg" xmlns:xlink="http://www.w3.org/1999/xlink">
<g id="graph0" class="graph" transform="scale(1 1) rotate(0) translate(4 37.5)">
<title>effect_add_parameter</title>
<!-- Node1 -->
<g id="Node000001" class="node">
<title>Node1</title>
<g id="a_Node000001"><a xlink:title=" ">
<polygon fill="#999999" stroke="#666666" points="124,-27.12 0,-27.12 0,-6.38 124,-6.38 124,-27.12"/>
<text xml:space="preserve" text-anchor="middle" x="62" y="-13.62" font-family="Helvetica,sans-Serif" font-size="10.00">effect_add_parameter</text>
</a>
</g>
</g>
<!-- Node2 -->
<g id="Node000002" class="node">
<title>Node2</title>
<g id="a_Node000002"><a xlink:href="$m__parameter_8c.html#ac9a28134818c14fbd7ef921b535b28d8" xlink:title=" ">
<polygon fill="white" stroke="#666666" points="266,-27.12 160,-27.12 160,-6.38 266,-6.38 266,-27.12"/>
<text xml:space="preserve" text-anchor="middle" x="213" y="-13.62" font-family="Helvetica,sans-Serif" font-size="10.00">init_parameter_str</text>
</a>
</g>
</g>
<!-- Node1&#45;&gt;Node2 -->
<g id="edge1_Node000001_Node000002" class="edge">
<title>Node1&#45;&gt;Node2</title>
<g id="a_edge1_Node000001_Node000002"><a xlink:title=" ">
<path fill="none" stroke="#63b8ff" d="M124.46,-16.75C132.33,-16.75 140.39,-16.75 148.29,-16.75"/>
<polygon fill="#63b8ff" stroke="#63b8ff" points="148.19,-20.25 158.19,-16.75 148.19,-13.25 148.19,-20.25"/>
</a>
</g>
</g>
<!-- Node3 -->
<g id="Node000003" class="node">
<title>Node3</title>
<g id="a_Node000003"><a xlink:href="$m__parameter_8c.html#a6c029c4379be052a826c3a78b8dd1513" xlink:title=" ">
<polygon fill="white" stroke="#666666" points="417.75,-33.5 302,-33.5 302,0 417.75,0 417.75,-33.5"/>
<text xml:space="preserve" text-anchor="start" x="310" y="-20" font-family="Helvetica,sans-Serif" font-size="10.00">m_parameter_effect</text>
<text xml:space="preserve" text-anchor="middle" x="359.88" y="-7.25" font-family="Helvetica,sans-Serif" font-size="10.00">_rep_update</text>
</a>
</g>
</g>
<!-- Node2&#45;&gt;Node3 -->
<g id="edge2_Node000002_Node000003" class="edge">
<title>Node2&#45;&gt;Node3</title>
<g id="a_edge2_Node000002_Node000003"><a xlink:title=" ">
<path fill="none" stroke="#63b8ff" d="M266.3,-16.75C274.13,-16.75 282.29,-16.75 290.39,-16.75"/>
<polygon fill="#63b8ff" stroke="#63b8ff" points="290.23,-20.25 300.23,-16.75 290.23,-13.25 290.23,-20.25"/>
</a>
</g>
</g>
<!-- Node4 -->
<g id="Node000004" class="node">
<title>Node4</title>
<g id="a_Node000004"><a xlink:href="$m__effect_8c.html#a7ffa53dea58d069a71ce0288e044946b" xlink:title=" ">
<polygon fill="#fff0f0" stroke="red" points="578.5,-27.12 453.75,-27.12 453.75,-6.38 578.5,-6.38 578.5,-27.12"/>
<text xml:space="preserve" text-anchor="middle" x="516.12" y="-13.62" font-family="Helvetica,sans-Serif" font-size="10.00">m_effect_update_reps</text>
</a>
</g>
</g>
<!-- Node3&#45;&gt;Node4 -->
<g id="edge3_Node000003_Node000004" class="edge">
<title>Node3&#45;&gt;Node4</title>
<g id="a_edge3_Node000003_Node000004"><a xlink:title=" ">
<path fill="none" stroke="#63b8ff" d="M417.87,-16.75C425.75,-16.75 433.92,-16.75 442.04,-16.75"/>
<polygon fill="#63b8ff" stroke="#63b8ff" points="441.92,-20.25 451.92,-16.75 441.92,-13.25 441.92,-20.25"/>
</a>
</g>
</g>
</g>
</svg>
