<?xml version="1.0" encoding="UTF-8" standalone="no"?>
<!DOCTYPE svg PUBLIC "-//W3C//DTD SVG 1.1//EN"
 "http://www.w3.org/Graphics/SVG/1.1/DTD/svg11.dtd">
<!-- Generated by graphviz version 13.1.2 (20250808.2320)
 -->
<!-- Title: m_parse_dictionary Pages: 1 -->
<!--zoomable 488 -->

<svg id="main" version="1.1" xmlns="http://www.w3.org/2000/svg" xmlns:xlink="http://www.w3.org/1999/xlink" xml:space="preserve" onload="init(evt)">

<style type="text/css"><![CDATA[
.node, .edge {opacity: 0.7;}
.node.selected, .edge.selected {opacity: 1;}
.edge:hover path { stroke: red; }
.edge:hover polygon { stroke: red; fill: red; }
]]></style>

<defs>
  <circle id="rim" cx="0" cy="0" r="7"/>
  <circle id="rim2" cx="0" cy="0" r="3.5"/>
  <g id="zoomPlus">
    <use xlink:href="#rim" fill="#404040"><set attributeName="fill" to="#808080" begin="zoomplus.mouseover" end="zoomplus.mouseout"/></use>
    <path d="M-4,0h8M0,-4v8" fill="none" stroke="white" stroke-width="1.5" pointer-events="none"/>
  </g>
  <g id="zoomMin">
    <use xlink:href="#rim" fill="#404040"><set attributeName="fill" to="#808080" begin="zoomminus.mouseover" end="zoomminus.mouseout"/></use>
    <path d="M-4,0h8" fill="none" stroke="white" stroke-width="1.5" pointer-events="none"/>
  </g>
  <g id="arrowUp" transform="translate(30 24)">
    <use xlink:href="#rim"/>
    <path pointer-events="none" fill="none" stroke="white" stroke-width="1.5" d="M0,-3.0v7 M-2.5,-0.5L0,-3.0L2.5,-0.5"/>
  </g>
  <g id="arrowRight" transform="rotate(90) translate(36 -43)">
    <use xlink:href="#rim"/>
    <path pointer-events="none" fill="none" stroke="white" stroke-width="1.5" d="M0,-3.0v7 M-2.5,-0.5L0,-3.0L2.5,-0.5"/>
  </g>
  <g id="arrowDown" transform="rotate(180) translate(-30 -48)">
    <use xlink:href="#rim"/>
    <path pointer-events="none" fill="none" stroke="white" stroke-width="1.5" d="M0,-3.0v7 M-2.5,-0.5L0,-3.0L2.5,-0.5"/>
  </g>
  <g id="arrowLeft" transform="rotate(270) translate(-36 17)">
    <use xlink:href="#rim"/>
    <path pointer-events="none" fill="none" stroke="white" stroke-width="1.5" d="M0,-3.0v7 M-2.5,-0.5L0,-3.0L2.5,-0.5"/>
  </g>
  <g id="resetDef">
    <use xlink:href="#rim2" fill="#404040"><set attributeName="fill" to="#808080" begin="reset.mouseover" end="reset.mouseout"/></use>
  </g>
</defs>
<script type="application/ecmascript">
var viewWidth = 762;
var viewHeight = 488;
var sectionId = 'dynsection-7';
</script>
<script type="application/ecmascript" xlink:href="svg.min.js"/>
<svg id="graph" class="graph">
<g id="viewport">
<title>m_parse_dictionary</title>
<!-- Node1 -->
<g id="Node000001" class="node">
<title>Node1</title>
<g id="a_Node000001"><a xlink:title=" ">
<polygon fill="#999999" stroke="#666666" points="112,-210.75 0,-210.75 0,-190 112,-190 112,-210.75"/>
<text xml:space="preserve" text-anchor="middle" x="56" y="-197.25" font-family="Helvetica,sans-Serif" font-size="10.00">m_parse_dictionary</text>
</a>
</g>
</g>
<!-- Node2 -->
<g id="Node000002" class="node">
<title>Node2</title>
<g id="a_Node000002"><a xlink:href="m__dictionary_8c.html#a9c9ebc18b5141af3f6c0485edbf89aa1" target="_top" xlink:title=" ">
<polygon fill="white" stroke="#666666" points="281.75,-436.75 148,-436.75 148,-416 281.75,-416 281.75,-436.75"/>
<text xml:space="preserve" text-anchor="middle" x="214.88" y="-423.25" font-family="Helvetica,sans-Serif" font-size="10.00">m_dictionary_add_entry</text>
</a>
</g>
</g>
<!-- Node1&#45;&gt;Node2 -->
<g id="edge1_Node000001_Node000002" class="edge">
<title>Node1&#45;&gt;Node2</title>
<g id="a_edge1_Node000001_Node000002"><a xlink:title=" ">
<path fill="none" stroke="#63b8ff" d="M61.59,-210.86C73.58,-237.61 107.67,-309.96 148,-362.38 161.08,-379.38 178.61,-396.18 192.29,-408.31"/>
<polygon fill="#63b8ff" stroke="#63b8ff" points="189.65,-410.65 199.5,-414.56 194.24,-405.36 189.65,-410.65"/>
</a>
</g>
</g>
<!-- Node8 -->
<g id="Node000008" class="node">
<title>Node8</title>
<g id="a_Node000008"><a xlink:href="m__dictionary_8c.html#a10416b1580a1b0e1723bcc1c7cf1aeb8" target="_top" xlink:title=" ">
<polygon fill="white" stroke="#666666" points="267.5,-353.75 162.25,-353.75 162.25,-333 267.5,-333 267.5,-353.75"/>
<text xml:space="preserve" text-anchor="middle" x="214.88" y="-340.25" font-family="Helvetica,sans-Serif" font-size="10.00">m_new_dictionary</text>
</a>
</g>
</g>
<!-- Node1&#45;&gt;Node8 -->
<g id="edge7_Node000001_Node000008" class="edge">
<title>Node1&#45;&gt;Node8</title>
<g id="a_edge7_Node000001_Node000008"><a xlink:title=" ">
<path fill="none" stroke="#63b8ff" d="M62.51,-211.24C74.76,-234.37 106.5,-288.88 148,-319.38 152.54,-322.71 157.6,-325.63 162.83,-328.17"/>
<polygon fill="#63b8ff" stroke="#63b8ff" points="161.07,-331.22 171.64,-331.99 163.86,-324.8 161.07,-331.22"/>
</a>
</g>
</g>
<!-- Node10 -->
<g id="Node000010" class="node">
<title>Node10</title>
<g id="a_Node000010"><a xlink:href="m__dictionary_8c.html#aab1bb060fb0ff389ff2712d91ef17634" target="_top" xlink:title=" ">
<polygon fill="white" stroke="#666666" points="265.62,-210.75 164.12,-210.75 164.12,-190 265.62,-190 265.62,-210.75"/>
<text xml:space="preserve" text-anchor="middle" x="214.88" y="-197.25" font-family="Helvetica,sans-Serif" font-size="10.00">m_parse_dict_val</text>
</a>
</g>
</g>
<!-- Node1&#45;&gt;Node10 -->
<g id="edge10_Node000001_Node000010" class="edge">
<title>Node1&#45;&gt;Node10</title>
<g id="a_edge10_Node000001_Node000010"><a xlink:title=" ">
<path fill="none" stroke="#63b8ff" d="M112.31,-193.89C125.27,-193.58 139.16,-193.54 152.38,-193.77"/>
<polygon fill="#63b8ff" stroke="#63b8ff" points="152.18,-197.26 162.26,-194 152.35,-190.27 152.18,-197.26"/>
</a>
</g>
</g>
<!-- Node21 -->
<g id="Node000021" class="node">
<title>Node21</title>
<g id="a_Node000021"><a xlink:href="m__eff__parser_8c.html#a8541f46b6f93163d1fcb065bd26c7a36" target="_top" xlink:title=" ">
<polygon fill="#fff0f0" stroke="red" points="753.5,-187.75 648.25,-187.75 648.25,-167 753.5,-167 753.5,-187.75"/>
<text xml:space="preserve" text-anchor="middle" x="700.88" y="-174.25" font-family="Helvetica,sans-Serif" font-size="10.00">m_parser_error_at</text>
</a>
</g>
</g>
<!-- Node1&#45;&gt;Node21 -->
<g id="edge23_Node000001_Node000021" class="edge">
<title>Node1&#45;&gt;Node21</title>
<g id="a_edge23_Node000001_Node000021"><a xlink:title=" ">
<path fill="none" stroke="#63b8ff" d="M86.09,-211.15C170.38,-240.64 420.95,-316.15 612.25,-248.38 641.17,-238.13 667.51,-213.83 683.6,-196.51"/>
<polygon fill="#63b8ff" stroke="#63b8ff" points="685.96,-199.12 690.03,-189.34 680.75,-194.45 685.96,-199.12"/>
</a>
</g>
</g>
<!-- Node28 -->
<g id="Node000028" class="node">
<title>Node28</title>
<g id="a_Node000028"><a xlink:href="m__tokenizer_8c.html#a713c477a645ef8a6abfd4cb4e257b53c" target="_top" xlink:title=" ">
<polygon fill="#fff0f0" stroke="red" points="745.62,-102.75 656.12,-102.75 656.12,-82 745.62,-82 745.62,-102.75"/>
<text xml:space="preserve" text-anchor="middle" x="700.88" y="-89.25" font-family="Helvetica,sans-Serif" font-size="10.00">token_is_name</text>
</a>
</g>
</g>
<!-- Node1&#45;&gt;Node28 -->
<g id="edge27_Node000001_Node000028" class="edge">
<title>Node1&#45;&gt;Node28</title>
<g id="a_edge27_Node000001_Node000028"><a xlink:title=" ">
<path fill="none" stroke="#63b8ff" d="M87.05,-189.59C156.93,-165.18 336.3,-106.45 492,-88.38 543.46,-82.4 602.55,-84.38 644.54,-87.28"/>
<polygon fill="#63b8ff" stroke="#63b8ff" points="644.17,-90.76 654.4,-88 644.69,-83.78 644.17,-90.76"/>
</a>
</g>
</g>
<!-- Node35 -->
<g id="Node000035" class="node">
<title>Node35</title>
<g id="a_Node000035"><a xlink:href="m__eff__parser_8c.html#aa0883b2173df2a97fcb2597b7a483197" target="_top" xlink:title=" ">
<polygon fill="white" stroke="#666666" points="438.75,-315.75 335,-315.75 335,-295 438.75,-295 438.75,-315.75"/>
<text xml:space="preserve" text-anchor="middle" x="386.88" y="-302.25" font-family="Helvetica,sans-Serif" font-size="10.00">m_parser_strndup</text>
</a>
</g>
</g>
<!-- Node1&#45;&gt;Node35 -->
<g id="edge24_Node000001_Node000035" class="edge">
<title>Node1&#45;&gt;Node35</title>
<g id="a_edge24_Node000001_Node000035"><a xlink:title=" ">
<path fill="none" stroke="#63b8ff" d="M65.15,-211.1C79.58,-229.19 111.6,-265.38 148,-281.38 203.88,-305.92 274.05,-310.19 323.65,-309.37"/>
<polygon fill="#63b8ff" stroke="#63b8ff" points="323.43,-312.88 333.34,-309.14 323.26,-305.88 323.43,-312.88"/>
</a>
</g>
</g>
<!-- Node37 -->
<g id="Node000037" class="node">
<title>Node37</title>
<g id="a_Node000037"><a xlink:href="m__eff__parser_8c.html#a77da914b5a0089754c8679fa7c96fb50" target="_top" xlink:title=" ">
<polygon fill="white" stroke="#666666" points="260,-98.75 169.75,-98.75 169.75,-78 260,-78 260,-98.75"/>
<text xml:space="preserve" text-anchor="middle" x="214.88" y="-85.25" font-family="Helvetica,sans-Serif" font-size="10.00">m_parser_error</text>
</a>
</g>
</g>
<!-- Node1&#45;&gt;Node37 -->
<g id="edge22_Node000001_Node000037" class="edge">
<title>Node1&#45;&gt;Node37</title>
<g id="a_edge22_Node000001_Node000037"><a xlink:title=" ">
<path fill="none" stroke="#63b8ff" d="M65.44,-189.68C80.31,-171.48 112.97,-134.29 148,-112.38 153.29,-109.07 159.1,-106.12 165.01,-103.53"/>
<polygon fill="#63b8ff" stroke="#63b8ff" points="166.3,-106.78 174.27,-99.79 163.69,-100.29 166.3,-106.78"/>
</a>
</g>
</g>
<!-- Node38 -->
<g id="Node000038" class="node">
<title>Node38</title>
<g id="a_Node000038"><a xlink:href="m__tokenizer_8c.html#ab37a933fc16f9739bb13cee12373ab90" target="_top" xlink:title=" ">
<polygon fill="white" stroke="#666666" points="272.75,-59.75 157,-59.75 157,-39 272.75,-39 272.75,-59.75"/>
<text xml:space="preserve" text-anchor="middle" x="214.88" y="-46.25" font-family="Helvetica,sans-Serif" font-size="10.00">m_token_ll_advance</text>
</a>
</g>
</g>
<!-- Node1&#45;&gt;Node38 -->
<g id="edge25_Node000001_Node000038" class="edge">
<title>Node1&#45;&gt;Node38</title>
<g id="a_edge25_Node000001_Node000038"><a xlink:title=" ">
<path fill="none" stroke="#63b8ff" d="M61.4,-189.74C72.26,-164.83 102.77,-102.29 148,-69.38 150.16,-67.8 152.45,-66.35 154.82,-65.01"/>
<polygon fill="#63b8ff" stroke="#63b8ff" points="156.11,-68.28 163.6,-60.78 153.07,-61.97 156.11,-68.28"/>
</a>
</g>
</g>
<!-- Node39 -->
<g id="Node000039" class="node">
<title>Node39</title>
<g id="a_Node000039"><a xlink:href="m__tokenizer_8c.html#a7a1c182d280d65c45a116616e00d00fa" target="_top" xlink:title=" ">
<polygon fill="white" stroke="#666666" points="271.62,-20.75 158.12,-20.75 158.12,0 271.62,0 271.62,-20.75"/>
<text xml:space="preserve" text-anchor="middle" x="214.88" y="-7.25" font-family="Helvetica,sans-Serif" font-size="10.00">m_token_ll_skip_ws</text>
</a>
</g>
</g>
<!-- Node1&#45;&gt;Node39 -->
<g id="edge26_Node000001_Node000039" class="edge">
<title>Node1&#45;&gt;Node39</title>
<g id="a_edge26_Node000001_Node000039"><a xlink:title=" ">
<path fill="none" stroke="#63b8ff" d="M59.61,-189.78C67.48,-159.98 93.91,-74.75 148,-30.38 149.7,-28.98 151.49,-27.69 153.36,-26.48"/>
<polygon fill="#63b8ff" stroke="#63b8ff" points="154.73,-29.72 161.87,-21.89 151.4,-23.56 154.73,-29.72"/>
</a>
</g>
</g>
<!-- Node3 -->
<g id="Node000003" class="node">
<title>Node3</title>
<g id="a_Node000003"><a xlink:href="m__dictionary_8c.html#aeb19ad0f434edb382a40729c339ed72e" target="_top" xlink:title=" ">
<polygon fill="white" stroke="#666666" points="445.5,-443.12 328.25,-443.12 328.25,-409.62 445.5,-409.62 445.5,-443.12"/>
<text xml:space="preserve" text-anchor="start" x="336.25" y="-429.62" font-family="Helvetica,sans-Serif" font-size="10.00">m_dictionary_bucket</text>
<text xml:space="preserve" text-anchor="middle" x="386.88" y="-416.88" font-family="Helvetica,sans-Serif" font-size="10.00">_add_entry</text>
</a>
</g>
</g>
<!-- Node2&#45;&gt;Node3 -->
<g id="edge2_Node000002_Node000003" class="edge">
<title>Node2&#45;&gt;Node3</title>
<g id="a_edge2_Node000002_Node000003"><a xlink:title=" ">
<path fill="none" stroke="#63b8ff" d="M282.09,-426.38C293.42,-426.38 305.21,-426.38 316.62,-426.38"/>
<polygon fill="#63b8ff" stroke="#63b8ff" points="316.34,-429.88 326.34,-426.38 316.34,-422.88 316.34,-429.88"/>
</a>
</g>
</g>
<!-- Node7 -->
<g id="Node000007" class="node">
<title>Node7</title>
<g id="a_Node000007"><a xlink:href="m__dictionary_8c.html#abb33f0dcbafa6887ed20113084d4e35f" target="_top" xlink:title=" ">
<polygon fill="white" stroke="#666666" points="611.12,-480.12 493.12,-480.12 493.12,-446.62 611.12,-446.62 611.12,-480.12"/>
<text xml:space="preserve" text-anchor="start" x="501.12" y="-466.62" font-family="Helvetica,sans-Serif" font-size="10.00">m_dictionary_ensure</text>
<text xml:space="preserve" text-anchor="middle" x="552.12" y="-453.88" font-family="Helvetica,sans-Serif" font-size="10.00">_capacity</text>
</a>
</g>
</g>
<!-- Node2&#45;&gt;Node7 -->
<g id="edge5_Node000002_Node000007" class="edge">
<title>Node2&#45;&gt;Node7</title>
<g id="a_edge5_Node000002_Node000007"><a xlink:title=" ">
<path fill="none" stroke="#63b8ff" d="M250.88,-437.18C270.37,-442.72 295.18,-449 317.75,-452.38 372.3,-460.53 434.74,-463.13 481.3,-463.77"/>
<polygon fill="#63b8ff" stroke="#63b8ff" points="481.23,-467.27 491.27,-463.88 481.31,-460.27 481.23,-467.27"/>
</a>
</g>
</g>
<!-- Node4 -->
<g id="Node000004" class="node">
<title>Node4</title>
<g id="a_Node000004"><a xlink:href="m__dictionary_8c.html#ae8d5356f7a4d1c14c8a71dd8fa59ff0d" target="_top" xlink:title=" ">
<polygon fill="white" stroke="#666666" points="610.75,-413.12 493.5,-413.12 493.5,-379.62 610.75,-379.62 610.75,-413.12"/>
<text xml:space="preserve" text-anchor="start" x="501.5" y="-399.62" font-family="Helvetica,sans-Serif" font-size="10.00">m_dictionary_bucket</text>
<text xml:space="preserve" text-anchor="middle" x="552.12" y="-386.88" font-family="Helvetica,sans-Serif" font-size="10.00">_ensure_capacity</text>
</a>
</g>
</g>
<!-- Node3&#45;&gt;Node4 -->
<g id="edge3_Node000003_Node000004" class="edge">
<title>Node3&#45;&gt;Node4</title>
<g id="a_edge3_Node000003_Node000004"><a xlink:title=" ">
<path fill="none" stroke="#63b8ff" d="M445.89,-415.71C457.49,-413.58 469.78,-411.32 481.72,-409.13"/>
<polygon fill="#63b8ff" stroke="#63b8ff" points="482.33,-412.58 491.53,-407.33 481.06,-405.69 482.33,-412.58"/>
</a>
</g>
</g>
<!-- Node5 -->
<g id="Node000005" class="node">
<title>Node5</title>
<g id="a_Node000005"><a xlink:href="m__eff__parser_8c.html#ade572d30ba1f7e322e469b02d0eb634d" target="_top" xlink:title=" ">
<polygon fill="#fff0f0" stroke="red" points="746,-379.75 655.75,-379.75 655.75,-359 746,-359 746,-379.75"/>
<text xml:space="preserve" text-anchor="middle" x="700.88" y="-366.25" font-family="Helvetica,sans-Serif" font-size="10.00">m_parser_alloc</text>
</a>
</g>
</g>
<!-- Node4&#45;&gt;Node5 -->
<g id="edge4_Node000004_Node000005" class="edge">
<title>Node4&#45;&gt;Node5</title>
<g id="a_edge4_Node000004_Node000005"><a xlink:title=" ">
<path fill="none" stroke="#63b8ff" d="M611.12,-385.7C622.07,-383.69 633.48,-381.59 644.35,-379.59"/>
<polygon fill="#63b8ff" stroke="#63b8ff" points="644.73,-383.08 653.93,-377.83 643.47,-376.19 644.73,-383.08"/>
</a>
</g>
</g>
<!-- Node7&#45;&gt;Node5 -->
<g id="edge6_Node000007_Node000005" class="edge">
<title>Node7&#45;&gt;Node5</title>
<g id="a_edge6_Node000007_Node000005"><a xlink:title=" ">
<path fill="none" stroke="#63b8ff" d="M580.04,-446.13C606.75,-429.03 647.41,-402.98 673.81,-386.07"/>
<polygon fill="#63b8ff" stroke="#63b8ff" points="675.37,-389.23 681.9,-380.89 671.59,-383.34 675.37,-389.23"/>
</a>
</g>
</g>
<!-- Node8&#45;&gt;Node5 -->
<g id="edge9_Node000008_Node000005" class="edge">
<title>Node8&#45;&gt;Node5</title>
<g id="a_edge9_Node000008_Node000005"><a xlink:title=" ">
<path fill="none" stroke="#63b8ff" d="M267.67,-346.16C359.44,-351.09 549.78,-361.31 644.23,-366.39"/>
<polygon fill="#63b8ff" stroke="#63b8ff" points="643.85,-369.87 654.02,-366.91 644.22,-362.88 643.85,-369.87"/>
</a>
</g>
</g>
<!-- Node9 -->
<g id="Node000009" class="node">
<title>Node9</title>
<g id="a_Node000009"><a xlink:href="m__dictionary_8c.html#a650375302f35f70888fd4d8a8a2f6d32" target="_top" xlink:title=" ">
<polygon fill="white" stroke="#666666" points="456,-391.75 317.75,-391.75 317.75,-371 456,-371 456,-391.75"/>
<text xml:space="preserve" text-anchor="middle" x="386.88" y="-378.25" font-family="Helvetica,sans-Serif" font-size="10.00">m_dictionary_bucket_init</text>
</a>
</g>
</g>
<!-- Node8&#45;&gt;Node9 -->
<g id="edge8_Node000008_Node000009" class="edge">
<title>Node8&#45;&gt;Node9</title>
<g id="a_edge8_Node000008_Node000009"><a xlink:title=" ">
<path fill="none" stroke="#63b8ff" d="M264.14,-354.16C283.52,-358.49 306.05,-363.53 326.43,-368.09"/>
<polygon fill="#63b8ff" stroke="#63b8ff" points="325.49,-371.46 336.02,-370.23 327.02,-364.63 325.49,-371.46"/>
</a>
</g>
</g>
<!-- Node10&#45;&gt;Node1 -->
<g id="edge11_Node000010_Node000001" class="edge">
<title>Node10&#45;&gt;Node1</title>
<g id="a_edge11_Node000010_Node000001"><a xlink:title=" ">
<path fill="none" stroke="#63b8ff" d="M163.78,-206.72C150.96,-207.1 136.99,-207.21 123.49,-207.05"/>
<polygon fill="#63b8ff" stroke="#63b8ff" points="123.88,-203.56 113.82,-206.88 123.76,-210.56 123.88,-203.56"/>
</a>
</g>
</g>
<!-- Node11 -->
<g id="Node000011" class="node">
<title>Node11</title>
<g id="a_Node000011"><a xlink:href="m__expr__parser_8c.html#af2a49578710f5e5b4f4c3339992ba0c9" target="_top" xlink:title=" ">
<polygon fill="white" stroke="#666666" points="445.12,-210.75 328.62,-210.75 328.62,-190 445.12,-190 445.12,-210.75"/>
<text xml:space="preserve" text-anchor="middle" x="386.88" y="-197.25" font-family="Helvetica,sans-Serif" font-size="10.00">m_parse_expression</text>
</a>
</g>
</g>
<!-- Node10&#45;&gt;Node11 -->
<g id="edge12_Node000010_Node000011" class="edge">
<title>Node10&#45;&gt;Node11</title>
<g id="a_edge12_Node000010_Node000011"><a xlink:title=" ">
<path fill="none" stroke="#63b8ff" d="M265.96,-200.38C282.03,-200.38 300.11,-200.38 317.27,-200.38"/>
<polygon fill="#63b8ff" stroke="#63b8ff" points="316.87,-203.88 326.87,-200.38 316.87,-196.88 316.87,-203.88"/>
</a>
</g>
</g>
<!-- Node10&#45;&gt;Node35 -->
<g id="edge19_Node000010_Node000035" class="edge">
<title>Node10&#45;&gt;Node35</title>
<g id="a_edge19_Node000010_Node000035"><a xlink:title=" ">
<path fill="none" stroke="#63b8ff" d="M233.43,-211.22C263.15,-229.58 323.6,-266.91 358.79,-288.65"/>
<polygon fill="#63b8ff" stroke="#63b8ff" points="356.78,-291.52 367.13,-293.8 360.46,-285.56 356.78,-291.52"/>
</a>
</g>
</g>
<!-- Node36 -->
<g id="Node000036" class="node">
<title>Node36</title>
<g id="a_Node000036"><a xlink:href="m__tokenizer_8c.html#a771250b5b92e15569b913f03fecc1fb2" target="_top" xlink:title=" ">
<polygon fill="white" stroke="#666666" points="442.12,-172.12 331.62,-172.12 331.62,-138.62 442.12,-138.62 442.12,-172.12"/>
<text xml:space="preserve" text-anchor="start" x="339.62" y="-158.62" font-family="Helvetica,sans-Serif" font-size="10.00">token_is_dict_entry</text>
<text xml:space="preserve" text-anchor="middle" x="386.88" y="-145.88" font-family="Helvetica,sans-Serif" font-size="10.00">_seperator</text>
</a>
</g>
</g>
<!-- Node10&#45;&gt;Node36 -->
<g id="edge21_Node000010_Node000036" class="edge">
<title>Node10&#45;&gt;Node36</title>
<g id="a_edge21_Node000010_Node000036"><a xlink:title=" ">
<path fill="none" stroke="#63b8ff" d="M256.59,-189.6C275.67,-184.55 298.86,-178.41 320.32,-172.73"/>
<polygon fill="#63b8ff" stroke="#63b8ff" points="321.11,-176.14 329.88,-170.2 319.32,-169.37 321.11,-176.14"/>
</a>
</g>
</g>
<!-- Node12 -->
<g id="Node000012" class="node">
<title>Node12</title>
<g id="a_Node000012"><a xlink:href="m__expression_8c.html#acd7ddd6e154ca0394752c7aac612fe5e" target="_top" xlink:title=" ">
<polygon fill="#fff0f0" stroke="red" points="612.25,-239.12 492,-239.12 492,-205.62 612.25,-205.62 612.25,-239.12"/>
<text xml:space="preserve" text-anchor="start" x="500" y="-225.62" font-family="Helvetica,sans-Serif" font-size="10.00">m_expression_detect</text>
<text xml:space="preserve" text-anchor="middle" x="552.12" y="-212.88" font-family="Helvetica,sans-Serif" font-size="10.00">_constants</text>
</a>
</g>
</g>
<!-- Node11&#45;&gt;Node12 -->
<g id="edge13_Node000011_Node000012" class="edge">
<title>Node11&#45;&gt;Node12</title>
<g id="a_edge13_Node000011_Node000012"><a xlink:title=" ">
<path fill="none" stroke="#63b8ff" d="M445.43,-208.13C456.77,-209.66 468.79,-211.28 480.5,-212.86"/>
<polygon fill="#63b8ff" stroke="#63b8ff" points="479.73,-216.28 490.1,-214.15 480.66,-209.35 479.73,-216.28"/>
</a>
</g>
</g>
<!-- Node16 -->
<g id="Node000016" class="node">
<title>Node16</title>
<g id="a_Node000016"><a xlink:href="m__expr__parser_8c.html#a45b4bb314bb1c677680ca37595ea8281" target="_top" xlink:title=" ">
<polygon fill="#fff0f0" stroke="red" points="610.38,-131.12 493.88,-131.12 493.88,-97.62 610.38,-97.62 610.38,-131.12"/>
<text xml:space="preserve" text-anchor="start" x="501.88" y="-117.62" font-family="Helvetica,sans-Serif" font-size="10.00">m_parse_expression</text>
<text xml:space="preserve" text-anchor="middle" x="552.12" y="-104.88" font-family="Helvetica,sans-Serif" font-size="10.00">_rec_pratt</text>
</a>
</g>
</g>
<!-- Node11&#45;&gt;Node16 -->
<g id="edge14_Node000011_Node000016" class="edge">
<title>Node11&#45;&gt;Node16</title>
<g id="a_edge14_Node000011_Node000016"><a xlink:title=" ">
<path fill="none" stroke="#63b8ff" d="M434.82,-189.57C442.06,-187.25 449.34,-184.53 456,-181.38 479.94,-170.02 504.31,-152.72 522.39,-138.54"/>
<polygon fill="#63b8ff" stroke="#63b8ff" points="524.44,-141.39 530.06,-132.41 520.07,-135.92 524.44,-141.39"/>
</a>
</g>
</g>
<!-- Node11&#45;&gt;Node21 -->
<g id="edge18_Node000011_Node000021" class="edge">
<title>Node11&#45;&gt;Node21</title>
<g id="a_edge18_Node000011_Node000021"><a xlink:title=" ">
<path fill="none" stroke="#63b8ff" d="M445.46,-196.13C499.66,-192.13 580.64,-186.16 636.61,-182.04"/>
<polygon fill="#63b8ff" stroke="#63b8ff" points="636.58,-185.55 646.3,-181.32 636.07,-178.57 636.58,-185.55"/>
</a>
</g>
</g>
<!-- Node16&#45;&gt;Node16 -->
<g id="edge15_Node000016_Node000016" class="edge">
<title>Node16&#45;&gt;Node16</title>
<g id="a_edge15_Node000016_Node000016"><a xlink:title=" ">
<path fill="none" stroke="#63b8ff" d="M525.39,-131.54C520.84,-140.74 529.75,-149.12 552.12,-149.12 564.36,-149.12 572.57,-146.62 576.75,-142.84"/>
<polygon fill="#63b8ff" stroke="#63b8ff" points="580.19,-143.5 578.59,-133.03 573.31,-142.21 580.19,-143.5"/>
</a>
</g>
</g>
<!-- Node16&#45;&gt;Node21 -->
<g id="edge16_Node000016_Node000021" class="edge">
<title>Node16&#45;&gt;Node21</title>
<g id="a_edge16_Node000016_Node000021"><a xlink:title=" ">
<path fill="none" stroke="#63b8ff" d="M593.23,-131.59C615.44,-141.13 642.82,-152.88 664.27,-162.09"/>
<polygon fill="#63b8ff" stroke="#63b8ff" points="662.62,-165.19 673.19,-165.92 665.39,-158.76 662.62,-165.19"/>
</a>
</g>
</g>
<!-- Node16&#45;&gt;Node28 -->
<g id="edge17_Node000016_Node000028" class="edge">
<title>Node16&#45;&gt;Node28</title>
<g id="a_edge17_Node000016_Node000028"><a xlink:title=" ">
<path fill="none" stroke="#63b8ff" d="M610.7,-105.74C621.91,-104.06 633.63,-102.31 644.75,-100.64"/>
<polygon fill="#63b8ff" stroke="#63b8ff" points="645.21,-104.11 654.58,-99.17 644.17,-97.19 645.21,-104.11"/>
</a>
</g>
</g>
<!-- Node35&#45;&gt;Node5 -->
<g id="edge20_Node000035_Node000005" class="edge">
<title>Node35&#45;&gt;Node5</title>
<g id="a_edge20_Node000035_Node000005"><a xlink:title=" ">
<path fill="none" stroke="#63b8ff" d="M439.09,-306.19C485.14,-308.02 554.25,-313.49 612.25,-329.38 632.62,-334.96 654.23,-344.77 670.89,-353.28"/>
<polygon fill="#63b8ff" stroke="#63b8ff" points="669.24,-356.37 679.72,-357.92 672.49,-350.17 669.24,-356.37"/>
</a>
</g>
</g>
</g>
</svg>

<g id="navigator" transform="translate(0 0)" fill="#404254">
  <rect fill="#f2f5e9" fill-opacity="0.5" stroke="#606060" stroke-width=".5" x="0" y="0" width="60" height="60"/>
  <use id="zoomplus" xlink:href="#zoomPlus" x="17" y="9" onmousedown="handleZoom(evt,'in')"/>
  <use id="zoomminus" xlink:href="#zoomMin" x="42" y="9" onmousedown="handleZoom(evt,'out')"/>
  <use id="reset" xlink:href="#resetDef" x="30" y="36" onmousedown="handleReset()"/>
   <use id="arrowup" xlink:href="#arrowUp" x="0" y="0" onmousedown="handlePan(0,-1)"/>
  <use id="arrowright" xlink:href="#arrowRight" x="0" y="0" onmousedown="handlePan(1,0)"/>
  <use id="arrowdown" xlink:href="#arrowDown" x="0" y="0" onmousedown="handlePan(0,1)"/>
  <use id="arrowleft" xlink:href="#arrowLeft" x="0" y="0" onmousedown="handlePan(-1,0)"/>
</g>
<svg viewBox="0 0 15 15" width="100%" height="30px" preserveAspectRatio="xMaxYMin meet">
 <g id="arrow_out" transform="scale(0.3 0.3)">
  <a xlink:href="m__eff__parser_8h_ab52fc5ead828b21f765fdd2819fac663_cgraph_org.svg" target="_base">
   <rect id="button" ry="5" rx="5" y="6" x="6" height="38" width="38"
        fill="#f2f5e9" fill-opacity="0.5" stroke="#606060" stroke-width="1.0"/>
   <path id="arrow"
     d="M 11.500037,31.436501 C 11.940474,20.09759 22.043105,11.32322 32.158766,21.979434 L 37.068811,17.246167 C 37.068811,17.246167 37.088388,32 37.088388,32 L 22.160133,31.978069 C 22.160133,31.978069 26.997745,27.140456 26.997745,27.140456 C 18.528582,18.264221 13.291696,25.230495 11.500037,31.436501 z"
     style="fill:#404040;"/>
  </a>
 </g>
</svg>

<style type='text/css'>
<![CDATA[
[data-mouse-over-selected='false'] { opacity: 0.7; }
[data-mouse-over-selected='true']  { opacity: 1.0; }
]]>
</style>
<script type="application/ecmascript"><![CDATA[
document.addEventListener('DOMContentLoaded', (event) => {
  highlightEdges();
  highlightAdjacentNodes();
});
]]></script>
</svg>
