<?xml version="1.0" encoding="UTF-8" standalone="no"?>
<!DOCTYPE svg PUBLIC "-//W3C//DTD SVG 1.1//EN"
 "http://www.w3.org/Graphics/SVG/1.1/DTD/svg11.dtd">
<!-- Generated by graphviz version 13.1.2 (20250808.2320)
 -->
<!-- Title: m_parse_tokens Pages: 1 -->
<svg width="849pt" height="954pt"
 viewBox="0.00 0.00 849.00 954.00" xmlns="http://www.w3.org/2000/svg" xmlns:xlink="http://www.w3.org/1999/xlink">
<g id="graph0" class="graph" transform="scale(1 1) rotate(0) translate(4 949.75)">
<title>m_parse_tokens</title>
<!-- Node1 -->
<g id="Node000001" class="node">
<title>Node1</title>
<g id="a_Node000001"><a xlink:title=" ">
<polygon fill="#999999" stroke="#666666" points="95.5,-410.75 0,-410.75 0,-390 95.5,-390 95.5,-410.75"/>
<text xml:space="preserve" text-anchor="middle" x="47.75" y="-397.25" font-family="Helvetica,sans-Serif" font-size="10.00">m_parse_tokens</text>
</a>
</g>
</g>
<!-- Node2 -->
<g id="Node000002" class="node">
<title>Node2</title>
<g id="a_Node000002"><a xlink:href="m__eff__section_8c.html#afb268a3dbcedc0c867e0e57a01e9a01d" target="_top" xlink:title=" ">
<polygon fill="white" stroke="#666666" points="274.25,-906.75 142.75,-906.75 142.75,-886 274.25,-886 274.25,-906.75"/>
<text xml:space="preserve" text-anchor="middle" x="208.5" y="-893.25" font-family="Helvetica,sans-Serif" font-size="10.00">get_section_start_score</text>
</a>
</g>
</g>
<!-- Node1&#45;&gt;Node2 -->
<g id="edge1_Node000001_Node000002" class="edge">
<title>Node1&#45;&gt;Node2</title>
<g id="a_edge1_Node000001_Node000002"><a xlink:title=" ">
<path fill="none" stroke="#63b8ff" d="M49.48,-411C52.97,-457.49 70.46,-646.84 131.5,-787.38 146.4,-821.69 172.92,-856.27 190.36,-877.01"/>
<polygon fill="#63b8ff" stroke="#63b8ff" points="187.5,-879.05 196.67,-884.36 192.82,-874.5 187.5,-879.05"/>
</a>
</g>
</g>
<!-- Node5 -->
<g id="Node000005" class="node">
<title>Node5</title>
<g id="a_Node000005"><a xlink:href="m__eff__section_8c.html#a447e0fea04761abdb92895b668b51bec" target="_top" xlink:title=" ">
<polygon fill="white" stroke="#666666" points="274.62,-778.75 142.38,-778.75 142.38,-758 274.62,-758 274.62,-778.75"/>
<text xml:space="preserve" text-anchor="middle" x="208.5" y="-765.25" font-family="Helvetica,sans-Serif" font-size="10.00">m_defs_section_extract</text>
</a>
</g>
</g>
<!-- Node1&#45;&gt;Node5 -->
<g id="edge4_Node000001_Node000005" class="edge">
<title>Node1&#45;&gt;Node5</title>
<g id="a_edge4_Node000001_Node000005"><a xlink:title=" ">
<path fill="none" stroke="#63b8ff" d="M49.15,-411C51.21,-452.79 63.33,-608.54 131.5,-710.38 143.05,-727.62 161.45,-741.86 177.25,-751.91"/>
<polygon fill="#63b8ff" stroke="#63b8ff" points="175.01,-754.65 185.37,-756.83 178.63,-748.66 175.01,-754.65"/>
</a>
</g>
</g>
<!-- Node11 -->
<g id="Node000011" class="node">
<title>Node11</title>
<g id="a_Node000011"><a xlink:href="m__eff__section_8c.html#a35c0fad1697fcc671194ccb8246adcf3" target="_top" xlink:title=" ">
<polygon fill="white" stroke="#666666" points="461.25,-663.12 341,-663.12 341,-629.62 461.25,-629.62 461.25,-663.12"/>
<text xml:space="preserve" text-anchor="start" x="349" y="-649.62" font-family="Helvetica,sans-Serif" font-size="10.00">m_dictionary_section</text>
<text xml:space="preserve" text-anchor="middle" x="401.12" y="-636.88" font-family="Helvetica,sans-Serif" font-size="10.00">_lookup_str</text>
</a>
</g>
</g>
<!-- Node1&#45;&gt;Node11 -->
<g id="edge10_Node000001_Node000011" class="edge">
<title>Node1&#45;&gt;Node11</title>
<g id="a_edge10_Node000001_Node000011"><a xlink:title=" ">
<path fill="none" stroke="#63b8ff" d="M48.7,-411.14C49.15,-449.28 56.37,-578.7 131.5,-634.38 187.96,-676.22 270.92,-673 329.68,-663.24"/>
<polygon fill="#63b8ff" stroke="#63b8ff" points="330,-666.74 339.23,-661.55 328.78,-659.85 330,-666.74"/>
</a>
</g>
</g>
<!-- Node15 -->
<g id="Node000015" class="node">
<title>Node15</title>
<g id="a_Node000015"><a xlink:href="m__expr__scope_8c.html#a30f60d4570a53c37d86fe2b562a066e2" target="_top" xlink:title=" ">
<polygon fill="white" stroke="#666666" points="284.38,-469.75 132.62,-469.75 132.62,-449 284.38,-449 284.38,-469.75"/>
<text xml:space="preserve" text-anchor="middle" x="208.5" y="-456.25" font-family="Helvetica,sans-Serif" font-size="10.00">m_expr_scope_add_params</text>
</a>
</g>
</g>
<!-- Node1&#45;&gt;Node15 -->
<g id="edge13_Node000001_Node000015" class="edge">
<title>Node1&#45;&gt;Node15</title>
<g id="a_edge13_Node000001_Node000015"><a xlink:title=" ">
<path fill="none" stroke="#63b8ff" d="M69.05,-411.22C85.53,-419.72 109.56,-431.39 131.5,-439.38 137.5,-441.56 143.84,-443.61 150.2,-445.5"/>
<polygon fill="#63b8ff" stroke="#63b8ff" points="148.83,-448.75 159.41,-448.13 150.75,-442.02 148.83,-448.75"/>
</a>
</g>
</g>
<!-- Node18 -->
<g id="Node000018" class="node">
<title>Node18</title>
<g id="a_Node000018"><a xlink:href="m__expr__scope_8c.html#a79ad6af328088e3c4e2d651d79a19c96" target="_top" xlink:title=" ">
<polygon fill="white" stroke="#666666" points="285.5,-430.75 131.5,-430.75 131.5,-410 285.5,-410 285.5,-430.75"/>
<text xml:space="preserve" text-anchor="middle" x="208.5" y="-417.25" font-family="Helvetica,sans-Serif" font-size="10.00">m_expr_scope_add_settings</text>
</a>
</g>
</g>
<!-- Node1&#45;&gt;Node18 -->
<g id="edge16_Node000001_Node000018" class="edge">
<title>Node1&#45;&gt;Node18</title>
<g id="a_edge16_Node000001_Node000018"><a xlink:title=" ">
<path fill="none" stroke="#63b8ff" d="M95.95,-406.32C103.55,-407.28 111.63,-408.3 119.83,-409.33"/>
<polygon fill="#63b8ff" stroke="#63b8ff" points="119.18,-412.78 129.54,-410.55 120.06,-405.83 119.18,-412.78"/>
</a>
</g>
</g>
<!-- Node21 -->
<g id="Node000021" class="node">
<title>Node21</title>
<g id="a_Node000021"><a xlink:href="m__expr__scope_8c.html#a7bc3b5dfb8cdc2171729e4640f9aae1f" target="_top" xlink:title=" ">
<polygon fill="white" stroke="#666666" points="262.25,-391.75 154.75,-391.75 154.75,-371 262.25,-371 262.25,-391.75"/>
<text xml:space="preserve" text-anchor="middle" x="208.5" y="-378.25" font-family="Helvetica,sans-Serif" font-size="10.00">m_expr_scope_init</text>
</a>
</g>
</g>
<!-- Node1&#45;&gt;Node21 -->
<g id="edge18_Node000001_Node000021" class="edge">
<title>Node1&#45;&gt;Node21</title>
<g id="a_edge18_Node000001_Node000021"><a xlink:title=" ">
<path fill="none" stroke="#63b8ff" d="M95.95,-394.73C110.73,-392.96 127.31,-390.97 143.07,-389.09"/>
<polygon fill="#63b8ff" stroke="#63b8ff" points="143.35,-392.58 152.86,-387.91 142.51,-385.63 143.35,-392.58"/>
</a>
</g>
</g>
<!-- Node22 -->
<g id="Node000022" class="node">
<title>Node22</title>
<g id="a_Node000022"><a xlink:href="m__parameter_8c.html#a688c342129769d916bec1d50c824b8f7" target="_top" xlink:title=" ">
<polygon fill="white" stroke="#666666" points="280.25,-352.75 136.75,-352.75 136.75,-332 280.25,-332 280.25,-352.75"/>
<text xml:space="preserve" text-anchor="middle" x="208.5" y="-339.25" font-family="Helvetica,sans-Serif" font-size="10.00">m_parameters_assign_ids</text>
</a>
</g>
</g>
<!-- Node1&#45;&gt;Node22 -->
<g id="edge19_Node000001_Node000022" class="edge">
<title>Node1&#45;&gt;Node22</title>
<g id="a_edge19_Node000001_Node000022"><a xlink:title=" ">
<path fill="none" stroke="#63b8ff" d="M69.42,-389.67C85.91,-381.42 109.77,-370.16 131.5,-362.38 137.59,-360.19 144.03,-358.14 150.48,-356.23"/>
<polygon fill="#63b8ff" stroke="#63b8ff" points="151.17,-359.67 159.84,-353.58 149.26,-352.94 151.17,-359.67"/>
</a>
</g>
</g>
<!-- Node23 -->
<g id="Node000023" class="node">
<title>Node23</title>
<g id="a_Node000023"><a xlink:href="m__eff__section_8c.html#ae18b8b0c3138c9b2f19ece218da82271" target="_top" xlink:title=" ">
<polygon fill="white" stroke="#666666" points="272.38,-573.12 144.62,-573.12 144.62,-539.62 272.38,-539.62 272.38,-573.12"/>
<text xml:space="preserve" text-anchor="start" x="152.62" y="-559.62" font-family="Helvetica,sans-Serif" font-size="10.00">m_parameters_section</text>
<text xml:space="preserve" text-anchor="middle" x="208.5" y="-546.88" font-family="Helvetica,sans-Serif" font-size="10.00">_extract</text>
</a>
</g>
</g>
<!-- Node1&#45;&gt;Node23 -->
<g id="edge20_Node000001_Node000023" class="edge">
<title>Node1&#45;&gt;Node23</title>
<g id="a_edge20_Node000001_Node000023"><a xlink:title=" ">
<path fill="none" stroke="#63b8ff" d="M52.72,-411.19C62.33,-435.94 89.24,-497.12 131.5,-530.38 132.84,-531.43 134.22,-532.44 135.63,-533.41"/>
<polygon fill="#63b8ff" stroke="#63b8ff" points="133.78,-536.38 144.17,-538.48 137.36,-530.36 133.78,-536.38"/>
</a>
</g>
</g>
<!-- Node42 -->
<g id="Node000042" class="node">
<title>Node42</title>
<g id="a_Node000042"><a xlink:href="m__eff__section_8c.html#ad5cee9bbe3fb52f304246838d34b170a" target="_top" xlink:title=" ">
<polygon fill="white" stroke="#666666" points="272,-701.75 145,-701.75 145,-681 272,-681 272,-701.75"/>
<text xml:space="preserve" text-anchor="middle" x="208.5" y="-688.25" font-family="Helvetica,sans-Serif" font-size="10.00">m_parse_code_section</text>
</a>
</g>
</g>
<!-- Node1&#45;&gt;Node42 -->
<g id="edge24_Node000001_Node000042" class="edge">
<title>Node1&#45;&gt;Node42</title>
<g id="a_edge24_Node000001_Node000042"><a xlink:title=" ">
<path fill="none" stroke="#63b8ff" d="M48.74,-411.04C49.31,-450.84 56.72,-592.2 131.5,-667.38 134.45,-670.35 137.77,-672.95 141.33,-675.23"/>
<polygon fill="#63b8ff" stroke="#63b8ff" points="139.41,-678.17 149.88,-679.83 142.73,-672.01 139.41,-678.17"/>
</a>
</g>
</g>
<!-- Node79 -->
<g id="Node000079" class="node">
<title>Node79</title>
<g id="a_Node000079"><a xlink:href="m__eff__section_8c.html#ad4898a5c5f76355d6a696bb0d6ee3b82" target="_top" xlink:title=" ">
<polygon fill="white" stroke="#666666" points="264.5,-276.12 152.5,-276.12 152.5,-242.62 264.5,-242.62 264.5,-276.12"/>
<text xml:space="preserve" text-anchor="start" x="160.5" y="-262.62" font-family="Helvetica,sans-Serif" font-size="10.00">m_parse_dictionary</text>
<text xml:space="preserve" text-anchor="middle" x="208.5" y="-249.88" font-family="Helvetica,sans-Serif" font-size="10.00">_section</text>
</a>
</g>
</g>
<!-- Node1&#45;&gt;Node79 -->
<g id="edge27_Node000001_Node000079" class="edge">
<title>Node1&#45;&gt;Node79</title>
<g id="a_edge27_Node000001_Node000079"><a xlink:title=" ">
<path fill="none" stroke="#63b8ff" d="M54.14,-389.79C65.6,-368.26 94.4,-318.97 131.5,-290.38 135.66,-287.17 140.19,-284.25 144.9,-281.59"/>
<polygon fill="#63b8ff" stroke="#63b8ff" points="146.14,-284.89 153.43,-277.2 142.93,-278.67 146.14,-284.89"/>
</a>
</g>
</g>
<!-- Node89 -->
<g id="Node000089" class="node">
<title>Node89</title>
<g id="a_Node000089"><a xlink:href="m__eff__parser_8c.html#a77da914b5a0089754c8679fa7c96fb50" target="_top" xlink:title=" ">
<polygon fill="white" stroke="#666666" points="646.75,-300.75 556.5,-300.75 556.5,-280 646.75,-280 646.75,-300.75"/>
<text xml:space="preserve" text-anchor="middle" x="601.62" y="-287.25" font-family="Helvetica,sans-Serif" font-size="10.00">m_parser_error</text>
</a>
</g>
</g>
<!-- Node1&#45;&gt;Node89 -->
<g id="edge34_Node000001_Node000089" class="edge">
<title>Node1&#45;&gt;Node89</title>
<g id="a_edge34_Node000001_Node000089"><a xlink:title=" ">
<path fill="none" stroke="#63b8ff" d="M56.42,-389.51C69.51,-371.98 98.02,-337.92 131.5,-323.38 204.29,-291.75 437.09,-289.13 544.88,-289.7"/>
<polygon fill="#63b8ff" stroke="#63b8ff" points="544.61,-293.19 554.64,-289.76 544.66,-286.19 544.61,-293.19"/>
</a>
</g>
</g>
<!-- Node56 -->
<g id="Node000056" class="node">
<title>Node56</title>
<g id="a_Node000056"><a xlink:href="m__eff__parser_8c.html#a8541f46b6f93163d1fcb065bd26c7a36" target="_top" xlink:title=" ">
<polygon fill="#fff0f0" stroke="red" points="654.25,-247.75 549,-247.75 549,-227 654.25,-227 654.25,-247.75"/>
<text xml:space="preserve" text-anchor="middle" x="601.62" y="-234.25" font-family="Helvetica,sans-Serif" font-size="10.00">m_parser_error_at</text>
</a>
</g>
</g>
<!-- Node1&#45;&gt;Node56 -->
<g id="edge35_Node000001_Node000056" class="edge">
<title>Node1&#45;&gt;Node56</title>
<g id="a_edge35_Node000001_Node000056"><a xlink:title=" ">
<path fill="none" stroke="#63b8ff" d="M50.21,-389.61C55.07,-358.63 73.76,-269.2 131.5,-233.38 197.49,-192.43 425.49,-214.71 537.51,-228.73"/>
<polygon fill="#63b8ff" stroke="#63b8ff" points="536.76,-232.17 547.13,-229.96 537.65,-225.22 536.76,-232.17"/>
</a>
</g>
</g>
<!-- Node74 -->
<g id="Node000074" class="node">
<title>Node74</title>
<g id="a_Node000074"><a xlink:href="m__eff__parser_8c.html#aa0883b2173df2a97fcb2597b7a483197" target="_top" xlink:title=" ">
<polygon fill="white" stroke="#666666" points="653.5,-187.75 549.75,-187.75 549.75,-167 653.5,-167 653.5,-187.75"/>
<text xml:space="preserve" text-anchor="middle" x="601.62" y="-174.25" font-family="Helvetica,sans-Serif" font-size="10.00">m_parser_strndup</text>
</a>
</g>
</g>
<!-- Node1&#45;&gt;Node74 -->
<g id="edge36_Node000001_Node000074" class="edge">
<title>Node1&#45;&gt;Node74</title>
<g id="a_edge36_Node000001_Node000074"><a xlink:title=" ">
<path fill="none" stroke="#63b8ff" d="M49.58,-389.6C52.81,-355.79 67.78,-251.35 131.5,-206.38 195.24,-161.38 425.53,-167.42 537.98,-173.36"/>
<polygon fill="#63b8ff" stroke="#63b8ff" points="537.77,-176.86 547.95,-173.91 538.15,-169.87 537.77,-176.86"/>
</a>
</g>
</g>
<!-- Node72 -->
<g id="Node000072" class="node">
<title>Node72</title>
<g id="a_Node000072"><a xlink:href="m__eff__parser_8c.html#ade572d30ba1f7e322e469b02d0eb634d" target="_top" xlink:title=" ">
<polygon fill="#fff0f0" stroke="red" points="826.62,-148.75 736.38,-148.75 736.38,-128 826.62,-128 826.62,-148.75"/>
<text xml:space="preserve" text-anchor="middle" x="781.5" y="-135.25" font-family="Helvetica,sans-Serif" font-size="10.00">m_parser_alloc</text>
</a>
</g>
</g>
<!-- Node1&#45;&gt;Node72 -->
<g id="edge33_Node000001_Node000072" class="edge">
<title>Node1&#45;&gt;Node72</title>
<g id="a_edge33_Node000001_Node000072"><a xlink:title=" ">
<path fill="none" stroke="#63b8ff" d="M50.21,-389.58C56.87,-342.2 85.99,-153.41 131.5,-119.38 230.26,-45.5 563.78,-107.1 686.5,-119.38 699.19,-120.64 712.69,-122.85 725.39,-125.33"/>
<polygon fill="#63b8ff" stroke="#63b8ff" points="724.33,-128.68 734.82,-127.25 725.72,-121.82 724.33,-128.68"/>
</a>
</g>
</g>
<!-- Node91 -->
<g id="Node000091" class="node">
<title>Node91</title>
<g id="a_Node000091"><a xlink:href="m__resource_8c.html#a4354e4fc250413aba95baf9aad7527eb" target="_top" xlink:title=" ">
<polygon fill="white" stroke="#666666" points="266,-72.12 151,-72.12 151,-38.62 266,-38.62 266,-72.12"/>
<text xml:space="preserve" text-anchor="start" x="159" y="-58.62" font-family="Helvetica,sans-Serif" font-size="10.00">m_resources_assign</text>
<text xml:space="preserve" text-anchor="middle" x="208.5" y="-45.88" font-family="Helvetica,sans-Serif" font-size="10.00">_handles</text>
</a>
</g>
</g>
<!-- Node1&#45;&gt;Node91 -->
<g id="edge37_Node000001_Node000091" class="edge">
<title>Node1&#45;&gt;Node91</title>
<g id="a_edge37_Node000001_Node000091"><a xlink:title=" ">
<path fill="none" stroke="#63b8ff" d="M48.36,-389.62C47.35,-345.98 49.29,-179.99 131.5,-86.38 134.43,-83.04 137.77,-80.05 141.39,-77.38"/>
<polygon fill="#63b8ff" stroke="#63b8ff" points="143,-80.51 149.56,-72.2 139.24,-74.6 143,-80.51"/>
</a>
</g>
</g>
<!-- Node92 -->
<g id="Node000092" class="node">
<title>Node92</title>
<g id="a_Node000092"><a xlink:href="m__eff__section_8c.html#a799182d83a38eb2816e5610e8d89e8e6" target="_top" xlink:title=" ">
<polygon fill="white" stroke="#666666" points="267.88,-521.12 149.12,-521.12 149.12,-487.62 267.88,-487.62 267.88,-521.12"/>
<text xml:space="preserve" text-anchor="start" x="157.12" y="-507.62" font-family="Helvetica,sans-Serif" font-size="10.00">m_resources_section</text>
<text xml:space="preserve" text-anchor="middle" x="208.5" y="-494.88" font-family="Helvetica,sans-Serif" font-size="10.00">_extract</text>
</a>
</g>
</g>
<!-- Node1&#45;&gt;Node92 -->
<g id="edge38_Node000001_Node000092" class="edge">
<title>Node1&#45;&gt;Node92</title>
<g id="a_edge38_Node000001_Node000092"><a xlink:title=" ">
<path fill="none" stroke="#63b8ff" d="M57.55,-411.23C71.57,-427.87 100.56,-459.71 131.5,-478.38 133.82,-479.77 136.22,-481.11 138.68,-482.38"/>
<polygon fill="#63b8ff" stroke="#63b8ff" points="137.16,-485.53 147.7,-486.63 140.15,-479.2 137.16,-485.53"/>
</a>
</g>
</g>
<!-- Node98 -->
<g id="Node000098" class="node">
<title>Node98</title>
<g id="a_Node000098"><a xlink:href="m__parameter_8c.html#ae74fec829760ed6b81fce9fcaccdd262" target="_top" xlink:title=" ">
<polygon fill="white" stroke="#666666" points="271.62,-20.75 145.38,-20.75 145.38,0 271.62,0 271.62,-20.75"/>
<text xml:space="preserve" text-anchor="middle" x="208.5" y="-7.25" font-family="Helvetica,sans-Serif" font-size="10.00">m_settings_assign_ids</text>
</a>
</g>
</g>
<!-- Node1&#45;&gt;Node98 -->
<g id="edge43_Node000001_Node000098" class="edge">
<title>Node1&#45;&gt;Node98</title>
<g id="a_edge43_Node000001_Node000098"><a xlink:title=" ">
<path fill="none" stroke="#63b8ff" d="M49.65,-389.6C54.48,-334.34 79.1,-83.13 131.5,-29.38 132.72,-28.13 134,-26.96 135.35,-25.86"/>
<polygon fill="#63b8ff" stroke="#63b8ff" points="137.21,-28.82 143.69,-20.44 133.4,-22.95 137.21,-28.82"/>
</a>
</g>
</g>
<!-- Node99 -->
<g id="Node000099" class="node">
<title>Node99</title>
<g id="a_Node000099"><a xlink:href="m__eff__section_8c.html#a9697c17a9fd076c0112f8b1942c63ce4" target="_top" xlink:title=" ">
<polygon fill="white" stroke="#666666" points="263.75,-625.12 153.25,-625.12 153.25,-591.62 263.75,-591.62 263.75,-625.12"/>
<text xml:space="preserve" text-anchor="start" x="161.25" y="-611.62" font-family="Helvetica,sans-Serif" font-size="10.00">m_settings_section</text>
<text xml:space="preserve" text-anchor="middle" x="208.5" y="-598.88" font-family="Helvetica,sans-Serif" font-size="10.00">_extract</text>
</a>
</g>
</g>
<!-- Node1&#45;&gt;Node99 -->
<g id="edge44_Node000001_Node000099" class="edge">
<title>Node1&#45;&gt;Node99</title>
<g id="a_edge44_Node000001_Node000099"><a xlink:title=" ">
<path fill="none" stroke="#63b8ff" d="M50.58,-411.15C56.42,-442.3 77.52,-533.4 131.5,-582.38 134.99,-585.54 138.87,-588.32 143,-590.76"/>
<polygon fill="#63b8ff" stroke="#63b8ff" points="141.12,-593.74 151.62,-595.19 144.32,-587.51 141.12,-593.74"/>
</a>
</g>
</g>
<!-- Node107 -->
<g id="Node000107" class="node">
<title>Node107</title>
<g id="a_Node000107"><a xlink:href="m__tokenizer_8c.html#a547be168c347275a0fbddc72c7d518b4" target="_top" xlink:title=" ">
<polygon fill="white" stroke="#666666" points="264.88,-148.75 152.12,-148.75 152.12,-128 264.88,-128 264.88,-148.75"/>
<text xml:space="preserve" text-anchor="middle" x="208.5" y="-135.25" font-family="Helvetica,sans-Serif" font-size="10.00">m_token_span_to_ll</text>
</a>
</g>
</g>
<!-- Node1&#45;&gt;Node107 -->
<g id="edge48_Node000001_Node000107" class="edge">
<title>Node1&#45;&gt;Node107</title>
<g id="a_edge48_Node000001_Node000107"><a xlink:title=" ">
<path fill="none" stroke="#63b8ff" d="M49.22,-389.58C51.41,-352.39 63.73,-228.22 131.5,-162.38 134.56,-159.4 137.98,-156.8 141.64,-154.52"/>
<polygon fill="#63b8ff" stroke="#63b8ff" points="143.2,-157.65 150.42,-149.9 139.94,-151.45 143.2,-157.65"/>
</a>
</g>
</g>
<!-- Node109 -->
<g id="Node000109" class="node">
<title>Node109</title>
<g id="a_Node000109"><a xlink:href="m__tokenizer_8c.html#a2540b7c9295c3812bbd02fab9679e098" target="_top" xlink:title=" ">
<polygon fill="white" stroke="#666666" points="258.5,-945.75 158.5,-945.75 158.5,-925 258.5,-925 258.5,-945.75"/>
<text xml:space="preserve" text-anchor="middle" x="208.5" y="-932.25" font-family="Helvetica,sans-Serif" font-size="10.00">token_is_newline</text>
</a>
</g>
</g>
<!-- Node1&#45;&gt;Node109 -->
<g id="edge51_Node000001_Node000109" class="edge">
<title>Node1&#45;&gt;Node109</title>
<g id="a_edge51_Node000001_Node000109"><a xlink:title=" ">
<path fill="none" stroke="#63b8ff" d="M48.94,-411.05C50.31,-477.82 60.95,-837.55 131.5,-915.38 136.02,-920.36 141.62,-924.17 147.72,-927.07"/>
<polygon fill="#63b8ff" stroke="#63b8ff" points="146.34,-930.29 156.93,-930.59 148.84,-923.75 146.34,-930.29"/>
</a>
</g>
</g>
<!-- Node3 -->
<g id="Node000003" class="node">
<title>Node3</title>
<g id="a_Node000003"><a xlink:href="m__tokenizer_8c.html#a934327c09dbd0fb4dab1a9056eb95f9e" target="_top" xlink:title=" ">
<polygon fill="white" stroke="#666666" points="442.5,-945.75 359.75,-945.75 359.75,-925 442.5,-925 442.5,-945.75"/>
<text xml:space="preserve" text-anchor="middle" x="401.12" y="-932.25" font-family="Helvetica,sans-Serif" font-size="10.00">token_is_char</text>
</a>
</g>
</g>
<!-- Node2&#45;&gt;Node3 -->
<g id="edge2_Node000002_Node000003" class="edge">
<title>Node2&#45;&gt;Node3</title>
<g id="a_edge2_Node000002_Node000003"><a xlink:title=" ">
<path fill="none" stroke="#63b8ff" d="M262.6,-907.24C289.4,-912.72 321.77,-919.35 348.38,-924.79"/>
<polygon fill="#63b8ff" stroke="#63b8ff" points="347.41,-928.16 357.91,-926.74 348.82,-921.31 347.41,-928.16"/>
</a>
</g>
</g>
<!-- Node4 -->
<g id="Node000004" class="node">
<title>Node4</title>
<g id="a_Node000004"><a xlink:href="m__eff__section_8c.html#ab9a1f3d8b5cb2d9daa5911d569b65505" target="_top" xlink:title=" ">
<polygon fill="white" stroke="#666666" points="480.75,-906.75 321.5,-906.75 321.5,-886 480.75,-886 480.75,-906.75"/>
<text xml:space="preserve" text-anchor="middle" x="401.12" y="-893.25" font-family="Helvetica,sans-Serif" font-size="10.00">token_is_valid_section_name</text>
</a>
</g>
</g>
<!-- Node2&#45;&gt;Node4 -->
<g id="edge3_Node000002_Node000004" class="edge">
<title>Node2&#45;&gt;Node4</title>
<g id="a_edge3_Node000002_Node000004"><a xlink:title=" ">
<path fill="none" stroke="#63b8ff" d="M274.57,-896.38C285.93,-896.38 297.93,-896.38 309.83,-896.38"/>
<polygon fill="#63b8ff" stroke="#63b8ff" points="309.66,-899.88 319.66,-896.38 309.66,-892.88 309.66,-899.88"/>
</a>
</g>
</g>
<!-- Node6 -->
<g id="Node000006" class="node">
<title>Node6</title>
<g id="a_Node000006"><a xlink:href="m__dictionary_8c.html#a1f16d9ec523183005268f46bd2cb8b76" target="_top" xlink:title=" ">
<polygon fill="white" stroke="#666666" points="462,-868.12 340.25,-868.12 340.25,-834.62 462,-834.62 462,-868.12"/>
<text xml:space="preserve" text-anchor="start" x="348.25" y="-854.62" font-family="Helvetica,sans-Serif" font-size="10.00">m_dict_entry_type_to</text>
<text xml:space="preserve" text-anchor="middle" x="401.12" y="-841.88" font-family="Helvetica,sans-Serif" font-size="10.00">_string</text>
</a>
</g>
</g>
<!-- Node5&#45;&gt;Node6 -->
<g id="edge5_Node000005_Node000006" class="edge">
<title>Node5&#45;&gt;Node6</title>
<g id="a_edge5_Node000005_Node000006"><a xlink:title=" ">
<path fill="none" stroke="#63b8ff" d="M228.5,-779.17C250.46,-791.37 287.87,-811.35 321.5,-825.38 325.56,-827.07 329.78,-828.73 334.06,-830.34"/>
<polygon fill="#63b8ff" stroke="#63b8ff" points="332.73,-833.59 343.33,-833.72 335.13,-827.01 332.73,-833.59"/>
</a>
</g>
</g>
<!-- Node7 -->
<g id="Node000007" class="node">
<title>Node7</title>
<g id="a_Node000007"><a xlink:href="m__error__codes_8c.html#a5298df5c7af3a6aac90c055a615b171a" target="_top" xlink:title=" ">
<polygon fill="white" stroke="#666666" points="667,-739.75 536.25,-739.75 536.25,-719 667,-719 667,-739.75"/>
<text xml:space="preserve" text-anchor="middle" x="601.62" y="-726.25" font-family="Helvetica,sans-Serif" font-size="10.00">m_error_code_to_string</text>
</a>
</g>
</g>
<!-- Node5&#45;&gt;Node7 -->
<g id="edge6_Node000005_Node000007" class="edge">
<title>Node5&#45;&gt;Node7</title>
<g id="a_edge6_Node000005_Node000007"><a xlink:title=" ">
<path fill="none" stroke="#63b8ff" d="M274.89,-765.55C329.93,-762.75 410.66,-757.66 480.75,-749.38 497.18,-747.43 514.79,-744.81 531.32,-742.09"/>
<polygon fill="#63b8ff" stroke="#63b8ff" points="531.78,-745.56 541.06,-740.46 530.62,-738.66 531.78,-745.56"/>
</a>
</g>
</g>
<!-- Node8 -->
<g id="Node000008" class="node">
<title>Node8</title>
<g id="a_Node000008"><a xlink:href="m__expr__scope_8c.html#af38d532afecd60a49b588a06bfa77af1" target="_top" xlink:title=" ">
<polygon fill="white" stroke="#666666" points="469.5,-816.75 332.75,-816.75 332.75,-796 469.5,-796 469.5,-816.75"/>
<text xml:space="preserve" text-anchor="middle" x="401.12" y="-803.25" font-family="Helvetica,sans-Serif" font-size="10.00">m_expr_scope_add_expr</text>
</a>
</g>
</g>
<!-- Node5&#45;&gt;Node8 -->
<g id="edge7_Node000005_Node000008" class="edge">
<title>Node5&#45;&gt;Node8</title>
<g id="a_edge7_Node000005_Node000008"><a xlink:title=" ">
<path fill="none" stroke="#63b8ff" d="M263.87,-779.21C285.91,-783.61 311.54,-788.72 334.6,-793.31"/>
<polygon fill="#63b8ff" stroke="#63b8ff" points="333.71,-796.7 344.2,-795.23 335.08,-789.84 333.71,-796.7"/>
</a>
</g>
</g>
<!-- Node10 -->
<g id="Node000010" class="node">
<title>Node10</title>
<g id="a_Node000010"><a xlink:href="m__eff__parser_8c.html#ad9eb07d549a255718539a9f825d2d630" target="_top" xlink:title=" ">
<polygon fill="white" stroke="#666666" points="465.38,-740.75 336.88,-740.75 336.88,-720 465.38,-720 465.38,-740.75"/>
<text xml:space="preserve" text-anchor="middle" x="401.12" y="-727.25" font-family="Helvetica,sans-Serif" font-size="10.00">m_parser_error_at_line</text>
</a>
</g>
</g>
<!-- Node5&#45;&gt;Node10 -->
<g id="edge9_Node000005_Node000010" class="edge">
<title>Node5&#45;&gt;Node10</title>
<g id="a_edge9_Node000005_Node000010"><a xlink:title=" ">
<path fill="none" stroke="#63b8ff" d="M263.87,-757.54C285.91,-753.14 311.54,-748.03 334.6,-743.44"/>
<polygon fill="#63b8ff" stroke="#63b8ff" points="335.08,-746.91 344.2,-741.52 333.71,-740.05 335.08,-746.91"/>
</a>
</g>
</g>
<!-- Node9 -->
<g id="Node000009" class="node">
<title>Node9</title>
<g id="a_Node000009"><a xlink:href="m__expr__scope_8c.html#a3cc20416b51a8b8c455e165797bf6db4" target="_top" xlink:title=" ">
<polygon fill="white" stroke="#666666" points="686.5,-816.75 516.75,-816.75 516.75,-796 686.5,-796 686.5,-816.75"/>
<text xml:space="preserve" text-anchor="middle" x="601.62" y="-803.25" font-family="Helvetica,sans-Serif" font-size="10.00">m_new_expr_scope_entry_expr</text>
</a>
</g>
</g>
<!-- Node8&#45;&gt;Node9 -->
<g id="edge8_Node000008_Node000009" class="edge">
<title>Node8&#45;&gt;Node9</title>
<g id="a_edge8_Node000008_Node000009"><a xlink:title=" ">
<path fill="none" stroke="#63b8ff" d="M469.88,-806.38C481.2,-806.38 493.13,-806.38 504.99,-806.38"/>
<polygon fill="#63b8ff" stroke="#63b8ff" points="504.81,-809.88 514.81,-806.38 504.81,-802.88 504.81,-809.88"/>
</a>
</g>
</g>
<!-- Node12 -->
<g id="Node000012" class="node">
<title>Node12</title>
<g id="a_Node000012"><a xlink:href="m__dictionary_8c.html#a24c48ed6d9d92be03e3b401f5ef72862" target="_top" xlink:title=" ">
<polygon fill="white" stroke="#666666" points="669.62,-588.75 533.62,-588.75 533.62,-568 669.62,-568 669.62,-588.75"/>
<text xml:space="preserve" text-anchor="middle" x="601.62" y="-575.25" font-family="Helvetica,sans-Serif" font-size="10.00">m_dictionary_lookup_str</text>
</a>
</g>
</g>
<!-- Node11&#45;&gt;Node12 -->
<g id="edge11_Node000011_Node000012" class="edge">
<title>Node11&#45;&gt;Node12</title>
<g id="a_edge11_Node000011_Node000012"><a xlink:title=" ">
<path fill="none" stroke="#63b8ff" d="M454.61,-629.16C463.35,-626.25 472.31,-623.25 480.75,-620.38 506.94,-611.46 536.25,-601.19 559.34,-593.04"/>
<polygon fill="#63b8ff" stroke="#63b8ff" points="560.44,-596.36 568.7,-589.73 558.11,-589.77 560.44,-596.36"/>
</a>
</g>
</g>
<!-- Node13 -->
<g id="Node000013" class="node">
<title>Node13</title>
<g id="a_Node000013"><a xlink:href="m__dictionary_8c.html#adf3150351a89a3ae2c5e4ec52ee93cb4" target="_top" xlink:title=" ">
<polygon fill="#fff0f0" stroke="red" points="840.5,-588.75 722.5,-588.75 722.5,-568 840.5,-568 840.5,-588.75"/>
<text xml:space="preserve" text-anchor="middle" x="781.5" y="-575.25" font-family="Helvetica,sans-Serif" font-size="10.00">m_dictionary_lookup</text>
</a>
</g>
</g>
<!-- Node12&#45;&gt;Node13 -->
<g id="edge12_Node000012_Node000013" class="edge">
<title>Node12&#45;&gt;Node13</title>
<g id="a_edge12_Node000012_Node000013"><a xlink:title=" ">
<path fill="none" stroke="#63b8ff" d="M669.87,-578.38C683.32,-578.38 697.48,-578.38 711,-578.38"/>
<polygon fill="#63b8ff" stroke="#63b8ff" points="710.67,-581.88 720.67,-578.38 710.67,-574.88 710.67,-581.88"/>
</a>
</g>
</g>
<!-- Node16 -->
<g id="Node000016" class="node">
<title>Node16</title>
<g id="a_Node000016"><a xlink:href="m__expr__scope_8c.html#a04b623c9d456c6169bc7cfb1c9ea006b" target="_top" xlink:title=" ">
<polygon fill="white" stroke="#666666" points="474.38,-431.75 327.88,-431.75 327.88,-411 474.38,-411 474.38,-431.75"/>
<text xml:space="preserve" text-anchor="middle" x="401.12" y="-418.25" font-family="Helvetica,sans-Serif" font-size="10.00">m_expr_scope_add_param</text>
</a>
</g>
</g>
<!-- Node15&#45;&gt;Node16 -->
<g id="edge14_Node000015_Node000016" class="edge">
<title>Node15&#45;&gt;Node16</title>
<g id="a_edge14_Node000015_Node000016"><a xlink:title=" ">
<path fill="none" stroke="#63b8ff" d="M263.87,-448.54C285.91,-444.14 311.54,-439.03 334.6,-434.44"/>
<polygon fill="#63b8ff" stroke="#63b8ff" points="335.08,-437.91 344.2,-432.52 333.71,-431.05 335.08,-437.91"/>
</a>
</g>
</g>
<!-- Node17 -->
<g id="Node000017" class="node">
<title>Node17</title>
<g id="a_Node000017"><a xlink:href="m__expr__scope_8c.html#aa6fe895e7aa5b05020ffa0c456824e2d" target="_top" xlink:title=" ">
<polygon fill="white" stroke="#666666" points="673,-438.12 530.25,-438.12 530.25,-404.62 673,-404.62 673,-438.12"/>
<text xml:space="preserve" text-anchor="start" x="538.25" y="-424.62" font-family="Helvetica,sans-Serif" font-size="10.00">m_new_expr_scope_entry</text>
<text xml:space="preserve" text-anchor="middle" x="601.62" y="-411.88" font-family="Helvetica,sans-Serif" font-size="10.00">_param</text>
</a>
</g>
</g>
<!-- Node16&#45;&gt;Node17 -->
<g id="edge15_Node000016_Node000017" class="edge">
<title>Node16&#45;&gt;Node17</title>
<g id="a_edge15_Node000016_Node000017"><a xlink:title=" ">
<path fill="none" stroke="#63b8ff" d="M474.63,-421.38C489.02,-421.38 504.21,-421.38 518.88,-421.38"/>
<polygon fill="#63b8ff" stroke="#63b8ff" points="518.46,-424.88 528.46,-421.38 518.46,-417.88 518.46,-424.88"/>
</a>
</g>
</g>
<!-- Node19 -->
<g id="Node000019" class="node">
<title>Node19</title>
<g id="a_Node000019"><a xlink:href="m__expr__scope_8c.html#a667d09eea32f47cb3efd71064dec1e01" target="_top" xlink:title=" ">
<polygon fill="#fff0f0" stroke="red" points="475.5,-392.75 326.75,-392.75 326.75,-372 475.5,-372 475.5,-392.75"/>
<text xml:space="preserve" text-anchor="middle" x="401.12" y="-379.25" font-family="Helvetica,sans-Serif" font-size="10.00">m_expr_scope_add_setting</text>
</a>
</g>
</g>
<!-- Node18&#45;&gt;Node19 -->
<g id="edge17_Node000018_Node000019" class="edge">
<title>Node18&#45;&gt;Node19</title>
<g id="a_edge17_Node000018_Node000019"><a xlink:title=" ">
<path fill="none" stroke="#63b8ff" d="M263.87,-409.54C285.91,-405.14 311.54,-400.03 334.6,-395.44"/>
<polygon fill="#63b8ff" stroke="#63b8ff" points="335.08,-398.91 344.2,-393.52 333.71,-392.05 335.08,-398.91"/>
</a>
</g>
</g>
<!-- Node24 -->
<g id="Node000024" class="node">
<title>Node24</title>
<g id="a_Node000024"><a xlink:href="m__dict__extract_8c.html#a512a86a4320cc6c6530498bce7242815" target="_top" xlink:title=" ">
<polygon fill="#fff0f0" stroke="red" points="462,-573.12 340.25,-573.12 340.25,-539.62 462,-539.62 462,-573.12"/>
<text xml:space="preserve" text-anchor="start" x="348.25" y="-559.62" font-family="Helvetica,sans-Serif" font-size="10.00">m_extract_parameter</text>
<text xml:space="preserve" text-anchor="middle" x="401.12" y="-546.88" font-family="Helvetica,sans-Serif" font-size="10.00">_from_dict</text>
</a>
</g>
</g>
<!-- Node23&#45;&gt;Node24 -->
<g id="edge21_Node000023_Node000024" class="edge">
<title>Node23&#45;&gt;Node24</title>
<g id="a_edge21_Node000023_Node000024"><a xlink:title=" ">
<path fill="none" stroke="#63b8ff" d="M272.71,-556.38C290.66,-556.38 310.33,-556.38 328.73,-556.38"/>
<polygon fill="#63b8ff" stroke="#63b8ff" points="328.48,-559.88 338.48,-556.38 328.48,-552.88 328.48,-559.88"/>
</a>
</g>
</g>
<!-- Node24&#45;&gt;Node12 -->
<g id="edge22_Node000024_Node000012" class="edge">
<title>Node24&#45;&gt;Node12</title>
<g id="a_edge22_Node000024_Node000012"><a xlink:title=" ">
<path fill="none" stroke="#63b8ff" d="M462.49,-563.07C481.27,-565.15 502.25,-567.47 522.07,-569.67"/>
<polygon fill="#63b8ff" stroke="#63b8ff" points="521.44,-573.12 531.76,-570.74 522.21,-566.16 521.44,-573.12"/>
</a>
</g>
</g>
<!-- Node40 -->
<g id="Node000040" class="node">
<title>Node40</title>
<g id="a_Node000040"><a xlink:href="m__eff__parser_8c.html#a41538900917b54b8107a647c2860ebba" target="_top" xlink:title=" ">
<polygon fill="white" stroke="#666666" points="668.88,-531.75 534.38,-531.75 534.38,-511 668.88,-511 668.88,-531.75"/>
<text xml:space="preserve" text-anchor="middle" x="601.62" y="-518.25" font-family="Helvetica,sans-Serif" font-size="10.00">m_parser_error_at_node</text>
</a>
</g>
</g>
<!-- Node24&#45;&gt;Node40 -->
<g id="edge23_Node000024_Node000040" class="edge">
<title>Node24&#45;&gt;Node40</title>
<g id="a_edge23_Node000024_Node000040"><a xlink:title=" ">
<path fill="none" stroke="#63b8ff" d="M462.49,-545.73C483.18,-542.08 506.55,-537.96 528.1,-534.16"/>
<polygon fill="#63b8ff" stroke="#63b8ff" points="528.45,-537.66 537.69,-532.47 527.23,-530.76 528.45,-537.66"/>
</a>
</g>
</g>
<!-- Node43 -->
<g id="Node000043" class="node">
<title>Node43</title>
<g id="a_Node000043"><a xlink:href="m__asm__parser_8c.html#a6c6e6f0ed299cdac1ba62cb178fea161" target="_top" xlink:title=" ">
<polygon fill="#fff0f0" stroke="red" points="443.25,-701.75 359,-701.75 359,-681 443.25,-681 443.25,-701.75"/>
<text xml:space="preserve" text-anchor="middle" x="401.12" y="-688.25" font-family="Helvetica,sans-Serif" font-size="10.00">m_parse_asm</text>
</a>
</g>
</g>
<!-- Node42&#45;&gt;Node43 -->
<g id="edge25_Node000042_Node000043" class="edge">
<title>Node42&#45;&gt;Node43</title>
<g id="a_edge25_Node000042_Node000043"><a xlink:title=" ">
<path fill="none" stroke="#63b8ff" d="M272.45,-691.38C296.66,-691.38 324.04,-691.38 347.21,-691.38"/>
<polygon fill="#63b8ff" stroke="#63b8ff" points="347.05,-694.88 357.05,-691.38 347.05,-687.88 347.05,-694.88"/>
</a>
</g>
</g>
<!-- Node43&#45;&gt;Node7 -->
<g id="edge26_Node000043_Node000007" class="edge">
<title>Node43&#45;&gt;Node7</title>
<g id="a_edge26_Node000043_Node000007"><a xlink:title=" ">
<path fill="none" stroke="#63b8ff" d="M443.74,-699.34C469.54,-704.28 503.31,-710.74 532.9,-716.41"/>
<polygon fill="#63b8ff" stroke="#63b8ff" points="532.04,-719.81 542.52,-718.25 533.36,-712.93 532.04,-719.81"/>
</a>
</g>
</g>
<!-- Node80 -->
<g id="Node000080" class="node">
<title>Node80</title>
<g id="a_Node000080"><a xlink:href="m__dictionary_8c.html#ab52fc5ead828b21f765fdd2819fac663" target="_top" xlink:title=" ">
<polygon fill="#fff0f0" stroke="red" points="457.12,-266.75 345.12,-266.75 345.12,-246 457.12,-246 457.12,-266.75"/>
<text xml:space="preserve" text-anchor="middle" x="401.12" y="-253.25" font-family="Helvetica,sans-Serif" font-size="10.00">m_parse_dictionary</text>
</a>
</g>
</g>
<!-- Node79&#45;&gt;Node80 -->
<g id="edge28_Node000079_Node000080" class="edge">
<title>Node79&#45;&gt;Node80</title>
<g id="a_edge28_Node000079_Node000080"><a xlink:title=" ">
<path fill="none" stroke="#63b8ff" d="M264.89,-258.5C286.33,-258.17 311.05,-257.78 333.45,-257.42"/>
<polygon fill="#63b8ff" stroke="#63b8ff" points="333.47,-260.92 343.41,-257.27 333.36,-253.93 333.47,-260.92"/>
</a>
</g>
</g>
<!-- Node80&#45;&gt;Node89 -->
<g id="edge29_Node000080_Node000089" class="edge">
<title>Node80&#45;&gt;Node89</title>
<g id="a_edge29_Node000080_Node000089"><a xlink:title=" ">
<path fill="none" stroke="#63b8ff" d="M457.42,-265.85C484.84,-270.54 517.88,-276.2 545.31,-280.9"/>
<polygon fill="#63b8ff" stroke="#63b8ff" points="544.35,-284.29 554.8,-282.53 545.54,-277.39 544.35,-284.29"/>
</a>
</g>
</g>
<!-- Node80&#45;&gt;Node56 -->
<g id="edge30_Node000080_Node000056" class="edge">
<title>Node80&#45;&gt;Node56</title>
<g id="a_edge30_Node000080_Node000056"><a xlink:title=" ">
<path fill="none" stroke="#63b8ff" d="M457.42,-251.08C482.3,-248.7 511.8,-245.88 537.54,-243.41"/>
<polygon fill="#63b8ff" stroke="#63b8ff" points="537.57,-246.93 547.19,-242.49 536.9,-239.96 537.57,-246.93"/>
</a>
</g>
</g>
<!-- Node80&#45;&gt;Node74 -->
<g id="edge31_Node000080_Node000074" class="edge">
<title>Node80&#45;&gt;Node74</title>
<g id="a_edge31_Node000080_Node000074"><a xlink:title=" ">
<path fill="none" stroke="#63b8ff" d="M429.31,-245.56C463.88,-231.8 523.77,-207.96 562.79,-192.43"/>
<polygon fill="#63b8ff" stroke="#63b8ff" points="564.05,-195.7 572.04,-188.75 561.46,-189.2 564.05,-195.7"/>
</a>
</g>
</g>
<!-- Node74&#45;&gt;Node72 -->
<g id="edge32_Node000074_Node000072" class="edge">
<title>Node74&#45;&gt;Node72</title>
<g id="a_edge32_Node000074_Node000072"><a xlink:title=" ">
<path fill="none" stroke="#63b8ff" d="M652.17,-166.51C674.79,-161.55 701.66,-155.66 724.96,-150.55"/>
<polygon fill="#63b8ff" stroke="#63b8ff" points="725.58,-154 734.6,-148.44 724.08,-147.16 725.58,-154"/>
</a>
</g>
</g>
<!-- Node92&#45;&gt;Node40 -->
<g id="edge42_Node000092_Node000040" class="edge">
<title>Node92&#45;&gt;Node40</title>
<g id="a_edge42_Node000092_Node000040"><a xlink:title=" ">
<path fill="none" stroke="#63b8ff" d="M268.35,-488.06C285.36,-484.07 304.05,-480.37 321.5,-478.38 391.82,-470.32 411.02,-466.25 480.75,-478.38 511.03,-483.64 543.76,-495.86 567.36,-505.94"/>
<polygon fill="#63b8ff" stroke="#63b8ff" points="565.89,-509.11 576.46,-509.92 568.7,-502.7 565.89,-509.11"/>
</a>
</g>
</g>
<!-- Node93 -->
<g id="Node000093" class="node">
<title>Node93</title>
<g id="a_Node000093"><a xlink:href="m__dict__extract_8c.html#a069397786520b282cda9d640959dd47e" target="_top" xlink:title=" ">
<polygon fill="#fff0f0" stroke="red" points="457.5,-521.12 344.75,-521.12 344.75,-487.62 457.5,-487.62 457.5,-521.12"/>
<text xml:space="preserve" text-anchor="start" x="352.75" y="-507.62" font-family="Helvetica,sans-Serif" font-size="10.00">m_extract_resource</text>
<text xml:space="preserve" text-anchor="middle" x="401.12" y="-494.88" font-family="Helvetica,sans-Serif" font-size="10.00">_from_dict</text>
</a>
</g>
</g>
<!-- Node92&#45;&gt;Node93 -->
<g id="edge39_Node000092_Node000093" class="edge">
<title>Node92&#45;&gt;Node93</title>
<g id="a_edge39_Node000092_Node000093"><a xlink:title=" ">
<path fill="none" stroke="#63b8ff" d="M268.25,-504.38C288.74,-504.38 311.89,-504.38 333.01,-504.38"/>
<polygon fill="#63b8ff" stroke="#63b8ff" points="332.99,-507.88 342.99,-504.38 332.99,-500.88 332.99,-507.88"/>
</a>
</g>
</g>
<!-- Node93&#45;&gt;Node12 -->
<g id="edge40_Node000093_Node000012" class="edge">
<title>Node93&#45;&gt;Node12</title>
<g id="a_edge40_Node000093_Node000012"><a xlink:title=" ">
<path fill="none" stroke="#63b8ff" d="M455.57,-521.56C464.02,-524.42 472.65,-527.42 480.75,-530.38 509.11,-540.73 540.81,-553.47 564.48,-563.23"/>
<polygon fill="#63b8ff" stroke="#63b8ff" points="563.1,-566.45 573.68,-567.04 565.78,-559.98 563.1,-566.45"/>
</a>
</g>
</g>
<!-- Node93&#45;&gt;Node40 -->
<g id="edge41_Node000093_Node000040" class="edge">
<title>Node93&#45;&gt;Node40</title>
<g id="a_edge41_Node000093_Node000040"><a xlink:title=" ">
<path fill="none" stroke="#63b8ff" d="M457.95,-509.16C477.97,-510.87 500.93,-512.84 522.5,-514.68"/>
<polygon fill="#63b8ff" stroke="#63b8ff" points="522.19,-518.17 532.46,-515.54 522.79,-511.2 522.19,-518.17"/>
</a>
</g>
</g>
<!-- Node100 -->
<g id="Node000100" class="node">
<title>Node100</title>
<g id="a_Node000100"><a xlink:href="m__dict__extract_8c.html#a2c927aa00cbc38a960601717ff0f44b6" target="_top" xlink:title=" ">
<polygon fill="#fff0f0" stroke="red" points="479.25,-611.75 323,-611.75 323,-591 479.25,-591 479.25,-611.75"/>
<text xml:space="preserve" text-anchor="middle" x="401.12" y="-598.25" font-family="Helvetica,sans-Serif" font-size="10.00">m_extract_setting_from_dict</text>
</a>
</g>
</g>
<!-- Node99&#45;&gt;Node100 -->
<g id="edge45_Node000099_Node000100" class="edge">
<title>Node99&#45;&gt;Node100</title>
<g id="a_edge45_Node000099_Node000100"><a xlink:title=" ">
<path fill="none" stroke="#63b8ff" d="M264.13,-606.37C278.96,-605.82 295.42,-605.22 311.62,-604.63"/>
<polygon fill="#63b8ff" stroke="#63b8ff" points="311.39,-608.14 321.25,-604.27 311.13,-601.14 311.39,-608.14"/>
</a>
</g>
</g>
<!-- Node100&#45;&gt;Node12 -->
<g id="edge46_Node000100_Node000012" class="edge">
<title>Node100&#45;&gt;Node12</title>
<g id="a_edge46_Node000100_Node000012"><a xlink:title=" ">
<path fill="none" stroke="#63b8ff" d="M479.72,-592.38C493.71,-590.76 508.3,-589.07 522.3,-587.45"/>
<polygon fill="#63b8ff" stroke="#63b8ff" points="522.35,-590.97 531.88,-586.34 521.55,-584.01 522.35,-590.97"/>
</a>
</g>
</g>
<!-- Node100&#45;&gt;Node40 -->
<g id="edge47_Node000100_Node000040" class="edge">
<title>Node100&#45;&gt;Node40</title>
<g id="a_edge47_Node000100_Node000040"><a xlink:title=" ">
<path fill="none" stroke="#63b8ff" d="M457.02,-590.59C465.12,-588.29 473.26,-585.57 480.75,-582.38 498.22,-574.93 500.06,-568.43 516.75,-559.38 531.79,-551.22 548.91,-543.24 563.75,-536.72"/>
<polygon fill="#63b8ff" stroke="#63b8ff" points="564.91,-540.03 572.7,-532.84 562.13,-533.6 564.91,-540.03"/>
</a>
</g>
</g>
<!-- Node108 -->
<g id="Node000108" class="node">
<title>Node108</title>
<g id="a_Node000108"><a xlink:href="m__tokenizer_8c.html#a056a1b4eb16763bde11a05f3d72b5300" target="_top" xlink:title=" ">
<polygon fill="white" stroke="#666666" points="673,-148.75 530.25,-148.75 530.25,-128 673,-128 673,-148.75"/>
<text xml:space="preserve" text-anchor="middle" x="601.62" y="-135.25" font-family="Helvetica,sans-Serif" font-size="10.00">m_token_ll_safe_aappend</text>
</a>
</g>
</g>
<!-- Node107&#45;&gt;Node108 -->
<g id="edge49_Node000107_Node000108" class="edge">
<title>Node107&#45;&gt;Node108</title>
<g id="a_edge49_Node000107_Node000108"><a xlink:title=" ">
<path fill="none" stroke="#63b8ff" d="M265.12,-138.38C331.32,-138.38 442.45,-138.38 518.54,-138.38"/>
<polygon fill="#63b8ff" stroke="#63b8ff" points="518.45,-141.88 528.45,-138.38 518.45,-134.88 518.45,-141.88"/>
</a>
</g>
</g>
<!-- Node108&#45;&gt;Node72 -->
<g id="edge50_Node000108_Node000072" class="edge">
<title>Node108&#45;&gt;Node72</title>
<g id="a_edge50_Node000108_Node000072"><a xlink:title=" ">
<path fill="none" stroke="#63b8ff" d="M673.44,-138.38C690.43,-138.38 708.35,-138.38 724.56,-138.38"/>
<polygon fill="#63b8ff" stroke="#63b8ff" points="724.52,-141.88 734.52,-138.38 724.52,-134.88 724.52,-141.88"/>
</a>
</g>
</g>
<!-- Node109&#45;&gt;Node3 -->
<g id="edge52_Node000109_Node000003" class="edge">
<title>Node109&#45;&gt;Node3</title>
<g id="a_edge52_Node000109_Node000003"><a xlink:title=" ">
<path fill="none" stroke="#63b8ff" d="M258.59,-935.38C286.13,-935.38 320.45,-935.38 348.4,-935.38"/>
<polygon fill="#63b8ff" stroke="#63b8ff" points="348.05,-938.88 358.05,-935.38 348.05,-931.88 348.05,-938.88"/>
</a>
</g>
</g>
</g>
</svg>
