<?xml version="1.0" encoding="UTF-8" standalone="no"?>
<!DOCTYPE svg PUBLIC "-//W3C//DTD SVG 1.1//EN"
 "http://www.w3.org/Graphics/SVG/1.1/DTD/svg11.dtd">
<!-- Generated by graphviz version 13.1.2 (20250808.2320)
 -->
<!-- Title: add_effect_from_menu_eff Pages: 1 -->
<svg width="960pt" height="647pt"
 viewBox="0.00 0.00 960.00 647.00" xmlns="http://www.w3.org/2000/svg" xmlns:xlink="http://www.w3.org/1999/xlink">
<g id="graph0" class="graph" transform="scale(1 1) rotate(0) translate(4 643.12)">
<title>add_effect_from_menu_eff</title>
<!-- Node1 -->
<g id="Node000001" class="node">
<title>Node1</title>
<g id="a_Node000001"><a xlink:title=" ">
<polygon fill="#999999" stroke="#666666" points="148,-150.12 0,-150.12 0,-129.38 148,-129.38 148,-150.12"/>
<text xml:space="preserve" text-anchor="middle" x="74" y="-136.62" font-family="Helvetica,sans-Serif" font-size="10.00">add_effect_from_menu_eff</text>
</a>
</g>
</g>
<!-- Node2 -->
<g id="Node000002" class="node">
<title>Node2</title>
<g id="a_Node000002"><a xlink:href="$m__effect__view_8c.html#a81bfb64755feca2546f122544c003406" xlink:title=" ">
<polygon fill="white" stroke="#666666" points="337.25,-453.12 214,-453.12 214,-432.38 337.25,-432.38 337.25,-453.12"/>
<text xml:space="preserve" text-anchor="middle" x="275.62" y="-439.62" font-family="Helvetica,sans-Serif" font-size="10.00">create_effect_view_ui</text>
</a>
</g>
</g>
<!-- Node1&#45;&gt;Node2 -->
<g id="edge1_Node000001_Node000002" class="edge">
<title>Node1&#45;&gt;Node2</title>
<g id="a_edge1_Node000001_Node000002"><a xlink:title=" ">
<path fill="none" stroke="#63b8ff" d="M82.1,-150.53C111.39,-194.99 223.03,-364.43 261.5,-422.83"/>
<polygon fill="#63b8ff" stroke="#63b8ff" points="258.35,-424.41 266.77,-430.83 264.19,-420.56 258.35,-424.41"/>
</a>
</g>
</g>
<!-- Node73 -->
<g id="Node000073" class="node">
<title>Node73</title>
<g id="a_Node000073"><a xlink:href="$m__ui_8c.html#ac3fd93d055094ed9bd458eb283af7c04" xlink:title=" ">
<polygon fill="white" stroke="#666666" points="347,-150.12 204.25,-150.12 204.25,-129.38 347,-129.38 347,-150.12"/>
<text xml:space="preserve" text-anchor="middle" x="275.62" y="-136.62" font-family="Helvetica,sans-Serif" font-size="10.00">enter_ui_page_backwards</text>
</a>
</g>
</g>
<!-- Node1&#45;&gt;Node73 -->
<g id="edge16_Node000001_Node000073" class="edge">
<title>Node1&#45;&gt;Node73</title>
<g id="a_edge16_Node000001_Node000073"><a xlink:title=" ">
<path fill="none" stroke="#63b8ff" d="M148.48,-139.75C162.92,-139.75 178.15,-139.75 192.85,-139.75"/>
<polygon fill="#63b8ff" stroke="#63b8ff" points="192.44,-143.25 202.44,-139.75 192.44,-136.25 192.44,-143.25"/>
</a>
</g>
</g>
<!-- Node76 -->
<g id="Node000076" class="node">
<title>Node76</title>
<g id="a_Node000076"><a xlink:href="$m__effect_8h.html#a3bf2e83720229604dbe0094057be6586" xlink:title=" ">
<polygon fill="white" stroke="#666666" points="344.75,-111.12 206.5,-111.12 206.5,-90.38 344.75,-90.38 344.75,-111.12"/>
<text xml:space="preserve" text-anchor="middle" x="275.62" y="-97.62" font-family="Helvetica,sans-Serif" font-size="10.00">m_effect_init_view_page</text>
</a>
</g>
</g>
<!-- Node1&#45;&gt;Node76 -->
<g id="edge19_Node000001_Node000076" class="edge">
<title>Node1&#45;&gt;Node76</title>
<g id="a_edge19_Node000001_Node000076"><a xlink:title=" ">
<path fill="none" stroke="#63b8ff" d="M130.61,-128.89C154.52,-124.22 182.67,-118.72 207.71,-113.82"/>
<polygon fill="#63b8ff" stroke="#63b8ff" points="208.34,-117.27 217.49,-111.91 207,-110.4 208.34,-117.27"/>
</a>
</g>
</g>
<!-- Node77 -->
<g id="Node000077" class="node">
<title>Node77</title>
<g id="a_Node000077"><a xlink:href="$m__profile_8c.html#a69a5c3334f55904c60414b0caaef7305" xlink:title=" ">
<polygon fill="white" stroke="#666666" points="353.75,-72.12 197.5,-72.12 197.5,-51.38 353.75,-51.38 353.75,-72.12"/>
<text xml:space="preserve" text-anchor="middle" x="275.62" y="-58.62" font-family="Helvetica,sans-Serif" font-size="10.00">m_profile_append_effect_eff</text>
</a>
</g>
</g>
<!-- Node1&#45;&gt;Node77 -->
<g id="edge20_Node000001_Node000077" class="edge">
<title>Node1&#45;&gt;Node77</title>
<g id="a_edge20_Node000001_Node000077"><a xlink:title=" ">
<path fill="none" stroke="#63b8ff" d="M91.69,-129.01C112.53,-116.05 149.61,-94.43 184,-81.75 190.35,-79.41 197.05,-77.3 203.83,-75.41"/>
<polygon fill="#63b8ff" stroke="#63b8ff" points="204.24,-78.92 213.02,-72.99 202.46,-72.15 204.24,-78.92"/>
</a>
</g>
</g>
<!-- Node40 -->
<g id="Node000040" class="node">
<title>Node40</title>
<g id="a_Node000040"><a xlink:href="$m__profile_8c.html#a9161b482b0dc7522ee6c65b863b7e1c6" xlink:title=" ">
<polygon fill="#fff0f0" stroke="red" points="330.5,-33.5 220.75,-33.5 220.75,0 330.5,0 330.5,-33.5"/>
<text xml:space="preserve" text-anchor="start" x="228.75" y="-20" font-family="Helvetica,sans-Serif" font-size="10.00">m_profile_if_active</text>
<text xml:space="preserve" text-anchor="middle" x="275.62" y="-7.25" font-family="Helvetica,sans-Serif" font-size="10.00">_update_fpga</text>
</a>
</g>
</g>
<!-- Node1&#45;&gt;Node40 -->
<g id="edge24_Node000001_Node000040" class="edge">
<title>Node1&#45;&gt;Node40</title>
<g id="a_edge24_Node000001_Node000040"><a xlink:title=" ">
<path fill="none" stroke="#63b8ff" d="M84.04,-128.99C101.38,-109.04 141.39,-66.21 184,-42.75 191.95,-38.37 200.71,-34.67 209.55,-31.56"/>
<polygon fill="#63b8ff" stroke="#63b8ff" points="210.47,-34.94 218.89,-28.52 208.3,-28.29 210.47,-34.94"/>
</a>
</g>
</g>
<!-- Node106 -->
<g id="Node000106" class="node">
<title>Node106</title>
<g id="a_Node000106"><a xlink:href="$m__profile_8c.html#a3e0dbd889a2ea32d7abb63f31b1c04ac" xlink:title=" ">
<polygon fill="white" stroke="#666666" points="367.25,-189.12 184,-189.12 184,-168.38 367.25,-168.38 367.25,-189.12"/>
<text xml:space="preserve" text-anchor="middle" x="275.62" y="-175.62" font-family="Helvetica,sans-Serif" font-size="10.00">m_profile_update_representations</text>
</a>
</g>
</g>
<!-- Node1&#45;&gt;Node106 -->
<g id="edge25_Node000001_Node000106" class="edge">
<title>Node1&#45;&gt;Node106</title>
<g id="a_edge25_Node000001_Node000106"><a xlink:title=" ">
<path fill="none" stroke="#63b8ff" d="M130.61,-150.61C154.52,-155.28 182.67,-160.78 207.71,-165.68"/>
<polygon fill="#63b8ff" stroke="#63b8ff" points="207,-169.1 217.49,-167.59 208.34,-162.23 207,-169.1"/>
</a>
</g>
</g>
<!-- Node107 -->
<g id="Node000107" class="node">
<title>Node107</title>
<g id="a_Node000107"><a xlink:href="$m__profile__view_8c.html#a60c72db396bbb015c9b9429247bf8f87" xlink:title=" ">
<polygon fill="white" stroke="#666666" points="334.25,-289.5 217,-289.5 217,-256 334.25,-256 334.25,-289.5"/>
<text xml:space="preserve" text-anchor="start" x="225" y="-276" font-family="Helvetica,sans-Serif" font-size="10.00">profile_view_append</text>
<text xml:space="preserve" text-anchor="middle" x="275.62" y="-263.25" font-family="Helvetica,sans-Serif" font-size="10.00">_effect</text>
</a>
</g>
</g>
<!-- Node1&#45;&gt;Node107 -->
<g id="edge27_Node000001_Node000107" class="edge">
<title>Node1&#45;&gt;Node107</title>
<g id="a_edge27_Node000001_Node000107"><a xlink:title=" ">
<path fill="none" stroke="#63b8ff" d="M91,-150.41C123.08,-171.78 195.94,-220.33 239.62,-249.43"/>
<polygon fill="#63b8ff" stroke="#63b8ff" points="237.48,-252.21 247.74,-254.84 241.36,-246.38 237.48,-252.21"/>
</a>
</g>
</g>
<!-- Node3 -->
<g id="Node000003" class="node">
<title>Node3</title>
<g id="a_Node000003"><a xlink:href="$m__effect__settings_8c.html#a38d635228f087540f144ed30f762ed57" xlink:title=" ">
<polygon fill="white" stroke="#666666" points="547.5,-536.5 422.75,-536.5 422.75,-503 547.5,-503 547.5,-536.5"/>
<text xml:space="preserve" text-anchor="start" x="430.75" y="-523" font-family="Helvetica,sans-Serif" font-size="10.00">create_effect_settings</text>
<text xml:space="preserve" text-anchor="middle" x="485.12" y="-510.25" font-family="Helvetica,sans-Serif" font-size="10.00">_page_ui</text>
</a>
</g>
</g>
<!-- Node2&#45;&gt;Node3 -->
<g id="edge2_Node000002_Node000003" class="edge">
<title>Node2&#45;&gt;Node3</title>
<g id="a_edge2_Node000002_Node000003"><a xlink:title=" ">
<path fill="none" stroke="#63b8ff" d="M305.91,-453.62C337.26,-465.25 387.78,-484 427.04,-498.57"/>
<polygon fill="#63b8ff" stroke="#63b8ff" points="425.78,-501.83 436.37,-502.03 428.21,-495.27 425.78,-501.83"/>
</a>
</g>
</g>
<!-- Node6 -->
<g id="Node000006" class="node">
<title>Node6</title>
<g id="a_Node000006"><a xlink:href="$m__parameter__widget_8c.html#acb0704e7866f9ff20b05d6665fc63f02" xlink:title=" ">
<polygon fill="#fff0f0" stroke="red" points="758.5,-511.12 603,-511.12 603,-490.38 758.5,-490.38 758.5,-511.12"/>
<text xml:space="preserve" text-anchor="middle" x="680.75" y="-497.62" font-family="Helvetica,sans-Serif" font-size="10.00">parameter_widget_create_ui</text>
</a>
</g>
</g>
<!-- Node2&#45;&gt;Node6 -->
<g id="edge10_Node000002_Node000006" class="edge">
<title>Node2&#45;&gt;Node6</title>
<g id="a_edge10_Node000002_Node000006"><a xlink:title=" ">
<path fill="none" stroke="#63b8ff" d="M337.41,-451.5C405.44,-461.28 516.2,-477.22 593.25,-488.3"/>
<polygon fill="#63b8ff" stroke="#63b8ff" points="592.47,-491.73 602.86,-489.69 593.46,-484.8 592.47,-491.73"/>
</a>
</g>
</g>
<!-- Node19 -->
<g id="Node000019" class="node">
<title>Node19</title>
<g id="a_Node000019"><a xlink:href="$m__ui_8c.html#aeb5818cdaae65980fbd2c19ddd24c08a" xlink:title=" ">
<polygon fill="#fff0f0" stroke="red" points="747.25,-639.12 614.25,-639.12 614.25,-618.38 747.25,-618.38 747.25,-639.12"/>
<text xml:space="preserve" text-anchor="middle" x="680.75" y="-625.62" font-family="Helvetica,sans-Serif" font-size="10.00">ui_page_create_base_ui</text>
</a>
</g>
</g>
<!-- Node2&#45;&gt;Node19 -->
<g id="edge15_Node000002_Node000019" class="edge">
<title>Node2&#45;&gt;Node19</title>
<g id="a_edge15_Node000002_Node000019"><a xlink:title=" ">
<path fill="none" stroke="#63b8ff" d="M286.8,-453.34C307.12,-473.92 354.91,-519.56 403.25,-545.75 468.11,-580.89 549.79,-603.06 607.51,-615.56"/>
<polygon fill="#63b8ff" stroke="#63b8ff" points="606.73,-618.97 617.24,-617.61 608.18,-612.12 606.73,-618.97"/>
</a>
</g>
</g>
<!-- Node31 -->
<g id="Node000031" class="node">
<title>Node31</title>
<g id="a_Node000031"><a xlink:href="$m__effect_8c.html#a4ac79b482fe1208b069ebed66e421d4a" xlink:title=" ">
<polygon fill="white" stroke="#666666" points="531.38,-384.12 438.88,-384.12 438.88,-363.38 531.38,-363.38 531.38,-384.12"/>
<text xml:space="preserve" text-anchor="middle" x="485.12" y="-370.62" font-family="Helvetica,sans-Serif" font-size="10.00">m_effect_name</text>
</a>
</g>
</g>
<!-- Node2&#45;&gt;Node31 -->
<g id="edge9_Node000002_Node000031" class="edge">
<title>Node2&#45;&gt;Node31</title>
<g id="a_edge9_Node000002_Node000031"><a xlink:title=" ">
<path fill="none" stroke="#63b8ff" d="M309.05,-431.97C344.5,-420.18 401.49,-401.23 440.76,-388.17"/>
<polygon fill="#63b8ff" stroke="#63b8ff" points="441.77,-391.52 450.15,-385.05 439.56,-384.88 441.77,-391.52"/>
</a>
</g>
</g>
<!-- Node32 -->
<g id="Node000032" class="node">
<title>Node32</title>
<g id="a_Node000032"><a xlink:href="$m__parameter__widget_8c.html#ab06e101eb6fc91d042f073165b565cf8" xlink:title=" ">
<polygon fill="white" stroke="#666666" points="554.25,-432.12 416,-432.12 416,-411.38 554.25,-411.38 554.25,-432.12"/>
<text xml:space="preserve" text-anchor="middle" x="485.12" y="-418.62" font-family="Helvetica,sans-Serif" font-size="10.00">setting_widget_create_ui</text>
</a>
</g>
</g>
<!-- Node2&#45;&gt;Node32 -->
<g id="edge11_Node000002_Node000032" class="edge">
<title>Node2&#45;&gt;Node32</title>
<g id="a_edge11_Node000002_Node000032"><a xlink:title=" ">
<path fill="none" stroke="#63b8ff" d="M337.48,-436.59C358.36,-434.48 382.04,-432.08 404.2,-429.84"/>
<polygon fill="#63b8ff" stroke="#63b8ff" points="404.52,-433.32 414.12,-428.84 403.82,-426.36 404.52,-433.32"/>
</a>
</g>
</g>
<!-- Node4 -->
<g id="Node000004" class="node">
<title>Node4</title>
<g id="a_Node000004"><a xlink:href="$m__effect__settings_8c.html#a70d66998be0b9c55aee8c71e5c08b3bd" xlink:title=" ">
<polygon fill="white" stroke="#666666" points="736.38,-600.5 625.12,-600.5 625.12,-567 736.38,-567 736.38,-600.5"/>
<text xml:space="preserve" text-anchor="start" x="633.12" y="-587" font-family="Helvetica,sans-Serif" font-size="10.00">band_control_value</text>
<text xml:space="preserve" text-anchor="middle" x="680.75" y="-574.25" font-family="Helvetica,sans-Serif" font-size="10.00">_changed_cb</text>
</a>
</g>
</g>
<!-- Node3&#45;&gt;Node4 -->
<g id="edge3_Node000003_Node000004" class="edge">
<title>Node3&#45;&gt;Node4</title>
<g id="a_edge3_Node000003_Node000004"><a xlink:title=" ">
<path fill="none" stroke="#63b8ff" d="M538.27,-536.99C562.57,-545.02 591.69,-554.64 617.18,-563.07"/>
<polygon fill="#63b8ff" stroke="#63b8ff" points="615.82,-566.3 626.41,-566.12 618.02,-559.66 615.82,-566.3"/>
</a>
</g>
</g>
<!-- Node5 -->
<g id="Node000005" class="node">
<title>Node5</title>
<g id="a_Node000005"><a xlink:href="$m__effect__settings_8c.html#aa0f4a467b5a87899f7fd595d00faeb49" xlink:title=" ">
<polygon fill="white" stroke="#666666" points="952.25,-571.12 794.5,-571.12 794.5,-550.38 952.25,-550.38 952.25,-571.12"/>
<text xml:space="preserve" text-anchor="middle" x="873.38" y="-557.62" font-family="Helvetica,sans-Serif" font-size="10.00">refresh_effect_settings_page</text>
</a>
</g>
</g>
<!-- Node3&#45;&gt;Node5 -->
<g id="edge6_Node000003_Node000005" class="edge">
<title>Node3&#45;&gt;Node5</title>
<g id="a_edge6_Node000003_Node000005"><a xlink:title=" ">
<path fill="none" stroke="#63b8ff" d="M547.75,-526.29C611.24,-533.03 710.82,-543.6 782.95,-551.26"/>
<polygon fill="#63b8ff" stroke="#63b8ff" points="782.47,-554.73 792.78,-552.3 783.21,-547.77 782.47,-554.73"/>
</a>
</g>
</g>
<!-- Node3&#45;&gt;Node6 -->
<g id="edge5_Node000003_Node000006" class="edge">
<title>Node3&#45;&gt;Node6</title>
<g id="a_edge5_Node000003_Node000006"><a xlink:title=" ">
<path fill="none" stroke="#63b8ff" d="M547.92,-513.69C561.77,-512.33 576.72,-510.86 591.41,-509.42"/>
<polygon fill="#63b8ff" stroke="#63b8ff" points="591.45,-512.93 601.06,-508.47 590.77,-505.97 591.45,-512.93"/>
</a>
</g>
</g>
<!-- Node17 -->
<g id="Node000017" class="node">
<title>Node17</title>
<g id="a_Node000017"><a xlink:href="$m__parameter__widget_8c.html#a93cec280e8b0db0de8a4e0c71701a233" xlink:title=" ">
<polygon fill="#fff0f0" stroke="red" points="742.75,-472.5 618.75,-472.5 618.75,-439 742.75,-439 742.75,-472.5"/>
<text xml:space="preserve" text-anchor="start" x="626.75" y="-459" font-family="Helvetica,sans-Serif" font-size="10.00">setting_widget_create</text>
<text xml:space="preserve" text-anchor="middle" x="680.75" y="-446.25" font-family="Helvetica,sans-Serif" font-size="10.00">_ui_no_callback</text>
</a>
</g>
</g>
<!-- Node3&#45;&gt;Node17 -->
<g id="edge7_Node000003_Node000017" class="edge">
<title>Node3&#45;&gt;Node17</title>
<g id="a_edge7_Node000003_Node000017"><a xlink:title=" ">
<path fill="none" stroke="#63b8ff" d="M538.27,-502.51C562.57,-494.48 591.69,-484.86 617.18,-476.43"/>
<polygon fill="#63b8ff" stroke="#63b8ff" points="618.02,-479.84 626.41,-473.38 615.82,-473.2 618.02,-479.84"/>
</a>
</g>
</g>
<!-- Node3&#45;&gt;Node19 -->
<g id="edge8_Node000003_Node000019" class="edge">
<title>Node3&#45;&gt;Node19</title>
<g id="a_edge8_Node000003_Node000019"><a xlink:title=" ">
<path fill="none" stroke="#63b8ff" d="M503.56,-536.99C525.11,-557.35 563.79,-590.83 603,-609.75 606.34,-611.36 609.83,-612.84 613.39,-614.2"/>
<polygon fill="#63b8ff" stroke="#63b8ff" points="612.25,-617.51 622.84,-617.45 614.52,-610.89 612.25,-617.51"/>
</a>
</g>
</g>
<!-- Node4&#45;&gt;Node5 -->
<g id="edge4_Node000004_Node000005" class="edge">
<title>Node4&#45;&gt;Node5</title>
<g id="a_edge4_Node000004_Node000005"><a xlink:title=" ">
<path fill="none" stroke="#63b8ff" d="M736.63,-577.13C751.06,-575.39 767,-573.46 782.74,-571.57"/>
<polygon fill="#63b8ff" stroke="#63b8ff" points="783.12,-575.04 792.63,-570.37 782.29,-568.09 783.12,-575.04"/>
</a>
</g>
</g>
<!-- Node32&#45;&gt;Node17 -->
<g id="edge14_Node000032_Node000017" class="edge">
<title>Node32&#45;&gt;Node17</title>
<g id="a_edge14_Node000032_Node000017"><a xlink:title=" ">
<path fill="none" stroke="#63b8ff" d="M547.92,-432.6C566.8,-435.92 587.72,-439.59 607.24,-443.02"/>
<polygon fill="#63b8ff" stroke="#63b8ff" points="606.59,-446.46 617.05,-444.74 607.81,-439.56 606.59,-446.46"/>
</a>
</g>
</g>
<!-- Node33 -->
<g id="Node000033" class="node">
<title>Node33</title>
<g id="a_Node000033"><a xlink:href="$m__parameter__widget_8c.html#a5a6ebded10138ba55624e195ae4f4309" xlink:title=" ">
<polygon fill="#fff0f0" stroke="red" points="729.25,-421.12 632.25,-421.12 632.25,-400.38 729.25,-400.38 729.25,-421.12"/>
<text xml:space="preserve" text-anchor="middle" x="680.75" y="-407.62" font-family="Helvetica,sans-Serif" font-size="10.00">edit_sw_field_cb</text>
</a>
</g>
</g>
<!-- Node32&#45;&gt;Node33 -->
<g id="edge12_Node000032_Node000033" class="edge">
<title>Node32&#45;&gt;Node33</title>
<g id="a_edge12_Node000032_Node000033"><a xlink:title=" ">
<path fill="none" stroke="#63b8ff" d="M554.66,-417.86C576.23,-416.63 599.86,-415.29 620.71,-414.1"/>
<polygon fill="#63b8ff" stroke="#63b8ff" points="620.68,-417.61 630.47,-413.55 620.28,-410.62 620.68,-417.61"/>
</a>
</g>
</g>
<!-- Node70 -->
<g id="Node000070" class="node">
<title>Node70</title>
<g id="a_Node000070"><a xlink:href="$m__parameter__widget_8c.html#afd6c5489cb7579ee98a57340a3abcb80" xlink:title=" ">
<polygon fill="#fff0f0" stroke="red" points="753.25,-382.12 608.25,-382.12 608.25,-361.38 753.25,-361.38 753.25,-382.12"/>
<text xml:space="preserve" text-anchor="middle" x="680.75" y="-368.62" font-family="Helvetica,sans-Serif" font-size="10.00">setting_widget_change_cb</text>
</a>
</g>
</g>
<!-- Node32&#45;&gt;Node70 -->
<g id="edge13_Node000032_Node000070" class="edge">
<title>Node32&#45;&gt;Node70</title>
<g id="a_edge13_Node000032_Node000070"><a xlink:title=" ">
<path fill="none" stroke="#63b8ff" d="M528.14,-410.9C557.06,-403.43 595.72,-393.45 626.76,-385.43"/>
<polygon fill="#63b8ff" stroke="#63b8ff" points="627.55,-388.85 636.35,-382.96 625.8,-382.07 627.55,-388.85"/>
</a>
</g>
</g>
<!-- Node74 -->
<g id="Node000074" class="node">
<title>Node74</title>
<g id="a_Node000074"><a xlink:href="$m__context_8c.html#a714ca532031e59915d88a683682f2802" xlink:title=" ">
<polygon fill="white" stroke="#666666" points="555,-142.12 415.25,-142.12 415.25,-121.38 555,-121.38 555,-142.12"/>
<text xml:space="preserve" text-anchor="middle" x="485.12" y="-128.62" font-family="Helvetica,sans-Serif" font-size="10.00">m_cxt_queue_save_state</text>
</a>
</g>
</g>
<!-- Node73&#45;&gt;Node74 -->
<g id="edge17_Node000073_Node000074" class="edge">
<title>Node73&#45;&gt;Node74</title>
<g id="a_edge17_Node000073_Node000074"><a xlink:title=" ">
<path fill="none" stroke="#63b8ff" d="M347.45,-137.02C365.54,-136.32 385.11,-135.57 403.64,-134.85"/>
<polygon fill="#63b8ff" stroke="#63b8ff" points="403.65,-138.36 413.51,-134.47 403.38,-131.36 403.65,-138.36"/>
</a>
</g>
</g>
<!-- Node75 -->
<g id="Node000075" class="node">
<title>Node75</title>
<g id="a_Node000075"><a xlink:href="$m__representation_8c.html#a7739919401d0c7058bf04cc082a1b6d5" xlink:title=" ">
<polygon fill="white" stroke="#666666" points="742,-143.5 619.5,-143.5 619.5,-110 742,-110 742,-143.5"/>
<text xml:space="preserve" text-anchor="start" x="627.5" y="-130" font-family="Helvetica,sans-Serif" font-size="10.00">queue_representation</text>
<text xml:space="preserve" text-anchor="middle" x="680.75" y="-117.25" font-family="Helvetica,sans-Serif" font-size="10.00">_list_update</text>
</a>
</g>
</g>
<!-- Node74&#45;&gt;Node75 -->
<g id="edge18_Node000074_Node000075" class="edge">
<title>Node74&#45;&gt;Node75</title>
<g id="a_edge18_Node000074_Node000075"><a xlink:title=" ">
<path fill="none" stroke="#63b8ff" d="M555.48,-129.96C572.57,-129.52 590.91,-129.04 608.1,-128.6"/>
<polygon fill="#63b8ff" stroke="#63b8ff" points="607.8,-132.11 617.7,-128.35 607.62,-125.11 607.8,-132.11"/>
</a>
</g>
</g>
<!-- Node78 -->
<g id="Node000078" class="node">
<title>Node78</title>
<g id="a_Node000078"><a xlink:href="$m__effect_8c.html#ab1a94024d9e8f3498da5867fb92b8294" xlink:title=" ">
<polygon fill="white" stroke="#666666" points="553.88,-37.12 416.38,-37.12 416.38,-16.38 553.88,-16.38 553.88,-37.12"/>
<text xml:space="preserve" text-anchor="middle" x="485.12" y="-23.62" font-family="Helvetica,sans-Serif" font-size="10.00">effect_rectify_param_ids</text>
</a>
</g>
</g>
<!-- Node77&#45;&gt;Node78 -->
<g id="edge21_Node000077_Node000078" class="edge">
<title>Node77&#45;&gt;Node78</title>
<g id="a_edge21_Node000077_Node000078"><a xlink:title=" ">
<path fill="none" stroke="#63b8ff" d="M340.86,-50.92C362.34,-47.29 386.49,-43.22 408.74,-39.47"/>
<polygon fill="#63b8ff" stroke="#63b8ff" points="409.07,-42.96 418.35,-37.85 407.9,-36.06 409.07,-42.96"/>
</a>
</g>
</g>
<!-- Node79 -->
<g id="Node000079" class="node">
<title>Node79</title>
<g id="a_Node000079"><a xlink:href="$m__pipeline_8c.html#a8dce811810c9ae42e523eb5aa2764a96" xlink:title=" ">
<polygon fill="white" stroke="#666666" points="567,-76.12 403.25,-76.12 403.25,-55.38 567,-55.38 567,-76.12"/>
<text xml:space="preserve" text-anchor="middle" x="485.12" y="-62.62" font-family="Helvetica,sans-Serif" font-size="10.00">m_pipeline_append_effect_eff</text>
</a>
</g>
</g>
<!-- Node77&#45;&gt;Node79 -->
<g id="edge22_Node000077_Node000079" class="edge">
<title>Node77&#45;&gt;Node79</title>
<g id="a_edge22_Node000077_Node000079"><a xlink:title=" ">
<path fill="none" stroke="#63b8ff" d="M354.19,-63.25C366.35,-63.48 379.02,-63.72 391.48,-63.96"/>
<polygon fill="#63b8ff" stroke="#63b8ff" points="391.27,-67.46 401.33,-64.15 391.4,-60.46 391.27,-67.46"/>
</a>
</g>
</g>
<!-- Node80 -->
<g id="Node000080" class="node">
<title>Node80</title>
<g id="a_Node000080"><a xlink:href="$m__effect_8c.html#a8e75c554d3e8551168278ca959dd73e0" xlink:title=" ">
<polygon fill="#fff0f0" stroke="red" points="758.5,-76.12 603,-76.12 603,-55.38 758.5,-55.38 758.5,-76.12"/>
<text xml:space="preserve" text-anchor="middle" x="680.75" y="-62.62" font-family="Helvetica,sans-Serif" font-size="10.00">init_effect_from_effect_desc</text>
</a>
</g>
</g>
<!-- Node79&#45;&gt;Node80 -->
<g id="edge23_Node000079_Node000080" class="edge">
<title>Node79&#45;&gt;Node80</title>
<g id="a_edge23_Node000079_Node000080"><a xlink:title=" ">
<path fill="none" stroke="#63b8ff" d="M567.4,-65.75C575.35,-65.75 583.44,-65.75 591.45,-65.75"/>
<polygon fill="#63b8ff" stroke="#63b8ff" points="591.19,-69.25 601.19,-65.75 591.19,-62.25 591.19,-69.25"/>
</a>
</g>
</g>
<!-- Node106&#45;&gt;Node75 -->
<g id="edge26_Node000106_Node000075" class="edge">
<title>Node106&#45;&gt;Node75</title>
<g id="a_edge26_Node000106_Node000075"><a xlink:title=" ">
<path fill="none" stroke="#63b8ff" d="M367.53,-172.65C424.94,-168.14 500.55,-160.99 567,-150.75 580.29,-148.7 594.37,-146.08 607.91,-143.32"/>
<polygon fill="#63b8ff" stroke="#63b8ff" points="608.57,-146.75 617.65,-141.28 607.14,-139.9 608.57,-146.75"/>
</a>
</g>
</g>
<!-- Node107&#45;&gt;Node31 -->
<g id="edge35_Node000107_Node000031" class="edge">
<title>Node107&#45;&gt;Node31</title>
<g id="a_edge35_Node000107_Node000031"><a xlink:title=" ">
<path fill="none" stroke="#63b8ff" d="M311.82,-289.88C351.04,-308.97 413.89,-339.56 451.87,-358.05"/>
<polygon fill="#63b8ff" stroke="#63b8ff" points="450,-361.03 460.52,-362.26 453.06,-354.74 450,-361.03"/>
</a>
</g>
</g>
<!-- Node108 -->
<g id="Node000108" class="node">
<title>Node108</title>
<g id="a_Node000108"><a xlink:href="$m__button_8c.html#a5692c243172ed156d2fd4cc77fe1aae2" xlink:title=" ">
<polygon fill="white" stroke="#666666" points="549.38,-257.5 420.88,-257.5 420.88,-224 549.38,-224 549.38,-257.5"/>
<text xml:space="preserve" text-anchor="start" x="428.88" y="-244" font-family="Helvetica,sans-Serif" font-size="10.00">m_active_button_array</text>
<text xml:space="preserve" text-anchor="middle" x="485.12" y="-231.25" font-family="Helvetica,sans-Serif" font-size="10.00">_append_new</text>
</a>
</g>
</g>
<!-- Node107&#45;&gt;Node108 -->
<g id="edge28_Node000107_Node000108" class="edge">
<title>Node107&#45;&gt;Node108</title>
<g id="a_edge28_Node000107_Node000108"><a xlink:title=" ">
<path fill="none" stroke="#63b8ff" d="M334.7,-263.79C357.89,-260.22 384.87,-256.06 409.48,-252.26"/>
<polygon fill="#63b8ff" stroke="#63b8ff" points="409.76,-255.76 419.11,-250.78 408.69,-248.84 409.76,-255.76"/>
</a>
</g>
</g>
<!-- Node149 -->
<g id="Node000149" class="node">
<title>Node149</title>
<g id="a_Node000149"><a xlink:href="$m__button_8c.html#a2e5dcaad98182e8c4200cad5a48bef86" xlink:title=" ">
<polygon fill="white" stroke="#666666" points="559.12,-315.12 411.12,-315.12 411.12,-294.38 559.12,-294.38 559.12,-315.12"/>
<text xml:space="preserve" text-anchor="middle" x="485.12" y="-301.62" font-family="Helvetica,sans-Serif" font-size="10.00">m_active_button_create_ui</text>
</a>
</g>
</g>
<!-- Node107&#45;&gt;Node149 -->
<g id="edge32_Node000107_Node000149" class="edge">
<title>Node107&#45;&gt;Node149</title>
<g id="a_edge32_Node000107_Node000149"><a xlink:title=" ">
<path fill="none" stroke="#63b8ff" d="M334.7,-281.71C355.73,-284.95 379.88,-288.67 402.55,-292.17"/>
<polygon fill="#63b8ff" stroke="#63b8ff" points="401.98,-295.62 412.4,-293.69 403.05,-288.7 401.98,-295.62"/>
</a>
</g>
</g>
<!-- Node109 -->
<g id="Node000109" class="node">
<title>Node109</title>
<g id="a_Node000109"><a xlink:href="$m__button_8c.html#a4114b68d36d7158b3ee0a8841d4a3926" xlink:title=" ">
<polygon fill="#fff0f0" stroke="red" points="741.25,-247.5 620.25,-247.5 620.25,-214 741.25,-214 741.25,-247.5"/>
<text xml:space="preserve" text-anchor="start" x="628.25" y="-234" font-family="Helvetica,sans-Serif" font-size="10.00">m_active_button_add</text>
<text xml:space="preserve" text-anchor="middle" x="680.75" y="-221.25" font-family="Helvetica,sans-Serif" font-size="10.00">_del_button</text>
</a>
</g>
</g>
<!-- Node108&#45;&gt;Node109 -->
<g id="edge29_Node000108_Node000109" class="edge">
<title>Node108&#45;&gt;Node109</title>
<g id="a_edge29_Node000108_Node000109"><a xlink:title=" ">
<path fill="none" stroke="#63b8ff" d="M549.79,-237.46C568.59,-236.49 589.29,-235.42 608.53,-234.43"/>
<polygon fill="#63b8ff" stroke="#63b8ff" points="608.67,-237.93 618.47,-233.91 608.3,-230.94 608.67,-237.93"/>
</a>
</g>
</g>
<!-- Node131 -->
<g id="Node000131" class="node">
<title>Node131</title>
<g id="a_Node000131"><a xlink:href="$m__button_8c.html#a8f12f9ae4a29f1b1a709d3df872f2a92" xlink:title=" ">
<polygon fill="#fff0f0" stroke="red" points="745,-195.5 616.5,-195.5 616.5,-162 745,-162 745,-195.5"/>
<text xml:space="preserve" text-anchor="start" x="624.5" y="-182" font-family="Helvetica,sans-Serif" font-size="10.00">m_active_button_array</text>
<text xml:space="preserve" text-anchor="middle" x="680.75" y="-169.25" font-family="Helvetica,sans-Serif" font-size="10.00">_append</text>
</a>
</g>
</g>
<!-- Node108&#45;&gt;Node131 -->
<g id="edge30_Node000108_Node000131" class="edge">
<title>Node108&#45;&gt;Node131</title>
<g id="a_edge30_Node000108_Node000131"><a xlink:title=" ">
<path fill="none" stroke="#63b8ff" d="M539.8,-223.56C563.2,-216.07 590.82,-207.22 615.32,-199.38"/>
<polygon fill="#63b8ff" stroke="#63b8ff" points="616.07,-202.82 624.53,-196.43 613.93,-196.15 616.07,-202.82"/>
</a>
</g>
</g>
<!-- Node132 -->
<g id="Node000132" class="node">
<title>Node132</title>
<g id="a_Node000132"><a xlink:href="$m__button_8c.html#a1e462ff2ab3235d91ca20e87de75e11c" xlink:title=" ">
<polygon fill="#fff0f0" stroke="red" points="740.12,-286.12 621.38,-286.12 621.38,-265.38 740.12,-265.38 740.12,-286.12"/>
<text xml:space="preserve" text-anchor="middle" x="680.75" y="-272.62" font-family="Helvetica,sans-Serif" font-size="10.00">m_active_button_init</text>
</a>
</g>
</g>
<!-- Node108&#45;&gt;Node132 -->
<g id="edge31_Node000108_Node000132" class="edge">
<title>Node108&#45;&gt;Node132</title>
<g id="a_edge31_Node000108_Node000132"><a xlink:title=" ">
<path fill="none" stroke="#63b8ff" d="M549.79,-252.26C568.96,-255.72 590.09,-259.54 609.65,-263.08"/>
<polygon fill="#63b8ff" stroke="#63b8ff" points="609.01,-266.52 619.47,-264.85 610.25,-259.63 609.01,-266.52"/>
</a>
</g>
</g>
<!-- Node21 -->
<g id="Node000021" class="node">
<title>Node21</title>
<g id="a_Node000021"><a xlink:href="$m__button_8c.html#a373c1bcbb1767e30435fdd5b370b3900" xlink:title=" ">
<polygon fill="white" stroke="#666666" points="729.62,-325.12 631.88,-325.12 631.88,-304.38 729.62,-304.38 729.62,-325.12"/>
<text xml:space="preserve" text-anchor="middle" x="680.75" y="-311.62" font-family="Helvetica,sans-Serif" font-size="10.00">create_button_ui</text>
</a>
</g>
</g>
<!-- Node149&#45;&gt;Node21 -->
<g id="edge33_Node000149_Node000021" class="edge">
<title>Node149&#45;&gt;Node21</title>
<g id="a_edge33_Node000149_Node000021"><a xlink:title=" ">
<path fill="none" stroke="#63b8ff" d="M559.6,-308.54C579.63,-309.58 601.07,-310.69 620.22,-311.68"/>
<polygon fill="#63b8ff" stroke="#63b8ff" points="619.83,-315.16 630,-312.18 620.19,-308.17 619.83,-315.16"/>
</a>
</g>
</g>
<!-- Node21&#45;&gt;Node21 -->
<g id="edge34_Node000021_Node000021" class="edge">
<title>Node21&#45;&gt;Node21</title>
<g id="a_edge34_Node000021_Node000021"><a xlink:title=" ">
<path fill="none" stroke="#63b8ff" d="M649.71,-325.52C637.3,-334.18 647.64,-343.12 680.75,-343.12 698.86,-343.12 710.15,-340.45 714.64,-336.61"/>
<polygon fill="#63b8ff" stroke="#63b8ff" points="718.05,-335.8 712.17,-326.99 711.27,-337.54 718.05,-335.8"/>
</a>
</g>
</g>
</g>
</svg>
