<?xml version="1.0" encoding="UTF-8" standalone="no"?>
<!DOCTYPE svg PUBLIC "-//W3C//DTD SVG 1.1//EN"
 "http://www.w3.org/Graphics/SVG/1.1/DTD/svg11.dtd">
<!-- Generated by graphviz version 13.1.2 (20250808.2320)
 -->
<!-- Title: configure_effect_settings_page Pages: 1 -->
<svg width="695pt" height="197pt"
 viewBox="0.00 0.00 695.00 197.00" xmlns="http://www.w3.org/2000/svg" xmlns:xlink="http://www.w3.org/1999/xlink">
<g id="graph0" class="graph" transform="scale(1 1) rotate(0) translate(4 193.12)">
<title>configure_effect_settings_page</title>
<!-- Node1 -->
<g id="Node000001" class="node">
<title>Node1</title>
<g id="a_Node000001"><a xlink:title=" ">
<polygon fill="#999999" stroke="#666666" points="169,-117.75 0,-117.75 0,-97 169,-97 169,-117.75"/>
<text xml:space="preserve" text-anchor="middle" x="84.5" y="-104.25" font-family="Helvetica,sans-Serif" font-size="10.00">configure_effect_settings_page</text>
</a>
</g>
</g>
<!-- Node2 -->
<g id="Node000002" class="node">
<title>Node2</title>
<g id="a_Node000002"><a xlink:href="$m__parameter__widget_8c.html#a70c962f1034dbc420de4f652e938caa5" xlink:title=" ">
<polygon fill="white" stroke="#666666" points="335.38,-189.12 217.38,-189.12 217.38,-155.62 335.38,-155.62 335.38,-189.12"/>
<text xml:space="preserve" text-anchor="start" x="225.38" y="-175.62" font-family="Helvetica,sans-Serif" font-size="10.00">configure_parameter</text>
<text xml:space="preserve" text-anchor="middle" x="276.38" y="-162.88" font-family="Helvetica,sans-Serif" font-size="10.00">_widget</text>
</a>
</g>
</g>
<!-- Node1&#45;&gt;Node2 -->
<g id="edge1_Node000001_Node000002" class="edge">
<title>Node1&#45;&gt;Node2</title>
<g id="a_edge1_Node000001_Node000002"><a xlink:title=" ">
<path fill="none" stroke="#63b8ff" d="M116.85,-118.11C143.26,-127.15 181.8,-140.34 214.27,-151.46"/>
<polygon fill="#63b8ff" stroke="#63b8ff" points="213,-154.72 223.59,-154.65 215.27,-148.1 213,-154.72"/>
</a>
</g>
</g>
<!-- Node4 -->
<g id="Node000004" class="node">
<title>Node4</title>
<g id="a_Node000004"><a xlink:href="$m__parameter__widget_8c.html#a505ab864ec6e33eebe75ea8b4ab82871" xlink:title=" ">
<polygon fill="white" stroke="#666666" points="345.88,-137.75 206.88,-137.75 206.88,-117 345.88,-117 345.88,-137.75"/>
<text xml:space="preserve" text-anchor="middle" x="276.38" y="-124.25" font-family="Helvetica,sans-Serif" font-size="10.00">configure_setting_widget</text>
</a>
</g>
</g>
<!-- Node1&#45;&gt;Node4 -->
<g id="edge3_Node000001_Node000004" class="edge">
<title>Node1&#45;&gt;Node4</title>
<g id="a_edge3_Node000001_Node000004"><a xlink:title=" ">
<path fill="none" stroke="#63b8ff" d="M169.33,-116.21C177.97,-117.12 186.73,-118.04 195.32,-118.94"/>
<polygon fill="#63b8ff" stroke="#63b8ff" points="194.68,-122.39 204.99,-119.96 195.41,-115.43 194.68,-122.39"/>
</a>
</g>
</g>
<!-- Node5 -->
<g id="Node000005" class="node">
<title>Node5</title>
<g id="a_Node000005"><a xlink:href="$m__effect_8c.html#a4ac79b482fe1208b069ebed66e421d4a" xlink:title=" ">
<polygon fill="white" stroke="#666666" points="322.62,-98.75 230.12,-98.75 230.12,-78 322.62,-78 322.62,-98.75"/>
<text xml:space="preserve" text-anchor="middle" x="276.38" y="-85.25" font-family="Helvetica,sans-Serif" font-size="10.00">m_effect_name</text>
</a>
</g>
</g>
<!-- Node1&#45;&gt;Node5 -->
<g id="edge4_Node000001_Node000005" class="edge">
<title>Node1&#45;&gt;Node5</title>
<g id="a_edge4_Node000001_Node000005"><a xlink:title=" ">
<path fill="none" stroke="#63b8ff" d="M169.33,-98.99C185.88,-97.33 202.88,-95.63 218.29,-94.09"/>
<polygon fill="#63b8ff" stroke="#63b8ff" points="218.63,-97.57 228.23,-93.09 217.93,-90.61 218.63,-97.57"/>
</a>
</g>
</g>
<!-- Node6 -->
<g id="Node000006" class="node">
<title>Node6</title>
<g id="a_Node000006"><a xlink:href="$m__ui_8c.html#a1b27d83a1ea548b981c47e9a80bf03ae" xlink:title=" ">
<polygon fill="white" stroke="#666666" points="347.75,-59.75 205,-59.75 205,-39 347.75,-39 347.75,-59.75"/>
<text xml:space="preserve" text-anchor="middle" x="276.38" y="-46.25" font-family="Helvetica,sans-Serif" font-size="10.00">ui_page_add_back_button</text>
</a>
</g>
</g>
<!-- Node1&#45;&gt;Node6 -->
<g id="edge5_Node000001_Node000006" class="edge">
<title>Node1&#45;&gt;Node6</title>
<g id="a_edge5_Node000001_Node000006"><a xlink:title=" ">
<path fill="none" stroke="#63b8ff" d="M118.64,-96.53C142.58,-88.78 175.71,-78.19 205,-69.38 211.7,-67.36 218.78,-65.28 225.77,-63.26"/>
<polygon fill="#63b8ff" stroke="#63b8ff" points="226.49,-66.7 235.14,-60.58 224.56,-59.97 226.49,-66.7"/>
</a>
</g>
</g>
<!-- Node3 -->
<g id="Node000003" class="node">
<title>Node3</title>
<g id="a_Node000003"><a xlink:href="$m__hfunc_8c.html#a840904866becc1161859f30852e94595" xlink:title=" ">
<polygon fill="white" stroke="#666666" points="484.12,-182.75 407.38,-182.75 407.38,-162 484.12,-162 484.12,-182.75"/>
<text xml:space="preserve" text-anchor="middle" x="445.75" y="-169.25" font-family="Helvetica,sans-Serif" font-size="10.00">format_float</text>
</a>
</g>
</g>
<!-- Node2&#45;&gt;Node3 -->
<g id="edge2_Node000002_Node000003" class="edge">
<title>Node2&#45;&gt;Node3</title>
<g id="a_edge2_Node000002_Node000003"><a xlink:title=" ">
<path fill="none" stroke="#63b8ff" d="M335.44,-172.38C355.07,-172.38 376.78,-172.38 395.64,-172.38"/>
<polygon fill="#63b8ff" stroke="#63b8ff" points="395.46,-175.88 405.46,-172.38 395.46,-168.88 395.46,-175.88"/>
</a>
</g>
</g>
<!-- Node7 -->
<g id="Node000007" class="node">
<title>Node7</title>
<g id="a_Node000007"><a xlink:href="$m__button_8c.html#abe2023eec9ead06a26633852308e65d4" xlink:title=" ">
<polygon fill="white" stroke="#666666" points="507.38,-98.75 384.12,-98.75 384.12,-78 507.38,-78 507.38,-98.75"/>
<text xml:space="preserve" text-anchor="middle" x="445.75" y="-85.25" font-family="Helvetica,sans-Serif" font-size="10.00">button_set_clicked_cb</text>
</a>
</g>
</g>
<!-- Node6&#45;&gt;Node7 -->
<g id="edge6_Node000006_Node000007" class="edge">
<title>Node6&#45;&gt;Node7</title>
<g id="a_edge6_Node000006_Node000007"><a xlink:title=" ">
<path fill="none" stroke="#63b8ff" d="M324,-60.24C343.5,-64.78 366.38,-70.11 386.94,-74.9"/>
<polygon fill="#63b8ff" stroke="#63b8ff" points="386.08,-78.3 396.61,-77.16 387.67,-71.48 386.08,-78.3"/>
</a>
</g>
</g>
<!-- Node8 -->
<g id="Node000008" class="node">
<title>Node8</title>
<g id="a_Node000008"><a xlink:href="$m__ui_8c.html#af17d8912a520f607796e85d96467cc5a" xlink:title=" ">
<polygon fill="white" stroke="#666666" points="507.75,-59.75 383.75,-59.75 383.75,-39 507.75,-39 507.75,-59.75"/>
<text xml:space="preserve" text-anchor="middle" x="445.75" y="-46.25" font-family="Helvetica,sans-Serif" font-size="10.00">enter_parent_page_cb</text>
</a>
</g>
</g>
<!-- Node6&#45;&gt;Node8 -->
<g id="edge7_Node000006_Node000008" class="edge">
<title>Node6&#45;&gt;Node8</title>
<g id="a_edge7_Node000006_Node000008"><a xlink:title=" ">
<path fill="none" stroke="#63b8ff" d="M347.87,-49.38C355.89,-49.38 364.07,-49.38 372.11,-49.38"/>
<polygon fill="#63b8ff" stroke="#63b8ff" points="371.84,-52.88 381.84,-49.38 371.84,-45.88 371.84,-52.88"/>
</a>
</g>
</g>
<!-- Node12 -->
<g id="Node000012" class="node">
<title>Node12</title>
<g id="a_Node000012"><a xlink:href="$m__button_8c.html#a0a450528cdcddd6650fee0ae3cfc14d2" xlink:title=" ">
<polygon fill="white" stroke="#666666" points="482.25,-20.75 409.25,-20.75 409.25,0 482.25,0 482.25,-20.75"/>
<text xml:space="preserve" text-anchor="middle" x="445.75" y="-7.25" font-family="Helvetica,sans-Serif" font-size="10.00">new_button</text>
</a>
</g>
</g>
<!-- Node6&#45;&gt;Node12 -->
<g id="edge9_Node000006_Node000012" class="edge">
<title>Node6&#45;&gt;Node12</title>
<g id="a_edge9_Node000006_Node000012"><a xlink:title=" ">
<path fill="none" stroke="#63b8ff" d="M324,-38.51C347.11,-33.13 374.94,-26.64 398.06,-21.25"/>
<polygon fill="#63b8ff" stroke="#63b8ff" points="398.57,-24.73 407.51,-19.05 396.98,-17.91 398.57,-24.73"/>
</a>
</g>
</g>
<!-- Node9 -->
<g id="Node000009" class="node">
<title>Node9</title>
<g id="a_Node000009"><a xlink:href="$m__ui_8c.html#ac3fd93d055094ed9bd458eb283af7c04" xlink:title=" ">
<polygon fill="#fff0f0" stroke="red" points="686.5,-59.75 543.75,-59.75 543.75,-39 686.5,-39 686.5,-59.75"/>
<text xml:space="preserve" text-anchor="middle" x="615.12" y="-46.25" font-family="Helvetica,sans-Serif" font-size="10.00">enter_ui_page_backwards</text>
</a>
</g>
</g>
<!-- Node8&#45;&gt;Node9 -->
<g id="edge8_Node000008_Node000009" class="edge">
<title>Node8&#45;&gt;Node9</title>
<g id="a_edge8_Node000008_Node000009"><a xlink:title=" ">
<path fill="none" stroke="#63b8ff" d="M508.12,-49.38C515.92,-49.38 524,-49.38 532.06,-49.38"/>
<polygon fill="#63b8ff" stroke="#63b8ff" points="531.9,-52.88 541.9,-49.38 531.9,-45.88 531.9,-52.88"/>
</a>
</g>
</g>
<!-- Node13 -->
<g id="Node000013" class="node">
<title>Node13</title>
<g id="a_Node000013"><a xlink:href="$m__button_8c.html#a258b9a4b93506db006c3e2cbe4483d45" xlink:title=" ">
<polygon fill="white" stroke="#666666" points="649.38,-20.75 580.88,-20.75 580.88,0 649.38,0 649.38,-20.75"/>
<text xml:space="preserve" text-anchor="middle" x="615.12" y="-7.25" font-family="Helvetica,sans-Serif" font-size="10.00">init_button</text>
</a>
</g>
</g>
<!-- Node12&#45;&gt;Node13 -->
<g id="edge10_Node000012_Node000013" class="edge">
<title>Node12&#45;&gt;Node13</title>
<g id="a_edge10_Node000012_Node000013"><a xlink:title=" ">
<path fill="none" stroke="#63b8ff" d="M482.66,-10.38C508.04,-10.38 542.24,-10.38 569.4,-10.38"/>
<polygon fill="#63b8ff" stroke="#63b8ff" points="569.04,-13.88 579.04,-10.38 569.04,-6.88 569.04,-13.88"/>
</a>
</g>
</g>
</g>
</svg>
