<?xml version="1.0" encoding="UTF-8" standalone="no"?>
<!DOCTYPE svg PUBLIC "-//W3C//DTD SVG 1.1//EN"
 "http://www.w3.org/Graphics/SVG/1.1/DTD/svg11.dtd">
<!-- Generated by graphviz version 13.1.2 (20250808.2320)
 -->
<!-- Title: new_m_expression_const Pages: 1 -->
<svg width="871pt" height="107pt"
 viewBox="0.00 0.00 871.00 107.00" xmlns="http://www.w3.org/2000/svg" xmlns:xlink="http://www.w3.org/1999/xlink">
<g id="graph0" class="graph" transform="scale(1 1) rotate(0) translate(4 102.75)">
<title>new_m_expression_const</title>
<!-- Node1 -->
<g id="Node000001" class="node">
<title>Node1</title>
<g id="a_Node000001"><a xlink:title=" ">
<polygon fill="#999999" stroke="#666666" points="862.5,-72.75 721.25,-72.75 721.25,-52 862.5,-52 862.5,-72.75"/>
<text xml:space="preserve" text-anchor="middle" x="791.88" y="-59.25" font-family="Helvetica,sans-Serif" font-size="10.00">new_m_expression_const</text>
</a>
</g>
</g>
<!-- Node2 -->
<g id="Node000002" class="node">
<title>Node2</title>
<g id="a_Node000002"><a xlink:href="m__asm__parser_8c.html#a8a2db427fde0f1ea987235306f3c4582" target="_top" xlink:title=" ">
<polygon fill="white" stroke="#666666" points="380.25,-98.75 263.75,-98.75 263.75,-78 380.25,-78 380.25,-98.75"/>
<text xml:space="preserve" text-anchor="middle" x="322" y="-85.25" font-family="Helvetica,sans-Serif" font-size="10.00">m_parse_asm_arg_2</text>
</a>
</g>
</g>
<!-- Node1&#45;&gt;Node2 -->
<g id="edge1_Node000001_Node000002" class="edge">
<title>Node1&#45;&gt;Node2</title>
<g id="a_edge1_Node000001_Node000002"><a xlink:title=" ">
<path fill="none" stroke="#63b8ff" d="M709.62,-73.09C701.4,-73.96 693.16,-74.75 685.25,-75.38 577.82,-83.9 452.02,-86.84 380.5,-87.85"/>
<polygon fill="#63b8ff" stroke="#63b8ff" points="709.73,-76.6 719.29,-72.03 708.97,-69.65 709.73,-76.6"/>
</a>
</g>
</g>
<!-- Node12 -->
<g id="Node000012" class="node">
<title>Node12</title>
<g id="a_Node000012"><a xlink:href="m__expr__parser_8c.html#a45b4bb314bb1c677680ca37595ea8281" target="_top" xlink:title=" ">
<polygon fill="white" stroke="#666666" points="685.25,-48.12 568.75,-48.12 568.75,-14.62 685.25,-14.62 685.25,-48.12"/>
<text xml:space="preserve" text-anchor="start" x="576.75" y="-34.62" font-family="Helvetica,sans-Serif" font-size="10.00">m_parse_expression</text>
<text xml:space="preserve" text-anchor="middle" x="627" y="-21.88" font-family="Helvetica,sans-Serif" font-size="10.00">_rec_pratt</text>
</a>
</g>
</g>
<!-- Node1&#45;&gt;Node12 -->
<g id="edge4_Node000001_Node000012" class="edge">
<title>Node1&#45;&gt;Node12</title>
<g id="a_edge4_Node000001_Node000012"><a xlink:title=" ">
<path fill="none" stroke="#63b8ff" d="M722.69,-49.4C710.32,-47.04 697.52,-44.61 685.48,-42.32"/>
<polygon fill="#63b8ff" stroke="#63b8ff" points="721.94,-52.82 732.42,-51.25 723.25,-45.94 721.94,-52.82"/>
</a>
</g>
</g>
<!-- Node3 -->
<g id="Node000003" class="node">
<title>Node3</title>
<g id="a_Node000003"><a xlink:href="m__asm__parser_8c.html#a4aedb000c36b17f7c669cb76938cfef3" target="_top" xlink:title=" ">
<polygon fill="white" stroke="#666666" points="227.75,-78.75 120.25,-78.75 120.25,-58 227.75,-58 227.75,-78.75"/>
<text xml:space="preserve" text-anchor="middle" x="174" y="-65.25" font-family="Helvetica,sans-Serif" font-size="10.00">m_parse_asm_line</text>
</a>
</g>
</g>
<!-- Node2&#45;&gt;Node3 -->
<g id="edge2_Node000002_Node000003" class="edge">
<title>Node2&#45;&gt;Node3</title>
<g id="a_edge2_Node000002_Node000003"><a xlink:title=" ">
<path fill="none" stroke="#63b8ff" d="M251.99,-78.92C243.93,-77.82 235.81,-76.7 228.01,-75.64"/>
<polygon fill="#63b8ff" stroke="#63b8ff" points="251.41,-82.38 261.8,-80.27 252.36,-75.44 251.41,-82.38"/>
</a>
</g>
</g>
<!-- Node4 -->
<g id="Node000004" class="node">
<title>Node4</title>
<g id="a_Node000004"><a xlink:href="m__asm__parser_8c.html#a6c6e6f0ed299cdac1ba62cb178fea161" target="_top" xlink:title=" ">
<polygon fill="#fff0f0" stroke="red" points="84.25,-78.75 0,-78.75 0,-58 84.25,-58 84.25,-78.75"/>
<text xml:space="preserve" text-anchor="middle" x="42.12" y="-65.25" font-family="Helvetica,sans-Serif" font-size="10.00">m_parse_asm</text>
</a>
</g>
</g>
<!-- Node3&#45;&gt;Node4 -->
<g id="edge3_Node000003_Node000004" class="edge">
<title>Node3&#45;&gt;Node4</title>
<g id="a_edge3_Node000003_Node000004"><a xlink:title=" ">
<path fill="none" stroke="#63b8ff" d="M108.38,-68.38C100.26,-68.38 92.14,-68.38 84.51,-68.38"/>
<polygon fill="#63b8ff" stroke="#63b8ff" points="108.29,-71.88 118.29,-68.38 108.29,-64.88 108.29,-71.88"/>
</a>
</g>
</g>
<!-- Node12&#45;&gt;Node12 -->
<g id="edge10_Node000012_Node000012" class="edge">
<title>Node12&#45;&gt;Node12</title>
<g id="a_edge10_Node000012_Node000012"><a xlink:title=" ">
<path fill="none" stroke="#63b8ff" d="M652.25,-59.84C647.96,-63.62 639.54,-66.12 627,-66.12 604.07,-66.12 594.93,-57.74 599.59,-48.54"/>
<polygon fill="#63b8ff" stroke="#63b8ff" points="655.68,-60.51 654.13,-50.03 648.81,-59.19 655.68,-60.51"/>
</a>
</g>
</g>
<!-- Node13 -->
<g id="Node000013" class="node">
<title>Node13</title>
<g id="a_Node000013"><a xlink:href="m__expr__parser_8c.html#af2a49578710f5e5b4f4c3339992ba0c9" target="_top" xlink:title=" ">
<polygon fill="white" stroke="#666666" points="532.75,-53.75 416.25,-53.75 416.25,-33 532.75,-33 532.75,-53.75"/>
<text xml:space="preserve" text-anchor="middle" x="474.5" y="-40.25" font-family="Helvetica,sans-Serif" font-size="10.00">m_parse_expression</text>
</a>
</g>
</g>
<!-- Node12&#45;&gt;Node13 -->
<g id="edge5_Node000012_Node000013" class="edge">
<title>Node12&#45;&gt;Node13</title>
<g id="a_edge5_Node000012_Node000013"><a xlink:title=" ">
<path fill="none" stroke="#63b8ff" d="M557.35,-36.85C549.27,-37.49 541.08,-38.15 533.17,-38.78"/>
<polygon fill="#63b8ff" stroke="#63b8ff" points="557.47,-40.35 567.16,-36.07 556.92,-33.37 557.47,-40.35"/>
</a>
</g>
</g>
<!-- Node13&#45;&gt;Node2 -->
<g id="edge8_Node000013_Node000002" class="edge">
<title>Node13&#45;&gt;Node2</title>
<g id="a_edge8_Node000013_Node000002"><a xlink:title=" ">
<path fill="none" stroke="#63b8ff" d="M426.49,-57.43C404.8,-63.92 379.46,-71.49 359.28,-77.53"/>
<polygon fill="#63b8ff" stroke="#63b8ff" points="427.42,-60.81 436,-54.59 425.42,-54.1 427.42,-60.81"/>
</a>
</g>
</g>
<!-- Node14 -->
<g id="Node000014" class="node">
<title>Node14</title>
<g id="a_Node000014"><a xlink:href="m__asm__parser_8c.html#ab379f2b6380b7d71195063b385d00b81" target="_top" xlink:title=" ">
<polygon fill="white" stroke="#666666" points="374.62,-59.75 269.38,-59.75 269.38,-39 374.62,-39 374.62,-59.75"/>
<text xml:space="preserve" text-anchor="middle" x="322" y="-46.25" font-family="Helvetica,sans-Serif" font-size="10.00">m_parse_asm_arg</text>
</a>
</g>
</g>
<!-- Node13&#45;&gt;Node14 -->
<g id="edge6_Node000013_Node000014" class="edge">
<title>Node13&#45;&gt;Node14</title>
<g id="a_edge6_Node000013_Node000014"><a xlink:title=" ">
<path fill="none" stroke="#63b8ff" d="M404.85,-46.11C394.73,-46.52 384.44,-46.93 374.74,-47.31"/>
<polygon fill="#63b8ff" stroke="#63b8ff" points="404.81,-49.62 414.66,-45.72 404.53,-42.62 404.81,-49.62"/>
</a>
</g>
</g>
<!-- Node15 -->
<g id="Node000015" class="node">
<title>Node15</title>
<g id="a_Node000015"><a xlink:href="m__dictionary_8c.html#aab1bb060fb0ff389ff2712d91ef17634" target="_top" xlink:title=" ">
<polygon fill="#fff0f0" stroke="red" points="372.75,-20.75 271.25,-20.75 271.25,0 372.75,0 372.75,-20.75"/>
<text xml:space="preserve" text-anchor="middle" x="322" y="-7.25" font-family="Helvetica,sans-Serif" font-size="10.00">m_parse_dict_val</text>
</a>
</g>
</g>
<!-- Node13&#45;&gt;Node15 -->
<g id="edge9_Node000013_Node000015" class="edge">
<title>Node13&#45;&gt;Node15</title>
<g id="a_edge9_Node000013_Node000015"><a xlink:title=" ">
<path fill="none" stroke="#63b8ff" d="M413.07,-30.12C399.56,-27.16 385.39,-24.06 372.39,-21.2"/>
<polygon fill="#63b8ff" stroke="#63b8ff" points="412.22,-33.52 422.74,-32.25 413.72,-26.68 412.22,-33.52"/>
</a>
</g>
</g>
<!-- Node14&#45;&gt;Node3 -->
<g id="edge7_Node000014_Node000003" class="edge">
<title>Node14&#45;&gt;Node3</title>
<g id="a_edge7_Node000014_Node000003"><a xlink:title=" ">
<path fill="none" stroke="#63b8ff" d="M257.71,-57.61C247.87,-58.89 237.79,-60.2 228.2,-61.45"/>
<polygon fill="#63b8ff" stroke="#63b8ff" points="258.15,-61.08 267.61,-56.32 257.25,-54.14 258.15,-61.08"/>
</a>
</g>
</g>
</g>
</svg>
