<?xml version="1.0" encoding="UTF-8" standalone="no"?>
<!DOCTYPE svg PUBLIC "-//W3C//DTD SVG 1.1//EN"
 "http://www.w3.org/Graphics/SVG/1.1/DTD/svg11.dtd">
<!-- Generated by graphviz version 13.1.2 (20250808.2320)
 -->
<!-- Title: m_expression_form Pages: 1 -->
<svg width="626pt" height="150pt"
 viewBox="0.00 0.00 626.00 150.00" xmlns="http://www.w3.org/2000/svg" xmlns:xlink="http://www.w3.org/1999/xlink">
<g id="graph0" class="graph" transform="scale(1 1) rotate(0) translate(4 146.12)">
<title>m_expression_form</title>
<!-- Node1 -->
<g id="Node000001" class="node">
<title>Node1</title>
<g id="a_Node000001"><a xlink:title=" ">
<polygon fill="#999999" stroke="#666666" points="617.5,-84.75 504.75,-84.75 504.75,-64 617.5,-64 617.5,-84.75"/>
<text xml:space="preserve" text-anchor="middle" x="561.12" y="-71.25" font-family="Helvetica,sans-Serif" font-size="10.00">m_expression_form</text>
</a>
</g>
</g>
<!-- Node2 -->
<g id="Node000002" class="node">
<title>Node2</title>
<g id="a_Node000002"><a xlink:href="m__expression_8c.html#a1ee68e33366bb85718df8d2a70a70c0c" target="_top" xlink:title=" ">
<polygon fill="white" stroke="#666666" points="468.75,-84.75 336.5,-84.75 336.5,-64 468.75,-64 468.75,-84.75"/>
<text xml:space="preserve" text-anchor="middle" x="402.62" y="-71.25" font-family="Helvetica,sans-Serif" font-size="10.00">m_expression_print_rec</text>
</a>
</g>
</g>
<!-- Node1&#45;&gt;Node2 -->
<g id="edge1_Node000001_Node000002" class="edge">
<title>Node1&#45;&gt;Node2</title>
<g id="a_edge1_Node000001_Node000002"><a xlink:title=" ">
<path fill="none" stroke="#63b8ff" d="M493.08,-74.38C485.17,-74.38 477.11,-74.38 469.23,-74.38"/>
<polygon fill="#63b8ff" stroke="#63b8ff" points="492.99,-77.88 502.99,-74.38 492.99,-70.88 492.99,-77.88"/>
</a>
</g>
</g>
<!-- Node2&#45;&gt;Node2 -->
<g id="edge3_Node000002_Node000002" class="edge">
<title>Node2&#45;&gt;Node2</title>
<g id="a_edge3_Node000002_Node000002"><a xlink:title=" ">
<path fill="none" stroke="#63b8ff" d="M430.52,-96.24C426.82,-100.08 417.52,-102.75 402.62,-102.75 375.38,-102.75 366.87,-93.81 377.09,-85.15"/>
<polygon fill="#63b8ff" stroke="#63b8ff" points="433.98,-95.68 428.48,-86.63 427.13,-97.14 433.98,-95.68"/>
</a>
</g>
</g>
<!-- Node3 -->
<g id="Node000003" class="node">
<title>Node3</title>
<g id="a_Node000003"><a xlink:href="m__expression_8c.html#a2a460e78f8599d0047d59a5cfcf80fb5" target="_top" xlink:title=" ">
<polygon fill="white" stroke="#666666" points="290.38,-104.75 178.38,-104.75 178.38,-84 290.38,-84 290.38,-104.75"/>
<text xml:space="preserve" text-anchor="middle" x="234.38" y="-91.25" font-family="Helvetica,sans-Serif" font-size="10.00">m_expression_print</text>
</a>
</g>
</g>
<!-- Node2&#45;&gt;Node3 -->
<g id="edge2_Node000002_Node000003" class="edge">
<title>Node2&#45;&gt;Node3</title>
<g id="a_edge2_Node000002_Node000003"><a xlink:title=" ">
<path fill="none" stroke="#63b8ff" d="M325.31,-83.56C313.66,-84.96 301.82,-86.38 290.74,-87.72"/>
<polygon fill="#63b8ff" stroke="#63b8ff" points="325.38,-87.07 334.89,-82.4 324.55,-80.12 325.38,-87.07"/>
</a>
</g>
</g>
<!-- Node4 -->
<g id="Node000004" class="node">
<title>Node4</title>
<g id="a_Node000004"><a xlink:href="m__expression_8c.html#a5fa3c8040149c5d068c467280dfd0d68" target="_top" xlink:title=" ">
<polygon fill="white" stroke="#666666" points="300.5,-65.75 168.25,-65.75 168.25,-45 300.5,-45 300.5,-65.75"/>
<text xml:space="preserve" text-anchor="middle" x="234.38" y="-52.25" font-family="Helvetica,sans-Serif" font-size="10.00">m_expression_to_string</text>
</a>
</g>
</g>
<!-- Node2&#45;&gt;Node4 -->
<g id="edge4_Node000002_Node000004" class="edge">
<title>Node2&#45;&gt;Node4</title>
<g id="a_edge4_Node000002_Node000004"><a xlink:title=" ">
<path fill="none" stroke="#63b8ff" d="M325.09,-65.63C317.03,-64.71 308.88,-63.78 300.96,-62.87"/>
<polygon fill="#63b8ff" stroke="#63b8ff" points="324.56,-69.09 334.89,-66.75 325.35,-62.14 324.56,-69.09"/>
</a>
</g>
</g>
<!-- Node5 -->
<g id="Node000005" class="node">
<title>Node5</title>
<g id="a_Node000005"><a xlink:href="m__expression_8c.html#aec31d5d4509024a0830a2ac448ac7d21" target="_top" xlink:title=" ">
<polygon fill="#fff0f0" stroke="red" points="132.25,-124.12 0,-124.12 0,-90.62 132.25,-90.62 132.25,-124.12"/>
<text xml:space="preserve" text-anchor="start" x="8" y="-110.62" font-family="Helvetica,sans-Serif" font-size="10.00">m_expression_compute</text>
<text xml:space="preserve" text-anchor="middle" x="66.12" y="-97.88" font-family="Helvetica,sans-Serif" font-size="10.00">_range_rec</text>
</a>
</g>
</g>
<!-- Node4&#45;&gt;Node5 -->
<g id="edge5_Node000004_Node000005" class="edge">
<title>Node4&#45;&gt;Node5</title>
<g id="a_edge5_Node000004_Node000005"><a xlink:title=" ">
<path fill="none" stroke="#63b8ff" d="M187.27,-69.48C180.88,-71.45 174.4,-73.46 168.25,-75.38 152.96,-80.14 136.38,-85.37 121.15,-90.18"/>
<polygon fill="#63b8ff" stroke="#63b8ff" points="187.89,-72.95 196.42,-66.66 185.83,-66.26 187.89,-72.95"/>
</a>
</g>
</g>
<!-- Node13 -->
<g id="Node000013" class="node">
<title>Node13</title>
<g id="a_Node000013"><a xlink:href="m__dict__extract_8c.html#a512a86a4320cc6c6530498bce7242815" target="_top" xlink:title=" ">
<polygon fill="#fff0f0" stroke="red" points="127,-72.12 5.25,-72.12 5.25,-38.62 127,-38.62 127,-72.12"/>
<text xml:space="preserve" text-anchor="start" x="13.25" y="-58.62" font-family="Helvetica,sans-Serif" font-size="10.00">m_extract_parameter</text>
<text xml:space="preserve" text-anchor="middle" x="66.12" y="-45.88" font-family="Helvetica,sans-Serif" font-size="10.00">_from_dict</text>
</a>
</g>
</g>
<!-- Node4&#45;&gt;Node13 -->
<g id="edge7_Node000004_Node000013" class="edge">
<title>Node4&#45;&gt;Node13</title>
<g id="a_edge7_Node000004_Node000013"><a xlink:title=" ">
<path fill="none" stroke="#63b8ff" d="M156.66,-55.38C146.81,-55.38 136.83,-55.38 127.29,-55.38"/>
<polygon fill="#63b8ff" stroke="#63b8ff" points="156.63,-58.88 166.63,-55.38 156.63,-51.88 156.63,-58.88"/>
</a>
</g>
</g>
<!-- Node16 -->
<g id="Node000016" class="node">
<title>Node16</title>
<g id="a_Node000016"><a xlink:href="m__asm__parser_8c.html#a4aedb000c36b17f7c669cb76938cfef3" target="_top" xlink:title=" ">
<polygon fill="#fff0f0" stroke="red" points="119.88,-20.75 12.38,-20.75 12.38,0 119.88,0 119.88,-20.75"/>
<text xml:space="preserve" text-anchor="middle" x="66.12" y="-7.25" font-family="Helvetica,sans-Serif" font-size="10.00">m_parse_asm_line</text>
</a>
</g>
</g>
<!-- Node4&#45;&gt;Node16 -->
<g id="edge8_Node000004_Node000016" class="edge">
<title>Node4&#45;&gt;Node16</title>
<g id="a_edge8_Node000004_Node000016"><a xlink:title=" ">
<path fill="none" stroke="#63b8ff" d="M182.76,-41.68C158.52,-35.11 129.9,-27.37 107.2,-21.22"/>
<polygon fill="#63b8ff" stroke="#63b8ff" points="181.53,-44.97 192.09,-44.2 183.35,-38.21 181.53,-44.97"/>
</a>
</g>
</g>
<!-- Node5&#45;&gt;Node5 -->
<g id="edge6_Node000005_Node000005" class="edge">
<title>Node5&#45;&gt;Node5</title>
<g id="a_edge6_Node000005_Node000005"><a xlink:title=" ">
<path fill="none" stroke="#63b8ff" d="M94.38,-135.51C89.77,-139.47 80.36,-142.12 66.12,-142.12 40.82,-142.12 30.74,-133.74 35.88,-124.54"/>
<polygon fill="#63b8ff" stroke="#63b8ff" points="97.75,-136.49 96.1,-126.03 90.87,-135.24 97.75,-136.49"/>
</a>
</g>
</g>
</g>
</svg>
