<?xml version="1.0" encoding="UTF-8" standalone="no"?>
<!DOCTYPE svg PUBLIC "-//W3C//DTD SVG 1.1//EN"
 "http://www.w3.org/Graphics/SVG/1.1/DTD/svg11.dtd">
<!-- Generated by graphviz version 13.1.2 (20250808.2320)
 -->
<!-- Title: m_effect_update_fpga_registers Pages: 1 -->
<svg width="985pt" height="222pt"
 viewBox="0.00 0.00 985.00 222.00" xmlns="http://www.w3.org/2000/svg" xmlns:xlink="http://www.w3.org/1999/xlink">
<g id="graph0" class="graph" transform="scale(1 1) rotate(0) translate(4 218.12)">
<title>m_effect_update_fpga_registers</title>
<!-- Node1 -->
<g id="Node000001" class="node">
<title>Node1</title>
<g id="a_Node000001"><a xlink:title=" ">
<polygon fill="#999999" stroke="#666666" points="125.5,-85.5 0,-85.5 0,-52 125.5,-52 125.5,-85.5"/>
<text xml:space="preserve" text-anchor="start" x="8" y="-72" font-family="Helvetica,sans-Serif" font-size="10.00">m_effect_update_fpga</text>
<text xml:space="preserve" text-anchor="middle" x="62.75" y="-59.25" font-family="Helvetica,sans-Serif" font-size="10.00">_registers</text>
</a>
</g>
</g>
<!-- Node2 -->
<g id="Node000002" class="node">
<title>Node2</title>
<g id="a_Node000002"><a xlink:href="$m__fpga__encoding_8c.html#a5183f2cf6a8e0e0698d47921aff5f3bb" xlink:title=" ">
<polygon fill="white" stroke="#666666" points="296,-149.88 162.25,-149.88 162.25,-103.62 296,-103.62 296,-149.88"/>
<text xml:space="preserve" text-anchor="start" x="170.25" y="-136.38" font-family="Helvetica,sans-Serif" font-size="10.00">m_fpga_effectfer_batch</text>
<text xml:space="preserve" text-anchor="start" x="170.25" y="-123.62" font-family="Helvetica,sans-Serif" font-size="10.00">_append_effect_register</text>
<text xml:space="preserve" text-anchor="middle" x="229.12" y="-110.88" font-family="Helvetica,sans-Serif" font-size="10.00">_updates</text>
</a>
</g>
</g>
<!-- Node1&#45;&gt;Node2 -->
<g id="edge1_Node000001_Node000002" class="edge">
<title>Node1&#45;&gt;Node2</title>
<g id="a_edge1_Node000001_Node000002"><a xlink:title=" ">
<path fill="none" stroke="#63b8ff" d="M112.62,-85.99C124.79,-90.29 138.14,-95 151.3,-99.64"/>
<polygon fill="#63b8ff" stroke="#63b8ff" points="149.77,-102.81 160.36,-102.84 152.1,-96.21 149.77,-102.81"/>
</a>
</g>
</g>
<!-- Node9 -->
<g id="Node000009" class="node">
<title>Node9</title>
<g id="a_Node000009"><a xlink:href="$m__fpga__comms_8c.html#a095489e9bb6faf9d8f7b329cd74a02dd" xlink:title=" ">
<polygon fill="white" stroke="#666666" points="296.75,-85.5 161.5,-85.5 161.5,-52 296.75,-52 296.75,-85.5"/>
<text xml:space="preserve" text-anchor="start" x="169.5" y="-72" font-family="Helvetica,sans-Serif" font-size="10.00">m_fpga_queue_effectfer</text>
<text xml:space="preserve" text-anchor="middle" x="229.12" y="-59.25" font-family="Helvetica,sans-Serif" font-size="10.00">_batch</text>
</a>
</g>
</g>
<!-- Node1&#45;&gt;Node9 -->
<g id="edge11_Node000001_Node000009" class="edge">
<title>Node1&#45;&gt;Node9</title>
<g id="a_edge11_Node000001_Node000009"><a xlink:title=" ">
<path fill="none" stroke="#63b8ff" d="M125.89,-68.75C133.74,-68.75 141.85,-68.75 149.9,-68.75"/>
<polygon fill="#63b8ff" stroke="#63b8ff" points="149.71,-72.25 159.71,-68.75 149.71,-65.25 149.71,-72.25"/>
</a>
</g>
</g>
<!-- Node10 -->
<g id="Node000010" class="node">
<title>Node10</title>
<g id="a_Node000010"><a xlink:href="$m__fpga__io_8c.html#a18d0c352c1d32250c28ba832940c0e15" xlink:title=" ">
<polygon fill="white" stroke="#666666" points="291.88,-33.5 166.38,-33.5 166.38,0 291.88,0 291.88,-33.5"/>
<text xml:space="preserve" text-anchor="start" x="174.38" y="-20" font-family="Helvetica,sans-Serif" font-size="10.00">m_new_fpga_effectfer</text>
<text xml:space="preserve" text-anchor="middle" x="229.12" y="-7.25" font-family="Helvetica,sans-Serif" font-size="10.00">_batch</text>
</a>
</g>
</g>
<!-- Node1&#45;&gt;Node10 -->
<g id="edge12_Node000001_Node000010" class="edge">
<title>Node1&#45;&gt;Node10</title>
<g id="a_edge12_Node000001_Node000010"><a xlink:title=" ">
<path fill="none" stroke="#63b8ff" d="M118.03,-51.58C132.4,-47.03 148.07,-42.08 162.95,-37.37"/>
<polygon fill="#63b8ff" stroke="#63b8ff" points="163.7,-40.8 172.18,-34.45 161.59,-34.13 163.7,-40.8"/>
</a>
</g>
</g>
<!-- Node3 -->
<g id="Node000003" class="node">
<title>Node3</title>
<g id="a_Node000003"><a xlink:href="$m__fpga__encoding_8c.html#a04f6a5ee57ab1862708b1969e89ae756" xlink:title=" ">
<polygon fill="white" stroke="#666666" points="467.25,-143.5 332.75,-143.5 332.75,-110 467.25,-110 467.25,-143.5"/>
<text xml:space="preserve" text-anchor="start" x="340.75" y="-130" font-family="Helvetica,sans-Serif" font-size="10.00">m_fpga_batch_append</text>
<text xml:space="preserve" text-anchor="middle" x="400" y="-117.25" font-family="Helvetica,sans-Serif" font-size="10.00">_block_register_updates</text>
</a>
</g>
</g>
<!-- Node2&#45;&gt;Node3 -->
<g id="edge2_Node000002_Node000003" class="edge">
<title>Node2&#45;&gt;Node3</title>
<g id="a_edge2_Node000002_Node000003"><a xlink:title=" ">
<path fill="none" stroke="#63b8ff" d="M296.38,-126.75C304.42,-126.75 312.69,-126.75 320.88,-126.75"/>
<polygon fill="#63b8ff" stroke="#63b8ff" points="320.86,-130.25 330.86,-126.75 320.86,-123.25 320.86,-130.25"/>
</a>
</g>
</g>
<!-- Node4 -->
<g id="Node000004" class="node">
<title>Node4</title>
<g id="a_Node000004"><a xlink:href="$m__fpga__io_8c.html#ac4ecd8804864719b441aab2f560c654d" xlink:title=" ">
<polygon fill="white" stroke="#666666" points="625.38,-214.12 513.38,-214.12 513.38,-193.38 625.38,-193.38 625.38,-214.12"/>
<text xml:space="preserve" text-anchor="middle" x="569.38" y="-200.62" font-family="Helvetica,sans-Serif" font-size="10.00">float_to_q_nminus1</text>
</a>
</g>
</g>
<!-- Node3&#45;&gt;Node4 -->
<g id="edge3_Node000003_Node000004" class="edge">
<title>Node3&#45;&gt;Node4</title>
<g id="a_edge3_Node000003_Node000004"><a xlink:title=" ">
<path fill="none" stroke="#63b8ff" d="M427.98,-143.86C448.15,-156.13 476.71,-172.43 503.25,-183.75 507.84,-185.71 512.69,-187.57 517.58,-189.3"/>
<polygon fill="#63b8ff" stroke="#63b8ff" points="516.26,-192.55 526.86,-192.41 518.49,-185.91 516.26,-192.55"/>
</a>
</g>
</g>
<!-- Node5 -->
<g id="Node000005" class="node">
<title>Node5</title>
<g id="a_Node000005"><a xlink:href="$m__expression_8c.html#a0938d229ef0ec131b65241e93dc6166d" xlink:title=" ">
<polygon fill="white" stroke="#666666" points="635.5,-175.12 503.25,-175.12 503.25,-154.38 635.5,-154.38 635.5,-175.12"/>
<text xml:space="preserve" text-anchor="middle" x="569.38" y="-161.62" font-family="Helvetica,sans-Serif" font-size="10.00">m_expression_evaluate</text>
</a>
</g>
</g>
<!-- Node3&#45;&gt;Node5 -->
<g id="edge4_Node000003_Node000005" class="edge">
<title>Node3&#45;&gt;Node5</title>
<g id="a_edge4_Node000003_Node000005"><a xlink:title=" ">
<path fill="none" stroke="#63b8ff" d="M467.63,-141.88C481.45,-145.01 495.91,-148.3 509.43,-151.37"/>
<polygon fill="#63b8ff" stroke="#63b8ff" points="508.53,-154.75 519.05,-153.55 510.08,-147.93 508.53,-154.75"/>
</a>
</g>
</g>
<!-- Node6 -->
<g id="Node000006" class="node">
<title>Node6</title>
<g id="a_Node000006"><a xlink:href="$m__fpga__io_8c.html#a79d3271b8a45d157eb1d205c3a9cfbfa" xlink:title=" ">
<polygon fill="white" stroke="#666666" points="977.25,-96.12 851,-96.12 851,-75.38 977.25,-75.38 977.25,-96.12"/>
<text xml:space="preserve" text-anchor="middle" x="914.12" y="-82.62" font-family="Helvetica,sans-Serif" font-size="10.00">m_fpga_batch_append</text>
</a>
</g>
</g>
<!-- Node3&#45;&gt;Node6 -->
<g id="edge5_Node000003_Node000006" class="edge">
<title>Node3&#45;&gt;Node6</title>
<g id="a_edge5_Node000003_Node000006"><a xlink:title=" ">
<path fill="none" stroke="#63b8ff" d="M467.57,-126.04C549.58,-124.51 693.02,-119.73 815,-104.75 827.33,-103.24 840.44,-101.08 852.92,-98.77"/>
<polygon fill="#63b8ff" stroke="#63b8ff" points="853.52,-102.22 862.69,-96.89 852.21,-95.34 853.52,-102.22"/>
</a>
</g>
</g>
<!-- Node7 -->
<g id="Node000007" class="node">
<title>Node7</title>
<g id="a_Node000007"><a xlink:href="$m__fpga__io_8c.html#a48b1c2910a47990f4f72059b8bc66cd4" xlink:title=" ">
<polygon fill="white" stroke="#666666" points="815,-96.12 671.5,-96.12 671.5,-75.38 815,-75.38 815,-96.12"/>
<text xml:space="preserve" text-anchor="middle" x="743.25" y="-82.62" font-family="Helvetica,sans-Serif" font-size="10.00">m_fpga_batch_append_16</text>
</a>
</g>
</g>
<!-- Node3&#45;&gt;Node7 -->
<g id="edge6_Node000003_Node000007" class="edge">
<title>Node3&#45;&gt;Node7</title>
<g id="a_edge6_Node000003_Node000007"><a xlink:title=" ">
<path fill="none" stroke="#63b8ff" d="M467.52,-117.41C479.41,-115.81 491.69,-114.19 503.25,-112.75 555.2,-106.26 613.59,-99.65 659.65,-94.6"/>
<polygon fill="#63b8ff" stroke="#63b8ff" points="660.02,-98.08 669.58,-93.51 659.26,-91.12 660.02,-98.08"/>
</a>
</g>
</g>
<!-- Node8 -->
<g id="Node000008" class="node">
<title>Node8</title>
<g id="a_Node000008"><a xlink:href="$m__fpga__encoding_8c.html#a80502fb9fa038201d7ada3b2b183130a" xlink:title=" ">
<polygon fill="white" stroke="#666666" points="632.5,-60.5 506.25,-60.5 506.25,-27 632.5,-27 632.5,-60.5"/>
<text xml:space="preserve" text-anchor="start" x="514.25" y="-47" font-family="Helvetica,sans-Serif" font-size="10.00">m_fpga_batch_append</text>
<text xml:space="preserve" text-anchor="middle" x="569.38" y="-34.25" font-family="Helvetica,sans-Serif" font-size="10.00">_block_number</text>
</a>
</g>
</g>
<!-- Node3&#45;&gt;Node8 -->
<g id="edge8_Node000003_Node000008" class="edge">
<title>Node3&#45;&gt;Node8</title>
<g id="a_edge8_Node000003_Node000008"><a xlink:title=" ">
<path fill="none" stroke="#63b8ff" d="M434.05,-109.67C454.02,-99.41 480.02,-86.18 503.25,-74.75 509.15,-71.85 515.37,-68.83 521.54,-65.86"/>
<polygon fill="#63b8ff" stroke="#63b8ff" points="522.91,-69.09 530.42,-61.61 519.89,-62.77 522.91,-69.09"/>
</a>
</g>
</g>
<!-- Node7&#45;&gt;Node6 -->
<g id="edge7_Node000007_Node000006" class="edge">
<title>Node7&#45;&gt;Node6</title>
<g id="a_edge7_Node000007_Node000006"><a xlink:title=" ">
<path fill="none" stroke="#63b8ff" d="M815.38,-85.75C823.25,-85.75 831.28,-85.75 839.19,-85.75"/>
<polygon fill="#63b8ff" stroke="#63b8ff" points="839.14,-89.25 849.14,-85.75 839.14,-82.25 839.14,-89.25"/>
</a>
</g>
</g>
<!-- Node8&#45;&gt;Node6 -->
<g id="edge9_Node000008_Node000006" class="edge">
<title>Node8&#45;&gt;Node6</title>
<g id="a_edge9_Node000008_Node000006"><a xlink:title=" ">
<path fill="none" stroke="#63b8ff" d="M632.91,-47.94C682.46,-51.67 753.35,-57.9 815,-66.75 826.65,-68.42 839.01,-70.54 850.9,-72.75"/>
<polygon fill="#63b8ff" stroke="#63b8ff" points="850.14,-76.17 860.62,-74.61 851.45,-69.3 850.14,-76.17"/>
</a>
</g>
</g>
<!-- Node8&#45;&gt;Node7 -->
<g id="edge10_Node000008_Node000007" class="edge">
<title>Node8&#45;&gt;Node7</title>
<g id="a_edge10_Node000008_Node000007"><a xlink:title=" ">
<path fill="none" stroke="#63b8ff" d="M632.91,-59.03C650.55,-63.34 669.61,-68 686.8,-72.2"/>
<polygon fill="#63b8ff" stroke="#63b8ff" points="685.78,-75.55 696.32,-74.53 687.44,-68.75 685.78,-75.55"/>
</a>
</g>
</g>
</g>
</svg>
