<?xml version="1.0" encoding="UTF-8" standalone="no"?>
<!DOCTYPE svg PUBLIC "-//W3C//DTD SVG 1.1//EN"
 "http://www.w3.org/Graphics/SVG/1.1/DTD/svg11.dtd">
<!-- Generated by graphviz version 13.1.2 (20250808.2320)
 -->
<!-- Title: m_expression_compute_range_rec Pages: 1 -->
<svg width="646pt" height="60pt"
 viewBox="0.00 0.00 646.00 60.00" xmlns="http://www.w3.org/2000/svg" xmlns:xlink="http://www.w3.org/1999/xlink">
<g id="graph0" class="graph" transform="scale(1 1) rotate(0) translate(4 55.5)">
<title>m_expression_compute_range_rec</title>
<!-- Node1 -->
<g id="Node000001" class="node">
<title>Node1</title>
<g id="a_Node000001"><a xlink:title=" ">
<polygon fill="#999999" stroke="#666666" points="637.75,-33.5 505.5,-33.5 505.5,0 637.75,0 637.75,-33.5"/>
<text xml:space="preserve" text-anchor="start" x="513.5" y="-20" font-family="Helvetica,sans-Serif" font-size="10.00">m_expression_compute</text>
<text xml:space="preserve" text-anchor="middle" x="571.62" y="-7.25" font-family="Helvetica,sans-Serif" font-size="10.00">_range_rec</text>
</a>
</g>
</g>
<!-- Node1&#45;&gt;Node1 -->
<g id="edge4_Node000001_Node000001" class="edge">
<title>Node1&#45;&gt;Node1</title>
<g id="a_edge4_Node000001_Node000001"><a xlink:title=" ">
<path fill="none" stroke="#63b8ff" d="M599.88,-44.89C595.27,-48.85 585.86,-51.5 571.62,-51.5 546.32,-51.5 536.24,-43.12 541.38,-33.91"/>
<polygon fill="#63b8ff" stroke="#63b8ff" points="603.25,-45.87 601.6,-35.4 596.37,-44.62 603.25,-45.87"/>
</a>
</g>
</g>
<!-- Node2 -->
<g id="Node000002" class="node">
<title>Node2</title>
<g id="a_Node000002"><a xlink:href="m__expression_8c.html#a2a8c2a9e902c267ebecb21dacecd96c3" target="_top" xlink:title=" ">
<polygon fill="white" stroke="#666666" points="469.5,-33.5 337.25,-33.5 337.25,0 469.5,0 469.5,-33.5"/>
<text xml:space="preserve" text-anchor="start" x="345.25" y="-20" font-family="Helvetica,sans-Serif" font-size="10.00">m_expression_compute</text>
<text xml:space="preserve" text-anchor="middle" x="403.38" y="-7.25" font-family="Helvetica,sans-Serif" font-size="10.00">_range</text>
</a>
</g>
</g>
<!-- Node1&#45;&gt;Node2 -->
<g id="edge1_Node000001_Node000002" class="edge">
<title>Node1&#45;&gt;Node2</title>
<g id="a_edge1_Node000001_Node000002"><a xlink:title=" ">
<path fill="none" stroke="#63b8ff" d="M494.09,-16.75C486.03,-16.75 477.88,-16.75 469.96,-16.75"/>
<polygon fill="#63b8ff" stroke="#63b8ff" points="493.88,-20.25 503.88,-16.75 493.88,-13.25 493.88,-20.25"/>
</a>
</g>
</g>
<!-- Node3 -->
<g id="Node000003" class="node">
<title>Node3</title>
<g id="a_Node000003"><a xlink:href="m__reg__format_8c.html#aba0f0297fb6d2c6c891e942d043d5b4e" target="_top" xlink:title=" ">
<polygon fill="white" stroke="#666666" points="301.25,-33.5 184.75,-33.5 184.75,0 301.25,0 301.25,-33.5"/>
<text xml:space="preserve" text-anchor="start" x="192.75" y="-20" font-family="Helvetica,sans-Serif" font-size="10.00">m_compute_register</text>
<text xml:space="preserve" text-anchor="middle" x="243" y="-7.25" font-family="Helvetica,sans-Serif" font-size="10.00">_formats</text>
</a>
</g>
</g>
<!-- Node2&#45;&gt;Node3 -->
<g id="edge2_Node000002_Node000003" class="edge">
<title>Node2&#45;&gt;Node3</title>
<g id="a_edge2_Node000002_Node000003"><a xlink:title=" ">
<path fill="none" stroke="#63b8ff" d="M325.65,-16.75C317.55,-16.75 309.42,-16.75 301.59,-16.75"/>
<polygon fill="#63b8ff" stroke="#63b8ff" points="325.53,-20.25 335.53,-16.75 325.53,-13.25 325.53,-20.25"/>
</a>
</g>
</g>
<!-- Node4 -->
<g id="Node000004" class="node">
<title>Node4</title>
<g id="a_Node000004"><a xlink:href="m__eff__parser_8c.html#aabfa1bb37d0bead1605fb10e348fe43c" target="_top" xlink:title=" ">
<polygon fill="#fff0f0" stroke="red" points="148.75,-27.12 0,-27.12 0,-6.38 148.75,-6.38 148.75,-27.12"/>
<text xml:space="preserve" text-anchor="middle" x="74.38" y="-13.62" font-family="Helvetica,sans-Serif" font-size="10.00">m_read_eff_desc_from_file</text>
</a>
</g>
</g>
<!-- Node3&#45;&gt;Node4 -->
<g id="edge3_Node000003_Node000004" class="edge">
<title>Node3&#45;&gt;Node4</title>
<g id="a_edge3_Node000003_Node000004"><a xlink:title=" ">
<path fill="none" stroke="#63b8ff" d="M173.15,-16.75C165.18,-16.75 157.04,-16.75 149.01,-16.75"/>
<polygon fill="#63b8ff" stroke="#63b8ff" points="173.14,-20.25 183.14,-16.75 173.14,-13.25 173.14,-20.25"/>
</a>
</g>
</g>
</g>
</svg>
