<?xml version="1.0" encoding="UTF-8" standalone="no"?>
<!DOCTYPE svg PUBLIC "-//W3C//DTD SVG 1.1//EN"
 "http://www.w3.org/Graphics/SVG/1.1/DTD/svg11.dtd">
<!-- Generated by graphviz version 13.1.2 (20250808.2320)
 -->
<!-- Title: m_resources_section_extract Pages: 1 -->
<!--zoomable 263 -->

<svg id="main" version="1.1" xmlns="http://www.w3.org/2000/svg" xmlns:xlink="http://www.w3.org/1999/xlink" xml:space="preserve" onload="init(evt)">

<style type="text/css"><![CDATA[
.node, .edge {opacity: 0.7;}
.node.selected, .edge.selected {opacity: 1;}
.edge:hover path { stroke: red; }
.edge:hover polygon { stroke: red; fill: red; }
]]></style>

<defs>
  <circle id="rim" cx="0" cy="0" r="7"/>
  <circle id="rim2" cx="0" cy="0" r="3.5"/>
  <g id="zoomPlus">
    <use xlink:href="#rim" fill="#404040"><set attributeName="fill" to="#808080" begin="zoomplus.mouseover" end="zoomplus.mouseout"/></use>
    <path d="M-4,0h8M0,-4v8" fill="none" stroke="white" stroke-width="1.5" pointer-events="none"/>
  </g>
  <g id="zoomMin">
    <use xlink:href="#rim" fill="#404040"><set attributeName="fill" to="#808080" begin="zoomminus.mouseover" end="zoomminus.mouseout"/></use>
    <path d="M-4,0h8" fill="none" stroke="white" stroke-width="1.5" pointer-events="none"/>
  </g>
  <g id="arrowUp" transform="translate(30 24)">
    <use xlink:href="#rim"/>
    <path pointer-events="none" fill="none" stroke="white" stroke-width="1.5" d="M0,-3.0v7 M-2.5,-0.5L0,-3.0L2.5,-0.5"/>
  </g>
  <g id="arrowRight" transform="rotate(90) translate(36 -43)">
    <use xlink:href="#rim"/>
    <path pointer-events="none" fill="none" stroke="white" stroke-width="1.5" d="M0,-3.0v7 M-2.5,-0.5L0,-3.0L2.5,-0.5"/>
  </g>
  <g id="arrowDown" transform="rotate(180) translate(-30 -48)">
    <use xlink:href="#rim"/>
    <path pointer-events="none" fill="none" stroke="white" stroke-width="1.5" d="M0,-3.0v7 M-2.5,-0.5L0,-3.0L2.5,-0.5"/>
  </g>
  <g id="arrowLeft" transform="rotate(270) translate(-36 17)">
    <use xlink:href="#rim"/>
    <path pointer-events="none" fill="none" stroke="white" stroke-width="1.5" d="M0,-3.0v7 M-2.5,-0.5L0,-3.0L2.5,-0.5"/>
  </g>
  <g id="resetDef">
    <use xlink:href="#rim2" fill="#404040"><set attributeName="fill" to="#808080" begin="reset.mouseover" end="reset.mouseout"/></use>
  </g>
</defs>
<script type="application/ecmascript">
var viewWidth = 795;
var viewHeight = 263;
var sectionId = 'dynsection-17';
</script>
<script type="application/ecmascript" xlink:href="svg.min.js"/>
<svg id="graph" class="graph">
<g id="viewport">
<title>m_resources_section_extract</title>
<!-- Node1 -->
<g id="Node000001" class="node">
<title>Node1</title>
<g id="a_Node000001"><a xlink:title=" ">
<polygon fill="#999999" stroke="#666666" points="118.75,-75.38 0,-75.38 0,-41.88 118.75,-41.88 118.75,-75.38"/>
<text xml:space="preserve" text-anchor="start" x="8" y="-61.88" font-family="Helvetica,sans-Serif" font-size="10.00">m_resources_section</text>
<text xml:space="preserve" text-anchor="middle" x="59.38" y="-49.13" font-family="Helvetica,sans-Serif" font-size="10.00">_extract</text>
</a>
</g>
</g>
<!-- Node2 -->
<g id="Node000002" class="node">
<title>Node2</title>
<g id="a_Node000002"><a xlink:href="m__dict__extract_8c.html#a069397786520b282cda9d640959dd47e" target="_top" xlink:title=" ">
<polygon fill="white" stroke="#666666" points="267.5,-133.38 154.75,-133.38 154.75,-99.88 267.5,-99.88 267.5,-133.38"/>
<text xml:space="preserve" text-anchor="start" x="162.75" y="-119.88" font-family="Helvetica,sans-Serif" font-size="10.00">m_extract_resource</text>
<text xml:space="preserve" text-anchor="middle" x="211.12" y="-107.13" font-family="Helvetica,sans-Serif" font-size="10.00">_from_dict</text>
</a>
</g>
</g>
<!-- Node1&#45;&gt;Node2 -->
<g id="edge1_Node000001_Node000002" class="edge">
<title>Node1&#45;&gt;Node2</title>
<g id="a_edge1_Node000001_Node000002"><a xlink:title=" ">
<path fill="none" stroke="#63b8ff" d="M104.9,-75.87C120.67,-81.98 138.6,-88.93 155.14,-95.33"/>
<polygon fill="#63b8ff" stroke="#63b8ff" points="153.77,-98.55 164.36,-98.9 156.3,-92.03 153.77,-98.55"/>
</a>
</g>
</g>
<!-- Node8 -->
<g id="Node000008" class="node">
<title>Node8</title>
<g id="a_Node000008"><a xlink:href="m__eff__parser_8c.html#a41538900917b54b8107a647c2860ebba" target="_top" xlink:title=" ">
<polygon fill="white" stroke="#666666" points="627.25,-127 492.75,-127 492.75,-106.25 627.25,-106.25 627.25,-127"/>
<text xml:space="preserve" text-anchor="middle" x="560" y="-113.5" font-family="Helvetica,sans-Serif" font-size="10.00">m_parser_error_at_node</text>
</a>
</g>
</g>
<!-- Node1&#45;&gt;Node8 -->
<g id="edge14_Node000001_Node000008" class="edge">
<title>Node1&#45;&gt;Node8</title>
<g id="a_edge14_Node000001_Node000008"><a xlink:title=" ">
<path fill="none" stroke="#63b8ff" d="M105.82,-41.41C180.6,-15.84 333.1,24.54 451.5,-20.63 491.39,-35.85 525.86,-73.42 544.42,-96.8"/>
<polygon fill="#63b8ff" stroke="#63b8ff" points="541.57,-98.84 550.44,-104.64 547.12,-94.57 541.57,-98.84"/>
</a>
</g>
</g>
<!-- Node3 -->
<g id="Node000003" class="node">
<title>Node3</title>
<g id="a_Node000003"><a xlink:href="m__dictionary_8c.html#a24c48ed6d9d92be03e3b401f5ef72862" target="_top" xlink:title=" ">
<polygon fill="white" stroke="#666666" points="628,-255 492,-255 492,-234.25 628,-234.25 628,-255"/>
<text xml:space="preserve" text-anchor="middle" x="560" y="-241.5" font-family="Helvetica,sans-Serif" font-size="10.00">m_dictionary_lookup_str</text>
</a>
</g>
</g>
<!-- Node2&#45;&gt;Node3 -->
<g id="edge2_Node000002_Node000003" class="edge">
<title>Node2&#45;&gt;Node3</title>
<g id="a_edge2_Node000002_Node000003"><a xlink:title=" ">
<path fill="none" stroke="#63b8ff" d="M220.59,-133.55C234.19,-158.68 263.51,-205.13 303.5,-225.63 357.89,-253.51 427.51,-256.93 480.34,-254.12"/>
<polygon fill="#63b8ff" stroke="#63b8ff" points="480.41,-257.62 490.17,-253.5 479.97,-250.64 480.41,-257.62"/>
</a>
</g>
</g>
<!-- Node6 -->
<g id="Node000006" class="node">
<title>Node6</title>
<g id="a_Node000006"><a xlink:href="m__dict__extract_8c.html#a9d8271641ab0de2b6148bf4902f2c728" target="_top" xlink:title=" ">
<polygon fill="white" stroke="#666666" points="443.62,-178.38 311.38,-178.38 311.38,-144.88 443.62,-144.88 443.62,-178.38"/>
<text xml:space="preserve" text-anchor="start" x="319.38" y="-164.88" font-family="Helvetica,sans-Serif" font-size="10.00">m_extract_delay_buffer</text>
<text xml:space="preserve" text-anchor="middle" x="377.5" y="-152.13" font-family="Helvetica,sans-Serif" font-size="10.00">_from_dict</text>
</a>
</g>
</g>
<!-- Node2&#45;&gt;Node6 -->
<g id="edge4_Node000002_Node000006" class="edge">
<title>Node2&#45;&gt;Node6</title>
<g id="a_edge4_Node000002_Node000006"><a xlink:title=" ">
<path fill="none" stroke="#63b8ff" d="M267.77,-131.86C278.93,-134.91 290.81,-138.17 302.47,-141.36"/>
<polygon fill="#63b8ff" stroke="#63b8ff" points="301.52,-144.73 312.09,-143.99 303.37,-137.98 301.52,-144.73"/>
</a>
</g>
</g>
<!-- Node2&#45;&gt;Node8 -->
<g id="edge12_Node000002_Node000008" class="edge">
<title>Node2&#45;&gt;Node8</title>
<g id="a_edge12_Node000002_Node000008"><a xlink:title=" ">
<path fill="none" stroke="#63b8ff" d="M267.86,-116.63C325.58,-116.63 416.23,-116.63 481.05,-116.63"/>
<polygon fill="#63b8ff" stroke="#63b8ff" points="480.92,-120.13 490.91,-116.63 480.91,-113.13 480.92,-120.13"/>
</a>
</g>
</g>
<!-- Node9 -->
<g id="Node000009" class="node">
<title>Node9</title>
<g id="a_Node000009"><a xlink:href="m__dict__extract_8c.html#af7b6ff7cfcfd0b5bfc508b8fc3bcd58e" target="_top" xlink:title=" ">
<polygon fill="white" stroke="#666666" points="451.5,-217 303.5,-217 303.5,-196.25 451.5,-196.25 451.5,-217"/>
<text xml:space="preserve" text-anchor="middle" x="377.5" y="-203.5" font-family="Helvetica,sans-Serif" font-size="10.00">m_extract_mem_from_dict</text>
</a>
</g>
</g>
<!-- Node2&#45;&gt;Node9 -->
<g id="edge8_Node000002_Node000009" class="edge">
<title>Node2&#45;&gt;Node9</title>
<g id="a_edge8_Node000002_Node000009"><a xlink:title=" ">
<path fill="none" stroke="#63b8ff" d="M229.53,-133.71C246.89,-149.85 275.02,-173.6 303.5,-187.63 306.73,-189.22 310.11,-190.69 313.57,-192.04"/>
<polygon fill="#63b8ff" stroke="#63b8ff" points="312.09,-195.23 322.68,-195.26 314.42,-188.63 312.09,-195.23"/>
</a>
</g>
</g>
<!-- Node11 -->
<g id="Node000011" class="node">
<title>Node11</title>
<g id="a_Node000011"><a xlink:href="m__resource_8c.html#a6f08a6236056ee49a067da863a64a10a" target="_top" xlink:title=" ">
<polygon fill="white" stroke="#666666" points="435.75,-89 319.25,-89 319.25,-68.25 435.75,-68.25 435.75,-89"/>
<text xml:space="preserve" text-anchor="middle" x="377.5" y="-75.5" font-family="Helvetica,sans-Serif" font-size="10.00">m_init_dsp_resource</text>
</a>
</g>
</g>
<!-- Node2&#45;&gt;Node11 -->
<g id="edge11_Node000002_Node000011" class="edge">
<title>Node2&#45;&gt;Node11</title>
<g id="a_edge11_Node000002_Node000011"><a xlink:title=" ">
<path fill="none" stroke="#63b8ff" d="M267.77,-103.76C284.12,-99.98 302.03,-95.84 318.52,-92.03"/>
<polygon fill="#63b8ff" stroke="#63b8ff" points="319.24,-95.46 328.2,-89.79 317.67,-88.64 319.24,-95.46"/>
</a>
</g>
</g>
<!-- Node12 -->
<g id="Node000012" class="node">
<title>Node12</title>
<g id="a_Node000012"><a xlink:href="m__resource_8c.html#ae7de09edd1ed9c136ce0ecec5880390c" target="_top" xlink:title=" ">
<polygon fill="white" stroke="#666666" points="444,-50 311,-50 311,-29.25 444,-29.25 444,-50"/>
<text xml:space="preserve" text-anchor="middle" x="377.5" y="-36.5" font-family="Helvetica,sans-Serif" font-size="10.00">string_to_resource_type</text>
</a>
</g>
</g>
<!-- Node2&#45;&gt;Node12 -->
<g id="edge13_Node000002_Node000012" class="edge">
<title>Node2&#45;&gt;Node12</title>
<g id="a_edge13_Node000002_Node000012"><a xlink:title=" ">
<path fill="none" stroke="#63b8ff" d="M235.5,-99.38C253.37,-86.88 279.01,-70.35 303.5,-59.63 308.29,-57.53 313.35,-55.6 318.49,-53.84"/>
<polygon fill="#63b8ff" stroke="#63b8ff" points="319.17,-57.3 327.63,-50.92 317.04,-50.63 319.17,-57.3"/>
</a>
</g>
</g>
<!-- Node4 -->
<g id="Node000004" class="node">
<title>Node4</title>
<g id="a_Node000004"><a xlink:href="m__dictionary_8c.html#adf3150351a89a3ae2c5e4ec52ee93cb4" target="_top" xlink:title=" ">
<polygon fill="#fff0f0" stroke="red" points="786.5,-216 668.5,-216 668.5,-195.25 786.5,-195.25 786.5,-216"/>
<text xml:space="preserve" text-anchor="middle" x="727.5" y="-202.5" font-family="Helvetica,sans-Serif" font-size="10.00">m_dictionary_lookup</text>
</a>
</g>
</g>
<!-- Node3&#45;&gt;Node4 -->
<g id="edge3_Node000003_Node000004" class="edge">
<title>Node3&#45;&gt;Node4</title>
<g id="a_edge3_Node000003_Node000004"><a xlink:title=" ">
<path fill="none" stroke="#63b8ff" d="M607.1,-233.76C626.39,-229.22 649,-223.89 669.34,-219.1"/>
<polygon fill="#63b8ff" stroke="#63b8ff" points="669.96,-222.55 678.89,-216.85 668.35,-215.73 669.96,-222.55"/>
</a>
</g>
</g>
<!-- Node7 -->
<g id="Node000007" class="node">
<title>Node7</title>
<g id="a_Node000007"><a xlink:href="m__dictionary_8c.html#a2bb0a3b03ec2e6dccb1b7b1f05402fae" target="_top" xlink:title=" ">
<polygon fill="white" stroke="#666666" points="632.5,-177 487.5,-177 487.5,-156.25 632.5,-156.25 632.5,-177"/>
<text xml:space="preserve" text-anchor="middle" x="560" y="-163.5" font-family="Helvetica,sans-Serif" font-size="10.00">m_dictionary_lookup_expr</text>
</a>
</g>
</g>
<!-- Node6&#45;&gt;Node7 -->
<g id="edge5_Node000006_Node000007" class="edge">
<title>Node6&#45;&gt;Node7</title>
<g id="a_edge5_Node000006_Node000007"><a xlink:title=" ">
<path fill="none" stroke="#63b8ff" d="M443.92,-163.44C454.22,-163.72 464.99,-164.02 475.62,-164.32"/>
<polygon fill="#63b8ff" stroke="#63b8ff" points="475.48,-167.81 485.58,-164.59 475.68,-160.82 475.48,-167.81"/>
</a>
</g>
</g>
<!-- Node6&#45;&gt;Node8 -->
<g id="edge7_Node000006_Node000008" class="edge">
<title>Node6&#45;&gt;Node8</title>
<g id="a_edge7_Node000006_Node000008"><a xlink:title=" ">
<path fill="none" stroke="#63b8ff" d="M443.92,-145.32C463.82,-140.36 485.47,-134.96 504.57,-130.2"/>
<polygon fill="#63b8ff" stroke="#63b8ff" points="505.16,-133.66 514.02,-127.84 503.47,-126.86 505.16,-133.66"/>
</a>
</g>
</g>
<!-- Node7&#45;&gt;Node4 -->
<g id="edge6_Node000007_Node000004" class="edge">
<title>Node7&#45;&gt;Node4</title>
<g id="a_edge6_Node000007_Node000004"><a xlink:title=" ">
<path fill="none" stroke="#63b8ff" d="M607.1,-177.49C626.39,-182.04 649,-187.37 669.34,-192.16"/>
<polygon fill="#63b8ff" stroke="#63b8ff" points="668.35,-195.52 678.89,-194.41 669.96,-188.71 668.35,-195.52"/>
</a>
</g>
</g>
<!-- Node9&#45;&gt;Node7 -->
<g id="edge9_Node000009_Node000007" class="edge">
<title>Node9&#45;&gt;Node7</title>
<g id="a_edge9_Node000009_Node000007"><a xlink:title=" ">
<path fill="none" stroke="#63b8ff" d="M427.35,-195.8C449.42,-190.91 475.71,-185.09 498.97,-179.93"/>
<polygon fill="#63b8ff" stroke="#63b8ff" points="499.63,-183.37 508.64,-177.79 498.12,-176.53 499.63,-183.37"/>
</a>
</g>
</g>
<!-- Node10 -->
<g id="Node000010" class="node">
<title>Node10</title>
<g id="a_Node000010"><a xlink:href="m__expression_8c.html#a0938d229ef0ec131b65241e93dc6166d" target="_top" xlink:title=" ">
<polygon fill="white" stroke="#666666" points="626.12,-216 493.88,-216 493.88,-195.25 626.12,-195.25 626.12,-216"/>
<text xml:space="preserve" text-anchor="middle" x="560" y="-202.5" font-family="Helvetica,sans-Serif" font-size="10.00">m_expression_evaluate</text>
</a>
</g>
</g>
<!-- Node9&#45;&gt;Node10 -->
<g id="edge10_Node000009_Node000010" class="edge">
<title>Node9&#45;&gt;Node10</title>
<g id="a_edge10_Node000009_Node000010"><a xlink:title=" ">
<path fill="none" stroke="#63b8ff" d="M451.92,-206.22C461.92,-206.16 472.2,-206.11 482.26,-206.05"/>
<polygon fill="#63b8ff" stroke="#63b8ff" points="481.99,-209.55 491.97,-206 481.95,-202.55 481.99,-209.55"/>
</a>
</g>
</g>
</g>
</svg>

<g id="navigator" transform="translate(0 0)" fill="#404254">
  <rect fill="#f2f5e9" fill-opacity="0.5" stroke="#606060" stroke-width=".5" x="0" y="0" width="60" height="60"/>
  <use id="zoomplus" xlink:href="#zoomPlus" x="17" y="9" onmousedown="handleZoom(evt,'in')"/>
  <use id="zoomminus" xlink:href="#zoomMin" x="42" y="9" onmousedown="handleZoom(evt,'out')"/>
  <use id="reset" xlink:href="#resetDef" x="30" y="36" onmousedown="handleReset()"/>
   <use id="arrowup" xlink:href="#arrowUp" x="0" y="0" onmousedown="handlePan(0,-1)"/>
  <use id="arrowright" xlink:href="#arrowRight" x="0" y="0" onmousedown="handlePan(1,0)"/>
  <use id="arrowdown" xlink:href="#arrowDown" x="0" y="0" onmousedown="handlePan(0,1)"/>
  <use id="arrowleft" xlink:href="#arrowLeft" x="0" y="0" onmousedown="handlePan(-1,0)"/>
</g>
<svg viewBox="0 0 15 15" width="100%" height="30px" preserveAspectRatio="xMaxYMin meet">
 <g id="arrow_out" transform="scale(0.3 0.3)">
  <a xlink:href="m__eff__section_8h_a3c543d8c1a0379462a112a6670e07f1b_cgraph_org.svg" target="_base">
   <rect id="button" ry="5" rx="5" y="6" x="6" height="38" width="38"
        fill="#f2f5e9" fill-opacity="0.5" stroke="#606060" stroke-width="1.0"/>
   <path id="arrow"
     d="M 11.500037,31.436501 C 11.940474,20.09759 22.043105,11.32322 32.158766,21.979434 L 37.068811,17.246167 C 37.068811,17.246167 37.088388,32 37.088388,32 L 22.160133,31.978069 C 22.160133,31.978069 26.997745,27.140456 26.997745,27.140456 C 18.528582,18.264221 13.291696,25.230495 11.500037,31.436501 z"
     style="fill:#404040;"/>
  </a>
 </g>
</svg>

<style type='text/css'>
<![CDATA[
[data-mouse-over-selected='false'] { opacity: 0.7; }
[data-mouse-over-selected='true']  { opacity: 1.0; }
]]>
</style>
<script type="application/ecmascript"><![CDATA[
document.addEventListener('DOMContentLoaded', (event) => {
  highlightEdges();
  highlightAdjacentNodes();
});
]]></script>
</svg>
