<?xml version="1.0" encoding="UTF-8" standalone="no"?>
<!DOCTYPE svg PUBLIC "-//W3C//DTD SVG 1.1//EN"
 "http://www.w3.org/Graphics/SVG/1.1/DTD/svg11.dtd">
<!-- Generated by graphviz version 13.1.2 (20250808.2320)
 -->
<!-- Title: m_expression_print_rec Pages: 1 -->
<!--zoomable 150 -->

<svg id="main" version="1.1" xmlns="http://www.w3.org/2000/svg" xmlns:xlink="http://www.w3.org/1999/xlink" xml:space="preserve" onload="init(evt)">

<style type="text/css"><![CDATA[
.node, .edge {opacity: 0.7;}
.node.selected, .edge.selected {opacity: 1;}
.edge:hover path { stroke: red; }
.edge:hover polygon { stroke: red; fill: red; }
]]></style>

<defs>
  <circle id="rim" cx="0" cy="0" r="7"/>
  <circle id="rim2" cx="0" cy="0" r="3.5"/>
  <g id="zoomPlus">
    <use xlink:href="#rim" fill="#404040"><set attributeName="fill" to="#808080" begin="zoomplus.mouseover" end="zoomplus.mouseout"/></use>
    <path d="M-4,0h8M0,-4v8" fill="none" stroke="white" stroke-width="1.5" pointer-events="none"/>
  </g>
  <g id="zoomMin">
    <use xlink:href="#rim" fill="#404040"><set attributeName="fill" to="#808080" begin="zoomminus.mouseover" end="zoomminus.mouseout"/></use>
    <path d="M-4,0h8" fill="none" stroke="white" stroke-width="1.5" pointer-events="none"/>
  </g>
  <g id="arrowUp" transform="translate(30 24)">
    <use xlink:href="#rim"/>
    <path pointer-events="none" fill="none" stroke="white" stroke-width="1.5" d="M0,-3.0v7 M-2.5,-0.5L0,-3.0L2.5,-0.5"/>
  </g>
  <g id="arrowRight" transform="rotate(90) translate(36 -43)">
    <use xlink:href="#rim"/>
    <path pointer-events="none" fill="none" stroke="white" stroke-width="1.5" d="M0,-3.0v7 M-2.5,-0.5L0,-3.0L2.5,-0.5"/>
  </g>
  <g id="arrowDown" transform="rotate(180) translate(-30 -48)">
    <use xlink:href="#rim"/>
    <path pointer-events="none" fill="none" stroke="white" stroke-width="1.5" d="M0,-3.0v7 M-2.5,-0.5L0,-3.0L2.5,-0.5"/>
  </g>
  <g id="arrowLeft" transform="rotate(270) translate(-36 17)">
    <use xlink:href="#rim"/>
    <path pointer-events="none" fill="none" stroke="white" stroke-width="1.5" d="M0,-3.0v7 M-2.5,-0.5L0,-3.0L2.5,-0.5"/>
  </g>
  <g id="resetDef">
    <use xlink:href="#rim2" fill="#404040"><set attributeName="fill" to="#808080" begin="reset.mouseover" end="reset.mouseout"/></use>
  </g>
</defs>
<script type="application/ecmascript">
var viewWidth = 645;
var viewHeight = 150;
var sectionId = 'dynsection-18';
</script>
<script type="application/ecmascript" xlink:href="svg.min.js"/>
<svg id="graph" class="graph">
<g id="viewport">
<title>m_expression_print_rec</title>
<!-- Node1 -->
<g id="Node000001" class="node">
<title>Node1</title>
<g id="a_Node000001"><a xlink:title=" ">
<polygon fill="#999999" stroke="#666666" points="637,-84.75 504.75,-84.75 504.75,-64 637,-64 637,-84.75"/>
<text xml:space="preserve" text-anchor="middle" x="570.88" y="-71.25" font-family="Helvetica,sans-Serif" font-size="10.00">m_expression_print_rec</text>
</a>
</g>
</g>
<!-- Node1&#45;&gt;Node1 -->
<g id="edge2_Node000001_Node000001" class="edge">
<title>Node1&#45;&gt;Node1</title>
<g id="a_edge2_Node000001_Node000001"><a xlink:title=" ">
<path fill="none" stroke="#63b8ff" d="M600.48,-96.24C596.56,-100.08 586.69,-102.75 570.88,-102.75 541.96,-102.75 532.92,-93.81 543.76,-85.15"/>
<polygon fill="#63b8ff" stroke="#63b8ff" points="603.93,-95.61 598.32,-86.62 597.1,-97.15 603.93,-95.61"/>
</a>
</g>
</g>
<!-- Node2 -->
<g id="Node000002" class="node">
<title>Node2</title>
<g id="a_Node000002"><a xlink:href="m__expression_8c.html#a2a460e78f8599d0047d59a5cfcf80fb5" target="_top" xlink:title=" ">
<polygon fill="white" stroke="#666666" points="458.62,-104.75 346.62,-104.75 346.62,-84 458.62,-84 458.62,-104.75"/>
<text xml:space="preserve" text-anchor="middle" x="402.62" y="-91.25" font-family="Helvetica,sans-Serif" font-size="10.00">m_expression_print</text>
</a>
</g>
</g>
<!-- Node1&#45;&gt;Node2 -->
<g id="edge1_Node000001_Node000002" class="edge">
<title>Node1&#45;&gt;Node2</title>
<g id="a_edge1_Node000001_Node000002"><a xlink:title=" ">
<path fill="none" stroke="#63b8ff" d="M493.56,-83.56C481.91,-84.96 470.07,-86.38 458.99,-87.72"/>
<polygon fill="#63b8ff" stroke="#63b8ff" points="493.63,-87.07 503.14,-82.4 492.8,-80.12 493.63,-87.07"/>
</a>
</g>
</g>
<!-- Node3 -->
<g id="Node000003" class="node">
<title>Node3</title>
<g id="a_Node000003"><a xlink:href="m__expression_8c.html#a5fa3c8040149c5d068c467280dfd0d68" target="_top" xlink:title=" ">
<polygon fill="white" stroke="#666666" points="468.75,-65.75 336.5,-65.75 336.5,-45 468.75,-45 468.75,-65.75"/>
<text xml:space="preserve" text-anchor="middle" x="402.62" y="-52.25" font-family="Helvetica,sans-Serif" font-size="10.00">m_expression_to_string</text>
</a>
</g>
</g>
<!-- Node1&#45;&gt;Node3 -->
<g id="edge3_Node000001_Node000003" class="edge">
<title>Node1&#45;&gt;Node3</title>
<g id="a_edge3_Node000001_Node000003"><a xlink:title=" ">
<path fill="none" stroke="#63b8ff" d="M493.34,-65.63C485.28,-64.71 477.13,-63.78 469.21,-62.87"/>
<polygon fill="#63b8ff" stroke="#63b8ff" points="492.81,-69.09 503.14,-66.75 493.6,-62.14 492.81,-69.09"/>
</a>
</g>
</g>
<!-- Node4 -->
<g id="Node000004" class="node">
<title>Node4</title>
<g id="a_Node000004"><a xlink:href="m__expression_8c.html#aec31d5d4509024a0830a2ac448ac7d21" target="_top" xlink:title=" ">
<polygon fill="white" stroke="#666666" points="300.5,-124.12 168.25,-124.12 168.25,-90.62 300.5,-90.62 300.5,-124.12"/>
<text xml:space="preserve" text-anchor="start" x="176.25" y="-110.62" font-family="Helvetica,sans-Serif" font-size="10.00">m_expression_compute</text>
<text xml:space="preserve" text-anchor="middle" x="234.38" y="-97.88" font-family="Helvetica,sans-Serif" font-size="10.00">_range_rec</text>
</a>
</g>
</g>
<!-- Node3&#45;&gt;Node4 -->
<g id="edge4_Node000003_Node000004" class="edge">
<title>Node3&#45;&gt;Node4</title>
<g id="a_edge4_Node000003_Node000004"><a xlink:title=" ">
<path fill="none" stroke="#63b8ff" d="M355.52,-69.48C349.13,-71.45 342.65,-73.46 336.5,-75.38 321.21,-80.14 304.63,-85.37 289.4,-90.18"/>
<polygon fill="#63b8ff" stroke="#63b8ff" points="356.14,-72.95 364.67,-66.66 354.08,-66.26 356.14,-72.95"/>
</a>
</g>
</g>
<!-- Node12 -->
<g id="Node000012" class="node">
<title>Node12</title>
<g id="a_Node000012"><a xlink:href="m__dict__extract_8c.html#a512a86a4320cc6c6530498bce7242815" target="_top" xlink:title=" ">
<polygon fill="white" stroke="#666666" points="295.25,-72.12 173.5,-72.12 173.5,-38.62 295.25,-38.62 295.25,-72.12"/>
<text xml:space="preserve" text-anchor="start" x="181.5" y="-58.62" font-family="Helvetica,sans-Serif" font-size="10.00">m_extract_parameter</text>
<text xml:space="preserve" text-anchor="middle" x="234.38" y="-45.88" font-family="Helvetica,sans-Serif" font-size="10.00">_from_dict</text>
</a>
</g>
</g>
<!-- Node3&#45;&gt;Node12 -->
<g id="edge7_Node000003_Node000012" class="edge">
<title>Node3&#45;&gt;Node12</title>
<g id="a_edge7_Node000003_Node000012"><a xlink:title=" ">
<path fill="none" stroke="#63b8ff" d="M324.91,-55.38C315.06,-55.38 305.08,-55.38 295.54,-55.38"/>
<polygon fill="#63b8ff" stroke="#63b8ff" points="324.88,-58.88 334.88,-55.38 324.88,-51.88 324.88,-58.88"/>
</a>
</g>
</g>
<!-- Node15 -->
<g id="Node000015" class="node">
<title>Node15</title>
<g id="a_Node000015"><a xlink:href="m__asm__parser_8c.html#a4aedb000c36b17f7c669cb76938cfef3" target="_top" xlink:title=" ">
<polygon fill="white" stroke="#666666" points="288.12,-20.75 180.62,-20.75 180.62,0 288.12,0 288.12,-20.75"/>
<text xml:space="preserve" text-anchor="middle" x="234.38" y="-7.25" font-family="Helvetica,sans-Serif" font-size="10.00">m_parse_asm_line</text>
</a>
</g>
</g>
<!-- Node3&#45;&gt;Node15 -->
<g id="edge9_Node000003_Node000015" class="edge">
<title>Node3&#45;&gt;Node15</title>
<g id="a_edge9_Node000003_Node000015"><a xlink:title=" ">
<path fill="none" stroke="#63b8ff" d="M351.01,-41.68C326.77,-35.11 298.15,-27.37 275.45,-21.22"/>
<polygon fill="#63b8ff" stroke="#63b8ff" points="349.78,-44.97 360.34,-44.2 351.6,-38.21 349.78,-44.97"/>
</a>
</g>
</g>
<!-- Node4&#45;&gt;Node4 -->
<g id="edge6_Node000004_Node000004" class="edge">
<title>Node4&#45;&gt;Node4</title>
<g id="a_edge6_Node000004_Node000004"><a xlink:title=" ">
<path fill="none" stroke="#63b8ff" d="M262.63,-135.51C258.02,-139.47 248.61,-142.12 234.38,-142.12 209.07,-142.12 198.99,-133.74 204.13,-124.54"/>
<polygon fill="#63b8ff" stroke="#63b8ff" points="266,-136.49 264.35,-126.03 259.12,-135.24 266,-136.49"/>
</a>
</g>
</g>
<!-- Node5 -->
<g id="Node000005" class="node">
<title>Node5</title>
<g id="a_Node000005"><a xlink:href="m__expression_8c.html#a2a8c2a9e902c267ebecb21dacecd96c3" target="_top" xlink:title=" ">
<polygon fill="#fff0f0" stroke="red" points="132.25,-124.12 0,-124.12 0,-90.62 132.25,-90.62 132.25,-124.12"/>
<text xml:space="preserve" text-anchor="start" x="8" y="-110.62" font-family="Helvetica,sans-Serif" font-size="10.00">m_expression_compute</text>
<text xml:space="preserve" text-anchor="middle" x="66.12" y="-97.88" font-family="Helvetica,sans-Serif" font-size="10.00">_range</text>
</a>
</g>
</g>
<!-- Node4&#45;&gt;Node5 -->
<g id="edge5_Node000004_Node000005" class="edge">
<title>Node4&#45;&gt;Node5</title>
<g id="a_edge5_Node000004_Node000005"><a xlink:title=" ">
<path fill="none" stroke="#63b8ff" d="M156.84,-107.38C148.78,-107.38 140.63,-107.38 132.71,-107.38"/>
<polygon fill="#63b8ff" stroke="#63b8ff" points="156.63,-110.88 166.63,-107.38 156.63,-103.88 156.63,-110.88"/>
</a>
</g>
</g>
<!-- Node13 -->
<g id="Node000013" class="node">
<title>Node13</title>
<g id="a_Node000013"><a xlink:href="m__eff__section_8c.html#ae18b8b0c3138c9b2f19ece218da82271" target="_top" xlink:title=" ">
<polygon fill="#fff0f0" stroke="red" points="130,-72.12 2.25,-72.12 2.25,-38.62 130,-38.62 130,-72.12"/>
<text xml:space="preserve" text-anchor="start" x="10.25" y="-58.62" font-family="Helvetica,sans-Serif" font-size="10.00">m_parameters_section</text>
<text xml:space="preserve" text-anchor="middle" x="66.12" y="-45.88" font-family="Helvetica,sans-Serif" font-size="10.00">_extract</text>
</a>
</g>
</g>
<!-- Node12&#45;&gt;Node13 -->
<g id="edge8_Node000012_Node000013" class="edge">
<title>Node12&#45;&gt;Node13</title>
<g id="a_edge8_Node000012_Node000013"><a xlink:title=" ">
<path fill="none" stroke="#63b8ff" d="M162.07,-55.38C151.55,-55.38 140.77,-55.38 130.42,-55.38"/>
<polygon fill="#63b8ff" stroke="#63b8ff" points="161.84,-58.88 171.84,-55.38 161.84,-51.88 161.84,-58.88"/>
</a>
</g>
</g>
<!-- Node16 -->
<g id="Node000016" class="node">
<title>Node16</title>
<g id="a_Node000016"><a xlink:href="m__asm__parser_8c.html#a6c6e6f0ed299cdac1ba62cb178fea161" target="_top" xlink:title=" ">
<polygon fill="#fff0f0" stroke="red" points="108.25,-20.75 24,-20.75 24,0 108.25,0 108.25,-20.75"/>
<text xml:space="preserve" text-anchor="middle" x="66.12" y="-7.25" font-family="Helvetica,sans-Serif" font-size="10.00">m_parse_asm</text>
</a>
</g>
</g>
<!-- Node15&#45;&gt;Node16 -->
<g id="edge10_Node000015_Node000016" class="edge">
<title>Node15&#45;&gt;Node16</title>
<g id="a_edge10_Node000015_Node000016"><a xlink:title=" ">
<path fill="none" stroke="#63b8ff" d="M168.93,-10.38C148.68,-10.38 126.86,-10.38 108.64,-10.38"/>
<polygon fill="#63b8ff" stroke="#63b8ff" points="168.8,-13.88 178.8,-10.38 168.8,-6.88 168.8,-13.88"/>
</a>
</g>
</g>
</g>
</svg>

<g id="navigator" transform="translate(0 0)" fill="#404254">
  <rect fill="#f2f5e9" fill-opacity="0.5" stroke="#606060" stroke-width=".5" x="0" y="0" width="60" height="60"/>
  <use id="zoomplus" xlink:href="#zoomPlus" x="17" y="9" onmousedown="handleZoom(evt,'in')"/>
  <use id="zoomminus" xlink:href="#zoomMin" x="42" y="9" onmousedown="handleZoom(evt,'out')"/>
  <use id="reset" xlink:href="#resetDef" x="30" y="36" onmousedown="handleReset()"/>
   <use id="arrowup" xlink:href="#arrowUp" x="0" y="0" onmousedown="handlePan(0,-1)"/>
  <use id="arrowright" xlink:href="#arrowRight" x="0" y="0" onmousedown="handlePan(1,0)"/>
  <use id="arrowdown" xlink:href="#arrowDown" x="0" y="0" onmousedown="handlePan(0,1)"/>
  <use id="arrowleft" xlink:href="#arrowLeft" x="0" y="0" onmousedown="handlePan(-1,0)"/>
</g>
<svg viewBox="0 0 15 15" width="100%" height="30px" preserveAspectRatio="xMaxYMin meet">
 <g id="arrow_out" transform="scale(0.3 0.3)">
  <a xlink:href="m__expression_8c_a1ee68e33366bb85718df8d2a70a70c0c_icgraph_org.svg" target="_base">
   <rect id="button" ry="5" rx="5" y="6" x="6" height="38" width="38"
        fill="#f2f5e9" fill-opacity="0.5" stroke="#606060" stroke-width="1.0"/>
   <path id="arrow"
     d="M 11.500037,31.436501 C 11.940474,20.09759 22.043105,11.32322 32.158766,21.979434 L 37.068811,17.246167 C 37.068811,17.246167 37.088388,32 37.088388,32 L 22.160133,31.978069 C 22.160133,31.978069 26.997745,27.140456 26.997745,27.140456 C 18.528582,18.264221 13.291696,25.230495 11.500037,31.436501 z"
     style="fill:#404040;"/>
  </a>
 </g>
</svg>

<style type='text/css'>
<![CDATA[
[data-mouse-over-selected='false'] { opacity: 0.7; }
[data-mouse-over-selected='true']  { opacity: 1.0; }
]]>
</style>
<script type="application/ecmascript"><![CDATA[
document.addEventListener('DOMContentLoaded', (event) => {
  highlightEdges();
  highlightAdjacentNodes();
});
]]></script>
</svg>
