<?xml version="1.0" encoding="UTF-8" standalone="no"?>
<!DOCTYPE svg PUBLIC "-//W3C//DTD SVG 1.1//EN"
 "http://www.w3.org/Graphics/SVG/1.1/DTD/svg11.dtd">
<!-- Generated by graphviz version 13.1.2 (20250808.2320)
 -->
<!-- Title: init_warbler Pages: 1 -->
<svg width="536pt" height="42pt"
 viewBox="0.00 0.00 536.00 42.00" xmlns="http://www.w3.org/2000/svg" xmlns:xlink="http://www.w3.org/1999/xlink">
<g id="graph0" class="graph" transform="scale(1 1) rotate(0) translate(4 37.5)">
<title>init_warbler</title>
<!-- Node1 -->
<g id="Node000001" class="node">
<title>Node1</title>
<g id="a_Node000001"><a xlink:title=" ">
<polygon fill="#999999" stroke="#666666" points="73.75,-27.12 0,-27.12 0,-6.38 73.75,-6.38 73.75,-27.12"/>
<text xml:space="preserve" text-anchor="middle" x="36.88" y="-13.62" font-family="Helvetica,sans-Serif" font-size="10.00">init_warbler</text>
</a>
</g>
</g>
<!-- Node2 -->
<g id="Node000002" class="node">
<title>Node2</title>
<g id="a_Node000002"><a xlink:href="$m__effect_8c.html#a04f72018a5ac8693ac33407c9c163bdc" xlink:title=" ">
<polygon fill="white" stroke="#666666" points="233.75,-27.12 109.75,-27.12 109.75,-6.38 233.75,-6.38 233.75,-27.12"/>
<text xml:space="preserve" text-anchor="middle" x="171.75" y="-13.62" font-family="Helvetica,sans-Serif" font-size="10.00">effect_add_parameter</text>
</a>
</g>
</g>
<!-- Node1&#45;&gt;Node2 -->
<g id="edge1_Node000001_Node000002" class="edge">
<title>Node1&#45;&gt;Node2</title>
<g id="a_edge1_Node000001_Node000002"><a xlink:title=" ">
<path fill="none" stroke="#63b8ff" d="M74.18,-16.75C81.69,-16.75 89.84,-16.75 98.12,-16.75"/>
<polygon fill="#63b8ff" stroke="#63b8ff" points="97.93,-20.25 107.93,-16.75 97.93,-13.25 97.93,-20.25"/>
</a>
</g>
</g>
<!-- Node3 -->
<g id="Node000003" class="node">
<title>Node3</title>
<g id="a_Node000003"><a xlink:href="$m__parameter_8c.html#ac9a28134818c14fbd7ef921b535b28d8" xlink:title=" ">
<polygon fill="white" stroke="#666666" points="375.75,-27.12 269.75,-27.12 269.75,-6.38 375.75,-6.38 375.75,-27.12"/>
<text xml:space="preserve" text-anchor="middle" x="322.75" y="-13.62" font-family="Helvetica,sans-Serif" font-size="10.00">init_parameter_str</text>
</a>
</g>
</g>
<!-- Node2&#45;&gt;Node3 -->
<g id="edge2_Node000002_Node000003" class="edge">
<title>Node2&#45;&gt;Node3</title>
<g id="a_edge2_Node000002_Node000003"><a xlink:title=" ">
<path fill="none" stroke="#63b8ff" d="M234.21,-16.75C242.08,-16.75 250.14,-16.75 258.04,-16.75"/>
<polygon fill="#63b8ff" stroke="#63b8ff" points="257.94,-20.25 267.94,-16.75 257.94,-13.25 257.94,-20.25"/>
</a>
</g>
</g>
<!-- Node4 -->
<g id="Node000004" class="node">
<title>Node4</title>
<g id="a_Node000004"><a xlink:href="$m__parameter_8c.html#a6c029c4379be052a826c3a78b8dd1513" xlink:title=" ">
<polygon fill="#fff0f0" stroke="red" points="527.5,-33.5 411.75,-33.5 411.75,0 527.5,0 527.5,-33.5"/>
<text xml:space="preserve" text-anchor="start" x="419.75" y="-20" font-family="Helvetica,sans-Serif" font-size="10.00">m_parameter_effect</text>
<text xml:space="preserve" text-anchor="middle" x="469.62" y="-7.25" font-family="Helvetica,sans-Serif" font-size="10.00">_rep_update</text>
</a>
</g>
</g>
<!-- Node3&#45;&gt;Node4 -->
<g id="edge3_Node000003_Node000004" class="edge">
<title>Node3&#45;&gt;Node4</title>
<g id="a_edge3_Node000003_Node000004"><a xlink:title=" ">
<path fill="none" stroke="#63b8ff" d="M376.05,-16.75C383.88,-16.75 392.04,-16.75 400.14,-16.75"/>
<polygon fill="#63b8ff" stroke="#63b8ff" points="399.98,-20.25 409.98,-16.75 399.98,-13.25 399.98,-20.25"/>
</a>
</g>
</g>
</g>
</svg>
