<?xml version="1.0" encoding="UTF-8" standalone="no"?>
<!DOCTYPE svg PUBLIC "-//W3C//DTD SVG 1.1//EN"
 "http://www.w3.org/Graphics/SVG/1.1/DTD/svg11.dtd">
<!-- Generated by graphviz version 13.1.2 (20250808.2320)
 -->
<!-- Title: init_noise_suppressor Pages: 1 -->
<svg width="584pt" height="42pt"
 viewBox="0.00 0.00 584.00 42.00" xmlns="http://www.w3.org/2000/svg" xmlns:xlink="http://www.w3.org/1999/xlink">
<g id="graph0" class="graph" transform="scale(1 1) rotate(0) translate(4 37.5)">
<title>init_noise_suppressor</title>
<!-- Node1 -->
<g id="Node000001" class="node">
<title>Node1</title>
<g id="a_Node000001"><a xlink:title=" ">
<polygon fill="#999999" stroke="#666666" points="121.75,-27.12 0,-27.12 0,-6.38 121.75,-6.38 121.75,-27.12"/>
<text xml:space="preserve" text-anchor="middle" x="60.88" y="-13.62" font-family="Helvetica,sans-Serif" font-size="10.00">init_noise_suppressor</text>
</a>
</g>
</g>
<!-- Node2 -->
<g id="Node000002" class="node">
<title>Node2</title>
<g id="a_Node000002"><a xlink:href="$m__effect_8c.html#a04f72018a5ac8693ac33407c9c163bdc" xlink:title=" ">
<polygon fill="white" stroke="#666666" points="281.75,-27.12 157.75,-27.12 157.75,-6.38 281.75,-6.38 281.75,-27.12"/>
<text xml:space="preserve" text-anchor="middle" x="219.75" y="-13.62" font-family="Helvetica,sans-Serif" font-size="10.00">effect_add_parameter</text>
</a>
</g>
</g>
<!-- Node1&#45;&gt;Node2 -->
<g id="edge1_Node000001_Node000002" class="edge">
<title>Node1&#45;&gt;Node2</title>
<g id="a_edge1_Node000001_Node000002"><a xlink:title=" ">
<path fill="none" stroke="#63b8ff" d="M122.08,-16.75C129.95,-16.75 138.08,-16.75 146.12,-16.75"/>
<polygon fill="#63b8ff" stroke="#63b8ff" points="145.9,-20.25 155.9,-16.75 145.9,-13.25 145.9,-20.25"/>
</a>
</g>
</g>
<!-- Node3 -->
<g id="Node000003" class="node">
<title>Node3</title>
<g id="a_Node000003"><a xlink:href="$m__parameter_8c.html#ac9a28134818c14fbd7ef921b535b28d8" xlink:title=" ">
<polygon fill="white" stroke="#666666" points="423.75,-27.12 317.75,-27.12 317.75,-6.38 423.75,-6.38 423.75,-27.12"/>
<text xml:space="preserve" text-anchor="middle" x="370.75" y="-13.62" font-family="Helvetica,sans-Serif" font-size="10.00">init_parameter_str</text>
</a>
</g>
</g>
<!-- Node2&#45;&gt;Node3 -->
<g id="edge2_Node000002_Node000003" class="edge">
<title>Node2&#45;&gt;Node3</title>
<g id="a_edge2_Node000002_Node000003"><a xlink:title=" ">
<path fill="none" stroke="#63b8ff" d="M282.21,-16.75C290.08,-16.75 298.14,-16.75 306.04,-16.75"/>
<polygon fill="#63b8ff" stroke="#63b8ff" points="305.94,-20.25 315.94,-16.75 305.94,-13.25 305.94,-20.25"/>
</a>
</g>
</g>
<!-- Node4 -->
<g id="Node000004" class="node">
<title>Node4</title>
<g id="a_Node000004"><a xlink:href="$m__parameter_8c.html#a6c029c4379be052a826c3a78b8dd1513" xlink:title=" ">
<polygon fill="#fff0f0" stroke="red" points="575.5,-33.5 459.75,-33.5 459.75,0 575.5,0 575.5,-33.5"/>
<text xml:space="preserve" text-anchor="start" x="467.75" y="-20" font-family="Helvetica,sans-Serif" font-size="10.00">m_parameter_effect</text>
<text xml:space="preserve" text-anchor="middle" x="517.62" y="-7.25" font-family="Helvetica,sans-Serif" font-size="10.00">_rep_update</text>
</a>
</g>
</g>
<!-- Node3&#45;&gt;Node4 -->
<g id="edge3_Node000003_Node000004" class="edge">
<title>Node3&#45;&gt;Node4</title>
<g id="a_edge3_Node000003_Node000004"><a xlink:title=" ">
<path fill="none" stroke="#63b8ff" d="M424.05,-16.75C431.88,-16.75 440.04,-16.75 448.14,-16.75"/>
<polygon fill="#63b8ff" stroke="#63b8ff" points="447.98,-20.25 457.98,-16.75 447.98,-13.25 447.98,-20.25"/>
</a>
</g>
</g>
</g>
</svg>
