<?xml version="1.0" encoding="UTF-8" standalone="no"?>
<!DOCTYPE svg PUBLIC "-//W3C//DTD SVG 1.1//EN"
 "http://www.w3.org/Graphics/SVG/1.1/DTD/svg11.dtd">
<!-- Generated by graphviz version 13.1.2 (20250808.2320)
 -->
<!-- Title: m_parser_error Pages: 1 -->
<svg width="711pt" height="138pt"
 viewBox="0.00 0.00 711.00 138.00" xmlns="http://www.w3.org/2000/svg" xmlns:xlink="http://www.w3.org/1999/xlink">
<g id="graph0" class="graph" transform="scale(1 1) rotate(0) translate(4 133.75)">
<title>m_parser_error</title>
<!-- Node1 -->
<g id="Node000001" class="node">
<title>Node1</title>
<g id="a_Node000001"><a xlink:title=" ">
<polygon fill="#999999" stroke="#666666" points="702.5,-39.75 612.25,-39.75 612.25,-19 702.5,-19 702.5,-39.75"/>
<text xml:space="preserve" text-anchor="middle" x="657.38" y="-26.25" font-family="Helvetica,sans-Serif" font-size="10.00">m_parser_error</text>
</a>
</g>
</g>
<!-- Node2 -->
<g id="Node000002" class="node">
<title>Node2</title>
<g id="a_Node000002"><a xlink:href="m__dictionary_8c.html#ab52fc5ead828b21f765fdd2819fac663" target="_top" xlink:title=" ">
<polygon fill="white" stroke="#666666" points="576.25,-106.75 464.25,-106.75 464.25,-86 576.25,-86 576.25,-106.75"/>
<text xml:space="preserve" text-anchor="middle" x="520.25" y="-93.25" font-family="Helvetica,sans-Serif" font-size="10.00">m_parse_dictionary</text>
</a>
</g>
</g>
<!-- Node1&#45;&gt;Node2 -->
<g id="edge1_Node000001_Node000002" class="edge">
<title>Node1&#45;&gt;Node2</title>
<g id="a_edge1_Node000001_Node000002"><a xlink:title=" ">
<path fill="none" stroke="#63b8ff" d="M624.52,-45.17C599.36,-57.64 564.95,-74.71 542.91,-85.64"/>
<polygon fill="#63b8ff" stroke="#63b8ff" points="625.9,-48.39 633.31,-40.81 622.79,-42.12 625.9,-48.39"/>
</a>
</g>
</g>
<!-- Node5 -->
<g id="Node000005" class="node">
<title>Node5</title>
<g id="a_Node000005"><a xlink:href="m__eff__parser_8c.html#a094727fab3d645bca2ba21a44ecc5749" target="_top" xlink:title=" ">
<polygon fill="white" stroke="#666666" points="280.25,-39.75 184.75,-39.75 184.75,-19 280.25,-19 280.25,-39.75"/>
<text xml:space="preserve" text-anchor="middle" x="232.5" y="-26.25" font-family="Helvetica,sans-Serif" font-size="10.00">m_parse_tokens</text>
</a>
</g>
</g>
<!-- Node1&#45;&gt;Node5 -->
<g id="edge7_Node000001_Node000005" class="edge">
<title>Node1&#45;&gt;Node5</title>
<g id="a_edge7_Node000001_Node000005"><a xlink:title=" ">
<path fill="none" stroke="#63b8ff" d="M600.57,-29.38C516.57,-29.38 359.12,-29.38 280.57,-29.38"/>
<polygon fill="#63b8ff" stroke="#63b8ff" points="600.41,-32.88 610.41,-29.38 600.41,-25.88 600.41,-32.88"/>
</a>
</g>
</g>
<!-- Node6 -->
<g id="Node000006" class="node">
<title>Node6</title>
<g id="a_Node000006"><a xlink:href="m__eff__parser_8c.html#aabfa1bb37d0bead1605fb10e348fe43c" target="_top" xlink:title=" ">
<polygon fill="#fff0f0" stroke="red" points="148.75,-20.75 0,-20.75 0,0 148.75,0 148.75,-20.75"/>
<text xml:space="preserve" text-anchor="middle" x="74.38" y="-7.25" font-family="Helvetica,sans-Serif" font-size="10.00">m_read_eff_desc_from_file</text>
</a>
</g>
</g>
<!-- Node1&#45;&gt;Node6 -->
<g id="edge8_Node000001_Node000006" class="edge">
<title>Node1&#45;&gt;Node6</title>
<g id="a_edge8_Node000001_Node000006"><a xlink:title=" ">
<path fill="none" stroke="#63b8ff" d="M600.56,-25.67C527.15,-21.01 394.1,-13.25 280.25,-10.38 236.69,-9.28 187.91,-9.23 148.87,-9.48"/>
<polygon fill="#63b8ff" stroke="#63b8ff" points="600.11,-29.15 610.31,-26.3 600.55,-22.17 600.11,-29.15"/>
</a>
</g>
</g>
<!-- Node3 -->
<g id="Node000003" class="node">
<title>Node3</title>
<g id="a_Node000003"><a xlink:href="m__dictionary_8c.html#aab1bb060fb0ff389ff2712d91ef17634" target="_top" xlink:title=" ">
<polygon fill="white" stroke="#666666" points="423,-129.75 321.5,-129.75 321.5,-109 423,-109 423,-129.75"/>
<text xml:space="preserve" text-anchor="middle" x="372.25" y="-116.25" font-family="Helvetica,sans-Serif" font-size="10.00">m_parse_dict_val</text>
</a>
</g>
</g>
<!-- Node2&#45;&gt;Node3 -->
<g id="edge2_Node000002_Node000003" class="edge">
<title>Node2&#45;&gt;Node3</title>
<g id="a_edge2_Node000002_Node000003"><a xlink:title=" ">
<path fill="none" stroke="#63b8ff" d="M452.82,-100.11C436.42,-102.58 419.59,-105.56 405.65,-108.55"/>
<polygon fill="#63b8ff" stroke="#63b8ff" points="453.15,-103.6 462.56,-98.72 452.16,-96.67 453.15,-103.6"/>
</a>
</g>
</g>
<!-- Node4 -->
<g id="Node000004" class="node">
<title>Node4</title>
<g id="a_Node000004"><a xlink:href="m__eff__section_8c.html#ad4898a5c5f76355d6a696bb0d6ee3b82" target="_top" xlink:title=" ">
<polygon fill="white" stroke="#666666" points="428.25,-91.12 316.25,-91.12 316.25,-57.62 428.25,-57.62 428.25,-91.12"/>
<text xml:space="preserve" text-anchor="start" x="324.25" y="-77.62" font-family="Helvetica,sans-Serif" font-size="10.00">m_parse_dictionary</text>
<text xml:space="preserve" text-anchor="middle" x="372.25" y="-64.88" font-family="Helvetica,sans-Serif" font-size="10.00">_section</text>
</a>
</g>
</g>
<!-- Node2&#45;&gt;Node4 -->
<g id="edge4_Node000002_Node000004" class="edge">
<title>Node2&#45;&gt;Node4</title>
<g id="a_edge4_Node000002_Node000004"><a xlink:title=" ">
<path fill="none" stroke="#63b8ff" d="M452.72,-86.35C444.63,-85.13 436.43,-83.9 428.52,-82.7"/>
<polygon fill="#63b8ff" stroke="#63b8ff" points="452.15,-89.8 462.56,-87.83 453.19,-82.88 452.15,-89.8"/>
</a>
</g>
</g>
<!-- Node3&#45;&gt;Node2 -->
<g id="edge3_Node000003_Node000002" class="edge">
<title>Node3&#45;&gt;Node2</title>
<g id="a_edge3_Node000003_Node000002"><a xlink:title=" ">
<path fill="none" stroke="#63b8ff" d="M434.65,-116.38C452.58,-113.79 471.48,-110.49 486.85,-107.2"/>
<polygon fill="#63b8ff" stroke="#63b8ff" points="434.28,-112.89 424.85,-117.72 435.23,-119.83 434.28,-112.89"/>
</a>
</g>
</g>
<!-- Node4&#45;&gt;Node5 -->
<g id="edge5_Node000004_Node000005" class="edge">
<title>Node4&#45;&gt;Node5</title>
<g id="a_edge5_Node000004_Node000005"><a xlink:title=" ">
<path fill="none" stroke="#63b8ff" d="M307.98,-53.71C293.72,-49.05 279.14,-44.28 266.7,-40.22"/>
<polygon fill="#63b8ff" stroke="#63b8ff" points="306.75,-56.99 317.34,-56.76 308.92,-50.33 306.75,-56.99"/>
</a>
</g>
</g>
<!-- Node5&#45;&gt;Node6 -->
<g id="edge6_Node000005_Node000006" class="edge">
<title>Node5&#45;&gt;Node6</title>
<g id="a_edge6_Node000005_Node000006"><a xlink:title=" ">
<path fill="none" stroke="#63b8ff" d="M173.31,-22.29C165.4,-21.33 157.19,-20.33 149.05,-19.34"/>
<polygon fill="#63b8ff" stroke="#63b8ff" points="172.81,-25.76 183.15,-23.49 173.65,-18.81 172.81,-25.76"/>
</a>
</g>
</g>
</g>
</svg>
