<?xml version="1.0" encoding="UTF-8" standalone="no"?>
<!DOCTYPE svg PUBLIC "-//W3C//DTD SVG 1.1//EN"
 "http://www.w3.org/Graphics/SVG/1.1/DTD/svg11.dtd">
<!-- Generated by graphviz version 13.1.2 (20250808.2320)
 -->
<!-- Title: m_parser_error_at_line Pages: 1 -->
<!--zoomable 107 -->

<svg id="main" version="1.1" xmlns="http://www.w3.org/2000/svg" xmlns:xlink="http://www.w3.org/1999/xlink" xml:space="preserve" onload="init(evt)">

<style type="text/css"><![CDATA[
.node, .edge {opacity: 0.7;}
.node.selected, .edge.selected {opacity: 1;}
.edge:hover path { stroke: red; }
.edge:hover polygon { stroke: red; fill: red; }
]]></style>

<defs>
  <circle id="rim" cx="0" cy="0" r="7"/>
  <circle id="rim2" cx="0" cy="0" r="3.5"/>
  <g id="zoomPlus">
    <use xlink:href="#rim" fill="#404040"><set attributeName="fill" to="#808080" begin="zoomplus.mouseover" end="zoomplus.mouseout"/></use>
    <path d="M-4,0h8M0,-4v8" fill="none" stroke="white" stroke-width="1.5" pointer-events="none"/>
  </g>
  <g id="zoomMin">
    <use xlink:href="#rim" fill="#404040"><set attributeName="fill" to="#808080" begin="zoomminus.mouseover" end="zoomminus.mouseout"/></use>
    <path d="M-4,0h8" fill="none" stroke="white" stroke-width="1.5" pointer-events="none"/>
  </g>
  <g id="arrowUp" transform="translate(30 24)">
    <use xlink:href="#rim"/>
    <path pointer-events="none" fill="none" stroke="white" stroke-width="1.5" d="M0,-3.0v7 M-2.5,-0.5L0,-3.0L2.5,-0.5"/>
  </g>
  <g id="arrowRight" transform="rotate(90) translate(36 -43)">
    <use xlink:href="#rim"/>
    <path pointer-events="none" fill="none" stroke="white" stroke-width="1.5" d="M0,-3.0v7 M-2.5,-0.5L0,-3.0L2.5,-0.5"/>
  </g>
  <g id="arrowDown" transform="rotate(180) translate(-30 -48)">
    <use xlink:href="#rim"/>
    <path pointer-events="none" fill="none" stroke="white" stroke-width="1.5" d="M0,-3.0v7 M-2.5,-0.5L0,-3.0L2.5,-0.5"/>
  </g>
  <g id="arrowLeft" transform="rotate(270) translate(-36 17)">
    <use xlink:href="#rim"/>
    <path pointer-events="none" fill="none" stroke="white" stroke-width="1.5" d="M0,-3.0v7 M-2.5,-0.5L0,-3.0L2.5,-0.5"/>
  </g>
  <g id="resetDef">
    <use xlink:href="#rim2" fill="#404040"><set attributeName="fill" to="#808080" begin="reset.mouseover" end="reset.mouseout"/></use>
  </g>
</defs>
<script type="application/ecmascript">
var viewWidth = 649;
var viewHeight = 107;
var sectionId = 'dynsection-14';
</script>
<script type="application/ecmascript" xlink:href="svg.min.js"/>
<svg id="graph" class="graph">
<g id="viewport">
<title>m_parser_error_at_line</title>
<!-- Node1 -->
<g id="Node000001" class="node">
<title>Node1</title>
<g id="a_Node000001"><a xlink:title=" ">
<polygon fill="#999999" stroke="#666666" points="640.75,-59.75 512.25,-59.75 512.25,-39 640.75,-39 640.75,-59.75"/>
<text xml:space="preserve" text-anchor="middle" x="576.5" y="-46.25" font-family="Helvetica,sans-Serif" font-size="10.00">m_parser_error_at_line</text>
</a>
</g>
</g>
<!-- Node2 -->
<g id="Node000002" class="node">
<title>Node2</title>
<g id="a_Node000002"><a xlink:href="m__eff__section_8c.html#a447e0fea04761abdb92895b668b51bec" target="_top" xlink:title=" ">
<polygon fill="white" stroke="#666666" points="476.25,-98.75 344,-98.75 344,-78 476.25,-78 476.25,-98.75"/>
<text xml:space="preserve" text-anchor="middle" x="410.12" y="-85.25" font-family="Helvetica,sans-Serif" font-size="10.00">m_defs_section_extract</text>
</a>
</g>
</g>
<!-- Node1&#45;&gt;Node2 -->
<g id="edge1_Node000001_Node000002" class="edge">
<title>Node1&#45;&gt;Node2</title>
<g id="a_edge1_Node000001_Node000002"><a xlink:title=" ">
<path fill="none" stroke="#63b8ff" d="M518.77,-62.84C498.58,-67.63 476.11,-72.96 456.95,-77.5"/>
<polygon fill="#63b8ff" stroke="#63b8ff" points="519.32,-66.3 528.24,-60.59 517.7,-59.49 519.32,-66.3"/>
</a>
</g>
</g>
<!-- Node9 -->
<g id="Node000009" class="node">
<title>Node9</title>
<g id="a_Node000009"><a xlink:href="m__asm__parser_8c.html#a53a02c89e58384532245d20816e4746a" target="_top" xlink:title=" ">
<polygon fill="white" stroke="#666666" points="469.12,-59.75 351.12,-59.75 351.12,-39 469.12,-39 469.12,-59.75"/>
<text xml:space="preserve" text-anchor="middle" x="410.12" y="-46.25" font-family="Helvetica,sans-Serif" font-size="10.00">m_process_asm_line</text>
</a>
</g>
</g>
<!-- Node1&#45;&gt;Node9 -->
<g id="edge4_Node000001_Node000009" class="edge">
<title>Node1&#45;&gt;Node9</title>
<g id="a_edge4_Node000001_Node000009"><a xlink:title=" ">
<path fill="none" stroke="#63b8ff" d="M500.66,-49.38C490.17,-49.38 479.52,-49.38 469.4,-49.38"/>
<polygon fill="#63b8ff" stroke="#63b8ff" points="500.43,-52.88 510.43,-49.38 500.43,-45.88 500.43,-52.88"/>
</a>
</g>
</g>
<!-- Node11 -->
<g id="Node000011" class="node">
<title>Node11</title>
<g id="a_Node000011"><a xlink:href="m__tokenizer_8c.html#a8f302737f17d0ebe5a59362afcf57b13" target="_top" xlink:title=" ">
<polygon fill="white" stroke="#666666" points="303.5,-20.75 189.25,-20.75 189.25,0 303.5,0 303.5,-20.75"/>
<text xml:space="preserve" text-anchor="middle" x="246.38" y="-7.25" font-family="Helvetica,sans-Serif" font-size="10.00">m_tokenize_content</text>
</a>
</g>
</g>
<!-- Node1&#45;&gt;Node11 -->
<g id="edge7_Node000001_Node000011" class="edge">
<title>Node1&#45;&gt;Node11</title>
<g id="a_edge7_Node000001_Node000011"><a xlink:title=" ">
<path fill="none" stroke="#63b8ff" d="M513.14,-36.43C500.94,-34.18 488.22,-32.04 476.25,-30.38 417.78,-22.25 350.42,-16.83 303.99,-13.71"/>
<polygon fill="#63b8ff" stroke="#63b8ff" points="512.19,-39.81 522.67,-38.23 513.49,-32.94 512.19,-39.81"/>
</a>
</g>
</g>
<!-- Node3 -->
<g id="Node000003" class="node">
<title>Node3</title>
<g id="a_Node000003"><a xlink:href="m__eff__parser_8c.html#a094727fab3d645bca2ba21a44ecc5749" target="_top" xlink:title=" ">
<polygon fill="white" stroke="#666666" points="294.12,-98.75 198.62,-98.75 198.62,-78 294.12,-78 294.12,-98.75"/>
<text xml:space="preserve" text-anchor="middle" x="246.38" y="-85.25" font-family="Helvetica,sans-Serif" font-size="10.00">m_parse_tokens</text>
</a>
</g>
</g>
<!-- Node2&#45;&gt;Node3 -->
<g id="edge2_Node000002_Node000003" class="edge">
<title>Node2&#45;&gt;Node3</title>
<g id="a_edge2_Node000002_Node000003"><a xlink:title=" ">
<path fill="none" stroke="#63b8ff" d="M332.49,-88.38C319.54,-88.38 306.45,-88.38 294.54,-88.38"/>
<polygon fill="#63b8ff" stroke="#63b8ff" points="332.29,-91.88 342.29,-88.38 332.29,-84.88 332.29,-91.88"/>
</a>
</g>
</g>
<!-- Node4 -->
<g id="Node000004" class="node">
<title>Node4</title>
<g id="a_Node000004"><a xlink:href="m__eff__parser_8c.html#aabfa1bb37d0bead1605fb10e348fe43c" target="_top" xlink:title=" ">
<polygon fill="#fff0f0" stroke="red" points="148.75,-59.75 0,-59.75 0,-39 148.75,-39 148.75,-59.75"/>
<text xml:space="preserve" text-anchor="middle" x="74.38" y="-46.25" font-family="Helvetica,sans-Serif" font-size="10.00">m_read_eff_desc_from_file</text>
</a>
</g>
</g>
<!-- Node3&#45;&gt;Node4 -->
<g id="edge3_Node000003_Node000004" class="edge">
<title>Node3&#45;&gt;Node4</title>
<g id="a_edge3_Node000003_Node000004"><a xlink:title=" ">
<path fill="none" stroke="#63b8ff" d="M187.38,-75.07C166.31,-70.24 142.76,-64.83 122.72,-60.24"/>
<polygon fill="#63b8ff" stroke="#63b8ff" points="186.47,-78.45 197,-77.28 188.03,-71.63 186.47,-78.45"/>
</a>
</g>
</g>
<!-- Node10 -->
<g id="Node000010" class="node">
<title>Node10</title>
<g id="a_Node000010"><a xlink:href="m__asm__parser_8c.html#a5e63a6768655e70bb27172c6299ca081" target="_top" xlink:title=" ">
<polygon fill="white" stroke="#666666" points="308,-59.75 184.75,-59.75 184.75,-39 308,-39 308,-59.75"/>
<text xml:space="preserve" text-anchor="middle" x="246.38" y="-46.25" font-family="Helvetica,sans-Serif" font-size="10.00">m_process_asm_lines</text>
</a>
</g>
</g>
<!-- Node9&#45;&gt;Node10 -->
<g id="edge5_Node000009_Node000010" class="edge">
<title>Node9&#45;&gt;Node10</title>
<g id="a_edge5_Node000009_Node000010"><a xlink:title=" ">
<path fill="none" stroke="#63b8ff" d="M339.27,-49.38C329,-49.38 318.49,-49.38 308.41,-49.38"/>
<polygon fill="#63b8ff" stroke="#63b8ff" points="339.22,-52.88 349.22,-49.38 339.22,-45.88 339.22,-52.88"/>
</a>
</g>
</g>
<!-- Node10&#45;&gt;Node4 -->
<g id="edge6_Node000010_Node000004" class="edge">
<title>Node10&#45;&gt;Node4</title>
<g id="a_edge6_Node000010_Node000004"><a xlink:title=" ">
<path fill="none" stroke="#63b8ff" d="M173.05,-49.38C165.16,-49.38 157.12,-49.38 149.21,-49.38"/>
<polygon fill="#63b8ff" stroke="#63b8ff" points="172.97,-52.88 182.97,-49.38 172.97,-45.88 172.97,-52.88"/>
</a>
</g>
</g>
<!-- Node11&#45;&gt;Node4 -->
<g id="edge8_Node000011_Node000004" class="edge">
<title>Node11&#45;&gt;Node4</title>
<g id="a_edge8_Node000011_Node000004"><a xlink:title=" ">
<path fill="none" stroke="#63b8ff" d="M186.99,-23.77C166.03,-28.58 142.68,-33.93 122.77,-38.5"/>
<polygon fill="#63b8ff" stroke="#63b8ff" points="187.58,-27.22 196.55,-21.58 186.02,-20.4 187.58,-27.22"/>
</a>
</g>
</g>
</g>
</svg>

<g id="navigator" transform="translate(0 0)" fill="#404254">
  <rect fill="#f2f5e9" fill-opacity="0.5" stroke="#606060" stroke-width=".5" x="0" y="0" width="60" height="60"/>
  <use id="zoomplus" xlink:href="#zoomPlus" x="17" y="9" onmousedown="handleZoom(evt,'in')"/>
  <use id="zoomminus" xlink:href="#zoomMin" x="42" y="9" onmousedown="handleZoom(evt,'out')"/>
  <use id="reset" xlink:href="#resetDef" x="30" y="36" onmousedown="handleReset()"/>
   <use id="arrowup" xlink:href="#arrowUp" x="0" y="0" onmousedown="handlePan(0,-1)"/>
  <use id="arrowright" xlink:href="#arrowRight" x="0" y="0" onmousedown="handlePan(1,0)"/>
  <use id="arrowdown" xlink:href="#arrowDown" x="0" y="0" onmousedown="handlePan(0,1)"/>
  <use id="arrowleft" xlink:href="#arrowLeft" x="0" y="0" onmousedown="handlePan(-1,0)"/>
</g>
<svg viewBox="0 0 15 15" width="100%" height="30px" preserveAspectRatio="xMaxYMin meet">
 <g id="arrow_out" transform="scale(0.3 0.3)">
  <a xlink:href="m__eff__parser_8c_ad9eb07d549a255718539a9f825d2d630_icgraph_org.svg" target="_base">
   <rect id="button" ry="5" rx="5" y="6" x="6" height="38" width="38"
        fill="#f2f5e9" fill-opacity="0.5" stroke="#606060" stroke-width="1.0"/>
   <path id="arrow"
     d="M 11.500037,31.436501 C 11.940474,20.09759 22.043105,11.32322 32.158766,21.979434 L 37.068811,17.246167 C 37.068811,17.246167 37.088388,32 37.088388,32 L 22.160133,31.978069 C 22.160133,31.978069 26.997745,27.140456 26.997745,27.140456 C 18.528582,18.264221 13.291696,25.230495 11.500037,31.436501 z"
     style="fill:#404040;"/>
  </a>
 </g>
</svg>

<style type='text/css'>
<![CDATA[
[data-mouse-over-selected='false'] { opacity: 0.7; }
[data-mouse-over-selected='true']  { opacity: 1.0; }
]]>
</style>
<script type="application/ecmascript"><![CDATA[
document.addEventListener('DOMContentLoaded', (event) => {
  highlightEdges();
  highlightAdjacentNodes();
});
]]></script>
</svg>
