<?xml version="1.0" encoding="UTF-8" standalone="no"?>
<!DOCTYPE svg PUBLIC "-//W3C//DTD SVG 1.1//EN"
 "http://www.w3.org/Graphics/SVG/1.1/DTD/svg11.dtd">
<!-- Generated by graphviz version 13.1.2 (20250808.2320)
 -->
<!-- Title: m_fpga_batch_append_effects Pages: 1 -->
<svg width="621pt" height="94pt"
 viewBox="0.00 0.00 621.00 94.00" xmlns="http://www.w3.org/2000/svg" xmlns:xlink="http://www.w3.org/1999/xlink">
<g id="graph0" class="graph" transform="scale(1 1) rotate(0) translate(4 89.5)">
<title>m_fpga_batch_append_effects</title>
<!-- Node1 -->
<g id="Node000001" class="node">
<title>Node1</title>
<g id="a_Node000001"><a xlink:title=" ">
<polygon fill="#999999" stroke="#666666" points="126.25,-59.5 0,-59.5 0,-26 126.25,-26 126.25,-59.5"/>
<text xml:space="preserve" text-anchor="start" x="8" y="-46" font-family="Helvetica,sans-Serif" font-size="10.00">m_fpga_batch_append</text>
<text xml:space="preserve" text-anchor="middle" x="63.12" y="-33.25" font-family="Helvetica,sans-Serif" font-size="10.00">_effects</text>
</a>
</g>
</g>
<!-- Node2 -->
<g id="Node000002" class="node">
<title>Node2</title>
<g id="a_Node000002"><a xlink:href="m__fpga__encoding_8c.html#ac2e2a01c8e7cf4f4c930081469eda806" target="_top" xlink:title=" ">
<polygon fill="white" stroke="#666666" points="288.5,-59.5 162.25,-59.5 162.25,-26 288.5,-26 288.5,-59.5"/>
<text xml:space="preserve" text-anchor="start" x="170.25" y="-46" font-family="Helvetica,sans-Serif" font-size="10.00">m_fpga_batch_append</text>
<text xml:space="preserve" text-anchor="middle" x="225.38" y="-33.25" font-family="Helvetica,sans-Serif" font-size="10.00">_effect</text>
</a>
</g>
</g>
<!-- Node1&#45;&gt;Node2 -->
<g id="edge1_Node000001_Node000002" class="edge">
<title>Node1&#45;&gt;Node2</title>
<g id="a_edge1_Node000001_Node000002"><a xlink:title=" ">
<path fill="none" stroke="#63b8ff" d="M126.54,-42.75C134.43,-42.75 142.55,-42.75 150.59,-42.75"/>
<polygon fill="#63b8ff" stroke="#63b8ff" points="150.35,-46.25 160.35,-42.75 150.35,-39.25 150.35,-46.25"/>
</a>
</g>
</g>
<!-- Node3 -->
<g id="Node000003" class="node">
<title>Node3</title>
<g id="a_Node000003"><a xlink:href="m__fpga__encoding_8c.html#ac151df6aba44fd98b1759e57667dcb15" target="_top" xlink:title=" ">
<polygon fill="white" stroke="#666666" points="450.75,-59.5 324.5,-59.5 324.5,-26 450.75,-26 450.75,-59.5"/>
<text xml:space="preserve" text-anchor="start" x="332.5" y="-46" font-family="Helvetica,sans-Serif" font-size="10.00">m_fpga_batch_append</text>
<text xml:space="preserve" text-anchor="middle" x="387.62" y="-33.25" font-family="Helvetica,sans-Serif" font-size="10.00">_eff_desc</text>
</a>
</g>
</g>
<!-- Node2&#45;&gt;Node3 -->
<g id="edge2_Node000002_Node000003" class="edge">
<title>Node2&#45;&gt;Node3</title>
<g id="a_edge2_Node000002_Node000003"><a xlink:title=" ">
<path fill="none" stroke="#63b8ff" d="M288.79,-42.75C296.68,-42.75 304.8,-42.75 312.84,-42.75"/>
<polygon fill="#63b8ff" stroke="#63b8ff" points="312.6,-46.25 322.6,-42.75 312.6,-39.25 312.6,-46.25"/>
</a>
</g>
</g>
<!-- Node4 -->
<g id="Node000004" class="node">
<title>Node4</title>
<g id="a_Node000004"><a xlink:href="m__fpga__encoding_8c.html#aea22ac5d0af6bd21fb5545d8720c808d" target="_top" xlink:title=" ">
<polygon fill="#fff0f0" stroke="red" points="613,-85.5 486.75,-85.5 486.75,-52 613,-52 613,-85.5"/>
<text xml:space="preserve" text-anchor="start" x="494.75" y="-72" font-family="Helvetica,sans-Serif" font-size="10.00">m_fpga_batch_append</text>
<text xml:space="preserve" text-anchor="middle" x="549.88" y="-59.25" font-family="Helvetica,sans-Serif" font-size="10.00">_blocks</text>
</a>
</g>
</g>
<!-- Node3&#45;&gt;Node4 -->
<g id="edge3_Node000003_Node000004" class="edge">
<title>Node3&#45;&gt;Node4</title>
<g id="a_edge3_Node000003_Node000004"><a xlink:title=" ">
<path fill="none" stroke="#63b8ff" d="M451.04,-52.88C458.93,-54.16 467.05,-55.47 475.09,-56.78"/>
<polygon fill="#63b8ff" stroke="#63b8ff" points="474.44,-60.22 484.87,-58.37 475.56,-53.31 474.44,-60.22"/>
</a>
</g>
</g>
<!-- Node19 -->
<g id="Node000019" class="node">
<title>Node19</title>
<g id="a_Node000019"><a xlink:href="m__fpga__encoding_8c.html#ad46dcf958f11478de5273cf90e19004a" target="_top" xlink:title=" ">
<polygon fill="#fff0f0" stroke="red" points="613,-33.5 486.75,-33.5 486.75,0 613,0 613,-33.5"/>
<text xml:space="preserve" text-anchor="start" x="494.75" y="-20" font-family="Helvetica,sans-Serif" font-size="10.00">m_fpga_batch_append</text>
<text xml:space="preserve" text-anchor="middle" x="549.88" y="-7.25" font-family="Helvetica,sans-Serif" font-size="10.00">_resources</text>
</a>
</g>
</g>
<!-- Node3&#45;&gt;Node19 -->
<g id="edge4_Node000003_Node000019" class="edge">
<title>Node3&#45;&gt;Node19</title>
<g id="a_edge4_Node000003_Node000019"><a xlink:title=" ">
<path fill="none" stroke="#63b8ff" d="M451.04,-32.62C458.93,-31.34 467.05,-30.03 475.09,-28.72"/>
<polygon fill="#63b8ff" stroke="#63b8ff" points="475.56,-32.19 484.87,-27.13 474.44,-25.28 475.56,-32.19"/>
</a>
</g>
</g>
</g>
</svg>
