<?xml version="1.0" encoding="UTF-8" standalone="no"?>
<!DOCTYPE svg PUBLIC "-//W3C//DTD SVG 1.1//EN"
 "http://www.w3.org/Graphics/SVG/1.1/DTD/svg11.dtd">
<!-- Generated by graphviz version 13.1.2 (20250808.2320)
 -->
<!-- Title: m_fpga_batch_append_eff_desc Pages: 1 -->
<!--zoomable 190 -->

<svg id="main" version="1.1" xmlns="http://www.w3.org/2000/svg" xmlns:xlink="http://www.w3.org/1999/xlink" xml:space="preserve" onload="init(evt)">

<style type="text/css"><![CDATA[
.node, .edge {opacity: 0.7;}
.node.selected, .edge.selected {opacity: 1;}
.edge:hover path { stroke: red; }
.edge:hover polygon { stroke: red; fill: red; }
]]></style>

<defs>
  <circle id="rim" cx="0" cy="0" r="7"/>
  <circle id="rim2" cx="0" cy="0" r="3.5"/>
  <g id="zoomPlus">
    <use xlink:href="#rim" fill="#404040"><set attributeName="fill" to="#808080" begin="zoomplus.mouseover" end="zoomplus.mouseout"/></use>
    <path d="M-4,0h8M0,-4v8" fill="none" stroke="white" stroke-width="1.5" pointer-events="none"/>
  </g>
  <g id="zoomMin">
    <use xlink:href="#rim" fill="#404040"><set attributeName="fill" to="#808080" begin="zoomminus.mouseover" end="zoomminus.mouseout"/></use>
    <path d="M-4,0h8" fill="none" stroke="white" stroke-width="1.5" pointer-events="none"/>
  </g>
  <g id="arrowUp" transform="translate(30 24)">
    <use xlink:href="#rim"/>
    <path pointer-events="none" fill="none" stroke="white" stroke-width="1.5" d="M0,-3.0v7 M-2.5,-0.5L0,-3.0L2.5,-0.5"/>
  </g>
  <g id="arrowRight" transform="rotate(90) translate(36 -43)">
    <use xlink:href="#rim"/>
    <path pointer-events="none" fill="none" stroke="white" stroke-width="1.5" d="M0,-3.0v7 M-2.5,-0.5L0,-3.0L2.5,-0.5"/>
  </g>
  <g id="arrowDown" transform="rotate(180) translate(-30 -48)">
    <use xlink:href="#rim"/>
    <path pointer-events="none" fill="none" stroke="white" stroke-width="1.5" d="M0,-3.0v7 M-2.5,-0.5L0,-3.0L2.5,-0.5"/>
  </g>
  <g id="arrowLeft" transform="rotate(270) translate(-36 17)">
    <use xlink:href="#rim"/>
    <path pointer-events="none" fill="none" stroke="white" stroke-width="1.5" d="M0,-3.0v7 M-2.5,-0.5L0,-3.0L2.5,-0.5"/>
  </g>
  <g id="resetDef">
    <use xlink:href="#rim2" fill="#404040"><set attributeName="fill" to="#808080" begin="reset.mouseover" end="reset.mouseout"/></use>
  </g>
</defs>
<script type="application/ecmascript">
var viewWidth = 807;
var viewHeight = 190;
var sectionId = 'dynsection-19';
</script>
<script type="application/ecmascript" xlink:href="svg.min.js"/>
<svg id="graph" class="graph">
<g id="viewport">
<title>m_fpga_batch_append_eff_desc</title>
<!-- Node1 -->
<g id="Node000001" class="node">
<title>Node1</title>
<g id="a_Node000001"><a xlink:title=" ">
<polygon fill="#999999" stroke="#666666" points="126.25,-111.5 0,-111.5 0,-78 126.25,-78 126.25,-111.5"/>
<text xml:space="preserve" text-anchor="start" x="8" y="-98" font-family="Helvetica,sans-Serif" font-size="10.00">m_fpga_batch_append</text>
<text xml:space="preserve" text-anchor="middle" x="63.12" y="-85.25" font-family="Helvetica,sans-Serif" font-size="10.00">_eff_desc</text>
</a>
</g>
</g>
<!-- Node2 -->
<g id="Node000002" class="node">
<title>Node2</title>
<g id="a_Node000002"><a xlink:href="m__fpga__encoding_8c.html#aea22ac5d0af6bd21fb5545d8720c808d" target="_top" xlink:title=" ">
<polygon fill="white" stroke="#666666" points="288.5,-85.5 162.25,-85.5 162.25,-52 288.5,-52 288.5,-85.5"/>
<text xml:space="preserve" text-anchor="start" x="170.25" y="-72" font-family="Helvetica,sans-Serif" font-size="10.00">m_fpga_batch_append</text>
<text xml:space="preserve" text-anchor="middle" x="225.38" y="-59.25" font-family="Helvetica,sans-Serif" font-size="10.00">_blocks</text>
</a>
</g>
</g>
<!-- Node1&#45;&gt;Node2 -->
<g id="edge1_Node000001_Node000002" class="edge">
<title>Node1&#45;&gt;Node2</title>
<g id="a_edge1_Node000001_Node000002"><a xlink:title=" ">
<path fill="none" stroke="#63b8ff" d="M126.54,-84.62C134.43,-83.34 142.55,-82.03 150.59,-80.72"/>
<polygon fill="#63b8ff" stroke="#63b8ff" points="151.06,-84.19 160.37,-79.13 149.94,-77.28 151.06,-84.19"/>
</a>
</g>
</g>
<!-- Node17 -->
<g id="Node000017" class="node">
<title>Node17</title>
<g id="a_Node000017"><a xlink:href="m__fpga__encoding_8c.html#ad46dcf958f11478de5273cf90e19004a" target="_top" xlink:title=" ">
<polygon fill="white" stroke="#666666" points="288.5,-137.5 162.25,-137.5 162.25,-104 288.5,-104 288.5,-137.5"/>
<text xml:space="preserve" text-anchor="start" x="170.25" y="-124" font-family="Helvetica,sans-Serif" font-size="10.00">m_fpga_batch_append</text>
<text xml:space="preserve" text-anchor="middle" x="225.38" y="-111.25" font-family="Helvetica,sans-Serif" font-size="10.00">_resources</text>
</a>
</g>
</g>
<!-- Node1&#45;&gt;Node17 -->
<g id="edge8_Node000001_Node000017" class="edge">
<title>Node1&#45;&gt;Node17</title>
<g id="a_edge8_Node000001_Node000017"><a xlink:title=" ">
<path fill="none" stroke="#63b8ff" d="M126.54,-104.88C134.43,-106.16 142.55,-107.47 150.59,-108.78"/>
<polygon fill="#63b8ff" stroke="#63b8ff" points="149.94,-112.22 160.37,-110.37 151.06,-105.31 149.94,-112.22"/>
</a>
</g>
</g>
<!-- Node3 -->
<g id="Node000003" class="node">
<title>Node3</title>
<g id="a_Node000003"><a xlink:href="m__fpga__encoding_8c.html#abac3fcba7e7e7639b631f00a6986d268" target="_top" xlink:title=" ">
<polygon fill="white" stroke="#666666" points="450.75,-85.5 324.5,-85.5 324.5,-52 450.75,-52 450.75,-85.5"/>
<text xml:space="preserve" text-anchor="start" x="332.5" y="-72" font-family="Helvetica,sans-Serif" font-size="10.00">m_fpga_batch_append</text>
<text xml:space="preserve" text-anchor="middle" x="387.62" y="-59.25" font-family="Helvetica,sans-Serif" font-size="10.00">_block</text>
</a>
</g>
</g>
<!-- Node2&#45;&gt;Node3 -->
<g id="edge2_Node000002_Node000003" class="edge">
<title>Node2&#45;&gt;Node3</title>
<g id="a_edge2_Node000002_Node000003"><a xlink:title=" ">
<path fill="none" stroke="#63b8ff" d="M288.79,-68.75C296.68,-68.75 304.8,-68.75 312.84,-68.75"/>
<polygon fill="#63b8ff" stroke="#63b8ff" points="312.6,-72.25 322.6,-68.75 312.6,-65.25 312.6,-72.25"/>
</a>
</g>
</g>
<!-- Node4 -->
<g id="Node000004" class="node">
<title>Node4</title>
<g id="a_Node000004"><a xlink:href="m__fpga__encoding_8c.html#a7e68d5d716fe56819193feb81f67ab7f" target="_top" xlink:title=" ">
<polygon fill="#fff0f0" stroke="red" points="621.62,-85.5 495.38,-85.5 495.38,-52 621.62,-52 621.62,-85.5"/>
<text xml:space="preserve" text-anchor="start" x="503.38" y="-72" font-family="Helvetica,sans-Serif" font-size="10.00">m_fpga_batch_append</text>
<text xml:space="preserve" text-anchor="middle" x="558.5" y="-59.25" font-family="Helvetica,sans-Serif" font-size="10.00">_block_instr</text>
</a>
</g>
</g>
<!-- Node3&#45;&gt;Node4 -->
<g id="edge3_Node000003_Node000004" class="edge">
<title>Node3&#45;&gt;Node4</title>
<g id="a_edge3_Node000003_Node000004"><a xlink:title=" ">
<path fill="none" stroke="#63b8ff" d="M451.03,-68.75C461.7,-68.75 472.87,-68.75 483.8,-68.75"/>
<polygon fill="#63b8ff" stroke="#63b8ff" points="483.56,-72.25 493.56,-68.75 483.56,-65.25 483.56,-72.25"/>
</a>
</g>
</g>
<!-- Node14 -->
<g id="Node000014" class="node">
<title>Node14</title>
<g id="a_Node000014"><a xlink:href="m__fpga__encoding_8c.html#aa8dd4370776129bcaab2189ba91ec871" target="_top" xlink:title=" ">
<polygon fill="#fff0f0" stroke="red" points="621.62,-33.5 495.38,-33.5 495.38,0 621.62,0 621.62,-33.5"/>
<text xml:space="preserve" text-anchor="start" x="503.38" y="-20" font-family="Helvetica,sans-Serif" font-size="10.00">m_fpga_batch_append</text>
<text xml:space="preserve" text-anchor="middle" x="558.5" y="-7.25" font-family="Helvetica,sans-Serif" font-size="10.00">_block_regs</text>
</a>
</g>
</g>
<!-- Node3&#45;&gt;Node14 -->
<g id="edge5_Node000003_Node000014" class="edge">
<title>Node3&#45;&gt;Node14</title>
<g id="a_edge5_Node000003_Node000014"><a xlink:title=" ">
<path fill="none" stroke="#63b8ff" d="M444.39,-51.58C459.16,-47.03 475.25,-42.08 490.54,-37.37"/>
<polygon fill="#63b8ff" stroke="#63b8ff" points="491.53,-40.72 500.06,-34.44 489.47,-34.03 491.53,-40.72"/>
</a>
</g>
</g>
<!-- Node10 -->
<g id="Node000010" class="node">
<title>Node10</title>
<g id="a_Node000010"><a xlink:href="m__fpga__io_8c.html#a3e6e7ed1d51243448b55471969a93aa1" target="_top" xlink:title=" ">
<polygon fill="white" stroke="#666666" points="795.5,-120.12 669.25,-120.12 669.25,-99.38 795.5,-99.38 795.5,-120.12"/>
<text xml:space="preserve" text-anchor="middle" x="732.38" y="-106.62" font-family="Helvetica,sans-Serif" font-size="10.00">m_fpga_batch_append</text>
</a>
</g>
</g>
<!-- Node4&#45;&gt;Node10 -->
<g id="edge4_Node000004_Node000010" class="edge">
<title>Node4&#45;&gt;Node10</title>
<g id="a_edge4_Node000004_Node000010"><a xlink:title=" ">
<path fill="none" stroke="#63b8ff" d="M622.04,-83.67C639.36,-87.8 658.05,-92.26 675,-96.3"/>
<polygon fill="#63b8ff" stroke="#63b8ff" points="673.84,-99.62 684.38,-98.54 675.47,-92.82 673.84,-99.62"/>
</a>
</g>
</g>
<!-- Node14&#45;&gt;Node10 -->
<g id="edge7_Node000014_Node000010" class="edge">
<title>Node14&#45;&gt;Node10</title>
<g id="a_edge7_Node000014_Node000010"><a xlink:title=" ">
<path fill="none" stroke="#63b8ff" d="M614.56,-33.83C620.06,-36.46 625.39,-39.42 630.25,-42.75 650.25,-56.47 646.44,-69.76 666.25,-83.75 672.06,-87.85 678.6,-91.44 685.25,-94.53"/>
<polygon fill="#63b8ff" stroke="#63b8ff" points="683.72,-97.68 694.3,-98.38 686.47,-91.24 683.72,-97.68"/>
</a>
</g>
</g>
<!-- Node16 -->
<g id="Node000016" class="node">
<title>Node16</title>
<g id="a_Node000016"><a xlink:href="m__expression_8c.html#a0938d229ef0ec131b65241e93dc6166d" target="_top" xlink:title=" ">
<polygon fill="white" stroke="#666666" points="798.5,-75.12 666.25,-75.12 666.25,-54.38 798.5,-54.38 798.5,-75.12"/>
<text xml:space="preserve" text-anchor="middle" x="732.38" y="-61.62" font-family="Helvetica,sans-Serif" font-size="10.00">m_expression_evaluate</text>
</a>
</g>
</g>
<!-- Node14&#45;&gt;Node16 -->
<g id="edge6_Node000014_Node000016" class="edge">
<title>Node14&#45;&gt;Node16</title>
<g id="a_edge6_Node000014_Node000016"><a xlink:title=" ">
<path fill="none" stroke="#63b8ff" d="M621.07,-33.94C640.94,-39.49 662.71,-45.57 681.62,-50.86"/>
<polygon fill="#63b8ff" stroke="#63b8ff" points="680.66,-54.22 691.23,-53.54 682.54,-47.48 680.66,-54.22"/>
</a>
</g>
</g>
<!-- Node18 -->
<g id="Node000018" class="node">
<title>Node18</title>
<g id="a_Node000018"><a xlink:href="m__fpga__encoding_8c.html#aa4906bf5257372ebc06dab8676fd13ac" target="_top" xlink:title=" ">
<polygon fill="white" stroke="#666666" points="450.75,-152.5 324.5,-152.5 324.5,-119 450.75,-119 450.75,-152.5"/>
<text xml:space="preserve" text-anchor="start" x="332.5" y="-139" font-family="Helvetica,sans-Serif" font-size="10.00">m_fpga_batch_append</text>
<text xml:space="preserve" text-anchor="middle" x="387.62" y="-126.25" font-family="Helvetica,sans-Serif" font-size="10.00">_resource</text>
</a>
</g>
</g>
<!-- Node17&#45;&gt;Node18 -->
<g id="edge9_Node000017_Node000018" class="edge">
<title>Node17&#45;&gt;Node18</title>
<g id="a_edge9_Node000017_Node000018"><a xlink:title=" ">
<path fill="none" stroke="#63b8ff" d="M288.79,-126.59C296.68,-127.33 304.8,-128.09 312.84,-128.84"/>
<polygon fill="#63b8ff" stroke="#63b8ff" points="312.33,-132.31 322.61,-129.76 312.98,-125.34 312.33,-132.31"/>
</a>
</g>
</g>
<!-- Node18&#45;&gt;Node10 -->
<g id="edge11_Node000018_Node000010" class="edge">
<title>Node18&#45;&gt;Node10</title>
<g id="a_edge11_Node000018_Node000010"><a xlink:title=" ">
<path fill="none" stroke="#63b8ff" d="M426.95,-152.87C444.75,-159.91 466.43,-167.24 486.75,-170.75 549.59,-181.62 568.81,-187.85 630.25,-170.75 660.33,-162.38 690.4,-142.39 709.84,-127.56"/>
<polygon fill="#63b8ff" stroke="#63b8ff" points="711.84,-130.43 717.53,-121.5 707.51,-124.93 711.84,-130.43"/>
</a>
</g>
</g>
<!-- Node18&#45;&gt;Node16 -->
<g id="edge10_Node000018_Node000016" class="edge">
<title>Node18&#45;&gt;Node16</title>
<g id="a_edge10_Node000018_Node000016"><a xlink:title=" ">
<path fill="none" stroke="#63b8ff" d="M451.11,-127.26C500.14,-120.09 569.95,-108.76 630.25,-94.75 649.36,-90.31 670.19,-84.33 687.95,-78.88"/>
<polygon fill="#63b8ff" stroke="#63b8ff" points="688.9,-82.25 697.41,-75.93 686.82,-75.57 688.9,-82.25"/>
</a>
</g>
</g>
<!-- Node19 -->
<g id="Node000019" class="node">
<title>Node19</title>
<g id="a_Node000019"><a xlink:href="m__fpga__io_8c.html#a68f35bb87d4e6c08d9b8425cb60f3cc8" target="_top" xlink:title=" ">
<polygon fill="white" stroke="#666666" points="630.25,-162.12 486.75,-162.12 486.75,-141.38 630.25,-141.38 630.25,-162.12"/>
<text xml:space="preserve" text-anchor="middle" x="558.5" y="-148.62" font-family="Helvetica,sans-Serif" font-size="10.00">m_fpga_batch_append_24</text>
</a>
</g>
</g>
<!-- Node18&#45;&gt;Node19 -->
<g id="edge12_Node000018_Node000019" class="edge">
<title>Node18&#45;&gt;Node19</title>
<g id="a_edge12_Node000018_Node000019"><a xlink:title=" ">
<path fill="none" stroke="#63b8ff" d="M451.03,-141.66C458.88,-142.41 467.01,-143.18 475.11,-143.94"/>
<polygon fill="#63b8ff" stroke="#63b8ff" points="474.73,-147.42 485.02,-144.88 475.39,-140.45 474.73,-147.42"/>
</a>
</g>
</g>
<!-- Node19&#45;&gt;Node10 -->
<g id="edge13_Node000019_Node000010" class="edge">
<title>Node19&#45;&gt;Node10</title>
<g id="a_edge13_Node000019_Node000010"><a xlink:title=" ">
<path fill="none" stroke="#63b8ff" d="M603.76,-140.93C625.73,-135.57 652.49,-129.03 675.82,-123.33"/>
<polygon fill="#63b8ff" stroke="#63b8ff" points="676.61,-126.74 685.49,-120.96 674.95,-119.94 676.61,-126.74"/>
</a>
</g>
</g>
</g>
</svg>

<g id="navigator" transform="translate(0 0)" fill="#404254">
  <rect fill="#f2f5e9" fill-opacity="0.5" stroke="#606060" stroke-width=".5" x="0" y="0" width="60" height="60"/>
  <use id="zoomplus" xlink:href="#zoomPlus" x="17" y="9" onmousedown="handleZoom(evt,'in')"/>
  <use id="zoomminus" xlink:href="#zoomMin" x="42" y="9" onmousedown="handleZoom(evt,'out')"/>
  <use id="reset" xlink:href="#resetDef" x="30" y="36" onmousedown="handleReset()"/>
   <use id="arrowup" xlink:href="#arrowUp" x="0" y="0" onmousedown="handlePan(0,-1)"/>
  <use id="arrowright" xlink:href="#arrowRight" x="0" y="0" onmousedown="handlePan(1,0)"/>
  <use id="arrowdown" xlink:href="#arrowDown" x="0" y="0" onmousedown="handlePan(0,1)"/>
  <use id="arrowleft" xlink:href="#arrowLeft" x="0" y="0" onmousedown="handlePan(-1,0)"/>
</g>
<svg viewBox="0 0 15 15" width="100%" height="30px" preserveAspectRatio="xMaxYMin meet">
 <g id="arrow_out" transform="scale(0.3 0.3)">
  <a xlink:href="m__fpga__encoding_8c_ac151df6aba44fd98b1759e57667dcb15_cgraph_org.svg" target="_base">
   <rect id="button" ry="5" rx="5" y="6" x="6" height="38" width="38"
        fill="#f2f5e9" fill-opacity="0.5" stroke="#606060" stroke-width="1.0"/>
   <path id="arrow"
     d="M 11.500037,31.436501 C 11.940474,20.09759 22.043105,11.32322 32.158766,21.979434 L 37.068811,17.246167 C 37.068811,17.246167 37.088388,32 37.088388,32 L 22.160133,31.978069 C 22.160133,31.978069 26.997745,27.140456 26.997745,27.140456 C 18.528582,18.264221 13.291696,25.230495 11.500037,31.436501 z"
     style="fill:#404040;"/>
  </a>
 </g>
</svg>

<style type='text/css'>
<![CDATA[
[data-mouse-over-selected='false'] { opacity: 0.7; }
[data-mouse-over-selected='true']  { opacity: 1.0; }
]]>
</style>
<script type="application/ecmascript"><![CDATA[
document.addEventListener('DOMContentLoaded', (event) => {
  highlightEdges();
  highlightAdjacentNodes();
});
]]></script>
</svg>
