<?xml version="1.0" encoding="UTF-8" standalone="no"?>
<!DOCTYPE svg PUBLIC "-//W3C//DTD SVG 1.1//EN"
 "http://www.w3.org/Graphics/SVG/1.1/DTD/svg11.dtd">
<!-- Generated by graphviz version 13.1.2 (20250808.2320)
 -->
<!-- Title: m_fpga_txrx Pages: 1 -->
<!--zoomable 184 -->

<svg id="main" version="1.1" xmlns="http://www.w3.org/2000/svg" xmlns:xlink="http://www.w3.org/1999/xlink" xml:space="preserve" onload="init(evt)">

<style type="text/css"><![CDATA[
.node, .edge {opacity: 0.7;}
.node.selected, .edge.selected {opacity: 1;}
.edge:hover path { stroke: red; }
.edge:hover polygon { stroke: red; fill: red; }
]]></style>

<defs>
  <circle id="rim" cx="0" cy="0" r="7"/>
  <circle id="rim2" cx="0" cy="0" r="3.5"/>
  <g id="zoomPlus">
    <use xlink:href="#rim" fill="#404040"><set attributeName="fill" to="#808080" begin="zoomplus.mouseover" end="zoomplus.mouseout"/></use>
    <path d="M-4,0h8M0,-4v8" fill="none" stroke="white" stroke-width="1.5" pointer-events="none"/>
  </g>
  <g id="zoomMin">
    <use xlink:href="#rim" fill="#404040"><set attributeName="fill" to="#808080" begin="zoomminus.mouseover" end="zoomminus.mouseout"/></use>
    <path d="M-4,0h8" fill="none" stroke="white" stroke-width="1.5" pointer-events="none"/>
  </g>
  <g id="arrowUp" transform="translate(30 24)">
    <use xlink:href="#rim"/>
    <path pointer-events="none" fill="none" stroke="white" stroke-width="1.5" d="M0,-3.0v7 M-2.5,-0.5L0,-3.0L2.5,-0.5"/>
  </g>
  <g id="arrowRight" transform="rotate(90) translate(36 -43)">
    <use xlink:href="#rim"/>
    <path pointer-events="none" fill="none" stroke="white" stroke-width="1.5" d="M0,-3.0v7 M-2.5,-0.5L0,-3.0L2.5,-0.5"/>
  </g>
  <g id="arrowDown" transform="rotate(180) translate(-30 -48)">
    <use xlink:href="#rim"/>
    <path pointer-events="none" fill="none" stroke="white" stroke-width="1.5" d="M0,-3.0v7 M-2.5,-0.5L0,-3.0L2.5,-0.5"/>
  </g>
  <g id="arrowLeft" transform="rotate(270) translate(-36 17)">
    <use xlink:href="#rim"/>
    <path pointer-events="none" fill="none" stroke="white" stroke-width="1.5" d="M0,-3.0v7 M-2.5,-0.5L0,-3.0L2.5,-0.5"/>
  </g>
  <g id="resetDef">
    <use xlink:href="#rim2" fill="#404040"><set attributeName="fill" to="#808080" begin="reset.mouseover" end="reset.mouseout"/></use>
  </g>
</defs>
<script type="application/ecmascript">
var viewWidth = 735;
var viewHeight = 184;
var sectionId = 'dynsection-21';
</script>
<script type="application/ecmascript" xlink:href="svg.min.js"/>
<svg id="graph" class="graph">
<g id="viewport">
<title>m_fpga_txrx</title>
<!-- Node1 -->
<g id="Node000001" class="node">
<title>Node1</title>
<g id="a_Node000001"><a xlink:title=" ">
<polygon fill="#999999" stroke="#666666" points="726.5,-98.78 649,-98.78 649,-78.03 726.5,-78.03 726.5,-98.78"/>
<text xml:space="preserve" text-anchor="middle" x="687.75" y="-85.28" font-family="Helvetica,sans-Serif" font-size="10.00">m_fpga_txrx</text>
</a>
</g>
</g>
<!-- Node2 -->
<g id="Node000002" class="node">
<title>Node2</title>
<g id="a_Node000002"><a xlink:href="m__fpga__io_8c.html#acce880ea81806978d4660478c6bd5a81" target="_top" xlink:title=" ">
<polygon fill="white" stroke="#666666" points="587.88,-175.78 481.12,-175.78 481.12,-155.03 587.88,-155.03 587.88,-175.78"/>
<text xml:space="preserve" text-anchor="middle" x="534.5" y="-162.28" font-family="Helvetica,sans-Serif" font-size="10.00">m_fpga_read_byte</text>
</a>
</g>
</g>
<!-- Node1&#45;&gt;Node2 -->
<g id="edge1_Node000001_Node000002" class="edge">
<title>Node1&#45;&gt;Node2</title>
<g id="a_edge1_Node000001_Node000002"><a xlink:title=" ">
<path fill="none" stroke="#63b8ff" d="M655.2,-104.47C625.67,-119.5 582.36,-141.55 556.74,-154.59"/>
<polygon fill="#63b8ff" stroke="#63b8ff" points="656.73,-107.62 664.05,-99.96 653.55,-101.38 656.73,-107.62"/>
</a>
</g>
</g>
<!-- Node7 -->
<g id="Node000007" class="node">
<title>Node7</title>
<g id="a_Node000007"><a xlink:href="m__fpga__io_8c.html#a8f720f994d6e306cdf5f9db887aa6b52" target="_top" xlink:title=" ">
<polygon fill="white" stroke="#666666" points="588.62,-98.78 480.38,-98.78 480.38,-78.03 588.62,-78.03 588.62,-98.78"/>
<text xml:space="preserve" text-anchor="middle" x="534.5" y="-85.28" font-family="Helvetica,sans-Serif" font-size="10.00">m_fpga_send_byte</text>
</a>
</g>
</g>
<!-- Node1&#45;&gt;Node7 -->
<g id="edge5_Node000001_Node000007" class="edge">
<title>Node1&#45;&gt;Node7</title>
<g id="a_edge5_Node000001_Node000007"><a xlink:title=" ">
<path fill="none" stroke="#63b8ff" d="M637.18,-88.4C621.78,-88.4 604.74,-88.4 589.08,-88.4"/>
<polygon fill="#63b8ff" stroke="#63b8ff" points="637.07,-91.9 647.07,-88.4 637.07,-84.9 637.07,-91.9"/>
</a>
</g>
</g>
<!-- Node11 -->
<g id="Node000011" class="node">
<title>Node11</title>
<g id="a_Node000011"><a xlink:href="m__fpga__io_8c.html#a7892a65646be091767dc5d11c104e270" target="_top" xlink:title=" ">
<polygon fill="white" stroke="#666666" points="613,-40.78 456,-40.78 456,-20.03 613,-20.03 613,-40.78"/>
<text xml:space="preserve" text-anchor="middle" x="534.5" y="-27.28" font-family="Helvetica,sans-Serif" font-size="10.00">m_fpga_transfer_batch_send</text>
</a>
</g>
</g>
<!-- Node1&#45;&gt;Node11 -->
<g id="edge12_Node000001_Node000011" class="edge">
<title>Node1&#45;&gt;Node11</title>
<g id="a_edge12_Node000001_Node000011"><a xlink:title=" ">
<path fill="none" stroke="#63b8ff" d="M647.91,-73.51C621.6,-63.42 587.43,-50.32 563.7,-41.22"/>
<polygon fill="#63b8ff" stroke="#63b8ff" points="646.65,-76.78 657.24,-77.09 649.16,-70.24 646.65,-76.78"/>
</a>
</g>
</g>
<!-- Node3 -->
<g id="Node000003" class="node">
<title>Node3</title>
<g id="a_Node000003"><a xlink:href="m__fpga__comms_8c.html#abfe39a66ff3496fa4bbb972c7ce434c0" target="_top" xlink:title=" ">
<polygon fill="white" stroke="#666666" points="223.25,-79.78 103,-79.78 103,-59.03 223.25,-59.03 223.25,-79.78"/>
<text xml:space="preserve" text-anchor="middle" x="163.12" y="-66.28" font-family="Helvetica,sans-Serif" font-size="10.00">m_fpga_comms_task</text>
</a>
</g>
</g>
<!-- Node2&#45;&gt;Node3 -->
<g id="edge2_Node000002_Node000003" class="edge">
<title>Node2&#45;&gt;Node3</title>
<g id="a_edge2_Node000002_Node000003"><a xlink:title=" ">
<path fill="none" stroke="#63b8ff" d="M469.23,-172.02C412.07,-175.42 327.24,-174.26 259.25,-147.4 222.11,-132.73 188.47,-97.88 173.04,-80.15"/>
<polygon fill="#63b8ff" stroke="#63b8ff" points="469.38,-175.52 479.13,-171.36 468.92,-168.53 469.38,-175.52"/>
</a>
</g>
</g>
<!-- Node4 -->
<g id="Node000004" class="node">
<title>Node4</title>
<g id="a_Node000004"><a xlink:href="m__int_8c.html#abce06be17fc37d675118a678a8100a36" target="_top" xlink:title=" ">
<polygon fill="white" stroke="#666666" points="65.5,-99.78 1.5,-99.78 1.5,-79.03 65.5,-79.03 65.5,-99.78"/>
<text xml:space="preserve" text-anchor="middle" x="33.5" y="-86.28" font-family="Helvetica,sans-Serif" font-size="10.00">app_main</text>
</a>
</g>
</g>
<!-- Node3&#45;&gt;Node4 -->
<g id="edge3_Node000003_Node000004" class="edge">
<title>Node3&#45;&gt;Node4</title>
<g id="a_edge3_Node000003_Node000004"><a xlink:title=" ">
<path fill="none" stroke="#63b8ff" d="M91.42,-80.48C82.48,-81.89 73.72,-83.26 65.85,-84.49"/>
<polygon fill="#63b8ff" stroke="#63b8ff" points="91.96,-83.94 101.3,-78.94 90.88,-77.03 91.96,-83.94"/>
</a>
</g>
</g>
<!-- Node5 -->
<g id="Node000005" class="node">
<title>Node5</title>
<g id="a_Node000005"><a xlink:href="m__desktop_8c.html#ab499a4f71ef4cfc807b60d8739750c3e" target="_top" xlink:title=" ">
<polygon fill="#fff0f0" stroke="red" points="67,-60.78 0,-60.78 0,-40.03 67,-40.03 67,-60.78"/>
<text xml:space="preserve" text-anchor="middle" x="33.5" y="-47.28" font-family="Helvetica,sans-Serif" font-size="10.00">main_task</text>
</a>
</g>
</g>
<!-- Node3&#45;&gt;Node5 -->
<g id="edge4_Node000003_Node000005" class="edge">
<title>Node3&#45;&gt;Node5</title>
<g id="a_edge4_Node000003_Node000005"><a xlink:title=" ">
<path fill="none" stroke="#63b8ff" d="M91.6,-58.9C83.11,-57.64 74.79,-56.4 67.23,-55.28"/>
<polygon fill="#63b8ff" stroke="#63b8ff" points="90.89,-62.34 101.3,-60.35 91.92,-55.41 90.89,-62.34"/>
</a>
</g>
</g>
<!-- Node7&#45;&gt;Node3 -->
<g id="edge7_Node000007_Node000003" class="edge">
<title>Node7&#45;&gt;Node3</title>
<g id="a_edge7_Node000007_Node000003"><a xlink:title=" ">
<path fill="none" stroke="#63b8ff" d="M499.23,-103.51C477.1,-112.42 447.43,-122.82 420,-127.4 349.53,-139.17 328.03,-146.72 259.25,-127.4 226.48,-118.2 193.8,-94.24 176.59,-80.16"/>
<polygon fill="#63b8ff" stroke="#63b8ff" points="500.45,-106.79 508.35,-99.74 497.77,-100.32 500.45,-106.79"/>
</a>
</g>
</g>
<!-- Node8 -->
<g id="Node000008" class="node">
<title>Node8</title>
<g id="a_Node000008"><a xlink:href="m__fpga__io_8c.html#a48fe2847fdfdd8d14bd87aa30fc16eaf" target="_top" xlink:title=" ">
<polygon fill="white" stroke="#666666" points="420,-118.78 259.25,-118.78 259.25,-98.03 420,-98.03 420,-118.78"/>
<text xml:space="preserve" text-anchor="middle" x="339.62" y="-105.28" font-family="Helvetica,sans-Serif" font-size="10.00">m_fpga_commit_reg_updates</text>
</a>
</g>
</g>
<!-- Node7&#45;&gt;Node8 -->
<g id="edge6_Node000007_Node000008" class="edge">
<title>Node7&#45;&gt;Node8</title>
<g id="a_edge6_Node000007_Node000008"><a xlink:title=" ">
<path fill="none" stroke="#63b8ff" d="M468.91,-95.1C453.3,-96.72 436.43,-98.47 420.22,-100.15"/>
<polygon fill="#63b8ff" stroke="#63b8ff" points="468.94,-98.62 478.52,-94.1 468.22,-91.66 468.94,-98.62"/>
</a>
</g>
</g>
<!-- Node9 -->
<g id="Node000009" class="node">
<title>Node9</title>
<g id="a_Node000009"><a xlink:href="m__fpga__io_8c.html#ab62dce1746a040cb3c723d7e9dbf9f13" target="_top" xlink:title=" ">
<polygon fill="white" stroke="#666666" points="404.25,-79.78 275,-79.78 275,-59.03 404.25,-59.03 404.25,-79.78"/>
<text xml:space="preserve" text-anchor="middle" x="339.62" y="-66.28" font-family="Helvetica,sans-Serif" font-size="10.00">m_fpga_set_input_gain</text>
</a>
</g>
</g>
<!-- Node7&#45;&gt;Node9 -->
<g id="edge8_Node000007_Node000009" class="edge">
<title>Node7&#45;&gt;Node9</title>
<g id="a_edge8_Node000007_Node000009"><a xlink:title=" ">
<path fill="none" stroke="#63b8ff" d="M468.77,-82.03C448.05,-79.99 425.13,-77.73 404.48,-75.69"/>
<polygon fill="#63b8ff" stroke="#63b8ff" points="468.23,-85.49 478.52,-82.99 468.91,-78.52 468.23,-85.49"/>
</a>
</g>
</g>
<!-- Node10 -->
<g id="Node000010" class="node">
<title>Node10</title>
<g id="a_Node000010"><a xlink:href="m__fpga__io_8c.html#aef82cd32e52665f5d13560fb02a4ed5b" target="_top" xlink:title=" ">
<polygon fill="white" stroke="#666666" points="407.62,-40.78 271.62,-40.78 271.62,-20.03 407.62,-20.03 407.62,-40.78"/>
<text xml:space="preserve" text-anchor="middle" x="339.62" y="-27.28" font-family="Helvetica,sans-Serif" font-size="10.00">m_fpga_set_output_gain</text>
</a>
</g>
</g>
<!-- Node7&#45;&gt;Node10 -->
<g id="edge10_Node000007_Node000010" class="edge">
<title>Node7&#45;&gt;Node10</title>
<g id="a_edge10_Node000007_Node000010"><a xlink:title=" ">
<path fill="none" stroke="#63b8ff" d="M492.64,-73.89C471.15,-66.46 444.28,-57.52 420,-50.4 409.09,-47.21 397.25,-44.06 386.12,-41.23"/>
<polygon fill="#63b8ff" stroke="#63b8ff" points="491.32,-77.13 501.92,-77.11 493.62,-70.52 491.32,-77.13"/>
</a>
</g>
</g>
<!-- Node9&#45;&gt;Node3 -->
<g id="edge9_Node000009_Node000003" class="edge">
<title>Node9&#45;&gt;Node3</title>
<g id="a_edge9_Node000009_Node000003"><a xlink:title=" ">
<path fill="none" stroke="#63b8ff" d="M263.51,-69.4C250.12,-69.4 236.34,-69.4 223.47,-69.4"/>
<polygon fill="#63b8ff" stroke="#63b8ff" points="263.12,-72.9 273.12,-69.4 263.12,-65.9 263.12,-72.9"/>
</a>
</g>
</g>
<!-- Node10&#45;&gt;Node3 -->
<g id="edge11_Node000010_Node000003" class="edge">
<title>Node10&#45;&gt;Node3</title>
<g id="a_edge11_Node000010_Node000003"><a xlink:title=" ">
<path fill="none" stroke="#63b8ff" d="M278.99,-43.73C257.4,-48.56 233.3,-53.94 212.77,-58.53"/>
<polygon fill="#63b8ff" stroke="#63b8ff" points="279.54,-47.19 288.54,-41.6 278.02,-40.36 279.54,-47.19"/>
</a>
</g>
</g>
<!-- Node11&#45;&gt;Node3 -->
<g id="edge13_Node000011_Node000003" class="edge">
<title>Node11&#45;&gt;Node3</title>
<g id="a_edge13_Node000011_Node000003"><a xlink:title=" ">
<path fill="none" stroke="#63b8ff" d="M483.52,-16.97C427.74,-4.26 335.34,9.96 259.25,-11.4 226.48,-20.61 193.8,-44.57 176.59,-58.65"/>
<polygon fill="#63b8ff" stroke="#63b8ff" points="482.49,-20.33 493.03,-19.22 484.1,-13.52 482.49,-20.33"/>
</a>
</g>
</g>
</g>
</svg>

<g id="navigator" transform="translate(0 0)" fill="#404254">
  <rect fill="#f2f5e9" fill-opacity="0.5" stroke="#606060" stroke-width=".5" x="0" y="0" width="60" height="60"/>
  <use id="zoomplus" xlink:href="#zoomPlus" x="17" y="9" onmousedown="handleZoom(evt,'in')"/>
  <use id="zoomminus" xlink:href="#zoomMin" x="42" y="9" onmousedown="handleZoom(evt,'out')"/>
  <use id="reset" xlink:href="#resetDef" x="30" y="36" onmousedown="handleReset()"/>
   <use id="arrowup" xlink:href="#arrowUp" x="0" y="0" onmousedown="handlePan(0,-1)"/>
  <use id="arrowright" xlink:href="#arrowRight" x="0" y="0" onmousedown="handlePan(1,0)"/>
  <use id="arrowdown" xlink:href="#arrowDown" x="0" y="0" onmousedown="handlePan(0,1)"/>
  <use id="arrowleft" xlink:href="#arrowLeft" x="0" y="0" onmousedown="handlePan(-1,0)"/>
</g>
<svg viewBox="0 0 15 15" width="100%" height="30px" preserveAspectRatio="xMaxYMin meet">
 <g id="arrow_out" transform="scale(0.3 0.3)">
  <a xlink:href="m__fpga__io_8c_a8cc733ae65cd129cf6e63dae62fa6fb4_icgraph_org.svg" target="_base">
   <rect id="button" ry="5" rx="5" y="6" x="6" height="38" width="38"
        fill="#f2f5e9" fill-opacity="0.5" stroke="#606060" stroke-width="1.0"/>
   <path id="arrow"
     d="M 11.500037,31.436501 C 11.940474,20.09759 22.043105,11.32322 32.158766,21.979434 L 37.068811,17.246167 C 37.068811,17.246167 37.088388,32 37.088388,32 L 22.160133,31.978069 C 22.160133,31.978069 26.997745,27.140456 26.997745,27.140456 C 18.528582,18.264221 13.291696,25.230495 11.500037,31.436501 z"
     style="fill:#404040;"/>
  </a>
 </g>
</svg>

<style type='text/css'>
<![CDATA[
[data-mouse-over-selected='false'] { opacity: 0.7; }
[data-mouse-over-selected='true']  { opacity: 1.0; }
]]>
</style>
<script type="application/ecmascript"><![CDATA[
document.addEventListener('DOMContentLoaded', (event) => {
  highlightEdges();
  highlightAdjacentNodes();
});
]]></script>
</svg>
