<?xml version="1.0" encoding="UTF-8" standalone="no"?>
<!DOCTYPE svg PUBLIC "-//W3C//DTD SVG 1.1//EN"
 "http://www.w3.org/Graphics/SVG/1.1/DTD/svg11.dtd">
<!-- Generated by graphviz version 13.1.2 (20250808.2320)
 -->
<!-- Title: m_fpga_batch_append Pages: 1 -->
<!--zoomable 386 -->

<svg id="main" version="1.1" xmlns="http://www.w3.org/2000/svg" xmlns:xlink="http://www.w3.org/1999/xlink" xml:space="preserve" onload="init(evt)">

<style type="text/css"><![CDATA[
.node, .edge {opacity: 0.7;}
.node.selected, .edge.selected {opacity: 1;}
.edge:hover path { stroke: red; }
.edge:hover polygon { stroke: red; fill: red; }
]]></style>

<defs>
  <circle id="rim" cx="0" cy="0" r="7"/>
  <circle id="rim2" cx="0" cy="0" r="3.5"/>
  <g id="zoomPlus">
    <use xlink:href="#rim" fill="#404040"><set attributeName="fill" to="#808080" begin="zoomplus.mouseover" end="zoomplus.mouseout"/></use>
    <path d="M-4,0h8M0,-4v8" fill="none" stroke="white" stroke-width="1.5" pointer-events="none"/>
  </g>
  <g id="zoomMin">
    <use xlink:href="#rim" fill="#404040"><set attributeName="fill" to="#808080" begin="zoomminus.mouseover" end="zoomminus.mouseout"/></use>
    <path d="M-4,0h8" fill="none" stroke="white" stroke-width="1.5" pointer-events="none"/>
  </g>
  <g id="arrowUp" transform="translate(30 24)">
    <use xlink:href="#rim"/>
    <path pointer-events="none" fill="none" stroke="white" stroke-width="1.5" d="M0,-3.0v7 M-2.5,-0.5L0,-3.0L2.5,-0.5"/>
  </g>
  <g id="arrowRight" transform="rotate(90) translate(36 -43)">
    <use xlink:href="#rim"/>
    <path pointer-events="none" fill="none" stroke="white" stroke-width="1.5" d="M0,-3.0v7 M-2.5,-0.5L0,-3.0L2.5,-0.5"/>
  </g>
  <g id="arrowDown" transform="rotate(180) translate(-30 -48)">
    <use xlink:href="#rim"/>
    <path pointer-events="none" fill="none" stroke="white" stroke-width="1.5" d="M0,-3.0v7 M-2.5,-0.5L0,-3.0L2.5,-0.5"/>
  </g>
  <g id="arrowLeft" transform="rotate(270) translate(-36 17)">
    <use xlink:href="#rim"/>
    <path pointer-events="none" fill="none" stroke="white" stroke-width="1.5" d="M0,-3.0v7 M-2.5,-0.5L0,-3.0L2.5,-0.5"/>
  </g>
  <g id="resetDef">
    <use xlink:href="#rim2" fill="#404040"><set attributeName="fill" to="#808080" begin="reset.mouseover" end="reset.mouseout"/></use>
  </g>
</defs>
<script type="application/ecmascript">
var viewWidth = 664;
var viewHeight = 386;
var sectionId = 'dynsection-2';
</script>
<script type="application/ecmascript" xlink:href="svg.min.js"/>
<svg id="graph" class="graph">
<g id="viewport">
<title>m_fpga_batch_append</title>
<!-- Node1 -->
<g id="Node000001" class="node">
<title>Node1</title>
<g id="a_Node000001"><a xlink:title=" ">
<polygon fill="#999999" stroke="#666666" points="655.75,-216.12 529.5,-216.12 529.5,-195.38 655.75,-195.38 655.75,-216.12"/>
<text xml:space="preserve" text-anchor="middle" x="592.62" y="-202.62" font-family="Helvetica,sans-Serif" font-size="10.00">m_fpga_batch_append</text>
</a>
</g>
</g>
<!-- Node2 -->
<g id="Node000002" class="node">
<title>Node2</title>
<g id="a_Node000002"><a xlink:href="m__fpga__io_8c.html#a1555178cc242779bd59bd3c2c3b5a554" target="_top" xlink:title=" ">
<polygon fill="white" stroke="#666666" points="493.5,-216.12 350,-216.12 350,-195.38 493.5,-195.38 493.5,-216.12"/>
<text xml:space="preserve" text-anchor="middle" x="421.75" y="-202.62" font-family="Helvetica,sans-Serif" font-size="10.00">m_fpga_batch_append_16</text>
</a>
</g>
</g>
<!-- Node1&#45;&gt;Node2 -->
<g id="edge1_Node000001_Node000002" class="edge">
<title>Node1&#45;&gt;Node2</title>
<g id="a_edge1_Node000001_Node000002"><a xlink:title=" ">
<path fill="none" stroke="#63b8ff" d="M517.97,-205.75C509.92,-205.75 501.74,-205.75 493.73,-205.75"/>
<polygon fill="#63b8ff" stroke="#63b8ff" points="517.71,-209.25 527.71,-205.75 517.71,-202.25 517.71,-209.25"/>
</a>
</g>
</g>
<!-- Node3 -->
<g id="Node000003" class="node">
<title>Node3</title>
<g id="a_Node000003"><a xlink:href="m__fpga__encoding_8c.html#abf741b5796016ee2220cefafef2e8ec4" target="_top" xlink:title=" ">
<polygon fill="white" stroke="#666666" points="305.38,-267.5 179.12,-267.5 179.12,-234 305.38,-234 305.38,-267.5"/>
<text xml:space="preserve" text-anchor="start" x="187.12" y="-254" font-family="Helvetica,sans-Serif" font-size="10.00">m_fpga_batch_append</text>
<text xml:space="preserve" text-anchor="middle" x="242.25" y="-241.25" font-family="Helvetica,sans-Serif" font-size="10.00">_block_number</text>
</a>
</g>
</g>
<!-- Node1&#45;&gt;Node3 -->
<g id="edge14_Node000001_Node000003" class="edge">
<title>Node1&#45;&gt;Node3</title>
<g id="a_edge14_Node000001_Node000003"><a xlink:title=" ">
<path fill="none" stroke="#63b8ff" d="M528.98,-218.73C517.23,-220.92 505.01,-223.04 493.5,-224.75 429.77,-234.21 356.4,-241.4 305.66,-245.8"/>
<polygon fill="#63b8ff" stroke="#63b8ff" points="529.43,-222.21 538.59,-216.9 528.12,-215.33 529.43,-222.21"/>
</a>
</g>
</g>
<!-- Node4 -->
<g id="Node000004" class="node">
<title>Node4</title>
<g id="a_Node000004"><a xlink:href="m__fpga__encoding_8c.html#a7e68d5d716fe56819193feb81f67ab7f" target="_top" xlink:title=" ">
<polygon fill="#fff0f0" stroke="red" points="130.38,-350.5 4.12,-350.5 4.12,-317 130.38,-317 130.38,-350.5"/>
<text xml:space="preserve" text-anchor="start" x="12.12" y="-337" font-family="Helvetica,sans-Serif" font-size="10.00">m_fpga_batch_append</text>
<text xml:space="preserve" text-anchor="middle" x="67.25" y="-324.25" font-family="Helvetica,sans-Serif" font-size="10.00">_block_instr</text>
</a>
</g>
</g>
<!-- Node1&#45;&gt;Node4 -->
<g id="edge13_Node000001_Node000004" class="edge">
<title>Node1&#45;&gt;Node4</title>
<g id="a_edge13_Node000001_Node000004"><a xlink:title=" ">
<path fill="none" stroke="#63b8ff" d="M582.96,-226.88C569.13,-257.57 538.89,-313.57 493.5,-338.75 375.67,-404.12 209.72,-373.74 124.15,-350.91"/>
<polygon fill="#63b8ff" stroke="#63b8ff" points="586.11,-228.43 586.86,-217.86 579.68,-225.65 586.11,-228.43"/>
</a>
</g>
</g>
<!-- Node65 -->
<g id="Node000065" class="node">
<title>Node65</title>
<g id="a_Node000065"><a xlink:href="m__fpga__encoding_8c.html#a30de0dffad16d777aaeeb728303f0eab" target="_top" xlink:title=" ">
<polygon fill="#fff0f0" stroke="red" points="134.5,-267.5 0,-267.5 0,-234 134.5,-234 134.5,-267.5"/>
<text xml:space="preserve" text-anchor="start" x="8" y="-254" font-family="Helvetica,sans-Serif" font-size="10.00">m_fpga_batch_append</text>
<text xml:space="preserve" text-anchor="middle" x="67.25" y="-241.25" font-family="Helvetica,sans-Serif" font-size="10.00">_block_register_updates</text>
</a>
</g>
</g>
<!-- Node1&#45;&gt;Node65 -->
<g id="edge15_Node000001_Node000065" class="edge">
<title>Node1&#45;&gt;Node65</title>
<g id="a_edge15_Node000001_Node000065"><a xlink:title=" ">
<path fill="none" stroke="#63b8ff" d="M559.55,-221.36C540.7,-229.97 516.19,-240.21 493.5,-246.75 354.97,-286.69 313.56,-294.65 170.5,-276.75 155.69,-274.9 139.94,-271.59 125.36,-267.94"/>
<polygon fill="#63b8ff" stroke="#63b8ff" points="560.98,-224.56 568.56,-217.16 558.02,-218.21 560.98,-224.56"/>
</a>
</g>
</g>
<!-- Node68 -->
<g id="Node000068" class="node">
<title>Node68</title>
<g id="a_Node000068"><a xlink:href="m__fpga__encoding_8c.html#aa8dd4370776129bcaab2189ba91ec871" target="_top" xlink:title=" ">
<polygon fill="#fff0f0" stroke="red" points="130.38,-184.5 4.12,-184.5 4.12,-151 130.38,-151 130.38,-184.5"/>
<text xml:space="preserve" text-anchor="start" x="12.12" y="-171" font-family="Helvetica,sans-Serif" font-size="10.00">m_fpga_batch_append</text>
<text xml:space="preserve" text-anchor="middle" x="67.25" y="-158.25" font-family="Helvetica,sans-Serif" font-size="10.00">_block_regs</text>
</a>
</g>
</g>
<!-- Node1&#45;&gt;Node68 -->
<g id="edge16_Node000001_Node000068" class="edge">
<title>Node1&#45;&gt;Node68</title>
<g id="a_edge16_Node000001_Node000068"><a xlink:title=" ">
<path fill="none" stroke="#63b8ff" d="M530.6,-192.77C518.35,-190.49 505.55,-188.35 493.5,-186.75 365.29,-169.76 213.65,-167.12 130.52,-167.15"/>
<polygon fill="#63b8ff" stroke="#63b8ff" points="529.68,-196.16 540.16,-194.6 530.99,-189.28 529.68,-196.16"/>
</a>
</g>
</g>
<!-- Node69 -->
<g id="Node000069" class="node">
<title>Node69</title>
<g id="a_Node000069"><a xlink:href="m__fpga__io_8c.html#a68f35bb87d4e6c08d9b8425cb60f3cc8" target="_top" xlink:title=" ">
<polygon fill="white" stroke="#666666" points="493.5,-110.12 350,-110.12 350,-89.38 493.5,-89.38 493.5,-110.12"/>
<text xml:space="preserve" text-anchor="middle" x="421.75" y="-96.62" font-family="Helvetica,sans-Serif" font-size="10.00">m_fpga_batch_append_24</text>
</a>
</g>
</g>
<!-- Node1&#45;&gt;Node69 -->
<g id="edge8_Node000001_Node000069" class="edge">
<title>Node1&#45;&gt;Node69</title>
<g id="a_edge8_Node000001_Node000069"><a xlink:title=" ">
<path fill="none" stroke="#63b8ff" d="M573.54,-187.04C554.95,-168.72 524.42,-141.11 493.5,-123.75 484.11,-118.48 473.38,-114.1 463.15,-110.6"/>
<polygon fill="#63b8ff" stroke="#63b8ff" points="570.83,-189.28 580.36,-193.89 575.79,-184.34 570.83,-189.28"/>
</a>
</g>
</g>
<!-- Node70 -->
<g id="Node000070" class="node">
<title>Node70</title>
<g id="a_Node000070"><a xlink:href="m__fpga__encoding_8c.html#aa4906bf5257372ebc06dab8676fd13ac" target="_top" xlink:title=" ">
<polygon fill="white" stroke="#666666" points="305.38,-93.5 179.12,-93.5 179.12,-60 305.38,-60 305.38,-93.5"/>
<text xml:space="preserve" text-anchor="start" x="187.12" y="-80" font-family="Helvetica,sans-Serif" font-size="10.00">m_fpga_batch_append</text>
<text xml:space="preserve" text-anchor="middle" x="242.25" y="-67.25" font-family="Helvetica,sans-Serif" font-size="10.00">_resource</text>
</a>
</g>
</g>
<!-- Node1&#45;&gt;Node70 -->
<g id="edge17_Node000001_Node000070" class="edge">
<title>Node1&#45;&gt;Node70</title>
<g id="a_edge17_Node000001_Node000070"><a xlink:title=" ">
<path fill="none" stroke="#63b8ff" d="M582.39,-184.69C568.16,-155.19 537.79,-102.73 493.5,-80.75 434.82,-51.63 358.47,-55.42 305.61,-63.46"/>
<polygon fill="#63b8ff" stroke="#63b8ff" points="579.19,-186.11 586.57,-193.72 585.55,-183.18 579.19,-186.11"/>
</a>
</g>
</g>
<!-- Node72 -->
<g id="Node000072" class="node">
<title>Node72</title>
<g id="a_Node000072"><a xlink:href="m__fpga__io_8c.html#ac498725b4c608da8003ffe0e8f695eec" target="_top" xlink:title=" ">
<polygon fill="white" stroke="#666666" points="314,-344.12 170.5,-344.12 170.5,-323.38 314,-323.38 314,-344.12"/>
<text xml:space="preserve" text-anchor="middle" x="242.25" y="-330.62" font-family="Helvetica,sans-Serif" font-size="10.00">m_fpga_batch_append_32</text>
</a>
</g>
</g>
<!-- Node1&#45;&gt;Node72 -->
<g id="edge11_Node000001_Node000072" class="edge">
<title>Node1&#45;&gt;Node72</title>
<g id="a_edge11_Node000001_Node000072"><a xlink:title=" ">
<path fill="none" stroke="#63b8ff" d="M579.36,-225.77C563.1,-250.31 531.94,-290.94 493.5,-309.75 437.63,-337.08 366.42,-341.42 314.26,-339.9"/>
<polygon fill="#63b8ff" stroke="#63b8ff" points="582.13,-227.93 584.57,-217.63 576.23,-224.16 582.13,-227.93"/>
</a>
</g>
</g>
<!-- Node10 -->
<g id="Node000010" class="node">
<title>Node10</title>
<g id="a_Node000010"><a xlink:href="m__pipeline_8c.html#a34ed6a235a826d96b4e3282b17865323" target="_top" xlink:title=" ">
<polygon fill="#fff0f0" stroke="red" points="488.25,-33.5 355.25,-33.5 355.25,0 488.25,0 488.25,-33.5"/>
<text xml:space="preserve" text-anchor="start" x="363.25" y="-20" font-family="Helvetica,sans-Serif" font-size="10.00">m_pipeline_create_fpga</text>
<text xml:space="preserve" text-anchor="middle" x="421.75" y="-7.25" font-family="Helvetica,sans-Serif" font-size="10.00">_transfer_batch</text>
</a>
</g>
</g>
<!-- Node1&#45;&gt;Node10 -->
<g id="edge18_Node000001_Node000010" class="edge">
<title>Node1&#45;&gt;Node10</title>
<g id="a_edge18_Node000001_Node000010"><a xlink:title=" ">
<path fill="none" stroke="#63b8ff" d="M583.42,-184.67C569.54,-151.45 538.47,-86.72 493.5,-47.75 487.32,-42.39 480.06,-37.83 472.6,-33.98"/>
<polygon fill="#63b8ff" stroke="#63b8ff" points="580.04,-185.65 587.04,-193.6 586.53,-183.02 580.04,-185.65"/>
</a>
</g>
</g>
<!-- Node2&#45;&gt;Node3 -->
<g id="edge2_Node000002_Node000003" class="edge">
<title>Node2&#45;&gt;Node3</title>
<g id="a_edge2_Node000002_Node000003"><a xlink:title=" ">
<path fill="none" stroke="#63b8ff" d="M367.15,-219.34C347.75,-224.26 325.67,-229.86 305.58,-234.95"/>
<polygon fill="#63b8ff" stroke="#63b8ff" points="367.93,-222.75 376.77,-216.9 366.21,-215.97 367.93,-222.75"/>
</a>
</g>
</g>
<!-- Node2&#45;&gt;Node65 -->
<g id="edge6_Node000002_Node000065" class="edge">
<title>Node2&#45;&gt;Node65</title>
<g id="a_edge6_Node000002_Node000065"><a xlink:title=" ">
<path fill="none" stroke="#63b8ff" d="M338.21,-208.42C289.22,-210.9 226.03,-215.65 170.5,-224.75 156.85,-226.99 142.36,-230.16 128.71,-233.54"/>
<polygon fill="#63b8ff" stroke="#63b8ff" points="338.38,-211.92 348.2,-207.94 338.04,-204.93 338.38,-211.92"/>
</a>
</g>
</g>
<!-- Node2&#45;&gt;Node68 -->
<g id="edge7_Node000002_Node000068" class="edge">
<title>Node2&#45;&gt;Node68</title>
<g id="a_edge7_Node000002_Node000068"><a xlink:title=" ">
<path fill="none" stroke="#63b8ff" d="M338.39,-194.67C330.15,-193.65 321.92,-192.66 314,-191.75 251.71,-184.63 180.39,-177.81 130.68,-173.27"/>
<polygon fill="#63b8ff" stroke="#63b8ff" points="337.73,-198.12 348.09,-195.9 338.6,-191.17 337.73,-198.12"/>
</a>
</g>
</g>
<!-- Node3&#45;&gt;Node4 -->
<g id="edge3_Node000003_Node000004" class="edge">
<title>Node3&#45;&gt;Node4</title>
<g id="a_edge3_Node000003_Node000004"><a xlink:title=" ">
<path fill="none" stroke="#63b8ff" d="M195.25,-272.82C166.68,-286.53 130.48,-303.89 104.05,-316.57"/>
<polygon fill="#63b8ff" stroke="#63b8ff" points="196.54,-276.08 204.04,-268.6 193.51,-269.77 196.54,-276.08"/>
</a>
</g>
</g>
<!-- Node3&#45;&gt;Node65 -->
<g id="edge4_Node000003_Node000065" class="edge">
<title>Node3&#45;&gt;Node65</title>
<g id="a_edge4_Node000003_Node000065"><a xlink:title=" ">
<path fill="none" stroke="#63b8ff" d="M167.29,-250.75C156.56,-250.75 145.57,-250.75 135,-250.75"/>
<polygon fill="#63b8ff" stroke="#63b8ff" points="167.28,-254.25 177.28,-250.75 167.28,-247.25 167.28,-254.25"/>
</a>
</g>
</g>
<!-- Node3&#45;&gt;Node68 -->
<g id="edge5_Node000003_Node000068" class="edge">
<title>Node3&#45;&gt;Node68</title>
<g id="a_edge5_Node000003_Node000068"><a xlink:title=" ">
<path fill="none" stroke="#63b8ff" d="M195.25,-228.68C166.68,-214.97 130.48,-197.61 104.05,-184.93"/>
<polygon fill="#63b8ff" stroke="#63b8ff" points="193.51,-231.73 204.04,-232.9 196.54,-225.42 193.51,-231.73"/>
</a>
</g>
</g>
<!-- Node69&#45;&gt;Node70 -->
<g id="edge9_Node000069_Node000070" class="edge">
<title>Node69&#45;&gt;Node70</title>
<g id="a_edge9_Node000069_Node000070"><a xlink:title=" ">
<path fill="none" stroke="#63b8ff" d="M338.29,-89.06C327.38,-87.65 316.35,-86.22 305.85,-84.86"/>
<polygon fill="#63b8ff" stroke="#63b8ff" points="337.71,-92.52 348.08,-90.33 338.61,-85.58 337.71,-92.52"/>
</a>
</g>
</g>
<!-- Node71 -->
<g id="Node000071" class="node">
<title>Node71</title>
<g id="a_Node000071"><a xlink:href="m__fpga__encoding_8c.html#ad46dcf958f11478de5273cf90e19004a" target="_top" xlink:title=" ">
<polygon fill="#fff0f0" stroke="red" points="130.38,-93.5 4.12,-93.5 4.12,-60 130.38,-60 130.38,-93.5"/>
<text xml:space="preserve" text-anchor="start" x="12.12" y="-80" font-family="Helvetica,sans-Serif" font-size="10.00">m_fpga_batch_append</text>
<text xml:space="preserve" text-anchor="middle" x="67.25" y="-67.25" font-family="Helvetica,sans-Serif" font-size="10.00">_resources</text>
</a>
</g>
</g>
<!-- Node70&#45;&gt;Node71 -->
<g id="edge10_Node000070_Node000071" class="edge">
<title>Node70&#45;&gt;Node71</title>
<g id="a_edge10_Node000070_Node000071"><a xlink:title=" ">
<path fill="none" stroke="#63b8ff" d="M167.61,-76.75C155.29,-76.75 142.62,-76.75 130.62,-76.75"/>
<polygon fill="#63b8ff" stroke="#63b8ff" points="167.28,-80.25 177.28,-76.75 167.28,-73.25 167.28,-80.25"/>
</a>
</g>
</g>
<!-- Node72&#45;&gt;Node4 -->
<g id="edge12_Node000072_Node000004" class="edge">
<title>Node72&#45;&gt;Node4</title>
<g id="a_edge12_Node000072_Node000004"><a xlink:title=" ">
<path fill="none" stroke="#63b8ff" d="M158.88,-333.75C149.4,-333.75 139.85,-333.75 130.69,-333.75"/>
<polygon fill="#63b8ff" stroke="#63b8ff" points="158.87,-337.25 168.87,-333.75 158.87,-330.25 158.87,-337.25"/>
</a>
</g>
</g>
</g>
</svg>

<g id="navigator" transform="translate(0 0)" fill="#404254">
  <rect fill="#f2f5e9" fill-opacity="0.5" stroke="#606060" stroke-width=".5" x="0" y="0" width="60" height="60"/>
  <use id="zoomplus" xlink:href="#zoomPlus" x="17" y="9" onmousedown="handleZoom(evt,'in')"/>
  <use id="zoomminus" xlink:href="#zoomMin" x="42" y="9" onmousedown="handleZoom(evt,'out')"/>
  <use id="reset" xlink:href="#resetDef" x="30" y="36" onmousedown="handleReset()"/>
   <use id="arrowup" xlink:href="#arrowUp" x="0" y="0" onmousedown="handlePan(0,-1)"/>
  <use id="arrowright" xlink:href="#arrowRight" x="0" y="0" onmousedown="handlePan(1,0)"/>
  <use id="arrowdown" xlink:href="#arrowDown" x="0" y="0" onmousedown="handlePan(0,1)"/>
  <use id="arrowleft" xlink:href="#arrowLeft" x="0" y="0" onmousedown="handlePan(-1,0)"/>
</g>
<svg viewBox="0 0 15 15" width="100%" height="30px" preserveAspectRatio="xMaxYMin meet">
 <g id="arrow_out" transform="scale(0.3 0.3)">
  <a xlink:href="m__fpga__io_8h_a3e6e7ed1d51243448b55471969a93aa1_icgraph_org.svg" target="_base">
   <rect id="button" ry="5" rx="5" y="6" x="6" height="38" width="38"
        fill="#f2f5e9" fill-opacity="0.5" stroke="#606060" stroke-width="1.0"/>
   <path id="arrow"
     d="M 11.500037,31.436501 C 11.940474,20.09759 22.043105,11.32322 32.158766,21.979434 L 37.068811,17.246167 C 37.068811,17.246167 37.088388,32 37.088388,32 L 22.160133,31.978069 C 22.160133,31.978069 26.997745,27.140456 26.997745,27.140456 C 18.528582,18.264221 13.291696,25.230495 11.500037,31.436501 z"
     style="fill:#404040;"/>
  </a>
 </g>
</svg>

<style type='text/css'>
<![CDATA[
[data-mouse-over-selected='false'] { opacity: 0.7; }
[data-mouse-over-selected='true']  { opacity: 1.0; }
]]>
</style>
<script type="application/ecmascript"><![CDATA[
document.addEventListener('DOMContentLoaded', (event) => {
  highlightEdges();
  highlightAdjacentNodes();
});
]]></script>
</svg>
