<?xml version="1.0" encoding="UTF-8" standalone="no"?>
<!DOCTYPE svg PUBLIC "-//W3C//DTD SVG 1.1//EN"
 "http://www.w3.org/Graphics/SVG/1.1/DTD/svg11.dtd">
<!-- Generated by graphviz version 13.1.2 (20250808.2320)
 -->
<!-- Title: m_fpga_batch_print Pages: 1 -->
<svg width="644pt" height="177pt"
 viewBox="0.00 0.00 644.00 177.00" xmlns="http://www.w3.org/2000/svg" xmlns:xlink="http://www.w3.org/1999/xlink">
<g id="graph0" class="graph" transform="scale(1 1) rotate(0) translate(4 172.75)">
<title>m_fpga_batch_print</title>
<!-- Node1 -->
<g id="Node000001" class="node">
<title>Node1</title>
<g id="a_Node000001"><a xlink:title=" ">
<polygon fill="#999999" stroke="#666666" points="112.75,-106.75 0,-106.75 0,-86 112.75,-86 112.75,-106.75"/>
<text xml:space="preserve" text-anchor="middle" x="56.38" y="-93.25" font-family="Helvetica,sans-Serif" font-size="10.00">m_fpga_batch_print</text>
</a>
</g>
</g>
<!-- Node2 -->
<g id="Node000002" class="node">
<title>Node2</title>
<g id="a_Node000002"><a xlink:href="$m__hfunc_8c.html#a3e848609eabc8d2389b0a9f4517a0a13" xlink:title=" ">
<polygon fill="white" stroke="#666666" points="257,-168.75 165.25,-168.75 165.25,-148 257,-148 257,-168.75"/>
<text xml:space="preserve" text-anchor="middle" x="211.12" y="-155.25" font-family="Helvetica,sans-Serif" font-size="10.00">binary_print_16</text>
</a>
</g>
</g>
<!-- Node1&#45;&gt;Node2 -->
<g id="edge1_Node000001_Node000002" class="edge">
<title>Node1&#45;&gt;Node2</title>
<g id="a_edge1_Node000001_Node000002"><a xlink:title=" ">
<path fill="none" stroke="#63b8ff" d="M78.86,-107.11C97.18,-116.05 124.36,-128.83 148.75,-138.38 153.65,-140.29 158.81,-142.18 163.97,-143.98"/>
<polygon fill="#63b8ff" stroke="#63b8ff" points="162.47,-147.16 173.07,-147.05 164.72,-140.53 162.47,-147.16"/>
</a>
</g>
</g>
<!-- Node4 -->
<g id="Node000004" class="node">
<title>Node4</title>
<g id="a_Node000004"><a xlink:href="$m__hfunc_8c.html#ad1ec0738e9eb4d206d93d895c18185fb" xlink:title=" ">
<polygon fill="white" stroke="#666666" points="257,-129.75 165.25,-129.75 165.25,-109 257,-109 257,-129.75"/>
<text xml:space="preserve" text-anchor="middle" x="211.12" y="-116.25" font-family="Helvetica,sans-Serif" font-size="10.00">binary_print_24</text>
</a>
</g>
</g>
<!-- Node1&#45;&gt;Node4 -->
<g id="edge3_Node000001_Node000004" class="edge">
<title>Node1&#45;&gt;Node4</title>
<g id="a_edge3_Node000001_Node000004"><a xlink:title=" ">
<path fill="none" stroke="#63b8ff" d="M112.95,-104.74C126.15,-106.73 140.24,-108.85 153.48,-110.85"/>
<polygon fill="#63b8ff" stroke="#63b8ff" points="152.95,-114.31 163.36,-112.33 153.99,-107.38 152.95,-114.31"/>
</a>
</g>
</g>
<!-- Node5 -->
<g id="Node000005" class="node">
<title>Node5</title>
<g id="a_Node000005"><a xlink:href="$m__fpga__encoding_8c.html#a697292f80388de0a49fd04ab67c0b5a0" xlink:title=" ">
<polygon fill="white" stroke="#666666" points="273.5,-91.12 148.75,-91.12 148.75,-57.62 273.5,-57.62 273.5,-91.12"/>
<text xml:space="preserve" text-anchor="start" x="156.75" y="-77.62" font-family="Helvetica,sans-Serif" font-size="10.00">m_fpga_block_opcode</text>
<text xml:space="preserve" text-anchor="middle" x="211.12" y="-64.88" font-family="Helvetica,sans-Serif" font-size="10.00">_format</text>
</a>
</g>
</g>
<!-- Node1&#45;&gt;Node5 -->
<g id="edge5_Node000001_Node000005" class="edge">
<title>Node1&#45;&gt;Node5</title>
<g id="a_edge5_Node000001_Node000005"><a xlink:title=" ">
<path fill="none" stroke="#63b8ff" d="M112.95,-88.37C120.78,-87.24 128.92,-86.07 137.02,-84.9"/>
<polygon fill="#63b8ff" stroke="#63b8ff" points="137.49,-88.37 146.89,-83.48 136.49,-81.44 137.49,-88.37"/>
</a>
</g>
</g>
<!-- Node6 -->
<g id="Node000006" class="node">
<title>Node6</title>
<g id="a_Node000006"><a xlink:href="$m__fpga__encoding_8c.html#a9f3d76916b565e27599aebdb6c624499" xlink:title=" ">
<polygon fill="white" stroke="#666666" points="258.88,-39.75 163.38,-39.75 163.38,-19 258.88,-19 258.88,-39.75"/>
<text xml:space="preserve" text-anchor="middle" x="211.12" y="-26.25" font-family="Helvetica,sans-Serif" font-size="10.00">print_instruction</text>
</a>
</g>
</g>
<!-- Node1&#45;&gt;Node6 -->
<g id="edge6_Node000001_Node000006" class="edge">
<title>Node1&#45;&gt;Node6</title>
<g id="a_edge6_Node000001_Node000006"><a xlink:title=" ">
<path fill="none" stroke="#63b8ff" d="M75.45,-85.61C93.55,-75.14 122.42,-59.26 148.75,-48.38 152.58,-46.79 156.6,-45.27 160.66,-43.82"/>
<polygon fill="#63b8ff" stroke="#63b8ff" points="161.65,-47.18 170,-40.65 159.41,-40.55 161.65,-47.18"/>
</a>
</g>
</g>
<!-- Node3 -->
<g id="Node000003" class="node">
<title>Node3</title>
<g id="a_Node000003"><a xlink:href="$m__hfunc_8c.html#af8699cf7affbc403aa0e90ab78311cfe" xlink:title=" ">
<polygon fill="white" stroke="#666666" points="424.88,-148.75 339.12,-148.75 339.12,-128 424.88,-128 424.88,-148.75"/>
<text xml:space="preserve" text-anchor="middle" x="382" y="-135.25" font-family="Helvetica,sans-Serif" font-size="10.00">binary_print_n</text>
</a>
</g>
</g>
<!-- Node2&#45;&gt;Node3 -->
<g id="edge2_Node000002_Node000003" class="edge">
<title>Node2&#45;&gt;Node3</title>
<g id="a_edge2_Node000002_Node000003"><a xlink:title=" ">
<path fill="none" stroke="#63b8ff" d="M257.38,-153.02C278.93,-150.46 304.85,-147.39 327.38,-144.73"/>
<polygon fill="#63b8ff" stroke="#63b8ff" points="327.79,-148.2 337.31,-143.55 326.97,-141.25 327.79,-148.2"/>
</a>
</g>
</g>
<!-- Node4&#45;&gt;Node3 -->
<g id="edge4_Node000004_Node000003" class="edge">
<title>Node4&#45;&gt;Node3</title>
<g id="a_edge4_Node000004_Node000003"><a xlink:title=" ">
<path fill="none" stroke="#63b8ff" d="M257.38,-124.47C278.93,-126.89 304.85,-129.81 327.38,-132.34"/>
<polygon fill="#63b8ff" stroke="#63b8ff" points="326.98,-135.82 337.31,-133.46 327.76,-128.86 326.98,-135.82"/>
</a>
</g>
</g>
<!-- Node7 -->
<g id="Node000007" class="node">
<title>Node7</title>
<g id="a_Node000007"><a xlink:href="$m__fpga__encoding_8c.html#a7ca2a1fbddc5d291e6f3196e060cd163" xlink:title=" ">
<polygon fill="white" stroke="#666666" points="454.5,-59.75 309.5,-59.75 309.5,-39 454.5,-39 454.5,-59.75"/>
<text xml:space="preserve" text-anchor="middle" x="382" y="-46.25" font-family="Helvetica,sans-Serif" font-size="10.00">print_instruction_format_a</text>
</a>
</g>
</g>
<!-- Node6&#45;&gt;Node7 -->
<g id="edge7_Node000006_Node000007" class="edge">
<title>Node6&#45;&gt;Node7</title>
<g id="a_edge7_Node000006_Node000007"><a xlink:title=" ">
<path fill="none" stroke="#63b8ff" d="M259.17,-34.95C271.29,-36.38 284.7,-37.97 298.06,-39.55"/>
<polygon fill="#63b8ff" stroke="#63b8ff" points="297.4,-43 307.74,-40.7 298.22,-36.05 297.4,-43"/>
</a>
</g>
</g>
<!-- Node9 -->
<g id="Node000009" class="node">
<title>Node9</title>
<g id="a_Node000009"><a xlink:href="$m__fpga__encoding_8c.html#a742d286efbcdfcfb04471fac4282b318" xlink:title=" ">
<polygon fill="white" stroke="#666666" points="454.5,-20.75 309.5,-20.75 309.5,0 454.5,0 454.5,-20.75"/>
<text xml:space="preserve" text-anchor="middle" x="382" y="-7.25" font-family="Helvetica,sans-Serif" font-size="10.00">print_instruction_format_b</text>
</a>
</g>
</g>
<!-- Node6&#45;&gt;Node9 -->
<g id="edge9_Node000006_Node000009" class="edge">
<title>Node6&#45;&gt;Node9</title>
<g id="a_edge9_Node000006_Node000009"><a xlink:title=" ">
<path fill="none" stroke="#63b8ff" d="M259.17,-24.08C271.29,-22.72 284.7,-21.21 298.06,-19.71"/>
<polygon fill="#63b8ff" stroke="#63b8ff" points="298.2,-23.21 307.74,-18.62 297.41,-16.26 298.2,-23.21"/>
</a>
</g>
</g>
<!-- Node8 -->
<g id="Node000008" class="node">
<title>Node8</title>
<g id="a_Node000008"><a xlink:href="$m__fpga__encoding_8c.html#ab2c4e044f7dcebd2019989ff1abf16ff" xlink:title=" ">
<polygon fill="white" stroke="#666666" points="636.25,-39.75 490.5,-39.75 490.5,-19 636.25,-19 636.25,-39.75"/>
<text xml:space="preserve" text-anchor="middle" x="563.38" y="-26.25" font-family="Helvetica,sans-Serif" font-size="10.00">m_block_opcode_to_name</text>
</a>
</g>
</g>
<!-- Node7&#45;&gt;Node8 -->
<g id="edge8_Node000007_Node000008" class="edge">
<title>Node7&#45;&gt;Node8</title>
<g id="a_edge8_Node000007_Node000008"><a xlink:title=" ">
<path fill="none" stroke="#63b8ff" d="M454.93,-41.36C462.81,-40.48 470.88,-39.58 478.89,-38.68"/>
<polygon fill="#63b8ff" stroke="#63b8ff" points="479.09,-42.18 488.64,-37.6 478.31,-35.23 479.09,-42.18"/>
</a>
</g>
</g>
<!-- Node9&#45;&gt;Node8 -->
<g id="edge10_Node000009_Node000008" class="edge">
<title>Node9&#45;&gt;Node8</title>
<g id="a_edge10_Node000009_Node000008"><a xlink:title=" ">
<path fill="none" stroke="#63b8ff" d="M454.93,-17.99C462.81,-18.83 470.88,-19.68 478.89,-20.53"/>
<polygon fill="#63b8ff" stroke="#63b8ff" points="478.32,-23.99 488.64,-21.56 479.06,-17.03 478.32,-23.99"/>
</a>
</g>
</g>
</g>
</svg>
