<?xml version="1.0" encoding="UTF-8" standalone="no"?>
<!DOCTYPE svg PUBLIC "-//W3C//DTD SVG 1.1//EN"
 "http://www.w3.org/Graphics/SVG/1.1/DTD/svg11.dtd">
<!-- Generated by graphviz version 13.1.2 (20250808.2320)
 -->
<!-- Title: save_profile Pages: 1 -->
<svg width="595pt" height="318pt"
 viewBox="0.00 0.00 595.00 318.00" xmlns="http://www.w3.org/2000/svg" xmlns:xlink="http://www.w3.org/1999/xlink">
<g id="graph0" class="graph" transform="scale(1 1) rotate(0) translate(4 314.12)">
<title>save_profile</title>
<!-- Node1 -->
<g id="Node000001" class="node">
<title>Node1</title>
<g id="a_Node000001"><a xlink:title=" ">
<polygon fill="#999999" stroke="#666666" points="586.75,-111.12 510.75,-111.12 510.75,-90.38 586.75,-90.38 586.75,-111.12"/>
<text xml:space="preserve" text-anchor="middle" x="548.75" y="-97.62" font-family="Helvetica,sans-Serif" font-size="10.00">save_profile</text>
</a>
</g>
</g>
<!-- Node2 -->
<g id="Node000002" class="node">
<title>Node2</title>
<g id="a_Node000002"><a xlink:href="$m__effect_8c.html#a4ae269e7439d805b367b0d3a9ad261ec" xlink:title=" ">
<polygon fill="white" stroke="#666666" points="469.12,-245.5 351.88,-245.5 351.88,-212 469.12,-212 469.12,-245.5"/>
<text xml:space="preserve" text-anchor="start" x="359.88" y="-232" font-family="Helvetica,sans-Serif" font-size="10.00">m_effect_profile_rep</text>
<text xml:space="preserve" text-anchor="middle" x="410.5" y="-219.25" font-family="Helvetica,sans-Serif" font-size="10.00">_update</text>
</a>
</g>
</g>
<!-- Node1&#45;&gt;Node2 -->
<g id="edge1_Node000001_Node000002" class="edge">
<title>Node1&#45;&gt;Node2</title>
<g id="a_edge1_Node000001_Node000002"><a xlink:title=" ">
<path fill="none" stroke="#63b8ff" d="M529.17,-119.2C514.53,-133.65 493.52,-154.17 474.75,-171.75 460.18,-185.39 443.39,-200.49 430.77,-211.73"/>
<polygon fill="#63b8ff" stroke="#63b8ff" points="531.27,-122.05 535.91,-112.53 526.34,-117.07 531.27,-122.05"/>
</a>
</g>
</g>
<!-- Node20 -->
<g id="Node000020" class="node">
<title>Node20</title>
<g id="a_Node000020"><a xlink:href="$m__profile_8c.html#afa367fbc737a45369449f963fde361b6" xlink:title=" ">
<polygon fill="white" stroke="#666666" points="462.75,-162.5 358.25,-162.5 358.25,-129 462.75,-129 462.75,-162.5"/>
<text xml:space="preserve" text-anchor="start" x="366.25" y="-149" font-family="Helvetica,sans-Serif" font-size="10.00">m_profile_file_rep</text>
<text xml:space="preserve" text-anchor="middle" x="410.5" y="-136.25" font-family="Helvetica,sans-Serif" font-size="10.00">_update</text>
</a>
</g>
</g>
<!-- Node1&#45;&gt;Node20 -->
<g id="edge6_Node000001_Node000020" class="edge">
<title>Node1&#45;&gt;Node20</title>
<g id="a_edge6_Node000001_Node000020"><a xlink:title=" ">
<path fill="none" stroke="#63b8ff" d="M504.44,-115.05C491.28,-119.4 476.68,-124.22 463.02,-128.73"/>
<polygon fill="#63b8ff" stroke="#63b8ff" points="505.28,-118.46 513.68,-112 503.08,-111.82 505.28,-118.46"/>
</a>
</g>
</g>
<!-- Node25 -->
<g id="Node000025" class="node">
<title>Node25</title>
<g id="a_Node000025"><a xlink:href="$m__profile_8c.html#a7626d2057edcb47ce39ccbede89e5214" xlink:title=" ">
<polygon fill="white" stroke="#666666" points="456,-111.12 365,-111.12 365,-90.38 456,-90.38 456,-111.12"/>
<text xml:space="preserve" text-anchor="middle" x="410.5" y="-97.62" font-family="Helvetica,sans-Serif" font-size="10.00">m_profile_save</text>
</a>
</g>
</g>
<!-- Node1&#45;&gt;Node25 -->
<g id="edge11_Node000001_Node000025" class="edge">
<title>Node1&#45;&gt;Node25</title>
<g id="a_edge11_Node000001_Node000025"><a xlink:title=" ">
<path fill="none" stroke="#63b8ff" d="M499.16,-100.75C485.24,-100.75 470.13,-100.75 456.44,-100.75"/>
<polygon fill="#63b8ff" stroke="#63b8ff" points="499.01,-104.25 509.01,-100.75 499.01,-97.25 499.01,-104.25"/>
</a>
</g>
</g>
<!-- Node41 -->
<g id="Node000041" class="node">
<title>Node41</title>
<g id="a_Node000041"><a xlink:href="$m__profile__settings_8c.html#a7d269d1811d33f56b80a170b969cb6fb" xlink:title=" ">
<polygon fill="white" stroke="#666666" points="470.62,-72.5 350.38,-72.5 350.38,-39 470.62,-39 470.62,-72.5"/>
<text xml:space="preserve" text-anchor="start" x="358.38" y="-59" font-family="Helvetica,sans-Serif" font-size="10.00">profile_settings_save</text>
<text xml:space="preserve" text-anchor="middle" x="410.5" y="-46.25" font-family="Helvetica,sans-Serif" font-size="10.00">_button_cb</text>
</a>
</g>
</g>
<!-- Node1&#45;&gt;Node41 -->
<g id="edge14_Node000001_Node000041" class="edge">
<title>Node1&#45;&gt;Node41</title>
<g id="a_edge14_Node000001_Node000041"><a xlink:title=" ">
<path fill="none" stroke="#63b8ff" d="M504.56,-86.48C491.53,-82.18 477.09,-77.41 463.55,-72.94"/>
<polygon fill="#63b8ff" stroke="#63b8ff" points="503.08,-89.68 513.68,-89.5 505.28,-83.04 503.08,-89.68"/>
</a>
</g>
</g>
<!-- Node42 -->
<g id="Node000042" class="node">
<title>Node42</title>
<g id="a_Node000042"><a xlink:href="$m__files_8c.html#a236093031a61a19c58458ff9d0ecca85" xlink:title=" ">
<polygon fill="white" stroke="#666666" points="474.75,-21.12 346.25,-21.12 346.25,-0.38 474.75,-0.38 474.75,-21.12"/>
<text xml:space="preserve" text-anchor="middle" x="410.5" y="-7.62" font-family="Helvetica,sans-Serif" font-size="10.00">save_sequence_as_file</text>
</a>
</g>
</g>
<!-- Node1&#45;&gt;Node42 -->
<g id="edge15_Node000001_Node000042" class="edge">
<title>Node1&#45;&gt;Node42</title>
<g id="a_edge15_Node000001_Node000042"><a xlink:title=" ">
<path fill="none" stroke="#63b8ff" d="M532.45,-81.38C518.87,-65.4 497.68,-43.24 474.75,-29.75 469.31,-26.55 463.29,-23.85 457.19,-21.58"/>
<polygon fill="#63b8ff" stroke="#63b8ff" points="529.5,-83.3 538.56,-88.79 534.9,-78.85 529.5,-83.3"/>
</a>
</g>
</g>
<!-- Node3 -->
<g id="Node000003" class="node">
<title>Node3</title>
<g id="a_Node000003"><a xlink:href="$m__effect_8c.html#a3258a7f312e7d7dede5095eb53da6416" xlink:title=" ">
<polygon fill="white" stroke="#666666" points="283.62,-251.12 218.12,-251.12 218.12,-230.38 283.62,-230.38 283.62,-251.12"/>
<text xml:space="preserve" text-anchor="middle" x="250.88" y="-237.62" font-family="Helvetica,sans-Serif" font-size="10.00">init_effect</text>
</a>
</g>
</g>
<!-- Node2&#45;&gt;Node3 -->
<g id="edge2_Node000002_Node000003" class="edge">
<title>Node2&#45;&gt;Node3</title>
<g id="a_edge2_Node000002_Node000003"><a xlink:title=" ">
<path fill="none" stroke="#63b8ff" d="M340.29,-234.02C320.69,-235.51 300.28,-237.06 284.02,-238.3"/>
<polygon fill="#63b8ff" stroke="#63b8ff" points="340.49,-237.51 350.19,-233.27 339.96,-230.53 340.49,-237.51"/>
</a>
</g>
</g>
<!-- Node4 -->
<g id="Node000004" class="node">
<title>Node4</title>
<g id="a_Node000004"><a xlink:href="$m__effect_8c.html#a93e462e09ad909e5888ae697e63a3a4f" xlink:title=" ">
<polygon fill="#fff0f0" stroke="red" points="115.75,-310.12 39.75,-310.12 39.75,-289.38 115.75,-289.38 115.75,-310.12"/>
<text xml:space="preserve" text-anchor="middle" x="77.75" y="-296.62" font-family="Helvetica,sans-Serif" font-size="10.00">clone_effect</text>
</a>
</g>
</g>
<!-- Node3&#45;&gt;Node4 -->
<g id="edge3_Node000003_Node000004" class="edge">
<title>Node3&#45;&gt;Node4</title>
<g id="a_edge3_Node000003_Node000004"><a xlink:title=" ">
<path fill="none" stroke="#63b8ff" d="M215.75,-256.18C198,-263.86 175.82,-272.94 155.5,-279.75 142.84,-283.99 128.75,-287.89 116.14,-291.1"/>
<polygon fill="#63b8ff" stroke="#63b8ff" points="217.03,-259.44 224.78,-252.22 214.22,-253.03 217.03,-259.44"/>
</a>
</g>
</g>
<!-- Node7 -->
<g id="Node000007" class="node">
<title>Node7</title>
<g id="a_Node000007"><a xlink:href="$m__effect_8c.html#a8e75c554d3e8551168278ca959dd73e0" xlink:title=" ">
<polygon fill="#fff0f0" stroke="red" points="155.5,-271.12 0,-271.12 0,-250.38 155.5,-250.38 155.5,-271.12"/>
<text xml:space="preserve" text-anchor="middle" x="77.75" y="-257.62" font-family="Helvetica,sans-Serif" font-size="10.00">init_effect_from_effect_desc</text>
</a>
</g>
</g>
<!-- Node3&#45;&gt;Node7 -->
<g id="edge4_Node000003_Node000007" class="edge">
<title>Node3&#45;&gt;Node7</title>
<g id="a_edge4_Node000003_Node000007"><a xlink:title=" ">
<path fill="none" stroke="#63b8ff" d="M206.44,-245.83C191.05,-247.62 173.25,-249.71 155.9,-251.73"/>
<polygon fill="#63b8ff" stroke="#63b8ff" points="206.66,-249.32 216.18,-244.69 205.85,-242.37 206.66,-249.32"/>
</a>
</g>
</g>
<!-- Node19 -->
<g id="Node000019" class="node">
<title>Node19</title>
<g id="a_Node000019"><a xlink:href="$m__effect__init_8c.html#a492354539b4f1a3cdeaba69ddd09ef2b" xlink:title=" ">
<polygon fill="white" stroke="#666666" points="131.5,-232.12 24,-232.12 24,-211.38 131.5,-211.38 131.5,-232.12"/>
<text xml:space="preserve" text-anchor="middle" x="77.75" y="-218.62" font-family="Helvetica,sans-Serif" font-size="10.00">init_effect_of_type</text>
</a>
</g>
</g>
<!-- Node3&#45;&gt;Node19 -->
<g id="edge5_Node000003_Node000019" class="edge">
<title>Node3&#45;&gt;Node19</title>
<g id="a_edge5_Node000003_Node000019"><a xlink:title=" ">
<path fill="none" stroke="#63b8ff" d="M206.38,-235.92C183.75,-233.41 155.89,-230.32 131.98,-227.66"/>
<polygon fill="#63b8ff" stroke="#63b8ff" points="205.86,-239.38 216.18,-237.01 206.63,-232.43 205.86,-239.38"/>
</a>
</g>
</g>
<!-- Node21 -->
<g id="Node000021" class="node">
<title>Node21</title>
<g id="a_Node000021"><a xlink:href="$m__profile_8c.html#ab73797729c3c2878fcbc0e8eb3a3b1d1" xlink:title=" ">
<polygon fill="white" stroke="#666666" points="292.62,-155.12 209.12,-155.12 209.12,-134.38 292.62,-134.38 292.62,-155.12"/>
<text xml:space="preserve" text-anchor="middle" x="250.88" y="-141.62" font-family="Helvetica,sans-Serif" font-size="10.00">init_m_profile</text>
</a>
</g>
</g>
<!-- Node20&#45;&gt;Node21 -->
<g id="edge7_Node000020_Node000021" class="edge">
<title>Node20&#45;&gt;Node21</title>
<g id="a_edge7_Node000020_Node000021"><a xlink:title=" ">
<path fill="none" stroke="#63b8ff" d="M346.57,-145.35C328.59,-145.24 309.45,-145.12 293.12,-145.01"/>
<polygon fill="#63b8ff" stroke="#63b8ff" points="346.35,-148.85 356.37,-145.41 346.4,-141.85 346.35,-148.85"/>
</a>
</g>
</g>
<!-- Node18 -->
<g id="Node000018" class="node">
<title>Node18</title>
<g id="a_Node000018"><a xlink:href="$m__files_8c.html#a8785e4c0fd9fa9638385ef725fe13adb" xlink:title=" ">
<polygon fill="#fff0f0" stroke="red" points="134.5,-193.12 21,-193.12 21,-172.38 134.5,-172.38 134.5,-193.12"/>
<text xml:space="preserve" text-anchor="middle" x="77.75" y="-179.62" font-family="Helvetica,sans-Serif" font-size="10.00">load_saved_profiles</text>
</a>
</g>
</g>
<!-- Node21&#45;&gt;Node18 -->
<g id="edge8_Node000021_Node000018" class="edge">
<title>Node21&#45;&gt;Node18</title>
<g id="a_edge8_Node000021_Node000018"><a xlink:title=" ">
<path fill="none" stroke="#63b8ff" d="M197.91,-156.29C175.57,-161.25 149.6,-167.02 127.62,-171.9"/>
<polygon fill="#63b8ff" stroke="#63b8ff" points="198.41,-159.76 207.41,-154.18 196.89,-152.93 198.41,-159.76"/>
</a>
</g>
</g>
<!-- Node22 -->
<g id="Node000022" class="node">
<title>Node22</title>
<g id="a_Node000022"><a xlink:href="$m__context_8c.html#a429a68b4aa5db546b964b5127a3ceb1e" xlink:title=" ">
<polygon fill="white" stroke="#666666" points="141.62,-154.12 13.88,-154.12 13.88,-133.38 141.62,-133.38 141.62,-154.12"/>
<text xml:space="preserve" text-anchor="middle" x="77.75" y="-140.62" font-family="Helvetica,sans-Serif" font-size="10.00">m_context_add_profile</text>
</a>
</g>
</g>
<!-- Node21&#45;&gt;Node22 -->
<g id="edge9_Node000021_Node000022" class="edge">
<title>Node21&#45;&gt;Node22</title>
<g id="a_edge9_Node000021_Node000022"><a xlink:title=" ">
<path fill="none" stroke="#63b8ff" d="M197.41,-144.44C179.85,-144.34 160.09,-144.23 141.8,-144.12"/>
<polygon fill="#63b8ff" stroke="#63b8ff" points="197.35,-147.94 207.37,-144.5 197.39,-140.94 197.35,-147.94"/>
</a>
</g>
</g>
<!-- Node23 -->
<g id="Node000023" class="node">
<title>Node23</title>
<g id="a_Node000023"><a xlink:href="$m__context_8c.html#aa02ce3f8fc944d9dda010f1975f5892b" xlink:title=" ">
<polygon fill="#fff0f0" stroke="red" points="149.12,-115.12 6.38,-115.12 6.38,-94.38 149.12,-94.38 149.12,-115.12"/>
<text xml:space="preserve" text-anchor="middle" x="77.75" y="-101.62" font-family="Helvetica,sans-Serif" font-size="10.00">m_context_add_profile_rp</text>
</a>
</g>
</g>
<!-- Node21&#45;&gt;Node23 -->
<g id="edge10_Node000021_Node000023" class="edge">
<title>Node21&#45;&gt;Node23</title>
<g id="a_edge10_Node000021_Node000023"><a xlink:title=" ">
<path fill="none" stroke="#63b8ff" d="M197.86,-132.59C174.69,-127.18 147.62,-120.85 125.14,-115.59"/>
<polygon fill="#63b8ff" stroke="#63b8ff" points="196.88,-135.96 207.41,-134.82 198.47,-129.14 196.88,-135.96"/>
</a>
</g>
</g>
<!-- Node26 -->
<g id="Node000026" class="node">
<title>Node26</title>
<g id="a_Node000026"><a xlink:href="$m__context_8c.html#ad6c6b5fc3e9422b30ebd4f7518b777d3" xlink:title=" ">
<polygon fill="white" stroke="#666666" points="310.25,-93.12 191.5,-93.12 191.5,-72.38 310.25,-72.38 310.25,-93.12"/>
<text xml:space="preserve" text-anchor="middle" x="250.88" y="-79.62" font-family="Helvetica,sans-Serif" font-size="10.00">cxt_save_all_profiles</text>
</a>
</g>
</g>
<!-- Node25&#45;&gt;Node26 -->
<g id="edge12_Node000025_Node000026" class="edge">
<title>Node25&#45;&gt;Node26</title>
<g id="a_edge12_Node000025_Node000026"><a xlink:title=" ">
<path fill="none" stroke="#63b8ff" d="M353.38,-94.34C339.49,-92.76 324.59,-91.05 310.59,-89.45"/>
<polygon fill="#63b8ff" stroke="#63b8ff" points="352.92,-97.81 363.25,-95.47 353.71,-90.86 352.92,-97.81"/>
</a>
</g>
</g>
<!-- Node27 -->
<g id="Node000027" class="node">
<title>Node27</title>
<g id="a_Node000027"><a xlink:href="$m__sequence__view_8c.html#a48d14522bbc105d8b61111d5dc6a7c8f" xlink:title=" ">
<polygon fill="#fff0f0" stroke="red" points="116.88,-75.12 38.62,-75.12 38.62,-54.38 116.88,-54.38 116.88,-75.12"/>
<text xml:space="preserve" text-anchor="middle" x="77.75" y="-61.62" font-family="Helvetica,sans-Serif" font-size="10.00">seq_save_cb</text>
</a>
</g>
</g>
<!-- Node26&#45;&gt;Node27 -->
<g id="edge13_Node000026_Node000027" class="edge">
<title>Node26&#45;&gt;Node27</title>
<g id="a_edge13_Node000026_Node000027"><a xlink:title=" ">
<path fill="none" stroke="#63b8ff" d="M180.07,-75.41C158.63,-73.15 135.83,-70.75 117.29,-68.8"/>
<polygon fill="#63b8ff" stroke="#63b8ff" points="179.65,-78.88 189.96,-76.45 180.38,-71.92 179.65,-78.88"/>
</a>
</g>
</g>
<!-- Node43 -->
<g id="Node000043" class="node">
<title>Node43</title>
<g id="a_Node000043"><a xlink:href="$m__files_8c.html#a670728d608e316af6c3056850cb5b899" xlink:title=" ">
<polygon fill="white" stroke="#666666" points="296.38,-27.12 205.38,-27.12 205.38,-6.38 296.38,-6.38 296.38,-27.12"/>
<text xml:space="preserve" text-anchor="middle" x="250.88" y="-13.62" font-family="Helvetica,sans-Serif" font-size="10.00">save_sequence</text>
</a>
</g>
</g>
<!-- Node42&#45;&gt;Node43 -->
<g id="edge16_Node000042_Node000043" class="edge">
<title>Node42&#45;&gt;Node43</title>
<g id="a_edge16_Node000042_Node000043"><a xlink:title=" ">
<path fill="none" stroke="#63b8ff" d="M334.47,-13.61C321.44,-14.1 308.28,-14.6 296.41,-15.05"/>
<polygon fill="#63b8ff" stroke="#63b8ff" points="334.47,-17.11 344.33,-13.23 334.2,-10.11 334.47,-17.11"/>
</a>
</g>
</g>
<!-- Node43&#45;&gt;Node27 -->
<g id="edge18_Node000043_Node000027" class="edge">
<title>Node43&#45;&gt;Node27</title>
<g id="a_edge18_Node000043_Node000027"><a xlink:title=" ">
<path fill="none" stroke="#63b8ff" d="M200.52,-30.6C174.05,-38.02 141.93,-47.03 117.32,-53.93"/>
<polygon fill="#63b8ff" stroke="#63b8ff" points="201.33,-34 210.01,-27.93 199.44,-27.26 201.33,-34"/>
</a>
</g>
</g>
<!-- Node44 -->
<g id="Node000044" class="node">
<title>Node44</title>
<g id="a_Node000044"><a xlink:href="$m__sequence_8c.html#a46e51e353870699f67f299ba1ca79272" xlink:title=" ">
<polygon fill="#fff0f0" stroke="red" points="137.5,-33.5 18,-33.5 18,0 137.5,0 137.5,-33.5"/>
<text xml:space="preserve" text-anchor="start" x="26" y="-20" font-family="Helvetica,sans-Serif" font-size="10.00">m_sequence_file_rep</text>
<text xml:space="preserve" text-anchor="middle" x="77.75" y="-7.25" font-family="Helvetica,sans-Serif" font-size="10.00">_update</text>
</a>
</g>
</g>
<!-- Node43&#45;&gt;Node44 -->
<g id="edge17_Node000043_Node000044" class="edge">
<title>Node43&#45;&gt;Node44</title>
<g id="a_edge17_Node000043_Node000044"><a xlink:title=" ">
<path fill="none" stroke="#63b8ff" d="M193.51,-16.75C175.68,-16.75 155.92,-16.75 137.9,-16.75"/>
<polygon fill="#63b8ff" stroke="#63b8ff" points="193.4,-20.25 203.4,-16.75 193.4,-13.25 193.4,-20.25"/>
</a>
</g>
</g>
</g>
</svg>
