<?xml version="1.0" encoding="UTF-8" standalone="no"?>
<!DOCTYPE svg PUBLIC "-//W3C//DTD SVG 1.1//EN"
 "http://www.w3.org/Graphics/SVG/1.1/DTD/svg11.dtd">
<!-- Generated by graphviz version 13.1.2 (20250808.2320)
 -->
<!-- Title: read_profile_from_file Pages: 1 -->
<svg width="742pt" height="147pt"
 viewBox="0.00 0.00 742.00 147.00" xmlns="http://www.w3.org/2000/svg" xmlns:xlink="http://www.w3.org/1999/xlink">
<g id="graph0" class="graph" transform="scale(1 1) rotate(0) translate(4 143.12)">
<title>read_profile_from_file</title>
<!-- Node1 -->
<g id="Node000001" class="node">
<title>Node1</title>
<g id="a_Node000001"><a xlink:title=" ">
<polygon fill="#999999" stroke="#666666" points="124,-94.12 0,-94.12 0,-73.38 124,-73.38 124,-94.12"/>
<text xml:space="preserve" text-anchor="middle" x="62" y="-80.62" font-family="Helvetica,sans-Serif" font-size="10.00">read_profile_from_file</text>
</a>
</g>
</g>
<!-- Node2 -->
<g id="Node000002" class="node">
<title>Node2</title>
<g id="a_Node000002"><a xlink:href="m__files_8c.html#ab79d861306c25eab9284239e73d0cc07" target="_top" xlink:title=" ">
<polygon fill="white" stroke="#666666" points="308.75,-139.12 196.75,-139.12 196.75,-118.38 308.75,-118.38 308.75,-139.12"/>
<text xml:space="preserve" text-anchor="middle" x="252.75" y="-125.62" font-family="Helvetica,sans-Serif" font-size="10.00">dump_file_contents</text>
</a>
</g>
</g>
<!-- Node1&#45;&gt;Node2 -->
<g id="edge1_Node000001_Node000002" class="edge">
<title>Node1&#45;&gt;Node2</title>
<g id="a_edge1_Node000001_Node000002"><a xlink:title=" ">
<path fill="none" stroke="#63b8ff" d="M101.11,-94.51C118.94,-99.4 140.49,-105.12 160,-109.75 168.25,-111.71 176.95,-113.66 185.57,-115.52"/>
<polygon fill="#63b8ff" stroke="#63b8ff" points="184.82,-118.94 195.33,-117.6 186.28,-112.09 184.82,-118.94"/>
</a>
</g>
</g>
<!-- Node3 -->
<g id="Node000003" class="node">
<title>Node3</title>
<g id="a_Node000003"><a xlink:href="m__context_8c.html#a1f1029aa04e9392da938b978925d145f" target="_top" xlink:title=" ">
<polygon fill="white" stroke="#666666" points="317,-100.5 188.5,-100.5 188.5,-67 317,-67 317,-100.5"/>
<text xml:space="preserve" text-anchor="start" x="196.5" y="-87" font-family="Helvetica,sans-Serif" font-size="10.00">m_cxt_get_effect_desc</text>
<text xml:space="preserve" text-anchor="middle" x="252.75" y="-74.25" font-family="Helvetica,sans-Serif" font-size="10.00">_from_cname</text>
</a>
</g>
</g>
<!-- Node1&#45;&gt;Node3 -->
<g id="edge2_Node000001_Node000003" class="edge">
<title>Node1&#45;&gt;Node3</title>
<g id="a_edge2_Node000001_Node000003"><a xlink:title=" ">
<path fill="none" stroke="#63b8ff" d="M124.28,-83.75C141.06,-83.75 159.43,-83.75 176.88,-83.75"/>
<polygon fill="#63b8ff" stroke="#63b8ff" points="176.67,-87.25 186.67,-83.75 176.67,-80.25 176.67,-87.25"/>
</a>
</g>
</g>
<!-- Node4 -->
<g id="Node000004" class="node">
<title>Node4</title>
<g id="a_Node000004"><a xlink:href="m__profile_8c.html#a01a263a3178ca21ca06b9815f753b9dc" target="_top" xlink:title=" ">
<polygon fill="white" stroke="#666666" points="345.5,-49.12 160,-49.12 160,-28.38 345.5,-28.38 345.5,-49.12"/>
<text xml:space="preserve" text-anchor="middle" x="252.75" y="-35.62" font-family="Helvetica,sans-Serif" font-size="10.00">m_profile_append_transformer_eff</text>
</a>
</g>
</g>
<!-- Node1&#45;&gt;Node4 -->
<g id="edge3_Node000001_Node000004" class="edge">
<title>Node1&#45;&gt;Node4</title>
<g id="a_edge3_Node000001_Node000004"><a xlink:title=" ">
<path fill="none" stroke="#63b8ff" d="M101.11,-72.99C118.94,-68.1 140.49,-62.38 160,-57.75 168.25,-55.79 176.95,-53.84 185.57,-51.98"/>
<polygon fill="#63b8ff" stroke="#63b8ff" points="186.28,-55.41 195.33,-49.9 184.82,-48.56 186.28,-55.41"/>
</a>
</g>
</g>
<!-- Node5 -->
<g id="Node000005" class="node">
<title>Node5</title>
<g id="a_Node000005"><a xlink:href="m__pipeline_8c.html#a65d3d1e281cbed15cd98d47ee1c62de5" target="_top" xlink:title=" ">
<polygon fill="white" stroke="#666666" points="574.5,-72.12 381.5,-72.12 381.5,-51.38 574.5,-51.38 574.5,-72.12"/>
<text xml:space="preserve" text-anchor="middle" x="478" y="-58.62" font-family="Helvetica,sans-Serif" font-size="10.00">m_pipeline_append_transformer_eff</text>
</a>
</g>
</g>
<!-- Node4&#45;&gt;Node5 -->
<g id="edge4_Node000004_Node000005" class="edge">
<title>Node4&#45;&gt;Node5</title>
<g id="a_edge4_Node000004_Node000005"><a xlink:title=" ">
<path fill="none" stroke="#63b8ff" d="M345.84,-48.24C353.76,-49.05 361.82,-49.88 369.84,-50.71"/>
<polygon fill="#63b8ff" stroke="#63b8ff" points="369.33,-54.18 379.64,-51.72 370.05,-47.21 369.33,-54.18"/>
</a>
</g>
</g>
<!-- Node33 -->
<g id="Node000033" class="node">
<title>Node33</title>
<g id="a_Node000033"><a xlink:href="m__transformer_8c.html#aab76ab229df5b4b35748c5b89e61f8ce" target="_top" xlink:title=" ">
<polygon fill="white" stroke="#666666" points="533.25,-33.5 422.75,-33.5 422.75,0 533.25,0 533.25,-33.5"/>
<text xml:space="preserve" text-anchor="start" x="430.75" y="-20" font-family="Helvetica,sans-Serif" font-size="10.00">transformer_rectify</text>
<text xml:space="preserve" text-anchor="middle" x="478" y="-7.25" font-family="Helvetica,sans-Serif" font-size="10.00">_param_ids</text>
</a>
</g>
</g>
<!-- Node4&#45;&gt;Node33 -->
<g id="edge6_Node000004_Node000033" class="edge">
<title>Node4&#45;&gt;Node33</title>
<g id="a_edge6_Node000004_Node000033"><a xlink:title=" ">
<path fill="none" stroke="#63b8ff" d="M345.84,-29.67C367.73,-27.52 390.66,-25.26 411.11,-23.24"/>
<polygon fill="#63b8ff" stroke="#63b8ff" points="411.39,-26.73 421,-22.27 410.71,-19.77 411.39,-26.73"/>
</a>
</g>
</g>
<!-- Node6 -->
<g id="Node000006" class="node">
<title>Node6</title>
<g id="a_Node000006"><a xlink:href="m__transformer_8c.html#a82e07502ed806f5697b6bd564f934b39" target="_top" xlink:title=" ">
<polygon fill="#fff0f0" stroke="red" points="733.75,-78.5 610.5,-78.5 610.5,-45 733.75,-45 733.75,-78.5"/>
<text xml:space="preserve" text-anchor="start" x="618.5" y="-65" font-family="Helvetica,sans-Serif" font-size="10.00">init_transformer_from</text>
<text xml:space="preserve" text-anchor="middle" x="672.12" y="-52.25" font-family="Helvetica,sans-Serif" font-size="10.00">_effect_desc</text>
</a>
</g>
</g>
<!-- Node5&#45;&gt;Node6 -->
<g id="edge5_Node000005_Node000006" class="edge">
<title>Node5&#45;&gt;Node6</title>
<g id="a_edge5_Node000005_Node000006"><a xlink:title=" ">
<path fill="none" stroke="#63b8ff" d="M574.78,-61.75C582.86,-61.75 590.95,-61.75 598.81,-61.75"/>
<polygon fill="#63b8ff" stroke="#63b8ff" points="598.62,-65.25 608.62,-61.75 598.62,-58.25 598.62,-65.25"/>
</a>
</g>
</g>
</g>
</svg>
