<?xml version="1.0" encoding="UTF-8" standalone="no"?>
<!DOCTYPE svg PUBLIC "-//W3C//DTD SVG 1.1//EN"
 "http://www.w3.org/Graphics/SVG/1.1/DTD/svg11.dtd">
<!-- Generated by graphviz version 13.1.2 (20250808.2320)
 -->
<!-- Title: print_instruction_format_b Pages: 1 -->
<svg width="590pt" height="29pt"
 viewBox="0.00 0.00 590.00 29.00" xmlns="http://www.w3.org/2000/svg" xmlns:xlink="http://www.w3.org/1999/xlink">
<g id="graph0" class="graph" transform="scale(1 1) rotate(0) translate(4 24.75)">
<title>print_instruction_format_b</title>
<!-- Node1 -->
<g id="Node000001" class="node">
<title>Node1</title>
<g id="a_Node000001"><a xlink:title=" ">
<polygon fill="#999999" stroke="#666666" points="581.5,-20.75 436.5,-20.75 436.5,0 581.5,0 581.5,-20.75"/>
<text xml:space="preserve" text-anchor="middle" x="509" y="-7.25" font-family="Helvetica,sans-Serif" font-size="10.00">print_instruction_format_b</text>
</a>
</g>
</g>
<!-- Node2 -->
<g id="Node000002" class="node">
<title>Node2</title>
<g id="a_Node000002"><a xlink:href="m__fpga__encoding_8c.html#a9f3d76916b565e27599aebdb6c624499" target="_top" xlink:title=" ">
<polygon fill="white" stroke="#666666" points="400.5,-20.75 305,-20.75 305,0 400.5,0 400.5,-20.75"/>
<text xml:space="preserve" text-anchor="middle" x="352.75" y="-7.25" font-family="Helvetica,sans-Serif" font-size="10.00">print_instruction</text>
</a>
</g>
</g>
<!-- Node1&#45;&gt;Node2 -->
<g id="edge1_Node000001_Node000002" class="edge">
<title>Node1&#45;&gt;Node2</title>
<g id="a_edge1_Node000001_Node000002"><a xlink:title=" ">
<path fill="none" stroke="#63b8ff" d="M424.92,-10.38C416.59,-10.38 408.36,-10.38 400.61,-10.38"/>
<polygon fill="#63b8ff" stroke="#63b8ff" points="424.78,-13.88 434.78,-10.38 424.78,-6.88 424.78,-13.88"/>
</a>
</g>
</g>
<!-- Node3 -->
<g id="Node000003" class="node">
<title>Node3</title>
<g id="a_Node000003"><a xlink:href="m__fpga__encoding_8c.html#af8fd2e0f6f91b421e40171f4c00b2f81" target="_top" xlink:title=" ">
<polygon fill="white" stroke="#666666" points="269,-20.75 156.25,-20.75 156.25,0 269,0 269,-20.75"/>
<text xml:space="preserve" text-anchor="middle" x="212.62" y="-7.25" font-family="Helvetica,sans-Serif" font-size="10.00">m_fpga_batch_print</text>
</a>
</g>
</g>
<!-- Node2&#45;&gt;Node3 -->
<g id="edge2_Node000002_Node000003" class="edge">
<title>Node2&#45;&gt;Node3</title>
<g id="a_edge2_Node000002_Node000003"><a xlink:title=" ">
<path fill="none" stroke="#63b8ff" d="M293.13,-10.38C285.18,-10.38 277.03,-10.38 269.14,-10.38"/>
<polygon fill="#63b8ff" stroke="#63b8ff" points="293.09,-13.88 303.09,-10.38 293.09,-6.88 293.09,-13.88"/>
</a>
</g>
</g>
<!-- Node4 -->
<g id="Node000004" class="node">
<title>Node4</title>
<g id="a_Node000004"><a xlink:href="m__fpga__comms_8c.html#abfe39a66ff3496fa4bbb972c7ce434c0" target="_top" xlink:title=" ">
<polygon fill="#fff0f0" stroke="red" points="120.25,-20.75 0,-20.75 0,0 120.25,0 120.25,-20.75"/>
<text xml:space="preserve" text-anchor="middle" x="60.12" y="-7.25" font-family="Helvetica,sans-Serif" font-size="10.00">m_fpga_comms_task</text>
</a>
</g>
</g>
<!-- Node3&#45;&gt;Node4 -->
<g id="edge3_Node000003_Node000004" class="edge">
<title>Node3&#45;&gt;Node4</title>
<g id="a_edge3_Node000003_Node000004"><a xlink:title=" ">
<path fill="none" stroke="#63b8ff" d="M144.74,-10.38C136.68,-10.38 128.49,-10.38 120.55,-10.38"/>
<polygon fill="#63b8ff" stroke="#63b8ff" points="144.5,-13.88 154.5,-10.38 144.5,-6.88 144.5,-13.88"/>
</a>
</g>
</g>
</g>
</svg>
