<?xml version="1.0" encoding="UTF-8" standalone="no"?>
<!DOCTYPE svg PUBLIC "-//W3C//DTD SVG 1.1//EN"
 "http://www.w3.org/Graphics/SVG/1.1/DTD/svg11.dtd">
<!-- Generated by graphviz version 13.1.2 (20250808.2320)
 -->
<!-- Title: m_fpga_batch_append_resource Pages: 1 -->
<svg width="476pt" height="105pt"
 viewBox="0.00 0.00 476.00 105.00" xmlns="http://www.w3.org/2000/svg" xmlns:xlink="http://www.w3.org/1999/xlink">
<g id="graph0" class="graph" transform="scale(1 1) rotate(0) translate(4 100.75)">
<title>m_fpga_batch_append_resource</title>
<!-- Node1 -->
<g id="Node000001" class="node">
<title>Node1</title>
<g id="a_Node000001"><a xlink:title=" ">
<polygon fill="#999999" stroke="#666666" points="126.25,-65.12 0,-65.12 0,-31.62 126.25,-31.62 126.25,-65.12"/>
<text xml:space="preserve" text-anchor="start" x="8" y="-51.62" font-family="Helvetica,sans-Serif" font-size="10.00">m_fpga_batch_append</text>
<text xml:space="preserve" text-anchor="middle" x="63.12" y="-38.88" font-family="Helvetica,sans-Serif" font-size="10.00">_resource</text>
</a>
</g>
</g>
<!-- Node2 -->
<g id="Node000002" class="node">
<title>Node2</title>
<g id="a_Node000002"><a xlink:href="$m__expression_8c.html#a0938d229ef0ec131b65241e93dc6166d" xlink:title=" ">
<polygon fill="white" stroke="#666666" points="300.12,-96.75 167.88,-96.75 167.88,-76 300.12,-76 300.12,-96.75"/>
<text xml:space="preserve" text-anchor="middle" x="234" y="-83.25" font-family="Helvetica,sans-Serif" font-size="10.00">m_expression_evaluate</text>
</a>
</g>
</g>
<!-- Node1&#45;&gt;Node2 -->
<g id="edge1_Node000001_Node000002" class="edge">
<title>Node1&#45;&gt;Node2</title>
<g id="a_edge1_Node000001_Node000002"><a xlink:title=" ">
<path fill="none" stroke="#63b8ff" d="M126.53,-62.42C142.03,-65.9 158.59,-69.63 173.93,-73.08"/>
<polygon fill="#63b8ff" stroke="#63b8ff" points="172.84,-76.43 183.36,-75.21 174.38,-69.6 172.84,-76.43"/>
</a>
</g>
</g>
<!-- Node3 -->
<g id="Node000003" class="node">
<title>Node3</title>
<g id="a_Node000003"><a xlink:href="$m__fpga__io_8c.html#a79d3271b8a45d157eb1d205c3a9cfbfa" xlink:title=" ">
<polygon fill="white" stroke="#666666" points="468,-39.75 341.75,-39.75 341.75,-19 468,-19 468,-39.75"/>
<text xml:space="preserve" text-anchor="middle" x="404.88" y="-26.25" font-family="Helvetica,sans-Serif" font-size="10.00">m_fpga_batch_append</text>
</a>
</g>
</g>
<!-- Node1&#45;&gt;Node3 -->
<g id="edge2_Node000001_Node000003" class="edge">
<title>Node1&#45;&gt;Node3</title>
<g id="a_edge2_Node000001_Node000003"><a xlink:title=" ">
<path fill="none" stroke="#63b8ff" d="M126.44,-44.89C183.85,-41.68 269.1,-36.91 329.94,-33.51"/>
<polygon fill="#63b8ff" stroke="#63b8ff" points="330.08,-37.01 339.87,-32.95 329.69,-30.02 330.08,-37.01"/>
</a>
</g>
</g>
<!-- Node4 -->
<g id="Node000004" class="node">
<title>Node4</title>
<g id="a_Node000004"><a xlink:href="$m__fpga__io_8c.html#a0bfca21fa350d95349da7782f42a03a5" xlink:title=" ">
<polygon fill="white" stroke="#666666" points="305.75,-20.75 162.25,-20.75 162.25,0 305.75,0 305.75,-20.75"/>
<text xml:space="preserve" text-anchor="middle" x="234" y="-7.25" font-family="Helvetica,sans-Serif" font-size="10.00">m_fpga_batch_append_24</text>
</a>
</g>
</g>
<!-- Node1&#45;&gt;Node4 -->
<g id="edge3_Node000001_Node000004" class="edge">
<title>Node1&#45;&gt;Node4</title>
<g id="a_edge3_Node000001_Node000004"><a xlink:title=" ">
<path fill="none" stroke="#63b8ff" d="M126.53,-34.33C142.03,-30.85 158.59,-27.12 173.93,-23.67"/>
<polygon fill="#63b8ff" stroke="#63b8ff" points="174.38,-27.15 183.36,-21.54 172.84,-20.32 174.38,-27.15"/>
</a>
</g>
</g>
<!-- Node4&#45;&gt;Node3 -->
<g id="edge4_Node000004_Node000003" class="edge">
<title>Node4&#45;&gt;Node3</title>
<g id="a_edge4_Node000004_Node000003"><a xlink:title=" ">
<path fill="none" stroke="#63b8ff" d="M306.13,-18.38C314.09,-19.27 322.22,-20.19 330.22,-21.09"/>
<polygon fill="#63b8ff" stroke="#63b8ff" points="329.57,-24.54 339.9,-22.18 330.35,-17.58 329.57,-24.54"/>
</a>
</g>
</g>
</g>
</svg>
