<?xml version="1.0" encoding="UTF-8" standalone="no"?>
<!DOCTYPE svg PUBLIC "-//W3C//DTD SVG 1.1//EN"
 "http://www.w3.org/Graphics/SVG/1.1/DTD/svg11.dtd">
<!-- Generated by graphviz version 13.1.2 (20250808.2320)
 -->
<!-- Title: save_profile Pages: 1 -->
<svg width="251pt" height="146pt"
 viewBox="0.00 0.00 251.00 146.00" xmlns="http://www.w3.org/2000/svg" xmlns:xlink="http://www.w3.org/1999/xlink">

<svg id="main" version="1.1" xmlns="http://www.w3.org/2000/svg" xmlns:xlink="http://www.w3.org/1999/xlink" xml:space="preserve">

<style type="text/css"><![CDATA[
.node, .edge {opacity: 0.7;}
.node.selected, .edge.selected {opacity: 1;}
.edge:hover path { stroke: red; }
.edge:hover polygon { stroke: red; fill: red; }
]]></style>
<script type="application/ecmascript" xlink:href="svg.min.js"/>
<svg id="graph" class="graph">
<g id="graph0" class="graph" transform="scale(1 1) rotate(0) translate(4 141.75)">
<title>save_profile</title>
<!-- Node1 -->
<g id="Node000001" class="node">
<title>Node1</title>
<g id="a_Node000001"><a xlink:title=" ">
<polygon fill="#999999" stroke="#666666" points="76,-78.75 0,-78.75 0,-58 76,-58 76,-78.75"/>
<text xml:space="preserve" text-anchor="middle" x="38" y="-65.25" font-family="Helvetica,sans-Serif" font-size="10.00">save_profile</text>
</a>
</g>
</g>
<!-- Node2 -->
<g id="Node000002" class="node">
<title>Node2</title>
<g id="a_Node000002"><a xlink:href="m__files_8c.html#ab79d861306c25eab9284239e73d0cc07" target="_top" xlink:title=" ">
<polygon fill="white" stroke="#666666" points="233.38,-137.75 121.38,-137.75 121.38,-117 233.38,-117 233.38,-137.75"/>
<text xml:space="preserve" text-anchor="middle" x="177.38" y="-124.25" font-family="Helvetica,sans-Serif" font-size="10.00">dump_file_contents</text>
</a>
</g>
</g>
<!-- Node1&#45;&gt;Node2 -->
<g id="edge1_Node000001_Node000002" class="edge">
<title>Node1&#45;&gt;Node2</title>
<g id="a_edge1_Node000001_Node000002"><a xlink:title=" ">
<path fill="none" stroke="#63b8ff" d="M56.83,-79.13C71.33,-87.58 92.51,-99.23 112,-107.38 116.68,-109.33 121.62,-111.2 126.61,-112.95"/>
<polygon fill="#63b8ff" stroke="#63b8ff" points="125.45,-116.26 136.05,-116.12 127.68,-109.62 125.45,-116.26"/>
</a>
</g>
</g>
<!-- Node3 -->
<g id="Node000003" class="node">
<title>Node3</title>
<g id="a_Node000003"><a xlink:href="m__files_8c.html#aa81649890323b78baf99fbbad53ab5ff" target="_top" xlink:title=" ">
<polygon fill="white" stroke="#666666" points="231.5,-98.75 123.25,-98.75 123.25,-78 231.5,-78 231.5,-98.75"/>
<text xml:space="preserve" text-anchor="middle" x="177.38" y="-85.25" font-family="Helvetica,sans-Serif" font-size="10.00">generate_filename</text>
</a>
</g>
</g>
<!-- Node1&#45;&gt;Node3 -->
<g id="edge2_Node000001_Node000003" class="edge">
<title>Node1&#45;&gt;Node3</title>
<g id="a_edge2_Node000001_Node000003"><a xlink:title=" ">
<path fill="none" stroke="#63b8ff" d="M76.18,-73.79C87.19,-75.39 99.58,-77.19 111.8,-78.97"/>
<polygon fill="#63b8ff" stroke="#63b8ff" points="111.02,-82.4 121.42,-80.37 112.03,-75.47 111.02,-82.4"/>
</a>
</g>
</g>
<!-- Node4 -->
<g id="Node000004" class="node">
<title>Node4</title>
<g id="a_Node000004"><a xlink:href="m__error__codes_8c.html#a5298df5c7af3a6aac90c055a615b171a" target="_top" xlink:title=" ">
<polygon fill="white" stroke="#666666" points="242.75,-59.75 112,-59.75 112,-39 242.75,-39 242.75,-59.75"/>
<text xml:space="preserve" text-anchor="middle" x="177.38" y="-46.25" font-family="Helvetica,sans-Serif" font-size="10.00">m_error_code_to_string</text>
</a>
</g>
</g>
<!-- Node1&#45;&gt;Node4 -->
<g id="edge3_Node000001_Node000004" class="edge">
<title>Node1&#45;&gt;Node4</title>
<g id="a_edge3_Node000001_Node000004"><a xlink:title=" ">
<path fill="none" stroke="#63b8ff" d="M76.18,-63.23C83.8,-62.18 92.09,-61.03 100.52,-59.87"/>
<polygon fill="#63b8ff" stroke="#63b8ff" points="100.72,-63.37 110.14,-58.54 99.76,-56.44 100.72,-63.37"/>
</a>
</g>
</g>
<!-- Node5 -->
<g id="Node000005" class="node">
<title>Node5</title>
<g id="a_Node000005"><a xlink:href="m__files_8c.html#a5e826883d22a89fd2fbc57da00f49107" target="_top" xlink:title=" ">
<polygon fill="white" stroke="#666666" points="234.12,-20.75 120.62,-20.75 120.62,0 234.12,0 234.12,-20.75"/>
<text xml:space="preserve" text-anchor="middle" x="177.38" y="-7.25" font-family="Helvetica,sans-Serif" font-size="10.00">save_profile_as_file</text>
</a>
</g>
</g>
<!-- Node1&#45;&gt;Node5 -->
<g id="edge4_Node000001_Node000005" class="edge">
<title>Node1&#45;&gt;Node5</title>
<g id="a_edge4_Node000001_Node000005"><a xlink:title=" ">
<path fill="none" stroke="#63b8ff" d="M57.47,-57.59C71.97,-49.41 92.84,-38.26 112,-30.38 116.69,-28.44 121.64,-26.59 126.63,-24.85"/>
<polygon fill="#63b8ff" stroke="#63b8ff" points="127.7,-28.18 136.07,-21.7 125.48,-21.54 127.7,-28.18"/>
</a>
</g>
</g>
</g>
</svg>
</svg>

<style type='text/css'>
<![CDATA[
[data-mouse-over-selected='false'] { opacity: 0.7; }
[data-mouse-over-selected='true']  { opacity: 1.0; }
]]>
</style>
<script type="application/ecmascript"><![CDATA[
document.addEventListener('DOMContentLoaded', (event) => {
  highlightEdges();
  highlightAdjacentNodes();
});
]]></script>
</svg>
