<?xml version="1.0" encoding="UTF-8" standalone="no"?>
<!DOCTYPE svg PUBLIC "-//W3C//DTD SVG 1.1//EN"
 "http://www.w3.org/Graphics/SVG/1.1/DTD/svg11.dtd">
<!-- Generated by graphviz version 13.1.2 (20250808.2320)
 -->
<!-- Title: dump_file_contents Pages: 1 -->
<svg width="962pt" height="441pt"
 viewBox="0.00 0.00 962.00 441.00" xmlns="http://www.w3.org/2000/svg" xmlns:xlink="http://www.w3.org/1999/xlink">
<g id="graph0" class="graph" transform="scale(1 1) rotate(0) translate(4 437.07)">
<title>dump_file_contents</title>
<!-- Node1 -->
<g id="Node000001" class="node">
<title>Node1</title>
<g id="a_Node000001"><a xlink:title=" ">
<polygon fill="#999999" stroke="#666666" points="954.25,-190.44 842.25,-190.44 842.25,-169.69 954.25,-169.69 954.25,-190.44"/>
<text xml:space="preserve" text-anchor="middle" x="898.25" y="-176.94" font-family="Helvetica,sans-Serif" font-size="10.00">dump_file_contents</text>
</a>
</g>
</g>
<!-- Node2 -->
<g id="Node000002" class="node">
<title>Node2</title>
<g id="a_Node000002"><a xlink:href="$m__files_8c.html#a42a31fc3110de45960dd88975c2f9f35" xlink:title=" ">
<polygon fill="white" stroke="#666666" points="302.25,-410.44 185.75,-410.44 185.75,-389.69 302.25,-389.69 302.25,-410.44"/>
<text xml:space="preserve" text-anchor="middle" x="244" y="-396.94" font-family="Helvetica,sans-Serif" font-size="10.00">load_state_from_file</text>
</a>
</g>
</g>
<!-- Node1&#45;&gt;Node2 -->
<g id="edge1_Node000001_Node000002" class="edge">
<title>Node1&#45;&gt;Node2</title>
<g id="a_edge1_Node000001_Node000002"><a xlink:title=" ">
<path fill="none" stroke="#63b8ff" d="M893.23,-201.94C884.79,-240.87 861.29,-321.5 806.25,-358.07 644.7,-465.4 396.24,-431.54 292.77,-410.91"/>
<polygon fill="#63b8ff" stroke="#63b8ff" points="896.61,-202.86 895.16,-192.36 889.75,-201.47 896.61,-202.86"/>
</a>
</g>
</g>
<!-- Node6 -->
<g id="Node000006" class="node">
<title>Node6</title>
<g id="a_Node000006"><a xlink:href="$m__files_8c.html#aaedbe054d0c35b3489a1efd8231ba33f" xlink:title=" ">
<polygon fill="white" stroke="#666666" points="798.75,-122.44 674.75,-122.44 674.75,-101.69 798.75,-101.69 798.75,-122.44"/>
<text xml:space="preserve" text-anchor="middle" x="736.75" y="-108.94" font-family="Helvetica,sans-Serif" font-size="10.00">read_profile_from_file</text>
</a>
</g>
</g>
<!-- Node1&#45;&gt;Node6 -->
<g id="edge5_Node000001_Node000006" class="edge">
<title>Node1&#45;&gt;Node6</title>
<g id="a_edge5_Node000001_Node000006"><a xlink:title=" ">
<path fill="none" stroke="#63b8ff" d="M861.56,-164.85C831.67,-152.11 789.75,-134.24 763.17,-122.9"/>
<polygon fill="#63b8ff" stroke="#63b8ff" points="860.01,-168 870.58,-168.7 862.76,-161.56 860.01,-168"/>
</a>
</g>
</g>
<!-- Node8 -->
<g id="Node000008" class="node">
<title>Node8</title>
<g id="a_Node000008"><a xlink:href="$m__files_8c.html#a8da346d30dfa12117c7bec1add11153c" xlink:title=" ">
<polygon fill="white" stroke="#666666" points="806.25,-349.44 667.25,-349.44 667.25,-328.69 806.25,-328.69 806.25,-349.44"/>
<text xml:space="preserve" text-anchor="middle" x="736.75" y="-335.94" font-family="Helvetica,sans-Serif" font-size="10.00">read_sequence_from_file</text>
</a>
</g>
</g>
<!-- Node1&#45;&gt;Node8 -->
<g id="edge9_Node000001_Node000008" class="edge">
<title>Node1&#45;&gt;Node8</title>
<g id="a_edge9_Node000001_Node000008"><a xlink:title=" ">
<path fill="none" stroke="#63b8ff" d="M883.22,-200.01C866.42,-223.12 836.73,-261.66 806.25,-290.07 790.31,-304.92 769.72,-319.09 755.29,-328.33"/>
<polygon fill="#63b8ff" stroke="#63b8ff" points="885.92,-202.25 888.9,-192.08 880.23,-198.17 885.92,-202.25"/>
</a>
</g>
</g>
<!-- Node10 -->
<g id="Node000010" class="node">
<title>Node10</title>
<g id="a_Node000010"><a xlink:href="$m__files_8c.html#af05d2dbfb9a9b37f20141d551b81cbb9" xlink:title=" ">
<polygon fill="white" stroke="#666666" points="774.75,-190.44 698.75,-190.44 698.75,-169.69 774.75,-169.69 774.75,-190.44"/>
<text xml:space="preserve" text-anchor="middle" x="736.75" y="-176.94" font-family="Helvetica,sans-Serif" font-size="10.00">save_profile</text>
</a>
</g>
</g>
<!-- Node1&#45;&gt;Node10 -->
<g id="edge13_Node000001_Node000010" class="edge">
<title>Node1&#45;&gt;Node10</title>
<g id="a_edge13_Node000001_Node000010"><a xlink:title=" ">
<path fill="none" stroke="#63b8ff" d="M830.56,-180.07C811.55,-180.07 791.52,-180.07 774.96,-180.07"/>
<polygon fill="#63b8ff" stroke="#63b8ff" points="830.4,-183.57 840.4,-180.07 830.4,-176.57 830.4,-183.57"/>
</a>
</g>
</g>
<!-- Node45 -->
<g id="Node000045" class="node">
<title>Node45</title>
<g id="a_Node000045"><a xlink:href="$m__files_8c.html#a236093031a61a19c58458ff9d0ecca85" xlink:title=" ">
<polygon fill="white" stroke="#666666" points="629.38,-55.44 500.88,-55.44 500.88,-34.69 629.38,-34.69 629.38,-55.44"/>
<text xml:space="preserve" text-anchor="middle" x="565.12" y="-41.94" font-family="Helvetica,sans-Serif" font-size="10.00">save_sequence_as_file</text>
</a>
</g>
</g>
<!-- Node1&#45;&gt;Node45 -->
<g id="edge25_Node000001_Node000045" class="edge">
<title>Node1&#45;&gt;Node45</title>
<g id="a_edge25_Node000001_Node000045"><a xlink:title=" ">
<path fill="none" stroke="#63b8ff" d="M882.28,-160.26C865.9,-140.08 837.74,-109.46 806.25,-93.07 750.92,-64.25 680.11,-52.7 629.76,-48.09"/>
<polygon fill="#63b8ff" stroke="#63b8ff" points="879.47,-162.35 888.41,-168.04 884.97,-158.02 879.47,-162.35"/>
</a>
</g>
</g>
<!-- Node46 -->
<g id="Node000046" class="node">
<title>Node46</title>
<g id="a_Node000046"><a xlink:href="$m__files_8c.html#a670728d608e316af6c3056850cb5b899" xlink:title=" ">
<polygon fill="#fff0f0" stroke="red" points="449.12,-36.44 358.12,-36.44 358.12,-15.69 449.12,-15.69 449.12,-36.44"/>
<text xml:space="preserve" text-anchor="middle" x="403.62" y="-22.94" font-family="Helvetica,sans-Serif" font-size="10.00">save_sequence</text>
</a>
</g>
</g>
<!-- Node1&#45;&gt;Node46 -->
<g id="edge24_Node000001_Node000046" class="edge">
<title>Node1&#45;&gt;Node46</title>
<g id="a_edge24_Node000001_Node000046"><a xlink:title=" ">
<path fill="none" stroke="#63b8ff" d="M889.1,-158.56C876.42,-128.3 848.88,-73.98 806.25,-48.07 693.47,20.48 528.31,-0.19 449.58,-15.71"/>
<polygon fill="#63b8ff" stroke="#63b8ff" points="885.84,-159.82 892.81,-167.81 892.34,-157.22 885.84,-159.82"/>
</a>
</g>
</g>
<!-- Node52 -->
<g id="Node000052" class="node">
<title>Node52</title>
<g id="a_Node000052"><a xlink:href="$m__files_8c.html#a43a1269c4e7761c2f7dfcb4e058cbae5" xlink:title=" ">
<polygon fill="white" stroke="#666666" points="789.38,-281.44 684.12,-281.44 684.12,-260.69 789.38,-260.69 789.38,-281.44"/>
<text xml:space="preserve" text-anchor="middle" x="736.75" y="-267.94" font-family="Helvetica,sans-Serif" font-size="10.00">save_state_to_file</text>
</a>
</g>
</g>
<!-- Node1&#45;&gt;Node52 -->
<g id="edge26_Node000001_Node000052" class="edge">
<title>Node1&#45;&gt;Node52</title>
<g id="a_edge26_Node000001_Node000052"><a xlink:title=" ">
<path fill="none" stroke="#63b8ff" d="M868.54,-196.45C836.13,-214.94 784.33,-244.49 756.65,-260.29"/>
<polygon fill="#63b8ff" stroke="#63b8ff" points="870.06,-199.61 877.01,-191.61 866.59,-193.53 870.06,-199.61"/>
</a>
</g>
</g>
<!-- Node3 -->
<g id="Node000003" class="node">
<title>Node3</title>
<g id="a_Node000003"><a xlink:href="$m__int_8c.html#abce06be17fc37d675118a678a8100a36" xlink:title=" ">
<polygon fill="white" stroke="#666666" points="142.25,-371.44 78.25,-371.44 78.25,-350.69 142.25,-350.69 142.25,-371.44"/>
<text xml:space="preserve" text-anchor="middle" x="110.25" y="-357.94" font-family="Helvetica,sans-Serif" font-size="10.00">app_main</text>
</a>
</g>
</g>
<!-- Node2&#45;&gt;Node3 -->
<g id="edge2_Node000002_Node000003" class="edge">
<title>Node2&#45;&gt;Node3</title>
<g id="a_edge2_Node000002_Node000003"><a xlink:title=" ">
<path fill="none" stroke="#63b8ff" d="M195.33,-385.96C177.71,-380.74 158.19,-374.96 142.4,-370.29"/>
<polygon fill="#63b8ff" stroke="#63b8ff" points="194.27,-389.29 204.85,-388.77 196.25,-382.58 194.27,-389.29"/>
</a>
</g>
</g>
<!-- Node4 -->
<g id="Node000004" class="node">
<title>Node4</title>
<g id="a_Node000004"><a xlink:href="$m__desktop_8c.html#ab499a4f71ef4cfc807b60d8739750c3e" xlink:title=" ">
<polygon fill="white" stroke="#666666" points="143.75,-332.44 76.75,-332.44 76.75,-311.69 143.75,-311.69 143.75,-332.44"/>
<text xml:space="preserve" text-anchor="middle" x="110.25" y="-318.94" font-family="Helvetica,sans-Serif" font-size="10.00">main_task</text>
</a>
</g>
</g>
<!-- Node2&#45;&gt;Node4 -->
<g id="edge3_Node000002_Node000004" class="edge">
<title>Node2&#45;&gt;Node4</title>
<g id="a_edge3_Node000002_Node000004"><a xlink:title=" ">
<path fill="none" stroke="#63b8ff" d="M188.4,-384.82C185.4,-383.37 182.5,-381.79 179.75,-380.07 160.03,-367.72 161.81,-356.73 143.75,-342.07 139.74,-338.81 135.15,-335.68 130.72,-332.9"/>
<polygon fill="#63b8ff" stroke="#63b8ff" points="186.88,-387.98 197.45,-388.7 189.64,-381.55 186.88,-387.98"/>
</a>
</g>
</g>
<!-- Node5 -->
<g id="Node000005" class="node">
<title>Node5</title>
<g id="a_Node000005"><a xlink:href="$m__desktop_8c.html#a3c04138a5bfe5d72780bb7e82a18e627" xlink:title=" ">
<polygon fill="white" stroke="#666666" points="40.75,-332.44 0,-332.44 0,-311.69 40.75,-311.69 40.75,-332.44"/>
<text xml:space="preserve" text-anchor="middle" x="20.38" y="-318.94" font-family="Helvetica,sans-Serif" font-size="10.00">main</text>
</a>
</g>
</g>
<!-- Node4&#45;&gt;Node5 -->
<g id="edge4_Node000004_Node000005" class="edge">
<title>Node4&#45;&gt;Node5</title>
<g id="a_edge4_Node000004_Node000005"><a xlink:title=" ">
<path fill="none" stroke="#63b8ff" d="M65.01,-322.07C56.68,-322.07 48.35,-322.07 41.24,-322.07"/>
<polygon fill="#63b8ff" stroke="#63b8ff" points="64.77,-325.57 74.77,-322.07 64.77,-318.57 64.77,-325.57"/>
</a>
</g>
</g>
<!-- Node7 -->
<g id="Node000007" class="node">
<title>Node7</title>
<g id="a_Node000007"><a xlink:href="$m__files_8c.html#a8785e4c0fd9fa9638385ef725fe13adb" xlink:title=" ">
<polygon fill="white" stroke="#666666" points="300.75,-242.44 187.25,-242.44 187.25,-221.69 300.75,-221.69 300.75,-242.44"/>
<text xml:space="preserve" text-anchor="middle" x="244" y="-228.94" font-family="Helvetica,sans-Serif" font-size="10.00">load_saved_profiles</text>
</a>
</g>
</g>
<!-- Node6&#45;&gt;Node7 -->
<g id="edge6_Node000006_Node000007" class="edge">
<title>Node6&#45;&gt;Node7</title>
<g id="a_edge6_Node000006_Node000007"><a xlink:title=" ">
<path fill="none" stroke="#63b8ff" d="M663.01,-100.36C615.85,-94.88 553.3,-91.6 499,-102.07 426.25,-116.1 409.59,-129.14 344.25,-164.07 311.83,-181.4 277.08,-207.04 258.52,-221.37"/>
<polygon fill="#63b8ff" stroke="#63b8ff" points="662.5,-103.82 672.85,-101.57 663.35,-96.87 662.5,-103.82"/>
</a>
</g>
</g>
<!-- Node7&#45;&gt;Node3 -->
<g id="edge7_Node000007_Node000003" class="edge">
<title>Node7&#45;&gt;Node3</title>
<g id="a_edge7_Node000007_Node000003"><a xlink:title=" ">
<path fill="none" stroke="#63b8ff" d="M226.05,-251.26C200.16,-280.49 152.82,-333.55 143.75,-341.07 139.77,-344.36 135.2,-347.51 130.77,-350.29"/>
<polygon fill="#63b8ff" stroke="#63b8ff" points="228.62,-253.64 232.62,-243.84 223.37,-249.01 228.62,-253.64"/>
</a>
</g>
</g>
<!-- Node7&#45;&gt;Node4 -->
<g id="edge8_Node000007_Node000004" class="edge">
<title>Node7&#45;&gt;Node4</title>
<g id="a_edge8_Node000007_Node000004"><a xlink:title=" ">
<path fill="none" stroke="#63b8ff" d="M217.95,-249.18C191.08,-267.53 149.26,-296.1 126.79,-311.45"/>
<polygon fill="#63b8ff" stroke="#63b8ff" points="219.58,-252.31 225.86,-243.78 215.63,-246.53 219.58,-252.31"/>
</a>
</g>
</g>
<!-- Node9 -->
<g id="Node000009" class="node">
<title>Node9</title>
<g id="a_Node000009"><a xlink:href="$m__files_8c.html#a818849f86d2816c2e9a60229f5f103c1" xlink:title=" ">
<polygon fill="white" stroke="#666666" points="308.25,-371.44 179.75,-371.44 179.75,-350.69 308.25,-350.69 308.25,-371.44"/>
<text xml:space="preserve" text-anchor="middle" x="244" y="-357.94" font-family="Helvetica,sans-Serif" font-size="10.00">load_saved_sequences</text>
</a>
</g>
</g>
<!-- Node8&#45;&gt;Node9 -->
<g id="edge10_Node000008_Node000009" class="edge">
<title>Node8&#45;&gt;Node9</title>
<g id="a_edge10_Node000008_Node000009"><a xlink:title=" ">
<path fill="none" stroke="#63b8ff" d="M655.71,-346.39C647.45,-347.02 639.19,-347.59 631.25,-348.07 517.73,-354.86 385.21,-358.36 308.61,-359.95"/>
<polygon fill="#63b8ff" stroke="#63b8ff" points="655.72,-349.9 665.42,-345.63 655.18,-342.92 655.72,-349.9"/>
</a>
</g>
</g>
<!-- Node9&#45;&gt;Node3 -->
<g id="edge11_Node000009_Node000003" class="edge">
<title>Node9&#45;&gt;Node3</title>
<g id="a_edge11_Node000009_Node000003"><a xlink:title=" ">
<path fill="none" stroke="#63b8ff" d="M168.09,-361.07C159.19,-361.07 150.5,-361.07 142.72,-361.07"/>
<polygon fill="#63b8ff" stroke="#63b8ff" points="167.93,-364.57 177.93,-361.07 167.93,-357.57 167.93,-364.57"/>
</a>
</g>
</g>
<!-- Node9&#45;&gt;Node4 -->
<g id="edge12_Node000009_Node000004" class="edge">
<title>Node9&#45;&gt;Node4</title>
<g id="a_edge12_Node000009_Node000004"><a xlink:title=" ">
<path fill="none" stroke="#63b8ff" d="M195.43,-346.99C178.43,-341.95 159.65,-336.4 144.16,-331.81"/>
<polygon fill="#63b8ff" stroke="#63b8ff" points="194.27,-350.29 204.85,-349.77 196.25,-343.58 194.27,-350.29"/>
</a>
</g>
</g>
<!-- Node11 -->
<g id="Node000011" class="node">
<title>Node11</title>
<g id="a_Node000011"><a xlink:href="$m__effect_8c.html#a4ae269e7439d805b367b0d3a9ad261ec" xlink:title=" ">
<polygon fill="white" stroke="#666666" points="623.75,-286.82 506.5,-286.82 506.5,-253.32 623.75,-253.32 623.75,-286.82"/>
<text xml:space="preserve" text-anchor="start" x="514.5" y="-273.32" font-family="Helvetica,sans-Serif" font-size="10.00">m_effect_profile_rep</text>
<text xml:space="preserve" text-anchor="middle" x="565.12" y="-260.57" font-family="Helvetica,sans-Serif" font-size="10.00">_update</text>
</a>
</g>
</g>
<!-- Node10&#45;&gt;Node11 -->
<g id="edge14_Node000010_Node000011" class="edge">
<title>Node10&#45;&gt;Node11</title>
<g id="a_edge14_Node000010_Node000011"><a xlink:title=" ">
<path fill="none" stroke="#63b8ff" d="M710.6,-197.15C689.85,-210.82 659.36,-229.98 631.25,-244.07 625.16,-247.12 618.61,-250.09 612.1,-252.85"/>
<polygon fill="#63b8ff" stroke="#63b8ff" points="712.3,-200.22 718.69,-191.76 708.42,-194.39 712.3,-200.22"/>
</a>
</g>
</g>
<!-- Node24 -->
<g id="Node000024" class="node">
<title>Node24</title>
<g id="a_Node000024"><a xlink:href="$m__profile_8c.html#afa367fbc737a45369449f963fde361b6" xlink:title=" ">
<polygon fill="white" stroke="#666666" points="617.38,-196.82 512.88,-196.82 512.88,-163.32 617.38,-163.32 617.38,-196.82"/>
<text xml:space="preserve" text-anchor="start" x="520.88" y="-183.32" font-family="Helvetica,sans-Serif" font-size="10.00">m_profile_file_rep</text>
<text xml:space="preserve" text-anchor="middle" x="565.12" y="-170.57" font-family="Helvetica,sans-Serif" font-size="10.00">_update</text>
</a>
</g>
</g>
<!-- Node10&#45;&gt;Node24 -->
<g id="edge16_Node000010_Node000024" class="edge">
<title>Node10&#45;&gt;Node24</title>
<g id="a_edge16_Node000010_Node000024"><a xlink:title=" ">
<path fill="none" stroke="#63b8ff" d="M687.23,-180.07C665.49,-180.07 639.83,-180.07 617.74,-180.07"/>
<polygon fill="#63b8ff" stroke="#63b8ff" points="687.01,-183.57 697.01,-180.07 687.01,-176.57 687.01,-183.57"/>
</a>
</g>
</g>
<!-- Node29 -->
<g id="Node000029" class="node">
<title>Node29</title>
<g id="a_Node000029"><a xlink:href="$m__profile_8c.html#a7626d2057edcb47ce39ccbede89e5214" xlink:title=" ">
<polygon fill="white" stroke="#666666" points="610.62,-235.44 519.62,-235.44 519.62,-214.69 610.62,-214.69 610.62,-235.44"/>
<text xml:space="preserve" text-anchor="middle" x="565.12" y="-221.94" font-family="Helvetica,sans-Serif" font-size="10.00">m_profile_save</text>
</a>
</g>
</g>
<!-- Node10&#45;&gt;Node29 -->
<g id="edge19_Node000010_Node000029" class="edge">
<title>Node10&#45;&gt;Node29</title>
<g id="a_edge19_Node000010_Node000029"><a xlink:title=" ">
<path fill="none" stroke="#63b8ff" d="M687.6,-192.84C662.1,-199.61 631.12,-207.83 606.82,-214.27"/>
<polygon fill="#63b8ff" stroke="#63b8ff" points="688.29,-196.28 697.06,-190.33 686.5,-189.51 688.29,-196.28"/>
</a>
</g>
</g>
<!-- Node44 -->
<g id="Node000044" class="node">
<title>Node44</title>
<g id="a_Node000044"><a xlink:href="$m__profile__settings_8c.html#a7d269d1811d33f56b80a170b969cb6fb" xlink:title=" ">
<polygon fill="white" stroke="#666666" points="625.25,-144.82 505,-144.82 505,-111.32 625.25,-111.32 625.25,-144.82"/>
<text xml:space="preserve" text-anchor="start" x="513" y="-131.32" font-family="Helvetica,sans-Serif" font-size="10.00">profile_settings_save</text>
<text xml:space="preserve" text-anchor="middle" x="565.12" y="-118.57" font-family="Helvetica,sans-Serif" font-size="10.00">_button_cb</text>
</a>
</g>
</g>
<!-- Node10&#45;&gt;Node44 -->
<g id="edge21_Node000010_Node000044" class="edge">
<title>Node10&#45;&gt;Node44</title>
<g id="a_edge21_Node000010_Node000044"><a xlink:title=" ">
<path fill="none" stroke="#63b8ff" d="M689.8,-165.98C668.98,-159.6 644.17,-151.99 622.26,-145.28"/>
<polygon fill="#63b8ff" stroke="#63b8ff" points="688.57,-169.27 699.16,-168.85 690.62,-162.57 688.57,-169.27"/>
</a>
</g>
</g>
<!-- Node10&#45;&gt;Node45 -->
<g id="edge22_Node000010_Node000045" class="edge">
<title>Node10&#45;&gt;Node45</title>
<g id="a_edge22_Node000010_Node000045"><a xlink:title=" ">
<path fill="none" stroke="#63b8ff" d="M710.63,-162.85C697.51,-153.67 681.3,-142.04 667.25,-131.07 634.01,-105.11 596.62,-72.32 577.99,-55.73"/>
<polygon fill="#63b8ff" stroke="#63b8ff" points="708.52,-165.65 718.73,-168.48 712.51,-159.9 708.52,-165.65"/>
</a>
</g>
</g>
<!-- Node12 -->
<g id="Node000012" class="node">
<title>Node12</title>
<g id="a_Node000012"><a xlink:href="$m__effect_8c.html#a3258a7f312e7d7dede5095eb53da6416" xlink:title=" ">
<polygon fill="#fff0f0" stroke="red" points="436.38,-280.44 370.88,-280.44 370.88,-259.69 436.38,-259.69 436.38,-280.44"/>
<text xml:space="preserve" text-anchor="middle" x="403.62" y="-266.94" font-family="Helvetica,sans-Serif" font-size="10.00">init_effect</text>
</a>
</g>
</g>
<!-- Node11&#45;&gt;Node12 -->
<g id="edge15_Node000011_Node000012" class="edge">
<title>Node11&#45;&gt;Node12</title>
<g id="a_edge15_Node000011_Node000012"><a xlink:title=" ">
<path fill="none" stroke="#63b8ff" d="M494.62,-270.07C474.33,-270.07 453.15,-270.07 436.43,-270.07"/>
<polygon fill="#63b8ff" stroke="#63b8ff" points="494.58,-273.57 504.58,-270.07 494.58,-266.57 494.58,-273.57"/>
</a>
</g>
</g>
<!-- Node25 -->
<g id="Node000025" class="node">
<title>Node25</title>
<g id="a_Node000025"><a xlink:href="$m__profile_8c.html#ab73797729c3c2878fcbc0e8eb3a3b1d1" xlink:title=" ">
<polygon fill="#fff0f0" stroke="red" points="445.38,-193.44 361.88,-193.44 361.88,-172.69 445.38,-172.69 445.38,-193.44"/>
<text xml:space="preserve" text-anchor="middle" x="403.62" y="-179.94" font-family="Helvetica,sans-Serif" font-size="10.00">init_m_profile</text>
</a>
</g>
</g>
<!-- Node24&#45;&gt;Node25 -->
<g id="edge17_Node000024_Node000025" class="edge">
<title>Node24&#45;&gt;Node25</title>
<g id="a_edge17_Node000024_Node000025"><a xlink:title=" ">
<path fill="none" stroke="#63b8ff" d="M501.36,-181.25C482.68,-181.6 462.7,-181.98 445.77,-182.29"/>
<polygon fill="#63b8ff" stroke="#63b8ff" points="501.33,-184.75 511.27,-181.06 501.2,-177.75 501.33,-184.75"/>
</a>
</g>
</g>
<!-- Node25&#45;&gt;Node7 -->
<g id="edge18_Node000025_Node000007" class="edge">
<title>Node25&#45;&gt;Node7</title>
<g id="a_edge18_Node000025_Node000007"><a xlink:title=" ">
<path fill="none" stroke="#63b8ff" d="M356.78,-197.32C332.25,-204.95 302.52,-214.19 279.88,-221.22"/>
<polygon fill="#63b8ff" stroke="#63b8ff" points="357.69,-200.7 366.2,-194.39 355.61,-194.02 357.69,-200.7"/>
</a>
</g>
</g>
<!-- Node30 -->
<g id="Node000030" class="node">
<title>Node30</title>
<g id="a_Node000030"><a xlink:href="$m__context_8c.html#ad6c6b5fc3e9422b30ebd4f7518b777d3" xlink:title=" ">
<polygon fill="#fff0f0" stroke="red" points="463,-235.44 344.25,-235.44 344.25,-214.69 463,-214.69 463,-235.44"/>
<text xml:space="preserve" text-anchor="middle" x="403.62" y="-221.94" font-family="Helvetica,sans-Serif" font-size="10.00">cxt_save_all_profiles</text>
</a>
</g>
</g>
<!-- Node29&#45;&gt;Node30 -->
<g id="edge20_Node000029_Node000030" class="edge">
<title>Node29&#45;&gt;Node30</title>
<g id="a_edge20_Node000029_Node000030"><a xlink:title=" ">
<path fill="none" stroke="#63b8ff" d="M507.98,-225.07C493.56,-225.07 478,-225.07 463.44,-225.07"/>
<polygon fill="#63b8ff" stroke="#63b8ff" points="507.76,-228.57 517.76,-225.07 507.76,-221.57 507.76,-228.57"/>
</a>
</g>
</g>
<!-- Node45&#45;&gt;Node46 -->
<g id="edge23_Node000045_Node000046" class="edge">
<title>Node45&#45;&gt;Node46</title>
<g id="a_edge23_Node000045_Node000046"><a xlink:title=" ">
<path fill="none" stroke="#63b8ff" d="M489.22,-36.15C475.55,-34.52 461.69,-32.87 449.25,-31.38"/>
<polygon fill="#63b8ff" stroke="#63b8ff" points="488.78,-39.62 499.13,-37.32 489.61,-32.67 488.78,-39.62"/>
</a>
</g>
</g>
<!-- Node53 -->
<g id="Node000053" class="node">
<title>Node53</title>
<g id="a_Node000053"><a xlink:href="$m__state_8c.html#a2b9eef2e5520f8916fa5e337bb13c467" xlink:title=" ">
<polygon fill="white" stroke="#666666" points="631.25,-338.82 499,-338.82 499,-305.32 631.25,-305.32 631.25,-338.82"/>
<text xml:space="preserve" text-anchor="start" x="507" y="-325.32" font-family="Helvetica,sans-Serif" font-size="10.00">m_state_representation</text>
<text xml:space="preserve" text-anchor="middle" x="565.12" y="-312.57" font-family="Helvetica,sans-Serif" font-size="10.00">_update</text>
</a>
</g>
</g>
<!-- Node52&#45;&gt;Node53 -->
<g id="edge27_Node000052_Node000053" class="edge">
<title>Node52&#45;&gt;Node53</title>
<g id="a_edge27_Node000052_Node000053"><a xlink:title=" ">
<path fill="none" stroke="#63b8ff" d="M688.93,-285.15C668.65,-291.24 644.73,-298.44 623.4,-304.85"/>
<polygon fill="#63b8ff" stroke="#63b8ff" points="689.76,-288.55 698.33,-282.32 687.74,-281.85 689.76,-288.55"/>
</a>
</g>
</g>
<!-- Node51 -->
<g id="Node000051" class="node">
<title>Node51</title>
<g id="a_Node000051"><a xlink:href="$m__context_8c.html#a7e3116adcd8ee17698788b7d17a46018" xlink:title=" ">
<polygon fill="white" stroke="#666666" points="288.38,-332.44 199.62,-332.44 199.62,-311.69 288.38,-311.69 288.38,-332.44"/>
<text xml:space="preserve" text-anchor="middle" x="244" y="-318.94" font-family="Helvetica,sans-Serif" font-size="10.00">m_init_context</text>
</a>
</g>
</g>
<!-- Node53&#45;&gt;Node51 -->
<g id="edge28_Node000053_Node000051" class="edge">
<title>Node53&#45;&gt;Node51</title>
<g id="a_edge28_Node000053_Node000051"><a xlink:title=" ">
<path fill="none" stroke="#63b8ff" d="M487.45,-322.07C425.28,-322.07 339.87,-322.07 288.78,-322.07"/>
<polygon fill="#63b8ff" stroke="#63b8ff" points="487.26,-325.57 497.26,-322.07 487.26,-318.57 487.26,-325.57"/>
</a>
</g>
</g>
<!-- Node51&#45;&gt;Node3 -->
<g id="edge29_Node000051_Node000003" class="edge">
<title>Node51&#45;&gt;Node3</title>
<g id="a_edge29_Node000051_Node000003"><a xlink:title=" ">
<path fill="none" stroke="#63b8ff" d="M195.33,-336.18C177.71,-341.4 158.19,-347.17 142.4,-351.85"/>
<polygon fill="#63b8ff" stroke="#63b8ff" points="196.25,-339.56 204.85,-333.36 194.27,-332.84 196.25,-339.56"/>
</a>
</g>
</g>
<!-- Node51&#45;&gt;Node4 -->
<g id="edge30_Node000051_Node000004" class="edge">
<title>Node51&#45;&gt;Node4</title>
<g id="a_edge30_Node000051_Node000004"><a xlink:title=" ">
<path fill="none" stroke="#63b8ff" d="M187.93,-322.07C173.02,-322.07 157.35,-322.07 144.09,-322.07"/>
<polygon fill="#63b8ff" stroke="#63b8ff" points="187.62,-325.57 197.62,-322.07 187.62,-318.57 187.62,-325.57"/>
</a>
</g>
</g>
</g>
</svg>
