<?xml version="1.0" encoding="UTF-8" standalone="no"?>
<!DOCTYPE svg PUBLIC "-//W3C//DTD SVG 1.1//EN"
 "http://www.w3.org/Graphics/SVG/1.1/DTD/svg11.dtd">
<!-- Generated by graphviz version 13.1.2 (20250808.2320)
 -->
<!-- Title: format_float Pages: 1 -->
<svg width="649pt" height="302pt"
 viewBox="0.00 0.00 649.00 302.00" xmlns="http://www.w3.org/2000/svg" xmlns:xlink="http://www.w3.org/1999/xlink">
<g id="graph0" class="graph" transform="scale(1 1) rotate(0) translate(4 298.12)">
<title>format_float</title>
<!-- Node1 -->
<g id="Node000001" class="node">
<title>Node1</title>
<g id="a_Node000001"><a xlink:title=" ">
<polygon fill="#999999" stroke="#666666" points="640.75,-107.12 564,-107.12 564,-86.38 640.75,-86.38 640.75,-107.12"/>
<text xml:space="preserve" text-anchor="middle" x="602.38" y="-93.62" font-family="Helvetica,sans-Serif" font-size="10.00">format_float</text>
</a>
</g>
</g>
<!-- Node2 -->
<g id="Node000002" class="node">
<title>Node2</title>
<g id="a_Node000002"><a xlink:href="m__parameter__widget_8c.html#a70c962f1034dbc420de4f652e938caa5" target="_top" xlink:title=" ">
<polygon fill="white" stroke="#666666" points="515.25,-217.5 397.25,-217.5 397.25,-184 515.25,-184 515.25,-217.5"/>
<text xml:space="preserve" text-anchor="start" x="405.25" y="-204" font-family="Helvetica,sans-Serif" font-size="10.00">configure_parameter</text>
<text xml:space="preserve" text-anchor="middle" x="456.25" y="-191.25" font-family="Helvetica,sans-Serif" font-size="10.00">_widget</text>
</a>
</g>
</g>
<!-- Node1&#45;&gt;Node2 -->
<g id="edge1_Node000001_Node000002" class="edge">
<title>Node1&#45;&gt;Node2</title>
<g id="a_edge1_Node000001_Node000002"><a xlink:title=" ">
<path fill="none" stroke="#63b8ff" d="M577.45,-114.02C550.74,-133.29 507.77,-164.3 481.09,-183.55"/>
<polygon fill="#63b8ff" stroke="#63b8ff" points="579.21,-117.06 585.27,-108.37 575.11,-111.39 579.21,-117.06"/>
</a>
</g>
</g>
<!-- Node15 -->
<g id="Node000015" class="node">
<title>Node15</title>
<g id="a_Node000015"><a xlink:href="m__parameter__widget_8c.html#ac99017dadcc1502b98d1141194ceca3e" target="_top" xlink:title=" ">
<polygon fill="white" stroke="#666666" points="528,-113.5 384.5,-113.5 384.5,-80 528,-80 528,-113.5"/>
<text xml:space="preserve" text-anchor="start" x="392.5" y="-100" font-family="Helvetica,sans-Serif" font-size="10.00">format_parameter_widget</text>
<text xml:space="preserve" text-anchor="middle" x="456.25" y="-87.25" font-family="Helvetica,sans-Serif" font-size="10.00">_value_label</text>
</a>
</g>
</g>
<!-- Node1&#45;&gt;Node15 -->
<g id="edge9_Node000001_Node000015" class="edge">
<title>Node1&#45;&gt;Node15</title>
<g id="a_edge9_Node000001_Node000015"><a xlink:title=" ">
<path fill="none" stroke="#63b8ff" d="M552.18,-96.75C544.48,-96.75 536.4,-96.75 528.33,-96.75"/>
<polygon fill="#63b8ff" stroke="#63b8ff" points="551.99,-100.25 561.99,-96.75 551.99,-93.25 551.99,-100.25"/>
</a>
</g>
</g>
<!-- Node48 -->
<g id="Node000048" class="node">
<title>Node48</title>
<g id="a_Node000048"><a xlink:href="m__parameter__widget_8c.html#a1c586816596ea0e353a6c7ba2ba67f96" target="_top" xlink:title=" ">
<polygon fill="white" stroke="#666666" points="528,-61.5 384.5,-61.5 384.5,-28 528,-28 528,-61.5"/>
<text xml:space="preserve" text-anchor="start" x="392.5" y="-48" font-family="Helvetica,sans-Serif" font-size="10.00">format_parameter_widget</text>
<text xml:space="preserve" text-anchor="middle" x="456.25" y="-35.25" font-family="Helvetica,sans-Serif" font-size="10.00">_value_label_v</text>
</a>
</g>
</g>
<!-- Node1&#45;&gt;Node48 -->
<g id="edge14_Node000001_Node000048" class="edge">
<title>Node1&#45;&gt;Node48</title>
<g id="a_edge14_Node000001_Node000048"><a xlink:title=" ">
<path fill="none" stroke="#63b8ff" d="M561.11,-82.22C543.67,-75.93 523.14,-68.52 504.95,-61.96"/>
<polygon fill="#63b8ff" stroke="#63b8ff" points="559.49,-85.36 570.09,-85.46 561.87,-78.78 559.49,-85.36"/>
</a>
</g>
</g>
<!-- Node3 -->
<g id="Node000003" class="node">
<title>Node3</title>
<g id="a_Node000003"><a xlink:href="m__menu_8c.html#a805a6326d1f7270fb93644deef75de3d" target="_top" xlink:title=" ">
<polygon fill="white" stroke="#666666" points="338.75,-294.12 214,-294.12 214,-273.38 338.75,-273.38 338.75,-294.12"/>
<text xml:space="preserve" text-anchor="middle" x="276.38" y="-280.62" font-family="Helvetica,sans-Serif" font-size="10.00">configure_main_menu</text>
</a>
</g>
</g>
<!-- Node2&#45;&gt;Node3 -->
<g id="edge2_Node000002_Node000003" class="edge">
<title>Node2&#45;&gt;Node3</title>
<g id="a_edge2_Node000002_Node000003"><a xlink:title=" ">
<path fill="none" stroke="#63b8ff" d="M417.72,-223.66C397.63,-235.37 372.2,-249.3 348.5,-259.75 337.41,-264.64 324.99,-269.14 313.67,-272.9"/>
<polygon fill="#63b8ff" stroke="#63b8ff" points="419.27,-226.81 426.11,-218.72 415.71,-220.78 419.27,-226.81"/>
</a>
</g>
</g>
<!-- Node9 -->
<g id="Node000009" class="node">
<title>Node9</title>
<g id="a_Node000009"><a xlink:href="m__transformer__settings_8c.html#ab317b17653d665008c727ad5a5ae755f" target="_top" xlink:title=" ">
<polygon fill="white" stroke="#666666" points="338.75,-217.5 214,-217.5 214,-184 338.75,-184 338.75,-217.5"/>
<text xml:space="preserve" text-anchor="start" x="222" y="-204" font-family="Helvetica,sans-Serif" font-size="10.00">configure_transformer</text>
<text xml:space="preserve" text-anchor="middle" x="276.38" y="-191.25" font-family="Helvetica,sans-Serif" font-size="10.00">_settings_page</text>
</a>
</g>
</g>
<!-- Node2&#45;&gt;Node9 -->
<g id="edge4_Node000002_Node000009" class="edge">
<title>Node2&#45;&gt;Node9</title>
<g id="a_edge4_Node000002_Node000009"><a xlink:title=" ">
<path fill="none" stroke="#63b8ff" d="M385.94,-200.75C370.5,-200.75 354.23,-200.75 339.12,-200.75"/>
<polygon fill="#63b8ff" stroke="#63b8ff" points="385.49,-204.25 395.49,-200.75 385.49,-197.25 385.49,-204.25"/>
</a>
</g>
</g>
<!-- Node10 -->
<g id="Node000010" class="node">
<title>Node10</title>
<g id="a_Node000010"><a xlink:href="m__transformer__view_8c.html#a22cac70297549ade93c38e66d070f3af" target="_top" xlink:title=" ">
<polygon fill="#fff0f0" stroke="red" points="160.75,-253.12 7.5,-253.12 7.5,-232.38 160.75,-232.38 160.75,-253.12"/>
<text xml:space="preserve" text-anchor="middle" x="84.12" y="-239.62" font-family="Helvetica,sans-Serif" font-size="10.00">configure_transformer_view</text>
</a>
</g>
</g>
<!-- Node2&#45;&gt;Node10 -->
<g id="edge7_Node000002_Node000010" class="edge">
<title>Node2&#45;&gt;Node10</title>
<g id="a_edge7_Node000002_Node000010"><a xlink:title=" ">
<path fill="none" stroke="#63b8ff" d="M385.73,-219.57C373.4,-222.37 360.63,-224.92 348.5,-226.75 285.76,-236.22 213.82,-240.12 161,-241.72"/>
<polygon fill="#63b8ff" stroke="#63b8ff" points="386.48,-222.99 395.42,-217.3 384.88,-216.18 386.48,-222.99"/>
</a>
</g>
</g>
<!-- Node14 -->
<g id="Node000014" class="node">
<title>Node14</title>
<g id="a_Node000014"><a xlink:href="m__menu_8c.html#abc40a4ae724b48c4adc0c4a94d9d723c" target="_top" xlink:title=" ">
<polygon fill="white" stroke="#666666" points="347,-165.5 205.75,-165.5 205.75,-132 347,-132 347,-165.5"/>
<text xml:space="preserve" text-anchor="start" x="213.75" y="-152" font-family="Helvetica,sans-Serif" font-size="10.00">create_parameter_widget</text>
<text xml:space="preserve" text-anchor="middle" x="276.38" y="-139.25" font-family="Helvetica,sans-Serif" font-size="10.00">_menu_item</text>
</a>
</g>
</g>
<!-- Node2&#45;&gt;Node14 -->
<g id="edge8_Node000002_Node000014" class="edge">
<title>Node2&#45;&gt;Node14</title>
<g id="a_edge8_Node000002_Node000014"><a xlink:title=" ">
<path fill="none" stroke="#63b8ff" d="M386.33,-180.6C369.83,-175.78 352.36,-170.67 336.36,-165.99"/>
<polygon fill="#63b8ff" stroke="#63b8ff" points="384.97,-183.85 395.55,-183.3 386.94,-177.13 384.97,-183.85"/>
</a>
</g>
</g>
<!-- Node4 -->
<g id="Node000004" class="node">
<title>Node4</title>
<g id="a_Node000004"><a xlink:href="m__menu_8c.html#abdd1333df2a66cc871f2eb36b4bbb74c" target="_top" xlink:title=" ">
<polygon fill="#fff0f0" stroke="red" points="131.5,-294.12 36.75,-294.12 36.75,-273.38 131.5,-273.38 131.5,-294.12"/>
<text xml:space="preserve" text-anchor="middle" x="84.12" y="-280.62" font-family="Helvetica,sans-Serif" font-size="10.00">init_main_menu</text>
</a>
</g>
</g>
<!-- Node3&#45;&gt;Node4 -->
<g id="edge3_Node000003_Node000004" class="edge">
<title>Node3&#45;&gt;Node4</title>
<g id="a_edge3_Node000003_Node000004"><a xlink:title=" ">
<path fill="none" stroke="#63b8ff" d="M202.18,-283.75C178.55,-283.75 153,-283.75 131.82,-283.75"/>
<polygon fill="#63b8ff" stroke="#63b8ff" points="202.09,-287.25 212.09,-283.75 202.09,-280.25 202.09,-287.25"/>
</a>
</g>
</g>
<!-- Node9&#45;&gt;Node10 -->
<g id="edge5_Node000009_Node000010" class="edge">
<title>Node9&#45;&gt;Node10</title>
<g id="a_edge5_Node000009_Node000010"><a xlink:title=" ">
<path fill="none" stroke="#63b8ff" d="M202.56,-216.82C179.72,-221.87 155.05,-227.31 134.25,-231.91"/>
<polygon fill="#63b8ff" stroke="#63b8ff" points="203.12,-220.29 212.13,-214.71 201.61,-213.45 203.12,-220.29"/>
</a>
</g>
</g>
<!-- Node13 -->
<g id="Node000013" class="node">
<title>Node13</title>
<g id="a_Node000013"><a xlink:href="m__transformer__settings_8c.html#aaa390b04c41f08fbbfe3cdbe8b552bc4" target="_top" xlink:title=" ">
<polygon fill="#fff0f0" stroke="red" points="168.25,-211.12 0,-211.12 0,-190.38 168.25,-190.38 168.25,-211.12"/>
<text xml:space="preserve" text-anchor="middle" x="84.12" y="-197.62" font-family="Helvetica,sans-Serif" font-size="10.00">init_transformer_settings_page</text>
</a>
</g>
</g>
<!-- Node9&#45;&gt;Node13 -->
<g id="edge6_Node000009_Node000013" class="edge">
<title>Node9&#45;&gt;Node13</title>
<g id="a_edge6_Node000009_Node000013"><a xlink:title=" ">
<path fill="none" stroke="#63b8ff" d="M202.33,-200.75C191.33,-200.75 179.92,-200.75 168.72,-200.75"/>
<polygon fill="#63b8ff" stroke="#63b8ff" points="202.09,-204.25 212.09,-200.75 202.09,-197.25 202.09,-204.25"/>
</a>
</g>
</g>
<!-- Node16 -->
<g id="Node000016" class="node">
<title>Node16</title>
<g id="a_Node000016"><a xlink:href="m__parameter__widget_8c.html#a11f50860a03e49a64024e964f3398c11" target="_top" xlink:title=" ">
<polygon fill="white" stroke="#666666" points="348.5,-113.5 204.25,-113.5 204.25,-80 348.5,-80 348.5,-113.5"/>
<text xml:space="preserve" text-anchor="start" x="212.25" y="-100" font-family="Helvetica,sans-Serif" font-size="10.00">parameter_widget_update</text>
<text xml:space="preserve" text-anchor="middle" x="276.38" y="-87.25" font-family="Helvetica,sans-Serif" font-size="10.00">_value_label</text>
</a>
</g>
</g>
<!-- Node15&#45;&gt;Node16 -->
<g id="edge10_Node000015_Node000016" class="edge">
<title>Node15&#45;&gt;Node16</title>
<g id="a_edge10_Node000015_Node000016"><a xlink:title=" ">
<path fill="none" stroke="#63b8ff" d="M372.92,-96.75C364.9,-96.75 356.81,-96.75 348.91,-96.75"/>
<polygon fill="#63b8ff" stroke="#63b8ff" points="372.67,-100.25 382.67,-96.75 372.67,-93.25 372.67,-100.25"/>
</a>
</g>
</g>
<!-- Node17 -->
<g id="Node000017" class="node">
<title>Node17</title>
<g id="a_Node000017"><a xlink:href="m__parameter__widget_8c.html#a1590cd4e080ed869e0372fef1a233085" target="_top" xlink:title=" ">
<polygon fill="#fff0f0" stroke="red" points="157,-162.12 11.25,-162.12 11.25,-141.38 157,-141.38 157,-162.12"/>
<text xml:space="preserve" text-anchor="middle" x="84.12" y="-148.62" font-family="Helvetica,sans-Serif" font-size="10.00">param_widget_rep_update</text>
</a>
</g>
</g>
<!-- Node16&#45;&gt;Node17 -->
<g id="edge11_Node000016_Node000017" class="edge">
<title>Node16&#45;&gt;Node17</title>
<g id="a_edge11_Node000016_Node000017"><a xlink:title=" ">
<path fill="none" stroke="#63b8ff" d="M216.82,-117.6C201.14,-122.86 184.13,-128.28 168.25,-132.75 157.99,-135.64 146.93,-138.41 136.32,-140.89"/>
<polygon fill="#63b8ff" stroke="#63b8ff" points="217.65,-121.01 226,-114.48 215.4,-114.38 217.65,-121.01"/>
</a>
</g>
</g>
<!-- Node19 -->
<g id="Node000019" class="node">
<title>Node19</title>
<g id="a_Node000019"><a xlink:href="m__parameter__widget_8c.html#a828ce24600904fc1bcc102556df9f179" target="_top" xlink:title=" ">
<polygon fill="#fff0f0" stroke="red" points="154.75,-123.5 13.5,-123.5 13.5,-90 154.75,-90 154.75,-123.5"/>
<text xml:space="preserve" text-anchor="start" x="21.5" y="-110" font-family="Helvetica,sans-Serif" font-size="10.00">parameter_widget_create</text>
<text xml:space="preserve" text-anchor="middle" x="84.12" y="-97.25" font-family="Helvetica,sans-Serif" font-size="10.00">_ui_no_callback</text>
</a>
</g>
</g>
<!-- Node16&#45;&gt;Node19 -->
<g id="edge12_Node000016_Node000019" class="edge">
<title>Node16&#45;&gt;Node19</title>
<g id="a_edge12_Node000016_Node000019"><a xlink:title=" ">
<path fill="none" stroke="#63b8ff" d="M192.59,-101.1C180.06,-101.76 167.24,-102.43 155.01,-103.08"/>
<polygon fill="#63b8ff" stroke="#63b8ff" points="192.68,-104.6 202.48,-100.58 192.31,-97.61 192.68,-104.6"/>
</a>
</g>
</g>
<!-- Node47 -->
<g id="Node000047" class="node">
<title>Node47</title>
<g id="a_Node000047"><a xlink:href="m__parameter__widget_8c.html#ac55937f74509696b892e16cd9148a0c4" target="_top" xlink:title=" ">
<polygon fill="white" stroke="#666666" points="164.88,-72.12 3.38,-72.12 3.38,-51.38 164.88,-51.38 164.88,-72.12"/>
<text xml:space="preserve" text-anchor="middle" x="84.12" y="-58.62" font-family="Helvetica,sans-Serif" font-size="10.00">parameter_widget_refresh_cb</text>
</a>
</g>
</g>
<!-- Node16&#45;&gt;Node47 -->
<g id="edge13_Node000016_Node000047" class="edge">
<title>Node16&#45;&gt;Node47</title>
<g id="a_edge13_Node000016_Node000047"><a xlink:title=" ">
<path fill="none" stroke="#63b8ff" d="M192.77,-81.55C176.41,-78.54 159.55,-75.44 144.17,-72.61"/>
<polygon fill="#63b8ff" stroke="#63b8ff" points="192.03,-84.98 202.5,-83.34 193.3,-78.09 192.03,-84.98"/>
</a>
</g>
</g>
<!-- Node49 -->
<g id="Node000049" class="node">
<title>Node49</title>
<g id="a_Node000049"><a xlink:href="m__parameter__widget_8c.html#a963dc5330b9bd75d5e341a21d40ed724" target="_top" xlink:title=" ">
<polygon fill="white" stroke="#666666" points="348.5,-52.5 204.25,-52.5 204.25,-19 348.5,-19 348.5,-52.5"/>
<text xml:space="preserve" text-anchor="start" x="212.25" y="-39" font-family="Helvetica,sans-Serif" font-size="10.00">parameter_widget_update</text>
<text xml:space="preserve" text-anchor="middle" x="276.38" y="-26.25" font-family="Helvetica,sans-Serif" font-size="10.00">_value_label_v</text>
</a>
</g>
</g>
<!-- Node48&#45;&gt;Node49 -->
<g id="edge15_Node000048_Node000049" class="edge">
<title>Node48&#45;&gt;Node49</title>
<g id="a_edge15_Node000048_Node000049"><a xlink:title=" ">
<path fill="none" stroke="#63b8ff" d="M372.92,-40.58C364.9,-40.18 356.81,-39.77 348.91,-39.37"/>
<polygon fill="#63b8ff" stroke="#63b8ff" points="372.51,-44.07 382.67,-41.08 372.86,-37.08 372.51,-44.07"/>
</a>
</g>
</g>
<!-- Node50 -->
<g id="Node000050" class="node">
<title>Node50</title>
<g id="a_Node000050"><a xlink:href="m__parameter__widget_8c.html#a840e74778017f04f052a9c0fe0b91138" target="_top" xlink:title=" ">
<polygon fill="#fff0f0" stroke="red" points="157,-33.5 11.25,-33.5 11.25,0 157,0 157,-33.5"/>
<text xml:space="preserve" text-anchor="start" x="19.25" y="-20" font-family="Helvetica,sans-Serif" font-size="10.00">parameter_widget_change</text>
<text xml:space="preserve" text-anchor="middle" x="84.12" y="-7.25" font-family="Helvetica,sans-Serif" font-size="10.00">_cb_inner</text>
</a>
</g>
</g>
<!-- Node49&#45;&gt;Node50 -->
<g id="edge16_Node000049_Node000050" class="edge">
<title>Node49&#45;&gt;Node50</title>
<g id="a_edge16_Node000049_Node000050"><a xlink:title=" ">
<path fill="none" stroke="#63b8ff" d="M192.75,-27.5C180.92,-26.32 168.83,-25.11 157.23,-23.95"/>
<polygon fill="#63b8ff" stroke="#63b8ff" points="192.19,-30.96 202.49,-28.47 192.88,-23.99 192.19,-30.96"/>
</a>
</g>
</g>
</g>
</svg>
