<?xml version="1.0" encoding="UTF-8" standalone="no"?>
<!DOCTYPE svg PUBLIC "-//W3C//DTD SVG 1.1//EN"
 "http://www.w3.org/Graphics/SVG/1.1/DTD/svg11.dtd">
<!-- Generated by graphviz version 13.1.2 (20250808.2320)
 -->
<!-- Title: app_main Pages: 1 -->
<svg width="617pt" height="1208pt"
 viewBox="0.00 0.00 617.00 1208.00" xmlns="http://www.w3.org/2000/svg" xmlns:xlink="http://www.w3.org/1999/xlink">
<g id="graph0" class="graph" transform="scale(1 1) rotate(0) translate(4 1204.12)">
<title>app_main</title>
<!-- Node1 -->
<g id="Node000001" class="node">
<title>Node1</title>
<g id="a_Node000001"><a xlink:title=" ">
<polygon fill="#999999" stroke="#666666" points="64,-499.12 0,-499.12 0,-478.38 64,-478.38 64,-499.12"/>
<text xml:space="preserve" text-anchor="middle" x="32" y="-485.62" font-family="Helvetica,sans-Serif" font-size="10.00">app_main</text>
</a>
</g>
</g>
<!-- Node2 -->
<g id="Node000002" class="node">
<title>Node2</title>
<g id="a_Node000002"><a xlink:href="m__context_8c.html#a6fbc2cbde16178fadbad5b25943f09d0" target="_top" xlink:title=" ">
<polygon fill="white" stroke="#666666" points="240.12,-1172.12 117.62,-1172.12 117.62,-1151.38 240.12,-1151.38 240.12,-1172.12"/>
<text xml:space="preserve" text-anchor="middle" x="178.88" y="-1158.62" font-family="Helvetica,sans-Serif" font-size="10.00">context_print_profiles</text>
</a>
</g>
</g>
<!-- Node1&#45;&gt;Node2 -->
<g id="edge1_Node000001_Node000002" class="edge">
<title>Node1&#45;&gt;Node2</title>
<g id="a_edge1_Node000001_Node000002"><a xlink:title=" ">
<path fill="none" stroke="#63b8ff" d="M33.17,-499.35C34.46,-570.69 44.27,-981.36 100,-1090.75 111.42,-1113.17 133.05,-1131.99 150.62,-1144.61"/>
<polygon fill="#63b8ff" stroke="#63b8ff" points="148.4,-1147.33 158.62,-1150.11 152.36,-1141.56 148.4,-1147.33"/>
</a>
</g>
</g>
<!-- Node4 -->
<g id="Node000004" class="node">
<title>Node4</title>
<g id="a_Node000004"><a xlink:href="m__sd_8c.html#a3412367a35f21ef470fd3a2d3c628542" target="_top" xlink:title=" ">
<polygon fill="white" stroke="#666666" points="216.12,-1082.12 141.62,-1082.12 141.62,-1061.38 216.12,-1061.38 216.12,-1082.12"/>
<text xml:space="preserve" text-anchor="middle" x="178.88" y="-1068.62" font-family="Helvetica,sans-Serif" font-size="10.00">init_sd_card</text>
</a>
</g>
</g>
<!-- Node1&#45;&gt;Node4 -->
<g id="edge3_Node000001_Node000004" class="edge">
<title>Node1&#45;&gt;Node4</title>
<g id="a_edge3_Node000001_Node000004"><a xlink:title=" ">
<path fill="none" stroke="#63b8ff" d="M33.56,-499.55C37.5,-573.91 62.08,-1008.42 100,-1051.75 107.8,-1060.67 118.99,-1065.87 130.46,-1068.84"/>
<polygon fill="#63b8ff" stroke="#63b8ff" points="129.47,-1072.21 139.96,-1070.75 130.85,-1065.35 129.47,-1072.21"/>
</a>
</g>
</g>
<!-- Node5 -->
<g id="Node000005" class="node">
<title>Node5</title>
<g id="a_Node000005"><a xlink:href="m__transformer__select_8c.html#ae53aad222b477ad281dc7c9edca4bd7a" target="_top" xlink:title=" ">
<polygon fill="white" stroke="#666666" points="257.75,-1043.12 100,-1043.12 100,-1022.38 257.75,-1022.38 257.75,-1043.12"/>
<text xml:space="preserve" text-anchor="middle" x="178.88" y="-1029.62" font-family="Helvetica,sans-Serif" font-size="10.00">init_transformer_selector_eff</text>
</a>
</g>
</g>
<!-- Node1&#45;&gt;Node5 -->
<g id="edge4_Node000001_Node000005" class="edge">
<title>Node1&#45;&gt;Node5</title>
<g id="a_edge4_Node000001_Node000005"><a xlink:title=" ">
<path fill="none" stroke="#63b8ff" d="M33.2,-499.22C34.63,-563.2 44.7,-901.5 100,-985.75 108.93,-999.35 123.28,-1009.61 137.24,-1017.02"/>
<polygon fill="#63b8ff" stroke="#63b8ff" points="135.38,-1020.01 145.9,-1021.26 138.45,-1013.72 135.38,-1020.01"/>
</a>
</g>
</g>
<!-- Node167 -->
<g id="Node000167" class="node">
<title>Node167</title>
<g id="a_Node000167"><a xlink:href="m__files_8c.html#a20fd21ea829052e437025652fdf783ed" target="_top" xlink:title=" ">
<polygon fill="white" stroke="#666666" points="216.88,-839.12 140.88,-839.12 140.88,-818.38 216.88,-818.38 216.88,-839.12"/>
<text xml:space="preserve" text-anchor="middle" x="178.88" y="-825.62" font-family="Helvetica,sans-Serif" font-size="10.00">load_effects</text>
</a>
</g>
</g>
<!-- Node1&#45;&gt;Node167 -->
<g id="edge9_Node000001_Node000167" class="edge">
<title>Node1&#45;&gt;Node167</title>
<g id="a_edge9_Node000001_Node000167"><a xlink:title=" ">
<path fill="none" stroke="#63b8ff" d="M34.1,-499.6C39.22,-548.21 62.06,-745.58 100,-792.75 107.79,-802.44 118.78,-809.63 130.05,-814.93"/>
<polygon fill="#63b8ff" stroke="#63b8ff" points="128.43,-818.05 139,-818.7 131.14,-811.6 128.43,-818.05"/>
</a>
</g>
</g>
<!-- Node57 -->
<g id="Node000057" class="node">
<title>Node57</title>
<g id="a_Node000057"><a xlink:href="m__error__codes_8c.html#a5298df5c7af3a6aac90c055a615b171a" target="_top" xlink:title=" ">
<polygon fill="white" stroke="#666666" points="609.25,-892.12 478.5,-892.12 478.5,-871.38 609.25,-871.38 609.25,-892.12"/>
<text xml:space="preserve" text-anchor="middle" x="543.88" y="-878.62" font-family="Helvetica,sans-Serif" font-size="10.00">m_error_code_to_string</text>
</a>
</g>
</g>
<!-- Node1&#45;&gt;Node57 -->
<g id="edge31_Node000001_Node000057" class="edge">
<title>Node1&#45;&gt;Node57</title>
<g id="a_edge31_Node000001_Node000057"><a xlink:title=" ">
<path fill="none" stroke="#63b8ff" d="M33.75,-499.29C37.72,-552.3 57.64,-789.57 100,-847.75 193.72,-976.46 290.77,-1000.99 442.5,-952.75 474.67,-942.52 505.39,-917.84 524.18,-900.46"/>
<polygon fill="#63b8ff" stroke="#63b8ff" points="526.49,-903.1 531.31,-893.66 521.66,-898.04 526.49,-903.1"/>
</a>
</g>
</g>
<!-- Node291 -->
<g id="Node000291" class="node">
<title>Node291</title>
<g id="a_Node000291"><a xlink:href="m__files_8c.html#a8785e4c0fd9fa9638385ef725fe13adb" target="_top" xlink:title=" ">
<polygon fill="white" stroke="#666666" points="235.62,-745.12 122.12,-745.12 122.12,-724.38 235.62,-724.38 235.62,-745.12"/>
<text xml:space="preserve" text-anchor="middle" x="178.88" y="-731.62" font-family="Helvetica,sans-Serif" font-size="10.00">load_saved_profiles</text>
</a>
</g>
</g>
<!-- Node1&#45;&gt;Node291 -->
<g id="edge16_Node000001_Node000291" class="edge">
<title>Node1&#45;&gt;Node291</title>
<g id="a_edge16_Node000001_Node000291"><a xlink:title=" ">
<path fill="none" stroke="#63b8ff" d="M32.73,-499.59C32.45,-535.79 36.65,-653.69 100,-714.75 103.45,-718.07 107.37,-720.87 111.58,-723.21"/>
<polygon fill="#63b8ff" stroke="#63b8ff" points="109.9,-726.29 120.45,-727.27 112.82,-719.93 109.9,-726.29"/>
</a>
</g>
</g>
<!-- Node355 -->
<g id="Node000355" class="node">
<title>Node355</title>
<g id="a_Node000355"><a xlink:href="m__files_8c.html#a818849f86d2816c2e9a60229f5f103c1" target="_top" xlink:title=" ">
<polygon fill="#fff0f0" stroke="red" points="243.12,-784.12 114.62,-784.12 114.62,-763.38 243.12,-763.38 243.12,-784.12"/>
<text xml:space="preserve" text-anchor="middle" x="178.88" y="-770.62" font-family="Helvetica,sans-Serif" font-size="10.00">load_saved_sequences</text>
</a>
</g>
</g>
<!-- Node1&#45;&gt;Node355 -->
<g id="edge23_Node000001_Node000355" class="edge">
<title>Node1&#45;&gt;Node355</title>
<g id="a_edge23_Node000001_Node000355"><a xlink:title=" ">
<path fill="none" stroke="#63b8ff" d="M34.26,-499.56C39.74,-544.55 62.82,-716.43 100,-753.75 101.55,-755.31 103.21,-756.75 104.95,-758.08"/>
<polygon fill="#63b8ff" stroke="#63b8ff" points="102.65,-760.78 112.99,-763.09 106.35,-754.84 102.65,-760.78"/>
</a>
</g>
</g>
<!-- Node396 -->
<g id="Node000396" class="node">
<title>Node396</title>
<g id="a_Node000396"><a xlink:href="m__files_8c.html#a42a31fc3110de45960dd88975c2f9f35" target="_top" xlink:title=" ">
<polygon fill="#fff0f0" stroke="red" points="237.12,-706.12 120.62,-706.12 120.62,-685.38 237.12,-685.38 237.12,-706.12"/>
<text xml:space="preserve" text-anchor="middle" x="178.88" y="-692.62" font-family="Helvetica,sans-Serif" font-size="10.00">load_state_from_file</text>
</a>
</g>
</g>
<!-- Node1&#45;&gt;Node396 -->
<g id="edge26_Node000001_Node000396" class="edge">
<title>Node1&#45;&gt;Node396</title>
<g id="a_edge26_Node000001_Node000396"><a xlink:title=" ">
<path fill="none" stroke="#63b8ff" d="M33.5,-499.51C35.58,-531.48 46.22,-626.73 100,-675.75 102.98,-678.47 106.28,-680.82 109.78,-682.87"/>
<polygon fill="#63b8ff" stroke="#63b8ff" points="108.24,-686.01 118.76,-687.19 111.27,-679.7 108.24,-686.01"/>
</a>
</g>
</g>
<!-- Node397 -->
<g id="Node000397" class="node">
<title>Node397</title>
<g id="a_Node000397"><a xlink:href="m__context_8c.html#a895da8836c6805532fdf6c59211ad1d4" target="_top" xlink:title=" ">
<polygon fill="white" stroke="#666666" points="250.25,-667.12 107.5,-667.12 107.5,-646.38 250.25,-646.38 250.25,-667.12"/>
<text xml:space="preserve" text-anchor="middle" x="178.88" y="-653.62" font-family="Helvetica,sans-Serif" font-size="10.00">m_context_init_effect_list</text>
</a>
</g>
</g>
<!-- Node1&#45;&gt;Node397 -->
<g id="edge27_Node000001_Node000397" class="edge">
<title>Node1&#45;&gt;Node397</title>
<g id="a_edge27_Node000001_Node000397"><a xlink:title=" ">
<path fill="none" stroke="#63b8ff" d="M34.65,-499.6C39.39,-527.03 55.72,-599.57 100,-636.75 101.51,-638.02 103.08,-639.2 104.72,-640.31"/>
<polygon fill="#63b8ff" stroke="#63b8ff" points="102.88,-643.3 113.31,-645.17 106.32,-637.2 102.88,-643.3"/>
</a>
</g>
</g>
<!-- Node398 -->
<g id="Node000398" class="node">
<title>Node398</title>
<g id="a_Node000398"><a xlink:href="m__ui_8c.html#a254d997b6187265df4f77635526d7517" target="_top" xlink:title=" ">
<polygon fill="#fff0f0" stroke="red" points="216.88,-628.12 140.88,-628.12 140.88,-607.38 216.88,-607.38 216.88,-628.12"/>
<text xml:space="preserve" text-anchor="middle" x="178.88" y="-614.62" font-family="Helvetica,sans-Serif" font-size="10.00">m_create_ui</text>
</a>
</g>
</g>
<!-- Node1&#45;&gt;Node398 -->
<g id="edge28_Node000001_Node000398" class="edge">
<title>Node1&#45;&gt;Node398</title>
<g id="a_edge28_Node000001_Node000398"><a xlink:title=" ">
<path fill="none" stroke="#63b8ff" d="M36.37,-499.44C43.94,-521.62 64.45,-572.74 100,-598.75 108.58,-605.02 118.97,-609.25 129.33,-612.08"/>
<polygon fill="#63b8ff" stroke="#63b8ff" points="128.46,-615.47 138.99,-614.31 130.03,-608.65 128.46,-615.47"/>
</a>
</g>
</g>
<!-- Node429 -->
<g id="Node000429" class="node">
<title>Node429</title>
<g id="a_Node000429"><a xlink:href="m__state_8c.html#ab99ef4a9c926e6aeeaf78f4593f243c1" target="_top" xlink:title=" ">
<polygon fill="#fff0f0" stroke="red" points="240.88,-589.5 116.88,-589.5 116.88,-556 240.88,-556 240.88,-589.5"/>
<text xml:space="preserve" text-anchor="start" x="124.88" y="-576" font-family="Helvetica,sans-Serif" font-size="10.00">m_cxt_enter_previous</text>
<text xml:space="preserve" text-anchor="middle" x="178.88" y="-563.25" font-family="Helvetica,sans-Serif" font-size="10.00">_current_page</text>
</a>
</g>
</g>
<!-- Node1&#45;&gt;Node429 -->
<g id="edge29_Node000001_Node000429" class="edge">
<title>Node1&#45;&gt;Node429</title>
<g id="a_edge29_Node000001_Node000429"><a xlink:title=" ">
<path fill="none" stroke="#63b8ff" d="M42.91,-499.61C55.19,-512.47 77.28,-533.8 100,-546.75 102.49,-548.17 105.07,-549.53 107.72,-550.82"/>
<polygon fill="#63b8ff" stroke="#63b8ff" points="106.2,-553.98 116.76,-554.9 109.08,-547.6 106.2,-553.98"/>
</a>
</g>
</g>
<!-- Node434 -->
<g id="Node000434" class="node">
<title>Node434</title>
<g id="a_Node000434"><a xlink:href="m__state_8c.html#ade70c4c59f1b52e6ccd2f2a5c63559a9" target="_top" xlink:title=" ">
<polygon fill="#fff0f0" stroke="red" points="236.75,-538.12 121,-538.12 121,-517.38 236.75,-517.38 236.75,-538.12"/>
<text xml:space="preserve" text-anchor="middle" x="178.88" y="-524.62" font-family="Helvetica,sans-Serif" font-size="10.00">m_cxt_restore_state</text>
</a>
</g>
</g>
<!-- Node1&#45;&gt;Node434 -->
<g id="edge30_Node000001_Node000434" class="edge">
<title>Node1&#45;&gt;Node434</title>
<g id="a_edge30_Node000001_Node000434"><a xlink:title=" ">
<path fill="none" stroke="#63b8ff" d="M64.31,-497.8C75.55,-501.01 88.33,-504.6 100,-507.75 107.78,-509.85 116.02,-512.02 124.1,-514.13"/>
<polygon fill="#63b8ff" stroke="#63b8ff" points="122.96,-517.45 133.52,-516.56 124.71,-510.67 122.96,-517.45"/>
</a>
</g>
</g>
<!-- Node437 -->
<g id="Node000437" class="node">
<title>Node437</title>
<g id="a_Node000437"><a xlink:href="m__fpga__comms_8c.html#abfe39a66ff3496fa4bbb972c7ce434c0" target="_top" xlink:title=" ">
<polygon fill="#fff0f0" stroke="red" points="239,-499.12 118.75,-499.12 118.75,-478.38 239,-478.38 239,-499.12"/>
<text xml:space="preserve" text-anchor="middle" x="178.88" y="-485.62" font-family="Helvetica,sans-Serif" font-size="10.00">m_fpga_comms_task</text>
</a>
</g>
</g>
<!-- Node1&#45;&gt;Node437 -->
<g id="edge32_Node000001_Node000437" class="edge">
<title>Node1&#45;&gt;Node437</title>
<g id="a_edge32_Node000001_Node000437"><a xlink:title=" ">
<path fill="none" stroke="#63b8ff" d="M64.44,-488.75C77.04,-488.75 92.1,-488.75 107.08,-488.75"/>
<polygon fill="#63b8ff" stroke="#63b8ff" points="106.96,-492.25 116.96,-488.75 106.96,-485.25 106.96,-492.25"/>
</a>
</g>
</g>
<!-- Node454 -->
<g id="Node000454" class="node">
<title>Node454</title>
<g id="a_Node000454"><a xlink:href="m__context_8c.html#a7e3116adcd8ee17698788b7d17a46018" target="_top" xlink:title=" ">
<polygon fill="#fff0f0" stroke="red" points="223.25,-460.12 134.5,-460.12 134.5,-439.38 223.25,-439.38 223.25,-460.12"/>
<text xml:space="preserve" text-anchor="middle" x="178.88" y="-446.62" font-family="Helvetica,sans-Serif" font-size="10.00">m_init_context</text>
</a>
</g>
</g>
<!-- Node1&#45;&gt;Node454 -->
<g id="edge33_Node000001_Node000454" class="edge">
<title>Node1&#45;&gt;Node454</title>
<g id="a_edge33_Node000001_Node000454"><a xlink:title=" ">
<path fill="none" stroke="#63b8ff" d="M64.31,-479.7C75.55,-476.49 88.33,-472.9 100,-469.75 107.78,-467.65 116.02,-465.48 124.1,-463.37"/>
<polygon fill="#63b8ff" stroke="#63b8ff" points="124.71,-466.83 133.52,-460.94 122.96,-460.05 124.71,-466.83"/>
</a>
</g>
</g>
<!-- Node463 -->
<g id="Node000463" class="node">
<title>Node463</title>
<g id="a_Node000463"><a xlink:href="m__files_8c.html#a148a60f96de7c38db3e92a7d777f8d29" target="_top" xlink:title=" ">
<polygon fill="white" stroke="#666666" points="230.75,-421.12 127,-421.12 127,-400.38 230.75,-400.38 230.75,-421.12"/>
<text xml:space="preserve" text-anchor="middle" x="178.88" y="-407.62" font-family="Helvetica,sans-Serif" font-size="10.00">m_init_directories</text>
</a>
</g>
</g>
<!-- Node1&#45;&gt;Node463 -->
<g id="edge34_Node000001_Node000463" class="edge">
<title>Node1&#45;&gt;Node463</title>
<g id="a_edge34_Node000001_Node000463"><a xlink:title=" ">
<path fill="none" stroke="#63b8ff" d="M42.34,-478.08C54.37,-464.99 76.56,-443.03 100,-430.75 105.05,-428.11 110.47,-425.8 116.01,-423.78"/>
<polygon fill="#63b8ff" stroke="#63b8ff" points="116.91,-427.17 125.32,-420.73 114.73,-420.52 116.91,-427.17"/>
</a>
</g>
</g>
<!-- Node464 -->
<g id="Node000464" class="node">
<title>Node464</title>
<g id="a_Node000464"><a xlink:href="m__ui_8c.html#a7a44c202906b5429286d990bb9374567" target="_top" xlink:title=" ">
<polygon fill="#fff0f0" stroke="red" points="237.12,-382.12 120.62,-382.12 120.62,-361.38 237.12,-361.38 237.12,-382.12"/>
<text xml:space="preserve" text-anchor="middle" x="178.88" y="-368.62" font-family="Helvetica,sans-Serif" font-size="10.00">m_init_global_pages</text>
</a>
</g>
</g>
<!-- Node1&#45;&gt;Node464 -->
<g id="edge35_Node000001_Node000464" class="edge">
<title>Node1&#45;&gt;Node464</title>
<g id="a_edge35_Node000001_Node000464"><a xlink:title=" ">
<path fill="none" stroke="#63b8ff" d="M37.29,-478.12C45.97,-458 67.6,-414.34 100,-391.75 103.19,-389.53 106.6,-387.55 110.16,-385.79"/>
<polygon fill="#63b8ff" stroke="#63b8ff" points="111.26,-389.13 119.09,-382 108.52,-382.69 111.26,-389.13"/>
</a>
</g>
</g>
<!-- Node497 -->
<g id="Node000497" class="node">
<title>Node497</title>
<g id="a_Node000497"><a xlink:href="m__lv__log_8h.html#aa1a2e892612badb8808dab289330f557" target="_top" xlink:title=" ">
<polygon fill="white" stroke="#666666" points="212.38,-343.12 145.38,-343.12 145.38,-322.38 212.38,-322.38 212.38,-343.12"/>
<text xml:space="preserve" text-anchor="middle" x="178.88" y="-329.62" font-family="Helvetica,sans-Serif" font-size="10.00">m_log_init</text>
</a>
</g>
</g>
<!-- Node1&#45;&gt;Node497 -->
<g id="edge36_Node000001_Node000497" class="edge">
<title>Node1&#45;&gt;Node497</title>
<g id="a_edge36_Node000001_Node000497"><a xlink:title=" ">
<path fill="none" stroke="#63b8ff" d="M35.09,-478.01C40.7,-452.22 58.53,-386.44 100,-352.75 109.61,-344.95 121.9,-340.15 133.87,-337.21"/>
<polygon fill="#63b8ff" stroke="#63b8ff" points="134.55,-340.64 143.66,-335.23 133.16,-333.78 134.55,-340.64"/>
</a>
</g>
</g>
<!-- Node498 -->
<g id="Node000498" class="node">
<title>Node498</title>
<g id="a_Node000498"><a xlink:href="m__lv__log_8h.html#a268ae2e217bb373f568015f4a5d95c46" target="_top" xlink:title=" ">
<polygon fill="white" stroke="#666666" points="217.25,-304.12 140.5,-304.12 140.5,-283.38 217.25,-283.38 217.25,-304.12"/>
<text xml:space="preserve" text-anchor="middle" x="178.88" y="-290.62" font-family="Helvetica,sans-Serif" font-size="10.00">m_lv_log_cb</text>
</a>
</g>
</g>
<!-- Node1&#45;&gt;Node498 -->
<g id="edge37_Node000001_Node000498" class="edge">
<title>Node1&#45;&gt;Node498</title>
<g id="a_edge37_Node000001_Node000498"><a xlink:title=" ">
<path fill="none" stroke="#63b8ff" d="M33.77,-478.23C36.59,-447.85 49.01,-359.22 100,-313.75 108.2,-306.44 118.71,-301.74 129.34,-298.72"/>
<polygon fill="#63b8ff" stroke="#63b8ff" points="129.95,-302.18 138.9,-296.5 128.36,-295.36 129.95,-302.18"/>
</a>
</g>
</g>
<!-- Node499 -->
<g id="Node000499" class="node">
<title>Node499</title>
<g id="a_Node000499"><a xlink:href="m__alloc_8c.html#a6a2814ba8f1d7bcb8edd0dec017df0c8" target="_top" xlink:title=" ">
<polygon fill="#fff0f0" stroke="red" points="217.62,-265.12 140.12,-265.12 140.12,-244.38 217.62,-244.38 217.62,-265.12"/>
<text xml:space="preserve" text-anchor="middle" x="178.88" y="-251.62" font-family="Helvetica,sans-Serif" font-size="10.00">m_mem_init</text>
</a>
</g>
</g>
<!-- Node1&#45;&gt;Node499 -->
<g id="edge38_Node000001_Node000499" class="edge">
<title>Node1&#45;&gt;Node499</title>
<g id="a_edge38_Node000001_Node000499"><a xlink:title=" ">
<path fill="none" stroke="#63b8ff" d="M32.94,-477.99C33.35,-443.11 39.58,-332.11 100,-274.75 107.89,-267.26 118.19,-262.48 128.71,-259.45"/>
<polygon fill="#63b8ff" stroke="#63b8ff" points="129.24,-262.92 138.18,-257.23 127.64,-256.1 129.24,-262.92"/>
</a>
</g>
</g>
<!-- Node502 -->
<g id="Node000502" class="node">
<title>Node502</title>
<g id="a_Node000502"><a xlink:href="m__param__update_8h.html#a6efb4cf51d40b0f7a299614c786b3950" target="_top" xlink:title=" ">
<polygon fill="white" stroke="#666666" points="242.75,-226.12 115,-226.12 115,-205.38 242.75,-205.38 242.75,-226.12"/>
<text xml:space="preserve" text-anchor="middle" x="178.88" y="-212.62" font-family="Helvetica,sans-Serif" font-size="10.00">m_param_update_task</text>
</a>
</g>
</g>
<!-- Node1&#45;&gt;Node502 -->
<g id="edge39_Node000001_Node000502" class="edge">
<title>Node1&#45;&gt;Node502</title>
<g id="a_edge39_Node000001_Node000502"><a xlink:title=" ">
<path fill="none" stroke="#63b8ff" d="M34.38,-478.14C40.22,-434.71 64.28,-271.2 100,-235.75 101.6,-234.16 103.3,-232.7 105.1,-231.35"/>
<polygon fill="#63b8ff" stroke="#63b8ff" points="106.71,-234.46 113.41,-226.26 103.05,-228.49 106.71,-234.46"/>
</a>
</g>
</g>
<!-- Node479 -->
<g id="Node000479" class="node">
<title>Node479</title>
<g id="a_Node000479"><a xlink:href="m__printf_8c.html#abf44da37b160072d305c2c5a9387d78d" target="_top" xlink:title=" ">
<polygon fill="white" stroke="#666666" points="396.75,-169.12 339.5,-169.12 339.5,-148.38 396.75,-148.38 396.75,-169.12"/>
<text xml:space="preserve" text-anchor="middle" x="368.12" y="-155.62" font-family="Helvetica,sans-Serif" font-size="10.00">m_printf</text>
</a>
</g>
</g>
<!-- Node1&#45;&gt;Node479 -->
<g id="edge40_Node000001_Node000479" class="edge">
<title>Node1&#45;&gt;Node479</title>
<g id="a_edge40_Node000001_Node000479"><a xlink:title=" ">
<path fill="none" stroke="#63b8ff" d="M33.87,-478.05C37.98,-430.17 57.11,-236.17 100,-196.75 132.53,-166.85 262.21,-160.38 328.16,-159.05"/>
<polygon fill="#63b8ff" stroke="#63b8ff" points="327.87,-162.55 337.81,-158.88 327.75,-155.55 327.87,-162.55"/>
</a>
</g>
</g>
<!-- Node503 -->
<g id="Node000503" class="node">
<title>Node503</title>
<g id="a_Node000503"><a xlink:href="m__printf_8c.html#aa77694235a6c4ad5fd4571acf2461138" target="_top" xlink:title=" ">
<polygon fill="white" stroke="#666666" points="218,-111.12 139.75,-111.12 139.75,-90.38 218,-90.38 218,-111.12"/>
<text xml:space="preserve" text-anchor="middle" x="178.88" y="-97.62" font-family="Helvetica,sans-Serif" font-size="10.00">m_printf_init</text>
</a>
</g>
</g>
<!-- Node1&#45;&gt;Node503 -->
<g id="edge41_Node000001_Node000503" class="edge">
<title>Node1&#45;&gt;Node503</title>
<g id="a_edge41_Node000001_Node000503"><a xlink:title=" ">
<path fill="none" stroke="#63b8ff" d="M33.43,-478.09C35.88,-423.41 49.66,-174.81 100,-120.75 107.48,-112.71 117.72,-107.73 128.32,-104.68"/>
<polygon fill="#63b8ff" stroke="#63b8ff" points="128.94,-108.12 137.91,-102.49 127.38,-101.3 128.94,-108.12"/>
</a>
</g>
</g>
<!-- Node504 -->
<g id="Node000504" class="node">
<title>Node504</title>
<g id="a_Node000504"><a xlink:href="m__sgtl5000_8c.html#a908e9babf80d7f17fb0a1127ba2f6636" target="_top" xlink:title=" ">
<polygon fill="#fff0f0" stroke="red" points="225.88,-150.12 131.88,-150.12 131.88,-129.38 225.88,-129.38 225.88,-150.12"/>
<text xml:space="preserve" text-anchor="middle" x="178.88" y="-136.62" font-family="Helvetica,sans-Serif" font-size="10.00">m_sgtl5000_init</text>
</a>
</g>
</g>
<!-- Node1&#45;&gt;Node504 -->
<g id="edge42_Node000001_Node000504" class="edge">
<title>Node1&#45;&gt;Node504</title>
<g id="a_edge42_Node000001_Node000504"><a xlink:title=" ">
<path fill="none" stroke="#63b8ff" d="M33.77,-478.06C37.61,-427.38 56.32,-211.82 100,-163.75 105.76,-157.42 113.14,-152.74 121.06,-149.28"/>
<polygon fill="#63b8ff" stroke="#63b8ff" points="122.07,-152.64 130.27,-145.93 119.67,-146.06 122.07,-152.64"/>
</a>
</g>
</g>
<!-- Node501 -->
<g id="Node000501" class="node">
<title>Node501</title>
<g id="a_Node000501"><a xlink:href="m__alloc_8c.html#a78465771e821845999fad24dca873c9a" target="_top" xlink:title=" ">
<polygon fill="white" stroke="#666666" points="238.62,-72.12 119.12,-72.12 119.12,-51.38 238.62,-51.38 238.62,-72.12"/>
<text xml:space="preserve" text-anchor="middle" x="178.88" y="-58.62" font-family="Helvetica,sans-Serif" font-size="10.00">print_memory_report</text>
</a>
</g>
</g>
<!-- Node1&#45;&gt;Node501 -->
<g id="edge44_Node000001_Node000501" class="edge">
<title>Node1&#45;&gt;Node501</title>
<g id="a_edge44_Node000001_Node000501"><a xlink:title=" ">
<path fill="none" stroke="#63b8ff" d="M33.23,-478.14C34.71,-420.18 44.63,-142.23 100,-81.75 102.59,-78.92 105.53,-76.46 108.7,-74.34"/>
<polygon fill="#63b8ff" stroke="#63b8ff" points="110.34,-77.43 117.49,-69.62 107.03,-71.26 110.34,-77.43"/>
</a>
</g>
</g>
<!-- Node514 -->
<g id="Node000514" class="node">
<title>Node514</title>
<g id="a_Node000514"><a xlink:href="waveshare__dsi__touch__5__a_8c.html#ab695eb7d2c11318b4de2ee677d918255" target="_top" xlink:title=" ">
<polygon fill="white" stroke="#666666" points="239.38,-33.5 118.38,-33.5 118.38,0 239.38,0 239.38,-33.5"/>
<text xml:space="preserve" text-anchor="start" x="126.38" y="-20" font-family="Helvetica,sans-Serif" font-size="10.00">waveshare_dsi_touch</text>
<text xml:space="preserve" text-anchor="middle" x="178.88" y="-7.25" font-family="Helvetica,sans-Serif" font-size="10.00">_5_a_init</text>
</a>
</g>
</g>
<!-- Node1&#45;&gt;Node514 -->
<g id="edge45_Node000001_Node000514" class="edge">
<title>Node1&#45;&gt;Node514</title>
<g id="a_edge45_Node000001_Node000514"><a xlink:title=" ">
<path fill="none" stroke="#63b8ff" d="M33.14,-478.02C34.15,-416.76 42.07,-111.69 100,-42.75 102.55,-39.71 105.47,-37.03 108.65,-34.65"/>
<polygon fill="#63b8ff" stroke="#63b8ff" points="110.23,-37.79 116.89,-29.56 106.55,-31.84 110.23,-37.79"/>
</a>
</g>
</g>
<!-- Node3 -->
<g id="Node000003" class="node">
<title>Node3</title>
<g id="a_Node000003"><a xlink:href="m__transformer_8c.html#aa1fa9e7e74e4a4c0d99515a1c844bd0a" target="_top" xlink:title=" ">
<polygon fill="white" stroke="#666666" points="429,-1200.12 307.25,-1200.12 307.25,-1179.38 429,-1179.38 429,-1200.12"/>
<text xml:space="preserve" text-anchor="middle" x="368.12" y="-1186.62" font-family="Helvetica,sans-Serif" font-size="10.00">m_transformer_name</text>
</a>
</g>
</g>
<!-- Node2&#45;&gt;Node3 -->
<g id="edge2_Node000002_Node000003" class="edge">
<title>Node2&#45;&gt;Node3</title>
<g id="a_edge2_Node000002_Node000003"><a xlink:title=" ">
<path fill="none" stroke="#63b8ff" d="M240.41,-1170.8C258.02,-1173.44 277.42,-1176.34 295.64,-1179.06"/>
<polygon fill="#63b8ff" stroke="#63b8ff" points="294.89,-1182.49 305.3,-1180.51 295.93,-1175.56 294.89,-1182.49"/>
</a>
</g>
</g>
<!-- Node6 -->
<g id="Node000006" class="node">
<title>Node6</title>
<g id="a_Node000006"><a xlink:href="m__transformer__select_8c.html#a190405b84e930df98a00d85575b6bc09" target="_top" xlink:title=" ">
<polygon fill="#fff0f0" stroke="red" points="423,-1071.5 313.25,-1071.5 313.25,-1038 423,-1038 423,-1071.5"/>
<text xml:space="preserve" text-anchor="start" x="321.25" y="-1058" font-family="Helvetica,sans-Serif" font-size="10.00">create_transformer</text>
<text xml:space="preserve" text-anchor="middle" x="368.12" y="-1045.25" font-family="Helvetica,sans-Serif" font-size="10.00">_selector_ui_eff</text>
</a>
</g>
</g>
<!-- Node5&#45;&gt;Node6 -->
<g id="edge5_Node000005_Node000006" class="edge">
<title>Node5&#45;&gt;Node6</title>
<g id="a_edge5_Node000005_Node000006"><a xlink:title=" ">
<path fill="none" stroke="#63b8ff" d="M258.2,-1041.95C272.75,-1043.66 287.81,-1045.43 301.91,-1047.09"/>
<polygon fill="#63b8ff" stroke="#63b8ff" points="301.15,-1050.52 311.49,-1048.21 301.97,-1043.57 301.15,-1050.52"/>
</a>
</g>
</g>
<!-- Node164 -->
<g id="Node000164" class="node">
<title>Node164</title>
<g id="a_Node000164"><a xlink:href="m__transformer__select_8c.html#acab5d89c76c63be4ad9d08219f3cd9f0" target="_top" xlink:title=" ">
<polygon fill="white" stroke="#666666" points="442.5,-1020.12 293.75,-1020.12 293.75,-999.38 442.5,-999.38 442.5,-1020.12"/>
<text xml:space="preserve" text-anchor="middle" x="368.12" y="-1006.62" font-family="Helvetica,sans-Serif" font-size="10.00">enter_transformer_selector</text>
</a>
</g>
</g>
<!-- Node5&#45;&gt;Node164 -->
<g id="edge6_Node000005_Node000164" class="edge">
<title>Node5&#45;&gt;Node164</title>
<g id="a_edge6_Node000005_Node000164"><a xlink:title=" ">
<path fill="none" stroke="#63b8ff" d="M258.2,-1023.13C266.1,-1022.16 274.15,-1021.17 282.12,-1020.19"/>
<polygon fill="#63b8ff" stroke="#63b8ff" points="282.3,-1023.7 291.8,-1019 281.45,-1016.75 282.3,-1023.7"/>
</a>
</g>
</g>
<!-- Node165 -->
<g id="Node000165" class="node">
<title>Node165</title>
<g id="a_Node000165"><a xlink:href="m__transformer__select_8c.html#af809e43b4400f9aa88a87d2c67b2fc7e" target="_top" xlink:title=" ">
<polygon fill="white" stroke="#666666" points="437.62,-1123.5 298.62,-1123.5 298.62,-1090 437.62,-1090 437.62,-1123.5"/>
<text xml:space="preserve" text-anchor="start" x="306.62" y="-1110" font-family="Helvetica,sans-Serif" font-size="10.00">init_transformer_selector</text>
<text xml:space="preserve" text-anchor="middle" x="368.12" y="-1097.25" font-family="Helvetica,sans-Serif" font-size="10.00">_button_from_effect</text>
</a>
</g>
</g>
<!-- Node5&#45;&gt;Node165 -->
<g id="edge7_Node000005_Node000165" class="edge">
<title>Node5&#45;&gt;Node165</title>
<g id="a_edge7_Node000005_Node000165"><a xlink:title=" ">
<path fill="none" stroke="#63b8ff" d="M234.11,-1043.61C242.23,-1046.1 250.36,-1049.12 257.75,-1052.75 275.95,-1061.68 275.97,-1071.02 293.75,-1080.75 296.44,-1082.22 299.22,-1083.63 302.07,-1084.99"/>
<polygon fill="#63b8ff" stroke="#63b8ff" points="300.62,-1088.18 311.18,-1089.03 303.46,-1081.78 300.62,-1088.18"/>
</a>
</g>
</g>
<!-- Node166 -->
<g id="Node000166" class="node">
<title>Node166</title>
<g id="a_Node000166"><a xlink:href="m__ui_8c.html#af00906d3db4ae068f5cd832bb5052d83" target="_top" xlink:title=" ">
<polygon fill="white" stroke="#666666" points="581.5,-711.12 506.25,-711.12 506.25,-690.38 581.5,-690.38 581.5,-711.12"/>
<text xml:space="preserve" text-anchor="middle" x="543.88" y="-697.62" font-family="Helvetica,sans-Serif" font-size="10.00">init_ui_page</text>
</a>
</g>
</g>
<!-- Node5&#45;&gt;Node166 -->
<g id="edge8_Node000005_Node000166" class="edge">
<title>Node5&#45;&gt;Node166</title>
<g id="a_edge8_Node000005_Node000166"><a xlink:title=" ">
<path fill="none" stroke="#63b8ff" d="M243.13,-1043.58C248.4,-1046.05 253.37,-1049.06 257.75,-1052.75 287.58,-1077.86 261.01,-1111.58 293.75,-1132.75 349.27,-1168.65 392.76,-1176.3 442.5,-1132.75 488.04,-1092.88 463.21,-921.32 478.5,-862.75 492.19,-810.3 518.24,-751.94 532.65,-721.62"/>
<polygon fill="#63b8ff" stroke="#63b8ff" points="535.71,-723.33 536.9,-712.8 529.4,-720.29 535.71,-723.33"/>
</a>
</g>
</g>
<!-- Node168 -->
<g id="Node000168" class="node">
<title>Node168</title>
<g id="a_Node000168"><a xlink:href="m__files_8c.html#af2c9a5f230b9dd7908c5fbadd69e715e" target="_top" xlink:title=" ">
<polygon fill="white" stroke="#666666" points="428.25,-764.12 308,-764.12 308,-743.38 428.25,-743.38 428.25,-764.12"/>
<text xml:space="preserve" text-anchor="middle" x="368.12" y="-750.62" font-family="Helvetica,sans-Serif" font-size="10.00">list_files_in_directory</text>
</a>
</g>
</g>
<!-- Node167&#45;&gt;Node168 -->
<g id="edge10_Node000167_Node000168" class="edge">
<title>Node167&#45;&gt;Node168</title>
<g id="a_edge10_Node000167_Node000168"><a xlink:title=" ">
<path fill="none" stroke="#63b8ff" d="M204.3,-818.02C219.76,-811.09 240.09,-801.72 257.75,-792.75 274.07,-784.46 276.75,-779.54 293.75,-772.75 298.08,-771.02 302.62,-769.4 307.22,-767.9"/>
<polygon fill="#63b8ff" stroke="#63b8ff" points="308.02,-771.32 316.57,-765.06 305.99,-764.62 308.02,-771.32"/>
</a>
</g>
</g>
<!-- Node169 -->
<g id="Node000169" class="node">
<title>Node169</title>
<g id="a_Node000169"><a xlink:href="m__eff__parser_8c.html#a1fd21ee54d95b5d2fb4535cf0dac0986" target="_top" xlink:title=" ">
<polygon fill="#fff0f0" stroke="red" points="424.88,-943.5 311.38,-943.5 311.38,-910 424.88,-910 424.88,-943.5"/>
<text xml:space="preserve" text-anchor="start" x="319.38" y="-930" font-family="Helvetica,sans-Serif" font-size="10.00">m_eff_parser_deinit</text>
<text xml:space="preserve" text-anchor="middle" x="368.12" y="-917.25" font-family="Helvetica,sans-Serif" font-size="10.00">_mempool</text>
</a>
</g>
</g>
<!-- Node167&#45;&gt;Node169 -->
<g id="edge11_Node000167_Node000169" class="edge">
<title>Node167&#45;&gt;Node169</title>
<g id="a_edge11_Node000167_Node000169"><a xlink:title=" ">
<path fill="none" stroke="#63b8ff" d="M194.36,-839.41C215.42,-854.54 256.09,-882.46 293.75,-900.75 296.87,-902.27 300.1,-903.74 303.39,-905.16"/>
<polygon fill="#63b8ff" stroke="#63b8ff" points="302.06,-908.4 312.64,-908.96 304.72,-901.92 302.06,-908.4"/>
</a>
</g>
</g>
<!-- Node171 -->
<g id="Node000171" class="node">
<title>Node171</title>
<g id="a_Node000171"><a xlink:href="m__eff__parser_8c.html#a47fbc13c9c41c8f6f7e330aada19d746" target="_top" xlink:title=" ">
<polygon fill="#fff0f0" stroke="red" points="423.38,-815.5 312.88,-815.5 312.88,-782 423.38,-782 423.38,-815.5"/>
<text xml:space="preserve" text-anchor="start" x="320.88" y="-802" font-family="Helvetica,sans-Serif" font-size="10.00">m_eff_parser_reset</text>
<text xml:space="preserve" text-anchor="middle" x="368.12" y="-789.25" font-family="Helvetica,sans-Serif" font-size="10.00">_mempool</text>
</a>
</g>
</g>
<!-- Node167&#45;&gt;Node171 -->
<g id="edge12_Node000167_Node000171" class="edge">
<title>Node167&#45;&gt;Node171</title>
<g id="a_edge12_Node000167_Node000171"><a xlink:title=" ">
<path fill="none" stroke="#63b8ff" d="M217.32,-822.75C241.44,-818.89 273.45,-813.76 301.69,-809.23"/>
<polygon fill="#63b8ff" stroke="#63b8ff" points="301.9,-812.74 311.22,-807.71 300.79,-805.83 301.9,-812.74"/>
</a>
</g>
</g>
<!-- Node167&#45;&gt;Node57 -->
<g id="edge13_Node000167_Node000057" class="edge">
<title>Node167&#45;&gt;Node57</title>
<g id="a_edge13_Node000167_Node000057"><a xlink:title=" ">
<path fill="none" stroke="#63b8ff" d="M216.94,-832.86C267.89,-838.66 362.36,-849.99 442.5,-862.75 453.91,-864.57 466.02,-866.69 477.73,-868.85"/>
<polygon fill="#63b8ff" stroke="#63b8ff" points="476.84,-872.24 487.31,-870.64 478.12,-865.36 476.84,-872.24"/>
</a>
</g>
</g>
<!-- Node173 -->
<g id="Node000173" class="node">
<title>Node173</title>
<g id="a_Node000173"><a xlink:href="m__eff__parser_8c.html#aabfa1bb37d0bead1605fb10e348fe43c" target="_top" xlink:title=" ">
<polygon fill="#fff0f0" stroke="red" points="442.5,-892.12 293.75,-892.12 293.75,-871.38 442.5,-871.38 442.5,-892.12"/>
<text xml:space="preserve" text-anchor="middle" x="368.12" y="-878.62" font-family="Helvetica,sans-Serif" font-size="10.00">m_read_eff_desc_from_file</text>
</a>
</g>
</g>
<!-- Node167&#45;&gt;Node173 -->
<g id="edge14_Node000167_Node000173" class="edge">
<title>Node167&#45;&gt;Node173</title>
<g id="a_edge14_Node000167_Node000173"><a xlink:title=" ">
<path fill="none" stroke="#63b8ff" d="M217.32,-839.35C246.25,-847.54 286.53,-858.94 318.04,-867.86"/>
<polygon fill="#63b8ff" stroke="#63b8ff" points="316.75,-871.13 327.33,-870.49 318.66,-864.39 316.75,-871.13"/>
</a>
</g>
</g>
<!-- Node173&#45;&gt;Node57 -->
<g id="edge15_Node000173_Node000057" class="edge">
<title>Node173&#45;&gt;Node57</title>
<g id="a_edge15_Node000173_Node000057"><a xlink:title=" ">
<path fill="none" stroke="#63b8ff" d="M442.81,-881.75C450.7,-881.75 458.74,-881.75 466.66,-881.75"/>
<polygon fill="#63b8ff" stroke="#63b8ff" points="466.64,-885.25 476.64,-881.75 466.64,-878.25 466.64,-885.25"/>
</a>
</g>
</g>
<!-- Node291&#45;&gt;Node168 -->
<g id="edge21_Node000291_Node000168" class="edge">
<title>Node291&#45;&gt;Node168</title>
<g id="a_edge21_Node000291_Node000168"><a xlink:title=" ">
<path fill="none" stroke="#63b8ff" d="M236.06,-740.45C255.06,-742.38 276.52,-744.56 296.49,-746.58"/>
<polygon fill="#63b8ff" stroke="#63b8ff" points="295.92,-750.04 306.22,-747.57 296.63,-743.08 295.92,-750.04"/>
</a>
</g>
</g>
<!-- Node292 -->
<g id="Node000292" class="node">
<title>Node292</title>
<g id="a_Node000292"><a xlink:href="m__profile__view_8c.html#aa40a3918b18bbfa3df5aa489d947258a" target="_top" xlink:title=" ">
<polygon fill="#fff0f0" stroke="red" points="433.5,-569.12 302.75,-569.12 302.75,-548.38 433.5,-548.38 433.5,-569.12"/>
<text xml:space="preserve" text-anchor="middle" x="368.12" y="-555.62" font-family="Helvetica,sans-Serif" font-size="10.00">create_profile_view_for</text>
</a>
</g>
</g>
<!-- Node291&#45;&gt;Node292 -->
<g id="edge17_Node000291_Node000292" class="edge">
<title>Node291&#45;&gt;Node292</title>
<g id="a_edge17_Node000291_Node000292"><a xlink:title=" ">
<path fill="none" stroke="#63b8ff" d="M236.07,-728.06C244.12,-725.02 251.71,-720.75 257.75,-714.75 302.13,-670.7 249.7,-623.12 293.75,-578.75 294.77,-577.72 295.84,-576.75 296.95,-575.82"/>
<polygon fill="#63b8ff" stroke="#63b8ff" points="298.56,-578.95 304.9,-570.47 294.65,-573.14 298.56,-578.95"/>
</a>
</g>
</g>
<!-- Node347 -->
<g id="Node000347" class="node">
<title>Node347</title>
<g id="a_Node000347"><a xlink:href="m__profile_8c.html#a924661c699938ec0a5887d77760265e8" target="_top" xlink:title=" ">
<polygon fill="#fff0f0" stroke="red" points="404.25,-608.12 332,-608.12 332,-587.38 404.25,-587.38 404.25,-608.12"/>
<text xml:space="preserve" text-anchor="middle" x="368.12" y="-594.62" font-family="Helvetica,sans-Serif" font-size="10.00">free_profile</text>
</a>
</g>
</g>
<!-- Node291&#45;&gt;Node347 -->
<g id="edge19_Node000291_Node000347" class="edge">
<title>Node291&#45;&gt;Node347</title>
<g id="a_edge19_Node000291_Node000347"><a xlink:title=" ">
<path fill="none" stroke="#63b8ff" d="M235.98,-727.39C243.94,-724.43 251.53,-720.36 257.75,-714.75 291.91,-683.97 259.82,-648.78 293.75,-617.75 301.25,-610.89 310.88,-606.34 320.68,-603.35"/>
<polygon fill="#63b8ff" stroke="#63b8ff" points="321.4,-606.77 330.24,-600.94 319.69,-599.99 321.4,-606.77"/>
</a>
</g>
</g>
<!-- Node350 -->
<g id="Node000350" class="node">
<title>Node350</title>
<g id="a_Node000350"><a xlink:href="m__profile_8c.html#ab73797729c3c2878fcbc0e8eb3a3b1d1" target="_top" xlink:title=" ">
<polygon fill="#fff0f0" stroke="red" points="409.88,-686.12 326.38,-686.12 326.38,-665.38 409.88,-665.38 409.88,-686.12"/>
<text xml:space="preserve" text-anchor="middle" x="368.12" y="-672.62" font-family="Helvetica,sans-Serif" font-size="10.00">init_m_profile</text>
</a>
</g>
</g>
<!-- Node291&#45;&gt;Node350 -->
<g id="edge20_Node000291_Node000350" class="edge">
<title>Node291&#45;&gt;Node350</title>
<g id="a_edge20_Node000291_Node000350"><a xlink:title=" ">
<path fill="none" stroke="#63b8ff" d="M229.44,-723.88C238.97,-721.27 248.77,-718.22 257.75,-714.75 274.63,-708.23 276.92,-702.39 293.75,-695.75 300.6,-693.05 307.95,-690.57 315.25,-688.35"/>
<polygon fill="#63b8ff" stroke="#63b8ff" points="316.14,-691.74 324.78,-685.61 314.2,-685.01 316.14,-691.74"/>
</a>
</g>
</g>
<!-- Node353 -->
<g id="Node000353" class="node">
<title>Node353</title>
<g id="a_Node000353"><a xlink:href="m__files_8c.html#aaedbe054d0c35b3489a1efd8231ba33f" target="_top" xlink:title=" ">
<polygon fill="#fff0f0" stroke="red" points="430.12,-647.12 306.12,-647.12 306.12,-626.38 430.12,-626.38 430.12,-647.12"/>
<text xml:space="preserve" text-anchor="middle" x="368.12" y="-633.62" font-family="Helvetica,sans-Serif" font-size="10.00">read_profile_from_file</text>
</a>
</g>
</g>
<!-- Node291&#45;&gt;Node353 -->
<g id="edge22_Node000291_Node000353" class="edge">
<title>Node291&#45;&gt;Node353</title>
<g id="a_edge22_Node000291_Node000353"><a xlink:title=" ">
<path fill="none" stroke="#63b8ff" d="M235.86,-725.96C243.66,-723.19 251.22,-719.54 257.75,-714.75 282.21,-696.79 269.43,-674.89 293.75,-656.75 295.77,-655.24 297.9,-653.85 300.11,-652.56"/>
<polygon fill="#63b8ff" stroke="#63b8ff" points="301.44,-655.8 308.85,-648.23 298.34,-649.53 301.44,-655.8"/>
</a>
</g>
</g>
<!-- Node292&#45;&gt;Node166 -->
<g id="edge18_Node000292_Node000166" class="edge">
<title>Node292&#45;&gt;Node166</title>
<g id="a_edge18_Node000292_Node000166"><a xlink:title=" ">
<path fill="none" stroke="#63b8ff" d="M423.67,-569.51C430.29,-571.98 436.74,-575.02 442.5,-578.75 483.16,-605.05 515.48,-653.11 531.62,-680.4"/>
<polygon fill="#63b8ff" stroke="#63b8ff" points="528.41,-681.83 536.42,-688.76 534.48,-678.34 528.41,-681.83"/>
</a>
</g>
</g>
<!-- Node355&#45;&gt;Node168 -->
<g id="edge25_Node000355_Node000168" class="edge">
<title>Node355&#45;&gt;Node168</title>
<g id="a_edge25_Node000355_Node000168"><a xlink:title=" ">
<path fill="none" stroke="#63b8ff" d="M243.53,-766.95C260.58,-765.13 279.11,-763.15 296.5,-761.29"/>
<polygon fill="#63b8ff" stroke="#63b8ff" points="296.67,-764.8 306.24,-760.25 295.93,-757.83 296.67,-764.8"/>
</a>
</g>
</g>
<!-- Node356 -->
<g id="Node000356" class="node">
<title>Node356</title>
<g id="a_Node000356"><a xlink:href="m__sequence__view_8c.html#a4fa55191d58cc7d7c322e295288cabf4" target="_top" xlink:title=" ">
<polygon fill="#fff0f0" stroke="red" points="441,-725.12 295.25,-725.12 295.25,-704.38 441,-704.38 441,-725.12"/>
<text xml:space="preserve" text-anchor="middle" x="368.12" y="-711.62" font-family="Helvetica,sans-Serif" font-size="10.00">create_sequence_view_for</text>
</a>
</g>
</g>
<!-- Node355&#45;&gt;Node356 -->
<g id="edge24_Node000355_Node000356" class="edge">
<title>Node355&#45;&gt;Node356</title>
<g id="a_edge24_Node000355_Node000356"><a xlink:title=" ">
<path fill="none" stroke="#63b8ff" d="M229.44,-762.88C238.97,-760.27 248.77,-757.22 257.75,-753.75 274.63,-747.23 276.92,-741.39 293.75,-734.75 299.06,-732.65 304.68,-730.69 310.34,-728.89"/>
<polygon fill="#63b8ff" stroke="#63b8ff" points="311.21,-732.28 319.76,-726.03 309.18,-725.58 311.21,-732.28"/>
</a>
</g>
</g>
<!-- Node504&#45;&gt;Node479 -->
<g id="edge43_Node000504_Node000479" class="edge">
<title>Node504&#45;&gt;Node479</title>
<g id="a_edge43_Node000504_Node000479"><a xlink:title=" ">
<path fill="none" stroke="#63b8ff" d="M226.16,-144.45C257.43,-147.62 298.25,-151.76 327.91,-154.77"/>
<polygon fill="#63b8ff" stroke="#63b8ff" points="327.28,-158.22 337.58,-155.75 327.98,-151.26 327.28,-158.22"/>
</a>
</g>
</g>
</g>
</svg>
