<?xml version="1.0" encoding="UTF-8" standalone="no"?>
<!DOCTYPE svg PUBLIC "-//W3C//DTD SVG 1.1//EN"
 "http://www.w3.org/Graphics/SVG/1.1/DTD/svg11.dtd">
<!-- Generated by graphviz version 13.1.2 (20250808.2320)
 -->
<!-- Title: configure_menu_page Pages: 1 -->
<!--zoomable 185 -->

<svg id="main" version="1.1" xmlns="http://www.w3.org/2000/svg" xmlns:xlink="http://www.w3.org/1999/xlink" xml:space="preserve" onload="init(evt)">

<style type="text/css"><![CDATA[
.node, .edge {opacity: 0.7;}
.node.selected, .edge.selected {opacity: 1;}
.edge:hover path { stroke: red; }
.edge:hover polygon { stroke: red; fill: red; }
]]></style>

<defs>
  <circle id="rim" cx="0" cy="0" r="7"/>
  <circle id="rim2" cx="0" cy="0" r="3.5"/>
  <g id="zoomPlus">
    <use xlink:href="#rim" fill="#404040"><set attributeName="fill" to="#808080" begin="zoomplus.mouseover" end="zoomplus.mouseout"/></use>
    <path d="M-4,0h8M0,-4v8" fill="none" stroke="white" stroke-width="1.5" pointer-events="none"/>
  </g>
  <g id="zoomMin">
    <use xlink:href="#rim" fill="#404040"><set attributeName="fill" to="#808080" begin="zoomminus.mouseover" end="zoomminus.mouseout"/></use>
    <path d="M-4,0h8" fill="none" stroke="white" stroke-width="1.5" pointer-events="none"/>
  </g>
  <g id="arrowUp" transform="translate(30 24)">
    <use xlink:href="#rim"/>
    <path pointer-events="none" fill="none" stroke="white" stroke-width="1.5" d="M0,-3.0v7 M-2.5,-0.5L0,-3.0L2.5,-0.5"/>
  </g>
  <g id="arrowRight" transform="rotate(90) translate(36 -43)">
    <use xlink:href="#rim"/>
    <path pointer-events="none" fill="none" stroke="white" stroke-width="1.5" d="M0,-3.0v7 M-2.5,-0.5L0,-3.0L2.5,-0.5"/>
  </g>
  <g id="arrowDown" transform="rotate(180) translate(-30 -48)">
    <use xlink:href="#rim"/>
    <path pointer-events="none" fill="none" stroke="white" stroke-width="1.5" d="M0,-3.0v7 M-2.5,-0.5L0,-3.0L2.5,-0.5"/>
  </g>
  <g id="arrowLeft" transform="rotate(270) translate(-36 17)">
    <use xlink:href="#rim"/>
    <path pointer-events="none" fill="none" stroke="white" stroke-width="1.5" d="M0,-3.0v7 M-2.5,-0.5L0,-3.0L2.5,-0.5"/>
  </g>
  <g id="resetDef">
    <use xlink:href="#rim2" fill="#404040"><set attributeName="fill" to="#808080" begin="reset.mouseover" end="reset.mouseout"/></use>
  </g>
</defs>
<script type="application/ecmascript">
var viewWidth = 650;
var viewHeight = 185;
var sectionId = 'dynsection-3';
</script>
<script type="application/ecmascript" xlink:href="svg.min.js"/>
<svg id="graph" class="graph">
<g id="viewport">
<title>configure_menu_page</title>
<!-- Node1 -->
<g id="Node000001" class="node">
<title>Node1</title>
<g id="a_Node000001"><a xlink:title=" ">
<polygon fill="#999999" stroke="#666666" points="124,-137.75 0,-137.75 0,-117 124,-117 124,-137.75"/>
<text xml:space="preserve" text-anchor="middle" x="62" y="-124.25" font-family="Helvetica,sans-Serif" font-size="10.00">configure_menu_page</text>
</a>
</g>
</g>
<!-- Node1&#45;&gt;Node1 -->
<g id="edge3_Node000001_Node000001" class="edge">
<title>Node1&#45;&gt;Node1</title>
<g id="a_edge3_Node000001_Node000001"><a xlink:title=" ">
<path fill="none" stroke="#63b8ff" d="M34.71,-138.15C23.79,-146.81 32.89,-155.75 62,-155.75 77.92,-155.75 87.85,-153.08 91.8,-149.24"/>
<polygon fill="#63b8ff" stroke="#63b8ff" points="95.25,-148.6 89.63,-139.62 88.42,-150.15 95.25,-148.6"/>
</a>
</g>
</g>
<!-- Node2 -->
<g id="Node000002" class="node">
<title>Node2</title>
<g id="a_Node000002"><a xlink:href="m__menu_8c.html#a48be4497f39072ca889cb814c71e9f2f" target="_top" xlink:title=" ">
<polygon fill="white" stroke="#666666" points="292.62,-176.75 170.12,-176.75 170.12,-156 292.62,-156 292.62,-176.75"/>
<text xml:space="preserve" text-anchor="middle" x="231.38" y="-163.25" font-family="Helvetica,sans-Serif" font-size="10.00">configure_menu_item</text>
</a>
</g>
</g>
<!-- Node1&#45;&gt;Node2 -->
<g id="edge1_Node000001_Node000002" class="edge">
<title>Node1&#45;&gt;Node2</title>
<g id="a_edge1_Node000001_Node000002"><a xlink:title=" ">
<path fill="none" stroke="#63b8ff" d="M109.62,-138.24C129.13,-142.78 152,-148.11 172.56,-152.9"/>
<polygon fill="#63b8ff" stroke="#63b8ff" points="171.7,-156.3 182.24,-155.16 173.29,-149.48 171.7,-156.3"/>
</a>
</g>
</g>
<!-- Node4 -->
<g id="Node000004" class="node">
<title>Node4</title>
<g id="a_Node000004"><a xlink:href="m__ui_8c.html#ae696464ca3c77e7c324af00fb8292c2a" target="_top" xlink:title=" ">
<polygon fill="white" stroke="#666666" points="265.62,-137.75 197.12,-137.75 197.12,-117 265.62,-117 265.62,-137.75"/>
<text xml:space="preserve" text-anchor="middle" x="231.38" y="-124.25" font-family="Helvetica,sans-Serif" font-size="10.00">new_panel</text>
</a>
</g>
</g>
<!-- Node1&#45;&gt;Node4 -->
<g id="edge4_Node000001_Node000004" class="edge">
<title>Node1&#45;&gt;Node4</title>
<g id="a_edge4_Node000001_Node000004"><a xlink:title=" ">
<path fill="none" stroke="#63b8ff" d="M124.37,-127.38C144.52,-127.38 166.53,-127.38 185.25,-127.38"/>
<polygon fill="#63b8ff" stroke="#63b8ff" points="185.21,-130.88 195.21,-127.38 185.21,-123.88 185.21,-130.88"/>
</a>
</g>
</g>
<!-- Node6 -->
<g id="Node000006" class="node">
<title>Node6</title>
<g id="a_Node000006"><a xlink:href="m__ui_8c.html#a1b27d83a1ea548b981c47e9a80bf03ae" target="_top" xlink:title=" ">
<polygon fill="white" stroke="#666666" points="302.75,-79.75 160,-79.75 160,-59 302.75,-59 302.75,-79.75"/>
<text xml:space="preserve" text-anchor="middle" x="231.38" y="-66.25" font-family="Helvetica,sans-Serif" font-size="10.00">ui_page_add_back_button</text>
</a>
</g>
</g>
<!-- Node1&#45;&gt;Node6 -->
<g id="edge6_Node000001_Node000006" class="edge">
<title>Node1&#45;&gt;Node6</title>
<g id="a_edge6_Node000001_Node000006"><a xlink:title=" ">
<path fill="none" stroke="#63b8ff" d="M94.09,-116.6C120.66,-107.39 159.14,-94.06 188.43,-83.91"/>
<polygon fill="#63b8ff" stroke="#63b8ff" points="189.44,-87.27 197.74,-80.68 187.14,-80.65 189.44,-87.27"/>
</a>
</g>
</g>
<!-- Node3 -->
<g id="Node000003" class="node">
<title>Node3</title>
<g id="a_Node000003"><a xlink:href="m__ui_8c.html#a836b0eb3d4ebeda48927c9e0d5f238f5" target="_top" xlink:title=" ">
<polygon fill="white" stroke="#666666" points="453.38,-176.75 348.12,-176.75 348.12,-156 453.38,-156 453.38,-176.75"/>
<text xml:space="preserve" text-anchor="middle" x="400.75" y="-163.25" font-family="Helvetica,sans-Serif" font-size="10.00">configure_ui_page</text>
</a>
</g>
</g>
<!-- Node2&#45;&gt;Node3 -->
<g id="edge2_Node000002_Node000003" class="edge">
<title>Node2&#45;&gt;Node3</title>
<g id="a_edge2_Node000002_Node000003"><a xlink:title=" ">
<path fill="none" stroke="#63b8ff" d="M292.8,-166.38C306.99,-166.38 322.14,-166.38 336.45,-166.38"/>
<polygon fill="#63b8ff" stroke="#63b8ff" points="336.2,-169.88 346.2,-166.38 336.2,-162.88 336.2,-169.88"/>
</a>
</g>
</g>
<!-- Node5 -->
<g id="Node000005" class="node">
<title>Node5</title>
<g id="a_Node000005"><a xlink:href="m__ui_8c.html#ad0e581ea0af79380925697ed36c09e87" target="_top" xlink:title=" ">
<polygon fill="white" stroke="#666666" points="432.75,-137.75 368.75,-137.75 368.75,-117 432.75,-117 432.75,-137.75"/>
<text xml:space="preserve" text-anchor="middle" x="400.75" y="-124.25" font-family="Helvetica,sans-Serif" font-size="10.00">init_panel</text>
</a>
</g>
</g>
<!-- Node4&#45;&gt;Node5 -->
<g id="edge5_Node000004_Node000005" class="edge">
<title>Node4&#45;&gt;Node5</title>
<g id="a_edge5_Node000004_Node000005"><a xlink:title=" ">
<path fill="none" stroke="#63b8ff" d="M265.84,-127.38C292.09,-127.38 328.79,-127.38 357.13,-127.38"/>
<polygon fill="#63b8ff" stroke="#63b8ff" points="356.81,-130.88 366.81,-127.38 356.81,-123.88 356.81,-130.88"/>
</a>
</g>
</g>
<!-- Node7 -->
<g id="Node000007" class="node">
<title>Node7</title>
<g id="a_Node000007"><a xlink:href="m__button_8c.html#abe2023eec9ead06a26633852308e65d4" target="_top" xlink:title=" ">
<polygon fill="white" stroke="#666666" points="462.38,-98.75 339.12,-98.75 339.12,-78 462.38,-78 462.38,-98.75"/>
<text xml:space="preserve" text-anchor="middle" x="400.75" y="-85.25" font-family="Helvetica,sans-Serif" font-size="10.00">button_set_clicked_cb</text>
</a>
</g>
</g>
<!-- Node6&#45;&gt;Node7 -->
<g id="edge7_Node000006_Node000007" class="edge">
<title>Node6&#45;&gt;Node7</title>
<g id="a_edge7_Node000006_Node000007"><a xlink:title=" ">
<path fill="none" stroke="#63b8ff" d="M302.87,-77.38C311.01,-78.3 319.32,-79.24 327.48,-80.17"/>
<polygon fill="#63b8ff" stroke="#63b8ff" points="327.05,-83.64 337.38,-81.29 327.84,-76.69 327.05,-83.64"/>
</a>
</g>
</g>
<!-- Node8 -->
<g id="Node000008" class="node">
<title>Node8</title>
<g id="a_Node000008"><a xlink:href="m__ui_8c.html#af17d8912a520f607796e85d96467cc5a" target="_top" xlink:title=" ">
<polygon fill="white" stroke="#666666" points="462.75,-59.75 338.75,-59.75 338.75,-39 462.75,-39 462.75,-59.75"/>
<text xml:space="preserve" text-anchor="middle" x="400.75" y="-46.25" font-family="Helvetica,sans-Serif" font-size="10.00">enter_parent_page_cb</text>
</a>
</g>
</g>
<!-- Node6&#45;&gt;Node8 -->
<g id="edge8_Node000006_Node000008" class="edge">
<title>Node6&#45;&gt;Node8</title>
<g id="a_edge8_Node000006_Node000008"><a xlink:title=" ">
<path fill="none" stroke="#63b8ff" d="M302.87,-60.95C310.89,-59.99 319.07,-59.02 327.11,-58.05"/>
<polygon fill="#63b8ff" stroke="#63b8ff" points="327.34,-61.55 336.85,-56.89 326.51,-54.6 327.34,-61.55"/>
</a>
</g>
</g>
<!-- Node12 -->
<g id="Node000012" class="node">
<title>Node12</title>
<g id="a_Node000012"><a xlink:href="m__button_8c.html#a0a450528cdcddd6650fee0ae3cfc14d2" target="_top" xlink:title=" ">
<polygon fill="white" stroke="#666666" points="437.25,-20.75 364.25,-20.75 364.25,0 437.25,0 437.25,-20.75"/>
<text xml:space="preserve" text-anchor="middle" x="400.75" y="-7.25" font-family="Helvetica,sans-Serif" font-size="10.00">new_button</text>
</a>
</g>
</g>
<!-- Node6&#45;&gt;Node12 -->
<g id="edge10_Node000006_Node000012" class="edge">
<title>Node6&#45;&gt;Node12</title>
<g id="a_edge10_Node000006_Node000012"><a xlink:title=" ">
<path fill="none" stroke="#63b8ff" d="M261.17,-58.51C282.52,-50.53 312.36,-39.53 338.75,-30.38 344.14,-28.5 349.81,-26.58 355.44,-24.7"/>
<polygon fill="#63b8ff" stroke="#63b8ff" points="356.29,-28.11 364.68,-21.65 354.09,-21.46 356.29,-28.11"/>
</a>
</g>
</g>
<!-- Node9 -->
<g id="Node000009" class="node">
<title>Node9</title>
<g id="a_Node000009"><a xlink:href="m__ui_8c.html#ac3fd93d055094ed9bd458eb283af7c04" target="_top" xlink:title=" ">
<polygon fill="#fff0f0" stroke="red" points="641.5,-59.75 498.75,-59.75 498.75,-39 641.5,-39 641.5,-59.75"/>
<text xml:space="preserve" text-anchor="middle" x="570.12" y="-46.25" font-family="Helvetica,sans-Serif" font-size="10.00">enter_ui_page_backwards</text>
</a>
</g>
</g>
<!-- Node8&#45;&gt;Node9 -->
<g id="edge9_Node000008_Node000009" class="edge">
<title>Node8&#45;&gt;Node9</title>
<g id="a_edge9_Node000008_Node000009"><a xlink:title=" ">
<path fill="none" stroke="#63b8ff" d="M463.12,-49.38C470.92,-49.38 479,-49.38 487.06,-49.38"/>
<polygon fill="#63b8ff" stroke="#63b8ff" points="486.9,-52.88 496.9,-49.38 486.9,-45.88 486.9,-52.88"/>
</a>
</g>
</g>
<!-- Node13 -->
<g id="Node000013" class="node">
<title>Node13</title>
<g id="a_Node000013"><a xlink:href="m__button_8c.html#a258b9a4b93506db006c3e2cbe4483d45" target="_top" xlink:title=" ">
<polygon fill="white" stroke="#666666" points="604.38,-20.75 535.88,-20.75 535.88,0 604.38,0 604.38,-20.75"/>
<text xml:space="preserve" text-anchor="middle" x="570.12" y="-7.25" font-family="Helvetica,sans-Serif" font-size="10.00">init_button</text>
</a>
</g>
</g>
<!-- Node12&#45;&gt;Node13 -->
<g id="edge11_Node000012_Node000013" class="edge">
<title>Node12&#45;&gt;Node13</title>
<g id="a_edge11_Node000012_Node000013"><a xlink:title=" ">
<path fill="none" stroke="#63b8ff" d="M437.66,-10.38C463.04,-10.38 497.24,-10.38 524.4,-10.38"/>
<polygon fill="#63b8ff" stroke="#63b8ff" points="524.04,-13.88 534.04,-10.38 524.04,-6.88 524.04,-13.88"/>
</a>
</g>
</g>
</g>
</svg>

<g id="navigator" transform="translate(0 0)" fill="#404254">
  <rect fill="#f2f5e9" fill-opacity="0.5" stroke="#606060" stroke-width=".5" x="0" y="0" width="60" height="60"/>
  <use id="zoomplus" xlink:href="#zoomPlus" x="17" y="9" onmousedown="handleZoom(evt,'in')"/>
  <use id="zoomminus" xlink:href="#zoomMin" x="42" y="9" onmousedown="handleZoom(evt,'out')"/>
  <use id="reset" xlink:href="#resetDef" x="30" y="36" onmousedown="handleReset()"/>
   <use id="arrowup" xlink:href="#arrowUp" x="0" y="0" onmousedown="handlePan(0,-1)"/>
  <use id="arrowright" xlink:href="#arrowRight" x="0" y="0" onmousedown="handlePan(1,0)"/>
  <use id="arrowdown" xlink:href="#arrowDown" x="0" y="0" onmousedown="handlePan(0,1)"/>
  <use id="arrowleft" xlink:href="#arrowLeft" x="0" y="0" onmousedown="handlePan(-1,0)"/>
</g>
<svg viewBox="0 0 15 15" width="100%" height="30px" preserveAspectRatio="xMaxYMin meet">
 <g id="arrow_out" transform="scale(0.3 0.3)">
  <a xlink:href="m__menu_8h_ae56e3ae7177dc651911d432ebb245093_cgraph_org.svg" target="_base">
   <rect id="button" ry="5" rx="5" y="6" x="6" height="38" width="38"
        fill="#f2f5e9" fill-opacity="0.5" stroke="#606060" stroke-width="1.0"/>
   <path id="arrow"
     d="M 11.500037,31.436501 C 11.940474,20.09759 22.043105,11.32322 32.158766,21.979434 L 37.068811,17.246167 C 37.068811,17.246167 37.088388,32 37.088388,32 L 22.160133,31.978069 C 22.160133,31.978069 26.997745,27.140456 26.997745,27.140456 C 18.528582,18.264221 13.291696,25.230495 11.500037,31.436501 z"
     style="fill:#404040;"/>
  </a>
 </g>
</svg>

<style type='text/css'>
<![CDATA[
[data-mouse-over-selected='false'] { opacity: 0.7; }
[data-mouse-over-selected='true']  { opacity: 1.0; }
]]>
</style>
<script type="application/ecmascript"><![CDATA[
document.addEventListener('DOMContentLoaded', (event) => {
  highlightEdges();
  highlightAdjacentNodes();
});
]]></script>
</svg>
