<?xml version="1.0" encoding="UTF-8" standalone="no"?>
<!DOCTYPE svg PUBLIC "-//W3C//DTD SVG 1.1//EN"
 "http://www.w3.org/Graphics/SVG/1.1/DTD/svg11.dtd">
<!-- Generated by graphviz version 13.1.2 (20250808.2320)
 -->
<!-- Title: m_profile_remove_effect Pages: 1 -->
<svg width="593pt" height="80pt"
 viewBox="0.00 0.00 593.00 80.00" xmlns="http://www.w3.org/2000/svg" xmlns:xlink="http://www.w3.org/1999/xlink">
<g id="graph0" class="graph" transform="scale(1 1) rotate(0) translate(4 76.12)">
<title>m_profile_remove_effect</title>
<!-- Node1 -->
<g id="Node000001" class="node">
<title>Node1</title>
<g id="a_Node000001"><a xlink:title=" ">
<polygon fill="#999999" stroke="#666666" points="584.5,-49.12 445.5,-49.12 445.5,-28.38 584.5,-28.38 584.5,-49.12"/>
<text xml:space="preserve" text-anchor="middle" x="515" y="-35.62" font-family="Helvetica,sans-Serif" font-size="10.00">m_profile_remove_effect</text>
</a>
</g>
</g>
<!-- Node2 -->
<g id="Node000002" class="node">
<title>Node2</title>
<g id="a_Node000002"><a xlink:href="m__context_8c.html#ac5a3c8562ccbaa26401f91732f453d5b" target="_top" xlink:title=" ">
<polygon fill="white" stroke="#666666" points="408.38,-72.12 300.88,-72.12 300.88,-51.38 408.38,-51.38 408.38,-72.12"/>
<text xml:space="preserve" text-anchor="middle" x="354.62" y="-58.62" font-family="Helvetica,sans-Serif" font-size="10.00">cxt_remove_effect</text>
</a>
</g>
</g>
<!-- Node1&#45;&gt;Node2 -->
<g id="edge1_Node000001_Node000002" class="edge">
<title>Node1&#45;&gt;Node2</title>
<g id="a_edge1_Node000001_Node000002"><a xlink:title=" ">
<path fill="none" stroke="#63b8ff" d="M434.08,-50.36C425.41,-51.62 416.75,-52.87 408.52,-54.07"/>
<polygon fill="#63b8ff" stroke="#63b8ff" points="434.56,-53.82 443.96,-48.92 433.56,-46.9 434.56,-53.82"/>
</a>
</g>
</g>
<!-- Node3 -->
<g id="Node000003" class="node">
<title>Node3</title>
<g id="a_Node000003"><a xlink:href="m__profile__view_8c.html#a2b83bb92008a54500e2c61fa4611e357" target="_top" xlink:title=" ">
<polygon fill="white" stroke="#666666" points="409.5,-33.5 299.75,-33.5 299.75,0 409.5,0 409.5,-33.5"/>
<text xml:space="preserve" text-anchor="start" x="307.75" y="-20" font-family="Helvetica,sans-Serif" font-size="10.00">profile_view_effect</text>
<text xml:space="preserve" text-anchor="middle" x="354.62" y="-7.25" font-family="Helvetica,sans-Serif" font-size="10.00">_delete_cb</text>
</a>
</g>
</g>
<!-- Node1&#45;&gt;Node3 -->
<g id="edge2_Node000001_Node000003" class="edge">
<title>Node1&#45;&gt;Node3</title>
<g id="a_edge2_Node000001_Node000003"><a xlink:title=" ">
<path fill="none" stroke="#63b8ff" d="M434.26,-27.67C426.04,-26.53 417.82,-25.39 409.96,-24.3"/>
<polygon fill="#63b8ff" stroke="#63b8ff" points="433.57,-31.11 443.96,-29.02 434.53,-24.18 433.57,-31.11"/>
</a>
</g>
</g>
<!-- Node4 -->
<g id="Node000004" class="node">
<title>Node4</title>
<g id="a_Node000004"><a xlink:href="m__profile__view_8c.html#a4e6ae6bda3b4e35b8ce1c137624e2b1a" target="_top" xlink:title=" ">
<polygon fill="white" stroke="#666666" points="263.75,-27.12 166.75,-27.12 166.75,-6.38 263.75,-6.38 263.75,-27.12"/>
<text xml:space="preserve" text-anchor="middle" x="215.25" y="-13.62" font-family="Helvetica,sans-Serif" font-size="10.00">init_profile_view</text>
</a>
</g>
</g>
<!-- Node3&#45;&gt;Node4 -->
<g id="edge3_Node000003_Node000004" class="edge">
<title>Node3&#45;&gt;Node4</title>
<g id="a_edge3_Node000003_Node000004"><a xlink:title=" ">
<path fill="none" stroke="#63b8ff" d="M287.96,-16.75C279.85,-16.75 271.69,-16.75 263.92,-16.75"/>
<polygon fill="#63b8ff" stroke="#63b8ff" points="287.82,-20.25 297.82,-16.75 287.82,-13.25 287.82,-20.25"/>
</a>
</g>
</g>
<!-- Node5 -->
<g id="Node000005" class="node">
<title>Node5</title>
<g id="a_Node000005"><a xlink:href="m__profile__view_8c.html#aa40a3918b18bbfa3df5aa489d947258a" target="_top" xlink:title=" ">
<polygon fill="#fff0f0" stroke="red" points="130.75,-27.12 0,-27.12 0,-6.38 130.75,-6.38 130.75,-27.12"/>
<text xml:space="preserve" text-anchor="middle" x="65.38" y="-13.62" font-family="Helvetica,sans-Serif" font-size="10.00">create_profile_view_for</text>
</a>
</g>
</g>
<!-- Node4&#45;&gt;Node5 -->
<g id="edge4_Node000004_Node000005" class="edge">
<title>Node4&#45;&gt;Node5</title>
<g id="a_edge4_Node000004_Node000005"><a xlink:title=" ">
<path fill="none" stroke="#63b8ff" d="M155.25,-16.75C147.32,-16.75 139.16,-16.75 131.14,-16.75"/>
<polygon fill="#63b8ff" stroke="#63b8ff" points="155.13,-20.25 165.13,-16.75 155.13,-13.25 155.13,-20.25"/>
</a>
</g>
</g>
</g>
</svg>
