<?xml version="1.0" encoding="UTF-8" standalone="no"?>
<!DOCTYPE svg PUBLIC "-//W3C//DTD SVG 1.1//EN"
 "http://www.w3.org/Graphics/SVG/1.1/DTD/svg11.dtd">
<!-- Generated by graphviz version 13.1.2 (20250808.2320)
 -->
<!-- Title: profile_view_append_transformer Pages: 1 -->
<svg width="599pt" height="42pt"
 viewBox="0.00 0.00 599.00 42.00" xmlns="http://www.w3.org/2000/svg" xmlns:xlink="http://www.w3.org/1999/xlink">
<g id="graph0" class="graph" transform="scale(1 1) rotate(0) translate(4 37.5)">
<title>profile_view_append_transformer</title>
<!-- Node1 -->
<g id="Node000001" class="node">
<title>Node1</title>
<g id="a_Node000001"><a xlink:title=" ">
<polygon fill="#999999" stroke="#666666" points="590.5,-33.5 473.25,-33.5 473.25,0 590.5,0 590.5,-33.5"/>
<text xml:space="preserve" text-anchor="start" x="481.25" y="-20" font-family="Helvetica,sans-Serif" font-size="10.00">profile_view_append</text>
<text xml:space="preserve" text-anchor="middle" x="531.88" y="-7.25" font-family="Helvetica,sans-Serif" font-size="10.00">_transformer</text>
</a>
</g>
</g>
<!-- Node2 -->
<g id="Node000002" class="node">
<title>Node2</title>
<g id="a_Node000002"><a xlink:href="m__transformer__select_8c.html#a8a60316cc5a79aaf1c656b9523dd54b1" target="_top" xlink:title=" ">
<polygon fill="white" stroke="#666666" points="437.25,-33.5 311.75,-33.5 311.75,0 437.25,0 437.25,-33.5"/>
<text xml:space="preserve" text-anchor="start" x="319.75" y="-20" font-family="Helvetica,sans-Serif" font-size="10.00">add_transformer_from</text>
<text xml:space="preserve" text-anchor="middle" x="374.5" y="-7.25" font-family="Helvetica,sans-Serif" font-size="10.00">_menu_eff</text>
</a>
</g>
</g>
<!-- Node1&#45;&gt;Node2 -->
<g id="edge1_Node000001_Node000002" class="edge">
<title>Node1&#45;&gt;Node2</title>
<g id="a_edge1_Node000001_Node000002"><a xlink:title=" ">
<path fill="none" stroke="#63b8ff" d="M461.75,-16.75C453.7,-16.75 445.52,-16.75 437.57,-16.75"/>
<polygon fill="#63b8ff" stroke="#63b8ff" points="461.51,-20.25 471.51,-16.75 461.51,-13.25 461.51,-20.25"/>
</a>
</g>
</g>
<!-- Node3 -->
<g id="Node000003" class="node">
<title>Node3</title>
<g id="a_Node000003"><a xlink:href="m__transformer__select_8c.html#a26bc01d09200b28d05f5786f45a0cc59" target="_top" xlink:title=" ">
<polygon fill="white" stroke="#666666" points="275.75,-33.5 145.75,-33.5 145.75,0 275.75,0 275.75,-33.5"/>
<text xml:space="preserve" text-anchor="start" x="153.75" y="-20" font-family="Helvetica,sans-Serif" font-size="10.00">create_transformer</text>
<text xml:space="preserve" text-anchor="middle" x="210.75" y="-7.25" font-family="Helvetica,sans-Serif" font-size="10.00">_selector_button_ui_eff</text>
</a>
</g>
</g>
<!-- Node2&#45;&gt;Node3 -->
<g id="edge2_Node000002_Node000003" class="edge">
<title>Node2&#45;&gt;Node3</title>
<g id="a_edge2_Node000002_Node000003"><a xlink:title=" ">
<path fill="none" stroke="#63b8ff" d="M300.16,-16.75C292.12,-16.75 283.99,-16.75 276.07,-16.75"/>
<polygon fill="#63b8ff" stroke="#63b8ff" points="299.91,-20.25 309.91,-16.75 299.91,-13.25 299.91,-20.25"/>
</a>
</g>
</g>
<!-- Node4 -->
<g id="Node000004" class="node">
<title>Node4</title>
<g id="a_Node000004"><a xlink:href="m__transformer__select_8c.html#a190405b84e930df98a00d85575b6bc09" target="_top" xlink:title=" ">
<polygon fill="#fff0f0" stroke="red" points="109.75,-33.5 0,-33.5 0,0 109.75,0 109.75,-33.5"/>
<text xml:space="preserve" text-anchor="start" x="8" y="-20" font-family="Helvetica,sans-Serif" font-size="10.00">create_transformer</text>
<text xml:space="preserve" text-anchor="middle" x="54.88" y="-7.25" font-family="Helvetica,sans-Serif" font-size="10.00">_selector_ui_eff</text>
</a>
</g>
</g>
<!-- Node3&#45;&gt;Node4 -->
<g id="edge3_Node000003_Node000004" class="edge">
<title>Node3&#45;&gt;Node4</title>
<g id="a_edge3_Node000003_Node000004"><a xlink:title=" ">
<path fill="none" stroke="#63b8ff" d="M134.06,-16.75C126.02,-16.75 117.96,-16.75 110.23,-16.75"/>
<polygon fill="#63b8ff" stroke="#63b8ff" points="133.87,-20.25 143.87,-16.75 133.87,-13.25 133.87,-20.25"/>
</a>
</g>
</g>
</g>
</svg>
