<?xml version="1.0" encoding="UTF-8" standalone="no"?>
<!DOCTYPE svg PUBLIC "-//W3C//DTD SVG 1.1//EN"
 "http://www.w3.org/Graphics/SVG/1.1/DTD/svg11.dtd">
<!-- Generated by graphviz version 13.1.2 (20250808.2320)
 -->
<!-- Title: m_profile_if_active_update_fpga Pages: 1 -->
<!--zoomable 274 -->

<svg id="main" version="1.1" xmlns="http://www.w3.org/2000/svg" xmlns:xlink="http://www.w3.org/1999/xlink" xml:space="preserve" onload="init(evt)">

<style type="text/css"><![CDATA[
.node, .edge {opacity: 0.7;}
.node.selected, .edge.selected {opacity: 1;}
.edge:hover path { stroke: red; }
.edge:hover polygon { stroke: red; fill: red; }
]]></style>

<defs>
  <circle id="rim" cx="0" cy="0" r="7"/>
  <circle id="rim2" cx="0" cy="0" r="3.5"/>
  <g id="zoomPlus">
    <use xlink:href="#rim" fill="#404040"><set attributeName="fill" to="#808080" begin="zoomplus.mouseover" end="zoomplus.mouseout"/></use>
    <path d="M-4,0h8M0,-4v8" fill="none" stroke="white" stroke-width="1.5" pointer-events="none"/>
  </g>
  <g id="zoomMin">
    <use xlink:href="#rim" fill="#404040"><set attributeName="fill" to="#808080" begin="zoomminus.mouseover" end="zoomminus.mouseout"/></use>
    <path d="M-4,0h8" fill="none" stroke="white" stroke-width="1.5" pointer-events="none"/>
  </g>
  <g id="arrowUp" transform="translate(30 24)">
    <use xlink:href="#rim"/>
    <path pointer-events="none" fill="none" stroke="white" stroke-width="1.5" d="M0,-3.0v7 M-2.5,-0.5L0,-3.0L2.5,-0.5"/>
  </g>
  <g id="arrowRight" transform="rotate(90) translate(36 -43)">
    <use xlink:href="#rim"/>
    <path pointer-events="none" fill="none" stroke="white" stroke-width="1.5" d="M0,-3.0v7 M-2.5,-0.5L0,-3.0L2.5,-0.5"/>
  </g>
  <g id="arrowDown" transform="rotate(180) translate(-30 -48)">
    <use xlink:href="#rim"/>
    <path pointer-events="none" fill="none" stroke="white" stroke-width="1.5" d="M0,-3.0v7 M-2.5,-0.5L0,-3.0L2.5,-0.5"/>
  </g>
  <g id="arrowLeft" transform="rotate(270) translate(-36 17)">
    <use xlink:href="#rim"/>
    <path pointer-events="none" fill="none" stroke="white" stroke-width="1.5" d="M0,-3.0v7 M-2.5,-0.5L0,-3.0L2.5,-0.5"/>
  </g>
  <g id="resetDef">
    <use xlink:href="#rim2" fill="#404040"><set attributeName="fill" to="#808080" begin="reset.mouseover" end="reset.mouseout"/></use>
  </g>
</defs>
<script type="application/ecmascript">
var viewWidth = 627;
var viewHeight = 274;
var sectionId = 'dynsection-19';
</script>
<script type="application/ecmascript" xlink:href="svg.min.js"/>
<svg id="graph" class="graph">
<g id="viewport">
<title>m_profile_if_active_update_fpga</title>
<!-- Node1 -->
<g id="Node000001" class="node">
<title>Node1</title>
<g id="a_Node000001"><a xlink:title=" ">
<polygon fill="#999999" stroke="#666666" points="109.75,-227.5 0,-227.5 0,-194 109.75,-194 109.75,-227.5"/>
<text xml:space="preserve" text-anchor="start" x="8" y="-214" font-family="Helvetica,sans-Serif" font-size="10.00">m_profile_if_active</text>
<text xml:space="preserve" text-anchor="middle" x="54.88" y="-201.25" font-family="Helvetica,sans-Serif" font-size="10.00">_update_fpga</text>
</a>
</g>
</g>
<!-- Node2 -->
<g id="Node000002" class="node">
<title>Node2</title>
<g id="a_Node000002"><a xlink:href="m__profile_8c.html#afb4661b1e69513d4087f5e27ec776d51" target="_top" xlink:title=" ">
<polygon fill="white" stroke="#666666" points="281.75,-221.12 145.75,-221.12 145.75,-200.38 281.75,-200.38 281.75,-221.12"/>
<text xml:space="preserve" text-anchor="middle" x="213.75" y="-207.62" font-family="Helvetica,sans-Serif" font-size="10.00">m_profile_program_fpga</text>
</a>
</g>
</g>
<!-- Node1&#45;&gt;Node2 -->
<g id="edge1_Node000001_Node000002" class="edge">
<title>Node1&#45;&gt;Node2</title>
<g id="a_edge1_Node000001_Node000002"><a xlink:title=" ">
<path fill="none" stroke="#63b8ff" d="M109.86,-210.75C117.63,-210.75 125.76,-210.75 133.89,-210.75"/>
<polygon fill="#63b8ff" stroke="#63b8ff" points="133.84,-214.25 143.84,-210.75 133.84,-207.25 133.84,-214.25"/>
</a>
</g>
</g>
<!-- Node3 -->
<g id="Node000003" class="node">
<title>Node3</title>
<g id="a_Node000003"><a xlink:href="m__error__codes_8c.html#a5298df5c7af3a6aac90c055a615b171a" target="_top" xlink:title=" ">
<polygon fill="white" stroke="#666666" points="619,-266.12 488.25,-266.12 488.25,-245.38 619,-245.38 619,-266.12"/>
<text xml:space="preserve" text-anchor="middle" x="553.62" y="-252.62" font-family="Helvetica,sans-Serif" font-size="10.00">m_error_code_to_string</text>
</a>
</g>
</g>
<!-- Node2&#45;&gt;Node3 -->
<g id="edge2_Node000002_Node000003" class="edge">
<title>Node2&#45;&gt;Node3</title>
<g id="a_edge2_Node000002_Node000003"><a xlink:title=" ">
<path fill="none" stroke="#63b8ff" d="M251.14,-221.51C270.72,-226.9 295.37,-233.05 317.75,-236.75 370.4,-245.46 430.38,-250.23 476.55,-252.81"/>
<polygon fill="#63b8ff" stroke="#63b8ff" points="476.29,-256.3 486.46,-253.34 476.66,-249.31 476.29,-256.3"/>
</a>
</g>
</g>
<!-- Node4 -->
<g id="Node000004" class="node">
<title>Node4</title>
<g id="a_Node000004"><a xlink:href="m__fpga__comms_8c.html#a190f9d5003917f8a04f9cf4340145752" target="_top" xlink:title=" ">
<polygon fill="white" stroke="#666666" points="452.25,-227.5 317.75,-227.5 317.75,-194 452.25,-194 452.25,-227.5"/>
<text xml:space="preserve" text-anchor="start" x="325.75" y="-214" font-family="Helvetica,sans-Serif" font-size="10.00">m_fpga_queue_program</text>
<text xml:space="preserve" text-anchor="middle" x="385" y="-201.25" font-family="Helvetica,sans-Serif" font-size="10.00">_batch</text>
</a>
</g>
</g>
<!-- Node2&#45;&gt;Node4 -->
<g id="edge3_Node000002_Node000004" class="edge">
<title>Node2&#45;&gt;Node4</title>
<g id="a_edge3_Node000002_Node000004"><a xlink:title=" ">
<path fill="none" stroke="#63b8ff" d="M282.13,-210.75C290.02,-210.75 298.13,-210.75 306.15,-210.75"/>
<polygon fill="#63b8ff" stroke="#63b8ff" points="305.89,-214.25 315.89,-210.75 305.89,-207.25 305.89,-214.25"/>
</a>
</g>
</g>
<!-- Node5 -->
<g id="Node000005" class="node">
<title>Node5</title>
<g id="a_Node000005"><a xlink:href="m__pipeline_8c.html#a34ed6a235a826d96b4e3282b17865323" target="_top" xlink:title=" ">
<polygon fill="white" stroke="#666666" points="451.5,-175.5 318.5,-175.5 318.5,-142 451.5,-142 451.5,-175.5"/>
<text xml:space="preserve" text-anchor="start" x="326.5" y="-162" font-family="Helvetica,sans-Serif" font-size="10.00">m_pipeline_create_fpga</text>
<text xml:space="preserve" text-anchor="middle" x="385" y="-149.25" font-family="Helvetica,sans-Serif" font-size="10.00">_transfer_batch</text>
</a>
</g>
</g>
<!-- Node2&#45;&gt;Node5 -->
<g id="edge4_Node000002_Node000005" class="edge">
<title>Node2&#45;&gt;Node5</title>
<g id="a_edge4_Node000002_Node000005"><a xlink:title=" ">
<path fill="none" stroke="#63b8ff" d="M249.82,-199.98C269.29,-193.99 294.18,-186.35 317.21,-179.27"/>
<polygon fill="#63b8ff" stroke="#63b8ff" points="318.01,-182.69 326.54,-176.4 315.96,-175.99 318.01,-182.69"/>
</a>
</g>
</g>
<!-- Node5&#45;&gt;Node3 -->
<g id="edge6_Node000005_Node000003" class="edge">
<title>Node5&#45;&gt;Node3</title>
<g id="a_edge6_Node000005_Node000003"><a xlink:title=" ">
<path fill="none" stroke="#63b8ff" d="M438.62,-175.95C443.45,-178.53 448.08,-181.45 452.25,-184.75 474.29,-202.2 465.47,-220.28 488.25,-236.75 489.81,-237.88 491.43,-238.94 493.11,-239.94"/>
<polygon fill="#63b8ff" stroke="#63b8ff" points="491.31,-242.95 501.81,-244.31 494.45,-236.69 491.31,-242.95"/>
</a>
</g>
</g>
<!-- Node6 -->
<g id="Node000006" class="node">
<title>Node6</title>
<g id="a_Node000006"><a xlink:href="m__resource_8c.html#a5b4a187a1b89a79d8486f07578efdc1e" target="_top" xlink:title=" ">
<polygon fill="white" stroke="#666666" points="617.88,-227.5 489.38,-227.5 489.38,-194 617.88,-194 617.88,-227.5"/>
<text xml:space="preserve" text-anchor="start" x="497.38" y="-214" font-family="Helvetica,sans-Serif" font-size="10.00">empty_m_eff_resource</text>
<text xml:space="preserve" text-anchor="middle" x="553.62" y="-201.25" font-family="Helvetica,sans-Serif" font-size="10.00">_report</text>
</a>
</g>
</g>
<!-- Node5&#45;&gt;Node6 -->
<g id="edge5_Node000005_Node000006" class="edge">
<title>Node5&#45;&gt;Node6</title>
<g id="a_edge5_Node000005_Node000006"><a xlink:title=" ">
<path fill="none" stroke="#63b8ff" d="M441.02,-175.92C455.59,-180.47 471.47,-185.42 486.56,-190.13"/>
<polygon fill="#63b8ff" stroke="#63b8ff" points="485.34,-193.42 495.93,-193.06 487.43,-186.74 485.34,-193.42"/>
</a>
</g>
</g>
<!-- Node7 -->
<g id="Node000007" class="node">
<title>Node7</title>
<g id="a_Node000007"><a xlink:href="m__fpga__io_8c.html#a3e6e7ed1d51243448b55471969a93aa1" target="_top" xlink:title=" ">
<polygon fill="white" stroke="#666666" points="616.75,-176.12 490.5,-176.12 490.5,-155.38 616.75,-155.38 616.75,-176.12"/>
<text xml:space="preserve" text-anchor="middle" x="553.62" y="-162.62" font-family="Helvetica,sans-Serif" font-size="10.00">m_fpga_batch_append</text>
</a>
</g>
</g>
<!-- Node5&#45;&gt;Node7 -->
<g id="edge7_Node000005_Node000007" class="edge">
<title>Node5&#45;&gt;Node7</title>
<g id="a_edge7_Node000005_Node000007"><a xlink:title=" ">
<path fill="none" stroke="#63b8ff" d="M451.85,-161.52C460.75,-161.89 469.91,-162.28 478.93,-162.65"/>
<polygon fill="#63b8ff" stroke="#63b8ff" points="478.59,-166.14 488.72,-163.07 478.88,-159.15 478.59,-166.14"/>
</a>
</g>
</g>
<!-- Node8 -->
<g id="Node000008" class="node">
<title>Node8</title>
<g id="a_Node000008"><a xlink:href="m__fpga__encoding_8c.html#a9f93bed198f8e2ca16cb30fef59e6f8d" target="_top" xlink:title=" ">
<polygon fill="#fff0f0" stroke="red" points="616.75,-137.5 490.5,-137.5 490.5,-104 616.75,-104 616.75,-137.5"/>
<text xml:space="preserve" text-anchor="start" x="498.5" y="-124" font-family="Helvetica,sans-Serif" font-size="10.00">m_fpga_batch_append</text>
<text xml:space="preserve" text-anchor="middle" x="553.62" y="-111.25" font-family="Helvetica,sans-Serif" font-size="10.00">_effects</text>
</a>
</g>
</g>
<!-- Node5&#45;&gt;Node8 -->
<g id="edge8_Node000005_Node000008" class="edge">
<title>Node5&#45;&gt;Node8</title>
<g id="a_edge8_Node000005_Node000008"><a xlink:title=" ">
<path fill="none" stroke="#63b8ff" d="M451.85,-143.73C460.84,-141.68 470.12,-139.57 479.23,-137.49"/>
<polygon fill="#63b8ff" stroke="#63b8ff" points="479.79,-140.95 488.76,-135.31 478.23,-134.13 479.79,-140.95"/>
</a>
</g>
</g>
<!-- Node28 -->
<g id="Node000028" class="node">
<title>Node28</title>
<g id="a_Node000028"><a xlink:href="m__fpga__io_8c.html#a056288c727967e8014243df20815c1a1" target="_top" xlink:title=" ">
<polygon fill="white" stroke="#666666" points="614.12,-85.5 493.12,-85.5 493.12,-52 614.12,-52 614.12,-85.5"/>
<text xml:space="preserve" text-anchor="start" x="501.12" y="-72" font-family="Helvetica,sans-Serif" font-size="10.00">m_free_fpga_transfer</text>
<text xml:space="preserve" text-anchor="middle" x="553.62" y="-59.25" font-family="Helvetica,sans-Serif" font-size="10.00">_batch</text>
</a>
</g>
</g>
<!-- Node5&#45;&gt;Node28 -->
<g id="edge9_Node000005_Node000028" class="edge">
<title>Node5&#45;&gt;Node28</title>
<g id="a_edge9_Node000005_Node000028"><a xlink:title=" ">
<path fill="none" stroke="#63b8ff" d="M410.5,-141.71C430.78,-128.02 460.64,-108.83 488.25,-94.75 490.97,-93.36 493.79,-91.99 496.66,-90.65"/>
<polygon fill="#63b8ff" stroke="#63b8ff" points="498.08,-93.85 505.77,-86.57 495.22,-87.46 498.08,-93.85"/>
</a>
</g>
</g>
<!-- Node29 -->
<g id="Node000029" class="node">
<title>Node29</title>
<g id="a_Node000029"><a xlink:href="m__fpga__io_8c.html#a302830ca8cbed4d0a82c67c69f201bf4" target="_top" xlink:title=" ">
<polygon fill="white" stroke="#666666" points="614.5,-33.5 492.75,-33.5 492.75,0 614.5,0 614.5,-33.5"/>
<text xml:space="preserve" text-anchor="start" x="500.75" y="-20" font-family="Helvetica,sans-Serif" font-size="10.00">m_new_fpga_transfer</text>
<text xml:space="preserve" text-anchor="middle" x="553.62" y="-7.25" font-family="Helvetica,sans-Serif" font-size="10.00">_batch</text>
</a>
</g>
</g>
<!-- Node5&#45;&gt;Node29 -->
<g id="edge10_Node000005_Node000029" class="edge">
<title>Node5&#45;&gt;Node29</title>
<g id="a_edge10_Node000005_Node000029"><a xlink:title=" ">
<path fill="none" stroke="#63b8ff" d="M397.26,-141.53C414.28,-116.68 448.81,-70.67 488.25,-42.75 489.84,-41.62 491.48,-40.54 493.17,-39.49"/>
<polygon fill="#63b8ff" stroke="#63b8ff" points="494.85,-42.56 501.89,-34.63 491.45,-36.44 494.85,-42.56"/>
</a>
</g>
</g>
</g>
</svg>

<g id="navigator" transform="translate(0 0)" fill="#404254">
  <rect fill="#f2f5e9" fill-opacity="0.5" stroke="#606060" stroke-width=".5" x="0" y="0" width="60" height="60"/>
  <use id="zoomplus" xlink:href="#zoomPlus" x="17" y="9" onmousedown="handleZoom(evt,'in')"/>
  <use id="zoomminus" xlink:href="#zoomMin" x="42" y="9" onmousedown="handleZoom(evt,'out')"/>
  <use id="reset" xlink:href="#resetDef" x="30" y="36" onmousedown="handleReset()"/>
   <use id="arrowup" xlink:href="#arrowUp" x="0" y="0" onmousedown="handlePan(0,-1)"/>
  <use id="arrowright" xlink:href="#arrowRight" x="0" y="0" onmousedown="handlePan(1,0)"/>
  <use id="arrowdown" xlink:href="#arrowDown" x="0" y="0" onmousedown="handlePan(0,1)"/>
  <use id="arrowleft" xlink:href="#arrowLeft" x="0" y="0" onmousedown="handlePan(-1,0)"/>
</g>
<svg viewBox="0 0 15 15" width="100%" height="30px" preserveAspectRatio="xMaxYMin meet">
 <g id="arrow_out" transform="scale(0.3 0.3)">
  <a xlink:href="m__profile_8h_a9161b482b0dc7522ee6c65b863b7e1c6_cgraph_org.svg" target="_base">
   <rect id="button" ry="5" rx="5" y="6" x="6" height="38" width="38"
        fill="#f2f5e9" fill-opacity="0.5" stroke="#606060" stroke-width="1.0"/>
   <path id="arrow"
     d="M 11.500037,31.436501 C 11.940474,20.09759 22.043105,11.32322 32.158766,21.979434 L 37.068811,17.246167 C 37.068811,17.246167 37.088388,32 37.088388,32 L 22.160133,31.978069 C 22.160133,31.978069 26.997745,27.140456 26.997745,27.140456 C 18.528582,18.264221 13.291696,25.230495 11.500037,31.436501 z"
     style="fill:#404040;"/>
  </a>
 </g>
</svg>

<style type='text/css'>
<![CDATA[
[data-mouse-over-selected='false'] { opacity: 0.7; }
[data-mouse-over-selected='true']  { opacity: 1.0; }
]]>
</style>
<script type="application/ecmascript"><![CDATA[
document.addEventListener('DOMContentLoaded', (event) => {
  highlightEdges();
  highlightAdjacentNodes();
});
]]></script>
</svg>
