<?xml version="1.0" encoding="UTF-8" standalone="no"?>
<!DOCTYPE svg PUBLIC "-//W3C//DTD SVG 1.1//EN"
 "http://www.w3.org/Graphics/SVG/1.1/DTD/svg11.dtd">
<!-- Generated by graphviz version 13.1.2 (20250808.2320)
 -->
<!-- Title: clone_parameter Pages: 1 -->
<svg width="680pt" height="119pt"
 viewBox="0.00 0.00 680.00 119.00" xmlns="http://www.w3.org/2000/svg" xmlns:xlink="http://www.w3.org/1999/xlink">
<g id="graph0" class="graph" transform="scale(1 1) rotate(0) translate(4 115.12)">
<title>clone_parameter</title>
<!-- Node1 -->
<g id="Node000001" class="node">
<title>Node1</title>
<g id="a_Node000001"><a xlink:title=" ">
<polygon fill="#999999" stroke="#666666" points="671.5,-72.12 573,-72.12 573,-51.38 671.5,-51.38 671.5,-72.12"/>
<text xml:space="preserve" text-anchor="middle" x="622.25" y="-58.62" font-family="Helvetica,sans-Serif" font-size="10.00">clone_parameter</text>
</a>
</g>
</g>
<!-- Node2 -->
<g id="Node000002" class="node">
<title>Node2</title>
<g id="a_Node000002"><a xlink:href="m__profile_8c.html#a7e5db159d2b37a612f0ca66124da78c7" target="_top" xlink:title=" ">
<polygon fill="white" stroke="#666666" points="503.62,-111.12 424.62,-111.12 424.62,-90.38 503.62,-90.38 503.62,-111.12"/>
<text xml:space="preserve" text-anchor="middle" x="464.12" y="-97.62" font-family="Helvetica,sans-Serif" font-size="10.00">clone_profile</text>
</a>
</g>
</g>
<!-- Node1&#45;&gt;Node2 -->
<g id="edge1_Node000001_Node000002" class="edge">
<title>Node1&#45;&gt;Node2</title>
<g id="a_edge1_Node000001_Node000002"><a xlink:title=" ">
<path fill="none" stroke="#63b8ff" d="M566.6,-75.4C546,-80.55 523.01,-86.29 504.12,-91.01"/>
<polygon fill="#63b8ff" stroke="#63b8ff" points="567.44,-78.8 576.29,-72.98 565.74,-72.01 567.44,-78.8"/>
</a>
</g>
</g>
<!-- Node3 -->
<g id="Node000003" class="node">
<title>Node3</title>
<g id="a_Node000003"><a xlink:href="m__parameter_8c.html#a432ad83c702e8148e574ea54627eb486" target="_top" xlink:title=" ">
<polygon fill="white" stroke="#666666" points="537,-72.12 391.25,-72.12 391.25,-51.38 537,-51.38 537,-72.12"/>
<text xml:space="preserve" text-anchor="middle" x="464.12" y="-58.62" font-family="Helvetica,sans-Serif" font-size="10.00">m_parameter_make_clone</text>
</a>
</g>
</g>
<!-- Node1&#45;&gt;Node3 -->
<g id="edge2_Node000001_Node000003" class="edge">
<title>Node1&#45;&gt;Node3</title>
<g id="a_edge2_Node000001_Node000003"><a xlink:title=" ">
<path fill="none" stroke="#63b8ff" d="M561.43,-61.75C553.57,-61.75 545.46,-61.75 537.42,-61.75"/>
<polygon fill="#63b8ff" stroke="#63b8ff" points="561.19,-65.25 571.19,-61.75 561.19,-58.25 561.19,-65.25"/>
</a>
</g>
</g>
<!-- Node4 -->
<g id="Node000004" class="node">
<title>Node4</title>
<g id="a_Node000004"><a xlink:href="m__parameter_8c.html#a16da33b27212e270a36d7424d53ee0f7" target="_top" xlink:title=" ">
<polygon fill="white" stroke="#666666" points="537,-33.5 391.25,-33.5 391.25,0 537,0 537,-33.5"/>
<text xml:space="preserve" text-anchor="start" x="399.25" y="-20" font-family="Helvetica,sans-Serif" font-size="10.00">m_parameter_make_clone</text>
<text xml:space="preserve" text-anchor="middle" x="464.12" y="-7.25" font-family="Helvetica,sans-Serif" font-size="10.00">_for_effect</text>
</a>
</g>
</g>
<!-- Node1&#45;&gt;Node4 -->
<g id="edge3_Node000001_Node000004" class="edge">
<title>Node1&#45;&gt;Node4</title>
<g id="a_edge3_Node000001_Node000004"><a xlink:title=" ">
<path fill="none" stroke="#63b8ff" d="M573.09,-47.87C557.82,-43.47 540.75,-38.55 524.77,-33.94"/>
<polygon fill="#63b8ff" stroke="#63b8ff" points="571.82,-51.15 582.4,-50.55 573.76,-44.42 571.82,-51.15"/>
</a>
</g>
</g>
<!-- Node5 -->
<g id="Node000005" class="node">
<title>Node5</title>
<g id="a_Node000005"><a xlink:href="m__effect_8c.html#a8e75c554d3e8551168278ca959dd73e0" target="_top" xlink:title=" ">
<polygon fill="white" stroke="#666666" points="355.25,-27.12 199.75,-27.12 199.75,-6.38 355.25,-6.38 355.25,-27.12"/>
<text xml:space="preserve" text-anchor="middle" x="277.5" y="-13.62" font-family="Helvetica,sans-Serif" font-size="10.00">init_effect_from_effect_desc</text>
</a>
</g>
</g>
<!-- Node4&#45;&gt;Node5 -->
<g id="edge4_Node000004_Node000005" class="edge">
<title>Node4&#45;&gt;Node5</title>
<g id="a_edge4_Node000004_Node000005"><a xlink:title=" ">
<path fill="none" stroke="#63b8ff" d="M379.66,-16.75C371.62,-16.75 363.48,-16.75 355.5,-16.75"/>
<polygon fill="#63b8ff" stroke="#63b8ff" points="379.44,-20.25 389.44,-16.75 379.44,-13.25 379.44,-20.25"/>
</a>
</g>
</g>
<!-- Node6 -->
<g id="Node000006" class="node">
<title>Node6</title>
<g id="a_Node000006"><a xlink:href="m__pipeline_8c.html#a8dce811810c9ae42e523eb5aa2764a96" target="_top" xlink:title=" ">
<polygon fill="#fff0f0" stroke="red" points="163.75,-27.12 0,-27.12 0,-6.38 163.75,-6.38 163.75,-27.12"/>
<text xml:space="preserve" text-anchor="middle" x="81.88" y="-13.62" font-family="Helvetica,sans-Serif" font-size="10.00">m_pipeline_append_effect_eff</text>
</a>
</g>
</g>
<!-- Node5&#45;&gt;Node6 -->
<g id="edge5_Node000005_Node000006" class="edge">
<title>Node5&#45;&gt;Node6</title>
<g id="a_edge5_Node000005_Node000006"><a xlink:title=" ">
<path fill="none" stroke="#63b8ff" d="M188.17,-16.75C180.16,-16.75 172.08,-16.75 164.14,-16.75"/>
<polygon fill="#63b8ff" stroke="#63b8ff" points="187.9,-20.25 197.9,-16.75 187.9,-13.25 187.9,-20.25"/>
</a>
</g>
</g>
</g>
</svg>
