<?xml version="1.0" encoding="UTF-8" standalone="no"?>
<!DOCTYPE svg PUBLIC "-//W3C//DTD SVG 1.1//EN"
 "http://www.w3.org/Graphics/SVG/1.1/DTD/svg11.dtd">
<!-- Generated by graphviz version 13.1.2 (20250808.2320)
 -->
<!-- Title: m_setting_make_clone_for_effect Pages: 1 -->
<svg width="720pt" height="42pt"
 viewBox="0.00 0.00 720.00 42.00" xmlns="http://www.w3.org/2000/svg" xmlns:xlink="http://www.w3.org/1999/xlink">
<g id="graph0" class="graph" transform="scale(1 1) rotate(0) translate(4 37.5)">
<title>m_setting_make_clone_for_effect</title>
<!-- Node1 -->
<g id="Node000001" class="node">
<title>Node1</title>
<g id="a_Node000001"><a xlink:title=" ">
<polygon fill="#999999" stroke="#666666" points="712,-33.5 583.5,-33.5 583.5,0 712,0 712,-33.5"/>
<text xml:space="preserve" text-anchor="start" x="591.5" y="-20" font-family="Helvetica,sans-Serif" font-size="10.00">m_setting_make_clone</text>
<text xml:space="preserve" text-anchor="middle" x="647.75" y="-7.25" font-family="Helvetica,sans-Serif" font-size="10.00">_for_effect</text>
</a>
</g>
</g>
<!-- Node2 -->
<g id="Node000002" class="node">
<title>Node2</title>
<g id="a_Node000002"><a xlink:href="m__effect_8c.html#a8e75c554d3e8551168278ca959dd73e0" target="_top" xlink:title=" ">
<polygon fill="white" stroke="#666666" points="547.5,-27.12 392,-27.12 392,-6.38 547.5,-6.38 547.5,-27.12"/>
<text xml:space="preserve" text-anchor="middle" x="469.75" y="-13.62" font-family="Helvetica,sans-Serif" font-size="10.00">init_effect_from_effect_desc</text>
</a>
</g>
</g>
<!-- Node1&#45;&gt;Node2 -->
<g id="edge1_Node000001_Node000002" class="edge">
<title>Node1&#45;&gt;Node2</title>
<g id="a_edge1_Node000001_Node000002"><a xlink:title=" ">
<path fill="none" stroke="#63b8ff" d="M571.7,-16.75C563.76,-16.75 555.67,-16.75 547.71,-16.75"/>
<polygon fill="#63b8ff" stroke="#63b8ff" points="571.7,-20.25 581.7,-16.75 571.7,-13.25 571.7,-20.25"/>
</a>
</g>
</g>
<!-- Node3 -->
<g id="Node000003" class="node">
<title>Node3</title>
<g id="a_Node000003"><a xlink:href="m__pipeline_8c.html#a8dce811810c9ae42e523eb5aa2764a96" target="_top" xlink:title=" ">
<polygon fill="white" stroke="#666666" points="356,-27.12 192.25,-27.12 192.25,-6.38 356,-6.38 356,-27.12"/>
<text xml:space="preserve" text-anchor="middle" x="274.12" y="-13.62" font-family="Helvetica,sans-Serif" font-size="10.00">m_pipeline_append_effect_eff</text>
</a>
</g>
</g>
<!-- Node2&#45;&gt;Node3 -->
<g id="edge2_Node000002_Node000003" class="edge">
<title>Node2&#45;&gt;Node3</title>
<g id="a_edge2_Node000002_Node000003"><a xlink:title=" ">
<path fill="none" stroke="#63b8ff" d="M380.42,-16.75C372.41,-16.75 364.33,-16.75 356.39,-16.75"/>
<polygon fill="#63b8ff" stroke="#63b8ff" points="380.15,-20.25 390.15,-16.75 380.15,-13.25 380.15,-20.25"/>
</a>
</g>
</g>
<!-- Node4 -->
<g id="Node000004" class="node">
<title>Node4</title>
<g id="a_Node000004"><a xlink:href="m__profile_8c.html#a69a5c3334f55904c60414b0caaef7305" target="_top" xlink:title=" ">
<polygon fill="#fff0f0" stroke="red" points="156.25,-27.12 0,-27.12 0,-6.38 156.25,-6.38 156.25,-27.12"/>
<text xml:space="preserve" text-anchor="middle" x="78.12" y="-13.62" font-family="Helvetica,sans-Serif" font-size="10.00">m_profile_append_effect_eff</text>
</a>
</g>
</g>
<!-- Node3&#45;&gt;Node4 -->
<g id="edge3_Node000003_Node000004" class="edge">
<title>Node3&#45;&gt;Node4</title>
<g id="a_edge3_Node000003_Node000004"><a xlink:title=" ">
<path fill="none" stroke="#63b8ff" d="M180.63,-16.75C172.56,-16.75 164.46,-16.75 156.54,-16.75"/>
<polygon fill="#63b8ff" stroke="#63b8ff" points="180.46,-20.25 190.46,-16.75 180.46,-13.25 180.46,-20.25"/>
</a>
</g>
</g>
</g>
</svg>
