<?xml version="1.0" encoding="UTF-8" standalone="no"?>
<!DOCTYPE svg PUBLIC "-//W3C//DTD SVG 1.1//EN"
 "http://www.w3.org/Graphics/SVG/1.1/DTD/svg11.dtd">
<!-- Generated by graphviz version 13.1.2 (20250808.2320)
 -->
<!-- Title: parameter_widget_change_cb_inner Pages: 1 -->
<svg width="626pt" height="94pt"
 viewBox="0.00 0.00 626.00 94.00" xmlns="http://www.w3.org/2000/svg" xmlns:xlink="http://www.w3.org/1999/xlink">
<g id="graph0" class="graph" transform="scale(1 1) rotate(0) translate(4 89.5)">
<title>parameter_widget_change_cb_inner</title>
<!-- Node1 -->
<g id="Node000001" class="node">
<title>Node1</title>
<g id="a_Node000001"><a xlink:title=" ">
<polygon fill="#999999" stroke="#666666" points="145.75,-59.5 0,-59.5 0,-26 145.75,-26 145.75,-59.5"/>
<text xml:space="preserve" text-anchor="start" x="8" y="-46" font-family="Helvetica,sans-Serif" font-size="10.00">parameter_widget_change</text>
<text xml:space="preserve" text-anchor="middle" x="72.88" y="-33.25" font-family="Helvetica,sans-Serif" font-size="10.00">_cb_inner</text>
</a>
</g>
</g>
<!-- Node2 -->
<g id="Node000002" class="node">
<title>Node2</title>
<g id="a_Node000002"><a xlink:href="m__param__update_8c.html#ad369fce341824efee44cc67a1a66f7df" target="_top" xlink:title=" ">
<polygon fill="white" stroke="#666666" points="313.62,-85.5 194.12,-85.5 194.12,-52 313.62,-52 313.62,-85.5"/>
<text xml:space="preserve" text-anchor="start" x="202.12" y="-72" font-family="Helvetica,sans-Serif" font-size="10.00">m_parameter_trigger</text>
<text xml:space="preserve" text-anchor="middle" x="253.88" y="-59.25" font-family="Helvetica,sans-Serif" font-size="10.00">_update</text>
</a>
</g>
</g>
<!-- Node1&#45;&gt;Node2 -->
<g id="edge1_Node000001_Node000002" class="edge">
<title>Node1&#45;&gt;Node2</title>
<g id="a_edge1_Node000001_Node000002"><a xlink:title=" ">
<path fill="none" stroke="#63b8ff" d="M146.17,-53.25C158.15,-54.99 170.56,-56.79 182.5,-58.53"/>
<polygon fill="#63b8ff" stroke="#63b8ff" points="181.87,-61.97 192.27,-59.95 182.88,-55.05 181.87,-61.97"/>
</a>
</g>
</g>
<!-- Node3 -->
<g id="Node000003" class="node">
<title>Node3</title>
<g id="a_Node000003"><a xlink:href="m__parameter__widget_8c.html#a963dc5330b9bd75d5e341a21d40ed724" target="_top" xlink:title=" ">
<polygon fill="white" stroke="#666666" points="326,-33.5 181.75,-33.5 181.75,0 326,0 326,-33.5"/>
<text xml:space="preserve" text-anchor="start" x="189.75" y="-20" font-family="Helvetica,sans-Serif" font-size="10.00">parameter_widget_update</text>
<text xml:space="preserve" text-anchor="middle" x="253.88" y="-7.25" font-family="Helvetica,sans-Serif" font-size="10.00">_value_label_v</text>
</a>
</g>
</g>
<!-- Node1&#45;&gt;Node3 -->
<g id="edge2_Node000001_Node000003" class="edge">
<title>Node1&#45;&gt;Node3</title>
<g id="a_edge2_Node000001_Node000003"><a xlink:title=" ">
<path fill="none" stroke="#63b8ff" d="M146.17,-32.25C154.08,-31.1 162.18,-29.92 170.21,-28.76"/>
<polygon fill="#63b8ff" stroke="#63b8ff" points="170.59,-32.24 179.98,-27.34 169.58,-25.31 170.59,-32.24"/>
</a>
</g>
</g>
<!-- Node4 -->
<g id="Node000004" class="node">
<title>Node4</title>
<g id="a_Node000004"><a xlink:href="m__parameter__widget_8c.html#a1c586816596ea0e353a6c7ba2ba67f96" target="_top" xlink:title=" ">
<polygon fill="white" stroke="#666666" points="505.5,-33.5 362,-33.5 362,0 505.5,0 505.5,-33.5"/>
<text xml:space="preserve" text-anchor="start" x="370" y="-20" font-family="Helvetica,sans-Serif" font-size="10.00">format_parameter_widget</text>
<text xml:space="preserve" text-anchor="middle" x="433.75" y="-7.25" font-family="Helvetica,sans-Serif" font-size="10.00">_value_label_v</text>
</a>
</g>
</g>
<!-- Node3&#45;&gt;Node4 -->
<g id="edge3_Node000003_Node000004" class="edge">
<title>Node3&#45;&gt;Node4</title>
<g id="a_edge3_Node000003_Node000004"><a xlink:title=" ">
<path fill="none" stroke="#63b8ff" d="M326.45,-16.75C334.24,-16.75 342.21,-16.75 350.11,-16.75"/>
<polygon fill="#63b8ff" stroke="#63b8ff" points="350.09,-20.25 360.09,-16.75 350.09,-13.25 350.09,-20.25"/>
</a>
</g>
</g>
<!-- Node5 -->
<g id="Node000005" class="node">
<title>Node5</title>
<g id="a_Node000005"><a xlink:href="m__hfunc_8c.html#a840904866becc1161859f30852e94595" target="_top" xlink:title=" ">
<polygon fill="white" stroke="#666666" points="618.25,-27.12 541.5,-27.12 541.5,-6.38 618.25,-6.38 618.25,-27.12"/>
<text xml:space="preserve" text-anchor="middle" x="579.88" y="-13.62" font-family="Helvetica,sans-Serif" font-size="10.00">format_float</text>
</a>
</g>
</g>
<!-- Node4&#45;&gt;Node5 -->
<g id="edge4_Node000004_Node000005" class="edge">
<title>Node4&#45;&gt;Node5</title>
<g id="a_edge4_Node000004_Node000005"><a xlink:title=" ">
<path fill="none" stroke="#63b8ff" d="M505.97,-16.75C514.07,-16.75 522.18,-16.75 529.9,-16.75"/>
<polygon fill="#63b8ff" stroke="#63b8ff" points="529.75,-20.25 539.75,-16.75 529.75,-13.25 529.75,-20.25"/>
</a>
</g>
</g>
</g>
</svg>
