<?xml version="1.0" encoding="UTF-8" standalone="no"?>
<!DOCTYPE svg PUBLIC "-//W3C//DTD SVG 1.1//EN"
 "http://www.w3.org/Graphics/SVG/1.1/DTD/svg11.dtd">
<!-- Generated by graphviz version 13.1.2 (20250808.2320)
 -->
<!-- Title: init_setting_str Pages: 1 -->
<svg width="645pt" height="326pt"
 viewBox="0.00 0.00 645.00 326.00" xmlns="http://www.w3.org/2000/svg" xmlns:xlink="http://www.w3.org/1999/xlink">
<g id="graph0" class="graph" transform="scale(1 1) rotate(0) translate(4 322.12)">
<title>init_setting_str</title>
<!-- Node1 -->
<g id="Node000001" class="node">
<title>Node1</title>
<g id="a_Node000001"><a xlink:title=" ">
<polygon fill="#999999" stroke="#666666" points="637,-150.12 548.25,-150.12 548.25,-129.38 637,-129.38 637,-150.12"/>
<text xml:space="preserve" text-anchor="middle" x="592.62" y="-136.62" font-family="Helvetica,sans-Serif" font-size="10.00">init_setting_str</text>
</a>
</g>
</g>
<!-- Node2 -->
<g id="Node000002" class="node">
<title>Node2</title>
<g id="a_Node000002"><a xlink:href="$m__parameter_8c.html#a01d8020e75875c0fb5092d393faad3f8" xlink:title=" ">
<polygon fill="white" stroke="#666666" points="474.75,-250.12 393.5,-250.12 393.5,-229.38 474.75,-229.38 474.75,-250.12"/>
<text xml:space="preserve" text-anchor="middle" x="434.12" y="-236.62" font-family="Helvetica,sans-Serif" font-size="10.00">clone_setting</text>
</a>
</g>
</g>
<!-- Node1&#45;&gt;Node2 -->
<g id="edge1_Node000001_Node000002" class="edge">
<title>Node1&#45;&gt;Node2</title>
<g id="a_edge1_Node000001_Node000002"><a xlink:title=" ">
<path fill="none" stroke="#63b8ff" d="M565.59,-156.38C533.24,-177.06 478.97,-211.73 451.75,-229.13"/>
<polygon fill="#63b8ff" stroke="#63b8ff" points="567.06,-159.6 573.6,-151.27 563.29,-153.7 567.06,-159.6"/>
</a>
</g>
</g>
<!-- Node20 -->
<g id="Node000020" class="node">
<title>Node20</title>
<g id="a_Node000020"><a xlink:href="$m__effect_8c.html#a2c516973024b16430dc427476b79048e" xlink:title=" ">
<polygon fill="white" stroke="#666666" points="487.5,-150.12 380.75,-150.12 380.75,-129.38 487.5,-129.38 487.5,-150.12"/>
<text xml:space="preserve" text-anchor="middle" x="434.12" y="-136.62" font-family="Helvetica,sans-Serif" font-size="10.00">effect_add_setting</text>
</a>
</g>
</g>
<!-- Node1&#45;&gt;Node20 -->
<g id="edge7_Node000001_Node000020" class="edge">
<title>Node1&#45;&gt;Node20</title>
<g id="a_edge7_Node000001_Node000020"><a xlink:title=" ">
<path fill="none" stroke="#63b8ff" d="M536.78,-139.75C520.93,-139.75 503.67,-139.75 487.94,-139.75"/>
<polygon fill="#63b8ff" stroke="#63b8ff" points="536.52,-143.25 546.52,-139.75 536.52,-136.25 536.52,-143.25"/>
</a>
</g>
</g>
<!-- Node26 -->
<g id="Node000026" class="node">
<title>Node26</title>
<g id="a_Node000026"><a xlink:href="$m__dict__extract_8c.html#a2c927aa00cbc38a960601717ff0f44b6" xlink:title=" ">
<polygon fill="white" stroke="#666666" points="512.25,-69.12 356,-69.12 356,-48.38 512.25,-48.38 512.25,-69.12"/>
<text xml:space="preserve" text-anchor="middle" x="434.12" y="-55.62" font-family="Helvetica,sans-Serif" font-size="10.00">m_extract_setting_from_dict</text>
</a>
</g>
</g>
<!-- Node1&#45;&gt;Node26 -->
<g id="edge17_Node000001_Node000026" class="edge">
<title>Node1&#45;&gt;Node26</title>
<g id="a_edge17_Node000001_Node000026"><a xlink:title=" ">
<path fill="none" stroke="#63b8ff" d="M561,-123.9C530.01,-107.86 482.93,-83.49 455.99,-69.55"/>
<polygon fill="#63b8ff" stroke="#63b8ff" points="559.01,-126.81 569.5,-128.3 562.23,-120.59 559.01,-126.81"/>
</a>
</g>
</g>
<!-- Node3 -->
<g id="Node000003" class="node">
<title>Node3</title>
<g id="a_Node000003"><a xlink:href="$m__effect_8c.html#a93e462e09ad909e5888ae697e63a3a4f" xlink:title=" ">
<polygon fill="white" stroke="#666666" points="293.75,-228.12 217.75,-228.12 217.75,-207.38 293.75,-207.38 293.75,-228.12"/>
<text xml:space="preserve" text-anchor="middle" x="255.75" y="-214.62" font-family="Helvetica,sans-Serif" font-size="10.00">clone_effect</text>
</a>
</g>
</g>
<!-- Node2&#45;&gt;Node3 -->
<g id="edge2_Node000002_Node000003" class="edge">
<title>Node2&#45;&gt;Node3</title>
<g id="a_edge2_Node000002_Node000003"><a xlink:title=" ">
<path fill="none" stroke="#63b8ff" d="M381.9,-233.36C353.86,-229.86 319.73,-225.61 294.2,-222.42"/>
<polygon fill="#63b8ff" stroke="#63b8ff" points="381.24,-236.81 391.6,-234.57 382.11,-229.86 381.24,-236.81"/>
</a>
</g>
</g>
<!-- Node6 -->
<g id="Node000006" class="node">
<title>Node6</title>
<g id="a_Node000006"><a xlink:href="$m__parameter_8c.html#aecb39f1856818ad96694eb89242b4f57" xlink:title=" ">
<polygon fill="white" stroke="#666666" points="320,-318.12 191.5,-318.12 191.5,-297.38 320,-297.38 320,-318.12"/>
<text xml:space="preserve" text-anchor="middle" x="255.75" y="-304.62" font-family="Helvetica,sans-Serif" font-size="10.00">m_setting_make_clone</text>
</a>
</g>
</g>
<!-- Node2&#45;&gt;Node6 -->
<g id="edge4_Node000002_Node000006" class="edge">
<title>Node2&#45;&gt;Node6</title>
<g id="a_edge4_Node000002_Node000006"><a xlink:title=" ">
<path fill="none" stroke="#63b8ff" d="M400.2,-255.23C377.84,-265.43 347.47,-278.71 320,-288.75 312.14,-291.62 303.62,-294.4 295.45,-296.91"/>
<polygon fill="#63b8ff" stroke="#63b8ff" points="401.48,-258.49 409.1,-251.13 398.55,-252.13 401.48,-258.49"/>
</a>
</g>
</g>
<!-- Node7 -->
<g id="Node000007" class="node">
<title>Node7</title>
<g id="a_Node000007"><a xlink:href="$m__parameter_8c.html#a50b8f19460c4cb2d8837c022f8244d19" xlink:title=" ">
<polygon fill="white" stroke="#666666" points="320,-279.5 191.5,-279.5 191.5,-246 320,-246 320,-279.5"/>
<text xml:space="preserve" text-anchor="start" x="199.5" y="-266" font-family="Helvetica,sans-Serif" font-size="10.00">m_setting_make_clone</text>
<text xml:space="preserve" text-anchor="middle" x="255.75" y="-253.25" font-family="Helvetica,sans-Serif" font-size="10.00">_for_effect</text>
</a>
</g>
</g>
<!-- Node2&#45;&gt;Node7 -->
<g id="edge5_Node000002_Node000007" class="edge">
<title>Node2&#45;&gt;Node7</title>
<g id="a_edge5_Node000002_Node000007"><a xlink:title=" ">
<path fill="none" stroke="#63b8ff" d="M381.87,-246.43C362.69,-248.94 340.66,-251.81 320.48,-254.44"/>
<polygon fill="#63b8ff" stroke="#63b8ff" points="382.14,-249.93 391.6,-245.16 381.23,-242.99 382.14,-249.93"/>
</a>
</g>
</g>
<!-- Node4 -->
<g id="Node000004" class="node">
<title>Node4</title>
<g id="a_Node000004"><a xlink:href="$m__pipeline_8c.html#aac299a6a652e5e6e6832d2803635893c" xlink:title=" ">
<polygon fill="#fff0f0" stroke="red" points="121,-228.12 34.5,-228.12 34.5,-207.38 121,-207.38 121,-228.12"/>
<text xml:space="preserve" text-anchor="middle" x="77.75" y="-214.62" font-family="Helvetica,sans-Serif" font-size="10.00">clone_pipeline</text>
</a>
</g>
</g>
<!-- Node3&#45;&gt;Node4 -->
<g id="edge3_Node000003_Node000004" class="edge">
<title>Node3&#45;&gt;Node4</title>
<g id="a_edge3_Node000003_Node000004"><a xlink:title=" ">
<path fill="none" stroke="#63b8ff" d="M206.06,-217.75C179.46,-217.75 146.84,-217.75 121.28,-217.75"/>
<polygon fill="#63b8ff" stroke="#63b8ff" points="205.91,-221.25 215.91,-217.75 205.91,-214.25 205.91,-221.25"/>
</a>
</g>
</g>
<!-- Node8 -->
<g id="Node000008" class="node">
<title>Node8</title>
<g id="a_Node000008"><a xlink:href="$m__effect_8c.html#a8e75c554d3e8551168278ca959dd73e0" xlink:title=" ">
<polygon fill="#fff0f0" stroke="red" points="155.5,-273.12 0,-273.12 0,-252.38 155.5,-252.38 155.5,-273.12"/>
<text xml:space="preserve" text-anchor="middle" x="77.75" y="-259.62" font-family="Helvetica,sans-Serif" font-size="10.00">init_effect_from_effect_desc</text>
</a>
</g>
</g>
<!-- Node7&#45;&gt;Node8 -->
<g id="edge6_Node000007_Node000008" class="edge">
<title>Node7&#45;&gt;Node8</title>
<g id="a_edge6_Node000007_Node000008"><a xlink:title=" ">
<path fill="none" stroke="#63b8ff" d="M179.7,-262.75C171.76,-262.75 163.67,-262.75 155.71,-262.75"/>
<polygon fill="#63b8ff" stroke="#63b8ff" points="179.7,-266.25 189.7,-262.75 179.7,-259.25 179.7,-266.25"/>
</a>
</g>
</g>
<!-- Node20&#45;&gt;Node3 -->
<g id="edge8_Node000020_Node000003" class="edge">
<title>Node20&#45;&gt;Node3</title>
<g id="a_edge8_Node000020_Node000003"><a xlink:title=" ">
<path fill="none" stroke="#63b8ff" d="M404.47,-156.14C381.97,-168.58 349.61,-185.58 320,-197.75 311.8,-201.12 302.81,-204.27 294.25,-207.03"/>
<polygon fill="#63b8ff" stroke="#63b8ff" points="406.03,-159.28 413.05,-151.34 402.61,-153.17 406.03,-159.28"/>
</a>
</g>
</g>
<!-- Node21 -->
<g id="Node000021" class="node">
<title>Node21</title>
<g id="a_Node000021"><a xlink:href="$m__effect__init_8c.html#a6d1f269bb56bc46e4d5c11f53f1f472b" xlink:title=" ">
<polygon fill="white" stroke="#666666" points="296.38,-189.12 215.12,-189.12 215.12,-168.38 296.38,-168.38 296.38,-189.12"/>
<text xml:space="preserve" text-anchor="middle" x="255.75" y="-175.62" font-family="Helvetica,sans-Serif" font-size="10.00">init_amplifier</text>
</a>
</g>
</g>
<!-- Node20&#45;&gt;Node21 -->
<g id="edge9_Node000020_Node000021" class="edge">
<title>Node20&#45;&gt;Node21</title>
<g id="a_edge9_Node000020_Node000021"><a xlink:title=" ">
<path fill="none" stroke="#63b8ff" d="M373.07,-153.03C347.87,-158.6 319.26,-164.93 296.71,-169.91"/>
<polygon fill="#63b8ff" stroke="#63b8ff" points="373.51,-156.52 382.52,-150.94 372,-149.68 373.51,-156.52"/>
</a>
</g>
</g>
<!-- Node23 -->
<g id="Node000023" class="node">
<title>Node23</title>
<g id="a_Node000023"><a xlink:href="$m__effect__init_8c.html#a412d210be9bd4b5804f2890b75c97cd4" xlink:title=" ">
<polygon fill="white" stroke="#666666" points="287.75,-150.12 223.75,-150.12 223.75,-129.38 287.75,-129.38 287.75,-150.12"/>
<text xml:space="preserve" text-anchor="middle" x="255.75" y="-136.62" font-family="Helvetica,sans-Serif" font-size="10.00">init_delay</text>
</a>
</g>
</g>
<!-- Node20&#45;&gt;Node23 -->
<g id="edge11_Node000020_Node000023" class="edge">
<title>Node20&#45;&gt;Node23</title>
<g id="a_edge11_Node000020_Node000023"><a xlink:title=" ">
<path fill="none" stroke="#63b8ff" d="M369.46,-139.75C341.76,-139.75 310.55,-139.75 288,-139.75"/>
<polygon fill="#63b8ff" stroke="#63b8ff" points="369.17,-143.25 379.17,-139.75 369.17,-136.25 369.17,-143.25"/>
</a>
</g>
</g>
<!-- Node24 -->
<g id="Node000024" class="node">
<title>Node24</title>
<g id="a_Node000024"><a xlink:href="$m__effect__init_8c.html#ad6bef169819c423af76037e86789545b" xlink:title=" ">
<polygon fill="white" stroke="#666666" points="297.5,-111.12 214,-111.12 214,-90.38 297.5,-90.38 297.5,-111.12"/>
<text xml:space="preserve" text-anchor="middle" x="255.75" y="-97.62" font-family="Helvetica,sans-Serif" font-size="10.00">init_distortion</text>
</a>
</g>
</g>
<!-- Node20&#45;&gt;Node24 -->
<g id="edge13_Node000020_Node000024" class="edge">
<title>Node20&#45;&gt;Node24</title>
<g id="a_edge13_Node000020_Node000024"><a xlink:title=" ">
<path fill="none" stroke="#63b8ff" d="M372.9,-126.43C348.17,-120.97 320.18,-114.78 297.87,-109.84"/>
<polygon fill="#63b8ff" stroke="#63b8ff" points="372,-129.82 382.52,-128.56 373.51,-122.98 372,-129.82"/>
</a>
</g>
</g>
<!-- Node25 -->
<g id="Node000025" class="node">
<title>Node25</title>
<g id="a_Node000025"><a xlink:href="$m__effect__init_8c.html#a549f5ca3afe904b7afa92f32a9428eaf" xlink:title=" ">
<polygon fill="white" stroke="#666666" points="291.5,-72.12 220,-72.12 220,-51.38 291.5,-51.38 291.5,-72.12"/>
<text xml:space="preserve" text-anchor="middle" x="255.75" y="-58.62" font-family="Helvetica,sans-Serif" font-size="10.00">init_flanger</text>
</a>
</g>
</g>
<!-- Node20&#45;&gt;Node25 -->
<g id="edge15_Node000020_Node000025" class="edge">
<title>Node20&#45;&gt;Node25</title>
<g id="a_edge15_Node000020_Node000025"><a xlink:title=" ">
<path fill="none" stroke="#63b8ff" d="M404.47,-123.36C381.97,-110.92 349.61,-93.92 320,-81.75 311.05,-78.07 301.17,-74.65 291.92,-71.72"/>
<polygon fill="#63b8ff" stroke="#63b8ff" points="402.61,-126.33 413.05,-128.16 406.03,-120.22 402.61,-126.33"/>
</a>
</g>
</g>
<!-- Node22 -->
<g id="Node000022" class="node">
<title>Node22</title>
<g id="a_Node000022"><a xlink:href="$m__effect__init_8c.html#a492354539b4f1a3cdeaba69ddd09ef2b" xlink:title=" ">
<polygon fill="white" stroke="#666666" points="131.5,-130.12 24,-130.12 24,-109.38 131.5,-109.38 131.5,-130.12"/>
<text xml:space="preserve" text-anchor="middle" x="77.75" y="-116.62" font-family="Helvetica,sans-Serif" font-size="10.00">init_effect_of_type</text>
</a>
</g>
</g>
<!-- Node21&#45;&gt;Node22 -->
<g id="edge10_Node000021_Node000022" class="edge">
<title>Node21&#45;&gt;Node22</title>
<g id="a_edge10_Node000021_Node000022"><a xlink:title=" ">
<path fill="none" stroke="#63b8ff" d="M209.27,-164.53C203.29,-162.61 197.24,-160.65 191.5,-158.75 163.58,-149.51 131.94,-138.52 109.3,-130.57"/>
<polygon fill="#63b8ff" stroke="#63b8ff" points="207.87,-167.76 218.46,-167.45 209.99,-161.09 207.87,-167.76"/>
</a>
</g>
</g>
<!-- Node23&#45;&gt;Node22 -->
<g id="edge12_Node000023_Node000022" class="edge">
<title>Node23&#45;&gt;Node22</title>
<g id="a_edge12_Node000023_Node000022"><a xlink:title=" ">
<path fill="none" stroke="#63b8ff" d="M211.97,-134.89C187.79,-132.14 157.36,-128.68 131.68,-125.77"/>
<polygon fill="#63b8ff" stroke="#63b8ff" points="211.45,-138.35 221.78,-136 212.24,-131.4 211.45,-138.35"/>
</a>
</g>
</g>
<!-- Node24&#45;&gt;Node22 -->
<g id="edge14_Node000024_Node000022" class="edge">
<title>Node24&#45;&gt;Node22</title>
<g id="a_edge14_Node000024_Node000022"><a xlink:title=" ">
<path fill="none" stroke="#63b8ff" d="M202.61,-106.38C180.25,-108.79 154.16,-111.61 131.7,-114.03"/>
<polygon fill="#63b8ff" stroke="#63b8ff" points="202.86,-109.87 212.42,-105.32 202.11,-102.91 202.86,-109.87"/>
</a>
</g>
</g>
<!-- Node25&#45;&gt;Node22 -->
<g id="edge16_Node000025_Node000022" class="edge">
<title>Node25&#45;&gt;Node22</title>
<g id="a_edge16_Node000025_Node000022"><a xlink:title=" ">
<path fill="none" stroke="#63b8ff" d="M209.5,-75.94C203.44,-77.88 197.32,-79.85 191.5,-81.75 164.01,-90.73 132.87,-101.25 110.29,-108.94"/>
<polygon fill="#63b8ff" stroke="#63b8ff" points="210.33,-79.35 218.8,-72.99 208.21,-72.68 210.33,-79.35"/>
</a>
</g>
</g>
<!-- Node27 -->
<g id="Node000027" class="node">
<title>Node27</title>
<g id="a_Node000027"><a xlink:href="$m__eff__section_8c.html#a9697c17a9fd076c0112f8b1942c63ce4" xlink:title=" ">
<polygon fill="white" stroke="#666666" points="311,-33.5 200.5,-33.5 200.5,0 311,0 311,-33.5"/>
<text xml:space="preserve" text-anchor="start" x="208.5" y="-20" font-family="Helvetica,sans-Serif" font-size="10.00">m_settings_section</text>
<text xml:space="preserve" text-anchor="middle" x="255.75" y="-7.25" font-family="Helvetica,sans-Serif" font-size="10.00">_extract</text>
</a>
</g>
</g>
<!-- Node26&#45;&gt;Node27 -->
<g id="edge18_Node000026_Node000027" class="edge">
<title>Node26&#45;&gt;Node27</title>
<g id="a_edge18_Node000026_Node000027"><a xlink:title=" ">
<path fill="none" stroke="#63b8ff" d="M376.74,-45.32C355.84,-40.35 332.19,-34.71 311.45,-29.77"/>
<polygon fill="#63b8ff" stroke="#63b8ff" points="375.69,-48.67 386.23,-47.58 377.31,-41.86 375.69,-48.67"/>
</a>
</g>
</g>
<!-- Node28 -->
<g id="Node000028" class="node">
<title>Node28</title>
<g id="a_Node000028"><a xlink:href="$m__eff__parser_8c.html#a094727fab3d645bca2ba21a44ecc5749" xlink:title=" ">
<polygon fill="#fff0f0" stroke="red" points="125.5,-27.12 30,-27.12 30,-6.38 125.5,-6.38 125.5,-27.12"/>
<text xml:space="preserve" text-anchor="middle" x="77.75" y="-13.62" font-family="Helvetica,sans-Serif" font-size="10.00">m_parse_tokens</text>
</a>
</g>
</g>
<!-- Node27&#45;&gt;Node28 -->
<g id="edge19_Node000027_Node000028" class="edge">
<title>Node27&#45;&gt;Node28</title>
<g id="a_edge19_Node000027_Node000028"><a xlink:title=" ">
<path fill="none" stroke="#63b8ff" d="M188.62,-16.75C167.7,-16.75 145.01,-16.75 125.72,-16.75"/>
<polygon fill="#63b8ff" stroke="#63b8ff" points="188.51,-20.25 198.51,-16.75 188.51,-13.25 188.51,-20.25"/>
</a>
</g>
</g>
</g>
</svg>
