<?xml version="1.0" encoding="UTF-8" standalone="no"?>
<!DOCTYPE svg PUBLIC "-//W3C//DTD SVG 1.1//EN"
 "http://www.w3.org/Graphics/SVG/1.1/DTD/svg11.dtd">
<!-- Generated by graphviz version 13.1.2 (20250808.2320)
 -->
<!-- Title: m_parameter_make_clone_for_effect Pages: 1 -->
<svg width="582pt" height="42pt"
 viewBox="0.00 0.00 582.00 42.00" xmlns="http://www.w3.org/2000/svg" xmlns:xlink="http://www.w3.org/1999/xlink">
<g id="graph0" class="graph" transform="scale(1 1) rotate(0) translate(4 37.5)">
<title>m_parameter_make_clone_for_effect</title>
<!-- Node1 -->
<g id="Node000001" class="node">
<title>Node1</title>
<g id="a_Node000001"><a xlink:title=" ">
<polygon fill="#999999" stroke="#666666" points="145.75,-33.5 0,-33.5 0,0 145.75,0 145.75,-33.5"/>
<text xml:space="preserve" text-anchor="start" x="8" y="-20" font-family="Helvetica,sans-Serif" font-size="10.00">m_parameter_make_clone</text>
<text xml:space="preserve" text-anchor="middle" x="72.88" y="-7.25" font-family="Helvetica,sans-Serif" font-size="10.00">_for_effect</text>
</a>
</g>
</g>
<!-- Node2 -->
<g id="Node000002" class="node">
<title>Node2</title>
<g id="a_Node000002"><a xlink:href="$m__parameter_8c.html#a66e649834a60e032364e01d1b1f8c0be" xlink:title=" ">
<polygon fill="white" stroke="#666666" points="280.25,-27.12 181.75,-27.12 181.75,-6.38 280.25,-6.38 280.25,-27.12"/>
<text xml:space="preserve" text-anchor="middle" x="231" y="-13.62" font-family="Helvetica,sans-Serif" font-size="10.00">clone_parameter</text>
</a>
</g>
</g>
<!-- Node1&#45;&gt;Node2 -->
<g id="edge1_Node000001_Node000002" class="edge">
<title>Node1&#45;&gt;Node2</title>
<g id="a_edge1_Node000001_Node000002"><a xlink:title=" ">
<path fill="none" stroke="#63b8ff" d="M146,-16.75C154.05,-16.75 162.19,-16.75 170.06,-16.75"/>
<polygon fill="#63b8ff" stroke="#63b8ff" points="169.86,-20.25 179.86,-16.75 169.86,-13.25 169.86,-20.25"/>
</a>
</g>
</g>
<!-- Node3 -->
<g id="Node000003" class="node">
<title>Node3</title>
<g id="a_Node000003"><a xlink:href="$m__parameter_8c.html#ac9a28134818c14fbd7ef921b535b28d8" xlink:title=" ">
<polygon fill="white" stroke="#666666" points="422.25,-27.12 316.25,-27.12 316.25,-6.38 422.25,-6.38 422.25,-27.12"/>
<text xml:space="preserve" text-anchor="middle" x="369.25" y="-13.62" font-family="Helvetica,sans-Serif" font-size="10.00">init_parameter_str</text>
</a>
</g>
</g>
<!-- Node2&#45;&gt;Node3 -->
<g id="edge2_Node000002_Node000003" class="edge">
<title>Node2&#45;&gt;Node3</title>
<g id="a_edge2_Node000002_Node000003"><a xlink:title=" ">
<path fill="none" stroke="#63b8ff" d="M280.42,-16.75C288.22,-16.75 296.39,-16.75 304.49,-16.75"/>
<polygon fill="#63b8ff" stroke="#63b8ff" points="304.31,-20.25 314.31,-16.75 304.31,-13.25 304.31,-20.25"/>
</a>
</g>
</g>
<!-- Node4 -->
<g id="Node000004" class="node">
<title>Node4</title>
<g id="a_Node000004"><a xlink:href="$m__parameter_8c.html#a6c029c4379be052a826c3a78b8dd1513" xlink:title=" ">
<polygon fill="#fff0f0" stroke="red" points="574,-33.5 458.25,-33.5 458.25,0 574,0 574,-33.5"/>
<text xml:space="preserve" text-anchor="start" x="466.25" y="-20" font-family="Helvetica,sans-Serif" font-size="10.00">m_parameter_effect</text>
<text xml:space="preserve" text-anchor="middle" x="516.12" y="-7.25" font-family="Helvetica,sans-Serif" font-size="10.00">_rep_update</text>
</a>
</g>
</g>
<!-- Node3&#45;&gt;Node4 -->
<g id="edge3_Node000003_Node000004" class="edge">
<title>Node3&#45;&gt;Node4</title>
<g id="a_edge3_Node000003_Node000004"><a xlink:title=" ">
<path fill="none" stroke="#63b8ff" d="M422.55,-16.75C430.38,-16.75 438.54,-16.75 446.64,-16.75"/>
<polygon fill="#63b8ff" stroke="#63b8ff" points="446.48,-20.25 456.48,-16.75 446.48,-13.25 446.48,-20.25"/>
</a>
</g>
</g>
</g>
</svg>
