<?xml version="1.0" encoding="UTF-8" standalone="no"?>
<!DOCTYPE svg PUBLIC "-//W3C//DTD SVG 1.1//EN"
 "http://www.w3.org/Graphics/SVG/1.1/DTD/svg11.dtd">
<!-- Generated by graphviz version 13.1.2 (20250808.2320)
 -->
<!-- Title: init_setting_str Pages: 1 -->
<svg width="626pt" height="327pt"
 viewBox="0.00 0.00 626.00 327.00" xmlns="http://www.w3.org/2000/svg" xmlns:xlink="http://www.w3.org/1999/xlink">
<g id="graph0" class="graph" transform="scale(1 1) rotate(0) translate(4 323.12)">
<title>init_setting_str</title>
<!-- Node1 -->
<g id="Node000001" class="node">
<title>Node1</title>
<g id="a_Node000001"><a xlink:title=" ">
<polygon fill="#999999" stroke="#666666" points="618.25,-124.12 529.5,-124.12 529.5,-103.38 618.25,-103.38 618.25,-124.12"/>
<text xml:space="preserve" text-anchor="middle" x="573.88" y="-110.62" font-family="Helvetica,sans-Serif" font-size="10.00">init_setting_str</text>
</a>
</g>
</g>
<!-- Node2 -->
<g id="Node000002" class="node">
<title>Node2</title>
<g id="a_Node000002"><a xlink:href="m__parameter_8c.html#a01d8020e75875c0fb5092d393faad3f8" target="_top" xlink:title=" ">
<polygon fill="white" stroke="#666666" points="456,-124.12 374.75,-124.12 374.75,-103.38 456,-103.38 456,-124.12"/>
<text xml:space="preserve" text-anchor="middle" x="415.38" y="-110.62" font-family="Helvetica,sans-Serif" font-size="10.00">clone_setting</text>
</a>
</g>
</g>
<!-- Node1&#45;&gt;Node2 -->
<g id="edge1_Node000001_Node000002" class="edge">
<title>Node1&#45;&gt;Node2</title>
<g id="a_edge1_Node000001_Node000002"><a xlink:title=" ">
<path fill="none" stroke="#63b8ff" d="M517.95,-113.75C497.62,-113.75 474.99,-113.75 456.25,-113.75"/>
<polygon fill="#63b8ff" stroke="#63b8ff" points="517.77,-117.25 527.77,-113.75 517.77,-110.25 517.77,-117.25"/>
</a>
</g>
</g>
<!-- Node20 -->
<g id="Node000020" class="node">
<title>Node20</title>
<g id="a_Node000020"><a xlink:href="m__dict__extract_8c.html#a2c927aa00cbc38a960601717ff0f44b6" target="_top" xlink:title=" ">
<polygon fill="white" stroke="#666666" points="493.5,-56.12 337.25,-56.12 337.25,-35.38 493.5,-35.38 493.5,-56.12"/>
<text xml:space="preserve" text-anchor="middle" x="415.38" y="-42.62" font-family="Helvetica,sans-Serif" font-size="10.00">m_extract_setting_from_dict</text>
</a>
</g>
</g>
<!-- Node1&#45;&gt;Node20 -->
<g id="edge7_Node000001_Node000020" class="edge">
<title>Node1&#45;&gt;Node20</title>
<g id="a_edge7_Node000001_Node000020"><a xlink:title=" ">
<path fill="none" stroke="#63b8ff" d="M537.86,-98.53C508.53,-85.79 467.39,-67.92 441.32,-56.59"/>
<polygon fill="#63b8ff" stroke="#63b8ff" points="536.12,-101.6 546.69,-102.37 538.91,-95.18 536.12,-101.6"/>
</a>
</g>
</g>
<!-- Node25 -->
<g id="Node000025" class="node">
<title>Node25</title>
<g id="a_Node000025"><a xlink:href="m__transformer_8c.html#a4b21bfc3b004c3d05f667e4eb16fbbf6" target="_top" xlink:title=" ">
<polygon fill="white" stroke="#666666" points="483.38,-221.12 347.38,-221.12 347.38,-200.38 483.38,-200.38 483.38,-221.12"/>
<text xml:space="preserve" text-anchor="middle" x="415.38" y="-207.62" font-family="Helvetica,sans-Serif" font-size="10.00">transformer_add_setting</text>
</a>
</g>
</g>
<!-- Node1&#45;&gt;Node25 -->
<g id="edge10_Node000001_Node000025" class="edge">
<title>Node1&#45;&gt;Node25</title>
<g id="a_edge10_Node000001_Node000025"><a xlink:title=" ">
<path fill="none" stroke="#63b8ff" d="M545.87,-130.48C513.73,-150.41 460.99,-183.1 433.8,-199.95"/>
<polygon fill="#63b8ff" stroke="#63b8ff" points="547.59,-133.54 554.24,-125.3 543.9,-127.59 547.59,-133.54"/>
</a>
</g>
</g>
<!-- Node3 -->
<g id="Node000003" class="node">
<title>Node3</title>
<g id="a_Node000003"><a xlink:href="m__transformer_8c.html#a13f55525e23d6a0163de168ab817556f" target="_top" xlink:title=" ">
<polygon fill="white" stroke="#666666" points="289.62,-163.12 184.38,-163.12 184.38,-142.38 289.62,-142.38 289.62,-163.12"/>
<text xml:space="preserve" text-anchor="middle" x="237" y="-149.62" font-family="Helvetica,sans-Serif" font-size="10.00">clone_transformer</text>
</a>
</g>
</g>
<!-- Node2&#45;&gt;Node3 -->
<g id="edge2_Node000002_Node000003" class="edge">
<title>Node2&#45;&gt;Node3</title>
<g id="a_edge2_Node000002_Node000003"><a xlink:title=" ">
<path fill="none" stroke="#63b8ff" d="M363.31,-125.04C339.28,-130.36 310.75,-136.66 286.99,-141.92"/>
<polygon fill="#63b8ff" stroke="#63b8ff" points="363.87,-128.5 372.87,-122.93 362.36,-121.67 363.87,-128.5"/>
</a>
</g>
</g>
<!-- Node6 -->
<g id="Node000006" class="node">
<title>Node6</title>
<g id="a_Node000006"><a xlink:href="m__parameter_8c.html#aecb39f1856818ad96694eb89242b4f57" target="_top" xlink:title=" ">
<polygon fill="white" stroke="#666666" points="301.25,-124.12 172.75,-124.12 172.75,-103.38 301.25,-103.38 301.25,-124.12"/>
<text xml:space="preserve" text-anchor="middle" x="237" y="-110.62" font-family="Helvetica,sans-Serif" font-size="10.00">m_setting_make_clone</text>
</a>
</g>
</g>
<!-- Node2&#45;&gt;Node6 -->
<g id="edge4_Node000002_Node000006" class="edge">
<title>Node2&#45;&gt;Node6</title>
<g id="a_edge4_Node000002_Node000006"><a xlink:title=" ">
<path fill="none" stroke="#63b8ff" d="M362.85,-113.75C343.73,-113.75 321.81,-113.75 301.73,-113.75"/>
<polygon fill="#63b8ff" stroke="#63b8ff" points="362.84,-117.25 372.84,-113.75 362.84,-110.25 362.84,-117.25"/>
</a>
</g>
</g>
<!-- Node7 -->
<g id="Node000007" class="node">
<title>Node7</title>
<g id="a_Node000007"><a xlink:href="m__parameter_8c.html#a10cf40edafca13491af838e08ec2f116" target="_top" xlink:title=" ">
<polygon fill="white" stroke="#666666" points="301.25,-85.5 172.75,-85.5 172.75,-52 301.25,-52 301.25,-85.5"/>
<text xml:space="preserve" text-anchor="start" x="180.75" y="-72" font-family="Helvetica,sans-Serif" font-size="10.00">m_setting_make_clone</text>
<text xml:space="preserve" text-anchor="middle" x="237" y="-59.25" font-family="Helvetica,sans-Serif" font-size="10.00">_for_transformer</text>
</a>
</g>
</g>
<!-- Node2&#45;&gt;Node7 -->
<g id="edge5_Node000002_Node000007" class="edge">
<title>Node2&#45;&gt;Node7</title>
<g id="a_edge5_Node000002_Node000007"><a xlink:title=" ">
<path fill="none" stroke="#63b8ff" d="M363.39,-100.74C344.14,-95.83 322,-90.18 301.73,-85.01"/>
<polygon fill="#63b8ff" stroke="#63b8ff" points="362.33,-104.08 372.89,-103.16 364.06,-97.3 362.33,-104.08"/>
</a>
</g>
</g>
<!-- Node4 -->
<g id="Node000004" class="node">
<title>Node4</title>
<g id="a_Node000004"><a xlink:href="m__pipeline_8c.html#aac299a6a652e5e6e6832d2803635893c" target="_top" xlink:title=" ">
<polygon fill="#fff0f0" stroke="red" points="111.62,-163.12 25.12,-163.12 25.12,-142.38 111.62,-142.38 111.62,-163.12"/>
<text xml:space="preserve" text-anchor="middle" x="68.38" y="-149.62" font-family="Helvetica,sans-Serif" font-size="10.00">clone_pipeline</text>
</a>
</g>
</g>
<!-- Node3&#45;&gt;Node4 -->
<g id="edge3_Node000003_Node000004" class="edge">
<title>Node3&#45;&gt;Node4</title>
<g id="a_edge3_Node000003_Node000004"><a xlink:title=" ">
<path fill="none" stroke="#63b8ff" d="M172.78,-152.75C152.44,-152.75 130.41,-152.75 111.93,-152.75"/>
<polygon fill="#63b8ff" stroke="#63b8ff" points="172.68,-156.25 182.68,-152.75 172.68,-149.25 172.68,-156.25"/>
</a>
</g>
</g>
<!-- Node8 -->
<g id="Node000008" class="node">
<title>Node8</title>
<g id="a_Node000008"><a xlink:href="m__transformer_8c.html#a82e07502ed806f5697b6bd564f934b39" target="_top" xlink:title=" ">
<polygon fill="#fff0f0" stroke="red" points="130,-85.5 6.75,-85.5 6.75,-52 130,-52 130,-85.5"/>
<text xml:space="preserve" text-anchor="start" x="14.75" y="-72" font-family="Helvetica,sans-Serif" font-size="10.00">init_transformer_from</text>
<text xml:space="preserve" text-anchor="middle" x="68.38" y="-59.25" font-family="Helvetica,sans-Serif" font-size="10.00">_effect_desc</text>
</a>
</g>
</g>
<!-- Node7&#45;&gt;Node8 -->
<g id="edge6_Node000007_Node000008" class="edge">
<title>Node7&#45;&gt;Node8</title>
<g id="a_edge6_Node000007_Node000008"><a xlink:title=" ">
<path fill="none" stroke="#63b8ff" d="M161.07,-68.75C150.83,-68.75 140.42,-68.75 130.47,-68.75"/>
<polygon fill="#63b8ff" stroke="#63b8ff" points="161.02,-72.25 171.02,-68.75 161.02,-65.25 161.02,-72.25"/>
</a>
</g>
</g>
<!-- Node21 -->
<g id="Node000021" class="node">
<title>Node21</title>
<g id="a_Node000021"><a xlink:href="m__eff__section_8c.html#a9697c17a9fd076c0112f8b1942c63ce4" target="_top" xlink:title=" ">
<polygon fill="white" stroke="#666666" points="292.25,-33.5 181.75,-33.5 181.75,0 292.25,0 292.25,-33.5"/>
<text xml:space="preserve" text-anchor="start" x="189.75" y="-20" font-family="Helvetica,sans-Serif" font-size="10.00">m_settings_section</text>
<text xml:space="preserve" text-anchor="middle" x="237" y="-7.25" font-family="Helvetica,sans-Serif" font-size="10.00">_extract</text>
</a>
</g>
</g>
<!-- Node20&#45;&gt;Node21 -->
<g id="edge8_Node000020_Node000021" class="edge">
<title>Node20&#45;&gt;Node21</title>
<g id="a_edge8_Node000020_Node000021"><a xlink:title=" ">
<path fill="none" stroke="#63b8ff" d="M337.1,-33.04C322.11,-30.58 306.69,-28.04 292.61,-25.73"/>
<polygon fill="#63b8ff" stroke="#63b8ff" points="336.52,-36.5 346.96,-34.66 337.66,-29.59 336.52,-36.5"/>
</a>
</g>
</g>
<!-- Node22 -->
<g id="Node000022" class="node">
<title>Node22</title>
<g id="a_Node000022"><a xlink:href="m__eff__parser_8c.html#a094727fab3d645bca2ba21a44ecc5749" target="_top" xlink:title=" ">
<polygon fill="#fff0f0" stroke="red" points="116.12,-27.12 20.62,-27.12 20.62,-6.38 116.12,-6.38 116.12,-27.12"/>
<text xml:space="preserve" text-anchor="middle" x="68.38" y="-13.62" font-family="Helvetica,sans-Serif" font-size="10.00">m_parse_tokens</text>
</a>
</g>
</g>
<!-- Node21&#45;&gt;Node22 -->
<g id="edge9_Node000021_Node000022" class="edge">
<title>Node21&#45;&gt;Node22</title>
<g id="a_edge9_Node000021_Node000022"><a xlink:title=" ">
<path fill="none" stroke="#63b8ff" d="M170.16,-16.75C152.23,-16.75 133.16,-16.75 116.5,-16.75"/>
<polygon fill="#63b8ff" stroke="#63b8ff" points="169.93,-20.25 179.93,-16.75 169.93,-13.25 169.93,-20.25"/>
</a>
</g>
</g>
<!-- Node25&#45;&gt;Node3 -->
<g id="edge11_Node000025_Node000003" class="edge">
<title>Node25&#45;&gt;Node3</title>
<g id="a_edge11_Node000025_Node000003"><a xlink:title=" ">
<path fill="none" stroke="#63b8ff" d="M372.11,-196.35C350.88,-189.17 324.73,-180.41 301.25,-172.75 291.94,-169.72 281.84,-166.49 272.5,-163.54"/>
<polygon fill="#63b8ff" stroke="#63b8ff" points="370.7,-199.57 381.3,-199.47 372.95,-192.94 370.7,-199.57"/>
</a>
</g>
</g>
<!-- Node26 -->
<g id="Node000026" class="node">
<title>Node26</title>
<g id="a_Node000026"><a xlink:href="m__transformer__init_8c.html#a8e3dcefb76c26c387aae3416028b280e" target="_top" xlink:title=" ">
<polygon fill="white" stroke="#666666" points="277.62,-319.12 196.38,-319.12 196.38,-298.38 277.62,-298.38 277.62,-319.12"/>
<text xml:space="preserve" text-anchor="middle" x="237" y="-305.62" font-family="Helvetica,sans-Serif" font-size="10.00">init_amplifier</text>
</a>
</g>
</g>
<!-- Node25&#45;&gt;Node26 -->
<g id="edge12_Node000025_Node000026" class="edge">
<title>Node25&#45;&gt;Node26</title>
<g id="a_edge12_Node000025_Node000026"><a xlink:title=" ">
<path fill="none" stroke="#63b8ff" d="M392.8,-228.55C370.89,-245.9 335.41,-272.04 301.25,-288.75 293.9,-292.34 285.77,-295.48 277.85,-298.14"/>
<polygon fill="#63b8ff" stroke="#63b8ff" points="394.81,-231.42 400.41,-222.43 390.43,-225.97 394.81,-231.42"/>
</a>
</g>
</g>
<!-- Node28 -->
<g id="Node000028" class="node">
<title>Node28</title>
<g id="a_Node000028"><a xlink:href="m__transformer__init_8c.html#af83b4eb6904f354217fd7634509d7598" target="_top" xlink:title=" ">
<polygon fill="white" stroke="#666666" points="269,-280.12 205,-280.12 205,-259.38 269,-259.38 269,-280.12"/>
<text xml:space="preserve" text-anchor="middle" x="237" y="-266.62" font-family="Helvetica,sans-Serif" font-size="10.00">init_delay</text>
</a>
</g>
</g>
<!-- Node25&#45;&gt;Node28 -->
<g id="edge14_Node000025_Node000028" class="edge">
<title>Node25&#45;&gt;Node28</title>
<g id="a_edge14_Node000025_Node000028"><a xlink:title=" ">
<path fill="none" stroke="#63b8ff" d="M373.05,-225.28C351.66,-232.73 325.1,-241.87 301.25,-249.75 290.86,-253.18 279.47,-256.82 269.26,-260.04"/>
<polygon fill="#63b8ff" stroke="#63b8ff" points="374,-228.66 382.29,-222.06 371.69,-222.05 374,-228.66"/>
</a>
</g>
</g>
<!-- Node29 -->
<g id="Node000029" class="node">
<title>Node29</title>
<g id="a_Node000029"><a xlink:href="m__transformer__init_8c.html#a08e5861bc5e027fd53179f4224cbf5ce" target="_top" xlink:title=" ">
<polygon fill="white" stroke="#666666" points="278.75,-241.12 195.25,-241.12 195.25,-220.38 278.75,-220.38 278.75,-241.12"/>
<text xml:space="preserve" text-anchor="middle" x="237" y="-227.62" font-family="Helvetica,sans-Serif" font-size="10.00">init_distortion</text>
</a>
</g>
</g>
<!-- Node25&#45;&gt;Node29 -->
<g id="edge16_Node000025_Node000029" class="edge">
<title>Node25&#45;&gt;Node29</title>
<g id="a_edge16_Node000025_Node000029"><a xlink:title=" ">
<path fill="none" stroke="#63b8ff" d="M335.56,-219.69C316.07,-221.9 295.95,-224.18 279.09,-226.09"/>
<polygon fill="#63b8ff" stroke="#63b8ff" points="335.89,-223.17 345.44,-218.57 335.11,-216.22 335.89,-223.17"/>
</a>
</g>
</g>
<!-- Node30 -->
<g id="Node000030" class="node">
<title>Node30</title>
<g id="a_Node000030"><a xlink:href="m__transformer__init_8c.html#aea025ebef7d78736af6268ead37c48c9" target="_top" xlink:title=" ">
<polygon fill="white" stroke="#666666" points="272.75,-202.12 201.25,-202.12 201.25,-181.38 272.75,-181.38 272.75,-202.12"/>
<text xml:space="preserve" text-anchor="middle" x="237" y="-188.62" font-family="Helvetica,sans-Serif" font-size="10.00">init_flanger</text>
</a>
</g>
</g>
<!-- Node25&#45;&gt;Node30 -->
<g id="edge18_Node000025_Node000030" class="edge">
<title>Node25&#45;&gt;Node30</title>
<g id="a_edge18_Node000025_Node000030"><a xlink:title=" ">
<path fill="none" stroke="#63b8ff" d="M335.55,-202.26C313.58,-199.89 290.82,-197.44 272.82,-195.5"/>
<polygon fill="#63b8ff" stroke="#63b8ff" points="335.12,-205.73 345.44,-203.32 335.87,-198.77 335.12,-205.73"/>
</a>
</g>
</g>
<!-- Node27 -->
<g id="Node000027" class="node">
<title>Node27</title>
<g id="a_Node000027"><a xlink:href="m__transformer__init_8c.html#af3678329232371431470ab1777c18a79" target="_top" xlink:title=" ">
<polygon fill="white" stroke="#666666" points="136.75,-260.12 0,-260.12 0,-239.38 136.75,-239.38 136.75,-260.12"/>
<text xml:space="preserve" text-anchor="middle" x="68.38" y="-246.62" font-family="Helvetica,sans-Serif" font-size="10.00">init_transformer_of_type</text>
</a>
</g>
</g>
<!-- Node26&#45;&gt;Node27 -->
<g id="edge13_Node000026_Node000027" class="edge">
<title>Node26&#45;&gt;Node27</title>
<g id="a_edge13_Node000026_Node000027"><a xlink:title=" ">
<path fill="none" stroke="#63b8ff" d="M189.6,-294.4C183.91,-292.54 178.19,-290.63 172.75,-288.75 146.83,-279.77 117.61,-268.65 96.87,-260.59"/>
<polygon fill="#63b8ff" stroke="#63b8ff" points="188.4,-297.69 198.99,-297.41 190.54,-291.02 188.4,-297.69"/>
</a>
</g>
</g>
<!-- Node28&#45;&gt;Node27 -->
<g id="edge15_Node000028_Node000027" class="edge">
<title>Node28&#45;&gt;Node27</title>
<g id="a_edge15_Node000028_Node000027"><a xlink:title=" ">
<path fill="none" stroke="#63b8ff" d="M193.36,-264.63C176.27,-262.58 156.16,-260.17 137.16,-257.89"/>
<polygon fill="#63b8ff" stroke="#63b8ff" points="192.81,-268.09 203.16,-265.81 193.64,-261.14 192.81,-268.09"/>
</a>
</g>
</g>
<!-- Node29&#45;&gt;Node27 -->
<g id="edge17_Node000029_Node000027" class="edge">
<title>Node29&#45;&gt;Node27</title>
<g id="a_edge17_Node000029_Node000027"><a xlink:title=" ">
<path fill="none" stroke="#63b8ff" d="M183.81,-236.7C168.97,-238.39 152.6,-240.26 137,-242.04"/>
<polygon fill="#63b8ff" stroke="#63b8ff" points="183.77,-240.23 193.31,-235.62 182.98,-233.27 183.77,-240.23"/>
</a>
</g>
</g>
<!-- Node30&#45;&gt;Node27 -->
<g id="edge19_Node000030_Node000027" class="edge">
<title>Node30&#45;&gt;Node27</title>
<g id="a_edge19_Node000030_Node000027"><a xlink:title=" ">
<path fill="none" stroke="#63b8ff" d="M189.83,-206.08C184.07,-207.95 178.26,-209.87 172.75,-211.75 147.24,-220.47 118.47,-231.11 97.77,-238.91"/>
<polygon fill="#63b8ff" stroke="#63b8ff" points="190.88,-209.42 199.34,-203.03 188.75,-202.75 190.88,-209.42"/>
</a>
</g>
</g>
</g>
</svg>
