<?xml version="1.0" encoding="UTF-8" standalone="no"?>
<!DOCTYPE svg PUBLIC "-//W3C//DTD SVG 1.1//EN"
 "http://www.w3.org/Graphics/SVG/1.1/DTD/svg11.dtd">
<!-- Generated by graphviz version 13.1.2 (20250808.2320)
 -->
<!-- Title: gut_setting Pages: 1 -->
<!--zoomable 147 -->

<svg id="main" version="1.1" xmlns="http://www.w3.org/2000/svg" xmlns:xlink="http://www.w3.org/1999/xlink" xml:space="preserve" onload="init(evt)">

<style type="text/css"><![CDATA[
.node, .edge {opacity: 0.7;}
.node.selected, .edge.selected {opacity: 1;}
.edge:hover path { stroke: red; }
.edge:hover polygon { stroke: red; fill: red; }
]]></style>

<defs>
  <circle id="rim" cx="0" cy="0" r="7"/>
  <circle id="rim2" cx="0" cy="0" r="3.5"/>
  <g id="zoomPlus">
    <use xlink:href="#rim" fill="#404040"><set attributeName="fill" to="#808080" begin="zoomplus.mouseover" end="zoomplus.mouseout"/></use>
    <path d="M-4,0h8M0,-4v8" fill="none" stroke="white" stroke-width="1.5" pointer-events="none"/>
  </g>
  <g id="zoomMin">
    <use xlink:href="#rim" fill="#404040"><set attributeName="fill" to="#808080" begin="zoomminus.mouseover" end="zoomminus.mouseout"/></use>
    <path d="M-4,0h8" fill="none" stroke="white" stroke-width="1.5" pointer-events="none"/>
  </g>
  <g id="arrowUp" transform="translate(30 24)">
    <use xlink:href="#rim"/>
    <path pointer-events="none" fill="none" stroke="white" stroke-width="1.5" d="M0,-3.0v7 M-2.5,-0.5L0,-3.0L2.5,-0.5"/>
  </g>
  <g id="arrowRight" transform="rotate(90) translate(36 -43)">
    <use xlink:href="#rim"/>
    <path pointer-events="none" fill="none" stroke="white" stroke-width="1.5" d="M0,-3.0v7 M-2.5,-0.5L0,-3.0L2.5,-0.5"/>
  </g>
  <g id="arrowDown" transform="rotate(180) translate(-30 -48)">
    <use xlink:href="#rim"/>
    <path pointer-events="none" fill="none" stroke="white" stroke-width="1.5" d="M0,-3.0v7 M-2.5,-0.5L0,-3.0L2.5,-0.5"/>
  </g>
  <g id="arrowLeft" transform="rotate(270) translate(-36 17)">
    <use xlink:href="#rim"/>
    <path pointer-events="none" fill="none" stroke="white" stroke-width="1.5" d="M0,-3.0v7 M-2.5,-0.5L0,-3.0L2.5,-0.5"/>
  </g>
  <g id="resetDef">
    <use xlink:href="#rim2" fill="#404040"><set attributeName="fill" to="#808080" begin="reset.mouseover" end="reset.mouseout"/></use>
  </g>
</defs>
<script type="application/ecmascript">
var viewWidth = 600;
var viewHeight = 147;
var sectionId = 'dynsection-6';
</script>
<script type="application/ecmascript" xlink:href="svg.min.js"/>
<svg id="graph" class="graph">
<g id="viewport">
<title>gut_setting</title>
<!-- Node1 -->
<g id="Node000001" class="node">
<title>Node1</title>
<g id="a_Node000001"><a xlink:title=" ">
<polygon fill="#999999" stroke="#666666" points="592,-99.75 521.25,-99.75 521.25,-79 592,-79 592,-99.75"/>
<text xml:space="preserve" text-anchor="middle" x="556.62" y="-86.25" font-family="Helvetica,sans-Serif" font-size="10.00">gut_setting</text>
</a>
</g>
</g>
<!-- Node2 -->
<g id="Node000002" class="node">
<title>Node2</title>
<g id="a_Node000002"><a xlink:href="m__effect_8c.html#a7863c6000c7532060ebfd7163a6ede45" target="_top" xlink:title=" ">
<polygon fill="white" stroke="#666666" points="439.88,-138.75 374.38,-138.75 374.38,-118 439.88,-118 439.88,-138.75"/>
<text xml:space="preserve" text-anchor="middle" x="407.12" y="-125.25" font-family="Helvetica,sans-Serif" font-size="10.00">gut_effect</text>
</a>
</g>
</g>
<!-- Node1&#45;&gt;Node2 -->
<g id="edge1_Node000001_Node000002" class="edge">
<title>Node1&#45;&gt;Node2</title>
<g id="a_edge1_Node000001_Node000002"><a xlink:title=" ">
<path fill="none" stroke="#63b8ff" d="M509.95,-101.78C501.73,-103.99 493.24,-106.26 485.25,-108.38 470.41,-112.3 453.94,-116.58 440.04,-120.18"/>
<polygon fill="#63b8ff" stroke="#63b8ff" points="510.72,-105.2 519.46,-99.21 508.89,-98.44 510.72,-105.2"/>
</a>
</g>
</g>
<!-- Node3 -->
<g id="Node000003" class="node">
<title>Node3</title>
<g id="a_Node000003"><a xlink:href="m__dict__extract_8c.html#a2c927aa00cbc38a960601717ff0f44b6" target="_top" xlink:title=" ">
<polygon fill="white" stroke="#666666" points="485.25,-99.75 329,-99.75 329,-79 485.25,-79 485.25,-99.75"/>
<text xml:space="preserve" text-anchor="middle" x="407.12" y="-86.25" font-family="Helvetica,sans-Serif" font-size="10.00">m_extract_setting_from_dict</text>
</a>
</g>
</g>
<!-- Node1&#45;&gt;Node3 -->
<g id="edge2_Node000001_Node000003" class="edge">
<title>Node1&#45;&gt;Node3</title>
<g id="a_edge2_Node000001_Node000003"><a xlink:title=" ">
<path fill="none" stroke="#63b8ff" d="M509.76,-89.38C502.04,-89.38 493.85,-89.38 485.6,-89.38"/>
<polygon fill="#63b8ff" stroke="#63b8ff" points="509.53,-92.88 519.53,-89.38 509.53,-85.88 509.53,-92.88"/>
</a>
</g>
</g>
<!-- Node11 -->
<g id="Node000011" class="node">
<title>Node11</title>
<g id="a_Node000011"><a xlink:href="m__parameter_8c.html#a60a3bd7a32ab88ebec891bd9cde1ee26" target="_top" xlink:title=" ">
<polygon fill="white" stroke="#666666" points="451.88,-59.75 362.38,-59.75 362.38,-39 451.88,-39 451.88,-59.75"/>
<text xml:space="preserve" text-anchor="middle" x="407.12" y="-46.25" font-family="Helvetica,sans-Serif" font-size="10.00">m_setting_free</text>
</a>
</g>
</g>
<!-- Node1&#45;&gt;Node11 -->
<g id="edge5_Node000001_Node000011" class="edge">
<title>Node1&#45;&gt;Node11</title>
<g id="a_edge5_Node000001_Node000011"><a xlink:title=" ">
<path fill="none" stroke="#63b8ff" d="M510.08,-77.02C490.22,-71.64 467.14,-65.38 447.97,-60.18"/>
<polygon fill="#63b8ff" stroke="#63b8ff" points="509.01,-80.36 519.58,-79.6 510.85,-73.61 509.01,-80.36"/>
</a>
</g>
</g>
<!-- Node4 -->
<g id="Node000004" class="node">
<title>Node4</title>
<g id="a_Node000004"><a xlink:href="m__eff__section_8c.html#a9697c17a9fd076c0112f8b1942c63ce4" target="_top" xlink:title=" ">
<polygon fill="white" stroke="#666666" points="293,-108.12 182.5,-108.12 182.5,-74.62 293,-74.62 293,-108.12"/>
<text xml:space="preserve" text-anchor="start" x="190.5" y="-94.62" font-family="Helvetica,sans-Serif" font-size="10.00">m_settings_section</text>
<text xml:space="preserve" text-anchor="middle" x="237.75" y="-81.88" font-family="Helvetica,sans-Serif" font-size="10.00">_extract</text>
</a>
</g>
</g>
<!-- Node3&#45;&gt;Node4 -->
<g id="edge3_Node000003_Node000004" class="edge">
<title>Node3&#45;&gt;Node4</title>
<g id="a_edge3_Node000003_Node000004"><a xlink:title=" ">
<path fill="none" stroke="#63b8ff" d="M317.54,-90.43C309.29,-90.53 301.1,-90.63 293.3,-90.72"/>
<polygon fill="#63b8ff" stroke="#63b8ff" points="317.34,-93.94 327.29,-90.32 317.25,-86.94 317.34,-93.94"/>
</a>
</g>
</g>
<!-- Node5 -->
<g id="Node000005" class="node">
<title>Node5</title>
<g id="a_Node000005"><a xlink:href="m__eff__parser_8c.html#a094727fab3d645bca2ba21a44ecc5749" target="_top" xlink:title=" ">
<polygon fill="#fff0f0" stroke="red" points="121,-101.75 25.5,-101.75 25.5,-81 121,-81 121,-101.75"/>
<text xml:space="preserve" text-anchor="middle" x="73.25" y="-88.25" font-family="Helvetica,sans-Serif" font-size="10.00">m_parse_tokens</text>
</a>
</g>
</g>
<!-- Node4&#45;&gt;Node5 -->
<g id="edge4_Node000004_Node000005" class="edge">
<title>Node4&#45;&gt;Node5</title>
<g id="a_edge4_Node000004_Node000005"><a xlink:title=" ">
<path fill="none" stroke="#63b8ff" d="M170.88,-91.38C154.28,-91.38 136.79,-91.38 121.33,-91.38"/>
<polygon fill="#63b8ff" stroke="#63b8ff" points="170.67,-94.88 180.67,-91.38 170.67,-87.88 170.67,-94.88"/>
</a>
</g>
</g>
<!-- Node12 -->
<g id="Node000012" class="node">
<title>Node12</title>
<g id="a_Node000012"><a xlink:href="m__effect_8c.html#ae44e06e64b2aa5377a7ef568c7f5eb08" target="_top" xlink:title=" ">
<polygon fill="white" stroke="#666666" points="272.38,-56.75 203.12,-56.75 203.12,-36 272.38,-36 272.38,-56.75"/>
<text xml:space="preserve" text-anchor="middle" x="237.75" y="-43.25" font-family="Helvetica,sans-Serif" font-size="10.00">free_effect</text>
</a>
</g>
</g>
<!-- Node11&#45;&gt;Node12 -->
<g id="edge6_Node000011_Node000012" class="edge">
<title>Node11&#45;&gt;Node12</title>
<g id="a_edge6_Node000011_Node000012"><a xlink:title=" ">
<path fill="none" stroke="#63b8ff" d="M350.98,-48.39C325.12,-47.92 295.13,-47.39 272.66,-46.98"/>
<polygon fill="#63b8ff" stroke="#63b8ff" points="350.57,-51.88 360.64,-48.56 350.7,-44.88 350.57,-51.88"/>
</a>
</g>
</g>
<!-- Node13 -->
<g id="Node000013" class="node">
<title>Node13</title>
<g id="a_Node000013"><a xlink:href="m__pipeline_8c.html#a7290514b79b5386d9e30893c685c5018" target="_top" xlink:title=" ">
<polygon fill="#fff0f0" stroke="red" points="111.25,-59.75 35.25,-59.75 35.25,-39 111.25,-39 111.25,-59.75"/>
<text xml:space="preserve" text-anchor="middle" x="73.25" y="-46.25" font-family="Helvetica,sans-Serif" font-size="10.00">gut_pipeline</text>
</a>
</g>
</g>
<!-- Node12&#45;&gt;Node13 -->
<g id="edge7_Node000012_Node000013" class="edge">
<title>Node12&#45;&gt;Node13</title>
<g id="a_edge7_Node000012_Node000013"><a xlink:title=" ">
<path fill="none" stroke="#63b8ff" d="M191.24,-47.22C166.14,-47.68 135.36,-48.25 111.67,-48.68"/>
<polygon fill="#63b8ff" stroke="#63b8ff" points="191.24,-50.72 201.17,-47.03 191.11,-43.72 191.24,-50.72"/>
</a>
</g>
</g>
<!-- Node38 -->
<g id="Node000038" class="node">
<title>Node38</title>
<g id="a_Node000038"><a xlink:href="m__pipeline_8c.html#a031ea8fe9ffc3448df59a7daa26120d5" target="_top" xlink:title=" ">
<polygon fill="#fff0f0" stroke="red" points="146.5,-20.75 0,-20.75 0,0 146.5,0 146.5,-20.75"/>
<text xml:space="preserve" text-anchor="middle" x="73.25" y="-7.25" font-family="Helvetica,sans-Serif" font-size="10.00">m_pipeline_remove_effect</text>
</a>
</g>
</g>
<!-- Node12&#45;&gt;Node38 -->
<g id="edge8_Node000012_Node000038" class="edge">
<title>Node12&#45;&gt;Node38</title>
<g id="a_edge8_Node000012_Node000038"><a xlink:title=" ">
<path fill="none" stroke="#63b8ff" d="M191.64,-36.38C170.32,-31.66 144.84,-26.01 123.07,-21.19"/>
<polygon fill="#63b8ff" stroke="#63b8ff" points="190.69,-39.75 201.21,-38.5 192.2,-32.92 190.69,-39.75"/>
</a>
</g>
</g>
</g>
</svg>

<g id="navigator" transform="translate(0 0)" fill="#404254">
  <rect fill="#f2f5e9" fill-opacity="0.5" stroke="#606060" stroke-width=".5" x="0" y="0" width="60" height="60"/>
  <use id="zoomplus" xlink:href="#zoomPlus" x="17" y="9" onmousedown="handleZoom(evt,'in')"/>
  <use id="zoomminus" xlink:href="#zoomMin" x="42" y="9" onmousedown="handleZoom(evt,'out')"/>
  <use id="reset" xlink:href="#resetDef" x="30" y="36" onmousedown="handleReset()"/>
   <use id="arrowup" xlink:href="#arrowUp" x="0" y="0" onmousedown="handlePan(0,-1)"/>
  <use id="arrowright" xlink:href="#arrowRight" x="0" y="0" onmousedown="handlePan(1,0)"/>
  <use id="arrowdown" xlink:href="#arrowDown" x="0" y="0" onmousedown="handlePan(0,1)"/>
  <use id="arrowleft" xlink:href="#arrowLeft" x="0" y="0" onmousedown="handlePan(-1,0)"/>
</g>
<svg viewBox="0 0 15 15" width="100%" height="30px" preserveAspectRatio="xMaxYMin meet">
 <g id="arrow_out" transform="scale(0.3 0.3)">
  <a xlink:href="m__parameter_8h_afae735eca0c6dbc04cb0ab691882e4ff_icgraph_org.svg" target="_base">
   <rect id="button" ry="5" rx="5" y="6" x="6" height="38" width="38"
        fill="#f2f5e9" fill-opacity="0.5" stroke="#606060" stroke-width="1.0"/>
   <path id="arrow"
     d="M 11.500037,31.436501 C 11.940474,20.09759 22.043105,11.32322 32.158766,21.979434 L 37.068811,17.246167 C 37.068811,17.246167 37.088388,32 37.088388,32 L 22.160133,31.978069 C 22.160133,31.978069 26.997745,27.140456 26.997745,27.140456 C 18.528582,18.264221 13.291696,25.230495 11.500037,31.436501 z"
     style="fill:#404040;"/>
  </a>
 </g>
</svg>

<style type='text/css'>
<![CDATA[
[data-mouse-over-selected='false'] { opacity: 0.7; }
[data-mouse-over-selected='true']  { opacity: 1.0; }
]]>
</style>
<script type="application/ecmascript"><![CDATA[
document.addEventListener('DOMContentLoaded', (event) => {
  highlightEdges();
  highlightAdjacentNodes();
});
]]></script>
</svg>
