<?xml version="1.0" encoding="UTF-8" standalone="no"?>
<!DOCTYPE svg PUBLIC "-//W3C//DTD SVG 1.1//EN"
 "http://www.w3.org/Graphics/SVG/1.1/DTD/svg11.dtd">
<!-- Generated by graphviz version 13.1.2 (20250808.2320)
 -->
<!-- Title: init_parameter_wni Pages: 1 -->
<svg width="555pt" height="42pt"
 viewBox="0.00 0.00 555.00 42.00" xmlns="http://www.w3.org/2000/svg" xmlns:xlink="http://www.w3.org/1999/xlink">
<g id="graph0" class="graph" transform="scale(1 1) rotate(0) translate(4 37.5)">
<title>init_parameter_wni</title>
<!-- Node1 -->
<g id="Node000001" class="node">
<title>Node1</title>
<g id="a_Node000001"><a xlink:title=" ">
<polygon fill="#999999" stroke="#666666" points="110.5,-27.12 0,-27.12 0,-6.38 110.5,-6.38 110.5,-27.12"/>
<text xml:space="preserve" text-anchor="middle" x="55.25" y="-13.62" font-family="Helvetica,sans-Serif" font-size="10.00">init_parameter_wni</text>
</a>
</g>
</g>
<!-- Node2 -->
<g id="Node000002" class="node">
<title>Node2</title>
<g id="a_Node000002"><a xlink:href="$m__parameter_8c.html#a6920b520347a79341c052f23878c6d2a" xlink:title=" ">
<polygon fill="white" stroke="#666666" points="234.5,-27.12 146.5,-27.12 146.5,-6.38 234.5,-6.38 234.5,-27.12"/>
<text xml:space="preserve" text-anchor="middle" x="190.5" y="-13.62" font-family="Helvetica,sans-Serif" font-size="10.00">init_parameter</text>
</a>
</g>
</g>
<!-- Node1&#45;&gt;Node2 -->
<g id="edge1_Node000001_Node000002" class="edge">
<title>Node1&#45;&gt;Node2</title>
<g id="a_edge1_Node000001_Node000002"><a xlink:title=" ">
<path fill="none" stroke="#63b8ff" d="M110.83,-16.75C118.75,-16.75 126.91,-16.75 134.83,-16.75"/>
<polygon fill="#63b8ff" stroke="#63b8ff" points="134.7,-20.25 144.7,-16.75 134.7,-13.25 134.7,-20.25"/>
</a>
</g>
</g>
<!-- Node3 -->
<g id="Node000003" class="node">
<title>Node3</title>
<g id="a_Node000003"><a xlink:href="$m__parameter_8c.html#a6c029c4379be052a826c3a78b8dd1513" xlink:title=" ">
<polygon fill="white" stroke="#666666" points="386.25,-33.5 270.5,-33.5 270.5,0 386.25,0 386.25,-33.5"/>
<text xml:space="preserve" text-anchor="start" x="278.5" y="-20" font-family="Helvetica,sans-Serif" font-size="10.00">m_parameter_effect</text>
<text xml:space="preserve" text-anchor="middle" x="328.38" y="-7.25" font-family="Helvetica,sans-Serif" font-size="10.00">_rep_update</text>
</a>
</g>
</g>
<!-- Node2&#45;&gt;Node3 -->
<g id="edge2_Node000002_Node000003" class="edge">
<title>Node2&#45;&gt;Node3</title>
<g id="a_edge2_Node000002_Node000003"><a xlink:title=" ">
<path fill="none" stroke="#63b8ff" d="M234.87,-16.75C242.47,-16.75 250.54,-16.75 258.63,-16.75"/>
<polygon fill="#63b8ff" stroke="#63b8ff" points="258.52,-20.25 268.52,-16.75 258.52,-13.25 258.52,-20.25"/>
</a>
</g>
</g>
<!-- Node4 -->
<g id="Node000004" class="node">
<title>Node4</title>
<g id="a_Node000004"><a xlink:href="$m__effect_8c.html#a7ffa53dea58d069a71ce0288e044946b" xlink:title=" ">
<polygon fill="#fff0f0" stroke="red" points="547,-27.12 422.25,-27.12 422.25,-6.38 547,-6.38 547,-27.12"/>
<text xml:space="preserve" text-anchor="middle" x="484.62" y="-13.62" font-family="Helvetica,sans-Serif" font-size="10.00">m_effect_update_reps</text>
</a>
</g>
</g>
<!-- Node3&#45;&gt;Node4 -->
<g id="edge3_Node000003_Node000004" class="edge">
<title>Node3&#45;&gt;Node4</title>
<g id="a_edge3_Node000003_Node000004"><a xlink:title=" ">
<path fill="none" stroke="#63b8ff" d="M386.37,-16.75C394.25,-16.75 402.42,-16.75 410.54,-16.75"/>
<polygon fill="#63b8ff" stroke="#63b8ff" points="410.42,-20.25 420.42,-16.75 410.42,-13.25 410.42,-20.25"/>
</a>
</g>
</g>
</g>
</svg>
