<?xml version="1.0" encoding="UTF-8" standalone="no"?>
<!DOCTYPE svg PUBLIC "-//W3C//DTD SVG 1.1//EN"
 "http://www.w3.org/Graphics/SVG/1.1/DTD/svg11.dtd">
<!-- Generated by graphviz version 13.1.2 (20250808.2320)
 -->
<!-- Title: init_parameter_wni Pages: 1 -->
<svg width="614pt" height="42pt"
 viewBox="0.00 0.00 614.00 42.00" xmlns="http://www.w3.org/2000/svg" xmlns:xlink="http://www.w3.org/1999/xlink">
<g id="graph0" class="graph" transform="scale(1 1) rotate(0) translate(4 37.5)">
<title>init_parameter_wni</title>
<!-- Node1 -->
<g id="Node000001" class="node">
<title>Node1</title>
<g id="a_Node000001"><a xlink:title=" ">
<polygon fill="#999999" stroke="#666666" points="110.5,-27.12 0,-27.12 0,-6.38 110.5,-6.38 110.5,-27.12"/>
<text xml:space="preserve" text-anchor="middle" x="55.25" y="-13.62" font-family="Helvetica,sans-Serif" font-size="10.00">init_parameter_wni</text>
</a>
</g>
</g>
<!-- Node2 -->
<g id="Node000002" class="node">
<title>Node2</title>
<g id="a_Node000002"><a xlink:href="m__parameter_8c.html#a6920b520347a79341c052f23878c6d2a" target="_top" xlink:title=" ">
<polygon fill="white" stroke="#666666" points="234.5,-27.12 146.5,-27.12 146.5,-6.38 234.5,-6.38 234.5,-27.12"/>
<text xml:space="preserve" text-anchor="middle" x="190.5" y="-13.62" font-family="Helvetica,sans-Serif" font-size="10.00">init_parameter</text>
</a>
</g>
</g>
<!-- Node1&#45;&gt;Node2 -->
<g id="edge1_Node000001_Node000002" class="edge">
<title>Node1&#45;&gt;Node2</title>
<g id="a_edge1_Node000001_Node000002"><a xlink:title=" ">
<path fill="none" stroke="#63b8ff" d="M110.83,-16.75C118.75,-16.75 126.91,-16.75 134.83,-16.75"/>
<polygon fill="#63b8ff" stroke="#63b8ff" points="134.7,-20.25 144.7,-16.75 134.7,-13.25 134.7,-20.25"/>
</a>
</g>
</g>
<!-- Node3 -->
<g id="Node000003" class="node">
<title>Node3</title>
<g id="a_Node000003"><a xlink:href="m__parameter_8c.html#a744a766adca7a0a1b6b1aeb3e68548ce" target="_top" xlink:title=" ">
<polygon fill="white" stroke="#666666" points="415.5,-33.5 270.5,-33.5 270.5,0 415.5,0 415.5,-33.5"/>
<text xml:space="preserve" text-anchor="start" x="278.5" y="-20" font-family="Helvetica,sans-Serif" font-size="10.00">m_parameter_transformer</text>
<text xml:space="preserve" text-anchor="middle" x="343" y="-7.25" font-family="Helvetica,sans-Serif" font-size="10.00">_rep_update</text>
</a>
</g>
</g>
<!-- Node2&#45;&gt;Node3 -->
<g id="edge2_Node000002_Node000003" class="edge">
<title>Node2&#45;&gt;Node3</title>
<g id="a_edge2_Node000002_Node000003"><a xlink:title=" ">
<path fill="none" stroke="#63b8ff" d="M234.63,-16.75C242.27,-16.75 250.46,-16.75 258.78,-16.75"/>
<polygon fill="#63b8ff" stroke="#63b8ff" points="258.65,-20.25 268.65,-16.75 258.65,-13.25 258.65,-20.25"/>
</a>
</g>
</g>
<!-- Node4 -->
<g id="Node000004" class="node">
<title>Node4</title>
<g id="a_Node000004"><a xlink:href="m__transformer_8c.html#adbc569abd5065fab7ce28b0d37f9bf1b" target="_top" xlink:title=" ">
<polygon fill="#fff0f0" stroke="red" points="605.5,-27.12 451.5,-27.12 451.5,-6.38 605.5,-6.38 605.5,-27.12"/>
<text xml:space="preserve" text-anchor="middle" x="528.5" y="-13.62" font-family="Helvetica,sans-Serif" font-size="10.00">m_transformer_update_reps</text>
</a>
</g>
</g>
<!-- Node3&#45;&gt;Node4 -->
<g id="edge3_Node000003_Node000004" class="edge">
<title>Node3&#45;&gt;Node4</title>
<g id="a_edge3_Node000003_Node000004"><a xlink:title=" ">
<path fill="none" stroke="#63b8ff" d="M416,-16.75C423.85,-16.75 431.9,-16.75 439.9,-16.75"/>
<polygon fill="#63b8ff" stroke="#63b8ff" points="439.66,-20.25 449.66,-16.75 439.66,-13.25 439.66,-20.25"/>
</a>
</g>
</g>
</g>
</svg>
