<?xml version="1.0" encoding="UTF-8" standalone="no"?>
<!DOCTYPE svg PUBLIC "-//W3C//DTD SVG 1.1//EN"
 "http://www.w3.org/Graphics/SVG/1.1/DTD/svg11.dtd">
<!-- Generated by graphviz version 13.1.2 (20250808.2320)
 -->
<!-- Title: m_pipeline_append_transformer_eff Pages: 1 -->
<svg width="750pt" height="80pt"
 viewBox="0.00 0.00 750.00 80.00" xmlns="http://www.w3.org/2000/svg" xmlns:xlink="http://www.w3.org/1999/xlink">
<g id="graph0" class="graph" transform="scale(1 1) rotate(0) translate(4 76.12)">
<title>m_pipeline_append_transformer_eff</title>
<!-- Node1 -->
<g id="Node000001" class="node">
<title>Node1</title>
<g id="a_Node000001"><a xlink:title=" ">
<polygon fill="#999999" stroke="#666666" points="742,-42.75 549,-42.75 549,-22 742,-22 742,-42.75"/>
<text xml:space="preserve" text-anchor="middle" x="645.5" y="-29.25" font-family="Helvetica,sans-Serif" font-size="10.00">m_pipeline_append_transformer_eff</text>
</a>
</g>
</g>
<!-- Node2 -->
<g id="Node000002" class="node">
<title>Node2</title>
<g id="a_Node000002"><a xlink:href="m__profile_8c.html#a01a263a3178ca21ca06b9815f753b9dc" target="_top" xlink:title=" ">
<polygon fill="white" stroke="#666666" points="513,-42.75 327.5,-42.75 327.5,-22 513,-22 513,-42.75"/>
<text xml:space="preserve" text-anchor="middle" x="420.25" y="-29.25" font-family="Helvetica,sans-Serif" font-size="10.00">m_profile_append_transformer_eff</text>
</a>
</g>
</g>
<!-- Node1&#45;&gt;Node2 -->
<g id="edge1_Node000001_Node000002" class="edge">
<title>Node1&#45;&gt;Node2</title>
<g id="a_edge1_Node000001_Node000002"><a xlink:title=" ">
<path fill="none" stroke="#63b8ff" d="M537.23,-32.38C529.21,-32.38 521.16,-32.38 513.25,-32.38"/>
<polygon fill="#63b8ff" stroke="#63b8ff" points="537.01,-35.88 547.01,-32.38 537.01,-28.88 537.01,-35.88"/>
</a>
</g>
</g>
<!-- Node3 -->
<g id="Node000003" class="node">
<title>Node3</title>
<g id="a_Node000003"><a xlink:href="m__transformer__select_8c.html#a8a60316cc5a79aaf1c656b9523dd54b1" target="_top" xlink:title=" ">
<polygon fill="white" stroke="#666666" points="291.5,-72.12 166,-72.12 166,-38.62 291.5,-38.62 291.5,-72.12"/>
<text xml:space="preserve" text-anchor="start" x="174" y="-58.62" font-family="Helvetica,sans-Serif" font-size="10.00">add_transformer_from</text>
<text xml:space="preserve" text-anchor="middle" x="228.75" y="-45.88" font-family="Helvetica,sans-Serif" font-size="10.00">_menu_eff</text>
</a>
</g>
</g>
<!-- Node2&#45;&gt;Node3 -->
<g id="edge2_Node000002_Node000003" class="edge">
<title>Node2&#45;&gt;Node3</title>
<g id="a_edge2_Node000002_Node000003"><a xlink:title=" ">
<path fill="none" stroke="#63b8ff" d="M318.63,-44.59C309.5,-45.7 300.45,-46.79 291.81,-47.84"/>
<polygon fill="#63b8ff" stroke="#63b8ff" points="318.76,-48.1 328.27,-43.42 317.92,-41.15 318.76,-48.1"/>
</a>
</g>
</g>
<!-- Node10 -->
<g id="Node000010" class="node">
<title>Node10</title>
<g id="a_Node000010"><a xlink:href="m__files_8c.html#aaedbe054d0c35b3489a1efd8231ba33f" target="_top" xlink:title=" ">
<polygon fill="white" stroke="#666666" points="290.75,-20.75 166.75,-20.75 166.75,0 290.75,0 290.75,-20.75"/>
<text xml:space="preserve" text-anchor="middle" x="228.75" y="-7.25" font-family="Helvetica,sans-Serif" font-size="10.00">read_profile_from_file</text>
</a>
</g>
</g>
<!-- Node2&#45;&gt;Node10 -->
<g id="edge4_Node000002_Node000010" class="edge">
<title>Node2&#45;&gt;Node10</title>
<g id="a_edge4_Node000002_Node000010"><a xlink:title=" ">
<path fill="none" stroke="#63b8ff" d="M316.08,-20.4C307.58,-19.41 299.17,-18.43 291.13,-17.5"/>
<polygon fill="#63b8ff" stroke="#63b8ff" points="315.44,-23.85 325.77,-21.52 316.24,-16.89 315.44,-23.85"/>
</a>
</g>
</g>
<!-- Node4 -->
<g id="Node000004" class="node">
<title>Node4</title>
<g id="a_Node000004"><a xlink:href="m__transformer__select_8c.html#a26bc01d09200b28d05f5786f45a0cc59" target="_top" xlink:title=" ">
<polygon fill="#fff0f0" stroke="red" points="130,-72.12 0,-72.12 0,-38.62 130,-38.62 130,-72.12"/>
<text xml:space="preserve" text-anchor="start" x="8" y="-58.62" font-family="Helvetica,sans-Serif" font-size="10.00">create_transformer</text>
<text xml:space="preserve" text-anchor="middle" x="65" y="-45.88" font-family="Helvetica,sans-Serif" font-size="10.00">_selector_button_ui_eff</text>
</a>
</g>
</g>
<!-- Node3&#45;&gt;Node4 -->
<g id="edge3_Node000003_Node000004" class="edge">
<title>Node3&#45;&gt;Node4</title>
<g id="a_edge3_Node000003_Node000004"><a xlink:title=" ">
<path fill="none" stroke="#63b8ff" d="M154.41,-55.38C146.37,-55.38 138.24,-55.38 130.32,-55.38"/>
<polygon fill="#63b8ff" stroke="#63b8ff" points="154.16,-58.88 164.16,-55.38 154.16,-51.88 154.16,-58.88"/>
</a>
</g>
</g>
<!-- Node11 -->
<g id="Node000011" class="node">
<title>Node11</title>
<g id="a_Node000011"><a xlink:href="m__files_8c.html#a8785e4c0fd9fa9638385ef725fe13adb" target="_top" xlink:title=" ">
<polygon fill="#fff0f0" stroke="red" points="121.75,-20.75 8.25,-20.75 8.25,0 121.75,0 121.75,-20.75"/>
<text xml:space="preserve" text-anchor="middle" x="65" y="-7.25" font-family="Helvetica,sans-Serif" font-size="10.00">load_saved_profiles</text>
</a>
</g>
</g>
<!-- Node10&#45;&gt;Node11 -->
<g id="edge5_Node000010_Node000011" class="edge">
<title>Node10&#45;&gt;Node11</title>
<g id="a_edge5_Node000010_Node000011"><a xlink:title=" ">
<path fill="none" stroke="#63b8ff" d="M155.17,-10.38C144.1,-10.38 132.82,-10.38 122.18,-10.38"/>
<polygon fill="#63b8ff" stroke="#63b8ff" points="155.09,-13.88 165.09,-10.38 155.09,-6.88 155.09,-13.88"/>
</a>
</g>
</g>
</g>
</svg>
