<?xml version="1.0" encoding="UTF-8" standalone="no"?>
<!DOCTYPE svg PUBLIC "-//W3C//DTD SVG 1.1//EN"
 "http://www.w3.org/Graphics/SVG/1.1/DTD/svg11.dtd">
<!-- Generated by graphviz version 13.1.2 (20250808.2320)
 -->
<!-- Title: init_profile_settings_page Pages: 1 -->
<svg width="748pt" height="395pt"
 viewBox="0.00 0.00 748.00 395.00" xmlns="http://www.w3.org/2000/svg" xmlns:xlink="http://www.w3.org/1999/xlink">
<g id="graph0" class="graph" transform="scale(1 1) rotate(0) translate(4 390.75)">
<title>init_profile_settings_page</title>
<!-- Node1 -->
<g id="Node000001" class="node">
<title>Node1</title>
<g id="a_Node000001"><a xlink:title=" ">
<polygon fill="#999999" stroke="#666666" points="142,-149.75 0,-149.75 0,-129 142,-129 142,-149.75"/>
<text xml:space="preserve" text-anchor="middle" x="71" y="-136.25" font-family="Helvetica,sans-Serif" font-size="10.00">init_profile_settings_page</text>
</a>
</g>
</g>
<!-- Node2 -->
<g id="Node000002" class="node">
<title>Node2</title>
<g id="a_Node000002"><a xlink:href="m__profile__settings_8c.html#a5c6e9a3a233b71c5aaef4634ed7c8bea" target="_top" xlink:title=" ">
<polygon fill="white" stroke="#666666" points="350,-327.75 178,-327.75 178,-307 350,-307 350,-327.75"/>
<text xml:space="preserve" text-anchor="middle" x="264" y="-314.25" font-family="Helvetica,sans-Serif" font-size="10.00">configure_profile_settings_page</text>
</a>
</g>
</g>
<!-- Node1&#45;&gt;Node2 -->
<g id="edge1_Node000001_Node000002" class="edge">
<title>Node1&#45;&gt;Node2</title>
<g id="a_edge1_Node000001_Node000002"><a xlink:title=" ">
<path fill="none" stroke="#63b8ff" d="M79.62,-150.15C95.93,-172.72 136.14,-225.89 178,-262.38 194.9,-277.1 216.05,-290.81 233.03,-300.85"/>
<polygon fill="#63b8ff" stroke="#63b8ff" points="231.27,-303.87 241.68,-305.85 234.77,-297.82 231.27,-303.87"/>
</a>
</g>
</g>
<!-- Node12 -->
<g id="Node000012" class="node">
<title>Node12</title>
<g id="a_Node000012"><a xlink:href="m__profile__settings_8c.html#ad1beb390b5897b5c5a0057c22d82a3c3" target="_top" xlink:title=" ">
<polygon fill="white" stroke="#666666" points="327.88,-253.12 200.12,-253.12 200.12,-219.62 327.88,-219.62 327.88,-253.12"/>
<text xml:space="preserve" text-anchor="start" x="208.12" y="-239.62" font-family="Helvetica,sans-Serif" font-size="10.00">create_profile_settings</text>
<text xml:space="preserve" text-anchor="middle" x="264" y="-226.88" font-family="Helvetica,sans-Serif" font-size="10.00">_page_ui</text>
</a>
</g>
</g>
<!-- Node1&#45;&gt;Node12 -->
<g id="edge7_Node000001_Node000012" class="edge">
<title>Node1&#45;&gt;Node12</title>
<g id="a_edge7_Node000001_Node000012"><a xlink:title=" ">
<path fill="none" stroke="#63b8ff" d="M85.28,-150.16C104.63,-165.43 142.19,-193.36 178,-210.38 181.7,-212.13 185.55,-213.81 189.48,-215.4"/>
<polygon fill="#63b8ff" stroke="#63b8ff" points="187.99,-218.58 198.58,-218.86 190.48,-212.03 187.99,-218.58"/>
</a>
</g>
</g>
<!-- Node36 -->
<g id="Node000036" class="node">
<title>Node36</title>
<g id="a_Node000036"><a xlink:href="m__profile__settings_8c.html#ad554e5c415ab9b3a36353762dec86ce3" target="_top" xlink:title=" ">
<polygon fill="white" stroke="#666666" points="322.25,-201.12 205.75,-201.12 205.75,-167.62 322.25,-167.62 322.25,-201.12"/>
<text xml:space="preserve" text-anchor="start" x="213.75" y="-187.62" font-family="Helvetica,sans-Serif" font-size="10.00">free_profile_settings</text>
<text xml:space="preserve" text-anchor="middle" x="264" y="-174.88" font-family="Helvetica,sans-Serif" font-size="10.00">_page_ui</text>
</a>
</g>
</g>
<!-- Node1&#45;&gt;Node36 -->
<g id="edge15_Node000001_Node000036" class="edge">
<title>Node1&#45;&gt;Node36</title>
<g id="a_edge15_Node000001_Node000036"><a xlink:title=" ">
<path fill="none" stroke="#63b8ff" d="M117.75,-150.15C140.63,-155.54 168.8,-162.18 194.22,-168.17"/>
<polygon fill="#63b8ff" stroke="#63b8ff" points="193.29,-171.55 203.82,-170.43 194.89,-164.73 193.29,-171.55"/>
</a>
</g>
</g>
<!-- Node37 -->
<g id="Node000037" class="node">
<title>Node37</title>
<g id="a_Node000037"><a xlink:href="m__ui_8c.html#af00906d3db4ae068f5cd832bb5052d83" target="_top" xlink:title=" ">
<polygon fill="white" stroke="#666666" points="301.62,-149.75 226.38,-149.75 226.38,-129 301.62,-129 301.62,-149.75"/>
<text xml:space="preserve" text-anchor="middle" x="264" y="-136.25" font-family="Helvetica,sans-Serif" font-size="10.00">init_ui_page</text>
</a>
</g>
</g>
<!-- Node1&#45;&gt;Node37 -->
<g id="edge16_Node000001_Node000037" class="edge">
<title>Node1&#45;&gt;Node37</title>
<g id="a_edge16_Node000001_Node000037"><a xlink:title=" ">
<path fill="none" stroke="#63b8ff" d="M142.31,-139.38C166.38,-139.38 192.76,-139.38 214.69,-139.38"/>
<polygon fill="#63b8ff" stroke="#63b8ff" points="214.54,-142.88 224.54,-139.38 214.54,-135.88 214.54,-142.88"/>
</a>
</g>
</g>
<!-- Node38 -->
<g id="Node000038" class="node">
<title>Node38</title>
<g id="a_Node000038"><a xlink:href="m__ui_8c.html#ae696464ca3c77e7c324af00fb8292c2a" target="_top" xlink:title=" ">
<polygon fill="white" stroke="#666666" points="298.25,-110.75 229.75,-110.75 229.75,-90 298.25,-90 298.25,-110.75"/>
<text xml:space="preserve" text-anchor="middle" x="264" y="-97.25" font-family="Helvetica,sans-Serif" font-size="10.00">new_panel</text>
</a>
</g>
</g>
<!-- Node1&#45;&gt;Node38 -->
<g id="edge17_Node000001_Node000038" class="edge">
<title>Node1&#45;&gt;Node38</title>
<g id="a_edge17_Node000001_Node000038"><a xlink:title=" ">
<path fill="none" stroke="#63b8ff" d="M125.2,-128.51C154.5,-122.53 190.46,-115.19 218.29,-109.5"/>
<polygon fill="#63b8ff" stroke="#63b8ff" points="218.72,-112.99 227.81,-107.56 217.32,-106.13 218.72,-112.99"/>
</a>
</g>
</g>
<!-- Node40 -->
<g id="Node000040" class="node">
<title>Node40</title>
<g id="a_Node000040"><a xlink:href="m__profile__settings_8c.html#afdad9897a9a649a1fb43c1606ae07567" target="_top" xlink:title=" ">
<polygon fill="white" stroke="#666666" points="324.5,-72.12 203.5,-72.12 203.5,-38.62 324.5,-38.62 324.5,-72.12"/>
<text xml:space="preserve" text-anchor="start" x="211.5" y="-58.62" font-family="Helvetica,sans-Serif" font-size="10.00">profile_settings_page</text>
<text xml:space="preserve" text-anchor="middle" x="264" y="-45.88" font-family="Helvetica,sans-Serif" font-size="10.00">_free_all</text>
</a>
</g>
</g>
<!-- Node1&#45;&gt;Node40 -->
<g id="edge19_Node000001_Node000040" class="edge">
<title>Node1&#45;&gt;Node40</title>
<g id="a_edge19_Node000001_Node000040"><a xlink:title=" ">
<path fill="none" stroke="#63b8ff" d="M89.09,-128.6C109.6,-116.01 145.33,-95.14 178,-81.38 182.6,-79.44 187.4,-77.57 192.27,-75.79"/>
<polygon fill="#63b8ff" stroke="#63b8ff" points="193.29,-79.14 201.58,-72.54 190.98,-72.54 193.29,-79.14"/>
</a>
</g>
</g>
<!-- Node41 -->
<g id="Node000041" class="node">
<title>Node41</title>
<g id="a_Node000041"><a xlink:href="m__profile__settings_8c.html#a92f36281d4558b8a6a7dfcf1dbb7649b" target="_top" xlink:title=" ">
<polygon fill="white" stroke="#666666" points="344.38,-20.75 183.62,-20.75 183.62,0 344.38,0 344.38,-20.75"/>
<text xml:space="preserve" text-anchor="middle" x="264" y="-7.25" font-family="Helvetica,sans-Serif" font-size="10.00">refresh_profile_settings_page</text>
</a>
</g>
</g>
<!-- Node1&#45;&gt;Node41 -->
<g id="edge20_Node000001_Node000041" class="edge">
<title>Node1&#45;&gt;Node41</title>
<g id="a_edge20_Node000001_Node000041"><a xlink:title=" ">
<path fill="none" stroke="#63b8ff" d="M79.04,-128.62C94.23,-106.31 132.45,-54.97 178,-29.38 180.63,-27.9 183.36,-26.54 186.17,-25.28"/>
<polygon fill="#63b8ff" stroke="#63b8ff" points="187.17,-28.65 195.19,-21.73 184.61,-22.13 187.17,-28.65"/>
</a>
</g>
</g>
<!-- Node3 -->
<g id="Node000003" class="node">
<title>Node3</title>
<g id="a_Node000003"><a xlink:href="m__profile_8c.html#a33c84cfd9d7294e4949c6809648774c2" target="_top" xlink:title=" ">
<polygon fill="white" stroke="#666666" points="525,-379.12 402.5,-379.12 402.5,-345.62 525,-345.62 525,-379.12"/>
<text xml:space="preserve" text-anchor="start" x="410.5" y="-365.62" font-family="Helvetica,sans-Serif" font-size="10.00">m_profile_set_default</text>
<text xml:space="preserve" text-anchor="middle" x="463.75" y="-352.88" font-family="Helvetica,sans-Serif" font-size="10.00">_name_from_id</text>
</a>
</g>
</g>
<!-- Node2&#45;&gt;Node3 -->
<g id="edge2_Node000002_Node000003" class="edge">
<title>Node2&#45;&gt;Node3</title>
<g id="a_edge2_Node000002_Node000003"><a xlink:title=" ">
<path fill="none" stroke="#63b8ff" d="M312.62,-328.21C336.12,-333.56 364.96,-340.12 391.06,-346.06"/>
<polygon fill="#63b8ff" stroke="#63b8ff" points="390.05,-349.42 400.58,-348.23 391.6,-342.59 390.05,-349.42"/>
</a>
</g>
</g>
<!-- Node4 -->
<g id="Node000004" class="node">
<title>Node4</title>
<g id="a_Node000004"><a xlink:href="m__ui_8c.html#a1b27d83a1ea548b981c47e9a80bf03ae" target="_top" xlink:title=" ">
<polygon fill="white" stroke="#666666" points="535.12,-327.75 392.38,-327.75 392.38,-307 535.12,-307 535.12,-327.75"/>
<text xml:space="preserve" text-anchor="middle" x="463.75" y="-314.25" font-family="Helvetica,sans-Serif" font-size="10.00">ui_page_add_back_button</text>
</a>
</g>
</g>
<!-- Node2&#45;&gt;Node4 -->
<g id="edge3_Node000002_Node000004" class="edge">
<title>Node2&#45;&gt;Node4</title>
<g id="a_edge3_Node000002_Node000004"><a xlink:title=" ">
<path fill="none" stroke="#63b8ff" d="M350.3,-317.38C360.4,-317.38 370.69,-317.38 380.75,-317.38"/>
<polygon fill="#63b8ff" stroke="#63b8ff" points="380.46,-320.88 390.46,-317.38 380.46,-313.88 380.46,-320.88"/>
</a>
</g>
</g>
<!-- Node5 -->
<g id="Node000005" class="node">
<title>Node5</title>
<g id="a_Node000005"><a xlink:href="m__button_8c.html#abe2023eec9ead06a26633852308e65d4" target="_top" xlink:title=" ">
<polygon fill="white" stroke="#666666" points="720.25,-386.75 597,-386.75 597,-366 720.25,-366 720.25,-386.75"/>
<text xml:space="preserve" text-anchor="middle" x="658.62" y="-373.25" font-family="Helvetica,sans-Serif" font-size="10.00">button_set_clicked_cb</text>
</a>
</g>
</g>
<!-- Node4&#45;&gt;Node5 -->
<g id="edge4_Node000004_Node000005" class="edge">
<title>Node4&#45;&gt;Node5</title>
<g id="a_edge4_Node000004_Node000005"><a xlink:title=" ">
<path fill="none" stroke="#63b8ff" d="M516.53,-328.2C525,-330.54 533.58,-333.26 541.5,-336.38 558.53,-343.08 560.47,-349.66 577.5,-356.38 583.08,-358.58 588.99,-360.6 594.95,-362.43"/>
<polygon fill="#63b8ff" stroke="#63b8ff" points="593.67,-365.7 604.25,-365.11 595.61,-358.98 593.67,-365.7"/>
</a>
</g>
</g>
<!-- Node6 -->
<g id="Node000006" class="node">
<title>Node6</title>
<g id="a_Node000006"><a xlink:href="m__ui_8c.html#af17d8912a520f607796e85d96467cc5a" target="_top" xlink:title=" ">
<polygon fill="#fff0f0" stroke="red" points="720.62,-347.75 596.62,-347.75 596.62,-327 720.62,-327 720.62,-347.75"/>
<text xml:space="preserve" text-anchor="middle" x="658.62" y="-334.25" font-family="Helvetica,sans-Serif" font-size="10.00">enter_parent_page_cb</text>
</a>
</g>
</g>
<!-- Node4&#45;&gt;Node6 -->
<g id="edge5_Node000004_Node000006" class="edge">
<title>Node4&#45;&gt;Node6</title>
<g id="a_edge5_Node000004_Node000006"><a xlink:title=" ">
<path fill="none" stroke="#63b8ff" d="M535.47,-324.71C551.63,-326.38 568.83,-328.17 585.07,-329.85"/>
<polygon fill="#63b8ff" stroke="#63b8ff" points="584.32,-333.29 594.63,-330.84 585.04,-326.33 584.32,-333.29"/>
</a>
</g>
</g>
<!-- Node10 -->
<g id="Node000010" class="node">
<title>Node10</title>
<g id="a_Node000010"><a xlink:href="m__button_8c.html#a0a450528cdcddd6650fee0ae3cfc14d2" target="_top" xlink:title=" ">
<polygon fill="#fff0f0" stroke="red" points="695.12,-308.75 622.12,-308.75 622.12,-288 695.12,-288 695.12,-308.75"/>
<text xml:space="preserve" text-anchor="middle" x="658.62" y="-295.25" font-family="Helvetica,sans-Serif" font-size="10.00">new_button</text>
</a>
</g>
</g>
<!-- Node4&#45;&gt;Node10 -->
<g id="edge6_Node000004_Node000010" class="edge">
<title>Node4&#45;&gt;Node10</title>
<g id="a_edge6_Node000004_Node000010"><a xlink:title=" ">
<path fill="none" stroke="#63b8ff" d="M535.47,-310.41C560.47,-307.95 587.95,-305.24 610.5,-303.02"/>
<polygon fill="#63b8ff" stroke="#63b8ff" points="610.7,-306.51 620.3,-302.05 610.01,-299.55 610.7,-306.51"/>
</a>
</g>
</g>
<!-- Node13 -->
<g id="Node000013" class="node">
<title>Node13</title>
<g id="a_Node000013"><a xlink:href="m__parameter__widget_8c.html#acb0704e7866f9ff20b05d6665fc63f02" target="_top" xlink:title=" ">
<polygon fill="white" stroke="#666666" points="541.5,-246.75 386,-246.75 386,-226 541.5,-226 541.5,-246.75"/>
<text xml:space="preserve" text-anchor="middle" x="463.75" y="-233.25" font-family="Helvetica,sans-Serif" font-size="10.00">parameter_widget_create_ui</text>
</a>
</g>
</g>
<!-- Node12&#45;&gt;Node13 -->
<g id="edge8_Node000012_Node000013" class="edge">
<title>Node12&#45;&gt;Node13</title>
<g id="a_edge8_Node000012_Node000013"><a xlink:title=" ">
<path fill="none" stroke="#63b8ff" d="M328.11,-236.38C342.85,-236.38 358.81,-236.38 374.41,-236.38"/>
<polygon fill="#63b8ff" stroke="#63b8ff" points="374.18,-239.88 384.18,-236.38 374.18,-232.88 374.18,-239.88"/>
</a>
</g>
</g>
<!-- Node24 -->
<g id="Node000024" class="node">
<title>Node24</title>
<g id="a_Node000024"><a xlink:href="m__ui_8c.html#aeb5818cdaae65980fbd2c19ddd24c08a" target="_top" xlink:title=" ">
<polygon fill="white" stroke="#666666" points="530.25,-149.75 397.25,-149.75 397.25,-129 530.25,-129 530.25,-149.75"/>
<text xml:space="preserve" text-anchor="middle" x="463.75" y="-136.25" font-family="Helvetica,sans-Serif" font-size="10.00">ui_page_create_base_ui</text>
</a>
</g>
</g>
<!-- Node12&#45;&gt;Node24 -->
<g id="edge11_Node000012_Node000024" class="edge">
<title>Node12&#45;&gt;Node24</title>
<g id="a_edge11_Node000012_Node000024"><a xlink:title=" ">
<path fill="none" stroke="#63b8ff" d="M327.91,-219.2C335.47,-216.54 342.98,-213.59 350,-210.38 382.65,-195.43 417.16,-172.5 439.27,-156.77"/>
<polygon fill="#63b8ff" stroke="#63b8ff" points="441.22,-159.68 447.28,-150.99 437.12,-154 441.22,-159.68"/>
</a>
</g>
</g>
<!-- Node14 -->
<g id="Node000014" class="node">
<title>Node14</title>
<g id="a_Node000014"><a xlink:href="m__parameter__widget_8c.html#aacedf3a01b62f8fba28c7521a2b64735" target="_top" xlink:title=" ">
<polygon fill="#fff0f0" stroke="red" points="739.75,-269.75 577.5,-269.75 577.5,-249 739.75,-249 739.75,-269.75"/>
<text xml:space="preserve" text-anchor="middle" x="658.62" y="-256.25" font-family="Helvetica,sans-Serif" font-size="10.00">parameter_widget_change_cb</text>
</a>
</g>
</g>
<!-- Node13&#45;&gt;Node14 -->
<g id="edge9_Node000013_Node000014" class="edge">
<title>Node13&#45;&gt;Node14</title>
<g id="a_edge9_Node000013_Node000014"><a xlink:title=" ">
<path fill="none" stroke="#63b8ff" d="M541.81,-245.56C549.73,-246.51 557.83,-247.47 565.88,-248.43"/>
<polygon fill="#63b8ff" stroke="#63b8ff" points="565.37,-251.9 575.71,-249.61 566.2,-244.95 565.37,-251.9"/>
</a>
</g>
</g>
<!-- Node20 -->
<g id="Node000020" class="node">
<title>Node20</title>
<g id="a_Node000020"><a xlink:href="m__parameter__widget_8c.html#a828ce24600904fc1bcc102556df9f179" target="_top" xlink:title=" ">
<polygon fill="#fff0f0" stroke="red" points="729.25,-231.12 588,-231.12 588,-197.62 729.25,-197.62 729.25,-231.12"/>
<text xml:space="preserve" text-anchor="start" x="596" y="-217.62" font-family="Helvetica,sans-Serif" font-size="10.00">parameter_widget_create</text>
<text xml:space="preserve" text-anchor="middle" x="658.62" y="-204.88" font-family="Helvetica,sans-Serif" font-size="10.00">_ui_no_callback</text>
</a>
</g>
</g>
<!-- Node13&#45;&gt;Node20 -->
<g id="edge10_Node000013_Node000020" class="edge">
<title>Node13&#45;&gt;Node20</title>
<g id="a_edge10_Node000013_Node000020"><a xlink:title=" ">
<path fill="none" stroke="#63b8ff" d="M541.81,-227.59C553.14,-226.29 564.85,-224.96 576.26,-223.66"/>
<polygon fill="#63b8ff" stroke="#63b8ff" points="576.52,-227.15 586.05,-222.54 575.72,-220.19 576.52,-227.15"/>
</a>
</g>
</g>
<!-- Node25 -->
<g id="Node000025" class="node">
<title>Node25</title>
<g id="a_Node000025"><a xlink:href="m__ui_8c.html#a814198c905ac175911f5eb6802af3fbc" target="_top" xlink:title=" ">
<polygon fill="#fff0f0" stroke="red" points="724,-179.12 593.25,-179.12 593.25,-145.62 724,-145.62 724,-179.12"/>
<text xml:space="preserve" text-anchor="start" x="601.25" y="-165.62" font-family="Helvetica,sans-Serif" font-size="10.00">ui_page_create_bottom</text>
<text xml:space="preserve" text-anchor="middle" x="658.62" y="-152.88" font-family="Helvetica,sans-Serif" font-size="10.00">_buttons</text>
</a>
</g>
</g>
<!-- Node24&#45;&gt;Node25 -->
<g id="edge12_Node000024_Node000025" class="edge">
<title>Node24&#45;&gt;Node25</title>
<g id="a_edge12_Node000024_Node000025"><a xlink:title=" ">
<path fill="none" stroke="#63b8ff" d="M530.59,-147.23C547.15,-149.2 565.05,-151.34 582.05,-153.36"/>
<polygon fill="#63b8ff" stroke="#63b8ff" points="581.22,-156.79 591.56,-154.5 582.05,-149.84 581.22,-156.79"/>
</a>
</g>
</g>
<!-- Node27 -->
<g id="Node000027" class="node">
<title>Node27</title>
<g id="a_Node000027"><a xlink:href="m__ui_8c.html#a4efae8453530a17b2ae8d9febf45521e" target="_top" xlink:title=" ">
<polygon fill="#fff0f0" stroke="red" points="729.25,-127.75 588,-127.75 588,-107 729.25,-107 729.25,-127.75"/>
<text xml:space="preserve" text-anchor="middle" x="658.62" y="-114.25" font-family="Helvetica,sans-Serif" font-size="10.00">ui_page_create_container</text>
</a>
</g>
</g>
<!-- Node24&#45;&gt;Node27 -->
<g id="edge13_Node000024_Node000027" class="edge">
<title>Node24&#45;&gt;Node27</title>
<g id="a_edge13_Node000024_Node000027"><a xlink:title=" ">
<path fill="none" stroke="#63b8ff" d="M530.59,-131.87C545.43,-130.17 561.35,-128.36 576.73,-126.6"/>
<polygon fill="#63b8ff" stroke="#63b8ff" points="576.76,-130.12 586.3,-125.51 575.97,-123.17 576.76,-130.12"/>
</a>
</g>
</g>
<!-- Node34 -->
<g id="Node000034" class="node">
<title>Node34</title>
<g id="a_Node000034"><a xlink:href="m__ui_8c.html#a68e4982391322da1d7482446f5cfcf77" target="_top" xlink:title=" ">
<polygon fill="#fff0f0" stroke="red" points="727,-88.75 590.25,-88.75 590.25,-68 727,-68 727,-88.75"/>
<text xml:space="preserve" text-anchor="middle" x="658.62" y="-75.25" font-family="Helvetica,sans-Serif" font-size="10.00">ui_page_create_panel_ui</text>
</a>
</g>
</g>
<!-- Node24&#45;&gt;Node34 -->
<g id="edge14_Node000024_Node000034" class="edge">
<title>Node24&#45;&gt;Node34</title>
<g id="a_edge14_Node000024_Node000034"><a xlink:title=" ">
<path fill="none" stroke="#63b8ff" d="M514.54,-128.52C523.65,-125.94 532.97,-122.9 541.5,-119.38 558.62,-112.31 560.34,-105.35 577.5,-98.38 582.84,-96.2 588.48,-94.22 594.2,-92.42"/>
<polygon fill="#63b8ff" stroke="#63b8ff" points="595.16,-95.78 603.76,-89.61 593.18,-89.07 595.16,-95.78"/>
</a>
</g>
</g>
<!-- Node39 -->
<g id="Node000039" class="node">
<title>Node39</title>
<g id="a_Node000039"><a xlink:href="m__ui_8c.html#ad0e581ea0af79380925697ed36c09e87" target="_top" xlink:title=" ">
<polygon fill="white" stroke="#666666" points="495.75,-110.75 431.75,-110.75 431.75,-90 495.75,-90 495.75,-110.75"/>
<text xml:space="preserve" text-anchor="middle" x="463.75" y="-97.25" font-family="Helvetica,sans-Serif" font-size="10.00">init_panel</text>
</a>
</g>
</g>
<!-- Node38&#45;&gt;Node39 -->
<g id="edge18_Node000038_Node000039" class="edge">
<title>Node38&#45;&gt;Node39</title>
<g id="a_edge18_Node000038_Node000039"><a xlink:title=" ">
<path fill="none" stroke="#63b8ff" d="M298.55,-100.38C332.05,-100.38 383.68,-100.38 420.09,-100.38"/>
<polygon fill="#63b8ff" stroke="#63b8ff" points="419.82,-103.88 429.82,-100.38 419.82,-96.88 419.82,-103.88"/>
</a>
</g>
</g>
</g>
</svg>
