<?xml version="1.0" encoding="UTF-8" standalone="no"?>
<!DOCTYPE svg PUBLIC "-//W3C//DTD SVG 1.1//EN"
 "http://www.w3.org/Graphics/SVG/1.1/DTD/svg11.dtd">
<!-- Generated by graphviz version 13.1.2 (20250808.2320)
 -->
<!-- Title: m_profile_remove_effect Pages: 1 -->
<svg width="839pt" height="298pt"
 viewBox="0.00 0.00 839.00 298.00" xmlns="http://www.w3.org/2000/svg" xmlns:xlink="http://www.w3.org/1999/xlink">
<g id="graph0" class="graph" transform="scale(1 1) rotate(0) translate(4 294.05)">
<title>m_profile_remove_effect</title>
<!-- Node1 -->
<g id="Node000001" class="node">
<title>Node1</title>
<g id="a_Node000001"><a xlink:title=" ">
<polygon fill="#999999" stroke="#666666" points="139,-201.12 0,-201.12 0,-180.38 139,-180.38 139,-201.12"/>
<text xml:space="preserve" text-anchor="middle" x="69.5" y="-187.62" font-family="Helvetica,sans-Serif" font-size="10.00">m_profile_remove_effect</text>
</a>
</g>
</g>
<!-- Node2 -->
<g id="Node000002" class="node">
<title>Node2</title>
<g id="a_Node000002"><a xlink:href="m__error__codes_8c.html#a5298df5c7af3a6aac90c055a615b171a" target="_top" xlink:title=" ">
<polygon fill="white" stroke="#666666" points="830.75,-124.12 700,-124.12 700,-103.38 830.75,-103.38 830.75,-124.12"/>
<text xml:space="preserve" text-anchor="middle" x="765.38" y="-110.62" font-family="Helvetica,sans-Serif" font-size="10.00">m_error_code_to_string</text>
</a>
</g>
</g>
<!-- Node1&#45;&gt;Node2 -->
<g id="edge1_Node000001_Node000002" class="edge">
<title>Node1&#45;&gt;Node2</title>
<g id="a_edge1_Node000001_Node000002"><a xlink:title=" ">
<path fill="none" stroke="#63b8ff" d="M93.94,-201.53C177.06,-238.07 463.5,-349.52 664,-248.75 711.64,-224.8 742.38,-166.35 756.1,-134.79"/>
<polygon fill="#63b8ff" stroke="#63b8ff" points="759.19,-136.46 759.8,-125.89 752.73,-133.77 759.19,-136.46"/>
</a>
</g>
</g>
<!-- Node3 -->
<g id="Node000003" class="node">
<title>Node3</title>
<g id="a_Node000003"><a xlink:href="m__pipeline_8c.html#a031ea8fe9ffc3448df59a7daa26120d5" target="_top" xlink:title=" ">
<polygon fill="white" stroke="#666666" points="321.5,-201.12 175,-201.12 175,-180.38 321.5,-180.38 321.5,-201.12"/>
<text xml:space="preserve" text-anchor="middle" x="248.25" y="-187.62" font-family="Helvetica,sans-Serif" font-size="10.00">m_pipeline_remove_effect</text>
</a>
</g>
</g>
<!-- Node1&#45;&gt;Node3 -->
<g id="edge2_Node000001_Node000003" class="edge">
<title>Node1&#45;&gt;Node3</title>
<g id="a_edge2_Node000001_Node000003"><a xlink:title=" ">
<path fill="none" stroke="#63b8ff" d="M139.34,-190.75C147.18,-190.75 155.24,-190.75 163.25,-190.75"/>
<polygon fill="#63b8ff" stroke="#63b8ff" points="162.99,-194.25 172.99,-190.75 162.99,-187.25 162.99,-194.25"/>
</a>
</g>
</g>
<!-- Node11 -->
<g id="Node000011" class="node">
<title>Node11</title>
<g id="a_Node000011"><a xlink:href="m__profile_8c.html#a9161b482b0dc7522ee6c65b863b7e1c6" target="_top" xlink:title=" ">
<polygon fill="white" stroke="#666666" points="303.12,-124.5 193.38,-124.5 193.38,-91 303.12,-91 303.12,-124.5"/>
<text xml:space="preserve" text-anchor="start" x="201.38" y="-111" font-family="Helvetica,sans-Serif" font-size="10.00">m_profile_if_active</text>
<text xml:space="preserve" text-anchor="middle" x="248.25" y="-98.25" font-family="Helvetica,sans-Serif" font-size="10.00">_update_fpga</text>
</a>
</g>
</g>
<!-- Node1&#45;&gt;Node11 -->
<g id="edge7_Node000001_Node000011" class="edge">
<title>Node1&#45;&gt;Node11</title>
<g id="a_edge7_Node000001_Node000011"><a xlink:title=" ">
<path fill="none" stroke="#63b8ff" d="M93.61,-179.9C120.57,-167.24 165.86,-145.97 200.3,-129.8"/>
<polygon fill="#63b8ff" stroke="#63b8ff" points="201.67,-133.02 209.24,-125.6 198.7,-126.68 201.67,-133.02"/>
</a>
</g>
</g>
<!-- Node4 -->
<g id="Node000004" class="node">
<title>Node4</title>
<g id="a_Node000004"><a xlink:href="m__effect_8c.html#ae44e06e64b2aa5377a7ef568c7f5eb08" target="_top" xlink:title=" ">
<polygon fill="white" stroke="#666666" points="460.12,-201.12 390.88,-201.12 390.88,-180.38 460.12,-180.38 460.12,-201.12"/>
<text xml:space="preserve" text-anchor="middle" x="425.5" y="-187.62" font-family="Helvetica,sans-Serif" font-size="10.00">free_effect</text>
</a>
</g>
</g>
<!-- Node3&#45;&gt;Node4 -->
<g id="edge3_Node000003_Node000004" class="edge">
<title>Node3&#45;&gt;Node4</title>
<g id="a_edge3_Node000003_Node000004"><a xlink:title=" ">
<path fill="none" stroke="#63b8ff" d="M321.8,-190.75C341.32,-190.75 361.88,-190.75 379.43,-190.75"/>
<polygon fill="#63b8ff" stroke="#63b8ff" points="379.25,-194.25 389.25,-190.75 379.25,-187.25 379.25,-194.25"/>
</a>
</g>
</g>
<!-- Node5 -->
<g id="Node000005" class="node">
<title>Node5</title>
<g id="a_Node000005"><a xlink:href="m__effect__view_8c.html#a87f4136ec90b987206ce07e4209c0456" target="_top" xlink:title=" ">
<polygon fill="#fff0f0" stroke="red" points="645.62,-240.12 547.88,-240.12 547.88,-219.38 645.62,-219.38 645.62,-240.12"/>
<text xml:space="preserve" text-anchor="middle" x="596.75" y="-226.62" font-family="Helvetica,sans-Serif" font-size="10.00">free_effect_view</text>
</a>
</g>
</g>
<!-- Node4&#45;&gt;Node5 -->
<g id="edge4_Node000004_Node000005" class="edge">
<title>Node4&#45;&gt;Node5</title>
<g id="a_edge4_Node000004_Node000005"><a xlink:title=" ">
<path fill="none" stroke="#63b8ff" d="M460.34,-198.55C482.44,-203.64 511.88,-210.42 537.66,-216.36"/>
<polygon fill="#63b8ff" stroke="#63b8ff" points="536.82,-219.76 547.35,-218.6 538.39,-212.94 536.82,-219.76"/>
</a>
</g>
</g>
<!-- Node7 -->
<g id="Node000007" class="node">
<title>Node7</title>
<g id="a_Node000007"><a xlink:href="m__parameter_8c.html#a11438121600ebeb76e5a105a81d8dafe" target="_top" xlink:title=" ">
<polygon fill="#fff0f0" stroke="red" points="650.12,-201.12 543.38,-201.12 543.38,-180.38 650.12,-180.38 650.12,-201.12"/>
<text xml:space="preserve" text-anchor="middle" x="596.75" y="-187.62" font-family="Helvetica,sans-Serif" font-size="10.00">m_parameter_free</text>
</a>
</g>
</g>
<!-- Node4&#45;&gt;Node7 -->
<g id="edge5_Node000004_Node000007" class="edge">
<title>Node4&#45;&gt;Node7</title>
<g id="a_edge5_Node000004_Node000007"><a xlink:title=" ">
<path fill="none" stroke="#63b8ff" d="M460.34,-190.75C480.75,-190.75 507.4,-190.75 531.66,-190.75"/>
<polygon fill="#63b8ff" stroke="#63b8ff" points="531.45,-194.25 541.45,-190.75 531.45,-187.25 531.45,-194.25"/>
</a>
</g>
</g>
<!-- Node9 -->
<g id="Node000009" class="node">
<title>Node9</title>
<g id="a_Node000009"><a xlink:href="m__parameter_8c.html#a60a3bd7a32ab88ebec891bd9cde1ee26" target="_top" xlink:title=" ">
<polygon fill="#fff0f0" stroke="red" points="641.5,-162.12 552,-162.12 552,-141.38 641.5,-141.38 641.5,-162.12"/>
<text xml:space="preserve" text-anchor="middle" x="596.75" y="-148.62" font-family="Helvetica,sans-Serif" font-size="10.00">m_setting_free</text>
</a>
</g>
</g>
<!-- Node4&#45;&gt;Node9 -->
<g id="edge6_Node000004_Node000009" class="edge">
<title>Node4&#45;&gt;Node9</title>
<g id="a_edge6_Node000004_Node000009"><a xlink:title=" ">
<path fill="none" stroke="#63b8ff" d="M460.34,-182.95C483.3,-177.66 514.18,-170.55 540.64,-164.45"/>
<polygon fill="#63b8ff" stroke="#63b8ff" points="541.25,-167.9 550.21,-162.24 539.68,-161.08 541.25,-167.9"/>
</a>
</g>
</g>
<!-- Node12 -->
<g id="Node000012" class="node">
<title>Node12</title>
<g id="a_Node000012"><a xlink:href="m__profile_8c.html#afb4661b1e69513d4087f5e27ec776d51" target="_top" xlink:title=" ">
<polygon fill="white" stroke="#666666" points="493.5,-98.12 357.5,-98.12 357.5,-77.38 493.5,-77.38 493.5,-98.12"/>
<text xml:space="preserve" text-anchor="middle" x="425.5" y="-84.62" font-family="Helvetica,sans-Serif" font-size="10.00">m_profile_program_fpga</text>
</a>
</g>
</g>
<!-- Node11&#45;&gt;Node12 -->
<g id="edge8_Node000011_Node000012" class="edge">
<title>Node11&#45;&gt;Node12</title>
<g id="a_edge8_Node000011_Node000012"><a xlink:title=" ">
<path fill="none" stroke="#63b8ff" d="M303.26,-101.59C316.67,-100.06 331.32,-98.38 345.65,-96.75"/>
<polygon fill="#63b8ff" stroke="#63b8ff" points="346.01,-100.23 355.55,-95.62 345.22,-93.28 346.01,-100.23"/>
</a>
</g>
</g>
<!-- Node12&#45;&gt;Node2 -->
<g id="edge9_Node000012_Node000002" class="edge">
<title>Node12&#45;&gt;Node2</title>
<g id="a_edge9_Node000012_Node000002"><a xlink:title=" ">
<path fill="none" stroke="#63b8ff" d="M493.66,-92.92C549.77,-97.24 629.76,-103.39 688.24,-107.89"/>
<polygon fill="#63b8ff" stroke="#63b8ff" points="687.89,-111.37 698.13,-108.65 688.43,-104.4 687.89,-111.37"/>
</a>
</g>
</g>
<!-- Node13 -->
<g id="Node000013" class="node">
<title>Node13</title>
<g id="a_Node000013"><a xlink:href="m__fpga__comms_8c.html#a190f9d5003917f8a04f9cf4340145752" target="_top" xlink:title=" ">
<polygon fill="white" stroke="#666666" points="664,-85.5 529.5,-85.5 529.5,-52 664,-52 664,-85.5"/>
<text xml:space="preserve" text-anchor="start" x="537.5" y="-72" font-family="Helvetica,sans-Serif" font-size="10.00">m_fpga_queue_program</text>
<text xml:space="preserve" text-anchor="middle" x="596.75" y="-59.25" font-family="Helvetica,sans-Serif" font-size="10.00">_batch</text>
</a>
</g>
</g>
<!-- Node12&#45;&gt;Node13 -->
<g id="edge10_Node000012_Node000013" class="edge">
<title>Node12&#45;&gt;Node13</title>
<g id="a_edge10_Node000012_Node000013"><a xlink:title=" ">
<path fill="none" stroke="#63b8ff" d="M493.88,-80.19C501.77,-79.3 509.88,-78.39 517.9,-77.49"/>
<polygon fill="#63b8ff" stroke="#63b8ff" points="518.1,-80.99 527.65,-76.39 517.32,-74.03 518.1,-80.99"/>
</a>
</g>
</g>
<!-- Node14 -->
<g id="Node000014" class="node">
<title>Node14</title>
<g id="a_Node000014"><a xlink:href="m__pipeline_8c.html#a34ed6a235a826d96b4e3282b17865323" target="_top" xlink:title=" ">
<polygon fill="#fff0f0" stroke="red" points="663.25,-33.5 530.25,-33.5 530.25,0 663.25,0 663.25,-33.5"/>
<text xml:space="preserve" text-anchor="start" x="538.25" y="-20" font-family="Helvetica,sans-Serif" font-size="10.00">m_pipeline_create_fpga</text>
<text xml:space="preserve" text-anchor="middle" x="596.75" y="-7.25" font-family="Helvetica,sans-Serif" font-size="10.00">_transfer_batch</text>
</a>
</g>
</g>
<!-- Node12&#45;&gt;Node14 -->
<g id="edge11_Node000012_Node000014" class="edge">
<title>Node12&#45;&gt;Node14</title>
<g id="a_edge11_Node000012_Node000014"><a xlink:title=" ">
<path fill="none" stroke="#63b8ff" d="M450.53,-76.94C471.34,-67.66 502.28,-54.03 529.5,-42.75 533.26,-41.19 537.15,-39.6 541.07,-38.02"/>
<polygon fill="#63b8ff" stroke="#63b8ff" points="542.08,-41.39 550.06,-34.42 539.48,-34.89 542.08,-41.39"/>
</a>
</g>
</g>
<!-- Node14&#45;&gt;Node2 -->
<g id="edge12_Node000014_Node000002" class="edge">
<title>Node14&#45;&gt;Node2</title>
<g id="a_edge12_Node000014_Node000002"><a xlink:title=" ">
<path fill="none" stroke="#63b8ff" d="M645.43,-33.85C651.79,-36.59 658.13,-39.58 664,-42.75 692.74,-58.25 722.97,-80.58 742.65,-96.04"/>
<polygon fill="#63b8ff" stroke="#63b8ff" points="740.22,-98.58 750.23,-102.07 744.58,-93.11 740.22,-98.58"/>
</a>
</g>
</g>
</g>
</svg>
