<?xml version="1.0" encoding="UTF-8" standalone="no"?>
<!DOCTYPE svg PUBLIC "-//W3C//DTD SVG 1.1//EN"
 "http://www.w3.org/Graphics/SVG/1.1/DTD/svg11.dtd">
<!-- Generated by graphviz version 13.1.2 (20250808.2320)
 -->
<!-- Title: init_parameter Pages: 1 -->
<svg width="634pt" height="302pt"
 viewBox="0.00 0.00 634.00 302.00" xmlns="http://www.w3.org/2000/svg" xmlns:xlink="http://www.w3.org/1999/xlink">
<g id="graph0" class="graph" transform="scale(1 1) rotate(0) translate(4 297.75)">
<title>init_parameter</title>
<!-- Node1 -->
<g id="Node000001" class="node">
<title>Node1</title>
<g id="a_Node000001"><a xlink:title=" ">
<polygon fill="#999999" stroke="#666666" points="625.75,-147.75 537.75,-147.75 537.75,-127 625.75,-127 625.75,-147.75"/>
<text xml:space="preserve" text-anchor="middle" x="581.75" y="-134.25" font-family="Helvetica,sans-Serif" font-size="10.00">init_parameter</text>
</a>
</g>
</g>
<!-- Node2 -->
<g id="Node000002" class="node">
<title>Node2</title>
<g id="a_Node000002"><a xlink:href="m__effect_8c.html#a3258a7f312e7d7dede5095eb53da6416" target="_top" xlink:title=" ">
<polygon fill="white" stroke="#666666" points="479.25,-234.75 413.75,-234.75 413.75,-214 479.25,-214 479.25,-234.75"/>
<text xml:space="preserve" text-anchor="middle" x="446.5" y="-221.25" font-family="Helvetica,sans-Serif" font-size="10.00">init_effect</text>
</a>
</g>
</g>
<!-- Node1&#45;&gt;Node2 -->
<g id="edge1_Node000001_Node000002" class="edge">
<title>Node1&#45;&gt;Node2</title>
<g id="a_edge1_Node000001_Node000002"><a xlink:title=" ">
<path fill="none" stroke="#63b8ff" d="M554.59,-154.46C527.66,-172.04 486.55,-198.88 463.9,-213.67"/>
<polygon fill="#63b8ff" stroke="#63b8ff" points="556.42,-157.44 562.88,-149.05 552.59,-151.58 556.42,-157.44"/>
</a>
</g>
</g>
<!-- Node19 -->
<g id="Node000019" class="node">
<title>Node19</title>
<g id="a_Node000019"><a xlink:href="m__profile_8c.html#ab73797729c3c2878fcbc0e8eb3a3b1d1" target="_top" xlink:title=" ">
<polygon fill="white" stroke="#666666" points="488.25,-108.75 404.75,-108.75 404.75,-88 488.25,-88 488.25,-108.75"/>
<text xml:space="preserve" text-anchor="middle" x="446.5" y="-95.25" font-family="Helvetica,sans-Serif" font-size="10.00">init_m_profile</text>
</a>
</g>
</g>
<!-- Node1&#45;&gt;Node19 -->
<g id="edge7_Node000001_Node000019" class="edge">
<title>Node1&#45;&gt;Node19</title>
<g id="a_edge7_Node000001_Node000019"><a xlink:title=" ">
<path fill="none" stroke="#63b8ff" d="M532.89,-123.37C516.93,-118.7 499.41,-113.57 484.42,-109.18"/>
<polygon fill="#63b8ff" stroke="#63b8ff" points="531.6,-126.64 542.18,-126.09 533.57,-119.92 531.6,-126.64"/>
</a>
</g>
</g>
<!-- Node23 -->
<g id="Node000023" class="node">
<title>Node23</title>
<g id="a_Node000023"><a xlink:href="m__parameter_8c.html#aa97c4200ecbd8393d50d54215cfc1f25" target="_top" xlink:title=" ">
<polygon fill="white" stroke="#666666" points="501.75,-50.75 391.25,-50.75 391.25,-30 501.75,-30 501.75,-50.75"/>
<text xml:space="preserve" text-anchor="middle" x="446.5" y="-37.25" font-family="Helvetica,sans-Serif" font-size="10.00">init_parameter_wni</text>
</a>
</g>
</g>
<!-- Node1&#45;&gt;Node23 -->
<g id="edge14_Node000001_Node000023" class="edge">
<title>Node1&#45;&gt;Node23</title>
<g id="a_edge14_Node000001_Node000023"><a xlink:title=" ">
<path fill="none" stroke="#63b8ff" d="M557.22,-120.01C541.54,-108.45 520.45,-92.96 501.75,-79.38 488.42,-69.69 473.19,-58.75 462.26,-50.93"/>
<polygon fill="#63b8ff" stroke="#63b8ff" points="554.88,-122.63 565,-125.74 559.03,-116.99 554.88,-122.63"/>
</a>
</g>
</g>
<!-- Node25 -->
<g id="Node000025" class="node">
<title>Node25</title>
<g id="a_Node000025"><a xlink:href="m__context_8c.html#a7e3116adcd8ee17698788b7d17a46018" target="_top" xlink:title=" ">
<polygon fill="white" stroke="#666666" points="321.88,-176.75 233.12,-176.75 233.12,-156 321.88,-156 321.88,-176.75"/>
<text xml:space="preserve" text-anchor="middle" x="277.5" y="-163.25" font-family="Helvetica,sans-Serif" font-size="10.00">m_init_context</text>
</a>
</g>
</g>
<!-- Node1&#45;&gt;Node25 -->
<g id="edge16_Node000001_Node000025" class="edge">
<title>Node1&#45;&gt;Node25</title>
<g id="a_edge16_Node000001_Node000025"><a xlink:title=" ">
<path fill="none" stroke="#63b8ff" d="M526.22,-142.61C467.76,-148.22 376.12,-157.01 322.22,-162.18"/>
<polygon fill="#63b8ff" stroke="#63b8ff" points="526.32,-146.11 535.94,-141.67 525.65,-139.15 526.32,-146.11"/>
</a>
</g>
</g>
<!-- Node3 -->
<g id="Node000003" class="node">
<title>Node3</title>
<g id="a_Node000003"><a xlink:href="m__effect_8c.html#a93e462e09ad909e5888ae697e63a3a4f" target="_top" xlink:title=" ">
<polygon fill="white" stroke="#666666" points="315.5,-254.75 239.5,-254.75 239.5,-234 315.5,-234 315.5,-254.75"/>
<text xml:space="preserve" text-anchor="middle" x="277.5" y="-241.25" font-family="Helvetica,sans-Serif" font-size="10.00">clone_effect</text>
</a>
</g>
</g>
<!-- Node2&#45;&gt;Node3 -->
<g id="edge2_Node000002_Node000003" class="edge">
<title>Node2&#45;&gt;Node3</title>
<g id="a_edge2_Node000002_Node000003"><a xlink:title=" ">
<path fill="none" stroke="#63b8ff" d="M401.95,-229.59C375.23,-232.79 341.35,-236.85 315.85,-239.9"/>
<polygon fill="#63b8ff" stroke="#63b8ff" points="402.29,-233.08 411.8,-228.41 401.45,-226.13 402.29,-233.08"/>
</a>
</g>
</g>
<!-- Node6 -->
<g id="Node000006" class="node">
<title>Node6</title>
<g id="a_Node000006"><a xlink:href="m__effect_8c.html#a8e75c554d3e8551168278ca959dd73e0" target="_top" xlink:title=" ">
<polygon fill="white" stroke="#666666" points="355.25,-215.75 199.75,-215.75 199.75,-195 355.25,-195 355.25,-215.75"/>
<text xml:space="preserve" text-anchor="middle" x="277.5" y="-202.25" font-family="Helvetica,sans-Serif" font-size="10.00">init_effect_from_effect_desc</text>
</a>
</g>
</g>
<!-- Node2&#45;&gt;Node6 -->
<g id="edge4_Node000002_Node000006" class="edge">
<title>Node2&#45;&gt;Node6</title>
<g id="a_edge4_Node000002_Node000006"><a xlink:title=" ">
<path fill="none" stroke="#63b8ff" d="M401.9,-219.41C387.71,-217.8 371.51,-215.96 355.61,-214.15"/>
<polygon fill="#63b8ff" stroke="#63b8ff" points="401.47,-222.89 411.8,-220.54 402.26,-215.93 401.47,-222.89"/>
</a>
</g>
</g>
<!-- Node18 -->
<g id="Node000018" class="node">
<title>Node18</title>
<g id="a_Node000018"><a xlink:href="m__effect__init_8c.html#a492354539b4f1a3cdeaba69ddd09ef2b" target="_top" xlink:title=" ">
<polygon fill="white" stroke="#666666" points="331.25,-293.75 223.75,-293.75 223.75,-273 331.25,-273 331.25,-293.75"/>
<text xml:space="preserve" text-anchor="middle" x="277.5" y="-280.25" font-family="Helvetica,sans-Serif" font-size="10.00">init_effect_of_type</text>
</a>
</g>
</g>
<!-- Node2&#45;&gt;Node18 -->
<g id="edge6_Node000002_Node000018" class="edge">
<title>Node2&#45;&gt;Node18</title>
<g id="a_edge6_Node000002_Node000018"><a xlink:title=" ">
<path fill="none" stroke="#63b8ff" d="M413.28,-239.73C396.27,-247.46 374.9,-256.61 355.25,-263.38 345.48,-266.74 334.85,-269.84 324.7,-272.56"/>
<polygon fill="#63b8ff" stroke="#63b8ff" points="414.26,-243.13 421.88,-235.76 411.33,-236.77 414.26,-243.13"/>
</a>
</g>
</g>
<!-- Node4 -->
<g id="Node000004" class="node">
<title>Node4</title>
<g id="a_Node000004"><a xlink:href="m__pipeline_8c.html#aac299a6a652e5e6e6832d2803635893c" target="_top" xlink:title=" ">
<polygon fill="#fff0f0" stroke="red" points="125.12,-254.75 38.62,-254.75 38.62,-234 125.12,-234 125.12,-254.75"/>
<text xml:space="preserve" text-anchor="middle" x="81.88" y="-241.25" font-family="Helvetica,sans-Serif" font-size="10.00">clone_pipeline</text>
</a>
</g>
</g>
<!-- Node3&#45;&gt;Node4 -->
<g id="edge3_Node000003_Node000004" class="edge">
<title>Node3&#45;&gt;Node4</title>
<g id="a_edge3_Node000003_Node000004"><a xlink:title=" ">
<path fill="none" stroke="#63b8ff" d="M228.01,-244.38C196.48,-244.38 155.77,-244.38 125.49,-244.38"/>
<polygon fill="#63b8ff" stroke="#63b8ff" points="227.65,-247.88 237.65,-244.38 227.65,-240.88 227.65,-247.88"/>
</a>
</g>
</g>
<!-- Node7 -->
<g id="Node000007" class="node">
<title>Node7</title>
<g id="a_Node000007"><a xlink:href="m__pipeline_8c.html#a8dce811810c9ae42e523eb5aa2764a96" target="_top" xlink:title=" ">
<polygon fill="#fff0f0" stroke="red" points="163.75,-215.75 0,-215.75 0,-195 163.75,-195 163.75,-215.75"/>
<text xml:space="preserve" text-anchor="middle" x="81.88" y="-202.25" font-family="Helvetica,sans-Serif" font-size="10.00">m_pipeline_append_effect_eff</text>
</a>
</g>
</g>
<!-- Node6&#45;&gt;Node7 -->
<g id="edge5_Node000006_Node000007" class="edge">
<title>Node6&#45;&gt;Node7</title>
<g id="a_edge5_Node000006_Node000007"><a xlink:title=" ">
<path fill="none" stroke="#63b8ff" d="M188.17,-205.38C180.16,-205.38 172.08,-205.38 164.14,-205.38"/>
<polygon fill="#63b8ff" stroke="#63b8ff" points="187.9,-208.88 197.9,-205.38 187.9,-201.88 187.9,-208.88"/>
</a>
</g>
</g>
<!-- Node17 -->
<g id="Node000017" class="node">
<title>Node17</title>
<g id="a_Node000017"><a xlink:href="m__files_8c.html#a8785e4c0fd9fa9638385ef725fe13adb" target="_top" xlink:title=" ">
<polygon fill="white" stroke="#666666" points="334.25,-137.75 220.75,-137.75 220.75,-117 334.25,-117 334.25,-137.75"/>
<text xml:space="preserve" text-anchor="middle" x="277.5" y="-124.25" font-family="Helvetica,sans-Serif" font-size="10.00">load_saved_profiles</text>
</a>
</g>
</g>
<!-- Node19&#45;&gt;Node17 -->
<g id="edge8_Node000019_Node000017" class="edge">
<title>Node19&#45;&gt;Node17</title>
<g id="a_edge8_Node000019_Node000017"><a xlink:title=" ">
<path fill="none" stroke="#63b8ff" d="M393.4,-107.42C374.75,-110.66 353.66,-114.32 334.69,-117.62"/>
<polygon fill="#63b8ff" stroke="#63b8ff" points="393.9,-110.89 403.16,-105.73 392.7,-103.99 393.9,-110.89"/>
</a>
</g>
</g>
<!-- Node20 -->
<g id="Node000020" class="node">
<title>Node20</title>
<g id="a_Node000020"><a xlink:href="m__context_8c.html#a429a68b4aa5db546b964b5127a3ceb1e" target="_top" xlink:title=" ">
<polygon fill="white" stroke="#666666" points="341.38,-59.75 213.62,-59.75 213.62,-39 341.38,-39 341.38,-59.75"/>
<text xml:space="preserve" text-anchor="middle" x="277.5" y="-46.25" font-family="Helvetica,sans-Serif" font-size="10.00">m_context_add_profile</text>
</a>
</g>
</g>
<!-- Node19&#45;&gt;Node20 -->
<g id="edge11_Node000019_Node000020" class="edge">
<title>Node19&#45;&gt;Node20</title>
<g id="a_edge11_Node000019_Node000020"><a xlink:title=" ">
<path fill="none" stroke="#63b8ff" d="M402.94,-84.16C387.93,-79.29 370.89,-73.92 355.25,-69.38 344.41,-66.22 332.64,-63.04 321.64,-60.17"/>
<polygon fill="#63b8ff" stroke="#63b8ff" points="401.44,-87.35 412.03,-87.13 403.62,-80.7 401.44,-87.35"/>
</a>
</g>
</g>
<!-- Node21 -->
<g id="Node000021" class="node">
<title>Node21</title>
<g id="a_Node000021"><a xlink:href="m__context_8c.html#aa02ce3f8fc944d9dda010f1975f5892b" target="_top" xlink:title=" ">
<polygon fill="white" stroke="#666666" points="348.88,-98.75 206.12,-98.75 206.12,-78 348.88,-78 348.88,-98.75"/>
<text xml:space="preserve" text-anchor="middle" x="277.5" y="-85.25" font-family="Helvetica,sans-Serif" font-size="10.00">m_context_add_profile_rp</text>
</a>
</g>
</g>
<!-- Node19&#45;&gt;Node21 -->
<g id="edge12_Node000019_Node000021" class="edge">
<title>Node19&#45;&gt;Node21</title>
<g id="a_edge12_Node000019_Node000021"><a xlink:title=" ">
<path fill="none" stroke="#63b8ff" d="M393.28,-95.25C379.31,-94.41 363.98,-93.49 349.2,-92.61"/>
<polygon fill="#63b8ff" stroke="#63b8ff" points="392.95,-98.73 403.14,-95.84 393.36,-91.75 392.95,-98.73"/>
</a>
</g>
</g>
<!-- Node13 -->
<g id="Node000013" class="node">
<title>Node13</title>
<g id="a_Node000013"><a xlink:href="m__int_8c.html#abce06be17fc37d675118a678a8100a36" target="_top" xlink:title=" ">
<polygon fill="white" stroke="#666666" points="113.88,-176.75 49.88,-176.75 49.88,-156 113.88,-156 113.88,-176.75"/>
<text xml:space="preserve" text-anchor="middle" x="81.88" y="-163.25" font-family="Helvetica,sans-Serif" font-size="10.00">app_main</text>
</a>
</g>
</g>
<!-- Node17&#45;&gt;Node13 -->
<g id="edge9_Node000017_Node000013" class="edge">
<title>Node17&#45;&gt;Node13</title>
<g id="a_edge9_Node000017_Node000013"><a xlink:title=" ">
<path fill="none" stroke="#63b8ff" d="M211.66,-140.43C178.82,-147.05 140.45,-154.78 114.19,-160.07"/>
<polygon fill="#63b8ff" stroke="#63b8ff" points="211.97,-143.94 221.08,-138.54 210.59,-137.08 211.97,-143.94"/>
</a>
</g>
</g>
<!-- Node14 -->
<g id="Node000014" class="node">
<title>Node14</title>
<g id="a_Node000014"><a xlink:href="m__desktop_8c.html#ab499a4f71ef4cfc807b60d8739750c3e" target="_top" xlink:title=" ">
<polygon fill="#fff0f0" stroke="red" points="115.38,-137.75 48.38,-137.75 48.38,-117 115.38,-117 115.38,-137.75"/>
<text xml:space="preserve" text-anchor="middle" x="81.88" y="-124.25" font-family="Helvetica,sans-Serif" font-size="10.00">main_task</text>
</a>
</g>
</g>
<!-- Node17&#45;&gt;Node14 -->
<g id="edge10_Node000017_Node000014" class="edge">
<title>Node17&#45;&gt;Node14</title>
<g id="a_edge10_Node000017_Node000014"><a xlink:title=" ">
<path fill="none" stroke="#63b8ff" d="M209.09,-127.38C177.48,-127.38 141.26,-127.38 115.75,-127.38"/>
<polygon fill="#63b8ff" stroke="#63b8ff" points="208.98,-130.88 218.98,-127.38 208.98,-123.88 208.98,-130.88"/>
</a>
</g>
</g>
<!-- Node22 -->
<g id="Node000022" class="node">
<title>Node22</title>
<g id="a_Node000022"><a xlink:href="m__profile_8c.html#a87f18b6c73975f1a163bc50254834b3c" target="_top" xlink:title=" ">
<polygon fill="white" stroke="#666666" points="136.38,-99.12 27.38,-99.12 27.38,-65.62 136.38,-65.62 136.38,-99.12"/>
<text xml:space="preserve" text-anchor="start" x="35.38" y="-85.62" font-family="Helvetica,sans-Serif" font-size="10.00">create_new_profile</text>
<text xml:space="preserve" text-anchor="middle" x="81.88" y="-72.88" font-family="Helvetica,sans-Serif" font-size="10.00">_with_teensy</text>
</a>
</g>
</g>
<!-- Node21&#45;&gt;Node22 -->
<g id="edge13_Node000021_Node000022" class="edge">
<title>Node21&#45;&gt;Node22</title>
<g id="a_edge13_Node000021_Node000022"><a xlink:title=" ">
<path fill="none" stroke="#63b8ff" d="M194.41,-85.83C174.91,-85.23 154.59,-84.6 136.73,-84.04"/>
<polygon fill="#63b8ff" stroke="#63b8ff" points="194.16,-89.33 204.26,-86.14 194.38,-82.33 194.16,-89.33"/>
</a>
</g>
</g>
<!-- Node24 -->
<g id="Node000024" class="node">
<title>Node24</title>
<g id="a_Node000024"><a xlink:href="m__parameter_8c.html#aac522e091265f92b178909c6da1c2621" target="_top" xlink:title=" ">
<polygon fill="white" stroke="#666666" points="342.5,-20.75 212.5,-20.75 212.5,0 342.5,0 342.5,-20.75"/>
<text xml:space="preserve" text-anchor="middle" x="277.5" y="-7.25" font-family="Helvetica,sans-Serif" font-size="10.00">new_m_parameter_wni</text>
</a>
</g>
</g>
<!-- Node23&#45;&gt;Node24 -->
<g id="edge15_Node000023_Node000024" class="edge">
<title>Node23&#45;&gt;Node24</title>
<g id="a_edge15_Node000023_Node000024"><a xlink:title=" ">
<path fill="none" stroke="#63b8ff" d="M379.68,-28.55C366.19,-26.13 352.06,-23.59 338.79,-21.21"/>
<polygon fill="#63b8ff" stroke="#63b8ff" points="378.87,-31.96 389.33,-30.28 380.1,-25.07 378.87,-31.96"/>
</a>
</g>
</g>
<!-- Node25&#45;&gt;Node13 -->
<g id="edge17_Node000025_Node000013" class="edge">
<title>Node25&#45;&gt;Node13</title>
<g id="a_edge17_Node000025_Node000013"><a xlink:title=" ">
<path fill="none" stroke="#63b8ff" d="M221.63,-166.38C186.84,-166.38 143.11,-166.38 114.14,-166.38"/>
<polygon fill="#63b8ff" stroke="#63b8ff" points="221.53,-169.88 231.53,-166.38 221.53,-162.88 221.53,-169.88"/>
</a>
</g>
</g>
<!-- Node25&#45;&gt;Node14 -->
<g id="edge18_Node000025_Node000014" class="edge">
<title>Node25&#45;&gt;Node14</title>
<g id="a_edge18_Node000025_Node000014"><a xlink:title=" ">
<path fill="none" stroke="#63b8ff" d="M221.81,-155.36C187.59,-148.47 144.66,-139.82 115.64,-133.97"/>
<polygon fill="#63b8ff" stroke="#63b8ff" points="221.07,-158.78 231.56,-157.32 222.45,-151.92 221.07,-158.78"/>
</a>
</g>
</g>
</g>
</svg>
