<?xml version="1.0" encoding="UTF-8" standalone="no"?>
<!DOCTYPE svg PUBLIC "-//W3C//DTD SVG 1.1//EN"
 "http://www.w3.org/Graphics/SVG/1.1/DTD/svg11.dtd">
<!-- Generated by graphviz version 13.1.2 (20250808.2320)
 -->
<!-- Title: profile_view_enter_main_menu_cb Pages: 1 -->
<svg width="628pt" height="42pt"
 viewBox="0.00 0.00 628.00 42.00" xmlns="http://www.w3.org/2000/svg" xmlns:xlink="http://www.w3.org/1999/xlink">
<g id="graph0" class="graph" transform="scale(1 1) rotate(0) translate(4 37.5)">
<title>profile_view_enter_main_menu_cb</title>
<!-- Node1 -->
<g id="Node000001" class="node">
<title>Node1</title>
<g id="a_Node000001"><a xlink:title=" ">
<polygon fill="#999999" stroke="#666666" points="106.75,-33.5 0,-33.5 0,0 106.75,0 106.75,-33.5"/>
<text xml:space="preserve" text-anchor="start" x="8" y="-20" font-family="Helvetica,sans-Serif" font-size="10.00">profile_view_enter</text>
<text xml:space="preserve" text-anchor="middle" x="53.38" y="-7.25" font-family="Helvetica,sans-Serif" font-size="10.00">_main_menu_cb</text>
</a>
</g>
</g>
<!-- Node2 -->
<g id="Node000002" class="node">
<title>Node2</title>
<g id="a_Node000002"><a xlink:href="m__ui_8c.html#ac3fd93d055094ed9bd458eb283af7c04" target="_top" xlink:title=" ">
<polygon fill="white" stroke="#666666" points="285.5,-27.12 142.75,-27.12 142.75,-6.38 285.5,-6.38 285.5,-27.12"/>
<text xml:space="preserve" text-anchor="middle" x="214.12" y="-13.62" font-family="Helvetica,sans-Serif" font-size="10.00">enter_ui_page_backwards</text>
</a>
</g>
</g>
<!-- Node1&#45;&gt;Node2 -->
<g id="edge1_Node000001_Node000002" class="edge">
<title>Node1&#45;&gt;Node2</title>
<g id="a_edge1_Node000001_Node000002"><a xlink:title=" ">
<path fill="none" stroke="#63b8ff" d="M107.24,-16.75C114.9,-16.75 122.94,-16.75 131.01,-16.75"/>
<polygon fill="#63b8ff" stroke="#63b8ff" points="130.9,-20.25 140.9,-16.75 130.9,-13.25 130.9,-20.25"/>
</a>
</g>
</g>
<!-- Node3 -->
<g id="Node000003" class="node">
<title>Node3</title>
<g id="a_Node000003"><a xlink:href="m__context_8c.html#a714ca532031e59915d88a683682f2802" target="_top" xlink:title=" ">
<polygon fill="white" stroke="#666666" points="461.25,-27.12 321.5,-27.12 321.5,-6.38 461.25,-6.38 461.25,-27.12"/>
<text xml:space="preserve" text-anchor="middle" x="391.38" y="-13.62" font-family="Helvetica,sans-Serif" font-size="10.00">m_cxt_queue_save_state</text>
</a>
</g>
</g>
<!-- Node2&#45;&gt;Node3 -->
<g id="edge2_Node000002_Node000003" class="edge">
<title>Node2&#45;&gt;Node3</title>
<g id="a_edge2_Node000002_Node000003"><a xlink:title=" ">
<path fill="none" stroke="#63b8ff" d="M285.9,-16.75C293.69,-16.75 301.66,-16.75 309.56,-16.75"/>
<polygon fill="#63b8ff" stroke="#63b8ff" points="309.53,-20.25 319.53,-16.75 309.53,-13.25 309.53,-20.25"/>
</a>
</g>
</g>
<!-- Node4 -->
<g id="Node000004" class="node">
<title>Node4</title>
<g id="a_Node000004"><a xlink:href="m__representation_8c.html#a7739919401d0c7058bf04cc082a1b6d5" target="_top" xlink:title=" ">
<polygon fill="white" stroke="#666666" points="619.75,-33.5 497.25,-33.5 497.25,0 619.75,0 619.75,-33.5"/>
<text xml:space="preserve" text-anchor="start" x="505.25" y="-20" font-family="Helvetica,sans-Serif" font-size="10.00">queue_representation</text>
<text xml:space="preserve" text-anchor="middle" x="558.5" y="-7.25" font-family="Helvetica,sans-Serif" font-size="10.00">_list_update</text>
</a>
</g>
</g>
<!-- Node3&#45;&gt;Node4 -->
<g id="edge3_Node000003_Node000004" class="edge">
<title>Node3&#45;&gt;Node4</title>
<g id="a_edge3_Node000003_Node000004"><a xlink:title=" ">
<path fill="none" stroke="#63b8ff" d="M461.45,-16.75C469.34,-16.75 477.41,-16.75 485.35,-16.75"/>
<polygon fill="#63b8ff" stroke="#63b8ff" points="485.33,-20.25 495.33,-16.75 485.33,-13.25 485.33,-20.25"/>
</a>
</g>
</g>
</g>
</svg>
