<?xml version="1.0" encoding="UTF-8" standalone="no"?>
<!DOCTYPE svg PUBLIC "-//W3C//DTD SVG 1.1//EN"
 "http://www.w3.org/Graphics/SVG/1.1/DTD/svg11.dtd">
<!-- Generated by graphviz version 13.1.2 (20250808.2320)
 -->
<!-- Title: profile_view_transformer_moved_cb Pages: 1 -->
<svg width="716pt" height="80pt"
 viewBox="0.00 0.00 716.00 80.00" xmlns="http://www.w3.org/2000/svg" xmlns:xlink="http://www.w3.org/1999/xlink">
<g id="graph0" class="graph" transform="scale(1 1) rotate(0) translate(4 76.12)">
<title>profile_view_transformer_moved_cb</title>
<!-- Node1 -->
<g id="Node000001" class="node">
<title>Node1</title>
<g id="a_Node000001"><a xlink:title=" ">
<polygon fill="#999999" stroke="#666666" points="139,-55.5 0,-55.5 0,-22 139,-22 139,-55.5"/>
<text xml:space="preserve" text-anchor="start" x="8" y="-42" font-family="Helvetica,sans-Serif" font-size="10.00">profile_view_transformer</text>
<text xml:space="preserve" text-anchor="middle" x="69.5" y="-29.25" font-family="Helvetica,sans-Serif" font-size="10.00">_moved_cb</text>
</a>
</g>
</g>
<!-- Node2 -->
<g id="Node000002" class="node">
<title>Node2</title>
<g id="a_Node000002"><a xlink:href="m__profile_8c.html#aab62fd14964ee14bb8b4fd16e22ecc91" target="_top" xlink:title=" ">
<polygon fill="white" stroke="#666666" points="333.5,-49.12 175,-49.12 175,-28.38 333.5,-28.38 333.5,-49.12"/>
<text xml:space="preserve" text-anchor="middle" x="254.25" y="-35.62" font-family="Helvetica,sans-Serif" font-size="10.00">m_profile_move_transformer</text>
</a>
</g>
</g>
<!-- Node1&#45;&gt;Node2 -->
<g id="edge1_Node000001_Node000002" class="edge">
<title>Node1&#45;&gt;Node2</title>
<g id="a_edge1_Node000001_Node000002"><a xlink:title=" ">
<path fill="none" stroke="#63b8ff" d="M139.33,-38.75C147.17,-38.75 155.25,-38.75 163.31,-38.75"/>
<polygon fill="#63b8ff" stroke="#63b8ff" points="163.15,-42.25 173.15,-38.75 163.15,-35.25 163.15,-42.25"/>
</a>
</g>
</g>
<!-- Node3 -->
<g id="Node000003" class="node">
<title>Node3</title>
<g id="a_Node000003"><a xlink:href="m__pipeline_8c.html#aa141d85235978061ced72acf964120b4" target="_top" xlink:title=" ">
<polygon fill="white" stroke="#666666" points="535.5,-72.12 369.5,-72.12 369.5,-51.38 535.5,-51.38 535.5,-72.12"/>
<text xml:space="preserve" text-anchor="middle" x="452.5" y="-58.62" font-family="Helvetica,sans-Serif" font-size="10.00">m_pipeline_move_transformer</text>
</a>
</g>
</g>
<!-- Node2&#45;&gt;Node3 -->
<g id="edge2_Node000002_Node000003" class="edge">
<title>Node2&#45;&gt;Node3</title>
<g id="a_edge2_Node000002_Node000003"><a xlink:title=" ">
<path fill="none" stroke="#63b8ff" d="M333.94,-47.97C341.84,-48.9 349.92,-49.84 357.95,-50.79"/>
<polygon fill="#63b8ff" stroke="#63b8ff" points="357.42,-54.25 367.76,-51.94 358.23,-47.3 357.42,-54.25"/>
</a>
</g>
</g>
<!-- Node4 -->
<g id="Node000004" class="node">
<title>Node4</title>
<g id="a_Node000004"><a xlink:href="m__profile_8c.html#a9161b482b0dc7522ee6c65b863b7e1c6" target="_top" xlink:title=" ">
<polygon fill="white" stroke="#666666" points="507.38,-33.5 397.62,-33.5 397.62,0 507.38,0 507.38,-33.5"/>
<text xml:space="preserve" text-anchor="start" x="405.62" y="-20" font-family="Helvetica,sans-Serif" font-size="10.00">m_profile_if_active</text>
<text xml:space="preserve" text-anchor="middle" x="452.5" y="-7.25" font-family="Helvetica,sans-Serif" font-size="10.00">_update_fpga</text>
</a>
</g>
</g>
<!-- Node2&#45;&gt;Node4 -->
<g id="edge3_Node000002_Node000004" class="edge">
<title>Node2&#45;&gt;Node4</title>
<g id="a_edge3_Node000002_Node000004"><a xlink:title=" ">
<path fill="none" stroke="#63b8ff" d="M333.94,-29.93C351.18,-28 369.26,-25.97 385.92,-24.1"/>
<polygon fill="#63b8ff" stroke="#63b8ff" points="386.15,-27.6 395.7,-23.01 385.37,-20.64 386.15,-27.6"/>
</a>
</g>
</g>
<!-- Node5 -->
<g id="Node000005" class="node">
<title>Node5</title>
<g id="a_Node000005"><a xlink:href="m__profile_8c.html#afb4661b1e69513d4087f5e27ec776d51" target="_top" xlink:title=" ">
<polygon fill="#fff0f0" stroke="red" points="707.5,-27.12 571.5,-27.12 571.5,-6.38 707.5,-6.38 707.5,-27.12"/>
<text xml:space="preserve" text-anchor="middle" x="639.5" y="-13.62" font-family="Helvetica,sans-Serif" font-size="10.00">m_profile_program_fpga</text>
</a>
</g>
</g>
<!-- Node4&#45;&gt;Node5 -->
<g id="edge4_Node000004_Node000005" class="edge">
<title>Node4&#45;&gt;Node5</title>
<g id="a_edge4_Node000004_Node000005"><a xlink:title=" ">
<path fill="none" stroke="#63b8ff" d="M507.51,-16.75C523.87,-16.75 542.18,-16.75 559.81,-16.75"/>
<polygon fill="#63b8ff" stroke="#63b8ff" points="559.76,-20.25 569.76,-16.75 559.76,-13.25 559.76,-20.25"/>
</a>
</g>
</g>
</g>
</svg>
