<?xml version="1.0" encoding="UTF-8" standalone="no"?>
<!DOCTYPE svg PUBLIC "-//W3C//DTD SVG 1.1//EN"
 "http://www.w3.org/Graphics/SVG/1.1/DTD/svg11.dtd">
<!-- Generated by graphviz version 13.1.2 (20250808.2320)
 -->
<!-- Title: m_pipeline_create_fpga_transfer_batch Pages: 1 -->
<svg width="797pt" height="273pt"
 viewBox="0.00 0.00 797.00 273.00" xmlns="http://www.w3.org/2000/svg" xmlns:xlink="http://www.w3.org/1999/xlink">
<g id="graph0" class="graph" transform="scale(1 1) rotate(0) translate(4 269.12)">
<title>m_pipeline_create_fpga_transfer_batch</title>
<!-- Node1 -->
<g id="Node000001" class="node">
<title>Node1</title>
<g id="a_Node000001"><a xlink:title=" ">
<polygon fill="#999999" stroke="#666666" points="788.75,-138.5 655.75,-138.5 655.75,-105 788.75,-105 788.75,-138.5"/>
<text xml:space="preserve" text-anchor="start" x="663.75" y="-125" font-family="Helvetica,sans-Serif" font-size="10.00">m_pipeline_create_fpga</text>
<text xml:space="preserve" text-anchor="middle" x="722.25" y="-112.25" font-family="Helvetica,sans-Serif" font-size="10.00">_transfer_batch</text>
</a>
</g>
</g>
<!-- Node2 -->
<g id="Node000002" class="node">
<title>Node2</title>
<g id="a_Node000002"><a xlink:href="m__profile_8c.html#ab83be7040a9737b6cd93be5a49ff019b" target="_top" xlink:title=" ">
<polygon fill="white" stroke="#666666" points="614.5,-161.5 489,-161.5 489,-128 614.5,-128 614.5,-161.5"/>
<text xml:space="preserve" text-anchor="start" x="497" y="-148" font-family="Helvetica,sans-Serif" font-size="10.00">m_profile_create_fpga</text>
<text xml:space="preserve" text-anchor="middle" x="551.75" y="-135.25" font-family="Helvetica,sans-Serif" font-size="10.00">_transfer_batch</text>
</a>
</g>
</g>
<!-- Node1&#45;&gt;Node2 -->
<g id="edge1_Node000001_Node000002" class="edge">
<title>Node1&#45;&gt;Node2</title>
<g id="a_edge1_Node000001_Node000002"><a xlink:title=" ">
<path fill="none" stroke="#63b8ff" d="M644.51,-132.22C634.59,-133.58 624.53,-134.95 614.89,-136.27"/>
<polygon fill="#63b8ff" stroke="#63b8ff" points="644.69,-135.73 654.12,-130.91 643.74,-128.8 644.69,-135.73"/>
</a>
</g>
</g>
<!-- Node3 -->
<g id="Node000003" class="node">
<title>Node3</title>
<g id="a_Node000003"><a xlink:href="m__profile_8c.html#afb4661b1e69513d4087f5e27ec776d51" target="_top" xlink:title=" ">
<polygon fill="white" stroke="#666666" points="619.75,-110.12 483.75,-110.12 483.75,-89.38 619.75,-89.38 619.75,-110.12"/>
<text xml:space="preserve" text-anchor="middle" x="551.75" y="-96.62" font-family="Helvetica,sans-Serif" font-size="10.00">m_profile_program_fpga</text>
</a>
</g>
</g>
<!-- Node1&#45;&gt;Node3 -->
<g id="edge2_Node000001_Node000003" class="edge">
<title>Node1&#45;&gt;Node3</title>
<g id="a_edge2_Node000001_Node000003"><a xlink:title=" ">
<path fill="none" stroke="#63b8ff" d="M644.31,-111.7C636.25,-110.65 628.09,-109.59 620.14,-108.55"/>
<polygon fill="#63b8ff" stroke="#63b8ff" points="643.75,-115.16 654.12,-112.99 644.66,-108.22 643.75,-115.16"/>
</a>
</g>
</g>
<!-- Node4 -->
<g id="Node000004" class="node">
<title>Node4</title>
<g id="a_Node000004"><a xlink:href="m__profile_8c.html#a9161b482b0dc7522ee6c65b863b7e1c6" target="_top" xlink:title=" ">
<polygon fill="white" stroke="#666666" points="443.62,-174.5 333.88,-174.5 333.88,-141 443.62,-141 443.62,-174.5"/>
<text xml:space="preserve" text-anchor="start" x="341.88" y="-161" font-family="Helvetica,sans-Serif" font-size="10.00">m_profile_if_active</text>
<text xml:space="preserve" text-anchor="middle" x="388.75" y="-148.25" font-family="Helvetica,sans-Serif" font-size="10.00">_update_fpga</text>
</a>
</g>
</g>
<!-- Node3&#45;&gt;Node4 -->
<g id="edge3_Node000003_Node000004" class="edge">
<title>Node3&#45;&gt;Node4</title>
<g id="a_edge3_Node000003_Node000004"><a xlink:title=" ">
<path fill="none" stroke="#63b8ff" d="M499.11,-113.74C493.89,-115.34 488.7,-117.03 483.75,-118.75 465.23,-125.19 445.09,-133.38 428.23,-140.59"/>
<polygon fill="#63b8ff" stroke="#63b8ff" points="499.74,-117.2 508.32,-110.98 497.73,-110.49 499.74,-117.2"/>
</a>
</g>
</g>
<!-- Node41 -->
<g id="Node000041" class="node">
<title>Node41</title>
<g id="a_Node000041"><a xlink:href="m__profile_8c.html#a74d36a7be10c6d05715b82bb706cd342" target="_top" xlink:title=" ">
<polygon fill="white" stroke="#666666" points="447.75,-72.12 329.75,-72.12 329.75,-51.38 447.75,-51.38 447.75,-72.12"/>
<text xml:space="preserve" text-anchor="middle" x="388.75" y="-58.62" font-family="Helvetica,sans-Serif" font-size="10.00">m_profile_set_active</text>
</a>
</g>
</g>
<!-- Node3&#45;&gt;Node41 -->
<g id="edge10_Node000003_Node000041" class="edge">
<title>Node3&#45;&gt;Node41</title>
<g id="a_edge10_Node000003_Node000041"><a xlink:title=" ">
<path fill="none" stroke="#63b8ff" d="M494.04,-86.36C474.89,-81.84 453.77,-76.86 435.57,-72.56"/>
<polygon fill="#63b8ff" stroke="#63b8ff" points="493.03,-89.72 503.57,-88.61 494.64,-82.91 493.03,-89.72"/>
</a>
</g>
</g>
<!-- Node5 -->
<g id="Node000005" class="node">
<title>Node5</title>
<g id="a_Node000005"><a xlink:href="m__effect__select_8c.html#a0a0604d69c6fbeb09b31db2ebff0e901" target="_top" xlink:title=" ">
<polygon fill="#fff0f0" stroke="red" points="293.75,-265.12 145.75,-265.12 145.75,-244.38 293.75,-244.38 293.75,-265.12"/>
<text xml:space="preserve" text-anchor="middle" x="219.75" y="-251.62" font-family="Helvetica,sans-Serif" font-size="10.00">add_effect_from_menu_eff</text>
</a>
</g>
</g>
<!-- Node4&#45;&gt;Node5 -->
<g id="edge4_Node000004_Node000005" class="edge">
<title>Node4&#45;&gt;Node5</title>
<g id="a_edge4_Node000004_Node000005"><a xlink:title=" ">
<path fill="none" stroke="#63b8ff" d="M363.2,-182.79C345.36,-199.68 319.84,-221.27 293.75,-234.75 286.75,-238.37 279.01,-241.39 271.28,-243.89"/>
<polygon fill="#63b8ff" stroke="#63b8ff" points="365.48,-185.45 370.23,-175.98 360.61,-180.42 365.48,-185.45"/>
</a>
</g>
</g>
<!-- Node12 -->
<g id="Node000012" class="node">
<title>Node12</title>
<g id="a_Node000012"><a xlink:href="m__profile_8c.html#aa4800b0c771ef2621526b18b878df2cc" target="_top" xlink:title=" ">
<polygon fill="#fff0f0" stroke="red" points="284.38,-226.12 155.12,-226.12 155.12,-205.38 284.38,-205.38 284.38,-226.12"/>
<text xml:space="preserve" text-anchor="middle" x="219.75" y="-212.62" font-family="Helvetica,sans-Serif" font-size="10.00">m_profile_move_effect</text>
</a>
</g>
</g>
<!-- Node4&#45;&gt;Node12 -->
<g id="edge5_Node000004_Node000012" class="edge">
<title>Node4&#45;&gt;Node12</title>
<g id="a_edge5_Node000004_Node000012"><a xlink:title=" ">
<path fill="none" stroke="#63b8ff" d="M337.84,-179.19C323.71,-184.91 308.24,-190.86 293.75,-195.75 284.04,-199.03 273.47,-202.17 263.46,-204.95"/>
<polygon fill="#63b8ff" stroke="#63b8ff" points="339.02,-182.49 346.94,-175.45 336.36,-176.01 339.02,-182.49"/>
</a>
</g>
</g>
<!-- Node32 -->
<g id="Node000032" class="node">
<title>Node32</title>
<g id="a_Node000032"><a xlink:href="m__profile_8c.html#a954f3dbec70179420a9e28af858bb6ea" target="_top" xlink:title=" ">
<polygon fill="#fff0f0" stroke="red" points="289.25,-187.12 150.25,-187.12 150.25,-166.38 289.25,-166.38 289.25,-187.12"/>
<text xml:space="preserve" text-anchor="middle" x="219.75" y="-173.62" font-family="Helvetica,sans-Serif" font-size="10.00">m_profile_remove_effect</text>
</a>
</g>
</g>
<!-- Node4&#45;&gt;Node32 -->
<g id="edge6_Node000004_Node000032" class="edge">
<title>Node4&#45;&gt;Node32</title>
<g id="a_edge6_Node000004_Node000032"><a xlink:title=" ">
<path fill="none" stroke="#63b8ff" d="M322.14,-165.21C311.47,-166.43 300.38,-167.69 289.63,-168.91"/>
<polygon fill="#63b8ff" stroke="#63b8ff" points="322.49,-168.7 332.03,-164.09 321.69,-161.74 322.49,-168.7"/>
</a>
</g>
</g>
<!-- Node34 -->
<g id="Node000034" class="node">
<title>Node34</title>
<g id="a_Node000034"><a xlink:href="m__profile__view_8c.html#a2b83bb92008a54500e2c61fa4611e357" target="_top" xlink:title=" ">
<polygon fill="#fff0f0" stroke="red" points="109.75,-174.5 0,-174.5 0,-141 109.75,-141 109.75,-174.5"/>
<text xml:space="preserve" text-anchor="start" x="8" y="-161" font-family="Helvetica,sans-Serif" font-size="10.00">profile_view_effect</text>
<text xml:space="preserve" text-anchor="middle" x="54.88" y="-148.25" font-family="Helvetica,sans-Serif" font-size="10.00">_delete_cb</text>
</a>
</g>
</g>
<!-- Node4&#45;&gt;Node34 -->
<g id="edge8_Node000004_Node000034" class="edge">
<title>Node4&#45;&gt;Node34</title>
<g id="a_edge8_Node000004_Node000034"><a xlink:title=" ">
<path fill="none" stroke="#63b8ff" d="M322.48,-157.75C260.46,-157.75 168.3,-157.75 110.19,-157.75"/>
<polygon fill="#63b8ff" stroke="#63b8ff" points="322.18,-161.25 332.18,-157.75 322.18,-154.25 322.18,-161.25"/>
</a>
</g>
</g>
<!-- Node35 -->
<g id="Node000035" class="node">
<title>Node35</title>
<g id="a_Node000035"><a xlink:href="m__parameter__widget_8c.html#a22b7fa4ae5f9628f2da2155f58c2635c" target="_top" xlink:title=" ">
<polygon fill="#fff0f0" stroke="red" points="270.5,-111.12 169,-111.12 169,-90.38 270.5,-90.38 270.5,-111.12"/>
<text xml:space="preserve" text-anchor="middle" x="219.75" y="-97.62" font-family="Helvetica,sans-Serif" font-size="10.00">sw_field_save_cb</text>
</a>
</g>
</g>
<!-- Node4&#45;&gt;Node35 -->
<g id="edge9_Node000004_Node000035" class="edge">
<title>Node4&#45;&gt;Node35</title>
<g id="a_edge9_Node000004_Node000035"><a xlink:title=" ">
<path fill="none" stroke="#63b8ff" d="M328.98,-136.92C317.32,-132.84 305.16,-128.63 293.75,-124.75 280.87,-120.37 266.66,-115.67 254.23,-111.6"/>
<polygon fill="#63b8ff" stroke="#63b8ff" points="327.49,-140.1 338.08,-140.11 329.8,-133.49 327.49,-140.1"/>
</a>
</g>
</g>
<!-- Node32&#45;&gt;Node34 -->
<g id="edge7_Node000032_Node000034" class="edge">
<title>Node32&#45;&gt;Node34</title>
<g id="a_edge7_Node000032_Node000034"><a xlink:title=" ">
<path fill="none" stroke="#63b8ff" d="M138.77,-167.42C129.04,-166.29 119.28,-165.15 110.06,-164.07"/>
<polygon fill="#63b8ff" stroke="#63b8ff" points="138.31,-170.89 148.65,-168.57 139.12,-163.94 138.31,-170.89"/>
</a>
</g>
</g>
<!-- Node42 -->
<g id="Node000042" class="node">
<title>Node42</title>
<g id="a_Node000042"><a xlink:href="m__context_8c.html#ac8d588588e68b5979d25a499810a512d" target="_top" xlink:title=" ">
<polygon fill="#fff0f0" stroke="red" points="271.25,-72.12 168.25,-72.12 168.25,-51.38 271.25,-51.38 271.25,-72.12"/>
<text xml:space="preserve" text-anchor="middle" x="219.75" y="-58.62" font-family="Helvetica,sans-Serif" font-size="10.00">set_active_profile</text>
</a>
</g>
</g>
<!-- Node41&#45;&gt;Node42 -->
<g id="edge11_Node000041_Node000042" class="edge">
<title>Node41&#45;&gt;Node42</title>
<g id="a_edge11_Node000041_Node000042"><a xlink:title=" ">
<path fill="none" stroke="#63b8ff" d="M318.14,-61.75C302.54,-61.75 286.29,-61.75 271.62,-61.75"/>
<polygon fill="#63b8ff" stroke="#63b8ff" points="317.83,-65.25 327.83,-61.75 317.83,-58.25 317.83,-65.25"/>
</a>
</g>
</g>
<!-- Node45 -->
<g id="Node000045" class="node">
<title>Node45</title>
<g id="a_Node000045"><a xlink:href="m__context_8c.html#ad11e37db89017f7c070e386dfce0c1f1" target="_top" xlink:title=" ">
<polygon fill="#fff0f0" stroke="red" points="271.25,-33.5 168.25,-33.5 168.25,0 271.25,0 271.25,-33.5"/>
<text xml:space="preserve" text-anchor="start" x="176.25" y="-20" font-family="Helvetica,sans-Serif" font-size="10.00">set_active_profile</text>
<text xml:space="preserve" text-anchor="middle" x="219.75" y="-7.25" font-family="Helvetica,sans-Serif" font-size="10.00">_from_sequence</text>
</a>
</g>
</g>
<!-- Node41&#45;&gt;Node45 -->
<g id="edge12_Node000041_Node000045" class="edge">
<title>Node41&#45;&gt;Node45</title>
<g id="a_edge12_Node000041_Node000045"><a xlink:title=" ">
<path fill="none" stroke="#63b8ff" d="M336.91,-48.05C316.18,-42.46 292.24,-36.02 271.51,-30.43"/>
<polygon fill="#63b8ff" stroke="#63b8ff" points="335.72,-51.36 346.29,-50.58 337.54,-44.6 335.72,-51.36"/>
</a>
</g>
</g>
</g>
</svg>
