<?xml version="1.0" encoding="UTF-8" standalone="no"?>
<!DOCTYPE svg PUBLIC "-//W3C//DTD SVG 1.1//EN"
 "http://www.w3.org/Graphics/SVG/1.1/DTD/svg11.dtd">
<!-- Generated by graphviz version 13.1.2 (20250808.2320)
 -->
<!-- Title: init_parameter Pages: 1 -->
<svg width="567pt" height="42pt"
 viewBox="0.00 0.00 567.00 42.00" xmlns="http://www.w3.org/2000/svg" xmlns:xlink="http://www.w3.org/1999/xlink">
<g id="graph0" class="graph" transform="scale(1 1) rotate(0) translate(4 37.5)">
<title>init_parameter</title>
<!-- Node1 -->
<g id="Node000001" class="node">
<title>Node1</title>
<g id="a_Node000001"><a xlink:title=" ">
<polygon fill="#999999" stroke="#666666" points="88,-27.12 0,-27.12 0,-6.38 88,-6.38 88,-27.12"/>
<text xml:space="preserve" text-anchor="middle" x="44" y="-13.62" font-family="Helvetica,sans-Serif" font-size="10.00">init_parameter</text>
</a>
</g>
</g>
<!-- Node2 -->
<g id="Node000002" class="node">
<title>Node2</title>
<g id="a_Node000002"><a xlink:href="m__parameter_8c.html#a6c029c4379be052a826c3a78b8dd1513" target="_top" xlink:title=" ">
<polygon fill="white" stroke="#666666" points="239.75,-33.5 124,-33.5 124,0 239.75,0 239.75,-33.5"/>
<text xml:space="preserve" text-anchor="start" x="132" y="-20" font-family="Helvetica,sans-Serif" font-size="10.00">m_parameter_effect</text>
<text xml:space="preserve" text-anchor="middle" x="181.88" y="-7.25" font-family="Helvetica,sans-Serif" font-size="10.00">_rep_update</text>
</a>
</g>
</g>
<!-- Node1&#45;&gt;Node2 -->
<g id="edge1_Node000001_Node000002" class="edge">
<title>Node1&#45;&gt;Node2</title>
<g id="a_edge1_Node000001_Node000002"><a xlink:title=" ">
<path fill="none" stroke="#63b8ff" d="M88.37,-16.75C95.97,-16.75 104.04,-16.75 112.13,-16.75"/>
<polygon fill="#63b8ff" stroke="#63b8ff" points="112.02,-20.25 122.02,-16.75 112.02,-13.25 112.02,-20.25"/>
</a>
</g>
</g>
<!-- Node3 -->
<g id="Node000003" class="node">
<title>Node3</title>
<g id="a_Node000003"><a xlink:href="m__effect_8c.html#a7ffa53dea58d069a71ce0288e044946b" target="_top" xlink:title=" ">
<polygon fill="white" stroke="#666666" points="400.5,-27.12 275.75,-27.12 275.75,-6.38 400.5,-6.38 400.5,-27.12"/>
<text xml:space="preserve" text-anchor="middle" x="338.12" y="-13.62" font-family="Helvetica,sans-Serif" font-size="10.00">m_effect_update_reps</text>
</a>
</g>
</g>
<!-- Node2&#45;&gt;Node3 -->
<g id="edge2_Node000002_Node000003" class="edge">
<title>Node2&#45;&gt;Node3</title>
<g id="a_edge2_Node000002_Node000003"><a xlink:title=" ">
<path fill="none" stroke="#63b8ff" d="M239.87,-16.75C247.75,-16.75 255.92,-16.75 264.04,-16.75"/>
<polygon fill="#63b8ff" stroke="#63b8ff" points="263.92,-20.25 273.92,-16.75 263.92,-13.25 263.92,-20.25"/>
</a>
</g>
</g>
<!-- Node4 -->
<g id="Node000004" class="node">
<title>Node4</title>
<g id="a_Node000004"><a xlink:href="m__representation_8c.html#a7739919401d0c7058bf04cc082a1b6d5" target="_top" xlink:title=" ">
<polygon fill="white" stroke="#666666" points="559,-33.5 436.5,-33.5 436.5,0 559,0 559,-33.5"/>
<text xml:space="preserve" text-anchor="start" x="444.5" y="-20" font-family="Helvetica,sans-Serif" font-size="10.00">queue_representation</text>
<text xml:space="preserve" text-anchor="middle" x="497.75" y="-7.25" font-family="Helvetica,sans-Serif" font-size="10.00">_list_update</text>
</a>
</g>
</g>
<!-- Node3&#45;&gt;Node4 -->
<g id="edge3_Node000003_Node000004" class="edge">
<title>Node3&#45;&gt;Node4</title>
<g id="a_edge3_Node000003_Node000004"><a xlink:title=" ">
<path fill="none" stroke="#63b8ff" d="M400.97,-16.75C408.74,-16.75 416.73,-16.75 424.64,-16.75"/>
<polygon fill="#63b8ff" stroke="#63b8ff" points="424.6,-20.25 434.6,-16.75 424.6,-13.25 424.6,-20.25"/>
</a>
</g>
</g>
</g>
</svg>
