<?xml version="1.0" encoding="UTF-8" standalone="no"?>
<!DOCTYPE svg PUBLIC "-//W3C//DTD SVG 1.1//EN"
 "http://www.w3.org/Graphics/SVG/1.1/DTD/svg11.dtd">
<!-- Generated by graphviz version 13.1.2 (20250808.2320)
 -->
<!-- Title: m_sequence_regress Pages: 1 -->
<svg width="648pt" height="68pt"
 viewBox="0.00 0.00 648.00 68.00" xmlns="http://www.w3.org/2000/svg" xmlns:xlink="http://www.w3.org/1999/xlink">
<g id="graph0" class="graph" transform="scale(1 1) rotate(0) translate(4 63.75)">
<title>m_sequence_regress</title>
<!-- Node1 -->
<g id="Node000001" class="node">
<title>Node1</title>
<g id="a_Node000001"><a xlink:title=" ">
<polygon fill="#999999" stroke="#666666" points="118.75,-39.75 0,-39.75 0,-19 118.75,-19 118.75,-39.75"/>
<text xml:space="preserve" text-anchor="middle" x="59.38" y="-26.25" font-family="Helvetica,sans-Serif" font-size="10.00">m_sequence_regress</text>
</a>
</g>
</g>
<!-- Node2 -->
<g id="Node000002" class="node">
<title>Node2</title>
<g id="a_Node000002"><a xlink:href="m__context_8c.html#ad11e37db89017f7c070e386dfce0c1f1" target="_top" xlink:title=" ">
<polygon fill="white" stroke="#666666" points="257.75,-46.12 154.75,-46.12 154.75,-12.62 257.75,-12.62 257.75,-46.12"/>
<text xml:space="preserve" text-anchor="start" x="162.75" y="-32.62" font-family="Helvetica,sans-Serif" font-size="10.00">set_active_profile</text>
<text xml:space="preserve" text-anchor="middle" x="206.25" y="-19.88" font-family="Helvetica,sans-Serif" font-size="10.00">_from_sequence</text>
</a>
</g>
</g>
<!-- Node1&#45;&gt;Node2 -->
<g id="edge1_Node000001_Node000002" class="edge">
<title>Node1&#45;&gt;Node2</title>
<g id="a_edge1_Node000001_Node000002"><a xlink:title=" ">
<path fill="none" stroke="#63b8ff" d="M118.88,-29.38C126.89,-29.38 135.13,-29.38 143.2,-29.38"/>
<polygon fill="#63b8ff" stroke="#63b8ff" points="142.93,-32.88 152.93,-29.38 142.93,-25.88 142.93,-32.88"/>
</a>
</g>
</g>
<!-- Node3 -->
<g id="Node000003" class="node">
<title>Node3</title>
<g id="a_Node000003"><a xlink:href="m__profile_8c.html#a74d36a7be10c6d05715b82bb706cd342" target="_top" xlink:title=" ">
<polygon fill="white" stroke="#666666" points="416.25,-59.75 298.25,-59.75 298.25,-39 416.25,-39 416.25,-59.75"/>
<text xml:space="preserve" text-anchor="middle" x="357.25" y="-46.25" font-family="Helvetica,sans-Serif" font-size="10.00">m_profile_set_active</text>
</a>
</g>
</g>
<!-- Node2&#45;&gt;Node3 -->
<g id="edge2_Node000002_Node000003" class="edge">
<title>Node2&#45;&gt;Node3</title>
<g id="a_edge2_Node000002_Node000003"><a xlink:title=" ">
<path fill="none" stroke="#63b8ff" d="M258.11,-36.2C267.32,-37.44 277.07,-38.75 286.71,-40.04"/>
<polygon fill="#63b8ff" stroke="#63b8ff" points="286.05,-43.48 296.43,-41.35 286.98,-36.55 286.05,-43.48"/>
</a>
</g>
</g>
<!-- Node34 -->
<g id="Node000034" class="node">
<title>Node34</title>
<g id="a_Node000034"><a xlink:href="m__profile_8c.html#a05ede4e67e9d4cf8558996a0dc2ea4ae" target="_top" xlink:title=" ">
<polygon fill="white" stroke="#666666" points="420.75,-20.75 293.75,-20.75 293.75,0 420.75,0 420.75,-20.75"/>
<text xml:space="preserve" text-anchor="middle" x="357.25" y="-7.25" font-family="Helvetica,sans-Serif" font-size="10.00">m_profile_set_inactive</text>
</a>
</g>
</g>
<!-- Node2&#45;&gt;Node34 -->
<g id="edge5_Node000002_Node000034" class="edge">
<title>Node2&#45;&gt;Node34</title>
<g id="a_edge5_Node000002_Node000034"><a xlink:title=" ">
<path fill="none" stroke="#63b8ff" d="M258.11,-22.89C265.94,-21.89 274.15,-20.84 282.35,-19.8"/>
<polygon fill="#63b8ff" stroke="#63b8ff" points="282.51,-23.31 291.99,-18.57 281.63,-16.36 282.51,-23.31"/>
</a>
</g>
</g>
<!-- Node4 -->
<g id="Node000004" class="node">
<title>Node4</title>
<g id="a_Node000004"><a xlink:href="m__profile_8c.html#afb4661b1e69513d4087f5e27ec776d51" target="_top" xlink:title=" ">
<polygon fill="#fff0f0" stroke="red" points="616.38,-59.75 480.38,-59.75 480.38,-39 616.38,-39 616.38,-59.75"/>
<text xml:space="preserve" text-anchor="middle" x="548.38" y="-46.25" font-family="Helvetica,sans-Serif" font-size="10.00">m_profile_program_fpga</text>
</a>
</g>
</g>
<!-- Node3&#45;&gt;Node4 -->
<g id="edge3_Node000003_Node000004" class="edge">
<title>Node3&#45;&gt;Node4</title>
<g id="a_edge3_Node000003_Node000004"><a xlink:title=" ">
<path fill="none" stroke="#63b8ff" d="M416.54,-49.38C433.01,-49.38 451.21,-49.38 468.67,-49.38"/>
<polygon fill="#63b8ff" stroke="#63b8ff" points="468.5,-52.88 478.5,-49.38 468.5,-45.88 468.5,-52.88"/>
</a>
</g>
</g>
<!-- Node32 -->
<g id="Node000032" class="node">
<title>Node32</title>
<g id="a_Node000032"><a xlink:href="m__profile_8c.html#a3e0dbd889a2ea32d7abb63f31b1c04ac" target="_top" xlink:title=" ">
<polygon fill="#fff0f0" stroke="red" points="640,-20.75 456.75,-20.75 456.75,0 640,0 640,-20.75"/>
<text xml:space="preserve" text-anchor="middle" x="548.38" y="-7.25" font-family="Helvetica,sans-Serif" font-size="10.00">m_profile_update_representations</text>
</a>
</g>
</g>
<!-- Node3&#45;&gt;Node32 -->
<g id="edge4_Node000003_Node000032" class="edge">
<title>Node3&#45;&gt;Node32</title>
<g id="a_edge4_Node000003_Node000032"><a xlink:title=" ">
<path fill="none" stroke="#63b8ff" d="M410.93,-38.51C433.48,-33.86 460.02,-28.39 483.66,-23.51"/>
<polygon fill="#63b8ff" stroke="#63b8ff" points="484.08,-27 493.17,-21.55 482.66,-20.15 484.08,-27"/>
</a>
</g>
</g>
<!-- Node34&#45;&gt;Node32 -->
<g id="edge6_Node000034_Node000032" class="edge">
<title>Node34&#45;&gt;Node32</title>
<g id="a_edge6_Node000034_Node000032"><a xlink:title=" ">
<path fill="none" stroke="#63b8ff" d="M421.23,-10.38C428.89,-10.38 436.88,-10.38 444.94,-10.38"/>
<polygon fill="#63b8ff" stroke="#63b8ff" points="444.84,-13.88 454.84,-10.38 444.84,-6.88 444.84,-13.88"/>
</a>
</g>
</g>
</g>
</svg>
