<?xml version="1.0" encoding="UTF-8" standalone="no"?>
<!DOCTYPE svg PUBLIC "-//W3C//DTD SVG 1.1//EN"
 "http://www.w3.org/Graphics/SVG/1.1/DTD/svg11.dtd">
<!-- Generated by graphviz version 13.1.2 (20250808.2320)
 -->
<!-- Title: seq_save_cb Pages: 1 -->
<svg width="792pt" height="210pt"
 viewBox="0.00 0.00 792.00 210.00" xmlns="http://www.w3.org/2000/svg" xmlns:xlink="http://www.w3.org/1999/xlink">
<g id="graph0" class="graph" transform="scale(1 1) rotate(0) translate(4 205.75)">
<title>seq_save_cb</title>
<!-- Node1 -->
<g id="Node000001" class="node">
<title>Node1</title>
<g id="a_Node000001"><a xlink:title=" ">
<polygon fill="#999999" stroke="#666666" points="78.25,-125.75 0,-125.75 0,-105 78.25,-105 78.25,-125.75"/>
<text xml:space="preserve" text-anchor="middle" x="39.12" y="-112.25" font-family="Helvetica,sans-Serif" font-size="10.00">seq_save_cb</text>
</a>
</g>
</g>
<!-- Node2 -->
<g id="Node000002" class="node">
<title>Node2</title>
<g id="a_Node000002"><a xlink:href="m__context_8c.html#ad6c6b5fc3e9422b30ebd4f7518b777d3" target="_top" xlink:title=" ">
<polygon fill="white" stroke="#666666" points="233,-182.75 114.25,-182.75 114.25,-162 233,-162 233,-182.75"/>
<text xml:space="preserve" text-anchor="middle" x="173.62" y="-169.25" font-family="Helvetica,sans-Serif" font-size="10.00">cxt_save_all_profiles</text>
</a>
</g>
</g>
<!-- Node1&#45;&gt;Node2 -->
<g id="edge1_Node000001_Node000002" class="edge">
<title>Node1&#45;&gt;Node2</title>
<g id="a_edge1_Node000001_Node000002"><a xlink:title=" ">
<path fill="none" stroke="#63b8ff" d="M65.36,-126.23C85.62,-134.95 114.32,-147.29 136.94,-157.02"/>
<polygon fill="#63b8ff" stroke="#63b8ff" points="135.53,-160.23 146.09,-160.96 138.29,-153.79 135.53,-160.23"/>
</a>
</g>
</g>
<!-- Node11 -->
<g id="Node000011" class="node">
<title>Node11</title>
<g id="a_Node000011"><a xlink:href="m__files_8c.html#a670728d608e316af6c3056850cb5b899" target="_top" xlink:title=" ">
<polygon fill="white" stroke="#666666" points="219.12,-106.75 128.12,-106.75 128.12,-86 219.12,-86 219.12,-106.75"/>
<text xml:space="preserve" text-anchor="middle" x="173.62" y="-93.25" font-family="Helvetica,sans-Serif" font-size="10.00">save_sequence</text>
</a>
</g>
</g>
<!-- Node1&#45;&gt;Node11 -->
<g id="edge8_Node000001_Node000011" class="edge">
<title>Node1&#45;&gt;Node11</title>
<g id="a_edge8_Node000001_Node000011"><a xlink:title=" ">
<path fill="none" stroke="#63b8ff" d="M78.45,-109.88C90.39,-108.17 103.81,-106.24 116.7,-104.39"/>
<polygon fill="#63b8ff" stroke="#63b8ff" points="116.94,-107.9 126.34,-103.01 115.94,-100.97 116.94,-107.9"/>
</a>
</g>
</g>
<!-- Node3 -->
<g id="Node000003" class="node">
<title>Node3</title>
<g id="a_Node000003"><a xlink:href="m__profile_8c.html#a7626d2057edcb47ce39ccbede89e5214" target="_top" xlink:title=" ">
<polygon fill="white" stroke="#666666" points="378.75,-201.75 287.75,-201.75 287.75,-181 378.75,-181 378.75,-201.75"/>
<text xml:space="preserve" text-anchor="middle" x="333.25" y="-188.25" font-family="Helvetica,sans-Serif" font-size="10.00">m_profile_save</text>
</a>
</g>
</g>
<!-- Node2&#45;&gt;Node3 -->
<g id="edge2_Node000002_Node000003" class="edge">
<title>Node2&#45;&gt;Node3</title>
<g id="a_edge2_Node000002_Node000003"><a xlink:title=" ">
<path fill="none" stroke="#63b8ff" d="M233.32,-179.45C247.27,-181.13 262.12,-182.92 275.96,-184.59"/>
<polygon fill="#63b8ff" stroke="#63b8ff" points="275.46,-188.05 285.8,-185.78 276.29,-181.1 275.46,-188.05"/>
</a>
</g>
</g>
<!-- Node4 -->
<g id="Node000004" class="node">
<title>Node4</title>
<g id="a_Node000004"><a xlink:href="m__profile_8c.html#a3e0dbd889a2ea32d7abb63f31b1c04ac" target="_top" xlink:title=" ">
<polygon fill="#fff0f0" stroke="red" points="616.75,-201.75 433.5,-201.75 433.5,-181 616.75,-181 616.75,-201.75"/>
<text xml:space="preserve" text-anchor="middle" x="525.12" y="-188.25" font-family="Helvetica,sans-Serif" font-size="10.00">m_profile_update_representations</text>
</a>
</g>
</g>
<!-- Node3&#45;&gt;Node4 -->
<g id="edge3_Node000003_Node000004" class="edge">
<title>Node3&#45;&gt;Node4</title>
<g id="a_edge3_Node000003_Node000004"><a xlink:title=" ">
<path fill="none" stroke="#63b8ff" d="M379.25,-191.38C392.18,-191.38 406.84,-191.38 421.75,-191.38"/>
<polygon fill="#63b8ff" stroke="#63b8ff" points="421.66,-194.88 431.66,-191.38 421.66,-187.88 421.66,-194.88"/>
</a>
</g>
</g>
<!-- Node6 -->
<g id="Node000006" class="node">
<title>Node6</title>
<g id="a_Node000006"><a xlink:href="m__files_8c.html#af05d2dbfb9a9b37f20141d551b81cbb9" target="_top" xlink:title=" ">
<polygon fill="#fff0f0" stroke="red" points="563.12,-87.75 487.12,-87.75 487.12,-67 563.12,-67 563.12,-87.75"/>
<text xml:space="preserve" text-anchor="middle" x="525.12" y="-74.25" font-family="Helvetica,sans-Serif" font-size="10.00">save_profile</text>
</a>
</g>
</g>
<!-- Node3&#45;&gt;Node6 -->
<g id="edge4_Node000003_Node000006" class="edge">
<title>Node3&#45;&gt;Node6</title>
<g id="a_edge4_Node000003_Node000006"><a xlink:title=" ">
<path fill="none" stroke="#63b8ff" d="M352.11,-180.65C385.33,-160.71 456.82,-117.78 496.38,-94.03"/>
<polygon fill="#63b8ff" stroke="#63b8ff" points="498.1,-97.08 504.87,-88.93 494.5,-91.08 498.1,-97.08"/>
</a>
</g>
</g>
<!-- Node7 -->
<g id="Node000007" class="node">
<title>Node7</title>
<g id="a_Node000007"><a xlink:href="m__files_8c.html#ab79d861306c25eab9284239e73d0cc07" target="_top" xlink:title=" ">
<polygon fill="white" stroke="#666666" points="774.12,-125.75 662.12,-125.75 662.12,-105 774.12,-105 774.12,-125.75"/>
<text xml:space="preserve" text-anchor="middle" x="718.12" y="-112.25" font-family="Helvetica,sans-Serif" font-size="10.00">dump_file_contents</text>
</a>
</g>
</g>
<!-- Node6&#45;&gt;Node7 -->
<g id="edge5_Node000006_Node000007" class="edge">
<title>Node6&#45;&gt;Node7</title>
<g id="a_edge5_Node000006_Node000007"><a xlink:title=" ">
<path fill="none" stroke="#63b8ff" d="M563.41,-84.79C588.43,-89.77 622.09,-96.47 651.53,-102.32"/>
<polygon fill="#63b8ff" stroke="#63b8ff" points="650.6,-105.71 661.1,-104.23 651.97,-98.84 650.6,-105.71"/>
</a>
</g>
</g>
<!-- Node8 -->
<g id="Node000008" class="node">
<title>Node8</title>
<g id="a_Node000008"><a xlink:href="m__files_8c.html#aa81649890323b78baf99fbbad53ab5ff" target="_top" xlink:title=" ">
<polygon fill="white" stroke="#666666" points="772.25,-77.75 664,-77.75 664,-57 772.25,-57 772.25,-77.75"/>
<text xml:space="preserve" text-anchor="middle" x="718.12" y="-64.25" font-family="Helvetica,sans-Serif" font-size="10.00">generate_filename</text>
</a>
</g>
</g>
<!-- Node6&#45;&gt;Node8 -->
<g id="edge6_Node000006_Node000008" class="edge">
<title>Node6&#45;&gt;Node8</title>
<g id="a_edge6_Node000006_Node000008"><a xlink:title=" ">
<path fill="none" stroke="#63b8ff" d="M563.41,-75.42C588.72,-74.1 622.87,-72.31 652.55,-70.76"/>
<polygon fill="#63b8ff" stroke="#63b8ff" points="652.36,-74.27 662.16,-70.25 651.99,-67.28 652.36,-74.27"/>
</a>
</g>
</g>
<!-- Node9 -->
<g id="Node000009" class="node">
<title>Node9</title>
<g id="a_Node000009"><a xlink:href="m__error__codes_8c.html#a5298df5c7af3a6aac90c055a615b171a" target="_top" xlink:title=" ">
<polygon fill="white" stroke="#666666" points="783.5,-20.75 652.75,-20.75 652.75,0 783.5,0 783.5,-20.75"/>
<text xml:space="preserve" text-anchor="middle" x="718.12" y="-7.25" font-family="Helvetica,sans-Serif" font-size="10.00">m_error_code_to_string</text>
</a>
</g>
</g>
<!-- Node6&#45;&gt;Node9 -->
<g id="edge7_Node000006_Node000009" class="edge">
<title>Node6&#45;&gt;Node9</title>
<g id="a_edge7_Node000006_Node000009"><a xlink:title=" ">
<path fill="none" stroke="#63b8ff" d="M556.81,-66.61C589.02,-55.31 639.84,-37.48 675.62,-24.94"/>
<polygon fill="#63b8ff" stroke="#63b8ff" points="676.49,-28.34 684.77,-21.73 674.17,-21.73 676.49,-28.34"/>
</a>
</g>
</g>
<!-- Node11&#45;&gt;Node7 -->
<g id="edge9_Node000011_Node000007" class="edge">
<title>Node11&#45;&gt;Node7</title>
<g id="a_edge9_Node000011_Node000007"><a xlink:title=" ">
<path fill="none" stroke="#63b8ff" d="M219.5,-107.01C235.08,-110.28 252.73,-113.5 269,-115.38 403.62,-130.86 562.5,-125.27 650.31,-120.12"/>
<polygon fill="#63b8ff" stroke="#63b8ff" points="650.42,-123.62 660.19,-119.52 650,-116.63 650.42,-123.62"/>
</a>
</g>
</g>
<!-- Node11&#45;&gt;Node8 -->
<g id="edge10_Node000011_Node000008" class="edge">
<title>Node11&#45;&gt;Node8</title>
<g id="a_edge10_Node000011_Node000008"><a xlink:title=" ">
<path fill="none" stroke="#63b8ff" d="M219.61,-86.52C235.2,-83.32 252.82,-79.93 269,-77.38 421.89,-53.2 462.12,-51.46 616.75,-58.38 628.27,-58.89 640.52,-59.74 652.35,-60.71"/>
<polygon fill="#63b8ff" stroke="#63b8ff" points="651.76,-64.17 662.02,-61.55 652.36,-57.2 651.76,-64.17"/>
</a>
</g>
</g>
<!-- Node11&#45;&gt;Node9 -->
<g id="edge11_Node000011_Node000009" class="edge">
<title>Node11&#45;&gt;Node9</title>
<g id="a_edge11_Node000011_Node000009"><a xlink:title=" ">
<path fill="none" stroke="#63b8ff" d="M194.59,-85.53C213.26,-75.92 242.21,-62.36 269,-55.38 396.76,-22.08 550.93,-13.13 641.1,-10.89"/>
<polygon fill="#63b8ff" stroke="#63b8ff" points="641.15,-14.39 651.07,-10.67 640.99,-7.39 641.15,-14.39"/>
</a>
</g>
</g>
<!-- Node12 -->
<g id="Node000012" class="node">
<title>Node12</title>
<g id="a_Node000012"><a xlink:href="m__files_8c.html#a236093031a61a19c58458ff9d0ecca85" target="_top" xlink:title=" ">
<polygon fill="white" stroke="#666666" points="397.5,-106.75 269,-106.75 269,-86 397.5,-86 397.5,-106.75"/>
<text xml:space="preserve" text-anchor="middle" x="333.25" y="-93.25" font-family="Helvetica,sans-Serif" font-size="10.00">save_sequence_as_file</text>
</a>
</g>
</g>
<!-- Node11&#45;&gt;Node12 -->
<g id="edge12_Node000011_Node000012" class="edge">
<title>Node11&#45;&gt;Node12</title>
<g id="a_edge12_Node000011_Node000012"><a xlink:title=" ">
<path fill="none" stroke="#63b8ff" d="M219.37,-96.38C231.2,-96.38 244.29,-96.38 257.25,-96.38"/>
<polygon fill="#63b8ff" stroke="#63b8ff" points="257.05,-99.88 267.05,-96.38 257.05,-92.88 257.05,-99.88"/>
</a>
</g>
</g>
<!-- Node12&#45;&gt;Node6 -->
<g id="edge14_Node000012_Node000006" class="edge">
<title>Node12&#45;&gt;Node6</title>
<g id="a_edge14_Node000012_Node000006"><a xlink:title=" ">
<path fill="none" stroke="#63b8ff" d="M397.74,-90.02C423.13,-87.48 451.89,-84.6 475.56,-82.23"/>
<polygon fill="#63b8ff" stroke="#63b8ff" points="475.63,-85.75 485.23,-81.27 474.93,-78.78 475.63,-85.75"/>
</a>
</g>
</g>
<!-- Node12&#45;&gt;Node7 -->
<g id="edge13_Node000012_Node000007" class="edge">
<title>Node12&#45;&gt;Node7</title>
<g id="a_edge13_Node000012_Node000007"><a xlink:title=" ">
<path fill="none" stroke="#63b8ff" d="M397.9,-99.53C467.7,-103 579.2,-108.53 650.25,-112.06"/>
<polygon fill="#63b8ff" stroke="#63b8ff" points="650.05,-115.55 660.21,-112.55 650.4,-108.56 650.05,-115.55"/>
</a>
</g>
</g>
</g>
</svg>
