<?xml version="1.0" encoding="UTF-8" standalone="no"?>
<!DOCTYPE svg PUBLIC "-//W3C//DTD SVG 1.1//EN"
 "http://www.w3.org/Graphics/SVG/1.1/DTD/svg11.dtd">
<!-- Generated by graphviz version 13.1.2 (20250808.2320)
 -->
<!-- Title: m_sgtl5000_init Pages: 1 -->
<!--zoomable 272 -->

<svg id="main" version="1.1" xmlns="http://www.w3.org/2000/svg" xmlns:xlink="http://www.w3.org/1999/xlink" xml:space="preserve" onload="init(evt)">

<style type="text/css"><![CDATA[
.node, .edge {opacity: 0.7;}
.node.selected, .edge.selected {opacity: 1;}
.edge:hover path { stroke: red; }
.edge:hover polygon { stroke: red; fill: red; }
]]></style>

<defs>
  <circle id="rim" cx="0" cy="0" r="7"/>
  <circle id="rim2" cx="0" cy="0" r="3.5"/>
  <g id="zoomPlus">
    <use xlink:href="#rim" fill="#404040"><set attributeName="fill" to="#808080" begin="zoomplus.mouseover" end="zoomplus.mouseout"/></use>
    <path d="M-4,0h8M0,-4v8" fill="none" stroke="white" stroke-width="1.5" pointer-events="none"/>
  </g>
  <g id="zoomMin">
    <use xlink:href="#rim" fill="#404040"><set attributeName="fill" to="#808080" begin="zoomminus.mouseover" end="zoomminus.mouseout"/></use>
    <path d="M-4,0h8" fill="none" stroke="white" stroke-width="1.5" pointer-events="none"/>
  </g>
  <g id="arrowUp" transform="translate(30 24)">
    <use xlink:href="#rim"/>
    <path pointer-events="none" fill="none" stroke="white" stroke-width="1.5" d="M0,-3.0v7 M-2.5,-0.5L0,-3.0L2.5,-0.5"/>
  </g>
  <g id="arrowRight" transform="rotate(90) translate(36 -43)">
    <use xlink:href="#rim"/>
    <path pointer-events="none" fill="none" stroke="white" stroke-width="1.5" d="M0,-3.0v7 M-2.5,-0.5L0,-3.0L2.5,-0.5"/>
  </g>
  <g id="arrowDown" transform="rotate(180) translate(-30 -48)">
    <use xlink:href="#rim"/>
    <path pointer-events="none" fill="none" stroke="white" stroke-width="1.5" d="M0,-3.0v7 M-2.5,-0.5L0,-3.0L2.5,-0.5"/>
  </g>
  <g id="arrowLeft" transform="rotate(270) translate(-36 17)">
    <use xlink:href="#rim"/>
    <path pointer-events="none" fill="none" stroke="white" stroke-width="1.5" d="M0,-3.0v7 M-2.5,-0.5L0,-3.0L2.5,-0.5"/>
  </g>
  <g id="resetDef">
    <use xlink:href="#rim2" fill="#404040"><set attributeName="fill" to="#808080" begin="reset.mouseover" end="reset.mouseout"/></use>
  </g>
</defs>
<script type="application/ecmascript">
var viewWidth = 575;
var viewHeight = 272;
var sectionId = 'dynsection-1';
</script>
<script type="application/ecmascript" xlink:href="svg.min.js"/>
<svg id="graph" class="graph">
<g id="viewport">
<title>m_sgtl5000_init</title>
<!-- Node1 -->
<g id="Node000001" class="node">
<title>Node1</title>
<g id="a_Node000001"><a xlink:title=" ">
<polygon fill="#999999" stroke="#666666" points="94,-149.75 0,-149.75 0,-129 94,-129 94,-149.75"/>
<text xml:space="preserve" text-anchor="middle" x="47" y="-136.25" font-family="Helvetica,sans-Serif" font-size="10.00">m_sgtl5000_init</text>
</a>
</g>
</g>
<!-- Node2 -->
<g id="Node000002" class="node">
<title>Node2</title>
<g id="a_Node000002"><a xlink:href="m__printf_8c.html#abf44da37b160072d305c2c5a9387d78d" target="_top" xlink:title=" ">
<polygon fill="white" stroke="#666666" points="388.5,-263.75 331.25,-263.75 331.25,-243 388.5,-243 388.5,-263.75"/>
<text xml:space="preserve" text-anchor="middle" x="359.88" y="-250.25" font-family="Helvetica,sans-Serif" font-size="10.00">m_printf</text>
</a>
</g>
</g>
<!-- Node1&#45;&gt;Node2 -->
<g id="edge1_Node000001_Node000002" class="edge">
<title>Node1&#45;&gt;Node2</title>
<g id="a_edge1_Node000001_Node000002"><a xlink:title=" ">
<path fill="none" stroke="#63b8ff" d="M53.47,-150.02C64.66,-170.53 92.33,-215.2 130,-234.38 190.6,-265.22 272.04,-263.4 319.65,-258.75"/>
<polygon fill="#63b8ff" stroke="#63b8ff" points="319.92,-262.24 329.49,-257.68 319.17,-255.28 319.92,-262.24"/>
</a>
</g>
</g>
<!-- Node3 -->
<g id="Node000003" class="node">
<title>Node3</title>
<g id="a_Node000003"><a xlink:href="m__sgtl5000_8c.html#aea0b88353e34544fac687da2c0803e75" target="_top" xlink:title=" ">
<polygon fill="white" stroke="#666666" points="243.88,-225.75 147.62,-225.75 147.62,-205 243.88,-205 243.88,-225.75"/>
<text xml:space="preserve" text-anchor="middle" x="195.75" y="-212.25" font-family="Helvetica,sans-Serif" font-size="10.00">sgtl5000_enable</text>
</a>
</g>
</g>
<!-- Node1&#45;&gt;Node3 -->
<g id="edge2_Node000001_Node000003" class="edge">
<title>Node1&#45;&gt;Node3</title>
<g id="a_edge2_Node000001_Node000003"><a xlink:title=" ">
<path fill="none" stroke="#63b8ff" d="M62.85,-150.15C78.87,-161.43 105.38,-179.18 130,-191.38 136.63,-194.66 143.84,-197.76 150.94,-200.57"/>
<polygon fill="#63b8ff" stroke="#63b8ff" points="149.57,-203.79 160.16,-204.06 152.05,-197.25 149.57,-203.79"/>
</a>
</g>
</g>
<!-- Node7 -->
<g id="Node000007" class="node">
<title>Node7</title>
<g id="a_Node000007"><a xlink:href="m__sgtl5000_8c.html#af8513a213b7a1a6f63230567bee5a9c2" target="_top" xlink:title=" ">
<polygon fill="white" stroke="#666666" points="245,-110.75 146.5,-110.75 146.5,-90 245,-90 245,-110.75"/>
<text xml:space="preserve" text-anchor="middle" x="195.75" y="-97.25" font-family="Helvetica,sans-Serif" font-size="10.00">sgtl5000_i2c_init</text>
</a>
</g>
</g>
<!-- Node1&#45;&gt;Node7 -->
<g id="edge8_Node000001_Node000007" class="edge">
<title>Node1&#45;&gt;Node7</title>
<g id="a_edge8_Node000001_Node000007"><a xlink:title=" ">
<path fill="none" stroke="#63b8ff" d="M88.88,-128.51C105.58,-124.07 125.11,-118.88 142.81,-114.18"/>
<polygon fill="#63b8ff" stroke="#63b8ff" points="143.61,-117.59 152.37,-111.64 141.81,-110.82 143.61,-117.59"/>
</a>
</g>
</g>
<!-- Node8 -->
<g id="Node000008" class="node">
<title>Node8</title>
<g id="a_Node000008"><a xlink:href="m__sgtl5000_8c.html#aa771518d0b95bc0d126b2cd83d474e2e" target="_top" xlink:title=" ">
<polygon fill="white" stroke="#666666" points="422.25,-187.75 297.5,-187.75 297.5,-167 422.25,-167 422.25,-187.75"/>
<text xml:space="preserve" text-anchor="middle" x="359.88" y="-174.25" font-family="Helvetica,sans-Serif" font-size="10.00">sgtl5000_line_in_level</text>
</a>
</g>
</g>
<!-- Node1&#45;&gt;Node8 -->
<g id="edge9_Node000001_Node000008" class="edge">
<title>Node1&#45;&gt;Node8</title>
<g id="a_edge9_Node000001_Node000008"><a xlink:title=" ">
<path fill="none" stroke="#63b8ff" d="M89.49,-150.22C102.39,-153.26 116.72,-156.3 130,-158.38 181.82,-166.49 240.82,-171.28 285.94,-174.02"/>
<polygon fill="#63b8ff" stroke="#63b8ff" points="285.69,-177.51 295.88,-174.6 286.1,-170.52 285.69,-177.51"/>
</a>
</g>
</g>
<!-- Node9 -->
<g id="Node000009" class="node">
<title>Node9</title>
<g id="a_Node000009"><a xlink:href="m__sgtl5000_8c.html#ac7edd80eb3f420ce979ca8b26f4690e6" target="_top" xlink:title=" ">
<polygon fill="white" stroke="#666666" points="261.5,-149.75 130,-149.75 130,-129 261.5,-129 261.5,-149.75"/>
<text xml:space="preserve" text-anchor="middle" x="195.75" y="-136.25" font-family="Helvetica,sans-Serif" font-size="10.00">sgtl5000_line_out_level</text>
</a>
</g>
</g>
<!-- Node1&#45;&gt;Node9 -->
<g id="edge11_Node000001_Node000009" class="edge">
<title>Node1&#45;&gt;Node9</title>
<g id="a_edge11_Node000001_Node000009"><a xlink:title=" ">
<path fill="none" stroke="#63b8ff" d="M94.43,-139.38C102.02,-139.38 110.06,-139.38 118.15,-139.38"/>
<polygon fill="#63b8ff" stroke="#63b8ff" points="118.07,-142.88 128.07,-139.38 118.07,-135.88 118.07,-142.88"/>
</a>
</g>
</g>
<!-- Node10 -->
<g id="Node000010" class="node">
<title>Node10</title>
<g id="a_Node000010"><a xlink:href="m__sgtl5000_8c.html#a1d51fa7ae716c3d8260d8c6768170a32" target="_top" xlink:title=" ">
<polygon fill="white" stroke="#666666" points="256.62,-72.12 134.88,-72.12 134.88,-38.62 256.62,-38.62 256.62,-72.12"/>
<text xml:space="preserve" text-anchor="start" x="142.88" y="-58.62" font-family="Helvetica,sans-Serif" font-size="10.00">sgtl5000_set_address</text>
<text xml:space="preserve" text-anchor="middle" x="195.75" y="-45.88" font-family="Helvetica,sans-Serif" font-size="10.00">_level</text>
</a>
</g>
</g>
<!-- Node1&#45;&gt;Node10 -->
<g id="edge13_Node000001_Node000010" class="edge">
<title>Node1&#45;&gt;Node10</title>
<g id="a_edge13_Node000001_Node000010"><a xlink:title=" ">
<path fill="none" stroke="#63b8ff" d="M61.01,-128.72C76.67,-116.23 104.12,-95.47 130,-81.38 132.51,-80.01 135.11,-78.67 137.76,-77.37"/>
<polygon fill="#63b8ff" stroke="#63b8ff" points="139.19,-80.57 146.78,-73.19 136.24,-74.22 139.19,-80.57"/>
</a>
</g>
</g>
<!-- Node11 -->
<g id="Node000011" class="node">
<title>Node11</title>
<g id="a_Node000011"><a xlink:href="m__sgtl5000_8c.html#a44cc8b14c0cea58216bdb173cd6e947b" target="_top" xlink:title=" ">
<polygon fill="white" stroke="#666666" points="254,-20.75 137.5,-20.75 137.5,0 254,0 254,-20.75"/>
<text xml:space="preserve" text-anchor="middle" x="195.75" y="-7.25" font-family="Helvetica,sans-Serif" font-size="10.00">sgtl_power_gpio_init</text>
</a>
</g>
</g>
<!-- Node1&#45;&gt;Node11 -->
<g id="edge14_Node000001_Node000011" class="edge">
<title>Node1&#45;&gt;Node11</title>
<g id="a_edge14_Node000001_Node000011"><a xlink:title=" ">
<path fill="none" stroke="#63b8ff" d="M52.92,-128.81C63.69,-106.87 91.48,-56.17 130,-29.38 131.77,-28.15 133.61,-26.99 135.52,-25.92"/>
<polygon fill="#63b8ff" stroke="#63b8ff" points="136.61,-29.28 144.09,-21.78 133.56,-22.98 136.61,-29.28"/>
</a>
</g>
</g>
<!-- Node3&#45;&gt;Node2 -->
<g id="edge3_Node000003_Node000002" class="edge">
<title>Node3&#45;&gt;Node2</title>
<g id="a_edge3_Node000003_Node000002"><a xlink:title=" ">
<path fill="none" stroke="#63b8ff" d="M242.77,-226.16C267.12,-231.87 296.69,-238.8 319.89,-244.24"/>
<polygon fill="#63b8ff" stroke="#63b8ff" points="319.04,-247.63 329.58,-246.51 320.64,-240.82 319.04,-247.63"/>
</a>
</g>
</g>
<!-- Node4 -->
<g id="Node000004" class="node">
<title>Node4</title>
<g id="a_Node000004"><a xlink:href="m__sgtl5000_8c.html#afea270852e954eff7f457aa81e56c8ea" target="_top" xlink:title=" ">
<polygon fill="white" stroke="#666666" points="419.25,-148.75 300.5,-148.75 300.5,-128 419.25,-128 419.25,-148.75"/>
<text xml:space="preserve" text-anchor="middle" x="359.88" y="-135.25" font-family="Helvetica,sans-Serif" font-size="10.00">sgtl5000_modify_reg</text>
</a>
</g>
</g>
<!-- Node3&#45;&gt;Node4 -->
<g id="edge4_Node000003_Node000004" class="edge">
<title>Node3&#45;&gt;Node4</title>
<g id="a_edge4_Node000003_Node000004"><a xlink:title=" ">
<path fill="none" stroke="#63b8ff" d="M213.33,-204.62C232.87,-192.28 266.6,-171.99 297.5,-158.38 301.83,-156.47 306.39,-154.65 311.01,-152.94"/>
<polygon fill="#63b8ff" stroke="#63b8ff" points="312.06,-156.28 320.32,-149.65 309.73,-149.67 312.06,-156.28"/>
</a>
</g>
</g>
<!-- Node6 -->
<g id="Node000006" class="node">
<title>Node6</title>
<g id="a_Node000006"><a xlink:href="m__sgtl5000_8c.html#a5d3609040614e6236b7058d3073311c5" target="_top" xlink:title=" ">
<polygon fill="white" stroke="#666666" points="567.25,-187.75 458.25,-187.75 458.25,-167 567.25,-167 567.25,-187.75"/>
<text xml:space="preserve" text-anchor="middle" x="512.75" y="-174.25" font-family="Helvetica,sans-Serif" font-size="10.00">sgtl5000_write_reg</text>
</a>
</g>
</g>
<!-- Node3&#45;&gt;Node6 -->
<g id="edge7_Node000003_Node000006" class="edge">
<title>Node3&#45;&gt;Node6</title>
<g id="a_edge7_Node000003_Node000006"><a xlink:title=" ">
<path fill="none" stroke="#63b8ff" d="M244.02,-213.12C289.79,-210.52 361.04,-205.42 422.25,-196.38 432.86,-194.81 444.11,-192.74 454.91,-190.56"/>
<polygon fill="#63b8ff" stroke="#63b8ff" points="455.4,-194.03 464.48,-188.56 453.97,-187.18 455.4,-194.03"/>
</a>
</g>
</g>
<!-- Node5 -->
<g id="Node000005" class="node">
<title>Node5</title>
<g id="a_Node000005"><a xlink:href="m__sgtl5000_8c.html#a4131ee2d0facbb38d8459e471647f68d" target="_top" xlink:title=" ">
<polygon fill="white" stroke="#666666" points="565.75,-148.75 459.75,-148.75 459.75,-128 565.75,-128 565.75,-148.75"/>
<text xml:space="preserve" text-anchor="middle" x="512.75" y="-135.25" font-family="Helvetica,sans-Serif" font-size="10.00">sgtl5000_read_reg</text>
</a>
</g>
</g>
<!-- Node4&#45;&gt;Node5 -->
<g id="edge5_Node000004_Node000005" class="edge">
<title>Node4&#45;&gt;Node5</title>
<g id="a_edge5_Node000004_Node000005"><a xlink:title=" ">
<path fill="none" stroke="#63b8ff" d="M419.64,-138.38C428.93,-138.38 438.58,-138.38 447.98,-138.38"/>
<polygon fill="#63b8ff" stroke="#63b8ff" points="447.78,-141.88 457.78,-138.38 447.78,-134.88 447.78,-141.88"/>
</a>
</g>
</g>
<!-- Node4&#45;&gt;Node6 -->
<g id="edge6_Node000004_Node000006" class="edge">
<title>Node4&#45;&gt;Node6</title>
<g id="a_edge6_Node000004_Node000006"><a xlink:title=" ">
<path fill="none" stroke="#63b8ff" d="M402.9,-149.24C420.16,-153.7 440.34,-158.92 458.61,-163.64"/>
<polygon fill="#63b8ff" stroke="#63b8ff" points="457.66,-167.01 468.22,-166.12 459.42,-160.23 457.66,-167.01"/>
</a>
</g>
</g>
<!-- Node8&#45;&gt;Node6 -->
<g id="edge10_Node000008_Node000006" class="edge">
<title>Node8&#45;&gt;Node6</title>
<g id="a_edge10_Node000008_Node000006"><a xlink:title=" ">
<path fill="none" stroke="#63b8ff" d="M422.68,-177.38C430.55,-177.38 438.63,-177.38 446.55,-177.38"/>
<polygon fill="#63b8ff" stroke="#63b8ff" points="446.5,-180.88 456.5,-177.38 446.5,-173.88 446.5,-180.88"/>
</a>
</g>
</g>
<!-- Node9&#45;&gt;Node4 -->
<g id="edge12_Node000009_Node000004" class="edge">
<title>Node9&#45;&gt;Node4</title>
<g id="a_edge12_Node000009_Node000004"><a xlink:title=" ">
<path fill="none" stroke="#63b8ff" d="M261.76,-138.97C270.68,-138.92 279.87,-138.86 288.87,-138.81"/>
<polygon fill="#63b8ff" stroke="#63b8ff" points="288.65,-142.31 298.63,-138.75 288.61,-135.31 288.65,-142.31"/>
</a>
</g>
</g>
</g>
</svg>

<g id="navigator" transform="translate(0 0)" fill="#404254">
  <rect fill="#f2f5e9" fill-opacity="0.5" stroke="#606060" stroke-width=".5" x="0" y="0" width="60" height="60"/>
  <use id="zoomplus" xlink:href="#zoomPlus" x="17" y="9" onmousedown="handleZoom(evt,'in')"/>
  <use id="zoomminus" xlink:href="#zoomMin" x="42" y="9" onmousedown="handleZoom(evt,'out')"/>
  <use id="reset" xlink:href="#resetDef" x="30" y="36" onmousedown="handleReset()"/>
   <use id="arrowup" xlink:href="#arrowUp" x="0" y="0" onmousedown="handlePan(0,-1)"/>
  <use id="arrowright" xlink:href="#arrowRight" x="0" y="0" onmousedown="handlePan(1,0)"/>
  <use id="arrowdown" xlink:href="#arrowDown" x="0" y="0" onmousedown="handlePan(0,1)"/>
  <use id="arrowleft" xlink:href="#arrowLeft" x="0" y="0" onmousedown="handlePan(-1,0)"/>
</g>
<svg viewBox="0 0 15 15" width="100%" height="30px" preserveAspectRatio="xMaxYMin meet">
 <g id="arrow_out" transform="scale(0.3 0.3)">
  <a xlink:href="m__sgtl5000_8h_a908e9babf80d7f17fb0a1127ba2f6636_cgraph_org.svg" target="_base">
   <rect id="button" ry="5" rx="5" y="6" x="6" height="38" width="38"
        fill="#f2f5e9" fill-opacity="0.5" stroke="#606060" stroke-width="1.0"/>
   <path id="arrow"
     d="M 11.500037,31.436501 C 11.940474,20.09759 22.043105,11.32322 32.158766,21.979434 L 37.068811,17.246167 C 37.068811,17.246167 37.088388,32 37.088388,32 L 22.160133,31.978069 C 22.160133,31.978069 26.997745,27.140456 26.997745,27.140456 C 18.528582,18.264221 13.291696,25.230495 11.500037,31.436501 z"
     style="fill:#404040;"/>
  </a>
 </g>
</svg>

<style type='text/css'>
<![CDATA[
[data-mouse-over-selected='false'] { opacity: 0.7; }
[data-mouse-over-selected='true']  { opacity: 1.0; }
]]>
</style>
<script type="application/ecmascript"><![CDATA[
document.addEventListener('DOMContentLoaded', (event) => {
  highlightEdges();
  highlightAdjacentNodes();
});
]]></script>
</svg>
