<?xml version="1.0" encoding="UTF-8" standalone="no"?>
<!DOCTYPE svg PUBLIC "-//W3C//DTD SVG 1.1//EN"
 "http://www.w3.org/Graphics/SVG/1.1/DTD/svg11.dtd">
<!-- Generated by graphviz version 13.1.2 (20250808.2320)
 -->
<!-- Title: m_sequence_begin_at Pages: 1 -->
<svg width="908pt" height="106pt"
 viewBox="0.00 0.00 908.00 106.00" xmlns="http://www.w3.org/2000/svg" xmlns:xlink="http://www.w3.org/1999/xlink">
<g id="graph0" class="graph" transform="scale(1 1) rotate(0) translate(4 101.75)">
<title>m_sequence_begin_at</title>
<!-- Node1 -->
<g id="Node000001" class="node">
<title>Node1</title>
<g id="a_Node000001"><a xlink:title=" ">
<polygon fill="#999999" stroke="#666666" points="124.75,-74.75 0,-74.75 0,-54 124.75,-54 124.75,-74.75"/>
<text xml:space="preserve" text-anchor="middle" x="62.38" y="-61.25" font-family="Helvetica,sans-Serif" font-size="10.00">m_sequence_begin_at</text>
</a>
</g>
</g>
<!-- Node2 -->
<g id="Node000002" class="node">
<title>Node2</title>
<g id="a_Node000002"><a xlink:href="m__sequence_8c.html#a30f0f061af1fc513bc5f9ca231252b2d" target="_top" xlink:title=" ">
<polygon fill="white" stroke="#666666" points="359,-97.75 160.75,-97.75 160.75,-77 359,-77 359,-97.75"/>
<text xml:space="preserve" text-anchor="middle" x="259.88" y="-84.25" font-family="Helvetica,sans-Serif" font-size="10.00">m_sequence_update_representations</text>
</a>
</g>
</g>
<!-- Node1&#45;&gt;Node2 -->
<g id="edge1_Node000001_Node000002" class="edge">
<title>Node1&#45;&gt;Node2</title>
<g id="a_edge1_Node000001_Node000002"><a xlink:title=" ">
<path fill="none" stroke="#63b8ff" d="M125.23,-71.65C134.93,-72.79 145.17,-74 155.49,-75.21"/>
<polygon fill="#63b8ff" stroke="#63b8ff" points="154.86,-78.66 165.2,-76.35 155.68,-71.71 154.86,-78.66"/>
</a>
</g>
</g>
<!-- Node4 -->
<g id="Node000004" class="node">
<title>Node4</title>
<g id="a_Node000004"><a xlink:href="m__context_8c.html#ad11e37db89017f7c070e386dfce0c1f1" target="_top" xlink:title=" ">
<polygon fill="white" stroke="#666666" points="311.38,-59.12 208.38,-59.12 208.38,-25.62 311.38,-25.62 311.38,-59.12"/>
<text xml:space="preserve" text-anchor="start" x="216.38" y="-45.62" font-family="Helvetica,sans-Serif" font-size="10.00">set_active_profile</text>
<text xml:space="preserve" text-anchor="middle" x="259.88" y="-32.88" font-family="Helvetica,sans-Serif" font-size="10.00">_from_sequence</text>
</a>
</g>
</g>
<!-- Node1&#45;&gt;Node4 -->
<g id="edge3_Node000001_Node000004" class="edge">
<title>Node1&#45;&gt;Node4</title>
<g id="a_edge3_Node000001_Node000004"><a xlink:title=" ">
<path fill="none" stroke="#63b8ff" d="M125.23,-57.41C148.01,-54.85 173.8,-51.95 196.62,-49.38"/>
<polygon fill="#63b8ff" stroke="#63b8ff" points="196.84,-52.88 206.39,-48.28 196.06,-45.92 196.84,-52.88"/>
</a>
</g>
</g>
<!-- Node3 -->
<g id="Node000003" class="node">
<title>Node3</title>
<g id="a_Node000003"><a xlink:href="m__representation_8c.html#a7739919401d0c7058bf04cc082a1b6d5" target="_top" xlink:title=" ">
<polygon fill="white" stroke="#666666" points="899.75,-65.12 777.25,-65.12 777.25,-31.62 899.75,-31.62 899.75,-65.12"/>
<text xml:space="preserve" text-anchor="start" x="785.25" y="-51.62" font-family="Helvetica,sans-Serif" font-size="10.00">queue_representation</text>
<text xml:space="preserve" text-anchor="middle" x="838.5" y="-38.88" font-family="Helvetica,sans-Serif" font-size="10.00">_list_update</text>
</a>
</g>
</g>
<!-- Node2&#45;&gt;Node3 -->
<g id="edge2_Node000002_Node000003" class="edge">
<title>Node2&#45;&gt;Node3</title>
<g id="a_edge2_Node000002_Node000003"><a xlink:title=" ">
<path fill="none" stroke="#63b8ff" d="M359.24,-88.23C456.61,-87.95 609.74,-84.53 741.25,-68.38 749.23,-67.4 757.53,-66.1 765.76,-64.64"/>
<polygon fill="#63b8ff" stroke="#63b8ff" points="766.24,-68.11 775.42,-62.83 764.95,-61.23 766.24,-68.11"/>
</a>
</g>
</g>
<!-- Node5 -->
<g id="Node000005" class="node">
<title>Node5</title>
<g id="a_Node000005"><a xlink:href="m__profile_8c.html#a74d36a7be10c6d05715b82bb706cd342" target="_top" xlink:title=" ">
<polygon fill="white" stroke="#666666" points="517.5,-59.75 399.5,-59.75 399.5,-39 517.5,-39 517.5,-59.75"/>
<text xml:space="preserve" text-anchor="middle" x="458.5" y="-46.25" font-family="Helvetica,sans-Serif" font-size="10.00">m_profile_set_active</text>
</a>
</g>
</g>
<!-- Node4&#45;&gt;Node5 -->
<g id="edge4_Node000004_Node000005" class="edge">
<title>Node4&#45;&gt;Node5</title>
<g id="a_edge4_Node000004_Node000005"><a xlink:title=" ">
<path fill="none" stroke="#63b8ff" d="M311.77,-44.19C334.96,-45.01 362.77,-46 387.86,-46.9"/>
<polygon fill="#63b8ff" stroke="#63b8ff" points="387.54,-50.39 397.66,-47.24 387.79,-43.39 387.54,-50.39"/>
</a>
</g>
</g>
<!-- Node35 -->
<g id="Node000035" class="node">
<title>Node35</title>
<g id="a_Node000035"><a xlink:href="m__profile_8c.html#a05ede4e67e9d4cf8558996a0dc2ea4ae" target="_top" xlink:title=" ">
<polygon fill="white" stroke="#666666" points="522,-20.75 395,-20.75 395,0 522,0 522,-20.75"/>
<text xml:space="preserve" text-anchor="middle" x="458.5" y="-7.25" font-family="Helvetica,sans-Serif" font-size="10.00">m_profile_set_inactive</text>
</a>
</g>
</g>
<!-- Node4&#45;&gt;Node35 -->
<g id="edge8_Node000004_Node000035" class="edge">
<title>Node4&#45;&gt;Node35</title>
<g id="a_edge8_Node000004_Node000035"><a xlink:title=" ">
<path fill="none" stroke="#63b8ff" d="M311.77,-34.09C333.57,-30.54 359.47,-26.33 383.35,-22.44"/>
<polygon fill="#63b8ff" stroke="#63b8ff" points="383.71,-25.93 393.02,-20.87 382.59,-19.02 383.71,-25.93"/>
</a>
</g>
</g>
<!-- Node6 -->
<g id="Node000006" class="node">
<title>Node6</title>
<g id="a_Node000006"><a xlink:href="m__profile_8c.html#afb4661b1e69513d4087f5e27ec776d51" target="_top" xlink:title=" ">
<polygon fill="#fff0f0" stroke="red" points="717.62,-59.75 581.62,-59.75 581.62,-39 717.62,-39 717.62,-59.75"/>
<text xml:space="preserve" text-anchor="middle" x="649.62" y="-46.25" font-family="Helvetica,sans-Serif" font-size="10.00">m_profile_program_fpga</text>
</a>
</g>
</g>
<!-- Node5&#45;&gt;Node6 -->
<g id="edge5_Node000005_Node000006" class="edge">
<title>Node5&#45;&gt;Node6</title>
<g id="a_edge5_Node000005_Node000006"><a xlink:title=" ">
<path fill="none" stroke="#63b8ff" d="M517.79,-49.38C534.26,-49.38 552.46,-49.38 569.92,-49.38"/>
<polygon fill="#63b8ff" stroke="#63b8ff" points="569.75,-52.88 579.75,-49.38 569.75,-45.88 569.75,-52.88"/>
</a>
</g>
</g>
<!-- Node34 -->
<g id="Node000034" class="node">
<title>Node34</title>
<g id="a_Node000034"><a xlink:href="m__profile_8c.html#a3e0dbd889a2ea32d7abb63f31b1c04ac" target="_top" xlink:title=" ">
<polygon fill="white" stroke="#666666" points="741.25,-20.75 558,-20.75 558,0 741.25,0 741.25,-20.75"/>
<text xml:space="preserve" text-anchor="middle" x="649.62" y="-7.25" font-family="Helvetica,sans-Serif" font-size="10.00">m_profile_update_representations</text>
</a>
</g>
</g>
<!-- Node5&#45;&gt;Node34 -->
<g id="edge6_Node000005_Node000034" class="edge">
<title>Node5&#45;&gt;Node34</title>
<g id="a_edge6_Node000005_Node000034"><a xlink:title=" ">
<path fill="none" stroke="#63b8ff" d="M512.18,-38.51C534.73,-33.86 561.27,-28.39 584.91,-23.51"/>
<polygon fill="#63b8ff" stroke="#63b8ff" points="585.33,-27 594.42,-21.55 583.91,-20.15 585.33,-27"/>
</a>
</g>
</g>
<!-- Node34&#45;&gt;Node3 -->
<g id="edge7_Node000034_Node000003" class="edge">
<title>Node34&#45;&gt;Node3</title>
<g id="a_edge7_Node000034_Node000003"><a xlink:title=" ">
<path fill="none" stroke="#63b8ff" d="M703.93,-21.21C723.13,-25.12 745.13,-29.59 765.66,-33.77"/>
<polygon fill="#63b8ff" stroke="#63b8ff" points="764.91,-37.18 775.4,-35.75 766.3,-30.33 764.91,-37.18"/>
</a>
</g>
</g>
<!-- Node35&#45;&gt;Node34 -->
<g id="edge9_Node000035_Node000034" class="edge">
<title>Node35&#45;&gt;Node34</title>
<g id="a_edge9_Node000035_Node000034"><a xlink:title=" ">
<path fill="none" stroke="#63b8ff" d="M522.48,-10.38C530.14,-10.38 538.13,-10.38 546.19,-10.38"/>
<polygon fill="#63b8ff" stroke="#63b8ff" points="546.09,-13.88 556.09,-10.38 546.09,-6.88 546.09,-13.88"/>
</a>
</g>
</g>
</g>
</svg>
