<?xml version="1.0" encoding="UTF-8" standalone="no"?>
<!DOCTYPE svg PUBLIC "-//W3C//DTD SVG 1.1//EN"
 "http://www.w3.org/Graphics/SVG/1.1/DTD/svg11.dtd">
<!-- Generated by graphviz version 13.1.2 (20250808.2320)
 -->
<!-- Title: m_sd_toggle_msc Pages: 1 -->
<svg width="544pt" height="29pt"
 viewBox="0.00 0.00 544.00 29.00" xmlns="http://www.w3.org/2000/svg" xmlns:xlink="http://www.w3.org/1999/xlink">
<g id="graph0" class="graph" transform="scale(1 1) rotate(0) translate(4 24.75)">
<title>m_sd_toggle_msc</title>
<!-- Node1 -->
<g id="Node000001" class="node">
<title>Node1</title>
<g id="a_Node000001"><a xlink:title=" ">
<polygon fill="#999999" stroke="#666666" points="535.75,-20.75 432,-20.75 432,0 535.75,0 535.75,-20.75"/>
<text xml:space="preserve" text-anchor="middle" x="483.88" y="-7.25" font-family="Helvetica,sans-Serif" font-size="10.00">m_sd_toggle_msc</text>
</a>
</g>
</g>
<!-- Node2 -->
<g id="Node000002" class="node">
<title>Node2</title>
<g id="a_Node000002"><a xlink:href="m__menu_8c.html#af81317c587432e8eda5ec9fa6f06090d" target="_top" xlink:title=" ">
<polygon fill="white" stroke="#666666" points="396,-20.75 291.5,-20.75 291.5,0 396,0 396,-20.75"/>
<text xml:space="preserve" text-anchor="middle" x="343.75" y="-7.25" font-family="Helvetica,sans-Serif" font-size="10.00">m_msc_button_cb</text>
</a>
</g>
</g>
<!-- Node1&#45;&gt;Node2 -->
<g id="edge1_Node000001_Node000002" class="edge">
<title>Node1&#45;&gt;Node2</title>
<g id="a_edge1_Node000001_Node000002"><a xlink:title=" ">
<path fill="none" stroke="#63b8ff" d="M420.43,-10.38C412.27,-10.38 403.99,-10.38 396.04,-10.38"/>
<polygon fill="#63b8ff" stroke="#63b8ff" points="420.32,-13.88 430.32,-10.38 420.32,-6.88 420.32,-13.88"/>
</a>
</g>
</g>
<!-- Node3 -->
<g id="Node000003" class="node">
<title>Node3</title>
<g id="a_Node000003"><a xlink:href="m__menu_8c.html#a805a6326d1f7270fb93644deef75de3d" target="_top" xlink:title=" ">
<polygon fill="white" stroke="#666666" points="255.5,-20.75 130.75,-20.75 130.75,0 255.5,0 255.5,-20.75"/>
<text xml:space="preserve" text-anchor="middle" x="193.12" y="-7.25" font-family="Helvetica,sans-Serif" font-size="10.00">configure_main_menu</text>
</a>
</g>
</g>
<!-- Node2&#45;&gt;Node3 -->
<g id="edge2_Node000002_Node000003" class="edge">
<title>Node2&#45;&gt;Node3</title>
<g id="a_edge2_Node000002_Node000003"><a xlink:title=" ">
<path fill="none" stroke="#63b8ff" d="M279.75,-10.38C271.83,-10.38 263.73,-10.38 255.83,-10.38"/>
<polygon fill="#63b8ff" stroke="#63b8ff" points="279.67,-13.88 289.67,-10.38 279.67,-6.88 279.67,-13.88"/>
</a>
</g>
</g>
<!-- Node4 -->
<g id="Node000004" class="node">
<title>Node4</title>
<g id="a_Node000004"><a xlink:href="m__menu_8c.html#abdd1333df2a66cc871f2eb36b4bbb74c" target="_top" xlink:title=" ">
<polygon fill="#fff0f0" stroke="red" points="94.75,-20.75 0,-20.75 0,0 94.75,0 94.75,-20.75"/>
<text xml:space="preserve" text-anchor="middle" x="47.38" y="-7.25" font-family="Helvetica,sans-Serif" font-size="10.00">init_main_menu</text>
</a>
</g>
</g>
<!-- Node3&#45;&gt;Node4 -->
<g id="edge3_Node000003_Node000004" class="edge">
<title>Node3&#45;&gt;Node4</title>
<g id="a_edge3_Node000003_Node000004"><a xlink:title=" ">
<path fill="none" stroke="#63b8ff" d="M118.85,-10.38C110.71,-10.38 102.6,-10.38 94.92,-10.38"/>
<polygon fill="#63b8ff" stroke="#63b8ff" points="118.81,-13.88 128.81,-10.38 118.81,-6.88 118.81,-13.88"/>
</a>
</g>
</g>
</g>
</svg>
