<?xml version="1.0" encoding="UTF-8" standalone="no"?>
<!DOCTYPE svg PUBLIC "-//W3C//DTD SVG 1.1//EN"
 "http://www.w3.org/Graphics/SVG/1.1/DTD/svg11.dtd">
<!-- Generated by graphviz version 13.1.2 (20250808.2320)
 -->
<!-- Title: m_sequence_update_representations Pages: 1 -->
<!--zoomable 350 -->

<svg id="main" version="1.1" xmlns="http://www.w3.org/2000/svg" xmlns:xlink="http://www.w3.org/1999/xlink" xml:space="preserve" onload="init(evt)">

<style type="text/css"><![CDATA[
.node, .edge {opacity: 0.7;}
.node.selected, .edge.selected {opacity: 1;}
.edge:hover path { stroke: red; }
.edge:hover polygon { stroke: red; fill: red; }
]]></style>

<defs>
  <circle id="rim" cx="0" cy="0" r="7"/>
  <circle id="rim2" cx="0" cy="0" r="3.5"/>
  <g id="zoomPlus">
    <use xlink:href="#rim" fill="#404040"><set attributeName="fill" to="#808080" begin="zoomplus.mouseover" end="zoomplus.mouseout"/></use>
    <path d="M-4,0h8M0,-4v8" fill="none" stroke="white" stroke-width="1.5" pointer-events="none"/>
  </g>
  <g id="zoomMin">
    <use xlink:href="#rim" fill="#404040"><set attributeName="fill" to="#808080" begin="zoomminus.mouseover" end="zoomminus.mouseout"/></use>
    <path d="M-4,0h8" fill="none" stroke="white" stroke-width="1.5" pointer-events="none"/>
  </g>
  <g id="arrowUp" transform="translate(30 24)">
    <use xlink:href="#rim"/>
    <path pointer-events="none" fill="none" stroke="white" stroke-width="1.5" d="M0,-3.0v7 M-2.5,-0.5L0,-3.0L2.5,-0.5"/>
  </g>
  <g id="arrowRight" transform="rotate(90) translate(36 -43)">
    <use xlink:href="#rim"/>
    <path pointer-events="none" fill="none" stroke="white" stroke-width="1.5" d="M0,-3.0v7 M-2.5,-0.5L0,-3.0L2.5,-0.5"/>
  </g>
  <g id="arrowDown" transform="rotate(180) translate(-30 -48)">
    <use xlink:href="#rim"/>
    <path pointer-events="none" fill="none" stroke="white" stroke-width="1.5" d="M0,-3.0v7 M-2.5,-0.5L0,-3.0L2.5,-0.5"/>
  </g>
  <g id="arrowLeft" transform="rotate(270) translate(-36 17)">
    <use xlink:href="#rim"/>
    <path pointer-events="none" fill="none" stroke="white" stroke-width="1.5" d="M0,-3.0v7 M-2.5,-0.5L0,-3.0L2.5,-0.5"/>
  </g>
  <g id="resetDef">
    <use xlink:href="#rim2" fill="#404040"><set attributeName="fill" to="#808080" begin="reset.mouseover" end="reset.mouseout"/></use>
  </g>
</defs>
<script type="application/ecmascript">
var viewWidth = 1103;
var viewHeight = 350;
var sectionId = 'dynsection-26';
</script>
<script type="application/ecmascript" xlink:href="svg.min.js"/>
<svg id="graph" class="graph">
<g id="viewport">
<title>m_sequence_update_representations</title>
<!-- Node1 -->
<g id="Node000001" class="node">
<title>Node1</title>
<g id="a_Node000001"><a xlink:title=" ">
<polygon fill="#999999" stroke="#666666" points="1095,-187.75 896.75,-187.75 896.75,-167 1095,-167 1095,-187.75"/>
<text xml:space="preserve" text-anchor="middle" x="995.88" y="-174.25" font-family="Helvetica,sans-Serif" font-size="10.00">m_sequence_update_representations</text>
</a>
</g>
</g>
<!-- Node2 -->
<g id="Node000002" class="node">
<title>Node2</title>
<g id="a_Node000002"><a xlink:href="m__sequence_8c.html#aac899e0bdf53c8c77191fa824d127a6a" target="_top" xlink:title=" ">
<polygon fill="white" stroke="#666666" points="851,-302.75 713.5,-302.75 713.5,-282 851,-282 851,-302.75"/>
<text xml:space="preserve" text-anchor="middle" x="782.25" y="-289.25" font-family="Helvetica,sans-Serif" font-size="10.00">m_sequence_activate_at</text>
</a>
</g>
</g>
<!-- Node1&#45;&gt;Node2 -->
<g id="edge1_Node000001_Node000002" class="edge">
<title>Node1&#45;&gt;Node2</title>
<g id="a_edge1_Node000001_Node000002"><a xlink:title=" ">
<path fill="none" stroke="#63b8ff" d="M973.14,-195.13C947.59,-215.26 903.25,-247.94 860.75,-268.38 849.96,-273.56 837.79,-277.95 826.35,-281.5"/>
<polygon fill="#63b8ff" stroke="#63b8ff" points="975.16,-197.99 980.79,-189.02 970.79,-192.52 975.16,-197.99"/>
</a>
</g>
</g>
<!-- Node27 -->
<g id="Node000027" class="node">
<title>Node27</title>
<g id="a_Node000027"><a xlink:href="m__sequence_8c.html#adf73f2f554aa6468125bd03ff33fd2df" target="_top" xlink:title=" ">
<polygon fill="white" stroke="#666666" points="837.12,-187.75 727.38,-187.75 727.38,-167 837.12,-167 837.12,-187.75"/>
<text xml:space="preserve" text-anchor="middle" x="782.25" y="-174.25" font-family="Helvetica,sans-Serif" font-size="10.00">m_sequence_begin</text>
</a>
</g>
</g>
<!-- Node1&#45;&gt;Node27 -->
<g id="edge4_Node000001_Node000027" class="edge">
<title>Node1&#45;&gt;Node27</title>
<g id="a_edge4_Node000001_Node000027"><a xlink:title=" ">
<path fill="none" stroke="#63b8ff" d="M885.06,-177.38C868.55,-177.38 852.17,-177.38 837.53,-177.38"/>
<polygon fill="#63b8ff" stroke="#63b8ff" points="884.98,-180.88 894.98,-177.38 884.98,-173.88 884.98,-180.88"/>
</a>
</g>
</g>
<!-- Node29 -->
<g id="Node000029" class="node">
<title>Node29</title>
<g id="a_Node000029"><a xlink:href="m__sequence_8c.html#aa33ba434a4158008944cc2408ca71d22" target="_top" xlink:title=" ">
<polygon fill="white" stroke="#666666" points="655,-341.75 530.25,-341.75 530.25,-321 655,-321 655,-341.75"/>
<text xml:space="preserve" text-anchor="middle" x="592.62" y="-328.25" font-family="Helvetica,sans-Serif" font-size="10.00">m_sequence_begin_at</text>
</a>
</g>
</g>
<!-- Node1&#45;&gt;Node29 -->
<g id="edge8_Node000001_Node000029" class="edge">
<title>Node1&#45;&gt;Node29</title>
<g id="a_edge8_Node000001_Node000029"><a xlink:title=" ">
<path fill="none" stroke="#63b8ff" d="M982.14,-197.13C961.1,-227.84 915.86,-286.11 860.75,-311.38 795.43,-341.32 711.66,-342.4 655.5,-338.56"/>
<polygon fill="#63b8ff" stroke="#63b8ff" points="984.85,-199.38 987.49,-189.12 979.03,-195.49 984.85,-199.38"/>
</a>
</g>
</g>
<!-- Node30 -->
<g id="Node000030" class="node">
<title>Node30</title>
<g id="a_Node000030"><a xlink:href="m__sequence_8c.html#aa922c6beaab2691aed0cbec19b8d30b3" target="_top" xlink:title=" ">
<polygon fill="white" stroke="#666666" points="666.25,-263.75 519,-263.75 519,-243 666.25,-243 666.25,-263.75"/>
<text xml:space="preserve" text-anchor="middle" x="592.62" y="-250.25" font-family="Helvetica,sans-Serif" font-size="10.00">m_sequence_move_profile</text>
</a>
</g>
</g>
<!-- Node1&#45;&gt;Node30 -->
<g id="edge10_Node000001_Node000030" class="edge">
<title>Node1&#45;&gt;Node30</title>
<g id="a_edge10_Node000001_Node000030"><a xlink:title=" ">
<path fill="none" stroke="#63b8ff" d="M965.49,-193.57C938.98,-207.32 898.46,-226.24 860.75,-235.38 796.38,-250.97 720.9,-254.78 666.63,-255.1"/>
<polygon fill="#63b8ff" stroke="#63b8ff" points="967.07,-196.69 974.27,-188.92 963.8,-190.5 967.07,-196.69"/>
</a>
</g>
</g>
<!-- Node32 -->
<g id="Node000032" class="node">
<title>Node32</title>
<g id="a_Node000032"><a xlink:href="m__sequence_8c.html#a61bf145a991bff466369abc6b552a2de" target="_top" xlink:title=" ">
<polygon fill="white" stroke="#666666" points="860.75,-20.75 703.75,-20.75 703.75,0 860.75,0 860.75,-20.75"/>
<text xml:space="preserve" text-anchor="middle" x="782.25" y="-7.25" font-family="Helvetica,sans-Serif" font-size="10.00">m_sequence_remove_profile</text>
</a>
</g>
</g>
<!-- Node1&#45;&gt;Node32 -->
<g id="edge14_Node000001_Node000032" class="edge">
<title>Node1&#45;&gt;Node32</title>
<g id="a_edge14_Node000001_Node000032"><a xlink:title=" ">
<path fill="none" stroke="#63b8ff" d="M981.36,-157.32C959.55,-126.46 913.64,-67.45 860.75,-34.38 851.91,-28.85 841.71,-24.51 831.67,-21.14"/>
<polygon fill="#63b8ff" stroke="#63b8ff" points="978.37,-159.16 986.95,-165.38 984.13,-155.17 978.37,-159.16"/>
</a>
</g>
</g>
<!-- Node35 -->
<g id="Node000035" class="node">
<title>Node35</title>
<g id="a_Node000035"><a xlink:href="m__sequence_8c.html#a99ba07d6f09fe1334d37d72773943e5c" target="_top" xlink:title=" ">
<polygon fill="white" stroke="#666666" points="834.12,-148.75 730.38,-148.75 730.38,-128 834.12,-128 834.12,-148.75"/>
<text xml:space="preserve" text-anchor="middle" x="782.25" y="-135.25" font-family="Helvetica,sans-Serif" font-size="10.00">m_sequence_stop</text>
</a>
</g>
</g>
<!-- Node1&#45;&gt;Node35 -->
<g id="edge18_Node000001_Node000035" class="edge">
<title>Node1&#45;&gt;Node35</title>
<g id="a_edge18_Node000001_Node000035"><a xlink:title=" ">
<path fill="none" stroke="#63b8ff" d="M924.83,-164.47C895.27,-159.02 861.49,-152.79 834.34,-147.79"/>
<polygon fill="#63b8ff" stroke="#63b8ff" points="923.97,-167.87 934.44,-166.24 925.24,-160.98 923.97,-167.87"/>
</a>
</g>
</g>
<!-- Node36 -->
<g id="Node000036" class="node">
<title>Node36</title>
<g id="a_Node000036"><a xlink:href="m__sequence_8c.html#ab022390b97463a126d1a84c8145426af" target="_top" xlink:title=" ">
<polygon fill="white" stroke="#666666" points="848.38,-110.12 716.12,-110.12 716.12,-76.62 848.38,-76.62 848.38,-110.12"/>
<text xml:space="preserve" text-anchor="start" x="724.12" y="-96.62" font-family="Helvetica,sans-Serif" font-size="10.00">m_sequence_stop_from</text>
<text xml:space="preserve" text-anchor="middle" x="782.25" y="-83.88" font-family="Helvetica,sans-Serif" font-size="10.00">_profile</text>
</a>
</g>
</g>
<!-- Node1&#45;&gt;Node36 -->
<g id="edge19_Node000001_Node000036" class="edge">
<title>Node1&#45;&gt;Node36</title>
<g id="a_edge19_Node000001_Node000036"><a xlink:title=" ">
<path fill="none" stroke="#63b8ff" d="M961.45,-161.99C934.51,-149.81 895.52,-132.7 860.75,-119.38 852.93,-116.38 844.6,-113.38 836.41,-110.55"/>
<polygon fill="#63b8ff" stroke="#63b8ff" points="959.93,-165.14 970.48,-166.09 962.82,-158.77 959.93,-165.14"/>
</a>
</g>
</g>
<!-- Node37 -->
<g id="Node000037" class="node">
<title>Node37</title>
<g id="a_Node000037"><a xlink:href="m__sequence_8c.html#ad2105e89b091735f2a10d1fd499d18e4" target="_top" xlink:title=" ">
<polygon fill="white" stroke="#666666" points="860,-226.75 704.5,-226.75 704.5,-206 860,-206 860,-226.75"/>
<text xml:space="preserve" text-anchor="middle" x="782.25" y="-213.25" font-family="Helvetica,sans-Serif" font-size="10.00">sequence_append_profile_rp</text>
</a>
</g>
</g>
<!-- Node1&#45;&gt;Node37 -->
<g id="edge20_Node000001_Node000037" class="edge">
<title>Node1&#45;&gt;Node37</title>
<g id="a_edge20_Node000001_Node000037"><a xlink:title=" ">
<path fill="none" stroke="#63b8ff" d="M924.71,-190.31C897.99,-195.23 867.83,-200.79 842.25,-205.5"/>
<polygon fill="#63b8ff" stroke="#63b8ff" points="925.24,-193.77 934.44,-188.51 923.97,-186.88 925.24,-193.77"/>
</a>
</g>
</g>
<!-- Node39 -->
<g id="Node000039" class="node">
<title>Node39</title>
<g id="a_Node000039"><a xlink:href="m__sequence__view_8c.html#a9a770d265f15421aca3cec3f9d758e30" target="_top" xlink:title=" ">
<polygon fill="white" stroke="#666666" points="475.88,-125.75 331.62,-125.75 331.62,-105 475.88,-105 475.88,-125.75"/>
<text xml:space="preserve" text-anchor="middle" x="403.75" y="-112.25" font-family="Helvetica,sans-Serif" font-size="10.00">sequence_view_set_name</text>
</a>
</g>
</g>
<!-- Node1&#45;&gt;Node39 -->
<g id="edge23_Node000001_Node000039" class="edge">
<title>Node1&#45;&gt;Node39</title>
<g id="a_edge23_Node000001_Node000039"><a xlink:title=" ">
<path fill="none" stroke="#63b8ff" d="M979.21,-158.05C956.42,-131.62 911.26,-85.44 860.75,-67.38 705.78,-11.95 503.7,-77.36 431.68,-104.58"/>
<polygon fill="#63b8ff" stroke="#63b8ff" points="976.48,-160.24 985.6,-165.64 981.84,-155.73 976.48,-160.24"/>
</a>
</g>
</g>
<!-- Node3 -->
<g id="Node000003" class="node">
<title>Node3</title>
<g id="a_Node000003"><a xlink:href="m__context_8c.html#ac8d588588e68b5979d25a499810a512d" target="_top" xlink:title=" ">
<polygon fill="white" stroke="#666666" points="644.12,-302.75 541.12,-302.75 541.12,-282 644.12,-282 644.12,-302.75"/>
<text xml:space="preserve" text-anchor="middle" x="592.62" y="-289.25" font-family="Helvetica,sans-Serif" font-size="10.00">set_active_profile</text>
</a>
</g>
</g>
<!-- Node2&#45;&gt;Node3 -->
<g id="edge2_Node000002_Node000003" class="edge">
<title>Node2&#45;&gt;Node3</title>
<g id="a_edge2_Node000002_Node000003"><a xlink:title=" ">
<path fill="none" stroke="#63b8ff" d="M701.9,-292.38C682.4,-292.38 662.06,-292.38 644.33,-292.38"/>
<polygon fill="#63b8ff" stroke="#63b8ff" points="701.73,-295.88 711.73,-292.38 701.73,-288.88 701.73,-295.88"/>
</a>
</g>
</g>
<!-- Node4 -->
<g id="Node000004" class="node">
<title>Node4</title>
<g id="a_Node000004"><a xlink:href="m__profile__view_8c.html#a7a586e516fd3de15ad3ee1ff2d45ee94" target="_top" xlink:title=" ">
<polygon fill="#fff0f0" stroke="red" points="481.5,-321.75 326,-321.75 326,-301 481.5,-301 481.5,-321.75"/>
<text xml:space="preserve" text-anchor="middle" x="403.75" y="-308.25" font-family="Helvetica,sans-Serif" font-size="10.00">profile_view_play_button_cb</text>
</a>
</g>
</g>
<!-- Node3&#45;&gt;Node4 -->
<g id="edge3_Node000003_Node000004" class="edge">
<title>Node3&#45;&gt;Node4</title>
<g id="a_edge3_Node000003_Node000004"><a xlink:title=" ">
<path fill="none" stroke="#63b8ff" d="M529.61,-298.68C514.27,-300.24 497.66,-301.93 481.71,-303.55"/>
<polygon fill="#63b8ff" stroke="#63b8ff" points="529.95,-302.16 539.55,-297.67 529.25,-295.2 529.95,-302.16"/>
</a>
</g>
</g>
<!-- Node28 -->
<g id="Node000028" class="node">
<title>Node28</title>
<g id="a_Node000028"><a xlink:href="m__sequence__view_8c.html#a4d67fe5ecc44c7b1bff00ec58e369dad" target="_top" xlink:title=" ">
<polygon fill="white" stroke="#666666" points="441.75,-186.75 365.75,-186.75 365.75,-166 441.75,-166 441.75,-186.75"/>
<text xml:space="preserve" text-anchor="middle" x="403.75" y="-173.25" font-family="Helvetica,sans-Serif" font-size="10.00">seq_play_cb</text>
</a>
</g>
</g>
<!-- Node27&#45;&gt;Node28 -->
<g id="edge5_Node000027_Node000028" class="edge">
<title>Node27&#45;&gt;Node28</title>
<g id="a_edge5_Node000027_Node000028"><a xlink:title=" ">
<path fill="none" stroke="#63b8ff" d="M715.59,-177.2C636.31,-176.99 505.68,-176.64 441.99,-176.47"/>
<polygon fill="#63b8ff" stroke="#63b8ff" points="715.38,-180.7 725.39,-177.23 715.4,-173.7 715.38,-180.7"/>
</a>
</g>
</g>
<!-- Node13 -->
<g id="Node000013" class="node">
<title>Node13</title>
<g id="a_Node000013"><a xlink:href="m__sequence__view_8c.html#aa023b6efccc9528b27b31dcf25d1981a" target="_top" xlink:title=" ">
<polygon fill="#fff0f0" stroke="red" points="290,-205.75 148,-205.75 148,-185 290,-185 290,-205.75"/>
<text xml:space="preserve" text-anchor="middle" x="219" y="-192.25" font-family="Helvetica,sans-Serif" font-size="10.00">configure_sequence_view</text>
</a>
</g>
</g>
<!-- Node28&#45;&gt;Node13 -->
<g id="edge6_Node000028_Node000013" class="edge">
<title>Node28&#45;&gt;Node13</title>
<g id="a_edge6_Node000028_Node000013"><a xlink:title=" ">
<path fill="none" stroke="#63b8ff" d="M353.94,-181.45C334.41,-183.48 311.53,-185.86 290.26,-188.07"/>
<polygon fill="#63b8ff" stroke="#63b8ff" points="354.24,-184.94 363.82,-180.42 353.51,-177.98 354.24,-184.94"/>
</a>
</g>
</g>
<!-- Node25 -->
<g id="Node000025" class="node">
<title>Node25</title>
<g id="a_Node000025"><a xlink:href="m__sequence__view_8c.html#aca8f9b5bdc8897b29eb2437c751d05fd" target="_top" xlink:title=" ">
<polygon fill="#fff0f0" stroke="red" points="112,-224.75 0,-224.75 0,-204 112,-204 112,-224.75"/>
<text xml:space="preserve" text-anchor="middle" x="56" y="-211.25" font-family="Helvetica,sans-Serif" font-size="10.00">init_sequence_view</text>
</a>
</g>
</g>
<!-- Node13&#45;&gt;Node25 -->
<g id="edge7_Node000013_Node000025" class="edge">
<title>Node13&#45;&gt;Node25</title>
<g id="a_edge7_Node000013_Node000025"><a xlink:title=" ">
<path fill="none" stroke="#63b8ff" d="M136.67,-204.97C128.46,-205.94 120.25,-206.91 112.4,-207.84"/>
<polygon fill="#63b8ff" stroke="#63b8ff" points="136.83,-208.48 146.35,-203.83 136.01,-201.53 136.83,-208.48"/>
</a>
</g>
</g>
<!-- Node29&#45;&gt;Node4 -->
<g id="edge9_Node000029_Node000004" class="edge">
<title>Node29&#45;&gt;Node4</title>
<g id="a_edge9_Node000029_Node000004"><a xlink:title=" ">
<path fill="none" stroke="#63b8ff" d="M518.51,-323.55C506.44,-322.26 493.89,-320.92 481.73,-319.61"/>
<polygon fill="#63b8ff" stroke="#63b8ff" points="518.1,-327.03 528.41,-324.61 518.84,-320.07 518.1,-327.03"/>
</a>
</g>
</g>
<!-- Node31 -->
<g id="Node000031" class="node">
<title>Node31</title>
<g id="a_Node000031"><a xlink:href="m__sequence__view_8c.html#aacc78919e7b37eacdae0786af1be09a1" target="_top" xlink:title=" ">
<polygon fill="white" stroke="#666666" points="462.38,-262.75 345.12,-262.75 345.12,-242 462.38,-242 462.38,-262.75"/>
<text xml:space="preserve" text-anchor="middle" x="403.75" y="-249.25" font-family="Helvetica,sans-Serif" font-size="10.00">seq_view_moved_cb</text>
</a>
</g>
</g>
<!-- Node30&#45;&gt;Node31 -->
<g id="edge11_Node000030_Node000031" class="edge">
<title>Node30&#45;&gt;Node31</title>
<g id="a_edge11_Node000030_Node000031"><a xlink:title=" ">
<path fill="none" stroke="#63b8ff" d="M507.17,-252.92C492.14,-252.84 476.8,-252.76 462.72,-252.69"/>
<polygon fill="#63b8ff" stroke="#63b8ff" points="507.04,-256.42 517.06,-252.98 507.08,-249.42 507.04,-256.42"/>
</a>
</g>
</g>
<!-- Node31&#45;&gt;Node13 -->
<g id="edge12_Node000031_Node000013" class="edge">
<title>Node31&#45;&gt;Node13</title>
<g id="a_edge12_Node000031_Node000013"><a xlink:title=" ">
<path fill="none" stroke="#63b8ff" d="M357.17,-238.16C325.42,-228.26 283.73,-215.25 254.67,-206.19"/>
<polygon fill="#63b8ff" stroke="#63b8ff" points="355.91,-241.43 366.5,-241.07 358,-234.75 355.91,-241.43"/>
</a>
</g>
</g>
<!-- Node31&#45;&gt;Node25 -->
<g id="edge13_Node000031_Node000025" class="edge">
<title>Node31&#45;&gt;Node25</title>
<g id="a_edge13_Node000031_Node000025"><a xlink:title=" ">
<path fill="none" stroke="#63b8ff" d="M333.52,-244.77C268.54,-237.62 172.58,-227.08 112.48,-220.47"/>
<polygon fill="#63b8ff" stroke="#63b8ff" points="333.05,-248.24 343.37,-245.85 333.82,-241.28 333.05,-248.24"/>
</a>
</g>
</g>
<!-- Node33 -->
<g id="Node000033" class="node">
<title>Node33</title>
<g id="a_Node000033"><a xlink:href="m__sequence_8c.html#a2427382f3eb87e9215619cb79fdd53b2" target="_top" xlink:title=" ">
<polygon fill="white" stroke="#666666" points="667.75,-20.75 517.5,-20.75 517.5,0 667.75,0 667.75,-20.75"/>
<text xml:space="preserve" text-anchor="middle" x="592.62" y="-7.25" font-family="Helvetica,sans-Serif" font-size="10.00">m_sequence_delete_profile</text>
</a>
</g>
</g>
<!-- Node32&#45;&gt;Node33 -->
<g id="edge15_Node000032_Node000033" class="edge">
<title>Node32&#45;&gt;Node33</title>
<g id="a_edge15_Node000032_Node000033"><a xlink:title=" ">
<path fill="none" stroke="#63b8ff" d="M692.01,-10.38C683.97,-10.38 675.9,-10.38 668.01,-10.38"/>
<polygon fill="#63b8ff" stroke="#63b8ff" points="691.8,-13.88 701.8,-10.38 691.8,-6.88 691.8,-13.88"/>
</a>
</g>
</g>
<!-- Node34 -->
<g id="Node000034" class="node">
<title>Node34</title>
<g id="a_Node000034"><a xlink:href="m__sequence__view_8c.html#a9a0be351bdd5685ccc3acd2a74064468" target="_top" xlink:title=" ">
<polygon fill="white" stroke="#666666" points="460.88,-42.75 346.62,-42.75 346.62,-22 460.88,-22 460.88,-42.75"/>
<text xml:space="preserve" text-anchor="middle" x="403.75" y="-29.25" font-family="Helvetica,sans-Serif" font-size="10.00">seq_view_delete_cb</text>
</a>
</g>
</g>
<!-- Node33&#45;&gt;Node34 -->
<g id="edge16_Node000033_Node000034" class="edge">
<title>Node33&#45;&gt;Node34</title>
<g id="a_edge16_Node000033_Node000034"><a xlink:title=" ">
<path fill="none" stroke="#63b8ff" d="M506.22,-20.43C491,-22.22 475.48,-24.05 461.32,-25.72"/>
<polygon fill="#63b8ff" stroke="#63b8ff" points="506.2,-23.96 515.73,-19.31 505.39,-17 506.2,-23.96"/>
</a>
</g>
</g>
<!-- Node34&#45;&gt;Node13 -->
<g id="edge17_Node000034_Node000013" class="edge">
<title>Node34&#45;&gt;Node13</title>
<g id="a_edge17_Node000034_Node000013"><a xlink:title=" ">
<path fill="none" stroke="#63b8ff" d="M380.68,-50.23C365.19,-62.89 344.1,-80.4 326,-96.38 290.51,-127.7 249.98,-166.41 230.95,-184.76"/>
<polygon fill="#63b8ff" stroke="#63b8ff" points="382.81,-53.01 388.35,-43.98 378.39,-47.58 382.81,-53.01"/>
</a>
</g>
</g>
<!-- Node38 -->
<g id="Node000038" class="node">
<title>Node38</title>
<g id="a_Node000038"><a xlink:href="m__sequence__view_8c.html#a83d1a352af6a3932ce4d08e01f7d8d8a" target="_top" xlink:title=" ">
<polygon fill="white" stroke="#666666" points="630.25,-224.75 555,-224.75 555,-204 630.25,-204 630.25,-224.75"/>
<text xml:space="preserve" text-anchor="middle" x="592.62" y="-211.25" font-family="Helvetica,sans-Serif" font-size="10.00">seq_plus_cb</text>
</a>
</g>
</g>
<!-- Node37&#45;&gt;Node38 -->
<g id="edge21_Node000037_Node000038" class="edge">
<title>Node37&#45;&gt;Node38</title>
<g id="a_edge21_Node000037_Node000038"><a xlink:title=" ">
<path fill="none" stroke="#63b8ff" d="M692.74,-215.43C670.86,-215.2 648.59,-214.96 630.72,-214.77"/>
<polygon fill="#63b8ff" stroke="#63b8ff" points="692.57,-218.93 702.61,-215.54 692.65,-211.93 692.57,-218.93"/>
</a>
</g>
</g>
<!-- Node38&#45;&gt;Node13 -->
<g id="edge22_Node000038_Node000013" class="edge">
<title>Node38&#45;&gt;Node13</title>
<g id="a_edge22_Node000038_Node000013"><a xlink:title=" ">
<path fill="none" stroke="#63b8ff" d="M543.2,-211.9C478.72,-208.6 364.25,-202.75 290.28,-198.97"/>
<polygon fill="#63b8ff" stroke="#63b8ff" points="542.96,-215.39 553.12,-212.41 543.31,-208.4 542.96,-215.39"/>
</a>
</g>
</g>
<!-- Node39&#45;&gt;Node13 -->
<g id="edge24_Node000039_Node000013" class="edge">
<title>Node39&#45;&gt;Node13</title>
<g id="a_edge24_Node000039_Node000013"><a xlink:title=" ">
<path fill="none" stroke="#63b8ff" d="M367.59,-130.77C331.59,-146.53 276.54,-170.62 244.84,-184.5"/>
<polygon fill="#63b8ff" stroke="#63b8ff" points="368.96,-133.99 376.72,-126.77 366.15,-127.58 368.96,-133.99"/>
</a>
</g>
</g>
</g>
</svg>

<g id="navigator" transform="translate(0 0)" fill="#404254">
  <rect fill="#f2f5e9" fill-opacity="0.5" stroke="#606060" stroke-width=".5" x="0" y="0" width="60" height="60"/>
  <use id="zoomplus" xlink:href="#zoomPlus" x="17" y="9" onmousedown="handleZoom(evt,'in')"/>
  <use id="zoomminus" xlink:href="#zoomMin" x="42" y="9" onmousedown="handleZoom(evt,'out')"/>
  <use id="reset" xlink:href="#resetDef" x="30" y="36" onmousedown="handleReset()"/>
   <use id="arrowup" xlink:href="#arrowUp" x="0" y="0" onmousedown="handlePan(0,-1)"/>
  <use id="arrowright" xlink:href="#arrowRight" x="0" y="0" onmousedown="handlePan(1,0)"/>
  <use id="arrowdown" xlink:href="#arrowDown" x="0" y="0" onmousedown="handlePan(0,1)"/>
  <use id="arrowleft" xlink:href="#arrowLeft" x="0" y="0" onmousedown="handlePan(-1,0)"/>
</g>
<svg viewBox="0 0 15 15" width="100%" height="30px" preserveAspectRatio="xMaxYMin meet">
 <g id="arrow_out" transform="scale(0.3 0.3)">
  <a xlink:href="m__sequence_8c_a30f0f061af1fc513bc5f9ca231252b2d_icgraph_org.svg" target="_base">
   <rect id="button" ry="5" rx="5" y="6" x="6" height="38" width="38"
        fill="#f2f5e9" fill-opacity="0.5" stroke="#606060" stroke-width="1.0"/>
   <path id="arrow"
     d="M 11.500037,31.436501 C 11.940474,20.09759 22.043105,11.32322 32.158766,21.979434 L 37.068811,17.246167 C 37.068811,17.246167 37.088388,32 37.088388,32 L 22.160133,31.978069 C 22.160133,31.978069 26.997745,27.140456 26.997745,27.140456 C 18.528582,18.264221 13.291696,25.230495 11.500037,31.436501 z"
     style="fill:#404040;"/>
  </a>
 </g>
</svg>

<style type='text/css'>
<![CDATA[
[data-mouse-over-selected='false'] { opacity: 0.7; }
[data-mouse-over-selected='true']  { opacity: 1.0; }
]]>
</style>
<script type="application/ecmascript"><![CDATA[
document.addEventListener('DOMContentLoaded', (event) => {
  highlightEdges();
  highlightAdjacentNodes();
});
]]></script>
</svg>
