<?xml version="1.0" encoding="UTF-8" standalone="no"?>
<!DOCTYPE svg PUBLIC "-//W3C//DTD SVG 1.1//EN"
 "http://www.w3.org/Graphics/SVG/1.1/DTD/svg11.dtd">
<!-- Generated by graphviz version 13.1.2 (20250808.2320)
 -->
<!-- Title: create_sequence_view_for Pages: 1 -->
<!--zoomable 837 -->

<svg id="main" version="1.1" xmlns="http://www.w3.org/2000/svg" xmlns:xlink="http://www.w3.org/1999/xlink" xml:space="preserve" onload="init(evt)">

<style type="text/css"><![CDATA[
.node, .edge {opacity: 0.7;}
.node.selected, .edge.selected {opacity: 1;}
.edge:hover path { stroke: red; }
.edge:hover polygon { stroke: red; fill: red; }
]]></style>

<defs>
  <circle id="rim" cx="0" cy="0" r="7"/>
  <circle id="rim2" cx="0" cy="0" r="3.5"/>
  <g id="zoomPlus">
    <use xlink:href="#rim" fill="#404040"><set attributeName="fill" to="#808080" begin="zoomplus.mouseover" end="zoomplus.mouseout"/></use>
    <path d="M-4,0h8M0,-4v8" fill="none" stroke="white" stroke-width="1.5" pointer-events="none"/>
  </g>
  <g id="zoomMin">
    <use xlink:href="#rim" fill="#404040"><set attributeName="fill" to="#808080" begin="zoomminus.mouseover" end="zoomminus.mouseout"/></use>
    <path d="M-4,0h8" fill="none" stroke="white" stroke-width="1.5" pointer-events="none"/>
  </g>
  <g id="arrowUp" transform="translate(30 24)">
    <use xlink:href="#rim"/>
    <path pointer-events="none" fill="none" stroke="white" stroke-width="1.5" d="M0,-3.0v7 M-2.5,-0.5L0,-3.0L2.5,-0.5"/>
  </g>
  <g id="arrowRight" transform="rotate(90) translate(36 -43)">
    <use xlink:href="#rim"/>
    <path pointer-events="none" fill="none" stroke="white" stroke-width="1.5" d="M0,-3.0v7 M-2.5,-0.5L0,-3.0L2.5,-0.5"/>
  </g>
  <g id="arrowDown" transform="rotate(180) translate(-30 -48)">
    <use xlink:href="#rim"/>
    <path pointer-events="none" fill="none" stroke="white" stroke-width="1.5" d="M0,-3.0v7 M-2.5,-0.5L0,-3.0L2.5,-0.5"/>
  </g>
  <g id="arrowLeft" transform="rotate(270) translate(-36 17)">
    <use xlink:href="#rim"/>
    <path pointer-events="none" fill="none" stroke="white" stroke-width="1.5" d="M0,-3.0v7 M-2.5,-0.5L0,-3.0L2.5,-0.5"/>
  </g>
  <g id="resetDef">
    <use xlink:href="#rim2" fill="#404040"><set attributeName="fill" to="#808080" begin="reset.mouseover" end="reset.mouseout"/></use>
  </g>
</defs>
<script type="application/ecmascript">
var viewWidth = 1068;
var viewHeight = 837;
var sectionId = 'dynsection-3';
</script>
<script type="application/ecmascript" xlink:href="svg.min.js"/>
<svg id="graph" class="graph">
<g id="viewport">
<title>create_sequence_view_for</title>
<!-- Node1 -->
<g id="Node000001" class="node">
<title>Node1</title>
<g id="a_Node000001"><a xlink:title=" ">
<polygon fill="#999999" stroke="#666666" points="145.75,-206.12 0,-206.12 0,-185.38 145.75,-185.38 145.75,-206.12"/>
<text xml:space="preserve" text-anchor="middle" x="72.88" y="-192.62" font-family="Helvetica,sans-Serif" font-size="10.00">create_sequence_view_for</text>
</a>
</g>
</g>
<!-- Node2 -->
<g id="Node000002" class="node">
<title>Node2</title>
<g id="a_Node000002"><a xlink:href="m__sequence__view_8c.html#aa023b6efccc9528b27b31dcf25d1981a" target="_top" xlink:title=" ">
<polygon fill="white" stroke="#666666" points="477.75,-490.12 335.75,-490.12 335.75,-469.38 477.75,-469.38 477.75,-490.12"/>
<text xml:space="preserve" text-anchor="middle" x="406.75" y="-476.62" font-family="Helvetica,sans-Serif" font-size="10.00">configure_sequence_view</text>
</a>
</g>
</g>
<!-- Node1&#45;&gt;Node2 -->
<g id="edge1_Node000001_Node000002" class="edge">
<title>Node1&#45;&gt;Node2</title>
<g id="a_edge1_Node000001_Node000002"><a xlink:title=" ">
<path fill="none" stroke="#63b8ff" d="M86.48,-206.54C136.48,-249.33 321.22,-407.41 384.4,-461.48"/>
<polygon fill="#63b8ff" stroke="#63b8ff" points="382.11,-464.13 391.98,-467.97 386.66,-458.81 382.11,-464.13"/>
</a>
</g>
</g>
<!-- Node197 -->
<g id="Node000197" class="node">
<title>Node197</title>
<g id="a_Node000197"><a xlink:href="m__sequence__view_8c.html#aca8f9b5bdc8897b29eb2437c751d05fd" target="_top" xlink:title=" ">
<polygon fill="white" stroke="#666666" points="293.75,-187.12 181.75,-187.12 181.75,-166.38 293.75,-166.38 293.75,-187.12"/>
<text xml:space="preserve" text-anchor="middle" x="237.75" y="-173.62" font-family="Helvetica,sans-Serif" font-size="10.00">init_sequence_view</text>
</a>
</g>
</g>
<!-- Node1&#45;&gt;Node197 -->
<g id="edge39_Node000001_Node000197" class="edge">
<title>Node1&#45;&gt;Node197</title>
<g id="a_edge39_Node000001_Node000197"><a xlink:title=" ">
<path fill="none" stroke="#63b8ff" d="M145.79,-187.36C153.9,-186.42 162.13,-185.45 170.17,-184.52"/>
<polygon fill="#63b8ff" stroke="#63b8ff" points="170.34,-188.02 179.86,-183.39 169.52,-181.07 170.34,-188.02"/>
</a>
</g>
</g>
<!-- Node3 -->
<g id="Node000003" class="node">
<title>Node3</title>
<g id="a_Node000003"><a xlink:href="m__button_8c.html#a5692c243172ed156d2fd4cc77fe1aae2" target="_top" xlink:title=" ">
<polygon fill="white" stroke="#666666" points="878.38,-755.5 749.88,-755.5 749.88,-722 878.38,-722 878.38,-755.5"/>
<text xml:space="preserve" text-anchor="start" x="757.88" y="-742" font-family="Helvetica,sans-Serif" font-size="10.00">m_active_button_array</text>
<text xml:space="preserve" text-anchor="middle" x="814.12" y="-729.25" font-family="Helvetica,sans-Serif" font-size="10.00">_append_new</text>
</a>
</g>
</g>
<!-- Node2&#45;&gt;Node3 -->
<g id="edge2_Node000002_Node000003" class="edge">
<title>Node2&#45;&gt;Node3</title>
<g id="a_edge2_Node000002_Node000003"><a xlink:title=" ">
<path fill="none" stroke="#63b8ff" d="M412.45,-490.58C425.22,-518.64 463.41,-594.06 519.75,-630.75 587.42,-674.82 627.82,-629.09 697,-670.75 718.06,-683.43 712.54,-699.11 733,-712.75 735.08,-714.13 737.23,-715.45 739.45,-716.7"/>
<polygon fill="#63b8ff" stroke="#63b8ff" points="737.62,-719.7 748.13,-721.08 740.78,-713.45 737.62,-719.7"/>
</a>
</g>
</g>
<!-- Node44 -->
<g id="Node000044" class="node">
<title>Node44</title>
<g id="a_Node000044"><a xlink:href="m__button_8c.html#a7913a353bac8d50ee8b8c4d3c0a88301" target="_top" xlink:title=" ">
<polygon fill="white" stroke="#666666" points="873.12,-703.5 755.12,-703.5 755.12,-670 873.12,-670 873.12,-703.5"/>
<text xml:space="preserve" text-anchor="start" x="763.12" y="-690" font-family="Helvetica,sans-Serif" font-size="10.00">m_active_button_set</text>
<text xml:space="preserve" text-anchor="middle" x="814.12" y="-677.25" font-family="Helvetica,sans-Serif" font-size="10.00">_representation</text>
</a>
</g>
</g>
<!-- Node2&#45;&gt;Node44 -->
<g id="edge6_Node000002_Node000044" class="edge">
<title>Node2&#45;&gt;Node44</title>
<g id="a_edge6_Node000002_Node000044"><a xlink:title=" ">
<path fill="none" stroke="#63b8ff" d="M415.01,-490.57C431.03,-513.57 471.82,-567.41 519.75,-594.75 590.17,-634.91 622.44,-605.94 697,-637.75 714.46,-645.2 715.83,-652.64 733,-660.75 736.55,-662.42 740.23,-664.03 743.98,-665.57"/>
<polygon fill="#63b8ff" stroke="#63b8ff" points="742.67,-668.82 753.26,-669.17 745.21,-662.29 742.67,-668.82"/>
</a>
</g>
</g>
<!-- Node45 -->
<g id="Node000045" class="node">
<title>Node45</title>
<g id="a_Node000045"><a xlink:href="m__sequence_8c.html#a6a2fae9e77fa2e79029a73fcc86b89dd" target="_top" xlink:title=" ">
<polygon fill="white" stroke="#666666" points="697,-510.12 519.75,-510.12 519.75,-489.38 697,-489.38 697,-510.12"/>
<text xml:space="preserve" text-anchor="middle" x="608.38" y="-496.62" font-family="Helvetica,sans-Serif" font-size="10.00">m_sequence_add_representation</text>
</a>
</g>
</g>
<!-- Node2&#45;&gt;Node45 -->
<g id="edge7_Node000002_Node000045" class="edge">
<title>Node2&#45;&gt;Node45</title>
<g id="a_edge7_Node000002_Node000045"><a xlink:title=" ">
<path fill="none" stroke="#63b8ff" d="M478.13,-486.8C487.84,-487.77 497.95,-488.79 508.06,-489.8"/>
<polygon fill="#63b8ff" stroke="#63b8ff" points="507.64,-493.27 517.93,-490.79 508.33,-486.31 507.64,-493.27"/>
</a>
</g>
</g>
<!-- Node46 -->
<g id="Node000046" class="node">
<title>Node46</title>
<g id="a_Node000046"><a xlink:href="m__ui_8c.html#ae696464ca3c77e7c324af00fb8292c2a" target="_top" xlink:title=" ">
<polygon fill="white" stroke="#666666" points="642.62,-471.12 574.12,-471.12 574.12,-450.38 642.62,-450.38 642.62,-471.12"/>
<text xml:space="preserve" text-anchor="middle" x="608.38" y="-457.62" font-family="Helvetica,sans-Serif" font-size="10.00">new_panel</text>
</a>
</g>
</g>
<!-- Node2&#45;&gt;Node46 -->
<g id="edge8_Node000002_Node000046" class="edge">
<title>Node2&#45;&gt;Node46</title>
<g id="a_edge8_Node000002_Node000046"><a xlink:title=" ">
<path fill="none" stroke="#63b8ff" d="M478.13,-473.05C506.14,-470.39 537.54,-467.4 562.37,-465.03"/>
<polygon fill="#63b8ff" stroke="#63b8ff" points="562.51,-468.54 572.13,-464.1 561.85,-461.57 562.51,-468.54"/>
</a>
</g>
</g>
<!-- Node48 -->
<g id="Node000048" class="node">
<title>Node48</title>
<g id="a_Node000048"><a xlink:href="m__sequence__view_8c.html#a4d67fe5ecc44c7b1bff00ec58e369dad" target="_top" xlink:title=" ">
<polygon fill="white" stroke="#666666" points="646.38,-432.12 570.38,-432.12 570.38,-411.38 646.38,-411.38 646.38,-432.12"/>
<text xml:space="preserve" text-anchor="middle" x="608.38" y="-418.62" font-family="Helvetica,sans-Serif" font-size="10.00">seq_play_cb</text>
</a>
</g>
</g>
<!-- Node2&#45;&gt;Node48 -->
<g id="edge10_Node000002_Node000048" class="edge">
<title>Node2&#45;&gt;Node48</title>
<g id="a_edge10_Node000002_Node000048"><a xlink:title=" ">
<path fill="none" stroke="#63b8ff" d="M436.97,-468.92C459.42,-460.82 491.3,-449.8 519.75,-441.75 532.41,-438.17 546.23,-434.78 559.08,-431.84"/>
<polygon fill="#63b8ff" stroke="#63b8ff" points="559.6,-435.31 568.59,-429.71 558.07,-428.48 559.6,-435.31"/>
</a>
</g>
</g>
<!-- Node84 -->
<g id="Node000084" class="node">
<title>Node84</title>
<g id="a_Node000084"><a xlink:href="m__sequence__view_8c.html#a83d1a352af6a3932ce4d08e01f7d8d8a" target="_top" xlink:title=" ">
<polygon fill="white" stroke="#666666" points="646,-586.12 570.75,-586.12 570.75,-565.38 646,-565.38 646,-586.12"/>
<text xml:space="preserve" text-anchor="middle" x="608.38" y="-572.62" font-family="Helvetica,sans-Serif" font-size="10.00">seq_plus_cb</text>
</a>
</g>
</g>
<!-- Node2&#45;&gt;Node84 -->
<g id="edge12_Node000002_Node000084" class="edge">
<title>Node2&#45;&gt;Node84</title>
<g id="a_edge12_Node000002_Node000084"><a xlink:title=" ">
<path fill="none" stroke="#63b8ff" d="M421.45,-490.54C441.81,-506.1 481.75,-534.81 519.75,-551.75 532.24,-557.32 546.33,-561.87 559.49,-565.45"/>
<polygon fill="#63b8ff" stroke="#63b8ff" points="558.25,-568.75 568.81,-567.86 560,-561.97 558.25,-568.75"/>
</a>
</g>
</g>
<!-- Node89 -->
<g id="Node000089" class="node">
<title>Node89</title>
<g id="a_Node000089"><a xlink:href="m__sequence__view_8c.html#aa97e3f2de03cf8443b11f65520f6b387" target="_top" xlink:title=" ">
<polygon fill="#fff0f0" stroke="red" points="878,-535.5 750.25,-535.5 750.25,-502 878,-502 878,-535.5"/>
<text xml:space="preserve" text-anchor="start" x="758.25" y="-522" font-family="Helvetica,sans-Serif" font-size="10.00">sequence_view_profile</text>
<text xml:space="preserve" text-anchor="middle" x="814.12" y="-509.25" font-family="Helvetica,sans-Serif" font-size="10.00">_button_rep_update</text>
</a>
</g>
</g>
<!-- Node2&#45;&gt;Node89 -->
<g id="edge30_Node000002_Node000089" class="edge">
<title>Node2&#45;&gt;Node89</title>
<g id="a_edge30_Node000002_Node000089"><a xlink:title=" ">
<path fill="none" stroke="#63b8ff" d="M431.17,-490.5C453.42,-500.08 488.08,-513.39 519.75,-518.75 593.47,-531.22 679.1,-529.39 738.75,-525.56"/>
<polygon fill="#63b8ff" stroke="#63b8ff" points="738.7,-529.07 748.44,-524.9 738.23,-522.08 738.7,-529.07"/>
</a>
</g>
</g>
<!-- Node96 -->
<g id="Node000096" class="node">
<title>Node96</title>
<g id="a_Node000096"><a xlink:href="m__sequence__view_8c.html#a48d14522bbc105d8b61111d5dc6a7c8f" target="_top" xlink:title=" ">
<polygon fill="white" stroke="#666666" points="647.5,-393.12 569.25,-393.12 569.25,-372.38 647.5,-372.38 647.5,-393.12"/>
<text xml:space="preserve" text-anchor="middle" x="608.38" y="-379.62" font-family="Helvetica,sans-Serif" font-size="10.00">seq_save_cb</text>
</a>
</g>
</g>
<!-- Node2&#45;&gt;Node96 -->
<g id="edge19_Node000002_Node000096" class="edge">
<title>Node2&#45;&gt;Node96</title>
<g id="a_edge19_Node000002_Node000096"><a xlink:title=" ">
<path fill="none" stroke="#63b8ff" d="M419.91,-469.04C439.53,-452.34 479.99,-420.19 519.75,-402.75 531.69,-397.51 545.16,-393.57 557.9,-390.62"/>
<polygon fill="#63b8ff" stroke="#63b8ff" points="558.32,-394.11 567.37,-388.6 556.86,-387.27 558.32,-394.11"/>
</a>
</g>
</g>
<!-- Node105 -->
<g id="Node000105" class="node">
<title>Node105</title>
<g id="a_Node000105"><a xlink:href="m__sequence__view_8c.html#a63043837686155ad8163844428d68553" target="_top" xlink:title=" ">
<polygon fill="white" stroke="#666666" points="667,-233.12 549.75,-233.12 549.75,-212.38 667,-212.38 667,-233.12"/>
<text xml:space="preserve" text-anchor="middle" x="608.38" y="-219.62" font-family="Helvetica,sans-Serif" font-size="10.00">seq_view_clicked_cb</text>
</a>
</g>
</g>
<!-- Node2&#45;&gt;Node105 -->
<g id="edge22_Node000002_Node000105" class="edge">
<title>Node2&#45;&gt;Node105</title>
<g id="a_edge22_Node000002_Node000105"><a xlink:title=" ">
<path fill="none" stroke="#63b8ff" d="M411.99,-469.08C424.69,-438.06 464.95,-346.31 519.75,-285.75 536.54,-267.2 559.65,-250.86 577.93,-239.47"/>
<polygon fill="#63b8ff" stroke="#63b8ff" points="579.74,-242.47 586.48,-234.3 576.11,-236.48 579.74,-242.47"/>
</a>
</g>
</g>
<!-- Node186 -->
<g id="Node000186" class="node">
<title>Node186</title>
<g id="a_Node000186"><a xlink:href="m__sequence__view_8c.html#a9a0be351bdd5685ccc3acd2a74064468" target="_top" xlink:title=" ">
<polygon fill="white" stroke="#666666" points="665.5,-829.12 551.25,-829.12 551.25,-808.38 665.5,-808.38 665.5,-829.12"/>
<text xml:space="preserve" text-anchor="middle" x="608.38" y="-815.62" font-family="Helvetica,sans-Serif" font-size="10.00">seq_view_delete_cb</text>
</a>
</g>
</g>
<!-- Node2&#45;&gt;Node186 -->
<g id="edge26_Node000002_Node000186" class="edge">
<title>Node2&#45;&gt;Node186</title>
<g id="a_edge26_Node000002_Node000186"><a xlink:title=" ">
<path fill="none" stroke="#63b8ff" d="M408.01,-490.54C409.7,-535.81 422.54,-711.97 519.75,-798.75 525.68,-804.05 532.73,-808.03 540.21,-811.01"/>
<polygon fill="#63b8ff" stroke="#63b8ff" points="538.97,-814.28 549.56,-814.11 541.17,-807.64 538.97,-814.28"/>
</a>
</g>
</g>
<!-- Node193 -->
<g id="Node000193" class="node">
<title>Node193</title>
<g id="a_Node000193"><a xlink:href="m__sequence__view_8c.html#aacc78919e7b37eacdae0786af1be09a1" target="_top" xlink:title=" ">
<polygon fill="white" stroke="#666666" points="667,-149.12 549.75,-149.12 549.75,-128.38 667,-128.38 667,-149.12"/>
<text xml:space="preserve" text-anchor="middle" x="608.38" y="-135.62" font-family="Helvetica,sans-Serif" font-size="10.00">seq_view_moved_cb</text>
</a>
</g>
</g>
<!-- Node2&#45;&gt;Node193 -->
<g id="edge28_Node000002_Node000193" class="edge">
<title>Node2&#45;&gt;Node193</title>
<g id="a_edge28_Node000002_Node000193"><a xlink:title=" ">
<path fill="none" stroke="#63b8ff" d="M411.73,-468.96C429.57,-420.79 502.02,-226.64 519.75,-203.75 535.31,-183.66 558.63,-166.78 577.3,-155.25"/>
<polygon fill="#63b8ff" stroke="#63b8ff" points="579,-158.31 585.81,-150.19 575.43,-152.29 579,-158.31"/>
</a>
</g>
</g>
<!-- Node195 -->
<g id="Node000195" class="node">
<title>Node195</title>
<g id="a_Node000195"><a xlink:href="m__sequence__view_8c.html#a5da73a414e449a9425efa9c9d008323d" target="_top" xlink:title=" ">
<polygon fill="white" stroke="#666666" points="687.62,-354.12 529.12,-354.12 529.12,-333.38 687.62,-333.38 687.62,-354.12"/>
<text xml:space="preserve" text-anchor="middle" x="608.38" y="-340.62" font-family="Helvetica,sans-Serif" font-size="10.00">sequence_view_revert_name</text>
</a>
</g>
</g>
<!-- Node2&#45;&gt;Node195 -->
<g id="edge31_Node000002_Node000195" class="edge">
<title>Node2&#45;&gt;Node195</title>
<g id="a_edge31_Node000002_Node000195"><a xlink:title=" ">
<path fill="none" stroke="#63b8ff" d="M414.72,-469.13C430.47,-446.03 471.23,-391.12 519.75,-363.75 523.11,-361.85 526.65,-360.13 530.28,-358.58"/>
<polygon fill="#63b8ff" stroke="#63b8ff" points="531.23,-361.96 539.34,-355.15 528.75,-355.42 531.23,-361.96"/>
</a>
</g>
</g>
<!-- Node196 -->
<g id="Node000196" class="node">
<title>Node196</title>
<g id="a_Node000196"><a xlink:href="m__sequence__view_8c.html#a9a770d265f15421aca3cec3f9d758e30" target="_top" xlink:title=" ">
<polygon fill="#fff0f0" stroke="red" points="680.5,-315.12 536.25,-315.12 536.25,-294.38 680.5,-294.38 680.5,-315.12"/>
<text xml:space="preserve" text-anchor="middle" x="608.38" y="-301.62" font-family="Helvetica,sans-Serif" font-size="10.00">sequence_view_set_name</text>
</a>
</g>
</g>
<!-- Node2&#45;&gt;Node196 -->
<g id="edge33_Node000002_Node000196" class="edge">
<title>Node2&#45;&gt;Node196</title>
<g id="a_edge33_Node000002_Node000196"><a xlink:title=" ">
<path fill="none" stroke="#63b8ff" d="M412.19,-469.06C424.58,-440.61 462.44,-362.68 519.75,-324.75 522.29,-323.07 524.94,-321.53 527.69,-320.12"/>
<polygon fill="#63b8ff" stroke="#63b8ff" points="528.86,-323.43 536.57,-316.17 526.01,-317.04 528.86,-323.43"/>
</a>
</g>
</g>
<!-- Node110 -->
<g id="Node000110" class="node">
<title>Node110</title>
<g id="a_Node000110"><a xlink:href="m__ui_8c.html#a1b27d83a1ea548b981c47e9a80bf03ae" target="_top" xlink:title=" ">
<polygon fill="#fff0f0" stroke="red" points="679.75,-790.12 537,-790.12 537,-769.38 679.75,-769.38 679.75,-790.12"/>
<text xml:space="preserve" text-anchor="middle" x="608.38" y="-776.62" font-family="Helvetica,sans-Serif" font-size="10.00">ui_page_add_back_button</text>
</a>
</g>
</g>
<!-- Node2&#45;&gt;Node110 -->
<g id="edge36_Node000002_Node000110" class="edge">
<title>Node2&#45;&gt;Node110</title>
<g id="a_edge36_Node000002_Node000110"><a xlink:title=" ">
<path fill="none" stroke="#63b8ff" d="M408.54,-490.43C412.23,-532.23 431.57,-686.1 519.75,-760.75 521.86,-762.53 524.09,-764.16 526.42,-765.64"/>
<polygon fill="#63b8ff" stroke="#63b8ff" points="524.7,-768.69 535.17,-770.27 527.97,-762.5 524.7,-768.69"/>
</a>
</g>
</g>
<!-- Node129 -->
<g id="Node000129" class="node">
<title>Node129</title>
<g id="a_Node000129"><a xlink:href="m__ui_8c.html#a1a308d1be64c79dfc528c4f34febc71a" target="_top" xlink:title=" ">
<polygon fill="#fff0f0" stroke="red" points="667.38,-751.5 549.38,-751.5 549.38,-718 667.38,-718 667.38,-751.5"/>
<text xml:space="preserve" text-anchor="start" x="557.38" y="-738" font-family="Helvetica,sans-Serif" font-size="10.00">ui_page_add_bottom</text>
<text xml:space="preserve" text-anchor="middle" x="608.38" y="-725.25" font-family="Helvetica,sans-Serif" font-size="10.00">_button</text>
</a>
</g>
</g>
<!-- Node2&#45;&gt;Node129 -->
<g id="edge37_Node000002_Node000129" class="edge">
<title>Node2&#45;&gt;Node129</title>
<g id="a_edge37_Node000002_Node000129"><a xlink:title=" ">
<path fill="none" stroke="#63b8ff" d="M409.81,-490.51C417.35,-526.98 446.94,-647.15 519.75,-708.75 525.45,-713.57 532.01,-717.5 538.92,-720.7"/>
<polygon fill="#63b8ff" stroke="#63b8ff" points="537.27,-723.8 547.85,-724.31 539.9,-717.31 537.27,-723.8"/>
</a>
</g>
</g>
<!-- Node132 -->
<g id="Node000132" class="node">
<title>Node132</title>
<g id="a_Node000132"><a xlink:href="m__ui_8c.html#abfdc7133204edad176bd2e2a5edf0b3c" target="_top" xlink:title=" ">
<polygon fill="white" stroke="#666666" points="666.62,-700.12 550.12,-700.12 550.12,-679.38 666.62,-679.38 666.62,-700.12"/>
<text xml:space="preserve" text-anchor="middle" x="608.38" y="-686.62" font-family="Helvetica,sans-Serif" font-size="10.00">ui_page_set_title_rw</text>
</a>
</g>
</g>
<!-- Node2&#45;&gt;Node132 -->
<g id="edge38_Node000002_Node000132" class="edge">
<title>Node2&#45;&gt;Node132</title>
<g id="a_edge38_Node000002_Node000132"><a xlink:title=" ">
<path fill="none" stroke="#63b8ff" d="M411.04,-490.52C421.37,-522.51 456.34,-617.74 519.75,-665.75 525.66,-670.23 532.36,-673.87 539.36,-676.83"/>
<polygon fill="#63b8ff" stroke="#63b8ff" points="537.75,-679.97 548.34,-680.18 540.19,-673.41 537.75,-679.97"/>
</a>
</g>
</g>
<!-- Node4 -->
<g id="Node000004" class="node">
<title>Node4</title>
<g id="a_Node000004"><a xlink:href="m__button_8c.html#a4114b68d36d7158b3ee0a8841d4a3926" target="_top" xlink:title=" ">
<polygon fill="#fff0f0" stroke="red" points="1056,-755.5 935,-755.5 935,-722 1056,-722 1056,-755.5"/>
<text xml:space="preserve" text-anchor="start" x="943" y="-742" font-family="Helvetica,sans-Serif" font-size="10.00">m_active_button_add</text>
<text xml:space="preserve" text-anchor="middle" x="995.5" y="-729.25" font-family="Helvetica,sans-Serif" font-size="10.00">_del_button</text>
</a>
</g>
</g>
<!-- Node3&#45;&gt;Node4 -->
<g id="edge3_Node000003_Node000004" class="edge">
<title>Node3&#45;&gt;Node4</title>
<g id="a_edge3_Node000003_Node000004"><a xlink:title=" ">
<path fill="none" stroke="#63b8ff" d="M878.87,-738.75C893.31,-738.75 908.74,-738.75 923.47,-738.75"/>
<polygon fill="#63b8ff" stroke="#63b8ff" points="923.05,-742.25 933.05,-738.75 923.05,-735.25 923.05,-742.25"/>
</a>
</g>
</g>
<!-- Node26 -->
<g id="Node000026" class="node">
<title>Node26</title>
<g id="a_Node000026"><a xlink:href="m__button_8c.html#a8f12f9ae4a29f1b1a709d3df872f2a92" target="_top" xlink:title=" ">
<polygon fill="#fff0f0" stroke="red" points="1059.75,-703.5 931.25,-703.5 931.25,-670 1059.75,-670 1059.75,-703.5"/>
<text xml:space="preserve" text-anchor="start" x="939.25" y="-690" font-family="Helvetica,sans-Serif" font-size="10.00">m_active_button_array</text>
<text xml:space="preserve" text-anchor="middle" x="995.5" y="-677.25" font-family="Helvetica,sans-Serif" font-size="10.00">_append</text>
</a>
</g>
</g>
<!-- Node3&#45;&gt;Node26 -->
<g id="edge4_Node000003_Node000026" class="edge">
<title>Node3&#45;&gt;Node26</title>
<g id="a_edge4_Node000003_Node000026"><a xlink:title=" ">
<path fill="none" stroke="#63b8ff" d="M874.36,-721.58C890.34,-716.94 907.8,-711.88 924.32,-707.09"/>
<polygon fill="#63b8ff" stroke="#63b8ff" points="924.94,-710.56 933.57,-704.41 922.99,-703.84 924.94,-710.56"/>
</a>
</g>
</g>
<!-- Node27 -->
<g id="Node000027" class="node">
<title>Node27</title>
<g id="a_Node000027"><a xlink:href="m__button_8c.html#a1e462ff2ab3235d91ca20e87de75e11c" target="_top" xlink:title=" ">
<polygon fill="#fff0f0" stroke="red" points="1054.88,-794.12 936.12,-794.12 936.12,-773.38 1054.88,-773.38 1054.88,-794.12"/>
<text xml:space="preserve" text-anchor="middle" x="995.5" y="-780.62" font-family="Helvetica,sans-Serif" font-size="10.00">m_active_button_init</text>
</a>
</g>
</g>
<!-- Node3&#45;&gt;Node27 -->
<g id="edge5_Node000003_Node000027" class="edge">
<title>Node3&#45;&gt;Node27</title>
<g id="a_edge5_Node000003_Node000027"><a xlink:title=" ">
<path fill="none" stroke="#63b8ff" d="M878.87,-754.74C898.91,-759.77 920.83,-765.27 940.15,-770.11"/>
<polygon fill="#63b8ff" stroke="#63b8ff" points="939.17,-773.48 949.72,-772.52 940.87,-766.69 939.17,-773.48"/>
</a>
</g>
</g>
<!-- Node47 -->
<g id="Node000047" class="node">
<title>Node47</title>
<g id="a_Node000047"><a xlink:href="m__ui_8c.html#ad0e581ea0af79380925697ed36c09e87" target="_top" xlink:title=" ">
<polygon fill="white" stroke="#666666" points="846.12,-484.12 782.12,-484.12 782.12,-463.38 846.12,-463.38 846.12,-484.12"/>
<text xml:space="preserve" text-anchor="middle" x="814.12" y="-470.62" font-family="Helvetica,sans-Serif" font-size="10.00">init_panel</text>
</a>
</g>
</g>
<!-- Node46&#45;&gt;Node47 -->
<g id="edge9_Node000046_Node000047" class="edge">
<title>Node46&#45;&gt;Node47</title>
<g id="a_edge9_Node000046_Node000047"><a xlink:title=" ">
<path fill="none" stroke="#63b8ff" d="M643.02,-462.9C677.95,-465.13 732.68,-468.62 770.59,-471.04"/>
<polygon fill="#63b8ff" stroke="#63b8ff" points="770.06,-474.51 780.26,-471.65 770.51,-467.52 770.06,-474.51"/>
</a>
</g>
</g>
<!-- Node49 -->
<g id="Node000049" class="node">
<title>Node49</title>
<g id="a_Node000049"><a xlink:href="m__sequence_8c.html#adf73f2f554aa6468125bd03ff33fd2df" target="_top" xlink:title=" ">
<polygon fill="#fff0f0" stroke="red" points="869,-445.12 759.25,-445.12 759.25,-424.38 869,-424.38 869,-445.12"/>
<text xml:space="preserve" text-anchor="middle" x="814.12" y="-431.62" font-family="Helvetica,sans-Serif" font-size="10.00">m_sequence_begin</text>
</a>
</g>
</g>
<!-- Node48&#45;&gt;Node49 -->
<g id="edge11_Node000048_Node000049" class="edge">
<title>Node48&#45;&gt;Node49</title>
<g id="a_edge11_Node000048_Node000049"><a xlink:title=" ">
<path fill="none" stroke="#63b8ff" d="M646.75,-424.13C675.03,-425.94 714.58,-428.46 748.02,-430.6"/>
<polygon fill="#63b8ff" stroke="#63b8ff" points="747.39,-434.06 757.59,-431.21 747.83,-427.08 747.39,-434.06"/>
</a>
</g>
</g>
<!-- Node84&#45;&gt;Node3 -->
<g id="edge13_Node000084_Node000003" class="edge">
<title>Node84&#45;&gt;Node3</title>
<g id="a_edge13_Node000084_Node000003"><a xlink:title=" ">
<path fill="none" stroke="#63b8ff" d="M630.45,-586.57C649.81,-597.37 678.24,-615.54 697,-637.75 720.86,-666 705.17,-688.41 733,-712.75 735.17,-714.65 737.48,-716.4 739.89,-718.03"/>
<polygon fill="#63b8ff" stroke="#63b8ff" points="737.94,-720.95 748.34,-722.95 741.46,-714.9 737.94,-720.95"/>
</a>
</g>
</g>
<!-- Node84&#45;&gt;Node44 -->
<g id="edge15_Node000084_Node000044" class="edge">
<title>Node84&#45;&gt;Node44</title>
<g id="a_edge15_Node000084_Node000044"><a xlink:title=" ">
<path fill="none" stroke="#63b8ff" d="M646.29,-579.47C663.11,-582.67 682.46,-588.64 697,-599.75 722.01,-618.86 708.44,-641.06 733,-660.75 736.66,-663.68 740.66,-666.29 744.85,-668.6"/>
<polygon fill="#63b8ff" stroke="#63b8ff" points="743.05,-671.62 753.58,-672.83 746.11,-665.32 743.05,-671.62"/>
</a>
</g>
</g>
<!-- Node85 -->
<g id="Node000085" class="node">
<title>Node85</title>
<g id="a_Node000085"><a xlink:href="m__button_8c.html#a2e5dcaad98182e8c4200cad5a48bef86" target="_top" xlink:title=" ">
<polygon fill="#fff0f0" stroke="red" points="888.12,-613.12 740.12,-613.12 740.12,-592.38 888.12,-592.38 888.12,-613.12"/>
<text xml:space="preserve" text-anchor="middle" x="814.12" y="-599.62" font-family="Helvetica,sans-Serif" font-size="10.00">m_active_button_create_ui</text>
</a>
</g>
</g>
<!-- Node84&#45;&gt;Node85 -->
<g id="edge14_Node000084_Node000085" class="edge">
<title>Node84&#45;&gt;Node85</title>
<g id="a_edge14_Node000084_Node000085"><a xlink:title=" ">
<path fill="none" stroke="#63b8ff" d="M646.27,-580.64C669.25,-583.68 699.81,-587.73 728.48,-591.53"/>
<polygon fill="#63b8ff" stroke="#63b8ff" points="727.91,-594.99 738.28,-592.83 728.83,-588.05 727.91,-594.99"/>
</a>
</g>
</g>
<!-- Node87 -->
<g id="Node000087" class="node">
<title>Node87</title>
<g id="a_Node000087"><a xlink:href="m__profile_8c.html#a390a0011b78329bf127915efdc481c67" target="_top" xlink:title=" ">
<polygon fill="white" stroke="#666666" points="895.25,-574.12 733,-574.12 733,-553.38 895.25,-553.38 895.25,-574.12"/>
<text xml:space="preserve" text-anchor="middle" x="814.12" y="-560.62" font-family="Helvetica,sans-Serif" font-size="10.00">m_profile_add_representation</text>
</a>
</g>
</g>
<!-- Node84&#45;&gt;Node87 -->
<g id="edge16_Node000084_Node000087" class="edge">
<title>Node84&#45;&gt;Node87</title>
<g id="a_edge16_Node000084_Node000087"><a xlink:title=" ">
<path fill="none" stroke="#63b8ff" d="M646.27,-573.58C667.34,-572.34 694.78,-570.72 721.3,-569.16"/>
<polygon fill="#63b8ff" stroke="#63b8ff" points="721.3,-572.66 731.08,-568.58 720.89,-565.68 721.3,-572.66"/>
</a>
</g>
</g>
<!-- Node88 -->
<g id="Node000088" class="node">
<title>Node88</title>
<g id="a_Node000088"><a xlink:href="m__sequence_8c.html#ad2105e89b091735f2a10d1fd499d18e4" target="_top" xlink:title=" ">
<polygon fill="#fff0f0" stroke="red" points="891.88,-652.12 736.38,-652.12 736.38,-631.38 891.88,-631.38 891.88,-652.12"/>
<text xml:space="preserve" text-anchor="middle" x="814.12" y="-638.62" font-family="Helvetica,sans-Serif" font-size="10.00">sequence_append_profile_rp</text>
</a>
</g>
</g>
<!-- Node84&#45;&gt;Node88 -->
<g id="edge17_Node000084_Node000088" class="edge">
<title>Node84&#45;&gt;Node88</title>
<g id="a_edge17_Node000084_Node000088"><a xlink:title=" ">
<path fill="none" stroke="#63b8ff" d="M646.4,-583.44C662.32,-587.37 680.93,-592.8 697,-599.75 714.21,-607.19 715.7,-614.51 733,-621.75 738.24,-623.94 743.77,-625.94 749.39,-627.74"/>
<polygon fill="#63b8ff" stroke="#63b8ff" points="748.19,-631.04 758.78,-630.54 750.2,-624.33 748.19,-631.04"/>
</a>
</g>
</g>
<!-- Node84&#45;&gt;Node89 -->
<g id="edge18_Node000084_Node000089" class="edge">
<title>Node84&#45;&gt;Node89</title>
<g id="a_edge18_Node000084_Node000089"><a xlink:title=" ">
<path fill="none" stroke="#63b8ff" d="M646.49,-565.67C662.1,-561.41 680.44,-556.37 697,-551.75 711.62,-547.67 727.26,-543.26 742.18,-539.03"/>
<polygon fill="#63b8ff" stroke="#63b8ff" points="742.77,-542.5 751.43,-536.4 740.85,-535.77 742.77,-542.5"/>
</a>
</g>
</g>
<!-- Node97 -->
<g id="Node000097" class="node">
<title>Node97</title>
<g id="a_Node000097"><a xlink:href="m__context_8c.html#ad6c6b5fc3e9422b30ebd4f7518b777d3" target="_top" xlink:title=" ">
<polygon fill="#fff0f0" stroke="red" points="873.5,-406.12 754.75,-406.12 754.75,-385.38 873.5,-385.38 873.5,-406.12"/>
<text xml:space="preserve" text-anchor="middle" x="814.12" y="-392.62" font-family="Helvetica,sans-Serif" font-size="10.00">cxt_save_all_profiles</text>
</a>
</g>
</g>
<!-- Node96&#45;&gt;Node97 -->
<g id="edge20_Node000096_Node000097" class="edge">
<title>Node96&#45;&gt;Node97</title>
<g id="a_edge20_Node000096_Node000097"><a xlink:title=" ">
<path fill="none" stroke="#63b8ff" d="M647.7,-385.2C674.61,-386.91 711.38,-389.26 743.42,-391.3"/>
<polygon fill="#63b8ff" stroke="#63b8ff" points="742.81,-394.77 753.02,-391.91 743.26,-387.79 742.81,-394.77"/>
</a>
</g>
</g>
<!-- Node103 -->
<g id="Node000103" class="node">
<title>Node103</title>
<g id="a_Node000103"><a xlink:href="m__files_8c.html#a670728d608e316af6c3056850cb5b899" target="_top" xlink:title=" ">
<polygon fill="#fff0f0" stroke="red" points="859.62,-367.12 768.62,-367.12 768.62,-346.38 859.62,-346.38 859.62,-367.12"/>
<text xml:space="preserve" text-anchor="middle" x="814.12" y="-353.62" font-family="Helvetica,sans-Serif" font-size="10.00">save_sequence</text>
</a>
</g>
</g>
<!-- Node96&#45;&gt;Node103 -->
<g id="edge21_Node000096_Node000103" class="edge">
<title>Node96&#45;&gt;Node103</title>
<g id="a_edge21_Node000096_Node000103"><a xlink:title=" ">
<path fill="none" stroke="#63b8ff" d="M647.7,-377.86C678.46,-373.93 722.09,-368.37 756.82,-363.94"/>
<polygon fill="#63b8ff" stroke="#63b8ff" points="757.25,-367.41 766.72,-362.67 756.36,-360.47 757.25,-367.41"/>
</a>
</g>
</g>
<!-- Node106 -->
<g id="Node000106" class="node">
<title>Node106</title>
<g id="a_Node000106"><a xlink:href="m__profile__view_8c.html#aa40a3918b18bbfa3df5aa489d947258a" target="_top" xlink:title=" ">
<polygon fill="#fff0f0" stroke="red" points="879.5,-211.12 748.75,-211.12 748.75,-190.38 879.5,-190.38 879.5,-211.12"/>
<text xml:space="preserve" text-anchor="middle" x="814.12" y="-197.62" font-family="Helvetica,sans-Serif" font-size="10.00">create_profile_view_for</text>
</a>
</g>
</g>
<!-- Node105&#45;&gt;Node106 -->
<g id="edge23_Node000105_Node000106" class="edge">
<title>Node105&#45;&gt;Node106</title>
<g id="a_edge23_Node000105_Node000106"><a xlink:title=" ">
<path fill="none" stroke="#63b8ff" d="M667.49,-216.48C689.22,-214.13 714.23,-211.43 737.33,-208.93"/>
<polygon fill="#63b8ff" stroke="#63b8ff" points="737.42,-212.44 746.99,-207.89 736.67,-205.49 737.42,-212.44"/>
</a>
</g>
</g>
<!-- Node115 -->
<g id="Node000115" class="node">
<title>Node115</title>
<g id="a_Node000115"><a xlink:href="m__ui_8c.html#aceb536b6396e385a34388f9d95f94921" target="_top" xlink:title=" ">
<polygon fill="#fff0f0" stroke="red" points="880.62,-250.12 747.62,-250.12 747.62,-229.38 880.62,-229.38 880.62,-250.12"/>
<text xml:space="preserve" text-anchor="middle" x="814.12" y="-236.62" font-family="Helvetica,sans-Serif" font-size="10.00">enter_ui_page_forwards</text>
</a>
</g>
</g>
<!-- Node105&#45;&gt;Node115 -->
<g id="edge25_Node000105_Node000115" class="edge">
<title>Node105&#45;&gt;Node115</title>
<g id="a_edge25_Node000105_Node000115"><a xlink:title=" ">
<path fill="none" stroke="#63b8ff" d="M667.49,-227.6C688.82,-229.38 713.31,-231.42 736.05,-233.32"/>
<polygon fill="#63b8ff" stroke="#63b8ff" points="735.64,-236.8 745.89,-234.14 736.22,-229.82 735.64,-236.8"/>
</a>
</g>
</g>
<!-- Node163 -->
<g id="Node000163" class="node">
<title>Node163</title>
<g id="a_Node000163"><a xlink:href="m__ui_8c.html#af00906d3db4ae068f5cd832bb5052d83" target="_top" xlink:title=" ">
<polygon fill="white" stroke="#666666" points="1033.12,-192.12 957.88,-192.12 957.88,-171.38 1033.12,-171.38 1033.12,-192.12"/>
<text xml:space="preserve" text-anchor="middle" x="995.5" y="-178.62" font-family="Helvetica,sans-Serif" font-size="10.00">init_ui_page</text>
</a>
</g>
</g>
<!-- Node106&#45;&gt;Node163 -->
<g id="edge24_Node000106_Node000163" class="edge">
<title>Node106&#45;&gt;Node163</title>
<g id="a_edge24_Node000106_Node000163"><a xlink:title=" ">
<path fill="none" stroke="#63b8ff" d="M879.88,-193.89C901.8,-191.57 925.87,-189.02 946.27,-186.86"/>
<polygon fill="#63b8ff" stroke="#63b8ff" points="946.42,-190.36 955.99,-185.83 945.68,-183.4 946.42,-190.36"/>
</a>
</g>
</g>
<!-- Node187 -->
<g id="Node000187" class="node">
<title>Node187</title>
<g id="a_Node000187"><a xlink:href="m__sequence_8c.html#a2427382f3eb87e9215619cb79fdd53b2" target="_top" xlink:title=" ">
<polygon fill="#fff0f0" stroke="red" points="889.25,-829.12 739,-829.12 739,-808.38 889.25,-808.38 889.25,-829.12"/>
<text xml:space="preserve" text-anchor="middle" x="814.12" y="-815.62" font-family="Helvetica,sans-Serif" font-size="10.00">m_sequence_delete_profile</text>
</a>
</g>
</g>
<!-- Node186&#45;&gt;Node187 -->
<g id="edge27_Node000186_Node000187" class="edge">
<title>Node186&#45;&gt;Node187</title>
<g id="a_edge27_Node000186_Node000187"><a xlink:title=" ">
<path fill="none" stroke="#63b8ff" d="M665.86,-818.75C684.84,-818.75 706.46,-818.75 727.18,-818.75"/>
<polygon fill="#63b8ff" stroke="#63b8ff" points="727.06,-822.25 737.06,-818.75 727.06,-815.25 727.06,-822.25"/>
</a>
</g>
</g>
<!-- Node194 -->
<g id="Node000194" class="node">
<title>Node194</title>
<g id="a_Node000194"><a xlink:href="m__sequence_8c.html#aa922c6beaab2691aed0cbec19b8d30b3" target="_top" xlink:title=" ">
<polygon fill="#fff0f0" stroke="red" points="887.75,-135.12 740.5,-135.12 740.5,-114.38 887.75,-114.38 887.75,-135.12"/>
<text xml:space="preserve" text-anchor="middle" x="814.12" y="-121.62" font-family="Helvetica,sans-Serif" font-size="10.00">m_sequence_move_profile</text>
</a>
</g>
</g>
<!-- Node193&#45;&gt;Node194 -->
<g id="edge29_Node000193_Node000194" class="edge">
<title>Node193&#45;&gt;Node194</title>
<g id="a_edge29_Node000193_Node000194"><a xlink:title=" ">
<path fill="none" stroke="#63b8ff" d="M667.49,-134.76C686.54,-133.45 708.12,-131.97 728.72,-130.55"/>
<polygon fill="#63b8ff" stroke="#63b8ff" points="728.79,-134.05 738.52,-129.88 728.31,-127.07 728.79,-134.05"/>
</a>
</g>
</g>
<!-- Node125 -->
<g id="Node000125" class="node">
<title>Node125</title>
<g id="a_Node000125"><a xlink:href="m__ui_8c.html#a449db99602c8ef93fb805362fec7fb1d" target="_top" xlink:title=" ">
<polygon fill="white" stroke="#666666" points="857.75,-328.12 770.5,-328.12 770.5,-307.38 857.75,-307.38 857.75,-328.12"/>
<text xml:space="preserve" text-anchor="middle" x="814.12" y="-314.62" font-family="Helvetica,sans-Serif" font-size="10.00">hide_keyboard</text>
</a>
</g>
</g>
<!-- Node195&#45;&gt;Node125 -->
<g id="edge32_Node000195_Node000125" class="edge">
<title>Node195&#45;&gt;Node125</title>
<g id="a_edge32_Node000195_Node000125"><a xlink:title=" ">
<path fill="none" stroke="#63b8ff" d="M687.86,-333.73C711.52,-330.72 736.96,-327.47 758.69,-324.7"/>
<polygon fill="#63b8ff" stroke="#63b8ff" points="759.04,-328.18 768.52,-323.44 758.16,-321.24 759.04,-328.18"/>
</a>
</g>
</g>
<!-- Node196&#45;&gt;Node125 -->
<g id="edge34_Node000196_Node000125" class="edge">
<title>Node196&#45;&gt;Node125</title>
<g id="a_edge34_Node000196_Node000125"><a xlink:title=" ">
<path fill="none" stroke="#63b8ff" d="M680.92,-309.32C706.54,-310.95 734.98,-312.76 758.89,-314.29"/>
<polygon fill="#63b8ff" stroke="#63b8ff" points="758.53,-317.77 768.73,-314.92 758.97,-310.79 758.53,-317.77"/>
</a>
</g>
</g>
<!-- Node128 -->
<g id="Node000128" class="node">
<title>Node128</title>
<g id="a_Node000128"><a xlink:href="m__button_8c.html#a5fd61e6ffb5efd7547682fda82816238" target="_top" xlink:title=" ">
<polygon fill="white" stroke="#666666" points="864.5,-289.12 763.75,-289.12 763.75,-268.38 864.5,-268.38 864.5,-289.12"/>
<text xml:space="preserve" text-anchor="middle" x="814.12" y="-275.62" font-family="Helvetica,sans-Serif" font-size="10.00">m_button_enable</text>
</a>
</g>
</g>
<!-- Node196&#45;&gt;Node128 -->
<g id="edge35_Node000196_Node000128" class="edge">
<title>Node196&#45;&gt;Node128</title>
<g id="a_edge35_Node000196_Node000128"><a xlink:title=" ">
<path fill="none" stroke="#63b8ff" d="M680.92,-295.62C704.16,-292.65 729.72,-289.39 752.12,-286.54"/>
<polygon fill="#63b8ff" stroke="#63b8ff" points="752.53,-290.01 762.01,-285.27 751.65,-283.07 752.53,-290.01"/>
</a>
</g>
</g>
<!-- Node197&#45;&gt;Node2 -->
<g id="edge40_Node000197_Node000002" class="edge">
<title>Node197&#45;&gt;Node2</title>
<g id="a_edge40_Node000197_Node000002"><a xlink:title=" ">
<path fill="none" stroke="#63b8ff" d="M244.69,-187.53C269.09,-231.8 361.81,-400.03 394.37,-459.1"/>
<polygon fill="#63b8ff" stroke="#63b8ff" points="391.25,-460.7 399.15,-467.77 397.39,-457.32 391.25,-460.7"/>
</a>
</g>
</g>
<!-- Node197&#45;&gt;Node105 -->
<g id="edge45_Node000197_Node000105" class="edge">
<title>Node197&#45;&gt;Node105</title>
<g id="a_edge45_Node000197_Node000105"><a xlink:title=" ">
<path fill="none" stroke="#63b8ff" d="M294.04,-185.6C305.82,-187.39 318.19,-189.19 329.75,-190.75 400.6,-200.28 481.87,-209.44 538.09,-215.5"/>
<polygon fill="#63b8ff" stroke="#63b8ff" points="537.52,-218.96 547.83,-216.55 538.26,-212 537.52,-218.96"/>
</a>
</g>
</g>
<!-- Node197&#45;&gt;Node163 -->
<g id="edge42_Node000197_Node000163" class="edge">
<title>Node197&#45;&gt;Node163</title>
<g id="a_edge42_Node000197_Node000163"><a xlink:title=" ">
<path fill="none" stroke="#63b8ff" d="M294.02,-177.12C436.05,-178.06 812.05,-180.54 946.15,-181.43"/>
<polygon fill="#63b8ff" stroke="#63b8ff" points="946.08,-184.93 956.1,-181.5 946.12,-177.93 946.08,-184.93"/>
</a>
</g>
</g>
<!-- Node197&#45;&gt;Node193 -->
<g id="edge46_Node000197_Node000193" class="edge">
<title>Node197&#45;&gt;Node193</title>
<g id="a_edge46_Node000197_Node000193"><a xlink:title=" ">
<path fill="none" stroke="#63b8ff" d="M294.01,-167.65C305.79,-165.88 318.16,-164.14 329.75,-162.75 400.53,-154.26 481.8,-147.59 538.05,-143.46"/>
<polygon fill="#63b8ff" stroke="#63b8ff" points="538.07,-146.97 547.79,-142.75 537.56,-139.99 538.07,-146.97"/>
</a>
</g>
</g>
<!-- Node198 -->
<g id="Node000198" class="node">
<title>Node198</title>
<g id="a_Node000198"><a xlink:href="m__sequence__view_8c.html#a0832351a404a9d0207b4e9a04a5533b1" target="_top" xlink:title=" ">
<polygon fill="#fff0f0" stroke="red" points="477.38,-111.12 336.12,-111.12 336.12,-90.38 477.38,-90.38 477.38,-111.12"/>
<text xml:space="preserve" text-anchor="middle" x="406.75" y="-97.62" font-family="Helvetica,sans-Serif" font-size="10.00">create_sequence_view_ui</text>
</a>
</g>
</g>
<!-- Node197&#45;&gt;Node198 -->
<g id="edge41_Node000197_Node000198" class="edge">
<title>Node197&#45;&gt;Node198</title>
<g id="a_edge41_Node000197_Node000198"><a xlink:title=" ">
<path fill="none" stroke="#63b8ff" d="M254.97,-166.06C272.75,-154.69 302.41,-136.71 329.75,-124.75 337.86,-121.2 346.66,-117.93 355.31,-115.01"/>
<polygon fill="#63b8ff" stroke="#63b8ff" points="356.23,-118.39 364.67,-111.98 354.08,-111.73 356.23,-118.39"/>
</a>
</g>
</g>
<!-- Node166 -->
<g id="Node000166" class="node">
<title>Node166</title>
<g id="a_Node000166"><a xlink:href="m__button_8c.html#a346ec053abc9f8ae98077d1947c18d92" target="_top" xlink:title=" ">
<polygon fill="#fff0f0" stroke="red" points="483.75,-72.12 329.75,-72.12 329.75,-51.38 483.75,-51.38 483.75,-72.12"/>
<text xml:space="preserve" text-anchor="middle" x="406.75" y="-58.62" font-family="Helvetica,sans-Serif" font-size="10.00">m_active_button_array_new</text>
</a>
</g>
</g>
<!-- Node197&#45;&gt;Node166 -->
<g id="edge43_Node000197_Node000166" class="edge">
<title>Node197&#45;&gt;Node166</title>
<g id="a_edge43_Node000197_Node000166"><a xlink:title=" ">
<path fill="none" stroke="#63b8ff" d="M245.88,-166.08C259.67,-146.31 291.96,-104 329.75,-81.75 332.87,-79.92 336.15,-78.25 339.54,-76.73"/>
<polygon fill="#63b8ff" stroke="#63b8ff" points="340.51,-80.11 348.52,-73.17 337.94,-73.6 340.51,-80.11"/>
</a>
</g>
</g>
<!-- Node168 -->
<g id="Node000168" class="node">
<title>Node168</title>
<g id="a_Node000168"><a xlink:href="m__button_8c.html#a9d8e05100888bd09b28ea552e077b5b5" target="_top" xlink:title=" ">
<polygon fill="white" stroke="#666666" points="471,-33.5 342.5,-33.5 342.5,0 471,0 471,-33.5"/>
<text xml:space="preserve" text-anchor="start" x="350.5" y="-20" font-family="Helvetica,sans-Serif" font-size="10.00">m_active_button_array</text>
<text xml:space="preserve" text-anchor="middle" x="406.75" y="-7.25" font-family="Helvetica,sans-Serif" font-size="10.00">_set_length</text>
</a>
</g>
</g>
<!-- Node197&#45;&gt;Node168 -->
<g id="edge44_Node000197_Node000168" class="edge">
<title>Node197&#45;&gt;Node168</title>
<g id="a_edge44_Node000197_Node000168"><a xlink:title=" ">
<path fill="none" stroke="#63b8ff" d="M243.16,-165.98C254.04,-140.72 284.59,-77.21 329.75,-42.75 331.27,-41.59 332.85,-40.47 334.48,-39.41"/>
<polygon fill="#63b8ff" stroke="#63b8ff" points="335.97,-42.59 342.89,-34.57 332.48,-36.52 335.97,-42.59"/>
</a>
</g>
</g>
<!-- Node199 -->
<g id="Node000199" class="node">
<title>Node199</title>
<g id="a_Node000199"><a xlink:href="m__sequence__view_8c.html#a18341f03445e1f2f63bf07b4a97715aa" target="_top" xlink:title=" ">
<polygon fill="#fff0f0" stroke="red" points="482.25,-271.12 331.25,-271.12 331.25,-250.38 482.25,-250.38 482.25,-271.12"/>
<text xml:space="preserve" text-anchor="middle" x="406.75" y="-257.62" font-family="Helvetica,sans-Serif" font-size="10.00">sequence_view_rep_update</text>
</a>
</g>
</g>
<!-- Node197&#45;&gt;Node199 -->
<g id="edge47_Node000197_Node000199" class="edge">
<title>Node197&#45;&gt;Node199</title>
<g id="a_edge47_Node000197_Node000199"><a xlink:title=" ">
<path fill="none" stroke="#63b8ff" d="M254,-187.44C271.65,-199.5 301.89,-219.21 329.75,-232.75 339.7,-237.58 350.71,-242.09 361.19,-246.02"/>
<polygon fill="#63b8ff" stroke="#63b8ff" points="359.84,-249.25 370.43,-249.37 362.23,-242.67 359.84,-249.25"/>
</a>
</g>
</g>
<!-- Node199&#45;&gt;Node128 -->
<g id="edge48_Node000199_Node000128" class="edge">
<title>Node199&#45;&gt;Node128</title>
<g id="a_edge48_Node000199_Node000128"><a xlink:title=" ">
<path fill="none" stroke="#63b8ff" d="M482.57,-264.07C560.21,-267.52 680.14,-272.84 752.19,-276.04"/>
<polygon fill="#63b8ff" stroke="#63b8ff" points="751.68,-279.52 761.82,-276.47 751.99,-272.53 751.68,-279.52"/>
</a>
</g>
</g>
</g>
</svg>

<g id="navigator" transform="translate(0 0)" fill="#404254">
  <rect fill="#f2f5e9" fill-opacity="0.5" stroke="#606060" stroke-width=".5" x="0" y="0" width="60" height="60"/>
  <use id="zoomplus" xlink:href="#zoomPlus" x="17" y="9" onmousedown="handleZoom(evt,'in')"/>
  <use id="zoomminus" xlink:href="#zoomMin" x="42" y="9" onmousedown="handleZoom(evt,'out')"/>
  <use id="reset" xlink:href="#resetDef" x="30" y="36" onmousedown="handleReset()"/>
   <use id="arrowup" xlink:href="#arrowUp" x="0" y="0" onmousedown="handlePan(0,-1)"/>
  <use id="arrowright" xlink:href="#arrowRight" x="0" y="0" onmousedown="handlePan(1,0)"/>
  <use id="arrowdown" xlink:href="#arrowDown" x="0" y="0" onmousedown="handlePan(0,1)"/>
  <use id="arrowleft" xlink:href="#arrowLeft" x="0" y="0" onmousedown="handlePan(-1,0)"/>
</g>
<svg viewBox="0 0 15 15" width="100%" height="30px" preserveAspectRatio="xMaxYMin meet">
 <g id="arrow_out" transform="scale(0.3 0.3)">
  <a xlink:href="m__sequence__view_8h_a4fa55191d58cc7d7c322e295288cabf4_cgraph_org.svg" target="_base">
   <rect id="button" ry="5" rx="5" y="6" x="6" height="38" width="38"
        fill="#f2f5e9" fill-opacity="0.5" stroke="#606060" stroke-width="1.0"/>
   <path id="arrow"
     d="M 11.500037,31.436501 C 11.940474,20.09759 22.043105,11.32322 32.158766,21.979434 L 37.068811,17.246167 C 37.068811,17.246167 37.088388,32 37.088388,32 L 22.160133,31.978069 C 22.160133,31.978069 26.997745,27.140456 26.997745,27.140456 C 18.528582,18.264221 13.291696,25.230495 11.500037,31.436501 z"
     style="fill:#404040;"/>
  </a>
 </g>
</svg>

<style type='text/css'>
<![CDATA[
[data-mouse-over-selected='false'] { opacity: 0.7; }
[data-mouse-over-selected='true']  { opacity: 1.0; }
]]>
</style>
<script type="application/ecmascript"><![CDATA[
document.addEventListener('DOMContentLoaded', (event) => {
  highlightEdges();
  highlightAdjacentNodes();
});
]]></script>
</svg>
