<?xml version="1.0" encoding="UTF-8" standalone="no"?>
<!DOCTYPE svg PUBLIC "-//W3C//DTD SVG 1.1//EN"
 "http://www.w3.org/Graphics/SVG/1.1/DTD/svg11.dtd">
<!-- Generated by graphviz version 13.1.2 (20250808.2320)
 -->
<!-- Title: init_transformer_selector_eff Pages: 1 -->
<!--zoomable 270 -->

<svg id="main" version="1.1" xmlns="http://www.w3.org/2000/svg" xmlns:xlink="http://www.w3.org/1999/xlink" xml:space="preserve" onload="init(evt)">

<style type="text/css"><![CDATA[
.node, .edge {opacity: 0.7;}
.node.selected, .edge.selected {opacity: 1;}
.edge:hover path { stroke: red; }
.edge:hover polygon { stroke: red; fill: red; }
]]></style>

<defs>
  <circle id="rim" cx="0" cy="0" r="7"/>
  <circle id="rim2" cx="0" cy="0" r="3.5"/>
  <g id="zoomPlus">
    <use xlink:href="#rim" fill="#404040"><set attributeName="fill" to="#808080" begin="zoomplus.mouseover" end="zoomplus.mouseout"/></use>
    <path d="M-4,0h8M0,-4v8" fill="none" stroke="white" stroke-width="1.5" pointer-events="none"/>
  </g>
  <g id="zoomMin">
    <use xlink:href="#rim" fill="#404040"><set attributeName="fill" to="#808080" begin="zoomminus.mouseover" end="zoomminus.mouseout"/></use>
    <path d="M-4,0h8" fill="none" stroke="white" stroke-width="1.5" pointer-events="none"/>
  </g>
  <g id="arrowUp" transform="translate(30 24)">
    <use xlink:href="#rim"/>
    <path pointer-events="none" fill="none" stroke="white" stroke-width="1.5" d="M0,-3.0v7 M-2.5,-0.5L0,-3.0L2.5,-0.5"/>
  </g>
  <g id="arrowRight" transform="rotate(90) translate(36 -43)">
    <use xlink:href="#rim"/>
    <path pointer-events="none" fill="none" stroke="white" stroke-width="1.5" d="M0,-3.0v7 M-2.5,-0.5L0,-3.0L2.5,-0.5"/>
  </g>
  <g id="arrowDown" transform="rotate(180) translate(-30 -48)">
    <use xlink:href="#rim"/>
    <path pointer-events="none" fill="none" stroke="white" stroke-width="1.5" d="M0,-3.0v7 M-2.5,-0.5L0,-3.0L2.5,-0.5"/>
  </g>
  <g id="arrowLeft" transform="rotate(270) translate(-36 17)">
    <use xlink:href="#rim"/>
    <path pointer-events="none" fill="none" stroke="white" stroke-width="1.5" d="M0,-3.0v7 M-2.5,-0.5L0,-3.0L2.5,-0.5"/>
  </g>
  <g id="resetDef">
    <use xlink:href="#rim2" fill="#404040"><set attributeName="fill" to="#808080" begin="reset.mouseover" end="reset.mouseout"/></use>
  </g>
</defs>
<script type="application/ecmascript">
var viewWidth = 688;
var viewHeight = 270;
var sectionId = 'dynsection-7';
</script>
<script type="application/ecmascript" xlink:href="svg.min.js"/>
<svg id="graph" class="graph">
<g id="viewport">
<title>init_transformer_selector_eff</title>
<!-- Node1 -->
<g id="Node000001" class="node">
<title>Node1</title>
<g id="a_Node000001"><a xlink:title=" ">
<polygon fill="#999999" stroke="#666666" points="157.75,-87.75 0,-87.75 0,-67 157.75,-67 157.75,-87.75"/>
<text xml:space="preserve" text-anchor="middle" x="78.88" y="-74.25" font-family="Helvetica,sans-Serif" font-size="10.00">init_transformer_selector_eff</text>
</a>
</g>
</g>
<!-- Node2 -->
<g id="Node000002" class="node">
<title>Node2</title>
<g id="a_Node000002"><a xlink:href="m__transformer__select_8c.html#a190405b84e930df98a00d85575b6bc09" target="_top" xlink:title=" ">
<polygon fill="white" stroke="#666666" points="323,-162.12 213.25,-162.12 213.25,-128.62 323,-128.62 323,-162.12"/>
<text xml:space="preserve" text-anchor="start" x="221.25" y="-148.62" font-family="Helvetica,sans-Serif" font-size="10.00">create_transformer</text>
<text xml:space="preserve" text-anchor="middle" x="268.12" y="-135.88" font-family="Helvetica,sans-Serif" font-size="10.00">_selector_ui_eff</text>
</a>
</g>
</g>
<!-- Node1&#45;&gt;Node2 -->
<g id="edge1_Node000001_Node000002" class="edge">
<title>Node1&#45;&gt;Node2</title>
<g id="a_edge1_Node000001_Node000002"><a xlink:title=" ">
<path fill="none" stroke="#63b8ff" d="M108.86,-88.18C131.85,-96.72 164.82,-108.91 193.75,-119.38 198.38,-121.05 203.18,-122.77 208,-124.5"/>
<polygon fill="#63b8ff" stroke="#63b8ff" points="206.53,-127.69 217.12,-127.75 208.88,-121.1 206.53,-127.69"/>
</a>
</g>
</g>
<!-- Node161 -->
<g id="Node000161" class="node">
<title>Node161</title>
<g id="a_Node000161"><a xlink:href="m__transformer__select_8c.html#acab5d89c76c63be4ad9d08219f3cd9f0" target="_top" xlink:title=" ">
<polygon fill="white" stroke="#666666" points="342.5,-110.75 193.75,-110.75 193.75,-90 342.5,-90 342.5,-110.75"/>
<text xml:space="preserve" text-anchor="middle" x="268.12" y="-97.25" font-family="Helvetica,sans-Serif" font-size="10.00">enter_transformer_selector</text>
</a>
</g>
</g>
<!-- Node1&#45;&gt;Node161 -->
<g id="edge10_Node000001_Node000161" class="edge">
<title>Node1&#45;&gt;Node161</title>
<g id="a_edge10_Node000001_Node000161"><a xlink:title=" ">
<path fill="none" stroke="#63b8ff" d="M158.2,-87C166.1,-87.97 174.15,-88.96 182.12,-89.93"/>
<polygon fill="#63b8ff" stroke="#63b8ff" points="181.45,-93.38 191.8,-91.12 182.3,-86.43 181.45,-93.38"/>
</a>
</g>
</g>
<!-- Node162 -->
<g id="Node000162" class="node">
<title>Node162</title>
<g id="a_Node000162"><a xlink:href="m__transformer__select_8c.html#af809e43b4400f9aa88a87d2c67b2fc7e" target="_top" xlink:title=" ">
<polygon fill="white" stroke="#666666" points="337.62,-72.12 198.62,-72.12 198.62,-38.62 337.62,-38.62 337.62,-72.12"/>
<text xml:space="preserve" text-anchor="start" x="206.62" y="-58.62" font-family="Helvetica,sans-Serif" font-size="10.00">init_transformer_selector</text>
<text xml:space="preserve" text-anchor="middle" x="268.12" y="-45.88" font-family="Helvetica,sans-Serif" font-size="10.00">_button_from_effect</text>
</a>
</g>
</g>
<!-- Node1&#45;&gt;Node162 -->
<g id="edge11_Node000001_Node000162" class="edge">
<title>Node1&#45;&gt;Node162</title>
<g id="a_edge11_Node000001_Node000162"><a xlink:title=" ">
<path fill="none" stroke="#63b8ff" d="M158.2,-68.17C167.78,-67.05 177.58,-65.9 187.18,-64.77"/>
<polygon fill="#63b8ff" stroke="#63b8ff" points="187.32,-68.28 196.84,-63.63 186.5,-61.32 187.32,-68.28"/>
</a>
</g>
</g>
<!-- Node163 -->
<g id="Node000163" class="node">
<title>Node163</title>
<g id="a_Node000163"><a xlink:href="m__ui_8c.html#af00906d3db4ae068f5cd832bb5052d83" target="_top" xlink:title=" ">
<polygon fill="white" stroke="#666666" points="305.75,-20.75 230.5,-20.75 230.5,0 305.75,0 305.75,-20.75"/>
<text xml:space="preserve" text-anchor="middle" x="268.12" y="-7.25" font-family="Helvetica,sans-Serif" font-size="10.00">init_ui_page</text>
</a>
</g>
</g>
<!-- Node1&#45;&gt;Node163 -->
<g id="edge12_Node000001_Node000163" class="edge">
<title>Node1&#45;&gt;Node163</title>
<g id="a_edge12_Node000001_Node000163"><a xlink:title=" ">
<path fill="none" stroke="#63b8ff" d="M102.61,-66.63C125.33,-56.17 161.44,-40.3 193.75,-29.38 201.9,-26.62 210.67,-24.03 219.21,-21.71"/>
<polygon fill="#63b8ff" stroke="#63b8ff" points="219.99,-25.12 228.78,-19.19 218.22,-18.35 219.99,-25.12"/>
</a>
</g>
</g>
<!-- Node3 -->
<g id="Node000003" class="node">
<title>Node3</title>
<g id="a_Node000003"><a xlink:href="m__ui_8c.html#a8348d5e665c738ca7c0ed0676d0364c9" target="_top" xlink:title=" ">
<polygon fill="white" stroke="#666666" points="512.25,-240.12 378.5,-240.12 378.5,-206.62 512.25,-206.62 512.25,-240.12"/>
<text xml:space="preserve" text-anchor="start" x="386.5" y="-226.62" font-family="Helvetica,sans-Serif" font-size="10.00">create_panel_with_back</text>
<text xml:space="preserve" text-anchor="middle" x="445.38" y="-213.88" font-family="Helvetica,sans-Serif" font-size="10.00">_button</text>
</a>
</g>
</g>
<!-- Node2&#45;&gt;Node3 -->
<g id="edge2_Node000002_Node000003" class="edge">
<title>Node2&#45;&gt;Node3</title>
<g id="a_edge2_Node000002_Node000003"><a xlink:title=" ">
<path fill="none" stroke="#63b8ff" d="M303.82,-162.61C325.19,-173.04 353.24,-186.4 378.5,-197.38 381.88,-198.84 385.38,-200.33 388.91,-201.8"/>
<polygon fill="#63b8ff" stroke="#63b8ff" points="387.58,-205.03 398.16,-205.59 390.23,-198.56 387.58,-205.03"/>
</a>
</g>
</g>
<!-- Node12 -->
<g id="Node000012" class="node">
<title>Node12</title>
<g id="a_Node000012"><a xlink:href="m__ui_8c.html#a62738946a4bf88f4f13024860a34c7f1" target="_top" xlink:title=" ">
<polygon fill="white" stroke="#666666" points="511.12,-188.12 379.62,-188.12 379.62,-154.62 511.12,-154.62 511.12,-188.12"/>
<text xml:space="preserve" text-anchor="start" x="387.62" y="-174.62" font-family="Helvetica,sans-Serif" font-size="10.00">create_standard_button</text>
<text xml:space="preserve" text-anchor="middle" x="445.38" y="-161.88" font-family="Helvetica,sans-Serif" font-size="10.00">_list_tall</text>
</a>
</g>
</g>
<!-- Node2&#45;&gt;Node12 -->
<g id="edge5_Node000002_Node000012" class="edge">
<title>Node2&#45;&gt;Node12</title>
<g id="a_edge5_Node000002_Node000012"><a xlink:title=" ">
<path fill="none" stroke="#63b8ff" d="M323.14,-153.39C337.24,-155.48 352.72,-157.78 367.75,-160.01"/>
<polygon fill="#63b8ff" stroke="#63b8ff" points="367.23,-163.47 377.64,-161.47 368.26,-156.54 367.23,-163.47"/>
</a>
</g>
</g>
<!-- Node13 -->
<g id="Node000013" class="node">
<title>Node13</title>
<g id="a_Node000013"><a xlink:href="m__transformer__select_8c.html#a26bc01d09200b28d05f5786f45a0cc59" target="_top" xlink:title=" ">
<polygon fill="white" stroke="#666666" points="510.38,-136.12 380.38,-136.12 380.38,-102.62 510.38,-102.62 510.38,-136.12"/>
<text xml:space="preserve" text-anchor="start" x="388.38" y="-122.62" font-family="Helvetica,sans-Serif" font-size="10.00">create_transformer</text>
<text xml:space="preserve" text-anchor="middle" x="445.38" y="-109.88" font-family="Helvetica,sans-Serif" font-size="10.00">_selector_button_ui_eff</text>
</a>
</g>
</g>
<!-- Node2&#45;&gt;Node13 -->
<g id="edge6_Node000002_Node000013" class="edge">
<title>Node2&#45;&gt;Node13</title>
<g id="a_edge6_Node000002_Node000013"><a xlink:title=" ">
<path fill="none" stroke="#63b8ff" d="M323.14,-137.36C337.62,-135.21 353.55,-132.85 368.97,-130.56"/>
<polygon fill="#63b8ff" stroke="#63b8ff" points="369.2,-134.07 378.58,-129.14 368.17,-127.14 369.2,-134.07"/>
</a>
</g>
</g>
<!-- Node160 -->
<g id="Node000160" class="node">
<title>Node160</title>
<g id="a_Node000160"><a xlink:href="m__ui_8c.html#a7fb9325e8b5456d540ead3cc81f7c223" target="_top" xlink:title=" ">
<polygon fill="white" stroke="#666666" points="489.38,-84.75 401.38,-84.75 401.38,-64 489.38,-64 489.38,-84.75"/>
<text xml:space="preserve" text-anchor="middle" x="445.38" y="-71.25" font-family="Helvetica,sans-Serif" font-size="10.00">set_panel_text</text>
</a>
</g>
</g>
<!-- Node2&#45;&gt;Node160 -->
<g id="edge9_Node000002_Node000160" class="edge">
<title>Node2&#45;&gt;Node160</title>
<g id="a_edge9_Node000002_Node000160"><a xlink:title=" ">
<path fill="none" stroke="#63b8ff" d="M323.18,-128.22C329.81,-125.53 336.4,-122.58 342.5,-119.38 359.98,-110.21 360.76,-102.02 378.5,-93.38 382.25,-91.55 386.21,-89.86 390.25,-88.32"/>
<polygon fill="#63b8ff" stroke="#63b8ff" points="391.33,-91.65 399.62,-85.05 389.03,-85.04 391.33,-91.65"/>
</a>
</g>
</g>
<!-- Node4 -->
<g id="Node000004" class="node">
<title>Node4</title>
<g id="a_Node000004"><a xlink:href="m__ui_8c.html#a3728b6c96a53229235fe6cbd6822e458" target="_top" xlink:title=" ">
<polygon fill="#fff0f0" stroke="red" points="677.5,-262.12 550.5,-262.12 550.5,-228.62 677.5,-228.62 677.5,-262.12"/>
<text xml:space="preserve" text-anchor="start" x="558.5" y="-248.62" font-family="Helvetica,sans-Serif" font-size="10.00">create_panel_with_left</text>
<text xml:space="preserve" text-anchor="middle" x="614" y="-235.88" font-family="Helvetica,sans-Serif" font-size="10.00">_button</text>
</a>
</g>
</g>
<!-- Node3&#45;&gt;Node4 -->
<g id="edge3_Node000003_Node000004" class="edge">
<title>Node3&#45;&gt;Node4</title>
<g id="a_edge3_Node000003_Node000004"><a xlink:title=" ">
<path fill="none" stroke="#63b8ff" d="M512.71,-232.13C521.29,-233.27 530.12,-234.43 538.82,-235.58"/>
<polygon fill="#63b8ff" stroke="#63b8ff" points="538.27,-239.04 548.65,-236.88 539.19,-232.1 538.27,-239.04"/>
</a>
</g>
</g>
<!-- Node8 -->
<g id="Node000008" class="node">
<title>Node8</title>
<g id="a_Node000008"><a xlink:href="m__ui_8c.html#af17d8912a520f607796e85d96467cc5a" target="_top" xlink:title=" ">
<polygon fill="#fff0f0" stroke="red" points="676,-210.75 552,-210.75 552,-190 676,-190 676,-210.75"/>
<text xml:space="preserve" text-anchor="middle" x="614" y="-197.25" font-family="Helvetica,sans-Serif" font-size="10.00">enter_parent_page_cb</text>
</a>
</g>
</g>
<!-- Node3&#45;&gt;Node8 -->
<g id="edge4_Node000003_Node000008" class="edge">
<title>Node3&#45;&gt;Node8</title>
<g id="a_edge4_Node000003_Node000008"><a xlink:title=" ">
<path fill="none" stroke="#63b8ff" d="M512.71,-214.22C521.87,-212.95 531.32,-211.65 540.58,-210.37"/>
<polygon fill="#63b8ff" stroke="#63b8ff" points="540.84,-213.87 550.26,-209.03 539.88,-206.94 540.84,-213.87"/>
</a>
</g>
</g>
<!-- Node14 -->
<g id="Node000014" class="node">
<title>Node14</title>
<g id="a_Node000014"><a xlink:href="m__transformer__select_8c.html#a8a60316cc5a79aaf1c656b9523dd54b1" target="_top" xlink:title=" ">
<polygon fill="#fff0f0" stroke="red" points="676.75,-165.12 551.25,-165.12 551.25,-131.62 676.75,-131.62 676.75,-165.12"/>
<text xml:space="preserve" text-anchor="start" x="559.25" y="-151.62" font-family="Helvetica,sans-Serif" font-size="10.00">add_transformer_from</text>
<text xml:space="preserve" text-anchor="middle" x="614" y="-138.88" font-family="Helvetica,sans-Serif" font-size="10.00">_menu_eff</text>
</a>
</g>
</g>
<!-- Node13&#45;&gt;Node14 -->
<g id="edge7_Node000013_Node000014" class="edge">
<title>Node13&#45;&gt;Node14</title>
<g id="a_edge7_Node000013_Node000014"><a xlink:title=" ">
<path fill="none" stroke="#63b8ff" d="M510.8,-130.59C520.27,-132.24 530.1,-133.95 539.74,-135.62"/>
<polygon fill="#63b8ff" stroke="#63b8ff" points="539,-139.05 549.45,-137.31 540.2,-132.15 539,-139.05"/>
</a>
</g>
</g>
<!-- Node159 -->
<g id="Node000159" class="node">
<title>Node159</title>
<g id="a_Node000159"><a xlink:href="m__ui_8c.html#a3db1223191628ba0e7dd7ca3c2c8a529" target="_top" xlink:title=" ">
<polygon fill="white" stroke="#666666" points="679.75,-113.12 548.25,-113.12 548.25,-79.62 679.75,-79.62 679.75,-113.12"/>
<text xml:space="preserve" text-anchor="start" x="556.25" y="-99.62" font-family="Helvetica,sans-Serif" font-size="10.00">create_standard_button</text>
<text xml:space="preserve" text-anchor="middle" x="614" y="-86.88" font-family="Helvetica,sans-Serif" font-size="10.00">_click_short</text>
</a>
</g>
</g>
<!-- Node13&#45;&gt;Node159 -->
<g id="edge8_Node000013_Node000159" class="edge">
<title>Node13&#45;&gt;Node159</title>
<g id="a_edge8_Node000013_Node000159"><a xlink:title=" ">
<path fill="none" stroke="#63b8ff" d="M510.8,-110.48C519.27,-109.31 528.01,-108.11 536.65,-106.91"/>
<polygon fill="#63b8ff" stroke="#63b8ff" points="537,-110.4 546.43,-105.56 536.04,-103.46 537,-110.4"/>
</a>
</g>
</g>
</g>
</svg>

<g id="navigator" transform="translate(0 0)" fill="#404254">
  <rect fill="#f2f5e9" fill-opacity="0.5" stroke="#606060" stroke-width=".5" x="0" y="0" width="60" height="60"/>
  <use id="zoomplus" xlink:href="#zoomPlus" x="17" y="9" onmousedown="handleZoom(evt,'in')"/>
  <use id="zoomminus" xlink:href="#zoomMin" x="42" y="9" onmousedown="handleZoom(evt,'out')"/>
  <use id="reset" xlink:href="#resetDef" x="30" y="36" onmousedown="handleReset()"/>
   <use id="arrowup" xlink:href="#arrowUp" x="0" y="0" onmousedown="handlePan(0,-1)"/>
  <use id="arrowright" xlink:href="#arrowRight" x="0" y="0" onmousedown="handlePan(1,0)"/>
  <use id="arrowdown" xlink:href="#arrowDown" x="0" y="0" onmousedown="handlePan(0,1)"/>
  <use id="arrowleft" xlink:href="#arrowLeft" x="0" y="0" onmousedown="handlePan(-1,0)"/>
</g>
<svg viewBox="0 0 15 15" width="100%" height="30px" preserveAspectRatio="xMaxYMin meet">
 <g id="arrow_out" transform="scale(0.3 0.3)">
  <a xlink:href="m__transformer__select_8h_ae53aad222b477ad281dc7c9edca4bd7a_cgraph_org.svg" target="_base">
   <rect id="button" ry="5" rx="5" y="6" x="6" height="38" width="38"
        fill="#f2f5e9" fill-opacity="0.5" stroke="#606060" stroke-width="1.0"/>
   <path id="arrow"
     d="M 11.500037,31.436501 C 11.940474,20.09759 22.043105,11.32322 32.158766,21.979434 L 37.068811,17.246167 C 37.068811,17.246167 37.088388,32 37.088388,32 L 22.160133,31.978069 C 22.160133,31.978069 26.997745,27.140456 26.997745,27.140456 C 18.528582,18.264221 13.291696,25.230495 11.500037,31.436501 z"
     style="fill:#404040;"/>
  </a>
 </g>
</svg>

<style type='text/css'>
<![CDATA[
[data-mouse-over-selected='false'] { opacity: 0.7; }
[data-mouse-over-selected='true']  { opacity: 1.0; }
]]>
</style>
<script type="application/ecmascript"><![CDATA[
document.addEventListener('DOMContentLoaded', (event) => {
  highlightEdges();
  highlightAdjacentNodes();
});
]]></script>
</svg>
