<?xml version="1.0" encoding="UTF-8" standalone="no"?>
<!DOCTYPE svg PUBLIC "-//W3C//DTD SVG 1.1//EN"
 "http://www.w3.org/Graphics/SVG/1.1/DTD/svg11.dtd">
<!-- Generated by graphviz version 13.1.2 (20250808.2320)
 -->
<!-- Title: m_transformer_settings.h Pages: 1 -->
<svg width="3817pt" height="142pt"
 viewBox="0.00 0.00 3817.00 142.00" xmlns="http://www.w3.org/2000/svg" xmlns:xlink="http://www.w3.org/1999/xlink">
<g id="graph0" class="graph" transform="scale(1 1) rotate(0) translate(4 138.25)">
<title>m_transformer_settings.h</title>
<!-- Node1 -->
<g id="Node000001" class="node">
<title>Node1</title>
<g id="a_Node000001"><a xlink:title=" ">
<polygon fill="#999999" stroke="#666666" points="1940.25,-134.25 1798.25,-134.25 1798.25,-113.5 1940.25,-113.5 1940.25,-134.25"/>
<text xml:space="preserve" text-anchor="middle" x="1869.25" y="-120.75" font-family="Helvetica,sans-Serif" font-size="10.00">m_transformer_settings.h</text>
</a>
</g>
</g>
<!-- Node2 -->
<g id="Node000002" class="node">
<title>Node2</title>
<g id="a_Node000002"><a xlink:href="m__desktop_8h.html" target="_top" xlink:title=" ">
<polygon fill="white" stroke="#666666" points="1866.75,-77.5 1787.75,-77.5 1787.75,-56.75 1866.75,-56.75 1866.75,-77.5"/>
<text xml:space="preserve" text-anchor="middle" x="1827.25" y="-64" font-family="Helvetica,sans-Serif" font-size="10.00">m_desktop.h</text>
</a>
</g>
</g>
<!-- Node1&#45;&gt;Node2 -->
<g id="edge1_Node000001_Node000002" class="edge">
<title>Node1&#45;&gt;Node2</title>
<g id="a_edge1_Node000001_Node000002"><a xlink:title=" ">
<path fill="none" stroke="#63b8ff" d="M1854.93,-104.21C1848.13,-95.34 1840.29,-85.12 1834.69,-77.83"/>
<polygon fill="#63b8ff" stroke="#63b8ff" points="1851.96,-106.08 1860.82,-111.89 1857.51,-101.82 1851.96,-106.08"/>
</a>
</g>
</g>
<!-- Node3 -->
<g id="Node000003" class="node">
<title>Node3</title>
<g id="a_Node000003"><a xlink:href="m__int_8h.html" target="_top" xlink:title=" ">
<polygon fill="#fff0f0" stroke="red" points="1937.62,-77.5 1884.88,-77.5 1884.88,-56.75 1937.62,-56.75 1937.62,-77.5"/>
<text xml:space="preserve" text-anchor="middle" x="1911.25" y="-64" font-family="Helvetica,sans-Serif" font-size="10.00">m_int.h</text>
</a>
</g>
</g>
<!-- Node1&#45;&gt;Node3 -->
<g id="edge2_Node000001_Node000003" class="edge">
<title>Node1&#45;&gt;Node3</title>
<g id="a_edge2_Node000001_Node000003"><a xlink:title=" ">
<path fill="none" stroke="#63b8ff" d="M1883.57,-104.21C1890.37,-95.34 1898.21,-85.12 1903.81,-77.83"/>
<polygon fill="#63b8ff" stroke="#63b8ff" points="1880.99,-101.82 1877.68,-111.89 1886.54,-106.08 1880.99,-101.82"/>
</a>
</g>
</g>
<!-- Node4 -->
<g id="Node000004" class="node">
<title>Node4</title>
<g id="a_Node000004"><a xlink:href="m__alloc_8c.html" target="_top" xlink:title=" ">
<polygon fill="white" stroke="#666666" points="62.5,-20.75 0,-20.75 0,0 62.5,0 62.5,-20.75"/>
<text xml:space="preserve" text-anchor="middle" x="31.25" y="-7.25" font-family="Helvetica,sans-Serif" font-size="10.00">m_alloc.c</text>
</a>
</g>
</g>
<!-- Node3&#45;&gt;Node4 -->
<g id="edge3_Node000003_Node000004" class="edge">
<title>Node3&#45;&gt;Node4</title>
<g id="a_edge3_Node000003_Node000004"><a xlink:title=" ">
<path fill="none" stroke="#63b8ff" d="M1873.5,-56.75C1460.84,-1.7 465.71,-70.35 71.25,-20.75 68.42,-20.39 65.5,-19.92 62.58,-19.37"/>
<polygon fill="#63b8ff" stroke="#63b8ff" points="1872.75,-60.18 1883.14,-58.08 1873.71,-53.24 1872.75,-60.18"/>
</a>
</g>
</g>
<!-- Node5 -->
<g id="Node000005" class="node">
<title>Node5</title>
<g id="a_Node000005"><a xlink:href="m__asm__parser_8c.html" target="_top" xlink:title=" ">
<polygon fill="white" stroke="#666666" points="176.38,-20.75 80.12,-20.75 80.12,0 176.38,0 176.38,-20.75"/>
<text xml:space="preserve" text-anchor="middle" x="128.25" y="-7.25" font-family="Helvetica,sans-Serif" font-size="10.00">m_asm_parser.c</text>
</a>
</g>
</g>
<!-- Node3&#45;&gt;Node5 -->
<g id="edge4_Node000003_Node000005" class="edge">
<title>Node3&#45;&gt;Node5</title>
<g id="a_edge4_Node000003_Node000005"><a xlink:title=" ">
<path fill="none" stroke="#63b8ff" d="M1873.33,-56.72C1485.75,-4.74 555.86,-55 185.25,-20.75 182.45,-20.49 179.59,-20.18 176.7,-19.82"/>
<polygon fill="#63b8ff" stroke="#63b8ff" points="1872.75,-60.17 1883.13,-58.08 1873.71,-53.24 1872.75,-60.17"/>
</a>
</g>
</g>
<!-- Node6 -->
<g id="Node000006" class="node">
<title>Node6</title>
<g id="a_Node000006"><a xlink:href="m__block_8c.html" target="_top" xlink:title=" ">
<polygon fill="white" stroke="#666666" points="260,-20.75 194.5,-20.75 194.5,0 260,0 260,-20.75"/>
<text xml:space="preserve" text-anchor="middle" x="227.25" y="-7.25" font-family="Helvetica,sans-Serif" font-size="10.00">m_block.c</text>
</a>
</g>
</g>
<!-- Node3&#45;&gt;Node6 -->
<g id="edge5_Node000003_Node000006" class="edge">
<title>Node3&#45;&gt;Node6</title>
<g id="a_edge5_Node000003_Node000006"><a xlink:title=" ">
<path fill="none" stroke="#63b8ff" d="M1873.33,-56.72C1504.27,-7.35 620.2,-63.43 269.25,-20.75 266.28,-20.39 263.22,-19.91 260.16,-19.36"/>
<polygon fill="#63b8ff" stroke="#63b8ff" points="1872.75,-60.18 1883.13,-58.08 1873.71,-53.24 1872.75,-60.18"/>
</a>
</g>
</g>
<!-- Node7 -->
<g id="Node000007" class="node">
<title>Node7</title>
<g id="a_Node000007"><a xlink:href="m__bump__arena_8c.html" target="_top" xlink:title=" ">
<polygon fill="white" stroke="#666666" points="378.25,-20.75 278.25,-20.75 278.25,0 378.25,0 378.25,-20.75"/>
<text xml:space="preserve" text-anchor="middle" x="328.25" y="-7.25" font-family="Helvetica,sans-Serif" font-size="10.00">m_bump_arena.c</text>
</a>
</g>
</g>
<!-- Node3&#45;&gt;Node7 -->
<g id="edge6_Node000003_Node000007" class="edge">
<title>Node3&#45;&gt;Node7</title>
<g id="a_edge6_Node000003_Node000007"><a xlink:title=" ">
<path fill="none" stroke="#63b8ff" d="M1873.38,-56.72C1530.42,-10.5 713.25,-50.46 387.25,-20.75 384.46,-20.5 381.6,-20.19 378.72,-19.85"/>
<polygon fill="#63b8ff" stroke="#63b8ff" points="1872.75,-60.17 1883.13,-58.09 1873.71,-53.24 1872.75,-60.17"/>
</a>
</g>
</g>
<!-- Node8 -->
<g id="Node000008" class="node">
<title>Node8</title>
<g id="a_Node000008"><a xlink:href="m__button_8c.html" target="_top" xlink:title=" ">
<polygon fill="white" stroke="#666666" points="466.62,-20.75 395.88,-20.75 395.88,0 466.62,0 466.62,-20.75"/>
<text xml:space="preserve" text-anchor="middle" x="431.25" y="-7.25" font-family="Helvetica,sans-Serif" font-size="10.00">m_button.c</text>
</a>
</g>
</g>
<!-- Node3&#45;&gt;Node8 -->
<g id="edge7_Node000003_Node000008" class="edge">
<title>Node3&#45;&gt;Node8</title>
<g id="a_edge7_Node000003_Node000008"><a xlink:title=" ">
<path fill="none" stroke="#63b8ff" d="M1873.24,-56.66C1257.75,30.91 1090.03,-93.51 475.25,-20.75 472.46,-20.42 469.58,-20 466.7,-19.51"/>
<polygon fill="#63b8ff" stroke="#63b8ff" points="1872.74,-60.13 1883.13,-58.09 1873.73,-53.2 1872.74,-60.13"/>
</a>
</g>
</g>
<!-- Node9 -->
<g id="Node000009" class="node">
<title>Node9</title>
<g id="a_Node000009"><a xlink:href="m__context_8c.html" target="_top" xlink:title=" ">
<polygon fill="white" stroke="#666666" points="560.25,-20.75 484.25,-20.75 484.25,0 560.25,0 560.25,-20.75"/>
<text xml:space="preserve" text-anchor="middle" x="522.25" y="-7.25" font-family="Helvetica,sans-Serif" font-size="10.00">m_context.c</text>
</a>
</g>
</g>
<!-- Node3&#45;&gt;Node9 -->
<g id="edge8_Node000003_Node000009" class="edge">
<title>Node3&#45;&gt;Node9</title>
<g id="a_edge8_Node000003_Node000009"><a xlink:title=" ">
<path fill="none" stroke="#63b8ff" d="M1873.57,-56.71C1299.23,25.58 1143.04,-85.41 569.25,-20.75 566.44,-20.43 563.55,-20.04 560.64,-19.58"/>
<polygon fill="#63b8ff" stroke="#63b8ff" points="1872.74,-60.12 1883.13,-58.09 1873.74,-53.19 1872.74,-60.12"/>
</a>
</g>
</g>
<!-- Node10 -->
<g id="Node000010" class="node">
<title>Node10</title>
<g id="a_Node000010"><a xlink:href="m__desktop_8c.html" target="_top" xlink:title=" ">
<polygon fill="white" stroke="#666666" points="656.38,-20.75 578.12,-20.75 578.12,0 656.38,0 656.38,-20.75"/>
<text xml:space="preserve" text-anchor="middle" x="617.25" y="-7.25" font-family="Helvetica,sans-Serif" font-size="10.00">m_desktop.c</text>
</a>
</g>
</g>
<!-- Node3&#45;&gt;Node10 -->
<g id="edge9_Node000003_Node000010" class="edge">
<title>Node3&#45;&gt;Node10</title>
<g id="a_edge9_Node000003_Node000010"><a xlink:title=" ">
<path fill="none" stroke="#63b8ff" d="M1873.59,-56.7C1341.52,20.05 1196.72,-80.15 665.25,-20.75 662.47,-20.44 659.6,-20.05 656.72,-19.61"/>
<polygon fill="#63b8ff" stroke="#63b8ff" points="1872.73,-60.11 1883.13,-58.09 1873.74,-53.19 1872.73,-60.11"/>
</a>
</g>
</g>
<!-- Node11 -->
<g id="Node000011" class="node">
<title>Node11</title>
<g id="a_Node000011"><a xlink:href="m__dict__extract_8c.html" target="_top" xlink:title=" ">
<polygon fill="white" stroke="#666666" points="771.75,-20.75 674.75,-20.75 674.75,0 771.75,0 771.75,-20.75"/>
<text xml:space="preserve" text-anchor="middle" x="723.25" y="-7.25" font-family="Helvetica,sans-Serif" font-size="10.00">m_dict_extract.c</text>
</a>
</g>
</g>
<!-- Node3&#45;&gt;Node11 -->
<g id="edge10_Node000003_Node000011" class="edge">
<title>Node3&#45;&gt;Node11</title>
<g id="a_edge10_Node000003_Node000011"><a xlink:title=" ">
<path fill="none" stroke="#63b8ff" d="M1873.56,-56.69C1392.62,13.47 1262.24,-67.34 781.25,-20.75 778.31,-20.46 775.28,-20.12 772.24,-19.74"/>
<polygon fill="#63b8ff" stroke="#63b8ff" points="1872.73,-60.1 1883.13,-58.1 1873.75,-53.18 1872.73,-60.1"/>
</a>
</g>
</g>
<!-- Node12 -->
<g id="Node000012" class="node">
<title>Node12</title>
<g id="a_Node000012"><a xlink:href="m__dictionary_8c.html" target="_top" xlink:title=" ">
<polygon fill="white" stroke="#666666" points="876.5,-20.75 790,-20.75 790,0 876.5,0 876.5,-20.75"/>
<text xml:space="preserve" text-anchor="middle" x="833.25" y="-7.25" font-family="Helvetica,sans-Serif" font-size="10.00">m_dictionary.c</text>
</a>
</g>
</g>
<!-- Node3&#45;&gt;Node12 -->
<g id="edge11_Node000003_Node000012" class="edge">
<title>Node3&#45;&gt;Node12</title>
<g id="a_edge11_Node000003_Node000012"><a xlink:title=" ">
<path fill="none" stroke="#63b8ff" d="M1873.32,-56.65C1438.82,7.34 1320.34,-66.81 886.25,-20.75 883.18,-20.42 880.03,-20.03 876.85,-19.58"/>
<polygon fill="#63b8ff" stroke="#63b8ff" points="1872.72,-60.1 1883.13,-58.11 1873.76,-53.17 1872.72,-60.1"/>
</a>
</g>
</g>
<!-- Node13 -->
<g id="Node000013" class="node">
<title>Node13</title>
<g id="a_Node000013"><a xlink:href="m__eff__desc_8c.html" target="_top" xlink:title=" ">
<polygon fill="white" stroke="#666666" points="975.5,-20.75 895,-20.75 895,0 975.5,0 975.5,-20.75"/>
<text xml:space="preserve" text-anchor="middle" x="935.25" y="-7.25" font-family="Helvetica,sans-Serif" font-size="10.00">m_eff_desc.c</text>
</a>
</g>
</g>
<!-- Node3&#45;&gt;Node13 -->
<g id="edge12_Node000003_Node000013" class="edge">
<title>Node3&#45;&gt;Node13</title>
<g id="a_edge12_Node000003_Node000013"><a xlink:title=" ">
<path fill="none" stroke="#63b8ff" d="M1873.27,-56.63C1482.41,1.6 1375.3,-64.96 985.25,-20.75 982.18,-20.4 979.01,-19.97 975.83,-19.49"/>
<polygon fill="#63b8ff" stroke="#63b8ff" points="1872.72,-60.08 1883.13,-58.12 1873.76,-53.16 1872.72,-60.08"/>
</a>
</g>
</g>
<!-- Node14 -->
<g id="Node000014" class="node">
<title>Node14</title>
<g id="a_Node000014"><a xlink:href="m__eff__parser_8c.html" target="_top" xlink:title=" ">
<polygon fill="white" stroke="#666666" points="1082.62,-20.75 993.88,-20.75 993.88,0 1082.62,0 1082.62,-20.75"/>
<text xml:space="preserve" text-anchor="middle" x="1038.25" y="-7.25" font-family="Helvetica,sans-Serif" font-size="10.00">m_eff_parser.c</text>
</a>
</g>
</g>
<!-- Node3&#45;&gt;Node14 -->
<g id="edge13_Node000003_Node000014" class="edge">
<title>Node3&#45;&gt;Node14</title>
<g id="a_edge13_Node000003_Node000014"><a xlink:title=" ">
<path fill="none" stroke="#63b8ff" d="M1873.32,-56.62C1529.09,-4.45 1434.65,-58.83 1091.25,-20.75 1088.56,-20.45 1085.79,-20.1 1083.01,-19.71"/>
<polygon fill="#63b8ff" stroke="#63b8ff" points="1872.71,-60.07 1883.13,-58.13 1873.78,-53.15 1872.71,-60.07"/>
</a>
</g>
</g>
<!-- Node15 -->
<g id="Node000015" class="node">
<title>Node15</title>
<g id="a_Node000015"><a xlink:href="m__eff__section_8c.html" target="_top" xlink:title=" ">
<polygon fill="white" stroke="#666666" points="1193.88,-20.75 1100.62,-20.75 1100.62,0 1193.88,0 1193.88,-20.75"/>
<text xml:space="preserve" text-anchor="middle" x="1147.25" y="-7.25" font-family="Helvetica,sans-Serif" font-size="10.00">m_eff_section.c</text>
</a>
</g>
</g>
<!-- Node3&#45;&gt;Node15 -->
<g id="edge14_Node000003_Node000015" class="edge">
<title>Node3&#45;&gt;Node15</title>
<g id="a_edge14_Node000003_Node000015"><a xlink:title=" ">
<path fill="none" stroke="#63b8ff" d="M1873.56,-56.64C1578.01,-10.76 1496.74,-53.6 1202.25,-20.75 1199.65,-20.46 1196.99,-20.13 1194.3,-19.76"/>
<polygon fill="#63b8ff" stroke="#63b8ff" points="1872.7,-60.04 1883.13,-58.14 1873.79,-53.13 1872.7,-60.04"/>
</a>
</g>
</g>
<!-- Node16 -->
<g id="Node000016" class="node">
<title>Node16</title>
<g id="a_Node000016"><a xlink:href="m__expr__parser_8c.html" target="_top" xlink:title=" ">
<polygon fill="white" stroke="#666666" points="1308.75,-20.75 1211.75,-20.75 1211.75,0 1308.75,0 1308.75,-20.75"/>
<text xml:space="preserve" text-anchor="middle" x="1260.25" y="-7.25" font-family="Helvetica,sans-Serif" font-size="10.00">m_expr_parser.c</text>
</a>
</g>
</g>
<!-- Node3&#45;&gt;Node16 -->
<g id="edge15_Node000003_Node000016" class="edge">
<title>Node3&#45;&gt;Node16</title>
<g id="a_edge15_Node000003_Node000016"><a xlink:title=" ">
<path fill="none" stroke="#63b8ff" d="M1873.59,-56.61C1629.06,-17.33 1561.58,-48.2 1318.25,-20.75 1315.21,-20.41 1312.08,-20.02 1308.94,-19.59"/>
<polygon fill="#63b8ff" stroke="#63b8ff" points="1872.69,-60.01 1883.12,-58.17 1873.82,-53.1 1872.69,-60.01"/>
</a>
</g>
</g>
<!-- Node17 -->
<g id="Node000017" class="node">
<title>Node17</title>
<g id="a_Node000017"><a xlink:href="m__expr__scope_8c.html" target="_top" xlink:title=" ">
<polygon fill="white" stroke="#666666" points="1421.62,-20.75 1326.88,-20.75 1326.88,0 1421.62,0 1421.62,-20.75"/>
<text xml:space="preserve" text-anchor="middle" x="1374.25" y="-7.25" font-family="Helvetica,sans-Serif" font-size="10.00">m_expr_scope.c</text>
</a>
</g>
</g>
<!-- Node3&#45;&gt;Node17 -->
<g id="edge16_Node000003_Node000017" class="edge">
<title>Node3&#45;&gt;Node17</title>
<g id="a_edge16_Node000003_Node000017"><a xlink:title=" ">
<path fill="none" stroke="#63b8ff" d="M1873.41,-56.54C1678.73,-23.74 1624.55,-44.42 1431.25,-20.75 1428.26,-20.38 1425.19,-19.98 1422.1,-19.54"/>
<polygon fill="#63b8ff" stroke="#63b8ff" points="1872.67,-59.96 1883.12,-58.2 1873.85,-53.06 1872.67,-59.96"/>
</a>
</g>
</g>
<!-- Node18 -->
<g id="Node000018" class="node">
<title>Node18</title>
<g id="a_Node000018"><a xlink:href="m__expression_8c.html" target="_top" xlink:title=" ">
<polygon fill="white" stroke="#666666" points="1532.5,-20.75 1440,-20.75 1440,0 1532.5,0 1532.5,-20.75"/>
<text xml:space="preserve" text-anchor="middle" x="1486.25" y="-7.25" font-family="Helvetica,sans-Serif" font-size="10.00">m_expression.c</text>
</a>
</g>
</g>
<!-- Node3&#45;&gt;Node18 -->
<g id="edge17_Node000003_Node000018" class="edge">
<title>Node3&#45;&gt;Node18</title>
<g id="a_edge17_Node000003_Node000018"><a xlink:title=" ">
<path fill="none" stroke="#63b8ff" d="M1873.41,-56.46C1727.05,-29.86 1685.95,-40.84 1541.25,-20.75 1538.47,-20.36 1535.61,-19.94 1532.73,-19.51"/>
<polygon fill="#63b8ff" stroke="#63b8ff" points="1872.64,-59.88 1883.11,-58.25 1873.91,-52.99 1872.64,-59.88"/>
</a>
</g>
</g>
<!-- Node19 -->
<g id="Node000019" class="node">
<title>Node19</title>
<g id="a_Node000019"><a xlink:href="m__files_8c.html" target="_top" xlink:title=" ">
<polygon fill="white" stroke="#666666" points="1610.38,-20.75 1550.12,-20.75 1550.12,0 1610.38,0 1610.38,-20.75"/>
<text xml:space="preserve" text-anchor="middle" x="1580.25" y="-7.25" font-family="Helvetica,sans-Serif" font-size="10.00">m_files.c</text>
</a>
</g>
</g>
<!-- Node3&#45;&gt;Node19 -->
<g id="edge18_Node000003_Node000019" class="edge">
<title>Node3&#45;&gt;Node19</title>
<g id="a_edge18_Node000003_Node000019"><a xlink:title=" ">
<path fill="none" stroke="#63b8ff" d="M1873.46,-56.39C1761.23,-34.29 1729.02,-41.58 1619.25,-20.75 1616.51,-20.23 1613.68,-19.64 1610.85,-19.03"/>
<polygon fill="#63b8ff" stroke="#63b8ff" points="1872.6,-59.78 1883.09,-58.32 1873.98,-52.92 1872.6,-59.78"/>
</a>
</g>
</g>
<!-- Node20 -->
<g id="Node000020" class="node">
<title>Node20</title>
<g id="a_Node000020"><a xlink:href="m__footswitch_8c.html" target="_top" xlink:title=" ">
<polygon fill="white" stroke="#666666" points="1718.38,-20.75 1628.12,-20.75 1628.12,0 1718.38,0 1718.38,-20.75"/>
<text xml:space="preserve" text-anchor="middle" x="1673.25" y="-7.25" font-family="Helvetica,sans-Serif" font-size="10.00">m_footswitch.c</text>
</a>
</g>
</g>
<!-- Node3&#45;&gt;Node20 -->
<g id="edge19_Node000003_Node000020" class="edge">
<title>Node3&#45;&gt;Node20</title>
<g id="a_edge19_Node000003_Node000020"><a xlink:title=" ">
<path fill="none" stroke="#63b8ff" d="M1873.58,-56.16C1814.99,-41.89 1757.34,-29.24 1718.53,-20.93"/>
<polygon fill="#63b8ff" stroke="#63b8ff" points="1872.51,-59.5 1883.06,-58.48 1874.18,-52.7 1872.51,-59.5"/>
</a>
</g>
</g>
<!-- Node21 -->
<g id="Node000021" class="node">
<title>Node21</title>
<g id="a_Node000021"><a xlink:href="m__fpga__comms_8c.html" target="_top" xlink:title=" ">
<polygon fill="white" stroke="#666666" points="1838.38,-20.75 1736.12,-20.75 1736.12,0 1838.38,0 1838.38,-20.75"/>
<text xml:space="preserve" text-anchor="middle" x="1787.25" y="-7.25" font-family="Helvetica,sans-Serif" font-size="10.00">m_fpga_comms.c</text>
</a>
</g>
</g>
<!-- Node3&#45;&gt;Node21 -->
<g id="edge20_Node000003_Node000021" class="edge">
<title>Node3&#45;&gt;Node21</title>
<g id="a_edge20_Node000003_Node000021"><a xlink:title=" ">
<path fill="none" stroke="#63b8ff" d="M1878.6,-51.71C1856.71,-42.05 1828.48,-29.58 1809.23,-21.08"/>
<polygon fill="#63b8ff" stroke="#63b8ff" points="1877.14,-54.89 1887.7,-55.73 1879.96,-48.48 1877.14,-54.89"/>
</a>
</g>
</g>
<!-- Node22 -->
<g id="Node000022" class="node">
<title>Node22</title>
<g id="a_Node000022"><a xlink:href="m__fpga__encoding_8c.html" target="_top" xlink:title=" ">
<polygon fill="white" stroke="#666666" points="1966.5,-20.75 1856,-20.75 1856,0 1966.5,0 1966.5,-20.75"/>
<text xml:space="preserve" text-anchor="middle" x="1911.25" y="-7.25" font-family="Helvetica,sans-Serif" font-size="10.00">m_fpga_encoding.c</text>
</a>
</g>
</g>
<!-- Node3&#45;&gt;Node22 -->
<g id="edge21_Node000003_Node000022" class="edge">
<title>Node3&#45;&gt;Node22</title>
<g id="a_edge21_Node000003_Node000022"><a xlink:title=" ">
<path fill="none" stroke="#63b8ff" d="M1911.25,-44.88C1911.25,-36.66 1911.25,-27.68 1911.25,-21.08"/>
<polygon fill="#63b8ff" stroke="#63b8ff" points="1907.75,-44.82 1911.25,-54.82 1914.75,-44.82 1907.75,-44.82"/>
</a>
</g>
</g>
<!-- Node23 -->
<g id="Node000023" class="node">
<title>Node23</title>
<g id="a_Node000023"><a xlink:href="m__fpga__io_8c.html" target="_top" xlink:title=" ">
<polygon fill="white" stroke="#666666" points="2059.88,-20.75 1984.62,-20.75 1984.62,0 2059.88,0 2059.88,-20.75"/>
<text xml:space="preserve" text-anchor="middle" x="2022.25" y="-7.25" font-family="Helvetica,sans-Serif" font-size="10.00">m_fpga_io.c</text>
</a>
</g>
</g>
<!-- Node3&#45;&gt;Node23 -->
<g id="edge22_Node000003_Node000023" class="edge">
<title>Node3&#45;&gt;Node23</title>
<g id="a_edge22_Node000003_Node000023"><a xlink:title=" ">
<path fill="none" stroke="#63b8ff" d="M1941.28,-51.31C1960.76,-41.7 1985.58,-29.46 2002.58,-21.08"/>
<polygon fill="#63b8ff" stroke="#63b8ff" points="1939.87,-48.1 1932.45,-55.67 1942.97,-54.38 1939.87,-48.1"/>
</a>
</g>
</g>
<!-- Node24 -->
<g id="Node000024" class="node">
<title>Node24</title>
<g id="a_Node000024"><a xlink:href="m__int_8c.html" target="_top" xlink:title=" ">
<polygon fill="white" stroke="#666666" points="2130.25,-20.75 2078.25,-20.75 2078.25,0 2130.25,0 2130.25,-20.75"/>
<text xml:space="preserve" text-anchor="middle" x="2104.25" y="-7.25" font-family="Helvetica,sans-Serif" font-size="10.00">m_int.c</text>
</a>
</g>
</g>
<!-- Node3&#45;&gt;Node24 -->
<g id="edge23_Node000003_Node000024" class="edge">
<title>Node3&#45;&gt;Node24</title>
<g id="a_edge23_Node000003_Node000024"><a xlink:title=" ">
<path fill="none" stroke="#63b8ff" d="M1948.72,-55.5C1986.72,-44.72 2044.56,-28.31 2077.95,-18.84"/>
<polygon fill="#63b8ff" stroke="#63b8ff" points="1948.21,-52 1939.54,-58.1 1950.12,-58.74 1948.21,-52"/>
</a>
</g>
</g>
<!-- Node25 -->
<g id="Node000025" class="node">
<title>Node25</title>
<g id="a_Node000025"><a xlink:href="m__lv__log_8c.html" target="_top" xlink:title=" ">
<polygon fill="white" stroke="#666666" points="2216.5,-20.75 2148,-20.75 2148,0 2216.5,0 2216.5,-20.75"/>
<text xml:space="preserve" text-anchor="middle" x="2182.25" y="-7.25" font-family="Helvetica,sans-Serif" font-size="10.00">m_lv_log.c</text>
</a>
</g>
</g>
<!-- Node3&#45;&gt;Node25 -->
<g id="edge24_Node000003_Node000025" class="edge">
<title>Node3&#45;&gt;Node25</title>
<g id="a_edge24_Node000003_Node000025"><a xlink:title=" ">
<path fill="none" stroke="#63b8ff" d="M1949,-58.83C1994.26,-50.04 2072.37,-34.69 2139.25,-20.75 2141.94,-20.19 2144.73,-19.6 2147.53,-19"/>
<polygon fill="#63b8ff" stroke="#63b8ff" points="1948.6,-55.34 1939.44,-60.68 1949.93,-62.22 1948.6,-55.34"/>
</a>
</g>
</g>
<!-- Node26 -->
<g id="Node000026" class="node">
<title>Node26</title>
<g id="a_Node000026"><a xlink:href="m__menu_8c.html" target="_top" xlink:title=" ">
<polygon fill="white" stroke="#666666" points="2301.75,-20.75 2234.75,-20.75 2234.75,0 2301.75,0 2301.75,-20.75"/>
<text xml:space="preserve" text-anchor="middle" x="2268.25" y="-7.25" font-family="Helvetica,sans-Serif" font-size="10.00">m_menu.c</text>
</a>
</g>
</g>
<!-- Node3&#45;&gt;Node26 -->
<g id="edge25_Node000003_Node000026" class="edge">
<title>Node3&#45;&gt;Node26</title>
<g id="a_edge25_Node000003_Node000026"><a xlink:title=" ">
<path fill="none" stroke="#63b8ff" d="M1949.19,-61.53C2008.36,-54.16 2126.12,-38.7 2225.25,-20.75 2228.26,-20.21 2231.37,-19.6 2234.49,-18.97"/>
<polygon fill="#63b8ff" stroke="#63b8ff" points="1948.82,-58.05 1939.32,-62.75 1949.67,-64.99 1948.82,-58.05"/>
</a>
</g>
</g>
<!-- Node27 -->
<g id="Node000027" class="node">
<title>Node27</title>
<g id="a_Node000027"><a xlink:href="m__page__id_8c.html" target="_top" xlink:title=" ">
<polygon fill="white" stroke="#666666" points="2397,-20.75 2319.5,-20.75 2319.5,0 2397,0 2397,-20.75"/>
<text xml:space="preserve" text-anchor="middle" x="2358.25" y="-7.25" font-family="Helvetica,sans-Serif" font-size="10.00">m_page_id.c</text>
</a>
</g>
</g>
<!-- Node3&#45;&gt;Node27 -->
<g id="edge26_Node000003_Node000027" class="edge">
<title>Node3&#45;&gt;Node27</title>
<g id="a_edge26_Node000003_Node000027"><a xlink:title=" ">
<path fill="none" stroke="#63b8ff" d="M1949.09,-62.9C2020.25,-56.6 2178.79,-41.44 2311.25,-20.75 2313.8,-20.35 2316.42,-19.91 2319.06,-19.45"/>
<polygon fill="#63b8ff" stroke="#63b8ff" points="1949.2,-59.38 1939.54,-63.74 1949.81,-66.35 1949.2,-59.38"/>
</a>
</g>
</g>
<!-- Node28 -->
<g id="Node000028" class="node">
<title>Node28</title>
<g id="a_Node000028"><a xlink:href="m__param__update_8c.html" target="_top" xlink:title=" ">
<polygon fill="white" stroke="#666666" points="2525.12,-20.75 2415.38,-20.75 2415.38,0 2525.12,0 2525.12,-20.75"/>
<text xml:space="preserve" text-anchor="middle" x="2470.25" y="-7.25" font-family="Helvetica,sans-Serif" font-size="10.00">m_param_update.c</text>
</a>
</g>
</g>
<!-- Node3&#45;&gt;Node28 -->
<g id="edge27_Node000003_Node000028" class="edge">
<title>Node3&#45;&gt;Node28</title>
<g id="a_edge27_Node000003_Node000028"><a xlink:title=" ">
<path fill="none" stroke="#63b8ff" d="M1949.22,-63.35C2032.25,-57.12 2236.16,-40.99 2406.25,-20.75 2409.15,-20.41 2412.12,-20.03 2415.12,-19.64"/>
<polygon fill="#63b8ff" stroke="#63b8ff" points="1949.09,-59.85 1939.37,-64.08 1949.61,-66.83 1949.09,-59.85"/>
</a>
</g>
</g>
<!-- Node29 -->
<g id="Node000029" class="node">
<title>Node29</title>
<g id="a_Node000029"><a xlink:href="m__parameter_8c.html" target="_top" xlink:title=" ">
<polygon fill="white" stroke="#666666" points="2633.38,-20.75 2543.12,-20.75 2543.12,0 2633.38,0 2633.38,-20.75"/>
<text xml:space="preserve" text-anchor="middle" x="2588.25" y="-7.25" font-family="Helvetica,sans-Serif" font-size="10.00">m_parameter.c</text>
</a>
</g>
</g>
<!-- Node3&#45;&gt;Node29 -->
<g id="edge28_Node000003_Node000029" class="edge">
<title>Node3&#45;&gt;Node29</title>
<g id="a_edge28_Node000003_Node000029"><a xlink:title=" ">
<path fill="none" stroke="#63b8ff" d="M1949.37,-64.67C2046.96,-60.65 2313.65,-47.87 2534.25,-20.75 2536.99,-20.41 2539.8,-20.03 2542.63,-19.62"/>
<polygon fill="#63b8ff" stroke="#63b8ff" points="1949.42,-61.16 1939.57,-65.06 1949.71,-68.16 1949.42,-61.16"/>
</a>
</g>
</g>
<!-- Node30 -->
<g id="Node000030" class="node">
<title>Node30</title>
<g id="a_Node000030"><a xlink:href="m__parameter__widget_8c.html" target="_top" xlink:title=" ">
<polygon fill="white" stroke="#666666" points="2779.5,-20.75 2651,-20.75 2651,0 2779.5,0 2779.5,-20.75"/>
<text xml:space="preserve" text-anchor="middle" x="2715.25" y="-7.25" font-family="Helvetica,sans-Serif" font-size="10.00">m_parameter_widget.c</text>
</a>
</g>
</g>
<!-- Node3&#45;&gt;Node30 -->
<g id="edge29_Node000003_Node000030" class="edge">
<title>Node3&#45;&gt;Node30</title>
<g id="a_edge29_Node000003_Node000030"><a xlink:title=" ">
<path fill="none" stroke="#63b8ff" d="M1949.12,-64.65C2057.4,-60.26 2377.49,-45.94 2642.25,-20.75 2645.05,-20.48 2647.91,-20.19 2650.79,-19.89"/>
<polygon fill="#63b8ff" stroke="#63b8ff" points="1949.22,-61.15 1939.36,-65.05 1949.5,-68.14 1949.22,-61.15"/>
</a>
</g>
</g>
<!-- Node31 -->
<g id="Node000031" class="node">
<title>Node31</title>
<g id="a_Node000031"><a xlink:href="m__pipeline_8c.html" target="_top" xlink:title=" ">
<polygon fill="white" stroke="#666666" points="2875.38,-20.75 2797.12,-20.75 2797.12,0 2875.38,0 2875.38,-20.75"/>
<text xml:space="preserve" text-anchor="middle" x="2836.25" y="-7.25" font-family="Helvetica,sans-Serif" font-size="10.00">m_pipeline.c</text>
</a>
</g>
</g>
<!-- Node3&#45;&gt;Node31 -->
<g id="edge30_Node000003_Node000031" class="edge">
<title>Node3&#45;&gt;Node31</title>
<g id="a_edge30_Node000003_Node000031"><a xlink:title=" ">
<path fill="none" stroke="#63b8ff" d="M1949.21,-66.07C2071.39,-65.49 2465.34,-60.44 2788.25,-20.75 2791.03,-20.41 2793.89,-20 2796.77,-19.54"/>
<polygon fill="#63b8ff" stroke="#63b8ff" points="1949.42,-62.57 1939.43,-66.11 1949.44,-69.57 1949.42,-62.57"/>
</a>
</g>
</g>
<!-- Node32 -->
<g id="Node000032" class="node">
<title>Node32</title>
<g id="a_Node000032"><a xlink:href="m__printf_8c.html" target="_top" xlink:title=" ">
<polygon fill="white" stroke="#666666" points="2958.62,-20.75 2893.88,-20.75 2893.88,0 2958.62,0 2958.62,-20.75"/>
<text xml:space="preserve" text-anchor="middle" x="2926.25" y="-7.25" font-family="Helvetica,sans-Serif" font-size="10.00">m_printf.c</text>
</a>
</g>
</g>
<!-- Node3&#45;&gt;Node32 -->
<g id="edge31_Node000003_Node000032" class="edge">
<title>Node3&#45;&gt;Node32</title>
<g id="a_edge31_Node000003_Node000032"><a xlink:title=" ">
<path fill="none" stroke="#63b8ff" d="M1949.43,-65.23C2105.91,-61.42 2698.64,-45.6 2884.25,-20.75 2887.36,-20.33 2890.58,-19.8 2893.79,-19.2"/>
<polygon fill="#63b8ff" stroke="#63b8ff" points="1949.53,-61.72 1939.62,-65.47 1949.7,-68.72 1949.53,-61.72"/>
</a>
</g>
</g>
<!-- Node33 -->
<g id="Node000033" class="node">
<title>Node33</title>
<g id="a_Node000033"><a xlink:href="m__profile_8c.html" target="_top" xlink:title=" ">
<polygon fill="white" stroke="#666666" points="3047.62,-20.75 2976.88,-20.75 2976.88,0 3047.62,0 3047.62,-20.75"/>
<text xml:space="preserve" text-anchor="middle" x="3012.25" y="-7.25" font-family="Helvetica,sans-Serif" font-size="10.00">m_profile.c</text>
</a>
</g>
</g>
<!-- Node3&#45;&gt;Node33 -->
<g id="edge32_Node000003_Node000033" class="edge">
<title>Node3&#45;&gt;Node33</title>
<g id="a_edge32_Node000003_Node000033"><a xlink:title=" ">
<path fill="none" stroke="#63b8ff" d="M1949.42,-65.32C2114.07,-61.7 2764.29,-46.08 2967.25,-20.75 2970.26,-20.37 2973.37,-19.9 2976.48,-19.37"/>
<polygon fill="#63b8ff" stroke="#63b8ff" points="1949.42,-61.82 1939.5,-65.53 1949.57,-68.81 1949.42,-61.82"/>
</a>
</g>
</g>
<!-- Node34 -->
<g id="Node000034" class="node">
<title>Node34</title>
<g id="a_Node000034"><a xlink:href="m__profile__settings_8c.html" target="_top" xlink:title=" ">
<polygon fill="white" stroke="#666666" points="3180.75,-20.75 3065.75,-20.75 3065.75,0 3180.75,0 3180.75,-20.75"/>
<text xml:space="preserve" text-anchor="middle" x="3123.25" y="-7.25" font-family="Helvetica,sans-Serif" font-size="10.00">m_profile_settings.c</text>
</a>
</g>
</g>
<!-- Node3&#45;&gt;Node34 -->
<g id="edge33_Node000003_Node000034" class="edge">
<title>Node3&#45;&gt;Node34</title>
<g id="a_edge33_Node000003_Node000034"><a xlink:title=" ">
<path fill="none" stroke="#63b8ff" d="M1949.2,-65.99C2093.61,-65.18 2622.61,-59.58 3056.25,-20.75 3059.29,-20.48 3062.41,-20.16 3065.55,-19.82"/>
<polygon fill="#63b8ff" stroke="#63b8ff" points="1949.44,-62.49 1939.45,-66.04 1949.47,-69.49 1949.44,-62.49"/>
</a>
</g>
</g>
<!-- Node35 -->
<g id="Node000035" class="node">
<title>Node35</title>
<g id="a_Node000035"><a xlink:href="m__profile__view_8c.html" target="_top" xlink:title=" ">
<polygon fill="white" stroke="#666666" points="3297.5,-20.75 3199,-20.75 3199,0 3297.5,0 3297.5,-20.75"/>
<text xml:space="preserve" text-anchor="middle" x="3248.25" y="-7.25" font-family="Helvetica,sans-Serif" font-size="10.00">m_profile_view.c</text>
</a>
</g>
</g>
<!-- Node3&#45;&gt;Node35 -->
<g id="edge34_Node000003_Node000035" class="edge">
<title>Node3&#45;&gt;Node35</title>
<g id="a_edge34_Node000003_Node000035"><a xlink:title=" ">
<path fill="none" stroke="#63b8ff" d="M1949.05,-66.5C2103.48,-67.68 2701.58,-68.72 3190.25,-20.75 3192.99,-20.48 3195.8,-20.16 3198.63,-19.81"/>
<polygon fill="#63b8ff" stroke="#63b8ff" points="1949.43,-63.01 1939.4,-66.42 1949.37,-70.01 1949.43,-63.01"/>
</a>
</g>
</g>
<!-- Node36 -->
<g id="Node000036" class="node">
<title>Node36</title>
<g id="a_Node000036"><a xlink:href="m__reg__format_8c.html" target="_top" xlink:title=" ">
<polygon fill="white" stroke="#666666" points="3408.88,-20.75 3315.62,-20.75 3315.62,0 3408.88,0 3408.88,-20.75"/>
<text xml:space="preserve" text-anchor="middle" x="3362.25" y="-7.25" font-family="Helvetica,sans-Serif" font-size="10.00">m_reg_format.c</text>
</a>
</g>
</g>
<!-- Node3&#45;&gt;Node36 -->
<g id="edge35_Node000003_Node000036" class="edge">
<title>Node3&#45;&gt;Node36</title>
<g id="a_edge35_Node000003_Node000036"><a xlink:title=" ">
<path fill="none" stroke="#63b8ff" d="M1949.42,-65.57C2144.55,-62.64 3032.13,-48.03 3306.25,-20.75 3309.19,-20.46 3312.21,-20.1 3315.26,-19.71"/>
<polygon fill="#63b8ff" stroke="#63b8ff" points="1949.54,-62.07 1939.6,-65.72 1949.65,-69.07 1949.54,-62.07"/>
</a>
</g>
</g>
<!-- Node37 -->
<g id="Node000037" class="node">
<title>Node37</title>
<g id="a_Node000037"><a xlink:href="m__representation_8c.html" target="_top" xlink:title=" ">
<polygon fill="white" stroke="#666666" points="3537.5,-20.75 3427,-20.75 3427,0 3537.5,0 3537.5,-20.75"/>
<text xml:space="preserve" text-anchor="middle" x="3482.25" y="-7.25" font-family="Helvetica,sans-Serif" font-size="10.00">m_representation.c</text>
</a>
</g>
</g>
<!-- Node3&#45;&gt;Node37 -->
<g id="edge36_Node000003_Node000037" class="edge">
<title>Node3&#45;&gt;Node37</title>
<g id="a_edge36_Node000003_Node000037"><a xlink:title=" ">
<path fill="none" stroke="#63b8ff" d="M1949.18,-65.58C2153.02,-62.54 3120.26,-46.97 3418.25,-20.75 3421.05,-20.5 3423.91,-20.22 3426.79,-19.9"/>
<polygon fill="#63b8ff" stroke="#63b8ff" points="1949.38,-62.07 1939.43,-65.72 1949.48,-69.07 1949.38,-62.07"/>
</a>
</g>
</g>
<!-- Node38 -->
<g id="Node000038" class="node">
<title>Node38</title>
<g id="a_Node000038"><a xlink:href="m__resource_8c.html" target="_top" xlink:title=" ">
<polygon fill="white" stroke="#666666" points="3636.88,-20.75 3555.62,-20.75 3555.62,0 3636.88,0 3636.88,-20.75"/>
<text xml:space="preserve" text-anchor="middle" x="3596.25" y="-7.25" font-family="Helvetica,sans-Serif" font-size="10.00">m_resource.c</text>
</a>
</g>
</g>
<!-- Node3&#45;&gt;Node38 -->
<g id="edge37_Node000003_Node000038" class="edge">
<title>Node3&#45;&gt;Node38</title>
<g id="a_edge37_Node000003_Node000038"><a xlink:title=" ">
<path fill="none" stroke="#63b8ff" d="M1949.32,-65.88C2163.69,-64.4 3222.03,-55.43 3546.25,-20.75 3549.15,-20.44 3552.13,-20.05 3555.13,-19.62"/>
<polygon fill="#63b8ff" stroke="#63b8ff" points="1949.57,-62.38 1939.59,-65.95 1949.62,-69.38 1949.57,-62.38"/>
</a>
</g>
</g>
<!-- Node39 -->
<g id="Node000039" class="node">
<title>Node39</title>
<g id="a_Node000039"><a xlink:href="m__sd_8c.html" target="_top" xlink:title=" ">
<polygon fill="white" stroke="#666666" points="3705.5,-20.75 3655,-20.75 3655,0 3705.5,0 3705.5,-20.75"/>
<text xml:space="preserve" text-anchor="middle" x="3680.25" y="-7.25" font-family="Helvetica,sans-Serif" font-size="10.00">m_sd.c</text>
</a>
</g>
</g>
<!-- Node3&#45;&gt;Node39 -->
<g id="edge38_Node000003_Node000039" class="edge">
<title>Node3&#45;&gt;Node39</title>
<g id="a_edge38_Node000003_Node000039"><a xlink:title=" ">
<path fill="none" stroke="#63b8ff" d="M1949.21,-66.38C2171.16,-67.71 3302.74,-71.82 3646.25,-20.75 3649.04,-20.34 3651.92,-19.77 3654.77,-19.11"/>
<polygon fill="#63b8ff" stroke="#63b8ff" points="1949.43,-62.89 1939.41,-66.32 1949.39,-69.89 1949.43,-62.89"/>
</a>
</g>
</g>
<!-- Node40 -->
<g id="Node000040" class="node">
<title>Node40</title>
<g id="a_Node000040"><a xlink:href="m__sequence_8c.html" target="_top" xlink:title=" ">
<polygon fill="white" stroke="#666666" points="3809.12,-20.75 3723.38,-20.75 3723.38,0 3809.12,0 3809.12,-20.75"/>
<text xml:space="preserve" text-anchor="middle" x="3766.25" y="-7.25" font-family="Helvetica,sans-Serif" font-size="10.00">m_sequence.c</text>
</a>
</g>
</g>
<!-- Node3&#45;&gt;Node40 -->
<g id="edge39_Node000003_Node000040" class="edge">
<title>Node3&#45;&gt;Node40</title>
<g id="a_edge39_Node000003_Node000040"><a xlink:title=" ">
<path fill="none" stroke="#63b8ff" d="M1949.21,-65.96C2176.02,-64.87 3354.48,-57.49 3714.25,-20.75 3717.08,-20.46 3719.99,-20.1 3722.91,-19.7"/>
<polygon fill="#63b8ff" stroke="#63b8ff" points="1949.45,-62.46 1939.47,-66.01 1949.49,-69.46 1949.45,-62.46"/>
</a>
</g>
</g>
</g>
</svg>
