<?xml version="1.0" encoding="UTF-8" standalone="no"?>
<!DOCTYPE svg PUBLIC "-//W3C//DTD SVG 1.1//EN"
 "http://www.w3.org/Graphics/SVG/1.1/DTD/svg11.dtd">
<!-- Generated by graphviz version 13.1.2 (20250808.2320)
 -->
<!-- Title: m_effect_create_scope Pages: 1 -->
<!--zoomable 152 -->

<svg id="main" version="1.1" xmlns="http://www.w3.org/2000/svg" xmlns:xlink="http://www.w3.org/1999/xlink" xml:space="preserve" onload="init(evt)">

<style type="text/css"><![CDATA[
.node, .edge {opacity: 0.7;}
.node.selected, .edge.selected {opacity: 1;}
.edge:hover path { stroke: red; }
.edge:hover polygon { stroke: red; fill: red; }
]]></style>

<defs>
  <circle id="rim" cx="0" cy="0" r="7"/>
  <circle id="rim2" cx="0" cy="0" r="3.5"/>
  <g id="zoomPlus">
    <use xlink:href="#rim" fill="#404040"><set attributeName="fill" to="#808080" begin="zoomplus.mouseover" end="zoomplus.mouseout"/></use>
    <path d="M-4,0h8M0,-4v8" fill="none" stroke="white" stroke-width="1.5" pointer-events="none"/>
  </g>
  <g id="zoomMin">
    <use xlink:href="#rim" fill="#404040"><set attributeName="fill" to="#808080" begin="zoomminus.mouseover" end="zoomminus.mouseout"/></use>
    <path d="M-4,0h8" fill="none" stroke="white" stroke-width="1.5" pointer-events="none"/>
  </g>
  <g id="arrowUp" transform="translate(30 24)">
    <use xlink:href="#rim"/>
    <path pointer-events="none" fill="none" stroke="white" stroke-width="1.5" d="M0,-3.0v7 M-2.5,-0.5L0,-3.0L2.5,-0.5"/>
  </g>
  <g id="arrowRight" transform="rotate(90) translate(36 -43)">
    <use xlink:href="#rim"/>
    <path pointer-events="none" fill="none" stroke="white" stroke-width="1.5" d="M0,-3.0v7 M-2.5,-0.5L0,-3.0L2.5,-0.5"/>
  </g>
  <g id="arrowDown" transform="rotate(180) translate(-30 -48)">
    <use xlink:href="#rim"/>
    <path pointer-events="none" fill="none" stroke="white" stroke-width="1.5" d="M0,-3.0v7 M-2.5,-0.5L0,-3.0L2.5,-0.5"/>
  </g>
  <g id="arrowLeft" transform="rotate(270) translate(-36 17)">
    <use xlink:href="#rim"/>
    <path pointer-events="none" fill="none" stroke="white" stroke-width="1.5" d="M0,-3.0v7 M-2.5,-0.5L0,-3.0L2.5,-0.5"/>
  </g>
  <g id="resetDef">
    <use xlink:href="#rim2" fill="#404040"><set attributeName="fill" to="#808080" begin="reset.mouseover" end="reset.mouseout"/></use>
  </g>
</defs>
<script type="application/ecmascript">
var viewWidth = 528;
var viewHeight = 152;
var sectionId = 'dynsection-16';
</script>
<script type="application/ecmascript" xlink:href="svg.min.js"/>
<svg id="graph" class="graph">
<g id="viewport">
<title>m_effect_create_scope</title>
<!-- Node1 -->
<g id="Node000001" class="node">
<title>Node1</title>
<g id="a_Node000001"><a xlink:title=" ">
<polygon fill="#999999" stroke="#666666" points="129.25,-78.75 0,-78.75 0,-58 129.25,-58 129.25,-78.75"/>
<text xml:space="preserve" text-anchor="middle" x="64.62" y="-65.25" font-family="Helvetica,sans-Serif" font-size="10.00">m_effect_create_scope</text>
</a>
</g>
</g>
<!-- Node2 -->
<g id="Node000002" class="node">
<title>Node2</title>
<g id="a_Node000002"><a xlink:href="m__expr__scope_8c.html#af38d532afecd60a49b588a06bfa77af1" target="_top" xlink:title=" ">
<polygon fill="white" stroke="#666666" points="308,-140.75 171.25,-140.75 171.25,-120 308,-120 308,-140.75"/>
<text xml:space="preserve" text-anchor="middle" x="239.62" y="-127.25" font-family="Helvetica,sans-Serif" font-size="10.00">m_expr_scope_add_expr</text>
</a>
</g>
</g>
<!-- Node1&#45;&gt;Node2 -->
<g id="edge1_Node000001_Node000002" class="edge">
<title>Node1&#45;&gt;Node2</title>
<g id="a_edge1_Node000001_Node000002"><a xlink:title=" ">
<path fill="none" stroke="#63b8ff" d="M91.66,-79.14C111.65,-87.26 140.02,-98.49 165.25,-107.38 173.66,-110.34 182.68,-113.32 191.41,-116.11"/>
<polygon fill="#63b8ff" stroke="#63b8ff" points="190.23,-119.4 200.82,-119.07 192.33,-112.73 190.23,-119.4"/>
</a>
</g>
</g>
<!-- Node4 -->
<g id="Node000004" class="node">
<title>Node4</title>
<g id="a_Node000004"><a xlink:href="m__expr__scope_8c.html#a04b623c9d456c6169bc7cfb1c9ea006b" target="_top" xlink:title=" ">
<polygon fill="white" stroke="#666666" points="312.88,-98.75 166.38,-98.75 166.38,-78 312.88,-78 312.88,-98.75"/>
<text xml:space="preserve" text-anchor="middle" x="239.62" y="-85.25" font-family="Helvetica,sans-Serif" font-size="10.00">m_expr_scope_add_param</text>
</a>
</g>
</g>
<!-- Node1&#45;&gt;Node4 -->
<g id="edge3_Node000001_Node000004" class="edge">
<title>Node1&#45;&gt;Node4</title>
<g id="a_edge3_Node000001_Node000004"><a xlink:title=" ">
<path fill="none" stroke="#63b8ff" d="M129.55,-75.77C137.69,-76.71 146.12,-77.68 154.51,-78.65"/>
<polygon fill="#63b8ff" stroke="#63b8ff" points="154.08,-82.12 164.41,-79.8 154.88,-75.17 154.08,-82.12"/>
</a>
</g>
</g>
<!-- Node6 -->
<g id="Node000006" class="node">
<title>Node6</title>
<g id="a_Node000006"><a xlink:href="m__expr__scope_8c.html#a667d09eea32f47cb3efd71064dec1e01" target="_top" xlink:title=" ">
<polygon fill="white" stroke="#666666" points="314,-59.75 165.25,-59.75 165.25,-39 314,-39 314,-59.75"/>
<text xml:space="preserve" text-anchor="middle" x="239.62" y="-46.25" font-family="Helvetica,sans-Serif" font-size="10.00">m_expr_scope_add_setting</text>
</a>
</g>
</g>
<!-- Node1&#45;&gt;Node6 -->
<g id="edge5_Node000001_Node000006" class="edge">
<title>Node1&#45;&gt;Node6</title>
<g id="a_edge5_Node000001_Node000006"><a xlink:title=" ">
<path fill="none" stroke="#63b8ff" d="M129.55,-61.35C137.4,-60.49 145.52,-59.6 153.62,-58.71"/>
<polygon fill="#63b8ff" stroke="#63b8ff" points="153.97,-62.19 163.53,-57.62 153.2,-55.24 153.97,-62.19"/>
</a>
</g>
</g>
<!-- Node8 -->
<g id="Node000008" class="node">
<title>Node8</title>
<g id="a_Node000008"><a xlink:href="m__expr__scope_8c.html#ad8566a752acaf0880c5e30608e81e483" target="_top" xlink:title=" ">
<polygon fill="white" stroke="#666666" points="295.62,-20.75 183.62,-20.75 183.62,0 295.62,0 295.62,-20.75"/>
<text xml:space="preserve" text-anchor="middle" x="239.62" y="-7.25" font-family="Helvetica,sans-Serif" font-size="10.00">m_new_expr_scope</text>
</a>
</g>
</g>
<!-- Node1&#45;&gt;Node8 -->
<g id="edge7_Node000001_Node000008" class="edge">
<title>Node1&#45;&gt;Node8</title>
<g id="a_edge7_Node000001_Node000008"><a xlink:title=" ">
<path fill="none" stroke="#63b8ff" d="M91.59,-57.66C111.55,-49.63 139.91,-38.64 165.25,-30.38 171.76,-28.25 178.64,-26.17 185.48,-24.2"/>
<polygon fill="#63b8ff" stroke="#63b8ff" points="185.99,-27.69 194.66,-21.61 184.09,-20.95 185.99,-27.69"/>
</a>
</g>
</g>
<!-- Node3 -->
<g id="Node000003" class="node">
<title>Node3</title>
<g id="a_Node000003"><a xlink:href="m__expr__scope_8c.html#a3cc20416b51a8b8c455e165797bf6db4" target="_top" xlink:title=" ">
<polygon fill="white" stroke="#666666" points="519.75,-143.75 350,-143.75 350,-123 519.75,-123 519.75,-143.75"/>
<text xml:space="preserve" text-anchor="middle" x="434.88" y="-130.25" font-family="Helvetica,sans-Serif" font-size="10.00">m_new_expr_scope_entry_expr</text>
</a>
</g>
</g>
<!-- Node2&#45;&gt;Node3 -->
<g id="edge2_Node000002_Node000003" class="edge">
<title>Node2&#45;&gt;Node3</title>
<g id="a_edge2_Node000002_Node000003"><a xlink:title=" ">
<path fill="none" stroke="#63b8ff" d="M308.49,-131.43C318.13,-131.58 328.19,-131.73 338.23,-131.89"/>
<polygon fill="#63b8ff" stroke="#63b8ff" points="337.98,-135.39 348.03,-132.04 338.09,-128.39 337.98,-135.39"/>
</a>
</g>
</g>
<!-- Node5 -->
<g id="Node000005" class="node">
<title>Node5</title>
<g id="a_Node000005"><a xlink:href="m__expr__scope_8c.html#aa6fe895e7aa5b05020ffa0c456824e2d" target="_top" xlink:title=" ">
<polygon fill="white" stroke="#666666" points="506.25,-105.12 363.5,-105.12 363.5,-71.62 506.25,-71.62 506.25,-105.12"/>
<text xml:space="preserve" text-anchor="start" x="371.5" y="-91.62" font-family="Helvetica,sans-Serif" font-size="10.00">m_new_expr_scope_entry</text>
<text xml:space="preserve" text-anchor="middle" x="434.88" y="-78.88" font-family="Helvetica,sans-Serif" font-size="10.00">_param</text>
</a>
</g>
</g>
<!-- Node4&#45;&gt;Node5 -->
<g id="edge4_Node000004_Node000005" class="edge">
<title>Node4&#45;&gt;Node5</title>
<g id="a_edge4_Node000004_Node000005"><a xlink:title=" ">
<path fill="none" stroke="#63b8ff" d="M313.13,-88.38C325.81,-88.38 339.07,-88.38 351.98,-88.38"/>
<polygon fill="#63b8ff" stroke="#63b8ff" points="351.69,-91.88 361.69,-88.38 351.69,-84.88 351.69,-91.88"/>
</a>
</g>
</g>
<!-- Node7 -->
<g id="Node000007" class="node">
<title>Node7</title>
<g id="a_Node000007"><a xlink:href="m__expr__scope_8c.html#a819a3e143157921a24e4ba11a281ff9e" target="_top" xlink:title=" ">
<polygon fill="white" stroke="#666666" points="506.25,-53.12 363.5,-53.12 363.5,-19.62 506.25,-19.62 506.25,-53.12"/>
<text xml:space="preserve" text-anchor="start" x="371.5" y="-39.62" font-family="Helvetica,sans-Serif" font-size="10.00">m_new_expr_scope_entry</text>
<text xml:space="preserve" text-anchor="middle" x="434.88" y="-26.88" font-family="Helvetica,sans-Serif" font-size="10.00">_setting</text>
</a>
</g>
</g>
<!-- Node6&#45;&gt;Node7 -->
<g id="edge6_Node000006_Node000007" class="edge">
<title>Node6&#45;&gt;Node7</title>
<g id="a_edge6_Node000006_Node000007"><a xlink:title=" ">
<path fill="none" stroke="#63b8ff" d="M314.24,-44.42C326.49,-43.6 339.26,-42.74 351.71,-41.9"/>
<polygon fill="#63b8ff" stroke="#63b8ff" points="351.77,-45.41 361.51,-41.24 351.3,-38.42 351.77,-45.41"/>
</a>
</g>
</g>
</g>
</svg>

<g id="navigator" transform="translate(0 0)" fill="#404254">
  <rect fill="#f2f5e9" fill-opacity="0.5" stroke="#606060" stroke-width=".5" x="0" y="0" width="60" height="60"/>
  <use id="zoomplus" xlink:href="#zoomPlus" x="17" y="9" onmousedown="handleZoom(evt,'in')"/>
  <use id="zoomminus" xlink:href="#zoomMin" x="42" y="9" onmousedown="handleZoom(evt,'out')"/>
  <use id="reset" xlink:href="#resetDef" x="30" y="36" onmousedown="handleReset()"/>
   <use id="arrowup" xlink:href="#arrowUp" x="0" y="0" onmousedown="handlePan(0,-1)"/>
  <use id="arrowright" xlink:href="#arrowRight" x="0" y="0" onmousedown="handlePan(1,0)"/>
  <use id="arrowdown" xlink:href="#arrowDown" x="0" y="0" onmousedown="handlePan(0,1)"/>
  <use id="arrowleft" xlink:href="#arrowLeft" x="0" y="0" onmousedown="handlePan(-1,0)"/>
</g>
<svg viewBox="0 0 15 15" width="100%" height="30px" preserveAspectRatio="xMaxYMin meet">
 <g id="arrow_out" transform="scale(0.3 0.3)">
  <a xlink:href="m__transformer_8h_a3bbae12e774f7708567b75d2dcb93260_cgraph_org.svg" target="_base">
   <rect id="button" ry="5" rx="5" y="6" x="6" height="38" width="38"
        fill="#f2f5e9" fill-opacity="0.5" stroke="#606060" stroke-width="1.0"/>
   <path id="arrow"
     d="M 11.500037,31.436501 C 11.940474,20.09759 22.043105,11.32322 32.158766,21.979434 L 37.068811,17.246167 C 37.068811,17.246167 37.088388,32 37.088388,32 L 22.160133,31.978069 C 22.160133,31.978069 26.997745,27.140456 26.997745,27.140456 C 18.528582,18.264221 13.291696,25.230495 11.500037,31.436501 z"
     style="fill:#404040;"/>
  </a>
 </g>
</svg>

<style type='text/css'>
<![CDATA[
[data-mouse-over-selected='false'] { opacity: 0.7; }
[data-mouse-over-selected='true']  { opacity: 1.0; }
]]>
</style>
<script type="application/ecmascript"><![CDATA[
document.addEventListener('DOMContentLoaded', (event) => {
  highlightEdges();
  highlightAdjacentNodes();
});
]]></script>
</svg>
