<?xml version="1.0" encoding="UTF-8" standalone="no"?>
<!DOCTYPE svg PUBLIC "-//W3C//DTD SVG 1.1//EN"
 "http://www.w3.org/Graphics/SVG/1.1/DTD/svg11.dtd">
<!-- Generated by graphviz version 13.1.2 (20250808.2320)
 -->
<!-- Title: free_transformer Pages: 1 -->
<svg width="698pt" height="119pt"
 viewBox="0.00 0.00 698.00 119.00" xmlns="http://www.w3.org/2000/svg" xmlns:xlink="http://www.w3.org/1999/xlink">
<g id="graph0" class="graph" transform="scale(1 1) rotate(0) translate(4 115.12)">
<title>free_transformer</title>
<!-- Node1 -->
<g id="Node000001" class="node">
<title>Node1</title>
<g id="a_Node000001"><a xlink:title=" ">
<polygon fill="#999999" stroke="#666666" points="689.5,-91.12 591,-91.12 591,-70.38 689.5,-70.38 689.5,-91.12"/>
<text xml:space="preserve" text-anchor="middle" x="640.25" y="-77.62" font-family="Helvetica,sans-Serif" font-size="10.00">free_transformer</text>
</a>
</g>
</g>
<!-- Node2 -->
<g id="Node000002" class="node">
<title>Node2</title>
<g id="a_Node000002"><a xlink:href="m__pipeline_8c.html#a7290514b79b5386d9e30893c685c5018" target="_top" xlink:title=" ">
<polygon fill="white" stroke="#666666" points="505.12,-111.12 429.12,-111.12 429.12,-90.38 505.12,-90.38 505.12,-111.12"/>
<text xml:space="preserve" text-anchor="middle" x="467.12" y="-97.62" font-family="Helvetica,sans-Serif" font-size="10.00">gut_pipeline</text>
</a>
</g>
</g>
<!-- Node1&#45;&gt;Node2 -->
<g id="edge1_Node000001_Node000002" class="edge">
<title>Node1&#45;&gt;Node2</title>
<g id="a_edge1_Node000001_Node000002"><a xlink:title=" ">
<path fill="none" stroke="#63b8ff" d="M579.26,-87.76C554.67,-90.63 526.98,-93.87 505.4,-96.39"/>
<polygon fill="#63b8ff" stroke="#63b8ff" points="579.64,-91.24 589.17,-86.6 578.83,-84.29 579.64,-91.24"/>
</a>
</g>
</g>
<!-- Node30 -->
<g id="Node000030" class="node">
<title>Node30</title>
<g id="a_Node000030"><a xlink:href="m__pipeline_8c.html#ab8ff3d49b9ce4a9cb54f19666b7ad17b" target="_top" xlink:title=" ">
<polygon fill="white" stroke="#666666" points="555,-72.12 379.25,-72.12 379.25,-51.38 555,-51.38 555,-72.12"/>
<text xml:space="preserve" text-anchor="middle" x="467.12" y="-58.62" font-family="Helvetica,sans-Serif" font-size="10.00">m_pipeline_remove_transformer</text>
</a>
</g>
</g>
<!-- Node1&#45;&gt;Node30 -->
<g id="edge4_Node000001_Node000030" class="edge">
<title>Node1&#45;&gt;Node30</title>
<g id="a_edge4_Node000001_Node000030"><a xlink:title=" ">
<path fill="none" stroke="#63b8ff" d="M579.48,-74.11C571.66,-73.25 563.53,-72.34 555.38,-71.44"/>
<polygon fill="#63b8ff" stroke="#63b8ff" points="578.84,-77.56 589.17,-75.19 579.61,-70.61 578.84,-77.56"/>
</a>
</g>
</g>
<!-- Node3 -->
<g id="Node000003" class="node">
<title>Node3</title>
<g id="a_Node000003"><a xlink:href="m__profile_8c.html#accc7093440aeddb4d1ba24e393451061" target="_top" xlink:title=" ">
<polygon fill="white" stroke="#666666" points="293.38,-111.12 224.88,-111.12 224.88,-90.38 293.38,-90.38 293.38,-111.12"/>
<text xml:space="preserve" text-anchor="middle" x="259.12" y="-97.62" font-family="Helvetica,sans-Serif" font-size="10.00">gut_profile</text>
</a>
</g>
</g>
<!-- Node2&#45;&gt;Node3 -->
<g id="edge2_Node000002_Node000003" class="edge">
<title>Node2&#45;&gt;Node3</title>
<g id="a_edge2_Node000002_Node000003"><a xlink:title=" ">
<path fill="none" stroke="#63b8ff" d="M417.48,-100.75C379.37,-100.75 327.35,-100.75 293.74,-100.75"/>
<polygon fill="#63b8ff" stroke="#63b8ff" points="417.31,-104.25 427.31,-100.75 417.31,-97.25 417.31,-104.25"/>
</a>
</g>
</g>
<!-- Node4 -->
<g id="Node000004" class="node">
<title>Node4</title>
<g id="a_Node000004"><a xlink:href="m__profile_8c.html#a924661c699938ec0a5887d77760265e8" target="_top" xlink:title=" ">
<polygon fill="#fff0f0" stroke="red" points="105.62,-111.12 33.38,-111.12 33.38,-90.38 105.62,-90.38 105.62,-111.12"/>
<text xml:space="preserve" text-anchor="middle" x="69.5" y="-97.62" font-family="Helvetica,sans-Serif" font-size="10.00">free_profile</text>
</a>
</g>
</g>
<!-- Node3&#45;&gt;Node4 -->
<g id="edge3_Node000003_Node000004" class="edge">
<title>Node3&#45;&gt;Node4</title>
<g id="a_edge3_Node000003_Node000004"><a xlink:title=" ">
<path fill="none" stroke="#63b8ff" d="M213.46,-100.75C180.58,-100.75 136.47,-100.75 105.99,-100.75"/>
<polygon fill="#63b8ff" stroke="#63b8ff" points="213.07,-104.25 223.07,-100.75 213.07,-97.25 213.07,-104.25"/>
</a>
</g>
</g>
<!-- Node31 -->
<g id="Node000031" class="node">
<title>Node31</title>
<g id="a_Node000031"><a xlink:href="m__profile_8c.html#a7c9a8df3818c3246c92e00a9f8e9385f" target="_top" xlink:title=" ">
<polygon fill="white" stroke="#666666" points="343.25,-72.12 175,-72.12 175,-51.38 343.25,-51.38 343.25,-72.12"/>
<text xml:space="preserve" text-anchor="middle" x="259.12" y="-58.62" font-family="Helvetica,sans-Serif" font-size="10.00">m_profile_remove_transformer</text>
</a>
</g>
</g>
<!-- Node30&#45;&gt;Node31 -->
<g id="edge5_Node000030_Node000031" class="edge">
<title>Node30&#45;&gt;Node31</title>
<g id="a_edge5_Node000030_Node000031"><a xlink:title=" ">
<path fill="none" stroke="#63b8ff" d="M367.25,-61.75C359.37,-61.75 351.45,-61.75 343.69,-61.75"/>
<polygon fill="#63b8ff" stroke="#63b8ff" points="367.25,-65.25 377.25,-61.75 367.25,-58.25 367.25,-65.25"/>
</a>
</g>
</g>
<!-- Node32 -->
<g id="Node000032" class="node">
<title>Node32</title>
<g id="a_Node000032"><a xlink:href="m__context_8c.html#a4f777e42913786f35032289c1df55380" target="_top" xlink:title=" ">
<polygon fill="white" stroke="#666666" points="137.88,-72.12 1.12,-72.12 1.12,-51.38 137.88,-51.38 137.88,-72.12"/>
<text xml:space="preserve" text-anchor="middle" x="69.5" y="-58.62" font-family="Helvetica,sans-Serif" font-size="10.00">cxt_remove_transformer</text>
</a>
</g>
</g>
<!-- Node31&#45;&gt;Node32 -->
<g id="edge6_Node000031_Node000032" class="edge">
<title>Node31&#45;&gt;Node32</title>
<g id="a_edge6_Node000031_Node000032"><a xlink:title=" ">
<path fill="none" stroke="#63b8ff" d="M163.51,-61.75C154.96,-61.75 146.41,-61.75 138.16,-61.75"/>
<polygon fill="#63b8ff" stroke="#63b8ff" points="163.22,-65.25 173.22,-61.75 163.22,-58.25 163.22,-65.25"/>
</a>
</g>
</g>
<!-- Node33 -->
<g id="Node000033" class="node">
<title>Node33</title>
<g id="a_Node000033"><a xlink:href="m__profile__view_8c.html#a16782b3e59e15ce2b56fd189c36a4869" target="_top" xlink:title=" ">
<polygon fill="#fff0f0" stroke="red" points="139,-33.5 0,-33.5 0,0 139,0 139,-33.5"/>
<text xml:space="preserve" text-anchor="start" x="8" y="-20" font-family="Helvetica,sans-Serif" font-size="10.00">profile_view_transformer</text>
<text xml:space="preserve" text-anchor="middle" x="69.5" y="-7.25" font-family="Helvetica,sans-Serif" font-size="10.00">_delete_cb</text>
</a>
</g>
</g>
<!-- Node31&#45;&gt;Node33 -->
<g id="edge7_Node000031_Node000033" class="edge">
<title>Node31&#45;&gt;Node33</title>
<g id="a_edge7_Node000031_Node000033"><a xlink:title=" ">
<path fill="none" stroke="#63b8ff" d="M202.2,-48.34C182.44,-43.6 159.98,-38.21 139.27,-33.24"/>
<polygon fill="#63b8ff" stroke="#63b8ff" points="201.17,-51.69 211.71,-50.62 202.8,-44.88 201.17,-51.69"/>
</a>
</g>
</g>
</g>
</svg>
