<?xml version="1.0" encoding="UTF-8" standalone="no"?>
<!DOCTYPE svg PUBLIC "-//W3C//DTD SVG 1.1//EN"
 "http://www.w3.org/Graphics/SVG/1.1/DTD/svg11.dtd">
<!-- Generated by graphviz version 13.1.2 (20250808.2320)
 -->
<!-- Title: init_transformer_of_type Pages: 1 -->
<!--zoomable 635 -->

<svg id="main" version="1.1" xmlns="http://www.w3.org/2000/svg" xmlns:xlink="http://www.w3.org/1999/xlink" xml:space="preserve" onload="init(evt)">

<style type="text/css"><![CDATA[
.node, .edge {opacity: 0.7;}
.node.selected, .edge.selected {opacity: 1;}
.edge:hover path { stroke: red; }
.edge:hover polygon { stroke: red; fill: red; }
]]></style>

<defs>
  <circle id="rim" cx="0" cy="0" r="7"/>
  <circle id="rim2" cx="0" cy="0" r="3.5"/>
  <g id="zoomPlus">
    <use xlink:href="#rim" fill="#404040"><set attributeName="fill" to="#808080" begin="zoomplus.mouseover" end="zoomplus.mouseout"/></use>
    <path d="M-4,0h8M0,-4v8" fill="none" stroke="white" stroke-width="1.5" pointer-events="none"/>
  </g>
  <g id="zoomMin">
    <use xlink:href="#rim" fill="#404040"><set attributeName="fill" to="#808080" begin="zoomminus.mouseover" end="zoomminus.mouseout"/></use>
    <path d="M-4,0h8" fill="none" stroke="white" stroke-width="1.5" pointer-events="none"/>
  </g>
  <g id="arrowUp" transform="translate(30 24)">
    <use xlink:href="#rim"/>
    <path pointer-events="none" fill="none" stroke="white" stroke-width="1.5" d="M0,-3.0v7 M-2.5,-0.5L0,-3.0L2.5,-0.5"/>
  </g>
  <g id="arrowRight" transform="rotate(90) translate(36 -43)">
    <use xlink:href="#rim"/>
    <path pointer-events="none" fill="none" stroke="white" stroke-width="1.5" d="M0,-3.0v7 M-2.5,-0.5L0,-3.0L2.5,-0.5"/>
  </g>
  <g id="arrowDown" transform="rotate(180) translate(-30 -48)">
    <use xlink:href="#rim"/>
    <path pointer-events="none" fill="none" stroke="white" stroke-width="1.5" d="M0,-3.0v7 M-2.5,-0.5L0,-3.0L2.5,-0.5"/>
  </g>
  <g id="arrowLeft" transform="rotate(270) translate(-36 17)">
    <use xlink:href="#rim"/>
    <path pointer-events="none" fill="none" stroke="white" stroke-width="1.5" d="M0,-3.0v7 M-2.5,-0.5L0,-3.0L2.5,-0.5"/>
  </g>
  <g id="resetDef">
    <use xlink:href="#rim2" fill="#404040"><set attributeName="fill" to="#808080" begin="reset.mouseover" end="reset.mouseout"/></use>
  </g>
</defs>
<script type="application/ecmascript">
var viewWidth = 852;
var viewHeight = 635;
var sectionId = 'dynsection-1';
</script>
<script type="application/ecmascript" xlink:href="svg.min.js"/>
<svg id="graph" class="graph">
<g id="viewport">
<title>init_transformer_of_type</title>
<!-- Node1 -->
<g id="Node000001" class="node">
<title>Node1</title>
<g id="a_Node000001"><a xlink:title=" ">
<polygon fill="#999999" stroke="#666666" points="136.75,-312.75 0,-312.75 0,-292 136.75,-292 136.75,-312.75"/>
<text xml:space="preserve" text-anchor="middle" x="68.38" y="-299.25" font-family="Helvetica,sans-Serif" font-size="10.00">init_transformer_of_type</text>
</a>
</g>
</g>
<!-- Node2 -->
<g id="Node000002" class="node">
<title>Node2</title>
<g id="a_Node000002"><a xlink:href="m__transformer__init_8c.html#a54d6f70f618f12a34582f171b06cc65b" target="_top" xlink:title=" ">
<polygon fill="white" stroke="#666666" points="287.38,-20.75 197.88,-20.75 197.88,0 287.38,0 287.38,-20.75"/>
<text xml:space="preserve" text-anchor="middle" x="242.62" y="-7.25" font-family="Helvetica,sans-Serif" font-size="10.00">init_3_band_eq</text>
</a>
</g>
</g>
<!-- Node1&#45;&gt;Node2 -->
<g id="edge1_Node000001_Node000002" class="edge">
<title>Node1&#45;&gt;Node2</title>
<g id="a_edge1_Node000001_Node000002"><a xlink:title=" ">
<path fill="none" stroke="#63b8ff" d="M70.13,-291.67C73.59,-251.12 91.43,-105.39 172.75,-30.38 176.99,-26.46 181.95,-23.32 187.23,-20.78"/>
<polygon fill="#63b8ff" stroke="#63b8ff" points="188.27,-24.13 196.27,-17.18 185.68,-17.63 188.27,-24.13"/>
</a>
</g>
</g>
<!-- Node8 -->
<g id="Node000008" class="node">
<title>Node8</title>
<g id="a_Node000008"><a xlink:href="m__transformer__init_8c.html#a8e3dcefb76c26c387aae3416028b280e" target="_top" xlink:title=" ">
<polygon fill="white" stroke="#666666" points="283.25,-527.75 202,-527.75 202,-507 283.25,-507 283.25,-527.75"/>
<text xml:space="preserve" text-anchor="middle" x="242.62" y="-514.25" font-family="Helvetica,sans-Serif" font-size="10.00">init_amplifier</text>
</a>
</g>
</g>
<!-- Node1&#45;&gt;Node8 -->
<g id="edge5_Node000001_Node000008" class="edge">
<title>Node1&#45;&gt;Node8</title>
<g id="a_edge5_Node000001_Node000008"><a xlink:title=" ">
<path fill="none" stroke="#63b8ff" d="M71.9,-313.13C80.2,-346.02 109.74,-446.11 172.75,-497.38 178.2,-501.81 184.6,-505.26 191.25,-507.95"/>
<polygon fill="#63b8ff" stroke="#63b8ff" points="189.81,-511.15 200.4,-511.08 192.08,-504.53 189.81,-511.15"/>
</a>
</g>
</g>
<!-- Node12 -->
<g id="Node000012" class="node">
<title>Node12</title>
<g id="a_Node000012"><a xlink:href="m__transformer__init_8c.html#a3a889fb4e1b1a9ed836b9c9bd7dd7093" target="_top" xlink:title=" ">
<polygon fill="white" stroke="#666666" points="301.25,-410.75 184,-410.75 184,-390 301.25,-390 301.25,-410.75"/>
<text xml:space="preserve" text-anchor="middle" x="242.62" y="-397.25" font-family="Helvetica,sans-Serif" font-size="10.00">init_band_pass_filter</text>
</a>
</g>
</g>
<!-- Node1&#45;&gt;Node12 -->
<g id="edge10_Node000001_Node000012" class="edge">
<title>Node1&#45;&gt;Node12</title>
<g id="a_edge10_Node000001_Node000012"><a xlink:title=" ">
<path fill="none" stroke="#63b8ff" d="M80.53,-313.02C98.54,-329.66 135.76,-361.84 172.75,-380.38 176.65,-382.33 180.76,-384.12 184.97,-385.76"/>
<polygon fill="#63b8ff" stroke="#63b8ff" points="183.51,-388.96 194.11,-389.02 185.86,-382.36 183.51,-388.96"/>
</a>
</g>
</g>
<!-- Node13 -->
<g id="Node000013" class="node">
<title>Node13</title>
<g id="a_Node000013"><a xlink:href="m__transformer__init_8c.html#a44ae2afbb2bb65b6f692fdc8dbee59cf" target="_top" xlink:title=" ">
<polygon fill="white" stroke="#666666" points="289.62,-371.75 195.62,-371.75 195.62,-351 289.62,-351 289.62,-371.75"/>
<text xml:space="preserve" text-anchor="middle" x="242.62" y="-358.25" font-family="Helvetica,sans-Serif" font-size="10.00">init_compressor</text>
</a>
</g>
</g>
<!-- Node1&#45;&gt;Node13 -->
<g id="edge12_Node000001_Node000013" class="edge">
<title>Node1&#45;&gt;Node13</title>
<g id="a_edge12_Node000001_Node000013"><a xlink:title=" ">
<path fill="none" stroke="#63b8ff" d="M96.37,-313.22C117.11,-321.39 146.55,-332.64 172.75,-341.38 178.88,-343.42 185.35,-345.45 191.78,-347.4"/>
<polygon fill="#63b8ff" stroke="#63b8ff" points="190.45,-350.66 201.04,-350.15 192.45,-343.95 190.45,-350.66"/>
</a>
</g>
</g>
<!-- Node14 -->
<g id="Node000014" class="node">
<title>Node14</title>
<g id="a_Node000014"><a xlink:href="m__transformer__init_8c.html#af83b4eb6904f354217fd7634509d7598" target="_top" xlink:title=" ">
<polygon fill="white" stroke="#666666" points="274.62,-449.75 210.62,-449.75 210.62,-429 274.62,-429 274.62,-449.75"/>
<text xml:space="preserve" text-anchor="middle" x="242.62" y="-436.25" font-family="Helvetica,sans-Serif" font-size="10.00">init_delay</text>
</a>
</g>
</g>
<!-- Node1&#45;&gt;Node14 -->
<g id="edge14_Node000001_Node000014" class="edge">
<title>Node1&#45;&gt;Node14</title>
<g id="a_edge14_Node000001_Node000014"><a xlink:title=" ">
<path fill="none" stroke="#63b8ff" d="M75.91,-313.25C90.37,-336.37 127.42,-390.65 172.75,-419.38 180.75,-424.45 190.08,-428.27 199.24,-431.14"/>
<polygon fill="#63b8ff" stroke="#63b8ff" points="198.2,-434.48 208.77,-433.78 200.07,-427.74 198.2,-434.48"/>
</a>
</g>
</g>
<!-- Node15 -->
<g id="Node000015" class="node">
<title>Node15</title>
<g id="a_Node000015"><a xlink:href="m__transformer__init_8c.html#ac3a47b56fc1b0f6b848f88af60091efa" target="_top" xlink:title=" ">
<polygon fill="white" stroke="#666666" points="291.5,-332.75 193.75,-332.75 193.75,-312 291.5,-312 291.5,-332.75"/>
<text xml:space="preserve" text-anchor="middle" x="242.62" y="-319.25" font-family="Helvetica,sans-Serif" font-size="10.00">init_dirty_octave</text>
</a>
</g>
</g>
<!-- Node1&#45;&gt;Node15 -->
<g id="edge17_Node000001_Node000015" class="edge">
<title>Node1&#45;&gt;Node15</title>
<g id="a_edge17_Node000001_Node000015"><a xlink:title=" ">
<path fill="none" stroke="#63b8ff" d="M136.96,-310.22C151.83,-311.95 167.48,-313.77 182.01,-315.45"/>
<polygon fill="#63b8ff" stroke="#63b8ff" points="181.55,-318.92 191.89,-316.6 182.36,-311.97 181.55,-318.92"/>
</a>
</g>
</g>
<!-- Node16 -->
<g id="Node000016" class="node">
<title>Node16</title>
<g id="a_Node000016"><a xlink:href="m__transformer__init_8c.html#a08e5861bc5e027fd53179f4224cbf5ce" target="_top" xlink:title=" ">
<polygon fill="white" stroke="#666666" points="284.38,-488.75 200.88,-488.75 200.88,-468 284.38,-468 284.38,-488.75"/>
<text xml:space="preserve" text-anchor="middle" x="242.62" y="-475.25" font-family="Helvetica,sans-Serif" font-size="10.00">init_distortion</text>
</a>
</g>
</g>
<!-- Node1&#45;&gt;Node16 -->
<g id="edge19_Node000001_Node000016" class="edge">
<title>Node1&#45;&gt;Node16</title>
<g id="a_edge19_Node000001_Node000016"><a xlink:title=" ">
<path fill="none" stroke="#63b8ff" d="M73.33,-312.95C84.42,-341.13 118.57,-418.53 172.75,-458.38 177.96,-462.2 183.88,-465.3 190.02,-467.81"/>
<polygon fill="#63b8ff" stroke="#63b8ff" points="188.44,-470.96 199.04,-470.99 190.77,-464.36 188.44,-470.96"/>
</a>
</g>
</g>
<!-- Node17 -->
<g id="Node000017" class="node">
<title>Node17</title>
<g id="a_Node000017"><a xlink:href="m__transformer__init_8c.html#ad8ebc7edc74fb52276ddbfb52f2a6a1c" target="_top" xlink:title=" ">
<polygon fill="white" stroke="#666666" points="283.62,-293.75 201.62,-293.75 201.62,-273 283.62,-273 283.62,-293.75"/>
<text xml:space="preserve" text-anchor="middle" x="242.62" y="-280.25" font-family="Helvetica,sans-Serif" font-size="10.00">init_envelope</text>
</a>
</g>
</g>
<!-- Node1&#45;&gt;Node17 -->
<g id="edge22_Node000001_Node000017" class="edge">
<title>Node1&#45;&gt;Node17</title>
<g id="a_edge22_Node000001_Node000017"><a xlink:title=" ">
<path fill="none" stroke="#63b8ff" d="M136.96,-294.92C154.72,-292.96 173.6,-290.88 190.35,-289.03"/>
<polygon fill="#63b8ff" stroke="#63b8ff" points="190.51,-292.53 200.07,-287.96 189.74,-285.58 190.51,-292.53"/>
</a>
</g>
</g>
<!-- Node18 -->
<g id="Node000018" class="node">
<title>Node18</title>
<g id="a_Node000018"><a xlink:href="m__transformer__init_8c.html#aea025ebef7d78736af6268ead37c48c9" target="_top" xlink:title=" ">
<polygon fill="white" stroke="#666666" points="278.38,-566.75 206.88,-566.75 206.88,-546 278.38,-546 278.38,-566.75"/>
<text xml:space="preserve" text-anchor="middle" x="242.62" y="-553.25" font-family="Helvetica,sans-Serif" font-size="10.00">init_flanger</text>
</a>
</g>
</g>
<!-- Node1&#45;&gt;Node18 -->
<g id="edge24_Node000001_Node000018" class="edge">
<title>Node1&#45;&gt;Node18</title>
<g id="a_edge24_Node000001_Node000018"><a xlink:title=" ">
<path fill="none" stroke="#63b8ff" d="M70.87,-313.1C76.59,-350.05 100.55,-473.21 172.75,-536.38 179.27,-542.08 187.32,-546.15 195.6,-549.07"/>
<polygon fill="#63b8ff" stroke="#63b8ff" points="194.47,-552.39 205.06,-551.85 196.45,-545.67 194.47,-552.39"/>
</a>
</g>
</g>
<!-- Node19 -->
<g id="Node000019" class="node">
<title>Node19</title>
<g id="a_Node000019"><a xlink:href="m__transformer__init_8c.html#acb136a2a6c006a7f034104e21400c4ef" target="_top" xlink:title=" ">
<polygon fill="white" stroke="#666666" points="299.75,-254.75 185.5,-254.75 185.5,-234 299.75,-234 299.75,-254.75"/>
<text xml:space="preserve" text-anchor="middle" x="242.62" y="-241.25" font-family="Helvetica,sans-Serif" font-size="10.00">init_high_pass_filter</text>
</a>
</g>
</g>
<!-- Node1&#45;&gt;Node19 -->
<g id="edge27_Node000001_Node000019" class="edge">
<title>Node1&#45;&gt;Node19</title>
<g id="a_edge27_Node000001_Node000019"><a xlink:title=" ">
<path fill="none" stroke="#63b8ff" d="M97.27,-291.52C117.97,-283.61 146.95,-272.85 172.75,-264.38 178.89,-262.36 185.37,-260.34 191.8,-258.4"/>
<polygon fill="#63b8ff" stroke="#63b8ff" points="192.46,-261.85 201.05,-255.65 190.47,-255.14 192.46,-261.85"/>
</a>
</g>
</g>
<!-- Node20 -->
<g id="Node000020" class="node">
<title>Node20</title>
<g id="a_Node000020"><a xlink:href="m__transformer__init_8c.html#a512779d6cb78cac333715c2551906459" target="_top" xlink:title=" ">
<polygon fill="white" stroke="#666666" points="312.5,-215.75 172.75,-215.75 172.75,-195 312.5,-195 312.5,-215.75"/>
<text xml:space="preserve" text-anchor="middle" x="242.62" y="-202.25" font-family="Helvetica,sans-Serif" font-size="10.00">init_low_end_compressor</text>
</a>
</g>
</g>
<!-- Node1&#45;&gt;Node20 -->
<g id="edge29_Node000001_Node000020" class="edge">
<title>Node1&#45;&gt;Node20</title>
<g id="a_edge29_Node000001_Node000020"><a xlink:title=" ">
<path fill="none" stroke="#63b8ff" d="M80.85,-291.61C99.01,-275.12 136.08,-243.61 172.75,-225.38 176.71,-223.4 180.9,-221.6 185.18,-219.94"/>
<polygon fill="#63b8ff" stroke="#63b8ff" points="186.23,-223.28 194.49,-216.65 183.9,-216.68 186.23,-223.28"/>
</a>
</g>
</g>
<!-- Node21 -->
<g id="Node000021" class="node">
<title>Node21</title>
<g id="a_Node000021"><a xlink:href="m__transformer__init_8c.html#ad9275e6e9171083150f34132d7a8ee1c" target="_top" xlink:title=" ">
<polygon fill="white" stroke="#666666" points="297.88,-176.75 187.38,-176.75 187.38,-156 297.88,-156 297.88,-176.75"/>
<text xml:space="preserve" text-anchor="middle" x="242.62" y="-163.25" font-family="Helvetica,sans-Serif" font-size="10.00">init_low_pass_filter</text>
</a>
</g>
</g>
<!-- Node1&#45;&gt;Node21 -->
<g id="edge31_Node000001_Node000021" class="edge">
<title>Node1&#45;&gt;Node21</title>
<g id="a_edge31_Node000001_Node000021"><a xlink:title=" ">
<path fill="none" stroke="#63b8ff" d="M75.93,-291.6C90.44,-268.68 127.58,-214.87 172.75,-186.38 175.47,-184.66 178.33,-183.09 181.29,-181.65"/>
<polygon fill="#63b8ff" stroke="#63b8ff" points="182.41,-184.98 190.24,-177.84 179.67,-178.54 182.41,-184.98"/>
</a>
</g>
</g>
<!-- Node22 -->
<g id="Node000022" class="node">
<title>Node22</title>
<g id="a_Node000022"><a xlink:href="m__transformer__init_8c.html#ac709aae8afadc11b79b487eb8e9deec8" target="_top" xlink:title=" ">
<polygon fill="white" stroke="#666666" points="303.5,-137.75 181.75,-137.75 181.75,-117 303.5,-117 303.5,-137.75"/>
<text xml:space="preserve" text-anchor="middle" x="242.62" y="-124.25" font-family="Helvetica,sans-Serif" font-size="10.00">init_noise_suppressor</text>
</a>
</g>
</g>
<!-- Node1&#45;&gt;Node22 -->
<g id="edge33_Node000001_Node000022" class="edge">
<title>Node1&#45;&gt;Node22</title>
<g id="a_edge33_Node000001_Node000022"><a xlink:title=" ">
<path fill="none" stroke="#63b8ff" d="M73.35,-291.86C84.49,-263.87 118.75,-186.96 172.75,-147.38 174.79,-145.88 176.94,-144.5 179.17,-143.21"/>
<polygon fill="#63b8ff" stroke="#63b8ff" points="180.55,-146.43 188,-138.9 177.48,-140.15 180.55,-146.43"/>
</a>
</g>
</g>
<!-- Node23 -->
<g id="Node000023" class="node">
<title>Node23</title>
<g id="a_Node000023"><a xlink:href="m__transformer__init_8c.html#a75fff392b01aecbd504419a937f147b7" target="_top" xlink:title=" ">
<polygon fill="white" stroke="#666666" points="289.62,-98.75 195.62,-98.75 195.62,-78 289.62,-78 289.62,-98.75"/>
<text xml:space="preserve" text-anchor="middle" x="242.62" y="-85.25" font-family="Helvetica,sans-Serif" font-size="10.00">init_percussifier</text>
</a>
</g>
</g>
<!-- Node1&#45;&gt;Node23 -->
<g id="edge35_Node000001_Node000023" class="edge">
<title>Node1&#45;&gt;Node23</title>
<g id="a_edge35_Node000001_Node000023"><a xlink:title=" ">
<path fill="none" stroke="#63b8ff" d="M71.92,-291.67C80.26,-258.95 109.94,-159.37 172.75,-108.38 176.45,-105.37 180.58,-102.82 184.93,-100.65"/>
<polygon fill="#63b8ff" stroke="#63b8ff" points="186.13,-103.95 193.99,-96.84 183.41,-97.49 186.13,-103.95"/>
</a>
</g>
</g>
<!-- Node24 -->
<g id="Node000024" class="node">
<title>Node24</title>
<g id="a_Node000024"><a xlink:href="m__transformer_8c.html#af48d8713360a2a42b74f04e099f14195" target="_top" xlink:title=" ">
<polygon fill="white" stroke="#666666" points="472.5,-594.75 377.75,-594.75 377.75,-574 472.5,-574 472.5,-594.75"/>
<text xml:space="preserve" text-anchor="middle" x="425.12" y="-581.25" font-family="Helvetica,sans-Serif" font-size="10.00">init_transformer</text>
</a>
</g>
</g>
<!-- Node1&#45;&gt;Node24 -->
<g id="edge37_Node000001_Node000024" class="edge">
<title>Node1&#45;&gt;Node24</title>
<g id="a_edge37_Node000001_Node000024"><a xlink:title=" ">
<path fill="none" stroke="#63b8ff" d="M69.56,-313.2C70.93,-355.48 82.16,-510.38 172.75,-575.38 231.38,-617.44 319.06,-608.95 373.86,-597.64"/>
<polygon fill="#63b8ff" stroke="#63b8ff" points="374.52,-601.08 383.55,-595.53 373.03,-594.24 374.52,-601.08"/>
</a>
</g>
</g>
<!-- Node33 -->
<g id="Node000033" class="node">
<title>Node33</title>
<g id="a_Node000033"><a xlink:href="m__transformer__init_8c.html#a35dc81b6ca2a13579582aeb6985067b7" target="_top" xlink:title=" ">
<polygon fill="white" stroke="#666666" points="279.5,-59.75 205.75,-59.75 205.75,-39 279.5,-39 279.5,-59.75"/>
<text xml:space="preserve" text-anchor="middle" x="242.62" y="-46.25" font-family="Helvetica,sans-Serif" font-size="10.00">init_warbler</text>
</a>
</g>
</g>
<!-- Node1&#45;&gt;Node33 -->
<g id="edge44_Node000001_Node000033" class="edge">
<title>Node1&#45;&gt;Node33</title>
<g id="a_edge44_Node000001_Node000033"><a xlink:title=" ">
<path fill="none" stroke="#63b8ff" d="M70.88,-291.69C76.66,-254.9 100.75,-132.25 172.75,-69.38 179,-63.91 186.67,-59.94 194.6,-57.05"/>
<polygon fill="#63b8ff" stroke="#63b8ff" points="195.46,-60.45 204,-54.18 193.42,-53.75 195.46,-60.45"/>
</a>
</g>
</g>
<!-- Node3 -->
<g id="Node000003" class="node">
<title>Node3</title>
<g id="a_Node000003"><a xlink:href="m__transformer_8c.html#a88beb1d51afb0c611869385a0e6c4184" target="_top" xlink:title=" ">
<polygon fill="white" stroke="#666666" points="501.75,-312.75 348.5,-312.75 348.5,-292 501.75,-292 501.75,-312.75"/>
<text xml:space="preserve" text-anchor="middle" x="425.12" y="-299.25" font-family="Helvetica,sans-Serif" font-size="10.00">transformer_add_parameter</text>
</a>
</g>
</g>
<!-- Node2&#45;&gt;Node3 -->
<g id="edge2_Node000002_Node000003" class="edge">
<title>Node2&#45;&gt;Node3</title>
<g id="a_edge2_Node000002_Node000003"><a xlink:title=" ">
<path fill="none" stroke="#63b8ff" d="M287.81,-16.87C296.77,-19.83 305.55,-24.13 312.5,-30.38 389.16,-99.25 414.33,-228.66 421.55,-280.29"/>
<polygon fill="#63b8ff" stroke="#63b8ff" points="418.07,-280.68 422.82,-290.15 425.01,-279.79 418.07,-280.68"/>
</a>
</g>
</g>
<!-- Node4 -->
<g id="Node000004" class="node">
<title>Node4</title>
<g id="a_Node000004"><a xlink:href="m__parameter_8c.html#ac9a28134818c14fbd7ef921b535b28d8" target="_top" xlink:title=" ">
<polygon fill="white" stroke="#666666" points="653.5,-380.75 547.5,-380.75 547.5,-360 653.5,-360 653.5,-380.75"/>
<text xml:space="preserve" text-anchor="middle" x="600.5" y="-367.25" font-family="Helvetica,sans-Serif" font-size="10.00">init_parameter_str</text>
</a>
</g>
</g>
<!-- Node3&#45;&gt;Node4 -->
<g id="edge3_Node000003_Node000004" class="edge">
<title>Node3&#45;&gt;Node4</title>
<g id="a_edge3_Node000003_Node000004"><a xlink:title=" ">
<path fill="none" stroke="#63b8ff" d="M453.6,-313.15C482.68,-324.56 528.79,-342.64 561.38,-355.42"/>
<polygon fill="#63b8ff" stroke="#63b8ff" points="559.87,-358.59 570.46,-358.99 562.43,-352.08 559.87,-358.59"/>
</a>
</g>
</g>
<!-- Node5 -->
<g id="Node000005" class="node">
<title>Node5</title>
<g id="a_Node000005"><a xlink:href="m__parameter_8c.html#a744a766adca7a0a1b6b1aeb3e68548ce" target="_top" xlink:title=" ">
<polygon fill="#fff0f0" stroke="red" points="844.25,-482.12 699.25,-482.12 699.25,-448.62 844.25,-448.62 844.25,-482.12"/>
<text xml:space="preserve" text-anchor="start" x="707.25" y="-468.62" font-family="Helvetica,sans-Serif" font-size="10.00">m_parameter_transformer</text>
<text xml:space="preserve" text-anchor="middle" x="771.75" y="-455.88" font-family="Helvetica,sans-Serif" font-size="10.00">_rep_update</text>
</a>
</g>
</g>
<!-- Node4&#45;&gt;Node5 -->
<g id="edge4_Node000004_Node000005" class="edge">
<title>Node4&#45;&gt;Node5</title>
<g id="a_edge4_Node000004_Node000005"><a xlink:title=" ">
<path fill="none" stroke="#63b8ff" d="M620.59,-381.09C647.1,-395.97 695.74,-423.27 730.48,-442.77"/>
<polygon fill="#63b8ff" stroke="#63b8ff" points="728.57,-445.71 739,-447.56 732,-439.61 728.57,-445.71"/>
</a>
</g>
</g>
<!-- Node8&#45;&gt;Node3 -->
<g id="edge6_Node000008_Node000003" class="edge">
<title>Node8&#45;&gt;Node3</title>
<g id="a_edge6_Node000008_Node000003"><a xlink:title=" ">
<path fill="none" stroke="#63b8ff" d="M283.63,-511.29C293.8,-508.32 304.18,-503.92 312.5,-497.38 371.39,-451.03 404.76,-364.42 417.74,-324.08"/>
<polygon fill="#63b8ff" stroke="#63b8ff" points="421.07,-325.18 420.68,-314.59 414.38,-323.11 421.07,-325.18"/>
</a>
</g>
</g>
<!-- Node9 -->
<g id="Node000009" class="node">
<title>Node9</title>
<g id="a_Node000009"><a xlink:href="m__transformer_8c.html#a4b21bfc3b004c3d05f667e4eb16fbbf6" target="_top" xlink:title=" ">
<polygon fill="white" stroke="#666666" points="493.12,-497.75 357.12,-497.75 357.12,-477 493.12,-477 493.12,-497.75"/>
<text xml:space="preserve" text-anchor="middle" x="425.12" y="-484.25" font-family="Helvetica,sans-Serif" font-size="10.00">transformer_add_setting</text>
</a>
</g>
</g>
<!-- Node8&#45;&gt;Node9 -->
<g id="edge7_Node000008_Node000009" class="edge">
<title>Node8&#45;&gt;Node9</title>
<g id="a_edge7_Node000008_Node000009"><a xlink:title=" ">
<path fill="none" stroke="#63b8ff" d="M283.68,-510.72C302.61,-507.57 325.85,-503.71 347.94,-500.04"/>
<polygon fill="#63b8ff" stroke="#63b8ff" points="348.23,-503.54 357.52,-498.45 347.08,-496.63 348.23,-503.54"/>
</a>
</g>
</g>
<!-- Node10 -->
<g id="Node000010" class="node">
<title>Node10</title>
<g id="a_Node000010"><a xlink:href="m__parameter_8c.html#a5c3ab6ae99e37732118907f34a470670" target="_top" xlink:title=" ">
<polygon fill="white" stroke="#666666" points="644.88,-497.75 556.12,-497.75 556.12,-477 644.88,-477 644.88,-497.75"/>
<text xml:space="preserve" text-anchor="middle" x="600.5" y="-484.25" font-family="Helvetica,sans-Serif" font-size="10.00">init_setting_str</text>
</a>
</g>
</g>
<!-- Node9&#45;&gt;Node10 -->
<g id="edge8_Node000009_Node000010" class="edge">
<title>Node9&#45;&gt;Node10</title>
<g id="a_edge8_Node000009_Node000010"><a xlink:title=" ">
<path fill="none" stroke="#63b8ff" d="M493.16,-487.38C510.03,-487.38 527.94,-487.38 544.17,-487.38"/>
<polygon fill="#63b8ff" stroke="#63b8ff" points="544.13,-490.88 554.13,-487.38 544.13,-483.88 544.13,-490.88"/>
</a>
</g>
</g>
<!-- Node11 -->
<g id="Node000011" class="node">
<title>Node11</title>
<g id="a_Node000011"><a xlink:href="m__parameter_8c.html#afc1d01114129856c1a4f55611a2f1345" target="_top" xlink:title=" ">
<polygon fill="#fff0f0" stroke="red" points="835.62,-550.12 707.88,-550.12 707.88,-516.62 835.62,-516.62 835.62,-550.12"/>
<text xml:space="preserve" text-anchor="start" x="715.88" y="-536.62" font-family="Helvetica,sans-Serif" font-size="10.00">m_setting_transformer</text>
<text xml:space="preserve" text-anchor="middle" x="771.75" y="-523.88" font-family="Helvetica,sans-Serif" font-size="10.00">_rep_update</text>
</a>
</g>
</g>
<!-- Node10&#45;&gt;Node11 -->
<g id="edge9_Node000010_Node000011" class="edge">
<title>Node10&#45;&gt;Node11</title>
<g id="a_edge9_Node000010_Node000011"><a xlink:title=" ">
<path fill="none" stroke="#63b8ff" d="M641.18,-498.16C657.68,-502.64 677.39,-508 696.4,-513.17"/>
<polygon fill="#63b8ff" stroke="#63b8ff" points="695.45,-516.54 706.02,-515.78 697.28,-509.78 695.45,-516.54"/>
</a>
</g>
</g>
<!-- Node12&#45;&gt;Node3 -->
<g id="edge11_Node000012_Node000003" class="edge">
<title>Node12&#45;&gt;Node3</title>
<g id="a_edge11_Node000012_Node000003"><a xlink:title=" ">
<path fill="none" stroke="#63b8ff" d="M288.88,-389.54C296.92,-386.97 305.09,-383.92 312.5,-380.38 346.5,-364.11 381.44,-337.86 402.96,-320.36"/>
<polygon fill="#63b8ff" stroke="#63b8ff" points="404.95,-323.26 410.43,-314.19 400.49,-317.87 404.95,-323.26"/>
</a>
</g>
</g>
<!-- Node13&#45;&gt;Node3 -->
<g id="edge13_Node000013_Node000003" class="edge">
<title>Node13&#45;&gt;Node3</title>
<g id="a_edge13_Node000013_Node000003"><a xlink:title=" ">
<path fill="none" stroke="#63b8ff" d="M282.35,-350.52C292.21,-347.65 302.77,-344.48 312.5,-341.38 336.2,-333.8 362.48,-324.65 383.59,-317.12"/>
<polygon fill="#63b8ff" stroke="#63b8ff" points="384.77,-320.42 393,-313.75 382.4,-313.83 384.77,-320.42"/>
</a>
</g>
</g>
<!-- Node14&#45;&gt;Node3 -->
<g id="edge15_Node000014_Node000003" class="edge">
<title>Node14&#45;&gt;Node3</title>
<g id="a_edge15_Node000014_Node000003"><a xlink:title=" ">
<path fill="none" stroke="#63b8ff" d="M274.89,-433.96C287.21,-430.92 301.11,-426.29 312.5,-419.38 354.44,-393.9 391.15,-348.67 410.22,-322.53"/>
<polygon fill="#63b8ff" stroke="#63b8ff" points="413.02,-324.64 415.97,-314.46 407.32,-320.57 413.02,-324.64"/>
</a>
</g>
</g>
<!-- Node14&#45;&gt;Node9 -->
<g id="edge16_Node000014_Node000009" class="edge">
<title>Node14&#45;&gt;Node9</title>
<g id="a_edge16_Node000014_Node000009"><a xlink:title=" ">
<path fill="none" stroke="#63b8ff" d="M275.07,-447.74C301.99,-454.9 341.28,-465.35 372.77,-473.72"/>
<polygon fill="#63b8ff" stroke="#63b8ff" points="371.52,-477.01 382.08,-476.2 373.32,-470.24 371.52,-477.01"/>
</a>
</g>
</g>
<!-- Node15&#45;&gt;Node3 -->
<g id="edge18_Node000015_Node000003" class="edge">
<title>Node15&#45;&gt;Node3</title>
<g id="a_edge18_Node000015_Node000003"><a xlink:title=" ">
<path fill="none" stroke="#63b8ff" d="M292,-317.02C305.86,-315.48 321.42,-313.76 336.86,-312.04"/>
<polygon fill="#63b8ff" stroke="#63b8ff" points="337,-315.55 346.56,-310.97 336.23,-308.59 337,-315.55"/>
</a>
</g>
</g>
<!-- Node16&#45;&gt;Node3 -->
<g id="edge20_Node000016_Node000003" class="edge">
<title>Node16&#45;&gt;Node3</title>
<g id="a_edge20_Node000016_Node000003"><a xlink:title=" ">
<path fill="none" stroke="#63b8ff" d="M284.64,-471.29C294.35,-468.35 304.27,-464.2 312.5,-458.38 363.05,-422.58 399.06,-356.46 414.98,-322.97"/>
<polygon fill="#63b8ff" stroke="#63b8ff" points="417.96,-324.88 418.97,-314.33 411.6,-321.94 417.96,-324.88"/>
</a>
</g>
</g>
<!-- Node16&#45;&gt;Node9 -->
<g id="edge21_Node000016_Node000009" class="edge">
<title>Node16&#45;&gt;Node9</title>
<g id="a_edge21_Node000016_Node000009"><a xlink:title=" ">
<path fill="none" stroke="#63b8ff" d="M284.58,-480.42C302.66,-481.32 324.54,-482.41 345.56,-483.46"/>
<polygon fill="#63b8ff" stroke="#63b8ff" points="345.11,-486.94 355.27,-483.94 345.45,-479.95 345.11,-486.94"/>
</a>
</g>
</g>
<!-- Node17&#45;&gt;Node3 -->
<g id="edge23_Node000017_Node000003" class="edge">
<title>Node17&#45;&gt;Node3</title>
<g id="a_edge23_Node000017_Node000003"><a xlink:title=" ">
<path fill="none" stroke="#63b8ff" d="M283.68,-287.59C299.5,-289.26 318.33,-291.24 336.98,-293.2"/>
<polygon fill="#63b8ff" stroke="#63b8ff" points="336.41,-296.66 346.72,-294.23 337.14,-289.7 336.41,-296.66"/>
</a>
</g>
</g>
<!-- Node18&#45;&gt;Node3 -->
<g id="edge25_Node000018_Node000003" class="edge">
<title>Node18&#45;&gt;Node3</title>
<g id="a_edge25_Node000018_Node000003"><a xlink:title=" ">
<path fill="none" stroke="#63b8ff" d="M278.61,-552.13C290.42,-549.25 303.01,-544.44 312.5,-536.38 321.41,-528.81 389.33,-379.5 414.65,-323.42"/>
<polygon fill="#63b8ff" stroke="#63b8ff" points="417.7,-325.17 418.62,-314.61 411.32,-322.29 417.7,-325.17"/>
</a>
</g>
</g>
<!-- Node18&#45;&gt;Node9 -->
<g id="edge26_Node000018_Node000009" class="edge">
<title>Node18&#45;&gt;Node9</title>
<g id="a_edge26_Node000018_Node000009"><a xlink:title=" ">
<path fill="none" stroke="#63b8ff" d="M278.6,-547.18C289.55,-544.04 301.61,-540.33 312.5,-536.38 339.68,-526.51 369.65,-513.22 391.68,-502.96"/>
<polygon fill="#63b8ff" stroke="#63b8ff" points="392.88,-506.27 400.45,-498.85 389.91,-499.93 392.88,-506.27"/>
</a>
</g>
</g>
<!-- Node19&#45;&gt;Node3 -->
<g id="edge28_Node000019_Node000003" class="edge">
<title>Node19&#45;&gt;Node3</title>
<g id="a_edge28_Node000019_Node000003"><a xlink:title=" ">
<path fill="none" stroke="#63b8ff" d="M281.97,-255.17C291.94,-258.07 302.64,-261.27 312.5,-264.38 335.84,-271.73 361.71,-280.5 382.67,-287.76"/>
<polygon fill="#63b8ff" stroke="#63b8ff" points="381.43,-291.03 392.02,-291.02 383.73,-284.42 381.43,-291.03"/>
</a>
</g>
</g>
<!-- Node20&#45;&gt;Node3 -->
<g id="edge30_Node000020_Node000003" class="edge">
<title>Node20&#45;&gt;Node3</title>
<g id="a_edge30_Node000020_Node000003"><a xlink:title=" ">
<path fill="none" stroke="#63b8ff" d="M288.86,-216.25C296.9,-218.81 305.08,-221.85 312.5,-225.38 346.4,-241.47 381.37,-267.38 402.92,-284.64"/>
<polygon fill="#63b8ff" stroke="#63b8ff" points="400.43,-287.12 410.39,-290.71 404.85,-281.69 400.43,-287.12"/>
</a>
</g>
</g>
<!-- Node21&#45;&gt;Node3 -->
<g id="edge32_Node000021_Node000003" class="edge">
<title>Node21&#45;&gt;Node3</title>
<g id="a_edge32_Node000021_Node000003"><a xlink:title=" ">
<path fill="none" stroke="#63b8ff" d="M292.77,-177.19C299.64,-179.68 306.43,-182.7 312.5,-186.38 354.31,-211.64 391.07,-256.49 410.18,-282.39"/>
<polygon fill="#63b8ff" stroke="#63b8ff" points="407.25,-284.32 415.94,-290.39 412.93,-280.23 407.25,-284.32"/>
</a>
</g>
</g>
<!-- Node22&#45;&gt;Node3 -->
<g id="edge34_Node000022_Node000003" class="edge">
<title>Node22&#45;&gt;Node3</title>
<g id="a_edge34_Node000022_Node000003"><a xlink:title=" ">
<path fill="none" stroke="#63b8ff" d="M295.05,-138.12C301.23,-140.6 307.21,-143.64 312.5,-147.38 362.67,-182.78 398.66,-248.06 414.74,-281.48"/>
<polygon fill="#63b8ff" stroke="#63b8ff" points="411.55,-282.91 418.95,-290.49 417.89,-279.95 411.55,-282.91"/>
</a>
</g>
</g>
<!-- Node23&#45;&gt;Node3 -->
<g id="edge36_Node000023_Node000003" class="edge">
<title>Node23&#45;&gt;Node3</title>
<g id="a_edge36_Node000023_Node000003"><a xlink:title=" ">
<path fill="none" stroke="#63b8ff" d="M290.09,-96.56C298.09,-99.4 305.94,-103.22 312.5,-108.38 371.22,-154.48 404.67,-240.65 417.71,-280.78"/>
<polygon fill="#63b8ff" stroke="#63b8ff" points="414.34,-281.71 420.66,-290.22 421.02,-279.63 414.34,-281.71"/>
</a>
</g>
</g>
<!-- Node25 -->
<g id="Node000025" class="node">
<title>Node25</title>
<g id="a_Node000025"><a xlink:href="m__parameter_8c.html#a6920b520347a79341c052f23878c6d2a" target="_top" xlink:title=" ">
<polygon fill="white" stroke="#666666" points="644.5,-536.75 556.5,-536.75 556.5,-516 644.5,-516 644.5,-536.75"/>
<text xml:space="preserve" text-anchor="middle" x="600.5" y="-523.25" font-family="Helvetica,sans-Serif" font-size="10.00">init_parameter</text>
</a>
</g>
</g>
<!-- Node24&#45;&gt;Node25 -->
<g id="edge38_Node000024_Node000025" class="edge">
<title>Node24&#45;&gt;Node25</title>
<g id="a_edge38_Node000024_Node000025"><a xlink:title=" ">
<path fill="none" stroke="#63b8ff" d="M457.36,-573.6C479.72,-565.93 510.55,-555.41 537.75,-546.38 543.29,-544.54 549.12,-542.62 554.88,-540.74"/>
<polygon fill="#63b8ff" stroke="#63b8ff" points="555.95,-544.07 564.38,-537.65 553.79,-537.41 555.95,-544.07"/>
</a>
</g>
</g>
<!-- Node26 -->
<g id="Node000026" class="node">
<title>Node26</title>
<g id="a_Node000026"><a xlink:href="m__parameter_8c.html#a6605667d59b3a9ae6a15d789037738a0" target="_top" xlink:title=" ">
<polygon fill="white" stroke="#666666" points="635.88,-575.75 565.12,-575.75 565.12,-555 635.88,-555 635.88,-575.75"/>
<text xml:space="preserve" text-anchor="middle" x="600.5" y="-562.25" font-family="Helvetica,sans-Serif" font-size="10.00">init_setting</text>
</a>
</g>
</g>
<!-- Node24&#45;&gt;Node26 -->
<g id="edge40_Node000024_Node000026" class="edge">
<title>Node24&#45;&gt;Node26</title>
<g id="a_edge40_Node000024_Node000026"><a xlink:title=" ">
<path fill="none" stroke="#63b8ff" d="M472.59,-579.28C497.61,-576.54 528.38,-573.17 553.36,-570.43"/>
<polygon fill="#63b8ff" stroke="#63b8ff" points="553.68,-573.92 563.24,-569.35 552.92,-566.96 553.68,-573.92"/>
</a>
</g>
</g>
<!-- Node27 -->
<g id="Node000027" class="node">
<title>Node27</title>
<g id="a_Node000027"><a xlink:href="m__transformer_8c.html#a0743d447db0538f2fdc94fc58e4d57f0" target="_top" xlink:title=" ">
<polygon fill="white" stroke="#666666" points="663.25,-627.12 537.75,-627.12 537.75,-593.62 663.25,-593.62 663.25,-627.12"/>
<text xml:space="preserve" text-anchor="start" x="545.75" y="-613.62" font-family="Helvetica,sans-Serif" font-size="10.00">m_transformer_profile</text>
<text xml:space="preserve" text-anchor="middle" x="600.5" y="-600.88" font-family="Helvetica,sans-Serif" font-size="10.00">_rep_update</text>
</a>
</g>
</g>
<!-- Node24&#45;&gt;Node27 -->
<g id="edge42_Node000024_Node000027" class="edge">
<title>Node24&#45;&gt;Node27</title>
<g id="a_edge42_Node000024_Node000027"><a xlink:title=" ">
<path fill="none" stroke="#63b8ff" d="M472.59,-591.34C489.03,-593.81 507.96,-596.65 526.1,-599.37"/>
<polygon fill="#63b8ff" stroke="#63b8ff" points="525.35,-602.79 535.76,-600.82 526.39,-595.87 525.35,-602.79"/>
</a>
</g>
</g>
<!-- Node25&#45;&gt;Node5 -->
<g id="edge39_Node000025_Node000005" class="edge">
<title>Node25&#45;&gt;Node5</title>
<g id="a_edge39_Node000025_Node000005"><a xlink:title=" ">
<path fill="none" stroke="#63b8ff" d="M635.9,-515.58C644.84,-512.68 654.43,-509.48 663.25,-506.38 680.8,-500.19 699.82,-493.08 716.9,-486.53"/>
<polygon fill="#63b8ff" stroke="#63b8ff" points="717.78,-489.94 725.85,-483.08 715.26,-483.41 717.78,-489.94"/>
</a>
</g>
</g>
<!-- Node26&#45;&gt;Node11 -->
<g id="edge41_Node000026_Node000011" class="edge">
<title>Node26&#45;&gt;Node11</title>
<g id="a_edge41_Node000026_Node000011"><a xlink:title=" ">
<path fill="none" stroke="#63b8ff" d="M636.16,-558.82C653.54,-555.54 675.3,-551.42 696.22,-547.47"/>
<polygon fill="#63b8ff" stroke="#63b8ff" points="696.73,-550.93 705.91,-545.64 695.43,-544.05 696.73,-550.93"/>
</a>
</g>
</g>
<!-- Node28 -->
<g id="Node000028" class="node">
<title>Node28</title>
<g id="a_Node000028"><a xlink:href="m__files_8c.html#af05d2dbfb9a9b37f20141d551b81cbb9" target="_top" xlink:title=" ">
<polygon fill="#fff0f0" stroke="red" points="809.75,-620.75 733.75,-620.75 733.75,-600 809.75,-600 809.75,-620.75"/>
<text xml:space="preserve" text-anchor="middle" x="771.75" y="-607.25" font-family="Helvetica,sans-Serif" font-size="10.00">save_profile</text>
</a>
</g>
</g>
<!-- Node27&#45;&gt;Node28 -->
<g id="edge43_Node000027_Node000028" class="edge">
<title>Node27&#45;&gt;Node28</title>
<g id="a_edge43_Node000027_Node000028"><a xlink:title=" ">
<path fill="none" stroke="#63b8ff" d="M663.56,-610.38C682.75,-610.38 703.62,-610.38 721.79,-610.38"/>
<polygon fill="#63b8ff" stroke="#63b8ff" points="721.79,-613.88 731.79,-610.38 721.79,-606.88 721.79,-613.88"/>
</a>
</g>
</g>
<!-- Node33&#45;&gt;Node3 -->
<g id="edge45_Node000033_Node000003" class="edge">
<title>Node33&#45;&gt;Node3</title>
<g id="a_edge45_Node000033_Node000003"><a xlink:title=" ">
<path fill="none" stroke="#63b8ff" d="M279.67,-53.9C291.17,-56.8 303.29,-61.56 312.5,-69.38 380.19,-126.77 409.93,-234.63 419.94,-280.66"/>
<polygon fill="#63b8ff" stroke="#63b8ff" points="416.46,-281.11 421.91,-290.19 423.32,-279.69 416.46,-281.11"/>
</a>
</g>
</g>
</g>
</svg>

<g id="navigator" transform="translate(0 0)" fill="#404254">
  <rect fill="#f2f5e9" fill-opacity="0.5" stroke="#606060" stroke-width=".5" x="0" y="0" width="60" height="60"/>
  <use id="zoomplus" xlink:href="#zoomPlus" x="17" y="9" onmousedown="handleZoom(evt,'in')"/>
  <use id="zoomminus" xlink:href="#zoomMin" x="42" y="9" onmousedown="handleZoom(evt,'out')"/>
  <use id="reset" xlink:href="#resetDef" x="30" y="36" onmousedown="handleReset()"/>
   <use id="arrowup" xlink:href="#arrowUp" x="0" y="0" onmousedown="handlePan(0,-1)"/>
  <use id="arrowright" xlink:href="#arrowRight" x="0" y="0" onmousedown="handlePan(1,0)"/>
  <use id="arrowdown" xlink:href="#arrowDown" x="0" y="0" onmousedown="handlePan(0,1)"/>
  <use id="arrowleft" xlink:href="#arrowLeft" x="0" y="0" onmousedown="handlePan(-1,0)"/>
</g>
<svg viewBox="0 0 15 15" width="100%" height="30px" preserveAspectRatio="xMaxYMin meet">
 <g id="arrow_out" transform="scale(0.3 0.3)">
  <a xlink:href="m__transformer__init_8h_af3678329232371431470ab1777c18a79_cgraph_org.svg" target="_base">
   <rect id="button" ry="5" rx="5" y="6" x="6" height="38" width="38"
        fill="#f2f5e9" fill-opacity="0.5" stroke="#606060" stroke-width="1.0"/>
   <path id="arrow"
     d="M 11.500037,31.436501 C 11.940474,20.09759 22.043105,11.32322 32.158766,21.979434 L 37.068811,17.246167 C 37.068811,17.246167 37.088388,32 37.088388,32 L 22.160133,31.978069 C 22.160133,31.978069 26.997745,27.140456 26.997745,27.140456 C 18.528582,18.264221 13.291696,25.230495 11.500037,31.436501 z"
     style="fill:#404040;"/>
  </a>
 </g>
</svg>

<style type='text/css'>
<![CDATA[
[data-mouse-over-selected='false'] { opacity: 0.7; }
[data-mouse-over-selected='true']  { opacity: 1.0; }
]]>
</style>
<script type="application/ecmascript"><![CDATA[
document.addEventListener('DOMContentLoaded', (event) => {
  highlightEdges();
  highlightAdjacentNodes();
});
]]></script>
</svg>
