<?xml version="1.0" encoding="UTF-8" standalone="no"?>
<!DOCTYPE svg PUBLIC "-//W3C//DTD SVG 1.1//EN"
 "http://www.w3.org/Graphics/SVG/1.1/DTD/svg11.dtd">
<!-- Generated by graphviz version 13.1.2 (20250808.2320)
 -->
<!-- Title: gut_effect Pages: 1 -->
<svg width="373pt" height="68pt"
 viewBox="0.00 0.00 373.00 68.00" xmlns="http://www.w3.org/2000/svg" xmlns:xlink="http://www.w3.org/1999/xlink">
<g id="graph0" class="graph" transform="scale(1 1) rotate(0) translate(4 63.75)">
<title>gut_effect</title>
<!-- Node1 -->
<g id="Node000001" class="node">
<title>Node1</title>
<g id="a_Node000001"><a xlink:title=" ">
<polygon fill="#999999" stroke="#666666" points="65.5,-39.75 0,-39.75 0,-19 65.5,-19 65.5,-39.75"/>
<text xml:space="preserve" text-anchor="middle" x="32.75" y="-26.25" font-family="Helvetica,sans-Serif" font-size="10.00">gut_effect</text>
</a>
</g>
</g>
<!-- Node2 -->
<g id="Node000002" class="node">
<title>Node2</title>
<g id="a_Node000002"><a xlink:href="m__effect__view_8c.html#a87f4136ec90b987206ce07e4209c0456" target="_top" xlink:title=" ">
<polygon fill="white" stroke="#666666" points="199.25,-59.75 101.5,-59.75 101.5,-39 199.25,-39 199.25,-59.75"/>
<text xml:space="preserve" text-anchor="middle" x="150.38" y="-46.25" font-family="Helvetica,sans-Serif" font-size="10.00">free_effect_view</text>
</a>
</g>
</g>
<!-- Node1&#45;&gt;Node2 -->
<g id="edge1_Node000001_Node000002" class="edge">
<title>Node1&#45;&gt;Node2</title>
<g id="a_edge1_Node000001_Node000002"><a xlink:title=" ">
<path fill="none" stroke="#63b8ff" d="M65.96,-34.95C73.49,-36.25 81.75,-37.68 90.06,-39.11"/>
<polygon fill="#63b8ff" stroke="#63b8ff" points="89.4,-42.55 99.85,-40.81 90.59,-35.65 89.4,-42.55"/>
</a>
</g>
</g>
<!-- Node4 -->
<g id="Node000004" class="node">
<title>Node4</title>
<g id="a_Node000004"><a xlink:href="m__parameter_8c.html#afae735eca0c6dbc04cb0ab691882e4ff" target="_top" xlink:title=" ">
<polygon fill="white" stroke="#666666" points="185.75,-20.75 115,-20.75 115,0 185.75,0 185.75,-20.75"/>
<text xml:space="preserve" text-anchor="middle" x="150.38" y="-7.25" font-family="Helvetica,sans-Serif" font-size="10.00">gut_setting</text>
</a>
</g>
</g>
<!-- Node1&#45;&gt;Node4 -->
<g id="edge3_Node000001_Node000004" class="edge">
<title>Node1&#45;&gt;Node4</title>
<g id="a_edge3_Node000001_Node000004"><a xlink:title=" ">
<path fill="none" stroke="#63b8ff" d="M65.96,-24.08C77.52,-22.18 90.79,-20 103.3,-17.95"/>
<polygon fill="#63b8ff" stroke="#63b8ff" points="103.71,-21.43 113.01,-16.35 102.58,-14.52 103.71,-21.43"/>
</a>
</g>
</g>
<!-- Node3 -->
<g id="Node000003" class="node">
<title>Node3</title>
<g id="a_Node000003"><a xlink:href="m__parameter__widget_8c.html#a80c7de054ed56106ce33c0a60970eb4a" target="_top" xlink:title=" ">
<polygon fill="white" stroke="#666666" points="365.25,-59.75 235.25,-59.75 235.25,-39 365.25,-39 365.25,-59.75"/>
<text xml:space="preserve" text-anchor="middle" x="300.25" y="-46.25" font-family="Helvetica,sans-Serif" font-size="10.00">free_parameter_widget</text>
</a>
</g>
</g>
<!-- Node2&#45;&gt;Node3 -->
<g id="edge2_Node000002_Node000003" class="edge">
<title>Node2&#45;&gt;Node3</title>
<g id="a_edge2_Node000002_Node000003"><a xlink:title=" ">
<path fill="none" stroke="#63b8ff" d="M199.39,-49.38C207.07,-49.38 215.17,-49.38 223.32,-49.38"/>
<polygon fill="#63b8ff" stroke="#63b8ff" points="223.29,-52.88 233.29,-49.38 223.29,-45.88 223.29,-52.88"/>
</a>
</g>
</g>
</g>
</svg>
