<?xml version="1.0" encoding="UTF-8" standalone="no"?>
<!DOCTYPE svg PUBLIC "-//W3C//DTD SVG 1.1//EN"
 "http://www.w3.org/Graphics/SVG/1.1/DTD/svg11.dtd">
<!-- Generated by graphviz version 13.1.2 (20250808.2320)
 -->
<!-- Title: create_transformer_selector_button_ui_eff Pages: 1 -->
<!--zoomable 492 -->

<svg id="main" version="1.1" xmlns="http://www.w3.org/2000/svg" xmlns:xlink="http://www.w3.org/1999/xlink" xml:space="preserve" onload="init(evt)">

<style type="text/css"><![CDATA[
.node, .edge {opacity: 0.7;}
.node.selected, .edge.selected {opacity: 1;}
.edge:hover path { stroke: red; }
.edge:hover polygon { stroke: red; fill: red; }
]]></style>

<defs>
  <circle id="rim" cx="0" cy="0" r="7"/>
  <circle id="rim2" cx="0" cy="0" r="3.5"/>
  <g id="zoomPlus">
    <use xlink:href="#rim" fill="#404040"><set attributeName="fill" to="#808080" begin="zoomplus.mouseover" end="zoomplus.mouseout"/></use>
    <path d="M-4,0h8M0,-4v8" fill="none" stroke="white" stroke-width="1.5" pointer-events="none"/>
  </g>
  <g id="zoomMin">
    <use xlink:href="#rim" fill="#404040"><set attributeName="fill" to="#808080" begin="zoomminus.mouseover" end="zoomminus.mouseout"/></use>
    <path d="M-4,0h8" fill="none" stroke="white" stroke-width="1.5" pointer-events="none"/>
  </g>
  <g id="arrowUp" transform="translate(30 24)">
    <use xlink:href="#rim"/>
    <path pointer-events="none" fill="none" stroke="white" stroke-width="1.5" d="M0,-3.0v7 M-2.5,-0.5L0,-3.0L2.5,-0.5"/>
  </g>
  <g id="arrowRight" transform="rotate(90) translate(36 -43)">
    <use xlink:href="#rim"/>
    <path pointer-events="none" fill="none" stroke="white" stroke-width="1.5" d="M0,-3.0v7 M-2.5,-0.5L0,-3.0L2.5,-0.5"/>
  </g>
  <g id="arrowDown" transform="rotate(180) translate(-30 -48)">
    <use xlink:href="#rim"/>
    <path pointer-events="none" fill="none" stroke="white" stroke-width="1.5" d="M0,-3.0v7 M-2.5,-0.5L0,-3.0L2.5,-0.5"/>
  </g>
  <g id="arrowLeft" transform="rotate(270) translate(-36 17)">
    <use xlink:href="#rim"/>
    <path pointer-events="none" fill="none" stroke="white" stroke-width="1.5" d="M0,-3.0v7 M-2.5,-0.5L0,-3.0L2.5,-0.5"/>
  </g>
  <g id="resetDef">
    <use xlink:href="#rim2" fill="#404040"><set attributeName="fill" to="#808080" begin="reset.mouseover" end="reset.mouseout"/></use>
  </g>
</defs>
<script type="application/ecmascript">
var viewWidth = 948;
var viewHeight = 492;
var sectionId = 'dynsection-2';
</script>
<script type="application/ecmascript" xlink:href="svg.min.js"/>
<svg id="graph" class="graph">
<g id="viewport">
<title>create_transformer_selector_button_ui_eff</title>
<!-- Node1 -->
<g id="Node000001" class="node">
<title>Node1</title>
<g id="a_Node000001"><a xlink:title=" ">
<polygon fill="#999999" stroke="#666666" points="130,-143.5 0,-143.5 0,-110 130,-110 130,-143.5"/>
<text xml:space="preserve" text-anchor="start" x="8" y="-130" font-family="Helvetica,sans-Serif" font-size="10.00">create_transformer</text>
<text xml:space="preserve" text-anchor="middle" x="65" y="-117.25" font-family="Helvetica,sans-Serif" font-size="10.00">_selector_button_ui_eff</text>
</a>
</g>
</g>
<!-- Node2 -->
<g id="Node000002" class="node">
<title>Node2</title>
<g id="a_Node000002"><a xlink:href="m__transformer__select_8c.html#a8a60316cc5a79aaf1c656b9523dd54b1" target="_top" xlink:title=" ">
<polygon fill="white" stroke="#666666" points="294.5,-169.5 169,-169.5 169,-136 294.5,-136 294.5,-169.5"/>
<text xml:space="preserve" text-anchor="start" x="177" y="-156" font-family="Helvetica,sans-Serif" font-size="10.00">add_transformer_from</text>
<text xml:space="preserve" text-anchor="middle" x="231.75" y="-143.25" font-family="Helvetica,sans-Serif" font-size="10.00">_menu_eff</text>
</a>
</g>
</g>
<!-- Node1&#45;&gt;Node2 -->
<g id="edge1_Node000001_Node000002" class="edge">
<title>Node1&#45;&gt;Node2</title>
<g id="a_edge1_Node000001_Node000002"><a xlink:title=" ">
<path fill="none" stroke="#63b8ff" d="M130.17,-136.88C139.06,-138.28 148.25,-139.73 157.3,-141.16"/>
<polygon fill="#63b8ff" stroke="#63b8ff" points="156.73,-144.61 167.15,-142.71 157.82,-137.7 156.73,-144.61"/>
</a>
</g>
</g>
<!-- Node151 -->
<g id="Node000151" class="node">
<title>Node151</title>
<g id="a_Node000151"><a xlink:href="m__ui_8c.html#a3db1223191628ba0e7dd7ca3c2c8a529" target="_top" xlink:title=" ">
<polygon fill="white" stroke="#666666" points="297.5,-117.5 166,-117.5 166,-84 297.5,-84 297.5,-117.5"/>
<text xml:space="preserve" text-anchor="start" x="174" y="-104" font-family="Helvetica,sans-Serif" font-size="10.00">create_standard_button</text>
<text xml:space="preserve" text-anchor="middle" x="231.75" y="-91.25" font-family="Helvetica,sans-Serif" font-size="10.00">_click_short</text>
</a>
</g>
</g>
<!-- Node1&#45;&gt;Node151 -->
<g id="edge24_Node000001_Node000151" class="edge">
<title>Node1&#45;&gt;Node151</title>
<g id="a_edge24_Node000001_Node000151"><a xlink:title=" ">
<path fill="none" stroke="#63b8ff" d="M130.17,-116.62C138.09,-115.37 146.25,-114.09 154.33,-112.81"/>
<polygon fill="#63b8ff" stroke="#63b8ff" points="154.84,-116.27 164.18,-111.26 153.75,-109.36 154.84,-116.27"/>
</a>
</g>
</g>
<!-- Node3 -->
<g id="Node000003" class="node">
<title>Node3</title>
<g id="a_Node000003"><a xlink:href="m__transformer__view_8c.html#abdac4f3fa193f00e3ecab0e63ca90055" target="_top" xlink:title=" ">
<polygon fill="white" stroke="#666666" points="481.12,-393.5 371.38,-393.5 371.38,-360 481.12,-360 481.12,-393.5"/>
<text xml:space="preserve" text-anchor="start" x="379.38" y="-380" font-family="Helvetica,sans-Serif" font-size="10.00">create_transformer</text>
<text xml:space="preserve" text-anchor="middle" x="426.25" y="-367.25" font-family="Helvetica,sans-Serif" font-size="10.00">_view_ui</text>
</a>
</g>
</g>
<!-- Node2&#45;&gt;Node3 -->
<g id="edge2_Node000002_Node000003" class="edge">
<title>Node2&#45;&gt;Node3</title>
<g id="a_edge2_Node000002_Node000003"><a xlink:title=" ">
<path fill="none" stroke="#63b8ff" d="M245.24,-169.9C263.77,-195.05 299.94,-243.14 333.5,-281.75 354.89,-306.36 380.83,-332.95 399.67,-351.72"/>
<polygon fill="#63b8ff" stroke="#63b8ff" points="397.13,-354.14 406.7,-358.69 402.06,-349.17 397.13,-354.14"/>
</a>
</g>
</g>
<!-- Node74 -->
<g id="Node000074" class="node">
<title>Node74</title>
<g id="a_Node000074"><a xlink:href="m__ui_8c.html#ac3fd93d055094ed9bd458eb283af7c04" target="_top" xlink:title=" ">
<polygon fill="white" stroke="#666666" points="497.62,-202.12 354.88,-202.12 354.88,-181.38 497.62,-181.38 497.62,-202.12"/>
<text xml:space="preserve" text-anchor="middle" x="426.25" y="-188.62" font-family="Helvetica,sans-Serif" font-size="10.00">enter_ui_page_backwards</text>
</a>
</g>
</g>
<!-- Node2&#45;&gt;Node74 -->
<g id="edge10_Node000002_Node000074" class="edge">
<title>Node2&#45;&gt;Node74</title>
<g id="a_edge10_Node000002_Node000074"><a xlink:title=" ">
<path fill="none" stroke="#63b8ff" d="M294.98,-165.36C315.93,-169.6 339.35,-174.35 360.49,-178.63"/>
<polygon fill="#63b8ff" stroke="#63b8ff" points="359.66,-182.03 370.16,-180.59 361.05,-175.17 359.66,-182.03"/>
</a>
</g>
</g>
<!-- Node77 -->
<g id="Node000077" class="node">
<title>Node77</title>
<g id="a_Node000077"><a xlink:href="m__profile_8c.html#a01a263a3178ca21ca06b9815f753b9dc" target="_top" xlink:title=" ">
<polygon fill="white" stroke="#666666" points="519,-124.12 333.5,-124.12 333.5,-103.38 519,-103.38 519,-124.12"/>
<text xml:space="preserve" text-anchor="middle" x="426.25" y="-110.62" font-family="Helvetica,sans-Serif" font-size="10.00">m_profile_append_transformer_eff</text>
</a>
</g>
</g>
<!-- Node2&#45;&gt;Node77 -->
<g id="edge13_Node000002_Node000077" class="edge">
<title>Node2&#45;&gt;Node77</title>
<g id="a_edge13_Node000002_Node000077"><a xlink:title=" ">
<path fill="none" stroke="#63b8ff" d="M294.98,-140.14C315.93,-135.9 339.35,-131.15 360.49,-126.87"/>
<polygon fill="#63b8ff" stroke="#63b8ff" points="361.05,-130.33 370.16,-124.91 359.66,-123.47 361.05,-130.33"/>
</a>
</g>
</g>
<!-- Node41 -->
<g id="Node000041" class="node">
<title>Node41</title>
<g id="a_Node000041"><a xlink:href="m__profile_8c.html#a9161b482b0dc7522ee6c65b863b7e1c6" target="_top" xlink:title=" ">
<polygon fill="#fff0f0" stroke="red" points="481.12,-85.5 371.38,-85.5 371.38,-52 481.12,-52 481.12,-85.5"/>
<text xml:space="preserve" text-anchor="start" x="379.38" y="-72" font-family="Helvetica,sans-Serif" font-size="10.00">m_profile_if_active</text>
<text xml:space="preserve" text-anchor="middle" x="426.25" y="-59.25" font-family="Helvetica,sans-Serif" font-size="10.00">_update_fpga</text>
</a>
</g>
</g>
<!-- Node2&#45;&gt;Node41 -->
<g id="edge16_Node000002_Node000041" class="edge">
<title>Node2&#45;&gt;Node41</title>
<g id="a_edge16_Node000002_Node000041"><a xlink:title=" ">
<path fill="none" stroke="#63b8ff" d="M281.05,-135.53C286.74,-132.87 292.35,-129.94 297.5,-126.75 315.7,-115.48 314.73,-105.04 333.5,-94.75 341.85,-90.17 351.07,-86.34 360.36,-83.15"/>
<polygon fill="#63b8ff" stroke="#63b8ff" points="361.34,-86.51 369.81,-80.15 359.22,-79.84 361.34,-86.51"/>
</a>
</g>
</g>
<!-- Node106 -->
<g id="Node000106" class="node">
<title>Node106</title>
<g id="a_Node000106"><a xlink:href="m__profile_8c.html#a3e0dbd889a2ea32d7abb63f31b1c04ac" target="_top" xlink:title=" ">
<polygon fill="white" stroke="#666666" points="517.88,-163.12 334.62,-163.12 334.62,-142.38 517.88,-142.38 517.88,-163.12"/>
<text xml:space="preserve" text-anchor="middle" x="426.25" y="-149.62" font-family="Helvetica,sans-Serif" font-size="10.00">m_profile_update_representations</text>
</a>
</g>
</g>
<!-- Node2&#45;&gt;Node106 -->
<g id="edge17_Node000002_Node000106" class="edge">
<title>Node2&#45;&gt;Node106</title>
<g id="a_edge17_Node000002_Node000106"><a xlink:title=" ">
<path fill="none" stroke="#63b8ff" d="M294.98,-152.75C303.98,-152.75 313.44,-152.75 322.98,-152.75"/>
<polygon fill="#63b8ff" stroke="#63b8ff" points="322.67,-156.25 332.67,-152.75 322.67,-149.25 322.67,-156.25"/>
</a>
</g>
</g>
<!-- Node107 -->
<g id="Node000107" class="node">
<title>Node107</title>
<g id="a_Node000107"><a xlink:href="m__transformer_8h.html#a558ed3be285c90a47c51218a6feb5f28" target="_top" xlink:title=" ">
<polygon fill="white" stroke="#666666" points="481.12,-33.5 371.38,-33.5 371.38,0 481.12,0 481.12,-33.5"/>
<text xml:space="preserve" text-anchor="start" x="379.38" y="-20" font-family="Helvetica,sans-Serif" font-size="10.00">m_transformer_init</text>
<text xml:space="preserve" text-anchor="middle" x="426.25" y="-7.25" font-family="Helvetica,sans-Serif" font-size="10.00">_view_page</text>
</a>
</g>
</g>
<!-- Node2&#45;&gt;Node107 -->
<g id="edge19_Node000002_Node000107" class="edge">
<title>Node2&#45;&gt;Node107</title>
<g id="a_edge19_Node000002_Node000107"><a xlink:title=" ">
<path fill="none" stroke="#63b8ff" d="M285.85,-135.69C290.07,-133.1 294.03,-130.14 297.5,-126.75 326.55,-98.36 302.99,-69.56 333.5,-42.75 341.26,-35.93 350.69,-30.89 360.52,-27.16"/>
<polygon fill="#63b8ff" stroke="#63b8ff" points="361.44,-30.55 369.84,-24.09 359.25,-23.9 361.44,-30.55"/>
</a>
</g>
</g>
<!-- Node108 -->
<g id="Node000108" class="node">
<title>Node108</title>
<g id="a_Node000108"><a xlink:href="m__profile__view_8c.html#a7a5be31e096c8437e2dc12359a898d9b" target="_top" xlink:title=" ">
<polygon fill="white" stroke="#666666" points="484.88,-272.5 367.62,-272.5 367.62,-239 484.88,-239 484.88,-272.5"/>
<text xml:space="preserve" text-anchor="start" x="375.62" y="-259" font-family="Helvetica,sans-Serif" font-size="10.00">profile_view_append</text>
<text xml:space="preserve" text-anchor="middle" x="426.25" y="-246.25" font-family="Helvetica,sans-Serif" font-size="10.00">_transformer</text>
</a>
</g>
</g>
<!-- Node2&#45;&gt;Node108 -->
<g id="edge20_Node000002_Node000108" class="edge">
<title>Node2&#45;&gt;Node108</title>
<g id="a_edge20_Node000002_Node000108"><a xlink:title=" ">
<path fill="none" stroke="#63b8ff" d="M261.13,-169.76C281.16,-181.6 308.74,-197.57 333.5,-210.75 347.99,-218.46 364,-226.48 378.53,-233.58"/>
<polygon fill="#63b8ff" stroke="#63b8ff" points="376.91,-236.68 387.44,-237.9 379.97,-230.39 376.91,-236.68"/>
</a>
</g>
</g>
<!-- Node4 -->
<g id="Node000004" class="node">
<title>Node4</title>
<g id="a_Node000004"><a xlink:href="m__transformer__settings_8c.html#afb5bf8a00e5c72cfd3acb32e3d3c763b" target="_top" xlink:title=" ">
<polygon fill="#fff0f0" stroke="red" points="706.38,-457.5 596.62,-457.5 596.62,-424 706.38,-424 706.38,-457.5"/>
<text xml:space="preserve" text-anchor="start" x="604.62" y="-444" font-family="Helvetica,sans-Serif" font-size="10.00">create_transformer</text>
<text xml:space="preserve" text-anchor="middle" x="651.5" y="-431.25" font-family="Helvetica,sans-Serif" font-size="10.00">_settings_page_ui</text>
</a>
</g>
</g>
<!-- Node3&#45;&gt;Node4 -->
<g id="edge3_Node000003_Node000004" class="edge">
<title>Node3&#45;&gt;Node4</title>
<g id="a_edge3_Node000003_Node000004"><a xlink:title=" ">
<path fill="none" stroke="#63b8ff" d="M481.58,-392.32C512.89,-401.3 552.45,-412.64 585.41,-422.09"/>
<polygon fill="#63b8ff" stroke="#63b8ff" points="584.28,-425.41 594.86,-424.8 586.21,-418.68 584.28,-425.41"/>
</a>
</g>
</g>
<!-- Node7 -->
<g id="Node000007" class="node">
<title>Node7</title>
<g id="a_Node000007"><a xlink:href="m__parameter__widget_8c.html#acb0704e7866f9ff20b05d6665fc63f02" target="_top" xlink:title=" ">
<polygon fill="#fff0f0" stroke="red" points="939.5,-473.12 784,-473.12 784,-452.38 939.5,-452.38 939.5,-473.12"/>
<text xml:space="preserve" text-anchor="middle" x="861.75" y="-459.62" font-family="Helvetica,sans-Serif" font-size="10.00">parameter_widget_create_ui</text>
</a>
</g>
</g>
<!-- Node3&#45;&gt;Node7 -->
<g id="edge7_Node000003_Node000007" class="edge">
<title>Node3&#45;&gt;Node7</title>
<g id="a_edge7_Node000003_Node000007"><a xlink:title=" ">
<path fill="none" stroke="#63b8ff" d="M443.93,-393.77C466.66,-415.62 509.74,-452.41 555,-466.75 634.61,-491.98 731.82,-484.69 794.95,-475.32"/>
<polygon fill="#63b8ff" stroke="#63b8ff" points="795.1,-478.84 804.45,-473.85 794.03,-471.92 795.1,-478.84"/>
</a>
</g>
</g>
<!-- Node20 -->
<g id="Node000020" class="node">
<title>Node20</title>
<g id="a_Node000020"><a xlink:href="m__ui_8c.html#aeb5818cdaae65980fbd2c19ddd24c08a" target="_top" xlink:title=" ">
<polygon fill="#fff0f0" stroke="red" points="928.25,-409.12 795.25,-409.12 795.25,-388.38 928.25,-388.38 928.25,-409.12"/>
<text xml:space="preserve" text-anchor="middle" x="861.75" y="-395.62" font-family="Helvetica,sans-Serif" font-size="10.00">ui_page_create_base_ui</text>
</a>
</g>
</g>
<!-- Node3&#45;&gt;Node20 -->
<g id="edge9_Node000003_Node000020" class="edge">
<title>Node3&#45;&gt;Node20</title>
<g id="a_edge9_Node000003_Node000020"><a xlink:title=" ">
<path fill="none" stroke="#63b8ff" d="M481.28,-379.49C557.41,-383.36 696.67,-390.42 783.66,-394.84"/>
<polygon fill="#63b8ff" stroke="#63b8ff" points="783.37,-398.33 793.53,-395.34 783.72,-391.34 783.37,-398.33"/>
</a>
</g>
</g>
<!-- Node32 -->
<g id="Node000032" class="node">
<title>Node32</title>
<g id="a_Node000032"><a xlink:href="m__transformer_8c.html#aa1fa9e7e74e4a4c0d99515a1c844bd0a" target="_top" xlink:title=" ">
<polygon fill="white" stroke="#666666" points="712.38,-329.12 590.62,-329.12 590.62,-308.38 712.38,-308.38 712.38,-329.12"/>
<text xml:space="preserve" text-anchor="middle" x="651.5" y="-315.62" font-family="Helvetica,sans-Serif" font-size="10.00">m_transformer_name</text>
</a>
</g>
</g>
<!-- Node3&#45;&gt;Node32 -->
<g id="edge6_Node000003_Node000032" class="edge">
<title>Node3&#45;&gt;Node32</title>
<g id="a_edge6_Node000003_Node000032"><a xlink:title=" ">
<path fill="none" stroke="#63b8ff" d="M481.37,-359.57C504.01,-352.67 530.66,-344.91 555,-338.75 564.21,-336.42 573.96,-334.15 583.58,-332.03"/>
<polygon fill="#63b8ff" stroke="#63b8ff" points="584.26,-335.47 593.29,-329.93 582.78,-328.62 584.26,-335.47"/>
</a>
</g>
</g>
<!-- Node33 -->
<g id="Node000033" class="node">
<title>Node33</title>
<g id="a_Node000033"><a xlink:href="m__parameter__widget_8c.html#ab06e101eb6fc91d042f073165b565cf8" target="_top" xlink:title=" ">
<polygon fill="#fff0f0" stroke="red" points="720.62,-368.12 582.38,-368.12 582.38,-347.38 720.62,-347.38 720.62,-368.12"/>
<text xml:space="preserve" text-anchor="middle" x="651.5" y="-354.62" font-family="Helvetica,sans-Serif" font-size="10.00">setting_widget_create_ui</text>
</a>
</g>
</g>
<!-- Node3&#45;&gt;Node33 -->
<g id="edge8_Node000003_Node000033" class="edge">
<title>Node3&#45;&gt;Node33</title>
<g id="a_edge8_Node000003_Node000033"><a xlink:title=" ">
<path fill="none" stroke="#63b8ff" d="M481.58,-372.13C508.36,-369.85 541.18,-367.05 570.74,-364.54"/>
<polygon fill="#63b8ff" stroke="#63b8ff" points="570.71,-368.05 580.38,-363.72 570.12,-361.08 570.71,-368.05"/>
</a>
</g>
</g>
<!-- Node4&#45;&gt;Node7 -->
<g id="edge4_Node000004_Node000007" class="edge">
<title>Node4&#45;&gt;Node7</title>
<g id="a_edge4_Node000004_Node000007"><a xlink:title=" ">
<path fill="none" stroke="#63b8ff" d="M706.67,-446.47C726.78,-448.6 750.14,-451.06 772.5,-453.43"/>
<polygon fill="#63b8ff" stroke="#63b8ff" points="771.9,-456.88 782.22,-454.45 772.64,-449.92 771.9,-456.88"/>
</a>
</g>
</g>
<!-- Node4&#45;&gt;Node20 -->
<g id="edge5_Node000004_Node000020" class="edge">
<title>Node4&#45;&gt;Node20</title>
<g id="a_edge5_Node000004_Node000020"><a xlink:title=" ">
<path fill="none" stroke="#63b8ff" d="M706.67,-429.82C733.91,-424.33 767.12,-417.63 795.73,-411.86"/>
<polygon fill="#63b8ff" stroke="#63b8ff" points="796.26,-415.33 805.37,-409.92 794.87,-408.47 796.26,-415.33"/>
</a>
</g>
</g>
<!-- Node75 -->
<g id="Node000075" class="node">
<title>Node75</title>
<g id="a_Node000075"><a xlink:href="m__context_8c.html#a714ca532031e59915d88a683682f2802" target="_top" xlink:title=" ">
<polygon fill="white" stroke="#666666" points="721.38,-200.12 581.62,-200.12 581.62,-179.38 721.38,-179.38 721.38,-200.12"/>
<text xml:space="preserve" text-anchor="middle" x="651.5" y="-186.62" font-family="Helvetica,sans-Serif" font-size="10.00">m_cxt_queue_save_state</text>
</a>
</g>
</g>
<!-- Node74&#45;&gt;Node75 -->
<g id="edge11_Node000074_Node000075" class="edge">
<title>Node74&#45;&gt;Node75</title>
<g id="a_edge11_Node000074_Node000075"><a xlink:title=" ">
<path fill="none" stroke="#63b8ff" d="M497.89,-191.12C520.83,-190.91 546.46,-190.68 570.06,-190.47"/>
<polygon fill="#63b8ff" stroke="#63b8ff" points="569.99,-193.97 579.95,-190.38 569.92,-186.97 569.99,-193.97"/>
</a>
</g>
</g>
<!-- Node76 -->
<g id="Node000076" class="node">
<title>Node76</title>
<g id="a_Node000076"><a xlink:href="m__representation_8c.html#a7739919401d0c7058bf04cc082a1b6d5" target="_top" xlink:title=" ">
<polygon fill="white" stroke="#666666" points="923,-187.5 800.5,-187.5 800.5,-154 923,-154 923,-187.5"/>
<text xml:space="preserve" text-anchor="start" x="808.5" y="-174" font-family="Helvetica,sans-Serif" font-size="10.00">queue_representation</text>
<text xml:space="preserve" text-anchor="middle" x="861.75" y="-161.25" font-family="Helvetica,sans-Serif" font-size="10.00">_list_update</text>
</a>
</g>
</g>
<!-- Node75&#45;&gt;Node76 -->
<g id="edge12_Node000075_Node000076" class="edge">
<title>Node75&#45;&gt;Node76</title>
<g id="a_edge12_Node000075_Node000076"><a xlink:title=" ">
<path fill="none" stroke="#63b8ff" d="M721.84,-183.42C743.31,-181.47 767,-179.3 788.64,-177.33"/>
<polygon fill="#63b8ff" stroke="#63b8ff" points="788.94,-180.82 798.58,-176.42 788.31,-173.84 788.94,-180.82"/>
</a>
</g>
</g>
<!-- Node78 -->
<g id="Node000078" class="node">
<title>Node78</title>
<g id="a_Node000078"><a xlink:href="m__pipeline_8c.html#a65d3d1e281cbed15cd98d47ee1c62de5" target="_top" xlink:title=" ">
<polygon fill="#fff0f0" stroke="red" points="748,-124.12 555,-124.12 555,-103.38 748,-103.38 748,-124.12"/>
<text xml:space="preserve" text-anchor="middle" x="651.5" y="-110.62" font-family="Helvetica,sans-Serif" font-size="10.00">m_pipeline_append_transformer_eff</text>
</a>
</g>
</g>
<!-- Node77&#45;&gt;Node78 -->
<g id="edge14_Node000077_Node000078" class="edge">
<title>Node77&#45;&gt;Node78</title>
<g id="a_edge14_Node000077_Node000078"><a xlink:title=" ">
<path fill="none" stroke="#63b8ff" d="M519.34,-113.75C527.26,-113.75 535.32,-113.75 543.34,-113.75"/>
<polygon fill="#63b8ff" stroke="#63b8ff" points="543.13,-117.25 553.13,-113.75 543.13,-110.25 543.13,-117.25"/>
</a>
</g>
</g>
<!-- Node105 -->
<g id="Node000105" class="node">
<title>Node105</title>
<g id="a_Node000105"><a xlink:href="m__transformer_8c.html#aab76ab229df5b4b35748c5b89e61f8ce" target="_top" xlink:title=" ">
<polygon fill="white" stroke="#666666" points="706.75,-85.5 596.25,-85.5 596.25,-52 706.75,-52 706.75,-85.5"/>
<text xml:space="preserve" text-anchor="start" x="604.25" y="-72" font-family="Helvetica,sans-Serif" font-size="10.00">transformer_rectify</text>
<text xml:space="preserve" text-anchor="middle" x="651.5" y="-59.25" font-family="Helvetica,sans-Serif" font-size="10.00">_param_ids</text>
</a>
</g>
</g>
<!-- Node77&#45;&gt;Node105 -->
<g id="edge15_Node000077_Node000105" class="edge">
<title>Node77&#45;&gt;Node105</title>
<g id="a_edge15_Node000077_Node000105"><a xlink:title=" ">
<path fill="none" stroke="#63b8ff" d="M481.01,-102.91C512.31,-96.61 551.99,-88.61 585.09,-81.93"/>
<polygon fill="#63b8ff" stroke="#63b8ff" points="585.45,-85.43 594.56,-80.03 584.07,-78.57 585.45,-85.43"/>
</a>
</g>
</g>
<!-- Node106&#45;&gt;Node76 -->
<g id="edge18_Node000106_Node000076" class="edge">
<title>Node106&#45;&gt;Node76</title>
<g id="a_edge18_Node000106_Node000076"><a xlink:title=" ">
<path fill="none" stroke="#63b8ff" d="M518.13,-156.52C598.77,-159.87 714.99,-164.7 789.19,-167.78"/>
<polygon fill="#63b8ff" stroke="#63b8ff" points="788.63,-171.26 798.76,-168.18 788.92,-164.26 788.63,-171.26"/>
</a>
</g>
</g>
<!-- Node108&#45;&gt;Node32 -->
<g id="edge23_Node000108_Node000032" class="edge">
<title>Node108&#45;&gt;Node32</title>
<g id="a_edge23_Node000108_Node000032"><a xlink:title=" ">
<path fill="none" stroke="#63b8ff" d="M472.31,-272.94C496.57,-281.77 527.15,-292.22 555,-299.75 562.8,-301.86 571.01,-303.84 579.21,-305.67"/>
<polygon fill="#63b8ff" stroke="#63b8ff" points="578.36,-309.07 588.87,-307.75 579.83,-302.23 578.36,-309.07"/>
</a>
</g>
</g>
<!-- Node109 -->
<g id="Node000109" class="node">
<title>Node109</title>
<g id="a_Node000109"><a xlink:href="m__button_8c.html#a5692c243172ed156d2fd4cc77fe1aae2" target="_top" xlink:title=" ">
<polygon fill="#fff0f0" stroke="red" points="715.75,-290.5 587.25,-290.5 587.25,-257 715.75,-257 715.75,-290.5"/>
<text xml:space="preserve" text-anchor="start" x="595.25" y="-277" font-family="Helvetica,sans-Serif" font-size="10.00">m_active_button_array</text>
<text xml:space="preserve" text-anchor="middle" x="651.5" y="-264.25" font-family="Helvetica,sans-Serif" font-size="10.00">_append_new</text>
</a>
</g>
</g>
<!-- Node108&#45;&gt;Node109 -->
<g id="edge21_Node000108_Node000109" class="edge">
<title>Node108&#45;&gt;Node109</title>
<g id="a_edge21_Node000108_Node000109"><a xlink:title=" ">
<path fill="none" stroke="#63b8ff" d="M485.32,-260.43C512.93,-262.66 546.27,-265.35 575.74,-267.72"/>
<polygon fill="#63b8ff" stroke="#63b8ff" points="575.07,-271.18 585.32,-268.49 575.64,-264.2 575.07,-271.18"/>
</a>
</g>
</g>
<!-- Node150 -->
<g id="Node000150" class="node">
<title>Node150</title>
<g id="a_Node000150"><a xlink:href="m__button_8c.html#a2e5dcaad98182e8c4200cad5a48bef86" target="_top" xlink:title=" ">
<polygon fill="#fff0f0" stroke="red" points="725.5,-239.12 577.5,-239.12 577.5,-218.38 725.5,-218.38 725.5,-239.12"/>
<text xml:space="preserve" text-anchor="middle" x="651.5" y="-225.62" font-family="Helvetica,sans-Serif" font-size="10.00">m_active_button_create_ui</text>
</a>
</g>
</g>
<!-- Node108&#45;&gt;Node150 -->
<g id="edge22_Node000108_Node000150" class="edge">
<title>Node108&#45;&gt;Node150</title>
<g id="a_edge22_Node000108_Node000150"><a xlink:title=" ">
<path fill="none" stroke="#63b8ff" d="M485.32,-248.73C509.85,-245.76 538.91,-242.25 565.75,-239"/>
<polygon fill="#63b8ff" stroke="#63b8ff" points="566.1,-242.48 575.6,-237.81 565.26,-235.53 566.1,-242.48"/>
</a>
</g>
</g>
</g>
</svg>

<g id="navigator" transform="translate(0 0)" fill="#404254">
  <rect fill="#f2f5e9" fill-opacity="0.5" stroke="#606060" stroke-width=".5" x="0" y="0" width="60" height="60"/>
  <use id="zoomplus" xlink:href="#zoomPlus" x="17" y="9" onmousedown="handleZoom(evt,'in')"/>
  <use id="zoomminus" xlink:href="#zoomMin" x="42" y="9" onmousedown="handleZoom(evt,'out')"/>
  <use id="reset" xlink:href="#resetDef" x="30" y="36" onmousedown="handleReset()"/>
   <use id="arrowup" xlink:href="#arrowUp" x="0" y="0" onmousedown="handlePan(0,-1)"/>
  <use id="arrowright" xlink:href="#arrowRight" x="0" y="0" onmousedown="handlePan(1,0)"/>
  <use id="arrowdown" xlink:href="#arrowDown" x="0" y="0" onmousedown="handlePan(0,1)"/>
  <use id="arrowleft" xlink:href="#arrowLeft" x="0" y="0" onmousedown="handlePan(-1,0)"/>
</g>
<svg viewBox="0 0 15 15" width="100%" height="30px" preserveAspectRatio="xMaxYMin meet">
 <g id="arrow_out" transform="scale(0.3 0.3)">
  <a xlink:href="m__transformer__select_8c_a26bc01d09200b28d05f5786f45a0cc59_cgraph_org.svg" target="_base">
   <rect id="button" ry="5" rx="5" y="6" x="6" height="38" width="38"
        fill="#f2f5e9" fill-opacity="0.5" stroke="#606060" stroke-width="1.0"/>
   <path id="arrow"
     d="M 11.500037,31.436501 C 11.940474,20.09759 22.043105,11.32322 32.158766,21.979434 L 37.068811,17.246167 C 37.068811,17.246167 37.088388,32 37.088388,32 L 22.160133,31.978069 C 22.160133,31.978069 26.997745,27.140456 26.997745,27.140456 C 18.528582,18.264221 13.291696,25.230495 11.500037,31.436501 z"
     style="fill:#404040;"/>
  </a>
 </g>
</svg>

<style type='text/css'>
<![CDATA[
[data-mouse-over-selected='false'] { opacity: 0.7; }
[data-mouse-over-selected='true']  { opacity: 1.0; }
]]>
</style>
<script type="application/ecmascript"><![CDATA[
document.addEventListener('DOMContentLoaded', (event) => {
  highlightEdges();
  highlightAdjacentNodes();
});
]]></script>
</svg>
