<?xml version="1.0" encoding="UTF-8" standalone="no"?>
<!DOCTYPE svg PUBLIC "-//W3C//DTD SVG 1.1//EN"
 "http://www.w3.org/Graphics/SVG/1.1/DTD/svg11.dtd">
<!-- Generated by graphviz version 13.1.2 (20250808.2320)
 -->
<!-- Title: init_dirty_octave Pages: 1 -->
<svg width="618pt" height="42pt"
 viewBox="0.00 0.00 618.00 42.00" xmlns="http://www.w3.org/2000/svg" xmlns:xlink="http://www.w3.org/1999/xlink">
<g id="graph0" class="graph" transform="scale(1 1) rotate(0) translate(4 37.5)">
<title>init_dirty_octave</title>
<!-- Node1 -->
<g id="Node000001" class="node">
<title>Node1</title>
<g id="a_Node000001"><a xlink:title=" ">
<polygon fill="#999999" stroke="#666666" points="97.75,-27.12 0,-27.12 0,-6.38 97.75,-6.38 97.75,-27.12"/>
<text xml:space="preserve" text-anchor="middle" x="48.88" y="-13.62" font-family="Helvetica,sans-Serif" font-size="10.00">init_dirty_octave</text>
</a>
</g>
</g>
<!-- Node2 -->
<g id="Node000002" class="node">
<title>Node2</title>
<g id="a_Node000002"><a xlink:href="m__transformer_8c.html#a88beb1d51afb0c611869385a0e6c4184" target="_top" xlink:title=" ">
<polygon fill="white" stroke="#666666" points="287,-27.12 133.75,-27.12 133.75,-6.38 287,-6.38 287,-27.12"/>
<text xml:space="preserve" text-anchor="middle" x="210.38" y="-13.62" font-family="Helvetica,sans-Serif" font-size="10.00">transformer_add_parameter</text>
</a>
</g>
</g>
<!-- Node1&#45;&gt;Node2 -->
<g id="edge1_Node000001_Node000002" class="edge">
<title>Node1&#45;&gt;Node2</title>
<g id="a_edge1_Node000001_Node000002"><a xlink:title=" ">
<path fill="none" stroke="#63b8ff" d="M98.16,-16.75C105.7,-16.75 113.69,-16.75 121.79,-16.75"/>
<polygon fill="#63b8ff" stroke="#63b8ff" points="121.76,-20.25 131.76,-16.75 121.76,-13.25 121.76,-20.25"/>
</a>
</g>
</g>
<!-- Node3 -->
<g id="Node000003" class="node">
<title>Node3</title>
<g id="a_Node000003"><a xlink:href="m__parameter_8c.html#ac9a28134818c14fbd7ef921b535b28d8" target="_top" xlink:title=" ">
<polygon fill="white" stroke="#666666" points="429,-27.12 323,-27.12 323,-6.38 429,-6.38 429,-27.12"/>
<text xml:space="preserve" text-anchor="middle" x="376" y="-13.62" font-family="Helvetica,sans-Serif" font-size="10.00">init_parameter_str</text>
</a>
</g>
</g>
<!-- Node2&#45;&gt;Node3 -->
<g id="edge2_Node000002_Node000003" class="edge">
<title>Node2&#45;&gt;Node3</title>
<g id="a_edge2_Node000002_Node000003"><a xlink:title=" ">
<path fill="none" stroke="#63b8ff" d="M287.44,-16.75C295.51,-16.75 303.66,-16.75 311.57,-16.75"/>
<polygon fill="#63b8ff" stroke="#63b8ff" points="311.43,-20.25 321.43,-16.75 311.43,-13.25 311.43,-20.25"/>
</a>
</g>
</g>
<!-- Node4 -->
<g id="Node000004" class="node">
<title>Node4</title>
<g id="a_Node000004"><a xlink:href="m__parameter_8c.html#a744a766adca7a0a1b6b1aeb3e68548ce" target="_top" xlink:title=" ">
<polygon fill="#fff0f0" stroke="red" points="610,-33.5 465,-33.5 465,0 610,0 610,-33.5"/>
<text xml:space="preserve" text-anchor="start" x="473" y="-20" font-family="Helvetica,sans-Serif" font-size="10.00">m_parameter_transformer</text>
<text xml:space="preserve" text-anchor="middle" x="537.5" y="-7.25" font-family="Helvetica,sans-Serif" font-size="10.00">_rep_update</text>
</a>
</g>
</g>
<!-- Node3&#45;&gt;Node4 -->
<g id="edge3_Node000003_Node000004" class="edge">
<title>Node3&#45;&gt;Node4</title>
<g id="a_edge3_Node000003_Node000004"><a xlink:title=" ">
<path fill="none" stroke="#63b8ff" d="M429.23,-16.75C437.03,-16.75 445.24,-16.75 453.5,-16.75"/>
<polygon fill="#63b8ff" stroke="#63b8ff" points="453.24,-20.25 463.24,-16.75 453.24,-13.25 453.24,-20.25"/>
</a>
</g>
</g>
</g>
</svg>
