<?xml version="1.0" encoding="UTF-8" standalone="no"?>
<!DOCTYPE svg PUBLIC "-//W3C//DTD SVG 1.1//EN"
 "http://www.w3.org/Graphics/SVG/1.1/DTD/svg11.dtd">
<!-- Generated by graphviz version 13.1.2 (20250808.2320)
 -->
<!-- Title: m_token_ll_safe_aappend Pages: 1 -->
<svg width="635pt" height="68pt"
 viewBox="0.00 0.00 635.00 68.00" xmlns="http://www.w3.org/2000/svg" xmlns:xlink="http://www.w3.org/1999/xlink">
<g id="graph0" class="graph" transform="scale(1 1) rotate(0) translate(4 63.75)">
<title>m_token_ll_safe_aappend</title>
<!-- Node1 -->
<g id="Node000001" class="node">
<title>Node1</title>
<g id="a_Node000001"><a xlink:title=" ">
<polygon fill="#999999" stroke="#666666" points="626.5,-39.75 483.75,-39.75 483.75,-19 626.5,-19 626.5,-39.75"/>
<text xml:space="preserve" text-anchor="middle" x="555.12" y="-26.25" font-family="Helvetica,sans-Serif" font-size="10.00">m_token_ll_safe_aappend</text>
</a>
</g>
</g>
<!-- Node2 -->
<g id="Node000002" class="node">
<title>Node2</title>
<g id="a_Node000002"><a xlink:href="m__tokenizer_8c.html#a547be168c347275a0fbddc72c7d518b4" target="_top" xlink:title=" ">
<polygon fill="white" stroke="#666666" points="447.75,-58.75 335,-58.75 335,-38 447.75,-38 447.75,-58.75"/>
<text xml:space="preserve" text-anchor="middle" x="391.38" y="-45.25" font-family="Helvetica,sans-Serif" font-size="10.00">m_token_span_to_ll</text>
</a>
</g>
</g>
<!-- Node1&#45;&gt;Node2 -->
<g id="edge1_Node000001_Node000002" class="edge">
<title>Node1&#45;&gt;Node2</title>
<g id="a_edge1_Node000001_Node000002"><a xlink:title=" ">
<path fill="none" stroke="#63b8ff" d="M472.42,-38.97C464.16,-39.94 455.92,-40.91 448.03,-41.84"/>
<polygon fill="#63b8ff" stroke="#63b8ff" points="472.62,-42.47 482.15,-37.83 471.81,-35.52 472.62,-42.47"/>
</a>
</g>
</g>
<!-- Node9 -->
<g id="Node000009" class="node">
<title>Node9</title>
<g id="a_Node000009"><a xlink:href="m__tokenizer_8c.html#a8f302737f17d0ebe5a59362afcf57b13" target="_top" xlink:title=" ">
<polygon fill="white" stroke="#666666" points="299,-20.75 184.75,-20.75 184.75,0 299,0 299,-20.75"/>
<text xml:space="preserve" text-anchor="middle" x="241.88" y="-7.25" font-family="Helvetica,sans-Serif" font-size="10.00">m_tokenize_content</text>
</a>
</g>
</g>
<!-- Node1&#45;&gt;Node9 -->
<g id="edge4_Node000001_Node000009" class="edge">
<title>Node1&#45;&gt;Node9</title>
<g id="a_edge4_Node000001_Node000009"><a xlink:title=" ">
<path fill="none" stroke="#63b8ff" d="M472.12,-24.37C417.63,-21.04 347.49,-16.76 299.22,-13.81"/>
<polygon fill="#63b8ff" stroke="#63b8ff" points="471.79,-27.86 481.99,-24.97 472.22,-20.87 471.79,-27.86"/>
</a>
</g>
</g>
<!-- Node3 -->
<g id="Node000003" class="node">
<title>Node3</title>
<g id="a_Node000003"><a xlink:href="m__eff__parser_8c.html#a094727fab3d645bca2ba21a44ecc5749" target="_top" xlink:title=" ">
<polygon fill="white" stroke="#666666" points="289.62,-59.75 194.12,-59.75 194.12,-39 289.62,-39 289.62,-59.75"/>
<text xml:space="preserve" text-anchor="middle" x="241.88" y="-46.25" font-family="Helvetica,sans-Serif" font-size="10.00">m_parse_tokens</text>
</a>
</g>
</g>
<!-- Node2&#45;&gt;Node3 -->
<g id="edge2_Node000002_Node000003" class="edge">
<title>Node2&#45;&gt;Node3</title>
<g id="a_edge2_Node000002_Node000003"><a xlink:title=" ">
<path fill="none" stroke="#63b8ff" d="M323.45,-48.83C312.17,-48.91 300.68,-48.98 290.05,-49.06"/>
<polygon fill="#63b8ff" stroke="#63b8ff" points="323.12,-52.33 333.1,-48.76 323.07,-45.33 323.12,-52.33"/>
</a>
</g>
</g>
<!-- Node4 -->
<g id="Node000004" class="node">
<title>Node4</title>
<g id="a_Node000004"><a xlink:href="m__eff__parser_8c.html#aabfa1bb37d0bead1605fb10e348fe43c" target="_top" xlink:title=" ">
<polygon fill="#fff0f0" stroke="red" points="148.75,-39.75 0,-39.75 0,-19 148.75,-19 148.75,-39.75"/>
<text xml:space="preserve" text-anchor="middle" x="74.38" y="-26.25" font-family="Helvetica,sans-Serif" font-size="10.00">m_read_eff_desc_from_file</text>
</a>
</g>
</g>
<!-- Node3&#45;&gt;Node4 -->
<g id="edge3_Node000003_Node000004" class="edge">
<title>Node3&#45;&gt;Node4</title>
<g id="a_edge3_Node000003_Node000004"><a xlink:title=" ">
<path fill="none" stroke="#63b8ff" d="M182.8,-42.36C171.91,-41.04 160.38,-39.65 149.09,-38.28"/>
<polygon fill="#63b8ff" stroke="#63b8ff" points="182.04,-45.79 192.39,-43.52 182.88,-38.84 182.04,-45.79"/>
</a>
</g>
</g>
<!-- Node9&#45;&gt;Node4 -->
<g id="edge5_Node000009_Node000004" class="edge">
<title>Node9&#45;&gt;Node4</title>
<g id="a_edge5_Node000009_Node000004"><a xlink:title=" ">
<path fill="none" stroke="#63b8ff" d="M173.03,-18.16C165.16,-19.07 157.11,-19.99 149.17,-20.9"/>
<polygon fill="#63b8ff" stroke="#63b8ff" points="173.34,-21.65 182.88,-17.03 172.54,-14.7 173.34,-21.65"/>
</a>
</g>
</g>
</g>
</svg>
