<?xml version="1.0" encoding="UTF-8" standalone="no"?>
<!DOCTYPE svg PUBLIC "-//W3C//DTD SVG 1.1//EN"
 "http://www.w3.org/Graphics/SVG/1.1/DTD/svg11.dtd">
<!-- Generated by graphviz version 13.1.2 (20250808.2320)
 -->
<!-- Title: transformer_view_enter_settings_cb Pages: 1 -->
<svg width="644pt" height="42pt"
 viewBox="0.00 0.00 644.00 42.00" xmlns="http://www.w3.org/2000/svg" xmlns:xlink="http://www.w3.org/1999/xlink">
<g id="graph0" class="graph" transform="scale(1 1) rotate(0) translate(4 37.5)">
<title>transformer_view_enter_settings_cb</title>
<!-- Node1 -->
<g id="Node000001" class="node">
<title>Node1</title>
<g id="a_Node000001"><a xlink:title=" ">
<polygon fill="#999999" stroke="#666666" points="133,-33.5 0,-33.5 0,0 133,0 133,-33.5"/>
<text xml:space="preserve" text-anchor="start" x="8" y="-20" font-family="Helvetica,sans-Serif" font-size="10.00">transformer_view_enter</text>
<text xml:space="preserve" text-anchor="middle" x="66.5" y="-7.25" font-family="Helvetica,sans-Serif" font-size="10.00">_settings_cb</text>
</a>
</g>
</g>
<!-- Node2 -->
<g id="Node000002" class="node">
<title>Node2</title>
<g id="a_Node000002"><a xlink:href="m__ui_8c.html#aceb536b6396e385a34388f9d95f94921" target="_top" xlink:title=" ">
<polygon fill="white" stroke="#666666" points="302,-27.12 169,-27.12 169,-6.38 302,-6.38 302,-27.12"/>
<text xml:space="preserve" text-anchor="middle" x="235.5" y="-13.62" font-family="Helvetica,sans-Serif" font-size="10.00">enter_ui_page_forwards</text>
</a>
</g>
</g>
<!-- Node1&#45;&gt;Node2 -->
<g id="edge1_Node000001_Node000002" class="edge">
<title>Node1&#45;&gt;Node2</title>
<g id="a_edge1_Node000001_Node000002"><a xlink:title=" ">
<path fill="none" stroke="#63b8ff" d="M133.02,-16.75C140.97,-16.75 149.15,-16.75 157.25,-16.75"/>
<polygon fill="#63b8ff" stroke="#63b8ff" points="157.1,-20.25 167.1,-16.75 157.1,-13.25 157.1,-20.25"/>
</a>
</g>
</g>
<!-- Node3 -->
<g id="Node000003" class="node">
<title>Node3</title>
<g id="a_Node000003"><a xlink:href="m__context_8c.html#a714ca532031e59915d88a683682f2802" target="_top" xlink:title=" ">
<polygon fill="white" stroke="#666666" points="477.75,-27.12 338,-27.12 338,-6.38 477.75,-6.38 477.75,-27.12"/>
<text xml:space="preserve" text-anchor="middle" x="407.88" y="-13.62" font-family="Helvetica,sans-Serif" font-size="10.00">m_cxt_queue_save_state</text>
</a>
</g>
</g>
<!-- Node2&#45;&gt;Node3 -->
<g id="edge2_Node000002_Node000003" class="edge">
<title>Node2&#45;&gt;Node3</title>
<g id="a_edge2_Node000002_Node000003"><a xlink:title=" ">
<path fill="none" stroke="#63b8ff" d="M302.37,-16.75C310.2,-16.75 318.26,-16.75 326.26,-16.75"/>
<polygon fill="#63b8ff" stroke="#63b8ff" points="326,-20.25 336,-16.75 326,-13.25 326,-20.25"/>
</a>
</g>
</g>
<!-- Node4 -->
<g id="Node000004" class="node">
<title>Node4</title>
<g id="a_Node000004"><a xlink:href="m__representation_8c.html#a7739919401d0c7058bf04cc082a1b6d5" target="_top" xlink:title=" ">
<polygon fill="white" stroke="#666666" points="636.25,-33.5 513.75,-33.5 513.75,0 636.25,0 636.25,-33.5"/>
<text xml:space="preserve" text-anchor="start" x="521.75" y="-20" font-family="Helvetica,sans-Serif" font-size="10.00">queue_representation</text>
<text xml:space="preserve" text-anchor="middle" x="575" y="-7.25" font-family="Helvetica,sans-Serif" font-size="10.00">_list_update</text>
</a>
</g>
</g>
<!-- Node3&#45;&gt;Node4 -->
<g id="edge3_Node000003_Node000004" class="edge">
<title>Node3&#45;&gt;Node4</title>
<g id="a_edge3_Node000003_Node000004"><a xlink:title=" ">
<path fill="none" stroke="#63b8ff" d="M477.95,-16.75C485.84,-16.75 493.91,-16.75 501.85,-16.75"/>
<polygon fill="#63b8ff" stroke="#63b8ff" points="501.83,-20.25 511.83,-16.75 501.83,-13.25 501.83,-20.25"/>
</a>
</g>
</g>
</g>
</svg>
