<?xml version="1.0" encoding="UTF-8" standalone="no"?>
<!DOCTYPE svg PUBLIC "-//W3C//DTD SVG 1.1//EN"
 "http://www.w3.org/Graphics/SVG/1.1/DTD/svg11.dtd">
<!-- Generated by graphviz version 13.1.2 (20250808.2320)
 -->
<!-- Title: m_effect_profile_rep_update Pages: 1 -->
<!--zoomable 107 -->

<svg id="main" version="1.1" xmlns="http://www.w3.org/2000/svg" xmlns:xlink="http://www.w3.org/1999/xlink" xml:space="preserve" onload="init(evt)">

<style type="text/css"><![CDATA[
.node, .edge {opacity: 0.7;}
.node.selected, .edge.selected {opacity: 1;}
.edge:hover path { stroke: red; }
.edge:hover polygon { stroke: red; fill: red; }
]]></style>

<defs>
  <circle id="rim" cx="0" cy="0" r="7"/>
  <circle id="rim2" cx="0" cy="0" r="3.5"/>
  <g id="zoomPlus">
    <use xlink:href="#rim" fill="#404040"><set attributeName="fill" to="#808080" begin="zoomplus.mouseover" end="zoomplus.mouseout"/></use>
    <path d="M-4,0h8M0,-4v8" fill="none" stroke="white" stroke-width="1.5" pointer-events="none"/>
  </g>
  <g id="zoomMin">
    <use xlink:href="#rim" fill="#404040"><set attributeName="fill" to="#808080" begin="zoomminus.mouseover" end="zoomminus.mouseout"/></use>
    <path d="M-4,0h8" fill="none" stroke="white" stroke-width="1.5" pointer-events="none"/>
  </g>
  <g id="arrowUp" transform="translate(30 24)">
    <use xlink:href="#rim"/>
    <path pointer-events="none" fill="none" stroke="white" stroke-width="1.5" d="M0,-3.0v7 M-2.5,-0.5L0,-3.0L2.5,-0.5"/>
  </g>
  <g id="arrowRight" transform="rotate(90) translate(36 -43)">
    <use xlink:href="#rim"/>
    <path pointer-events="none" fill="none" stroke="white" stroke-width="1.5" d="M0,-3.0v7 M-2.5,-0.5L0,-3.0L2.5,-0.5"/>
  </g>
  <g id="arrowDown" transform="rotate(180) translate(-30 -48)">
    <use xlink:href="#rim"/>
    <path pointer-events="none" fill="none" stroke="white" stroke-width="1.5" d="M0,-3.0v7 M-2.5,-0.5L0,-3.0L2.5,-0.5"/>
  </g>
  <g id="arrowLeft" transform="rotate(270) translate(-36 17)">
    <use xlink:href="#rim"/>
    <path pointer-events="none" fill="none" stroke="white" stroke-width="1.5" d="M0,-3.0v7 M-2.5,-0.5L0,-3.0L2.5,-0.5"/>
  </g>
  <g id="resetDef">
    <use xlink:href="#rim2" fill="#404040"><set attributeName="fill" to="#808080" begin="reset.mouseover" end="reset.mouseout"/></use>
  </g>
</defs>
<script type="application/ecmascript">
var viewWidth = 618;
var viewHeight = 107;
var sectionId = 'dynsection-20';
</script>
<script type="application/ecmascript" xlink:href="svg.min.js"/>
<svg id="graph" class="graph">
<g id="viewport">
<title>m_effect_profile_rep_update</title>
<!-- Node1 -->
<g id="Node000001" class="node">
<title>Node1</title>
<g id="a_Node000001"><a xlink:title=" ">
<polygon fill="#999999" stroke="#666666" points="610,-66.12 492.75,-66.12 492.75,-32.62 610,-32.62 610,-66.12"/>
<text xml:space="preserve" text-anchor="start" x="500.75" y="-52.62" font-family="Helvetica,sans-Serif" font-size="10.00">m_effect_profile_rep</text>
<text xml:space="preserve" text-anchor="middle" x="551.38" y="-39.88" font-family="Helvetica,sans-Serif" font-size="10.00">_update</text>
</a>
</g>
</g>
<!-- Node2 -->
<g id="Node000002" class="node">
<title>Node2</title>
<g id="a_Node000002"><a xlink:href="m__effect_8c.html#a3258a7f312e7d7dede5095eb53da6416" target="_top" xlink:title=" ">
<polygon fill="white" stroke="#666666" points="456.75,-59.75 391.25,-59.75 391.25,-39 456.75,-39 456.75,-59.75"/>
<text xml:space="preserve" text-anchor="middle" x="424" y="-46.25" font-family="Helvetica,sans-Serif" font-size="10.00">init_effect</text>
</a>
</g>
</g>
<!-- Node1&#45;&gt;Node2 -->
<g id="edge1_Node000001_Node000002" class="edge">
<title>Node1&#45;&gt;Node2</title>
<g id="a_edge1_Node000001_Node000002"><a xlink:title=" ">
<path fill="none" stroke="#63b8ff" d="M481.02,-49.38C472.66,-49.38 464.46,-49.38 457.02,-49.38"/>
<polygon fill="#63b8ff" stroke="#63b8ff" points="480.94,-52.88 490.94,-49.38 480.94,-45.88 480.94,-52.88"/>
</a>
</g>
</g>
<!-- Node3 -->
<g id="Node000003" class="node">
<title>Node3</title>
<g id="a_Node000003"><a xlink:href="m__effect_8c.html#a93e462e09ad909e5888ae697e63a3a4f" target="_top" xlink:title=" ">
<polygon fill="white" stroke="#666666" points="315.5,-98.75 239.5,-98.75 239.5,-78 315.5,-78 315.5,-98.75"/>
<text xml:space="preserve" text-anchor="middle" x="277.5" y="-85.25" font-family="Helvetica,sans-Serif" font-size="10.00">clone_effect</text>
</a>
</g>
</g>
<!-- Node2&#45;&gt;Node3 -->
<g id="edge2_Node000002_Node000003" class="edge">
<title>Node2&#45;&gt;Node3</title>
<g id="a_edge2_Node000002_Node000003"><a xlink:title=" ">
<path fill="none" stroke="#63b8ff" d="M380.05,-61.55C371.82,-63.84 363.28,-66.2 355.25,-68.38 342.36,-71.86 328.22,-75.58 315.62,-78.85"/>
<polygon fill="#63b8ff" stroke="#63b8ff" points="380.84,-64.96 389.52,-58.89 378.95,-58.22 380.84,-64.96"/>
</a>
</g>
</g>
<!-- Node6 -->
<g id="Node000006" class="node">
<title>Node6</title>
<g id="a_Node000006"><a xlink:href="m__effect_8c.html#a8e75c554d3e8551168278ca959dd73e0" target="_top" xlink:title=" ">
<polygon fill="white" stroke="#666666" points="355.25,-59.75 199.75,-59.75 199.75,-39 355.25,-39 355.25,-59.75"/>
<text xml:space="preserve" text-anchor="middle" x="277.5" y="-46.25" font-family="Helvetica,sans-Serif" font-size="10.00">init_effect_from_effect_desc</text>
</a>
</g>
</g>
<!-- Node2&#45;&gt;Node6 -->
<g id="edge4_Node000002_Node000006" class="edge">
<title>Node2&#45;&gt;Node6</title>
<g id="a_edge4_Node000002_Node000006"><a xlink:title=" ">
<path fill="none" stroke="#63b8ff" d="M379.51,-49.38C371.93,-49.38 363.86,-49.38 355.7,-49.38"/>
<polygon fill="#63b8ff" stroke="#63b8ff" points="379.42,-52.88 389.42,-49.38 379.42,-45.88 379.42,-52.88"/>
</a>
</g>
</g>
<!-- Node18 -->
<g id="Node000018" class="node">
<title>Node18</title>
<g id="a_Node000018"><a xlink:href="m__effect__init_8c.html#a492354539b4f1a3cdeaba69ddd09ef2b" target="_top" xlink:title=" ">
<polygon fill="white" stroke="#666666" points="331.25,-20.75 223.75,-20.75 223.75,0 331.25,0 331.25,-20.75"/>
<text xml:space="preserve" text-anchor="middle" x="277.5" y="-7.25" font-family="Helvetica,sans-Serif" font-size="10.00">init_effect_of_type</text>
</a>
</g>
</g>
<!-- Node2&#45;&gt;Node18 -->
<g id="edge6_Node000002_Node000018" class="edge">
<title>Node2&#45;&gt;Node18</title>
<g id="a_edge6_Node000002_Node000018"><a xlink:title=" ">
<path fill="none" stroke="#63b8ff" d="M380.05,-37.2C371.82,-34.91 363.28,-32.55 355.25,-30.38 344.08,-27.35 331.98,-24.16 320.76,-21.24"/>
<polygon fill="#63b8ff" stroke="#63b8ff" points="378.95,-40.53 389.52,-39.86 380.84,-33.79 378.95,-40.53"/>
</a>
</g>
</g>
<!-- Node4 -->
<g id="Node000004" class="node">
<title>Node4</title>
<g id="a_Node000004"><a xlink:href="m__pipeline_8c.html#aac299a6a652e5e6e6832d2803635893c" target="_top" xlink:title=" ">
<polygon fill="#fff0f0" stroke="red" points="125.12,-98.75 38.62,-98.75 38.62,-78 125.12,-78 125.12,-98.75"/>
<text xml:space="preserve" text-anchor="middle" x="81.88" y="-85.25" font-family="Helvetica,sans-Serif" font-size="10.00">clone_pipeline</text>
</a>
</g>
</g>
<!-- Node3&#45;&gt;Node4 -->
<g id="edge3_Node000003_Node000004" class="edge">
<title>Node3&#45;&gt;Node4</title>
<g id="a_edge3_Node000003_Node000004"><a xlink:title=" ">
<path fill="none" stroke="#63b8ff" d="M228.01,-88.38C196.48,-88.38 155.77,-88.38 125.49,-88.38"/>
<polygon fill="#63b8ff" stroke="#63b8ff" points="227.65,-91.88 237.65,-88.38 227.65,-84.88 227.65,-91.88"/>
</a>
</g>
</g>
<!-- Node7 -->
<g id="Node000007" class="node">
<title>Node7</title>
<g id="a_Node000007"><a xlink:href="m__pipeline_8c.html#a8dce811810c9ae42e523eb5aa2764a96" target="_top" xlink:title=" ">
<polygon fill="#fff0f0" stroke="red" points="163.75,-59.75 0,-59.75 0,-39 163.75,-39 163.75,-59.75"/>
<text xml:space="preserve" text-anchor="middle" x="81.88" y="-46.25" font-family="Helvetica,sans-Serif" font-size="10.00">m_pipeline_append_effect_eff</text>
</a>
</g>
</g>
<!-- Node6&#45;&gt;Node7 -->
<g id="edge5_Node000006_Node000007" class="edge">
<title>Node6&#45;&gt;Node7</title>
<g id="a_edge5_Node000006_Node000007"><a xlink:title=" ">
<path fill="none" stroke="#63b8ff" d="M188.17,-49.38C180.16,-49.38 172.08,-49.38 164.14,-49.38"/>
<polygon fill="#63b8ff" stroke="#63b8ff" points="187.9,-52.88 197.9,-49.38 187.9,-45.88 187.9,-52.88"/>
</a>
</g>
</g>
</g>
</svg>

<g id="navigator" transform="translate(0 0)" fill="#404254">
  <rect fill="#f2f5e9" fill-opacity="0.5" stroke="#606060" stroke-width=".5" x="0" y="0" width="60" height="60"/>
  <use id="zoomplus" xlink:href="#zoomPlus" x="17" y="9" onmousedown="handleZoom(evt,'in')"/>
  <use id="zoomminus" xlink:href="#zoomMin" x="42" y="9" onmousedown="handleZoom(evt,'out')"/>
  <use id="reset" xlink:href="#resetDef" x="30" y="36" onmousedown="handleReset()"/>
   <use id="arrowup" xlink:href="#arrowUp" x="0" y="0" onmousedown="handlePan(0,-1)"/>
  <use id="arrowright" xlink:href="#arrowRight" x="0" y="0" onmousedown="handlePan(1,0)"/>
  <use id="arrowdown" xlink:href="#arrowDown" x="0" y="0" onmousedown="handlePan(0,1)"/>
  <use id="arrowleft" xlink:href="#arrowLeft" x="0" y="0" onmousedown="handlePan(-1,0)"/>
</g>
<svg viewBox="0 0 15 15" width="100%" height="30px" preserveAspectRatio="xMaxYMin meet">
 <g id="arrow_out" transform="scale(0.3 0.3)">
  <a xlink:href="m__transformer_8h_a4ae269e7439d805b367b0d3a9ad261ec_icgraph_org.svg" target="_base">
   <rect id="button" ry="5" rx="5" y="6" x="6" height="38" width="38"
        fill="#f2f5e9" fill-opacity="0.5" stroke="#606060" stroke-width="1.0"/>
   <path id="arrow"
     d="M 11.500037,31.436501 C 11.940474,20.09759 22.043105,11.32322 32.158766,21.979434 L 37.068811,17.246167 C 37.068811,17.246167 37.088388,32 37.088388,32 L 22.160133,31.978069 C 22.160133,31.978069 26.997745,27.140456 26.997745,27.140456 C 18.528582,18.264221 13.291696,25.230495 11.500037,31.436501 z"
     style="fill:#404040;"/>
  </a>
 </g>
</svg>

<style type='text/css'>
<![CDATA[
[data-mouse-over-selected='false'] { opacity: 0.7; }
[data-mouse-over-selected='true']  { opacity: 1.0; }
]]>
</style>
<script type="application/ecmascript"><![CDATA[
document.addEventListener('DOMContentLoaded', (event) => {
  highlightEdges();
  highlightAdjacentNodes();
});
]]></script>
</svg>
