<?xml version="1.0" encoding="UTF-8" standalone="no"?>
<!DOCTYPE svg PUBLIC "-//W3C//DTD SVG 1.1//EN"
 "http://www.w3.org/Graphics/SVG/1.1/DTD/svg11.dtd">
<!-- Generated by graphviz version 13.1.2 (20250808.2320)
 -->
<!-- Title: init_warbler Pages: 1 -->
<svg width="594pt" height="42pt"
 viewBox="0.00 0.00 594.00 42.00" xmlns="http://www.w3.org/2000/svg" xmlns:xlink="http://www.w3.org/1999/xlink">
<g id="graph0" class="graph" transform="scale(1 1) rotate(0) translate(4 37.5)">
<title>init_warbler</title>
<!-- Node1 -->
<g id="Node000001" class="node">
<title>Node1</title>
<g id="a_Node000001"><a xlink:title=" ">
<polygon fill="#999999" stroke="#666666" points="73.75,-27.12 0,-27.12 0,-6.38 73.75,-6.38 73.75,-27.12"/>
<text xml:space="preserve" text-anchor="middle" x="36.88" y="-13.62" font-family="Helvetica,sans-Serif" font-size="10.00">init_warbler</text>
</a>
</g>
</g>
<!-- Node2 -->
<g id="Node000002" class="node">
<title>Node2</title>
<g id="a_Node000002"><a xlink:href="m__transformer_8c.html#a88beb1d51afb0c611869385a0e6c4184" target="_top" xlink:title=" ">
<polygon fill="white" stroke="#666666" points="263,-27.12 109.75,-27.12 109.75,-6.38 263,-6.38 263,-27.12"/>
<text xml:space="preserve" text-anchor="middle" x="186.38" y="-13.62" font-family="Helvetica,sans-Serif" font-size="10.00">transformer_add_parameter</text>
</a>
</g>
</g>
<!-- Node1&#45;&gt;Node2 -->
<g id="edge1_Node000001_Node000002" class="edge">
<title>Node1&#45;&gt;Node2</title>
<g id="a_edge1_Node000001_Node000002"><a xlink:title=" ">
<path fill="none" stroke="#63b8ff" d="M73.96,-16.75C81.49,-16.75 89.74,-16.75 98.23,-16.75"/>
<polygon fill="#63b8ff" stroke="#63b8ff" points="97.98,-20.25 107.98,-16.75 97.98,-13.25 97.98,-20.25"/>
</a>
</g>
</g>
<!-- Node3 -->
<g id="Node000003" class="node">
<title>Node3</title>
<g id="a_Node000003"><a xlink:href="m__parameter_8c.html#ac9a28134818c14fbd7ef921b535b28d8" target="_top" xlink:title=" ">
<polygon fill="white" stroke="#666666" points="405,-27.12 299,-27.12 299,-6.38 405,-6.38 405,-27.12"/>
<text xml:space="preserve" text-anchor="middle" x="352" y="-13.62" font-family="Helvetica,sans-Serif" font-size="10.00">init_parameter_str</text>
</a>
</g>
</g>
<!-- Node2&#45;&gt;Node3 -->
<g id="edge2_Node000002_Node000003" class="edge">
<title>Node2&#45;&gt;Node3</title>
<g id="a_edge2_Node000002_Node000003"><a xlink:title=" ">
<path fill="none" stroke="#63b8ff" d="M263.44,-16.75C271.51,-16.75 279.66,-16.75 287.57,-16.75"/>
<polygon fill="#63b8ff" stroke="#63b8ff" points="287.43,-20.25 297.43,-16.75 287.43,-13.25 287.43,-20.25"/>
</a>
</g>
</g>
<!-- Node4 -->
<g id="Node000004" class="node">
<title>Node4</title>
<g id="a_Node000004"><a xlink:href="m__parameter_8c.html#a744a766adca7a0a1b6b1aeb3e68548ce" target="_top" xlink:title=" ">
<polygon fill="#fff0f0" stroke="red" points="586,-33.5 441,-33.5 441,0 586,0 586,-33.5"/>
<text xml:space="preserve" text-anchor="start" x="449" y="-20" font-family="Helvetica,sans-Serif" font-size="10.00">m_parameter_transformer</text>
<text xml:space="preserve" text-anchor="middle" x="513.5" y="-7.25" font-family="Helvetica,sans-Serif" font-size="10.00">_rep_update</text>
</a>
</g>
</g>
<!-- Node3&#45;&gt;Node4 -->
<g id="edge3_Node000003_Node000004" class="edge">
<title>Node3&#45;&gt;Node4</title>
<g id="a_edge3_Node000003_Node000004"><a xlink:title=" ">
<path fill="none" stroke="#63b8ff" d="M405.23,-16.75C413.03,-16.75 421.24,-16.75 429.5,-16.75"/>
<polygon fill="#63b8ff" stroke="#63b8ff" points="429.24,-20.25 439.24,-16.75 429.24,-13.25 429.24,-20.25"/>
</a>
</g>
</g>
</g>
</svg>
