<?xml version="1.0" encoding="UTF-8" standalone="no"?>
<!DOCTYPE svg PUBLIC "-//W3C//DTD SVG 1.1//EN"
 "http://www.w3.org/Graphics/SVG/1.1/DTD/svg11.dtd">
<!-- Generated by graphviz version 13.1.2 (20250808.2320)
 -->
<!-- Title: init_transformer Pages: 1 -->
<svg width="635pt" height="205pt"
 viewBox="0.00 0.00 635.00 205.00" xmlns="http://www.w3.org/2000/svg" xmlns:xlink="http://www.w3.org/1999/xlink">
<g id="graph0" class="graph" transform="scale(1 1) rotate(0) translate(4 201.12)">
<title>init_transformer</title>
<!-- Node1 -->
<g id="Node000001" class="node">
<title>Node1</title>
<g id="a_Node000001"><a xlink:title=" ">
<polygon fill="#999999" stroke="#666666" points="94.75,-138.75 0,-138.75 0,-118 94.75,-118 94.75,-138.75"/>
<text xml:space="preserve" text-anchor="middle" x="47.38" y="-125.25" font-family="Helvetica,sans-Serif" font-size="10.00">init_transformer</text>
</a>
</g>
</g>
<!-- Node2 -->
<g id="Node000002" class="node">
<title>Node2</title>
<g id="a_Node000002"><a xlink:href="m__parameter_8c.html#a6920b520347a79341c052f23878c6d2a" target="_top" xlink:title=" ">
<polygon fill="white" stroke="#666666" points="237.5,-183.75 149.5,-183.75 149.5,-163 237.5,-163 237.5,-183.75"/>
<text xml:space="preserve" text-anchor="middle" x="193.5" y="-170.25" font-family="Helvetica,sans-Serif" font-size="10.00">init_parameter</text>
</a>
</g>
</g>
<!-- Node1&#45;&gt;Node2 -->
<g id="edge1_Node000001_Node000002" class="edge">
<title>Node1&#45;&gt;Node2</title>
<g id="a_edge1_Node000001_Node000002"><a xlink:title=" ">
<path fill="none" stroke="#63b8ff" d="M82.9,-139.15C102.1,-145.15 126.23,-152.68 146.96,-159.16"/>
<polygon fill="#63b8ff" stroke="#63b8ff" points="145.73,-162.44 156.32,-162.08 147.81,-155.76 145.73,-162.44"/>
</a>
</g>
</g>
<!-- Node6 -->
<g id="Node000006" class="node">
<title>Node6</title>
<g id="a_Node000006"><a xlink:href="m__parameter_8c.html#a6605667d59b3a9ae6a15d789037738a0" target="_top" xlink:title=" ">
<polygon fill="white" stroke="#666666" points="228.88,-138.75 158.12,-138.75 158.12,-118 228.88,-118 228.88,-138.75"/>
<text xml:space="preserve" text-anchor="middle" x="193.5" y="-125.25" font-family="Helvetica,sans-Serif" font-size="10.00">init_setting</text>
</a>
</g>
</g>
<!-- Node1&#45;&gt;Node6 -->
<g id="edge4_Node000001_Node000006" class="edge">
<title>Node1&#45;&gt;Node6</title>
<g id="a_edge4_Node000001_Node000006"><a xlink:title=" ">
<path fill="none" stroke="#63b8ff" d="M95.17,-128.38C111.57,-128.38 129.97,-128.38 146.33,-128.38"/>
<polygon fill="#63b8ff" stroke="#63b8ff" points="146.3,-131.88 156.3,-128.38 146.3,-124.88 146.3,-131.88"/>
</a>
</g>
</g>
<!-- Node8 -->
<g id="Node000008" class="node">
<title>Node8</title>
<g id="a_Node000008"><a xlink:href="m__transformer_8c.html#a0743d447db0538f2fdc94fc58e4d57f0" target="_top" xlink:title=" ">
<polygon fill="white" stroke="#666666" points="256.25,-100.12 130.75,-100.12 130.75,-66.62 256.25,-66.62 256.25,-100.12"/>
<text xml:space="preserve" text-anchor="start" x="138.75" y="-86.62" font-family="Helvetica,sans-Serif" font-size="10.00">m_transformer_profile</text>
<text xml:space="preserve" text-anchor="middle" x="193.5" y="-73.88" font-family="Helvetica,sans-Serif" font-size="10.00">_rep_update</text>
</a>
</g>
</g>
<!-- Node1&#45;&gt;Node8 -->
<g id="edge7_Node000001_Node000008" class="edge">
<title>Node1&#45;&gt;Node8</title>
<g id="a_edge7_Node000001_Node000008"><a xlink:title=" ">
<path fill="none" stroke="#63b8ff" d="M82.9,-117.6C96.03,-113.5 111.47,-108.67 126.56,-103.96"/>
<polygon fill="#63b8ff" stroke="#63b8ff" points="127.49,-107.34 135.99,-101.02 125.4,-100.66 127.49,-107.34"/>
</a>
</g>
</g>
<!-- Node3 -->
<g id="Node000003" class="node">
<title>Node3</title>
<g id="a_Node000003"><a xlink:href="m__parameter_8c.html#a744a766adca7a0a1b6b1aeb3e68548ce" target="_top" xlink:title=" ">
<polygon fill="white" stroke="#666666" points="437.25,-197.12 292.25,-197.12 292.25,-163.62 437.25,-163.62 437.25,-197.12"/>
<text xml:space="preserve" text-anchor="start" x="300.25" y="-183.62" font-family="Helvetica,sans-Serif" font-size="10.00">m_parameter_transformer</text>
<text xml:space="preserve" text-anchor="middle" x="364.75" y="-170.88" font-family="Helvetica,sans-Serif" font-size="10.00">_rep_update</text>
</a>
</g>
</g>
<!-- Node2&#45;&gt;Node3 -->
<g id="edge2_Node000002_Node000003" class="edge">
<title>Node2&#45;&gt;Node3</title>
<g id="a_edge2_Node000002_Node000003"><a xlink:title=" ">
<path fill="none" stroke="#63b8ff" d="M237.65,-175.16C250.76,-175.7 265.63,-176.32 280.46,-176.93"/>
<polygon fill="#63b8ff" stroke="#63b8ff" points="280.1,-180.42 290.24,-177.33 280.39,-173.42 280.1,-180.42"/>
</a>
</g>
</g>
<!-- Node4 -->
<g id="Node000004" class="node">
<title>Node4</title>
<g id="a_Node000004"><a xlink:href="m__transformer_8c.html#adbc569abd5065fab7ce28b0d37f9bf1b" target="_top" xlink:title=" ">
<polygon fill="#fff0f0" stroke="red" points="627.25,-185.75 473.25,-185.75 473.25,-165 627.25,-165 627.25,-185.75"/>
<text xml:space="preserve" text-anchor="middle" x="550.25" y="-172.25" font-family="Helvetica,sans-Serif" font-size="10.00">m_transformer_update_reps</text>
</a>
</g>
</g>
<!-- Node3&#45;&gt;Node4 -->
<g id="edge3_Node000003_Node000004" class="edge">
<title>Node3&#45;&gt;Node4</title>
<g id="a_edge3_Node000003_Node000004"><a xlink:title=" ">
<path fill="none" stroke="#63b8ff" d="M437.75,-178.41C445.6,-178.2 453.65,-177.98 461.65,-177.76"/>
<polygon fill="#63b8ff" stroke="#63b8ff" points="461.51,-181.27 471.41,-177.5 461.32,-174.27 461.51,-181.27"/>
</a>
</g>
</g>
<!-- Node7 -->
<g id="Node000007" class="node">
<title>Node7</title>
<g id="a_Node000007"><a xlink:href="m__parameter_8c.html#afc1d01114129856c1a4f55611a2f1345" target="_top" xlink:title=" ">
<polygon fill="white" stroke="#666666" points="428.62,-145.12 300.88,-145.12 300.88,-111.62 428.62,-111.62 428.62,-145.12"/>
<text xml:space="preserve" text-anchor="start" x="308.88" y="-131.62" font-family="Helvetica,sans-Serif" font-size="10.00">m_setting_transformer</text>
<text xml:space="preserve" text-anchor="middle" x="364.75" y="-118.88" font-family="Helvetica,sans-Serif" font-size="10.00">_rep_update</text>
</a>
</g>
</g>
<!-- Node6&#45;&gt;Node7 -->
<g id="edge5_Node000006_Node000007" class="edge">
<title>Node6&#45;&gt;Node7</title>
<g id="a_edge5_Node000006_Node000007"><a xlink:title=" ">
<path fill="none" stroke="#63b8ff" d="M229.16,-128.38C246.46,-128.38 268.1,-128.38 288.93,-128.38"/>
<polygon fill="#63b8ff" stroke="#63b8ff" points="288.88,-131.88 298.88,-128.38 288.88,-124.88 288.88,-131.88"/>
</a>
</g>
</g>
<!-- Node7&#45;&gt;Node4 -->
<g id="edge6_Node000007_Node000004" class="edge">
<title>Node7&#45;&gt;Node4</title>
<g id="a_edge6_Node000007_Node000004"><a xlink:title=" ">
<path fill="none" stroke="#63b8ff" d="M428.9,-144.55C450.78,-150.15 475.08,-156.38 496.07,-161.75"/>
<polygon fill="#63b8ff" stroke="#63b8ff" points="495.02,-165.1 505.58,-164.19 496.76,-158.32 495.02,-165.1"/>
</a>
</g>
</g>
<!-- Node9 -->
<g id="Node000009" class="node">
<title>Node9</title>
<g id="a_Node000009"><a xlink:href="m__files_8c.html#af05d2dbfb9a9b37f20141d551b81cbb9" target="_top" xlink:title=" ">
<polygon fill="white" stroke="#666666" points="402.75,-93.75 326.75,-93.75 326.75,-73 402.75,-73 402.75,-93.75"/>
<text xml:space="preserve" text-anchor="middle" x="364.75" y="-80.25" font-family="Helvetica,sans-Serif" font-size="10.00">save_profile</text>
</a>
</g>
</g>
<!-- Node8&#45;&gt;Node9 -->
<g id="edge8_Node000008_Node000009" class="edge">
<title>Node8&#45;&gt;Node9</title>
<g id="a_edge8_Node000008_Node000009"><a xlink:title=" ">
<path fill="none" stroke="#63b8ff" d="M256.56,-83.38C275.75,-83.38 296.62,-83.38 314.79,-83.38"/>
<polygon fill="#63b8ff" stroke="#63b8ff" points="314.79,-86.88 324.79,-83.38 314.79,-79.88 314.79,-86.88"/>
</a>
</g>
</g>
<!-- Node10 -->
<g id="Node000010" class="node">
<title>Node10</title>
<g id="a_Node000010"><a xlink:href="m__files_8c.html#ab79d861306c25eab9284239e73d0cc07" target="_top" xlink:title=" ">
<polygon fill="white" stroke="#666666" points="606.25,-137.75 494.25,-137.75 494.25,-117 606.25,-117 606.25,-137.75"/>
<text xml:space="preserve" text-anchor="middle" x="550.25" y="-124.25" font-family="Helvetica,sans-Serif" font-size="10.00">dump_file_contents</text>
</a>
</g>
</g>
<!-- Node9&#45;&gt;Node10 -->
<g id="edge9_Node000009_Node000010" class="edge">
<title>Node9&#45;&gt;Node10</title>
<g id="a_edge9_Node000009_Node000010"><a xlink:title=" ">
<path fill="none" stroke="#63b8ff" d="M402.88,-92.28C428.79,-98.49 463.84,-106.89 493.14,-113.92"/>
<polygon fill="#63b8ff" stroke="#63b8ff" points="492.04,-117.26 502.58,-116.19 493.68,-110.45 492.04,-117.26"/>
</a>
</g>
</g>
<!-- Node11 -->
<g id="Node000011" class="node">
<title>Node11</title>
<g id="a_Node000011"><a xlink:href="m__files_8c.html#aa81649890323b78baf99fbbad53ab5ff" target="_top" xlink:title=" ">
<polygon fill="white" stroke="#666666" points="604.38,-98.75 496.12,-98.75 496.12,-78 604.38,-78 604.38,-98.75"/>
<text xml:space="preserve" text-anchor="middle" x="550.25" y="-85.25" font-family="Helvetica,sans-Serif" font-size="10.00">generate_filename</text>
</a>
</g>
</g>
<!-- Node9&#45;&gt;Node11 -->
<g id="edge10_Node000009_Node000011" class="edge">
<title>Node9&#45;&gt;Node11</title>
<g id="a_edge10_Node000009_Node000011"><a xlink:title=" ">
<path fill="none" stroke="#63b8ff" d="M402.88,-84.39C426.25,-85.02 457.05,-85.86 484.36,-86.61"/>
<polygon fill="#63b8ff" stroke="#63b8ff" points="484.22,-90.1 494.31,-86.88 484.41,-83.11 484.22,-90.1"/>
</a>
</g>
</g>
<!-- Node12 -->
<g id="Node000012" class="node">
<title>Node12</title>
<g id="a_Node000012"><a xlink:href="m__error__codes_8c.html#a5298df5c7af3a6aac90c055a615b171a" target="_top" xlink:title=" ">
<polygon fill="white" stroke="#666666" points="615.62,-59.75 484.88,-59.75 484.88,-39 615.62,-39 615.62,-59.75"/>
<text xml:space="preserve" text-anchor="middle" x="550.25" y="-46.25" font-family="Helvetica,sans-Serif" font-size="10.00">m_error_code_to_string</text>
</a>
</g>
</g>
<!-- Node9&#45;&gt;Node12 -->
<g id="edge11_Node000009_Node000012" class="edge">
<title>Node9&#45;&gt;Node12</title>
<g id="a_edge11_Node000009_Node000012"><a xlink:title=" ">
<path fill="none" stroke="#63b8ff" d="M402.88,-76.49C424.97,-72.4 453.69,-67.08 479.83,-62.24"/>
<polygon fill="#63b8ff" stroke="#63b8ff" points="480.17,-65.73 489.37,-60.47 478.9,-58.85 480.17,-65.73"/>
</a>
</g>
</g>
<!-- Node13 -->
<g id="Node000013" class="node">
<title>Node13</title>
<g id="a_Node000013"><a xlink:href="m__files_8c.html#a5e826883d22a89fd2fbc57da00f49107" target="_top" xlink:title=" ">
<polygon fill="white" stroke="#666666" points="607,-20.75 493.5,-20.75 493.5,0 607,0 607,-20.75"/>
<text xml:space="preserve" text-anchor="middle" x="550.25" y="-7.25" font-family="Helvetica,sans-Serif" font-size="10.00">save_profile_as_file</text>
</a>
</g>
</g>
<!-- Node9&#45;&gt;Node13 -->
<g id="edge12_Node000009_Node000013" class="edge">
<title>Node9&#45;&gt;Node13</title>
<g id="a_edge12_Node000009_Node000013"><a xlink:title=" ">
<path fill="none" stroke="#63b8ff" d="M384.65,-72.6C405.73,-60.94 441.09,-42.4 473.25,-30.38 479,-28.23 485.08,-26.21 491.19,-24.36"/>
<polygon fill="#63b8ff" stroke="#63b8ff" points="492.07,-27.75 500.71,-21.61 490.13,-21.02 492.07,-27.75"/>
</a>
</g>
</g>
</g>
</svg>
