<?xml version="1.0" encoding="UTF-8" standalone="no"?>
<!DOCTYPE svg PUBLIC "-//W3C//DTD SVG 1.1//EN"
 "http://www.w3.org/Graphics/SVG/1.1/DTD/svg11.dtd">
<!-- Generated by graphviz version 13.1.2 (20250808.2320)
 -->
<!-- Title: configure_transformer_settings_page Pages: 1 -->
<svg width="642pt" height="68pt"
 viewBox="0.00 0.00 642.00 68.00" xmlns="http://www.w3.org/2000/svg" xmlns:xlink="http://www.w3.org/1999/xlink">
<g id="graph0" class="graph" transform="scale(1 1) rotate(0) translate(4 63.75)">
<title>configure_transformer_settings_page</title>
<!-- Node1 -->
<g id="Node000001" class="node">
<title>Node1</title>
<g id="a_Node000001"><a xlink:title=" ">
<polygon fill="#999999" stroke="#666666" points="634,-46.12 509.25,-46.12 509.25,-12.62 634,-12.62 634,-46.12"/>
<text xml:space="preserve" text-anchor="start" x="517.25" y="-32.62" font-family="Helvetica,sans-Serif" font-size="10.00">configure_transformer</text>
<text xml:space="preserve" text-anchor="middle" x="571.62" y="-19.88" font-family="Helvetica,sans-Serif" font-size="10.00">_settings_page</text>
</a>
</g>
</g>
<!-- Node2 -->
<g id="Node000002" class="node">
<title>Node2</title>
<g id="a_Node000002"><a xlink:href="m__transformer__view_8c.html#a22cac70297549ade93c38e66d070f3af" target="_top" xlink:title=" ">
<polygon fill="white" stroke="#666666" points="465.75,-59.75 312.5,-59.75 312.5,-39 465.75,-39 465.75,-59.75"/>
<text xml:space="preserve" text-anchor="middle" x="389.12" y="-46.25" font-family="Helvetica,sans-Serif" font-size="10.00">configure_transformer_view</text>
</a>
</g>
</g>
<!-- Node1&#45;&gt;Node2 -->
<g id="edge1_Node000001_Node000002" class="edge">
<title>Node1&#45;&gt;Node2</title>
<g id="a_edge1_Node000001_Node000002"><a xlink:title=" ">
<path fill="none" stroke="#63b8ff" d="M497.6,-37.47C487.18,-38.62 476.43,-39.81 465.96,-40.97"/>
<polygon fill="#63b8ff" stroke="#63b8ff" points="497.7,-40.98 507.26,-36.4 496.93,-34.02 497.7,-40.98"/>
</a>
</g>
</g>
<!-- Node5 -->
<g id="Node000005" class="node">
<title>Node5</title>
<g id="a_Node000005"><a xlink:href="m__transformer__settings_8c.html#aaa390b04c41f08fbbfe3cdbe8b552bc4" target="_top" xlink:title=" ">
<polygon fill="white" stroke="#666666" points="473.25,-20.75 305,-20.75 305,0 473.25,0 473.25,-20.75"/>
<text xml:space="preserve" text-anchor="middle" x="389.12" y="-7.25" font-family="Helvetica,sans-Serif" font-size="10.00">init_transformer_settings_page</text>
</a>
</g>
</g>
<!-- Node1&#45;&gt;Node5 -->
<g id="edge5_Node000001_Node000005" class="edge">
<title>Node1&#45;&gt;Node5</title>
<g id="a_edge5_Node000001_Node000005"><a xlink:title=" ">
<path fill="none" stroke="#63b8ff" d="M497.42,-21.67C489.58,-20.84 481.56,-20 473.6,-19.16"/>
<polygon fill="#63b8ff" stroke="#63b8ff" points="496.94,-25.14 507.25,-22.7 497.68,-18.18 496.94,-25.14"/>
</a>
</g>
</g>
<!-- Node3 -->
<g id="Node000003" class="node">
<title>Node3</title>
<g id="a_Node000003"><a xlink:href="m__transformer__view_8c.html#a7938148391cd6ce4f6c64cfd995fb573" target="_top" xlink:title=" ">
<polygon fill="white" stroke="#666666" points="109.75,-47.12 0,-47.12 0,-13.62 109.75,-13.62 109.75,-47.12"/>
<text xml:space="preserve" text-anchor="start" x="8" y="-33.62" font-family="Helvetica,sans-Serif" font-size="10.00">create_transformer</text>
<text xml:space="preserve" text-anchor="middle" x="54.88" y="-20.88" font-family="Helvetica,sans-Serif" font-size="10.00">_view_for</text>
</a>
</g>
</g>
<!-- Node2&#45;&gt;Node3 -->
<g id="edge2_Node000002_Node000003" class="edge">
<title>Node2&#45;&gt;Node3</title>
<g id="a_edge2_Node000002_Node000003"><a xlink:title=" ">
<path fill="none" stroke="#63b8ff" d="M300.86,-44.38C240.4,-40.93 161.79,-36.43 110.13,-33.48"/>
<polygon fill="#63b8ff" stroke="#63b8ff" points="300.62,-47.88 310.81,-44.95 301.02,-40.89 300.62,-47.88"/>
</a>
</g>
</g>
<!-- Node4 -->
<g id="Node000004" class="node">
<title>Node4</title>
<g id="a_Node000004"><a xlink:href="m__transformer__view_8c.html#a34873988f273ffdfdc05574f9c8c9b4a" target="_top" xlink:title=" ">
<polygon fill="white" stroke="#666666" points="269,-21.75 145.75,-21.75 145.75,-1 269,-1 269,-21.75"/>
<text xml:space="preserve" text-anchor="middle" x="207.38" y="-8.25" font-family="Helvetica,sans-Serif" font-size="10.00">init_transformer_view</text>
</a>
</g>
</g>
<!-- Node2&#45;&gt;Node4 -->
<g id="edge3_Node000002_Node000004" class="edge">
<title>Node2&#45;&gt;Node4</title>
<g id="a_edge3_Node000002_Node000004"><a xlink:title=" ">
<path fill="none" stroke="#63b8ff" d="M326,-36.24C304.31,-31.66 280.23,-26.56 259.53,-22.19"/>
<polygon fill="#63b8ff" stroke="#63b8ff" points="325.11,-39.63 335.62,-38.27 326.56,-32.78 325.11,-39.63"/>
</a>
</g>
</g>
<!-- Node4&#45;&gt;Node3 -->
<g id="edge4_Node000004_Node000003" class="edge">
<title>Node4&#45;&gt;Node3</title>
<g id="a_edge4_Node000004_Node000003"><a xlink:title=" ">
<path fill="none" stroke="#63b8ff" d="M134.2,-20.49C126.08,-21.51 117.92,-22.54 110.09,-23.53"/>
<polygon fill="#63b8ff" stroke="#63b8ff" points="134.61,-23.96 144.09,-19.24 133.73,-17.02 134.61,-23.96"/>
</a>
</g>
</g>
<!-- Node5&#45;&gt;Node4 -->
<g id="edge6_Node000005_Node000004" class="edge">
<title>Node5&#45;&gt;Node4</title>
<g id="a_edge6_Node000005_Node000004"><a xlink:title=" ">
<path fill="none" stroke="#63b8ff" d="M293.18,-10.9C285.14,-10.95 277.15,-10.99 269.47,-11.04"/>
<polygon fill="#63b8ff" stroke="#63b8ff" points="293.07,-14.4 303.05,-10.85 293.03,-7.4 293.07,-14.4"/>
</a>
</g>
</g>
</g>
</svg>
