<?xml version="1.0" encoding="UTF-8" standalone="no"?>
<!DOCTYPE svg PUBLIC "-//W3C//DTD SVG 1.1//EN"
 "http://www.w3.org/Graphics/SVG/1.1/DTD/svg11.dtd">
<!-- Generated by graphviz version 13.1.2 (20250808.2320)
 -->
<!-- Title: char_is_letter Pages: 1 -->
<!--zoomable 260 -->

<svg id="main" version="1.1" xmlns="http://www.w3.org/2000/svg" xmlns:xlink="http://www.w3.org/1999/xlink" xml:space="preserve" onload="init(evt)">

<style type="text/css"><![CDATA[
.node, .edge {opacity: 0.7;}
.node.selected, .edge.selected {opacity: 1;}
.edge:hover path { stroke: red; }
.edge:hover polygon { stroke: red; fill: red; }
]]></style>

<defs>
  <circle id="rim" cx="0" cy="0" r="7"/>
  <circle id="rim2" cx="0" cy="0" r="3.5"/>
  <g id="zoomPlus">
    <use xlink:href="#rim" fill="#404040"><set attributeName="fill" to="#808080" begin="zoomplus.mouseover" end="zoomplus.mouseout"/></use>
    <path d="M-4,0h8M0,-4v8" fill="none" stroke="white" stroke-width="1.5" pointer-events="none"/>
  </g>
  <g id="zoomMin">
    <use xlink:href="#rim" fill="#404040"><set attributeName="fill" to="#808080" begin="zoomminus.mouseover" end="zoomminus.mouseout"/></use>
    <path d="M-4,0h8" fill="none" stroke="white" stroke-width="1.5" pointer-events="none"/>
  </g>
  <g id="arrowUp" transform="translate(30 24)">
    <use xlink:href="#rim"/>
    <path pointer-events="none" fill="none" stroke="white" stroke-width="1.5" d="M0,-3.0v7 M-2.5,-0.5L0,-3.0L2.5,-0.5"/>
  </g>
  <g id="arrowRight" transform="rotate(90) translate(36 -43)">
    <use xlink:href="#rim"/>
    <path pointer-events="none" fill="none" stroke="white" stroke-width="1.5" d="M0,-3.0v7 M-2.5,-0.5L0,-3.0L2.5,-0.5"/>
  </g>
  <g id="arrowDown" transform="rotate(180) translate(-30 -48)">
    <use xlink:href="#rim"/>
    <path pointer-events="none" fill="none" stroke="white" stroke-width="1.5" d="M0,-3.0v7 M-2.5,-0.5L0,-3.0L2.5,-0.5"/>
  </g>
  <g id="arrowLeft" transform="rotate(270) translate(-36 17)">
    <use xlink:href="#rim"/>
    <path pointer-events="none" fill="none" stroke="white" stroke-width="1.5" d="M0,-3.0v7 M-2.5,-0.5L0,-3.0L2.5,-0.5"/>
  </g>
  <g id="resetDef">
    <use xlink:href="#rim2" fill="#404040"><set attributeName="fill" to="#808080" begin="reset.mouseover" end="reset.mouseout"/></use>
  </g>
</defs>
<script type="application/ecmascript">
var viewWidth = 729;
var viewHeight = 260;
var sectionId = 'dynsection-4';
</script>
<script type="application/ecmascript" xlink:href="svg.min.js"/>
<svg id="graph" class="graph">
<g id="viewport">
<title>char_is_letter</title>
<!-- Node1 -->
<g id="Node000001" class="node">
<title>Node1</title>
<g id="a_Node000001"><a xlink:title=" ">
<polygon fill="#999999" stroke="#666666" points="720.5,-185.12 638.5,-185.12 638.5,-164.38 720.5,-164.38 720.5,-185.12"/>
<text xml:space="preserve" text-anchor="middle" x="679.5" y="-171.62" font-family="Helvetica,sans-Serif" font-size="10.00">char_is_letter</text>
</a>
</g>
</g>
<!-- Node2 -->
<g id="Node000002" class="node">
<title>Node2</title>
<g id="a_Node000002"><a xlink:href="m__tokenizer_8c.html#a9bdbd5c492f459bc081a49ec4932e2ab" target="_top" xlink:title=" ">
<polygon fill="white" stroke="#666666" points="602.5,-242.12 480,-242.12 480,-221.38 602.5,-221.38 602.5,-242.12"/>
<text xml:space="preserve" text-anchor="middle" x="541.25" y="-228.62" font-family="Helvetica,sans-Serif" font-size="10.00">char_is_alphanumeric</text>
</a>
</g>
</g>
<!-- Node1&#45;&gt;Node2 -->
<g id="edge1_Node000001_Node000002" class="edge">
<title>Node1&#45;&gt;Node2</title>
<g id="a_edge1_Node000001_Node000002"><a xlink:title=" ">
<path fill="none" stroke="#63b8ff" d="M643.92,-190.03C630.96,-195.69 616.09,-202.09 602.5,-207.75 591.9,-212.16 580.18,-216.87 569.92,-220.93"/>
<polygon fill="#63b8ff" stroke="#63b8ff" points="645.14,-193.32 652.89,-186.1 642.33,-186.91 645.14,-193.32"/>
</a>
</g>
</g>
<!-- Node3 -->
<g id="Node000003" class="node">
<title>Node3</title>
<g id="a_Node000003"><a xlink:href="m__tokenizer_8c.html#ac05ce1dc9f6b52a7427a40caaa5cd67d" target="_top" xlink:title=" ">
<polygon fill="white" stroke="#666666" points="431.25,-242.12 335.75,-242.12 335.75,-221.38 431.25,-221.38 431.25,-242.12"/>
<text xml:space="preserve" text-anchor="middle" x="383.5" y="-228.62" font-family="Helvetica,sans-Serif" font-size="10.00">tokenizer_policy</text>
</a>
</g>
</g>
<!-- Node1&#45;&gt;Node3 -->
<g id="edge20_Node000001_Node000003" class="edge">
<title>Node1&#45;&gt;Node3</title>
<g id="a_edge20_Node000001_Node000003"><a xlink:title=" ">
<path fill="none" stroke="#63b8ff" d="M627.09,-184.49C587,-192.1 529.94,-203 480,-212.75 464.24,-215.83 447.02,-219.24 431.6,-222.31"/>
<polygon fill="#63b8ff" stroke="#63b8ff" points="627.53,-187.97 636.7,-182.66 626.22,-181.09 627.53,-187.97"/>
</a>
</g>
</g>
<!-- Node10 -->
<g id="Node000010" class="node">
<title>Node10</title>
<g id="a_Node000010"><a xlink:href="m__files_8c.html#a8bcff3a826c8132661386cd8098594a2" target="_top" xlink:title=" ">
<polygon fill="white" stroke="#666666" points="584.12,-166.12 498.38,-166.12 498.38,-145.38 584.12,-145.38 584.12,-166.12"/>
<text xml:space="preserve" text-anchor="middle" x="541.25" y="-152.62" font-family="Helvetica,sans-Serif" font-size="10.00">fnames_agree</text>
</a>
</g>
</g>
<!-- Node1&#45;&gt;Node10 -->
<g id="edge4_Node000001_Node000010" class="edge">
<title>Node1&#45;&gt;Node10</title>
<g id="a_edge4_Node000001_Node000010"><a xlink:title=" ">
<path fill="none" stroke="#63b8ff" d="M627.3,-167.61C613.18,-165.64 598.03,-163.53 584.47,-161.64"/>
<polygon fill="#63b8ff" stroke="#63b8ff" points="626.47,-171.03 636.86,-168.94 627.44,-164.1 626.47,-171.03"/>
</a>
</g>
</g>
<!-- Node18 -->
<g id="Node000018" class="node">
<title>Node18</title>
<g id="a_Node000018"><a xlink:href="m__tokenizer_8c.html#a713c477a645ef8a6abfd4cb4e257b53c" target="_top" xlink:title=" ">
<polygon fill="white" stroke="#666666" points="586,-90.12 496.5,-90.12 496.5,-69.38 586,-69.38 586,-90.12"/>
<text xml:space="preserve" text-anchor="middle" x="541.25" y="-76.62" font-family="Helvetica,sans-Serif" font-size="10.00">token_is_name</text>
</a>
</g>
</g>
<!-- Node1&#45;&gt;Node18 -->
<g id="edge11_Node000001_Node000018" class="edge">
<title>Node1&#45;&gt;Node18</title>
<g id="a_edge11_Node000001_Node000018"><a xlink:title=" ">
<path fill="none" stroke="#63b8ff" d="M654.03,-157.69C626.1,-138.21 581.27,-106.96 557.77,-90.57"/>
<polygon fill="#63b8ff" stroke="#63b8ff" points="651.69,-160.32 661.89,-163.17 655.69,-154.58 651.69,-160.32"/>
</a>
</g>
</g>
<!-- Node2&#45;&gt;Node3 -->
<g id="edge2_Node000002_Node000003" class="edge">
<title>Node2&#45;&gt;Node3</title>
<g id="a_edge2_Node000002_Node000003"><a xlink:title=" ">
<path fill="none" stroke="#63b8ff" d="M468.29,-231.75C455.88,-231.75 443.27,-231.75 431.74,-231.75"/>
<polygon fill="#63b8ff" stroke="#63b8ff" points="468.07,-235.25 478.07,-231.75 468.07,-228.25 468.07,-235.25"/>
</a>
</g>
</g>
<!-- Node4 -->
<g id="Node000004" class="node">
<title>Node4</title>
<g id="a_Node000004"><a xlink:href="m__tokenizer_8c.html#a8f302737f17d0ebe5a59362afcf57b13" target="_top" xlink:title=" ">
<polygon fill="#fff0f0" stroke="red" points="274.62,-252.12 160.38,-252.12 160.38,-231.38 274.62,-231.38 274.62,-252.12"/>
<text xml:space="preserve" text-anchor="middle" x="217.5" y="-238.62" font-family="Helvetica,sans-Serif" font-size="10.00">m_tokenize_content</text>
</a>
</g>
</g>
<!-- Node3&#45;&gt;Node4 -->
<g id="edge3_Node000003_Node000004" class="edge">
<title>Node3&#45;&gt;Node4</title>
<g id="a_edge3_Node000003_Node000004"><a xlink:title=" ">
<path fill="none" stroke="#63b8ff" d="M324.16,-235.31C308.21,-236.28 290.95,-237.33 275.1,-238.3"/>
<polygon fill="#63b8ff" stroke="#63b8ff" points="324.23,-238.81 333.99,-234.71 323.8,-231.82 324.23,-238.81"/>
</a>
</g>
</g>
<!-- Node11 -->
<g id="Node000011" class="node">
<title>Node11</title>
<g id="a_Node000011"><a xlink:href="m__context_8c.html#a62b38743df25267e66764a3c60908af9" target="_top" xlink:title=" ">
<polygon fill="white" stroke="#666666" points="436.5,-193.5 330.5,-193.5 330.5,-160 436.5,-160 436.5,-193.5"/>
<text xml:space="preserve" text-anchor="start" x="338.5" y="-180" font-family="Helvetica,sans-Serif" font-size="10.00">cxt_get_profile_by</text>
<text xml:space="preserve" text-anchor="middle" x="383.5" y="-167.25" font-family="Helvetica,sans-Serif" font-size="10.00">_fname</text>
</a>
</g>
</g>
<!-- Node10&#45;&gt;Node11 -->
<g id="edge5_Node000010_Node000011" class="edge">
<title>Node10&#45;&gt;Node11</title>
<g id="a_edge5_Node000010_Node000011"><a xlink:title=" ">
<path fill="none" stroke="#63b8ff" d="M486.71,-162.97C470.62,-165.14 453,-167.51 436.98,-169.67"/>
<polygon fill="#63b8ff" stroke="#63b8ff" points="487.16,-166.44 496.6,-161.64 486.22,-159.5 487.16,-166.44"/>
</a>
</g>
</g>
<!-- Node17 -->
<g id="Node000017" class="node">
<title>Node17</title>
<g id="a_Node000017"><a xlink:href="m__context_8c.html#a434b5ee217240afbd7a4ac45e54318ff" target="_top" xlink:title=" ">
<polygon fill="white" stroke="#666666" points="444,-141.5 323,-141.5 323,-108 444,-108 444,-141.5"/>
<text xml:space="preserve" text-anchor="start" x="331" y="-128" font-family="Helvetica,sans-Serif" font-size="10.00">cxt_get_sequence_by</text>
<text xml:space="preserve" text-anchor="middle" x="383.5" y="-115.25" font-family="Helvetica,sans-Serif" font-size="10.00">_fname</text>
</a>
</g>
</g>
<!-- Node10&#45;&gt;Node17 -->
<g id="edge9_Node000010_Node000017" class="edge">
<title>Node10&#45;&gt;Node17</title>
<g id="a_edge9_Node000010_Node000017"><a xlink:title=" ">
<path fill="none" stroke="#63b8ff" d="M486.87,-145.13C473.13,-142.39 458.26,-139.43 444.22,-136.64"/>
<polygon fill="#63b8ff" stroke="#63b8ff" points="486.13,-148.55 496.62,-147.07 487.49,-141.68 486.13,-148.55"/>
</a>
</g>
</g>
<!-- Node12 -->
<g id="Node000012" class="node">
<title>Node12</title>
<g id="a_Node000012"><a xlink:href="m__state_8c.html#ade70c4c59f1b52e6ccd2f2a5c63559a9" target="_top" xlink:title=" ">
<polygon fill="#fff0f0" stroke="red" points="275.38,-213.12 159.62,-213.12 159.62,-192.38 275.38,-192.38 275.38,-213.12"/>
<text xml:space="preserve" text-anchor="middle" x="217.5" y="-199.62" font-family="Helvetica,sans-Serif" font-size="10.00">m_cxt_restore_state</text>
</a>
</g>
</g>
<!-- Node11&#45;&gt;Node12 -->
<g id="edge6_Node000011_Node000012" class="edge">
<title>Node11&#45;&gt;Node12</title>
<g id="a_edge6_Node000011_Node000012"><a xlink:title=" ">
<path fill="none" stroke="#63b8ff" d="M318.95,-186.83C304.71,-189.08 289.7,-191.46 275.74,-193.68"/>
<polygon fill="#63b8ff" stroke="#63b8ff" points="319.34,-190.31 328.66,-185.29 318.24,-183.39 319.34,-190.31"/>
</a>
</g>
</g>
<!-- Node13 -->
<g id="Node000013" class="node">
<title>Node13</title>
<g id="a_Node000013"><a xlink:href="m__page__id_8c.html#a3c403cf915e464a34e20dbcf0f2599ac" target="_top" xlink:title=" ">
<polygon fill="#fff0f0" stroke="red" points="278.75,-135.12 156.25,-135.12 156.25,-114.38 278.75,-114.38 278.75,-135.12"/>
<text xml:space="preserve" text-anchor="middle" x="217.5" y="-121.62" font-family="Helvetica,sans-Serif" font-size="10.00">m_page_id_find_page</text>
</a>
</g>
</g>
<!-- Node11&#45;&gt;Node13 -->
<g id="edge7_Node000011_Node000013" class="edge">
<title>Node11&#45;&gt;Node13</title>
<g id="a_edge7_Node000011_Node000013"><a xlink:title=" ">
<path fill="none" stroke="#63b8ff" d="M321.71,-155.98C310.21,-152.17 298.25,-148.28 287,-144.75 277.19,-141.67 266.54,-138.49 256.62,-135.59"/>
<polygon fill="#63b8ff" stroke="#63b8ff" points="320.53,-159.28 331.13,-159.13 322.75,-152.64 320.53,-159.28"/>
</a>
</g>
</g>
<!-- Node15 -->
<g id="Node000015" class="node">
<title>Node15</title>
<g id="a_Node000015"><a xlink:href="m__files_8c.html#a8da346d30dfa12117c7bec1add11153c" target="_top" xlink:title=" ">
<polygon fill="#fff0f0" stroke="red" points="287,-174.12 148,-174.12 148,-153.38 287,-153.38 287,-174.12"/>
<text xml:space="preserve" text-anchor="middle" x="217.5" y="-160.62" font-family="Helvetica,sans-Serif" font-size="10.00">read_sequence_from_file</text>
</a>
</g>
</g>
<!-- Node11&#45;&gt;Node15 -->
<g id="edge8_Node000011_Node000015" class="edge">
<title>Node11&#45;&gt;Node15</title>
<g id="a_edge8_Node000011_Node000015"><a xlink:title=" ">
<path fill="none" stroke="#63b8ff" d="M318.76,-171.7C308.49,-170.88 297.81,-170.04 287.41,-169.21"/>
<polygon fill="#63b8ff" stroke="#63b8ff" points="318.4,-175.18 328.65,-172.48 318.96,-168.2 318.4,-175.18"/>
</a>
</g>
</g>
<!-- Node17&#45;&gt;Node13 -->
<g id="edge10_Node000017_Node000013" class="edge">
<title>Node17&#45;&gt;Node13</title>
<g id="a_edge10_Node000017_Node000013"><a xlink:title=" ">
<path fill="none" stroke="#63b8ff" d="M311.35,-124.75C300.64,-124.75 289.69,-124.75 279.23,-124.75"/>
<polygon fill="#63b8ff" stroke="#63b8ff" points="311.31,-128.25 321.31,-124.75 311.31,-121.25 311.31,-128.25"/>
</a>
</g>
</g>
<!-- Node19 -->
<g id="Node000019" class="node">
<title>Node19</title>
<g id="a_Node000019"><a xlink:href="m__dictionary_8c.html#ab52fc5ead828b21f765fdd2819fac663" target="_top" xlink:title=" ">
<polygon fill="white" stroke="#666666" points="273.5,-84.12 161.5,-84.12 161.5,-63.38 273.5,-63.38 273.5,-84.12"/>
<text xml:space="preserve" text-anchor="middle" x="217.5" y="-70.62" font-family="Helvetica,sans-Serif" font-size="10.00">m_parse_dictionary</text>
</a>
</g>
</g>
<!-- Node18&#45;&gt;Node19 -->
<g id="edge12_Node000018_Node000019" class="edge">
<title>Node18&#45;&gt;Node19</title>
<g id="a_edge12_Node000018_Node000019"><a xlink:title=" ">
<path fill="none" stroke="#63b8ff" d="M484.85,-78.72C425.82,-77.62 332.91,-75.88 273.88,-74.78"/>
<polygon fill="#63b8ff" stroke="#63b8ff" points="484.61,-82.21 494.67,-78.9 484.74,-75.21 484.61,-82.21"/>
</a>
</g>
</g>
<!-- Node23 -->
<g id="Node000023" class="node">
<title>Node23</title>
<g id="a_Node000023"><a xlink:href="m__expr__parser_8c.html#a45b4bb314bb1c677680ca37595ea8281" target="_top" xlink:title=" ">
<polygon fill="white" stroke="#666666" points="441.75,-33.5 325.25,-33.5 325.25,0 441.75,0 441.75,-33.5"/>
<text xml:space="preserve" text-anchor="start" x="333.25" y="-20" font-family="Helvetica,sans-Serif" font-size="10.00">m_parse_expression</text>
<text xml:space="preserve" text-anchor="middle" x="383.5" y="-7.25" font-family="Helvetica,sans-Serif" font-size="10.00">_rec_pratt</text>
</a>
</g>
</g>
<!-- Node18&#45;&gt;Node23 -->
<g id="edge16_Node000018_Node000023" class="edge">
<title>Node18&#45;&gt;Node23</title>
<g id="a_edge16_Node000018_Node000023"><a xlink:title=" ">
<path fill="none" stroke="#63b8ff" d="M502.84,-64.62C480.01,-55.38 450.76,-43.55 427.05,-33.96"/>
<polygon fill="#63b8ff" stroke="#63b8ff" points="501.49,-67.85 512.07,-68.35 504.11,-61.36 501.49,-67.85"/>
</a>
</g>
</g>
<!-- Node20 -->
<g id="Node000020" class="node">
<title>Node20</title>
<g id="a_Node000020"><a xlink:href="m__dictionary_8c.html#aab1bb060fb0ff389ff2712d91ef17634" target="_top" xlink:title=" ">
<polygon fill="white" stroke="#666666" points="106.75,-52.12 5.25,-52.12 5.25,-31.38 106.75,-31.38 106.75,-52.12"/>
<text xml:space="preserve" text-anchor="middle" x="56" y="-38.62" font-family="Helvetica,sans-Serif" font-size="10.00">m_parse_dict_val</text>
</a>
</g>
</g>
<!-- Node19&#45;&gt;Node20 -->
<g id="edge13_Node000019_Node000020" class="edge">
<title>Node19&#45;&gt;Node20</title>
<g id="a_edge13_Node000019_Node000020"><a xlink:title=" ">
<path fill="none" stroke="#63b8ff" d="M177.81,-60.11C156.52,-54.85 129.86,-49.35 107,-45.47"/>
<polygon fill="#63b8ff" stroke="#63b8ff" points="176.69,-63.43 187.25,-62.53 178.44,-56.65 176.69,-63.43"/>
</a>
</g>
</g>
<!-- Node21 -->
<g id="Node000021" class="node">
<title>Node21</title>
<g id="a_Node000021"><a xlink:href="m__eff__section_8c.html#ad4898a5c5f76355d6a696bb0d6ee3b82" target="_top" xlink:title=" ">
<polygon fill="#fff0f0" stroke="red" points="112,-103.5 0,-103.5 0,-70 112,-70 112,-103.5"/>
<text xml:space="preserve" text-anchor="start" x="8" y="-90" font-family="Helvetica,sans-Serif" font-size="10.00">m_parse_dictionary</text>
<text xml:space="preserve" text-anchor="middle" x="56" y="-77.25" font-family="Helvetica,sans-Serif" font-size="10.00">_section</text>
</a>
</g>
</g>
<!-- Node19&#45;&gt;Node21 -->
<g id="edge15_Node000019_Node000021" class="edge">
<title>Node19&#45;&gt;Node21</title>
<g id="a_edge15_Node000019_Node000021"><a xlink:title=" ">
<path fill="none" stroke="#63b8ff" d="M149.83,-79.18C137.32,-80.2 124.36,-81.26 112.24,-82.25"/>
<polygon fill="#63b8ff" stroke="#63b8ff" points="149.97,-82.68 159.65,-78.38 149.4,-75.71 149.97,-82.68"/>
</a>
</g>
</g>
<!-- Node20&#45;&gt;Node19 -->
<g id="edge14_Node000020_Node000019" class="edge">
<title>Node20&#45;&gt;Node19</title>
<g id="a_edge14_Node000020_Node000019"><a xlink:title=" ">
<path fill="none" stroke="#63b8ff" d="M95.49,-55.34C115.18,-60.22 139.5,-65.29 161.16,-69.11"/>
<polygon fill="#63b8ff" stroke="#63b8ff" points="96.51,-51.99 85.95,-52.89 94.76,-58.77 96.51,-51.99"/>
</a>
</g>
</g>
<!-- Node23&#45;&gt;Node23 -->
<g id="edge19_Node000023_Node000023" class="edge">
<title>Node23&#45;&gt;Node23</title>
<g id="a_edge19_Node000023_Node000023"><a xlink:title=" ">
<path fill="none" stroke="#63b8ff" d="M409.99,-44.89C405.67,-48.85 396.84,-51.5 383.5,-51.5 359.78,-51.5 350.32,-43.12 355.14,-33.91"/>
<polygon fill="#63b8ff" stroke="#63b8ff" points="413.37,-45.85 411.6,-35.41 406.47,-44.68 413.37,-45.85"/>
</a>
</g>
</g>
<!-- Node24 -->
<g id="Node000024" class="node">
<title>Node24</title>
<g id="a_Node000024"><a xlink:href="m__expr__parser_8c.html#af2a49578710f5e5b4f4c3339992ba0c9" target="_top" xlink:title=" ">
<polygon fill="#fff0f0" stroke="red" points="275.75,-33.12 159.25,-33.12 159.25,-12.38 275.75,-12.38 275.75,-33.12"/>
<text xml:space="preserve" text-anchor="middle" x="217.5" y="-19.62" font-family="Helvetica,sans-Serif" font-size="10.00">m_parse_expression</text>
</a>
</g>
</g>
<!-- Node23&#45;&gt;Node24 -->
<g id="edge17_Node000023_Node000024" class="edge">
<title>Node23&#45;&gt;Node24</title>
<g id="a_edge17_Node000023_Node000024"><a xlink:title=" ">
<path fill="none" stroke="#63b8ff" d="M313.78,-19.26C301.24,-19.72 288.28,-20.2 276.1,-20.64"/>
<polygon fill="#63b8ff" stroke="#63b8ff" points="313.76,-22.77 323.63,-18.9 313.51,-15.77 313.76,-22.77"/>
</a>
</g>
</g>
<!-- Node24&#45;&gt;Node20 -->
<g id="edge18_Node000024_Node000020" class="edge">
<title>Node24&#45;&gt;Node20</title>
<g id="a_edge18_Node000024_Node000020"><a xlink:title=" ">
<path fill="none" stroke="#63b8ff" d="M147.62,-30.96C134,-32.58 119.96,-34.25 107.11,-35.78"/>
<polygon fill="#63b8ff" stroke="#63b8ff" points="147.9,-34.45 157.41,-29.79 147.07,-27.5 147.9,-34.45"/>
</a>
</g>
</g>
</g>
</svg>

<g id="navigator" transform="translate(0 0)" fill="#404254">
  <rect fill="#f2f5e9" fill-opacity="0.5" stroke="#606060" stroke-width=".5" x="0" y="0" width="60" height="60"/>
  <use id="zoomplus" xlink:href="#zoomPlus" x="17" y="9" onmousedown="handleZoom(evt,'in')"/>
  <use id="zoomminus" xlink:href="#zoomMin" x="42" y="9" onmousedown="handleZoom(evt,'out')"/>
  <use id="reset" xlink:href="#resetDef" x="30" y="36" onmousedown="handleReset()"/>
   <use id="arrowup" xlink:href="#arrowUp" x="0" y="0" onmousedown="handlePan(0,-1)"/>
  <use id="arrowright" xlink:href="#arrowRight" x="0" y="0" onmousedown="handlePan(1,0)"/>
  <use id="arrowdown" xlink:href="#arrowDown" x="0" y="0" onmousedown="handlePan(0,1)"/>
  <use id="arrowleft" xlink:href="#arrowLeft" x="0" y="0" onmousedown="handlePan(-1,0)"/>
</g>
<svg viewBox="0 0 15 15" width="100%" height="30px" preserveAspectRatio="xMaxYMin meet">
 <g id="arrow_out" transform="scale(0.3 0.3)">
  <a xlink:href="m__tokenizer_8c_ae3e094675b7f6c398787acd25603e724_icgraph_org.svg" target="_base">
   <rect id="button" ry="5" rx="5" y="6" x="6" height="38" width="38"
        fill="#f2f5e9" fill-opacity="0.5" stroke="#606060" stroke-width="1.0"/>
   <path id="arrow"
     d="M 11.500037,31.436501 C 11.940474,20.09759 22.043105,11.32322 32.158766,21.979434 L 37.068811,17.246167 C 37.068811,17.246167 37.088388,32 37.088388,32 L 22.160133,31.978069 C 22.160133,31.978069 26.997745,27.140456 26.997745,27.140456 C 18.528582,18.264221 13.291696,25.230495 11.500037,31.436501 z"
     style="fill:#404040;"/>
  </a>
 </g>
</svg>

<style type='text/css'>
<![CDATA[
[data-mouse-over-selected='false'] { opacity: 0.7; }
[data-mouse-over-selected='true']  { opacity: 1.0; }
]]>
</style>
<script type="application/ecmascript"><![CDATA[
document.addEventListener('DOMContentLoaded', (event) => {
  highlightEdges();
  highlightAdjacentNodes();
});
]]></script>
</svg>
