<?xml version="1.0" encoding="UTF-8" standalone="no"?>
<!DOCTYPE svg PUBLIC "-//W3C//DTD SVG 1.1//EN"
 "http://www.w3.org/Graphics/SVG/1.1/DTD/svg11.dtd">
<!-- Generated by graphviz version 13.1.2 (20250808.2320)
 -->
<!-- Title: create_transformer_selector_ui_eff Pages: 1 -->
<!--zoomable 393 -->

<svg id="main" version="1.1" xmlns="http://www.w3.org/2000/svg" xmlns:xlink="http://www.w3.org/1999/xlink" xml:space="preserve" onload="init(evt)">

<style type="text/css"><![CDATA[
.node, .edge {opacity: 0.7;}
.node.selected, .edge.selected {opacity: 1;}
.edge:hover path { stroke: red; }
.edge:hover polygon { stroke: red; fill: red; }
]]></style>

<defs>
  <circle id="rim" cx="0" cy="0" r="7"/>
  <circle id="rim2" cx="0" cy="0" r="3.5"/>
  <g id="zoomPlus">
    <use xlink:href="#rim" fill="#404040"><set attributeName="fill" to="#808080" begin="zoomplus.mouseover" end="zoomplus.mouseout"/></use>
    <path d="M-4,0h8M0,-4v8" fill="none" stroke="white" stroke-width="1.5" pointer-events="none"/>
  </g>
  <g id="zoomMin">
    <use xlink:href="#rim" fill="#404040"><set attributeName="fill" to="#808080" begin="zoomminus.mouseover" end="zoomminus.mouseout"/></use>
    <path d="M-4,0h8" fill="none" stroke="white" stroke-width="1.5" pointer-events="none"/>
  </g>
  <g id="arrowUp" transform="translate(30 24)">
    <use xlink:href="#rim"/>
    <path pointer-events="none" fill="none" stroke="white" stroke-width="1.5" d="M0,-3.0v7 M-2.5,-0.5L0,-3.0L2.5,-0.5"/>
  </g>
  <g id="arrowRight" transform="rotate(90) translate(36 -43)">
    <use xlink:href="#rim"/>
    <path pointer-events="none" fill="none" stroke="white" stroke-width="1.5" d="M0,-3.0v7 M-2.5,-0.5L0,-3.0L2.5,-0.5"/>
  </g>
  <g id="arrowDown" transform="rotate(180) translate(-30 -48)">
    <use xlink:href="#rim"/>
    <path pointer-events="none" fill="none" stroke="white" stroke-width="1.5" d="M0,-3.0v7 M-2.5,-0.5L0,-3.0L2.5,-0.5"/>
  </g>
  <g id="arrowLeft" transform="rotate(270) translate(-36 17)">
    <use xlink:href="#rim"/>
    <path pointer-events="none" fill="none" stroke="white" stroke-width="1.5" d="M0,-3.0v7 M-2.5,-0.5L0,-3.0L2.5,-0.5"/>
  </g>
  <g id="resetDef">
    <use xlink:href="#rim2" fill="#404040"><set attributeName="fill" to="#808080" begin="reset.mouseover" end="reset.mouseout"/></use>
  </g>
</defs>
<script type="application/ecmascript">
var viewWidth = 677;
var viewHeight = 393;
var sectionId = 'dynsection-4';
</script>
<script type="application/ecmascript" xlink:href="svg.min.js"/>
<svg id="graph" class="graph">
<g id="viewport">
<title>create_transformer_selector_ui_eff</title>
<!-- Node1 -->
<g id="Node000001" class="node">
<title>Node1</title>
<g id="a_Node000001"><a xlink:title=" ">
<polygon fill="#999999" stroke="#666666" points="109.75,-215.5 0,-215.5 0,-182 109.75,-182 109.75,-215.5"/>
<text xml:space="preserve" text-anchor="start" x="8" y="-202" font-family="Helvetica,sans-Serif" font-size="10.00">create_transformer</text>
<text xml:space="preserve" text-anchor="middle" x="54.88" y="-189.25" font-family="Helvetica,sans-Serif" font-size="10.00">_selector_ui_eff</text>
</a>
</g>
</g>
<!-- Node2 -->
<g id="Node000002" class="node">
<title>Node2</title>
<g id="a_Node000002"><a xlink:href="m__ui_8c.html#a8348d5e665c738ca7c0ed0676d0364c9" target="_top" xlink:title=" ">
<polygon fill="white" stroke="#666666" points="279.5,-308.5 145.75,-308.5 145.75,-275 279.5,-275 279.5,-308.5"/>
<text xml:space="preserve" text-anchor="start" x="153.75" y="-295" font-family="Helvetica,sans-Serif" font-size="10.00">create_panel_with_back</text>
<text xml:space="preserve" text-anchor="middle" x="212.62" y="-282.25" font-family="Helvetica,sans-Serif" font-size="10.00">_button</text>
</a>
</g>
</g>
<!-- Node1&#45;&gt;Node2 -->
<g id="edge1_Node000001_Node000002" class="edge">
<title>Node1&#45;&gt;Node2</title>
<g id="a_edge1_Node000001_Node000002"><a xlink:title=" ">
<path fill="none" stroke="#63b8ff" d="M84.44,-215.81C109.39,-230.71 145.81,-252.45 173.29,-268.86"/>
<polygon fill="#63b8ff" stroke="#63b8ff" points="171.3,-271.75 181.68,-273.87 174.88,-265.74 171.3,-271.75"/>
</a>
</g>
</g>
<!-- Node11 -->
<g id="Node000011" class="node">
<title>Node11</title>
<g id="a_Node000011"><a xlink:href="m__ui_8c.html#a62738946a4bf88f4f13024860a34c7f1" target="_top" xlink:title=" ">
<polygon fill="white" stroke="#666666" points="278.38,-241.5 146.88,-241.5 146.88,-208 278.38,-208 278.38,-241.5"/>
<text xml:space="preserve" text-anchor="start" x="154.88" y="-228" font-family="Helvetica,sans-Serif" font-size="10.00">create_standard_button</text>
<text xml:space="preserve" text-anchor="middle" x="212.62" y="-215.25" font-family="Helvetica,sans-Serif" font-size="10.00">_list_tall</text>
</a>
</g>
</g>
<!-- Node1&#45;&gt;Node11 -->
<g id="edge7_Node000001_Node000011" class="edge">
<title>Node1&#45;&gt;Node11</title>
<g id="a_edge7_Node000001_Node000011"><a xlink:title=" ">
<path fill="none" stroke="#63b8ff" d="M109.91,-207.77C118.1,-209.14 126.67,-210.57 135.22,-212"/>
<polygon fill="#63b8ff" stroke="#63b8ff" points="134.48,-215.42 144.92,-213.62 135.64,-208.52 134.48,-215.42"/>
</a>
</g>
</g>
<!-- Node12 -->
<g id="Node000012" class="node">
<title>Node12</title>
<g id="a_Node000012"><a xlink:href="m__transformer__select_8c.html#a26bc01d09200b28d05f5786f45a0cc59" target="_top" xlink:title=" ">
<polygon fill="white" stroke="#666666" points="277.62,-189.5 147.62,-189.5 147.62,-156 277.62,-156 277.62,-189.5"/>
<text xml:space="preserve" text-anchor="start" x="155.62" y="-176" font-family="Helvetica,sans-Serif" font-size="10.00">create_transformer</text>
<text xml:space="preserve" text-anchor="middle" x="212.62" y="-163.25" font-family="Helvetica,sans-Serif" font-size="10.00">_selector_button_ui_eff</text>
</a>
</g>
</g>
<!-- Node1&#45;&gt;Node12 -->
<g id="edge8_Node000001_Node000012" class="edge">
<title>Node1&#45;&gt;Node12</title>
<g id="a_edge8_Node000001_Node000012"><a xlink:title=" ">
<path fill="none" stroke="#63b8ff" d="M109.91,-189.73C118.38,-188.32 127.25,-186.83 136.09,-185.36"/>
<polygon fill="#63b8ff" stroke="#63b8ff" points="136.45,-188.85 145.74,-183.75 135.3,-181.94 136.45,-188.85"/>
</a>
</g>
</g>
<!-- Node159 -->
<g id="Node000159" class="node">
<title>Node159</title>
<g id="a_Node000159"><a xlink:href="m__ui_8c.html#a7fb9325e8b5456d540ead3cc81f7c223" target="_top" xlink:title=" ">
<polygon fill="white" stroke="#666666" points="256.62,-138.12 168.62,-138.12 168.62,-117.38 256.62,-117.38 256.62,-138.12"/>
<text xml:space="preserve" text-anchor="middle" x="212.62" y="-124.62" font-family="Helvetica,sans-Serif" font-size="10.00">set_panel_text</text>
</a>
</g>
</g>
<!-- Node1&#45;&gt;Node159 -->
<g id="edge18_Node000001_Node000159" class="edge">
<title>Node1&#45;&gt;Node159</title>
<g id="a_edge18_Node000001_Node000159"><a xlink:title=" ">
<path fill="none" stroke="#63b8ff" d="M81.74,-181.52C99.24,-170.43 123.19,-156.36 145.75,-146.75 149.59,-145.11 153.61,-143.57 157.7,-142.12"/>
<polygon fill="#63b8ff" stroke="#63b8ff" points="158.74,-145.47 167.13,-139 156.54,-138.82 158.74,-145.47"/>
</a>
</g>
</g>
<!-- Node3 -->
<g id="Node000003" class="node">
<title>Node3</title>
<g id="a_Node000003"><a xlink:href="m__ui_8c.html#a3728b6c96a53229235fe6cbd6822e458" target="_top" xlink:title=" ">
<polygon fill="white" stroke="#666666" points="444.75,-353.5 317.75,-353.5 317.75,-320 444.75,-320 444.75,-353.5"/>
<text xml:space="preserve" text-anchor="start" x="325.75" y="-340" font-family="Helvetica,sans-Serif" font-size="10.00">create_panel_with_left</text>
<text xml:space="preserve" text-anchor="middle" x="381.25" y="-327.25" font-family="Helvetica,sans-Serif" font-size="10.00">_button</text>
</a>
</g>
</g>
<!-- Node2&#45;&gt;Node3 -->
<g id="edge2_Node000002_Node000003" class="edge">
<title>Node2&#45;&gt;Node3</title>
<g id="a_edge2_Node000002_Node000003"><a xlink:title=" ">
<path fill="none" stroke="#63b8ff" d="M277.09,-308.89C286.72,-311.49 296.71,-314.19 306.53,-316.84"/>
<polygon fill="#63b8ff" stroke="#63b8ff" points="305.48,-320.18 316.05,-319.41 307.31,-313.42 305.48,-320.18"/>
</a>
</g>
</g>
<!-- Node7 -->
<g id="Node000007" class="node">
<title>Node7</title>
<g id="a_Node000007"><a xlink:href="m__ui_8c.html#af17d8912a520f607796e85d96467cc5a" target="_top" xlink:title=" ">
<polygon fill="white" stroke="#666666" points="443.25,-302.12 319.25,-302.12 319.25,-281.38 443.25,-281.38 443.25,-302.12"/>
<text xml:space="preserve" text-anchor="middle" x="381.25" y="-288.62" font-family="Helvetica,sans-Serif" font-size="10.00">enter_parent_page_cb</text>
</a>
</g>
</g>
<!-- Node2&#45;&gt;Node7 -->
<g id="edge5_Node000002_Node000007" class="edge">
<title>Node2&#45;&gt;Node7</title>
<g id="a_edge5_Node000002_Node000007"><a xlink:title=" ">
<path fill="none" stroke="#63b8ff" d="M279.96,-291.75C289.02,-291.75 298.36,-291.75 307.53,-291.75"/>
<polygon fill="#63b8ff" stroke="#63b8ff" points="307.5,-295.25 317.5,-291.75 307.5,-288.25 307.5,-295.25"/>
</a>
</g>
</g>
<!-- Node4 -->
<g id="Node000004" class="node">
<title>Node4</title>
<g id="a_Node000004"><a xlink:href="m__ui_8c.html#ab3da49078417d18370cba76c99997da5" target="_top" xlink:title=" ">
<polygon fill="#fff0f0" stroke="red" points="615.25,-385.12 536.25,-385.12 536.25,-364.38 615.25,-364.38 615.25,-385.12"/>
<text xml:space="preserve" text-anchor="middle" x="575.75" y="-371.62" font-family="Helvetica,sans-Serif" font-size="10.00">create_panel</text>
</a>
</g>
</g>
<!-- Node3&#45;&gt;Node4 -->
<g id="edge3_Node000003_Node000004" class="edge">
<title>Node3&#45;&gt;Node4</title>
<g id="a_edge3_Node000003_Node000004"><a xlink:title=" ">
<path fill="none" stroke="#63b8ff" d="M445.02,-349.14C470.87,-354.24 500.41,-360.08 524.77,-364.88"/>
<polygon fill="#63b8ff" stroke="#63b8ff" points="523.94,-368.29 534.43,-366.79 525.3,-361.42 523.94,-368.29"/>
</a>
</g>
</g>
<!-- Node6 -->
<g id="Node000006" class="node">
<title>Node6</title>
<g id="a_Node000006"><a xlink:href="m__ui_8c.html#af44c7bc6468ed05c59eba66ce3692e7e" target="_top" xlink:title=" ">
<polygon fill="white" stroke="#666666" points="644.5,-346.12 507,-346.12 507,-325.38 644.5,-325.38 644.5,-346.12"/>
<text xml:space="preserve" text-anchor="middle" x="575.75" y="-332.62" font-family="Helvetica,sans-Serif" font-size="10.00">create_panel_left_button</text>
</a>
</g>
</g>
<!-- Node3&#45;&gt;Node6 -->
<g id="edge4_Node000003_Node000006" class="edge">
<title>Node3&#45;&gt;Node6</title>
<g id="a_edge4_Node000003_Node000006"><a xlink:title=" ">
<path fill="none" stroke="#63b8ff" d="M445.02,-336.42C461.06,-336.34 478.53,-336.25 495.29,-336.16"/>
<polygon fill="#63b8ff" stroke="#63b8ff" points="495.26,-339.66 505.24,-336.11 495.23,-332.66 495.26,-339.66"/>
</a>
</g>
</g>
<!-- Node8 -->
<g id="Node000008" class="node">
<title>Node8</title>
<g id="a_Node000008"><a xlink:href="m__ui_8c.html#ac3fd93d055094ed9bd458eb283af7c04" target="_top" xlink:title=" ">
<polygon fill="#fff0f0" stroke="red" points="647.12,-304.12 504.38,-304.12 504.38,-283.38 647.12,-283.38 647.12,-304.12"/>
<text xml:space="preserve" text-anchor="middle" x="575.75" y="-290.62" font-family="Helvetica,sans-Serif" font-size="10.00">enter_ui_page_backwards</text>
</a>
</g>
</g>
<!-- Node7&#45;&gt;Node8 -->
<g id="edge6_Node000007_Node000008" class="edge">
<title>Node7&#45;&gt;Node8</title>
<g id="a_edge6_Node000007_Node000008"><a xlink:title=" ">
<path fill="none" stroke="#63b8ff" d="M443.69,-292.39C459.33,-292.55 476.4,-292.73 492.88,-292.9"/>
<polygon fill="#63b8ff" stroke="#63b8ff" points="492.63,-296.4 502.67,-293 492.7,-289.4 492.63,-296.4"/>
</a>
</g>
</g>
<!-- Node13 -->
<g id="Node000013" class="node">
<title>Node13</title>
<g id="a_Node000013"><a xlink:href="m__transformer__select_8c.html#a8a60316cc5a79aaf1c656b9523dd54b1" target="_top" xlink:title=" ">
<polygon fill="white" stroke="#666666" points="444,-189.5 318.5,-189.5 318.5,-156 444,-156 444,-189.5"/>
<text xml:space="preserve" text-anchor="start" x="326.5" y="-176" font-family="Helvetica,sans-Serif" font-size="10.00">add_transformer_from</text>
<text xml:space="preserve" text-anchor="middle" x="381.25" y="-163.25" font-family="Helvetica,sans-Serif" font-size="10.00">_menu_eff</text>
</a>
</g>
</g>
<!-- Node12&#45;&gt;Node13 -->
<g id="edge9_Node000012_Node000013" class="edge">
<title>Node12&#45;&gt;Node13</title>
<g id="a_edge9_Node000012_Node000013"><a xlink:title=" ">
<path fill="none" stroke="#63b8ff" d="M278.05,-172.75C287.52,-172.75 297.35,-172.75 306.99,-172.75"/>
<polygon fill="#63b8ff" stroke="#63b8ff" points="306.68,-176.25 316.68,-172.75 306.68,-169.25 306.68,-176.25"/>
</a>
</g>
</g>
<!-- Node158 -->
<g id="Node000158" class="node">
<title>Node158</title>
<g id="a_Node000158"><a xlink:href="m__ui_8c.html#a3db1223191628ba0e7dd7ca3c2c8a529" target="_top" xlink:title=" ">
<polygon fill="white" stroke="#666666" points="447,-137.5 315.5,-137.5 315.5,-104 447,-104 447,-137.5"/>
<text xml:space="preserve" text-anchor="start" x="323.5" y="-124" font-family="Helvetica,sans-Serif" font-size="10.00">create_standard_button</text>
<text xml:space="preserve" text-anchor="middle" x="381.25" y="-111.25" font-family="Helvetica,sans-Serif" font-size="10.00">_click_short</text>
</a>
</g>
</g>
<!-- Node12&#45;&gt;Node158 -->
<g id="edge17_Node000012_Node000158" class="edge">
<title>Node12&#45;&gt;Node158</title>
<g id="a_edge17_Node000012_Node000158"><a xlink:title=" ">
<path fill="none" stroke="#63b8ff" d="M268.65,-155.58C283.22,-151.03 299.09,-146.08 314.18,-141.37"/>
<polygon fill="#63b8ff" stroke="#63b8ff" points="315.05,-144.76 323.56,-138.44 312.97,-138.08 315.05,-144.76"/>
</a>
</g>
</g>
<!-- Node13&#45;&gt;Node8 -->
<g id="edge11_Node000013_Node000008" class="edge">
<title>Node13&#45;&gt;Node8</title>
<g id="a_edge11_Node000013_Node000008"><a xlink:title=" ">
<path fill="none" stroke="#63b8ff" d="M394.05,-189.88C410.95,-213 444.29,-253.71 483,-274.75 486.39,-276.59 489.94,-278.26 493.59,-279.76"/>
<polygon fill="#63b8ff" stroke="#63b8ff" points="492.08,-282.93 502.67,-283.07 494.47,-276.36 492.08,-282.93"/>
</a>
</g>
</g>
<!-- Node14 -->
<g id="Node000014" class="node">
<title>Node14</title>
<g id="a_Node000014"><a xlink:href="m__transformer__view_8c.html#abdac4f3fa193f00e3ecab0e63ca90055" target="_top" xlink:title=" ">
<polygon fill="#fff0f0" stroke="red" points="630.62,-265.5 520.88,-265.5 520.88,-232 630.62,-232 630.62,-265.5"/>
<text xml:space="preserve" text-anchor="start" x="528.88" y="-252" font-family="Helvetica,sans-Serif" font-size="10.00">create_transformer</text>
<text xml:space="preserve" text-anchor="middle" x="575.75" y="-239.25" font-family="Helvetica,sans-Serif" font-size="10.00">_view_ui</text>
</a>
</g>
</g>
<!-- Node13&#45;&gt;Node14 -->
<g id="edge10_Node000013_Node000014" class="edge">
<title>Node13&#45;&gt;Node14</title>
<g id="a_edge10_Node000013_Node000014"><a xlink:title=" ">
<path fill="none" stroke="#63b8ff" d="M412.9,-189.81C432.52,-200.27 458.77,-213.4 483,-222.75 491.56,-226.06 500.72,-229.15 509.82,-231.97"/>
<polygon fill="#63b8ff" stroke="#63b8ff" points="508.8,-235.32 519.39,-234.83 510.81,-228.61 508.8,-235.32"/>
</a>
</g>
</g>
<!-- Node84 -->
<g id="Node000084" class="node">
<title>Node84</title>
<g id="a_Node000084"><a xlink:href="m__profile_8c.html#a01a263a3178ca21ca06b9815f753b9dc" target="_top" xlink:title=" ">
<polygon fill="#fff0f0" stroke="red" points="668.5,-214.12 483,-214.12 483,-193.38 668.5,-193.38 668.5,-214.12"/>
<text xml:space="preserve" text-anchor="middle" x="575.75" y="-200.62" font-family="Helvetica,sans-Serif" font-size="10.00">m_profile_append_transformer_eff</text>
</a>
</g>
</g>
<!-- Node13&#45;&gt;Node84 -->
<g id="edge12_Node000013_Node000084" class="edge">
<title>Node13&#45;&gt;Node84</title>
<g id="a_edge12_Node000013_Node000084"><a xlink:title=" ">
<path fill="none" stroke="#63b8ff" d="M444.48,-182.77C460.97,-185.43 478.99,-188.33 496.23,-191.1"/>
<polygon fill="#63b8ff" stroke="#63b8ff" points="495.49,-194.53 505.92,-192.67 496.6,-187.62 495.49,-194.53"/>
</a>
</g>
</g>
<!-- Node51 -->
<g id="Node000051" class="node">
<title>Node51</title>
<g id="a_Node000051"><a xlink:href="m__profile_8c.html#a9161b482b0dc7522ee6c65b863b7e1c6" target="_top" xlink:title=" ">
<polygon fill="#fff0f0" stroke="red" points="630.62,-175.5 520.88,-175.5 520.88,-142 630.62,-142 630.62,-175.5"/>
<text xml:space="preserve" text-anchor="start" x="528.88" y="-162" font-family="Helvetica,sans-Serif" font-size="10.00">m_profile_if_active</text>
<text xml:space="preserve" text-anchor="middle" x="575.75" y="-149.25" font-family="Helvetica,sans-Serif" font-size="10.00">_update_fpga</text>
</a>
</g>
</g>
<!-- Node13&#45;&gt;Node51 -->
<g id="edge13_Node000013_Node000051" class="edge">
<title>Node13&#45;&gt;Node51</title>
<g id="a_edge13_Node000013_Node000051"><a xlink:title=" ">
<path fill="none" stroke="#63b8ff" d="M444.48,-168.22C465.15,-166.72 488.22,-165.04 509.14,-163.52"/>
<polygon fill="#63b8ff" stroke="#63b8ff" points="509.28,-167.02 519,-162.8 508.77,-160.04 509.28,-167.02"/>
</a>
</g>
</g>
<!-- Node113 -->
<g id="Node000113" class="node">
<title>Node113</title>
<g id="a_Node000113"><a xlink:href="m__profile_8c.html#a3e0dbd889a2ea32d7abb63f31b1c04ac" target="_top" xlink:title=" ">
<polygon fill="#fff0f0" stroke="red" points="667.38,-124.12 484.12,-124.12 484.12,-103.38 667.38,-103.38 667.38,-124.12"/>
<text xml:space="preserve" text-anchor="middle" x="575.75" y="-110.62" font-family="Helvetica,sans-Serif" font-size="10.00">m_profile_update_representations</text>
</a>
</g>
</g>
<!-- Node13&#45;&gt;Node113 -->
<g id="edge14_Node000013_Node000113" class="edge">
<title>Node13&#45;&gt;Node113</title>
<g id="a_edge14_Node000013_Node000113"><a xlink:title=" ">
<path fill="none" stroke="#63b8ff" d="M425.04,-155.57C451.07,-145.15 479.9,-133.68 483,-132.75 489.75,-130.73 496.84,-128.85 503.97,-127.12"/>
<polygon fill="#63b8ff" stroke="#63b8ff" points="504.72,-130.53 513.67,-124.86 503.14,-123.71 504.72,-130.53"/>
</a>
</g>
</g>
<!-- Node114 -->
<g id="Node000114" class="node">
<title>Node114</title>
<g id="a_Node000114"><a xlink:href="m__transformer_8h.html#a558ed3be285c90a47c51218a6feb5f28" target="_top" xlink:title=" ">
<polygon fill="white" stroke="#666666" points="630.62,-85.5 520.88,-85.5 520.88,-52 630.62,-52 630.62,-85.5"/>
<text xml:space="preserve" text-anchor="start" x="528.88" y="-72" font-family="Helvetica,sans-Serif" font-size="10.00">m_transformer_init</text>
<text xml:space="preserve" text-anchor="middle" x="575.75" y="-59.25" font-family="Helvetica,sans-Serif" font-size="10.00">_view_page</text>
</a>
</g>
</g>
<!-- Node13&#45;&gt;Node114 -->
<g id="edge15_Node000013_Node000114" class="edge">
<title>Node13&#45;&gt;Node114</title>
<g id="a_edge15_Node000013_Node000114"><a xlink:title=" ">
<path fill="none" stroke="#63b8ff" d="M433.35,-155.63C438.19,-153.02 442.83,-150.07 447,-146.75 468.97,-129.22 460.13,-111.1 483,-94.75 491.02,-89.01 500.28,-84.54 509.77,-81.05"/>
<polygon fill="#63b8ff" stroke="#63b8ff" points="510.67,-84.44 519.08,-77.99 508.49,-77.79 510.67,-84.44"/>
</a>
</g>
</g>
<!-- Node115 -->
<g id="Node000115" class="node">
<title>Node115</title>
<g id="a_Node000115"><a xlink:href="m__profile__view_8c.html#a7a5be31e096c8437e2dc12359a898d9b" target="_top" xlink:title=" ">
<polygon fill="#fff0f0" stroke="red" points="634.38,-33.5 517.12,-33.5 517.12,0 634.38,0 634.38,-33.5"/>
<text xml:space="preserve" text-anchor="start" x="525.12" y="-20" font-family="Helvetica,sans-Serif" font-size="10.00">profile_view_append</text>
<text xml:space="preserve" text-anchor="middle" x="575.75" y="-7.25" font-family="Helvetica,sans-Serif" font-size="10.00">_transformer</text>
</a>
</g>
</g>
<!-- Node13&#45;&gt;Node115 -->
<g id="edge16_Node000013_Node000115" class="edge">
<title>Node13&#45;&gt;Node115</title>
<g id="a_edge16_Node000013_Node000115"><a xlink:title=" ">
<path fill="none" stroke="#63b8ff" d="M436.24,-155.55C440.17,-153 443.83,-150.08 447,-146.75 480.74,-111.33 447.44,-76.34 483,-42.75 489.67,-36.45 497.76,-31.65 506.34,-28.01"/>
<polygon fill="#63b8ff" stroke="#63b8ff" points="507.37,-31.36 515.56,-24.64 504.96,-24.79 507.37,-31.36"/>
</a>
</g>
</g>
</g>
</svg>

<g id="navigator" transform="translate(0 0)" fill="#404254">
  <rect fill="#f2f5e9" fill-opacity="0.5" stroke="#606060" stroke-width=".5" x="0" y="0" width="60" height="60"/>
  <use id="zoomplus" xlink:href="#zoomPlus" x="17" y="9" onmousedown="handleZoom(evt,'in')"/>
  <use id="zoomminus" xlink:href="#zoomMin" x="42" y="9" onmousedown="handleZoom(evt,'out')"/>
  <use id="reset" xlink:href="#resetDef" x="30" y="36" onmousedown="handleReset()"/>
   <use id="arrowup" xlink:href="#arrowUp" x="0" y="0" onmousedown="handlePan(0,-1)"/>
  <use id="arrowright" xlink:href="#arrowRight" x="0" y="0" onmousedown="handlePan(1,0)"/>
  <use id="arrowdown" xlink:href="#arrowDown" x="0" y="0" onmousedown="handlePan(0,1)"/>
  <use id="arrowleft" xlink:href="#arrowLeft" x="0" y="0" onmousedown="handlePan(-1,0)"/>
</g>
<svg viewBox="0 0 15 15" width="100%" height="30px" preserveAspectRatio="xMaxYMin meet">
 <g id="arrow_out" transform="scale(0.3 0.3)">
  <a xlink:href="m__transformer__select_8c_a190405b84e930df98a00d85575b6bc09_cgraph_org.svg" target="_base">
   <rect id="button" ry="5" rx="5" y="6" x="6" height="38" width="38"
        fill="#f2f5e9" fill-opacity="0.5" stroke="#606060" stroke-width="1.0"/>
   <path id="arrow"
     d="M 11.500037,31.436501 C 11.940474,20.09759 22.043105,11.32322 32.158766,21.979434 L 37.068811,17.246167 C 37.068811,17.246167 37.088388,32 37.088388,32 L 22.160133,31.978069 C 22.160133,31.978069 26.997745,27.140456 26.997745,27.140456 C 18.528582,18.264221 13.291696,25.230495 11.500037,31.436501 z"
     style="fill:#404040;"/>
  </a>
 </g>
</svg>

<style type='text/css'>
<![CDATA[
[data-mouse-over-selected='false'] { opacity: 0.7; }
[data-mouse-over-selected='true']  { opacity: 1.0; }
]]>
</style>
<script type="application/ecmascript"><![CDATA[
document.addEventListener('DOMContentLoaded', (event) => {
  highlightEdges();
  highlightAdjacentNodes();
});
]]></script>
</svg>
