<?xml version="1.0" encoding="UTF-8" standalone="no"?>
<!DOCTYPE svg PUBLIC "-//W3C//DTD SVG 1.1//EN"
 "http://www.w3.org/Graphics/SVG/1.1/DTD/svg11.dtd">
<!-- Generated by graphviz version 13.1.2 (20250808.2320)
 -->
<!-- Title: token_is_name Pages: 1 -->
<svg width="687pt" height="161pt"
 viewBox="0.00 0.00 687.00 161.00" xmlns="http://www.w3.org/2000/svg" xmlns:xlink="http://www.w3.org/1999/xlink">
<g id="graph0" class="graph" transform="scale(1 1) rotate(0) translate(4 157.12)">
<title>token_is_name</title>
<!-- Node1 -->
<g id="Node000001" class="node">
<title>Node1</title>
<g id="a_Node000001"><a xlink:title=" ">
<polygon fill="#999999" stroke="#666666" points="678.5,-72.75 589,-72.75 589,-52 678.5,-52 678.5,-72.75"/>
<text xml:space="preserve" text-anchor="middle" x="633.75" y="-59.25" font-family="Helvetica,sans-Serif" font-size="10.00">token_is_name</text>
</a>
</g>
</g>
<!-- Node2 -->
<g id="Node000002" class="node">
<title>Node2</title>
<g id="a_Node000002"><a xlink:href="m__dictionary_8c.html#ab52fc5ead828b21f765fdd2819fac663" target="_top" xlink:title=" ">
<polygon fill="white" stroke="#666666" points="398.25,-102.75 286.25,-102.75 286.25,-82 398.25,-82 398.25,-102.75"/>
<text xml:space="preserve" text-anchor="middle" x="342.25" y="-89.25" font-family="Helvetica,sans-Serif" font-size="10.00">m_parse_dictionary</text>
</a>
</g>
</g>
<!-- Node1&#45;&gt;Node2 -->
<g id="edge1_Node000001_Node000002" class="edge">
<title>Node1&#45;&gt;Node2</title>
<g id="a_edge1_Node000001_Node000002"><a xlink:title=" ">
<path fill="none" stroke="#63b8ff" d="M577.24,-72.01C569.12,-73.25 560.86,-74.42 553,-75.38 500.78,-81.74 440.94,-86.32 398.58,-89.11"/>
<polygon fill="#63b8ff" stroke="#63b8ff" points="577.72,-75.48 587.05,-70.47 576.63,-68.57 577.72,-75.48"/>
</a>
</g>
</g>
<!-- Node11 -->
<g id="Node000011" class="node">
<title>Node11</title>
<g id="a_Node000011"><a xlink:href="m__expr__parser_8c.html#a45b4bb314bb1c677680ca37595ea8281" target="_top" xlink:title=" ">
<polygon fill="white" stroke="#666666" points="553,-48.12 436.5,-48.12 436.5,-14.62 553,-14.62 553,-48.12"/>
<text xml:space="preserve" text-anchor="start" x="444.5" y="-34.62" font-family="Helvetica,sans-Serif" font-size="10.00">m_parse_expression</text>
<text xml:space="preserve" text-anchor="middle" x="494.75" y="-21.88" font-family="Helvetica,sans-Serif" font-size="10.00">_rec_pratt</text>
</a>
</g>
</g>
<!-- Node1&#45;&gt;Node11 -->
<g id="edge6_Node000001_Node000011" class="edge">
<title>Node1&#45;&gt;Node11</title>
<g id="a_edge6_Node000001_Node000011"><a xlink:title=" ">
<path fill="none" stroke="#63b8ff" d="M577.56,-49.89C569.57,-48.08 561.32,-46.21 553.28,-44.39"/>
<polygon fill="#63b8ff" stroke="#63b8ff" points="576.65,-53.27 587.17,-52.06 578.19,-46.44 576.65,-53.27"/>
</a>
</g>
</g>
<!-- Node3 -->
<g id="Node000003" class="node">
<title>Node3</title>
<g id="a_Node000003"><a xlink:href="m__dictionary_8c.html#aab1bb060fb0ff389ff2712d91ef17634" target="_top" xlink:title=" ">
<polygon fill="white" stroke="#666666" points="240.5,-101.75 139,-101.75 139,-81 240.5,-81 240.5,-101.75"/>
<text xml:space="preserve" text-anchor="middle" x="189.75" y="-88.25" font-family="Helvetica,sans-Serif" font-size="10.00">m_parse_dict_val</text>
</a>
</g>
</g>
<!-- Node2&#45;&gt;Node3 -->
<g id="edge2_Node000002_Node000003" class="edge">
<title>Node2&#45;&gt;Node3</title>
<g id="a_edge2_Node000002_Node000003"><a xlink:title=" ">
<path fill="none" stroke="#63b8ff" d="M274.82,-85.23C263.45,-85.04 251.8,-85.07 240.94,-85.3"/>
<polygon fill="#63b8ff" stroke="#63b8ff" points="274.48,-88.72 284.55,-85.44 274.63,-81.72 274.48,-88.72"/>
</a>
</g>
</g>
<!-- Node4 -->
<g id="Node000004" class="node">
<title>Node4</title>
<g id="a_Node000004"><a xlink:href="m__eff__section_8c.html#ad4898a5c5f76355d6a696bb0d6ee3b82" target="_top" xlink:title=" ">
<polygon fill="white" stroke="#666666" points="245.75,-153.12 133.75,-153.12 133.75,-119.62 245.75,-119.62 245.75,-153.12"/>
<text xml:space="preserve" text-anchor="start" x="141.75" y="-139.62" font-family="Helvetica,sans-Serif" font-size="10.00">m_parse_dictionary</text>
<text xml:space="preserve" text-anchor="middle" x="189.75" y="-126.88" font-family="Helvetica,sans-Serif" font-size="10.00">_section</text>
</a>
</g>
</g>
<!-- Node2&#45;&gt;Node4 -->
<g id="edge4_Node000002_Node000004" class="edge">
<title>Node2&#45;&gt;Node4</title>
<g id="a_edge4_Node000002_Node000004"><a xlink:title=" ">
<path fill="none" stroke="#63b8ff" d="M293.74,-106.27C278.57,-110.7 261.65,-115.65 245.98,-120.23"/>
<polygon fill="#63b8ff" stroke="#63b8ff" points="294.36,-109.73 302.98,-103.56 292.4,-103.01 294.36,-109.73"/>
</a>
</g>
</g>
<!-- Node3&#45;&gt;Node2 -->
<g id="edge3_Node000003_Node000002" class="edge">
<title>Node3&#45;&gt;Node2</title>
<g id="a_edge3_Node000003_Node000002"><a xlink:title=" ">
<path fill="none" stroke="#63b8ff" d="M252.38,-98.44C263.53,-98.67 275.11,-98.71 286.06,-98.54"/>
<polygon fill="#63b8ff" stroke="#63b8ff" points="252.55,-94.94 242.46,-98.16 252.35,-101.94 252.55,-94.94"/>
</a>
</g>
</g>
<!-- Node5 -->
<g id="Node000005" class="node">
<title>Node5</title>
<g id="a_Node000005"><a xlink:href="m__eff__parser_8c.html#a094727fab3d645bca2ba21a44ecc5749" target="_top" xlink:title=" ">
<polygon fill="#fff0f0" stroke="red" points="95.5,-146.75 0,-146.75 0,-126 95.5,-126 95.5,-146.75"/>
<text xml:space="preserve" text-anchor="middle" x="47.75" y="-133.25" font-family="Helvetica,sans-Serif" font-size="10.00">m_parse_tokens</text>
</a>
</g>
</g>
<!-- Node4&#45;&gt;Node5 -->
<g id="edge5_Node000004_Node000005" class="edge">
<title>Node4&#45;&gt;Node5</title>
<g id="a_edge5_Node000004_Node000005"><a xlink:title=" ">
<path fill="none" stroke="#63b8ff" d="M121.97,-136.38C113.19,-136.38 104.35,-136.38 96,-136.38"/>
<polygon fill="#63b8ff" stroke="#63b8ff" points="121.9,-139.88 131.9,-136.38 121.9,-132.88 121.9,-139.88"/>
</a>
</g>
</g>
<!-- Node11&#45;&gt;Node11 -->
<g id="edge11_Node000011_Node000011" class="edge">
<title>Node11&#45;&gt;Node11</title>
<g id="a_edge11_Node000011_Node000011"><a xlink:title=" ">
<path fill="none" stroke="#63b8ff" d="M517.76,-59.84C513.85,-63.62 506.18,-66.12 494.75,-66.12 473.85,-66.12 465.52,-57.74 469.76,-48.54"/>
<polygon fill="#63b8ff" stroke="#63b8ff" points="521.2,-60.48 519.48,-50.03 514.31,-59.28 521.2,-60.48"/>
</a>
</g>
</g>
<!-- Node12 -->
<g id="Node000012" class="node">
<title>Node12</title>
<g id="a_Node000012"><a xlink:href="m__expr__parser_8c.html#af2a49578710f5e5b4f4c3339992ba0c9" target="_top" xlink:title=" ">
<polygon fill="white" stroke="#666666" points="400.5,-53.75 284,-53.75 284,-33 400.5,-33 400.5,-53.75"/>
<text xml:space="preserve" text-anchor="middle" x="342.25" y="-40.25" font-family="Helvetica,sans-Serif" font-size="10.00">m_parse_expression</text>
</a>
</g>
</g>
<!-- Node11&#45;&gt;Node12 -->
<g id="edge7_Node000011_Node000012" class="edge">
<title>Node11&#45;&gt;Node12</title>
<g id="a_edge7_Node000011_Node000012"><a xlink:title=" ">
<path fill="none" stroke="#63b8ff" d="M425.1,-36.85C417.02,-37.49 408.83,-38.15 400.92,-38.78"/>
<polygon fill="#63b8ff" stroke="#63b8ff" points="425.22,-40.35 434.91,-36.07 424.67,-33.37 425.22,-40.35"/>
</a>
</g>
</g>
<!-- Node12&#45;&gt;Node3 -->
<g id="edge10_Node000012_Node000003" class="edge">
<title>Node12&#45;&gt;Node3</title>
<g id="a_edge10_Node000012_Node000003"><a xlink:title=" ">
<path fill="none" stroke="#63b8ff" d="M296.59,-57.62C273.56,-64.96 245.93,-73.78 224.67,-80.56"/>
<polygon fill="#63b8ff" stroke="#63b8ff" points="297.57,-60.98 306.03,-54.61 295.44,-54.31 297.57,-60.98"/>
</a>
</g>
</g>
<!-- Node13 -->
<g id="Node000013" class="node">
<title>Node13</title>
<g id="a_Node000013"><a xlink:href="m__asm__parser_8c.html#ab379f2b6380b7d71195063b385d00b81" target="_top" xlink:title=" ">
<polygon fill="#fff0f0" stroke="red" points="242.38,-59.75 137.12,-59.75 137.12,-39 242.38,-39 242.38,-59.75"/>
<text xml:space="preserve" text-anchor="middle" x="189.75" y="-46.25" font-family="Helvetica,sans-Serif" font-size="10.00">m_parse_asm_arg</text>
</a>
</g>
</g>
<!-- Node12&#45;&gt;Node13 -->
<g id="edge8_Node000012_Node000013" class="edge">
<title>Node12&#45;&gt;Node13</title>
<g id="a_edge8_Node000012_Node000013"><a xlink:title=" ">
<path fill="none" stroke="#63b8ff" d="M272.6,-46.11C262.48,-46.52 252.19,-46.93 242.49,-47.31"/>
<polygon fill="#63b8ff" stroke="#63b8ff" points="272.56,-49.62 282.41,-45.72 272.28,-42.62 272.56,-49.62"/>
</a>
</g>
</g>
<!-- Node17 -->
<g id="Node000017" class="node">
<title>Node17</title>
<g id="a_Node000017"><a xlink:href="m__asm__parser_8c.html#a8a2db427fde0f1ea987235306f3c4582" target="_top" xlink:title=" ">
<polygon fill="#fff0f0" stroke="red" points="248,-20.75 131.5,-20.75 131.5,0 248,0 248,-20.75"/>
<text xml:space="preserve" text-anchor="middle" x="189.75" y="-7.25" font-family="Helvetica,sans-Serif" font-size="10.00">m_parse_asm_arg_2</text>
</a>
</g>
</g>
<!-- Node12&#45;&gt;Node17 -->
<g id="edge9_Node000012_Node000017" class="edge">
<title>Node12&#45;&gt;Node17</title>
<g id="a_edge9_Node000012_Node000017"><a xlink:title=" ">
<path fill="none" stroke="#63b8ff" d="M280.82,-30.12C267.31,-27.16 253.14,-24.06 240.14,-21.2"/>
<polygon fill="#63b8ff" stroke="#63b8ff" points="279.97,-33.52 290.49,-32.25 281.47,-26.68 279.97,-33.52"/>
</a>
</g>
</g>
</g>
</svg>
