<?xml version="1.0" encoding="UTF-8" standalone="no"?>
<!DOCTYPE svg PUBLIC "-//W3C//DTD SVG 1.1//EN"
 "http://www.w3.org/Graphics/SVG/1.1/DTD/svg11.dtd">
<!-- Generated by graphviz version 13.1.2 (20250808.2320)
 -->
<!-- Title: m_transformer_profile_rep_update Pages: 1 -->
<!--zoomable 119 -->

<svg id="main" version="1.1" xmlns="http://www.w3.org/2000/svg" xmlns:xlink="http://www.w3.org/1999/xlink" xml:space="preserve" onload="init(evt)">

<style type="text/css"><![CDATA[
.node, .edge {opacity: 0.7;}
.node.selected, .edge.selected {opacity: 1;}
.edge:hover path { stroke: red; }
.edge:hover polygon { stroke: red; fill: red; }
]]></style>

<defs>
  <circle id="rim" cx="0" cy="0" r="7"/>
  <circle id="rim2" cx="0" cy="0" r="3.5"/>
  <g id="zoomPlus">
    <use xlink:href="#rim" fill="#404040"><set attributeName="fill" to="#808080" begin="zoomplus.mouseover" end="zoomplus.mouseout"/></use>
    <path d="M-4,0h8M0,-4v8" fill="none" stroke="white" stroke-width="1.5" pointer-events="none"/>
  </g>
  <g id="zoomMin">
    <use xlink:href="#rim" fill="#404040"><set attributeName="fill" to="#808080" begin="zoomminus.mouseover" end="zoomminus.mouseout"/></use>
    <path d="M-4,0h8" fill="none" stroke="white" stroke-width="1.5" pointer-events="none"/>
  </g>
  <g id="arrowUp" transform="translate(30 24)">
    <use xlink:href="#rim"/>
    <path pointer-events="none" fill="none" stroke="white" stroke-width="1.5" d="M0,-3.0v7 M-2.5,-0.5L0,-3.0L2.5,-0.5"/>
  </g>
  <g id="arrowRight" transform="rotate(90) translate(36 -43)">
    <use xlink:href="#rim"/>
    <path pointer-events="none" fill="none" stroke="white" stroke-width="1.5" d="M0,-3.0v7 M-2.5,-0.5L0,-3.0L2.5,-0.5"/>
  </g>
  <g id="arrowDown" transform="rotate(180) translate(-30 -48)">
    <use xlink:href="#rim"/>
    <path pointer-events="none" fill="none" stroke="white" stroke-width="1.5" d="M0,-3.0v7 M-2.5,-0.5L0,-3.0L2.5,-0.5"/>
  </g>
  <g id="arrowLeft" transform="rotate(270) translate(-36 17)">
    <use xlink:href="#rim"/>
    <path pointer-events="none" fill="none" stroke="white" stroke-width="1.5" d="M0,-3.0v7 M-2.5,-0.5L0,-3.0L2.5,-0.5"/>
  </g>
  <g id="resetDef">
    <use xlink:href="#rim2" fill="#404040"><set attributeName="fill" to="#808080" begin="reset.mouseover" end="reset.mouseout"/></use>
  </g>
</defs>
<script type="application/ecmascript">
var viewWidth = 666;
var viewHeight = 119;
var sectionId = 'dynsection-14';
</script>
<script type="application/ecmascript" xlink:href="svg.min.js"/>
<svg id="graph" class="graph">
<g id="viewport">
<title>m_transformer_profile_rep_update</title>
<!-- Node1 -->
<g id="Node000001" class="node">
<title>Node1</title>
<g id="a_Node000001"><a xlink:title=" ">
<polygon fill="#999999" stroke="#666666" points="658,-72.12 532.5,-72.12 532.5,-38.62 658,-38.62 658,-72.12"/>
<text xml:space="preserve" text-anchor="start" x="540.5" y="-58.62" font-family="Helvetica,sans-Serif" font-size="10.00">m_transformer_profile</text>
<text xml:space="preserve" text-anchor="middle" x="595.25" y="-45.88" font-family="Helvetica,sans-Serif" font-size="10.00">_rep_update</text>
</a>
</g>
</g>
<!-- Node2 -->
<g id="Node000002" class="node">
<title>Node2</title>
<g id="a_Node000002"><a xlink:href="m__transformer_8c.html#af48d8713360a2a42b74f04e099f14195" target="_top" xlink:title=" ">
<polygon fill="white" stroke="#666666" points="496.5,-65.75 401.75,-65.75 401.75,-45 496.5,-45 496.5,-65.75"/>
<text xml:space="preserve" text-anchor="middle" x="449.12" y="-52.25" font-family="Helvetica,sans-Serif" font-size="10.00">init_transformer</text>
</a>
</g>
</g>
<!-- Node1&#45;&gt;Node2 -->
<g id="edge1_Node000001_Node000002" class="edge">
<title>Node1&#45;&gt;Node2</title>
<g id="a_edge1_Node000001_Node000002"><a xlink:title=" ">
<path fill="none" stroke="#63b8ff" d="M520.78,-55.38C512.62,-55.38 504.49,-55.38 496.79,-55.38"/>
<polygon fill="#63b8ff" stroke="#63b8ff" points="520.78,-58.88 530.78,-55.38 520.78,-51.88 520.78,-58.88"/>
</a>
</g>
</g>
<!-- Node3 -->
<g id="Node000003" class="node">
<title>Node3</title>
<g id="a_Node000003"><a xlink:href="m__transformer_8c.html#a13f55525e23d6a0163de168ab817556f" target="_top" xlink:title=" ">
<polygon fill="white" stroke="#666666" points="350,-110.75 244.75,-110.75 244.75,-90 350,-90 350,-110.75"/>
<text xml:space="preserve" text-anchor="middle" x="297.38" y="-97.25" font-family="Helvetica,sans-Serif" font-size="10.00">clone_transformer</text>
</a>
</g>
</g>
<!-- Node2&#45;&gt;Node3 -->
<g id="edge2_Node000002_Node000003" class="edge">
<title>Node2&#45;&gt;Node3</title>
<g id="a_edge2_Node000002_Node000003"><a xlink:title=" ">
<path fill="none" stroke="#63b8ff" d="M403.63,-69.69C391.38,-73.56 378.07,-77.69 365.75,-81.38 356.67,-84.09 346.86,-86.91 337.62,-89.53"/>
<polygon fill="#63b8ff" stroke="#63b8ff" points="404.62,-73.05 413.09,-66.69 402.5,-66.38 404.62,-73.05"/>
</a>
</g>
</g>
<!-- Node6 -->
<g id="Node000006" class="node">
<title>Node6</title>
<g id="a_Node000006"><a xlink:href="m__transformer_8c.html#a82e07502ed806f5697b6bd564f934b39" target="_top" xlink:title=" ">
<polygon fill="white" stroke="#666666" points="359,-72.12 235.75,-72.12 235.75,-38.62 359,-38.62 359,-72.12"/>
<text xml:space="preserve" text-anchor="start" x="243.75" y="-58.62" font-family="Helvetica,sans-Serif" font-size="10.00">init_transformer_from</text>
<text xml:space="preserve" text-anchor="middle" x="297.38" y="-45.88" font-family="Helvetica,sans-Serif" font-size="10.00">_effect_desc</text>
</a>
</g>
</g>
<!-- Node2&#45;&gt;Node6 -->
<g id="edge4_Node000002_Node000006" class="edge">
<title>Node2&#45;&gt;Node6</title>
<g id="a_edge4_Node000002_Node000006"><a xlink:title=" ">
<path fill="none" stroke="#63b8ff" d="M390.3,-55.38C380.12,-55.38 369.5,-55.38 359.24,-55.38"/>
<polygon fill="#63b8ff" stroke="#63b8ff" points="390.05,-58.88 400.05,-55.38 390.05,-51.88 390.05,-58.88"/>
</a>
</g>
</g>
<!-- Node18 -->
<g id="Node000018" class="node">
<title>Node18</title>
<g id="a_Node000018"><a xlink:href="m__transformer__init_8c.html#af3678329232371431470ab1777c18a79" target="_top" xlink:title=" ">
<polygon fill="white" stroke="#666666" points="365.75,-20.75 229,-20.75 229,0 365.75,0 365.75,-20.75"/>
<text xml:space="preserve" text-anchor="middle" x="297.38" y="-7.25" font-family="Helvetica,sans-Serif" font-size="10.00">init_transformer_of_type</text>
</a>
</g>
</g>
<!-- Node2&#45;&gt;Node18 -->
<g id="edge6_Node000002_Node000018" class="edge">
<title>Node2&#45;&gt;Node18</title>
<g id="a_edge6_Node000002_Node000018"><a xlink:title=" ">
<path fill="none" stroke="#63b8ff" d="M403.63,-41.06C391.38,-37.19 378.07,-33.06 365.75,-29.38 356.67,-26.66 346.86,-23.84 337.62,-21.22"/>
<polygon fill="#63b8ff" stroke="#63b8ff" points="402.5,-44.37 413.09,-44.06 404.62,-37.7 402.5,-44.37"/>
</a>
</g>
</g>
<!-- Node4 -->
<g id="Node000004" class="node">
<title>Node4</title>
<g id="a_Node000004"><a xlink:href="m__pipeline_8c.html#aac299a6a652e5e6e6832d2803635893c" target="_top" xlink:title=" ">
<polygon fill="#fff0f0" stroke="red" points="139.75,-110.75 53.25,-110.75 53.25,-90 139.75,-90 139.75,-110.75"/>
<text xml:space="preserve" text-anchor="middle" x="96.5" y="-97.25" font-family="Helvetica,sans-Serif" font-size="10.00">clone_pipeline</text>
</a>
</g>
</g>
<!-- Node3&#45;&gt;Node4 -->
<g id="edge3_Node000003_Node000004" class="edge">
<title>Node3&#45;&gt;Node4</title>
<g id="a_edge3_Node000003_Node000004"><a xlink:title=" ">
<path fill="none" stroke="#63b8ff" d="M233.04,-100.38C202.72,-100.38 167.21,-100.38 140.14,-100.38"/>
<polygon fill="#63b8ff" stroke="#63b8ff" points="232.87,-103.88 242.87,-100.38 232.87,-96.88 232.87,-103.88"/>
</a>
</g>
</g>
<!-- Node7 -->
<g id="Node000007" class="node">
<title>Node7</title>
<g id="a_Node000007"><a xlink:href="m__pipeline_8c.html#a65d3d1e281cbed15cd98d47ee1c62de5" target="_top" xlink:title=" ">
<polygon fill="#fff0f0" stroke="red" points="193,-65.75 0,-65.75 0,-45 193,-45 193,-65.75"/>
<text xml:space="preserve" text-anchor="middle" x="96.5" y="-52.25" font-family="Helvetica,sans-Serif" font-size="10.00">m_pipeline_append_transformer_eff</text>
</a>
</g>
</g>
<!-- Node6&#45;&gt;Node7 -->
<g id="edge5_Node000006_Node000007" class="edge">
<title>Node6&#45;&gt;Node7</title>
<g id="a_edge5_Node000006_Node000007"><a xlink:title=" ">
<path fill="none" stroke="#63b8ff" d="M223.85,-55.38C213.87,-55.38 203.51,-55.38 193.19,-55.38"/>
<polygon fill="#63b8ff" stroke="#63b8ff" points="223.84,-58.88 233.84,-55.38 223.84,-51.88 223.84,-58.88"/>
</a>
</g>
</g>
</g>
</svg>

<g id="navigator" transform="translate(0 0)" fill="#404254">
  <rect fill="#f2f5e9" fill-opacity="0.5" stroke="#606060" stroke-width=".5" x="0" y="0" width="60" height="60"/>
  <use id="zoomplus" xlink:href="#zoomPlus" x="17" y="9" onmousedown="handleZoom(evt,'in')"/>
  <use id="zoomminus" xlink:href="#zoomMin" x="42" y="9" onmousedown="handleZoom(evt,'out')"/>
  <use id="reset" xlink:href="#resetDef" x="30" y="36" onmousedown="handleReset()"/>
   <use id="arrowup" xlink:href="#arrowUp" x="0" y="0" onmousedown="handlePan(0,-1)"/>
  <use id="arrowright" xlink:href="#arrowRight" x="0" y="0" onmousedown="handlePan(1,0)"/>
  <use id="arrowdown" xlink:href="#arrowDown" x="0" y="0" onmousedown="handlePan(0,1)"/>
  <use id="arrowleft" xlink:href="#arrowLeft" x="0" y="0" onmousedown="handlePan(-1,0)"/>
</g>
<svg viewBox="0 0 15 15" width="100%" height="30px" preserveAspectRatio="xMaxYMin meet">
 <g id="arrow_out" transform="scale(0.3 0.3)">
  <a xlink:href="m__transformer_8h_a0743d447db0538f2fdc94fc58e4d57f0_icgraph_org.svg" target="_base">
   <rect id="button" ry="5" rx="5" y="6" x="6" height="38" width="38"
        fill="#f2f5e9" fill-opacity="0.5" stroke="#606060" stroke-width="1.0"/>
   <path id="arrow"
     d="M 11.500037,31.436501 C 11.940474,20.09759 22.043105,11.32322 32.158766,21.979434 L 37.068811,17.246167 C 37.068811,17.246167 37.088388,32 37.088388,32 L 22.160133,31.978069 C 22.160133,31.978069 26.997745,27.140456 26.997745,27.140456 C 18.528582,18.264221 13.291696,25.230495 11.500037,31.436501 z"
     style="fill:#404040;"/>
  </a>
 </g>
</svg>

<style type='text/css'>
<![CDATA[
[data-mouse-over-selected='false'] { opacity: 0.7; }
[data-mouse-over-selected='true']  { opacity: 1.0; }
]]>
</style>
<script type="application/ecmascript"><![CDATA[
document.addEventListener('DOMContentLoaded', (event) => {
  highlightEdges();
  highlightAdjacentNodes();
});
]]></script>
</svg>
