<?xml version="1.0" encoding="UTF-8" standalone="no"?>
<!DOCTYPE svg PUBLIC "-//W3C//DTD SVG 1.1//EN"
 "http://www.w3.org/Graphics/SVG/1.1/DTD/svg11.dtd">
<!-- Generated by graphviz version 13.1.2 (20250808.2320)
 -->
<!-- Title: band_control_value_changed_cb Pages: 1 -->
<!--zoomable 80 -->

<svg id="main" version="1.1" xmlns="http://www.w3.org/2000/svg" xmlns:xlink="http://www.w3.org/1999/xlink" xml:space="preserve" onload="init(evt)">

<style type="text/css"><![CDATA[
.node, .edge {opacity: 0.7;}
.node.selected, .edge.selected {opacity: 1;}
.edge:hover path { stroke: red; }
.edge:hover polygon { stroke: red; fill: red; }
]]></style>

<defs>
  <circle id="rim" cx="0" cy="0" r="7"/>
  <circle id="rim2" cx="0" cy="0" r="3.5"/>
  <g id="zoomPlus">
    <use xlink:href="#rim" fill="#404040"><set attributeName="fill" to="#808080" begin="zoomplus.mouseover" end="zoomplus.mouseout"/></use>
    <path d="M-4,0h8M0,-4v8" fill="none" stroke="white" stroke-width="1.5" pointer-events="none"/>
  </g>
  <g id="zoomMin">
    <use xlink:href="#rim" fill="#404040"><set attributeName="fill" to="#808080" begin="zoomminus.mouseover" end="zoomminus.mouseout"/></use>
    <path d="M-4,0h8" fill="none" stroke="white" stroke-width="1.5" pointer-events="none"/>
  </g>
  <g id="arrowUp" transform="translate(30 24)">
    <use xlink:href="#rim"/>
    <path pointer-events="none" fill="none" stroke="white" stroke-width="1.5" d="M0,-3.0v7 M-2.5,-0.5L0,-3.0L2.5,-0.5"/>
  </g>
  <g id="arrowRight" transform="rotate(90) translate(36 -43)">
    <use xlink:href="#rim"/>
    <path pointer-events="none" fill="none" stroke="white" stroke-width="1.5" d="M0,-3.0v7 M-2.5,-0.5L0,-3.0L2.5,-0.5"/>
  </g>
  <g id="arrowDown" transform="rotate(180) translate(-30 -48)">
    <use xlink:href="#rim"/>
    <path pointer-events="none" fill="none" stroke="white" stroke-width="1.5" d="M0,-3.0v7 M-2.5,-0.5L0,-3.0L2.5,-0.5"/>
  </g>
  <g id="arrowLeft" transform="rotate(270) translate(-36 17)">
    <use xlink:href="#rim"/>
    <path pointer-events="none" fill="none" stroke="white" stroke-width="1.5" d="M0,-3.0v7 M-2.5,-0.5L0,-3.0L2.5,-0.5"/>
  </g>
  <g id="resetDef">
    <use xlink:href="#rim2" fill="#404040"><set attributeName="fill" to="#808080" begin="reset.mouseover" end="reset.mouseout"/></use>
  </g>
</defs>
<script type="application/ecmascript">
var viewWidth = 631;
var viewHeight = 80;
var sectionId = 'dynsection-1';
</script>
<script type="application/ecmascript" xlink:href="svg.min.js"/>
<svg id="graph" class="graph">
<g id="viewport">
<title>band_control_value_changed_cb</title>
<!-- Node1 -->
<g id="Node000001" class="node">
<title>Node1</title>
<g id="a_Node000001"><a xlink:title=" ">
<polygon fill="#999999" stroke="#666666" points="622.75,-49.12 511.5,-49.12 511.5,-15.62 622.75,-15.62 622.75,-49.12"/>
<text xml:space="preserve" text-anchor="start" x="519.5" y="-35.62" font-family="Helvetica,sans-Serif" font-size="10.00">band_control_value</text>
<text xml:space="preserve" text-anchor="middle" x="567.12" y="-22.88" font-family="Helvetica,sans-Serif" font-size="10.00">_changed_cb</text>
</a>
</g>
</g>
<!-- Node2 -->
<g id="Node000002" class="node">
<title>Node2</title>
<g id="a_Node000002"><a xlink:href="m__transformer__settings_8c.html#afb5bf8a00e5c72cfd3acb32e3d3c763b" target="_top" xlink:title=" ">
<polygon fill="white" stroke="#666666" points="475.5,-49.12 365.75,-49.12 365.75,-15.62 475.5,-15.62 475.5,-49.12"/>
<text xml:space="preserve" text-anchor="start" x="373.75" y="-35.62" font-family="Helvetica,sans-Serif" font-size="10.00">create_transformer</text>
<text xml:space="preserve" text-anchor="middle" x="420.62" y="-22.88" font-family="Helvetica,sans-Serif" font-size="10.00">_settings_page_ui</text>
</a>
</g>
</g>
<!-- Node1&#45;&gt;Node2 -->
<g id="edge1_Node000001_Node000002" class="edge">
<title>Node1&#45;&gt;Node2</title>
<g id="a_edge1_Node000001_Node000002"><a xlink:title=" ">
<path fill="none" stroke="#63b8ff" d="M499.74,-32.38C491.64,-32.38 483.44,-32.38 475.56,-32.38"/>
<polygon fill="#63b8ff" stroke="#63b8ff" points="499.57,-35.88 509.57,-32.38 499.57,-28.88 499.57,-35.88"/>
</a>
</g>
</g>
<!-- Node3 -->
<g id="Node000003" class="node">
<title>Node3</title>
<g id="a_Node000003"><a xlink:href="m__transformer__view_8c.html#abdac4f3fa193f00e3ecab0e63ca90055" target="_top" xlink:title=" ">
<polygon fill="white" stroke="#666666" points="300.5,-72.12 190.75,-72.12 190.75,-38.62 300.5,-38.62 300.5,-72.12"/>
<text xml:space="preserve" text-anchor="start" x="198.75" y="-58.62" font-family="Helvetica,sans-Serif" font-size="10.00">create_transformer</text>
<text xml:space="preserve" text-anchor="middle" x="245.62" y="-45.88" font-family="Helvetica,sans-Serif" font-size="10.00">_view_ui</text>
</a>
</g>
</g>
<!-- Node2&#45;&gt;Node3 -->
<g id="edge2_Node000002_Node000003" class="edge">
<title>Node2&#45;&gt;Node3</title>
<g id="a_edge2_Node000002_Node000003"><a xlink:title=" ">
<path fill="none" stroke="#63b8ff" d="M354.06,-41.09C336.55,-43.42 317.83,-45.91 300.99,-48.15"/>
<polygon fill="#63b8ff" stroke="#63b8ff" points="354.41,-44.58 363.86,-39.79 353.49,-37.64 354.41,-44.58"/>
</a>
</g>
</g>
<!-- Node13 -->
<g id="Node000013" class="node">
<title>Node13</title>
<g id="a_Node000013"><a xlink:href="m__transformer__settings_8c.html#aaa390b04c41f08fbbfe3cdbe8b552bc4" target="_top" xlink:title=" ">
<polygon fill="white" stroke="#666666" points="329.75,-20.75 161.5,-20.75 161.5,0 329.75,0 329.75,-20.75"/>
<text xml:space="preserve" text-anchor="middle" x="245.62" y="-7.25" font-family="Helvetica,sans-Serif" font-size="10.00">init_transformer_settings_page</text>
</a>
</g>
</g>
<!-- Node2&#45;&gt;Node13 -->
<g id="edge5_Node000002_Node000013" class="edge">
<title>Node2&#45;&gt;Node13</title>
<g id="a_edge5_Node000002_Node000013"><a xlink:title=" ">
<path fill="none" stroke="#63b8ff" d="M354.1,-24.04C346.27,-23.05 338.2,-22.02 330.16,-21"/>
<polygon fill="#63b8ff" stroke="#63b8ff" points="353.5,-27.49 363.86,-25.28 354.38,-20.55 353.5,-27.49"/>
</a>
</g>
</g>
<!-- Node4 -->
<g id="Node000004" class="node">
<title>Node4</title>
<g id="a_Node000004"><a xlink:href="m__transformer__select_8c.html#a8a60316cc5a79aaf1c656b9523dd54b1" target="_top" xlink:title=" ">
<polygon fill="#fff0f0" stroke="red" points="125.5,-72.12 0,-72.12 0,-38.62 125.5,-38.62 125.5,-72.12"/>
<text xml:space="preserve" text-anchor="start" x="8" y="-58.62" font-family="Helvetica,sans-Serif" font-size="10.00">add_transformer_from</text>
<text xml:space="preserve" text-anchor="middle" x="62.75" y="-45.88" font-family="Helvetica,sans-Serif" font-size="10.00">_menu_eff</text>
</a>
</g>
</g>
<!-- Node3&#45;&gt;Node4 -->
<g id="edge3_Node000003_Node000004" class="edge">
<title>Node3&#45;&gt;Node4</title>
<g id="a_edge3_Node000003_Node000004"><a xlink:title=" ">
<path fill="none" stroke="#63b8ff" d="M179.17,-55.38C161.8,-55.38 143.1,-55.38 125.92,-55.38"/>
<polygon fill="#63b8ff" stroke="#63b8ff" points="178.84,-58.88 188.84,-55.38 178.84,-51.88 178.84,-58.88"/>
</a>
</g>
</g>
<!-- Node11 -->
<g id="Node000011" class="node">
<title>Node11</title>
<g id="a_Node000011"><a xlink:href="m__transformer__view_8c.html#a34873988f273ffdfdc05574f9c8c9b4a" target="_top" xlink:title=" ">
<polygon fill="#fff0f0" stroke="red" points="124.38,-20.75 1.12,-20.75 1.12,0 124.38,0 124.38,-20.75"/>
<text xml:space="preserve" text-anchor="middle" x="62.75" y="-7.25" font-family="Helvetica,sans-Serif" font-size="10.00">init_transformer_view</text>
</a>
</g>
</g>
<!-- Node3&#45;&gt;Node11 -->
<g id="edge4_Node000003_Node000011" class="edge">
<title>Node3&#45;&gt;Node11</title>
<g id="a_edge4_Node000003_Node000011"><a xlink:title=" ">
<path fill="none" stroke="#63b8ff" d="M179.22,-39.1C155.33,-33.16 128.9,-26.58 107.37,-21.23"/>
<polygon fill="#63b8ff" stroke="#63b8ff" points="178.34,-42.49 188.89,-41.51 180.03,-35.7 178.34,-42.49"/>
</a>
</g>
</g>
<!-- Node13&#45;&gt;Node11 -->
<g id="edge6_Node000013_Node000011" class="edge">
<title>Node13&#45;&gt;Node11</title>
<g id="a_edge6_Node000013_Node000011"><a xlink:title=" ">
<path fill="none" stroke="#63b8ff" d="M149.59,-10.38C141.18,-10.38 132.82,-10.38 124.81,-10.38"/>
<polygon fill="#63b8ff" stroke="#63b8ff" points="149.56,-13.88 159.56,-10.38 149.56,-6.88 149.56,-13.88"/>
</a>
</g>
</g>
</g>
</svg>

<g id="navigator" transform="translate(0 0)" fill="#404254">
  <rect fill="#f2f5e9" fill-opacity="0.5" stroke="#606060" stroke-width=".5" x="0" y="0" width="60" height="60"/>
  <use id="zoomplus" xlink:href="#zoomPlus" x="17" y="9" onmousedown="handleZoom(evt,'in')"/>
  <use id="zoomminus" xlink:href="#zoomMin" x="42" y="9" onmousedown="handleZoom(evt,'out')"/>
  <use id="reset" xlink:href="#resetDef" x="30" y="36" onmousedown="handleReset()"/>
   <use id="arrowup" xlink:href="#arrowUp" x="0" y="0" onmousedown="handlePan(0,-1)"/>
  <use id="arrowright" xlink:href="#arrowRight" x="0" y="0" onmousedown="handlePan(1,0)"/>
  <use id="arrowdown" xlink:href="#arrowDown" x="0" y="0" onmousedown="handlePan(0,1)"/>
  <use id="arrowleft" xlink:href="#arrowLeft" x="0" y="0" onmousedown="handlePan(-1,0)"/>
</g>
<svg viewBox="0 0 15 15" width="100%" height="30px" preserveAspectRatio="xMaxYMin meet">
 <g id="arrow_out" transform="scale(0.3 0.3)">
  <a xlink:href="m__transformer__settings_8c_a70d66998be0b9c55aee8c71e5c08b3bd_icgraph_org.svg" target="_base">
   <rect id="button" ry="5" rx="5" y="6" x="6" height="38" width="38"
        fill="#f2f5e9" fill-opacity="0.5" stroke="#606060" stroke-width="1.0"/>
   <path id="arrow"
     d="M 11.500037,31.436501 C 11.940474,20.09759 22.043105,11.32322 32.158766,21.979434 L 37.068811,17.246167 C 37.068811,17.246167 37.088388,32 37.088388,32 L 22.160133,31.978069 C 22.160133,31.978069 26.997745,27.140456 26.997745,27.140456 C 18.528582,18.264221 13.291696,25.230495 11.500037,31.436501 z"
     style="fill:#404040;"/>
  </a>
 </g>
</svg>

<style type='text/css'>
<![CDATA[
[data-mouse-over-selected='false'] { opacity: 0.7; }
[data-mouse-over-selected='true']  { opacity: 1.0; }
]]>
</style>
<script type="application/ecmascript"><![CDATA[
document.addEventListener('DOMContentLoaded', (event) => {
  highlightEdges();
  highlightAdjacentNodes();
});
]]></script>
</svg>
