<?xml version="1.0" encoding="UTF-8" standalone="no"?>
<!DOCTYPE svg PUBLIC "-//W3C//DTD SVG 1.1//EN"
 "http://www.w3.org/Graphics/SVG/1.1/DTD/svg11.dtd">
<!-- Generated by graphviz version 13.1.2 (20250808.2320)
 -->
<!-- Title: ui_page_add_back_button Pages: 1 -->
<svg width="665pt" height="107pt"
 viewBox="0.00 0.00 665.00 107.00" xmlns="http://www.w3.org/2000/svg" xmlns:xlink="http://www.w3.org/1999/xlink">
<g id="graph0" class="graph" transform="scale(1 1) rotate(0) translate(4 102.75)">
<title>ui_page_add_back_button</title>
<!-- Node1 -->
<g id="Node000001" class="node">
<title>Node1</title>
<g id="a_Node000001"><a xlink:title=" ">
<polygon fill="#999999" stroke="#666666" points="142.75,-59.75 0,-59.75 0,-39 142.75,-39 142.75,-59.75"/>
<text xml:space="preserve" text-anchor="middle" x="71.38" y="-46.25" font-family="Helvetica,sans-Serif" font-size="10.00">ui_page_add_back_button</text>
</a>
</g>
</g>
<!-- Node2 -->
<g id="Node000002" class="node">
<title>Node2</title>
<g id="a_Node000002"><a xlink:href="m__button_8c.html#abe2023eec9ead06a26633852308e65d4" target="_top" xlink:title=" ">
<polygon fill="white" stroke="#666666" points="302.38,-98.75 179.12,-98.75 179.12,-78 302.38,-78 302.38,-98.75"/>
<text xml:space="preserve" text-anchor="middle" x="240.75" y="-85.25" font-family="Helvetica,sans-Serif" font-size="10.00">button_set_clicked_cb</text>
</a>
</g>
</g>
<!-- Node1&#45;&gt;Node2 -->
<g id="edge1_Node000001_Node000002" class="edge">
<title>Node1&#45;&gt;Node2</title>
<g id="a_edge1_Node000001_Node000002"><a xlink:title=" ">
<path fill="none" stroke="#63b8ff" d="M119,-60.24C138.5,-64.78 161.38,-70.11 181.94,-74.9"/>
<polygon fill="#63b8ff" stroke="#63b8ff" points="181.08,-78.3 191.61,-77.16 182.67,-71.48 181.08,-78.3"/>
</a>
</g>
</g>
<!-- Node3 -->
<g id="Node000003" class="node">
<title>Node3</title>
<g id="a_Node000003"><a xlink:href="m__ui_8c.html#af17d8912a520f607796e85d96467cc5a" target="_top" xlink:title=" ">
<polygon fill="white" stroke="#666666" points="302.75,-59.75 178.75,-59.75 178.75,-39 302.75,-39 302.75,-59.75"/>
<text xml:space="preserve" text-anchor="middle" x="240.75" y="-46.25" font-family="Helvetica,sans-Serif" font-size="10.00">enter_parent_page_cb</text>
</a>
</g>
</g>
<!-- Node1&#45;&gt;Node3 -->
<g id="edge2_Node000001_Node000003" class="edge">
<title>Node1&#45;&gt;Node3</title>
<g id="a_edge2_Node000001_Node000003"><a xlink:title=" ">
<path fill="none" stroke="#63b8ff" d="M142.87,-49.38C150.89,-49.38 159.07,-49.38 167.11,-49.38"/>
<polygon fill="#63b8ff" stroke="#63b8ff" points="166.84,-52.88 176.84,-49.38 166.84,-45.88 166.84,-52.88"/>
</a>
</g>
</g>
<!-- Node7 -->
<g id="Node000007" class="node">
<title>Node7</title>
<g id="a_Node000007"><a xlink:href="m__button_8c.html#a0a450528cdcddd6650fee0ae3cfc14d2" target="_top" xlink:title=" ">
<polygon fill="white" stroke="#666666" points="277.25,-20.75 204.25,-20.75 204.25,0 277.25,0 277.25,-20.75"/>
<text xml:space="preserve" text-anchor="middle" x="240.75" y="-7.25" font-family="Helvetica,sans-Serif" font-size="10.00">new_button</text>
</a>
</g>
</g>
<!-- Node1&#45;&gt;Node7 -->
<g id="edge5_Node000001_Node000007" class="edge">
<title>Node1&#45;&gt;Node7</title>
<g id="a_edge5_Node000001_Node000007"><a xlink:title=" ">
<path fill="none" stroke="#63b8ff" d="M119,-38.51C142.11,-33.13 169.94,-26.64 193.06,-21.25"/>
<polygon fill="#63b8ff" stroke="#63b8ff" points="193.57,-24.73 202.51,-19.05 191.98,-17.91 193.57,-24.73"/>
</a>
</g>
</g>
<!-- Node4 -->
<g id="Node000004" class="node">
<title>Node4</title>
<g id="a_Node000004"><a xlink:href="m__ui_8c.html#ac3fd93d055094ed9bd458eb283af7c04" target="_top" xlink:title=" ">
<polygon fill="white" stroke="#666666" points="481.5,-59.75 338.75,-59.75 338.75,-39 481.5,-39 481.5,-59.75"/>
<text xml:space="preserve" text-anchor="middle" x="410.12" y="-46.25" font-family="Helvetica,sans-Serif" font-size="10.00">enter_ui_page_backwards</text>
</a>
</g>
</g>
<!-- Node3&#45;&gt;Node4 -->
<g id="edge3_Node000003_Node000004" class="edge">
<title>Node3&#45;&gt;Node4</title>
<g id="a_edge3_Node000003_Node000004"><a xlink:title=" ">
<path fill="none" stroke="#63b8ff" d="M303.12,-49.38C310.92,-49.38 319,-49.38 327.06,-49.38"/>
<polygon fill="#63b8ff" stroke="#63b8ff" points="326.9,-52.88 336.9,-49.38 326.9,-45.88 326.9,-52.88"/>
</a>
</g>
</g>
<!-- Node5 -->
<g id="Node000005" class="node">
<title>Node5</title>
<g id="a_Node000005"><a xlink:href="m__context_8c.html#a714ca532031e59915d88a683682f2802" target="_top" xlink:title=" ">
<polygon fill="#fff0f0" stroke="red" points="657.25,-59.75 517.5,-59.75 517.5,-39 657.25,-39 657.25,-59.75"/>
<text xml:space="preserve" text-anchor="middle" x="587.38" y="-46.25" font-family="Helvetica,sans-Serif" font-size="10.00">m_cxt_queue_save_state</text>
</a>
</g>
</g>
<!-- Node4&#45;&gt;Node5 -->
<g id="edge4_Node000004_Node000005" class="edge">
<title>Node4&#45;&gt;Node5</title>
<g id="a_edge4_Node000004_Node000005"><a xlink:title=" ">
<path fill="none" stroke="#63b8ff" d="M481.9,-49.38C489.69,-49.38 497.66,-49.38 505.56,-49.38"/>
<polygon fill="#63b8ff" stroke="#63b8ff" points="505.53,-52.88 515.53,-49.38 505.53,-45.88 505.53,-52.88"/>
</a>
</g>
</g>
<!-- Node8 -->
<g id="Node000008" class="node">
<title>Node8</title>
<g id="a_Node000008"><a xlink:href="m__button_8c.html#a258b9a4b93506db006c3e2cbe4483d45" target="_top" xlink:title=" ">
<polygon fill="white" stroke="#666666" points="444.38,-20.75 375.88,-20.75 375.88,0 444.38,0 444.38,-20.75"/>
<text xml:space="preserve" text-anchor="middle" x="410.12" y="-7.25" font-family="Helvetica,sans-Serif" font-size="10.00">init_button</text>
</a>
</g>
</g>
<!-- Node7&#45;&gt;Node8 -->
<g id="edge6_Node000007_Node000008" class="edge">
<title>Node7&#45;&gt;Node8</title>
<g id="a_edge6_Node000007_Node000008"><a xlink:title=" ">
<path fill="none" stroke="#63b8ff" d="M277.66,-10.38C303.04,-10.38 337.24,-10.38 364.4,-10.38"/>
<polygon fill="#63b8ff" stroke="#63b8ff" points="364.04,-13.88 374.04,-10.38 364.04,-6.88 364.04,-13.88"/>
</a>
</g>
</g>
</g>
</svg>
