<?xml version="1.0" encoding="UTF-8" standalone="no"?>
<!DOCTYPE svg PUBLIC "-//W3C//DTD SVG 1.1//EN"
 "http://www.w3.org/Graphics/SVG/1.1/DTD/svg11.dtd">
<!-- Generated by graphviz version 13.1.2 (20250808.2320)
 -->
<!-- Title: m_profile Pages: 1 -->
<svg width="280pt" height="197pt"
 viewBox="0.00 0.00 280.00 197.00" xmlns="http://www.w3.org/2000/svg" xmlns:xlink="http://www.w3.org/1999/xlink">
<g id="graph0" class="graph" transform="scale(1 1) rotate(0) translate(4 192.5)">
<title>m_profile</title>
<!-- Node1 -->
<g id="Node000001" class="node">
<title>Node1</title>
<g id="a_Node000001"><a xlink:title=" ">
<polygon fill="#999999" stroke="#666666" points="130.38,-20.75 67.88,-20.75 67.88,0 130.38,0 130.38,-20.75"/>
<text xml:space="preserve" text-anchor="middle" x="99.12" y="-7.25" font-family="Helvetica,sans-Serif" font-size="10.00">m_profile</text>
</a>
</g>
</g>
<!-- Node2 -->
<g id="Node000002" class="node">
<title>Node2</title>
<g id="a_Node000002"><a xlink:href="structm__pipeline.html" target="_top" xlink:title=" ">
<polygon fill="white" stroke="#666666" points="100.12,-96.25 30.12,-96.25 30.12,-75.5 100.12,-75.5 100.12,-96.25"/>
<text xml:space="preserve" text-anchor="middle" x="65.12" y="-82.75" font-family="Helvetica,sans-Serif" font-size="10.00">m_pipeline</text>
</a>
</g>
</g>
<!-- Node2&#45;&gt;Node1 -->
<g id="edge1_Node000001_Node000002" class="edge">
<title>Node2&#45;&gt;Node1</title>
<g id="a_edge1_Node000001_Node000002"><a xlink:title=" ">
<path fill="none" stroke="#9a32cd" stroke-dasharray="5,2" d="M69.74,-64.45C72,-56.22 75.11,-46.8 79.12,-38.75 82.23,-32.54 86.72,-26.23 90.66,-21.25"/>
<polygon fill="#9a32cd" stroke="#9a32cd" points="66.41,-63.32 67.4,-73.87 73.21,-65.01 66.41,-63.32"/>
</a>
</g>
<text xml:space="preserve" text-anchor="start" x="82.12" y="-45" font-family="Helvetica,sans-Serif" font-size="10.00" fill="grey">pipeline</text>
</g>
<!-- Node3 -->
<g id="Node000003" class="node">
<title>Node3</title>
<g id="a_Node000003"><a xlink:href="structm__parameter.html" target="_top" xlink:title=" ">
<polygon fill="white" stroke="#666666" points="200.12,-96.25 118.12,-96.25 118.12,-75.5 200.12,-75.5 200.12,-96.25"/>
<text xml:space="preserve" text-anchor="middle" x="159.12" y="-82.75" font-family="Helvetica,sans-Serif" font-size="10.00">m_parameter</text>
</a>
</g>
</g>
<!-- Node3&#45;&gt;Node1 -->
<g id="edge2_Node000001_Node000003" class="edge">
<title>Node3&#45;&gt;Node1</title>
<g id="a_edge2_Node000001_Node000003"><a xlink:title=" ">
<path fill="none" stroke="#9a32cd" stroke-dasharray="5,2" d="M145.46,-66.07C139.14,-57.59 131.43,-47.52 124.12,-38.75 119.1,-32.72 113.19,-26.22 108.37,-21.07"/>
<polygon fill="#9a32cd" stroke="#9a32cd" points="142.49,-67.94 151.24,-73.92 148.13,-63.79 142.49,-67.94"/>
</a>
</g>
<text xml:space="preserve" text-anchor="start" x="141.95" y="-45" font-family="Helvetica,sans-Serif" font-size="10.00" fill="grey">volume</text>
</g>
<!-- Node4 -->
<g id="Node000004" class="node">
<title>Node4</title>
<g id="a_Node000004"><a xlink:href="structm__expression.html" target="_top" xlink:title=" ">
<polygon fill="white" stroke="#666666" points="84.25,-188.5 0,-188.5 0,-167.75 84.25,-167.75 84.25,-188.5"/>
<text xml:space="preserve" text-anchor="middle" x="42.12" y="-175" font-family="Helvetica,sans-Serif" font-size="10.00">m_expression</text>
</a>
</g>
</g>
<!-- Node4&#45;&gt;Node3 -->
<g id="edge3_Node000003_Node000004" class="edge">
<title>Node4&#45;&gt;Node3</title>
<g id="a_edge3_Node000003_Node000004"><a xlink:title=" ">
<path fill="none" stroke="#9a32cd" stroke-dasharray="5,2" d="M62.59,-160.49C78.48,-147.67 101.14,-129.6 121.38,-114.25 129.24,-108.28 138.19,-101.78 145.39,-96.62"/>
<polygon fill="#9a32cd" stroke="#9a32cd" points="60.83,-157.41 55.26,-166.42 65.23,-162.85 60.83,-157.41"/>
</a>
</g>
<text xml:space="preserve" text-anchor="start" x="124.38" y="-137.25" font-family="Helvetica,sans-Serif" font-size="10.00" fill="grey">max_expr</text>
<text xml:space="preserve" text-anchor="start" x="124.38" y="-120.5" font-family="Helvetica,sans-Serif" font-size="10.00" fill="grey">min_expr</text>
</g>
<!-- Node4&#45;&gt;Node4 -->
<g id="edge4_Node000004_Node000004" class="edge">
<title>Node4&#45;&gt;Node4</title>
<g id="a_edge4_Node000004_Node000004"><a xlink:title=" ">
<path fill="none" stroke="#9a32cd" stroke-dasharray="5,2" d="M95.64,-184.62C99.73,-183.18 102.25,-181.02 102.25,-178.12 102.25,-173.13 94.71,-170.29 84.54,-169.63"/>
<polygon fill="#9a32cd" stroke="#9a32cd" points="95.25,-181.14 86.03,-186.35 96.5,-188.03 95.25,-181.14"/>
</a>
</g>
<text xml:space="preserve" text-anchor="start" x="105.25" y="-175" font-family="Helvetica,sans-Serif" font-size="10.00" fill="grey">sub_exprs</text>
</g>
<!-- Node5 -->
<g id="Node000005" class="node">
<title>Node5</title>
<g id="a_Node000005"><a xlink:href="structm__parameter__id.html" target="_top" xlink:title=" ">
<polygon fill="white" stroke="#666666" points="272.25,-188.5 176,-188.5 176,-167.75 272.25,-167.75 272.25,-188.5"/>
<text xml:space="preserve" text-anchor="middle" x="224.12" y="-175" font-family="Helvetica,sans-Serif" font-size="10.00">m_parameter_id</text>
</a>
</g>
</g>
<!-- Node5&#45;&gt;Node3 -->
<g id="edge5_Node000003_Node000005" class="edge">
<title>Node5&#45;&gt;Node3</title>
<g id="a_edge5_Node000003_Node000005"><a xlink:title=" ">
<path fill="none" stroke="#9a32cd" stroke-dasharray="5,2" d="M210.45,-158.14C196.94,-139.38 176.82,-111.44 166.23,-96.74"/>
<polygon fill="#9a32cd" stroke="#9a32cd" points="207.6,-160.17 216.28,-166.24 213.28,-156.08 207.6,-160.17"/>
</a>
</g>
<text xml:space="preserve" text-anchor="start" x="206.1" y="-128.88" font-family="Helvetica,sans-Serif" font-size="10.00" fill="grey">id</text>
</g>
</g>
</svg>
