<?xml version="1.0" encoding="UTF-8" standalone="no"?>
<!DOCTYPE svg PUBLIC "-//W3C//DTD SVG 1.1//EN"
 "http://www.w3.org/Graphics/SVG/1.1/DTD/svg11.dtd">
<!-- Generated by graphviz version 13.1.2 (20250808.2320)
 -->
<!-- Title: m_danger_button Pages: 1 -->
<svg width="299pt" height="272pt"
 viewBox="0.00 0.00 299.00 272.00" xmlns="http://www.w3.org/2000/svg" xmlns:xlink="http://www.w3.org/1999/xlink">

<svg id="main" version="1.1" xmlns="http://www.w3.org/2000/svg" xmlns:xlink="http://www.w3.org/1999/xlink" xml:space="preserve">

<style type="text/css"><![CDATA[
.node, .edge {opacity: 0.7;}
.node.selected, .edge.selected {opacity: 1;}
.edge:hover path { stroke: red; }
.edge:hover polygon { stroke: red; fill: red; }
]]></style>
<script type="application/ecmascript" xlink:href="svg.min.js"/>
<svg id="graph" class="graph">
<g id="graph0" class="graph" transform="scale(1 1) rotate(0) translate(4 268)">
<title>m_danger_button</title>
<!-- Node1 -->
<g id="Node000001" class="node">
<title>Node1</title>
<g id="a_Node000001"><a xlink:title=" ">
<polygon fill="#999999" stroke="#666666" points="101.5,-20.75 0,-20.75 0,0 101.5,0 101.5,-20.75"/>
<text xml:space="preserve" text-anchor="middle" x="50.75" y="-7.25" font-family="Helvetica,sans-Serif" font-size="10.00">m_danger_button</text>
</a>
</g>
</g>
<!-- Node2 -->
<g id="Node000002" class="node">
<title>Node2</title>
<g id="a_Node000002"><a xlink:href="structm__button.html" target="_top" xlink:title=" ">
<polygon fill="white" stroke="#666666" points="119,-264 56.5,-264 56.5,-243.25 119,-243.25 119,-264"/>
<text xml:space="preserve" text-anchor="middle" x="87.75" y="-250.5" font-family="Helvetica,sans-Serif" font-size="10.00">m_button</text>
</a>
</g>
</g>
<!-- Node2&#45;&gt;Node1 -->
<g id="edge1_Node000001_Node000002" class="edge">
<title>Node2&#45;&gt;Node1</title>
<g id="a_edge1_Node000001_Node000002"><a xlink:title=" ">
<path fill="none" stroke="#9a32cd" stroke-dasharray="5,2" d="M80.09,-232.2C71.68,-208.68 58.66,-168.67 53.25,-133 47.01,-91.87 48.89,-42.02 50.09,-21.22"/>
<polygon fill="#9a32cd" stroke="#9a32cd" points="76.76,-233.28 83.48,-241.47 83.33,-230.88 76.76,-233.28"/>
</a>
</g>
<text xml:space="preserve" text-anchor="start" x="56.25" y="-120.5" font-family="Helvetica,sans-Serif" font-size="10.00" fill="grey">button</text>
</g>
<!-- Node2&#45;&gt;Node2 -->
<g id="edge2_Node000002_Node000002" class="edge">
<title>Node2&#45;&gt;Node2</title>
<g id="a_edge2_Node000002_Node000002"><a xlink:title=" ">
<path fill="none" stroke="#9a32cd" stroke-dasharray="5,2" d="M130.68,-260.48C134.56,-259.05 137,-256.77 137,-253.62 137,-248.04 129.3,-245.16 119.49,-244.99"/>
<polygon fill="#9a32cd" stroke="#9a32cd" points="130.31,-257 120.98,-262.03 131.41,-263.91 130.31,-257"/>
</a>
</g>
<text xml:space="preserve" text-anchor="start" x="140" y="-250.5" font-family="Helvetica,sans-Serif" font-size="10.00" fill="grey">sub_buttons</text>
</g>
<!-- Node3 -->
<g id="Node000003" class="node">
<title>Node3</title>
<g id="a_Node000003"><a xlink:href="structm__ui__page.html" target="_top" xlink:title=" ">
<polygon fill="white" stroke="#666666" points="132.38,-96.25 63.12,-96.25 63.12,-75.5 132.38,-75.5 132.38,-96.25"/>
<text xml:space="preserve" text-anchor="middle" x="97.75" y="-82.75" font-family="Helvetica,sans-Serif" font-size="10.00">m_ui_page</text>
</a>
</g>
</g>
<!-- Node2&#45;&gt;Node3 -->
<g id="edge7_Node000003_Node000002" class="edge">
<title>Node2&#45;&gt;Node3</title>
<g id="a_edge7_Node000003_Node000002"><a xlink:title=" ">
<path fill="none" stroke="#9a32cd" stroke-dasharray="5,2" d="M89.02,-231.61C91.2,-195.39 95.59,-122.61 97.17,-96.49"/>
<polygon fill="#9a32cd" stroke="#9a32cd" points="85.55,-231.05 88.44,-241.24 92.53,-231.47 85.55,-231.05"/>
</a>
</g>
<text xml:space="preserve" text-anchor="start" x="96.74" y="-158.25" font-family="Helvetica,sans-Serif" font-size="10.00" fill="grey">bottom_buttons</text>
</g>
<!-- Node4 -->
<g id="Node000004" class="node">
<title>Node4</title>
<g id="a_Node000004"><a xlink:href="structm__ui__page__panel.html" target="_top" xlink:title=" ">
<polygon fill="white" stroke="#666666" points="290.5,-171.75 189,-171.75 189,-151 290.5,-151 290.5,-171.75"/>
<text xml:space="preserve" text-anchor="middle" x="239.75" y="-158.25" font-family="Helvetica,sans-Serif" font-size="10.00">m_ui_page_panel</text>
</a>
</g>
</g>
<!-- Node2&#45;&gt;Node4 -->
<g id="edge5_Node000004_Node000002" class="edge">
<title>Node2&#45;&gt;Node4</title>
<g id="a_edge5_Node000004_Node000002"><a xlink:title=" ">
<path fill="none" stroke="#9a32cd" stroke-dasharray="5,2" d="M114.11,-236.97C145.5,-218.34 196.96,-187.78 223.21,-172.19"/>
<polygon fill="#9a32cd" stroke="#9a32cd" points="112.42,-233.91 105.61,-242.02 115.99,-239.93 112.42,-233.91"/>
</a>
</g>
<text xml:space="preserve" text-anchor="start" x="193.58" y="-212.75" font-family="Helvetica,sans-Serif" font-size="10.00" fill="grey">lb</text>
<text xml:space="preserve" text-anchor="start" x="193.58" y="-196" font-family="Helvetica,sans-Serif" font-size="10.00" fill="grey">rb</text>
</g>
<!-- Node3&#45;&gt;Node1 -->
<g id="edge3_Node000001_Node000003" class="edge">
<title>Node3&#45;&gt;Node1</title>
<g id="a_edge3_Node000001_Node000003"><a xlink:title=" ">
<path fill="none" stroke="#9a32cd" stroke-dasharray="5,2" d="M85.6,-65.87C76.47,-51.59 64.32,-32.6 57.05,-21.22"/>
<polygon fill="#9a32cd" stroke="#9a32cd" points="82.45,-67.45 90.79,-73.99 88.35,-63.68 82.45,-67.45"/>
</a>
</g>
<text xml:space="preserve" text-anchor="start" x="82.84" y="-45" font-family="Helvetica,sans-Serif" font-size="10.00" fill="grey">parent</text>
</g>
<!-- Node3&#45;&gt;Node3 -->
<g id="edge6_Node000003_Node000003" class="edge">
<title>Node3&#45;&gt;Node3</title>
<g id="a_edge6_Node000003_Node000003"><a xlink:title=" ">
<path fill="none" stroke="#9a32cd" stroke-dasharray="5,2" d="M144.02,-91.37C147.94,-90.2 150.38,-88.36 150.38,-85.88 150.38,-81.45 142.67,-79.1 132.67,-78.82"/>
<polygon fill="#9a32cd" stroke="#9a32cd" points="143.6,-87.9 134.17,-92.72 144.55,-94.83 143.6,-87.9"/>
</a>
</g>
<text xml:space="preserve" text-anchor="start" x="153.38" y="-82.75" font-family="Helvetica,sans-Serif" font-size="10.00" fill="grey">parent</text>
</g>
<!-- Node4&#45;&gt;Node3 -->
<g id="edge4_Node000003_Node000004" class="edge">
<title>Node4&#45;&gt;Node3</title>
<g id="a_edge4_Node000003_Node000004"><a xlink:title=" ">
<path fill="none" stroke="#9a32cd" stroke-dasharray="5,2" d="M210.86,-145.42C182.73,-130.86 140.81,-109.16 116.68,-96.68"/>
<polygon fill="#9a32cd" stroke="#9a32cd" points="209.06,-148.43 219.55,-149.92 212.28,-142.21 209.06,-148.43"/>
</a>
</g>
<text xml:space="preserve" text-anchor="start" x="188.64" y="-120.5" font-family="Helvetica,sans-Serif" font-size="10.00" fill="grey">panel</text>
</g>
</g>
</svg>
</svg>

<style type='text/css'>
<![CDATA[
[data-mouse-over-selected='false'] { opacity: 0.7; }
[data-mouse-over-selected='true']  { opacity: 1.0; }
]]>
</style>
<script type="application/ecmascript"><![CDATA[
document.addEventListener('DOMContentLoaded', (event) => {
  highlightEdges();
  highlightAdjacentNodes();
});
]]></script>
</svg>
