<?xml version="1.0" encoding="UTF-8" standalone="no"?>
<!DOCTYPE svg PUBLIC "-//W3C//DTD SVG 1.1//EN"
 "http://www.w3.org/Graphics/SVG/1.1/DTD/svg11.dtd">
<!-- Generated by graphviz version 13.1.2 (20250808.2320)
 -->
<!-- Title: m_named_expression Pages: 1 -->
<svg width="185pt" height="104pt"
 viewBox="0.00 0.00 185.00 104.00" xmlns="http://www.w3.org/2000/svg" xmlns:xlink="http://www.w3.org/1999/xlink">
<g id="graph0" class="graph" transform="scale(1 1) rotate(0) translate(4 100.25)">
<title>m_named_expression</title>
<!-- Node1 -->
<g id="Node000001" class="node">
<title>Node1</title>
<g id="a_Node000001"><a xlink:title=" ">
<polygon fill="#999999" stroke="#666666" points="123.25,-20.75 0,-20.75 0,0 123.25,0 123.25,-20.75"/>
<text xml:space="preserve" text-anchor="middle" x="61.62" y="-7.25" font-family="Helvetica,sans-Serif" font-size="10.00">m_named_expression</text>
</a>
</g>
</g>
<!-- Node2 -->
<g id="Node000002" class="node">
<title>Node2</title>
<g id="a_Node000002"><a xlink:href="structm__expression.html" target="_top" xlink:title=" ">
<polygon fill="white" stroke="#666666" points="103.75,-96.25 19.5,-96.25 19.5,-75.5 103.75,-75.5 103.75,-96.25"/>
<text xml:space="preserve" text-anchor="middle" x="61.62" y="-82.75" font-family="Helvetica,sans-Serif" font-size="10.00">m_expression</text>
</a>
</g>
</g>
<!-- Node2&#45;&gt;Node1 -->
<g id="edge1_Node000001_Node000002" class="edge">
<title>Node2&#45;&gt;Node1</title>
<g id="a_edge1_Node000001_Node000002"><a xlink:title=" ">
<path fill="none" stroke="#9a32cd" stroke-dasharray="5,2" d="M61.62,-63.76C61.62,-49.76 61.62,-32.05 61.62,-21.22"/>
<polygon fill="#9a32cd" stroke="#9a32cd" points="58.13,-63.75 61.63,-73.75 65.13,-63.75 58.13,-63.75"/>
</a>
</g>
<text xml:space="preserve" text-anchor="start" x="64.62" y="-45" font-family="Helvetica,sans-Serif" font-size="10.00" fill="grey">expr</text>
</g>
<!-- Node2&#45;&gt;Node2 -->
<g id="edge2_Node000002_Node000002" class="edge">
<title>Node2&#45;&gt;Node2</title>
<g id="a_edge2_Node000002_Node000002"><a xlink:title=" ">
<path fill="none" stroke="#9a32cd" stroke-dasharray="5,2" d="M115.14,-91.19C119.23,-90.01 121.75,-88.24 121.75,-85.88 121.75,-81.78 114.21,-79.47 104.04,-78.92"/>
<polygon fill="#9a32cd" stroke="#9a32cd" points="114.92,-87.69 105.54,-92.61 115.94,-94.61 114.92,-87.69"/>
</a>
</g>
<text xml:space="preserve" text-anchor="start" x="124.75" y="-82.75" font-family="Helvetica,sans-Serif" font-size="10.00" fill="grey">sub_exprs</text>
</g>
</g>
</svg>
