<?xml version="1.0" encoding="UTF-8" standalone="no"?>
<!DOCTYPE svg PUBLIC "-//W3C//DTD SVG 1.1//EN"
 "http://www.w3.org/Graphics/SVG/1.1/DTD/svg11.dtd">
<!-- Generated by graphviz version 13.1.2 (20250808.2320)
 -->
<!-- Title: m_parameter Pages: 1 -->
<svg width="280pt" height="121pt"
 viewBox="0.00 0.00 280.00 121.00" xmlns="http://www.w3.org/2000/svg" xmlns:xlink="http://www.w3.org/1999/xlink">
<g id="graph0" class="graph" transform="scale(1 1) rotate(0) translate(4 117)">
<title>m_parameter</title>
<!-- Node1 -->
<g id="Node000001" class="node">
<title>Node1</title>
<g id="a_Node000001"><a xlink:title=" ">
<polygon fill="#999999" stroke="#666666" points="174.12,-20.75 92.12,-20.75 92.12,0 174.12,0 174.12,-20.75"/>
<text xml:space="preserve" text-anchor="middle" x="133.12" y="-7.25" font-family="Helvetica,sans-Serif" font-size="10.00">m_parameter</text>
</a>
</g>
</g>
<!-- Node2 -->
<g id="Node000002" class="node">
<title>Node2</title>
<g id="a_Node000002"><a xlink:href="structm__expression.html" target="_top" xlink:title=" ">
<polygon fill="white" stroke="#666666" points="84.25,-113 0,-113 0,-92.25 84.25,-92.25 84.25,-113"/>
<text xml:space="preserve" text-anchor="middle" x="42.12" y="-99.5" font-family="Helvetica,sans-Serif" font-size="10.00">m_expression</text>
</a>
</g>
</g>
<!-- Node2&#45;&gt;Node1 -->
<g id="edge1_Node000001_Node000002" class="edge">
<title>Node2&#45;&gt;Node1</title>
<g id="a_edge1_Node000001_Node000002"><a xlink:title=" ">
<path fill="none" stroke="#9a32cd" stroke-dasharray="5,2" d="M59.97,-83.92C78.87,-65.18 108.01,-36.28 123.18,-21.24"/>
<polygon fill="#9a32cd" stroke="#9a32cd" points="57.57,-81.37 52.94,-90.9 62.5,-86.34 57.57,-81.37"/>
</a>
</g>
<text xml:space="preserve" text-anchor="start" x="106.69" y="-61.75" font-family="Helvetica,sans-Serif" font-size="10.00" fill="grey">max_expr</text>
<text xml:space="preserve" text-anchor="start" x="106.69" y="-45" font-family="Helvetica,sans-Serif" font-size="10.00" fill="grey">min_expr</text>
</g>
<!-- Node2&#45;&gt;Node2 -->
<g id="edge2_Node000002_Node000002" class="edge">
<title>Node2&#45;&gt;Node2</title>
<g id="a_edge2_Node000002_Node000002"><a xlink:title=" ">
<path fill="none" stroke="#9a32cd" stroke-dasharray="5,2" d="M95.64,-109.12C99.73,-107.68 102.25,-105.52 102.25,-102.62 102.25,-97.63 94.71,-94.79 84.54,-94.13"/>
<polygon fill="#9a32cd" stroke="#9a32cd" points="95.25,-105.64 86.03,-110.85 96.5,-112.53 95.25,-105.64"/>
</a>
</g>
<text xml:space="preserve" text-anchor="start" x="105.25" y="-99.5" font-family="Helvetica,sans-Serif" font-size="10.00" fill="grey">sub_exprs</text>
</g>
<!-- Node3 -->
<g id="Node000003" class="node">
<title>Node3</title>
<g id="a_Node000003"><a xlink:href="structm__parameter__id.html" target="_top" xlink:title=" ">
<polygon fill="white" stroke="#666666" points="272.25,-113 176,-113 176,-92.25 272.25,-92.25 272.25,-113"/>
<text xml:space="preserve" text-anchor="middle" x="224.12" y="-99.5" font-family="Helvetica,sans-Serif" font-size="10.00">m_parameter_id</text>
</a>
</g>
</g>
<!-- Node3&#45;&gt;Node1 -->
<g id="edge3_Node000001_Node000003" class="edge">
<title>Node3&#45;&gt;Node1</title>
<g id="a_edge3_Node000001_Node000003"><a xlink:title=" ">
<path fill="none" stroke="#9a32cd" stroke-dasharray="5,2" d="M207.28,-84.21C194.91,-71.5 177.62,-53.91 162.12,-38.75 156.09,-32.84 149.22,-26.35 143.68,-21.17"/>
<polygon fill="#9a32cd" stroke="#9a32cd" points="204.45,-86.32 213.93,-91.06 209.48,-81.45 204.45,-86.32"/>
</a>
</g>
<text xml:space="preserve" text-anchor="start" x="199.07" y="-53.38" font-family="Helvetica,sans-Serif" font-size="10.00" fill="grey">id</text>
</g>
</g>
</svg>
