<?xml version="1.0" encoding="UTF-8" standalone="no"?>
<!DOCTYPE svg PUBLIC "-//W3C//DTD SVG 1.1//EN"
 "http://www.w3.org/Graphics/SVG/1.1/DTD/svg11.dtd">
<!-- Generated by graphviz version 13.1.2 (20250808.2320)
 -->
<!-- Title: m_profile_settings_str Pages: 1 -->
<!--zoomable 348 -->

<svg id="main" version="1.1" xmlns="http://www.w3.org/2000/svg" xmlns:xlink="http://www.w3.org/1999/xlink" xml:space="preserve" onload="init(evt)">

<style type="text/css"><![CDATA[
.node, .edge {opacity: 0.7;}
.node.selected, .edge.selected {opacity: 1;}
.edge:hover path { stroke: red; }
.edge:hover polygon { stroke: red; fill: red; }
]]></style>

<defs>
  <circle id="rim" cx="0" cy="0" r="7"/>
  <circle id="rim2" cx="0" cy="0" r="3.5"/>
  <g id="zoomPlus">
    <use xlink:href="#rim" fill="#404040"><set attributeName="fill" to="#808080" begin="zoomplus.mouseover" end="zoomplus.mouseout"/></use>
    <path d="M-4,0h8M0,-4v8" fill="none" stroke="white" stroke-width="1.5" pointer-events="none"/>
  </g>
  <g id="zoomMin">
    <use xlink:href="#rim" fill="#404040"><set attributeName="fill" to="#808080" begin="zoomminus.mouseover" end="zoomminus.mouseout"/></use>
    <path d="M-4,0h8" fill="none" stroke="white" stroke-width="1.5" pointer-events="none"/>
  </g>
  <g id="arrowUp" transform="translate(30 24)">
    <use xlink:href="#rim"/>
    <path pointer-events="none" fill="none" stroke="white" stroke-width="1.5" d="M0,-3.0v7 M-2.5,-0.5L0,-3.0L2.5,-0.5"/>
  </g>
  <g id="arrowRight" transform="rotate(90) translate(36 -43)">
    <use xlink:href="#rim"/>
    <path pointer-events="none" fill="none" stroke="white" stroke-width="1.5" d="M0,-3.0v7 M-2.5,-0.5L0,-3.0L2.5,-0.5"/>
  </g>
  <g id="arrowDown" transform="rotate(180) translate(-30 -48)">
    <use xlink:href="#rim"/>
    <path pointer-events="none" fill="none" stroke="white" stroke-width="1.5" d="M0,-3.0v7 M-2.5,-0.5L0,-3.0L2.5,-0.5"/>
  </g>
  <g id="arrowLeft" transform="rotate(270) translate(-36 17)">
    <use xlink:href="#rim"/>
    <path pointer-events="none" fill="none" stroke="white" stroke-width="1.5" d="M0,-3.0v7 M-2.5,-0.5L0,-3.0L2.5,-0.5"/>
  </g>
  <g id="resetDef">
    <use xlink:href="#rim2" fill="#404040"><set attributeName="fill" to="#808080" begin="reset.mouseover" end="reset.mouseout"/></use>
  </g>
</defs>
<script type="application/ecmascript">
var viewWidth = 505;
var viewHeight = 348;
var sectionId = 'dynsection-0';
</script>
<script type="application/ecmascript" xlink:href="svg.min.js"/>
<svg id="graph" class="graph">
<g id="viewport">
<title>m_profile_settings_str</title>
<!-- Node1 -->
<g id="Node000001" class="node">
<title>Node1</title>
<g id="a_Node000001"><a xlink:title=" ">
<polygon fill="#999999" stroke="#666666" points="316.5,-20.75 191.75,-20.75 191.75,0 316.5,0 316.5,-20.75"/>
<text xml:space="preserve" text-anchor="middle" x="254.12" y="-7.25" font-family="Helvetica,sans-Serif" font-size="10.00">m_profile_settings_str</text>
</a>
</g>
</g>
<!-- Node2 -->
<g id="Node000002" class="node">
<title>Node2</title>
<g id="a_Node000002"><a xlink:href="structm__parameter__widget.html" target="_top" xlink:title=" ">
<polygon fill="white" stroke="#666666" points="314.25,-96.25 194,-96.25 194,-75.5 314.25,-75.5 314.25,-96.25"/>
<text xml:space="preserve" text-anchor="middle" x="254.12" y="-82.75" font-family="Helvetica,sans-Serif" font-size="10.00">m_parameter_widget</text>
</a>
</g>
</g>
<!-- Node2&#45;&gt;Node1 -->
<g id="edge1_Node000001_Node000002" class="edge">
<title>Node2&#45;&gt;Node1</title>
<g id="a_edge1_Node000001_Node000002"><a xlink:title=" ">
<path fill="none" stroke="#9a32cd" stroke-dasharray="5,2" d="M254.12,-63.76C254.12,-49.76 254.12,-32.05 254.12,-21.22"/>
<polygon fill="#9a32cd" stroke="#9a32cd" points="250.63,-63.75 254.13,-73.75 257.63,-63.75 250.63,-63.75"/>
</a>
</g>
<text xml:space="preserve" text-anchor="start" x="257.12" y="-45" font-family="Helvetica,sans-Serif" font-size="10.00" fill="grey">volume_widget</text>
</g>
<!-- Node3 -->
<g id="Node000003" class="node">
<title>Node3</title>
<g id="a_Node000003"><a xlink:href="structm__parameter__id.html" target="_top" xlink:title=" ">
<polygon fill="white" stroke="#666666" points="272.25,-339.5 176,-339.5 176,-318.75 272.25,-318.75 272.25,-339.5"/>
<text xml:space="preserve" text-anchor="middle" x="224.12" y="-326" font-family="Helvetica,sans-Serif" font-size="10.00">m_parameter_id</text>
</a>
</g>
</g>
<!-- Node3&#45;&gt;Node2 -->
<g id="edge2_Node000002_Node000003" class="edge">
<title>Node3&#45;&gt;Node2</title>
<g id="a_edge2_Node000002_Node000003"><a xlink:title=" ">
<path fill="none" stroke="#9a32cd" stroke-dasharray="5,2" d="M225.94,-307.15C228.92,-273.93 235.29,-207.25 243.12,-151 245.84,-131.53 249.94,-108.91 252.3,-96.41"/>
<polygon fill="#9a32cd" stroke="#9a32cd" points="222.47,-306.72 225.08,-316.99 229.44,-307.34 222.47,-306.72"/>
</a>
</g>
<text xml:space="preserve" text-anchor="start" x="241.08" y="-196" font-family="Helvetica,sans-Serif" font-size="10.00" fill="grey">id</text>
</g>
<!-- Node4 -->
<g id="Node000004" class="node">
<title>Node4</title>
<g id="a_Node000004"><a xlink:href="structm__parameter.html" target="_top" xlink:title=" ">
<polygon fill="white" stroke="#666666" points="100.12,-247.25 18.12,-247.25 18.12,-226.5 100.12,-226.5 100.12,-247.25"/>
<text xml:space="preserve" text-anchor="middle" x="59.12" y="-233.75" font-family="Helvetica,sans-Serif" font-size="10.00">m_parameter</text>
</a>
</g>
</g>
<!-- Node3&#45;&gt;Node4 -->
<g id="edge6_Node000004_Node000003" class="edge">
<title>Node3&#45;&gt;Node4</title>
<g id="a_edge6_Node000004_Node000003"><a xlink:title=" ">
<path fill="none" stroke="#9a32cd" stroke-dasharray="5,2" d="M197.27,-312.7C174.67,-299.81 141.44,-281.05 112.12,-265.25 101,-259.26 88.44,-252.76 78.34,-247.6"/>
<polygon fill="#9a32cd" stroke="#9a32cd" points="195.42,-315.68 205.84,-317.6 198.89,-309.6 195.42,-315.68"/>
</a>
</g>
<text xml:space="preserve" text-anchor="start" x="179.1" y="-279.88" font-family="Helvetica,sans-Serif" font-size="10.00" fill="grey">id</text>
</g>
<!-- Node4&#45;&gt;Node2 -->
<g id="edge3_Node000002_Node000004" class="edge">
<title>Node4&#45;&gt;Node2</title>
<g id="a_edge3_Node000002_Node000004"><a xlink:title=" ">
<path fill="none" stroke="#9a32cd" stroke-dasharray="5,2" d="M57.18,-214.71C56.6,-196.08 58.67,-169.17 72.62,-151 89.62,-128.87 161.68,-108.32 209.73,-96.71"/>
<polygon fill="#9a32cd" stroke="#9a32cd" points="53.68,-214.8 57.79,-224.56 60.66,-214.36 53.68,-214.8"/>
</a>
</g>
<text xml:space="preserve" text-anchor="start" x="75.62" y="-158.25" font-family="Helvetica,sans-Serif" font-size="10.00" fill="grey">param</text>
</g>
<!-- Node6 -->
<g id="Node000006" class="node">
<title>Node6</title>
<g id="a_Node000006"><a xlink:href="structm__profile.html" target="_top" xlink:title=" ">
<polygon fill="white" stroke="#666666" points="181.38,-171.75 118.88,-171.75 118.88,-151 181.38,-151 181.38,-171.75"/>
<text xml:space="preserve" text-anchor="middle" x="150.12" y="-158.25" font-family="Helvetica,sans-Serif" font-size="10.00">m_profile</text>
</a>
</g>
</g>
<!-- Node4&#45;&gt;Node6 -->
<g id="edge9_Node000006_Node000004" class="edge">
<title>Node4&#45;&gt;Node6</title>
<g id="a_edge9_Node000006_Node000004"><a xlink:title=" ">
<path fill="none" stroke="#9a32cd" stroke-dasharray="5,2" d="M75.36,-217.78C83.85,-208.82 94.68,-198.16 105.38,-189.75 113.68,-183.22 123.65,-176.99 132.06,-172.12"/>
<polygon fill="#9a32cd" stroke="#9a32cd" points="72.99,-215.18 68.77,-224.9 78.13,-219.94 72.99,-215.18"/>
</a>
</g>
<text xml:space="preserve" text-anchor="start" x="108.38" y="-196" font-family="Helvetica,sans-Serif" font-size="10.00" fill="grey">volume</text>
</g>
<!-- Node5 -->
<g id="Node000005" class="node">
<title>Node5</title>
<g id="a_Node000005"><a xlink:href="structm__expression.html" target="_top" xlink:title=" ">
<polygon fill="white" stroke="#666666" points="84.25,-339.5 0,-339.5 0,-318.75 84.25,-318.75 84.25,-339.5"/>
<text xml:space="preserve" text-anchor="middle" x="42.12" y="-326" font-family="Helvetica,sans-Serif" font-size="10.00">m_expression</text>
</a>
</g>
</g>
<!-- Node5&#45;&gt;Node4 -->
<g id="edge4_Node000004_Node000005" class="edge">
<title>Node5&#45;&gt;Node4</title>
<g id="a_edge4_Node000004_Node000005"><a xlink:title=" ">
<path fill="none" stroke="#9a32cd" stroke-dasharray="5,2" d="M46.05,-307.29C49.57,-288.59 54.59,-261.96 57.27,-247.74"/>
<polygon fill="#9a32cd" stroke="#9a32cd" points="42.64,-306.5 44.22,-316.98 49.52,-307.8 42.64,-306.5"/>
</a>
</g>
<text xml:space="preserve" text-anchor="start" x="56.63" y="-288.25" font-family="Helvetica,sans-Serif" font-size="10.00" fill="grey">max_expr</text>
<text xml:space="preserve" text-anchor="start" x="56.63" y="-271.5" font-family="Helvetica,sans-Serif" font-size="10.00" fill="grey">min_expr</text>
</g>
<!-- Node5&#45;&gt;Node5 -->
<g id="edge5_Node000005_Node000005" class="edge">
<title>Node5&#45;&gt;Node5</title>
<g id="a_edge5_Node000005_Node000005"><a xlink:title=" ">
<path fill="none" stroke="#9a32cd" stroke-dasharray="5,2" d="M95.64,-335.62C99.73,-334.18 102.25,-332.02 102.25,-329.12 102.25,-324.13 94.71,-321.29 84.54,-320.63"/>
<polygon fill="#9a32cd" stroke="#9a32cd" points="95.25,-332.14 86.03,-337.35 96.5,-339.03 95.25,-332.14"/>
</a>
</g>
<text xml:space="preserve" text-anchor="start" x="105.25" y="-326" font-family="Helvetica,sans-Serif" font-size="10.00" fill="grey">sub_exprs</text>
</g>
<!-- Node6&#45;&gt;Node1 -->
<g id="edge17_Node000001_Node000006" class="edge">
<title>Node6&#45;&gt;Node1</title>
<g id="a_edge17_Node000001_Node000006"><a xlink:title=" ">
<path fill="none" stroke="#9a32cd" stroke-dasharray="5,2" d="M143.83,-139.66C139.58,-121.53 136.55,-95.1 147.62,-75.5 163.29,-47.79 196.26,-30.72 221.39,-21.23"/>
<polygon fill="#9a32cd" stroke="#9a32cd" points="140.43,-140.49 146.41,-149.24 147.18,-138.67 140.43,-140.49"/>
</a>
</g>
<text xml:space="preserve" text-anchor="start" x="150.62" y="-82.75" font-family="Helvetica,sans-Serif" font-size="10.00" fill="grey">profile</text>
</g>
<!-- Node6&#45;&gt;Node2 -->
<g id="edge7_Node000002_Node000006" class="edge">
<title>Node6&#45;&gt;Node2</title>
<g id="a_edge7_Node000002_Node000006"><a xlink:title=" ">
<path fill="none" stroke="#9a32cd" stroke-dasharray="5,2" d="M156.17,-139.74C159.69,-130.84 164.99,-120.95 172.62,-114.25 181.6,-106.37 192.92,-100.74 204.25,-96.73"/>
<polygon fill="#9a32cd" stroke="#9a32cd" points="152.89,-138.49 152.99,-149.09 159.52,-140.75 152.89,-138.49"/>
</a>
</g>
<text xml:space="preserve" text-anchor="start" x="175.62" y="-120.5" font-family="Helvetica,sans-Serif" font-size="10.00" fill="grey">profile</text>
</g>
<!-- Node7 -->
<g id="Node000007" class="node">
<title>Node7</title>
<g id="a_Node000007"><a xlink:href="structm__pipeline.html" target="_top" xlink:title=" ">
<polygon fill="white" stroke="#666666" points="191.12,-247.25 121.12,-247.25 121.12,-226.5 191.12,-226.5 191.12,-247.25"/>
<text xml:space="preserve" text-anchor="middle" x="156.12" y="-233.75" font-family="Helvetica,sans-Serif" font-size="10.00">m_pipeline</text>
</a>
</g>
</g>
<!-- Node7&#45;&gt;Node6 -->
<g id="edge8_Node000006_Node000007" class="edge">
<title>Node7&#45;&gt;Node6</title>
<g id="a_edge8_Node000006_Node000007"><a xlink:title=" ">
<path fill="none" stroke="#9a32cd" stroke-dasharray="5,2" d="M154.44,-215.19C153.29,-201.13 151.82,-183.16 150.93,-172.22"/>
<polygon fill="#9a32cd" stroke="#9a32cd" points="150.92,-215.08 155.22,-224.76 157.89,-214.51 150.92,-215.08"/>
</a>
</g>
<text xml:space="preserve" text-anchor="start" x="156.84" y="-196" font-family="Helvetica,sans-Serif" font-size="10.00" fill="grey">pipeline</text>
</g>
<!-- Node8 -->
<g id="Node000008" class="node">
<title>Node8</title>
<g id="a_Node000008"><a xlink:href="structm__ui__page.html" target="_top" xlink:title=" ">
<polygon fill="white" stroke="#666666" points="321.75,-171.75 252.5,-171.75 252.5,-151 321.75,-151 321.75,-171.75"/>
<text xml:space="preserve" text-anchor="middle" x="287.12" y="-158.25" font-family="Helvetica,sans-Serif" font-size="10.00">m_ui_page</text>
</a>
</g>
</g>
<!-- Node8&#45;&gt;Node2 -->
<g id="edge10_Node000002_Node000008" class="edge">
<title>Node8&#45;&gt;Node2</title>
<g id="a_edge10_Node000002_Node000008"><a xlink:title=" ">
<path fill="none" stroke="#9a32cd" stroke-dasharray="5,2" d="M278.22,-140.54C271.85,-126.36 263.56,-107.88 258.55,-96.72"/>
<polygon fill="#9a32cd" stroke="#9a32cd" points="274.9,-141.7 282.19,-149.39 281.29,-138.83 274.9,-141.7"/>
</a>
</g>
<text xml:space="preserve" text-anchor="start" x="277.55" y="-120.5" font-family="Helvetica,sans-Serif" font-size="10.00" fill="grey">parent</text>
</g>
<!-- Node8&#45;&gt;Node8 -->
<g id="edge14_Node000008_Node000008" class="edge">
<title>Node8&#45;&gt;Node8</title>
<g id="a_edge14_Node000008_Node000008"><a xlink:title=" ">
<path fill="none" stroke="#9a32cd" stroke-dasharray="5,2" d="M333.4,-166.87C337.31,-165.7 339.75,-163.86 339.75,-161.38 339.75,-156.95 332.04,-154.6 322.04,-154.32"/>
<polygon fill="#9a32cd" stroke="#9a32cd" points="332.98,-163.4 323.54,-168.22 333.93,-170.33 332.98,-163.4"/>
</a>
</g>
<text xml:space="preserve" text-anchor="start" x="342.75" y="-158.25" font-family="Helvetica,sans-Serif" font-size="10.00" fill="grey">parent</text>
</g>
<!-- Node9 -->
<g id="Node000009" class="node">
<title>Node9</title>
<g id="a_Node000009"><a xlink:href="structm__ui__page__panel.html" target="_top" xlink:title=" ">
<polygon fill="white" stroke="#666666" points="481.88,-247.25 380.38,-247.25 380.38,-226.5 481.88,-226.5 481.88,-247.25"/>
<text xml:space="preserve" text-anchor="middle" x="431.12" y="-233.75" font-family="Helvetica,sans-Serif" font-size="10.00">m_ui_page_panel</text>
</a>
</g>
</g>
<!-- Node9&#45;&gt;Node8 -->
<g id="edge11_Node000008_Node000009" class="edge">
<title>Node9&#45;&gt;Node8</title>
<g id="a_edge11_Node000008_Node000009"><a xlink:title=" ">
<path fill="none" stroke="#9a32cd" stroke-dasharray="5,2" d="M401.82,-220.92C373.3,-206.36 330.79,-184.66 306.33,-172.18"/>
<polygon fill="#9a32cd" stroke="#9a32cd" points="400.16,-224 410.65,-225.43 403.34,-217.76 400.16,-224"/>
</a>
</g>
<text xml:space="preserve" text-anchor="start" x="379.26" y="-196" font-family="Helvetica,sans-Serif" font-size="10.00" fill="grey">panel</text>
</g>
<!-- Node10 -->
<g id="Node000010" class="node">
<title>Node10</title>
<g id="a_Node000010"><a xlink:href="structm__button.html" target="_top" xlink:title=" ">
<polygon fill="white" stroke="#666666" points="411.38,-339.5 348.88,-339.5 348.88,-318.75 411.38,-318.75 411.38,-339.5"/>
<text xml:space="preserve" text-anchor="middle" x="380.12" y="-326" font-family="Helvetica,sans-Serif" font-size="10.00">m_button</text>
</a>
</g>
</g>
<!-- Node10&#45;&gt;Node8 -->
<g id="edge15_Node000008_Node000010" class="edge">
<title>Node10&#45;&gt;Node8</title>
<g id="a_edge15_Node000008_Node000010"><a xlink:title=" ">
<path fill="none" stroke="#9a32cd" stroke-dasharray="5,2" d="M351.95,-312.52C329.98,-298.6 301.06,-276 287.88,-247.25 276.39,-222.2 281.28,-188.46 284.76,-172.09"/>
<polygon fill="#9a32cd" stroke="#9a32cd" points="350.12,-315.5 360.48,-317.69 353.74,-309.52 350.12,-315.5"/>
</a>
</g>
<text xml:space="preserve" text-anchor="start" x="290.88" y="-233.75" font-family="Helvetica,sans-Serif" font-size="10.00" fill="grey">bottom_buttons</text>
</g>
<!-- Node10&#45;&gt;Node9 -->
<g id="edge12_Node000009_Node000010" class="edge">
<title>Node10&#45;&gt;Node9</title>
<g id="a_edge12_Node000009_Node000010"><a xlink:title=" ">
<path fill="none" stroke="#9a32cd" stroke-dasharray="5,2" d="M391.15,-308.61C401.74,-289.87 417.32,-262.3 425.55,-247.74"/>
<polygon fill="#9a32cd" stroke="#9a32cd" points="388.2,-306.72 386.33,-317.15 394.29,-310.16 388.2,-306.72"/>
</a>
</g>
<text xml:space="preserve" text-anchor="start" x="417.63" y="-288.25" font-family="Helvetica,sans-Serif" font-size="10.00" fill="grey">lb</text>
<text xml:space="preserve" text-anchor="start" x="417.63" y="-271.5" font-family="Helvetica,sans-Serif" font-size="10.00" fill="grey">rb</text>
</g>
<!-- Node10&#45;&gt;Node10 -->
<g id="edge13_Node000010_Node000010" class="edge">
<title>Node10&#45;&gt;Node10</title>
<g id="a_edge13_Node000010_Node000010"><a xlink:title=" ">
<path fill="none" stroke="#9a32cd" stroke-dasharray="5,2" d="M423.06,-335.98C426.94,-334.55 429.38,-332.27 429.38,-329.12 429.38,-323.54 421.67,-320.66 411.86,-320.49"/>
<polygon fill="#9a32cd" stroke="#9a32cd" points="422.68,-332.5 413.36,-337.53 423.78,-339.41 422.68,-332.5"/>
</a>
</g>
<text xml:space="preserve" text-anchor="start" x="432.38" y="-326" font-family="Helvetica,sans-Serif" font-size="10.00" fill="grey">sub_buttons</text>
</g>
<!-- Node11 -->
<g id="Node000011" class="node">
<title>Node11</title>
<g id="a_Node000011"><a xlink:href="structm__representation.html" target="_top" xlink:title=" ">
<polygon fill="white" stroke="#666666" points="497.25,-171.75 395,-171.75 395,-151 497.25,-151 497.25,-171.75"/>
<text xml:space="preserve" text-anchor="middle" x="446.12" y="-158.25" font-family="Helvetica,sans-Serif" font-size="10.00">m_representation</text>
</a>
</g>
</g>
<!-- Node11&#45;&gt;Node1 -->
<g id="edge18_Node000001_Node000011" class="edge">
<title>Node11&#45;&gt;Node1</title>
<g id="a_edge18_Node000001_Node000011"><a xlink:title=" ">
<path fill="none" stroke="#9a32cd" stroke-dasharray="5,2" d="M434.13,-141.18C416.5,-114.46 381.06,-66.25 339.12,-38.75 327.33,-31.01 313.18,-25.32 299.84,-21.19"/>
<polygon fill="#9a32cd" stroke="#9a32cd" points="431.02,-142.8 439.37,-149.31 436.9,-139.01 431.02,-142.8"/>
</a>
</g>
<text xml:space="preserve" text-anchor="start" x="402.82" y="-82.75" font-family="Helvetica,sans-Serif" font-size="10.00" fill="grey">rep</text>
</g>
<!-- Node11&#45;&gt;Node2 -->
<g id="edge16_Node000002_Node000011" class="edge">
<title>Node11&#45;&gt;Node2</title>
<g id="a_edge16_Node000002_Node000011"><a xlink:title=" ">
<path fill="none" stroke="#9a32cd" stroke-dasharray="5,2" d="M410.03,-146.56C372.04,-132.02 313.2,-109.49 279.73,-96.68"/>
<polygon fill="#9a32cd" stroke="#9a32cd" points="408.62,-149.77 419.22,-150.07 411.13,-143.23 408.62,-149.77"/>
</a>
</g>
<text xml:space="preserve" text-anchor="start" x="375.97" y="-120.5" font-family="Helvetica,sans-Serif" font-size="10.00" fill="grey">rep</text>
</g>
</g>
</svg>

<g id="navigator" transform="translate(0 0)" fill="#404254">
  <rect fill="#f2f5e9" fill-opacity="0.5" stroke="#606060" stroke-width=".5" x="0" y="0" width="60" height="60"/>
  <use id="zoomplus" xlink:href="#zoomPlus" x="17" y="9" onmousedown="handleZoom(evt,'in')"/>
  <use id="zoomminus" xlink:href="#zoomMin" x="42" y="9" onmousedown="handleZoom(evt,'out')"/>
  <use id="reset" xlink:href="#resetDef" x="30" y="36" onmousedown="handleReset()"/>
   <use id="arrowup" xlink:href="#arrowUp" x="0" y="0" onmousedown="handlePan(0,-1)"/>
  <use id="arrowright" xlink:href="#arrowRight" x="0" y="0" onmousedown="handlePan(1,0)"/>
  <use id="arrowdown" xlink:href="#arrowDown" x="0" y="0" onmousedown="handlePan(0,1)"/>
  <use id="arrowleft" xlink:href="#arrowLeft" x="0" y="0" onmousedown="handlePan(-1,0)"/>
</g>
<svg viewBox="0 0 15 15" width="100%" height="30px" preserveAspectRatio="xMaxYMin meet">
 <g id="arrow_out" transform="scale(0.3 0.3)">
  <a xlink:href="structm__profile__settings__str__coll__graph_org.svg" target="_base">
   <rect id="button" ry="5" rx="5" y="6" x="6" height="38" width="38"
        fill="#f2f5e9" fill-opacity="0.5" stroke="#606060" stroke-width="1.0"/>
   <path id="arrow"
     d="M 11.500037,31.436501 C 11.940474,20.09759 22.043105,11.32322 32.158766,21.979434 L 37.068811,17.246167 C 37.068811,17.246167 37.088388,32 37.088388,32 L 22.160133,31.978069 C 22.160133,31.978069 26.997745,27.140456 26.997745,27.140456 C 18.528582,18.264221 13.291696,25.230495 11.500037,31.436501 z"
     style="fill:#404040;"/>
  </a>
 </g>
</svg>

<style type='text/css'>
<![CDATA[
[data-mouse-over-selected='false'] { opacity: 0.7; }
[data-mouse-over-selected='true']  { opacity: 1.0; }
]]>
</style>
<script type="application/ecmascript"><![CDATA[
document.addEventListener('DOMContentLoaded', (event) => {
  highlightEdges();
  highlightAdjacentNodes();
});
]]></script>
</svg>
