<?xml version="1.0" encoding="UTF-8" standalone="no"?>
<!DOCTYPE svg PUBLIC "-//W3C//DTD SVG 1.1//EN"
 "http://www.w3.org/Graphics/SVG/1.1/DTD/svg11.dtd">
<!-- Generated by graphviz version 13.1.2 (20250808.2320)
 -->
<!-- Title: kest_lfo Pages: 1 -->
<svg width="447pt" height="415pt"
 viewBox="0.00 0.00 447.00 415.00" xmlns="http://www.w3.org/2000/svg" xmlns:xlink="http://www.w3.org/1999/xlink">
<g id="graph0" class="graph" transform="scale(1 1) rotate(0) translate(4 410.5)">
<title>kest_lfo</title>
<!-- Node1 -->
<g id="Node000001" class="node">
<title>Node1</title>
<g id="a_Node000001"><a xlink:title=" ">
<polygon fill="#999999" stroke="#666666" points="163.71,-96.25 109.46,-96.25 109.46,-75.5 163.71,-75.5 163.71,-96.25"/>
<text xml:space="preserve" text-anchor="middle" x="136.58" y="-82.75" font-family="Helvetica,sans-Serif" font-size="10.00">kest_lfo</text>
</a>
</g>
</g>
<!-- Node3 -->
<g id="Node000003" class="node">
<title>Node3</title>
<g id="a_Node000003"><a xlink:href="structkest__scope__entry.html" target="_top" xlink:title=" ">
<polygon fill="white" stroke="#666666" points="292.96,-20.75 192.21,-20.75 192.21,0 292.96,0 292.96,-20.75"/>
<text xml:space="preserve" text-anchor="middle" x="242.58" y="-7.25" font-family="Helvetica,sans-Serif" font-size="10.00">kest_scope_entry</text>
</a>
</g>
</g>
<!-- Node1&#45;&gt;Node3 -->
<g id="edge4_Node000003_Node000001" class="edge">
<title>Node1&#45;&gt;Node3</title>
<g id="a_edge4_Node000003_Node000001"><a xlink:title=" ">
<path fill="none" stroke="#9a32cd" stroke-dasharray="5,2" d="M174.28,-71.5C182.96,-67.62 191.9,-62.93 199.58,-57.5 214.25,-47.14 227.77,-31.12 235.6,-20.95"/>
<polygon fill="#9a32cd" stroke="#9a32cd" points="173.19,-68.16 165.31,-75.25 175.89,-74.62 173.19,-68.16"/>
</a>
</g>
<text xml:space="preserve" text-anchor="start" x="223.14" y="-45" font-family="Helvetica,sans-Serif" font-size="10.00" fill="grey">lfo</text>
</g>
<!-- Node2 -->
<g id="Node000002" class="node">
<title>Node2</title>
<g id="a_Node000002"><a xlink:href="structkest__expression.html" target="_top" xlink:title=" ">
<polygon fill="white" stroke="#666666" points="158.96,-406.5 64.21,-406.5 64.21,-385.75 158.96,-385.75 158.96,-406.5"/>
<text xml:space="preserve" text-anchor="middle" x="111.58" y="-393" font-family="Helvetica,sans-Serif" font-size="10.00">kest_expression</text>
</a>
</g>
</g>
<!-- Node2&#45;&gt;Node1 -->
<g id="edge1_Node000001_Node000002" class="edge">
<title>Node2&#45;&gt;Node1</title>
<g id="a_edge1_Node000001_Node000002"><a xlink:title=" ">
<path fill="none" stroke="#9a32cd" stroke-dasharray="5,2" d="M89.83,-378.22C64.82,-357.26 25.15,-318.94 9.08,-275.5 -4.14,-239.76 -1.48,-226.37 9.08,-189.75 20.07,-151.66 25.5,-138.85 56.58,-114.25 71.78,-102.23 92.57,-95.32 109.15,-91.46"/>
<polygon fill="#9a32cd" stroke="#9a32cd" points="87.48,-380.82 97.45,-384.43 91.9,-375.4 87.48,-380.82"/>
</a>
</g>
<text xml:space="preserve" text-anchor="start" x="12.08" y="-263" font-family="Helvetica,sans-Serif" font-size="10.00" fill="grey">amplitude</text>
<text xml:space="preserve" text-anchor="start" x="12.08" y="-246.25" font-family="Helvetica,sans-Serif" font-size="10.00" fill="grey">center</text>
<text xml:space="preserve" text-anchor="start" x="12.08" y="-229.5" font-family="Helvetica,sans-Serif" font-size="10.00" fill="grey">frequency</text>
<text xml:space="preserve" text-anchor="start" x="12.08" y="-212.75" font-family="Helvetica,sans-Serif" font-size="10.00" fill="grey">max</text>
<text xml:space="preserve" text-anchor="start" x="12.08" y="-196" font-family="Helvetica,sans-Serif" font-size="10.00" fill="grey">min</text>
</g>
<!-- Node2&#45;&gt;Node2 -->
<g id="edge2_Node000002_Node000002" class="edge">
<title>Node2&#45;&gt;Node2</title>
<g id="a_edge2_Node000002_Node000002"><a xlink:title=" ">
<path fill="none" stroke="#9a32cd" stroke-dasharray="5,2" d="M170.36,-402.42C174.46,-400.98 176.96,-398.89 176.96,-396.12 176.96,-391.35 169.49,-388.55 159.18,-387.73"/>
<polygon fill="#9a32cd" stroke="#9a32cd" points="169.86,-398.96 160.67,-404.24 171.14,-405.84 169.86,-398.96"/>
</a>
</g>
<text xml:space="preserve" text-anchor="start" x="179.96" y="-393" font-family="Helvetica,sans-Serif" font-size="10.00" fill="grey">sub_exprs</text>
</g>
<!-- Node2&#45;&gt;Node3 -->
<g id="edge12_Node000003_Node000002" class="edge">
<title>Node2&#45;&gt;Node3</title>
<g id="a_edge12_Node000003_Node000002"><a xlink:title=" ">
<path fill="none" stroke="#9a32cd" stroke-dasharray="5,2" d="M170.81,-389.44C258.23,-379.38 411.58,-354.65 411.58,-304.88 411.58,-304.88 411.58,-304.88 411.58,-84.88 411.58,-32.72 343.07,-17.19 293.29,-12.78"/>
<polygon fill="#9a32cd" stroke="#9a32cd" points="170.51,-385.95 160.96,-390.54 171.28,-392.91 170.51,-385.95"/>
</a>
</g>
<text xml:space="preserve" text-anchor="start" x="414.58" y="-158.25" font-family="Helvetica,sans-Serif" font-size="10.00" fill="grey">expr</text>
</g>
<!-- Node8 -->
<g id="Node000008" class="node">
<title>Node8</title>
<g id="a_Node000008"><a xlink:href="structkest__parameter.html" target="_top" xlink:title=" ">
<polygon fill="#fff0f0" stroke="red" points="157.83,-314.25 65.33,-314.25 65.33,-293.5 157.83,-293.5 157.83,-314.25"/>
<text xml:space="preserve" text-anchor="middle" x="111.58" y="-300.75" font-family="Helvetica,sans-Serif" font-size="10.00">kest_parameter</text>
</a>
</g>
</g>
<!-- Node2&#45;&gt;Node8 -->
<g id="edge9_Node000008_Node000002" class="edge">
<title>Node2&#45;&gt;Node8</title>
<g id="a_edge9_Node000008_Node000002"><a xlink:title=" ">
<path fill="none" stroke="#9a32cd" stroke-dasharray="5,2" d="M111.58,-374.02C111.58,-355.33 111.58,-328.9 111.58,-314.74"/>
<polygon fill="#9a32cd" stroke="#9a32cd" points="108.08,-373.95 111.58,-383.95 115.08,-373.95 108.08,-373.95"/>
</a>
</g>
<text xml:space="preserve" text-anchor="start" x="114.58" y="-355.25" font-family="Helvetica,sans-Serif" font-size="10.00" fill="grey">max_expr</text>
<text xml:space="preserve" text-anchor="start" x="114.58" y="-338.5" font-family="Helvetica,sans-Serif" font-size="10.00" fill="grey">min_expr</text>
</g>
<!-- Node3&#45;&gt;Node1 -->
<g id="edge3_Node000001_Node000003" class="edge">
<title>Node3&#45;&gt;Node1</title>
<g id="a_edge3_Node000001_Node000003"><a xlink:title=" ">
<path fill="none" stroke="#9a32cd" stroke-dasharray="5,2" d="M180.62,-20.32C159.96,-24.66 140.59,-30.71 134.33,-38.75 126.26,-49.12 129.45,-65.14 132.79,-75.31"/>
<polygon fill="#9a32cd" stroke="#9a32cd" points="181.18,-23.77 190.33,-18.43 179.84,-16.9 181.18,-23.77"/>
</a>
</g>
<text xml:space="preserve" text-anchor="start" x="137.33" y="-45" font-family="Helvetica,sans-Serif" font-size="10.00" fill="grey">scope_entry</text>
</g>
<!-- Node4 -->
<g id="Node000004" class="node">
<title>Node4</title>
<g id="a_Node000004"><a xlink:href="structkest__mem__slot.html" target="_top" xlink:title=" ">
<polygon fill="white" stroke="#666666" points="306.71,-96.25 216.46,-96.25 216.46,-75.5 306.71,-75.5 306.71,-96.25"/>
<text xml:space="preserve" text-anchor="middle" x="261.58" y="-82.75" font-family="Helvetica,sans-Serif" font-size="10.00">kest_mem_slot</text>
</a>
</g>
</g>
<!-- Node4&#45;&gt;Node3 -->
<g id="edge5_Node000003_Node000004" class="edge">
<title>Node4&#45;&gt;Node3</title>
<g id="a_edge5_Node000003_Node000004"><a xlink:title=" ">
<path fill="none" stroke="#9a32cd" stroke-dasharray="5,2" d="M256.24,-64.19C252.6,-50.13 247.96,-32.16 245.13,-21.22"/>
<polygon fill="#9a32cd" stroke="#9a32cd" points="252.83,-65 258.72,-73.8 259.61,-63.24 252.83,-65"/>
</a>
</g>
<text xml:space="preserve" text-anchor="start" x="257.34" y="-45" font-family="Helvetica,sans-Serif" font-size="10.00" fill="grey">mem</text>
</g>
<!-- Node5 -->
<g id="Node000005" class="node">
<title>Node5</title>
<g id="a_Node000005"><a xlink:href="structkest__fpga__periodic__read.html" target="_top" xlink:title=" ">
<polygon fill="#fff0f0" stroke="red" points="328.83,-171.75 194.33,-171.75 194.33,-151 328.83,-151 328.83,-171.75"/>
<text xml:space="preserve" text-anchor="middle" x="261.58" y="-158.25" font-family="Helvetica,sans-Serif" font-size="10.00">kest_fpga_periodic_read</text>
</a>
</g>
</g>
<!-- Node5&#45;&gt;Node4 -->
<g id="edge6_Node000004_Node000005" class="edge">
<title>Node5&#45;&gt;Node4</title>
<g id="a_edge6_Node000004_Node000005"><a xlink:title=" ">
<path fill="none" stroke="#9a32cd" stroke-dasharray="5,2" d="M261.58,-139.26C261.58,-125.26 261.58,-107.55 261.58,-96.72"/>
<polygon fill="#9a32cd" stroke="#9a32cd" points="258.08,-139.25 261.58,-149.25 265.08,-139.25 258.08,-139.25"/>
</a>
</g>
<text xml:space="preserve" text-anchor="start" x="264.58" y="-120.5" font-family="Helvetica,sans-Serif" font-size="10.00" fill="grey">read</text>
</g>
<!-- Node7 -->
<g id="Node000007" class="node">
<title>Node7</title>
<g id="a_Node000007"><a xlink:href="structkest__effect.html" target="_top" xlink:title=" ">
<polygon fill="#fff0f0" stroke="red" points="176.58,-171.75 106.58,-171.75 106.58,-151 176.58,-151 176.58,-171.75"/>
<text xml:space="preserve" text-anchor="middle" x="141.58" y="-158.25" font-family="Helvetica,sans-Serif" font-size="10.00">kest_effect</text>
</a>
</g>
</g>
<!-- Node7&#45;&gt;Node1 -->
<g id="edge15_Node000001_Node000007" class="edge">
<title>Node7&#45;&gt;Node1</title>
<g id="a_edge15_Node000001_Node000007"><a xlink:title=" ">
<path fill="none" stroke="#9a32cd" stroke-dasharray="5,2" d="M140.18,-139.69C139.22,-125.63 138,-107.66 137.25,-96.72"/>
<polygon fill="#9a32cd" stroke="#9a32cd" points="136.66,-139.52 140.83,-149.26 143.64,-139.04 136.66,-139.52"/>
</a>
</g>
<text xml:space="preserve" text-anchor="start" x="142.68" y="-120.5" font-family="Helvetica,sans-Serif" font-size="10.00" fill="grey">effect</text>
</g>
<!-- Node7&#45;&gt;Node4 -->
<g id="edge7_Node000004_Node000007" class="edge">
<title>Node7&#45;&gt;Node4</title>
<g id="a_edge7_Node000004_Node000007"><a xlink:title=" ">
<path fill="none" stroke="#9a32cd" stroke-dasharray="5,2" d="M167,-144.81C190.72,-130.28 225.4,-109.04 245.51,-96.72"/>
<polygon fill="#9a32cd" stroke="#9a32cd" points="165.26,-141.77 158.56,-149.98 168.92,-147.74 165.26,-141.77"/>
</a>
</g>
<text xml:space="preserve" text-anchor="start" x="218.86" y="-120.5" font-family="Helvetica,sans-Serif" font-size="10.00" fill="grey">effect</text>
</g>
<!-- Node7&#45;&gt;Node8 -->
<g id="edge10_Node000008_Node000007" class="edge">
<title>Node7&#45;&gt;Node8</title>
<g id="a_edge10_Node000008_Node000007"><a xlink:title=" ">
<path fill="none" stroke="#9a32cd" stroke-dasharray="5,2" d="M182.59,-178.01C186.95,-181.26 190.8,-185.13 193.58,-189.75 213.28,-222.38 215.86,-244.58 193.58,-275.5 185.25,-287.07 171.81,-293.82 158.2,-297.74"/>
<polygon fill="#9a32cd" stroke="#9a32cd" points="184.75,-175.23 174.4,-172.99 181.09,-181.2 184.75,-175.23"/>
</a>
</g>
<text xml:space="preserve" text-anchor="start" x="212.34" y="-229.5" font-family="Helvetica,sans-Serif" font-size="10.00" fill="grey">effect</text>
</g>
<!-- Node8&#45;&gt;Node3 -->
<g id="edge13_Node000003_Node000008" class="edge">
<title>Node8&#45;&gt;Node3</title>
<g id="a_edge13_Node000003_Node000008"><a xlink:title=" ">
<path fill="none" stroke="#9a32cd" stroke-dasharray="5,2" d="M101.69,-282.67C100.84,-280.3 100.11,-277.88 99.58,-275.5 80.51,-188.68 70.63,-159.19 100.58,-75.5 107.24,-56.9 109.3,-49.93 125.58,-38.75 144.93,-25.47 169.87,-18.57 191.75,-15.02"/>
<polygon fill="#9a32cd" stroke="#9a32cd" points="98.39,-283.86 105.56,-291.67 104.82,-281.1 98.39,-283.86"/>
</a>
</g>
<text xml:space="preserve" text-anchor="start" x="91.26" y="-120.5" font-family="Helvetica,sans-Serif" font-size="10.00" fill="grey">param</text>
</g>
<!-- Node8&#45;&gt;Node7 -->
<g id="edge8_Node000007_Node000008" class="edge">
<title>Node8&#45;&gt;Node7</title>
<g id="a_edge8_Node000007_Node000008"><a xlink:title=" ">
<path fill="none" stroke="#9a32cd" stroke-dasharray="5,2" d="M107.1,-282.26C103.04,-258.79 99.46,-219.81 112.58,-189.75 115.63,-182.77 121.41,-176.73 127.02,-172.12"/>
<polygon fill="#9a32cd" stroke="#9a32cd" points="103.61,-282.64 108.96,-291.78 110.48,-281.3 103.61,-282.64"/>
</a>
</g>
<text xml:space="preserve" text-anchor="start" x="115.58" y="-263" font-family="Helvetica,sans-Serif" font-size="10.00" fill="grey">band_center</text>
<text xml:space="preserve" text-anchor="start" x="115.58" y="-246.25" font-family="Helvetica,sans-Serif" font-size="10.00" fill="grey">band_hp_cutoff</text>
<text xml:space="preserve" text-anchor="start" x="115.58" y="-229.5" font-family="Helvetica,sans-Serif" font-size="10.00" fill="grey">band_lp_cutoff</text>
<text xml:space="preserve" text-anchor="start" x="115.58" y="-212.75" font-family="Helvetica,sans-Serif" font-size="10.00" fill="grey">band_width</text>
<text xml:space="preserve" text-anchor="start" x="115.58" y="-196" font-family="Helvetica,sans-Serif" font-size="10.00" fill="grey">wet_mix</text>
</g>
<!-- Node10 -->
<g id="Node000010" class="node">
<title>Node10</title>
<g id="a_Node000010"><a xlink:href="structkest__setting.html" target="_top" xlink:title=" ">
<polygon fill="#fff0f0" stroke="red" points="348.21,-314.25 272.96,-314.25 272.96,-293.5 348.21,-293.5 348.21,-314.25"/>
<text xml:space="preserve" text-anchor="middle" x="310.58" y="-300.75" font-family="Helvetica,sans-Serif" font-size="10.00">kest_setting</text>
</a>
</g>
</g>
<!-- Node10&#45;&gt;Node3 -->
<g id="edge14_Node000003_Node000010" class="edge">
<title>Node10&#45;&gt;Node3</title>
<g id="a_edge14_Node000003_Node000010"><a xlink:title=" ">
<path fill="none" stroke="#9a32cd" stroke-dasharray="5,2" d="M335.57,-285.62C338.4,-282.58 340.88,-279.2 342.58,-275.5 365.75,-225.2 348.91,-205.21 337.58,-151 326.49,-97.89 329.61,-75.39 289.58,-38.75 281.92,-31.74 272.17,-25.7 263.53,-21.09"/>
<polygon fill="#9a32cd" stroke="#9a32cd" points="333.3,-282.95 328.13,-292.19 337.94,-288.2 333.3,-282.95"/>
</a>
</g>
<text xml:space="preserve" text-anchor="start" x="337.03" y="-120.5" font-family="Helvetica,sans-Serif" font-size="10.00" fill="grey">setting</text>
</g>
<!-- Node10&#45;&gt;Node7 -->
<g id="edge11_Node000007_Node000010" class="edge">
<title>Node10&#45;&gt;Node7</title>
<g id="a_edge11_Node000007_Node000010"><a xlink:title=" ">
<path fill="none" stroke="#9a32cd" stroke-dasharray="5,2" d="M288.28,-285.64C285.08,-282.5 282.05,-279.08 279.58,-275.5 256.54,-241.98 277.81,-216.97 247.58,-189.75 244.86,-187.29 206.81,-177.83 177.07,-170.71"/>
<polygon fill="#9a32cd" stroke="#9a32cd" points="285.88,-288.19 295.7,-292.18 290.51,-282.94 285.88,-288.19"/>
</a>
</g>
<text xml:space="preserve" text-anchor="start" x="282.58" y="-229.5" font-family="Helvetica,sans-Serif" font-size="10.00" fill="grey">band_mode</text>
</g>
</g>
</svg>
