<?xml version="1.0" encoding="UTF-8" standalone="no"?>
<!DOCTYPE svg PUBLIC "-//W3C//DTD SVG 1.1//EN"
 "http://www.w3.org/Graphics/SVG/1.1/DTD/svg11.dtd">
<!-- Generated by graphviz version 13.1.2 (20250808.2320)
 -->
<!-- Title: m_block Pages: 1 -->
<svg width="350pt" height="230pt"
 viewBox="0.00 0.00 350.00 230.00" xmlns="http://www.w3.org/2000/svg" xmlns:xlink="http://www.w3.org/1999/xlink">

<svg id="main" version="1.1" xmlns="http://www.w3.org/2000/svg" xmlns:xlink="http://www.w3.org/1999/xlink" xml:space="preserve">

<style type="text/css"><![CDATA[
.node, .edge {opacity: 0.7;}
.node.selected, .edge.selected {opacity: 1;}
.edge:hover path { stroke: red; }
.edge:hover polygon { stroke: red; fill: red; }
]]></style>
<script type="application/ecmascript" xlink:href="svg.min.js"/>
<svg id="graph" class="graph">
<g id="graph0" class="graph" transform="scale(1 1) rotate(0) translate(4 226)">
<title>m_block</title>
<!-- Node1 -->
<g id="Node000001" class="node">
<title>Node1</title>
<g id="a_Node000001"><a xlink:title=" ">
<polygon fill="#999999" stroke="#666666" points="197.75,-20.75 140.5,-20.75 140.5,0 197.75,0 197.75,-20.75"/>
<text xml:space="preserve" text-anchor="middle" x="169.12" y="-7.25" font-family="Helvetica,sans-Serif" font-size="10.00">m_block</text>
</a>
</g>
</g>
<!-- Node2 -->
<g id="Node000002" class="node">
<title>Node2</title>
<g id="a_Node000002"><a xlink:href="structm__block__operand.html" target="_top" xlink:title=" ">
<polygon fill="white" stroke="#666666" points="102.25,-129.75 0,-129.75 0,-109 102.25,-109 102.25,-129.75"/>
<text xml:space="preserve" text-anchor="middle" x="51.12" y="-116.25" font-family="Helvetica,sans-Serif" font-size="10.00">m_block_operand</text>
</a>
</g>
</g>
<!-- Node2&#45;&gt;Node1 -->
<g id="edge1_Node000001_Node000002" class="edge">
<title>Node2&#45;&gt;Node1</title>
<g id="a_edge1_Node000001_Node000002"><a xlink:title=" ">
<path fill="none" stroke="#9a32cd" stroke-dasharray="5,2" d="M68.07,-100.32C84.01,-83.68 108.85,-58.63 132.12,-38.75 139.42,-32.52 148,-26.12 155.07,-21.07"/>
<polygon fill="#9a32cd" stroke="#9a32cd" points="65.59,-97.86 61.24,-107.52 70.66,-102.68 65.59,-97.86"/>
</a>
</g>
<text xml:space="preserve" text-anchor="start" x="135.12" y="-78.5" font-family="Helvetica,sans-Serif" font-size="10.00" fill="grey">arg_a</text>
<text xml:space="preserve" text-anchor="start" x="135.12" y="-61.75" font-family="Helvetica,sans-Serif" font-size="10.00" fill="grey">arg_b</text>
<text xml:space="preserve" text-anchor="start" x="135.12" y="-45" font-family="Helvetica,sans-Serif" font-size="10.00" fill="grey">arg_c</text>
</g>
<!-- Node3 -->
<g id="Node000003" class="node">
<title>Node3</title>
<g id="a_Node000003"><a xlink:href="structm__block__reg__val.html" target="_top" xlink:title=" ">
<polygon fill="white" stroke="#666666" points="218.38,-129.75 119.88,-129.75 119.88,-109 218.38,-109 218.38,-129.75"/>
<text xml:space="preserve" text-anchor="middle" x="169.12" y="-116.25" font-family="Helvetica,sans-Serif" font-size="10.00">m_block_reg_val</text>
</a>
</g>
</g>
<!-- Node3&#45;&gt;Node1 -->
<g id="edge2_Node000001_Node000003" class="edge">
<title>Node3&#45;&gt;Node1</title>
<g id="a_edge2_Node000001_Node000003"><a xlink:title=" ">
<path fill="none" stroke="#9a32cd" stroke-dasharray="5,2" d="M169.12,-97.23C169.12,-74.22 169.12,-38.41 169.12,-21.23"/>
<polygon fill="#9a32cd" stroke="#9a32cd" points="165.63,-96.99 169.13,-106.99 172.63,-96.99 165.63,-96.99"/>
</a>
</g>
<text xml:space="preserve" text-anchor="start" x="172.12" y="-70.12" font-family="Helvetica,sans-Serif" font-size="10.00" fill="grey">reg_0</text>
<text xml:space="preserve" text-anchor="start" x="172.12" y="-53.38" font-family="Helvetica,sans-Serif" font-size="10.00" fill="grey">reg_1</text>
</g>
<!-- Node4 -->
<g id="Node000004" class="node">
<title>Node4</title>
<g id="a_Node000004"><a xlink:href="structm__expression.html" target="_top" xlink:title=" ">
<polygon fill="white" stroke="#666666" points="268.25,-222 184,-222 184,-201.25 268.25,-201.25 268.25,-222"/>
<text xml:space="preserve" text-anchor="middle" x="226.12" y="-208.5" font-family="Helvetica,sans-Serif" font-size="10.00">m_expression</text>
</a>
</g>
</g>
<!-- Node4&#45;&gt;Node3 -->
<g id="edge3_Node000003_Node000004" class="edge">
<title>Node4&#45;&gt;Node3</title>
<g id="a_edge3_Node000003_Node000004"><a xlink:title=" ">
<path fill="none" stroke="#9a32cd" stroke-dasharray="5,2" d="M213.97,-191.38C202.13,-172.63 184.6,-144.87 175.35,-130.24"/>
<polygon fill="#9a32cd" stroke="#9a32cd" points="210.92,-193.1 219.22,-199.69 216.84,-189.36 210.92,-193.1"/>
</a>
</g>
<text xml:space="preserve" text-anchor="start" x="210.69" y="-162.38" font-family="Helvetica,sans-Serif" font-size="10.00" fill="grey">expr</text>
</g>
<!-- Node4&#45;&gt;Node4 -->
<g id="edge4_Node000004_Node000004" class="edge">
<title>Node4&#45;&gt;Node4</title>
<g id="a_edge4_Node000004_Node000004"><a xlink:title=" ">
<path fill="none" stroke="#9a32cd" stroke-dasharray="5,2" d="M279.64,-218.12C283.73,-216.68 286.25,-214.52 286.25,-211.62 286.25,-206.63 278.71,-203.79 268.54,-203.13"/>
<polygon fill="#9a32cd" stroke="#9a32cd" points="279.25,-214.64 270.03,-219.85 280.5,-221.53 279.25,-214.64"/>
</a>
</g>
<text xml:space="preserve" text-anchor="start" x="289.25" y="-208.5" font-family="Helvetica,sans-Serif" font-size="10.00" fill="grey">sub_exprs</text>
</g>
<!-- Node5 -->
<g id="Node000005" class="node">
<title>Node5</title>
<g id="a_Node000005"><a xlink:href="structm__dsp__resource.html" target="_top" xlink:title=" ">
<polygon fill="white" stroke="#666666" points="331.88,-129.75 236.38,-129.75 236.38,-109 331.88,-109 331.88,-129.75"/>
<text xml:space="preserve" text-anchor="middle" x="284.12" y="-116.25" font-family="Helvetica,sans-Serif" font-size="10.00">m_dsp_resource</text>
</a>
</g>
</g>
<!-- Node4&#45;&gt;Node5 -->
<g id="edge6_Node000005_Node000004" class="edge">
<title>Node4&#45;&gt;Node5</title>
<g id="a_edge6_Node000005_Node000004"><a xlink:title=" ">
<path fill="none" stroke="#9a32cd" stroke-dasharray="5,2" d="M238.5,-191.38C250.55,-172.63 268.38,-144.87 277.79,-130.24"/>
<polygon fill="#9a32cd" stroke="#9a32cd" points="235.61,-189.39 233.15,-199.69 241.5,-193.17 235.61,-189.39"/>
</a>
</g>
<text xml:space="preserve" text-anchor="start" x="268.36" y="-170.75" font-family="Helvetica,sans-Serif" font-size="10.00" fill="grey">delay</text>
<text xml:space="preserve" text-anchor="start" x="268.36" y="-154" font-family="Helvetica,sans-Serif" font-size="10.00" fill="grey">size</text>
</g>
<!-- Node5&#45;&gt;Node1 -->
<g id="edge5_Node000001_Node000005" class="edge">
<title>Node5&#45;&gt;Node1</title>
<g id="a_edge5_Node000001_Node000005"><a xlink:title=" ">
<path fill="none" stroke="#9a32cd" stroke-dasharray="5,2" d="M267.92,-100.25C252.65,-83.56 228.78,-58.48 206.12,-38.75 198.89,-32.45 190.31,-26.05 183.23,-21.01"/>
<polygon fill="#9a32cd" stroke="#9a32cd" points="265.13,-102.39 274.44,-107.45 270.32,-97.69 265.13,-102.39"/>
</a>
</g>
<text xml:space="preserve" text-anchor="start" x="262.14" y="-61.75" font-family="Helvetica,sans-Serif" font-size="10.00" fill="grey">res</text>
</g>
</g>
</svg>
</svg>

<style type='text/css'>
<![CDATA[
[data-mouse-over-selected='false'] { opacity: 0.7; }
[data-mouse-over-selected='true']  { opacity: 1.0; }
]]>
</style>
<script type="application/ecmascript"><![CDATA[
document.addEventListener('DOMContentLoaded', (event) => {
  highlightEdges();
  highlightAdjacentNodes();
});
]]></script>
</svg>
