<?xml version="1.0" encoding="UTF-8" standalone="no"?>
<!DOCTYPE svg PUBLIC "-//W3C//DTD SVG 1.1//EN"
 "http://www.w3.org/Graphics/SVG/1.1/DTD/svg11.dtd">
<!-- Generated by graphviz version 13.1.2 (20250808.2320)
 -->
<!-- Title: m_effect_view_str Pages: 1 -->
<!--zoomable 447 -->

<svg id="main" version="1.1" xmlns="http://www.w3.org/2000/svg" xmlns:xlink="http://www.w3.org/1999/xlink" xml:space="preserve" onload="init(evt)">

<style type="text/css"><![CDATA[
.node, .edge {opacity: 0.7;}
.node.selected, .edge.selected {opacity: 1;}
.edge:hover path { stroke: red; }
.edge:hover polygon { stroke: red; fill: red; }
]]></style>

<defs>
  <circle id="rim" cx="0" cy="0" r="7"/>
  <circle id="rim2" cx="0" cy="0" r="3.5"/>
  <g id="zoomPlus">
    <use xlink:href="#rim" fill="#404040"><set attributeName="fill" to="#808080" begin="zoomplus.mouseover" end="zoomplus.mouseout"/></use>
    <path d="M-4,0h8M0,-4v8" fill="none" stroke="white" stroke-width="1.5" pointer-events="none"/>
  </g>
  <g id="zoomMin">
    <use xlink:href="#rim" fill="#404040"><set attributeName="fill" to="#808080" begin="zoomminus.mouseover" end="zoomminus.mouseout"/></use>
    <path d="M-4,0h8" fill="none" stroke="white" stroke-width="1.5" pointer-events="none"/>
  </g>
  <g id="arrowUp" transform="translate(30 24)">
    <use xlink:href="#rim"/>
    <path pointer-events="none" fill="none" stroke="white" stroke-width="1.5" d="M0,-3.0v7 M-2.5,-0.5L0,-3.0L2.5,-0.5"/>
  </g>
  <g id="arrowRight" transform="rotate(90) translate(36 -43)">
    <use xlink:href="#rim"/>
    <path pointer-events="none" fill="none" stroke="white" stroke-width="1.5" d="M0,-3.0v7 M-2.5,-0.5L0,-3.0L2.5,-0.5"/>
  </g>
  <g id="arrowDown" transform="rotate(180) translate(-30 -48)">
    <use xlink:href="#rim"/>
    <path pointer-events="none" fill="none" stroke="white" stroke-width="1.5" d="M0,-3.0v7 M-2.5,-0.5L0,-3.0L2.5,-0.5"/>
  </g>
  <g id="arrowLeft" transform="rotate(270) translate(-36 17)">
    <use xlink:href="#rim"/>
    <path pointer-events="none" fill="none" stroke="white" stroke-width="1.5" d="M0,-3.0v7 M-2.5,-0.5L0,-3.0L2.5,-0.5"/>
  </g>
  <g id="resetDef">
    <use xlink:href="#rim2" fill="#404040"><set attributeName="fill" to="#808080" begin="reset.mouseover" end="reset.mouseout"/></use>
  </g>
</defs>
<script type="application/ecmascript">
var viewWidth = 888;
var viewHeight = 447;
var sectionId = 'dynsection-0';
</script>
<script type="application/ecmascript" xlink:href="svg.min.js"/>
<svg id="graph" class="graph">
<g id="viewport">
<title>m_effect_view_str</title>
<!-- Node1 -->
<g id="Node000001" class="node">
<title>Node1</title>
<g id="a_Node000001"><a xlink:title=" ">
<polygon fill="#999999" stroke="#666666" points="880.25,-133.75 774.25,-133.75 774.25,-113 880.25,-113 880.25,-133.75"/>
<text xml:space="preserve" text-anchor="middle" x="827.25" y="-120.25" font-family="Helvetica,sans-Serif" font-size="10.00">m_effect_view_str</text>
</a>
</g>
</g>
<!-- Node2 -->
<g id="Node000002" class="node">
<title>Node2</title>
<g id="a_Node000002"><a xlink:href="structm__effect.html" target="_top" xlink:title=" ">
<polygon fill="white" stroke="#666666" points="659.12,-219.75 599.62,-219.75 599.62,-199 659.12,-199 659.12,-219.75"/>
<text xml:space="preserve" text-anchor="middle" x="629.38" y="-206.25" font-family="Helvetica,sans-Serif" font-size="10.00">m_effect</text>
</a>
</g>
</g>
<!-- Node2&#45;&gt;Node1 -->
<g id="edge1_Node000001_Node000002" class="edge">
<title>Node2&#45;&gt;Node1</title>
<g id="a_edge1_Node000001_Node000002"><a xlink:title=" ">
<path fill="none" stroke="#9a32cd" stroke-dasharray="5,2" d="M665.17,-194.1C704.36,-176.89 767.05,-149.37 801.53,-134.23"/>
<polygon fill="#9a32cd" stroke="#9a32cd" points="663.92,-190.82 656.17,-198.05 666.74,-197.23 663.92,-190.82"/>
</a>
</g>
<text xml:space="preserve" text-anchor="start" x="704.88" y="-192.56" font-family="Helvetica,sans-Serif" font-size="10.00" fill="grey">effect</text>
</g>
<!-- Node3 -->
<g id="Node000003" class="node">
<title>Node3</title>
<g id="a_Node000003"><a xlink:href="structm__parameter.html" target="_top" xlink:title=" ">
<polygon fill="white" stroke="#666666" points="291.12,-338.75 209.12,-338.75 209.12,-318 291.12,-318 291.12,-338.75"/>
<text xml:space="preserve" text-anchor="middle" x="250.12" y="-325.25" font-family="Helvetica,sans-Serif" font-size="10.00">m_parameter</text>
</a>
</g>
</g>
<!-- Node3&#45;&gt;Node2 -->
<g id="edge2_Node000002_Node000003" class="edge">
<title>Node3&#45;&gt;Node2</title>
<g id="a_edge2_Node000002_Node000003"><a xlink:title=" ">
<path fill="none" stroke="#9a32cd" stroke-dasharray="5,2" d="M302.82,-321.08C368.71,-310.48 485.05,-287.35 576.75,-245.38 591.26,-238.74 606.01,-227.96 616.01,-219.93"/>
<polygon fill="#9a32cd" stroke="#9a32cd" points="302.35,-317.61 293.01,-322.62 303.44,-324.53 302.35,-317.61"/>
</a>
</g>
<text xml:space="preserve" text-anchor="start" x="407.5" y="-375.76" font-family="Helvetica,sans-Serif" font-size="10.00" fill="grey">band_center</text>
<text xml:space="preserve" text-anchor="start" x="407.5" y="-359.01" font-family="Helvetica,sans-Serif" font-size="10.00" fill="grey">band_hp_cutoff</text>
<text xml:space="preserve" text-anchor="start" x="407.5" y="-342.26" font-family="Helvetica,sans-Serif" font-size="10.00" fill="grey">band_lp_cutoff</text>
<text xml:space="preserve" text-anchor="start" x="407.5" y="-325.51" font-family="Helvetica,sans-Serif" font-size="10.00" fill="grey">band_width</text>
<text xml:space="preserve" text-anchor="start" x="407.5" y="-308.76" font-family="Helvetica,sans-Serif" font-size="10.00" fill="grey">wet_mix</text>
</g>
<!-- Node9 -->
<g id="Node000009" class="node">
<title>Node9</title>
<g id="a_Node000009"><a xlink:href="structm__profile.html" target="_top" xlink:title=" ">
<polygon fill="white" stroke="#666666" points="476.25,-430.75 413.75,-430.75 413.75,-410 476.25,-410 476.25,-430.75"/>
<text xml:space="preserve" text-anchor="middle" x="445" y="-417.25" font-family="Helvetica,sans-Serif" font-size="10.00">m_profile</text>
</a>
</g>
</g>
<!-- Node3&#45;&gt;Node9 -->
<g id="edge11_Node000009_Node000003" class="edge">
<title>Node3&#45;&gt;Node9</title>
<g id="a_edge11_Node000009_Node000003"><a xlink:title=" ">
<path fill="none" stroke="#9a32cd" stroke-dasharray="5,2" d="M283.94,-344.03C323.05,-362.69 387.37,-393.36 421.34,-409.57"/>
<polygon fill="#9a32cd" stroke="#9a32cd" points="285.53,-340.91 274.99,-339.76 282.51,-347.22 285.53,-340.91"/>
</a>
</g>
<text xml:space="preserve" text-anchor="start" x="335.38" y="-394.24" font-family="Helvetica,sans-Serif" font-size="10.00" fill="grey">volume</text>
</g>
<!-- Node4 -->
<g id="Node000004" class="node">
<title>Node4</title>
<g id="a_Node000004"><a xlink:href="structm__expression.html" target="_top" xlink:title=" ">
<polygon fill="white" stroke="#666666" points="90.25,-359.75 6,-359.75 6,-339 90.25,-339 90.25,-359.75"/>
<text xml:space="preserve" text-anchor="middle" x="48.12" y="-346.25" font-family="Helvetica,sans-Serif" font-size="10.00">m_expression</text>
</a>
</g>
</g>
<!-- Node4&#45;&gt;Node3 -->
<g id="edge3_Node000003_Node000004" class="edge">
<title>Node4&#45;&gt;Node3</title>
<g id="a_edge3_Node000003_Node000004"><a xlink:title=" ">
<path fill="none" stroke="#9a32cd" stroke-dasharray="5,2" d="M101.98,-343.82C135.44,-340.31 178.02,-335.84 208.76,-332.61"/>
<polygon fill="#9a32cd" stroke="#9a32cd" points="101.65,-340.34 92.07,-344.87 102.38,-347.3 101.65,-340.34"/>
</a>
</g>
<text xml:space="preserve" text-anchor="start" x="117.25" y="-364.98" font-family="Helvetica,sans-Serif" font-size="10.00" fill="grey">max_expr</text>
<text xml:space="preserve" text-anchor="start" x="117.25" y="-348.23" font-family="Helvetica,sans-Serif" font-size="10.00" fill="grey">min_expr</text>
</g>
<!-- Node4&#45;&gt;Node4 -->
<g id="edge4_Node000004_Node000004" class="edge">
<title>Node4&#45;&gt;Node4</title>
<g id="a_edge4_Node000004_Node000004"><a xlink:title=" ">
<path fill="none" stroke="#9a32cd" stroke-dasharray="5,2" d="M31.87,-371.56C34.17,-375.23 39.59,-377.75 48.12,-377.75 64.2,-377.75 69.22,-368.81 63.19,-360.15"/>
<polygon fill="#9a32cd" stroke="#9a32cd" points="35.34,-371.96 32.9,-361.65 28.38,-371.24 35.34,-371.96"/>
</a>
</g>
<text xml:space="preserve" text-anchor="start" x="23.38" y="-384" font-family="Helvetica,sans-Serif" font-size="10.00" fill="grey">sub_exprs</text>
</g>
<!-- Node5 -->
<g id="Node000005" class="node">
<title>Node5</title>
<g id="a_Node000005"><a xlink:href="structm__parameter__id.html" target="_top" xlink:title=" ">
<polygon fill="white" stroke="#666666" points="96.25,-317.75 0,-317.75 0,-297 96.25,-297 96.25,-317.75"/>
<text xml:space="preserve" text-anchor="middle" x="48.12" y="-304.25" font-family="Helvetica,sans-Serif" font-size="10.00">m_parameter_id</text>
</a>
</g>
</g>
<!-- Node5&#45;&gt;Node3 -->
<g id="edge5_Node000003_Node000005" class="edge">
<title>Node5&#45;&gt;Node3</title>
<g id="a_edge5_Node000003_Node000005"><a xlink:title=" ">
<path fill="none" stroke="#9a32cd" stroke-dasharray="5,2" d="M107.96,-309.65C127.43,-310.74 149.18,-312.33 169,-314.62 182.04,-316.13 196.18,-318.36 208.9,-320.59"/>
<polygon fill="#9a32cd" stroke="#9a32cd" points="108.17,-306.15 98,-309.12 107.8,-313.14 108.17,-306.15"/>
</a>
</g>
<text xml:space="preserve" text-anchor="start" x="137.12" y="-320.88" font-family="Helvetica,sans-Serif" font-size="10.00" fill="grey">id</text>
</g>
<!-- Node6 -->
<g id="Node000006" class="node">
<title>Node6</title>
<g id="a_Node000006"><a xlink:href="structm__setting.html" target="_top" xlink:title=" ">
<polygon fill="white" stroke="#666666" points="477.38,-240.75 412.62,-240.75 412.62,-220 477.38,-220 477.38,-240.75"/>
<text xml:space="preserve" text-anchor="middle" x="445" y="-227.25" font-family="Helvetica,sans-Serif" font-size="10.00">m_setting</text>
</a>
</g>
</g>
<!-- Node6&#45;&gt;Node2 -->
<g id="edge6_Node000002_Node000006" class="edge">
<title>Node6&#45;&gt;Node2</title>
<g id="a_edge6_Node000002_Node000006"><a xlink:title=" ">
<path fill="none" stroke="#9a32cd" stroke-dasharray="5,2" d="M488.79,-225.45C522.84,-221.53 569.57,-216.15 599.38,-212.71"/>
<polygon fill="#9a32cd" stroke="#9a32cd" points="488.8,-221.92 479.27,-226.54 489.61,-228.88 488.8,-221.92"/>
</a>
</g>
<text xml:space="preserve" text-anchor="start" x="516.75" y="-228.62" font-family="Helvetica,sans-Serif" font-size="10.00" fill="grey">band_mode</text>
</g>
<!-- Node7 -->
<g id="Node000007" class="node">
<title>Node7</title>
<g id="a_Node000007"><a xlink:href="structm__setting__id.html" target="_top" xlink:title=" ">
<polygon fill="white" stroke="#666666" points="289.62,-282.75 210.62,-282.75 210.62,-262 289.62,-262 289.62,-282.75"/>
<text xml:space="preserve" text-anchor="middle" x="250.12" y="-269.25" font-family="Helvetica,sans-Serif" font-size="10.00">m_setting_id</text>
</a>
</g>
</g>
<!-- Node7&#45;&gt;Node6 -->
<g id="edge7_Node000006_Node000007" class="edge">
<title>Node7&#45;&gt;Node6</title>
<g id="a_edge7_Node000006_Node000007"><a xlink:title=" ">
<path fill="none" stroke="#9a32cd" stroke-dasharray="5,2" d="M301.19,-264.9C324.18,-261.13 351.73,-256.13 376.25,-250.38 388.07,-247.6 400.88,-243.98 412.15,-240.58"/>
<polygon fill="#9a32cd" stroke="#9a32cd" points="300.78,-261.42 291.46,-266.47 301.89,-268.33 300.78,-261.42"/>
</a>
</g>
<text xml:space="preserve" text-anchor="start" x="349.25" y="-265.82" font-family="Helvetica,sans-Serif" font-size="10.00" fill="grey">id</text>
</g>
<!-- Node8 -->
<g id="Node000008" class="node">
<title>Node8</title>
<g id="a_Node000008"><a xlink:href="structm__setting__option.html" target="_top" xlink:title=" ">
<polygon fill="white" stroke="#666666" points="300.5,-240.75 199.75,-240.75 199.75,-220 300.5,-220 300.5,-240.75"/>
<text xml:space="preserve" text-anchor="middle" x="250.12" y="-227.25" font-family="Helvetica,sans-Serif" font-size="10.00">m_setting_option</text>
</a>
</g>
</g>
<!-- Node8&#45;&gt;Node6 -->
<g id="edge8_Node000006_Node000008" class="edge">
<title>Node8&#45;&gt;Node6</title>
<g id="a_edge8_Node000006_Node000008"><a xlink:title=" ">
<path fill="none" stroke="#9a32cd" stroke-dasharray="5,2" d="M312.25,-230.38C345.5,-230.38 385.25,-230.38 412.33,-230.38"/>
<polygon fill="#9a32cd" stroke="#9a32cd" points="312.31,-226.88 302.31,-230.38 312.31,-233.88 312.31,-226.88"/>
</a>
</g>
<text xml:space="preserve" text-anchor="start" x="335.75" y="-236.62" font-family="Helvetica,sans-Serif" font-size="10.00" fill="grey">options</text>
</g>
<!-- Node9&#45;&gt;Node2 -->
<g id="edge9_Node000002_Node000009" class="edge">
<title>Node9&#45;&gt;Node2</title>
<g id="a_edge9_Node000002_Node000009"><a xlink:title=" ">
<path fill="none" stroke="#9a32cd" stroke-dasharray="5,2" d="M482.28,-404.49C486.94,-401.98 491.54,-399.26 495.75,-396.38 536.45,-368.44 547.82,-360.37 576.75,-320.38 600.79,-287.14 617.93,-240.93 624.9,-220.2"/>
<polygon fill="#9a32cd" stroke="#9a32cd" points="480.85,-401.29 473.49,-408.91 483.99,-407.54 480.85,-401.29"/>
</a>
</g>
<text xml:space="preserve" text-anchor="start" x="529.5" y="-389.17" font-family="Helvetica,sans-Serif" font-size="10.00" fill="grey">profile</text>
</g>
<!-- Node10 -->
<g id="Node000010" class="node">
<title>Node10</title>
<g id="a_Node000010"><a xlink:href="structm__pipeline.html" target="_top" xlink:title=" ">
<polygon fill="white" stroke="#666666" points="285.12,-430.75 215.12,-430.75 215.12,-410 285.12,-410 285.12,-430.75"/>
<text xml:space="preserve" text-anchor="middle" x="250.12" y="-417.25" font-family="Helvetica,sans-Serif" font-size="10.00">m_pipeline</text>
</a>
</g>
</g>
<!-- Node10&#45;&gt;Node9 -->
<g id="edge10_Node000009_Node000010" class="edge">
<title>Node10&#45;&gt;Node9</title>
<g id="a_edge10_Node000009_Node000010"><a xlink:title=" ">
<path fill="none" stroke="#9a32cd" stroke-dasharray="5,2" d="M296.78,-420.38C332.75,-420.38 381.91,-420.38 413.31,-420.38"/>
<polygon fill="#9a32cd" stroke="#9a32cd" points="297.12,-416.88 287.12,-420.38 297.12,-423.88 297.12,-416.88"/>
</a>
</g>
<text xml:space="preserve" text-anchor="start" x="334.25" y="-426.62" font-family="Helvetica,sans-Serif" font-size="10.00" fill="grey">pipeline</text>
</g>
<!-- Node11 -->
<g id="Node000011" class="node">
<title>Node11</title>
<g id="a_Node000011"><a xlink:href="structm__effect__desc.html" target="_top" xlink:title=" ">
<polygon fill="white" stroke="#666666" points="488.62,-198.75 401.38,-198.75 401.38,-178 488.62,-178 488.62,-198.75"/>
<text xml:space="preserve" text-anchor="middle" x="445" y="-185.25" font-family="Helvetica,sans-Serif" font-size="10.00">m_effect_desc</text>
</a>
</g>
</g>
<!-- Node11&#45;&gt;Node2 -->
<g id="edge12_Node000002_Node000011" class="edge">
<title>Node11&#45;&gt;Node2</title>
<g id="a_edge12_Node000002_Node000011"><a xlink:title=" ">
<path fill="none" stroke="#9a32cd" stroke-dasharray="5,2" d="M500.24,-186.74C523.89,-186.9 551.85,-188.27 576.75,-192.62 584.36,-193.96 592.39,-196.15 599.8,-198.52"/>
<polygon fill="#9a32cd" stroke="#9a32cd" points="500.51,-183.24 490.52,-186.75 500.52,-190.24 500.51,-183.24"/>
</a>
</g>
<text xml:space="preserve" text-anchor="start" x="538.5" y="-198.88" font-family="Helvetica,sans-Serif" font-size="10.00" fill="grey">eff</text>
</g>
<!-- Node12 -->
<g id="Node000012" class="node">
<title>Node12</title>
<g id="a_Node000012"><a xlink:href="structm__eff__resource__report.html" target="_top" xlink:title=" ">
<polygon fill="white" stroke="#666666" points="313.25,-198.75 187,-198.75 187,-178 313.25,-178 313.25,-198.75"/>
<text xml:space="preserve" text-anchor="middle" x="250.12" y="-185.25" font-family="Helvetica,sans-Serif" font-size="10.00">m_eff_resource_report</text>
</a>
</g>
</g>
<!-- Node12&#45;&gt;Node11 -->
<g id="edge13_Node000011_Node000012" class="edge">
<title>Node12&#45;&gt;Node11</title>
<g id="a_edge13_Node000011_Node000012"><a xlink:title=" ">
<path fill="none" stroke="#9a32cd" stroke-dasharray="5,2" d="M324.96,-188.38C350.62,-188.38 378.54,-188.38 400.89,-188.38"/>
<polygon fill="#9a32cd" stroke="#9a32cd" points="325.26,-184.88 315.26,-188.38 325.26,-191.88 325.26,-184.88"/>
</a>
</g>
<text xml:space="preserve" text-anchor="start" x="336.88" y="-194.62" font-family="Helvetica,sans-Serif" font-size="10.00" fill="grey">res_rpt</text>
</g>
<!-- Node13 -->
<g id="Node000013" class="node">
<title>Node13</title>
<g id="a_Node000013"><a xlink:href="structm__expr__scope.html" target="_top" xlink:title=" ">
<polygon fill="white" stroke="#666666" points="293.38,-139.75 206.88,-139.75 206.88,-119 293.38,-119 293.38,-139.75"/>
<text xml:space="preserve" text-anchor="middle" x="250.12" y="-126.25" font-family="Helvetica,sans-Serif" font-size="10.00">m_expr_scope</text>
</a>
</g>
</g>
<!-- Node13&#45;&gt;Node2 -->
<g id="edge15_Node000002_Node000013" class="edge">
<title>Node13&#45;&gt;Node2</title>
<g id="a_edge15_Node000002_Node000013"><a xlink:title=" ">
<path fill="none" stroke="#9a32cd" stroke-dasharray="5,2" d="M304.92,-129.48C354.98,-130.65 431.33,-135.17 495.75,-150.62 538.6,-160.91 584.84,-184.58 609.82,-198.54"/>
<polygon fill="#9a32cd" stroke="#9a32cd" points="305.3,-125.99 295.24,-129.3 305.17,-132.99 305.3,-125.99"/>
</a>
</g>
<text xml:space="preserve" text-anchor="start" x="430.75" y="-156.88" font-family="Helvetica,sans-Serif" font-size="10.00" fill="grey">scope</text>
</g>
<!-- Node13&#45;&gt;Node11 -->
<g id="edge14_Node000011_Node000013" class="edge">
<title>Node13&#45;&gt;Node11</title>
<g id="a_edge14_Node000011_Node000013"><a xlink:title=" ">
<path fill="none" stroke="#9a32cd" stroke-dasharray="5,2" d="M301.02,-143.31C323.99,-149.86 351.58,-157.91 376.25,-165.62 388.21,-169.36 401.28,-173.69 412.72,-177.57"/>
<polygon fill="#9a32cd" stroke="#9a32cd" points="302.17,-140 291.6,-140.64 300.26,-146.73 302.17,-140"/>
</a>
</g>
<text xml:space="preserve" text-anchor="start" x="339.5" y="-171.88" font-family="Helvetica,sans-Serif" font-size="10.00" fill="grey">scope</text>
</g>
<!-- Node14 -->
<g id="Node000014" class="node">
<title>Node14</title>
<g id="a_Node000014"><a xlink:href="structm__ui__page.html" target="_top" xlink:title=" ">
<polygon fill="white" stroke="#666666" points="664,-68.75 594.75,-68.75 594.75,-48 664,-48 664,-68.75"/>
<text xml:space="preserve" text-anchor="middle" x="629.38" y="-55.25" font-family="Helvetica,sans-Serif" font-size="10.00">m_ui_page</text>
</a>
</g>
</g>
<!-- Node14&#45;&gt;Node1 -->
<g id="edge16_Node000001_Node000014" class="edge">
<title>Node14&#45;&gt;Node1</title>
<g id="a_edge16_Node000001_Node000014"><a xlink:title=" ">
<path fill="none" stroke="#9a32cd" stroke-dasharray="5,2" d="M673.44,-72.67C709.64,-84.68 760.6,-101.59 793.53,-112.52"/>
<polygon fill="#9a32cd" stroke="#9a32cd" points="674.75,-69.41 664.16,-69.59 672.54,-76.06 674.75,-69.41"/>
</a>
</g>
<text xml:space="preserve" text-anchor="start" x="685" y="-104.86" font-family="Helvetica,sans-Serif" font-size="10.00" fill="grey">settings_page</text>
</g>
<!-- Node14&#45;&gt;Node14 -->
<g id="edge20_Node000014_Node000014" class="edge">
<title>Node14&#45;&gt;Node14</title>
<g id="a_edge20_Node000014_Node000014"><a xlink:title=" ">
<path fill="none" stroke="#9a32cd" stroke-dasharray="5,2" d="M614.75,-80.56C616.82,-84.23 621.69,-86.75 629.38,-86.75 643.83,-86.75 648.35,-77.81 642.93,-69.15"/>
<polygon fill="#9a32cd" stroke="#9a32cd" points="618.23,-80.94 615.68,-70.65 611.26,-80.28 618.23,-80.94"/>
</a>
</g>
<text xml:space="preserve" text-anchor="start" x="613.62" y="-93" font-family="Helvetica,sans-Serif" font-size="10.00" fill="grey">parent</text>
</g>
<!-- Node15 -->
<g id="Node000015" class="node">
<title>Node15</title>
<g id="a_Node000015"><a xlink:href="structm__ui__page__panel.html" target="_top" xlink:title=" ">
<polygon fill="white" stroke="#666666" points="495.75,-20.75 394.25,-20.75 394.25,0 495.75,0 495.75,-20.75"/>
<text xml:space="preserve" text-anchor="middle" x="445" y="-7.25" font-family="Helvetica,sans-Serif" font-size="10.00">m_ui_page_panel</text>
</a>
</g>
</g>
<!-- Node15&#45;&gt;Node14 -->
<g id="edge17_Node000014_Node000015" class="edge">
<title>Node15&#45;&gt;Node14</title>
<g id="a_edge17_Node000014_Node000015"><a xlink:title=" ">
<path fill="none" stroke="#9a32cd" stroke-dasharray="5,2" d="M507.61,-11.87C529.89,-13.88 554.92,-17.89 576.75,-25.62 590.96,-30.66 605.29,-40.19 615.23,-47.67"/>
<polygon fill="#9a32cd" stroke="#9a32cd" points="507.99,-8.39 497.74,-11.11 507.45,-15.37 507.99,-8.39"/>
</a>
</g>
<text xml:space="preserve" text-anchor="start" x="531.75" y="-31.88" font-family="Helvetica,sans-Serif" font-size="10.00" fill="grey">panel</text>
</g>
<!-- Node16 -->
<g id="Node000016" class="node">
<title>Node16</title>
<g id="a_Node000016"><a xlink:href="structm__button.html" target="_top" xlink:title=" ">
<polygon fill="white" stroke="#666666" points="281.38,-48.75 218.88,-48.75 218.88,-28 281.38,-28 281.38,-48.75"/>
<text xml:space="preserve" text-anchor="middle" x="250.12" y="-35.25" font-family="Helvetica,sans-Serif" font-size="10.00">m_button</text>
</a>
</g>
</g>
<!-- Node16&#45;&gt;Node14 -->
<g id="edge21_Node000014_Node000016" class="edge">
<title>Node16&#45;&gt;Node14</title>
<g id="a_edge21_Node000014_Node000016"><a xlink:title=" ">
<path fill="none" stroke="#9a32cd" stroke-dasharray="5,2" d="M292.94,-41.73C305.27,-42.65 318.8,-43.62 331.25,-44.38 426.61,-50.19 539.31,-54.91 594.49,-57.08"/>
<polygon fill="#9a32cd" stroke="#9a32cd" points="293.3,-38.24 283.06,-40.97 292.76,-45.22 293.3,-38.24"/>
</a>
</g>
<text xml:space="preserve" text-anchor="start" x="406.38" y="-59.03" font-family="Helvetica,sans-Serif" font-size="10.00" fill="grey">bottom_buttons</text>
</g>
<!-- Node16&#45;&gt;Node15 -->
<g id="edge18_Node000015_Node000016" class="edge">
<title>Node16&#45;&gt;Node15</title>
<g id="a_edge18_Node000015_Node000016"><a xlink:title=" ">
<path fill="none" stroke="#9a32cd" stroke-dasharray="5,2" d="M283.93,-23.32C298.16,-17.58 315.2,-11.74 331.25,-8.88 351.58,-5.25 374.31,-4.87 394,-5.67"/>
<polygon fill="#9a32cd" stroke="#9a32cd" points="282.92,-19.95 275.06,-27.05 285.64,-26.4 282.92,-19.95"/>
</a>
</g>
<text xml:space="preserve" text-anchor="start" x="348.88" y="-31.88" font-family="Helvetica,sans-Serif" font-size="10.00" fill="grey">lb</text>
<text xml:space="preserve" text-anchor="start" x="348.88" y="-15.12" font-family="Helvetica,sans-Serif" font-size="10.00" fill="grey">rb</text>
</g>
<!-- Node16&#45;&gt;Node16 -->
<g id="edge19_Node000016_Node000016" class="edge">
<title>Node16&#45;&gt;Node16</title>
<g id="a_edge19_Node000016_Node000016"><a xlink:title=" ">
<path fill="none" stroke="#9a32cd" stroke-dasharray="5,2" d="M232.11,-60.56C234.66,-64.23 240.66,-66.75 250.12,-66.75 267.94,-66.75 273.5,-57.81 266.82,-49.15"/>
<polygon fill="#9a32cd" stroke="#9a32cd" points="235.58,-60.99 233.25,-50.65 228.63,-60.18 235.58,-60.99"/>
</a>
</g>
<text xml:space="preserve" text-anchor="start" x="220.5" y="-73" font-family="Helvetica,sans-Serif" font-size="10.00" fill="grey">sub_buttons</text>
</g>
</g>
</svg>

<g id="navigator" transform="translate(0 0)" fill="#404254">
  <rect fill="#f2f5e9" fill-opacity="0.5" stroke="#606060" stroke-width=".5" x="0" y="0" width="60" height="60"/>
  <use id="zoomplus" xlink:href="#zoomPlus" x="17" y="9" onmousedown="handleZoom(evt,'in')"/>
  <use id="zoomminus" xlink:href="#zoomMin" x="42" y="9" onmousedown="handleZoom(evt,'out')"/>
  <use id="reset" xlink:href="#resetDef" x="30" y="36" onmousedown="handleReset()"/>
   <use id="arrowup" xlink:href="#arrowUp" x="0" y="0" onmousedown="handlePan(0,-1)"/>
  <use id="arrowright" xlink:href="#arrowRight" x="0" y="0" onmousedown="handlePan(1,0)"/>
  <use id="arrowdown" xlink:href="#arrowDown" x="0" y="0" onmousedown="handlePan(0,1)"/>
  <use id="arrowleft" xlink:href="#arrowLeft" x="0" y="0" onmousedown="handlePan(-1,0)"/>
</g>
<svg viewBox="0 0 15 15" width="100%" height="30px" preserveAspectRatio="xMaxYMin meet">
 <g id="arrow_out" transform="scale(0.3 0.3)">
  <a xlink:href="structm__effect__view__str__coll__graph_org.svg" target="_base">
   <rect id="button" ry="5" rx="5" y="6" x="6" height="38" width="38"
        fill="#f2f5e9" fill-opacity="0.5" stroke="#606060" stroke-width="1.0"/>
   <path id="arrow"
     d="M 11.500037,31.436501 C 11.940474,20.09759 22.043105,11.32322 32.158766,21.979434 L 37.068811,17.246167 C 37.068811,17.246167 37.088388,32 37.088388,32 L 22.160133,31.978069 C 22.160133,31.978069 26.997745,27.140456 26.997745,27.140456 C 18.528582,18.264221 13.291696,25.230495 11.500037,31.436501 z"
     style="fill:#404040;"/>
  </a>
 </g>
</svg>

<style type='text/css'>
<![CDATA[
[data-mouse-over-selected='false'] { opacity: 0.7; }
[data-mouse-over-selected='true']  { opacity: 1.0; }
]]>
</style>
<script type="application/ecmascript"><![CDATA[
document.addEventListener('DOMContentLoaded', (event) => {
  highlightEdges();
  highlightAdjacentNodes();
});
]]></script>
</svg>
