<?xml version="1.0" encoding="UTF-8" standalone="no"?>
<!DOCTYPE svg PUBLIC "-//W3C//DTD SVG 1.1//EN"
 "http://www.w3.org/Graphics/SVG/1.1/DTD/svg11.dtd">
<!-- Generated by graphviz version 13.1.2 (20250808.2320)
 -->
<!-- Title: m_expr_scope_entry Pages: 1 -->
<svg width="497pt" height="197pt"
 viewBox="0.00 0.00 497.00 197.00" xmlns="http://www.w3.org/2000/svg" xmlns:xlink="http://www.w3.org/1999/xlink">
<g id="graph0" class="graph" transform="scale(1 1) rotate(0) translate(4 192.5)">
<title>m_expr_scope_entry</title>
<!-- Node1 -->
<g id="Node000001" class="node">
<title>Node1</title>
<g id="a_Node000001"><a xlink:title=" ">
<polygon fill="#999999" stroke="#666666" points="243.75,-20.75 126.5,-20.75 126.5,0 243.75,0 243.75,-20.75"/>
<text xml:space="preserve" text-anchor="middle" x="185.12" y="-7.25" font-family="Helvetica,sans-Serif" font-size="10.00">m_expr_scope_entry</text>
</a>
</g>
</g>
<!-- Node2 -->
<g id="Node000002" class="node">
<title>Node2</title>
<g id="a_Node000002"><a xlink:href="structm__expression.html" target="_top" xlink:title=" ">
<polygon fill="white" stroke="#666666" points="84.25,-188.5 0,-188.5 0,-167.75 84.25,-167.75 84.25,-188.5"/>
<text xml:space="preserve" text-anchor="middle" x="42.12" y="-175" font-family="Helvetica,sans-Serif" font-size="10.00">m_expression</text>
</a>
</g>
</g>
<!-- Node2&#45;&gt;Node1 -->
<g id="edge1_Node000001_Node000002" class="edge">
<title>Node2&#45;&gt;Node1</title>
<g id="a_edge1_Node000001_Node000002"><a xlink:title=" ">
<path fill="none" stroke="#9a32cd" stroke-dasharray="5,2" d="M53.33,-157.81C60.72,-145.26 70.74,-128.62 80.12,-114.25 91.63,-96.62 93.07,-90.95 107.38,-75.5 127.47,-53.8 154.91,-32.81 171.25,-21.04"/>
<polygon fill="#9a32cd" stroke="#9a32cd" points="50.38,-155.92 48.35,-166.32 56.42,-159.45 50.38,-155.92"/>
</a>
</g>
<text xml:space="preserve" text-anchor="start" x="110.38" y="-82.75" font-family="Helvetica,sans-Serif" font-size="10.00" fill="grey">expr</text>
</g>
<!-- Node2&#45;&gt;Node2 -->
<g id="edge2_Node000002_Node000002" class="edge">
<title>Node2&#45;&gt;Node2</title>
<g id="a_edge2_Node000002_Node000002"><a xlink:title=" ">
<path fill="none" stroke="#9a32cd" stroke-dasharray="5,2" d="M95.64,-184.62C99.73,-183.18 102.25,-181.02 102.25,-178.12 102.25,-173.13 94.71,-170.29 84.54,-169.63"/>
<polygon fill="#9a32cd" stroke="#9a32cd" points="95.25,-181.14 86.03,-186.35 96.5,-188.03 95.25,-181.14"/>
</a>
</g>
<text xml:space="preserve" text-anchor="start" x="105.25" y="-175" font-family="Helvetica,sans-Serif" font-size="10.00" fill="grey">sub_exprs</text>
</g>
<!-- Node3 -->
<g id="Node000003" class="node">
<title>Node3</title>
<g id="a_Node000003"><a xlink:href="structm__parameter.html" target="_top" xlink:title=" ">
<polygon fill="white" stroke="#666666" points="226.12,-96.25 144.12,-96.25 144.12,-75.5 226.12,-75.5 226.12,-96.25"/>
<text xml:space="preserve" text-anchor="middle" x="185.12" y="-82.75" font-family="Helvetica,sans-Serif" font-size="10.00">m_parameter</text>
</a>
</g>
</g>
<!-- Node2&#45;&gt;Node3 -->
<g id="edge4_Node000003_Node000002" class="edge">
<title>Node2&#45;&gt;Node3</title>
<g id="a_edge4_Node000003_Node000002"><a xlink:title=" ">
<path fill="none" stroke="#9a32cd" stroke-dasharray="5,2" d="M66.23,-161.21C85.82,-148.36 114.23,-129.9 139.38,-114.25 148.96,-108.28 159.8,-101.79 168.52,-96.62"/>
<polygon fill="#9a32cd" stroke="#9a32cd" points="64.55,-158.13 58.12,-166.55 68.39,-163.98 64.55,-158.13"/>
</a>
</g>
<text xml:space="preserve" text-anchor="start" x="142.38" y="-137.25" font-family="Helvetica,sans-Serif" font-size="10.00" fill="grey">max_expr</text>
<text xml:space="preserve" text-anchor="start" x="142.38" y="-120.5" font-family="Helvetica,sans-Serif" font-size="10.00" fill="grey">min_expr</text>
</g>
<!-- Node3&#45;&gt;Node1 -->
<g id="edge3_Node000001_Node000003" class="edge">
<title>Node3&#45;&gt;Node1</title>
<g id="a_edge3_Node000001_Node000003"><a xlink:title=" ">
<path fill="none" stroke="#9a32cd" stroke-dasharray="5,2" d="M185.12,-63.76C185.12,-49.76 185.12,-32.05 185.12,-21.22"/>
<polygon fill="#9a32cd" stroke="#9a32cd" points="181.63,-63.75 185.13,-73.75 188.63,-63.75 181.63,-63.75"/>
</a>
</g>
<text xml:space="preserve" text-anchor="start" x="188.12" y="-45" font-family="Helvetica,sans-Serif" font-size="10.00" fill="grey">param</text>
</g>
<!-- Node4 -->
<g id="Node000004" class="node">
<title>Node4</title>
<g id="a_Node000004"><a xlink:href="structm__parameter__id.html" target="_top" xlink:title=" ">
<polygon fill="white" stroke="#666666" points="272.25,-188.5 176,-188.5 176,-167.75 272.25,-167.75 272.25,-188.5"/>
<text xml:space="preserve" text-anchor="middle" x="224.12" y="-175" font-family="Helvetica,sans-Serif" font-size="10.00">m_parameter_id</text>
</a>
</g>
</g>
<!-- Node4&#45;&gt;Node3 -->
<g id="edge5_Node000003_Node000004" class="edge">
<title>Node4&#45;&gt;Node3</title>
<g id="a_edge5_Node000003_Node000004"><a xlink:title=" ">
<path fill="none" stroke="#9a32cd" stroke-dasharray="5,2" d="M215.47,-157.09C207.37,-138.35 195.62,-111.17 189.39,-96.74"/>
<polygon fill="#9a32cd" stroke="#9a32cd" points="212.17,-158.29 219.35,-166.08 218.6,-155.51 212.17,-158.29"/>
</a>
</g>
<text xml:space="preserve" text-anchor="start" x="214.51" y="-128.88" font-family="Helvetica,sans-Serif" font-size="10.00" fill="grey">id</text>
</g>
<!-- Node5 -->
<g id="Node000005" class="node">
<title>Node5</title>
<g id="a_Node000005"><a xlink:href="structm__setting.html" target="_top" xlink:title=" ">
<polygon fill="white" stroke="#666666" points="362.5,-96.25 297.75,-96.25 297.75,-75.5 362.5,-75.5 362.5,-96.25"/>
<text xml:space="preserve" text-anchor="middle" x="330.12" y="-82.75" font-family="Helvetica,sans-Serif" font-size="10.00">m_setting</text>
</a>
</g>
</g>
<!-- Node5&#45;&gt;Node1 -->
<g id="edge6_Node000001_Node000005" class="edge">
<title>Node5&#45;&gt;Node1</title>
<g id="a_edge6_Node000001_Node000005"><a xlink:title=" ">
<path fill="none" stroke="#9a32cd" stroke-dasharray="5,2" d="M300.62,-69.92C271.9,-55.36 229.09,-33.66 204.46,-21.18"/>
<polygon fill="#9a32cd" stroke="#9a32cd" points="299.02,-73.03 309.52,-74.43 302.18,-66.79 299.02,-73.03"/>
</a>
</g>
<text xml:space="preserve" text-anchor="start" x="277.88" y="-45" font-family="Helvetica,sans-Serif" font-size="10.00" fill="grey">setting</text>
</g>
<!-- Node6 -->
<g id="Node000006" class="node">
<title>Node6</title>
<g id="a_Node000006"><a xlink:href="structm__setting__id.html" target="_top" xlink:title=" ">
<polygon fill="white" stroke="#666666" points="369.62,-188.5 290.62,-188.5 290.62,-167.75 369.62,-167.75 369.62,-188.5"/>
<text xml:space="preserve" text-anchor="middle" x="330.12" y="-175" font-family="Helvetica,sans-Serif" font-size="10.00">m_setting_id</text>
</a>
</g>
</g>
<!-- Node6&#45;&gt;Node5 -->
<g id="edge7_Node000005_Node000006" class="edge">
<title>Node6&#45;&gt;Node5</title>
<g id="a_edge7_Node000005_Node000006"><a xlink:title=" ">
<path fill="none" stroke="#9a32cd" stroke-dasharray="5,2" d="M330.12,-156.02C330.12,-137.33 330.12,-110.9 330.12,-96.74"/>
<polygon fill="#9a32cd" stroke="#9a32cd" points="326.63,-155.95 330.13,-165.95 333.63,-155.95 326.63,-155.95"/>
</a>
</g>
<text xml:space="preserve" text-anchor="start" x="333.12" y="-128.88" font-family="Helvetica,sans-Serif" font-size="10.00" fill="grey">id</text>
</g>
<!-- Node7 -->
<g id="Node000007" class="node">
<title>Node7</title>
<g id="a_Node000007"><a xlink:href="structm__setting__option.html" target="_top" xlink:title=" ">
<polygon fill="white" stroke="#666666" points="488.5,-188.5 387.75,-188.5 387.75,-167.75 488.5,-167.75 488.5,-188.5"/>
<text xml:space="preserve" text-anchor="middle" x="438.12" y="-175" font-family="Helvetica,sans-Serif" font-size="10.00">m_setting_option</text>
</a>
</g>
</g>
<!-- Node7&#45;&gt;Node5 -->
<g id="edge8_Node000005_Node000007" class="edge">
<title>Node7&#45;&gt;Node5</title>
<g id="a_edge8_Node000005_Node000007"><a xlink:title=" ">
<path fill="none" stroke="#9a32cd" stroke-dasharray="5,2" d="M417.85,-160.18C395.46,-141.47 360.17,-111.99 341.93,-96.74"/>
<polygon fill="#9a32cd" stroke="#9a32cd" points="415.49,-162.77 425.41,-166.5 419.98,-157.4 415.49,-162.77"/>
</a>
</g>
<text xml:space="preserve" text-anchor="start" x="406.19" y="-128.88" font-family="Helvetica,sans-Serif" font-size="10.00" fill="grey">options</text>
</g>
</g>
</svg>
