<?xml version="1.0" encoding="UTF-8" standalone="no"?>
<!DOCTYPE svg PUBLIC "-//W3C//DTD SVG 1.1//EN"
 "http://www.w3.org/Graphics/SVG/1.1/DTD/svg11.dtd">
<!-- Generated by graphviz version 13.1.2 (20250808.2320)
 -->
<!-- Title: kest_fpga_write Pages: 1 -->
<svg width="264pt" height="104pt"
 viewBox="0.00 0.00 264.00 104.00" xmlns="http://www.w3.org/2000/svg" xmlns:xlink="http://www.w3.org/1999/xlink">
<g id="graph0" class="graph" transform="scale(1 1) rotate(0) translate(4 100.25)">
<title>kest_fpga_write</title>
<!-- Node1 -->
<g id="Node000001" class="node">
<title>Node1</title>
<g id="a_Node000001"><a xlink:title=" ">
<polygon fill="#999999" stroke="#666666" points="110.62,-20.75 17.38,-20.75 17.38,0 110.62,0 110.62,-20.75"/>
<text xml:space="preserve" text-anchor="middle" x="64" y="-7.25" font-family="Helvetica,sans-Serif" font-size="10.00">kest_fpga_write</text>
</a>
</g>
</g>
<!-- Node2 -->
<g id="Node000002" class="node">
<title>Node2</title>
<g id="a_Node000002"><a xlink:href="structkest__scope.html" target="_top" xlink:title=" ">
<polygon fill="white" stroke="#666666" points="70,-96.25 0,-96.25 0,-75.5 70,-75.5 70,-96.25"/>
<text xml:space="preserve" text-anchor="middle" x="35" y="-82.75" font-family="Helvetica,sans-Serif" font-size="10.00">kest_scope</text>
</a>
</g>
</g>
<!-- Node2&#45;&gt;Node1 -->
<g id="edge1_Node000001_Node000002" class="edge">
<title>Node2&#45;&gt;Node1</title>
<g id="a_edge1_Node000001_Node000002"><a xlink:title=" ">
<path fill="none" stroke="#9a32cd" stroke-dasharray="5,2" d="M42.99,-64.61C48.57,-50.49 55.76,-32.27 60.12,-21.22"/>
<polygon fill="#9a32cd" stroke="#9a32cd" points="39.76,-63.27 39.35,-73.86 46.27,-65.84 39.76,-63.27"/>
</a>
</g>
<text xml:space="preserve" text-anchor="start" x="55.95" y="-45" font-family="Helvetica,sans-Serif" font-size="10.00" fill="grey">scope</text>
</g>
<!-- Node3 -->
<g id="Node000003" class="node">
<title>Node3</title>
<g id="a_Node000003"><a xlink:href="structkest__expression.html" target="_top" xlink:title=" ">
<polygon fill="white" stroke="#666666" points="182.38,-96.25 87.62,-96.25 87.62,-75.5 182.38,-75.5 182.38,-96.25"/>
<text xml:space="preserve" text-anchor="middle" x="135" y="-82.75" font-family="Helvetica,sans-Serif" font-size="10.00">kest_expression</text>
</a>
</g>
</g>
<!-- Node3&#45;&gt;Node1 -->
<g id="edge2_Node000001_Node000003" class="edge">
<title>Node3&#45;&gt;Node1</title>
<g id="a_edge2_Node000001_Node000003"><a xlink:title=" ">
<path fill="none" stroke="#9a32cd" stroke-dasharray="5,2" d="M118.2,-67.13C110.03,-58.52 100.04,-48.07 91,-38.75 85.33,-32.9 78.93,-26.41 73.79,-21.22"/>
<polygon fill="#9a32cd" stroke="#9a32cd" points="115.48,-69.35 124.9,-74.19 120.56,-64.53 115.48,-69.35"/>
</a>
</g>
<text xml:space="preserve" text-anchor="start" x="111.01" y="-45" font-family="Helvetica,sans-Serif" font-size="10.00" fill="grey">expr</text>
</g>
<!-- Node3&#45;&gt;Node3 -->
<g id="edge3_Node000003_Node000003" class="edge">
<title>Node3&#45;&gt;Node3</title>
<g id="a_edge3_Node000003_Node000003"><a xlink:title=" ">
<path fill="none" stroke="#9a32cd" stroke-dasharray="5,2" d="M193.78,-91.03C197.88,-89.85 200.38,-88.13 200.38,-85.88 200.38,-81.97 192.9,-79.68 182.6,-79.01"/>
<polygon fill="#9a32cd" stroke="#9a32cd" points="193.45,-87.54 184.1,-92.51 194.51,-94.46 193.45,-87.54"/>
</a>
</g>
<text xml:space="preserve" text-anchor="start" x="203.38" y="-82.75" font-family="Helvetica,sans-Serif" font-size="10.00" fill="grey">sub_exprs</text>
</g>
</g>
</svg>
