<?xml version="1.0" encoding="UTF-8" standalone="no"?>
<!DOCTYPE svg PUBLIC "-//W3C//DTD SVG 1.1//EN"
 "http://www.w3.org/Graphics/SVG/1.1/DTD/svg11.dtd">
<!-- Generated by graphviz version 13.1.2 (20250808.2320)
 -->
<!-- Title: m_dictionary Pages: 1 -->
<svg width="339pt" height="180pt"
 viewBox="0.00 0.00 339.00 180.00" xmlns="http://www.w3.org/2000/svg" xmlns:xlink="http://www.w3.org/1999/xlink">
<g id="graph0" class="graph" transform="scale(1 1) rotate(0) translate(4 175.75)">
<title>m_dictionary</title>
<!-- Node1 -->
<g id="Node000001" class="node">
<title>Node1</title>
<g id="a_Node000001"><a xlink:title=" ">
<polygon fill="#999999" stroke="#666666" points="125.5,-171.75 45.75,-171.75 45.75,-151 125.5,-151 125.5,-171.75"/>
<text xml:space="preserve" text-anchor="middle" x="85.62" y="-158.25" font-family="Helvetica,sans-Serif" font-size="10.00">m_dictionary</text>
</a>
</g>
</g>
<!-- Node2 -->
<g id="Node000002" class="node">
<title>Node2</title>
<g id="a_Node000002"><a xlink:href="structm__dictionary__entry.html" target="_top" xlink:title=" ">
<polygon fill="white" stroke="#666666" points="214.88,-96.25 104.38,-96.25 104.38,-75.5 214.88,-75.5 214.88,-96.25"/>
<text xml:space="preserve" text-anchor="middle" x="159.62" y="-82.75" font-family="Helvetica,sans-Serif" font-size="10.00">m_dictionary_entry</text>
</a>
</g>
</g>
<!-- Node1&#45;&gt;Node2 -->
<g id="edge4_Node000002_Node000001" class="edge">
<title>Node1&#45;&gt;Node2</title>
<g id="a_edge4_Node000002_Node000001"><a xlink:title=" ">
<path fill="none" stroke="#9a32cd" stroke-dasharray="5,2" d="M112.4,-144.54C117.38,-141.04 122.35,-137.14 126.62,-133 138.08,-121.9 148.26,-106.38 154.18,-96.48"/>
<polygon fill="#9a32cd" stroke="#9a32cd" points="110.71,-141.47 104.27,-149.88 114.55,-147.32 110.71,-141.47"/>
</a>
</g>
<text xml:space="preserve" text-anchor="start" x="144.74" y="-120.5" font-family="Helvetica,sans-Serif" font-size="10.00" fill="grey">val_dict</text>
</g>
<!-- Node2&#45;&gt;Node1 -->
<g id="edge1_Node000001_Node000002" class="edge">
<title>Node2&#45;&gt;Node1</title>
<g id="a_edge1_Node000001_Node000002"><a xlink:title=" ">
<path fill="none" stroke="#9a32cd" stroke-dasharray="5,2" d="M99.63,-102.18C94.71,-105.45 90.31,-109.43 86.88,-114.25 79.35,-124.82 80.84,-140.48 82.96,-150.56"/>
<polygon fill="#9a32cd" stroke="#9a32cd" points="101.22,-105.3 108.31,-97.43 97.86,-99.16 101.22,-105.3"/>
</a>
</g>
<text xml:space="preserve" text-anchor="start" x="89.88" y="-120.5" font-family="Helvetica,sans-Serif" font-size="10.00" fill="grey">entries</text>
</g>
<!-- Node4 -->
<g id="Node000004" class="node">
<title>Node4</title>
<g id="a_Node000004"><a xlink:href="structm__dictionary__bucket.html" target="_top" xlink:title=" ">
<polygon fill="white" stroke="#666666" points="117.25,-20.75 0,-20.75 0,0 117.25,0 117.25,-20.75"/>
<text xml:space="preserve" text-anchor="middle" x="58.62" y="-7.25" font-family="Helvetica,sans-Serif" font-size="10.00">m_dictionary_bucket</text>
</a>
</g>
</g>
<!-- Node2&#45;&gt;Node4 -->
<g id="edge6_Node000004_Node000002" class="edge">
<title>Node2&#45;&gt;Node4</title>
<g id="a_edge6_Node000004_Node000002"><a xlink:title=" ">
<path fill="none" stroke="#9a32cd" stroke-dasharray="5,2" d="M137.15,-68.52C117.22,-54.02 88.78,-33.32 72.15,-21.22"/>
<polygon fill="#9a32cd" stroke="#9a32cd" points="135.05,-71.32 145.2,-74.38 139.17,-65.66 135.05,-71.32"/>
</a>
</g>
<text xml:space="preserve" text-anchor="start" x="124.14" y="-45" font-family="Helvetica,sans-Serif" font-size="10.00" fill="grey">entries</text>
</g>
<!-- Node3 -->
<g id="Node000003" class="node">
<title>Node3</title>
<g id="a_Node000003"><a xlink:href="structm__expression.html" target="_top" xlink:title=" ">
<polygon fill="white" stroke="#666666" points="257.75,-171.75 173.5,-171.75 173.5,-151 257.75,-151 257.75,-171.75"/>
<text xml:space="preserve" text-anchor="middle" x="215.62" y="-158.25" font-family="Helvetica,sans-Serif" font-size="10.00">m_expression</text>
</a>
</g>
</g>
<!-- Node3&#45;&gt;Node2 -->
<g id="edge2_Node000002_Node000003" class="edge">
<title>Node3&#45;&gt;Node2</title>
<g id="a_edge2_Node000002_Node000003"><a xlink:title=" ">
<path fill="none" stroke="#9a32cd" stroke-dasharray="5,2" d="M208.36,-140.27C204.71,-131.74 199.75,-122 193.62,-114.25 188.27,-107.47 180.94,-101.3 174.46,-96.54"/>
<polygon fill="#9a32cd" stroke="#9a32cd" points="205.05,-141.4 211.96,-149.44 211.57,-138.85 205.05,-141.4"/>
</a>
</g>
<text xml:space="preserve" text-anchor="start" x="207.59" y="-120.5" font-family="Helvetica,sans-Serif" font-size="10.00" fill="grey">val_expr</text>
</g>
<!-- Node3&#45;&gt;Node3 -->
<g id="edge3_Node000003_Node000003" class="edge">
<title>Node3&#45;&gt;Node3</title>
<g id="a_edge3_Node000003_Node000003"><a xlink:title=" ">
<path fill="none" stroke="#9a32cd" stroke-dasharray="5,2" d="M269.14,-166.69C273.23,-165.51 275.75,-163.74 275.75,-161.38 275.75,-157.28 268.21,-154.97 258.04,-154.42"/>
<polygon fill="#9a32cd" stroke="#9a32cd" points="268.92,-163.19 259.54,-168.11 269.94,-170.11 268.92,-163.19"/>
</a>
</g>
<text xml:space="preserve" text-anchor="start" x="278.75" y="-158.25" font-family="Helvetica,sans-Serif" font-size="10.00" fill="grey">sub_exprs</text>
</g>
<!-- Node4&#45;&gt;Node1 -->
<g id="edge5_Node000001_Node000004" class="edge">
<title>Node4&#45;&gt;Node1</title>
<g id="a_edge5_Node000001_Node000004"><a xlink:title=" ">
<path fill="none" stroke="#9a32cd" stroke-dasharray="5,2" d="M53.41,-32.3C49.93,-49.67 46.88,-74.88 52.12,-96.25 57.22,-116.99 70.32,-138.46 78.55,-150.55"/>
<polygon fill="#9a32cd" stroke="#9a32cd" points="56.79,-33.21 55.57,-22.69 49.96,-31.68 56.79,-33.21"/>
</a>
</g>
<text xml:space="preserve" text-anchor="start" x="55.12" y="-82.75" font-family="Helvetica,sans-Serif" font-size="10.00" fill="grey">buckets</text>
</g>
</g>
</svg>
