<?xml version="1.0" encoding="UTF-8" standalone="no"?>
<!DOCTYPE svg PUBLIC "-//W3C//DTD SVG 1.1//EN"
 "http://www.w3.org/Graphics/SVG/1.1/DTD/svg11.dtd">
<!-- Generated by graphviz version 13.1.2 (20250808.2320)
 -->
<!-- Title: kest_update Pages: 1 -->
<svg width="782pt" height="337pt"
 viewBox="0.00 0.00 782.00 337.00" xmlns="http://www.w3.org/2000/svg" xmlns:xlink="http://www.w3.org/1999/xlink">
<g id="graph0" class="graph" transform="scale(1 1) rotate(0) translate(4 333)">
<title>kest_update</title>
<!-- Node1 -->
<g id="Node000001" class="node">
<title>Node1</title>
<g id="a_Node000001"><a xlink:title=" ">
<polygon fill="#999999" stroke="#666666" points="75.25,-20.75 0,-20.75 0,0 75.25,0 75.25,-20.75"/>
<text xml:space="preserve" text-anchor="middle" x="37.62" y="-7.25" font-family="Helvetica,sans-Serif" font-size="10.00">kest_update</text>
</a>
</g>
</g>
<!-- Node2 -->
<g id="Node000002" class="node">
<title>Node2</title>
<g id="a_Node000002"><a xlink:href="structkest__parameter.html" target="_top" xlink:title=" ">
<polygon fill="white" stroke="#666666" points="192.88,-236.75 100.38,-236.75 100.38,-216 192.88,-216 192.88,-236.75"/>
<text xml:space="preserve" text-anchor="middle" x="146.62" y="-223.25" font-family="Helvetica,sans-Serif" font-size="10.00">kest_parameter</text>
</a>
</g>
</g>
<!-- Node2&#45;&gt;Node1 -->
<g id="edge1_Node000001_Node000002" class="edge">
<title>Node2&#45;&gt;Node1</title>
<g id="a_edge1_Node000001_Node000002"><a xlink:title=" ">
<path fill="none" stroke="#9a32cd" stroke-dasharray="5,2" d="M96.59,-211.74C71.35,-202.05 43,-186.22 28.12,-161.25 0.63,-115.11 23.54,-46.18 33.53,-21.01"/>
<polygon fill="#9a32cd" stroke="#9a32cd" points="95.15,-214.94 105.75,-215.02 97.51,-208.35 95.15,-214.94"/>
</a>
</g>
<text xml:space="preserve" text-anchor="start" x="31.12" y="-115.25" font-family="Helvetica,sans-Serif" font-size="10.00" fill="grey">param</text>
</g>
<!-- Node4 -->
<g id="Node000004" class="node">
<title>Node4</title>
<g id="a_Node000004"><a xlink:href="structkest__effect.html" target="_top" xlink:title=" ">
<polygon fill="white" stroke="#666666" points="424.62,-20.75 354.62,-20.75 354.62,0 424.62,0 424.62,-20.75"/>
<text xml:space="preserve" text-anchor="middle" x="389.62" y="-7.25" font-family="Helvetica,sans-Serif" font-size="10.00">kest_effect</text>
</a>
</g>
</g>
<!-- Node2&#45;&gt;Node4 -->
<g id="edge5_Node000004_Node000002" class="edge">
<title>Node2&#45;&gt;Node4</title>
<g id="a_edge5_Node000004_Node000002"><a xlink:title=" ">
<path fill="none" stroke="#9a32cd" stroke-dasharray="5,2" d="M163.69,-206.87C165.62,-204.05 167.35,-201.06 168.62,-198 189.73,-147.43 147.66,-117.69 182.62,-75.5 225,-24.38 307.34,-13.27 354.39,-11.3"/>
<polygon fill="#9a32cd" stroke="#9a32cd" points="161.16,-204.44 157.67,-214.44 166.63,-208.8 161.16,-204.44"/>
</a>
</g>
<text xml:space="preserve" text-anchor="start" x="185.62" y="-148.75" font-family="Helvetica,sans-Serif" font-size="10.00" fill="grey">band_center</text>
<text xml:space="preserve" text-anchor="start" x="185.62" y="-132" font-family="Helvetica,sans-Serif" font-size="10.00" fill="grey">band_hp_cutoff</text>
<text xml:space="preserve" text-anchor="start" x="185.62" y="-115.25" font-family="Helvetica,sans-Serif" font-size="10.00" fill="grey">band_lp_cutoff</text>
<text xml:space="preserve" text-anchor="start" x="185.62" y="-98.5" font-family="Helvetica,sans-Serif" font-size="10.00" fill="grey">band_width</text>
<text xml:space="preserve" text-anchor="start" x="185.62" y="-81.75" font-family="Helvetica,sans-Serif" font-size="10.00" fill="grey">wet_mix</text>
</g>
<!-- Node9 -->
<g id="Node000009" class="node">
<title>Node9</title>
<g id="a_Node000009"><a xlink:href="structkest__preset.html" target="_top" xlink:title=" ">
<polygon fill="#fff0f0" stroke="red" points="146.75,-128.75 74.5,-128.75 74.5,-108 146.75,-108 146.75,-128.75"/>
<text xml:space="preserve" text-anchor="middle" x="110.62" y="-115.25" font-family="Helvetica,sans-Serif" font-size="10.00">kest_preset</text>
</a>
</g>
</g>
<!-- Node2&#45;&gt;Node9 -->
<g id="edge9_Node000009_Node000002" class="edge">
<title>Node2&#45;&gt;Node9</title>
<g id="a_edge9_Node000009_Node000002"><a xlink:title=" ">
<path fill="none" stroke="#9a32cd" stroke-dasharray="5,2" d="M130.65,-206.55C128.84,-203.8 127.18,-200.91 125.88,-198 115.5,-174.77 112.16,-144.57 111.11,-129.24"/>
<polygon fill="#9a32cd" stroke="#9a32cd" points="127.81,-208.6 136.63,-214.48 133.41,-204.39 127.81,-208.6"/>
</a>
</g>
<text xml:space="preserve" text-anchor="start" x="128.88" y="-185.5" font-family="Helvetica,sans-Serif" font-size="10.00" fill="grey">volume</text>
</g>
<!-- Node3 -->
<g id="Node000003" class="node">
<title>Node3</title>
<g id="a_Node000003"><a xlink:href="structkest__expression.html" target="_top" xlink:title=" ">
<polygon fill="white" stroke="#666666" points="98,-329 3.25,-329 3.25,-308.25 98,-308.25 98,-329"/>
<text xml:space="preserve" text-anchor="middle" x="50.62" y="-315.5" font-family="Helvetica,sans-Serif" font-size="10.00">kest_expression</text>
</a>
</g>
</g>
<!-- Node3&#45;&gt;Node2 -->
<g id="edge2_Node000002_Node000003" class="edge">
<title>Node3&#45;&gt;Node2</title>
<g id="a_edge2_Node000002_Node000003"><a xlink:title=" ">
<path fill="none" stroke="#9a32cd" stroke-dasharray="5,2" d="M69.18,-300.18C89.11,-281.45 120.06,-252.35 136.13,-237.24"/>
<polygon fill="#9a32cd" stroke="#9a32cd" points="66.89,-297.53 62,-306.93 71.68,-302.63 66.89,-297.53"/>
</a>
</g>
<text xml:space="preserve" text-anchor="start" x="118.57" y="-277.75" font-family="Helvetica,sans-Serif" font-size="10.00" fill="grey">max_expr</text>
<text xml:space="preserve" text-anchor="start" x="118.57" y="-261" font-family="Helvetica,sans-Serif" font-size="10.00" fill="grey">min_expr</text>
</g>
<!-- Node3&#45;&gt;Node3 -->
<g id="edge3_Node000003_Node000003" class="edge">
<title>Node3&#45;&gt;Node3</title>
<g id="a_edge3_Node000003_Node000003"><a xlink:title=" ">
<path fill="none" stroke="#9a32cd" stroke-dasharray="5,2" d="M109.4,-324.92C113.5,-323.48 116,-321.39 116,-318.62 116,-313.85 108.53,-311.05 98.22,-310.23"/>
<polygon fill="#9a32cd" stroke="#9a32cd" points="108.9,-321.46 99.71,-326.74 110.19,-328.34 108.9,-321.46"/>
</a>
</g>
<text xml:space="preserve" text-anchor="start" x="119" y="-315.5" font-family="Helvetica,sans-Serif" font-size="10.00" fill="grey">sub_exprs</text>
</g>
<!-- Node4&#45;&gt;Node2 -->
<g id="edge4_Node000002_Node000004" class="edge">
<title>Node4&#45;&gt;Node2</title>
<g id="a_edge4_Node000002_Node000004"><a xlink:title=" ">
<path fill="none" stroke="#9a32cd" stroke-dasharray="5,2" d="M363.48,-27.32C346.06,-38.97 323.6,-56.08 308.12,-75.5 281.86,-108.47 296.73,-130.77 267.62,-161.25 242.34,-187.73 203.69,-205.56 176.9,-215.56"/>
<polygon fill="#9a32cd" stroke="#9a32cd" points="365.3,-30.31 371.8,-21.94 361.5,-24.43 365.3,-30.31"/>
</a>
</g>
<text xml:space="preserve" text-anchor="start" x="311.12" y="-115.25" font-family="Helvetica,sans-Serif" font-size="10.00" fill="grey">effect</text>
</g>
<!-- Node5 -->
<g id="Node000005" class="node">
<title>Node5</title>
<g id="a_Node000005"><a xlink:href="structkest__setting.html" target="_top" xlink:title=" ">
<polygon fill="#fff0f0" stroke="red" points="427.25,-128.75 352,-128.75 352,-108 427.25,-108 427.25,-128.75"/>
<text xml:space="preserve" text-anchor="middle" x="389.62" y="-115.25" font-family="Helvetica,sans-Serif" font-size="10.00">kest_setting</text>
</a>
</g>
</g>
<!-- Node5&#45;&gt;Node4 -->
<g id="edge6_Node000004_Node000005" class="edge">
<title>Node5&#45;&gt;Node4</title>
<g id="a_edge6_Node000004_Node000005"><a xlink:title=" ">
<path fill="none" stroke="#9a32cd" stroke-dasharray="5,2" d="M389.62,-96.11C389.62,-73.3 389.62,-38.08 389.62,-21.13"/>
<polygon fill="#9a32cd" stroke="#9a32cd" points="386.13,-96.08 389.63,-106.08 393.13,-96.08 386.13,-96.08"/>
</a>
</g>
<text xml:space="preserve" text-anchor="start" x="392.62" y="-45" font-family="Helvetica,sans-Serif" font-size="10.00" fill="grey">band_mode</text>
</g>
<!-- Node8 -->
<g id="Node000008" class="node">
<title>Node8</title>
<g id="a_Node000008"><a xlink:href="structkest__effect__fpga__position.html" target="_top" xlink:title=" ">
<polygon fill="white" stroke="#666666" points="586.25,-128.75 445,-128.75 445,-108 586.25,-108 586.25,-128.75"/>
<text xml:space="preserve" text-anchor="middle" x="515.62" y="-115.25" font-family="Helvetica,sans-Serif" font-size="10.00">kest_effect_fpga_position</text>
</a>
</g>
</g>
<!-- Node8&#45;&gt;Node4 -->
<g id="edge7_Node000004_Node000008" class="edge">
<title>Node8&#45;&gt;Node4</title>
<g id="a_edge7_Node000004_Node000008"><a xlink:title=" ">
<path fill="none" stroke="#9a32cd" stroke-dasharray="5,2" d="M505.07,-97.82C494.74,-80.28 477.54,-54.9 456.62,-38.75 446.88,-31.22 434.77,-25.45 423.55,-21.19"/>
<polygon fill="#9a32cd" stroke="#9a32cd" points="501.87,-99.27 509.84,-106.25 507.96,-95.82 501.87,-99.27"/>
</a>
</g>
<text xml:space="preserve" text-anchor="start" x="479.04" y="-45" font-family="Helvetica,sans-Serif" font-size="10.00" fill="grey">position_</text>
</g>
<!-- Node9&#45;&gt;Node1 -->
<g id="edge14_Node000001_Node000009" class="edge">
<title>Node9&#45;&gt;Node1</title>
<g id="a_edge14_Node000001_Node000009"><a xlink:title=" ">
<path fill="none" stroke="#9a32cd" stroke-dasharray="5,2" d="M96.41,-98.59C87.69,-86.9 76.41,-71.49 66.88,-57.5 58.44,-45.12 49.27,-30.45 43.49,-21.03"/>
<polygon fill="#9a32cd" stroke="#9a32cd" points="93.59,-100.66 102.39,-106.56 99.19,-96.46 93.59,-100.66"/>
</a>
</g>
<text xml:space="preserve" text-anchor="start" x="69.88" y="-45" font-family="Helvetica,sans-Serif" font-size="10.00" fill="grey">preset</text>
</g>
<!-- Node9&#45;&gt;Node4 -->
<g id="edge8_Node000004_Node000009" class="edge">
<title>Node9&#45;&gt;Node4</title>
<g id="a_edge8_Node000004_Node000009"><a xlink:title=" ">
<path fill="none" stroke="#9a32cd" stroke-dasharray="5,2" d="M110.19,-96.19C111.05,-78.08 115.44,-52.78 131.88,-38.75 148.46,-24.6 287.58,-16.19 354.26,-12.93"/>
<polygon fill="#9a32cd" stroke="#9a32cd" points="106.69,-96.05 110.07,-106.09 113.69,-96.13 106.69,-96.05"/>
</a>
</g>
<text xml:space="preserve" text-anchor="start" x="134.88" y="-45" font-family="Helvetica,sans-Serif" font-size="10.00" fill="grey">preset</text>
</g>
<!-- Node11 -->
<g id="Node000011" class="node">
<title>Node11</title>
<g id="a_Node000011"><a xlink:href="structkest__effect__desc.html" target="_top" xlink:title=" ">
<polygon fill="#fff0f0" stroke="red" points="702.5,-128.75 604.75,-128.75 604.75,-108 702.5,-108 702.5,-128.75"/>
<text xml:space="preserve" text-anchor="middle" x="653.62" y="-115.25" font-family="Helvetica,sans-Serif" font-size="10.00">kest_effect_desc</text>
</a>
</g>
</g>
<!-- Node11&#45;&gt;Node4 -->
<g id="edge10_Node000004_Node000011" class="edge">
<title>Node11&#45;&gt;Node4</title>
<g id="a_edge10_Node000004_Node000011"><a xlink:title=" ">
<path fill="none" stroke="#9a32cd" stroke-dasharray="5,2" d="M631.96,-100.86C621.23,-92.91 607.95,-83.4 595.62,-75.5 567.68,-57.59 561.76,-50.23 530.62,-38.75 495.88,-25.94 454,-18.78 424.95,-15.03"/>
<polygon fill="#9a32cd" stroke="#9a32cd" points="629.7,-103.54 639.8,-106.74 633.9,-97.94 629.7,-103.54"/>
</a>
</g>
<text xml:space="preserve" text-anchor="start" x="571.57" y="-45" font-family="Helvetica,sans-Serif" font-size="10.00" fill="grey">eff</text>
</g>
<!-- Node13 -->
<g id="Node000013" class="node">
<title>Node13</title>
<g id="a_Node000013"><a xlink:href="structkest__scope.html" target="_top" xlink:title=" ">
<polygon fill="white" stroke="#666666" points="739.62,-236.75 669.62,-236.75 669.62,-216 739.62,-216 739.62,-236.75"/>
<text xml:space="preserve" text-anchor="middle" x="704.62" y="-223.25" font-family="Helvetica,sans-Serif" font-size="10.00">kest_scope</text>
</a>
</g>
</g>
<!-- Node13&#45;&gt;Node4 -->
<g id="edge12_Node000004_Node000013" class="edge">
<title>Node13&#45;&gt;Node4</title>
<g id="a_edge12_Node000004_Node000013"><a xlink:title=" ">
<path fill="none" stroke="#9a32cd" stroke-dasharray="5,2" d="M720.79,-206.28C722.35,-203.63 723.7,-200.84 724.62,-198 736.17,-162.63 757.63,-130.22 711.62,-75.5 675.13,-32.09 500.8,-17.42 424.98,-13.04"/>
<polygon fill="#9a32cd" stroke="#9a32cd" points="717.98,-204.19 715.01,-214.36 723.67,-208.27 717.98,-204.19"/>
</a>
</g>
<text xml:space="preserve" text-anchor="start" x="742.82" y="-115.25" font-family="Helvetica,sans-Serif" font-size="10.00" fill="grey">scope</text>
</g>
<!-- Node13&#45;&gt;Node11 -->
<g id="edge11_Node000011_Node000013" class="edge">
<title>Node13&#45;&gt;Node11</title>
<g id="a_edge11_Node000011_Node000013"><a xlink:title=" ">
<path fill="none" stroke="#9a32cd" stroke-dasharray="5,2" d="M694.01,-205.62C692.68,-203.07 691.36,-200.48 690.12,-198 677.94,-173.47 664.63,-144.08 657.96,-129.14"/>
<polygon fill="#9a32cd" stroke="#9a32cd" points="690.78,-207.02 698.56,-214.22 696.97,-203.74 690.78,-207.02"/>
</a>
</g>
<text xml:space="preserve" text-anchor="start" x="693.12" y="-185.5" font-family="Helvetica,sans-Serif" font-size="10.00" fill="grey">scope</text>
</g>
<!-- Node14 -->
<g id="Node000014" class="node">
<title>Node14</title>
<g id="a_Node000014"><a xlink:href="structkest__parameter__id.html" target="_top" xlink:title=" ">
<polygon fill="white" stroke="#666666" points="296,-329 189.25,-329 189.25,-308.25 296,-308.25 296,-329"/>
<text xml:space="preserve" text-anchor="middle" x="242.62" y="-315.5" font-family="Helvetica,sans-Serif" font-size="10.00">kest_parameter_id</text>
</a>
</g>
</g>
<!-- Node14&#45;&gt;Node2 -->
<g id="edge13_Node000002_Node000014" class="edge">
<title>Node14&#45;&gt;Node2</title>
<g id="a_edge13_Node000002_Node000014"><a xlink:title=" ">
<path fill="none" stroke="#9a32cd" stroke-dasharray="5,2" d="M224.07,-300.18C204.14,-281.45 173.19,-252.35 157.12,-237.24"/>
<polygon fill="#9a32cd" stroke="#9a32cd" points="221.57,-302.63 231.25,-306.93 226.36,-297.53 221.57,-302.63"/>
</a>
</g>
<text xml:space="preserve" text-anchor="start" x="214.57" y="-269.38" font-family="Helvetica,sans-Serif" font-size="10.00" fill="grey">id</text>
</g>
</g>
</svg>
