<?xml version="1.0" encoding="UTF-8" standalone="no"?>
<!DOCTYPE svg PUBLIC "-//W3C//DTD SVG 1.1//EN"
 "http://www.w3.org/Graphics/SVG/1.1/DTD/svg11.dtd">
<!-- Generated by graphviz version 13.1.2 (20250808.2320)
 -->
<!-- Title: m_eff_parsing_state Pages: 1 -->
<!--zoomable 211 -->

<svg id="main" version="1.1" xmlns="http://www.w3.org/2000/svg" xmlns:xlink="http://www.w3.org/1999/xlink" xml:space="preserve" onload="init(evt)">

<style type="text/css"><![CDATA[
.node, .edge {opacity: 0.7;}
.node.selected, .edge.selected {opacity: 1;}
.edge:hover path { stroke: red; }
.edge:hover polygon { stroke: red; fill: red; }
]]></style>

<defs>
  <circle id="rim" cx="0" cy="0" r="7"/>
  <circle id="rim2" cx="0" cy="0" r="3.5"/>
  <g id="zoomPlus">
    <use xlink:href="#rim" fill="#404040"><set attributeName="fill" to="#808080" begin="zoomplus.mouseover" end="zoomplus.mouseout"/></use>
    <path d="M-4,0h8M0,-4v8" fill="none" stroke="white" stroke-width="1.5" pointer-events="none"/>
  </g>
  <g id="zoomMin">
    <use xlink:href="#rim" fill="#404040"><set attributeName="fill" to="#808080" begin="zoomminus.mouseover" end="zoomminus.mouseout"/></use>
    <path d="M-4,0h8" fill="none" stroke="white" stroke-width="1.5" pointer-events="none"/>
  </g>
  <g id="arrowUp" transform="translate(30 24)">
    <use xlink:href="#rim"/>
    <path pointer-events="none" fill="none" stroke="white" stroke-width="1.5" d="M0,-3.0v7 M-2.5,-0.5L0,-3.0L2.5,-0.5"/>
  </g>
  <g id="arrowRight" transform="rotate(90) translate(36 -43)">
    <use xlink:href="#rim"/>
    <path pointer-events="none" fill="none" stroke="white" stroke-width="1.5" d="M0,-3.0v7 M-2.5,-0.5L0,-3.0L2.5,-0.5"/>
  </g>
  <g id="arrowDown" transform="rotate(180) translate(-30 -48)">
    <use xlink:href="#rim"/>
    <path pointer-events="none" fill="none" stroke="white" stroke-width="1.5" d="M0,-3.0v7 M-2.5,-0.5L0,-3.0L2.5,-0.5"/>
  </g>
  <g id="arrowLeft" transform="rotate(270) translate(-36 17)">
    <use xlink:href="#rim"/>
    <path pointer-events="none" fill="none" stroke="white" stroke-width="1.5" d="M0,-3.0v7 M-2.5,-0.5L0,-3.0L2.5,-0.5"/>
  </g>
  <g id="resetDef">
    <use xlink:href="#rim2" fill="#404040"><set attributeName="fill" to="#808080" begin="reset.mouseover" end="reset.mouseout"/></use>
  </g>
</defs>
<script type="application/ecmascript">
var viewWidth = 503;
var viewHeight = 211;
var sectionId = 'dynsection-0';
</script>
<script type="application/ecmascript" xlink:href="svg.min.js"/>
<svg id="graph" class="graph">
<g id="viewport">
<title>m_eff_parsing_state</title>
<!-- Node1 -->
<g id="Node000001" class="node">
<title>Node1</title>
<g id="a_Node000001"><a xlink:title=" ">
<polygon fill="#999999" stroke="#666666" points="275,-20.75 159.25,-20.75 159.25,0 275,0 275,-20.75"/>
<text xml:space="preserve" text-anchor="middle" x="217.12" y="-7.25" font-family="Helvetica,sans-Serif" font-size="10.00">m_eff_parsing_state</text>
</a>
</g>
</g>
<!-- Node2 -->
<g id="Node000002" class="node">
<title>Node2</title>
<g id="a_Node000002"><a xlink:href="structm__effect__desc.html" target="_top" xlink:title=" ">
<polygon fill="white" stroke="#666666" points="150.75,-120.38 63.5,-120.38 63.5,-99.62 150.75,-99.62 150.75,-120.38"/>
<text xml:space="preserve" text-anchor="middle" x="107.12" y="-106.88" font-family="Helvetica,sans-Serif" font-size="10.00">m_effect_desc</text>
</a>
</g>
</g>
<!-- Node2&#45;&gt;Node1 -->
<g id="edge1_Node000001_Node000002" class="edge">
<title>Node2&#45;&gt;Node1</title>
<g id="a_edge1_Node000001_Node000002"><a xlink:title=" ">
<path fill="none" stroke="#9a32cd" stroke-dasharray="5,2" d="M112.01,-88.03C116.63,-72.49 125.06,-51.81 139.38,-38.75 148.04,-30.84 159.14,-25.19 170.21,-21.16"/>
<polygon fill="#9a32cd" stroke="#9a32cd" points="108.62,-87.13 109.46,-97.69 115.39,-88.92 108.62,-87.13"/>
</a>
</g>
<text xml:space="preserve" text-anchor="start" x="142.38" y="-53.38" font-family="Helvetica,sans-Serif" font-size="10.00" fill="grey">result</text>
</g>
<!-- Node3 -->
<g id="Node000003" class="node">
<title>Node3</title>
<g id="a_Node000003"><a xlink:href="structm__eff__resource__report.html" target="_top" xlink:title=" ">
<polygon fill="white" stroke="#666666" points="126.25,-203.25 0,-203.25 0,-182.5 126.25,-182.5 126.25,-203.25"/>
<text xml:space="preserve" text-anchor="middle" x="63.12" y="-189.75" font-family="Helvetica,sans-Serif" font-size="10.00">m_eff_resource_report</text>
</a>
</g>
</g>
<!-- Node3&#45;&gt;Node2 -->
<g id="edge2_Node000002_Node000003" class="edge">
<title>Node3&#45;&gt;Node2</title>
<g id="a_edge2_Node000002_Node000003"><a xlink:title=" ">
<path fill="none" stroke="#9a32cd" stroke-dasharray="5,2" d="M63.55,-170.81C64.43,-162.61 66.36,-153.37 70.38,-145.75 75.69,-135.65 85.09,-126.85 93.05,-120.63"/>
<polygon fill="#9a32cd" stroke="#9a32cd" points="60.06,-170.42 62.96,-180.61 67.05,-170.84 60.06,-170.42"/>
</a>
</g>
<text xml:space="preserve" text-anchor="start" x="73.38" y="-152" font-family="Helvetica,sans-Serif" font-size="10.00" fill="grey">res_rpt</text>
</g>
<!-- Node4 -->
<g id="Node000004" class="node">
<title>Node4</title>
<g id="a_Node000004"><a xlink:href="structm__expr__scope.html" target="_top" xlink:title=" ">
<polygon fill="white" stroke="#666666" points="230.38,-203.25 143.88,-203.25 143.88,-182.5 230.38,-182.5 230.38,-203.25"/>
<text xml:space="preserve" text-anchor="middle" x="187.12" y="-189.75" font-family="Helvetica,sans-Serif" font-size="10.00">m_expr_scope</text>
</a>
</g>
</g>
<!-- Node4&#45;&gt;Node1 -->
<g id="edge6_Node000001_Node000004" class="edge">
<title>Node4&#45;&gt;Node1</title>
<g id="a_edge6_Node000001_Node000004"><a xlink:title=" ">
<path fill="none" stroke="#9a32cd" stroke-dasharray="5,2" d="M187.85,-170.91C188.8,-150.66 190.94,-119.17 195.62,-92.25 200.16,-66.2 209.12,-36.31 213.91,-21.21"/>
<polygon fill="#9a32cd" stroke="#9a32cd" points="184.36,-170.54 187.45,-180.67 191.36,-170.82 184.36,-170.54"/>
</a>
</g>
<text xml:space="preserve" text-anchor="start" x="198.62" y="-106.88" font-family="Helvetica,sans-Serif" font-size="10.00" fill="grey">scope</text>
</g>
<!-- Node4&#45;&gt;Node2 -->
<g id="edge3_Node000002_Node000004" class="edge">
<title>Node4&#45;&gt;Node2</title>
<g id="a_edge3_Node000002_Node000004"><a xlink:title=" ">
<path fill="none" stroke="#9a32cd" stroke-dasharray="5,2" d="M154.22,-176.45C148.65,-172.99 143.2,-168.99 138.62,-164.5 125.55,-151.66 115.95,-132.28 110.97,-120.71"/>
<polygon fill="#9a32cd" stroke="#9a32cd" points="152.47,-179.48 162.9,-181.35 155.91,-173.38 152.47,-179.48"/>
</a>
</g>
<text xml:space="preserve" text-anchor="start" x="141.62" y="-152" font-family="Helvetica,sans-Serif" font-size="10.00" fill="grey">scope</text>
</g>
<!-- Node5 -->
<g id="Node000005" class="node">
<title>Node5</title>
<g id="a_Node000005"><a xlink:href="structm__token__ll.html" target="_top" xlink:title=" ">
<polygon fill="white" stroke="#666666" points="308.75,-120.38 239.5,-120.38 239.5,-99.62 308.75,-99.62 308.75,-120.38"/>
<text xml:space="preserve" text-anchor="middle" x="274.12" y="-106.88" font-family="Helvetica,sans-Serif" font-size="10.00">m_token_ll</text>
</a>
</g>
</g>
<!-- Node5&#45;&gt;Node1 -->
<g id="edge4_Node000001_Node000005" class="edge">
<title>Node5&#45;&gt;Node1</title>
<g id="a_edge4_Node000001_Node000005"><a xlink:title=" ">
<path fill="none" stroke="#9a32cd" stroke-dasharray="5,2" d="M262.65,-89.35C250.56,-68.64 232.02,-36.89 222.78,-21.05"/>
<polygon fill="#9a32cd" stroke="#9a32cd" points="259.62,-91.1 267.69,-97.98 265.67,-87.57 259.62,-91.1"/>
</a>
</g>
<text xml:space="preserve" text-anchor="start" x="255.41" y="-61.75" font-family="Helvetica,sans-Serif" font-size="10.00" fill="grey">current_token</text>
<text xml:space="preserve" text-anchor="start" x="255.41" y="-45" font-family="Helvetica,sans-Serif" font-size="10.00" fill="grey">tokens</text>
</g>
<!-- Node5&#45;&gt;Node5 -->
<g id="edge5_Node000005_Node000005" class="edge">
<title>Node5&#45;&gt;Node5</title>
<g id="a_edge5_Node000005_Node000005"><a xlink:title=" ">
<path fill="none" stroke="#9a32cd" stroke-dasharray="5,2" d="M320.4,-116.57C324.31,-115.16 326.75,-112.97 326.75,-110 326.75,-104.71 319.04,-101.9 309.04,-101.57"/>
<polygon fill="#9a32cd" stroke="#9a32cd" points="319.84,-113.12 310.54,-118.18 320.97,-120.02 319.84,-113.12"/>
</a>
</g>
<text xml:space="preserve" text-anchor="start" x="329.75" y="-106.88" font-family="Helvetica,sans-Serif" font-size="10.00" fill="grey">next</text>
</g>
<!-- Node6 -->
<g id="Node000006" class="node">
<title>Node6</title>
<g id="a_Node000006"><a xlink:href="structm__ast__node.html" target="_top" xlink:title=" ">
<polygon fill="white" stroke="#666666" points="447.75,-120.38 372.5,-120.38 372.5,-99.62 447.75,-99.62 447.75,-120.38"/>
<text xml:space="preserve" text-anchor="middle" x="410.12" y="-106.88" font-family="Helvetica,sans-Serif" font-size="10.00">m_ast_node</text>
</a>
</g>
</g>
<!-- Node6&#45;&gt;Node1 -->
<g id="edge7_Node000001_Node000006" class="edge">
<title>Node6&#45;&gt;Node1</title>
<g id="a_edge7_Node000001_Node000006"><a xlink:title=" ">
<path fill="none" stroke="#9a32cd" stroke-dasharray="5,2" d="M394.29,-91.09C379.12,-75.03 354.8,-52.02 329.12,-38.75 312.59,-30.2 293.29,-24.25 275.41,-20.14"/>
<polygon fill="#9a32cd" stroke="#9a32cd" points="391.36,-93.07 400.7,-98.07 396.52,-88.34 391.36,-93.07"/>
</a>
</g>
<text xml:space="preserve" text-anchor="start" x="378.92" y="-53.38" font-family="Helvetica,sans-Serif" font-size="10.00" fill="grey">ast</text>
</g>
<!-- Node6&#45;&gt;Node6 -->
<g id="edge8_Node000006_Node000006" class="edge">
<title>Node6&#45;&gt;Node6</title>
<g id="a_edge8_Node000006_Node000006"><a xlink:title=" ">
<path fill="none" stroke="#9a32cd" stroke-dasharray="5,2" d="M459.12,-116.54C463.21,-115.14 465.75,-112.96 465.75,-110 465.75,-104.89 458.14,-102.09 448.08,-101.61"/>
<polygon fill="#9a32cd" stroke="#9a32cd" points="458.86,-113.04 449.58,-118.14 460.02,-119.94 458.86,-113.04"/>
</a>
</g>
<text xml:space="preserve" text-anchor="start" x="468.75" y="-115.25" font-family="Helvetica,sans-Serif" font-size="10.00" fill="grey">child</text>
<text xml:space="preserve" text-anchor="start" x="468.75" y="-98.5" font-family="Helvetica,sans-Serif" font-size="10.00" fill="grey">next</text>
</g>
</g>
</svg>

<g id="navigator" transform="translate(0 0)" fill="#404254">
  <rect fill="#f2f5e9" fill-opacity="0.5" stroke="#606060" stroke-width=".5" x="0" y="0" width="60" height="60"/>
  <use id="zoomplus" xlink:href="#zoomPlus" x="17" y="9" onmousedown="handleZoom(evt,'in')"/>
  <use id="zoomminus" xlink:href="#zoomMin" x="42" y="9" onmousedown="handleZoom(evt,'out')"/>
  <use id="reset" xlink:href="#resetDef" x="30" y="36" onmousedown="handleReset()"/>
   <use id="arrowup" xlink:href="#arrowUp" x="0" y="0" onmousedown="handlePan(0,-1)"/>
  <use id="arrowright" xlink:href="#arrowRight" x="0" y="0" onmousedown="handlePan(1,0)"/>
  <use id="arrowdown" xlink:href="#arrowDown" x="0" y="0" onmousedown="handlePan(0,1)"/>
  <use id="arrowleft" xlink:href="#arrowLeft" x="0" y="0" onmousedown="handlePan(-1,0)"/>
</g>
<svg viewBox="0 0 15 15" width="100%" height="30px" preserveAspectRatio="xMaxYMin meet">
 <g id="arrow_out" transform="scale(0.3 0.3)">
  <a xlink:href="structm__eff__parsing__state__coll__graph_org.svg" target="_base">
   <rect id="button" ry="5" rx="5" y="6" x="6" height="38" width="38"
        fill="#f2f5e9" fill-opacity="0.5" stroke="#606060" stroke-width="1.0"/>
   <path id="arrow"
     d="M 11.500037,31.436501 C 11.940474,20.09759 22.043105,11.32322 32.158766,21.979434 L 37.068811,17.246167 C 37.068811,17.246167 37.088388,32 37.088388,32 L 22.160133,31.978069 C 22.160133,31.978069 26.997745,27.140456 26.997745,27.140456 C 18.528582,18.264221 13.291696,25.230495 11.500037,31.436501 z"
     style="fill:#404040;"/>
  </a>
 </g>
</svg>

<style type='text/css'>
<![CDATA[
[data-mouse-over-selected='false'] { opacity: 0.7; }
[data-mouse-over-selected='true']  { opacity: 1.0; }
]]>
</style>
<script type="application/ecmascript"><![CDATA[
document.addEventListener('DOMContentLoaded', (event) => {
  highlightEdges();
  highlightAdjacentNodes();
});
]]></script>
</svg>
