<?xml version="1.0" encoding="UTF-8" standalone="no"?>
<!DOCTYPE svg PUBLIC "-//W3C//DTD SVG 1.1//EN"
 "http://www.w3.org/Graphics/SVG/1.1/DTD/svg11.dtd">
<!-- Generated by graphviz version 13.1.2 (20250808.2320)
 -->
<!-- Title: kest_preset_settings_str Pages: 1 -->
<svg width="643pt" height="413pt"
 viewBox="0.00 0.00 643.00 413.00" xmlns="http://www.w3.org/2000/svg" xmlns:xlink="http://www.w3.org/1999/xlink">
<g id="graph0" class="graph" transform="scale(1 1) rotate(0) translate(4 408.5)">
<title>kest_preset_settings_str</title>
<!-- Node1 -->
<g id="Node000001" class="node">
<title>Node1</title>
<g id="a_Node000001"><a xlink:title=" ">
<polygon fill="#999999" stroke="#666666" points="407.89,-20.75 273.39,-20.75 273.39,0 407.89,0 407.89,-20.75"/>
<text xml:space="preserve" text-anchor="middle" x="340.64" y="-7.25" font-family="Helvetica,sans-Serif" font-size="10.00">kest_preset_settings_str</text>
</a>
</g>
</g>
<!-- Node2 -->
<g id="Node000002" class="node">
<title>Node2</title>
<g id="a_Node000002"><a xlink:href="structkest__parameter__widget.html" target="_top" xlink:title=" ">
<polygon fill="white" stroke="#666666" points="406.02,-96.25 275.27,-96.25 275.27,-75.5 406.02,-75.5 406.02,-96.25"/>
<text xml:space="preserve" text-anchor="middle" x="340.64" y="-82.75" font-family="Helvetica,sans-Serif" font-size="10.00">kest_parameter_widget</text>
</a>
</g>
</g>
<!-- Node2&#45;&gt;Node1 -->
<g id="edge1_Node000001_Node000002" class="edge">
<title>Node2&#45;&gt;Node1</title>
<g id="a_edge1_Node000001_Node000002"><a xlink:title=" ">
<path fill="none" stroke="#9a32cd" stroke-dasharray="5,2" d="M340.64,-63.76C340.64,-49.76 340.64,-32.05 340.64,-21.22"/>
<polygon fill="#9a32cd" stroke="#9a32cd" points="337.14,-63.75 340.64,-73.75 344.14,-63.75 337.14,-63.75"/>
</a>
</g>
<text xml:space="preserve" text-anchor="start" x="343.64" y="-45" font-family="Helvetica,sans-Serif" font-size="10.00" fill="grey">volume_widget</text>
</g>
<!-- Node3 -->
<g id="Node000003" class="node">
<title>Node3</title>
<g id="a_Node000003"><a xlink:href="structkest__parameter__id.html" target="_top" xlink:title=" ">
<polygon fill="white" stroke="#666666" points="394.02,-404.5 287.27,-404.5 287.27,-383.75 394.02,-383.75 394.02,-404.5"/>
<text xml:space="preserve" text-anchor="middle" x="340.64" y="-391" font-family="Helvetica,sans-Serif" font-size="10.00">kest_parameter_id</text>
</a>
</g>
</g>
<!-- Node3&#45;&gt;Node2 -->
<g id="edge2_Node000002_Node000003" class="edge">
<title>Node3&#45;&gt;Node2</title>
<g id="a_edge2_Node000002_Node000003"><a xlink:title=" ">
<path fill="none" stroke="#9a32cd" stroke-dasharray="5,2" d="M340.64,-371.82C340.64,-311.17 340.64,-139.17 340.64,-96.53"/>
<polygon fill="#9a32cd" stroke="#9a32cd" points="337.14,-371.77 340.64,-381.77 344.14,-371.77 337.14,-371.77"/>
</a>
</g>
<text xml:space="preserve" text-anchor="start" x="343.64" y="-261" font-family="Helvetica,sans-Serif" font-size="10.00" fill="grey">id</text>
</g>
<!-- Node4 -->
<g id="Node000004" class="node">
<title>Node4</title>
<g id="a_Node000004"><a xlink:href="structkest__parameter.html" target="_top" xlink:title=" ">
<polygon fill="white" stroke="#666666" points="234.89,-312.25 142.39,-312.25 142.39,-291.5 234.89,-291.5 234.89,-312.25"/>
<text xml:space="preserve" text-anchor="middle" x="188.64" y="-298.75" font-family="Helvetica,sans-Serif" font-size="10.00">kest_parameter</text>
</a>
</g>
</g>
<!-- Node3&#45;&gt;Node4 -->
<g id="edge10_Node000004_Node000003" class="edge">
<title>Node3&#45;&gt;Node4</title>
<g id="a_edge10_Node000004_Node000003"><a xlink:title=" ">
<path fill="none" stroke="#9a32cd" stroke-dasharray="5,2" d="M314.28,-377.47C282.89,-358.84 231.43,-328.28 205.18,-312.69"/>
<polygon fill="#9a32cd" stroke="#9a32cd" points="312.4,-380.43 322.78,-382.52 315.97,-374.41 312.4,-380.43"/>
</a>
</g>
<text xml:space="preserve" text-anchor="start" x="294.48" y="-344.88" font-family="Helvetica,sans-Serif" font-size="10.00" fill="grey">id</text>
</g>
<!-- Node4&#45;&gt;Node2 -->
<g id="edge3_Node000002_Node000004" class="edge">
<title>Node4&#45;&gt;Node2</title>
<g id="a_edge3_Node000002_Node000004"><a xlink:title=" ">
<path fill="none" stroke="#9a32cd" stroke-dasharray="5,2" d="M225.72,-285.63C231.21,-282.22 236.43,-278.2 240.64,-273.5 279.76,-229.93 259.7,-201.62 289.14,-151 301.35,-130.02 320.05,-108.62 331.24,-96.62"/>
<polygon fill="#9a32cd" stroke="#9a32cd" points="224.14,-282.5 217.04,-290.37 227.5,-288.65 224.14,-282.5"/>
</a>
</g>
<text xml:space="preserve" text-anchor="start" x="292.14" y="-190.75" font-family="Helvetica,sans-Serif" font-size="10.00" fill="grey">param</text>
</g>
<!-- Node6 -->
<g id="Node000006" class="node">
<title>Node6</title>
<g id="a_Node000006"><a xlink:href="structkest__effect.html" target="_top" xlink:title=" ">
<polygon fill="#fff0f0" stroke="red" points="102.64,-96.25 32.64,-96.25 32.64,-75.5 102.64,-75.5 102.64,-96.25"/>
<text xml:space="preserve" text-anchor="middle" x="67.64" y="-82.75" font-family="Helvetica,sans-Serif" font-size="10.00">kest_effect</text>
</a>
</g>
</g>
<!-- Node4&#45;&gt;Node6 -->
<g id="edge7_Node000006_Node000004" class="edge">
<title>Node4&#45;&gt;Node6</title>
<g id="a_edge7_Node000006_Node000004"><a xlink:title=" ">
<path fill="none" stroke="#9a32cd" stroke-dasharray="5,2" d="M143.77,-287C119.6,-277.05 91.72,-261.05 76.64,-236.75 48.33,-191.12 59.75,-121.88 65.3,-96.57"/>
<polygon fill="#9a32cd" stroke="#9a32cd" points="142.2,-290.15 152.79,-290.48 144.72,-283.61 142.2,-290.15"/>
</a>
</g>
<text xml:space="preserve" text-anchor="start" x="79.64" y="-224.25" font-family="Helvetica,sans-Serif" font-size="10.00" fill="grey">band_center</text>
<text xml:space="preserve" text-anchor="start" x="79.64" y="-207.5" font-family="Helvetica,sans-Serif" font-size="10.00" fill="grey">band_hp_cutoff</text>
<text xml:space="preserve" text-anchor="start" x="79.64" y="-190.75" font-family="Helvetica,sans-Serif" font-size="10.00" fill="grey">band_lp_cutoff</text>
<text xml:space="preserve" text-anchor="start" x="79.64" y="-174" font-family="Helvetica,sans-Serif" font-size="10.00" fill="grey">band_width</text>
<text xml:space="preserve" text-anchor="start" x="79.64" y="-157.25" font-family="Helvetica,sans-Serif" font-size="10.00" fill="grey">wet_mix</text>
</g>
<!-- Node11 -->
<g id="Node000011" class="node">
<title>Node11</title>
<g id="a_Node000011"><a xlink:href="structkest__preset.html" target="_top" xlink:title=" ">
<polygon fill="#fff0f0" stroke="red" points="238.77,-204.25 166.52,-204.25 166.52,-183.5 238.77,-183.5 238.77,-204.25"/>
<text xml:space="preserve" text-anchor="middle" x="202.64" y="-190.75" font-family="Helvetica,sans-Serif" font-size="10.00">kest_preset</text>
</a>
</g>
</g>
<!-- Node4&#45;&gt;Node11 -->
<g id="edge9_Node000011_Node000004" class="edge">
<title>Node4&#45;&gt;Node11</title>
<g id="a_edge9_Node000011_Node000004"><a xlink:title=" ">
<path fill="none" stroke="#9a32cd" stroke-dasharray="5,2" d="M191.41,-279.93C194.42,-257.13 199.11,-221.65 201.35,-204.63"/>
<polygon fill="#9a32cd" stroke="#9a32cd" points="187.97,-279.22 190.13,-289.59 194.91,-280.14 187.97,-279.22"/>
</a>
</g>
<text xml:space="preserve" text-anchor="start" x="197.39" y="-261" font-family="Helvetica,sans-Serif" font-size="10.00" fill="grey">volume</text>
</g>
<!-- Node5 -->
<g id="Node000005" class="node">
<title>Node5</title>
<g id="a_Node000005"><a xlink:href="structkest__expression.html" target="_top" xlink:title=" ">
<polygon fill="white" stroke="#666666" points="196.02,-404.5 101.27,-404.5 101.27,-383.75 196.02,-383.75 196.02,-404.5"/>
<text xml:space="preserve" text-anchor="middle" x="148.64" y="-391" font-family="Helvetica,sans-Serif" font-size="10.00">kest_expression</text>
</a>
</g>
</g>
<!-- Node5&#45;&gt;Node4 -->
<g id="edge4_Node000004_Node000005" class="edge">
<title>Node5&#45;&gt;Node4</title>
<g id="a_edge4_Node000004_Node000005"><a xlink:title=" ">
<path fill="none" stroke="#9a32cd" stroke-dasharray="5,2" d="M157.52,-373.09C165.83,-354.35 177.88,-327.17 184.27,-312.74"/>
<polygon fill="#9a32cd" stroke="#9a32cd" points="154.39,-371.52 153.54,-382.08 160.79,-374.36 154.39,-371.52"/>
</a>
</g>
<text xml:space="preserve" text-anchor="start" x="178.7" y="-353.25" font-family="Helvetica,sans-Serif" font-size="10.00" fill="grey">max_expr</text>
<text xml:space="preserve" text-anchor="start" x="178.7" y="-336.5" font-family="Helvetica,sans-Serif" font-size="10.00" fill="grey">min_expr</text>
</g>
<!-- Node5&#45;&gt;Node5 -->
<g id="edge5_Node000005_Node000005" class="edge">
<title>Node5&#45;&gt;Node5</title>
<g id="a_edge5_Node000005_Node000005"><a xlink:title=" ">
<path fill="none" stroke="#9a32cd" stroke-dasharray="5,2" d="M207.42,-400.42C211.52,-398.98 214.02,-396.89 214.02,-394.12 214.02,-389.35 206.55,-386.55 196.24,-385.73"/>
<polygon fill="#9a32cd" stroke="#9a32cd" points="206.91,-396.96 197.73,-402.24 208.2,-403.84 206.91,-396.96"/>
</a>
</g>
<text xml:space="preserve" text-anchor="start" x="217.02" y="-391" font-family="Helvetica,sans-Serif" font-size="10.00" fill="grey">sub_exprs</text>
</g>
<!-- Node6&#45;&gt;Node4 -->
<g id="edge6_Node000004_Node000006" class="edge">
<title>Node6&#45;&gt;Node4</title>
<g id="a_edge6_Node000004_Node000006"><a xlink:title=" ">
<path fill="none" stroke="#9a32cd" stroke-dasharray="5,2" d="M46.18,-104C33.33,-115.69 18.17,-132.39 11.14,-151 -2.32,-186.65 -4.71,-202.09 11.14,-236.75 33.01,-284.57 97.23,-297.64 142.1,-300.73"/>
<polygon fill="#9a32cd" stroke="#9a32cd" points="48.16,-106.92 53.43,-97.73 43.58,-101.62 48.16,-106.92"/>
</a>
</g>
<text xml:space="preserve" text-anchor="start" x="14.14" y="-190.75" font-family="Helvetica,sans-Serif" font-size="10.00" fill="grey">effect</text>
</g>
<!-- Node11&#45;&gt;Node1 -->
<g id="edge19_Node000001_Node000011" class="edge">
<title>Node11&#45;&gt;Node1</title>
<g id="a_edge19_Node000001_Node000011"><a xlink:title=" ">
<path fill="none" stroke="#9a32cd" stroke-dasharray="5,2" d="M201.42,-171.86C201.09,-155.75 201.95,-133.16 207.64,-114.25 213.37,-95.23 215.88,-89.57 229.89,-75.5 254.83,-50.48 291.51,-31.8 315.73,-21.24"/>
<polygon fill="#9a32cd" stroke="#9a32cd" points="197.91,-171.82 201.81,-181.68 204.91,-171.54 197.91,-171.82"/>
</a>
</g>
<text xml:space="preserve" text-anchor="start" x="232.89" y="-82.75" font-family="Helvetica,sans-Serif" font-size="10.00" fill="grey">preset</text>
</g>
<!-- Node11&#45;&gt;Node2 -->
<g id="edge11_Node000002_Node000011" class="edge">
<title>Node11&#45;&gt;Node2</title>
<g id="a_edge11_Node000002_Node000011"><a xlink:title=" ">
<path fill="none" stroke="#9a32cd" stroke-dasharray="5,2" d="M202.68,-171.63C203.89,-153.87 208.51,-129.12 223.89,-114.25 231.75,-106.65 252.8,-100.68 274.9,-96.28"/>
<polygon fill="#9a32cd" stroke="#9a32cd" points="199.18,-171.47 202.35,-181.58 206.18,-171.7 199.18,-171.47"/>
</a>
</g>
<text xml:space="preserve" text-anchor="start" x="226.89" y="-120.5" font-family="Helvetica,sans-Serif" font-size="10.00" fill="grey">preset</text>
</g>
<!-- Node11&#45;&gt;Node6 -->
<g id="edge8_Node000006_Node000011" class="edge">
<title>Node11&#45;&gt;Node6</title>
<g id="a_edge8_Node000006_Node000011"><a xlink:title=" ">
<path fill="none" stroke="#9a32cd" stroke-dasharray="5,2" d="M182.6,-175.69C173.54,-168.02 162.64,-158.95 152.64,-151 127.76,-131.21 97.94,-109.07 81.05,-96.67"/>
<polygon fill="#9a32cd" stroke="#9a32cd" points="180.22,-178.27 190.11,-182.08 184.76,-172.93 180.22,-178.27"/>
</a>
</g>
<text xml:space="preserve" text-anchor="start" x="130.24" y="-120.5" font-family="Helvetica,sans-Serif" font-size="10.00" fill="grey">preset</text>
</g>
<!-- Node16 -->
<g id="Node000016" class="node">
<title>Node16</title>
<g id="a_Node000016"><a xlink:href="structkest__ui__page.html" target="_top" xlink:title=" ">
<polygon fill="white" stroke="#666666" points="448.52,-204.25 368.77,-204.25 368.77,-183.5 448.52,-183.5 448.52,-204.25"/>
<text xml:space="preserve" text-anchor="middle" x="408.64" y="-190.75" font-family="Helvetica,sans-Serif" font-size="10.00">kest_ui_page</text>
</a>
</g>
</g>
<!-- Node16&#45;&gt;Node2 -->
<g id="edge12_Node000002_Node000016" class="edge">
<title>Node16&#45;&gt;Node2</title>
<g id="a_edge12_Node000002_Node000016"><a xlink:title=" ">
<path fill="none" stroke="#9a32cd" stroke-dasharray="5,2" d="M396.21,-173.49C381.64,-150.78 358.07,-114.05 346.9,-96.63"/>
<polygon fill="#9a32cd" stroke="#9a32cd" points="393.2,-175.29 401.55,-181.82 399.1,-171.51 393.2,-175.29"/>
</a>
</g>
<text xml:space="preserve" text-anchor="start" x="371.55" y="-120.5" font-family="Helvetica,sans-Serif" font-size="10.00" fill="grey">parent</text>
</g>
<!-- Node16&#45;&gt;Node16 -->
<g id="edge16_Node000016_Node000016" class="edge">
<title>Node16&#45;&gt;Node16</title>
<g id="a_edge16_Node000016_Node000016"><a xlink:title=" ">
<path fill="none" stroke="#9a32cd" stroke-dasharray="5,2" d="M439.89,-206.81C454.13,-208.14 466.52,-203.82 466.52,-193.88 466.52,-181.39 447.02,-177.78 428.81,-183.05"/>
<polygon fill="#9a32cd" stroke="#9a32cd" points="440.78,-203.42 430.3,-204.99 439.46,-210.3 440.78,-203.42"/>
</a>
</g>
<text xml:space="preserve" text-anchor="start" x="469.52" y="-190.75" font-family="Helvetica,sans-Serif" font-size="10.00" fill="grey">parent</text>
</g>
<!-- Node17 -->
<g id="Node000017" class="node">
<title>Node17</title>
<g id="a_Node000017"><a xlink:href="structkest__ui__page__panel.html" target="_top" xlink:title=" ">
<polygon fill="white" stroke="#666666" points="610.64,-312.25 498.64,-312.25 498.64,-291.5 610.64,-291.5 610.64,-312.25"/>
<text xml:space="preserve" text-anchor="middle" x="554.64" y="-298.75" font-family="Helvetica,sans-Serif" font-size="10.00">kest_ui_page_panel</text>
</a>
</g>
</g>
<!-- Node17&#45;&gt;Node16 -->
<g id="edge13_Node000016_Node000017" class="edge">
<title>Node17&#45;&gt;Node16</title>
<g id="a_edge13_Node000016_Node000017"><a xlink:title=" ">
<path fill="none" stroke="#9a32cd" stroke-dasharray="5,2" d="M532.07,-284.48C501.3,-262.14 447.16,-222.84 422.08,-204.63"/>
<polygon fill="#9a32cd" stroke="#9a32cd" points="529.8,-287.16 539.94,-290.2 533.91,-281.5 529.8,-287.16"/>
</a>
</g>
<text xml:space="preserve" text-anchor="start" x="518.49" y="-261" font-family="Helvetica,sans-Serif" font-size="10.00" fill="grey">panel</text>
</g>
<!-- Node18 -->
<g id="Node000018" class="node">
<title>Node18</title>
<g id="a_Node000018"><a xlink:href="structkest__button.html" target="_top" xlink:title=" ">
<polygon fill="white" stroke="#666666" points="543.14,-404.5 470.14,-404.5 470.14,-383.75 543.14,-383.75 543.14,-404.5"/>
<text xml:space="preserve" text-anchor="middle" x="506.64" y="-391" font-family="Helvetica,sans-Serif" font-size="10.00">kest_button</text>
</a>
</g>
</g>
<!-- Node18&#45;&gt;Node16 -->
<g id="edge17_Node000016_Node000018" class="edge">
<title>Node18&#45;&gt;Node16</title>
<g id="a_edge17_Node000016_Node000018"><a xlink:title=" ">
<path fill="none" stroke="#9a32cd" stroke-dasharray="5,2" d="M475.41,-377.81C451.61,-364.24 420.59,-341.95 406.39,-312.25 388.99,-275.84 399.85,-225.54 405.67,-204.61"/>
<polygon fill="#9a32cd" stroke="#9a32cd" points="473.64,-380.83 484.1,-382.54 476.99,-374.69 473.64,-380.83"/>
</a>
</g>
<text xml:space="preserve" text-anchor="start" x="409.39" y="-298.75" font-family="Helvetica,sans-Serif" font-size="10.00" fill="grey">bottom_buttons</text>
</g>
<!-- Node18&#45;&gt;Node17 -->
<g id="edge14_Node000017_Node000018" class="edge">
<title>Node18&#45;&gt;Node17</title>
<g id="a_edge14_Node000017_Node000018"><a xlink:title=" ">
<path fill="none" stroke="#9a32cd" stroke-dasharray="5,2" d="M517.16,-373.35C527.13,-354.61 541.69,-327.24 549.4,-312.74"/>
<polygon fill="#9a32cd" stroke="#9a32cd" points="514.1,-371.66 512.49,-382.13 520.28,-374.94 514.1,-371.66"/>
</a>
</g>
<text xml:space="preserve" text-anchor="start" x="542.12" y="-353.25" font-family="Helvetica,sans-Serif" font-size="10.00" fill="grey">lb</text>
<text xml:space="preserve" text-anchor="start" x="542.12" y="-336.5" font-family="Helvetica,sans-Serif" font-size="10.00" fill="grey">rb</text>
</g>
<!-- Node18&#45;&gt;Node18 -->
<g id="edge15_Node000018_Node000018" class="edge">
<title>Node18&#45;&gt;Node18</title>
<g id="a_edge15_Node000018_Node000018"><a xlink:title=" ">
<path fill="none" stroke="#9a32cd" stroke-dasharray="5,2" d="M554.86,-400.73C558.74,-399.29 561.14,-397.09 561.14,-394.12 561.14,-388.85 553.55,-385.99 543.58,-385.54"/>
<polygon fill="#9a32cd" stroke="#9a32cd" points="554.31,-397.28 545.07,-402.45 555.52,-404.17 554.31,-397.28"/>
</a>
</g>
<text xml:space="preserve" text-anchor="start" x="564.14" y="-391" font-family="Helvetica,sans-Serif" font-size="10.00" fill="grey">sub_buttons</text>
</g>
<!-- Node19 -->
<g id="Node000019" class="node">
<title>Node19</title>
<g id="a_Node000019"><a xlink:href="structkest__representation.html" target="_top" xlink:title="A system for delegating calls for thread safety/ownership reasons. Due to be deprecated bc I realised...">
<polygon fill="white" stroke="#666666" points="635.02,-204.25 522.27,-204.25 522.27,-183.5 635.02,-183.5 635.02,-204.25"/>
<text xml:space="preserve" text-anchor="middle" x="578.64" y="-190.75" font-family="Helvetica,sans-Serif" font-size="10.00">kest_representation</text>
</a>
</g>
</g>
<!-- Node19&#45;&gt;Node1 -->
<g id="edge20_Node000001_Node000019" class="edge">
<title>Node19&#45;&gt;Node1</title>
<g id="a_edge20_Node000001_Node000019"><a xlink:title=" ">
<path fill="none" stroke="#9a32cd" stroke-dasharray="5,2" d="M565.01,-174.18C540.59,-141.98 486.25,-75.93 425.64,-38.75 413.22,-31.13 398.46,-25.41 384.76,-21.23"/>
<polygon fill="#9a32cd" stroke="#9a32cd" points="562.17,-176.22 570.95,-182.15 567.78,-172.04 562.17,-176.22"/>
</a>
</g>
<text xml:space="preserve" text-anchor="start" x="497.97" y="-82.75" font-family="Helvetica,sans-Serif" font-size="10.00" fill="grey">rep</text>
</g>
<!-- Node19&#45;&gt;Node2 -->
<g id="edge18_Node000002_Node000019" class="edge">
<title>Node19&#45;&gt;Node2</title>
<g id="a_edge18_Node000002_Node000019"><a xlink:title=" ">
<path fill="none" stroke="#9a32cd" stroke-dasharray="5,2" d="M555.84,-176.74C543.43,-168.4 527.6,-158.43 512.64,-151 465.69,-127.67 408.06,-107.85 372.86,-96.66"/>
<polygon fill="#9a32cd" stroke="#9a32cd" points="553.5,-179.38 563.73,-182.15 557.46,-173.61 553.5,-179.38"/>
</a>
</g>
<text xml:space="preserve" text-anchor="start" x="474.4" y="-120.5" font-family="Helvetica,sans-Serif" font-size="10.00" fill="grey">rep</text>
</g>
</g>
</svg>
