<?xml version="1.0" encoding="UTF-8" standalone="no"?>
<!DOCTYPE svg PUBLIC "-//W3C//DTD SVG 1.1//EN"
 "http://www.w3.org/Graphics/SVG/1.1/DTD/svg11.dtd">
<!-- Generated by graphviz version 13.1.2 (20250808.2320)
 -->
<!-- Title: waveshare_dsi_touch_5_a.h Pages: 1 -->
<svg width="3979pt" height="155pt"
 viewBox="0.00 0.00 3979.00 155.00" xmlns="http://www.w3.org/2000/svg" xmlns:xlink="http://www.w3.org/1999/xlink">
<g id="graph0" class="graph" transform="scale(1 1) rotate(0) translate(4 151)">
<title>waveshare_dsi_touch_5_a.h</title>
<!-- Node1 -->
<g id="Node000001" class="node">
<title>Node1</title>
<g id="a_Node000001"><a xlink:title=" ">
<polygon fill="#999999" stroke="#666666" points="2050.75,-147 1929.75,-147 1929.75,-113.5 2050.75,-113.5 2050.75,-147"/>
<text xml:space="preserve" text-anchor="start" x="1937.75" y="-133.5" font-family="Helvetica,sans-Serif" font-size="10.00">waveshare_dsi_touch</text>
<text xml:space="preserve" text-anchor="middle" x="1990.25" y="-120.75" font-family="Helvetica,sans-Serif" font-size="10.00">_5_a.h</text>
</a>
</g>
</g>
<!-- Node2 -->
<g id="Node000002" class="node">
<title>Node2</title>
<g id="a_Node000002"><a xlink:href="m__int_8h.html" target="_top" xlink:title=" ">
<polygon fill="#fff0f0" stroke="red" points="2016.62,-77.5 1963.88,-77.5 1963.88,-56.75 2016.62,-56.75 2016.62,-77.5"/>
<text xml:space="preserve" text-anchor="middle" x="1990.25" y="-64" font-family="Helvetica,sans-Serif" font-size="10.00">m_int.h</text>
</a>
</g>
</g>
<!-- Node1&#45;&gt;Node2 -->
<g id="edge1_Node000001_Node000002" class="edge">
<title>Node1&#45;&gt;Node2</title>
<g id="a_edge1_Node000001_Node000002"><a xlink:title=" ">
<path fill="none" stroke="#63b8ff" d="M1990.25,-101.69C1990.25,-93.21 1990.25,-84.42 1990.25,-77.97"/>
<polygon fill="#63b8ff" stroke="#63b8ff" points="1986.75,-101.68 1990.25,-111.68 1993.75,-101.68 1986.75,-101.68"/>
</a>
</g>
</g>
<!-- Node3 -->
<g id="Node000003" class="node">
<title>Node3</title>
<g id="a_Node000003"><a xlink:href="m__alloc_8c.html" target="_top" xlink:title=" ">
<polygon fill="white" stroke="#666666" points="62.5,-20.75 0,-20.75 0,0 62.5,0 62.5,-20.75"/>
<text xml:space="preserve" text-anchor="middle" x="31.25" y="-7.25" font-family="Helvetica,sans-Serif" font-size="10.00">m_alloc.c</text>
</a>
</g>
</g>
<!-- Node2&#45;&gt;Node3 -->
<g id="edge2_Node000002_Node000003" class="edge">
<title>Node2&#45;&gt;Node3</title>
<g id="a_edge2_Node000002_Node000003"><a xlink:title=" ">
<path fill="none" stroke="#63b8ff" d="M1952.08,-66.3C1716.16,-67.2 454.25,-69.63 71.25,-20.75 68.42,-20.39 65.5,-19.91 62.58,-19.36"/>
<polygon fill="#63b8ff" stroke="#63b8ff" points="1951.94,-69.8 1961.93,-66.26 1951.91,-62.8 1951.94,-69.8"/>
</a>
</g>
</g>
<!-- Node4 -->
<g id="Node000004" class="node">
<title>Node4</title>
<g id="a_Node000004"><a xlink:href="m__asm__parser_8c.html" target="_top" xlink:title=" ">
<polygon fill="white" stroke="#666666" points="176.38,-20.75 80.12,-20.75 80.12,0 176.38,0 176.38,-20.75"/>
<text xml:space="preserve" text-anchor="middle" x="128.25" y="-7.25" font-family="Helvetica,sans-Serif" font-size="10.00">m_asm_parser.c</text>
</a>
</g>
</g>
<!-- Node2&#45;&gt;Node4 -->
<g id="edge3_Node000002_Node000004" class="edge">
<title>Node2&#45;&gt;Node4</title>
<g id="a_edge3_Node000002_Node000004"><a xlink:title=" ">
<path fill="none" stroke="#63b8ff" d="M1952.26,-65.88C1725.24,-64.34 545.69,-54.76 185.25,-20.75 182.45,-20.49 179.59,-20.17 176.7,-19.81"/>
<polygon fill="#63b8ff" stroke="#63b8ff" points="1951.98,-69.38 1962.01,-65.95 1952.03,-62.38 1951.98,-69.38"/>
</a>
</g>
</g>
<!-- Node5 -->
<g id="Node000005" class="node">
<title>Node5</title>
<g id="a_Node000005"><a xlink:href="m__block_8c.html" target="_top" xlink:title=" ">
<polygon fill="white" stroke="#666666" points="260,-20.75 194.5,-20.75 194.5,0 260,0 260,-20.75"/>
<text xml:space="preserve" text-anchor="middle" x="227.25" y="-7.25" font-family="Helvetica,sans-Serif" font-size="10.00">m_block.c</text>
</a>
</g>
</g>
<!-- Node2&#45;&gt;Node5 -->
<g id="edge4_Node000002_Node000005" class="edge">
<title>Node2&#45;&gt;Node5</title>
<g id="a_edge4_Node000002_Node000005"><a xlink:title=" ">
<path fill="none" stroke="#63b8ff" d="M1952.27,-66.12C1731.47,-65.95 610.95,-62.99 269.25,-20.75 266.28,-20.38 263.22,-19.9 260.16,-19.35"/>
<polygon fill="#63b8ff" stroke="#63b8ff" points="1952.02,-69.62 1962.02,-66.13 1952.03,-62.62 1952.02,-69.62"/>
</a>
</g>
</g>
<!-- Node6 -->
<g id="Node000006" class="node">
<title>Node6</title>
<g id="a_Node000006"><a xlink:href="m__bump__arena_8c.html" target="_top" xlink:title=" ">
<polygon fill="white" stroke="#666666" points="378.25,-20.75 278.25,-20.75 278.25,0 378.25,0 378.25,-20.75"/>
<text xml:space="preserve" text-anchor="middle" x="328.25" y="-7.25" font-family="Helvetica,sans-Serif" font-size="10.00">m_bump_arena.c</text>
</a>
</g>
</g>
<!-- Node2&#45;&gt;Node6 -->
<g id="edge5_Node000002_Node000006" class="edge">
<title>Node2&#45;&gt;Node6</title>
<g id="a_edge5_Node000002_Node000006"><a xlink:title=" ">
<path fill="none" stroke="#63b8ff" d="M1952.28,-65.72C1740.7,-63.35 705.24,-50.39 387.25,-20.75 384.46,-20.49 381.61,-20.18 378.73,-19.84"/>
<polygon fill="#63b8ff" stroke="#63b8ff" points="1952.11,-69.22 1962.15,-65.83 1952.19,-62.22 1952.11,-69.22"/>
</a>
</g>
</g>
<!-- Node7 -->
<g id="Node000007" class="node">
<title>Node7</title>
<g id="a_Node000007"><a xlink:href="m__button_8c.html" target="_top" xlink:title=" ">
<polygon fill="white" stroke="#666666" points="466.62,-20.75 395.88,-20.75 395.88,0 466.62,0 466.62,-20.75"/>
<text xml:space="preserve" text-anchor="middle" x="431.25" y="-7.25" font-family="Helvetica,sans-Serif" font-size="10.00">m_button.c</text>
</a>
</g>
</g>
<!-- Node2&#45;&gt;Node7 -->
<g id="edge6_Node000002_Node000007" class="edge">
<title>Node2&#45;&gt;Node7</title>
<g id="a_edge6_Node000002_Node000007"><a xlink:title=" ">
<path fill="none" stroke="#63b8ff" d="M1952.09,-65.91C1746.98,-64.63 773.82,-56.73 475.25,-20.75 472.46,-20.41 469.58,-19.99 466.7,-19.5"/>
<polygon fill="#63b8ff" stroke="#63b8ff" points="1951.88,-69.41 1961.9,-65.97 1951.92,-62.41 1951.88,-69.41"/>
</a>
</g>
</g>
<!-- Node8 -->
<g id="Node000008" class="node">
<title>Node8</title>
<g id="a_Node000008"><a xlink:href="m__context_8c.html" target="_top" xlink:title=" ">
<polygon fill="white" stroke="#666666" points="560.25,-20.75 484.25,-20.75 484.25,0 560.25,0 560.25,-20.75"/>
<text xml:space="preserve" text-anchor="middle" x="522.25" y="-7.25" font-family="Helvetica,sans-Serif" font-size="10.00">m_context.c</text>
</a>
</g>
</g>
<!-- Node2&#45;&gt;Node8 -->
<g id="edge7_Node000002_Node000008" class="edge">
<title>Node2&#45;&gt;Node8</title>
<g id="a_edge7_Node000002_Node000008"><a xlink:title=" ">
<path fill="none" stroke="#63b8ff" d="M1951.99,-65.76C1754.44,-63.73 848.31,-52.82 569.25,-20.75 566.44,-20.43 563.55,-20.02 560.64,-19.57"/>
<polygon fill="#63b8ff" stroke="#63b8ff" points="1951.91,-69.26 1961.94,-65.86 1951.98,-62.26 1951.91,-69.26"/>
</a>
</g>
</g>
<!-- Node9 -->
<g id="Node000009" class="node">
<title>Node9</title>
<g id="a_Node000009"><a xlink:href="m__desktop_8c.html" target="_top" xlink:title=" ">
<polygon fill="white" stroke="#666666" points="656.38,-20.75 578.12,-20.75 578.12,0 656.38,0 656.38,-20.75"/>
<text xml:space="preserve" text-anchor="middle" x="617.25" y="-7.25" font-family="Helvetica,sans-Serif" font-size="10.00">m_desktop.c</text>
</a>
</g>
</g>
<!-- Node2&#45;&gt;Node9 -->
<g id="edge8_Node000002_Node000009" class="edge">
<title>Node2&#45;&gt;Node9</title>
<g id="a_edge8_Node000002_Node000009"><a xlink:title=" ">
<path fill="none" stroke="#63b8ff" d="M1952.19,-65.64C1763.19,-63.09 924.4,-50.31 665.25,-20.75 662.47,-20.43 659.6,-20.04 656.73,-19.6"/>
<polygon fill="#63b8ff" stroke="#63b8ff" points="1951.88,-69.13 1961.93,-65.77 1951.97,-62.13 1951.88,-69.13"/>
</a>
</g>
</g>
<!-- Node10 -->
<g id="Node000010" class="node">
<title>Node10</title>
<g id="a_Node000010"><a xlink:href="m__dict__extract_8c.html" target="_top" xlink:title=" ">
<polygon fill="white" stroke="#666666" points="771.75,-20.75 674.75,-20.75 674.75,0 771.75,0 771.75,-20.75"/>
<text xml:space="preserve" text-anchor="middle" x="723.25" y="-7.25" font-family="Helvetica,sans-Serif" font-size="10.00">m_dict_extract.c</text>
</a>
</g>
</g>
<!-- Node2&#45;&gt;Node10 -->
<g id="edge9_Node000002_Node000010" class="edge">
<title>Node2&#45;&gt;Node10</title>
<g id="a_edge9_Node000002_Node000010"><a xlink:title=" ">
<path fill="none" stroke="#63b8ff" d="M1952.61,-66.39C1803.67,-67.09 1241.17,-66.38 781.25,-20.75 778.31,-20.46 775.29,-20.11 772.24,-19.73"/>
<polygon fill="#63b8ff" stroke="#63b8ff" points="1952.3,-69.89 1962.28,-66.34 1952.26,-62.89 1952.3,-69.89"/>
</a>
</g>
</g>
<!-- Node11 -->
<g id="Node000011" class="node">
<title>Node11</title>
<g id="a_Node000011"><a xlink:href="m__dictionary_8c.html" target="_top" xlink:title=" ">
<polygon fill="white" stroke="#666666" points="876.5,-20.75 790,-20.75 790,0 876.5,0 876.5,-20.75"/>
<text xml:space="preserve" text-anchor="middle" x="833.25" y="-7.25" font-family="Helvetica,sans-Serif" font-size="10.00">m_dictionary.c</text>
</a>
</g>
</g>
<!-- Node2&#45;&gt;Node11 -->
<g id="edge10_Node000002_Node000011" class="edge">
<title>Node2&#45;&gt;Node11</title>
<g id="a_edge10_Node000002_Node000011"><a xlink:title=" ">
<path fill="none" stroke="#63b8ff" d="M1952.25,-66.4C1810.91,-67.05 1302.27,-65.89 886.25,-20.75 883.18,-20.42 880.03,-20.01 876.86,-19.57"/>
<polygon fill="#63b8ff" stroke="#63b8ff" points="1952.17,-69.9 1962.15,-66.35 1952.13,-62.9 1952.17,-69.9"/>
</a>
</g>
</g>
<!-- Node12 -->
<g id="Node000012" class="node">
<title>Node12</title>
<g id="a_Node000012"><a xlink:href="m__eff__desc_8c.html" target="_top" xlink:title=" ">
<polygon fill="white" stroke="#666666" points="975.5,-20.75 895,-20.75 895,0 975.5,0 975.5,-20.75"/>
<text xml:space="preserve" text-anchor="middle" x="935.25" y="-7.25" font-family="Helvetica,sans-Serif" font-size="10.00">m_eff_desc.c</text>
</a>
</g>
</g>
<!-- Node2&#45;&gt;Node12 -->
<g id="edge11_Node000002_Node000012" class="edge">
<title>Node2&#45;&gt;Node12</title>
<g id="a_edge11_Node000002_Node000012"><a xlink:title=" ">
<path fill="none" stroke="#63b8ff" d="M1952.62,-66.32C1819.81,-66.62 1360.82,-64.22 985.25,-20.75 982.18,-20.39 979.01,-19.96 975.84,-19.48"/>
<polygon fill="#63b8ff" stroke="#63b8ff" points="1952.24,-69.82 1962.23,-66.29 1952.22,-62.82 1952.24,-69.82"/>
</a>
</g>
</g>
<!-- Node13 -->
<g id="Node000013" class="node">
<title>Node13</title>
<g id="a_Node000013"><a xlink:href="m__eff__parser_8c.html" target="_top" xlink:title=" ">
<polygon fill="white" stroke="#666666" points="1082.62,-20.75 993.88,-20.75 993.88,0 1082.62,0 1082.62,-20.75"/>
<text xml:space="preserve" text-anchor="middle" x="1038.25" y="-7.25" font-family="Helvetica,sans-Serif" font-size="10.00">m_eff_parser.c</text>
</a>
</g>
</g>
<!-- Node2&#45;&gt;Node13 -->
<g id="edge12_Node000002_Node000013" class="edge">
<title>Node2&#45;&gt;Node13</title>
<g id="a_edge12_Node000002_Node000013"><a xlink:title=" ">
<path fill="none" stroke="#63b8ff" d="M1952.22,-65.9C1828.04,-64.8 1423.37,-58.36 1091.25,-20.75 1088.56,-20.45 1085.79,-20.09 1083.01,-19.7"/>
<polygon fill="#63b8ff" stroke="#63b8ff" points="1952.13,-69.4 1962.16,-65.98 1952.19,-62.4 1952.13,-69.4"/>
</a>
</g>
</g>
<!-- Node14 -->
<g id="Node000014" class="node">
<title>Node14</title>
<g id="a_Node000014"><a xlink:href="m__eff__section_8c.html" target="_top" xlink:title=" ">
<polygon fill="white" stroke="#666666" points="1193.88,-20.75 1100.62,-20.75 1100.62,0 1193.88,0 1193.88,-20.75"/>
<text xml:space="preserve" text-anchor="middle" x="1147.25" y="-7.25" font-family="Helvetica,sans-Serif" font-size="10.00">m_eff_section.c</text>
</a>
</g>
</g>
<!-- Node2&#45;&gt;Node14 -->
<g id="edge13_Node000002_Node000014" class="edge">
<title>Node2&#45;&gt;Node14</title>
<g id="a_edge13_Node000002_Node000014"><a xlink:title=" ">
<path fill="none" stroke="#63b8ff" d="M1952.5,-65.4C1838.88,-62.9 1490.26,-52.95 1203.25,-20.75 1200.31,-20.42 1197.29,-20.04 1194.25,-19.62"/>
<polygon fill="#63b8ff" stroke="#63b8ff" points="1952.08,-68.89 1962.15,-65.6 1952.23,-61.89 1952.08,-68.89"/>
</a>
</g>
</g>
<!-- Node15 -->
<g id="Node000015" class="node">
<title>Node15</title>
<g id="a_Node000015"><a xlink:href="m__effect_8c.html" target="_top" xlink:title=" ">
<polygon fill="white" stroke="#666666" points="1280.12,-20.75 1212.38,-20.75 1212.38,0 1280.12,0 1280.12,-20.75"/>
<text xml:space="preserve" text-anchor="middle" x="1246.25" y="-7.25" font-family="Helvetica,sans-Serif" font-size="10.00">m_effect.c</text>
</a>
</g>
</g>
<!-- Node2&#45;&gt;Node15 -->
<g id="edge14_Node000002_Node000015" class="edge">
<title>Node2&#45;&gt;Node15</title>
<g id="a_edge14_Node000002_Node000015"><a xlink:title=" ">
<path fill="none" stroke="#63b8ff" d="M1952.39,-65.67C1846.88,-63.96 1540.72,-56.1 1289.25,-20.75 1286.37,-20.35 1283.41,-19.86 1280.43,-19.31"/>
<polygon fill="#63b8ff" stroke="#63b8ff" points="1952.12,-69.16 1962.17,-65.82 1952.23,-62.16 1952.12,-69.16"/>
</a>
</g>
</g>
<!-- Node16 -->
<g id="Node000016" class="node">
<title>Node16</title>
<g id="a_Node000016"><a xlink:href="m__effect__init_8c.html" target="_top" xlink:title=" ">
<polygon fill="white" stroke="#666666" points="1386.62,-20.75 1297.88,-20.75 1297.88,0 1386.62,0 1386.62,-20.75"/>
<text xml:space="preserve" text-anchor="middle" x="1342.25" y="-7.25" font-family="Helvetica,sans-Serif" font-size="10.00">m_effect_init.c</text>
</a>
</g>
</g>
<!-- Node2&#45;&gt;Node16 -->
<g id="edge15_Node000002_Node000016" class="edge">
<title>Node2&#45;&gt;Node16</title>
<g id="a_edge15_Node000002_Node000016"><a xlink:title=" ">
<path fill="none" stroke="#63b8ff" d="M1952.3,-64.49C1857.97,-60.14 1605.39,-46.83 1396.25,-20.75 1393.23,-20.37 1390.12,-19.94 1386.99,-19.48"/>
<polygon fill="#63b8ff" stroke="#63b8ff" points="1951.86,-67.97 1962.01,-64.93 1952.17,-60.98 1951.86,-67.97"/>
</a>
</g>
</g>
<!-- Node17 -->
<g id="Node000017" class="node">
<title>Node17</title>
<g id="a_Node000017"><a xlink:href="m__effect__select_8c.html" target="_top" xlink:title=" ">
<polygon fill="white" stroke="#666666" points="1507.38,-20.75 1405.12,-20.75 1405.12,0 1507.38,0 1507.38,-20.75"/>
<text xml:space="preserve" text-anchor="middle" x="1456.25" y="-7.25" font-family="Helvetica,sans-Serif" font-size="10.00">m_effect_select.c</text>
</a>
</g>
</g>
<!-- Node2&#45;&gt;Node17 -->
<g id="edge16_Node000002_Node000017" class="edge">
<title>Node2&#45;&gt;Node17</title>
<g id="a_edge16_Node000002_Node000017"><a xlink:title=" ">
<path fill="none" stroke="#63b8ff" d="M1952.44,-63.27C1872,-57.04 1678.07,-41.12 1516.25,-20.75 1513.43,-20.39 1510.53,-20.01 1507.61,-19.61"/>
<polygon fill="#63b8ff" stroke="#63b8ff" points="1951.71,-66.73 1961.95,-64.01 1952.25,-59.75 1951.71,-66.73"/>
</a>
</g>
</g>
<!-- Node18 -->
<g id="Node000018" class="node">
<title>Node18</title>
<g id="a_Node000018"><a xlink:href="m__effect__settings_8c.html" target="_top" xlink:title=" ">
<polygon fill="white" stroke="#666666" points="1637.25,-20.75 1525.25,-20.75 1525.25,0 1637.25,0 1637.25,-20.75"/>
<text xml:space="preserve" text-anchor="middle" x="1581.25" y="-7.25" font-family="Helvetica,sans-Serif" font-size="10.00">m_effect_settings.c</text>
</a>
</g>
</g>
<!-- Node2&#45;&gt;Node18 -->
<g id="edge17_Node000002_Node000018" class="edge">
<title>Node2&#45;&gt;Node18</title>
<g id="a_edge17_Node000002_Node000018"><a xlink:title=" ">
<path fill="none" stroke="#63b8ff" d="M1952.06,-61.24C1888.56,-53.09 1757.25,-36.07 1646.25,-20.75 1643.43,-20.36 1640.53,-19.96 1637.61,-19.55"/>
<polygon fill="#63b8ff" stroke="#63b8ff" points="1951.61,-64.71 1961.97,-62.51 1952.5,-57.77 1951.61,-64.71"/>
</a>
</g>
</g>
<!-- Node19 -->
<g id="Node000019" class="node">
<title>Node19</title>
<g id="a_Node000019"><a xlink:href="m__effect__table_8c.html" target="_top" xlink:title=" ">
<polygon fill="white" stroke="#666666" points="1753.12,-20.75 1655.38,-20.75 1655.38,0 1753.12,0 1753.12,-20.75"/>
<text xml:space="preserve" text-anchor="middle" x="1704.25" y="-7.25" font-family="Helvetica,sans-Serif" font-size="10.00">m_effect_table.c</text>
</a>
</g>
</g>
<!-- Node2&#45;&gt;Node19 -->
<g id="edge18_Node000002_Node000019" class="edge">
<title>Node2&#45;&gt;Node19</title>
<g id="a_edge18_Node000002_Node000019"><a xlink:title=" ">
<path fill="none" stroke="#63b8ff" d="M1952.41,-58.88C1901.25,-49.09 1809.94,-31.61 1753.49,-20.8"/>
<polygon fill="#63b8ff" stroke="#63b8ff" points="1951.63,-62.3 1962.11,-60.74 1952.95,-55.42 1951.63,-62.3"/>
</a>
</g>
</g>
<!-- Node20 -->
<g id="Node000020" class="node">
<title>Node20</title>
<g id="a_Node000020"><a xlink:href="m__effect__view_8c.html" target="_top" xlink:title=" ">
<polygon fill="white" stroke="#666666" points="1867,-20.75 1771.5,-20.75 1771.5,0 1867,0 1867,-20.75"/>
<text xml:space="preserve" text-anchor="middle" x="1819.25" y="-7.25" font-family="Helvetica,sans-Serif" font-size="10.00">m_effect_view.c</text>
</a>
</g>
</g>
<!-- Node2&#45;&gt;Node20 -->
<g id="edge19_Node000002_Node000020" class="edge">
<title>Node2&#45;&gt;Node20</title>
<g id="a_edge19_Node000002_Node000020"><a xlink:title=" ">
<path fill="none" stroke="#63b8ff" d="M1952.76,-54.12C1921.88,-44.24 1878.63,-30.39 1849.82,-21.16"/>
<polygon fill="#63b8ff" stroke="#63b8ff" points="1951.5,-57.39 1962.09,-57.11 1953.63,-50.73 1951.5,-57.39"/>
</a>
</g>
</g>
<!-- Node21 -->
<g id="Node000021" class="node">
<title>Node21</title>
<g id="a_Node000021"><a xlink:href="m__expr__parser_8c.html" target="_top" xlink:title=" ">
<polygon fill="white" stroke="#666666" points="1981.75,-20.75 1884.75,-20.75 1884.75,0 1981.75,0 1981.75,-20.75"/>
<text xml:space="preserve" text-anchor="middle" x="1933.25" y="-7.25" font-family="Helvetica,sans-Serif" font-size="10.00">m_expr_parser.c</text>
</a>
</g>
</g>
<!-- Node2&#45;&gt;Node21 -->
<g id="edge20_Node000002_Node000021" class="edge">
<title>Node2&#45;&gt;Node21</title>
<g id="a_edge20_Node000002_Node000021"><a xlink:title=" ">
<path fill="none" stroke="#63b8ff" d="M1971.98,-48.58C1962.5,-39.47 1951.27,-28.68 1943.35,-21.08"/>
<polygon fill="#63b8ff" stroke="#63b8ff" points="1969.33,-50.89 1978.97,-55.29 1974.18,-45.84 1969.33,-50.89"/>
</a>
</g>
</g>
<!-- Node22 -->
<g id="Node000022" class="node">
<title>Node22</title>
<g id="a_Node000022"><a xlink:href="m__expr__scope_8c.html" target="_top" xlink:title=" ">
<polygon fill="white" stroke="#666666" points="2094.62,-20.75 1999.88,-20.75 1999.88,0 2094.62,0 2094.62,-20.75"/>
<text xml:space="preserve" text-anchor="middle" x="2047.25" y="-7.25" font-family="Helvetica,sans-Serif" font-size="10.00">m_expr_scope.c</text>
</a>
</g>
</g>
<!-- Node2&#45;&gt;Node22 -->
<g id="edge21_Node000002_Node000022" class="edge">
<title>Node2&#45;&gt;Node22</title>
<g id="a_edge21_Node000002_Node000022"><a xlink:title=" ">
<path fill="none" stroke="#63b8ff" d="M2008.52,-48.58C2018,-39.47 2029.23,-28.68 2037.15,-21.08"/>
<polygon fill="#63b8ff" stroke="#63b8ff" points="2006.32,-45.84 2001.53,-55.29 2011.17,-50.89 2006.32,-45.84"/>
</a>
</g>
</g>
<!-- Node23 -->
<g id="Node000023" class="node">
<title>Node23</title>
<g id="a_Node000023"><a xlink:href="m__expression_8c.html" target="_top" xlink:title=" ">
<polygon fill="white" stroke="#666666" points="2205.5,-20.75 2113,-20.75 2113,0 2205.5,0 2205.5,-20.75"/>
<text xml:space="preserve" text-anchor="middle" x="2159.25" y="-7.25" font-family="Helvetica,sans-Serif" font-size="10.00">m_expression.c</text>
</a>
</g>
</g>
<!-- Node2&#45;&gt;Node23 -->
<g id="edge22_Node000002_Node000023" class="edge">
<title>Node2&#45;&gt;Node23</title>
<g id="a_edge22_Node000002_Node000023"><a xlink:title=" ">
<path fill="none" stroke="#63b8ff" d="M2027.65,-54.01C2058.1,-44.15 2100.52,-30.4 2128.88,-21.21"/>
<polygon fill="#63b8ff" stroke="#63b8ff" points="2026.9,-50.57 2018.47,-56.98 2029.06,-57.23 2026.9,-50.57"/>
</a>
</g>
</g>
<!-- Node24 -->
<g id="Node000024" class="node">
<title>Node24</title>
<g id="a_Node000024"><a xlink:href="m__files_8c.html" target="_top" xlink:title=" ">
<polygon fill="white" stroke="#666666" points="2283.38,-20.75 2223.12,-20.75 2223.12,0 2283.38,0 2283.38,-20.75"/>
<text xml:space="preserve" text-anchor="middle" x="2253.25" y="-7.25" font-family="Helvetica,sans-Serif" font-size="10.00">m_files.c</text>
</a>
</g>
</g>
<!-- Node2&#45;&gt;Node24 -->
<g id="edge23_Node000002_Node000024" class="edge">
<title>Node2&#45;&gt;Node24</title>
<g id="a_edge23_Node000002_Node000024"><a xlink:title=" ">
<path fill="none" stroke="#63b8ff" d="M2028.03,-58.9C2072.63,-50.28 2148.99,-35.2 2214.25,-20.75 2217.11,-20.12 2220.07,-19.44 2223.04,-18.75"/>
<polygon fill="#63b8ff" stroke="#63b8ff" points="2027.51,-55.44 2018.35,-60.77 2028.83,-62.31 2027.51,-55.44"/>
</a>
</g>
</g>
<!-- Node25 -->
<g id="Node000025" class="node">
<title>Node25</title>
<g id="a_Node000025"><a xlink:href="m__footswitch_8c.html" target="_top" xlink:title=" ">
<polygon fill="white" stroke="#666666" points="2391.38,-20.75 2301.12,-20.75 2301.12,0 2391.38,0 2391.38,-20.75"/>
<text xml:space="preserve" text-anchor="middle" x="2346.25" y="-7.25" font-family="Helvetica,sans-Serif" font-size="10.00">m_footswitch.c</text>
</a>
</g>
</g>
<!-- Node2&#45;&gt;Node25 -->
<g id="edge24_Node000002_Node000025" class="edge">
<title>Node2&#45;&gt;Node25</title>
<g id="a_edge24_Node000002_Node000025"><a xlink:title=" ">
<path fill="none" stroke="#63b8ff" d="M2028.32,-60.69C2085.63,-52.44 2197.46,-36.1 2292.25,-20.75 2295.07,-20.29 2297.97,-19.82 2300.89,-19.33"/>
<polygon fill="#63b8ff" stroke="#63b8ff" points="2027.84,-57.22 2018.44,-62.11 2028.84,-64.15 2027.84,-57.22"/>
</a>
</g>
</g>
<!-- Node26 -->
<g id="Node000026" class="node">
<title>Node26</title>
<g id="a_Node000026"><a xlink:href="m__fpga__comms_8c.html" target="_top" xlink:title=" ">
<polygon fill="white" stroke="#666666" points="2511.38,-20.75 2409.12,-20.75 2409.12,0 2511.38,0 2511.38,-20.75"/>
<text xml:space="preserve" text-anchor="middle" x="2460.25" y="-7.25" font-family="Helvetica,sans-Serif" font-size="10.00">m_fpga_comms.c</text>
</a>
</g>
</g>
<!-- Node2&#45;&gt;Node26 -->
<g id="edge25_Node000002_Node000026" class="edge">
<title>Node2&#45;&gt;Node26</title>
<g id="a_edge25_Node000002_Node000026"><a xlink:title=" ">
<path fill="none" stroke="#63b8ff" d="M2027.89,-62.53C2100.18,-55.5 2263.41,-39 2400.25,-20.75 2403.07,-20.37 2405.97,-19.97 2408.88,-19.56"/>
<polygon fill="#63b8ff" stroke="#63b8ff" points="2027.8,-59.02 2018.19,-63.47 2028.48,-65.99 2027.8,-59.02"/>
</a>
</g>
</g>
<!-- Node27 -->
<g id="Node000027" class="node">
<title>Node27</title>
<g id="a_Node000027"><a xlink:href="m__fpga__encoding_8c.html" target="_top" xlink:title=" ">
<polygon fill="white" stroke="#666666" points="2639.5,-20.75 2529,-20.75 2529,0 2639.5,0 2639.5,-20.75"/>
<text xml:space="preserve" text-anchor="middle" x="2584.25" y="-7.25" font-family="Helvetica,sans-Serif" font-size="10.00">m_fpga_encoding.c</text>
</a>
</g>
</g>
<!-- Node2&#45;&gt;Node27 -->
<g id="edge26_Node000002_Node000027" class="edge">
<title>Node2&#45;&gt;Node27</title>
<g id="a_edge26_Node000002_Node000027"><a xlink:title=" ">
<path fill="none" stroke="#63b8ff" d="M2028.47,-63.64C2115.77,-57.8 2336.48,-42.06 2520.25,-20.75 2523.04,-20.43 2525.89,-20.08 2528.77,-19.71"/>
<polygon fill="#63b8ff" stroke="#63b8ff" points="2028.31,-60.15 2018.57,-64.3 2028.78,-67.13 2028.31,-60.15"/>
</a>
</g>
</g>
<!-- Node28 -->
<g id="Node000028" class="node">
<title>Node28</title>
<g id="a_Node000028"><a xlink:href="m__fpga__io_8c.html" target="_top" xlink:title=" ">
<polygon fill="white" stroke="#666666" points="2732.88,-20.75 2657.62,-20.75 2657.62,0 2732.88,0 2732.88,-20.75"/>
<text xml:space="preserve" text-anchor="middle" x="2695.25" y="-7.25" font-family="Helvetica,sans-Serif" font-size="10.00">m_fpga_io.c</text>
</a>
</g>
</g>
<!-- Node2&#45;&gt;Node28 -->
<g id="edge27_Node000002_Node000028" class="edge">
<title>Node2&#45;&gt;Node28</title>
<g id="a_edge27_Node000002_Node000028"><a xlink:title=" ">
<path fill="none" stroke="#63b8ff" d="M2028.46,-65.2C2129.85,-62.37 2414.03,-52.05 2648.25,-20.75 2651.22,-20.35 2654.28,-19.88 2657.35,-19.37"/>
<polygon fill="#63b8ff" stroke="#63b8ff" points="2028.43,-61.7 2018.52,-65.47 2028.62,-68.7 2028.43,-61.7"/>
</a>
</g>
</g>
<!-- Node29 -->
<g id="Node000029" class="node">
<title>Node29</title>
<g id="a_Node000029"><a xlink:href="m__int_8c.html" target="_top" xlink:title=" ">
<polygon fill="white" stroke="#666666" points="2803.25,-20.75 2751.25,-20.75 2751.25,0 2803.25,0 2803.25,-20.75"/>
<text xml:space="preserve" text-anchor="middle" x="2777.25" y="-7.25" font-family="Helvetica,sans-Serif" font-size="10.00">m_int.c</text>
</a>
</g>
</g>
<!-- Node2&#45;&gt;Node29 -->
<g id="edge28_Node000002_Node000029" class="edge">
<title>Node2&#45;&gt;Node29</title>
<g id="a_edge28_Node000002_Node000029"><a xlink:title=" ">
<path fill="none" stroke="#63b8ff" d="M2028.34,-66.52C2139.25,-67.1 2471.33,-64.75 2742.25,-20.75 2745.11,-20.29 2748.07,-19.69 2751,-19.01"/>
<polygon fill="#63b8ff" stroke="#63b8ff" points="2028.64,-63.02 2018.62,-66.46 2028.6,-70.02 2028.64,-63.02"/>
</a>
</g>
</g>
<!-- Node30 -->
<g id="Node000030" class="node">
<title>Node30</title>
<g id="a_Node000030"><a xlink:href="m__lv__log_8c.html" target="_top" xlink:title=" ">
<polygon fill="white" stroke="#666666" points="2889.5,-20.75 2821,-20.75 2821,0 2889.5,0 2889.5,-20.75"/>
<text xml:space="preserve" text-anchor="middle" x="2855.25" y="-7.25" font-family="Helvetica,sans-Serif" font-size="10.00">m_lv_log.c</text>
</a>
</g>
</g>
<!-- Node2&#45;&gt;Node30 -->
<g id="edge29_Node000002_Node000030" class="edge">
<title>Node2&#45;&gt;Node30</title>
<g id="a_edge29_Node000002_Node000030"><a xlink:title=" ">
<path fill="none" stroke="#63b8ff" d="M2028.19,-66.18C2145.42,-65.88 2512.04,-61.5 2812.25,-20.75 2814.98,-20.38 2817.79,-19.93 2820.6,-19.43"/>
<polygon fill="#63b8ff" stroke="#63b8ff" points="2028.52,-62.68 2018.52,-66.19 2028.53,-69.68 2028.52,-62.68"/>
</a>
</g>
</g>
<!-- Node31 -->
<g id="Node000031" class="node">
<title>Node31</title>
<g id="a_Node000031"><a xlink:href="m__menu_8c.html" target="_top" xlink:title=" ">
<polygon fill="white" stroke="#666666" points="2974.75,-20.75 2907.75,-20.75 2907.75,0 2974.75,0 2974.75,-20.75"/>
<text xml:space="preserve" text-anchor="middle" x="2941.25" y="-7.25" font-family="Helvetica,sans-Serif" font-size="10.00">m_menu.c</text>
</a>
</g>
</g>
<!-- Node2&#45;&gt;Node31 -->
<g id="edge30_Node000002_Node000031" class="edge">
<title>Node2&#45;&gt;Node31</title>
<g id="a_edge30_Node000002_Node000031"><a xlink:title=" ">
<path fill="none" stroke="#63b8ff" d="M2027.93,-66.46C2152.6,-67.08 2562.91,-65.38 2898.25,-20.75 2901.28,-20.35 2904.41,-19.84 2907.54,-19.27"/>
<polygon fill="#63b8ff" stroke="#63b8ff" points="2028.3,-62.96 2018.28,-66.4 2028.26,-69.96 2028.3,-62.96"/>
</a>
</g>
</g>
<!-- Node32 -->
<g id="Node000032" class="node">
<title>Node32</title>
<g id="a_Node000032"><a xlink:href="m__page__id_8c.html" target="_top" xlink:title=" ">
<polygon fill="white" stroke="#666666" points="3070,-20.75 2992.5,-20.75 2992.5,0 3070,0 3070,-20.75"/>
<text xml:space="preserve" text-anchor="middle" x="3031.25" y="-7.25" font-family="Helvetica,sans-Serif" font-size="10.00">m_page_id.c</text>
</a>
</g>
</g>
<!-- Node2&#45;&gt;Node32 -->
<g id="edge31_Node000002_Node000032" class="edge">
<title>Node2&#45;&gt;Node32</title>
<g id="a_edge31_Node000002_Node000032"><a xlink:title=" ">
<path fill="none" stroke="#63b8ff" d="M2028.33,-66.45C2160.83,-67.16 2613.84,-65.88 2984.25,-20.75 2986.81,-20.44 2989.44,-20.06 2992.08,-19.65"/>
<polygon fill="#63b8ff" stroke="#63b8ff" points="2028.4,-62.95 2018.38,-66.39 2028.36,-69.95 2028.4,-62.95"/>
</a>
</g>
</g>
<!-- Node33 -->
<g id="Node000033" class="node">
<title>Node33</title>
<g id="a_Node000033"><a xlink:href="m__param__update_8c.html" target="_top" xlink:title=" ">
<polygon fill="white" stroke="#666666" points="3198.12,-20.75 3088.38,-20.75 3088.38,0 3198.12,0 3198.12,-20.75"/>
<text xml:space="preserve" text-anchor="middle" x="3143.25" y="-7.25" font-family="Helvetica,sans-Serif" font-size="10.00">m_param_update.c</text>
</a>
</g>
</g>
<!-- Node2&#45;&gt;Node33 -->
<g id="edge32_Node000002_Node000033" class="edge">
<title>Node2&#45;&gt;Node33</title>
<g id="a_edge32_Node000002_Node000033"><a xlink:title=" ">
<path fill="none" stroke="#63b8ff" d="M2028.16,-65.97C2168.09,-65.09 2668.73,-59.27 3079.25,-20.75 3082.16,-20.48 3085.13,-20.16 3088.14,-19.82"/>
<polygon fill="#63b8ff" stroke="#63b8ff" points="2028.34,-62.47 2018.37,-66.02 2028.39,-69.47 2028.34,-62.47"/>
</a>
</g>
</g>
<!-- Node34 -->
<g id="Node000034" class="node">
<title>Node34</title>
<g id="a_Node000034"><a xlink:href="m__parameter_8c.html" target="_top" xlink:title=" ">
<polygon fill="white" stroke="#666666" points="3306.38,-20.75 3216.12,-20.75 3216.12,0 3306.38,0 3306.38,-20.75"/>
<text xml:space="preserve" text-anchor="middle" x="3261.25" y="-7.25" font-family="Helvetica,sans-Serif" font-size="10.00">m_parameter.c</text>
</a>
</g>
</g>
<!-- Node2&#45;&gt;Node34 -->
<g id="edge33_Node000002_Node000034" class="edge">
<title>Node2&#45;&gt;Node34</title>
<g id="a_edge33_Node000002_Node000034"><a xlink:title=" ">
<path fill="none" stroke="#63b8ff" d="M2028.15,-66.57C2178.14,-67.92 2744.56,-69.32 3207.25,-20.75 3209.99,-20.46 3212.81,-20.12 3215.65,-19.74"/>
<polygon fill="#63b8ff" stroke="#63b8ff" points="2028.44,-63.07 2018.41,-66.47 2028.37,-70.07 2028.44,-63.07"/>
</a>
</g>
</g>
<!-- Node35 -->
<g id="Node000035" class="node">
<title>Node35</title>
<g id="a_Node000035"><a xlink:href="m__parameter__widget_8c.html" target="_top" xlink:title=" ">
<polygon fill="white" stroke="#666666" points="3452.5,-20.75 3324,-20.75 3324,0 3452.5,0 3452.5,-20.75"/>
<text xml:space="preserve" text-anchor="middle" x="3388.25" y="-7.25" font-family="Helvetica,sans-Serif" font-size="10.00">m_parameter_widget.c</text>
</a>
</g>
</g>
<!-- Node2&#45;&gt;Node35 -->
<g id="edge34_Node000002_Node000035" class="edge">
<title>Node2&#45;&gt;Node35</title>
<g id="a_edge34_Node000002_Node000035"><a xlink:title=" ">
<path fill="none" stroke="#63b8ff" d="M2028.31,-66.12C2186.46,-65.83 2807.14,-61.99 3315.25,-20.75 3318.05,-20.52 3320.91,-20.27 3323.8,-19.98"/>
<polygon fill="#63b8ff" stroke="#63b8ff" points="2028.41,-62.62 2018.42,-66.14 2028.42,-69.62 2028.41,-62.62"/>
</a>
</g>
</g>
<!-- Node36 -->
<g id="Node000036" class="node">
<title>Node36</title>
<g id="a_Node000036"><a xlink:href="m__pipeline_8c.html" target="_top" xlink:title=" ">
<polygon fill="white" stroke="#666666" points="3548.38,-20.75 3470.12,-20.75 3470.12,0 3548.38,0 3548.38,-20.75"/>
<text xml:space="preserve" text-anchor="middle" x="3509.25" y="-7.25" font-family="Helvetica,sans-Serif" font-size="10.00">m_pipeline.c</text>
</a>
</g>
</g>
<!-- Node2&#45;&gt;Node36 -->
<g id="edge35_Node000002_Node000036" class="edge">
<title>Node2&#45;&gt;Node36</title>
<g id="a_edge35_Node000002_Node000036"><a xlink:title=" ">
<path fill="none" stroke="#63b8ff" d="M2028.24,-65.79C2229.36,-63.87 3171.53,-53.29 3461.25,-20.75 3464.03,-20.44 3466.9,-20.05 3469.78,-19.61"/>
<polygon fill="#63b8ff" stroke="#63b8ff" points="2028.33,-62.29 2018.37,-65.88 2028.4,-69.29 2028.33,-62.29"/>
</a>
</g>
</g>
<!-- Node37 -->
<g id="Node000037" class="node">
<title>Node37</title>
<g id="a_Node000037"><a xlink:href="m__printf_8c.html" target="_top" xlink:title=" ">
<polygon fill="white" stroke="#666666" points="3631.62,-20.75 3566.88,-20.75 3566.88,0 3631.62,0 3631.62,-20.75"/>
<text xml:space="preserve" text-anchor="middle" x="3599.25" y="-7.25" font-family="Helvetica,sans-Serif" font-size="10.00">m_printf.c</text>
</a>
</g>
</g>
<!-- Node2&#45;&gt;Node37 -->
<g id="edge36_Node000002_Node000037" class="edge">
<title>Node2&#45;&gt;Node37</title>
<g id="a_edge36_Node000002_Node000037"><a xlink:title=" ">
<path fill="none" stroke="#63b8ff" d="M2028.06,-66.01C2236.58,-65.22 3247.79,-59.41 3557.25,-20.75 3560.36,-20.36 3563.59,-19.85 3566.8,-19.26"/>
<polygon fill="#63b8ff" stroke="#63b8ff" points="2028.34,-62.51 2018.35,-66.04 2028.37,-69.51 2028.34,-62.51"/>
</a>
</g>
</g>
<!-- Node38 -->
<g id="Node000038" class="node">
<title>Node38</title>
<g id="a_Node000038"><a xlink:href="m__profile_8c.html" target="_top" xlink:title=" ">
<polygon fill="white" stroke="#666666" points="3720.62,-20.75 3649.88,-20.75 3649.88,0 3720.62,0 3720.62,-20.75"/>
<text xml:space="preserve" text-anchor="middle" x="3685.25" y="-7.25" font-family="Helvetica,sans-Serif" font-size="10.00">m_profile.c</text>
</a>
</g>
</g>
<!-- Node2&#45;&gt;Node38 -->
<g id="edge37_Node000002_Node000038" class="edge">
<title>Node2&#45;&gt;Node38</title>
<g id="a_edge37_Node000002_Node000038"><a xlink:title=" ">
<path fill="none" stroke="#63b8ff" d="M2028.34,-66C2243.94,-65.14 3313.24,-59 3640.25,-20.75 3643.26,-20.4 3646.37,-19.94 3649.48,-19.43"/>
<polygon fill="#63b8ff" stroke="#63b8ff" points="2028.54,-62.5 2018.55,-66.04 2028.56,-69.5 2028.54,-62.5"/>
</a>
</g>
</g>
<!-- Node39 -->
<g id="Node000039" class="node">
<title>Node39</title>
<g id="a_Node000039"><a xlink:href="m__profile__settings_8c.html" target="_top" xlink:title=" ">
<polygon fill="white" stroke="#666666" points="3853.75,-20.75 3738.75,-20.75 3738.75,0 3853.75,0 3853.75,-20.75"/>
<text xml:space="preserve" text-anchor="middle" x="3796.25" y="-7.25" font-family="Helvetica,sans-Serif" font-size="10.00">m_profile_settings.c</text>
</a>
</g>
</g>
<!-- Node2&#45;&gt;Node39 -->
<g id="edge38_Node000002_Node000039" class="edge">
<title>Node2&#45;&gt;Node39</title>
<g id="a_edge38_Node000002_Node000039"><a xlink:title=" ">
<path fill="none" stroke="#63b8ff" d="M2028.22,-65.72C2250.24,-63.25 3382.35,-49.45 3729.25,-20.75 3732.29,-20.5 3735.41,-20.2 3738.55,-19.87"/>
<polygon fill="#63b8ff" stroke="#63b8ff" points="2028.38,-62.22 2018.42,-65.83 2028.46,-69.22 2028.38,-62.22"/>
</a>
</g>
</g>
<!-- Node40 -->
<g id="Node000040" class="node">
<title>Node40</title>
<g id="a_Node000040"><a xlink:href="m__profile__view_8c.html" target="_top" xlink:title=" ">
<polygon fill="white" stroke="#666666" points="3970.5,-20.75 3872,-20.75 3872,0 3970.5,0 3970.5,-20.75"/>
<text xml:space="preserve" text-anchor="middle" x="3921.25" y="-7.25" font-family="Helvetica,sans-Serif" font-size="10.00">m_profile_view.c</text>
</a>
</g>
</g>
<!-- Node2&#45;&gt;Node40 -->
<g id="edge39_Node000002_Node000040" class="edge">
<title>Node2&#45;&gt;Node40</title>
<g id="a_edge39_Node000002_Node000040"><a xlink:title=" ">
<path fill="none" stroke="#63b8ff" d="M2028.2,-65.91C2260.1,-64.49 3488.39,-55.42 3863.25,-20.75 3865.99,-20.5 3868.8,-20.19 3871.63,-19.85"/>
<polygon fill="#63b8ff" stroke="#63b8ff" points="2028.51,-62.41 2018.54,-65.97 2028.56,-69.41 2028.51,-62.41"/>
</a>
</g>
</g>
</g>
</svg>
